<?xml version="1.0" encoding="utf-8" standalone="no"?>
<!DOCTYPE svg PUBLIC "-//W3C//DTD SVG 1.1//EN"
  "http://www.w3.org/Graphics/SVG/1.1/DTD/svg11.dtd">
<svg xmlns:xlink="http://www.w3.org/1999/xlink" width="460.8pt" height="345.6pt" viewBox="0 0 460.8 345.6" xmlns="http://www.w3.org/2000/svg" version="1.1">
 <metadata>
  <rdf:RDF xmlns:dc="http://purl.org/dc/elements/1.1/" xmlns:cc="http://creativecommons.org/ns#" xmlns:rdf="http://www.w3.org/1999/02/22-rdf-syntax-ns#">
   <cc:Work>
    <dc:type rdf:resource="http://purl.org/dc/dcmitype/StillImage"/>
    <dc:date>2023-04-13T05:31:44.775551</dc:date>
    <dc:format>image/svg+xml</dc:format>
    <dc:creator>
     <cc:Agent>
      <dc:title>Matplotlib v3.7.1, https://matplotlib.org/</dc:title>
     </cc:Agent>
    </dc:creator>
   </cc:Work>
  </rdf:RDF>
 </metadata>
 <defs>
  <style type="text/css">*{stroke-linejoin: round; stroke-linecap: butt}</style>
 </defs>
 <g id="figure_1">
  <g id="patch_1">
   <path d="M 0 345.6 
L 460.8 345.6 
L 460.8 0 
L 0 0 
z
" style="fill: #ffffff"/>
  </g>
  <g id="axes_1">
   <g id="patch_2">
    <path d="M 57.6 307.584 
L 414.72 307.584 
L 414.72 41.472 
L 57.6 41.472 
z
" style="fill: #ffffff"/>
   </g>
   <g id="matplotlib.axis_1">
    <g id="xtick_1">
     <g id="line2d_1">
      <defs>
       <path id="m2e8fdfc757" d="M 0 0 
L 0 3.5 
" style="stroke: #000000; stroke-width: 0.8"/>
      </defs>
      <g>
       <use xlink:href="#m2e8fdfc757" x="58.981638" y="307.584" style="stroke: #000000; stroke-width: 0.8"/>
      </g>
     </g>
     <g id="text_1">
      <!-- 2008 -->
      <g transform="translate(46.256638 322.182437) scale(0.1 -0.1)">
       <defs>
        <path id="DejaVuSans-32" d="M 1228 531 
L 3431 531 
L 3431 0 
L 469 0 
L 469 531 
Q 828 903 1448 1529 
Q 2069 2156 2228 2338 
Q 2531 2678 2651 2914 
Q 2772 3150 2772 3378 
Q 2772 3750 2511 3984 
Q 2250 4219 1831 4219 
Q 1534 4219 1204 4116 
Q 875 4013 500 3803 
L 500 4441 
Q 881 4594 1212 4672 
Q 1544 4750 1819 4750 
Q 2544 4750 2975 4387 
Q 3406 4025 3406 3419 
Q 3406 3131 3298 2873 
Q 3191 2616 2906 2266 
Q 2828 2175 2409 1742 
Q 1991 1309 1228 531 
z
" transform="scale(0.015625)"/>
        <path id="DejaVuSans-30" d="M 2034 4250 
Q 1547 4250 1301 3770 
Q 1056 3291 1056 2328 
Q 1056 1369 1301 889 
Q 1547 409 2034 409 
Q 2525 409 2770 889 
Q 3016 1369 3016 2328 
Q 3016 3291 2770 3770 
Q 2525 4250 2034 4250 
z
M 2034 4750 
Q 2819 4750 3233 4129 
Q 3647 3509 3647 2328 
Q 3647 1150 3233 529 
Q 2819 -91 2034 -91 
Q 1250 -91 836 529 
Q 422 1150 422 2328 
Q 422 3509 836 4129 
Q 1250 4750 2034 4750 
z
" transform="scale(0.015625)"/>
        <path id="DejaVuSans-38" d="M 2034 2216 
Q 1584 2216 1326 1975 
Q 1069 1734 1069 1313 
Q 1069 891 1326 650 
Q 1584 409 2034 409 
Q 2484 409 2743 651 
Q 3003 894 3003 1313 
Q 3003 1734 2745 1975 
Q 2488 2216 2034 2216 
z
M 1403 2484 
Q 997 2584 770 2862 
Q 544 3141 544 3541 
Q 544 4100 942 4425 
Q 1341 4750 2034 4750 
Q 2731 4750 3128 4425 
Q 3525 4100 3525 3541 
Q 3525 3141 3298 2862 
Q 3072 2584 2669 2484 
Q 3125 2378 3379 2068 
Q 3634 1759 3634 1313 
Q 3634 634 3220 271 
Q 2806 -91 2034 -91 
Q 1263 -91 848 271 
Q 434 634 434 1313 
Q 434 1759 690 2068 
Q 947 2378 1403 2484 
z
M 1172 3481 
Q 1172 3119 1398 2916 
Q 1625 2713 2034 2713 
Q 2441 2713 2670 2916 
Q 2900 3119 2900 3481 
Q 2900 3844 2670 4047 
Q 2441 4250 2034 4250 
Q 1625 4250 1398 4047 
Q 1172 3844 1172 3481 
z
" transform="scale(0.015625)"/>
       </defs>
       <use xlink:href="#DejaVuSans-32"/>
       <use xlink:href="#DejaVuSans-30" x="63.623047"/>
       <use xlink:href="#DejaVuSans-30" x="127.246094"/>
       <use xlink:href="#DejaVuSans-38" x="190.869141"/>
      </g>
     </g>
    </g>
    <g id="xtick_2">
     <g id="line2d_2">
      <g>
       <use xlink:href="#m2e8fdfc757" x="103.47404" y="307.584" style="stroke: #000000; stroke-width: 0.8"/>
      </g>
     </g>
     <g id="text_2">
      <!-- 2010 -->
      <g transform="translate(90.74904 322.182437) scale(0.1 -0.1)">
       <defs>
        <path id="DejaVuSans-31" d="M 794 531 
L 1825 531 
L 1825 4091 
L 703 3866 
L 703 4441 
L 1819 4666 
L 2450 4666 
L 2450 531 
L 3481 531 
L 3481 0 
L 794 0 
L 794 531 
z
" transform="scale(0.015625)"/>
       </defs>
       <use xlink:href="#DejaVuSans-32"/>
       <use xlink:href="#DejaVuSans-30" x="63.623047"/>
       <use xlink:href="#DejaVuSans-31" x="127.246094"/>
       <use xlink:href="#DejaVuSans-30" x="190.869141"/>
      </g>
     </g>
    </g>
    <g id="xtick_3">
     <g id="line2d_3">
      <g>
       <use xlink:href="#m2e8fdfc757" x="147.905577" y="307.584" style="stroke: #000000; stroke-width: 0.8"/>
      </g>
     </g>
     <g id="text_3">
      <!-- 2012 -->
      <g transform="translate(135.180577 322.182437) scale(0.1 -0.1)">
       <use xlink:href="#DejaVuSans-32"/>
       <use xlink:href="#DejaVuSans-30" x="63.623047"/>
       <use xlink:href="#DejaVuSans-31" x="127.246094"/>
       <use xlink:href="#DejaVuSans-32" x="190.869141"/>
      </g>
     </g>
    </g>
    <g id="xtick_4">
     <g id="line2d_4">
      <g>
       <use xlink:href="#m2e8fdfc757" x="192.397979" y="307.584" style="stroke: #000000; stroke-width: 0.8"/>
      </g>
     </g>
     <g id="text_4">
      <!-- 2014 -->
      <g transform="translate(179.672979 322.182437) scale(0.1 -0.1)">
       <defs>
        <path id="DejaVuSans-34" d="M 2419 4116 
L 825 1625 
L 2419 1625 
L 2419 4116 
z
M 2253 4666 
L 3047 4666 
L 3047 1625 
L 3713 1625 
L 3713 1100 
L 3047 1100 
L 3047 0 
L 2419 0 
L 2419 1100 
L 313 1100 
L 313 1709 
L 2253 4666 
z
" transform="scale(0.015625)"/>
       </defs>
       <use xlink:href="#DejaVuSans-32"/>
       <use xlink:href="#DejaVuSans-30" x="63.623047"/>
       <use xlink:href="#DejaVuSans-31" x="127.246094"/>
       <use xlink:href="#DejaVuSans-34" x="190.869141"/>
      </g>
     </g>
    </g>
    <g id="xtick_5">
     <g id="line2d_5">
      <g>
       <use xlink:href="#m2e8fdfc757" x="236.829516" y="307.584" style="stroke: #000000; stroke-width: 0.8"/>
      </g>
     </g>
     <g id="text_5">
      <!-- 2016 -->
      <g transform="translate(224.104516 322.182437) scale(0.1 -0.1)">
       <defs>
        <path id="DejaVuSans-36" d="M 2113 2584 
Q 1688 2584 1439 2293 
Q 1191 2003 1191 1497 
Q 1191 994 1439 701 
Q 1688 409 2113 409 
Q 2538 409 2786 701 
Q 3034 994 3034 1497 
Q 3034 2003 2786 2293 
Q 2538 2584 2113 2584 
z
M 3366 4563 
L 3366 3988 
Q 3128 4100 2886 4159 
Q 2644 4219 2406 4219 
Q 1781 4219 1451 3797 
Q 1122 3375 1075 2522 
Q 1259 2794 1537 2939 
Q 1816 3084 2150 3084 
Q 2853 3084 3261 2657 
Q 3669 2231 3669 1497 
Q 3669 778 3244 343 
Q 2819 -91 2113 -91 
Q 1303 -91 875 529 
Q 447 1150 447 2328 
Q 447 3434 972 4092 
Q 1497 4750 2381 4750 
Q 2619 4750 2861 4703 
Q 3103 4656 3366 4563 
z
" transform="scale(0.015625)"/>
       </defs>
       <use xlink:href="#DejaVuSans-32"/>
       <use xlink:href="#DejaVuSans-30" x="63.623047"/>
       <use xlink:href="#DejaVuSans-31" x="127.246094"/>
       <use xlink:href="#DejaVuSans-36" x="190.869141"/>
      </g>
     </g>
    </g>
    <g id="xtick_6">
     <g id="line2d_6">
      <g>
       <use xlink:href="#m2e8fdfc757" x="281.321918" y="307.584" style="stroke: #000000; stroke-width: 0.8"/>
      </g>
     </g>
     <g id="text_6">
      <!-- 2018 -->
      <g transform="translate(268.596918 322.182437) scale(0.1 -0.1)">
       <use xlink:href="#DejaVuSans-32"/>
       <use xlink:href="#DejaVuSans-30" x="63.623047"/>
       <use xlink:href="#DejaVuSans-31" x="127.246094"/>
       <use xlink:href="#DejaVuSans-38" x="190.869141"/>
      </g>
     </g>
    </g>
    <g id="xtick_7">
     <g id="line2d_7">
      <g>
       <use xlink:href="#m2e8fdfc757" x="325.753455" y="307.584" style="stroke: #000000; stroke-width: 0.8"/>
      </g>
     </g>
     <g id="text_7">
      <!-- 2020 -->
      <g transform="translate(313.028455 322.182437) scale(0.1 -0.1)">
       <use xlink:href="#DejaVuSans-32"/>
       <use xlink:href="#DejaVuSans-30" x="63.623047"/>
       <use xlink:href="#DejaVuSans-32" x="127.246094"/>
       <use xlink:href="#DejaVuSans-30" x="190.869141"/>
      </g>
     </g>
    </g>
    <g id="xtick_8">
     <g id="line2d_8">
      <g>
       <use xlink:href="#m2e8fdfc757" x="370.245857" y="307.584" style="stroke: #000000; stroke-width: 0.8"/>
      </g>
     </g>
     <g id="text_8">
      <!-- 2022 -->
      <g transform="translate(357.520857 322.182437) scale(0.1 -0.1)">
       <use xlink:href="#DejaVuSans-32"/>
       <use xlink:href="#DejaVuSans-30" x="63.623047"/>
       <use xlink:href="#DejaVuSans-32" x="127.246094"/>
       <use xlink:href="#DejaVuSans-32" x="190.869141"/>
      </g>
     </g>
    </g>
    <g id="xtick_9">
     <g id="line2d_9">
      <g>
       <use xlink:href="#m2e8fdfc757" x="414.677394" y="307.584" style="stroke: #000000; stroke-width: 0.8"/>
      </g>
     </g>
     <g id="text_9">
      <!-- 2024 -->
      <g transform="translate(401.952394 322.182437) scale(0.1 -0.1)">
       <use xlink:href="#DejaVuSans-32"/>
       <use xlink:href="#DejaVuSans-30" x="63.623047"/>
       <use xlink:href="#DejaVuSans-32" x="127.246094"/>
       <use xlink:href="#DejaVuSans-34" x="190.869141"/>
      </g>
     </g>
    </g>
    <g id="text_10">
     <!-- Updated 2023-04-13 05:31:44.773495 - Last record 2023-04-11 -->
     <g transform="translate(75.905312 335.860562) scale(0.1 -0.1)">
      <defs>
       <path id="DejaVuSans-55" d="M 556 4666 
L 1191 4666 
L 1191 1831 
Q 1191 1081 1462 751 
Q 1734 422 2344 422 
Q 2950 422 3222 751 
Q 3494 1081 3494 1831 
L 3494 4666 
L 4128 4666 
L 4128 1753 
Q 4128 841 3676 375 
Q 3225 -91 2344 -91 
Q 1459 -91 1007 375 
Q 556 841 556 1753 
L 556 4666 
z
" transform="scale(0.015625)"/>
       <path id="DejaVuSans-70" d="M 1159 525 
L 1159 -1331 
L 581 -1331 
L 581 3500 
L 1159 3500 
L 1159 2969 
Q 1341 3281 1617 3432 
Q 1894 3584 2278 3584 
Q 2916 3584 3314 3078 
Q 3713 2572 3713 1747 
Q 3713 922 3314 415 
Q 2916 -91 2278 -91 
Q 1894 -91 1617 61 
Q 1341 213 1159 525 
z
M 3116 1747 
Q 3116 2381 2855 2742 
Q 2594 3103 2138 3103 
Q 1681 3103 1420 2742 
Q 1159 2381 1159 1747 
Q 1159 1113 1420 752 
Q 1681 391 2138 391 
Q 2594 391 2855 752 
Q 3116 1113 3116 1747 
z
" transform="scale(0.015625)"/>
       <path id="DejaVuSans-64" d="M 2906 2969 
L 2906 4863 
L 3481 4863 
L 3481 0 
L 2906 0 
L 2906 525 
Q 2725 213 2448 61 
Q 2172 -91 1784 -91 
Q 1150 -91 751 415 
Q 353 922 353 1747 
Q 353 2572 751 3078 
Q 1150 3584 1784 3584 
Q 2172 3584 2448 3432 
Q 2725 3281 2906 2969 
z
M 947 1747 
Q 947 1113 1208 752 
Q 1469 391 1925 391 
Q 2381 391 2643 752 
Q 2906 1113 2906 1747 
Q 2906 2381 2643 2742 
Q 2381 3103 1925 3103 
Q 1469 3103 1208 2742 
Q 947 2381 947 1747 
z
" transform="scale(0.015625)"/>
       <path id="DejaVuSans-61" d="M 2194 1759 
Q 1497 1759 1228 1600 
Q 959 1441 959 1056 
Q 959 750 1161 570 
Q 1363 391 1709 391 
Q 2188 391 2477 730 
Q 2766 1069 2766 1631 
L 2766 1759 
L 2194 1759 
z
M 3341 1997 
L 3341 0 
L 2766 0 
L 2766 531 
Q 2569 213 2275 61 
Q 1981 -91 1556 -91 
Q 1019 -91 701 211 
Q 384 513 384 1019 
Q 384 1609 779 1909 
Q 1175 2209 1959 2209 
L 2766 2209 
L 2766 2266 
Q 2766 2663 2505 2880 
Q 2244 3097 1772 3097 
Q 1472 3097 1187 3025 
Q 903 2953 641 2809 
L 641 3341 
Q 956 3463 1253 3523 
Q 1550 3584 1831 3584 
Q 2591 3584 2966 3190 
Q 3341 2797 3341 1997 
z
" transform="scale(0.015625)"/>
       <path id="DejaVuSans-74" d="M 1172 4494 
L 1172 3500 
L 2356 3500 
L 2356 3053 
L 1172 3053 
L 1172 1153 
Q 1172 725 1289 603 
Q 1406 481 1766 481 
L 2356 481 
L 2356 0 
L 1766 0 
Q 1100 0 847 248 
Q 594 497 594 1153 
L 594 3053 
L 172 3053 
L 172 3500 
L 594 3500 
L 594 4494 
L 1172 4494 
z
" transform="scale(0.015625)"/>
       <path id="DejaVuSans-65" d="M 3597 1894 
L 3597 1613 
L 953 1613 
Q 991 1019 1311 708 
Q 1631 397 2203 397 
Q 2534 397 2845 478 
Q 3156 559 3463 722 
L 3463 178 
Q 3153 47 2828 -22 
Q 2503 -91 2169 -91 
Q 1331 -91 842 396 
Q 353 884 353 1716 
Q 353 2575 817 3079 
Q 1281 3584 2069 3584 
Q 2775 3584 3186 3129 
Q 3597 2675 3597 1894 
z
M 3022 2063 
Q 3016 2534 2758 2815 
Q 2500 3097 2075 3097 
Q 1594 3097 1305 2825 
Q 1016 2553 972 2059 
L 3022 2063 
z
" transform="scale(0.015625)"/>
       <path id="DejaVuSans-20" transform="scale(0.015625)"/>
       <path id="DejaVuSans-33" d="M 2597 2516 
Q 3050 2419 3304 2112 
Q 3559 1806 3559 1356 
Q 3559 666 3084 287 
Q 2609 -91 1734 -91 
Q 1441 -91 1130 -33 
Q 819 25 488 141 
L 488 750 
Q 750 597 1062 519 
Q 1375 441 1716 441 
Q 2309 441 2620 675 
Q 2931 909 2931 1356 
Q 2931 1769 2642 2001 
Q 2353 2234 1838 2234 
L 1294 2234 
L 1294 2753 
L 1863 2753 
Q 2328 2753 2575 2939 
Q 2822 3125 2822 3475 
Q 2822 3834 2567 4026 
Q 2313 4219 1838 4219 
Q 1578 4219 1281 4162 
Q 984 4106 628 3988 
L 628 4550 
Q 988 4650 1302 4700 
Q 1616 4750 1894 4750 
Q 2613 4750 3031 4423 
Q 3450 4097 3450 3541 
Q 3450 3153 3228 2886 
Q 3006 2619 2597 2516 
z
" transform="scale(0.015625)"/>
       <path id="DejaVuSans-2d" d="M 313 2009 
L 1997 2009 
L 1997 1497 
L 313 1497 
L 313 2009 
z
" transform="scale(0.015625)"/>
       <path id="DejaVuSans-35" d="M 691 4666 
L 3169 4666 
L 3169 4134 
L 1269 4134 
L 1269 2991 
Q 1406 3038 1543 3061 
Q 1681 3084 1819 3084 
Q 2600 3084 3056 2656 
Q 3513 2228 3513 1497 
Q 3513 744 3044 326 
Q 2575 -91 1722 -91 
Q 1428 -91 1123 -41 
Q 819 9 494 109 
L 494 744 
Q 775 591 1075 516 
Q 1375 441 1709 441 
Q 2250 441 2565 725 
Q 2881 1009 2881 1497 
Q 2881 1984 2565 2268 
Q 2250 2553 1709 2553 
Q 1456 2553 1204 2497 
Q 953 2441 691 2322 
L 691 4666 
z
" transform="scale(0.015625)"/>
       <path id="DejaVuSans-3a" d="M 750 794 
L 1409 794 
L 1409 0 
L 750 0 
L 750 794 
z
M 750 3309 
L 1409 3309 
L 1409 2516 
L 750 2516 
L 750 3309 
z
" transform="scale(0.015625)"/>
       <path id="DejaVuSans-2e" d="M 684 794 
L 1344 794 
L 1344 0 
L 684 0 
L 684 794 
z
" transform="scale(0.015625)"/>
       <path id="DejaVuSans-37" d="M 525 4666 
L 3525 4666 
L 3525 4397 
L 1831 0 
L 1172 0 
L 2766 4134 
L 525 4134 
L 525 4666 
z
" transform="scale(0.015625)"/>
       <path id="DejaVuSans-39" d="M 703 97 
L 703 672 
Q 941 559 1184 500 
Q 1428 441 1663 441 
Q 2288 441 2617 861 
Q 2947 1281 2994 2138 
Q 2813 1869 2534 1725 
Q 2256 1581 1919 1581 
Q 1219 1581 811 2004 
Q 403 2428 403 3163 
Q 403 3881 828 4315 
Q 1253 4750 1959 4750 
Q 2769 4750 3195 4129 
Q 3622 3509 3622 2328 
Q 3622 1225 3098 567 
Q 2575 -91 1691 -91 
Q 1453 -91 1209 -44 
Q 966 3 703 97 
z
M 1959 2075 
Q 2384 2075 2632 2365 
Q 2881 2656 2881 3163 
Q 2881 3666 2632 3958 
Q 2384 4250 1959 4250 
Q 1534 4250 1286 3958 
Q 1038 3666 1038 3163 
Q 1038 2656 1286 2365 
Q 1534 2075 1959 2075 
z
" transform="scale(0.015625)"/>
       <path id="DejaVuSans-4c" d="M 628 4666 
L 1259 4666 
L 1259 531 
L 3531 531 
L 3531 0 
L 628 0 
L 628 4666 
z
" transform="scale(0.015625)"/>
       <path id="DejaVuSans-73" d="M 2834 3397 
L 2834 2853 
Q 2591 2978 2328 3040 
Q 2066 3103 1784 3103 
Q 1356 3103 1142 2972 
Q 928 2841 928 2578 
Q 928 2378 1081 2264 
Q 1234 2150 1697 2047 
L 1894 2003 
Q 2506 1872 2764 1633 
Q 3022 1394 3022 966 
Q 3022 478 2636 193 
Q 2250 -91 1575 -91 
Q 1294 -91 989 -36 
Q 684 19 347 128 
L 347 722 
Q 666 556 975 473 
Q 1284 391 1588 391 
Q 1994 391 2212 530 
Q 2431 669 2431 922 
Q 2431 1156 2273 1281 
Q 2116 1406 1581 1522 
L 1381 1569 
Q 847 1681 609 1914 
Q 372 2147 372 2553 
Q 372 3047 722 3315 
Q 1072 3584 1716 3584 
Q 2034 3584 2315 3537 
Q 2597 3491 2834 3397 
z
" transform="scale(0.015625)"/>
       <path id="DejaVuSans-72" d="M 2631 2963 
Q 2534 3019 2420 3045 
Q 2306 3072 2169 3072 
Q 1681 3072 1420 2755 
Q 1159 2438 1159 1844 
L 1159 0 
L 581 0 
L 581 3500 
L 1159 3500 
L 1159 2956 
Q 1341 3275 1631 3429 
Q 1922 3584 2338 3584 
Q 2397 3584 2469 3576 
Q 2541 3569 2628 3553 
L 2631 2963 
z
" transform="scale(0.015625)"/>
       <path id="DejaVuSans-63" d="M 3122 3366 
L 3122 2828 
Q 2878 2963 2633 3030 
Q 2388 3097 2138 3097 
Q 1578 3097 1268 2742 
Q 959 2388 959 1747 
Q 959 1106 1268 751 
Q 1578 397 2138 397 
Q 2388 397 2633 464 
Q 2878 531 3122 666 
L 3122 134 
Q 2881 22 2623 -34 
Q 2366 -91 2075 -91 
Q 1284 -91 818 406 
Q 353 903 353 1747 
Q 353 2603 823 3093 
Q 1294 3584 2113 3584 
Q 2378 3584 2631 3529 
Q 2884 3475 3122 3366 
z
" transform="scale(0.015625)"/>
       <path id="DejaVuSans-6f" d="M 1959 3097 
Q 1497 3097 1228 2736 
Q 959 2375 959 1747 
Q 959 1119 1226 758 
Q 1494 397 1959 397 
Q 2419 397 2687 759 
Q 2956 1122 2956 1747 
Q 2956 2369 2687 2733 
Q 2419 3097 1959 3097 
z
M 1959 3584 
Q 2709 3584 3137 3096 
Q 3566 2609 3566 1747 
Q 3566 888 3137 398 
Q 2709 -91 1959 -91 
Q 1206 -91 779 398 
Q 353 888 353 1747 
Q 353 2609 779 3096 
Q 1206 3584 1959 3584 
z
" transform="scale(0.015625)"/>
      </defs>
      <use xlink:href="#DejaVuSans-55"/>
      <use xlink:href="#DejaVuSans-70" x="73.193359"/>
      <use xlink:href="#DejaVuSans-64" x="136.669922"/>
      <use xlink:href="#DejaVuSans-61" x="200.146484"/>
      <use xlink:href="#DejaVuSans-74" x="261.425781"/>
      <use xlink:href="#DejaVuSans-65" x="300.634766"/>
      <use xlink:href="#DejaVuSans-64" x="362.158203"/>
      <use xlink:href="#DejaVuSans-20" x="425.634766"/>
      <use xlink:href="#DejaVuSans-32" x="457.421875"/>
      <use xlink:href="#DejaVuSans-30" x="521.044922"/>
      <use xlink:href="#DejaVuSans-32" x="584.667969"/>
      <use xlink:href="#DejaVuSans-33" x="648.291016"/>
      <use xlink:href="#DejaVuSans-2d" x="711.914062"/>
      <use xlink:href="#DejaVuSans-30" x="747.998047"/>
      <use xlink:href="#DejaVuSans-34" x="811.621094"/>
      <use xlink:href="#DejaVuSans-2d" x="875.244141"/>
      <use xlink:href="#DejaVuSans-31" x="911.328125"/>
      <use xlink:href="#DejaVuSans-33" x="974.951172"/>
      <use xlink:href="#DejaVuSans-20" x="1038.574219"/>
      <use xlink:href="#DejaVuSans-30" x="1070.361328"/>
      <use xlink:href="#DejaVuSans-35" x="1133.984375"/>
      <use xlink:href="#DejaVuSans-3a" x="1197.607422"/>
      <use xlink:href="#DejaVuSans-33" x="1231.298828"/>
      <use xlink:href="#DejaVuSans-31" x="1294.921875"/>
      <use xlink:href="#DejaVuSans-3a" x="1358.544922"/>
      <use xlink:href="#DejaVuSans-34" x="1392.236328"/>
      <use xlink:href="#DejaVuSans-34" x="1455.859375"/>
      <use xlink:href="#DejaVuSans-2e" x="1519.482422"/>
      <use xlink:href="#DejaVuSans-37" x="1551.269531"/>
      <use xlink:href="#DejaVuSans-37" x="1614.892578"/>
      <use xlink:href="#DejaVuSans-33" x="1678.515625"/>
      <use xlink:href="#DejaVuSans-34" x="1742.138672"/>
      <use xlink:href="#DejaVuSans-39" x="1805.761719"/>
      <use xlink:href="#DejaVuSans-35" x="1869.384766"/>
      <use xlink:href="#DejaVuSans-20" x="1933.007812"/>
      <use xlink:href="#DejaVuSans-2d" x="1964.794922"/>
      <use xlink:href="#DejaVuSans-20" x="2000.878906"/>
      <use xlink:href="#DejaVuSans-4c" x="2032.666016"/>
      <use xlink:href="#DejaVuSans-61" x="2088.378906"/>
      <use xlink:href="#DejaVuSans-73" x="2149.658203"/>
      <use xlink:href="#DejaVuSans-74" x="2201.757812"/>
      <use xlink:href="#DejaVuSans-20" x="2240.966797"/>
      <use xlink:href="#DejaVuSans-72" x="2272.753906"/>
      <use xlink:href="#DejaVuSans-65" x="2311.617188"/>
      <use xlink:href="#DejaVuSans-63" x="2373.140625"/>
      <use xlink:href="#DejaVuSans-6f" x="2428.121094"/>
      <use xlink:href="#DejaVuSans-72" x="2489.302734"/>
      <use xlink:href="#DejaVuSans-64" x="2528.666016"/>
      <use xlink:href="#DejaVuSans-20" x="2592.142578"/>
      <use xlink:href="#DejaVuSans-32" x="2623.929688"/>
      <use xlink:href="#DejaVuSans-30" x="2687.552734"/>
      <use xlink:href="#DejaVuSans-32" x="2751.175781"/>
      <use xlink:href="#DejaVuSans-33" x="2814.798828"/>
      <use xlink:href="#DejaVuSans-2d" x="2878.421875"/>
      <use xlink:href="#DejaVuSans-30" x="2914.505859"/>
      <use xlink:href="#DejaVuSans-34" x="2978.128906"/>
      <use xlink:href="#DejaVuSans-2d" x="3041.751953"/>
      <use xlink:href="#DejaVuSans-31" x="3077.835938"/>
      <use xlink:href="#DejaVuSans-31" x="3141.458984"/>
     </g>
    </g>
   </g>
   <g id="matplotlib.axis_2">
    <g id="ytick_1">
     <g id="line2d_10">
      <defs>
       <path id="m17cc961288" d="M 0 0 
L -3.5 0 
" style="stroke: #000000; stroke-width: 0.8"/>
      </defs>
      <g>
       <use xlink:href="#m17cc961288" x="57.6" y="295.565786" style="stroke: #000000; stroke-width: 0.8"/>
      </g>
     </g>
     <g id="text_11">
      <!-- 0 -->
      <g transform="translate(44.2375 299.365004) scale(0.1 -0.1)">
       <use xlink:href="#DejaVuSans-30"/>
      </g>
     </g>
    </g>
    <g id="ytick_2">
     <g id="line2d_11">
      <g>
       <use xlink:href="#m17cc961288" x="57.6" y="239.604817" style="stroke: #000000; stroke-width: 0.8"/>
      </g>
     </g>
     <g id="text_12">
      <!-- 10 -->
      <g transform="translate(37.875 243.404036) scale(0.1 -0.1)">
       <use xlink:href="#DejaVuSans-31"/>
       <use xlink:href="#DejaVuSans-30" x="63.623047"/>
      </g>
     </g>
    </g>
    <g id="ytick_3">
     <g id="line2d_12">
      <g>
       <use xlink:href="#m17cc961288" x="57.6" y="183.643849" style="stroke: #000000; stroke-width: 0.8"/>
      </g>
     </g>
     <g id="text_13">
      <!-- 20 -->
      <g transform="translate(37.875 187.443067) scale(0.1 -0.1)">
       <use xlink:href="#DejaVuSans-32"/>
       <use xlink:href="#DejaVuSans-30" x="63.623047"/>
      </g>
     </g>
    </g>
    <g id="ytick_4">
     <g id="line2d_13">
      <g>
       <use xlink:href="#m17cc961288" x="57.6" y="127.68288" style="stroke: #000000; stroke-width: 0.8"/>
      </g>
     </g>
     <g id="text_14">
      <!-- 30 -->
      <g transform="translate(37.875 131.482099) scale(0.1 -0.1)">
       <use xlink:href="#DejaVuSans-33"/>
       <use xlink:href="#DejaVuSans-30" x="63.623047"/>
      </g>
     </g>
    </g>
    <g id="ytick_5">
     <g id="line2d_14">
      <g>
       <use xlink:href="#m17cc961288" x="57.6" y="71.721912" style="stroke: #000000; stroke-width: 0.8"/>
      </g>
     </g>
     <g id="text_15">
      <!-- 40 -->
      <g transform="translate(37.875 75.52113) scale(0.1 -0.1)">
       <use xlink:href="#DejaVuSans-34"/>
       <use xlink:href="#DejaVuSans-30" x="63.623047"/>
      </g>
     </g>
    </g>
    <g id="text_16">
     <!-- IPv6 as % of total Google traffic -->
     <g transform="translate(31.795312 253.735813) rotate(-90) scale(0.1 -0.1)">
      <defs>
       <path id="DejaVuSans-49" d="M 628 4666 
L 1259 4666 
L 1259 0 
L 628 0 
L 628 4666 
z
" transform="scale(0.015625)"/>
       <path id="DejaVuSans-50" d="M 1259 4147 
L 1259 2394 
L 2053 2394 
Q 2494 2394 2734 2622 
Q 2975 2850 2975 3272 
Q 2975 3691 2734 3919 
Q 2494 4147 2053 4147 
L 1259 4147 
z
M 628 4666 
L 2053 4666 
Q 2838 4666 3239 4311 
Q 3641 3956 3641 3272 
Q 3641 2581 3239 2228 
Q 2838 1875 2053 1875 
L 1259 1875 
L 1259 0 
L 628 0 
L 628 4666 
z
" transform="scale(0.015625)"/>
       <path id="DejaVuSans-76" d="M 191 3500 
L 800 3500 
L 1894 563 
L 2988 3500 
L 3597 3500 
L 2284 0 
L 1503 0 
L 191 3500 
z
" transform="scale(0.015625)"/>
       <path id="DejaVuSans-25" d="M 4653 2053 
Q 4381 2053 4226 1822 
Q 4072 1591 4072 1178 
Q 4072 772 4226 539 
Q 4381 306 4653 306 
Q 4919 306 5073 539 
Q 5228 772 5228 1178 
Q 5228 1588 5073 1820 
Q 4919 2053 4653 2053 
z
M 4653 2450 
Q 5147 2450 5437 2106 
Q 5728 1763 5728 1178 
Q 5728 594 5436 251 
Q 5144 -91 4653 -91 
Q 4153 -91 3862 251 
Q 3572 594 3572 1178 
Q 3572 1766 3864 2108 
Q 4156 2450 4653 2450 
z
M 1428 4353 
Q 1159 4353 1004 4120 
Q 850 3888 850 3481 
Q 850 3069 1003 2837 
Q 1156 2606 1428 2606 
Q 1700 2606 1854 2837 
Q 2009 3069 2009 3481 
Q 2009 3884 1853 4118 
Q 1697 4353 1428 4353 
z
M 4250 4750 
L 4750 4750 
L 1831 -91 
L 1331 -91 
L 4250 4750 
z
M 1428 4750 
Q 1922 4750 2215 4408 
Q 2509 4066 2509 3481 
Q 2509 2891 2217 2550 
Q 1925 2209 1428 2209 
Q 931 2209 642 2551 
Q 353 2894 353 3481 
Q 353 4063 643 4406 
Q 934 4750 1428 4750 
z
" transform="scale(0.015625)"/>
       <path id="DejaVuSans-66" d="M 2375 4863 
L 2375 4384 
L 1825 4384 
Q 1516 4384 1395 4259 
Q 1275 4134 1275 3809 
L 1275 3500 
L 2222 3500 
L 2222 3053 
L 1275 3053 
L 1275 0 
L 697 0 
L 697 3053 
L 147 3053 
L 147 3500 
L 697 3500 
L 697 3744 
Q 697 4328 969 4595 
Q 1241 4863 1831 4863 
L 2375 4863 
z
" transform="scale(0.015625)"/>
       <path id="DejaVuSans-6c" d="M 603 4863 
L 1178 4863 
L 1178 0 
L 603 0 
L 603 4863 
z
" transform="scale(0.015625)"/>
       <path id="DejaVuSans-47" d="M 3809 666 
L 3809 1919 
L 2778 1919 
L 2778 2438 
L 4434 2438 
L 4434 434 
Q 4069 175 3628 42 
Q 3188 -91 2688 -91 
Q 1594 -91 976 548 
Q 359 1188 359 2328 
Q 359 3472 976 4111 
Q 1594 4750 2688 4750 
Q 3144 4750 3555 4637 
Q 3966 4525 4313 4306 
L 4313 3634 
Q 3963 3931 3569 4081 
Q 3175 4231 2741 4231 
Q 1884 4231 1454 3753 
Q 1025 3275 1025 2328 
Q 1025 1384 1454 906 
Q 1884 428 2741 428 
Q 3075 428 3337 486 
Q 3600 544 3809 666 
z
" transform="scale(0.015625)"/>
       <path id="DejaVuSans-67" d="M 2906 1791 
Q 2906 2416 2648 2759 
Q 2391 3103 1925 3103 
Q 1463 3103 1205 2759 
Q 947 2416 947 1791 
Q 947 1169 1205 825 
Q 1463 481 1925 481 
Q 2391 481 2648 825 
Q 2906 1169 2906 1791 
z
M 3481 434 
Q 3481 -459 3084 -895 
Q 2688 -1331 1869 -1331 
Q 1566 -1331 1297 -1286 
Q 1028 -1241 775 -1147 
L 775 -588 
Q 1028 -725 1275 -790 
Q 1522 -856 1778 -856 
Q 2344 -856 2625 -561 
Q 2906 -266 2906 331 
L 2906 616 
Q 2728 306 2450 153 
Q 2172 0 1784 0 
Q 1141 0 747 490 
Q 353 981 353 1791 
Q 353 2603 747 3093 
Q 1141 3584 1784 3584 
Q 2172 3584 2450 3431 
Q 2728 3278 2906 2969 
L 2906 3500 
L 3481 3500 
L 3481 434 
z
" transform="scale(0.015625)"/>
       <path id="DejaVuSans-69" d="M 603 3500 
L 1178 3500 
L 1178 0 
L 603 0 
L 603 3500 
z
M 603 4863 
L 1178 4863 
L 1178 4134 
L 603 4134 
L 603 4863 
z
" transform="scale(0.015625)"/>
      </defs>
      <use xlink:href="#DejaVuSans-49"/>
      <use xlink:href="#DejaVuSans-50" x="29.492188"/>
      <use xlink:href="#DejaVuSans-76" x="89.794922"/>
      <use xlink:href="#DejaVuSans-36" x="148.974609"/>
      <use xlink:href="#DejaVuSans-20" x="212.597656"/>
      <use xlink:href="#DejaVuSans-61" x="244.384766"/>
      <use xlink:href="#DejaVuSans-73" x="305.664062"/>
      <use xlink:href="#DejaVuSans-20" x="357.763672"/>
      <use xlink:href="#DejaVuSans-25" x="389.550781"/>
      <use xlink:href="#DejaVuSans-20" x="484.570312"/>
      <use xlink:href="#DejaVuSans-6f" x="516.357422"/>
      <use xlink:href="#DejaVuSans-66" x="577.539062"/>
      <use xlink:href="#DejaVuSans-20" x="612.744141"/>
      <use xlink:href="#DejaVuSans-74" x="644.53125"/>
      <use xlink:href="#DejaVuSans-6f" x="683.740234"/>
      <use xlink:href="#DejaVuSans-74" x="744.921875"/>
      <use xlink:href="#DejaVuSans-61" x="784.130859"/>
      <use xlink:href="#DejaVuSans-6c" x="845.410156"/>
      <use xlink:href="#DejaVuSans-20" x="873.193359"/>
      <use xlink:href="#DejaVuSans-47" x="904.980469"/>
      <use xlink:href="#DejaVuSans-6f" x="982.470703"/>
      <use xlink:href="#DejaVuSans-6f" x="1043.652344"/>
      <use xlink:href="#DejaVuSans-67" x="1104.833984"/>
      <use xlink:href="#DejaVuSans-6c" x="1168.310547"/>
      <use xlink:href="#DejaVuSans-65" x="1196.09375"/>
      <use xlink:href="#DejaVuSans-20" x="1257.617188"/>
      <use xlink:href="#DejaVuSans-74" x="1289.404297"/>
      <use xlink:href="#DejaVuSans-72" x="1328.613281"/>
      <use xlink:href="#DejaVuSans-61" x="1369.726562"/>
      <use xlink:href="#DejaVuSans-66" x="1431.005859"/>
      <use xlink:href="#DejaVuSans-66" x="1466.210938"/>
      <use xlink:href="#DejaVuSans-69" x="1501.416016"/>
      <use xlink:href="#DejaVuSans-63" x="1529.199219"/>
     </g>
    </g>
   </g>
   <g id="line2d_15">
    <path d="M 73.832727 294.546216 
L 75.536951 294.373414 
L 75.963006 294.537962 
L 77.66723 294.53724 
L 79.371453 294.387248 
L 79.797509 294.254609 
L 81.075676 294.276613 
L 82.353844 294.244648 
L 82.7799 294.319328 
L 84.484123 294.166728 
L 86.188346 294.226282 
L 87.89257 294.147276 
L 91.301016 294.215778 
L 91.727072 294.323435 
L 93.857351 294.297279 
L 95.135519 294.245896 
L 96.839742 294.145452 
L 97.691854 294.154624 
L 98.11791 293.882183 
L 100.674245 293.788728 
L 101.526356 293.752869 
L 103.23058 293.892139 
L 104.508747 293.842585 
L 105.786915 293.89243 
L 107.917194 293.858148 
L 109.195361 294.056619 
L 110.047473 294.030239 
L 110.899585 293.987513 
L 111.751696 294.180466 
L 113.881976 294.1981 
L 115.160143 294.319289 
L 117.290422 294.228492 
L 118.142534 294.118523 
L 118.56859 294.027878 
L 119.420702 294.023412 
L 122.403092 293.957546 
L 123.255204 294.052461 
L 123.68126 293.918765 
L 126.237595 294.16675 
L 129.646042 293.988101 
L 130.072097 293.994077 
L 130.498153 293.866822 
L 131.350265 293.973265 
L 132.202377 293.775689 
L 132.628432 293.824806 
L 133.054488 293.703511 
L 133.480544 293.756618 
L 134.332656 293.64375 
L 135.184767 293.599592 
L 139.01927 293.773804 
L 139.445326 293.590061 
L 141.149549 293.489438 
L 141.575605 293.58967 
L 145.410107 293.258571 
L 146.262219 293.053983 
L 147.114331 293.208531 
L 149.670666 292.805377 
L 151.800945 292.660762 
L 152.227001 292.446751 
L 152.653057 292.52922 
L 153.079112 292.339776 
L 155.635447 291.947629 
L 157.339671 291.369144 
L 157.765727 291.444389 
L 159.043894 291.315019 
L 159.46995 291.420695 
L 161.174173 291.211536 
L 162.452341 290.734871 
L 162.878397 290.630482 
L 163.304452 290.689901 
L 163.730508 290.337336 
L 164.156564 290.167265 
L 165.860787 289.962201 
L 166.286843 290.127572 
L 166.712899 289.966779 
L 167.565011 289.878305 
L 167.991067 289.621136 
L 168.843178 289.449537 
L 170.547402 289.431663 
L 171.399513 289.212447 
L 172.677681 289.050922 
L 173.103737 288.839731 
L 173.529792 288.819361 
L 173.955848 288.928563 
L 175.660072 288.139038 
L 176.086127 288.157124 
L 177.790351 287.660661 
L 178.216407 287.327951 
L 178.642462 287.251614 
L 179.068518 287.045717 
L 179.494574 287.079249 
L 180.772742 286.573647 
L 181.198797 286.66305 
L 181.624853 286.414186 
L 182.050909 286.370447 
L 184.181188 285.201283 
L 185.0333 284.845343 
L 185.885412 284.22196 
L 187.163579 282.681288 
L 187.589635 282.926682 
L 188.015691 282.969134 
L 189.293858 281.50543 
L 189.719914 281.32992 
L 190.14597 280.590077 
L 190.998082 280.359288 
L 191.850193 279.866837 
L 192.276249 279.918159 
L 193.554417 279.110245 
L 193.980472 278.938646 
L 194.406528 278.621303 
L 195.25864 278.546108 
L 195.684696 277.827211 
L 196.110752 277.817737 
L 196.536807 277.027361 
L 196.962863 276.618029 
L 197.814975 276.735513 
L 198.241031 276.442882 
L 198.667087 275.992111 
L 199.519198 275.467376 
L 199.945254 274.998278 
L 200.37131 275.285883 
L 202.075533 274.365499 
L 202.501589 274.025183 
L 202.927645 272.626702 
L 203.353701 272.891985 
L 204.205812 271.94235 
L 204.631868 271.901577 
L 205.057924 272.312112 
L 206.336092 271.377978 
L 206.762147 270.744253 
L 207.614259 270.793113 
L 208.040315 270.107406 
L 208.466371 270.060209 
L 208.892427 266.427486 
L 209.318482 268.817629 
L 209.744538 270.241478 
L 210.170594 269.549615 
L 210.59665 269.162987 
L 211.022706 269.10068 
L 211.448762 268.190738 
L 211.874817 267.905616 
L 213.152985 265.930614 
L 213.579041 264.641055 
L 214.005097 263.905012 
L 214.431152 262.905722 
L 214.857208 262.245954 
L 215.283264 263.299631 
L 215.70932 263.13838 
L 216.135376 263.167552 
L 216.561432 263.337769 
L 216.987487 263.655605 
L 217.413543 263.534343 
L 217.839599 261.210603 
L 218.265655 261.554315 
L 219.543822 260.329856 
L 219.969878 260.165051 
L 220.82199 260.237509 
L 221.248046 258.480961 
L 221.674102 258.416987 
L 222.526213 257.030761 
L 222.952269 257.503379 
L 223.378325 255.339754 
L 223.804381 255.851159 
L 224.230437 254.390584 
L 224.656492 253.691184 
L 225.082548 252.641009 
L 225.508604 253.370292 
L 225.93466 252.265572 
L 226.360716 250.427736 
L 226.786772 251.353834 
L 227.212827 251.617841 
L 227.638883 251.047364 
L 228.064939 249.366912 
L 228.490995 249.83371 
L 228.917051 248.350039 
L 229.343107 248.691815 
L 230.195218 246.690741 
L 230.621274 245.677047 
L 231.899442 245.358786 
L 232.325497 244.188284 
L 232.751553 244.330721 
L 233.177609 243.891629 
L 233.603665 242.73153 
L 234.029721 242.437091 
L 234.455777 241.139939 
L 234.881832 240.250696 
L 235.307888 240.093978 
L 235.733944 240.312858 
L 236.16 239.747042 
L 236.586056 237.336691 
L 237.438168 238.750523 
L 237.864223 238.478933 
L 238.716335 238.397549 
L 239.142391 238.445435 
L 239.994503 238.154617 
L 240.420558 236.79847 
L 240.846614 236.734271 
L 241.27267 235.531575 
L 241.698726 235.528195 
L 242.124782 235.345494 
L 243.402949 231.905679 
L 243.829005 229.879668 
L 244.255061 231.26323 
L 244.681117 230.683324 
L 245.107173 229.484668 
L 245.533228 229.751479 
L 245.959284 227.192372 
L 246.38534 227.567826 
L 246.811396 227.254036 
L 247.237452 225.468383 
L 247.663508 225.451482 
L 248.089563 224.120473 
L 248.515619 224.440956 
L 248.941675 223.388196 
L 249.367731 222.828939 
L 249.793787 223.126052 
L 250.219843 222.405191 
L 250.645898 221.280605 
L 251.071954 221.640104 
L 251.49801 221.106746 
L 251.924066 219.336997 
L 252.350122 218.596913 
L 252.776178 218.666142 
L 253.202233 216.596588 
L 253.628289 216.964621 
L 254.480401 214.49968 
L 254.906457 212.039972 
L 255.332513 212.283083 
L 256.184624 210.899974 
L 256.61068 209.350236 
L 257.036736 209.557415 
L 257.462792 208.907937 
L 257.888848 206.457563 
L 258.314903 205.59784 
L 258.740959 201.535231 
L 259.167015 204.176594 
L 259.593071 203.697702 
L 260.019127 204.327616 
L 260.445183 203.587918 
L 261.297294 204.789249 
L 261.72335 204.549759 
L 262.149406 203.496679 
L 262.575462 203.813385 
L 263.427573 202.472152 
L 263.853629 201.360789 
L 264.279685 201.18454 
L 264.705741 200.433275 
L 265.131797 197.731732 
L 265.557853 198.579467 
L 265.983908 194.956711 
L 266.409964 195.237143 
L 266.83602 193.267949 
L 267.262076 192.054206 
L 267.688132 191.323417 
L 268.114188 190.819349 
L 268.540243 189.821895 
L 268.966299 187.995032 
L 269.392355 184.983051 
L 269.818411 185.743644 
L 271.522634 182.31322 
L 271.94869 181.749049 
L 272.374746 181.770404 
L 272.800802 182.081228 
L 273.226858 181.013913 
L 273.652913 179.518065 
L 274.078969 180.85814 
L 274.505025 180.884005 
L 274.931081 182.077859 
L 275.357137 180.771327 
L 275.783193 178.740017 
L 276.209248 179.000303 
L 276.635304 178.12335 
L 277.913472 176.728729 
L 278.765583 175.704336 
L 279.191639 175.593371 
L 279.617695 190.446716 
L 280.043751 173.707733 
L 280.469807 172.904306 
L 280.895863 168.845166 
L 281.321918 172.611099 
L 282.17403 172.060824 
L 282.600086 172.05816 
L 283.026142 171.554192 
L 283.452198 171.305832 
L 283.878253 172.68551 
L 284.304309 173.560175 
L 284.730365 173.347545 
L 285.156421 172.162566 
L 285.582477 172.247655 
L 286.860644 171.251219 
L 287.2867 168.5891 
L 287.712756 169.639846 
L 288.138812 166.820443 
L 288.564868 168.009277 
L 288.990923 165.642766 
L 289.416979 164.165134 
L 289.843035 165.036385 
L 290.269091 163.224307 
L 290.695147 162.021112 
L 291.121203 161.76527 
L 291.547258 162.748924 
L 291.973314 163.2678 
L 293.251482 160.610331 
L 293.677538 161.221475 
L 294.103593 162.102206 
L 294.529649 162.272987 
L 294.955705 160.257402 
L 295.381761 159.506652 
L 295.807817 158.045539 
L 296.233873 157.685542 
L 296.659928 157.480915 
L 297.085984 157.633817 
L 297.51204 157.441088 
L 298.364152 155.434014 
L 298.790208 156.604975 
L 299.216263 152.895624 
L 299.642319 152.991032 
L 300.068375 152.5387 
L 300.494431 149.833295 
L 300.920487 149.021559 
L 301.346543 148.533657 
L 301.772598 148.537211 
L 302.198654 147.070491 
L 302.62471 146.970505 
L 303.476822 144.65146 
L 303.902878 146.182161 
L 304.328933 147.168092 
L 305.181045 144.82016 
L 305.607101 145.971736 
L 306.033157 145.761177 
L 306.459213 146.262442 
L 306.885268 144.490197 
L 307.311324 143.87184 
L 307.73738 145.211719 
L 308.163436 143.288363 
L 308.589492 143.442256 
L 309.015548 142.89362 
L 309.867659 142.680935 
L 310.293715 138.8817 
L 310.719771 138.771031 
L 311.145827 139.070876 
L 311.571883 139.989822 
L 312.423994 135.556208 
L 312.85005 133.600355 
L 313.276106 133.103926 
L 313.702162 133.274439 
L 314.128218 132.917475 
L 314.554273 130.974644 
L 314.980329 132.576807 
L 315.406385 130.870965 
L 315.832441 132.453939 
L 316.258497 131.319168 
L 316.684553 130.632269 
L 317.110608 130.574988 
L 317.536664 130.652376 
L 317.96272 129.173126 
L 318.388776 129.3412 
L 318.814832 130.942176 
L 319.240888 130.399701 
L 319.666943 131.056403 
L 320.092999 131.324809 
L 320.519055 129.273061 
L 320.945111 130.501864 
L 321.371167 130.832061 
L 321.797223 130.06952 
L 322.223278 129.603606 
L 322.649334 127.765719 
L 323.07539 128.153618 
L 323.501446 127.753609 
L 323.927502 127.886265 
L 324.353558 126.8175 
L 324.779613 126.349979 
L 325.205669 124.997196 
L 325.631725 124.405901 
L 326.057781 125.241835 
L 326.483837 125.49038 
L 326.909893 125.546296 
L 327.762004 123.622526 
L 328.18806 124.083711 
L 328.614116 122.680887 
L 329.040172 123.288036 
L 329.466228 123.025657 
L 329.892283 122.055356 
L 330.318339 122.292479 
L 330.744395 122.95903 
L 331.170451 122.655162 
L 331.596507 122.671044 
L 332.022563 120.150579 
L 332.874674 118.356095 
L 333.30073 118.65238 
L 333.726786 118.025036 
L 334.152842 115.937081 
L 334.578898 116.612502 
L 335.004953 113.616302 
L 335.431009 116.01414 
L 335.857065 114.029131 
L 336.283121 111.315651 
L 336.709177 112.109424 
L 337.135233 110.415127 
L 337.561288 109.27185 
L 337.987344 109.38122 
L 338.4134 108.523495 
L 338.839456 110.67374 
L 339.265512 108.88239 
L 339.691568 109.554078 
L 340.117623 109.948167 
L 341.395791 107.199744 
L 341.821847 109.488016 
L 342.247903 109.533865 
L 342.673958 108.522298 
L 343.100014 109.0955 
L 343.52607 110.485241 
L 343.952126 109.404394 
L 344.378182 106.88953 
L 344.804238 111.064498 
L 345.230293 109.939868 
L 345.656349 108.312041 
L 346.082405 109.677584 
L 346.508461 109.776249 
L 346.934517 107.546283 
L 347.360573 106.435743 
L 347.786628 104.399866 
L 348.212684 105.392675 
L 348.63874 104.640509 
L 349.064796 104.872501 
L 349.490852 105.509824 
L 349.916908 103.882395 
L 350.342963 103.215144 
L 350.769019 104.421629 
L 351.195075 104.120923 
L 351.621131 101.510198 
L 352.047187 100.935921 
L 352.473243 99.159127 
L 352.899298 102.076865 
L 353.325354 103.044536 
L 353.75141 102.09325 
L 354.177466 101.911326 
L 354.603522 102.060518 
L 355.029578 96.91437 
L 355.455634 100.354599 
L 355.881689 98.372209 
L 356.733801 99.375035 
L 357.159857 94.501087 
L 357.585913 93.878185 
L 358.011969 91.917587 
L 358.438024 91.839555 
L 358.86408 93.61297 
L 359.290136 91.167375 
L 359.716192 90.686647 
L 360.142248 89.423698 
L 360.568304 88.966961 
L 360.994359 87.532027 
L 361.420415 87.746564 
L 361.846471 91.225529 
L 362.272527 89.349471 
L 362.698583 88.161593 
L 363.124639 90.420777 
L 363.550694 89.171448 
L 363.97675 88.731668 
L 364.402806 86.927934 
L 365.254918 89.798687 
L 365.680974 89.483408 
L 366.107029 89.933497 
L 366.533085 89.790891 
L 366.959141 88.173563 
L 367.385197 90.043566 
L 367.811253 87.796879 
L 368.237309 87.002356 
L 368.663364 86.919114 
L 369.515476 84.122096 
L 369.941532 81.001046 
L 370.367588 83.129589 
L 370.793644 87.105196 
L 371.219699 82.627026 
L 371.645755 82.416657 
L 372.071811 85.421756 
L 372.923923 81.42204 
L 373.349979 81.368575 
L 373.776034 82.212942 
L 374.20209 82.178487 
L 374.628146 82.825088 
L 375.054202 75.223591 
L 375.480258 74.412101 
L 375.906314 74.638704 
L 376.332369 73.085154 
L 376.758425 72.575602 
L 377.184481 69.873633 
L 377.610537 73.306866 
L 378.036593 74.645531 
L 378.462649 71.70847 
L 378.888704 73.64383 
L 379.31476 70.352625 
L 379.740816 68.676868 
L 380.166872 64.6115 
L 380.592928 65.705419 
L 381.018984 59.681976 
L 381.445039 62.122048 
L 382.297151 65.83235 
L 382.723207 64.076239 
L 383.149263 64.418804 
L 383.575319 65.155541 
L 384.001374 65.005543 
L 384.42743 67.146565 
L 384.853486 66.148524 
L 385.279542 64.5839 
L 385.705598 64.944787 
L 386.131654 63.341315 
L 386.557709 63.74871 
L 386.983765 61.787659 
L 387.409821 63.17201 
L 387.835877 66.907287 
L 388.261933 64.393649 
L 388.687989 60.582858 
L 389.114044 63.740999 
L 389.5401 61.906408 
L 389.966156 63.811879 
L 390.392212 62.091247 
L 390.818268 62.066781 
L 392.096435 55.44253 
L 392.522491 58.410476 
L 392.948547 58.183532 
L 393.374603 56.697914 
L 393.800659 57.135775 
L 394.226714 59.667494 
L 395.078826 57.480215 
L 395.504882 59.083295 
L 395.930938 58.1814 
L 396.356994 56.4338 
L 396.783049 56.467785 
L 397.635161 53.568 
L 398.061217 54.833143 
L 398.487273 76.47518 
L 398.487273 76.47518 
" clip-path="url(#p8732d75a0d)" style="fill: none; stroke: #1f77b4; stroke-width: 1.5; stroke-linecap: square"/>
   </g>
   <g id="line2d_16">
    <path d="M 73.832727 294.813642 
L 75.536951 294.671468 
L 75.963006 294.790458 
L 85.336235 294.529596 
L 86.188346 294.520558 
L 88.318626 294.452705 
L 90.448905 294.522175 
L 92.153128 294.519041 
L 98.11791 294.434568 
L 98.543966 294.234234 
L 101.100301 294.153963 
L 103.23058 294.167002 
L 105.786915 294.200193 
L 107.917194 294.201183 
L 109.621417 294.31029 
L 110.899585 294.319182 
L 113.45592 294.349983 
L 116.438311 294.450847 
L 117.290422 294.436197 
L 118.56859 294.260311 
L 120.272813 294.233876 
L 122.403092 294.173063 
L 127.515762 294.357594 
L 133.480544 293.895743 
L 134.332656 293.837308 
L 135.184767 293.77269 
L 136.036879 293.873224 
L 136.888991 293.886436 
L 137.741102 293.93928 
L 139.01927 293.974994 
L 139.871382 293.663521 
L 140.723493 293.703332 
L 141.149549 293.785572 
L 142.853772 293.680824 
L 143.279828 293.737076 
L 143.705884 293.600011 
L 145.836163 293.551168 
L 146.688275 293.376537 
L 147.114331 293.374472 
L 147.540387 293.485935 
L 153.505168 292.788756 
L 154.35728 292.672497 
L 154.783336 292.663762 
L 155.209392 292.517457 
L 156.061503 292.525091 
L 157.339671 292.101427 
L 159.043894 291.80419 
L 159.46995 291.932688 
L 161.174173 291.800189 
L 167.138955 290.709532 
L 167.565011 290.757429 
L 168.417122 290.483752 
L 169.269234 290.374925 
L 169.69529 290.124757 
L 170.973457 290.409492 
L 171.825569 290.213002 
L 172.251625 290.155244 
L 172.677681 289.912155 
L 173.103737 289.93036 
L 173.529792 289.750288 
L 174.80796 289.658277 
L 175.234016 289.401506 
L 176.512183 289.141864 
L 176.938239 289.144668 
L 177.364295 288.980187 
L 177.790351 288.963472 
L 179.494574 288.453443 
L 179.92063 288.387521 
L 180.772742 287.948675 
L 181.198797 288.095993 
L 182.476965 287.577676 
L 183.329077 287.145652 
L 183.755132 286.818286 
L 184.607244 286.590872 
L 185.0333 286.695362 
L 185.885412 286.535594 
L 187.163579 285.313059 
L 187.589635 285.019387 
L 188.015691 285.100122 
L 188.441747 284.942564 
L 189.719914 284.024608 
L 190.14597 283.869283 
L 190.998082 283.127711 
L 191.424137 283.026102 
L 191.850193 281.626558 
L 192.276249 281.757226 
L 192.702305 282.689564 
L 193.128361 282.58832 
L 193.980472 281.872909 
L 194.406528 282.519393 
L 194.832584 281.682317 
L 195.25864 281.630833 
L 195.684696 281.370648 
L 196.110752 280.762095 
L 196.536807 280.793019 
L 197.388919 279.860944 
L 197.814975 279.889054 
L 198.241031 279.6808 
L 198.667087 278.924756 
L 199.093142 279.180045 
L 199.519198 278.607799 
L 199.945254 278.779454 
L 200.37131 278.572874 
L 200.797366 278.657179 
L 201.223422 278.012402 
L 201.649477 278.037255 
L 202.075533 277.37945 
L 202.501589 277.493734 
L 203.353701 276.105348 
L 203.779757 275.830596 
L 204.205812 275.743219 
L 204.631868 275.42456 
L 205.057924 275.392976 
L 205.48398 275.514954 
L 205.910036 275.49182 
L 207.188203 275.036275 
L 207.614259 275.184594 
L 208.466371 274.801312 
L 208.892427 274.140513 
L 209.318482 272.657296 
L 209.744538 273.764444 
L 210.170594 274.128924 
L 210.59665 273.746291 
L 211.022706 273.968243 
L 211.448762 273.414521 
L 212.300873 272.69855 
L 212.726929 271.988764 
L 213.152985 271.543622 
L 213.579041 270.611089 
L 214.005097 267.851161 
L 214.431152 266.083382 
L 214.857208 268.702182 
L 215.283264 269.392779 
L 215.70932 269.411772 
L 216.135376 269.687794 
L 216.561432 269.667917 
L 216.987487 270.037326 
L 217.413543 269.274987 
L 217.839599 269.409036 
L 218.265655 267.985227 
L 218.691711 267.550136 
L 219.117767 267.7975 
L 219.969878 266.377675 
L 220.395934 266.76197 
L 220.82199 266.724918 
L 221.248046 266.267359 
L 221.674102 265.603248 
L 222.100157 265.257711 
L 222.526213 265.306688 
L 223.378325 263.248114 
L 223.804381 262.642627 
L 224.230437 262.317242 
L 224.656492 261.131222 
L 225.082548 260.720441 
L 226.360716 258.328898 
L 226.786772 258.734923 
L 227.638883 258.335586 
L 228.490995 257.568865 
L 228.917051 257.902185 
L 229.769162 257.479506 
L 230.621274 256.421922 
L 231.899442 255.881334 
L 232.325497 255.884876 
L 232.751553 254.776065 
L 233.177609 254.664378 
L 233.603665 254.694765 
L 234.029721 254.12689 
L 235.307888 251.315221 
L 235.733944 250.784867 
L 236.16 248.225565 
L 236.586056 244.61474 
L 237.012112 249.972258 
L 237.438168 251.139694 
L 237.864223 250.813732 
L 238.290279 250.238929 
L 238.716335 250.317151 
L 239.142391 250.613185 
L 239.994503 249.403795 
L 240.846614 248.851964 
L 241.27267 248.405636 
L 241.698726 247.131159 
L 242.124782 246.835512 
L 242.550838 246.76326 
L 243.402949 245.635513 
L 243.829005 244.294984 
L 244.255061 243.459537 
L 244.681117 243.986057 
L 245.533228 242.339423 
L 245.959284 240.824626 
L 246.38534 240.384029 
L 246.811396 240.168546 
L 247.663508 237.739358 
L 248.089563 235.847536 
L 248.515619 236.67601 
L 248.941675 236.519846 
L 249.367731 235.567922 
L 249.793787 234.925439 
L 250.219843 234.760948 
L 250.645898 234.877263 
L 251.071954 236.190113 
L 251.49801 235.516964 
L 251.924066 235.818213 
L 252.350122 235.103558 
L 252.776178 235.181243 
L 253.202233 234.377442 
L 254.054345 232.129277 
L 254.480401 232.355091 
L 255.332513 229.17536 
L 255.758568 229.928813 
L 256.184624 229.343249 
L 256.61068 227.957465 
L 257.036736 227.854575 
L 257.462792 226.924504 
L 257.888848 226.394951 
L 258.314903 222.701219 
L 258.740959 214.178352 
L 259.167015 220.313829 
L 259.593071 223.585302 
L 260.019127 223.930889 
L 260.871238 223.570746 
L 261.297294 223.670715 
L 261.72335 223.624922 
L 262.149406 222.606639 
L 262.575462 222.352498 
L 263.001518 222.669696 
L 263.853629 221.478377 
L 264.705741 219.339375 
L 265.131797 216.996547 
L 265.557853 217.78469 
L 265.983908 217.667972 
L 266.409964 213.41899 
L 266.83602 214.350869 
L 267.688132 211.515897 
L 268.114188 208.788164 
L 268.540243 208.689857 
L 268.966299 208.316301 
L 269.818411 203.564885 
L 270.244467 203.249651 
L 270.670523 202.548091 
L 271.096578 202.205475 
L 271.94869 199.493836 
L 272.374746 199.261391 
L 272.800802 199.181093 
L 273.226858 200.369955 
L 273.652913 200.506881 
L 274.078969 201.515499 
L 274.505025 202.219046 
L 275.357137 202.779741 
L 275.783193 200.374852 
L 276.209248 199.768319 
L 276.635304 200.29283 
L 277.06136 199.222146 
L 277.487416 197.252107 
L 277.913472 198.966807 
L 278.339528 199.646531 
L 278.765583 197.617801 
L 279.191639 197.368265 
L 279.617695 196.22576 
L 280.043751 190.446716 
L 280.469807 192.760786 
L 280.895863 183.203464 
L 281.747974 194.551783 
L 282.17403 193.079254 
L 282.600086 194.626362 
L 283.026142 194.052063 
L 283.452198 193.956661 
L 283.878253 192.458322 
L 284.304309 194.987635 
L 284.730365 195.688076 
L 285.156421 195.032286 
L 285.582477 193.595819 
L 286.008533 193.106104 
L 286.434588 191.98482 
L 286.860644 191.906726 
L 287.2867 193.891494 
L 287.712756 192.757053 
L 288.138812 191.143838 
L 288.564868 188.876597 
L 288.990923 188.661029 
L 289.416979 187.723454 
L 289.843035 187.837983 
L 290.269091 185.424426 
L 290.695147 185.36875 
L 291.121203 183.707644 
L 291.547258 183.443206 
L 291.973314 182.936306 
L 292.39937 181.349192 
L 293.251482 181.362309 
L 294.103593 180.720123 
L 294.529649 181.674694 
L 294.955705 180.056432 
L 295.381761 179.194913 
L 295.807817 182.279727 
L 296.233873 182.433055 
L 296.659928 182.287097 
L 297.085984 182.380256 
L 297.51204 182.302492 
L 297.938096 180.757902 
L 298.364152 181.126237 
L 298.790208 181.750034 
L 299.216263 181.061558 
L 299.642319 177.901347 
L 300.068375 178.767455 
L 300.494431 178.335554 
L 300.920487 174.976105 
L 301.346543 176.619751 
L 302.62471 172.236709 
L 303.050766 158.533284 
L 303.476822 163.789546 
L 303.902878 171.695018 
L 304.328933 173.14594 
L 305.181045 171.744314 
L 305.607101 170.369728 
L 306.033157 171.397401 
L 306.459213 171.105794 
L 306.885268 172.187312 
L 307.311324 169.745741 
L 307.73738 171.902292 
L 308.589492 169.662952 
L 309.015548 169.631502 
L 309.441603 170.300532 
L 309.867659 167.501801 
L 310.293715 167.028567 
L 310.719771 164.68533 
L 311.145827 166.837281 
L 311.571883 168.205924 
L 311.997938 165.577527 
L 312.85005 158.247508 
L 313.276106 159.84948 
L 313.702162 158.529808 
L 314.128218 157.809087 
L 314.554273 156.097325 
L 314.980329 156.809076 
L 315.406385 157.008051 
L 315.832441 156.829199 
L 316.258497 156.260054 
L 316.684553 155.352339 
L 317.110608 152.818868 
L 317.536664 156.019875 
L 317.96272 156.926096 
L 318.388776 157.096581 
L 318.814832 158.536955 
L 319.240888 159.336301 
L 320.092999 159.039523 
L 320.519055 159.59488 
L 320.945111 159.274475 
L 321.371167 160.000933 
L 322.223278 157.069809 
L 322.649334 158.914674 
L 323.07539 158.287928 
L 323.501446 156.727988 
L 323.927502 156.900315 
L 324.353558 156.149027 
L 324.779613 153.809831 
L 325.205669 140.877654 
L 325.631725 140.533365 
L 326.057781 153.191602 
L 326.483837 154.966483 
L 326.909893 155.329859 
L 327.335948 154.108237 
L 327.762004 152.458312 
L 328.614116 150.609507 
L 329.040172 150.55715 
L 329.466228 151.170538 
L 329.892283 150.731127 
L 330.318339 140.860614 
L 330.744395 136.552677 
L 331.170451 134.875118 
L 331.596507 136.125879 
L 332.874674 131.743022 
L 333.30073 132.050656 
L 333.726786 134.3719 
L 334.152842 132.244785 
L 334.578898 131.43297 
L 335.004953 133.332224 
L 335.431009 134.376405 
L 336.283121 131.092968 
L 336.709177 127.966972 
L 337.135233 127.730514 
L 337.561288 126.033923 
L 337.987344 127.499356 
L 338.4134 127.297891 
L 338.839456 128.455931 
L 339.265512 127.346292 
L 339.691568 127.355542 
L 340.117623 128.333275 
L 340.543679 130.062245 
L 340.969735 129.236071 
L 341.395791 131.219899 
L 342.247903 131.359913 
L 342.673958 132.125588 
L 343.100014 130.730436 
L 343.52607 130.927357 
L 343.952126 129.824087 
L 344.378182 127.827226 
L 344.804238 130.104462 
L 345.230293 130.562744 
L 345.656349 130.33998 
L 346.082405 132.899153 
L 346.508461 130.755445 
L 347.360573 122.088809 
L 347.786628 115.195179 
L 348.63874 125.508746 
L 349.064796 124.745427 
L 349.490852 125.697586 
L 349.916908 124.518002 
L 350.769019 123.50799 
L 351.195075 123.657871 
L 351.621131 125.374904 
L 352.047187 124.950065 
L 352.473243 124.735472 
L 352.899298 122.717816 
L 353.325354 126.023693 
L 354.177466 122.910758 
L 354.603522 125.257795 
L 355.029578 123.894435 
L 355.455634 120.346755 
L 355.881689 120.695308 
L 356.307745 118.585389 
L 356.733801 117.349055 
L 357.159857 119.290162 
L 357.585913 119.682616 
L 358.438024 111.920237 
L 358.86408 111.788085 
L 359.290136 111.404069 
L 359.716192 110.617874 
L 360.142248 107.763629 
L 360.568304 109.269455 
L 360.994359 107.844857 
L 361.420415 107.953981 
L 361.846471 109.244771 
L 362.272527 112.402631 
L 362.698583 113.134858 
L 363.124639 113.187434 
L 363.550694 114.77156 
L 363.97675 112.47059 
L 364.828862 113.700417 
L 365.254918 113.987245 
L 365.680974 113.752158 
L 366.107029 113.288035 
L 366.533085 115.783424 
L 366.959141 114.635278 
L 367.385197 115.184317 
L 367.811253 113.552808 
L 368.237309 114.683472 
L 369.08942 111.900729 
L 369.515476 106.354157 
L 369.941532 93.366439 
L 370.367588 100.855164 
L 370.793644 106.34921 
L 371.219699 106.705704 
L 371.645755 108.525728 
L 372.071811 106.803272 
L 372.497867 109.706247 
L 372.923923 108.680639 
L 373.349979 105.074358 
L 373.776034 107.049176 
L 374.20209 107.04241 
L 374.628146 109.462929 
L 375.054202 105.356754 
L 375.480258 98.407241 
L 375.906314 98.571699 
L 376.332369 109.516265 
L 376.758425 97.229766 
L 377.610537 93.588576 
L 378.036593 97.468792 
L 378.462649 97.281536 
L 378.888704 95.868762 
L 379.31476 92.619399 
L 379.740816 93.293908 
L 380.592928 85.293672 
L 381.018984 86.101631 
L 381.445039 85.866556 
L 381.871095 83.292418 
L 382.297151 83.196591 
L 382.723207 84.153014 
L 383.149263 82.834635 
L 383.575319 83.717862 
L 384.001374 83.824988 
L 384.42743 87.333035 
L 384.853486 88.207784 
L 385.705598 91.365784 
L 386.131654 89.196675 
L 386.557709 90.391951 
L 386.983765 90.53036 
L 387.409821 87.532637 
L 387.835877 90.899238 
L 388.261933 91.834261 
L 388.687989 88.578413 
L 389.114044 87.697722 
L 389.5401 90.106483 
L 389.966156 86.403014 
L 390.392212 90.008982 
L 390.818268 90.327199 
L 391.244324 85.73324 
L 392.096435 70.795752 
L 392.522491 78.440462 
L 392.948547 83.649164 
L 393.374603 83.570673 
L 393.800659 84.185869 
L 394.226714 82.984812 
L 394.65277 83.125308 
L 395.078826 83.885532 
L 395.930938 81.446221 
L 396.356994 84.640143 
L 397.209105 76.987279 
L 397.635161 80.899415 
L 398.061217 76.383746 
L 398.487273 78.893959 
L 398.487273 78.893959 
" clip-path="url(#p8732d75a0d)" style="fill: none; stroke: #ff7f0e; stroke-width: 1.5; stroke-linecap: square"/>
   </g>
   <g id="line2d_17">
    <path d="M 73.832727 295.298359 
L 80.223565 295.26715 
L 80.649621 295.337588 
L 81.501732 295.221699 
L 81.927788 295.310497 
L 82.353844 295.206763 
L 82.7799 295.309893 
L 84.058067 295.204837 
L 95.987631 295.271308 
L 96.413686 295.227882 
L 96.839742 295.327817 
L 98.11791 295.013401 
L 98.543966 295.21434 
L 108.34325 295.268493 
L 108.769306 295.406549 
L 110.047473 295.314879 
L 110.899585 295.234116 
L 111.751696 295.367611 
L 112.177752 295.386056 
L 112.603808 295.283737 
L 113.45592 295.408888 
L 114.308031 295.427226 
L 115.586199 295.431569 
L 119.846757 295.315254 
L 121.124925 295.317174 
L 121.550981 295.385715 
L 122.403092 295.350269 
L 123.255204 295.350991 
L 124.107316 295.361299 
L 124.533372 295.460859 
L 127.941818 295.362289 
L 132.202377 295.353 
L 132.628432 295.478559 
L 133.054488 295.33474 
L 133.480544 295.426661 
L 133.9066 295.312803 
L 135.184767 295.392687 
L 135.610823 295.339916 
L 136.036879 295.459505 
L 136.888991 295.425704 
L 137.315047 295.332613 
L 138.167158 295.488 
L 139.445326 295.341119 
L 139.871382 295.439627 
L 140.723493 295.294224 
L 141.149549 295.269651 
L 141.575605 295.406314 
L 142.001661 295.407696 
L 142.427717 295.282808 
L 143.705884 295.450668 
L 144.13194 295.300117 
L 145.410107 295.278863 
L 145.836163 295.129273 
L 147.114331 295.399845 
L 147.966442 295.128132 
L 148.392498 295.218352 
L 148.818554 295.09582 
L 150.096722 295.122743 
L 150.522777 295.14816 
L 150.948833 295.313519 
L 151.800945 295.228224 
L 152.227001 294.89018 
L 152.653057 295.109575 
L 153.079112 295.00715 
L 154.35728 295.203539 
L 154.783336 295.05339 
L 155.209392 295.103022 
L 156.061503 294.864293 
L 156.487559 294.920354 
L 157.339671 294.833503 
L 157.765727 294.983786 
L 158.617838 294.819501 
L 159.043894 295.076614 
L 162.026285 294.826636 
L 162.878397 294.781554 
L 163.304452 294.803469 
L 163.730508 294.5777 
L 164.156564 294.520379 
L 165.008676 294.710473 
L 165.860787 294.664227 
L 166.286843 294.939319 
L 167.991067 294.602143 
L 169.269234 294.639995 
L 169.69529 294.926247 
L 170.973457 294.446393 
L 171.825569 294.532321 
L 172.251625 294.469421 
L 172.677681 294.704552 
L 173.103737 294.475157 
L 173.955848 294.765924 
L 175.234016 294.364332 
L 176.512183 294.468587 
L 176.938239 294.244978 
L 177.364295 294.389246 
L 178.216407 294.07094 
L 178.642462 294.229415 
L 179.068518 294.117012 
L 179.494574 294.191591 
L 180.346686 294.140689 
L 181.198797 294.132844 
L 181.624853 294.018997 
L 182.050909 294.143907 
L 183.329077 293.964121 
L 183.755132 294.173466 
L 184.607244 294.012332 
L 185.0333 293.715766 
L 185.459356 293.580492 
L 185.885412 293.252152 
L 186.737523 293.205665 
L 187.163579 292.934014 
L 187.589635 293.473081 
L 188.015691 293.434798 
L 188.441747 293.125535 
L 188.867802 293.069345 
L 189.293858 292.648792 
L 189.719914 292.871097 
L 190.14597 292.286579 
L 190.998082 292.797363 
L 191.424137 292.689308 
L 191.850193 293.806065 
L 192.276249 293.726718 
L 192.702305 292.485437 
L 193.128361 292.349116 
L 193.554417 292.397639 
L 193.980472 292.631523 
L 194.406528 291.667696 
L 194.832584 292.476142 
L 195.25864 292.48106 
L 195.684696 292.022348 
L 196.110752 292.621427 
L 196.536807 291.800127 
L 196.962863 291.923079 
L 197.388919 292.38079 
L 197.814975 292.412245 
L 198.241031 292.327867 
L 198.667087 292.63314 
L 199.093142 292.123246 
L 199.519198 292.425363 
L 199.945254 291.784609 
L 200.37131 292.278795 
L 200.797366 291.987457 
L 201.223422 292.400891 
L 201.649477 292.195609 
L 202.075533 292.551834 
L 202.927645 291.504116 
L 203.353701 292.352423 
L 203.779757 292.214725 
L 204.205812 291.764917 
L 204.631868 292.042802 
L 205.057924 292.484922 
L 205.48398 292.029131 
L 205.910036 291.766265 
L 206.336092 291.637673 
L 206.762147 291.076815 
L 207.188203 291.348114 
L 207.614259 291.174305 
L 208.040315 290.692313 
L 208.466371 290.824683 
L 208.892427 287.852758 
L 209.318482 291.726119 
L 209.744538 292.042819 
L 210.170594 290.986477 
L 210.59665 290.982482 
L 211.448762 290.342003 
L 211.874817 290.388277 
L 212.300873 290.089037 
L 212.726929 290.224171 
L 213.579041 289.595752 
L 214.005097 291.619636 
L 214.431152 292.388126 
L 214.857208 289.109558 
L 215.283264 289.472638 
L 216.135376 289.045544 
L 216.561432 289.235638 
L 216.987487 289.184064 
L 217.413543 289.825142 
L 217.839599 287.367353 
L 218.265655 289.134874 
L 218.691711 289.12662 
L 219.117767 288.408355 
L 219.543822 288.781369 
L 219.969878 289.353161 
L 220.395934 288.992745 
L 220.82199 289.078376 
L 221.248046 287.779388 
L 221.674102 288.379524 
L 222.100157 287.952268 
L 222.526213 287.289858 
L 222.952269 288.82057 
L 223.378325 287.657426 
L 223.804381 288.774318 
L 224.230437 287.639127 
L 224.656492 288.125747 
L 225.082548 287.486354 
L 225.508604 289.041089 
L 225.93466 288.704395 
L 226.360716 287.664623 
L 227.212827 288.605607 
L 227.638883 288.277564 
L 228.064939 287.042824 
L 228.490995 287.830631 
L 228.917051 286.01364 
L 229.343107 286.583088 
L 229.769162 285.66164 
L 230.621274 284.82091 
L 231.473386 284.980209 
L 231.899442 285.043238 
L 232.325497 283.869193 
L 232.751553 285.120442 
L 233.177609 284.793036 
L 233.603665 283.602551 
L 234.029721 283.875987 
L 234.455777 283.608035 
L 234.881832 283.726387 
L 235.733944 285.093776 
L 236.16 287.087263 
L 236.586056 288.287737 
L 237.012112 283.619423 
L 237.438168 283.176615 
L 237.864223 283.230987 
L 238.290279 283.732335 
L 238.716335 283.646183 
L 239.142391 283.398036 
L 239.994503 284.316607 
L 240.420558 283.174735 
L 240.846614 283.448093 
L 241.27267 282.691724 
L 241.698726 283.962822 
L 242.124782 284.075768 
L 242.550838 282.932384 
L 243.402949 281.835952 
L 243.829005 281.15047 
L 244.255061 283.369479 
L 244.681117 282.263052 
L 245.107173 281.91418 
L 245.533228 282.977842 
L 245.959284 281.933532 
L 246.38534 282.749582 
L 246.811396 282.651276 
L 247.237452 282.160431 
L 247.663508 283.27791 
L 248.089563 283.838723 
L 248.515619 283.330731 
L 248.941675 282.434136 
L 249.367731 282.826803 
L 249.793787 283.766399 
L 250.219843 283.210029 
L 251.071954 281.015777 
L 251.49801 281.155568 
L 251.924066 279.08457 
L 252.776178 279.050685 
L 253.202233 277.784932 
L 253.628289 279.226353 
L 254.054345 279.013583 
L 254.480401 277.710375 
L 254.906457 277.020158 
L 255.332513 278.673509 
L 255.758568 277.217432 
L 256.61068 276.958557 
L 257.462792 277.549219 
L 257.888848 275.628398 
L 258.314903 278.462407 
L 258.740959 282.922664 
L 259.593071 275.678186 
L 260.019127 275.962513 
L 260.445183 275.370754 
L 260.871238 276.174851 
L 261.297294 276.68432 
L 261.72335 276.490622 
L 262.149406 276.455826 
L 262.575462 277.026672 
L 263.001518 276.087479 
L 263.427573 275.983515 
L 263.853629 275.448198 
L 264.279685 276.49985 
L 264.705741 276.659686 
L 265.131797 276.300971 
L 265.557853 276.360563 
L 265.983908 272.854525 
L 266.409964 277.383938 
L 266.83602 274.482866 
L 267.262076 274.53487 
L 267.688132 275.373306 
L 268.114188 277.596971 
L 268.540243 276.697823 
L 268.966299 275.244517 
L 269.392355 274.702087 
L 269.818411 277.744545 
L 270.244467 277.179429 
L 270.670523 277.189093 
L 271.096578 276.240051 
L 271.522634 277.222267 
L 271.94869 277.820999 
L 272.374746 278.074799 
L 272.800802 278.465921 
L 273.226858 276.209743 
L 273.652913 274.57697 
L 274.078969 274.908427 
L 274.505025 274.230745 
L 274.931081 275.198058 
L 275.357137 273.557372 
L 275.783193 273.930951 
L 276.209248 274.797769 
L 276.635304 273.396305 
L 277.06136 273.955478 
L 277.487416 275.415439 
L 277.913472 273.327708 
L 278.339528 272.200638 
L 278.765583 273.652321 
L 279.191639 273.790892 
L 279.617695 289.786741 
L 280.043751 278.826802 
L 280.469807 275.709306 
L 280.895863 281.207488 
L 281.321918 279.79265 
L 281.747974 273.315951 
L 282.17403 274.547355 
L 282.600086 272.997583 
L 283.026142 273.067915 
L 283.452198 272.914957 
L 283.878253 275.792974 
L 284.304309 274.138325 
L 284.730365 273.225255 
L 285.156421 272.696066 
L 285.582477 274.217622 
L 286.008533 274.388532 
L 286.434588 275.156087 
L 286.860644 274.910279 
L 287.2867 270.263392 
L 287.712756 272.448578 
L 288.138812 271.24239 
L 288.564868 274.698467 
L 288.990923 272.547523 
L 289.416979 272.007466 
L 290.269091 273.365667 
L 290.695147 272.218148 
L 291.547258 274.871504 
L 291.973314 275.897279 
L 292.39937 276.598554 
L 293.251482 274.813808 
L 294.103593 276.947868 
L 294.529649 276.164079 
L 294.955705 275.766756 
L 295.381761 275.877525 
L 295.807817 271.331597 
L 296.233873 270.818273 
L 296.659928 270.759603 
L 297.085984 270.819347 
L 297.51204 270.704381 
L 297.938096 271.253918 
L 298.364152 269.873562 
L 298.790208 270.420726 
L 299.216263 267.399852 
L 299.642319 270.655471 
L 300.068375 269.337031 
L 300.494431 267.063527 
L 300.920487 269.61124 
L 301.346543 267.479692 
L 301.772598 268.884284 
L 302.198654 268.92912 
L 302.62471 270.299582 
L 303.050766 282.669491 
L 303.902878 270.052928 
L 304.328933 269.587937 
L 304.754989 269.309369 
L 305.181045 268.641632 
L 305.607101 271.167794 
L 306.033157 269.929562 
L 306.459213 270.722434 
L 306.885268 267.868671 
L 307.311324 269.691885 
L 308.163436 268.21146 
L 308.589492 269.345089 
L 309.015548 268.827904 
L 309.441603 268.107921 
L 309.867659 270.744919 
L 310.293715 267.418918 
L 310.719771 269.651487 
L 311.145827 267.79938 
L 311.571883 267.349683 
L 311.997938 267.454151 
L 312.85005 270.918633 
L 313.276106 268.820231 
L 313.702162 270.310416 
L 314.128218 270.674173 
L 314.554273 270.443105 
L 314.980329 271.333517 
L 315.406385 269.428701 
L 315.832441 271.190525 
L 316.258497 270.6249 
L 316.684553 270.845716 
L 317.110608 273.321905 
L 317.96272 267.812816 
L 318.388776 267.810404 
L 318.814832 267.971007 
L 319.240888 266.629186 
L 319.666943 267.4194 
L 320.092999 267.851071 
L 320.519055 265.243967 
L 320.945111 266.793174 
L 321.371167 266.396914 
L 322.223278 268.099583 
L 322.649334 264.416831 
L 323.501446 266.591407 
L 323.927502 266.551736 
L 324.353558 266.234258 
L 324.779613 268.105934 
L 325.205669 279.685328 
L 325.631725 279.438321 
L 326.057781 267.616018 
L 326.483837 266.089683 
L 326.909893 265.782222 
L 327.335948 266.128106 
L 327.762004 266.73 
L 328.18806 268.241019 
L 328.614116 267.637166 
L 329.040172 268.296672 
L 329.466228 267.420905 
L 329.892283 266.890014 
L 330.318339 276.997651 
L 330.744395 281.972139 
L 331.170451 283.34583 
L 332.022563 280.948277 
L 332.874674 282.178859 
L 333.30073 282.16751 
L 333.726786 279.218921 
L 334.152842 279.258082 
L 334.578898 280.745318 
L 335.004953 275.849864 
L 335.431009 277.20352 
L 335.857065 276.763997 
L 336.283121 275.788469 
L 336.709177 279.708238 
L 337.135233 278.250399 
L 337.561288 278.803713 
L 337.987344 277.44765 
L 338.4134 276.79139 
L 338.839456 277.783595 
L 339.265512 277.101884 
L 339.691568 277.764322 
L 340.117623 277.180677 
L 340.543679 274.59542 
L 340.969735 274.690363 
L 341.395791 271.545631 
L 341.821847 273.723554 
L 342.247903 273.739738 
L 342.673958 271.962496 
L 343.100014 273.93085 
L 343.52607 275.123669 
L 343.952126 275.146093 
L 344.378182 274.62809 
L 344.804238 276.525822 
L 345.656349 273.537847 
L 346.082405 272.344217 
L 346.508461 274.586589 
L 346.934517 276.196296 
L 347.360573 279.912719 
L 347.786628 284.770473 
L 348.63874 274.697549 
L 349.064796 275.692859 
L 350.342963 274.841598 
L 350.769019 276.479424 
L 351.195075 276.028838 
L 351.621131 271.70108 
L 352.047187 271.551641 
L 352.473243 269.989441 
L 352.899298 274.924834 
L 353.325354 272.586628 
L 353.75141 273.389081 
L 354.177466 274.566354 
L 354.603522 272.368509 
L 355.029578 268.585721 
L 355.455634 275.573629 
L 355.881689 273.242687 
L 356.307745 275.831665 
L 356.733801 277.591766 
L 357.159857 270.776711 
L 357.585913 269.761355 
L 358.011969 271.624128 
L 358.438024 275.485104 
L 358.86408 277.39067 
L 359.290136 275.329091 
L 359.716192 275.634559 
L 360.142248 277.225854 
L 360.568304 275.263292 
L 360.994359 275.252956 
L 361.420415 275.35837 
L 361.846471 277.546544 
L 362.272527 272.512626 
L 362.698583 270.592521 
L 363.124639 272.799129 
L 363.550694 269.965674 
L 363.97675 271.826863 
L 364.402806 269.429982 
L 365.254918 271.377228 
L 365.680974 271.297036 
L 366.107029 272.211248 
L 366.533085 269.573253 
L 366.959141 269.104071 
L 367.385197 270.425035 
L 367.811253 269.809856 
L 368.237309 267.88467 
L 368.663364 269.288653 
L 369.08942 269.270236 
L 369.515476 273.333724 
L 369.941532 283.200393 
L 370.367588 277.840211 
L 370.793644 276.321771 
L 371.219699 271.487107 
L 371.645755 269.456715 
L 372.071811 274.184269 
L 372.497867 269.275099 
L 372.923923 268.307187 
L 373.349979 271.860003 
L 373.776034 270.729552 
L 374.20209 270.701863 
L 374.628146 268.927945 
L 375.054202 265.432623 
L 375.480258 271.570646 
L 375.906314 271.63279 
L 376.332369 259.134675 
L 376.758425 270.911621 
L 377.184481 269.828654 
L 377.610537 275.284076 
L 378.462649 269.99272 
L 378.888704 273.340854 
L 379.31476 273.299012 
L 379.740816 270.948746 
L 380.166872 271.077971 
L 380.592928 275.977533 
L 381.018984 269.146131 
L 381.445039 271.821278 
L 381.871095 276.17761 
L 382.297151 278.201545 
L 382.723207 275.48901 
L 383.149263 277.149954 
L 384.001374 276.746341 
L 384.42743 275.379316 
L 384.853486 273.506526 
L 385.279542 270.479385 
L 385.705598 269.144788 
L 386.131654 269.710425 
L 386.557709 268.922545 
L 386.983765 266.823085 
L 387.409821 271.205159 
L 387.835877 271.573836 
L 388.261933 268.125174 
L 388.687989 267.570231 
L 389.114044 271.609063 
L 389.5401 267.365711 
L 389.966156 272.974651 
L 390.392212 267.648051 
L 390.818268 267.305368 
L 391.244324 269.486749 
L 391.670379 274.01116 
L 392.096435 280.212564 
L 392.948547 270.100154 
L 393.374603 268.693026 
L 393.800659 268.515692 
L 394.226714 272.248467 
L 395.078826 269.160468 
L 395.504882 272.090607 
L 395.930938 272.300964 
L 396.356994 267.359443 
L 396.783049 271.636361 
L 397.209105 273.769828 
L 397.635161 268.23437 
L 398.061217 274.015183 
L 398.487273 293.147007 
L 398.487273 293.147007 
" clip-path="url(#p8732d75a0d)" style="fill: none; stroke: #2ca02c; stroke-width: 1.5; stroke-linecap: square"/>
   </g>
   <g id="patch_3">
    <path d="M 57.6 307.584 
L 57.6 41.472 
" style="fill: none; stroke: #000000; stroke-width: 0.8; stroke-linejoin: miter; stroke-linecap: square"/>
   </g>
   <g id="patch_4">
    <path d="M 414.72 307.584 
L 414.72 41.472 
" style="fill: none; stroke: #000000; stroke-width: 0.8; stroke-linejoin: miter; stroke-linecap: square"/>
   </g>
   <g id="patch_5">
    <path d="M 57.6 307.584 
L 414.72 307.584 
" style="fill: none; stroke: #000000; stroke-width: 0.8; stroke-linejoin: miter; stroke-linecap: square"/>
   </g>
   <g id="patch_6">
    <path d="M 57.6 41.472 
L 414.72 41.472 
" style="fill: none; stroke: #000000; stroke-width: 0.8; stroke-linejoin: miter; stroke-linecap: square"/>
   </g>
   <g id="legend_1">
    <g id="patch_7">
     <path d="M 64.6 93.506375 
L 186.25625 93.506375 
Q 188.25625 93.506375 188.25625 91.506375 
L 188.25625 48.472 
Q 188.25625 46.472 186.25625 46.472 
L 64.6 46.472 
Q 62.6 46.472 62.6 48.472 
L 62.6 91.506375 
Q 62.6 93.506375 64.6 93.506375 
z
" style="fill: #ffffff; opacity: 0.8; stroke: #cccccc; stroke-linejoin: miter"/>
    </g>
    <g id="line2d_18">
     <path d="M 66.6 54.570438 
L 76.6 54.570438 
L 86.6 54.570438 
" style="fill: none; stroke: #1f77b4; stroke-width: 1.5; stroke-linecap: square"/>
    </g>
    <g id="text_17">
     <!-- Weekly maximum -->
     <g transform="translate(94.6 58.070438) scale(0.1 -0.1)">
      <defs>
       <path id="DejaVuSans-57" d="M 213 4666 
L 850 4666 
L 1831 722 
L 2809 4666 
L 3519 4666 
L 4500 722 
L 5478 4666 
L 6119 4666 
L 4947 0 
L 4153 0 
L 3169 4050 
L 2175 0 
L 1381 0 
L 213 4666 
z
" transform="scale(0.015625)"/>
       <path id="DejaVuSans-6b" d="M 581 4863 
L 1159 4863 
L 1159 1991 
L 2875 3500 
L 3609 3500 
L 1753 1863 
L 3688 0 
L 2938 0 
L 1159 1709 
L 1159 0 
L 581 0 
L 581 4863 
z
" transform="scale(0.015625)"/>
       <path id="DejaVuSans-79" d="M 2059 -325 
Q 1816 -950 1584 -1140 
Q 1353 -1331 966 -1331 
L 506 -1331 
L 506 -850 
L 844 -850 
Q 1081 -850 1212 -737 
Q 1344 -625 1503 -206 
L 1606 56 
L 191 3500 
L 800 3500 
L 1894 763 
L 2988 3500 
L 3597 3500 
L 2059 -325 
z
" transform="scale(0.015625)"/>
       <path id="DejaVuSans-6d" d="M 3328 2828 
Q 3544 3216 3844 3400 
Q 4144 3584 4550 3584 
Q 5097 3584 5394 3201 
Q 5691 2819 5691 2113 
L 5691 0 
L 5113 0 
L 5113 2094 
Q 5113 2597 4934 2840 
Q 4756 3084 4391 3084 
Q 3944 3084 3684 2787 
Q 3425 2491 3425 1978 
L 3425 0 
L 2847 0 
L 2847 2094 
Q 2847 2600 2669 2842 
Q 2491 3084 2119 3084 
Q 1678 3084 1418 2786 
Q 1159 2488 1159 1978 
L 1159 0 
L 581 0 
L 581 3500 
L 1159 3500 
L 1159 2956 
Q 1356 3278 1631 3431 
Q 1906 3584 2284 3584 
Q 2666 3584 2933 3390 
Q 3200 3197 3328 2828 
z
" transform="scale(0.015625)"/>
       <path id="DejaVuSans-78" d="M 3513 3500 
L 2247 1797 
L 3578 0 
L 2900 0 
L 1881 1375 
L 863 0 
L 184 0 
L 1544 1831 
L 300 3500 
L 978 3500 
L 1906 2253 
L 2834 3500 
L 3513 3500 
z
" transform="scale(0.015625)"/>
       <path id="DejaVuSans-75" d="M 544 1381 
L 544 3500 
L 1119 3500 
L 1119 1403 
Q 1119 906 1312 657 
Q 1506 409 1894 409 
Q 2359 409 2629 706 
Q 2900 1003 2900 1516 
L 2900 3500 
L 3475 3500 
L 3475 0 
L 2900 0 
L 2900 538 
Q 2691 219 2414 64 
Q 2138 -91 1772 -91 
Q 1169 -91 856 284 
Q 544 659 544 1381 
z
M 1991 3584 
L 1991 3584 
z
" transform="scale(0.015625)"/>
      </defs>
      <use xlink:href="#DejaVuSans-57"/>
      <use xlink:href="#DejaVuSans-65" x="93.001953"/>
      <use xlink:href="#DejaVuSans-65" x="154.525391"/>
      <use xlink:href="#DejaVuSans-6b" x="216.048828"/>
      <use xlink:href="#DejaVuSans-6c" x="273.958984"/>
      <use xlink:href="#DejaVuSans-79" x="301.742188"/>
      <use xlink:href="#DejaVuSans-20" x="360.921875"/>
      <use xlink:href="#DejaVuSans-6d" x="392.708984"/>
      <use xlink:href="#DejaVuSans-61" x="490.121094"/>
      <use xlink:href="#DejaVuSans-78" x="551.400391"/>
      <use xlink:href="#DejaVuSans-69" x="610.580078"/>
      <use xlink:href="#DejaVuSans-6d" x="638.363281"/>
      <use xlink:href="#DejaVuSans-75" x="735.775391"/>
      <use xlink:href="#DejaVuSans-6d" x="799.154297"/>
     </g>
    </g>
    <g id="line2d_19">
     <path d="M 66.6 69.248563 
L 76.6 69.248563 
L 86.6 69.248563 
" style="fill: none; stroke: #ff7f0e; stroke-width: 1.5; stroke-linecap: square"/>
    </g>
    <g id="text_18">
     <!-- Weekly minimum -->
     <g transform="translate(94.6 72.748563) scale(0.1 -0.1)">
      <defs>
       <path id="DejaVuSans-6e" d="M 3513 2113 
L 3513 0 
L 2938 0 
L 2938 2094 
Q 2938 2591 2744 2837 
Q 2550 3084 2163 3084 
Q 1697 3084 1428 2787 
Q 1159 2491 1159 1978 
L 1159 0 
L 581 0 
L 581 3500 
L 1159 3500 
L 1159 2956 
Q 1366 3272 1645 3428 
Q 1925 3584 2291 3584 
Q 2894 3584 3203 3211 
Q 3513 2838 3513 2113 
z
" transform="scale(0.015625)"/>
      </defs>
      <use xlink:href="#DejaVuSans-57"/>
      <use xlink:href="#DejaVuSans-65" x="93.001953"/>
      <use xlink:href="#DejaVuSans-65" x="154.525391"/>
      <use xlink:href="#DejaVuSans-6b" x="216.048828"/>
      <use xlink:href="#DejaVuSans-6c" x="273.958984"/>
      <use xlink:href="#DejaVuSans-79" x="301.742188"/>
      <use xlink:href="#DejaVuSans-20" x="360.921875"/>
      <use xlink:href="#DejaVuSans-6d" x="392.708984"/>
      <use xlink:href="#DejaVuSans-69" x="490.121094"/>
      <use xlink:href="#DejaVuSans-6e" x="517.904297"/>
      <use xlink:href="#DejaVuSans-69" x="581.283203"/>
      <use xlink:href="#DejaVuSans-6d" x="609.066406"/>
      <use xlink:href="#DejaVuSans-75" x="706.478516"/>
      <use xlink:href="#DejaVuSans-6d" x="769.857422"/>
     </g>
    </g>
    <g id="line2d_20">
     <path d="M 66.6 83.926688 
L 76.6 83.926688 
L 86.6 83.926688 
" style="fill: none; stroke: #2ca02c; stroke-width: 1.5; stroke-linecap: square"/>
    </g>
    <g id="text_19">
     <!-- Weekly range -->
     <g transform="translate(94.6 87.426688) scale(0.1 -0.1)">
      <use xlink:href="#DejaVuSans-57"/>
      <use xlink:href="#DejaVuSans-65" x="93.001953"/>
      <use xlink:href="#DejaVuSans-65" x="154.525391"/>
      <use xlink:href="#DejaVuSans-6b" x="216.048828"/>
      <use xlink:href="#DejaVuSans-6c" x="273.958984"/>
      <use xlink:href="#DejaVuSans-79" x="301.742188"/>
      <use xlink:href="#DejaVuSans-20" x="360.921875"/>
      <use xlink:href="#DejaVuSans-72" x="392.708984"/>
      <use xlink:href="#DejaVuSans-61" x="433.822266"/>
      <use xlink:href="#DejaVuSans-6e" x="495.101562"/>
      <use xlink:href="#DejaVuSans-67" x="558.480469"/>
      <use xlink:href="#DejaVuSans-65" x="621.957031"/>
     </g>
    </g>
   </g>
  </g>
 </g>
 <defs>
  <clipPath id="p8732d75a0d">
   <rect x="57.6" y="41.472" width="357.12" height="266.112"/>
  </clipPath>
 </defs>
</svg>
