<?xml version="1.0" encoding="utf-8" standalone="no"?>
<!DOCTYPE svg PUBLIC "-//W3C//DTD SVG 1.1//EN"
  "http://www.w3.org/Graphics/SVG/1.1/DTD/svg11.dtd">
<svg xmlns:xlink="http://www.w3.org/1999/xlink" width="460.8pt" height="345.6pt" viewBox="0 0 460.8 345.6" xmlns="http://www.w3.org/2000/svg" version="1.1">
 <metadata>
  <rdf:RDF xmlns:dc="http://purl.org/dc/elements/1.1/" xmlns:cc="http://creativecommons.org/ns#" xmlns:rdf="http://www.w3.org/1999/02/22-rdf-syntax-ns#">
   <cc:Work>
    <dc:type rdf:resource="http://purl.org/dc/dcmitype/StillImage"/>
    <dc:date>2023-08-02T05:31:36.483816</dc:date>
    <dc:format>image/svg+xml</dc:format>
    <dc:creator>
     <cc:Agent>
      <dc:title>Matplotlib v3.7.2, https://matplotlib.org/</dc:title>
     </cc:Agent>
    </dc:creator>
   </cc:Work>
  </rdf:RDF>
 </metadata>
 <defs>
  <style type="text/css">*{stroke-linejoin: round; stroke-linecap: butt}</style>
 </defs>
 <g id="figure_1">
  <g id="patch_1">
   <path d="M 0 345.6 
L 460.8 345.6 
L 460.8 0 
L 0 0 
z
" style="fill: #ffffff"/>
  </g>
  <g id="axes_1">
   <g id="patch_2">
    <path d="M 57.6 307.584 
L 414.72 307.584 
L 414.72 41.472 
L 57.6 41.472 
z
" style="fill: #ffffff"/>
   </g>
   <g id="matplotlib.axis_1">
    <g id="xtick_1">
     <g id="line2d_1">
      <defs>
       <path id="mffde65a4b2" d="M 0 0 
L 0 3.5 
" style="stroke: #000000; stroke-width: 0.8"/>
      </defs>
      <g>
       <use xlink:href="#mffde65a4b2" x="59.287059" y="307.584" style="stroke: #000000; stroke-width: 0.8"/>
      </g>
     </g>
     <g id="text_1">
      <!-- 2008 -->
      <g transform="translate(46.562059 322.182437) scale(0.1 -0.1)">
       <defs>
        <path id="DejaVuSans-32" d="M 1228 531 
L 3431 531 
L 3431 0 
L 469 0 
L 469 531 
Q 828 903 1448 1529 
Q 2069 2156 2228 2338 
Q 2531 2678 2651 2914 
Q 2772 3150 2772 3378 
Q 2772 3750 2511 3984 
Q 2250 4219 1831 4219 
Q 1534 4219 1204 4116 
Q 875 4013 500 3803 
L 500 4441 
Q 881 4594 1212 4672 
Q 1544 4750 1819 4750 
Q 2544 4750 2975 4387 
Q 3406 4025 3406 3419 
Q 3406 3131 3298 2873 
Q 3191 2616 2906 2266 
Q 2828 2175 2409 1742 
Q 1991 1309 1228 531 
z
" transform="scale(0.015625)"/>
        <path id="DejaVuSans-30" d="M 2034 4250 
Q 1547 4250 1301 3770 
Q 1056 3291 1056 2328 
Q 1056 1369 1301 889 
Q 1547 409 2034 409 
Q 2525 409 2770 889 
Q 3016 1369 3016 2328 
Q 3016 3291 2770 3770 
Q 2525 4250 2034 4250 
z
M 2034 4750 
Q 2819 4750 3233 4129 
Q 3647 3509 3647 2328 
Q 3647 1150 3233 529 
Q 2819 -91 2034 -91 
Q 1250 -91 836 529 
Q 422 1150 422 2328 
Q 422 3509 836 4129 
Q 1250 4750 2034 4750 
z
" transform="scale(0.015625)"/>
        <path id="DejaVuSans-38" d="M 2034 2216 
Q 1584 2216 1326 1975 
Q 1069 1734 1069 1313 
Q 1069 891 1326 650 
Q 1584 409 2034 409 
Q 2484 409 2743 651 
Q 3003 894 3003 1313 
Q 3003 1734 2745 1975 
Q 2488 2216 2034 2216 
z
M 1403 2484 
Q 997 2584 770 2862 
Q 544 3141 544 3541 
Q 544 4100 942 4425 
Q 1341 4750 2034 4750 
Q 2731 4750 3128 4425 
Q 3525 4100 3525 3541 
Q 3525 3141 3298 2862 
Q 3072 2584 2669 2484 
Q 3125 2378 3379 2068 
Q 3634 1759 3634 1313 
Q 3634 634 3220 271 
Q 2806 -91 2034 -91 
Q 1263 -91 848 271 
Q 434 634 434 1313 
Q 434 1759 690 2068 
Q 947 2378 1403 2484 
z
M 1172 3481 
Q 1172 3119 1398 2916 
Q 1625 2713 2034 2713 
Q 2441 2713 2670 2916 
Q 2900 3119 2900 3481 
Q 2900 3844 2670 4047 
Q 2441 4250 2034 4250 
Q 1625 4250 1398 4047 
Q 1172 3844 1172 3481 
z
" transform="scale(0.015625)"/>
       </defs>
       <use xlink:href="#DejaVuSans-32"/>
       <use xlink:href="#DejaVuSans-30" x="63.623047"/>
       <use xlink:href="#DejaVuSans-30" x="127.246094"/>
       <use xlink:href="#DejaVuSans-38" x="190.869141"/>
      </g>
     </g>
    </g>
    <g id="xtick_2">
     <g id="line2d_2">
      <g>
       <use xlink:href="#mffde65a4b2" x="102.86445" y="307.584" style="stroke: #000000; stroke-width: 0.8"/>
      </g>
     </g>
     <g id="text_2">
      <!-- 2010 -->
      <g transform="translate(90.13945 322.182437) scale(0.1 -0.1)">
       <defs>
        <path id="DejaVuSans-31" d="M 794 531 
L 1825 531 
L 1825 4091 
L 703 3866 
L 703 4441 
L 1819 4666 
L 2450 4666 
L 2450 531 
L 3481 531 
L 3481 0 
L 794 0 
L 794 531 
z
" transform="scale(0.015625)"/>
       </defs>
       <use xlink:href="#DejaVuSans-32"/>
       <use xlink:href="#DejaVuSans-30" x="63.623047"/>
       <use xlink:href="#DejaVuSans-31" x="127.246094"/>
       <use xlink:href="#DejaVuSans-30" x="190.869141"/>
      </g>
     </g>
    </g>
    <g id="xtick_3">
     <g id="line2d_3">
      <g>
       <use xlink:href="#mffde65a4b2" x="146.382228" y="307.584" style="stroke: #000000; stroke-width: 0.8"/>
      </g>
     </g>
     <g id="text_3">
      <!-- 2012 -->
      <g transform="translate(133.657228 322.182437) scale(0.1 -0.1)">
       <use xlink:href="#DejaVuSans-32"/>
       <use xlink:href="#DejaVuSans-30" x="63.623047"/>
       <use xlink:href="#DejaVuSans-31" x="127.246094"/>
       <use xlink:href="#DejaVuSans-32" x="190.869141"/>
      </g>
     </g>
    </g>
    <g id="xtick_4">
     <g id="line2d_4">
      <g>
       <use xlink:href="#mffde65a4b2" x="189.959619" y="307.584" style="stroke: #000000; stroke-width: 0.8"/>
      </g>
     </g>
     <g id="text_4">
      <!-- 2014 -->
      <g transform="translate(177.234619 322.182437) scale(0.1 -0.1)">
       <defs>
        <path id="DejaVuSans-34" d="M 2419 4116 
L 825 1625 
L 2419 1625 
L 2419 4116 
z
M 2253 4666 
L 3047 4666 
L 3047 1625 
L 3713 1625 
L 3713 1100 
L 3047 1100 
L 3047 0 
L 2419 0 
L 2419 1100 
L 313 1100 
L 313 1709 
L 2253 4666 
z
" transform="scale(0.015625)"/>
       </defs>
       <use xlink:href="#DejaVuSans-32"/>
       <use xlink:href="#DejaVuSans-30" x="63.623047"/>
       <use xlink:href="#DejaVuSans-31" x="127.246094"/>
       <use xlink:href="#DejaVuSans-34" x="190.869141"/>
      </g>
     </g>
    </g>
    <g id="xtick_5">
     <g id="line2d_5">
      <g>
       <use xlink:href="#mffde65a4b2" x="233.477397" y="307.584" style="stroke: #000000; stroke-width: 0.8"/>
      </g>
     </g>
     <g id="text_5">
      <!-- 2016 -->
      <g transform="translate(220.752397 322.182437) scale(0.1 -0.1)">
       <defs>
        <path id="DejaVuSans-36" d="M 2113 2584 
Q 1688 2584 1439 2293 
Q 1191 2003 1191 1497 
Q 1191 994 1439 701 
Q 1688 409 2113 409 
Q 2538 409 2786 701 
Q 3034 994 3034 1497 
Q 3034 2003 2786 2293 
Q 2538 2584 2113 2584 
z
M 3366 4563 
L 3366 3988 
Q 3128 4100 2886 4159 
Q 2644 4219 2406 4219 
Q 1781 4219 1451 3797 
Q 1122 3375 1075 2522 
Q 1259 2794 1537 2939 
Q 1816 3084 2150 3084 
Q 2853 3084 3261 2657 
Q 3669 2231 3669 1497 
Q 3669 778 3244 343 
Q 2819 -91 2113 -91 
Q 1303 -91 875 529 
Q 447 1150 447 2328 
Q 447 3434 972 4092 
Q 1497 4750 2381 4750 
Q 2619 4750 2861 4703 
Q 3103 4656 3366 4563 
z
" transform="scale(0.015625)"/>
       </defs>
       <use xlink:href="#DejaVuSans-32"/>
       <use xlink:href="#DejaVuSans-30" x="63.623047"/>
       <use xlink:href="#DejaVuSans-31" x="127.246094"/>
       <use xlink:href="#DejaVuSans-36" x="190.869141"/>
      </g>
     </g>
    </g>
    <g id="xtick_6">
     <g id="line2d_6">
      <g>
       <use xlink:href="#mffde65a4b2" x="277.054789" y="307.584" style="stroke: #000000; stroke-width: 0.8"/>
      </g>
     </g>
     <g id="text_6">
      <!-- 2018 -->
      <g transform="translate(264.329789 322.182437) scale(0.1 -0.1)">
       <use xlink:href="#DejaVuSans-32"/>
       <use xlink:href="#DejaVuSans-30" x="63.623047"/>
       <use xlink:href="#DejaVuSans-31" x="127.246094"/>
       <use xlink:href="#DejaVuSans-38" x="190.869141"/>
      </g>
     </g>
    </g>
    <g id="xtick_7">
     <g id="line2d_7">
      <g>
       <use xlink:href="#mffde65a4b2" x="320.572566" y="307.584" style="stroke: #000000; stroke-width: 0.8"/>
      </g>
     </g>
     <g id="text_7">
      <!-- 2020 -->
      <g transform="translate(307.847566 322.182437) scale(0.1 -0.1)">
       <use xlink:href="#DejaVuSans-32"/>
       <use xlink:href="#DejaVuSans-30" x="63.623047"/>
       <use xlink:href="#DejaVuSans-32" x="127.246094"/>
       <use xlink:href="#DejaVuSans-30" x="190.869141"/>
      </g>
     </g>
    </g>
    <g id="xtick_8">
     <g id="line2d_8">
      <g>
       <use xlink:href="#mffde65a4b2" x="364.149958" y="307.584" style="stroke: #000000; stroke-width: 0.8"/>
      </g>
     </g>
     <g id="text_8">
      <!-- 2022 -->
      <g transform="translate(351.424958 322.182437) scale(0.1 -0.1)">
       <use xlink:href="#DejaVuSans-32"/>
       <use xlink:href="#DejaVuSans-30" x="63.623047"/>
       <use xlink:href="#DejaVuSans-32" x="127.246094"/>
       <use xlink:href="#DejaVuSans-32" x="190.869141"/>
      </g>
     </g>
    </g>
    <g id="xtick_9">
     <g id="line2d_9">
      <g>
       <use xlink:href="#mffde65a4b2" x="407.667735" y="307.584" style="stroke: #000000; stroke-width: 0.8"/>
      </g>
     </g>
     <g id="text_9">
      <!-- 2024 -->
      <g transform="translate(394.942735 322.182437) scale(0.1 -0.1)">
       <use xlink:href="#DejaVuSans-32"/>
       <use xlink:href="#DejaVuSans-30" x="63.623047"/>
       <use xlink:href="#DejaVuSans-32" x="127.246094"/>
       <use xlink:href="#DejaVuSans-34" x="190.869141"/>
      </g>
     </g>
    </g>
    <g id="text_10">
     <!-- Updated 2023-08-02 05:31:36.481739 - Last record 2023-07-31 -->
     <g transform="translate(75.905312 335.860562) scale(0.1 -0.1)">
      <defs>
       <path id="DejaVuSans-55" d="M 556 4666 
L 1191 4666 
L 1191 1831 
Q 1191 1081 1462 751 
Q 1734 422 2344 422 
Q 2950 422 3222 751 
Q 3494 1081 3494 1831 
L 3494 4666 
L 4128 4666 
L 4128 1753 
Q 4128 841 3676 375 
Q 3225 -91 2344 -91 
Q 1459 -91 1007 375 
Q 556 841 556 1753 
L 556 4666 
z
" transform="scale(0.015625)"/>
       <path id="DejaVuSans-70" d="M 1159 525 
L 1159 -1331 
L 581 -1331 
L 581 3500 
L 1159 3500 
L 1159 2969 
Q 1341 3281 1617 3432 
Q 1894 3584 2278 3584 
Q 2916 3584 3314 3078 
Q 3713 2572 3713 1747 
Q 3713 922 3314 415 
Q 2916 -91 2278 -91 
Q 1894 -91 1617 61 
Q 1341 213 1159 525 
z
M 3116 1747 
Q 3116 2381 2855 2742 
Q 2594 3103 2138 3103 
Q 1681 3103 1420 2742 
Q 1159 2381 1159 1747 
Q 1159 1113 1420 752 
Q 1681 391 2138 391 
Q 2594 391 2855 752 
Q 3116 1113 3116 1747 
z
" transform="scale(0.015625)"/>
       <path id="DejaVuSans-64" d="M 2906 2969 
L 2906 4863 
L 3481 4863 
L 3481 0 
L 2906 0 
L 2906 525 
Q 2725 213 2448 61 
Q 2172 -91 1784 -91 
Q 1150 -91 751 415 
Q 353 922 353 1747 
Q 353 2572 751 3078 
Q 1150 3584 1784 3584 
Q 2172 3584 2448 3432 
Q 2725 3281 2906 2969 
z
M 947 1747 
Q 947 1113 1208 752 
Q 1469 391 1925 391 
Q 2381 391 2643 752 
Q 2906 1113 2906 1747 
Q 2906 2381 2643 2742 
Q 2381 3103 1925 3103 
Q 1469 3103 1208 2742 
Q 947 2381 947 1747 
z
" transform="scale(0.015625)"/>
       <path id="DejaVuSans-61" d="M 2194 1759 
Q 1497 1759 1228 1600 
Q 959 1441 959 1056 
Q 959 750 1161 570 
Q 1363 391 1709 391 
Q 2188 391 2477 730 
Q 2766 1069 2766 1631 
L 2766 1759 
L 2194 1759 
z
M 3341 1997 
L 3341 0 
L 2766 0 
L 2766 531 
Q 2569 213 2275 61 
Q 1981 -91 1556 -91 
Q 1019 -91 701 211 
Q 384 513 384 1019 
Q 384 1609 779 1909 
Q 1175 2209 1959 2209 
L 2766 2209 
L 2766 2266 
Q 2766 2663 2505 2880 
Q 2244 3097 1772 3097 
Q 1472 3097 1187 3025 
Q 903 2953 641 2809 
L 641 3341 
Q 956 3463 1253 3523 
Q 1550 3584 1831 3584 
Q 2591 3584 2966 3190 
Q 3341 2797 3341 1997 
z
" transform="scale(0.015625)"/>
       <path id="DejaVuSans-74" d="M 1172 4494 
L 1172 3500 
L 2356 3500 
L 2356 3053 
L 1172 3053 
L 1172 1153 
Q 1172 725 1289 603 
Q 1406 481 1766 481 
L 2356 481 
L 2356 0 
L 1766 0 
Q 1100 0 847 248 
Q 594 497 594 1153 
L 594 3053 
L 172 3053 
L 172 3500 
L 594 3500 
L 594 4494 
L 1172 4494 
z
" transform="scale(0.015625)"/>
       <path id="DejaVuSans-65" d="M 3597 1894 
L 3597 1613 
L 953 1613 
Q 991 1019 1311 708 
Q 1631 397 2203 397 
Q 2534 397 2845 478 
Q 3156 559 3463 722 
L 3463 178 
Q 3153 47 2828 -22 
Q 2503 -91 2169 -91 
Q 1331 -91 842 396 
Q 353 884 353 1716 
Q 353 2575 817 3079 
Q 1281 3584 2069 3584 
Q 2775 3584 3186 3129 
Q 3597 2675 3597 1894 
z
M 3022 2063 
Q 3016 2534 2758 2815 
Q 2500 3097 2075 3097 
Q 1594 3097 1305 2825 
Q 1016 2553 972 2059 
L 3022 2063 
z
" transform="scale(0.015625)"/>
       <path id="DejaVuSans-20" transform="scale(0.015625)"/>
       <path id="DejaVuSans-33" d="M 2597 2516 
Q 3050 2419 3304 2112 
Q 3559 1806 3559 1356 
Q 3559 666 3084 287 
Q 2609 -91 1734 -91 
Q 1441 -91 1130 -33 
Q 819 25 488 141 
L 488 750 
Q 750 597 1062 519 
Q 1375 441 1716 441 
Q 2309 441 2620 675 
Q 2931 909 2931 1356 
Q 2931 1769 2642 2001 
Q 2353 2234 1838 2234 
L 1294 2234 
L 1294 2753 
L 1863 2753 
Q 2328 2753 2575 2939 
Q 2822 3125 2822 3475 
Q 2822 3834 2567 4026 
Q 2313 4219 1838 4219 
Q 1578 4219 1281 4162 
Q 984 4106 628 3988 
L 628 4550 
Q 988 4650 1302 4700 
Q 1616 4750 1894 4750 
Q 2613 4750 3031 4423 
Q 3450 4097 3450 3541 
Q 3450 3153 3228 2886 
Q 3006 2619 2597 2516 
z
" transform="scale(0.015625)"/>
       <path id="DejaVuSans-2d" d="M 313 2009 
L 1997 2009 
L 1997 1497 
L 313 1497 
L 313 2009 
z
" transform="scale(0.015625)"/>
       <path id="DejaVuSans-35" d="M 691 4666 
L 3169 4666 
L 3169 4134 
L 1269 4134 
L 1269 2991 
Q 1406 3038 1543 3061 
Q 1681 3084 1819 3084 
Q 2600 3084 3056 2656 
Q 3513 2228 3513 1497 
Q 3513 744 3044 326 
Q 2575 -91 1722 -91 
Q 1428 -91 1123 -41 
Q 819 9 494 109 
L 494 744 
Q 775 591 1075 516 
Q 1375 441 1709 441 
Q 2250 441 2565 725 
Q 2881 1009 2881 1497 
Q 2881 1984 2565 2268 
Q 2250 2553 1709 2553 
Q 1456 2553 1204 2497 
Q 953 2441 691 2322 
L 691 4666 
z
" transform="scale(0.015625)"/>
       <path id="DejaVuSans-3a" d="M 750 794 
L 1409 794 
L 1409 0 
L 750 0 
L 750 794 
z
M 750 3309 
L 1409 3309 
L 1409 2516 
L 750 2516 
L 750 3309 
z
" transform="scale(0.015625)"/>
       <path id="DejaVuSans-2e" d="M 684 794 
L 1344 794 
L 1344 0 
L 684 0 
L 684 794 
z
" transform="scale(0.015625)"/>
       <path id="DejaVuSans-37" d="M 525 4666 
L 3525 4666 
L 3525 4397 
L 1831 0 
L 1172 0 
L 2766 4134 
L 525 4134 
L 525 4666 
z
" transform="scale(0.015625)"/>
       <path id="DejaVuSans-39" d="M 703 97 
L 703 672 
Q 941 559 1184 500 
Q 1428 441 1663 441 
Q 2288 441 2617 861 
Q 2947 1281 2994 2138 
Q 2813 1869 2534 1725 
Q 2256 1581 1919 1581 
Q 1219 1581 811 2004 
Q 403 2428 403 3163 
Q 403 3881 828 4315 
Q 1253 4750 1959 4750 
Q 2769 4750 3195 4129 
Q 3622 3509 3622 2328 
Q 3622 1225 3098 567 
Q 2575 -91 1691 -91 
Q 1453 -91 1209 -44 
Q 966 3 703 97 
z
M 1959 2075 
Q 2384 2075 2632 2365 
Q 2881 2656 2881 3163 
Q 2881 3666 2632 3958 
Q 2384 4250 1959 4250 
Q 1534 4250 1286 3958 
Q 1038 3666 1038 3163 
Q 1038 2656 1286 2365 
Q 1534 2075 1959 2075 
z
" transform="scale(0.015625)"/>
       <path id="DejaVuSans-4c" d="M 628 4666 
L 1259 4666 
L 1259 531 
L 3531 531 
L 3531 0 
L 628 0 
L 628 4666 
z
" transform="scale(0.015625)"/>
       <path id="DejaVuSans-73" d="M 2834 3397 
L 2834 2853 
Q 2591 2978 2328 3040 
Q 2066 3103 1784 3103 
Q 1356 3103 1142 2972 
Q 928 2841 928 2578 
Q 928 2378 1081 2264 
Q 1234 2150 1697 2047 
L 1894 2003 
Q 2506 1872 2764 1633 
Q 3022 1394 3022 966 
Q 3022 478 2636 193 
Q 2250 -91 1575 -91 
Q 1294 -91 989 -36 
Q 684 19 347 128 
L 347 722 
Q 666 556 975 473 
Q 1284 391 1588 391 
Q 1994 391 2212 530 
Q 2431 669 2431 922 
Q 2431 1156 2273 1281 
Q 2116 1406 1581 1522 
L 1381 1569 
Q 847 1681 609 1914 
Q 372 2147 372 2553 
Q 372 3047 722 3315 
Q 1072 3584 1716 3584 
Q 2034 3584 2315 3537 
Q 2597 3491 2834 3397 
z
" transform="scale(0.015625)"/>
       <path id="DejaVuSans-72" d="M 2631 2963 
Q 2534 3019 2420 3045 
Q 2306 3072 2169 3072 
Q 1681 3072 1420 2755 
Q 1159 2438 1159 1844 
L 1159 0 
L 581 0 
L 581 3500 
L 1159 3500 
L 1159 2956 
Q 1341 3275 1631 3429 
Q 1922 3584 2338 3584 
Q 2397 3584 2469 3576 
Q 2541 3569 2628 3553 
L 2631 2963 
z
" transform="scale(0.015625)"/>
       <path id="DejaVuSans-63" d="M 3122 3366 
L 3122 2828 
Q 2878 2963 2633 3030 
Q 2388 3097 2138 3097 
Q 1578 3097 1268 2742 
Q 959 2388 959 1747 
Q 959 1106 1268 751 
Q 1578 397 2138 397 
Q 2388 397 2633 464 
Q 2878 531 3122 666 
L 3122 134 
Q 2881 22 2623 -34 
Q 2366 -91 2075 -91 
Q 1284 -91 818 406 
Q 353 903 353 1747 
Q 353 2603 823 3093 
Q 1294 3584 2113 3584 
Q 2378 3584 2631 3529 
Q 2884 3475 3122 3366 
z
" transform="scale(0.015625)"/>
       <path id="DejaVuSans-6f" d="M 1959 3097 
Q 1497 3097 1228 2736 
Q 959 2375 959 1747 
Q 959 1119 1226 758 
Q 1494 397 1959 397 
Q 2419 397 2687 759 
Q 2956 1122 2956 1747 
Q 2956 2369 2687 2733 
Q 2419 3097 1959 3097 
z
M 1959 3584 
Q 2709 3584 3137 3096 
Q 3566 2609 3566 1747 
Q 3566 888 3137 398 
Q 2709 -91 1959 -91 
Q 1206 -91 779 398 
Q 353 888 353 1747 
Q 353 2609 779 3096 
Q 1206 3584 1959 3584 
z
" transform="scale(0.015625)"/>
      </defs>
      <use xlink:href="#DejaVuSans-55"/>
      <use xlink:href="#DejaVuSans-70" x="73.193359"/>
      <use xlink:href="#DejaVuSans-64" x="136.669922"/>
      <use xlink:href="#DejaVuSans-61" x="200.146484"/>
      <use xlink:href="#DejaVuSans-74" x="261.425781"/>
      <use xlink:href="#DejaVuSans-65" x="300.634766"/>
      <use xlink:href="#DejaVuSans-64" x="362.158203"/>
      <use xlink:href="#DejaVuSans-20" x="425.634766"/>
      <use xlink:href="#DejaVuSans-32" x="457.421875"/>
      <use xlink:href="#DejaVuSans-30" x="521.044922"/>
      <use xlink:href="#DejaVuSans-32" x="584.667969"/>
      <use xlink:href="#DejaVuSans-33" x="648.291016"/>
      <use xlink:href="#DejaVuSans-2d" x="711.914062"/>
      <use xlink:href="#DejaVuSans-30" x="747.998047"/>
      <use xlink:href="#DejaVuSans-38" x="811.621094"/>
      <use xlink:href="#DejaVuSans-2d" x="875.244141"/>
      <use xlink:href="#DejaVuSans-30" x="911.328125"/>
      <use xlink:href="#DejaVuSans-32" x="974.951172"/>
      <use xlink:href="#DejaVuSans-20" x="1038.574219"/>
      <use xlink:href="#DejaVuSans-30" x="1070.361328"/>
      <use xlink:href="#DejaVuSans-35" x="1133.984375"/>
      <use xlink:href="#DejaVuSans-3a" x="1197.607422"/>
      <use xlink:href="#DejaVuSans-33" x="1231.298828"/>
      <use xlink:href="#DejaVuSans-31" x="1294.921875"/>
      <use xlink:href="#DejaVuSans-3a" x="1358.544922"/>
      <use xlink:href="#DejaVuSans-33" x="1392.236328"/>
      <use xlink:href="#DejaVuSans-36" x="1455.859375"/>
      <use xlink:href="#DejaVuSans-2e" x="1519.482422"/>
      <use xlink:href="#DejaVuSans-34" x="1551.269531"/>
      <use xlink:href="#DejaVuSans-38" x="1614.892578"/>
      <use xlink:href="#DejaVuSans-31" x="1678.515625"/>
      <use xlink:href="#DejaVuSans-37" x="1742.138672"/>
      <use xlink:href="#DejaVuSans-33" x="1805.761719"/>
      <use xlink:href="#DejaVuSans-39" x="1869.384766"/>
      <use xlink:href="#DejaVuSans-20" x="1933.007812"/>
      <use xlink:href="#DejaVuSans-2d" x="1964.794922"/>
      <use xlink:href="#DejaVuSans-20" x="2000.878906"/>
      <use xlink:href="#DejaVuSans-4c" x="2032.666016"/>
      <use xlink:href="#DejaVuSans-61" x="2088.378906"/>
      <use xlink:href="#DejaVuSans-73" x="2149.658203"/>
      <use xlink:href="#DejaVuSans-74" x="2201.757812"/>
      <use xlink:href="#DejaVuSans-20" x="2240.966797"/>
      <use xlink:href="#DejaVuSans-72" x="2272.753906"/>
      <use xlink:href="#DejaVuSans-65" x="2311.617188"/>
      <use xlink:href="#DejaVuSans-63" x="2373.140625"/>
      <use xlink:href="#DejaVuSans-6f" x="2428.121094"/>
      <use xlink:href="#DejaVuSans-72" x="2489.302734"/>
      <use xlink:href="#DejaVuSans-64" x="2528.666016"/>
      <use xlink:href="#DejaVuSans-20" x="2592.142578"/>
      <use xlink:href="#DejaVuSans-32" x="2623.929688"/>
      <use xlink:href="#DejaVuSans-30" x="2687.552734"/>
      <use xlink:href="#DejaVuSans-32" x="2751.175781"/>
      <use xlink:href="#DejaVuSans-33" x="2814.798828"/>
      <use xlink:href="#DejaVuSans-2d" x="2878.421875"/>
      <use xlink:href="#DejaVuSans-30" x="2914.505859"/>
      <use xlink:href="#DejaVuSans-37" x="2978.128906"/>
      <use xlink:href="#DejaVuSans-2d" x="3041.751953"/>
      <use xlink:href="#DejaVuSans-33" x="3077.835938"/>
      <use xlink:href="#DejaVuSans-31" x="3141.458984"/>
     </g>
    </g>
   </g>
   <g id="matplotlib.axis_2">
    <g id="ytick_1">
     <g id="line2d_10">
      <defs>
       <path id="ma73a17a998" d="M 0 0 
L -3.5 0 
" style="stroke: #000000; stroke-width: 0.8"/>
      </defs>
      <g>
       <use xlink:href="#ma73a17a998" x="57.6" y="295.488" style="stroke: #000000; stroke-width: 0.8"/>
      </g>
     </g>
     <g id="text_11">
      <!-- 0 -->
      <g transform="translate(44.2375 299.287219) scale(0.1 -0.1)">
       <use xlink:href="#DejaVuSans-30"/>
      </g>
     </g>
    </g>
    <g id="ytick_2">
     <g id="line2d_11">
      <g>
       <use xlink:href="#ma73a17a998" x="57.6" y="241.435261" style="stroke: #000000; stroke-width: 0.8"/>
      </g>
     </g>
     <g id="text_12">
      <!-- 10 -->
      <g transform="translate(37.875 245.23448) scale(0.1 -0.1)">
       <use xlink:href="#DejaVuSans-31"/>
       <use xlink:href="#DejaVuSans-30" x="63.623047"/>
      </g>
     </g>
    </g>
    <g id="ytick_3">
     <g id="line2d_12">
      <g>
       <use xlink:href="#ma73a17a998" x="57.6" y="187.382522" style="stroke: #000000; stroke-width: 0.8"/>
      </g>
     </g>
     <g id="text_13">
      <!-- 20 -->
      <g transform="translate(37.875 191.181741) scale(0.1 -0.1)">
       <use xlink:href="#DejaVuSans-32"/>
       <use xlink:href="#DejaVuSans-30" x="63.623047"/>
      </g>
     </g>
    </g>
    <g id="ytick_4">
     <g id="line2d_13">
      <g>
       <use xlink:href="#ma73a17a998" x="57.6" y="133.329784" style="stroke: #000000; stroke-width: 0.8"/>
      </g>
     </g>
     <g id="text_14">
      <!-- 30 -->
      <g transform="translate(37.875 137.129002) scale(0.1 -0.1)">
       <use xlink:href="#DejaVuSans-33"/>
       <use xlink:href="#DejaVuSans-30" x="63.623047"/>
      </g>
     </g>
    </g>
    <g id="ytick_5">
     <g id="line2d_14">
      <g>
       <use xlink:href="#ma73a17a998" x="57.6" y="79.277045" style="stroke: #000000; stroke-width: 0.8"/>
      </g>
     </g>
     <g id="text_15">
      <!-- 40 -->
      <g transform="translate(37.875 83.076263) scale(0.1 -0.1)">
       <use xlink:href="#DejaVuSans-34"/>
       <use xlink:href="#DejaVuSans-30" x="63.623047"/>
      </g>
     </g>
    </g>
    <g id="text_16">
     <!-- IPv6 as % of total Google traffic -->
     <g transform="translate(31.795312 253.735813) rotate(-90) scale(0.1 -0.1)">
      <defs>
       <path id="DejaVuSans-49" d="M 628 4666 
L 1259 4666 
L 1259 0 
L 628 0 
L 628 4666 
z
" transform="scale(0.015625)"/>
       <path id="DejaVuSans-50" d="M 1259 4147 
L 1259 2394 
L 2053 2394 
Q 2494 2394 2734 2622 
Q 2975 2850 2975 3272 
Q 2975 3691 2734 3919 
Q 2494 4147 2053 4147 
L 1259 4147 
z
M 628 4666 
L 2053 4666 
Q 2838 4666 3239 4311 
Q 3641 3956 3641 3272 
Q 3641 2581 3239 2228 
Q 2838 1875 2053 1875 
L 1259 1875 
L 1259 0 
L 628 0 
L 628 4666 
z
" transform="scale(0.015625)"/>
       <path id="DejaVuSans-76" d="M 191 3500 
L 800 3500 
L 1894 563 
L 2988 3500 
L 3597 3500 
L 2284 0 
L 1503 0 
L 191 3500 
z
" transform="scale(0.015625)"/>
       <path id="DejaVuSans-25" d="M 4653 2053 
Q 4381 2053 4226 1822 
Q 4072 1591 4072 1178 
Q 4072 772 4226 539 
Q 4381 306 4653 306 
Q 4919 306 5073 539 
Q 5228 772 5228 1178 
Q 5228 1588 5073 1820 
Q 4919 2053 4653 2053 
z
M 4653 2450 
Q 5147 2450 5437 2106 
Q 5728 1763 5728 1178 
Q 5728 594 5436 251 
Q 5144 -91 4653 -91 
Q 4153 -91 3862 251 
Q 3572 594 3572 1178 
Q 3572 1766 3864 2108 
Q 4156 2450 4653 2450 
z
M 1428 4353 
Q 1159 4353 1004 4120 
Q 850 3888 850 3481 
Q 850 3069 1003 2837 
Q 1156 2606 1428 2606 
Q 1700 2606 1854 2837 
Q 2009 3069 2009 3481 
Q 2009 3884 1853 4118 
Q 1697 4353 1428 4353 
z
M 4250 4750 
L 4750 4750 
L 1831 -91 
L 1331 -91 
L 4250 4750 
z
M 1428 4750 
Q 1922 4750 2215 4408 
Q 2509 4066 2509 3481 
Q 2509 2891 2217 2550 
Q 1925 2209 1428 2209 
Q 931 2209 642 2551 
Q 353 2894 353 3481 
Q 353 4063 643 4406 
Q 934 4750 1428 4750 
z
" transform="scale(0.015625)"/>
       <path id="DejaVuSans-66" d="M 2375 4863 
L 2375 4384 
L 1825 4384 
Q 1516 4384 1395 4259 
Q 1275 4134 1275 3809 
L 1275 3500 
L 2222 3500 
L 2222 3053 
L 1275 3053 
L 1275 0 
L 697 0 
L 697 3053 
L 147 3053 
L 147 3500 
L 697 3500 
L 697 3744 
Q 697 4328 969 4595 
Q 1241 4863 1831 4863 
L 2375 4863 
z
" transform="scale(0.015625)"/>
       <path id="DejaVuSans-6c" d="M 603 4863 
L 1178 4863 
L 1178 0 
L 603 0 
L 603 4863 
z
" transform="scale(0.015625)"/>
       <path id="DejaVuSans-47" d="M 3809 666 
L 3809 1919 
L 2778 1919 
L 2778 2438 
L 4434 2438 
L 4434 434 
Q 4069 175 3628 42 
Q 3188 -91 2688 -91 
Q 1594 -91 976 548 
Q 359 1188 359 2328 
Q 359 3472 976 4111 
Q 1594 4750 2688 4750 
Q 3144 4750 3555 4637 
Q 3966 4525 4313 4306 
L 4313 3634 
Q 3963 3931 3569 4081 
Q 3175 4231 2741 4231 
Q 1884 4231 1454 3753 
Q 1025 3275 1025 2328 
Q 1025 1384 1454 906 
Q 1884 428 2741 428 
Q 3075 428 3337 486 
Q 3600 544 3809 666 
z
" transform="scale(0.015625)"/>
       <path id="DejaVuSans-67" d="M 2906 1791 
Q 2906 2416 2648 2759 
Q 2391 3103 1925 3103 
Q 1463 3103 1205 2759 
Q 947 2416 947 1791 
Q 947 1169 1205 825 
Q 1463 481 1925 481 
Q 2391 481 2648 825 
Q 2906 1169 2906 1791 
z
M 3481 434 
Q 3481 -459 3084 -895 
Q 2688 -1331 1869 -1331 
Q 1566 -1331 1297 -1286 
Q 1028 -1241 775 -1147 
L 775 -588 
Q 1028 -725 1275 -790 
Q 1522 -856 1778 -856 
Q 2344 -856 2625 -561 
Q 2906 -266 2906 331 
L 2906 616 
Q 2728 306 2450 153 
Q 2172 0 1784 0 
Q 1141 0 747 490 
Q 353 981 353 1791 
Q 353 2603 747 3093 
Q 1141 3584 1784 3584 
Q 2172 3584 2450 3431 
Q 2728 3278 2906 2969 
L 2906 3500 
L 3481 3500 
L 3481 434 
z
" transform="scale(0.015625)"/>
       <path id="DejaVuSans-69" d="M 603 3500 
L 1178 3500 
L 1178 0 
L 603 0 
L 603 3500 
z
M 603 4863 
L 1178 4863 
L 1178 4134 
L 603 4134 
L 603 4863 
z
" transform="scale(0.015625)"/>
      </defs>
      <use xlink:href="#DejaVuSans-49"/>
      <use xlink:href="#DejaVuSans-50" x="29.492188"/>
      <use xlink:href="#DejaVuSans-76" x="89.794922"/>
      <use xlink:href="#DejaVuSans-36" x="148.974609"/>
      <use xlink:href="#DejaVuSans-20" x="212.597656"/>
      <use xlink:href="#DejaVuSans-61" x="244.384766"/>
      <use xlink:href="#DejaVuSans-73" x="305.664062"/>
      <use xlink:href="#DejaVuSans-20" x="357.763672"/>
      <use xlink:href="#DejaVuSans-25" x="389.550781"/>
      <use xlink:href="#DejaVuSans-20" x="484.570312"/>
      <use xlink:href="#DejaVuSans-6f" x="516.357422"/>
      <use xlink:href="#DejaVuSans-66" x="577.539062"/>
      <use xlink:href="#DejaVuSans-20" x="612.744141"/>
      <use xlink:href="#DejaVuSans-74" x="644.53125"/>
      <use xlink:href="#DejaVuSans-6f" x="683.740234"/>
      <use xlink:href="#DejaVuSans-74" x="744.921875"/>
      <use xlink:href="#DejaVuSans-61" x="784.130859"/>
      <use xlink:href="#DejaVuSans-6c" x="845.410156"/>
      <use xlink:href="#DejaVuSans-20" x="873.193359"/>
      <use xlink:href="#DejaVuSans-47" x="904.980469"/>
      <use xlink:href="#DejaVuSans-6f" x="982.470703"/>
      <use xlink:href="#DejaVuSans-6f" x="1043.652344"/>
      <use xlink:href="#DejaVuSans-67" x="1104.833984"/>
      <use xlink:href="#DejaVuSans-6c" x="1168.310547"/>
      <use xlink:href="#DejaVuSans-65" x="1196.09375"/>
      <use xlink:href="#DejaVuSans-20" x="1257.617188"/>
      <use xlink:href="#DejaVuSans-74" x="1289.404297"/>
      <use xlink:href="#DejaVuSans-72" x="1328.613281"/>
      <use xlink:href="#DejaVuSans-61" x="1369.726562"/>
      <use xlink:href="#DejaVuSans-66" x="1431.005859"/>
      <use xlink:href="#DejaVuSans-66" x="1466.210938"/>
      <use xlink:href="#DejaVuSans-69" x="1501.416016"/>
      <use xlink:href="#DejaVuSans-63" x="1529.199219"/>
     </g>
    </g>
   </g>
   <g id="line2d_15">
    <path d="M 73.832727 294.503197 
L 75.501902 294.336287 
L 75.919196 294.495224 
L 77.588371 294.494527 
L 79.257546 294.349649 
L 79.67484 294.221534 
L 80.926721 294.242787 
L 82.178602 294.211912 
L 82.595896 294.284046 
L 84.265071 294.136649 
L 85.934246 294.194172 
L 87.603421 294.11786 
L 90.941771 294.184026 
L 91.359065 294.288013 
L 93.445534 294.262749 
L 94.697415 294.213118 
L 96.36659 294.116098 
L 97.201178 294.124957 
L 97.618472 293.861807 
L 100.122234 293.771539 
L 100.956822 293.736902 
L 103.04329 293.820678 
L 105.129759 293.871704 
L 107.216228 293.838591 
L 108.468109 294.030295 
L 109.719991 293.977312 
L 110.137284 293.963545 
L 110.971872 294.149919 
L 113.058341 294.166951 
L 114.310222 294.284008 
L 116.396691 294.196307 
L 117.231278 294.090088 
L 117.648572 294.002533 
L 118.48316 293.99822 
L 121.404216 293.9346 
L 122.238803 294.026279 
L 122.656097 293.897141 
L 125.15986 294.136671 
L 128.49821 293.964113 
L 128.915504 293.969886 
L 129.332797 293.84697 
L 130.167385 293.949783 
L 131.001972 293.758945 
L 131.419266 293.806387 
L 131.83656 293.689228 
L 132.253854 293.740524 
L 133.088441 293.631505 
L 134.340323 293.615986 
L 134.757616 293.750496 
L 136.426791 293.780879 
L 137.261379 293.795322 
L 137.678673 293.757123 
L 138.095966 293.579646 
L 139.765141 293.482454 
L 140.182435 293.579268 
L 143.938079 293.25946 
L 144.772667 293.061848 
L 145.607254 293.211126 
L 148.111017 292.821719 
L 150.197485 292.682036 
L 150.614779 292.475322 
L 151.032073 292.554979 
L 151.449367 292.371995 
L 153.953129 291.99322 
L 156.039598 291.50714 
L 157.291479 291.382181 
L 157.708773 291.484254 
L 159.795242 291.100328 
L 161.047123 290.720986 
L 161.464417 290.778379 
L 161.881711 290.437836 
L 162.299004 290.273565 
L 163.968179 290.075494 
L 164.385473 290.235225 
L 165.220061 290.042311 
L 165.637355 289.994458 
L 166.054648 289.746059 
L 166.889236 289.580311 
L 168.558411 289.563047 
L 169.392998 289.351306 
L 170.64488 289.195288 
L 171.062173 288.991299 
L 171.479467 288.971623 
L 171.896761 289.077102 
L 173.565936 288.314499 
L 173.98323 288.331969 
L 175.652405 287.852434 
L 176.069699 287.531069 
L 176.486992 287.457336 
L 176.904286 287.25846 
L 177.32158 287.290848 
L 178.573461 286.802487 
L 178.990755 286.888842 
L 179.408049 286.648464 
L 179.825342 286.606216 
L 181.911811 285.476919 
L 182.746399 285.133117 
L 183.580986 284.530991 
L 184.832867 283.042854 
L 185.250161 283.279881 
L 185.667455 283.320885 
L 186.919336 281.907093 
L 187.33663 281.737567 
L 187.753924 281.022952 
L 188.588511 280.800033 
L 189.423099 280.324374 
L 189.840393 280.373946 
L 191.092274 279.593581 
L 191.509568 279.427834 
L 191.926861 279.121312 
L 192.761449 279.048681 
L 193.178743 278.354298 
L 193.596036 278.345147 
L 194.01333 277.581722 
L 194.430624 277.186348 
L 195.265211 277.299826 
L 195.682505 277.017174 
L 196.099799 276.581774 
L 196.934387 276.074932 
L 197.35168 275.621829 
L 197.768974 275.899628 
L 199.438149 275.010628 
L 199.855443 274.681917 
L 200.272737 273.331123 
L 200.69003 273.58736 
L 201.524618 272.670107 
L 201.941912 272.630724 
L 202.359205 273.02726 
L 203.611087 272.124979 
L 204.02838 271.512864 
L 204.862968 271.560058 
L 205.280262 270.897733 
L 205.697556 270.852145 
L 206.114849 267.343296 
L 206.532143 269.651937 
L 206.949437 271.027233 
L 207.366731 270.358963 
L 207.784024 269.985518 
L 208.201318 269.925336 
L 208.618612 269.046422 
L 209.035906 268.771023 
L 210.287787 266.863367 
L 210.705081 265.617781 
L 211.122374 264.906836 
L 211.539668 263.941622 
L 211.956962 263.304351 
L 212.374256 264.322099 
L 212.791549 264.166346 
L 213.208843 264.194524 
L 213.626137 264.358936 
L 214.043431 264.665934 
L 214.460724 264.548807 
L 214.878018 262.304305 
L 215.295312 262.636297 
L 216.547193 261.45359 
L 216.964487 261.294405 
L 217.799075 261.364392 
L 218.216368 259.667742 
L 218.633662 259.605949 
L 219.46825 258.266992 
L 219.885543 258.723495 
L 220.302837 256.633648 
L 220.720131 257.127614 
L 221.137425 255.716843 
L 221.554718 255.041292 
L 221.972012 254.026928 
L 222.389306 254.731343 
L 222.8066 253.664293 
L 223.223893 251.889126 
L 223.641187 252.783645 
L 224.058481 253.038649 
L 224.475775 252.487625 
L 224.893068 250.864475 
L 225.310362 251.315356 
L 225.727656 249.882277 
L 226.14495 250.212399 
L 226.979537 248.27956 
L 227.396831 247.300432 
L 228.648712 246.993023 
L 229.066006 245.862435 
L 229.4833 246.000015 
L 229.900594 245.575896 
L 230.317887 244.455355 
L 230.735181 244.170957 
L 231.152475 242.918036 
L 231.569769 242.059116 
L 231.987062 241.907742 
L 232.404356 242.119158 
L 232.82165 241.572636 
L 233.238944 239.244477 
L 234.073531 240.610097 
L 234.490825 240.347769 
L 235.325412 240.26916 
L 235.742706 240.315413 
L 236.577294 240.034511 
L 236.994588 238.724608 
L 237.411881 238.662599 
L 237.829175 237.500914 
L 238.246469 237.497649 
L 238.663763 237.321177 
L 239.915644 233.998658 
L 240.332938 232.041733 
L 240.750231 233.378117 
L 241.167525 232.817984 
L 241.584819 231.660202 
L 242.002113 231.917914 
L 242.419406 229.446072 
L 242.8367 229.808722 
L 243.253994 229.505633 
L 243.671288 227.780869 
L 244.088581 227.764545 
L 244.505875 226.478922 
L 244.923169 226.788477 
L 245.340463 225.771615 
L 245.757756 225.231428 
L 246.17505 225.518411 
L 246.592344 224.82213 
L 247.009638 223.735892 
L 247.426932 224.083132 
L 247.844225 223.567961 
L 248.261519 221.858559 
L 248.678813 221.143712 
L 249.096107 221.21058 
L 249.5134 219.211597 
L 249.930694 219.56708 
L 250.765282 217.186192 
L 251.182575 214.810358 
L 251.599869 215.045179 
L 252.434457 213.709233 
L 252.85175 212.21234 
L 253.269044 212.412454 
L 253.686338 211.785123 
L 254.103632 209.418305 
L 254.520925 208.587898 
L 254.938219 204.663821 
L 255.355513 207.215115 
L 255.772807 206.752554 
L 256.1901 207.360988 
L 256.607394 206.646513 
L 257.441982 207.806879 
L 257.859276 207.575555 
L 258.276569 206.558385 
L 258.693863 206.864292 
L 259.528451 205.568793 
L 259.945744 204.495328 
L 260.363038 204.325088 
L 260.780332 203.599441 
L 261.197626 200.990018 
L 261.614919 201.808847 
L 262.032213 198.309624 
L 262.449507 198.580493 
L 262.866801 196.678448 
L 263.284094 195.506092 
L 263.701388 194.800223 
L 264.118682 194.313343 
L 264.535976 193.349901 
L 264.953269 191.585334 
L 265.370563 188.676058 
L 265.787857 189.410716 
L 267.457032 186.097267 
L 267.874326 185.552334 
L 268.29162 185.572961 
L 268.708913 185.873186 
L 269.126207 184.842265 
L 269.543501 183.397425 
L 269.960795 184.691804 
L 270.378088 184.716787 
L 270.795382 185.869932 
L 271.212676 184.607952 
L 271.62997 182.645908 
L 272.047263 182.897318 
L 272.464557 182.050268 
L 273.716438 180.703204 
L 274.551026 179.713741 
L 274.96832 179.60656 
L 275.385613 193.953417 
L 275.802907 177.785221 
L 276.220201 177.009191 
L 276.637495 173.088465 
L 277.054789 176.725982 
L 277.889376 176.19447 
L 278.30667 176.191897 
L 278.723964 175.705115 
L 279.141257 175.465223 
L 279.558551 176.797856 
L 279.975845 177.642694 
L 280.393139 177.437316 
L 280.810432 176.292744 
L 281.227726 176.374931 
L 282.479607 175.412473 
L 282.896901 172.84113 
L 283.314195 173.856046 
L 283.731489 171.132783 
L 284.148782 172.281079 
L 284.566076 169.995264 
L 284.98337 168.568018 
L 285.400664 169.40956 
L 285.817957 167.659273 
L 286.235251 166.497106 
L 286.652545 166.249988 
L 287.069839 167.2001 
L 287.487133 167.701282 
L 288.739014 165.134431 
L 289.156308 165.724736 
L 289.573601 166.575434 
L 289.990895 166.740392 
L 290.408189 164.793537 
L 290.825483 164.068387 
L 291.242776 162.657097 
L 291.66007 162.309376 
L 292.077364 162.111726 
L 292.494658 162.259415 
L 292.911951 162.073257 
L 293.746539 160.134623 
L 294.163833 161.265655 
L 294.581126 157.682791 
L 294.99842 157.774945 
L 295.415714 157.338037 
L 295.833008 154.724885 
L 296.250301 153.940828 
L 296.667595 153.469564 
L 297.084889 153.472996 
L 297.502183 152.05629 
L 297.919477 151.959714 
L 298.754064 149.719747 
L 299.171358 151.198251 
L 299.588652 152.150563 
L 300.423239 149.882694 
L 300.840533 150.995002 
L 301.257827 150.791624 
L 301.67512 151.275796 
L 302.092414 149.563983 
L 302.509708 148.966711 
L 302.927002 150.260901 
L 303.344295 148.40313 
L 303.761589 148.551775 
L 304.178883 148.021848 
L 305.01347 147.816415 
L 305.430764 144.146731 
L 305.848058 144.039836 
L 306.265352 144.329456 
L 306.682645 145.217067 
L 307.517233 140.934636 
L 307.934527 139.045477 
L 308.351821 138.565975 
L 308.769114 138.730674 
L 309.186408 138.385882 
L 309.603702 136.509301 
L 310.020996 138.056831 
L 310.438289 136.409157 
L 310.855583 137.938152 
L 311.272877 136.842076 
L 311.690171 136.178601 
L 312.107464 136.123272 
L 312.524758 136.198022 
L 312.942052 134.769213 
L 313.359346 134.931555 
L 313.776639 136.477939 
L 314.193933 135.953963 
L 314.611227 136.588272 
L 315.028521 136.847525 
L 315.445814 134.865741 
L 315.863108 136.052642 
L 316.280402 136.37158 
L 316.697696 135.635041 
L 317.114989 135.185014 
L 317.532283 133.409798 
L 317.949577 133.78447 
L 318.366871 133.398101 
L 318.784165 133.526233 
L 319.201458 132.493912 
L 319.618752 132.042334 
L 320.036046 130.735679 
L 320.45334 130.164547 
L 320.870633 130.971976 
L 321.287927 131.212046 
L 321.705221 131.266055 
L 322.539808 129.407884 
L 322.957102 129.853344 
L 323.374396 128.498355 
L 323.79169 129.0848 
L 324.208983 128.831369 
L 324.626277 127.894154 
L 325.043571 128.123191 
L 325.460865 128.767013 
L 325.878158 128.473507 
L 326.295452 128.488847 
L 326.712746 126.054328 
L 327.547333 124.321035 
L 327.964627 124.607217 
L 328.381921 124.001265 
L 328.799215 121.984508 
L 329.216509 122.636898 
L 329.633802 119.742865 
L 330.051096 122.058939 
L 330.46839 120.141618 
L 330.885684 117.520666 
L 331.302977 118.287371 
L 331.720271 116.650849 
L 332.137565 115.546557 
L 332.554859 115.652197 
L 332.972152 114.82372 
L 333.389446 116.900643 
L 333.80674 115.170377 
L 334.224034 115.819161 
L 334.641327 116.199811 
L 335.893209 113.545108 
L 336.310502 115.755352 
L 336.727796 115.799637 
L 337.14509 114.822564 
L 337.562384 115.37622 
L 337.979677 116.718572 
L 338.396971 115.674581 
L 338.814265 113.245472 
L 339.231559 117.278077 
L 339.648853 116.191795 
L 340.066146 114.619477 
L 340.48344 115.938455 
L 340.900734 116.033756 
L 341.318028 113.87983 
L 341.735321 112.807159 
L 342.152615 110.840704 
L 342.569909 111.799659 
L 342.987203 111.073141 
L 343.404496 111.297222 
L 343.82179 111.912813 
L 344.239084 110.340878 
L 344.656378 109.69638 
L 345.073671 110.861725 
L 345.490965 110.571272 
L 345.908259 108.049572 
L 346.325553 107.494877 
L 346.742846 105.77867 
L 347.16014 108.596915 
L 347.577434 109.53159 
L 347.994728 108.612742 
L 348.412022 108.437022 
L 348.829315 108.581126 
L 349.246609 103.610458 
L 349.663903 106.933377 
L 350.081197 105.018586 
L 350.915784 105.987216 
L 351.333078 101.279466 
L 351.750372 100.677805 
L 352.167665 98.784062 
L 352.584959 98.708691 
L 353.002253 100.421633 
L 353.419547 98.059431 
L 353.83684 97.595096 
L 354.254134 96.375212 
L 354.671428 95.93405 
L 355.088722 94.548046 
L 355.506015 94.755268 
L 355.923309 98.115603 
L 356.340603 96.303517 
L 356.757897 95.156145 
L 357.17519 97.338292 
L 357.592484 96.131564 
L 358.009778 95.70678 
L 358.427072 93.964552 
L 359.261659 96.737414 
L 359.678953 96.432887 
L 360.096247 96.867627 
L 360.513541 96.729885 
L 360.930834 95.167707 
L 361.348128 96.973944 
L 361.765422 94.803867 
L 362.182716 94.036437 
L 362.600009 93.956033 
L 363.434597 91.254391 
L 363.851891 88.239767 
L 364.269184 90.295728 
L 364.686478 94.13577 
L 365.103772 89.810302 
L 365.521066 89.607107 
L 365.938359 92.509734 
L 366.772947 88.646406 
L 367.190241 88.594764 
L 367.607534 89.410339 
L 368.024828 89.377058 
L 368.442122 90.001611 
L 368.859416 82.659319 
L 369.27671 81.8755 
L 369.694003 82.094376 
L 370.111297 80.593802 
L 370.528591 80.101625 
L 370.945885 77.491791 
L 371.363178 80.807953 
L 371.780472 82.100971 
L 372.197766 79.264061 
L 372.61506 81.133427 
L 373.032353 77.95445 
L 373.449647 76.335835 
L 373.866941 72.409093 
L 374.284235 73.46571 
L 374.701528 67.647663 
L 375.536116 71.725953 
L 375.95341 73.588313 
L 376.370703 71.892084 
L 376.787997 72.222968 
L 377.205291 72.934583 
L 377.622585 72.7897 
L 378.039878 74.857714 
L 378.457172 73.893705 
L 378.874466 72.382434 
L 379.29176 72.731015 
L 379.709054 71.18222 
L 380.126347 71.575724 
L 380.543641 69.681543 
L 380.960935 71.018689 
L 381.378229 74.626596 
L 381.795522 72.198671 
L 382.212816 68.517825 
L 382.63011 71.568276 
L 383.047404 69.796243 
L 383.464697 71.636739 
L 383.881991 69.974779 
L 384.299285 69.951147 
L 385.551166 63.552779 
L 385.96846 66.41952 
L 386.385754 66.200314 
L 386.803047 64.765355 
L 387.220341 65.188285 
L 387.637635 67.633674 
L 388.472222 65.520979 
L 388.889516 67.069396 
L 389.30681 66.198255 
L 389.724104 64.510247 
L 390.141398 64.543073 
L 390.975985 61.742169 
L 391.393279 62.964171 
L 391.810573 62.94435 
L 392.227866 60.284296 
L 392.64516 61.654598 
L 393.479748 61.424771 
L 393.897041 59.947337 
L 394.314335 61.634479 
L 394.731629 61.684132 
L 395.148923 58.714729 
L 395.566216 58.678362 
L 395.98351 57.273272 
L 396.400804 53.568 
L 396.818098 55.160432 
L 397.652685 54.286599 
L 398.069979 54.129592 
L 398.487273 72.812721 
L 398.487273 72.812721 
" clip-path="url(#p5a0070cbac)" style="fill: none; stroke: #1f77b4; stroke-width: 1.5; stroke-linecap: square"/>
   </g>
   <g id="line2d_16">
    <path d="M 73.832727 294.761504 
L 75.501902 294.624178 
L 75.919196 294.73911 
L 85.099659 294.487143 
L 85.934246 294.478414 
L 88.020715 294.412875 
L 90.107184 294.479976 
L 91.776359 294.476949 
L 97.618472 294.395356 
L 98.035765 294.201853 
L 113.892928 294.364784 
L 115.979397 294.426015 
L 121.404216 294.142768 
L 126.411741 294.321007 
L 132.253854 293.874904 
L 133.088441 293.818462 
L 133.923029 293.756048 
L 134.757616 293.853153 
L 135.592204 293.865915 
L 136.426791 293.916957 
L 137.678673 293.951454 
L 138.51326 293.650601 
L 139.347848 293.689055 
L 139.765141 293.76849 
L 141.434316 293.667315 
L 141.85161 293.721648 
L 142.268904 293.589257 
L 144.355373 293.54208 
L 145.18996 293.373403 
L 148.111017 293.278697 
L 150.197485 293.008087 
L 150.614779 293.12789 
L 151.86666 292.805665 
L 153.535835 292.543618 
L 154.370423 292.55099 
L 155.622304 292.141773 
L 157.291479 291.854672 
L 157.708773 291.978788 
L 159.377948 291.850807 
L 165.220061 290.797341 
L 165.637355 290.843605 
L 166.471942 290.57926 
L 167.30653 290.474144 
L 167.723823 290.232506 
L 168.975705 290.507532 
L 169.810292 290.317742 
L 170.227586 290.261954 
L 170.64488 290.027154 
L 171.062173 290.044738 
L 171.479467 289.870807 
L 172.731348 289.781933 
L 173.148642 289.533918 
L 174.400523 289.283129 
L 174.817817 289.285837 
L 175.235111 289.126966 
L 175.652405 289.11082 
L 177.32158 288.618183 
L 178.156167 288.381422 
L 178.573461 288.130628 
L 178.990755 288.272922 
L 180.242636 287.77228 
L 181.077224 287.354987 
L 181.494517 287.038784 
L 182.329105 286.819124 
L 182.746399 286.920052 
L 183.580986 286.765731 
L 184.832867 285.584884 
L 185.250161 285.301226 
L 185.667455 285.379208 
L 186.084749 285.227023 
L 187.33663 284.340369 
L 187.753924 284.19034 
L 188.588511 283.474054 
L 189.005805 283.375911 
L 189.423099 282.02409 
L 189.840393 282.150303 
L 190.257686 283.050849 
L 190.67498 282.953056 
L 191.509568 282.262041 
L 191.926861 282.88648 
L 192.344155 282.077948 
L 192.761449 282.028219 
L 193.178743 281.776907 
L 193.596036 281.189105 
L 194.01333 281.218974 
L 194.847918 280.318683 
L 195.265211 280.345833 
L 195.682505 280.144681 
L 196.099799 279.414418 
L 196.517093 279.661001 
L 196.934387 279.108269 
L 197.35168 279.27407 
L 197.768974 279.074535 
L 198.186268 279.155965 
L 198.603562 278.533175 
L 199.020855 278.55718 
L 199.438149 277.921806 
L 199.855443 278.032192 
L 200.69003 276.691149 
L 201.107324 276.425767 
L 201.524618 276.341369 
L 201.941912 276.033576 
L 202.359205 276.003069 
L 202.776499 276.120887 
L 203.193793 276.098542 
L 204.445674 275.658531 
L 204.862968 275.801793 
L 205.697556 275.43158 
L 206.114849 274.793314 
L 206.532143 273.360674 
L 206.949437 274.430069 
L 207.366731 274.78212 
L 207.784024 274.412534 
L 208.201318 274.626918 
L 208.618612 274.092077 
L 209.453199 273.400521 
L 209.870493 272.714938 
L 210.287787 272.284975 
L 210.705081 271.384241 
L 211.122374 268.718424 
L 211.539668 267.010925 
L 211.956962 269.540426 
L 212.374256 270.207475 
L 212.791549 270.22582 
L 213.208843 270.49243 
L 213.626137 270.47323 
L 214.043431 270.830043 
L 214.460724 270.093699 
L 214.878018 270.223177 
L 215.295312 268.847918 
L 215.712606 268.427664 
L 216.1299 268.666593 
L 216.964487 267.295183 
L 217.381781 267.666374 
L 217.799075 267.630586 
L 218.216368 267.188629 
L 218.633662 266.547164 
L 219.050956 266.21341 
L 219.46825 266.260717 
L 220.302837 264.272338 
L 220.720131 263.687498 
L 221.137425 263.373208 
L 221.554718 262.227631 
L 221.972012 261.830857 
L 223.223893 259.520864 
L 223.641187 259.913044 
L 224.475775 259.527324 
L 225.310362 258.786747 
L 225.727656 259.108701 
L 226.562244 258.700436 
L 227.396831 257.678915 
L 228.648712 257.15676 
L 229.066006 257.160181 
L 229.4833 256.08918 
L 229.900594 255.981302 
L 230.317887 256.010652 
L 230.735181 255.462141 
L 231.987062 252.746348 
L 232.404356 252.234079 
L 232.82165 249.762048 
L 233.238944 246.274349 
L 233.656237 251.44918 
L 234.073531 252.576806 
L 234.490825 252.26196 
L 234.908119 251.706757 
L 235.325412 251.782312 
L 235.742706 252.068251 
L 236.577294 250.900101 
L 237.411881 250.367087 
L 237.829175 249.935979 
L 238.246469 248.70496 
L 238.663763 248.419394 
L 239.081056 248.349606 
L 239.915644 247.260314 
L 240.332938 245.965497 
L 240.750231 245.158538 
L 241.167525 245.667104 
L 242.002113 244.076619 
L 242.419406 242.613476 
L 242.8367 242.187902 
L 243.253994 241.979767 
L 244.088581 239.633413 
L 244.505875 237.806101 
L 244.923169 238.606325 
L 245.340463 238.455485 
L 245.757756 237.536021 
L 246.17505 236.915447 
L 246.592344 236.756564 
L 247.009638 236.868913 
L 247.426932 238.136995 
L 247.844225 237.4868 
L 248.261519 237.777777 
L 248.678813 237.087491 
L 249.096107 237.162527 
L 249.5134 236.386135 
L 250.347988 234.214631 
L 250.765282 234.432745 
L 251.599869 231.361441 
L 252.017163 232.089202 
L 252.434457 231.523605 
L 252.85175 230.185075 
L 253.269044 230.085694 
L 253.686338 229.187338 
L 254.103632 228.675842 
L 254.520925 225.108064 
L 254.938219 216.875821 
L 255.355513 222.802082 
L 255.772807 225.962 
L 256.1901 226.295803 
L 257.024688 225.947941 
L 257.441982 226.044501 
L 257.859276 226.000269 
L 258.276569 225.016709 
L 258.693863 224.771234 
L 259.111157 225.077616 
L 259.945744 223.92692 
L 260.780332 221.860856 
L 261.197626 219.597917 
L 261.614919 220.359185 
L 262.032213 220.246447 
L 262.449507 216.142352 
L 262.866801 217.042455 
L 263.701388 214.304154 
L 264.118682 211.669434 
L 264.535976 211.57448 
L 264.953269 211.213661 
L 265.787857 206.624265 
L 266.205151 206.31978 
L 266.622444 205.642143 
L 267.039738 205.31121 
L 267.874326 202.692036 
L 268.29162 202.467517 
L 268.708913 202.389957 
L 269.126207 203.538281 
L 269.543501 203.670537 
L 269.960795 204.644762 
L 270.378088 205.324318 
L 271.212676 205.865894 
L 271.62997 203.54301 
L 272.047263 202.95716 
L 272.464557 203.463785 
L 272.881851 202.42961 
L 273.299145 200.526748 
L 273.716438 202.182978 
L 274.133732 202.839525 
L 274.551026 200.879972 
L 274.96832 200.638946 
L 275.385613 199.5354 
L 275.802907 193.953417 
L 276.220201 196.188578 
L 276.637495 186.957154 
L 277.472082 197.918504 
L 277.889376 196.496187 
L 278.30667 197.99054 
L 278.723964 197.435824 
L 279.141257 197.343675 
L 279.558551 195.896429 
L 279.975845 198.339494 
L 280.393139 199.01605 
L 280.810432 198.382622 
L 281.227726 196.995137 
L 281.64502 196.522122 
L 282.062314 195.439072 
L 282.479607 195.363642 
L 282.896901 197.28073 
L 283.314195 196.184973 
L 283.731489 194.626768 
L 284.148782 192.436837 
L 284.566076 192.228621 
L 284.98337 191.323016 
L 285.400664 191.43364 
L 285.817957 189.102383 
L 286.235251 189.048606 
L 286.652545 187.444142 
L 287.069839 187.188722 
L 287.487133 186.699107 
L 287.904426 185.166111 
L 288.739014 185.178781 
L 289.573601 184.558494 
L 289.990895 185.480515 
L 290.408189 183.917434 
L 290.825483 183.085292 
L 291.242776 186.064917 
L 291.66007 186.213016 
L 292.077364 186.072035 
L 292.494658 186.162017 
L 292.911951 186.086905 
L 293.329245 184.594985 
L 293.746539 184.95076 
L 294.163833 185.553286 
L 294.581126 184.888286 
L 294.99842 181.835836 
L 295.415714 182.67241 
L 295.833008 182.255236 
L 296.250301 179.010342 
L 296.667595 180.597941 
L 297.919477 176.364358 
L 298.33677 163.12821 
L 298.754064 168.205238 
L 299.171358 175.841138 
L 299.588652 177.242585 
L 300.423239 175.888753 
L 300.840533 174.56104 
L 301.257827 175.55367 
L 301.67512 175.272006 
L 302.092414 176.316646 
L 302.509708 173.95833 
L 302.927002 176.041344 
L 303.761589 173.878364 
L 304.178883 173.847987 
L 304.596177 174.494204 
L 305.01347 171.790907 
L 305.430764 171.33381 
L 305.848058 169.070476 
L 306.265352 171.149047 
L 306.682645 172.47102 
L 307.099939 169.93225 
L 307.934527 162.852179 
L 308.351821 164.399525 
L 308.769114 163.124853 
L 309.186408 162.428708 
L 309.603702 160.775316 
L 310.020996 161.462796 
L 310.438289 161.654986 
L 310.855583 161.482234 
L 311.272877 160.932496 
L 311.690171 160.055733 
L 312.107464 157.608652 
L 312.524758 160.700507 
L 312.942052 161.575826 
L 313.359346 161.740498 
L 313.776639 163.131756 
L 314.193933 163.903845 
L 315.028521 163.617187 
L 315.445814 164.153606 
L 315.863108 163.844128 
L 316.280402 164.545813 
L 317.114989 161.714639 
L 317.532283 163.496595 
L 317.949577 162.891221 
L 318.366871 161.384474 
L 318.784165 161.550924 
L 319.201458 160.825255 
L 319.618752 158.565824 
L 320.036046 146.074625 
L 320.45334 145.742076 
L 320.870633 157.968676 
L 321.287927 159.683034 
L 321.705221 160.03402 
L 322.122515 158.854054 
L 322.539808 157.26039 
L 323.374396 155.474628 
L 323.79169 155.424057 
L 324.208983 156.016529 
L 324.626277 155.592101 
L 325.043571 146.058166 
L 325.460865 141.897126 
L 325.878158 140.276771 
L 326.295452 141.484882 
L 327.547333 137.251477 
L 327.964627 137.548621 
L 328.381921 139.790713 
L 328.799215 137.73613 
L 329.216509 136.951998 
L 329.633802 138.786489 
L 330.051096 139.795064 
L 330.885684 136.62359 
L 331.302977 133.604188 
L 331.720271 133.375793 
L 332.137565 131.737055 
L 332.554859 133.152518 
L 332.972152 132.957922 
L 333.389446 134.076473 
L 333.80674 133.004673 
L 334.224034 133.013607 
L 334.641327 133.958001 
L 335.058621 135.628014 
L 335.475915 134.830012 
L 335.893209 136.746192 
L 336.727796 136.881432 
L 337.14509 137.620998 
L 337.562384 136.27342 
L 337.979677 136.463626 
L 338.396971 135.397976 
L 338.814265 133.469207 
L 339.231559 135.668791 
L 339.648853 136.111446 
L 340.066146 135.896278 
L 340.48344 138.368185 
L 340.900734 136.297576 
L 341.735321 127.926466 
L 342.152615 121.267904 
L 342.987203 131.229786 
L 343.404496 130.492496 
L 343.82179 131.412187 
L 344.239084 130.272825 
L 345.073671 129.297255 
L 345.490965 129.442024 
L 345.908259 131.100508 
L 346.325553 130.690156 
L 346.742846 130.48288 
L 347.16014 128.534025 
L 347.577434 131.727174 
L 348.412022 128.720388 
L 348.829315 130.987392 
L 349.246609 129.670521 
L 349.663903 126.243815 
L 350.081197 126.580483 
L 350.49849 124.542511 
L 350.915784 123.348335 
L 351.333078 125.223251 
L 351.750372 125.602323 
L 352.584959 118.104635 
L 353.002253 117.97699 
L 353.419547 117.606069 
L 353.83684 116.846682 
L 354.254134 114.089765 
L 354.671428 115.544243 
L 355.088722 114.168223 
L 355.506015 114.273626 
L 355.923309 115.520401 
L 356.340603 118.57058 
L 356.757897 119.277839 
L 357.17519 119.328622 
L 357.592484 120.85873 
L 358.009778 118.636222 
L 358.844366 119.824112 
L 359.261659 120.101159 
L 359.678953 119.874089 
L 360.096247 119.425792 
L 360.513541 121.83609 
L 360.930834 120.727096 
L 361.348128 121.257412 
L 361.765422 119.681537 
L 362.182716 120.773646 
L 363.017303 118.085792 
L 363.434597 112.728355 
L 363.851891 100.183509 
L 364.686478 112.723577 
L 365.103772 113.067914 
L 365.521066 114.825877 
L 365.938359 113.162155 
L 366.355653 115.966141 
L 366.772947 114.975506 
L 367.190241 111.492196 
L 367.607534 113.399674 
L 368.024828 113.393139 
L 368.442122 115.73112 
L 368.859416 111.764962 
L 369.27671 105.052423 
L 369.694003 105.211273 
L 370.111297 115.782638 
L 370.528591 103.915099 
L 371.363178 100.398071 
L 371.780472 104.145975 
L 372.197766 103.965103 
L 372.61506 102.600504 
L 373.032353 99.461943 
L 373.449647 100.113451 
L 374.284235 92.386018 
L 374.701528 93.166426 
L 375.118822 92.939366 
L 375.536116 90.453005 
L 375.95341 90.360445 
L 376.370703 91.284255 
L 376.787997 90.010832 
L 377.205291 90.863941 
L 377.622585 90.967414 
L 378.039878 94.35584 
L 378.457172 95.20076 
L 379.29176 98.251075 
L 379.709054 96.155931 
L 380.126347 97.310449 
L 380.543641 97.444138 
L 380.960935 94.548635 
L 381.378229 97.800437 
L 381.795522 98.703577 
L 382.212816 95.558751 
L 382.63011 94.708091 
L 383.047404 97.034715 
L 383.464697 93.457532 
L 383.881991 96.940539 
L 384.299285 97.247905 
L 384.716579 92.810596 
L 385.551166 78.382466 
L 385.96846 85.766498 
L 386.385754 90.797586 
L 386.803047 90.721772 
L 387.220341 91.31599 
L 387.637635 90.155888 
L 388.054929 90.291593 
L 388.472222 91.025894 
L 389.30681 88.669762 
L 389.724104 91.754774 
L 390.558691 84.362867 
L 390.975985 88.141602 
L 391.393279 83.779914 
L 391.810573 86.504182 
L 392.227866 87.173269 
L 392.64516 85.858885 
L 393.062454 82.624482 
L 393.479748 87.523455 
L 393.897041 87.36127 
L 394.314335 83.871192 
L 394.731629 84.4628 
L 395.148923 83.873149 
L 395.566216 79.144653 
L 396.400804 74.485464 
L 396.818098 74.850158 
L 397.235391 74.671968 
L 397.652685 73.519563 
L 398.069979 74.94075 
L 398.487273 72.812721 
L 398.487273 72.812721 
" clip-path="url(#p5a0070cbac)" style="fill: none; stroke: #ff7f0e; stroke-width: 1.5; stroke-linecap: square"/>
   </g>
   <g id="line2d_17">
    <path d="M 73.832727 295.229693 
L 80.092134 295.199548 
L 80.509427 295.267584 
L 81.344015 295.155646 
L 81.761309 295.241417 
L 82.178602 295.141219 
L 82.595896 295.240833 
L 83.847778 295.13936 
L 95.532003 295.203564 
L 95.949297 295.161619 
L 96.36659 295.258146 
L 97.618472 294.954451 
L 98.035765 295.148538 
L 113.475634 295.354165 
L 114.727516 295.35836 
L 118.900453 295.246011 
L 120.152335 295.247865 
L 120.569628 295.314069 
L 121.404216 295.279832 
L 122.238803 295.280529 
L 123.073391 295.290486 
L 123.490685 295.386651 
L 126.829035 295.291443 
L 136.426791 295.351922 
L 136.844085 295.412867 
L 138.095966 295.270994 
L 138.51326 295.366144 
L 139.347848 295.225698 
L 139.765141 295.201964 
L 140.182435 295.333966 
L 140.599729 295.335301 
L 141.017023 295.214672 
L 142.268904 295.376808 
L 142.686198 295.23139 
L 143.938079 295.210861 
L 144.355373 295.066372 
L 145.607254 295.327717 
L 146.441842 295.06527 
L 146.859135 295.152414 
L 147.276429 295.03406 
L 149.362898 295.244336 
L 150.197485 295.161948 
L 150.614779 294.835432 
L 151.032073 295.047346 
L 151.449367 294.948413 
L 152.701248 295.138106 
L 153.118542 294.993077 
L 153.535835 295.041016 
L 154.370423 294.810427 
L 154.787717 294.864577 
L 155.622304 294.780687 
L 156.039598 294.925846 
L 156.874186 294.767163 
L 157.291479 295.015509 
L 161.464417 294.751677 
L 161.881711 294.533607 
L 162.299004 294.478241 
L 163.133592 294.661853 
L 163.968179 294.617183 
L 164.385473 294.882896 
L 166.054648 294.557217 
L 167.30653 294.593779 
L 167.723823 294.870269 
L 168.975705 294.406778 
L 169.810292 294.489776 
L 170.227586 294.42902 
L 170.64488 294.656134 
L 171.062173 294.434561 
L 171.896761 294.715413 
L 173.148642 294.327515 
L 174.400523 294.428215 
L 174.817817 294.212231 
L 175.235111 294.351579 
L 176.069699 294.044127 
L 176.486992 294.197199 
L 176.904286 294.088629 
L 177.32158 294.160665 
L 178.156167 294.111498 
L 178.990755 294.10392 
L 179.408049 293.993955 
L 179.825342 294.114606 
L 181.077224 293.940951 
L 181.494517 294.143157 
L 182.329105 293.987518 
L 182.746399 293.701065 
L 183.163692 293.570403 
L 183.580986 293.25326 
L 184.415574 293.208358 
L 184.832867 292.94597 
L 185.250161 293.466655 
L 185.667455 293.429677 
L 186.084749 293.13096 
L 186.502043 293.076686 
L 186.919336 292.670474 
L 187.33663 292.885198 
L 187.753924 292.320612 
L 188.588511 292.813979 
L 189.005805 292.709608 
L 189.423099 293.788285 
L 189.840393 293.711643 
L 190.257686 292.512689 
L 190.67498 292.381016 
L 191.092274 292.427885 
L 191.509568 292.653793 
L 191.926861 291.722832 
L 192.344155 292.50371 
L 192.761449 292.508462 
L 193.178743 292.065391 
L 193.596036 292.644042 
L 194.01333 291.850748 
L 194.430624 291.969507 
L 194.847918 292.41161 
L 195.265211 292.441993 
L 195.682505 292.360492 
L 196.099799 292.655355 
L 196.517093 292.162848 
L 196.934387 292.454663 
L 197.35168 291.835759 
L 197.768974 292.313093 
L 198.186268 292.03169 
L 198.603562 292.431026 
L 199.020855 292.232744 
L 199.438149 292.576822 
L 200.272737 291.564831 
L 200.69003 292.384211 
L 201.107324 292.251208 
L 201.524618 291.816738 
L 201.941912 292.085148 
L 202.359205 292.512191 
L 202.776499 292.071943 
L 203.611087 291.693833 
L 204.02838 291.1521 
L 204.445674 291.414148 
L 204.862968 291.246265 
L 205.280262 290.780709 
L 205.697556 290.908565 
L 206.114849 288.037981 
L 206.532143 291.779263 
L 206.949437 292.085164 
L 207.366731 291.064843 
L 207.784024 291.060983 
L 208.618612 290.442344 
L 209.035906 290.487041 
L 209.453199 290.198004 
L 209.870493 290.328531 
L 210.705081 289.72154 
L 211.122374 291.676412 
L 211.539668 292.418696 
L 211.956962 289.251925 
L 212.374256 289.602624 
L 213.208843 289.190094 
L 213.626137 289.373706 
L 214.043431 289.323891 
L 214.460724 289.943108 
L 214.878018 287.569128 
L 215.295312 289.276378 
L 215.712606 289.268405 
L 216.1299 288.574633 
L 216.547193 288.934927 
L 216.964487 289.487222 
L 217.381781 289.139095 
L 217.799075 289.221807 
L 218.216368 287.967113 
L 218.633662 288.546785 
L 219.050956 288.134098 
L 219.46825 287.494276 
L 219.885543 288.972791 
L 220.302837 287.84931 
L 220.720131 288.928116 
L 221.137425 287.831635 
L 221.554718 288.301661 
L 221.972012 287.684071 
L 222.389306 289.185791 
L 222.8066 288.860577 
L 223.223893 287.856261 
L 224.058481 288.765158 
L 224.475775 288.448301 
L 224.893068 287.255665 
L 225.310362 288.016609 
L 225.727656 286.261576 
L 226.14495 286.811606 
L 226.562244 285.921579 
L 227.396831 285.109517 
L 228.231419 285.263384 
L 228.648712 285.324264 
L 229.066006 284.190253 
L 229.4833 285.398835 
L 229.900594 285.082594 
L 230.317887 283.932703 
L 230.735181 284.196815 
L 231.152475 283.938 
L 231.569769 284.052316 
L 232.404356 285.373079 
L 232.82165 287.298588 
L 233.238944 288.458128 
L 233.656237 283.949 
L 234.073531 283.521291 
L 234.490825 283.573809 
L 234.908119 284.058062 
L 235.325412 283.974848 
L 235.742706 283.735162 
L 236.577294 284.62241 
L 236.994588 283.519475 
L 237.411881 283.783512 
L 237.829175 283.052935 
L 238.246469 284.280689 
L 238.663763 284.389784 
L 239.081056 283.285389 
L 239.915644 282.226344 
L 240.332938 281.564236 
L 240.750231 283.707579 
L 241.167525 282.63888 
L 241.584819 282.301905 
L 242.002113 283.329296 
L 242.419406 282.320596 
L 242.8367 283.10882 
L 243.253994 283.013866 
L 243.671288 282.539758 
L 244.088581 283.619132 
L 244.505875 284.160822 
L 244.923169 283.670152 
L 245.340463 282.80413 
L 245.757756 283.183408 
L 246.17505 284.090964 
L 246.592344 283.553566 
L 247.426932 281.434137 
L 247.844225 281.56916 
L 248.261519 279.568782 
L 249.096107 279.536053 
L 249.5134 278.313461 
L 249.930694 279.70573 
L 250.347988 279.500216 
L 250.765282 278.241447 
L 251.182575 277.574766 
L 251.599869 279.171738 
L 252.017163 277.765312 
L 252.85175 277.515264 
L 253.686338 278.085786 
L 254.103632 276.230463 
L 254.520925 278.967834 
L 254.938219 283.276 
L 255.772807 276.278554 
L 256.1901 276.553185 
L 256.607394 275.981604 
L 257.024688 276.758283 
L 257.441982 277.250379 
L 257.859276 277.063286 
L 258.276569 277.029676 
L 258.693863 277.581057 
L 259.111157 276.67389 
L 259.528451 276.573471 
L 259.945744 276.056408 
L 260.363038 277.072199 
L 260.780332 277.226585 
L 261.197626 276.880101 
L 261.614919 276.937662 
L 262.032213 273.551177 
L 262.449507 277.926141 
L 262.866801 275.123993 
L 263.284094 275.174224 
L 263.701388 275.984069 
L 264.118682 278.131909 
L 264.535976 277.263422 
L 264.953269 275.859672 
L 265.370563 275.335739 
L 265.787857 278.274451 
L 266.205151 277.728605 
L 266.622444 277.73794 
L 267.039738 276.82126 
L 267.457032 277.769982 
L 267.874326 278.348298 
L 268.29162 278.593444 
L 268.708913 278.971229 
L 269.126207 276.791985 
L 269.543501 275.214888 
L 269.960795 275.535042 
L 270.378088 274.880469 
L 270.795382 275.814798 
L 271.212676 274.230058 
L 271.62997 274.590898 
L 272.047263 275.428158 
L 272.464557 274.074483 
L 272.881851 274.614589 
L 273.299145 276.024765 
L 273.716438 274.008225 
L 274.133732 272.919587 
L 274.551026 274.321769 
L 274.96832 274.455614 
L 275.385613 289.906017 
L 275.802907 279.319804 
L 276.220201 276.308613 
L 276.637495 281.61931 
L 277.054789 280.252717 
L 277.472082 273.996869 
L 277.889376 275.186283 
L 278.30667 273.689357 
L 278.723964 273.757291 
L 279.141257 273.609549 
L 279.558551 276.389427 
L 279.975845 274.791201 
L 280.393139 273.909266 
L 280.810432 273.398121 
L 281.227726 274.867794 
L 281.64502 275.032876 
L 282.062314 275.774258 
L 282.479607 275.536831 
L 282.896901 271.0484 
L 283.314195 273.159073 
L 283.731489 271.994015 
L 284.148782 275.332242 
L 284.566076 273.254644 
L 284.98337 272.733002 
L 285.817957 274.044889 
L 286.235251 272.9365 
L 287.069839 275.499378 
L 287.487133 276.490176 
L 287.904426 277.167538 
L 288.739014 275.44365 
L 289.573601 277.50494 
L 289.990895 276.747878 
L 290.408189 276.364103 
L 290.825483 276.471095 
L 291.242776 272.08018 
L 291.66007 271.58436 
L 292.077364 271.527691 
L 292.494658 271.585398 
L 292.911951 271.474352 
L 293.329245 272.00515 
L 293.746539 270.671863 
L 294.163833 271.200369 
L 294.581126 268.282505 
L 294.99842 271.42711 
L 295.415714 270.153627 
L 295.833008 267.957648 
L 296.250301 270.418486 
L 296.667595 268.359622 
L 297.084889 269.716319 
L 297.502183 269.759626 
L 297.919477 271.083356 
L 298.33677 283.03146 
L 299.171358 270.845113 
L 299.588652 270.395978 
L 300.005945 270.126909 
L 300.423239 269.481941 
L 300.840533 271.921963 
L 301.257827 270.725954 
L 301.67512 271.491789 
L 302.092414 268.735337 
L 302.509708 270.496381 
L 303.344295 269.066437 
L 303.761589 270.161411 
L 304.178883 269.661861 
L 304.596177 268.966429 
L 305.01347 271.513508 
L 305.430764 268.300921 
L 305.848058 270.45736 
L 306.265352 268.668409 
L 306.682645 268.234047 
L 307.099939 268.334953 
L 307.934527 271.681298 
L 308.351821 269.65445 
L 308.769114 271.093821 
L 309.186408 271.445174 
L 309.603702 271.221985 
L 310.020996 272.082034 
L 310.438289 270.242171 
L 310.855583 271.943919 
L 311.272877 271.397581 
L 311.690171 271.610867 
L 312.107464 274.00262 
L 312.942052 268.681387 
L 313.359346 268.679058 
L 313.776639 268.834184 
L 314.193933 267.538118 
L 314.611227 268.301386 
L 315.028521 268.718338 
L 315.445814 266.200134 
L 315.863108 267.696514 
L 316.280402 267.313767 
L 317.114989 268.958375 
L 317.532283 265.401202 
L 318.366871 267.501627 
L 318.784165 267.463309 
L 319.201458 267.156657 
L 319.618752 268.96451 
L 320.036046 280.149054 
L 320.45334 279.910471 
L 320.870633 268.4913 
L 321.287927 267.017012 
L 321.705221 266.720035 
L 322.122515 267.054124 
L 322.539808 267.635494 
L 322.957102 269.094988 
L 323.374396 268.511727 
L 323.79169 269.148744 
L 324.208983 268.30284 
L 324.626277 267.790052 
L 325.043571 277.553026 
L 325.460865 282.357887 
L 325.878158 283.684736 
L 326.712746 281.368938 
L 327.547333 282.557558 
L 327.964627 282.546596 
L 328.381921 279.698552 
L 328.799215 279.736378 
L 329.216509 281.1729 
L 329.633802 276.444377 
L 330.051096 277.751875 
L 330.46839 277.327339 
L 330.885684 276.385076 
L 331.302977 280.171184 
L 331.720271 278.763056 
L 332.137565 279.297502 
L 332.554859 277.98768 
L 332.972152 277.353798 
L 333.389446 278.312169 
L 333.80674 277.653704 
L 334.224034 278.293554 
L 334.641327 277.72981 
L 335.058621 275.232709 
L 335.475915 275.324415 
L 335.893209 272.286916 
L 336.310502 274.390573 
L 336.727796 274.406205 
L 337.14509 272.689566 
L 337.562384 274.5908 
L 337.979677 275.742945 
L 338.396971 275.764604 
L 338.814265 275.264265 
L 339.231559 277.097285 
L 340.066146 274.211199 
L 340.48344 273.05827 
L 340.900734 275.22418 
L 341.318028 276.778996 
L 341.735321 280.368692 
L 342.152615 285.0608 
L 342.987203 275.331355 
L 343.404496 276.292727 
L 344.656378 275.470492 
L 345.073671 277.05247 
L 345.490965 276.617248 
L 345.908259 272.437064 
L 346.325553 272.292721 
L 346.742846 270.78379 
L 347.16014 275.550891 
L 347.577434 273.292416 
L 347.994728 274.067505 
L 348.412022 275.204634 
L 348.829315 273.081734 
L 349.246609 269.427937 
L 349.663903 276.177562 
L 350.081197 273.926103 
L 350.49849 276.426799 
L 350.915784 278.126882 
L 351.333078 271.544215 
L 351.750372 270.563482 
L 352.167665 272.362736 
L 352.584959 276.092056 
L 353.002253 277.932643 
L 353.419547 275.941362 
L 353.83684 276.236414 
L 354.254134 277.773447 
L 354.671428 275.877807 
L 355.088722 275.867823 
L 355.506015 275.969642 
L 355.923309 278.083202 
L 356.340603 273.220936 
L 356.757897 271.366306 
L 357.17519 273.49767 
L 357.592484 270.760834 
L 358.009778 272.558558 
L 358.427072 270.243409 
L 359.261659 272.124255 
L 359.678953 272.046797 
L 360.096247 272.929835 
L 360.513541 270.381795 
L 360.930834 269.928611 
L 361.348128 271.204531 
L 361.765422 270.61033 
L 362.182716 268.750791 
L 362.600009 270.106899 
L 363.017303 270.08911 
L 363.434597 274.014036 
L 363.851891 283.544258 
L 364.269184 278.366854 
L 364.686478 276.900193 
L 365.103772 272.230388 
L 365.521066 270.26923 
L 365.938359 274.835578 
L 366.355653 270.093807 
L 366.772947 269.1589 
L 367.190241 272.590568 
L 367.607534 271.498665 
L 368.024828 271.47192 
L 368.442122 269.758491 
L 368.859416 266.382357 
L 369.27671 272.311077 
L 369.694003 272.371103 
L 370.111297 260.299164 
L 370.528591 271.674525 
L 370.945885 270.628486 
L 371.363178 275.897882 
L 372.197766 270.786958 
L 372.61506 274.020922 
L 373.032353 273.980507 
L 373.449647 271.710384 
L 373.866941 271.835203 
L 374.284235 276.567693 
L 374.701528 269.969237 
L 375.118822 272.553163 
L 375.536116 276.760948 
L 375.95341 278.715868 
L 376.370703 276.095829 
L 376.787997 277.700136 
L 377.622585 277.310286 
L 378.039878 275.989874 
L 378.457172 274.180945 
L 378.874466 271.257027 
L 379.29176 269.96794 
L 379.709054 270.514289 
L 380.126347 269.753275 
L 380.543641 267.725405 
L 380.960935 271.958054 
L 381.378229 272.314158 
L 381.795522 268.983094 
L 382.212816 268.447074 
L 382.63011 272.348185 
L 383.047404 268.249528 
L 383.464697 273.667207 
L 383.881991 268.52224 
L 384.299285 268.191243 
L 384.716579 270.29824 
L 385.133872 274.668371 
L 385.551166 280.658312 
L 386.385754 270.890728 
L 386.803047 269.531583 
L 387.220341 269.360295 
L 387.637635 272.965786 
L 388.472222 269.983085 
L 388.889516 272.813308 
L 389.30681 273.016493 
L 389.724104 268.243474 
L 390.141398 272.374552 
L 390.558691 274.435269 
L 390.975985 269.088567 
L 391.393279 274.672258 
L 392.227866 268.599027 
L 393.062454 274.355633 
L 393.479748 269.389316 
L 393.897041 268.074067 
L 394.314335 273.251287 
L 394.731629 272.709333 
L 395.148923 270.32958 
L 395.566216 275.021709 
L 395.98351 276.014101 
L 396.400804 274.570536 
L 396.818098 275.798274 
L 397.235391 275.562036 
L 397.652685 276.255036 
L 398.069979 274.676842 
L 398.487273 295.488 
L 398.487273 295.488 
" clip-path="url(#p5a0070cbac)" style="fill: none; stroke: #2ca02c; stroke-width: 1.5; stroke-linecap: square"/>
   </g>
   <g id="patch_3">
    <path d="M 57.6 307.584 
L 57.6 41.472 
" style="fill: none; stroke: #000000; stroke-width: 0.8; stroke-linejoin: miter; stroke-linecap: square"/>
   </g>
   <g id="patch_4">
    <path d="M 414.72 307.584 
L 414.72 41.472 
" style="fill: none; stroke: #000000; stroke-width: 0.8; stroke-linejoin: miter; stroke-linecap: square"/>
   </g>
   <g id="patch_5">
    <path d="M 57.6 307.584 
L 414.72 307.584 
" style="fill: none; stroke: #000000; stroke-width: 0.8; stroke-linejoin: miter; stroke-linecap: square"/>
   </g>
   <g id="patch_6">
    <path d="M 57.6 41.472 
L 414.72 41.472 
" style="fill: none; stroke: #000000; stroke-width: 0.8; stroke-linejoin: miter; stroke-linecap: square"/>
   </g>
   <g id="legend_1">
    <g id="patch_7">
     <path d="M 64.6 93.506375 
L 186.25625 93.506375 
Q 188.25625 93.506375 188.25625 91.506375 
L 188.25625 48.472 
Q 188.25625 46.472 186.25625 46.472 
L 64.6 46.472 
Q 62.6 46.472 62.6 48.472 
L 62.6 91.506375 
Q 62.6 93.506375 64.6 93.506375 
z
" style="fill: #ffffff; opacity: 0.8; stroke: #cccccc; stroke-linejoin: miter"/>
    </g>
    <g id="line2d_18">
     <path d="M 66.6 54.570438 
L 76.6 54.570438 
L 86.6 54.570438 
" style="fill: none; stroke: #1f77b4; stroke-width: 1.5; stroke-linecap: square"/>
    </g>
    <g id="text_17">
     <!-- Weekly maximum -->
     <g transform="translate(94.6 58.070438) scale(0.1 -0.1)">
      <defs>
       <path id="DejaVuSans-57" d="M 213 4666 
L 850 4666 
L 1831 722 
L 2809 4666 
L 3519 4666 
L 4500 722 
L 5478 4666 
L 6119 4666 
L 4947 0 
L 4153 0 
L 3169 4050 
L 2175 0 
L 1381 0 
L 213 4666 
z
" transform="scale(0.015625)"/>
       <path id="DejaVuSans-6b" d="M 581 4863 
L 1159 4863 
L 1159 1991 
L 2875 3500 
L 3609 3500 
L 1753 1863 
L 3688 0 
L 2938 0 
L 1159 1709 
L 1159 0 
L 581 0 
L 581 4863 
z
" transform="scale(0.015625)"/>
       <path id="DejaVuSans-79" d="M 2059 -325 
Q 1816 -950 1584 -1140 
Q 1353 -1331 966 -1331 
L 506 -1331 
L 506 -850 
L 844 -850 
Q 1081 -850 1212 -737 
Q 1344 -625 1503 -206 
L 1606 56 
L 191 3500 
L 800 3500 
L 1894 763 
L 2988 3500 
L 3597 3500 
L 2059 -325 
z
" transform="scale(0.015625)"/>
       <path id="DejaVuSans-6d" d="M 3328 2828 
Q 3544 3216 3844 3400 
Q 4144 3584 4550 3584 
Q 5097 3584 5394 3201 
Q 5691 2819 5691 2113 
L 5691 0 
L 5113 0 
L 5113 2094 
Q 5113 2597 4934 2840 
Q 4756 3084 4391 3084 
Q 3944 3084 3684 2787 
Q 3425 2491 3425 1978 
L 3425 0 
L 2847 0 
L 2847 2094 
Q 2847 2600 2669 2842 
Q 2491 3084 2119 3084 
Q 1678 3084 1418 2786 
Q 1159 2488 1159 1978 
L 1159 0 
L 581 0 
L 581 3500 
L 1159 3500 
L 1159 2956 
Q 1356 3278 1631 3431 
Q 1906 3584 2284 3584 
Q 2666 3584 2933 3390 
Q 3200 3197 3328 2828 
z
" transform="scale(0.015625)"/>
       <path id="DejaVuSans-78" d="M 3513 3500 
L 2247 1797 
L 3578 0 
L 2900 0 
L 1881 1375 
L 863 0 
L 184 0 
L 1544 1831 
L 300 3500 
L 978 3500 
L 1906 2253 
L 2834 3500 
L 3513 3500 
z
" transform="scale(0.015625)"/>
       <path id="DejaVuSans-75" d="M 544 1381 
L 544 3500 
L 1119 3500 
L 1119 1403 
Q 1119 906 1312 657 
Q 1506 409 1894 409 
Q 2359 409 2629 706 
Q 2900 1003 2900 1516 
L 2900 3500 
L 3475 3500 
L 3475 0 
L 2900 0 
L 2900 538 
Q 2691 219 2414 64 
Q 2138 -91 1772 -91 
Q 1169 -91 856 284 
Q 544 659 544 1381 
z
M 1991 3584 
L 1991 3584 
z
" transform="scale(0.015625)"/>
      </defs>
      <use xlink:href="#DejaVuSans-57"/>
      <use xlink:href="#DejaVuSans-65" x="93.001953"/>
      <use xlink:href="#DejaVuSans-65" x="154.525391"/>
      <use xlink:href="#DejaVuSans-6b" x="216.048828"/>
      <use xlink:href="#DejaVuSans-6c" x="273.958984"/>
      <use xlink:href="#DejaVuSans-79" x="301.742188"/>
      <use xlink:href="#DejaVuSans-20" x="360.921875"/>
      <use xlink:href="#DejaVuSans-6d" x="392.708984"/>
      <use xlink:href="#DejaVuSans-61" x="490.121094"/>
      <use xlink:href="#DejaVuSans-78" x="551.400391"/>
      <use xlink:href="#DejaVuSans-69" x="610.580078"/>
      <use xlink:href="#DejaVuSans-6d" x="638.363281"/>
      <use xlink:href="#DejaVuSans-75" x="735.775391"/>
      <use xlink:href="#DejaVuSans-6d" x="799.154297"/>
     </g>
    </g>
    <g id="line2d_19">
     <path d="M 66.6 69.248563 
L 76.6 69.248563 
L 86.6 69.248563 
" style="fill: none; stroke: #ff7f0e; stroke-width: 1.5; stroke-linecap: square"/>
    </g>
    <g id="text_18">
     <!-- Weekly minimum -->
     <g transform="translate(94.6 72.748563) scale(0.1 -0.1)">
      <defs>
       <path id="DejaVuSans-6e" d="M 3513 2113 
L 3513 0 
L 2938 0 
L 2938 2094 
Q 2938 2591 2744 2837 
Q 2550 3084 2163 3084 
Q 1697 3084 1428 2787 
Q 1159 2491 1159 1978 
L 1159 0 
L 581 0 
L 581 3500 
L 1159 3500 
L 1159 2956 
Q 1366 3272 1645 3428 
Q 1925 3584 2291 3584 
Q 2894 3584 3203 3211 
Q 3513 2838 3513 2113 
z
" transform="scale(0.015625)"/>
      </defs>
      <use xlink:href="#DejaVuSans-57"/>
      <use xlink:href="#DejaVuSans-65" x="93.001953"/>
      <use xlink:href="#DejaVuSans-65" x="154.525391"/>
      <use xlink:href="#DejaVuSans-6b" x="216.048828"/>
      <use xlink:href="#DejaVuSans-6c" x="273.958984"/>
      <use xlink:href="#DejaVuSans-79" x="301.742188"/>
      <use xlink:href="#DejaVuSans-20" x="360.921875"/>
      <use xlink:href="#DejaVuSans-6d" x="392.708984"/>
      <use xlink:href="#DejaVuSans-69" x="490.121094"/>
      <use xlink:href="#DejaVuSans-6e" x="517.904297"/>
      <use xlink:href="#DejaVuSans-69" x="581.283203"/>
      <use xlink:href="#DejaVuSans-6d" x="609.066406"/>
      <use xlink:href="#DejaVuSans-75" x="706.478516"/>
      <use xlink:href="#DejaVuSans-6d" x="769.857422"/>
     </g>
    </g>
    <g id="line2d_20">
     <path d="M 66.6 83.926688 
L 76.6 83.926688 
L 86.6 83.926688 
" style="fill: none; stroke: #2ca02c; stroke-width: 1.5; stroke-linecap: square"/>
    </g>
    <g id="text_19">
     <!-- Weekly range -->
     <g transform="translate(94.6 87.426688) scale(0.1 -0.1)">
      <use xlink:href="#DejaVuSans-57"/>
      <use xlink:href="#DejaVuSans-65" x="93.001953"/>
      <use xlink:href="#DejaVuSans-65" x="154.525391"/>
      <use xlink:href="#DejaVuSans-6b" x="216.048828"/>
      <use xlink:href="#DejaVuSans-6c" x="273.958984"/>
      <use xlink:href="#DejaVuSans-79" x="301.742188"/>
      <use xlink:href="#DejaVuSans-20" x="360.921875"/>
      <use xlink:href="#DejaVuSans-72" x="392.708984"/>
      <use xlink:href="#DejaVuSans-61" x="433.822266"/>
      <use xlink:href="#DejaVuSans-6e" x="495.101562"/>
      <use xlink:href="#DejaVuSans-67" x="558.480469"/>
      <use xlink:href="#DejaVuSans-65" x="621.957031"/>
     </g>
    </g>
   </g>
  </g>
 </g>
 <defs>
  <clipPath id="p5a0070cbac">
   <rect x="57.6" y="41.472" width="357.12" height="266.112"/>
  </clipPath>
 </defs>
</svg>
