<?xml version="1.0" encoding="utf-8" standalone="no"?>
<!DOCTYPE svg PUBLIC "-//W3C//DTD SVG 1.1//EN"
  "http://www.w3.org/Graphics/SVG/1.1/DTD/svg11.dtd">
<svg xmlns:xlink="http://www.w3.org/1999/xlink" width="460.8pt" height="345.6pt" viewBox="0 0 460.8 345.6" xmlns="http://www.w3.org/2000/svg" version="1.1">
 <metadata>
  <rdf:RDF xmlns:dc="http://purl.org/dc/elements/1.1/" xmlns:cc="http://creativecommons.org/ns#" xmlns:rdf="http://www.w3.org/1999/02/22-rdf-syntax-ns#">
   <cc:Work>
    <dc:type rdf:resource="http://purl.org/dc/dcmitype/StillImage"/>
    <dc:date>2023-12-10T05:31:35.459908</dc:date>
    <dc:format>image/svg+xml</dc:format>
    <dc:creator>
     <cc:Agent>
      <dc:title>Matplotlib v3.8.2, https://matplotlib.org/</dc:title>
     </cc:Agent>
    </dc:creator>
   </cc:Work>
  </rdf:RDF>
 </metadata>
 <defs>
  <style type="text/css">*{stroke-linejoin: round; stroke-linecap: butt}</style>
 </defs>
 <g id="figure_1">
  <g id="patch_1">
   <path d="M 0 345.6 
L 460.8 345.6 
L 460.8 0 
L 0 0 
z
" style="fill: #ffffff"/>
  </g>
  <g id="axes_1">
   <g id="patch_2">
    <path d="M 57.6 307.584 
L 414.72 307.584 
L 414.72 41.472 
L 57.6 41.472 
z
" style="fill: #ffffff"/>
   </g>
   <g id="matplotlib.axis_1">
    <g id="xtick_1">
     <g id="line2d_1">
      <defs>
       <path id="m2fde19b616" d="M 0 0 
L 0 3.5 
" style="stroke: #000000; stroke-width: 0.8"/>
      </defs>
      <g>
       <use xlink:href="#m2fde19b616" x="59.615981" y="307.584" style="stroke: #000000; stroke-width: 0.8"/>
      </g>
     </g>
     <g id="text_1">
      <!-- 2008 -->
      <g transform="translate(46.890981 322.182437) scale(0.1 -0.1)">
       <defs>
        <path id="DejaVuSans-32" d="M 1228 531 
L 3431 531 
L 3431 0 
L 469 0 
L 469 531 
Q 828 903 1448 1529 
Q 2069 2156 2228 2338 
Q 2531 2678 2651 2914 
Q 2772 3150 2772 3378 
Q 2772 3750 2511 3984 
Q 2250 4219 1831 4219 
Q 1534 4219 1204 4116 
Q 875 4013 500 3803 
L 500 4441 
Q 881 4594 1212 4672 
Q 1544 4750 1819 4750 
Q 2544 4750 2975 4387 
Q 3406 4025 3406 3419 
Q 3406 3131 3298 2873 
Q 3191 2616 2906 2266 
Q 2828 2175 2409 1742 
Q 1991 1309 1228 531 
z
" transform="scale(0.015625)"/>
        <path id="DejaVuSans-30" d="M 2034 4250 
Q 1547 4250 1301 3770 
Q 1056 3291 1056 2328 
Q 1056 1369 1301 889 
Q 1547 409 2034 409 
Q 2525 409 2770 889 
Q 3016 1369 3016 2328 
Q 3016 3291 2770 3770 
Q 2525 4250 2034 4250 
z
M 2034 4750 
Q 2819 4750 3233 4129 
Q 3647 3509 3647 2328 
Q 3647 1150 3233 529 
Q 2819 -91 2034 -91 
Q 1250 -91 836 529 
Q 422 1150 422 2328 
Q 422 3509 836 4129 
Q 1250 4750 2034 4750 
z
" transform="scale(0.015625)"/>
        <path id="DejaVuSans-38" d="M 2034 2216 
Q 1584 2216 1326 1975 
Q 1069 1734 1069 1313 
Q 1069 891 1326 650 
Q 1584 409 2034 409 
Q 2484 409 2743 651 
Q 3003 894 3003 1313 
Q 3003 1734 2745 1975 
Q 2488 2216 2034 2216 
z
M 1403 2484 
Q 997 2584 770 2862 
Q 544 3141 544 3541 
Q 544 4100 942 4425 
Q 1341 4750 2034 4750 
Q 2731 4750 3128 4425 
Q 3525 4100 3525 3541 
Q 3525 3141 3298 2862 
Q 3072 2584 2669 2484 
Q 3125 2378 3379 2068 
Q 3634 1759 3634 1313 
Q 3634 634 3220 271 
Q 2806 -91 2034 -91 
Q 1263 -91 848 271 
Q 434 634 434 1313 
Q 434 1759 690 2068 
Q 947 2378 1403 2484 
z
M 1172 3481 
Q 1172 3119 1398 2916 
Q 1625 2713 2034 2713 
Q 2441 2713 2670 2916 
Q 2900 3119 2900 3481 
Q 2900 3844 2670 4047 
Q 2441 4250 2034 4250 
Q 1625 4250 1398 4047 
Q 1172 3844 1172 3481 
z
" transform="scale(0.015625)"/>
       </defs>
       <use xlink:href="#DejaVuSans-32"/>
       <use xlink:href="#DejaVuSans-30" x="63.623047"/>
       <use xlink:href="#DejaVuSans-30" x="127.246094"/>
       <use xlink:href="#DejaVuSans-38" x="190.869141"/>
      </g>
     </g>
    </g>
    <g id="xtick_2">
     <g id="line2d_2">
      <g>
       <use xlink:href="#m2fde19b616" x="102.207954" y="307.584" style="stroke: #000000; stroke-width: 0.8"/>
      </g>
     </g>
     <g id="text_2">
      <!-- 2010 -->
      <g transform="translate(89.482954 322.182437) scale(0.1 -0.1)">
       <defs>
        <path id="DejaVuSans-31" d="M 794 531 
L 1825 531 
L 1825 4091 
L 703 3866 
L 703 4441 
L 1819 4666 
L 2450 4666 
L 2450 531 
L 3481 531 
L 3481 0 
L 794 0 
L 794 531 
z
" transform="scale(0.015625)"/>
       </defs>
       <use xlink:href="#DejaVuSans-32"/>
       <use xlink:href="#DejaVuSans-30" x="63.623047"/>
       <use xlink:href="#DejaVuSans-31" x="127.246094"/>
       <use xlink:href="#DejaVuSans-30" x="190.869141"/>
      </g>
     </g>
    </g>
    <g id="xtick_3">
     <g id="line2d_3">
      <g>
       <use xlink:href="#m2fde19b616" x="144.741662" y="307.584" style="stroke: #000000; stroke-width: 0.8"/>
      </g>
     </g>
     <g id="text_3">
      <!-- 2012 -->
      <g transform="translate(132.016662 322.182437) scale(0.1 -0.1)">
       <use xlink:href="#DejaVuSans-32"/>
       <use xlink:href="#DejaVuSans-30" x="63.623047"/>
       <use xlink:href="#DejaVuSans-31" x="127.246094"/>
       <use xlink:href="#DejaVuSans-32" x="190.869141"/>
      </g>
     </g>
    </g>
    <g id="xtick_4">
     <g id="line2d_4">
      <g>
       <use xlink:href="#m2fde19b616" x="187.333634" y="307.584" style="stroke: #000000; stroke-width: 0.8"/>
      </g>
     </g>
     <g id="text_4">
      <!-- 2014 -->
      <g transform="translate(174.608634 322.182437) scale(0.1 -0.1)">
       <defs>
        <path id="DejaVuSans-34" d="M 2419 4116 
L 825 1625 
L 2419 1625 
L 2419 4116 
z
M 2253 4666 
L 3047 4666 
L 3047 1625 
L 3713 1625 
L 3713 1100 
L 3047 1100 
L 3047 0 
L 2419 0 
L 2419 1100 
L 313 1100 
L 313 1709 
L 2253 4666 
z
" transform="scale(0.015625)"/>
       </defs>
       <use xlink:href="#DejaVuSans-32"/>
       <use xlink:href="#DejaVuSans-30" x="63.623047"/>
       <use xlink:href="#DejaVuSans-31" x="127.246094"/>
       <use xlink:href="#DejaVuSans-34" x="190.869141"/>
      </g>
     </g>
    </g>
    <g id="xtick_5">
     <g id="line2d_5">
      <g>
       <use xlink:href="#m2fde19b616" x="229.867342" y="307.584" style="stroke: #000000; stroke-width: 0.8"/>
      </g>
     </g>
     <g id="text_5">
      <!-- 2016 -->
      <g transform="translate(217.142342 322.182437) scale(0.1 -0.1)">
       <defs>
        <path id="DejaVuSans-36" d="M 2113 2584 
Q 1688 2584 1439 2293 
Q 1191 2003 1191 1497 
Q 1191 994 1439 701 
Q 1688 409 2113 409 
Q 2538 409 2786 701 
Q 3034 994 3034 1497 
Q 3034 2003 2786 2293 
Q 2538 2584 2113 2584 
z
M 3366 4563 
L 3366 3988 
Q 3128 4100 2886 4159 
Q 2644 4219 2406 4219 
Q 1781 4219 1451 3797 
Q 1122 3375 1075 2522 
Q 1259 2794 1537 2939 
Q 1816 3084 2150 3084 
Q 2853 3084 3261 2657 
Q 3669 2231 3669 1497 
Q 3669 778 3244 343 
Q 2819 -91 2113 -91 
Q 1303 -91 875 529 
Q 447 1150 447 2328 
Q 447 3434 972 4092 
Q 1497 4750 2381 4750 
Q 2619 4750 2861 4703 
Q 3103 4656 3366 4563 
z
" transform="scale(0.015625)"/>
       </defs>
       <use xlink:href="#DejaVuSans-32"/>
       <use xlink:href="#DejaVuSans-30" x="63.623047"/>
       <use xlink:href="#DejaVuSans-31" x="127.246094"/>
       <use xlink:href="#DejaVuSans-36" x="190.869141"/>
      </g>
     </g>
    </g>
    <g id="xtick_6">
     <g id="line2d_6">
      <g>
       <use xlink:href="#m2fde19b616" x="272.459315" y="307.584" style="stroke: #000000; stroke-width: 0.8"/>
      </g>
     </g>
     <g id="text_6">
      <!-- 2018 -->
      <g transform="translate(259.734315 322.182437) scale(0.1 -0.1)">
       <use xlink:href="#DejaVuSans-32"/>
       <use xlink:href="#DejaVuSans-30" x="63.623047"/>
       <use xlink:href="#DejaVuSans-31" x="127.246094"/>
       <use xlink:href="#DejaVuSans-38" x="190.869141"/>
      </g>
     </g>
    </g>
    <g id="xtick_7">
     <g id="line2d_7">
      <g>
       <use xlink:href="#m2fde19b616" x="314.993022" y="307.584" style="stroke: #000000; stroke-width: 0.8"/>
      </g>
     </g>
     <g id="text_7">
      <!-- 2020 -->
      <g transform="translate(302.268022 322.182437) scale(0.1 -0.1)">
       <use xlink:href="#DejaVuSans-32"/>
       <use xlink:href="#DejaVuSans-30" x="63.623047"/>
       <use xlink:href="#DejaVuSans-32" x="127.246094"/>
       <use xlink:href="#DejaVuSans-30" x="190.869141"/>
      </g>
     </g>
    </g>
    <g id="xtick_8">
     <g id="line2d_8">
      <g>
       <use xlink:href="#m2fde19b616" x="357.584995" y="307.584" style="stroke: #000000; stroke-width: 0.8"/>
      </g>
     </g>
     <g id="text_8">
      <!-- 2022 -->
      <g transform="translate(344.859995 322.182437) scale(0.1 -0.1)">
       <use xlink:href="#DejaVuSans-32"/>
       <use xlink:href="#DejaVuSans-30" x="63.623047"/>
       <use xlink:href="#DejaVuSans-32" x="127.246094"/>
       <use xlink:href="#DejaVuSans-32" x="190.869141"/>
      </g>
     </g>
    </g>
    <g id="xtick_9">
     <g id="line2d_9">
      <g>
       <use xlink:href="#m2fde19b616" x="400.118703" y="307.584" style="stroke: #000000; stroke-width: 0.8"/>
      </g>
     </g>
     <g id="text_9">
      <!-- 2024 -->
      <g transform="translate(387.393703 322.182437) scale(0.1 -0.1)">
       <use xlink:href="#DejaVuSans-32"/>
       <use xlink:href="#DejaVuSans-30" x="63.623047"/>
       <use xlink:href="#DejaVuSans-32" x="127.246094"/>
       <use xlink:href="#DejaVuSans-34" x="190.869141"/>
      </g>
     </g>
    </g>
    <g id="text_10">
     <!-- Updated 2023-12-10 05:31:35.458446 - Last record 2023-12-08 -->
     <g transform="translate(75.905312 335.860562) scale(0.1 -0.1)">
      <defs>
       <path id="DejaVuSans-55" d="M 556 4666 
L 1191 4666 
L 1191 1831 
Q 1191 1081 1462 751 
Q 1734 422 2344 422 
Q 2950 422 3222 751 
Q 3494 1081 3494 1831 
L 3494 4666 
L 4128 4666 
L 4128 1753 
Q 4128 841 3676 375 
Q 3225 -91 2344 -91 
Q 1459 -91 1007 375 
Q 556 841 556 1753 
L 556 4666 
z
" transform="scale(0.015625)"/>
       <path id="DejaVuSans-70" d="M 1159 525 
L 1159 -1331 
L 581 -1331 
L 581 3500 
L 1159 3500 
L 1159 2969 
Q 1341 3281 1617 3432 
Q 1894 3584 2278 3584 
Q 2916 3584 3314 3078 
Q 3713 2572 3713 1747 
Q 3713 922 3314 415 
Q 2916 -91 2278 -91 
Q 1894 -91 1617 61 
Q 1341 213 1159 525 
z
M 3116 1747 
Q 3116 2381 2855 2742 
Q 2594 3103 2138 3103 
Q 1681 3103 1420 2742 
Q 1159 2381 1159 1747 
Q 1159 1113 1420 752 
Q 1681 391 2138 391 
Q 2594 391 2855 752 
Q 3116 1113 3116 1747 
z
" transform="scale(0.015625)"/>
       <path id="DejaVuSans-64" d="M 2906 2969 
L 2906 4863 
L 3481 4863 
L 3481 0 
L 2906 0 
L 2906 525 
Q 2725 213 2448 61 
Q 2172 -91 1784 -91 
Q 1150 -91 751 415 
Q 353 922 353 1747 
Q 353 2572 751 3078 
Q 1150 3584 1784 3584 
Q 2172 3584 2448 3432 
Q 2725 3281 2906 2969 
z
M 947 1747 
Q 947 1113 1208 752 
Q 1469 391 1925 391 
Q 2381 391 2643 752 
Q 2906 1113 2906 1747 
Q 2906 2381 2643 2742 
Q 2381 3103 1925 3103 
Q 1469 3103 1208 2742 
Q 947 2381 947 1747 
z
" transform="scale(0.015625)"/>
       <path id="DejaVuSans-61" d="M 2194 1759 
Q 1497 1759 1228 1600 
Q 959 1441 959 1056 
Q 959 750 1161 570 
Q 1363 391 1709 391 
Q 2188 391 2477 730 
Q 2766 1069 2766 1631 
L 2766 1759 
L 2194 1759 
z
M 3341 1997 
L 3341 0 
L 2766 0 
L 2766 531 
Q 2569 213 2275 61 
Q 1981 -91 1556 -91 
Q 1019 -91 701 211 
Q 384 513 384 1019 
Q 384 1609 779 1909 
Q 1175 2209 1959 2209 
L 2766 2209 
L 2766 2266 
Q 2766 2663 2505 2880 
Q 2244 3097 1772 3097 
Q 1472 3097 1187 3025 
Q 903 2953 641 2809 
L 641 3341 
Q 956 3463 1253 3523 
Q 1550 3584 1831 3584 
Q 2591 3584 2966 3190 
Q 3341 2797 3341 1997 
z
" transform="scale(0.015625)"/>
       <path id="DejaVuSans-74" d="M 1172 4494 
L 1172 3500 
L 2356 3500 
L 2356 3053 
L 1172 3053 
L 1172 1153 
Q 1172 725 1289 603 
Q 1406 481 1766 481 
L 2356 481 
L 2356 0 
L 1766 0 
Q 1100 0 847 248 
Q 594 497 594 1153 
L 594 3053 
L 172 3053 
L 172 3500 
L 594 3500 
L 594 4494 
L 1172 4494 
z
" transform="scale(0.015625)"/>
       <path id="DejaVuSans-65" d="M 3597 1894 
L 3597 1613 
L 953 1613 
Q 991 1019 1311 708 
Q 1631 397 2203 397 
Q 2534 397 2845 478 
Q 3156 559 3463 722 
L 3463 178 
Q 3153 47 2828 -22 
Q 2503 -91 2169 -91 
Q 1331 -91 842 396 
Q 353 884 353 1716 
Q 353 2575 817 3079 
Q 1281 3584 2069 3584 
Q 2775 3584 3186 3129 
Q 3597 2675 3597 1894 
z
M 3022 2063 
Q 3016 2534 2758 2815 
Q 2500 3097 2075 3097 
Q 1594 3097 1305 2825 
Q 1016 2553 972 2059 
L 3022 2063 
z
" transform="scale(0.015625)"/>
       <path id="DejaVuSans-20" transform="scale(0.015625)"/>
       <path id="DejaVuSans-33" d="M 2597 2516 
Q 3050 2419 3304 2112 
Q 3559 1806 3559 1356 
Q 3559 666 3084 287 
Q 2609 -91 1734 -91 
Q 1441 -91 1130 -33 
Q 819 25 488 141 
L 488 750 
Q 750 597 1062 519 
Q 1375 441 1716 441 
Q 2309 441 2620 675 
Q 2931 909 2931 1356 
Q 2931 1769 2642 2001 
Q 2353 2234 1838 2234 
L 1294 2234 
L 1294 2753 
L 1863 2753 
Q 2328 2753 2575 2939 
Q 2822 3125 2822 3475 
Q 2822 3834 2567 4026 
Q 2313 4219 1838 4219 
Q 1578 4219 1281 4162 
Q 984 4106 628 3988 
L 628 4550 
Q 988 4650 1302 4700 
Q 1616 4750 1894 4750 
Q 2613 4750 3031 4423 
Q 3450 4097 3450 3541 
Q 3450 3153 3228 2886 
Q 3006 2619 2597 2516 
z
" transform="scale(0.015625)"/>
       <path id="DejaVuSans-2d" d="M 313 2009 
L 1997 2009 
L 1997 1497 
L 313 1497 
L 313 2009 
z
" transform="scale(0.015625)"/>
       <path id="DejaVuSans-35" d="M 691 4666 
L 3169 4666 
L 3169 4134 
L 1269 4134 
L 1269 2991 
Q 1406 3038 1543 3061 
Q 1681 3084 1819 3084 
Q 2600 3084 3056 2656 
Q 3513 2228 3513 1497 
Q 3513 744 3044 326 
Q 2575 -91 1722 -91 
Q 1428 -91 1123 -41 
Q 819 9 494 109 
L 494 744 
Q 775 591 1075 516 
Q 1375 441 1709 441 
Q 2250 441 2565 725 
Q 2881 1009 2881 1497 
Q 2881 1984 2565 2268 
Q 2250 2553 1709 2553 
Q 1456 2553 1204 2497 
Q 953 2441 691 2322 
L 691 4666 
z
" transform="scale(0.015625)"/>
       <path id="DejaVuSans-3a" d="M 750 794 
L 1409 794 
L 1409 0 
L 750 0 
L 750 794 
z
M 750 3309 
L 1409 3309 
L 1409 2516 
L 750 2516 
L 750 3309 
z
" transform="scale(0.015625)"/>
       <path id="DejaVuSans-2e" d="M 684 794 
L 1344 794 
L 1344 0 
L 684 0 
L 684 794 
z
" transform="scale(0.015625)"/>
       <path id="DejaVuSans-4c" d="M 628 4666 
L 1259 4666 
L 1259 531 
L 3531 531 
L 3531 0 
L 628 0 
L 628 4666 
z
" transform="scale(0.015625)"/>
       <path id="DejaVuSans-73" d="M 2834 3397 
L 2834 2853 
Q 2591 2978 2328 3040 
Q 2066 3103 1784 3103 
Q 1356 3103 1142 2972 
Q 928 2841 928 2578 
Q 928 2378 1081 2264 
Q 1234 2150 1697 2047 
L 1894 2003 
Q 2506 1872 2764 1633 
Q 3022 1394 3022 966 
Q 3022 478 2636 193 
Q 2250 -91 1575 -91 
Q 1294 -91 989 -36 
Q 684 19 347 128 
L 347 722 
Q 666 556 975 473 
Q 1284 391 1588 391 
Q 1994 391 2212 530 
Q 2431 669 2431 922 
Q 2431 1156 2273 1281 
Q 2116 1406 1581 1522 
L 1381 1569 
Q 847 1681 609 1914 
Q 372 2147 372 2553 
Q 372 3047 722 3315 
Q 1072 3584 1716 3584 
Q 2034 3584 2315 3537 
Q 2597 3491 2834 3397 
z
" transform="scale(0.015625)"/>
       <path id="DejaVuSans-72" d="M 2631 2963 
Q 2534 3019 2420 3045 
Q 2306 3072 2169 3072 
Q 1681 3072 1420 2755 
Q 1159 2438 1159 1844 
L 1159 0 
L 581 0 
L 581 3500 
L 1159 3500 
L 1159 2956 
Q 1341 3275 1631 3429 
Q 1922 3584 2338 3584 
Q 2397 3584 2469 3576 
Q 2541 3569 2628 3553 
L 2631 2963 
z
" transform="scale(0.015625)"/>
       <path id="DejaVuSans-63" d="M 3122 3366 
L 3122 2828 
Q 2878 2963 2633 3030 
Q 2388 3097 2138 3097 
Q 1578 3097 1268 2742 
Q 959 2388 959 1747 
Q 959 1106 1268 751 
Q 1578 397 2138 397 
Q 2388 397 2633 464 
Q 2878 531 3122 666 
L 3122 134 
Q 2881 22 2623 -34 
Q 2366 -91 2075 -91 
Q 1284 -91 818 406 
Q 353 903 353 1747 
Q 353 2603 823 3093 
Q 1294 3584 2113 3584 
Q 2378 3584 2631 3529 
Q 2884 3475 3122 3366 
z
" transform="scale(0.015625)"/>
       <path id="DejaVuSans-6f" d="M 1959 3097 
Q 1497 3097 1228 2736 
Q 959 2375 959 1747 
Q 959 1119 1226 758 
Q 1494 397 1959 397 
Q 2419 397 2687 759 
Q 2956 1122 2956 1747 
Q 2956 2369 2687 2733 
Q 2419 3097 1959 3097 
z
M 1959 3584 
Q 2709 3584 3137 3096 
Q 3566 2609 3566 1747 
Q 3566 888 3137 398 
Q 2709 -91 1959 -91 
Q 1206 -91 779 398 
Q 353 888 353 1747 
Q 353 2609 779 3096 
Q 1206 3584 1959 3584 
z
" transform="scale(0.015625)"/>
      </defs>
      <use xlink:href="#DejaVuSans-55"/>
      <use xlink:href="#DejaVuSans-70" x="73.193359"/>
      <use xlink:href="#DejaVuSans-64" x="136.669922"/>
      <use xlink:href="#DejaVuSans-61" x="200.146484"/>
      <use xlink:href="#DejaVuSans-74" x="261.425781"/>
      <use xlink:href="#DejaVuSans-65" x="300.634766"/>
      <use xlink:href="#DejaVuSans-64" x="362.158203"/>
      <use xlink:href="#DejaVuSans-20" x="425.634766"/>
      <use xlink:href="#DejaVuSans-32" x="457.421875"/>
      <use xlink:href="#DejaVuSans-30" x="521.044922"/>
      <use xlink:href="#DejaVuSans-32" x="584.667969"/>
      <use xlink:href="#DejaVuSans-33" x="648.291016"/>
      <use xlink:href="#DejaVuSans-2d" x="711.914062"/>
      <use xlink:href="#DejaVuSans-31" x="747.998047"/>
      <use xlink:href="#DejaVuSans-32" x="811.621094"/>
      <use xlink:href="#DejaVuSans-2d" x="875.244141"/>
      <use xlink:href="#DejaVuSans-31" x="911.328125"/>
      <use xlink:href="#DejaVuSans-30" x="974.951172"/>
      <use xlink:href="#DejaVuSans-20" x="1038.574219"/>
      <use xlink:href="#DejaVuSans-30" x="1070.361328"/>
      <use xlink:href="#DejaVuSans-35" x="1133.984375"/>
      <use xlink:href="#DejaVuSans-3a" x="1197.607422"/>
      <use xlink:href="#DejaVuSans-33" x="1231.298828"/>
      <use xlink:href="#DejaVuSans-31" x="1294.921875"/>
      <use xlink:href="#DejaVuSans-3a" x="1358.544922"/>
      <use xlink:href="#DejaVuSans-33" x="1392.236328"/>
      <use xlink:href="#DejaVuSans-35" x="1455.859375"/>
      <use xlink:href="#DejaVuSans-2e" x="1519.482422"/>
      <use xlink:href="#DejaVuSans-34" x="1551.269531"/>
      <use xlink:href="#DejaVuSans-35" x="1614.892578"/>
      <use xlink:href="#DejaVuSans-38" x="1678.515625"/>
      <use xlink:href="#DejaVuSans-34" x="1742.138672"/>
      <use xlink:href="#DejaVuSans-34" x="1805.761719"/>
      <use xlink:href="#DejaVuSans-36" x="1869.384766"/>
      <use xlink:href="#DejaVuSans-20" x="1933.007812"/>
      <use xlink:href="#DejaVuSans-2d" x="1964.794922"/>
      <use xlink:href="#DejaVuSans-20" x="2000.878906"/>
      <use xlink:href="#DejaVuSans-4c" x="2032.666016"/>
      <use xlink:href="#DejaVuSans-61" x="2088.378906"/>
      <use xlink:href="#DejaVuSans-73" x="2149.658203"/>
      <use xlink:href="#DejaVuSans-74" x="2201.757812"/>
      <use xlink:href="#DejaVuSans-20" x="2240.966797"/>
      <use xlink:href="#DejaVuSans-72" x="2272.753906"/>
      <use xlink:href="#DejaVuSans-65" x="2311.617188"/>
      <use xlink:href="#DejaVuSans-63" x="2373.140625"/>
      <use xlink:href="#DejaVuSans-6f" x="2428.121094"/>
      <use xlink:href="#DejaVuSans-72" x="2489.302734"/>
      <use xlink:href="#DejaVuSans-64" x="2528.666016"/>
      <use xlink:href="#DejaVuSans-20" x="2592.142578"/>
      <use xlink:href="#DejaVuSans-32" x="2623.929688"/>
      <use xlink:href="#DejaVuSans-30" x="2687.552734"/>
      <use xlink:href="#DejaVuSans-32" x="2751.175781"/>
      <use xlink:href="#DejaVuSans-33" x="2814.798828"/>
      <use xlink:href="#DejaVuSans-2d" x="2878.421875"/>
      <use xlink:href="#DejaVuSans-31" x="2914.505859"/>
      <use xlink:href="#DejaVuSans-32" x="2978.128906"/>
      <use xlink:href="#DejaVuSans-2d" x="3041.751953"/>
      <use xlink:href="#DejaVuSans-30" x="3077.835938"/>
      <use xlink:href="#DejaVuSans-38" x="3141.458984"/>
     </g>
    </g>
   </g>
   <g id="matplotlib.axis_2">
    <g id="ytick_1">
     <g id="line2d_10">
      <defs>
       <path id="m77b7670df0" d="M 0 0 
L -3.5 0 
" style="stroke: #000000; stroke-width: 0.8"/>
      </defs>
      <g>
       <use xlink:href="#m77b7670df0" x="57.6" y="295.562288" style="stroke: #000000; stroke-width: 0.8"/>
      </g>
     </g>
     <g id="text_11">
      <!-- 0 -->
      <g transform="translate(44.2375 299.361506) scale(0.1 -0.1)">
       <use xlink:href="#DejaVuSans-30"/>
      </g>
     </g>
    </g>
    <g id="ytick_2">
     <g id="line2d_11">
      <g>
       <use xlink:href="#m77b7670df0" x="57.6" y="242.117871" style="stroke: #000000; stroke-width: 0.8"/>
      </g>
     </g>
     <g id="text_12">
      <!-- 10 -->
      <g transform="translate(37.875 245.91709) scale(0.1 -0.1)">
       <use xlink:href="#DejaVuSans-31"/>
       <use xlink:href="#DejaVuSans-30" x="63.623047"/>
      </g>
     </g>
    </g>
    <g id="ytick_3">
     <g id="line2d_12">
      <g>
       <use xlink:href="#m77b7670df0" x="57.6" y="188.673454" style="stroke: #000000; stroke-width: 0.8"/>
      </g>
     </g>
     <g id="text_13">
      <!-- 20 -->
      <g transform="translate(37.875 192.472673) scale(0.1 -0.1)">
       <use xlink:href="#DejaVuSans-32"/>
       <use xlink:href="#DejaVuSans-30" x="63.623047"/>
      </g>
     </g>
    </g>
    <g id="ytick_4">
     <g id="line2d_13">
      <g>
       <use xlink:href="#m77b7670df0" x="57.6" y="135.229038" style="stroke: #000000; stroke-width: 0.8"/>
      </g>
     </g>
     <g id="text_14">
      <!-- 30 -->
      <g transform="translate(37.875 139.028257) scale(0.1 -0.1)">
       <use xlink:href="#DejaVuSans-33"/>
       <use xlink:href="#DejaVuSans-30" x="63.623047"/>
      </g>
     </g>
    </g>
    <g id="ytick_5">
     <g id="line2d_14">
      <g>
       <use xlink:href="#m77b7670df0" x="57.6" y="81.784621" style="stroke: #000000; stroke-width: 0.8"/>
      </g>
     </g>
     <g id="text_15">
      <!-- 40 -->
      <g transform="translate(37.875 85.58384) scale(0.1 -0.1)">
       <use xlink:href="#DejaVuSans-34"/>
       <use xlink:href="#DejaVuSans-30" x="63.623047"/>
      </g>
     </g>
    </g>
    <g id="text_16">
     <!-- IPv6 as % of total Google traffic -->
     <g transform="translate(31.795312 253.735813) rotate(-90) scale(0.1 -0.1)">
      <defs>
       <path id="DejaVuSans-49" d="M 628 4666 
L 1259 4666 
L 1259 0 
L 628 0 
L 628 4666 
z
" transform="scale(0.015625)"/>
       <path id="DejaVuSans-50" d="M 1259 4147 
L 1259 2394 
L 2053 2394 
Q 2494 2394 2734 2622 
Q 2975 2850 2975 3272 
Q 2975 3691 2734 3919 
Q 2494 4147 2053 4147 
L 1259 4147 
z
M 628 4666 
L 2053 4666 
Q 2838 4666 3239 4311 
Q 3641 3956 3641 3272 
Q 3641 2581 3239 2228 
Q 2838 1875 2053 1875 
L 1259 1875 
L 1259 0 
L 628 0 
L 628 4666 
z
" transform="scale(0.015625)"/>
       <path id="DejaVuSans-76" d="M 191 3500 
L 800 3500 
L 1894 563 
L 2988 3500 
L 3597 3500 
L 2284 0 
L 1503 0 
L 191 3500 
z
" transform="scale(0.015625)"/>
       <path id="DejaVuSans-25" d="M 4653 2053 
Q 4381 2053 4226 1822 
Q 4072 1591 4072 1178 
Q 4072 772 4226 539 
Q 4381 306 4653 306 
Q 4919 306 5073 539 
Q 5228 772 5228 1178 
Q 5228 1588 5073 1820 
Q 4919 2053 4653 2053 
z
M 4653 2450 
Q 5147 2450 5437 2106 
Q 5728 1763 5728 1178 
Q 5728 594 5436 251 
Q 5144 -91 4653 -91 
Q 4153 -91 3862 251 
Q 3572 594 3572 1178 
Q 3572 1766 3864 2108 
Q 4156 2450 4653 2450 
z
M 1428 4353 
Q 1159 4353 1004 4120 
Q 850 3888 850 3481 
Q 850 3069 1003 2837 
Q 1156 2606 1428 2606 
Q 1700 2606 1854 2837 
Q 2009 3069 2009 3481 
Q 2009 3884 1853 4118 
Q 1697 4353 1428 4353 
z
M 4250 4750 
L 4750 4750 
L 1831 -91 
L 1331 -91 
L 4250 4750 
z
M 1428 4750 
Q 1922 4750 2215 4408 
Q 2509 4066 2509 3481 
Q 2509 2891 2217 2550 
Q 1925 2209 1428 2209 
Q 931 2209 642 2551 
Q 353 2894 353 3481 
Q 353 4063 643 4406 
Q 934 4750 1428 4750 
z
" transform="scale(0.015625)"/>
       <path id="DejaVuSans-66" d="M 2375 4863 
L 2375 4384 
L 1825 4384 
Q 1516 4384 1395 4259 
Q 1275 4134 1275 3809 
L 1275 3500 
L 2222 3500 
L 2222 3053 
L 1275 3053 
L 1275 0 
L 697 0 
L 697 3053 
L 147 3053 
L 147 3500 
L 697 3500 
L 697 3744 
Q 697 4328 969 4595 
Q 1241 4863 1831 4863 
L 2375 4863 
z
" transform="scale(0.015625)"/>
       <path id="DejaVuSans-6c" d="M 603 4863 
L 1178 4863 
L 1178 0 
L 603 0 
L 603 4863 
z
" transform="scale(0.015625)"/>
       <path id="DejaVuSans-47" d="M 3809 666 
L 3809 1919 
L 2778 1919 
L 2778 2438 
L 4434 2438 
L 4434 434 
Q 4069 175 3628 42 
Q 3188 -91 2688 -91 
Q 1594 -91 976 548 
Q 359 1188 359 2328 
Q 359 3472 976 4111 
Q 1594 4750 2688 4750 
Q 3144 4750 3555 4637 
Q 3966 4525 4313 4306 
L 4313 3634 
Q 3963 3931 3569 4081 
Q 3175 4231 2741 4231 
Q 1884 4231 1454 3753 
Q 1025 3275 1025 2328 
Q 1025 1384 1454 906 
Q 1884 428 2741 428 
Q 3075 428 3337 486 
Q 3600 544 3809 666 
z
" transform="scale(0.015625)"/>
       <path id="DejaVuSans-67" d="M 2906 1791 
Q 2906 2416 2648 2759 
Q 2391 3103 1925 3103 
Q 1463 3103 1205 2759 
Q 947 2416 947 1791 
Q 947 1169 1205 825 
Q 1463 481 1925 481 
Q 2391 481 2648 825 
Q 2906 1169 2906 1791 
z
M 3481 434 
Q 3481 -459 3084 -895 
Q 2688 -1331 1869 -1331 
Q 1566 -1331 1297 -1286 
Q 1028 -1241 775 -1147 
L 775 -588 
Q 1028 -725 1275 -790 
Q 1522 -856 1778 -856 
Q 2344 -856 2625 -561 
Q 2906 -266 2906 331 
L 2906 616 
Q 2728 306 2450 153 
Q 2172 0 1784 0 
Q 1141 0 747 490 
Q 353 981 353 1791 
Q 353 2603 747 3093 
Q 1141 3584 1784 3584 
Q 2172 3584 2450 3431 
Q 2728 3278 2906 2969 
L 2906 3500 
L 3481 3500 
L 3481 434 
z
" transform="scale(0.015625)"/>
       <path id="DejaVuSans-69" d="M 603 3500 
L 1178 3500 
L 1178 0 
L 603 0 
L 603 3500 
z
M 603 4863 
L 1178 4863 
L 1178 4134 
L 603 4134 
L 603 4863 
z
" transform="scale(0.015625)"/>
      </defs>
      <use xlink:href="#DejaVuSans-49"/>
      <use xlink:href="#DejaVuSans-50" x="29.492188"/>
      <use xlink:href="#DejaVuSans-76" x="89.794922"/>
      <use xlink:href="#DejaVuSans-36" x="148.974609"/>
      <use xlink:href="#DejaVuSans-20" x="212.597656"/>
      <use xlink:href="#DejaVuSans-61" x="244.384766"/>
      <use xlink:href="#DejaVuSans-73" x="305.664062"/>
      <use xlink:href="#DejaVuSans-20" x="357.763672"/>
      <use xlink:href="#DejaVuSans-25" x="389.550781"/>
      <use xlink:href="#DejaVuSans-20" x="484.570312"/>
      <use xlink:href="#DejaVuSans-6f" x="516.357422"/>
      <use xlink:href="#DejaVuSans-66" x="577.539062"/>
      <use xlink:href="#DejaVuSans-20" x="612.744141"/>
      <use xlink:href="#DejaVuSans-74" x="644.53125"/>
      <use xlink:href="#DejaVuSans-6f" x="683.740234"/>
      <use xlink:href="#DejaVuSans-74" x="744.921875"/>
      <use xlink:href="#DejaVuSans-61" x="784.130859"/>
      <use xlink:href="#DejaVuSans-6c" x="845.410156"/>
      <use xlink:href="#DejaVuSans-20" x="873.193359"/>
      <use xlink:href="#DejaVuSans-47" x="904.980469"/>
      <use xlink:href="#DejaVuSans-6f" x="982.470703"/>
      <use xlink:href="#DejaVuSans-6f" x="1043.652344"/>
      <use xlink:href="#DejaVuSans-67" x="1104.833984"/>
      <use xlink:href="#DejaVuSans-6c" x="1168.310547"/>
      <use xlink:href="#DejaVuSans-65" x="1196.09375"/>
      <use xlink:href="#DejaVuSans-20" x="1257.617188"/>
      <use xlink:href="#DejaVuSans-74" x="1289.404297"/>
      <use xlink:href="#DejaVuSans-72" x="1328.613281"/>
      <use xlink:href="#DejaVuSans-61" x="1369.726562"/>
      <use xlink:href="#DejaVuSans-66" x="1431.005859"/>
      <use xlink:href="#DejaVuSans-66" x="1466.210938"/>
      <use xlink:href="#DejaVuSans-69" x="1501.416016"/>
      <use xlink:href="#DejaVuSans-63" x="1529.199219"/>
     </g>
    </g>
   </g>
   <g id="line2d_15">
    <path d="M 73.832727 294.588568 
L 75.464157 294.423537 
L 75.872015 294.580685 
L 77.503444 294.579995 
L 79.134874 294.436748 
L 79.542732 294.310074 
L 80.766304 294.331089 
L 82.805592 294.317829 
L 83.621307 294.258479 
L 84.437021 294.255246 
L 85.660594 294.283021 
L 87.292024 294.207568 
L 90.554884 294.272989 
L 90.962741 294.375806 
L 93.002028 294.350826 
L 94.225601 294.301753 
L 95.857031 294.205826 
L 96.672746 294.214585 
L 97.080603 293.954396 
L 99.527748 293.865144 
L 100.343463 293.830897 
L 102.38275 293.913731 
L 104.422037 293.964182 
L 106.461325 293.931442 
L 107.684897 294.120988 
L 108.90847 294.068602 
L 109.316327 294.05499 
L 110.132042 294.239266 
L 112.171329 294.256106 
L 113.394902 294.371845 
L 115.434189 294.285132 
L 116.249904 294.180108 
L 116.657762 294.093539 
L 117.473476 294.089274 
L 120.328479 294.02637 
L 121.144194 294.117017 
L 121.552051 293.989333 
L 123.999196 294.226167 
L 127.262056 294.055551 
L 127.669913 294.061259 
L 128.077771 293.939726 
L 128.893486 294.041383 
L 129.709201 293.852692 
L 130.117058 293.8996 
L 130.524915 293.783759 
L 130.932773 293.834478 
L 131.748488 293.726686 
L 132.97206 293.711342 
L 133.379918 293.844338 
L 135.011348 293.874379 
L 135.827063 293.88866 
L 136.23492 293.850891 
L 136.642778 293.675411 
L 138.274207 293.579313 
L 138.682065 293.675037 
L 142.352782 293.358828 
L 143.168497 293.16344 
L 143.984212 293.311038 
L 146.839214 292.910638 
L 147.247072 292.841219 
L 147.654929 292.94823 
L 148.878502 292.583515 
L 149.286359 292.662276 
L 149.694217 292.481351 
L 152.141361 292.106839 
L 154.180649 291.626229 
L 155.404221 291.502677 
L 155.812079 291.603601 
L 157.851366 291.223996 
L 159.074938 290.848923 
L 159.482796 290.90567 
L 159.890653 290.56896 
L 160.298511 290.406537 
L 161.929941 290.210695 
L 162.337798 290.368629 
L 163.153513 290.177886 
L 163.56137 290.130571 
L 163.969228 289.884968 
L 164.784943 289.721086 
L 166.416373 289.704015 
L 167.232088 289.494658 
L 168.45566 289.340396 
L 168.863518 289.138702 
L 169.271375 289.119248 
L 169.679233 289.223539 
L 171.310662 288.469519 
L 171.71852 288.486792 
L 173.34995 288.012655 
L 173.757807 287.694906 
L 174.165665 287.622003 
L 174.573522 287.425365 
L 174.98138 287.457389 
L 176.204952 286.974524 
L 176.61281 287.059906 
L 177.020667 286.822234 
L 177.428524 286.780462 
L 179.467812 285.663874 
L 180.283527 285.323941 
L 181.099242 284.728591 
L 182.322814 283.257202 
L 182.730672 283.491562 
L 183.138529 283.532105 
L 184.362101 282.134223 
L 184.769959 281.966605 
L 185.177816 281.260033 
L 185.993531 281.039623 
L 186.809246 280.569317 
L 187.217104 280.618331 
L 188.440676 279.846749 
L 188.848534 279.682867 
L 189.256391 279.379794 
L 190.072106 279.307981 
L 190.479963 278.621412 
L 190.887821 278.612364 
L 191.295678 277.857531 
L 191.703536 277.466607 
L 192.519251 277.578808 
L 192.927108 277.299337 
L 193.334966 276.868836 
L 194.150681 276.367699 
L 194.558538 275.919696 
L 194.966396 276.194368 
L 196.597825 275.315373 
L 197.005683 274.990361 
L 197.41354 273.654769 
L 197.821398 273.908123 
L 198.637113 273.001192 
L 199.04497 272.962253 
L 199.452828 273.354326 
L 200.6764 272.4622 
L 201.084258 271.856974 
L 201.899973 271.903636 
L 202.30783 271.248766 
L 202.715688 271.203691 
L 203.123545 267.73433 
L 203.531402 270.01699 
L 203.93926 271.376808 
L 204.347117 270.716059 
L 204.754975 270.346816 
L 205.162832 270.287311 
L 205.57069 269.418289 
L 205.978547 269.14599 
L 207.20212 267.259803 
L 207.609977 266.028235 
L 208.017835 265.325291 
L 208.425692 264.37094 
L 208.83355 263.740841 
L 209.241407 264.747135 
L 209.649265 264.593135 
L 210.057122 264.620995 
L 210.464979 264.783557 
L 210.872837 265.0871 
L 211.280694 264.971292 
L 211.688552 262.75205 
L 212.096409 263.080305 
L 213.319982 261.910909 
L 213.727839 261.753515 
L 214.543554 261.822715 
L 214.951412 260.145159 
L 215.359269 260.084062 
L 216.174984 258.760174 
L 216.582841 259.211539 
L 216.990699 257.145212 
L 217.398556 257.633619 
L 217.806414 256.238725 
L 218.214271 255.570777 
L 218.622129 254.567828 
L 219.029986 255.264316 
L 219.437844 254.209275 
L 219.845701 252.454085 
L 220.253559 253.338537 
L 220.661416 253.590672 
L 221.069274 253.045849 
L 221.477131 251.440966 
L 221.884989 251.886773 
L 222.292846 250.469822 
L 222.700704 250.796229 
L 223.516418 248.885142 
L 223.924276 247.917034 
L 225.147848 247.613085 
L 225.555706 246.49522 
L 225.963563 246.631252 
L 226.371421 246.211906 
L 226.779278 245.103976 
L 227.187136 244.822779 
L 227.594993 243.583958 
L 228.002851 242.734705 
L 228.410708 242.585034 
L 228.818566 242.794071 
L 229.226423 242.2537 
L 229.63428 239.951742 
L 230.449995 241.301994 
L 230.857853 241.042618 
L 231.673568 240.964893 
L 232.081425 241.010626 
L 232.89714 240.732886 
L 233.304998 239.437724 
L 233.712855 239.376413 
L 234.120713 238.227802 
L 234.52857 238.224574 
L 234.936428 238.050088 
L 236.16 234.764962 
L 236.567857 232.83006 
L 236.975715 234.151404 
L 237.383572 233.597575 
L 237.79143 232.452822 
L 238.199287 232.707635 
L 238.607145 230.263611 
L 239.015002 230.62218 
L 239.42286 230.322501 
L 239.830717 228.617149 
L 240.238575 228.601009 
L 240.646432 227.329854 
L 241.05429 227.635925 
L 241.462147 226.630508 
L 241.870005 226.0964 
L 242.277862 226.380152 
L 242.68572 225.691708 
L 243.093577 224.617695 
L 243.501434 224.961027 
L 243.909292 224.451653 
L 244.317149 222.76149 
L 244.725007 222.054687 
L 245.132864 222.120804 
L 245.540722 220.144317 
L 245.948579 220.495799 
L 246.764294 218.141706 
L 247.172152 215.79261 
L 247.580009 216.024789 
L 248.395724 214.703878 
L 248.803582 213.223831 
L 249.211439 213.421693 
L 249.619296 212.801423 
L 250.027154 210.461241 
L 250.435011 209.64018 
L 250.842869 205.760265 
L 251.250726 208.282847 
L 251.658584 207.825491 
L 252.066441 208.427077 
L 252.474299 207.720644 
L 253.290014 208.867951 
L 253.697871 208.63923 
L 254.105729 207.633508 
L 254.513586 207.935971 
L 255.329301 206.655053 
L 255.737159 205.593668 
L 256.145016 205.425345 
L 256.552873 204.707864 
L 256.960731 202.127808 
L 257.368588 202.937422 
L 257.776446 199.47758 
L 258.184303 199.745401 
L 258.592161 197.864761 
L 259.000018 196.7056 
L 260.223591 194.573675 
L 260.631448 192.828966 
L 261.039306 189.952433 
L 261.447163 190.678823 
L 263.078593 187.402664 
L 263.48645 186.863864 
L 263.894308 186.884258 
L 264.302165 187.181105 
L 264.710023 186.161786 
L 265.11788 184.733206 
L 265.525738 186.013018 
L 265.933595 186.03772 
L 266.341453 187.177887 
L 266.74931 185.93011 
L 267.157168 183.990147 
L 267.565025 184.238728 
L 267.972883 183.401211 
L 269.196455 182.069306 
L 270.01217 181.09098 
L 270.420027 180.985005 
L 270.827885 195.170398 
L 271.235742 179.184163 
L 271.6436 178.416867 
L 272.051457 174.540265 
L 272.459315 178.136845 
L 273.27503 177.611315 
L 273.682887 177.608771 
L 274.090745 177.127467 
L 274.498602 176.890275 
L 274.90646 178.20791 
L 275.314317 179.043241 
L 275.722175 178.840173 
L 276.130032 177.708483 
L 276.537889 177.789745 
L 277.761462 176.838119 
L 278.169319 174.295715 
L 278.577177 175.299208 
L 278.985034 172.606593 
L 279.392892 173.741966 
L 279.800749 171.481877 
L 280.208607 170.070693 
L 280.616464 170.902764 
L 281.024322 169.172175 
L 281.432179 168.023088 
L 281.840037 167.77875 
L 282.247894 168.71817 
L 282.655751 169.213712 
L 283.879324 166.675749 
L 284.287181 167.25941 
L 284.695039 168.100534 
L 285.102896 168.263636 
L 285.510754 166.338691 
L 285.918611 165.621702 
L 286.326469 164.226295 
L 286.734326 163.882487 
L 287.142184 163.687062 
L 287.550041 163.833088 
L 287.957899 163.649026 
L 288.773614 161.732209 
L 289.181471 162.850513 
L 289.589328 159.307971 
L 289.997186 159.399088 
L 290.405043 158.967097 
L 290.812901 156.383353 
L 291.220758 155.608121 
L 291.628616 155.14216 
L 292.036473 155.145554 
L 292.444331 153.744792 
L 292.852188 153.649303 
L 293.667903 151.434545 
L 294.075761 152.89641 
L 294.483618 153.838004 
L 295.299333 151.595658 
L 295.70719 152.695448 
L 296.115048 152.494358 
L 296.522905 152.973081 
L 296.930763 151.280534 
L 297.33862 150.689984 
L 297.746478 151.969609 
L 298.154335 150.132746 
L 298.562193 150.279718 
L 298.97005 149.755754 
L 299.785765 149.552633 
L 300.193623 145.924249 
L 300.60148 145.818557 
L 301.009338 146.104918 
L 301.417195 146.982539 
L 302.23291 142.748304 
L 302.640767 140.880405 
L 303.048625 140.4063 
L 303.456482 140.569145 
L 303.86434 140.228234 
L 304.272197 138.372772 
L 304.680055 139.902886 
L 305.087912 138.273755 
L 305.49577 139.785543 
L 305.903627 138.701803 
L 306.311485 138.045794 
L 306.719342 137.991088 
L 307.1272 138.064996 
L 307.535057 136.652268 
L 307.942915 136.812783 
L 308.350772 138.341764 
L 308.75863 137.823684 
L 309.166487 138.450854 
L 309.574344 138.70719 
L 309.982202 136.747709 
L 310.390059 137.921252 
L 310.797917 138.236601 
L 311.205774 137.508351 
L 311.613632 137.063389 
L 312.021489 135.308152 
L 312.429347 135.678607 
L 312.837204 135.296586 
L 313.245062 135.423276 
L 313.652919 134.402573 
L 314.060777 133.956077 
L 314.468634 132.664128 
L 314.876492 132.099424 
L 315.284349 132.897766 
L 315.692206 133.135134 
L 316.100064 133.188535 
L 316.915779 131.351277 
L 317.323636 131.791723 
L 317.731494 130.451983 
L 318.139351 131.031829 
L 318.547209 130.781249 
L 318.955066 129.854582 
L 319.362924 130.081042 
L 319.770781 130.717618 
L 320.178639 130.427415 
L 320.586496 130.442583 
L 320.994354 128.035462 
L 321.810069 126.321676 
L 322.217926 126.604637 
L 322.625783 126.005504 
L 323.033641 124.011445 
L 323.441498 124.656492 
L 323.849356 121.79503 
L 324.257213 124.085038 
L 324.665071 122.189295 
L 325.072928 119.597839 
L 325.480786 120.355916 
L 325.888643 118.737812 
L 326.296501 117.645948 
L 326.704358 117.750399 
L 327.112216 116.931246 
L 327.520073 118.984794 
L 327.927931 117.274001 
L 328.335788 117.915484 
L 328.743646 118.29185 
L 329.967218 115.667024 
L 330.375075 117.852393 
L 330.782933 117.89618 
L 331.19079 116.930102 
L 331.598648 117.477528 
L 332.006505 118.804772 
L 332.414363 117.772531 
L 332.82222 115.37076 
L 333.230078 119.357981 
L 333.637935 118.283924 
L 334.045793 116.729301 
L 334.45365 118.033436 
L 334.861508 118.127664 
L 335.269365 115.997978 
L 335.677222 114.937379 
L 336.08508 112.993055 
L 336.492937 113.941218 
L 336.900795 113.222877 
L 337.308652 113.444436 
L 337.71651 114.053099 
L 338.124367 112.498855 
L 338.532225 111.86161 
L 338.940082 113.01384 
L 339.34794 112.726656 
L 339.755797 110.233335 
L 340.163655 109.684883 
L 340.571512 107.987991 
L 340.97937 110.774519 
L 341.387227 111.698674 
L 341.795085 110.790167 
L 342.202942 110.616425 
L 342.610799 110.758908 
L 343.018657 105.84418 
L 343.426514 109.129703 
L 343.834372 107.236461 
L 344.650087 108.19419 
L 345.057944 103.539422 
L 345.465802 102.944532 
L 345.873659 101.072102 
L 346.281517 100.997579 
L 346.689374 102.691243 
L 347.097232 100.355626 
L 347.505089 99.896517 
L 347.912947 98.690362 
L 348.320804 98.254165 
L 348.728661 96.883759 
L 349.136519 97.088649 
L 349.544376 100.411165 
L 349.952234 98.619473 
L 350.360091 97.485014 
L 350.767949 99.642603 
L 351.175806 98.449456 
L 351.583664 98.029452 
L 351.991521 96.306832 
L 352.807236 99.048488 
L 353.215094 98.747387 
L 353.622951 99.177235 
L 354.030809 99.041043 
L 354.438666 97.496446 
L 354.846524 99.282355 
L 355.254381 97.136701 
L 355.662238 96.377908 
L 356.070096 96.298409 
L 356.885811 93.627172 
L 357.293668 90.646475 
L 357.701526 92.679298 
L 358.109383 96.476122 
L 358.517241 92.199335 
L 358.925098 91.998426 
L 359.332956 94.868386 
L 360.148671 91.048537 
L 360.556528 90.997477 
L 360.964386 91.803873 
L 361.372243 91.770967 
L 361.780101 92.38849 
L 362.187958 85.128831 
L 362.595815 84.353833 
L 363.003673 84.570246 
L 363.41153 83.086559 
L 363.819388 82.599921 
L 364.227245 80.019459 
L 364.635103 83.298301 
L 365.04296 84.576766 
L 365.450818 81.771784 
L 365.858675 83.620111 
L 366.266533 80.476911 
L 366.67439 78.876513 
L 367.082248 74.993963 
L 367.490105 76.038689 
L 367.897963 70.286119 
L 368.713677 74.318511 
L 369.121535 76.159912 
L 369.529392 74.482772 
L 369.93725 74.809932 
L 370.345107 75.513539 
L 370.752965 75.370286 
L 371.160822 77.415027 
L 371.56868 76.461867 
L 371.976537 74.967604 
L 372.384395 75.312262 
L 372.792252 73.780898 
L 373.20011 74.169973 
L 373.607967 72.297109 
L 374.015825 73.619207 
L 374.423682 77.186509 
L 374.83154 74.785909 
L 375.239397 71.146489 
L 375.647254 74.162608 
L 376.055112 72.410519 
L 376.462969 74.230301 
L 376.870827 72.587045 
L 377.278684 72.56368 
L 378.502257 66.23732 
L 378.910114 69.071798 
L 379.317972 68.855059 
L 379.725829 67.436249 
L 380.133687 67.854419 
L 380.541544 70.272288 
L 381.357259 68.18337 
L 381.765116 69.71436 
L 382.172974 68.853023 
L 382.580831 67.184013 
L 382.988689 67.216469 
L 383.804404 64.447087 
L 384.212261 65.655337 
L 384.620119 65.635739 
L 385.027976 63.005621 
L 385.435834 64.360501 
L 386.251549 64.133261 
L 386.659406 62.672454 
L 387.067264 64.340609 
L 387.475121 64.389703 
L 387.882979 61.453718 
L 388.290836 61.417761 
L 388.698693 60.028484 
L 389.106551 56.364912 
L 389.514408 57.939422 
L 390.330123 57.075423 
L 390.737981 56.920183 
L 391.145838 57.312166 
L 391.553696 55.953994 
L 391.961553 57.547498 
L 392.777268 53.568 
L 393.185126 55.15531 
L 393.592983 57.309115 
L 394.000841 58.150837 
L 394.408698 54.17376 
L 394.816556 56.54084 
L 395.224413 55.313227 
L 395.63227 59.600758 
L 396.040128 56.78459 
L 396.447985 55.736042 
L 396.855843 58.119583 
L 397.2637 58.338368 
L 397.671558 59.606498 
L 398.079415 57.326318 
L 398.487273 71.553131 
L 398.487273 71.553131 
" clip-path="url(#pbf4bed527a)" style="fill: none; stroke: #1f77b4; stroke-width: 1.5; stroke-linecap: square"/>
   </g>
   <g id="line2d_16">
    <path d="M 73.832727 294.843968 
L 75.464157 294.708187 
L 75.872015 294.821826 
L 84.844879 294.572695 
L 85.660594 294.564064 
L 87.699881 294.499262 
L 89.739169 294.565608 
L 91.370598 294.562615 
L 97.080603 294.481941 
L 97.48846 294.290615 
L 113.394902 294.482368 
L 115.434189 294.483496 
L 116.657762 294.31552 
L 118.289191 294.290273 
L 120.328479 294.232195 
L 125.222768 294.408428 
L 130.932773 293.967346 
L 131.748488 293.911539 
L 132.564203 293.849827 
L 133.379918 293.94584 
L 134.195633 293.958458 
L 135.011348 294.008926 
L 136.23492 294.043034 
L 137.050635 293.745568 
L 137.86635 293.783588 
L 138.274207 293.86213 
L 139.905637 293.762093 
L 140.313495 293.815815 
L 140.721352 293.684914 
L 142.76064 293.638267 
L 143.576354 293.471489 
L 146.431357 293.377849 
L 148.470644 293.110285 
L 148.878502 293.228739 
L 150.102074 292.910141 
L 151.733504 292.651042 
L 152.549219 292.658332 
L 153.772791 292.25372 
L 155.404221 291.96985 
L 155.812079 292.092569 
L 157.443508 291.966029 
L 163.153513 290.924419 
L 163.56137 290.970162 
L 164.377085 290.708792 
L 165.1928 290.604858 
L 165.600658 290.365941 
L 166.82423 290.637871 
L 167.639945 290.450217 
L 168.047803 290.395057 
L 168.45566 290.1629 
L 168.863518 290.180285 
L 169.271375 290.008312 
L 170.494947 289.920439 
L 170.902805 289.675214 
L 172.126377 289.427248 
L 172.534235 289.429926 
L 172.942092 289.272842 
L 173.34995 289.256878 
L 174.98138 288.769786 
L 175.797095 288.535688 
L 176.204952 288.287717 
L 176.61281 288.428409 
L 177.836382 287.933402 
L 178.652097 287.520806 
L 179.059954 287.208161 
L 179.875669 286.990974 
L 180.283527 287.090765 
L 181.099242 286.938181 
L 182.322814 285.770624 
L 182.730672 285.490158 
L 183.138529 285.567263 
L 183.546386 285.41679 
L 184.769959 284.540114 
L 185.177816 284.391774 
L 185.993531 283.68355 
L 186.401389 283.586511 
L 186.809246 282.249904 
L 187.217104 282.374696 
L 187.624961 283.265107 
L 188.032819 283.168415 
L 188.848534 282.485177 
L 189.256391 283.102588 
L 189.664249 282.303156 
L 190.072106 282.253987 
L 190.479963 282.005502 
L 190.887821 281.424316 
L 191.295678 281.453849 
L 192.111393 280.563689 
L 192.519251 280.590535 
L 192.927108 280.391646 
L 193.334966 279.669602 
L 193.742823 279.91341 
L 194.150681 279.366898 
L 194.558538 279.530833 
L 194.966396 279.333543 
L 195.374253 279.414057 
L 195.782111 278.798276 
L 196.189968 278.822011 
L 196.597825 278.193788 
L 197.005683 278.302932 
L 197.821398 276.976981 
L 198.229255 276.714585 
L 198.637113 276.631137 
L 199.04497 276.326808 
L 199.452828 276.296644 
L 199.860685 276.413137 
L 200.268543 276.391043 
L 201.492115 275.955984 
L 201.899973 276.097633 
L 202.715688 275.731587 
L 203.123545 275.100505 
L 203.531402 273.683987 
L 203.93926 274.741348 
L 204.347117 275.089437 
L 204.754975 274.72401 
L 205.162832 274.935982 
L 205.57069 274.40716 
L 206.386405 273.723387 
L 206.794262 273.045519 
L 207.20212 272.620395 
L 207.609977 271.729798 
L 208.017835 269.093983 
L 208.425692 267.405701 
L 208.83355 269.906734 
L 209.241407 270.566275 
L 209.649265 270.584414 
L 210.057122 270.848024 
L 210.464979 270.82904 
L 210.872837 271.181837 
L 211.280694 270.45378 
L 211.688552 270.581801 
L 212.096409 269.22202 
L 212.504267 268.806495 
L 212.912124 269.042735 
L 213.727839 267.68676 
L 214.135697 268.053773 
L 214.543554 268.018388 
L 214.951412 267.581405 
L 215.359269 266.947158 
L 215.767127 266.61716 
L 216.174984 266.663935 
L 216.990699 264.697934 
L 217.398556 264.119676 
L 217.806414 263.808924 
L 218.214271 262.676239 
L 218.622129 262.28393 
L 219.845701 259.999935 
L 220.253559 260.387701 
L 221.069274 260.006321 
L 221.884989 259.274079 
L 222.292846 259.59241 
L 223.108561 259.188739 
L 223.924276 258.178715 
L 225.147848 257.662436 
L 225.555706 257.665819 
L 225.963563 256.606872 
L 226.371421 256.500207 
L 226.779278 256.529228 
L 227.187136 255.98689 
L 228.410708 253.30166 
L 228.818566 252.795157 
L 229.226423 250.350946 
L 229.63428 246.902499 
L 230.042138 252.019091 
L 230.449995 253.134027 
L 230.857853 252.822724 
L 231.26571 252.273769 
L 231.673568 252.348474 
L 232.081425 252.631195 
L 232.89714 251.476192 
L 233.712855 250.949176 
L 234.120713 250.52292 
L 234.52857 249.305755 
L 234.936428 249.023403 
L 235.344285 248.954401 
L 236.16 247.877367 
L 236.567857 246.597122 
L 236.975715 245.799245 
L 237.383572 246.302088 
L 238.199287 244.729502 
L 238.607145 243.282826 
L 239.015002 242.862042 
L 239.42286 242.656249 
L 240.238575 240.336301 
L 240.646432 238.529554 
L 241.05429 239.320772 
L 241.462147 239.17163 
L 241.870005 238.262514 
L 242.277862 237.648924 
L 242.68572 237.491829 
L 243.093577 237.602913 
L 243.501434 238.856725 
L 243.909292 238.213847 
L 244.317149 238.501549 
L 244.725007 237.819032 
L 245.132864 237.893224 
L 245.540722 237.125569 
L 246.356437 234.978504 
L 246.764294 235.194163 
L 247.580009 232.157424 
L 247.987867 232.876995 
L 248.395724 232.317763 
L 248.803582 230.994298 
L 249.211439 230.896035 
L 249.619296 230.007788 
L 250.027154 229.502049 
L 250.435011 225.974424 
L 250.842869 217.834829 
L 251.250726 223.694394 
L 251.658584 226.818749 
L 252.066441 227.148795 
L 252.882156 226.804849 
L 253.290014 226.900322 
L 253.697871 226.856588 
L 254.105729 225.884097 
L 254.513586 225.641385 
L 254.921444 225.944319 
L 255.737159 224.806573 
L 256.552873 222.763761 
L 256.960731 220.526289 
L 257.368588 221.27899 
L 257.776446 221.167521 
L 258.184303 217.109615 
L 258.592161 217.999587 
L 259.407876 215.292104 
L 259.815733 212.687036 
L 260.223591 212.59315 
L 260.631448 212.236392 
L 261.447163 207.698646 
L 261.855021 207.397588 
L 262.262878 206.727577 
L 262.670735 206.400369 
L 263.48645 203.810672 
L 263.894308 203.588679 
L 264.302165 203.511992 
L 264.710023 204.647392 
L 265.11788 204.77816 
L 265.525738 205.741421 
L 265.933595 206.413329 
L 266.74931 206.94881 
L 267.157168 204.652068 
L 267.565025 204.072811 
L 267.972883 204.573735 
L 268.38074 203.551199 
L 268.788598 201.669752 
L 269.196455 203.307343 
L 269.604312 203.9565 
L 270.01217 202.019001 
L 270.420027 201.780687 
L 270.827885 200.68956 
L 271.235742 195.170398 
L 271.6436 197.380405 
L 272.051457 188.252874 
L 272.867172 199.090861 
L 273.27503 197.684552 
L 273.682887 199.162087 
L 274.090745 198.613614 
L 274.498602 198.522502 
L 274.90646 197.091543 
L 275.314317 199.507113 
L 275.722175 200.176056 
L 276.130032 199.549757 
L 276.537889 198.177887 
L 276.945747 197.710194 
L 277.353604 196.639334 
L 277.761462 196.564752 
L 278.169319 198.460265 
L 278.577177 197.37684 
L 278.985034 195.836171 
L 279.392892 193.670887 
L 279.800749 193.465014 
L 280.208607 192.5696 
L 280.616464 192.67898 
L 281.024322 190.37396 
L 281.432179 190.320788 
L 281.840037 188.734381 
L 282.247894 188.481835 
L 282.655751 187.99773 
L 283.063609 186.481987 
L 283.879324 186.494515 
L 284.695039 185.881208 
L 285.102896 186.792852 
L 285.510754 185.247363 
L 285.918611 184.424586 
L 286.326469 187.370677 
L 286.734326 187.51711 
L 287.142184 187.377716 
L 287.550041 187.466685 
L 287.957899 187.392418 
L 288.365756 185.917288 
L 288.773614 186.26906 
L 289.181471 186.864805 
L 289.589328 186.207289 
L 289.997186 183.189191 
L 290.405043 184.016351 
L 290.812901 183.603872 
L 291.220758 180.395497 
L 291.628616 181.965229 
L 292.852188 177.779291 
L 293.260046 164.692106 
L 293.667903 169.711995 
L 294.075761 177.26196 
L 294.483618 178.647635 
L 295.299333 177.309039 
L 295.70719 175.996268 
L 296.115048 176.977726 
L 296.522905 176.699233 
L 296.930763 177.732116 
L 297.33862 175.400341 
L 297.746478 177.459913 
L 298.562193 175.321275 
L 298.97005 175.29124 
L 299.377908 175.930184 
L 299.785765 173.257311 
L 300.193623 172.805358 
L 300.60148 170.567496 
L 301.009338 172.622674 
L 301.417195 173.92977 
L 301.825053 171.419571 
L 302.640767 164.419181 
L 303.048625 165.949113 
L 303.456482 164.688787 
L 303.86434 164.000476 
L 304.272197 162.365692 
L 304.680055 163.045435 
L 305.087912 163.235462 
L 305.49577 163.064654 
L 305.903627 162.521103 
L 306.311485 161.654207 
L 306.719342 159.234666 
L 307.1272 162.291724 
L 307.535057 163.157193 
L 307.942915 163.320011 
L 308.350772 164.695612 
L 308.75863 165.459012 
L 309.574344 165.17558 
L 309.982202 165.705962 
L 310.390059 165.399966 
L 310.797917 166.093755 
L 311.613632 163.294443 
L 312.021489 165.056345 
L 312.429347 164.457784 
L 312.837204 162.967994 
L 313.245062 163.132571 
L 313.652919 162.415069 
L 314.060777 160.181065 
L 314.468634 147.830446 
L 314.876492 147.501639 
L 315.284349 159.590638 
L 315.692206 161.285703 
L 316.100064 161.632739 
L 316.507921 160.466052 
L 316.915779 158.890324 
L 317.731494 157.124659 
L 318.139351 157.074657 
L 318.547209 157.660461 
L 318.955066 157.24081 
L 319.362924 147.814172 
L 319.770781 143.699962 
L 320.178639 142.097842 
L 320.586496 143.292357 
L 321.810069 139.106596 
L 322.217926 139.400396 
L 322.625783 141.617254 
L 323.033641 139.585795 
L 323.441498 138.810487 
L 323.849356 140.624332 
L 324.257213 141.621557 
L 325.072928 138.485775 
L 325.480786 135.500354 
L 325.888643 135.27453 
L 326.296501 133.654234 
L 326.704358 135.053767 
L 327.112216 134.861362 
L 327.520073 135.967324 
L 327.927931 134.907586 
L 328.335788 134.91642 
L 328.743646 135.850185 
L 329.151503 137.501404 
L 329.55936 136.712382 
L 329.967218 138.606997 
L 330.782933 138.740715 
L 331.19079 139.471958 
L 331.598648 138.139546 
L 332.006505 138.327611 
L 332.414363 137.273955 
L 332.82222 135.366892 
L 333.230078 137.541722 
L 333.637935 137.979394 
L 334.045793 137.766648 
L 334.45365 140.210736 
L 334.861508 138.16343 
L 335.677222 129.886531 
L 336.08508 123.302905 
L 336.900795 133.152674 
L 337.308652 132.423682 
L 337.71651 133.333022 
L 338.124367 132.206483 
L 338.940082 131.241892 
L 339.34794 131.385032 
L 339.755797 133.024851 
L 340.163655 132.619117 
L 340.571512 132.414174 
L 340.97937 130.487251 
L 341.387227 133.644464 
L 342.202942 130.671517 
L 342.610799 132.913008 
L 343.018657 131.610958 
L 343.426514 128.222817 
L 343.834372 128.555695 
L 344.242229 126.540659 
L 344.650087 125.359922 
L 345.057944 127.213738 
L 345.465802 127.588544 
L 346.281517 120.175237 
L 346.689374 120.049028 
L 347.097232 119.682281 
L 347.505089 118.931441 
L 347.912947 116.205551 
L 348.320804 117.64366 
L 348.728661 116.283126 
L 349.136519 116.387342 
L 349.544376 117.620086 
L 349.952234 120.635938 
L 350.360091 121.335237 
L 350.767949 121.385448 
L 351.175806 122.898337 
L 351.583664 120.700841 
L 352.399379 121.875362 
L 352.807236 122.149292 
L 353.215094 121.924777 
L 353.622951 121.481525 
L 354.030809 123.864697 
L 354.438666 122.768183 
L 354.846524 123.292532 
L 355.254381 121.734392 
L 355.662238 122.81421 
L 356.477953 120.156606 
L 356.885811 114.859463 
L 357.293668 102.455799 
L 358.109383 114.854738 
L 358.517241 115.1952 
L 358.925098 116.933379 
L 359.332956 115.288381 
L 359.740813 118.06081 
L 360.148671 117.081323 
L 360.556528 113.637216 
L 360.964386 115.523226 
L 361.372243 115.516765 
L 361.780101 117.828434 
L 362.187958 113.906912 
L 362.595815 107.269917 
L 363.003673 107.42698 
L 363.41153 117.879371 
L 363.819388 106.145393 
L 364.635103 102.667947 
L 365.04296 106.37367 
L 365.450818 106.194835 
L 365.858675 104.845593 
L 366.266533 101.742354 
L 366.67439 102.38653 
L 367.490105 94.746063 
L 367.897963 95.517688 
L 368.30582 95.293184 
L 368.713677 92.834805 
L 369.121535 92.743287 
L 369.529392 93.6567 
L 369.93725 92.397608 
L 370.345107 93.241116 
L 370.752965 93.343425 
L 371.160822 96.693716 
L 371.56868 97.529127 
L 372.384395 100.545113 
L 372.792252 98.473549 
L 373.20011 99.615073 
L 373.607967 99.747257 
L 374.015825 96.884342 
L 374.423682 100.099547 
L 374.83154 100.992523 
L 375.239397 97.88309 
L 375.647254 97.042003 
L 376.055112 99.342443 
L 376.462969 95.805518 
L 376.870827 99.249327 
L 377.278684 99.553233 
L 377.686542 95.165863 
L 378.502257 80.900111 
L 378.910114 88.20104 
L 379.317972 93.175508 
L 379.725829 93.100546 
L 380.133687 93.688077 
L 380.541544 92.541031 
L 380.949402 92.675209 
L 381.357259 93.401246 
L 382.172974 91.071631 
L 382.580831 94.121923 
L 383.396546 86.813206 
L 383.804404 90.549415 
L 384.212261 86.236814 
L 384.620119 88.930423 
L 385.027976 89.591979 
L 385.435834 88.292387 
L 385.843691 85.094386 
L 386.251549 89.938224 
L 386.659406 89.777864 
L 387.067264 86.327065 
L 387.475121 86.912014 
L 387.882979 86.329 
L 388.290836 81.65372 
L 389.106551 77.046966 
L 389.514408 77.407555 
L 389.922266 77.231371 
L 390.330123 76.091936 
L 390.737981 77.497128 
L 391.145838 76.003421 
L 391.553696 77.010367 
L 391.961553 75.607467 
L 392.777268 81.060471 
L 393.185126 82.622688 
L 393.592983 81.550978 
L 394.000841 83.223494 
L 394.408698 82.758191 
L 394.816556 82.077336 
L 395.224413 81.772719 
L 395.63227 83.974378 
L 396.040128 84.666563 
L 396.447985 81.880816 
L 396.855843 82.83397 
L 397.2637 85.346916 
L 397.671558 82.759602 
L 398.079415 84.482383 
L 398.487273 85.028687 
L 398.487273 85.028687 
" clip-path="url(#pbf4bed527a)" style="fill: none; stroke: #ff7f0e; stroke-width: 1.5; stroke-linecap: square"/>
   </g>
   <g id="line2d_17">
    <path d="M 73.832727 295.306888 
L 79.950589 295.277082 
L 80.358447 295.344352 
L 81.174162 295.233674 
L 81.582019 295.31848 
L 81.989877 295.21941 
L 82.397734 295.317902 
L 83.621307 295.217571 
L 95.041316 295.281053 
L 95.449173 295.23958 
L 95.857031 295.335021 
L 97.080603 295.034743 
L 97.48846 295.226646 
L 112.579187 295.429959 
L 113.802759 295.434107 
L 118.289191 295.298304 
L 119.104906 295.324856 
L 119.512764 295.390314 
L 120.328479 295.356463 
L 121.144194 295.357152 
L 121.959909 295.366996 
L 122.367766 295.462079 
L 125.630626 295.367942 
L 142.352782 295.288268 
L 142.76064 295.145405 
L 143.984212 295.403809 
L 144.799927 295.144315 
L 145.207784 295.230478 
L 145.615642 295.113456 
L 147.654929 295.321366 
L 148.470644 295.239906 
L 148.878502 294.917064 
L 149.286359 295.126593 
L 149.694217 295.028774 
L 150.917789 295.216331 
L 151.325646 295.072935 
L 151.733504 295.120334 
L 152.549219 294.892341 
L 152.957076 294.945881 
L 153.772791 294.862935 
L 154.180649 295.00646 
L 154.996364 294.849564 
L 155.404221 295.095114 
L 159.482796 294.834252 
L 159.890653 294.618636 
L 160.298511 294.563893 
L 161.114226 294.745438 
L 161.929941 294.701271 
L 162.337798 294.963994 
L 163.969228 294.64198 
L 165.1928 294.67813 
L 165.600658 294.951509 
L 166.82423 294.493234 
L 167.639945 294.575298 
L 168.047803 294.515226 
L 168.45566 294.739784 
L 168.863518 294.520704 
L 169.679233 294.798396 
L 170.902805 294.414863 
L 172.126377 294.51443 
L 172.534235 294.300877 
L 172.942092 294.438656 
L 173.757807 294.134664 
L 174.165665 294.286014 
L 174.573522 294.178665 
L 174.98138 294.249891 
L 175.797095 294.201278 
L 176.61281 294.193785 
L 177.020667 294.085057 
L 177.428524 294.204351 
L 178.652097 294.03265 
L 179.059954 294.23258 
L 179.875669 294.078692 
L 180.283527 293.795463 
L 180.691384 293.666272 
L 181.099242 293.352698 
L 181.914957 293.308302 
L 182.322814 293.048866 
L 182.730672 293.563691 
L 183.138529 293.52713 
L 183.546386 293.231774 
L 183.954244 293.178111 
L 184.362101 292.776471 
L 184.769959 292.988779 
L 185.177816 292.430546 
L 185.993531 292.91836 
L 186.401389 292.815165 
L 186.809246 293.881701 
L 187.217104 293.805922 
L 187.624961 292.620461 
L 188.032819 292.490271 
L 188.440676 292.536612 
L 188.848534 292.759978 
L 189.256391 291.839494 
L 189.664249 292.611584 
L 190.072106 292.616282 
L 190.479963 292.178198 
L 190.887821 292.750336 
L 191.295678 291.96597 
L 191.703536 292.083393 
L 192.111393 292.52052 
L 192.927108 292.469978 
L 193.334966 292.761522 
L 193.742823 292.274558 
L 194.150681 292.563089 
L 194.558538 291.95115 
L 194.966396 292.423112 
L 195.374253 292.144875 
L 195.782111 292.539717 
L 196.189968 292.343667 
L 196.597825 292.683873 
L 197.41354 291.683271 
L 197.821398 292.493429 
L 198.229255 292.361924 
L 198.637113 291.932343 
L 199.04497 292.197732 
L 199.452828 292.61997 
L 199.860685 292.184675 
L 200.6764 291.810821 
L 201.084258 291.275185 
L 201.492115 291.534284 
L 201.899973 291.368291 
L 202.30783 290.907974 
L 202.715688 291.034391 
L 203.123545 288.196113 
L 203.531402 291.89529 
L 203.93926 292.197748 
L 204.347117 291.18891 
L 204.754975 291.185094 
L 205.57069 290.573417 
L 205.978547 290.61761 
L 206.386405 290.331827 
L 206.794262 290.460885 
L 207.609977 289.860725 
L 208.017835 291.793596 
L 208.425692 292.527527 
L 208.83355 289.396395 
L 209.241407 289.743147 
L 210.057122 289.33526 
L 210.464979 289.516805 
L 210.872837 289.467551 
L 211.280694 290.079799 
L 211.688552 287.732536 
L 212.096409 289.420573 
L 212.504267 289.41269 
L 212.912124 288.726725 
L 213.319982 289.082965 
L 213.727839 289.629044 
L 214.135697 289.284835 
L 214.543554 289.366615 
L 214.951412 288.126042 
L 215.359269 288.699191 
L 215.767127 288.291148 
L 216.174984 287.658527 
L 216.582841 289.120402 
L 216.990699 288.009566 
L 217.398556 289.076231 
L 217.806414 287.992089 
L 218.214271 288.456826 
L 218.622129 287.846186 
L 219.029986 289.331005 
L 219.437844 289.009452 
L 219.845701 288.016438 
L 220.661416 288.915106 
L 221.069274 288.601815 
L 221.477131 287.422602 
L 221.884989 288.174981 
L 222.292846 286.4397 
L 222.700704 286.98354 
L 223.108561 286.103529 
L 223.924276 285.300607 
L 224.739991 285.452742 
L 225.147848 285.512936 
L 225.555706 284.391689 
L 225.963563 285.586668 
L 226.371421 285.273986 
L 226.779278 284.137037 
L 227.187136 284.398177 
L 227.594993 284.142274 
L 228.002851 284.255304 
L 228.818566 285.561202 
L 229.226423 287.465042 
L 229.63428 288.611531 
L 230.042138 284.15315 
L 230.449995 283.730255 
L 230.857853 283.782182 
L 231.26571 284.260985 
L 231.673568 284.178707 
L 232.081425 283.941719 
L 232.89714 284.818982 
L 233.304998 283.728459 
L 233.712855 283.989525 
L 234.120713 283.26717 
L 234.52857 284.481106 
L 234.936428 284.588973 
L 235.344285 283.497008 
L 236.16 282.449882 
L 236.567857 281.795225 
L 236.975715 283.914446 
L 237.383572 282.857775 
L 237.79143 282.524592 
L 238.199287 283.54042 
L 238.607145 282.543073 
L 239.015002 283.322426 
L 239.42286 283.22854 
L 239.830717 282.759769 
L 240.238575 283.826995 
L 240.646432 284.362588 
L 241.05429 283.877441 
L 241.462147 283.021165 
L 241.870005 283.396174 
L 242.277862 284.293516 
L 242.68572 283.762167 
L 243.501434 281.66659 
L 243.909292 281.800094 
L 244.317149 279.822228 
L 245.132864 279.789868 
L 245.540722 278.581035 
L 245.948579 279.957635 
L 246.356437 279.754434 
L 246.764294 278.509831 
L 247.172152 277.850653 
L 247.580009 279.429652 
L 247.987867 278.039055 
L 248.803582 277.791821 
L 249.619296 278.355922 
L 250.027154 276.52148 
L 250.435011 279.228044 
L 250.842869 283.487724 
L 251.658584 276.569029 
L 252.066441 276.84057 
L 252.474299 276.275422 
L 252.882156 277.043359 
L 253.290014 277.529917 
L 253.697871 277.34493 
L 254.105729 277.311698 
L 254.513586 277.856874 
L 254.921444 276.959916 
L 255.329301 276.860627 
L 255.737159 276.349383 
L 256.145016 277.353743 
L 256.552873 277.506391 
L 256.960731 277.163807 
L 257.368588 277.22072 
L 257.776446 273.872347 
L 258.184303 278.198074 
L 258.592161 275.427462 
L 259.000018 275.477128 
L 259.407876 276.277859 
L 259.815733 278.401526 
L 260.223591 277.542813 
L 260.631448 276.154862 
L 261.039306 275.636825 
L 261.447163 278.542464 
L 261.855021 278.002761 
L 262.262878 278.011991 
L 262.670735 277.105627 
L 263.078593 278.043673 
L 263.48645 278.61548 
L 263.894308 278.857867 
L 264.302165 279.2314 
L 265.11788 275.517334 
L 265.525738 275.833885 
L 265.933595 275.186679 
L 266.341453 276.110492 
L 266.74931 274.543587 
L 267.157168 274.900366 
L 267.565025 275.728204 
L 267.972883 274.389764 
L 268.38074 274.923791 
L 268.788598 276.318097 
L 269.196455 274.324252 
L 269.604312 273.247865 
L 270.01217 274.634267 
L 270.420027 274.766606 
L 270.827885 290.043126 
L 271.235742 279.576053 
L 271.6436 276.59875 
L 272.051457 281.84968 
L 272.459315 280.498466 
L 272.867172 274.313023 
L 273.27503 275.489051 
L 273.682887 274.008972 
L 274.090745 274.076141 
L 274.498602 273.930062 
L 274.90646 276.678654 
L 275.314317 275.098415 
L 275.722175 274.226405 
L 276.130032 273.721014 
L 276.537889 275.174146 
L 276.945747 275.337371 
L 277.353604 276.070409 
L 277.761462 275.835654 
L 278.169319 271.397737 
L 278.577177 273.484656 
L 278.985034 272.332709 
L 279.392892 275.633367 
L 279.800749 273.579151 
L 280.208607 273.06338 
L 281.024322 274.360503 
L 281.432179 273.264588 
L 282.247894 275.798623 
L 282.655751 276.778269 
L 283.063609 277.448008 
L 283.879324 275.743521 
L 284.695039 277.781614 
L 285.102896 277.033071 
L 285.510754 276.653616 
L 285.918611 276.759404 
L 286.326469 272.417905 
L 286.734326 271.927665 
L 287.142184 271.871634 
L 287.550041 271.928691 
L 287.957899 271.818895 
L 288.365756 272.343719 
L 288.773614 271.025438 
L 289.181471 271.547996 
L 289.589328 268.66297 
L 289.997186 271.772184 
L 290.405043 270.513034 
L 290.812901 268.341769 
L 291.220758 270.774912 
L 291.628616 268.739219 
L 292.036473 270.080647 
L 292.444331 270.123467 
L 292.852188 271.432299 
L 293.260046 283.245936 
L 294.075761 271.196738 
L 294.483618 270.752657 
L 294.891476 270.486616 
L 295.299333 269.848907 
L 295.70719 272.261468 
L 296.115048 271.078919 
L 296.522905 271.836136 
L 296.930763 269.110706 
L 297.33862 270.85193 
L 298.154335 269.43808 
L 298.562193 270.52073 
L 298.97005 270.026802 
L 299.377908 269.339197 
L 299.785765 271.85761 
L 300.193623 268.681178 
L 300.60148 270.813349 
L 301.009338 269.044531 
L 301.417195 268.615057 
L 301.825053 268.714827 
L 302.640767 272.023512 
L 303.048625 270.019475 
L 303.456482 271.442646 
L 303.86434 271.790046 
L 304.272197 271.569368 
L 304.680055 272.419738 
L 305.087912 270.600581 
L 305.49577 272.283177 
L 305.903627 271.742988 
L 306.311485 271.953874 
L 306.719342 274.318709 
L 307.535057 269.057363 
L 307.942915 269.05506 
L 308.350772 269.20844 
L 308.75863 267.92696 
L 309.166487 268.681638 
L 309.574344 269.093898 
L 309.982202 266.604034 
L 310.390059 268.083574 
L 310.797917 267.705134 
L 311.613632 269.331234 
L 312.021489 265.814094 
L 312.837204 267.89088 
L 313.245062 267.852993 
L 313.652919 267.549792 
L 314.060777 269.3373 
L 314.468634 280.39597 
L 314.876492 280.160072 
L 315.284349 268.869415 
L 315.692206 267.411719 
L 316.100064 267.118084 
L 316.507921 267.448414 
L 316.915779 268.02324 
L 317.323636 269.466309 
L 317.731494 268.889612 
L 318.139351 269.519459 
L 318.547209 268.683076 
L 318.955066 268.176059 
L 319.362924 277.829158 
L 319.770781 282.579944 
L 320.178639 283.89186 
L 320.994354 281.602125 
L 321.810069 282.777368 
L 322.217926 282.766529 
L 322.625783 279.950538 
L 323.033641 279.987938 
L 323.441498 281.408293 
L 323.849356 276.732986 
L 324.257213 278.025769 
L 324.665071 277.606011 
L 325.072928 276.674352 
L 325.480786 280.41785 
L 325.888643 279.02557 
L 326.296501 279.554001 
L 326.704358 278.25892 
L 327.112216 277.632172 
L 327.520073 278.579758 
L 327.927931 277.928703 
L 328.335788 278.561352 
L 328.743646 278.003953 
L 329.151503 275.534955 
L 329.55936 275.625628 
L 329.967218 272.622314 
L 330.375075 274.702296 
L 330.782933 274.717752 
L 331.19079 273.020432 
L 331.598648 274.90027 
L 332.006505 276.039449 
L 332.414363 276.060864 
L 332.82222 275.566155 
L 333.230078 277.378546 
L 334.045793 274.524941 
L 334.45365 273.384987 
L 334.861508 275.526521 
L 335.269365 277.063839 
L 335.677222 280.613136 
L 336.08508 285.252438 
L 336.900795 275.632491 
L 337.308652 276.583042 
L 338.532225 275.770062 
L 338.940082 277.334236 
L 339.34794 276.903912 
L 339.755797 272.770772 
L 340.163655 272.628054 
L 340.571512 271.136105 
L 340.97937 275.849555 
L 341.387227 273.616498 
L 341.795085 274.382864 
L 342.202942 275.507196 
L 342.610799 273.408187 
L 343.018657 269.795511 
L 343.426514 276.469174 
L 343.834372 274.243053 
L 344.242229 276.715606 
L 344.650087 278.396556 
L 345.057944 271.887972 
L 345.465802 270.918276 
L 345.873659 272.697281 
L 346.281517 276.38463 
L 346.689374 278.204503 
L 347.097232 276.235632 
L 347.505089 276.527364 
L 347.912947 278.047099 
L 348.320804 276.172792 
L 349.136519 276.263594 
L 349.544376 278.353367 
L 349.952234 273.545823 
L 350.360091 271.712065 
L 350.767949 273.819442 
L 351.175806 271.113407 
L 351.583664 272.890899 
L 351.991521 270.601805 
L 352.807236 272.461484 
L 353.215094 272.384898 
L 353.622951 273.257998 
L 354.030809 270.738634 
L 354.438666 270.29055 
L 354.846524 271.552111 
L 355.254381 270.964597 
L 355.662238 269.125986 
L 356.070096 270.466831 
L 356.477953 270.449243 
L 356.885811 274.329997 
L 357.293668 283.752964 
L 357.701526 278.633828 
L 358.109383 277.183672 
L 358.517241 272.566422 
L 358.925098 270.627336 
L 359.332956 275.142293 
L 359.740813 270.453887 
L 360.148671 269.529502 
L 360.556528 272.922549 
L 360.964386 271.842934 
L 361.372243 271.81649 
L 361.780101 270.122345 
L 362.187958 266.784206 
L 362.595815 272.646204 
L 363.003673 272.705554 
L 363.41153 260.769475 
L 363.819388 272.016816 
L 364.227245 270.982548 
L 364.635103 276.192642 
L 365.450818 271.139237 
L 365.858675 274.336806 
L 366.266533 274.296845 
L 366.67439 272.052271 
L 367.082248 272.175684 
L 367.490105 276.854914 
L 367.897963 270.330719 
L 368.30582 272.885565 
L 368.713677 277.045994 
L 369.121535 278.978913 
L 369.529392 276.38836 
L 369.93725 277.974612 
L 370.752965 277.58915 
L 371.160822 276.283599 
L 371.56868 274.495028 
L 371.976537 271.604016 
L 372.384395 270.329436 
L 372.792252 270.869636 
L 373.20011 270.117187 
L 373.607967 268.11214 
L 374.015825 272.297153 
L 374.423682 272.64925 
L 374.83154 269.355674 
L 375.239397 268.825687 
L 375.647254 272.682893 
L 376.055112 268.630364 
L 376.462969 273.987071 
L 376.870827 268.900007 
L 377.278684 268.572734 
L 377.686542 270.656019 
L 378.094399 274.976968 
L 378.502257 280.899497 
L 379.317972 271.241839 
L 379.725829 269.89799 
L 380.133687 269.72863 
L 380.541544 273.293544 
L 381.357259 270.344411 
L 381.765116 273.142783 
L 382.172974 273.34368 
L 382.580831 268.624378 
L 382.988689 272.708963 
L 383.396546 274.746489 
L 383.804404 269.45996 
L 384.212261 274.980811 
L 385.027976 268.97593 
L 385.843691 274.667749 
L 386.251549 269.757325 
L 386.659406 268.456878 
L 387.067264 273.575832 
L 387.475121 273.039977 
L 387.882979 270.687006 
L 388.290836 275.326329 
L 388.698693 276.307552 
L 389.106551 274.880234 
L 389.514408 276.094154 
L 389.922266 275.860575 
L 390.330123 276.545776 
L 390.737981 274.985343 
L 391.145838 276.871033 
L 391.553696 274.505914 
L 391.961553 277.502318 
L 392.777268 268.069817 
L 393.185126 268.094909 
L 393.592983 271.320424 
L 394.000841 270.489631 
L 394.408698 266.977857 
L 394.816556 270.025792 
L 395.224413 269.102796 
L 395.63227 271.188668 
L 396.040128 267.680314 
L 396.855843 270.847901 
L 397.2637 268.55374 
L 397.671558 272.409183 
L 398.079415 268.406223 
L 398.487273 282.086732 
L 398.487273 282.086732 
" clip-path="url(#pbf4bed527a)" style="fill: none; stroke: #2ca02c; stroke-width: 1.5; stroke-linecap: square"/>
   </g>
   <g id="patch_3">
    <path d="M 57.6 307.584 
L 57.6 41.472 
" style="fill: none; stroke: #000000; stroke-width: 0.8; stroke-linejoin: miter; stroke-linecap: square"/>
   </g>
   <g id="patch_4">
    <path d="M 414.72 307.584 
L 414.72 41.472 
" style="fill: none; stroke: #000000; stroke-width: 0.8; stroke-linejoin: miter; stroke-linecap: square"/>
   </g>
   <g id="patch_5">
    <path d="M 57.6 307.584 
L 414.72 307.584 
" style="fill: none; stroke: #000000; stroke-width: 0.8; stroke-linejoin: miter; stroke-linecap: square"/>
   </g>
   <g id="patch_6">
    <path d="M 57.6 41.472 
L 414.72 41.472 
" style="fill: none; stroke: #000000; stroke-width: 0.8; stroke-linejoin: miter; stroke-linecap: square"/>
   </g>
   <g id="legend_1">
    <g id="patch_7">
     <path d="M 64.6 93.506375 
L 186.25625 93.506375 
Q 188.25625 93.506375 188.25625 91.506375 
L 188.25625 48.472 
Q 188.25625 46.472 186.25625 46.472 
L 64.6 46.472 
Q 62.6 46.472 62.6 48.472 
L 62.6 91.506375 
Q 62.6 93.506375 64.6 93.506375 
z
" style="fill: #ffffff; opacity: 0.8; stroke: #cccccc; stroke-linejoin: miter"/>
    </g>
    <g id="line2d_18">
     <path d="M 66.6 54.570438 
L 76.6 54.570438 
L 86.6 54.570438 
" style="fill: none; stroke: #1f77b4; stroke-width: 1.5; stroke-linecap: square"/>
    </g>
    <g id="text_17">
     <!-- Weekly maximum -->
     <g transform="translate(94.6 58.070438) scale(0.1 -0.1)">
      <defs>
       <path id="DejaVuSans-57" d="M 213 4666 
L 850 4666 
L 1831 722 
L 2809 4666 
L 3519 4666 
L 4500 722 
L 5478 4666 
L 6119 4666 
L 4947 0 
L 4153 0 
L 3169 4050 
L 2175 0 
L 1381 0 
L 213 4666 
z
" transform="scale(0.015625)"/>
       <path id="DejaVuSans-6b" d="M 581 4863 
L 1159 4863 
L 1159 1991 
L 2875 3500 
L 3609 3500 
L 1753 1863 
L 3688 0 
L 2938 0 
L 1159 1709 
L 1159 0 
L 581 0 
L 581 4863 
z
" transform="scale(0.015625)"/>
       <path id="DejaVuSans-79" d="M 2059 -325 
Q 1816 -950 1584 -1140 
Q 1353 -1331 966 -1331 
L 506 -1331 
L 506 -850 
L 844 -850 
Q 1081 -850 1212 -737 
Q 1344 -625 1503 -206 
L 1606 56 
L 191 3500 
L 800 3500 
L 1894 763 
L 2988 3500 
L 3597 3500 
L 2059 -325 
z
" transform="scale(0.015625)"/>
       <path id="DejaVuSans-6d" d="M 3328 2828 
Q 3544 3216 3844 3400 
Q 4144 3584 4550 3584 
Q 5097 3584 5394 3201 
Q 5691 2819 5691 2113 
L 5691 0 
L 5113 0 
L 5113 2094 
Q 5113 2597 4934 2840 
Q 4756 3084 4391 3084 
Q 3944 3084 3684 2787 
Q 3425 2491 3425 1978 
L 3425 0 
L 2847 0 
L 2847 2094 
Q 2847 2600 2669 2842 
Q 2491 3084 2119 3084 
Q 1678 3084 1418 2786 
Q 1159 2488 1159 1978 
L 1159 0 
L 581 0 
L 581 3500 
L 1159 3500 
L 1159 2956 
Q 1356 3278 1631 3431 
Q 1906 3584 2284 3584 
Q 2666 3584 2933 3390 
Q 3200 3197 3328 2828 
z
" transform="scale(0.015625)"/>
       <path id="DejaVuSans-78" d="M 3513 3500 
L 2247 1797 
L 3578 0 
L 2900 0 
L 1881 1375 
L 863 0 
L 184 0 
L 1544 1831 
L 300 3500 
L 978 3500 
L 1906 2253 
L 2834 3500 
L 3513 3500 
z
" transform="scale(0.015625)"/>
       <path id="DejaVuSans-75" d="M 544 1381 
L 544 3500 
L 1119 3500 
L 1119 1403 
Q 1119 906 1312 657 
Q 1506 409 1894 409 
Q 2359 409 2629 706 
Q 2900 1003 2900 1516 
L 2900 3500 
L 3475 3500 
L 3475 0 
L 2900 0 
L 2900 538 
Q 2691 219 2414 64 
Q 2138 -91 1772 -91 
Q 1169 -91 856 284 
Q 544 659 544 1381 
z
M 1991 3584 
L 1991 3584 
z
" transform="scale(0.015625)"/>
      </defs>
      <use xlink:href="#DejaVuSans-57"/>
      <use xlink:href="#DejaVuSans-65" x="93.001953"/>
      <use xlink:href="#DejaVuSans-65" x="154.525391"/>
      <use xlink:href="#DejaVuSans-6b" x="216.048828"/>
      <use xlink:href="#DejaVuSans-6c" x="273.958984"/>
      <use xlink:href="#DejaVuSans-79" x="301.742188"/>
      <use xlink:href="#DejaVuSans-20" x="360.921875"/>
      <use xlink:href="#DejaVuSans-6d" x="392.708984"/>
      <use xlink:href="#DejaVuSans-61" x="490.121094"/>
      <use xlink:href="#DejaVuSans-78" x="551.400391"/>
      <use xlink:href="#DejaVuSans-69" x="610.580078"/>
      <use xlink:href="#DejaVuSans-6d" x="638.363281"/>
      <use xlink:href="#DejaVuSans-75" x="735.775391"/>
      <use xlink:href="#DejaVuSans-6d" x="799.154297"/>
     </g>
    </g>
    <g id="line2d_19">
     <path d="M 66.6 69.248563 
L 76.6 69.248563 
L 86.6 69.248563 
" style="fill: none; stroke: #ff7f0e; stroke-width: 1.5; stroke-linecap: square"/>
    </g>
    <g id="text_18">
     <!-- Weekly minimum -->
     <g transform="translate(94.6 72.748563) scale(0.1 -0.1)">
      <defs>
       <path id="DejaVuSans-6e" d="M 3513 2113 
L 3513 0 
L 2938 0 
L 2938 2094 
Q 2938 2591 2744 2837 
Q 2550 3084 2163 3084 
Q 1697 3084 1428 2787 
Q 1159 2491 1159 1978 
L 1159 0 
L 581 0 
L 581 3500 
L 1159 3500 
L 1159 2956 
Q 1366 3272 1645 3428 
Q 1925 3584 2291 3584 
Q 2894 3584 3203 3211 
Q 3513 2838 3513 2113 
z
" transform="scale(0.015625)"/>
      </defs>
      <use xlink:href="#DejaVuSans-57"/>
      <use xlink:href="#DejaVuSans-65" x="93.001953"/>
      <use xlink:href="#DejaVuSans-65" x="154.525391"/>
      <use xlink:href="#DejaVuSans-6b" x="216.048828"/>
      <use xlink:href="#DejaVuSans-6c" x="273.958984"/>
      <use xlink:href="#DejaVuSans-79" x="301.742188"/>
      <use xlink:href="#DejaVuSans-20" x="360.921875"/>
      <use xlink:href="#DejaVuSans-6d" x="392.708984"/>
      <use xlink:href="#DejaVuSans-69" x="490.121094"/>
      <use xlink:href="#DejaVuSans-6e" x="517.904297"/>
      <use xlink:href="#DejaVuSans-69" x="581.283203"/>
      <use xlink:href="#DejaVuSans-6d" x="609.066406"/>
      <use xlink:href="#DejaVuSans-75" x="706.478516"/>
      <use xlink:href="#DejaVuSans-6d" x="769.857422"/>
     </g>
    </g>
    <g id="line2d_20">
     <path d="M 66.6 83.926688 
L 76.6 83.926688 
L 86.6 83.926688 
" style="fill: none; stroke: #2ca02c; stroke-width: 1.5; stroke-linecap: square"/>
    </g>
    <g id="text_19">
     <!-- Weekly range -->
     <g transform="translate(94.6 87.426688) scale(0.1 -0.1)">
      <use xlink:href="#DejaVuSans-57"/>
      <use xlink:href="#DejaVuSans-65" x="93.001953"/>
      <use xlink:href="#DejaVuSans-65" x="154.525391"/>
      <use xlink:href="#DejaVuSans-6b" x="216.048828"/>
      <use xlink:href="#DejaVuSans-6c" x="273.958984"/>
      <use xlink:href="#DejaVuSans-79" x="301.742188"/>
      <use xlink:href="#DejaVuSans-20" x="360.921875"/>
      <use xlink:href="#DejaVuSans-72" x="392.708984"/>
      <use xlink:href="#DejaVuSans-61" x="433.822266"/>
      <use xlink:href="#DejaVuSans-6e" x="495.101562"/>
      <use xlink:href="#DejaVuSans-67" x="558.480469"/>
      <use xlink:href="#DejaVuSans-65" x="621.957031"/>
     </g>
    </g>
   </g>
  </g>
 </g>
 <defs>
  <clipPath id="pbf4bed527a">
   <rect x="57.6" y="41.472" width="357.12" height="266.112"/>
  </clipPath>
 </defs>
</svg>
