<?xml version="1.0" encoding="utf-8" standalone="no"?>
<!DOCTYPE svg PUBLIC "-//W3C//DTD SVG 1.1//EN"
  "http://www.w3.org/Graphics/SVG/1.1/DTD/svg11.dtd">
<svg xmlns:xlink="http://www.w3.org/1999/xlink" width="460.8pt" height="345.6pt" viewBox="0 0 460.8 345.6" xmlns="http://www.w3.org/2000/svg" version="1.1">
 <metadata>
  <rdf:RDF xmlns:dc="http://purl.org/dc/elements/1.1/" xmlns:cc="http://creativecommons.org/ns#" xmlns:rdf="http://www.w3.org/1999/02/22-rdf-syntax-ns#">
   <cc:Work>
    <dc:type rdf:resource="http://purl.org/dc/dcmitype/StillImage"/>
    <dc:date>2024-02-20T05:32:38.649118</dc:date>
    <dc:format>image/svg+xml</dc:format>
    <dc:creator>
     <cc:Agent>
      <dc:title>Matplotlib v3.8.3, https://matplotlib.org/</dc:title>
     </cc:Agent>
    </dc:creator>
   </cc:Work>
  </rdf:RDF>
 </metadata>
 <defs>
  <style type="text/css">*{stroke-linejoin: round; stroke-linecap: butt}</style>
 </defs>
 <g id="figure_1">
  <g id="patch_1">
   <path d="M 0 345.6 
L 460.8 345.6 
L 460.8 0 
L 0 0 
z
" style="fill: #ffffff"/>
  </g>
  <g id="axes_1">
   <g id="patch_2">
    <path d="M 57.6 307.584 
L 414.72 307.584 
L 414.72 41.472 
L 57.6 41.472 
z
" style="fill: #ffffff"/>
   </g>
   <g id="matplotlib.axis_1">
    <g id="xtick_1">
     <g id="line2d_1">
      <defs>
       <path id="m14b1d547bd" d="M 0 0 
L 0 3.5 
" style="stroke: #000000; stroke-width: 0.8"/>
      </defs>
      <g>
       <use xlink:href="#m14b1d547bd" x="59.792368" y="307.584" style="stroke: #000000; stroke-width: 0.8"/>
      </g>
     </g>
     <g id="text_1">
      <!-- 2008 -->
      <g transform="translate(47.067368 322.182437) scale(0.1 -0.1)">
       <defs>
        <path id="DejaVuSans-32" d="M 1228 531 
L 3431 531 
L 3431 0 
L 469 0 
L 469 531 
Q 828 903 1448 1529 
Q 2069 2156 2228 2338 
Q 2531 2678 2651 2914 
Q 2772 3150 2772 3378 
Q 2772 3750 2511 3984 
Q 2250 4219 1831 4219 
Q 1534 4219 1204 4116 
Q 875 4013 500 3803 
L 500 4441 
Q 881 4594 1212 4672 
Q 1544 4750 1819 4750 
Q 2544 4750 2975 4387 
Q 3406 4025 3406 3419 
Q 3406 3131 3298 2873 
Q 3191 2616 2906 2266 
Q 2828 2175 2409 1742 
Q 1991 1309 1228 531 
z
" transform="scale(0.015625)"/>
        <path id="DejaVuSans-30" d="M 2034 4250 
Q 1547 4250 1301 3770 
Q 1056 3291 1056 2328 
Q 1056 1369 1301 889 
Q 1547 409 2034 409 
Q 2525 409 2770 889 
Q 3016 1369 3016 2328 
Q 3016 3291 2770 3770 
Q 2525 4250 2034 4250 
z
M 2034 4750 
Q 2819 4750 3233 4129 
Q 3647 3509 3647 2328 
Q 3647 1150 3233 529 
Q 2819 -91 2034 -91 
Q 1250 -91 836 529 
Q 422 1150 422 2328 
Q 422 3509 836 4129 
Q 1250 4750 2034 4750 
z
" transform="scale(0.015625)"/>
        <path id="DejaVuSans-38" d="M 2034 2216 
Q 1584 2216 1326 1975 
Q 1069 1734 1069 1313 
Q 1069 891 1326 650 
Q 1584 409 2034 409 
Q 2484 409 2743 651 
Q 3003 894 3003 1313 
Q 3003 1734 2745 1975 
Q 2488 2216 2034 2216 
z
M 1403 2484 
Q 997 2584 770 2862 
Q 544 3141 544 3541 
Q 544 4100 942 4425 
Q 1341 4750 2034 4750 
Q 2731 4750 3128 4425 
Q 3525 4100 3525 3541 
Q 3525 3141 3298 2862 
Q 3072 2584 2669 2484 
Q 3125 2378 3379 2068 
Q 3634 1759 3634 1313 
Q 3634 634 3220 271 
Q 2806 -91 2034 -91 
Q 1263 -91 848 271 
Q 434 634 434 1313 
Q 434 1759 690 2068 
Q 947 2378 1403 2484 
z
M 1172 3481 
Q 1172 3119 1398 2916 
Q 1625 2713 2034 2713 
Q 2441 2713 2670 2916 
Q 2900 3119 2900 3481 
Q 2900 3844 2670 4047 
Q 2441 4250 2034 4250 
Q 1625 4250 1398 4047 
Q 1172 3844 1172 3481 
z
" transform="scale(0.015625)"/>
       </defs>
       <use xlink:href="#DejaVuSans-32"/>
       <use xlink:href="#DejaVuSans-30" x="63.623047"/>
       <use xlink:href="#DejaVuSans-30" x="127.246094"/>
       <use xlink:href="#DejaVuSans-38" x="190.869141"/>
      </g>
     </g>
    </g>
    <g id="xtick_2">
     <g id="line2d_2">
      <g>
       <use xlink:href="#m14b1d547bd" x="101.855904" y="307.584" style="stroke: #000000; stroke-width: 0.8"/>
      </g>
     </g>
     <g id="text_2">
      <!-- 2010 -->
      <g transform="translate(89.130904 322.182437) scale(0.1 -0.1)">
       <defs>
        <path id="DejaVuSans-31" d="M 794 531 
L 1825 531 
L 1825 4091 
L 703 3866 
L 703 4441 
L 1819 4666 
L 2450 4666 
L 2450 531 
L 3481 531 
L 3481 0 
L 794 0 
L 794 531 
z
" transform="scale(0.015625)"/>
       </defs>
       <use xlink:href="#DejaVuSans-32"/>
       <use xlink:href="#DejaVuSans-30" x="63.623047"/>
       <use xlink:href="#DejaVuSans-31" x="127.246094"/>
       <use xlink:href="#DejaVuSans-30" x="190.869141"/>
      </g>
     </g>
    </g>
    <g id="xtick_3">
     <g id="line2d_3">
      <g>
       <use xlink:href="#m14b1d547bd" x="143.861898" y="307.584" style="stroke: #000000; stroke-width: 0.8"/>
      </g>
     </g>
     <g id="text_3">
      <!-- 2012 -->
      <g transform="translate(131.136898 322.182437) scale(0.1 -0.1)">
       <use xlink:href="#DejaVuSans-32"/>
       <use xlink:href="#DejaVuSans-30" x="63.623047"/>
       <use xlink:href="#DejaVuSans-31" x="127.246094"/>
       <use xlink:href="#DejaVuSans-32" x="190.869141"/>
      </g>
     </g>
    </g>
    <g id="xtick_4">
     <g id="line2d_4">
      <g>
       <use xlink:href="#m14b1d547bd" x="185.925435" y="307.584" style="stroke: #000000; stroke-width: 0.8"/>
      </g>
     </g>
     <g id="text_4">
      <!-- 2014 -->
      <g transform="translate(173.200435 322.182437) scale(0.1 -0.1)">
       <defs>
        <path id="DejaVuSans-34" d="M 2419 4116 
L 825 1625 
L 2419 1625 
L 2419 4116 
z
M 2253 4666 
L 3047 4666 
L 3047 1625 
L 3713 1625 
L 3713 1100 
L 3047 1100 
L 3047 0 
L 2419 0 
L 2419 1100 
L 313 1100 
L 313 1709 
L 2253 4666 
z
" transform="scale(0.015625)"/>
       </defs>
       <use xlink:href="#DejaVuSans-32"/>
       <use xlink:href="#DejaVuSans-30" x="63.623047"/>
       <use xlink:href="#DejaVuSans-31" x="127.246094"/>
       <use xlink:href="#DejaVuSans-34" x="190.869141"/>
      </g>
     </g>
    </g>
    <g id="xtick_5">
     <g id="line2d_5">
      <g>
       <use xlink:href="#m14b1d547bd" x="227.931429" y="307.584" style="stroke: #000000; stroke-width: 0.8"/>
      </g>
     </g>
     <g id="text_5">
      <!-- 2016 -->
      <g transform="translate(215.206429 322.182437) scale(0.1 -0.1)">
       <defs>
        <path id="DejaVuSans-36" d="M 2113 2584 
Q 1688 2584 1439 2293 
Q 1191 2003 1191 1497 
Q 1191 994 1439 701 
Q 1688 409 2113 409 
Q 2538 409 2786 701 
Q 3034 994 3034 1497 
Q 3034 2003 2786 2293 
Q 2538 2584 2113 2584 
z
M 3366 4563 
L 3366 3988 
Q 3128 4100 2886 4159 
Q 2644 4219 2406 4219 
Q 1781 4219 1451 3797 
Q 1122 3375 1075 2522 
Q 1259 2794 1537 2939 
Q 1816 3084 2150 3084 
Q 2853 3084 3261 2657 
Q 3669 2231 3669 1497 
Q 3669 778 3244 343 
Q 2819 -91 2113 -91 
Q 1303 -91 875 529 
Q 447 1150 447 2328 
Q 447 3434 972 4092 
Q 1497 4750 2381 4750 
Q 2619 4750 2861 4703 
Q 3103 4656 3366 4563 
z
" transform="scale(0.015625)"/>
       </defs>
       <use xlink:href="#DejaVuSans-32"/>
       <use xlink:href="#DejaVuSans-30" x="63.623047"/>
       <use xlink:href="#DejaVuSans-31" x="127.246094"/>
       <use xlink:href="#DejaVuSans-36" x="190.869141"/>
      </g>
     </g>
    </g>
    <g id="xtick_6">
     <g id="line2d_6">
      <g>
       <use xlink:href="#m14b1d547bd" x="269.994965" y="307.584" style="stroke: #000000; stroke-width: 0.8"/>
      </g>
     </g>
     <g id="text_6">
      <!-- 2018 -->
      <g transform="translate(257.269965 322.182437) scale(0.1 -0.1)">
       <use xlink:href="#DejaVuSans-32"/>
       <use xlink:href="#DejaVuSans-30" x="63.623047"/>
       <use xlink:href="#DejaVuSans-31" x="127.246094"/>
       <use xlink:href="#DejaVuSans-38" x="190.869141"/>
      </g>
     </g>
    </g>
    <g id="xtick_7">
     <g id="line2d_7">
      <g>
       <use xlink:href="#m14b1d547bd" x="312.000959" y="307.584" style="stroke: #000000; stroke-width: 0.8"/>
      </g>
     </g>
     <g id="text_7">
      <!-- 2020 -->
      <g transform="translate(299.275959 322.182437) scale(0.1 -0.1)">
       <use xlink:href="#DejaVuSans-32"/>
       <use xlink:href="#DejaVuSans-30" x="63.623047"/>
       <use xlink:href="#DejaVuSans-32" x="127.246094"/>
       <use xlink:href="#DejaVuSans-30" x="190.869141"/>
      </g>
     </g>
    </g>
    <g id="xtick_8">
     <g id="line2d_8">
      <g>
       <use xlink:href="#m14b1d547bd" x="354.064496" y="307.584" style="stroke: #000000; stroke-width: 0.8"/>
      </g>
     </g>
     <g id="text_8">
      <!-- 2022 -->
      <g transform="translate(341.339496 322.182437) scale(0.1 -0.1)">
       <use xlink:href="#DejaVuSans-32"/>
       <use xlink:href="#DejaVuSans-30" x="63.623047"/>
       <use xlink:href="#DejaVuSans-32" x="127.246094"/>
       <use xlink:href="#DejaVuSans-32" x="190.869141"/>
      </g>
     </g>
    </g>
    <g id="xtick_9">
     <g id="line2d_9">
      <g>
       <use xlink:href="#m14b1d547bd" x="396.07049" y="307.584" style="stroke: #000000; stroke-width: 0.8"/>
      </g>
     </g>
     <g id="text_9">
      <!-- 2024 -->
      <g transform="translate(383.34549 322.182437) scale(0.1 -0.1)">
       <use xlink:href="#DejaVuSans-32"/>
       <use xlink:href="#DejaVuSans-30" x="63.623047"/>
       <use xlink:href="#DejaVuSans-32" x="127.246094"/>
       <use xlink:href="#DejaVuSans-34" x="190.869141"/>
      </g>
     </g>
    </g>
    <g id="text_10">
     <!-- Updated 2024-02-20 05:32:38.647503 - Last record 2024-02-18 -->
     <g transform="translate(75.905312 335.860562) scale(0.1 -0.1)">
      <defs>
       <path id="DejaVuSans-55" d="M 556 4666 
L 1191 4666 
L 1191 1831 
Q 1191 1081 1462 751 
Q 1734 422 2344 422 
Q 2950 422 3222 751 
Q 3494 1081 3494 1831 
L 3494 4666 
L 4128 4666 
L 4128 1753 
Q 4128 841 3676 375 
Q 3225 -91 2344 -91 
Q 1459 -91 1007 375 
Q 556 841 556 1753 
L 556 4666 
z
" transform="scale(0.015625)"/>
       <path id="DejaVuSans-70" d="M 1159 525 
L 1159 -1331 
L 581 -1331 
L 581 3500 
L 1159 3500 
L 1159 2969 
Q 1341 3281 1617 3432 
Q 1894 3584 2278 3584 
Q 2916 3584 3314 3078 
Q 3713 2572 3713 1747 
Q 3713 922 3314 415 
Q 2916 -91 2278 -91 
Q 1894 -91 1617 61 
Q 1341 213 1159 525 
z
M 3116 1747 
Q 3116 2381 2855 2742 
Q 2594 3103 2138 3103 
Q 1681 3103 1420 2742 
Q 1159 2381 1159 1747 
Q 1159 1113 1420 752 
Q 1681 391 2138 391 
Q 2594 391 2855 752 
Q 3116 1113 3116 1747 
z
" transform="scale(0.015625)"/>
       <path id="DejaVuSans-64" d="M 2906 2969 
L 2906 4863 
L 3481 4863 
L 3481 0 
L 2906 0 
L 2906 525 
Q 2725 213 2448 61 
Q 2172 -91 1784 -91 
Q 1150 -91 751 415 
Q 353 922 353 1747 
Q 353 2572 751 3078 
Q 1150 3584 1784 3584 
Q 2172 3584 2448 3432 
Q 2725 3281 2906 2969 
z
M 947 1747 
Q 947 1113 1208 752 
Q 1469 391 1925 391 
Q 2381 391 2643 752 
Q 2906 1113 2906 1747 
Q 2906 2381 2643 2742 
Q 2381 3103 1925 3103 
Q 1469 3103 1208 2742 
Q 947 2381 947 1747 
z
" transform="scale(0.015625)"/>
       <path id="DejaVuSans-61" d="M 2194 1759 
Q 1497 1759 1228 1600 
Q 959 1441 959 1056 
Q 959 750 1161 570 
Q 1363 391 1709 391 
Q 2188 391 2477 730 
Q 2766 1069 2766 1631 
L 2766 1759 
L 2194 1759 
z
M 3341 1997 
L 3341 0 
L 2766 0 
L 2766 531 
Q 2569 213 2275 61 
Q 1981 -91 1556 -91 
Q 1019 -91 701 211 
Q 384 513 384 1019 
Q 384 1609 779 1909 
Q 1175 2209 1959 2209 
L 2766 2209 
L 2766 2266 
Q 2766 2663 2505 2880 
Q 2244 3097 1772 3097 
Q 1472 3097 1187 3025 
Q 903 2953 641 2809 
L 641 3341 
Q 956 3463 1253 3523 
Q 1550 3584 1831 3584 
Q 2591 3584 2966 3190 
Q 3341 2797 3341 1997 
z
" transform="scale(0.015625)"/>
       <path id="DejaVuSans-74" d="M 1172 4494 
L 1172 3500 
L 2356 3500 
L 2356 3053 
L 1172 3053 
L 1172 1153 
Q 1172 725 1289 603 
Q 1406 481 1766 481 
L 2356 481 
L 2356 0 
L 1766 0 
Q 1100 0 847 248 
Q 594 497 594 1153 
L 594 3053 
L 172 3053 
L 172 3500 
L 594 3500 
L 594 4494 
L 1172 4494 
z
" transform="scale(0.015625)"/>
       <path id="DejaVuSans-65" d="M 3597 1894 
L 3597 1613 
L 953 1613 
Q 991 1019 1311 708 
Q 1631 397 2203 397 
Q 2534 397 2845 478 
Q 3156 559 3463 722 
L 3463 178 
Q 3153 47 2828 -22 
Q 2503 -91 2169 -91 
Q 1331 -91 842 396 
Q 353 884 353 1716 
Q 353 2575 817 3079 
Q 1281 3584 2069 3584 
Q 2775 3584 3186 3129 
Q 3597 2675 3597 1894 
z
M 3022 2063 
Q 3016 2534 2758 2815 
Q 2500 3097 2075 3097 
Q 1594 3097 1305 2825 
Q 1016 2553 972 2059 
L 3022 2063 
z
" transform="scale(0.015625)"/>
       <path id="DejaVuSans-20" transform="scale(0.015625)"/>
       <path id="DejaVuSans-2d" d="M 313 2009 
L 1997 2009 
L 1997 1497 
L 313 1497 
L 313 2009 
z
" transform="scale(0.015625)"/>
       <path id="DejaVuSans-35" d="M 691 4666 
L 3169 4666 
L 3169 4134 
L 1269 4134 
L 1269 2991 
Q 1406 3038 1543 3061 
Q 1681 3084 1819 3084 
Q 2600 3084 3056 2656 
Q 3513 2228 3513 1497 
Q 3513 744 3044 326 
Q 2575 -91 1722 -91 
Q 1428 -91 1123 -41 
Q 819 9 494 109 
L 494 744 
Q 775 591 1075 516 
Q 1375 441 1709 441 
Q 2250 441 2565 725 
Q 2881 1009 2881 1497 
Q 2881 1984 2565 2268 
Q 2250 2553 1709 2553 
Q 1456 2553 1204 2497 
Q 953 2441 691 2322 
L 691 4666 
z
" transform="scale(0.015625)"/>
       <path id="DejaVuSans-3a" d="M 750 794 
L 1409 794 
L 1409 0 
L 750 0 
L 750 794 
z
M 750 3309 
L 1409 3309 
L 1409 2516 
L 750 2516 
L 750 3309 
z
" transform="scale(0.015625)"/>
       <path id="DejaVuSans-33" d="M 2597 2516 
Q 3050 2419 3304 2112 
Q 3559 1806 3559 1356 
Q 3559 666 3084 287 
Q 2609 -91 1734 -91 
Q 1441 -91 1130 -33 
Q 819 25 488 141 
L 488 750 
Q 750 597 1062 519 
Q 1375 441 1716 441 
Q 2309 441 2620 675 
Q 2931 909 2931 1356 
Q 2931 1769 2642 2001 
Q 2353 2234 1838 2234 
L 1294 2234 
L 1294 2753 
L 1863 2753 
Q 2328 2753 2575 2939 
Q 2822 3125 2822 3475 
Q 2822 3834 2567 4026 
Q 2313 4219 1838 4219 
Q 1578 4219 1281 4162 
Q 984 4106 628 3988 
L 628 4550 
Q 988 4650 1302 4700 
Q 1616 4750 1894 4750 
Q 2613 4750 3031 4423 
Q 3450 4097 3450 3541 
Q 3450 3153 3228 2886 
Q 3006 2619 2597 2516 
z
" transform="scale(0.015625)"/>
       <path id="DejaVuSans-2e" d="M 684 794 
L 1344 794 
L 1344 0 
L 684 0 
L 684 794 
z
" transform="scale(0.015625)"/>
       <path id="DejaVuSans-37" d="M 525 4666 
L 3525 4666 
L 3525 4397 
L 1831 0 
L 1172 0 
L 2766 4134 
L 525 4134 
L 525 4666 
z
" transform="scale(0.015625)"/>
       <path id="DejaVuSans-4c" d="M 628 4666 
L 1259 4666 
L 1259 531 
L 3531 531 
L 3531 0 
L 628 0 
L 628 4666 
z
" transform="scale(0.015625)"/>
       <path id="DejaVuSans-73" d="M 2834 3397 
L 2834 2853 
Q 2591 2978 2328 3040 
Q 2066 3103 1784 3103 
Q 1356 3103 1142 2972 
Q 928 2841 928 2578 
Q 928 2378 1081 2264 
Q 1234 2150 1697 2047 
L 1894 2003 
Q 2506 1872 2764 1633 
Q 3022 1394 3022 966 
Q 3022 478 2636 193 
Q 2250 -91 1575 -91 
Q 1294 -91 989 -36 
Q 684 19 347 128 
L 347 722 
Q 666 556 975 473 
Q 1284 391 1588 391 
Q 1994 391 2212 530 
Q 2431 669 2431 922 
Q 2431 1156 2273 1281 
Q 2116 1406 1581 1522 
L 1381 1569 
Q 847 1681 609 1914 
Q 372 2147 372 2553 
Q 372 3047 722 3315 
Q 1072 3584 1716 3584 
Q 2034 3584 2315 3537 
Q 2597 3491 2834 3397 
z
" transform="scale(0.015625)"/>
       <path id="DejaVuSans-72" d="M 2631 2963 
Q 2534 3019 2420 3045 
Q 2306 3072 2169 3072 
Q 1681 3072 1420 2755 
Q 1159 2438 1159 1844 
L 1159 0 
L 581 0 
L 581 3500 
L 1159 3500 
L 1159 2956 
Q 1341 3275 1631 3429 
Q 1922 3584 2338 3584 
Q 2397 3584 2469 3576 
Q 2541 3569 2628 3553 
L 2631 2963 
z
" transform="scale(0.015625)"/>
       <path id="DejaVuSans-63" d="M 3122 3366 
L 3122 2828 
Q 2878 2963 2633 3030 
Q 2388 3097 2138 3097 
Q 1578 3097 1268 2742 
Q 959 2388 959 1747 
Q 959 1106 1268 751 
Q 1578 397 2138 397 
Q 2388 397 2633 464 
Q 2878 531 3122 666 
L 3122 134 
Q 2881 22 2623 -34 
Q 2366 -91 2075 -91 
Q 1284 -91 818 406 
Q 353 903 353 1747 
Q 353 2603 823 3093 
Q 1294 3584 2113 3584 
Q 2378 3584 2631 3529 
Q 2884 3475 3122 3366 
z
" transform="scale(0.015625)"/>
       <path id="DejaVuSans-6f" d="M 1959 3097 
Q 1497 3097 1228 2736 
Q 959 2375 959 1747 
Q 959 1119 1226 758 
Q 1494 397 1959 397 
Q 2419 397 2687 759 
Q 2956 1122 2956 1747 
Q 2956 2369 2687 2733 
Q 2419 3097 1959 3097 
z
M 1959 3584 
Q 2709 3584 3137 3096 
Q 3566 2609 3566 1747 
Q 3566 888 3137 398 
Q 2709 -91 1959 -91 
Q 1206 -91 779 398 
Q 353 888 353 1747 
Q 353 2609 779 3096 
Q 1206 3584 1959 3584 
z
" transform="scale(0.015625)"/>
      </defs>
      <use xlink:href="#DejaVuSans-55"/>
      <use xlink:href="#DejaVuSans-70" x="73.193359"/>
      <use xlink:href="#DejaVuSans-64" x="136.669922"/>
      <use xlink:href="#DejaVuSans-61" x="200.146484"/>
      <use xlink:href="#DejaVuSans-74" x="261.425781"/>
      <use xlink:href="#DejaVuSans-65" x="300.634766"/>
      <use xlink:href="#DejaVuSans-64" x="362.158203"/>
      <use xlink:href="#DejaVuSans-20" x="425.634766"/>
      <use xlink:href="#DejaVuSans-32" x="457.421875"/>
      <use xlink:href="#DejaVuSans-30" x="521.044922"/>
      <use xlink:href="#DejaVuSans-32" x="584.667969"/>
      <use xlink:href="#DejaVuSans-34" x="648.291016"/>
      <use xlink:href="#DejaVuSans-2d" x="711.914062"/>
      <use xlink:href="#DejaVuSans-30" x="747.998047"/>
      <use xlink:href="#DejaVuSans-32" x="811.621094"/>
      <use xlink:href="#DejaVuSans-2d" x="875.244141"/>
      <use xlink:href="#DejaVuSans-32" x="911.328125"/>
      <use xlink:href="#DejaVuSans-30" x="974.951172"/>
      <use xlink:href="#DejaVuSans-20" x="1038.574219"/>
      <use xlink:href="#DejaVuSans-30" x="1070.361328"/>
      <use xlink:href="#DejaVuSans-35" x="1133.984375"/>
      <use xlink:href="#DejaVuSans-3a" x="1197.607422"/>
      <use xlink:href="#DejaVuSans-33" x="1231.298828"/>
      <use xlink:href="#DejaVuSans-32" x="1294.921875"/>
      <use xlink:href="#DejaVuSans-3a" x="1358.544922"/>
      <use xlink:href="#DejaVuSans-33" x="1392.236328"/>
      <use xlink:href="#DejaVuSans-38" x="1455.859375"/>
      <use xlink:href="#DejaVuSans-2e" x="1519.482422"/>
      <use xlink:href="#DejaVuSans-36" x="1551.269531"/>
      <use xlink:href="#DejaVuSans-34" x="1614.892578"/>
      <use xlink:href="#DejaVuSans-37" x="1678.515625"/>
      <use xlink:href="#DejaVuSans-35" x="1742.138672"/>
      <use xlink:href="#DejaVuSans-30" x="1805.761719"/>
      <use xlink:href="#DejaVuSans-33" x="1869.384766"/>
      <use xlink:href="#DejaVuSans-20" x="1933.007812"/>
      <use xlink:href="#DejaVuSans-2d" x="1964.794922"/>
      <use xlink:href="#DejaVuSans-20" x="2000.878906"/>
      <use xlink:href="#DejaVuSans-4c" x="2032.666016"/>
      <use xlink:href="#DejaVuSans-61" x="2088.378906"/>
      <use xlink:href="#DejaVuSans-73" x="2149.658203"/>
      <use xlink:href="#DejaVuSans-74" x="2201.757812"/>
      <use xlink:href="#DejaVuSans-20" x="2240.966797"/>
      <use xlink:href="#DejaVuSans-72" x="2272.753906"/>
      <use xlink:href="#DejaVuSans-65" x="2311.617188"/>
      <use xlink:href="#DejaVuSans-63" x="2373.140625"/>
      <use xlink:href="#DejaVuSans-6f" x="2428.121094"/>
      <use xlink:href="#DejaVuSans-72" x="2489.302734"/>
      <use xlink:href="#DejaVuSans-64" x="2528.666016"/>
      <use xlink:href="#DejaVuSans-20" x="2592.142578"/>
      <use xlink:href="#DejaVuSans-32" x="2623.929688"/>
      <use xlink:href="#DejaVuSans-30" x="2687.552734"/>
      <use xlink:href="#DejaVuSans-32" x="2751.175781"/>
      <use xlink:href="#DejaVuSans-34" x="2814.798828"/>
      <use xlink:href="#DejaVuSans-2d" x="2878.421875"/>
      <use xlink:href="#DejaVuSans-30" x="2914.505859"/>
      <use xlink:href="#DejaVuSans-32" x="2978.128906"/>
      <use xlink:href="#DejaVuSans-2d" x="3041.751953"/>
      <use xlink:href="#DejaVuSans-31" x="3077.835938"/>
      <use xlink:href="#DejaVuSans-38" x="3141.458984"/>
     </g>
    </g>
   </g>
   <g id="matplotlib.axis_2">
    <g id="ytick_1">
     <g id="line2d_10">
      <defs>
       <path id="m41faadc88b" d="M 0 0 
L -3.5 0 
" style="stroke: #000000; stroke-width: 0.8"/>
      </defs>
      <g>
       <use xlink:href="#m41faadc88b" x="57.6" y="295.56217" style="stroke: #000000; stroke-width: 0.8"/>
      </g>
     </g>
     <g id="text_11">
      <!-- 0 -->
      <g transform="translate(44.2375 299.361389) scale(0.1 -0.1)">
       <use xlink:href="#DejaVuSans-30"/>
      </g>
     </g>
    </g>
    <g id="ytick_2">
     <g id="line2d_11">
      <g>
       <use xlink:href="#m41faadc88b" x="57.6" y="242.202571" style="stroke: #000000; stroke-width: 0.8"/>
      </g>
     </g>
     <g id="text_12">
      <!-- 10 -->
      <g transform="translate(37.875 246.00179) scale(0.1 -0.1)">
       <use xlink:href="#DejaVuSans-31"/>
       <use xlink:href="#DejaVuSans-30" x="63.623047"/>
      </g>
     </g>
    </g>
    <g id="ytick_3">
     <g id="line2d_12">
      <g>
       <use xlink:href="#m41faadc88b" x="57.6" y="188.842972" style="stroke: #000000; stroke-width: 0.8"/>
      </g>
     </g>
     <g id="text_13">
      <!-- 20 -->
      <g transform="translate(37.875 192.64219) scale(0.1 -0.1)">
       <use xlink:href="#DejaVuSans-32"/>
       <use xlink:href="#DejaVuSans-30" x="63.623047"/>
      </g>
     </g>
    </g>
    <g id="ytick_4">
     <g id="line2d_13">
      <g>
       <use xlink:href="#m41faadc88b" x="57.6" y="135.483373" style="stroke: #000000; stroke-width: 0.8"/>
      </g>
     </g>
     <g id="text_14">
      <!-- 30 -->
      <g transform="translate(37.875 139.282591) scale(0.1 -0.1)">
       <use xlink:href="#DejaVuSans-33"/>
       <use xlink:href="#DejaVuSans-30" x="63.623047"/>
      </g>
     </g>
    </g>
    <g id="ytick_5">
     <g id="line2d_14">
      <g>
       <use xlink:href="#m41faadc88b" x="57.6" y="82.123774" style="stroke: #000000; stroke-width: 0.8"/>
      </g>
     </g>
     <g id="text_15">
      <!-- 40 -->
      <g transform="translate(37.875 85.922992) scale(0.1 -0.1)">
       <use xlink:href="#DejaVuSans-34"/>
       <use xlink:href="#DejaVuSans-30" x="63.623047"/>
      </g>
     </g>
    </g>
    <g id="text_16">
     <!-- IPv6 as % of total Google traffic -->
     <g transform="translate(31.795312 253.735813) rotate(-90) scale(0.1 -0.1)">
      <defs>
       <path id="DejaVuSans-49" d="M 628 4666 
L 1259 4666 
L 1259 0 
L 628 0 
L 628 4666 
z
" transform="scale(0.015625)"/>
       <path id="DejaVuSans-50" d="M 1259 4147 
L 1259 2394 
L 2053 2394 
Q 2494 2394 2734 2622 
Q 2975 2850 2975 3272 
Q 2975 3691 2734 3919 
Q 2494 4147 2053 4147 
L 1259 4147 
z
M 628 4666 
L 2053 4666 
Q 2838 4666 3239 4311 
Q 3641 3956 3641 3272 
Q 3641 2581 3239 2228 
Q 2838 1875 2053 1875 
L 1259 1875 
L 1259 0 
L 628 0 
L 628 4666 
z
" transform="scale(0.015625)"/>
       <path id="DejaVuSans-76" d="M 191 3500 
L 800 3500 
L 1894 563 
L 2988 3500 
L 3597 3500 
L 2284 0 
L 1503 0 
L 191 3500 
z
" transform="scale(0.015625)"/>
       <path id="DejaVuSans-25" d="M 4653 2053 
Q 4381 2053 4226 1822 
Q 4072 1591 4072 1178 
Q 4072 772 4226 539 
Q 4381 306 4653 306 
Q 4919 306 5073 539 
Q 5228 772 5228 1178 
Q 5228 1588 5073 1820 
Q 4919 2053 4653 2053 
z
M 4653 2450 
Q 5147 2450 5437 2106 
Q 5728 1763 5728 1178 
Q 5728 594 5436 251 
Q 5144 -91 4653 -91 
Q 4153 -91 3862 251 
Q 3572 594 3572 1178 
Q 3572 1766 3864 2108 
Q 4156 2450 4653 2450 
z
M 1428 4353 
Q 1159 4353 1004 4120 
Q 850 3888 850 3481 
Q 850 3069 1003 2837 
Q 1156 2606 1428 2606 
Q 1700 2606 1854 2837 
Q 2009 3069 2009 3481 
Q 2009 3884 1853 4118 
Q 1697 4353 1428 4353 
z
M 4250 4750 
L 4750 4750 
L 1831 -91 
L 1331 -91 
L 4250 4750 
z
M 1428 4750 
Q 1922 4750 2215 4408 
Q 2509 4066 2509 3481 
Q 2509 2891 2217 2550 
Q 1925 2209 1428 2209 
Q 931 2209 642 2551 
Q 353 2894 353 3481 
Q 353 4063 643 4406 
Q 934 4750 1428 4750 
z
" transform="scale(0.015625)"/>
       <path id="DejaVuSans-66" d="M 2375 4863 
L 2375 4384 
L 1825 4384 
Q 1516 4384 1395 4259 
Q 1275 4134 1275 3809 
L 1275 3500 
L 2222 3500 
L 2222 3053 
L 1275 3053 
L 1275 0 
L 697 0 
L 697 3053 
L 147 3053 
L 147 3500 
L 697 3500 
L 697 3744 
Q 697 4328 969 4595 
Q 1241 4863 1831 4863 
L 2375 4863 
z
" transform="scale(0.015625)"/>
       <path id="DejaVuSans-6c" d="M 603 4863 
L 1178 4863 
L 1178 0 
L 603 0 
L 603 4863 
z
" transform="scale(0.015625)"/>
       <path id="DejaVuSans-47" d="M 3809 666 
L 3809 1919 
L 2778 1919 
L 2778 2438 
L 4434 2438 
L 4434 434 
Q 4069 175 3628 42 
Q 3188 -91 2688 -91 
Q 1594 -91 976 548 
Q 359 1188 359 2328 
Q 359 3472 976 4111 
Q 1594 4750 2688 4750 
Q 3144 4750 3555 4637 
Q 3966 4525 4313 4306 
L 4313 3634 
Q 3963 3931 3569 4081 
Q 3175 4231 2741 4231 
Q 1884 4231 1454 3753 
Q 1025 3275 1025 2328 
Q 1025 1384 1454 906 
Q 1884 428 2741 428 
Q 3075 428 3337 486 
Q 3600 544 3809 666 
z
" transform="scale(0.015625)"/>
       <path id="DejaVuSans-67" d="M 2906 1791 
Q 2906 2416 2648 2759 
Q 2391 3103 1925 3103 
Q 1463 3103 1205 2759 
Q 947 2416 947 1791 
Q 947 1169 1205 825 
Q 1463 481 1925 481 
Q 2391 481 2648 825 
Q 2906 1169 2906 1791 
z
M 3481 434 
Q 3481 -459 3084 -895 
Q 2688 -1331 1869 -1331 
Q 1566 -1331 1297 -1286 
Q 1028 -1241 775 -1147 
L 775 -588 
Q 1028 -725 1275 -790 
Q 1522 -856 1778 -856 
Q 2344 -856 2625 -561 
Q 2906 -266 2906 331 
L 2906 616 
Q 2728 306 2450 153 
Q 2172 0 1784 0 
Q 1141 0 747 490 
Q 353 981 353 1791 
Q 353 2603 747 3093 
Q 1141 3584 1784 3584 
Q 2172 3584 2450 3431 
Q 2728 3278 2906 2969 
L 2906 3500 
L 3481 3500 
L 3481 434 
z
" transform="scale(0.015625)"/>
       <path id="DejaVuSans-69" d="M 603 3500 
L 1178 3500 
L 1178 0 
L 603 0 
L 603 3500 
z
M 603 4863 
L 1178 4863 
L 1178 4134 
L 603 4134 
L 603 4863 
z
" transform="scale(0.015625)"/>
      </defs>
      <use xlink:href="#DejaVuSans-49"/>
      <use xlink:href="#DejaVuSans-50" x="29.492188"/>
      <use xlink:href="#DejaVuSans-76" x="89.794922"/>
      <use xlink:href="#DejaVuSans-36" x="148.974609"/>
      <use xlink:href="#DejaVuSans-20" x="212.597656"/>
      <use xlink:href="#DejaVuSans-61" x="244.384766"/>
      <use xlink:href="#DejaVuSans-73" x="305.664062"/>
      <use xlink:href="#DejaVuSans-20" x="357.763672"/>
      <use xlink:href="#DejaVuSans-25" x="389.550781"/>
      <use xlink:href="#DejaVuSans-20" x="484.570312"/>
      <use xlink:href="#DejaVuSans-6f" x="516.357422"/>
      <use xlink:href="#DejaVuSans-66" x="577.539062"/>
      <use xlink:href="#DejaVuSans-20" x="612.744141"/>
      <use xlink:href="#DejaVuSans-74" x="644.53125"/>
      <use xlink:href="#DejaVuSans-6f" x="683.740234"/>
      <use xlink:href="#DejaVuSans-74" x="744.921875"/>
      <use xlink:href="#DejaVuSans-61" x="784.130859"/>
      <use xlink:href="#DejaVuSans-6c" x="845.410156"/>
      <use xlink:href="#DejaVuSans-20" x="873.193359"/>
      <use xlink:href="#DejaVuSans-47" x="904.980469"/>
      <use xlink:href="#DejaVuSans-6f" x="982.470703"/>
      <use xlink:href="#DejaVuSans-6f" x="1043.652344"/>
      <use xlink:href="#DejaVuSans-67" x="1104.833984"/>
      <use xlink:href="#DejaVuSans-6c" x="1168.310547"/>
      <use xlink:href="#DejaVuSans-65" x="1196.09375"/>
      <use xlink:href="#DejaVuSans-20" x="1257.617188"/>
      <use xlink:href="#DejaVuSans-74" x="1289.404297"/>
      <use xlink:href="#DejaVuSans-72" x="1328.613281"/>
      <use xlink:href="#DejaVuSans-61" x="1369.726562"/>
      <use xlink:href="#DejaVuSans-66" x="1431.005859"/>
      <use xlink:href="#DejaVuSans-66" x="1466.210938"/>
      <use xlink:href="#DejaVuSans-69" x="1501.416016"/>
      <use xlink:href="#DejaVuSans-63" x="1529.199219"/>
     </g>
    </g>
   </g>
   <g id="line2d_15">
    <path d="M 73.832727 294.589995 
L 75.443916 294.425226 
L 75.846713 294.582125 
L 77.457902 294.581436 
L 79.069091 294.438417 
L 79.471888 294.311944 
L 80.68028 294.332925 
L 84.305455 294.257202 
L 85.513846 294.284933 
L 87.125035 294.2096 
L 90.347413 294.274918 
L 90.75021 294.377571 
L 92.764196 294.35263 
L 93.972587 294.303636 
L 95.583776 294.207861 
L 96.389371 294.216606 
L 96.792168 293.95683 
L 99.208951 293.86772 
L 100.014545 293.833527 
L 102.028531 293.916229 
L 104.042517 293.9666 
L 106.056503 293.933912 
L 107.264895 294.123158 
L 108.473287 294.070854 
L 109.278881 294.154762 
L 110.084476 294.234989 
L 110.487273 294.154954 
L 112.904056 294.373617 
L 114.918042 294.287041 
L 115.723636 294.182184 
L 116.126434 294.095752 
L 116.932028 294.091494 
L 119.751608 294.02869 
L 120.557203 294.119193 
L 120.96 293.991711 
L 123.376783 294.228169 
L 126.599161 294.057824 
L 127.001958 294.063523 
L 127.404755 293.942183 
L 128.21035 294.043678 
L 129.015944 293.855287 
L 129.418741 293.902121 
L 129.821538 293.786464 
L 130.224336 293.837102 
L 131.02993 293.729481 
L 132.238322 293.714162 
L 132.641119 293.846947 
L 134.252308 293.87694 
L 135.057902 293.891198 
L 135.460699 293.853489 
L 135.863497 293.678288 
L 137.474685 293.582342 
L 137.877483 293.677914 
L 141.502657 293.362207 
L 142.308252 293.16713 
L 143.113846 293.314493 
L 145.933427 292.914728 
L 146.336224 292.845419 
L 146.739021 292.952261 
L 147.947413 292.588125 
L 148.35021 292.666761 
L 148.753007 292.486122 
L 151.16979 292.112205 
L 153.183776 291.632358 
L 154.392168 291.509001 
L 154.794965 291.609766 
L 156.808951 291.230763 
L 158.017343 290.856285 
L 158.42014 290.912943 
L 158.822937 290.576766 
L 159.225734 290.414601 
L 160.836923 290.21907 
L 161.23972 290.376753 
L 162.045315 290.186313 
L 162.448112 290.139074 
L 162.850909 289.89386 
L 163.656503 289.730238 
L 165.267692 289.713195 
L 166.073287 289.504169 
L 167.281678 289.350152 
L 167.684476 289.148778 
L 168.087273 289.129355 
L 168.49007 289.233481 
L 170.101259 288.480657 
L 170.504056 288.497903 
L 172.115245 288.024518 
L 172.518042 287.707274 
L 172.920839 287.634486 
L 173.323636 287.43816 
L 173.726434 287.470133 
L 174.934825 286.988035 
L 175.337622 287.073282 
L 175.74042 286.835986 
L 176.143217 286.794281 
L 178.157203 285.679465 
L 178.962797 285.340071 
L 179.768392 284.745667 
L 180.976783 283.276613 
L 181.37958 283.5106 
L 181.782378 283.551079 
L 182.990769 282.155416 
L 183.393566 281.988064 
L 183.796364 281.282613 
L 184.601958 281.062553 
L 185.407552 280.592993 
L 185.81035 280.64193 
L 187.018741 279.871572 
L 187.421538 279.70795 
L 187.824336 279.405358 
L 188.62993 279.333659 
L 189.032727 278.64818 
L 189.435524 278.639146 
L 189.838322 277.885511 
L 190.241119 277.495207 
L 191.046713 277.60723 
L 191.44951 277.328202 
L 191.852308 276.898385 
L 192.657902 276.398043 
L 193.060699 275.950751 
L 193.463497 276.224987 
L 195.074685 275.347387 
L 195.477483 275.022892 
L 195.88028 273.689419 
L 196.283077 273.94237 
L 197.088671 273.036879 
L 197.491469 272.998002 
L 197.894266 273.389453 
L 199.102657 272.498742 
L 199.505455 271.894477 
L 200.311049 271.941065 
L 200.713846 271.287234 
L 201.116643 271.242231 
L 201.519441 267.778376 
L 201.922238 270.057413 
L 202.325035 271.415073 
L 202.727832 270.755372 
L 203.130629 270.386716 
L 203.533427 270.327306 
L 203.936224 269.459662 
L 204.339021 269.187795 
L 205.547413 267.304602 
L 205.95021 266.074988 
L 206.353007 265.37316 
L 206.755804 264.420323 
L 207.158601 263.791224 
L 207.561399 264.795921 
L 207.964196 264.642166 
L 208.366993 264.669982 
L 208.76979 264.832286 
L 209.172587 265.135347 
L 209.575385 265.019722 
L 209.978182 262.804002 
L 210.380979 263.131737 
L 211.589371 261.964197 
L 211.992168 261.807053 
L 212.797762 261.876143 
L 213.200559 260.201249 
L 213.603357 260.140248 
L 214.408951 258.818462 
L 214.811748 259.26911 
L 215.214545 257.206063 
L 215.617343 257.693695 
L 216.02014 256.301015 
L 216.422937 255.634126 
L 216.825734 254.632769 
L 217.228531 255.328152 
L 217.631329 254.274785 
L 218.034126 252.522381 
L 218.436923 253.405429 
L 218.83972 253.657164 
L 219.242517 253.113205 
L 219.645315 251.51087 
L 220.048112 251.955969 
L 220.450909 250.541267 
L 220.853706 250.867156 
L 221.659301 248.959102 
L 222.062098 247.99253 
L 223.27049 247.689063 
L 223.673287 246.572973 
L 224.076084 246.708789 
L 224.478881 246.290108 
L 224.881678 245.183937 
L 225.284476 244.903185 
L 225.687273 243.666331 
L 226.09007 242.818426 
L 226.492867 242.668992 
L 226.895664 242.877698 
L 227.298462 242.338184 
L 227.701259 240.03988 
L 228.506853 241.387988 
L 228.90965 241.129024 
L 229.715245 241.051423 
L 230.118042 241.097083 
L 230.923636 240.819783 
L 231.326434 239.526678 
L 231.729231 239.465463 
L 232.132028 238.318675 
L 232.534825 238.315452 
L 232.937622 238.141244 
L 234.146014 234.86133 
L 234.548811 232.9295 
L 234.951608 234.248746 
L 235.354406 233.695797 
L 235.757203 232.552861 
L 236.16 232.807269 
L 236.562797 230.367124 
L 236.965594 230.725124 
L 237.368392 230.425921 
L 237.771189 228.723274 
L 238.173986 228.70716 
L 238.576783 227.438023 
L 238.97958 227.743608 
L 239.382378 226.739786 
L 239.785175 226.206526 
L 240.187972 226.489828 
L 240.590769 225.802477 
L 240.993566 224.730168 
L 241.396364 225.072955 
L 241.799161 224.56439 
L 242.201958 222.876909 
L 242.604755 222.171228 
L 243.007552 222.237239 
L 243.41035 220.263889 
L 243.813147 220.614814 
L 244.618741 218.264457 
L 245.021538 215.919089 
L 245.424336 216.150899 
L 246.22993 214.832085 
L 246.632727 213.354387 
L 247.035524 213.551934 
L 247.438322 212.932648 
L 247.841119 210.596181 
L 248.243916 209.776423 
L 248.646713 205.902665 
L 249.04951 208.421244 
L 249.452308 207.964614 
L 249.855105 208.565245 
L 250.257902 207.859933 
L 251.063497 209.005419 
L 251.466294 208.777061 
L 251.869091 207.772935 
L 252.271888 208.074918 
L 253.077483 206.796033 
L 253.48028 205.736333 
L 253.883077 205.568277 
L 254.285874 204.851935 
L 254.688671 202.275973 
L 255.091469 203.084302 
L 255.494266 199.629951 
L 255.897063 199.897346 
L 256.29986 198.019692 
L 256.702657 196.86237 
L 257.911049 194.733829 
L 258.313846 192.991889 
L 258.716643 190.11992 
L 259.119441 190.845157 
L 260.730629 187.574198 
L 261.133427 187.036253 
L 261.536224 187.056615 
L 261.939021 187.35299 
L 262.341818 186.335289 
L 262.744615 184.908977 
L 263.147413 186.186758 
L 263.55021 186.21142 
L 263.953007 187.349778 
L 264.355804 186.103981 
L 264.758601 184.167097 
L 265.161399 184.415283 
L 265.564196 183.579095 
L 266.772587 182.249305 
L 267.578182 181.272531 
L 267.980979 181.166724 
L 268.383776 195.329605 
L 268.786573 179.36874 
L 269.189371 178.602662 
L 269.592168 174.732213 
L 269.994965 178.323084 
L 270.800559 177.798388 
L 271.203357 177.795849 
L 271.606154 177.315308 
L 272.008951 177.078493 
L 272.411748 178.394036 
L 272.814545 179.228042 
L 273.217343 179.025296 
L 273.62014 177.895402 
L 274.022937 177.976535 
L 275.231329 177.026419 
L 275.634126 174.48805 
L 276.036923 175.489951 
L 276.43972 172.801609 
L 276.842517 173.93518 
L 277.245315 171.678677 
L 277.648112 170.269733 
L 278.050909 171.100484 
L 278.453706 169.372641 
L 278.856503 168.225378 
L 279.259301 167.981428 
L 279.662098 168.919357 
L 280.064895 169.414112 
L 281.273287 166.880177 
L 281.676084 167.462912 
L 282.078881 168.302701 
L 282.481678 168.465544 
L 282.884476 166.543654 
L 283.287273 165.827803 
L 283.69007 164.43461 
L 284.092867 164.091348 
L 284.495664 163.896233 
L 284.898462 164.042028 
L 285.301259 163.858257 
L 286.106853 161.944483 
L 286.50965 163.061011 
L 286.912448 159.524092 
L 287.315245 159.615065 
L 287.718042 159.183759 
L 288.120839 156.604116 
L 288.523636 155.830113 
L 288.926434 155.364892 
L 289.329231 155.368281 
L 289.732028 153.969742 
L 290.134825 153.874404 
L 290.94042 151.663161 
L 291.343217 153.122706 
L 291.746014 154.062806 
L 292.551608 151.824019 
L 292.954406 152.922063 
L 293.357203 152.721293 
L 293.76 153.199256 
L 294.162797 151.509395 
L 294.565594 150.919782 
L 294.968392 152.197376 
L 295.371189 150.363428 
L 295.773986 150.510167 
L 296.176783 149.987035 
L 296.982378 149.784236 
L 297.385175 146.16161 
L 297.787972 146.056086 
L 298.190769 146.341992 
L 298.593566 147.218221 
L 299.399161 142.990705 
L 299.801958 141.125771 
L 300.204755 140.652418 
L 300.607552 140.815005 
L 301.01035 140.474635 
L 301.413147 138.622118 
L 301.815944 140.149803 
L 302.218741 138.523258 
L 302.621538 140.032647 
L 303.024336 138.950626 
L 303.427133 138.295658 
L 303.82993 138.241039 
L 304.232727 138.31483 
L 304.635524 136.904344 
L 305.038322 137.064604 
L 305.441119 138.591158 
L 305.843916 138.073901 
L 306.246713 138.700076 
L 306.64951 138.956005 
L 307.052308 136.999634 
L 307.455105 138.171314 
L 307.857902 138.486163 
L 308.260699 137.759069 
L 308.663497 137.314813 
L 309.066294 135.562361 
L 309.469091 135.932228 
L 309.871888 135.550814 
L 310.274685 135.677303 
L 310.677483 134.65822 
L 311.08028 134.212432 
L 311.483077 132.922533 
L 311.885874 132.358725 
L 312.288671 133.1558 
L 312.691469 133.392792 
L 313.094266 133.446109 
L 313.89986 131.611766 
L 314.302657 132.051513 
L 314.705455 130.7139 
L 315.108252 131.292825 
L 315.511049 131.042643 
L 315.913846 130.117446 
L 316.316643 130.343547 
L 316.719441 130.979113 
L 317.122238 130.68937 
L 317.525035 130.704514 
L 317.927832 128.301213 
L 318.733427 126.590147 
L 319.136224 126.872659 
L 319.539021 126.274477 
L 319.941818 124.283582 
L 320.344615 124.927606 
L 320.747413 122.070685 
L 321.15021 124.357059 
L 321.553007 122.464324 
L 321.955804 119.876981 
L 322.358601 120.633855 
L 322.761399 119.018319 
L 323.164196 117.928187 
L 323.566993 118.032473 
L 323.96979 117.21462 
L 324.372587 119.264909 
L 324.775385 117.556831 
L 325.178182 118.197296 
L 325.580979 118.573065 
L 326.789371 115.952404 
L 327.192168 118.134305 
L 327.594965 118.178022 
L 327.997762 117.213478 
L 328.400559 117.760035 
L 328.803357 119.085173 
L 329.206154 118.05457 
L 329.608951 115.65661 
L 330.011748 119.637503 
L 330.414545 118.565152 
L 330.817343 117.012995 
L 331.22014 118.31506 
L 331.622937 118.409139 
L 332.025734 116.282833 
L 332.428531 115.223918 
L 332.831329 113.282679 
L 333.234126 114.229337 
L 333.636923 113.512136 
L 334.03972 113.733344 
L 334.442517 114.34104 
L 334.845315 112.789263 
L 335.248112 112.15303 
L 335.650909 113.303431 
L 336.053706 113.016703 
L 336.456503 110.527339 
L 336.859301 109.979757 
L 337.262098 108.285558 
L 337.664895 111.067664 
L 338.067692 111.990352 
L 338.47049 111.083287 
L 338.873287 110.909821 
L 339.276084 111.052077 
L 339.678881 106.14515 
L 340.081678 109.425458 
L 340.484476 107.535221 
L 341.29007 108.49143 
L 341.692867 103.844049 
L 342.095664 103.250104 
L 342.498462 101.380645 
L 342.901259 101.30624 
L 343.304056 102.997216 
L 343.706853 100.665306 
L 344.10965 100.206926 
L 344.512448 99.002685 
L 344.915245 98.56718 
L 345.318042 97.198949 
L 345.720839 97.403514 
L 346.123636 100.720757 
L 346.526434 98.931909 
L 346.929231 97.79925 
L 347.332028 99.953414 
L 347.734825 98.762161 
L 348.137622 98.342824 
L 348.54042 96.622937 
L 349.346014 99.360242 
L 349.748811 99.059619 
L 350.151608 99.488785 
L 350.554406 99.352809 
L 350.957203 97.810663 
L 351.36 99.593738 
L 351.762797 97.451489 
L 352.165594 96.6939 
L 352.568392 96.614528 
L 353.373986 93.94753 
L 353.776783 90.971564 
L 354.17958 93.00116 
L 354.582378 96.791959 
L 354.985175 92.521959 
L 355.387972 92.321369 
L 355.790769 95.186774 
L 356.596364 91.372988 
L 356.999161 91.322008 
L 357.401958 92.127124 
L 357.804755 92.094271 
L 358.207552 92.710814 
L 358.61035 85.462676 
L 359.013147 84.688908 
L 359.415944 84.904977 
L 359.818741 83.423645 
L 360.221538 82.93778 
L 360.624336 80.361413 
L 361.027133 83.635051 
L 361.42993 84.911487 
L 361.832727 82.110957 
L 362.235524 83.95635 
L 362.638322 80.818139 
L 363.041119 79.22028 
L 363.443916 75.343892 
L 363.846713 76.38696 
L 364.24951 70.64352 
L 365.055105 74.669512 
L 365.457902 76.507991 
L 365.860699 74.833513 
L 366.263497 75.160154 
L 366.666294 75.862644 
L 367.069091 75.719619 
L 367.471888 77.761114 
L 367.874685 76.809467 
L 368.277483 75.317575 
L 368.68028 75.661686 
L 369.083077 74.132752 
L 369.485874 74.52121 
L 369.888671 72.651319 
L 370.291469 73.971318 
L 370.694266 77.532959 
L 371.097063 75.136169 
L 371.49986 71.502524 
L 371.902657 74.513857 
L 372.305455 72.764548 
L 372.708252 74.581442 
L 373.111049 72.940795 
L 373.513846 72.917466 
L 374.722238 66.601146 
L 375.125035 69.431126 
L 375.527832 69.214731 
L 375.930629 67.798173 
L 376.333427 68.21568 
L 376.736224 70.62971 
L 377.541818 68.544108 
L 377.944615 70.072668 
L 378.347413 69.212698 
L 378.75021 67.546337 
L 379.153007 67.578742 
L 379.958601 64.813754 
L 380.361399 66.020087 
L 380.764196 66.00052 
L 381.166993 63.374577 
L 381.56979 64.727306 
L 382.375385 64.500427 
L 382.778182 63.041938 
L 383.180979 64.707446 
L 383.583776 64.756462 
L 383.986573 61.825136 
L 384.389371 61.789236 
L 384.792168 60.402164 
L 385.194965 56.744406 
L 385.597762 58.316417 
L 386.403357 57.45379 
L 386.806154 57.298796 
L 387.208951 57.690157 
L 387.611748 56.33414 
L 388.014545 57.925115 
L 388.82014 53.951933 
L 389.222937 55.536724 
L 389.625734 57.68711 
L 390.028531 58.527497 
L 390.431329 54.556732 
L 390.834126 56.920055 
L 391.236923 55.694391 
L 391.63972 59.975117 
L 392.042517 57.163418 
L 392.445315 56.116534 
L 392.848112 58.496293 
L 393.250909 58.714731 
L 393.653706 59.980847 
L 394.056503 57.704287 
L 394.459301 60.130398 
L 394.862098 57.183043 
L 395.264895 56.823314 
L 395.667692 54.035227 
L 396.07049 57.538573 
L 396.473287 57.523062 
L 396.876084 56.683069 
L 397.278881 56.772719 
L 397.681678 55.252659 
L 398.084476 56.430449 
L 398.487273 53.568 
L 398.487273 53.568 
" clip-path="url(#pd0ff97305f)" style="fill: none; stroke: #1f77b4; stroke-width: 1.5; stroke-linecap: square"/>
   </g>
   <g id="line2d_16">
    <path d="M 73.832727 294.84499 
L 75.443916 294.709425 
L 75.846713 294.822883 
L 84.708252 294.574147 
L 85.513846 294.56553 
L 87.527832 294.500831 
L 89.541818 294.567072 
L 91.153007 294.564084 
L 96.792168 294.483538 
L 97.194965 294.292516 
L 112.904056 294.483964 
L 114.918042 294.48509 
L 116.126434 294.317381 
L 117.737622 294.292174 
L 119.751608 294.234188 
L 124.585175 294.410141 
L 130.224336 293.969759 
L 131.02993 293.914041 
L 131.835524 293.852427 
L 132.641119 293.948287 
L 133.446713 293.960886 
L 134.252308 294.011273 
L 135.460699 294.045327 
L 136.266294 293.748333 
L 137.071888 293.786293 
L 137.877483 293.829973 
L 143.113846 293.47272 
L 143.516643 293.579002 
L 149.155804 292.914232 
L 150.766993 292.655544 
L 151.572587 292.662823 
L 152.780979 292.258853 
L 154.392168 291.975434 
L 154.794965 292.097958 
L 156.406154 291.971618 
L 162.045315 290.931661 
L 162.448112 290.977332 
L 163.253706 290.716377 
L 164.059301 290.612608 
L 164.462098 290.374069 
L 165.67049 290.645568 
L 166.476084 290.458212 
L 166.878881 290.40314 
L 167.281678 290.171351 
L 167.684476 290.188709 
L 168.087273 290.017008 
L 169.295664 289.929274 
L 169.698462 289.684439 
L 170.906853 289.436867 
L 171.30965 289.43954 
L 171.712448 289.282706 
L 172.115245 289.266767 
L 173.726434 288.780448 
L 174.532028 288.546722 
L 174.934825 288.299144 
L 175.337622 288.439613 
L 176.546014 287.945391 
L 177.351608 287.53345 
L 177.754406 287.221301 
L 178.56 287.004459 
L 178.962797 287.104092 
L 179.768392 286.95175 
L 180.976783 285.786046 
L 181.37958 285.506025 
L 181.782378 285.583007 
L 182.185175 285.432773 
L 183.393566 284.557489 
L 183.796364 284.409384 
L 184.601958 283.702284 
L 185.004755 283.605399 
L 185.407552 282.270913 
L 185.81035 282.395507 
L 186.213147 283.284505 
L 186.615944 283.187967 
L 187.421538 282.505812 
L 187.824336 283.122244 
L 188.227133 282.32408 
L 188.62993 282.274989 
L 189.032727 282.026899 
L 189.435524 281.446635 
L 189.838322 281.476121 
L 190.643916 280.587375 
L 191.046713 280.614177 
L 191.44951 280.415605 
L 191.852308 279.694706 
L 192.255105 279.938127 
L 192.657902 279.392482 
L 193.060699 279.556158 
L 193.463497 279.359181 
L 193.866294 279.439567 
L 194.269091 278.824763 
L 194.671888 278.84846 
L 195.074685 278.221234 
L 195.477483 278.330205 
L 196.283077 277.006359 
L 196.685874 276.744379 
L 197.088671 276.661063 
L 197.491469 276.357218 
L 197.894266 276.327102 
L 198.297063 276.443409 
L 198.69986 276.421351 
L 199.908252 275.986982 
L 200.311049 276.128406 
L 201.116643 275.762941 
L 201.519441 275.13286 
L 201.922238 273.718591 
L 202.325035 274.774273 
L 202.727832 275.12181 
L 203.130629 274.756963 
L 203.533427 274.968598 
L 203.936224 274.440616 
L 204.741818 273.757928 
L 205.144615 273.081136 
L 205.547413 272.656687 
L 205.95021 271.767502 
L 206.353007 269.135871 
L 206.755804 267.450268 
L 207.158601 269.947332 
L 207.561399 270.605827 
L 207.964196 270.623937 
L 208.366993 270.887128 
L 208.76979 270.868174 
L 209.172587 271.220412 
L 209.575385 270.49351 
L 209.978182 270.621328 
L 210.380979 269.263705 
L 210.783776 268.848839 
L 211.186573 269.084705 
L 211.992168 267.730881 
L 212.394965 268.097312 
L 212.797762 268.061982 
L 213.200559 267.625693 
L 213.603357 266.992453 
L 214.006154 266.662979 
L 214.408951 266.709679 
L 215.214545 264.746799 
L 215.617343 264.169458 
L 216.02014 263.859199 
L 216.422937 262.728312 
L 216.825734 262.336626 
L 218.034126 260.056255 
L 218.436923 260.443406 
L 219.242517 260.062632 
L 220.048112 259.331552 
L 220.450909 259.649377 
L 221.256503 259.246347 
L 222.062098 258.237925 
L 223.27049 257.722466 
L 223.673287 257.725844 
L 224.076084 256.668577 
L 224.478881 256.562082 
L 224.881678 256.591056 
L 225.284476 256.049579 
L 226.492867 253.368611 
L 226.895664 252.862912 
L 227.298462 250.42258 
L 227.701259 246.979605 
L 228.104056 252.088077 
L 228.506853 253.201243 
L 228.90965 252.890434 
L 229.312448 252.342351 
L 229.715245 252.416937 
L 230.118042 252.69921 
L 230.923636 251.546039 
L 231.729231 251.01986 
L 232.132028 250.59428 
L 232.534825 249.379047 
L 232.937622 249.097143 
L 233.34042 249.028251 
L 234.146014 247.952927 
L 234.548811 246.674713 
L 234.951608 245.878103 
L 235.354406 246.380147 
L 236.16 244.810057 
L 236.562797 243.365677 
L 236.965594 242.945561 
L 237.368392 242.740094 
L 238.173986 240.423829 
L 238.576783 238.619949 
L 238.97958 239.409911 
L 239.382378 239.261005 
L 239.785175 238.353332 
L 240.187972 237.740716 
L 240.590769 237.583871 
L 240.993566 237.694779 
L 241.396364 238.9466 
L 241.799161 238.304743 
L 242.201958 238.591988 
L 242.604755 237.910554 
L 243.007552 237.984628 
L 243.41035 237.218192 
L 244.215944 235.074534 
L 244.618741 235.289851 
L 245.424336 232.257932 
L 245.827133 232.97636 
L 246.22993 232.418016 
L 246.632727 231.096651 
L 247.035524 230.998544 
L 247.438322 230.111707 
L 247.841119 229.606771 
L 248.243916 226.084744 
L 248.646713 217.958066 
L 249.04951 223.808332 
L 249.452308 226.927729 
L 249.855105 227.257251 
L 250.660699 226.91385 
L 251.063497 227.009172 
L 251.466294 226.965508 
L 251.869091 225.994561 
L 252.271888 225.752233 
L 252.674685 226.054686 
L 253.48028 224.918746 
L 254.285874 222.879176 
L 254.688671 220.645255 
L 255.091469 221.396761 
L 255.494266 221.285469 
L 255.897063 217.234003 
L 256.29986 218.122563 
L 257.105455 215.419376 
L 257.508252 212.818443 
L 257.911049 212.724706 
L 258.313846 212.368515 
L 259.119441 207.83797 
L 259.522238 207.53739 
L 259.925035 206.868442 
L 260.327832 206.541753 
L 261.133427 203.956166 
L 261.536224 203.734526 
L 261.939021 203.65796 
L 262.341818 204.791558 
L 262.744615 204.922119 
L 263.147413 205.883851 
L 263.55021 206.554693 
L 264.355804 207.089324 
L 264.758601 204.796227 
L 265.161399 204.217889 
L 265.564196 204.718018 
L 265.966993 203.697105 
L 266.36979 201.818644 
L 266.772587 203.453636 
L 267.175385 204.101763 
L 267.578182 202.167339 
L 267.980979 201.929403 
L 268.383776 200.840008 
L 268.786573 195.329605 
L 269.189371 197.536104 
L 269.592168 188.423058 
L 270.397762 199.243846 
L 270.800559 197.839768 
L 271.203357 199.314958 
L 271.606154 198.767356 
L 272.008951 198.676388 
L 272.411748 197.247701 
L 272.814545 199.659437 
L 273.217343 200.327318 
L 273.62014 199.702013 
L 274.022937 198.33232 
L 274.425734 197.86537 
L 274.828531 196.796209 
L 275.231329 196.721746 
L 275.634126 198.614251 
L 276.036923 197.532545 
L 276.43972 195.994321 
L 276.842517 193.832473 
L 277.245315 193.626927 
L 277.648112 192.732935 
L 278.050909 192.84214 
L 278.453706 190.540778 
L 278.856503 190.487691 
L 279.259301 188.903802 
L 279.662098 188.651656 
L 280.064895 188.16832 
L 280.467692 186.654983 
L 281.273287 186.66749 
L 282.078881 186.055157 
L 282.481678 186.965354 
L 282.884476 185.422317 
L 283.287273 184.600846 
L 283.69007 187.542262 
L 284.092867 187.688462 
L 284.495664 187.54929 
L 284.898462 187.638117 
L 285.301259 187.563969 
L 285.704056 186.09118 
L 286.106853 186.442393 
L 286.50965 187.037192 
L 286.912448 186.38072 
L 287.315245 183.367412 
L 287.718042 184.193259 
L 288.120839 183.781435 
L 288.523636 180.578151 
L 288.926434 182.145392 
L 290.134825 177.966098 
L 290.537622 164.899682 
L 290.94042 169.911605 
L 291.343217 177.449587 
L 291.746014 178.833063 
L 292.551608 177.496592 
L 292.954406 176.185904 
L 293.357203 177.165805 
L 293.76 176.887754 
L 294.162797 177.918997 
L 294.565594 175.590923 
L 294.968392 177.647226 
L 295.773986 175.511983 
L 296.176783 175.481995 
L 296.57958 176.119925 
L 296.982378 173.451294 
L 297.385175 173.000059 
L 297.787972 170.765748 
L 298.190769 172.817665 
L 298.593566 174.122686 
L 298.996364 171.616471 
L 299.801958 164.62719 
L 300.204755 166.154694 
L 300.607552 164.896368 
L 301.01035 164.20915 
L 301.413147 162.57696 
L 301.815944 163.255625 
L 302.218741 163.44535 
L 302.621538 163.274813 
L 303.024336 162.732124 
L 303.427133 161.866605 
L 303.82993 159.450904 
L 304.232727 162.50311 
L 304.635524 163.367205 
L 305.038322 163.529765 
L 305.441119 164.903182 
L 305.843916 165.665371 
L 306.64951 165.382389 
L 307.052308 165.911929 
L 307.455105 165.606419 
L 307.857902 166.299107 
L 308.663497 163.504238 
L 309.066294 165.263344 
L 309.469091 164.665732 
L 309.871888 163.178307 
L 310.274685 163.342622 
L 310.677483 162.626259 
L 311.08028 160.395801 
L 311.483077 148.064782 
L 311.885874 147.736497 
L 312.288671 159.806311 
L 312.691469 161.498685 
L 313.094266 161.84517 
L 313.497063 160.680336 
L 313.89986 159.107108 
L 314.705455 157.344245 
L 315.108252 157.294322 
L 315.511049 157.879197 
L 315.913846 157.460212 
L 316.316643 148.048534 
L 316.719441 143.940853 
L 317.122238 142.341276 
L 317.525035 143.533895 
L 318.733427 139.354777 
L 319.136224 139.648111 
L 319.539021 141.861451 
L 319.941818 139.833215 
L 320.344615 139.059138 
L 320.747413 140.870104 
L 321.15021 141.865746 
L 321.955804 138.734941 
L 322.358601 135.754258 
L 322.761399 135.528792 
L 323.164196 133.911068 
L 323.566993 135.30838 
L 323.96979 135.11628 
L 324.372587 136.220488 
L 324.775385 135.162431 
L 325.178182 135.171251 
L 325.580979 136.103534 
L 325.983776 137.752132 
L 326.386573 136.964363 
L 326.789371 138.855971 
L 327.594965 138.989477 
L 327.997762 139.719559 
L 328.400559 138.389262 
L 328.803357 138.577029 
L 329.206154 137.525044 
L 329.608951 135.621008 
L 330.011748 137.792387 
L 330.414545 138.229364 
L 330.817343 138.016956 
L 331.22014 140.457165 
L 331.622937 138.413108 
L 332.428531 130.149344 
L 332.831329 123.576167 
L 333.636923 133.410304 
L 334.03972 132.682469 
L 334.442517 133.590366 
L 334.845315 132.465615 
L 335.650909 131.502554 
L 336.053706 131.645468 
L 336.456503 133.282684 
L 336.859301 132.877594 
L 337.262098 132.672976 
L 337.664895 130.749112 
L 338.067692 133.901314 
L 338.873287 130.933085 
L 339.276084 133.171018 
L 339.678881 131.871035 
L 340.081678 128.488271 
L 340.484476 128.820621 
L 340.887273 126.808783 
L 341.29007 125.62992 
L 341.692867 127.480793 
L 342.095664 127.855004 
L 342.901259 120.453462 
L 343.304056 120.327454 
L 343.706853 119.961289 
L 344.10965 119.21164 
L 344.512448 116.490077 
L 344.915245 117.925904 
L 345.318042 116.567528 
L 345.720839 116.671579 
L 346.123636 117.902367 
L 346.526434 120.913433 
L 346.929231 121.611622 
L 347.332028 121.661753 
L 347.734825 123.172241 
L 348.137622 120.978233 
L 348.943217 122.15089 
L 349.346014 122.424385 
L 349.748811 122.200226 
L 350.151608 121.757678 
L 350.554406 124.137068 
L 350.957203 123.042294 
L 351.36 123.56581 
L 351.762797 122.010143 
L 352.165594 123.088247 
L 352.971189 120.434861 
L 353.373986 115.146125 
L 353.776783 102.762146 
L 354.582378 115.141408 
L 354.985175 115.48133 
L 355.387972 117.216749 
L 355.790769 115.574362 
L 356.193566 118.342391 
L 356.596364 117.364459 
L 356.999161 113.925817 
L 357.401958 115.808835 
L 357.804755 115.802384 
L 358.207552 118.110384 
L 358.61035 114.195086 
L 359.013147 107.568624 
L 359.415944 107.725437 
L 359.818741 118.161241 
L 360.221538 106.445885 
L 361.027133 102.973957 
L 361.42993 106.673799 
L 361.832727 106.495248 
L 362.235524 105.148147 
L 362.638322 102.049833 
L 363.041119 102.692987 
L 363.846713 95.064645 
L 364.24951 95.835046 
L 364.652308 95.610898 
L 365.055105 93.15642 
L 365.457902 93.065047 
L 365.860699 93.977011 
L 366.263497 92.719917 
L 366.666294 93.562087 
L 367.069091 93.664233 
L 367.471888 97.009207 
L 367.874685 97.843293 
L 368.68028 100.854492 
L 369.083077 98.786216 
L 369.485874 99.925929 
L 369.888671 100.057903 
L 370.291469 97.199531 
L 370.694266 100.409633 
L 371.097063 101.301192 
L 371.49986 98.196693 
L 371.902657 97.356941 
L 372.305455 99.653731 
L 372.708252 96.122419 
L 373.111049 99.560762 
L 373.513846 99.864186 
L 373.916643 95.483779 
L 374.722238 81.240667 
L 375.125035 88.53001 
L 375.527832 93.496582 
L 375.930629 93.42174 
L 376.333427 94.008338 
L 376.736224 92.863113 
L 377.139021 92.997078 
L 377.541818 93.721963 
L 378.347413 91.396044 
L 378.75021 94.441496 
L 379.555804 87.144378 
L 379.958601 90.874657 
L 380.361399 86.5689 
L 380.764196 89.258235 
L 381.166993 89.918741 
L 381.56979 88.621212 
L 381.972587 85.428286 
L 382.375385 90.264437 
L 382.778182 90.104331 
L 383.180979 86.659009 
L 383.583776 87.24303 
L 383.986573 86.66094 
L 384.389371 81.99308 
L 385.194965 77.393637 
L 385.597762 77.753654 
L 386.000559 77.577749 
L 386.403357 76.440123 
L 386.806154 77.843085 
L 387.208951 76.351748 
L 387.611748 77.357097 
L 388.014545 75.956423 
L 388.82014 81.400772 
L 389.222937 82.960511 
L 389.625734 81.890501 
L 390.028531 83.560363 
L 390.431329 83.095799 
L 390.834126 82.416024 
L 391.236923 82.11189 
L 391.63972 84.310055 
L 392.042517 85.001142 
L 392.445315 82.219816 
L 392.848112 83.171457 
L 393.250909 85.680415 
L 393.653706 83.097207 
L 394.056503 84.817254 
L 394.459301 85.362691 
L 394.862098 83.841766 
L 395.264895 78.888522 
L 395.667692 66.617437 
L 396.07049 72.38514 
L 396.473287 79.92444 
L 396.876084 79.925395 
L 397.278881 82.521127 
L 397.681678 81.481372 
L 398.487273 78.142811 
L 398.487273 78.142811 
" clip-path="url(#pd0ff97305f)" style="fill: none; stroke: #ff7f0e; stroke-width: 1.5; stroke-linecap: square"/>
   </g>
   <g id="line2d_17">
    <path d="M 73.832727 295.307175 
L 79.874685 295.277416 
L 80.277483 295.34458 
L 81.083077 295.234078 
L 81.485874 295.318749 
L 81.888671 295.219836 
L 82.291469 295.318172 
L 83.49986 295.218 
L 94.778182 295.281381 
L 95.180979 295.239974 
L 95.583776 295.335263 
L 96.792168 295.035463 
L 97.194965 295.227061 
L 112.098462 295.430051 
L 113.306853 295.434192 
L 117.737622 295.298605 
L 118.543217 295.325114 
L 118.946014 295.390469 
L 119.751608 295.356671 
L 120.557203 295.35736 
L 121.362797 295.367189 
L 121.765594 295.462121 
L 124.987972 295.368133 
L 141.502657 295.288585 
L 141.905455 295.145949 
L 143.113846 295.403943 
L 143.919441 295.14486 
L 144.322238 295.230887 
L 144.725035 295.114051 
L 146.739021 295.32163 
L 147.544615 295.240299 
L 147.947413 294.91797 
L 148.35021 295.127166 
L 148.753007 295.029502 
L 149.961399 295.216762 
L 150.364196 295.073593 
L 150.766993 295.120918 
L 151.572587 294.893286 
L 151.975385 294.946742 
L 152.780979 294.863927 
L 153.183776 295.007225 
L 153.989371 294.850577 
L 154.392168 295.095738 
L 158.42014 294.835289 
L 158.822937 294.620015 
L 159.225734 294.565359 
L 160.031329 294.746616 
L 160.836923 294.70252 
L 161.23972 294.964825 
L 162.850909 294.643323 
L 164.059301 294.679415 
L 164.462098 294.95236 
L 165.67049 294.494812 
L 166.476084 294.576746 
L 166.878881 294.51677 
L 167.281678 294.740971 
L 167.684476 294.522239 
L 168.49007 294.79949 
L 169.698462 294.416566 
L 170.906853 294.515975 
L 171.30965 294.302761 
L 171.712448 294.440322 
L 172.518042 294.136812 
L 172.920839 294.287921 
L 173.323636 294.180743 
L 173.726434 294.251856 
L 174.532028 294.20332 
L 175.337622 294.195839 
L 175.74042 294.087284 
L 176.143217 294.206388 
L 177.351608 294.034959 
L 177.754406 294.234572 
L 178.56 294.080929 
L 178.962797 293.79815 
L 179.365594 293.669163 
L 179.768392 293.356087 
L 180.573986 293.311761 
L 180.976783 293.052737 
L 181.37958 293.566745 
L 181.782378 293.530242 
L 182.185175 293.235355 
L 182.587972 293.181777 
L 182.990769 292.780774 
L 183.393566 292.992745 
L 183.796364 292.435399 
L 184.601958 292.922438 
L 185.004755 292.819406 
L 185.407552 293.884251 
L 185.81035 293.808592 
L 186.213147 292.625012 
L 186.615944 292.495028 
L 187.018741 292.541296 
L 187.421538 292.764307 
L 187.824336 291.845284 
L 188.227133 292.616149 
L 188.62993 292.620839 
L 189.032727 292.183451 
L 189.435524 292.754681 
L 189.838322 291.97156 
L 190.241119 292.088796 
L 190.643916 292.52523 
L 191.44951 292.474767 
L 191.852308 292.765849 
L 192.255105 292.279658 
L 192.657902 292.567731 
L 193.060699 291.956763 
L 193.463497 292.427976 
L 193.866294 292.150181 
L 194.269091 292.544396 
L 194.671888 292.348657 
L 195.074685 292.688323 
L 195.88028 291.689309 
L 196.283077 292.498182 
L 196.685874 292.366885 
L 197.088671 291.937986 
L 197.491469 292.202954 
L 197.894266 292.624521 
L 198.297063 292.189918 
L 199.102657 291.816657 
L 199.505455 291.281871 
L 199.908252 291.540558 
L 200.311049 291.374829 
L 200.713846 290.915242 
L 201.116643 291.041459 
L 201.519441 288.207686 
L 201.922238 291.900992 
L 202.325035 292.20297 
L 202.727832 291.195733 
L 203.130629 291.191923 
L 203.936224 290.581217 
L 204.339021 290.62534 
L 204.741818 290.34001 
L 205.144615 290.468863 
L 205.95021 289.869656 
L 206.353007 291.799459 
L 206.755804 292.532225 
L 207.158601 289.406062 
L 207.561399 289.752265 
L 208.366993 289.345024 
L 208.76979 289.526281 
L 209.172587 289.477105 
L 209.575385 290.088382 
L 209.978182 287.744845 
L 210.380979 289.430202 
L 210.783776 289.422332 
L 211.186573 288.737456 
L 211.589371 289.09313 
L 211.992168 289.638342 
L 212.394965 289.294679 
L 212.797762 289.37633 
L 213.200559 288.137726 
L 213.603357 288.709965 
L 214.006154 288.30257 
L 214.408951 287.670952 
L 214.811748 289.130508 
L 215.214545 288.021434 
L 215.617343 289.086406 
L 216.02014 288.003985 
L 216.422937 288.467984 
L 216.825734 287.858314 
L 217.228531 289.340777 
L 217.631329 289.019733 
L 218.034126 288.028296 
L 218.83972 288.925538 
L 219.242517 288.612744 
L 219.645315 287.435402 
L 220.048112 288.186587 
L 220.450909 286.45406 
L 220.853706 286.997036 
L 221.256503 286.118423 
L 222.062098 285.316775 
L 222.867692 285.468668 
L 223.27049 285.528767 
L 223.673287 284.409299 
L 224.076084 285.602382 
L 224.478881 285.290196 
L 224.881678 284.155051 
L 225.284476 284.415776 
L 225.687273 284.16028 
L 226.09007 284.27313 
L 226.895664 285.576956 
L 227.298462 287.477774 
L 227.701259 288.622444 
L 228.104056 284.171139 
L 228.506853 283.748915 
L 228.90965 283.800759 
L 229.312448 284.278802 
L 229.715245 284.196655 
L 230.118042 283.960043 
L 230.923636 284.835914 
L 231.326434 283.747122 
L 231.729231 284.007773 
L 232.132028 283.286565 
L 232.534825 284.498575 
L 232.937622 284.60627 
L 233.34042 283.516038 
L 234.146014 282.470574 
L 234.548811 281.816956 
L 234.951608 283.932813 
L 235.354406 282.877819 
L 235.757203 282.545165 
L 236.16 283.559382 
L 236.562797 282.563617 
L 236.965594 283.341733 
L 237.368392 283.247996 
L 237.771189 282.779969 
L 238.173986 283.845501 
L 238.576783 284.380244 
L 238.97958 283.895867 
L 239.382378 283.04095 
L 239.785175 283.415364 
L 240.187972 284.311282 
L 240.590769 283.780776 
L 241.396364 281.688525 
L 241.799161 281.821817 
L 242.201958 279.84709 
L 243.007552 279.814781 
L 243.41035 278.607867 
L 243.813147 279.982282 
L 244.215944 279.779404 
L 244.618741 278.536776 
L 245.021538 277.878644 
L 245.424336 279.455137 
L 245.827133 278.066747 
L 246.632727 277.819906 
L 247.438322 278.383111 
L 247.841119 276.55158 
L 248.243916 279.253849 
L 248.646713 283.506769 
L 249.452308 276.599054 
L 249.855105 276.870164 
L 250.257902 276.305912 
L 250.660699 277.072631 
L 251.063497 277.558417 
L 251.466294 277.373723 
L 251.869091 277.340544 
L 252.271888 277.884855 
L 252.674685 276.989321 
L 253.077483 276.890189 
L 253.48028 276.379757 
L 253.883077 277.382522 
L 254.285874 277.534928 
L 254.688671 277.192888 
L 255.091469 277.24971 
L 255.494266 273.906651 
L 255.897063 278.225513 
L 256.29986 275.459298 
L 256.702657 275.508885 
L 257.105455 276.308346 
L 257.508252 278.428643 
L 257.911049 277.571293 
L 258.313846 276.185544 
L 258.716643 275.668329 
L 259.119441 278.569357 
L 259.522238 278.030511 
L 259.925035 278.039726 
L 260.327832 277.1348 
L 260.730629 278.071358 
L 261.133427 278.642257 
L 261.536224 278.884259 
L 261.939021 279.2572 
L 262.744615 275.549028 
L 263.147413 275.865077 
L 263.55021 275.218897 
L 263.953007 276.141245 
L 264.355804 274.576827 
L 264.758601 274.933039 
L 265.161399 275.759564 
L 265.564196 274.423247 
L 265.966993 274.956427 
L 266.36979 276.34852 
L 266.772587 274.357839 
L 267.175385 273.283161 
L 267.578182 274.667362 
L 267.980979 274.799491 
L 268.383776 290.051767 
L 268.786573 279.601305 
L 269.189371 276.628727 
L 269.592168 281.871324 
L 269.994965 280.522255 
L 270.397762 274.346628 
L 270.800559 275.52079 
L 271.203357 274.04306 
L 271.606154 274.110122 
L 272.008951 273.964274 
L 272.411748 276.708505 
L 272.814545 275.130774 
L 273.217343 274.260148 
L 273.62014 273.755558 
L 274.022937 275.206385 
L 274.425734 275.36935 
L 274.828531 276.101225 
L 275.231329 275.866843 
L 275.634126 271.435969 
L 276.036923 273.519576 
L 276.43972 272.369457 
L 276.842517 275.664877 
L 277.245315 273.613921 
L 277.648112 273.098969 
L 278.453706 274.394033 
L 278.856503 273.299857 
L 279.662098 275.82987 
L 280.064895 276.807962 
L 280.467692 277.476638 
L 281.273287 275.774856 
L 282.078881 277.809714 
L 282.481678 277.062359 
L 282.884476 276.683506 
L 283.287273 276.789126 
L 283.69007 272.454518 
L 284.092867 271.965056 
L 284.495664 271.909114 
L 284.898462 271.96608 
L 285.301259 271.856458 
L 285.704056 272.38045 
L 286.106853 271.06426 
L 286.50965 271.585989 
L 286.912448 268.705542 
L 287.315245 271.809822 
L 287.718042 270.55267 
L 288.120839 268.384851 
L 288.523636 270.814132 
L 288.926434 268.78167 
L 289.329231 270.120969 
L 289.732028 270.163721 
L 290.134825 271.470476 
L 290.537622 283.265365 
L 291.343217 271.235289 
L 291.746014 270.791913 
L 292.148811 270.526294 
L 292.551608 269.889597 
L 292.954406 272.298329 
L 293.357203 271.117657 
L 293.76 271.873672 
L 294.162797 269.152567 
L 294.565594 270.891028 
L 295.371189 269.479422 
L 295.773986 270.560354 
L 296.176783 270.06721 
L 296.57958 269.380696 
L 296.982378 271.895112 
L 297.385175 268.723722 
L 297.787972 270.852508 
L 298.190769 269.086497 
L 298.593566 268.657705 
L 298.996364 268.757317 
L 299.801958 272.060751 
L 300.204755 270.059894 
L 300.607552 271.480807 
L 301.01035 271.827655 
L 301.413147 271.607328 
L 301.815944 272.456348 
L 302.218741 270.640078 
L 302.621538 272.320004 
L 303.024336 271.780672 
L 303.427133 271.991223 
L 303.82993 274.352306 
L 304.635524 269.099309 
L 305.038322 269.097009 
L 305.441119 269.250146 
L 305.843916 267.9707 
L 306.246713 268.72418 
L 306.64951 269.135786 
L 307.052308 266.649874 
L 307.455105 268.127065 
L 307.857902 267.749226 
L 308.663497 269.372745 
L 309.066294 265.861187 
L 309.871888 267.934677 
L 310.274685 267.896851 
L 310.677483 267.594131 
L 311.08028 269.378801 
L 311.483077 280.419922 
L 311.885874 280.184398 
L 312.288671 268.911659 
L 312.691469 267.456276 
L 313.094266 267.163108 
L 313.497063 267.492913 
L 313.89986 268.066828 
L 314.302657 269.507606 
L 314.705455 268.931824 
L 315.108252 269.560672 
L 315.511049 268.725616 
L 315.913846 268.219404 
L 316.316643 277.857183 
L 316.719441 282.60043 
L 317.122238 283.910264 
L 317.927832 281.624162 
L 318.733427 282.79754 
L 319.136224 282.786719 
L 319.539021 279.975196 
L 319.941818 280.012537 
L 320.344615 281.430638 
L 320.747413 276.762751 
L 321.15021 278.053482 
L 321.553007 277.63439 
L 321.955804 276.70421 
L 322.358601 280.441767 
L 322.761399 279.051696 
L 323.164196 279.579289 
L 323.566993 278.286263 
L 323.96979 277.66051 
L 324.372587 278.606592 
L 324.775385 277.95657 
L 325.178182 278.588215 
L 325.580979 278.031701 
L 325.983776 275.566621 
L 326.386573 275.65715 
L 326.789371 272.658602 
L 327.192168 274.735283 
L 327.594965 274.750715 
L 327.997762 273.056089 
L 328.400559 274.932943 
L 328.803357 276.070314 
L 329.206154 276.091695 
L 329.608951 275.597772 
L 330.011748 277.407287 
L 330.817343 274.55821 
L 331.22014 273.420065 
L 331.622937 275.5582 
L 332.025734 277.093079 
L 332.428531 280.636743 
L 332.831329 285.268682 
L 333.636923 275.664002 
L 334.03972 276.613045 
L 335.248112 275.801355 
L 335.650909 277.363046 
L 336.053706 276.933405 
L 336.456503 272.806825 
L 336.859301 272.664333 
L 337.262098 271.174752 
L 337.664895 275.880722 
L 338.067692 273.651208 
L 338.47049 274.416358 
L 338.873287 275.538906 
L 339.276084 273.443229 
L 339.678881 269.836285 
L 340.081678 276.499357 
L 340.484476 274.27677 
L 340.887273 276.745398 
L 341.29007 278.42368 
L 341.692867 271.925426 
L 342.095664 270.957269 
L 342.498462 272.73345 
L 342.901259 276.414947 
L 343.304056 278.231933 
L 343.706853 276.266186 
L 344.10965 276.557455 
L 344.512448 278.074778 
L 344.915245 276.203446 
L 345.720839 276.294104 
L 346.123636 278.38056 
L 346.526434 273.580646 
L 346.929231 271.749798 
L 347.332028 273.853831 
L 347.734825 271.15209 
L 348.137622 272.926761 
L 348.54042 270.6413 
L 349.346014 272.498027 
L 349.748811 272.421563 
L 350.151608 273.293278 
L 350.554406 270.777911 
L 350.957203 270.330539 
L 351.36 271.590098 
L 351.762797 271.003516 
L 352.165594 269.167823 
L 352.568392 270.50654 
L 352.971189 270.48898 
L 353.373986 274.363575 
L 353.776783 283.771587 
L 354.17958 278.660576 
L 354.582378 277.212722 
L 354.985175 272.602799 
L 355.387972 270.66679 
L 355.790769 275.174582 
L 356.193566 270.493617 
L 356.596364 269.570698 
L 356.999161 272.958361 
L 357.401958 271.880459 
L 357.804755 271.854057 
L 358.207552 270.1626 
L 358.61035 266.82976 
L 359.013147 272.682454 
L 359.415944 272.74171 
L 359.818741 260.824575 
L 360.221538 272.054065 
L 360.624336 271.021439 
L 361.027133 276.223264 
L 361.832727 271.177879 
L 362.235524 274.370373 
L 362.638322 274.330476 
L 363.041119 272.089464 
L 363.443916 272.212682 
L 363.846713 276.884485 
L 364.24951 270.370644 
L 364.652308 272.921436 
L 365.055105 277.075262 
L 365.457902 279.005113 
L 365.860699 276.418672 
L 366.263497 278.002406 
L 367.069091 277.617555 
L 367.471888 276.314076 
L 367.874685 274.528344 
L 368.277483 271.641921 
L 368.68028 270.369364 
L 369.083077 270.908706 
L 369.485874 270.157451 
L 369.888671 268.155586 
L 370.291469 272.333957 
L 370.694266 272.685496 
L 371.097063 269.397146 
L 371.49986 268.868001 
L 371.902657 272.719086 
L 372.305455 268.672987 
L 372.708252 274.021193 
L 373.111049 268.942202 
L 373.513846 268.61545 
L 373.916643 270.695428 
L 374.319441 275.00952 
L 374.722238 280.922649 
L 375.527832 271.280319 
L 375.930629 269.938602 
L 376.333427 269.769511 
L 376.736224 273.328767 
L 377.541818 270.384315 
L 377.944615 273.178245 
L 378.347413 273.378824 
L 378.75021 268.667011 
L 379.153007 272.745114 
L 379.555804 274.779406 
L 379.958601 269.501267 
L 380.361399 275.013356 
L 381.166993 269.018005 
L 381.972587 274.700792 
L 382.375385 269.79816 
L 382.778182 268.499777 
L 383.180979 273.610607 
L 383.583776 273.075602 
L 383.986573 270.726366 
L 384.389371 275.358326 
L 384.792168 276.337992 
L 385.194965 274.912939 
L 385.597762 276.124933 
L 386.000559 275.891725 
L 386.403357 276.575837 
L 386.806154 275.017881 
L 387.208951 276.900579 
L 387.611748 274.539214 
L 388.014545 277.530862 
L 388.82014 268.11333 
L 389.222937 268.138383 
L 389.625734 271.358779 
L 390.028531 270.529304 
L 390.431329 267.023103 
L 390.834126 270.066201 
L 391.236923 269.14467 
L 391.63972 271.227231 
L 392.042517 267.724446 
L 392.848112 270.887005 
L 393.250909 268.596486 
L 393.653706 272.44581 
L 394.056503 268.449202 
L 394.459301 270.329878 
L 394.862098 268.903447 
L 395.264895 273.496962 
L 395.667692 282.97996 
L 396.07049 280.715603 
L 396.473287 273.160791 
L 396.876084 272.319844 
L 397.278881 269.813762 
L 397.681678 269.333456 
L 398.084476 272.387466 
L 398.487273 270.987358 
L 398.487273 270.987358 
" clip-path="url(#pd0ff97305f)" style="fill: none; stroke: #2ca02c; stroke-width: 1.5; stroke-linecap: square"/>
   </g>
   <g id="patch_3">
    <path d="M 57.6 307.584 
L 57.6 41.472 
" style="fill: none; stroke: #000000; stroke-width: 0.8; stroke-linejoin: miter; stroke-linecap: square"/>
   </g>
   <g id="patch_4">
    <path d="M 414.72 307.584 
L 414.72 41.472 
" style="fill: none; stroke: #000000; stroke-width: 0.8; stroke-linejoin: miter; stroke-linecap: square"/>
   </g>
   <g id="patch_5">
    <path d="M 57.6 307.584 
L 414.72 307.584 
" style="fill: none; stroke: #000000; stroke-width: 0.8; stroke-linejoin: miter; stroke-linecap: square"/>
   </g>
   <g id="patch_6">
    <path d="M 57.6 41.472 
L 414.72 41.472 
" style="fill: none; stroke: #000000; stroke-width: 0.8; stroke-linejoin: miter; stroke-linecap: square"/>
   </g>
   <g id="legend_1">
    <g id="patch_7">
     <path d="M 64.6 93.506375 
L 186.25625 93.506375 
Q 188.25625 93.506375 188.25625 91.506375 
L 188.25625 48.472 
Q 188.25625 46.472 186.25625 46.472 
L 64.6 46.472 
Q 62.6 46.472 62.6 48.472 
L 62.6 91.506375 
Q 62.6 93.506375 64.6 93.506375 
z
" style="fill: #ffffff; opacity: 0.8; stroke: #cccccc; stroke-linejoin: miter"/>
    </g>
    <g id="line2d_18">
     <path d="M 66.6 54.570438 
L 76.6 54.570438 
L 86.6 54.570438 
" style="fill: none; stroke: #1f77b4; stroke-width: 1.5; stroke-linecap: square"/>
    </g>
    <g id="text_17">
     <!-- Weekly maximum -->
     <g transform="translate(94.6 58.070438) scale(0.1 -0.1)">
      <defs>
       <path id="DejaVuSans-57" d="M 213 4666 
L 850 4666 
L 1831 722 
L 2809 4666 
L 3519 4666 
L 4500 722 
L 5478 4666 
L 6119 4666 
L 4947 0 
L 4153 0 
L 3169 4050 
L 2175 0 
L 1381 0 
L 213 4666 
z
" transform="scale(0.015625)"/>
       <path id="DejaVuSans-6b" d="M 581 4863 
L 1159 4863 
L 1159 1991 
L 2875 3500 
L 3609 3500 
L 1753 1863 
L 3688 0 
L 2938 0 
L 1159 1709 
L 1159 0 
L 581 0 
L 581 4863 
z
" transform="scale(0.015625)"/>
       <path id="DejaVuSans-79" d="M 2059 -325 
Q 1816 -950 1584 -1140 
Q 1353 -1331 966 -1331 
L 506 -1331 
L 506 -850 
L 844 -850 
Q 1081 -850 1212 -737 
Q 1344 -625 1503 -206 
L 1606 56 
L 191 3500 
L 800 3500 
L 1894 763 
L 2988 3500 
L 3597 3500 
L 2059 -325 
z
" transform="scale(0.015625)"/>
       <path id="DejaVuSans-6d" d="M 3328 2828 
Q 3544 3216 3844 3400 
Q 4144 3584 4550 3584 
Q 5097 3584 5394 3201 
Q 5691 2819 5691 2113 
L 5691 0 
L 5113 0 
L 5113 2094 
Q 5113 2597 4934 2840 
Q 4756 3084 4391 3084 
Q 3944 3084 3684 2787 
Q 3425 2491 3425 1978 
L 3425 0 
L 2847 0 
L 2847 2094 
Q 2847 2600 2669 2842 
Q 2491 3084 2119 3084 
Q 1678 3084 1418 2786 
Q 1159 2488 1159 1978 
L 1159 0 
L 581 0 
L 581 3500 
L 1159 3500 
L 1159 2956 
Q 1356 3278 1631 3431 
Q 1906 3584 2284 3584 
Q 2666 3584 2933 3390 
Q 3200 3197 3328 2828 
z
" transform="scale(0.015625)"/>
       <path id="DejaVuSans-78" d="M 3513 3500 
L 2247 1797 
L 3578 0 
L 2900 0 
L 1881 1375 
L 863 0 
L 184 0 
L 1544 1831 
L 300 3500 
L 978 3500 
L 1906 2253 
L 2834 3500 
L 3513 3500 
z
" transform="scale(0.015625)"/>
       <path id="DejaVuSans-75" d="M 544 1381 
L 544 3500 
L 1119 3500 
L 1119 1403 
Q 1119 906 1312 657 
Q 1506 409 1894 409 
Q 2359 409 2629 706 
Q 2900 1003 2900 1516 
L 2900 3500 
L 3475 3500 
L 3475 0 
L 2900 0 
L 2900 538 
Q 2691 219 2414 64 
Q 2138 -91 1772 -91 
Q 1169 -91 856 284 
Q 544 659 544 1381 
z
M 1991 3584 
L 1991 3584 
z
" transform="scale(0.015625)"/>
      </defs>
      <use xlink:href="#DejaVuSans-57"/>
      <use xlink:href="#DejaVuSans-65" x="93.001953"/>
      <use xlink:href="#DejaVuSans-65" x="154.525391"/>
      <use xlink:href="#DejaVuSans-6b" x="216.048828"/>
      <use xlink:href="#DejaVuSans-6c" x="273.958984"/>
      <use xlink:href="#DejaVuSans-79" x="301.742188"/>
      <use xlink:href="#DejaVuSans-20" x="360.921875"/>
      <use xlink:href="#DejaVuSans-6d" x="392.708984"/>
      <use xlink:href="#DejaVuSans-61" x="490.121094"/>
      <use xlink:href="#DejaVuSans-78" x="551.400391"/>
      <use xlink:href="#DejaVuSans-69" x="610.580078"/>
      <use xlink:href="#DejaVuSans-6d" x="638.363281"/>
      <use xlink:href="#DejaVuSans-75" x="735.775391"/>
      <use xlink:href="#DejaVuSans-6d" x="799.154297"/>
     </g>
    </g>
    <g id="line2d_19">
     <path d="M 66.6 69.248563 
L 76.6 69.248563 
L 86.6 69.248563 
" style="fill: none; stroke: #ff7f0e; stroke-width: 1.5; stroke-linecap: square"/>
    </g>
    <g id="text_18">
     <!-- Weekly minimum -->
     <g transform="translate(94.6 72.748563) scale(0.1 -0.1)">
      <defs>
       <path id="DejaVuSans-6e" d="M 3513 2113 
L 3513 0 
L 2938 0 
L 2938 2094 
Q 2938 2591 2744 2837 
Q 2550 3084 2163 3084 
Q 1697 3084 1428 2787 
Q 1159 2491 1159 1978 
L 1159 0 
L 581 0 
L 581 3500 
L 1159 3500 
L 1159 2956 
Q 1366 3272 1645 3428 
Q 1925 3584 2291 3584 
Q 2894 3584 3203 3211 
Q 3513 2838 3513 2113 
z
" transform="scale(0.015625)"/>
      </defs>
      <use xlink:href="#DejaVuSans-57"/>
      <use xlink:href="#DejaVuSans-65" x="93.001953"/>
      <use xlink:href="#DejaVuSans-65" x="154.525391"/>
      <use xlink:href="#DejaVuSans-6b" x="216.048828"/>
      <use xlink:href="#DejaVuSans-6c" x="273.958984"/>
      <use xlink:href="#DejaVuSans-79" x="301.742188"/>
      <use xlink:href="#DejaVuSans-20" x="360.921875"/>
      <use xlink:href="#DejaVuSans-6d" x="392.708984"/>
      <use xlink:href="#DejaVuSans-69" x="490.121094"/>
      <use xlink:href="#DejaVuSans-6e" x="517.904297"/>
      <use xlink:href="#DejaVuSans-69" x="581.283203"/>
      <use xlink:href="#DejaVuSans-6d" x="609.066406"/>
      <use xlink:href="#DejaVuSans-75" x="706.478516"/>
      <use xlink:href="#DejaVuSans-6d" x="769.857422"/>
     </g>
    </g>
    <g id="line2d_20">
     <path d="M 66.6 83.926688 
L 76.6 83.926688 
L 86.6 83.926688 
" style="fill: none; stroke: #2ca02c; stroke-width: 1.5; stroke-linecap: square"/>
    </g>
    <g id="text_19">
     <!-- Weekly range -->
     <g transform="translate(94.6 87.426688) scale(0.1 -0.1)">
      <use xlink:href="#DejaVuSans-57"/>
      <use xlink:href="#DejaVuSans-65" x="93.001953"/>
      <use xlink:href="#DejaVuSans-65" x="154.525391"/>
      <use xlink:href="#DejaVuSans-6b" x="216.048828"/>
      <use xlink:href="#DejaVuSans-6c" x="273.958984"/>
      <use xlink:href="#DejaVuSans-79" x="301.742188"/>
      <use xlink:href="#DejaVuSans-20" x="360.921875"/>
      <use xlink:href="#DejaVuSans-72" x="392.708984"/>
      <use xlink:href="#DejaVuSans-61" x="433.822266"/>
      <use xlink:href="#DejaVuSans-6e" x="495.101562"/>
      <use xlink:href="#DejaVuSans-67" x="558.480469"/>
      <use xlink:href="#DejaVuSans-65" x="621.957031"/>
     </g>
    </g>
   </g>
  </g>
 </g>
 <defs>
  <clipPath id="pd0ff97305f">
   <rect x="57.6" y="41.472" width="357.12" height="266.112"/>
  </clipPath>
 </defs>
</svg>
