<?xml version="1.0" encoding="utf-8" standalone="no"?>
<!DOCTYPE svg PUBLIC "-//W3C//DTD SVG 1.1//EN"
  "http://www.w3.org/Graphics/SVG/1.1/DTD/svg11.dtd">
<svg xmlns:xlink="http://www.w3.org/1999/xlink" width="460.8pt" height="345.6pt" viewBox="0 0 460.8 345.6" xmlns="http://www.w3.org/2000/svg" version="1.1">
 <metadata>
  <rdf:RDF xmlns:dc="http://purl.org/dc/elements/1.1/" xmlns:cc="http://creativecommons.org/ns#" xmlns:rdf="http://www.w3.org/1999/02/22-rdf-syntax-ns#">
   <cc:Work>
    <dc:type rdf:resource="http://purl.org/dc/dcmitype/StillImage"/>
    <dc:date>2023-03-29T05:31:34.385222</dc:date>
    <dc:format>image/svg+xml</dc:format>
    <dc:creator>
     <cc:Agent>
      <dc:title>Matplotlib v3.7.1, https://matplotlib.org/</dc:title>
     </cc:Agent>
    </dc:creator>
   </cc:Work>
  </rdf:RDF>
 </metadata>
 <defs>
  <style type="text/css">*{stroke-linejoin: round; stroke-linecap: butt}</style>
 </defs>
 <g id="figure_1">
  <g id="patch_1">
   <path d="M 0 345.6 
L 460.8 345.6 
L 460.8 0 
L 0 0 
z
" style="fill: #ffffff"/>
  </g>
  <g id="axes_1">
   <g id="patch_2">
    <path d="M 57.6 307.584 
L 414.72 307.584 
L 414.72 41.472 
L 57.6 41.472 
z
" style="fill: #ffffff"/>
   </g>
   <g id="matplotlib.axis_1">
    <g id="xtick_1">
     <g id="line2d_1">
      <defs>
       <path id="m9082b675c8" d="M 0 0 
L 0 3.5 
" style="stroke: #000000; stroke-width: 0.8"/>
      </defs>
      <g>
       <use xlink:href="#m9082b675c8" x="58.942556" y="307.584" style="stroke: #000000; stroke-width: 0.8"/>
      </g>
     </g>
     <g id="text_1">
      <!-- 2008 -->
      <g transform="translate(46.217556 322.182437) scale(0.1 -0.1)">
       <defs>
        <path id="DejaVuSans-32" d="M 1228 531 
L 3431 531 
L 3431 0 
L 469 0 
L 469 531 
Q 828 903 1448 1529 
Q 2069 2156 2228 2338 
Q 2531 2678 2651 2914 
Q 2772 3150 2772 3378 
Q 2772 3750 2511 3984 
Q 2250 4219 1831 4219 
Q 1534 4219 1204 4116 
Q 875 4013 500 3803 
L 500 4441 
Q 881 4594 1212 4672 
Q 1544 4750 1819 4750 
Q 2544 4750 2975 4387 
Q 3406 4025 3406 3419 
Q 3406 3131 3298 2873 
Q 3191 2616 2906 2266 
Q 2828 2175 2409 1742 
Q 1991 1309 1228 531 
z
" transform="scale(0.015625)"/>
        <path id="DejaVuSans-30" d="M 2034 4250 
Q 1547 4250 1301 3770 
Q 1056 3291 1056 2328 
Q 1056 1369 1301 889 
Q 1547 409 2034 409 
Q 2525 409 2770 889 
Q 3016 1369 3016 2328 
Q 3016 3291 2770 3770 
Q 2525 4250 2034 4250 
z
M 2034 4750 
Q 2819 4750 3233 4129 
Q 3647 3509 3647 2328 
Q 3647 1150 3233 529 
Q 2819 -91 2034 -91 
Q 1250 -91 836 529 
Q 422 1150 422 2328 
Q 422 3509 836 4129 
Q 1250 4750 2034 4750 
z
" transform="scale(0.015625)"/>
        <path id="DejaVuSans-38" d="M 2034 2216 
Q 1584 2216 1326 1975 
Q 1069 1734 1069 1313 
Q 1069 891 1326 650 
Q 1584 409 2034 409 
Q 2484 409 2743 651 
Q 3003 894 3003 1313 
Q 3003 1734 2745 1975 
Q 2488 2216 2034 2216 
z
M 1403 2484 
Q 997 2584 770 2862 
Q 544 3141 544 3541 
Q 544 4100 942 4425 
Q 1341 4750 2034 4750 
Q 2731 4750 3128 4425 
Q 3525 4100 3525 3541 
Q 3525 3141 3298 2862 
Q 3072 2584 2669 2484 
Q 3125 2378 3379 2068 
Q 3634 1759 3634 1313 
Q 3634 634 3220 271 
Q 2806 -91 2034 -91 
Q 1263 -91 848 271 
Q 434 634 434 1313 
Q 434 1759 690 2068 
Q 947 2378 1403 2484 
z
M 1172 3481 
Q 1172 3119 1398 2916 
Q 1625 2713 2034 2713 
Q 2441 2713 2670 2916 
Q 2900 3119 2900 3481 
Q 2900 3844 2670 4047 
Q 2441 4250 2034 4250 
Q 1625 4250 1398 4047 
Q 1172 3844 1172 3481 
z
" transform="scale(0.015625)"/>
       </defs>
       <use xlink:href="#DejaVuSans-32"/>
       <use xlink:href="#DejaVuSans-30" x="63.623047"/>
       <use xlink:href="#DejaVuSans-30" x="127.246094"/>
       <use xlink:href="#DejaVuSans-38" x="190.869141"/>
      </g>
     </g>
    </g>
    <g id="xtick_2">
     <g id="line2d_2">
      <g>
       <use xlink:href="#m9082b675c8" x="103.552044" y="307.584" style="stroke: #000000; stroke-width: 0.8"/>
      </g>
     </g>
     <g id="text_2">
      <!-- 2010 -->
      <g transform="translate(90.827044 322.182437) scale(0.1 -0.1)">
       <defs>
        <path id="DejaVuSans-31" d="M 794 531 
L 1825 531 
L 1825 4091 
L 703 3866 
L 703 4441 
L 1819 4666 
L 2450 4666 
L 2450 531 
L 3481 531 
L 3481 0 
L 794 0 
L 794 531 
z
" transform="scale(0.015625)"/>
       </defs>
       <use xlink:href="#DejaVuSans-32"/>
       <use xlink:href="#DejaVuSans-30" x="63.623047"/>
       <use xlink:href="#DejaVuSans-31" x="127.246094"/>
       <use xlink:href="#DejaVuSans-30" x="190.869141"/>
      </g>
     </g>
    </g>
    <g id="xtick_3">
     <g id="line2d_3">
      <g>
       <use xlink:href="#m9082b675c8" x="148.100506" y="307.584" style="stroke: #000000; stroke-width: 0.8"/>
      </g>
     </g>
     <g id="text_3">
      <!-- 2012 -->
      <g transform="translate(135.375506 322.182437) scale(0.1 -0.1)">
       <use xlink:href="#DejaVuSans-32"/>
       <use xlink:href="#DejaVuSans-30" x="63.623047"/>
       <use xlink:href="#DejaVuSans-31" x="127.246094"/>
       <use xlink:href="#DejaVuSans-32" x="190.869141"/>
      </g>
     </g>
    </g>
    <g id="xtick_4">
     <g id="line2d_4">
      <g>
       <use xlink:href="#m9082b675c8" x="192.709993" y="307.584" style="stroke: #000000; stroke-width: 0.8"/>
      </g>
     </g>
     <g id="text_4">
      <!-- 2014 -->
      <g transform="translate(179.984993 322.182437) scale(0.1 -0.1)">
       <defs>
        <path id="DejaVuSans-34" d="M 2419 4116 
L 825 1625 
L 2419 1625 
L 2419 4116 
z
M 2253 4666 
L 3047 4666 
L 3047 1625 
L 3713 1625 
L 3713 1100 
L 3047 1100 
L 3047 0 
L 2419 0 
L 2419 1100 
L 313 1100 
L 313 1709 
L 2253 4666 
z
" transform="scale(0.015625)"/>
       </defs>
       <use xlink:href="#DejaVuSans-32"/>
       <use xlink:href="#DejaVuSans-30" x="63.623047"/>
       <use xlink:href="#DejaVuSans-31" x="127.246094"/>
       <use xlink:href="#DejaVuSans-34" x="190.869141"/>
      </g>
     </g>
    </g>
    <g id="xtick_5">
     <g id="line2d_5">
      <g>
       <use xlink:href="#m9082b675c8" x="237.258455" y="307.584" style="stroke: #000000; stroke-width: 0.8"/>
      </g>
     </g>
     <g id="text_5">
      <!-- 2016 -->
      <g transform="translate(224.533455 322.182437) scale(0.1 -0.1)">
       <defs>
        <path id="DejaVuSans-36" d="M 2113 2584 
Q 1688 2584 1439 2293 
Q 1191 2003 1191 1497 
Q 1191 994 1439 701 
Q 1688 409 2113 409 
Q 2538 409 2786 701 
Q 3034 994 3034 1497 
Q 3034 2003 2786 2293 
Q 2538 2584 2113 2584 
z
M 3366 4563 
L 3366 3988 
Q 3128 4100 2886 4159 
Q 2644 4219 2406 4219 
Q 1781 4219 1451 3797 
Q 1122 3375 1075 2522 
Q 1259 2794 1537 2939 
Q 1816 3084 2150 3084 
Q 2853 3084 3261 2657 
Q 3669 2231 3669 1497 
Q 3669 778 3244 343 
Q 2819 -91 2113 -91 
Q 1303 -91 875 529 
Q 447 1150 447 2328 
Q 447 3434 972 4092 
Q 1497 4750 2381 4750 
Q 2619 4750 2861 4703 
Q 3103 4656 3366 4563 
z
" transform="scale(0.015625)"/>
       </defs>
       <use xlink:href="#DejaVuSans-32"/>
       <use xlink:href="#DejaVuSans-30" x="63.623047"/>
       <use xlink:href="#DejaVuSans-31" x="127.246094"/>
       <use xlink:href="#DejaVuSans-36" x="190.869141"/>
      </g>
     </g>
    </g>
    <g id="xtick_6">
     <g id="line2d_6">
      <g>
       <use xlink:href="#m9082b675c8" x="281.867943" y="307.584" style="stroke: #000000; stroke-width: 0.8"/>
      </g>
     </g>
     <g id="text_6">
      <!-- 2018 -->
      <g transform="translate(269.142943 322.182437) scale(0.1 -0.1)">
       <use xlink:href="#DejaVuSans-32"/>
       <use xlink:href="#DejaVuSans-30" x="63.623047"/>
       <use xlink:href="#DejaVuSans-31" x="127.246094"/>
       <use xlink:href="#DejaVuSans-38" x="190.869141"/>
      </g>
     </g>
    </g>
    <g id="xtick_7">
     <g id="line2d_7">
      <g>
       <use xlink:href="#m9082b675c8" x="326.416405" y="307.584" style="stroke: #000000; stroke-width: 0.8"/>
      </g>
     </g>
     <g id="text_7">
      <!-- 2020 -->
      <g transform="translate(313.691405 322.182437) scale(0.1 -0.1)">
       <use xlink:href="#DejaVuSans-32"/>
       <use xlink:href="#DejaVuSans-30" x="63.623047"/>
       <use xlink:href="#DejaVuSans-32" x="127.246094"/>
       <use xlink:href="#DejaVuSans-30" x="190.869141"/>
      </g>
     </g>
    </g>
    <g id="xtick_8">
     <g id="line2d_8">
      <g>
       <use xlink:href="#m9082b675c8" x="371.025892" y="307.584" style="stroke: #000000; stroke-width: 0.8"/>
      </g>
     </g>
     <g id="text_8">
      <!-- 2022 -->
      <g transform="translate(358.300892 322.182437) scale(0.1 -0.1)">
       <use xlink:href="#DejaVuSans-32"/>
       <use xlink:href="#DejaVuSans-30" x="63.623047"/>
       <use xlink:href="#DejaVuSans-32" x="127.246094"/>
       <use xlink:href="#DejaVuSans-32" x="190.869141"/>
      </g>
     </g>
    </g>
    <g id="text_9">
     <!-- Updated 2023-03-29 05:31:34.383476 - Last record 2023-03-27 -->
     <g transform="translate(75.905312 335.860562) scale(0.1 -0.1)">
      <defs>
       <path id="DejaVuSans-55" d="M 556 4666 
L 1191 4666 
L 1191 1831 
Q 1191 1081 1462 751 
Q 1734 422 2344 422 
Q 2950 422 3222 751 
Q 3494 1081 3494 1831 
L 3494 4666 
L 4128 4666 
L 4128 1753 
Q 4128 841 3676 375 
Q 3225 -91 2344 -91 
Q 1459 -91 1007 375 
Q 556 841 556 1753 
L 556 4666 
z
" transform="scale(0.015625)"/>
       <path id="DejaVuSans-70" d="M 1159 525 
L 1159 -1331 
L 581 -1331 
L 581 3500 
L 1159 3500 
L 1159 2969 
Q 1341 3281 1617 3432 
Q 1894 3584 2278 3584 
Q 2916 3584 3314 3078 
Q 3713 2572 3713 1747 
Q 3713 922 3314 415 
Q 2916 -91 2278 -91 
Q 1894 -91 1617 61 
Q 1341 213 1159 525 
z
M 3116 1747 
Q 3116 2381 2855 2742 
Q 2594 3103 2138 3103 
Q 1681 3103 1420 2742 
Q 1159 2381 1159 1747 
Q 1159 1113 1420 752 
Q 1681 391 2138 391 
Q 2594 391 2855 752 
Q 3116 1113 3116 1747 
z
" transform="scale(0.015625)"/>
       <path id="DejaVuSans-64" d="M 2906 2969 
L 2906 4863 
L 3481 4863 
L 3481 0 
L 2906 0 
L 2906 525 
Q 2725 213 2448 61 
Q 2172 -91 1784 -91 
Q 1150 -91 751 415 
Q 353 922 353 1747 
Q 353 2572 751 3078 
Q 1150 3584 1784 3584 
Q 2172 3584 2448 3432 
Q 2725 3281 2906 2969 
z
M 947 1747 
Q 947 1113 1208 752 
Q 1469 391 1925 391 
Q 2381 391 2643 752 
Q 2906 1113 2906 1747 
Q 2906 2381 2643 2742 
Q 2381 3103 1925 3103 
Q 1469 3103 1208 2742 
Q 947 2381 947 1747 
z
" transform="scale(0.015625)"/>
       <path id="DejaVuSans-61" d="M 2194 1759 
Q 1497 1759 1228 1600 
Q 959 1441 959 1056 
Q 959 750 1161 570 
Q 1363 391 1709 391 
Q 2188 391 2477 730 
Q 2766 1069 2766 1631 
L 2766 1759 
L 2194 1759 
z
M 3341 1997 
L 3341 0 
L 2766 0 
L 2766 531 
Q 2569 213 2275 61 
Q 1981 -91 1556 -91 
Q 1019 -91 701 211 
Q 384 513 384 1019 
Q 384 1609 779 1909 
Q 1175 2209 1959 2209 
L 2766 2209 
L 2766 2266 
Q 2766 2663 2505 2880 
Q 2244 3097 1772 3097 
Q 1472 3097 1187 3025 
Q 903 2953 641 2809 
L 641 3341 
Q 956 3463 1253 3523 
Q 1550 3584 1831 3584 
Q 2591 3584 2966 3190 
Q 3341 2797 3341 1997 
z
" transform="scale(0.015625)"/>
       <path id="DejaVuSans-74" d="M 1172 4494 
L 1172 3500 
L 2356 3500 
L 2356 3053 
L 1172 3053 
L 1172 1153 
Q 1172 725 1289 603 
Q 1406 481 1766 481 
L 2356 481 
L 2356 0 
L 1766 0 
Q 1100 0 847 248 
Q 594 497 594 1153 
L 594 3053 
L 172 3053 
L 172 3500 
L 594 3500 
L 594 4494 
L 1172 4494 
z
" transform="scale(0.015625)"/>
       <path id="DejaVuSans-65" d="M 3597 1894 
L 3597 1613 
L 953 1613 
Q 991 1019 1311 708 
Q 1631 397 2203 397 
Q 2534 397 2845 478 
Q 3156 559 3463 722 
L 3463 178 
Q 3153 47 2828 -22 
Q 2503 -91 2169 -91 
Q 1331 -91 842 396 
Q 353 884 353 1716 
Q 353 2575 817 3079 
Q 1281 3584 2069 3584 
Q 2775 3584 3186 3129 
Q 3597 2675 3597 1894 
z
M 3022 2063 
Q 3016 2534 2758 2815 
Q 2500 3097 2075 3097 
Q 1594 3097 1305 2825 
Q 1016 2553 972 2059 
L 3022 2063 
z
" transform="scale(0.015625)"/>
       <path id="DejaVuSans-20" transform="scale(0.015625)"/>
       <path id="DejaVuSans-33" d="M 2597 2516 
Q 3050 2419 3304 2112 
Q 3559 1806 3559 1356 
Q 3559 666 3084 287 
Q 2609 -91 1734 -91 
Q 1441 -91 1130 -33 
Q 819 25 488 141 
L 488 750 
Q 750 597 1062 519 
Q 1375 441 1716 441 
Q 2309 441 2620 675 
Q 2931 909 2931 1356 
Q 2931 1769 2642 2001 
Q 2353 2234 1838 2234 
L 1294 2234 
L 1294 2753 
L 1863 2753 
Q 2328 2753 2575 2939 
Q 2822 3125 2822 3475 
Q 2822 3834 2567 4026 
Q 2313 4219 1838 4219 
Q 1578 4219 1281 4162 
Q 984 4106 628 3988 
L 628 4550 
Q 988 4650 1302 4700 
Q 1616 4750 1894 4750 
Q 2613 4750 3031 4423 
Q 3450 4097 3450 3541 
Q 3450 3153 3228 2886 
Q 3006 2619 2597 2516 
z
" transform="scale(0.015625)"/>
       <path id="DejaVuSans-2d" d="M 313 2009 
L 1997 2009 
L 1997 1497 
L 313 1497 
L 313 2009 
z
" transform="scale(0.015625)"/>
       <path id="DejaVuSans-39" d="M 703 97 
L 703 672 
Q 941 559 1184 500 
Q 1428 441 1663 441 
Q 2288 441 2617 861 
Q 2947 1281 2994 2138 
Q 2813 1869 2534 1725 
Q 2256 1581 1919 1581 
Q 1219 1581 811 2004 
Q 403 2428 403 3163 
Q 403 3881 828 4315 
Q 1253 4750 1959 4750 
Q 2769 4750 3195 4129 
Q 3622 3509 3622 2328 
Q 3622 1225 3098 567 
Q 2575 -91 1691 -91 
Q 1453 -91 1209 -44 
Q 966 3 703 97 
z
M 1959 2075 
Q 2384 2075 2632 2365 
Q 2881 2656 2881 3163 
Q 2881 3666 2632 3958 
Q 2384 4250 1959 4250 
Q 1534 4250 1286 3958 
Q 1038 3666 1038 3163 
Q 1038 2656 1286 2365 
Q 1534 2075 1959 2075 
z
" transform="scale(0.015625)"/>
       <path id="DejaVuSans-35" d="M 691 4666 
L 3169 4666 
L 3169 4134 
L 1269 4134 
L 1269 2991 
Q 1406 3038 1543 3061 
Q 1681 3084 1819 3084 
Q 2600 3084 3056 2656 
Q 3513 2228 3513 1497 
Q 3513 744 3044 326 
Q 2575 -91 1722 -91 
Q 1428 -91 1123 -41 
Q 819 9 494 109 
L 494 744 
Q 775 591 1075 516 
Q 1375 441 1709 441 
Q 2250 441 2565 725 
Q 2881 1009 2881 1497 
Q 2881 1984 2565 2268 
Q 2250 2553 1709 2553 
Q 1456 2553 1204 2497 
Q 953 2441 691 2322 
L 691 4666 
z
" transform="scale(0.015625)"/>
       <path id="DejaVuSans-3a" d="M 750 794 
L 1409 794 
L 1409 0 
L 750 0 
L 750 794 
z
M 750 3309 
L 1409 3309 
L 1409 2516 
L 750 2516 
L 750 3309 
z
" transform="scale(0.015625)"/>
       <path id="DejaVuSans-2e" d="M 684 794 
L 1344 794 
L 1344 0 
L 684 0 
L 684 794 
z
" transform="scale(0.015625)"/>
       <path id="DejaVuSans-37" d="M 525 4666 
L 3525 4666 
L 3525 4397 
L 1831 0 
L 1172 0 
L 2766 4134 
L 525 4134 
L 525 4666 
z
" transform="scale(0.015625)"/>
       <path id="DejaVuSans-4c" d="M 628 4666 
L 1259 4666 
L 1259 531 
L 3531 531 
L 3531 0 
L 628 0 
L 628 4666 
z
" transform="scale(0.015625)"/>
       <path id="DejaVuSans-73" d="M 2834 3397 
L 2834 2853 
Q 2591 2978 2328 3040 
Q 2066 3103 1784 3103 
Q 1356 3103 1142 2972 
Q 928 2841 928 2578 
Q 928 2378 1081 2264 
Q 1234 2150 1697 2047 
L 1894 2003 
Q 2506 1872 2764 1633 
Q 3022 1394 3022 966 
Q 3022 478 2636 193 
Q 2250 -91 1575 -91 
Q 1294 -91 989 -36 
Q 684 19 347 128 
L 347 722 
Q 666 556 975 473 
Q 1284 391 1588 391 
Q 1994 391 2212 530 
Q 2431 669 2431 922 
Q 2431 1156 2273 1281 
Q 2116 1406 1581 1522 
L 1381 1569 
Q 847 1681 609 1914 
Q 372 2147 372 2553 
Q 372 3047 722 3315 
Q 1072 3584 1716 3584 
Q 2034 3584 2315 3537 
Q 2597 3491 2834 3397 
z
" transform="scale(0.015625)"/>
       <path id="DejaVuSans-72" d="M 2631 2963 
Q 2534 3019 2420 3045 
Q 2306 3072 2169 3072 
Q 1681 3072 1420 2755 
Q 1159 2438 1159 1844 
L 1159 0 
L 581 0 
L 581 3500 
L 1159 3500 
L 1159 2956 
Q 1341 3275 1631 3429 
Q 1922 3584 2338 3584 
Q 2397 3584 2469 3576 
Q 2541 3569 2628 3553 
L 2631 2963 
z
" transform="scale(0.015625)"/>
       <path id="DejaVuSans-63" d="M 3122 3366 
L 3122 2828 
Q 2878 2963 2633 3030 
Q 2388 3097 2138 3097 
Q 1578 3097 1268 2742 
Q 959 2388 959 1747 
Q 959 1106 1268 751 
Q 1578 397 2138 397 
Q 2388 397 2633 464 
Q 2878 531 3122 666 
L 3122 134 
Q 2881 22 2623 -34 
Q 2366 -91 2075 -91 
Q 1284 -91 818 406 
Q 353 903 353 1747 
Q 353 2603 823 3093 
Q 1294 3584 2113 3584 
Q 2378 3584 2631 3529 
Q 2884 3475 3122 3366 
z
" transform="scale(0.015625)"/>
       <path id="DejaVuSans-6f" d="M 1959 3097 
Q 1497 3097 1228 2736 
Q 959 2375 959 1747 
Q 959 1119 1226 758 
Q 1494 397 1959 397 
Q 2419 397 2687 759 
Q 2956 1122 2956 1747 
Q 2956 2369 2687 2733 
Q 2419 3097 1959 3097 
z
M 1959 3584 
Q 2709 3584 3137 3096 
Q 3566 2609 3566 1747 
Q 3566 888 3137 398 
Q 2709 -91 1959 -91 
Q 1206 -91 779 398 
Q 353 888 353 1747 
Q 353 2609 779 3096 
Q 1206 3584 1959 3584 
z
" transform="scale(0.015625)"/>
      </defs>
      <use xlink:href="#DejaVuSans-55"/>
      <use xlink:href="#DejaVuSans-70" x="73.193359"/>
      <use xlink:href="#DejaVuSans-64" x="136.669922"/>
      <use xlink:href="#DejaVuSans-61" x="200.146484"/>
      <use xlink:href="#DejaVuSans-74" x="261.425781"/>
      <use xlink:href="#DejaVuSans-65" x="300.634766"/>
      <use xlink:href="#DejaVuSans-64" x="362.158203"/>
      <use xlink:href="#DejaVuSans-20" x="425.634766"/>
      <use xlink:href="#DejaVuSans-32" x="457.421875"/>
      <use xlink:href="#DejaVuSans-30" x="521.044922"/>
      <use xlink:href="#DejaVuSans-32" x="584.667969"/>
      <use xlink:href="#DejaVuSans-33" x="648.291016"/>
      <use xlink:href="#DejaVuSans-2d" x="711.914062"/>
      <use xlink:href="#DejaVuSans-30" x="747.998047"/>
      <use xlink:href="#DejaVuSans-33" x="811.621094"/>
      <use xlink:href="#DejaVuSans-2d" x="875.244141"/>
      <use xlink:href="#DejaVuSans-32" x="911.328125"/>
      <use xlink:href="#DejaVuSans-39" x="974.951172"/>
      <use xlink:href="#DejaVuSans-20" x="1038.574219"/>
      <use xlink:href="#DejaVuSans-30" x="1070.361328"/>
      <use xlink:href="#DejaVuSans-35" x="1133.984375"/>
      <use xlink:href="#DejaVuSans-3a" x="1197.607422"/>
      <use xlink:href="#DejaVuSans-33" x="1231.298828"/>
      <use xlink:href="#DejaVuSans-31" x="1294.921875"/>
      <use xlink:href="#DejaVuSans-3a" x="1358.544922"/>
      <use xlink:href="#DejaVuSans-33" x="1392.236328"/>
      <use xlink:href="#DejaVuSans-34" x="1455.859375"/>
      <use xlink:href="#DejaVuSans-2e" x="1519.482422"/>
      <use xlink:href="#DejaVuSans-33" x="1551.269531"/>
      <use xlink:href="#DejaVuSans-38" x="1614.892578"/>
      <use xlink:href="#DejaVuSans-33" x="1678.515625"/>
      <use xlink:href="#DejaVuSans-34" x="1742.138672"/>
      <use xlink:href="#DejaVuSans-37" x="1805.761719"/>
      <use xlink:href="#DejaVuSans-36" x="1869.384766"/>
      <use xlink:href="#DejaVuSans-20" x="1933.007812"/>
      <use xlink:href="#DejaVuSans-2d" x="1964.794922"/>
      <use xlink:href="#DejaVuSans-20" x="2000.878906"/>
      <use xlink:href="#DejaVuSans-4c" x="2032.666016"/>
      <use xlink:href="#DejaVuSans-61" x="2088.378906"/>
      <use xlink:href="#DejaVuSans-73" x="2149.658203"/>
      <use xlink:href="#DejaVuSans-74" x="2201.757812"/>
      <use xlink:href="#DejaVuSans-20" x="2240.966797"/>
      <use xlink:href="#DejaVuSans-72" x="2272.753906"/>
      <use xlink:href="#DejaVuSans-65" x="2311.617188"/>
      <use xlink:href="#DejaVuSans-63" x="2373.140625"/>
      <use xlink:href="#DejaVuSans-6f" x="2428.121094"/>
      <use xlink:href="#DejaVuSans-72" x="2489.302734"/>
      <use xlink:href="#DejaVuSans-64" x="2528.666016"/>
      <use xlink:href="#DejaVuSans-20" x="2592.142578"/>
      <use xlink:href="#DejaVuSans-32" x="2623.929688"/>
      <use xlink:href="#DejaVuSans-30" x="2687.552734"/>
      <use xlink:href="#DejaVuSans-32" x="2751.175781"/>
      <use xlink:href="#DejaVuSans-33" x="2814.798828"/>
      <use xlink:href="#DejaVuSans-2d" x="2878.421875"/>
      <use xlink:href="#DejaVuSans-30" x="2914.505859"/>
      <use xlink:href="#DejaVuSans-33" x="2978.128906"/>
      <use xlink:href="#DejaVuSans-2d" x="3041.751953"/>
      <use xlink:href="#DejaVuSans-32" x="3077.835938"/>
      <use xlink:href="#DejaVuSans-37" x="3141.458984"/>
     </g>
    </g>
   </g>
   <g id="matplotlib.axis_2">
    <g id="ytick_1">
     <g id="line2d_9">
      <defs>
       <path id="md241a51786" d="M 0 0 
L -3.5 0 
" style="stroke: #000000; stroke-width: 0.8"/>
      </defs>
      <g>
       <use xlink:href="#md241a51786" x="57.6" y="295.488" style="stroke: #000000; stroke-width: 0.8"/>
      </g>
     </g>
     <g id="text_10">
      <!-- 0 -->
      <g transform="translate(44.2375 299.287219) scale(0.1 -0.1)">
       <use xlink:href="#DejaVuSans-30"/>
      </g>
     </g>
    </g>
    <g id="ytick_2">
     <g id="line2d_10">
      <g>
       <use xlink:href="#md241a51786" x="57.6" y="239.167219" style="stroke: #000000; stroke-width: 0.8"/>
      </g>
     </g>
     <g id="text_11">
      <!-- 10 -->
      <g transform="translate(37.875 242.966438) scale(0.1 -0.1)">
       <use xlink:href="#DejaVuSans-31"/>
       <use xlink:href="#DejaVuSans-30" x="63.623047"/>
      </g>
     </g>
    </g>
    <g id="ytick_3">
     <g id="line2d_11">
      <g>
       <use xlink:href="#md241a51786" x="57.6" y="182.846439" style="stroke: #000000; stroke-width: 0.8"/>
      </g>
     </g>
     <g id="text_12">
      <!-- 20 -->
      <g transform="translate(37.875 186.645657) scale(0.1 -0.1)">
       <use xlink:href="#DejaVuSans-32"/>
       <use xlink:href="#DejaVuSans-30" x="63.623047"/>
      </g>
     </g>
    </g>
    <g id="ytick_4">
     <g id="line2d_12">
      <g>
       <use xlink:href="#md241a51786" x="57.6" y="126.525658" style="stroke: #000000; stroke-width: 0.8"/>
      </g>
     </g>
     <g id="text_13">
      <!-- 30 -->
      <g transform="translate(37.875 130.324877) scale(0.1 -0.1)">
       <use xlink:href="#DejaVuSans-33"/>
       <use xlink:href="#DejaVuSans-30" x="63.623047"/>
      </g>
     </g>
    </g>
    <g id="ytick_5">
     <g id="line2d_13">
      <g>
       <use xlink:href="#md241a51786" x="57.6" y="70.204877" style="stroke: #000000; stroke-width: 0.8"/>
      </g>
     </g>
     <g id="text_14">
      <!-- 40 -->
      <g transform="translate(37.875 74.004096) scale(0.1 -0.1)">
       <use xlink:href="#DejaVuSans-34"/>
       <use xlink:href="#DejaVuSans-30" x="63.623047"/>
      </g>
     </g>
    </g>
    <g id="text_15">
     <!-- IPv6 as % of total Google traffic -->
     <g transform="translate(31.795312 253.735813) rotate(-90) scale(0.1 -0.1)">
      <defs>
       <path id="DejaVuSans-49" d="M 628 4666 
L 1259 4666 
L 1259 0 
L 628 0 
L 628 4666 
z
" transform="scale(0.015625)"/>
       <path id="DejaVuSans-50" d="M 1259 4147 
L 1259 2394 
L 2053 2394 
Q 2494 2394 2734 2622 
Q 2975 2850 2975 3272 
Q 2975 3691 2734 3919 
Q 2494 4147 2053 4147 
L 1259 4147 
z
M 628 4666 
L 2053 4666 
Q 2838 4666 3239 4311 
Q 3641 3956 3641 3272 
Q 3641 2581 3239 2228 
Q 2838 1875 2053 1875 
L 1259 1875 
L 1259 0 
L 628 0 
L 628 4666 
z
" transform="scale(0.015625)"/>
       <path id="DejaVuSans-76" d="M 191 3500 
L 800 3500 
L 1894 563 
L 2988 3500 
L 3597 3500 
L 2284 0 
L 1503 0 
L 191 3500 
z
" transform="scale(0.015625)"/>
       <path id="DejaVuSans-25" d="M 4653 2053 
Q 4381 2053 4226 1822 
Q 4072 1591 4072 1178 
Q 4072 772 4226 539 
Q 4381 306 4653 306 
Q 4919 306 5073 539 
Q 5228 772 5228 1178 
Q 5228 1588 5073 1820 
Q 4919 2053 4653 2053 
z
M 4653 2450 
Q 5147 2450 5437 2106 
Q 5728 1763 5728 1178 
Q 5728 594 5436 251 
Q 5144 -91 4653 -91 
Q 4153 -91 3862 251 
Q 3572 594 3572 1178 
Q 3572 1766 3864 2108 
Q 4156 2450 4653 2450 
z
M 1428 4353 
Q 1159 4353 1004 4120 
Q 850 3888 850 3481 
Q 850 3069 1003 2837 
Q 1156 2606 1428 2606 
Q 1700 2606 1854 2837 
Q 2009 3069 2009 3481 
Q 2009 3884 1853 4118 
Q 1697 4353 1428 4353 
z
M 4250 4750 
L 4750 4750 
L 1831 -91 
L 1331 -91 
L 4250 4750 
z
M 1428 4750 
Q 1922 4750 2215 4408 
Q 2509 4066 2509 3481 
Q 2509 2891 2217 2550 
Q 1925 2209 1428 2209 
Q 931 2209 642 2551 
Q 353 2894 353 3481 
Q 353 4063 643 4406 
Q 934 4750 1428 4750 
z
" transform="scale(0.015625)"/>
       <path id="DejaVuSans-66" d="M 2375 4863 
L 2375 4384 
L 1825 4384 
Q 1516 4384 1395 4259 
Q 1275 4134 1275 3809 
L 1275 3500 
L 2222 3500 
L 2222 3053 
L 1275 3053 
L 1275 0 
L 697 0 
L 697 3053 
L 147 3053 
L 147 3500 
L 697 3500 
L 697 3744 
Q 697 4328 969 4595 
Q 1241 4863 1831 4863 
L 2375 4863 
z
" transform="scale(0.015625)"/>
       <path id="DejaVuSans-6c" d="M 603 4863 
L 1178 4863 
L 1178 0 
L 603 0 
L 603 4863 
z
" transform="scale(0.015625)"/>
       <path id="DejaVuSans-47" d="M 3809 666 
L 3809 1919 
L 2778 1919 
L 2778 2438 
L 4434 2438 
L 4434 434 
Q 4069 175 3628 42 
Q 3188 -91 2688 -91 
Q 1594 -91 976 548 
Q 359 1188 359 2328 
Q 359 3472 976 4111 
Q 1594 4750 2688 4750 
Q 3144 4750 3555 4637 
Q 3966 4525 4313 4306 
L 4313 3634 
Q 3963 3931 3569 4081 
Q 3175 4231 2741 4231 
Q 1884 4231 1454 3753 
Q 1025 3275 1025 2328 
Q 1025 1384 1454 906 
Q 1884 428 2741 428 
Q 3075 428 3337 486 
Q 3600 544 3809 666 
z
" transform="scale(0.015625)"/>
       <path id="DejaVuSans-67" d="M 2906 1791 
Q 2906 2416 2648 2759 
Q 2391 3103 1925 3103 
Q 1463 3103 1205 2759 
Q 947 2416 947 1791 
Q 947 1169 1205 825 
Q 1463 481 1925 481 
Q 2391 481 2648 825 
Q 2906 1169 2906 1791 
z
M 3481 434 
Q 3481 -459 3084 -895 
Q 2688 -1331 1869 -1331 
Q 1566 -1331 1297 -1286 
Q 1028 -1241 775 -1147 
L 775 -588 
Q 1028 -725 1275 -790 
Q 1522 -856 1778 -856 
Q 2344 -856 2625 -561 
Q 2906 -266 2906 331 
L 2906 616 
Q 2728 306 2450 153 
Q 2172 0 1784 0 
Q 1141 0 747 490 
Q 353 981 353 1791 
Q 353 2603 747 3093 
Q 1141 3584 1784 3584 
Q 2172 3584 2450 3431 
Q 2728 3278 2906 2969 
L 2906 3500 
L 3481 3500 
L 3481 434 
z
" transform="scale(0.015625)"/>
       <path id="DejaVuSans-69" d="M 603 3500 
L 1178 3500 
L 1178 0 
L 603 0 
L 603 3500 
z
M 603 4863 
L 1178 4863 
L 1178 4134 
L 603 4134 
L 603 4863 
z
" transform="scale(0.015625)"/>
      </defs>
      <use xlink:href="#DejaVuSans-49"/>
      <use xlink:href="#DejaVuSans-50" x="29.492188"/>
      <use xlink:href="#DejaVuSans-76" x="89.794922"/>
      <use xlink:href="#DejaVuSans-36" x="148.974609"/>
      <use xlink:href="#DejaVuSans-20" x="212.597656"/>
      <use xlink:href="#DejaVuSans-61" x="244.384766"/>
      <use xlink:href="#DejaVuSans-73" x="305.664062"/>
      <use xlink:href="#DejaVuSans-20" x="357.763672"/>
      <use xlink:href="#DejaVuSans-25" x="389.550781"/>
      <use xlink:href="#DejaVuSans-20" x="484.570312"/>
      <use xlink:href="#DejaVuSans-6f" x="516.357422"/>
      <use xlink:href="#DejaVuSans-66" x="577.539062"/>
      <use xlink:href="#DejaVuSans-20" x="612.744141"/>
      <use xlink:href="#DejaVuSans-74" x="644.53125"/>
      <use xlink:href="#DejaVuSans-6f" x="683.740234"/>
      <use xlink:href="#DejaVuSans-74" x="744.921875"/>
      <use xlink:href="#DejaVuSans-61" x="784.130859"/>
      <use xlink:href="#DejaVuSans-6c" x="845.410156"/>
      <use xlink:href="#DejaVuSans-20" x="873.193359"/>
      <use xlink:href="#DejaVuSans-47" x="904.980469"/>
      <use xlink:href="#DejaVuSans-6f" x="982.470703"/>
      <use xlink:href="#DejaVuSans-6f" x="1043.652344"/>
      <use xlink:href="#DejaVuSans-67" x="1104.833984"/>
      <use xlink:href="#DejaVuSans-6c" x="1168.310547"/>
      <use xlink:href="#DejaVuSans-65" x="1196.09375"/>
      <use xlink:href="#DejaVuSans-20" x="1257.617188"/>
      <use xlink:href="#DejaVuSans-74" x="1289.404297"/>
      <use xlink:href="#DejaVuSans-72" x="1328.613281"/>
      <use xlink:href="#DejaVuSans-61" x="1369.726562"/>
      <use xlink:href="#DejaVuSans-66" x="1431.005859"/>
      <use xlink:href="#DejaVuSans-66" x="1466.210938"/>
      <use xlink:href="#DejaVuSans-69" x="1501.416016"/>
      <use xlink:href="#DejaVuSans-63" x="1529.199219"/>
     </g>
    </g>
   </g>
   <g id="line2d_14">
    <path d="M 73.832727 294.461875 
L 75.541435 294.287962 
L 75.968612 294.453567 
L 77.677321 294.452841 
L 79.386029 294.301884 
L 79.813206 294.168393 
L 81.094737 294.190538 
L 82.376268 294.158368 
L 82.803445 294.233528 
L 84.512153 294.079947 
L 86.220861 294.139883 
L 87.929569 294.06037 
L 91.346986 294.129312 
L 91.774163 294.237662 
L 93.910048 294.211337 
L 95.191579 294.159624 
L 96.900287 294.058534 
L 97.754641 294.067765 
L 98.181818 293.793572 
L 100.74488 293.699517 
L 101.599234 293.663426 
L 103.307943 293.803592 
L 104.589474 293.75372 
L 105.871005 293.803885 
L 108.00689 293.769383 
L 109.288421 293.96913 
L 110.142775 293.94258 
L 110.997129 293.899579 
L 111.851483 294.093773 
L 113.987368 294.11152 
L 115.2689 294.233488 
L 117.404785 294.142108 
L 118.259139 294.031432 
L 118.686316 293.940204 
L 119.54067 293.935709 
L 122.530909 293.86942 
L 123.385263 293.964945 
L 123.81244 293.830389 
L 126.375502 294.079969 
L 129.365742 293.903989 
L 130.220096 293.906186 
L 130.647273 293.778112 
L 131.501627 293.88524 
L 132.355981 293.686394 
L 132.783158 293.735827 
L 133.210335 293.613751 
L 133.637512 293.6672 
L 134.491866 293.553606 
L 135.34622 293.509164 
L 135.773397 293.537437 
L 136.200574 293.677591 
L 137.909282 293.709249 
L 138.336459 293.774896 
L 139.190813 293.684496 
L 139.61799 293.499572 
L 141.326699 293.398302 
L 141.753876 293.499178 
L 142.181053 293.469863 
L 142.60823 293.328858 
L 143.462584 293.472516 
L 146.452823 292.960047 
L 147.307177 293.115588 
L 149.870239 292.709842 
L 152.006124 292.564298 
L 152.433301 292.348911 
L 152.860478 292.431911 
L 153.287656 292.241248 
L 154.14201 292.197841 
L 154.569187 292.211533 
L 155.850718 291.84658 
L 157.559426 291.264375 
L 157.986603 291.340104 
L 159.268134 291.209902 
L 159.695311 291.316258 
L 161.404019 291.105753 
L 162.68555 290.626024 
L 163.112727 290.520963 
L 163.539904 290.580765 
L 163.967081 290.225933 
L 164.394258 290.054768 
L 166.102967 289.848386 
L 166.530144 290.01482 
L 166.957321 289.852993 
L 167.811675 289.76395 
L 168.238852 289.505128 
L 169.093206 289.332426 
L 170.801914 289.314437 
L 171.656268 289.093812 
L 172.937799 288.931247 
L 173.364976 288.718698 
L 173.792153 288.698198 
L 174.21933 288.808102 
L 175.928038 288.0135 
L 176.355215 288.031703 
L 178.063923 287.532048 
L 178.4911 287.197198 
L 178.918278 287.120371 
L 179.345455 286.91315 
L 179.772632 286.946897 
L 181.054163 286.438045 
L 181.48134 286.528023 
L 181.908517 286.277559 
L 182.335694 286.233538 
L 184.471579 285.056856 
L 185.325933 284.698628 
L 186.180287 284.071237 
L 187.461818 282.520658 
L 187.888995 282.767631 
L 188.316172 282.810356 
L 189.597703 281.337241 
L 190.02488 281.160602 
L 190.452057 280.416001 
L 191.306411 280.183729 
L 192.160766 279.688112 
L 192.587943 279.739764 
L 193.869474 278.926655 
L 194.296651 278.753953 
L 194.723828 278.434569 
L 195.578182 278.358891 
L 196.005359 277.635371 
L 196.432536 277.625836 
L 196.859713 276.830378 
L 197.28689 276.418414 
L 198.141244 276.536654 
L 198.568421 276.242142 
L 198.995598 275.788472 
L 199.849952 275.260363 
L 200.277129 274.788249 
L 200.704306 275.077704 
L 202.413014 274.151402 
L 202.840191 273.808898 
L 203.267368 272.401425 
L 203.694545 272.668414 
L 204.5489 271.712672 
L 204.976077 271.671637 
L 205.403254 272.084812 
L 206.684785 271.144672 
L 207.111962 270.506873 
L 207.966316 270.556046 
L 208.393493 269.865931 
L 208.82067 269.81843 
L 209.247847 266.16235 
L 209.675024 268.567861 
L 210.102201 270.000864 
L 210.529378 269.304554 
L 210.956555 268.915439 
L 211.383732 268.852731 
L 211.810909 267.936939 
L 212.238086 267.649984 
L 213.519617 265.662283 
L 213.946794 264.364433 
L 214.373971 263.623657 
L 214.801148 262.617942 
L 215.228325 261.953931 
L 215.655502 263.014384 
L 216.082679 262.852096 
L 216.509856 262.881456 
L 216.937033 263.052767 
L 217.364211 263.372646 
L 217.791388 263.250605 
L 218.218565 260.911924 
L 218.645742 261.257846 
L 219.927273 260.025513 
L 220.35445 259.859649 
L 221.208804 259.932573 
L 221.635981 258.164731 
L 222.063158 258.100345 
L 222.917512 256.705206 
L 223.344689 257.180863 
L 223.771866 255.003327 
L 224.199043 255.518021 
L 224.62622 254.048054 
L 225.053397 253.344157 
L 225.480574 252.28723 
L 225.907751 253.021202 
L 226.334928 251.909379 
L 226.762105 250.059726 
L 227.189282 250.991778 
L 227.616459 251.257483 
L 228.043636 250.683338 
L 228.470813 248.992081 
L 228.89799 249.461881 
L 229.325167 247.96867 
L 229.752344 248.312644 
L 230.606699 246.298703 
L 231.033876 245.278491 
L 232.315407 244.958184 
L 232.742584 243.780156 
L 233.169761 243.923509 
L 233.596938 243.481594 
L 234.024115 242.314036 
L 234.451292 242.017704 
L 234.878469 240.712211 
L 235.305646 239.817251 
L 235.732823 239.659525 
L 236.16 239.879812 
L 236.587177 239.310359 
L 237.014354 236.88451 
L 237.868708 238.307432 
L 238.295885 238.034096 
L 239.150239 237.952189 
L 239.577416 238.000382 
L 240.43177 237.707694 
L 240.858947 236.342828 
L 241.286124 236.278217 
L 241.713301 235.067787 
L 242.140478 235.064386 
L 242.567656 234.880509 
L 243.849187 231.418578 
L 244.276364 229.379541 
L 244.703541 230.771999 
L 245.130718 230.188363 
L 245.557895 228.982 
L 245.985072 229.250527 
L 246.412249 226.674966 
L 246.839426 227.052833 
L 247.266603 226.737026 
L 247.69378 224.939892 
L 248.120957 224.922883 
L 248.548134 223.583316 
L 248.975311 223.905859 
L 249.402488 222.84633 
L 249.829665 222.283477 
L 250.256842 222.582501 
L 250.684019 221.857005 
L 251.111196 220.725188 
L 251.538373 221.086998 
L 251.96555 220.550211 
L 252.392727 218.769083 
L 252.819904 218.02424 
L 253.247081 218.093915 
L 253.674258 216.011054 
L 254.101435 216.381453 
L 254.955789 213.900664 
L 255.382967 211.42514 
L 255.810144 211.669815 
L 256.664498 210.277813 
L 257.091675 208.71811 
L 257.518852 208.926621 
L 257.946029 208.272967 
L 258.373206 205.806838 
L 258.800383 204.941588 
L 259.22756 200.852857 
L 259.654737 203.511203 
L 260.081914 203.029232 
L 260.509091 203.663196 
L 260.936268 202.918742 
L 261.790622 204.127797 
L 262.217799 203.886767 
L 262.644976 202.826917 
L 263.072153 203.145659 
L 263.926507 201.795802 
L 264.353684 200.677294 
L 264.780861 200.499911 
L 265.208038 199.743816 
L 265.635215 197.024902 
L 266.062392 197.878089 
L 266.489569 194.232039 
L 266.916746 194.514274 
L 267.343923 192.532419 
L 267.7711 191.310872 
L 268.198278 190.575384 
L 268.625455 190.068075 
L 269.052632 189.064208 
L 269.479809 187.225599 
L 269.906986 184.194251 
L 270.334163 184.959735 
L 272.042871 181.507254 
L 272.470048 180.939456 
L 272.897225 180.960948 
L 273.324402 181.273771 
L 273.751579 180.199593 
L 274.178756 178.694127 
L 274.605933 180.042818 
L 275.03311 180.06885 
L 275.460287 181.27038 
L 275.887464 179.955448 
L 276.314641 177.911077 
L 276.741818 178.173036 
L 277.168995 177.290444 
L 278.450526 175.886857 
L 279.30488 174.855877 
L 279.732057 174.744199 
L 280.159234 189.693046 
L 280.586411 172.846436 
L 281.013589 172.037844 
L 281.440766 167.952605 
L 281.867943 171.742752 
L 282.722297 171.188938 
L 283.149474 171.186257 
L 283.576651 170.679049 
L 284.003828 170.429092 
L 284.431005 171.817641 
L 284.858182 172.697929 
L 285.285359 172.483933 
L 285.712536 171.291335 
L 286.139713 171.376971 
L 287.421244 170.374128 
L 287.848421 167.694893 
L 288.275598 168.752394 
L 288.702775 165.914863 
L 289.129952 167.111342 
L 289.557129 164.729615 
L 289.984306 163.242481 
L 290.411483 164.119334 
L 290.83866 162.295605 
L 291.265837 161.084675 
L 291.693014 160.827187 
L 292.120191 161.817166 
L 292.547368 162.339378 
L 293.8289 159.664822 
L 294.256077 160.279896 
L 294.683254 161.166289 
L 295.110431 161.338169 
L 295.537608 159.309624 
L 295.964785 158.554047 
L 296.391962 157.083539 
L 296.819139 156.721228 
L 297.246316 156.515285 
L 297.673493 156.66917 
L 298.10067 156.475202 
L 298.955024 154.455223 
L 299.382201 155.633713 
L 299.809378 151.900512 
L 300.236555 151.996534 
L 300.663732 151.541293 
L 301.090909 148.818493 
L 301.518086 148.001537 
L 301.945263 147.510499 
L 302.37244 147.514075 
L 302.799617 146.037925 
L 303.226794 145.937296 
L 304.081148 143.603341 
L 304.508325 145.143883 
L 304.935502 146.136154 
L 305.789856 143.773125 
L 306.217033 144.932106 
L 306.644211 144.720193 
L 307.071388 145.224681 
L 307.498565 143.441041 
L 307.925742 142.818708 
L 308.352919 144.167202 
L 308.780096 142.231479 
L 309.207273 142.386361 
L 309.63445 141.834198 
L 310.488804 141.620145 
L 310.915981 137.796482 
L 311.343158 137.685102 
L 311.770335 137.986875 
L 312.197512 138.91173 
L 313.051866 134.449609 
L 313.479043 132.48118 
L 313.90622 131.981559 
L 314.333397 132.153168 
L 314.760574 131.793909 
L 315.187751 129.838587 
L 315.614928 131.451051 
L 316.042105 129.734241 
L 316.469282 131.327393 
L 316.896459 130.185326 
L 317.323636 129.494011 
L 317.750813 129.436361 
L 318.17799 129.514247 
L 318.605167 128.025486 
L 319.032344 128.19464 
L 319.459522 129.80591 
L 319.886699 129.259947 
L 320.313876 129.920872 
L 320.741053 130.191003 
L 321.16823 128.126063 
L 321.595407 129.362766 
L 322.022584 129.695087 
L 322.449761 128.927643 
L 322.876938 128.458733 
L 323.304115 126.609029 
L 323.731292 126.999423 
L 324.158469 126.596842 
L 324.585646 126.73035 
L 325.012823 125.654713 
L 325.44 125.184187 
L 325.867177 123.822705 
L 326.294354 123.227609 
L 326.721531 124.068917 
L 327.148708 124.31906 
L 327.575885 124.375336 
L 328.430239 122.439197 
L 328.857416 122.903347 
L 329.284593 121.491504 
L 329.71177 122.102556 
L 330.138947 121.83849 
L 330.566124 120.86195 
L 330.993301 121.100598 
L 331.420478 121.771435 
L 331.847656 121.465613 
L 332.274833 121.481597 
L 332.70201 118.944926 
L 333.556364 117.138904 
L 333.983541 117.437095 
L 334.410718 116.805716 
L 334.837895 114.704337 
L 335.265072 115.384101 
L 335.692249 112.368635 
L 336.119426 114.781891 
L 336.546603 112.784119 
L 336.97378 110.053192 
L 337.400957 110.852069 
L 337.828134 109.146878 
L 338.255311 107.99625 
L 338.682488 108.106324 
L 339.109665 107.243084 
L 339.536842 109.407154 
L 339.964019 107.604286 
L 340.391196 108.280293 
L 340.818373 108.676915 
L 342.099904 105.910821 
L 342.527081 108.213806 
L 342.954258 108.25995 
L 343.381435 107.241879 
L 343.808612 107.818767 
L 344.235789 109.217443 
L 344.662967 108.129646 
L 345.090144 105.598613 
L 345.517321 109.800425 
L 345.944498 108.668563 
L 346.371675 107.03027 
L 346.798852 108.404593 
L 347.226029 108.503892 
L 347.653206 106.259588 
L 348.080383 105.141908 
L 348.50756 103.092941 
L 348.934737 104.092133 
L 349.361914 103.335131 
L 349.789091 103.568615 
L 350.216268 104.210035 
L 350.643445 102.572142 
L 351.070622 101.900602 
L 351.497799 103.114844 
L 351.924976 102.812204 
L 352.352153 100.184693 
L 352.77933 99.606724 
L 353.206507 97.818505 
L 353.633684 100.755003 
L 354.060861 101.728896 
L 354.488038 100.771494 
L 354.915215 100.588401 
L 355.342392 100.738552 
L 355.769569 95.559315 
L 356.196746 99.021664 
L 356.623923 97.026528 
L 357.478278 98.035802 
L 357.905455 93.130516 
L 358.332632 92.503609 
L 358.759809 90.530405 
L 359.186986 90.451871 
L 359.614163 92.236688 
L 360.04134 89.775368 
L 360.468517 89.29155 
L 360.895694 88.02048 
L 361.322871 87.560807 
L 361.750048 86.116647 
L 362.177225 86.332564 
L 362.604402 89.833897 
L 363.031579 87.945777 
L 363.458756 86.750261 
L 363.885933 89.02397 
L 364.31311 87.766609 
L 364.740287 87.324001 
L 365.167464 85.508669 
L 366.021818 88.39788 
L 366.448995 88.080575 
L 366.876172 88.533557 
L 367.303349 88.390035 
L 367.730526 86.762308 
L 368.157703 88.644334 
L 368.58488 86.383202 
L 369.012057 85.58357 
L 369.439234 85.499793 
L 370.293589 82.68479 
L 370.720766 79.543673 
L 371.147943 81.685902 
L 371.57512 85.687071 
L 372.002297 81.180108 
L 372.429474 80.968386 
L 372.856651 83.992807 
L 373.711005 79.967375 
L 374.138182 79.913566 
L 374.565359 80.763362 
L 374.992536 80.728685 
L 375.419713 81.379444 
L 375.84689 73.729071 
L 376.274067 72.912363 
L 376.701244 73.140423 
L 377.128421 71.576885 
L 377.555598 71.064056 
L 377.982775 68.344714 
L 378.409952 71.800022 
L 378.837129 73.147294 
L 379.264306 70.191349 
L 379.691483 72.139152 
L 380.11866 68.826786 
L 380.545837 67.140255 
L 380.973014 63.048747 
L 381.400191 64.1497 
L 381.827368 58.087529 
L 382.254545 60.543289 
L 383.1089 64.277447 
L 383.536077 62.510045 
L 383.963254 62.854812 
L 384.390431 63.596287 
L 384.817608 63.445325 
L 385.244785 65.600113 
L 385.671962 64.595654 
L 386.099139 63.02097 
L 386.526316 63.384177 
L 386.953493 61.770395 
L 387.38067 62.18041 
L 387.807847 60.20675 
L 388.235024 61.600002 
L 388.662201 65.359296 
L 389.089378 62.829496 
L 389.516555 58.994203 
L 389.943732 62.172649 
L 390.370909 60.326263 
L 390.798086 62.243985 
L 391.225263 60.51229 
L 391.65244 60.487667 
L 392.933971 53.820824 
L 393.361148 56.807853 
L 393.788325 56.57945 
L 394.215502 55.084279 
L 394.642679 55.524956 
L 395.069856 58.072953 
L 395.924211 55.87161 
L 396.351388 57.484998 
L 396.778565 56.577304 
L 397.205742 54.818468 
L 397.632919 54.852671 
L 398.060096 53.568 
L 398.487273 79.440601 
L 398.487273 79.440601 
" clip-path="url(#pe2c5df2820)" style="fill: none; stroke: #1f77b4; stroke-width: 1.5; stroke-linecap: square"/>
   </g>
   <g id="line2d_15">
    <path d="M 73.832727 294.731021 
L 75.541435 294.587932 
L 75.968612 294.707687 
L 85.366507 294.445148 
L 86.220861 294.436052 
L 88.356746 294.367763 
L 90.492632 294.437679 
L 92.20134 294.434525 
L 98.181818 294.349509 
L 98.608995 294.147886 
L 101.172057 294.0671 
L 103.307943 294.080223 
L 105.871005 294.113627 
L 108.00689 294.114623 
L 109.715598 294.224432 
L 110.997129 294.233381 
L 113.560191 294.26438 
L 116.550431 294.365893 
L 117.404785 294.351148 
L 118.686316 294.174132 
L 120.395024 294.147526 
L 122.530909 294.086322 
L 127.657033 294.27204 
L 133.637512 293.807219 
L 134.491866 293.748409 
L 135.34622 293.683375 
L 136.200574 293.784555 
L 137.054928 293.797853 
L 137.909282 293.851037 
L 139.190813 293.88698 
L 140.045167 293.573505 
L 140.899522 293.613571 
L 141.326699 293.69634 
L 143.035407 293.590919 
L 143.462584 293.647533 
L 143.889761 293.509586 
L 146.025646 293.460429 
L 146.88 293.284675 
L 147.307177 293.282596 
L 147.734354 293.394776 
L 153.714833 292.693115 
L 154.569187 292.576109 
L 154.996364 292.567317 
L 155.423541 292.420072 
L 156.277895 292.427754 
L 157.559426 292.001366 
L 159.268134 291.702218 
L 159.695311 291.831542 
L 161.404019 291.698192 
L 167.384498 290.600522 
L 167.811675 290.648727 
L 168.666029 290.37329 
L 169.520383 290.263763 
L 169.94756 290.011987 
L 171.229091 290.298553 
L 172.083445 290.100799 
L 172.510622 290.04267 
L 172.937799 289.798019 
L 173.364976 289.81634 
L 173.792153 289.635111 
L 175.073684 289.542508 
L 175.500861 289.284086 
L 176.782392 289.022774 
L 177.209569 289.025596 
L 177.636746 288.860058 
L 178.063923 288.843235 
L 179.772632 288.329927 
L 180.199809 288.263581 
L 181.054163 287.821914 
L 181.48134 287.970178 
L 182.762871 287.44853 
L 183.617225 287.013728 
L 184.044402 286.684257 
L 184.898756 286.45538 
L 185.325933 286.560542 
L 186.180287 286.399747 
L 187.461818 285.169351 
L 187.888995 284.873791 
L 188.316172 284.955045 
L 188.743349 284.796474 
L 190.02488 283.872616 
L 190.452057 283.716292 
L 191.306411 282.969952 
L 191.733589 282.86769 
L 192.160766 281.459147 
L 192.587943 281.590656 
L 193.01512 282.528988 
L 193.442297 282.427093 
L 194.296651 281.707082 
L 194.723828 282.357722 
L 195.151005 281.515265 
L 195.578182 281.46345 
L 196.005359 281.201592 
L 196.432536 280.589126 
L 196.859713 280.620249 
L 197.714067 279.682181 
L 198.141244 279.710471 
L 198.568421 279.500879 
L 198.995598 278.739974 
L 199.422775 278.996904 
L 199.849952 278.420979 
L 200.277129 278.593737 
L 200.704306 278.385829 
L 201.131483 278.470676 
L 201.55866 277.821754 
L 201.985837 277.846766 
L 202.413014 277.184732 
L 202.840191 277.29975 
L 203.694545 275.902437 
L 204.121722 275.625919 
L 204.5489 275.53798 
L 204.976077 275.217272 
L 205.403254 275.185485 
L 205.830431 275.308247 
L 206.257608 275.284964 
L 207.539139 274.826491 
L 207.966316 274.975763 
L 208.82067 274.590017 
L 209.247847 273.92497 
L 209.675024 272.432215 
L 210.102201 273.546483 
L 210.529378 273.913306 
L 210.956555 273.528212 
L 211.383732 273.751592 
L 211.810909 273.194309 
L 212.665263 272.473735 
L 213.09244 271.759385 
L 213.519617 271.311381 
L 213.946794 270.372852 
L 214.373971 267.595178 
L 214.801148 265.816033 
L 215.228325 268.451671 
L 215.655502 269.146709 
L 216.082679 269.165824 
L 216.509856 269.443621 
L 216.937033 269.423616 
L 217.364211 269.7954 
L 217.791388 269.028159 
L 218.218565 269.16307 
L 218.645742 267.730106 
L 219.072919 267.292218 
L 219.500096 267.541172 
L 220.35445 266.112218 
L 220.781627 266.498985 
L 221.208804 266.461695 
L 221.635981 266.001193 
L 222.063158 265.332812 
L 222.490335 264.985054 
L 222.917512 265.034346 
L 223.771866 262.962535 
L 224.199043 262.353156 
L 224.62622 262.025678 
L 225.053397 260.832033 
L 225.480574 260.41861 
L 226.762105 258.011691 
L 227.189282 258.420326 
L 228.043636 258.018421 
L 228.89799 257.24677 
L 229.325167 257.582233 
L 230.179522 257.156837 
L 231.033876 256.092453 
L 232.315407 255.548389 
L 232.742584 255.551954 
L 233.169761 254.436014 
L 233.596938 254.323609 
L 234.024115 254.354191 
L 234.451292 253.782665 
L 235.732823 250.952917 
L 236.16 250.419154 
L 236.587177 247.843396 
L 237.014354 244.209354 
L 237.441531 249.60132 
L 237.868708 250.776261 
L 238.295885 250.448204 
L 238.723062 249.869705 
L 239.150239 249.94843 
L 239.577416 250.246367 
L 240.43177 249.029202 
L 241.286124 248.473823 
L 241.713301 248.024625 
L 242.140478 246.741953 
L 242.567656 246.444405 
L 242.994833 246.371689 
L 243.849187 245.23669 
L 244.276364 243.887543 
L 244.703541 243.046724 
L 245.130718 243.57663 
L 245.985072 241.919407 
L 246.412249 240.394871 
L 246.839426 239.951441 
L 247.266603 239.734572 
L 248.120957 237.289766 
L 248.548134 235.38578 
L 248.975311 236.219581 
L 249.402488 236.062412 
L 249.829665 235.104368 
L 250.256842 234.457754 
L 250.684019 234.292205 
L 251.111196 234.409268 
L 251.538373 235.730559 
L 251.96555 235.053082 
L 252.392727 235.356268 
L 252.819904 234.637018 
L 253.247081 234.715202 
L 253.674258 233.906233 
L 254.528612 231.643613 
L 254.955789 231.870879 
L 255.810144 228.670704 
L 256.237321 229.429001 
L 256.664498 228.839672 
L 257.091675 227.444978 
L 257.518852 227.341427 
L 257.946029 226.405375 
L 258.373206 225.872417 
L 258.800383 222.154936 
L 259.22756 213.57727 
L 259.654737 219.752196 
L 260.081914 223.044703 
L 260.509091 223.392512 
L 261.363445 223.030054 
L 261.790622 223.130665 
L 262.217799 223.084578 
L 262.644976 222.059748 
L 263.072153 221.803973 
L 263.49933 222.123211 
L 264.353684 220.924231 
L 265.208038 218.771476 
L 265.635215 216.413584 
L 266.062392 217.206795 
L 266.489569 217.089327 
L 266.916746 212.813025 
L 267.343923 213.750896 
L 268.198278 210.897696 
L 268.625455 208.152424 
L 269.052632 208.053485 
L 269.479809 207.677527 
L 270.334163 202.895561 
L 270.76134 202.5783 
L 271.188517 201.872229 
L 271.615694 201.527411 
L 272.470048 198.798337 
L 272.897225 198.564397 
L 273.324402 198.483582 
L 273.751579 199.680089 
L 274.178756 199.817895 
L 274.605933 200.832998 
L 275.03311 201.541068 
L 275.887464 202.105369 
L 276.314641 199.685017 
L 276.741818 199.074584 
L 277.168995 199.602468 
L 277.596172 198.524899 
L 278.023349 196.542194 
L 278.450526 198.267919 
L 278.877703 198.952013 
L 279.30488 196.910239 
L 279.732057 196.659099 
L 280.159234 195.509248 
L 280.586411 189.693046 
L 281.013589 192.021995 
L 281.440766 182.403222 
L 282.29512 193.824508 
L 282.722297 192.342511 
L 283.149474 193.899566 
L 283.576651 193.321574 
L 284.003828 193.225559 
L 284.431005 191.717587 
L 284.858182 194.263162 
L 285.285359 194.968107 
L 285.712536 194.3081 
L 286.139713 192.862397 
L 286.56689 192.369533 
L 286.994067 191.24104 
L 287.421244 191.162444 
L 287.848421 193.159973 
L 288.275598 192.018238 
L 288.702775 190.394651 
L 289.129952 188.112831 
L 289.557129 187.895878 
L 289.984306 186.952274 
L 290.411483 187.06754 
L 290.83866 184.638464 
L 291.265837 184.582431 
L 291.693014 182.910644 
L 292.120191 182.644506 
L 292.547368 182.134347 
L 292.974545 180.537027 
L 293.8289 180.550229 
L 294.683254 179.903914 
L 295.110431 180.864623 
L 295.537608 179.235955 
L 295.964785 178.368897 
L 296.391962 181.473546 
L 296.819139 181.62786 
L 297.246316 181.480964 
L 297.673493 181.574721 
L 298.10067 181.496458 
L 298.527847 179.941936 
L 298.955024 180.31264 
L 299.382201 180.940448 
L 299.809378 180.247544 
L 300.236555 177.067014 
L 300.663732 177.938691 
L 301.090909 177.504013 
L 301.518086 174.122963 
L 301.945263 175.777178 
L 303.226794 171.365954 
L 303.653971 157.57442 
L 304.081148 162.864479 
L 304.508325 170.82078 
L 304.935502 172.281032 
L 305.789856 170.870393 
L 306.217033 169.486969 
L 306.644211 170.52125 
L 307.071388 170.227768 
L 307.498565 171.31624 
L 307.925742 168.85897 
L 308.352919 171.029387 
L 309.207273 168.775649 
L 309.63445 168.743997 
L 310.061627 169.417328 
L 310.488804 166.600602 
L 310.915981 166.124326 
L 311.343158 163.766022 
L 311.770335 165.93181 
L 312.197512 167.309253 
L 312.624689 164.663956 
L 313.479043 157.286807 
L 313.90622 158.899079 
L 314.333397 157.570922 
L 314.760574 156.845567 
L 315.187751 155.122799 
L 315.614928 155.839126 
L 316.042105 156.03938 
L 316.469282 155.859379 
L 316.896459 155.286574 
L 317.323636 154.373023 
L 317.750813 151.823263 
L 318.17799 155.044851 
L 318.605167 155.956898 
L 319.032344 156.12848 
L 319.459522 157.578115 
L 319.886699 158.382601 
L 320.741053 158.083915 
L 321.16823 158.642842 
L 321.595407 158.320377 
L 322.022584 159.051506 
L 322.876938 156.101536 
L 323.304115 157.958263 
L 323.731292 157.327487 
L 324.158469 155.757517 
L 324.585646 155.930951 
L 325.012823 155.174834 
L 325.44 152.820597 
L 325.867177 139.80527 
L 326.294354 139.458768 
L 326.721531 152.198393 
L 327.148708 153.984685 
L 327.575885 154.350399 
L 328.003062 153.120922 
L 328.430239 151.460388 
L 329.284593 149.599696 
L 329.71177 149.547002 
L 330.138947 150.164334 
L 330.566124 149.722098 
L 330.993301 139.78812 
L 331.420478 135.452485 
L 331.847656 133.76414 
L 332.274833 135.022943 
L 333.556364 130.611905 
L 333.983541 130.921517 
L 334.410718 133.257686 
L 334.837895 131.116894 
L 335.265072 130.29986 
L 335.692249 132.211325 
L 336.119426 133.26222 
L 336.97378 129.957672 
L 337.400957 126.811576 
L 337.828134 126.573598 
L 338.255311 124.866098 
L 338.682488 126.340954 
L 339.109665 126.138193 
L 339.536842 127.303679 
L 339.964019 126.186905 
L 340.391196 126.196215 
L 340.818373 127.180235 
L 341.24555 128.920322 
L 341.672727 128.088835 
L 342.099904 130.085418 
L 342.954258 130.226333 
L 343.381435 130.996931 
L 343.808612 129.592809 
L 344.235789 129.790996 
L 344.662967 128.680632 
L 345.090144 126.670932 
L 345.517321 128.96281 
L 345.944498 129.424038 
L 346.371675 129.199842 
L 346.798852 131.77547 
L 347.226029 129.617978 
L 348.080383 120.895619 
L 348.50756 113.957664 
L 348.934737 119.926698 
L 349.361914 124.337545 
L 349.789091 123.569318 
L 350.216268 124.527599 
L 350.643445 123.34043 
L 351.497799 122.323925 
L 351.924976 122.474769 
L 352.352153 124.202842 
L 352.77933 123.775272 
L 353.206507 123.559299 
L 353.633684 121.52867 
L 354.060861 124.855803 
L 354.915215 121.722853 
L 355.342392 124.08498 
L 355.769569 122.712854 
L 356.196746 119.142364 
L 356.623923 119.493158 
L 357.0511 117.369673 
L 357.478278 116.125389 
L 357.905455 118.078977 
L 358.332632 118.473954 
L 359.186986 110.661665 
L 359.614163 110.528664 
L 360.04134 110.142179 
L 360.468517 109.350929 
L 360.895694 106.478332 
L 361.322871 107.99384 
L 361.750048 106.560082 
L 362.177225 106.669907 
L 362.604402 107.968997 
L 363.031579 111.147162 
L 363.458756 111.884096 
L 363.885933 111.93701 
L 364.31311 113.531322 
L 364.740287 111.215558 
L 365.594641 112.453291 
L 366.021818 112.741963 
L 366.448995 112.505365 
L 366.876172 112.038258 
L 367.303349 114.549691 
L 367.730526 113.394164 
L 368.157703 113.946732 
L 368.58488 112.304734 
L 369.012057 113.442667 
L 369.866411 110.642032 
L 370.293589 105.059798 
L 370.720766 91.988572 
L 371.147943 99.525447 
L 371.57512 105.054819 
L 372.002297 105.413605 
L 372.429474 107.245331 
L 372.856651 105.5118 
L 373.283828 108.433441 
L 373.711005 107.401238 
L 374.138182 103.771769 
L 374.565359 105.759285 
L 374.992536 105.752476 
L 375.419713 108.188558 
L 375.84689 104.055981 
L 376.274067 97.061785 
L 376.701244 97.2273 
L 377.128421 108.242237 
L 377.555598 95.876739 
L 378.409952 92.212138 
L 378.837129 96.117302 
L 379.264306 95.928842 
L 379.691483 94.506984 
L 380.11866 91.236729 
L 380.545837 91.915575 
L 381.400191 83.8639 
L 381.827368 84.677054 
L 382.254545 84.440467 
L 382.681722 81.849779 
L 383.1089 81.753335 
L 383.536077 82.715908 
L 383.963254 81.389052 
L 384.390431 82.277957 
L 384.817608 82.385772 
L 385.244785 85.916375 
L 385.671962 86.796748 
L 386.526316 89.975054 
L 386.953493 87.791998 
L 387.38067 88.994959 
L 387.807847 89.134258 
L 388.235024 86.11726 
L 388.662201 89.505507 
L 389.089378 90.446543 
L 389.516555 87.169761 
L 389.943732 86.283407 
L 390.370909 88.707656 
L 390.798086 84.980375 
L 391.225263 88.609528 
L 391.65244 88.929791 
L 392.079617 84.306294 
L 392.933971 69.272762 
L 393.361148 76.966626 
L 393.788325 82.208818 
L 394.215502 82.129822 
L 394.642679 82.748974 
L 395.069856 81.540194 
L 395.497033 81.681593 
L 395.924211 82.446706 
L 396.778565 79.991711 
L 397.205742 83.206169 
L 398.060096 75.504099 
L 398.487273 79.440601 
L 398.487273 79.440601 
" clip-path="url(#pe2c5df2820)" style="fill: none; stroke: #ff7f0e; stroke-width: 1.5; stroke-linecap: square"/>
   </g>
   <g id="line2d_16">
    <path d="M 73.832727 295.218854 
L 80.240383 295.187444 
L 80.66756 295.258335 
L 81.521914 295.1417 
L 81.949091 295.23107 
L 82.376268 295.126668 
L 82.803445 295.230462 
L 84.084976 295.124731 
L 96.045933 295.191629 
L 96.47311 295.147924 
L 96.900287 295.248502 
L 98.181818 294.932063 
L 98.608995 295.134294 
L 108.434067 295.188796 
L 108.861244 295.327739 
L 110.142775 295.23548 
L 110.997129 295.154198 
L 111.851483 295.288551 
L 112.27866 295.307115 
L 112.705837 295.204138 
L 113.560191 295.330093 
L 114.414545 295.34855 
L 115.696077 295.35292 
L 119.967847 295.235857 
L 121.249378 295.237789 
L 121.676555 295.306771 
L 122.530909 295.271097 
L 123.385263 295.271824 
L 124.239617 295.282198 
L 124.666794 295.382399 
L 128.084211 295.283195 
L 132.355981 295.273846 
L 132.783158 295.400213 
L 133.210335 295.255468 
L 133.637512 295.347981 
L 134.064689 295.233391 
L 135.34622 295.313789 
L 135.773397 295.260678 
L 136.200574 295.381036 
L 137.054928 295.347018 
L 137.482105 295.253328 
L 138.336459 295.409714 
L 139.61799 295.261889 
L 140.045167 295.36103 
L 140.899522 295.214692 
L 141.326699 295.189962 
L 141.753876 295.327503 
L 142.181053 295.328894 
L 142.60823 295.203203 
L 143.889761 295.372143 
L 144.316938 295.220623 
L 145.598469 295.199232 
L 146.025646 295.048681 
L 147.307177 295.320992 
L 148.161531 295.047532 
L 148.588708 295.138332 
L 149.015885 295.015012 
L 150.297416 295.042108 
L 150.724593 295.067689 
L 151.15177 295.234112 
L 152.006124 295.148267 
L 152.433301 294.80805 
L 152.860478 295.028856 
L 153.287656 294.925772 
L 154.569187 295.123424 
L 154.996364 294.97231 
L 155.423541 295.022261 
L 156.277895 294.781996 
L 156.705072 294.838419 
L 157.559426 294.751009 
L 157.986603 294.902258 
L 158.840957 294.736917 
L 159.268134 294.995683 
L 162.258373 294.744098 
L 163.112727 294.698726 
L 163.539904 294.720781 
L 163.967081 294.493561 
L 164.394258 294.435871 
L 165.248612 294.627188 
L 166.102967 294.580644 
L 166.530144 294.857506 
L 168.238852 294.518162 
L 169.520383 294.556257 
L 169.94756 294.844349 
L 171.229091 294.36141 
L 172.083445 294.44789 
L 172.510622 294.384586 
L 172.937799 294.621229 
L 173.364976 294.390359 
L 174.21933 294.682996 
L 175.500861 294.278821 
L 176.782392 294.383747 
L 177.209569 294.1587 
L 177.636746 294.303895 
L 178.4911 293.983542 
L 178.918278 294.143037 
L 179.345455 294.029911 
L 179.772632 294.10497 
L 180.626986 294.053741 
L 181.48134 294.045844 
L 181.908517 293.931265 
L 182.335694 294.056979 
L 183.617225 293.876037 
L 184.044402 294.086728 
L 184.898756 293.924558 
L 185.325933 293.626086 
L 185.75311 293.489941 
L 186.180287 293.159491 
L 187.034641 293.112705 
L 187.461818 292.839307 
L 187.888995 293.381839 
L 188.316172 293.34331 
L 188.743349 293.032059 
L 189.170526 292.975507 
L 189.597703 292.552251 
L 190.02488 292.775985 
L 190.452057 292.187709 
L 191.306411 292.701777 
L 191.733589 292.593027 
L 192.160766 293.716965 
L 192.587943 293.637108 
L 193.01512 292.387845 
L 193.442297 292.250648 
L 193.869474 292.299483 
L 194.296651 292.534871 
L 194.723828 291.564846 
L 195.151005 292.37849 
L 195.578182 292.383441 
L 196.005359 291.921779 
L 196.432536 292.52471 
L 196.859713 291.69813 
L 197.28689 291.821872 
L 197.714067 292.282525 
L 198.141244 292.314183 
L 198.568421 292.229263 
L 198.995598 292.536498 
L 199.422775 292.023326 
L 199.849952 292.327385 
L 200.277129 291.682512 
L 200.704306 292.179875 
L 201.131483 291.886663 
L 201.55866 292.302756 
L 201.985837 292.096154 
L 202.413014 292.45467 
L 203.267368 291.400215 
L 203.694545 292.253976 
L 204.121722 292.115393 
L 204.5489 291.662693 
L 204.976077 291.942365 
L 205.403254 292.387327 
L 205.830431 291.928606 
L 206.257608 291.66405 
L 206.684785 291.53463 
L 207.111962 290.970167 
L 207.539139 291.24321 
L 207.966316 291.068283 
L 208.393493 290.583192 
L 208.82067 290.716413 
L 209.247847 287.72538 
L 209.675024 291.623645 
L 210.102201 291.942382 
L 210.529378 290.879248 
L 210.956555 290.875227 
L 211.810909 290.23063 
L 212.238086 290.277201 
L 212.665263 289.976037 
L 213.09244 290.112041 
L 213.946794 289.479581 
L 214.373971 291.516478 
L 214.801148 292.289909 
L 215.228325 288.99026 
L 215.655502 289.355675 
L 216.509856 288.925835 
L 216.937033 289.117151 
L 217.364211 289.065246 
L 217.791388 289.710445 
L 218.218565 287.236854 
L 218.645742 289.01574 
L 219.072919 289.007432 
L 219.500096 288.28455 
L 219.927273 288.659961 
L 220.35445 289.23543 
L 220.781627 288.872696 
L 221.208804 288.958878 
L 221.635981 287.651538 
L 222.063158 288.255533 
L 222.490335 287.82553 
L 222.917512 287.158861 
L 223.344689 288.699414 
L 223.771866 287.528792 
L 224.199043 288.652865 
L 224.62622 287.510375 
L 225.053397 288.000124 
L 225.480574 287.35662 
L 225.907751 288.921352 
L 226.334928 288.582492 
L 226.762105 287.536035 
L 227.616459 288.483069 
L 228.043636 288.152917 
L 228.470813 286.910238 
L 228.89799 287.703111 
L 229.325167 285.874437 
L 229.752344 286.447546 
L 230.179522 285.520174 
L 231.033876 284.674038 
L 231.88823 284.834361 
L 232.315407 284.897795 
L 232.742584 283.716202 
L 233.169761 284.975495 
L 233.596938 284.645985 
L 234.024115 283.447845 
L 234.451292 283.723039 
L 234.878469 283.453364 
L 235.305646 283.572477 
L 236.16 284.948659 
L 236.587177 286.954962 
L 237.014354 288.163156 
L 237.441531 283.464826 
L 237.868708 283.019171 
L 238.295885 283.073892 
L 238.723062 283.578464 
L 239.150239 283.491758 
L 239.577416 283.242015 
L 240.43177 284.166492 
L 240.858947 283.017278 
L 241.286124 283.292394 
L 241.713301 282.531162 
L 242.140478 283.810432 
L 242.567656 283.924105 
L 242.994833 282.77337 
L 243.849187 281.669888 
L 244.276364 280.979998 
L 244.703541 283.213274 
L 245.130718 282.099734 
L 245.557895 281.748619 
L 245.985072 282.819119 
L 246.412249 281.768094 
L 246.839426 282.589392 
L 247.266603 282.490454 
L 247.69378 281.996453 
L 248.120957 283.121117 
L 248.548134 283.685535 
L 248.975311 283.174278 
L 249.402488 282.271918 
L 249.829665 282.667109 
L 250.256842 283.612746 
L 250.684019 283.0528 
L 251.538373 280.844439 
L 251.96555 280.985129 
L 252.392727 278.900815 
L 253.247081 278.866713 
L 253.674258 277.592821 
L 254.101435 279.043509 
L 254.528612 278.829372 
L 254.955789 277.517785 
L 255.382967 276.82313 
L 255.810144 278.487111 
L 256.237321 277.021672 
L 257.091675 276.761132 
L 257.946029 277.355592 
L 258.373206 275.422421 
L 258.800383 278.274652 
L 259.22756 282.763587 
L 260.081914 275.472529 
L 260.509091 275.758684 
L 260.936268 275.16312 
L 261.363445 275.972388 
L 261.790622 276.485132 
L 262.217799 276.290189 
L 262.644976 276.255169 
L 263.072153 276.829686 
L 263.49933 275.884454 
L 263.926507 275.779821 
L 264.353684 275.241062 
L 264.780861 276.299476 
L 265.208038 276.46034 
L 265.635215 276.099318 
L 266.062392 276.159294 
L 266.489569 272.630712 
L 266.916746 277.189249 
L 267.343923 274.269523 
L 267.7711 274.321862 
L 268.198278 275.165688 
L 268.625455 277.403651 
L 269.052632 276.498722 
L 269.479809 275.036072 
L 269.906986 274.490154 
L 270.334163 277.552174 
L 270.76134 276.983425 
L 271.188517 276.993151 
L 271.615694 276.038007 
L 272.042871 277.026538 
L 272.470048 277.62912 
L 272.897225 277.884551 
L 273.324402 278.278189 
L 273.751579 276.007504 
L 274.178756 274.364232 
L 274.605933 274.69782 
L 275.03311 274.015781 
L 275.460287 274.989314 
L 275.887464 273.338079 
L 276.314641 273.71406 
L 276.741818 274.586452 
L 277.168995 273.175976 
L 277.596172 273.738745 
L 278.023349 275.208092 
L 278.450526 273.106938 
L 278.877703 271.972621 
L 279.30488 273.433638 
L 279.732057 273.5731 
L 280.159234 289.671798 
L 280.586411 278.64139 
L 281.013589 275.503849 
L 281.440766 281.037383 
L 281.867943 279.613447 
L 282.29512 273.095105 
L 282.722297 274.334427 
L 283.149474 272.774691 
L 283.576651 272.845475 
L 284.003828 272.691533 
L 284.431005 275.588055 
L 284.858182 273.922767 
L 285.285359 273.003826 
L 285.712536 272.471234 
L 286.139713 274.002574 
L 286.56689 274.174583 
L 286.994067 274.947073 
L 287.421244 274.699684 
L 287.848421 270.022919 
L 288.275598 272.222156 
L 288.702775 271.008212 
L 289.129952 274.48651 
L 289.557129 272.321737 
L 289.984306 271.778207 
L 290.83866 273.145141 
L 291.265837 271.990244 
L 292.120191 274.66066 
L 292.547368 275.693031 
L 292.974545 276.398815 
L 293.8289 274.602593 
L 294.683254 276.750375 
L 295.110431 275.961546 
L 295.537608 275.561668 
L 295.964785 275.67315 
L 296.391962 271.097993 
L 296.819139 270.581368 
L 297.246316 270.522321 
L 297.673493 270.58245 
L 298.10067 270.466744 
L 298.527847 271.019814 
L 298.955024 269.630583 
L 299.382201 270.181265 
L 299.809378 267.140968 
L 300.236555 270.41752 
L 300.663732 269.090602 
L 301.090909 266.80248 
L 301.518086 269.366574 
L 301.945263 267.221321 
L 302.37244 268.634944 
L 302.799617 268.680069 
L 303.226794 270.059342 
L 303.653971 282.508786 
L 304.508325 269.811103 
L 304.935502 269.343122 
L 305.362679 269.062763 
L 305.789856 268.390732 
L 306.217033 270.933136 
L 306.644211 269.686943 
L 307.071388 270.484913 
L 307.498565 267.612801 
L 307.925742 269.447738 
L 308.780096 267.957794 
L 309.207273 269.098712 
L 309.63445 268.578201 
L 310.061627 267.853589 
L 310.488804 270.507543 
L 310.915981 267.160157 
L 311.343158 269.40708 
L 311.770335 267.543065 
L 312.197512 267.090477 
L 312.624689 267.195616 
L 313.479043 270.682374 
L 313.90622 268.57048 
L 314.333397 270.070246 
L 314.760574 270.436342 
L 315.187751 270.203788 
L 315.614928 271.099925 
L 316.042105 269.182861 
L 316.469282 270.956014 
L 316.896459 270.386752 
L 317.323636 270.608988 
L 317.750813 273.101098 
L 318.605167 267.556587 
L 319.032344 267.55416 
L 319.459522 267.715795 
L 319.886699 266.365347 
L 320.313876 267.160641 
L 320.741053 267.595088 
L 321.16823 264.971221 
L 321.595407 266.530389 
L 322.022584 266.131582 
L 322.876938 267.845198 
L 323.304115 264.138766 
L 324.158469 266.327324 
L 324.585646 266.287399 
L 325.012823 265.96788 
L 325.44 267.85159 
L 325.867177 279.505435 
L 326.294354 279.256841 
L 326.721531 267.358524 
L 327.148708 265.822375 
L 327.575885 265.512937 
L 328.003062 265.861045 
L 328.430239 266.466808 
L 328.857416 267.987543 
L 329.284593 267.379808 
L 329.71177 268.043554 
L 330.138947 267.162156 
L 330.566124 266.627852 
L 330.993301 276.800478 
L 331.420478 281.80695 
L 331.847656 283.189473 
L 332.70201 280.776505 
L 333.556364 282.014999 
L 333.983541 282.003577 
L 334.410718 279.03603 
L 334.837895 279.075443 
L 335.265072 280.572241 
L 335.692249 275.64531 
L 336.119426 277.007671 
L 336.546603 276.565322 
L 336.97378 275.583521 
L 337.400957 279.528493 
L 337.828134 278.06128 
L 338.255311 278.618152 
L 338.682488 277.25337 
L 339.109665 276.592891 
L 339.536842 277.591475 
L 339.964019 276.905381 
L 340.391196 277.572078 
L 340.818373 276.98468 
L 341.24555 274.382801 
L 341.672727 274.478355 
L 342.099904 271.313403 
L 342.527081 273.505329 
L 342.954258 273.521617 
L 343.381435 271.732948 
L 343.808612 273.713958 
L 344.235789 274.914447 
L 344.662967 274.937015 
L 345.090144 274.415681 
L 345.517321 276.325615 
L 346.371675 273.318429 
L 346.798852 272.117123 
L 347.226029 274.373914 
L 347.653206 275.99397 
L 348.080383 279.734289 
L 348.50756 284.623276 
L 349.361914 274.485587 
L 349.789091 275.487297 
L 351.070622 274.630562 
L 351.497799 276.278919 
L 351.924976 275.825435 
L 352.352153 271.469851 
L 352.77933 271.319452 
L 353.206507 269.747207 
L 353.633684 274.714333 
L 354.060861 272.361094 
L 354.488038 273.168705 
L 354.915215 274.353548 
L 355.342392 272.141572 
L 355.769569 268.334462 
L 356.196746 275.3673 
L 356.623923 273.02137 
L 357.0511 275.626995 
L 357.478278 277.398413 
L 357.905455 270.539539 
L 358.332632 269.517654 
L 358.759809 271.392404 
L 359.186986 275.278206 
L 359.614163 277.196024 
L 360.04134 275.121189 
L 360.468517 275.428622 
L 360.895694 277.030148 
L 361.322871 275.054967 
L 361.750048 275.044565 
L 362.177225 275.150656 
L 362.604402 277.3529 
L 363.031579 272.286615 
L 363.458756 270.354164 
L 363.885933 272.57496 
L 364.31311 269.723287 
L 364.740287 271.596443 
L 365.167464 269.184151 
L 366.021818 271.143917 
L 366.448995 271.063209 
L 366.876172 271.983299 
L 367.303349 269.328343 
L 367.730526 268.856144 
L 368.157703 270.185602 
L 368.58488 269.566468 
L 369.012057 267.628903 
L 369.439234 269.041913 
L 369.866411 269.023378 
L 370.293589 273.112993 
L 370.720766 283.043101 
L 371.147943 277.648455 
L 371.57512 276.120252 
L 372.002297 271.254503 
L 372.429474 269.211055 
L 372.856651 273.969007 
L 373.283828 269.028272 
L 373.711005 268.054136 
L 374.138182 271.629796 
L 374.565359 270.492077 
L 374.992536 270.46421 
L 375.419713 268.678886 
L 375.84689 265.16109 
L 376.274067 271.338579 
L 376.701244 271.401123 
L 377.128421 258.822648 
L 377.555598 270.675317 
L 377.982775 269.585386 
L 378.409952 275.075885 
L 379.264306 269.750507 
L 379.691483 273.120168 
L 380.11866 273.078057 
L 380.545837 270.71268 
L 380.973014 270.842736 
L 381.400191 275.773801 
L 381.827368 268.898475 
L 382.254545 271.590822 
L 382.681722 275.975164 
L 383.1089 278.012112 
L 383.536077 275.282137 
L 383.963254 276.95376 
L 384.817608 276.547552 
L 385.244785 275.171737 
L 385.671962 273.286906 
L 386.099139 270.240301 
L 386.526316 268.897123 
L 386.953493 269.466397 
L 387.38067 268.673451 
L 387.807847 266.560492 
L 388.235024 270.970742 
L 388.662201 271.341789 
L 389.089378 267.870953 
L 389.516555 267.312442 
L 389.943732 271.377243 
L 390.370909 267.106607 
L 390.798086 272.751611 
L 391.225263 267.390762 
L 391.65244 267.045876 
L 392.079617 269.241283 
L 392.506794 273.794784 
L 392.933971 280.036062 
L 393.788325 269.858632 
L 394.215502 268.442457 
L 394.642679 268.263982 
L 395.069856 272.020758 
L 395.924211 268.912904 
L 396.351388 271.861883 
L 396.778565 272.073593 
L 397.205742 267.100299 
L 397.632919 271.404716 
L 398.060096 273.551901 
L 398.487273 295.488 
L 398.487273 295.488 
" clip-path="url(#pe2c5df2820)" style="fill: none; stroke: #2ca02c; stroke-width: 1.5; stroke-linecap: square"/>
   </g>
   <g id="patch_3">
    <path d="M 57.6 307.584 
L 57.6 41.472 
" style="fill: none; stroke: #000000; stroke-width: 0.8; stroke-linejoin: miter; stroke-linecap: square"/>
   </g>
   <g id="patch_4">
    <path d="M 414.72 307.584 
L 414.72 41.472 
" style="fill: none; stroke: #000000; stroke-width: 0.8; stroke-linejoin: miter; stroke-linecap: square"/>
   </g>
   <g id="patch_5">
    <path d="M 57.6 307.584 
L 414.72 307.584 
" style="fill: none; stroke: #000000; stroke-width: 0.8; stroke-linejoin: miter; stroke-linecap: square"/>
   </g>
   <g id="patch_6">
    <path d="M 57.6 41.472 
L 414.72 41.472 
" style="fill: none; stroke: #000000; stroke-width: 0.8; stroke-linejoin: miter; stroke-linecap: square"/>
   </g>
   <g id="legend_1">
    <g id="patch_7">
     <path d="M 64.6 93.506375 
L 186.25625 93.506375 
Q 188.25625 93.506375 188.25625 91.506375 
L 188.25625 48.472 
Q 188.25625 46.472 186.25625 46.472 
L 64.6 46.472 
Q 62.6 46.472 62.6 48.472 
L 62.6 91.506375 
Q 62.6 93.506375 64.6 93.506375 
z
" style="fill: #ffffff; opacity: 0.8; stroke: #cccccc; stroke-linejoin: miter"/>
    </g>
    <g id="line2d_17">
     <path d="M 66.6 54.570438 
L 76.6 54.570438 
L 86.6 54.570438 
" style="fill: none; stroke: #1f77b4; stroke-width: 1.5; stroke-linecap: square"/>
    </g>
    <g id="text_16">
     <!-- Weekly maximum -->
     <g transform="translate(94.6 58.070438) scale(0.1 -0.1)">
      <defs>
       <path id="DejaVuSans-57" d="M 213 4666 
L 850 4666 
L 1831 722 
L 2809 4666 
L 3519 4666 
L 4500 722 
L 5478 4666 
L 6119 4666 
L 4947 0 
L 4153 0 
L 3169 4050 
L 2175 0 
L 1381 0 
L 213 4666 
z
" transform="scale(0.015625)"/>
       <path id="DejaVuSans-6b" d="M 581 4863 
L 1159 4863 
L 1159 1991 
L 2875 3500 
L 3609 3500 
L 1753 1863 
L 3688 0 
L 2938 0 
L 1159 1709 
L 1159 0 
L 581 0 
L 581 4863 
z
" transform="scale(0.015625)"/>
       <path id="DejaVuSans-79" d="M 2059 -325 
Q 1816 -950 1584 -1140 
Q 1353 -1331 966 -1331 
L 506 -1331 
L 506 -850 
L 844 -850 
Q 1081 -850 1212 -737 
Q 1344 -625 1503 -206 
L 1606 56 
L 191 3500 
L 800 3500 
L 1894 763 
L 2988 3500 
L 3597 3500 
L 2059 -325 
z
" transform="scale(0.015625)"/>
       <path id="DejaVuSans-6d" d="M 3328 2828 
Q 3544 3216 3844 3400 
Q 4144 3584 4550 3584 
Q 5097 3584 5394 3201 
Q 5691 2819 5691 2113 
L 5691 0 
L 5113 0 
L 5113 2094 
Q 5113 2597 4934 2840 
Q 4756 3084 4391 3084 
Q 3944 3084 3684 2787 
Q 3425 2491 3425 1978 
L 3425 0 
L 2847 0 
L 2847 2094 
Q 2847 2600 2669 2842 
Q 2491 3084 2119 3084 
Q 1678 3084 1418 2786 
Q 1159 2488 1159 1978 
L 1159 0 
L 581 0 
L 581 3500 
L 1159 3500 
L 1159 2956 
Q 1356 3278 1631 3431 
Q 1906 3584 2284 3584 
Q 2666 3584 2933 3390 
Q 3200 3197 3328 2828 
z
" transform="scale(0.015625)"/>
       <path id="DejaVuSans-78" d="M 3513 3500 
L 2247 1797 
L 3578 0 
L 2900 0 
L 1881 1375 
L 863 0 
L 184 0 
L 1544 1831 
L 300 3500 
L 978 3500 
L 1906 2253 
L 2834 3500 
L 3513 3500 
z
" transform="scale(0.015625)"/>
       <path id="DejaVuSans-75" d="M 544 1381 
L 544 3500 
L 1119 3500 
L 1119 1403 
Q 1119 906 1312 657 
Q 1506 409 1894 409 
Q 2359 409 2629 706 
Q 2900 1003 2900 1516 
L 2900 3500 
L 3475 3500 
L 3475 0 
L 2900 0 
L 2900 538 
Q 2691 219 2414 64 
Q 2138 -91 1772 -91 
Q 1169 -91 856 284 
Q 544 659 544 1381 
z
M 1991 3584 
L 1991 3584 
z
" transform="scale(0.015625)"/>
      </defs>
      <use xlink:href="#DejaVuSans-57"/>
      <use xlink:href="#DejaVuSans-65" x="93.001953"/>
      <use xlink:href="#DejaVuSans-65" x="154.525391"/>
      <use xlink:href="#DejaVuSans-6b" x="216.048828"/>
      <use xlink:href="#DejaVuSans-6c" x="273.958984"/>
      <use xlink:href="#DejaVuSans-79" x="301.742188"/>
      <use xlink:href="#DejaVuSans-20" x="360.921875"/>
      <use xlink:href="#DejaVuSans-6d" x="392.708984"/>
      <use xlink:href="#DejaVuSans-61" x="490.121094"/>
      <use xlink:href="#DejaVuSans-78" x="551.400391"/>
      <use xlink:href="#DejaVuSans-69" x="610.580078"/>
      <use xlink:href="#DejaVuSans-6d" x="638.363281"/>
      <use xlink:href="#DejaVuSans-75" x="735.775391"/>
      <use xlink:href="#DejaVuSans-6d" x="799.154297"/>
     </g>
    </g>
    <g id="line2d_18">
     <path d="M 66.6 69.248563 
L 76.6 69.248563 
L 86.6 69.248563 
" style="fill: none; stroke: #ff7f0e; stroke-width: 1.5; stroke-linecap: square"/>
    </g>
    <g id="text_17">
     <!-- Weekly minimum -->
     <g transform="translate(94.6 72.748563) scale(0.1 -0.1)">
      <defs>
       <path id="DejaVuSans-6e" d="M 3513 2113 
L 3513 0 
L 2938 0 
L 2938 2094 
Q 2938 2591 2744 2837 
Q 2550 3084 2163 3084 
Q 1697 3084 1428 2787 
Q 1159 2491 1159 1978 
L 1159 0 
L 581 0 
L 581 3500 
L 1159 3500 
L 1159 2956 
Q 1366 3272 1645 3428 
Q 1925 3584 2291 3584 
Q 2894 3584 3203 3211 
Q 3513 2838 3513 2113 
z
" transform="scale(0.015625)"/>
      </defs>
      <use xlink:href="#DejaVuSans-57"/>
      <use xlink:href="#DejaVuSans-65" x="93.001953"/>
      <use xlink:href="#DejaVuSans-65" x="154.525391"/>
      <use xlink:href="#DejaVuSans-6b" x="216.048828"/>
      <use xlink:href="#DejaVuSans-6c" x="273.958984"/>
      <use xlink:href="#DejaVuSans-79" x="301.742188"/>
      <use xlink:href="#DejaVuSans-20" x="360.921875"/>
      <use xlink:href="#DejaVuSans-6d" x="392.708984"/>
      <use xlink:href="#DejaVuSans-69" x="490.121094"/>
      <use xlink:href="#DejaVuSans-6e" x="517.904297"/>
      <use xlink:href="#DejaVuSans-69" x="581.283203"/>
      <use xlink:href="#DejaVuSans-6d" x="609.066406"/>
      <use xlink:href="#DejaVuSans-75" x="706.478516"/>
      <use xlink:href="#DejaVuSans-6d" x="769.857422"/>
     </g>
    </g>
    <g id="line2d_19">
     <path d="M 66.6 83.926688 
L 76.6 83.926688 
L 86.6 83.926688 
" style="fill: none; stroke: #2ca02c; stroke-width: 1.5; stroke-linecap: square"/>
    </g>
    <g id="text_18">
     <!-- Weekly range -->
     <g transform="translate(94.6 87.426688) scale(0.1 -0.1)">
      <use xlink:href="#DejaVuSans-57"/>
      <use xlink:href="#DejaVuSans-65" x="93.001953"/>
      <use xlink:href="#DejaVuSans-65" x="154.525391"/>
      <use xlink:href="#DejaVuSans-6b" x="216.048828"/>
      <use xlink:href="#DejaVuSans-6c" x="273.958984"/>
      <use xlink:href="#DejaVuSans-79" x="301.742188"/>
      <use xlink:href="#DejaVuSans-20" x="360.921875"/>
      <use xlink:href="#DejaVuSans-72" x="392.708984"/>
      <use xlink:href="#DejaVuSans-61" x="433.822266"/>
      <use xlink:href="#DejaVuSans-6e" x="495.101562"/>
      <use xlink:href="#DejaVuSans-67" x="558.480469"/>
      <use xlink:href="#DejaVuSans-65" x="621.957031"/>
     </g>
    </g>
   </g>
  </g>
 </g>
 <defs>
  <clipPath id="pe2c5df2820">
   <rect x="57.6" y="41.472" width="357.12" height="266.112"/>
  </clipPath>
 </defs>
</svg>
