<?xml version="1.0" encoding="utf-8" standalone="no"?>
<!DOCTYPE svg PUBLIC "-//W3C//DTD SVG 1.1//EN"
  "http://www.w3.org/Graphics/SVG/1.1/DTD/svg11.dtd">
<svg xmlns:xlink="http://www.w3.org/1999/xlink" width="460.8pt" height="345.6pt" viewBox="0 0 460.8 345.6" xmlns="http://www.w3.org/2000/svg" version="1.1">
 <metadata>
  <rdf:RDF xmlns:dc="http://purl.org/dc/elements/1.1/" xmlns:cc="http://creativecommons.org/ns#" xmlns:rdf="http://www.w3.org/1999/02/22-rdf-syntax-ns#">
   <cc:Work>
    <dc:type rdf:resource="http://purl.org/dc/dcmitype/StillImage"/>
    <dc:date>2024-05-21T05:32:20.002145</dc:date>
    <dc:format>image/svg+xml</dc:format>
    <dc:creator>
     <cc:Agent>
      <dc:title>Matplotlib v3.9.0, https://matplotlib.org/</dc:title>
     </cc:Agent>
    </dc:creator>
   </cc:Work>
  </rdf:RDF>
 </metadata>
 <defs>
  <style type="text/css">*{stroke-linejoin: round; stroke-linecap: butt}</style>
 </defs>
 <g id="figure_1">
  <g id="patch_1">
   <path d="M 0 345.6 
L 460.8 345.6 
L 460.8 0 
L 0 0 
z
" style="fill: #ffffff"/>
  </g>
  <g id="axes_1">
   <g id="patch_2">
    <path d="M 57.6 307.584 
L 414.72 307.584 
L 414.72 41.472 
L 57.6 41.472 
z
" style="fill: #ffffff"/>
   </g>
   <g id="matplotlib.axis_1">
    <g id="xtick_1">
     <g id="line2d_1">
      <defs>
       <path id="m1cb50158ae" d="M 0 0 
L 0 3.5 
" style="stroke: #000000; stroke-width: 0.8"/>
      </defs>
      <g>
       <use xlink:href="#m1cb50158ae" x="60.01523" y="307.584" style="stroke: #000000; stroke-width: 0.8"/>
      </g>
     </g>
     <g id="text_1">
      <!-- 2008 -->
      <g transform="translate(47.29023 322.182437) scale(0.1 -0.1)">
       <defs>
        <path id="DejaVuSans-32" d="M 1228 531 
L 3431 531 
L 3431 0 
L 469 0 
L 469 531 
Q 828 903 1448 1529 
Q 2069 2156 2228 2338 
Q 2531 2678 2651 2914 
Q 2772 3150 2772 3378 
Q 2772 3750 2511 3984 
Q 2250 4219 1831 4219 
Q 1534 4219 1204 4116 
Q 875 4013 500 3803 
L 500 4441 
Q 881 4594 1212 4672 
Q 1544 4750 1819 4750 
Q 2544 4750 2975 4387 
Q 3406 4025 3406 3419 
Q 3406 3131 3298 2873 
Q 3191 2616 2906 2266 
Q 2828 2175 2409 1742 
Q 1991 1309 1228 531 
z
" transform="scale(0.015625)"/>
        <path id="DejaVuSans-30" d="M 2034 4250 
Q 1547 4250 1301 3770 
Q 1056 3291 1056 2328 
Q 1056 1369 1301 889 
Q 1547 409 2034 409 
Q 2525 409 2770 889 
Q 3016 1369 3016 2328 
Q 3016 3291 2770 3770 
Q 2525 4250 2034 4250 
z
M 2034 4750 
Q 2819 4750 3233 4129 
Q 3647 3509 3647 2328 
Q 3647 1150 3233 529 
Q 2819 -91 2034 -91 
Q 1250 -91 836 529 
Q 422 1150 422 2328 
Q 422 3509 836 4129 
Q 1250 4750 2034 4750 
z
" transform="scale(0.015625)"/>
        <path id="DejaVuSans-38" d="M 2034 2216 
Q 1584 2216 1326 1975 
Q 1069 1734 1069 1313 
Q 1069 891 1326 650 
Q 1584 409 2034 409 
Q 2484 409 2743 651 
Q 3003 894 3003 1313 
Q 3003 1734 2745 1975 
Q 2488 2216 2034 2216 
z
M 1403 2484 
Q 997 2584 770 2862 
Q 544 3141 544 3541 
Q 544 4100 942 4425 
Q 1341 4750 2034 4750 
Q 2731 4750 3128 4425 
Q 3525 4100 3525 3541 
Q 3525 3141 3298 2862 
Q 3072 2584 2669 2484 
Q 3125 2378 3379 2068 
Q 3634 1759 3634 1313 
Q 3634 634 3220 271 
Q 2806 -91 2034 -91 
Q 1263 -91 848 271 
Q 434 634 434 1313 
Q 434 1759 690 2068 
Q 947 2378 1403 2484 
z
M 1172 3481 
Q 1172 3119 1398 2916 
Q 1625 2713 2034 2713 
Q 2441 2713 2670 2916 
Q 2900 3119 2900 3481 
Q 2900 3844 2670 4047 
Q 2441 4250 2034 4250 
Q 1625 4250 1398 4047 
Q 1172 3844 1172 3481 
z
" transform="scale(0.015625)"/>
       </defs>
       <use xlink:href="#DejaVuSans-32"/>
       <use xlink:href="#DejaVuSans-30" x="63.623047"/>
       <use xlink:href="#DejaVuSans-30" x="127.246094"/>
       <use xlink:href="#DejaVuSans-38" x="190.869141"/>
      </g>
     </g>
    </g>
    <g id="xtick_2">
     <g id="line2d_2">
      <g>
       <use xlink:href="#m1cb50158ae" x="101.411092" y="307.584" style="stroke: #000000; stroke-width: 0.8"/>
      </g>
     </g>
     <g id="text_2">
      <!-- 2010 -->
      <g transform="translate(88.686092 322.182437) scale(0.1 -0.1)">
       <defs>
        <path id="DejaVuSans-31" d="M 794 531 
L 1825 531 
L 1825 4091 
L 703 3866 
L 703 4441 
L 1819 4666 
L 2450 4666 
L 2450 531 
L 3481 531 
L 3481 0 
L 794 0 
L 794 531 
z
" transform="scale(0.015625)"/>
       </defs>
       <use xlink:href="#DejaVuSans-32"/>
       <use xlink:href="#DejaVuSans-30" x="63.623047"/>
       <use xlink:href="#DejaVuSans-31" x="127.246094"/>
       <use xlink:href="#DejaVuSans-30" x="190.869141"/>
      </g>
     </g>
    </g>
    <g id="xtick_3">
     <g id="line2d_3">
      <g>
       <use xlink:href="#m1cb50158ae" x="142.750324" y="307.584" style="stroke: #000000; stroke-width: 0.8"/>
      </g>
     </g>
     <g id="text_3">
      <!-- 2012 -->
      <g transform="translate(130.025324 322.182437) scale(0.1 -0.1)">
       <use xlink:href="#DejaVuSans-32"/>
       <use xlink:href="#DejaVuSans-30" x="63.623047"/>
       <use xlink:href="#DejaVuSans-31" x="127.246094"/>
       <use xlink:href="#DejaVuSans-32" x="190.869141"/>
      </g>
     </g>
    </g>
    <g id="xtick_4">
     <g id="line2d_4">
      <g>
       <use xlink:href="#m1cb50158ae" x="184.146185" y="307.584" style="stroke: #000000; stroke-width: 0.8"/>
      </g>
     </g>
     <g id="text_4">
      <!-- 2014 -->
      <g transform="translate(171.421185 322.182437) scale(0.1 -0.1)">
       <defs>
        <path id="DejaVuSans-34" d="M 2419 4116 
L 825 1625 
L 2419 1625 
L 2419 4116 
z
M 2253 4666 
L 3047 4666 
L 3047 1625 
L 3713 1625 
L 3713 1100 
L 3047 1100 
L 3047 0 
L 2419 0 
L 2419 1100 
L 313 1100 
L 313 1709 
L 2253 4666 
z
" transform="scale(0.015625)"/>
       </defs>
       <use xlink:href="#DejaVuSans-32"/>
       <use xlink:href="#DejaVuSans-30" x="63.623047"/>
       <use xlink:href="#DejaVuSans-31" x="127.246094"/>
       <use xlink:href="#DejaVuSans-34" x="190.869141"/>
      </g>
     </g>
    </g>
    <g id="xtick_5">
     <g id="line2d_5">
      <g>
       <use xlink:href="#m1cb50158ae" x="225.485417" y="307.584" style="stroke: #000000; stroke-width: 0.8"/>
      </g>
     </g>
     <g id="text_5">
      <!-- 2016 -->
      <g transform="translate(212.760417 322.182437) scale(0.1 -0.1)">
       <defs>
        <path id="DejaVuSans-36" d="M 2113 2584 
Q 1688 2584 1439 2293 
Q 1191 2003 1191 1497 
Q 1191 994 1439 701 
Q 1688 409 2113 409 
Q 2538 409 2786 701 
Q 3034 994 3034 1497 
Q 3034 2003 2786 2293 
Q 2538 2584 2113 2584 
z
M 3366 4563 
L 3366 3988 
Q 3128 4100 2886 4159 
Q 2644 4219 2406 4219 
Q 1781 4219 1451 3797 
Q 1122 3375 1075 2522 
Q 1259 2794 1537 2939 
Q 1816 3084 2150 3084 
Q 2853 3084 3261 2657 
Q 3669 2231 3669 1497 
Q 3669 778 3244 343 
Q 2819 -91 2113 -91 
Q 1303 -91 875 529 
Q 447 1150 447 2328 
Q 447 3434 972 4092 
Q 1497 4750 2381 4750 
Q 2619 4750 2861 4703 
Q 3103 4656 3366 4563 
z
" transform="scale(0.015625)"/>
       </defs>
       <use xlink:href="#DejaVuSans-32"/>
       <use xlink:href="#DejaVuSans-30" x="63.623047"/>
       <use xlink:href="#DejaVuSans-31" x="127.246094"/>
       <use xlink:href="#DejaVuSans-36" x="190.869141"/>
      </g>
     </g>
    </g>
    <g id="xtick_6">
     <g id="line2d_6">
      <g>
       <use xlink:href="#m1cb50158ae" x="266.881279" y="307.584" style="stroke: #000000; stroke-width: 0.8"/>
      </g>
     </g>
     <g id="text_6">
      <!-- 2018 -->
      <g transform="translate(254.156279 322.182437) scale(0.1 -0.1)">
       <use xlink:href="#DejaVuSans-32"/>
       <use xlink:href="#DejaVuSans-30" x="63.623047"/>
       <use xlink:href="#DejaVuSans-31" x="127.246094"/>
       <use xlink:href="#DejaVuSans-38" x="190.869141"/>
      </g>
     </g>
    </g>
    <g id="xtick_7">
     <g id="line2d_7">
      <g>
       <use xlink:href="#m1cb50158ae" x="308.220511" y="307.584" style="stroke: #000000; stroke-width: 0.8"/>
      </g>
     </g>
     <g id="text_7">
      <!-- 2020 -->
      <g transform="translate(295.495511 322.182437) scale(0.1 -0.1)">
       <use xlink:href="#DejaVuSans-32"/>
       <use xlink:href="#DejaVuSans-30" x="63.623047"/>
       <use xlink:href="#DejaVuSans-32" x="127.246094"/>
       <use xlink:href="#DejaVuSans-30" x="190.869141"/>
      </g>
     </g>
    </g>
    <g id="xtick_8">
     <g id="line2d_8">
      <g>
       <use xlink:href="#m1cb50158ae" x="349.616372" y="307.584" style="stroke: #000000; stroke-width: 0.8"/>
      </g>
     </g>
     <g id="text_8">
      <!-- 2022 -->
      <g transform="translate(336.891372 322.182437) scale(0.1 -0.1)">
       <use xlink:href="#DejaVuSans-32"/>
       <use xlink:href="#DejaVuSans-30" x="63.623047"/>
       <use xlink:href="#DejaVuSans-32" x="127.246094"/>
       <use xlink:href="#DejaVuSans-32" x="190.869141"/>
      </g>
     </g>
    </g>
    <g id="xtick_9">
     <g id="line2d_9">
      <g>
       <use xlink:href="#m1cb50158ae" x="390.955604" y="307.584" style="stroke: #000000; stroke-width: 0.8"/>
      </g>
     </g>
     <g id="text_9">
      <!-- 2024 -->
      <g transform="translate(378.230604 322.182437) scale(0.1 -0.1)">
       <use xlink:href="#DejaVuSans-32"/>
       <use xlink:href="#DejaVuSans-30" x="63.623047"/>
       <use xlink:href="#DejaVuSans-32" x="127.246094"/>
       <use xlink:href="#DejaVuSans-34" x="190.869141"/>
      </g>
     </g>
    </g>
    <g id="text_10">
     <!-- Updated 2024-05-21 05:32:20.000549 - Last record 2024-05-19 -->
     <g transform="translate(75.905312 335.860562) scale(0.1 -0.1)">
      <defs>
       <path id="DejaVuSans-55" d="M 556 4666 
L 1191 4666 
L 1191 1831 
Q 1191 1081 1462 751 
Q 1734 422 2344 422 
Q 2950 422 3222 751 
Q 3494 1081 3494 1831 
L 3494 4666 
L 4128 4666 
L 4128 1753 
Q 4128 841 3676 375 
Q 3225 -91 2344 -91 
Q 1459 -91 1007 375 
Q 556 841 556 1753 
L 556 4666 
z
" transform="scale(0.015625)"/>
       <path id="DejaVuSans-70" d="M 1159 525 
L 1159 -1331 
L 581 -1331 
L 581 3500 
L 1159 3500 
L 1159 2969 
Q 1341 3281 1617 3432 
Q 1894 3584 2278 3584 
Q 2916 3584 3314 3078 
Q 3713 2572 3713 1747 
Q 3713 922 3314 415 
Q 2916 -91 2278 -91 
Q 1894 -91 1617 61 
Q 1341 213 1159 525 
z
M 3116 1747 
Q 3116 2381 2855 2742 
Q 2594 3103 2138 3103 
Q 1681 3103 1420 2742 
Q 1159 2381 1159 1747 
Q 1159 1113 1420 752 
Q 1681 391 2138 391 
Q 2594 391 2855 752 
Q 3116 1113 3116 1747 
z
" transform="scale(0.015625)"/>
       <path id="DejaVuSans-64" d="M 2906 2969 
L 2906 4863 
L 3481 4863 
L 3481 0 
L 2906 0 
L 2906 525 
Q 2725 213 2448 61 
Q 2172 -91 1784 -91 
Q 1150 -91 751 415 
Q 353 922 353 1747 
Q 353 2572 751 3078 
Q 1150 3584 1784 3584 
Q 2172 3584 2448 3432 
Q 2725 3281 2906 2969 
z
M 947 1747 
Q 947 1113 1208 752 
Q 1469 391 1925 391 
Q 2381 391 2643 752 
Q 2906 1113 2906 1747 
Q 2906 2381 2643 2742 
Q 2381 3103 1925 3103 
Q 1469 3103 1208 2742 
Q 947 2381 947 1747 
z
" transform="scale(0.015625)"/>
       <path id="DejaVuSans-61" d="M 2194 1759 
Q 1497 1759 1228 1600 
Q 959 1441 959 1056 
Q 959 750 1161 570 
Q 1363 391 1709 391 
Q 2188 391 2477 730 
Q 2766 1069 2766 1631 
L 2766 1759 
L 2194 1759 
z
M 3341 1997 
L 3341 0 
L 2766 0 
L 2766 531 
Q 2569 213 2275 61 
Q 1981 -91 1556 -91 
Q 1019 -91 701 211 
Q 384 513 384 1019 
Q 384 1609 779 1909 
Q 1175 2209 1959 2209 
L 2766 2209 
L 2766 2266 
Q 2766 2663 2505 2880 
Q 2244 3097 1772 3097 
Q 1472 3097 1187 3025 
Q 903 2953 641 2809 
L 641 3341 
Q 956 3463 1253 3523 
Q 1550 3584 1831 3584 
Q 2591 3584 2966 3190 
Q 3341 2797 3341 1997 
z
" transform="scale(0.015625)"/>
       <path id="DejaVuSans-74" d="M 1172 4494 
L 1172 3500 
L 2356 3500 
L 2356 3053 
L 1172 3053 
L 1172 1153 
Q 1172 725 1289 603 
Q 1406 481 1766 481 
L 2356 481 
L 2356 0 
L 1766 0 
Q 1100 0 847 248 
Q 594 497 594 1153 
L 594 3053 
L 172 3053 
L 172 3500 
L 594 3500 
L 594 4494 
L 1172 4494 
z
" transform="scale(0.015625)"/>
       <path id="DejaVuSans-65" d="M 3597 1894 
L 3597 1613 
L 953 1613 
Q 991 1019 1311 708 
Q 1631 397 2203 397 
Q 2534 397 2845 478 
Q 3156 559 3463 722 
L 3463 178 
Q 3153 47 2828 -22 
Q 2503 -91 2169 -91 
Q 1331 -91 842 396 
Q 353 884 353 1716 
Q 353 2575 817 3079 
Q 1281 3584 2069 3584 
Q 2775 3584 3186 3129 
Q 3597 2675 3597 1894 
z
M 3022 2063 
Q 3016 2534 2758 2815 
Q 2500 3097 2075 3097 
Q 1594 3097 1305 2825 
Q 1016 2553 972 2059 
L 3022 2063 
z
" transform="scale(0.015625)"/>
       <path id="DejaVuSans-20" transform="scale(0.015625)"/>
       <path id="DejaVuSans-2d" d="M 313 2009 
L 1997 2009 
L 1997 1497 
L 313 1497 
L 313 2009 
z
" transform="scale(0.015625)"/>
       <path id="DejaVuSans-35" d="M 691 4666 
L 3169 4666 
L 3169 4134 
L 1269 4134 
L 1269 2991 
Q 1406 3038 1543 3061 
Q 1681 3084 1819 3084 
Q 2600 3084 3056 2656 
Q 3513 2228 3513 1497 
Q 3513 744 3044 326 
Q 2575 -91 1722 -91 
Q 1428 -91 1123 -41 
Q 819 9 494 109 
L 494 744 
Q 775 591 1075 516 
Q 1375 441 1709 441 
Q 2250 441 2565 725 
Q 2881 1009 2881 1497 
Q 2881 1984 2565 2268 
Q 2250 2553 1709 2553 
Q 1456 2553 1204 2497 
Q 953 2441 691 2322 
L 691 4666 
z
" transform="scale(0.015625)"/>
       <path id="DejaVuSans-3a" d="M 750 794 
L 1409 794 
L 1409 0 
L 750 0 
L 750 794 
z
M 750 3309 
L 1409 3309 
L 1409 2516 
L 750 2516 
L 750 3309 
z
" transform="scale(0.015625)"/>
       <path id="DejaVuSans-33" d="M 2597 2516 
Q 3050 2419 3304 2112 
Q 3559 1806 3559 1356 
Q 3559 666 3084 287 
Q 2609 -91 1734 -91 
Q 1441 -91 1130 -33 
Q 819 25 488 141 
L 488 750 
Q 750 597 1062 519 
Q 1375 441 1716 441 
Q 2309 441 2620 675 
Q 2931 909 2931 1356 
Q 2931 1769 2642 2001 
Q 2353 2234 1838 2234 
L 1294 2234 
L 1294 2753 
L 1863 2753 
Q 2328 2753 2575 2939 
Q 2822 3125 2822 3475 
Q 2822 3834 2567 4026 
Q 2313 4219 1838 4219 
Q 1578 4219 1281 4162 
Q 984 4106 628 3988 
L 628 4550 
Q 988 4650 1302 4700 
Q 1616 4750 1894 4750 
Q 2613 4750 3031 4423 
Q 3450 4097 3450 3541 
Q 3450 3153 3228 2886 
Q 3006 2619 2597 2516 
z
" transform="scale(0.015625)"/>
       <path id="DejaVuSans-2e" d="M 684 794 
L 1344 794 
L 1344 0 
L 684 0 
L 684 794 
z
" transform="scale(0.015625)"/>
       <path id="DejaVuSans-39" d="M 703 97 
L 703 672 
Q 941 559 1184 500 
Q 1428 441 1663 441 
Q 2288 441 2617 861 
Q 2947 1281 2994 2138 
Q 2813 1869 2534 1725 
Q 2256 1581 1919 1581 
Q 1219 1581 811 2004 
Q 403 2428 403 3163 
Q 403 3881 828 4315 
Q 1253 4750 1959 4750 
Q 2769 4750 3195 4129 
Q 3622 3509 3622 2328 
Q 3622 1225 3098 567 
Q 2575 -91 1691 -91 
Q 1453 -91 1209 -44 
Q 966 3 703 97 
z
M 1959 2075 
Q 2384 2075 2632 2365 
Q 2881 2656 2881 3163 
Q 2881 3666 2632 3958 
Q 2384 4250 1959 4250 
Q 1534 4250 1286 3958 
Q 1038 3666 1038 3163 
Q 1038 2656 1286 2365 
Q 1534 2075 1959 2075 
z
" transform="scale(0.015625)"/>
       <path id="DejaVuSans-4c" d="M 628 4666 
L 1259 4666 
L 1259 531 
L 3531 531 
L 3531 0 
L 628 0 
L 628 4666 
z
" transform="scale(0.015625)"/>
       <path id="DejaVuSans-73" d="M 2834 3397 
L 2834 2853 
Q 2591 2978 2328 3040 
Q 2066 3103 1784 3103 
Q 1356 3103 1142 2972 
Q 928 2841 928 2578 
Q 928 2378 1081 2264 
Q 1234 2150 1697 2047 
L 1894 2003 
Q 2506 1872 2764 1633 
Q 3022 1394 3022 966 
Q 3022 478 2636 193 
Q 2250 -91 1575 -91 
Q 1294 -91 989 -36 
Q 684 19 347 128 
L 347 722 
Q 666 556 975 473 
Q 1284 391 1588 391 
Q 1994 391 2212 530 
Q 2431 669 2431 922 
Q 2431 1156 2273 1281 
Q 2116 1406 1581 1522 
L 1381 1569 
Q 847 1681 609 1914 
Q 372 2147 372 2553 
Q 372 3047 722 3315 
Q 1072 3584 1716 3584 
Q 2034 3584 2315 3537 
Q 2597 3491 2834 3397 
z
" transform="scale(0.015625)"/>
       <path id="DejaVuSans-72" d="M 2631 2963 
Q 2534 3019 2420 3045 
Q 2306 3072 2169 3072 
Q 1681 3072 1420 2755 
Q 1159 2438 1159 1844 
L 1159 0 
L 581 0 
L 581 3500 
L 1159 3500 
L 1159 2956 
Q 1341 3275 1631 3429 
Q 1922 3584 2338 3584 
Q 2397 3584 2469 3576 
Q 2541 3569 2628 3553 
L 2631 2963 
z
" transform="scale(0.015625)"/>
       <path id="DejaVuSans-63" d="M 3122 3366 
L 3122 2828 
Q 2878 2963 2633 3030 
Q 2388 3097 2138 3097 
Q 1578 3097 1268 2742 
Q 959 2388 959 1747 
Q 959 1106 1268 751 
Q 1578 397 2138 397 
Q 2388 397 2633 464 
Q 2878 531 3122 666 
L 3122 134 
Q 2881 22 2623 -34 
Q 2366 -91 2075 -91 
Q 1284 -91 818 406 
Q 353 903 353 1747 
Q 353 2603 823 3093 
Q 1294 3584 2113 3584 
Q 2378 3584 2631 3529 
Q 2884 3475 3122 3366 
z
" transform="scale(0.015625)"/>
       <path id="DejaVuSans-6f" d="M 1959 3097 
Q 1497 3097 1228 2736 
Q 959 2375 959 1747 
Q 959 1119 1226 758 
Q 1494 397 1959 397 
Q 2419 397 2687 759 
Q 2956 1122 2956 1747 
Q 2956 2369 2687 2733 
Q 2419 3097 1959 3097 
z
M 1959 3584 
Q 2709 3584 3137 3096 
Q 3566 2609 3566 1747 
Q 3566 888 3137 398 
Q 2709 -91 1959 -91 
Q 1206 -91 779 398 
Q 353 888 353 1747 
Q 353 2609 779 3096 
Q 1206 3584 1959 3584 
z
" transform="scale(0.015625)"/>
      </defs>
      <use xlink:href="#DejaVuSans-55"/>
      <use xlink:href="#DejaVuSans-70" x="73.193359"/>
      <use xlink:href="#DejaVuSans-64" x="136.669922"/>
      <use xlink:href="#DejaVuSans-61" x="200.146484"/>
      <use xlink:href="#DejaVuSans-74" x="261.425781"/>
      <use xlink:href="#DejaVuSans-65" x="300.634766"/>
      <use xlink:href="#DejaVuSans-64" x="362.158203"/>
      <use xlink:href="#DejaVuSans-20" x="425.634766"/>
      <use xlink:href="#DejaVuSans-32" x="457.421875"/>
      <use xlink:href="#DejaVuSans-30" x="521.044922"/>
      <use xlink:href="#DejaVuSans-32" x="584.667969"/>
      <use xlink:href="#DejaVuSans-34" x="648.291016"/>
      <use xlink:href="#DejaVuSans-2d" x="711.914062"/>
      <use xlink:href="#DejaVuSans-30" x="747.998047"/>
      <use xlink:href="#DejaVuSans-35" x="811.621094"/>
      <use xlink:href="#DejaVuSans-2d" x="875.244141"/>
      <use xlink:href="#DejaVuSans-32" x="911.328125"/>
      <use xlink:href="#DejaVuSans-31" x="974.951172"/>
      <use xlink:href="#DejaVuSans-20" x="1038.574219"/>
      <use xlink:href="#DejaVuSans-30" x="1070.361328"/>
      <use xlink:href="#DejaVuSans-35" x="1133.984375"/>
      <use xlink:href="#DejaVuSans-3a" x="1197.607422"/>
      <use xlink:href="#DejaVuSans-33" x="1231.298828"/>
      <use xlink:href="#DejaVuSans-32" x="1294.921875"/>
      <use xlink:href="#DejaVuSans-3a" x="1358.544922"/>
      <use xlink:href="#DejaVuSans-32" x="1392.236328"/>
      <use xlink:href="#DejaVuSans-30" x="1455.859375"/>
      <use xlink:href="#DejaVuSans-2e" x="1519.482422"/>
      <use xlink:href="#DejaVuSans-30" x="1551.269531"/>
      <use xlink:href="#DejaVuSans-30" x="1614.892578"/>
      <use xlink:href="#DejaVuSans-30" x="1678.515625"/>
      <use xlink:href="#DejaVuSans-35" x="1742.138672"/>
      <use xlink:href="#DejaVuSans-34" x="1805.761719"/>
      <use xlink:href="#DejaVuSans-39" x="1869.384766"/>
      <use xlink:href="#DejaVuSans-20" x="1933.007812"/>
      <use xlink:href="#DejaVuSans-2d" x="1964.794922"/>
      <use xlink:href="#DejaVuSans-20" x="2000.878906"/>
      <use xlink:href="#DejaVuSans-4c" x="2032.666016"/>
      <use xlink:href="#DejaVuSans-61" x="2088.378906"/>
      <use xlink:href="#DejaVuSans-73" x="2149.658203"/>
      <use xlink:href="#DejaVuSans-74" x="2201.757812"/>
      <use xlink:href="#DejaVuSans-20" x="2240.966797"/>
      <use xlink:href="#DejaVuSans-72" x="2272.753906"/>
      <use xlink:href="#DejaVuSans-65" x="2311.617188"/>
      <use xlink:href="#DejaVuSans-63" x="2373.140625"/>
      <use xlink:href="#DejaVuSans-6f" x="2428.121094"/>
      <use xlink:href="#DejaVuSans-72" x="2489.302734"/>
      <use xlink:href="#DejaVuSans-64" x="2528.666016"/>
      <use xlink:href="#DejaVuSans-20" x="2592.142578"/>
      <use xlink:href="#DejaVuSans-32" x="2623.929688"/>
      <use xlink:href="#DejaVuSans-30" x="2687.552734"/>
      <use xlink:href="#DejaVuSans-32" x="2751.175781"/>
      <use xlink:href="#DejaVuSans-34" x="2814.798828"/>
      <use xlink:href="#DejaVuSans-2d" x="2878.421875"/>
      <use xlink:href="#DejaVuSans-30" x="2914.505859"/>
      <use xlink:href="#DejaVuSans-35" x="2978.128906"/>
      <use xlink:href="#DejaVuSans-2d" x="3041.751953"/>
      <use xlink:href="#DejaVuSans-31" x="3077.835938"/>
      <use xlink:href="#DejaVuSans-39" x="3141.458984"/>
     </g>
    </g>
   </g>
   <g id="matplotlib.axis_2">
    <g id="ytick_1">
     <g id="line2d_10">
      <defs>
       <path id="m3eec715bd6" d="M 0 0 
L -3.5 0 
" style="stroke: #000000; stroke-width: 0.8"/>
      </defs>
      <g>
       <use xlink:href="#m3eec715bd6" x="57.6" y="295.488" style="stroke: #000000; stroke-width: 0.8"/>
      </g>
     </g>
     <g id="text_11">
      <!-- 0 -->
      <g transform="translate(44.2375 299.287219) scale(0.1 -0.1)">
       <use xlink:href="#DejaVuSans-30"/>
      </g>
     </g>
    </g>
    <g id="ytick_2">
     <g id="line2d_11">
      <g>
       <use xlink:href="#m3eec715bd6" x="57.6" y="243.259283" style="stroke: #000000; stroke-width: 0.8"/>
      </g>
     </g>
     <g id="text_12">
      <!-- 10 -->
      <g transform="translate(37.875 247.058502) scale(0.1 -0.1)">
       <use xlink:href="#DejaVuSans-31"/>
       <use xlink:href="#DejaVuSans-30" x="63.623047"/>
      </g>
     </g>
    </g>
    <g id="ytick_3">
     <g id="line2d_12">
      <g>
       <use xlink:href="#m3eec715bd6" x="57.6" y="191.030567" style="stroke: #000000; stroke-width: 0.8"/>
      </g>
     </g>
     <g id="text_13">
      <!-- 20 -->
      <g transform="translate(37.875 194.829785) scale(0.1 -0.1)">
       <use xlink:href="#DejaVuSans-32"/>
       <use xlink:href="#DejaVuSans-30" x="63.623047"/>
      </g>
     </g>
    </g>
    <g id="ytick_4">
     <g id="line2d_13">
      <g>
       <use xlink:href="#m3eec715bd6" x="57.6" y="138.80185" style="stroke: #000000; stroke-width: 0.8"/>
      </g>
     </g>
     <g id="text_14">
      <!-- 30 -->
      <g transform="translate(37.875 142.601069) scale(0.1 -0.1)">
       <use xlink:href="#DejaVuSans-33"/>
       <use xlink:href="#DejaVuSans-30" x="63.623047"/>
      </g>
     </g>
    </g>
    <g id="ytick_5">
     <g id="line2d_14">
      <g>
       <use xlink:href="#m3eec715bd6" x="57.6" y="86.573133" style="stroke: #000000; stroke-width: 0.8"/>
      </g>
     </g>
     <g id="text_15">
      <!-- 40 -->
      <g transform="translate(37.875 90.372352) scale(0.1 -0.1)">
       <use xlink:href="#DejaVuSans-34"/>
       <use xlink:href="#DejaVuSans-30" x="63.623047"/>
      </g>
     </g>
    </g>
    <g id="text_16">
     <!-- IPv6 as % of total Google traffic -->
     <g transform="translate(31.795312 253.735813) rotate(-90) scale(0.1 -0.1)">
      <defs>
       <path id="DejaVuSans-49" d="M 628 4666 
L 1259 4666 
L 1259 0 
L 628 0 
L 628 4666 
z
" transform="scale(0.015625)"/>
       <path id="DejaVuSans-50" d="M 1259 4147 
L 1259 2394 
L 2053 2394 
Q 2494 2394 2734 2622 
Q 2975 2850 2975 3272 
Q 2975 3691 2734 3919 
Q 2494 4147 2053 4147 
L 1259 4147 
z
M 628 4666 
L 2053 4666 
Q 2838 4666 3239 4311 
Q 3641 3956 3641 3272 
Q 3641 2581 3239 2228 
Q 2838 1875 2053 1875 
L 1259 1875 
L 1259 0 
L 628 0 
L 628 4666 
z
" transform="scale(0.015625)"/>
       <path id="DejaVuSans-76" d="M 191 3500 
L 800 3500 
L 1894 563 
L 2988 3500 
L 3597 3500 
L 2284 0 
L 1503 0 
L 191 3500 
z
" transform="scale(0.015625)"/>
       <path id="DejaVuSans-25" d="M 4653 2053 
Q 4381 2053 4226 1822 
Q 4072 1591 4072 1178 
Q 4072 772 4226 539 
Q 4381 306 4653 306 
Q 4919 306 5073 539 
Q 5228 772 5228 1178 
Q 5228 1588 5073 1820 
Q 4919 2053 4653 2053 
z
M 4653 2450 
Q 5147 2450 5437 2106 
Q 5728 1763 5728 1178 
Q 5728 594 5436 251 
Q 5144 -91 4653 -91 
Q 4153 -91 3862 251 
Q 3572 594 3572 1178 
Q 3572 1766 3864 2108 
Q 4156 2450 4653 2450 
z
M 1428 4353 
Q 1159 4353 1004 4120 
Q 850 3888 850 3481 
Q 850 3069 1003 2837 
Q 1156 2606 1428 2606 
Q 1700 2606 1854 2837 
Q 2009 3069 2009 3481 
Q 2009 3884 1853 4118 
Q 1697 4353 1428 4353 
z
M 4250 4750 
L 4750 4750 
L 1831 -91 
L 1331 -91 
L 4250 4750 
z
M 1428 4750 
Q 1922 4750 2215 4408 
Q 2509 4066 2509 3481 
Q 2509 2891 2217 2550 
Q 1925 2209 1428 2209 
Q 931 2209 642 2551 
Q 353 2894 353 3481 
Q 353 4063 643 4406 
Q 934 4750 1428 4750 
z
" transform="scale(0.015625)"/>
       <path id="DejaVuSans-66" d="M 2375 4863 
L 2375 4384 
L 1825 4384 
Q 1516 4384 1395 4259 
Q 1275 4134 1275 3809 
L 1275 3500 
L 2222 3500 
L 2222 3053 
L 1275 3053 
L 1275 0 
L 697 0 
L 697 3053 
L 147 3053 
L 147 3500 
L 697 3500 
L 697 3744 
Q 697 4328 969 4595 
Q 1241 4863 1831 4863 
L 2375 4863 
z
" transform="scale(0.015625)"/>
       <path id="DejaVuSans-6c" d="M 603 4863 
L 1178 4863 
L 1178 0 
L 603 0 
L 603 4863 
z
" transform="scale(0.015625)"/>
       <path id="DejaVuSans-47" d="M 3809 666 
L 3809 1919 
L 2778 1919 
L 2778 2438 
L 4434 2438 
L 4434 434 
Q 4069 175 3628 42 
Q 3188 -91 2688 -91 
Q 1594 -91 976 548 
Q 359 1188 359 2328 
Q 359 3472 976 4111 
Q 1594 4750 2688 4750 
Q 3144 4750 3555 4637 
Q 3966 4525 4313 4306 
L 4313 3634 
Q 3963 3931 3569 4081 
Q 3175 4231 2741 4231 
Q 1884 4231 1454 3753 
Q 1025 3275 1025 2328 
Q 1025 1384 1454 906 
Q 1884 428 2741 428 
Q 3075 428 3337 486 
Q 3600 544 3809 666 
z
" transform="scale(0.015625)"/>
       <path id="DejaVuSans-67" d="M 2906 1791 
Q 2906 2416 2648 2759 
Q 2391 3103 1925 3103 
Q 1463 3103 1205 2759 
Q 947 2416 947 1791 
Q 947 1169 1205 825 
Q 1463 481 1925 481 
Q 2391 481 2648 825 
Q 2906 1169 2906 1791 
z
M 3481 434 
Q 3481 -459 3084 -895 
Q 2688 -1331 1869 -1331 
Q 1566 -1331 1297 -1286 
Q 1028 -1241 775 -1147 
L 775 -588 
Q 1028 -725 1275 -790 
Q 1522 -856 1778 -856 
Q 2344 -856 2625 -561 
Q 2906 -266 2906 331 
L 2906 616 
Q 2728 306 2450 153 
Q 2172 0 1784 0 
Q 1141 0 747 490 
Q 353 981 353 1791 
Q 353 2603 747 3093 
Q 1141 3584 1784 3584 
Q 2172 3584 2450 3431 
Q 2728 3278 2906 2969 
L 2906 3500 
L 3481 3500 
L 3481 434 
z
" transform="scale(0.015625)"/>
       <path id="DejaVuSans-69" d="M 603 3500 
L 1178 3500 
L 1178 0 
L 603 0 
L 603 3500 
z
M 603 4863 
L 1178 4863 
L 1178 4134 
L 603 4134 
L 603 4863 
z
" transform="scale(0.015625)"/>
      </defs>
      <use xlink:href="#DejaVuSans-49"/>
      <use xlink:href="#DejaVuSans-50" x="29.492188"/>
      <use xlink:href="#DejaVuSans-76" x="89.794922"/>
      <use xlink:href="#DejaVuSans-36" x="148.974609"/>
      <use xlink:href="#DejaVuSans-20" x="212.597656"/>
      <use xlink:href="#DejaVuSans-61" x="244.384766"/>
      <use xlink:href="#DejaVuSans-73" x="305.664062"/>
      <use xlink:href="#DejaVuSans-20" x="357.763672"/>
      <use xlink:href="#DejaVuSans-25" x="389.550781"/>
      <use xlink:href="#DejaVuSans-20" x="484.570312"/>
      <use xlink:href="#DejaVuSans-6f" x="516.357422"/>
      <use xlink:href="#DejaVuSans-66" x="577.539062"/>
      <use xlink:href="#DejaVuSans-20" x="612.744141"/>
      <use xlink:href="#DejaVuSans-74" x="644.53125"/>
      <use xlink:href="#DejaVuSans-6f" x="683.740234"/>
      <use xlink:href="#DejaVuSans-74" x="744.921875"/>
      <use xlink:href="#DejaVuSans-61" x="784.130859"/>
      <use xlink:href="#DejaVuSans-6c" x="845.410156"/>
      <use xlink:href="#DejaVuSans-20" x="873.193359"/>
      <use xlink:href="#DejaVuSans-47" x="904.980469"/>
      <use xlink:href="#DejaVuSans-6f" x="982.470703"/>
      <use xlink:href="#DejaVuSans-6f" x="1043.652344"/>
      <use xlink:href="#DejaVuSans-67" x="1104.833984"/>
      <use xlink:href="#DejaVuSans-6c" x="1168.310547"/>
      <use xlink:href="#DejaVuSans-65" x="1196.09375"/>
      <use xlink:href="#DejaVuSans-20" x="1257.617188"/>
      <use xlink:href="#DejaVuSans-74" x="1289.404297"/>
      <use xlink:href="#DejaVuSans-72" x="1328.613281"/>
      <use xlink:href="#DejaVuSans-61" x="1369.726562"/>
      <use xlink:href="#DejaVuSans-66" x="1431.005859"/>
      <use xlink:href="#DejaVuSans-66" x="1466.210938"/>
      <use xlink:href="#DejaVuSans-69" x="1501.416016"/>
      <use xlink:href="#DejaVuSans-63" x="1529.199219"/>
     </g>
    </g>
   </g>
   <g id="line2d_15">
    <path d="M 73.832727 294.536429 
L 75.418342 294.375152 
L 75.814745 294.528726 
L 77.40036 294.528052 
L 78.985974 294.388063 
L 79.382378 294.264271 
L 80.571588 294.284807 
L 84.139221 294.210689 
L 85.328432 294.237833 
L 86.914046 294.164096 
L 90.085275 294.228029 
L 90.481678 294.328507 
L 92.8601 294.320448 
L 93.652907 294.256139 
L 95.238521 294.162393 
L 96.031329 294.170954 
L 96.427732 293.916683 
L 98.806154 293.829461 
L 99.995365 293.833112 
L 101.184575 293.925975 
L 102.373786 293.879726 
L 103.562997 293.926246 
L 105.545015 293.894251 
L 106.734226 294.079486 
L 107.923437 294.028291 
L 108.716244 294.110421 
L 109.509051 294.188946 
L 109.905455 294.110609 
L 112.283876 294.324637 
L 114.265894 294.239896 
L 115.058701 294.137261 
L 115.455105 294.052661 
L 116.247912 294.048493 
L 119.022737 293.98702 
L 119.815544 294.075605 
L 120.211948 293.950825 
L 122.59037 294.182272 
L 125.761598 294.015537 
L 126.158002 294.021115 
L 126.554406 293.902347 
L 127.347213 294.001691 
L 128.14002 293.817292 
L 128.536424 293.863133 
L 128.932827 293.749928 
L 129.329231 293.799493 
L 130.122038 293.694152 
L 131.311249 293.679158 
L 131.707652 293.809129 
L 133.293267 293.838487 
L 134.086074 293.852442 
L 134.482478 293.815532 
L 134.878881 293.644044 
L 136.464496 293.550132 
L 136.860899 293.643679 
L 140.428531 293.334662 
L 141.221339 293.143719 
L 142.014146 293.287959 
L 144.788971 292.896667 
L 145.185375 292.828827 
L 145.581778 292.933405 
L 147.9602 292.433226 
L 148.753007 292.449589 
L 149.942218 292.111152 
L 151.924236 291.641475 
L 153.113447 291.520733 
L 153.50985 291.619362 
L 155.491868 291.248391 
L 156.681079 290.88185 
L 157.077483 290.937307 
L 157.473886 290.608255 
L 157.87029 290.449527 
L 159.455904 290.25814 
L 159.852308 290.412481 
L 160.645115 290.226077 
L 161.041518 290.179839 
L 161.437922 289.939822 
L 162.230729 289.779668 
L 163.816344 289.762986 
L 164.609151 289.55839 
L 165.798362 289.407637 
L 166.194765 289.210531 
L 166.591169 289.19152 
L 166.987572 289.293439 
L 168.573187 288.55657 
L 168.96959 288.573451 
L 170.555205 288.110098 
L 170.951608 287.799578 
L 171.348012 287.728333 
L 171.744416 287.536167 
L 172.140819 287.567463 
L 173.33003 287.095582 
L 173.726434 287.179022 
L 174.122837 286.946756 
L 174.519241 286.905934 
L 176.501259 285.814745 
L 177.294066 285.482545 
L 178.086873 284.900738 
L 179.276084 283.462818 
L 179.672488 283.691847 
L 180.068891 283.731467 
L 181.258102 282.365383 
L 181.654505 282.201579 
L 182.050909 281.511078 
L 183.24012 281.100002 
L 183.636523 280.836074 
L 184.032927 280.883973 
L 185.222138 280.129942 
L 185.618541 279.969788 
L 186.014945 279.673609 
L 186.807752 279.60343 
L 187.204156 278.932479 
L 187.600559 278.923636 
L 187.996963 278.185974 
L 188.393367 277.803941 
L 189.186174 277.91359 
L 189.582577 277.640476 
L 189.978981 277.219769 
L 190.771788 276.73003 
L 191.168192 276.292218 
L 191.564595 276.560642 
L 193.15021 275.701642 
L 193.546613 275.384023 
L 193.943017 274.078812 
L 194.339421 274.326402 
L 195.132228 273.440102 
L 195.528631 273.402048 
L 195.925035 273.785203 
L 197.114246 272.91337 
L 197.510649 272.321911 
L 198.303457 272.367512 
L 198.69986 271.727538 
L 199.096264 271.683488 
L 199.492667 268.293045 
L 199.889071 270.523781 
L 200.285475 271.852667 
L 200.681878 271.206948 
L 201.078282 270.846105 
L 201.474685 270.787954 
L 201.871089 269.938699 
L 202.267493 269.672594 
L 203.456703 267.829312 
L 203.853107 266.625758 
L 204.24951 265.938804 
L 204.645914 265.006161 
L 205.042318 264.390395 
L 205.438721 265.373799 
L 205.835125 265.223302 
L 206.231528 265.250529 
L 206.627932 265.409393 
L 207.024336 265.706031 
L 207.420739 265.592857 
L 207.817143 263.424096 
L 208.213546 263.744885 
L 209.402757 262.602089 
L 209.799161 262.448276 
L 210.591968 262.515901 
L 210.988372 260.876505 
L 211.384775 260.816797 
L 212.177582 259.523024 
L 212.573986 259.964121 
L 212.97039 257.944797 
L 213.366793 258.422095 
L 213.763197 257.05893 
L 214.1596 256.406176 
L 214.556004 255.426041 
L 214.952408 256.106686 
L 215.348811 255.075644 
L 215.745215 253.36038 
L 216.141618 254.224713 
L 216.538022 254.471112 
L 216.934426 253.938682 
L 217.330829 252.370306 
L 217.727233 252.805972 
L 218.123636 251.421253 
L 218.52004 251.740235 
L 219.709251 248.926533 
L 220.898462 248.629497 
L 221.294865 247.537061 
L 221.691269 247.669998 
L 222.087672 247.260191 
L 222.484076 246.177464 
L 222.88048 245.902662 
L 223.276883 244.692021 
L 223.673287 243.862086 
L 224.06969 243.71582 
L 224.466094 243.920102 
L 224.862498 243.392023 
L 225.258901 241.142427 
L 226.051708 242.461965 
L 226.448112 242.208489 
L 227.240919 242.132532 
L 227.637323 242.177224 
L 228.43013 241.905802 
L 228.826533 240.640102 
L 229.222937 240.580185 
L 229.619341 239.457701 
L 230.015744 239.454547 
L 230.412148 239.28403 
L 231.601359 236.07363 
L 231.997762 234.182742 
L 232.394166 235.474029 
L 232.790569 234.932798 
L 233.186973 233.814085 
L 233.583377 234.063102 
L 233.97978 231.674672 
L 234.376184 232.025085 
L 234.772587 231.732223 
L 235.168991 230.065662 
L 235.565395 230.049889 
L 235.961798 228.80765 
L 236.358202 229.106758 
L 236.754605 228.124211 
L 237.151009 227.602253 
L 237.547413 227.879551 
L 237.943816 227.206766 
L 238.34022 226.157183 
L 238.736623 226.492706 
L 239.133027 225.994919 
L 239.529431 224.343202 
L 239.925834 223.652477 
L 240.322238 223.717089 
L 240.718641 221.785561 
L 241.115045 222.129049 
L 241.907852 219.828504 
L 242.304256 217.532843 
L 242.700659 217.759741 
L 243.493467 216.468876 
L 243.88987 215.022496 
L 244.286274 215.215857 
L 244.682677 214.609696 
L 245.079081 212.322747 
L 245.475485 211.520362 
L 245.871888 207.728704 
L 246.268292 210.193904 
L 246.664695 209.746952 
L 247.061099 210.334854 
L 247.457502 209.64449 
L 248.25031 210.765699 
L 248.646713 210.542181 
L 249.043117 209.559336 
L 249.43952 209.854919 
L 250.232328 208.603138 
L 250.628731 207.565896 
L 251.025135 207.401402 
L 251.421538 206.700242 
L 251.817942 204.178874 
L 252.214346 204.970072 
L 252.610749 201.588931 
L 253.007153 201.850659 
L 253.403556 200.012799 
L 253.79996 198.880005 
L 254.989171 196.796575 
L 255.385574 195.091553 
L 255.781978 192.280452 
L 256.178382 192.990319 
L 257.763996 189.788683 
L 258.1604 189.262139 
L 258.556803 189.282069 
L 258.953207 189.572163 
L 259.34961 188.576031 
L 259.746014 187.179947 
L 260.142418 188.430647 
L 260.538821 188.454787 
L 260.935225 189.569019 
L 261.331628 188.349625 
L 261.728032 186.45379 
L 262.124436 186.696716 
L 262.520839 185.878251 
L 263.71005 184.576643 
L 264.502857 183.62057 
L 264.899261 183.517006 
L 265.295664 197.379724 
L 265.692068 181.757128 
L 266.088472 181.007286 
L 266.484875 177.218865 
L 266.881279 180.733633 
L 267.674086 180.220058 
L 268.07049 180.217572 
L 268.466893 179.747216 
L 268.863297 179.515419 
L 269.2597 180.803082 
L 269.656104 181.619411 
L 270.052507 181.420963 
L 270.448911 180.315015 
L 270.845315 180.394429 
L 272.034525 179.464449 
L 272.430929 176.979877 
L 272.827333 177.960544 
L 273.223736 175.329178 
L 273.62014 176.438725 
L 274.016543 174.230046 
L 274.412947 172.850962 
L 274.809351 173.664106 
L 275.205754 171.972882 
L 275.602158 170.849934 
L 275.998561 170.611154 
L 276.394965 171.529205 
L 276.791369 172.013475 
L 277.980579 169.533242 
L 278.376983 170.103627 
L 278.773387 170.925618 
L 279.16979 171.08501 
L 279.566194 169.203852 
L 279.962597 168.503172 
L 280.359001 167.139506 
L 281.151808 166.61254 
L 281.548212 166.755244 
L 281.944615 166.575368 
L 282.737423 164.702154 
L 283.133826 165.795019 
L 283.53023 162.333059 
L 283.926633 162.422104 
L 284.323037 161.99994 
L 284.719441 159.474968 
L 285.115844 158.71737 
L 285.512248 158.262009 
L 285.908651 158.265325 
L 286.305055 156.896426 
L 286.701459 156.803109 
L 287.494266 154.63873 
L 287.890669 156.067342 
L 288.287073 156.987518 
L 289.07988 154.796179 
L 289.476284 155.870952 
L 289.872687 155.674436 
L 290.269091 156.14227 
L 290.665495 154.488223 
L 291.061898 153.911106 
L 291.458302 155.161623 
L 291.854705 153.366543 
L 292.251109 153.510172 
L 292.647512 152.998127 
L 293.44032 152.799626 
L 293.836723 149.253777 
L 294.233127 149.15049 
L 294.62953 149.430336 
L 295.025934 150.287994 
L 295.818741 146.150075 
L 296.215145 144.324666 
L 296.611548 143.861345 
L 297.007952 144.020486 
L 297.404356 143.687329 
L 297.800759 141.874074 
L 298.197163 143.369382 
L 298.593566 141.777309 
L 298.98997 143.254708 
L 299.386374 142.19562 
L 299.782777 141.554533 
L 300.179181 141.501072 
L 300.575584 141.573299 
L 300.971988 140.192706 
L 301.368392 140.34957 
L 301.764795 141.84377 
L 302.161199 141.337476 
L 302.557602 141.95038 
L 302.954006 142.200884 
L 303.35041 140.285976 
L 303.746813 141.432824 
L 304.143217 141.741 
L 304.53962 141.029316 
L 304.936024 140.594475 
L 305.332428 138.879164 
L 305.728831 139.241193 
L 306.125235 138.867862 
L 306.521638 138.99167 
L 306.918042 137.994185 
L 307.314446 137.557845 
L 307.710849 136.295284 
L 308.107253 135.743425 
L 308.503656 136.523607 
L 308.90006 136.755576 
L 309.296464 136.807763 
L 310.089271 135.012296 
L 310.485674 135.442723 
L 310.882078 134.133459 
L 311.278482 134.700115 
L 311.674885 134.455235 
L 312.071289 133.549647 
L 312.467692 133.770955 
L 312.864096 134.393052 
L 313.2605 134.10945 
L 313.656903 134.124272 
L 314.053307 131.771906 
L 314.846114 130.097104 
L 315.242517 130.373629 
L 315.638921 129.788124 
L 316.035325 127.839424 
L 316.431728 128.469798 
L 316.828132 125.673426 
L 317.224535 127.911342 
L 317.620939 126.058722 
L 318.017343 123.526214 
L 318.413746 124.267047 
L 318.81015 122.68575 
L 319.206553 121.618722 
L 319.602957 121.720798 
L 319.999361 120.920278 
L 320.395764 122.927114 
L 320.792168 121.255236 
L 321.188571 121.882127 
L 321.584975 122.249932 
L 322.774186 119.684813 
L 323.170589 121.820471 
L 323.566993 121.863262 
L 323.963397 120.91916 
L 324.3598 121.454134 
L 324.756204 122.751187 
L 325.152607 121.742426 
L 325.549011 119.395288 
L 325.945415 123.291812 
L 326.341818 122.242187 
L 326.738222 120.722927 
L 327.134625 121.997396 
L 327.531029 122.089481 
L 327.927433 120.008239 
L 328.323836 118.971766 
L 328.72024 117.071669 
L 329.116643 117.998264 
L 329.513047 117.296263 
L 329.909451 117.512783 
L 330.305854 118.1076 
L 330.702258 116.58871 
L 331.098661 115.965961 
L 331.495065 117.091981 
L 331.891469 116.81133 
L 332.287872 114.374725 
L 332.684276 113.838748 
L 333.080679 112.180455 
L 333.477083 114.903598 
L 333.873487 115.806732 
L 334.26989 114.91889 
L 334.666294 114.7491 
L 335.062697 114.888342 
L 335.459101 110.08541 
L 335.855504 113.296196 
L 336.251908 111.44602 
L 337.044715 112.381964 
L 337.441119 107.833078 
L 337.837522 107.25172 
L 338.233926 105.421882 
L 338.63033 105.349054 
L 339.026733 107.004192 
L 339.423137 104.721703 
L 339.81954 104.273038 
L 340.215944 103.094319 
L 340.612348 102.668044 
L 341.008751 101.328811 
L 341.405155 101.52904 
L 341.801558 104.77598 
L 342.197962 103.025043 
L 342.594366 101.916389 
L 342.990769 104.024899 
L 343.387173 102.858893 
L 343.783576 102.448443 
L 344.17998 100.765007 
L 344.972787 103.444299 
L 345.369191 103.150047 
L 345.765594 103.570118 
L 346.161998 103.437023 
L 346.558402 101.927561 
L 346.954805 103.672846 
L 347.351209 101.575999 
L 347.747612 100.834466 
L 348.144016 100.756776 
L 348.936823 98.146301 
L 349.333227 95.233407 
L 349.72963 97.219988 
L 350.126034 100.930447 
L 350.522438 96.750943 
L 350.918841 96.554605 
L 351.315245 99.359282 
L 352.108052 95.626323 
L 352.504456 95.576424 
L 352.900859 96.364477 
L 353.297263 96.33232 
L 353.693666 96.935796 
L 354.09007 89.841272 
L 354.486474 89.083903 
L 354.882877 89.295393 
L 355.279281 87.845456 
L 355.675684 87.369887 
L 356.072088 84.848123 
L 356.468492 88.052381 
L 356.864895 89.301765 
L 357.261299 86.560588 
L 357.657702 88.366871 
L 358.054106 85.29517 
L 358.450509 83.731175 
L 358.846913 79.936942 
L 359.243317 80.957904 
L 359.63972 75.336187 
L 360.432527 79.276855 
L 360.828931 81.076369 
L 361.225335 79.43738 
L 361.621738 79.757098 
L 362.018142 80.444699 
L 362.414545 80.304705 
L 362.810949 82.302934 
L 363.207353 81.371456 
L 363.603756 79.911183 
L 364.00016 80.248001 
L 364.396563 78.75147 
L 364.792967 79.131695 
L 365.189371 77.301434 
L 365.585774 78.593458 
L 365.982178 82.079615 
L 366.378581 79.733621 
L 366.774985 76.176986 
L 367.171389 79.124498 
L 367.567792 77.412263 
L 367.964196 79.190651 
L 368.360599 77.584775 
L 368.757003 77.56194 
L 369.946214 71.379486 
L 370.342617 74.149488 
L 370.739021 73.93768 
L 371.135425 72.551143 
L 371.531828 72.959802 
L 371.928232 75.322671 
L 372.721039 73.28127 
L 373.117443 74.777434 
L 373.513846 73.93569 
L 373.91025 72.304645 
L 374.306653 72.336363 
L 375.099461 69.629976 
L 375.495864 70.810742 
L 375.892268 70.791589 
L 376.288671 68.221299 
L 376.685075 69.54536 
L 377.477882 69.323289 
L 377.874286 67.895711 
L 378.270689 69.52592 
L 378.667093 69.573898 
L 379.063497 66.704697 
L 379.4599 66.669558 
L 379.856304 65.311883 
L 380.252707 61.731646 
L 380.649111 63.270341 
L 381.441918 62.425996 
L 381.838322 62.274287 
L 382.234725 62.657353 
L 382.631129 61.330075 
L 383.027532 62.887332 
L 383.82034 58.998355 
L 384.216743 60.549559 
L 384.613147 62.654371 
L 385.00955 63.476947 
L 385.405954 59.590337 
L 385.802358 61.903573 
L 386.198761 60.703884 
L 386.595165 64.893886 
L 386.991568 62.141777 
L 387.387972 61.117081 
L 387.784376 63.446404 
L 388.180779 63.660212 
L 388.577183 64.899495 
L 388.973586 62.671183 
L 389.36999 65.045877 
L 389.766394 62.160987 
L 390.162797 61.808882 
L 390.559201 59.079884 
L 390.955604 62.508982 
L 391.352008 62.493799 
L 391.748412 61.671609 
L 392.144815 61.759359 
L 392.541219 60.271514 
L 392.937622 61.424343 
L 393.334026 58.622559 
L 393.73043 59.318204 
L 394.126833 59.319614 
L 394.523237 69.024284 
L 395.316044 69.024284 
L 395.712448 56.955032 
L 396.108851 56.899999 
L 396.505255 58.514425 
L 396.901658 58.070319 
L 397.298062 56.390027 
L 397.694466 56.806295 
L 398.090869 56.061096 
L 398.487273 53.568 
L 398.487273 53.568 
" clip-path="url(#p347bf4b9ec)" style="fill: none; stroke: #1f77b4; stroke-width: 1.5; stroke-linecap: square"/>
   </g>
   <g id="line2d_16">
    <path d="M 73.832727 294.78602 
L 75.418342 294.653328 
L 75.814745 294.764382 
L 84.535624 294.520917 
L 85.328432 294.512482 
L 87.31045 294.449155 
L 89.292468 294.513992 
L 90.878082 294.511067 
L 96.427732 294.432228 
L 96.824136 294.245254 
L 112.283876 294.432646 
L 114.265894 294.433748 
L 115.455105 294.269593 
L 117.040719 294.24492 
L 119.022737 294.188163 
L 123.77958 294.360387 
L 129.329231 293.929338 
L 130.122038 293.874801 
L 130.914845 293.814493 
L 131.707652 293.908322 
L 132.50046 293.920653 
L 133.68967 293.971962 
L 134.482478 294.003305 
L 135.275285 293.712605 
L 136.068092 293.74976 
L 136.860899 293.792515 
L 142.014146 293.442833 
L 142.410549 293.546862 
L 147.9602 292.896181 
L 149.545814 292.642976 
L 150.338621 292.6501 
L 151.527832 292.254693 
L 153.113447 291.97728 
L 153.50985 292.097207 
L 155.095465 291.973545 
L 160.645115 290.955629 
L 161.041518 291.000331 
L 161.834326 290.744907 
L 162.627133 290.643337 
L 163.023536 290.409854 
L 164.212747 290.675599 
L 165.005554 290.492214 
L 165.401958 290.438308 
L 165.798362 290.211432 
L 166.194765 290.228422 
L 166.591169 290.06036 
L 167.78038 289.974486 
L 168.176783 289.73484 
L 169.365994 289.492514 
L 169.762398 289.495131 
L 170.158801 289.34162 
L 170.555205 289.326019 
L 172.140819 288.850007 
L 172.933626 288.621235 
L 173.33003 288.378904 
L 173.726434 288.516396 
L 174.915644 288.032648 
L 175.708452 287.629437 
L 176.104855 287.323905 
L 176.897662 287.111658 
L 177.294066 287.209179 
L 178.086873 287.060066 
L 179.276084 285.919067 
L 179.672488 285.644981 
L 180.068891 285.720332 
L 180.465295 285.573282 
L 181.654505 284.716548 
L 182.050909 284.571582 
L 182.843716 283.879468 
L 183.24012 283.784636 
L 183.636523 282.478433 
L 184.032927 282.600387 
L 184.429331 283.470543 
L 184.825734 283.376051 
L 185.618541 282.708354 
L 186.014945 283.311721 
L 186.411349 282.530473 
L 186.807752 282.482423 
L 187.204156 282.239591 
L 187.600559 281.671624 
L 187.996963 281.700486 
L 188.78977 280.830575 
L 189.186174 280.856809 
L 189.582577 280.662445 
L 189.978981 279.956825 
L 190.375385 280.195087 
L 190.771788 279.661007 
L 191.168192 279.821213 
L 191.564595 279.628411 
L 191.960999 279.707093 
L 192.357403 279.105319 
L 192.753806 279.128514 
L 193.15021 278.514581 
L 193.546613 278.621243 
L 194.339421 277.325453 
L 194.735824 277.069026 
L 195.132228 276.987476 
L 195.528631 276.69007 
L 195.925035 276.660592 
L 196.321439 276.774435 
L 196.717842 276.752844 
L 197.907053 276.327681 
L 198.303457 276.466108 
L 199.096264 276.108388 
L 199.492667 275.491661 
L 199.889071 274.107365 
L 200.285475 275.140674 
L 200.681878 275.480845 
L 201.078282 275.123731 
L 201.474685 275.33088 
L 201.871089 274.814088 
L 202.663896 274.145868 
L 203.0603 273.48342 
L 203.456703 273.067967 
L 203.853107 272.197627 
L 204.24951 269.62177 
L 204.645914 267.971891 
L 205.042318 270.416033 
L 205.438721 271.060572 
L 205.835125 271.078298 
L 206.231528 271.335911 
L 206.627932 271.317359 
L 207.024336 271.662132 
L 207.420739 270.950636 
L 207.817143 271.075744 
L 208.213546 269.746894 
L 208.60995 269.340821 
L 209.006354 269.571688 
L 209.799161 268.246556 
L 210.195564 268.605221 
L 210.591968 268.570641 
L 210.988372 268.143598 
L 211.384775 267.523779 
L 211.781179 267.201287 
L 212.177582 267.246998 
L 212.97039 265.325718 
L 213.366793 264.760613 
L 213.763197 264.456929 
L 214.1596 263.35001 
L 214.556004 262.966625 
L 215.745215 260.734584 
L 216.141618 261.113529 
L 216.934426 260.740825 
L 217.727233 260.025239 
L 218.123636 260.336329 
L 218.916444 259.941841 
L 219.709251 258.954791 
L 220.898462 258.450256 
L 221.294865 258.453562 
L 221.691269 257.418703 
L 222.087672 257.314464 
L 222.484076 257.342825 
L 222.88048 256.812823 
L 224.06969 254.188675 
L 224.466094 253.693693 
L 224.862498 251.305081 
L 225.258901 247.935075 
L 225.655305 252.93528 
L 226.051708 254.024854 
L 226.448112 253.720633 
L 226.844515 253.184165 
L 227.240919 253.257171 
L 227.637323 253.533461 
L 228.43013 252.40473 
L 229.222937 251.889703 
L 229.619341 251.473142 
L 230.015744 250.283664 
L 230.412148 250.007735 
L 230.808551 249.940302 
L 231.601359 248.887768 
L 231.997762 247.636645 
L 232.394166 246.856917 
L 232.790569 247.348322 
L 233.583377 245.811507 
L 233.97978 244.397739 
L 234.376184 243.986526 
L 234.772587 243.785414 
L 235.565395 241.518239 
L 235.961798 239.75259 
L 236.358202 240.52581 
L 236.754605 240.38006 
L 237.151009 239.491624 
L 237.547413 238.891991 
L 237.943816 238.73847 
L 238.34022 238.847027 
L 238.736623 240.072318 
L 239.133027 239.444064 
L 239.529431 239.725222 
L 239.925834 239.05823 
L 240.322238 239.130734 
L 240.718641 238.380541 
L 241.511449 236.282315 
L 241.907852 236.493069 
L 242.700659 233.525407 
L 243.097063 234.228609 
L 243.493467 233.682098 
L 243.88987 232.388738 
L 244.286274 232.29271 
L 244.682677 231.424669 
L 245.079081 230.930434 
L 245.475485 227.483051 
L 245.871888 219.528607 
L 246.268292 225.254885 
L 246.664695 228.308171 
L 247.061099 228.630709 
L 247.853906 228.294586 
L 248.25031 228.387887 
L 248.646713 228.345149 
L 249.043117 227.394779 
L 249.43952 227.157588 
L 249.835924 227.453631 
L 250.628731 226.341765 
L 251.421538 224.345421 
L 251.817942 222.158845 
L 252.214346 222.894424 
L 252.610749 222.785491 
L 253.007153 218.819889 
L 253.403556 219.689618 
L 254.196364 217.043721 
L 254.592767 214.497911 
L 254.989171 214.406161 
L 255.385574 214.057518 
L 256.178382 209.622992 
L 256.574785 209.328783 
L 256.971189 208.674012 
L 257.367592 208.354247 
L 258.1604 205.823457 
L 258.556803 205.606515 
L 258.953207 205.531572 
L 259.34961 206.641145 
L 259.746014 206.768938 
L 260.538821 208.366912 
L 261.331628 208.890213 
L 261.728032 206.645715 
L 262.124436 206.079634 
L 262.520839 206.569163 
L 262.917243 205.569887 
L 263.313646 203.731238 
L 263.71005 205.331578 
L 264.106454 205.965969 
L 264.502857 204.072542 
L 264.899261 203.839649 
L 265.295664 202.773342 
L 265.692068 197.379724 
L 266.088472 199.53946 
L 266.484875 190.619553 
L 267.277682 201.211009 
L 267.674086 199.836689 
L 268.07049 201.280614 
L 268.466893 200.744617 
L 268.863297 200.655577 
L 269.2597 199.257169 
L 269.656104 201.617792 
L 270.052507 202.271518 
L 270.448911 201.659466 
L 270.845315 200.318801 
L 271.241718 199.861748 
L 271.638122 198.815246 
L 272.034525 198.742361 
L 272.430929 200.594757 
L 272.827333 199.535977 
L 273.223736 198.030353 
L 273.62014 195.914322 
L 274.016543 195.713132 
L 274.412947 194.838087 
L 274.809351 194.944978 
L 275.205754 192.69239 
L 275.602158 192.640428 
L 275.998561 191.090107 
L 276.394965 190.843306 
L 276.791369 190.370213 
L 277.187772 188.888949 
L 277.980579 188.901191 
L 278.773387 188.301836 
L 279.16979 189.192743 
L 279.566194 187.682408 
L 279.962597 186.878347 
L 280.359001 189.757424 
L 280.755405 189.900525 
L 281.151808 189.764302 
L 281.548212 189.851247 
L 281.944615 189.77867 
L 282.341019 188.337095 
L 282.737423 188.680865 
L 283.133826 189.263058 
L 283.53023 188.620499 
L 283.926633 185.671054 
L 284.323037 186.479398 
L 284.719441 186.076302 
L 285.115844 182.940908 
L 285.512248 184.474933 
L 286.701459 180.384213 
L 287.097862 167.594721 
L 287.494266 172.500424 
L 287.890669 179.878649 
L 288.287073 181.232804 
L 289.07988 179.924658 
L 289.476284 178.641748 
L 289.872687 179.600881 
L 290.269091 179.328723 
L 290.665495 180.33811 
L 291.061898 178.059377 
L 291.458302 180.072099 
L 292.251109 177.98211 
L 292.647512 177.952757 
L 293.043916 178.577167 
L 293.44032 175.965094 
L 293.836723 175.523422 
L 294.233127 173.336465 
L 294.62953 175.344894 
L 295.025934 176.622257 
L 295.422338 174.169157 
L 296.215145 167.328005 
L 296.611548 168.823136 
L 297.007952 167.591478 
L 297.404356 166.918824 
L 297.800759 165.321226 
L 298.197163 165.985508 
L 298.593566 166.171212 
L 298.98997 166.004289 
L 299.386374 165.473102 
L 299.782777 164.625926 
L 300.179181 162.261423 
L 300.575584 165.248942 
L 300.971988 166.094723 
L 301.368392 166.253838 
L 301.764795 167.598148 
L 302.161199 168.344183 
L 302.954006 168.067198 
L 303.35041 168.585516 
L 303.746813 168.28648 
L 304.143217 168.964487 
L 304.936024 166.228852 
L 305.332428 167.950676 
L 305.728831 167.36573 
L 306.125235 165.909828 
L 306.521638 166.070661 
L 306.918042 165.36948 
L 307.314446 163.186294 
L 307.710849 151.116614 
L 308.107253 150.795287 
L 308.503656 162.609297 
L 308.90006 164.265804 
L 309.296464 164.604946 
L 309.692867 163.464798 
L 310.089271 161.924913 
L 310.882078 160.199412 
L 311.278482 160.150547 
L 311.674885 160.723026 
L 312.071289 160.312921 
L 312.467692 151.10071 
L 312.864096 147.080086 
L 313.2605 145.51441 
L 313.656903 146.681753 
L 314.846114 142.591205 
L 315.242517 142.878322 
L 315.638921 145.044754 
L 316.035325 143.059504 
L 316.431728 142.301832 
L 316.828132 144.074417 
L 317.224535 145.048958 
L 318.017343 141.984506 
L 318.413746 139.066994 
L 318.81015 138.846307 
L 319.206553 137.262868 
L 319.602957 138.630566 
L 319.999361 138.442537 
L 320.395764 139.523343 
L 320.792168 138.48771 
L 321.188571 138.496343 
L 321.584975 139.408868 
L 321.981379 141.022526 
L 322.377782 140.251453 
L 322.774186 142.102971 
L 323.566993 142.233647 
L 323.963397 142.948256 
L 324.3598 141.646153 
L 324.756204 141.82994 
L 325.152607 140.800251 
L 325.549011 138.936569 
L 325.945415 141.061927 
L 326.341818 141.489644 
L 326.738222 141.281737 
L 327.134625 143.67023 
L 327.531029 141.669494 
L 328.323836 133.580869 
L 328.72024 127.147001 
L 329.513047 136.772717 
L 329.909451 136.060307 
L 330.305854 136.948963 
L 330.702258 135.84805 
L 331.495065 134.9054 
L 331.891469 135.045284 
L 332.287872 136.647802 
L 332.684276 136.251297 
L 333.080679 136.051016 
L 333.477083 134.167925 
L 333.873487 137.253321 
L 334.666294 134.347999 
L 335.062697 136.538503 
L 335.459101 135.26607 
L 335.855504 131.954999 
L 336.251908 132.280306 
L 336.648312 130.311106 
L 337.044715 129.157227 
L 337.441119 130.968874 
L 337.837522 131.335154 
L 338.63033 124.090478 
L 339.026733 123.967139 
L 339.423137 123.608736 
L 339.81954 122.874974 
L 340.215944 120.21109 
L 340.612348 121.616487 
L 341.008751 120.2869 
L 341.405155 120.388746 
L 341.801558 121.593449 
L 342.197962 124.5407 
L 342.594366 125.224091 
L 342.990769 125.27316 
L 343.387173 126.751635 
L 343.783576 124.604126 
L 344.576384 125.751931 
L 344.972787 126.019629 
L 345.369191 125.800221 
L 345.765594 125.367052 
L 346.161998 127.696014 
L 346.558402 126.624443 
L 346.954805 127.136864 
L 347.351209 125.614167 
L 347.747612 126.669422 
L 348.54042 124.072271 
L 348.936823 118.895621 
L 349.333227 106.774104 
L 350.126034 118.891004 
L 350.522438 119.223722 
L 350.918841 120.922362 
L 351.315245 119.314783 
L 351.711648 122.024148 
L 352.108052 121.066942 
L 352.504456 117.701177 
L 352.900859 119.544286 
L 353.297263 119.537972 
L 353.693666 121.797057 
L 354.09007 117.964739 
L 354.486474 111.478715 
L 354.882877 111.632205 
L 355.279281 121.846836 
L 355.675684 110.379771 
L 356.468492 106.981426 
L 356.864895 110.602855 
L 357.261299 110.428088 
L 357.657702 109.109537 
L 358.054106 106.076887 
L 358.450509 106.70641 
L 359.243317 99.239741 
L 359.63972 99.993814 
L 360.036124 99.774417 
L 360.432527 97.371958 
L 360.828931 97.282522 
L 361.225335 98.175158 
L 361.621738 96.944707 
L 362.018142 97.769027 
L 362.414545 97.869009 
L 362.810949 101.143091 
L 363.207353 101.959499 
L 364.00016 104.90688 
L 364.396563 102.882438 
L 364.792967 103.997996 
L 365.189371 104.127174 
L 365.585774 101.32938 
L 365.982178 104.47145 
L 366.378581 105.344113 
L 366.774985 102.30541 
L 367.171389 101.483455 
L 367.567792 103.731567 
L 367.964196 100.275097 
L 368.360599 103.640569 
L 368.757003 103.937562 
L 369.153407 99.649992 
L 369.946214 85.708743 
L 370.342617 92.843598 
L 370.739021 97.704911 
L 371.135425 97.631655 
L 371.531828 98.205821 
L 371.928232 97.084868 
L 372.324635 97.215993 
L 372.721039 97.925515 
L 373.513846 95.648891 
L 373.91025 98.629798 
L 374.703057 91.487333 
L 375.099461 95.138554 
L 375.495864 90.924052 
L 375.892268 93.556389 
L 376.288671 94.202897 
L 376.685075 92.932867 
L 377.081479 89.807611 
L 377.477882 94.541266 
L 377.874286 94.384554 
L 378.270689 91.01225 
L 378.667093 91.583894 
L 379.063497 91.014141 
L 379.4599 86.445209 
L 380.252707 81.943245 
L 380.649111 82.295633 
L 381.045514 82.123455 
L 381.441918 81.009939 
L 381.838322 82.383168 
L 382.234725 80.923438 
L 382.631129 81.907479 
L 383.027532 80.536491 
L 383.82034 85.865455 
L 384.216743 87.392137 
L 384.613147 86.344805 
L 385.00955 87.979276 
L 385.405954 87.524558 
L 385.802358 86.85919 
L 386.198761 86.561502 
L 386.595165 88.71308 
L 386.991568 89.38952 
L 387.387972 86.66714 
L 387.784376 87.598613 
L 388.180779 90.054397 
L 388.577183 87.525936 
L 388.973586 89.209529 
L 389.36999 89.743406 
L 389.766394 88.254715 
L 390.162797 83.406449 
L 390.559201 71.395432 
L 390.955604 77.040896 
L 391.352008 84.420412 
L 391.748412 84.421347 
L 392.144815 86.962065 
L 392.541219 85.944346 
L 393.334026 82.676542 
L 393.73043 81.953268 
L 394.126833 84.401604 
L 394.523237 69.024284 
L 395.316044 69.024284 
L 395.712448 80.602043 
L 396.108851 79.324701 
L 396.505255 79.794029 
L 396.901658 84.514455 
L 397.298062 83.79866 
L 397.694466 80.114969 
L 398.090869 81.099308 
L 398.487273 79.784586 
L 398.487273 79.784586 
" clip-path="url(#p347bf4b9ec)" style="fill: none; stroke: #ff7f0e; stroke-width: 1.5; stroke-linecap: square"/>
   </g>
   <g id="line2d_17">
    <path d="M 73.832727 295.238409 
L 79.778781 295.209281 
L 80.175185 295.275022 
L 80.967992 295.166861 
L 81.364396 295.249738 
L 81.760799 295.152921 
L 82.157203 295.249174 
L 83.346414 295.151125 
L 94.445714 295.213162 
L 94.842118 295.172633 
L 95.238521 295.265903 
L 96.427732 294.972456 
L 96.824136 295.159993 
L 111.491069 295.358682 
L 112.68028 295.362735 
L 117.040719 295.230021 
L 117.833526 295.255969 
L 118.22993 295.319938 
L 119.022737 295.286857 
L 119.815544 295.287531 
L 120.608352 295.297151 
L 121.004755 295.390071 
L 124.175984 295.298075 
L 140.428531 295.220213 
L 140.824935 295.0806 
L 142.014146 295.333126 
L 142.806953 295.079535 
L 143.203357 295.163738 
L 143.59976 295.049378 
L 145.581778 295.252558 
L 146.374585 295.172951 
L 146.770989 294.857453 
L 147.167393 295.062216 
L 147.563796 294.966622 
L 148.753007 295.149913 
L 149.149411 295.009778 
L 149.545814 295.0561 
L 150.338621 294.833292 
L 150.735025 294.885615 
L 151.527832 294.804556 
L 151.924236 294.944816 
L 152.717043 294.791488 
L 153.113447 295.031453 
L 157.077483 294.776525 
L 157.473886 294.565813 
L 157.87029 294.512315 
L 158.663097 294.689731 
L 159.455904 294.646569 
L 159.852308 294.903315 
L 161.437922 294.588627 
L 162.627133 294.623954 
L 163.023536 294.891115 
L 164.212747 294.443264 
L 165.005554 294.523461 
L 165.401958 294.464756 
L 165.798362 294.684205 
L 166.194765 294.470109 
L 166.987572 294.741485 
L 168.176783 294.366676 
L 169.365994 294.463978 
L 169.762398 294.255282 
L 170.158801 294.389928 
L 170.951608 294.092851 
L 171.348012 294.240757 
L 171.744416 294.135851 
L 172.140819 294.205456 
L 172.933626 294.157949 
L 173.726434 294.150626 
L 174.122837 294.044372 
L 174.519241 294.160952 
L 175.708452 293.993157 
L 176.104855 294.188539 
L 176.897662 294.038152 
L 177.294066 293.761366 
L 177.69047 293.635113 
L 178.086873 293.328672 
L 178.87968 293.285285 
L 179.276084 293.031751 
L 179.672488 293.534865 
L 180.068891 293.499136 
L 180.465295 293.210499 
L 180.861698 293.158056 
L 181.258102 292.765552 
L 181.654505 292.973031 
L 182.050909 292.427496 
L 182.843716 292.904214 
L 183.24012 292.803366 
L 183.636523 293.845642 
L 184.032927 293.771587 
L 184.429331 292.613091 
L 184.825734 292.485862 
L 185.222138 292.53115 
L 185.618541 292.749434 
L 186.014945 291.849889 
L 186.411349 292.604416 
L 186.807752 292.609007 
L 187.204156 292.180888 
L 187.600559 292.740012 
L 187.996963 291.973488 
L 188.393367 292.08824 
L 188.78977 292.515423 
L 189.582577 292.466031 
L 189.978981 292.750944 
L 190.375385 292.275056 
L 190.771788 292.557024 
L 191.168192 291.959005 
L 191.564595 292.420231 
L 191.960999 292.148323 
L 192.357403 292.534184 
L 192.753806 292.342593 
L 193.15021 292.675061 
L 193.943017 291.697219 
L 194.339421 292.488949 
L 194.735824 292.360435 
L 195.132228 291.940626 
L 195.528631 292.199978 
L 195.925035 292.612611 
L 196.321439 292.187218 
L 197.114246 291.821868 
L 197.510649 291.298416 
L 197.907053 291.551621 
L 198.303457 291.389404 
L 198.69986 290.939558 
L 199.096264 291.0631 
L 199.492667 288.289384 
L 199.889071 291.904415 
L 200.285475 292.199993 
L 200.681878 291.214103 
L 201.078282 291.210374 
L 201.871089 290.612611 
L 202.267493 290.655799 
L 202.663896 290.376517 
L 203.0603 290.502638 
L 203.853107 289.916131 
L 204.24951 291.805035 
L 204.645914 292.522271 
L 205.042318 289.462363 
L 205.438721 289.801228 
L 206.231528 289.402618 
L 206.627932 289.580034 
L 207.024336 289.5319 
L 207.420739 290.130222 
L 207.817143 287.836352 
L 208.213546 289.485991 
L 208.60995 289.478287 
L 209.006354 288.807926 
L 209.402757 289.156062 
L 209.799161 289.689719 
L 210.195564 289.35334 
L 210.591968 289.433261 
L 210.988372 288.220907 
L 211.384775 288.781018 
L 211.781179 288.382257 
L 212.177582 287.764026 
L 212.573986 289.192648 
L 212.97039 288.10708 
L 213.366793 289.149481 
L 213.763197 288.090001 
L 214.1596 288.544166 
L 214.556004 287.947416 
L 214.952408 289.398461 
L 215.348811 289.084221 
L 215.745215 288.113796 
L 216.538022 288.992022 
L 216.934426 288.685857 
L 217.330829 287.533467 
L 217.727233 288.268733 
L 218.123636 286.572924 
L 218.52004 287.104393 
L 218.916444 286.2444 
L 219.709251 285.459742 
L 220.502058 285.608416 
L 220.898462 285.667241 
L 221.294865 284.571498 
L 221.691269 285.739296 
L 222.087672 285.433727 
L 222.484076 284.322639 
L 222.88048 284.577839 
L 223.276883 284.327757 
L 223.673287 284.438216 
L 224.466094 285.714409 
L 224.862498 287.574942 
L 225.258901 288.695352 
L 225.655305 284.338386 
L 226.051708 283.925111 
L 226.448112 283.975856 
L 226.844515 284.443768 
L 227.240919 284.363362 
L 227.637323 284.131764 
L 228.43013 284.989072 
L 228.826533 283.923356 
L 229.222937 284.178482 
L 229.619341 283.472559 
L 230.015744 284.658882 
L 230.412148 284.764295 
L 230.808551 283.697169 
L 231.601359 282.673862 
L 231.997762 282.034097 
L 232.394166 284.105112 
L 232.790569 283.072477 
L 233.186973 282.746872 
L 233.583377 283.739594 
L 233.97978 282.764933 
L 234.376184 283.526558 
L 234.772587 283.434808 
L 235.168991 282.9767 
L 235.565395 284.01965 
L 235.961798 284.54306 
L 236.358202 284.068948 
L 236.754605 283.23215 
L 237.151009 283.598629 
L 237.547413 284.475559 
L 237.943816 283.956296 
L 238.736623 281.908387 
L 239.133027 282.038855 
L 239.529431 280.10598 
L 240.322238 280.074355 
L 240.718641 278.89302 
L 241.115045 280.238306 
L 241.511449 280.039727 
L 241.907852 278.823436 
L 242.304256 278.179252 
L 242.700659 279.722334 
L 243.097063 278.363368 
L 243.88987 278.121758 
L 244.682677 278.673027 
L 245.079081 276.880313 
L 245.475485 279.525311 
L 245.871888 283.688097 
L 246.664695 276.926781 
L 247.061099 277.192145 
L 247.457502 276.639852 
L 247.853906 277.390321 
L 248.25031 277.865812 
L 248.646713 277.685032 
L 249.043117 277.652557 
L 249.43952 278.185331 
L 249.835924 277.308777 
L 250.232328 277.211746 
L 250.628731 276.712132 
L 251.025135 277.693645 
L 251.421538 277.842821 
L 251.817942 277.508029 
L 252.214346 277.563648 
L 252.610749 274.29144 
L 253.007153 278.51877 
L 253.403556 275.811181 
L 253.79996 275.859717 
L 254.196364 276.642234 
L 254.592767 278.717594 
L 254.989171 277.878414 
L 255.385574 276.522035 
L 255.781978 276.015782 
L 256.178382 278.855326 
L 256.574785 278.3279 
L 256.971189 278.33692 
L 257.367592 277.451173 
L 257.763996 278.367881 
L 258.1604 278.926681 
L 258.953207 279.528591 
L 259.746014 275.899009 
L 260.142418 276.208359 
L 260.538821 275.575875 
L 260.935225 276.478674 
L 261.331628 274.947412 
L 261.728032 275.296075 
L 262.124436 276.105082 
L 262.520839 274.797087 
L 262.917243 275.318967 
L 263.313646 276.681557 
L 263.71005 274.733065 
L 264.106454 273.681163 
L 264.502857 275.036028 
L 264.899261 275.165357 
L 265.295664 290.094382 
L 265.692068 279.865404 
L 266.088472 276.955825 
L 266.484875 282.087313 
L 266.881279 280.766835 
L 267.277682 274.722092 
L 267.674086 275.871369 
L 268.07049 274.424958 
L 268.466893 274.490599 
L 268.863297 274.347842 
L 269.2597 277.033913 
L 269.656104 275.489619 
L 270.052507 274.637445 
L 270.448911 274.143549 
L 270.845315 275.563627 
L 271.241718 275.723139 
L 271.638122 276.439503 
L 272.034525 276.210088 
L 272.430929 271.87312 
L 272.827333 273.912568 
L 273.223736 272.786825 
L 273.62014 276.012402 
L 274.016543 274.004913 
L 274.412947 273.500875 
L 275.205754 274.768492 
L 275.602158 273.697506 
L 276.394965 276.173899 
L 276.791369 277.131262 
L 277.187772 277.785766 
L 277.980579 276.120051 
L 278.773387 278.111783 
L 279.16979 277.380267 
L 279.566194 277.009443 
L 279.962597 277.112825 
L 280.359001 272.870083 
L 280.755405 272.390994 
L 281.944615 272.284698 
L 282.341019 272.797584 
L 282.737423 271.50929 
L 283.133826 272.019961 
L 283.53023 269.200561 
L 283.926633 272.23905 
L 284.323037 271.008541 
L 284.719441 268.886666 
L 285.115844 271.264462 
L 285.512248 269.275076 
L 285.908651 270.58599 
L 286.305055 270.627836 
L 286.701459 271.906896 
L 287.097862 283.451809 
L 287.890669 271.676693 
L 288.287073 271.242714 
L 288.683477 270.982725 
L 289.07988 270.359521 
L 289.476284 272.717204 
L 289.872687 271.561555 
L 290.269091 272.301547 
L 290.665495 269.638112 
L 291.061898 271.339729 
L 291.854705 269.958039 
L 292.251109 271.016062 
L 292.647512 270.53337 
L 293.043916 269.861406 
L 293.44032 272.322532 
L 293.836723 269.218355 
L 294.233127 271.302025 
L 294.62953 269.573443 
L 295.025934 269.153738 
L 295.422338 269.251238 
L 296.215145 272.484661 
L 296.611548 270.526209 
L 297.007952 271.917008 
L 297.404356 272.256505 
L 297.800759 272.040847 
L 298.197163 272.871874 
L 298.593566 271.094097 
L 298.98997 272.738419 
L 299.386374 272.210518 
L 299.782777 272.416607 
L 300.179181 274.727649 
L 300.971988 269.585983 
L 301.368392 269.583732 
L 301.764795 269.733623 
L 302.161199 268.481293 
L 302.557602 269.218804 
L 302.954006 269.621686 
L 303.35041 267.18846 
L 303.746813 268.634344 
L 304.143217 268.264513 
L 304.936024 269.853624 
L 305.332428 266.416488 
L 306.125235 268.446034 
L 306.521638 268.409009 
L 306.918042 268.112705 
L 307.314446 269.859552 
L 307.710849 280.666671 
L 308.107253 280.436138 
L 308.503656 269.40231 
L 308.90006 267.977772 
L 309.296464 267.690817 
L 309.692867 268.013632 
L 310.089271 268.575383 
L 310.485674 269.985626 
L 310.882078 269.422047 
L 311.278482 270.037568 
L 311.674885 269.220209 
L 312.071289 268.724726 
L 312.467692 278.158245 
L 312.864096 282.800966 
L 313.2605 284.08304 
L 314.053307 281.845389 
L 314.846114 282.993899 
L 315.242517 282.983307 
L 315.638921 280.23137 
L 316.035325 280.26792 
L 316.431728 281.655966 
L 316.828132 277.087008 
L 317.224535 278.350384 
L 317.620939 277.940175 
L 318.017343 277.029708 
L 318.413746 280.688053 
L 318.81015 279.327443 
L 319.206553 279.843854 
L 319.602957 278.578232 
L 319.999361 277.965741 
L 320.395764 278.891772 
L 320.792168 278.255527 
L 321.188571 278.873784 
L 321.584975 278.329065 
L 321.981379 275.916229 
L 322.377782 276.00484 
L 322.774186 273.069842 
L 323.170589 275.10251 
L 323.566993 275.117615 
L 323.963397 273.458904 
L 324.3598 275.295981 
L 324.756204 276.409247 
L 325.152607 276.430175 
L 325.549011 275.94672 
L 325.945415 277.717884 
L 326.738222 274.929189 
L 327.134625 273.815166 
L 327.927433 277.410335 
L 328.323836 280.878897 
L 328.72024 285.412668 
L 329.513047 276.011546 
L 329.909451 276.940475 
L 331.098661 276.145988 
L 331.495065 277.674581 
L 331.891469 277.254046 
L 332.287872 273.214923 
L 332.684276 273.075451 
L 333.080679 271.61744 
L 333.477083 276.223673 
L 333.873487 274.041411 
L 334.26989 274.790345 
L 334.666294 275.889101 
L 335.062697 273.837839 
L 335.459101 270.30734 
L 335.855504 276.829197 
L 336.251908 274.653714 
L 336.648312 277.070024 
L 337.044715 278.712737 
L 337.441119 272.352204 
L 337.837522 271.404566 
L 338.233926 273.143103 
L 338.63033 276.746576 
L 339.026733 278.525053 
L 339.423137 276.600968 
L 339.81954 276.886064 
L 340.215944 278.371229 
L 340.612348 276.539557 
L 341.405155 276.628294 
L 341.801558 278.670531 
L 342.197962 273.972344 
L 342.594366 272.180298 
L 342.990769 274.239739 
L 343.387173 271.595258 
L 343.783576 273.332317 
L 344.17998 271.095293 
L 344.972787 272.91267 
L 345.369191 272.837826 
L 345.765594 273.691066 
L 346.161998 271.229009 
L 346.558402 270.791119 
L 346.954805 272.023983 
L 347.351209 271.449832 
L 347.747612 269.653044 
L 348.144016 270.96339 
L 348.54042 270.946201 
L 348.936823 274.73868 
L 349.333227 283.947303 
L 349.72963 278.944611 
L 350.126034 277.527443 
L 350.522438 273.015221 
L 350.918841 271.120243 
L 351.315245 275.532499 
L 351.711648 270.95074 
L 352.108052 270.047382 
L 352.504456 273.363247 
L 352.900859 272.30819 
L 353.297263 272.282348 
L 353.693666 270.626739 
L 354.09007 267.364533 
L 354.486474 273.093188 
L 354.882877 273.151188 
L 355.279281 261.48662 
L 355.675684 272.478117 
L 356.072088 271.467376 
L 356.468492 276.558955 
L 357.261299 271.6205 
L 357.657702 274.745334 
L 358.054106 274.706282 
L 358.450509 272.512765 
L 358.846913 272.633372 
L 359.243317 277.206163 
L 359.63972 270.830374 
L 360.036124 273.327105 
L 360.432527 277.392896 
L 360.828931 279.281847 
L 361.225335 276.750222 
L 361.621738 278.300391 
L 362.414545 277.923697 
L 362.810949 276.647843 
L 363.207353 274.899957 
L 363.603756 272.074707 
L 364.00016 270.82912 
L 364.396563 271.357032 
L 364.792967 270.621699 
L 365.189371 268.66226 
L 365.585774 272.752077 
L 365.982178 273.096165 
L 366.378581 269.877508 
L 366.774985 269.359576 
L 367.171389 273.129043 
L 367.567792 269.168696 
L 367.964196 274.403554 
L 368.360599 269.432206 
L 368.757003 269.112378 
L 369.153407 271.148274 
L 369.54981 275.370935 
L 369.946214 281.158743 
L 370.739021 271.720769 
L 371.135425 270.407488 
L 371.531828 270.241981 
L 371.928232 273.725803 
L 372.721039 270.843755 
L 373.117443 273.578471 
L 373.513846 273.774799 
L 373.91025 269.162847 
L 374.306653 273.15452 
L 374.703057 275.145698 
L 375.099461 269.979422 
L 375.495864 275.37469 
L 376.288671 269.506402 
L 377.081479 275.06875 
L 377.477882 270.270022 
L 377.874286 268.999157 
L 378.270689 274.00167 
L 378.667093 273.478004 
L 379.063497 271.178556 
L 379.4599 275.712349 
L 379.856304 276.671252 
L 380.252707 275.276401 
L 380.649111 276.462708 
L 381.045514 276.234442 
L 381.441918 276.904056 
L 381.838322 275.379119 
L 382.234725 277.221915 
L 382.631129 274.910596 
L 383.027532 277.838841 
L 383.82034 268.6209 
L 384.216743 268.645422 
L 384.613147 271.797566 
L 385.00955 270.985671 
L 385.405954 267.553779 
L 385.802358 270.532383 
L 386.198761 269.630382 
L 386.595165 271.668806 
L 386.991568 268.240258 
L 387.784376 271.335791 
L 388.180779 269.093816 
L 388.577183 272.861559 
L 388.973586 268.949654 
L 389.36999 270.790471 
L 389.766394 269.394272 
L 390.162797 273.890433 
L 390.559201 283.172453 
L 390.955604 280.956086 
L 391.352008 273.561387 
L 391.748412 272.738263 
L 392.144815 270.285294 
L 392.541219 269.815168 
L 392.937622 272.804452 
L 393.334026 271.434018 
L 393.73043 272.852936 
L 394.126833 270.40601 
L 394.523237 295.488 
L 395.316044 295.488 
L 395.712448 271.840989 
L 396.505255 274.208397 
L 396.901658 269.043864 
L 397.298062 268.079367 
L 397.694466 272.179327 
L 398.090869 270.449788 
L 398.487273 269.271414 
L 398.487273 269.271414 
" clip-path="url(#p347bf4b9ec)" style="fill: none; stroke: #2ca02c; stroke-width: 1.5; stroke-linecap: square"/>
   </g>
   <g id="patch_3">
    <path d="M 57.6 307.584 
L 57.6 41.472 
" style="fill: none; stroke: #000000; stroke-width: 0.8; stroke-linejoin: miter; stroke-linecap: square"/>
   </g>
   <g id="patch_4">
    <path d="M 414.72 307.584 
L 414.72 41.472 
" style="fill: none; stroke: #000000; stroke-width: 0.8; stroke-linejoin: miter; stroke-linecap: square"/>
   </g>
   <g id="patch_5">
    <path d="M 57.6 307.584 
L 414.72 307.584 
" style="fill: none; stroke: #000000; stroke-width: 0.8; stroke-linejoin: miter; stroke-linecap: square"/>
   </g>
   <g id="patch_6">
    <path d="M 57.6 41.472 
L 414.72 41.472 
" style="fill: none; stroke: #000000; stroke-width: 0.8; stroke-linejoin: miter; stroke-linecap: square"/>
   </g>
   <g id="legend_1">
    <g id="patch_7">
     <path d="M 64.6 93.506375 
L 186.25625 93.506375 
Q 188.25625 93.506375 188.25625 91.506375 
L 188.25625 48.472 
Q 188.25625 46.472 186.25625 46.472 
L 64.6 46.472 
Q 62.6 46.472 62.6 48.472 
L 62.6 91.506375 
Q 62.6 93.506375 64.6 93.506375 
z
" style="fill: #ffffff; opacity: 0.8; stroke: #cccccc; stroke-linejoin: miter"/>
    </g>
    <g id="line2d_18">
     <path d="M 66.6 54.570438 
L 76.6 54.570438 
L 86.6 54.570438 
" style="fill: none; stroke: #1f77b4; stroke-width: 1.5; stroke-linecap: square"/>
    </g>
    <g id="text_17">
     <!-- Weekly maximum -->
     <g transform="translate(94.6 58.070438) scale(0.1 -0.1)">
      <defs>
       <path id="DejaVuSans-57" d="M 213 4666 
L 850 4666 
L 1831 722 
L 2809 4666 
L 3519 4666 
L 4500 722 
L 5478 4666 
L 6119 4666 
L 4947 0 
L 4153 0 
L 3169 4050 
L 2175 0 
L 1381 0 
L 213 4666 
z
" transform="scale(0.015625)"/>
       <path id="DejaVuSans-6b" d="M 581 4863 
L 1159 4863 
L 1159 1991 
L 2875 3500 
L 3609 3500 
L 1753 1863 
L 3688 0 
L 2938 0 
L 1159 1709 
L 1159 0 
L 581 0 
L 581 4863 
z
" transform="scale(0.015625)"/>
       <path id="DejaVuSans-79" d="M 2059 -325 
Q 1816 -950 1584 -1140 
Q 1353 -1331 966 -1331 
L 506 -1331 
L 506 -850 
L 844 -850 
Q 1081 -850 1212 -737 
Q 1344 -625 1503 -206 
L 1606 56 
L 191 3500 
L 800 3500 
L 1894 763 
L 2988 3500 
L 3597 3500 
L 2059 -325 
z
" transform="scale(0.015625)"/>
       <path id="DejaVuSans-6d" d="M 3328 2828 
Q 3544 3216 3844 3400 
Q 4144 3584 4550 3584 
Q 5097 3584 5394 3201 
Q 5691 2819 5691 2113 
L 5691 0 
L 5113 0 
L 5113 2094 
Q 5113 2597 4934 2840 
Q 4756 3084 4391 3084 
Q 3944 3084 3684 2787 
Q 3425 2491 3425 1978 
L 3425 0 
L 2847 0 
L 2847 2094 
Q 2847 2600 2669 2842 
Q 2491 3084 2119 3084 
Q 1678 3084 1418 2786 
Q 1159 2488 1159 1978 
L 1159 0 
L 581 0 
L 581 3500 
L 1159 3500 
L 1159 2956 
Q 1356 3278 1631 3431 
Q 1906 3584 2284 3584 
Q 2666 3584 2933 3390 
Q 3200 3197 3328 2828 
z
" transform="scale(0.015625)"/>
       <path id="DejaVuSans-78" d="M 3513 3500 
L 2247 1797 
L 3578 0 
L 2900 0 
L 1881 1375 
L 863 0 
L 184 0 
L 1544 1831 
L 300 3500 
L 978 3500 
L 1906 2253 
L 2834 3500 
L 3513 3500 
z
" transform="scale(0.015625)"/>
       <path id="DejaVuSans-75" d="M 544 1381 
L 544 3500 
L 1119 3500 
L 1119 1403 
Q 1119 906 1312 657 
Q 1506 409 1894 409 
Q 2359 409 2629 706 
Q 2900 1003 2900 1516 
L 2900 3500 
L 3475 3500 
L 3475 0 
L 2900 0 
L 2900 538 
Q 2691 219 2414 64 
Q 2138 -91 1772 -91 
Q 1169 -91 856 284 
Q 544 659 544 1381 
z
M 1991 3584 
L 1991 3584 
z
" transform="scale(0.015625)"/>
      </defs>
      <use xlink:href="#DejaVuSans-57"/>
      <use xlink:href="#DejaVuSans-65" x="93.001953"/>
      <use xlink:href="#DejaVuSans-65" x="154.525391"/>
      <use xlink:href="#DejaVuSans-6b" x="216.048828"/>
      <use xlink:href="#DejaVuSans-6c" x="273.958984"/>
      <use xlink:href="#DejaVuSans-79" x="301.742188"/>
      <use xlink:href="#DejaVuSans-20" x="360.921875"/>
      <use xlink:href="#DejaVuSans-6d" x="392.708984"/>
      <use xlink:href="#DejaVuSans-61" x="490.121094"/>
      <use xlink:href="#DejaVuSans-78" x="551.400391"/>
      <use xlink:href="#DejaVuSans-69" x="610.580078"/>
      <use xlink:href="#DejaVuSans-6d" x="638.363281"/>
      <use xlink:href="#DejaVuSans-75" x="735.775391"/>
      <use xlink:href="#DejaVuSans-6d" x="799.154297"/>
     </g>
    </g>
    <g id="line2d_19">
     <path d="M 66.6 69.248563 
L 76.6 69.248563 
L 86.6 69.248563 
" style="fill: none; stroke: #ff7f0e; stroke-width: 1.5; stroke-linecap: square"/>
    </g>
    <g id="text_18">
     <!-- Weekly minimum -->
     <g transform="translate(94.6 72.748563) scale(0.1 -0.1)">
      <defs>
       <path id="DejaVuSans-6e" d="M 3513 2113 
L 3513 0 
L 2938 0 
L 2938 2094 
Q 2938 2591 2744 2837 
Q 2550 3084 2163 3084 
Q 1697 3084 1428 2787 
Q 1159 2491 1159 1978 
L 1159 0 
L 581 0 
L 581 3500 
L 1159 3500 
L 1159 2956 
Q 1366 3272 1645 3428 
Q 1925 3584 2291 3584 
Q 2894 3584 3203 3211 
Q 3513 2838 3513 2113 
z
" transform="scale(0.015625)"/>
      </defs>
      <use xlink:href="#DejaVuSans-57"/>
      <use xlink:href="#DejaVuSans-65" x="93.001953"/>
      <use xlink:href="#DejaVuSans-65" x="154.525391"/>
      <use xlink:href="#DejaVuSans-6b" x="216.048828"/>
      <use xlink:href="#DejaVuSans-6c" x="273.958984"/>
      <use xlink:href="#DejaVuSans-79" x="301.742188"/>
      <use xlink:href="#DejaVuSans-20" x="360.921875"/>
      <use xlink:href="#DejaVuSans-6d" x="392.708984"/>
      <use xlink:href="#DejaVuSans-69" x="490.121094"/>
      <use xlink:href="#DejaVuSans-6e" x="517.904297"/>
      <use xlink:href="#DejaVuSans-69" x="581.283203"/>
      <use xlink:href="#DejaVuSans-6d" x="609.066406"/>
      <use xlink:href="#DejaVuSans-75" x="706.478516"/>
      <use xlink:href="#DejaVuSans-6d" x="769.857422"/>
     </g>
    </g>
    <g id="line2d_20">
     <path d="M 66.6 83.926688 
L 76.6 83.926688 
L 86.6 83.926688 
" style="fill: none; stroke: #2ca02c; stroke-width: 1.5; stroke-linecap: square"/>
    </g>
    <g id="text_19">
     <!-- Weekly range -->
     <g transform="translate(94.6 87.426688) scale(0.1 -0.1)">
      <use xlink:href="#DejaVuSans-57"/>
      <use xlink:href="#DejaVuSans-65" x="93.001953"/>
      <use xlink:href="#DejaVuSans-65" x="154.525391"/>
      <use xlink:href="#DejaVuSans-6b" x="216.048828"/>
      <use xlink:href="#DejaVuSans-6c" x="273.958984"/>
      <use xlink:href="#DejaVuSans-79" x="301.742188"/>
      <use xlink:href="#DejaVuSans-20" x="360.921875"/>
      <use xlink:href="#DejaVuSans-72" x="392.708984"/>
      <use xlink:href="#DejaVuSans-61" x="433.822266"/>
      <use xlink:href="#DejaVuSans-6e" x="495.101562"/>
      <use xlink:href="#DejaVuSans-67" x="558.480469"/>
      <use xlink:href="#DejaVuSans-65" x="621.957031"/>
     </g>
    </g>
   </g>
  </g>
 </g>
 <defs>
  <clipPath id="p347bf4b9ec">
   <rect x="57.6" y="41.472" width="357.12" height="266.112"/>
  </clipPath>
 </defs>
</svg>
