<?xml version="1.0" encoding="utf-8" standalone="no"?>
<!DOCTYPE svg PUBLIC "-//W3C//DTD SVG 1.1//EN"
  "http://www.w3.org/Graphics/SVG/1.1/DTD/svg11.dtd">
<svg xmlns:xlink="http://www.w3.org/1999/xlink" width="460.8pt" height="345.6pt" viewBox="0 0 460.8 345.6" xmlns="http://www.w3.org/2000/svg" version="1.1">
 <metadata>
  <rdf:RDF xmlns:dc="http://purl.org/dc/elements/1.1/" xmlns:cc="http://creativecommons.org/ns#" xmlns:rdf="http://www.w3.org/1999/02/22-rdf-syntax-ns#">
   <cc:Work>
    <dc:type rdf:resource="http://purl.org/dc/dcmitype/StillImage"/>
    <dc:date>2022-06-24T05:38:30.506614</dc:date>
    <dc:format>image/svg+xml</dc:format>
    <dc:creator>
     <cc:Agent>
      <dc:title>Matplotlib v3.5.2, https://matplotlib.org/</dc:title>
     </cc:Agent>
    </dc:creator>
   </cc:Work>
  </rdf:RDF>
 </metadata>
 <defs>
  <style type="text/css">*{stroke-linejoin: round; stroke-linecap: butt}</style>
 </defs>
 <g id="figure_1">
  <g id="patch_1">
   <path d="M 0 345.6 
L 460.8 345.6 
L 460.8 0 
L 0 0 
z
" style="fill: #ffffff"/>
  </g>
  <g id="axes_1">
   <g id="patch_2">
    <path d="M 57.6 307.584 
L 414.72 307.584 
L 414.72 41.472 
L 57.6 41.472 
z
" style="fill: #ffffff"/>
   </g>
   <g id="matplotlib.axis_1">
    <g id="xtick_1">
     <g id="line2d_1">
      <defs>
       <path id="m5ec146eb91" d="M 0 0 
L 0 3.5 
" style="stroke: #000000; stroke-width: 0.8"/>
      </defs>
      <g>
       <use xlink:href="#m5ec146eb91" x="58.115325" y="307.584" style="stroke: #000000; stroke-width: 0.8"/>
      </g>
     </g>
     <g id="text_1">
      <!-- 2008 -->
      <g transform="translate(45.390325 322.182437)scale(0.1 -0.1)">
       <defs>
        <path id="DejaVuSans-32" d="M 1228 531 
L 3431 531 
L 3431 0 
L 469 0 
L 469 531 
Q 828 903 1448 1529 
Q 2069 2156 2228 2338 
Q 2531 2678 2651 2914 
Q 2772 3150 2772 3378 
Q 2772 3750 2511 3984 
Q 2250 4219 1831 4219 
Q 1534 4219 1204 4116 
Q 875 4013 500 3803 
L 500 4441 
Q 881 4594 1212 4672 
Q 1544 4750 1819 4750 
Q 2544 4750 2975 4387 
Q 3406 4025 3406 3419 
Q 3406 3131 3298 2873 
Q 3191 2616 2906 2266 
Q 2828 2175 2409 1742 
Q 1991 1309 1228 531 
z
" transform="scale(0.015625)"/>
        <path id="DejaVuSans-30" d="M 2034 4250 
Q 1547 4250 1301 3770 
Q 1056 3291 1056 2328 
Q 1056 1369 1301 889 
Q 1547 409 2034 409 
Q 2525 409 2770 889 
Q 3016 1369 3016 2328 
Q 3016 3291 2770 3770 
Q 2525 4250 2034 4250 
z
M 2034 4750 
Q 2819 4750 3233 4129 
Q 3647 3509 3647 2328 
Q 3647 1150 3233 529 
Q 2819 -91 2034 -91 
Q 1250 -91 836 529 
Q 422 1150 422 2328 
Q 422 3509 836 4129 
Q 1250 4750 2034 4750 
z
" transform="scale(0.015625)"/>
        <path id="DejaVuSans-38" d="M 2034 2216 
Q 1584 2216 1326 1975 
Q 1069 1734 1069 1313 
Q 1069 891 1326 650 
Q 1584 409 2034 409 
Q 2484 409 2743 651 
Q 3003 894 3003 1313 
Q 3003 1734 2745 1975 
Q 2488 2216 2034 2216 
z
M 1403 2484 
Q 997 2584 770 2862 
Q 544 3141 544 3541 
Q 544 4100 942 4425 
Q 1341 4750 2034 4750 
Q 2731 4750 3128 4425 
Q 3525 4100 3525 3541 
Q 3525 3141 3298 2862 
Q 3072 2584 2669 2484 
Q 3125 2378 3379 2068 
Q 3634 1759 3634 1313 
Q 3634 634 3220 271 
Q 2806 -91 2034 -91 
Q 1263 -91 848 271 
Q 434 634 434 1313 
Q 434 1759 690 2068 
Q 947 2378 1403 2484 
z
M 1172 3481 
Q 1172 3119 1398 2916 
Q 1625 2713 2034 2713 
Q 2441 2713 2670 2916 
Q 2900 3119 2900 3481 
Q 2900 3844 2670 4047 
Q 2441 4250 2034 4250 
Q 1625 4250 1398 4047 
Q 1172 3844 1172 3481 
z
" transform="scale(0.015625)"/>
       </defs>
       <use xlink:href="#DejaVuSans-32"/>
       <use xlink:href="#DejaVuSans-30" x="63.623047"/>
       <use xlink:href="#DejaVuSans-30" x="127.246094"/>
       <use xlink:href="#DejaVuSans-38" x="190.869141"/>
      </g>
     </g>
    </g>
    <g id="xtick_2">
     <g id="line2d_2">
      <g>
       <use xlink:href="#m5ec146eb91" x="105.203117" y="307.584" style="stroke: #000000; stroke-width: 0.8"/>
      </g>
     </g>
     <g id="text_2">
      <!-- 2010 -->
      <g transform="translate(92.478117 322.182437)scale(0.1 -0.1)">
       <defs>
        <path id="DejaVuSans-31" d="M 794 531 
L 1825 531 
L 1825 4091 
L 703 3866 
L 703 4441 
L 1819 4666 
L 2450 4666 
L 2450 531 
L 3481 531 
L 3481 0 
L 794 0 
L 794 531 
z
" transform="scale(0.015625)"/>
       </defs>
       <use xlink:href="#DejaVuSans-32"/>
       <use xlink:href="#DejaVuSans-30" x="63.623047"/>
       <use xlink:href="#DejaVuSans-31" x="127.246094"/>
       <use xlink:href="#DejaVuSans-30" x="190.869141"/>
      </g>
     </g>
    </g>
    <g id="xtick_3">
     <g id="line2d_3">
      <g>
       <use xlink:href="#m5ec146eb91" x="152.226494" y="307.584" style="stroke: #000000; stroke-width: 0.8"/>
      </g>
     </g>
     <g id="text_3">
      <!-- 2012 -->
      <g transform="translate(139.501494 322.182437)scale(0.1 -0.1)">
       <use xlink:href="#DejaVuSans-32"/>
       <use xlink:href="#DejaVuSans-30" x="63.623047"/>
       <use xlink:href="#DejaVuSans-31" x="127.246094"/>
       <use xlink:href="#DejaVuSans-32" x="190.869141"/>
      </g>
     </g>
    </g>
    <g id="xtick_4">
     <g id="line2d_4">
      <g>
       <use xlink:href="#m5ec146eb91" x="199.314286" y="307.584" style="stroke: #000000; stroke-width: 0.8"/>
      </g>
     </g>
     <g id="text_4">
      <!-- 2014 -->
      <g transform="translate(186.589286 322.182437)scale(0.1 -0.1)">
       <defs>
        <path id="DejaVuSans-34" d="M 2419 4116 
L 825 1625 
L 2419 1625 
L 2419 4116 
z
M 2253 4666 
L 3047 4666 
L 3047 1625 
L 3713 1625 
L 3713 1100 
L 3047 1100 
L 3047 0 
L 2419 0 
L 2419 1100 
L 313 1100 
L 313 1709 
L 2253 4666 
z
" transform="scale(0.015625)"/>
       </defs>
       <use xlink:href="#DejaVuSans-32"/>
       <use xlink:href="#DejaVuSans-30" x="63.623047"/>
       <use xlink:href="#DejaVuSans-31" x="127.246094"/>
       <use xlink:href="#DejaVuSans-34" x="190.869141"/>
      </g>
     </g>
    </g>
    <g id="xtick_5">
     <g id="line2d_5">
      <g>
       <use xlink:href="#m5ec146eb91" x="246.337662" y="307.584" style="stroke: #000000; stroke-width: 0.8"/>
      </g>
     </g>
     <g id="text_5">
      <!-- 2016 -->
      <g transform="translate(233.612662 322.182437)scale(0.1 -0.1)">
       <defs>
        <path id="DejaVuSans-36" d="M 2113 2584 
Q 1688 2584 1439 2293 
Q 1191 2003 1191 1497 
Q 1191 994 1439 701 
Q 1688 409 2113 409 
Q 2538 409 2786 701 
Q 3034 994 3034 1497 
Q 3034 2003 2786 2293 
Q 2538 2584 2113 2584 
z
M 3366 4563 
L 3366 3988 
Q 3128 4100 2886 4159 
Q 2644 4219 2406 4219 
Q 1781 4219 1451 3797 
Q 1122 3375 1075 2522 
Q 1259 2794 1537 2939 
Q 1816 3084 2150 3084 
Q 2853 3084 3261 2657 
Q 3669 2231 3669 1497 
Q 3669 778 3244 343 
Q 2819 -91 2113 -91 
Q 1303 -91 875 529 
Q 447 1150 447 2328 
Q 447 3434 972 4092 
Q 1497 4750 2381 4750 
Q 2619 4750 2861 4703 
Q 3103 4656 3366 4563 
z
" transform="scale(0.015625)"/>
       </defs>
       <use xlink:href="#DejaVuSans-32"/>
       <use xlink:href="#DejaVuSans-30" x="63.623047"/>
       <use xlink:href="#DejaVuSans-31" x="127.246094"/>
       <use xlink:href="#DejaVuSans-36" x="190.869141"/>
      </g>
     </g>
    </g>
    <g id="xtick_6">
     <g id="line2d_6">
      <g>
       <use xlink:href="#m5ec146eb91" x="293.425455" y="307.584" style="stroke: #000000; stroke-width: 0.8"/>
      </g>
     </g>
     <g id="text_6">
      <!-- 2018 -->
      <g transform="translate(280.700455 322.182437)scale(0.1 -0.1)">
       <use xlink:href="#DejaVuSans-32"/>
       <use xlink:href="#DejaVuSans-30" x="63.623047"/>
       <use xlink:href="#DejaVuSans-31" x="127.246094"/>
       <use xlink:href="#DejaVuSans-38" x="190.869141"/>
      </g>
     </g>
    </g>
    <g id="xtick_7">
     <g id="line2d_7">
      <g>
       <use xlink:href="#m5ec146eb91" x="340.448831" y="307.584" style="stroke: #000000; stroke-width: 0.8"/>
      </g>
     </g>
     <g id="text_7">
      <!-- 2020 -->
      <g transform="translate(327.723831 322.182437)scale(0.1 -0.1)">
       <use xlink:href="#DejaVuSans-32"/>
       <use xlink:href="#DejaVuSans-30" x="63.623047"/>
       <use xlink:href="#DejaVuSans-32" x="127.246094"/>
       <use xlink:href="#DejaVuSans-30" x="190.869141"/>
      </g>
     </g>
    </g>
    <g id="xtick_8">
     <g id="line2d_8">
      <g>
       <use xlink:href="#m5ec146eb91" x="387.536623" y="307.584" style="stroke: #000000; stroke-width: 0.8"/>
      </g>
     </g>
     <g id="text_8">
      <!-- 2022 -->
      <g transform="translate(374.811623 322.182437)scale(0.1 -0.1)">
       <use xlink:href="#DejaVuSans-32"/>
       <use xlink:href="#DejaVuSans-30" x="63.623047"/>
       <use xlink:href="#DejaVuSans-32" x="127.246094"/>
       <use xlink:href="#DejaVuSans-32" x="190.869141"/>
      </g>
     </g>
    </g>
    <g id="text_9">
     <!-- Updated 2022-06-24 05:38:30.504198 - Last record 2022-06-22 -->
     <g transform="translate(75.905312 335.860562)scale(0.1 -0.1)">
      <defs>
       <path id="DejaVuSans-55" d="M 556 4666 
L 1191 4666 
L 1191 1831 
Q 1191 1081 1462 751 
Q 1734 422 2344 422 
Q 2950 422 3222 751 
Q 3494 1081 3494 1831 
L 3494 4666 
L 4128 4666 
L 4128 1753 
Q 4128 841 3676 375 
Q 3225 -91 2344 -91 
Q 1459 -91 1007 375 
Q 556 841 556 1753 
L 556 4666 
z
" transform="scale(0.015625)"/>
       <path id="DejaVuSans-70" d="M 1159 525 
L 1159 -1331 
L 581 -1331 
L 581 3500 
L 1159 3500 
L 1159 2969 
Q 1341 3281 1617 3432 
Q 1894 3584 2278 3584 
Q 2916 3584 3314 3078 
Q 3713 2572 3713 1747 
Q 3713 922 3314 415 
Q 2916 -91 2278 -91 
Q 1894 -91 1617 61 
Q 1341 213 1159 525 
z
M 3116 1747 
Q 3116 2381 2855 2742 
Q 2594 3103 2138 3103 
Q 1681 3103 1420 2742 
Q 1159 2381 1159 1747 
Q 1159 1113 1420 752 
Q 1681 391 2138 391 
Q 2594 391 2855 752 
Q 3116 1113 3116 1747 
z
" transform="scale(0.015625)"/>
       <path id="DejaVuSans-64" d="M 2906 2969 
L 2906 4863 
L 3481 4863 
L 3481 0 
L 2906 0 
L 2906 525 
Q 2725 213 2448 61 
Q 2172 -91 1784 -91 
Q 1150 -91 751 415 
Q 353 922 353 1747 
Q 353 2572 751 3078 
Q 1150 3584 1784 3584 
Q 2172 3584 2448 3432 
Q 2725 3281 2906 2969 
z
M 947 1747 
Q 947 1113 1208 752 
Q 1469 391 1925 391 
Q 2381 391 2643 752 
Q 2906 1113 2906 1747 
Q 2906 2381 2643 2742 
Q 2381 3103 1925 3103 
Q 1469 3103 1208 2742 
Q 947 2381 947 1747 
z
" transform="scale(0.015625)"/>
       <path id="DejaVuSans-61" d="M 2194 1759 
Q 1497 1759 1228 1600 
Q 959 1441 959 1056 
Q 959 750 1161 570 
Q 1363 391 1709 391 
Q 2188 391 2477 730 
Q 2766 1069 2766 1631 
L 2766 1759 
L 2194 1759 
z
M 3341 1997 
L 3341 0 
L 2766 0 
L 2766 531 
Q 2569 213 2275 61 
Q 1981 -91 1556 -91 
Q 1019 -91 701 211 
Q 384 513 384 1019 
Q 384 1609 779 1909 
Q 1175 2209 1959 2209 
L 2766 2209 
L 2766 2266 
Q 2766 2663 2505 2880 
Q 2244 3097 1772 3097 
Q 1472 3097 1187 3025 
Q 903 2953 641 2809 
L 641 3341 
Q 956 3463 1253 3523 
Q 1550 3584 1831 3584 
Q 2591 3584 2966 3190 
Q 3341 2797 3341 1997 
z
" transform="scale(0.015625)"/>
       <path id="DejaVuSans-74" d="M 1172 4494 
L 1172 3500 
L 2356 3500 
L 2356 3053 
L 1172 3053 
L 1172 1153 
Q 1172 725 1289 603 
Q 1406 481 1766 481 
L 2356 481 
L 2356 0 
L 1766 0 
Q 1100 0 847 248 
Q 594 497 594 1153 
L 594 3053 
L 172 3053 
L 172 3500 
L 594 3500 
L 594 4494 
L 1172 4494 
z
" transform="scale(0.015625)"/>
       <path id="DejaVuSans-65" d="M 3597 1894 
L 3597 1613 
L 953 1613 
Q 991 1019 1311 708 
Q 1631 397 2203 397 
Q 2534 397 2845 478 
Q 3156 559 3463 722 
L 3463 178 
Q 3153 47 2828 -22 
Q 2503 -91 2169 -91 
Q 1331 -91 842 396 
Q 353 884 353 1716 
Q 353 2575 817 3079 
Q 1281 3584 2069 3584 
Q 2775 3584 3186 3129 
Q 3597 2675 3597 1894 
z
M 3022 2063 
Q 3016 2534 2758 2815 
Q 2500 3097 2075 3097 
Q 1594 3097 1305 2825 
Q 1016 2553 972 2059 
L 3022 2063 
z
" transform="scale(0.015625)"/>
       <path id="DejaVuSans-20" transform="scale(0.015625)"/>
       <path id="DejaVuSans-2d" d="M 313 2009 
L 1997 2009 
L 1997 1497 
L 313 1497 
L 313 2009 
z
" transform="scale(0.015625)"/>
       <path id="DejaVuSans-35" d="M 691 4666 
L 3169 4666 
L 3169 4134 
L 1269 4134 
L 1269 2991 
Q 1406 3038 1543 3061 
Q 1681 3084 1819 3084 
Q 2600 3084 3056 2656 
Q 3513 2228 3513 1497 
Q 3513 744 3044 326 
Q 2575 -91 1722 -91 
Q 1428 -91 1123 -41 
Q 819 9 494 109 
L 494 744 
Q 775 591 1075 516 
Q 1375 441 1709 441 
Q 2250 441 2565 725 
Q 2881 1009 2881 1497 
Q 2881 1984 2565 2268 
Q 2250 2553 1709 2553 
Q 1456 2553 1204 2497 
Q 953 2441 691 2322 
L 691 4666 
z
" transform="scale(0.015625)"/>
       <path id="DejaVuSans-3a" d="M 750 794 
L 1409 794 
L 1409 0 
L 750 0 
L 750 794 
z
M 750 3309 
L 1409 3309 
L 1409 2516 
L 750 2516 
L 750 3309 
z
" transform="scale(0.015625)"/>
       <path id="DejaVuSans-33" d="M 2597 2516 
Q 3050 2419 3304 2112 
Q 3559 1806 3559 1356 
Q 3559 666 3084 287 
Q 2609 -91 1734 -91 
Q 1441 -91 1130 -33 
Q 819 25 488 141 
L 488 750 
Q 750 597 1062 519 
Q 1375 441 1716 441 
Q 2309 441 2620 675 
Q 2931 909 2931 1356 
Q 2931 1769 2642 2001 
Q 2353 2234 1838 2234 
L 1294 2234 
L 1294 2753 
L 1863 2753 
Q 2328 2753 2575 2939 
Q 2822 3125 2822 3475 
Q 2822 3834 2567 4026 
Q 2313 4219 1838 4219 
Q 1578 4219 1281 4162 
Q 984 4106 628 3988 
L 628 4550 
Q 988 4650 1302 4700 
Q 1616 4750 1894 4750 
Q 2613 4750 3031 4423 
Q 3450 4097 3450 3541 
Q 3450 3153 3228 2886 
Q 3006 2619 2597 2516 
z
" transform="scale(0.015625)"/>
       <path id="DejaVuSans-2e" d="M 684 794 
L 1344 794 
L 1344 0 
L 684 0 
L 684 794 
z
" transform="scale(0.015625)"/>
       <path id="DejaVuSans-39" d="M 703 97 
L 703 672 
Q 941 559 1184 500 
Q 1428 441 1663 441 
Q 2288 441 2617 861 
Q 2947 1281 2994 2138 
Q 2813 1869 2534 1725 
Q 2256 1581 1919 1581 
Q 1219 1581 811 2004 
Q 403 2428 403 3163 
Q 403 3881 828 4315 
Q 1253 4750 1959 4750 
Q 2769 4750 3195 4129 
Q 3622 3509 3622 2328 
Q 3622 1225 3098 567 
Q 2575 -91 1691 -91 
Q 1453 -91 1209 -44 
Q 966 3 703 97 
z
M 1959 2075 
Q 2384 2075 2632 2365 
Q 2881 2656 2881 3163 
Q 2881 3666 2632 3958 
Q 2384 4250 1959 4250 
Q 1534 4250 1286 3958 
Q 1038 3666 1038 3163 
Q 1038 2656 1286 2365 
Q 1534 2075 1959 2075 
z
" transform="scale(0.015625)"/>
       <path id="DejaVuSans-4c" d="M 628 4666 
L 1259 4666 
L 1259 531 
L 3531 531 
L 3531 0 
L 628 0 
L 628 4666 
z
" transform="scale(0.015625)"/>
       <path id="DejaVuSans-73" d="M 2834 3397 
L 2834 2853 
Q 2591 2978 2328 3040 
Q 2066 3103 1784 3103 
Q 1356 3103 1142 2972 
Q 928 2841 928 2578 
Q 928 2378 1081 2264 
Q 1234 2150 1697 2047 
L 1894 2003 
Q 2506 1872 2764 1633 
Q 3022 1394 3022 966 
Q 3022 478 2636 193 
Q 2250 -91 1575 -91 
Q 1294 -91 989 -36 
Q 684 19 347 128 
L 347 722 
Q 666 556 975 473 
Q 1284 391 1588 391 
Q 1994 391 2212 530 
Q 2431 669 2431 922 
Q 2431 1156 2273 1281 
Q 2116 1406 1581 1522 
L 1381 1569 
Q 847 1681 609 1914 
Q 372 2147 372 2553 
Q 372 3047 722 3315 
Q 1072 3584 1716 3584 
Q 2034 3584 2315 3537 
Q 2597 3491 2834 3397 
z
" transform="scale(0.015625)"/>
       <path id="DejaVuSans-72" d="M 2631 2963 
Q 2534 3019 2420 3045 
Q 2306 3072 2169 3072 
Q 1681 3072 1420 2755 
Q 1159 2438 1159 1844 
L 1159 0 
L 581 0 
L 581 3500 
L 1159 3500 
L 1159 2956 
Q 1341 3275 1631 3429 
Q 1922 3584 2338 3584 
Q 2397 3584 2469 3576 
Q 2541 3569 2628 3553 
L 2631 2963 
z
" transform="scale(0.015625)"/>
       <path id="DejaVuSans-63" d="M 3122 3366 
L 3122 2828 
Q 2878 2963 2633 3030 
Q 2388 3097 2138 3097 
Q 1578 3097 1268 2742 
Q 959 2388 959 1747 
Q 959 1106 1268 751 
Q 1578 397 2138 397 
Q 2388 397 2633 464 
Q 2878 531 3122 666 
L 3122 134 
Q 2881 22 2623 -34 
Q 2366 -91 2075 -91 
Q 1284 -91 818 406 
Q 353 903 353 1747 
Q 353 2603 823 3093 
Q 1294 3584 2113 3584 
Q 2378 3584 2631 3529 
Q 2884 3475 3122 3366 
z
" transform="scale(0.015625)"/>
       <path id="DejaVuSans-6f" d="M 1959 3097 
Q 1497 3097 1228 2736 
Q 959 2375 959 1747 
Q 959 1119 1226 758 
Q 1494 397 1959 397 
Q 2419 397 2687 759 
Q 2956 1122 2956 1747 
Q 2956 2369 2687 2733 
Q 2419 3097 1959 3097 
z
M 1959 3584 
Q 2709 3584 3137 3096 
Q 3566 2609 3566 1747 
Q 3566 888 3137 398 
Q 2709 -91 1959 -91 
Q 1206 -91 779 398 
Q 353 888 353 1747 
Q 353 2609 779 3096 
Q 1206 3584 1959 3584 
z
" transform="scale(0.015625)"/>
      </defs>
      <use xlink:href="#DejaVuSans-55"/>
      <use xlink:href="#DejaVuSans-70" x="73.193359"/>
      <use xlink:href="#DejaVuSans-64" x="136.669922"/>
      <use xlink:href="#DejaVuSans-61" x="200.146484"/>
      <use xlink:href="#DejaVuSans-74" x="261.425781"/>
      <use xlink:href="#DejaVuSans-65" x="300.634766"/>
      <use xlink:href="#DejaVuSans-64" x="362.158203"/>
      <use xlink:href="#DejaVuSans-20" x="425.634766"/>
      <use xlink:href="#DejaVuSans-32" x="457.421875"/>
      <use xlink:href="#DejaVuSans-30" x="521.044922"/>
      <use xlink:href="#DejaVuSans-32" x="584.667969"/>
      <use xlink:href="#DejaVuSans-32" x="648.291016"/>
      <use xlink:href="#DejaVuSans-2d" x="711.914062"/>
      <use xlink:href="#DejaVuSans-30" x="747.998047"/>
      <use xlink:href="#DejaVuSans-36" x="811.621094"/>
      <use xlink:href="#DejaVuSans-2d" x="875.244141"/>
      <use xlink:href="#DejaVuSans-32" x="911.328125"/>
      <use xlink:href="#DejaVuSans-34" x="974.951172"/>
      <use xlink:href="#DejaVuSans-20" x="1038.574219"/>
      <use xlink:href="#DejaVuSans-30" x="1070.361328"/>
      <use xlink:href="#DejaVuSans-35" x="1133.984375"/>
      <use xlink:href="#DejaVuSans-3a" x="1197.607422"/>
      <use xlink:href="#DejaVuSans-33" x="1231.298828"/>
      <use xlink:href="#DejaVuSans-38" x="1294.921875"/>
      <use xlink:href="#DejaVuSans-3a" x="1358.544922"/>
      <use xlink:href="#DejaVuSans-33" x="1392.236328"/>
      <use xlink:href="#DejaVuSans-30" x="1455.859375"/>
      <use xlink:href="#DejaVuSans-2e" x="1519.482422"/>
      <use xlink:href="#DejaVuSans-35" x="1551.269531"/>
      <use xlink:href="#DejaVuSans-30" x="1614.892578"/>
      <use xlink:href="#DejaVuSans-34" x="1678.515625"/>
      <use xlink:href="#DejaVuSans-31" x="1742.138672"/>
      <use xlink:href="#DejaVuSans-39" x="1805.761719"/>
      <use xlink:href="#DejaVuSans-38" x="1869.384766"/>
      <use xlink:href="#DejaVuSans-20" x="1933.007812"/>
      <use xlink:href="#DejaVuSans-2d" x="1964.794922"/>
      <use xlink:href="#DejaVuSans-20" x="2000.878906"/>
      <use xlink:href="#DejaVuSans-4c" x="2032.666016"/>
      <use xlink:href="#DejaVuSans-61" x="2088.378906"/>
      <use xlink:href="#DejaVuSans-73" x="2149.658203"/>
      <use xlink:href="#DejaVuSans-74" x="2201.757812"/>
      <use xlink:href="#DejaVuSans-20" x="2240.966797"/>
      <use xlink:href="#DejaVuSans-72" x="2272.753906"/>
      <use xlink:href="#DejaVuSans-65" x="2311.617188"/>
      <use xlink:href="#DejaVuSans-63" x="2373.140625"/>
      <use xlink:href="#DejaVuSans-6f" x="2428.121094"/>
      <use xlink:href="#DejaVuSans-72" x="2489.302734"/>
      <use xlink:href="#DejaVuSans-64" x="2528.666016"/>
      <use xlink:href="#DejaVuSans-20" x="2592.142578"/>
      <use xlink:href="#DejaVuSans-32" x="2623.929688"/>
      <use xlink:href="#DejaVuSans-30" x="2687.552734"/>
      <use xlink:href="#DejaVuSans-32" x="2751.175781"/>
      <use xlink:href="#DejaVuSans-32" x="2814.798828"/>
      <use xlink:href="#DejaVuSans-2d" x="2878.421875"/>
      <use xlink:href="#DejaVuSans-30" x="2914.505859"/>
      <use xlink:href="#DejaVuSans-36" x="2978.128906"/>
      <use xlink:href="#DejaVuSans-2d" x="3041.751953"/>
      <use xlink:href="#DejaVuSans-32" x="3077.835938"/>
      <use xlink:href="#DejaVuSans-32" x="3141.458984"/>
     </g>
    </g>
   </g>
   <g id="matplotlib.axis_2">
    <g id="ytick_1">
     <g id="line2d_9">
      <defs>
       <path id="m71dd6120e2" d="M 0 0 
L -3.5 0 
" style="stroke: #000000; stroke-width: 0.8"/>
      </defs>
      <g>
       <use xlink:href="#m71dd6120e2" x="57.6" y="295.569506" style="stroke: #000000; stroke-width: 0.8"/>
      </g>
     </g>
     <g id="text_10">
      <!-- 0 -->
      <g transform="translate(44.2375 299.368725)scale(0.1 -0.1)">
       <use xlink:href="#DejaVuSans-30"/>
      </g>
     </g>
    </g>
    <g id="ytick_2">
     <g id="line2d_10">
      <g>
       <use xlink:href="#m71dd6120e2" x="57.6" y="236.931761" style="stroke: #000000; stroke-width: 0.8"/>
      </g>
     </g>
     <g id="text_11">
      <!-- 10 -->
      <g transform="translate(37.875 240.73098)scale(0.1 -0.1)">
       <use xlink:href="#DejaVuSans-31"/>
       <use xlink:href="#DejaVuSans-30" x="63.623047"/>
      </g>
     </g>
    </g>
    <g id="ytick_3">
     <g id="line2d_11">
      <g>
       <use xlink:href="#m71dd6120e2" x="57.6" y="178.294015" style="stroke: #000000; stroke-width: 0.8"/>
      </g>
     </g>
     <g id="text_12">
      <!-- 20 -->
      <g transform="translate(37.875 182.093234)scale(0.1 -0.1)">
       <use xlink:href="#DejaVuSans-32"/>
       <use xlink:href="#DejaVuSans-30" x="63.623047"/>
      </g>
     </g>
    </g>
    <g id="ytick_4">
     <g id="line2d_12">
      <g>
       <use xlink:href="#m71dd6120e2" x="57.6" y="119.656269" style="stroke: #000000; stroke-width: 0.8"/>
      </g>
     </g>
     <g id="text_13">
      <!-- 30 -->
      <g transform="translate(37.875 123.455488)scale(0.1 -0.1)">
       <use xlink:href="#DejaVuSans-33"/>
       <use xlink:href="#DejaVuSans-30" x="63.623047"/>
      </g>
     </g>
    </g>
    <g id="ytick_5">
     <g id="line2d_13">
      <g>
       <use xlink:href="#m71dd6120e2" x="57.6" y="61.018524" style="stroke: #000000; stroke-width: 0.8"/>
      </g>
     </g>
     <g id="text_14">
      <!-- 40 -->
      <g transform="translate(37.875 64.817742)scale(0.1 -0.1)">
       <use xlink:href="#DejaVuSans-34"/>
       <use xlink:href="#DejaVuSans-30" x="63.623047"/>
      </g>
     </g>
    </g>
    <g id="text_15">
     <!-- IPv6 as % of total Google traffic -->
     <g transform="translate(31.795312 253.735813)rotate(-90)scale(0.1 -0.1)">
      <defs>
       <path id="DejaVuSans-49" d="M 628 4666 
L 1259 4666 
L 1259 0 
L 628 0 
L 628 4666 
z
" transform="scale(0.015625)"/>
       <path id="DejaVuSans-50" d="M 1259 4147 
L 1259 2394 
L 2053 2394 
Q 2494 2394 2734 2622 
Q 2975 2850 2975 3272 
Q 2975 3691 2734 3919 
Q 2494 4147 2053 4147 
L 1259 4147 
z
M 628 4666 
L 2053 4666 
Q 2838 4666 3239 4311 
Q 3641 3956 3641 3272 
Q 3641 2581 3239 2228 
Q 2838 1875 2053 1875 
L 1259 1875 
L 1259 0 
L 628 0 
L 628 4666 
z
" transform="scale(0.015625)"/>
       <path id="DejaVuSans-76" d="M 191 3500 
L 800 3500 
L 1894 563 
L 2988 3500 
L 3597 3500 
L 2284 0 
L 1503 0 
L 191 3500 
z
" transform="scale(0.015625)"/>
       <path id="DejaVuSans-25" d="M 4653 2053 
Q 4381 2053 4226 1822 
Q 4072 1591 4072 1178 
Q 4072 772 4226 539 
Q 4381 306 4653 306 
Q 4919 306 5073 539 
Q 5228 772 5228 1178 
Q 5228 1588 5073 1820 
Q 4919 2053 4653 2053 
z
M 4653 2450 
Q 5147 2450 5437 2106 
Q 5728 1763 5728 1178 
Q 5728 594 5436 251 
Q 5144 -91 4653 -91 
Q 4153 -91 3862 251 
Q 3572 594 3572 1178 
Q 3572 1766 3864 2108 
Q 4156 2450 4653 2450 
z
M 1428 4353 
Q 1159 4353 1004 4120 
Q 850 3888 850 3481 
Q 850 3069 1003 2837 
Q 1156 2606 1428 2606 
Q 1700 2606 1854 2837 
Q 2009 3069 2009 3481 
Q 2009 3884 1853 4118 
Q 1697 4353 1428 4353 
z
M 4250 4750 
L 4750 4750 
L 1831 -91 
L 1331 -91 
L 4250 4750 
z
M 1428 4750 
Q 1922 4750 2215 4408 
Q 2509 4066 2509 3481 
Q 2509 2891 2217 2550 
Q 1925 2209 1428 2209 
Q 931 2209 642 2551 
Q 353 2894 353 3481 
Q 353 4063 643 4406 
Q 934 4750 1428 4750 
z
" transform="scale(0.015625)"/>
       <path id="DejaVuSans-66" d="M 2375 4863 
L 2375 4384 
L 1825 4384 
Q 1516 4384 1395 4259 
Q 1275 4134 1275 3809 
L 1275 3500 
L 2222 3500 
L 2222 3053 
L 1275 3053 
L 1275 0 
L 697 0 
L 697 3053 
L 147 3053 
L 147 3500 
L 697 3500 
L 697 3744 
Q 697 4328 969 4595 
Q 1241 4863 1831 4863 
L 2375 4863 
z
" transform="scale(0.015625)"/>
       <path id="DejaVuSans-6c" d="M 603 4863 
L 1178 4863 
L 1178 0 
L 603 0 
L 603 4863 
z
" transform="scale(0.015625)"/>
       <path id="DejaVuSans-47" d="M 3809 666 
L 3809 1919 
L 2778 1919 
L 2778 2438 
L 4434 2438 
L 4434 434 
Q 4069 175 3628 42 
Q 3188 -91 2688 -91 
Q 1594 -91 976 548 
Q 359 1188 359 2328 
Q 359 3472 976 4111 
Q 1594 4750 2688 4750 
Q 3144 4750 3555 4637 
Q 3966 4525 4313 4306 
L 4313 3634 
Q 3963 3931 3569 4081 
Q 3175 4231 2741 4231 
Q 1884 4231 1454 3753 
Q 1025 3275 1025 2328 
Q 1025 1384 1454 906 
Q 1884 428 2741 428 
Q 3075 428 3337 486 
Q 3600 544 3809 666 
z
" transform="scale(0.015625)"/>
       <path id="DejaVuSans-67" d="M 2906 1791 
Q 2906 2416 2648 2759 
Q 2391 3103 1925 3103 
Q 1463 3103 1205 2759 
Q 947 2416 947 1791 
Q 947 1169 1205 825 
Q 1463 481 1925 481 
Q 2391 481 2648 825 
Q 2906 1169 2906 1791 
z
M 3481 434 
Q 3481 -459 3084 -895 
Q 2688 -1331 1869 -1331 
Q 1566 -1331 1297 -1286 
Q 1028 -1241 775 -1147 
L 775 -588 
Q 1028 -725 1275 -790 
Q 1522 -856 1778 -856 
Q 2344 -856 2625 -561 
Q 2906 -266 2906 331 
L 2906 616 
Q 2728 306 2450 153 
Q 2172 0 1784 0 
Q 1141 0 747 490 
Q 353 981 353 1791 
Q 353 2603 747 3093 
Q 1141 3584 1784 3584 
Q 2172 3584 2450 3431 
Q 2728 3278 2906 2969 
L 2906 3500 
L 3481 3500 
L 3481 434 
z
" transform="scale(0.015625)"/>
       <path id="DejaVuSans-69" d="M 603 3500 
L 1178 3500 
L 1178 0 
L 603 0 
L 603 3500 
z
M 603 4863 
L 1178 4863 
L 1178 4134 
L 603 4134 
L 603 4863 
z
" transform="scale(0.015625)"/>
      </defs>
      <use xlink:href="#DejaVuSans-49"/>
      <use xlink:href="#DejaVuSans-50" x="29.492188"/>
      <use xlink:href="#DejaVuSans-76" x="89.794922"/>
      <use xlink:href="#DejaVuSans-36" x="148.974609"/>
      <use xlink:href="#DejaVuSans-20" x="212.597656"/>
      <use xlink:href="#DejaVuSans-61" x="244.384766"/>
      <use xlink:href="#DejaVuSans-73" x="305.664062"/>
      <use xlink:href="#DejaVuSans-20" x="357.763672"/>
      <use xlink:href="#DejaVuSans-25" x="389.550781"/>
      <use xlink:href="#DejaVuSans-20" x="484.570312"/>
      <use xlink:href="#DejaVuSans-6f" x="516.357422"/>
      <use xlink:href="#DejaVuSans-66" x="577.539062"/>
      <use xlink:href="#DejaVuSans-20" x="612.744141"/>
      <use xlink:href="#DejaVuSans-74" x="644.53125"/>
      <use xlink:href="#DejaVuSans-6f" x="683.740234"/>
      <use xlink:href="#DejaVuSans-74" x="744.921875"/>
      <use xlink:href="#DejaVuSans-61" x="784.130859"/>
      <use xlink:href="#DejaVuSans-6c" x="845.410156"/>
      <use xlink:href="#DejaVuSans-20" x="873.193359"/>
      <use xlink:href="#DejaVuSans-47" x="904.980469"/>
      <use xlink:href="#DejaVuSans-6f" x="982.470703"/>
      <use xlink:href="#DejaVuSans-6f" x="1043.652344"/>
      <use xlink:href="#DejaVuSans-67" x="1104.833984"/>
      <use xlink:href="#DejaVuSans-6c" x="1168.310547"/>
      <use xlink:href="#DejaVuSans-65" x="1196.09375"/>
      <use xlink:href="#DejaVuSans-20" x="1257.617188"/>
      <use xlink:href="#DejaVuSans-74" x="1289.404297"/>
      <use xlink:href="#DejaVuSans-72" x="1328.613281"/>
      <use xlink:href="#DejaVuSans-61" x="1369.726562"/>
      <use xlink:href="#DejaVuSans-66" x="1431.005859"/>
      <use xlink:href="#DejaVuSans-66" x="1466.210938"/>
      <use xlink:href="#DejaVuSans-69" x="1501.416016"/>
      <use xlink:href="#DejaVuSans-63" x="1529.199219"/>
     </g>
    </g>
   </g>
   <g id="line2d_14">
    <path d="M 73.832727 294.501168 
L 75.636364 294.3201 
L 76.087273 294.492519 
L 77.890909 294.491762 
L 79.694545 294.334596 
L 80.145455 294.195612 
L 81.498182 294.218669 
L 82.850909 294.185175 
L 83.301818 294.263427 
L 85.105455 294.103528 
L 86.909091 294.16593 
L 88.261818 294.114886 
L 89.614545 294.119852 
L 90.967273 294.171624 
L 92.32 294.154924 
L 92.770909 294.267731 
L 95.025455 294.240324 
L 96.378182 294.186482 
L 98.181818 294.081234 
L 99.083636 294.090844 
L 99.534545 293.805372 
L 102.24 293.707447 
L 103.141818 293.669872 
L 104.945455 293.815804 
L 105.847273 293.792302 
L 106.749091 293.816033 
L 108.101818 293.791675 
L 108.552727 293.717891 
L 111.709091 294.008452 
L 113.061818 293.91574 
L 113.963636 294.117923 
L 116.218182 294.1364 
L 117.570909 294.263386 
L 119.825455 294.168246 
L 120.727273 294.053017 
L 121.178182 293.958036 
L 122.08 293.953356 
L 125.236364 293.88434 
L 126.138182 293.983795 
L 126.589091 293.843704 
L 129.294545 294.103551 
L 132.450909 293.920332 
L 133.352727 293.922618 
L 133.803636 293.789276 
L 134.705455 293.900811 
L 135.607273 293.693785 
L 136.058182 293.745251 
L 136.509091 293.618154 
L 136.96 293.673801 
L 137.861818 293.555534 
L 138.763636 293.509263 
L 139.214545 293.5387 
L 139.665455 293.68462 
L 141.469091 293.71758 
L 141.92 293.785928 
L 142.821818 293.691809 
L 143.272727 293.499277 
L 144.625455 293.333415 
L 145.978182 293.468346 
L 146.429091 293.321541 
L 147.330909 293.471108 
L 150.487273 292.937557 
L 151.389091 293.099497 
L 154.094545 292.677059 
L 156.349091 292.525527 
L 156.8 292.301279 
L 157.250909 292.387693 
L 157.701818 292.189187 
L 158.603636 292.143995 
L 159.054545 292.15825 
L 159.956364 291.890469 
L 161.76 291.360378 
L 162.210909 291.172127 
L 162.661818 291.250971 
L 164.014545 291.115413 
L 164.465455 291.226144 
L 166.269091 291.00698 
L 167.621818 290.507515 
L 168.072727 290.398132 
L 168.523636 290.460394 
L 168.974545 290.090964 
L 169.425455 289.912758 
L 171.229091 289.697886 
L 171.68 289.871167 
L 172.130909 289.702683 
L 173.032727 289.609976 
L 173.483636 289.340507 
L 174.385455 289.1607 
L 176.189091 289.141971 
L 177.090909 288.912269 
L 178.443636 288.743017 
L 178.894545 288.521724 
L 179.345455 288.50038 
L 179.796364 288.614806 
L 181.6 287.787515 
L 182.050909 287.806467 
L 183.854545 287.286256 
L 184.305455 286.937632 
L 184.756364 286.857644 
L 185.207273 286.641898 
L 185.658182 286.677034 
L 187.010909 286.147248 
L 187.461818 286.240927 
L 187.912727 285.980159 
L 188.363636 285.934328 
L 190.618182 284.709239 
L 191.52 284.336274 
L 192.421818 283.683072 
L 193.774545 282.068705 
L 194.225455 282.325837 
L 194.676364 282.37032 
L 196.029091 280.836603 
L 196.48 280.652697 
L 196.930909 279.877465 
L 197.832727 279.635637 
L 198.734545 279.119631 
L 199.185455 279.173408 
L 200.538182 278.326849 
L 200.989091 278.147042 
L 201.44 277.814519 
L 202.341818 277.735727 
L 202.792727 276.982443 
L 203.243636 276.972516 
L 203.694545 276.144334 
L 204.145455 275.715423 
L 205.047273 275.838527 
L 205.498182 275.531898 
L 205.949091 275.059565 
L 206.850909 274.509731 
L 207.301818 274.018194 
L 207.752727 274.319557 
L 209.556364 273.355148 
L 210.007273 272.998554 
L 210.458182 271.533179 
L 210.909091 271.811151 
L 211.810909 270.816092 
L 212.261818 270.773369 
L 212.712727 271.203541 
L 214.065455 270.224725 
L 214.516364 269.560687 
L 215.418182 269.611884 
L 215.869091 268.893378 
L 216.32 268.843923 
L 216.770909 265.037436 
L 217.221818 267.541907 
L 217.672727 269.033862 
L 218.123636 268.308906 
L 218.574545 267.903784 
L 219.025455 267.838497 
L 219.476364 266.88503 
L 219.927273 266.58627 
L 221.28 264.516798 
L 221.730909 263.165555 
L 222.181818 262.394305 
L 222.632727 261.347216 
L 223.083636 260.655889 
L 223.534545 261.759967 
L 223.985455 261.591003 
L 224.436364 261.621571 
L 224.887273 261.799929 
L 225.338182 262.132968 
L 225.789091 262.005906 
L 226.24 259.571015 
L 226.690909 259.931168 
L 228.043636 258.648138 
L 228.494545 258.47545 
L 229.396364 258.551374 
L 229.847273 256.710806 
L 230.298182 256.643771 
L 231.2 255.191238 
L 231.650909 255.686463 
L 232.101818 253.419346 
L 232.552727 253.955213 
L 233.003636 252.424774 
L 233.454545 251.691919 
L 233.905455 250.591512 
L 234.356364 251.355679 
L 234.807273 250.198117 
L 235.258182 248.272371 
L 235.709091 249.242767 
L 236.16 249.519403 
L 236.610909 248.921638 
L 237.061818 247.160805 
L 237.512727 247.649931 
L 237.963636 246.095292 
L 238.414545 246.453417 
L 239.316364 244.356625 
L 239.767273 243.294443 
L 241.12 242.960958 
L 241.570909 241.734468 
L 242.021818 241.883718 
L 242.472727 241.423623 
L 242.923636 240.208033 
L 243.374545 239.899511 
L 243.825455 238.540311 
L 244.276364 237.608534 
L 244.727273 237.444319 
L 245.178182 237.673669 
L 245.629091 237.080789 
L 246.08 234.555144 
L 246.981818 236.036603 
L 247.432727 235.752022 
L 248.334545 235.666745 
L 248.785455 235.716922 
L 249.687273 235.412193 
L 250.138182 233.991178 
L 250.589091 233.923908 
L 251.04 232.663683 
L 251.490909 232.660142 
L 251.941818 232.468701 
L 253.294545 228.86435 
L 253.745455 226.741429 
L 254.196364 228.191171 
L 254.647273 227.583526 
L 255.098182 226.327535 
L 255.549091 226.607108 
L 256 223.925592 
L 256.450909 224.319004 
L 256.901818 223.990205 
L 257.352727 222.119139 
L 257.803636 222.101431 
L 258.254545 220.706755 
L 258.705455 221.042568 
L 259.156364 219.939451 
L 259.607273 219.353443 
L 260.058182 219.664768 
L 260.509091 218.909426 
L 260.96 217.731048 
L 261.410909 218.107743 
L 261.861818 217.548872 
L 262.312727 215.694471 
L 262.763636 214.918987 
L 263.214545 214.991528 
L 263.665455 212.822981 
L 264.116364 213.208618 
L 265.018182 210.625772 
L 265.469091 208.048408 
L 265.92 208.303148 
L 266.821818 206.853881 
L 267.272727 205.230014 
L 267.723636 205.447103 
L 268.174545 204.766559 
L 268.625455 202.198976 
L 269.076364 201.29813 
L 269.527273 197.041194 
L 269.978182 199.808902 
L 270.429091 199.307103 
L 270.88 199.967147 
L 271.330909 199.192068 
L 272.232727 200.450862 
L 272.683636 200.199916 
L 273.134545 199.096465 
L 273.585455 199.428319 
L 274.487273 198.022931 
L 274.938182 196.858409 
L 275.389091 196.673729 
L 275.84 195.886529 
L 276.290909 193.055763 
L 276.741818 193.944048 
L 277.192727 190.148005 
L 277.643636 190.44185 
L 278.094545 188.378464 
L 278.545455 187.106664 
L 278.996364 186.34092 
L 279.447273 185.81274 
L 279.898182 184.767575 
L 280.349091 182.853328 
L 280.8 179.697275 
L 281.250909 180.49425 
L 283.054545 176.899738 
L 283.505455 176.308582 
L 283.956364 176.330958 
L 284.407273 176.65665 
L 284.858182 175.538281 
L 285.309091 173.970883 
L 285.76 175.375057 
L 286.210909 175.40216 
L 286.661818 176.65312 
L 287.112727 175.284093 
L 287.563636 173.155619 
L 288.014545 173.428355 
L 288.465455 172.509454 
L 289.818182 171.048125 
L 290.72 169.974732 
L 291.170909 169.858459 
L 291.621818 185.422283 
L 292.072727 167.882625 
L 292.523636 167.040769 
L 292.974545 162.787468 
L 293.425455 166.733537 
L 294.327273 166.15694 
L 294.778182 166.154149 
L 295.229091 165.626075 
L 295.68 165.365835 
L 296.130909 166.811507 
L 296.581818 167.728009 
L 297.032727 167.505209 
L 297.483636 166.263549 
L 297.934545 166.352708 
L 299.287273 165.30861 
L 299.738182 162.519154 
L 300.189091 163.62016 
L 300.64 160.665896 
L 301.090909 161.911596 
L 301.541818 159.431888 
L 301.992727 157.883576 
L 302.443636 158.796501 
L 302.894545 156.897747 
L 303.345455 155.637 
L 303.796364 155.36892 
L 304.247273 156.399625 
L 304.698182 156.94332 
L 306.050909 154.158737 
L 306.501818 154.799114 
L 306.952727 155.721972 
L 307.403636 155.900923 
L 307.854545 153.788926 
L 308.305455 153.002265 
L 308.756364 151.471263 
L 309.207273 151.094046 
L 309.658182 150.879632 
L 310.109091 151.039848 
L 310.56 150.837899 
L 311.461818 148.734821 
L 311.912727 149.961793 
L 312.363636 146.075013 
L 312.814545 146.174985 
L 313.265455 145.701016 
L 313.716364 142.866203 
L 314.167273 142.015639 
L 314.618182 141.5044 
L 315.069091 141.508124 
L 315.52 139.971246 
L 315.970909 139.866478 
L 316.421818 138.469176 
L 316.872727 137.436506 
L 317.323636 139.040425 
L 317.774545 140.073516 
L 318.676364 137.613276 
L 319.127273 138.819935 
L 319.578182 138.599305 
L 320.029091 139.124546 
L 320.48 137.26753 
L 320.930909 136.619595 
L 321.381818 138.023564 
L 321.832727 136.008208 
L 322.283636 136.169462 
L 322.734545 135.594583 
L 323.185455 135.541194 
L 323.636364 135.371725 
L 324.087273 131.390761 
L 324.538182 131.274799 
L 324.989091 131.588986 
L 325.44 132.551888 
L 326.341818 127.906201 
L 326.792727 125.856795 
L 327.243636 125.336619 
L 327.694545 125.515288 
L 328.145455 125.14125 
L 328.596364 123.105488 
L 329.047273 124.784287 
L 329.498182 122.99685 
L 329.949091 124.655542 
L 330.4 123.466491 
L 330.850909 122.746737 
L 331.301818 122.686715 
L 331.752727 122.767805 
L 332.203636 121.217798 
L 332.654545 121.393911 
L 333.105455 123.071467 
L 333.556364 122.503044 
L 334.007273 123.191158 
L 334.458182 123.472402 
L 334.909091 121.322514 
L 335.36 122.610093 
L 335.810909 122.956085 
L 336.261818 122.15707 
L 336.712727 121.668869 
L 337.163636 119.743071 
L 337.614545 120.149524 
L 338.065455 119.730382 
L 338.516364 119.869382 
L 338.967273 118.749495 
L 339.418182 118.259612 
L 339.869091 116.842121 
L 340.32 116.222543 
L 340.770909 117.098462 
L 341.221818 117.358895 
L 341.672727 117.417486 
L 342.574545 115.401696 
L 343.025455 115.884942 
L 343.476364 114.415017 
L 343.927273 115.051207 
L 344.378182 114.776278 
L 344.829091 113.759564 
L 345.28 114.00803 
L 345.730909 114.706464 
L 346.181818 114.388061 
L 346.632727 114.404702 
L 347.083636 111.763676 
L 347.985455 109.883357 
L 348.436364 110.193814 
L 348.887273 109.536462 
L 349.338182 107.348635 
L 349.789091 108.056363 
L 350.24 104.916845 
L 350.690909 107.429379 
L 351.141818 105.349422 
L 351.592727 102.506148 
L 352.043636 103.337889 
L 352.494545 101.562549 
L 352.945455 100.364586 
L 353.396364 100.479188 
L 353.847273 99.580435 
L 354.298182 101.833532 
L 354.749091 99.956497 
L 355.2 100.660314 
L 355.650909 101.073252 
L 357.003636 98.193365 
L 357.454545 100.591092 
L 357.905455 100.639134 
L 358.356364 99.57918 
L 358.807273 100.179801 
L 359.258182 101.636016 
L 359.709091 100.503469 
L 360.16 97.868313 
L 360.610909 102.242982 
L 361.061818 101.064556 
L 361.512727 99.358866 
L 361.963636 100.789727 
L 362.414545 100.893111 
L 362.865455 98.556479 
L 363.316364 97.392819 
L 363.767273 95.25956 
L 364.218182 96.299858 
L 364.669091 95.511714 
L 365.12 95.754803 
L 365.570909 96.422611 
L 366.021818 94.717337 
L 366.472727 94.01817 
L 366.923636 95.282365 
L 367.374545 94.967275 
L 367.825455 92.231671 
L 368.276364 91.629925 
L 368.727273 89.768141 
L 369.178182 92.825443 
L 369.629091 93.839401 
L 370.08 92.842612 
L 370.530909 92.651987 
L 370.981818 92.808315 
L 371.432727 87.416011 
L 371.883636 91.020796 
L 372.334545 88.943583 
L 373.236364 89.994377 
L 373.687273 84.887294 
L 374.138182 84.234597 
L 374.589091 82.180218 
L 375.04 82.098453 
L 375.490909 83.956695 
L 375.941818 81.39412 
L 376.392727 80.890398 
L 376.843636 79.567038 
L 377.294545 79.088455 
L 377.745455 77.584883 
L 378.196364 77.809683 
L 378.647273 81.455056 
L 379.098182 79.489261 
L 379.549091 78.244564 
L 380 80.61181 
L 380.450909 79.302723 
L 380.901818 78.841906 
L 381.352727 76.951894 
L 382.254545 79.959964 
L 382.705455 79.629605 
L 383.156364 80.101222 
L 383.607273 79.951796 
L 384.058182 78.257106 
L 384.509091 80.216557 
L 384.96 77.862404 
L 385.410909 77.029877 
L 385.861818 76.942653 
L 386.763636 74.011845 
L 387.214545 70.741506 
L 387.665455 72.971863 
L 388.116364 77.137635 
L 388.567273 72.445261 
L 389.018182 72.22483 
L 389.469091 75.373671 
L 390.370909 71.182638 
L 390.821818 71.126616 
L 391.272727 72.011371 
L 391.723636 71.975268 
L 392.174545 72.652798 
L 392.625455 64.687699 
L 393.076364 63.837393 
L 393.527273 64.074834 
L 393.978182 62.446974 
L 394.429091 61.913048 
L 394.88 59.081836 
L 395.330909 62.679291 
L 395.781818 64.081988 
L 396.232727 61.004439 
L 396.683636 63.032373 
L 397.134545 59.58374 
L 397.585455 57.827827 
L 398.036364 53.568 
L 398.487273 73.870112 
L 398.487273 73.870112 
" clip-path="url(#p79f6090bf0)" style="fill: none; stroke: #1f77b4; stroke-width: 1.5; stroke-linecap: square"/>
   </g>
   <g id="line2d_15">
    <path d="M 73.832727 294.781386 
L 75.636364 294.632411 
L 76.087273 294.757092 
L 86.007273 294.483752 
L 86.909091 294.474282 
L 89.163636 294.403184 
L 91.418182 294.475977 
L 93.221818 294.472693 
L 99.534545 294.38418 
L 99.985455 294.174262 
L 102.690909 294.090152 
L 104.945455 294.103815 
L 107.650909 294.138593 
L 109.905455 294.139631 
L 111.709091 294.253957 
L 113.061818 294.263274 
L 115.767273 294.295549 
L 118.923636 294.401237 
L 119.825455 294.385886 
L 121.178182 294.201588 
L 122.981818 294.173887 
L 125.236364 294.110165 
L 130.647273 294.303523 
L 136.96 293.81958 
L 137.861818 293.758351 
L 138.763636 293.690642 
L 139.665455 293.795984 
L 140.567273 293.809829 
L 141.469091 293.8652 
L 142.821818 293.902623 
L 143.723636 293.576251 
L 144.625455 293.617966 
L 145.076364 293.70414 
L 146.88 293.594382 
L 147.330909 293.653325 
L 147.781818 293.509703 
L 150.036364 293.458524 
L 150.938182 293.275539 
L 151.389091 293.273375 
L 151.84 293.39017 
L 158.152727 292.659644 
L 159.054545 292.537824 
L 159.505455 292.52867 
L 159.956364 292.375368 
L 160.858182 292.383366 
L 162.210909 291.939437 
L 164.014545 291.627983 
L 164.465455 291.762627 
L 166.269091 291.62379 
L 172.581818 290.480964 
L 173.032727 290.531152 
L 173.934545 290.244384 
L 174.836364 290.130351 
L 175.287273 289.868217 
L 176.64 290.166572 
L 177.541818 289.960683 
L 177.992727 289.900163 
L 178.443636 289.645446 
L 178.894545 289.664521 
L 179.345455 289.475837 
L 180.698182 289.379425 
L 181.149091 289.110371 
L 182.501818 288.83831 
L 182.952727 288.841247 
L 183.403636 288.668899 
L 183.854545 288.651384 
L 185.658182 288.11696 
L 186.109091 288.047885 
L 187.010909 287.588047 
L 187.461818 287.742411 
L 188.363636 287.424219 
L 191.069091 286.165296 
L 191.52 286.274785 
L 192.421818 286.107374 
L 193.774545 284.826362 
L 194.225455 284.518643 
L 194.676364 284.603239 
L 195.127273 284.438145 
L 196.48 283.476281 
L 196.930909 283.313526 
L 197.832727 282.536482 
L 198.283636 282.430013 
L 198.734545 280.963524 
L 199.185455 281.100443 
L 199.636364 282.077378 
L 200.087273 281.97129 
L 200.989091 281.221659 
L 201.44 281.899066 
L 201.890909 281.021951 
L 202.341818 280.968004 
L 202.792727 280.695374 
L 203.243636 280.057712 
L 203.694545 280.090115 
L 204.596364 279.113456 
L 205.047273 279.14291 
L 205.498182 278.924696 
L 205.949091 278.132488 
L 206.4 278.399988 
L 206.850909 277.80037 
L 207.301818 277.980235 
L 207.752727 277.763774 
L 208.203636 277.852112 
L 208.654545 277.176493 
L 209.105455 277.202534 
L 209.556364 276.513265 
L 210.007273 276.633015 
L 210.909091 275.178219 
L 211.36 274.890325 
L 211.810909 274.798768 
L 212.261818 274.464867 
L 212.712727 274.431772 
L 213.163636 274.559585 
L 213.614545 274.535344 
L 214.967273 274.058009 
L 215.418182 274.213423 
L 216.32 273.811807 
L 216.770909 273.119401 
L 217.221818 271.565236 
L 217.672727 272.725343 
L 218.123636 273.107257 
L 218.574545 272.706321 
L 219.025455 272.93889 
L 219.476364 272.358681 
L 220.378182 271.608464 
L 220.829091 270.864726 
L 221.28 270.398292 
L 221.730909 269.421153 
L 222.181818 266.52921 
L 222.632727 264.676873 
L 223.083636 267.420937 
L 223.534545 268.144568 
L 223.985455 268.16447 
L 224.436364 268.453695 
L 224.887273 268.432867 
L 225.338182 268.819946 
L 225.789091 268.021142 
L 226.24 268.161603 
L 226.690909 266.669688 
L 227.141818 266.213786 
L 227.592727 266.472982 
L 228.494545 264.985243 
L 228.945455 265.38792 
L 229.396364 265.349096 
L 229.847273 264.86965 
L 230.298182 264.173773 
L 230.749091 263.811708 
L 231.2 263.863028 
L 232.101818 261.705986 
L 232.552727 261.071537 
L 233.003636 260.730588 
L 233.454545 259.487837 
L 233.905455 259.057406 
L 235.258182 256.55147 
L 235.709091 256.976916 
L 236.610909 256.558477 
L 237.512727 255.755081 
L 237.963636 256.104345 
L 238.865455 255.661448 
L 239.767273 254.553277 
L 241.12 253.986831 
L 241.570909 253.990542 
L 242.021818 252.828694 
L 242.472727 252.711665 
L 242.923636 252.743505 
L 243.374545 252.148467 
L 244.276364 250.014246 
L 244.727273 249.202307 
L 245.178182 248.646586 
L 245.629091 245.964864 
L 246.08 242.181323 
L 246.530909 247.795107 
L 246.981818 249.018384 
L 247.432727 248.676831 
L 247.883636 248.074533 
L 248.334545 248.156497 
L 248.785455 248.466691 
L 249.687273 247.199453 
L 250.138182 246.974929 
L 251.04 246.153549 
L 251.490909 244.81811 
L 251.941818 244.50832 
L 252.392727 244.432613 
L 253.294545 243.250922 
L 253.745455 241.846272 
L 254.196364 240.970864 
L 254.647273 241.522569 
L 255.549091 239.79717 
L 256 238.209917 
L 256.450909 237.748244 
L 256.901818 237.522454 
L 257.803636 234.977072 
L 258.254545 232.994758 
L 258.705455 233.862861 
L 259.156364 233.699226 
L 259.607273 232.701769 
L 260.058182 232.028555 
L 260.509091 231.856195 
L 260.96 231.978073 
L 261.410909 233.353721 
L 261.861818 232.648373 
L 262.312727 232.964032 
L 262.763636 232.215193 
L 263.214545 232.296594 
L 263.665455 231.454344 
L 264.567273 229.098643 
L 265.018182 229.335258 
L 265.92 226.003432 
L 266.370909 226.792925 
L 266.821818 226.179351 
L 267.272727 224.727282 
L 267.723636 224.61947 
L 268.174545 223.644911 
L 268.625455 223.090028 
L 269.076364 219.219614 
L 269.527273 210.289074 
L 269.978182 216.718028 
L 270.429091 220.145985 
L 270.88 220.508102 
L 271.781818 220.130733 
L 272.232727 220.235484 
L 272.683636 220.1875 
L 273.134545 219.12051 
L 273.585455 218.854213 
L 274.036364 219.186583 
L 274.938182 217.93828 
L 275.84 215.696963 
L 276.290909 213.24207 
L 276.741818 214.067913 
L 277.192727 213.945612 
L 277.643636 209.493389 
L 278.094545 210.469842 
L 278.996364 207.499266 
L 279.447273 204.641057 
L 279.898182 204.538048 
L 280.349091 204.146623 
L 281.250909 199.167933 
L 281.701818 198.83762 
L 282.152727 198.102502 
L 282.603636 197.743499 
L 283.505455 194.902154 
L 283.956364 194.65859 
L 284.407273 194.574451 
L 284.858182 195.820181 
L 285.309091 195.963655 
L 285.76 197.020519 
L 286.210909 197.757718 
L 287.112727 198.345233 
L 287.563636 195.825311 
L 288.014545 195.189766 
L 288.465455 195.739366 
L 288.916364 194.617468 
L 289.367273 192.553196 
L 289.818182 194.349915 
L 290.269091 195.062153 
L 290.72 192.936382 
L 291.170909 192.67491 
L 291.621818 191.477756 
L 292.072727 185.422283 
L 292.523636 187.847042 
L 292.974545 177.832565 
L 293.876364 189.723708 
L 294.327273 188.180744 
L 294.778182 189.801854 
L 295.229091 189.200085 
L 295.68 189.100119 
L 296.130909 187.530111 
L 296.581818 190.180408 
L 297.032727 190.914353 
L 297.483636 190.227195 
L 297.934545 188.722017 
L 298.385455 188.208878 
L 298.836364 187.033959 
L 299.287273 186.95213 
L 299.738182 189.031835 
L 300.189091 187.843131 
L 300.64 186.152751 
L 301.090909 183.777061 
L 301.541818 183.551182 
L 301.992727 182.56876 
L 302.443636 182.688768 
L 302.894545 180.159763 
L 303.345455 180.101424 
L 303.796364 178.360862 
L 304.247273 178.083775 
L 304.698182 177.552629 
L 305.149091 175.889598 
L 306.050909 175.903342 
L 306.952727 175.230439 
L 307.403636 176.23067 
L 307.854545 174.535001 
L 308.305455 173.632273 
L 308.756364 176.864644 
L 309.207273 177.025305 
L 309.658182 176.872366 
L 310.109091 176.969981 
L 310.56 176.888498 
L 311.010909 175.270025 
L 311.461818 175.655979 
L 311.912727 176.309614 
L 312.363636 175.588206 
L 312.814545 172.276832 
L 313.265455 173.184369 
L 313.716364 172.731809 
L 314.167273 169.211667 
L 314.618182 170.933934 
L 315.970909 166.341238 
L 316.421818 151.982338 
L 316.872727 157.490023 
L 317.323636 165.773637 
L 317.774545 167.293961 
L 318.676364 165.825291 
L 319.127273 164.384954 
L 319.578182 165.461784 
L 320.029091 165.156228 
L 320.48 166.289479 
L 320.930909 163.73112 
L 321.381818 165.990825 
L 322.283636 163.644371 
L 322.734545 163.611417 
L 323.185455 164.312449 
L 323.636364 161.379846 
L 324.087273 160.883976 
L 324.538182 158.428655 
L 324.989091 160.68354 
L 325.44 162.117649 
L 325.890909 159.363528 
L 326.792727 151.682893 
L 327.243636 153.361492 
L 327.694545 151.978697 
L 328.145455 151.223501 
L 328.596364 149.42986 
L 329.047273 150.175656 
L 329.498182 150.384149 
L 329.949091 150.196742 
L 330.4 149.600373 
L 330.850909 148.64924 
L 331.301818 145.994586 
L 331.752727 149.348706 
L 332.203636 150.298274 
L 332.654545 150.476914 
L 333.105455 151.986185 
L 333.556364 152.823766 
L 334.458182 152.512793 
L 334.909091 153.094714 
L 335.36 152.758983 
L 335.810909 153.520189 
L 336.712727 150.448861 
L 337.163636 152.381972 
L 337.614545 151.725247 
L 338.065455 150.09069 
L 338.516364 150.271259 
L 338.967273 149.484036 
L 339.418182 147.032949 
L 339.869091 133.482188 
L 340.32 133.121431 
L 340.770909 146.385148 
L 341.221818 148.244926 
L 341.672727 148.625685 
L 342.123636 147.345629 
L 342.574545 145.616783 
L 343.476364 143.679544 
L 343.927273 143.624682 
L 344.378182 144.267411 
L 344.829091 143.806981 
L 345.28 133.464333 
L 345.730909 128.950334 
L 346.181818 127.192533 
L 346.632727 128.503122 
L 347.985455 123.91062 
L 348.436364 124.232969 
L 348.887273 126.665245 
L 349.338182 124.436383 
L 349.789091 123.585737 
L 350.24 125.575838 
L 350.690909 126.669965 
L 351.592727 123.229472 
L 352.043636 119.95395 
L 352.494545 119.706182 
L 352.945455 117.928438 
L 353.396364 119.463967 
L 353.847273 119.252865 
L 354.298182 120.466297 
L 354.749091 119.303581 
L 355.2 119.313274 
L 355.650909 120.337775 
L 356.101818 122.149447 
L 356.552727 121.283754 
L 357.003636 123.362474 
L 357.905455 123.509186 
L 358.356364 124.311485 
L 358.807273 122.849599 
L 359.258182 123.055939 
L 359.709091 121.899896 
L 360.16 119.80752 
L 360.610909 122.193683 
L 361.061818 122.673885 
L 361.512727 122.440466 
L 361.963636 125.122052 
L 362.414545 122.875804 
L 362.865455 118.852469 
L 363.316364 113.794618 
L 363.767273 106.571245 
L 364.218182 112.785837 
L 364.669091 117.37814 
L 365.12 116.57831 
L 365.570909 117.576013 
L 366.021818 116.340006 
L 366.923636 115.281682 
L 367.374545 115.438732 
L 367.825455 117.237896 
L 368.276364 116.792736 
L 368.727273 116.567878 
L 369.178182 114.453712 
L 369.629091 117.917719 
L 370.530909 114.655883 
L 370.981818 117.115185 
L 371.432727 115.686611 
L 371.883636 111.969236 
L 372.334545 112.334461 
L 372.785455 110.123619 
L 373.236364 108.828147 
L 373.687273 110.862103 
L 374.138182 111.273329 
L 375.04 103.139652 
L 375.490909 103.001179 
L 375.941818 102.598795 
L 376.392727 101.774994 
L 376.843636 98.784222 
L 377.294545 100.362076 
L 377.745455 98.869335 
L 378.196364 98.983679 
L 378.647273 100.336211 
L 379.098182 103.645122 
L 379.549091 104.412373 
L 380 104.467463 
L 380.450909 106.127363 
L 380.901818 103.716331 
L 381.803636 105.004984 
L 382.254545 105.305531 
L 382.705455 105.0592 
L 383.156364 104.572876 
L 383.607273 107.187627 
L 384.058182 105.984562 
L 384.509091 106.559863 
L 384.96 104.850315 
L 385.410909 106.035061 
L 386.312727 103.119211 
L 386.763636 97.307331 
L 387.214545 83.698372 
L 387.665455 91.545305 
L 388.116364 97.302148 
L 388.567273 97.675693 
L 389.018182 99.582775 
L 389.469091 97.777928 
L 389.92 100.819761 
L 390.370909 99.745096 
L 390.821818 95.966315 
L 391.272727 98.035594 
L 391.723636 98.028505 
L 392.174545 100.564805 
L 392.625455 96.262219 
L 393.076364 88.98029 
L 393.527273 89.152615 
L 393.978182 100.620692 
L 394.429091 87.746494 
L 395.330909 83.931135 
L 395.781818 87.996953 
L 396.232727 87.800739 
L 396.683636 86.320388 
L 397.134545 82.915599 
L 397.585455 83.622372 
L 398.487273 75.239461 
L 398.487273 75.239461 
" clip-path="url(#p79f6090bf0)" style="fill: none; stroke: #ff7f0e; stroke-width: 1.5; stroke-linecap: square"/>
   </g>
   <g id="line2d_16">
    <path d="M 73.832727 295.289288 
L 80.596364 295.256586 
L 81.047273 295.330393 
L 81.949091 295.208961 
L 82.4 295.302007 
L 82.850909 295.19331 
L 83.301818 295.301374 
L 83.752727 295.242912 
L 84.203636 295.3006 
L 84.654545 295.191293 
L 97.28 295.260943 
L 97.730909 295.21544 
L 98.181818 295.320155 
L 99.534545 294.990699 
L 99.985455 295.20125 
L 104.043636 295.258943 
L 104.494545 295.350993 
L 105.847273 295.209676 
L 107.2 295.247046 
L 110.356364 295.257993 
L 110.807273 295.402653 
L 112.16 295.306598 
L 113.061818 295.221972 
L 113.963636 295.361853 
L 114.414545 295.38118 
L 114.865455 295.273966 
L 115.767273 295.405104 
L 116.669091 295.424319 
L 118.021818 295.42887 
L 121.629091 295.346648 
L 122.981818 295.279871 
L 123.883636 295.309002 
L 124.334545 295.380822 
L 125.236364 295.343681 
L 126.138182 295.344437 
L 127.04 295.355238 
L 127.490909 295.459561 
L 131.098182 295.356276 
L 135.607273 295.346542 
L 136.058182 295.478108 
L 136.509091 295.327409 
L 136.96 295.423727 
L 137.410909 295.304423 
L 138.763636 295.388128 
L 139.214545 295.332833 
L 139.665455 295.458142 
L 140.567273 295.422724 
L 141.018182 295.325181 
L 141.92 295.488 
L 143.272727 295.334094 
L 143.723636 295.437314 
L 144.625455 295.284955 
L 145.076364 295.259207 
L 145.527273 295.402406 
L 145.978182 295.403855 
L 146.429091 295.272993 
L 147.781818 295.448883 
L 148.232727 295.29113 
L 149.585455 295.268859 
L 150.036364 295.112114 
L 151.389091 295.395628 
L 152.290909 295.110918 
L 152.741818 295.205454 
L 153.192727 295.077061 
L 154.545455 295.105271 
L 154.996364 295.131905 
L 155.447273 295.305173 
L 155.898182 295.202628 
L 156.349091 295.215798 
L 156.8 294.861585 
L 157.250909 295.091474 
L 157.701818 294.984149 
L 159.054545 295.189933 
L 159.505455 295.032602 
L 159.956364 295.084607 
L 160.858182 294.834459 
L 161.309091 294.893202 
L 161.76 294.789091 
L 162.210909 294.802196 
L 162.661818 294.959668 
L 163.112727 294.929851 
L 163.563636 294.787525 
L 164.014545 295.056936 
L 167.170909 294.795002 
L 168.072727 294.747763 
L 168.523636 294.770726 
L 168.974545 294.534157 
L 169.425455 294.474095 
L 170.327273 294.673281 
L 171.229091 294.624823 
L 171.68 294.913074 
L 173.483636 294.55977 
L 174.836364 294.599433 
L 175.287273 294.899377 
L 176.64 294.39657 
L 177.541818 294.486608 
L 177.992727 294.420699 
L 178.443636 294.667077 
L 178.894545 294.42671 
L 179.796364 294.731385 
L 181.149091 294.310583 
L 182.501818 294.419826 
L 182.952727 294.185521 
L 183.403636 294.336689 
L 184.305455 294.003157 
L 184.756364 294.169214 
L 185.207273 294.051434 
L 185.658182 294.12958 
L 186.56 294.076243 
L 187.010909 294.128707 
L 187.912727 293.94873 
L 188.363636 294.079615 
L 189.716364 293.89123 
L 190.167273 294.110588 
L 191.069091 293.941746 
L 191.52 293.630995 
L 191.970909 293.48925 
L 192.421818 293.145205 
L 193.323636 293.096495 
L 193.774545 292.81185 
L 194.225455 293.376701 
L 194.676364 293.336587 
L 195.127273 293.012531 
L 195.578182 292.953653 
L 196.029091 292.512985 
L 196.48 292.745923 
L 196.930909 292.133446 
L 197.832727 292.668662 
L 198.283636 292.555438 
L 198.734545 293.725613 
L 199.185455 293.642471 
L 199.636364 292.341815 
L 200.087273 292.198974 
L 200.538182 292.249818 
L 200.989091 292.494889 
L 201.44 291.484959 
L 201.890909 292.332075 
L 202.341818 292.33723 
L 202.792727 291.856576 
L 203.243636 292.484311 
L 203.694545 291.623726 
L 204.145455 291.752559 
L 204.596364 292.232163 
L 205.047273 292.265123 
L 205.498182 292.176709 
L 205.949091 292.496584 
L 206.4 291.9623 
L 206.850909 292.278868 
L 207.301818 291.607465 
L 207.752727 292.125289 
L 208.203636 291.820016 
L 208.654545 292.253225 
L 209.105455 292.038124 
L 209.556364 292.411389 
L 210.458182 291.313555 
L 210.909091 292.202439 
L 211.36 292.058155 
L 211.810909 291.586831 
L 212.261818 291.878008 
L 212.712727 292.341276 
L 213.163636 291.863683 
L 213.614545 291.588244 
L 214.065455 291.4535 
L 214.516364 290.865815 
L 214.967273 291.150091 
L 215.418182 290.967968 
L 215.869091 290.462921 
L 216.32 290.601623 
L 216.770909 287.487542 
L 217.221818 291.546177 
L 217.672727 291.878026 
L 218.123636 290.771156 
L 218.574545 290.76697 
L 219.476364 290.095855 
L 219.927273 290.144342 
L 220.378182 289.830789 
L 220.829091 289.972387 
L 221.730909 289.313909 
L 222.181818 291.434601 
L 222.632727 292.23985 
L 223.083636 288.804458 
L 223.534545 289.184906 
L 224.436364 288.737382 
L 224.887273 288.936569 
L 225.338182 288.882528 
L 225.789091 289.554271 
L 226.24 286.978918 
L 226.690909 288.830986 
L 227.141818 288.822337 
L 227.592727 288.069715 
L 228.043636 288.460571 
L 228.494545 289.059714 
L 228.945455 288.682058 
L 229.396364 288.771785 
L 229.847273 287.410662 
L 230.298182 288.039505 
L 230.749091 287.591812 
L 231.2 286.897717 
L 231.650909 288.501647 
L 232.101818 287.282867 
L 232.552727 288.453183 
L 233.003636 287.263693 
L 233.454545 287.773589 
L 233.905455 287.103612 
L 234.356364 288.732715 
L 234.807273 288.379915 
L 235.258182 287.290408 
L 236.16 288.276402 
L 236.610909 287.932667 
L 237.061818 286.638866 
L 237.512727 287.464357 
L 237.963636 285.560454 
L 238.414545 286.15714 
L 238.865455 285.191616 
L 239.767273 284.310672 
L 240.669091 284.47759 
L 241.12 284.543634 
L 241.570909 283.313432 
L 242.021818 284.624531 
L 242.472727 284.281465 
L 242.923636 283.034035 
L 243.374545 283.32055 
L 243.825455 283.039781 
L 244.276364 283.163794 
L 245.178182 284.59659 
L 245.629091 286.685431 
L 246.08 287.943328 
L 246.530909 283.051714 
L 246.981818 282.587725 
L 247.432727 282.644698 
L 247.883636 283.170027 
L 248.334545 283.079755 
L 248.785455 282.819737 
L 249.687273 283.782247 
L 250.138182 282.585755 
L 250.589091 282.872189 
L 251.04 282.079641 
L 251.490909 283.411539 
L 251.941818 283.529887 
L 252.392727 282.331813 
L 253.294545 281.182935 
L 253.745455 280.464664 
L 254.196364 282.789814 
L 254.647273 281.630464 
L 255.098182 281.264905 
L 255.549091 282.379444 
L 256 281.285182 
L 256.450909 282.140266 
L 256.901818 282.037258 
L 257.352727 281.522934 
L 257.803636 282.693865 
L 258.254545 283.281504 
L 258.705455 282.749214 
L 259.156364 281.809731 
L 259.607273 282.221181 
L 260.058182 283.20572 
L 260.509091 282.622738 
L 261.410909 280.323528 
L 261.861818 280.470005 
L 262.312727 278.299946 
L 263.214545 278.264441 
L 263.665455 276.938143 
L 264.116364 278.44851 
L 264.567273 278.225564 
L 265.018182 276.86002 
L 265.469091 276.136787 
L 265.92 277.869222 
L 266.370909 276.343497 
L 267.272727 276.072239 
L 268.174545 276.691155 
L 268.625455 274.678455 
L 269.076364 277.648023 
L 269.527273 282.321627 
L 270.429091 274.730625 
L 270.88 275.028552 
L 271.330909 274.408487 
L 271.781818 275.251047 
L 272.232727 275.784885 
L 272.683636 275.581922 
L 273.134545 275.545461 
L 273.585455 276.143613 
L 274.036364 275.159496 
L 274.487273 275.050558 
L 274.938182 274.489636 
L 275.389091 275.591591 
L 275.84 275.759072 
L 276.290909 275.383199 
L 276.741818 275.445642 
L 277.192727 271.771899 
L 277.643636 276.517968 
L 278.094545 273.478129 
L 278.545455 273.532621 
L 278.996364 274.411161 
L 279.447273 276.74119 
L 279.898182 275.799034 
L 280.349091 274.276212 
L 280.8 273.707836 
L 281.250909 276.895824 
L 281.701818 276.303676 
L 282.152727 276.313803 
L 282.603636 275.319366 
L 283.054545 276.348564 
L 283.505455 276.975935 
L 283.956364 277.241874 
L 284.407273 277.651705 
L 284.858182 275.287607 
L 285.309091 273.576734 
L 285.76 273.924045 
L 286.210909 273.213948 
L 286.661818 274.227531 
L 287.112727 272.508366 
L 287.563636 272.899814 
L 288.014545 273.808095 
L 288.465455 272.339595 
L 288.916364 272.925515 
L 289.367273 274.455309 
L 289.818182 272.267717 
L 290.269091 271.086735 
L 290.72 272.607857 
L 291.170909 272.753055 
L 291.621818 289.514033 
L 292.072727 278.029848 
L 292.523636 274.763233 
L 292.974545 280.52441 
L 293.425455 279.041895 
L 293.876364 272.255397 
L 294.327273 273.545703 
L 294.778182 271.921801 
L 295.229091 271.995497 
L 295.68 271.835222 
L 296.130909 274.850903 
L 296.581818 273.117108 
L 297.032727 272.160363 
L 297.483636 271.605861 
L 297.934545 273.200197 
L 298.385455 273.379283 
L 298.836364 274.183552 
L 299.287273 273.925986 
L 299.738182 269.056825 
L 300.189091 271.346535 
L 300.64 270.082651 
L 301.090909 273.704042 
L 301.541818 271.450213 
L 301.992727 270.884323 
L 302.894545 272.307491 
L 303.345455 271.105083 
L 304.247273 273.885356 
L 304.698182 274.960198 
L 305.149091 275.695017 
L 306.050909 273.824901 
L 306.952727 276.061039 
L 307.403636 275.239759 
L 307.854545 274.823431 
L 308.305455 274.939499 
L 308.756364 270.176126 
L 309.207273 269.638248 
L 309.658182 269.576772 
L 310.109091 269.639373 
L 310.56 269.518908 
L 311.010909 270.094731 
L 311.461818 268.648349 
L 311.912727 269.221685 
L 312.363636 266.056314 
L 312.814545 269.467659 
L 313.265455 268.086153 
L 313.716364 265.703901 
L 314.167273 268.373478 
L 314.618182 266.139972 
L 315.069091 267.611751 
L 315.52 267.658731 
L 315.970909 269.094746 
L 316.421818 282.056344 
L 317.323636 268.836294 
L 317.774545 268.349062 
L 318.225455 268.057169 
L 318.676364 267.357491 
L 319.127273 270.004487 
L 319.578182 268.707027 
L 320.029091 269.537825 
L 320.48 266.547558 
L 320.930909 268.457981 
L 321.832727 266.906743 
L 322.283636 268.094597 
L 322.734545 267.552673 
L 323.185455 266.798252 
L 323.636364 269.561385 
L 324.087273 266.076292 
L 324.538182 268.415651 
L 324.989091 266.474952 
L 325.44 266.003745 
L 325.890909 266.11321 
L 326.792727 269.743409 
L 327.243636 267.544634 
L 327.694545 269.106098 
L 328.145455 269.487255 
L 328.596364 269.245134 
L 329.047273 270.178137 
L 329.498182 268.182208 
L 329.949091 270.028306 
L 330.4 269.435625 
L 330.850909 269.667004 
L 331.301818 272.261636 
L 332.203636 266.489031 
L 332.654545 266.486504 
L 333.105455 266.654788 
L 333.556364 265.248784 
L 334.007273 266.076796 
L 334.458182 266.529116 
L 334.909091 263.797307 
L 335.36 265.420616 
L 335.810909 265.005402 
L 336.712727 266.789515 
L 337.163636 262.930606 
L 338.065455 265.209198 
L 338.516364 265.16763 
L 338.967273 264.834966 
L 339.418182 266.79617 
L 339.869091 278.929439 
L 340.32 278.670618 
L 340.770909 266.28282 
L 341.221818 264.683475 
L 341.672727 264.361308 
L 342.123636 264.723736 
L 342.574545 265.35442 
L 343.025455 266.937716 
L 343.476364 266.304979 
L 343.927273 266.996031 
L 344.378182 266.078374 
L 344.829091 265.522089 
L 345.28 276.113203 
L 345.730909 281.325636 
L 346.181818 282.765034 
L 347.083636 280.2528 
L 347.985455 281.542244 
L 348.436364 281.530352 
L 348.887273 278.440723 
L 349.338182 278.481758 
L 349.789091 280.040132 
L 350.24 274.910514 
L 350.690909 276.32892 
L 351.141818 275.868373 
L 351.592727 274.846182 
L 352.043636 278.953446 
L 352.494545 277.425874 
L 352.945455 278.005655 
L 353.396364 276.584727 
L 353.847273 275.897076 
L 354.298182 276.936741 
L 354.749091 276.222422 
L 355.2 276.916546 
L 355.650909 276.304984 
L 356.101818 273.596067 
L 356.552727 273.695552 
L 357.003636 270.400398 
L 357.454545 272.682497 
L 357.905455 272.699455 
L 358.356364 270.837202 
L 358.807273 272.899708 
L 359.258182 274.149584 
L 359.709091 274.17308 
L 360.16 273.630299 
L 360.610909 275.618805 
L 361.512727 272.487907 
L 361.963636 271.237182 
L 362.414545 273.586814 
L 362.865455 275.273517 
L 363.316364 279.167708 
L 363.767273 284.257822 
L 364.669091 273.703081 
L 365.12 274.746 
L 365.570909 274.416104 
L 366.021818 273.946838 
L 366.472727 273.85402 
L 366.923636 275.570189 
L 367.374545 275.098049 
L 367.825455 270.563281 
L 368.276364 270.406695 
L 368.727273 268.76977 
L 369.178182 273.941238 
L 369.629091 271.491189 
L 370.08 272.332025 
L 370.530909 273.56561 
L 370.981818 271.262636 
L 371.432727 267.298906 
L 371.883636 274.621066 
L 372.334545 272.178628 
L 372.785455 274.891445 
L 373.236364 276.735737 
L 373.687273 269.594697 
L 374.138182 268.530774 
L 374.589091 270.482649 
L 375.04 274.528307 
L 375.490909 276.525022 
L 375.941818 274.364831 
L 376.392727 274.684911 
L 376.843636 276.352322 
L 377.294545 274.295885 
L 377.745455 274.285054 
L 378.196364 274.39551 
L 378.647273 276.688352 
L 379.098182 271.413646 
L 379.549091 269.401697 
L 380 271.713854 
L 380.450909 268.744866 
L 380.901818 270.695082 
L 381.352727 268.183551 
L 382.254545 270.223939 
L 382.705455 270.139911 
L 383.156364 271.097853 
L 383.607273 268.333675 
L 384.058182 267.84205 
L 384.509091 269.2262 
L 384.96 268.581595 
L 385.410909 266.564322 
L 385.861818 268.035461 
L 386.312727 268.016163 
L 386.763636 272.27402 
L 387.214545 282.61264 
L 387.665455 276.996065 
L 388.116364 275.404994 
L 388.567273 270.339074 
L 389.018182 268.211562 
L 389.469091 273.165249 
L 389.92 268.021259 
L 390.370909 267.007049 
L 390.821818 270.729807 
L 391.272727 269.545283 
L 391.723636 269.516269 
L 392.174545 267.6575 
L 392.625455 263.994986 
L 393.076364 270.426609 
L 393.527273 270.491726 
L 393.978182 257.395789 
L 394.429091 269.736061 
L 394.88 268.601292 
L 395.330909 274.317663 
L 396.232727 268.773206 
L 396.683636 272.281491 
L 397.134545 272.237647 
L 397.585455 269.774962 
L 398.036364 269.910368 
L 398.487273 294.200157 
L 398.487273 294.200157 
" clip-path="url(#p79f6090bf0)" style="fill: none; stroke: #2ca02c; stroke-width: 1.5; stroke-linecap: square"/>
   </g>
   <g id="patch_3">
    <path d="M 57.6 307.584 
L 57.6 41.472 
" style="fill: none; stroke: #000000; stroke-width: 0.8; stroke-linejoin: miter; stroke-linecap: square"/>
   </g>
   <g id="patch_4">
    <path d="M 414.72 307.584 
L 414.72 41.472 
" style="fill: none; stroke: #000000; stroke-width: 0.8; stroke-linejoin: miter; stroke-linecap: square"/>
   </g>
   <g id="patch_5">
    <path d="M 57.6 307.584 
L 414.72 307.584 
" style="fill: none; stroke: #000000; stroke-width: 0.8; stroke-linejoin: miter; stroke-linecap: square"/>
   </g>
   <g id="patch_6">
    <path d="M 57.6 41.472 
L 414.72 41.472 
" style="fill: none; stroke: #000000; stroke-width: 0.8; stroke-linejoin: miter; stroke-linecap: square"/>
   </g>
   <g id="legend_1">
    <g id="patch_7">
     <path d="M 64.6 93.506375 
L 186.25625 93.506375 
Q 188.25625 93.506375 188.25625 91.506375 
L 188.25625 48.472 
Q 188.25625 46.472 186.25625 46.472 
L 64.6 46.472 
Q 62.6 46.472 62.6 48.472 
L 62.6 91.506375 
Q 62.6 93.506375 64.6 93.506375 
z
" style="fill: #ffffff; opacity: 0.8; stroke: #cccccc; stroke-linejoin: miter"/>
    </g>
    <g id="line2d_17">
     <path d="M 66.6 54.570438 
L 76.6 54.570438 
L 86.6 54.570438 
" style="fill: none; stroke: #1f77b4; stroke-width: 1.5; stroke-linecap: square"/>
    </g>
    <g id="text_16">
     <!-- Weekly maximum -->
     <g transform="translate(94.6 58.070438)scale(0.1 -0.1)">
      <defs>
       <path id="DejaVuSans-57" d="M 213 4666 
L 850 4666 
L 1831 722 
L 2809 4666 
L 3519 4666 
L 4500 722 
L 5478 4666 
L 6119 4666 
L 4947 0 
L 4153 0 
L 3169 4050 
L 2175 0 
L 1381 0 
L 213 4666 
z
" transform="scale(0.015625)"/>
       <path id="DejaVuSans-6b" d="M 581 4863 
L 1159 4863 
L 1159 1991 
L 2875 3500 
L 3609 3500 
L 1753 1863 
L 3688 0 
L 2938 0 
L 1159 1709 
L 1159 0 
L 581 0 
L 581 4863 
z
" transform="scale(0.015625)"/>
       <path id="DejaVuSans-79" d="M 2059 -325 
Q 1816 -950 1584 -1140 
Q 1353 -1331 966 -1331 
L 506 -1331 
L 506 -850 
L 844 -850 
Q 1081 -850 1212 -737 
Q 1344 -625 1503 -206 
L 1606 56 
L 191 3500 
L 800 3500 
L 1894 763 
L 2988 3500 
L 3597 3500 
L 2059 -325 
z
" transform="scale(0.015625)"/>
       <path id="DejaVuSans-6d" d="M 3328 2828 
Q 3544 3216 3844 3400 
Q 4144 3584 4550 3584 
Q 5097 3584 5394 3201 
Q 5691 2819 5691 2113 
L 5691 0 
L 5113 0 
L 5113 2094 
Q 5113 2597 4934 2840 
Q 4756 3084 4391 3084 
Q 3944 3084 3684 2787 
Q 3425 2491 3425 1978 
L 3425 0 
L 2847 0 
L 2847 2094 
Q 2847 2600 2669 2842 
Q 2491 3084 2119 3084 
Q 1678 3084 1418 2786 
Q 1159 2488 1159 1978 
L 1159 0 
L 581 0 
L 581 3500 
L 1159 3500 
L 1159 2956 
Q 1356 3278 1631 3431 
Q 1906 3584 2284 3584 
Q 2666 3584 2933 3390 
Q 3200 3197 3328 2828 
z
" transform="scale(0.015625)"/>
       <path id="DejaVuSans-78" d="M 3513 3500 
L 2247 1797 
L 3578 0 
L 2900 0 
L 1881 1375 
L 863 0 
L 184 0 
L 1544 1831 
L 300 3500 
L 978 3500 
L 1906 2253 
L 2834 3500 
L 3513 3500 
z
" transform="scale(0.015625)"/>
       <path id="DejaVuSans-75" d="M 544 1381 
L 544 3500 
L 1119 3500 
L 1119 1403 
Q 1119 906 1312 657 
Q 1506 409 1894 409 
Q 2359 409 2629 706 
Q 2900 1003 2900 1516 
L 2900 3500 
L 3475 3500 
L 3475 0 
L 2900 0 
L 2900 538 
Q 2691 219 2414 64 
Q 2138 -91 1772 -91 
Q 1169 -91 856 284 
Q 544 659 544 1381 
z
M 1991 3584 
L 1991 3584 
z
" transform="scale(0.015625)"/>
      </defs>
      <use xlink:href="#DejaVuSans-57"/>
      <use xlink:href="#DejaVuSans-65" x="93.001953"/>
      <use xlink:href="#DejaVuSans-65" x="154.525391"/>
      <use xlink:href="#DejaVuSans-6b" x="216.048828"/>
      <use xlink:href="#DejaVuSans-6c" x="273.958984"/>
      <use xlink:href="#DejaVuSans-79" x="301.742188"/>
      <use xlink:href="#DejaVuSans-20" x="360.921875"/>
      <use xlink:href="#DejaVuSans-6d" x="392.708984"/>
      <use xlink:href="#DejaVuSans-61" x="490.121094"/>
      <use xlink:href="#DejaVuSans-78" x="551.400391"/>
      <use xlink:href="#DejaVuSans-69" x="610.580078"/>
      <use xlink:href="#DejaVuSans-6d" x="638.363281"/>
      <use xlink:href="#DejaVuSans-75" x="735.775391"/>
      <use xlink:href="#DejaVuSans-6d" x="799.154297"/>
     </g>
    </g>
    <g id="line2d_18">
     <path d="M 66.6 69.248563 
L 76.6 69.248563 
L 86.6 69.248563 
" style="fill: none; stroke: #ff7f0e; stroke-width: 1.5; stroke-linecap: square"/>
    </g>
    <g id="text_17">
     <!-- Weekly minimum -->
     <g transform="translate(94.6 72.748563)scale(0.1 -0.1)">
      <defs>
       <path id="DejaVuSans-6e" d="M 3513 2113 
L 3513 0 
L 2938 0 
L 2938 2094 
Q 2938 2591 2744 2837 
Q 2550 3084 2163 3084 
Q 1697 3084 1428 2787 
Q 1159 2491 1159 1978 
L 1159 0 
L 581 0 
L 581 3500 
L 1159 3500 
L 1159 2956 
Q 1366 3272 1645 3428 
Q 1925 3584 2291 3584 
Q 2894 3584 3203 3211 
Q 3513 2838 3513 2113 
z
" transform="scale(0.015625)"/>
      </defs>
      <use xlink:href="#DejaVuSans-57"/>
      <use xlink:href="#DejaVuSans-65" x="93.001953"/>
      <use xlink:href="#DejaVuSans-65" x="154.525391"/>
      <use xlink:href="#DejaVuSans-6b" x="216.048828"/>
      <use xlink:href="#DejaVuSans-6c" x="273.958984"/>
      <use xlink:href="#DejaVuSans-79" x="301.742188"/>
      <use xlink:href="#DejaVuSans-20" x="360.921875"/>
      <use xlink:href="#DejaVuSans-6d" x="392.708984"/>
      <use xlink:href="#DejaVuSans-69" x="490.121094"/>
      <use xlink:href="#DejaVuSans-6e" x="517.904297"/>
      <use xlink:href="#DejaVuSans-69" x="581.283203"/>
      <use xlink:href="#DejaVuSans-6d" x="609.066406"/>
      <use xlink:href="#DejaVuSans-75" x="706.478516"/>
      <use xlink:href="#DejaVuSans-6d" x="769.857422"/>
     </g>
    </g>
    <g id="line2d_19">
     <path d="M 66.6 83.926688 
L 76.6 83.926688 
L 86.6 83.926688 
" style="fill: none; stroke: #2ca02c; stroke-width: 1.5; stroke-linecap: square"/>
    </g>
    <g id="text_18">
     <!-- Weekly range -->
     <g transform="translate(94.6 87.426688)scale(0.1 -0.1)">
      <use xlink:href="#DejaVuSans-57"/>
      <use xlink:href="#DejaVuSans-65" x="93.001953"/>
      <use xlink:href="#DejaVuSans-65" x="154.525391"/>
      <use xlink:href="#DejaVuSans-6b" x="216.048828"/>
      <use xlink:href="#DejaVuSans-6c" x="273.958984"/>
      <use xlink:href="#DejaVuSans-79" x="301.742188"/>
      <use xlink:href="#DejaVuSans-20" x="360.921875"/>
      <use xlink:href="#DejaVuSans-72" x="392.708984"/>
      <use xlink:href="#DejaVuSans-61" x="433.822266"/>
      <use xlink:href="#DejaVuSans-6e" x="495.101562"/>
      <use xlink:href="#DejaVuSans-67" x="558.480469"/>
      <use xlink:href="#DejaVuSans-65" x="621.957031"/>
     </g>
    </g>
   </g>
  </g>
 </g>
 <defs>
  <clipPath id="p79f6090bf0">
   <rect x="57.6" y="41.472" width="357.12" height="266.112"/>
  </clipPath>
 </defs>
</svg>
