<?xml version="1.0" encoding="utf-8" standalone="no"?>
<!DOCTYPE svg PUBLIC "-//W3C//DTD SVG 1.1//EN"
  "http://www.w3.org/Graphics/SVG/1.1/DTD/svg11.dtd">
<svg xmlns:xlink="http://www.w3.org/1999/xlink" width="460.8pt" height="345.6pt" viewBox="0 0 460.8 345.6" xmlns="http://www.w3.org/2000/svg" version="1.1">
 <metadata>
  <rdf:RDF xmlns:dc="http://purl.org/dc/elements/1.1/" xmlns:cc="http://creativecommons.org/ns#" xmlns:rdf="http://www.w3.org/1999/02/22-rdf-syntax-ns#">
   <cc:Work>
    <dc:type rdf:resource="http://purl.org/dc/dcmitype/StillImage"/>
    <dc:date>2023-11-05T05:31:32.321733</dc:date>
    <dc:format>image/svg+xml</dc:format>
    <dc:creator>
     <cc:Agent>
      <dc:title>Matplotlib v3.8.1, https://matplotlib.org/</dc:title>
     </cc:Agent>
    </dc:creator>
   </cc:Work>
  </rdf:RDF>
 </metadata>
 <defs>
  <style type="text/css">*{stroke-linejoin: round; stroke-linecap: butt}</style>
 </defs>
 <g id="figure_1">
  <g id="patch_1">
   <path d="M 0 345.6 
L 460.8 345.6 
L 460.8 0 
L 0 0 
z
" style="fill: #ffffff"/>
  </g>
  <g id="axes_1">
   <g id="patch_2">
    <path d="M 57.6 307.584 
L 414.72 307.584 
L 414.72 41.472 
L 57.6 41.472 
z
" style="fill: #ffffff"/>
   </g>
   <g id="matplotlib.axis_1">
    <g id="xtick_1">
     <g id="line2d_1">
      <defs>
       <path id="mb19682021f" d="M 0 0 
L 0 3.5 
" style="stroke: #000000; stroke-width: 0.8"/>
      </defs>
      <g>
       <use xlink:href="#mb19682021f" x="59.526116" y="307.584" style="stroke: #000000; stroke-width: 0.8"/>
      </g>
     </g>
     <g id="text_1">
      <!-- 2008 -->
      <g transform="translate(46.801116 322.182437) scale(0.1 -0.1)">
       <defs>
        <path id="DejaVuSans-32" d="M 1228 531 
L 3431 531 
L 3431 0 
L 469 0 
L 469 531 
Q 828 903 1448 1529 
Q 2069 2156 2228 2338 
Q 2531 2678 2651 2914 
Q 2772 3150 2772 3378 
Q 2772 3750 2511 3984 
Q 2250 4219 1831 4219 
Q 1534 4219 1204 4116 
Q 875 4013 500 3803 
L 500 4441 
Q 881 4594 1212 4672 
Q 1544 4750 1819 4750 
Q 2544 4750 2975 4387 
Q 3406 4025 3406 3419 
Q 3406 3131 3298 2873 
Q 3191 2616 2906 2266 
Q 2828 2175 2409 1742 
Q 1991 1309 1228 531 
z
" transform="scale(0.015625)"/>
        <path id="DejaVuSans-30" d="M 2034 4250 
Q 1547 4250 1301 3770 
Q 1056 3291 1056 2328 
Q 1056 1369 1301 889 
Q 1547 409 2034 409 
Q 2525 409 2770 889 
Q 3016 1369 3016 2328 
Q 3016 3291 2770 3770 
Q 2525 4250 2034 4250 
z
M 2034 4750 
Q 2819 4750 3233 4129 
Q 3647 3509 3647 2328 
Q 3647 1150 3233 529 
Q 2819 -91 2034 -91 
Q 1250 -91 836 529 
Q 422 1150 422 2328 
Q 422 3509 836 4129 
Q 1250 4750 2034 4750 
z
" transform="scale(0.015625)"/>
        <path id="DejaVuSans-38" d="M 2034 2216 
Q 1584 2216 1326 1975 
Q 1069 1734 1069 1313 
Q 1069 891 1326 650 
Q 1584 409 2034 409 
Q 2484 409 2743 651 
Q 3003 894 3003 1313 
Q 3003 1734 2745 1975 
Q 2488 2216 2034 2216 
z
M 1403 2484 
Q 997 2584 770 2862 
Q 544 3141 544 3541 
Q 544 4100 942 4425 
Q 1341 4750 2034 4750 
Q 2731 4750 3128 4425 
Q 3525 4100 3525 3541 
Q 3525 3141 3298 2862 
Q 3072 2584 2669 2484 
Q 3125 2378 3379 2068 
Q 3634 1759 3634 1313 
Q 3634 634 3220 271 
Q 2806 -91 2034 -91 
Q 1263 -91 848 271 
Q 434 634 434 1313 
Q 434 1759 690 2068 
Q 947 2378 1403 2484 
z
M 1172 3481 
Q 1172 3119 1398 2916 
Q 1625 2713 2034 2713 
Q 2441 2713 2670 2916 
Q 2900 3119 2900 3481 
Q 2900 3844 2670 4047 
Q 2441 4250 2034 4250 
Q 1625 4250 1398 4047 
Q 1172 3844 1172 3481 
z
" transform="scale(0.015625)"/>
       </defs>
       <use xlink:href="#DejaVuSans-32"/>
       <use xlink:href="#DejaVuSans-30" x="63.623047"/>
       <use xlink:href="#DejaVuSans-30" x="127.246094"/>
       <use xlink:href="#DejaVuSans-38" x="190.869141"/>
      </g>
     </g>
    </g>
    <g id="xtick_2">
     <g id="line2d_2">
      <g>
       <use xlink:href="#mb19682021f" x="102.387317" y="307.584" style="stroke: #000000; stroke-width: 0.8"/>
      </g>
     </g>
     <g id="text_2">
      <!-- 2010 -->
      <g transform="translate(89.662317 322.182437) scale(0.1 -0.1)">
       <defs>
        <path id="DejaVuSans-31" d="M 794 531 
L 1825 531 
L 1825 4091 
L 703 3866 
L 703 4441 
L 1819 4666 
L 2450 4666 
L 2450 531 
L 3481 531 
L 3481 0 
L 794 0 
L 794 531 
z
" transform="scale(0.015625)"/>
       </defs>
       <use xlink:href="#DejaVuSans-32"/>
       <use xlink:href="#DejaVuSans-30" x="63.623047"/>
       <use xlink:href="#DejaVuSans-31" x="127.246094"/>
       <use xlink:href="#DejaVuSans-30" x="190.869141"/>
      </g>
     </g>
    </g>
    <g id="xtick_3">
     <g id="line2d_3">
      <g>
       <use xlink:href="#mb19682021f" x="145.189885" y="307.584" style="stroke: #000000; stroke-width: 0.8"/>
      </g>
     </g>
     <g id="text_3">
      <!-- 2012 -->
      <g transform="translate(132.464885 322.182437) scale(0.1 -0.1)">
       <use xlink:href="#DejaVuSans-32"/>
       <use xlink:href="#DejaVuSans-30" x="63.623047"/>
       <use xlink:href="#DejaVuSans-31" x="127.246094"/>
       <use xlink:href="#DejaVuSans-32" x="190.869141"/>
      </g>
     </g>
    </g>
    <g id="xtick_4">
     <g id="line2d_4">
      <g>
       <use xlink:href="#mb19682021f" x="188.051086" y="307.584" style="stroke: #000000; stroke-width: 0.8"/>
      </g>
     </g>
     <g id="text_4">
      <!-- 2014 -->
      <g transform="translate(175.326086 322.182437) scale(0.1 -0.1)">
       <defs>
        <path id="DejaVuSans-34" d="M 2419 4116 
L 825 1625 
L 2419 1625 
L 2419 4116 
z
M 2253 4666 
L 3047 4666 
L 3047 1625 
L 3713 1625 
L 3713 1100 
L 3047 1100 
L 3047 0 
L 2419 0 
L 2419 1100 
L 313 1100 
L 313 1709 
L 2253 4666 
z
" transform="scale(0.015625)"/>
       </defs>
       <use xlink:href="#DejaVuSans-32"/>
       <use xlink:href="#DejaVuSans-30" x="63.623047"/>
       <use xlink:href="#DejaVuSans-31" x="127.246094"/>
       <use xlink:href="#DejaVuSans-34" x="190.869141"/>
      </g>
     </g>
    </g>
    <g id="xtick_5">
     <g id="line2d_5">
      <g>
       <use xlink:href="#mb19682021f" x="230.853654" y="307.584" style="stroke: #000000; stroke-width: 0.8"/>
      </g>
     </g>
     <g id="text_5">
      <!-- 2016 -->
      <g transform="translate(218.128654 322.182437) scale(0.1 -0.1)">
       <defs>
        <path id="DejaVuSans-36" d="M 2113 2584 
Q 1688 2584 1439 2293 
Q 1191 2003 1191 1497 
Q 1191 994 1439 701 
Q 1688 409 2113 409 
Q 2538 409 2786 701 
Q 3034 994 3034 1497 
Q 3034 2003 2786 2293 
Q 2538 2584 2113 2584 
z
M 3366 4563 
L 3366 3988 
Q 3128 4100 2886 4159 
Q 2644 4219 2406 4219 
Q 1781 4219 1451 3797 
Q 1122 3375 1075 2522 
Q 1259 2794 1537 2939 
Q 1816 3084 2150 3084 
Q 2853 3084 3261 2657 
Q 3669 2231 3669 1497 
Q 3669 778 3244 343 
Q 2819 -91 2113 -91 
Q 1303 -91 875 529 
Q 447 1150 447 2328 
Q 447 3434 972 4092 
Q 1497 4750 2381 4750 
Q 2619 4750 2861 4703 
Q 3103 4656 3366 4563 
z
" transform="scale(0.015625)"/>
       </defs>
       <use xlink:href="#DejaVuSans-32"/>
       <use xlink:href="#DejaVuSans-30" x="63.623047"/>
       <use xlink:href="#DejaVuSans-31" x="127.246094"/>
       <use xlink:href="#DejaVuSans-36" x="190.869141"/>
      </g>
     </g>
    </g>
    <g id="xtick_6">
     <g id="line2d_6">
      <g>
       <use xlink:href="#mb19682021f" x="273.714856" y="307.584" style="stroke: #000000; stroke-width: 0.8"/>
      </g>
     </g>
     <g id="text_6">
      <!-- 2018 -->
      <g transform="translate(260.989856 322.182437) scale(0.1 -0.1)">
       <use xlink:href="#DejaVuSans-32"/>
       <use xlink:href="#DejaVuSans-30" x="63.623047"/>
       <use xlink:href="#DejaVuSans-31" x="127.246094"/>
       <use xlink:href="#DejaVuSans-38" x="190.869141"/>
      </g>
     </g>
    </g>
    <g id="xtick_7">
     <g id="line2d_7">
      <g>
       <use xlink:href="#mb19682021f" x="316.517424" y="307.584" style="stroke: #000000; stroke-width: 0.8"/>
      </g>
     </g>
     <g id="text_7">
      <!-- 2020 -->
      <g transform="translate(303.792424 322.182437) scale(0.1 -0.1)">
       <use xlink:href="#DejaVuSans-32"/>
       <use xlink:href="#DejaVuSans-30" x="63.623047"/>
       <use xlink:href="#DejaVuSans-32" x="127.246094"/>
       <use xlink:href="#DejaVuSans-30" x="190.869141"/>
      </g>
     </g>
    </g>
    <g id="xtick_8">
     <g id="line2d_8">
      <g>
       <use xlink:href="#mb19682021f" x="359.378625" y="307.584" style="stroke: #000000; stroke-width: 0.8"/>
      </g>
     </g>
     <g id="text_8">
      <!-- 2022 -->
      <g transform="translate(346.653625 322.182437) scale(0.1 -0.1)">
       <use xlink:href="#DejaVuSans-32"/>
       <use xlink:href="#DejaVuSans-30" x="63.623047"/>
       <use xlink:href="#DejaVuSans-32" x="127.246094"/>
       <use xlink:href="#DejaVuSans-32" x="190.869141"/>
      </g>
     </g>
    </g>
    <g id="xtick_9">
     <g id="line2d_9">
      <g>
       <use xlink:href="#mb19682021f" x="402.181193" y="307.584" style="stroke: #000000; stroke-width: 0.8"/>
      </g>
     </g>
     <g id="text_9">
      <!-- 2024 -->
      <g transform="translate(389.456193 322.182437) scale(0.1 -0.1)">
       <use xlink:href="#DejaVuSans-32"/>
       <use xlink:href="#DejaVuSans-30" x="63.623047"/>
       <use xlink:href="#DejaVuSans-32" x="127.246094"/>
       <use xlink:href="#DejaVuSans-34" x="190.869141"/>
      </g>
     </g>
    </g>
    <g id="text_10">
     <!-- Updated 2023-11-05 05:31:32.320343 - Last record 2023-11-03 -->
     <g transform="translate(75.905312 335.860562) scale(0.1 -0.1)">
      <defs>
       <path id="DejaVuSans-55" d="M 556 4666 
L 1191 4666 
L 1191 1831 
Q 1191 1081 1462 751 
Q 1734 422 2344 422 
Q 2950 422 3222 751 
Q 3494 1081 3494 1831 
L 3494 4666 
L 4128 4666 
L 4128 1753 
Q 4128 841 3676 375 
Q 3225 -91 2344 -91 
Q 1459 -91 1007 375 
Q 556 841 556 1753 
L 556 4666 
z
" transform="scale(0.015625)"/>
       <path id="DejaVuSans-70" d="M 1159 525 
L 1159 -1331 
L 581 -1331 
L 581 3500 
L 1159 3500 
L 1159 2969 
Q 1341 3281 1617 3432 
Q 1894 3584 2278 3584 
Q 2916 3584 3314 3078 
Q 3713 2572 3713 1747 
Q 3713 922 3314 415 
Q 2916 -91 2278 -91 
Q 1894 -91 1617 61 
Q 1341 213 1159 525 
z
M 3116 1747 
Q 3116 2381 2855 2742 
Q 2594 3103 2138 3103 
Q 1681 3103 1420 2742 
Q 1159 2381 1159 1747 
Q 1159 1113 1420 752 
Q 1681 391 2138 391 
Q 2594 391 2855 752 
Q 3116 1113 3116 1747 
z
" transform="scale(0.015625)"/>
       <path id="DejaVuSans-64" d="M 2906 2969 
L 2906 4863 
L 3481 4863 
L 3481 0 
L 2906 0 
L 2906 525 
Q 2725 213 2448 61 
Q 2172 -91 1784 -91 
Q 1150 -91 751 415 
Q 353 922 353 1747 
Q 353 2572 751 3078 
Q 1150 3584 1784 3584 
Q 2172 3584 2448 3432 
Q 2725 3281 2906 2969 
z
M 947 1747 
Q 947 1113 1208 752 
Q 1469 391 1925 391 
Q 2381 391 2643 752 
Q 2906 1113 2906 1747 
Q 2906 2381 2643 2742 
Q 2381 3103 1925 3103 
Q 1469 3103 1208 2742 
Q 947 2381 947 1747 
z
" transform="scale(0.015625)"/>
       <path id="DejaVuSans-61" d="M 2194 1759 
Q 1497 1759 1228 1600 
Q 959 1441 959 1056 
Q 959 750 1161 570 
Q 1363 391 1709 391 
Q 2188 391 2477 730 
Q 2766 1069 2766 1631 
L 2766 1759 
L 2194 1759 
z
M 3341 1997 
L 3341 0 
L 2766 0 
L 2766 531 
Q 2569 213 2275 61 
Q 1981 -91 1556 -91 
Q 1019 -91 701 211 
Q 384 513 384 1019 
Q 384 1609 779 1909 
Q 1175 2209 1959 2209 
L 2766 2209 
L 2766 2266 
Q 2766 2663 2505 2880 
Q 2244 3097 1772 3097 
Q 1472 3097 1187 3025 
Q 903 2953 641 2809 
L 641 3341 
Q 956 3463 1253 3523 
Q 1550 3584 1831 3584 
Q 2591 3584 2966 3190 
Q 3341 2797 3341 1997 
z
" transform="scale(0.015625)"/>
       <path id="DejaVuSans-74" d="M 1172 4494 
L 1172 3500 
L 2356 3500 
L 2356 3053 
L 1172 3053 
L 1172 1153 
Q 1172 725 1289 603 
Q 1406 481 1766 481 
L 2356 481 
L 2356 0 
L 1766 0 
Q 1100 0 847 248 
Q 594 497 594 1153 
L 594 3053 
L 172 3053 
L 172 3500 
L 594 3500 
L 594 4494 
L 1172 4494 
z
" transform="scale(0.015625)"/>
       <path id="DejaVuSans-65" d="M 3597 1894 
L 3597 1613 
L 953 1613 
Q 991 1019 1311 708 
Q 1631 397 2203 397 
Q 2534 397 2845 478 
Q 3156 559 3463 722 
L 3463 178 
Q 3153 47 2828 -22 
Q 2503 -91 2169 -91 
Q 1331 -91 842 396 
Q 353 884 353 1716 
Q 353 2575 817 3079 
Q 1281 3584 2069 3584 
Q 2775 3584 3186 3129 
Q 3597 2675 3597 1894 
z
M 3022 2063 
Q 3016 2534 2758 2815 
Q 2500 3097 2075 3097 
Q 1594 3097 1305 2825 
Q 1016 2553 972 2059 
L 3022 2063 
z
" transform="scale(0.015625)"/>
       <path id="DejaVuSans-20" transform="scale(0.015625)"/>
       <path id="DejaVuSans-33" d="M 2597 2516 
Q 3050 2419 3304 2112 
Q 3559 1806 3559 1356 
Q 3559 666 3084 287 
Q 2609 -91 1734 -91 
Q 1441 -91 1130 -33 
Q 819 25 488 141 
L 488 750 
Q 750 597 1062 519 
Q 1375 441 1716 441 
Q 2309 441 2620 675 
Q 2931 909 2931 1356 
Q 2931 1769 2642 2001 
Q 2353 2234 1838 2234 
L 1294 2234 
L 1294 2753 
L 1863 2753 
Q 2328 2753 2575 2939 
Q 2822 3125 2822 3475 
Q 2822 3834 2567 4026 
Q 2313 4219 1838 4219 
Q 1578 4219 1281 4162 
Q 984 4106 628 3988 
L 628 4550 
Q 988 4650 1302 4700 
Q 1616 4750 1894 4750 
Q 2613 4750 3031 4423 
Q 3450 4097 3450 3541 
Q 3450 3153 3228 2886 
Q 3006 2619 2597 2516 
z
" transform="scale(0.015625)"/>
       <path id="DejaVuSans-2d" d="M 313 2009 
L 1997 2009 
L 1997 1497 
L 313 1497 
L 313 2009 
z
" transform="scale(0.015625)"/>
       <path id="DejaVuSans-35" d="M 691 4666 
L 3169 4666 
L 3169 4134 
L 1269 4134 
L 1269 2991 
Q 1406 3038 1543 3061 
Q 1681 3084 1819 3084 
Q 2600 3084 3056 2656 
Q 3513 2228 3513 1497 
Q 3513 744 3044 326 
Q 2575 -91 1722 -91 
Q 1428 -91 1123 -41 
Q 819 9 494 109 
L 494 744 
Q 775 591 1075 516 
Q 1375 441 1709 441 
Q 2250 441 2565 725 
Q 2881 1009 2881 1497 
Q 2881 1984 2565 2268 
Q 2250 2553 1709 2553 
Q 1456 2553 1204 2497 
Q 953 2441 691 2322 
L 691 4666 
z
" transform="scale(0.015625)"/>
       <path id="DejaVuSans-3a" d="M 750 794 
L 1409 794 
L 1409 0 
L 750 0 
L 750 794 
z
M 750 3309 
L 1409 3309 
L 1409 2516 
L 750 2516 
L 750 3309 
z
" transform="scale(0.015625)"/>
       <path id="DejaVuSans-2e" d="M 684 794 
L 1344 794 
L 1344 0 
L 684 0 
L 684 794 
z
" transform="scale(0.015625)"/>
       <path id="DejaVuSans-4c" d="M 628 4666 
L 1259 4666 
L 1259 531 
L 3531 531 
L 3531 0 
L 628 0 
L 628 4666 
z
" transform="scale(0.015625)"/>
       <path id="DejaVuSans-73" d="M 2834 3397 
L 2834 2853 
Q 2591 2978 2328 3040 
Q 2066 3103 1784 3103 
Q 1356 3103 1142 2972 
Q 928 2841 928 2578 
Q 928 2378 1081 2264 
Q 1234 2150 1697 2047 
L 1894 2003 
Q 2506 1872 2764 1633 
Q 3022 1394 3022 966 
Q 3022 478 2636 193 
Q 2250 -91 1575 -91 
Q 1294 -91 989 -36 
Q 684 19 347 128 
L 347 722 
Q 666 556 975 473 
Q 1284 391 1588 391 
Q 1994 391 2212 530 
Q 2431 669 2431 922 
Q 2431 1156 2273 1281 
Q 2116 1406 1581 1522 
L 1381 1569 
Q 847 1681 609 1914 
Q 372 2147 372 2553 
Q 372 3047 722 3315 
Q 1072 3584 1716 3584 
Q 2034 3584 2315 3537 
Q 2597 3491 2834 3397 
z
" transform="scale(0.015625)"/>
       <path id="DejaVuSans-72" d="M 2631 2963 
Q 2534 3019 2420 3045 
Q 2306 3072 2169 3072 
Q 1681 3072 1420 2755 
Q 1159 2438 1159 1844 
L 1159 0 
L 581 0 
L 581 3500 
L 1159 3500 
L 1159 2956 
Q 1341 3275 1631 3429 
Q 1922 3584 2338 3584 
Q 2397 3584 2469 3576 
Q 2541 3569 2628 3553 
L 2631 2963 
z
" transform="scale(0.015625)"/>
       <path id="DejaVuSans-63" d="M 3122 3366 
L 3122 2828 
Q 2878 2963 2633 3030 
Q 2388 3097 2138 3097 
Q 1578 3097 1268 2742 
Q 959 2388 959 1747 
Q 959 1106 1268 751 
Q 1578 397 2138 397 
Q 2388 397 2633 464 
Q 2878 531 3122 666 
L 3122 134 
Q 2881 22 2623 -34 
Q 2366 -91 2075 -91 
Q 1284 -91 818 406 
Q 353 903 353 1747 
Q 353 2603 823 3093 
Q 1294 3584 2113 3584 
Q 2378 3584 2631 3529 
Q 2884 3475 3122 3366 
z
" transform="scale(0.015625)"/>
       <path id="DejaVuSans-6f" d="M 1959 3097 
Q 1497 3097 1228 2736 
Q 959 2375 959 1747 
Q 959 1119 1226 758 
Q 1494 397 1959 397 
Q 2419 397 2687 759 
Q 2956 1122 2956 1747 
Q 2956 2369 2687 2733 
Q 2419 3097 1959 3097 
z
M 1959 3584 
Q 2709 3584 3137 3096 
Q 3566 2609 3566 1747 
Q 3566 888 3137 398 
Q 2709 -91 1959 -91 
Q 1206 -91 779 398 
Q 353 888 353 1747 
Q 353 2609 779 3096 
Q 1206 3584 1959 3584 
z
" transform="scale(0.015625)"/>
      </defs>
      <use xlink:href="#DejaVuSans-55"/>
      <use xlink:href="#DejaVuSans-70" x="73.193359"/>
      <use xlink:href="#DejaVuSans-64" x="136.669922"/>
      <use xlink:href="#DejaVuSans-61" x="200.146484"/>
      <use xlink:href="#DejaVuSans-74" x="261.425781"/>
      <use xlink:href="#DejaVuSans-65" x="300.634766"/>
      <use xlink:href="#DejaVuSans-64" x="362.158203"/>
      <use xlink:href="#DejaVuSans-20" x="425.634766"/>
      <use xlink:href="#DejaVuSans-32" x="457.421875"/>
      <use xlink:href="#DejaVuSans-30" x="521.044922"/>
      <use xlink:href="#DejaVuSans-32" x="584.667969"/>
      <use xlink:href="#DejaVuSans-33" x="648.291016"/>
      <use xlink:href="#DejaVuSans-2d" x="711.914062"/>
      <use xlink:href="#DejaVuSans-31" x="747.998047"/>
      <use xlink:href="#DejaVuSans-31" x="811.621094"/>
      <use xlink:href="#DejaVuSans-2d" x="875.244141"/>
      <use xlink:href="#DejaVuSans-30" x="911.328125"/>
      <use xlink:href="#DejaVuSans-35" x="974.951172"/>
      <use xlink:href="#DejaVuSans-20" x="1038.574219"/>
      <use xlink:href="#DejaVuSans-30" x="1070.361328"/>
      <use xlink:href="#DejaVuSans-35" x="1133.984375"/>
      <use xlink:href="#DejaVuSans-3a" x="1197.607422"/>
      <use xlink:href="#DejaVuSans-33" x="1231.298828"/>
      <use xlink:href="#DejaVuSans-31" x="1294.921875"/>
      <use xlink:href="#DejaVuSans-3a" x="1358.544922"/>
      <use xlink:href="#DejaVuSans-33" x="1392.236328"/>
      <use xlink:href="#DejaVuSans-32" x="1455.859375"/>
      <use xlink:href="#DejaVuSans-2e" x="1519.482422"/>
      <use xlink:href="#DejaVuSans-33" x="1551.269531"/>
      <use xlink:href="#DejaVuSans-32" x="1614.892578"/>
      <use xlink:href="#DejaVuSans-30" x="1678.515625"/>
      <use xlink:href="#DejaVuSans-33" x="1742.138672"/>
      <use xlink:href="#DejaVuSans-34" x="1805.761719"/>
      <use xlink:href="#DejaVuSans-33" x="1869.384766"/>
      <use xlink:href="#DejaVuSans-20" x="1933.007812"/>
      <use xlink:href="#DejaVuSans-2d" x="1964.794922"/>
      <use xlink:href="#DejaVuSans-20" x="2000.878906"/>
      <use xlink:href="#DejaVuSans-4c" x="2032.666016"/>
      <use xlink:href="#DejaVuSans-61" x="2088.378906"/>
      <use xlink:href="#DejaVuSans-73" x="2149.658203"/>
      <use xlink:href="#DejaVuSans-74" x="2201.757812"/>
      <use xlink:href="#DejaVuSans-20" x="2240.966797"/>
      <use xlink:href="#DejaVuSans-72" x="2272.753906"/>
      <use xlink:href="#DejaVuSans-65" x="2311.617188"/>
      <use xlink:href="#DejaVuSans-63" x="2373.140625"/>
      <use xlink:href="#DejaVuSans-6f" x="2428.121094"/>
      <use xlink:href="#DejaVuSans-72" x="2489.302734"/>
      <use xlink:href="#DejaVuSans-64" x="2528.666016"/>
      <use xlink:href="#DejaVuSans-20" x="2592.142578"/>
      <use xlink:href="#DejaVuSans-32" x="2623.929688"/>
      <use xlink:href="#DejaVuSans-30" x="2687.552734"/>
      <use xlink:href="#DejaVuSans-32" x="2751.175781"/>
      <use xlink:href="#DejaVuSans-33" x="2814.798828"/>
      <use xlink:href="#DejaVuSans-2d" x="2878.421875"/>
      <use xlink:href="#DejaVuSans-31" x="2914.505859"/>
      <use xlink:href="#DejaVuSans-31" x="2978.128906"/>
      <use xlink:href="#DejaVuSans-2d" x="3041.751953"/>
      <use xlink:href="#DejaVuSans-30" x="3077.835938"/>
      <use xlink:href="#DejaVuSans-33" x="3141.458984"/>
     </g>
    </g>
   </g>
   <g id="matplotlib.axis_2">
    <g id="ytick_1">
     <g id="line2d_10">
      <defs>
       <path id="ma77df43a74" d="M 0 0 
L -3.5 0 
" style="stroke: #000000; stroke-width: 0.8"/>
      </defs>
      <g>
       <use xlink:href="#ma77df43a74" x="57.6" y="295.562288" style="stroke: #000000; stroke-width: 0.8"/>
      </g>
     </g>
     <g id="text_11">
      <!-- 0 -->
      <g transform="translate(44.2375 299.361506) scale(0.1 -0.1)">
       <use xlink:href="#DejaVuSans-30"/>
      </g>
     </g>
    </g>
    <g id="ytick_2">
     <g id="line2d_11">
      <g>
       <use xlink:href="#ma77df43a74" x="57.6" y="242.117871" style="stroke: #000000; stroke-width: 0.8"/>
      </g>
     </g>
     <g id="text_12">
      <!-- 10 -->
      <g transform="translate(37.875 245.91709) scale(0.1 -0.1)">
       <use xlink:href="#DejaVuSans-31"/>
       <use xlink:href="#DejaVuSans-30" x="63.623047"/>
      </g>
     </g>
    </g>
    <g id="ytick_3">
     <g id="line2d_12">
      <g>
       <use xlink:href="#ma77df43a74" x="57.6" y="188.673454" style="stroke: #000000; stroke-width: 0.8"/>
      </g>
     </g>
     <g id="text_13">
      <!-- 20 -->
      <g transform="translate(37.875 192.472673) scale(0.1 -0.1)">
       <use xlink:href="#DejaVuSans-32"/>
       <use xlink:href="#DejaVuSans-30" x="63.623047"/>
      </g>
     </g>
    </g>
    <g id="ytick_4">
     <g id="line2d_13">
      <g>
       <use xlink:href="#ma77df43a74" x="57.6" y="135.229038" style="stroke: #000000; stroke-width: 0.8"/>
      </g>
     </g>
     <g id="text_14">
      <!-- 30 -->
      <g transform="translate(37.875 139.028257) scale(0.1 -0.1)">
       <use xlink:href="#DejaVuSans-33"/>
       <use xlink:href="#DejaVuSans-30" x="63.623047"/>
      </g>
     </g>
    </g>
    <g id="ytick_5">
     <g id="line2d_14">
      <g>
       <use xlink:href="#ma77df43a74" x="57.6" y="81.784621" style="stroke: #000000; stroke-width: 0.8"/>
      </g>
     </g>
     <g id="text_15">
      <!-- 40 -->
      <g transform="translate(37.875 85.58384) scale(0.1 -0.1)">
       <use xlink:href="#DejaVuSans-34"/>
       <use xlink:href="#DejaVuSans-30" x="63.623047"/>
      </g>
     </g>
    </g>
    <g id="text_16">
     <!-- IPv6 as % of total Google traffic -->
     <g transform="translate(31.795312 253.735813) rotate(-90) scale(0.1 -0.1)">
      <defs>
       <path id="DejaVuSans-49" d="M 628 4666 
L 1259 4666 
L 1259 0 
L 628 0 
L 628 4666 
z
" transform="scale(0.015625)"/>
       <path id="DejaVuSans-50" d="M 1259 4147 
L 1259 2394 
L 2053 2394 
Q 2494 2394 2734 2622 
Q 2975 2850 2975 3272 
Q 2975 3691 2734 3919 
Q 2494 4147 2053 4147 
L 1259 4147 
z
M 628 4666 
L 2053 4666 
Q 2838 4666 3239 4311 
Q 3641 3956 3641 3272 
Q 3641 2581 3239 2228 
Q 2838 1875 2053 1875 
L 1259 1875 
L 1259 0 
L 628 0 
L 628 4666 
z
" transform="scale(0.015625)"/>
       <path id="DejaVuSans-76" d="M 191 3500 
L 800 3500 
L 1894 563 
L 2988 3500 
L 3597 3500 
L 2284 0 
L 1503 0 
L 191 3500 
z
" transform="scale(0.015625)"/>
       <path id="DejaVuSans-25" d="M 4653 2053 
Q 4381 2053 4226 1822 
Q 4072 1591 4072 1178 
Q 4072 772 4226 539 
Q 4381 306 4653 306 
Q 4919 306 5073 539 
Q 5228 772 5228 1178 
Q 5228 1588 5073 1820 
Q 4919 2053 4653 2053 
z
M 4653 2450 
Q 5147 2450 5437 2106 
Q 5728 1763 5728 1178 
Q 5728 594 5436 251 
Q 5144 -91 4653 -91 
Q 4153 -91 3862 251 
Q 3572 594 3572 1178 
Q 3572 1766 3864 2108 
Q 4156 2450 4653 2450 
z
M 1428 4353 
Q 1159 4353 1004 4120 
Q 850 3888 850 3481 
Q 850 3069 1003 2837 
Q 1156 2606 1428 2606 
Q 1700 2606 1854 2837 
Q 2009 3069 2009 3481 
Q 2009 3884 1853 4118 
Q 1697 4353 1428 4353 
z
M 4250 4750 
L 4750 4750 
L 1831 -91 
L 1331 -91 
L 4250 4750 
z
M 1428 4750 
Q 1922 4750 2215 4408 
Q 2509 4066 2509 3481 
Q 2509 2891 2217 2550 
Q 1925 2209 1428 2209 
Q 931 2209 642 2551 
Q 353 2894 353 3481 
Q 353 4063 643 4406 
Q 934 4750 1428 4750 
z
" transform="scale(0.015625)"/>
       <path id="DejaVuSans-66" d="M 2375 4863 
L 2375 4384 
L 1825 4384 
Q 1516 4384 1395 4259 
Q 1275 4134 1275 3809 
L 1275 3500 
L 2222 3500 
L 2222 3053 
L 1275 3053 
L 1275 0 
L 697 0 
L 697 3053 
L 147 3053 
L 147 3500 
L 697 3500 
L 697 3744 
Q 697 4328 969 4595 
Q 1241 4863 1831 4863 
L 2375 4863 
z
" transform="scale(0.015625)"/>
       <path id="DejaVuSans-6c" d="M 603 4863 
L 1178 4863 
L 1178 0 
L 603 0 
L 603 4863 
z
" transform="scale(0.015625)"/>
       <path id="DejaVuSans-47" d="M 3809 666 
L 3809 1919 
L 2778 1919 
L 2778 2438 
L 4434 2438 
L 4434 434 
Q 4069 175 3628 42 
Q 3188 -91 2688 -91 
Q 1594 -91 976 548 
Q 359 1188 359 2328 
Q 359 3472 976 4111 
Q 1594 4750 2688 4750 
Q 3144 4750 3555 4637 
Q 3966 4525 4313 4306 
L 4313 3634 
Q 3963 3931 3569 4081 
Q 3175 4231 2741 4231 
Q 1884 4231 1454 3753 
Q 1025 3275 1025 2328 
Q 1025 1384 1454 906 
Q 1884 428 2741 428 
Q 3075 428 3337 486 
Q 3600 544 3809 666 
z
" transform="scale(0.015625)"/>
       <path id="DejaVuSans-67" d="M 2906 1791 
Q 2906 2416 2648 2759 
Q 2391 3103 1925 3103 
Q 1463 3103 1205 2759 
Q 947 2416 947 1791 
Q 947 1169 1205 825 
Q 1463 481 1925 481 
Q 2391 481 2648 825 
Q 2906 1169 2906 1791 
z
M 3481 434 
Q 3481 -459 3084 -895 
Q 2688 -1331 1869 -1331 
Q 1566 -1331 1297 -1286 
Q 1028 -1241 775 -1147 
L 775 -588 
Q 1028 -725 1275 -790 
Q 1522 -856 1778 -856 
Q 2344 -856 2625 -561 
Q 2906 -266 2906 331 
L 2906 616 
Q 2728 306 2450 153 
Q 2172 0 1784 0 
Q 1141 0 747 490 
Q 353 981 353 1791 
Q 353 2603 747 3093 
Q 1141 3584 1784 3584 
Q 2172 3584 2450 3431 
Q 2728 3278 2906 2969 
L 2906 3500 
L 3481 3500 
L 3481 434 
z
" transform="scale(0.015625)"/>
       <path id="DejaVuSans-69" d="M 603 3500 
L 1178 3500 
L 1178 0 
L 603 0 
L 603 3500 
z
M 603 4863 
L 1178 4863 
L 1178 4134 
L 603 4134 
L 603 4863 
z
" transform="scale(0.015625)"/>
      </defs>
      <use xlink:href="#DejaVuSans-49"/>
      <use xlink:href="#DejaVuSans-50" x="29.492188"/>
      <use xlink:href="#DejaVuSans-76" x="89.794922"/>
      <use xlink:href="#DejaVuSans-36" x="148.974609"/>
      <use xlink:href="#DejaVuSans-20" x="212.597656"/>
      <use xlink:href="#DejaVuSans-61" x="244.384766"/>
      <use xlink:href="#DejaVuSans-73" x="305.664062"/>
      <use xlink:href="#DejaVuSans-20" x="357.763672"/>
      <use xlink:href="#DejaVuSans-25" x="389.550781"/>
      <use xlink:href="#DejaVuSans-20" x="484.570312"/>
      <use xlink:href="#DejaVuSans-6f" x="516.357422"/>
      <use xlink:href="#DejaVuSans-66" x="577.539062"/>
      <use xlink:href="#DejaVuSans-20" x="612.744141"/>
      <use xlink:href="#DejaVuSans-74" x="644.53125"/>
      <use xlink:href="#DejaVuSans-6f" x="683.740234"/>
      <use xlink:href="#DejaVuSans-74" x="744.921875"/>
      <use xlink:href="#DejaVuSans-61" x="784.130859"/>
      <use xlink:href="#DejaVuSans-6c" x="845.410156"/>
      <use xlink:href="#DejaVuSans-20" x="873.193359"/>
      <use xlink:href="#DejaVuSans-47" x="904.980469"/>
      <use xlink:href="#DejaVuSans-6f" x="982.470703"/>
      <use xlink:href="#DejaVuSans-6f" x="1043.652344"/>
      <use xlink:href="#DejaVuSans-67" x="1104.833984"/>
      <use xlink:href="#DejaVuSans-6c" x="1168.310547"/>
      <use xlink:href="#DejaVuSans-65" x="1196.09375"/>
      <use xlink:href="#DejaVuSans-20" x="1257.617188"/>
      <use xlink:href="#DejaVuSans-74" x="1289.404297"/>
      <use xlink:href="#DejaVuSans-72" x="1328.613281"/>
      <use xlink:href="#DejaVuSans-61" x="1369.726562"/>
      <use xlink:href="#DejaVuSans-66" x="1431.005859"/>
      <use xlink:href="#DejaVuSans-66" x="1466.210938"/>
      <use xlink:href="#DejaVuSans-69" x="1501.416016"/>
      <use xlink:href="#DejaVuSans-63" x="1529.199219"/>
     </g>
    </g>
   </g>
   <g id="line2d_15">
    <path d="M 73.832727 294.588568 
L 75.47447 294.423537 
L 75.884905 294.580685 
L 77.526648 294.579995 
L 79.16839 294.436748 
L 79.578825 294.310074 
L 80.810132 294.331089 
L 82.86231 294.317829 
L 83.683181 294.258479 
L 84.504052 294.255246 
L 85.735359 294.283021 
L 87.377101 294.207568 
L 90.660586 294.272989 
L 91.071022 294.375806 
L 93.1232 294.350826 
L 94.354506 294.301753 
L 95.996249 294.205826 
L 96.81712 294.214585 
L 97.227555 293.954396 
L 99.690169 293.865144 
L 100.51104 293.830897 
L 102.563218 293.913731 
L 104.615396 293.964182 
L 106.667574 293.931442 
L 107.898881 294.120988 
L 109.130187 294.068602 
L 109.540623 294.05499 
L 110.361494 294.239266 
L 112.413672 294.256106 
L 113.644979 294.371845 
L 115.697157 294.285132 
L 116.518028 294.180108 
L 116.928463 294.093539 
L 117.749335 294.089274 
L 120.622384 294.02637 
L 121.443255 294.117017 
L 121.85369 293.989333 
L 124.316304 294.226167 
L 127.599789 294.055551 
L 128.010224 294.061259 
L 128.42066 293.939726 
L 129.241531 294.041383 
L 130.062402 293.852692 
L 130.472838 293.8996 
L 130.883273 293.783759 
L 131.293709 293.834478 
L 132.11458 293.726686 
L 133.345887 293.711342 
L 133.756322 293.844338 
L 135.398065 293.874379 
L 136.218936 293.88866 
L 136.629371 293.850891 
L 137.039807 293.675411 
L 138.681549 293.579313 
L 139.091985 293.675037 
L 142.785905 293.358828 
L 143.606776 293.16344 
L 144.427647 293.311038 
L 147.300696 292.910638 
L 147.711132 292.841219 
L 148.121568 292.94823 
L 149.352874 292.583515 
L 149.76331 292.662276 
L 150.173746 292.481351 
L 152.636359 292.106839 
L 154.688537 291.626229 
L 155.919844 291.502677 
L 156.330279 291.603601 
L 158.382457 291.223996 
L 159.613764 290.848923 
L 160.0242 290.90567 
L 160.434635 290.56896 
L 160.845071 290.406537 
L 162.486813 290.210695 
L 162.897249 290.368629 
L 163.71812 290.177886 
L 164.128555 290.130571 
L 164.538991 289.884968 
L 165.359862 289.721086 
L 167.001604 289.704015 
L 167.822476 289.494658 
L 169.053782 289.340396 
L 169.464218 289.138702 
L 169.874653 289.119248 
L 170.285089 289.223539 
L 171.926831 288.469519 
L 172.337267 288.486792 
L 173.979009 288.012655 
L 174.389445 287.694906 
L 174.79988 287.622003 
L 175.210316 287.425365 
L 175.620752 287.457389 
L 176.852058 286.974524 
L 177.262494 287.059906 
L 177.67293 286.822234 
L 178.083365 286.780462 
L 180.135543 285.663874 
L 180.956414 285.323941 
L 181.777285 284.728591 
L 183.008592 283.257202 
L 183.419028 283.491562 
L 183.829463 283.532105 
L 185.06077 282.134223 
L 185.471206 281.966605 
L 185.881641 281.260033 
L 186.702512 281.039623 
L 187.523384 280.569317 
L 187.933819 280.618331 
L 189.165126 279.846749 
L 189.575561 279.682867 
L 189.985997 279.379794 
L 190.806868 279.307981 
L 191.217304 278.621412 
L 191.627739 278.612364 
L 192.038175 277.857531 
L 192.448611 277.466607 
L 193.269482 277.578808 
L 193.679917 277.299337 
L 194.090353 276.868836 
L 194.911224 276.367699 
L 195.32166 275.919696 
L 195.732095 276.194368 
L 197.373837 275.315373 
L 197.784273 274.990361 
L 198.194709 273.654769 
L 198.605144 273.908123 
L 199.426015 273.001192 
L 199.836451 272.962253 
L 200.246887 273.354326 
L 201.478193 272.4622 
L 201.888629 271.856974 
L 202.7095 271.903636 
L 203.119936 271.248766 
L 203.530371 271.203691 
L 203.940807 267.73433 
L 204.351242 270.01699 
L 204.761678 271.376808 
L 205.172114 270.716059 
L 205.582549 270.346816 
L 205.992985 270.287311 
L 206.40342 269.418289 
L 206.813856 269.14599 
L 208.045163 267.259803 
L 208.455598 266.028235 
L 208.866034 265.325291 
L 209.276469 264.37094 
L 209.686905 263.740841 
L 210.097341 264.747135 
L 210.507776 264.593135 
L 210.918212 264.620995 
L 211.328647 264.783557 
L 211.739083 265.0871 
L 212.149518 264.971292 
L 212.559954 262.75205 
L 212.97039 263.080305 
L 214.201696 261.910909 
L 214.612132 261.753515 
L 215.433003 261.822715 
L 215.843439 260.145159 
L 216.253874 260.084062 
L 217.074745 258.760174 
L 217.485181 259.211539 
L 217.895617 257.145212 
L 218.306052 257.633619 
L 218.716488 256.238725 
L 219.126923 255.570777 
L 219.537359 254.567828 
L 219.947795 255.264316 
L 220.35823 254.209275 
L 220.768666 252.454085 
L 221.179101 253.338537 
L 221.589537 253.590672 
L 221.999972 253.045849 
L 222.410408 251.440966 
L 222.820844 251.886773 
L 223.231279 250.469822 
L 223.641715 250.796229 
L 224.462586 248.885142 
L 224.873021 247.917034 
L 226.104328 247.613085 
L 226.514764 246.49522 
L 226.925199 246.631252 
L 227.335635 246.211906 
L 227.746071 245.103976 
L 228.156506 244.822779 
L 228.566942 243.583958 
L 228.977377 242.734705 
L 229.387813 242.585034 
L 229.798248 242.794071 
L 230.208684 242.2537 
L 230.61912 239.951742 
L 231.439991 241.301994 
L 231.850426 241.042618 
L 232.671298 240.964893 
L 233.081733 241.010626 
L 233.902604 240.732886 
L 234.31304 239.437724 
L 234.723475 239.376413 
L 235.133911 238.227802 
L 235.544347 238.224574 
L 235.954782 238.050088 
L 237.186089 234.764962 
L 237.596525 232.83006 
L 238.00696 234.151404 
L 238.417396 233.597575 
L 238.827831 232.452822 
L 239.238267 232.707635 
L 239.648702 230.263611 
L 240.059138 230.62218 
L 240.469574 230.322501 
L 240.880009 228.617149 
L 241.290445 228.601009 
L 241.70088 227.329854 
L 242.111316 227.635925 
L 242.521752 226.630508 
L 242.932187 226.0964 
L 243.342623 226.380152 
L 243.753058 225.691708 
L 244.163494 224.617695 
L 244.573929 224.961027 
L 244.984365 224.451653 
L 245.394801 222.76149 
L 245.805236 222.054687 
L 246.215672 222.120804 
L 246.626107 220.144317 
L 247.036543 220.495799 
L 247.857414 218.141706 
L 248.26785 215.79261 
L 248.678285 216.024789 
L 249.499156 214.703878 
L 249.909592 213.223831 
L 250.320028 213.421693 
L 250.730463 212.801423 
L 251.140899 210.461241 
L 251.551334 209.64018 
L 251.96177 205.760265 
L 252.372205 208.282847 
L 252.782641 207.825491 
L 253.193077 208.427077 
L 253.603512 207.720644 
L 254.424383 208.867951 
L 254.834819 208.63923 
L 255.245255 207.633508 
L 255.65569 207.935971 
L 256.476561 206.655053 
L 256.886997 205.593668 
L 257.297432 205.425345 
L 257.707868 204.707864 
L 258.118304 202.127808 
L 258.528739 202.937422 
L 258.939175 199.47758 
L 259.34961 199.745401 
L 259.760046 197.864761 
L 260.170482 196.7056 
L 261.401788 194.573675 
L 261.812224 192.828966 
L 262.222659 189.952433 
L 262.633095 190.678823 
L 264.274837 187.402664 
L 264.685273 186.863864 
L 265.095709 186.884258 
L 265.506144 187.181105 
L 265.91658 186.161786 
L 266.327015 184.733206 
L 266.737451 186.013018 
L 267.147886 186.03772 
L 267.558322 187.177887 
L 267.968758 185.93011 
L 268.379193 183.990147 
L 268.789629 184.238728 
L 269.200064 183.401211 
L 270.431371 182.069306 
L 271.252242 181.09098 
L 271.662678 180.985005 
L 272.073113 195.170398 
L 272.483549 179.184163 
L 272.893985 178.416867 
L 273.30442 174.540265 
L 273.714856 178.136845 
L 274.535727 177.611315 
L 274.946163 177.608771 
L 275.356598 177.127467 
L 275.767034 176.890275 
L 276.177469 178.20791 
L 276.587905 179.043241 
L 276.99834 178.840173 
L 277.408776 177.708483 
L 277.819212 177.789745 
L 279.050518 176.838119 
L 279.460954 174.295715 
L 279.871389 175.299208 
L 280.281825 172.606593 
L 280.692261 173.741966 
L 281.102696 171.481877 
L 281.513132 170.070693 
L 281.923567 170.902764 
L 282.334003 169.172175 
L 282.744439 168.023088 
L 283.154874 167.77875 
L 283.56531 168.71817 
L 283.975745 169.213712 
L 285.207052 166.675749 
L 285.617488 167.25941 
L 286.027923 168.100534 
L 286.438359 168.263636 
L 286.848794 166.338691 
L 287.25923 165.621702 
L 287.669666 164.226295 
L 288.080101 163.882487 
L 288.490537 163.687062 
L 288.900972 163.833088 
L 289.311408 163.649026 
L 290.132279 161.732209 
L 290.542715 162.850513 
L 290.95315 159.307971 
L 291.363586 159.399088 
L 291.774021 158.967097 
L 292.184457 156.383353 
L 292.594893 155.608121 
L 293.005328 155.14216 
L 293.415764 155.145554 
L 293.826199 153.744792 
L 294.236635 153.649303 
L 295.057506 151.434545 
L 295.467942 152.89641 
L 295.878377 153.838004 
L 296.699248 151.595658 
L 297.109684 152.695448 
L 297.52012 152.494358 
L 297.930555 152.973081 
L 298.340991 151.280534 
L 298.751426 150.689984 
L 299.161862 151.969609 
L 299.572297 150.132746 
L 299.982733 150.279718 
L 300.393169 149.755754 
L 301.21404 149.552633 
L 301.624475 145.924249 
L 302.034911 145.818557 
L 302.445347 146.104918 
L 302.855782 146.982539 
L 303.676653 142.748304 
L 304.087089 140.880405 
L 304.497524 140.4063 
L 304.90796 140.569145 
L 305.318396 140.228234 
L 305.728831 138.372772 
L 306.139267 139.902886 
L 306.549702 138.273755 
L 306.960138 139.785543 
L 307.370573 138.701803 
L 307.781009 138.045794 
L 308.191445 137.991088 
L 308.60188 138.064996 
L 309.012316 136.652268 
L 309.422751 136.812783 
L 309.833187 138.341764 
L 310.243623 137.823684 
L 310.654058 138.450854 
L 311.064494 138.70719 
L 311.474929 136.747709 
L 311.885365 137.921252 
L 312.2958 138.236601 
L 312.706236 137.508351 
L 313.116672 137.063389 
L 313.527107 135.308152 
L 313.937543 135.678607 
L 314.347978 135.296586 
L 314.758414 135.423276 
L 315.16885 134.402573 
L 315.579285 133.956077 
L 315.989721 132.664128 
L 316.400156 132.099424 
L 316.810592 132.897766 
L 317.221027 133.135134 
L 317.631463 133.188535 
L 318.452334 131.351277 
L 318.86277 131.791723 
L 319.273205 130.451983 
L 319.683641 131.031829 
L 320.094077 130.781249 
L 320.504512 129.854582 
L 320.914948 130.081042 
L 321.325383 130.717618 
L 321.735819 130.427415 
L 322.146254 130.442583 
L 322.55669 128.035462 
L 323.377561 126.321676 
L 323.787997 126.604637 
L 324.198432 126.005504 
L 324.608868 124.011445 
L 325.019304 124.656492 
L 325.429739 121.79503 
L 325.840175 124.085038 
L 326.25061 122.189295 
L 326.661046 119.597839 
L 327.071481 120.355916 
L 327.481917 118.737812 
L 327.892353 117.645948 
L 328.302788 117.750399 
L 328.713224 116.931246 
L 329.123659 118.984794 
L 329.534095 117.274001 
L 329.944531 117.915484 
L 330.354966 118.29185 
L 331.586273 115.667024 
L 331.996708 117.852393 
L 332.407144 117.89618 
L 332.81758 116.930102 
L 333.228015 117.477528 
L 333.638451 118.804772 
L 334.048886 117.772531 
L 334.459322 115.37076 
L 334.869757 119.357981 
L 335.280193 118.283924 
L 335.690629 116.729301 
L 336.101064 118.033436 
L 336.5115 118.127664 
L 336.921935 115.997978 
L 337.332371 114.937379 
L 337.742807 112.993055 
L 338.153242 113.941218 
L 338.563678 113.222877 
L 338.974113 113.444436 
L 339.384549 114.053099 
L 339.794984 112.498855 
L 340.20542 111.86161 
L 340.615856 113.01384 
L 341.026291 112.726656 
L 341.436727 110.233335 
L 341.847162 109.684883 
L 342.257598 107.987991 
L 342.668034 110.774519 
L 343.078469 111.698674 
L 343.488905 110.790167 
L 343.89934 110.616425 
L 344.309776 110.758908 
L 344.720211 105.84418 
L 345.130647 109.129703 
L 345.541083 107.236461 
L 346.361954 108.19419 
L 346.772389 103.539422 
L 347.182825 102.944532 
L 347.593261 101.072102 
L 348.003696 100.997579 
L 348.414132 102.691243 
L 348.824567 100.355626 
L 349.235003 99.896517 
L 349.645438 98.690362 
L 350.055874 98.254165 
L 350.46631 96.883759 
L 350.876745 97.088649 
L 351.287181 100.411165 
L 351.697616 98.619473 
L 352.108052 97.485014 
L 352.518488 99.642603 
L 352.928923 98.449456 
L 353.339359 98.029452 
L 353.749794 96.306832 
L 354.570665 99.048488 
L 354.981101 98.747387 
L 355.391537 99.177235 
L 355.801972 99.041043 
L 356.212408 97.496446 
L 356.622843 99.282355 
L 357.033279 97.136701 
L 357.443715 96.377908 
L 357.85415 96.298409 
L 358.675021 93.627172 
L 359.085457 90.646475 
L 359.495892 92.679298 
L 359.906328 96.476122 
L 360.316764 92.199335 
L 360.727199 91.998426 
L 361.137635 94.868386 
L 361.958506 91.048537 
L 362.368942 90.997477 
L 362.779377 91.803873 
L 363.189813 91.770967 
L 363.600248 92.38849 
L 364.010684 85.128831 
L 364.421119 84.353833 
L 364.831555 84.570246 
L 365.241991 83.086559 
L 365.652426 82.599921 
L 366.062862 80.019459 
L 366.473297 83.298301 
L 366.883733 84.576766 
L 367.294168 81.771784 
L 367.704604 83.620111 
L 368.11504 80.476911 
L 368.525475 78.876513 
L 368.935911 74.993963 
L 369.346346 76.038689 
L 369.756782 70.286119 
L 370.577653 74.318511 
L 370.988089 76.159912 
L 371.398524 74.482772 
L 371.80896 74.809932 
L 372.219395 75.513539 
L 372.629831 75.370286 
L 373.040267 77.415027 
L 373.450702 76.461867 
L 373.861138 74.967604 
L 374.271573 75.312262 
L 374.682009 73.780898 
L 375.092445 74.169973 
L 375.50288 72.297109 
L 375.913316 73.619207 
L 376.323751 77.186509 
L 376.734187 74.785909 
L 377.144622 71.146489 
L 377.555058 74.162608 
L 377.965494 72.410519 
L 378.375929 74.230301 
L 378.786365 72.587045 
L 379.1968 72.56368 
L 380.428107 66.23732 
L 380.838543 69.071798 
L 381.248978 68.855059 
L 381.659414 67.436249 
L 382.069849 67.854419 
L 382.480285 70.272288 
L 383.301156 68.18337 
L 383.711592 69.71436 
L 384.122027 68.853023 
L 384.532463 67.184013 
L 384.942899 67.216469 
L 385.76377 64.447087 
L 386.174205 65.655337 
L 386.584641 65.635739 
L 386.995076 63.005621 
L 387.405512 64.360501 
L 388.226383 64.133261 
L 388.636819 62.672454 
L 389.047254 64.340609 
L 389.45769 64.389703 
L 389.868126 61.453718 
L 390.278561 61.417761 
L 390.688997 60.028484 
L 391.099432 56.364912 
L 391.509868 57.939422 
L 392.330739 57.075423 
L 392.741175 56.920183 
L 393.15161 57.312166 
L 393.562046 55.953994 
L 393.972481 57.547498 
L 394.793352 53.568 
L 395.203788 55.15531 
L 395.614224 57.309115 
L 396.024659 58.150837 
L 396.435095 54.17376 
L 396.84553 56.54084 
L 397.255966 55.313227 
L 397.666402 59.600758 
L 398.076837 56.78459 
L 398.487273 69.862754 
L 398.487273 69.862754 
" clip-path="url(#p420ed2e45a)" style="fill: none; stroke: #1f77b4; stroke-width: 1.5; stroke-linecap: square"/>
   </g>
   <g id="line2d_16">
    <path d="M 73.832727 294.843968 
L 75.47447 294.708187 
L 75.884905 294.821826 
L 84.914488 294.572695 
L 85.735359 294.564064 
L 87.787537 294.499262 
L 89.839715 294.565608 
L 91.481457 294.562615 
L 97.227555 294.481941 
L 97.637991 294.290615 
L 113.644979 294.482368 
L 115.697157 294.483496 
L 116.928463 294.31552 
L 118.570206 294.290273 
L 120.622384 294.232195 
L 125.547611 294.408428 
L 131.293709 293.967346 
L 132.11458 293.911539 
L 132.935451 293.849827 
L 133.756322 293.94584 
L 134.577193 293.958458 
L 135.398065 294.008926 
L 136.629371 294.043034 
L 137.450243 293.745568 
L 138.271114 293.783588 
L 138.681549 293.86213 
L 140.323292 293.762093 
L 140.733727 293.815815 
L 141.144163 293.684914 
L 143.196341 293.638267 
L 144.017212 293.471489 
L 146.890261 293.377849 
L 148.942439 293.110285 
L 149.352874 293.228739 
L 150.584181 292.910141 
L 152.225923 292.651042 
L 153.046795 292.658332 
L 154.278101 292.25372 
L 155.919844 291.96985 
L 156.330279 292.092569 
L 157.972022 291.966029 
L 163.71812 290.924419 
L 164.128555 290.970162 
L 164.949427 290.708792 
L 165.770298 290.604858 
L 166.180733 290.365941 
L 167.41204 290.637871 
L 168.232911 290.450217 
L 168.643347 290.395057 
L 169.053782 290.1629 
L 169.464218 290.180285 
L 169.874653 290.008312 
L 171.10596 289.920439 
L 171.516396 289.675214 
L 172.747703 289.427248 
L 173.158138 289.429926 
L 173.568574 289.272842 
L 173.979009 289.256878 
L 175.620752 288.769786 
L 176.441623 288.535688 
L 176.852058 288.287717 
L 177.262494 288.428409 
L 178.493801 287.933402 
L 179.314672 287.520806 
L 179.725107 287.208161 
L 180.545979 286.990974 
L 180.956414 287.090765 
L 181.777285 286.938181 
L 183.008592 285.770624 
L 183.419028 285.490158 
L 183.829463 285.567263 
L 184.239899 285.41679 
L 185.471206 284.540114 
L 185.881641 284.391774 
L 186.702512 283.68355 
L 187.112948 283.586511 
L 187.523384 282.249904 
L 187.933819 282.374696 
L 188.344255 283.265107 
L 188.75469 283.168415 
L 189.575561 282.485177 
L 189.985997 283.102588 
L 190.396433 282.303156 
L 190.806868 282.253987 
L 191.217304 282.005502 
L 191.627739 281.424316 
L 192.038175 281.453849 
L 192.859046 280.563689 
L 193.269482 280.590535 
L 193.679917 280.391646 
L 194.090353 279.669602 
L 194.500788 279.91341 
L 194.911224 279.366898 
L 195.32166 279.530833 
L 195.732095 279.333543 
L 196.142531 279.414057 
L 196.552966 278.798276 
L 196.963402 278.822011 
L 197.373837 278.193788 
L 197.784273 278.302932 
L 198.605144 276.976981 
L 199.01558 276.714585 
L 199.426015 276.631137 
L 199.836451 276.326808 
L 200.246887 276.296644 
L 200.657322 276.413137 
L 201.067758 276.391043 
L 202.299064 275.955984 
L 202.7095 276.097633 
L 203.530371 275.731587 
L 203.940807 275.100505 
L 204.351242 273.683987 
L 204.761678 274.741348 
L 205.172114 275.089437 
L 205.582549 274.72401 
L 205.992985 274.935982 
L 206.40342 274.40716 
L 207.224291 273.723387 
L 207.634727 273.045519 
L 208.045163 272.620395 
L 208.455598 271.729798 
L 208.866034 269.093983 
L 209.276469 267.405701 
L 209.686905 269.906734 
L 210.097341 270.566275 
L 210.507776 270.584414 
L 210.918212 270.848024 
L 211.328647 270.82904 
L 211.739083 271.181837 
L 212.149518 270.45378 
L 212.559954 270.581801 
L 212.97039 269.22202 
L 213.380825 268.806495 
L 213.791261 269.042735 
L 214.612132 267.68676 
L 215.022568 268.053773 
L 215.433003 268.018388 
L 215.843439 267.581405 
L 216.253874 266.947158 
L 216.66431 266.61716 
L 217.074745 266.663935 
L 217.895617 264.697934 
L 218.306052 264.119676 
L 218.716488 263.808924 
L 219.126923 262.676239 
L 219.537359 262.28393 
L 220.768666 259.999935 
L 221.179101 260.387701 
L 221.999972 260.006321 
L 222.820844 259.274079 
L 223.231279 259.59241 
L 224.05215 259.188739 
L 224.873021 258.178715 
L 226.104328 257.662436 
L 226.514764 257.665819 
L 226.925199 256.606872 
L 227.335635 256.500207 
L 227.746071 256.529228 
L 228.156506 255.98689 
L 229.387813 253.30166 
L 229.798248 252.795157 
L 230.208684 250.350946 
L 230.61912 246.902499 
L 231.029555 252.019091 
L 231.439991 253.134027 
L 231.850426 252.822724 
L 232.260862 252.273769 
L 232.671298 252.348474 
L 233.081733 252.631195 
L 233.902604 251.476192 
L 234.723475 250.949176 
L 235.133911 250.52292 
L 235.544347 249.305755 
L 235.954782 249.023403 
L 236.365218 248.954401 
L 237.186089 247.877367 
L 237.596525 246.597122 
L 238.00696 245.799245 
L 238.417396 246.302088 
L 239.238267 244.729502 
L 239.648702 243.282826 
L 240.059138 242.862042 
L 240.469574 242.656249 
L 241.290445 240.336301 
L 241.70088 238.529554 
L 242.111316 239.320772 
L 242.521752 239.17163 
L 242.932187 238.262514 
L 243.342623 237.648924 
L 243.753058 237.491829 
L 244.163494 237.602913 
L 244.573929 238.856725 
L 244.984365 238.213847 
L 245.394801 238.501549 
L 245.805236 237.819032 
L 246.215672 237.893224 
L 246.626107 237.125569 
L 247.446979 234.978504 
L 247.857414 235.194163 
L 248.678285 232.157424 
L 249.088721 232.876995 
L 249.499156 232.317763 
L 249.909592 230.994298 
L 250.320028 230.896035 
L 250.730463 230.007788 
L 251.140899 229.502049 
L 251.551334 225.974424 
L 251.96177 217.834829 
L 252.372205 223.694394 
L 252.782641 226.818749 
L 253.193077 227.148795 
L 254.013948 226.804849 
L 254.424383 226.900322 
L 254.834819 226.856588 
L 255.245255 225.884097 
L 255.65569 225.641385 
L 256.066126 225.944319 
L 256.886997 224.806573 
L 257.707868 222.763761 
L 258.118304 220.526289 
L 258.528739 221.27899 
L 258.939175 221.167521 
L 259.34961 217.109615 
L 259.760046 217.999587 
L 260.580917 215.292104 
L 260.991353 212.687036 
L 261.401788 212.59315 
L 261.812224 212.236392 
L 262.633095 207.698646 
L 263.043531 207.397588 
L 263.453966 206.727577 
L 263.864402 206.400369 
L 264.685273 203.810672 
L 265.095709 203.588679 
L 265.506144 203.511992 
L 265.91658 204.647392 
L 266.327015 204.77816 
L 266.737451 205.741421 
L 267.147886 206.413329 
L 267.968758 206.94881 
L 268.379193 204.652068 
L 268.789629 204.072811 
L 269.200064 204.573735 
L 269.6105 203.551199 
L 270.020936 201.669752 
L 270.431371 203.307343 
L 270.841807 203.9565 
L 271.252242 202.019001 
L 271.662678 201.780687 
L 272.073113 200.68956 
L 272.483549 195.170398 
L 272.893985 197.380405 
L 273.30442 188.252874 
L 274.125291 199.090861 
L 274.535727 197.684552 
L 274.946163 199.162087 
L 275.356598 198.613614 
L 275.767034 198.522502 
L 276.177469 197.091543 
L 276.587905 199.507113 
L 276.99834 200.176056 
L 277.408776 199.549757 
L 277.819212 198.177887 
L 278.229647 197.710194 
L 278.640083 196.639334 
L 279.050518 196.564752 
L 279.460954 198.460265 
L 279.871389 197.37684 
L 280.281825 195.836171 
L 280.692261 193.670887 
L 281.102696 193.465014 
L 281.513132 192.5696 
L 281.923567 192.67898 
L 282.334003 190.37396 
L 282.744439 190.320788 
L 283.154874 188.734381 
L 283.56531 188.481835 
L 283.975745 187.99773 
L 284.386181 186.481987 
L 285.207052 186.494515 
L 286.027923 185.881208 
L 286.438359 186.792852 
L 286.848794 185.247363 
L 287.25923 184.424586 
L 287.669666 187.370677 
L 288.080101 187.51711 
L 288.490537 187.377716 
L 288.900972 187.466685 
L 289.311408 187.392418 
L 289.721843 185.917288 
L 290.132279 186.26906 
L 290.542715 186.864805 
L 290.95315 186.207289 
L 291.363586 183.189191 
L 291.774021 184.016351 
L 292.184457 183.603872 
L 292.594893 180.395497 
L 293.005328 181.965229 
L 294.236635 177.779291 
L 294.64707 164.692106 
L 295.057506 169.711995 
L 295.467942 177.26196 
L 295.878377 178.647635 
L 296.699248 177.309039 
L 297.109684 175.996268 
L 297.52012 176.977726 
L 297.930555 176.699233 
L 298.340991 177.732116 
L 298.751426 175.400341 
L 299.161862 177.459913 
L 299.982733 175.321275 
L 300.393169 175.29124 
L 300.803604 175.930184 
L 301.21404 173.257311 
L 301.624475 172.805358 
L 302.034911 170.567496 
L 302.445347 172.622674 
L 302.855782 173.92977 
L 303.266218 171.419571 
L 304.087089 164.419181 
L 304.497524 165.949113 
L 304.90796 164.688787 
L 305.318396 164.000476 
L 305.728831 162.365692 
L 306.139267 163.045435 
L 306.549702 163.235462 
L 306.960138 163.064654 
L 307.370573 162.521103 
L 307.781009 161.654207 
L 308.191445 159.234666 
L 308.60188 162.291724 
L 309.012316 163.157193 
L 309.422751 163.320011 
L 309.833187 164.695612 
L 310.243623 165.459012 
L 311.064494 165.17558 
L 311.474929 165.705962 
L 311.885365 165.399966 
L 312.2958 166.093755 
L 313.116672 163.294443 
L 313.527107 165.056345 
L 313.937543 164.457784 
L 314.347978 162.967994 
L 314.758414 163.132571 
L 315.16885 162.415069 
L 315.579285 160.181065 
L 315.989721 147.830446 
L 316.400156 147.501639 
L 316.810592 159.590638 
L 317.221027 161.285703 
L 317.631463 161.632739 
L 318.041899 160.466052 
L 318.452334 158.890324 
L 319.273205 157.124659 
L 319.683641 157.074657 
L 320.094077 157.660461 
L 320.504512 157.24081 
L 320.914948 147.814172 
L 321.325383 143.699962 
L 321.735819 142.097842 
L 322.146254 143.292357 
L 323.377561 139.106596 
L 323.787997 139.400396 
L 324.198432 141.617254 
L 324.608868 139.585795 
L 325.019304 138.810487 
L 325.429739 140.624332 
L 325.840175 141.621557 
L 326.661046 138.485775 
L 327.071481 135.500354 
L 327.481917 135.27453 
L 327.892353 133.654234 
L 328.302788 135.053767 
L 328.713224 134.861362 
L 329.123659 135.967324 
L 329.534095 134.907586 
L 329.944531 134.91642 
L 330.354966 135.850185 
L 330.765402 137.501404 
L 331.175837 136.712382 
L 331.586273 138.606997 
L 332.407144 138.740715 
L 332.81758 139.471958 
L 333.228015 138.139546 
L 333.638451 138.327611 
L 334.048886 137.273955 
L 334.459322 135.366892 
L 334.869757 137.541722 
L 335.280193 137.979394 
L 335.690629 137.766648 
L 336.101064 140.210736 
L 336.5115 138.16343 
L 337.332371 129.886531 
L 337.742807 123.302905 
L 338.563678 133.152674 
L 338.974113 132.423682 
L 339.384549 133.333022 
L 339.794984 132.206483 
L 340.615856 131.241892 
L 341.026291 131.385032 
L 341.436727 133.024851 
L 341.847162 132.619117 
L 342.257598 132.414174 
L 342.668034 130.487251 
L 343.078469 133.644464 
L 343.89934 130.671517 
L 344.309776 132.913008 
L 344.720211 131.610958 
L 345.130647 128.222817 
L 345.541083 128.555695 
L 345.951518 126.540659 
L 346.361954 125.359922 
L 346.772389 127.213738 
L 347.182825 127.588544 
L 348.003696 120.175237 
L 348.414132 120.049028 
L 348.824567 119.682281 
L 349.235003 118.931441 
L 349.645438 116.205551 
L 350.055874 117.64366 
L 350.46631 116.283126 
L 350.876745 116.387342 
L 351.287181 117.620086 
L 351.697616 120.635938 
L 352.108052 121.335237 
L 352.518488 121.385448 
L 352.928923 122.898337 
L 353.339359 120.700841 
L 354.16023 121.875362 
L 354.570665 122.149292 
L 354.981101 121.924777 
L 355.391537 121.481525 
L 355.801972 123.864697 
L 356.212408 122.768183 
L 356.622843 123.292532 
L 357.033279 121.734392 
L 357.443715 122.81421 
L 358.264586 120.156606 
L 358.675021 114.859463 
L 359.085457 102.455799 
L 359.906328 114.854738 
L 360.316764 115.1952 
L 360.727199 116.933379 
L 361.137635 115.288381 
L 361.54807 118.06081 
L 361.958506 117.081323 
L 362.368942 113.637216 
L 362.779377 115.523226 
L 363.189813 115.516765 
L 363.600248 117.828434 
L 364.010684 113.906912 
L 364.421119 107.269917 
L 364.831555 107.42698 
L 365.241991 117.879371 
L 365.652426 106.145393 
L 366.473297 102.667947 
L 366.883733 106.37367 
L 367.294168 106.194835 
L 367.704604 104.845593 
L 368.11504 101.742354 
L 368.525475 102.38653 
L 369.346346 94.746063 
L 369.756782 95.517688 
L 370.167218 95.293184 
L 370.577653 92.834805 
L 370.988089 92.743287 
L 371.398524 93.6567 
L 371.80896 92.397608 
L 372.219395 93.241116 
L 372.629831 93.343425 
L 373.040267 96.693716 
L 373.450702 97.529127 
L 374.271573 100.545113 
L 374.682009 98.473549 
L 375.092445 99.615073 
L 375.50288 99.747257 
L 375.913316 96.884342 
L 376.323751 100.099547 
L 376.734187 100.992523 
L 377.144622 97.88309 
L 377.555058 97.042003 
L 377.965494 99.342443 
L 378.375929 95.805518 
L 378.786365 99.249327 
L 379.1968 99.553233 
L 379.607236 95.165863 
L 380.428107 80.900111 
L 380.838543 88.20104 
L 381.248978 93.175508 
L 381.659414 93.100546 
L 382.069849 93.688077 
L 382.480285 92.541031 
L 382.890721 92.675209 
L 383.301156 93.401246 
L 384.122027 91.071631 
L 384.532463 94.121923 
L 385.353334 86.813206 
L 385.76377 90.549415 
L 386.174205 86.236814 
L 386.584641 88.930423 
L 386.995076 89.591979 
L 387.405512 88.292387 
L 387.815948 85.094386 
L 388.226383 89.938224 
L 388.636819 89.777864 
L 389.047254 86.327065 
L 389.45769 86.912014 
L 389.868126 86.329 
L 390.278561 81.65372 
L 391.099432 77.046966 
L 391.509868 77.407555 
L 391.920303 77.231371 
L 392.330739 76.091936 
L 392.741175 77.497128 
L 393.15161 76.003421 
L 393.562046 77.010367 
L 393.972481 75.607467 
L 394.793352 81.060471 
L 395.203788 82.622688 
L 395.614224 81.550978 
L 396.024659 83.223494 
L 396.435095 82.758191 
L 396.84553 82.077336 
L 397.255966 81.772719 
L 397.666402 83.974378 
L 398.076837 84.666563 
L 398.487273 81.880816 
L 398.487273 81.880816 
" clip-path="url(#p420ed2e45a)" style="fill: none; stroke: #ff7f0e; stroke-width: 1.5; stroke-linecap: square"/>
   </g>
   <g id="line2d_17">
    <path d="M 73.832727 295.306888 
L 79.989261 295.277082 
L 80.399697 295.344352 
L 81.220568 295.233674 
L 81.631003 295.31848 
L 82.041439 295.21941 
L 82.451874 295.317902 
L 83.683181 295.217571 
L 95.175378 295.281053 
L 95.585813 295.23958 
L 95.996249 295.335021 
L 97.227555 295.034743 
L 97.637991 295.226646 
L 112.824108 295.429959 
L 114.055414 295.434107 
L 118.570206 295.298304 
L 119.391077 295.324856 
L 119.801512 295.390314 
L 120.622384 295.356463 
L 121.443255 295.357152 
L 122.264126 295.366996 
L 122.674562 295.462079 
L 125.958046 295.367942 
L 142.785905 295.288268 
L 143.196341 295.145405 
L 144.427647 295.403809 
L 145.248519 295.144315 
L 145.658954 295.230478 
L 146.06939 295.113456 
L 148.121568 295.321366 
L 148.942439 295.239906 
L 149.352874 294.917064 
L 149.76331 295.126593 
L 150.173746 295.028774 
L 151.405052 295.216331 
L 151.815488 295.072935 
L 152.225923 295.120334 
L 153.046795 294.892341 
L 153.45723 294.945881 
L 154.278101 294.862935 
L 154.688537 295.00646 
L 155.509408 294.849564 
L 155.919844 295.095114 
L 160.0242 294.834252 
L 160.434635 294.618636 
L 160.845071 294.563893 
L 161.665942 294.745438 
L 162.486813 294.701271 
L 162.897249 294.963994 
L 164.538991 294.64198 
L 165.770298 294.67813 
L 166.180733 294.951509 
L 167.41204 294.493234 
L 168.232911 294.575298 
L 168.643347 294.515226 
L 169.053782 294.739784 
L 169.464218 294.520704 
L 170.285089 294.798396 
L 171.516396 294.414863 
L 172.747703 294.51443 
L 173.158138 294.300877 
L 173.568574 294.438656 
L 174.389445 294.134664 
L 174.79988 294.286014 
L 175.210316 294.178665 
L 175.620752 294.249891 
L 176.441623 294.201278 
L 177.262494 294.193785 
L 177.67293 294.085057 
L 178.083365 294.204351 
L 179.314672 294.03265 
L 179.725107 294.23258 
L 180.545979 294.078692 
L 180.956414 293.795463 
L 181.36685 293.666272 
L 181.777285 293.352698 
L 182.598157 293.308302 
L 183.008592 293.048866 
L 183.419028 293.563691 
L 183.829463 293.52713 
L 184.239899 293.231774 
L 184.650334 293.178111 
L 185.06077 292.776471 
L 185.471206 292.988779 
L 185.881641 292.430546 
L 186.702512 292.91836 
L 187.112948 292.815165 
L 187.523384 293.881701 
L 187.933819 293.805922 
L 188.344255 292.620461 
L 188.75469 292.490271 
L 189.165126 292.536612 
L 189.575561 292.759978 
L 189.985997 291.839494 
L 190.396433 292.611584 
L 190.806868 292.616282 
L 191.217304 292.178198 
L 191.627739 292.750336 
L 192.038175 291.96597 
L 192.448611 292.083393 
L 192.859046 292.52052 
L 193.679917 292.469978 
L 194.090353 292.761522 
L 194.500788 292.274558 
L 194.911224 292.563089 
L 195.32166 291.95115 
L 195.732095 292.423112 
L 196.142531 292.144875 
L 196.552966 292.539717 
L 196.963402 292.343667 
L 197.373837 292.683873 
L 198.194709 291.683271 
L 198.605144 292.493429 
L 199.01558 292.361924 
L 199.426015 291.932343 
L 199.836451 292.197732 
L 200.246887 292.61997 
L 200.657322 292.184675 
L 201.478193 291.810821 
L 201.888629 291.275185 
L 202.299064 291.534284 
L 202.7095 291.368291 
L 203.119936 290.907974 
L 203.530371 291.034391 
L 203.940807 288.196113 
L 204.351242 291.89529 
L 204.761678 292.197748 
L 205.172114 291.18891 
L 205.582549 291.185094 
L 206.40342 290.573417 
L 206.813856 290.61761 
L 207.224291 290.331827 
L 207.634727 290.460885 
L 208.455598 289.860725 
L 208.866034 291.793596 
L 209.276469 292.527527 
L 209.686905 289.396395 
L 210.097341 289.743147 
L 210.918212 289.33526 
L 211.328647 289.516805 
L 211.739083 289.467551 
L 212.149518 290.079799 
L 212.559954 287.732536 
L 212.97039 289.420573 
L 213.380825 289.41269 
L 213.791261 288.726725 
L 214.201696 289.082965 
L 214.612132 289.629044 
L 215.022568 289.284835 
L 215.433003 289.366615 
L 215.843439 288.126042 
L 216.253874 288.699191 
L 216.66431 288.291148 
L 217.074745 287.658527 
L 217.485181 289.120402 
L 217.895617 288.009566 
L 218.306052 289.076231 
L 218.716488 287.992089 
L 219.126923 288.456826 
L 219.537359 287.846186 
L 219.947795 289.331005 
L 220.35823 289.009452 
L 220.768666 288.016438 
L 221.589537 288.915106 
L 221.999972 288.601815 
L 222.410408 287.422602 
L 222.820844 288.174981 
L 223.231279 286.4397 
L 223.641715 286.98354 
L 224.05215 286.103529 
L 224.873021 285.300607 
L 225.693893 285.452742 
L 226.104328 285.512936 
L 226.514764 284.391689 
L 226.925199 285.586668 
L 227.335635 285.273986 
L 227.746071 284.137037 
L 228.156506 284.398177 
L 228.566942 284.142274 
L 228.977377 284.255304 
L 229.798248 285.561202 
L 230.208684 287.465042 
L 230.61912 288.611531 
L 231.029555 284.15315 
L 231.439991 283.730255 
L 231.850426 283.782182 
L 232.260862 284.260985 
L 232.671298 284.178707 
L 233.081733 283.941719 
L 233.902604 284.818982 
L 234.31304 283.728459 
L 234.723475 283.989525 
L 235.133911 283.26717 
L 235.544347 284.481106 
L 235.954782 284.588973 
L 236.365218 283.497008 
L 237.186089 282.449882 
L 237.596525 281.795225 
L 238.00696 283.914446 
L 238.417396 282.857775 
L 238.827831 282.524592 
L 239.238267 283.54042 
L 239.648702 282.543073 
L 240.059138 283.322426 
L 240.469574 283.22854 
L 240.880009 282.759769 
L 241.290445 283.826995 
L 241.70088 284.362588 
L 242.111316 283.877441 
L 242.521752 283.021165 
L 242.932187 283.396174 
L 243.342623 284.293516 
L 243.753058 283.762167 
L 244.573929 281.66659 
L 244.984365 281.800094 
L 245.394801 279.822228 
L 246.215672 279.789868 
L 246.626107 278.581035 
L 247.036543 279.957635 
L 247.446979 279.754434 
L 247.857414 278.509831 
L 248.26785 277.850653 
L 248.678285 279.429652 
L 249.088721 278.039055 
L 249.909592 277.791821 
L 250.730463 278.355922 
L 251.140899 276.52148 
L 251.551334 279.228044 
L 251.96177 283.487724 
L 252.782641 276.569029 
L 253.193077 276.84057 
L 253.603512 276.275422 
L 254.013948 277.043359 
L 254.424383 277.529917 
L 254.834819 277.34493 
L 255.245255 277.311698 
L 255.65569 277.856874 
L 256.066126 276.959916 
L 256.476561 276.860627 
L 256.886997 276.349383 
L 257.297432 277.353743 
L 257.707868 277.506391 
L 258.118304 277.163807 
L 258.528739 277.22072 
L 258.939175 273.872347 
L 259.34961 278.198074 
L 259.760046 275.427462 
L 260.170482 275.477128 
L 260.580917 276.277859 
L 260.991353 278.401526 
L 261.401788 277.542813 
L 261.812224 276.154862 
L 262.222659 275.636825 
L 262.633095 278.542464 
L 263.043531 278.002761 
L 263.453966 278.011991 
L 263.864402 277.105627 
L 264.274837 278.043673 
L 264.685273 278.61548 
L 265.095709 278.857867 
L 265.506144 279.2314 
L 265.91658 277.076682 
L 266.327015 275.517334 
L 266.737451 275.833885 
L 267.147886 275.186679 
L 267.558322 276.110492 
L 267.968758 274.543587 
L 268.379193 274.900366 
L 268.789629 275.728204 
L 269.200064 274.389764 
L 269.6105 274.923791 
L 270.020936 276.318097 
L 270.431371 274.324252 
L 270.841807 273.247865 
L 271.252242 274.634267 
L 271.662678 274.766606 
L 272.073113 290.043126 
L 272.483549 279.576053 
L 272.893985 276.59875 
L 273.30442 281.84968 
L 273.714856 280.498466 
L 274.125291 274.313023 
L 274.535727 275.489051 
L 274.946163 274.008972 
L 275.356598 274.076141 
L 275.767034 273.930062 
L 276.177469 276.678654 
L 276.587905 275.098415 
L 276.99834 274.226405 
L 277.408776 273.721014 
L 277.819212 275.174146 
L 278.229647 275.337371 
L 278.640083 276.070409 
L 279.050518 275.835654 
L 279.460954 271.397737 
L 279.871389 273.484656 
L 280.281825 272.332709 
L 280.692261 275.633367 
L 281.102696 273.579151 
L 281.513132 273.06338 
L 282.334003 274.360503 
L 282.744439 273.264588 
L 283.56531 275.798623 
L 283.975745 276.778269 
L 284.386181 277.448008 
L 285.207052 275.743521 
L 286.027923 277.781614 
L 286.438359 277.033071 
L 286.848794 276.653616 
L 287.25923 276.759404 
L 287.669666 272.417905 
L 288.080101 271.927665 
L 288.490537 271.871634 
L 288.900972 271.928691 
L 289.311408 271.818895 
L 289.721843 272.343719 
L 290.132279 271.025438 
L 290.542715 271.547996 
L 290.95315 268.66297 
L 291.363586 271.772184 
L 291.774021 270.513034 
L 292.184457 268.341769 
L 292.594893 270.774912 
L 293.005328 268.739219 
L 293.415764 270.080647 
L 293.826199 270.123467 
L 294.236635 271.432299 
L 294.64707 283.245936 
L 295.467942 271.196738 
L 295.878377 270.752657 
L 296.288813 270.486616 
L 296.699248 269.848907 
L 297.109684 272.261468 
L 297.52012 271.078919 
L 297.930555 271.836136 
L 298.340991 269.110706 
L 298.751426 270.85193 
L 299.572297 269.43808 
L 299.982733 270.52073 
L 300.393169 270.026802 
L 300.803604 269.339197 
L 301.21404 271.85761 
L 301.624475 268.681178 
L 302.034911 270.813349 
L 302.445347 269.044531 
L 302.855782 268.615057 
L 303.266218 268.714827 
L 304.087089 272.023512 
L 304.497524 270.019475 
L 304.90796 271.442646 
L 305.318396 271.790046 
L 305.728831 271.569368 
L 306.139267 272.419738 
L 306.549702 270.600581 
L 306.960138 272.283177 
L 307.370573 271.742988 
L 307.781009 271.953874 
L 308.191445 274.318709 
L 309.012316 269.057363 
L 309.422751 269.05506 
L 309.833187 269.20844 
L 310.243623 267.92696 
L 310.654058 268.681638 
L 311.064494 269.093898 
L 311.474929 266.604034 
L 311.885365 268.083574 
L 312.2958 267.705134 
L 313.116672 269.331234 
L 313.527107 265.814094 
L 314.347978 267.89088 
L 314.758414 267.852993 
L 315.16885 267.549792 
L 315.579285 269.3373 
L 315.989721 280.39597 
L 316.400156 280.160072 
L 316.810592 268.869415 
L 317.221027 267.411719 
L 317.631463 267.118084 
L 318.041899 267.448414 
L 318.452334 268.02324 
L 318.86277 269.466309 
L 319.273205 268.889612 
L 319.683641 269.519459 
L 320.094077 268.683076 
L 320.504512 268.176059 
L 320.914948 277.829158 
L 321.325383 282.579944 
L 321.735819 283.89186 
L 322.55669 281.602125 
L 323.377561 282.777368 
L 323.787997 282.766529 
L 324.198432 279.950538 
L 324.608868 279.987938 
L 325.019304 281.408293 
L 325.429739 276.732986 
L 325.840175 278.025769 
L 326.25061 277.606011 
L 326.661046 276.674352 
L 327.071481 280.41785 
L 327.481917 279.02557 
L 327.892353 279.554001 
L 328.302788 278.25892 
L 328.713224 277.632172 
L 329.123659 278.579758 
L 329.534095 277.928703 
L 329.944531 278.561352 
L 330.354966 278.003953 
L 330.765402 275.534955 
L 331.175837 275.625628 
L 331.586273 272.622314 
L 331.996708 274.702296 
L 332.407144 274.717752 
L 332.81758 273.020432 
L 333.228015 274.90027 
L 333.638451 276.039449 
L 334.048886 276.060864 
L 334.459322 275.566155 
L 334.869757 277.378546 
L 335.690629 274.524941 
L 336.101064 273.384987 
L 336.5115 275.526521 
L 336.921935 277.063839 
L 337.332371 280.613136 
L 337.742807 285.252438 
L 338.563678 275.632491 
L 338.974113 276.583042 
L 340.20542 275.770062 
L 340.615856 277.334236 
L 341.026291 276.903912 
L 341.436727 272.770772 
L 341.847162 272.628054 
L 342.257598 271.136105 
L 342.668034 275.849555 
L 343.078469 273.616498 
L 343.488905 274.382864 
L 343.89934 275.507196 
L 344.309776 273.408187 
L 344.720211 269.795511 
L 345.130647 276.469174 
L 345.541083 274.243053 
L 345.951518 276.715606 
L 346.361954 278.396556 
L 346.772389 271.887972 
L 347.182825 270.918276 
L 347.593261 272.697281 
L 348.003696 276.38463 
L 348.414132 278.204503 
L 348.824567 276.235632 
L 349.235003 276.527364 
L 349.645438 278.047099 
L 350.055874 276.172792 
L 350.876745 276.263594 
L 351.287181 278.353367 
L 351.697616 273.545823 
L 352.108052 271.712065 
L 352.518488 273.819442 
L 352.928923 271.113407 
L 353.339359 272.890899 
L 353.749794 270.601805 
L 354.570665 272.461484 
L 354.981101 272.384898 
L 355.391537 273.257998 
L 355.801972 270.738634 
L 356.212408 270.29055 
L 356.622843 271.552111 
L 357.033279 270.964597 
L 357.443715 269.125986 
L 357.85415 270.466831 
L 358.264586 270.449243 
L 358.675021 274.329997 
L 359.085457 283.752964 
L 359.495892 278.633828 
L 359.906328 277.183672 
L 360.316764 272.566422 
L 360.727199 270.627336 
L 361.137635 275.142293 
L 361.54807 270.453887 
L 361.958506 269.529502 
L 362.368942 272.922549 
L 362.779377 271.842934 
L 363.189813 271.81649 
L 363.600248 270.122345 
L 364.010684 266.784206 
L 364.421119 272.646204 
L 364.831555 272.705554 
L 365.241991 260.769475 
L 365.652426 272.016816 
L 366.062862 270.982548 
L 366.473297 276.192642 
L 367.294168 271.139237 
L 367.704604 274.336806 
L 368.11504 274.296845 
L 368.525475 272.052271 
L 368.935911 272.175684 
L 369.346346 276.854914 
L 369.756782 270.330719 
L 370.167218 272.885565 
L 370.577653 277.045994 
L 370.988089 278.978913 
L 371.398524 276.38836 
L 371.80896 277.974612 
L 372.629831 277.58915 
L 373.040267 276.283599 
L 373.450702 274.495028 
L 373.861138 271.604016 
L 374.271573 270.329436 
L 374.682009 270.869636 
L 375.092445 270.117187 
L 375.50288 268.11214 
L 375.913316 272.297153 
L 376.323751 272.64925 
L 376.734187 269.355674 
L 377.144622 268.825687 
L 377.555058 272.682893 
L 377.965494 268.630364 
L 378.375929 273.987071 
L 378.786365 268.900007 
L 379.1968 268.572734 
L 379.607236 270.656019 
L 380.017672 274.976968 
L 380.428107 280.899497 
L 381.248978 271.241839 
L 381.659414 269.89799 
L 382.069849 269.72863 
L 382.480285 273.293544 
L 383.301156 270.344411 
L 383.711592 273.142783 
L 384.122027 273.34368 
L 384.532463 268.624378 
L 384.942899 272.708963 
L 385.353334 274.746489 
L 385.76377 269.45996 
L 386.174205 274.980811 
L 386.995076 268.97593 
L 387.815948 274.667749 
L 388.226383 269.757325 
L 388.636819 268.456878 
L 389.047254 273.575832 
L 389.45769 273.039977 
L 389.868126 270.687006 
L 390.278561 275.326329 
L 390.688997 276.307552 
L 391.099432 274.880234 
L 391.509868 276.094154 
L 391.920303 275.860575 
L 392.330739 276.545776 
L 392.741175 274.985343 
L 393.15161 276.871033 
L 393.562046 274.505914 
L 393.972481 277.502318 
L 394.793352 268.069817 
L 395.203788 268.094909 
L 395.614224 271.320424 
L 396.024659 270.489631 
L 396.435095 266.977857 
L 396.84553 270.025792 
L 397.255966 269.102796 
L 397.666402 271.188668 
L 398.076837 267.680314 
L 398.487273 283.544226 
L 398.487273 283.544226 
" clip-path="url(#p420ed2e45a)" style="fill: none; stroke: #2ca02c; stroke-width: 1.5; stroke-linecap: square"/>
   </g>
   <g id="patch_3">
    <path d="M 57.6 307.584 
L 57.6 41.472 
" style="fill: none; stroke: #000000; stroke-width: 0.8; stroke-linejoin: miter; stroke-linecap: square"/>
   </g>
   <g id="patch_4">
    <path d="M 414.72 307.584 
L 414.72 41.472 
" style="fill: none; stroke: #000000; stroke-width: 0.8; stroke-linejoin: miter; stroke-linecap: square"/>
   </g>
   <g id="patch_5">
    <path d="M 57.6 307.584 
L 414.72 307.584 
" style="fill: none; stroke: #000000; stroke-width: 0.8; stroke-linejoin: miter; stroke-linecap: square"/>
   </g>
   <g id="patch_6">
    <path d="M 57.6 41.472 
L 414.72 41.472 
" style="fill: none; stroke: #000000; stroke-width: 0.8; stroke-linejoin: miter; stroke-linecap: square"/>
   </g>
   <g id="legend_1">
    <g id="patch_7">
     <path d="M 64.6 93.506375 
L 186.25625 93.506375 
Q 188.25625 93.506375 188.25625 91.506375 
L 188.25625 48.472 
Q 188.25625 46.472 186.25625 46.472 
L 64.6 46.472 
Q 62.6 46.472 62.6 48.472 
L 62.6 91.506375 
Q 62.6 93.506375 64.6 93.506375 
z
" style="fill: #ffffff; opacity: 0.8; stroke: #cccccc; stroke-linejoin: miter"/>
    </g>
    <g id="line2d_18">
     <path d="M 66.6 54.570438 
L 76.6 54.570438 
L 86.6 54.570438 
" style="fill: none; stroke: #1f77b4; stroke-width: 1.5; stroke-linecap: square"/>
    </g>
    <g id="text_17">
     <!-- Weekly maximum -->
     <g transform="translate(94.6 58.070438) scale(0.1 -0.1)">
      <defs>
       <path id="DejaVuSans-57" d="M 213 4666 
L 850 4666 
L 1831 722 
L 2809 4666 
L 3519 4666 
L 4500 722 
L 5478 4666 
L 6119 4666 
L 4947 0 
L 4153 0 
L 3169 4050 
L 2175 0 
L 1381 0 
L 213 4666 
z
" transform="scale(0.015625)"/>
       <path id="DejaVuSans-6b" d="M 581 4863 
L 1159 4863 
L 1159 1991 
L 2875 3500 
L 3609 3500 
L 1753 1863 
L 3688 0 
L 2938 0 
L 1159 1709 
L 1159 0 
L 581 0 
L 581 4863 
z
" transform="scale(0.015625)"/>
       <path id="DejaVuSans-79" d="M 2059 -325 
Q 1816 -950 1584 -1140 
Q 1353 -1331 966 -1331 
L 506 -1331 
L 506 -850 
L 844 -850 
Q 1081 -850 1212 -737 
Q 1344 -625 1503 -206 
L 1606 56 
L 191 3500 
L 800 3500 
L 1894 763 
L 2988 3500 
L 3597 3500 
L 2059 -325 
z
" transform="scale(0.015625)"/>
       <path id="DejaVuSans-6d" d="M 3328 2828 
Q 3544 3216 3844 3400 
Q 4144 3584 4550 3584 
Q 5097 3584 5394 3201 
Q 5691 2819 5691 2113 
L 5691 0 
L 5113 0 
L 5113 2094 
Q 5113 2597 4934 2840 
Q 4756 3084 4391 3084 
Q 3944 3084 3684 2787 
Q 3425 2491 3425 1978 
L 3425 0 
L 2847 0 
L 2847 2094 
Q 2847 2600 2669 2842 
Q 2491 3084 2119 3084 
Q 1678 3084 1418 2786 
Q 1159 2488 1159 1978 
L 1159 0 
L 581 0 
L 581 3500 
L 1159 3500 
L 1159 2956 
Q 1356 3278 1631 3431 
Q 1906 3584 2284 3584 
Q 2666 3584 2933 3390 
Q 3200 3197 3328 2828 
z
" transform="scale(0.015625)"/>
       <path id="DejaVuSans-78" d="M 3513 3500 
L 2247 1797 
L 3578 0 
L 2900 0 
L 1881 1375 
L 863 0 
L 184 0 
L 1544 1831 
L 300 3500 
L 978 3500 
L 1906 2253 
L 2834 3500 
L 3513 3500 
z
" transform="scale(0.015625)"/>
       <path id="DejaVuSans-75" d="M 544 1381 
L 544 3500 
L 1119 3500 
L 1119 1403 
Q 1119 906 1312 657 
Q 1506 409 1894 409 
Q 2359 409 2629 706 
Q 2900 1003 2900 1516 
L 2900 3500 
L 3475 3500 
L 3475 0 
L 2900 0 
L 2900 538 
Q 2691 219 2414 64 
Q 2138 -91 1772 -91 
Q 1169 -91 856 284 
Q 544 659 544 1381 
z
M 1991 3584 
L 1991 3584 
z
" transform="scale(0.015625)"/>
      </defs>
      <use xlink:href="#DejaVuSans-57"/>
      <use xlink:href="#DejaVuSans-65" x="93.001953"/>
      <use xlink:href="#DejaVuSans-65" x="154.525391"/>
      <use xlink:href="#DejaVuSans-6b" x="216.048828"/>
      <use xlink:href="#DejaVuSans-6c" x="273.958984"/>
      <use xlink:href="#DejaVuSans-79" x="301.742188"/>
      <use xlink:href="#DejaVuSans-20" x="360.921875"/>
      <use xlink:href="#DejaVuSans-6d" x="392.708984"/>
      <use xlink:href="#DejaVuSans-61" x="490.121094"/>
      <use xlink:href="#DejaVuSans-78" x="551.400391"/>
      <use xlink:href="#DejaVuSans-69" x="610.580078"/>
      <use xlink:href="#DejaVuSans-6d" x="638.363281"/>
      <use xlink:href="#DejaVuSans-75" x="735.775391"/>
      <use xlink:href="#DejaVuSans-6d" x="799.154297"/>
     </g>
    </g>
    <g id="line2d_19">
     <path d="M 66.6 69.248563 
L 76.6 69.248563 
L 86.6 69.248563 
" style="fill: none; stroke: #ff7f0e; stroke-width: 1.5; stroke-linecap: square"/>
    </g>
    <g id="text_18">
     <!-- Weekly minimum -->
     <g transform="translate(94.6 72.748563) scale(0.1 -0.1)">
      <defs>
       <path id="DejaVuSans-6e" d="M 3513 2113 
L 3513 0 
L 2938 0 
L 2938 2094 
Q 2938 2591 2744 2837 
Q 2550 3084 2163 3084 
Q 1697 3084 1428 2787 
Q 1159 2491 1159 1978 
L 1159 0 
L 581 0 
L 581 3500 
L 1159 3500 
L 1159 2956 
Q 1366 3272 1645 3428 
Q 1925 3584 2291 3584 
Q 2894 3584 3203 3211 
Q 3513 2838 3513 2113 
z
" transform="scale(0.015625)"/>
      </defs>
      <use xlink:href="#DejaVuSans-57"/>
      <use xlink:href="#DejaVuSans-65" x="93.001953"/>
      <use xlink:href="#DejaVuSans-65" x="154.525391"/>
      <use xlink:href="#DejaVuSans-6b" x="216.048828"/>
      <use xlink:href="#DejaVuSans-6c" x="273.958984"/>
      <use xlink:href="#DejaVuSans-79" x="301.742188"/>
      <use xlink:href="#DejaVuSans-20" x="360.921875"/>
      <use xlink:href="#DejaVuSans-6d" x="392.708984"/>
      <use xlink:href="#DejaVuSans-69" x="490.121094"/>
      <use xlink:href="#DejaVuSans-6e" x="517.904297"/>
      <use xlink:href="#DejaVuSans-69" x="581.283203"/>
      <use xlink:href="#DejaVuSans-6d" x="609.066406"/>
      <use xlink:href="#DejaVuSans-75" x="706.478516"/>
      <use xlink:href="#DejaVuSans-6d" x="769.857422"/>
     </g>
    </g>
    <g id="line2d_20">
     <path d="M 66.6 83.926688 
L 76.6 83.926688 
L 86.6 83.926688 
" style="fill: none; stroke: #2ca02c; stroke-width: 1.5; stroke-linecap: square"/>
    </g>
    <g id="text_19">
     <!-- Weekly range -->
     <g transform="translate(94.6 87.426688) scale(0.1 -0.1)">
      <use xlink:href="#DejaVuSans-57"/>
      <use xlink:href="#DejaVuSans-65" x="93.001953"/>
      <use xlink:href="#DejaVuSans-65" x="154.525391"/>
      <use xlink:href="#DejaVuSans-6b" x="216.048828"/>
      <use xlink:href="#DejaVuSans-6c" x="273.958984"/>
      <use xlink:href="#DejaVuSans-79" x="301.742188"/>
      <use xlink:href="#DejaVuSans-20" x="360.921875"/>
      <use xlink:href="#DejaVuSans-72" x="392.708984"/>
      <use xlink:href="#DejaVuSans-61" x="433.822266"/>
      <use xlink:href="#DejaVuSans-6e" x="495.101562"/>
      <use xlink:href="#DejaVuSans-67" x="558.480469"/>
      <use xlink:href="#DejaVuSans-65" x="621.957031"/>
     </g>
    </g>
   </g>
  </g>
 </g>
 <defs>
  <clipPath id="p420ed2e45a">
   <rect x="57.6" y="41.472" width="357.12" height="266.112"/>
  </clipPath>
 </defs>
</svg>
