<?xml version="1.0" encoding="utf-8" standalone="no"?>
<!DOCTYPE svg PUBLIC "-//W3C//DTD SVG 1.1//EN"
  "http://www.w3.org/Graphics/SVG/1.1/DTD/svg11.dtd">
<svg xmlns:xlink="http://www.w3.org/1999/xlink" width="460.8pt" height="345.6pt" viewBox="0 0 460.8 345.6" xmlns="http://www.w3.org/2000/svg" version="1.1">
 <metadata>
  <rdf:RDF xmlns:dc="http://purl.org/dc/elements/1.1/" xmlns:cc="http://creativecommons.org/ns#" xmlns:rdf="http://www.w3.org/1999/02/22-rdf-syntax-ns#">
   <cc:Work>
    <dc:type rdf:resource="http://purl.org/dc/dcmitype/StillImage"/>
    <dc:date>2024-06-16T05:33:32.753773</dc:date>
    <dc:format>image/svg+xml</dc:format>
    <dc:creator>
     <cc:Agent>
      <dc:title>Matplotlib v3.9.0, https://matplotlib.org/</dc:title>
     </cc:Agent>
    </dc:creator>
   </cc:Work>
  </rdf:RDF>
 </metadata>
 <defs>
  <style type="text/css">*{stroke-linejoin: round; stroke-linecap: butt}</style>
 </defs>
 <g id="figure_1">
  <g id="patch_1">
   <path d="M 0 345.6 
L 460.8 345.6 
L 460.8 0 
L 0 0 
z
" style="fill: #ffffff"/>
  </g>
  <g id="axes_1">
   <g id="patch_2">
    <path d="M 57.6 307.584 
L 414.72 307.584 
L 414.72 41.472 
L 57.6 41.472 
z
" style="fill: #ffffff"/>
   </g>
   <g id="matplotlib.axis_1">
    <g id="xtick_1">
     <g id="line2d_1">
      <defs>
       <path id="m14dc2701ad" d="M 0 0 
L 0 3.5 
" style="stroke: #000000; stroke-width: 0.8"/>
      </defs>
      <g>
       <use xlink:href="#m14dc2701ad" x="60.082387" y="307.584" style="stroke: #000000; stroke-width: 0.8"/>
      </g>
     </g>
     <g id="text_1">
      <!-- 2008 -->
      <g transform="translate(47.357387 322.182437) scale(0.1 -0.1)">
       <defs>
        <path id="DejaVuSans-32" d="M 1228 531 
L 3431 531 
L 3431 0 
L 469 0 
L 469 531 
Q 828 903 1448 1529 
Q 2069 2156 2228 2338 
Q 2531 2678 2651 2914 
Q 2772 3150 2772 3378 
Q 2772 3750 2511 3984 
Q 2250 4219 1831 4219 
Q 1534 4219 1204 4116 
Q 875 4013 500 3803 
L 500 4441 
Q 881 4594 1212 4672 
Q 1544 4750 1819 4750 
Q 2544 4750 2975 4387 
Q 3406 4025 3406 3419 
Q 3406 3131 3298 2873 
Q 3191 2616 2906 2266 
Q 2828 2175 2409 1742 
Q 1991 1309 1228 531 
z
" transform="scale(0.015625)"/>
        <path id="DejaVuSans-30" d="M 2034 4250 
Q 1547 4250 1301 3770 
Q 1056 3291 1056 2328 
Q 1056 1369 1301 889 
Q 1547 409 2034 409 
Q 2525 409 2770 889 
Q 3016 1369 3016 2328 
Q 3016 3291 2770 3770 
Q 2525 4250 2034 4250 
z
M 2034 4750 
Q 2819 4750 3233 4129 
Q 3647 3509 3647 2328 
Q 3647 1150 3233 529 
Q 2819 -91 2034 -91 
Q 1250 -91 836 529 
Q 422 1150 422 2328 
Q 422 3509 836 4129 
Q 1250 4750 2034 4750 
z
" transform="scale(0.015625)"/>
        <path id="DejaVuSans-38" d="M 2034 2216 
Q 1584 2216 1326 1975 
Q 1069 1734 1069 1313 
Q 1069 891 1326 650 
Q 1584 409 2034 409 
Q 2484 409 2743 651 
Q 3003 894 3003 1313 
Q 3003 1734 2745 1975 
Q 2488 2216 2034 2216 
z
M 1403 2484 
Q 997 2584 770 2862 
Q 544 3141 544 3541 
Q 544 4100 942 4425 
Q 1341 4750 2034 4750 
Q 2731 4750 3128 4425 
Q 3525 4100 3525 3541 
Q 3525 3141 3298 2862 
Q 3072 2584 2669 2484 
Q 3125 2378 3379 2068 
Q 3634 1759 3634 1313 
Q 3634 634 3220 271 
Q 2806 -91 2034 -91 
Q 1263 -91 848 271 
Q 434 634 434 1313 
Q 434 1759 690 2068 
Q 947 2378 1403 2484 
z
M 1172 3481 
Q 1172 3119 1398 2916 
Q 1625 2713 2034 2713 
Q 2441 2713 2670 2916 
Q 2900 3119 2900 3481 
Q 2900 3844 2670 4047 
Q 2441 4250 2034 4250 
Q 1625 4250 1398 4047 
Q 1172 3844 1172 3481 
z
" transform="scale(0.015625)"/>
       </defs>
       <use xlink:href="#DejaVuSans-32"/>
       <use xlink:href="#DejaVuSans-30" x="63.623047"/>
       <use xlink:href="#DejaVuSans-30" x="127.246094"/>
       <use xlink:href="#DejaVuSans-38" x="190.869141"/>
      </g>
     </g>
    </g>
    <g id="xtick_2">
     <g id="line2d_2">
      <g>
       <use xlink:href="#m14dc2701ad" x="101.277054" y="307.584" style="stroke: #000000; stroke-width: 0.8"/>
      </g>
     </g>
     <g id="text_2">
      <!-- 2010 -->
      <g transform="translate(88.552054 322.182437) scale(0.1 -0.1)">
       <defs>
        <path id="DejaVuSans-31" d="M 794 531 
L 1825 531 
L 1825 4091 
L 703 3866 
L 703 4441 
L 1819 4666 
L 2450 4666 
L 2450 531 
L 3481 531 
L 3481 0 
L 794 0 
L 794 531 
z
" transform="scale(0.015625)"/>
       </defs>
       <use xlink:href="#DejaVuSans-32"/>
       <use xlink:href="#DejaVuSans-30" x="63.623047"/>
       <use xlink:href="#DejaVuSans-31" x="127.246094"/>
       <use xlink:href="#DejaVuSans-30" x="190.869141"/>
      </g>
     </g>
    </g>
    <g id="xtick_3">
     <g id="line2d_3">
      <g>
       <use xlink:href="#m14dc2701ad" x="142.415366" y="307.584" style="stroke: #000000; stroke-width: 0.8"/>
      </g>
     </g>
     <g id="text_3">
      <!-- 2012 -->
      <g transform="translate(129.690366 322.182437) scale(0.1 -0.1)">
       <use xlink:href="#DejaVuSans-32"/>
       <use xlink:href="#DejaVuSans-30" x="63.623047"/>
       <use xlink:href="#DejaVuSans-31" x="127.246094"/>
       <use xlink:href="#DejaVuSans-32" x="190.869141"/>
      </g>
     </g>
    </g>
    <g id="xtick_4">
     <g id="line2d_4">
      <g>
       <use xlink:href="#m14dc2701ad" x="183.610032" y="307.584" style="stroke: #000000; stroke-width: 0.8"/>
      </g>
     </g>
     <g id="text_4">
      <!-- 2014 -->
      <g transform="translate(170.885032 322.182437) scale(0.1 -0.1)">
       <defs>
        <path id="DejaVuSans-34" d="M 2419 4116 
L 825 1625 
L 2419 1625 
L 2419 4116 
z
M 2253 4666 
L 3047 4666 
L 3047 1625 
L 3713 1625 
L 3713 1100 
L 3047 1100 
L 3047 0 
L 2419 0 
L 2419 1100 
L 313 1100 
L 313 1709 
L 2253 4666 
z
" transform="scale(0.015625)"/>
       </defs>
       <use xlink:href="#DejaVuSans-32"/>
       <use xlink:href="#DejaVuSans-30" x="63.623047"/>
       <use xlink:href="#DejaVuSans-31" x="127.246094"/>
       <use xlink:href="#DejaVuSans-34" x="190.869141"/>
      </g>
     </g>
    </g>
    <g id="xtick_5">
     <g id="line2d_5">
      <g>
       <use xlink:href="#m14dc2701ad" x="224.748345" y="307.584" style="stroke: #000000; stroke-width: 0.8"/>
      </g>
     </g>
     <g id="text_5">
      <!-- 2016 -->
      <g transform="translate(212.023345 322.182437) scale(0.1 -0.1)">
       <defs>
        <path id="DejaVuSans-36" d="M 2113 2584 
Q 1688 2584 1439 2293 
Q 1191 2003 1191 1497 
Q 1191 994 1439 701 
Q 1688 409 2113 409 
Q 2538 409 2786 701 
Q 3034 994 3034 1497 
Q 3034 2003 2786 2293 
Q 2538 2584 2113 2584 
z
M 3366 4563 
L 3366 3988 
Q 3128 4100 2886 4159 
Q 2644 4219 2406 4219 
Q 1781 4219 1451 3797 
Q 1122 3375 1075 2522 
Q 1259 2794 1537 2939 
Q 1816 3084 2150 3084 
Q 2853 3084 3261 2657 
Q 3669 2231 3669 1497 
Q 3669 778 3244 343 
Q 2819 -91 2113 -91 
Q 1303 -91 875 529 
Q 447 1150 447 2328 
Q 447 3434 972 4092 
Q 1497 4750 2381 4750 
Q 2619 4750 2861 4703 
Q 3103 4656 3366 4563 
z
" transform="scale(0.015625)"/>
       </defs>
       <use xlink:href="#DejaVuSans-32"/>
       <use xlink:href="#DejaVuSans-30" x="63.623047"/>
       <use xlink:href="#DejaVuSans-31" x="127.246094"/>
       <use xlink:href="#DejaVuSans-36" x="190.869141"/>
      </g>
     </g>
    </g>
    <g id="xtick_6">
     <g id="line2d_6">
      <g>
       <use xlink:href="#m14dc2701ad" x="265.943011" y="307.584" style="stroke: #000000; stroke-width: 0.8"/>
      </g>
     </g>
     <g id="text_6">
      <!-- 2018 -->
      <g transform="translate(253.218011 322.182437) scale(0.1 -0.1)">
       <use xlink:href="#DejaVuSans-32"/>
       <use xlink:href="#DejaVuSans-30" x="63.623047"/>
       <use xlink:href="#DejaVuSans-31" x="127.246094"/>
       <use xlink:href="#DejaVuSans-38" x="190.869141"/>
      </g>
     </g>
    </g>
    <g id="xtick_7">
     <g id="line2d_7">
      <g>
       <use xlink:href="#m14dc2701ad" x="307.081324" y="307.584" style="stroke: #000000; stroke-width: 0.8"/>
      </g>
     </g>
     <g id="text_7">
      <!-- 2020 -->
      <g transform="translate(294.356324 322.182437) scale(0.1 -0.1)">
       <use xlink:href="#DejaVuSans-32"/>
       <use xlink:href="#DejaVuSans-30" x="63.623047"/>
       <use xlink:href="#DejaVuSans-32" x="127.246094"/>
       <use xlink:href="#DejaVuSans-30" x="190.869141"/>
      </g>
     </g>
    </g>
    <g id="xtick_8">
     <g id="line2d_8">
      <g>
       <use xlink:href="#m14dc2701ad" x="348.27599" y="307.584" style="stroke: #000000; stroke-width: 0.8"/>
      </g>
     </g>
     <g id="text_8">
      <!-- 2022 -->
      <g transform="translate(335.55099 322.182437) scale(0.1 -0.1)">
       <use xlink:href="#DejaVuSans-32"/>
       <use xlink:href="#DejaVuSans-30" x="63.623047"/>
       <use xlink:href="#DejaVuSans-32" x="127.246094"/>
       <use xlink:href="#DejaVuSans-32" x="190.869141"/>
      </g>
     </g>
    </g>
    <g id="xtick_9">
     <g id="line2d_9">
      <g>
       <use xlink:href="#m14dc2701ad" x="389.414302" y="307.584" style="stroke: #000000; stroke-width: 0.8"/>
      </g>
     </g>
     <g id="text_9">
      <!-- 2024 -->
      <g transform="translate(376.689302 322.182437) scale(0.1 -0.1)">
       <use xlink:href="#DejaVuSans-32"/>
       <use xlink:href="#DejaVuSans-30" x="63.623047"/>
       <use xlink:href="#DejaVuSans-32" x="127.246094"/>
       <use xlink:href="#DejaVuSans-34" x="190.869141"/>
      </g>
     </g>
    </g>
    <g id="text_10">
     <!-- Updated 2024-06-16 05:33:32.752499 - Last record 2024-06-14 -->
     <g transform="translate(75.905312 335.860562) scale(0.1 -0.1)">
      <defs>
       <path id="DejaVuSans-55" d="M 556 4666 
L 1191 4666 
L 1191 1831 
Q 1191 1081 1462 751 
Q 1734 422 2344 422 
Q 2950 422 3222 751 
Q 3494 1081 3494 1831 
L 3494 4666 
L 4128 4666 
L 4128 1753 
Q 4128 841 3676 375 
Q 3225 -91 2344 -91 
Q 1459 -91 1007 375 
Q 556 841 556 1753 
L 556 4666 
z
" transform="scale(0.015625)"/>
       <path id="DejaVuSans-70" d="M 1159 525 
L 1159 -1331 
L 581 -1331 
L 581 3500 
L 1159 3500 
L 1159 2969 
Q 1341 3281 1617 3432 
Q 1894 3584 2278 3584 
Q 2916 3584 3314 3078 
Q 3713 2572 3713 1747 
Q 3713 922 3314 415 
Q 2916 -91 2278 -91 
Q 1894 -91 1617 61 
Q 1341 213 1159 525 
z
M 3116 1747 
Q 3116 2381 2855 2742 
Q 2594 3103 2138 3103 
Q 1681 3103 1420 2742 
Q 1159 2381 1159 1747 
Q 1159 1113 1420 752 
Q 1681 391 2138 391 
Q 2594 391 2855 752 
Q 3116 1113 3116 1747 
z
" transform="scale(0.015625)"/>
       <path id="DejaVuSans-64" d="M 2906 2969 
L 2906 4863 
L 3481 4863 
L 3481 0 
L 2906 0 
L 2906 525 
Q 2725 213 2448 61 
Q 2172 -91 1784 -91 
Q 1150 -91 751 415 
Q 353 922 353 1747 
Q 353 2572 751 3078 
Q 1150 3584 1784 3584 
Q 2172 3584 2448 3432 
Q 2725 3281 2906 2969 
z
M 947 1747 
Q 947 1113 1208 752 
Q 1469 391 1925 391 
Q 2381 391 2643 752 
Q 2906 1113 2906 1747 
Q 2906 2381 2643 2742 
Q 2381 3103 1925 3103 
Q 1469 3103 1208 2742 
Q 947 2381 947 1747 
z
" transform="scale(0.015625)"/>
       <path id="DejaVuSans-61" d="M 2194 1759 
Q 1497 1759 1228 1600 
Q 959 1441 959 1056 
Q 959 750 1161 570 
Q 1363 391 1709 391 
Q 2188 391 2477 730 
Q 2766 1069 2766 1631 
L 2766 1759 
L 2194 1759 
z
M 3341 1997 
L 3341 0 
L 2766 0 
L 2766 531 
Q 2569 213 2275 61 
Q 1981 -91 1556 -91 
Q 1019 -91 701 211 
Q 384 513 384 1019 
Q 384 1609 779 1909 
Q 1175 2209 1959 2209 
L 2766 2209 
L 2766 2266 
Q 2766 2663 2505 2880 
Q 2244 3097 1772 3097 
Q 1472 3097 1187 3025 
Q 903 2953 641 2809 
L 641 3341 
Q 956 3463 1253 3523 
Q 1550 3584 1831 3584 
Q 2591 3584 2966 3190 
Q 3341 2797 3341 1997 
z
" transform="scale(0.015625)"/>
       <path id="DejaVuSans-74" d="M 1172 4494 
L 1172 3500 
L 2356 3500 
L 2356 3053 
L 1172 3053 
L 1172 1153 
Q 1172 725 1289 603 
Q 1406 481 1766 481 
L 2356 481 
L 2356 0 
L 1766 0 
Q 1100 0 847 248 
Q 594 497 594 1153 
L 594 3053 
L 172 3053 
L 172 3500 
L 594 3500 
L 594 4494 
L 1172 4494 
z
" transform="scale(0.015625)"/>
       <path id="DejaVuSans-65" d="M 3597 1894 
L 3597 1613 
L 953 1613 
Q 991 1019 1311 708 
Q 1631 397 2203 397 
Q 2534 397 2845 478 
Q 3156 559 3463 722 
L 3463 178 
Q 3153 47 2828 -22 
Q 2503 -91 2169 -91 
Q 1331 -91 842 396 
Q 353 884 353 1716 
Q 353 2575 817 3079 
Q 1281 3584 2069 3584 
Q 2775 3584 3186 3129 
Q 3597 2675 3597 1894 
z
M 3022 2063 
Q 3016 2534 2758 2815 
Q 2500 3097 2075 3097 
Q 1594 3097 1305 2825 
Q 1016 2553 972 2059 
L 3022 2063 
z
" transform="scale(0.015625)"/>
       <path id="DejaVuSans-20" transform="scale(0.015625)"/>
       <path id="DejaVuSans-2d" d="M 313 2009 
L 1997 2009 
L 1997 1497 
L 313 1497 
L 313 2009 
z
" transform="scale(0.015625)"/>
       <path id="DejaVuSans-35" d="M 691 4666 
L 3169 4666 
L 3169 4134 
L 1269 4134 
L 1269 2991 
Q 1406 3038 1543 3061 
Q 1681 3084 1819 3084 
Q 2600 3084 3056 2656 
Q 3513 2228 3513 1497 
Q 3513 744 3044 326 
Q 2575 -91 1722 -91 
Q 1428 -91 1123 -41 
Q 819 9 494 109 
L 494 744 
Q 775 591 1075 516 
Q 1375 441 1709 441 
Q 2250 441 2565 725 
Q 2881 1009 2881 1497 
Q 2881 1984 2565 2268 
Q 2250 2553 1709 2553 
Q 1456 2553 1204 2497 
Q 953 2441 691 2322 
L 691 4666 
z
" transform="scale(0.015625)"/>
       <path id="DejaVuSans-3a" d="M 750 794 
L 1409 794 
L 1409 0 
L 750 0 
L 750 794 
z
M 750 3309 
L 1409 3309 
L 1409 2516 
L 750 2516 
L 750 3309 
z
" transform="scale(0.015625)"/>
       <path id="DejaVuSans-33" d="M 2597 2516 
Q 3050 2419 3304 2112 
Q 3559 1806 3559 1356 
Q 3559 666 3084 287 
Q 2609 -91 1734 -91 
Q 1441 -91 1130 -33 
Q 819 25 488 141 
L 488 750 
Q 750 597 1062 519 
Q 1375 441 1716 441 
Q 2309 441 2620 675 
Q 2931 909 2931 1356 
Q 2931 1769 2642 2001 
Q 2353 2234 1838 2234 
L 1294 2234 
L 1294 2753 
L 1863 2753 
Q 2328 2753 2575 2939 
Q 2822 3125 2822 3475 
Q 2822 3834 2567 4026 
Q 2313 4219 1838 4219 
Q 1578 4219 1281 4162 
Q 984 4106 628 3988 
L 628 4550 
Q 988 4650 1302 4700 
Q 1616 4750 1894 4750 
Q 2613 4750 3031 4423 
Q 3450 4097 3450 3541 
Q 3450 3153 3228 2886 
Q 3006 2619 2597 2516 
z
" transform="scale(0.015625)"/>
       <path id="DejaVuSans-2e" d="M 684 794 
L 1344 794 
L 1344 0 
L 684 0 
L 684 794 
z
" transform="scale(0.015625)"/>
       <path id="DejaVuSans-37" d="M 525 4666 
L 3525 4666 
L 3525 4397 
L 1831 0 
L 1172 0 
L 2766 4134 
L 525 4134 
L 525 4666 
z
" transform="scale(0.015625)"/>
       <path id="DejaVuSans-39" d="M 703 97 
L 703 672 
Q 941 559 1184 500 
Q 1428 441 1663 441 
Q 2288 441 2617 861 
Q 2947 1281 2994 2138 
Q 2813 1869 2534 1725 
Q 2256 1581 1919 1581 
Q 1219 1581 811 2004 
Q 403 2428 403 3163 
Q 403 3881 828 4315 
Q 1253 4750 1959 4750 
Q 2769 4750 3195 4129 
Q 3622 3509 3622 2328 
Q 3622 1225 3098 567 
Q 2575 -91 1691 -91 
Q 1453 -91 1209 -44 
Q 966 3 703 97 
z
M 1959 2075 
Q 2384 2075 2632 2365 
Q 2881 2656 2881 3163 
Q 2881 3666 2632 3958 
Q 2384 4250 1959 4250 
Q 1534 4250 1286 3958 
Q 1038 3666 1038 3163 
Q 1038 2656 1286 2365 
Q 1534 2075 1959 2075 
z
" transform="scale(0.015625)"/>
       <path id="DejaVuSans-4c" d="M 628 4666 
L 1259 4666 
L 1259 531 
L 3531 531 
L 3531 0 
L 628 0 
L 628 4666 
z
" transform="scale(0.015625)"/>
       <path id="DejaVuSans-73" d="M 2834 3397 
L 2834 2853 
Q 2591 2978 2328 3040 
Q 2066 3103 1784 3103 
Q 1356 3103 1142 2972 
Q 928 2841 928 2578 
Q 928 2378 1081 2264 
Q 1234 2150 1697 2047 
L 1894 2003 
Q 2506 1872 2764 1633 
Q 3022 1394 3022 966 
Q 3022 478 2636 193 
Q 2250 -91 1575 -91 
Q 1294 -91 989 -36 
Q 684 19 347 128 
L 347 722 
Q 666 556 975 473 
Q 1284 391 1588 391 
Q 1994 391 2212 530 
Q 2431 669 2431 922 
Q 2431 1156 2273 1281 
Q 2116 1406 1581 1522 
L 1381 1569 
Q 847 1681 609 1914 
Q 372 2147 372 2553 
Q 372 3047 722 3315 
Q 1072 3584 1716 3584 
Q 2034 3584 2315 3537 
Q 2597 3491 2834 3397 
z
" transform="scale(0.015625)"/>
       <path id="DejaVuSans-72" d="M 2631 2963 
Q 2534 3019 2420 3045 
Q 2306 3072 2169 3072 
Q 1681 3072 1420 2755 
Q 1159 2438 1159 1844 
L 1159 0 
L 581 0 
L 581 3500 
L 1159 3500 
L 1159 2956 
Q 1341 3275 1631 3429 
Q 1922 3584 2338 3584 
Q 2397 3584 2469 3576 
Q 2541 3569 2628 3553 
L 2631 2963 
z
" transform="scale(0.015625)"/>
       <path id="DejaVuSans-63" d="M 3122 3366 
L 3122 2828 
Q 2878 2963 2633 3030 
Q 2388 3097 2138 3097 
Q 1578 3097 1268 2742 
Q 959 2388 959 1747 
Q 959 1106 1268 751 
Q 1578 397 2138 397 
Q 2388 397 2633 464 
Q 2878 531 3122 666 
L 3122 134 
Q 2881 22 2623 -34 
Q 2366 -91 2075 -91 
Q 1284 -91 818 406 
Q 353 903 353 1747 
Q 353 2603 823 3093 
Q 1294 3584 2113 3584 
Q 2378 3584 2631 3529 
Q 2884 3475 3122 3366 
z
" transform="scale(0.015625)"/>
       <path id="DejaVuSans-6f" d="M 1959 3097 
Q 1497 3097 1228 2736 
Q 959 2375 959 1747 
Q 959 1119 1226 758 
Q 1494 397 1959 397 
Q 2419 397 2687 759 
Q 2956 1122 2956 1747 
Q 2956 2369 2687 2733 
Q 2419 3097 1959 3097 
z
M 1959 3584 
Q 2709 3584 3137 3096 
Q 3566 2609 3566 1747 
Q 3566 888 3137 398 
Q 2709 -91 1959 -91 
Q 1206 -91 779 398 
Q 353 888 353 1747 
Q 353 2609 779 3096 
Q 1206 3584 1959 3584 
z
" transform="scale(0.015625)"/>
      </defs>
      <use xlink:href="#DejaVuSans-55"/>
      <use xlink:href="#DejaVuSans-70" x="73.193359"/>
      <use xlink:href="#DejaVuSans-64" x="136.669922"/>
      <use xlink:href="#DejaVuSans-61" x="200.146484"/>
      <use xlink:href="#DejaVuSans-74" x="261.425781"/>
      <use xlink:href="#DejaVuSans-65" x="300.634766"/>
      <use xlink:href="#DejaVuSans-64" x="362.158203"/>
      <use xlink:href="#DejaVuSans-20" x="425.634766"/>
      <use xlink:href="#DejaVuSans-32" x="457.421875"/>
      <use xlink:href="#DejaVuSans-30" x="521.044922"/>
      <use xlink:href="#DejaVuSans-32" x="584.667969"/>
      <use xlink:href="#DejaVuSans-34" x="648.291016"/>
      <use xlink:href="#DejaVuSans-2d" x="711.914062"/>
      <use xlink:href="#DejaVuSans-30" x="747.998047"/>
      <use xlink:href="#DejaVuSans-36" x="811.621094"/>
      <use xlink:href="#DejaVuSans-2d" x="875.244141"/>
      <use xlink:href="#DejaVuSans-31" x="911.328125"/>
      <use xlink:href="#DejaVuSans-36" x="974.951172"/>
      <use xlink:href="#DejaVuSans-20" x="1038.574219"/>
      <use xlink:href="#DejaVuSans-30" x="1070.361328"/>
      <use xlink:href="#DejaVuSans-35" x="1133.984375"/>
      <use xlink:href="#DejaVuSans-3a" x="1197.607422"/>
      <use xlink:href="#DejaVuSans-33" x="1231.298828"/>
      <use xlink:href="#DejaVuSans-33" x="1294.921875"/>
      <use xlink:href="#DejaVuSans-3a" x="1358.544922"/>
      <use xlink:href="#DejaVuSans-33" x="1392.236328"/>
      <use xlink:href="#DejaVuSans-32" x="1455.859375"/>
      <use xlink:href="#DejaVuSans-2e" x="1519.482422"/>
      <use xlink:href="#DejaVuSans-37" x="1551.269531"/>
      <use xlink:href="#DejaVuSans-35" x="1614.892578"/>
      <use xlink:href="#DejaVuSans-32" x="1678.515625"/>
      <use xlink:href="#DejaVuSans-34" x="1742.138672"/>
      <use xlink:href="#DejaVuSans-39" x="1805.761719"/>
      <use xlink:href="#DejaVuSans-39" x="1869.384766"/>
      <use xlink:href="#DejaVuSans-20" x="1933.007812"/>
      <use xlink:href="#DejaVuSans-2d" x="1964.794922"/>
      <use xlink:href="#DejaVuSans-20" x="2000.878906"/>
      <use xlink:href="#DejaVuSans-4c" x="2032.666016"/>
      <use xlink:href="#DejaVuSans-61" x="2088.378906"/>
      <use xlink:href="#DejaVuSans-73" x="2149.658203"/>
      <use xlink:href="#DejaVuSans-74" x="2201.757812"/>
      <use xlink:href="#DejaVuSans-20" x="2240.966797"/>
      <use xlink:href="#DejaVuSans-72" x="2272.753906"/>
      <use xlink:href="#DejaVuSans-65" x="2311.617188"/>
      <use xlink:href="#DejaVuSans-63" x="2373.140625"/>
      <use xlink:href="#DejaVuSans-6f" x="2428.121094"/>
      <use xlink:href="#DejaVuSans-72" x="2489.302734"/>
      <use xlink:href="#DejaVuSans-64" x="2528.666016"/>
      <use xlink:href="#DejaVuSans-20" x="2592.142578"/>
      <use xlink:href="#DejaVuSans-32" x="2623.929688"/>
      <use xlink:href="#DejaVuSans-30" x="2687.552734"/>
      <use xlink:href="#DejaVuSans-32" x="2751.175781"/>
      <use xlink:href="#DejaVuSans-34" x="2814.798828"/>
      <use xlink:href="#DejaVuSans-2d" x="2878.421875"/>
      <use xlink:href="#DejaVuSans-30" x="2914.505859"/>
      <use xlink:href="#DejaVuSans-36" x="2978.128906"/>
      <use xlink:href="#DejaVuSans-2d" x="3041.751953"/>
      <use xlink:href="#DejaVuSans-31" x="3077.835938"/>
      <use xlink:href="#DejaVuSans-34" x="3141.458984"/>
     </g>
    </g>
   </g>
   <g id="matplotlib.axis_2">
    <g id="ytick_1">
     <g id="line2d_10">
      <defs>
       <path id="m033559d46e" d="M 0 0 
L -3.5 0 
" style="stroke: #000000; stroke-width: 0.8"/>
      </defs>
      <g>
       <use xlink:href="#m033559d46e" x="57.6" y="295.488" style="stroke: #000000; stroke-width: 0.8"/>
      </g>
     </g>
     <g id="text_11">
      <!-- 0 -->
      <g transform="translate(44.2375 299.287219) scale(0.1 -0.1)">
       <use xlink:href="#DejaVuSans-30"/>
      </g>
     </g>
    </g>
    <g id="ytick_2">
     <g id="line2d_11">
      <g>
       <use xlink:href="#m033559d46e" x="57.6" y="244.133894" style="stroke: #000000; stroke-width: 0.8"/>
      </g>
     </g>
     <g id="text_12">
      <!-- 10 -->
      <g transform="translate(37.875 247.933113) scale(0.1 -0.1)">
       <use xlink:href="#DejaVuSans-31"/>
       <use xlink:href="#DejaVuSans-30" x="63.623047"/>
      </g>
     </g>
    </g>
    <g id="ytick_3">
     <g id="line2d_12">
      <g>
       <use xlink:href="#m033559d46e" x="57.6" y="192.779788" style="stroke: #000000; stroke-width: 0.8"/>
      </g>
     </g>
     <g id="text_13">
      <!-- 20 -->
      <g transform="translate(37.875 196.579007) scale(0.1 -0.1)">
       <use xlink:href="#DejaVuSans-32"/>
       <use xlink:href="#DejaVuSans-30" x="63.623047"/>
      </g>
     </g>
    </g>
    <g id="ytick_4">
     <g id="line2d_13">
      <g>
       <use xlink:href="#m033559d46e" x="57.6" y="141.425683" style="stroke: #000000; stroke-width: 0.8"/>
      </g>
     </g>
     <g id="text_14">
      <!-- 30 -->
      <g transform="translate(37.875 145.224901) scale(0.1 -0.1)">
       <use xlink:href="#DejaVuSans-33"/>
       <use xlink:href="#DejaVuSans-30" x="63.623047"/>
      </g>
     </g>
    </g>
    <g id="ytick_5">
     <g id="line2d_14">
      <g>
       <use xlink:href="#m033559d46e" x="57.6" y="90.071577" style="stroke: #000000; stroke-width: 0.8"/>
      </g>
     </g>
     <g id="text_15">
      <!-- 40 -->
      <g transform="translate(37.875 93.870796) scale(0.1 -0.1)">
       <use xlink:href="#DejaVuSans-34"/>
       <use xlink:href="#DejaVuSans-30" x="63.623047"/>
      </g>
     </g>
    </g>
    <g id="text_16">
     <!-- IPv6 as % of total Google traffic -->
     <g transform="translate(31.795312 253.735813) rotate(-90) scale(0.1 -0.1)">
      <defs>
       <path id="DejaVuSans-49" d="M 628 4666 
L 1259 4666 
L 1259 0 
L 628 0 
L 628 4666 
z
" transform="scale(0.015625)"/>
       <path id="DejaVuSans-50" d="M 1259 4147 
L 1259 2394 
L 2053 2394 
Q 2494 2394 2734 2622 
Q 2975 2850 2975 3272 
Q 2975 3691 2734 3919 
Q 2494 4147 2053 4147 
L 1259 4147 
z
M 628 4666 
L 2053 4666 
Q 2838 4666 3239 4311 
Q 3641 3956 3641 3272 
Q 3641 2581 3239 2228 
Q 2838 1875 2053 1875 
L 1259 1875 
L 1259 0 
L 628 0 
L 628 4666 
z
" transform="scale(0.015625)"/>
       <path id="DejaVuSans-76" d="M 191 3500 
L 800 3500 
L 1894 563 
L 2988 3500 
L 3597 3500 
L 2284 0 
L 1503 0 
L 191 3500 
z
" transform="scale(0.015625)"/>
       <path id="DejaVuSans-25" d="M 4653 2053 
Q 4381 2053 4226 1822 
Q 4072 1591 4072 1178 
Q 4072 772 4226 539 
Q 4381 306 4653 306 
Q 4919 306 5073 539 
Q 5228 772 5228 1178 
Q 5228 1588 5073 1820 
Q 4919 2053 4653 2053 
z
M 4653 2450 
Q 5147 2450 5437 2106 
Q 5728 1763 5728 1178 
Q 5728 594 5436 251 
Q 5144 -91 4653 -91 
Q 4153 -91 3862 251 
Q 3572 594 3572 1178 
Q 3572 1766 3864 2108 
Q 4156 2450 4653 2450 
z
M 1428 4353 
Q 1159 4353 1004 4120 
Q 850 3888 850 3481 
Q 850 3069 1003 2837 
Q 1156 2606 1428 2606 
Q 1700 2606 1854 2837 
Q 2009 3069 2009 3481 
Q 2009 3884 1853 4118 
Q 1697 4353 1428 4353 
z
M 4250 4750 
L 4750 4750 
L 1831 -91 
L 1331 -91 
L 4250 4750 
z
M 1428 4750 
Q 1922 4750 2215 4408 
Q 2509 4066 2509 3481 
Q 2509 2891 2217 2550 
Q 1925 2209 1428 2209 
Q 931 2209 642 2551 
Q 353 2894 353 3481 
Q 353 4063 643 4406 
Q 934 4750 1428 4750 
z
" transform="scale(0.015625)"/>
       <path id="DejaVuSans-66" d="M 2375 4863 
L 2375 4384 
L 1825 4384 
Q 1516 4384 1395 4259 
Q 1275 4134 1275 3809 
L 1275 3500 
L 2222 3500 
L 2222 3053 
L 1275 3053 
L 1275 0 
L 697 0 
L 697 3053 
L 147 3053 
L 147 3500 
L 697 3500 
L 697 3744 
Q 697 4328 969 4595 
Q 1241 4863 1831 4863 
L 2375 4863 
z
" transform="scale(0.015625)"/>
       <path id="DejaVuSans-6c" d="M 603 4863 
L 1178 4863 
L 1178 0 
L 603 0 
L 603 4863 
z
" transform="scale(0.015625)"/>
       <path id="DejaVuSans-47" d="M 3809 666 
L 3809 1919 
L 2778 1919 
L 2778 2438 
L 4434 2438 
L 4434 434 
Q 4069 175 3628 42 
Q 3188 -91 2688 -91 
Q 1594 -91 976 548 
Q 359 1188 359 2328 
Q 359 3472 976 4111 
Q 1594 4750 2688 4750 
Q 3144 4750 3555 4637 
Q 3966 4525 4313 4306 
L 4313 3634 
Q 3963 3931 3569 4081 
Q 3175 4231 2741 4231 
Q 1884 4231 1454 3753 
Q 1025 3275 1025 2328 
Q 1025 1384 1454 906 
Q 1884 428 2741 428 
Q 3075 428 3337 486 
Q 3600 544 3809 666 
z
" transform="scale(0.015625)"/>
       <path id="DejaVuSans-67" d="M 2906 1791 
Q 2906 2416 2648 2759 
Q 2391 3103 1925 3103 
Q 1463 3103 1205 2759 
Q 947 2416 947 1791 
Q 947 1169 1205 825 
Q 1463 481 1925 481 
Q 2391 481 2648 825 
Q 2906 1169 2906 1791 
z
M 3481 434 
Q 3481 -459 3084 -895 
Q 2688 -1331 1869 -1331 
Q 1566 -1331 1297 -1286 
Q 1028 -1241 775 -1147 
L 775 -588 
Q 1028 -725 1275 -790 
Q 1522 -856 1778 -856 
Q 2344 -856 2625 -561 
Q 2906 -266 2906 331 
L 2906 616 
Q 2728 306 2450 153 
Q 2172 0 1784 0 
Q 1141 0 747 490 
Q 353 981 353 1791 
Q 353 2603 747 3093 
Q 1141 3584 1784 3584 
Q 2172 3584 2450 3431 
Q 2728 3278 2906 2969 
L 2906 3500 
L 3481 3500 
L 3481 434 
z
" transform="scale(0.015625)"/>
       <path id="DejaVuSans-69" d="M 603 3500 
L 1178 3500 
L 1178 0 
L 603 0 
L 603 3500 
z
M 603 4863 
L 1178 4863 
L 1178 4134 
L 603 4134 
L 603 4863 
z
" transform="scale(0.015625)"/>
      </defs>
      <use xlink:href="#DejaVuSans-49"/>
      <use xlink:href="#DejaVuSans-50" x="29.492188"/>
      <use xlink:href="#DejaVuSans-76" x="89.794922"/>
      <use xlink:href="#DejaVuSans-36" x="148.974609"/>
      <use xlink:href="#DejaVuSans-20" x="212.597656"/>
      <use xlink:href="#DejaVuSans-61" x="244.384766"/>
      <use xlink:href="#DejaVuSans-73" x="305.664062"/>
      <use xlink:href="#DejaVuSans-20" x="357.763672"/>
      <use xlink:href="#DejaVuSans-25" x="389.550781"/>
      <use xlink:href="#DejaVuSans-20" x="484.570312"/>
      <use xlink:href="#DejaVuSans-6f" x="516.357422"/>
      <use xlink:href="#DejaVuSans-66" x="577.539062"/>
      <use xlink:href="#DejaVuSans-20" x="612.744141"/>
      <use xlink:href="#DejaVuSans-74" x="644.53125"/>
      <use xlink:href="#DejaVuSans-6f" x="683.740234"/>
      <use xlink:href="#DejaVuSans-74" x="744.921875"/>
      <use xlink:href="#DejaVuSans-61" x="784.130859"/>
      <use xlink:href="#DejaVuSans-6c" x="845.410156"/>
      <use xlink:href="#DejaVuSans-20" x="873.193359"/>
      <use xlink:href="#DejaVuSans-47" x="904.980469"/>
      <use xlink:href="#DejaVuSans-6f" x="982.470703"/>
      <use xlink:href="#DejaVuSans-6f" x="1043.652344"/>
      <use xlink:href="#DejaVuSans-67" x="1104.833984"/>
      <use xlink:href="#DejaVuSans-6c" x="1168.310547"/>
      <use xlink:href="#DejaVuSans-65" x="1196.09375"/>
      <use xlink:href="#DejaVuSans-20" x="1257.617188"/>
      <use xlink:href="#DejaVuSans-74" x="1289.404297"/>
      <use xlink:href="#DejaVuSans-72" x="1328.613281"/>
      <use xlink:href="#DejaVuSans-61" x="1369.726562"/>
      <use xlink:href="#DejaVuSans-66" x="1431.005859"/>
      <use xlink:href="#DejaVuSans-66" x="1466.210938"/>
      <use xlink:href="#DejaVuSans-69" x="1501.416016"/>
      <use xlink:href="#DejaVuSans-63" x="1529.199219"/>
     </g>
    </g>
   </g>
   <g id="line2d_15">
    <path d="M 73.832727 294.552364 
L 75.410635 294.393788 
L 75.805112 294.544789 
L 77.38302 294.544127 
L 78.960928 294.406483 
L 79.355405 294.284763 
L 80.538836 294.304955 
L 84.089128 294.232079 
L 85.272559 294.258768 
L 86.850467 294.186266 
L 90.006283 294.249128 
L 90.40076 294.347923 
L 92.767622 294.34 
L 93.556576 294.276767 
L 95.134484 294.184592 
L 95.923438 294.193009 
L 96.317915 293.942996 
L 98.684776 293.857235 
L 99.868207 293.860825 
L 101.051638 293.952132 
L 102.235069 293.906658 
L 103.4185 293.952399 
L 105.390885 293.92094 
L 106.574316 294.103072 
L 107.757747 294.052735 
L 108.546701 294.133489 
L 109.335654 294.2107 
L 109.730131 294.133674 
L 112.096993 294.344118 
L 114.069378 294.260796 
L 114.858332 294.15988 
L 115.252809 294.076697 
L 116.041763 294.072599 
L 119.197579 294.075356 
L 119.592056 294.099257 
L 119.986533 293.976566 
L 122.353394 294.204137 
L 125.50921 294.040194 
L 125.903687 294.045679 
L 126.298164 293.9289 
L 127.087118 294.02658 
L 127.876072 293.845269 
L 128.270549 293.890343 
L 128.665026 293.779033 
L 129.059503 293.827768 
L 129.848457 293.724192 
L 131.031888 293.709448 
L 131.426365 293.837243 
L 133.004273 293.866109 
L 133.793227 293.879831 
L 134.187704 293.843539 
L 134.976657 293.626563 
L 135.371134 293.505711 
L 138.132473 293.650252 
L 140.893812 293.182976 
L 141.682766 293.324801 
L 144.838582 292.873357 
L 145.233059 292.976183 
L 147.59992 292.484381 
L 148.388874 292.50047 
L 149.572305 292.1677 
L 151.54469 291.705888 
L 152.728121 291.587168 
L 153.122598 291.684145 
L 155.094983 291.319387 
L 156.278414 290.958984 
L 156.672891 291.013512 
L 157.067368 290.68997 
L 157.856322 290.496335 
L 158.250799 290.546646 
L 159.039753 290.345718 
L 159.43423 290.497475 
L 160.223183 290.314192 
L 160.61766 290.268728 
L 161.012137 290.03273 
L 161.801091 289.875258 
L 163.378999 289.858856 
L 164.167953 289.657686 
L 165.351384 289.509458 
L 165.745861 289.315652 
L 166.140338 289.29696 
L 166.534815 289.397172 
L 168.112723 288.672643 
L 168.5072 288.68924 
L 170.085108 288.233647 
L 170.479585 287.928326 
L 170.874062 287.858274 
L 171.268539 287.669327 
L 171.663016 287.700099 
L 172.846446 287.236119 
L 173.240923 287.318163 
L 173.6354 287.089786 
L 174.029877 287.049647 
L 176.002262 285.976732 
L 177.185693 285.406984 
L 177.974647 284.61743 
L 178.763601 283.66419 
L 179.158078 283.889382 
L 179.552555 283.92834 
L 180.735986 282.585132 
L 181.130463 282.42407 
L 181.52494 281.745133 
L 182.708371 281.34094 
L 183.102848 281.081432 
L 183.497325 281.128529 
L 184.680756 280.387125 
L 185.075233 280.229653 
L 185.469709 279.938434 
L 186.258663 279.869429 
L 186.65314 279.209714 
L 187.047617 279.20102 
L 187.442094 278.47571 
L 187.836571 278.100075 
L 188.625525 278.207888 
L 189.020002 277.939347 
L 189.414479 277.525684 
L 190.203433 277.044147 
L 190.59791 276.613666 
L 190.992387 276.877596 
L 192.570295 276.03298 
L 192.964772 275.72068 
L 193.359249 274.437326 
L 193.753726 274.68077 
L 194.54268 273.809311 
L 194.937157 273.771894 
L 195.331634 274.148633 
L 196.515065 273.2914 
L 196.909542 272.709845 
L 197.698496 272.754683 
L 198.092972 272.125425 
L 198.487449 272.082113 
L 198.881926 268.748446 
L 199.276403 270.941826 
L 199.67088 272.248459 
L 200.065357 271.613553 
L 200.459834 271.258753 
L 200.854311 271.201575 
L 201.248788 270.366542 
L 201.643265 270.104893 
L 202.826696 268.292478 
L 203.221173 267.109079 
L 203.61565 266.433629 
L 204.010127 265.516604 
L 204.404604 264.911149 
L 204.799081 265.878085 
L 205.193558 265.730108 
L 205.588035 265.756879 
L 205.982512 265.913083 
L 206.376989 266.204754 
L 206.771466 266.093475 
L 207.165943 263.961031 
L 207.56042 264.276448 
L 208.743851 263.15279 
L 209.138328 263.001552 
L 209.927282 263.068045 
L 210.321759 261.456101 
L 210.716236 261.397393 
L 211.505189 260.125285 
L 211.899666 260.558997 
L 212.294143 258.573488 
L 212.68862 259.042792 
L 213.083097 257.702455 
L 213.477574 257.060632 
L 213.872051 256.09691 
L 214.266528 256.766157 
L 214.661005 255.752381 
L 215.055482 254.06584 
L 215.449959 254.915699 
L 215.844436 255.157972 
L 216.238913 254.634458 
L 216.63339 253.092346 
L 217.027867 253.520716 
L 217.422344 252.159185 
L 217.816821 252.472825 
L 219.000252 249.706241 
L 220.183683 249.41418 
L 220.57816 248.340037 
L 220.972637 248.470748 
L 221.367114 248.067804 
L 221.761591 247.003207 
L 222.156068 246.733008 
L 222.550545 245.54264 
L 222.945022 244.726603 
L 223.339499 244.582786 
L 223.733975 244.783647 
L 224.128452 244.264411 
L 224.522929 242.052487 
L 225.311883 243.349928 
L 225.70636 243.100696 
L 226.495314 243.026012 
L 226.889791 243.069955 
L 227.678745 242.803078 
L 228.073222 241.558573 
L 228.467699 241.49966 
L 228.862176 240.395973 
L 229.256653 240.392871 
L 229.65113 240.22521 
L 230.834561 237.068571 
L 231.229038 235.209347 
L 231.623515 236.47901 
L 232.017992 235.946843 
L 232.412469 234.846864 
L 232.806946 235.09171 
L 233.201423 232.743276 
L 233.5959 233.087821 
L 233.990377 232.799863 
L 234.384854 231.16121 
L 234.779331 231.145701 
L 235.173808 229.924264 
L 235.568285 230.218364 
L 235.962762 229.25227 
L 236.357238 228.739053 
L 236.751715 229.011707 
L 237.146192 228.350189 
L 237.540669 227.318182 
L 237.935146 227.648086 
L 238.329623 227.158635 
L 238.7241 225.534577 
L 239.118577 224.855419 
L 239.513054 224.918949 
L 239.907531 223.019767 
L 240.302008 223.357502 
L 241.090962 221.095482 
L 241.485439 218.838264 
L 241.879916 219.061361 
L 242.66887 217.792114 
L 243.063347 216.369954 
L 243.457824 216.560077 
L 243.852301 215.964067 
L 244.246778 213.715414 
L 244.641255 212.926466 
L 245.035732 209.198302 
L 245.430209 211.622221 
L 245.824686 211.182753 
L 246.219163 211.76081 
L 246.61364 211.082007 
L 247.402594 212.184441 
L 247.797071 211.964666 
L 248.191548 210.998279 
L 248.586025 211.288912 
L 249.374978 210.058093 
L 249.769455 209.038221 
L 250.163932 208.876481 
L 250.558409 208.187063 
L 250.952886 205.707918 
L 251.347363 206.485865 
L 251.74184 203.161344 
L 252.136317 203.41869 
L 252.530794 201.611606 
L 252.925271 200.497782 
L 254.108702 198.449241 
L 254.503179 196.77277 
L 254.897656 194.008744 
L 255.292133 194.706723 
L 256.870041 191.558701 
L 257.264518 191.040974 
L 257.658995 191.060571 
L 258.053472 191.345807 
L 258.447949 190.366356 
L 258.842426 188.99365 
L 259.236903 190.223407 
L 259.63138 190.247143 
L 260.025857 191.342716 
L 260.420334 190.143741 
L 260.814811 188.279654 
L 261.209288 188.518512 
L 261.603764 187.713752 
L 262.787195 186.433941 
L 263.576149 185.493878 
L 263.970626 185.392048 
L 264.365103 199.022625 
L 264.75958 183.661641 
L 265.154057 182.924355 
L 265.548534 179.199375 
L 265.943011 182.655285 
L 266.731965 182.15031 
L 267.126442 182.147866 
L 267.520919 181.685386 
L 267.915396 181.457471 
L 268.309873 182.723571 
L 268.70435 183.52623 
L 269.098827 183.331105 
L 269.493304 182.243677 
L 269.887781 182.321761 
L 271.071212 181.407355 
L 271.465689 178.964389 
L 271.860166 179.928634 
L 272.254643 177.341332 
L 272.64912 178.432299 
L 273.043597 176.260605 
L 273.438074 174.904616 
L 273.832551 175.704143 
L 274.227028 174.04124 
L 274.621504 172.937096 
L 275.015981 172.702315 
L 275.410458 173.604992 
L 275.804935 174.081153 
L 276.988366 171.642454 
L 277.382843 172.203287 
L 277.77732 173.011513 
L 278.171797 173.168236 
L 278.566274 171.318579 
L 278.960751 170.629633 
L 279.355228 169.288803 
L 280.144182 168.77066 
L 280.538659 168.910975 
L 280.933136 168.734112 
L 281.72209 166.892266 
L 282.116567 167.96683 
L 282.511044 164.562844 
L 282.905521 164.650397 
L 283.299998 164.235302 
L 283.694475 161.752613 
L 284.088952 161.007702 
L 284.483429 160.559966 
L 284.877906 160.563227 
L 285.272383 159.217251 
L 285.66686 159.125497 
L 286.455814 156.997362 
L 286.850291 158.402051 
L 287.244767 159.306818 
L 288.033721 157.152174 
L 288.428198 158.208949 
L 288.822675 158.015724 
L 289.217152 158.475723 
L 289.611629 156.849375 
L 290.006106 156.281922 
L 290.400583 157.511499 
L 290.79506 155.746479 
L 291.189537 155.887702 
L 291.584014 155.384232 
L 292.372968 155.189055 
L 292.767445 151.702584 
L 293.161922 151.601026 
L 293.556399 151.876187 
L 293.950876 152.719483 
L 294.73983 148.650856 
L 295.134307 146.856015 
L 295.528784 146.400452 
L 295.923261 146.556928 
L 296.317738 146.229351 
L 296.712215 144.44646 
L 297.106692 145.916728 
L 297.501169 144.351316 
L 297.895646 145.803974 
L 298.290123 144.762621 
L 298.6846 144.13227 
L 299.079077 144.079704 
L 299.473554 144.150721 
L 299.86803 142.793248 
L 300.262507 142.947485 
L 300.656984 144.416664 
L 301.051461 143.918847 
L 301.445938 144.521488 
L 301.840415 144.767798 
L 302.234892 142.884956 
L 302.629369 144.012599 
L 303.023846 144.315614 
L 303.418323 143.615848 
L 303.8128 143.188289 
L 304.207277 141.501702 
L 304.601754 141.857668 
L 304.996231 141.490589 
L 305.390708 141.612324 
L 305.785185 140.631543 
L 306.179662 140.20251 
L 306.574139 138.961091 
L 306.968616 138.418473 
L 307.363093 139.185591 
L 307.75757 139.413675 
L 308.152047 139.464988 
L 308.941001 137.699588 
L 309.335478 138.122807 
L 309.729955 136.835468 
L 310.124432 137.392634 
L 310.518909 137.151855 
L 310.913386 136.261432 
L 311.307863 136.479034 
L 311.70234 137.090713 
L 312.096817 136.81186 
L 312.491293 136.826435 
L 312.88577 134.513461 
L 313.674724 132.866704 
L 314.069201 133.138599 
L 314.463678 132.562899 
L 314.858155 130.646831 
L 315.252632 131.266649 
L 315.647109 128.517104 
L 316.041586 130.717545 
L 316.436063 128.895948 
L 316.83054 126.405849 
L 317.225017 127.134277 
L 317.619494 125.579459 
L 318.013971 124.5303 
L 318.408448 124.630666 
L 318.802925 123.843552 
L 319.197402 125.816782 
L 319.591879 124.172901 
L 319.986356 124.789294 
L 320.380833 125.15094 
L 321.564264 122.628776 
L 321.958741 124.728671 
L 322.353218 124.770745 
L 322.747695 123.842453 
L 323.142172 124.368468 
L 323.536649 125.643801 
L 323.931126 124.651932 
L 324.325603 122.344099 
L 324.72008 126.175372 
L 325.114557 125.143324 
L 325.509033 123.649505 
L 325.90351 124.902633 
L 326.297987 124.993175 
L 326.692464 122.946786 
L 327.086941 121.927669 
L 327.481418 120.059391 
L 327.875895 120.970469 
L 328.270372 120.280224 
L 328.664849 120.493117 
L 329.059326 121.077974 
L 329.453803 119.58452 
L 329.84828 118.972199 
L 330.242757 120.079363 
L 330.637234 119.803411 
L 331.031711 117.407609 
L 331.426188 116.880608 
L 331.820665 115.250084 
L 332.215142 117.927626 
L 332.609619 118.815636 
L 333.004096 117.942662 
L 333.398573 117.775715 
L 333.79305 117.912625 
L 334.187527 113.190122 
L 334.582004 116.347141 
L 334.976481 114.527948 
L 335.765435 115.448218 
L 336.159912 110.975507 
L 336.554389 110.403884 
L 336.948866 108.604688 
L 337.343343 108.53308 
L 337.73782 110.160502 
L 338.132296 107.916235 
L 338.526773 107.475083 
L 338.92125 106.316103 
L 339.315727 105.896966 
L 339.710204 104.580159 
L 340.104681 104.777036 
L 340.499158 107.969602 
L 340.893635 106.247987 
L 341.288112 105.157898 
L 341.682589 107.231099 
L 342.077066 106.084619 
L 342.471543 105.681042 
L 342.86602 104.025797 
L 343.654974 106.660221 
L 344.049451 106.370898 
L 344.443928 106.783933 
L 344.838405 106.653068 
L 345.232882 105.168883 
L 345.627359 106.884942 
L 346.021836 104.823208 
L 346.416313 104.094093 
L 346.81079 104.017703 
L 347.599744 101.450943 
L 347.994221 98.586827 
L 348.388698 100.540142 
L 348.783175 104.188466 
L 349.177652 100.078951 
L 349.572129 99.885901 
L 349.966606 102.643611 
L 350.755559 98.973164 
L 351.150036 98.9241 
L 351.544513 99.698957 
L 351.93899 99.667338 
L 352.333467 100.260709 
L 352.727944 93.284988 
L 353.122421 92.540302 
L 353.516898 92.74825 
L 353.911375 91.322594 
L 354.305852 90.854989 
L 354.700329 88.375453 
L 355.094806 91.526053 
L 355.489283 92.754516 
L 355.88376 90.059242 
L 356.278237 91.835277 
L 356.672714 88.815014 
L 357.067191 87.27721 
L 357.461668 83.546514 
L 357.856145 84.550379 
L 358.250622 79.022803 
L 359.039576 82.89748 
L 359.434053 84.66686 
L 359.82853 83.055317 
L 360.223007 83.369681 
L 360.617484 84.045768 
L 361.011961 83.908119 
L 361.406438 85.872886 
L 361.800915 84.957006 
L 362.195392 83.521186 
L 362.589869 83.852364 
L 362.984346 82.380894 
L 363.378822 82.754752 
L 363.773299 80.955139 
L 364.167776 82.225527 
L 364.562253 85.653306 
L 364.95673 83.346597 
L 365.351207 79.849522 
L 365.745684 82.747675 
L 366.140161 81.064113 
L 366.534638 82.81272 
L 366.929115 81.233736 
L 367.323592 81.211283 
L 368.507023 75.132359 
L 368.9015 77.855976 
L 369.295977 77.647714 
L 369.690454 76.284396 
L 370.084931 76.686211 
L 370.479408 79.009512 
L 371.268362 77.002296 
L 371.662839 78.473406 
L 372.057316 77.645758 
L 372.451793 76.042025 
L 372.84627 76.073213 
L 373.635224 73.412146 
L 374.029701 74.573139 
L 374.424178 74.554307 
L 374.818655 72.027059 
L 375.213132 73.328947 
L 376.002085 73.110594 
L 376.396562 71.706922 
L 376.791039 73.309833 
L 377.185516 73.357007 
L 377.579993 70.535854 
L 377.97447 70.501303 
L 378.368947 69.166363 
L 378.763424 65.64608 
L 379.157901 67.159008 
L 379.946855 66.328802 
L 380.341332 66.179634 
L 380.735809 66.556285 
L 381.130286 65.251234 
L 381.524763 66.782413 
L 382.313717 62.95856 
L 382.708194 64.483788 
L 383.102671 66.553353 
L 383.497148 67.362154 
L 383.891625 63.540628 
L 384.286102 65.815127 
L 384.680579 64.635529 
L 385.075056 68.755366 
L 385.469533 66.049343 
L 385.86401 65.041806 
L 386.258487 67.332123 
L 386.652964 67.542351 
L 387.047441 68.760881 
L 387.441918 66.569884 
L 387.836395 68.904811 
L 388.230872 66.068231 
L 388.625349 65.722022 
L 389.019825 63.038724 
L 389.414302 66.410399 
L 389.808779 66.39547 
L 390.203256 65.587048 
L 390.597733 65.673328 
L 390.99221 64.210399 
L 391.386687 65.343923 
L 391.781164 62.589057 
L 392.175641 63.273053 
L 392.570118 63.27444 
L 392.964595 72.816597 
L 393.753549 72.816597 
L 394.148026 60.949454 
L 394.542503 60.895342 
L 394.93698 62.482734 
L 395.331457 62.046065 
L 395.725934 60.393911 
L 396.120411 60.803208 
L 396.514888 60.070488 
L 396.909365 57.619141 
L 397.303842 58.533444 
L 397.698319 53.568 
L 398.092796 54.587975 
L 398.487273 64.15356 
L 398.487273 64.15356 
" clip-path="url(#p79308141a8)" style="fill: none; stroke: #1f77b4; stroke-width: 1.5; stroke-linecap: square"/>
   </g>
   <g id="line2d_16">
    <path d="M 73.832727 294.797775 
L 75.410635 294.667305 
L 75.805112 294.776499 
L 84.483605 294.537112 
L 85.272559 294.528818 
L 87.244944 294.466551 
L 89.611806 294.505694 
L 96.317915 294.449908 
L 96.712391 294.266065 
L 112.096993 294.450318 
L 114.069378 294.451402 
L 115.252809 294.289996 
L 116.830717 294.265736 
L 118.803102 294.20993 
L 123.536825 294.37927 
L 129.059503 293.955439 
L 129.848457 293.901815 
L 130.637411 293.842517 
L 131.426365 293.934775 
L 132.609796 293.999917 
L 134.58218 293.881094 
L 135.371134 293.71217 
L 136.554565 293.820907 
L 141.682766 293.477081 
L 142.077243 293.579368 
L 147.59992 292.939583 
L 149.177828 292.690619 
L 149.966782 292.697623 
L 151.150213 292.308837 
L 152.728121 292.036069 
L 153.122598 292.153989 
L 154.700506 292.032398 
L 160.223183 291.031527 
L 160.61766 291.075481 
L 161.406614 290.824333 
L 162.195568 290.724465 
L 162.590045 290.494892 
L 163.773476 290.756186 
L 164.56243 290.575872 
L 164.956907 290.522869 
L 165.351384 290.299792 
L 165.745861 290.316498 
L 166.140338 290.151251 
L 167.323769 290.066814 
L 167.718246 289.831181 
L 168.901677 289.592913 
L 169.296154 289.595486 
L 169.690631 289.444546 
L 170.085108 289.429207 
L 171.663016 288.961165 
L 172.45197 288.736224 
L 172.846446 288.497951 
L 173.240923 288.633141 
L 174.424354 288.157494 
L 175.213308 287.761035 
L 175.607785 287.460619 
L 176.396739 287.251926 
L 176.791216 287.347814 
L 177.58017 287.201199 
L 178.763601 286.079306 
L 179.158078 285.80981 
L 179.552555 285.883899 
L 179.947032 285.739311 
L 181.130463 284.896924 
L 181.52494 284.754386 
L 182.313894 284.073862 
L 182.708371 283.980618 
L 183.102848 282.696288 
L 183.497325 282.8162 
L 183.891802 283.671785 
L 184.286279 283.578875 
L 185.075233 282.922359 
L 185.469709 283.515622 
L 185.864186 282.747457 
L 186.258663 282.700211 
L 186.65314 282.461446 
L 187.047617 281.90299 
L 187.442094 281.931369 
L 188.231048 281.076025 
L 188.625525 281.10182 
L 189.020002 280.910711 
L 189.414479 280.216907 
L 189.808956 280.451179 
L 190.203433 279.926042 
L 190.59791 280.083566 
L 190.992387 279.893992 
L 191.386864 279.971357 
L 191.781341 279.37966 
L 192.175818 279.402466 
L 192.570295 278.798814 
L 192.964772 278.90369 
L 193.753726 277.629599 
L 194.148203 277.377466 
L 194.54268 277.297282 
L 194.937157 277.004856 
L 195.331634 276.975872 
L 195.726111 277.087808 
L 196.120588 277.066579 
L 197.304019 276.648536 
L 197.698496 276.784645 
L 198.487449 276.432915 
L 198.881926 275.826516 
L 199.276403 274.465401 
L 199.67088 275.481406 
L 200.065357 275.81588 
L 200.459834 275.464747 
L 200.854311 275.668427 
L 201.248788 275.160289 
L 202.037742 274.503259 
L 202.432219 273.851904 
L 202.826696 273.443408 
L 203.221173 272.587643 
L 203.61565 270.05492 
L 204.010127 268.43267 
L 204.404604 270.835883 
L 204.799081 271.469628 
L 205.193558 271.487058 
L 205.588035 271.740357 
L 205.982512 271.722116 
L 206.376989 272.061115 
L 206.771466 271.361533 
L 207.165943 271.484547 
L 207.56042 270.177949 
L 207.954897 269.778676 
L 208.349374 270.005677 
L 209.138328 268.702736 
L 209.532805 269.055395 
L 209.927282 269.021393 
L 210.321759 268.601501 
L 210.716236 267.992062 
L 211.110712 267.674971 
L 211.505189 267.719916 
L 212.294143 265.830809 
L 212.68862 265.275168 
L 213.083097 264.976569 
L 213.477574 263.888186 
L 213.872051 263.511221 
L 215.055482 261.316557 
L 215.449959 261.689157 
L 216.238913 261.322694 
L 217.027867 260.619091 
L 217.422344 260.924972 
L 218.211298 260.537089 
L 219.000252 259.566568 
L 220.183683 259.070482 
L 220.57816 259.073733 
L 220.972637 258.056203 
L 221.367114 257.95371 
L 221.761591 257.981596 
L 222.156068 257.46047 
L 223.339499 254.880265 
L 223.733975 254.393572 
L 224.128452 252.044958 
L 224.522929 248.731386 
L 224.917406 253.647859 
L 225.311883 254.719187 
L 225.70636 254.42006 
L 226.100837 253.892576 
L 226.495314 253.964359 
L 226.889791 254.236022 
L 227.678745 253.126193 
L 228.467699 252.61979 
L 228.862176 252.210205 
L 229.256653 251.040647 
L 229.65113 250.769338 
L 230.045607 250.703034 
L 230.834561 249.668126 
L 231.229038 248.437954 
L 231.623515 247.671283 
L 232.017992 248.154459 
L 232.806946 246.643379 
L 233.201423 245.253285 
L 233.5959 244.848959 
L 233.990377 244.651215 
L 234.779331 242.422005 
L 235.173808 240.685923 
L 235.568285 241.446195 
L 235.962762 241.302886 
L 236.357238 240.429327 
L 236.751715 239.839736 
L 237.146192 239.688786 
L 237.540669 239.795525 
L 237.935146 241.000297 
L 238.329623 240.382564 
L 238.7241 240.659014 
L 239.118577 240.003191 
L 239.513054 240.074481 
L 239.907531 239.336851 
L 240.696485 237.273761 
L 241.090962 237.480985 
L 241.879916 234.563019 
L 242.274393 235.254446 
L 242.66887 234.717087 
L 243.063347 233.445384 
L 243.457824 233.350965 
L 243.852301 232.49746 
L 244.246778 232.011501 
L 244.641255 228.621847 
L 245.035732 220.800607 
L 245.430209 226.430994 
L 245.824686 229.43315 
L 246.219163 229.750287 
L 247.008117 229.419793 
L 247.402594 229.511532 
L 247.797071 229.469508 
L 248.191548 228.535054 
L 248.586025 228.301834 
L 248.980501 228.59292 
L 249.769455 227.499673 
L 250.558409 225.53676 
L 250.952886 223.3868 
L 251.347363 224.11006 
L 251.74184 224.002951 
L 252.136317 220.103757 
L 252.530794 220.958921 
L 253.319748 218.357332 
L 253.714225 215.854154 
L 254.108702 215.76394 
L 254.503179 215.421136 
L 255.292133 211.060869 
L 255.68661 210.771586 
L 256.081087 210.127781 
L 256.475564 209.81337 
L 257.264518 207.324961 
L 257.658995 207.111651 
L 258.053472 207.037963 
L 258.447949 208.128955 
L 258.842426 208.254609 
L 259.63138 209.825824 
L 260.420334 210.340361 
L 260.814811 208.133449 
L 261.209288 207.576847 
L 261.603764 208.058179 
L 261.998241 207.075637 
L 262.392718 205.267777 
L 262.787195 206.841318 
L 263.181672 207.465086 
L 263.576149 205.603366 
L 263.970626 205.374373 
L 264.365103 204.325922 
L 264.75958 199.022625 
L 265.154057 201.146194 
L 265.548534 192.375657 
L 266.337488 202.789751 
L 266.731965 201.438445 
L 267.126442 202.858191 
L 267.520919 202.331169 
L 267.915396 202.243621 
L 268.309873 200.86863 
L 268.70435 203.189723 
L 269.098827 203.832502 
L 269.493304 203.230698 
L 269.887781 201.912484 
L 270.282258 201.463085 
L 270.676735 200.434108 
L 271.071212 200.362443 
L 271.465689 202.183819 
L 271.860166 201.142769 
L 272.254643 199.662358 
L 272.64912 197.581762 
L 273.043597 197.383941 
L 273.438074 196.523549 
L 273.832551 196.62865 
L 274.227028 194.413784 
L 274.621504 194.362691 
L 275.015981 192.838332 
L 275.410458 192.595663 
L 275.804935 192.130493 
L 276.199412 190.674034 
L 276.988366 190.686071 
L 277.77732 190.096752 
L 278.171797 190.97274 
L 278.566274 189.487698 
L 278.960751 188.697101 
L 279.355228 191.527965 
L 279.749705 191.66867 
L 280.144182 191.534729 
L 280.538659 191.620218 
L 280.933136 191.548856 
L 281.327613 190.131421 
L 281.72209 190.469434 
L 282.116567 191.041878 
L 282.511044 190.410079 
L 282.905521 187.510025 
L 283.299998 188.304833 
L 283.694475 187.908487 
L 284.088952 184.825597 
L 284.483429 186.333934 
L 285.66686 182.311716 
L 286.061337 169.736395 
L 286.455814 174.559947 
L 286.850291 181.814619 
L 287.244767 183.146097 
L 288.033721 181.859856 
L 288.428198 180.59843 
L 288.822675 181.541502 
L 289.217152 181.273901 
L 289.611629 182.266386 
L 290.006106 180.025811 
L 290.400583 182.004829 
L 291.189537 179.949838 
L 291.584014 179.920977 
L 291.978491 180.534931 
L 292.372968 177.966599 
L 292.767445 177.532323 
L 293.161922 175.381988 
L 293.556399 177.356784 
L 293.950876 178.612757 
L 294.345353 176.200737 
L 295.134307 169.474145 
L 295.528784 170.944238 
L 295.923261 169.733206 
L 296.317738 169.071816 
L 296.712215 167.500971 
L 297.106692 168.154129 
L 297.501169 168.336723 
L 297.895646 168.172596 
L 298.290123 167.650304 
L 298.6846 166.817315 
L 299.079077 164.492406 
L 299.473554 167.429897 
L 299.86803 168.261515 
L 300.262507 168.417966 
L 300.656984 169.739764 
L 301.051461 170.473306 
L 301.840415 170.20096 
L 302.234892 170.710598 
L 302.629369 170.41657 
L 303.023846 171.083223 
L 303.8128 168.393398 
L 304.207277 170.086389 
L 304.601754 169.511238 
L 304.996231 168.079717 
L 305.390708 168.237856 
L 305.785185 167.548417 
L 306.179662 165.40179 
L 306.574139 153.534226 
L 306.968616 153.21828 
L 307.363093 164.834455 
L 307.75757 166.463223 
L 308.152047 166.796686 
L 308.546524 165.675631 
L 308.941001 164.161532 
L 309.729955 162.464926 
L 310.124432 162.416879 
L 310.518909 162.979771 
L 310.913386 162.576534 
L 311.307863 153.518589 
L 311.70234 149.565293 
L 312.096817 148.025836 
L 312.491293 149.173631 
L 313.674724 145.151582 
L 314.069201 145.433891 
L 314.463678 147.564044 
L 314.858155 145.612039 
L 315.252632 144.867055 
L 315.647109 146.609957 
L 316.041586 147.568178 
L 316.83054 144.555043 
L 317.225017 141.686387 
L 317.619494 141.469395 
L 318.013971 139.912472 
L 318.408448 141.257267 
L 318.802925 141.072387 
L 319.197402 142.135093 
L 319.591879 141.116803 
L 319.986356 141.125292 
L 320.380833 142.022535 
L 320.77531 143.609172 
L 321.169787 142.851011 
L 321.564264 144.671524 
L 322.353218 144.800012 
L 322.747695 145.502654 
L 323.142172 144.222355 
L 323.536649 144.403065 
L 323.931126 143.390619 
L 324.325603 141.558145 
L 324.72008 143.647913 
L 325.114557 144.068468 
L 325.509033 143.864042 
L 325.90351 146.212537 
L 326.297987 144.245305 
L 327.086941 136.292131 
L 327.481418 129.966004 
L 328.270372 139.430529 
L 328.664849 138.730049 
L 329.059326 139.603824 
L 329.453803 138.521346 
L 330.242757 137.594481 
L 330.637234 137.732023 
L 331.031711 139.307706 
L 331.426188 138.917841 
L 331.820665 138.720913 
L 332.215142 136.869356 
L 332.609619 139.903085 
L 333.398573 137.046415 
L 333.79305 139.200237 
L 334.187527 137.949112 
L 334.582004 134.693488 
L 334.976481 135.013347 
L 335.370958 133.077123 
L 335.765435 131.942567 
L 336.159912 133.723876 
L 336.554389 134.084023 
L 337.343343 126.960664 
L 337.73782 126.839391 
L 338.132296 126.486989 
L 338.526773 125.765515 
L 338.92125 123.14624 
L 339.315727 124.528102 
L 339.710204 123.220781 
L 340.104681 123.320921 
L 340.499158 124.50545 
L 340.893635 127.403346 
L 341.288112 128.075294 
L 341.682589 128.123542 
L 342.077066 129.577258 
L 342.471543 127.465711 
L 343.260497 128.594294 
L 343.654974 128.85751 
L 344.049451 128.641776 
L 344.443928 128.215861 
L 344.838405 130.505823 
L 345.232882 129.452196 
L 345.627359 129.956036 
L 346.021836 128.458838 
L 346.416313 129.496422 
L 347.205267 126.942762 
L 347.599744 121.8528 
L 347.994221 109.934267 
L 348.783175 121.84826 
L 349.177652 122.175406 
L 349.572129 123.845601 
L 349.966606 122.264942 
L 350.361083 124.928936 
L 350.755559 123.987759 
L 351.150036 120.678357 
L 351.544513 122.490602 
L 351.93899 122.484393 
L 352.333467 124.705649 
L 352.727944 120.937505 
L 353.122421 114.560095 
L 353.516898 114.711015 
L 353.911375 124.754594 
L 354.305852 113.479554 
L 355.094806 110.138117 
L 355.489283 113.698902 
L 355.88376 113.527061 
L 356.278237 112.230591 
L 356.672714 109.248725 
L 357.067191 109.867706 
L 357.856145 102.526072 
L 358.250622 103.267518 
L 358.645099 103.051794 
L 359.039576 100.689567 
L 359.434053 100.601628 
L 359.82853 101.479316 
L 360.223007 100.26947 
L 360.617484 101.079987 
L 361.011961 101.178294 
L 361.406438 104.397549 
L 361.800915 105.200286 
L 362.589869 108.098311 
L 362.984346 106.107769 
L 363.378822 107.204647 
L 363.773299 107.331661 
L 364.167776 104.580719 
L 364.562253 107.670172 
L 364.95673 108.528222 
L 365.351207 105.540404 
L 365.745684 104.732214 
L 366.140161 106.942679 
L 366.534638 103.54409 
L 366.929115 106.853205 
L 367.323592 107.145225 
L 367.718069 102.929454 
L 368.507023 89.221661 
L 368.9015 96.237038 
L 369.295977 101.016944 
L 369.690454 100.944915 
L 370.084931 101.509466 
L 370.479408 100.407284 
L 370.873885 100.536214 
L 371.268362 101.233854 
L 372.057316 98.995354 
L 372.451793 101.926343 
L 373.240747 94.903485 
L 373.635224 98.493563 
L 374.029701 94.349636 
L 374.424178 96.937893 
L 374.818655 97.573575 
L 375.213132 96.324812 
L 375.607609 93.25189 
L 376.002085 97.906277 
L 376.396562 97.752189 
L 376.791039 94.436357 
L 377.185516 94.998428 
L 377.579993 94.438216 
L 377.97447 89.945795 
L 378.763424 85.51922 
L 379.157901 85.865706 
L 379.552378 85.696412 
L 379.946855 84.601543 
L 380.341332 85.951776 
L 380.735809 84.51649 
L 381.130286 85.484053 
L 381.524763 84.136023 
L 382.313717 89.375749 
L 382.708194 90.876866 
L 383.102671 89.847072 
L 383.497148 91.454173 
L 383.891625 91.007069 
L 384.286102 90.352843 
L 384.680579 90.06014 
L 385.075056 92.175688 
L 385.469533 92.840801 
L 385.86401 90.164009 
L 386.258487 91.079884 
L 386.652964 93.494544 
L 387.047441 91.008425 
L 387.441918 92.663824 
L 387.836395 93.188761 
L 388.230872 91.724999 
L 388.625349 86.957921 
L 389.019825 75.148038 
L 389.414302 80.698965 
L 389.808779 87.954904 
L 390.203256 87.955824 
L 390.597733 90.453995 
L 390.99221 89.45332 
L 391.781164 86.240237 
L 392.175641 85.529075 
L 392.570118 87.936412 
L 392.964595 72.816597 
L 393.753549 72.816597 
L 394.148026 84.200478 
L 394.542503 82.944526 
L 394.93698 83.405994 
L 395.331457 88.047373 
L 395.725934 87.343565 
L 396.120411 83.721559 
L 396.514888 84.689415 
L 396.909365 83.396709 
L 397.303842 84.293028 
L 397.698319 81.368437 
L 398.092796 76.060816 
L 398.487273 76.827368 
L 398.487273 76.827368 
" clip-path="url(#p79308141a8)" style="fill: none; stroke: #ff7f0e; stroke-width: 1.5; stroke-linecap: square"/>
   </g>
   <g id="line2d_17">
    <path d="M 73.832727 295.242589 
L 79.749882 295.213949 
L 80.144359 295.278588 
L 80.933313 295.172239 
L 81.32779 295.253728 
L 81.722267 295.158533 
L 82.116744 295.253173 
L 83.300175 295.156766 
L 94.34553 295.217764 
L 94.740007 295.177914 
L 95.134484 295.269622 
L 96.317915 294.981089 
L 96.712391 295.165486 
L 111.308039 295.360847 
L 112.49147 295.364832 
L 116.830717 295.234342 
L 117.619671 295.259854 
L 118.014148 295.322753 
L 118.803102 295.290225 
L 119.592056 295.290888 
L 120.38101 295.300347 
L 120.775487 295.391711 
L 123.931302 295.301256 
L 140.104858 295.224697 
L 140.499335 295.087423 
L 141.682766 295.33572 
L 142.47172 295.086375 
L 142.866197 295.169168 
L 143.260674 295.056723 
L 145.233059 295.256501 
L 146.022013 295.178227 
L 146.41649 294.868012 
L 146.810967 295.069346 
L 147.205443 294.975353 
L 148.388874 295.155575 
L 148.783351 295.017786 
L 149.177828 295.063332 
L 149.966782 294.844256 
L 150.361259 294.895702 
L 151.150213 294.816001 
L 151.54469 294.953912 
L 152.333644 294.803152 
L 152.728121 295.039098 
L 156.672891 294.788439 
L 157.067368 294.581256 
L 157.461845 294.528654 
L 158.250799 294.703099 
L 159.039753 294.66066 
L 159.43423 294.913106 
L 161.012137 294.603687 
L 162.195568 294.638423 
L 162.590045 294.90111 
L 163.773476 294.460759 
L 164.56243 294.539613 
L 164.956907 294.481891 
L 165.351384 294.697665 
L 165.745861 294.487155 
L 166.534815 294.753985 
L 167.718246 294.385453 
L 168.901677 294.481126 
L 169.296154 294.275925 
L 169.690631 294.408316 
L 170.479585 294.116214 
L 170.874062 294.261643 
L 171.268539 294.158494 
L 171.663016 294.226933 
L 172.45197 294.180221 
L 173.240923 294.173022 
L 173.6354 294.068547 
L 174.029877 294.183174 
L 175.213308 294.018189 
L 175.607785 294.2103 
L 176.396739 294.062431 
L 176.791216 293.790279 
L 177.185693 293.666141 
L 177.58017 293.364831 
L 178.369124 293.322171 
L 178.763601 293.072883 
L 179.158078 293.567572 
L 179.552555 293.532441 
L 179.947032 293.248637 
L 180.341509 293.197073 
L 180.735986 292.811142 
L 181.130463 293.015146 
L 181.52494 292.478747 
L 182.313894 292.947482 
L 182.708371 292.848322 
L 183.102848 293.873144 
L 183.497325 293.800329 
L 183.891802 292.661234 
L 184.286279 292.536135 
L 184.680756 292.580664 
L 185.075233 292.795294 
L 185.469709 291.910812 
L 185.864186 292.652704 
L 186.258663 292.657218 
L 186.65314 292.236268 
L 187.047617 292.786029 
L 187.442094 292.032341 
L 187.836571 292.145171 
L 188.231048 292.565202 
L 189.020002 292.516636 
L 189.414479 292.796778 
L 189.808956 292.32886 
L 190.203433 292.606105 
L 190.59791 292.018101 
L 190.992387 292.471604 
L 191.386864 292.204249 
L 191.781341 292.583648 
L 192.175818 292.395266 
L 192.570295 292.722165 
L 193.359249 291.760698 
L 193.753726 292.53917 
L 194.148203 292.412808 
L 194.54268 292.000029 
L 194.937157 292.255038 
L 195.331634 292.660761 
L 195.726111 292.242492 
L 196.515065 291.88326 
L 196.909542 291.368574 
L 197.304019 291.617539 
L 197.698496 291.458038 
L 198.092972 291.015725 
L 198.487449 291.137198 
L 198.881926 288.40993 
L 199.276403 291.964425 
L 199.67088 292.255054 
L 200.065357 291.285673 
L 200.459834 291.282006 
L 201.248788 290.694253 
L 201.643265 290.736718 
L 202.037742 290.462112 
L 202.432219 290.586122 
L 203.221173 290.009436 
L 203.61565 291.866709 
L 204.010127 292.571934 
L 204.404604 289.563267 
L 204.799081 289.896457 
L 205.588035 289.504523 
L 205.982512 289.678967 
L 206.376989 289.631639 
L 206.771466 290.219942 
L 207.165943 287.964485 
L 207.56042 289.586499 
L 207.954897 289.578924 
L 208.349374 288.919789 
L 208.743851 289.262095 
L 209.138328 289.786816 
L 209.532805 289.45607 
L 209.927282 289.534652 
L 210.321759 288.3426 
L 210.716236 288.893332 
L 211.110712 288.501248 
L 211.505189 287.89337 
L 211.899666 289.298069 
L 212.294143 288.230679 
L 212.68862 289.255625 
L 213.083097 288.213886 
L 213.477574 288.660446 
L 213.872051 288.073689 
L 214.266528 289.500435 
L 214.661005 289.191458 
L 215.055482 288.237283 
L 215.844436 289.100802 
L 216.238913 288.799765 
L 216.63339 287.666672 
L 217.027867 288.389625 
L 217.422344 286.722214 
L 217.816821 287.244783 
L 218.211298 286.399191 
L 219.000252 285.627673 
L 219.789206 285.773857 
L 220.183683 285.831697 
L 220.57816 284.754304 
L 220.972637 285.902546 
L 221.367114 285.602093 
L 221.761591 284.509612 
L 222.156068 284.760538 
L 222.550545 284.514644 
L 222.945022 284.623253 
L 223.733975 285.878075 
L 224.128452 287.707452 
L 224.522929 288.809101 
L 224.917406 284.525095 
L 225.311883 284.11874 
L 225.70636 284.168636 
L 226.100837 284.628712 
L 226.495314 284.549652 
L 226.889791 284.321933 
L 227.678745 285.164885 
L 228.073222 284.117015 
L 228.467699 284.367869 
L 228.862176 283.673767 
L 229.256653 284.840224 
L 229.65113 284.943872 
L 230.045607 283.894615 
L 230.834561 282.888445 
L 231.229038 282.259393 
L 231.623515 284.295727 
L 232.017992 283.280384 
L 232.412469 282.960233 
L 232.806946 283.93633 
L 233.201423 282.977991 
L 233.5959 283.726862 
L 233.990377 283.636648 
L 234.384854 283.186211 
L 234.779331 284.211696 
L 235.173808 284.726341 
L 235.568285 284.260169 
L 235.962762 283.437384 
L 236.357238 283.797726 
L 236.751715 284.659971 
L 237.146192 284.149404 
L 237.935146 282.135789 
L 238.329623 282.264071 
L 238.7241 280.363564 
L 239.513054 280.332469 
L 239.907531 279.170916 
L 240.302008 280.493674 
L 240.696485 280.298421 
L 241.090962 279.102497 
L 241.485439 278.4691 
L 241.879916 279.986342 
L 242.274393 278.650134 
L 243.063347 278.41257 
L 243.852301 278.954607 
L 244.246778 277.191914 
L 244.641255 279.792619 
L 245.035732 283.885695 
L 245.824686 277.237603 
L 246.219163 277.498523 
L 246.61364 276.955479 
L 247.008117 277.693381 
L 247.402594 278.160909 
L 247.797071 277.983157 
L 248.191548 277.951225 
L 248.586025 278.475078 
L 248.980501 277.613202 
L 249.374978 277.517796 
L 249.769455 277.026548 
L 250.163932 277.991625 
L 250.558409 278.138303 
L 250.952886 277.809118 
L 251.347363 277.863805 
L 251.74184 274.646393 
L 252.136317 278.802933 
L 252.530794 276.140685 
L 252.925271 276.188408 
L 253.319748 276.957821 
L 253.714225 278.998428 
L 254.108702 278.173301 
L 254.503179 276.839635 
L 254.897656 276.341859 
L 255.292133 279.133854 
L 255.68661 278.615259 
L 256.081087 278.624128 
L 256.475564 277.753214 
L 256.870041 278.654571 
L 257.264518 279.204014 
L 258.053472 279.795844 
L 258.842426 276.227042 
L 259.236903 276.531212 
L 259.63138 275.909319 
L 260.025857 276.797 
L 260.420334 275.29138 
L 260.814811 275.634205 
L 261.209288 276.429665 
L 261.603764 275.143573 
L 261.998241 275.656713 
L 262.392718 276.996485 
L 262.787195 275.080623 
L 263.181672 274.046336 
L 263.576149 275.378513 
L 263.970626 275.505676 
L 264.365103 290.184703 
L 264.75958 280.127016 
L 265.154057 277.266161 
L 265.548534 282.311718 
L 265.943011 281.013352 
L 266.337488 275.069833 
L 266.731965 276.199865 
L 267.126442 274.777675 
L 267.520919 274.842217 
L 267.915396 274.701851 
L 268.309873 277.342941 
L 268.70435 275.824508 
L 269.098827 274.986604 
L 269.493304 274.500979 
L 269.887781 275.897277 
L 270.282258 276.054117 
L 270.676735 276.758485 
L 271.071212 276.532912 
L 271.465689 272.26857 
L 271.860166 274.273865 
L 272.254643 273.166974 
L 272.64912 276.338537 
L 273.043597 274.364665 
L 273.438074 273.869067 
L 274.227028 275.115456 
L 274.621504 274.062405 
L 275.410458 276.497329 
L 275.804935 277.43866 
L 276.199412 278.082204 
L 276.988366 276.444383 
L 277.77732 278.402761 
L 278.171797 277.683496 
L 278.566274 277.318881 
L 278.960751 277.420532 
L 279.355228 273.248837 
L 279.749705 272.777771 
L 280.933136 272.673255 
L 281.327613 273.177553 
L 281.72209 271.910832 
L 282.116567 272.412952 
L 282.511044 269.640765 
L 282.905521 272.628372 
L 283.299998 271.418469 
L 283.694475 269.332127 
L 284.088952 271.670104 
L 284.483429 269.714032 
L 284.877906 271.002994 
L 285.272383 271.044139 
L 285.66686 272.30178 
L 286.061337 283.653364 
L 286.850291 272.075432 
L 287.244767 271.648721 
L 287.639244 271.393085 
L 288.033721 270.780317 
L 288.428198 273.098519 
L 288.822675 271.962222 
L 289.217152 272.689822 
L 289.611629 270.070989 
L 290.006106 271.744111 
L 290.79506 270.385558 
L 291.189537 271.425864 
L 291.584014 270.951255 
L 291.978491 270.290543 
L 292.372968 272.710456 
L 292.767445 269.658261 
L 293.161922 271.707038 
L 293.556399 270.007402 
L 293.950876 269.594726 
L 294.345353 269.690594 
L 295.134307 272.86987 
L 295.528784 270.944214 
L 295.923261 272.311723 
L 296.317738 272.645535 
L 296.712215 272.433488 
L 297.106692 273.250599 
L 297.501169 271.502592 
L 297.895646 273.119379 
L 298.290123 272.600317 
L 298.6846 272.802955 
L 299.079077 275.075298 
L 299.86803 270.019732 
L 300.262507 270.017519 
L 300.656984 270.1649 
L 301.051461 268.933542 
L 301.445938 269.658703 
L 301.840415 270.054838 
L 302.234892 267.662358 
L 302.629369 269.08403 
L 303.023846 268.720391 
L 303.8128 270.282891 
L 304.207277 266.903314 
L 304.996231 268.898873 
L 305.390708 268.862468 
L 305.785185 268.571125 
L 306.179662 270.28872 
L 306.574139 280.914865 
L 306.968616 280.688193 
L 307.363093 269.839135 
L 307.75757 268.438452 
L 308.152047 268.156302 
L 308.546524 268.473712 
L 308.941001 269.026056 
L 309.335478 270.412684 
L 309.729955 269.858542 
L 310.124432 270.463755 
L 310.518909 269.660084 
L 310.913386 269.172898 
L 311.307863 278.448446 
L 311.70234 283.01342 
L 312.096817 284.274025 
L 312.88577 282.073845 
L 313.674724 283.203122 
L 314.069201 283.192708 
L 314.463678 280.486855 
L 314.858155 280.522792 
L 315.252632 281.887594 
L 315.647109 277.395147 
L 316.041586 278.637367 
L 316.436063 278.234027 
L 316.83054 277.338807 
L 317.225017 280.93589 
L 317.619494 279.598064 
L 318.013971 280.105828 
L 318.408448 278.8614 
L 318.802925 278.259165 
L 319.197402 279.169689 
L 319.591879 278.544098 
L 319.986356 279.152002 
L 320.380833 278.616405 
L 320.77531 276.243973 
L 321.169787 276.331101 
L 321.564264 273.445251 
L 321.958741 275.443881 
L 322.353218 275.458733 
L 322.747695 273.827798 
L 323.142172 275.634112 
L 323.536649 276.728735 
L 323.931126 276.749313 
L 324.325603 276.273954 
L 324.72008 278.015459 
L 325.509033 275.273463 
L 325.90351 274.178095 
L 326.692464 277.71306 
L 327.086941 281.123538 
L 327.481418 285.581387 
L 328.270372 276.337694 
L 328.664849 277.251068 
L 329.84828 276.469885 
L 330.242757 277.972881 
L 330.637234 277.559388 
L 331.031711 273.587903 
L 331.426188 273.450767 
L 331.820665 272.017171 
L 332.215142 276.546269 
L 332.609619 274.400551 
L 333.004096 275.136943 
L 333.398573 276.2173 
L 333.79305 274.200388 
L 334.187527 270.72901 
L 334.582004 277.141653 
L 334.976481 275.002601 
L 335.370958 277.378447 
L 335.765435 278.993652 
L 336.159912 272.739631 
L 336.554389 271.807862 
L 336.948866 273.517286 
L 337.343343 277.060416 
L 337.73782 278.809111 
L 338.132296 276.917246 
L 338.526773 277.197568 
L 338.92125 278.657863 
L 339.315727 276.856864 
L 340.104681 276.944115 
L 340.499158 278.952153 
L 340.893635 274.33264 
L 341.288112 272.570604 
L 341.682589 274.595558 
L 342.077066 271.995361 
L 342.471543 273.703332 
L 342.86602 271.503768 
L 343.654974 273.290712 
L 344.049451 273.217121 
L 344.443928 274.056073 
L 344.838405 271.635245 
L 345.232882 271.204687 
L 345.627359 272.416906 
L 346.021836 271.85237 
L 346.416313 270.085671 
L 346.81079 271.374074 
L 347.205267 271.357173 
L 347.599744 275.086144 
L 347.994221 284.140561 
L 348.388698 279.221643 
L 348.783175 277.828206 
L 349.177652 273.391545 
L 349.572129 271.5283 
L 349.966606 275.866669 
L 350.361083 271.361636 
L 350.755559 270.473405 
L 351.150036 273.733743 
L 351.544513 272.696355 
L 351.93899 272.670945 
L 352.333467 271.04306 
L 352.727944 267.835483 
L 353.122421 273.468207 
L 353.516898 273.525236 
L 353.911375 262.056 
L 354.305852 272.863435 
L 354.700329 271.86962 
L 355.094806 276.875937 
L 355.88376 272.02018 
L 356.278237 275.092686 
L 356.672714 275.054289 
L 357.067191 272.897503 
L 357.461668 273.01609 
L 357.856145 277.512307 
L 358.250622 271.243285 
L 358.645099 273.698206 
L 359.039576 277.695913 
L 359.434053 279.553232 
L 359.82853 277.064001 
L 360.223007 278.588211 
L 361.011961 278.217825 
L 361.406438 276.963336 
L 361.800915 275.24472 
L 362.195392 272.466781 
L 362.589869 271.242053 
L 362.984346 271.761124 
L 363.378822 271.038105 
L 363.773299 269.111479 
L 364.167776 273.132808 
L 364.562253 273.471134 
L 364.95673 270.306376 
L 365.351207 269.797117 
L 365.745684 273.503461 
L 366.140161 269.609434 
L 366.534638 274.75663 
L 366.929115 269.86853 
L 367.323592 269.554058 
L 367.718069 271.555862 
L 368.112546 275.707811 
L 368.507023 281.398698 
L 369.295977 272.11877 
L 369.690454 270.827481 
L 370.084931 270.664745 
L 370.479408 274.090228 
L 371.268362 271.256442 
L 371.662839 273.945363 
L 372.057316 274.138404 
L 372.451793 269.603682 
L 372.84627 273.528512 
L 373.240747 275.486346 
L 373.635224 270.406583 
L 374.029701 275.711503 
L 374.818655 269.941484 
L 375.607609 275.410686 
L 376.002085 270.692317 
L 376.396562 269.442733 
L 376.791039 274.361476 
L 377.185516 273.846579 
L 377.579993 271.585637 
L 377.97447 276.043507 
L 378.368947 276.986353 
L 378.763424 275.61486 
L 379.157901 276.781302 
L 379.552378 276.556858 
L 379.946855 277.215259 
L 380.341332 275.715858 
L 380.735809 277.527795 
L 381.130286 275.255181 
L 381.524763 278.13439 
L 382.313717 269.070811 
L 382.708194 269.094922 
L 383.102671 272.194281 
L 383.497148 271.395981 
L 383.891625 268.02156 
L 384.286102 270.950284 
L 384.680579 270.063388 
L 385.075056 272.067678 
L 385.469533 268.696542 
L 386.258487 271.740239 
L 386.652964 269.535807 
L 387.047441 273.240456 
L 387.441918 269.39406 
L 387.836395 271.20405 
L 388.230872 269.831232 
L 388.625349 274.252102 
L 389.019825 283.378686 
L 389.414302 281.199434 
L 389.808779 273.928566 
L 390.203256 273.119225 
L 390.597733 270.707333 
L 390.99221 270.245079 
L 391.386687 273.184306 
L 391.781164 271.83682 
L 392.175641 273.231978 
L 392.570118 270.826028 
L 392.964595 295.488 
L 393.753549 295.488 
L 394.148026 272.236977 
L 394.93698 274.56474 
L 395.331457 269.486692 
L 395.725934 268.538346 
L 396.120411 272.569649 
L 396.514888 270.869073 
L 396.909365 269.710432 
L 397.303842 269.728416 
L 397.698319 267.687563 
L 398.092796 274.015159 
L 398.487273 282.814192 
L 398.487273 282.814192 
" clip-path="url(#p79308141a8)" style="fill: none; stroke: #2ca02c; stroke-width: 1.5; stroke-linecap: square"/>
   </g>
   <g id="patch_3">
    <path d="M 57.6 307.584 
L 57.6 41.472 
" style="fill: none; stroke: #000000; stroke-width: 0.8; stroke-linejoin: miter; stroke-linecap: square"/>
   </g>
   <g id="patch_4">
    <path d="M 414.72 307.584 
L 414.72 41.472 
" style="fill: none; stroke: #000000; stroke-width: 0.8; stroke-linejoin: miter; stroke-linecap: square"/>
   </g>
   <g id="patch_5">
    <path d="M 57.6 307.584 
L 414.72 307.584 
" style="fill: none; stroke: #000000; stroke-width: 0.8; stroke-linejoin: miter; stroke-linecap: square"/>
   </g>
   <g id="patch_6">
    <path d="M 57.6 41.472 
L 414.72 41.472 
" style="fill: none; stroke: #000000; stroke-width: 0.8; stroke-linejoin: miter; stroke-linecap: square"/>
   </g>
   <g id="legend_1">
    <g id="patch_7">
     <path d="M 64.6 93.506375 
L 186.25625 93.506375 
Q 188.25625 93.506375 188.25625 91.506375 
L 188.25625 48.472 
Q 188.25625 46.472 186.25625 46.472 
L 64.6 46.472 
Q 62.6 46.472 62.6 48.472 
L 62.6 91.506375 
Q 62.6 93.506375 64.6 93.506375 
z
" style="fill: #ffffff; opacity: 0.8; stroke: #cccccc; stroke-linejoin: miter"/>
    </g>
    <g id="line2d_18">
     <path d="M 66.6 54.570438 
L 76.6 54.570438 
L 86.6 54.570438 
" style="fill: none; stroke: #1f77b4; stroke-width: 1.5; stroke-linecap: square"/>
    </g>
    <g id="text_17">
     <!-- Weekly maximum -->
     <g transform="translate(94.6 58.070438) scale(0.1 -0.1)">
      <defs>
       <path id="DejaVuSans-57" d="M 213 4666 
L 850 4666 
L 1831 722 
L 2809 4666 
L 3519 4666 
L 4500 722 
L 5478 4666 
L 6119 4666 
L 4947 0 
L 4153 0 
L 3169 4050 
L 2175 0 
L 1381 0 
L 213 4666 
z
" transform="scale(0.015625)"/>
       <path id="DejaVuSans-6b" d="M 581 4863 
L 1159 4863 
L 1159 1991 
L 2875 3500 
L 3609 3500 
L 1753 1863 
L 3688 0 
L 2938 0 
L 1159 1709 
L 1159 0 
L 581 0 
L 581 4863 
z
" transform="scale(0.015625)"/>
       <path id="DejaVuSans-79" d="M 2059 -325 
Q 1816 -950 1584 -1140 
Q 1353 -1331 966 -1331 
L 506 -1331 
L 506 -850 
L 844 -850 
Q 1081 -850 1212 -737 
Q 1344 -625 1503 -206 
L 1606 56 
L 191 3500 
L 800 3500 
L 1894 763 
L 2988 3500 
L 3597 3500 
L 2059 -325 
z
" transform="scale(0.015625)"/>
       <path id="DejaVuSans-6d" d="M 3328 2828 
Q 3544 3216 3844 3400 
Q 4144 3584 4550 3584 
Q 5097 3584 5394 3201 
Q 5691 2819 5691 2113 
L 5691 0 
L 5113 0 
L 5113 2094 
Q 5113 2597 4934 2840 
Q 4756 3084 4391 3084 
Q 3944 3084 3684 2787 
Q 3425 2491 3425 1978 
L 3425 0 
L 2847 0 
L 2847 2094 
Q 2847 2600 2669 2842 
Q 2491 3084 2119 3084 
Q 1678 3084 1418 2786 
Q 1159 2488 1159 1978 
L 1159 0 
L 581 0 
L 581 3500 
L 1159 3500 
L 1159 2956 
Q 1356 3278 1631 3431 
Q 1906 3584 2284 3584 
Q 2666 3584 2933 3390 
Q 3200 3197 3328 2828 
z
" transform="scale(0.015625)"/>
       <path id="DejaVuSans-78" d="M 3513 3500 
L 2247 1797 
L 3578 0 
L 2900 0 
L 1881 1375 
L 863 0 
L 184 0 
L 1544 1831 
L 300 3500 
L 978 3500 
L 1906 2253 
L 2834 3500 
L 3513 3500 
z
" transform="scale(0.015625)"/>
       <path id="DejaVuSans-75" d="M 544 1381 
L 544 3500 
L 1119 3500 
L 1119 1403 
Q 1119 906 1312 657 
Q 1506 409 1894 409 
Q 2359 409 2629 706 
Q 2900 1003 2900 1516 
L 2900 3500 
L 3475 3500 
L 3475 0 
L 2900 0 
L 2900 538 
Q 2691 219 2414 64 
Q 2138 -91 1772 -91 
Q 1169 -91 856 284 
Q 544 659 544 1381 
z
M 1991 3584 
L 1991 3584 
z
" transform="scale(0.015625)"/>
      </defs>
      <use xlink:href="#DejaVuSans-57"/>
      <use xlink:href="#DejaVuSans-65" x="93.001953"/>
      <use xlink:href="#DejaVuSans-65" x="154.525391"/>
      <use xlink:href="#DejaVuSans-6b" x="216.048828"/>
      <use xlink:href="#DejaVuSans-6c" x="273.958984"/>
      <use xlink:href="#DejaVuSans-79" x="301.742188"/>
      <use xlink:href="#DejaVuSans-20" x="360.921875"/>
      <use xlink:href="#DejaVuSans-6d" x="392.708984"/>
      <use xlink:href="#DejaVuSans-61" x="490.121094"/>
      <use xlink:href="#DejaVuSans-78" x="551.400391"/>
      <use xlink:href="#DejaVuSans-69" x="610.580078"/>
      <use xlink:href="#DejaVuSans-6d" x="638.363281"/>
      <use xlink:href="#DejaVuSans-75" x="735.775391"/>
      <use xlink:href="#DejaVuSans-6d" x="799.154297"/>
     </g>
    </g>
    <g id="line2d_19">
     <path d="M 66.6 69.248563 
L 76.6 69.248563 
L 86.6 69.248563 
" style="fill: none; stroke: #ff7f0e; stroke-width: 1.5; stroke-linecap: square"/>
    </g>
    <g id="text_18">
     <!-- Weekly minimum -->
     <g transform="translate(94.6 72.748563) scale(0.1 -0.1)">
      <defs>
       <path id="DejaVuSans-6e" d="M 3513 2113 
L 3513 0 
L 2938 0 
L 2938 2094 
Q 2938 2591 2744 2837 
Q 2550 3084 2163 3084 
Q 1697 3084 1428 2787 
Q 1159 2491 1159 1978 
L 1159 0 
L 581 0 
L 581 3500 
L 1159 3500 
L 1159 2956 
Q 1366 3272 1645 3428 
Q 1925 3584 2291 3584 
Q 2894 3584 3203 3211 
Q 3513 2838 3513 2113 
z
" transform="scale(0.015625)"/>
      </defs>
      <use xlink:href="#DejaVuSans-57"/>
      <use xlink:href="#DejaVuSans-65" x="93.001953"/>
      <use xlink:href="#DejaVuSans-65" x="154.525391"/>
      <use xlink:href="#DejaVuSans-6b" x="216.048828"/>
      <use xlink:href="#DejaVuSans-6c" x="273.958984"/>
      <use xlink:href="#DejaVuSans-79" x="301.742188"/>
      <use xlink:href="#DejaVuSans-20" x="360.921875"/>
      <use xlink:href="#DejaVuSans-6d" x="392.708984"/>
      <use xlink:href="#DejaVuSans-69" x="490.121094"/>
      <use xlink:href="#DejaVuSans-6e" x="517.904297"/>
      <use xlink:href="#DejaVuSans-69" x="581.283203"/>
      <use xlink:href="#DejaVuSans-6d" x="609.066406"/>
      <use xlink:href="#DejaVuSans-75" x="706.478516"/>
      <use xlink:href="#DejaVuSans-6d" x="769.857422"/>
     </g>
    </g>
    <g id="line2d_20">
     <path d="M 66.6 83.926688 
L 76.6 83.926688 
L 86.6 83.926688 
" style="fill: none; stroke: #2ca02c; stroke-width: 1.5; stroke-linecap: square"/>
    </g>
    <g id="text_19">
     <!-- Weekly range -->
     <g transform="translate(94.6 87.426688) scale(0.1 -0.1)">
      <use xlink:href="#DejaVuSans-57"/>
      <use xlink:href="#DejaVuSans-65" x="93.001953"/>
      <use xlink:href="#DejaVuSans-65" x="154.525391"/>
      <use xlink:href="#DejaVuSans-6b" x="216.048828"/>
      <use xlink:href="#DejaVuSans-6c" x="273.958984"/>
      <use xlink:href="#DejaVuSans-79" x="301.742188"/>
      <use xlink:href="#DejaVuSans-20" x="360.921875"/>
      <use xlink:href="#DejaVuSans-72" x="392.708984"/>
      <use xlink:href="#DejaVuSans-61" x="433.822266"/>
      <use xlink:href="#DejaVuSans-6e" x="495.101562"/>
      <use xlink:href="#DejaVuSans-67" x="558.480469"/>
      <use xlink:href="#DejaVuSans-65" x="621.957031"/>
     </g>
    </g>
   </g>
  </g>
 </g>
 <defs>
  <clipPath id="p79308141a8">
   <rect x="57.6" y="41.472" width="357.12" height="266.112"/>
  </clipPath>
 </defs>
</svg>
