<?xml version="1.0" encoding="utf-8" standalone="no"?>
<!DOCTYPE svg PUBLIC "-//W3C//DTD SVG 1.1//EN"
  "http://www.w3.org/Graphics/SVG/1.1/DTD/svg11.dtd">
<svg xmlns:xlink="http://www.w3.org/1999/xlink" width="460.8pt" height="345.6pt" viewBox="0 0 460.8 345.6" xmlns="http://www.w3.org/2000/svg" version="1.1">
 <metadata>
  <rdf:RDF xmlns:dc="http://purl.org/dc/elements/1.1/" xmlns:cc="http://creativecommons.org/ns#" xmlns:rdf="http://www.w3.org/1999/02/22-rdf-syntax-ns#">
   <cc:Work>
    <dc:type rdf:resource="http://purl.org/dc/dcmitype/StillImage"/>
    <dc:date>2023-04-03T05:31:46.829773</dc:date>
    <dc:format>image/svg+xml</dc:format>
    <dc:creator>
     <cc:Agent>
      <dc:title>Matplotlib v3.7.1, https://matplotlib.org/</dc:title>
     </cc:Agent>
    </dc:creator>
   </cc:Work>
  </rdf:RDF>
 </metadata>
 <defs>
  <style type="text/css">*{stroke-linejoin: round; stroke-linecap: butt}</style>
 </defs>
 <g id="figure_1">
  <g id="patch_1">
   <path d="M 0 345.6 
L 460.8 345.6 
L 460.8 0 
L 0 0 
z
" style="fill: #ffffff"/>
  </g>
  <g id="axes_1">
   <g id="patch_2">
    <path d="M 57.6 307.584 
L 414.72 307.584 
L 414.72 41.472 
L 57.6 41.472 
z
" style="fill: #ffffff"/>
   </g>
   <g id="matplotlib.axis_1">
    <g id="xtick_1">
     <g id="line2d_1">
      <defs>
       <path id="me0d1c3530e" d="M 0 0 
L 0 3.5 
" style="stroke: #000000; stroke-width: 0.8"/>
      </defs>
      <g>
       <use xlink:href="#me0d1c3530e" x="58.942556" y="307.584" style="stroke: #000000; stroke-width: 0.8"/>
      </g>
     </g>
     <g id="text_1">
      <!-- 2008 -->
      <g transform="translate(46.217556 322.182437) scale(0.1 -0.1)">
       <defs>
        <path id="DejaVuSans-32" d="M 1228 531 
L 3431 531 
L 3431 0 
L 469 0 
L 469 531 
Q 828 903 1448 1529 
Q 2069 2156 2228 2338 
Q 2531 2678 2651 2914 
Q 2772 3150 2772 3378 
Q 2772 3750 2511 3984 
Q 2250 4219 1831 4219 
Q 1534 4219 1204 4116 
Q 875 4013 500 3803 
L 500 4441 
Q 881 4594 1212 4672 
Q 1544 4750 1819 4750 
Q 2544 4750 2975 4387 
Q 3406 4025 3406 3419 
Q 3406 3131 3298 2873 
Q 3191 2616 2906 2266 
Q 2828 2175 2409 1742 
Q 1991 1309 1228 531 
z
" transform="scale(0.015625)"/>
        <path id="DejaVuSans-30" d="M 2034 4250 
Q 1547 4250 1301 3770 
Q 1056 3291 1056 2328 
Q 1056 1369 1301 889 
Q 1547 409 2034 409 
Q 2525 409 2770 889 
Q 3016 1369 3016 2328 
Q 3016 3291 2770 3770 
Q 2525 4250 2034 4250 
z
M 2034 4750 
Q 2819 4750 3233 4129 
Q 3647 3509 3647 2328 
Q 3647 1150 3233 529 
Q 2819 -91 2034 -91 
Q 1250 -91 836 529 
Q 422 1150 422 2328 
Q 422 3509 836 4129 
Q 1250 4750 2034 4750 
z
" transform="scale(0.015625)"/>
        <path id="DejaVuSans-38" d="M 2034 2216 
Q 1584 2216 1326 1975 
Q 1069 1734 1069 1313 
Q 1069 891 1326 650 
Q 1584 409 2034 409 
Q 2484 409 2743 651 
Q 3003 894 3003 1313 
Q 3003 1734 2745 1975 
Q 2488 2216 2034 2216 
z
M 1403 2484 
Q 997 2584 770 2862 
Q 544 3141 544 3541 
Q 544 4100 942 4425 
Q 1341 4750 2034 4750 
Q 2731 4750 3128 4425 
Q 3525 4100 3525 3541 
Q 3525 3141 3298 2862 
Q 3072 2584 2669 2484 
Q 3125 2378 3379 2068 
Q 3634 1759 3634 1313 
Q 3634 634 3220 271 
Q 2806 -91 2034 -91 
Q 1263 -91 848 271 
Q 434 634 434 1313 
Q 434 1759 690 2068 
Q 947 2378 1403 2484 
z
M 1172 3481 
Q 1172 3119 1398 2916 
Q 1625 2713 2034 2713 
Q 2441 2713 2670 2916 
Q 2900 3119 2900 3481 
Q 2900 3844 2670 4047 
Q 2441 4250 2034 4250 
Q 1625 4250 1398 4047 
Q 1172 3844 1172 3481 
z
" transform="scale(0.015625)"/>
       </defs>
       <use xlink:href="#DejaVuSans-32"/>
       <use xlink:href="#DejaVuSans-30" x="63.623047"/>
       <use xlink:href="#DejaVuSans-30" x="127.246094"/>
       <use xlink:href="#DejaVuSans-38" x="190.869141"/>
      </g>
     </g>
    </g>
    <g id="xtick_2">
     <g id="line2d_2">
      <g>
       <use xlink:href="#me0d1c3530e" x="103.552044" y="307.584" style="stroke: #000000; stroke-width: 0.8"/>
      </g>
     </g>
     <g id="text_2">
      <!-- 2010 -->
      <g transform="translate(90.827044 322.182437) scale(0.1 -0.1)">
       <defs>
        <path id="DejaVuSans-31" d="M 794 531 
L 1825 531 
L 1825 4091 
L 703 3866 
L 703 4441 
L 1819 4666 
L 2450 4666 
L 2450 531 
L 3481 531 
L 3481 0 
L 794 0 
L 794 531 
z
" transform="scale(0.015625)"/>
       </defs>
       <use xlink:href="#DejaVuSans-32"/>
       <use xlink:href="#DejaVuSans-30" x="63.623047"/>
       <use xlink:href="#DejaVuSans-31" x="127.246094"/>
       <use xlink:href="#DejaVuSans-30" x="190.869141"/>
      </g>
     </g>
    </g>
    <g id="xtick_3">
     <g id="line2d_3">
      <g>
       <use xlink:href="#me0d1c3530e" x="148.100506" y="307.584" style="stroke: #000000; stroke-width: 0.8"/>
      </g>
     </g>
     <g id="text_3">
      <!-- 2012 -->
      <g transform="translate(135.375506 322.182437) scale(0.1 -0.1)">
       <use xlink:href="#DejaVuSans-32"/>
       <use xlink:href="#DejaVuSans-30" x="63.623047"/>
       <use xlink:href="#DejaVuSans-31" x="127.246094"/>
       <use xlink:href="#DejaVuSans-32" x="190.869141"/>
      </g>
     </g>
    </g>
    <g id="xtick_4">
     <g id="line2d_4">
      <g>
       <use xlink:href="#me0d1c3530e" x="192.709993" y="307.584" style="stroke: #000000; stroke-width: 0.8"/>
      </g>
     </g>
     <g id="text_4">
      <!-- 2014 -->
      <g transform="translate(179.984993 322.182437) scale(0.1 -0.1)">
       <defs>
        <path id="DejaVuSans-34" d="M 2419 4116 
L 825 1625 
L 2419 1625 
L 2419 4116 
z
M 2253 4666 
L 3047 4666 
L 3047 1625 
L 3713 1625 
L 3713 1100 
L 3047 1100 
L 3047 0 
L 2419 0 
L 2419 1100 
L 313 1100 
L 313 1709 
L 2253 4666 
z
" transform="scale(0.015625)"/>
       </defs>
       <use xlink:href="#DejaVuSans-32"/>
       <use xlink:href="#DejaVuSans-30" x="63.623047"/>
       <use xlink:href="#DejaVuSans-31" x="127.246094"/>
       <use xlink:href="#DejaVuSans-34" x="190.869141"/>
      </g>
     </g>
    </g>
    <g id="xtick_5">
     <g id="line2d_5">
      <g>
       <use xlink:href="#me0d1c3530e" x="237.258455" y="307.584" style="stroke: #000000; stroke-width: 0.8"/>
      </g>
     </g>
     <g id="text_5">
      <!-- 2016 -->
      <g transform="translate(224.533455 322.182437) scale(0.1 -0.1)">
       <defs>
        <path id="DejaVuSans-36" d="M 2113 2584 
Q 1688 2584 1439 2293 
Q 1191 2003 1191 1497 
Q 1191 994 1439 701 
Q 1688 409 2113 409 
Q 2538 409 2786 701 
Q 3034 994 3034 1497 
Q 3034 2003 2786 2293 
Q 2538 2584 2113 2584 
z
M 3366 4563 
L 3366 3988 
Q 3128 4100 2886 4159 
Q 2644 4219 2406 4219 
Q 1781 4219 1451 3797 
Q 1122 3375 1075 2522 
Q 1259 2794 1537 2939 
Q 1816 3084 2150 3084 
Q 2853 3084 3261 2657 
Q 3669 2231 3669 1497 
Q 3669 778 3244 343 
Q 2819 -91 2113 -91 
Q 1303 -91 875 529 
Q 447 1150 447 2328 
Q 447 3434 972 4092 
Q 1497 4750 2381 4750 
Q 2619 4750 2861 4703 
Q 3103 4656 3366 4563 
z
" transform="scale(0.015625)"/>
       </defs>
       <use xlink:href="#DejaVuSans-32"/>
       <use xlink:href="#DejaVuSans-30" x="63.623047"/>
       <use xlink:href="#DejaVuSans-31" x="127.246094"/>
       <use xlink:href="#DejaVuSans-36" x="190.869141"/>
      </g>
     </g>
    </g>
    <g id="xtick_6">
     <g id="line2d_6">
      <g>
       <use xlink:href="#me0d1c3530e" x="281.867943" y="307.584" style="stroke: #000000; stroke-width: 0.8"/>
      </g>
     </g>
     <g id="text_6">
      <!-- 2018 -->
      <g transform="translate(269.142943 322.182437) scale(0.1 -0.1)">
       <use xlink:href="#DejaVuSans-32"/>
       <use xlink:href="#DejaVuSans-30" x="63.623047"/>
       <use xlink:href="#DejaVuSans-31" x="127.246094"/>
       <use xlink:href="#DejaVuSans-38" x="190.869141"/>
      </g>
     </g>
    </g>
    <g id="xtick_7">
     <g id="line2d_7">
      <g>
       <use xlink:href="#me0d1c3530e" x="326.416405" y="307.584" style="stroke: #000000; stroke-width: 0.8"/>
      </g>
     </g>
     <g id="text_7">
      <!-- 2020 -->
      <g transform="translate(313.691405 322.182437) scale(0.1 -0.1)">
       <use xlink:href="#DejaVuSans-32"/>
       <use xlink:href="#DejaVuSans-30" x="63.623047"/>
       <use xlink:href="#DejaVuSans-32" x="127.246094"/>
       <use xlink:href="#DejaVuSans-30" x="190.869141"/>
      </g>
     </g>
    </g>
    <g id="xtick_8">
     <g id="line2d_8">
      <g>
       <use xlink:href="#me0d1c3530e" x="371.025892" y="307.584" style="stroke: #000000; stroke-width: 0.8"/>
      </g>
     </g>
     <g id="text_8">
      <!-- 2022 -->
      <g transform="translate(358.300892 322.182437) scale(0.1 -0.1)">
       <use xlink:href="#DejaVuSans-32"/>
       <use xlink:href="#DejaVuSans-30" x="63.623047"/>
       <use xlink:href="#DejaVuSans-32" x="127.246094"/>
       <use xlink:href="#DejaVuSans-32" x="190.869141"/>
      </g>
     </g>
    </g>
    <g id="text_9">
     <!-- Updated 2023-04-03 05:31:46.827497 - Last record 2023-04-01 -->
     <g transform="translate(75.905312 335.860562) scale(0.1 -0.1)">
      <defs>
       <path id="DejaVuSans-55" d="M 556 4666 
L 1191 4666 
L 1191 1831 
Q 1191 1081 1462 751 
Q 1734 422 2344 422 
Q 2950 422 3222 751 
Q 3494 1081 3494 1831 
L 3494 4666 
L 4128 4666 
L 4128 1753 
Q 4128 841 3676 375 
Q 3225 -91 2344 -91 
Q 1459 -91 1007 375 
Q 556 841 556 1753 
L 556 4666 
z
" transform="scale(0.015625)"/>
       <path id="DejaVuSans-70" d="M 1159 525 
L 1159 -1331 
L 581 -1331 
L 581 3500 
L 1159 3500 
L 1159 2969 
Q 1341 3281 1617 3432 
Q 1894 3584 2278 3584 
Q 2916 3584 3314 3078 
Q 3713 2572 3713 1747 
Q 3713 922 3314 415 
Q 2916 -91 2278 -91 
Q 1894 -91 1617 61 
Q 1341 213 1159 525 
z
M 3116 1747 
Q 3116 2381 2855 2742 
Q 2594 3103 2138 3103 
Q 1681 3103 1420 2742 
Q 1159 2381 1159 1747 
Q 1159 1113 1420 752 
Q 1681 391 2138 391 
Q 2594 391 2855 752 
Q 3116 1113 3116 1747 
z
" transform="scale(0.015625)"/>
       <path id="DejaVuSans-64" d="M 2906 2969 
L 2906 4863 
L 3481 4863 
L 3481 0 
L 2906 0 
L 2906 525 
Q 2725 213 2448 61 
Q 2172 -91 1784 -91 
Q 1150 -91 751 415 
Q 353 922 353 1747 
Q 353 2572 751 3078 
Q 1150 3584 1784 3584 
Q 2172 3584 2448 3432 
Q 2725 3281 2906 2969 
z
M 947 1747 
Q 947 1113 1208 752 
Q 1469 391 1925 391 
Q 2381 391 2643 752 
Q 2906 1113 2906 1747 
Q 2906 2381 2643 2742 
Q 2381 3103 1925 3103 
Q 1469 3103 1208 2742 
Q 947 2381 947 1747 
z
" transform="scale(0.015625)"/>
       <path id="DejaVuSans-61" d="M 2194 1759 
Q 1497 1759 1228 1600 
Q 959 1441 959 1056 
Q 959 750 1161 570 
Q 1363 391 1709 391 
Q 2188 391 2477 730 
Q 2766 1069 2766 1631 
L 2766 1759 
L 2194 1759 
z
M 3341 1997 
L 3341 0 
L 2766 0 
L 2766 531 
Q 2569 213 2275 61 
Q 1981 -91 1556 -91 
Q 1019 -91 701 211 
Q 384 513 384 1019 
Q 384 1609 779 1909 
Q 1175 2209 1959 2209 
L 2766 2209 
L 2766 2266 
Q 2766 2663 2505 2880 
Q 2244 3097 1772 3097 
Q 1472 3097 1187 3025 
Q 903 2953 641 2809 
L 641 3341 
Q 956 3463 1253 3523 
Q 1550 3584 1831 3584 
Q 2591 3584 2966 3190 
Q 3341 2797 3341 1997 
z
" transform="scale(0.015625)"/>
       <path id="DejaVuSans-74" d="M 1172 4494 
L 1172 3500 
L 2356 3500 
L 2356 3053 
L 1172 3053 
L 1172 1153 
Q 1172 725 1289 603 
Q 1406 481 1766 481 
L 2356 481 
L 2356 0 
L 1766 0 
Q 1100 0 847 248 
Q 594 497 594 1153 
L 594 3053 
L 172 3053 
L 172 3500 
L 594 3500 
L 594 4494 
L 1172 4494 
z
" transform="scale(0.015625)"/>
       <path id="DejaVuSans-65" d="M 3597 1894 
L 3597 1613 
L 953 1613 
Q 991 1019 1311 708 
Q 1631 397 2203 397 
Q 2534 397 2845 478 
Q 3156 559 3463 722 
L 3463 178 
Q 3153 47 2828 -22 
Q 2503 -91 2169 -91 
Q 1331 -91 842 396 
Q 353 884 353 1716 
Q 353 2575 817 3079 
Q 1281 3584 2069 3584 
Q 2775 3584 3186 3129 
Q 3597 2675 3597 1894 
z
M 3022 2063 
Q 3016 2534 2758 2815 
Q 2500 3097 2075 3097 
Q 1594 3097 1305 2825 
Q 1016 2553 972 2059 
L 3022 2063 
z
" transform="scale(0.015625)"/>
       <path id="DejaVuSans-20" transform="scale(0.015625)"/>
       <path id="DejaVuSans-33" d="M 2597 2516 
Q 3050 2419 3304 2112 
Q 3559 1806 3559 1356 
Q 3559 666 3084 287 
Q 2609 -91 1734 -91 
Q 1441 -91 1130 -33 
Q 819 25 488 141 
L 488 750 
Q 750 597 1062 519 
Q 1375 441 1716 441 
Q 2309 441 2620 675 
Q 2931 909 2931 1356 
Q 2931 1769 2642 2001 
Q 2353 2234 1838 2234 
L 1294 2234 
L 1294 2753 
L 1863 2753 
Q 2328 2753 2575 2939 
Q 2822 3125 2822 3475 
Q 2822 3834 2567 4026 
Q 2313 4219 1838 4219 
Q 1578 4219 1281 4162 
Q 984 4106 628 3988 
L 628 4550 
Q 988 4650 1302 4700 
Q 1616 4750 1894 4750 
Q 2613 4750 3031 4423 
Q 3450 4097 3450 3541 
Q 3450 3153 3228 2886 
Q 3006 2619 2597 2516 
z
" transform="scale(0.015625)"/>
       <path id="DejaVuSans-2d" d="M 313 2009 
L 1997 2009 
L 1997 1497 
L 313 1497 
L 313 2009 
z
" transform="scale(0.015625)"/>
       <path id="DejaVuSans-35" d="M 691 4666 
L 3169 4666 
L 3169 4134 
L 1269 4134 
L 1269 2991 
Q 1406 3038 1543 3061 
Q 1681 3084 1819 3084 
Q 2600 3084 3056 2656 
Q 3513 2228 3513 1497 
Q 3513 744 3044 326 
Q 2575 -91 1722 -91 
Q 1428 -91 1123 -41 
Q 819 9 494 109 
L 494 744 
Q 775 591 1075 516 
Q 1375 441 1709 441 
Q 2250 441 2565 725 
Q 2881 1009 2881 1497 
Q 2881 1984 2565 2268 
Q 2250 2553 1709 2553 
Q 1456 2553 1204 2497 
Q 953 2441 691 2322 
L 691 4666 
z
" transform="scale(0.015625)"/>
       <path id="DejaVuSans-3a" d="M 750 794 
L 1409 794 
L 1409 0 
L 750 0 
L 750 794 
z
M 750 3309 
L 1409 3309 
L 1409 2516 
L 750 2516 
L 750 3309 
z
" transform="scale(0.015625)"/>
       <path id="DejaVuSans-2e" d="M 684 794 
L 1344 794 
L 1344 0 
L 684 0 
L 684 794 
z
" transform="scale(0.015625)"/>
       <path id="DejaVuSans-37" d="M 525 4666 
L 3525 4666 
L 3525 4397 
L 1831 0 
L 1172 0 
L 2766 4134 
L 525 4134 
L 525 4666 
z
" transform="scale(0.015625)"/>
       <path id="DejaVuSans-39" d="M 703 97 
L 703 672 
Q 941 559 1184 500 
Q 1428 441 1663 441 
Q 2288 441 2617 861 
Q 2947 1281 2994 2138 
Q 2813 1869 2534 1725 
Q 2256 1581 1919 1581 
Q 1219 1581 811 2004 
Q 403 2428 403 3163 
Q 403 3881 828 4315 
Q 1253 4750 1959 4750 
Q 2769 4750 3195 4129 
Q 3622 3509 3622 2328 
Q 3622 1225 3098 567 
Q 2575 -91 1691 -91 
Q 1453 -91 1209 -44 
Q 966 3 703 97 
z
M 1959 2075 
Q 2384 2075 2632 2365 
Q 2881 2656 2881 3163 
Q 2881 3666 2632 3958 
Q 2384 4250 1959 4250 
Q 1534 4250 1286 3958 
Q 1038 3666 1038 3163 
Q 1038 2656 1286 2365 
Q 1534 2075 1959 2075 
z
" transform="scale(0.015625)"/>
       <path id="DejaVuSans-4c" d="M 628 4666 
L 1259 4666 
L 1259 531 
L 3531 531 
L 3531 0 
L 628 0 
L 628 4666 
z
" transform="scale(0.015625)"/>
       <path id="DejaVuSans-73" d="M 2834 3397 
L 2834 2853 
Q 2591 2978 2328 3040 
Q 2066 3103 1784 3103 
Q 1356 3103 1142 2972 
Q 928 2841 928 2578 
Q 928 2378 1081 2264 
Q 1234 2150 1697 2047 
L 1894 2003 
Q 2506 1872 2764 1633 
Q 3022 1394 3022 966 
Q 3022 478 2636 193 
Q 2250 -91 1575 -91 
Q 1294 -91 989 -36 
Q 684 19 347 128 
L 347 722 
Q 666 556 975 473 
Q 1284 391 1588 391 
Q 1994 391 2212 530 
Q 2431 669 2431 922 
Q 2431 1156 2273 1281 
Q 2116 1406 1581 1522 
L 1381 1569 
Q 847 1681 609 1914 
Q 372 2147 372 2553 
Q 372 3047 722 3315 
Q 1072 3584 1716 3584 
Q 2034 3584 2315 3537 
Q 2597 3491 2834 3397 
z
" transform="scale(0.015625)"/>
       <path id="DejaVuSans-72" d="M 2631 2963 
Q 2534 3019 2420 3045 
Q 2306 3072 2169 3072 
Q 1681 3072 1420 2755 
Q 1159 2438 1159 1844 
L 1159 0 
L 581 0 
L 581 3500 
L 1159 3500 
L 1159 2956 
Q 1341 3275 1631 3429 
Q 1922 3584 2338 3584 
Q 2397 3584 2469 3576 
Q 2541 3569 2628 3553 
L 2631 2963 
z
" transform="scale(0.015625)"/>
       <path id="DejaVuSans-63" d="M 3122 3366 
L 3122 2828 
Q 2878 2963 2633 3030 
Q 2388 3097 2138 3097 
Q 1578 3097 1268 2742 
Q 959 2388 959 1747 
Q 959 1106 1268 751 
Q 1578 397 2138 397 
Q 2388 397 2633 464 
Q 2878 531 3122 666 
L 3122 134 
Q 2881 22 2623 -34 
Q 2366 -91 2075 -91 
Q 1284 -91 818 406 
Q 353 903 353 1747 
Q 353 2603 823 3093 
Q 1294 3584 2113 3584 
Q 2378 3584 2631 3529 
Q 2884 3475 3122 3366 
z
" transform="scale(0.015625)"/>
       <path id="DejaVuSans-6f" d="M 1959 3097 
Q 1497 3097 1228 2736 
Q 959 2375 959 1747 
Q 959 1119 1226 758 
Q 1494 397 1959 397 
Q 2419 397 2687 759 
Q 2956 1122 2956 1747 
Q 2956 2369 2687 2733 
Q 2419 3097 1959 3097 
z
M 1959 3584 
Q 2709 3584 3137 3096 
Q 3566 2609 3566 1747 
Q 3566 888 3137 398 
Q 2709 -91 1959 -91 
Q 1206 -91 779 398 
Q 353 888 353 1747 
Q 353 2609 779 3096 
Q 1206 3584 1959 3584 
z
" transform="scale(0.015625)"/>
      </defs>
      <use xlink:href="#DejaVuSans-55"/>
      <use xlink:href="#DejaVuSans-70" x="73.193359"/>
      <use xlink:href="#DejaVuSans-64" x="136.669922"/>
      <use xlink:href="#DejaVuSans-61" x="200.146484"/>
      <use xlink:href="#DejaVuSans-74" x="261.425781"/>
      <use xlink:href="#DejaVuSans-65" x="300.634766"/>
      <use xlink:href="#DejaVuSans-64" x="362.158203"/>
      <use xlink:href="#DejaVuSans-20" x="425.634766"/>
      <use xlink:href="#DejaVuSans-32" x="457.421875"/>
      <use xlink:href="#DejaVuSans-30" x="521.044922"/>
      <use xlink:href="#DejaVuSans-32" x="584.667969"/>
      <use xlink:href="#DejaVuSans-33" x="648.291016"/>
      <use xlink:href="#DejaVuSans-2d" x="711.914062"/>
      <use xlink:href="#DejaVuSans-30" x="747.998047"/>
      <use xlink:href="#DejaVuSans-34" x="811.621094"/>
      <use xlink:href="#DejaVuSans-2d" x="875.244141"/>
      <use xlink:href="#DejaVuSans-30" x="911.328125"/>
      <use xlink:href="#DejaVuSans-33" x="974.951172"/>
      <use xlink:href="#DejaVuSans-20" x="1038.574219"/>
      <use xlink:href="#DejaVuSans-30" x="1070.361328"/>
      <use xlink:href="#DejaVuSans-35" x="1133.984375"/>
      <use xlink:href="#DejaVuSans-3a" x="1197.607422"/>
      <use xlink:href="#DejaVuSans-33" x="1231.298828"/>
      <use xlink:href="#DejaVuSans-31" x="1294.921875"/>
      <use xlink:href="#DejaVuSans-3a" x="1358.544922"/>
      <use xlink:href="#DejaVuSans-34" x="1392.236328"/>
      <use xlink:href="#DejaVuSans-36" x="1455.859375"/>
      <use xlink:href="#DejaVuSans-2e" x="1519.482422"/>
      <use xlink:href="#DejaVuSans-38" x="1551.269531"/>
      <use xlink:href="#DejaVuSans-32" x="1614.892578"/>
      <use xlink:href="#DejaVuSans-37" x="1678.515625"/>
      <use xlink:href="#DejaVuSans-34" x="1742.138672"/>
      <use xlink:href="#DejaVuSans-39" x="1805.761719"/>
      <use xlink:href="#DejaVuSans-37" x="1869.384766"/>
      <use xlink:href="#DejaVuSans-20" x="1933.007812"/>
      <use xlink:href="#DejaVuSans-2d" x="1964.794922"/>
      <use xlink:href="#DejaVuSans-20" x="2000.878906"/>
      <use xlink:href="#DejaVuSans-4c" x="2032.666016"/>
      <use xlink:href="#DejaVuSans-61" x="2088.378906"/>
      <use xlink:href="#DejaVuSans-73" x="2149.658203"/>
      <use xlink:href="#DejaVuSans-74" x="2201.757812"/>
      <use xlink:href="#DejaVuSans-20" x="2240.966797"/>
      <use xlink:href="#DejaVuSans-72" x="2272.753906"/>
      <use xlink:href="#DejaVuSans-65" x="2311.617188"/>
      <use xlink:href="#DejaVuSans-63" x="2373.140625"/>
      <use xlink:href="#DejaVuSans-6f" x="2428.121094"/>
      <use xlink:href="#DejaVuSans-72" x="2489.302734"/>
      <use xlink:href="#DejaVuSans-64" x="2528.666016"/>
      <use xlink:href="#DejaVuSans-20" x="2592.142578"/>
      <use xlink:href="#DejaVuSans-32" x="2623.929688"/>
      <use xlink:href="#DejaVuSans-30" x="2687.552734"/>
      <use xlink:href="#DejaVuSans-32" x="2751.175781"/>
      <use xlink:href="#DejaVuSans-33" x="2814.798828"/>
      <use xlink:href="#DejaVuSans-2d" x="2878.421875"/>
      <use xlink:href="#DejaVuSans-30" x="2914.505859"/>
      <use xlink:href="#DejaVuSans-34" x="2978.128906"/>
      <use xlink:href="#DejaVuSans-2d" x="3041.751953"/>
      <use xlink:href="#DejaVuSans-30" x="3077.835938"/>
      <use xlink:href="#DejaVuSans-31" x="3141.458984"/>
     </g>
    </g>
   </g>
   <g id="matplotlib.axis_2">
    <g id="ytick_1">
     <g id="line2d_9">
      <defs>
       <path id="m242236b0c9" d="M 0 0 
L -3.5 0 
" style="stroke: #000000; stroke-width: 0.8"/>
      </defs>
      <g>
       <use xlink:href="#m242236b0c9" x="57.6" y="295.565786" style="stroke: #000000; stroke-width: 0.8"/>
      </g>
     </g>
     <g id="text_10">
      <!-- 0 -->
      <g transform="translate(44.2375 299.365005) scale(0.1 -0.1)">
       <use xlink:href="#DejaVuSans-30"/>
      </g>
     </g>
    </g>
    <g id="ytick_2">
     <g id="line2d_10">
      <g>
       <use xlink:href="#m242236b0c9" x="57.6" y="239.604784" style="stroke: #000000; stroke-width: 0.8"/>
      </g>
     </g>
     <g id="text_11">
      <!-- 10 -->
      <g transform="translate(37.875 243.404002) scale(0.1 -0.1)">
       <use xlink:href="#DejaVuSans-31"/>
       <use xlink:href="#DejaVuSans-30" x="63.623047"/>
      </g>
     </g>
    </g>
    <g id="ytick_3">
     <g id="line2d_11">
      <g>
       <use xlink:href="#m242236b0c9" x="57.6" y="183.643781" style="stroke: #000000; stroke-width: 0.8"/>
      </g>
     </g>
     <g id="text_12">
      <!-- 20 -->
      <g transform="translate(37.875 187.443) scale(0.1 -0.1)">
       <use xlink:href="#DejaVuSans-32"/>
       <use xlink:href="#DejaVuSans-30" x="63.623047"/>
      </g>
     </g>
    </g>
    <g id="ytick_4">
     <g id="line2d_12">
      <g>
       <use xlink:href="#m242236b0c9" x="57.6" y="127.682779" style="stroke: #000000; stroke-width: 0.8"/>
      </g>
     </g>
     <g id="text_13">
      <!-- 30 -->
      <g transform="translate(37.875 131.481998) scale(0.1 -0.1)">
       <use xlink:href="#DejaVuSans-33"/>
       <use xlink:href="#DejaVuSans-30" x="63.623047"/>
      </g>
     </g>
    </g>
    <g id="ytick_5">
     <g id="line2d_13">
      <g>
       <use xlink:href="#m242236b0c9" x="57.6" y="71.721777" style="stroke: #000000; stroke-width: 0.8"/>
      </g>
     </g>
     <g id="text_14">
      <!-- 40 -->
      <g transform="translate(37.875 75.520996) scale(0.1 -0.1)">
       <use xlink:href="#DejaVuSans-34"/>
       <use xlink:href="#DejaVuSans-30" x="63.623047"/>
      </g>
     </g>
    </g>
    <g id="text_15">
     <!-- IPv6 as % of total Google traffic -->
     <g transform="translate(31.795312 253.735813) rotate(-90) scale(0.1 -0.1)">
      <defs>
       <path id="DejaVuSans-49" d="M 628 4666 
L 1259 4666 
L 1259 0 
L 628 0 
L 628 4666 
z
" transform="scale(0.015625)"/>
       <path id="DejaVuSans-50" d="M 1259 4147 
L 1259 2394 
L 2053 2394 
Q 2494 2394 2734 2622 
Q 2975 2850 2975 3272 
Q 2975 3691 2734 3919 
Q 2494 4147 2053 4147 
L 1259 4147 
z
M 628 4666 
L 2053 4666 
Q 2838 4666 3239 4311 
Q 3641 3956 3641 3272 
Q 3641 2581 3239 2228 
Q 2838 1875 2053 1875 
L 1259 1875 
L 1259 0 
L 628 0 
L 628 4666 
z
" transform="scale(0.015625)"/>
       <path id="DejaVuSans-76" d="M 191 3500 
L 800 3500 
L 1894 563 
L 2988 3500 
L 3597 3500 
L 2284 0 
L 1503 0 
L 191 3500 
z
" transform="scale(0.015625)"/>
       <path id="DejaVuSans-25" d="M 4653 2053 
Q 4381 2053 4226 1822 
Q 4072 1591 4072 1178 
Q 4072 772 4226 539 
Q 4381 306 4653 306 
Q 4919 306 5073 539 
Q 5228 772 5228 1178 
Q 5228 1588 5073 1820 
Q 4919 2053 4653 2053 
z
M 4653 2450 
Q 5147 2450 5437 2106 
Q 5728 1763 5728 1178 
Q 5728 594 5436 251 
Q 5144 -91 4653 -91 
Q 4153 -91 3862 251 
Q 3572 594 3572 1178 
Q 3572 1766 3864 2108 
Q 4156 2450 4653 2450 
z
M 1428 4353 
Q 1159 4353 1004 4120 
Q 850 3888 850 3481 
Q 850 3069 1003 2837 
Q 1156 2606 1428 2606 
Q 1700 2606 1854 2837 
Q 2009 3069 2009 3481 
Q 2009 3884 1853 4118 
Q 1697 4353 1428 4353 
z
M 4250 4750 
L 4750 4750 
L 1831 -91 
L 1331 -91 
L 4250 4750 
z
M 1428 4750 
Q 1922 4750 2215 4408 
Q 2509 4066 2509 3481 
Q 2509 2891 2217 2550 
Q 1925 2209 1428 2209 
Q 931 2209 642 2551 
Q 353 2894 353 3481 
Q 353 4063 643 4406 
Q 934 4750 1428 4750 
z
" transform="scale(0.015625)"/>
       <path id="DejaVuSans-66" d="M 2375 4863 
L 2375 4384 
L 1825 4384 
Q 1516 4384 1395 4259 
Q 1275 4134 1275 3809 
L 1275 3500 
L 2222 3500 
L 2222 3053 
L 1275 3053 
L 1275 0 
L 697 0 
L 697 3053 
L 147 3053 
L 147 3500 
L 697 3500 
L 697 3744 
Q 697 4328 969 4595 
Q 1241 4863 1831 4863 
L 2375 4863 
z
" transform="scale(0.015625)"/>
       <path id="DejaVuSans-6c" d="M 603 4863 
L 1178 4863 
L 1178 0 
L 603 0 
L 603 4863 
z
" transform="scale(0.015625)"/>
       <path id="DejaVuSans-47" d="M 3809 666 
L 3809 1919 
L 2778 1919 
L 2778 2438 
L 4434 2438 
L 4434 434 
Q 4069 175 3628 42 
Q 3188 -91 2688 -91 
Q 1594 -91 976 548 
Q 359 1188 359 2328 
Q 359 3472 976 4111 
Q 1594 4750 2688 4750 
Q 3144 4750 3555 4637 
Q 3966 4525 4313 4306 
L 4313 3634 
Q 3963 3931 3569 4081 
Q 3175 4231 2741 4231 
Q 1884 4231 1454 3753 
Q 1025 3275 1025 2328 
Q 1025 1384 1454 906 
Q 1884 428 2741 428 
Q 3075 428 3337 486 
Q 3600 544 3809 666 
z
" transform="scale(0.015625)"/>
       <path id="DejaVuSans-67" d="M 2906 1791 
Q 2906 2416 2648 2759 
Q 2391 3103 1925 3103 
Q 1463 3103 1205 2759 
Q 947 2416 947 1791 
Q 947 1169 1205 825 
Q 1463 481 1925 481 
Q 2391 481 2648 825 
Q 2906 1169 2906 1791 
z
M 3481 434 
Q 3481 -459 3084 -895 
Q 2688 -1331 1869 -1331 
Q 1566 -1331 1297 -1286 
Q 1028 -1241 775 -1147 
L 775 -588 
Q 1028 -725 1275 -790 
Q 1522 -856 1778 -856 
Q 2344 -856 2625 -561 
Q 2906 -266 2906 331 
L 2906 616 
Q 2728 306 2450 153 
Q 2172 0 1784 0 
Q 1141 0 747 490 
Q 353 981 353 1791 
Q 353 2603 747 3093 
Q 1141 3584 1784 3584 
Q 2172 3584 2450 3431 
Q 2728 3278 2906 2969 
L 2906 3500 
L 3481 3500 
L 3481 434 
z
" transform="scale(0.015625)"/>
       <path id="DejaVuSans-69" d="M 603 3500 
L 1178 3500 
L 1178 0 
L 603 0 
L 603 3500 
z
M 603 4863 
L 1178 4863 
L 1178 4134 
L 603 4134 
L 603 4863 
z
" transform="scale(0.015625)"/>
      </defs>
      <use xlink:href="#DejaVuSans-49"/>
      <use xlink:href="#DejaVuSans-50" x="29.492188"/>
      <use xlink:href="#DejaVuSans-76" x="89.794922"/>
      <use xlink:href="#DejaVuSans-36" x="148.974609"/>
      <use xlink:href="#DejaVuSans-20" x="212.597656"/>
      <use xlink:href="#DejaVuSans-61" x="244.384766"/>
      <use xlink:href="#DejaVuSans-73" x="305.664062"/>
      <use xlink:href="#DejaVuSans-20" x="357.763672"/>
      <use xlink:href="#DejaVuSans-25" x="389.550781"/>
      <use xlink:href="#DejaVuSans-20" x="484.570312"/>
      <use xlink:href="#DejaVuSans-6f" x="516.357422"/>
      <use xlink:href="#DejaVuSans-66" x="577.539062"/>
      <use xlink:href="#DejaVuSans-20" x="612.744141"/>
      <use xlink:href="#DejaVuSans-74" x="644.53125"/>
      <use xlink:href="#DejaVuSans-6f" x="683.740234"/>
      <use xlink:href="#DejaVuSans-74" x="744.921875"/>
      <use xlink:href="#DejaVuSans-61" x="784.130859"/>
      <use xlink:href="#DejaVuSans-6c" x="845.410156"/>
      <use xlink:href="#DejaVuSans-20" x="873.193359"/>
      <use xlink:href="#DejaVuSans-47" x="904.980469"/>
      <use xlink:href="#DejaVuSans-6f" x="982.470703"/>
      <use xlink:href="#DejaVuSans-6f" x="1043.652344"/>
      <use xlink:href="#DejaVuSans-67" x="1104.833984"/>
      <use xlink:href="#DejaVuSans-6c" x="1168.310547"/>
      <use xlink:href="#DejaVuSans-65" x="1196.09375"/>
      <use xlink:href="#DejaVuSans-20" x="1257.617188"/>
      <use xlink:href="#DejaVuSans-74" x="1289.404297"/>
      <use xlink:href="#DejaVuSans-72" x="1328.613281"/>
      <use xlink:href="#DejaVuSans-61" x="1369.726562"/>
      <use xlink:href="#DejaVuSans-66" x="1431.005859"/>
      <use xlink:href="#DejaVuSans-66" x="1466.210938"/>
      <use xlink:href="#DejaVuSans-69" x="1501.416016"/>
      <use xlink:href="#DejaVuSans-63" x="1529.199219"/>
     </g>
    </g>
   </g>
   <g id="line2d_14">
    <path d="M 73.832727 294.546216 
L 75.541435 294.373414 
L 75.968612 294.537961 
L 77.677321 294.537239 
L 79.386029 294.387247 
L 79.813206 294.254608 
L 81.094737 294.276612 
L 82.376268 294.244647 
L 82.803445 294.319327 
L 84.512153 294.166727 
L 86.220861 294.226281 
L 87.929569 294.147275 
L 91.346986 294.215777 
L 91.774163 294.323435 
L 93.910048 294.297279 
L 95.191579 294.245895 
L 96.900287 294.145451 
L 97.754641 294.154623 
L 98.181818 293.882182 
L 100.74488 293.788727 
L 101.599234 293.752868 
L 103.307943 293.892138 
L 104.589474 293.842584 
L 105.871005 293.892429 
L 108.00689 293.858147 
L 109.288421 294.056618 
L 110.142775 294.030238 
L 110.997129 293.987512 
L 111.851483 294.180466 
L 113.987368 294.198099 
L 115.2689 294.319288 
L 117.404785 294.228491 
L 118.259139 294.118522 
L 118.686316 294.027877 
L 119.54067 294.023411 
L 122.530909 293.957545 
L 123.385263 294.05246 
L 123.81244 293.918764 
L 126.375502 294.16675 
L 129.792919 293.9881 
L 130.220096 293.994076 
L 130.647273 293.866821 
L 131.501627 293.973264 
L 132.355981 293.775688 
L 132.783158 293.824805 
L 133.210335 293.70351 
L 133.637512 293.756617 
L 134.491866 293.643749 
L 135.34622 293.59959 
L 139.190813 293.773803 
L 139.61799 293.59006 
L 141.326699 293.489437 
L 141.753876 293.589668 
L 145.598469 293.25857 
L 146.452823 293.053982 
L 147.307177 293.208529 
L 149.870239 292.805375 
L 152.006124 292.660761 
L 152.433301 292.446749 
L 152.860478 292.529219 
L 153.287656 292.339774 
L 155.850718 291.947627 
L 157.559426 291.369142 
L 157.986603 291.444387 
L 159.268134 291.315016 
L 159.695311 291.420693 
L 161.404019 291.211533 
L 162.68555 290.734868 
L 163.112727 290.630479 
L 163.539904 290.689898 
L 163.967081 290.337333 
L 164.394258 290.167261 
L 166.102967 289.962198 
L 166.530144 290.127568 
L 166.957321 289.966776 
L 167.811675 289.878301 
L 168.238852 289.621132 
L 169.093206 289.449534 
L 170.801914 289.43166 
L 171.656268 289.212444 
L 172.937799 289.050918 
L 173.364976 288.839727 
L 173.792153 288.819357 
L 174.21933 288.928559 
L 175.928038 288.139033 
L 176.355215 288.15712 
L 178.063923 287.660656 
L 178.4911 287.327946 
L 178.918278 287.251609 
L 179.345455 287.045712 
L 179.772632 287.079244 
L 181.054163 286.573642 
L 181.48134 286.663045 
L 181.908517 286.414181 
L 182.335694 286.370442 
L 184.471579 285.201277 
L 185.325933 284.845337 
L 186.180287 284.221953 
L 187.461818 282.68128 
L 187.888995 282.926674 
L 188.316172 282.969126 
L 189.597703 281.505422 
L 190.02488 281.329911 
L 190.452057 280.590068 
L 191.306411 280.359279 
L 192.160766 279.866828 
L 192.587943 279.918149 
L 193.869474 279.110235 
L 194.296651 278.938636 
L 194.723828 278.621292 
L 195.578182 278.546098 
L 196.005359 277.8272 
L 196.432536 277.817726 
L 196.859713 277.02735 
L 197.28689 276.618017 
L 198.141244 276.735502 
L 198.568421 276.44287 
L 198.995598 275.992099 
L 199.849952 275.467364 
L 200.277129 274.998265 
L 200.704306 275.285871 
L 202.413014 274.365486 
L 202.840191 274.025171 
L 203.267368 272.626688 
L 203.694545 272.891971 
L 204.5489 271.942336 
L 204.976077 271.901562 
L 205.403254 272.312098 
L 206.684785 271.377963 
L 207.111962 270.744239 
L 207.966316 270.793098 
L 208.393493 270.107391 
L 208.82067 270.060194 
L 209.247847 266.427468 
L 209.675024 268.817613 
L 210.102201 270.241462 
L 210.529378 269.5496 
L 210.956555 269.162971 
L 211.383732 269.100664 
L 211.810909 268.190721 
L 212.238086 267.9056 
L 213.519617 265.930596 
L 213.946794 264.641036 
L 214.373971 263.904993 
L 214.801148 262.905703 
L 215.228325 262.245934 
L 215.655502 263.299612 
L 216.082679 263.13836 
L 216.509856 263.167533 
L 216.937033 263.33775 
L 217.364211 263.655586 
L 217.791388 263.534324 
L 218.218565 261.210582 
L 218.645742 261.554295 
L 219.927273 260.329834 
L 220.35445 260.165029 
L 221.208804 260.237488 
L 221.635981 258.480939 
L 222.063158 258.416964 
L 222.917512 257.030738 
L 223.344689 257.503356 
L 223.771866 255.33973 
L 224.199043 255.851136 
L 224.62622 254.390559 
L 225.053397 253.691158 
L 225.480574 252.640983 
L 225.907751 253.370267 
L 226.334928 252.265546 
L 226.762105 250.427709 
L 227.189282 251.353807 
L 227.616459 251.617814 
L 228.043636 251.047337 
L 228.470813 249.366884 
L 228.89799 249.833683 
L 229.325167 248.350011 
L 229.752344 248.691787 
L 230.606699 246.690711 
L 231.033876 245.677017 
L 232.315407 245.358755 
L 232.742584 244.188253 
L 233.169761 244.33069 
L 233.596938 243.891598 
L 234.024115 242.731498 
L 234.451292 242.437059 
L 234.878469 241.139906 
L 235.305646 240.250663 
L 235.732823 240.093944 
L 236.16 240.312825 
L 236.587177 239.747009 
L 237.014354 237.336656 
L 237.868708 238.750489 
L 238.295885 238.478899 
L 239.150239 238.397515 
L 239.577416 238.4454 
L 240.43177 238.154582 
L 240.858947 236.798434 
L 241.286124 236.734236 
L 241.713301 235.531539 
L 242.140478 235.528159 
L 242.567656 235.345457 
L 243.849187 231.905641 
L 244.276364 229.879629 
L 244.703541 231.263192 
L 245.130718 230.683285 
L 245.557895 229.484628 
L 245.985072 229.751439 
L 246.412249 227.192331 
L 246.839426 227.567785 
L 247.266603 227.253995 
L 247.69378 225.468341 
L 248.120957 225.45144 
L 248.548134 224.12043 
L 248.975311 224.440913 
L 249.402488 223.388153 
L 249.829665 222.828895 
L 250.256842 223.126009 
L 250.684019 222.405147 
L 251.111196 221.280561 
L 251.538373 221.64006 
L 251.96555 221.106701 
L 252.392727 219.336951 
L 252.819904 218.596867 
L 253.247081 218.666096 
L 253.674258 216.596541 
L 254.101435 216.964574 
L 254.955789 214.499632 
L 255.382967 212.039922 
L 255.810144 212.283033 
L 256.664498 210.899923 
L 257.091675 209.350184 
L 257.518852 209.557363 
L 257.946029 208.907885 
L 258.373206 206.45751 
L 258.800383 205.597786 
L 259.22756 201.535174 
L 259.654737 204.176539 
L 260.081914 203.697647 
L 260.509091 204.327561 
L 260.936268 203.587863 
L 261.790622 204.789195 
L 262.217799 204.549704 
L 262.644976 203.496624 
L 263.072153 203.81333 
L 263.926507 202.472096 
L 264.353684 201.360733 
L 264.780861 201.184483 
L 265.208038 200.433218 
L 265.635215 197.731673 
L 266.062392 198.579409 
L 266.489569 194.956651 
L 266.916746 195.237082 
L 267.343923 193.267887 
L 267.7711 192.054144 
L 268.198278 191.323355 
L 268.625455 190.819286 
L 269.052632 189.821831 
L 269.479809 187.994968 
L 269.906986 184.982984 
L 270.334163 185.743578 
L 272.042871 182.313152 
L 272.470048 181.748981 
L 272.897225 181.770336 
L 273.324402 182.08116 
L 273.751579 181.013844 
L 274.178756 179.517995 
L 274.605933 180.858071 
L 275.03311 180.883936 
L 275.460287 182.077791 
L 275.887464 180.771258 
L 276.314641 178.739947 
L 276.741818 179.000233 
L 277.168995 178.123279 
L 278.450526 176.728658 
L 279.30488 175.704264 
L 279.732057 175.593299 
L 280.159234 190.446653 
L 280.586411 173.707659 
L 281.013589 172.904233 
L 281.440766 168.84509 
L 281.867943 172.611025 
L 282.722297 172.060749 
L 283.149474 172.058086 
L 283.576651 171.554118 
L 284.003828 171.305757 
L 284.431005 172.685436 
L 284.858182 173.560101 
L 285.285359 173.347472 
L 285.712536 172.162492 
L 286.139713 172.247581 
L 287.421244 171.251145 
L 287.848421 168.589024 
L 288.275598 169.63977 
L 288.702775 166.820365 
L 289.129952 168.009201 
L 289.557129 165.642688 
L 289.984306 164.165055 
L 290.411483 165.036306 
L 290.83866 163.224227 
L 291.265837 162.021032 
L 291.693014 161.76519 
L 292.120191 162.748844 
L 292.547368 163.26772 
L 293.8289 160.61025 
L 294.256077 161.221394 
L 294.683254 162.102125 
L 295.110431 162.272907 
L 295.537608 160.25732 
L 295.964785 159.50657 
L 296.391962 158.045456 
L 296.819139 157.685459 
L 297.246316 157.480832 
L 297.673493 157.633734 
L 298.10067 157.441005 
L 298.955024 155.43393 
L 299.382201 156.604891 
L 299.809378 152.895539 
L 300.236555 152.990947 
L 300.663732 152.538614 
L 301.090909 149.833207 
L 301.518086 149.02147 
L 301.945263 148.533569 
L 302.37244 148.537122 
L 302.799617 147.070401 
L 303.226794 146.970416 
L 304.081148 144.651369 
L 304.508325 146.182071 
L 304.935502 147.168003 
L 305.789856 144.82007 
L 306.217033 145.971646 
L 306.644211 145.761087 
L 307.071388 146.262352 
L 307.498565 144.490107 
L 307.925742 143.871749 
L 308.352919 145.211629 
L 308.780096 143.288271 
L 309.207273 143.442164 
L 309.63445 142.893528 
L 310.488804 142.680843 
L 310.915981 138.881605 
L 311.343158 138.770937 
L 311.770335 139.070782 
L 312.197512 139.989728 
L 313.051866 135.556112 
L 313.479043 133.600258 
L 313.90622 133.103828 
L 314.333397 133.274341 
L 314.760574 132.917377 
L 315.187751 130.974545 
L 315.614928 132.576709 
L 316.042105 130.870866 
L 316.469282 132.453841 
L 316.896459 131.319069 
L 317.323636 130.63217 
L 317.750813 130.574889 
L 318.17799 130.652277 
L 318.605167 129.173026 
L 319.032344 129.3411 
L 319.459522 130.942077 
L 319.886699 130.399602 
L 320.313876 131.056304 
L 320.741053 131.32471 
L 321.16823 129.272962 
L 321.595407 130.501764 
L 322.022584 130.831962 
L 322.449761 130.069421 
L 322.876938 129.603506 
L 323.304115 127.765618 
L 323.731292 128.153518 
L 324.158469 127.753508 
L 324.585646 127.886164 
L 325.012823 126.817398 
L 325.44 126.349878 
L 325.867177 124.997093 
L 326.294354 124.405798 
L 326.721531 125.241732 
L 327.148708 125.490278 
L 327.575885 125.546194 
L 328.430239 123.622422 
L 328.857416 124.083608 
L 329.284593 122.680783 
L 329.71177 123.287932 
L 330.138947 123.025554 
L 330.566124 122.055251 
L 330.993301 122.292375 
L 331.420478 122.958926 
L 331.847656 122.655058 
L 332.274833 122.67094 
L 332.70201 120.150473 
L 333.556364 118.355988 
L 333.983541 118.652274 
L 334.410718 118.024929 
L 334.837895 115.936973 
L 335.265072 116.612395 
L 335.692249 113.616192 
L 336.119426 116.014032 
L 336.546603 114.029022 
L 336.97378 111.31554 
L 337.400957 112.109314 
L 337.828134 110.415016 
L 338.255311 109.271738 
L 338.682488 109.381108 
L 339.109665 108.523383 
L 339.536842 110.673629 
L 339.964019 108.882278 
L 340.391196 109.553966 
L 340.818373 109.948055 
L 342.099904 107.199631 
L 342.527081 109.487904 
L 342.954258 109.533753 
L 343.381435 108.522185 
L 343.808612 109.095388 
L 344.235789 110.485129 
L 344.662967 109.404282 
L 345.090144 106.889417 
L 345.517321 111.064387 
L 345.944498 109.939756 
L 346.371675 108.311929 
L 346.798852 109.677472 
L 347.226029 109.776137 
L 347.653206 107.54617 
L 348.080383 106.435629 
L 348.50756 104.399751 
L 348.934737 105.392561 
L 349.361914 104.640395 
L 349.789091 104.872386 
L 350.216268 105.50971 
L 350.643445 103.88228 
L 351.070622 103.215029 
L 351.497799 104.421514 
L 351.924976 104.120808 
L 352.352153 101.510082 
L 352.77933 100.935804 
L 353.206507 99.159009 
L 353.633684 102.076748 
L 354.060861 103.04442 
L 354.488038 102.093134 
L 354.915215 101.91121 
L 355.342392 102.060402 
L 355.769569 96.914251 
L 356.196746 100.354481 
L 356.623923 98.372091 
L 357.478278 99.374918 
L 357.905455 94.500966 
L 358.332632 93.878064 
L 358.759809 91.917465 
L 359.186986 91.839433 
L 359.614163 93.612848 
L 360.04134 91.167252 
L 360.468517 90.686524 
L 360.895694 89.423574 
L 361.322871 88.966837 
L 361.750048 87.531902 
L 362.177225 87.746439 
L 362.604402 91.225406 
L 363.031579 89.349347 
L 363.458756 88.161469 
L 363.885933 90.420654 
L 364.31311 89.171324 
L 364.740287 88.731543 
L 365.167464 86.927808 
L 366.021818 89.798563 
L 366.448995 89.483284 
L 366.876172 89.933373 
L 367.303349 89.790768 
L 367.730526 88.173439 
L 368.157703 90.043443 
L 368.58488 87.796754 
L 369.012057 87.002231 
L 369.439234 86.918989 
L 370.293589 84.121969 
L 370.720766 81.000917 
L 371.147943 83.129461 
L 371.57512 87.10507 
L 372.002297 82.626898 
L 372.429474 82.416529 
L 372.856651 85.421629 
L 373.711005 81.421912 
L 374.138182 81.368447 
L 374.565359 82.212814 
L 374.992536 82.178359 
L 375.419713 82.82496 
L 375.84689 75.223458 
L 376.274067 74.411968 
L 376.701244 74.638571 
L 377.128421 73.085021 
L 377.555598 72.575468 
L 377.982775 69.873497 
L 378.409952 73.306733 
L 378.837129 74.645398 
L 379.264306 71.708335 
L 379.691483 73.643696 
L 380.11866 70.35249 
L 380.545837 68.676732 
L 380.973014 64.611361 
L 381.400191 65.705281 
L 381.827368 59.681835 
L 382.254545 62.121908 
L 383.1089 65.832212 
L 383.536077 64.0761 
L 383.963254 64.418665 
L 384.390431 65.155403 
L 384.817608 65.005405 
L 385.244785 67.146428 
L 385.671962 66.148386 
L 386.099139 64.583761 
L 386.526316 64.944648 
L 386.953493 63.341175 
L 387.38067 63.748571 
L 387.807847 61.787518 
L 388.235024 63.171871 
L 388.662201 66.90715 
L 389.089378 64.39351 
L 389.516555 60.582717 
L 389.943732 63.74086 
L 390.370909 61.906268 
L 390.798086 63.81174 
L 391.225263 62.091107 
L 391.65244 62.066641 
L 392.933971 55.442386 
L 393.361148 58.410333 
L 393.788325 58.183389 
L 394.215502 56.69777 
L 394.642679 57.135631 
L 395.069856 59.667352 
L 395.924211 57.480071 
L 396.351388 59.083153 
L 396.778565 58.181257 
L 397.205742 56.433657 
L 397.632919 56.467642 
L 398.487273 53.568 
L 398.487273 53.568 
" clip-path="url(#p70f9964f7f)" style="fill: none; stroke: #1f77b4; stroke-width: 1.5; stroke-linecap: square"/>
   </g>
   <g id="line2d_15">
    <path d="M 73.832727 294.813642 
L 75.541435 294.671467 
L 75.968612 294.790457 
L 85.366507 294.529595 
L 86.220861 294.520557 
L 88.356746 294.452705 
L 90.492632 294.522175 
L 92.20134 294.519041 
L 98.181818 294.434568 
L 98.608995 294.234233 
L 101.172057 294.153962 
L 103.307943 294.167001 
L 105.871005 294.200192 
L 108.00689 294.201182 
L 109.715598 294.31029 
L 110.997129 294.319182 
L 113.560191 294.349983 
L 116.550431 294.450847 
L 117.404785 294.436196 
L 118.686316 294.260311 
L 120.395024 294.233875 
L 122.530909 294.173062 
L 127.657033 294.357593 
L 133.637512 293.895742 
L 134.491866 293.837307 
L 135.34622 293.772689 
L 136.200574 293.873223 
L 137.054928 293.886435 
L 137.909282 293.939279 
L 139.190813 293.974994 
L 140.045167 293.66352 
L 140.899522 293.703331 
L 141.326699 293.785571 
L 143.035407 293.680823 
L 143.462584 293.737075 
L 143.889761 293.60001 
L 146.025646 293.551167 
L 146.88 293.376535 
L 147.307177 293.37447 
L 147.734354 293.485934 
L 153.714833 292.788755 
L 154.569187 292.672496 
L 154.996364 292.66376 
L 155.423541 292.517456 
L 156.277895 292.525089 
L 157.559426 292.101425 
L 159.268134 291.804188 
L 159.695311 291.932686 
L 161.404019 291.800187 
L 167.384498 290.709529 
L 167.811675 290.757426 
L 168.666029 290.483749 
L 169.520383 290.374922 
L 169.94756 290.124754 
L 171.229091 290.409489 
L 172.083445 290.212998 
L 172.510622 290.155241 
L 172.937799 289.912152 
L 173.364976 289.930356 
L 173.792153 289.750285 
L 175.073684 289.658274 
L 175.500861 289.401502 
L 176.782392 289.14186 
L 177.209569 289.144664 
L 177.636746 288.980183 
L 178.063923 288.963468 
L 179.772632 288.453439 
L 180.199809 288.387517 
L 181.054163 287.948671 
L 181.48134 288.095988 
L 182.762871 287.577672 
L 183.617225 287.145647 
L 184.044402 286.818281 
L 184.898756 286.590867 
L 185.325933 286.695357 
L 186.180287 286.535588 
L 187.461818 285.313053 
L 187.888995 285.019381 
L 188.316172 285.100116 
L 188.743349 284.942558 
L 190.02488 284.024601 
L 190.452057 283.869276 
L 191.306411 283.127703 
L 191.733589 283.026095 
L 192.160766 281.626549 
L 192.587943 281.757218 
L 193.01512 282.689557 
L 193.442297 282.588312 
L 194.296651 281.872901 
L 194.723828 282.519385 
L 195.151005 281.682309 
L 195.578182 281.630825 
L 196.005359 281.37064 
L 196.432536 280.762086 
L 196.859713 280.79301 
L 197.714067 279.860935 
L 198.141244 279.889044 
L 198.568421 279.680791 
L 198.995598 278.924747 
L 199.422775 279.180035 
L 199.849952 278.607789 
L 200.277129 278.779444 
L 200.704306 278.572864 
L 201.131483 278.657169 
L 201.55866 278.012392 
L 201.985837 278.037244 
L 202.413014 277.379439 
L 202.840191 277.493723 
L 203.694545 276.105336 
L 204.121722 275.830584 
L 204.5489 275.743207 
L 204.976077 275.424548 
L 205.403254 275.392964 
L 205.830431 275.514942 
L 206.257608 275.491808 
L 207.539139 275.036263 
L 207.966316 275.184582 
L 208.82067 274.801299 
L 209.247847 274.140501 
L 209.675024 272.657282 
L 210.102201 273.764431 
L 210.529378 274.128911 
L 210.956555 273.746278 
L 211.383732 273.96823 
L 211.810909 273.414507 
L 212.665263 272.698537 
L 213.09244 271.98875 
L 213.519617 271.543608 
L 213.946794 270.611074 
L 214.373971 267.851144 
L 214.801148 266.083364 
L 215.228325 268.702166 
L 215.655502 269.392764 
L 216.082679 269.411757 
L 216.509856 269.687779 
L 216.937033 269.667901 
L 217.364211 270.037311 
L 217.791388 269.274971 
L 218.218565 269.40902 
L 218.645742 267.98521 
L 219.072919 267.550119 
L 219.500096 267.797483 
L 220.35445 266.377657 
L 220.781627 266.761953 
L 221.208804 266.724901 
L 221.635981 266.267342 
L 222.063158 265.60323 
L 222.490335 265.257693 
L 222.917512 265.30667 
L 223.771866 263.248094 
L 224.199043 262.642608 
L 224.62622 262.317222 
L 225.053397 261.131202 
L 225.480574 260.72042 
L 226.762105 258.328876 
L 227.189282 258.734901 
L 228.043636 258.335563 
L 228.89799 257.568842 
L 229.325167 257.902162 
L 230.179522 257.479483 
L 231.033876 256.421899 
L 232.315407 255.88131 
L 232.742584 255.884852 
L 233.169761 254.776041 
L 233.596938 254.664354 
L 234.024115 254.694741 
L 234.451292 254.126865 
L 235.732823 251.315194 
L 236.16 250.784841 
L 236.587177 248.225537 
L 237.014354 244.614709 
L 237.441531 249.972231 
L 237.868708 251.139667 
L 238.295885 250.813705 
L 238.723062 250.238902 
L 239.150239 250.317124 
L 239.577416 250.613158 
L 240.43177 249.403768 
L 241.286124 248.851936 
L 241.713301 248.405608 
L 242.140478 247.13113 
L 242.567656 246.835482 
L 242.994833 246.763231 
L 243.849187 245.635483 
L 244.276364 244.294954 
L 244.703541 243.459506 
L 245.130718 243.986026 
L 245.985072 242.339391 
L 246.412249 240.824594 
L 246.839426 240.383996 
L 247.266603 240.168512 
L 248.120957 237.739324 
L 248.548134 235.8475 
L 248.975311 236.675975 
L 249.402488 236.51981 
L 249.829665 235.567886 
L 250.256842 234.925403 
L 250.684019 234.760911 
L 251.111196 234.877226 
L 251.538373 236.190077 
L 251.96555 235.516928 
L 252.392727 235.818177 
L 252.819904 235.103521 
L 253.247081 235.181206 
L 253.674258 234.377405 
L 254.528612 232.129239 
L 254.955789 232.355053 
L 255.810144 229.17532 
L 256.237321 229.928774 
L 256.664498 229.343209 
L 257.091675 227.957424 
L 257.518852 227.854534 
L 257.946029 226.924463 
L 258.373206 226.394909 
L 258.800383 222.701175 
L 259.22756 214.178303 
L 259.654737 220.313784 
L 260.081914 223.585258 
L 260.509091 223.930846 
L 261.363445 223.570703 
L 261.790622 223.670672 
L 262.217799 223.624879 
L 262.644976 222.606596 
L 263.072153 222.352454 
L 263.49933 222.669652 
L 264.353684 221.478332 
L 265.208038 219.339329 
L 265.635215 216.9965 
L 266.062392 217.784643 
L 266.489569 217.667925 
L 266.916746 213.418941 
L 267.343923 214.35082 
L 268.198278 211.515847 
L 268.625455 208.788112 
L 269.052632 208.689805 
L 269.479809 208.316249 
L 270.334163 203.564829 
L 270.76134 203.249595 
L 271.188517 202.548035 
L 271.615694 202.205419 
L 272.470048 199.493778 
L 272.897225 199.261333 
L 273.324402 199.181035 
L 273.751579 200.369898 
L 274.178756 200.506824 
L 274.605933 201.515442 
L 275.03311 202.21899 
L 275.887464 202.779685 
L 276.314641 200.374795 
L 276.741818 199.768261 
L 277.168995 200.292773 
L 277.596172 199.222088 
L 278.023349 197.252048 
L 278.450526 198.966749 
L 278.877703 199.646474 
L 279.30488 197.617742 
L 279.732057 197.368206 
L 280.159234 196.225701 
L 280.586411 190.446653 
L 281.013589 192.760724 
L 281.440766 183.203396 
L 282.29512 194.551722 
L 282.722297 193.079193 
L 283.149474 194.626302 
L 283.576651 194.052002 
L 284.003828 193.956599 
L 284.431005 192.45826 
L 284.858182 194.987575 
L 285.285359 195.688016 
L 285.712536 195.032226 
L 286.139713 193.595757 
L 286.56689 193.106043 
L 286.994067 191.984758 
L 287.421244 191.906664 
L 287.848421 193.891433 
L 288.275598 192.756991 
L 288.702775 191.143776 
L 289.129952 188.876532 
L 289.557129 188.660965 
L 289.984306 187.723389 
L 290.411483 187.837919 
L 290.83866 185.42436 
L 291.265837 185.368684 
L 291.693014 183.707577 
L 292.120191 183.443139 
L 292.547368 182.936239 
L 292.974545 181.349123 
L 293.8289 181.36224 
L 294.683254 180.720054 
L 295.110431 181.674626 
L 295.537608 180.056362 
L 295.964785 179.194843 
L 296.391962 182.279659 
L 296.819139 182.432987 
L 297.246316 182.287029 
L 297.673493 182.380188 
L 298.10067 182.302424 
L 298.527847 180.757833 
L 298.955024 181.126169 
L 299.382201 181.749966 
L 299.809378 181.061489 
L 300.236555 177.901276 
L 300.663732 178.767384 
L 301.090909 178.335483 
L 301.518086 174.976032 
L 301.945263 176.61968 
L 303.226794 172.236635 
L 303.653971 158.533201 
L 304.081148 163.789467 
L 304.508325 171.694943 
L 304.935502 173.145867 
L 305.789856 171.74424 
L 306.217033 170.369653 
L 306.644211 171.397326 
L 307.071388 171.105719 
L 307.498565 172.187238 
L 307.925742 169.745665 
L 308.352919 171.902217 
L 309.207273 169.662876 
L 309.63445 169.631426 
L 310.061627 170.300457 
L 310.488804 167.501724 
L 310.915981 167.02849 
L 311.343158 164.685252 
L 311.770335 166.837204 
L 312.197512 168.205848 
L 312.624689 165.577449 
L 313.479043 158.247425 
L 313.90622 159.849398 
L 314.333397 158.529726 
L 314.760574 157.809004 
L 315.187751 156.097241 
L 315.614928 156.808992 
L 316.042105 157.007967 
L 316.469282 156.829116 
L 316.896459 156.25997 
L 317.323636 155.352255 
L 317.750813 152.818783 
L 318.17799 156.019791 
L 318.605167 156.926012 
L 319.032344 157.096498 
L 319.459522 158.536872 
L 319.886699 159.336219 
L 320.741053 159.039441 
L 321.16823 159.594798 
L 321.595407 159.274393 
L 322.022584 160.000851 
L 322.876938 157.069726 
L 323.304115 158.914592 
L 323.731292 158.287846 
L 324.158469 156.727905 
L 324.585646 156.900231 
L 325.012823 156.148944 
L 325.44 153.809746 
L 325.867177 140.877561 
L 326.294354 140.533272 
L 326.721531 153.191516 
L 327.148708 154.966398 
L 327.575885 155.329775 
L 328.003062 154.108152 
L 328.430239 152.458226 
L 329.284593 150.60942 
L 329.71177 150.557063 
L 330.138947 151.170451 
L 330.566124 150.73104 
L 330.993301 140.860521 
L 331.420478 136.552581 
L 331.847656 134.875022 
L 332.274833 136.125784 
L 333.556364 131.742923 
L 333.983541 132.050558 
L 334.410718 134.371803 
L 334.837895 132.244687 
L 335.265072 131.432872 
L 335.692249 133.332126 
L 336.119426 134.376308 
L 336.97378 131.092869 
L 337.400957 127.966871 
L 337.828134 127.730413 
L 338.255311 126.033821 
L 338.682488 127.499255 
L 339.109665 127.29779 
L 339.536842 128.45583 
L 339.964019 127.346191 
L 340.391196 127.355441 
L 340.818373 128.333175 
L 341.24555 130.062146 
L 341.672727 129.235971 
L 342.099904 131.2198 
L 342.954258 131.359814 
L 343.381435 132.12549 
L 343.808612 130.730337 
L 344.235789 130.927258 
L 344.662967 129.823987 
L 345.090144 127.827125 
L 345.517321 130.104363 
L 345.944498 130.562644 
L 346.371675 130.33988 
L 346.798852 132.899055 
L 347.226029 130.755346 
L 348.080383 122.088705 
L 348.50756 115.19507 
L 348.934737 121.125974 
L 349.361914 125.508644 
L 349.789091 124.745325 
L 350.216268 125.697484 
L 350.643445 124.517899 
L 351.497799 123.507887 
L 351.924976 123.657767 
L 352.352153 125.374802 
L 352.77933 124.949963 
L 353.206507 124.735369 
L 353.633684 122.717712 
L 354.060861 126.023592 
L 354.915215 122.910654 
L 355.342392 125.257692 
L 355.769569 123.894331 
L 356.196746 120.34665 
L 356.623923 120.695203 
L 357.0511 118.585283 
L 357.478278 117.348948 
L 357.905455 119.290056 
L 358.332632 119.68251 
L 359.186986 111.920126 
L 359.614163 111.787974 
L 360.04134 111.403959 
L 360.468517 110.617763 
L 360.895694 107.763516 
L 361.322871 109.269343 
L 361.750048 107.844744 
L 362.177225 107.953868 
L 362.604402 109.244659 
L 363.031579 112.402521 
L 363.458756 113.134749 
L 363.885933 113.187324 
L 364.31311 114.771451 
L 364.740287 112.47048 
L 365.594641 113.700307 
L 366.021818 113.987135 
L 366.448995 113.752049 
L 366.876172 113.287925 
L 367.303349 115.783316 
L 367.730526 114.635169 
L 368.157703 115.184208 
L 368.58488 113.552699 
L 369.012057 114.683363 
L 369.866411 111.900618 
L 370.293589 106.354044 
L 370.720766 93.366318 
L 371.147943 100.855047 
L 371.57512 106.349097 
L 372.002297 106.705591 
L 372.429474 108.525616 
L 372.856651 106.803159 
L 373.283828 109.706136 
L 373.711005 108.680527 
L 374.138182 105.074243 
L 374.565359 107.049062 
L 374.992536 107.042297 
L 375.419713 109.462817 
L 375.84689 105.356639 
L 376.274067 98.407122 
L 376.701244 98.571581 
L 377.128421 109.516154 
L 377.555598 97.229647 
L 378.409952 93.588455 
L 378.837129 97.468673 
L 379.264306 97.281416 
L 379.691483 95.868642 
L 380.11866 92.619277 
L 380.545837 93.293786 
L 381.400191 85.293546 
L 381.827368 86.101505 
L 382.254545 85.86643 
L 382.681722 83.292291 
L 383.1089 83.196463 
L 383.536077 84.152887 
L 383.963254 82.834507 
L 384.390431 83.717734 
L 384.817608 83.82486 
L 385.244785 87.33291 
L 385.671962 88.207659 
L 386.526316 91.365661 
L 386.953493 89.196551 
L 387.38067 90.391828 
L 387.807847 90.530236 
L 388.235024 87.532512 
L 388.662201 90.899114 
L 389.089378 91.834139 
L 389.516555 88.578289 
L 389.943732 87.697597 
L 390.370909 90.10636 
L 390.798086 86.402889 
L 391.225263 90.008859 
L 391.65244 90.327076 
L 392.079617 85.733114 
L 392.933971 70.795617 
L 393.361148 78.440332 
L 393.788325 83.649036 
L 394.215502 83.570546 
L 394.642679 84.185742 
L 395.069856 82.984684 
L 395.497033 83.12518 
L 395.924211 83.885405 
L 396.778565 81.446092 
L 397.205742 84.640016 
L 398.060096 76.987148 
L 398.487273 80.899286 
L 398.487273 80.899286 
" clip-path="url(#p70f9964f7f)" style="fill: none; stroke: #ff7f0e; stroke-width: 1.5; stroke-linecap: square"/>
   </g>
   <g id="line2d_16">
    <path d="M 73.832727 295.298359 
L 80.240383 295.26715 
L 80.66756 295.337588 
L 81.521914 295.221698 
L 81.949091 295.310497 
L 82.376268 295.206762 
L 82.803445 295.309893 
L 84.084976 295.204837 
L 96.045933 295.271308 
L 96.47311 295.227882 
L 96.900287 295.327817 
L 98.181818 295.0134 
L 98.608995 295.21434 
L 108.434067 295.268493 
L 108.861244 295.406549 
L 110.142775 295.314879 
L 110.997129 295.234116 
L 111.851483 295.367611 
L 112.27866 295.386056 
L 112.705837 295.283737 
L 113.560191 295.408888 
L 114.414545 295.427226 
L 115.696077 295.431569 
L 119.967847 295.315254 
L 121.249378 295.317173 
L 121.676555 295.385714 
L 122.530909 295.350269 
L 123.385263 295.350991 
L 124.239617 295.361299 
L 124.666794 295.460859 
L 128.084211 295.362289 
L 132.355981 295.353 
L 132.783158 295.478559 
L 133.210335 295.33474 
L 133.637512 295.426661 
L 134.064689 295.312803 
L 135.34622 295.392687 
L 135.773397 295.339916 
L 136.200574 295.459505 
L 137.054928 295.425704 
L 137.482105 295.332613 
L 138.336459 295.488 
L 139.61799 295.341119 
L 140.045167 295.439627 
L 140.899522 295.294224 
L 141.326699 295.269651 
L 141.753876 295.406314 
L 142.181053 295.407696 
L 142.60823 295.282808 
L 143.889761 295.450668 
L 144.316938 295.300117 
L 145.598469 295.278863 
L 146.025646 295.129273 
L 147.307177 295.399845 
L 148.161531 295.128132 
L 148.588708 295.218352 
L 149.015885 295.09582 
L 150.297416 295.122743 
L 150.724593 295.14816 
L 151.15177 295.313519 
L 152.006124 295.228223 
L 152.433301 294.89018 
L 152.860478 295.109575 
L 153.287656 295.007149 
L 154.569187 295.203539 
L 154.996364 295.05339 
L 155.423541 295.103022 
L 156.277895 294.864292 
L 156.705072 294.920354 
L 157.559426 294.833503 
L 157.986603 294.983786 
L 158.840957 294.819501 
L 159.268134 295.076614 
L 162.258373 294.826636 
L 163.112727 294.781554 
L 163.539904 294.803468 
L 163.967081 294.577699 
L 164.394258 294.520378 
L 165.248612 294.710472 
L 166.102967 294.664226 
L 166.530144 294.939319 
L 168.238852 294.602143 
L 169.520383 294.639995 
L 169.94756 294.926247 
L 171.229091 294.446392 
L 172.083445 294.53232 
L 172.510622 294.46942 
L 172.937799 294.704552 
L 173.364976 294.475156 
L 174.21933 294.765924 
L 175.500861 294.364331 
L 176.782392 294.468586 
L 177.209569 294.244977 
L 177.636746 294.389245 
L 178.4911 294.070939 
L 178.918278 294.229415 
L 179.345455 294.117011 
L 179.772632 294.191591 
L 180.626986 294.140689 
L 181.48134 294.132843 
L 181.908517 294.018996 
L 182.335694 294.143906 
L 183.617225 293.96412 
L 184.044402 294.173465 
L 184.898756 294.012331 
L 185.325933 293.715765 
L 185.75311 293.580491 
L 186.180287 293.252151 
L 187.034641 293.205664 
L 187.461818 292.934013 
L 187.888995 293.473079 
L 188.316172 293.434796 
L 188.743349 293.125534 
L 189.170526 293.069343 
L 189.597703 292.648791 
L 190.02488 292.871096 
L 190.452057 292.286577 
L 191.306411 292.797361 
L 191.733589 292.689306 
L 192.160766 293.806064 
L 192.587943 293.726717 
L 193.01512 292.485435 
L 193.442297 292.349114 
L 193.869474 292.397638 
L 194.296651 292.631521 
L 194.723828 291.667693 
L 195.151005 292.47614 
L 195.578182 292.481059 
L 196.005359 292.022346 
L 196.432536 292.621426 
L 196.859713 291.800125 
L 197.28689 291.923077 
L 197.714067 292.380788 
L 198.141244 292.412243 
L 198.568421 292.327865 
L 198.995598 292.633138 
L 199.422775 292.123244 
L 199.849952 292.425361 
L 200.277129 291.784607 
L 200.704306 292.278793 
L 201.131483 291.987455 
L 201.55866 292.400889 
L 201.985837 292.195607 
L 202.413014 292.551833 
L 203.267368 291.504114 
L 203.694545 292.352421 
L 204.121722 292.214723 
L 204.5489 291.764915 
L 204.976077 292.0428 
L 205.403254 292.48492 
L 205.830431 292.029129 
L 206.257608 291.766263 
L 206.684785 291.63767 
L 207.111962 291.076812 
L 207.539139 291.348111 
L 207.966316 291.174302 
L 208.393493 290.69231 
L 208.82067 290.82468 
L 209.247847 287.852754 
L 209.675024 291.726117 
L 210.102201 292.042817 
L 210.529378 290.986475 
L 210.956555 290.982479 
L 211.810909 290.342 
L 212.238086 290.388274 
L 212.665263 290.089034 
L 213.09244 290.224168 
L 213.946794 289.595749 
L 214.373971 291.619634 
L 214.801148 292.388124 
L 215.228325 289.109554 
L 215.655502 289.472634 
L 216.509856 289.04554 
L 216.937033 289.235634 
L 217.364211 289.18406 
L 217.791388 289.825138 
L 218.218565 287.367348 
L 218.645742 289.134871 
L 219.072919 289.126616 
L 219.500096 288.408351 
L 219.927273 288.781365 
L 220.35445 289.353158 
L 220.781627 288.992741 
L 221.208804 289.078372 
L 221.635981 287.779383 
L 222.063158 288.37952 
L 222.490335 287.952263 
L 222.917512 287.289853 
L 223.344689 288.820566 
L 223.771866 287.657422 
L 224.199043 288.774314 
L 224.62622 287.639122 
L 225.053397 288.125743 
L 225.480574 287.486349 
L 225.907751 289.041085 
L 226.334928 288.704391 
L 226.762105 287.664618 
L 227.616459 288.605603 
L 228.043636 288.277559 
L 228.470813 287.042819 
L 228.89799 287.830627 
L 229.325167 286.013634 
L 229.752344 286.583082 
L 230.179522 285.661634 
L 231.033876 284.820904 
L 231.88823 284.980203 
L 232.315407 285.043231 
L 232.742584 283.869186 
L 233.169761 285.120435 
L 233.596938 284.79303 
L 234.024115 283.602543 
L 234.451292 283.87598 
L 234.878469 283.608028 
L 235.305646 283.72638 
L 236.16 285.09377 
L 236.587177 287.087257 
L 237.014354 288.287733 
L 237.441531 283.619416 
L 237.868708 283.176608 
L 238.295885 283.230979 
L 238.723062 283.732328 
L 239.150239 283.646176 
L 239.577416 283.398028 
L 240.43177 284.3166 
L 240.858947 283.174727 
L 241.286124 283.448086 
L 241.713301 282.691717 
L 242.140478 283.962815 
L 242.567656 284.075761 
L 242.994833 282.932377 
L 243.849187 281.835944 
L 244.276364 281.150461 
L 244.703541 283.369471 
L 245.130718 282.263044 
L 245.557895 281.914172 
L 245.985072 282.977834 
L 246.412249 281.933523 
L 246.839426 282.749575 
L 247.266603 282.651268 
L 247.69378 282.160423 
L 248.120957 283.277903 
L 248.548134 283.838716 
L 248.975311 283.330724 
L 249.402488 282.434128 
L 249.829665 282.826795 
L 250.256842 283.766392 
L 250.684019 283.210022 
L 251.538373 281.015769 
L 251.96555 281.155559 
L 252.392727 279.08456 
L 253.247081 279.050676 
L 253.674258 277.784922 
L 254.101435 279.226343 
L 254.528612 279.013573 
L 254.955789 277.710365 
L 255.382967 277.020147 
L 255.810144 278.673498 
L 256.237321 277.217421 
L 257.091675 276.958546 
L 257.946029 277.549208 
L 258.373206 275.628386 
L 258.800383 278.462397 
L 259.22756 282.922656 
L 260.081914 275.678175 
L 260.509091 275.962501 
L 260.936268 275.370742 
L 261.363445 276.17484 
L 261.790622 276.684309 
L 262.217799 276.490611 
L 262.644976 276.455814 
L 263.072153 277.026661 
L 263.49933 276.087468 
L 263.926507 275.983503 
L 264.353684 275.448186 
L 264.780861 276.499839 
L 265.208038 276.659675 
L 265.635215 276.300959 
L 266.062392 276.360552 
L 266.489569 272.854511 
L 266.916746 277.383927 
L 267.343923 274.482853 
L 267.7711 274.534858 
L 268.198278 275.373293 
L 268.625455 277.59696 
L 269.052632 276.697812 
L 269.479809 275.244505 
L 269.906986 274.702075 
L 270.334163 277.744535 
L 270.76134 277.179418 
L 271.188517 277.189082 
L 271.615694 276.24004 
L 272.042871 277.222256 
L 272.470048 277.820988 
L 272.897225 278.074788 
L 273.324402 278.465911 
L 273.751579 276.209731 
L 274.178756 274.576957 
L 274.605933 274.908414 
L 275.03311 274.230732 
L 275.460287 275.198046 
L 275.887464 273.557359 
L 276.314641 273.930938 
L 276.741818 274.797757 
L 277.168995 273.396292 
L 277.596172 273.955465 
L 278.023349 275.415426 
L 278.450526 273.327695 
L 278.877703 272.200624 
L 279.30488 273.652308 
L 279.732057 273.790879 
L 280.159234 289.786738 
L 280.586411 278.826792 
L 281.013589 275.709294 
L 281.440766 281.20748 
L 281.867943 279.79264 
L 282.29512 273.315938 
L 282.722297 274.547343 
L 283.149474 272.99757 
L 283.576651 273.067902 
L 284.003828 272.914943 
L 284.431005 275.792962 
L 284.858182 274.138312 
L 285.285359 273.225242 
L 285.712536 272.696052 
L 286.139713 274.217609 
L 286.56689 274.38852 
L 286.994067 275.156075 
L 287.421244 274.910267 
L 287.848421 270.263377 
L 288.275598 272.448564 
L 288.702775 271.242375 
L 289.129952 274.698454 
L 289.557129 272.547509 
L 289.984306 272.007452 
L 290.83866 273.365653 
L 291.265837 272.218134 
L 292.120191 274.871491 
L 292.547368 275.897267 
L 292.974545 276.598543 
L 293.8289 274.813795 
L 294.683254 276.947857 
L 295.110431 276.164067 
L 295.537608 275.766744 
L 295.964785 275.877513 
L 296.391962 271.331583 
L 296.819139 270.818258 
L 297.246316 270.759589 
L 297.673493 270.819333 
L 298.10067 270.704366 
L 298.527847 271.253903 
L 298.955024 269.873547 
L 299.382201 270.420711 
L 299.809378 267.399836 
L 300.236555 270.655456 
L 300.663732 269.337015 
L 301.090909 267.06351 
L 301.518086 269.611224 
L 301.945263 267.479675 
L 302.37244 268.884268 
L 302.799617 268.929104 
L 303.226794 270.299567 
L 303.653971 282.669483 
L 304.508325 270.052913 
L 304.935502 269.587922 
L 305.362679 269.309354 
L 305.789856 268.641616 
L 306.217033 271.167779 
L 306.644211 269.929547 
L 307.071388 270.722419 
L 307.498565 267.868654 
L 307.925742 269.691869 
L 308.780096 268.211444 
L 309.207273 269.345074 
L 309.63445 268.827888 
L 310.061627 268.107905 
L 310.488804 270.744904 
L 310.915981 267.418901 
L 311.343158 269.651471 
L 311.770335 267.799364 
L 312.197512 267.349667 
L 312.624689 267.454135 
L 313.479043 270.918619 
L 313.90622 268.820215 
L 314.333397 270.310401 
L 314.760574 270.674159 
L 315.187751 270.44309 
L 315.614928 271.333502 
L 316.042105 269.428685 
L 316.469282 271.190511 
L 316.896459 270.624885 
L 317.323636 270.845701 
L 317.750813 273.321892 
L 318.605167 267.8128 
L 319.032344 267.810388 
L 319.459522 267.97099 
L 319.886699 266.629169 
L 320.313876 267.419383 
L 320.741053 267.851055 
L 321.16823 265.243949 
L 321.595407 266.793157 
L 322.022584 266.396897 
L 322.876938 268.099566 
L 323.304115 264.416812 
L 324.158469 266.591389 
L 324.585646 266.551719 
L 325.012823 266.234241 
L 325.44 268.105918 
L 325.867177 279.685318 
L 326.294354 279.438312 
L 326.721531 267.616002 
L 327.148708 266.089665 
L 327.575885 265.782204 
L 328.003062 266.128088 
L 328.430239 266.729982 
L 328.857416 268.241002 
L 329.284593 267.637149 
L 329.71177 268.296655 
L 330.138947 267.420888 
L 330.566124 266.889997 
L 330.993301 276.99764 
L 331.420478 281.972131 
L 331.847656 283.345822 
L 332.70201 280.948268 
L 333.556364 282.178851 
L 333.983541 282.167502 
L 334.410718 279.218911 
L 334.837895 279.258073 
L 335.265072 280.745309 
L 335.692249 275.849852 
L 336.119426 277.203509 
L 336.546603 276.763986 
L 336.97378 275.788457 
L 337.400957 279.708229 
L 337.828134 278.250388 
L 338.255311 278.803703 
L 338.682488 277.447639 
L 339.109665 276.791379 
L 339.536842 277.783584 
L 339.964019 277.101873 
L 340.391196 277.764311 
L 340.818373 277.180666 
L 341.24555 274.595408 
L 341.672727 274.690351 
L 342.099904 271.545617 
L 342.527081 273.723541 
L 342.954258 273.739725 
L 343.381435 271.962482 
L 343.808612 273.930837 
L 344.235789 275.123657 
L 344.662967 275.146081 
L 345.090144 274.628078 
L 345.517321 276.52581 
L 346.371675 273.537834 
L 346.798852 272.344203 
L 347.226029 274.586577 
L 347.653206 276.196284 
L 348.080383 279.91271 
L 348.50756 284.770466 
L 349.361914 274.697536 
L 349.789091 275.692848 
L 351.070622 274.841586 
L 351.497799 276.479413 
L 351.924976 276.028826 
L 352.352153 271.701065 
L 352.77933 271.551627 
L 353.206507 269.989425 
L 353.633684 274.924822 
L 354.060861 272.586615 
L 354.488038 273.389067 
L 354.915215 274.566341 
L 355.342392 272.368495 
L 355.769569 268.585705 
L 356.196746 275.573617 
L 356.623923 273.242673 
L 357.0511 275.831653 
L 357.478278 277.591755 
L 357.905455 270.776696 
L 358.332632 269.761339 
L 358.759809 271.624113 
L 359.186986 275.485092 
L 359.614163 277.39066 
L 360.04134 275.329079 
L 360.468517 275.634547 
L 360.895694 277.225843 
L 361.322871 275.26328 
L 361.750048 275.252944 
L 362.177225 275.358357 
L 362.604402 277.546533 
L 363.031579 272.512612 
L 363.458756 270.592506 
L 363.885933 272.799115 
L 364.31311 269.965659 
L 364.740287 271.826849 
L 365.167464 269.429966 
L 366.021818 271.377213 
L 366.448995 271.297021 
L 366.876172 272.211234 
L 367.303349 269.573238 
L 367.730526 269.104055 
L 368.157703 270.42502 
L 368.58488 269.809841 
L 369.012057 267.884654 
L 369.439234 269.288637 
L 369.866411 269.27022 
L 370.293589 273.333711 
L 370.720766 283.200385 
L 371.147943 277.8402 
L 371.57512 276.32176 
L 372.002297 271.487093 
L 372.429474 269.456699 
L 372.856651 274.184256 
L 373.283828 269.275083 
L 373.711005 268.30717 
L 374.138182 271.859989 
L 374.565359 270.729538 
L 374.992536 270.701848 
L 375.419713 268.927929 
L 375.84689 265.432605 
L 376.274067 271.570631 
L 376.701244 271.632776 
L 377.128421 259.134653 
L 377.555598 270.911607 
L 377.982775 269.828638 
L 378.409952 275.284064 
L 379.264306 269.992705 
L 379.691483 273.34084 
L 380.11866 273.298998 
L 380.545837 270.948731 
L 380.973014 271.077956 
L 381.400191 275.977521 
L 381.827368 269.146115 
L 382.254545 271.821264 
L 382.681722 276.177599 
L 383.1089 278.201535 
L 383.536077 275.488998 
L 383.963254 277.149943 
L 384.817608 276.74633 
L 385.244785 275.379304 
L 385.671962 273.506513 
L 386.099139 270.479369 
L 386.526316 269.144772 
L 386.953493 269.710409 
L 387.38067 268.922529 
L 387.807847 266.823068 
L 388.235024 271.205145 
L 388.662201 271.573821 
L 389.089378 268.125157 
L 389.516555 267.570214 
L 389.943732 271.609049 
L 390.370909 267.365694 
L 390.798086 272.974637 
L 391.225263 267.648034 
L 391.65244 267.305351 
L 392.079617 269.486733 
L 392.506794 274.011147 
L 392.933971 280.212555 
L 393.788325 270.100139 
L 394.215502 268.69301 
L 394.642679 268.515676 
L 395.069856 272.248453 
L 395.924211 269.160453 
L 396.351388 272.090593 
L 396.778565 272.30095 
L 397.205742 267.359426 
L 397.632919 271.636346 
L 398.060096 273.769815 
L 398.487273 268.234499 
L 398.487273 268.234499 
" clip-path="url(#p70f9964f7f)" style="fill: none; stroke: #2ca02c; stroke-width: 1.5; stroke-linecap: square"/>
   </g>
   <g id="patch_3">
    <path d="M 57.6 307.584 
L 57.6 41.472 
" style="fill: none; stroke: #000000; stroke-width: 0.8; stroke-linejoin: miter; stroke-linecap: square"/>
   </g>
   <g id="patch_4">
    <path d="M 414.72 307.584 
L 414.72 41.472 
" style="fill: none; stroke: #000000; stroke-width: 0.8; stroke-linejoin: miter; stroke-linecap: square"/>
   </g>
   <g id="patch_5">
    <path d="M 57.6 307.584 
L 414.72 307.584 
" style="fill: none; stroke: #000000; stroke-width: 0.8; stroke-linejoin: miter; stroke-linecap: square"/>
   </g>
   <g id="patch_6">
    <path d="M 57.6 41.472 
L 414.72 41.472 
" style="fill: none; stroke: #000000; stroke-width: 0.8; stroke-linejoin: miter; stroke-linecap: square"/>
   </g>
   <g id="legend_1">
    <g id="patch_7">
     <path d="M 64.6 93.506375 
L 186.25625 93.506375 
Q 188.25625 93.506375 188.25625 91.506375 
L 188.25625 48.472 
Q 188.25625 46.472 186.25625 46.472 
L 64.6 46.472 
Q 62.6 46.472 62.6 48.472 
L 62.6 91.506375 
Q 62.6 93.506375 64.6 93.506375 
z
" style="fill: #ffffff; opacity: 0.8; stroke: #cccccc; stroke-linejoin: miter"/>
    </g>
    <g id="line2d_17">
     <path d="M 66.6 54.570438 
L 76.6 54.570438 
L 86.6 54.570438 
" style="fill: none; stroke: #1f77b4; stroke-width: 1.5; stroke-linecap: square"/>
    </g>
    <g id="text_16">
     <!-- Weekly maximum -->
     <g transform="translate(94.6 58.070438) scale(0.1 -0.1)">
      <defs>
       <path id="DejaVuSans-57" d="M 213 4666 
L 850 4666 
L 1831 722 
L 2809 4666 
L 3519 4666 
L 4500 722 
L 5478 4666 
L 6119 4666 
L 4947 0 
L 4153 0 
L 3169 4050 
L 2175 0 
L 1381 0 
L 213 4666 
z
" transform="scale(0.015625)"/>
       <path id="DejaVuSans-6b" d="M 581 4863 
L 1159 4863 
L 1159 1991 
L 2875 3500 
L 3609 3500 
L 1753 1863 
L 3688 0 
L 2938 0 
L 1159 1709 
L 1159 0 
L 581 0 
L 581 4863 
z
" transform="scale(0.015625)"/>
       <path id="DejaVuSans-79" d="M 2059 -325 
Q 1816 -950 1584 -1140 
Q 1353 -1331 966 -1331 
L 506 -1331 
L 506 -850 
L 844 -850 
Q 1081 -850 1212 -737 
Q 1344 -625 1503 -206 
L 1606 56 
L 191 3500 
L 800 3500 
L 1894 763 
L 2988 3500 
L 3597 3500 
L 2059 -325 
z
" transform="scale(0.015625)"/>
       <path id="DejaVuSans-6d" d="M 3328 2828 
Q 3544 3216 3844 3400 
Q 4144 3584 4550 3584 
Q 5097 3584 5394 3201 
Q 5691 2819 5691 2113 
L 5691 0 
L 5113 0 
L 5113 2094 
Q 5113 2597 4934 2840 
Q 4756 3084 4391 3084 
Q 3944 3084 3684 2787 
Q 3425 2491 3425 1978 
L 3425 0 
L 2847 0 
L 2847 2094 
Q 2847 2600 2669 2842 
Q 2491 3084 2119 3084 
Q 1678 3084 1418 2786 
Q 1159 2488 1159 1978 
L 1159 0 
L 581 0 
L 581 3500 
L 1159 3500 
L 1159 2956 
Q 1356 3278 1631 3431 
Q 1906 3584 2284 3584 
Q 2666 3584 2933 3390 
Q 3200 3197 3328 2828 
z
" transform="scale(0.015625)"/>
       <path id="DejaVuSans-78" d="M 3513 3500 
L 2247 1797 
L 3578 0 
L 2900 0 
L 1881 1375 
L 863 0 
L 184 0 
L 1544 1831 
L 300 3500 
L 978 3500 
L 1906 2253 
L 2834 3500 
L 3513 3500 
z
" transform="scale(0.015625)"/>
       <path id="DejaVuSans-75" d="M 544 1381 
L 544 3500 
L 1119 3500 
L 1119 1403 
Q 1119 906 1312 657 
Q 1506 409 1894 409 
Q 2359 409 2629 706 
Q 2900 1003 2900 1516 
L 2900 3500 
L 3475 3500 
L 3475 0 
L 2900 0 
L 2900 538 
Q 2691 219 2414 64 
Q 2138 -91 1772 -91 
Q 1169 -91 856 284 
Q 544 659 544 1381 
z
M 1991 3584 
L 1991 3584 
z
" transform="scale(0.015625)"/>
      </defs>
      <use xlink:href="#DejaVuSans-57"/>
      <use xlink:href="#DejaVuSans-65" x="93.001953"/>
      <use xlink:href="#DejaVuSans-65" x="154.525391"/>
      <use xlink:href="#DejaVuSans-6b" x="216.048828"/>
      <use xlink:href="#DejaVuSans-6c" x="273.958984"/>
      <use xlink:href="#DejaVuSans-79" x="301.742188"/>
      <use xlink:href="#DejaVuSans-20" x="360.921875"/>
      <use xlink:href="#DejaVuSans-6d" x="392.708984"/>
      <use xlink:href="#DejaVuSans-61" x="490.121094"/>
      <use xlink:href="#DejaVuSans-78" x="551.400391"/>
      <use xlink:href="#DejaVuSans-69" x="610.580078"/>
      <use xlink:href="#DejaVuSans-6d" x="638.363281"/>
      <use xlink:href="#DejaVuSans-75" x="735.775391"/>
      <use xlink:href="#DejaVuSans-6d" x="799.154297"/>
     </g>
    </g>
    <g id="line2d_18">
     <path d="M 66.6 69.248563 
L 76.6 69.248563 
L 86.6 69.248563 
" style="fill: none; stroke: #ff7f0e; stroke-width: 1.5; stroke-linecap: square"/>
    </g>
    <g id="text_17">
     <!-- Weekly minimum -->
     <g transform="translate(94.6 72.748563) scale(0.1 -0.1)">
      <defs>
       <path id="DejaVuSans-6e" d="M 3513 2113 
L 3513 0 
L 2938 0 
L 2938 2094 
Q 2938 2591 2744 2837 
Q 2550 3084 2163 3084 
Q 1697 3084 1428 2787 
Q 1159 2491 1159 1978 
L 1159 0 
L 581 0 
L 581 3500 
L 1159 3500 
L 1159 2956 
Q 1366 3272 1645 3428 
Q 1925 3584 2291 3584 
Q 2894 3584 3203 3211 
Q 3513 2838 3513 2113 
z
" transform="scale(0.015625)"/>
      </defs>
      <use xlink:href="#DejaVuSans-57"/>
      <use xlink:href="#DejaVuSans-65" x="93.001953"/>
      <use xlink:href="#DejaVuSans-65" x="154.525391"/>
      <use xlink:href="#DejaVuSans-6b" x="216.048828"/>
      <use xlink:href="#DejaVuSans-6c" x="273.958984"/>
      <use xlink:href="#DejaVuSans-79" x="301.742188"/>
      <use xlink:href="#DejaVuSans-20" x="360.921875"/>
      <use xlink:href="#DejaVuSans-6d" x="392.708984"/>
      <use xlink:href="#DejaVuSans-69" x="490.121094"/>
      <use xlink:href="#DejaVuSans-6e" x="517.904297"/>
      <use xlink:href="#DejaVuSans-69" x="581.283203"/>
      <use xlink:href="#DejaVuSans-6d" x="609.066406"/>
      <use xlink:href="#DejaVuSans-75" x="706.478516"/>
      <use xlink:href="#DejaVuSans-6d" x="769.857422"/>
     </g>
    </g>
    <g id="line2d_19">
     <path d="M 66.6 83.926688 
L 76.6 83.926688 
L 86.6 83.926688 
" style="fill: none; stroke: #2ca02c; stroke-width: 1.5; stroke-linecap: square"/>
    </g>
    <g id="text_18">
     <!-- Weekly range -->
     <g transform="translate(94.6 87.426688) scale(0.1 -0.1)">
      <use xlink:href="#DejaVuSans-57"/>
      <use xlink:href="#DejaVuSans-65" x="93.001953"/>
      <use xlink:href="#DejaVuSans-65" x="154.525391"/>
      <use xlink:href="#DejaVuSans-6b" x="216.048828"/>
      <use xlink:href="#DejaVuSans-6c" x="273.958984"/>
      <use xlink:href="#DejaVuSans-79" x="301.742188"/>
      <use xlink:href="#DejaVuSans-20" x="360.921875"/>
      <use xlink:href="#DejaVuSans-72" x="392.708984"/>
      <use xlink:href="#DejaVuSans-61" x="433.822266"/>
      <use xlink:href="#DejaVuSans-6e" x="495.101562"/>
      <use xlink:href="#DejaVuSans-67" x="558.480469"/>
      <use xlink:href="#DejaVuSans-65" x="621.957031"/>
     </g>
    </g>
   </g>
  </g>
 </g>
 <defs>
  <clipPath id="p70f9964f7f">
   <rect x="57.6" y="41.472" width="357.12" height="266.112"/>
  </clipPath>
 </defs>
</svg>
