<?xml version="1.0" encoding="utf-8" standalone="no"?>
<!DOCTYPE svg PUBLIC "-//W3C//DTD SVG 1.1//EN"
  "http://www.w3.org/Graphics/SVG/1.1/DTD/svg11.dtd">
<svg xmlns:xlink="http://www.w3.org/1999/xlink" width="460.8pt" height="345.6pt" viewBox="0 0 460.8 345.6" xmlns="http://www.w3.org/2000/svg" version="1.1">
 <metadata>
  <rdf:RDF xmlns:dc="http://purl.org/dc/elements/1.1/" xmlns:cc="http://creativecommons.org/ns#" xmlns:rdf="http://www.w3.org/1999/02/22-rdf-syntax-ns#">
   <cc:Work>
    <dc:type rdf:resource="http://purl.org/dc/dcmitype/StillImage"/>
    <dc:date>2023-12-24T05:31:45.120141</dc:date>
    <dc:format>image/svg+xml</dc:format>
    <dc:creator>
     <cc:Agent>
      <dc:title>Matplotlib v3.8.2, https://matplotlib.org/</dc:title>
     </cc:Agent>
    </dc:creator>
   </cc:Work>
  </rdf:RDF>
 </metadata>
 <defs>
  <style type="text/css">*{stroke-linejoin: round; stroke-linecap: butt}</style>
 </defs>
 <g id="figure_1">
  <g id="patch_1">
   <path d="M 0 345.6 
L 460.8 345.6 
L 460.8 0 
L 0 0 
z
" style="fill: #ffffff"/>
  </g>
  <g id="axes_1">
   <g id="patch_2">
    <path d="M 57.6 307.584 
L 414.72 307.584 
L 414.72 41.472 
L 57.6 41.472 
z
" style="fill: #ffffff"/>
   </g>
   <g id="matplotlib.axis_1">
    <g id="xtick_1">
     <g id="line2d_1">
      <defs>
       <path id="mbabecead5d" d="M 0 0 
L 0 3.5 
" style="stroke: #000000; stroke-width: 0.8"/>
      </defs>
      <g>
       <use xlink:href="#mbabecead5d" x="59.651612" y="307.584" style="stroke: #000000; stroke-width: 0.8"/>
      </g>
     </g>
     <g id="text_1">
      <!-- 2008 -->
      <g transform="translate(46.926612 322.182437) scale(0.1 -0.1)">
       <defs>
        <path id="DejaVuSans-32" d="M 1228 531 
L 3431 531 
L 3431 0 
L 469 0 
L 469 531 
Q 828 903 1448 1529 
Q 2069 2156 2228 2338 
Q 2531 2678 2651 2914 
Q 2772 3150 2772 3378 
Q 2772 3750 2511 3984 
Q 2250 4219 1831 4219 
Q 1534 4219 1204 4116 
Q 875 4013 500 3803 
L 500 4441 
Q 881 4594 1212 4672 
Q 1544 4750 1819 4750 
Q 2544 4750 2975 4387 
Q 3406 4025 3406 3419 
Q 3406 3131 3298 2873 
Q 3191 2616 2906 2266 
Q 2828 2175 2409 1742 
Q 1991 1309 1228 531 
z
" transform="scale(0.015625)"/>
        <path id="DejaVuSans-30" d="M 2034 4250 
Q 1547 4250 1301 3770 
Q 1056 3291 1056 2328 
Q 1056 1369 1301 889 
Q 1547 409 2034 409 
Q 2525 409 2770 889 
Q 3016 1369 3016 2328 
Q 3016 3291 2770 3770 
Q 2525 4250 2034 4250 
z
M 2034 4750 
Q 2819 4750 3233 4129 
Q 3647 3509 3647 2328 
Q 3647 1150 3233 529 
Q 2819 -91 2034 -91 
Q 1250 -91 836 529 
Q 422 1150 422 2328 
Q 422 3509 836 4129 
Q 1250 4750 2034 4750 
z
" transform="scale(0.015625)"/>
        <path id="DejaVuSans-38" d="M 2034 2216 
Q 1584 2216 1326 1975 
Q 1069 1734 1069 1313 
Q 1069 891 1326 650 
Q 1584 409 2034 409 
Q 2484 409 2743 651 
Q 3003 894 3003 1313 
Q 3003 1734 2745 1975 
Q 2488 2216 2034 2216 
z
M 1403 2484 
Q 997 2584 770 2862 
Q 544 3141 544 3541 
Q 544 4100 942 4425 
Q 1341 4750 2034 4750 
Q 2731 4750 3128 4425 
Q 3525 4100 3525 3541 
Q 3525 3141 3298 2862 
Q 3072 2584 2669 2484 
Q 3125 2378 3379 2068 
Q 3634 1759 3634 1313 
Q 3634 634 3220 271 
Q 2806 -91 2034 -91 
Q 1263 -91 848 271 
Q 434 634 434 1313 
Q 434 1759 690 2068 
Q 947 2378 1403 2484 
z
M 1172 3481 
Q 1172 3119 1398 2916 
Q 1625 2713 2034 2713 
Q 2441 2713 2670 2916 
Q 2900 3119 2900 3481 
Q 2900 3844 2670 4047 
Q 2441 4250 2034 4250 
Q 1625 4250 1398 4047 
Q 1172 3844 1172 3481 
z
" transform="scale(0.015625)"/>
       </defs>
       <use xlink:href="#DejaVuSans-32"/>
       <use xlink:href="#DejaVuSans-30" x="63.623047"/>
       <use xlink:href="#DejaVuSans-30" x="127.246094"/>
       <use xlink:href="#DejaVuSans-38" x="190.869141"/>
      </g>
     </g>
    </g>
    <g id="xtick_2">
     <g id="line2d_2">
      <g>
       <use xlink:href="#mbabecead5d" x="102.136838" y="307.584" style="stroke: #000000; stroke-width: 0.8"/>
      </g>
     </g>
     <g id="text_2">
      <!-- 2010 -->
      <g transform="translate(89.411838 322.182437) scale(0.1 -0.1)">
       <defs>
        <path id="DejaVuSans-31" d="M 794 531 
L 1825 531 
L 1825 4091 
L 703 3866 
L 703 4441 
L 1819 4666 
L 2450 4666 
L 2450 531 
L 3481 531 
L 3481 0 
L 794 0 
L 794 531 
z
" transform="scale(0.015625)"/>
       </defs>
       <use xlink:href="#DejaVuSans-32"/>
       <use xlink:href="#DejaVuSans-30" x="63.623047"/>
       <use xlink:href="#DejaVuSans-31" x="127.246094"/>
       <use xlink:href="#DejaVuSans-30" x="190.869141"/>
      </g>
     </g>
    </g>
    <g id="xtick_3">
     <g id="line2d_3">
      <g>
       <use xlink:href="#mbabecead5d" x="144.563945" y="307.584" style="stroke: #000000; stroke-width: 0.8"/>
      </g>
     </g>
     <g id="text_3">
      <!-- 2012 -->
      <g transform="translate(131.838945 322.182437) scale(0.1 -0.1)">
       <use xlink:href="#DejaVuSans-32"/>
       <use xlink:href="#DejaVuSans-30" x="63.623047"/>
       <use xlink:href="#DejaVuSans-31" x="127.246094"/>
       <use xlink:href="#DejaVuSans-32" x="190.869141"/>
      </g>
     </g>
    </g>
    <g id="xtick_4">
     <g id="line2d_4">
      <g>
       <use xlink:href="#mbabecead5d" x="187.049171" y="307.584" style="stroke: #000000; stroke-width: 0.8"/>
      </g>
     </g>
     <g id="text_4">
      <!-- 2014 -->
      <g transform="translate(174.324171 322.182437) scale(0.1 -0.1)">
       <defs>
        <path id="DejaVuSans-34" d="M 2419 4116 
L 825 1625 
L 2419 1625 
L 2419 4116 
z
M 2253 4666 
L 3047 4666 
L 3047 1625 
L 3713 1625 
L 3713 1100 
L 3047 1100 
L 3047 0 
L 2419 0 
L 2419 1100 
L 313 1100 
L 313 1709 
L 2253 4666 
z
" transform="scale(0.015625)"/>
       </defs>
       <use xlink:href="#DejaVuSans-32"/>
       <use xlink:href="#DejaVuSans-30" x="63.623047"/>
       <use xlink:href="#DejaVuSans-31" x="127.246094"/>
       <use xlink:href="#DejaVuSans-34" x="190.869141"/>
      </g>
     </g>
    </g>
    <g id="xtick_5">
     <g id="line2d_5">
      <g>
       <use xlink:href="#mbabecead5d" x="229.476278" y="307.584" style="stroke: #000000; stroke-width: 0.8"/>
      </g>
     </g>
     <g id="text_5">
      <!-- 2016 -->
      <g transform="translate(216.751278 322.182437) scale(0.1 -0.1)">
       <defs>
        <path id="DejaVuSans-36" d="M 2113 2584 
Q 1688 2584 1439 2293 
Q 1191 2003 1191 1497 
Q 1191 994 1439 701 
Q 1688 409 2113 409 
Q 2538 409 2786 701 
Q 3034 994 3034 1497 
Q 3034 2003 2786 2293 
Q 2538 2584 2113 2584 
z
M 3366 4563 
L 3366 3988 
Q 3128 4100 2886 4159 
Q 2644 4219 2406 4219 
Q 1781 4219 1451 3797 
Q 1122 3375 1075 2522 
Q 1259 2794 1537 2939 
Q 1816 3084 2150 3084 
Q 2853 3084 3261 2657 
Q 3669 2231 3669 1497 
Q 3669 778 3244 343 
Q 2819 -91 2113 -91 
Q 1303 -91 875 529 
Q 447 1150 447 2328 
Q 447 3434 972 4092 
Q 1497 4750 2381 4750 
Q 2619 4750 2861 4703 
Q 3103 4656 3366 4563 
z
" transform="scale(0.015625)"/>
       </defs>
       <use xlink:href="#DejaVuSans-32"/>
       <use xlink:href="#DejaVuSans-30" x="63.623047"/>
       <use xlink:href="#DejaVuSans-31" x="127.246094"/>
       <use xlink:href="#DejaVuSans-36" x="190.869141"/>
      </g>
     </g>
    </g>
    <g id="xtick_6">
     <g id="line2d_6">
      <g>
       <use xlink:href="#mbabecead5d" x="271.961504" y="307.584" style="stroke: #000000; stroke-width: 0.8"/>
      </g>
     </g>
     <g id="text_6">
      <!-- 2018 -->
      <g transform="translate(259.236504 322.182437) scale(0.1 -0.1)">
       <use xlink:href="#DejaVuSans-32"/>
       <use xlink:href="#DejaVuSans-30" x="63.623047"/>
       <use xlink:href="#DejaVuSans-31" x="127.246094"/>
       <use xlink:href="#DejaVuSans-38" x="190.869141"/>
      </g>
     </g>
    </g>
    <g id="xtick_7">
     <g id="line2d_7">
      <g>
       <use xlink:href="#mbabecead5d" x="314.38861" y="307.584" style="stroke: #000000; stroke-width: 0.8"/>
      </g>
     </g>
     <g id="text_7">
      <!-- 2020 -->
      <g transform="translate(301.66361 322.182437) scale(0.1 -0.1)">
       <use xlink:href="#DejaVuSans-32"/>
       <use xlink:href="#DejaVuSans-30" x="63.623047"/>
       <use xlink:href="#DejaVuSans-32" x="127.246094"/>
       <use xlink:href="#DejaVuSans-30" x="190.869141"/>
      </g>
     </g>
    </g>
    <g id="xtick_8">
     <g id="line2d_8">
      <g>
       <use xlink:href="#mbabecead5d" x="356.873837" y="307.584" style="stroke: #000000; stroke-width: 0.8"/>
      </g>
     </g>
     <g id="text_8">
      <!-- 2022 -->
      <g transform="translate(344.148837 322.182437) scale(0.1 -0.1)">
       <use xlink:href="#DejaVuSans-32"/>
       <use xlink:href="#DejaVuSans-30" x="63.623047"/>
       <use xlink:href="#DejaVuSans-32" x="127.246094"/>
       <use xlink:href="#DejaVuSans-32" x="190.869141"/>
      </g>
     </g>
    </g>
    <g id="xtick_9">
     <g id="line2d_9">
      <g>
       <use xlink:href="#mbabecead5d" x="399.300943" y="307.584" style="stroke: #000000; stroke-width: 0.8"/>
      </g>
     </g>
     <g id="text_9">
      <!-- 2024 -->
      <g transform="translate(386.575943 322.182437) scale(0.1 -0.1)">
       <use xlink:href="#DejaVuSans-32"/>
       <use xlink:href="#DejaVuSans-30" x="63.623047"/>
       <use xlink:href="#DejaVuSans-32" x="127.246094"/>
       <use xlink:href="#DejaVuSans-34" x="190.869141"/>
      </g>
     </g>
    </g>
    <g id="text_10">
     <!-- Updated 2023-12-24 05:31:45.118801 - Last record 2023-12-22 -->
     <g transform="translate(75.905312 335.860562) scale(0.1 -0.1)">
      <defs>
       <path id="DejaVuSans-55" d="M 556 4666 
L 1191 4666 
L 1191 1831 
Q 1191 1081 1462 751 
Q 1734 422 2344 422 
Q 2950 422 3222 751 
Q 3494 1081 3494 1831 
L 3494 4666 
L 4128 4666 
L 4128 1753 
Q 4128 841 3676 375 
Q 3225 -91 2344 -91 
Q 1459 -91 1007 375 
Q 556 841 556 1753 
L 556 4666 
z
" transform="scale(0.015625)"/>
       <path id="DejaVuSans-70" d="M 1159 525 
L 1159 -1331 
L 581 -1331 
L 581 3500 
L 1159 3500 
L 1159 2969 
Q 1341 3281 1617 3432 
Q 1894 3584 2278 3584 
Q 2916 3584 3314 3078 
Q 3713 2572 3713 1747 
Q 3713 922 3314 415 
Q 2916 -91 2278 -91 
Q 1894 -91 1617 61 
Q 1341 213 1159 525 
z
M 3116 1747 
Q 3116 2381 2855 2742 
Q 2594 3103 2138 3103 
Q 1681 3103 1420 2742 
Q 1159 2381 1159 1747 
Q 1159 1113 1420 752 
Q 1681 391 2138 391 
Q 2594 391 2855 752 
Q 3116 1113 3116 1747 
z
" transform="scale(0.015625)"/>
       <path id="DejaVuSans-64" d="M 2906 2969 
L 2906 4863 
L 3481 4863 
L 3481 0 
L 2906 0 
L 2906 525 
Q 2725 213 2448 61 
Q 2172 -91 1784 -91 
Q 1150 -91 751 415 
Q 353 922 353 1747 
Q 353 2572 751 3078 
Q 1150 3584 1784 3584 
Q 2172 3584 2448 3432 
Q 2725 3281 2906 2969 
z
M 947 1747 
Q 947 1113 1208 752 
Q 1469 391 1925 391 
Q 2381 391 2643 752 
Q 2906 1113 2906 1747 
Q 2906 2381 2643 2742 
Q 2381 3103 1925 3103 
Q 1469 3103 1208 2742 
Q 947 2381 947 1747 
z
" transform="scale(0.015625)"/>
       <path id="DejaVuSans-61" d="M 2194 1759 
Q 1497 1759 1228 1600 
Q 959 1441 959 1056 
Q 959 750 1161 570 
Q 1363 391 1709 391 
Q 2188 391 2477 730 
Q 2766 1069 2766 1631 
L 2766 1759 
L 2194 1759 
z
M 3341 1997 
L 3341 0 
L 2766 0 
L 2766 531 
Q 2569 213 2275 61 
Q 1981 -91 1556 -91 
Q 1019 -91 701 211 
Q 384 513 384 1019 
Q 384 1609 779 1909 
Q 1175 2209 1959 2209 
L 2766 2209 
L 2766 2266 
Q 2766 2663 2505 2880 
Q 2244 3097 1772 3097 
Q 1472 3097 1187 3025 
Q 903 2953 641 2809 
L 641 3341 
Q 956 3463 1253 3523 
Q 1550 3584 1831 3584 
Q 2591 3584 2966 3190 
Q 3341 2797 3341 1997 
z
" transform="scale(0.015625)"/>
       <path id="DejaVuSans-74" d="M 1172 4494 
L 1172 3500 
L 2356 3500 
L 2356 3053 
L 1172 3053 
L 1172 1153 
Q 1172 725 1289 603 
Q 1406 481 1766 481 
L 2356 481 
L 2356 0 
L 1766 0 
Q 1100 0 847 248 
Q 594 497 594 1153 
L 594 3053 
L 172 3053 
L 172 3500 
L 594 3500 
L 594 4494 
L 1172 4494 
z
" transform="scale(0.015625)"/>
       <path id="DejaVuSans-65" d="M 3597 1894 
L 3597 1613 
L 953 1613 
Q 991 1019 1311 708 
Q 1631 397 2203 397 
Q 2534 397 2845 478 
Q 3156 559 3463 722 
L 3463 178 
Q 3153 47 2828 -22 
Q 2503 -91 2169 -91 
Q 1331 -91 842 396 
Q 353 884 353 1716 
Q 353 2575 817 3079 
Q 1281 3584 2069 3584 
Q 2775 3584 3186 3129 
Q 3597 2675 3597 1894 
z
M 3022 2063 
Q 3016 2534 2758 2815 
Q 2500 3097 2075 3097 
Q 1594 3097 1305 2825 
Q 1016 2553 972 2059 
L 3022 2063 
z
" transform="scale(0.015625)"/>
       <path id="DejaVuSans-20" transform="scale(0.015625)"/>
       <path id="DejaVuSans-33" d="M 2597 2516 
Q 3050 2419 3304 2112 
Q 3559 1806 3559 1356 
Q 3559 666 3084 287 
Q 2609 -91 1734 -91 
Q 1441 -91 1130 -33 
Q 819 25 488 141 
L 488 750 
Q 750 597 1062 519 
Q 1375 441 1716 441 
Q 2309 441 2620 675 
Q 2931 909 2931 1356 
Q 2931 1769 2642 2001 
Q 2353 2234 1838 2234 
L 1294 2234 
L 1294 2753 
L 1863 2753 
Q 2328 2753 2575 2939 
Q 2822 3125 2822 3475 
Q 2822 3834 2567 4026 
Q 2313 4219 1838 4219 
Q 1578 4219 1281 4162 
Q 984 4106 628 3988 
L 628 4550 
Q 988 4650 1302 4700 
Q 1616 4750 1894 4750 
Q 2613 4750 3031 4423 
Q 3450 4097 3450 3541 
Q 3450 3153 3228 2886 
Q 3006 2619 2597 2516 
z
" transform="scale(0.015625)"/>
       <path id="DejaVuSans-2d" d="M 313 2009 
L 1997 2009 
L 1997 1497 
L 313 1497 
L 313 2009 
z
" transform="scale(0.015625)"/>
       <path id="DejaVuSans-35" d="M 691 4666 
L 3169 4666 
L 3169 4134 
L 1269 4134 
L 1269 2991 
Q 1406 3038 1543 3061 
Q 1681 3084 1819 3084 
Q 2600 3084 3056 2656 
Q 3513 2228 3513 1497 
Q 3513 744 3044 326 
Q 2575 -91 1722 -91 
Q 1428 -91 1123 -41 
Q 819 9 494 109 
L 494 744 
Q 775 591 1075 516 
Q 1375 441 1709 441 
Q 2250 441 2565 725 
Q 2881 1009 2881 1497 
Q 2881 1984 2565 2268 
Q 2250 2553 1709 2553 
Q 1456 2553 1204 2497 
Q 953 2441 691 2322 
L 691 4666 
z
" transform="scale(0.015625)"/>
       <path id="DejaVuSans-3a" d="M 750 794 
L 1409 794 
L 1409 0 
L 750 0 
L 750 794 
z
M 750 3309 
L 1409 3309 
L 1409 2516 
L 750 2516 
L 750 3309 
z
" transform="scale(0.015625)"/>
       <path id="DejaVuSans-2e" d="M 684 794 
L 1344 794 
L 1344 0 
L 684 0 
L 684 794 
z
" transform="scale(0.015625)"/>
       <path id="DejaVuSans-4c" d="M 628 4666 
L 1259 4666 
L 1259 531 
L 3531 531 
L 3531 0 
L 628 0 
L 628 4666 
z
" transform="scale(0.015625)"/>
       <path id="DejaVuSans-73" d="M 2834 3397 
L 2834 2853 
Q 2591 2978 2328 3040 
Q 2066 3103 1784 3103 
Q 1356 3103 1142 2972 
Q 928 2841 928 2578 
Q 928 2378 1081 2264 
Q 1234 2150 1697 2047 
L 1894 2003 
Q 2506 1872 2764 1633 
Q 3022 1394 3022 966 
Q 3022 478 2636 193 
Q 2250 -91 1575 -91 
Q 1294 -91 989 -36 
Q 684 19 347 128 
L 347 722 
Q 666 556 975 473 
Q 1284 391 1588 391 
Q 1994 391 2212 530 
Q 2431 669 2431 922 
Q 2431 1156 2273 1281 
Q 2116 1406 1581 1522 
L 1381 1569 
Q 847 1681 609 1914 
Q 372 2147 372 2553 
Q 372 3047 722 3315 
Q 1072 3584 1716 3584 
Q 2034 3584 2315 3537 
Q 2597 3491 2834 3397 
z
" transform="scale(0.015625)"/>
       <path id="DejaVuSans-72" d="M 2631 2963 
Q 2534 3019 2420 3045 
Q 2306 3072 2169 3072 
Q 1681 3072 1420 2755 
Q 1159 2438 1159 1844 
L 1159 0 
L 581 0 
L 581 3500 
L 1159 3500 
L 1159 2956 
Q 1341 3275 1631 3429 
Q 1922 3584 2338 3584 
Q 2397 3584 2469 3576 
Q 2541 3569 2628 3553 
L 2631 2963 
z
" transform="scale(0.015625)"/>
       <path id="DejaVuSans-63" d="M 3122 3366 
L 3122 2828 
Q 2878 2963 2633 3030 
Q 2388 3097 2138 3097 
Q 1578 3097 1268 2742 
Q 959 2388 959 1747 
Q 959 1106 1268 751 
Q 1578 397 2138 397 
Q 2388 397 2633 464 
Q 2878 531 3122 666 
L 3122 134 
Q 2881 22 2623 -34 
Q 2366 -91 2075 -91 
Q 1284 -91 818 406 
Q 353 903 353 1747 
Q 353 2603 823 3093 
Q 1294 3584 2113 3584 
Q 2378 3584 2631 3529 
Q 2884 3475 3122 3366 
z
" transform="scale(0.015625)"/>
       <path id="DejaVuSans-6f" d="M 1959 3097 
Q 1497 3097 1228 2736 
Q 959 2375 959 1747 
Q 959 1119 1226 758 
Q 1494 397 1959 397 
Q 2419 397 2687 759 
Q 2956 1122 2956 1747 
Q 2956 2369 2687 2733 
Q 2419 3097 1959 3097 
z
M 1959 3584 
Q 2709 3584 3137 3096 
Q 3566 2609 3566 1747 
Q 3566 888 3137 398 
Q 2709 -91 1959 -91 
Q 1206 -91 779 398 
Q 353 888 353 1747 
Q 353 2609 779 3096 
Q 1206 3584 1959 3584 
z
" transform="scale(0.015625)"/>
      </defs>
      <use xlink:href="#DejaVuSans-55"/>
      <use xlink:href="#DejaVuSans-70" x="73.193359"/>
      <use xlink:href="#DejaVuSans-64" x="136.669922"/>
      <use xlink:href="#DejaVuSans-61" x="200.146484"/>
      <use xlink:href="#DejaVuSans-74" x="261.425781"/>
      <use xlink:href="#DejaVuSans-65" x="300.634766"/>
      <use xlink:href="#DejaVuSans-64" x="362.158203"/>
      <use xlink:href="#DejaVuSans-20" x="425.634766"/>
      <use xlink:href="#DejaVuSans-32" x="457.421875"/>
      <use xlink:href="#DejaVuSans-30" x="521.044922"/>
      <use xlink:href="#DejaVuSans-32" x="584.667969"/>
      <use xlink:href="#DejaVuSans-33" x="648.291016"/>
      <use xlink:href="#DejaVuSans-2d" x="711.914062"/>
      <use xlink:href="#DejaVuSans-31" x="747.998047"/>
      <use xlink:href="#DejaVuSans-32" x="811.621094"/>
      <use xlink:href="#DejaVuSans-2d" x="875.244141"/>
      <use xlink:href="#DejaVuSans-32" x="911.328125"/>
      <use xlink:href="#DejaVuSans-34" x="974.951172"/>
      <use xlink:href="#DejaVuSans-20" x="1038.574219"/>
      <use xlink:href="#DejaVuSans-30" x="1070.361328"/>
      <use xlink:href="#DejaVuSans-35" x="1133.984375"/>
      <use xlink:href="#DejaVuSans-3a" x="1197.607422"/>
      <use xlink:href="#DejaVuSans-33" x="1231.298828"/>
      <use xlink:href="#DejaVuSans-31" x="1294.921875"/>
      <use xlink:href="#DejaVuSans-3a" x="1358.544922"/>
      <use xlink:href="#DejaVuSans-34" x="1392.236328"/>
      <use xlink:href="#DejaVuSans-35" x="1455.859375"/>
      <use xlink:href="#DejaVuSans-2e" x="1519.482422"/>
      <use xlink:href="#DejaVuSans-31" x="1551.269531"/>
      <use xlink:href="#DejaVuSans-31" x="1614.892578"/>
      <use xlink:href="#DejaVuSans-38" x="1678.515625"/>
      <use xlink:href="#DejaVuSans-38" x="1742.138672"/>
      <use xlink:href="#DejaVuSans-30" x="1805.761719"/>
      <use xlink:href="#DejaVuSans-31" x="1869.384766"/>
      <use xlink:href="#DejaVuSans-20" x="1933.007812"/>
      <use xlink:href="#DejaVuSans-2d" x="1964.794922"/>
      <use xlink:href="#DejaVuSans-20" x="2000.878906"/>
      <use xlink:href="#DejaVuSans-4c" x="2032.666016"/>
      <use xlink:href="#DejaVuSans-61" x="2088.378906"/>
      <use xlink:href="#DejaVuSans-73" x="2149.658203"/>
      <use xlink:href="#DejaVuSans-74" x="2201.757812"/>
      <use xlink:href="#DejaVuSans-20" x="2240.966797"/>
      <use xlink:href="#DejaVuSans-72" x="2272.753906"/>
      <use xlink:href="#DejaVuSans-65" x="2311.617188"/>
      <use xlink:href="#DejaVuSans-63" x="2373.140625"/>
      <use xlink:href="#DejaVuSans-6f" x="2428.121094"/>
      <use xlink:href="#DejaVuSans-72" x="2489.302734"/>
      <use xlink:href="#DejaVuSans-64" x="2528.666016"/>
      <use xlink:href="#DejaVuSans-20" x="2592.142578"/>
      <use xlink:href="#DejaVuSans-32" x="2623.929688"/>
      <use xlink:href="#DejaVuSans-30" x="2687.552734"/>
      <use xlink:href="#DejaVuSans-32" x="2751.175781"/>
      <use xlink:href="#DejaVuSans-33" x="2814.798828"/>
      <use xlink:href="#DejaVuSans-2d" x="2878.421875"/>
      <use xlink:href="#DejaVuSans-31" x="2914.505859"/>
      <use xlink:href="#DejaVuSans-32" x="2978.128906"/>
      <use xlink:href="#DejaVuSans-2d" x="3041.751953"/>
      <use xlink:href="#DejaVuSans-32" x="3077.835938"/>
      <use xlink:href="#DejaVuSans-32" x="3141.458984"/>
     </g>
    </g>
   </g>
   <g id="matplotlib.axis_2">
    <g id="ytick_1">
     <g id="line2d_10">
      <defs>
       <path id="m3afa3c98bc" d="M 0 0 
L -3.5 0 
" style="stroke: #000000; stroke-width: 0.8"/>
      </defs>
      <g>
       <use xlink:href="#m3afa3c98bc" x="57.6" y="295.562288" style="stroke: #000000; stroke-width: 0.8"/>
      </g>
     </g>
     <g id="text_11">
      <!-- 0 -->
      <g transform="translate(44.2375 299.361506) scale(0.1 -0.1)">
       <use xlink:href="#DejaVuSans-30"/>
      </g>
     </g>
    </g>
    <g id="ytick_2">
     <g id="line2d_11">
      <g>
       <use xlink:href="#m3afa3c98bc" x="57.6" y="242.117871" style="stroke: #000000; stroke-width: 0.8"/>
      </g>
     </g>
     <g id="text_12">
      <!-- 10 -->
      <g transform="translate(37.875 245.91709) scale(0.1 -0.1)">
       <use xlink:href="#DejaVuSans-31"/>
       <use xlink:href="#DejaVuSans-30" x="63.623047"/>
      </g>
     </g>
    </g>
    <g id="ytick_3">
     <g id="line2d_12">
      <g>
       <use xlink:href="#m3afa3c98bc" x="57.6" y="188.673454" style="stroke: #000000; stroke-width: 0.8"/>
      </g>
     </g>
     <g id="text_13">
      <!-- 20 -->
      <g transform="translate(37.875 192.472673) scale(0.1 -0.1)">
       <use xlink:href="#DejaVuSans-32"/>
       <use xlink:href="#DejaVuSans-30" x="63.623047"/>
      </g>
     </g>
    </g>
    <g id="ytick_4">
     <g id="line2d_13">
      <g>
       <use xlink:href="#m3afa3c98bc" x="57.6" y="135.229038" style="stroke: #000000; stroke-width: 0.8"/>
      </g>
     </g>
     <g id="text_14">
      <!-- 30 -->
      <g transform="translate(37.875 139.028257) scale(0.1 -0.1)">
       <use xlink:href="#DejaVuSans-33"/>
       <use xlink:href="#DejaVuSans-30" x="63.623047"/>
      </g>
     </g>
    </g>
    <g id="ytick_5">
     <g id="line2d_14">
      <g>
       <use xlink:href="#m3afa3c98bc" x="57.6" y="81.784621" style="stroke: #000000; stroke-width: 0.8"/>
      </g>
     </g>
     <g id="text_15">
      <!-- 40 -->
      <g transform="translate(37.875 85.58384) scale(0.1 -0.1)">
       <use xlink:href="#DejaVuSans-34"/>
       <use xlink:href="#DejaVuSans-30" x="63.623047"/>
      </g>
     </g>
    </g>
    <g id="text_16">
     <!-- IPv6 as % of total Google traffic -->
     <g transform="translate(31.795312 253.735813) rotate(-90) scale(0.1 -0.1)">
      <defs>
       <path id="DejaVuSans-49" d="M 628 4666 
L 1259 4666 
L 1259 0 
L 628 0 
L 628 4666 
z
" transform="scale(0.015625)"/>
       <path id="DejaVuSans-50" d="M 1259 4147 
L 1259 2394 
L 2053 2394 
Q 2494 2394 2734 2622 
Q 2975 2850 2975 3272 
Q 2975 3691 2734 3919 
Q 2494 4147 2053 4147 
L 1259 4147 
z
M 628 4666 
L 2053 4666 
Q 2838 4666 3239 4311 
Q 3641 3956 3641 3272 
Q 3641 2581 3239 2228 
Q 2838 1875 2053 1875 
L 1259 1875 
L 1259 0 
L 628 0 
L 628 4666 
z
" transform="scale(0.015625)"/>
       <path id="DejaVuSans-76" d="M 191 3500 
L 800 3500 
L 1894 563 
L 2988 3500 
L 3597 3500 
L 2284 0 
L 1503 0 
L 191 3500 
z
" transform="scale(0.015625)"/>
       <path id="DejaVuSans-25" d="M 4653 2053 
Q 4381 2053 4226 1822 
Q 4072 1591 4072 1178 
Q 4072 772 4226 539 
Q 4381 306 4653 306 
Q 4919 306 5073 539 
Q 5228 772 5228 1178 
Q 5228 1588 5073 1820 
Q 4919 2053 4653 2053 
z
M 4653 2450 
Q 5147 2450 5437 2106 
Q 5728 1763 5728 1178 
Q 5728 594 5436 251 
Q 5144 -91 4653 -91 
Q 4153 -91 3862 251 
Q 3572 594 3572 1178 
Q 3572 1766 3864 2108 
Q 4156 2450 4653 2450 
z
M 1428 4353 
Q 1159 4353 1004 4120 
Q 850 3888 850 3481 
Q 850 3069 1003 2837 
Q 1156 2606 1428 2606 
Q 1700 2606 1854 2837 
Q 2009 3069 2009 3481 
Q 2009 3884 1853 4118 
Q 1697 4353 1428 4353 
z
M 4250 4750 
L 4750 4750 
L 1831 -91 
L 1331 -91 
L 4250 4750 
z
M 1428 4750 
Q 1922 4750 2215 4408 
Q 2509 4066 2509 3481 
Q 2509 2891 2217 2550 
Q 1925 2209 1428 2209 
Q 931 2209 642 2551 
Q 353 2894 353 3481 
Q 353 4063 643 4406 
Q 934 4750 1428 4750 
z
" transform="scale(0.015625)"/>
       <path id="DejaVuSans-66" d="M 2375 4863 
L 2375 4384 
L 1825 4384 
Q 1516 4384 1395 4259 
Q 1275 4134 1275 3809 
L 1275 3500 
L 2222 3500 
L 2222 3053 
L 1275 3053 
L 1275 0 
L 697 0 
L 697 3053 
L 147 3053 
L 147 3500 
L 697 3500 
L 697 3744 
Q 697 4328 969 4595 
Q 1241 4863 1831 4863 
L 2375 4863 
z
" transform="scale(0.015625)"/>
       <path id="DejaVuSans-6c" d="M 603 4863 
L 1178 4863 
L 1178 0 
L 603 0 
L 603 4863 
z
" transform="scale(0.015625)"/>
       <path id="DejaVuSans-47" d="M 3809 666 
L 3809 1919 
L 2778 1919 
L 2778 2438 
L 4434 2438 
L 4434 434 
Q 4069 175 3628 42 
Q 3188 -91 2688 -91 
Q 1594 -91 976 548 
Q 359 1188 359 2328 
Q 359 3472 976 4111 
Q 1594 4750 2688 4750 
Q 3144 4750 3555 4637 
Q 3966 4525 4313 4306 
L 4313 3634 
Q 3963 3931 3569 4081 
Q 3175 4231 2741 4231 
Q 1884 4231 1454 3753 
Q 1025 3275 1025 2328 
Q 1025 1384 1454 906 
Q 1884 428 2741 428 
Q 3075 428 3337 486 
Q 3600 544 3809 666 
z
" transform="scale(0.015625)"/>
       <path id="DejaVuSans-67" d="M 2906 1791 
Q 2906 2416 2648 2759 
Q 2391 3103 1925 3103 
Q 1463 3103 1205 2759 
Q 947 2416 947 1791 
Q 947 1169 1205 825 
Q 1463 481 1925 481 
Q 2391 481 2648 825 
Q 2906 1169 2906 1791 
z
M 3481 434 
Q 3481 -459 3084 -895 
Q 2688 -1331 1869 -1331 
Q 1566 -1331 1297 -1286 
Q 1028 -1241 775 -1147 
L 775 -588 
Q 1028 -725 1275 -790 
Q 1522 -856 1778 -856 
Q 2344 -856 2625 -561 
Q 2906 -266 2906 331 
L 2906 616 
Q 2728 306 2450 153 
Q 2172 0 1784 0 
Q 1141 0 747 490 
Q 353 981 353 1791 
Q 353 2603 747 3093 
Q 1141 3584 1784 3584 
Q 2172 3584 2450 3431 
Q 2728 3278 2906 2969 
L 2906 3500 
L 3481 3500 
L 3481 434 
z
" transform="scale(0.015625)"/>
       <path id="DejaVuSans-69" d="M 603 3500 
L 1178 3500 
L 1178 0 
L 603 0 
L 603 3500 
z
M 603 4863 
L 1178 4863 
L 1178 4134 
L 603 4134 
L 603 4863 
z
" transform="scale(0.015625)"/>
      </defs>
      <use xlink:href="#DejaVuSans-49"/>
      <use xlink:href="#DejaVuSans-50" x="29.492188"/>
      <use xlink:href="#DejaVuSans-76" x="89.794922"/>
      <use xlink:href="#DejaVuSans-36" x="148.974609"/>
      <use xlink:href="#DejaVuSans-20" x="212.597656"/>
      <use xlink:href="#DejaVuSans-61" x="244.384766"/>
      <use xlink:href="#DejaVuSans-73" x="305.664062"/>
      <use xlink:href="#DejaVuSans-20" x="357.763672"/>
      <use xlink:href="#DejaVuSans-25" x="389.550781"/>
      <use xlink:href="#DejaVuSans-20" x="484.570312"/>
      <use xlink:href="#DejaVuSans-6f" x="516.357422"/>
      <use xlink:href="#DejaVuSans-66" x="577.539062"/>
      <use xlink:href="#DejaVuSans-20" x="612.744141"/>
      <use xlink:href="#DejaVuSans-74" x="644.53125"/>
      <use xlink:href="#DejaVuSans-6f" x="683.740234"/>
      <use xlink:href="#DejaVuSans-74" x="744.921875"/>
      <use xlink:href="#DejaVuSans-61" x="784.130859"/>
      <use xlink:href="#DejaVuSans-6c" x="845.410156"/>
      <use xlink:href="#DejaVuSans-20" x="873.193359"/>
      <use xlink:href="#DejaVuSans-47" x="904.980469"/>
      <use xlink:href="#DejaVuSans-6f" x="982.470703"/>
      <use xlink:href="#DejaVuSans-6f" x="1043.652344"/>
      <use xlink:href="#DejaVuSans-67" x="1104.833984"/>
      <use xlink:href="#DejaVuSans-6c" x="1168.310547"/>
      <use xlink:href="#DejaVuSans-65" x="1196.09375"/>
      <use xlink:href="#DejaVuSans-20" x="1257.617188"/>
      <use xlink:href="#DejaVuSans-74" x="1289.404297"/>
      <use xlink:href="#DejaVuSans-72" x="1328.613281"/>
      <use xlink:href="#DejaVuSans-61" x="1369.726562"/>
      <use xlink:href="#DejaVuSans-66" x="1431.005859"/>
      <use xlink:href="#DejaVuSans-66" x="1466.210938"/>
      <use xlink:href="#DejaVuSans-69" x="1501.416016"/>
      <use xlink:href="#DejaVuSans-63" x="1529.199219"/>
     </g>
    </g>
   </g>
   <g id="line2d_15">
    <path d="M 73.832727 294.588568 
L 75.460068 294.423537 
L 75.866904 294.580685 
L 77.494245 294.579995 
L 79.121586 294.436748 
L 79.528421 294.310074 
L 80.748927 294.331089 
L 82.783103 294.317829 
L 83.596774 294.258479 
L 84.410444 294.255246 
L 85.63095 294.283021 
L 87.258291 294.207568 
L 90.512973 294.272989 
L 90.919809 294.375806 
L 92.953985 294.350826 
L 94.174491 294.301753 
L 95.801832 294.205826 
L 96.615502 294.214585 
L 97.022338 293.954396 
L 99.463349 293.865144 
L 100.27702 293.830897 
L 102.311196 293.913731 
L 104.345373 293.964182 
L 106.379549 293.931442 
L 107.600055 294.120988 
L 108.82056 294.068602 
L 109.227396 294.05499 
L 110.041066 294.239266 
L 112.075243 294.256106 
L 113.295748 294.371845 
L 115.329925 294.285132 
L 116.143595 294.180108 
L 116.550431 294.093539 
L 117.364101 294.089274 
L 120.211948 294.02637 
L 121.025619 294.117017 
L 121.432454 293.989333 
L 123.873465 294.226167 
L 127.128148 294.055551 
L 127.534983 294.061259 
L 127.941818 293.939726 
L 128.755489 294.041383 
L 129.569159 293.852692 
L 129.975995 293.8996 
L 130.38283 293.783759 
L 130.789665 293.834478 
L 131.603336 293.726686 
L 132.823841 293.711342 
L 133.230677 293.844338 
L 134.858018 293.874379 
L 135.671688 293.88866 
L 136.078524 293.850891 
L 136.485359 293.675411 
L 138.1127 293.579313 
L 138.519535 293.675037 
L 142.181053 293.358828 
L 142.994723 293.16344 
L 143.808394 293.311038 
L 146.656241 292.910638 
L 147.063076 292.841219 
L 147.469911 292.94823 
L 148.690417 292.583515 
L 149.097252 292.662276 
L 149.504087 292.481351 
L 151.945099 292.106839 
L 153.979275 291.626229 
L 155.199781 291.502677 
L 155.606617 291.603601 
L 157.640793 291.223996 
L 158.861299 290.848923 
L 159.268134 290.90567 
L 159.674969 290.56896 
L 160.081805 290.406537 
L 161.709146 290.210695 
L 162.115981 290.368629 
L 162.929651 290.177886 
L 163.336487 290.130571 
L 163.743322 289.884968 
L 164.556992 289.721086 
L 166.184334 289.704015 
L 166.998004 289.494658 
L 168.21851 289.340396 
L 168.625345 289.138702 
L 169.03218 289.119248 
L 169.439016 289.223539 
L 171.066357 288.469519 
L 171.473192 288.486792 
L 173.100533 288.012655 
L 173.507368 287.694906 
L 173.914204 287.622003 
L 174.321039 287.425365 
L 174.727874 287.457389 
L 175.94838 286.974524 
L 176.355215 287.059906 
L 176.762051 286.822234 
L 177.168886 286.780462 
L 179.203062 285.663874 
L 180.016733 285.323941 
L 180.830403 284.728591 
L 182.050909 283.257202 
L 182.457744 283.491562 
L 182.86458 283.532105 
L 184.085085 282.134223 
L 184.491921 281.966605 
L 184.898756 281.260033 
L 185.712427 281.039623 
L 186.526097 280.569317 
L 186.932932 280.618331 
L 188.153438 279.846749 
L 188.560273 279.682867 
L 188.967109 279.379794 
L 189.780779 279.307981 
L 190.187614 278.621412 
L 190.59445 278.612364 
L 191.001285 277.857531 
L 191.40812 277.466607 
L 192.221791 277.578808 
L 192.628626 277.299337 
L 193.035461 276.868836 
L 193.849132 276.367699 
L 194.255967 275.919696 
L 194.662802 276.194368 
L 196.290144 275.315373 
L 196.696979 274.990361 
L 197.103814 273.654769 
L 197.510649 273.908123 
L 198.32432 273.001192 
L 198.731155 272.962253 
L 199.13799 273.354326 
L 200.358496 272.4622 
L 200.765332 271.856974 
L 201.579002 271.903636 
L 201.985837 271.248766 
L 202.392673 271.203691 
L 202.799508 267.73433 
L 203.206343 270.01699 
L 203.613178 271.376808 
L 204.020014 270.716059 
L 204.426849 270.346816 
L 204.833684 270.287311 
L 205.240519 269.418289 
L 205.647355 269.14599 
L 206.867861 267.259803 
L 207.274696 266.028235 
L 207.681531 265.325291 
L 208.088366 264.37094 
L 208.495202 263.740841 
L 208.902037 264.747135 
L 209.308872 264.593135 
L 209.715707 264.620995 
L 210.122543 264.783557 
L 210.529378 265.0871 
L 210.936213 264.971292 
L 211.343049 262.75205 
L 211.749884 263.080305 
L 212.97039 261.910909 
L 213.377225 261.753515 
L 214.190895 261.822715 
L 214.597731 260.145159 
L 215.004566 260.084062 
L 215.818237 258.760174 
L 216.225072 259.211539 
L 216.631907 257.145212 
L 217.038742 257.633619 
L 217.445578 256.238725 
L 217.852413 255.570777 
L 218.259248 254.567828 
L 218.666083 255.264316 
L 219.072919 254.209275 
L 219.479754 252.454085 
L 219.886589 253.338537 
L 220.293424 253.590672 
L 220.70026 253.045849 
L 221.107095 251.440966 
L 221.51393 251.886773 
L 221.920766 250.469822 
L 222.327601 250.796229 
L 223.141271 248.885142 
L 223.548107 247.917034 
L 224.768612 247.613085 
L 225.175448 246.49522 
L 225.582283 246.631252 
L 225.989118 246.211906 
L 226.395954 245.103976 
L 226.802789 244.822779 
L 227.209624 243.583958 
L 227.616459 242.734705 
L 228.023295 242.585034 
L 228.43013 242.794071 
L 228.836965 242.2537 
L 229.2438 239.951742 
L 230.057471 241.301994 
L 230.464306 241.042618 
L 231.277977 240.964893 
L 231.684812 241.010626 
L 232.498483 240.732886 
L 232.905318 239.437724 
L 233.312153 239.376413 
L 233.718988 238.227802 
L 234.125824 238.224574 
L 234.532659 238.050088 
L 235.753165 234.764962 
L 236.16 232.83006 
L 236.566835 234.151404 
L 236.973671 233.597575 
L 237.380506 232.452822 
L 237.787341 232.707635 
L 238.194176 230.263611 
L 238.601012 230.62218 
L 239.007847 230.322501 
L 239.414682 228.617149 
L 239.821517 228.601009 
L 240.228353 227.329854 
L 240.635188 227.635925 
L 241.042023 226.630508 
L 241.448859 226.0964 
L 241.855694 226.380152 
L 242.262529 225.691708 
L 242.669364 224.617695 
L 243.0762 224.961027 
L 243.483035 224.451653 
L 243.88987 222.76149 
L 244.296705 222.054687 
L 244.703541 222.120804 
L 245.110376 220.144317 
L 245.517211 220.495799 
L 246.330882 218.141706 
L 246.737717 215.79261 
L 247.144552 216.024789 
L 247.958223 214.703878 
L 248.365058 213.223831 
L 248.771893 213.421693 
L 249.178729 212.801423 
L 249.585564 210.461241 
L 249.992399 209.64018 
L 250.399234 205.760265 
L 250.80607 208.282847 
L 251.212905 207.825491 
L 251.61974 208.427077 
L 252.026576 207.720644 
L 252.840246 208.867951 
L 253.247081 208.63923 
L 253.653917 207.633508 
L 254.060752 207.935971 
L 254.874422 206.655053 
L 255.281258 205.593668 
L 255.688093 205.425345 
L 256.094928 204.707864 
L 256.501763 202.127808 
L 256.908599 202.937422 
L 257.315434 199.47758 
L 257.722269 199.745401 
L 258.129105 197.864761 
L 258.53594 196.7056 
L 259.756446 194.573675 
L 260.163281 192.828966 
L 260.570116 189.952433 
L 260.976951 190.678823 
L 262.604293 187.402664 
L 263.011128 186.863864 
L 263.417963 186.884258 
L 263.824798 187.181105 
L 264.231634 186.161786 
L 264.638469 184.733206 
L 265.045304 186.013018 
L 265.452139 186.03772 
L 265.858975 187.177887 
L 266.26581 185.93011 
L 266.672645 183.990147 
L 267.079481 184.238728 
L 267.486316 183.401211 
L 268.706822 182.069306 
L 269.520492 181.09098 
L 269.927327 180.985005 
L 270.334163 195.170398 
L 270.740998 179.184163 
L 271.147833 178.416867 
L 271.554668 174.540265 
L 271.961504 178.136845 
L 272.775174 177.611315 
L 273.18201 177.608771 
L 273.588845 177.127467 
L 273.99568 176.890275 
L 274.402515 178.20791 
L 274.809351 179.043241 
L 275.216186 178.840173 
L 275.623021 177.708483 
L 276.029856 177.789745 
L 277.250362 176.838119 
L 277.657198 174.295715 
L 278.064033 175.299208 
L 278.470868 172.606593 
L 278.877703 173.741966 
L 279.284539 171.481877 
L 279.691374 170.070693 
L 280.098209 170.902764 
L 280.505044 169.172175 
L 280.91188 168.023088 
L 281.318715 167.77875 
L 281.72555 168.71817 
L 282.132386 169.213712 
L 283.352891 166.675749 
L 283.759727 167.25941 
L 284.166562 168.100534 
L 284.573397 168.263636 
L 284.980232 166.338691 
L 285.387068 165.621702 
L 285.793903 164.226295 
L 286.200738 163.882487 
L 286.607573 163.687062 
L 287.014409 163.833088 
L 287.421244 163.649026 
L 288.234915 161.732209 
L 288.64175 162.850513 
L 289.048585 159.307971 
L 289.45542 159.399088 
L 289.862256 158.967097 
L 290.269091 156.383353 
L 290.675926 155.608121 
L 291.082761 155.14216 
L 291.489597 155.145554 
L 291.896432 153.744792 
L 292.303267 153.649303 
L 293.116938 151.434545 
L 293.523773 152.89641 
L 293.930608 153.838004 
L 294.744279 151.595658 
L 295.151114 152.695448 
L 295.557949 152.494358 
L 295.964785 152.973081 
L 296.37162 151.280534 
L 296.778455 150.689984 
L 297.18529 151.969609 
L 297.592126 150.132746 
L 297.998961 150.279718 
L 298.405796 149.755754 
L 299.219467 149.552633 
L 299.626302 145.924249 
L 300.033137 145.818557 
L 300.439973 146.104918 
L 300.846808 146.982539 
L 301.660478 142.748304 
L 302.067314 140.880405 
L 302.474149 140.4063 
L 302.880984 140.569145 
L 303.28782 140.228234 
L 303.694655 138.372772 
L 304.10149 139.902886 
L 304.508325 138.273755 
L 304.915161 139.785543 
L 305.321996 138.701803 
L 305.728831 138.045794 
L 306.135666 137.991088 
L 306.542502 138.064996 
L 306.949337 136.652268 
L 307.356172 136.812783 
L 307.763008 138.341764 
L 308.169843 137.823684 
L 308.576678 138.450854 
L 308.983513 138.70719 
L 309.390349 136.747709 
L 309.797184 137.921252 
L 310.204019 138.236601 
L 310.610854 137.508351 
L 311.01769 137.063389 
L 311.424525 135.308152 
L 311.83136 135.678607 
L 312.238195 135.296586 
L 312.645031 135.423276 
L 313.051866 134.402573 
L 313.458701 133.956077 
L 313.865537 132.664128 
L 314.272372 132.099424 
L 314.679207 132.897766 
L 315.086042 133.135134 
L 315.492878 133.188535 
L 316.306548 131.351277 
L 316.713383 131.791723 
L 317.120219 130.451983 
L 317.527054 131.031829 
L 317.933889 130.781249 
L 318.340725 129.854582 
L 318.74756 130.081042 
L 319.154395 130.717618 
L 319.56123 130.427415 
L 319.968066 130.442583 
L 320.374901 128.035462 
L 321.188571 126.321676 
L 321.595407 126.604637 
L 322.002242 126.005504 
L 322.409077 124.011445 
L 322.815913 124.656492 
L 323.222748 121.79503 
L 323.629583 124.085038 
L 324.036418 122.189295 
L 324.443254 119.597839 
L 324.850089 120.355916 
L 325.256924 118.737812 
L 325.663759 117.645948 
L 326.070595 117.750399 
L 326.47743 116.931246 
L 326.884265 118.984794 
L 327.2911 117.274001 
L 327.697936 117.915484 
L 328.104771 118.29185 
L 329.325277 115.667024 
L 329.732112 117.852393 
L 330.138947 117.89618 
L 330.545783 116.930102 
L 330.952618 117.477528 
L 331.359453 118.804772 
L 331.766288 117.772531 
L 332.173124 115.37076 
L 332.579959 119.357981 
L 332.986794 118.283924 
L 333.39363 116.729301 
L 333.800465 118.033436 
L 334.2073 118.127664 
L 334.614135 115.997978 
L 335.020971 114.937379 
L 335.427806 112.993055 
L 335.834641 113.941218 
L 336.241476 113.222877 
L 336.648312 113.444436 
L 337.055147 114.053099 
L 337.461982 112.498855 
L 337.868817 111.86161 
L 338.275653 113.01384 
L 338.682488 112.726656 
L 339.089323 110.233335 
L 339.496159 109.684883 
L 339.902994 107.987991 
L 340.309829 110.774519 
L 340.716664 111.698674 
L 341.1235 110.790167 
L 341.530335 110.616425 
L 341.93717 110.758908 
L 342.344005 105.84418 
L 342.750841 109.129703 
L 343.157676 107.236461 
L 343.971347 108.19419 
L 344.378182 103.539422 
L 344.785017 102.944532 
L 345.191852 101.072102 
L 345.598688 100.997579 
L 346.005523 102.691243 
L 346.412358 100.355626 
L 346.819193 99.896517 
L 347.226029 98.690362 
L 347.632864 98.254165 
L 348.039699 96.883759 
L 348.446535 97.088649 
L 348.85337 100.411165 
L 349.260205 98.619473 
L 349.66704 97.485014 
L 350.073876 99.642603 
L 350.480711 98.449456 
L 350.887546 98.029452 
L 351.294381 96.306832 
L 352.108052 99.048488 
L 352.514887 98.747387 
L 352.921722 99.177235 
L 353.328558 99.041043 
L 353.735393 97.496446 
L 354.142228 99.282355 
L 354.549064 97.136701 
L 354.955899 96.377908 
L 355.362734 96.298409 
L 356.176405 93.627172 
L 356.58324 90.646475 
L 356.990075 92.679298 
L 357.39691 96.476122 
L 357.803746 92.199335 
L 358.210581 91.998426 
L 358.617416 94.868386 
L 359.431087 91.048537 
L 359.837922 90.997477 
L 360.244757 91.803873 
L 360.651593 91.770967 
L 361.058428 92.38849 
L 361.465263 85.128831 
L 361.872098 84.353833 
L 362.278934 84.570246 
L 362.685769 83.086559 
L 363.092604 82.599921 
L 363.49944 80.019459 
L 363.906275 83.298301 
L 364.31311 84.576766 
L 364.719945 81.771784 
L 365.126781 83.620111 
L 365.533616 80.476911 
L 365.940451 78.876513 
L 366.347286 74.993963 
L 366.754122 76.038689 
L 367.160957 70.286119 
L 367.974627 74.318511 
L 368.381463 76.159912 
L 368.788298 74.482772 
L 369.195133 74.809932 
L 369.601969 75.513539 
L 370.008804 75.370286 
L 370.415639 77.415027 
L 370.822474 76.461867 
L 371.22931 74.967604 
L 371.636145 75.312262 
L 372.04298 73.780898 
L 372.449815 74.169973 
L 372.856651 72.297109 
L 373.263486 73.619207 
L 373.670321 77.186509 
L 374.077157 74.785909 
L 374.483992 71.146489 
L 374.890827 74.162608 
L 375.297662 72.410519 
L 375.704498 74.230301 
L 376.111333 72.587045 
L 376.518168 72.56368 
L 377.738674 66.23732 
L 378.145509 69.071798 
L 378.552344 68.855059 
L 378.95918 67.436249 
L 379.366015 67.854419 
L 379.77285 70.272288 
L 380.586521 68.18337 
L 380.993356 69.71436 
L 381.400191 68.853023 
L 381.807027 67.184013 
L 382.213862 67.216469 
L 383.027532 64.447087 
L 383.434368 65.655337 
L 383.841203 65.635739 
L 384.248038 63.005621 
L 384.654874 64.360501 
L 385.468544 64.133261 
L 385.875379 62.672454 
L 386.282215 64.340609 
L 386.68905 64.389703 
L 387.095885 61.453718 
L 387.50272 61.417761 
L 387.909556 60.028484 
L 388.316391 56.364912 
L 388.723226 57.939422 
L 389.536897 57.075423 
L 389.943732 56.920183 
L 390.350567 57.312166 
L 390.757403 55.953994 
L 391.164238 57.547498 
L 391.977908 53.568 
L 392.384744 55.15531 
L 392.791579 57.309115 
L 393.198414 58.150837 
L 393.605249 54.17376 
L 394.012085 56.54084 
L 394.41892 55.313227 
L 394.825755 59.600758 
L 395.232591 56.78459 
L 395.639426 55.736042 
L 396.046261 58.119583 
L 396.453096 58.338368 
L 396.859932 59.606498 
L 397.266767 57.326318 
L 397.673602 59.756286 
L 398.080437 56.804246 
L 398.487273 63.652801 
L 398.487273 63.652801 
" clip-path="url(#pf5ded8599a)" style="fill: none; stroke: #1f77b4; stroke-width: 1.5; stroke-linecap: square"/>
   </g>
   <g id="line2d_16">
    <path d="M 73.832727 294.843968 
L 75.460068 294.708187 
L 75.866904 294.821826 
L 84.81728 294.572695 
L 85.63095 294.564064 
L 87.665126 294.499262 
L 89.699303 294.565608 
L 91.326644 294.562615 
L 97.022338 294.481941 
L 97.429173 294.290615 
L 113.295748 294.482368 
L 115.329925 294.483496 
L 116.550431 294.31552 
L 118.177772 294.290273 
L 120.211948 294.232195 
L 125.093971 294.408428 
L 130.789665 293.967346 
L 131.603336 293.911539 
L 132.417006 293.849827 
L 133.230677 293.94584 
L 134.044347 293.958458 
L 134.858018 294.008926 
L 136.078524 294.043034 
L 136.892194 293.745568 
L 137.705865 293.783588 
L 138.1127 293.86213 
L 139.740041 293.762093 
L 140.146876 293.815815 
L 140.553712 293.684914 
L 142.587888 293.638267 
L 143.401558 293.471489 
L 146.249405 293.377849 
L 148.283582 293.110285 
L 148.690417 293.228739 
L 149.910923 292.910141 
L 151.538264 292.651042 
L 152.351934 292.658332 
L 153.57244 292.25372 
L 155.199781 291.96985 
L 155.606617 292.092569 
L 157.233958 291.966029 
L 162.929651 290.924419 
L 163.336487 290.970162 
L 164.150157 290.708792 
L 164.963828 290.604858 
L 165.370663 290.365941 
L 166.591169 290.637871 
L 167.404839 290.450217 
L 167.811675 290.395057 
L 168.21851 290.1629 
L 168.625345 290.180285 
L 169.03218 290.008312 
L 170.252686 289.920439 
L 170.659522 289.675214 
L 171.880027 289.427248 
L 172.286863 289.429926 
L 172.693698 289.272842 
L 173.100533 289.256878 
L 174.727874 288.769786 
L 175.541545 288.535688 
L 175.94838 288.287717 
L 176.355215 288.428409 
L 177.575721 287.933402 
L 178.389392 287.520806 
L 178.796227 287.208161 
L 179.609897 286.990974 
L 180.016733 287.090765 
L 180.830403 286.938181 
L 182.050909 285.770624 
L 182.457744 285.490158 
L 182.86458 285.567263 
L 183.271415 285.41679 
L 184.491921 284.540114 
L 184.898756 284.391774 
L 185.712427 283.68355 
L 186.119262 283.586511 
L 186.526097 282.249904 
L 186.932932 282.374696 
L 187.339768 283.265107 
L 187.746603 283.168415 
L 188.560273 282.485177 
L 188.967109 283.102588 
L 189.373944 282.303156 
L 189.780779 282.253987 
L 190.187614 282.005502 
L 190.59445 281.424316 
L 191.001285 281.453849 
L 191.814956 280.563689 
L 192.221791 280.590535 
L 192.628626 280.391646 
L 193.035461 279.669602 
L 193.442297 279.91341 
L 193.849132 279.366898 
L 194.255967 279.530833 
L 194.662802 279.333543 
L 195.069638 279.414057 
L 195.476473 278.798276 
L 195.883308 278.822011 
L 196.290144 278.193788 
L 196.696979 278.302932 
L 197.510649 276.976981 
L 197.917485 276.714585 
L 198.32432 276.631137 
L 198.731155 276.326808 
L 199.13799 276.296644 
L 199.544826 276.413137 
L 199.951661 276.391043 
L 201.172167 275.955984 
L 201.579002 276.097633 
L 202.392673 275.731587 
L 202.799508 275.100505 
L 203.206343 273.683987 
L 203.613178 274.741348 
L 204.020014 275.089437 
L 204.426849 274.72401 
L 204.833684 274.935982 
L 205.240519 274.40716 
L 206.05419 273.723387 
L 206.461025 273.045519 
L 206.867861 272.620395 
L 207.274696 271.729798 
L 207.681531 269.093983 
L 208.088366 267.405701 
L 208.495202 269.906734 
L 208.902037 270.566275 
L 209.308872 270.584414 
L 209.715707 270.848024 
L 210.122543 270.82904 
L 210.529378 271.181837 
L 210.936213 270.45378 
L 211.343049 270.581801 
L 211.749884 269.22202 
L 212.156719 268.806495 
L 212.563554 269.042735 
L 213.377225 267.68676 
L 213.78406 268.053773 
L 214.190895 268.018388 
L 214.597731 267.581405 
L 215.004566 266.947158 
L 215.411401 266.61716 
L 215.818237 266.663935 
L 216.631907 264.697934 
L 217.038742 264.119676 
L 217.445578 263.808924 
L 217.852413 262.676239 
L 218.259248 262.28393 
L 219.479754 259.999935 
L 219.886589 260.387701 
L 220.70026 260.006321 
L 221.51393 259.274079 
L 221.920766 259.59241 
L 222.734436 259.188739 
L 223.548107 258.178715 
L 224.768612 257.662436 
L 225.175448 257.665819 
L 225.582283 256.606872 
L 225.989118 256.500207 
L 226.395954 256.529228 
L 226.802789 255.98689 
L 228.023295 253.30166 
L 228.43013 252.795157 
L 228.836965 250.350946 
L 229.2438 246.902499 
L 229.650636 252.019091 
L 230.057471 253.134027 
L 230.464306 252.822724 
L 230.871141 252.273769 
L 231.277977 252.348474 
L 231.684812 252.631195 
L 232.498483 251.476192 
L 233.312153 250.949176 
L 233.718988 250.52292 
L 234.125824 249.305755 
L 234.532659 249.023403 
L 234.939494 248.954401 
L 235.753165 247.877367 
L 236.16 246.597122 
L 236.566835 245.799245 
L 236.973671 246.302088 
L 237.787341 244.729502 
L 238.194176 243.282826 
L 238.601012 242.862042 
L 239.007847 242.656249 
L 239.821517 240.336301 
L 240.228353 238.529554 
L 240.635188 239.320772 
L 241.042023 239.17163 
L 241.448859 238.262514 
L 241.855694 237.648924 
L 242.262529 237.491829 
L 242.669364 237.602913 
L 243.0762 238.856725 
L 243.483035 238.213847 
L 243.88987 238.501549 
L 244.296705 237.819032 
L 244.703541 237.893224 
L 245.110376 237.125569 
L 245.924046 234.978504 
L 246.330882 235.194163 
L 247.144552 232.157424 
L 247.551388 232.876995 
L 247.958223 232.317763 
L 248.365058 230.994298 
L 248.771893 230.896035 
L 249.178729 230.007788 
L 249.585564 229.502049 
L 249.992399 225.974424 
L 250.399234 217.834829 
L 250.80607 223.694394 
L 251.212905 226.818749 
L 251.61974 227.148795 
L 252.433411 226.804849 
L 252.840246 226.900322 
L 253.247081 226.856588 
L 253.653917 225.884097 
L 254.060752 225.641385 
L 254.467587 225.944319 
L 255.281258 224.806573 
L 256.094928 222.763761 
L 256.501763 220.526289 
L 256.908599 221.27899 
L 257.315434 221.167521 
L 257.722269 217.109615 
L 258.129105 217.999587 
L 258.942775 215.292104 
L 259.34961 212.687036 
L 259.756446 212.59315 
L 260.163281 212.236392 
L 260.976951 207.698646 
L 261.383787 207.397588 
L 261.790622 206.727577 
L 262.197457 206.400369 
L 263.011128 203.810672 
L 263.417963 203.588679 
L 263.824798 203.511992 
L 264.231634 204.647392 
L 264.638469 204.77816 
L 265.045304 205.741421 
L 265.452139 206.413329 
L 266.26581 206.94881 
L 266.672645 204.652068 
L 267.079481 204.072811 
L 267.486316 204.573735 
L 267.893151 203.551199 
L 268.299986 201.669752 
L 268.706822 203.307343 
L 269.113657 203.9565 
L 269.520492 202.019001 
L 269.927327 201.780687 
L 270.334163 200.68956 
L 270.740998 195.170398 
L 271.147833 197.380405 
L 271.554668 188.252874 
L 272.368339 199.090861 
L 272.775174 197.684552 
L 273.18201 199.162087 
L 273.588845 198.613614 
L 273.99568 198.522502 
L 274.402515 197.091543 
L 274.809351 199.507113 
L 275.216186 200.176056 
L 275.623021 199.549757 
L 276.029856 198.177887 
L 276.436692 197.710194 
L 276.843527 196.639334 
L 277.250362 196.564752 
L 277.657198 198.460265 
L 278.064033 197.37684 
L 278.470868 195.836171 
L 278.877703 193.670887 
L 279.284539 193.465014 
L 279.691374 192.5696 
L 280.098209 192.67898 
L 280.505044 190.37396 
L 280.91188 190.320788 
L 281.318715 188.734381 
L 281.72555 188.481835 
L 282.132386 187.99773 
L 282.539221 186.481987 
L 283.352891 186.494515 
L 284.166562 185.881208 
L 284.573397 186.792852 
L 284.980232 185.247363 
L 285.387068 184.424586 
L 285.793903 187.370677 
L 286.200738 187.51711 
L 286.607573 187.377716 
L 287.014409 187.466685 
L 287.421244 187.392418 
L 287.828079 185.917288 
L 288.234915 186.26906 
L 288.64175 186.864805 
L 289.048585 186.207289 
L 289.45542 183.189191 
L 289.862256 184.016351 
L 290.269091 183.603872 
L 290.675926 180.395497 
L 291.082761 181.965229 
L 292.303267 177.779291 
L 292.710103 164.692106 
L 293.116938 169.711995 
L 293.523773 177.26196 
L 293.930608 178.647635 
L 294.744279 177.309039 
L 295.151114 175.996268 
L 295.557949 176.977726 
L 295.964785 176.699233 
L 296.37162 177.732116 
L 296.778455 175.400341 
L 297.18529 177.459913 
L 297.998961 175.321275 
L 298.405796 175.29124 
L 298.812632 175.930184 
L 299.219467 173.257311 
L 299.626302 172.805358 
L 300.033137 170.567496 
L 300.439973 172.622674 
L 300.846808 173.92977 
L 301.253643 171.419571 
L 302.067314 164.419181 
L 302.474149 165.949113 
L 302.880984 164.688787 
L 303.28782 164.000476 
L 303.694655 162.365692 
L 304.10149 163.045435 
L 304.508325 163.235462 
L 304.915161 163.064654 
L 305.321996 162.521103 
L 305.728831 161.654207 
L 306.135666 159.234666 
L 306.542502 162.291724 
L 306.949337 163.157193 
L 307.356172 163.320011 
L 307.763008 164.695612 
L 308.169843 165.459012 
L 308.983513 165.17558 
L 309.390349 165.705962 
L 309.797184 165.399966 
L 310.204019 166.093755 
L 311.01769 163.294443 
L 311.424525 165.056345 
L 311.83136 164.457784 
L 312.238195 162.967994 
L 312.645031 163.132571 
L 313.051866 162.415069 
L 313.458701 160.181065 
L 313.865537 147.830446 
L 314.272372 147.501639 
L 314.679207 159.590638 
L 315.086042 161.285703 
L 315.492878 161.632739 
L 315.899713 160.466052 
L 316.306548 158.890324 
L 317.120219 157.124659 
L 317.527054 157.074657 
L 317.933889 157.660461 
L 318.340725 157.24081 
L 318.74756 147.814172 
L 319.154395 143.699962 
L 319.56123 142.097842 
L 319.968066 143.292357 
L 321.188571 139.106596 
L 321.595407 139.400396 
L 322.002242 141.617254 
L 322.409077 139.585795 
L 322.815913 138.810487 
L 323.222748 140.624332 
L 323.629583 141.621557 
L 324.443254 138.485775 
L 324.850089 135.500354 
L 325.256924 135.27453 
L 325.663759 133.654234 
L 326.070595 135.053767 
L 326.47743 134.861362 
L 326.884265 135.967324 
L 327.2911 134.907586 
L 327.697936 134.91642 
L 328.104771 135.850185 
L 328.511606 137.501404 
L 328.918442 136.712382 
L 329.325277 138.606997 
L 330.138947 138.740715 
L 330.545783 139.471958 
L 330.952618 138.139546 
L 331.359453 138.327611 
L 331.766288 137.273955 
L 332.173124 135.366892 
L 332.579959 137.541722 
L 332.986794 137.979394 
L 333.39363 137.766648 
L 333.800465 140.210736 
L 334.2073 138.16343 
L 335.020971 129.886531 
L 335.427806 123.302905 
L 336.241476 133.152674 
L 336.648312 132.423682 
L 337.055147 133.333022 
L 337.461982 132.206483 
L 338.275653 131.241892 
L 338.682488 131.385032 
L 339.089323 133.024851 
L 339.496159 132.619117 
L 339.902994 132.414174 
L 340.309829 130.487251 
L 340.716664 133.644464 
L 341.530335 130.671517 
L 341.93717 132.913008 
L 342.344005 131.610958 
L 342.750841 128.222817 
L 343.157676 128.555695 
L 343.564511 126.540659 
L 343.971347 125.359922 
L 344.378182 127.213738 
L 344.785017 127.588544 
L 345.598688 120.175237 
L 346.005523 120.049028 
L 346.412358 119.682281 
L 346.819193 118.931441 
L 347.226029 116.205551 
L 347.632864 117.64366 
L 348.039699 116.283126 
L 348.446535 116.387342 
L 348.85337 117.620086 
L 349.260205 120.635938 
L 349.66704 121.335237 
L 350.073876 121.385448 
L 350.480711 122.898337 
L 350.887546 120.700841 
L 351.701217 121.875362 
L 352.108052 122.149292 
L 352.514887 121.924777 
L 352.921722 121.481525 
L 353.328558 123.864697 
L 353.735393 122.768183 
L 354.142228 123.292532 
L 354.549064 121.734392 
L 354.955899 122.81421 
L 355.769569 120.156606 
L 356.176405 114.859463 
L 356.58324 102.455799 
L 357.39691 114.854738 
L 357.803746 115.1952 
L 358.210581 116.933379 
L 358.617416 115.288381 
L 359.024252 118.06081 
L 359.431087 117.081323 
L 359.837922 113.637216 
L 360.244757 115.523226 
L 360.651593 115.516765 
L 361.058428 117.828434 
L 361.465263 113.906912 
L 361.872098 107.269917 
L 362.278934 107.42698 
L 362.685769 117.879371 
L 363.092604 106.145393 
L 363.906275 102.667947 
L 364.31311 106.37367 
L 364.719945 106.194835 
L 365.126781 104.845593 
L 365.533616 101.742354 
L 365.940451 102.38653 
L 366.754122 94.746063 
L 367.160957 95.517688 
L 367.567792 95.293184 
L 367.974627 92.834805 
L 368.381463 92.743287 
L 368.788298 93.6567 
L 369.195133 92.397608 
L 369.601969 93.241116 
L 370.008804 93.343425 
L 370.415639 96.693716 
L 370.822474 97.529127 
L 371.636145 100.545113 
L 372.04298 98.473549 
L 372.449815 99.615073 
L 372.856651 99.747257 
L 373.263486 96.884342 
L 373.670321 100.099547 
L 374.077157 100.992523 
L 374.483992 97.88309 
L 374.890827 97.042003 
L 375.297662 99.342443 
L 375.704498 95.805518 
L 376.111333 99.249327 
L 376.518168 99.553233 
L 376.925003 95.165863 
L 377.738674 80.900111 
L 378.145509 88.20104 
L 378.552344 93.175508 
L 378.95918 93.100546 
L 379.366015 93.688077 
L 379.77285 92.541031 
L 380.179686 92.675209 
L 380.586521 93.401246 
L 381.400191 91.071631 
L 381.807027 94.121923 
L 382.620697 86.813206 
L 383.027532 90.549415 
L 383.434368 86.236814 
L 383.841203 88.930423 
L 384.248038 89.591979 
L 384.654874 88.292387 
L 385.061709 85.094386 
L 385.468544 89.938224 
L 385.875379 89.777864 
L 386.282215 86.327065 
L 386.68905 86.912014 
L 387.095885 86.329 
L 387.50272 81.65372 
L 388.316391 77.046966 
L 388.723226 77.407555 
L 389.130062 77.231371 
L 389.536897 76.091936 
L 389.943732 77.497128 
L 390.350567 76.003421 
L 390.757403 77.010367 
L 391.164238 75.607467 
L 391.977908 81.060471 
L 392.384744 82.622688 
L 392.791579 81.550978 
L 393.198414 83.223494 
L 393.605249 82.758191 
L 394.012085 82.077336 
L 394.41892 81.772719 
L 394.825755 83.974378 
L 395.232591 84.666563 
L 395.639426 81.880816 
L 396.046261 82.83397 
L 396.453096 85.346916 
L 396.859932 82.759602 
L 397.266767 84.482383 
L 397.673602 85.028687 
L 398.080437 83.505344 
L 398.487273 78.544227 
L 398.487273 78.544227 
" clip-path="url(#pf5ded8599a)" style="fill: none; stroke: #ff7f0e; stroke-width: 1.5; stroke-linecap: square"/>
   </g>
   <g id="line2d_17">
    <path d="M 73.832727 295.306888 
L 79.935256 295.277082 
L 80.342092 295.344352 
L 81.155762 295.233674 
L 81.562597 295.31848 
L 81.969433 295.21941 
L 82.376268 295.317902 
L 83.596774 295.217571 
L 94.988161 295.281053 
L 95.394997 295.23958 
L 95.801832 295.335021 
L 97.022338 295.034743 
L 97.429173 295.226646 
L 112.482078 295.429959 
L 113.702584 295.434107 
L 118.177772 295.298304 
L 118.991442 295.324856 
L 119.398278 295.390314 
L 120.211948 295.356463 
L 121.025619 295.357152 
L 121.839289 295.366996 
L 122.246124 295.462079 
L 125.500807 295.367942 
L 142.181053 295.288268 
L 142.587888 295.145405 
L 143.808394 295.403809 
L 144.622064 295.144315 
L 145.0289 295.230478 
L 145.435735 295.113456 
L 147.469911 295.321366 
L 148.283582 295.239906 
L 148.690417 294.917064 
L 149.097252 295.126593 
L 149.504087 295.028774 
L 150.724593 295.216331 
L 151.131429 295.072935 
L 151.538264 295.120334 
L 152.351934 294.892341 
L 152.75877 294.945881 
L 153.57244 294.862935 
L 153.979275 295.00646 
L 154.792946 294.849564 
L 155.199781 295.095114 
L 159.268134 294.834252 
L 159.674969 294.618636 
L 160.081805 294.563893 
L 160.895475 294.745438 
L 161.709146 294.701271 
L 162.115981 294.963994 
L 163.743322 294.64198 
L 164.963828 294.67813 
L 165.370663 294.951509 
L 166.591169 294.493234 
L 167.404839 294.575298 
L 167.811675 294.515226 
L 168.21851 294.739784 
L 168.625345 294.520704 
L 169.439016 294.798396 
L 170.659522 294.414863 
L 171.880027 294.51443 
L 172.286863 294.300877 
L 172.693698 294.438656 
L 173.507368 294.134664 
L 173.914204 294.286014 
L 174.321039 294.178665 
L 174.727874 294.249891 
L 175.541545 294.201278 
L 176.355215 294.193785 
L 176.762051 294.085057 
L 177.168886 294.204351 
L 178.389392 294.03265 
L 178.796227 294.23258 
L 179.609897 294.078692 
L 180.016733 293.795463 
L 180.423568 293.666272 
L 180.830403 293.352698 
L 181.644074 293.308302 
L 182.050909 293.048866 
L 182.457744 293.563691 
L 182.86458 293.52713 
L 183.271415 293.231774 
L 183.67825 293.178111 
L 184.085085 292.776471 
L 184.491921 292.988779 
L 184.898756 292.430546 
L 185.712427 292.91836 
L 186.119262 292.815165 
L 186.526097 293.881701 
L 186.932932 293.805922 
L 187.339768 292.620461 
L 187.746603 292.490271 
L 188.153438 292.536612 
L 188.560273 292.759978 
L 188.967109 291.839494 
L 189.373944 292.611584 
L 189.780779 292.616282 
L 190.187614 292.178198 
L 190.59445 292.750336 
L 191.001285 291.96597 
L 191.40812 292.083393 
L 191.814956 292.52052 
L 192.628626 292.469978 
L 193.035461 292.761522 
L 193.442297 292.274558 
L 193.849132 292.563089 
L 194.255967 291.95115 
L 194.662802 292.423112 
L 195.069638 292.144875 
L 195.476473 292.539717 
L 195.883308 292.343667 
L 196.290144 292.683873 
L 197.103814 291.683271 
L 197.510649 292.493429 
L 197.917485 292.361924 
L 198.32432 291.932343 
L 198.731155 292.197732 
L 199.13799 292.61997 
L 199.544826 292.184675 
L 200.358496 291.810821 
L 200.765332 291.275185 
L 201.172167 291.534284 
L 201.579002 291.368291 
L 201.985837 290.907974 
L 202.392673 291.034391 
L 202.799508 288.196113 
L 203.206343 291.89529 
L 203.613178 292.197748 
L 204.020014 291.18891 
L 204.426849 291.185094 
L 205.240519 290.573417 
L 205.647355 290.61761 
L 206.05419 290.331827 
L 206.461025 290.460885 
L 207.274696 289.860725 
L 207.681531 291.793596 
L 208.088366 292.527527 
L 208.495202 289.396395 
L 208.902037 289.743147 
L 209.715707 289.33526 
L 210.122543 289.516805 
L 210.529378 289.467551 
L 210.936213 290.079799 
L 211.343049 287.732536 
L 211.749884 289.420573 
L 212.156719 289.41269 
L 212.563554 288.726725 
L 212.97039 289.082965 
L 213.377225 289.629044 
L 213.78406 289.284835 
L 214.190895 289.366615 
L 214.597731 288.126042 
L 215.004566 288.699191 
L 215.411401 288.291148 
L 215.818237 287.658527 
L 216.225072 289.120402 
L 216.631907 288.009566 
L 217.038742 289.076231 
L 217.445578 287.992089 
L 217.852413 288.456826 
L 218.259248 287.846186 
L 218.666083 289.331005 
L 219.072919 289.009452 
L 219.479754 288.016438 
L 220.293424 288.915106 
L 220.70026 288.601815 
L 221.107095 287.422602 
L 221.51393 288.174981 
L 221.920766 286.4397 
L 222.327601 286.98354 
L 222.734436 286.103529 
L 223.548107 285.300607 
L 224.361777 285.452742 
L 224.768612 285.512936 
L 225.175448 284.391689 
L 225.582283 285.586668 
L 225.989118 285.273986 
L 226.395954 284.137037 
L 226.802789 284.398177 
L 227.209624 284.142274 
L 227.616459 284.255304 
L 228.43013 285.561202 
L 228.836965 287.465042 
L 229.2438 288.611531 
L 229.650636 284.15315 
L 230.057471 283.730255 
L 230.464306 283.782182 
L 230.871141 284.260985 
L 231.277977 284.178707 
L 231.684812 283.941719 
L 232.498483 284.818982 
L 232.905318 283.728459 
L 233.312153 283.989525 
L 233.718988 283.26717 
L 234.125824 284.481106 
L 234.532659 284.588973 
L 234.939494 283.497008 
L 235.753165 282.449882 
L 236.16 281.795225 
L 236.566835 283.914446 
L 236.973671 282.857775 
L 237.380506 282.524592 
L 237.787341 283.54042 
L 238.194176 282.543073 
L 238.601012 283.322426 
L 239.007847 283.22854 
L 239.414682 282.759769 
L 239.821517 283.826995 
L 240.228353 284.362588 
L 240.635188 283.877441 
L 241.042023 283.021165 
L 241.448859 283.396174 
L 241.855694 284.293516 
L 242.262529 283.762167 
L 243.0762 281.66659 
L 243.483035 281.800094 
L 243.88987 279.822228 
L 244.703541 279.789868 
L 245.110376 278.581035 
L 245.517211 279.957635 
L 245.924046 279.754434 
L 246.330882 278.509831 
L 246.737717 277.850653 
L 247.144552 279.429652 
L 247.551388 278.039055 
L 248.365058 277.791821 
L 249.178729 278.355922 
L 249.585564 276.52148 
L 249.992399 279.228044 
L 250.399234 283.487724 
L 251.212905 276.569029 
L 251.61974 276.84057 
L 252.026576 276.275422 
L 252.433411 277.043359 
L 252.840246 277.529917 
L 253.247081 277.34493 
L 253.653917 277.311698 
L 254.060752 277.856874 
L 254.467587 276.959916 
L 254.874422 276.860627 
L 255.281258 276.349383 
L 255.688093 277.353743 
L 256.094928 277.506391 
L 256.501763 277.163807 
L 256.908599 277.22072 
L 257.315434 273.872347 
L 257.722269 278.198074 
L 258.129105 275.427462 
L 258.53594 275.477128 
L 258.942775 276.277859 
L 259.34961 278.401526 
L 259.756446 277.542813 
L 260.163281 276.154862 
L 260.570116 275.636825 
L 260.976951 278.542464 
L 261.383787 278.002761 
L 261.790622 278.011991 
L 262.197457 277.105627 
L 262.604293 278.043673 
L 263.011128 278.61548 
L 263.417963 278.857867 
L 263.824798 279.2314 
L 264.638469 275.517334 
L 265.045304 275.833885 
L 265.452139 275.186679 
L 265.858975 276.110492 
L 266.26581 274.543587 
L 266.672645 274.900366 
L 267.079481 275.728204 
L 267.486316 274.389764 
L 267.893151 274.923791 
L 268.299986 276.318097 
L 268.706822 274.324252 
L 269.113657 273.247865 
L 269.520492 274.634267 
L 269.927327 274.766606 
L 270.334163 290.043126 
L 270.740998 279.576053 
L 271.147833 276.59875 
L 271.554668 281.84968 
L 271.961504 280.498466 
L 272.368339 274.313023 
L 272.775174 275.489051 
L 273.18201 274.008972 
L 273.588845 274.076141 
L 273.99568 273.930062 
L 274.402515 276.678654 
L 274.809351 275.098415 
L 275.216186 274.226405 
L 275.623021 273.721014 
L 276.029856 275.174146 
L 276.436692 275.337371 
L 276.843527 276.070409 
L 277.250362 275.835654 
L 277.657198 271.397737 
L 278.064033 273.484656 
L 278.470868 272.332709 
L 278.877703 275.633367 
L 279.284539 273.579151 
L 279.691374 273.06338 
L 280.505044 274.360503 
L 280.91188 273.264588 
L 281.72555 275.798623 
L 282.132386 276.778269 
L 282.539221 277.448008 
L 283.352891 275.743521 
L 284.166562 277.781614 
L 284.573397 277.033071 
L 284.980232 276.653616 
L 285.387068 276.759404 
L 285.793903 272.417905 
L 286.200738 271.927665 
L 286.607573 271.871634 
L 287.014409 271.928691 
L 287.421244 271.818895 
L 287.828079 272.343719 
L 288.234915 271.025438 
L 288.64175 271.547996 
L 289.048585 268.66297 
L 289.45542 271.772184 
L 289.862256 270.513034 
L 290.269091 268.341769 
L 290.675926 270.774912 
L 291.082761 268.739219 
L 291.489597 270.080647 
L 291.896432 270.123467 
L 292.303267 271.432299 
L 292.710103 283.245936 
L 293.523773 271.196738 
L 293.930608 270.752657 
L 294.337444 270.486616 
L 294.744279 269.848907 
L 295.151114 272.261468 
L 295.557949 271.078919 
L 295.964785 271.836136 
L 296.37162 269.110706 
L 296.778455 270.85193 
L 297.592126 269.43808 
L 297.998961 270.52073 
L 298.405796 270.026802 
L 298.812632 269.339197 
L 299.219467 271.85761 
L 299.626302 268.681178 
L 300.033137 270.813349 
L 300.439973 269.044531 
L 300.846808 268.615057 
L 301.253643 268.714827 
L 302.067314 272.023512 
L 302.474149 270.019475 
L 302.880984 271.442646 
L 303.28782 271.790046 
L 303.694655 271.569368 
L 304.10149 272.419738 
L 304.508325 270.600581 
L 304.915161 272.283177 
L 305.321996 271.742988 
L 305.728831 271.953874 
L 306.135666 274.318709 
L 306.949337 269.057363 
L 307.356172 269.05506 
L 307.763008 269.20844 
L 308.169843 267.92696 
L 308.576678 268.681638 
L 308.983513 269.093898 
L 309.390349 266.604034 
L 309.797184 268.083574 
L 310.204019 267.705134 
L 311.01769 269.331234 
L 311.424525 265.814094 
L 312.238195 267.89088 
L 312.645031 267.852993 
L 313.051866 267.549792 
L 313.458701 269.3373 
L 313.865537 280.39597 
L 314.272372 280.160072 
L 314.679207 268.869415 
L 315.086042 267.411719 
L 315.492878 267.118084 
L 315.899713 267.448414 
L 316.306548 268.02324 
L 316.713383 269.466309 
L 317.120219 268.889612 
L 317.527054 269.519459 
L 317.933889 268.683076 
L 318.340725 268.176059 
L 318.74756 277.829158 
L 319.154395 282.579944 
L 319.56123 283.89186 
L 320.374901 281.602125 
L 321.188571 282.777368 
L 321.595407 282.766529 
L 322.002242 279.950538 
L 322.409077 279.987938 
L 322.815913 281.408293 
L 323.222748 276.732986 
L 323.629583 278.025769 
L 324.036418 277.606011 
L 324.443254 276.674352 
L 324.850089 280.41785 
L 325.256924 279.02557 
L 325.663759 279.554001 
L 326.070595 278.25892 
L 326.47743 277.632172 
L 326.884265 278.579758 
L 327.2911 277.928703 
L 327.697936 278.561352 
L 328.104771 278.003953 
L 328.511606 275.534955 
L 328.918442 275.625628 
L 329.325277 272.622314 
L 329.732112 274.702296 
L 330.138947 274.717752 
L 330.545783 273.020432 
L 330.952618 274.90027 
L 331.359453 276.039449 
L 331.766288 276.060864 
L 332.173124 275.566155 
L 332.579959 277.378546 
L 333.39363 274.524941 
L 333.800465 273.384987 
L 334.2073 275.526521 
L 334.614135 277.063839 
L 335.020971 280.613136 
L 335.427806 285.252438 
L 336.241476 275.632491 
L 336.648312 276.583042 
L 337.868817 275.770062 
L 338.275653 277.334236 
L 338.682488 276.903912 
L 339.089323 272.770772 
L 339.496159 272.628054 
L 339.902994 271.136105 
L 340.309829 275.849555 
L 340.716664 273.616498 
L 341.1235 274.382864 
L 341.530335 275.507196 
L 341.93717 273.408187 
L 342.344005 269.795511 
L 342.750841 276.469174 
L 343.157676 274.243053 
L 343.564511 276.715606 
L 343.971347 278.396556 
L 344.378182 271.887972 
L 344.785017 270.918276 
L 345.191852 272.697281 
L 345.598688 276.38463 
L 346.005523 278.204503 
L 346.412358 276.235632 
L 346.819193 276.527364 
L 347.226029 278.047099 
L 347.632864 276.172792 
L 348.446535 276.263594 
L 348.85337 278.353367 
L 349.260205 273.545823 
L 349.66704 271.712065 
L 350.073876 273.819442 
L 350.480711 271.113407 
L 350.887546 272.890899 
L 351.294381 270.601805 
L 352.108052 272.461484 
L 352.514887 272.384898 
L 352.921722 273.257998 
L 353.328558 270.738634 
L 353.735393 270.29055 
L 354.142228 271.552111 
L 354.549064 270.964597 
L 354.955899 269.125986 
L 355.362734 270.466831 
L 355.769569 270.449243 
L 356.176405 274.329997 
L 356.58324 283.752964 
L 356.990075 278.633828 
L 357.39691 277.183672 
L 357.803746 272.566422 
L 358.210581 270.627336 
L 358.617416 275.142293 
L 359.024252 270.453887 
L 359.431087 269.529502 
L 359.837922 272.922549 
L 360.244757 271.842934 
L 360.651593 271.81649 
L 361.058428 270.122345 
L 361.465263 266.784206 
L 361.872098 272.646204 
L 362.278934 272.705554 
L 362.685769 260.769475 
L 363.092604 272.016816 
L 363.49944 270.982548 
L 363.906275 276.192642 
L 364.719945 271.139237 
L 365.126781 274.336806 
L 365.533616 274.296845 
L 365.940451 272.052271 
L 366.347286 272.175684 
L 366.754122 276.854914 
L 367.160957 270.330719 
L 367.567792 272.885565 
L 367.974627 277.045994 
L 368.381463 278.978913 
L 368.788298 276.38836 
L 369.195133 277.974612 
L 370.008804 277.58915 
L 370.415639 276.283599 
L 370.822474 274.495028 
L 371.22931 271.604016 
L 371.636145 270.329436 
L 372.04298 270.869636 
L 372.449815 270.117187 
L 372.856651 268.11214 
L 373.263486 272.297153 
L 373.670321 272.64925 
L 374.077157 269.355674 
L 374.483992 268.825687 
L 374.890827 272.682893 
L 375.297662 268.630364 
L 375.704498 273.987071 
L 376.111333 268.900007 
L 376.518168 268.572734 
L 376.925003 270.656019 
L 377.331839 274.976968 
L 377.738674 280.899497 
L 378.552344 271.241839 
L 378.95918 269.89799 
L 379.366015 269.72863 
L 379.77285 273.293544 
L 380.586521 270.344411 
L 380.993356 273.142783 
L 381.400191 273.34368 
L 381.807027 268.624378 
L 382.213862 272.708963 
L 382.620697 274.746489 
L 383.027532 269.45996 
L 383.434368 274.980811 
L 384.248038 268.97593 
L 385.061709 274.667749 
L 385.468544 269.757325 
L 385.875379 268.456878 
L 386.282215 273.575832 
L 386.68905 273.039977 
L 387.095885 270.687006 
L 387.50272 275.326329 
L 387.909556 276.307552 
L 388.316391 274.880234 
L 388.723226 276.094154 
L 389.130062 275.860575 
L 389.536897 276.545776 
L 389.943732 274.985343 
L 390.350567 276.871033 
L 390.757403 274.505914 
L 391.164238 277.502318 
L 391.977908 268.069817 
L 392.384744 268.094909 
L 392.791579 271.320424 
L 393.198414 270.489631 
L 393.605249 266.977857 
L 394.012085 270.025792 
L 394.41892 269.102796 
L 394.825755 271.188668 
L 395.232591 267.680314 
L 396.046261 270.847901 
L 396.453096 268.55374 
L 396.859932 272.409183 
L 397.266767 268.406223 
L 397.673602 270.289887 
L 398.080437 268.86119 
L 398.487273 280.670861 
L 398.487273 280.670861 
" clip-path="url(#pf5ded8599a)" style="fill: none; stroke: #2ca02c; stroke-width: 1.5; stroke-linecap: square"/>
   </g>
   <g id="patch_3">
    <path d="M 57.6 307.584 
L 57.6 41.472 
" style="fill: none; stroke: #000000; stroke-width: 0.8; stroke-linejoin: miter; stroke-linecap: square"/>
   </g>
   <g id="patch_4">
    <path d="M 414.72 307.584 
L 414.72 41.472 
" style="fill: none; stroke: #000000; stroke-width: 0.8; stroke-linejoin: miter; stroke-linecap: square"/>
   </g>
   <g id="patch_5">
    <path d="M 57.6 307.584 
L 414.72 307.584 
" style="fill: none; stroke: #000000; stroke-width: 0.8; stroke-linejoin: miter; stroke-linecap: square"/>
   </g>
   <g id="patch_6">
    <path d="M 57.6 41.472 
L 414.72 41.472 
" style="fill: none; stroke: #000000; stroke-width: 0.8; stroke-linejoin: miter; stroke-linecap: square"/>
   </g>
   <g id="legend_1">
    <g id="patch_7">
     <path d="M 64.6 93.506375 
L 186.25625 93.506375 
Q 188.25625 93.506375 188.25625 91.506375 
L 188.25625 48.472 
Q 188.25625 46.472 186.25625 46.472 
L 64.6 46.472 
Q 62.6 46.472 62.6 48.472 
L 62.6 91.506375 
Q 62.6 93.506375 64.6 93.506375 
z
" style="fill: #ffffff; opacity: 0.8; stroke: #cccccc; stroke-linejoin: miter"/>
    </g>
    <g id="line2d_18">
     <path d="M 66.6 54.570438 
L 76.6 54.570438 
L 86.6 54.570438 
" style="fill: none; stroke: #1f77b4; stroke-width: 1.5; stroke-linecap: square"/>
    </g>
    <g id="text_17">
     <!-- Weekly maximum -->
     <g transform="translate(94.6 58.070438) scale(0.1 -0.1)">
      <defs>
       <path id="DejaVuSans-57" d="M 213 4666 
L 850 4666 
L 1831 722 
L 2809 4666 
L 3519 4666 
L 4500 722 
L 5478 4666 
L 6119 4666 
L 4947 0 
L 4153 0 
L 3169 4050 
L 2175 0 
L 1381 0 
L 213 4666 
z
" transform="scale(0.015625)"/>
       <path id="DejaVuSans-6b" d="M 581 4863 
L 1159 4863 
L 1159 1991 
L 2875 3500 
L 3609 3500 
L 1753 1863 
L 3688 0 
L 2938 0 
L 1159 1709 
L 1159 0 
L 581 0 
L 581 4863 
z
" transform="scale(0.015625)"/>
       <path id="DejaVuSans-79" d="M 2059 -325 
Q 1816 -950 1584 -1140 
Q 1353 -1331 966 -1331 
L 506 -1331 
L 506 -850 
L 844 -850 
Q 1081 -850 1212 -737 
Q 1344 -625 1503 -206 
L 1606 56 
L 191 3500 
L 800 3500 
L 1894 763 
L 2988 3500 
L 3597 3500 
L 2059 -325 
z
" transform="scale(0.015625)"/>
       <path id="DejaVuSans-6d" d="M 3328 2828 
Q 3544 3216 3844 3400 
Q 4144 3584 4550 3584 
Q 5097 3584 5394 3201 
Q 5691 2819 5691 2113 
L 5691 0 
L 5113 0 
L 5113 2094 
Q 5113 2597 4934 2840 
Q 4756 3084 4391 3084 
Q 3944 3084 3684 2787 
Q 3425 2491 3425 1978 
L 3425 0 
L 2847 0 
L 2847 2094 
Q 2847 2600 2669 2842 
Q 2491 3084 2119 3084 
Q 1678 3084 1418 2786 
Q 1159 2488 1159 1978 
L 1159 0 
L 581 0 
L 581 3500 
L 1159 3500 
L 1159 2956 
Q 1356 3278 1631 3431 
Q 1906 3584 2284 3584 
Q 2666 3584 2933 3390 
Q 3200 3197 3328 2828 
z
" transform="scale(0.015625)"/>
       <path id="DejaVuSans-78" d="M 3513 3500 
L 2247 1797 
L 3578 0 
L 2900 0 
L 1881 1375 
L 863 0 
L 184 0 
L 1544 1831 
L 300 3500 
L 978 3500 
L 1906 2253 
L 2834 3500 
L 3513 3500 
z
" transform="scale(0.015625)"/>
       <path id="DejaVuSans-75" d="M 544 1381 
L 544 3500 
L 1119 3500 
L 1119 1403 
Q 1119 906 1312 657 
Q 1506 409 1894 409 
Q 2359 409 2629 706 
Q 2900 1003 2900 1516 
L 2900 3500 
L 3475 3500 
L 3475 0 
L 2900 0 
L 2900 538 
Q 2691 219 2414 64 
Q 2138 -91 1772 -91 
Q 1169 -91 856 284 
Q 544 659 544 1381 
z
M 1991 3584 
L 1991 3584 
z
" transform="scale(0.015625)"/>
      </defs>
      <use xlink:href="#DejaVuSans-57"/>
      <use xlink:href="#DejaVuSans-65" x="93.001953"/>
      <use xlink:href="#DejaVuSans-65" x="154.525391"/>
      <use xlink:href="#DejaVuSans-6b" x="216.048828"/>
      <use xlink:href="#DejaVuSans-6c" x="273.958984"/>
      <use xlink:href="#DejaVuSans-79" x="301.742188"/>
      <use xlink:href="#DejaVuSans-20" x="360.921875"/>
      <use xlink:href="#DejaVuSans-6d" x="392.708984"/>
      <use xlink:href="#DejaVuSans-61" x="490.121094"/>
      <use xlink:href="#DejaVuSans-78" x="551.400391"/>
      <use xlink:href="#DejaVuSans-69" x="610.580078"/>
      <use xlink:href="#DejaVuSans-6d" x="638.363281"/>
      <use xlink:href="#DejaVuSans-75" x="735.775391"/>
      <use xlink:href="#DejaVuSans-6d" x="799.154297"/>
     </g>
    </g>
    <g id="line2d_19">
     <path d="M 66.6 69.248563 
L 76.6 69.248563 
L 86.6 69.248563 
" style="fill: none; stroke: #ff7f0e; stroke-width: 1.5; stroke-linecap: square"/>
    </g>
    <g id="text_18">
     <!-- Weekly minimum -->
     <g transform="translate(94.6 72.748563) scale(0.1 -0.1)">
      <defs>
       <path id="DejaVuSans-6e" d="M 3513 2113 
L 3513 0 
L 2938 0 
L 2938 2094 
Q 2938 2591 2744 2837 
Q 2550 3084 2163 3084 
Q 1697 3084 1428 2787 
Q 1159 2491 1159 1978 
L 1159 0 
L 581 0 
L 581 3500 
L 1159 3500 
L 1159 2956 
Q 1366 3272 1645 3428 
Q 1925 3584 2291 3584 
Q 2894 3584 3203 3211 
Q 3513 2838 3513 2113 
z
" transform="scale(0.015625)"/>
      </defs>
      <use xlink:href="#DejaVuSans-57"/>
      <use xlink:href="#DejaVuSans-65" x="93.001953"/>
      <use xlink:href="#DejaVuSans-65" x="154.525391"/>
      <use xlink:href="#DejaVuSans-6b" x="216.048828"/>
      <use xlink:href="#DejaVuSans-6c" x="273.958984"/>
      <use xlink:href="#DejaVuSans-79" x="301.742188"/>
      <use xlink:href="#DejaVuSans-20" x="360.921875"/>
      <use xlink:href="#DejaVuSans-6d" x="392.708984"/>
      <use xlink:href="#DejaVuSans-69" x="490.121094"/>
      <use xlink:href="#DejaVuSans-6e" x="517.904297"/>
      <use xlink:href="#DejaVuSans-69" x="581.283203"/>
      <use xlink:href="#DejaVuSans-6d" x="609.066406"/>
      <use xlink:href="#DejaVuSans-75" x="706.478516"/>
      <use xlink:href="#DejaVuSans-6d" x="769.857422"/>
     </g>
    </g>
    <g id="line2d_20">
     <path d="M 66.6 83.926688 
L 76.6 83.926688 
L 86.6 83.926688 
" style="fill: none; stroke: #2ca02c; stroke-width: 1.5; stroke-linecap: square"/>
    </g>
    <g id="text_19">
     <!-- Weekly range -->
     <g transform="translate(94.6 87.426688) scale(0.1 -0.1)">
      <use xlink:href="#DejaVuSans-57"/>
      <use xlink:href="#DejaVuSans-65" x="93.001953"/>
      <use xlink:href="#DejaVuSans-65" x="154.525391"/>
      <use xlink:href="#DejaVuSans-6b" x="216.048828"/>
      <use xlink:href="#DejaVuSans-6c" x="273.958984"/>
      <use xlink:href="#DejaVuSans-79" x="301.742188"/>
      <use xlink:href="#DejaVuSans-20" x="360.921875"/>
      <use xlink:href="#DejaVuSans-72" x="392.708984"/>
      <use xlink:href="#DejaVuSans-61" x="433.822266"/>
      <use xlink:href="#DejaVuSans-6e" x="495.101562"/>
      <use xlink:href="#DejaVuSans-67" x="558.480469"/>
      <use xlink:href="#DejaVuSans-65" x="621.957031"/>
     </g>
    </g>
   </g>
  </g>
 </g>
 <defs>
  <clipPath id="pf5ded8599a">
   <rect x="57.6" y="41.472" width="357.12" height="266.112"/>
  </clipPath>
 </defs>
</svg>
