<?xml version="1.0" encoding="utf-8" standalone="no"?>
<!DOCTYPE svg PUBLIC "-//W3C//DTD SVG 1.1//EN"
  "http://www.w3.org/Graphics/SVG/1.1/DTD/svg11.dtd">
<svg xmlns:xlink="http://www.w3.org/1999/xlink" width="460.8pt" height="345.6pt" viewBox="0 0 460.8 345.6" xmlns="http://www.w3.org/2000/svg" version="1.1">
 <metadata>
  <rdf:RDF xmlns:dc="http://purl.org/dc/elements/1.1/" xmlns:cc="http://creativecommons.org/ns#" xmlns:rdf="http://www.w3.org/1999/02/22-rdf-syntax-ns#">
   <cc:Work>
    <dc:type rdf:resource="http://purl.org/dc/dcmitype/StillImage"/>
    <dc:date>2025-12-07T05:37:38.119486</dc:date>
    <dc:format>image/svg+xml</dc:format>
    <dc:creator>
     <cc:Agent>
      <dc:title>Matplotlib v3.10.7, https://matplotlib.org/</dc:title>
     </cc:Agent>
    </dc:creator>
   </cc:Work>
  </rdf:RDF>
 </metadata>
 <defs>
  <style type="text/css">*{stroke-linejoin: round; stroke-linecap: butt}</style>
 </defs>
 <g id="figure_1">
  <g id="patch_1">
   <path d="M 0 345.6 
L 460.8 345.6 
L 460.8 0 
L 0 0 
z
" style="fill: #ffffff"/>
  </g>
  <g id="axes_1">
   <g id="patch_2">
    <path d="M 57.6 307.584 
L 414.72 307.584 
L 414.72 41.472 
L 57.6 41.472 
z
" style="fill: #ffffff"/>
   </g>
   <g id="matplotlib.axis_1">
    <g id="xtick_1">
     <g id="line2d_1">
      <defs>
       <path id="mbd64d54318" d="M 0 0 
L 0 3.5 
" style="stroke: #000000; stroke-width: 0.8"/>
      </defs>
      <g>
       <use xlink:href="#mbd64d54318" x="61.258805" y="307.584" style="stroke: #000000; stroke-width: 0.8"/>
      </g>
     </g>
     <g id="text_1">
      <!-- 2008 -->
      <g transform="translate(48.533805 322.182437) scale(0.1 -0.1)">
       <defs>
        <path id="DejaVuSans-32" d="M 1228 531 
L 3431 531 
L 3431 0 
L 469 0 
L 469 531 
Q 828 903 1448 1529 
Q 2069 2156 2228 2338 
Q 2531 2678 2651 2914 
Q 2772 3150 2772 3378 
Q 2772 3750 2511 3984 
Q 2250 4219 1831 4219 
Q 1534 4219 1204 4116 
Q 875 4013 500 3803 
L 500 4441 
Q 881 4594 1212 4672 
Q 1544 4750 1819 4750 
Q 2544 4750 2975 4387 
Q 3406 4025 3406 3419 
Q 3406 3131 3298 2873 
Q 3191 2616 2906 2266 
Q 2828 2175 2409 1742 
Q 1991 1309 1228 531 
z
" transform="scale(0.015625)"/>
        <path id="DejaVuSans-30" d="M 2034 4250 
Q 1547 4250 1301 3770 
Q 1056 3291 1056 2328 
Q 1056 1369 1301 889 
Q 1547 409 2034 409 
Q 2525 409 2770 889 
Q 3016 1369 3016 2328 
Q 3016 3291 2770 3770 
Q 2525 4250 2034 4250 
z
M 2034 4750 
Q 2819 4750 3233 4129 
Q 3647 3509 3647 2328 
Q 3647 1150 3233 529 
Q 2819 -91 2034 -91 
Q 1250 -91 836 529 
Q 422 1150 422 2328 
Q 422 3509 836 4129 
Q 1250 4750 2034 4750 
z
" transform="scale(0.015625)"/>
        <path id="DejaVuSans-38" d="M 2034 2216 
Q 1584 2216 1326 1975 
Q 1069 1734 1069 1313 
Q 1069 891 1326 650 
Q 1584 409 2034 409 
Q 2484 409 2743 651 
Q 3003 894 3003 1313 
Q 3003 1734 2745 1975 
Q 2488 2216 2034 2216 
z
M 1403 2484 
Q 997 2584 770 2862 
Q 544 3141 544 3541 
Q 544 4100 942 4425 
Q 1341 4750 2034 4750 
Q 2731 4750 3128 4425 
Q 3525 4100 3525 3541 
Q 3525 3141 3298 2862 
Q 3072 2584 2669 2484 
Q 3125 2378 3379 2068 
Q 3634 1759 3634 1313 
Q 3634 634 3220 271 
Q 2806 -91 2034 -91 
Q 1263 -91 848 271 
Q 434 634 434 1313 
Q 434 1759 690 2068 
Q 947 2378 1403 2484 
z
M 1172 3481 
Q 1172 3119 1398 2916 
Q 1625 2713 2034 2713 
Q 2441 2713 2670 2916 
Q 2900 3119 2900 3481 
Q 2900 3844 2670 4047 
Q 2441 4250 2034 4250 
Q 1625 4250 1398 4047 
Q 1172 3844 1172 3481 
z
" transform="scale(0.015625)"/>
       </defs>
       <use xlink:href="#DejaVuSans-32"/>
       <use xlink:href="#DejaVuSans-30" transform="translate(63.623047 0)"/>
       <use xlink:href="#DejaVuSans-30" transform="translate(127.246094 0)"/>
       <use xlink:href="#DejaVuSans-38" transform="translate(190.869141 0)"/>
      </g>
     </g>
    </g>
    <g id="xtick_2">
     <g id="line2d_2">
      <g>
       <use xlink:href="#mbd64d54318" x="98.929039" y="307.584" style="stroke: #000000; stroke-width: 0.8"/>
      </g>
     </g>
     <g id="text_2">
      <!-- 2010 -->
      <g transform="translate(86.204039 322.182437) scale(0.1 -0.1)">
       <defs>
        <path id="DejaVuSans-31" d="M 794 531 
L 1825 531 
L 1825 4091 
L 703 3866 
L 703 4441 
L 1819 4666 
L 2450 4666 
L 2450 531 
L 3481 531 
L 3481 0 
L 794 0 
L 794 531 
z
" transform="scale(0.015625)"/>
       </defs>
       <use xlink:href="#DejaVuSans-32"/>
       <use xlink:href="#DejaVuSans-30" transform="translate(63.623047 0)"/>
       <use xlink:href="#DejaVuSans-31" transform="translate(127.246094 0)"/>
       <use xlink:href="#DejaVuSans-30" transform="translate(190.869141 0)"/>
      </g>
     </g>
    </g>
    <g id="xtick_3">
     <g id="line2d_3">
      <g>
       <use xlink:href="#mbd64d54318" x="136.54774" y="307.584" style="stroke: #000000; stroke-width: 0.8"/>
      </g>
     </g>
     <g id="text_3">
      <!-- 2012 -->
      <g transform="translate(123.82274 322.182437) scale(0.1 -0.1)">
       <use xlink:href="#DejaVuSans-32"/>
       <use xlink:href="#DejaVuSans-30" transform="translate(63.623047 0)"/>
       <use xlink:href="#DejaVuSans-31" transform="translate(127.246094 0)"/>
       <use xlink:href="#DejaVuSans-32" transform="translate(190.869141 0)"/>
      </g>
     </g>
    </g>
    <g id="xtick_4">
     <g id="line2d_4">
      <g>
       <use xlink:href="#mbd64d54318" x="174.217974" y="307.584" style="stroke: #000000; stroke-width: 0.8"/>
      </g>
     </g>
     <g id="text_4">
      <!-- 2014 -->
      <g transform="translate(161.492974 322.182437) scale(0.1 -0.1)">
       <defs>
        <path id="DejaVuSans-34" d="M 2419 4116 
L 825 1625 
L 2419 1625 
L 2419 4116 
z
M 2253 4666 
L 3047 4666 
L 3047 1625 
L 3713 1625 
L 3713 1100 
L 3047 1100 
L 3047 0 
L 2419 0 
L 2419 1100 
L 313 1100 
L 313 1709 
L 2253 4666 
z
" transform="scale(0.015625)"/>
       </defs>
       <use xlink:href="#DejaVuSans-32"/>
       <use xlink:href="#DejaVuSans-30" transform="translate(63.623047 0)"/>
       <use xlink:href="#DejaVuSans-31" transform="translate(127.246094 0)"/>
       <use xlink:href="#DejaVuSans-34" transform="translate(190.869141 0)"/>
      </g>
     </g>
    </g>
    <g id="xtick_5">
     <g id="line2d_5">
      <g>
       <use xlink:href="#mbd64d54318" x="211.836675" y="307.584" style="stroke: #000000; stroke-width: 0.8"/>
      </g>
     </g>
     <g id="text_5">
      <!-- 2016 -->
      <g transform="translate(199.111675 322.182437) scale(0.1 -0.1)">
       <defs>
        <path id="DejaVuSans-36" d="M 2113 2584 
Q 1688 2584 1439 2293 
Q 1191 2003 1191 1497 
Q 1191 994 1439 701 
Q 1688 409 2113 409 
Q 2538 409 2786 701 
Q 3034 994 3034 1497 
Q 3034 2003 2786 2293 
Q 2538 2584 2113 2584 
z
M 3366 4563 
L 3366 3988 
Q 3128 4100 2886 4159 
Q 2644 4219 2406 4219 
Q 1781 4219 1451 3797 
Q 1122 3375 1075 2522 
Q 1259 2794 1537 2939 
Q 1816 3084 2150 3084 
Q 2853 3084 3261 2657 
Q 3669 2231 3669 1497 
Q 3669 778 3244 343 
Q 2819 -91 2113 -91 
Q 1303 -91 875 529 
Q 447 1150 447 2328 
Q 447 3434 972 4092 
Q 1497 4750 2381 4750 
Q 2619 4750 2861 4703 
Q 3103 4656 3366 4563 
z
" transform="scale(0.015625)"/>
       </defs>
       <use xlink:href="#DejaVuSans-32"/>
       <use xlink:href="#DejaVuSans-30" transform="translate(63.623047 0)"/>
       <use xlink:href="#DejaVuSans-31" transform="translate(127.246094 0)"/>
       <use xlink:href="#DejaVuSans-36" transform="translate(190.869141 0)"/>
      </g>
     </g>
    </g>
    <g id="xtick_6">
     <g id="line2d_6">
      <g>
       <use xlink:href="#mbd64d54318" x="249.506909" y="307.584" style="stroke: #000000; stroke-width: 0.8"/>
      </g>
     </g>
     <g id="text_6">
      <!-- 2018 -->
      <g transform="translate(236.781909 322.182437) scale(0.1 -0.1)">
       <use xlink:href="#DejaVuSans-32"/>
       <use xlink:href="#DejaVuSans-30" transform="translate(63.623047 0)"/>
       <use xlink:href="#DejaVuSans-31" transform="translate(127.246094 0)"/>
       <use xlink:href="#DejaVuSans-38" transform="translate(190.869141 0)"/>
      </g>
     </g>
    </g>
    <g id="xtick_7">
     <g id="line2d_7">
      <g>
       <use xlink:href="#mbd64d54318" x="287.12561" y="307.584" style="stroke: #000000; stroke-width: 0.8"/>
      </g>
     </g>
     <g id="text_7">
      <!-- 2020 -->
      <g transform="translate(274.40061 322.182437) scale(0.1 -0.1)">
       <use xlink:href="#DejaVuSans-32"/>
       <use xlink:href="#DejaVuSans-30" transform="translate(63.623047 0)"/>
       <use xlink:href="#DejaVuSans-32" transform="translate(127.246094 0)"/>
       <use xlink:href="#DejaVuSans-30" transform="translate(190.869141 0)"/>
      </g>
     </g>
    </g>
    <g id="xtick_8">
     <g id="line2d_8">
      <g>
       <use xlink:href="#mbd64d54318" x="324.795844" y="307.584" style="stroke: #000000; stroke-width: 0.8"/>
      </g>
     </g>
     <g id="text_8">
      <!-- 2022 -->
      <g transform="translate(312.070844 322.182437) scale(0.1 -0.1)">
       <use xlink:href="#DejaVuSans-32"/>
       <use xlink:href="#DejaVuSans-30" transform="translate(63.623047 0)"/>
       <use xlink:href="#DejaVuSans-32" transform="translate(127.246094 0)"/>
       <use xlink:href="#DejaVuSans-32" transform="translate(190.869141 0)"/>
      </g>
     </g>
    </g>
    <g id="xtick_9">
     <g id="line2d_9">
      <g>
       <use xlink:href="#mbd64d54318" x="362.414545" y="307.584" style="stroke: #000000; stroke-width: 0.8"/>
      </g>
     </g>
     <g id="text_9">
      <!-- 2024 -->
      <g transform="translate(349.689545 322.182437) scale(0.1 -0.1)">
       <use xlink:href="#DejaVuSans-32"/>
       <use xlink:href="#DejaVuSans-30" transform="translate(63.623047 0)"/>
       <use xlink:href="#DejaVuSans-32" transform="translate(127.246094 0)"/>
       <use xlink:href="#DejaVuSans-34" transform="translate(190.869141 0)"/>
      </g>
     </g>
    </g>
    <g id="xtick_10">
     <g id="line2d_10">
      <g>
       <use xlink:href="#mbd64d54318" x="400.084779" y="307.584" style="stroke: #000000; stroke-width: 0.8"/>
      </g>
     </g>
     <g id="text_10">
      <!-- 2026 -->
      <g transform="translate(387.359779 322.182437) scale(0.1 -0.1)">
       <use xlink:href="#DejaVuSans-32"/>
       <use xlink:href="#DejaVuSans-30" transform="translate(63.623047 0)"/>
       <use xlink:href="#DejaVuSans-32" transform="translate(127.246094 0)"/>
       <use xlink:href="#DejaVuSans-36" transform="translate(190.869141 0)"/>
      </g>
     </g>
    </g>
    <g id="text_11">
     <!-- Updated 2025-12-07 05:37:38.117330 - Last record 2025-12-01 -->
     <g transform="translate(75.905312 335.860562) scale(0.1 -0.1)">
      <defs>
       <path id="DejaVuSans-55" d="M 556 4666 
L 1191 4666 
L 1191 1831 
Q 1191 1081 1462 751 
Q 1734 422 2344 422 
Q 2950 422 3222 751 
Q 3494 1081 3494 1831 
L 3494 4666 
L 4128 4666 
L 4128 1753 
Q 4128 841 3676 375 
Q 3225 -91 2344 -91 
Q 1459 -91 1007 375 
Q 556 841 556 1753 
L 556 4666 
z
" transform="scale(0.015625)"/>
       <path id="DejaVuSans-70" d="M 1159 525 
L 1159 -1331 
L 581 -1331 
L 581 3500 
L 1159 3500 
L 1159 2969 
Q 1341 3281 1617 3432 
Q 1894 3584 2278 3584 
Q 2916 3584 3314 3078 
Q 3713 2572 3713 1747 
Q 3713 922 3314 415 
Q 2916 -91 2278 -91 
Q 1894 -91 1617 61 
Q 1341 213 1159 525 
z
M 3116 1747 
Q 3116 2381 2855 2742 
Q 2594 3103 2138 3103 
Q 1681 3103 1420 2742 
Q 1159 2381 1159 1747 
Q 1159 1113 1420 752 
Q 1681 391 2138 391 
Q 2594 391 2855 752 
Q 3116 1113 3116 1747 
z
" transform="scale(0.015625)"/>
       <path id="DejaVuSans-64" d="M 2906 2969 
L 2906 4863 
L 3481 4863 
L 3481 0 
L 2906 0 
L 2906 525 
Q 2725 213 2448 61 
Q 2172 -91 1784 -91 
Q 1150 -91 751 415 
Q 353 922 353 1747 
Q 353 2572 751 3078 
Q 1150 3584 1784 3584 
Q 2172 3584 2448 3432 
Q 2725 3281 2906 2969 
z
M 947 1747 
Q 947 1113 1208 752 
Q 1469 391 1925 391 
Q 2381 391 2643 752 
Q 2906 1113 2906 1747 
Q 2906 2381 2643 2742 
Q 2381 3103 1925 3103 
Q 1469 3103 1208 2742 
Q 947 2381 947 1747 
z
" transform="scale(0.015625)"/>
       <path id="DejaVuSans-61" d="M 2194 1759 
Q 1497 1759 1228 1600 
Q 959 1441 959 1056 
Q 959 750 1161 570 
Q 1363 391 1709 391 
Q 2188 391 2477 730 
Q 2766 1069 2766 1631 
L 2766 1759 
L 2194 1759 
z
M 3341 1997 
L 3341 0 
L 2766 0 
L 2766 531 
Q 2569 213 2275 61 
Q 1981 -91 1556 -91 
Q 1019 -91 701 211 
Q 384 513 384 1019 
Q 384 1609 779 1909 
Q 1175 2209 1959 2209 
L 2766 2209 
L 2766 2266 
Q 2766 2663 2505 2880 
Q 2244 3097 1772 3097 
Q 1472 3097 1187 3025 
Q 903 2953 641 2809 
L 641 3341 
Q 956 3463 1253 3523 
Q 1550 3584 1831 3584 
Q 2591 3584 2966 3190 
Q 3341 2797 3341 1997 
z
" transform="scale(0.015625)"/>
       <path id="DejaVuSans-74" d="M 1172 4494 
L 1172 3500 
L 2356 3500 
L 2356 3053 
L 1172 3053 
L 1172 1153 
Q 1172 725 1289 603 
Q 1406 481 1766 481 
L 2356 481 
L 2356 0 
L 1766 0 
Q 1100 0 847 248 
Q 594 497 594 1153 
L 594 3053 
L 172 3053 
L 172 3500 
L 594 3500 
L 594 4494 
L 1172 4494 
z
" transform="scale(0.015625)"/>
       <path id="DejaVuSans-65" d="M 3597 1894 
L 3597 1613 
L 953 1613 
Q 991 1019 1311 708 
Q 1631 397 2203 397 
Q 2534 397 2845 478 
Q 3156 559 3463 722 
L 3463 178 
Q 3153 47 2828 -22 
Q 2503 -91 2169 -91 
Q 1331 -91 842 396 
Q 353 884 353 1716 
Q 353 2575 817 3079 
Q 1281 3584 2069 3584 
Q 2775 3584 3186 3129 
Q 3597 2675 3597 1894 
z
M 3022 2063 
Q 3016 2534 2758 2815 
Q 2500 3097 2075 3097 
Q 1594 3097 1305 2825 
Q 1016 2553 972 2059 
L 3022 2063 
z
" transform="scale(0.015625)"/>
       <path id="DejaVuSans-20" transform="scale(0.015625)"/>
       <path id="DejaVuSans-35" d="M 691 4666 
L 3169 4666 
L 3169 4134 
L 1269 4134 
L 1269 2991 
Q 1406 3038 1543 3061 
Q 1681 3084 1819 3084 
Q 2600 3084 3056 2656 
Q 3513 2228 3513 1497 
Q 3513 744 3044 326 
Q 2575 -91 1722 -91 
Q 1428 -91 1123 -41 
Q 819 9 494 109 
L 494 744 
Q 775 591 1075 516 
Q 1375 441 1709 441 
Q 2250 441 2565 725 
Q 2881 1009 2881 1497 
Q 2881 1984 2565 2268 
Q 2250 2553 1709 2553 
Q 1456 2553 1204 2497 
Q 953 2441 691 2322 
L 691 4666 
z
" transform="scale(0.015625)"/>
       <path id="DejaVuSans-2d" d="M 313 2009 
L 1997 2009 
L 1997 1497 
L 313 1497 
L 313 2009 
z
" transform="scale(0.015625)"/>
       <path id="DejaVuSans-37" d="M 525 4666 
L 3525 4666 
L 3525 4397 
L 1831 0 
L 1172 0 
L 2766 4134 
L 525 4134 
L 525 4666 
z
" transform="scale(0.015625)"/>
       <path id="DejaVuSans-3a" d="M 750 794 
L 1409 794 
L 1409 0 
L 750 0 
L 750 794 
z
M 750 3309 
L 1409 3309 
L 1409 2516 
L 750 2516 
L 750 3309 
z
" transform="scale(0.015625)"/>
       <path id="DejaVuSans-33" d="M 2597 2516 
Q 3050 2419 3304 2112 
Q 3559 1806 3559 1356 
Q 3559 666 3084 287 
Q 2609 -91 1734 -91 
Q 1441 -91 1130 -33 
Q 819 25 488 141 
L 488 750 
Q 750 597 1062 519 
Q 1375 441 1716 441 
Q 2309 441 2620 675 
Q 2931 909 2931 1356 
Q 2931 1769 2642 2001 
Q 2353 2234 1838 2234 
L 1294 2234 
L 1294 2753 
L 1863 2753 
Q 2328 2753 2575 2939 
Q 2822 3125 2822 3475 
Q 2822 3834 2567 4026 
Q 2313 4219 1838 4219 
Q 1578 4219 1281 4162 
Q 984 4106 628 3988 
L 628 4550 
Q 988 4650 1302 4700 
Q 1616 4750 1894 4750 
Q 2613 4750 3031 4423 
Q 3450 4097 3450 3541 
Q 3450 3153 3228 2886 
Q 3006 2619 2597 2516 
z
" transform="scale(0.015625)"/>
       <path id="DejaVuSans-2e" d="M 684 794 
L 1344 794 
L 1344 0 
L 684 0 
L 684 794 
z
" transform="scale(0.015625)"/>
       <path id="DejaVuSans-4c" d="M 628 4666 
L 1259 4666 
L 1259 531 
L 3531 531 
L 3531 0 
L 628 0 
L 628 4666 
z
" transform="scale(0.015625)"/>
       <path id="DejaVuSans-73" d="M 2834 3397 
L 2834 2853 
Q 2591 2978 2328 3040 
Q 2066 3103 1784 3103 
Q 1356 3103 1142 2972 
Q 928 2841 928 2578 
Q 928 2378 1081 2264 
Q 1234 2150 1697 2047 
L 1894 2003 
Q 2506 1872 2764 1633 
Q 3022 1394 3022 966 
Q 3022 478 2636 193 
Q 2250 -91 1575 -91 
Q 1294 -91 989 -36 
Q 684 19 347 128 
L 347 722 
Q 666 556 975 473 
Q 1284 391 1588 391 
Q 1994 391 2212 530 
Q 2431 669 2431 922 
Q 2431 1156 2273 1281 
Q 2116 1406 1581 1522 
L 1381 1569 
Q 847 1681 609 1914 
Q 372 2147 372 2553 
Q 372 3047 722 3315 
Q 1072 3584 1716 3584 
Q 2034 3584 2315 3537 
Q 2597 3491 2834 3397 
z
" transform="scale(0.015625)"/>
       <path id="DejaVuSans-72" d="M 2631 2963 
Q 2534 3019 2420 3045 
Q 2306 3072 2169 3072 
Q 1681 3072 1420 2755 
Q 1159 2438 1159 1844 
L 1159 0 
L 581 0 
L 581 3500 
L 1159 3500 
L 1159 2956 
Q 1341 3275 1631 3429 
Q 1922 3584 2338 3584 
Q 2397 3584 2469 3576 
Q 2541 3569 2628 3553 
L 2631 2963 
z
" transform="scale(0.015625)"/>
       <path id="DejaVuSans-63" d="M 3122 3366 
L 3122 2828 
Q 2878 2963 2633 3030 
Q 2388 3097 2138 3097 
Q 1578 3097 1268 2742 
Q 959 2388 959 1747 
Q 959 1106 1268 751 
Q 1578 397 2138 397 
Q 2388 397 2633 464 
Q 2878 531 3122 666 
L 3122 134 
Q 2881 22 2623 -34 
Q 2366 -91 2075 -91 
Q 1284 -91 818 406 
Q 353 903 353 1747 
Q 353 2603 823 3093 
Q 1294 3584 2113 3584 
Q 2378 3584 2631 3529 
Q 2884 3475 3122 3366 
z
" transform="scale(0.015625)"/>
       <path id="DejaVuSans-6f" d="M 1959 3097 
Q 1497 3097 1228 2736 
Q 959 2375 959 1747 
Q 959 1119 1226 758 
Q 1494 397 1959 397 
Q 2419 397 2687 759 
Q 2956 1122 2956 1747 
Q 2956 2369 2687 2733 
Q 2419 3097 1959 3097 
z
M 1959 3584 
Q 2709 3584 3137 3096 
Q 3566 2609 3566 1747 
Q 3566 888 3137 398 
Q 2709 -91 1959 -91 
Q 1206 -91 779 398 
Q 353 888 353 1747 
Q 353 2609 779 3096 
Q 1206 3584 1959 3584 
z
" transform="scale(0.015625)"/>
      </defs>
      <use xlink:href="#DejaVuSans-55"/>
      <use xlink:href="#DejaVuSans-70" transform="translate(73.193359 0)"/>
      <use xlink:href="#DejaVuSans-64" transform="translate(136.669922 0)"/>
      <use xlink:href="#DejaVuSans-61" transform="translate(200.146484 0)"/>
      <use xlink:href="#DejaVuSans-74" transform="translate(261.425781 0)"/>
      <use xlink:href="#DejaVuSans-65" transform="translate(300.634766 0)"/>
      <use xlink:href="#DejaVuSans-64" transform="translate(362.158203 0)"/>
      <use xlink:href="#DejaVuSans-20" transform="translate(425.634766 0)"/>
      <use xlink:href="#DejaVuSans-32" transform="translate(457.421875 0)"/>
      <use xlink:href="#DejaVuSans-30" transform="translate(521.044922 0)"/>
      <use xlink:href="#DejaVuSans-32" transform="translate(584.667969 0)"/>
      <use xlink:href="#DejaVuSans-35" transform="translate(648.291016 0)"/>
      <use xlink:href="#DejaVuSans-2d" transform="translate(711.914062 0)"/>
      <use xlink:href="#DejaVuSans-31" transform="translate(747.998047 0)"/>
      <use xlink:href="#DejaVuSans-32" transform="translate(811.621094 0)"/>
      <use xlink:href="#DejaVuSans-2d" transform="translate(875.244141 0)"/>
      <use xlink:href="#DejaVuSans-30" transform="translate(911.328125 0)"/>
      <use xlink:href="#DejaVuSans-37" transform="translate(974.951172 0)"/>
      <use xlink:href="#DejaVuSans-20" transform="translate(1038.574219 0)"/>
      <use xlink:href="#DejaVuSans-30" transform="translate(1070.361328 0)"/>
      <use xlink:href="#DejaVuSans-35" transform="translate(1133.984375 0)"/>
      <use xlink:href="#DejaVuSans-3a" transform="translate(1197.607422 0)"/>
      <use xlink:href="#DejaVuSans-33" transform="translate(1231.298828 0)"/>
      <use xlink:href="#DejaVuSans-37" transform="translate(1294.921875 0)"/>
      <use xlink:href="#DejaVuSans-3a" transform="translate(1358.544922 0)"/>
      <use xlink:href="#DejaVuSans-33" transform="translate(1392.236328 0)"/>
      <use xlink:href="#DejaVuSans-38" transform="translate(1455.859375 0)"/>
      <use xlink:href="#DejaVuSans-2e" transform="translate(1519.482422 0)"/>
      <use xlink:href="#DejaVuSans-31" transform="translate(1551.269531 0)"/>
      <use xlink:href="#DejaVuSans-31" transform="translate(1614.892578 0)"/>
      <use xlink:href="#DejaVuSans-37" transform="translate(1678.515625 0)"/>
      <use xlink:href="#DejaVuSans-33" transform="translate(1742.138672 0)"/>
      <use xlink:href="#DejaVuSans-33" transform="translate(1805.761719 0)"/>
      <use xlink:href="#DejaVuSans-30" transform="translate(1869.384766 0)"/>
      <use xlink:href="#DejaVuSans-20" transform="translate(1933.007812 0)"/>
      <use xlink:href="#DejaVuSans-2d" transform="translate(1964.794922 0)"/>
      <use xlink:href="#DejaVuSans-20" transform="translate(2000.878906 0)"/>
      <use xlink:href="#DejaVuSans-4c" transform="translate(2032.666016 0)"/>
      <use xlink:href="#DejaVuSans-61" transform="translate(2088.378906 0)"/>
      <use xlink:href="#DejaVuSans-73" transform="translate(2149.658203 0)"/>
      <use xlink:href="#DejaVuSans-74" transform="translate(2201.757812 0)"/>
      <use xlink:href="#DejaVuSans-20" transform="translate(2240.966797 0)"/>
      <use xlink:href="#DejaVuSans-72" transform="translate(2272.753906 0)"/>
      <use xlink:href="#DejaVuSans-65" transform="translate(2311.617188 0)"/>
      <use xlink:href="#DejaVuSans-63" transform="translate(2373.140625 0)"/>
      <use xlink:href="#DejaVuSans-6f" transform="translate(2428.121094 0)"/>
      <use xlink:href="#DejaVuSans-72" transform="translate(2489.302734 0)"/>
      <use xlink:href="#DejaVuSans-64" transform="translate(2528.666016 0)"/>
      <use xlink:href="#DejaVuSans-20" transform="translate(2592.142578 0)"/>
      <use xlink:href="#DejaVuSans-32" transform="translate(2623.929688 0)"/>
      <use xlink:href="#DejaVuSans-30" transform="translate(2687.552734 0)"/>
      <use xlink:href="#DejaVuSans-32" transform="translate(2751.175781 0)"/>
      <use xlink:href="#DejaVuSans-35" transform="translate(2814.798828 0)"/>
      <use xlink:href="#DejaVuSans-2d" transform="translate(2878.421875 0)"/>
      <use xlink:href="#DejaVuSans-31" transform="translate(2914.505859 0)"/>
      <use xlink:href="#DejaVuSans-32" transform="translate(2978.128906 0)"/>
      <use xlink:href="#DejaVuSans-2d" transform="translate(3041.751953 0)"/>
      <use xlink:href="#DejaVuSans-30" transform="translate(3077.835938 0)"/>
      <use xlink:href="#DejaVuSans-31" transform="translate(3141.458984 0)"/>
     </g>
    </g>
   </g>
   <g id="matplotlib.axis_2">
    <g id="ytick_1">
     <g id="line2d_11">
      <defs>
       <path id="ma63cf9b22f" d="M 0 0 
L -3.5 0 
" style="stroke: #000000; stroke-width: 0.8"/>
      </defs>
      <g>
       <use xlink:href="#ma63cf9b22f" x="57.6" y="295.488" style="stroke: #000000; stroke-width: 0.8"/>
      </g>
     </g>
     <g id="text_12">
      <!-- 0 -->
      <g transform="translate(44.2375 299.287219) scale(0.1 -0.1)">
       <use xlink:href="#DejaVuSans-30"/>
      </g>
     </g>
    </g>
    <g id="ytick_2">
     <g id="line2d_12">
      <g>
       <use xlink:href="#ma63cf9b22f" x="57.6" y="246.945852" style="stroke: #000000; stroke-width: 0.8"/>
      </g>
     </g>
     <g id="text_13">
      <!-- 10 -->
      <g transform="translate(37.875 250.74507) scale(0.1 -0.1)">
       <use xlink:href="#DejaVuSans-31"/>
       <use xlink:href="#DejaVuSans-30" transform="translate(63.623047 0)"/>
      </g>
     </g>
    </g>
    <g id="ytick_3">
     <g id="line2d_13">
      <g>
       <use xlink:href="#ma63cf9b22f" x="57.6" y="198.403703" style="stroke: #000000; stroke-width: 0.8"/>
      </g>
     </g>
     <g id="text_14">
      <!-- 20 -->
      <g transform="translate(37.875 202.202922) scale(0.1 -0.1)">
       <use xlink:href="#DejaVuSans-32"/>
       <use xlink:href="#DejaVuSans-30" transform="translate(63.623047 0)"/>
      </g>
     </g>
    </g>
    <g id="ytick_4">
     <g id="line2d_14">
      <g>
       <use xlink:href="#ma63cf9b22f" x="57.6" y="149.861555" style="stroke: #000000; stroke-width: 0.8"/>
      </g>
     </g>
     <g id="text_15">
      <!-- 30 -->
      <g transform="translate(37.875 153.660774) scale(0.1 -0.1)">
       <use xlink:href="#DejaVuSans-33"/>
       <use xlink:href="#DejaVuSans-30" transform="translate(63.623047 0)"/>
      </g>
     </g>
    </g>
    <g id="ytick_5">
     <g id="line2d_15">
      <g>
       <use xlink:href="#ma63cf9b22f" x="57.6" y="101.319406" style="stroke: #000000; stroke-width: 0.8"/>
      </g>
     </g>
     <g id="text_16">
      <!-- 40 -->
      <g transform="translate(37.875 105.118625) scale(0.1 -0.1)">
       <use xlink:href="#DejaVuSans-34"/>
       <use xlink:href="#DejaVuSans-30" transform="translate(63.623047 0)"/>
      </g>
     </g>
    </g>
    <g id="ytick_6">
     <g id="line2d_16">
      <g>
       <use xlink:href="#ma63cf9b22f" x="57.6" y="52.777258" style="stroke: #000000; stroke-width: 0.8"/>
      </g>
     </g>
     <g id="text_17">
      <!-- 50 -->
      <g transform="translate(37.875 56.576477) scale(0.1 -0.1)">
       <use xlink:href="#DejaVuSans-35"/>
       <use xlink:href="#DejaVuSans-30" transform="translate(63.623047 0)"/>
      </g>
     </g>
    </g>
    <g id="text_18">
     <!-- IPv6 as % of total Google traffic -->
     <g transform="translate(31.795312 253.735813) rotate(-90) scale(0.1 -0.1)">
      <defs>
       <path id="DejaVuSans-49" d="M 628 4666 
L 1259 4666 
L 1259 0 
L 628 0 
L 628 4666 
z
" transform="scale(0.015625)"/>
       <path id="DejaVuSans-50" d="M 1259 4147 
L 1259 2394 
L 2053 2394 
Q 2494 2394 2734 2622 
Q 2975 2850 2975 3272 
Q 2975 3691 2734 3919 
Q 2494 4147 2053 4147 
L 1259 4147 
z
M 628 4666 
L 2053 4666 
Q 2838 4666 3239 4311 
Q 3641 3956 3641 3272 
Q 3641 2581 3239 2228 
Q 2838 1875 2053 1875 
L 1259 1875 
L 1259 0 
L 628 0 
L 628 4666 
z
" transform="scale(0.015625)"/>
       <path id="DejaVuSans-76" d="M 191 3500 
L 800 3500 
L 1894 563 
L 2988 3500 
L 3597 3500 
L 2284 0 
L 1503 0 
L 191 3500 
z
" transform="scale(0.015625)"/>
       <path id="DejaVuSans-25" d="M 4653 2053 
Q 4381 2053 4226 1822 
Q 4072 1591 4072 1178 
Q 4072 772 4226 539 
Q 4381 306 4653 306 
Q 4919 306 5073 539 
Q 5228 772 5228 1178 
Q 5228 1588 5073 1820 
Q 4919 2053 4653 2053 
z
M 4653 2450 
Q 5147 2450 5437 2106 
Q 5728 1763 5728 1178 
Q 5728 594 5436 251 
Q 5144 -91 4653 -91 
Q 4153 -91 3862 251 
Q 3572 594 3572 1178 
Q 3572 1766 3864 2108 
Q 4156 2450 4653 2450 
z
M 1428 4353 
Q 1159 4353 1004 4120 
Q 850 3888 850 3481 
Q 850 3069 1003 2837 
Q 1156 2606 1428 2606 
Q 1700 2606 1854 2837 
Q 2009 3069 2009 3481 
Q 2009 3884 1853 4118 
Q 1697 4353 1428 4353 
z
M 4250 4750 
L 4750 4750 
L 1831 -91 
L 1331 -91 
L 4250 4750 
z
M 1428 4750 
Q 1922 4750 2215 4408 
Q 2509 4066 2509 3481 
Q 2509 2891 2217 2550 
Q 1925 2209 1428 2209 
Q 931 2209 642 2551 
Q 353 2894 353 3481 
Q 353 4063 643 4406 
Q 934 4750 1428 4750 
z
" transform="scale(0.015625)"/>
       <path id="DejaVuSans-66" d="M 2375 4863 
L 2375 4384 
L 1825 4384 
Q 1516 4384 1395 4259 
Q 1275 4134 1275 3809 
L 1275 3500 
L 2222 3500 
L 2222 3053 
L 1275 3053 
L 1275 0 
L 697 0 
L 697 3053 
L 147 3053 
L 147 3500 
L 697 3500 
L 697 3744 
Q 697 4328 969 4595 
Q 1241 4863 1831 4863 
L 2375 4863 
z
" transform="scale(0.015625)"/>
       <path id="DejaVuSans-6c" d="M 603 4863 
L 1178 4863 
L 1178 0 
L 603 0 
L 603 4863 
z
" transform="scale(0.015625)"/>
       <path id="DejaVuSans-47" d="M 3809 666 
L 3809 1919 
L 2778 1919 
L 2778 2438 
L 4434 2438 
L 4434 434 
Q 4069 175 3628 42 
Q 3188 -91 2688 -91 
Q 1594 -91 976 548 
Q 359 1188 359 2328 
Q 359 3472 976 4111 
Q 1594 4750 2688 4750 
Q 3144 4750 3555 4637 
Q 3966 4525 4313 4306 
L 4313 3634 
Q 3963 3931 3569 4081 
Q 3175 4231 2741 4231 
Q 1884 4231 1454 3753 
Q 1025 3275 1025 2328 
Q 1025 1384 1454 906 
Q 1884 428 2741 428 
Q 3075 428 3337 486 
Q 3600 544 3809 666 
z
" transform="scale(0.015625)"/>
       <path id="DejaVuSans-67" d="M 2906 1791 
Q 2906 2416 2648 2759 
Q 2391 3103 1925 3103 
Q 1463 3103 1205 2759 
Q 947 2416 947 1791 
Q 947 1169 1205 825 
Q 1463 481 1925 481 
Q 2391 481 2648 825 
Q 2906 1169 2906 1791 
z
M 3481 434 
Q 3481 -459 3084 -895 
Q 2688 -1331 1869 -1331 
Q 1566 -1331 1297 -1286 
Q 1028 -1241 775 -1147 
L 775 -588 
Q 1028 -725 1275 -790 
Q 1522 -856 1778 -856 
Q 2344 -856 2625 -561 
Q 2906 -266 2906 331 
L 2906 616 
Q 2728 306 2450 153 
Q 2172 0 1784 0 
Q 1141 0 747 490 
Q 353 981 353 1791 
Q 353 2603 747 3093 
Q 1141 3584 1784 3584 
Q 2172 3584 2450 3431 
Q 2728 3278 2906 2969 
L 2906 3500 
L 3481 3500 
L 3481 434 
z
" transform="scale(0.015625)"/>
       <path id="DejaVuSans-69" d="M 603 3500 
L 1178 3500 
L 1178 0 
L 603 0 
L 603 3500 
z
M 603 4863 
L 1178 4863 
L 1178 4134 
L 603 4134 
L 603 4863 
z
" transform="scale(0.015625)"/>
      </defs>
      <use xlink:href="#DejaVuSans-49"/>
      <use xlink:href="#DejaVuSans-50" transform="translate(29.492188 0)"/>
      <use xlink:href="#DejaVuSans-76" transform="translate(89.794922 0)"/>
      <use xlink:href="#DejaVuSans-36" transform="translate(148.974609 0)"/>
      <use xlink:href="#DejaVuSans-20" transform="translate(212.597656 0)"/>
      <use xlink:href="#DejaVuSans-61" transform="translate(244.384766 0)"/>
      <use xlink:href="#DejaVuSans-73" transform="translate(305.664062 0)"/>
      <use xlink:href="#DejaVuSans-20" transform="translate(357.763672 0)"/>
      <use xlink:href="#DejaVuSans-25" transform="translate(389.550781 0)"/>
      <use xlink:href="#DejaVuSans-20" transform="translate(484.570312 0)"/>
      <use xlink:href="#DejaVuSans-6f" transform="translate(516.357422 0)"/>
      <use xlink:href="#DejaVuSans-66" transform="translate(577.539062 0)"/>
      <use xlink:href="#DejaVuSans-20" transform="translate(612.744141 0)"/>
      <use xlink:href="#DejaVuSans-74" transform="translate(644.53125 0)"/>
      <use xlink:href="#DejaVuSans-6f" transform="translate(683.740234 0)"/>
      <use xlink:href="#DejaVuSans-74" transform="translate(744.921875 0)"/>
      <use xlink:href="#DejaVuSans-61" transform="translate(784.130859 0)"/>
      <use xlink:href="#DejaVuSans-6c" transform="translate(845.410156 0)"/>
      <use xlink:href="#DejaVuSans-20" transform="translate(873.193359 0)"/>
      <use xlink:href="#DejaVuSans-47" transform="translate(904.980469 0)"/>
      <use xlink:href="#DejaVuSans-6f" transform="translate(982.470703 0)"/>
      <use xlink:href="#DejaVuSans-6f" transform="translate(1043.652344 0)"/>
      <use xlink:href="#DejaVuSans-67" transform="translate(1104.833984 0)"/>
      <use xlink:href="#DejaVuSans-6c" transform="translate(1168.310547 0)"/>
      <use xlink:href="#DejaVuSans-65" transform="translate(1196.09375 0)"/>
      <use xlink:href="#DejaVuSans-20" transform="translate(1257.617188 0)"/>
      <use xlink:href="#DejaVuSans-74" transform="translate(1289.404297 0)"/>
      <use xlink:href="#DejaVuSans-72" transform="translate(1328.613281 0)"/>
      <use xlink:href="#DejaVuSans-61" transform="translate(1369.726562 0)"/>
      <use xlink:href="#DejaVuSans-66" transform="translate(1431.005859 0)"/>
      <use xlink:href="#DejaVuSans-66" transform="translate(1466.210938 0)"/>
      <use xlink:href="#DejaVuSans-69" transform="translate(1501.416016 0)"/>
      <use xlink:href="#DejaVuSans-63" transform="translate(1529.199219 0)"/>
     </g>
    </g>
   </g>
   <g id="line2d_17">
    <path d="M 73.832727 294.603596 
L 75.275636 294.453703 
L 75.636364 294.596436 
L 77.44 294.569612 
L 78.522182 294.465702 
L 78.882909 294.350648 
L 79.965091 294.369735 
L 83.211636 294.300848 
L 84.293818 294.326076 
L 85.736727 294.257544 
L 88.622545 294.316964 
L 89.344 294.392025 
L 91.869091 294.34309 
L 93.312 294.255961 
L 94.033455 294.263917 
L 94.394182 294.027595 
L 96.558545 293.94653 
L 97.640727 293.949923 
L 98.722909 294.036231 
L 99.805091 293.993246 
L 100.887273 294.036483 
L 102.690909 294.006746 
L 103.773091 294.178906 
L 104.855273 294.131325 
L 105.576727 294.207657 
L 106.298182 294.28064 
L 106.658909 294.207832 
L 108.823273 294.406753 
L 110.626909 294.327993 
L 111.709091 294.153974 
L 112.430545 294.150101 
L 115.316364 294.152707 
L 115.677091 294.175299 
L 116.037818 294.059327 
L 118.202182 294.274437 
L 121.088 294.119471 
L 121.448727 294.124655 
L 121.809455 294.01427 
L 122.530909 294.106602 
L 123.252364 293.935219 
L 123.613091 293.977825 
L 123.973818 293.87261 
L 124.334545 293.918676 
L 125.056 293.820771 
L 126.138182 293.806835 
L 126.498909 293.927632 
L 127.941818 293.954918 
L 128.663273 293.967888 
L 129.024 293.933583 
L 129.745455 293.728488 
L 130.106182 293.614254 
L 132.631273 293.75088 
L 135.156364 293.309191 
L 135.877818 293.443249 
L 138.763636 293.016525 
L 139.124364 293.113721 
L 141.288727 292.648847 
L 142.010182 292.664056 
L 143.092364 292.349507 
L 144.896 291.912982 
L 145.978182 291.800763 
L 146.338909 291.89243 
L 148.142545 291.547645 
L 149.224727 291.206976 
L 149.585455 291.258518 
L 149.946182 290.952693 
L 150.667636 290.769659 
L 151.028364 290.817216 
L 151.749818 290.62729 
L 152.110545 290.770737 
L 152.832 290.59749 
L 153.192727 290.554516 
L 153.914182 290.238696 
L 154.635636 290.182241 
L 154.996364 290.213541 
L 155.357091 290.123034 
L 155.717818 290.167086 
L 156.439273 289.976932 
L 157.521455 289.83682 
L 157.882182 289.653627 
L 158.242909 289.635958 
L 158.603636 289.730683 
L 160.046545 289.045826 
L 160.407273 289.061515 
L 161.850182 288.630868 
L 162.210909 288.342266 
L 163.653818 288.001587 
L 164.375273 287.687961 
L 164.736 287.765512 
L 165.096727 287.54964 
L 165.457455 287.5117 
L 167.261091 286.497533 
L 168.343273 285.958982 
L 169.064727 285.212661 
L 169.786182 284.311617 
L 170.146909 284.524479 
L 170.507636 284.561303 
L 171.589818 283.291644 
L 171.950545 283.139402 
L 172.311273 282.497641 
L 173.393455 282.11558 
L 173.754182 281.870282 
L 174.114909 281.9148 
L 175.197091 281.213992 
L 175.557818 281.065142 
L 175.918545 280.789869 
L 176.64 280.724643 
L 177.000727 280.101052 
L 177.361455 280.092833 
L 177.722182 279.407239 
L 178.082909 279.052172 
L 178.804364 279.154082 
L 179.165091 278.900245 
L 179.525818 278.509233 
L 180.247273 278.054063 
L 180.608 277.647154 
L 180.968727 277.896631 
L 182.411636 277.098263 
L 182.772364 276.803064 
L 183.133091 275.589981 
L 183.493818 275.820095 
L 184.215273 274.996354 
L 184.576 274.960987 
L 184.936727 275.317097 
L 186.018909 274.506802 
L 186.379636 273.957091 
L 187.101091 273.999473 
L 187.461818 273.404672 
L 187.822545 273.363731 
L 188.183273 270.212603 
L 188.544 272.285882 
L 188.904727 273.520969 
L 189.265455 272.920828 
L 189.626182 272.585455 
L 189.986909 272.531408 
L 190.347636 271.742098 
L 190.708364 271.494776 
L 191.790545 269.781602 
L 192.151273 268.663002 
L 192.512 268.024537 
L 192.872727 267.157725 
L 193.233455 266.585422 
L 193.594182 267.499413 
L 193.954909 267.359539 
L 194.315636 267.384844 
L 194.676364 267.532494 
L 195.037091 267.808194 
L 195.397818 267.703008 
L 195.758545 265.68733 
L 196.119273 265.985475 
L 197.201455 264.923344 
L 197.562182 264.780387 
L 198.283636 264.84324 
L 198.644364 263.31956 
L 199.005091 263.264067 
L 199.726545 262.061614 
L 200.087273 262.471577 
L 200.448 260.594787 
L 200.808727 261.038395 
L 201.169455 259.771449 
L 201.530182 259.16477 
L 201.890909 258.253818 
L 202.251636 258.886419 
L 202.612364 257.928153 
L 202.973091 256.333961 
L 203.333818 257.137285 
L 203.694545 257.366293 
L 204.055273 256.871444 
L 204.416 255.413772 
L 204.776727 255.818686 
L 205.137455 254.531708 
L 205.498182 254.828174 
L 206.580364 252.213078 
L 207.662545 251.937009 
L 208.023273 250.921682 
L 208.384 251.045236 
L 208.744727 250.664355 
L 209.105455 249.658052 
L 209.466182 249.402647 
L 210.187636 247.506106 
L 210.548364 247.370163 
L 210.909091 247.560026 
L 211.269818 247.069221 
L 211.630545 244.978414 
L 212.352 246.204812 
L 212.712727 245.969227 
L 213.434182 245.898632 
L 213.794909 245.94017 
L 214.516364 245.687906 
L 214.877091 244.511545 
L 215.237818 244.455858 
L 215.598545 243.412605 
L 215.959273 243.409673 
L 216.32 243.251192 
L 217.402182 240.267399 
L 217.762909 238.509979 
L 218.123636 239.71012 
L 218.484364 239.207092 
L 218.845091 238.167344 
L 219.205818 238.398783 
L 219.566545 236.178941 
L 219.927273 236.50462 
L 220.288 236.23243 
L 220.648727 234.683503 
L 221.009455 234.668843 
L 221.370182 233.514288 
L 221.730909 233.792284 
L 222.091636 232.879089 
L 222.452364 232.393974 
L 222.813091 232.651699 
L 223.173818 232.026403 
L 223.534545 231.050905 
L 223.895273 231.362744 
L 224.256 230.900094 
L 224.616727 229.364963 
L 224.977455 228.722993 
L 225.338182 228.783045 
L 225.698909 226.987854 
L 226.059636 227.307096 
L 226.781091 225.168936 
L 227.141818 223.035315 
L 227.502545 223.246196 
L 228.224 222.046448 
L 228.584727 220.70216 
L 228.945455 220.881873 
L 229.306182 220.318498 
L 229.666909 218.192973 
L 230.027636 217.447225 
L 230.388364 213.923201 
L 230.749091 216.214395 
L 231.109818 215.798991 
L 231.470545 216.345396 
L 231.831273 215.703761 
L 232.552727 216.74583 
L 232.913455 216.538089 
L 233.274182 215.624618 
L 233.634909 215.899337 
L 234.356364 214.735913 
L 234.717091 213.771885 
L 235.077818 213.619002 
L 235.438545 212.967333 
L 235.799273 210.623937 
L 236.16 211.359287 
L 236.520727 208.216804 
L 236.881455 208.460059 
L 237.242182 206.751924 
L 237.602909 205.699088 
L 238.685091 203.762718 
L 239.045818 202.178045 
L 239.406545 199.565365 
L 239.767273 200.225126 
L 241.210182 197.249478 
L 241.570909 196.7601 
L 241.931636 196.778624 
L 242.292364 197.048241 
L 242.653091 196.122421 
L 243.013818 194.82488 
L 243.374545 195.987299 
L 243.735273 196.009736 
L 244.096 197.045319 
L 244.456727 195.911996 
L 244.817455 194.149979 
L 245.178182 194.375758 
L 245.538909 193.615064 
L 246.621091 192.405331 
L 247.342545 191.516742 
L 247.703273 191.420488 
L 248.064 204.304705 
L 248.424727 189.784831 
L 248.785455 189.087916 
L 249.146182 185.566902 
L 249.506909 188.83358 
L 250.228364 188.356255 
L 250.589091 188.353945 
L 250.949818 187.916789 
L 251.310545 187.701354 
L 251.671273 188.898126 
L 252.032 189.656835 
L 252.392727 189.472395 
L 252.753455 188.44451 
L 253.114182 188.518318 
L 254.196364 187.653981 
L 254.557091 185.344783 
L 254.917818 186.25623 
L 255.278545 183.810599 
L 255.639273 184.841828 
L 256 182.789048 
L 256.360727 181.507308 
L 256.721455 182.263055 
L 257.082182 180.691207 
L 257.442909 179.647522 
L 257.803636 179.425597 
L 258.164364 180.278847 
L 258.525091 180.728934 
L 259.607273 178.42377 
L 259.968 178.953893 
L 260.328727 179.717864 
L 260.689455 179.866005 
L 261.050182 178.117629 
L 261.410909 177.466407 
L 261.771636 176.198995 
L 262.493091 175.709225 
L 262.853818 175.841856 
L 263.214545 175.674677 
L 263.936 173.933684 
L 264.296727 174.949409 
L 264.657455 171.731812 
L 265.018182 171.814572 
L 265.378909 171.422205 
L 265.739636 169.075459 
L 266.100364 168.371336 
L 266.461091 167.948117 
L 266.821818 167.951199 
L 267.182545 166.678924 
L 267.543273 166.592194 
L 268.264727 164.580588 
L 268.625455 165.908361 
L 268.986182 166.763586 
L 269.707636 164.726923 
L 270.068364 165.725833 
L 270.429091 165.543188 
L 270.789818 165.978 
L 271.150545 164.440704 
L 271.511273 163.904323 
L 271.872 165.066572 
L 272.232727 163.398198 
L 272.593455 163.531689 
L 272.954182 163.055787 
L 273.675636 162.871297 
L 274.036364 159.575732 
L 274.397091 159.479735 
L 274.757818 159.739829 
L 275.118545 160.536949 
L 275.84 156.691105 
L 276.200727 154.994542 
L 276.561455 154.563925 
L 276.922182 154.711833 
L 277.282909 154.402192 
L 277.643636 152.716925 
L 278.004364 154.106687 
L 278.365091 152.626991 
L 278.725818 154.000108 
L 279.086545 153.015775 
L 279.447273 152.41994 
L 279.808 152.370252 
L 280.168727 152.437381 
L 280.529455 151.154237 
L 280.890182 151.300029 
L 281.250909 152.688761 
L 281.611636 152.218203 
L 281.972364 152.787845 
L 282.333091 153.020668 
L 282.693818 151.240924 
L 283.054545 152.306822 
L 283.415273 152.593245 
L 283.776 151.931795 
L 284.136727 151.527648 
L 284.497455 149.933412 
L 284.858182 150.269887 
L 285.218909 149.922907 
L 285.579636 150.037976 
L 285.940364 149.110899 
L 286.301091 148.705359 
L 286.661818 147.531915 
L 287.022545 147.019009 
L 287.383273 147.744122 
L 287.744 147.959717 
L 288.104727 148.00822 
L 288.826182 146.339487 
L 289.186909 146.739533 
L 289.547636 145.522683 
L 289.908364 146.049341 
L 290.269091 145.821746 
L 290.629818 144.980079 
L 290.990545 145.185766 
L 291.351273 145.763952 
L 291.712 145.500368 
L 292.072727 145.514144 
L 292.433455 143.327821 
L 293.154909 141.771234 
L 293.515636 142.02824 
L 293.876364 141.484064 
L 294.237091 139.672912 
L 294.597818 140.258792 
L 294.958545 137.659801 
L 295.319273 139.739755 
L 295.68 138.017902 
L 296.040727 135.664151 
L 296.401455 136.352692 
L 296.762182 134.883011 
L 297.122909 133.8913 
L 297.483636 133.98617 
L 297.844364 133.242155 
L 298.205091 135.107339 
L 298.565818 133.553471 
L 298.926545 134.136112 
L 299.287273 134.477956 
L 300.369455 132.093896 
L 300.730182 134.078808 
L 301.090909 134.118579 
L 301.451636 133.241116 
L 301.812364 133.738329 
L 302.173091 134.943829 
L 302.533818 134.006272 
L 302.894545 131.824807 
L 303.255273 135.446294 
L 303.616 134.470757 
L 303.976727 133.058734 
L 304.337455 134.243245 
L 304.698182 134.328829 
L 305.058909 132.394493 
L 305.419636 131.431179 
L 305.780364 129.665201 
L 306.141091 130.526392 
L 306.501818 129.873942 
L 306.862545 130.075178 
L 307.223273 130.62801 
L 307.584 129.216332 
L 307.944727 128.637539 
L 308.305455 129.684079 
L 308.666182 129.423238 
L 309.026909 127.15862 
L 309.387636 126.660476 
L 309.748364 125.119234 
L 310.109091 127.650163 
L 310.469818 128.489549 
L 310.830545 127.664376 
L 311.191273 127.50657 
L 311.552 127.635984 
L 311.912727 123.172067 
L 312.273455 126.15622 
L 312.634182 124.436639 
L 313.355636 125.306519 
L 313.716364 121.078716 
L 314.077091 120.538393 
L 314.437818 118.837714 
L 314.798545 118.770027 
L 315.159273 120.308338 
L 315.52 118.186958 
L 315.880727 117.769962 
L 316.241455 116.674443 
L 316.602182 116.278257 
L 316.962909 115.033554 
L 317.323636 115.21965 
L 317.684364 118.237403 
L 318.045091 116.610057 
L 318.405818 115.579658 
L 318.766545 117.539338 
L 319.127273 116.455635 
L 319.488 116.074157 
L 319.848727 114.509546 
L 320.570182 116.999719 
L 320.930909 116.726238 
L 321.291636 117.116657 
L 321.652364 116.992957 
L 322.013091 115.590041 
L 322.373818 117.212135 
L 322.734545 115.263294 
L 323.095273 114.574102 
L 323.456 114.501896 
L 324.177455 112.075682 
L 324.538182 109.368394 
L 324.898909 111.214753 
L 325.259636 114.663308 
L 325.620364 110.778815 
L 325.981091 110.596335 
L 326.341818 113.203044 
L 327.063273 109.733576 
L 327.424 109.687199 
L 327.784727 110.419627 
L 328.145455 110.38974 
L 328.506182 110.95062 
L 328.866909 104.356863 
L 329.227636 103.652954 
L 329.588364 103.849515 
L 329.949091 102.501922 
L 330.309818 102.059922 
L 330.670545 99.716156 
L 331.031273 102.694241 
L 331.392 103.855438 
L 331.752727 101.307747 
L 332.113455 102.986533 
L 332.474182 100.131648 
L 332.834909 98.678049 
L 333.195636 95.151631 
L 333.556364 96.100528 
L 333.917091 90.875622 
L 334.638545 94.538136 
L 334.999273 96.210632 
L 335.36 94.687331 
L 335.720727 94.984481 
L 336.081455 95.623548 
L 336.442182 95.493436 
L 336.802909 97.35062 
L 337.163636 96.48489 
L 337.524364 95.12769 
L 337.885091 95.440734 
L 338.245818 94.049836 
L 338.606545 94.403223 
L 338.967273 92.702151 
L 339.328 93.902977 
L 339.688727 97.143063 
L 340.049455 94.962662 
L 340.410182 91.657072 
L 340.770909 94.396534 
L 341.131636 92.805157 
L 341.492364 94.458018 
L 341.853091 92.965492 
L 342.213818 92.944269 
L 343.296 87.198204 
L 343.656727 89.772686 
L 344.017455 89.575828 
L 344.378182 88.28716 
L 344.738909 88.666973 
L 345.099636 90.863059 
L 345.821091 88.96575 
L 346.181818 90.356308 
L 346.542545 89.573978 
L 346.903273 88.05806 
L 347.264 88.08754 
L 347.985455 85.572183 
L 348.346182 86.669605 
L 348.706909 86.651804 
L 349.067636 84.262938 
L 349.428364 85.49354 
L 350.149818 85.287144 
L 350.510545 83.960331 
L 350.871273 85.475473 
L 351.232 85.520063 
L 351.592727 82.853386 
L 351.953455 82.820727 
L 352.314182 81.558883 
L 352.674909 78.231358 
L 353.035636 79.661444 
L 353.757091 78.876697 
L 354.117818 78.735696 
L 354.478545 79.091724 
L 354.839273 77.858132 
L 355.2 79.305469 
L 355.921455 75.690997 
L 356.282182 77.132708 
L 356.642909 79.088952 
L 357.003636 79.853467 
L 357.364364 76.241193 
L 357.725091 78.391149 
L 358.085818 77.276141 
L 358.446545 81.170391 
L 358.807273 78.61254 
L 359.168 77.660172 
L 359.528727 79.825079 
L 359.889455 80.023796 
L 360.250182 81.175604 
L 360.610909 79.104578 
L 360.971636 81.311653 
L 361.332364 78.630394 
L 361.693091 78.303142 
L 362.053818 75.766771 
L 362.414545 78.953825 
L 362.775273 78.939714 
L 363.136 78.175559 
L 363.496727 78.257114 
L 363.857455 76.874289 
L 364.218182 77.945746 
L 364.578909 75.341726 
L 364.939636 75.988269 
L 365.300364 75.98958 
L 365.661091 85.009245 
L 366.382545 85.009245 
L 366.743273 73.791902 
L 367.104 73.740753 
L 367.464727 75.241225 
L 367.825455 74.828466 
L 368.186182 73.266778 
L 368.546909 73.653663 
L 368.907636 72.961064 
L 369.268364 70.643943 
L 369.629091 71.508183 
L 369.989818 66.814628 
L 370.350545 67.778753 
L 370.711273 66.418893 
L 371.072 66.783983 
L 371.432727 65.569517 
L 371.793455 69.40156 
L 372.154182 66.482008 
L 372.514909 67.455875 
L 372.875636 68.107907 
L 373.236364 69.547449 
L 373.597091 68.244117 
L 373.957818 69.423269 
L 374.679273 67.240983 
L 375.04 68.765275 
L 375.400727 69.459665 
L 375.761455 69.211668 
L 376.122182 73.268782 
L 376.482909 69.434326 
L 376.843636 69.945349 
L 377.204364 67.919379 
L 377.565091 70.205491 
L 377.925818 69.72955 
L 378.647273 69.458525 
L 379.008 67.330563 
L 379.368727 68.713665 
L 379.729455 67.531843 
L 380.090182 67.362052 
L 380.450909 68.060525 
L 380.811636 64.845778 
L 381.172364 68.505094 
L 381.533091 70.100703 
L 382.254545 67.822018 
L 382.615273 67.257347 
L 382.976 66.201638 
L 383.336727 65.859518 
L 383.697455 65.330481 
L 384.058182 63.089305 
L 384.418909 63.595861 
L 384.779636 62.866113 
L 385.140364 59.333895 
L 385.501091 60.355513 
L 385.861818 62.278738 
L 386.222545 61.01107 
L 386.583273 58.450724 
L 386.944 64.650381 
L 387.304727 60.955484 
L 387.665455 63.374009 
L 388.386909 60.571661 
L 388.747636 60.410438 
L 389.108364 57.721441 
L 389.469091 59.881601 
L 389.829818 54.905458 
L 390.190545 58.599418 
L 390.551273 56.29469 
L 390.912 54.915666 
L 391.272727 55.151595 
L 391.633455 53.925105 
L 391.994182 53.568 
L 392.354909 57.041264 
L 392.715636 57.035676 
L 393.076364 57.475395 
L 393.437091 56.772233 
L 394.158545 53.662856 
L 394.519273 54.539474 
L 394.88 54.350732 
L 395.240727 55.63525 
L 395.601455 56.144748 
L 395.962182 58.012995 
L 396.322909 56.103881 
L 396.683636 56.632835 
L 397.044364 56.863259 
L 397.405091 56.854677 
L 397.765818 58.910486 
L 398.126545 59.888518 
L 398.487273 82.485592 
L 398.487273 82.485592 
" clip-path="url(#p286a6877a5)" style="fill: none; stroke: #1f77b4; stroke-width: 1.5; stroke-linecap: square"/>
   </g>
   <g id="line2d_18">
    <path d="M 73.832727 294.835569 
L 75.636364 294.815458 
L 83.572364 294.589179 
L 84.654545 294.554937 
L 85.376 294.522866 
L 89.344 294.580024 
L 94.394182 294.50675 
L 94.754909 294.332974 
L 108.823273 294.507138 
L 110.626909 294.508162 
L 111.709091 294.355594 
L 113.152 294.332663 
L 115.316364 294.299033 
L 115.677091 294.361618 
L 116.037818 294.262791 
L 119.645091 294.406296 
L 121.088 294.307712 
L 122.530909 294.224647 
L 123.613091 294.053487 
L 124.695273 294.051482 
L 125.777455 293.932617 
L 126.498909 294.019823 
L 127.581091 294.081399 
L 129.384727 293.969082 
L 130.106182 293.809408 
L 131.188364 293.912191 
L 135.877818 293.587191 
L 136.238545 293.683878 
L 141.288727 293.079125 
L 142.731636 292.843793 
L 143.453091 292.850414 
L 144.535273 292.482916 
L 145.978182 292.225084 
L 146.338909 292.336547 
L 148.142545 292.14781 
L 150.306909 291.711984 
L 150.667636 291.566959 
L 151.389091 291.503418 
L 152.471273 291.266959 
L 153.192727 291.317094 
L 153.914182 291.079698 
L 154.635636 290.985298 
L 154.996364 290.768295 
L 156.078545 291.015283 
L 157.521455 290.583879 
L 157.882182 290.59967 
L 158.242909 290.443471 
L 159.325091 290.363658 
L 159.685818 290.140927 
L 161.489455 289.775463 
L 162.210909 289.638938 
L 162.932364 289.354156 
L 163.653818 289.261368 
L 164.375273 288.8807 
L 164.736 289.008487 
L 165.818182 288.558885 
L 166.539636 288.184135 
L 166.900364 287.900168 
L 167.621818 287.702902 
L 167.982545 287.79354 
L 168.704 287.654953 
L 169.786182 286.594491 
L 170.146909 286.339752 
L 170.507636 286.409783 
L 170.868364 286.273113 
L 171.950545 285.476852 
L 172.311273 285.342118 
L 173.032727 284.698857 
L 173.393455 284.610719 
L 173.754182 283.396714 
L 174.114909 283.51006 
L 174.475636 284.318796 
L 174.836364 284.230974 
L 175.557818 283.610406 
L 175.918545 284.171184 
L 176.279273 283.445081 
L 176.64 283.400423 
L 177.000727 283.174731 
L 177.361455 282.646854 
L 177.722182 282.673679 
L 178.443636 281.86517 
L 178.804364 281.889553 
L 179.165091 281.708908 
L 179.525818 281.053094 
L 179.886545 281.274539 
L 180.247273 280.778156 
L 180.608 280.927054 
L 180.968727 280.747861 
L 181.329455 280.82099 
L 181.690182 280.261692 
L 182.050909 280.28325 
L 182.411636 279.712651 
L 182.772364 279.811784 
L 183.493818 278.607458 
L 183.854545 278.369131 
L 184.215273 278.293337 
L 184.576 278.016924 
L 184.936727 277.989526 
L 185.297455 278.095334 
L 185.658182 278.075266 
L 186.740364 277.680114 
L 187.101091 277.80877 
L 187.822545 277.4763 
L 188.183273 276.903105 
L 188.544 275.616519 
L 188.904727 276.576892 
L 189.265455 276.893051 
L 189.626182 276.561145 
L 189.986909 276.753672 
L 190.347636 276.273358 
L 191.069091 275.652304 
L 191.429818 275.036615 
L 191.790545 274.650487 
L 192.151273 273.84158 
L 192.512 271.44754 
L 192.872727 269.914118 
L 193.233455 272.18574 
L 193.594182 272.784784 
L 193.954909 272.801259 
L 194.315636 273.040688 
L 194.676364 273.023446 
L 195.037091 273.343883 
L 195.397818 272.682607 
L 195.758545 272.798885 
L 196.119273 271.563832 
L 196.48 271.186422 
L 196.840727 271.400993 
L 197.562182 270.169396 
L 197.922909 270.502745 
L 198.283636 270.470605 
L 198.644364 270.073705 
L 199.005091 269.497636 
L 199.365818 269.197907 
L 199.726545 269.240391 
L 200.448 267.454725 
L 200.808727 266.929509 
L 201.169455 266.64726 
L 201.530182 265.618472 
L 201.890909 265.262149 
L 202.973091 263.187656 
L 203.333818 263.539854 
L 204.055273 263.193457 
L 204.776727 262.528381 
L 205.137455 262.817513 
L 205.858909 262.450869 
L 206.580364 261.53349 
L 207.662545 261.064568 
L 208.023273 261.067641 
L 208.384 260.105827 
L 208.744727 260.008947 
L 209.105455 260.035305 
L 209.466182 259.542714 
L 210.548364 257.103791 
L 210.909091 256.643748 
L 211.269818 254.423736 
L 211.630545 251.291602 
L 211.991273 255.938867 
L 212.352 256.951534 
L 212.712727 256.668786 
L 213.073455 256.170185 
L 213.434182 256.238037 
L 213.794909 256.494825 
L 214.516364 255.445766 
L 215.237818 254.967092 
L 215.598545 254.579935 
L 215.959273 253.474416 
L 216.32 253.217963 
L 216.680727 253.15529 
L 217.402182 252.17705 
L 217.762909 251.014237 
L 218.123636 250.289546 
L 218.484364 250.746265 
L 219.205818 249.317927 
L 219.566545 248.003949 
L 219.927273 247.621762 
L 220.288 247.434846 
L 221.009455 245.327699 
L 221.370182 243.686678 
L 221.730909 244.405321 
L 222.091636 244.269859 
L 222.813091 242.886825 
L 223.173818 242.74414 
L 223.534545 242.845035 
L 223.895273 243.983839 
L 224.256 243.39993 
L 224.616727 243.661242 
L 224.977455 243.04133 
L 225.338182 243.108716 
L 226.059636 241.480389 
L 226.420364 240.461354 
L 226.781091 240.657231 
L 227.502545 237.899042 
L 227.863273 238.552608 
L 228.224 238.044673 
L 228.584727 236.842604 
L 228.945455 236.753355 
L 229.306182 235.946584 
L 229.666909 235.487235 
L 230.027636 232.283186 
L 230.388364 224.890207 
L 230.749091 230.212295 
L 231.109818 233.050065 
L 231.470545 233.349837 
L 232.192 233.037439 
L 232.552727 233.124154 
L 232.913455 233.084432 
L 233.274182 232.201145 
L 233.634909 231.980696 
L 233.995636 232.255842 
L 234.717091 231.222458 
L 235.438545 229.367026 
L 235.799273 227.33479 
L 236.16 228.018448 
L 236.520727 227.917203 
L 236.881455 224.231514 
L 237.242182 225.039853 
L 237.963636 222.580717 
L 238.324364 220.214603 
L 238.685091 220.129329 
L 239.045818 219.805296 
L 239.767273 215.683781 
L 240.128 215.410338 
L 240.488727 214.801785 
L 240.849455 214.50459 
L 241.570909 212.152437 
L 241.931636 211.950807 
L 242.292364 211.881154 
L 242.653091 212.912408 
L 243.013818 213.031181 
L 243.735273 214.516362 
L 244.456727 215.002725 
L 244.817455 212.916655 
L 245.178182 212.390531 
L 245.538909 212.845507 
L 245.899636 211.916765 
L 246.260364 210.207896 
L 246.621091 211.695276 
L 246.981818 212.284889 
L 247.342545 210.52511 
L 247.703273 210.308655 
L 248.064 209.317614 
L 248.424727 204.304705 
L 248.785455 206.311996 
L 249.146182 198.021701 
L 249.867636 207.865558 
L 250.228364 206.588244 
L 250.589091 207.93025 
L 250.949818 207.432087 
L 251.310545 207.349332 
L 251.671273 206.04963 
L 252.032 208.243629 
L 252.392727 208.851211 
L 252.753455 208.282361 
L 253.114182 207.036327 
L 253.474909 206.611535 
L 253.835636 205.638901 
L 254.196364 205.57116 
L 254.557091 207.292805 
L 254.917818 206.308758 
L 255.278545 204.909409 
L 255.639273 202.942739 
L 256 202.75575 
L 256.360727 201.94247 
L 256.721455 202.041816 
L 257.082182 199.948227 
L 257.442909 199.899932 
L 257.803636 198.459041 
L 258.164364 198.22966 
L 258.525091 197.789961 
L 258.885818 196.413252 
L 259.607273 196.42463 
L 260.328727 195.86758 
L 260.689455 196.695602 
L 261.050182 195.291875 
L 261.410909 194.544568 
L 261.771636 197.220425 
L 262.132364 197.353426 
L 262.493091 197.226818 
L 262.853818 197.307626 
L 263.214545 197.240172 
L 263.575273 195.900351 
L 263.936 196.219855 
L 264.296727 196.760954 
L 264.657455 196.16375 
L 265.018182 193.422492 
L 265.378909 194.173779 
L 265.739636 193.799136 
L 266.100364 190.885054 
L 266.461091 192.3108 
L 267.543273 188.508823 
L 267.904 176.622079 
L 268.264727 181.181512 
L 268.625455 188.038945 
L 268.986182 189.297517 
L 269.707636 188.081706 
L 270.068364 186.88935 
L 270.429091 187.780783 
L 270.789818 187.527835 
L 271.150545 188.465975 
L 271.511273 186.348086 
L 271.872 188.21874 
L 272.593455 186.276273 
L 272.954182 186.248992 
L 273.314909 186.829328 
L 273.675636 184.401628 
L 274.036364 183.991132 
L 274.397091 181.958541 
L 274.757818 183.825205 
L 275.118545 185.012405 
L 275.479273 182.732458 
L 276.200727 176.374189 
L 276.561455 177.763786 
L 276.922182 176.619065 
L 277.282909 175.99389 
L 277.643636 174.509059 
L 278.004364 175.126452 
L 278.365091 175.299048 
L 278.725818 175.143908 
L 279.086545 174.650215 
L 279.447273 173.862837 
L 279.808 171.665232 
L 280.168727 174.441877 
L 280.529455 175.227958 
L 280.890182 175.375842 
L 281.250909 176.625264 
L 281.611636 177.31864 
L 282.333091 177.061206 
L 282.693818 177.542938 
L 283.054545 177.26501 
L 283.415273 177.89516 
L 284.136727 175.352619 
L 284.497455 176.952908 
L 284.858182 176.409251 
L 285.218909 175.056114 
L 285.579636 175.205595 
L 285.940364 174.553907 
L 286.301091 172.524821 
L 286.661818 161.30708 
L 287.022545 161.008434 
L 287.383273 171.988551 
L 287.744 173.528134 
L 288.104727 173.843337 
L 288.465455 172.783667 
L 288.826182 171.352475 
L 289.547636 169.748768 
L 289.908364 169.703352 
L 290.269091 170.235423 
L 290.629818 169.854265 
L 290.990545 161.292299 
L 291.351273 157.555471 
L 291.712 156.100308 
L 292.072727 157.185254 
L 293.154909 153.383438 
L 293.515636 153.650289 
L 293.876364 155.663803 
L 294.237091 153.818682 
L 294.597818 153.11449 
L 294.958545 154.761958 
L 295.319273 155.66771 
L 296.040727 152.819563 
L 296.401455 150.107984 
L 296.762182 149.902874 
L 297.122909 148.431202 
L 297.483636 149.702361 
L 297.844364 149.527604 
L 298.205091 150.532121 
L 298.565818 149.569588 
L 298.926545 149.577612 
L 299.287273 150.425726 
L 299.648 151.925484 
L 300.008727 151.208837 
L 300.369455 152.929666 
L 301.090909 153.051119 
L 301.451636 153.715287 
L 301.812364 152.505092 
L 302.173091 152.675907 
L 302.533818 151.718899 
L 302.894545 149.986764 
L 303.255273 151.962105 
L 303.616 152.359631 
L 303.976727 152.166399 
L 304.337455 154.3863 
L 304.698182 152.526786 
L 305.419636 145.009097 
L 305.780364 139.029365 
L 306.501818 147.975649 
L 306.862545 147.313524 
L 307.223273 148.139454 
L 307.584 147.116249 
L 308.305455 146.240136 
L 308.666182 146.370146 
L 309.026909 147.85955 
L 309.387636 147.491033 
L 309.748364 147.304888 
L 310.109091 145.554716 
L 310.469818 148.422329 
L 311.191273 145.722079 
L 311.552 147.757966 
L 311.912727 146.575349 
L 312.273455 143.49799 
L 312.634182 143.800335 
L 312.994909 141.970131 
L 313.355636 140.897699 
L 313.716364 142.58147 
L 314.077091 142.921897 
L 314.798545 136.188586 
L 315.159273 136.073954 
L 315.52 135.740848 
L 315.880727 135.058879 
L 316.241455 132.583026 
L 316.602182 133.889222 
L 316.962909 132.653485 
L 317.323636 132.748142 
L 317.684364 133.86781 
L 318.045091 136.607029 
L 318.405818 137.242184 
L 318.766545 137.287789 
L 319.127273 138.661906 
L 319.488 136.665979 
L 320.209455 137.732765 
L 320.570182 137.981568 
L 320.930909 137.777647 
L 321.291636 137.375053 
L 321.652364 139.539625 
L 322.013091 138.543691 
L 322.373818 139.019943 
L 322.734545 137.604726 
L 323.095273 138.585495 
L 323.816727 136.171664 
L 324.177455 131.360409 
L 324.538182 120.09449 
L 325.259636 131.356118 
L 325.620364 131.665351 
L 325.981091 133.244092 
L 326.341818 131.749984 
L 326.702545 134.268108 
L 327.063273 133.378466 
L 327.424 130.250275 
L 327.784727 131.963288 
L 328.145455 131.957419 
L 328.506182 134.057047 
L 328.866909 130.495233 
L 329.227636 124.467026 
L 329.588364 124.609682 
L 329.949091 134.103312 
L 330.309818 123.445651 
L 331.031273 120.287178 
L 331.392 123.652989 
L 331.752727 123.490557 
L 332.113455 122.265077 
L 332.474182 119.446486 
L 332.834909 120.031575 
L 333.556364 113.091941 
L 333.917091 113.792787 
L 334.277818 113.588876 
L 334.638545 111.355996 
L 334.999273 111.272872 
L 335.36 112.102501 
L 335.720727 110.958901 
L 336.081455 111.725037 
L 336.442182 111.817962 
L 336.802909 114.860943 
L 337.163636 115.619724 
L 337.885091 118.359065 
L 338.245818 116.477518 
L 338.606545 117.514334 
L 338.967273 117.634393 
L 339.328 115.034083 
L 339.688727 117.954369 
L 340.049455 118.765435 
L 340.410182 115.941219 
L 340.770909 115.177282 
L 341.131636 117.266711 
L 341.492364 114.054216 
L 341.853091 117.182136 
L 342.213818 117.458166 
L 342.574545 113.473234 
L 343.296 100.516029 
L 343.656727 107.14727 
L 344.017455 111.665447 
L 344.378182 111.597362 
L 344.738909 112.131 
L 345.099636 111.089169 
L 345.460364 111.211039 
L 345.821091 111.870479 
L 346.542545 109.754551 
L 346.903273 112.525051 
L 347.624727 105.886737 
L 347.985455 109.280236 
L 348.346182 105.363215 
L 348.706909 107.809749 
L 349.067636 108.410623 
L 349.428364 107.230238 
L 349.789091 104.325578 
L 350.149818 108.725108 
L 350.510545 108.579458 
L 350.871273 105.445188 
L 351.232 105.976482 
L 351.592727 105.446945 
L 351.953455 101.200512 
L 352.674909 97.01632 
L 353.035636 97.343834 
L 353.396364 97.18381 
L 353.757091 96.148891 
L 354.117818 97.42519 
L 354.478545 96.068496 
L 354.839273 96.983078 
L 355.2 95.708861 
L 356.282182 102.080601 
L 356.642909 101.107195 
L 357.003636 102.626297 
L 357.364364 102.203675 
L 357.725091 101.585272 
L 358.085818 101.308596 
L 358.446545 103.308305 
L 358.807273 103.936998 
L 359.168 101.406778 
L 359.528727 102.272502 
L 359.889455 104.554945 
L 360.250182 102.204956 
L 360.610909 103.769712 
L 360.971636 104.265905 
L 361.332364 102.882294 
L 361.693091 98.376243 
L 362.053818 87.213024 
L 362.775273 99.318635 
L 363.136 99.319504 
L 363.496727 101.680885 
L 363.857455 100.735003 
L 364.578909 97.697856 
L 364.939636 97.025635 
L 365.300364 99.301155 
L 365.661091 85.009245 
L 366.382545 85.009245 
L 366.743273 95.769787 
L 367.104 94.582606 
L 367.464727 95.018806 
L 367.825455 99.40604 
L 368.186182 98.74077 
L 368.546909 95.317092 
L 368.907636 96.231951 
L 369.268364 95.010029 
L 369.629091 95.857269 
L 369.989818 93.092818 
L 370.350545 88.075822 
L 370.711273 88.800401 
L 371.072 84.85306 
L 371.432727 85.661505 
L 371.793455 85.315788 
L 372.154182 85.844606 
L 372.514909 85.696024 
L 372.875636 85.04635 
L 373.236364 86.620242 
L 373.597091 86.42103 
L 373.957818 86.441151 
L 374.318545 89.87127 
L 374.679273 90.646838 
L 375.04 91.974087 
L 375.400727 92.807725 
L 376.482909 92.324216 
L 376.843636 92.697112 
L 377.204364 92.318547 
L 377.565091 92.793269 
L 377.925818 93.861915 
L 378.286545 91.368198 
L 378.647273 92.970288 
L 379.008 93.967188 
L 379.368727 88.806765 
L 379.729455 92.82372 
L 380.090182 91.249158 
L 380.450909 86.915344 
L 380.811636 78.270551 
L 381.172364 76.739895 
L 381.533091 89.200893 
L 381.893818 91.974975 
L 382.254545 89.687154 
L 382.615273 88.31096 
L 382.976 89.652466 
L 383.697455 87.557474 
L 384.058182 88.22638 
L 384.418909 85.176574 
L 384.779636 86.028421 
L 385.140364 84.485528 
L 385.501091 82.131156 
L 385.861818 80.533212 
L 386.222545 82.887661 
L 386.583273 81.735125 
L 386.944 82.999702 
L 387.304727 82.906418 
L 387.665455 86.089773 
L 388.026182 85.310221 
L 388.747636 79.602188 
L 389.108364 79.099709 
L 389.469091 80.080857 
L 389.829818 78.701105 
L 390.190545 75.114457 
L 390.551273 74.208413 
L 390.912 75.099452 
L 391.272727 70.732975 
L 391.633455 72.400417 
L 391.994182 72.189273 
L 392.354909 72.317851 
L 392.715636 72.813641 
L 393.437091 78.092474 
L 393.797818 79.421597 
L 394.88 76.986693 
L 395.240727 78.563454 
L 395.601455 77.886908 
L 395.962182 79.468518 
L 396.322909 81.926566 
L 396.683636 79.424888 
L 397.044364 81.510385 
L 397.405091 80.556391 
L 397.765818 82.961232 
L 398.126545 78.649636 
L 398.487273 82.485592 
L 398.487273 82.485592 
" clip-path="url(#p286a6877a5)" style="fill: none; stroke: #ff7f0e; stroke-width: 1.5; stroke-linecap: square"/>
   </g>
   <g id="line2d_19">
    <path d="M 73.832727 295.256027 
L 81.768727 295.217635 
L 82.129455 295.265391 
L 82.850909 295.179869 
L 85.015273 295.251308 
L 94.033455 295.227426 
L 94.394182 295.008845 
L 94.754909 295.183146 
L 121.448727 295.307205 
L 121.809455 295.233028 
L 122.530909 295.369955 
L 125.056 295.320102 
L 125.777455 295.337849 
L 126.138182 295.292074 
L 126.859636 295.394906 
L 127.941818 295.365795 
L 128.302545 295.420526 
L 129.384727 295.293118 
L 129.745455 295.378567 
L 130.827636 295.231125 
L 131.188364 295.349669 
L 134.074182 295.255401 
L 134.434909 295.239115 
L 134.795636 295.109357 
L 135.877818 295.344058 
L 136.599273 295.108366 
L 136.96 295.186626 
L 137.320727 295.080338 
L 139.124364 295.269177 
L 140.206545 294.90196 
L 140.567273 295.09227 
L 140.928 295.003423 
L 142.010182 295.173777 
L 142.370909 295.043534 
L 142.731636 295.086586 
L 143.453091 294.879505 
L 143.813818 294.928134 
L 144.535273 294.852797 
L 144.896 294.983157 
L 145.617455 294.840652 
L 145.978182 295.063679 
L 149.585455 294.826744 
L 149.946182 294.630906 
L 150.306909 294.581184 
L 151.028364 294.746077 
L 151.749818 294.705962 
L 152.110545 294.944585 
L 153.553455 294.652109 
L 154.635636 294.684943 
L 154.996364 294.933246 
L 156.078545 294.517007 
L 156.8 294.591543 
L 157.160727 294.536982 
L 157.521455 294.740941 
L 157.882182 294.541957 
L 158.603636 294.794177 
L 159.685818 294.445824 
L 160.768 294.536258 
L 161.128727 294.342294 
L 161.489455 294.467435 
L 162.210909 294.191328 
L 162.571636 294.328794 
L 162.932364 294.231292 
L 163.293091 294.295984 
L 164.014545 294.251831 
L 164.736 294.245025 
L 165.096727 294.146271 
L 165.457455 294.254622 
L 166.539636 294.09867 
L 166.900364 294.280262 
L 167.621818 294.140489 
L 167.982545 293.88324 
L 168.343273 293.765899 
L 168.704 293.481088 
L 169.425455 293.440764 
L 169.786182 293.205126 
L 170.146909 293.672728 
L 170.507636 293.63952 
L 170.868364 293.371257 
L 171.229091 293.322515 
L 171.589818 292.957716 
L 171.950545 293.15055 
L 172.311273 292.643522 
L 173.032727 293.086591 
L 173.393455 292.992861 
L 173.754182 293.961568 
L 174.114909 293.89274 
L 174.475636 292.816017 
L 174.836364 292.697768 
L 175.197091 292.739859 
L 175.557818 292.942736 
L 175.918545 292.106685 
L 176.279273 292.807954 
L 176.64 292.812221 
L 177.000727 292.414321 
L 177.361455 292.933979 
L 177.722182 292.22156 
L 178.082909 292.328212 
L 178.443636 292.725243 
L 179.165091 292.679337 
L 179.525818 292.944139 
L 179.886545 292.501842 
L 180.247273 292.763907 
L 180.608 292.208099 
L 180.968727 292.63677 
L 181.329455 292.384055 
L 181.690182 292.742679 
L 182.050909 292.564612 
L 182.411636 292.873612 
L 183.133091 291.964791 
L 183.493818 292.700637 
L 183.854545 292.581194 
L 184.215273 292.191017 
L 184.576 292.432063 
L 184.936727 292.81557 
L 185.297455 292.420204 
L 186.018909 292.080642 
L 186.379636 291.594138 
L 186.740364 291.829471 
L 187.101091 291.678703 
L 187.461818 291.26061 
L 187.822545 291.375432 
L 188.183273 288.797499 
L 188.544 292.157363 
L 188.904727 292.432078 
L 189.265455 291.515777 
L 189.626182 291.512311 
L 190.347636 290.956741 
L 190.708364 290.99688 
L 191.069091 290.737311 
L 191.429818 290.854531 
L 192.151273 290.309422 
L 192.512 292.064997 
L 192.872727 292.731607 
L 193.233455 289.887683 
L 193.594182 290.202629 
L 194.315636 289.832155 
L 194.676364 289.997048 
L 195.037091 289.952312 
L 195.397818 290.508401 
L 195.758545 288.376444 
L 196.119273 289.909643 
L 196.48 289.902483 
L 196.840727 289.27944 
L 197.201455 289.603002 
L 197.562182 290.098991 
L 197.922909 289.786356 
L 198.283636 289.860635 
L 198.644364 288.733855 
L 199.005091 289.254431 
L 199.365818 288.883816 
L 199.726545 288.309223 
L 200.087273 289.637006 
L 200.448 288.628062 
L 200.808727 289.596886 
L 201.169455 288.612189 
L 201.530182 289.034297 
L 201.890909 288.479669 
L 202.251636 289.828291 
L 202.612364 289.536233 
L 202.973091 288.634305 
L 203.694545 289.450541 
L 204.055273 289.165987 
L 204.416 288.094939 
L 204.776727 288.778305 
L 205.137455 287.202195 
L 205.498182 287.69615 
L 205.858909 286.89686 
L 206.580364 286.167587 
L 207.301818 286.305767 
L 207.662545 286.36044 
L 208.023273 285.342041 
L 208.384 286.427409 
L 208.744727 286.143408 
L 209.105455 285.110747 
L 209.466182 285.347934 
L 209.826909 285.115504 
L 210.187636 285.218166 
L 210.909091 286.404279 
L 211.269818 288.133486 
L 211.630545 289.174812 
L 211.991273 285.125382 
L 212.352 284.741278 
L 212.712727 284.788442 
L 213.073455 285.223326 
L 213.434182 285.148595 
L 213.794909 284.933345 
L 214.516364 285.73014 
L 214.877091 284.739647 
L 215.237818 284.976766 
L 215.598545 284.32067 
L 215.959273 285.423256 
L 216.32 285.521229 
L 216.680727 284.529426 
L 217.402182 283.578349 
L 217.762909 282.983742 
L 218.123636 284.908574 
L 218.484364 283.948827 
L 218.845091 283.646206 
L 219.205818 284.568856 
L 219.566545 283.662992 
L 219.927273 284.370858 
L 220.288 284.285584 
L 220.648727 283.859811 
L 221.009455 284.829144 
L 221.370182 285.315609 
L 221.730909 284.874963 
L 222.091636 284.097231 
L 222.452364 284.437841 
L 222.813091 285.252873 
L 223.173818 284.770263 
L 223.895273 282.866906 
L 224.256 282.988164 
L 224.616727 281.191721 
L 225.338182 281.162329 
L 225.698909 280.064378 
L 226.059636 281.314707 
L 226.420364 281.130145 
L 226.781091 279.999705 
L 227.141818 279.400991 
L 227.502545 280.835154 
L 227.863273 279.572112 
L 228.584727 279.347556 
L 229.306182 279.859914 
L 229.666909 278.193738 
L 230.027636 280.652039 
L 230.388364 284.520994 
L 231.109818 278.236926 
L 231.470545 278.483559 
L 231.831273 277.97025 
L 232.192 278.667748 
L 232.552727 279.109675 
L 232.913455 278.941656 
L 233.274182 278.911473 
L 233.634909 279.406642 
L 233.995636 278.591959 
L 234.356364 278.501777 
L 234.717091 278.037428 
L 235.077818 278.949661 
L 235.438545 279.088307 
L 235.799273 278.777147 
L 236.16 278.82884 
L 236.520727 275.787601 
L 236.881455 279.716544 
L 237.242182 277.200071 
L 237.602909 277.245181 
L 237.963636 277.972464 
L 238.324364 279.901335 
L 238.685091 279.121388 
L 239.045818 277.860749 
L 239.406545 277.39023 
L 239.767273 280.029345 
L 240.128 279.539147 
L 240.488727 279.54753 
L 240.849455 278.724304 
L 241.210182 279.576306 
L 241.570909 280.095663 
L 242.292364 280.655087 
L 243.013818 277.281699 
L 243.374545 277.569214 
L 243.735273 276.981374 
L 244.096 277.820449 
L 244.456727 276.397271 
L 244.817455 276.721324 
L 245.178182 277.473227 
L 245.538909 276.257557 
L 245.899636 276.7426 
L 246.260364 278.009011 
L 246.621091 276.198054 
L 246.981818 275.220401 
L 247.342545 276.479633 
L 247.703273 276.599833 
L 248.064 290.475091 
L 248.424727 280.968126 
L 248.785455 278.263921 
L 249.146182 283.033201 
L 249.506909 281.805929 
L 249.867636 276.187855 
L 250.228364 277.256011 
L 250.589091 275.911694 
L 250.949818 275.972702 
L 251.310545 275.840022 
L 251.671273 278.336496 
L 252.032 276.901207 
L 252.392727 276.109183 
L 252.753455 275.650149 
L 253.114182 276.969991 
L 253.474909 277.118243 
L 253.835636 277.784043 
L 254.196364 277.570821 
L 254.557091 273.539978 
L 254.917818 275.435472 
L 255.278545 274.389189 
L 255.639273 277.387089 
L 256 275.521299 
L 256.360727 275.052838 
L 257.082182 276.23098 
L 257.442909 275.23559 
L 258.164364 277.537186 
L 258.885818 279.03528 
L 259.607273 277.487139 
L 260.328727 279.338285 
L 260.689455 278.658403 
L 261.050182 278.313754 
L 261.410909 278.409838 
L 261.771636 274.46657 
L 262.132364 274.021298 
L 263.214545 273.922505 
L 263.575273 274.399189 
L 263.936 273.201829 
L 264.296727 273.676455 
L 264.657455 271.056062 
L 265.018182 273.880079 
L 265.378909 272.736426 
L 265.739636 270.764324 
L 266.100364 272.974283 
L 266.461091 271.125317 
L 266.821818 272.343701 
L 267.182545 272.382593 
L 267.543273 273.57137 
L 267.904 284.301384 
L 268.625455 273.357416 
L 269.707636 272.133217 
L 270.068364 274.324483 
L 270.429091 273.250405 
L 270.789818 273.938165 
L 271.150545 271.462729 
L 271.511273 273.044237 
L 272.232727 271.760074 
L 272.593455 272.743416 
L 273.314909 271.670261 
L 273.675636 273.957669 
L 274.036364 271.0726 
L 274.397091 273.009194 
L 274.757818 271.402624 
L 275.118545 271.012544 
L 275.479273 271.103162 
L 276.200727 274.108353 
L 276.561455 272.288139 
L 276.922182 273.580768 
L 277.282909 273.896302 
L 277.643636 273.695867 
L 278.004364 274.468235 
L 278.365091 272.815943 
L 278.725818 274.3442 
L 279.086545 273.853561 
L 279.447273 274.045103 
L 279.808 276.19302 
L 280.529455 271.414279 
L 280.890182 271.412187 
L 281.250909 271.551498 
L 281.611636 270.387564 
L 281.972364 271.073018 
L 282.333091 271.447462 
L 282.693818 269.185985 
L 283.054545 270.529812 
L 283.415273 270.186085 
L 284.136727 271.663028 
L 284.497455 268.468503 
L 285.218909 270.354793 
L 285.579636 270.320381 
L 285.940364 270.044992 
L 286.301091 271.668538 
L 286.661818 281.712835 
L 287.022545 281.498575 
L 287.383273 271.243571 
L 287.744 269.919583 
L 288.104727 269.652883 
L 288.465455 269.952913 
L 288.826182 270.475012 
L 289.186909 271.785714 
L 289.547636 271.261915 
L 289.908364 271.833989 
L 290.269091 271.074324 
L 290.629818 270.613814 
L 290.990545 279.381468 
L 291.351273 283.696481 
L 291.712 284.88806 
L 292.433455 282.808354 
L 293.154909 283.875796 
L 293.515636 283.865951 
L 293.876364 281.308261 
L 294.237091 281.342231 
L 294.597818 282.632301 
L 294.958545 278.385844 
L 295.319273 279.560044 
L 295.68 279.17879 
L 296.040727 278.332588 
L 296.401455 281.732708 
L 296.762182 280.468137 
L 297.122909 280.948097 
L 297.483636 279.77181 
L 297.844364 279.202551 
L 298.205091 280.063218 
L 298.565818 279.471882 
L 298.926545 280.0465 
L 299.287273 279.54023 
L 299.648 277.297704 
L 300.008727 277.38006 
L 300.369455 274.652229 
L 300.730182 276.541422 
L 301.090909 276.55546 
L 301.451636 275.01383 
L 301.812364 276.721237 
L 302.173091 277.755922 
L 302.533818 277.775373 
L 302.894545 277.326043 
L 303.255273 278.972189 
L 303.976727 276.380335 
L 304.337455 275.344945 
L 305.058909 278.686349 
L 305.780364 286.123836 
L 306.501818 277.386293 
L 306.862545 278.249654 
L 307.944727 277.511245 
L 308.305455 278.931943 
L 308.666182 278.541091 
L 309.026909 274.78707 
L 309.387636 274.657443 
L 309.748364 273.302345 
L 310.109091 277.583447 
L 310.469818 275.55522 
L 310.830545 276.25129 
L 311.191273 277.272491 
L 311.552 275.366017 
L 311.912727 272.084719 
L 312.273455 278.14623 
L 312.634182 276.124304 
L 312.994909 278.370058 
L 313.355636 279.89682 
L 313.716364 273.985246 
L 314.077091 273.104497 
L 314.437818 274.720319 
L 314.798545 278.069441 
L 315.159273 279.722384 
L 315.52 277.934111 
L 315.880727 278.199083 
L 316.241455 279.579418 
L 316.602182 277.877035 
L 317.323636 277.959508 
L 317.684364 279.857593 
L 318.045091 275.491028 
L 318.405818 273.825474 
L 318.766545 275.739549 
L 319.127273 273.281729 
L 319.488 274.896178 
L 319.848727 272.817055 
L 320.570182 274.506151 
L 320.930909 274.436591 
L 321.291636 275.229604 
L 321.652364 272.941332 
L 322.013091 272.53435 
L 322.373818 273.680192 
L 322.734545 273.146568 
L 323.095273 271.476607 
L 323.456 272.694461 
L 323.816727 272.678486 
L 324.177455 276.203272 
L 324.538182 284.761904 
L 324.898909 280.112328 
L 325.259636 278.79519 
L 325.620364 274.601464 
L 325.981091 272.840243 
L 326.341818 276.94106 
L 326.702545 272.682705 
L 327.063273 271.84311 
L 327.424 274.924925 
L 327.784727 273.944339 
L 328.145455 273.920321 
L 328.506182 272.381573 
L 328.866909 269.349631 
L 329.227636 274.673928 
L 329.588364 274.727834 
L 329.949091 263.88661 
L 330.309818 274.102271 
L 330.670545 273.162874 
L 331.031273 277.895063 
L 331.752727 273.30519 
L 332.113455 276.209457 
L 332.474182 276.173162 
L 332.834909 274.134474 
L 333.195636 274.246568 
L 333.556364 278.496588 
L 333.917091 272.570834 
L 334.277818 274.891333 
L 334.638545 278.670141 
L 334.999273 280.42576 
L 335.36 278.07283 
L 335.720727 279.51358 
L 336.442182 279.163475 
L 336.802909 277.977677 
L 337.163636 276.353166 
L 337.524364 273.727336 
L 337.885091 272.569669 
L 338.245818 273.060319 
L 338.606545 272.376889 
L 338.967273 270.555757 
L 339.328 274.356894 
L 339.688727 274.676695 
L 340.049455 271.685226 
L 340.410182 271.203853 
L 340.770909 274.707252 
L 341.131636 271.026446 
L 341.492364 275.891802 
L 341.853091 271.271356 
L 342.213818 270.974103 
L 342.574545 272.866296 
L 342.935273 276.790899 
L 343.296 282.170175 
L 344.017455 273.398381 
L 344.378182 272.177798 
L 344.738909 272.023973 
L 345.099636 275.26189 
L 345.821091 272.583271 
L 346.181818 275.124957 
L 346.542545 275.307427 
L 346.903273 271.02101 
L 347.264 274.730931 
L 347.624727 276.581561 
L 347.985455 271.779947 
L 348.346182 276.79439 
L 349.067636 271.340315 
L 349.789091 276.510044 
L 350.149818 272.050035 
L 350.510545 270.868874 
L 350.871273 275.518284 
L 351.232 275.031581 
L 351.592727 272.894441 
L 351.953455 277.108215 
L 352.314182 277.999434 
L 352.674909 276.703038 
L 353.035636 277.80561 
L 353.396364 277.593456 
L 353.757091 278.215806 
L 354.117818 276.798506 
L 354.478545 278.511228 
L 354.839273 276.363054 
L 355.2 279.084608 
L 355.921455 270.517317 
L 356.282182 270.540107 
L 356.642909 273.469757 
L 357.003636 272.71517 
L 357.364364 269.525518 
L 357.725091 272.293877 
L 358.085818 271.455544 
L 358.446545 273.350086 
L 358.807273 270.163542 
L 359.528727 273.040577 
L 359.889455 270.956852 
L 360.250182 274.458648 
L 360.610909 270.822866 
L 360.971636 272.533748 
L 361.332364 271.2361 
L 361.693091 275.414899 
L 362.053818 284.041747 
L 362.414545 281.981822 
L 362.775273 275.109079 
L 363.136 274.344055 
L 363.496727 272.064229 
L 363.857455 271.627287 
L 364.218182 274.405572 
L 364.578909 273.13187 
L 364.939636 274.450634 
L 365.300364 272.176424 
L 365.661091 295.488 
L 366.382545 295.488 
L 366.743273 273.510115 
L 367.464727 275.710419 
L 367.825455 270.910426 
L 368.186182 270.014008 
L 368.546909 273.824571 
L 368.907636 272.217113 
L 369.268364 271.121914 
L 369.629091 271.138914 
L 369.989818 269.20981 
L 370.350545 275.190931 
L 370.711273 273.106492 
L 371.072 277.418923 
L 371.432727 275.396012 
L 371.793455 279.573772 
L 372.154182 276.125401 
L 372.875636 278.549557 
L 373.236364 278.415207 
L 373.597091 277.311087 
L 373.957818 278.470118 
L 374.318545 274.064059 
L 374.679273 272.082146 
L 375.04 272.279188 
L 375.761455 272.084937 
L 376.122182 276.374015 
L 376.482909 272.59811 
L 376.843636 272.736237 
L 377.204364 271.088833 
L 377.565091 272.900222 
L 377.925818 271.355635 
L 378.286545 273.762466 
L 378.647273 271.976237 
L 379.008 268.851375 
L 379.368727 275.3949 
L 379.729455 270.196123 
L 380.090182 271.600894 
L 381.172364 287.253198 
L 381.533091 276.38781 
L 381.893818 272.476114 
L 382.615273 274.434387 
L 382.976 272.037172 
L 383.697455 273.261007 
L 384.058182 270.350924 
L 384.418909 273.907287 
L 385.140364 270.336366 
L 385.861818 277.233526 
L 386.222545 273.611408 
L 386.583273 272.203598 
L 386.944 277.13868 
L 387.304727 273.537066 
L 388.026182 272.007609 
L 388.386909 273.444821 
L 388.747636 276.29625 
L 389.108364 274.109732 
L 389.469091 275.288743 
L 389.829818 271.692352 
L 390.190545 278.972961 
L 390.551273 277.574277 
L 390.912 275.304214 
L 391.272727 279.906621 
L 391.633455 277.012688 
L 391.994182 276.866727 
L 392.354909 280.211412 
L 392.715636 279.710035 
L 393.076364 277.475868 
L 393.797818 271.068406 
L 394.158545 270.537923 
L 394.519273 272.240723 
L 394.88 272.852039 
L 395.240727 272.559796 
L 395.601455 273.745841 
L 395.962182 274.032477 
L 396.322909 269.665315 
L 396.683636 272.695947 
L 397.044364 270.840875 
L 397.405091 271.786286 
L 397.765818 271.437254 
L 398.126545 276.726882 
L 398.487273 295.488 
L 398.487273 295.488 
" clip-path="url(#p286a6877a5)" style="fill: none; stroke: #2ca02c; stroke-width: 1.5; stroke-linecap: square"/>
   </g>
   <g id="patch_3">
    <path d="M 57.6 307.584 
L 57.6 41.472 
" style="fill: none; stroke: #000000; stroke-width: 0.8; stroke-linejoin: miter; stroke-linecap: square"/>
   </g>
   <g id="patch_4">
    <path d="M 414.72 307.584 
L 414.72 41.472 
" style="fill: none; stroke: #000000; stroke-width: 0.8; stroke-linejoin: miter; stroke-linecap: square"/>
   </g>
   <g id="patch_5">
    <path d="M 57.6 307.584 
L 414.72 307.584 
" style="fill: none; stroke: #000000; stroke-width: 0.8; stroke-linejoin: miter; stroke-linecap: square"/>
   </g>
   <g id="patch_6">
    <path d="M 57.6 41.472 
L 414.72 41.472 
" style="fill: none; stroke: #000000; stroke-width: 0.8; stroke-linejoin: miter; stroke-linecap: square"/>
   </g>
   <g id="legend_1">
    <g id="patch_7">
     <path d="M 64.6 93.506375 
L 186.25625 93.506375 
Q 188.25625 93.506375 188.25625 91.506375 
L 188.25625 48.472 
Q 188.25625 46.472 186.25625 46.472 
L 64.6 46.472 
Q 62.6 46.472 62.6 48.472 
L 62.6 91.506375 
Q 62.6 93.506375 64.6 93.506375 
z
" style="fill: #ffffff; opacity: 0.8; stroke: #cccccc; stroke-linejoin: miter"/>
    </g>
    <g id="line2d_20">
     <path d="M 66.6 54.570438 
L 76.6 54.570438 
L 86.6 54.570438 
" style="fill: none; stroke: #1f77b4; stroke-width: 1.5; stroke-linecap: square"/>
    </g>
    <g id="text_19">
     <!-- Weekly maximum -->
     <g transform="translate(94.6 58.070438) scale(0.1 -0.1)">
      <defs>
       <path id="DejaVuSans-57" d="M 213 4666 
L 850 4666 
L 1831 722 
L 2809 4666 
L 3519 4666 
L 4500 722 
L 5478 4666 
L 6119 4666 
L 4947 0 
L 4153 0 
L 3169 4050 
L 2175 0 
L 1381 0 
L 213 4666 
z
" transform="scale(0.015625)"/>
       <path id="DejaVuSans-6b" d="M 581 4863 
L 1159 4863 
L 1159 1991 
L 2875 3500 
L 3609 3500 
L 1753 1863 
L 3688 0 
L 2938 0 
L 1159 1709 
L 1159 0 
L 581 0 
L 581 4863 
z
" transform="scale(0.015625)"/>
       <path id="DejaVuSans-79" d="M 2059 -325 
Q 1816 -950 1584 -1140 
Q 1353 -1331 966 -1331 
L 506 -1331 
L 506 -850 
L 844 -850 
Q 1081 -850 1212 -737 
Q 1344 -625 1503 -206 
L 1606 56 
L 191 3500 
L 800 3500 
L 1894 763 
L 2988 3500 
L 3597 3500 
L 2059 -325 
z
" transform="scale(0.015625)"/>
       <path id="DejaVuSans-6d" d="M 3328 2828 
Q 3544 3216 3844 3400 
Q 4144 3584 4550 3584 
Q 5097 3584 5394 3201 
Q 5691 2819 5691 2113 
L 5691 0 
L 5113 0 
L 5113 2094 
Q 5113 2597 4934 2840 
Q 4756 3084 4391 3084 
Q 3944 3084 3684 2787 
Q 3425 2491 3425 1978 
L 3425 0 
L 2847 0 
L 2847 2094 
Q 2847 2600 2669 2842 
Q 2491 3084 2119 3084 
Q 1678 3084 1418 2786 
Q 1159 2488 1159 1978 
L 1159 0 
L 581 0 
L 581 3500 
L 1159 3500 
L 1159 2956 
Q 1356 3278 1631 3431 
Q 1906 3584 2284 3584 
Q 2666 3584 2933 3390 
Q 3200 3197 3328 2828 
z
" transform="scale(0.015625)"/>
       <path id="DejaVuSans-78" d="M 3513 3500 
L 2247 1797 
L 3578 0 
L 2900 0 
L 1881 1375 
L 863 0 
L 184 0 
L 1544 1831 
L 300 3500 
L 978 3500 
L 1906 2253 
L 2834 3500 
L 3513 3500 
z
" transform="scale(0.015625)"/>
       <path id="DejaVuSans-75" d="M 544 1381 
L 544 3500 
L 1119 3500 
L 1119 1403 
Q 1119 906 1312 657 
Q 1506 409 1894 409 
Q 2359 409 2629 706 
Q 2900 1003 2900 1516 
L 2900 3500 
L 3475 3500 
L 3475 0 
L 2900 0 
L 2900 538 
Q 2691 219 2414 64 
Q 2138 -91 1772 -91 
Q 1169 -91 856 284 
Q 544 659 544 1381 
z
M 1991 3584 
L 1991 3584 
z
" transform="scale(0.015625)"/>
      </defs>
      <use xlink:href="#DejaVuSans-57"/>
      <use xlink:href="#DejaVuSans-65" transform="translate(93.001953 0)"/>
      <use xlink:href="#DejaVuSans-65" transform="translate(154.525391 0)"/>
      <use xlink:href="#DejaVuSans-6b" transform="translate(216.048828 0)"/>
      <use xlink:href="#DejaVuSans-6c" transform="translate(273.958984 0)"/>
      <use xlink:href="#DejaVuSans-79" transform="translate(301.742188 0)"/>
      <use xlink:href="#DejaVuSans-20" transform="translate(360.921875 0)"/>
      <use xlink:href="#DejaVuSans-6d" transform="translate(392.708984 0)"/>
      <use xlink:href="#DejaVuSans-61" transform="translate(490.121094 0)"/>
      <use xlink:href="#DejaVuSans-78" transform="translate(551.400391 0)"/>
      <use xlink:href="#DejaVuSans-69" transform="translate(610.580078 0)"/>
      <use xlink:href="#DejaVuSans-6d" transform="translate(638.363281 0)"/>
      <use xlink:href="#DejaVuSans-75" transform="translate(735.775391 0)"/>
      <use xlink:href="#DejaVuSans-6d" transform="translate(799.154297 0)"/>
     </g>
    </g>
    <g id="line2d_21">
     <path d="M 66.6 69.248563 
L 76.6 69.248563 
L 86.6 69.248563 
" style="fill: none; stroke: #ff7f0e; stroke-width: 1.5; stroke-linecap: square"/>
    </g>
    <g id="text_20">
     <!-- Weekly minimum -->
     <g transform="translate(94.6 72.748563) scale(0.1 -0.1)">
      <defs>
       <path id="DejaVuSans-6e" d="M 3513 2113 
L 3513 0 
L 2938 0 
L 2938 2094 
Q 2938 2591 2744 2837 
Q 2550 3084 2163 3084 
Q 1697 3084 1428 2787 
Q 1159 2491 1159 1978 
L 1159 0 
L 581 0 
L 581 3500 
L 1159 3500 
L 1159 2956 
Q 1366 3272 1645 3428 
Q 1925 3584 2291 3584 
Q 2894 3584 3203 3211 
Q 3513 2838 3513 2113 
z
" transform="scale(0.015625)"/>
      </defs>
      <use xlink:href="#DejaVuSans-57"/>
      <use xlink:href="#DejaVuSans-65" transform="translate(93.001953 0)"/>
      <use xlink:href="#DejaVuSans-65" transform="translate(154.525391 0)"/>
      <use xlink:href="#DejaVuSans-6b" transform="translate(216.048828 0)"/>
      <use xlink:href="#DejaVuSans-6c" transform="translate(273.958984 0)"/>
      <use xlink:href="#DejaVuSans-79" transform="translate(301.742188 0)"/>
      <use xlink:href="#DejaVuSans-20" transform="translate(360.921875 0)"/>
      <use xlink:href="#DejaVuSans-6d" transform="translate(392.708984 0)"/>
      <use xlink:href="#DejaVuSans-69" transform="translate(490.121094 0)"/>
      <use xlink:href="#DejaVuSans-6e" transform="translate(517.904297 0)"/>
      <use xlink:href="#DejaVuSans-69" transform="translate(581.283203 0)"/>
      <use xlink:href="#DejaVuSans-6d" transform="translate(609.066406 0)"/>
      <use xlink:href="#DejaVuSans-75" transform="translate(706.478516 0)"/>
      <use xlink:href="#DejaVuSans-6d" transform="translate(769.857422 0)"/>
     </g>
    </g>
    <g id="line2d_22">
     <path d="M 66.6 83.926688 
L 76.6 83.926688 
L 86.6 83.926688 
" style="fill: none; stroke: #2ca02c; stroke-width: 1.5; stroke-linecap: square"/>
    </g>
    <g id="text_21">
     <!-- Weekly range -->
     <g transform="translate(94.6 87.426688) scale(0.1 -0.1)">
      <use xlink:href="#DejaVuSans-57"/>
      <use xlink:href="#DejaVuSans-65" transform="translate(93.001953 0)"/>
      <use xlink:href="#DejaVuSans-65" transform="translate(154.525391 0)"/>
      <use xlink:href="#DejaVuSans-6b" transform="translate(216.048828 0)"/>
      <use xlink:href="#DejaVuSans-6c" transform="translate(273.958984 0)"/>
      <use xlink:href="#DejaVuSans-79" transform="translate(301.742188 0)"/>
      <use xlink:href="#DejaVuSans-20" transform="translate(360.921875 0)"/>
      <use xlink:href="#DejaVuSans-72" transform="translate(392.708984 0)"/>
      <use xlink:href="#DejaVuSans-61" transform="translate(433.822266 0)"/>
      <use xlink:href="#DejaVuSans-6e" transform="translate(495.101562 0)"/>
      <use xlink:href="#DejaVuSans-67" transform="translate(558.480469 0)"/>
      <use xlink:href="#DejaVuSans-65" transform="translate(621.957031 0)"/>
     </g>
    </g>
   </g>
  </g>
 </g>
 <defs>
  <clipPath id="p286a6877a5">
   <rect x="57.6" y="41.472" width="357.12" height="266.112"/>
  </clipPath>
 </defs>
</svg>
