<?xml version="1.0" encoding="utf-8" standalone="no"?>
<!DOCTYPE svg PUBLIC "-//W3C//DTD SVG 1.1//EN"
  "http://www.w3.org/Graphics/SVG/1.1/DTD/svg11.dtd">
<svg xmlns:xlink="http://www.w3.org/1999/xlink" width="460.8pt" height="345.6pt" viewBox="0 0 460.8 345.6" xmlns="http://www.w3.org/2000/svg" version="1.1">
 <metadata>
  <rdf:RDF xmlns:dc="http://purl.org/dc/elements/1.1/" xmlns:cc="http://creativecommons.org/ns#" xmlns:rdf="http://www.w3.org/1999/02/22-rdf-syntax-ns#">
   <cc:Work>
    <dc:type rdf:resource="http://purl.org/dc/dcmitype/StillImage"/>
    <dc:date>2022-05-23T05:40:25.182935</dc:date>
    <dc:format>image/svg+xml</dc:format>
    <dc:creator>
     <cc:Agent>
      <dc:title>Matplotlib v3.5.2, https://matplotlib.org/</dc:title>
     </cc:Agent>
    </dc:creator>
   </cc:Work>
  </rdf:RDF>
 </metadata>
 <defs>
  <style type="text/css">*{stroke-linejoin: round; stroke-linecap: butt}</style>
 </defs>
 <g id="figure_1">
  <g id="patch_1">
   <path d="M 0 345.6 
L 460.8 345.6 
L 460.8 0 
L 0 0 
z
" style="fill: #ffffff"/>
  </g>
  <g id="axes_1">
   <g id="patch_2">
    <path d="M 57.6 307.584 
L 414.72 307.584 
L 414.72 41.472 
L 57.6 41.472 
z
" style="fill: #ffffff"/>
   </g>
   <g id="matplotlib.axis_1">
    <g id="xtick_1">
     <g id="line2d_1">
      <defs>
       <path id="meb7df72cb1" d="M 0 0 
L 0 3.5 
" style="stroke: #000000; stroke-width: 0.8"/>
      </defs>
      <g>
       <use xlink:href="#meb7df72cb1" x="58.005413" y="307.584" style="stroke: #000000; stroke-width: 0.8"/>
      </g>
     </g>
     <g id="text_1">
      <!-- 2008 -->
      <g transform="translate(45.280413 322.182437)scale(0.1 -0.1)">
       <defs>
        <path id="DejaVuSans-32" d="M 1228 531 
L 3431 531 
L 3431 0 
L 469 0 
L 469 531 
Q 828 903 1448 1529 
Q 2069 2156 2228 2338 
Q 2531 2678 2651 2914 
Q 2772 3150 2772 3378 
Q 2772 3750 2511 3984 
Q 2250 4219 1831 4219 
Q 1534 4219 1204 4116 
Q 875 4013 500 3803 
L 500 4441 
Q 881 4594 1212 4672 
Q 1544 4750 1819 4750 
Q 2544 4750 2975 4387 
Q 3406 4025 3406 3419 
Q 3406 3131 3298 2873 
Q 3191 2616 2906 2266 
Q 2828 2175 2409 1742 
Q 1991 1309 1228 531 
z
" transform="scale(0.015625)"/>
        <path id="DejaVuSans-30" d="M 2034 4250 
Q 1547 4250 1301 3770 
Q 1056 3291 1056 2328 
Q 1056 1369 1301 889 
Q 1547 409 2034 409 
Q 2525 409 2770 889 
Q 3016 1369 3016 2328 
Q 3016 3291 2770 3770 
Q 2525 4250 2034 4250 
z
M 2034 4750 
Q 2819 4750 3233 4129 
Q 3647 3509 3647 2328 
Q 3647 1150 3233 529 
Q 2819 -91 2034 -91 
Q 1250 -91 836 529 
Q 422 1150 422 2328 
Q 422 3509 836 4129 
Q 1250 4750 2034 4750 
z
" transform="scale(0.015625)"/>
        <path id="DejaVuSans-38" d="M 2034 2216 
Q 1584 2216 1326 1975 
Q 1069 1734 1069 1313 
Q 1069 891 1326 650 
Q 1584 409 2034 409 
Q 2484 409 2743 651 
Q 3003 894 3003 1313 
Q 3003 1734 2745 1975 
Q 2488 2216 2034 2216 
z
M 1403 2484 
Q 997 2584 770 2862 
Q 544 3141 544 3541 
Q 544 4100 942 4425 
Q 1341 4750 2034 4750 
Q 2731 4750 3128 4425 
Q 3525 4100 3525 3541 
Q 3525 3141 3298 2862 
Q 3072 2584 2669 2484 
Q 3125 2378 3379 2068 
Q 3634 1759 3634 1313 
Q 3634 634 3220 271 
Q 2806 -91 2034 -91 
Q 1263 -91 848 271 
Q 434 634 434 1313 
Q 434 1759 690 2068 
Q 947 2378 1403 2484 
z
M 1172 3481 
Q 1172 3119 1398 2916 
Q 1625 2713 2034 2713 
Q 2441 2713 2670 2916 
Q 2900 3119 2900 3481 
Q 2900 3844 2670 4047 
Q 2441 4250 2034 4250 
Q 1625 4250 1398 4047 
Q 1172 3844 1172 3481 
z
" transform="scale(0.015625)"/>
       </defs>
       <use xlink:href="#DejaVuSans-32"/>
       <use xlink:href="#DejaVuSans-30" x="63.623047"/>
       <use xlink:href="#DejaVuSans-30" x="127.246094"/>
       <use xlink:href="#DejaVuSans-38" x="190.869141"/>
      </g>
     </g>
    </g>
    <g id="xtick_2">
     <g id="line2d_2">
      <g>
       <use xlink:href="#meb7df72cb1" x="105.42249" y="307.584" style="stroke: #000000; stroke-width: 0.8"/>
      </g>
     </g>
     <g id="text_2">
      <!-- 2010 -->
      <g transform="translate(92.69749 322.182437)scale(0.1 -0.1)">
       <defs>
        <path id="DejaVuSans-31" d="M 794 531 
L 1825 531 
L 1825 4091 
L 703 3866 
L 703 4441 
L 1819 4666 
L 2450 4666 
L 2450 531 
L 3481 531 
L 3481 0 
L 794 0 
L 794 531 
z
" transform="scale(0.015625)"/>
       </defs>
       <use xlink:href="#DejaVuSans-32"/>
       <use xlink:href="#DejaVuSans-30" x="63.623047"/>
       <use xlink:href="#DejaVuSans-31" x="127.246094"/>
       <use xlink:href="#DejaVuSans-30" x="190.869141"/>
      </g>
     </g>
    </g>
    <g id="xtick_3">
     <g id="line2d_3">
      <g>
       <use xlink:href="#meb7df72cb1" x="152.774702" y="307.584" style="stroke: #000000; stroke-width: 0.8"/>
      </g>
     </g>
     <g id="text_3">
      <!-- 2012 -->
      <g transform="translate(140.049702 322.182437)scale(0.1 -0.1)">
       <use xlink:href="#DejaVuSans-32"/>
       <use xlink:href="#DejaVuSans-30" x="63.623047"/>
       <use xlink:href="#DejaVuSans-31" x="127.246094"/>
       <use xlink:href="#DejaVuSans-32" x="190.869141"/>
      </g>
     </g>
    </g>
    <g id="xtick_4">
     <g id="line2d_4">
      <g>
       <use xlink:href="#meb7df72cb1" x="200.191779" y="307.584" style="stroke: #000000; stroke-width: 0.8"/>
      </g>
     </g>
     <g id="text_4">
      <!-- 2014 -->
      <g transform="translate(187.466779 322.182437)scale(0.1 -0.1)">
       <defs>
        <path id="DejaVuSans-34" d="M 2419 4116 
L 825 1625 
L 2419 1625 
L 2419 4116 
z
M 2253 4666 
L 3047 4666 
L 3047 1625 
L 3713 1625 
L 3713 1100 
L 3047 1100 
L 3047 0 
L 2419 0 
L 2419 1100 
L 313 1100 
L 313 1709 
L 2253 4666 
z
" transform="scale(0.015625)"/>
       </defs>
       <use xlink:href="#DejaVuSans-32"/>
       <use xlink:href="#DejaVuSans-30" x="63.623047"/>
       <use xlink:href="#DejaVuSans-31" x="127.246094"/>
       <use xlink:href="#DejaVuSans-34" x="190.869141"/>
      </g>
     </g>
    </g>
    <g id="xtick_5">
     <g id="line2d_5">
      <g>
       <use xlink:href="#meb7df72cb1" x="247.543991" y="307.584" style="stroke: #000000; stroke-width: 0.8"/>
      </g>
     </g>
     <g id="text_5">
      <!-- 2016 -->
      <g transform="translate(234.818991 322.182437)scale(0.1 -0.1)">
       <defs>
        <path id="DejaVuSans-36" d="M 2113 2584 
Q 1688 2584 1439 2293 
Q 1191 2003 1191 1497 
Q 1191 994 1439 701 
Q 1688 409 2113 409 
Q 2538 409 2786 701 
Q 3034 994 3034 1497 
Q 3034 2003 2786 2293 
Q 2538 2584 2113 2584 
z
M 3366 4563 
L 3366 3988 
Q 3128 4100 2886 4159 
Q 2644 4219 2406 4219 
Q 1781 4219 1451 3797 
Q 1122 3375 1075 2522 
Q 1259 2794 1537 2939 
Q 1816 3084 2150 3084 
Q 2853 3084 3261 2657 
Q 3669 2231 3669 1497 
Q 3669 778 3244 343 
Q 2819 -91 2113 -91 
Q 1303 -91 875 529 
Q 447 1150 447 2328 
Q 447 3434 972 4092 
Q 1497 4750 2381 4750 
Q 2619 4750 2861 4703 
Q 3103 4656 3366 4563 
z
" transform="scale(0.015625)"/>
       </defs>
       <use xlink:href="#DejaVuSans-32"/>
       <use xlink:href="#DejaVuSans-30" x="63.623047"/>
       <use xlink:href="#DejaVuSans-31" x="127.246094"/>
       <use xlink:href="#DejaVuSans-36" x="190.869141"/>
      </g>
     </g>
    </g>
    <g id="xtick_6">
     <g id="line2d_6">
      <g>
       <use xlink:href="#meb7df72cb1" x="294.961068" y="307.584" style="stroke: #000000; stroke-width: 0.8"/>
      </g>
     </g>
     <g id="text_6">
      <!-- 2018 -->
      <g transform="translate(282.236068 322.182437)scale(0.1 -0.1)">
       <use xlink:href="#DejaVuSans-32"/>
       <use xlink:href="#DejaVuSans-30" x="63.623047"/>
       <use xlink:href="#DejaVuSans-31" x="127.246094"/>
       <use xlink:href="#DejaVuSans-38" x="190.869141"/>
      </g>
     </g>
    </g>
    <g id="xtick_7">
     <g id="line2d_7">
      <g>
       <use xlink:href="#meb7df72cb1" x="342.313279" y="307.584" style="stroke: #000000; stroke-width: 0.8"/>
      </g>
     </g>
     <g id="text_7">
      <!-- 2020 -->
      <g transform="translate(329.588279 322.182437)scale(0.1 -0.1)">
       <use xlink:href="#DejaVuSans-32"/>
       <use xlink:href="#DejaVuSans-30" x="63.623047"/>
       <use xlink:href="#DejaVuSans-32" x="127.246094"/>
       <use xlink:href="#DejaVuSans-30" x="190.869141"/>
      </g>
     </g>
    </g>
    <g id="xtick_8">
     <g id="line2d_8">
      <g>
       <use xlink:href="#meb7df72cb1" x="389.730357" y="307.584" style="stroke: #000000; stroke-width: 0.8"/>
      </g>
     </g>
     <g id="text_8">
      <!-- 2022 -->
      <g transform="translate(377.005357 322.182437)scale(0.1 -0.1)">
       <use xlink:href="#DejaVuSans-32"/>
       <use xlink:href="#DejaVuSans-30" x="63.623047"/>
       <use xlink:href="#DejaVuSans-32" x="127.246094"/>
       <use xlink:href="#DejaVuSans-32" x="190.869141"/>
      </g>
     </g>
    </g>
    <g id="text_9">
     <!-- Updated 2022-05-23 05:40:25.179984 - Last record 2022-05-21 -->
     <g transform="translate(75.905312 335.860562)scale(0.1 -0.1)">
      <defs>
       <path id="DejaVuSans-55" d="M 556 4666 
L 1191 4666 
L 1191 1831 
Q 1191 1081 1462 751 
Q 1734 422 2344 422 
Q 2950 422 3222 751 
Q 3494 1081 3494 1831 
L 3494 4666 
L 4128 4666 
L 4128 1753 
Q 4128 841 3676 375 
Q 3225 -91 2344 -91 
Q 1459 -91 1007 375 
Q 556 841 556 1753 
L 556 4666 
z
" transform="scale(0.015625)"/>
       <path id="DejaVuSans-70" d="M 1159 525 
L 1159 -1331 
L 581 -1331 
L 581 3500 
L 1159 3500 
L 1159 2969 
Q 1341 3281 1617 3432 
Q 1894 3584 2278 3584 
Q 2916 3584 3314 3078 
Q 3713 2572 3713 1747 
Q 3713 922 3314 415 
Q 2916 -91 2278 -91 
Q 1894 -91 1617 61 
Q 1341 213 1159 525 
z
M 3116 1747 
Q 3116 2381 2855 2742 
Q 2594 3103 2138 3103 
Q 1681 3103 1420 2742 
Q 1159 2381 1159 1747 
Q 1159 1113 1420 752 
Q 1681 391 2138 391 
Q 2594 391 2855 752 
Q 3116 1113 3116 1747 
z
" transform="scale(0.015625)"/>
       <path id="DejaVuSans-64" d="M 2906 2969 
L 2906 4863 
L 3481 4863 
L 3481 0 
L 2906 0 
L 2906 525 
Q 2725 213 2448 61 
Q 2172 -91 1784 -91 
Q 1150 -91 751 415 
Q 353 922 353 1747 
Q 353 2572 751 3078 
Q 1150 3584 1784 3584 
Q 2172 3584 2448 3432 
Q 2725 3281 2906 2969 
z
M 947 1747 
Q 947 1113 1208 752 
Q 1469 391 1925 391 
Q 2381 391 2643 752 
Q 2906 1113 2906 1747 
Q 2906 2381 2643 2742 
Q 2381 3103 1925 3103 
Q 1469 3103 1208 2742 
Q 947 2381 947 1747 
z
" transform="scale(0.015625)"/>
       <path id="DejaVuSans-61" d="M 2194 1759 
Q 1497 1759 1228 1600 
Q 959 1441 959 1056 
Q 959 750 1161 570 
Q 1363 391 1709 391 
Q 2188 391 2477 730 
Q 2766 1069 2766 1631 
L 2766 1759 
L 2194 1759 
z
M 3341 1997 
L 3341 0 
L 2766 0 
L 2766 531 
Q 2569 213 2275 61 
Q 1981 -91 1556 -91 
Q 1019 -91 701 211 
Q 384 513 384 1019 
Q 384 1609 779 1909 
Q 1175 2209 1959 2209 
L 2766 2209 
L 2766 2266 
Q 2766 2663 2505 2880 
Q 2244 3097 1772 3097 
Q 1472 3097 1187 3025 
Q 903 2953 641 2809 
L 641 3341 
Q 956 3463 1253 3523 
Q 1550 3584 1831 3584 
Q 2591 3584 2966 3190 
Q 3341 2797 3341 1997 
z
" transform="scale(0.015625)"/>
       <path id="DejaVuSans-74" d="M 1172 4494 
L 1172 3500 
L 2356 3500 
L 2356 3053 
L 1172 3053 
L 1172 1153 
Q 1172 725 1289 603 
Q 1406 481 1766 481 
L 2356 481 
L 2356 0 
L 1766 0 
Q 1100 0 847 248 
Q 594 497 594 1153 
L 594 3053 
L 172 3053 
L 172 3500 
L 594 3500 
L 594 4494 
L 1172 4494 
z
" transform="scale(0.015625)"/>
       <path id="DejaVuSans-65" d="M 3597 1894 
L 3597 1613 
L 953 1613 
Q 991 1019 1311 708 
Q 1631 397 2203 397 
Q 2534 397 2845 478 
Q 3156 559 3463 722 
L 3463 178 
Q 3153 47 2828 -22 
Q 2503 -91 2169 -91 
Q 1331 -91 842 396 
Q 353 884 353 1716 
Q 353 2575 817 3079 
Q 1281 3584 2069 3584 
Q 2775 3584 3186 3129 
Q 3597 2675 3597 1894 
z
M 3022 2063 
Q 3016 2534 2758 2815 
Q 2500 3097 2075 3097 
Q 1594 3097 1305 2825 
Q 1016 2553 972 2059 
L 3022 2063 
z
" transform="scale(0.015625)"/>
       <path id="DejaVuSans-20" transform="scale(0.015625)"/>
       <path id="DejaVuSans-2d" d="M 313 2009 
L 1997 2009 
L 1997 1497 
L 313 1497 
L 313 2009 
z
" transform="scale(0.015625)"/>
       <path id="DejaVuSans-35" d="M 691 4666 
L 3169 4666 
L 3169 4134 
L 1269 4134 
L 1269 2991 
Q 1406 3038 1543 3061 
Q 1681 3084 1819 3084 
Q 2600 3084 3056 2656 
Q 3513 2228 3513 1497 
Q 3513 744 3044 326 
Q 2575 -91 1722 -91 
Q 1428 -91 1123 -41 
Q 819 9 494 109 
L 494 744 
Q 775 591 1075 516 
Q 1375 441 1709 441 
Q 2250 441 2565 725 
Q 2881 1009 2881 1497 
Q 2881 1984 2565 2268 
Q 2250 2553 1709 2553 
Q 1456 2553 1204 2497 
Q 953 2441 691 2322 
L 691 4666 
z
" transform="scale(0.015625)"/>
       <path id="DejaVuSans-33" d="M 2597 2516 
Q 3050 2419 3304 2112 
Q 3559 1806 3559 1356 
Q 3559 666 3084 287 
Q 2609 -91 1734 -91 
Q 1441 -91 1130 -33 
Q 819 25 488 141 
L 488 750 
Q 750 597 1062 519 
Q 1375 441 1716 441 
Q 2309 441 2620 675 
Q 2931 909 2931 1356 
Q 2931 1769 2642 2001 
Q 2353 2234 1838 2234 
L 1294 2234 
L 1294 2753 
L 1863 2753 
Q 2328 2753 2575 2939 
Q 2822 3125 2822 3475 
Q 2822 3834 2567 4026 
Q 2313 4219 1838 4219 
Q 1578 4219 1281 4162 
Q 984 4106 628 3988 
L 628 4550 
Q 988 4650 1302 4700 
Q 1616 4750 1894 4750 
Q 2613 4750 3031 4423 
Q 3450 4097 3450 3541 
Q 3450 3153 3228 2886 
Q 3006 2619 2597 2516 
z
" transform="scale(0.015625)"/>
       <path id="DejaVuSans-3a" d="M 750 794 
L 1409 794 
L 1409 0 
L 750 0 
L 750 794 
z
M 750 3309 
L 1409 3309 
L 1409 2516 
L 750 2516 
L 750 3309 
z
" transform="scale(0.015625)"/>
       <path id="DejaVuSans-2e" d="M 684 794 
L 1344 794 
L 1344 0 
L 684 0 
L 684 794 
z
" transform="scale(0.015625)"/>
       <path id="DejaVuSans-37" d="M 525 4666 
L 3525 4666 
L 3525 4397 
L 1831 0 
L 1172 0 
L 2766 4134 
L 525 4134 
L 525 4666 
z
" transform="scale(0.015625)"/>
       <path id="DejaVuSans-39" d="M 703 97 
L 703 672 
Q 941 559 1184 500 
Q 1428 441 1663 441 
Q 2288 441 2617 861 
Q 2947 1281 2994 2138 
Q 2813 1869 2534 1725 
Q 2256 1581 1919 1581 
Q 1219 1581 811 2004 
Q 403 2428 403 3163 
Q 403 3881 828 4315 
Q 1253 4750 1959 4750 
Q 2769 4750 3195 4129 
Q 3622 3509 3622 2328 
Q 3622 1225 3098 567 
Q 2575 -91 1691 -91 
Q 1453 -91 1209 -44 
Q 966 3 703 97 
z
M 1959 2075 
Q 2384 2075 2632 2365 
Q 2881 2656 2881 3163 
Q 2881 3666 2632 3958 
Q 2384 4250 1959 4250 
Q 1534 4250 1286 3958 
Q 1038 3666 1038 3163 
Q 1038 2656 1286 2365 
Q 1534 2075 1959 2075 
z
" transform="scale(0.015625)"/>
       <path id="DejaVuSans-4c" d="M 628 4666 
L 1259 4666 
L 1259 531 
L 3531 531 
L 3531 0 
L 628 0 
L 628 4666 
z
" transform="scale(0.015625)"/>
       <path id="DejaVuSans-73" d="M 2834 3397 
L 2834 2853 
Q 2591 2978 2328 3040 
Q 2066 3103 1784 3103 
Q 1356 3103 1142 2972 
Q 928 2841 928 2578 
Q 928 2378 1081 2264 
Q 1234 2150 1697 2047 
L 1894 2003 
Q 2506 1872 2764 1633 
Q 3022 1394 3022 966 
Q 3022 478 2636 193 
Q 2250 -91 1575 -91 
Q 1294 -91 989 -36 
Q 684 19 347 128 
L 347 722 
Q 666 556 975 473 
Q 1284 391 1588 391 
Q 1994 391 2212 530 
Q 2431 669 2431 922 
Q 2431 1156 2273 1281 
Q 2116 1406 1581 1522 
L 1381 1569 
Q 847 1681 609 1914 
Q 372 2147 372 2553 
Q 372 3047 722 3315 
Q 1072 3584 1716 3584 
Q 2034 3584 2315 3537 
Q 2597 3491 2834 3397 
z
" transform="scale(0.015625)"/>
       <path id="DejaVuSans-72" d="M 2631 2963 
Q 2534 3019 2420 3045 
Q 2306 3072 2169 3072 
Q 1681 3072 1420 2755 
Q 1159 2438 1159 1844 
L 1159 0 
L 581 0 
L 581 3500 
L 1159 3500 
L 1159 2956 
Q 1341 3275 1631 3429 
Q 1922 3584 2338 3584 
Q 2397 3584 2469 3576 
Q 2541 3569 2628 3553 
L 2631 2963 
z
" transform="scale(0.015625)"/>
       <path id="DejaVuSans-63" d="M 3122 3366 
L 3122 2828 
Q 2878 2963 2633 3030 
Q 2388 3097 2138 3097 
Q 1578 3097 1268 2742 
Q 959 2388 959 1747 
Q 959 1106 1268 751 
Q 1578 397 2138 397 
Q 2388 397 2633 464 
Q 2878 531 3122 666 
L 3122 134 
Q 2881 22 2623 -34 
Q 2366 -91 2075 -91 
Q 1284 -91 818 406 
Q 353 903 353 1747 
Q 353 2603 823 3093 
Q 1294 3584 2113 3584 
Q 2378 3584 2631 3529 
Q 2884 3475 3122 3366 
z
" transform="scale(0.015625)"/>
       <path id="DejaVuSans-6f" d="M 1959 3097 
Q 1497 3097 1228 2736 
Q 959 2375 959 1747 
Q 959 1119 1226 758 
Q 1494 397 1959 397 
Q 2419 397 2687 759 
Q 2956 1122 2956 1747 
Q 2956 2369 2687 2733 
Q 2419 3097 1959 3097 
z
M 1959 3584 
Q 2709 3584 3137 3096 
Q 3566 2609 3566 1747 
Q 3566 888 3137 398 
Q 2709 -91 1959 -91 
Q 1206 -91 779 398 
Q 353 888 353 1747 
Q 353 2609 779 3096 
Q 1206 3584 1959 3584 
z
" transform="scale(0.015625)"/>
      </defs>
      <use xlink:href="#DejaVuSans-55"/>
      <use xlink:href="#DejaVuSans-70" x="73.193359"/>
      <use xlink:href="#DejaVuSans-64" x="136.669922"/>
      <use xlink:href="#DejaVuSans-61" x="200.146484"/>
      <use xlink:href="#DejaVuSans-74" x="261.425781"/>
      <use xlink:href="#DejaVuSans-65" x="300.634766"/>
      <use xlink:href="#DejaVuSans-64" x="362.158203"/>
      <use xlink:href="#DejaVuSans-20" x="425.634766"/>
      <use xlink:href="#DejaVuSans-32" x="457.421875"/>
      <use xlink:href="#DejaVuSans-30" x="521.044922"/>
      <use xlink:href="#DejaVuSans-32" x="584.667969"/>
      <use xlink:href="#DejaVuSans-32" x="648.291016"/>
      <use xlink:href="#DejaVuSans-2d" x="711.914062"/>
      <use xlink:href="#DejaVuSans-30" x="747.998047"/>
      <use xlink:href="#DejaVuSans-35" x="811.621094"/>
      <use xlink:href="#DejaVuSans-2d" x="875.244141"/>
      <use xlink:href="#DejaVuSans-32" x="911.328125"/>
      <use xlink:href="#DejaVuSans-33" x="974.951172"/>
      <use xlink:href="#DejaVuSans-20" x="1038.574219"/>
      <use xlink:href="#DejaVuSans-30" x="1070.361328"/>
      <use xlink:href="#DejaVuSans-35" x="1133.984375"/>
      <use xlink:href="#DejaVuSans-3a" x="1197.607422"/>
      <use xlink:href="#DejaVuSans-34" x="1231.298828"/>
      <use xlink:href="#DejaVuSans-30" x="1294.921875"/>
      <use xlink:href="#DejaVuSans-3a" x="1358.544922"/>
      <use xlink:href="#DejaVuSans-32" x="1392.236328"/>
      <use xlink:href="#DejaVuSans-35" x="1455.859375"/>
      <use xlink:href="#DejaVuSans-2e" x="1519.482422"/>
      <use xlink:href="#DejaVuSans-31" x="1551.269531"/>
      <use xlink:href="#DejaVuSans-37" x="1614.892578"/>
      <use xlink:href="#DejaVuSans-39" x="1678.515625"/>
      <use xlink:href="#DejaVuSans-39" x="1742.138672"/>
      <use xlink:href="#DejaVuSans-38" x="1805.761719"/>
      <use xlink:href="#DejaVuSans-34" x="1869.384766"/>
      <use xlink:href="#DejaVuSans-20" x="1933.007812"/>
      <use xlink:href="#DejaVuSans-2d" x="1964.794922"/>
      <use xlink:href="#DejaVuSans-20" x="2000.878906"/>
      <use xlink:href="#DejaVuSans-4c" x="2032.666016"/>
      <use xlink:href="#DejaVuSans-61" x="2088.378906"/>
      <use xlink:href="#DejaVuSans-73" x="2149.658203"/>
      <use xlink:href="#DejaVuSans-74" x="2201.757812"/>
      <use xlink:href="#DejaVuSans-20" x="2240.966797"/>
      <use xlink:href="#DejaVuSans-72" x="2272.753906"/>
      <use xlink:href="#DejaVuSans-65" x="2311.617188"/>
      <use xlink:href="#DejaVuSans-63" x="2373.140625"/>
      <use xlink:href="#DejaVuSans-6f" x="2428.121094"/>
      <use xlink:href="#DejaVuSans-72" x="2489.302734"/>
      <use xlink:href="#DejaVuSans-64" x="2528.666016"/>
      <use xlink:href="#DejaVuSans-20" x="2592.142578"/>
      <use xlink:href="#DejaVuSans-32" x="2623.929688"/>
      <use xlink:href="#DejaVuSans-30" x="2687.552734"/>
      <use xlink:href="#DejaVuSans-32" x="2751.175781"/>
      <use xlink:href="#DejaVuSans-32" x="2814.798828"/>
      <use xlink:href="#DejaVuSans-2d" x="2878.421875"/>
      <use xlink:href="#DejaVuSans-30" x="2914.505859"/>
      <use xlink:href="#DejaVuSans-35" x="2978.128906"/>
      <use xlink:href="#DejaVuSans-2d" x="3041.751953"/>
      <use xlink:href="#DejaVuSans-32" x="3077.835938"/>
      <use xlink:href="#DejaVuSans-31" x="3141.458984"/>
     </g>
    </g>
   </g>
   <g id="matplotlib.axis_2">
    <g id="ytick_1">
     <g id="line2d_9">
      <defs>
       <path id="m7b428be703" d="M 0 0 
L -3.5 0 
" style="stroke: #000000; stroke-width: 0.8"/>
      </defs>
      <g>
       <use xlink:href="#m7b428be703" x="57.6" y="295.571407" style="stroke: #000000; stroke-width: 0.8"/>
      </g>
     </g>
     <g id="text_10">
      <!-- 0 -->
      <g transform="translate(44.2375 299.370626)scale(0.1 -0.1)">
       <use xlink:href="#DejaVuSans-30"/>
      </g>
     </g>
    </g>
    <g id="ytick_2">
     <g id="line2d_10">
      <g>
       <use xlink:href="#m7b428be703" x="57.6" y="265.568714" style="stroke: #000000; stroke-width: 0.8"/>
      </g>
     </g>
     <g id="text_11">
      <!-- 5 -->
      <g transform="translate(44.2375 269.367933)scale(0.1 -0.1)">
       <use xlink:href="#DejaVuSans-35"/>
      </g>
     </g>
    </g>
    <g id="ytick_3">
     <g id="line2d_11">
      <g>
       <use xlink:href="#m7b428be703" x="57.6" y="235.56602" style="stroke: #000000; stroke-width: 0.8"/>
      </g>
     </g>
     <g id="text_12">
      <!-- 10 -->
      <g transform="translate(37.875 239.365239)scale(0.1 -0.1)">
       <use xlink:href="#DejaVuSans-31"/>
       <use xlink:href="#DejaVuSans-30" x="63.623047"/>
      </g>
     </g>
    </g>
    <g id="ytick_4">
     <g id="line2d_12">
      <g>
       <use xlink:href="#m7b428be703" x="57.6" y="205.563326" style="stroke: #000000; stroke-width: 0.8"/>
      </g>
     </g>
     <g id="text_13">
      <!-- 15 -->
      <g transform="translate(37.875 209.362545)scale(0.1 -0.1)">
       <use xlink:href="#DejaVuSans-31"/>
       <use xlink:href="#DejaVuSans-35" x="63.623047"/>
      </g>
     </g>
    </g>
    <g id="ytick_5">
     <g id="line2d_13">
      <g>
       <use xlink:href="#m7b428be703" x="57.6" y="175.560633" style="stroke: #000000; stroke-width: 0.8"/>
      </g>
     </g>
     <g id="text_14">
      <!-- 20 -->
      <g transform="translate(37.875 179.359851)scale(0.1 -0.1)">
       <use xlink:href="#DejaVuSans-32"/>
       <use xlink:href="#DejaVuSans-30" x="63.623047"/>
      </g>
     </g>
    </g>
    <g id="ytick_6">
     <g id="line2d_14">
      <g>
       <use xlink:href="#m7b428be703" x="57.6" y="145.557939" style="stroke: #000000; stroke-width: 0.8"/>
      </g>
     </g>
     <g id="text_15">
      <!-- 25 -->
      <g transform="translate(37.875 149.357158)scale(0.1 -0.1)">
       <use xlink:href="#DejaVuSans-32"/>
       <use xlink:href="#DejaVuSans-35" x="63.623047"/>
      </g>
     </g>
    </g>
    <g id="ytick_7">
     <g id="line2d_15">
      <g>
       <use xlink:href="#m7b428be703" x="57.6" y="115.555245" style="stroke: #000000; stroke-width: 0.8"/>
      </g>
     </g>
     <g id="text_16">
      <!-- 30 -->
      <g transform="translate(37.875 119.354464)scale(0.1 -0.1)">
       <use xlink:href="#DejaVuSans-33"/>
       <use xlink:href="#DejaVuSans-30" x="63.623047"/>
      </g>
     </g>
    </g>
    <g id="ytick_8">
     <g id="line2d_16">
      <g>
       <use xlink:href="#m7b428be703" x="57.6" y="85.552552" style="stroke: #000000; stroke-width: 0.8"/>
      </g>
     </g>
     <g id="text_17">
      <!-- 35 -->
      <g transform="translate(37.875 89.35177)scale(0.1 -0.1)">
       <use xlink:href="#DejaVuSans-33"/>
       <use xlink:href="#DejaVuSans-35" x="63.623047"/>
      </g>
     </g>
    </g>
    <g id="ytick_9">
     <g id="line2d_17">
      <g>
       <use xlink:href="#m7b428be703" x="57.6" y="55.549858" style="stroke: #000000; stroke-width: 0.8"/>
      </g>
     </g>
     <g id="text_18">
      <!-- 40 -->
      <g transform="translate(37.875 59.349077)scale(0.1 -0.1)">
       <use xlink:href="#DejaVuSans-34"/>
       <use xlink:href="#DejaVuSans-30" x="63.623047"/>
      </g>
     </g>
    </g>
    <g id="text_19">
     <!-- IPv6 as % of total Google traffic -->
     <g transform="translate(31.795312 253.735813)rotate(-90)scale(0.1 -0.1)">
      <defs>
       <path id="DejaVuSans-49" d="M 628 4666 
L 1259 4666 
L 1259 0 
L 628 0 
L 628 4666 
z
" transform="scale(0.015625)"/>
       <path id="DejaVuSans-50" d="M 1259 4147 
L 1259 2394 
L 2053 2394 
Q 2494 2394 2734 2622 
Q 2975 2850 2975 3272 
Q 2975 3691 2734 3919 
Q 2494 4147 2053 4147 
L 1259 4147 
z
M 628 4666 
L 2053 4666 
Q 2838 4666 3239 4311 
Q 3641 3956 3641 3272 
Q 3641 2581 3239 2228 
Q 2838 1875 2053 1875 
L 1259 1875 
L 1259 0 
L 628 0 
L 628 4666 
z
" transform="scale(0.015625)"/>
       <path id="DejaVuSans-76" d="M 191 3500 
L 800 3500 
L 1894 563 
L 2988 3500 
L 3597 3500 
L 2284 0 
L 1503 0 
L 191 3500 
z
" transform="scale(0.015625)"/>
       <path id="DejaVuSans-25" d="M 4653 2053 
Q 4381 2053 4226 1822 
Q 4072 1591 4072 1178 
Q 4072 772 4226 539 
Q 4381 306 4653 306 
Q 4919 306 5073 539 
Q 5228 772 5228 1178 
Q 5228 1588 5073 1820 
Q 4919 2053 4653 2053 
z
M 4653 2450 
Q 5147 2450 5437 2106 
Q 5728 1763 5728 1178 
Q 5728 594 5436 251 
Q 5144 -91 4653 -91 
Q 4153 -91 3862 251 
Q 3572 594 3572 1178 
Q 3572 1766 3864 2108 
Q 4156 2450 4653 2450 
z
M 1428 4353 
Q 1159 4353 1004 4120 
Q 850 3888 850 3481 
Q 850 3069 1003 2837 
Q 1156 2606 1428 2606 
Q 1700 2606 1854 2837 
Q 2009 3069 2009 3481 
Q 2009 3884 1853 4118 
Q 1697 4353 1428 4353 
z
M 4250 4750 
L 4750 4750 
L 1831 -91 
L 1331 -91 
L 4250 4750 
z
M 1428 4750 
Q 1922 4750 2215 4408 
Q 2509 4066 2509 3481 
Q 2509 2891 2217 2550 
Q 1925 2209 1428 2209 
Q 931 2209 642 2551 
Q 353 2894 353 3481 
Q 353 4063 643 4406 
Q 934 4750 1428 4750 
z
" transform="scale(0.015625)"/>
       <path id="DejaVuSans-66" d="M 2375 4863 
L 2375 4384 
L 1825 4384 
Q 1516 4384 1395 4259 
Q 1275 4134 1275 3809 
L 1275 3500 
L 2222 3500 
L 2222 3053 
L 1275 3053 
L 1275 0 
L 697 0 
L 697 3053 
L 147 3053 
L 147 3500 
L 697 3500 
L 697 3744 
Q 697 4328 969 4595 
Q 1241 4863 1831 4863 
L 2375 4863 
z
" transform="scale(0.015625)"/>
       <path id="DejaVuSans-6c" d="M 603 4863 
L 1178 4863 
L 1178 0 
L 603 0 
L 603 4863 
z
" transform="scale(0.015625)"/>
       <path id="DejaVuSans-47" d="M 3809 666 
L 3809 1919 
L 2778 1919 
L 2778 2438 
L 4434 2438 
L 4434 434 
Q 4069 175 3628 42 
Q 3188 -91 2688 -91 
Q 1594 -91 976 548 
Q 359 1188 359 2328 
Q 359 3472 976 4111 
Q 1594 4750 2688 4750 
Q 3144 4750 3555 4637 
Q 3966 4525 4313 4306 
L 4313 3634 
Q 3963 3931 3569 4081 
Q 3175 4231 2741 4231 
Q 1884 4231 1454 3753 
Q 1025 3275 1025 2328 
Q 1025 1384 1454 906 
Q 1884 428 2741 428 
Q 3075 428 3337 486 
Q 3600 544 3809 666 
z
" transform="scale(0.015625)"/>
       <path id="DejaVuSans-67" d="M 2906 1791 
Q 2906 2416 2648 2759 
Q 2391 3103 1925 3103 
Q 1463 3103 1205 2759 
Q 947 2416 947 1791 
Q 947 1169 1205 825 
Q 1463 481 1925 481 
Q 2391 481 2648 825 
Q 2906 1169 2906 1791 
z
M 3481 434 
Q 3481 -459 3084 -895 
Q 2688 -1331 1869 -1331 
Q 1566 -1331 1297 -1286 
Q 1028 -1241 775 -1147 
L 775 -588 
Q 1028 -725 1275 -790 
Q 1522 -856 1778 -856 
Q 2344 -856 2625 -561 
Q 2906 -266 2906 331 
L 2906 616 
Q 2728 306 2450 153 
Q 2172 0 1784 0 
Q 1141 0 747 490 
Q 353 981 353 1791 
Q 353 2603 747 3093 
Q 1141 3584 1784 3584 
Q 2172 3584 2450 3431 
Q 2728 3278 2906 2969 
L 2906 3500 
L 3481 3500 
L 3481 434 
z
" transform="scale(0.015625)"/>
       <path id="DejaVuSans-69" d="M 603 3500 
L 1178 3500 
L 1178 0 
L 603 0 
L 603 3500 
z
M 603 4863 
L 1178 4863 
L 1178 4134 
L 603 4134 
L 603 4863 
z
" transform="scale(0.015625)"/>
      </defs>
      <use xlink:href="#DejaVuSans-49"/>
      <use xlink:href="#DejaVuSans-50" x="29.492188"/>
      <use xlink:href="#DejaVuSans-76" x="89.794922"/>
      <use xlink:href="#DejaVuSans-36" x="148.974609"/>
      <use xlink:href="#DejaVuSans-20" x="212.597656"/>
      <use xlink:href="#DejaVuSans-61" x="244.384766"/>
      <use xlink:href="#DejaVuSans-73" x="305.664062"/>
      <use xlink:href="#DejaVuSans-20" x="357.763672"/>
      <use xlink:href="#DejaVuSans-25" x="389.550781"/>
      <use xlink:href="#DejaVuSans-20" x="484.570312"/>
      <use xlink:href="#DejaVuSans-6f" x="516.357422"/>
      <use xlink:href="#DejaVuSans-66" x="577.539062"/>
      <use xlink:href="#DejaVuSans-20" x="612.744141"/>
      <use xlink:href="#DejaVuSans-74" x="644.53125"/>
      <use xlink:href="#DejaVuSans-6f" x="683.740234"/>
      <use xlink:href="#DejaVuSans-74" x="744.921875"/>
      <use xlink:href="#DejaVuSans-61" x="784.130859"/>
      <use xlink:href="#DejaVuSans-6c" x="845.410156"/>
      <use xlink:href="#DejaVuSans-20" x="873.193359"/>
      <use xlink:href="#DejaVuSans-47" x="904.980469"/>
      <use xlink:href="#DejaVuSans-6f" x="982.470703"/>
      <use xlink:href="#DejaVuSans-6f" x="1043.652344"/>
      <use xlink:href="#DejaVuSans-67" x="1104.833984"/>
      <use xlink:href="#DejaVuSans-6c" x="1168.310547"/>
      <use xlink:href="#DejaVuSans-65" x="1196.09375"/>
      <use xlink:href="#DejaVuSans-20" x="1257.617188"/>
      <use xlink:href="#DejaVuSans-74" x="1289.404297"/>
      <use xlink:href="#DejaVuSans-72" x="1328.613281"/>
      <use xlink:href="#DejaVuSans-61" x="1369.726562"/>
      <use xlink:href="#DejaVuSans-66" x="1431.005859"/>
      <use xlink:href="#DejaVuSans-66" x="1466.210938"/>
      <use xlink:href="#DejaVuSans-69" x="1501.416016"/>
      <use xlink:href="#DejaVuSans-63" x="1529.199219"/>
     </g>
    </g>
   </g>
   <g id="line2d_18">
    <path d="M 73.832727 294.478151 
L 75.648976 294.292861 
L 76.103039 294.469301 
L 77.919288 294.468526 
L 79.735537 294.307694 
L 80.189599 294.165469 
L 81.551786 294.189063 
L 82.913973 294.154788 
L 83.368036 294.234865 
L 85.184285 294.071237 
L 87.000534 294.135095 
L 88.362721 294.08286 
L 89.724908 294.087942 
L 91.087095 294.140921 
L 92.449282 294.123832 
L 92.903344 294.23927 
L 95.173655 294.211223 
L 96.08178 294.234199 
L 97.898029 293.95164 
L 98.806154 294.076199 
L 99.260216 294.058258 
L 99.714278 293.766127 
L 102.438652 293.665918 
L 103.346777 293.627467 
L 105.163026 293.776802 
L 106.071151 293.752752 
L 106.979275 293.777036 
L 108.341462 293.75211 
L 108.795524 293.676605 
L 111.973961 293.973944 
L 113.336147 293.87907 
L 114.244272 294.085968 
L 116.514584 294.104876 
L 117.876771 294.234823 
L 120.147082 294.137465 
L 120.601144 294.02001 
L 122.417394 293.917563 
L 125.59583 293.846937 
L 126.503954 293.948712 
L 126.958017 293.805353 
L 129.68239 294.071261 
L 132.860826 293.883768 
L 133.768951 293.886108 
L 134.223013 293.749656 
L 135.131138 293.863792 
L 136.039263 293.651937 
L 136.493325 293.704604 
L 136.947387 293.574542 
L 137.401449 293.631487 
L 138.309574 293.510462 
L 139.217699 293.463112 
L 139.671761 293.493235 
L 140.125823 293.642558 
L 141.942072 293.676287 
L 142.396135 293.74623 
L 143.304259 293.649915 
L 143.758322 293.452893 
L 145.120509 293.283162 
L 146.482695 293.42124 
L 146.936758 293.271011 
L 147.844882 293.424067 
L 151.023318 292.878072 
L 151.931443 293.043789 
L 154.655817 292.611498 
L 156.926128 292.456432 
L 157.380191 292.226953 
L 157.834253 292.315383 
L 158.288315 292.112247 
L 159.19644 292.066001 
L 159.650502 292.080588 
L 160.558627 291.806561 
L 162.374876 291.264107 
L 162.828938 291.071465 
L 163.283001 291.152149 
L 164.645188 291.013428 
L 165.09925 291.126742 
L 166.915499 290.902466 
L 168.277686 290.391352 
L 168.731748 290.279418 
L 169.185811 290.343132 
L 169.639873 289.965086 
L 170.093935 289.782724 
L 171.910184 289.56284 
L 172.364247 289.740162 
L 172.818309 289.567748 
L 173.726434 289.47288 
L 174.180496 289.197125 
L 175.08862 289.013125 
L 176.90487 288.993959 
L 177.812994 288.7589 
L 179.175181 288.5857 
L 179.629243 288.359246 
L 180.083306 288.337404 
L 180.537368 288.454499 
L 182.353617 287.607913 
L 182.80768 287.627306 
L 183.261742 287.506719 
L 183.715804 287.269956 
L 184.169866 287.248282 
L 184.623929 287.094962 
L 185.077991 286.738206 
L 185.532053 286.656353 
L 185.986116 286.435575 
L 186.440178 286.47153 
L 187.802365 285.929388 
L 188.256427 286.025252 
L 188.71049 285.758402 
L 189.164552 285.711502 
L 191.434863 284.45784 
L 192.342988 284.076175 
L 193.251113 283.407739 
L 194.613299 281.755719 
L 195.067362 282.018849 
L 195.521424 282.064369 
L 196.883611 280.49488 
L 197.337673 280.306685 
L 197.791736 279.513372 
L 198.69986 279.265904 
L 199.607985 278.737862 
L 200.062047 278.792893 
L 201.424234 277.926589 
L 201.878296 277.742589 
L 202.332359 277.40231 
L 203.240483 277.321681 
L 203.694545 276.550828 
L 204.148608 276.540669 
L 204.60267 275.693171 
L 205.056732 275.254255 
L 205.964857 275.380231 
L 206.418919 275.066451 
L 206.872982 274.583101 
L 207.781106 274.020443 
L 208.235168 273.517441 
L 208.689231 273.825833 
L 210.50548 272.838931 
L 210.959542 272.47402 
L 211.413605 270.974467 
L 211.867667 271.258923 
L 212.775791 270.240655 
L 213.229854 270.196935 
L 213.683916 270.637141 
L 215.046103 269.635495 
L 215.500165 268.95597 
L 216.40829 269.008361 
L 216.862352 268.273097 
L 217.316414 268.222488 
L 217.770477 264.32722 
L 218.224539 266.890104 
L 218.678601 268.416858 
L 219.132664 267.674993 
L 219.586726 267.260422 
L 220.040788 267.193612 
L 220.494851 266.217906 
L 220.948913 265.912179 
L 222.3111 263.794438 
L 222.765162 262.41168 
L 223.219224 261.622441 
L 223.673287 260.550931 
L 224.127349 259.84348 
L 224.581411 260.973309 
L 225.035474 260.800404 
L 225.489536 260.831684 
L 225.943598 261.014203 
L 226.397661 261.355009 
L 226.851723 261.224984 
L 227.305785 258.733302 
L 227.759847 259.101855 
L 229.122034 257.788901 
L 229.576097 257.612185 
L 230.484221 257.68988 
L 230.938284 255.806383 
L 231.392346 255.737785 
L 232.30047 254.251374 
L 232.754533 254.758149 
L 233.208595 252.438155 
L 233.662657 252.98652 
L 234.11672 251.420386 
L 234.570782 250.670438 
L 235.024844 249.544365 
L 235.478907 250.326355 
L 235.932969 249.141795 
L 236.387031 247.171134 
L 236.841093 248.164163 
L 237.295156 248.447251 
L 237.749218 247.835544 
L 238.20328 246.033642 
L 238.657343 246.534177 
L 239.111405 244.943278 
L 239.565467 245.309755 
L 240.473592 243.164058 
L 240.927654 242.077103 
L 242.289841 241.73584 
L 242.743903 240.480743 
L 243.197966 240.633475 
L 243.652028 240.162649 
L 244.10609 238.918707 
L 244.560153 238.602989 
L 245.014215 237.212088 
L 245.468277 236.258578 
L 245.922339 236.090533 
L 246.376402 236.325232 
L 246.830464 235.718524 
L 247.284526 233.133972 
L 248.192651 234.649984 
L 248.646713 234.358766 
L 249.554838 234.2715 
L 250.0089 234.322846 
L 250.917025 234.01101 
L 251.371087 232.556852 
L 251.825149 232.488014 
L 252.279212 231.198396 
L 252.733274 231.194772 
L 253.187336 230.998866 
L 254.549523 227.310449 
L 255.003586 225.138014 
L 255.457648 226.621569 
L 255.91171 225.999751 
L 256.365772 224.714466 
L 256.819835 225.00056 
L 257.273897 222.256501 
L 257.727959 222.659089 
L 258.182022 222.322621 
L 258.636084 220.407915 
L 259.090146 220.389794 
L 259.544209 218.962589 
L 259.998271 219.306234 
L 260.452333 218.177389 
L 260.906395 217.577713 
L 261.360458 217.8963 
L 261.81452 217.12334 
L 262.268582 215.917478 
L 262.722645 216.302959 
L 263.176707 215.731053 
L 263.630769 213.833401 
L 264.084832 213.03983 
L 264.538894 213.114062 
L 264.992956 210.894937 
L 265.447018 211.289569 
L 266.355143 208.646481 
L 266.809205 206.009004 
L 267.263268 206.269686 
L 268.171392 204.786617 
L 268.625455 203.124875 
L 269.079517 203.347027 
L 269.533579 202.650611 
L 269.987641 200.023143 
L 270.441704 199.101286 
L 270.895766 194.745063 
L 271.349828 197.577323 
L 271.803891 197.063821 
L 272.257953 197.73926 
L 272.712015 196.946103 
L 273.62014 198.234256 
L 274.074202 197.977457 
L 274.528264 196.84827 
L 274.982327 197.187864 
L 275.890451 195.749697 
L 276.344514 194.558014 
L 276.798576 194.369027 
L 277.252638 193.563467 
L 277.706701 190.666677 
L 278.160763 191.575681 
L 278.614825 187.6911 
L 279.068887 187.991799 
L 279.52295 185.880287 
L 279.977012 184.578824 
L 280.431074 183.79522 
L 280.885137 183.254722 
L 281.339199 182.185179 
L 281.793261 180.226286 
L 282.247324 176.996622 
L 282.701386 177.812185 
L 284.517635 174.133837 
L 284.971697 173.528892 
L 285.42576 173.55179 
L 285.879822 173.885078 
L 286.333884 172.740626 
L 286.787947 171.13667 
L 287.242009 172.573595 
L 287.696071 172.601329 
L 288.150134 173.881466 
L 288.604196 172.480508 
L 289.058258 170.302391 
L 289.51232 170.581488 
L 289.966383 169.641155 
L 291.32857 168.145743 
L 292.236694 167.047314 
L 292.690757 166.92833 
L 293.144819 182.855158 
L 293.598881 164.906412 
L 294.052943 164.044921 
L 294.507006 159.692418 
L 294.961068 163.730523 
L 295.869193 163.140478 
L 296.323255 163.137621 
L 296.777317 162.597231 
L 297.23138 162.330921 
L 297.685442 163.810312 
L 298.139504 164.74819 
L 298.593566 164.520193 
L 299.047629 163.249573 
L 299.501691 163.340812 
L 300.863878 162.272362 
L 301.31794 159.417845 
L 301.772003 160.544531 
L 302.226065 157.521363 
L 302.680127 158.796118 
L 303.134189 156.258574 
L 303.588252 154.674149 
L 304.042314 155.608367 
L 304.496376 153.665327 
L 304.950439 152.375175 
L 305.404501 152.100842 
L 305.858563 153.155587 
L 306.312626 153.711963 
L 307.674812 150.862433 
L 308.128875 151.517746 
L 308.582937 152.462129 
L 309.036999 152.645253 
L 309.491062 150.483997 
L 309.945124 149.678989 
L 310.399186 148.112278 
L 310.853249 147.726264 
L 311.307311 147.506848 
L 311.761373 147.670801 
L 312.215435 147.464142 
L 313.12356 145.312013 
L 313.577622 146.567602 
L 314.031685 142.590169 
L 314.485747 142.692472 
L 314.939809 142.207448 
L 315.393872 139.306518 
L 315.847934 138.436116 
L 316.301996 137.912953 
L 316.756058 137.916763 
L 317.210121 136.34404 
L 317.664183 136.236828 
L 318.118245 134.806936 
L 318.572308 133.750181 
L 319.02637 135.391508 
L 319.480432 136.448695 
L 320.388557 133.931073 
L 320.842619 135.165876 
L 321.296682 134.9401 
L 321.750744 135.477592 
L 322.204806 133.577263 
L 322.658868 132.914216 
L 323.112931 134.350931 
L 323.566993 132.28857 
L 324.021055 132.453584 
L 324.475118 131.865298 
L 324.92918 131.810663 
L 325.383242 131.637241 
L 325.837305 127.563427 
L 326.291367 127.444761 
L 326.745429 127.766276 
L 327.199491 128.751636 
L 328.107616 123.997595 
L 328.561678 121.900389 
L 329.015741 121.368081 
L 329.469803 121.550918 
L 329.923865 121.168155 
L 330.377928 119.084912 
L 330.83199 120.802866 
L 331.286052 118.97374 
L 331.740114 120.671119 
L 332.194177 119.454335 
L 332.648239 118.717793 
L 333.102301 118.656372 
L 333.556364 118.739353 
L 334.010426 117.153195 
L 334.464488 117.333415 
L 334.918551 119.050097 
L 335.372613 118.468417 
L 335.826675 119.17258 
L 336.280737 119.460384 
L 336.7348 117.260352 
L 337.188862 118.577963 
L 337.642924 118.932024 
L 338.096987 118.114373 
L 338.551049 117.614786 
L 339.005111 115.644071 
L 339.459174 116.060005 
L 339.913236 115.631086 
L 340.367298 115.773329 
L 340.82136 114.627322 
L 341.275423 114.126013 
L 341.729485 112.675461 
L 342.183547 112.041432 
L 342.63761 112.93778 
L 343.091672 113.204288 
L 343.545734 113.264246 
L 344.453859 111.20144 
L 344.907921 111.695957 
L 345.361983 110.191748 
L 345.816046 110.842776 
L 346.270108 110.561435 
L 346.72417 109.521008 
L 347.178233 109.775268 
L 347.632295 110.489993 
L 348.086357 110.164163 
L 348.54042 110.181193 
L 348.994482 107.478568 
L 349.902606 105.554393 
L 350.356669 105.872092 
L 350.810731 105.199408 
L 351.264793 102.960553 
L 351.718856 103.684788 
L 352.172918 100.472045 
L 352.62698 103.04318 
L 353.081043 100.914711 
L 353.535105 98.005122 
L 353.989167 98.856262 
L 354.443229 97.039515 
L 354.897292 95.813611 
L 355.351354 95.930885 
L 355.805416 95.011171 
L 356.259479 97.316818 
L 356.713541 95.396003 
L 357.167603 96.116236 
L 357.621666 96.538806 
L 358.983853 93.591749 
L 359.437915 96.0454 
L 359.891977 96.094562 
L 360.346039 95.009887 
L 360.800102 95.624516 
L 361.254164 97.114696 
L 361.708226 95.955734 
L 362.162289 93.259116 
L 362.616351 97.735817 
L 363.070413 96.529907 
L 363.524476 94.784434 
L 363.978538 96.248668 
L 364.4326 96.354463 
L 364.886662 93.963333 
L 365.340725 92.772532 
L 365.794787 90.589518 
L 366.248849 91.654079 
L 366.702912 90.847553 
L 367.156974 91.096311 
L 367.611036 91.779695 
L 368.065099 90.034648 
L 368.519161 89.319174 
L 368.973223 90.612854 
L 369.427285 90.290415 
L 369.881348 87.491008 
L 370.33541 86.875226 
L 370.789472 84.970019 
L 371.243535 88.098628 
L 371.697597 89.136235 
L 372.151659 88.116198 
L 372.605722 87.921126 
L 373.059784 88.081101 
L 373.513846 82.563029 
L 373.967908 86.25189 
L 374.421971 84.12623 
L 375.330095 85.201532 
L 375.784158 79.975333 
L 376.23822 79.307413 
L 376.692282 77.205118 
L 377.146345 77.121447 
L 377.600407 79.023029 
L 378.054469 76.400686 
L 378.508531 75.885216 
L 378.962594 74.53099 
L 379.416656 74.041244 
L 379.870718 72.502604 
L 380.324781 72.732647 
L 380.778843 76.463044 
L 381.232905 74.451399 
L 381.686968 73.177671 
L 382.14103 75.60013 
L 382.595092 74.26051 
L 383.049154 73.788945 
L 383.503217 71.854852 
L 384.411341 74.93308 
L 384.865404 74.595016 
L 385.319466 75.077633 
L 385.773528 74.924721 
L 386.227591 73.190506 
L 386.681653 75.195658 
L 387.135715 72.786597 
L 387.589777 71.934653 
L 388.04384 71.845395 
L 388.951964 68.84623 
L 389.406027 65.499615 
L 389.860089 67.781992 
L 390.314151 72.044925 
L 390.768214 67.243108 
L 391.222276 67.017536 
L 391.676338 70.239819 
L 392.584463 65.951036 
L 393.038525 65.893707 
L 393.492587 66.799098 
L 393.94665 66.762153 
L 394.400712 67.455485 
L 394.854774 59.304611 
L 395.308837 58.434473 
L 395.762899 58.677453 
L 396.216961 57.011625 
L 396.671024 56.465246 
L 397.125086 53.568 
L 397.579148 57.249361 
L 398.03321 58.684773 
L 398.487273 55.534185 
L 398.487273 55.534185 
" clip-path="url(#pe5d12bc073)" style="fill: none; stroke: #1f77b4; stroke-width: 1.5; stroke-linecap: square"/>
   </g>
   <g id="line2d_19">
    <path d="M 73.832727 294.764905 
L 75.648976 294.612455 
L 76.103039 294.740045 
L 86.092409 294.46033 
L 87.000534 294.450639 
L 89.270846 294.377882 
L 91.541157 294.452373 
L 92.903344 294.441902 
L 96.989905 294.41424 
L 98.352092 294.30359 
L 98.806154 294.408947 
L 99.714278 294.358435 
L 100.168341 294.143621 
L 102.892715 294.05755 
L 105.163026 294.071531 
L 107.8874 294.10712 
L 110.157711 294.108182 
L 111.973961 294.225175 
L 113.336147 294.234709 
L 116.060521 294.267736 
L 119.238957 294.37589 
L 120.147082 294.360181 
L 121.509269 294.171584 
L 123.325518 294.143237 
L 125.59583 294.078029 
L 131.044577 294.275897 
L 137.401449 293.780667 
L 138.309574 293.718009 
L 139.217699 293.648721 
L 140.125823 293.756521 
L 141.033948 293.770688 
L 141.942072 293.827351 
L 143.304259 293.865646 
L 144.212384 293.531662 
L 144.666446 293.496415 
L 146.028633 293.623471 
L 147.39082 293.550216 
L 147.844882 293.610533 
L 148.298945 293.463562 
L 150.569256 293.41119 
L 151.477381 293.223937 
L 151.931443 293.221723 
L 152.385505 293.341241 
L 158.742378 292.593676 
L 159.650502 292.469015 
L 160.104565 292.459648 
L 160.558627 292.30277 
L 161.466751 292.310955 
L 162.828938 291.856672 
L 164.645188 291.537953 
L 165.09925 291.675738 
L 166.915499 291.533663 
L 173.272371 290.364182 
L 173.726434 290.415541 
L 174.634558 290.122084 
L 175.542683 290.005392 
L 175.996745 289.737144 
L 177.358932 290.042457 
L 178.267057 289.831766 
L 178.721119 289.769835 
L 179.175181 289.509177 
L 179.629243 289.528697 
L 180.083306 289.335612 
L 181.445493 289.236951 
L 181.899555 288.961622 
L 183.261742 288.683215 
L 183.715804 288.686221 
L 184.169866 288.509853 
L 184.623929 288.49193 
L 186.440178 287.945041 
L 186.89424 287.874354 
L 187.802365 287.403792 
L 188.256427 287.561756 
L 189.164552 287.236143 
L 191.888926 285.947857 
L 192.342988 286.0599 
L 193.251113 285.888584 
L 194.613299 284.577694 
L 195.067362 284.262798 
L 195.521424 284.349368 
L 195.975486 284.180423 
L 197.337673 283.196124 
L 197.791736 283.029573 
L 198.69986 282.234406 
L 199.153922 282.125454 
L 199.607985 280.624762 
L 200.062047 280.764874 
L 200.516109 281.764594 
L 200.970172 281.656032 
L 201.878296 280.888917 
L 202.332359 281.582124 
L 202.786421 280.684551 
L 203.240483 280.629346 
L 203.694545 280.350357 
L 204.148608 279.697822 
L 204.60267 279.730981 
L 205.510795 278.731544 
L 205.964857 278.761684 
L 206.418919 278.53838 
L 206.872982 277.727695 
L 207.327044 278.001434 
L 207.781106 277.387831 
L 208.235168 277.571891 
L 208.689231 277.350382 
L 209.143293 277.44078 
L 209.597355 276.749404 
L 210.051418 276.776052 
L 210.50548 276.070707 
L 210.959542 276.19325 
L 211.867667 274.704522 
L 212.321729 274.409914 
L 212.775791 274.316221 
L 213.229854 273.974532 
L 213.683916 273.940665 
L 214.137978 274.071459 
L 214.592041 274.046653 
L 215.954228 273.558185 
L 216.40829 273.717223 
L 217.316414 273.30624 
L 217.770477 272.597685 
L 218.224539 271.007272 
L 218.678601 272.194437 
L 219.132664 272.585258 
L 219.586726 272.174971 
L 220.040788 272.412964 
L 220.494851 271.819223 
L 221.402975 271.051508 
L 221.857038 270.290424 
L 222.3111 269.813111 
L 222.765162 268.813181 
L 223.219224 265.853787 
L 223.673287 263.958247 
L 224.127349 266.766313 
L 224.581411 267.506822 
L 225.035474 267.527188 
L 225.489536 267.823158 
L 225.943598 267.801844 
L 226.397661 268.197952 
L 226.851723 267.380516 
L 227.305785 267.524253 
L 227.759847 265.997542 
L 228.21391 265.531006 
L 228.667972 265.796248 
L 229.576097 264.27381 
L 230.030159 264.685879 
L 230.484221 264.646149 
L 230.938284 264.155521 
L 231.392346 263.443413 
L 231.846408 263.072904 
L 232.30047 263.12542 
L 233.208595 260.918068 
L 233.662657 260.268822 
L 234.11672 259.919921 
L 234.570782 258.648184 
L 235.024844 258.207715 
L 236.387031 255.643331 
L 236.841093 256.0787 
L 237.749218 255.650501 
L 238.657343 254.828368 
L 239.111405 255.185778 
L 240.01953 254.732551 
L 240.927654 253.598533 
L 242.289841 253.018875 
L 242.743903 253.022673 
L 243.197966 251.833727 
L 243.652028 251.713968 
L 244.10609 251.746551 
L 244.560153 251.137634 
L 245.468277 248.953636 
L 245.922339 248.122759 
L 246.376402 247.554076 
L 246.830464 244.809808 
L 247.284526 240.93802 
L 247.738589 246.682738 
L 248.192651 247.934547 
L 248.646713 247.585027 
L 249.100776 246.968682 
L 249.554838 247.052557 
L 250.0089 247.369986 
L 250.917025 246.073191 
L 251.371087 245.843431 
L 252.279212 245.002893 
L 252.733274 243.636307 
L 253.187336 243.319292 
L 253.641399 243.241819 
L 254.549523 242.032567 
L 255.003586 240.595156 
L 255.457648 239.699329 
L 255.91171 240.263902 
L 256.819835 238.498261 
L 257.273897 236.873988 
L 257.727959 236.401547 
L 258.182022 236.17049 
L 259.090146 233.565741 
L 259.544209 231.537192 
L 259.998271 232.425542 
L 260.452333 232.258091 
L 260.906395 231.237369 
L 261.360458 230.548454 
L 261.81452 230.372074 
L 262.268582 230.496795 
L 262.722645 231.904527 
L 263.176707 231.182729 
L 263.630769 231.50575 
L 264.084832 230.739445 
L 264.538894 230.822744 
L 264.992956 229.960851 
L 265.901081 227.550206 
L 266.355143 227.79234 
L 267.263268 224.382804 
L 267.71733 225.190711 
L 268.171392 224.562826 
L 268.625455 223.076889 
L 269.079517 222.966563 
L 269.533579 221.969273 
L 269.987641 221.401448 
L 270.441704 217.440763 
L 270.895766 208.30193 
L 271.349828 214.880831 
L 271.803891 218.38874 
L 272.257953 218.759303 
L 273.166078 218.373132 
L 273.62014 218.480326 
L 274.074202 218.431224 
L 274.528264 217.339348 
L 274.982327 217.066839 
L 275.436389 217.406962 
L 276.344514 216.129543 
L 277.252638 213.835951 
L 277.706701 211.323802 
L 278.160763 212.168905 
L 278.614825 212.043752 
L 279.068887 207.487687 
L 279.52295 208.486915 
L 280.431074 205.447054 
L 280.885137 202.522181 
L 281.339199 202.41677 
L 281.793261 202.016216 
L 282.701386 196.921405 
L 283.155448 196.583388 
L 283.60951 195.831125 
L 284.063573 195.463748 
L 284.971697 192.556133 
L 285.42576 192.306888 
L 285.879822 192.220786 
L 286.333884 193.495571 
L 286.787947 193.642392 
L 287.242009 194.723905 
L 287.696071 195.478299 
L 288.604196 196.079517 
L 289.058258 193.500821 
L 289.51232 192.850453 
L 289.966383 193.412872 
L 290.420445 192.264806 
L 290.874507 190.152389 
L 291.32857 191.991014 
L 291.782632 192.719863 
L 292.236694 190.544512 
L 292.690757 190.276942 
L 293.144819 189.051866 
L 293.598881 182.855158 
L 294.052943 185.33647 
L 294.507006 175.08842 
L 295.41513 187.256907 
L 295.869193 185.677955 
L 296.323255 187.336876 
L 296.777317 186.721071 
L 297.23138 186.618774 
L 297.685442 185.012147 
L 298.139504 187.724259 
L 298.593566 188.475322 
L 299.047629 187.772137 
L 299.501691 186.231853 
L 299.955753 185.706746 
L 300.409816 184.504424 
L 300.863878 184.420686 
L 301.31794 186.548897 
L 301.772003 185.332468 
L 302.226065 183.602663 
L 302.680127 181.171562 
L 303.134189 180.940416 
L 303.588252 179.935079 
L 304.042314 180.057886 
L 304.496376 177.469896 
L 304.950439 177.410197 
L 305.404501 175.629039 
L 305.858563 175.345489 
L 306.312626 174.801955 
L 306.766688 173.100136 
L 307.674812 173.114201 
L 308.582937 172.425603 
L 309.036999 173.449163 
L 309.491062 171.713945 
L 309.945124 170.790162 
L 310.399186 174.097923 
L 310.853249 174.262332 
L 311.307311 174.105826 
L 311.761373 174.205717 
L 312.215435 174.122334 
L 312.669498 172.466113 
L 313.12356 172.861068 
L 313.577622 173.529948 
L 314.031685 172.791714 
L 314.485747 169.403108 
L 314.939809 170.331811 
L 315.393872 169.868696 
L 315.847934 166.266452 
L 316.301996 168.028888 
L 317.664183 163.329075 
L 318.118245 148.635273 
L 318.572308 154.271417 
L 319.02637 162.748234 
L 319.480432 164.304018 
L 320.388557 162.801093 
L 320.842619 161.327163 
L 321.296682 162.429108 
L 321.750744 162.116426 
L 322.204806 163.276108 
L 322.658868 160.658079 
L 323.112931 162.970488 
L 324.021055 160.569307 
L 324.475118 160.535584 
L 324.92918 161.252966 
L 325.383242 158.251965 
L 325.837305 157.744529 
L 326.291367 155.231942 
L 326.745429 157.539419 
L 327.199491 159.006976 
L 327.653554 156.188619 
L 328.561678 148.328844 
L 329.015741 150.046594 
L 329.469803 148.631547 
L 329.923865 147.858738 
L 330.377928 146.023263 
L 330.83199 146.786453 
L 331.286052 146.999808 
L 331.740114 146.808031 
L 332.194177 146.197752 
L 332.648239 145.224435 
L 333.102301 142.507865 
L 333.556364 145.940215 
L 334.010426 146.911931 
L 334.464488 147.094737 
L 334.918551 148.63921 
L 335.372613 149.496327 
L 336.280737 149.1781 
L 336.7348 149.773594 
L 337.188862 149.430033 
L 337.642924 150.208993 
L 338.551049 147.06603 
L 339.005111 149.044228 
L 339.459174 148.372186 
L 339.913236 146.699506 
L 340.367298 146.884286 
L 340.82136 146.078702 
L 341.275423 143.570447 
L 341.729485 129.703634 
L 342.183547 129.334462 
L 342.63761 142.907537 
L 343.091672 144.810692 
L 343.545734 145.200331 
L 343.999797 143.890419 
L 344.453859 142.12125 
L 345.361983 140.138828 
L 345.816046 140.082687 
L 346.270108 140.740406 
L 346.72417 140.269238 
L 347.178233 129.685362 
L 347.632295 125.066081 
L 348.086357 123.267282 
L 348.54042 124.608438 
L 349.902606 119.908822 
L 350.356669 120.23869 
L 350.810731 122.727695 
L 351.264793 120.446848 
L 351.718856 119.576362 
L 352.172918 121.612879 
L 352.62698 122.732526 
L 353.535105 119.211788 
L 353.989167 115.859869 
L 354.443229 115.606322 
L 354.897292 113.787115 
L 355.351354 115.358458 
L 355.805416 115.142432 
L 356.259479 116.384166 
L 356.713541 115.194331 
L 357.167603 115.20425 
L 357.621666 116.252646 
L 358.075728 118.106572 
L 358.52979 117.220689 
L 358.983853 119.347892 
L 359.891977 119.498025 
L 360.346039 120.319037 
L 360.800102 118.823055 
L 361.254164 119.034208 
L 361.708226 117.851201 
L 362.162289 115.710023 
L 362.616351 118.15184 
L 363.070413 118.643243 
L 363.524476 118.404379 
L 363.978538 121.148509 
L 364.4326 118.849871 
L 364.886662 114.732697 
L 365.340725 109.556879 
L 365.794787 102.165031 
L 366.248849 108.52457 
L 366.702912 113.223982 
L 367.156974 112.405497 
L 367.611036 113.42647 
L 368.065099 112.161635 
L 368.973223 111.078627 
L 369.427285 111.23934 
L 369.881348 113.080467 
L 370.33541 112.624924 
L 370.789472 112.394822 
L 371.243535 110.231345 
L 371.697597 113.776146 
L 372.605722 110.438232 
L 373.059784 112.954894 
L 373.513846 111.493001 
L 373.967908 107.688923 
L 374.421971 108.062667 
L 374.876033 105.80026 
L 375.330095 104.474572 
L 375.784158 106.555967 
L 376.23822 106.976785 
L 377.146345 98.653402 
L 377.600407 98.511699 
L 378.054469 98.09993 
L 378.508531 97.256914 
L 378.962594 94.196388 
L 379.416656 95.811043 
L 379.870718 94.283486 
L 380.324781 94.400496 
L 380.778843 95.784574 
L 381.232905 99.17066 
L 381.686968 99.955807 
L 382.14103 100.012182 
L 382.595092 101.710796 
L 383.049154 99.243531 
L 383.957279 100.562239 
L 384.411341 100.869797 
L 384.865404 100.61772 
L 385.319466 100.120054 
L 385.773528 102.79579 
L 386.227591 101.564665 
L 386.681653 102.153384 
L 387.135715 100.403963 
L 387.589777 101.616342 
L 388.497902 98.632484 
L 388.951964 92.68505 
L 389.406027 78.758682 
L 389.860089 86.788633 
L 390.314151 92.679746 
L 390.768214 93.062004 
L 391.222276 95.013565 
L 391.676338 93.166623 
L 392.130401 96.279403 
L 392.584463 95.179672 
L 393.038525 91.312757 
L 393.492587 93.430299 
L 393.94665 93.423044 
L 394.400712 96.018499 
L 394.854774 91.615562 
L 395.308837 84.163793 
L 395.762899 84.340137 
L 396.216961 96.07569 
L 396.671024 82.90122 
L 397.579148 78.996873 
L 398.03321 83.157521 
L 398.487273 82.956731 
L 398.487273 82.956731 
" clip-path="url(#pe5d12bc073)" style="fill: none; stroke: #ff7f0e; stroke-width: 1.5; stroke-linecap: square"/>
   </g>
   <g id="line2d_20">
    <path d="M 73.832727 295.284654 
L 76.557101 295.338257 
L 77.919288 295.298245 
L 82.913973 295.186437 
L 83.368036 295.297021 
L 83.822098 295.237195 
L 84.27616 295.296229 
L 84.730223 295.184373 
L 97.443967 295.255647 
L 97.898029 295.209083 
L 98.352092 295.316241 
L 99.714278 294.9791 
L 100.168341 295.194562 
L 104.254901 295.253601 
L 104.708964 295.347797 
L 106.071151 295.203184 
L 107.433338 295.241426 
L 110.611774 295.252629 
L 111.065836 295.400662 
L 112.428023 295.302367 
L 113.336147 295.215768 
L 114.244272 295.35891 
L 114.698334 295.378688 
L 115.152397 295.268974 
L 116.060521 295.40317 
L 116.968646 295.422834 
L 118.330833 295.427491 
L 121.963331 295.343351 
L 123.325518 295.275017 
L 124.233643 295.304828 
L 124.687705 295.378322 
L 125.59583 295.340315 
L 126.503954 295.341089 
L 127.412079 295.352142 
L 127.866141 295.458897 
L 131.044577 295.348421 
L 133.768951 295.347917 
L 134.223013 295.256223 
L 135.131138 295.425486 
L 136.039263 295.343243 
L 136.493325 295.477877 
L 136.947387 295.323663 
L 137.401449 295.422228 
L 137.855512 295.300141 
L 139.217699 295.385799 
L 139.671761 295.329214 
L 140.125823 295.457445 
L 141.033948 295.421202 
L 141.48801 295.321383 
L 142.396135 295.488 
L 143.758322 295.330504 
L 144.212384 295.436131 
L 145.120509 295.280219 
L 145.574571 295.253871 
L 146.028633 295.40041 
L 146.482695 295.401892 
L 146.936758 295.267978 
L 148.298945 295.44797 
L 148.753007 295.286538 
L 150.115194 295.263748 
L 150.569256 295.103347 
L 151.931443 295.393474 
L 152.839568 295.102123 
L 153.29363 295.198864 
L 153.747692 295.067476 
L 155.109879 295.096345 
L 155.563942 295.123599 
L 156.018004 295.300909 
L 156.472066 295.195972 
L 156.926128 295.209449 
L 157.380191 294.846974 
L 157.834253 295.082226 
L 158.288315 294.972398 
L 159.650502 295.182981 
L 160.104565 295.02198 
L 160.558627 295.075199 
L 161.466751 294.819216 
L 161.920814 294.879329 
L 162.374876 294.77279 
L 162.828938 294.786201 
L 163.283001 294.947345 
L 163.737063 294.916833 
L 164.191125 294.771188 
L 164.645188 295.046882 
L 167.823624 294.778838 
L 168.731748 294.730498 
L 169.185811 294.753996 
L 169.639873 294.51191 
L 170.093935 294.450447 
L 171.00206 294.654279 
L 171.910184 294.604691 
L 172.364247 294.899665 
L 174.180496 294.538121 
L 175.542683 294.578708 
L 175.996745 294.885648 
L 177.358932 294.371114 
L 178.267057 294.463252 
L 178.721119 294.395806 
L 179.175181 294.647931 
L 179.629243 294.401956 
L 180.537368 294.713738 
L 181.899555 294.283122 
L 183.261742 294.394912 
L 183.715804 294.155142 
L 184.169866 294.309836 
L 185.077991 293.968526 
L 185.532053 294.138455 
L 185.986116 294.017928 
L 186.440178 294.097897 
L 187.348303 294.043316 
L 187.802365 294.097003 
L 188.71049 293.912829 
L 189.164552 294.046767 
L 190.526739 293.853987 
L 190.980801 294.078461 
L 191.888926 293.905682 
L 192.342988 293.587683 
L 192.79705 293.442632 
L 193.251113 293.090563 
L 194.159237 293.040716 
L 194.613299 292.749432 
L 195.067362 293.327458 
L 195.521424 293.286408 
L 195.975486 292.954795 
L 196.429549 292.894543 
L 196.883611 292.443597 
L 197.337673 292.681968 
L 197.791736 292.055206 
L 198.69986 292.602905 
L 199.153922 292.487041 
L 199.607985 293.684508 
L 200.062047 293.599426 
L 200.516109 292.268435 
L 200.970172 292.122262 
L 201.424234 292.174292 
L 201.878296 292.425079 
L 202.332359 291.391594 
L 202.786421 292.258468 
L 203.240483 292.263743 
L 203.694545 291.771878 
L 204.148608 292.414254 
L 204.60267 291.533597 
L 205.056732 291.665435 
L 205.510795 292.156225 
L 205.964857 292.189954 
L 206.418919 292.099478 
L 206.872982 292.426813 
L 207.327044 291.880068 
L 207.781106 292.204019 
L 208.235168 291.516957 
L 208.689231 292.046859 
L 209.143293 291.734465 
L 209.597355 292.177779 
L 210.051418 291.957661 
L 210.50548 292.339631 
L 211.413605 291.216192 
L 211.867667 292.125808 
L 212.321729 291.978159 
L 212.775791 291.495842 
L 213.229854 291.79381 
L 213.683916 292.267883 
L 214.137978 291.779151 
L 214.592041 291.497288 
L 215.046103 291.359401 
L 215.500165 290.758009 
L 215.954228 291.048915 
L 216.40829 290.862545 
L 216.862352 290.345718 
L 217.316414 290.487655 
L 217.770477 287.300943 
L 218.224539 291.45424 
L 218.678601 291.793828 
L 219.132664 290.661143 
L 219.586726 290.656858 
L 220.494851 289.970091 
L 220.948913 290.019709 
L 221.402975 289.698842 
L 221.857038 289.843743 
L 222.765162 289.169907 
L 223.219224 291.340062 
L 223.673287 292.164092 
L 224.127349 288.648574 
L 224.581411 289.037895 
L 225.489536 288.579934 
L 225.943598 288.783766 
L 226.397661 288.728465 
L 226.851723 289.415875 
L 227.305785 286.780456 
L 227.759847 288.67572 
L 228.21391 288.66687 
L 228.667972 287.896694 
L 229.122034 288.296666 
L 229.576097 288.909783 
L 230.030159 288.523319 
L 230.484221 288.615139 
L 230.938284 287.22227 
L 231.392346 287.86578 
L 231.846408 287.407645 
L 232.30047 286.697361 
L 232.754533 288.3387 
L 233.208595 287.091494 
L 233.662657 288.289106 
L 234.11672 287.071872 
L 234.570782 287.593661 
L 235.024844 286.908058 
L 235.478907 288.575157 
L 235.932969 288.214129 
L 236.387031 287.099211 
L 237.295156 288.108201 
L 237.749218 287.75645 
L 238.20328 286.432473 
L 238.657343 287.277217 
L 239.111405 285.328908 
L 239.565467 285.939511 
L 240.01953 284.951468 
L 240.927654 284.049977 
L 241.835779 284.220788 
L 242.289841 284.288372 
L 242.743903 283.029477 
L 243.197966 284.371156 
L 243.652028 284.020088 
L 244.10609 282.743564 
L 244.560153 283.036762 
L 245.014215 282.749444 
L 245.468277 282.87635 
L 246.376402 284.342563 
L 246.830464 286.480123 
L 247.284526 287.767359 
L 247.738589 282.761655 
L 248.192651 282.286845 
L 248.646713 282.345146 
L 249.100776 282.882728 
L 249.554838 282.79035 
L 250.0089 282.524268 
L 250.917025 283.509227 
L 251.371087 282.284829 
L 251.825149 282.577943 
L 252.279212 281.76691 
L 252.733274 283.129872 
L 253.187336 283.250981 
L 253.641399 282.024963 
L 254.549523 280.84929 
L 255.003586 280.114266 
L 255.457648 282.493647 
L 255.91171 281.307257 
L 256.365772 280.933171 
L 256.819835 282.073706 
L 257.273897 280.953921 
L 257.727959 281.82895 
L 258.182022 281.723538 
L 258.636084 281.197219 
L 259.090146 282.395461 
L 259.544209 282.996805 
L 259.998271 282.4521 
L 260.452333 281.490705 
L 260.906395 281.911751 
L 261.360458 282.919254 
L 261.81452 282.322674 
L 262.722645 279.969839 
L 263.176707 280.119732 
L 263.630769 277.899059 
L 264.538894 277.862726 
L 264.992956 276.505494 
L 265.447018 278.051088 
L 265.901081 277.822942 
L 266.355143 276.425549 
L 266.809205 275.685448 
L 267.263268 277.458289 
L 267.71733 275.896979 
L 268.625455 275.619394 
L 269.533579 276.252745 
L 269.987641 274.193102 
L 270.441704 277.231931 
L 270.895766 282.01454 
L 271.803891 274.246489 
L 272.257953 274.551364 
L 272.712015 273.916837 
L 273.166078 274.779049 
L 273.62014 275.325338 
L 274.074202 275.117641 
L 274.528264 275.08033 
L 274.982327 275.692433 
L 275.436389 274.685362 
L 275.890451 274.573884 
L 276.344514 273.999879 
L 276.798576 275.127536 
L 277.252638 275.298923 
L 277.706701 274.914283 
L 278.160763 274.978183 
L 278.614825 271.218755 
L 279.068887 276.075519 
L 279.52295 272.96478 
L 279.977012 273.020543 
L 280.431074 273.919574 
L 280.885137 276.303948 
L 281.339199 275.339817 
L 281.793261 273.781477 
L 282.247324 273.199845 
L 282.701386 276.462188 
L 283.155448 275.856229 
L 283.60951 275.866592 
L 284.063573 274.848961 
L 284.517635 275.902164 
L 284.971697 276.544167 
L 285.42576 276.81631 
L 285.879822 277.235699 
L 286.333884 274.816462 
L 286.787947 273.065685 
L 287.242009 273.421097 
L 287.696071 272.694438 
L 288.150134 273.731661 
L 288.604196 271.972399 
L 289.058258 272.372977 
L 289.51232 273.302442 
L 289.966383 271.799691 
L 290.420445 272.399277 
L 290.874507 273.964752 
L 291.32857 271.726137 
L 291.782632 270.51761 
L 292.236694 272.07421 
L 292.690757 272.222795 
L 293.144819 289.374699 
L 293.598881 277.622662 
L 294.052943 274.279858 
L 294.507006 280.175405 
L 294.961068 278.658313 
L 295.41513 271.713529 
L 295.869193 273.03393 
L 296.323255 271.372153 
L 296.777317 271.447568 
L 297.23138 271.283555 
L 297.685442 274.369572 
L 298.139504 272.595339 
L 298.593566 271.616279 
L 299.047629 271.048844 
L 299.501691 272.680366 
L 299.955753 272.863629 
L 300.409816 273.686657 
L 300.863878 273.423083 
L 301.31794 268.440356 
L 301.772003 270.78347 
L 302.226065 269.490108 
L 302.680127 273.195963 
L 303.134189 270.889566 
L 303.588252 270.310478 
L 304.496376 271.766838 
L 304.950439 270.536386 
L 305.858563 273.381505 
L 306.312626 274.481416 
L 306.766688 275.233374 
L 307.674812 273.31964 
L 308.582937 275.607933 
L 309.036999 274.767498 
L 309.491062 274.341459 
L 309.945124 274.460234 
L 310.399186 269.585762 
L 310.853249 269.035339 
L 311.307311 268.972429 
L 311.761373 269.036491 
L 312.215435 268.913216 
L 312.669498 269.502469 
L 313.12356 268.022352 
L 313.577622 268.609061 
L 314.031685 265.369862 
L 314.485747 268.860771 
L 314.939809 267.447044 
L 315.393872 265.00923 
L 315.847934 267.741071 
L 316.301996 265.455472 
L 316.756058 266.961577 
L 317.210121 267.009653 
L 317.664183 268.479161 
L 318.118245 281.74307 
L 319.02637 268.214681 
L 319.480432 267.716085 
L 319.934495 267.417384 
L 320.388557 266.701387 
L 320.842619 269.410121 
L 321.296682 268.082399 
L 321.750744 268.932574 
L 322.204806 265.872563 
L 322.658868 267.827545 
L 323.566993 266.240126 
L 324.021055 267.455685 
L 324.475118 266.901121 
L 324.92918 266.129104 
L 325.383242 268.956684 
L 325.837305 265.390306 
L 326.291367 267.784227 
L 326.745429 265.798264 
L 327.199491 265.316067 
L 327.653554 265.428085 
L 328.561678 269.142953 
L 329.015741 266.892895 
L 329.469803 268.490778 
L 329.923865 268.880825 
L 330.377928 268.633057 
L 330.83199 269.587821 
L 331.286052 267.545339 
L 331.740114 269.434495 
L 332.194177 268.82799 
L 332.648239 269.064766 
L 333.102301 271.719914 
L 334.010426 265.812672 
L 334.464488 265.810085 
L 334.918551 265.982295 
L 335.372613 264.543498 
L 335.826675 265.390822 
L 336.280737 265.853691 
L 336.7348 263.058166 
L 337.188862 264.719338 
L 337.642924 264.294439 
L 338.551049 266.120163 
L 339.005111 262.171251 
L 339.913236 264.502988 
L 340.367298 264.46045 
L 340.82136 264.120028 
L 341.275423 266.126974 
L 341.729485 278.543235 
L 342.183547 278.278377 
L 342.63761 265.601651 
L 343.091672 263.965004 
L 343.545734 263.635322 
L 343.999797 264.006204 
L 344.453859 264.651597 
L 344.907921 266.271821 
L 345.361983 265.624327 
L 345.816046 266.331496 
L 346.270108 265.392436 
L 346.72417 264.823177 
L 347.178233 275.661314 
L 347.632295 280.995319 
L 348.086357 282.468289 
L 348.994482 279.89746 
L 349.902606 281.216979 
L 350.356669 281.20481 
L 350.810731 278.04312 
L 351.264793 278.085112 
L 351.718856 279.679833 
L 352.172918 274.430573 
L 352.62698 275.882062 
L 353.081043 275.410773 
L 353.535105 274.364742 
L 353.989167 278.567801 
L 354.443229 277.004601 
L 354.897292 277.597904 
L 355.351354 276.143835 
L 355.805416 275.440146 
L 356.259479 276.50406 
L 356.713541 275.77308 
L 357.167603 276.483394 
L 357.621666 275.857568 
L 358.075728 273.085469 
L 358.52979 273.187274 
L 358.983853 269.815265 
L 359.437915 272.150591 
L 359.891977 272.167944 
L 360.346039 270.262257 
L 360.800102 272.372869 
L 361.254164 273.651896 
L 361.708226 273.67594 
L 362.162289 273.1205 
L 362.616351 275.155385 
L 363.524476 271.951463 
L 363.978538 270.671566 
L 364.4326 273.076 
L 364.886662 274.802043 
L 365.340725 278.787061 
L 365.794787 283.995894 
L 366.702912 273.194978 
L 367.156974 274.262222 
L 367.611036 273.924632 
L 368.065099 273.444421 
L 368.519161 273.349438 
L 368.973223 275.105634 
L 369.427285 274.622483 
L 369.881348 269.981948 
L 370.33541 269.82171 
L 370.789472 268.146605 
L 371.243535 273.43869 
L 371.697597 270.931497 
L 372.151659 271.791945 
L 372.605722 273.054302 
L 373.059784 270.697614 
L 373.513846 266.641436 
L 373.967908 274.134375 
L 374.421971 271.63497 
L 374.876033 274.41106 
L 375.330095 276.298367 
L 375.784158 268.990773 
L 376.23822 267.902035 
L 376.692282 269.899435 
L 377.146345 274.039452 
L 377.600407 276.082738 
L 378.054469 273.872163 
L 378.508531 274.199709 
L 378.962594 275.90601 
L 379.416656 273.801609 
L 379.870718 273.790526 
L 380.324781 273.903558 
L 380.778843 276.249877 
L 381.232905 270.852146 
L 381.686968 268.793271 
L 382.14103 271.159356 
L 382.595092 268.121121 
L 383.049154 270.116822 
L 383.503217 267.546713 
L 384.411341 269.634691 
L 384.865404 269.548703 
L 385.319466 270.528987 
L 385.773528 267.700339 
L 386.227591 267.197248 
L 386.681653 268.613681 
L 387.135715 267.954042 
L 387.589777 265.889719 
L 388.04384 267.39517 
L 388.497902 267.375422 
L 388.951964 271.732587 
L 389.406027 282.312341 
L 389.860089 276.564767 
L 390.314151 274.936587 
L 390.768214 269.752511 
L 391.222276 267.575378 
L 391.676338 272.644603 
L 392.130401 267.380636 
L 392.584463 266.342771 
L 393.038525 270.152357 
L 393.492587 268.940206 
L 393.94665 268.910516 
L 394.400712 267.008393 
L 394.854774 263.260457 
L 395.308837 269.842087 
L 395.762899 269.908723 
L 396.216961 256.507342 
L 396.671024 269.135434 
L 397.125086 267.974198 
L 397.579148 273.823895 
L 398.487273 268.148861 
L 398.487273 268.148861 
" clip-path="url(#pe5d12bc073)" style="fill: none; stroke: #2ca02c; stroke-width: 1.5; stroke-linecap: square"/>
   </g>
   <g id="patch_3">
    <path d="M 57.6 307.584 
L 57.6 41.472 
" style="fill: none; stroke: #000000; stroke-width: 0.8; stroke-linejoin: miter; stroke-linecap: square"/>
   </g>
   <g id="patch_4">
    <path d="M 414.72 307.584 
L 414.72 41.472 
" style="fill: none; stroke: #000000; stroke-width: 0.8; stroke-linejoin: miter; stroke-linecap: square"/>
   </g>
   <g id="patch_5">
    <path d="M 57.6 307.584 
L 414.72 307.584 
" style="fill: none; stroke: #000000; stroke-width: 0.8; stroke-linejoin: miter; stroke-linecap: square"/>
   </g>
   <g id="patch_6">
    <path d="M 57.6 41.472 
L 414.72 41.472 
" style="fill: none; stroke: #000000; stroke-width: 0.8; stroke-linejoin: miter; stroke-linecap: square"/>
   </g>
   <g id="legend_1">
    <g id="patch_7">
     <path d="M 64.6 93.506375 
L 186.25625 93.506375 
Q 188.25625 93.506375 188.25625 91.506375 
L 188.25625 48.472 
Q 188.25625 46.472 186.25625 46.472 
L 64.6 46.472 
Q 62.6 46.472 62.6 48.472 
L 62.6 91.506375 
Q 62.6 93.506375 64.6 93.506375 
z
" style="fill: #ffffff; opacity: 0.8; stroke: #cccccc; stroke-linejoin: miter"/>
    </g>
    <g id="line2d_21">
     <path d="M 66.6 54.570438 
L 76.6 54.570438 
L 86.6 54.570438 
" style="fill: none; stroke: #1f77b4; stroke-width: 1.5; stroke-linecap: square"/>
    </g>
    <g id="text_20">
     <!-- Weekly maximum -->
     <g transform="translate(94.6 58.070438)scale(0.1 -0.1)">
      <defs>
       <path id="DejaVuSans-57" d="M 213 4666 
L 850 4666 
L 1831 722 
L 2809 4666 
L 3519 4666 
L 4500 722 
L 5478 4666 
L 6119 4666 
L 4947 0 
L 4153 0 
L 3169 4050 
L 2175 0 
L 1381 0 
L 213 4666 
z
" transform="scale(0.015625)"/>
       <path id="DejaVuSans-6b" d="M 581 4863 
L 1159 4863 
L 1159 1991 
L 2875 3500 
L 3609 3500 
L 1753 1863 
L 3688 0 
L 2938 0 
L 1159 1709 
L 1159 0 
L 581 0 
L 581 4863 
z
" transform="scale(0.015625)"/>
       <path id="DejaVuSans-79" d="M 2059 -325 
Q 1816 -950 1584 -1140 
Q 1353 -1331 966 -1331 
L 506 -1331 
L 506 -850 
L 844 -850 
Q 1081 -850 1212 -737 
Q 1344 -625 1503 -206 
L 1606 56 
L 191 3500 
L 800 3500 
L 1894 763 
L 2988 3500 
L 3597 3500 
L 2059 -325 
z
" transform="scale(0.015625)"/>
       <path id="DejaVuSans-6d" d="M 3328 2828 
Q 3544 3216 3844 3400 
Q 4144 3584 4550 3584 
Q 5097 3584 5394 3201 
Q 5691 2819 5691 2113 
L 5691 0 
L 5113 0 
L 5113 2094 
Q 5113 2597 4934 2840 
Q 4756 3084 4391 3084 
Q 3944 3084 3684 2787 
Q 3425 2491 3425 1978 
L 3425 0 
L 2847 0 
L 2847 2094 
Q 2847 2600 2669 2842 
Q 2491 3084 2119 3084 
Q 1678 3084 1418 2786 
Q 1159 2488 1159 1978 
L 1159 0 
L 581 0 
L 581 3500 
L 1159 3500 
L 1159 2956 
Q 1356 3278 1631 3431 
Q 1906 3584 2284 3584 
Q 2666 3584 2933 3390 
Q 3200 3197 3328 2828 
z
" transform="scale(0.015625)"/>
       <path id="DejaVuSans-78" d="M 3513 3500 
L 2247 1797 
L 3578 0 
L 2900 0 
L 1881 1375 
L 863 0 
L 184 0 
L 1544 1831 
L 300 3500 
L 978 3500 
L 1906 2253 
L 2834 3500 
L 3513 3500 
z
" transform="scale(0.015625)"/>
       <path id="DejaVuSans-75" d="M 544 1381 
L 544 3500 
L 1119 3500 
L 1119 1403 
Q 1119 906 1312 657 
Q 1506 409 1894 409 
Q 2359 409 2629 706 
Q 2900 1003 2900 1516 
L 2900 3500 
L 3475 3500 
L 3475 0 
L 2900 0 
L 2900 538 
Q 2691 219 2414 64 
Q 2138 -91 1772 -91 
Q 1169 -91 856 284 
Q 544 659 544 1381 
z
M 1991 3584 
L 1991 3584 
z
" transform="scale(0.015625)"/>
      </defs>
      <use xlink:href="#DejaVuSans-57"/>
      <use xlink:href="#DejaVuSans-65" x="93.001953"/>
      <use xlink:href="#DejaVuSans-65" x="154.525391"/>
      <use xlink:href="#DejaVuSans-6b" x="216.048828"/>
      <use xlink:href="#DejaVuSans-6c" x="273.958984"/>
      <use xlink:href="#DejaVuSans-79" x="301.742188"/>
      <use xlink:href="#DejaVuSans-20" x="360.921875"/>
      <use xlink:href="#DejaVuSans-6d" x="392.708984"/>
      <use xlink:href="#DejaVuSans-61" x="490.121094"/>
      <use xlink:href="#DejaVuSans-78" x="551.400391"/>
      <use xlink:href="#DejaVuSans-69" x="610.580078"/>
      <use xlink:href="#DejaVuSans-6d" x="638.363281"/>
      <use xlink:href="#DejaVuSans-75" x="735.775391"/>
      <use xlink:href="#DejaVuSans-6d" x="799.154297"/>
     </g>
    </g>
    <g id="line2d_22">
     <path d="M 66.6 69.248563 
L 76.6 69.248563 
L 86.6 69.248563 
" style="fill: none; stroke: #ff7f0e; stroke-width: 1.5; stroke-linecap: square"/>
    </g>
    <g id="text_21">
     <!-- Weekly minimum -->
     <g transform="translate(94.6 72.748563)scale(0.1 -0.1)">
      <defs>
       <path id="DejaVuSans-6e" d="M 3513 2113 
L 3513 0 
L 2938 0 
L 2938 2094 
Q 2938 2591 2744 2837 
Q 2550 3084 2163 3084 
Q 1697 3084 1428 2787 
Q 1159 2491 1159 1978 
L 1159 0 
L 581 0 
L 581 3500 
L 1159 3500 
L 1159 2956 
Q 1366 3272 1645 3428 
Q 1925 3584 2291 3584 
Q 2894 3584 3203 3211 
Q 3513 2838 3513 2113 
z
" transform="scale(0.015625)"/>
      </defs>
      <use xlink:href="#DejaVuSans-57"/>
      <use xlink:href="#DejaVuSans-65" x="93.001953"/>
      <use xlink:href="#DejaVuSans-65" x="154.525391"/>
      <use xlink:href="#DejaVuSans-6b" x="216.048828"/>
      <use xlink:href="#DejaVuSans-6c" x="273.958984"/>
      <use xlink:href="#DejaVuSans-79" x="301.742188"/>
      <use xlink:href="#DejaVuSans-20" x="360.921875"/>
      <use xlink:href="#DejaVuSans-6d" x="392.708984"/>
      <use xlink:href="#DejaVuSans-69" x="490.121094"/>
      <use xlink:href="#DejaVuSans-6e" x="517.904297"/>
      <use xlink:href="#DejaVuSans-69" x="581.283203"/>
      <use xlink:href="#DejaVuSans-6d" x="609.066406"/>
      <use xlink:href="#DejaVuSans-75" x="706.478516"/>
      <use xlink:href="#DejaVuSans-6d" x="769.857422"/>
     </g>
    </g>
    <g id="line2d_23">
     <path d="M 66.6 83.926688 
L 76.6 83.926688 
L 86.6 83.926688 
" style="fill: none; stroke: #2ca02c; stroke-width: 1.5; stroke-linecap: square"/>
    </g>
    <g id="text_22">
     <!-- Weekly range -->
     <g transform="translate(94.6 87.426688)scale(0.1 -0.1)">
      <use xlink:href="#DejaVuSans-57"/>
      <use xlink:href="#DejaVuSans-65" x="93.001953"/>
      <use xlink:href="#DejaVuSans-65" x="154.525391"/>
      <use xlink:href="#DejaVuSans-6b" x="216.048828"/>
      <use xlink:href="#DejaVuSans-6c" x="273.958984"/>
      <use xlink:href="#DejaVuSans-79" x="301.742188"/>
      <use xlink:href="#DejaVuSans-20" x="360.921875"/>
      <use xlink:href="#DejaVuSans-72" x="392.708984"/>
      <use xlink:href="#DejaVuSans-61" x="433.822266"/>
      <use xlink:href="#DejaVuSans-6e" x="495.101562"/>
      <use xlink:href="#DejaVuSans-67" x="558.480469"/>
      <use xlink:href="#DejaVuSans-65" x="621.957031"/>
     </g>
    </g>
   </g>
  </g>
 </g>
 <defs>
  <clipPath id="pe5d12bc073">
   <rect x="57.6" y="41.472" width="357.12" height="266.112"/>
  </clipPath>
 </defs>
</svg>
