<?xml version="1.0" encoding="utf-8" standalone="no"?>
<!DOCTYPE svg PUBLIC "-//W3C//DTD SVG 1.1//EN"
  "http://www.w3.org/Graphics/SVG/1.1/DTD/svg11.dtd">
<svg xmlns:xlink="http://www.w3.org/1999/xlink" width="460.8pt" height="345.6pt" viewBox="0 0 460.8 345.6" xmlns="http://www.w3.org/2000/svg" version="1.1">
 <metadata>
  <rdf:RDF xmlns:dc="http://purl.org/dc/elements/1.1/" xmlns:cc="http://creativecommons.org/ns#" xmlns:rdf="http://www.w3.org/1999/02/22-rdf-syntax-ns#">
   <cc:Work>
    <dc:type rdf:resource="http://purl.org/dc/dcmitype/StillImage"/>
    <dc:date>2022-08-12T05:36:19.186549</dc:date>
    <dc:format>image/svg+xml</dc:format>
    <dc:creator>
     <cc:Agent>
      <dc:title>Matplotlib v3.5.3, https://matplotlib.org/</dc:title>
     </cc:Agent>
    </dc:creator>
   </cc:Work>
  </rdf:RDF>
 </metadata>
 <defs>
  <style type="text/css">*{stroke-linejoin: round; stroke-linecap: butt}</style>
 </defs>
 <g id="figure_1">
  <g id="patch_1">
   <path d="M 0 345.6 
L 460.8 345.6 
L 460.8 0 
L 0 0 
z
" style="fill: #ffffff"/>
  </g>
  <g id="axes_1">
   <g id="patch_2">
    <path d="M 57.6 307.584 
L 414.72 307.584 
L 414.72 41.472 
L 57.6 41.472 
z
" style="fill: #ffffff"/>
   </g>
   <g id="matplotlib.axis_1">
    <g id="xtick_1">
     <g id="line2d_1">
      <defs>
       <path id="m1f5b71bbaa" d="M 0 0 
L 0 3.5 
" style="stroke: #000000; stroke-width: 0.8"/>
      </defs>
      <g>
       <use xlink:href="#m1f5b71bbaa" x="58.266661" y="307.584" style="stroke: #000000; stroke-width: 0.8"/>
      </g>
     </g>
     <g id="text_1">
      <!-- 2008 -->
      <g transform="translate(45.541661 322.182437)scale(0.1 -0.1)">
       <defs>
        <path id="DejaVuSans-32" d="M 1228 531 
L 3431 531 
L 3431 0 
L 469 0 
L 469 531 
Q 828 903 1448 1529 
Q 2069 2156 2228 2338 
Q 2531 2678 2651 2914 
Q 2772 3150 2772 3378 
Q 2772 3750 2511 3984 
Q 2250 4219 1831 4219 
Q 1534 4219 1204 4116 
Q 875 4013 500 3803 
L 500 4441 
Q 881 4594 1212 4672 
Q 1544 4750 1819 4750 
Q 2544 4750 2975 4387 
Q 3406 4025 3406 3419 
Q 3406 3131 3298 2873 
Q 3191 2616 2906 2266 
Q 2828 2175 2409 1742 
Q 1991 1309 1228 531 
z
" transform="scale(0.015625)"/>
        <path id="DejaVuSans-30" d="M 2034 4250 
Q 1547 4250 1301 3770 
Q 1056 3291 1056 2328 
Q 1056 1369 1301 889 
Q 1547 409 2034 409 
Q 2525 409 2770 889 
Q 3016 1369 3016 2328 
Q 3016 3291 2770 3770 
Q 2525 4250 2034 4250 
z
M 2034 4750 
Q 2819 4750 3233 4129 
Q 3647 3509 3647 2328 
Q 3647 1150 3233 529 
Q 2819 -91 2034 -91 
Q 1250 -91 836 529 
Q 422 1150 422 2328 
Q 422 3509 836 4129 
Q 1250 4750 2034 4750 
z
" transform="scale(0.015625)"/>
        <path id="DejaVuSans-38" d="M 2034 2216 
Q 1584 2216 1326 1975 
Q 1069 1734 1069 1313 
Q 1069 891 1326 650 
Q 1584 409 2034 409 
Q 2484 409 2743 651 
Q 3003 894 3003 1313 
Q 3003 1734 2745 1975 
Q 2488 2216 2034 2216 
z
M 1403 2484 
Q 997 2584 770 2862 
Q 544 3141 544 3541 
Q 544 4100 942 4425 
Q 1341 4750 2034 4750 
Q 2731 4750 3128 4425 
Q 3525 4100 3525 3541 
Q 3525 3141 3298 2862 
Q 3072 2584 2669 2484 
Q 3125 2378 3379 2068 
Q 3634 1759 3634 1313 
Q 3634 634 3220 271 
Q 2806 -91 2034 -91 
Q 1263 -91 848 271 
Q 434 634 434 1313 
Q 434 1759 690 2068 
Q 947 2378 1403 2484 
z
M 1172 3481 
Q 1172 3119 1398 2916 
Q 1625 2713 2034 2713 
Q 2441 2713 2670 2916 
Q 2900 3119 2900 3481 
Q 2900 3844 2670 4047 
Q 2441 4250 2034 4250 
Q 1625 4250 1398 4047 
Q 1172 3844 1172 3481 
z
" transform="scale(0.015625)"/>
       </defs>
       <use xlink:href="#DejaVuSans-32"/>
       <use xlink:href="#DejaVuSans-30" x="63.623047"/>
       <use xlink:href="#DejaVuSans-30" x="127.246094"/>
       <use xlink:href="#DejaVuSans-38" x="190.869141"/>
      </g>
     </g>
    </g>
    <g id="xtick_2">
     <g id="line2d_2">
      <g>
       <use xlink:href="#m1f5b71bbaa" x="104.901064" y="307.584" style="stroke: #000000; stroke-width: 0.8"/>
      </g>
     </g>
     <g id="text_2">
      <!-- 2010 -->
      <g transform="translate(92.176064 322.182437)scale(0.1 -0.1)">
       <defs>
        <path id="DejaVuSans-31" d="M 794 531 
L 1825 531 
L 1825 4091 
L 703 3866 
L 703 4441 
L 1819 4666 
L 2450 4666 
L 2450 531 
L 3481 531 
L 3481 0 
L 794 0 
L 794 531 
z
" transform="scale(0.015625)"/>
       </defs>
       <use xlink:href="#DejaVuSans-32"/>
       <use xlink:href="#DejaVuSans-30" x="63.623047"/>
       <use xlink:href="#DejaVuSans-31" x="127.246094"/>
       <use xlink:href="#DejaVuSans-30" x="190.869141"/>
      </g>
     </g>
    </g>
    <g id="xtick_3">
     <g id="line2d_3">
      <g>
       <use xlink:href="#m1f5b71bbaa" x="151.47167" y="307.584" style="stroke: #000000; stroke-width: 0.8"/>
      </g>
     </g>
     <g id="text_3">
      <!-- 2012 -->
      <g transform="translate(138.74667 322.182437)scale(0.1 -0.1)">
       <use xlink:href="#DejaVuSans-32"/>
       <use xlink:href="#DejaVuSans-30" x="63.623047"/>
       <use xlink:href="#DejaVuSans-31" x="127.246094"/>
       <use xlink:href="#DejaVuSans-32" x="190.869141"/>
      </g>
     </g>
    </g>
    <g id="xtick_4">
     <g id="line2d_4">
      <g>
       <use xlink:href="#m1f5b71bbaa" x="198.106073" y="307.584" style="stroke: #000000; stroke-width: 0.8"/>
      </g>
     </g>
     <g id="text_4">
      <!-- 2014 -->
      <g transform="translate(185.381073 322.182437)scale(0.1 -0.1)">
       <defs>
        <path id="DejaVuSans-34" d="M 2419 4116 
L 825 1625 
L 2419 1625 
L 2419 4116 
z
M 2253 4666 
L 3047 4666 
L 3047 1625 
L 3713 1625 
L 3713 1100 
L 3047 1100 
L 3047 0 
L 2419 0 
L 2419 1100 
L 313 1100 
L 313 1709 
L 2253 4666 
z
" transform="scale(0.015625)"/>
       </defs>
       <use xlink:href="#DejaVuSans-32"/>
       <use xlink:href="#DejaVuSans-30" x="63.623047"/>
       <use xlink:href="#DejaVuSans-31" x="127.246094"/>
       <use xlink:href="#DejaVuSans-34" x="190.869141"/>
      </g>
     </g>
    </g>
    <g id="xtick_5">
     <g id="line2d_5">
      <g>
       <use xlink:href="#m1f5b71bbaa" x="244.676679" y="307.584" style="stroke: #000000; stroke-width: 0.8"/>
      </g>
     </g>
     <g id="text_5">
      <!-- 2016 -->
      <g transform="translate(231.951679 322.182437)scale(0.1 -0.1)">
       <defs>
        <path id="DejaVuSans-36" d="M 2113 2584 
Q 1688 2584 1439 2293 
Q 1191 2003 1191 1497 
Q 1191 994 1439 701 
Q 1688 409 2113 409 
Q 2538 409 2786 701 
Q 3034 994 3034 1497 
Q 3034 2003 2786 2293 
Q 2538 2584 2113 2584 
z
M 3366 4563 
L 3366 3988 
Q 3128 4100 2886 4159 
Q 2644 4219 2406 4219 
Q 1781 4219 1451 3797 
Q 1122 3375 1075 2522 
Q 1259 2794 1537 2939 
Q 1816 3084 2150 3084 
Q 2853 3084 3261 2657 
Q 3669 2231 3669 1497 
Q 3669 778 3244 343 
Q 2819 -91 2113 -91 
Q 1303 -91 875 529 
Q 447 1150 447 2328 
Q 447 3434 972 4092 
Q 1497 4750 2381 4750 
Q 2619 4750 2861 4703 
Q 3103 4656 3366 4563 
z
" transform="scale(0.015625)"/>
       </defs>
       <use xlink:href="#DejaVuSans-32"/>
       <use xlink:href="#DejaVuSans-30" x="63.623047"/>
       <use xlink:href="#DejaVuSans-31" x="127.246094"/>
       <use xlink:href="#DejaVuSans-36" x="190.869141"/>
      </g>
     </g>
    </g>
    <g id="xtick_6">
     <g id="line2d_6">
      <g>
       <use xlink:href="#m1f5b71bbaa" x="291.311082" y="307.584" style="stroke: #000000; stroke-width: 0.8"/>
      </g>
     </g>
     <g id="text_6">
      <!-- 2018 -->
      <g transform="translate(278.586082 322.182437)scale(0.1 -0.1)">
       <use xlink:href="#DejaVuSans-32"/>
       <use xlink:href="#DejaVuSans-30" x="63.623047"/>
       <use xlink:href="#DejaVuSans-31" x="127.246094"/>
       <use xlink:href="#DejaVuSans-38" x="190.869141"/>
      </g>
     </g>
    </g>
    <g id="xtick_7">
     <g id="line2d_7">
      <g>
       <use xlink:href="#m1f5b71bbaa" x="337.881688" y="307.584" style="stroke: #000000; stroke-width: 0.8"/>
      </g>
     </g>
     <g id="text_7">
      <!-- 2020 -->
      <g transform="translate(325.156688 322.182437)scale(0.1 -0.1)">
       <use xlink:href="#DejaVuSans-32"/>
       <use xlink:href="#DejaVuSans-30" x="63.623047"/>
       <use xlink:href="#DejaVuSans-32" x="127.246094"/>
       <use xlink:href="#DejaVuSans-30" x="190.869141"/>
      </g>
     </g>
    </g>
    <g id="xtick_8">
     <g id="line2d_8">
      <g>
       <use xlink:href="#m1f5b71bbaa" x="384.516091" y="307.584" style="stroke: #000000; stroke-width: 0.8"/>
      </g>
     </g>
     <g id="text_8">
      <!-- 2022 -->
      <g transform="translate(371.791091 322.182437)scale(0.1 -0.1)">
       <use xlink:href="#DejaVuSans-32"/>
       <use xlink:href="#DejaVuSans-30" x="63.623047"/>
       <use xlink:href="#DejaVuSans-32" x="127.246094"/>
       <use xlink:href="#DejaVuSans-32" x="190.869141"/>
      </g>
     </g>
    </g>
    <g id="text_9">
     <!-- Updated 2022-08-12 05:36:19.184176 - Last record 2022-08-10 -->
     <g transform="translate(75.905312 335.860562)scale(0.1 -0.1)">
      <defs>
       <path id="DejaVuSans-55" d="M 556 4666 
L 1191 4666 
L 1191 1831 
Q 1191 1081 1462 751 
Q 1734 422 2344 422 
Q 2950 422 3222 751 
Q 3494 1081 3494 1831 
L 3494 4666 
L 4128 4666 
L 4128 1753 
Q 4128 841 3676 375 
Q 3225 -91 2344 -91 
Q 1459 -91 1007 375 
Q 556 841 556 1753 
L 556 4666 
z
" transform="scale(0.015625)"/>
       <path id="DejaVuSans-70" d="M 1159 525 
L 1159 -1331 
L 581 -1331 
L 581 3500 
L 1159 3500 
L 1159 2969 
Q 1341 3281 1617 3432 
Q 1894 3584 2278 3584 
Q 2916 3584 3314 3078 
Q 3713 2572 3713 1747 
Q 3713 922 3314 415 
Q 2916 -91 2278 -91 
Q 1894 -91 1617 61 
Q 1341 213 1159 525 
z
M 3116 1747 
Q 3116 2381 2855 2742 
Q 2594 3103 2138 3103 
Q 1681 3103 1420 2742 
Q 1159 2381 1159 1747 
Q 1159 1113 1420 752 
Q 1681 391 2138 391 
Q 2594 391 2855 752 
Q 3116 1113 3116 1747 
z
" transform="scale(0.015625)"/>
       <path id="DejaVuSans-64" d="M 2906 2969 
L 2906 4863 
L 3481 4863 
L 3481 0 
L 2906 0 
L 2906 525 
Q 2725 213 2448 61 
Q 2172 -91 1784 -91 
Q 1150 -91 751 415 
Q 353 922 353 1747 
Q 353 2572 751 3078 
Q 1150 3584 1784 3584 
Q 2172 3584 2448 3432 
Q 2725 3281 2906 2969 
z
M 947 1747 
Q 947 1113 1208 752 
Q 1469 391 1925 391 
Q 2381 391 2643 752 
Q 2906 1113 2906 1747 
Q 2906 2381 2643 2742 
Q 2381 3103 1925 3103 
Q 1469 3103 1208 2742 
Q 947 2381 947 1747 
z
" transform="scale(0.015625)"/>
       <path id="DejaVuSans-61" d="M 2194 1759 
Q 1497 1759 1228 1600 
Q 959 1441 959 1056 
Q 959 750 1161 570 
Q 1363 391 1709 391 
Q 2188 391 2477 730 
Q 2766 1069 2766 1631 
L 2766 1759 
L 2194 1759 
z
M 3341 1997 
L 3341 0 
L 2766 0 
L 2766 531 
Q 2569 213 2275 61 
Q 1981 -91 1556 -91 
Q 1019 -91 701 211 
Q 384 513 384 1019 
Q 384 1609 779 1909 
Q 1175 2209 1959 2209 
L 2766 2209 
L 2766 2266 
Q 2766 2663 2505 2880 
Q 2244 3097 1772 3097 
Q 1472 3097 1187 3025 
Q 903 2953 641 2809 
L 641 3341 
Q 956 3463 1253 3523 
Q 1550 3584 1831 3584 
Q 2591 3584 2966 3190 
Q 3341 2797 3341 1997 
z
" transform="scale(0.015625)"/>
       <path id="DejaVuSans-74" d="M 1172 4494 
L 1172 3500 
L 2356 3500 
L 2356 3053 
L 1172 3053 
L 1172 1153 
Q 1172 725 1289 603 
Q 1406 481 1766 481 
L 2356 481 
L 2356 0 
L 1766 0 
Q 1100 0 847 248 
Q 594 497 594 1153 
L 594 3053 
L 172 3053 
L 172 3500 
L 594 3500 
L 594 4494 
L 1172 4494 
z
" transform="scale(0.015625)"/>
       <path id="DejaVuSans-65" d="M 3597 1894 
L 3597 1613 
L 953 1613 
Q 991 1019 1311 708 
Q 1631 397 2203 397 
Q 2534 397 2845 478 
Q 3156 559 3463 722 
L 3463 178 
Q 3153 47 2828 -22 
Q 2503 -91 2169 -91 
Q 1331 -91 842 396 
Q 353 884 353 1716 
Q 353 2575 817 3079 
Q 1281 3584 2069 3584 
Q 2775 3584 3186 3129 
Q 3597 2675 3597 1894 
z
M 3022 2063 
Q 3016 2534 2758 2815 
Q 2500 3097 2075 3097 
Q 1594 3097 1305 2825 
Q 1016 2553 972 2059 
L 3022 2063 
z
" transform="scale(0.015625)"/>
       <path id="DejaVuSans-20" transform="scale(0.015625)"/>
       <path id="DejaVuSans-2d" d="M 313 2009 
L 1997 2009 
L 1997 1497 
L 313 1497 
L 313 2009 
z
" transform="scale(0.015625)"/>
       <path id="DejaVuSans-35" d="M 691 4666 
L 3169 4666 
L 3169 4134 
L 1269 4134 
L 1269 2991 
Q 1406 3038 1543 3061 
Q 1681 3084 1819 3084 
Q 2600 3084 3056 2656 
Q 3513 2228 3513 1497 
Q 3513 744 3044 326 
Q 2575 -91 1722 -91 
Q 1428 -91 1123 -41 
Q 819 9 494 109 
L 494 744 
Q 775 591 1075 516 
Q 1375 441 1709 441 
Q 2250 441 2565 725 
Q 2881 1009 2881 1497 
Q 2881 1984 2565 2268 
Q 2250 2553 1709 2553 
Q 1456 2553 1204 2497 
Q 953 2441 691 2322 
L 691 4666 
z
" transform="scale(0.015625)"/>
       <path id="DejaVuSans-3a" d="M 750 794 
L 1409 794 
L 1409 0 
L 750 0 
L 750 794 
z
M 750 3309 
L 1409 3309 
L 1409 2516 
L 750 2516 
L 750 3309 
z
" transform="scale(0.015625)"/>
       <path id="DejaVuSans-33" d="M 2597 2516 
Q 3050 2419 3304 2112 
Q 3559 1806 3559 1356 
Q 3559 666 3084 287 
Q 2609 -91 1734 -91 
Q 1441 -91 1130 -33 
Q 819 25 488 141 
L 488 750 
Q 750 597 1062 519 
Q 1375 441 1716 441 
Q 2309 441 2620 675 
Q 2931 909 2931 1356 
Q 2931 1769 2642 2001 
Q 2353 2234 1838 2234 
L 1294 2234 
L 1294 2753 
L 1863 2753 
Q 2328 2753 2575 2939 
Q 2822 3125 2822 3475 
Q 2822 3834 2567 4026 
Q 2313 4219 1838 4219 
Q 1578 4219 1281 4162 
Q 984 4106 628 3988 
L 628 4550 
Q 988 4650 1302 4700 
Q 1616 4750 1894 4750 
Q 2613 4750 3031 4423 
Q 3450 4097 3450 3541 
Q 3450 3153 3228 2886 
Q 3006 2619 2597 2516 
z
" transform="scale(0.015625)"/>
       <path id="DejaVuSans-39" d="M 703 97 
L 703 672 
Q 941 559 1184 500 
Q 1428 441 1663 441 
Q 2288 441 2617 861 
Q 2947 1281 2994 2138 
Q 2813 1869 2534 1725 
Q 2256 1581 1919 1581 
Q 1219 1581 811 2004 
Q 403 2428 403 3163 
Q 403 3881 828 4315 
Q 1253 4750 1959 4750 
Q 2769 4750 3195 4129 
Q 3622 3509 3622 2328 
Q 3622 1225 3098 567 
Q 2575 -91 1691 -91 
Q 1453 -91 1209 -44 
Q 966 3 703 97 
z
M 1959 2075 
Q 2384 2075 2632 2365 
Q 2881 2656 2881 3163 
Q 2881 3666 2632 3958 
Q 2384 4250 1959 4250 
Q 1534 4250 1286 3958 
Q 1038 3666 1038 3163 
Q 1038 2656 1286 2365 
Q 1534 2075 1959 2075 
z
" transform="scale(0.015625)"/>
       <path id="DejaVuSans-2e" d="M 684 794 
L 1344 794 
L 1344 0 
L 684 0 
L 684 794 
z
" transform="scale(0.015625)"/>
       <path id="DejaVuSans-37" d="M 525 4666 
L 3525 4666 
L 3525 4397 
L 1831 0 
L 1172 0 
L 2766 4134 
L 525 4134 
L 525 4666 
z
" transform="scale(0.015625)"/>
       <path id="DejaVuSans-4c" d="M 628 4666 
L 1259 4666 
L 1259 531 
L 3531 531 
L 3531 0 
L 628 0 
L 628 4666 
z
" transform="scale(0.015625)"/>
       <path id="DejaVuSans-73" d="M 2834 3397 
L 2834 2853 
Q 2591 2978 2328 3040 
Q 2066 3103 1784 3103 
Q 1356 3103 1142 2972 
Q 928 2841 928 2578 
Q 928 2378 1081 2264 
Q 1234 2150 1697 2047 
L 1894 2003 
Q 2506 1872 2764 1633 
Q 3022 1394 3022 966 
Q 3022 478 2636 193 
Q 2250 -91 1575 -91 
Q 1294 -91 989 -36 
Q 684 19 347 128 
L 347 722 
Q 666 556 975 473 
Q 1284 391 1588 391 
Q 1994 391 2212 530 
Q 2431 669 2431 922 
Q 2431 1156 2273 1281 
Q 2116 1406 1581 1522 
L 1381 1569 
Q 847 1681 609 1914 
Q 372 2147 372 2553 
Q 372 3047 722 3315 
Q 1072 3584 1716 3584 
Q 2034 3584 2315 3537 
Q 2597 3491 2834 3397 
z
" transform="scale(0.015625)"/>
       <path id="DejaVuSans-72" d="M 2631 2963 
Q 2534 3019 2420 3045 
Q 2306 3072 2169 3072 
Q 1681 3072 1420 2755 
Q 1159 2438 1159 1844 
L 1159 0 
L 581 0 
L 581 3500 
L 1159 3500 
L 1159 2956 
Q 1341 3275 1631 3429 
Q 1922 3584 2338 3584 
Q 2397 3584 2469 3576 
Q 2541 3569 2628 3553 
L 2631 2963 
z
" transform="scale(0.015625)"/>
       <path id="DejaVuSans-63" d="M 3122 3366 
L 3122 2828 
Q 2878 2963 2633 3030 
Q 2388 3097 2138 3097 
Q 1578 3097 1268 2742 
Q 959 2388 959 1747 
Q 959 1106 1268 751 
Q 1578 397 2138 397 
Q 2388 397 2633 464 
Q 2878 531 3122 666 
L 3122 134 
Q 2881 22 2623 -34 
Q 2366 -91 2075 -91 
Q 1284 -91 818 406 
Q 353 903 353 1747 
Q 353 2603 823 3093 
Q 1294 3584 2113 3584 
Q 2378 3584 2631 3529 
Q 2884 3475 3122 3366 
z
" transform="scale(0.015625)"/>
       <path id="DejaVuSans-6f" d="M 1959 3097 
Q 1497 3097 1228 2736 
Q 959 2375 959 1747 
Q 959 1119 1226 758 
Q 1494 397 1959 397 
Q 2419 397 2687 759 
Q 2956 1122 2956 1747 
Q 2956 2369 2687 2733 
Q 2419 3097 1959 3097 
z
M 1959 3584 
Q 2709 3584 3137 3096 
Q 3566 2609 3566 1747 
Q 3566 888 3137 398 
Q 2709 -91 1959 -91 
Q 1206 -91 779 398 
Q 353 888 353 1747 
Q 353 2609 779 3096 
Q 1206 3584 1959 3584 
z
" transform="scale(0.015625)"/>
      </defs>
      <use xlink:href="#DejaVuSans-55"/>
      <use xlink:href="#DejaVuSans-70" x="73.193359"/>
      <use xlink:href="#DejaVuSans-64" x="136.669922"/>
      <use xlink:href="#DejaVuSans-61" x="200.146484"/>
      <use xlink:href="#DejaVuSans-74" x="261.425781"/>
      <use xlink:href="#DejaVuSans-65" x="300.634766"/>
      <use xlink:href="#DejaVuSans-64" x="362.158203"/>
      <use xlink:href="#DejaVuSans-20" x="425.634766"/>
      <use xlink:href="#DejaVuSans-32" x="457.421875"/>
      <use xlink:href="#DejaVuSans-30" x="521.044922"/>
      <use xlink:href="#DejaVuSans-32" x="584.667969"/>
      <use xlink:href="#DejaVuSans-32" x="648.291016"/>
      <use xlink:href="#DejaVuSans-2d" x="711.914062"/>
      <use xlink:href="#DejaVuSans-30" x="747.998047"/>
      <use xlink:href="#DejaVuSans-38" x="811.621094"/>
      <use xlink:href="#DejaVuSans-2d" x="875.244141"/>
      <use xlink:href="#DejaVuSans-31" x="911.328125"/>
      <use xlink:href="#DejaVuSans-32" x="974.951172"/>
      <use xlink:href="#DejaVuSans-20" x="1038.574219"/>
      <use xlink:href="#DejaVuSans-30" x="1070.361328"/>
      <use xlink:href="#DejaVuSans-35" x="1133.984375"/>
      <use xlink:href="#DejaVuSans-3a" x="1197.607422"/>
      <use xlink:href="#DejaVuSans-33" x="1231.298828"/>
      <use xlink:href="#DejaVuSans-36" x="1294.921875"/>
      <use xlink:href="#DejaVuSans-3a" x="1358.544922"/>
      <use xlink:href="#DejaVuSans-31" x="1392.236328"/>
      <use xlink:href="#DejaVuSans-39" x="1455.859375"/>
      <use xlink:href="#DejaVuSans-2e" x="1519.482422"/>
      <use xlink:href="#DejaVuSans-31" x="1551.269531"/>
      <use xlink:href="#DejaVuSans-38" x="1614.892578"/>
      <use xlink:href="#DejaVuSans-34" x="1678.515625"/>
      <use xlink:href="#DejaVuSans-31" x="1742.138672"/>
      <use xlink:href="#DejaVuSans-37" x="1805.761719"/>
      <use xlink:href="#DejaVuSans-36" x="1869.384766"/>
      <use xlink:href="#DejaVuSans-20" x="1933.007812"/>
      <use xlink:href="#DejaVuSans-2d" x="1964.794922"/>
      <use xlink:href="#DejaVuSans-20" x="2000.878906"/>
      <use xlink:href="#DejaVuSans-4c" x="2032.666016"/>
      <use xlink:href="#DejaVuSans-61" x="2088.378906"/>
      <use xlink:href="#DejaVuSans-73" x="2149.658203"/>
      <use xlink:href="#DejaVuSans-74" x="2201.757812"/>
      <use xlink:href="#DejaVuSans-20" x="2240.966797"/>
      <use xlink:href="#DejaVuSans-72" x="2272.753906"/>
      <use xlink:href="#DejaVuSans-65" x="2311.617188"/>
      <use xlink:href="#DejaVuSans-63" x="2373.140625"/>
      <use xlink:href="#DejaVuSans-6f" x="2428.121094"/>
      <use xlink:href="#DejaVuSans-72" x="2489.302734"/>
      <use xlink:href="#DejaVuSans-64" x="2528.666016"/>
      <use xlink:href="#DejaVuSans-20" x="2592.142578"/>
      <use xlink:href="#DejaVuSans-32" x="2623.929688"/>
      <use xlink:href="#DejaVuSans-30" x="2687.552734"/>
      <use xlink:href="#DejaVuSans-32" x="2751.175781"/>
      <use xlink:href="#DejaVuSans-32" x="2814.798828"/>
      <use xlink:href="#DejaVuSans-2d" x="2878.421875"/>
      <use xlink:href="#DejaVuSans-30" x="2914.505859"/>
      <use xlink:href="#DejaVuSans-38" x="2978.128906"/>
      <use xlink:href="#DejaVuSans-2d" x="3041.751953"/>
      <use xlink:href="#DejaVuSans-31" x="3077.835938"/>
      <use xlink:href="#DejaVuSans-30" x="3141.458984"/>
     </g>
    </g>
   </g>
   <g id="matplotlib.axis_2">
    <g id="ytick_1">
     <g id="line2d_9">
      <defs>
       <path id="m991d09e5f1" d="M 0 0 
L -3.5 0 
" style="stroke: #000000; stroke-width: 0.8"/>
      </defs>
      <g>
       <use xlink:href="#m991d09e5f1" x="57.6" y="295.567803" style="stroke: #000000; stroke-width: 0.8"/>
      </g>
     </g>
     <g id="text_10">
      <!-- 0 -->
      <g transform="translate(44.2375 299.367021)scale(0.1 -0.1)">
       <use xlink:href="#DejaVuSans-30"/>
      </g>
     </g>
    </g>
    <g id="ytick_2">
     <g id="line2d_10">
      <g>
       <use xlink:href="#m991d09e5f1" x="57.6" y="238.155879" style="stroke: #000000; stroke-width: 0.8"/>
      </g>
     </g>
     <g id="text_11">
      <!-- 10 -->
      <g transform="translate(37.875 241.955097)scale(0.1 -0.1)">
       <use xlink:href="#DejaVuSans-31"/>
       <use xlink:href="#DejaVuSans-30" x="63.623047"/>
      </g>
     </g>
    </g>
    <g id="ytick_3">
     <g id="line2d_11">
      <g>
       <use xlink:href="#m991d09e5f1" x="57.6" y="180.743955" style="stroke: #000000; stroke-width: 0.8"/>
      </g>
     </g>
     <g id="text_12">
      <!-- 20 -->
      <g transform="translate(37.875 184.543173)scale(0.1 -0.1)">
       <use xlink:href="#DejaVuSans-32"/>
       <use xlink:href="#DejaVuSans-30" x="63.623047"/>
      </g>
     </g>
    </g>
    <g id="ytick_4">
     <g id="line2d_12">
      <g>
       <use xlink:href="#m991d09e5f1" x="57.6" y="123.332031" style="stroke: #000000; stroke-width: 0.8"/>
      </g>
     </g>
     <g id="text_13">
      <!-- 30 -->
      <g transform="translate(37.875 127.131249)scale(0.1 -0.1)">
       <use xlink:href="#DejaVuSans-33"/>
       <use xlink:href="#DejaVuSans-30" x="63.623047"/>
      </g>
     </g>
    </g>
    <g id="ytick_5">
     <g id="line2d_13">
      <g>
       <use xlink:href="#m991d09e5f1" x="57.6" y="65.920107" style="stroke: #000000; stroke-width: 0.8"/>
      </g>
     </g>
     <g id="text_14">
      <!-- 40 -->
      <g transform="translate(37.875 69.719325)scale(0.1 -0.1)">
       <use xlink:href="#DejaVuSans-34"/>
       <use xlink:href="#DejaVuSans-30" x="63.623047"/>
      </g>
     </g>
    </g>
    <g id="text_15">
     <!-- IPv6 as % of total Google traffic -->
     <g transform="translate(31.795312 253.735813)rotate(-90)scale(0.1 -0.1)">
      <defs>
       <path id="DejaVuSans-49" d="M 628 4666 
L 1259 4666 
L 1259 0 
L 628 0 
L 628 4666 
z
" transform="scale(0.015625)"/>
       <path id="DejaVuSans-50" d="M 1259 4147 
L 1259 2394 
L 2053 2394 
Q 2494 2394 2734 2622 
Q 2975 2850 2975 3272 
Q 2975 3691 2734 3919 
Q 2494 4147 2053 4147 
L 1259 4147 
z
M 628 4666 
L 2053 4666 
Q 2838 4666 3239 4311 
Q 3641 3956 3641 3272 
Q 3641 2581 3239 2228 
Q 2838 1875 2053 1875 
L 1259 1875 
L 1259 0 
L 628 0 
L 628 4666 
z
" transform="scale(0.015625)"/>
       <path id="DejaVuSans-76" d="M 191 3500 
L 800 3500 
L 1894 563 
L 2988 3500 
L 3597 3500 
L 2284 0 
L 1503 0 
L 191 3500 
z
" transform="scale(0.015625)"/>
       <path id="DejaVuSans-25" d="M 4653 2053 
Q 4381 2053 4226 1822 
Q 4072 1591 4072 1178 
Q 4072 772 4226 539 
Q 4381 306 4653 306 
Q 4919 306 5073 539 
Q 5228 772 5228 1178 
Q 5228 1588 5073 1820 
Q 4919 2053 4653 2053 
z
M 4653 2450 
Q 5147 2450 5437 2106 
Q 5728 1763 5728 1178 
Q 5728 594 5436 251 
Q 5144 -91 4653 -91 
Q 4153 -91 3862 251 
Q 3572 594 3572 1178 
Q 3572 1766 3864 2108 
Q 4156 2450 4653 2450 
z
M 1428 4353 
Q 1159 4353 1004 4120 
Q 850 3888 850 3481 
Q 850 3069 1003 2837 
Q 1156 2606 1428 2606 
Q 1700 2606 1854 2837 
Q 2009 3069 2009 3481 
Q 2009 3884 1853 4118 
Q 1697 4353 1428 4353 
z
M 4250 4750 
L 4750 4750 
L 1831 -91 
L 1331 -91 
L 4250 4750 
z
M 1428 4750 
Q 1922 4750 2215 4408 
Q 2509 4066 2509 3481 
Q 2509 2891 2217 2550 
Q 1925 2209 1428 2209 
Q 931 2209 642 2551 
Q 353 2894 353 3481 
Q 353 4063 643 4406 
Q 934 4750 1428 4750 
z
" transform="scale(0.015625)"/>
       <path id="DejaVuSans-66" d="M 2375 4863 
L 2375 4384 
L 1825 4384 
Q 1516 4384 1395 4259 
Q 1275 4134 1275 3809 
L 1275 3500 
L 2222 3500 
L 2222 3053 
L 1275 3053 
L 1275 0 
L 697 0 
L 697 3053 
L 147 3053 
L 147 3500 
L 697 3500 
L 697 3744 
Q 697 4328 969 4595 
Q 1241 4863 1831 4863 
L 2375 4863 
z
" transform="scale(0.015625)"/>
       <path id="DejaVuSans-6c" d="M 603 4863 
L 1178 4863 
L 1178 0 
L 603 0 
L 603 4863 
z
" transform="scale(0.015625)"/>
       <path id="DejaVuSans-47" d="M 3809 666 
L 3809 1919 
L 2778 1919 
L 2778 2438 
L 4434 2438 
L 4434 434 
Q 4069 175 3628 42 
Q 3188 -91 2688 -91 
Q 1594 -91 976 548 
Q 359 1188 359 2328 
Q 359 3472 976 4111 
Q 1594 4750 2688 4750 
Q 3144 4750 3555 4637 
Q 3966 4525 4313 4306 
L 4313 3634 
Q 3963 3931 3569 4081 
Q 3175 4231 2741 4231 
Q 1884 4231 1454 3753 
Q 1025 3275 1025 2328 
Q 1025 1384 1454 906 
Q 1884 428 2741 428 
Q 3075 428 3337 486 
Q 3600 544 3809 666 
z
" transform="scale(0.015625)"/>
       <path id="DejaVuSans-67" d="M 2906 1791 
Q 2906 2416 2648 2759 
Q 2391 3103 1925 3103 
Q 1463 3103 1205 2759 
Q 947 2416 947 1791 
Q 947 1169 1205 825 
Q 1463 481 1925 481 
Q 2391 481 2648 825 
Q 2906 1169 2906 1791 
z
M 3481 434 
Q 3481 -459 3084 -895 
Q 2688 -1331 1869 -1331 
Q 1566 -1331 1297 -1286 
Q 1028 -1241 775 -1147 
L 775 -588 
Q 1028 -725 1275 -790 
Q 1522 -856 1778 -856 
Q 2344 -856 2625 -561 
Q 2906 -266 2906 331 
L 2906 616 
Q 2728 306 2450 153 
Q 2172 0 1784 0 
Q 1141 0 747 490 
Q 353 981 353 1791 
Q 353 2603 747 3093 
Q 1141 3584 1784 3584 
Q 2172 3584 2450 3431 
Q 2728 3278 2906 2969 
L 2906 3500 
L 3481 3500 
L 3481 434 
z
" transform="scale(0.015625)"/>
       <path id="DejaVuSans-69" d="M 603 3500 
L 1178 3500 
L 1178 0 
L 603 0 
L 603 3500 
z
M 603 4863 
L 1178 4863 
L 1178 4134 
L 603 4134 
L 603 4863 
z
" transform="scale(0.015625)"/>
      </defs>
      <use xlink:href="#DejaVuSans-49"/>
      <use xlink:href="#DejaVuSans-50" x="29.492188"/>
      <use xlink:href="#DejaVuSans-76" x="89.794922"/>
      <use xlink:href="#DejaVuSans-36" x="148.974609"/>
      <use xlink:href="#DejaVuSans-20" x="212.597656"/>
      <use xlink:href="#DejaVuSans-61" x="244.384766"/>
      <use xlink:href="#DejaVuSans-73" x="305.664062"/>
      <use xlink:href="#DejaVuSans-20" x="357.763672"/>
      <use xlink:href="#DejaVuSans-25" x="389.550781"/>
      <use xlink:href="#DejaVuSans-20" x="484.570312"/>
      <use xlink:href="#DejaVuSans-6f" x="516.357422"/>
      <use xlink:href="#DejaVuSans-66" x="577.539062"/>
      <use xlink:href="#DejaVuSans-20" x="612.744141"/>
      <use xlink:href="#DejaVuSans-74" x="644.53125"/>
      <use xlink:href="#DejaVuSans-6f" x="683.740234"/>
      <use xlink:href="#DejaVuSans-74" x="744.921875"/>
      <use xlink:href="#DejaVuSans-61" x="784.130859"/>
      <use xlink:href="#DejaVuSans-6c" x="845.410156"/>
      <use xlink:href="#DejaVuSans-20" x="873.193359"/>
      <use xlink:href="#DejaVuSans-47" x="904.980469"/>
      <use xlink:href="#DejaVuSans-6f" x="982.470703"/>
      <use xlink:href="#DejaVuSans-6f" x="1043.652344"/>
      <use xlink:href="#DejaVuSans-67" x="1104.833984"/>
      <use xlink:href="#DejaVuSans-6c" x="1168.310547"/>
      <use xlink:href="#DejaVuSans-65" x="1196.09375"/>
      <use xlink:href="#DejaVuSans-20" x="1257.617188"/>
      <use xlink:href="#DejaVuSans-74" x="1289.404297"/>
      <use xlink:href="#DejaVuSans-72" x="1328.613281"/>
      <use xlink:href="#DejaVuSans-61" x="1369.726562"/>
      <use xlink:href="#DejaVuSans-66" x="1431.005859"/>
      <use xlink:href="#DejaVuSans-66" x="1466.210938"/>
      <use xlink:href="#DejaVuSans-69" x="1501.416016"/>
      <use xlink:href="#DejaVuSans-63" x="1529.199219"/>
     </g>
    </g>
   </g>
   <g id="line2d_14">
    <path d="M 73.832727 294.521798 
L 75.618997 294.344515 
L 76.065565 294.513329 
L 77.851834 294.512589 
L 79.638104 294.358707 
L 80.084672 294.22263 
L 81.424374 294.245204 
L 82.764077 294.21241 
L 83.210644 294.289027 
L 84.996914 294.13247 
L 86.783184 294.193568 
L 88.122886 294.143591 
L 89.462588 294.148454 
L 90.802291 294.199142 
L 92.141993 294.182792 
L 92.588561 294.293241 
L 94.821398 294.266406 
L 96.1611 294.213691 
L 97.94737 294.110642 
L 98.840505 294.120052 
L 99.287073 293.840548 
L 101.966477 293.74467 
L 102.859612 293.70788 
L 104.645882 293.850761 
L 105.985585 293.799923 
L 107.325287 293.85106 
L 109.558124 293.815889 
L 110.897827 294.019506 
L 111.790962 293.992442 
L 112.684097 293.948608 
L 113.577231 294.146565 
L 115.810069 294.164655 
L 117.149771 294.288986 
L 119.382608 294.195836 
L 120.275743 294.083015 
L 120.722311 293.99002 
L 121.615446 293.985438 
L 124.741418 293.917864 
L 125.634553 294.015241 
L 126.08112 293.878078 
L 128.760525 294.132493 
L 131.886497 293.953104 
L 132.779632 293.955343 
L 133.2262 293.824788 
L 134.119335 293.933991 
L 135.01247 293.731293 
L 135.459037 293.781683 
L 135.905605 293.657243 
L 136.352172 293.711727 
L 137.245307 293.595933 
L 138.138442 293.550629 
L 138.585009 293.57945 
L 139.031577 293.722319 
L 140.817847 293.75459 
L 141.264414 293.82151 
L 142.157549 293.729358 
L 142.604117 293.540852 
L 143.943819 293.378456 
L 145.283521 293.510567 
L 145.730089 293.36683 
L 146.623224 293.513271 
L 149.749196 292.990874 
L 150.642331 293.149429 
L 153.321736 292.735822 
L 155.554573 292.587458 
L 156.00114 292.367897 
L 156.447708 292.452505 
L 156.894275 292.258149 
L 157.78741 292.213901 
L 158.233978 292.227858 
L 159.57368 291.855835 
L 161.35995 291.26235 
L 161.806517 291.339546 
L 163.14622 291.206822 
L 163.592787 291.315238 
L 165.379057 291.100655 
L 166.71876 290.611632 
L 167.165327 290.504536 
L 167.611894 290.565496 
L 168.058462 290.203789 
L 168.505029 290.029309 
L 170.291299 289.818928 
L 170.737867 289.988586 
L 171.184434 289.823625 
L 172.077569 289.732857 
L 172.524137 289.46902 
L 173.417271 289.292972 
L 175.203541 289.274635 
L 176.096676 289.049735 
L 177.436379 288.884021 
L 177.882946 288.667354 
L 178.329514 288.646456 
L 178.776081 288.75849 
L 180.562351 287.948494 
L 181.008918 287.967049 
L 182.795188 287.457714 
L 183.241756 287.116377 
L 183.688323 287.038061 
L 184.134891 286.826826 
L 184.581458 286.861227 
L 185.92116 286.342516 
L 186.367728 286.434237 
L 186.814295 286.178921 
L 187.260863 286.134047 
L 189.4937 284.934569 
L 190.386835 284.5694 
L 191.27997 283.929854 
L 192.619672 282.349235 
L 193.06624 282.600992 
L 193.512807 282.644545 
L 194.85251 281.14289 
L 195.299077 280.962829 
L 195.745645 280.203803 
L 196.63878 279.967031 
L 197.531914 279.461812 
L 197.978482 279.514464 
L 199.318184 278.685602 
L 199.764752 278.509554 
L 200.211319 278.183983 
L 201.104454 278.106839 
L 201.551022 277.369302 
L 201.997589 277.359582 
L 202.444157 276.548713 
L 202.890724 276.128768 
L 203.783859 276.249299 
L 204.230426 275.94908 
L 204.676994 275.486621 
L 205.570129 274.948281 
L 206.016696 274.46702 
L 206.463264 274.762083 
L 208.249534 273.817835 
L 208.696101 273.468696 
L 209.142669 272.033954 
L 209.589236 272.306116 
L 210.482371 271.331858 
L 210.928938 271.290028 
L 211.375506 271.711208 
L 212.715208 270.752853 
L 213.161776 270.102698 
L 214.054911 270.152824 
L 214.501478 269.449339 
L 214.948046 269.400917 
L 215.394613 265.674005 
L 215.84118 268.12612 
L 216.287748 269.586886 
L 216.734315 268.877085 
L 217.180883 268.480432 
L 217.62745 268.41651 
L 218.074018 267.482974 
L 218.520585 267.190461 
L 219.860288 265.16425 
L 220.306855 263.841256 
L 220.753423 263.086128 
L 221.19999 262.060929 
L 221.646557 261.384054 
L 222.093125 262.465052 
L 222.539692 262.299619 
L 222.98626 262.329548 
L 223.432827 262.504178 
L 223.879395 262.830255 
L 224.325962 262.705849 
L 224.77253 260.321859 
L 225.219097 260.674483 
L 226.5588 259.418276 
L 227.005367 259.249197 
L 227.898502 259.323534 
L 228.345069 257.521443 
L 228.791637 257.45581 
L 229.684772 256.033642 
L 230.131339 256.518514 
L 230.577907 254.298791 
L 231.024474 254.823456 
L 231.471042 253.32501 
L 231.917609 252.607476 
L 232.364177 251.530072 
L 232.810744 252.278265 
L 233.257311 251.144902 
L 233.703879 249.259414 
L 234.150446 250.209523 
L 234.597014 250.480376 
L 235.043581 249.895107 
L 235.490149 248.171084 
L 235.936716 248.649986 
L 236.383284 247.127847 
L 236.829851 247.478484 
L 237.722986 245.425526 
L 238.169554 244.385549 
L 239.509256 244.059036 
L 239.955823 242.858185 
L 240.402391 243.004316 
L 240.848958 242.553839 
L 241.295526 241.363661 
L 241.742093 241.061588 
L 242.188661 239.730802 
L 242.635228 238.818504 
L 243.081796 238.657722 
L 243.528363 238.882277 
L 243.974931 238.301791 
L 244.421498 235.828945 
L 245.314633 237.279434 
L 245.7612 237.000802 
L 246.654335 236.917308 
L 247.100903 236.966436 
L 247.994038 236.668077 
L 248.440605 235.276768 
L 248.887173 235.210905 
L 249.33374 233.977025 
L 249.780308 233.973558 
L 250.226875 233.786119 
L 251.566577 230.257117 
L 252.013145 228.178576 
L 252.459712 229.598011 
L 252.90628 229.003069 
L 253.352847 227.773334 
L 253.799415 228.047063 
L 254.245982 225.421604 
L 254.69255 225.806792 
L 255.139117 225.484866 
L 255.585685 223.652915 
L 256.032252 223.635576 
L 256.47882 222.270057 
L 256.925387 222.598849 
L 257.371954 221.518793 
L 257.818522 220.945035 
L 258.265089 221.249852 
L 258.711657 220.510301 
L 259.158224 219.356556 
L 259.604792 219.725376 
L 260.051359 219.178189 
L 260.497927 217.362554 
L 260.944494 216.603282 
L 261.391062 216.674306 
L 261.837629 214.551092 
L 262.284197 214.928668 
L 263.177331 212.399816 
L 263.623899 209.876332 
L 264.070466 210.125747 
L 264.963601 208.706777 
L 265.410169 207.116857 
L 265.856736 207.329407 
L 266.303304 206.66309 
L 266.749871 204.149183 
L 267.196439 203.267169 
L 267.643006 199.099224 
L 268.089574 201.809073 
L 268.536141 201.317764 
L 268.982709 201.96401 
L 269.429276 201.205134 
L 270.322411 202.437613 
L 270.768978 202.191913 
L 271.215546 201.111529 
L 271.662113 201.436446 
L 272.555248 200.060438 
L 273.001816 198.92026 
L 273.448383 198.739441 
L 273.894951 197.968697 
L 274.341518 195.197108 
L 274.788086 196.066824 
L 275.234653 192.350137 
L 275.68122 192.637839 
L 276.127788 190.617588 
L 276.574355 189.372375 
L 277.020923 188.622639 
L 277.46749 188.105501 
L 277.914058 187.082185 
L 278.360625 185.207956 
L 278.807193 182.117879 
L 279.25376 182.898193 
L 281.04003 179.378825 
L 281.486597 178.800027 
L 281.933165 178.821935 
L 282.379732 179.140818 
L 282.8263 178.04583 
L 283.272867 176.511197 
L 283.719435 177.886018 
L 284.166002 177.912553 
L 284.61257 179.137362 
L 285.059137 177.796955 
L 285.505705 175.712976 
L 285.952272 175.980011 
L 286.39884 175.08032 
L 287.738542 173.64954 
L 288.631677 172.598586 
L 289.078244 172.484744 
L 289.524812 187.723206 
L 289.971379 170.550215 
L 290.417947 169.725958 
L 290.864514 165.561572 
L 291.311082 169.425148 
L 292.204217 168.860605 
L 292.650784 168.857872 
L 293.097352 168.340838 
L 293.543919 168.086038 
L 293.990486 169.501488 
L 294.437054 170.398831 
L 294.883621 170.180689 
L 295.330189 168.964986 
L 295.776756 169.05228 
L 297.116459 168.030009 
L 297.563026 165.298867 
L 298.009594 166.376856 
L 298.456161 163.484351 
L 298.902729 164.70401 
L 299.349296 162.27614 
L 299.795863 160.760196 
L 300.242431 161.654036 
L 300.688998 159.794975 
L 301.135566 158.560584 
L 301.582133 158.298108 
L 302.028701 159.307266 
L 302.475268 159.839596 
L 303.814971 157.113224 
L 304.261538 157.740214 
L 304.708106 158.64378 
L 305.154673 158.81899 
L 305.60124 156.751144 
L 306.047808 155.980929 
L 306.494375 154.481932 
L 306.940943 154.112601 
L 307.38751 153.902669 
L 307.834078 154.059535 
L 308.280645 153.861809 
L 309.17378 151.802696 
L 309.620348 153.004017 
L 310.066915 149.198491 
L 310.513483 149.296372 
L 310.96005 148.832312 
L 311.406617 146.056761 
L 311.853185 145.223978 
L 312.299752 144.723426 
L 312.74632 144.727072 
L 313.192887 143.222323 
L 313.639455 143.119745 
L 314.53259 140.740572 
L 314.979157 142.31096 
L 315.425725 143.322455 
L 316.31886 140.913646 
L 316.765427 142.09508 
L 317.211994 141.879062 
L 317.658562 142.393323 
L 318.105129 140.575128 
L 318.551697 139.940738 
L 318.998264 141.315357 
L 319.444832 139.342132 
L 319.891399 139.500015 
L 320.337967 138.937154 
L 320.784534 138.884881 
L 321.231102 138.718954 
L 321.677669 134.821213 
L 322.124237 134.707675 
L 322.570804 135.015294 
L 323.017372 135.958067 
L 323.910506 131.409498 
L 324.357074 129.402934 
L 324.803641 128.893633 
L 325.250209 129.068567 
L 325.696776 128.702348 
L 326.143344 126.709143 
L 326.589911 128.352847 
L 327.036479 126.602776 
L 327.483046 128.226793 
L 327.929614 127.0626 
L 328.376181 126.357892 
L 328.822749 126.299125 
L 329.269316 126.37852 
L 329.715883 124.860916 
L 330.162451 125.033347 
L 330.609018 126.675833 
L 331.055586 126.119293 
L 331.502153 126.793022 
L 331.948721 127.068387 
L 332.395288 124.963442 
L 332.841856 126.224105 
L 333.288423 126.562864 
L 333.734991 125.780552 
L 334.181558 125.302557 
L 334.628126 123.417017 
L 335.074693 123.814974 
L 335.52126 123.404593 
L 335.967828 123.540688 
L 336.414395 122.444213 
L 336.860963 121.96457 
L 337.30753 120.576712 
L 337.754098 119.970086 
L 338.200665 120.827694 
L 338.647233 121.082683 
L 339.0938 121.140049 
L 339.986935 119.166399 
L 340.433503 119.639542 
L 340.88007 118.200346 
L 341.326637 118.823237 
L 341.773205 118.554055 
L 342.219772 117.558596 
L 342.66634 117.801867 
L 343.112907 118.485701 
L 343.559475 118.173954 
L 344.006042 118.190247 
L 344.45261 115.604432 
L 345.345745 113.763421 
L 345.792312 114.067388 
L 346.23888 113.423777 
L 346.685447 111.281687 
L 347.132015 111.97462 
L 347.578582 108.900734 
L 348.025149 111.360743 
L 348.471717 109.324267 
L 348.918284 106.540432 
L 349.364852 107.354786 
L 349.811419 105.616559 
L 350.257987 104.44364 
L 350.704554 104.555845 
L 351.151122 103.675881 
L 351.597689 105.881877 
L 352.044257 104.044081 
L 352.490824 104.733185 
L 352.937392 105.137491 
L 354.277094 102.317808 
L 354.723661 104.66541 
L 355.170229 104.712448 
L 355.616796 103.674653 
L 356.063364 104.262717 
L 356.509931 105.688491 
L 356.956499 104.57962 
L 357.403066 101.999551 
L 357.849634 106.282767 
L 358.296201 105.128977 
L 358.742769 103.458945 
L 359.189336 104.859893 
L 359.635903 104.961116 
L 360.082471 102.673331 
L 360.529038 101.533998 
L 360.975606 99.445335 
L 361.422173 100.463885 
L 361.868741 99.692217 
L 362.315308 99.930224 
L 362.761876 100.584071 
L 363.208443 98.914446 
L 363.655011 98.229895 
L 364.101578 99.467662 
L 364.548146 99.159159 
L 364.994713 96.480744 
L 365.44128 95.891577 
L 365.887848 94.068714 
L 366.334415 97.062102 
L 366.780983 98.054864 
L 367.22755 97.078913 
L 367.674118 96.892272 
L 368.120685 97.045332 
L 368.567253 91.765755 
L 369.01382 95.295182 
L 369.460388 93.261393 
L 370.353523 94.29022 
L 370.80009 89.2899 
L 371.246657 88.650848 
L 371.693225 86.639415 
L 372.139792 86.55936 
L 372.58636 88.378756 
L 373.032927 85.869751 
L 373.479495 85.37656 
L 373.926062 84.080865 
L 374.37263 83.612286 
L 374.819197 82.140146 
L 375.265765 82.360246 
L 375.712332 85.929414 
L 376.1589 84.004713 
L 376.605467 82.786036 
L 377.052035 85.103796 
L 377.498602 83.822075 
L 377.945169 83.370891 
L 378.391737 81.52039 
L 379.284872 84.465576 
L 379.731439 84.142123 
L 380.178007 84.603881 
L 380.624574 84.457579 
L 381.071142 82.798317 
L 381.517709 84.716805 
L 381.964277 82.411865 
L 382.410844 81.596742 
L 382.857412 81.511342 
L 383.750546 78.641802 
L 384.197114 75.43983 
L 384.643681 77.623562 
L 385.090249 81.702248 
L 385.536816 77.107968 
L 385.983384 76.892145 
L 386.429951 79.97516 
L 387.323086 75.87174 
L 387.769654 75.816889 
L 388.216221 76.683149 
L 388.662789 76.6478 
L 389.109356 77.311166 
L 389.555923 69.512577 
L 390.002491 68.680047 
L 390.449058 68.912525 
L 390.895626 67.318695 
L 391.342193 66.795931 
L 391.788761 64.023906 
L 392.235328 67.546156 
L 392.681896 68.919529 
L 393.128463 65.906316 
L 393.575031 67.891856 
L 394.021598 64.515317 
L 394.468166 62.796111 
L 394.914733 58.625336 
L 395.3613 59.747619 
L 395.807868 53.568 
L 396.254435 56.071338 
L 397.14757 59.87784 
L 397.594138 58.076197 
L 398.040705 58.427644 
L 398.487273 73.661261 
L 398.487273 73.661261 
" clip-path="url(#pbd756213a9)" style="fill: none; stroke: #1f77b4; stroke-width: 1.5; stroke-linecap: square"/>
   </g>
   <g id="line2d_15">
    <path d="M 73.832727 294.796158 
L 75.618997 294.650297 
L 76.065565 294.772372 
L 85.890049 294.504746 
L 86.783184 294.495474 
L 89.016021 294.425862 
L 91.248858 294.497133 
L 93.035128 294.493918 
L 99.287073 294.407255 
L 99.73364 294.201726 
L 102.413045 294.119374 
L 104.645882 294.132751 
L 107.325287 294.166802 
L 109.558124 294.167819 
L 111.344394 294.279755 
L 112.684097 294.288877 
L 115.363501 294.320477 
L 118.489474 294.423956 
L 119.382608 294.408926 
L 120.722311 294.22848 
L 122.508581 294.201359 
L 124.741418 294.138969 
L 130.100228 294.328285 
L 136.352172 293.854459 
L 137.245307 293.794509 
L 138.138442 293.728215 
L 139.031577 293.831356 
L 139.924712 293.844911 
L 140.817847 293.899125 
L 142.157549 293.935765 
L 143.050684 293.616216 
L 143.943819 293.657059 
L 144.390386 293.741432 
L 146.176656 293.633968 
L 146.623224 293.691678 
L 147.069791 293.551059 
L 149.302628 293.50095 
L 150.195763 293.321791 
L 150.642331 293.319672 
L 151.088898 293.434025 
L 157.340843 292.71877 
L 158.233978 292.599497 
L 158.680545 292.590535 
L 159.127113 292.440437 
L 160.020248 292.448268 
L 161.35995 292.01362 
L 163.14622 291.708676 
L 163.592787 291.840506 
L 165.379057 291.704571 
L 171.631002 290.585636 
L 172.077569 290.634775 
L 172.970704 290.354002 
L 173.863839 290.242353 
L 174.310406 289.985699 
L 175.650109 290.277816 
L 176.543244 290.076231 
L 176.989811 290.016977 
L 177.436379 289.767585 
L 177.882946 289.786261 
L 178.329514 289.601521 
L 179.669216 289.507124 
L 180.115783 289.243695 
L 181.455486 288.977321 
L 181.902053 288.980198 
L 182.348621 288.811453 
L 182.795188 288.794304 
L 184.581458 288.271051 
L 185.028026 288.20342 
L 185.92116 287.753196 
L 186.367728 287.904333 
L 187.70743 287.372578 
L 188.600565 286.929352 
L 189.047133 286.593498 
L 189.940268 286.360187 
L 190.386835 286.467387 
L 191.27997 286.303476 
L 192.619672 285.049243 
L 193.06624 284.747957 
L 193.512807 284.830785 
L 193.959375 284.669142 
L 195.299077 283.727386 
L 195.745645 283.568033 
L 196.63878 282.807233 
L 197.085347 282.70299 
L 197.531914 281.267158 
L 197.978482 281.401215 
L 198.425049 282.357726 
L 198.871617 282.253857 
L 199.764752 281.519897 
L 200.211319 282.183143 
L 200.657887 281.324364 
L 201.104454 281.271545 
L 201.551022 281.004614 
L 201.997589 280.380282 
L 202.444157 280.412008 
L 203.337291 279.455766 
L 203.783859 279.484604 
L 204.230426 279.270951 
L 204.676994 278.495305 
L 205.123561 278.757212 
L 205.570129 278.170129 
L 206.016696 278.346235 
L 206.463264 278.134299 
L 206.909831 278.22079 
L 207.356399 277.559295 
L 207.802966 277.584792 
L 208.249534 276.909932 
L 208.696101 277.027179 
L 209.589236 275.602795 
L 210.035803 275.320919 
L 210.482371 275.231276 
L 210.928938 274.904355 
L 211.375506 274.871952 
L 211.822073 274.997093 
L 212.268641 274.973359 
L 213.608343 274.506003 
L 214.054911 274.658167 
L 214.948046 274.264947 
L 215.394613 273.587016 
L 215.84118 272.065342 
L 216.287748 273.201196 
L 216.734315 273.575126 
L 217.180883 273.182572 
L 217.62745 273.410279 
L 218.074018 272.8422 
L 218.967153 272.107666 
L 219.41372 271.379476 
L 219.860288 270.922793 
L 220.306855 269.96608 
L 220.753423 267.134593 
L 221.19999 265.320979 
L 221.646557 268.007679 
L 222.093125 268.716183 
L 222.539692 268.735668 
L 222.98626 269.018847 
L 223.432827 268.998454 
L 223.879395 269.377442 
L 224.325962 268.595336 
L 224.77253 268.732861 
L 225.219097 267.272135 
L 225.665665 266.825763 
L 226.112232 267.079541 
L 227.005367 265.622903 
L 227.451934 266.017162 
L 227.898502 265.979149 
L 228.345069 265.509727 
L 228.791637 264.828396 
L 229.238204 264.473901 
L 229.684772 264.524148 
L 230.577907 262.412198 
L 231.024474 261.791013 
L 231.471042 261.457191 
L 231.917609 260.24042 
L 232.364177 259.818988 
L 233.703879 257.365438 
L 234.150446 257.78199 
L 235.043581 257.372298 
L 235.936716 256.585698 
L 236.383284 256.92766 
L 237.276419 256.494022 
L 238.169554 255.409017 
L 239.509256 254.854412 
L 239.955823 254.858046 
L 240.402391 253.720487 
L 240.848958 253.605904 
L 241.295526 253.637079 
L 241.742093 253.05448 
L 243.081796 250.169909 
L 243.528363 249.625805 
L 243.974931 247.000145 
L 244.421498 243.295698 
L 244.868066 248.792126 
L 245.314633 249.989831 
L 245.7612 249.655418 
L 246.207768 249.065711 
L 246.654335 249.145962 
L 247.100903 249.449671 
L 247.994038 248.208925 
L 248.440605 247.989094 
L 249.33374 247.184885 
L 249.780308 245.877363 
L 250.226875 245.57405 
L 250.673443 245.499926 
L 251.566577 244.342938 
L 252.013145 242.967652 
L 252.459712 242.110544 
L 252.90628 242.650716 
L 253.799415 240.961387 
L 254.245982 239.407315 
L 254.69255 238.955294 
L 255.139117 238.734223 
L 256.032252 236.242052 
L 256.47882 234.301179 
L 256.925387 235.151134 
L 257.371954 234.99092 
L 257.818522 234.014314 
L 258.265089 233.355174 
L 258.711657 233.186417 
L 259.158224 233.305748 
L 259.604792 234.652637 
L 260.051359 233.962035 
L 260.497927 234.271095 
L 260.944494 233.53791 
L 261.391062 233.61761 
L 261.837629 232.792968 
L 262.730764 230.486512 
L 263.177331 230.718181 
L 264.070466 227.456007 
L 264.517034 228.228995 
L 264.963601 227.628248 
L 265.410169 226.206534 
L 265.856736 226.100976 
L 266.303304 225.14679 
L 266.749871 224.603507 
L 267.196439 220.814004 
L 267.643006 212.070157 
L 268.089574 218.364714 
L 268.536141 221.721009 
L 268.982709 222.075556 
L 269.875843 221.706076 
L 270.322411 221.808637 
L 270.768978 221.761657 
L 271.215546 220.716972 
L 271.662113 220.456242 
L 272.108681 220.781664 
L 273.001816 219.559456 
L 273.894951 217.364994 
L 274.341518 214.961421 
L 274.788086 215.769999 
L 275.234653 215.650255 
L 275.68122 211.291105 
L 276.127788 212.247146 
L 277.020923 209.338669 
L 277.46749 206.540211 
L 277.914058 206.439356 
L 278.360625 206.056114 
L 279.25376 201.181503 
L 279.700328 200.858096 
L 280.146895 200.138346 
L 280.593463 199.786847 
L 281.486597 197.0049 
L 281.933165 196.766428 
L 282.379732 196.684048 
L 282.8263 197.903736 
L 283.272867 198.044211 
L 283.719435 199.078981 
L 284.166002 199.800769 
L 285.059137 200.376002 
L 285.505705 197.908759 
L 285.952272 197.2865 
L 286.39884 197.824611 
L 286.845407 196.726165 
L 287.291974 194.705048 
L 287.738542 196.464206 
L 288.185109 197.161554 
L 288.631677 195.080223 
L 289.078244 194.824217 
L 289.524812 193.65209 
L 289.971379 187.723206 
L 290.417947 190.097276 
L 290.864514 180.292151 
L 291.757649 191.93471 
L 292.204217 190.424001 
L 292.650784 192.011223 
L 293.097352 191.422033 
L 293.543919 191.324157 
L 293.990486 189.78697 
L 294.437054 192.381863 
L 294.883621 193.100465 
L 295.330189 192.427672 
L 295.776756 190.953959 
L 296.223324 190.451547 
L 296.669891 189.30119 
L 297.116459 189.221072 
L 297.563026 191.257301 
L 298.009594 190.093446 
L 298.456161 188.438404 
L 298.902729 186.112377 
L 299.349296 185.891221 
L 299.795863 184.929335 
L 300.242431 185.046835 
L 300.688998 182.570699 
L 301.135566 182.51358 
L 301.582133 180.809404 
L 302.028701 180.53811 
L 302.475268 180.018067 
L 302.921836 178.389802 
L 303.814971 178.403259 
L 304.708106 177.744423 
L 305.154673 178.723744 
L 305.60124 177.063523 
L 306.047808 176.179666 
L 306.494375 179.344464 
L 306.940943 179.501767 
L 307.38751 179.352025 
L 307.834078 179.447599 
L 308.280645 179.367819 
L 308.727213 177.783181 
L 309.17378 178.161067 
L 309.620348 178.801037 
L 310.066915 178.09471 
L 310.513483 174.852561 
L 310.96005 175.741125 
L 311.406617 175.298026 
L 311.853185 171.851473 
L 312.299752 173.537736 
L 313.639455 169.041051 
L 314.086022 154.982323 
L 314.53259 160.37487 
L 314.979157 168.485315 
L 315.425725 169.973857 
L 316.31886 168.535889 
L 316.765427 167.125662 
L 317.211994 168.179981 
L 317.658562 167.880813 
L 318.105129 168.990373 
L 318.551697 166.485497 
L 318.998264 168.697963 
L 319.891399 166.400561 
L 320.337967 166.368296 
L 320.784534 167.054673 
L 321.231102 164.183376 
L 321.677669 163.697872 
L 322.124237 161.29388 
L 322.570804 163.501627 
L 323.017372 164.905756 
L 323.463939 162.20921 
L 324.357074 154.689137 
L 324.803641 156.332646 
L 325.250209 154.978758 
L 325.696776 154.239349 
L 326.143344 152.483205 
L 326.589911 153.21341 
L 327.036479 153.417544 
L 327.483046 153.234055 
L 327.929614 152.650153 
L 328.376181 151.718903 
L 328.822749 149.119744 
L 329.269316 152.403747 
L 329.715883 153.333464 
L 330.162451 153.508369 
L 330.609018 154.986089 
L 331.055586 155.806161 
L 331.948721 155.501688 
L 332.395288 156.071444 
L 332.841856 155.742732 
L 333.288423 156.488025 
L 334.181558 153.480903 
L 334.628126 155.373602 
L 335.074693 154.730606 
L 335.52126 153.13022 
L 335.967828 153.307014 
L 336.414395 152.536248 
L 336.860963 150.136401 
L 337.30753 136.868918 
L 337.754098 136.515703 
L 338.200665 149.502142 
L 338.647233 151.323042 
L 339.0938 151.69584 
L 339.540368 150.442544 
L 339.986935 148.749839 
L 340.88007 146.853099 
L 341.326637 146.799384 
L 341.773205 147.428676 
L 342.219772 146.977872 
L 342.66634 136.851436 
L 343.112907 132.431803 
L 343.559475 130.710749 
L 344.006042 131.99394 
L 345.345745 127.497444 
L 345.792312 127.813054 
L 346.23888 130.194484 
L 346.685447 128.012216 
L 347.132015 127.179353 
L 347.578582 129.12785 
L 348.025149 130.199105 
L 348.918284 126.830535 
L 349.364852 123.623488 
L 349.811419 123.3809 
L 350.257987 121.640319 
L 350.704554 123.143748 
L 351.151122 122.937059 
L 351.597689 124.125125 
L 352.044257 122.986715 
L 352.490824 122.996205 
L 352.937392 123.999289 
L 353.383959 125.773088 
L 353.830526 124.925493 
L 354.277094 126.960757 
L 355.170229 127.104402 
L 355.616796 127.889929 
L 356.063364 126.458604 
L 356.509931 126.66063 
L 356.956499 125.528754 
L 357.403066 123.480119 
L 357.849634 125.8164 
L 358.296201 126.286563 
L 358.742769 126.058023 
L 359.189336 128.683551 
L 359.635903 126.484261 
L 360.082471 122.545034 
L 360.529038 117.592916 
L 360.975606 110.520548 
L 361.422173 116.605225 
L 361.868741 121.101526 
L 362.315308 120.318416 
L 362.761876 121.295262 
L 363.208443 120.085093 
L 364.101578 119.048894 
L 364.548146 119.202661 
L 364.994713 120.964214 
L 365.44128 120.528359 
L 365.887848 120.308202 
L 366.334415 118.238232 
L 366.780983 121.629824 
L 367.674118 118.436177 
L 368.120685 120.844068 
L 368.567253 119.445358 
L 369.01382 115.805695 
L 369.460388 116.163285 
L 369.906955 113.99866 
L 370.353523 112.73027 
L 370.80009 114.721706 
L 371.246657 115.124336 
L 372.139792 107.160693 
L 372.58636 107.025115 
L 373.032927 106.631143 
L 373.479495 105.824563 
L 373.926062 102.896314 
L 374.37263 104.441182 
L 374.819197 102.979647 
L 375.265765 103.0916 
L 375.712332 104.415858 
L 376.1589 107.655596 
L 376.605467 108.406808 
L 377.052035 108.460746 
L 377.498602 110.085946 
L 377.945169 107.725317 
L 378.838304 108.98703 
L 379.284872 109.281295 
L 379.731439 109.040113 
L 380.178007 108.563956 
L 380.624574 111.124045 
L 381.071142 109.94613 
L 381.517709 110.509405 
L 381.964277 108.835594 
L 382.410844 109.995574 
L 383.303979 107.14068 
L 383.750546 101.450297 
L 384.197114 88.125833 
L 384.643681 95.808725 
L 385.090249 101.445222 
L 385.536816 101.810958 
L 385.983384 103.678172 
L 386.429951 101.911056 
L 386.876519 104.8893 
L 387.323086 103.8371 
L 387.769654 100.137315 
L 388.216221 102.163336 
L 388.662789 102.156394 
L 389.109356 104.639673 
L 389.555923 100.427033 
L 390.002491 93.297333 
L 390.449058 93.466055 
L 390.895626 104.694392 
L 391.342193 92.089328 
L 392.235328 88.35373 
L 392.681896 92.334552 
L 393.128463 92.14244 
L 393.575031 90.693036 
L 394.021598 87.359424 
L 394.468166 88.051422 
L 395.3613 79.843755 
L 395.807868 80.672663 
L 396.254435 80.431493 
L 396.701003 77.790613 
L 397.14757 77.692301 
L 397.594138 78.673522 
L 398.040705 77.320961 
L 398.487273 78.227087 
L 398.487273 78.227087 
" clip-path="url(#pbd756213a9)" style="fill: none; stroke: #ff7f0e; stroke-width: 1.5; stroke-linecap: square"/>
   </g>
   <g id="line2d_16">
    <path d="M 73.832727 295.293442 
L 80.531239 295.261424 
L 80.977807 295.333688 
L 81.870942 295.214794 
L 82.317509 295.305895 
L 82.764077 295.199471 
L 83.210644 295.305275 
L 83.657211 295.248035 
L 84.103779 295.304517 
L 84.996914 295.203369 
L 86.783184 295.265896 
L 89.462588 295.262607 
L 90.802291 295.310833 
L 91.695426 295.267395 
L 95.714533 295.351216 
L 96.607668 295.275961 
L 98.840505 295.259615 
L 99.287073 295.001095 
L 99.73364 295.207244 
L 103.752747 295.263732 
L 104.199315 295.353857 
L 105.539017 295.215494 
L 106.87872 295.252083 
L 110.004692 295.262802 
L 110.451259 295.404437 
L 111.790962 295.31039 
L 112.684097 295.227534 
L 113.577231 295.36449 
L 114.023799 295.383413 
L 114.470366 295.278441 
L 115.363501 295.406837 
L 116.256636 295.425651 
L 117.596339 295.430106 
L 121.168878 295.349603 
L 122.508581 295.284222 
L 123.401716 295.312744 
L 123.848283 295.383062 
L 124.741418 295.346698 
L 125.634553 295.347438 
L 126.527688 295.358014 
L 126.974255 295.460155 
L 130.546795 295.35903 
L 135.01247 295.349499 
L 135.459037 295.478315 
L 135.905605 295.330766 
L 136.352172 295.425071 
L 136.79874 295.30826 
L 138.138442 295.390216 
L 138.585009 295.336077 
L 139.031577 295.458766 
L 139.924712 295.424089 
L 140.371279 295.328584 
L 141.264414 295.488 
L 142.604117 295.337311 
L 143.050684 295.438373 
L 143.943819 295.2892 
L 144.390386 295.26399 
L 144.836954 295.404196 
L 145.283521 295.405614 
L 145.730089 295.277488 
L 147.069791 295.449701 
L 147.516359 295.295245 
L 148.856061 295.27344 
L 149.302628 295.119972 
L 150.642331 295.397559 
L 151.535466 295.118801 
L 151.982033 295.211361 
L 152.428601 295.085651 
L 153.768303 295.113272 
L 154.214871 295.139349 
L 154.661438 295.308995 
L 155.554573 295.221488 
L 156.00114 294.87468 
L 156.447708 295.099763 
L 156.894275 294.994682 
L 158.233978 295.196164 
L 158.680545 295.042122 
L 159.127113 295.09304 
L 160.020248 294.848121 
L 160.466815 294.905636 
L 160.913383 294.803702 
L 161.35995 294.816533 
L 161.806517 294.970713 
L 162.699652 294.802169 
L 163.14622 295.065948 
L 166.272192 294.809489 
L 167.165327 294.763238 
L 167.611894 294.78572 
L 168.058462 294.554097 
L 168.505029 294.49529 
L 169.398164 294.690313 
L 170.291299 294.642868 
L 170.737867 294.925093 
L 172.524137 294.579175 
L 173.863839 294.618008 
L 174.310406 294.911682 
L 175.650109 294.419386 
L 176.543244 294.507542 
L 176.989811 294.443011 
L 177.436379 294.684239 
L 177.882946 294.448896 
L 178.776081 294.747202 
L 180.115783 294.335197 
L 181.455486 294.442156 
L 181.902053 294.212749 
L 182.348621 294.360757 
L 183.241756 294.034198 
L 183.688323 294.196783 
L 184.134891 294.081465 
L 184.581458 294.157978 
L 185.474593 294.105756 
L 186.367728 294.097707 
L 186.814295 293.980908 
L 187.260863 294.109057 
L 188.600565 293.92461 
L 189.047133 294.139382 
L 189.940268 293.974071 
L 190.386835 293.669816 
L 190.833403 293.531034 
L 191.27997 293.194181 
L 192.173105 293.146489 
L 192.619672 292.867794 
L 193.06624 293.420838 
L 193.512807 293.381562 
L 193.959375 293.064281 
L 194.405942 293.006634 
L 194.85251 292.575177 
L 195.299077 292.803246 
L 195.745645 292.203573 
L 196.63878 292.7276 
L 197.085347 292.616744 
L 197.531914 293.762456 
L 197.978482 293.681052 
L 198.425049 292.407586 
L 198.871617 292.267731 
L 199.318184 292.317513 
L 199.764752 292.55746 
L 200.211319 291.568643 
L 200.657887 292.39805 
L 201.104454 292.403097 
L 201.551022 291.932491 
L 201.997589 292.547103 
L 202.444157 291.704508 
L 202.890724 291.830648 
L 203.337291 292.300226 
L 203.783859 292.332497 
L 204.230426 292.245931 
L 204.676994 292.559119 
L 205.123561 292.036005 
L 205.570129 292.345954 
L 206.016696 291.688588 
L 206.463264 292.195587 
L 206.909831 291.896695 
L 207.356399 292.320848 
L 207.802966 292.110244 
L 208.249534 292.475705 
L 209.142669 291.400822 
L 209.589236 292.271124 
L 210.035803 292.129856 
L 210.482371 291.668385 
L 210.928938 291.953475 
L 211.375506 292.407058 
L 211.822073 291.939449 
L 212.268641 291.669768 
L 212.715208 291.537841 
L 213.161776 290.962442 
L 213.608343 291.240775 
L 214.054911 291.062459 
L 214.501478 290.56797 
L 214.948046 290.703773 
L 215.394613 287.654792 
L 215.84118 291.628581 
L 216.287748 291.953492 
L 216.734315 290.869762 
L 217.180883 290.865663 
L 218.074018 290.208577 
L 218.520585 290.256051 
L 218.967153 289.949053 
L 219.41372 290.087691 
L 220.306855 289.442978 
L 220.753423 291.519338 
L 221.19999 292.307753 
L 221.646557 288.944177 
L 222.093125 289.316672 
L 222.98626 288.878504 
L 223.432827 289.073526 
L 223.879395 289.020616 
L 224.325962 289.678315 
L 224.77253 287.156801 
L 225.219097 288.970151 
L 225.665665 288.961682 
L 226.112232 288.224795 
L 226.5588 288.607479 
L 227.005367 289.194097 
L 227.451934 288.824336 
L 227.898502 288.912187 
L 228.345069 287.579519 
L 228.791637 288.195216 
L 229.238204 287.756882 
L 229.684772 287.077297 
L 230.131339 288.647697 
L 230.577907 287.454395 
L 231.024474 288.600246 
L 231.471042 287.435622 
L 231.917609 287.934859 
L 232.364177 287.278887 
L 232.810744 288.873934 
L 233.257311 288.528509 
L 233.703879 287.461779 
L 234.597014 288.42716 
L 235.043581 288.090611 
L 235.490149 286.823857 
L 235.936716 287.632091 
L 236.383284 285.767989 
L 236.829851 286.352201 
L 237.276419 285.406862 
L 238.169554 284.544334 
L 239.062689 284.707763 
L 239.509256 284.772426 
L 239.955823 283.567941 
L 240.402391 284.851632 
L 240.848958 284.515737 
L 241.295526 283.294385 
L 241.742093 283.574911 
L 242.188661 283.300011 
L 242.635228 283.421432 
L 243.528363 284.824275 
L 243.974931 286.869448 
L 244.421498 288.101049 
L 244.868066 283.311694 
L 245.314633 282.857405 
L 245.7612 282.913187 
L 246.207768 283.427535 
L 246.654335 283.339149 
L 247.100903 283.084567 
L 247.994038 284.026955 
L 248.440605 282.855476 
L 248.887173 283.135922 
L 249.33374 282.359943 
L 249.780308 283.663997 
L 250.226875 283.779872 
L 250.673443 282.606843 
L 251.566577 281.481982 
L 252.013145 280.778726 
L 252.459712 283.05527 
L 252.90628 281.920156 
L 253.352847 281.562238 
L 253.799415 282.653478 
L 254.245982 281.582091 
L 254.69255 282.419301 
L 255.139117 282.318445 
L 255.585685 281.814874 
L 256.032252 282.961327 
L 256.47882 283.53668 
L 256.925387 283.015518 
L 257.371954 282.095675 
L 257.818522 282.498523 
L 258.265089 283.462481 
L 258.711657 282.891686 
L 259.604792 280.640542 
L 260.051359 280.783957 
L 260.497927 278.659262 
L 261.391062 278.624499 
L 261.837629 277.325927 
L 262.284197 278.804721 
L 262.730764 278.586435 
L 263.177331 277.249437 
L 263.623899 276.541324 
L 264.070466 278.237543 
L 264.517034 276.743713 
L 265.410169 276.478125 
L 266.303304 277.084103 
L 266.749871 275.113478 
L 267.196439 278.020968 
L 267.643006 282.59687 
L 268.536141 275.164558 
L 268.982709 275.456256 
L 269.429276 274.849154 
L 269.875843 275.6741 
L 270.322411 276.196778 
L 270.768978 275.998058 
L 271.215546 275.96236 
L 271.662113 276.548007 
L 272.108681 275.584463 
L 272.555248 275.477803 
L 273.001816 274.928606 
L 273.448383 276.007526 
L 273.894951 276.171506 
L 274.341518 275.803489 
L 274.788086 275.864627 
L 275.234653 272.267684 
L 275.68122 276.914536 
L 276.127788 273.938245 
L 276.574355 273.991598 
L 277.020923 274.851772 
L 277.46749 277.133092 
L 277.914058 276.210632 
L 278.360625 274.719644 
L 278.807193 274.16315 
L 279.25376 277.284493 
L 279.700328 276.704725 
L 280.146895 276.71464 
L 280.593463 275.740991 
L 281.04003 276.748673 
L 281.486597 277.362929 
L 281.933165 277.62331 
L 282.379732 278.024573 
L 282.8263 275.709896 
L 283.272867 274.034789 
L 283.719435 274.37484 
L 284.166002 273.679587 
L 284.61257 274.671981 
L 285.059137 272.988755 
L 285.505705 273.37202 
L 285.952272 274.261313 
L 286.39884 272.823512 
L 286.845407 273.397183 
L 287.291974 274.894997 
L 287.738542 272.753136 
L 288.185109 271.596843 
L 288.631677 273.086166 
L 289.078244 273.228329 
L 289.524812 289.638919 
L 289.971379 278.394811 
L 290.417947 275.196485 
L 290.864514 280.837223 
L 291.311082 279.385701 
L 291.757649 272.741074 
L 292.204217 274.004406 
L 292.650784 272.414452 
L 293.097352 272.486607 
L 293.543919 272.329683 
L 293.990486 275.282321 
L 294.437054 273.584771 
L 294.883621 272.648027 
L 295.330189 272.105117 
L 295.776756 273.666124 
L 296.223324 273.841466 
L 296.669891 274.628922 
L 297.116459 274.37674 
L 297.563026 269.609369 
L 298.009594 271.851212 
L 298.456161 270.61375 
L 298.902729 274.159436 
L 299.349296 271.952722 
L 299.795863 271.398663 
L 300.688998 272.792079 
L 301.135566 271.614807 
L 302.028701 274.336959 
L 302.475268 275.389331 
L 302.921836 276.108789 
L 303.814971 274.277768 
L 304.708106 276.46716 
L 305.154673 275.663048 
L 305.60124 275.255424 
L 306.047808 275.369065 
L 306.494375 270.70527 
L 306.940943 270.178637 
L 307.38751 270.118446 
L 307.834078 270.179739 
L 308.280645 270.061792 
L 308.727213 270.625577 
L 309.17378 269.209431 
L 309.620348 269.770782 
L 310.066915 266.671583 
L 310.513483 270.011614 
L 310.96005 268.658989 
L 311.406617 266.326538 
L 311.853185 268.940307 
L 312.299752 266.753493 
L 312.74632 268.194503 
L 313.192887 268.240502 
L 313.639455 269.646497 
L 314.086022 282.337133 
L 314.979157 269.393448 
L 315.425725 268.916401 
L 315.872292 268.63061 
L 316.31886 267.94556 
L 316.765427 270.53722 
L 317.211994 269.266883 
L 317.658562 270.080313 
L 318.105129 267.152557 
L 318.551697 269.023044 
L 319.444832 267.504234 
L 319.891399 268.667256 
L 320.337967 268.136661 
L 320.784534 267.398011 
L 321.231102 270.103381 
L 321.677669 266.691143 
L 322.124237 268.981598 
L 322.570804 267.08147 
L 323.017372 266.620113 
L 323.463939 266.72729 
L 324.357074 270.281599 
L 324.803641 268.12879 
L 325.250209 269.657612 
L 325.696776 270.030801 
L 326.143344 269.793741 
L 326.589911 270.70724 
L 327.036479 268.753035 
L 327.483046 270.560541 
L 327.929614 269.98025 
L 328.376181 270.206791 
L 328.822749 272.747183 
L 329.715883 267.095254 
L 330.162451 267.09278 
L 330.609018 267.257547 
L 331.055586 265.880935 
L 331.502153 266.691637 
L 331.948721 267.134501 
L 332.395288 264.4598 
L 332.841856 266.049175 
L 333.288423 265.642641 
L 334.181558 267.389456 
L 334.628126 263.611218 
L 335.52126 265.842176 
L 335.967828 265.801477 
L 336.414395 265.475767 
L 336.860963 267.395972 
L 337.30753 279.275596 
L 337.754098 279.022186 
L 338.200665 266.893354 
L 338.647233 265.327444 
L 339.0938 265.012011 
L 339.540368 265.366863 
L 339.986935 265.984362 
L 340.433503 267.534559 
L 340.88007 266.91505 
L 341.326637 267.591655 
L 341.773205 266.693182 
L 342.219772 266.148526 
L 342.66634 276.518233 
L 343.112907 281.6217 
L 343.559475 283.031008 
L 344.45261 280.571291 
L 345.345745 281.83378 
L 345.792312 281.822136 
L 346.23888 278.797096 
L 346.685447 278.837273 
L 347.132015 280.36307 
L 347.578582 275.340686 
L 348.025149 276.72944 
L 348.471717 276.278521 
L 348.918284 275.277699 
L 349.364852 279.2991 
L 349.811419 277.803462 
L 350.257987 278.371123 
L 350.704554 276.9799 
L 351.151122 276.306625 
L 351.597689 277.324555 
L 352.044257 276.625169 
L 352.490824 277.304782 
L 352.937392 276.706005 
L 353.383959 274.053717 
L 353.830526 274.151123 
L 354.277094 270.924854 
L 354.723661 273.159245 
L 355.170229 273.175849 
L 355.616796 271.352527 
L 356.063364 273.371916 
L 356.509931 274.595663 
L 356.956499 274.618668 
L 357.403066 274.087235 
L 357.849634 276.03417 
L 358.742769 272.968724 
L 359.189336 271.744145 
L 359.635903 274.044658 
L 360.082471 275.6961 
L 360.529038 279.508884 
L 360.975606 284.492589 
L 361.868741 274.158494 
L 362.315308 275.179611 
L 363.655011 274.306278 
L 364.101578 275.98657 
L 364.548146 275.524301 
L 364.994713 271.084333 
L 365.44128 270.93102 
L 365.887848 269.328314 
L 366.334415 274.391673 
L 366.780983 271.992842 
L 367.22755 272.8161 
L 367.674118 274.023898 
L 368.120685 271.769067 
L 368.567253 267.888199 
L 369.01382 275.057289 
L 369.460388 272.665911 
L 369.906955 275.322016 
L 370.353523 277.127753 
L 370.80009 270.135997 
L 371.246657 269.094315 
L 371.693225 271.005385 
L 372.139792 274.966469 
L 372.58636 276.921443 
L 373.032927 274.806411 
L 373.479495 275.119799 
L 373.926062 276.752353 
L 374.37263 274.738906 
L 374.819197 274.728302 
L 375.265765 274.836449 
L 375.712332 277.081358 
L 376.1589 271.91692 
L 376.605467 269.947031 
L 377.052035 272.210852 
L 377.498602 269.303931 
L 377.945169 271.213377 
L 378.391737 268.75435 
L 379.284872 270.752084 
L 379.731439 270.669813 
L 380.178007 271.607728 
L 380.624574 268.901336 
L 381.071142 268.419989 
L 381.517709 269.775203 
L 381.964277 269.144074 
L 382.410844 267.168971 
L 382.857412 268.609356 
L 383.303979 268.590462 
L 383.750546 272.759308 
L 384.197114 282.8818 
L 384.643681 277.382639 
L 385.090249 275.824829 
L 385.536816 270.864812 
L 385.983384 268.781776 
L 386.429951 273.631906 
L 386.876519 268.595451 
L 387.323086 267.602443 
L 387.769654 271.247377 
L 388.216221 270.087616 
L 388.662789 270.059208 
L 389.109356 268.239296 
L 389.555923 264.653347 
L 390.002491 270.950517 
L 390.449058 271.014273 
L 390.895626 258.192106 
L 391.342193 270.274405 
L 391.788761 269.163358 
L 392.235328 274.760229 
L 393.128463 269.331679 
L 393.575031 272.766623 
L 394.021598 272.723696 
L 394.468166 270.312492 
L 394.914733 270.445068 
L 395.3613 275.471666 
L 395.807868 268.46314 
L 396.254435 271.207648 
L 396.701003 275.676931 
L 397.14757 277.753342 
L 397.594138 274.970477 
L 398.040705 276.674486 
L 398.487273 291.001976 
L 398.487273 291.001976 
" clip-path="url(#pbd756213a9)" style="fill: none; stroke: #2ca02c; stroke-width: 1.5; stroke-linecap: square"/>
   </g>
   <g id="patch_3">
    <path d="M 57.6 307.584 
L 57.6 41.472 
" style="fill: none; stroke: #000000; stroke-width: 0.8; stroke-linejoin: miter; stroke-linecap: square"/>
   </g>
   <g id="patch_4">
    <path d="M 414.72 307.584 
L 414.72 41.472 
" style="fill: none; stroke: #000000; stroke-width: 0.8; stroke-linejoin: miter; stroke-linecap: square"/>
   </g>
   <g id="patch_5">
    <path d="M 57.6 307.584 
L 414.72 307.584 
" style="fill: none; stroke: #000000; stroke-width: 0.8; stroke-linejoin: miter; stroke-linecap: square"/>
   </g>
   <g id="patch_6">
    <path d="M 57.6 41.472 
L 414.72 41.472 
" style="fill: none; stroke: #000000; stroke-width: 0.8; stroke-linejoin: miter; stroke-linecap: square"/>
   </g>
   <g id="legend_1">
    <g id="patch_7">
     <path d="M 64.6 93.506375 
L 186.25625 93.506375 
Q 188.25625 93.506375 188.25625 91.506375 
L 188.25625 48.472 
Q 188.25625 46.472 186.25625 46.472 
L 64.6 46.472 
Q 62.6 46.472 62.6 48.472 
L 62.6 91.506375 
Q 62.6 93.506375 64.6 93.506375 
z
" style="fill: #ffffff; opacity: 0.8; stroke: #cccccc; stroke-linejoin: miter"/>
    </g>
    <g id="line2d_17">
     <path d="M 66.6 54.570438 
L 76.6 54.570438 
L 86.6 54.570438 
" style="fill: none; stroke: #1f77b4; stroke-width: 1.5; stroke-linecap: square"/>
    </g>
    <g id="text_16">
     <!-- Weekly maximum -->
     <g transform="translate(94.6 58.070438)scale(0.1 -0.1)">
      <defs>
       <path id="DejaVuSans-57" d="M 213 4666 
L 850 4666 
L 1831 722 
L 2809 4666 
L 3519 4666 
L 4500 722 
L 5478 4666 
L 6119 4666 
L 4947 0 
L 4153 0 
L 3169 4050 
L 2175 0 
L 1381 0 
L 213 4666 
z
" transform="scale(0.015625)"/>
       <path id="DejaVuSans-6b" d="M 581 4863 
L 1159 4863 
L 1159 1991 
L 2875 3500 
L 3609 3500 
L 1753 1863 
L 3688 0 
L 2938 0 
L 1159 1709 
L 1159 0 
L 581 0 
L 581 4863 
z
" transform="scale(0.015625)"/>
       <path id="DejaVuSans-79" d="M 2059 -325 
Q 1816 -950 1584 -1140 
Q 1353 -1331 966 -1331 
L 506 -1331 
L 506 -850 
L 844 -850 
Q 1081 -850 1212 -737 
Q 1344 -625 1503 -206 
L 1606 56 
L 191 3500 
L 800 3500 
L 1894 763 
L 2988 3500 
L 3597 3500 
L 2059 -325 
z
" transform="scale(0.015625)"/>
       <path id="DejaVuSans-6d" d="M 3328 2828 
Q 3544 3216 3844 3400 
Q 4144 3584 4550 3584 
Q 5097 3584 5394 3201 
Q 5691 2819 5691 2113 
L 5691 0 
L 5113 0 
L 5113 2094 
Q 5113 2597 4934 2840 
Q 4756 3084 4391 3084 
Q 3944 3084 3684 2787 
Q 3425 2491 3425 1978 
L 3425 0 
L 2847 0 
L 2847 2094 
Q 2847 2600 2669 2842 
Q 2491 3084 2119 3084 
Q 1678 3084 1418 2786 
Q 1159 2488 1159 1978 
L 1159 0 
L 581 0 
L 581 3500 
L 1159 3500 
L 1159 2956 
Q 1356 3278 1631 3431 
Q 1906 3584 2284 3584 
Q 2666 3584 2933 3390 
Q 3200 3197 3328 2828 
z
" transform="scale(0.015625)"/>
       <path id="DejaVuSans-78" d="M 3513 3500 
L 2247 1797 
L 3578 0 
L 2900 0 
L 1881 1375 
L 863 0 
L 184 0 
L 1544 1831 
L 300 3500 
L 978 3500 
L 1906 2253 
L 2834 3500 
L 3513 3500 
z
" transform="scale(0.015625)"/>
       <path id="DejaVuSans-75" d="M 544 1381 
L 544 3500 
L 1119 3500 
L 1119 1403 
Q 1119 906 1312 657 
Q 1506 409 1894 409 
Q 2359 409 2629 706 
Q 2900 1003 2900 1516 
L 2900 3500 
L 3475 3500 
L 3475 0 
L 2900 0 
L 2900 538 
Q 2691 219 2414 64 
Q 2138 -91 1772 -91 
Q 1169 -91 856 284 
Q 544 659 544 1381 
z
M 1991 3584 
L 1991 3584 
z
" transform="scale(0.015625)"/>
      </defs>
      <use xlink:href="#DejaVuSans-57"/>
      <use xlink:href="#DejaVuSans-65" x="93.001953"/>
      <use xlink:href="#DejaVuSans-65" x="154.525391"/>
      <use xlink:href="#DejaVuSans-6b" x="216.048828"/>
      <use xlink:href="#DejaVuSans-6c" x="273.958984"/>
      <use xlink:href="#DejaVuSans-79" x="301.742188"/>
      <use xlink:href="#DejaVuSans-20" x="360.921875"/>
      <use xlink:href="#DejaVuSans-6d" x="392.708984"/>
      <use xlink:href="#DejaVuSans-61" x="490.121094"/>
      <use xlink:href="#DejaVuSans-78" x="551.400391"/>
      <use xlink:href="#DejaVuSans-69" x="610.580078"/>
      <use xlink:href="#DejaVuSans-6d" x="638.363281"/>
      <use xlink:href="#DejaVuSans-75" x="735.775391"/>
      <use xlink:href="#DejaVuSans-6d" x="799.154297"/>
     </g>
    </g>
    <g id="line2d_18">
     <path d="M 66.6 69.248563 
L 76.6 69.248563 
L 86.6 69.248563 
" style="fill: none; stroke: #ff7f0e; stroke-width: 1.5; stroke-linecap: square"/>
    </g>
    <g id="text_17">
     <!-- Weekly minimum -->
     <g transform="translate(94.6 72.748563)scale(0.1 -0.1)">
      <defs>
       <path id="DejaVuSans-6e" d="M 3513 2113 
L 3513 0 
L 2938 0 
L 2938 2094 
Q 2938 2591 2744 2837 
Q 2550 3084 2163 3084 
Q 1697 3084 1428 2787 
Q 1159 2491 1159 1978 
L 1159 0 
L 581 0 
L 581 3500 
L 1159 3500 
L 1159 2956 
Q 1366 3272 1645 3428 
Q 1925 3584 2291 3584 
Q 2894 3584 3203 3211 
Q 3513 2838 3513 2113 
z
" transform="scale(0.015625)"/>
      </defs>
      <use xlink:href="#DejaVuSans-57"/>
      <use xlink:href="#DejaVuSans-65" x="93.001953"/>
      <use xlink:href="#DejaVuSans-65" x="154.525391"/>
      <use xlink:href="#DejaVuSans-6b" x="216.048828"/>
      <use xlink:href="#DejaVuSans-6c" x="273.958984"/>
      <use xlink:href="#DejaVuSans-79" x="301.742188"/>
      <use xlink:href="#DejaVuSans-20" x="360.921875"/>
      <use xlink:href="#DejaVuSans-6d" x="392.708984"/>
      <use xlink:href="#DejaVuSans-69" x="490.121094"/>
      <use xlink:href="#DejaVuSans-6e" x="517.904297"/>
      <use xlink:href="#DejaVuSans-69" x="581.283203"/>
      <use xlink:href="#DejaVuSans-6d" x="609.066406"/>
      <use xlink:href="#DejaVuSans-75" x="706.478516"/>
      <use xlink:href="#DejaVuSans-6d" x="769.857422"/>
     </g>
    </g>
    <g id="line2d_19">
     <path d="M 66.6 83.926688 
L 76.6 83.926688 
L 86.6 83.926688 
" style="fill: none; stroke: #2ca02c; stroke-width: 1.5; stroke-linecap: square"/>
    </g>
    <g id="text_18">
     <!-- Weekly range -->
     <g transform="translate(94.6 87.426688)scale(0.1 -0.1)">
      <use xlink:href="#DejaVuSans-57"/>
      <use xlink:href="#DejaVuSans-65" x="93.001953"/>
      <use xlink:href="#DejaVuSans-65" x="154.525391"/>
      <use xlink:href="#DejaVuSans-6b" x="216.048828"/>
      <use xlink:href="#DejaVuSans-6c" x="273.958984"/>
      <use xlink:href="#DejaVuSans-79" x="301.742188"/>
      <use xlink:href="#DejaVuSans-20" x="360.921875"/>
      <use xlink:href="#DejaVuSans-72" x="392.708984"/>
      <use xlink:href="#DejaVuSans-61" x="433.822266"/>
      <use xlink:href="#DejaVuSans-6e" x="495.101562"/>
      <use xlink:href="#DejaVuSans-67" x="558.480469"/>
      <use xlink:href="#DejaVuSans-65" x="621.957031"/>
     </g>
    </g>
   </g>
  </g>
 </g>
 <defs>
  <clipPath id="pbd756213a9">
   <rect x="57.6" y="41.472" width="357.12" height="266.112"/>
  </clipPath>
 </defs>
</svg>
