<?xml version="1.0" encoding="utf-8" standalone="no"?>
<!DOCTYPE svg PUBLIC "-//W3C//DTD SVG 1.1//EN"
  "http://www.w3.org/Graphics/SVG/1.1/DTD/svg11.dtd">
<svg xmlns:xlink="http://www.w3.org/1999/xlink" width="460.8pt" height="345.6pt" viewBox="0 0 460.8 345.6" xmlns="http://www.w3.org/2000/svg" version="1.1">
 <metadata>
  <rdf:RDF xmlns:dc="http://purl.org/dc/elements/1.1/" xmlns:cc="http://creativecommons.org/ns#" xmlns:rdf="http://www.w3.org/1999/02/22-rdf-syntax-ns#">
   <cc:Work>
    <dc:type rdf:resource="http://purl.org/dc/dcmitype/StillImage"/>
    <dc:date>2023-12-07T05:31:31.863195</dc:date>
    <dc:format>image/svg+xml</dc:format>
    <dc:creator>
     <cc:Agent>
      <dc:title>Matplotlib v3.8.2, https://matplotlib.org/</dc:title>
     </cc:Agent>
    </dc:creator>
   </cc:Work>
  </rdf:RDF>
 </metadata>
 <defs>
  <style type="text/css">*{stroke-linejoin: round; stroke-linecap: butt}</style>
 </defs>
 <g id="figure_1">
  <g id="patch_1">
   <path d="M 0 345.6 
L 460.8 345.6 
L 460.8 0 
L 0 0 
z
" style="fill: #ffffff"/>
  </g>
  <g id="axes_1">
   <g id="patch_2">
    <path d="M 57.6 307.584 
L 414.72 307.584 
L 414.72 41.472 
L 57.6 41.472 
z
" style="fill: #ffffff"/>
   </g>
   <g id="matplotlib.axis_1">
    <g id="xtick_1">
     <g id="line2d_1">
      <defs>
       <path id="mb0d7663a17" d="M 0 0 
L 0 3.5 
" style="stroke: #000000; stroke-width: 0.8"/>
      </defs>
      <g>
       <use xlink:href="#mb0d7663a17" x="59.615981" y="307.584" style="stroke: #000000; stroke-width: 0.8"/>
      </g>
     </g>
     <g id="text_1">
      <!-- 2008 -->
      <g transform="translate(46.890981 322.182437) scale(0.1 -0.1)">
       <defs>
        <path id="DejaVuSans-32" d="M 1228 531 
L 3431 531 
L 3431 0 
L 469 0 
L 469 531 
Q 828 903 1448 1529 
Q 2069 2156 2228 2338 
Q 2531 2678 2651 2914 
Q 2772 3150 2772 3378 
Q 2772 3750 2511 3984 
Q 2250 4219 1831 4219 
Q 1534 4219 1204 4116 
Q 875 4013 500 3803 
L 500 4441 
Q 881 4594 1212 4672 
Q 1544 4750 1819 4750 
Q 2544 4750 2975 4387 
Q 3406 4025 3406 3419 
Q 3406 3131 3298 2873 
Q 3191 2616 2906 2266 
Q 2828 2175 2409 1742 
Q 1991 1309 1228 531 
z
" transform="scale(0.015625)"/>
        <path id="DejaVuSans-30" d="M 2034 4250 
Q 1547 4250 1301 3770 
Q 1056 3291 1056 2328 
Q 1056 1369 1301 889 
Q 1547 409 2034 409 
Q 2525 409 2770 889 
Q 3016 1369 3016 2328 
Q 3016 3291 2770 3770 
Q 2525 4250 2034 4250 
z
M 2034 4750 
Q 2819 4750 3233 4129 
Q 3647 3509 3647 2328 
Q 3647 1150 3233 529 
Q 2819 -91 2034 -91 
Q 1250 -91 836 529 
Q 422 1150 422 2328 
Q 422 3509 836 4129 
Q 1250 4750 2034 4750 
z
" transform="scale(0.015625)"/>
        <path id="DejaVuSans-38" d="M 2034 2216 
Q 1584 2216 1326 1975 
Q 1069 1734 1069 1313 
Q 1069 891 1326 650 
Q 1584 409 2034 409 
Q 2484 409 2743 651 
Q 3003 894 3003 1313 
Q 3003 1734 2745 1975 
Q 2488 2216 2034 2216 
z
M 1403 2484 
Q 997 2584 770 2862 
Q 544 3141 544 3541 
Q 544 4100 942 4425 
Q 1341 4750 2034 4750 
Q 2731 4750 3128 4425 
Q 3525 4100 3525 3541 
Q 3525 3141 3298 2862 
Q 3072 2584 2669 2484 
Q 3125 2378 3379 2068 
Q 3634 1759 3634 1313 
Q 3634 634 3220 271 
Q 2806 -91 2034 -91 
Q 1263 -91 848 271 
Q 434 634 434 1313 
Q 434 1759 690 2068 
Q 947 2378 1403 2484 
z
M 1172 3481 
Q 1172 3119 1398 2916 
Q 1625 2713 2034 2713 
Q 2441 2713 2670 2916 
Q 2900 3119 2900 3481 
Q 2900 3844 2670 4047 
Q 2441 4250 2034 4250 
Q 1625 4250 1398 4047 
Q 1172 3844 1172 3481 
z
" transform="scale(0.015625)"/>
       </defs>
       <use xlink:href="#DejaVuSans-32"/>
       <use xlink:href="#DejaVuSans-30" x="63.623047"/>
       <use xlink:href="#DejaVuSans-30" x="127.246094"/>
       <use xlink:href="#DejaVuSans-38" x="190.869141"/>
      </g>
     </g>
    </g>
    <g id="xtick_2">
     <g id="line2d_2">
      <g>
       <use xlink:href="#mb0d7663a17" x="102.207954" y="307.584" style="stroke: #000000; stroke-width: 0.8"/>
      </g>
     </g>
     <g id="text_2">
      <!-- 2010 -->
      <g transform="translate(89.482954 322.182437) scale(0.1 -0.1)">
       <defs>
        <path id="DejaVuSans-31" d="M 794 531 
L 1825 531 
L 1825 4091 
L 703 3866 
L 703 4441 
L 1819 4666 
L 2450 4666 
L 2450 531 
L 3481 531 
L 3481 0 
L 794 0 
L 794 531 
z
" transform="scale(0.015625)"/>
       </defs>
       <use xlink:href="#DejaVuSans-32"/>
       <use xlink:href="#DejaVuSans-30" x="63.623047"/>
       <use xlink:href="#DejaVuSans-31" x="127.246094"/>
       <use xlink:href="#DejaVuSans-30" x="190.869141"/>
      </g>
     </g>
    </g>
    <g id="xtick_3">
     <g id="line2d_3">
      <g>
       <use xlink:href="#mb0d7663a17" x="144.741662" y="307.584" style="stroke: #000000; stroke-width: 0.8"/>
      </g>
     </g>
     <g id="text_3">
      <!-- 2012 -->
      <g transform="translate(132.016662 322.182437) scale(0.1 -0.1)">
       <use xlink:href="#DejaVuSans-32"/>
       <use xlink:href="#DejaVuSans-30" x="63.623047"/>
       <use xlink:href="#DejaVuSans-31" x="127.246094"/>
       <use xlink:href="#DejaVuSans-32" x="190.869141"/>
      </g>
     </g>
    </g>
    <g id="xtick_4">
     <g id="line2d_4">
      <g>
       <use xlink:href="#mb0d7663a17" x="187.333634" y="307.584" style="stroke: #000000; stroke-width: 0.8"/>
      </g>
     </g>
     <g id="text_4">
      <!-- 2014 -->
      <g transform="translate(174.608634 322.182437) scale(0.1 -0.1)">
       <defs>
        <path id="DejaVuSans-34" d="M 2419 4116 
L 825 1625 
L 2419 1625 
L 2419 4116 
z
M 2253 4666 
L 3047 4666 
L 3047 1625 
L 3713 1625 
L 3713 1100 
L 3047 1100 
L 3047 0 
L 2419 0 
L 2419 1100 
L 313 1100 
L 313 1709 
L 2253 4666 
z
" transform="scale(0.015625)"/>
       </defs>
       <use xlink:href="#DejaVuSans-32"/>
       <use xlink:href="#DejaVuSans-30" x="63.623047"/>
       <use xlink:href="#DejaVuSans-31" x="127.246094"/>
       <use xlink:href="#DejaVuSans-34" x="190.869141"/>
      </g>
     </g>
    </g>
    <g id="xtick_5">
     <g id="line2d_5">
      <g>
       <use xlink:href="#mb0d7663a17" x="229.867342" y="307.584" style="stroke: #000000; stroke-width: 0.8"/>
      </g>
     </g>
     <g id="text_5">
      <!-- 2016 -->
      <g transform="translate(217.142342 322.182437) scale(0.1 -0.1)">
       <defs>
        <path id="DejaVuSans-36" d="M 2113 2584 
Q 1688 2584 1439 2293 
Q 1191 2003 1191 1497 
Q 1191 994 1439 701 
Q 1688 409 2113 409 
Q 2538 409 2786 701 
Q 3034 994 3034 1497 
Q 3034 2003 2786 2293 
Q 2538 2584 2113 2584 
z
M 3366 4563 
L 3366 3988 
Q 3128 4100 2886 4159 
Q 2644 4219 2406 4219 
Q 1781 4219 1451 3797 
Q 1122 3375 1075 2522 
Q 1259 2794 1537 2939 
Q 1816 3084 2150 3084 
Q 2853 3084 3261 2657 
Q 3669 2231 3669 1497 
Q 3669 778 3244 343 
Q 2819 -91 2113 -91 
Q 1303 -91 875 529 
Q 447 1150 447 2328 
Q 447 3434 972 4092 
Q 1497 4750 2381 4750 
Q 2619 4750 2861 4703 
Q 3103 4656 3366 4563 
z
" transform="scale(0.015625)"/>
       </defs>
       <use xlink:href="#DejaVuSans-32"/>
       <use xlink:href="#DejaVuSans-30" x="63.623047"/>
       <use xlink:href="#DejaVuSans-31" x="127.246094"/>
       <use xlink:href="#DejaVuSans-36" x="190.869141"/>
      </g>
     </g>
    </g>
    <g id="xtick_6">
     <g id="line2d_6">
      <g>
       <use xlink:href="#mb0d7663a17" x="272.459315" y="307.584" style="stroke: #000000; stroke-width: 0.8"/>
      </g>
     </g>
     <g id="text_6">
      <!-- 2018 -->
      <g transform="translate(259.734315 322.182437) scale(0.1 -0.1)">
       <use xlink:href="#DejaVuSans-32"/>
       <use xlink:href="#DejaVuSans-30" x="63.623047"/>
       <use xlink:href="#DejaVuSans-31" x="127.246094"/>
       <use xlink:href="#DejaVuSans-38" x="190.869141"/>
      </g>
     </g>
    </g>
    <g id="xtick_7">
     <g id="line2d_7">
      <g>
       <use xlink:href="#mb0d7663a17" x="314.993022" y="307.584" style="stroke: #000000; stroke-width: 0.8"/>
      </g>
     </g>
     <g id="text_7">
      <!-- 2020 -->
      <g transform="translate(302.268022 322.182437) scale(0.1 -0.1)">
       <use xlink:href="#DejaVuSans-32"/>
       <use xlink:href="#DejaVuSans-30" x="63.623047"/>
       <use xlink:href="#DejaVuSans-32" x="127.246094"/>
       <use xlink:href="#DejaVuSans-30" x="190.869141"/>
      </g>
     </g>
    </g>
    <g id="xtick_8">
     <g id="line2d_8">
      <g>
       <use xlink:href="#mb0d7663a17" x="357.584995" y="307.584" style="stroke: #000000; stroke-width: 0.8"/>
      </g>
     </g>
     <g id="text_8">
      <!-- 2022 -->
      <g transform="translate(344.859995 322.182437) scale(0.1 -0.1)">
       <use xlink:href="#DejaVuSans-32"/>
       <use xlink:href="#DejaVuSans-30" x="63.623047"/>
       <use xlink:href="#DejaVuSans-32" x="127.246094"/>
       <use xlink:href="#DejaVuSans-32" x="190.869141"/>
      </g>
     </g>
    </g>
    <g id="xtick_9">
     <g id="line2d_9">
      <g>
       <use xlink:href="#mb0d7663a17" x="400.118703" y="307.584" style="stroke: #000000; stroke-width: 0.8"/>
      </g>
     </g>
     <g id="text_9">
      <!-- 2024 -->
      <g transform="translate(387.393703 322.182437) scale(0.1 -0.1)">
       <use xlink:href="#DejaVuSans-32"/>
       <use xlink:href="#DejaVuSans-30" x="63.623047"/>
       <use xlink:href="#DejaVuSans-32" x="127.246094"/>
       <use xlink:href="#DejaVuSans-34" x="190.869141"/>
      </g>
     </g>
    </g>
    <g id="text_10">
     <!-- Updated 2023-12-07 05:31:31.861386 - Last record 2023-12-05 -->
     <g transform="translate(75.905312 335.860562) scale(0.1 -0.1)">
      <defs>
       <path id="DejaVuSans-55" d="M 556 4666 
L 1191 4666 
L 1191 1831 
Q 1191 1081 1462 751 
Q 1734 422 2344 422 
Q 2950 422 3222 751 
Q 3494 1081 3494 1831 
L 3494 4666 
L 4128 4666 
L 4128 1753 
Q 4128 841 3676 375 
Q 3225 -91 2344 -91 
Q 1459 -91 1007 375 
Q 556 841 556 1753 
L 556 4666 
z
" transform="scale(0.015625)"/>
       <path id="DejaVuSans-70" d="M 1159 525 
L 1159 -1331 
L 581 -1331 
L 581 3500 
L 1159 3500 
L 1159 2969 
Q 1341 3281 1617 3432 
Q 1894 3584 2278 3584 
Q 2916 3584 3314 3078 
Q 3713 2572 3713 1747 
Q 3713 922 3314 415 
Q 2916 -91 2278 -91 
Q 1894 -91 1617 61 
Q 1341 213 1159 525 
z
M 3116 1747 
Q 3116 2381 2855 2742 
Q 2594 3103 2138 3103 
Q 1681 3103 1420 2742 
Q 1159 2381 1159 1747 
Q 1159 1113 1420 752 
Q 1681 391 2138 391 
Q 2594 391 2855 752 
Q 3116 1113 3116 1747 
z
" transform="scale(0.015625)"/>
       <path id="DejaVuSans-64" d="M 2906 2969 
L 2906 4863 
L 3481 4863 
L 3481 0 
L 2906 0 
L 2906 525 
Q 2725 213 2448 61 
Q 2172 -91 1784 -91 
Q 1150 -91 751 415 
Q 353 922 353 1747 
Q 353 2572 751 3078 
Q 1150 3584 1784 3584 
Q 2172 3584 2448 3432 
Q 2725 3281 2906 2969 
z
M 947 1747 
Q 947 1113 1208 752 
Q 1469 391 1925 391 
Q 2381 391 2643 752 
Q 2906 1113 2906 1747 
Q 2906 2381 2643 2742 
Q 2381 3103 1925 3103 
Q 1469 3103 1208 2742 
Q 947 2381 947 1747 
z
" transform="scale(0.015625)"/>
       <path id="DejaVuSans-61" d="M 2194 1759 
Q 1497 1759 1228 1600 
Q 959 1441 959 1056 
Q 959 750 1161 570 
Q 1363 391 1709 391 
Q 2188 391 2477 730 
Q 2766 1069 2766 1631 
L 2766 1759 
L 2194 1759 
z
M 3341 1997 
L 3341 0 
L 2766 0 
L 2766 531 
Q 2569 213 2275 61 
Q 1981 -91 1556 -91 
Q 1019 -91 701 211 
Q 384 513 384 1019 
Q 384 1609 779 1909 
Q 1175 2209 1959 2209 
L 2766 2209 
L 2766 2266 
Q 2766 2663 2505 2880 
Q 2244 3097 1772 3097 
Q 1472 3097 1187 3025 
Q 903 2953 641 2809 
L 641 3341 
Q 956 3463 1253 3523 
Q 1550 3584 1831 3584 
Q 2591 3584 2966 3190 
Q 3341 2797 3341 1997 
z
" transform="scale(0.015625)"/>
       <path id="DejaVuSans-74" d="M 1172 4494 
L 1172 3500 
L 2356 3500 
L 2356 3053 
L 1172 3053 
L 1172 1153 
Q 1172 725 1289 603 
Q 1406 481 1766 481 
L 2356 481 
L 2356 0 
L 1766 0 
Q 1100 0 847 248 
Q 594 497 594 1153 
L 594 3053 
L 172 3053 
L 172 3500 
L 594 3500 
L 594 4494 
L 1172 4494 
z
" transform="scale(0.015625)"/>
       <path id="DejaVuSans-65" d="M 3597 1894 
L 3597 1613 
L 953 1613 
Q 991 1019 1311 708 
Q 1631 397 2203 397 
Q 2534 397 2845 478 
Q 3156 559 3463 722 
L 3463 178 
Q 3153 47 2828 -22 
Q 2503 -91 2169 -91 
Q 1331 -91 842 396 
Q 353 884 353 1716 
Q 353 2575 817 3079 
Q 1281 3584 2069 3584 
Q 2775 3584 3186 3129 
Q 3597 2675 3597 1894 
z
M 3022 2063 
Q 3016 2534 2758 2815 
Q 2500 3097 2075 3097 
Q 1594 3097 1305 2825 
Q 1016 2553 972 2059 
L 3022 2063 
z
" transform="scale(0.015625)"/>
       <path id="DejaVuSans-20" transform="scale(0.015625)"/>
       <path id="DejaVuSans-33" d="M 2597 2516 
Q 3050 2419 3304 2112 
Q 3559 1806 3559 1356 
Q 3559 666 3084 287 
Q 2609 -91 1734 -91 
Q 1441 -91 1130 -33 
Q 819 25 488 141 
L 488 750 
Q 750 597 1062 519 
Q 1375 441 1716 441 
Q 2309 441 2620 675 
Q 2931 909 2931 1356 
Q 2931 1769 2642 2001 
Q 2353 2234 1838 2234 
L 1294 2234 
L 1294 2753 
L 1863 2753 
Q 2328 2753 2575 2939 
Q 2822 3125 2822 3475 
Q 2822 3834 2567 4026 
Q 2313 4219 1838 4219 
Q 1578 4219 1281 4162 
Q 984 4106 628 3988 
L 628 4550 
Q 988 4650 1302 4700 
Q 1616 4750 1894 4750 
Q 2613 4750 3031 4423 
Q 3450 4097 3450 3541 
Q 3450 3153 3228 2886 
Q 3006 2619 2597 2516 
z
" transform="scale(0.015625)"/>
       <path id="DejaVuSans-2d" d="M 313 2009 
L 1997 2009 
L 1997 1497 
L 313 1497 
L 313 2009 
z
" transform="scale(0.015625)"/>
       <path id="DejaVuSans-37" d="M 525 4666 
L 3525 4666 
L 3525 4397 
L 1831 0 
L 1172 0 
L 2766 4134 
L 525 4134 
L 525 4666 
z
" transform="scale(0.015625)"/>
       <path id="DejaVuSans-35" d="M 691 4666 
L 3169 4666 
L 3169 4134 
L 1269 4134 
L 1269 2991 
Q 1406 3038 1543 3061 
Q 1681 3084 1819 3084 
Q 2600 3084 3056 2656 
Q 3513 2228 3513 1497 
Q 3513 744 3044 326 
Q 2575 -91 1722 -91 
Q 1428 -91 1123 -41 
Q 819 9 494 109 
L 494 744 
Q 775 591 1075 516 
Q 1375 441 1709 441 
Q 2250 441 2565 725 
Q 2881 1009 2881 1497 
Q 2881 1984 2565 2268 
Q 2250 2553 1709 2553 
Q 1456 2553 1204 2497 
Q 953 2441 691 2322 
L 691 4666 
z
" transform="scale(0.015625)"/>
       <path id="DejaVuSans-3a" d="M 750 794 
L 1409 794 
L 1409 0 
L 750 0 
L 750 794 
z
M 750 3309 
L 1409 3309 
L 1409 2516 
L 750 2516 
L 750 3309 
z
" transform="scale(0.015625)"/>
       <path id="DejaVuSans-2e" d="M 684 794 
L 1344 794 
L 1344 0 
L 684 0 
L 684 794 
z
" transform="scale(0.015625)"/>
       <path id="DejaVuSans-4c" d="M 628 4666 
L 1259 4666 
L 1259 531 
L 3531 531 
L 3531 0 
L 628 0 
L 628 4666 
z
" transform="scale(0.015625)"/>
       <path id="DejaVuSans-73" d="M 2834 3397 
L 2834 2853 
Q 2591 2978 2328 3040 
Q 2066 3103 1784 3103 
Q 1356 3103 1142 2972 
Q 928 2841 928 2578 
Q 928 2378 1081 2264 
Q 1234 2150 1697 2047 
L 1894 2003 
Q 2506 1872 2764 1633 
Q 3022 1394 3022 966 
Q 3022 478 2636 193 
Q 2250 -91 1575 -91 
Q 1294 -91 989 -36 
Q 684 19 347 128 
L 347 722 
Q 666 556 975 473 
Q 1284 391 1588 391 
Q 1994 391 2212 530 
Q 2431 669 2431 922 
Q 2431 1156 2273 1281 
Q 2116 1406 1581 1522 
L 1381 1569 
Q 847 1681 609 1914 
Q 372 2147 372 2553 
Q 372 3047 722 3315 
Q 1072 3584 1716 3584 
Q 2034 3584 2315 3537 
Q 2597 3491 2834 3397 
z
" transform="scale(0.015625)"/>
       <path id="DejaVuSans-72" d="M 2631 2963 
Q 2534 3019 2420 3045 
Q 2306 3072 2169 3072 
Q 1681 3072 1420 2755 
Q 1159 2438 1159 1844 
L 1159 0 
L 581 0 
L 581 3500 
L 1159 3500 
L 1159 2956 
Q 1341 3275 1631 3429 
Q 1922 3584 2338 3584 
Q 2397 3584 2469 3576 
Q 2541 3569 2628 3553 
L 2631 2963 
z
" transform="scale(0.015625)"/>
       <path id="DejaVuSans-63" d="M 3122 3366 
L 3122 2828 
Q 2878 2963 2633 3030 
Q 2388 3097 2138 3097 
Q 1578 3097 1268 2742 
Q 959 2388 959 1747 
Q 959 1106 1268 751 
Q 1578 397 2138 397 
Q 2388 397 2633 464 
Q 2878 531 3122 666 
L 3122 134 
Q 2881 22 2623 -34 
Q 2366 -91 2075 -91 
Q 1284 -91 818 406 
Q 353 903 353 1747 
Q 353 2603 823 3093 
Q 1294 3584 2113 3584 
Q 2378 3584 2631 3529 
Q 2884 3475 3122 3366 
z
" transform="scale(0.015625)"/>
       <path id="DejaVuSans-6f" d="M 1959 3097 
Q 1497 3097 1228 2736 
Q 959 2375 959 1747 
Q 959 1119 1226 758 
Q 1494 397 1959 397 
Q 2419 397 2687 759 
Q 2956 1122 2956 1747 
Q 2956 2369 2687 2733 
Q 2419 3097 1959 3097 
z
M 1959 3584 
Q 2709 3584 3137 3096 
Q 3566 2609 3566 1747 
Q 3566 888 3137 398 
Q 2709 -91 1959 -91 
Q 1206 -91 779 398 
Q 353 888 353 1747 
Q 353 2609 779 3096 
Q 1206 3584 1959 3584 
z
" transform="scale(0.015625)"/>
      </defs>
      <use xlink:href="#DejaVuSans-55"/>
      <use xlink:href="#DejaVuSans-70" x="73.193359"/>
      <use xlink:href="#DejaVuSans-64" x="136.669922"/>
      <use xlink:href="#DejaVuSans-61" x="200.146484"/>
      <use xlink:href="#DejaVuSans-74" x="261.425781"/>
      <use xlink:href="#DejaVuSans-65" x="300.634766"/>
      <use xlink:href="#DejaVuSans-64" x="362.158203"/>
      <use xlink:href="#DejaVuSans-20" x="425.634766"/>
      <use xlink:href="#DejaVuSans-32" x="457.421875"/>
      <use xlink:href="#DejaVuSans-30" x="521.044922"/>
      <use xlink:href="#DejaVuSans-32" x="584.667969"/>
      <use xlink:href="#DejaVuSans-33" x="648.291016"/>
      <use xlink:href="#DejaVuSans-2d" x="711.914062"/>
      <use xlink:href="#DejaVuSans-31" x="747.998047"/>
      <use xlink:href="#DejaVuSans-32" x="811.621094"/>
      <use xlink:href="#DejaVuSans-2d" x="875.244141"/>
      <use xlink:href="#DejaVuSans-30" x="911.328125"/>
      <use xlink:href="#DejaVuSans-37" x="974.951172"/>
      <use xlink:href="#DejaVuSans-20" x="1038.574219"/>
      <use xlink:href="#DejaVuSans-30" x="1070.361328"/>
      <use xlink:href="#DejaVuSans-35" x="1133.984375"/>
      <use xlink:href="#DejaVuSans-3a" x="1197.607422"/>
      <use xlink:href="#DejaVuSans-33" x="1231.298828"/>
      <use xlink:href="#DejaVuSans-31" x="1294.921875"/>
      <use xlink:href="#DejaVuSans-3a" x="1358.544922"/>
      <use xlink:href="#DejaVuSans-33" x="1392.236328"/>
      <use xlink:href="#DejaVuSans-31" x="1455.859375"/>
      <use xlink:href="#DejaVuSans-2e" x="1519.482422"/>
      <use xlink:href="#DejaVuSans-38" x="1551.269531"/>
      <use xlink:href="#DejaVuSans-36" x="1614.892578"/>
      <use xlink:href="#DejaVuSans-31" x="1678.515625"/>
      <use xlink:href="#DejaVuSans-33" x="1742.138672"/>
      <use xlink:href="#DejaVuSans-38" x="1805.761719"/>
      <use xlink:href="#DejaVuSans-36" x="1869.384766"/>
      <use xlink:href="#DejaVuSans-20" x="1933.007812"/>
      <use xlink:href="#DejaVuSans-2d" x="1964.794922"/>
      <use xlink:href="#DejaVuSans-20" x="2000.878906"/>
      <use xlink:href="#DejaVuSans-4c" x="2032.666016"/>
      <use xlink:href="#DejaVuSans-61" x="2088.378906"/>
      <use xlink:href="#DejaVuSans-73" x="2149.658203"/>
      <use xlink:href="#DejaVuSans-74" x="2201.757812"/>
      <use xlink:href="#DejaVuSans-20" x="2240.966797"/>
      <use xlink:href="#DejaVuSans-72" x="2272.753906"/>
      <use xlink:href="#DejaVuSans-65" x="2311.617188"/>
      <use xlink:href="#DejaVuSans-63" x="2373.140625"/>
      <use xlink:href="#DejaVuSans-6f" x="2428.121094"/>
      <use xlink:href="#DejaVuSans-72" x="2489.302734"/>
      <use xlink:href="#DejaVuSans-64" x="2528.666016"/>
      <use xlink:href="#DejaVuSans-20" x="2592.142578"/>
      <use xlink:href="#DejaVuSans-32" x="2623.929688"/>
      <use xlink:href="#DejaVuSans-30" x="2687.552734"/>
      <use xlink:href="#DejaVuSans-32" x="2751.175781"/>
      <use xlink:href="#DejaVuSans-33" x="2814.798828"/>
      <use xlink:href="#DejaVuSans-2d" x="2878.421875"/>
      <use xlink:href="#DejaVuSans-31" x="2914.505859"/>
      <use xlink:href="#DejaVuSans-32" x="2978.128906"/>
      <use xlink:href="#DejaVuSans-2d" x="3041.751953"/>
      <use xlink:href="#DejaVuSans-30" x="3077.835938"/>
      <use xlink:href="#DejaVuSans-35" x="3141.458984"/>
     </g>
    </g>
   </g>
   <g id="matplotlib.axis_2">
    <g id="ytick_1">
     <g id="line2d_10">
      <defs>
       <path id="m0bfbd7b013" d="M 0 0 
L -3.5 0 
" style="stroke: #000000; stroke-width: 0.8"/>
      </defs>
      <g>
       <use xlink:href="#m0bfbd7b013" x="57.6" y="295.556086" style="stroke: #000000; stroke-width: 0.8"/>
      </g>
     </g>
     <g id="text_11">
      <!-- 0 -->
      <g transform="translate(44.2375 299.355305) scale(0.1 -0.1)">
       <use xlink:href="#DejaVuSans-30"/>
      </g>
     </g>
    </g>
    <g id="ytick_2">
     <g id="line2d_11">
      <g>
       <use xlink:href="#m0bfbd7b013" x="57.6" y="242.113039" style="stroke: #000000; stroke-width: 0.8"/>
      </g>
     </g>
     <g id="text_12">
      <!-- 10 -->
      <g transform="translate(37.875 245.912258) scale(0.1 -0.1)">
       <use xlink:href="#DejaVuSans-31"/>
       <use xlink:href="#DejaVuSans-30" x="63.623047"/>
      </g>
     </g>
    </g>
    <g id="ytick_3">
     <g id="line2d_12">
      <g>
       <use xlink:href="#m0bfbd7b013" x="57.6" y="188.669992" style="stroke: #000000; stroke-width: 0.8"/>
      </g>
     </g>
     <g id="text_13">
      <!-- 20 -->
      <g transform="translate(37.875 192.469211) scale(0.1 -0.1)">
       <use xlink:href="#DejaVuSans-32"/>
       <use xlink:href="#DejaVuSans-30" x="63.623047"/>
      </g>
     </g>
    </g>
    <g id="ytick_4">
     <g id="line2d_13">
      <g>
       <use xlink:href="#m0bfbd7b013" x="57.6" y="135.226945" style="stroke: #000000; stroke-width: 0.8"/>
      </g>
     </g>
     <g id="text_14">
      <!-- 30 -->
      <g transform="translate(37.875 139.026164) scale(0.1 -0.1)">
       <use xlink:href="#DejaVuSans-33"/>
       <use xlink:href="#DejaVuSans-30" x="63.623047"/>
      </g>
     </g>
    </g>
    <g id="ytick_5">
     <g id="line2d_14">
      <g>
       <use xlink:href="#m0bfbd7b013" x="57.6" y="81.783898" style="stroke: #000000; stroke-width: 0.8"/>
      </g>
     </g>
     <g id="text_15">
      <!-- 40 -->
      <g transform="translate(37.875 85.583117) scale(0.1 -0.1)">
       <use xlink:href="#DejaVuSans-34"/>
       <use xlink:href="#DejaVuSans-30" x="63.623047"/>
      </g>
     </g>
    </g>
    <g id="text_16">
     <!-- IPv6 as % of total Google traffic -->
     <g transform="translate(31.795312 253.735813) rotate(-90) scale(0.1 -0.1)">
      <defs>
       <path id="DejaVuSans-49" d="M 628 4666 
L 1259 4666 
L 1259 0 
L 628 0 
L 628 4666 
z
" transform="scale(0.015625)"/>
       <path id="DejaVuSans-50" d="M 1259 4147 
L 1259 2394 
L 2053 2394 
Q 2494 2394 2734 2622 
Q 2975 2850 2975 3272 
Q 2975 3691 2734 3919 
Q 2494 4147 2053 4147 
L 1259 4147 
z
M 628 4666 
L 2053 4666 
Q 2838 4666 3239 4311 
Q 3641 3956 3641 3272 
Q 3641 2581 3239 2228 
Q 2838 1875 2053 1875 
L 1259 1875 
L 1259 0 
L 628 0 
L 628 4666 
z
" transform="scale(0.015625)"/>
       <path id="DejaVuSans-76" d="M 191 3500 
L 800 3500 
L 1894 563 
L 2988 3500 
L 3597 3500 
L 2284 0 
L 1503 0 
L 191 3500 
z
" transform="scale(0.015625)"/>
       <path id="DejaVuSans-25" d="M 4653 2053 
Q 4381 2053 4226 1822 
Q 4072 1591 4072 1178 
Q 4072 772 4226 539 
Q 4381 306 4653 306 
Q 4919 306 5073 539 
Q 5228 772 5228 1178 
Q 5228 1588 5073 1820 
Q 4919 2053 4653 2053 
z
M 4653 2450 
Q 5147 2450 5437 2106 
Q 5728 1763 5728 1178 
Q 5728 594 5436 251 
Q 5144 -91 4653 -91 
Q 4153 -91 3862 251 
Q 3572 594 3572 1178 
Q 3572 1766 3864 2108 
Q 4156 2450 4653 2450 
z
M 1428 4353 
Q 1159 4353 1004 4120 
Q 850 3888 850 3481 
Q 850 3069 1003 2837 
Q 1156 2606 1428 2606 
Q 1700 2606 1854 2837 
Q 2009 3069 2009 3481 
Q 2009 3884 1853 4118 
Q 1697 4353 1428 4353 
z
M 4250 4750 
L 4750 4750 
L 1831 -91 
L 1331 -91 
L 4250 4750 
z
M 1428 4750 
Q 1922 4750 2215 4408 
Q 2509 4066 2509 3481 
Q 2509 2891 2217 2550 
Q 1925 2209 1428 2209 
Q 931 2209 642 2551 
Q 353 2894 353 3481 
Q 353 4063 643 4406 
Q 934 4750 1428 4750 
z
" transform="scale(0.015625)"/>
       <path id="DejaVuSans-66" d="M 2375 4863 
L 2375 4384 
L 1825 4384 
Q 1516 4384 1395 4259 
Q 1275 4134 1275 3809 
L 1275 3500 
L 2222 3500 
L 2222 3053 
L 1275 3053 
L 1275 0 
L 697 0 
L 697 3053 
L 147 3053 
L 147 3500 
L 697 3500 
L 697 3744 
Q 697 4328 969 4595 
Q 1241 4863 1831 4863 
L 2375 4863 
z
" transform="scale(0.015625)"/>
       <path id="DejaVuSans-6c" d="M 603 4863 
L 1178 4863 
L 1178 0 
L 603 0 
L 603 4863 
z
" transform="scale(0.015625)"/>
       <path id="DejaVuSans-47" d="M 3809 666 
L 3809 1919 
L 2778 1919 
L 2778 2438 
L 4434 2438 
L 4434 434 
Q 4069 175 3628 42 
Q 3188 -91 2688 -91 
Q 1594 -91 976 548 
Q 359 1188 359 2328 
Q 359 3472 976 4111 
Q 1594 4750 2688 4750 
Q 3144 4750 3555 4637 
Q 3966 4525 4313 4306 
L 4313 3634 
Q 3963 3931 3569 4081 
Q 3175 4231 2741 4231 
Q 1884 4231 1454 3753 
Q 1025 3275 1025 2328 
Q 1025 1384 1454 906 
Q 1884 428 2741 428 
Q 3075 428 3337 486 
Q 3600 544 3809 666 
z
" transform="scale(0.015625)"/>
       <path id="DejaVuSans-67" d="M 2906 1791 
Q 2906 2416 2648 2759 
Q 2391 3103 1925 3103 
Q 1463 3103 1205 2759 
Q 947 2416 947 1791 
Q 947 1169 1205 825 
Q 1463 481 1925 481 
Q 2391 481 2648 825 
Q 2906 1169 2906 1791 
z
M 3481 434 
Q 3481 -459 3084 -895 
Q 2688 -1331 1869 -1331 
Q 1566 -1331 1297 -1286 
Q 1028 -1241 775 -1147 
L 775 -588 
Q 1028 -725 1275 -790 
Q 1522 -856 1778 -856 
Q 2344 -856 2625 -561 
Q 2906 -266 2906 331 
L 2906 616 
Q 2728 306 2450 153 
Q 2172 0 1784 0 
Q 1141 0 747 490 
Q 353 981 353 1791 
Q 353 2603 747 3093 
Q 1141 3584 1784 3584 
Q 2172 3584 2450 3431 
Q 2728 3278 2906 2969 
L 2906 3500 
L 3481 3500 
L 3481 434 
z
" transform="scale(0.015625)"/>
       <path id="DejaVuSans-69" d="M 603 3500 
L 1178 3500 
L 1178 0 
L 603 0 
L 603 3500 
z
M 603 4863 
L 1178 4863 
L 1178 4134 
L 603 4134 
L 603 4863 
z
" transform="scale(0.015625)"/>
      </defs>
      <use xlink:href="#DejaVuSans-49"/>
      <use xlink:href="#DejaVuSans-50" x="29.492188"/>
      <use xlink:href="#DejaVuSans-76" x="89.794922"/>
      <use xlink:href="#DejaVuSans-36" x="148.974609"/>
      <use xlink:href="#DejaVuSans-20" x="212.597656"/>
      <use xlink:href="#DejaVuSans-61" x="244.384766"/>
      <use xlink:href="#DejaVuSans-73" x="305.664062"/>
      <use xlink:href="#DejaVuSans-20" x="357.763672"/>
      <use xlink:href="#DejaVuSans-25" x="389.550781"/>
      <use xlink:href="#DejaVuSans-20" x="484.570312"/>
      <use xlink:href="#DejaVuSans-6f" x="516.357422"/>
      <use xlink:href="#DejaVuSans-66" x="577.539062"/>
      <use xlink:href="#DejaVuSans-20" x="612.744141"/>
      <use xlink:href="#DejaVuSans-74" x="644.53125"/>
      <use xlink:href="#DejaVuSans-6f" x="683.740234"/>
      <use xlink:href="#DejaVuSans-74" x="744.921875"/>
      <use xlink:href="#DejaVuSans-61" x="784.130859"/>
      <use xlink:href="#DejaVuSans-6c" x="845.410156"/>
      <use xlink:href="#DejaVuSans-20" x="873.193359"/>
      <use xlink:href="#DejaVuSans-47" x="904.980469"/>
      <use xlink:href="#DejaVuSans-6f" x="982.470703"/>
      <use xlink:href="#DejaVuSans-6f" x="1043.652344"/>
      <use xlink:href="#DejaVuSans-67" x="1104.833984"/>
      <use xlink:href="#DejaVuSans-6c" x="1168.310547"/>
      <use xlink:href="#DejaVuSans-65" x="1196.09375"/>
      <use xlink:href="#DejaVuSans-20" x="1257.617188"/>
      <use xlink:href="#DejaVuSans-74" x="1289.404297"/>
      <use xlink:href="#DejaVuSans-72" x="1328.613281"/>
      <use xlink:href="#DejaVuSans-61" x="1369.726562"/>
      <use xlink:href="#DejaVuSans-66" x="1431.005859"/>
      <use xlink:href="#DejaVuSans-66" x="1466.210938"/>
      <use xlink:href="#DejaVuSans-69" x="1501.416016"/>
      <use xlink:href="#DejaVuSans-63" x="1529.199219"/>
     </g>
    </g>
   </g>
   <g id="line2d_15">
    <path d="M 73.832727 294.582392 
L 75.464157 294.417365 
L 75.872015 294.574509 
L 77.503444 294.573819 
L 79.134874 294.430576 
L 79.542732 294.303905 
L 80.766304 294.324919 
L 82.805592 294.31166 
L 83.621307 294.252311 
L 84.437021 294.249078 
L 85.660594 294.276852 
L 87.292024 294.201401 
L 90.554884 294.266821 
L 90.962741 294.369635 
L 93.002028 294.344655 
L 94.225601 294.295584 
L 95.857031 294.199659 
L 96.672746 294.208418 
L 97.080603 293.948236 
L 99.527748 293.858986 
L 100.343463 293.82474 
L 102.38275 293.907572 
L 104.422037 293.958022 
L 106.461325 293.925283 
L 107.684897 294.114824 
L 108.90847 294.062439 
L 109.316327 294.048827 
L 110.132042 294.233098 
L 112.171329 294.249938 
L 113.394902 294.365675 
L 115.434189 294.278963 
L 116.249904 294.173942 
L 116.657762 294.087375 
L 117.473476 294.083111 
L 120.328479 294.020208 
L 121.144194 294.110853 
L 121.552051 293.983172 
L 123.999196 294.22 
L 127.262056 294.049388 
L 127.669913 294.055096 
L 128.077771 293.933566 
L 128.893486 294.03522 
L 129.709201 293.846534 
L 130.117058 293.893441 
L 130.524915 293.777603 
L 130.932773 293.828321 
L 131.748488 293.720532 
L 132.97206 293.705188 
L 133.379918 293.838181 
L 135.011348 293.868221 
L 135.827063 293.882501 
L 136.23492 293.844733 
L 136.642778 293.669258 
L 138.274207 293.573162 
L 138.682065 293.668884 
L 142.352782 293.352683 
L 143.168497 293.157301 
L 143.984212 293.304894 
L 146.839214 292.904504 
L 147.247072 292.835087 
L 147.654929 292.942096 
L 148.878502 292.57739 
L 149.286359 292.656149 
L 149.694217 292.475228 
L 152.141361 292.100726 
L 154.180649 291.620129 
L 155.404221 291.496579 
L 155.812079 291.597501 
L 157.851366 291.217906 
L 159.074938 290.842843 
L 159.482796 290.899588 
L 159.890653 290.562887 
L 160.298511 290.400468 
L 161.929941 290.204631 
L 162.337798 290.362561 
L 163.153513 290.171822 
L 163.56137 290.124509 
L 163.969228 289.878912 
L 164.784943 289.715034 
L 166.416373 289.697964 
L 167.232088 289.488612 
L 168.45566 289.334354 
L 168.863518 289.132665 
L 169.271375 289.113212 
L 169.679233 289.217501 
L 171.310662 288.463499 
L 171.71852 288.480772 
L 173.34995 288.006647 
L 173.757807 287.688906 
L 174.165665 287.616005 
L 174.573522 287.419372 
L 174.98138 287.451395 
L 176.204952 286.968542 
L 176.61281 287.053923 
L 177.020667 286.816256 
L 177.428524 286.774485 
L 179.467812 285.657926 
L 180.283527 285.318002 
L 181.099242 284.722668 
L 182.322814 283.251317 
L 182.730672 283.48567 
L 183.138529 283.526212 
L 184.362101 282.128366 
L 184.769959 281.960752 
L 185.177816 281.254198 
L 185.993531 281.033793 
L 186.809246 280.5635 
L 187.217104 280.612513 
L 188.440676 279.84095 
L 188.848534 279.677072 
L 189.256391 279.374007 
L 190.072106 279.302196 
L 190.479963 278.615645 
L 190.887821 278.606597 
L 191.295678 277.851784 
L 191.703536 277.460869 
L 192.519251 277.573068 
L 192.927108 277.293603 
L 193.334966 276.863114 
L 194.150681 276.361989 
L 194.558538 275.913998 
L 194.966396 276.188663 
L 196.597825 275.30969 
L 197.005683 274.984687 
L 197.41354 273.649129 
L 197.821398 273.902476 
L 198.637113 272.995569 
L 199.04497 272.95663 
L 199.452828 273.348694 
L 200.6764 272.456591 
L 201.084258 271.85138 
L 201.899973 271.898041 
L 202.30783 271.243188 
L 202.715688 271.198114 
L 203.123545 267.728842 
L 203.531402 270.011443 
L 203.93926 271.371226 
L 204.347117 270.710494 
L 204.754975 270.341261 
L 205.162832 270.281758 
L 205.57069 269.412758 
L 205.978547 269.140466 
L 207.20212 267.254327 
L 207.609977 266.022791 
L 208.017835 265.319865 
L 208.425692 264.365538 
L 208.83355 263.735455 
L 209.241407 264.741723 
L 209.649265 264.587727 
L 210.057122 264.615587 
L 210.464979 264.778145 
L 210.872837 265.08168 
L 211.280694 264.965874 
L 211.688552 262.746689 
L 212.096409 263.074936 
L 213.319982 261.90557 
L 213.727839 261.748181 
L 214.543554 261.817379 
L 214.951412 260.139865 
L 215.359269 260.078769 
L 216.174984 258.754916 
L 216.582841 259.206269 
L 216.990699 257.139995 
L 217.398556 257.62839 
L 217.806414 256.233531 
L 218.214271 255.5656 
L 218.622129 254.562677 
L 219.029986 255.259147 
L 219.437844 254.204133 
L 219.845701 252.448989 
L 220.253559 253.333418 
L 220.661416 253.585546 
L 221.069274 253.040737 
L 221.477131 251.435896 
L 221.884989 251.881691 
L 222.292846 250.464777 
L 222.700704 250.791175 
L 223.516418 248.880137 
L 223.924276 247.912054 
L 225.147848 247.608112 
L 225.555706 246.490276 
L 225.963563 246.626305 
L 226.371421 246.206969 
L 226.779278 245.099068 
L 227.187136 244.817877 
L 227.594993 243.579089 
L 228.002851 242.729858 
L 228.410708 242.58019 
L 228.818566 242.789222 
L 229.226423 242.248865 
L 229.63428 239.946966 
L 230.449995 241.297183 
L 230.857853 241.037813 
L 231.673568 240.960091 
L 232.081425 241.005822 
L 232.89714 240.728089 
L 233.304998 239.432961 
L 233.712855 239.371652 
L 234.120713 238.22307 
L 234.52857 238.219842 
L 234.936428 238.045361 
L 236.16 234.760318 
L 236.567857 232.825466 
L 236.975715 234.146776 
L 237.383572 233.592962 
L 237.79143 232.448238 
L 238.199287 232.703044 
L 238.607145 230.259083 
L 239.015002 230.617643 
L 239.42286 230.317972 
L 239.830717 228.612663 
L 240.238575 228.596523 
L 240.646432 227.325402 
L 241.05429 227.631465 
L 241.462147 226.626073 
L 241.870005 226.091979 
L 242.277862 226.375724 
L 242.68572 225.687297 
L 243.093577 224.613311 
L 243.501434 224.956635 
L 243.909292 224.447274 
L 244.317149 222.757154 
L 244.725007 222.05037 
L 245.132864 222.116484 
L 245.540722 220.140048 
L 245.948579 220.491522 
L 246.764294 218.137489 
L 247.172152 215.788453 
L 247.580009 216.020626 
L 248.395724 214.699749 
L 248.803582 213.21974 
L 249.211439 213.417597 
L 249.619296 212.797342 
L 250.027154 210.457221 
L 250.435011 209.636181 
L 250.842869 205.756365 
L 251.250726 208.278882 
L 251.658584 207.821538 
L 252.066441 208.423109 
L 252.474299 207.716693 
L 253.290014 208.863971 
L 253.697871 208.635256 
L 254.105729 207.62956 
L 254.513586 207.932015 
L 255.329301 206.65113 
L 255.737159 205.589772 
L 256.145016 205.421453 
L 256.552873 204.703991 
L 256.960731 202.124001 
L 257.368588 202.933594 
L 257.776446 199.473841 
L 258.184303 199.741655 
L 258.592161 197.861063 
L 259.000018 196.701932 
L 260.223591 194.570062 
L 260.631448 192.825398 
L 261.039306 189.948938 
L 261.447163 190.675309 
L 263.078593 187.399234 
L 263.48645 186.860448 
L 263.894308 186.880842 
L 264.302165 187.177681 
L 264.710023 186.158388 
L 265.11788 184.729845 
L 265.525738 186.009624 
L 265.933595 186.034325 
L 266.341453 187.174463 
L 266.74931 185.926718 
L 267.157168 183.986805 
L 267.565025 184.235379 
L 267.972883 183.397884 
L 269.196455 182.066014 
L 270.01217 181.087712 
L 270.420027 180.98174 
L 270.827885 195.16677 
L 271.235742 179.180944 
L 271.6436 178.413668 
L 272.051457 174.537165 
L 272.459315 178.133653 
L 273.27503 177.608137 
L 273.682887 177.605593 
L 274.090745 177.124301 
L 274.498602 176.887115 
L 274.90646 178.204716 
L 275.314317 179.040025 
L 275.722175 178.836963 
L 276.130032 177.705301 
L 276.537889 177.786562 
L 277.761462 176.83496 
L 278.169319 174.292621 
L 278.577177 175.296089 
L 278.985034 172.603543 
L 279.392892 173.738887 
L 279.800749 171.478855 
L 280.208607 170.067707 
L 280.616464 170.899757 
L 281.024322 169.169212 
L 281.432179 168.020155 
L 281.840037 167.775824 
L 282.247894 168.715219 
L 282.655751 169.210748 
L 283.879324 166.67285 
L 284.287181 167.256496 
L 284.695039 168.097599 
L 285.102896 168.260696 
L 285.510754 166.335801 
L 285.918611 165.61883 
L 286.326469 164.223459 
L 286.734326 163.87966 
L 287.142184 163.68424 
L 287.550041 163.830263 
L 287.957899 163.646205 
L 288.773614 161.729438 
L 289.181471 162.847712 
L 289.589328 159.305261 
L 289.997186 159.396376 
L 290.405043 158.964396 
L 290.812901 156.380719 
L 291.220758 155.605506 
L 291.628616 155.139557 
L 292.036473 155.142951 
L 292.444331 153.742225 
L 292.852188 153.646738 
L 293.667903 151.432037 
L 294.075761 152.893864 
L 294.483618 153.835435 
L 295.299333 151.593146 
L 295.70719 152.692908 
L 296.115048 152.491823 
L 296.522905 152.970534 
L 296.930763 151.27803 
L 297.33862 150.687495 
L 297.746478 151.967087 
L 298.154335 150.130271 
L 298.562193 150.277239 
L 298.97005 149.753289 
L 299.785765 149.550173 
L 300.193623 145.921882 
L 300.60148 145.816193 
L 301.009338 146.102546 
L 301.417195 146.980145 
L 302.23291 142.746018 
L 302.640767 140.878168 
L 303.048625 140.404075 
L 303.456482 140.566916 
L 303.86434 140.226013 
L 304.272197 138.370599 
L 304.680055 139.900673 
L 305.087912 138.271585 
L 305.49577 139.783334 
L 305.903627 138.699621 
L 306.311485 138.043629 
L 306.719342 137.988925 
L 307.1272 138.062831 
L 307.535057 136.650139 
L 307.942915 136.81065 
L 308.350772 138.339591 
L 308.75863 137.821525 
L 309.166487 138.448679 
L 309.574344 138.705008 
L 309.982202 136.745577 
L 310.390059 137.919091 
L 310.797917 138.234431 
L 311.205774 137.5062 
L 311.613632 137.061249 
L 312.021489 135.306057 
L 312.429347 135.676503 
L 312.837204 135.294492 
L 313.245062 135.421179 
L 313.652919 134.400502 
L 314.060777 133.954017 
L 314.468634 132.662101 
L 314.876492 132.097411 
L 315.284349 132.895733 
L 315.692206 133.133095 
L 316.100064 133.186495 
L 316.915779 131.349283 
L 317.323636 131.789718 
L 317.731494 130.450013 
L 318.139351 131.029844 
L 318.547209 130.77927 
L 318.955066 129.852627 
L 319.362924 130.079081 
L 319.770781 130.715641 
L 320.178639 130.425445 
L 320.586496 130.440613 
L 320.994354 128.033554 
L 321.810069 126.319812 
L 322.217926 126.602766 
L 322.625783 126.003648 
L 323.033641 124.00964 
L 323.441498 124.654671 
L 323.849356 121.793282 
L 324.257213 124.083231 
L 324.665071 122.187536 
L 325.072928 119.596147 
L 325.480786 120.354205 
L 325.888643 118.736142 
L 326.296501 117.644306 
L 326.704358 117.748755 
L 327.112216 116.929622 
L 327.520073 118.983118 
L 327.927931 117.272369 
L 328.335788 117.913835 
L 328.743646 118.290192 
L 329.967218 115.665432 
L 330.375075 117.850745 
L 330.782933 117.894531 
L 331.19079 116.928479 
L 331.598648 117.47589 
L 332.006505 118.8031 
L 332.414363 117.770885 
L 332.82222 115.369176 
L 333.230078 119.356295 
L 333.637935 118.282266 
L 334.045793 116.727682 
L 334.45365 118.031784 
L 334.861508 118.126009 
L 335.269365 115.996379 
L 335.677222 114.935807 
L 336.08508 112.991533 
L 336.492937 113.939671 
L 336.900795 113.221348 
L 337.308652 113.442902 
L 337.71651 114.051549 
L 338.124367 112.497345 
L 338.532225 111.860116 
L 338.940082 113.012317 
L 339.34794 112.72514 
L 339.755797 110.231883 
L 340.163655 109.683445 
L 340.571512 107.986596 
L 340.97937 110.773053 
L 341.387227 111.697185 
L 341.795085 110.788701 
L 342.202942 110.614963 
L 342.610799 110.757442 
L 343.018657 105.842841 
L 343.426514 109.128279 
L 343.834372 107.235086 
L 344.650087 108.19279 
L 345.057944 103.538142 
L 345.465802 102.943267 
L 345.873659 101.070884 
L 346.281517 100.996363 
L 346.689374 102.689984 
L 347.097232 100.354427 
L 347.505089 99.89533 
L 347.912947 98.689206 
L 348.320804 98.25302 
L 348.728661 96.882649 
L 349.136519 97.087534 
L 349.544376 100.409965 
L 349.952234 98.618319 
L 350.360091 97.483889 
L 350.767949 99.641422 
L 351.175806 98.448306 
L 351.583664 98.028313 
L 351.991521 96.305737 
L 352.807236 99.047322 
L 353.215094 98.74623 
L 353.622951 99.176067 
L 354.030809 99.039878 
L 354.438666 97.49532 
L 354.846524 99.281184 
L 355.254381 97.135584 
L 355.662238 96.376811 
L 356.070096 96.297314 
L 356.885811 93.626145 
L 357.293668 90.645525 
L 357.701526 92.678295 
L 358.109383 96.475023 
L 358.517241 92.198345 
L 358.925098 91.997442 
L 359.332956 94.867328 
L 360.148671 91.047577 
L 360.556528 90.996517 
L 360.964386 91.802893 
L 361.372243 91.769988 
L 361.780101 92.387496 
L 362.187958 85.128022 
L 362.595815 84.353044 
L 363.003673 84.569451 
L 363.41153 83.085803 
L 363.819388 82.599177 
L 364.227245 80.018781 
L 364.635103 83.297539 
L 365.04296 84.575971 
L 365.450818 81.771061 
L 365.858675 83.619341 
L 366.266533 80.476221 
L 366.67439 78.875864 
L 367.082248 74.993414 
L 367.490105 76.038113 
L 367.897963 70.285691 
L 368.713677 74.317979 
L 369.121535 76.159333 
L 369.529392 74.482236 
L 369.93725 74.809388 
L 370.345107 75.512976 
L 370.752965 75.369728 
L 371.160822 77.414416 
L 371.56868 76.461281 
L 371.976537 74.967056 
L 372.384395 75.311705 
L 372.792252 73.78038 
L 373.20011 74.169445 
L 373.607967 72.29663 
L 374.015825 73.618693 
L 374.423682 77.185904 
L 374.83154 74.785365 
L 375.239397 71.146038 
L 375.647254 74.16208 
L 376.055112 72.410036 
L 376.462969 74.229771 
L 376.870827 72.586558 
L 377.278684 72.563193 
L 378.502257 66.236995 
L 378.910114 69.0714 
L 379.317972 68.854667 
L 379.725829 67.435894 
L 380.133687 67.854053 
L 380.541544 70.27186 
L 381.357259 68.182995 
L 381.765116 69.713946 
L 382.172974 68.852631 
L 382.580831 67.183664 
L 382.988689 67.21612 
L 383.804404 64.446808 
L 384.212261 65.655027 
L 384.620119 65.635429 
L 385.027976 63.005379 
L 385.435834 64.360225 
L 386.251549 64.13299 
L 386.659406 62.672221 
L 387.067264 64.340333 
L 387.475121 64.389426 
L 387.882979 61.453516 
L 388.290836 61.41756 
L 388.698693 60.028318 
L 389.106551 56.36484 
L 389.514408 57.93931 
L 390.330123 57.075334 
L 390.737981 56.920098 
L 391.145838 57.31207 
L 391.553696 55.953933 
L 391.961553 57.547396 
L 392.777268 53.568 
L 393.185126 55.155269 
L 393.592983 57.309019 
L 394.000841 58.15072 
L 394.408698 54.173745 
L 394.816556 56.540764 
L 395.224413 55.313183 
L 395.63227 59.600603 
L 396.040128 56.784507 
L 396.447985 55.735987 
L 396.855843 58.119466 
L 397.2637 58.338246 
L 397.671558 59.606343 
L 398.079415 57.326222 
L 398.487273 84.95857 
L 398.487273 84.95857 
" clip-path="url(#p429d04fad4)" style="fill: none; stroke: #1f77b4; stroke-width: 1.5; stroke-linecap: square"/>
   </g>
   <g id="line2d_16">
    <path d="M 73.832727 294.837785 
L 75.464157 294.702008 
L 75.872015 294.815644 
L 84.844879 294.566519 
L 85.660594 294.557888 
L 87.699881 294.493088 
L 89.739169 294.559432 
L 91.370598 294.55644 
L 97.080603 294.475767 
L 97.48846 294.284447 
L 113.394902 294.476195 
L 115.434189 294.477323 
L 116.657762 294.309351 
L 118.289191 294.284105 
L 120.328479 294.226028 
L 125.222768 294.402256 
L 130.932773 293.961186 
L 131.748488 293.90538 
L 132.564203 293.84367 
L 133.379918 293.93968 
L 134.195633 293.952298 
L 135.011348 294.002764 
L 136.23492 294.036872 
L 137.050635 293.739413 
L 137.86635 293.777432 
L 138.274207 293.855972 
L 139.905637 293.755938 
L 140.313495 293.809659 
L 140.721352 293.67876 
L 142.76064 293.632115 
L 143.576354 293.465341 
L 146.431357 293.371703 
L 148.470644 293.104146 
L 148.878502 293.222597 
L 150.102074 292.904007 
L 151.733504 292.644915 
L 152.549219 292.652205 
L 153.772791 292.247604 
L 155.404221 291.963741 
L 155.812079 292.086457 
L 157.443508 291.95992 
L 163.153513 290.918336 
L 163.56137 290.964078 
L 164.377085 290.702715 
L 165.1928 290.598784 
L 165.600658 290.359872 
L 166.82423 290.631796 
L 167.639945 290.444147 
L 168.047803 290.388988 
L 168.45566 290.156837 
L 168.863518 290.174222 
L 169.271375 290.002253 
L 170.494947 289.914382 
L 170.902805 289.669164 
L 172.126377 289.421204 
L 172.534235 289.423882 
L 172.942092 289.266802 
L 173.34995 289.250838 
L 174.98138 288.763758 
L 175.797095 288.529667 
L 176.204952 288.281702 
L 176.61281 288.422391 
L 177.836382 287.927396 
L 178.652097 287.51481 
L 179.059954 287.202174 
L 179.875669 286.984992 
L 180.283527 287.084781 
L 181.099242 286.932201 
L 182.322814 285.764674 
L 182.730672 285.484215 
L 183.138529 285.561317 
L 183.546386 285.410849 
L 184.769959 284.534195 
L 185.177816 284.385859 
L 185.993531 283.677653 
L 186.401389 283.580617 
L 186.809246 282.244043 
L 187.217104 282.368833 
L 187.624961 283.259221 
L 188.032819 283.162532 
L 188.848534 282.47931 
L 189.256391 283.096706 
L 189.664249 282.297294 
L 190.072106 282.248126 
L 190.479963 281.999648 
L 190.887821 281.418477 
L 191.295678 281.448009 
L 192.111393 280.557872 
L 192.519251 280.584717 
L 192.927108 280.385834 
L 193.334966 279.663808 
L 193.742823 279.90761 
L 194.150681 279.361112 
L 194.558538 279.525043 
L 194.966396 279.327758 
L 195.374253 279.40827 
L 195.782111 278.792504 
L 196.189968 278.816238 
L 196.597825 278.188031 
L 197.005683 278.297173 
L 197.821398 276.971256 
L 198.229255 276.708867 
L 198.637113 276.625421 
L 199.04497 276.3211 
L 199.452828 276.290937 
L 199.860685 276.407427 
L 200.268543 276.385333 
L 201.492115 275.950285 
L 201.899973 276.091931 
L 202.715688 275.725894 
L 203.123545 275.094828 
L 203.531402 273.678347 
L 203.93926 274.73568 
L 204.347117 275.08376 
L 204.754975 274.718343 
L 205.162832 274.930309 
L 205.57069 274.401501 
L 206.386405 273.717745 
L 206.794262 273.039895 
L 207.20212 272.614782 
L 207.609977 271.724207 
L 208.017835 269.08846 
L 208.425692 267.400221 
L 208.83355 269.90119 
L 209.241407 270.560715 
L 209.649265 270.578853 
L 210.057122 270.842456 
L 210.464979 270.823473 
L 210.872837 271.176261 
L 211.280694 270.448222 
L 211.688552 270.57624 
L 212.096409 269.216494 
L 212.504267 268.800979 
L 212.912124 269.037214 
L 213.727839 267.681273 
L 214.135697 268.048277 
L 214.543554 268.012892 
L 214.951412 267.57592 
L 215.359269 266.94169 
L 215.767127 266.611701 
L 216.174984 266.658474 
L 216.990699 264.692524 
L 217.398556 264.114281 
L 217.806414 263.803536 
L 218.214271 262.67088 
L 218.622129 262.278581 
L 219.845701 259.994645 
L 220.253559 260.382401 
L 221.069274 260.001031 
L 221.884989 259.268808 
L 222.292846 259.587131 
L 223.108561 259.18347 
L 223.924276 258.173471 
L 225.147848 257.657206 
L 225.555706 257.660589 
L 225.963563 256.601669 
L 226.371421 256.495007 
L 226.779278 256.524026 
L 227.187136 255.981702 
L 228.410708 253.296542 
L 228.818566 252.790052 
L 229.226423 250.345903 
L 229.63428 246.897544 
L 230.042138 252.014005 
L 230.449995 253.128913 
L 230.857853 252.817618 
L 231.26571 252.268677 
L 231.673568 252.34338 
L 232.081425 252.626094 
L 232.89714 251.47112 
L 233.712855 250.944118 
L 234.120713 250.517872 
L 234.52857 249.300739 
L 234.936428 249.018394 
L 235.344285 248.949394 
L 236.16 247.872388 
L 236.567857 246.592176 
L 236.975715 245.794319 
L 237.383572 246.297149 
L 238.199287 244.724603 
L 238.607145 243.277964 
L 239.015002 242.857191 
L 239.42286 242.651403 
L 240.238575 240.331515 
L 240.646432 238.524814 
L 241.05429 239.316012 
L 241.462147 239.166874 
L 241.870005 238.257781 
L 242.277862 237.644207 
L 242.68572 237.487116 
L 243.093577 237.598197 
L 243.501434 238.851977 
L 243.909292 238.209116 
L 244.317149 238.49681 
L 244.725007 237.81431 
L 245.132864 237.8885 
L 245.540722 237.120866 
L 246.356437 234.973855 
L 246.764294 235.189509 
L 247.580009 232.152848 
L 247.987867 232.8724 
L 248.395724 232.313182 
L 248.803582 230.989751 
L 249.211439 230.891491 
L 249.619296 230.003267 
L 250.027154 229.497541 
L 250.435011 225.970006 
L 250.842869 217.830619 
L 251.250726 223.690035 
L 251.658584 226.81431 
L 252.066441 227.144347 
L 252.882156 226.800409 
L 253.290014 226.89588 
L 253.697871 226.852147 
L 254.105729 225.879682 
L 254.513586 225.636975 
L 254.921444 225.939901 
L 255.737159 224.802184 
L 256.552873 222.759425 
L 256.960731 220.522011 
L 257.368588 221.274692 
L 257.776446 221.163226 
L 258.184303 217.105424 
L 258.592161 217.995373 
L 259.407876 215.287959 
L 259.815733 212.682958 
L 260.223591 212.589075 
L 260.631448 212.232326 
L 261.447163 207.694696 
L 261.855021 207.393646 
L 262.262878 206.723652 
L 262.670735 206.396452 
L 263.48645 203.806821 
L 263.894308 203.584835 
L 264.302165 203.50815 
L 264.710023 204.64352 
L 265.11788 204.774285 
L 265.525738 205.737521 
L 265.933595 206.409412 
L 266.74931 206.94488 
L 267.157168 204.648197 
L 267.565025 204.068954 
L 267.972883 204.569865 
L 268.38074 203.547355 
L 268.788598 201.665957 
L 269.196455 203.303506 
L 269.604312 203.952646 
L 270.01217 202.015197 
L 270.420027 201.776889 
L 270.827885 200.68579 
L 271.235742 195.16677 
L 271.6436 197.37672 
L 272.051457 188.249422 
L 272.867172 199.087132 
L 273.27503 197.680859 
L 273.682887 199.158356 
L 274.090745 198.609897 
L 274.498602 198.518787 
L 274.90646 197.087865 
L 275.314317 199.503374 
L 275.722175 200.172299 
L 276.130032 199.546016 
L 276.537889 198.174181 
L 276.945747 197.706501 
L 277.353604 196.635668 
L 277.761462 196.561088 
L 278.169319 198.456552 
L 278.577177 197.373155 
L 278.985034 195.832526 
L 279.392892 193.667297 
L 279.800749 193.461429 
L 280.208607 192.566038 
L 280.616464 192.675415 
L 281.024322 190.370454 
L 281.432179 190.317283 
L 281.840037 188.730917 
L 282.247894 188.478378 
L 282.655751 187.994285 
L 283.063609 186.478581 
L 283.879324 186.491109 
L 284.695039 185.877817 
L 285.102896 186.789438 
L 285.510754 185.243988 
L 285.918611 184.421233 
L 286.326469 187.367248 
L 286.734326 187.513677 
L 287.142184 187.374287 
L 287.550041 187.463254 
L 287.957899 187.388989 
L 288.365756 185.913897 
L 288.773614 186.265659 
L 289.181471 186.861389 
L 289.589328 186.20389 
L 289.997186 183.18587 
L 290.405043 184.013008 
L 290.812901 183.60054 
L 291.220758 180.392247 
L 291.628616 181.961939 
L 292.852188 177.776108 
L 293.260046 164.689258 
L 293.667903 169.709019 
L 294.075761 177.25879 
L 294.483618 178.644429 
L 295.299333 177.305868 
L 295.70719 175.99313 
L 296.115048 176.974564 
L 296.522905 176.696078 
L 296.930763 177.728934 
L 297.33862 175.397219 
L 297.746478 177.456738 
L 298.562193 175.318155 
L 298.97005 175.28812 
L 299.377908 175.927048 
L 299.785765 173.254244 
L 300.193623 172.802303 
L 300.60148 170.564498 
L 301.009338 172.619624 
L 301.417195 173.926686 
L 301.825053 171.416551 
L 302.640767 164.41634 
L 303.048625 165.946233 
L 303.456482 164.685939 
L 303.86434 163.997646 
L 304.272197 162.362903 
L 304.680055 163.04263 
L 305.087912 163.232652 
L 305.49577 163.061848 
L 305.903627 162.518311 
L 306.311485 161.651438 
L 306.719342 159.231959 
L 307.1272 162.288938 
L 307.535057 163.154384 
L 307.942915 163.317199 
L 308.350772 164.692764 
L 308.75863 165.456144 
L 309.574344 165.17272 
L 309.982202 165.703089 
L 310.390059 165.3971 
L 310.797917 166.090871 
L 311.613632 163.291631 
L 312.021489 165.053488 
L 312.429347 164.454942 
L 312.837204 162.965191 
L 313.245062 163.129763 
L 313.652919 162.41228 
L 314.060777 160.178333 
L 314.468634 147.82803 
L 314.876492 147.499232 
L 315.284349 159.587921 
L 315.692206 161.282942 
L 316.100064 161.62997 
L 316.507921 160.463313 
L 316.915779 158.887625 
L 317.731494 157.122006 
L 318.139351 157.072004 
L 318.547209 157.657794 
L 318.955066 157.238154 
L 319.362924 147.811757 
L 319.770781 143.697652 
L 320.178639 142.095574 
L 320.586496 143.290058 
L 321.810069 139.104404 
L 322.217926 139.398196 
L 322.625783 141.614998 
L 323.033641 139.58359 
L 323.441498 138.808303 
L 323.849356 140.622101 
L 324.257213 141.6193 
L 325.072928 138.483599 
L 325.480786 135.498254 
L 325.888643 135.272436 
L 326.296501 133.652182 
L 326.704358 135.051679 
L 327.112216 134.859278 
L 327.520073 135.965213 
L 327.927931 134.905501 
L 328.335788 134.914335 
L 328.743646 135.848076 
L 329.151503 137.499253 
L 329.55936 136.710252 
L 329.967218 138.604818 
L 330.782933 138.738533 
L 331.19079 139.469757 
L 331.598648 138.137379 
L 332.006505 138.325439 
L 332.414363 137.27181 
L 332.82222 135.364796 
L 333.230078 137.53957 
L 333.637935 137.977231 
L 334.045793 137.76449 
L 334.45365 140.208516 
L 334.861508 138.161262 
L 335.677222 129.884575 
L 336.08508 123.301118 
L 336.900795 133.150635 
L 337.308652 132.421661 
L 337.71651 133.330978 
L 338.124367 132.204468 
L 338.940082 131.239901 
L 339.34794 131.383038 
L 339.755797 133.022815 
L 340.163655 132.617091 
L 340.571512 132.412153 
L 340.97937 130.48528 
L 341.387227 133.642412 
L 342.202942 130.669541 
L 342.610799 132.910975 
L 343.018657 131.608958 
L 343.426514 128.220904 
L 343.834372 128.553774 
L 344.242229 126.538789 
L 344.650087 125.358083 
L 345.057944 127.211851 
L 345.465802 127.586647 
L 346.281517 120.17353 
L 346.689374 120.047324 
L 347.097232 119.680587 
L 347.505089 118.929766 
L 347.912947 116.203946 
L 348.320804 117.642018 
L 348.728661 116.281519 
L 349.136519 116.385732 
L 349.544376 117.618444 
L 349.952234 120.63422 
L 350.360091 121.3335 
L 350.767949 121.38371 
L 351.175806 122.89656 
L 351.583664 120.699121 
L 352.399379 121.873612 
L 352.807236 122.147534 
L 353.215094 121.923025 
L 353.622951 121.479785 
L 354.030809 123.862896 
L 354.438666 122.76641 
L 354.846524 123.290745 
L 355.254381 121.732645 
L 355.662238 122.812435 
L 356.477953 120.1549 
L 356.885811 114.857892 
L 357.293668 102.454546 
L 358.109383 114.853168 
L 358.517241 115.193621 
L 358.925098 116.931755 
L 359.332956 115.286799 
L 359.740813 118.059157 
L 360.148671 117.079696 
L 360.556528 113.635676 
L 360.964386 115.521639 
L 361.372243 115.515177 
L 361.780101 117.826787 
L 362.187958 113.905366 
L 362.595815 107.268541 
L 363.003673 107.425599 
L 363.41153 117.877723 
L 363.819388 106.144046 
L 364.635103 102.666689 
L 365.04296 106.372317 
L 365.450818 106.193486 
L 365.858675 104.844279 
L 366.266533 101.741119 
L 366.67439 102.385279 
L 367.490105 94.745007 
L 367.897963 95.516613 
L 368.30582 95.292115 
L 368.713677 92.833798 
L 369.121535 92.742283 
L 369.529392 93.655672 
L 369.93725 92.396613 
L 370.345107 93.240099 
L 370.752965 93.342405 
L 371.160822 96.692611 
L 371.56868 97.528001 
L 372.384395 100.543909 
L 372.792252 98.472398 
L 373.20011 99.613893 
L 373.607967 99.746074 
L 374.015825 96.883232 
L 374.423682 100.098355 
L 374.83154 100.991308 
L 375.239397 97.881954 
L 375.647254 97.040889 
L 376.055112 99.34127 
L 376.462969 95.804436 
L 376.870827 99.248156 
L 377.278684 99.552054 
L 377.686542 95.164797 
L 378.502257 80.89941 
L 378.910114 88.200153 
L 379.317972 93.174493 
L 379.725829 93.099533 
L 380.133687 93.687049 
L 380.541544 92.540033 
L 380.949402 92.674207 
L 381.357259 93.400225 
L 382.172974 91.07067 
L 382.580831 94.120883 
L 383.396546 86.812354 
L 383.804404 90.548467 
L 384.212261 86.235976 
L 384.620119 88.929517 
L 385.027976 89.591056 
L 385.435834 88.291498 
L 385.843691 85.093578 
L 386.251549 89.937292 
L 386.659406 89.776936 
L 387.067264 86.326226 
L 387.475121 86.91116 
L 387.882979 86.32816 
L 388.290836 81.653 
L 389.106551 77.046364 
L 389.514408 77.406945 
L 389.922266 77.230764 
L 390.330123 76.091358 
L 390.737981 77.496515 
L 391.145838 76.002846 
L 391.553696 77.009767 
L 391.961553 75.606903 
L 392.777268 81.059766 
L 393.185126 82.621944 
L 393.592983 81.550261 
L 394.000841 83.222735 
L 394.408698 82.757443 
L 394.816556 82.076606 
L 395.224413 81.771996 
L 395.63227 83.973599 
L 396.040128 84.665766 
L 396.447985 81.88009 
L 396.855843 82.83322 
L 397.2637 85.346102 
L 397.671558 82.758854 
L 398.079415 84.481591 
L 398.487273 85.026656 
L 398.487273 85.026656 
" clip-path="url(#p429d04fad4)" style="fill: none; stroke: #ff7f0e; stroke-width: 1.5; stroke-linecap: square"/>
   </g>
   <g id="line2d_17">
    <path d="M 73.832727 295.300693 
L 79.950589 295.270888 
L 80.358447 295.338156 
L 81.174162 295.227481 
L 81.582019 295.312285 
L 81.989877 295.213217 
L 82.397734 295.311707 
L 83.621307 295.211379 
L 95.041316 295.274858 
L 95.449173 295.233387 
L 95.857031 295.328825 
L 97.080603 295.028555 
L 97.48846 295.220453 
L 112.579187 295.423761 
L 113.802759 295.427909 
L 118.289191 295.29211 
L 119.104906 295.31866 
L 119.512764 295.384117 
L 120.328479 295.350267 
L 121.144194 295.350956 
L 121.959909 295.3608 
L 122.367766 295.455881 
L 125.630626 295.361746 
L 142.352782 295.282073 
L 142.76064 295.139215 
L 143.984212 295.397612 
L 144.799927 295.138124 
L 145.207784 295.224285 
L 145.615642 295.107266 
L 147.654929 295.315171 
L 148.470644 295.233713 
L 148.878502 294.910879 
L 149.286359 295.120403 
L 149.694217 295.022586 
L 150.917789 295.210139 
L 151.325646 295.066746 
L 151.733504 295.114145 
L 152.549219 294.886156 
L 152.957076 294.939696 
L 153.772791 294.856752 
L 154.180649 295.000273 
L 154.996364 294.843381 
L 155.404221 295.088925 
L 159.482796 294.828069 
L 159.890653 294.612459 
L 160.298511 294.557717 
L 161.114226 294.739258 
L 161.929941 294.695092 
L 162.337798 294.957808 
L 163.969228 294.635803 
L 165.1928 294.671951 
L 165.600658 294.945323 
L 166.82423 294.48706 
L 167.639945 294.569122 
L 168.047803 294.509052 
L 168.45566 294.733603 
L 168.863518 294.51453 
L 169.679233 294.792214 
L 170.902805 294.408691 
L 172.126377 294.508255 
L 172.534235 294.294708 
L 172.942092 294.432484 
L 173.757807 294.1285 
L 174.165665 294.279845 
L 174.573522 294.172499 
L 174.98138 294.243723 
L 175.797095 294.195111 
L 176.61281 294.187618 
L 177.020667 294.078894 
L 177.428524 294.198184 
L 178.652097 294.026488 
L 179.059954 294.226413 
L 179.875669 294.072529 
L 180.283527 293.789307 
L 180.691384 293.66012 
L 181.099242 293.346553 
L 181.914957 293.302158 
L 182.322814 293.042729 
L 182.730672 293.557541 
L 183.138529 293.520981 
L 183.546386 293.225633 
L 183.954244 293.171971 
L 184.362101 292.770341 
L 184.769959 292.982643 
L 185.177816 292.424425 
L 185.993531 292.912227 
L 186.401389 292.809034 
L 186.809246 293.875543 
L 187.217104 293.799766 
L 187.624961 292.614335 
L 188.032819 292.484148 
L 188.440676 292.530488 
L 188.848534 292.753848 
L 189.256391 291.833388 
L 189.664249 292.605458 
L 190.072106 292.610156 
L 190.479963 292.172083 
L 190.887821 292.744207 
L 191.295678 291.959861 
L 191.703536 292.077281 
L 192.111393 292.514397 
L 192.927108 292.463856 
L 193.334966 292.755393 
L 193.742823 292.268441 
L 194.150681 292.556964 
L 194.558538 291.945041 
L 194.966396 292.416991 
L 195.374253 292.138762 
L 195.782111 292.533594 
L 196.189968 292.337548 
L 196.597825 292.677745 
L 197.41354 291.677169 
L 197.821398 292.487307 
L 198.229255 292.355805 
L 198.637113 291.926235 
L 199.04497 292.191617 
L 199.452828 292.613844 
L 199.860685 292.178561 
L 200.6764 291.804716 
L 201.084258 291.269094 
L 201.492115 291.528186 
L 201.899973 291.362197 
L 202.30783 290.901892 
L 202.715688 291.028306 
L 203.123545 288.190101 
L 203.531402 291.889183 
L 203.93926 292.191633 
L 204.347117 291.182821 
L 204.754975 291.179005 
L 205.57069 290.567344 
L 205.978547 290.611536 
L 206.386405 290.32576 
L 206.794262 290.454814 
L 207.609977 289.85467 
L 208.017835 291.787491 
L 208.425692 292.521403 
L 208.83355 289.390351 
L 209.241407 289.737095 
L 210.057122 289.329218 
L 210.464979 289.510759 
L 210.872837 289.461505 
L 211.280694 290.073738 
L 211.688552 287.726536 
L 212.096409 289.414529 
L 212.504267 289.406646 
L 212.912124 288.720699 
L 213.319982 289.076929 
L 213.727839 289.622994 
L 214.135697 289.278794 
L 214.543554 289.360573 
L 214.951412 288.120032 
L 215.359269 288.693165 
L 215.767127 288.285133 
L 216.174984 287.652528 
L 216.582841 289.114366 
L 216.990699 288.003558 
L 217.398556 289.070195 
L 217.806414 287.986082 
L 218.214271 288.450807 
L 218.622129 287.840182 
L 219.029986 289.324964 
L 219.437844 289.003418 
L 219.845701 288.010431 
L 220.661416 288.909075 
L 221.069274 288.595792 
L 221.477131 287.416609 
L 221.884989 288.168969 
L 222.292846 286.433732 
L 222.700704 286.977558 
L 223.108561 286.09757 
L 223.924276 285.294669 
L 224.739991 285.4468 
L 225.147848 285.506993 
L 225.555706 284.385773 
L 225.963563 285.580723 
L 226.371421 285.268049 
L 226.779278 284.131128 
L 227.187136 284.392261 
L 227.594993 284.136365 
L 228.002851 284.249392 
L 228.818566 285.555257 
L 229.226423 287.459048 
L 229.63428 288.605508 
L 230.042138 284.147241 
L 230.449995 283.724357 
L 230.857853 283.776282 
L 231.26571 284.255073 
L 231.673568 284.172798 
L 232.081425 283.935815 
L 232.89714 284.813056 
L 233.304998 283.722561 
L 233.712855 283.98362 
L 234.120713 283.261284 
L 234.52857 284.475189 
L 234.936428 284.583053 
L 235.344285 283.491115 
L 236.16 282.444017 
L 236.567857 281.789377 
L 236.975715 283.908543 
L 237.383572 282.851899 
L 237.79143 282.518725 
L 238.199287 283.534527 
L 238.607145 282.537205 
L 239.015002 283.316538 
L 239.42286 283.222655 
L 239.830717 282.753895 
L 240.238575 283.821094 
L 240.646432 284.356674 
L 241.05429 283.871539 
L 241.462147 283.015285 
L 241.870005 283.390284 
L 242.277862 284.287604 
L 242.68572 283.756268 
L 243.501434 281.660745 
L 243.909292 281.794245 
L 244.317149 279.81643 
L 245.132864 279.784071 
L 245.540722 278.575269 
L 245.948579 279.951834 
L 246.356437 279.748638 
L 246.764294 278.504067 
L 247.172152 277.844906 
L 247.580009 279.423864 
L 247.987867 278.033303 
L 248.803582 277.786076 
L 249.619296 278.350162 
L 250.027154 276.515766 
L 250.435011 279.222261 
L 250.842869 283.481832 
L 251.658584 276.563315 
L 252.066441 276.834848 
L 252.474299 276.269715 
L 252.882156 277.037632 
L 253.290014 277.524178 
L 253.697871 277.339195 
L 254.105729 277.305965 
L 254.513586 277.851126 
L 254.921444 276.954192 
L 255.329301 276.854905 
L 255.737159 276.343674 
L 256.145016 277.348008 
L 256.552873 277.500652 
L 256.960731 277.158077 
L 257.368588 277.214988 
L 257.776446 273.866701 
L 258.184303 278.192318 
L 258.592161 275.421777 
L 259.000018 275.471441 
L 259.407876 276.272152 
L 259.815733 278.395765 
L 260.223591 277.537074 
L 260.631448 276.149158 
L 261.039306 275.631134 
L 261.447163 278.536699 
L 261.855021 277.99701 
L 262.262878 278.00624 
L 262.670735 277.099899 
L 263.078593 278.037921 
L 263.48645 278.609713 
L 263.894308 278.852093 
L 264.302165 279.225617 
L 265.11788 275.511646 
L 265.525738 275.82819 
L 265.933595 275.181 
L 266.341453 276.104789 
L 266.74931 274.537925 
L 267.157168 274.894694 
L 267.565025 275.722511 
L 267.972883 274.384105 
L 268.38074 274.918119 
L 268.788598 276.312389 
L 269.196455 274.318594 
L 269.604312 273.242235 
L 270.01217 274.628602 
L 270.420027 274.760937 
L 270.827885 290.037066 
L 271.235742 279.570261 
L 271.6436 276.593034 
L 272.051457 281.84383 
L 272.459315 280.492651 
L 272.867172 274.307366 
L 273.27503 275.483364 
L 273.682887 274.003323 
L 274.090745 274.07049 
L 274.498602 273.924415 
L 274.90646 276.672937 
L 275.314317 275.092738 
L 275.722175 274.220751 
L 276.130032 273.715372 
L 276.537889 275.168467 
L 276.945747 275.331688 
L 277.353604 276.064707 
L 277.761462 275.829958 
L 278.169319 271.392155 
L 278.577177 273.47902 
L 278.985034 272.327103 
L 279.392892 275.627677 
L 279.800749 273.573513 
L 280.208607 273.057755 
L 281.024322 274.354845 
L 281.432179 273.258958 
L 282.247894 275.792928 
L 282.655751 276.77255 
L 283.063609 277.442271 
L 283.879324 275.737828 
L 284.695039 277.775868 
L 285.102896 277.027345 
L 285.510754 276.647899 
L 285.918611 276.753684 
L 286.326469 272.412297 
L 286.734326 271.922069 
L 287.142184 271.86604 
L 287.550041 271.923095 
L 287.957899 271.813302 
L 288.365756 272.338113 
L 288.773614 271.019865 
L 289.181471 271.54241 
L 289.589328 268.657458 
L 289.997186 271.766593 
L 290.405043 270.507475 
L 290.812901 268.336265 
L 291.220758 270.769345 
L 291.628616 268.733705 
L 292.036473 270.075099 
L 292.444331 270.117918 
L 292.852188 271.426716 
L 293.260046 283.240051 
L 294.075761 271.191161 
L 294.483618 270.747092 
L 294.891476 270.481058 
L 295.299333 269.843365 
L 295.70719 272.255864 
L 296.115048 271.073346 
L 296.522905 271.830543 
L 296.930763 269.105182 
L 297.33862 270.846362 
L 298.154335 269.432548 
L 298.562193 270.51517 
L 298.97005 270.021255 
L 299.377908 269.333668 
L 299.785765 271.852016 
L 300.193623 268.675666 
L 300.60148 270.807782 
L 301.009338 269.039009 
L 301.417195 268.609546 
L 301.825053 268.709314 
L 302.640767 272.017914 
L 303.048625 270.013928 
L 303.456482 271.437063 
L 303.86434 271.784453 
L 304.272197 271.563782 
L 304.680055 272.41413 
L 305.087912 270.59502 
L 305.49577 272.277572 
L 305.903627 271.737397 
L 306.311485 271.948278 
L 306.719342 274.313052 
L 307.535057 269.051841 
L 307.942915 269.049538 
L 308.350772 269.202914 
L 308.75863 267.921467 
L 309.166487 268.676126 
L 309.574344 269.088375 
L 309.982202 266.598575 
L 310.390059 268.078077 
L 310.797917 267.699646 
L 311.613632 269.325704 
L 312.021489 265.808655 
L 312.837204 267.885388 
L 313.245062 267.847502 
L 313.652919 267.544309 
L 314.060777 269.33177 
L 314.468634 280.390157 
L 314.876492 280.154265 
L 315.284349 268.863898 
L 315.692206 267.406239 
L 316.100064 267.112612 
L 316.507921 267.442933 
L 316.915779 268.017745 
L 317.323636 269.460776 
L 317.731494 268.884094 
L 318.139351 269.513926 
L 318.547209 268.677563 
L 318.955066 268.17056 
L 319.362924 277.823411 
L 319.770781 282.574076 
L 320.178639 283.885958 
L 320.994354 281.596282 
L 321.810069 282.771494 
L 322.217926 282.760656 
L 322.625783 279.944736 
L 323.033641 279.982136 
L 323.441498 281.402454 
L 323.849356 276.727267 
L 324.257213 278.020017 
L 324.665071 277.60027 
L 325.072928 276.668635 
L 325.480786 280.412037 
L 325.888643 279.019792 
L 326.296501 279.54821 
L 326.704358 278.253162 
L 327.112216 277.62643 
L 327.520073 278.573992 
L 327.927931 277.922954 
L 328.335788 278.555586 
L 328.743646 277.998202 
L 329.151503 275.529267 
L 329.55936 275.619938 
L 329.967218 272.616701 
L 330.375075 274.696629 
L 330.782933 274.712085 
L 331.19079 273.014809 
L 331.598648 274.894598 
L 332.006505 276.033748 
L 332.414363 276.055162 
L 332.82222 275.560467 
L 333.230078 277.372811 
L 334.045793 274.519278 
L 334.45365 273.379354 
L 334.861508 275.520833 
L 335.269365 277.058112 
L 335.677222 280.607318 
L 336.08508 285.2465 
L 336.900795 275.6268 
L 337.308652 276.577327 
L 338.532225 275.764368 
L 338.940082 277.328502 
L 339.34794 276.898189 
L 339.755797 272.765155 
L 340.163655 272.62244 
L 340.571512 271.13053 
L 340.97937 275.843859 
L 341.387227 273.610859 
L 341.795085 274.377205 
L 342.202942 275.501508 
L 342.610799 273.402554 
L 343.018657 269.78997 
L 343.426514 276.463462 
L 343.834372 274.237398 
L 344.242229 276.709888 
L 344.650087 278.390794 
L 345.057944 271.882377 
L 345.465802 270.912706 
L 345.873659 272.691665 
L 346.281517 276.37892 
L 346.689374 278.198747 
L 347.097232 276.229926 
L 347.505089 276.52165 
L 347.912947 278.041346 
L 348.320804 276.167088 
L 349.136519 276.257888 
L 349.544376 278.347607 
L 349.952234 273.540186 
L 350.360091 271.706475 
L 350.767949 273.813798 
L 351.175806 271.107832 
L 351.583664 272.885279 
L 351.991521 270.596243 
L 352.807236 272.455874 
L 353.215094 272.379291 
L 353.622951 273.252368 
L 354.030809 270.733068 
L 354.438666 270.284997 
L 354.846524 271.546525 
L 355.254381 270.959026 
L 355.662238 269.120462 
L 356.070096 270.461273 
L 356.477953 270.443685 
L 356.885811 274.32434 
L 357.293668 283.747065 
L 357.701526 278.62806 
L 358.109383 277.177942 
L 358.517241 272.56081 
L 358.925098 270.621773 
L 359.332956 275.136615 
L 359.740813 270.448329 
L 360.148671 269.523968 
L 360.556528 272.916928 
L 360.964386 271.837341 
L 361.372243 271.810897 
L 361.780101 270.116795 
L 362.187958 266.778742 
L 362.595815 272.64059 
L 363.003673 272.699938 
L 363.41153 260.764166 
L 363.819388 272.011218 
L 364.227245 270.976977 
L 364.635103 276.186937 
L 365.450818 271.133661 
L 365.858675 274.331148 
L 366.266533 274.291189 
L 366.67439 272.046672 
L 367.082248 272.170082 
L 367.490105 276.849192 
L 367.897963 270.325164 
L 368.30582 272.879945 
L 368.713677 277.040267 
L 369.121535 278.973136 
L 369.529392 276.38265 
L 369.93725 277.968861 
L 370.752965 277.583409 
L 371.160822 276.277891 
L 371.56868 274.489366 
L 371.976537 271.598429 
L 372.384395 270.323882 
L 372.792252 270.864068 
L 373.20011 270.111638 
L 373.607967 268.106642 
L 374.015825 272.291548 
L 374.423682 272.643636 
L 374.83154 269.350144 
L 375.239397 268.820171 
L 375.647254 272.677278 
L 376.055112 268.624852 
L 376.462969 273.981422 
L 376.870827 268.894489 
L 377.278684 268.567225 
L 377.686542 270.650456 
L 378.094399 274.971294 
L 378.502257 280.893671 
L 379.317972 271.236261 
L 379.725829 269.892447 
L 380.133687 269.723091 
L 380.541544 273.287913 
L 381.357259 270.338856 
L 381.765116 273.137156 
L 382.172974 273.338048 
L 382.580831 268.618867 
L 382.988689 272.703348 
L 383.396546 274.740821 
L 383.804404 269.454427 
L 384.212261 274.975137 
L 385.027976 268.97041 
L 385.843691 274.662084 
L 386.251549 269.751785 
L 386.659406 268.451371 
L 387.067264 273.570194 
L 387.475121 273.034353 
L 387.882979 270.681442 
L 388.290836 275.320646 
L 388.698693 276.301845 
L 389.106551 274.874562 
L 389.514408 276.088452 
L 389.922266 275.854879 
L 390.330123 276.540062 
L 390.737981 274.979669 
L 391.145838 276.865311 
L 391.553696 274.500253 
L 391.961553 277.49658 
L 392.777268 268.06432 
L 393.185126 268.089412 
L 393.592983 271.314844 
L 394.000841 270.484072 
L 394.408698 266.972388 
L 394.816556 270.020245 
L 395.224413 269.097273 
L 395.63227 271.183091 
L 396.040128 267.674827 
L 396.855843 270.842333 
L 397.2637 268.548231 
L 397.671558 272.403575 
L 398.079415 268.400718 
L 398.487273 295.488 
L 398.487273 295.488 
" clip-path="url(#p429d04fad4)" style="fill: none; stroke: #2ca02c; stroke-width: 1.5; stroke-linecap: square"/>
   </g>
   <g id="patch_3">
    <path d="M 57.6 307.584 
L 57.6 41.472 
" style="fill: none; stroke: #000000; stroke-width: 0.8; stroke-linejoin: miter; stroke-linecap: square"/>
   </g>
   <g id="patch_4">
    <path d="M 414.72 307.584 
L 414.72 41.472 
" style="fill: none; stroke: #000000; stroke-width: 0.8; stroke-linejoin: miter; stroke-linecap: square"/>
   </g>
   <g id="patch_5">
    <path d="M 57.6 307.584 
L 414.72 307.584 
" style="fill: none; stroke: #000000; stroke-width: 0.8; stroke-linejoin: miter; stroke-linecap: square"/>
   </g>
   <g id="patch_6">
    <path d="M 57.6 41.472 
L 414.72 41.472 
" style="fill: none; stroke: #000000; stroke-width: 0.8; stroke-linejoin: miter; stroke-linecap: square"/>
   </g>
   <g id="legend_1">
    <g id="patch_7">
     <path d="M 64.6 93.506375 
L 186.25625 93.506375 
Q 188.25625 93.506375 188.25625 91.506375 
L 188.25625 48.472 
Q 188.25625 46.472 186.25625 46.472 
L 64.6 46.472 
Q 62.6 46.472 62.6 48.472 
L 62.6 91.506375 
Q 62.6 93.506375 64.6 93.506375 
z
" style="fill: #ffffff; opacity: 0.8; stroke: #cccccc; stroke-linejoin: miter"/>
    </g>
    <g id="line2d_18">
     <path d="M 66.6 54.570438 
L 76.6 54.570438 
L 86.6 54.570438 
" style="fill: none; stroke: #1f77b4; stroke-width: 1.5; stroke-linecap: square"/>
    </g>
    <g id="text_17">
     <!-- Weekly maximum -->
     <g transform="translate(94.6 58.070438) scale(0.1 -0.1)">
      <defs>
       <path id="DejaVuSans-57" d="M 213 4666 
L 850 4666 
L 1831 722 
L 2809 4666 
L 3519 4666 
L 4500 722 
L 5478 4666 
L 6119 4666 
L 4947 0 
L 4153 0 
L 3169 4050 
L 2175 0 
L 1381 0 
L 213 4666 
z
" transform="scale(0.015625)"/>
       <path id="DejaVuSans-6b" d="M 581 4863 
L 1159 4863 
L 1159 1991 
L 2875 3500 
L 3609 3500 
L 1753 1863 
L 3688 0 
L 2938 0 
L 1159 1709 
L 1159 0 
L 581 0 
L 581 4863 
z
" transform="scale(0.015625)"/>
       <path id="DejaVuSans-79" d="M 2059 -325 
Q 1816 -950 1584 -1140 
Q 1353 -1331 966 -1331 
L 506 -1331 
L 506 -850 
L 844 -850 
Q 1081 -850 1212 -737 
Q 1344 -625 1503 -206 
L 1606 56 
L 191 3500 
L 800 3500 
L 1894 763 
L 2988 3500 
L 3597 3500 
L 2059 -325 
z
" transform="scale(0.015625)"/>
       <path id="DejaVuSans-6d" d="M 3328 2828 
Q 3544 3216 3844 3400 
Q 4144 3584 4550 3584 
Q 5097 3584 5394 3201 
Q 5691 2819 5691 2113 
L 5691 0 
L 5113 0 
L 5113 2094 
Q 5113 2597 4934 2840 
Q 4756 3084 4391 3084 
Q 3944 3084 3684 2787 
Q 3425 2491 3425 1978 
L 3425 0 
L 2847 0 
L 2847 2094 
Q 2847 2600 2669 2842 
Q 2491 3084 2119 3084 
Q 1678 3084 1418 2786 
Q 1159 2488 1159 1978 
L 1159 0 
L 581 0 
L 581 3500 
L 1159 3500 
L 1159 2956 
Q 1356 3278 1631 3431 
Q 1906 3584 2284 3584 
Q 2666 3584 2933 3390 
Q 3200 3197 3328 2828 
z
" transform="scale(0.015625)"/>
       <path id="DejaVuSans-78" d="M 3513 3500 
L 2247 1797 
L 3578 0 
L 2900 0 
L 1881 1375 
L 863 0 
L 184 0 
L 1544 1831 
L 300 3500 
L 978 3500 
L 1906 2253 
L 2834 3500 
L 3513 3500 
z
" transform="scale(0.015625)"/>
       <path id="DejaVuSans-75" d="M 544 1381 
L 544 3500 
L 1119 3500 
L 1119 1403 
Q 1119 906 1312 657 
Q 1506 409 1894 409 
Q 2359 409 2629 706 
Q 2900 1003 2900 1516 
L 2900 3500 
L 3475 3500 
L 3475 0 
L 2900 0 
L 2900 538 
Q 2691 219 2414 64 
Q 2138 -91 1772 -91 
Q 1169 -91 856 284 
Q 544 659 544 1381 
z
M 1991 3584 
L 1991 3584 
z
" transform="scale(0.015625)"/>
      </defs>
      <use xlink:href="#DejaVuSans-57"/>
      <use xlink:href="#DejaVuSans-65" x="93.001953"/>
      <use xlink:href="#DejaVuSans-65" x="154.525391"/>
      <use xlink:href="#DejaVuSans-6b" x="216.048828"/>
      <use xlink:href="#DejaVuSans-6c" x="273.958984"/>
      <use xlink:href="#DejaVuSans-79" x="301.742188"/>
      <use xlink:href="#DejaVuSans-20" x="360.921875"/>
      <use xlink:href="#DejaVuSans-6d" x="392.708984"/>
      <use xlink:href="#DejaVuSans-61" x="490.121094"/>
      <use xlink:href="#DejaVuSans-78" x="551.400391"/>
      <use xlink:href="#DejaVuSans-69" x="610.580078"/>
      <use xlink:href="#DejaVuSans-6d" x="638.363281"/>
      <use xlink:href="#DejaVuSans-75" x="735.775391"/>
      <use xlink:href="#DejaVuSans-6d" x="799.154297"/>
     </g>
    </g>
    <g id="line2d_19">
     <path d="M 66.6 69.248563 
L 76.6 69.248563 
L 86.6 69.248563 
" style="fill: none; stroke: #ff7f0e; stroke-width: 1.5; stroke-linecap: square"/>
    </g>
    <g id="text_18">
     <!-- Weekly minimum -->
     <g transform="translate(94.6 72.748563) scale(0.1 -0.1)">
      <defs>
       <path id="DejaVuSans-6e" d="M 3513 2113 
L 3513 0 
L 2938 0 
L 2938 2094 
Q 2938 2591 2744 2837 
Q 2550 3084 2163 3084 
Q 1697 3084 1428 2787 
Q 1159 2491 1159 1978 
L 1159 0 
L 581 0 
L 581 3500 
L 1159 3500 
L 1159 2956 
Q 1366 3272 1645 3428 
Q 1925 3584 2291 3584 
Q 2894 3584 3203 3211 
Q 3513 2838 3513 2113 
z
" transform="scale(0.015625)"/>
      </defs>
      <use xlink:href="#DejaVuSans-57"/>
      <use xlink:href="#DejaVuSans-65" x="93.001953"/>
      <use xlink:href="#DejaVuSans-65" x="154.525391"/>
      <use xlink:href="#DejaVuSans-6b" x="216.048828"/>
      <use xlink:href="#DejaVuSans-6c" x="273.958984"/>
      <use xlink:href="#DejaVuSans-79" x="301.742188"/>
      <use xlink:href="#DejaVuSans-20" x="360.921875"/>
      <use xlink:href="#DejaVuSans-6d" x="392.708984"/>
      <use xlink:href="#DejaVuSans-69" x="490.121094"/>
      <use xlink:href="#DejaVuSans-6e" x="517.904297"/>
      <use xlink:href="#DejaVuSans-69" x="581.283203"/>
      <use xlink:href="#DejaVuSans-6d" x="609.066406"/>
      <use xlink:href="#DejaVuSans-75" x="706.478516"/>
      <use xlink:href="#DejaVuSans-6d" x="769.857422"/>
     </g>
    </g>
    <g id="line2d_20">
     <path d="M 66.6 83.926688 
L 76.6 83.926688 
L 86.6 83.926688 
" style="fill: none; stroke: #2ca02c; stroke-width: 1.5; stroke-linecap: square"/>
    </g>
    <g id="text_19">
     <!-- Weekly range -->
     <g transform="translate(94.6 87.426688) scale(0.1 -0.1)">
      <use xlink:href="#DejaVuSans-57"/>
      <use xlink:href="#DejaVuSans-65" x="93.001953"/>
      <use xlink:href="#DejaVuSans-65" x="154.525391"/>
      <use xlink:href="#DejaVuSans-6b" x="216.048828"/>
      <use xlink:href="#DejaVuSans-6c" x="273.958984"/>
      <use xlink:href="#DejaVuSans-79" x="301.742188"/>
      <use xlink:href="#DejaVuSans-20" x="360.921875"/>
      <use xlink:href="#DejaVuSans-72" x="392.708984"/>
      <use xlink:href="#DejaVuSans-61" x="433.822266"/>
      <use xlink:href="#DejaVuSans-6e" x="495.101562"/>
      <use xlink:href="#DejaVuSans-67" x="558.480469"/>
      <use xlink:href="#DejaVuSans-65" x="621.957031"/>
     </g>
    </g>
   </g>
  </g>
 </g>
 <defs>
  <clipPath id="p429d04fad4">
   <rect x="57.6" y="41.472" width="357.12" height="266.112"/>
  </clipPath>
 </defs>
</svg>
