<?xml version="1.0" encoding="utf-8" standalone="no"?>
<!DOCTYPE svg PUBLIC "-//W3C//DTD SVG 1.1//EN"
  "http://www.w3.org/Graphics/SVG/1.1/DTD/svg11.dtd">
<svg xmlns:xlink="http://www.w3.org/1999/xlink" width="460.8pt" height="345.6pt" viewBox="0 0 460.8 345.6" xmlns="http://www.w3.org/2000/svg" version="1.1">
 <metadata>
  <rdf:RDF xmlns:dc="http://purl.org/dc/elements/1.1/" xmlns:cc="http://creativecommons.org/ns#" xmlns:rdf="http://www.w3.org/1999/02/22-rdf-syntax-ns#">
   <cc:Work>
    <dc:type rdf:resource="http://purl.org/dc/dcmitype/StillImage"/>
    <dc:date>2025-12-02T05:40:32.318789</dc:date>
    <dc:format>image/svg+xml</dc:format>
    <dc:creator>
     <cc:Agent>
      <dc:title>Matplotlib v3.10.7, https://matplotlib.org/</dc:title>
     </cc:Agent>
    </dc:creator>
   </cc:Work>
  </rdf:RDF>
 </metadata>
 <defs>
  <style type="text/css">*{stroke-linejoin: round; stroke-linecap: butt}</style>
 </defs>
 <g id="figure_1">
  <g id="patch_1">
   <path d="M 0 345.6 
L 460.8 345.6 
L 460.8 0 
L 0 0 
z
" style="fill: #ffffff"/>
  </g>
  <g id="axes_1">
   <g id="patch_2">
    <path d="M 57.6 307.584 
L 414.72 307.584 
L 414.72 41.472 
L 57.6 41.472 
z
" style="fill: #ffffff"/>
   </g>
   <g id="matplotlib.axis_1">
    <g id="xtick_1">
     <g id="line2d_1">
      <defs>
       <path id="m1ce08ebdc7" d="M 0 0 
L 0 3.5 
" style="stroke: #000000; stroke-width: 0.8"/>
      </defs>
      <g>
       <use xlink:href="#m1ce08ebdc7" x="61.244819" y="307.584" style="stroke: #000000; stroke-width: 0.8"/>
      </g>
     </g>
     <g id="text_1">
      <!-- 2008 -->
      <g transform="translate(48.519819 322.182437) scale(0.1 -0.1)">
       <defs>
        <path id="DejaVuSans-32" d="M 1228 531 
L 3431 531 
L 3431 0 
L 469 0 
L 469 531 
Q 828 903 1448 1529 
Q 2069 2156 2228 2338 
Q 2531 2678 2651 2914 
Q 2772 3150 2772 3378 
Q 2772 3750 2511 3984 
Q 2250 4219 1831 4219 
Q 1534 4219 1204 4116 
Q 875 4013 500 3803 
L 500 4441 
Q 881 4594 1212 4672 
Q 1544 4750 1819 4750 
Q 2544 4750 2975 4387 
Q 3406 4025 3406 3419 
Q 3406 3131 3298 2873 
Q 3191 2616 2906 2266 
Q 2828 2175 2409 1742 
Q 1991 1309 1228 531 
z
" transform="scale(0.015625)"/>
        <path id="DejaVuSans-30" d="M 2034 4250 
Q 1547 4250 1301 3770 
Q 1056 3291 1056 2328 
Q 1056 1369 1301 889 
Q 1547 409 2034 409 
Q 2525 409 2770 889 
Q 3016 1369 3016 2328 
Q 3016 3291 2770 3770 
Q 2525 4250 2034 4250 
z
M 2034 4750 
Q 2819 4750 3233 4129 
Q 3647 3509 3647 2328 
Q 3647 1150 3233 529 
Q 2819 -91 2034 -91 
Q 1250 -91 836 529 
Q 422 1150 422 2328 
Q 422 3509 836 4129 
Q 1250 4750 2034 4750 
z
" transform="scale(0.015625)"/>
        <path id="DejaVuSans-38" d="M 2034 2216 
Q 1584 2216 1326 1975 
Q 1069 1734 1069 1313 
Q 1069 891 1326 650 
Q 1584 409 2034 409 
Q 2484 409 2743 651 
Q 3003 894 3003 1313 
Q 3003 1734 2745 1975 
Q 2488 2216 2034 2216 
z
M 1403 2484 
Q 997 2584 770 2862 
Q 544 3141 544 3541 
Q 544 4100 942 4425 
Q 1341 4750 2034 4750 
Q 2731 4750 3128 4425 
Q 3525 4100 3525 3541 
Q 3525 3141 3298 2862 
Q 3072 2584 2669 2484 
Q 3125 2378 3379 2068 
Q 3634 1759 3634 1313 
Q 3634 634 3220 271 
Q 2806 -91 2034 -91 
Q 1263 -91 848 271 
Q 434 634 434 1313 
Q 434 1759 690 2068 
Q 947 2378 1403 2484 
z
M 1172 3481 
Q 1172 3119 1398 2916 
Q 1625 2713 2034 2713 
Q 2441 2713 2670 2916 
Q 2900 3119 2900 3481 
Q 2900 3844 2670 4047 
Q 2441 4250 2034 4250 
Q 1625 4250 1398 4047 
Q 1172 3844 1172 3481 
z
" transform="scale(0.015625)"/>
       </defs>
       <use xlink:href="#DejaVuSans-32"/>
       <use xlink:href="#DejaVuSans-30" transform="translate(63.623047 0)"/>
       <use xlink:href="#DejaVuSans-30" transform="translate(127.246094 0)"/>
       <use xlink:href="#DejaVuSans-38" transform="translate(190.869141 0)"/>
      </g>
     </g>
    </g>
    <g id="xtick_2">
     <g id="line2d_2">
      <g>
       <use xlink:href="#m1ce08ebdc7" x="98.956955" y="307.584" style="stroke: #000000; stroke-width: 0.8"/>
      </g>
     </g>
     <g id="text_2">
      <!-- 2010 -->
      <g transform="translate(86.231955 322.182437) scale(0.1 -0.1)">
       <defs>
        <path id="DejaVuSans-31" d="M 794 531 
L 1825 531 
L 1825 4091 
L 703 3866 
L 703 4441 
L 1819 4666 
L 2450 4666 
L 2450 531 
L 3481 531 
L 3481 0 
L 794 0 
L 794 531 
z
" transform="scale(0.015625)"/>
       </defs>
       <use xlink:href="#DejaVuSans-32"/>
       <use xlink:href="#DejaVuSans-30" transform="translate(63.623047 0)"/>
       <use xlink:href="#DejaVuSans-31" transform="translate(127.246094 0)"/>
       <use xlink:href="#DejaVuSans-30" transform="translate(190.869141 0)"/>
      </g>
     </g>
    </g>
    <g id="xtick_3">
     <g id="line2d_3">
      <g>
       <use xlink:href="#m1ce08ebdc7" x="136.617501" y="307.584" style="stroke: #000000; stroke-width: 0.8"/>
      </g>
     </g>
     <g id="text_3">
      <!-- 2012 -->
      <g transform="translate(123.892501 322.182437) scale(0.1 -0.1)">
       <use xlink:href="#DejaVuSans-32"/>
       <use xlink:href="#DejaVuSans-30" transform="translate(63.623047 0)"/>
       <use xlink:href="#DejaVuSans-31" transform="translate(127.246094 0)"/>
       <use xlink:href="#DejaVuSans-32" transform="translate(190.869141 0)"/>
      </g>
     </g>
    </g>
    <g id="xtick_4">
     <g id="line2d_4">
      <g>
       <use xlink:href="#m1ce08ebdc7" x="174.329637" y="307.584" style="stroke: #000000; stroke-width: 0.8"/>
      </g>
     </g>
     <g id="text_4">
      <!-- 2014 -->
      <g transform="translate(161.604637 322.182437) scale(0.1 -0.1)">
       <defs>
        <path id="DejaVuSans-34" d="M 2419 4116 
L 825 1625 
L 2419 1625 
L 2419 4116 
z
M 2253 4666 
L 3047 4666 
L 3047 1625 
L 3713 1625 
L 3713 1100 
L 3047 1100 
L 3047 0 
L 2419 0 
L 2419 1100 
L 313 1100 
L 313 1709 
L 2253 4666 
z
" transform="scale(0.015625)"/>
       </defs>
       <use xlink:href="#DejaVuSans-32"/>
       <use xlink:href="#DejaVuSans-30" transform="translate(63.623047 0)"/>
       <use xlink:href="#DejaVuSans-31" transform="translate(127.246094 0)"/>
       <use xlink:href="#DejaVuSans-34" transform="translate(190.869141 0)"/>
      </g>
     </g>
    </g>
    <g id="xtick_5">
     <g id="line2d_5">
      <g>
       <use xlink:href="#m1ce08ebdc7" x="211.990184" y="307.584" style="stroke: #000000; stroke-width: 0.8"/>
      </g>
     </g>
     <g id="text_5">
      <!-- 2016 -->
      <g transform="translate(199.265184 322.182437) scale(0.1 -0.1)">
       <defs>
        <path id="DejaVuSans-36" d="M 2113 2584 
Q 1688 2584 1439 2293 
Q 1191 2003 1191 1497 
Q 1191 994 1439 701 
Q 1688 409 2113 409 
Q 2538 409 2786 701 
Q 3034 994 3034 1497 
Q 3034 2003 2786 2293 
Q 2538 2584 2113 2584 
z
M 3366 4563 
L 3366 3988 
Q 3128 4100 2886 4159 
Q 2644 4219 2406 4219 
Q 1781 4219 1451 3797 
Q 1122 3375 1075 2522 
Q 1259 2794 1537 2939 
Q 1816 3084 2150 3084 
Q 2853 3084 3261 2657 
Q 3669 2231 3669 1497 
Q 3669 778 3244 343 
Q 2819 -91 2113 -91 
Q 1303 -91 875 529 
Q 447 1150 447 2328 
Q 447 3434 972 4092 
Q 1497 4750 2381 4750 
Q 2619 4750 2861 4703 
Q 3103 4656 3366 4563 
z
" transform="scale(0.015625)"/>
       </defs>
       <use xlink:href="#DejaVuSans-32"/>
       <use xlink:href="#DejaVuSans-30" transform="translate(63.623047 0)"/>
       <use xlink:href="#DejaVuSans-31" transform="translate(127.246094 0)"/>
       <use xlink:href="#DejaVuSans-36" transform="translate(190.869141 0)"/>
      </g>
     </g>
    </g>
    <g id="xtick_6">
     <g id="line2d_6">
      <g>
       <use xlink:href="#m1ce08ebdc7" x="249.70232" y="307.584" style="stroke: #000000; stroke-width: 0.8"/>
      </g>
     </g>
     <g id="text_6">
      <!-- 2018 -->
      <g transform="translate(236.97732 322.182437) scale(0.1 -0.1)">
       <use xlink:href="#DejaVuSans-32"/>
       <use xlink:href="#DejaVuSans-30" transform="translate(63.623047 0)"/>
       <use xlink:href="#DejaVuSans-31" transform="translate(127.246094 0)"/>
       <use xlink:href="#DejaVuSans-38" transform="translate(190.869141 0)"/>
      </g>
     </g>
    </g>
    <g id="xtick_7">
     <g id="line2d_7">
      <g>
       <use xlink:href="#m1ce08ebdc7" x="287.362866" y="307.584" style="stroke: #000000; stroke-width: 0.8"/>
      </g>
     </g>
     <g id="text_7">
      <!-- 2020 -->
      <g transform="translate(274.637866 322.182437) scale(0.1 -0.1)">
       <use xlink:href="#DejaVuSans-32"/>
       <use xlink:href="#DejaVuSans-30" transform="translate(63.623047 0)"/>
       <use xlink:href="#DejaVuSans-32" transform="translate(127.246094 0)"/>
       <use xlink:href="#DejaVuSans-30" transform="translate(190.869141 0)"/>
      </g>
     </g>
    </g>
    <g id="xtick_8">
     <g id="line2d_8">
      <g>
       <use xlink:href="#m1ce08ebdc7" x="325.075002" y="307.584" style="stroke: #000000; stroke-width: 0.8"/>
      </g>
     </g>
     <g id="text_8">
      <!-- 2022 -->
      <g transform="translate(312.350002 322.182437) scale(0.1 -0.1)">
       <use xlink:href="#DejaVuSans-32"/>
       <use xlink:href="#DejaVuSans-30" transform="translate(63.623047 0)"/>
       <use xlink:href="#DejaVuSans-32" transform="translate(127.246094 0)"/>
       <use xlink:href="#DejaVuSans-32" transform="translate(190.869141 0)"/>
      </g>
     </g>
    </g>
    <g id="xtick_9">
     <g id="line2d_9">
      <g>
       <use xlink:href="#m1ce08ebdc7" x="362.735549" y="307.584" style="stroke: #000000; stroke-width: 0.8"/>
      </g>
     </g>
     <g id="text_9">
      <!-- 2024 -->
      <g transform="translate(350.010549 322.182437) scale(0.1 -0.1)">
       <use xlink:href="#DejaVuSans-32"/>
       <use xlink:href="#DejaVuSans-30" transform="translate(63.623047 0)"/>
       <use xlink:href="#DejaVuSans-32" transform="translate(127.246094 0)"/>
       <use xlink:href="#DejaVuSans-34" transform="translate(190.869141 0)"/>
      </g>
     </g>
    </g>
    <g id="xtick_10">
     <g id="line2d_10">
      <g>
       <use xlink:href="#m1ce08ebdc7" x="400.447685" y="307.584" style="stroke: #000000; stroke-width: 0.8"/>
      </g>
     </g>
     <g id="text_10">
      <!-- 2026 -->
      <g transform="translate(387.722685 322.182437) scale(0.1 -0.1)">
       <use xlink:href="#DejaVuSans-32"/>
       <use xlink:href="#DejaVuSans-30" transform="translate(63.623047 0)"/>
       <use xlink:href="#DejaVuSans-32" transform="translate(127.246094 0)"/>
       <use xlink:href="#DejaVuSans-36" transform="translate(190.869141 0)"/>
      </g>
     </g>
    </g>
    <g id="text_11">
     <!-- Updated 2025-12-02 05:40:32.316364 - Last record 2025-11-27 -->
     <g transform="translate(75.905312 335.860562) scale(0.1 -0.1)">
      <defs>
       <path id="DejaVuSans-55" d="M 556 4666 
L 1191 4666 
L 1191 1831 
Q 1191 1081 1462 751 
Q 1734 422 2344 422 
Q 2950 422 3222 751 
Q 3494 1081 3494 1831 
L 3494 4666 
L 4128 4666 
L 4128 1753 
Q 4128 841 3676 375 
Q 3225 -91 2344 -91 
Q 1459 -91 1007 375 
Q 556 841 556 1753 
L 556 4666 
z
" transform="scale(0.015625)"/>
       <path id="DejaVuSans-70" d="M 1159 525 
L 1159 -1331 
L 581 -1331 
L 581 3500 
L 1159 3500 
L 1159 2969 
Q 1341 3281 1617 3432 
Q 1894 3584 2278 3584 
Q 2916 3584 3314 3078 
Q 3713 2572 3713 1747 
Q 3713 922 3314 415 
Q 2916 -91 2278 -91 
Q 1894 -91 1617 61 
Q 1341 213 1159 525 
z
M 3116 1747 
Q 3116 2381 2855 2742 
Q 2594 3103 2138 3103 
Q 1681 3103 1420 2742 
Q 1159 2381 1159 1747 
Q 1159 1113 1420 752 
Q 1681 391 2138 391 
Q 2594 391 2855 752 
Q 3116 1113 3116 1747 
z
" transform="scale(0.015625)"/>
       <path id="DejaVuSans-64" d="M 2906 2969 
L 2906 4863 
L 3481 4863 
L 3481 0 
L 2906 0 
L 2906 525 
Q 2725 213 2448 61 
Q 2172 -91 1784 -91 
Q 1150 -91 751 415 
Q 353 922 353 1747 
Q 353 2572 751 3078 
Q 1150 3584 1784 3584 
Q 2172 3584 2448 3432 
Q 2725 3281 2906 2969 
z
M 947 1747 
Q 947 1113 1208 752 
Q 1469 391 1925 391 
Q 2381 391 2643 752 
Q 2906 1113 2906 1747 
Q 2906 2381 2643 2742 
Q 2381 3103 1925 3103 
Q 1469 3103 1208 2742 
Q 947 2381 947 1747 
z
" transform="scale(0.015625)"/>
       <path id="DejaVuSans-61" d="M 2194 1759 
Q 1497 1759 1228 1600 
Q 959 1441 959 1056 
Q 959 750 1161 570 
Q 1363 391 1709 391 
Q 2188 391 2477 730 
Q 2766 1069 2766 1631 
L 2766 1759 
L 2194 1759 
z
M 3341 1997 
L 3341 0 
L 2766 0 
L 2766 531 
Q 2569 213 2275 61 
Q 1981 -91 1556 -91 
Q 1019 -91 701 211 
Q 384 513 384 1019 
Q 384 1609 779 1909 
Q 1175 2209 1959 2209 
L 2766 2209 
L 2766 2266 
Q 2766 2663 2505 2880 
Q 2244 3097 1772 3097 
Q 1472 3097 1187 3025 
Q 903 2953 641 2809 
L 641 3341 
Q 956 3463 1253 3523 
Q 1550 3584 1831 3584 
Q 2591 3584 2966 3190 
Q 3341 2797 3341 1997 
z
" transform="scale(0.015625)"/>
       <path id="DejaVuSans-74" d="M 1172 4494 
L 1172 3500 
L 2356 3500 
L 2356 3053 
L 1172 3053 
L 1172 1153 
Q 1172 725 1289 603 
Q 1406 481 1766 481 
L 2356 481 
L 2356 0 
L 1766 0 
Q 1100 0 847 248 
Q 594 497 594 1153 
L 594 3053 
L 172 3053 
L 172 3500 
L 594 3500 
L 594 4494 
L 1172 4494 
z
" transform="scale(0.015625)"/>
       <path id="DejaVuSans-65" d="M 3597 1894 
L 3597 1613 
L 953 1613 
Q 991 1019 1311 708 
Q 1631 397 2203 397 
Q 2534 397 2845 478 
Q 3156 559 3463 722 
L 3463 178 
Q 3153 47 2828 -22 
Q 2503 -91 2169 -91 
Q 1331 -91 842 396 
Q 353 884 353 1716 
Q 353 2575 817 3079 
Q 1281 3584 2069 3584 
Q 2775 3584 3186 3129 
Q 3597 2675 3597 1894 
z
M 3022 2063 
Q 3016 2534 2758 2815 
Q 2500 3097 2075 3097 
Q 1594 3097 1305 2825 
Q 1016 2553 972 2059 
L 3022 2063 
z
" transform="scale(0.015625)"/>
       <path id="DejaVuSans-20" transform="scale(0.015625)"/>
       <path id="DejaVuSans-35" d="M 691 4666 
L 3169 4666 
L 3169 4134 
L 1269 4134 
L 1269 2991 
Q 1406 3038 1543 3061 
Q 1681 3084 1819 3084 
Q 2600 3084 3056 2656 
Q 3513 2228 3513 1497 
Q 3513 744 3044 326 
Q 2575 -91 1722 -91 
Q 1428 -91 1123 -41 
Q 819 9 494 109 
L 494 744 
Q 775 591 1075 516 
Q 1375 441 1709 441 
Q 2250 441 2565 725 
Q 2881 1009 2881 1497 
Q 2881 1984 2565 2268 
Q 2250 2553 1709 2553 
Q 1456 2553 1204 2497 
Q 953 2441 691 2322 
L 691 4666 
z
" transform="scale(0.015625)"/>
       <path id="DejaVuSans-2d" d="M 313 2009 
L 1997 2009 
L 1997 1497 
L 313 1497 
L 313 2009 
z
" transform="scale(0.015625)"/>
       <path id="DejaVuSans-3a" d="M 750 794 
L 1409 794 
L 1409 0 
L 750 0 
L 750 794 
z
M 750 3309 
L 1409 3309 
L 1409 2516 
L 750 2516 
L 750 3309 
z
" transform="scale(0.015625)"/>
       <path id="DejaVuSans-33" d="M 2597 2516 
Q 3050 2419 3304 2112 
Q 3559 1806 3559 1356 
Q 3559 666 3084 287 
Q 2609 -91 1734 -91 
Q 1441 -91 1130 -33 
Q 819 25 488 141 
L 488 750 
Q 750 597 1062 519 
Q 1375 441 1716 441 
Q 2309 441 2620 675 
Q 2931 909 2931 1356 
Q 2931 1769 2642 2001 
Q 2353 2234 1838 2234 
L 1294 2234 
L 1294 2753 
L 1863 2753 
Q 2328 2753 2575 2939 
Q 2822 3125 2822 3475 
Q 2822 3834 2567 4026 
Q 2313 4219 1838 4219 
Q 1578 4219 1281 4162 
Q 984 4106 628 3988 
L 628 4550 
Q 988 4650 1302 4700 
Q 1616 4750 1894 4750 
Q 2613 4750 3031 4423 
Q 3450 4097 3450 3541 
Q 3450 3153 3228 2886 
Q 3006 2619 2597 2516 
z
" transform="scale(0.015625)"/>
       <path id="DejaVuSans-2e" d="M 684 794 
L 1344 794 
L 1344 0 
L 684 0 
L 684 794 
z
" transform="scale(0.015625)"/>
       <path id="DejaVuSans-4c" d="M 628 4666 
L 1259 4666 
L 1259 531 
L 3531 531 
L 3531 0 
L 628 0 
L 628 4666 
z
" transform="scale(0.015625)"/>
       <path id="DejaVuSans-73" d="M 2834 3397 
L 2834 2853 
Q 2591 2978 2328 3040 
Q 2066 3103 1784 3103 
Q 1356 3103 1142 2972 
Q 928 2841 928 2578 
Q 928 2378 1081 2264 
Q 1234 2150 1697 2047 
L 1894 2003 
Q 2506 1872 2764 1633 
Q 3022 1394 3022 966 
Q 3022 478 2636 193 
Q 2250 -91 1575 -91 
Q 1294 -91 989 -36 
Q 684 19 347 128 
L 347 722 
Q 666 556 975 473 
Q 1284 391 1588 391 
Q 1994 391 2212 530 
Q 2431 669 2431 922 
Q 2431 1156 2273 1281 
Q 2116 1406 1581 1522 
L 1381 1569 
Q 847 1681 609 1914 
Q 372 2147 372 2553 
Q 372 3047 722 3315 
Q 1072 3584 1716 3584 
Q 2034 3584 2315 3537 
Q 2597 3491 2834 3397 
z
" transform="scale(0.015625)"/>
       <path id="DejaVuSans-72" d="M 2631 2963 
Q 2534 3019 2420 3045 
Q 2306 3072 2169 3072 
Q 1681 3072 1420 2755 
Q 1159 2438 1159 1844 
L 1159 0 
L 581 0 
L 581 3500 
L 1159 3500 
L 1159 2956 
Q 1341 3275 1631 3429 
Q 1922 3584 2338 3584 
Q 2397 3584 2469 3576 
Q 2541 3569 2628 3553 
L 2631 2963 
z
" transform="scale(0.015625)"/>
       <path id="DejaVuSans-63" d="M 3122 3366 
L 3122 2828 
Q 2878 2963 2633 3030 
Q 2388 3097 2138 3097 
Q 1578 3097 1268 2742 
Q 959 2388 959 1747 
Q 959 1106 1268 751 
Q 1578 397 2138 397 
Q 2388 397 2633 464 
Q 2878 531 3122 666 
L 3122 134 
Q 2881 22 2623 -34 
Q 2366 -91 2075 -91 
Q 1284 -91 818 406 
Q 353 903 353 1747 
Q 353 2603 823 3093 
Q 1294 3584 2113 3584 
Q 2378 3584 2631 3529 
Q 2884 3475 3122 3366 
z
" transform="scale(0.015625)"/>
       <path id="DejaVuSans-6f" d="M 1959 3097 
Q 1497 3097 1228 2736 
Q 959 2375 959 1747 
Q 959 1119 1226 758 
Q 1494 397 1959 397 
Q 2419 397 2687 759 
Q 2956 1122 2956 1747 
Q 2956 2369 2687 2733 
Q 2419 3097 1959 3097 
z
M 1959 3584 
Q 2709 3584 3137 3096 
Q 3566 2609 3566 1747 
Q 3566 888 3137 398 
Q 2709 -91 1959 -91 
Q 1206 -91 779 398 
Q 353 888 353 1747 
Q 353 2609 779 3096 
Q 1206 3584 1959 3584 
z
" transform="scale(0.015625)"/>
       <path id="DejaVuSans-37" d="M 525 4666 
L 3525 4666 
L 3525 4397 
L 1831 0 
L 1172 0 
L 2766 4134 
L 525 4134 
L 525 4666 
z
" transform="scale(0.015625)"/>
      </defs>
      <use xlink:href="#DejaVuSans-55"/>
      <use xlink:href="#DejaVuSans-70" transform="translate(73.193359 0)"/>
      <use xlink:href="#DejaVuSans-64" transform="translate(136.669922 0)"/>
      <use xlink:href="#DejaVuSans-61" transform="translate(200.146484 0)"/>
      <use xlink:href="#DejaVuSans-74" transform="translate(261.425781 0)"/>
      <use xlink:href="#DejaVuSans-65" transform="translate(300.634766 0)"/>
      <use xlink:href="#DejaVuSans-64" transform="translate(362.158203 0)"/>
      <use xlink:href="#DejaVuSans-20" transform="translate(425.634766 0)"/>
      <use xlink:href="#DejaVuSans-32" transform="translate(457.421875 0)"/>
      <use xlink:href="#DejaVuSans-30" transform="translate(521.044922 0)"/>
      <use xlink:href="#DejaVuSans-32" transform="translate(584.667969 0)"/>
      <use xlink:href="#DejaVuSans-35" transform="translate(648.291016 0)"/>
      <use xlink:href="#DejaVuSans-2d" transform="translate(711.914062 0)"/>
      <use xlink:href="#DejaVuSans-31" transform="translate(747.998047 0)"/>
      <use xlink:href="#DejaVuSans-32" transform="translate(811.621094 0)"/>
      <use xlink:href="#DejaVuSans-2d" transform="translate(875.244141 0)"/>
      <use xlink:href="#DejaVuSans-30" transform="translate(911.328125 0)"/>
      <use xlink:href="#DejaVuSans-32" transform="translate(974.951172 0)"/>
      <use xlink:href="#DejaVuSans-20" transform="translate(1038.574219 0)"/>
      <use xlink:href="#DejaVuSans-30" transform="translate(1070.361328 0)"/>
      <use xlink:href="#DejaVuSans-35" transform="translate(1133.984375 0)"/>
      <use xlink:href="#DejaVuSans-3a" transform="translate(1197.607422 0)"/>
      <use xlink:href="#DejaVuSans-34" transform="translate(1231.298828 0)"/>
      <use xlink:href="#DejaVuSans-30" transform="translate(1294.921875 0)"/>
      <use xlink:href="#DejaVuSans-3a" transform="translate(1358.544922 0)"/>
      <use xlink:href="#DejaVuSans-33" transform="translate(1392.236328 0)"/>
      <use xlink:href="#DejaVuSans-32" transform="translate(1455.859375 0)"/>
      <use xlink:href="#DejaVuSans-2e" transform="translate(1519.482422 0)"/>
      <use xlink:href="#DejaVuSans-33" transform="translate(1551.269531 0)"/>
      <use xlink:href="#DejaVuSans-31" transform="translate(1614.892578 0)"/>
      <use xlink:href="#DejaVuSans-36" transform="translate(1678.515625 0)"/>
      <use xlink:href="#DejaVuSans-33" transform="translate(1742.138672 0)"/>
      <use xlink:href="#DejaVuSans-36" transform="translate(1805.761719 0)"/>
      <use xlink:href="#DejaVuSans-34" transform="translate(1869.384766 0)"/>
      <use xlink:href="#DejaVuSans-20" transform="translate(1933.007812 0)"/>
      <use xlink:href="#DejaVuSans-2d" transform="translate(1964.794922 0)"/>
      <use xlink:href="#DejaVuSans-20" transform="translate(2000.878906 0)"/>
      <use xlink:href="#DejaVuSans-4c" transform="translate(2032.666016 0)"/>
      <use xlink:href="#DejaVuSans-61" transform="translate(2088.378906 0)"/>
      <use xlink:href="#DejaVuSans-73" transform="translate(2149.658203 0)"/>
      <use xlink:href="#DejaVuSans-74" transform="translate(2201.757812 0)"/>
      <use xlink:href="#DejaVuSans-20" transform="translate(2240.966797 0)"/>
      <use xlink:href="#DejaVuSans-72" transform="translate(2272.753906 0)"/>
      <use xlink:href="#DejaVuSans-65" transform="translate(2311.617188 0)"/>
      <use xlink:href="#DejaVuSans-63" transform="translate(2373.140625 0)"/>
      <use xlink:href="#DejaVuSans-6f" transform="translate(2428.121094 0)"/>
      <use xlink:href="#DejaVuSans-72" transform="translate(2489.302734 0)"/>
      <use xlink:href="#DejaVuSans-64" transform="translate(2528.666016 0)"/>
      <use xlink:href="#DejaVuSans-20" transform="translate(2592.142578 0)"/>
      <use xlink:href="#DejaVuSans-32" transform="translate(2623.929688 0)"/>
      <use xlink:href="#DejaVuSans-30" transform="translate(2687.552734 0)"/>
      <use xlink:href="#DejaVuSans-32" transform="translate(2751.175781 0)"/>
      <use xlink:href="#DejaVuSans-35" transform="translate(2814.798828 0)"/>
      <use xlink:href="#DejaVuSans-2d" transform="translate(2878.421875 0)"/>
      <use xlink:href="#DejaVuSans-31" transform="translate(2914.505859 0)"/>
      <use xlink:href="#DejaVuSans-31" transform="translate(2978.128906 0)"/>
      <use xlink:href="#DejaVuSans-2d" transform="translate(3041.751953 0)"/>
      <use xlink:href="#DejaVuSans-32" transform="translate(3077.835938 0)"/>
      <use xlink:href="#DejaVuSans-37" transform="translate(3141.458984 0)"/>
     </g>
    </g>
   </g>
   <g id="matplotlib.axis_2">
    <g id="ytick_1">
     <g id="line2d_11">
      <defs>
       <path id="m96e40448ff" d="M 0 0 
L -3.5 0 
" style="stroke: #000000; stroke-width: 0.8"/>
      </defs>
      <g>
       <use xlink:href="#m96e40448ff" x="57.6" y="295.488" style="stroke: #000000; stroke-width: 0.8"/>
      </g>
     </g>
     <g id="text_12">
      <!-- 0 -->
      <g transform="translate(44.2375 299.287219) scale(0.1 -0.1)">
       <use xlink:href="#DejaVuSans-30"/>
      </g>
     </g>
    </g>
    <g id="ytick_2">
     <g id="line2d_12">
      <g>
       <use xlink:href="#m96e40448ff" x="57.6" y="246.945852" style="stroke: #000000; stroke-width: 0.8"/>
      </g>
     </g>
     <g id="text_13">
      <!-- 10 -->
      <g transform="translate(37.875 250.74507) scale(0.1 -0.1)">
       <use xlink:href="#DejaVuSans-31"/>
       <use xlink:href="#DejaVuSans-30" transform="translate(63.623047 0)"/>
      </g>
     </g>
    </g>
    <g id="ytick_3">
     <g id="line2d_13">
      <g>
       <use xlink:href="#m96e40448ff" x="57.6" y="198.403703" style="stroke: #000000; stroke-width: 0.8"/>
      </g>
     </g>
     <g id="text_14">
      <!-- 20 -->
      <g transform="translate(37.875 202.202922) scale(0.1 -0.1)">
       <use xlink:href="#DejaVuSans-32"/>
       <use xlink:href="#DejaVuSans-30" transform="translate(63.623047 0)"/>
      </g>
     </g>
    </g>
    <g id="ytick_4">
     <g id="line2d_14">
      <g>
       <use xlink:href="#m96e40448ff" x="57.6" y="149.861555" style="stroke: #000000; stroke-width: 0.8"/>
      </g>
     </g>
     <g id="text_15">
      <!-- 30 -->
      <g transform="translate(37.875 153.660774) scale(0.1 -0.1)">
       <use xlink:href="#DejaVuSans-33"/>
       <use xlink:href="#DejaVuSans-30" transform="translate(63.623047 0)"/>
      </g>
     </g>
    </g>
    <g id="ytick_5">
     <g id="line2d_15">
      <g>
       <use xlink:href="#m96e40448ff" x="57.6" y="101.319406" style="stroke: #000000; stroke-width: 0.8"/>
      </g>
     </g>
     <g id="text_16">
      <!-- 40 -->
      <g transform="translate(37.875 105.118625) scale(0.1 -0.1)">
       <use xlink:href="#DejaVuSans-34"/>
       <use xlink:href="#DejaVuSans-30" transform="translate(63.623047 0)"/>
      </g>
     </g>
    </g>
    <g id="ytick_6">
     <g id="line2d_16">
      <g>
       <use xlink:href="#m96e40448ff" x="57.6" y="52.777258" style="stroke: #000000; stroke-width: 0.8"/>
      </g>
     </g>
     <g id="text_17">
      <!-- 50 -->
      <g transform="translate(37.875 56.576477) scale(0.1 -0.1)">
       <use xlink:href="#DejaVuSans-35"/>
       <use xlink:href="#DejaVuSans-30" transform="translate(63.623047 0)"/>
      </g>
     </g>
    </g>
    <g id="text_18">
     <!-- IPv6 as % of total Google traffic -->
     <g transform="translate(31.795312 253.735813) rotate(-90) scale(0.1 -0.1)">
      <defs>
       <path id="DejaVuSans-49" d="M 628 4666 
L 1259 4666 
L 1259 0 
L 628 0 
L 628 4666 
z
" transform="scale(0.015625)"/>
       <path id="DejaVuSans-50" d="M 1259 4147 
L 1259 2394 
L 2053 2394 
Q 2494 2394 2734 2622 
Q 2975 2850 2975 3272 
Q 2975 3691 2734 3919 
Q 2494 4147 2053 4147 
L 1259 4147 
z
M 628 4666 
L 2053 4666 
Q 2838 4666 3239 4311 
Q 3641 3956 3641 3272 
Q 3641 2581 3239 2228 
Q 2838 1875 2053 1875 
L 1259 1875 
L 1259 0 
L 628 0 
L 628 4666 
z
" transform="scale(0.015625)"/>
       <path id="DejaVuSans-76" d="M 191 3500 
L 800 3500 
L 1894 563 
L 2988 3500 
L 3597 3500 
L 2284 0 
L 1503 0 
L 191 3500 
z
" transform="scale(0.015625)"/>
       <path id="DejaVuSans-25" d="M 4653 2053 
Q 4381 2053 4226 1822 
Q 4072 1591 4072 1178 
Q 4072 772 4226 539 
Q 4381 306 4653 306 
Q 4919 306 5073 539 
Q 5228 772 5228 1178 
Q 5228 1588 5073 1820 
Q 4919 2053 4653 2053 
z
M 4653 2450 
Q 5147 2450 5437 2106 
Q 5728 1763 5728 1178 
Q 5728 594 5436 251 
Q 5144 -91 4653 -91 
Q 4153 -91 3862 251 
Q 3572 594 3572 1178 
Q 3572 1766 3864 2108 
Q 4156 2450 4653 2450 
z
M 1428 4353 
Q 1159 4353 1004 4120 
Q 850 3888 850 3481 
Q 850 3069 1003 2837 
Q 1156 2606 1428 2606 
Q 1700 2606 1854 2837 
Q 2009 3069 2009 3481 
Q 2009 3884 1853 4118 
Q 1697 4353 1428 4353 
z
M 4250 4750 
L 4750 4750 
L 1831 -91 
L 1331 -91 
L 4250 4750 
z
M 1428 4750 
Q 1922 4750 2215 4408 
Q 2509 4066 2509 3481 
Q 2509 2891 2217 2550 
Q 1925 2209 1428 2209 
Q 931 2209 642 2551 
Q 353 2894 353 3481 
Q 353 4063 643 4406 
Q 934 4750 1428 4750 
z
" transform="scale(0.015625)"/>
       <path id="DejaVuSans-66" d="M 2375 4863 
L 2375 4384 
L 1825 4384 
Q 1516 4384 1395 4259 
Q 1275 4134 1275 3809 
L 1275 3500 
L 2222 3500 
L 2222 3053 
L 1275 3053 
L 1275 0 
L 697 0 
L 697 3053 
L 147 3053 
L 147 3500 
L 697 3500 
L 697 3744 
Q 697 4328 969 4595 
Q 1241 4863 1831 4863 
L 2375 4863 
z
" transform="scale(0.015625)"/>
       <path id="DejaVuSans-6c" d="M 603 4863 
L 1178 4863 
L 1178 0 
L 603 0 
L 603 4863 
z
" transform="scale(0.015625)"/>
       <path id="DejaVuSans-47" d="M 3809 666 
L 3809 1919 
L 2778 1919 
L 2778 2438 
L 4434 2438 
L 4434 434 
Q 4069 175 3628 42 
Q 3188 -91 2688 -91 
Q 1594 -91 976 548 
Q 359 1188 359 2328 
Q 359 3472 976 4111 
Q 1594 4750 2688 4750 
Q 3144 4750 3555 4637 
Q 3966 4525 4313 4306 
L 4313 3634 
Q 3963 3931 3569 4081 
Q 3175 4231 2741 4231 
Q 1884 4231 1454 3753 
Q 1025 3275 1025 2328 
Q 1025 1384 1454 906 
Q 1884 428 2741 428 
Q 3075 428 3337 486 
Q 3600 544 3809 666 
z
" transform="scale(0.015625)"/>
       <path id="DejaVuSans-67" d="M 2906 1791 
Q 2906 2416 2648 2759 
Q 2391 3103 1925 3103 
Q 1463 3103 1205 2759 
Q 947 2416 947 1791 
Q 947 1169 1205 825 
Q 1463 481 1925 481 
Q 2391 481 2648 825 
Q 2906 1169 2906 1791 
z
M 3481 434 
Q 3481 -459 3084 -895 
Q 2688 -1331 1869 -1331 
Q 1566 -1331 1297 -1286 
Q 1028 -1241 775 -1147 
L 775 -588 
Q 1028 -725 1275 -790 
Q 1522 -856 1778 -856 
Q 2344 -856 2625 -561 
Q 2906 -266 2906 331 
L 2906 616 
Q 2728 306 2450 153 
Q 2172 0 1784 0 
Q 1141 0 747 490 
Q 353 981 353 1791 
Q 353 2603 747 3093 
Q 1141 3584 1784 3584 
Q 2172 3584 2450 3431 
Q 2728 3278 2906 2969 
L 2906 3500 
L 3481 3500 
L 3481 434 
z
" transform="scale(0.015625)"/>
       <path id="DejaVuSans-69" d="M 603 3500 
L 1178 3500 
L 1178 0 
L 603 0 
L 603 3500 
z
M 603 4863 
L 1178 4863 
L 1178 4134 
L 603 4134 
L 603 4863 
z
" transform="scale(0.015625)"/>
      </defs>
      <use xlink:href="#DejaVuSans-49"/>
      <use xlink:href="#DejaVuSans-50" transform="translate(29.492188 0)"/>
      <use xlink:href="#DejaVuSans-76" transform="translate(89.794922 0)"/>
      <use xlink:href="#DejaVuSans-36" transform="translate(148.974609 0)"/>
      <use xlink:href="#DejaVuSans-20" transform="translate(212.597656 0)"/>
      <use xlink:href="#DejaVuSans-61" transform="translate(244.384766 0)"/>
      <use xlink:href="#DejaVuSans-73" transform="translate(305.664062 0)"/>
      <use xlink:href="#DejaVuSans-20" transform="translate(357.763672 0)"/>
      <use xlink:href="#DejaVuSans-25" transform="translate(389.550781 0)"/>
      <use xlink:href="#DejaVuSans-20" transform="translate(484.570312 0)"/>
      <use xlink:href="#DejaVuSans-6f" transform="translate(516.357422 0)"/>
      <use xlink:href="#DejaVuSans-66" transform="translate(577.539062 0)"/>
      <use xlink:href="#DejaVuSans-20" transform="translate(612.744141 0)"/>
      <use xlink:href="#DejaVuSans-74" transform="translate(644.53125 0)"/>
      <use xlink:href="#DejaVuSans-6f" transform="translate(683.740234 0)"/>
      <use xlink:href="#DejaVuSans-74" transform="translate(744.921875 0)"/>
      <use xlink:href="#DejaVuSans-61" transform="translate(784.130859 0)"/>
      <use xlink:href="#DejaVuSans-6c" transform="translate(845.410156 0)"/>
      <use xlink:href="#DejaVuSans-20" transform="translate(873.193359 0)"/>
      <use xlink:href="#DejaVuSans-47" transform="translate(904.980469 0)"/>
      <use xlink:href="#DejaVuSans-6f" transform="translate(982.470703 0)"/>
      <use xlink:href="#DejaVuSans-6f" transform="translate(1043.652344 0)"/>
      <use xlink:href="#DejaVuSans-67" transform="translate(1104.833984 0)"/>
      <use xlink:href="#DejaVuSans-6c" transform="translate(1168.310547 0)"/>
      <use xlink:href="#DejaVuSans-65" transform="translate(1196.09375 0)"/>
      <use xlink:href="#DejaVuSans-20" transform="translate(1257.617188 0)"/>
      <use xlink:href="#DejaVuSans-74" transform="translate(1289.404297 0)"/>
      <use xlink:href="#DejaVuSans-72" transform="translate(1328.613281 0)"/>
      <use xlink:href="#DejaVuSans-61" transform="translate(1369.726562 0)"/>
      <use xlink:href="#DejaVuSans-66" transform="translate(1431.005859 0)"/>
      <use xlink:href="#DejaVuSans-66" transform="translate(1466.210938 0)"/>
      <use xlink:href="#DejaVuSans-69" transform="translate(1501.416016 0)"/>
      <use xlink:href="#DejaVuSans-63" transform="translate(1529.199219 0)"/>
     </g>
    </g>
   </g>
   <g id="line2d_17">
    <path d="M 73.832727 294.603596 
L 75.277241 294.453703 
L 75.63837 294.596436 
L 77.444013 294.569612 
L 78.527398 294.465702 
L 78.888527 294.350648 
L 79.971912 294.369735 
L 83.222069 294.300848 
L 84.305455 294.326076 
L 85.749969 294.257544 
L 88.638997 294.316964 
L 89.361254 294.392025 
L 91.889154 294.34309 
L 93.333668 294.255961 
L 94.055925 294.263917 
L 94.417053 294.027595 
L 96.583824 293.94653 
L 97.66721 293.949923 
L 98.750596 294.036231 
L 99.833981 293.993246 
L 100.917367 294.036483 
L 102.723009 294.006746 
L 103.806395 294.178906 
L 104.889781 294.131325 
L 105.612038 294.207657 
L 106.334295 294.28064 
L 106.695423 294.207832 
L 108.862194 294.406753 
L 110.667837 294.327993 
L 111.751223 294.153974 
L 112.47348 294.150101 
L 115.362508 294.152707 
L 115.723636 294.175299 
L 116.084765 294.059327 
L 118.251536 294.274437 
L 121.140564 294.119471 
L 121.501693 294.124655 
L 121.862821 294.01427 
L 122.585078 294.106602 
L 123.307335 293.935219 
L 123.668464 293.977825 
L 124.029592 293.87261 
L 124.390721 293.918676 
L 125.112978 293.820771 
L 126.196364 293.806835 
L 126.557492 293.927632 
L 128.002006 293.954918 
L 128.724263 293.967888 
L 129.085392 293.933583 
L 129.807649 293.728488 
L 130.168777 293.614254 
L 132.696677 293.75088 
L 135.224577 293.309191 
L 135.946834 293.443249 
L 138.835862 293.016525 
L 139.196991 293.113721 
L 141.363762 292.648847 
L 142.086019 292.664056 
L 143.169404 292.349507 
L 144.975047 291.912982 
L 146.058433 291.800763 
L 146.419561 291.89243 
L 148.225204 291.547645 
L 149.308589 291.206976 
L 149.669718 291.258518 
L 150.030846 290.952693 
L 150.753103 290.769659 
L 151.114232 290.817216 
L 151.836489 290.62729 
L 152.197618 290.770737 
L 152.919875 290.59749 
L 153.281003 290.554516 
L 154.00326 290.238696 
L 154.725517 290.182241 
L 155.086646 290.213541 
L 155.447774 290.123034 
L 155.808903 290.167086 
L 156.53116 289.976932 
L 157.614545 289.83682 
L 157.975674 289.653627 
L 158.336803 289.635958 
L 158.697931 289.730683 
L 160.142445 289.045826 
L 160.503574 289.061515 
L 161.948088 288.630868 
L 162.309216 288.342266 
L 163.75373 288.001587 
L 164.475987 287.687961 
L 164.837116 287.765512 
L 165.198245 287.54964 
L 165.559373 287.5117 
L 167.365016 286.497533 
L 168.448401 285.958982 
L 169.170658 285.212661 
L 169.892915 284.311617 
L 170.254044 284.524479 
L 170.615172 284.561303 
L 171.698558 283.291644 
L 172.059687 283.139402 
L 172.420815 282.497641 
L 173.504201 282.11558 
L 173.865329 281.870282 
L 174.226458 281.9148 
L 175.309843 281.213992 
L 175.670972 281.065142 
L 176.0321 280.789869 
L 176.754357 280.724643 
L 177.115486 280.101052 
L 177.476614 280.092833 
L 177.837743 279.407239 
L 178.198871 279.052172 
L 178.921129 279.154082 
L 179.282257 278.900245 
L 179.643386 278.509233 
L 180.365643 278.054063 
L 180.726771 277.647154 
L 181.0879 277.896631 
L 182.532414 277.098263 
L 182.893542 276.803064 
L 183.254671 275.589981 
L 183.615799 275.820095 
L 184.338056 274.996354 
L 184.699185 274.960987 
L 185.060313 275.317097 
L 186.143699 274.506802 
L 186.504828 273.957091 
L 187.227085 273.999473 
L 187.588213 273.404672 
L 187.949342 273.363731 
L 188.31047 270.212603 
L 188.671599 272.285882 
L 189.032727 273.520969 
L 189.393856 272.920828 
L 189.754984 272.585455 
L 190.116113 272.531408 
L 190.477241 271.742098 
L 190.83837 271.494776 
L 191.921755 269.781602 
L 192.282884 268.663002 
L 192.644013 268.024537 
L 193.005141 267.157725 
L 193.36627 266.585422 
L 193.727398 267.499413 
L 194.088527 267.359539 
L 194.449655 267.384844 
L 194.810784 267.532494 
L 195.171912 267.808194 
L 195.533041 267.703008 
L 195.894169 265.68733 
L 196.255298 265.985475 
L 197.338683 264.923344 
L 197.699812 264.780387 
L 198.422069 264.84324 
L 198.783197 263.31956 
L 199.144326 263.264067 
L 199.866583 262.061614 
L 200.227712 262.471577 
L 200.58884 260.594787 
L 200.949969 261.038395 
L 201.311097 259.771449 
L 201.672226 259.16477 
L 202.033354 258.253818 
L 202.394483 258.886419 
L 202.755611 257.928153 
L 203.11674 256.333961 
L 203.477868 257.137285 
L 203.838997 257.366293 
L 204.200125 256.871444 
L 204.561254 255.413772 
L 204.922382 255.818686 
L 205.283511 254.531708 
L 205.644639 254.828174 
L 206.728025 252.213078 
L 207.811411 251.937009 
L 208.172539 250.921682 
L 208.533668 251.045236 
L 208.894796 250.664355 
L 209.255925 249.658052 
L 209.617053 249.402647 
L 210.33931 247.506106 
L 210.700439 247.370163 
L 211.061567 247.560026 
L 211.422696 247.069221 
L 211.783824 244.978414 
L 212.506082 246.204812 
L 212.86721 245.969227 
L 213.589467 245.898632 
L 213.950596 245.94017 
L 214.672853 245.687906 
L 215.033981 244.511545 
L 215.39511 244.455858 
L 215.756238 243.412605 
L 216.117367 243.409673 
L 216.478495 243.251192 
L 217.561881 240.267399 
L 217.923009 238.509979 
L 218.284138 239.71012 
L 218.645266 239.207092 
L 219.006395 238.167344 
L 219.367524 238.398783 
L 219.728652 236.178941 
L 220.089781 236.50462 
L 220.450909 236.23243 
L 220.812038 234.683503 
L 221.173166 234.668843 
L 221.534295 233.514288 
L 221.895423 233.792284 
L 222.256552 232.879089 
L 222.61768 232.393974 
L 222.978809 232.651699 
L 223.339937 232.026403 
L 223.701066 231.050905 
L 224.062194 231.362744 
L 224.423323 230.900094 
L 224.784451 229.364963 
L 225.14558 228.722993 
L 225.506708 228.783045 
L 225.867837 226.987854 
L 226.228966 227.307096 
L 226.951223 225.168936 
L 227.312351 223.035315 
L 227.67348 223.246196 
L 228.395737 222.046448 
L 228.756865 220.70216 
L 229.117994 220.881873 
L 229.479122 220.318498 
L 229.840251 218.192973 
L 230.201379 217.447225 
L 230.562508 213.923201 
L 230.923636 216.214395 
L 231.284765 215.798991 
L 231.645893 216.345396 
L 232.007022 215.703761 
L 232.729279 216.74583 
L 233.090408 216.538089 
L 233.451536 215.624618 
L 233.812665 215.899337 
L 234.534922 214.735913 
L 234.89605 213.771885 
L 235.257179 213.619002 
L 235.618307 212.967333 
L 235.979436 210.623937 
L 236.340564 211.359287 
L 236.701693 208.216804 
L 237.062821 208.460059 
L 237.42395 206.751924 
L 237.785078 205.699088 
L 238.868464 203.762718 
L 239.229592 202.178045 
L 239.590721 199.565365 
L 239.95185 200.225126 
L 241.396364 197.249478 
L 241.757492 196.7601 
L 242.118621 196.778624 
L 242.479749 197.048241 
L 242.840878 196.122421 
L 243.202006 194.82488 
L 243.563135 195.987299 
L 243.924263 196.009736 
L 244.285392 197.045319 
L 244.64652 195.911996 
L 245.007649 194.149979 
L 245.368777 194.375758 
L 245.729906 193.615064 
L 246.813292 192.405331 
L 247.535549 191.516742 
L 247.896677 191.420488 
L 248.257806 204.304705 
L 248.618934 189.784831 
L 248.980063 189.087916 
L 249.341191 185.566902 
L 249.70232 188.83358 
L 250.424577 188.356255 
L 250.785705 188.353945 
L 251.146834 187.916789 
L 251.507962 187.701354 
L 251.869091 188.898126 
L 252.230219 189.656835 
L 252.591348 189.472395 
L 252.952476 188.44451 
L 253.313605 188.518318 
L 254.396991 187.653981 
L 254.758119 185.344783 
L 255.119248 186.25623 
L 255.480376 183.810599 
L 255.841505 184.841828 
L 256.202633 182.789048 
L 256.563762 181.507308 
L 256.92489 182.263055 
L 257.286019 180.691207 
L 257.647147 179.647522 
L 258.008276 179.425597 
L 258.369404 180.278847 
L 258.730533 180.728934 
L 259.813918 178.42377 
L 260.175047 178.953893 
L 260.536176 179.717864 
L 260.897304 179.866005 
L 261.258433 178.117629 
L 261.619561 177.466407 
L 261.98069 176.198995 
L 262.702947 175.709225 
L 263.064075 175.841856 
L 263.425204 175.674677 
L 264.147461 173.933684 
L 264.508589 174.949409 
L 264.869718 171.731812 
L 265.230846 171.814572 
L 265.591975 171.422205 
L 265.953103 169.075459 
L 266.314232 168.371336 
L 266.675361 167.948117 
L 267.036489 167.951199 
L 267.397618 166.678924 
L 267.758746 166.592194 
L 268.481003 164.580588 
L 268.842132 165.908361 
L 269.20326 166.763586 
L 269.925517 164.726923 
L 270.286646 165.725833 
L 270.647774 165.543188 
L 271.008903 165.978 
L 271.370031 164.440704 
L 271.73116 163.904323 
L 272.092288 165.066572 
L 272.453417 163.398198 
L 272.814545 163.531689 
L 273.175674 163.055787 
L 273.897931 162.871297 
L 274.25906 159.575732 
L 274.620188 159.479735 
L 274.981317 159.739829 
L 275.342445 160.536949 
L 276.064702 156.691105 
L 276.425831 154.994542 
L 276.786959 154.563925 
L 277.148088 154.711833 
L 277.509216 154.402192 
L 277.870345 152.716925 
L 278.231473 154.106687 
L 278.592602 152.626991 
L 278.95373 154.000108 
L 279.314859 153.015775 
L 279.675987 152.41994 
L 280.037116 152.370252 
L 280.398245 152.437381 
L 280.759373 151.154237 
L 281.120502 151.300029 
L 281.48163 152.688761 
L 281.842759 152.218203 
L 282.203887 152.787845 
L 282.565016 153.020668 
L 282.926144 151.240924 
L 283.287273 152.306822 
L 283.648401 152.593245 
L 284.00953 151.931795 
L 284.370658 151.527648 
L 284.731787 149.933412 
L 285.092915 150.269887 
L 285.454044 149.922907 
L 285.815172 150.037976 
L 286.176301 149.110899 
L 286.537429 148.705359 
L 286.898558 147.531915 
L 287.259687 147.019009 
L 287.620815 147.744122 
L 287.981944 147.959717 
L 288.343072 148.00822 
L 289.065329 146.339487 
L 289.426458 146.739533 
L 289.787586 145.522683 
L 290.148715 146.049341 
L 290.509843 145.821746 
L 290.870972 144.980079 
L 291.2321 145.185766 
L 291.593229 145.763952 
L 291.954357 145.500368 
L 292.315486 145.514144 
L 292.676614 143.327821 
L 293.398871 141.771234 
L 293.76 142.02824 
L 294.121129 141.484064 
L 294.482257 139.672912 
L 294.843386 140.258792 
L 295.204514 137.659801 
L 295.565643 139.739755 
L 295.926771 138.017902 
L 296.2879 135.664151 
L 296.649028 136.352692 
L 297.010157 134.883011 
L 297.371285 133.8913 
L 297.732414 133.98617 
L 298.093542 133.242155 
L 298.454671 135.107339 
L 298.815799 133.553471 
L 299.176928 134.136112 
L 299.538056 134.477956 
L 300.621442 132.093896 
L 300.982571 134.078808 
L 301.343699 134.118579 
L 301.704828 133.241116 
L 302.065956 133.738329 
L 302.427085 134.943829 
L 302.788213 134.006272 
L 303.149342 131.824807 
L 303.51047 135.446294 
L 303.871599 134.470757 
L 304.232727 133.058734 
L 304.593856 134.243245 
L 304.954984 134.328829 
L 305.316113 132.394493 
L 305.677241 131.431179 
L 306.03837 129.665201 
L 306.399498 130.526392 
L 306.760627 129.873942 
L 307.121755 130.075178 
L 307.482884 130.62801 
L 307.844013 129.216332 
L 308.205141 128.637539 
L 308.56627 129.684079 
L 308.927398 129.423238 
L 309.288527 127.15862 
L 309.649655 126.660476 
L 310.010784 125.119234 
L 310.371912 127.650163 
L 310.733041 128.489549 
L 311.094169 127.664376 
L 311.455298 127.50657 
L 311.816426 127.635984 
L 312.177555 123.172067 
L 312.538683 126.15622 
L 312.899812 124.436639 
L 313.622069 125.306519 
L 313.983197 121.078716 
L 314.344326 120.538393 
L 314.705455 118.837714 
L 315.066583 118.770027 
L 315.427712 120.308338 
L 315.78884 118.186958 
L 316.149969 117.769962 
L 316.511097 116.674443 
L 316.872226 116.278257 
L 317.233354 115.033554 
L 317.594483 115.21965 
L 317.955611 118.237403 
L 318.31674 116.610057 
L 318.677868 115.579658 
L 319.038997 117.539338 
L 319.400125 116.455635 
L 319.761254 116.074157 
L 320.122382 114.509546 
L 320.844639 116.999719 
L 321.205768 116.726238 
L 321.566897 117.116657 
L 321.928025 116.992957 
L 322.289154 115.590041 
L 322.650282 117.212135 
L 323.011411 115.263294 
L 323.372539 114.574102 
L 323.733668 114.501896 
L 324.455925 112.075682 
L 324.817053 109.368394 
L 325.178182 111.214753 
L 325.53931 114.663308 
L 325.900439 110.778815 
L 326.261567 110.596335 
L 326.622696 113.203044 
L 327.344953 109.733576 
L 327.706082 109.687199 
L 328.06721 110.419627 
L 328.428339 110.38974 
L 328.789467 110.95062 
L 329.150596 104.356863 
L 329.511724 103.652954 
L 329.872853 103.849515 
L 330.233981 102.501922 
L 330.59511 102.059922 
L 330.956238 99.716156 
L 331.317367 102.694241 
L 331.678495 103.855438 
L 332.039624 101.307747 
L 332.400752 102.986533 
L 332.761881 100.131648 
L 333.123009 98.678049 
L 333.484138 95.151631 
L 333.845266 96.100528 
L 334.206395 90.875622 
L 334.928652 94.538136 
L 335.289781 96.210632 
L 335.650909 94.687331 
L 336.012038 94.984481 
L 336.373166 95.623548 
L 336.734295 95.493436 
L 337.095423 97.35062 
L 337.456552 96.48489 
L 337.81768 95.12769 
L 338.178809 95.440734 
L 338.539937 94.049836 
L 338.901066 94.403223 
L 339.262194 92.702151 
L 339.623323 93.902977 
L 339.984451 97.143063 
L 340.34558 94.962662 
L 340.706708 91.657072 
L 341.067837 94.396534 
L 341.428966 92.805157 
L 341.790094 94.458018 
L 342.151223 92.965492 
L 342.512351 92.944269 
L 343.595737 87.198204 
L 343.956865 89.772686 
L 344.317994 89.575828 
L 344.679122 88.28716 
L 345.040251 88.666973 
L 345.401379 90.863059 
L 346.123636 88.96575 
L 346.484765 90.356308 
L 346.845893 89.573978 
L 347.207022 88.05806 
L 347.56815 88.08754 
L 348.290408 85.572183 
L 348.651536 86.669605 
L 349.012665 86.651804 
L 349.373793 84.262938 
L 349.734922 85.49354 
L 350.457179 85.287144 
L 350.818307 83.960331 
L 351.179436 85.475473 
L 351.540564 85.520063 
L 351.901693 82.853386 
L 352.262821 82.820727 
L 352.62395 81.558883 
L 352.985078 78.231358 
L 353.346207 79.661444 
L 354.068464 78.876697 
L 354.429592 78.735696 
L 354.790721 79.091724 
L 355.15185 77.858132 
L 355.512978 79.305469 
L 356.235235 75.690997 
L 356.596364 77.132708 
L 356.957492 79.088952 
L 357.318621 79.853467 
L 357.679749 76.241193 
L 358.040878 78.391149 
L 358.402006 77.276141 
L 358.763135 81.170391 
L 359.124263 78.61254 
L 359.485392 77.660172 
L 359.84652 79.825079 
L 360.207649 80.023796 
L 360.568777 81.175604 
L 360.929906 79.104578 
L 361.291034 81.311653 
L 361.652163 78.630394 
L 362.013292 78.303142 
L 362.37442 75.766771 
L 362.735549 78.953825 
L 363.096677 78.939714 
L 363.457806 78.175559 
L 363.818934 78.257114 
L 364.180063 76.874289 
L 364.541191 77.945746 
L 364.90232 75.341726 
L 365.263448 75.988269 
L 365.624577 75.98958 
L 365.985705 85.009245 
L 366.707962 85.009245 
L 367.069091 73.791902 
L 367.430219 73.740753 
L 367.791348 75.241225 
L 368.152476 74.828466 
L 368.513605 73.266778 
L 368.874734 73.653663 
L 369.235862 72.961064 
L 369.596991 70.643943 
L 369.958119 71.508183 
L 370.319248 66.814628 
L 370.680376 67.778753 
L 371.041505 66.418893 
L 371.402633 66.783983 
L 371.763762 65.569517 
L 372.12489 69.40156 
L 372.486019 66.482008 
L 372.847147 67.455875 
L 373.208276 68.107907 
L 373.569404 69.547449 
L 373.930533 68.244117 
L 374.291661 69.423269 
L 375.013918 67.240983 
L 375.375047 68.765275 
L 375.736176 69.459665 
L 376.097304 69.211668 
L 376.458433 73.268782 
L 376.819561 69.434326 
L 377.18069 69.945349 
L 377.541818 67.919379 
L 377.902947 70.205491 
L 378.264075 69.72955 
L 378.986332 69.458525 
L 379.347461 67.330563 
L 379.708589 68.713665 
L 380.069718 67.531843 
L 380.430846 67.362052 
L 380.791975 68.060525 
L 381.153103 64.845778 
L 381.514232 68.505094 
L 381.875361 70.100703 
L 382.597618 67.822018 
L 382.958746 67.257347 
L 383.319875 66.201638 
L 383.681003 65.859518 
L 384.042132 65.330481 
L 384.40326 63.089305 
L 384.764389 63.595861 
L 385.125517 62.866113 
L 385.486646 59.333895 
L 385.847774 60.355513 
L 386.208903 62.278738 
L 386.570031 61.01107 
L 386.93116 58.450724 
L 387.292288 64.650381 
L 387.653417 60.955484 
L 388.014545 63.374009 
L 388.736803 60.571661 
L 389.097931 60.410438 
L 389.45906 57.721441 
L 389.820188 59.881601 
L 390.181317 54.905458 
L 390.542445 58.599418 
L 390.903574 56.29469 
L 391.264702 54.915666 
L 391.625831 55.151595 
L 391.986959 53.925105 
L 392.348088 53.568 
L 392.709216 57.041264 
L 393.070345 57.035676 
L 393.431473 57.475395 
L 393.792602 56.772233 
L 394.514859 53.662856 
L 394.875987 54.539474 
L 395.237116 54.350732 
L 395.598245 55.63525 
L 395.959373 56.144748 
L 396.320502 58.012995 
L 396.68163 56.103881 
L 397.042759 56.632835 
L 397.403887 56.863259 
L 397.765016 56.854677 
L 398.126144 58.910486 
L 398.487273 71.342941 
L 398.487273 71.342941 
" clip-path="url(#p6b81b79bc1)" style="fill: none; stroke: #1f77b4; stroke-width: 1.5; stroke-linecap: square"/>
   </g>
   <g id="line2d_18">
    <path d="M 73.832727 294.835569 
L 75.63837 294.815458 
L 83.583197 294.589179 
L 84.666583 294.554937 
L 85.38884 294.522866 
L 89.361254 294.580024 
L 94.417053 294.50675 
L 94.778182 294.332974 
L 108.862194 294.507138 
L 110.667837 294.508162 
L 111.751223 294.355594 
L 113.195737 294.332663 
L 115.362508 294.299033 
L 115.723636 294.361618 
L 116.084765 294.262791 
L 119.69605 294.406296 
L 121.140564 294.307712 
L 122.585078 294.224647 
L 123.668464 294.053487 
L 124.75185 294.051482 
L 125.835235 293.932617 
L 126.557492 294.019823 
L 127.640878 294.081399 
L 129.44652 293.969082 
L 130.168777 293.809408 
L 131.252163 293.912191 
L 135.946834 293.587191 
L 136.307962 293.683878 
L 141.363762 293.079125 
L 142.808276 292.843793 
L 143.530533 292.850414 
L 144.613918 292.482916 
L 146.058433 292.225084 
L 146.419561 292.336547 
L 148.225204 292.14781 
L 150.391975 291.711984 
L 150.753103 291.566959 
L 151.475361 291.503418 
L 152.558746 291.266959 
L 153.281003 291.317094 
L 154.00326 291.079698 
L 154.725517 290.985298 
L 155.086646 290.768295 
L 156.170031 291.015283 
L 157.614545 290.583879 
L 157.975674 290.59967 
L 158.336803 290.443471 
L 159.420188 290.363658 
L 159.781317 290.140927 
L 161.586959 289.775463 
L 162.309216 289.638938 
L 163.031473 289.354156 
L 163.75373 289.261368 
L 164.475987 288.8807 
L 164.837116 289.008487 
L 165.920502 288.558885 
L 166.642759 288.184135 
L 167.003887 287.900168 
L 167.726144 287.702902 
L 168.087273 287.79354 
L 168.80953 287.654953 
L 169.892915 286.594491 
L 170.254044 286.339752 
L 170.615172 286.409783 
L 170.976301 286.273113 
L 172.059687 285.476852 
L 172.420815 285.342118 
L 173.143072 284.698857 
L 173.504201 284.610719 
L 173.865329 283.396714 
L 174.226458 283.51006 
L 174.587586 284.318796 
L 174.948715 284.230974 
L 175.670972 283.610406 
L 176.0321 284.171184 
L 176.393229 283.445081 
L 176.754357 283.400423 
L 177.115486 283.174731 
L 177.476614 282.646854 
L 177.837743 282.673679 
L 178.56 281.86517 
L 178.921129 281.889553 
L 179.282257 281.708908 
L 179.643386 281.053094 
L 180.004514 281.274539 
L 180.365643 280.778156 
L 180.726771 280.927054 
L 181.0879 280.747861 
L 181.449028 280.82099 
L 181.810157 280.261692 
L 182.171285 280.28325 
L 182.532414 279.712651 
L 182.893542 279.811784 
L 183.615799 278.607458 
L 183.976928 278.369131 
L 184.338056 278.293337 
L 184.699185 278.016924 
L 185.060313 277.989526 
L 185.421442 278.095334 
L 185.782571 278.075266 
L 186.865956 277.680114 
L 187.227085 277.80877 
L 187.949342 277.4763 
L 188.31047 276.903105 
L 188.671599 275.616519 
L 189.032727 276.576892 
L 189.393856 276.893051 
L 189.754984 276.561145 
L 190.116113 276.753672 
L 190.477241 276.273358 
L 191.199498 275.652304 
L 191.560627 275.036615 
L 191.921755 274.650487 
L 192.282884 273.84158 
L 192.644013 271.44754 
L 193.005141 269.914118 
L 193.36627 272.18574 
L 193.727398 272.784784 
L 194.088527 272.801259 
L 194.449655 273.040688 
L 194.810784 273.023446 
L 195.171912 273.343883 
L 195.533041 272.682607 
L 195.894169 272.798885 
L 196.255298 271.563832 
L 196.616426 271.186422 
L 196.977555 271.400993 
L 197.699812 270.169396 
L 198.06094 270.502745 
L 198.422069 270.470605 
L 198.783197 270.073705 
L 199.144326 269.497636 
L 199.505455 269.197907 
L 199.866583 269.240391 
L 200.58884 267.454725 
L 200.949969 266.929509 
L 201.311097 266.64726 
L 201.672226 265.618472 
L 202.033354 265.262149 
L 203.11674 263.187656 
L 203.477868 263.539854 
L 204.200125 263.193457 
L 204.922382 262.528381 
L 205.283511 262.817513 
L 206.005768 262.450869 
L 206.728025 261.53349 
L 207.811411 261.064568 
L 208.172539 261.067641 
L 208.533668 260.105827 
L 208.894796 260.008947 
L 209.255925 260.035305 
L 209.617053 259.542714 
L 210.700439 257.103791 
L 211.061567 256.643748 
L 211.422696 254.423736 
L 211.783824 251.291602 
L 212.144953 255.938867 
L 212.506082 256.951534 
L 212.86721 256.668786 
L 213.228339 256.170185 
L 213.589467 256.238037 
L 213.950596 256.494825 
L 214.672853 255.445766 
L 215.39511 254.967092 
L 215.756238 254.579935 
L 216.117367 253.474416 
L 216.478495 253.217963 
L 216.839624 253.15529 
L 217.561881 252.17705 
L 217.923009 251.014237 
L 218.284138 250.289546 
L 218.645266 250.746265 
L 219.367524 249.317927 
L 219.728652 248.003949 
L 220.089781 247.621762 
L 220.450909 247.434846 
L 221.173166 245.327699 
L 221.534295 243.686678 
L 221.895423 244.405321 
L 222.256552 244.269859 
L 222.978809 242.886825 
L 223.339937 242.74414 
L 223.701066 242.845035 
L 224.062194 243.983839 
L 224.423323 243.39993 
L 224.784451 243.661242 
L 225.14558 243.04133 
L 225.506708 243.108716 
L 226.228966 241.480389 
L 226.590094 240.461354 
L 226.951223 240.657231 
L 227.67348 237.899042 
L 228.034608 238.552608 
L 228.395737 238.044673 
L 228.756865 236.842604 
L 229.117994 236.753355 
L 229.479122 235.946584 
L 229.840251 235.487235 
L 230.201379 232.283186 
L 230.562508 224.890207 
L 230.923636 230.212295 
L 231.284765 233.050065 
L 231.645893 233.349837 
L 232.36815 233.037439 
L 232.729279 233.124154 
L 233.090408 233.084432 
L 233.451536 232.201145 
L 233.812665 231.980696 
L 234.173793 232.255842 
L 234.89605 231.222458 
L 235.618307 229.367026 
L 235.979436 227.33479 
L 236.340564 228.018448 
L 236.701693 227.917203 
L 237.062821 224.231514 
L 237.42395 225.039853 
L 238.146207 222.580717 
L 238.507335 220.214603 
L 238.868464 220.129329 
L 239.229592 219.805296 
L 239.95185 215.683781 
L 240.312978 215.410338 
L 240.674107 214.801785 
L 241.035235 214.50459 
L 241.757492 212.152437 
L 242.118621 211.950807 
L 242.479749 211.881154 
L 242.840878 212.912408 
L 243.202006 213.031181 
L 243.924263 214.516362 
L 244.64652 215.002725 
L 245.007649 212.916655 
L 245.368777 212.390531 
L 245.729906 212.845507 
L 246.091034 211.916765 
L 246.452163 210.207896 
L 246.813292 211.695276 
L 247.17442 212.284889 
L 247.535549 210.52511 
L 247.896677 210.308655 
L 248.257806 209.317614 
L 248.618934 204.304705 
L 248.980063 206.311996 
L 249.341191 198.021701 
L 250.063448 207.865558 
L 250.424577 206.588244 
L 250.785705 207.93025 
L 251.146834 207.432087 
L 251.507962 207.349332 
L 251.869091 206.04963 
L 252.230219 208.243629 
L 252.591348 208.851211 
L 252.952476 208.282361 
L 253.313605 207.036327 
L 253.674734 206.611535 
L 254.035862 205.638901 
L 254.396991 205.57116 
L 254.758119 207.292805 
L 255.119248 206.308758 
L 255.480376 204.909409 
L 255.841505 202.942739 
L 256.202633 202.75575 
L 256.563762 201.94247 
L 256.92489 202.041816 
L 257.286019 199.948227 
L 257.647147 199.899932 
L 258.008276 198.459041 
L 258.369404 198.22966 
L 258.730533 197.789961 
L 259.091661 196.413252 
L 259.813918 196.42463 
L 260.536176 195.86758 
L 260.897304 196.695602 
L 261.258433 195.291875 
L 261.619561 194.544568 
L 261.98069 197.220425 
L 262.341818 197.353426 
L 262.702947 197.226818 
L 263.064075 197.307626 
L 263.425204 197.240172 
L 263.786332 195.900351 
L 264.147461 196.219855 
L 264.508589 196.760954 
L 264.869718 196.16375 
L 265.230846 193.422492 
L 265.591975 194.173779 
L 265.953103 193.799136 
L 266.314232 190.885054 
L 266.675361 192.3108 
L 267.758746 188.508823 
L 268.119875 176.622079 
L 268.481003 181.181512 
L 268.842132 188.038945 
L 269.20326 189.297517 
L 269.925517 188.081706 
L 270.286646 186.88935 
L 270.647774 187.780783 
L 271.008903 187.527835 
L 271.370031 188.465975 
L 271.73116 186.348086 
L 272.092288 188.21874 
L 272.814545 186.276273 
L 273.175674 186.248992 
L 273.536803 186.829328 
L 273.897931 184.401628 
L 274.25906 183.991132 
L 274.620188 181.958541 
L 274.981317 183.825205 
L 275.342445 185.012405 
L 275.703574 182.732458 
L 276.425831 176.374189 
L 276.786959 177.763786 
L 277.148088 176.619065 
L 277.509216 175.99389 
L 277.870345 174.509059 
L 278.231473 175.126452 
L 278.592602 175.299048 
L 278.95373 175.143908 
L 279.314859 174.650215 
L 279.675987 173.862837 
L 280.037116 171.665232 
L 280.398245 174.441877 
L 280.759373 175.227958 
L 281.120502 175.375842 
L 281.48163 176.625264 
L 281.842759 177.31864 
L 282.565016 177.061206 
L 282.926144 177.542938 
L 283.287273 177.26501 
L 283.648401 177.89516 
L 284.370658 175.352619 
L 284.731787 176.952908 
L 285.092915 176.409251 
L 285.454044 175.056114 
L 285.815172 175.205595 
L 286.176301 174.553907 
L 286.537429 172.524821 
L 286.898558 161.30708 
L 287.259687 161.008434 
L 287.620815 171.988551 
L 287.981944 173.528134 
L 288.343072 173.843337 
L 288.704201 172.783667 
L 289.065329 171.352475 
L 289.787586 169.748768 
L 290.148715 169.703352 
L 290.509843 170.235423 
L 290.870972 169.854265 
L 291.2321 161.292299 
L 291.593229 157.555471 
L 291.954357 156.100308 
L 292.315486 157.185254 
L 293.398871 153.383438 
L 293.76 153.650289 
L 294.121129 155.663803 
L 294.482257 153.818682 
L 294.843386 153.11449 
L 295.204514 154.761958 
L 295.565643 155.66771 
L 296.2879 152.819563 
L 296.649028 150.107984 
L 297.010157 149.902874 
L 297.371285 148.431202 
L 297.732414 149.702361 
L 298.093542 149.527604 
L 298.454671 150.532121 
L 298.815799 149.569588 
L 299.176928 149.577612 
L 299.538056 150.425726 
L 299.899185 151.925484 
L 300.260313 151.208837 
L 300.621442 152.929666 
L 301.343699 153.051119 
L 301.704828 153.715287 
L 302.065956 152.505092 
L 302.427085 152.675907 
L 302.788213 151.718899 
L 303.149342 149.986764 
L 303.51047 151.962105 
L 303.871599 152.359631 
L 304.232727 152.166399 
L 304.593856 154.3863 
L 304.954984 152.526786 
L 305.677241 145.009097 
L 306.03837 139.029365 
L 306.760627 147.975649 
L 307.121755 147.313524 
L 307.482884 148.139454 
L 307.844013 147.116249 
L 308.56627 146.240136 
L 308.927398 146.370146 
L 309.288527 147.85955 
L 309.649655 147.491033 
L 310.010784 147.304888 
L 310.371912 145.554716 
L 310.733041 148.422329 
L 311.455298 145.722079 
L 311.816426 147.757966 
L 312.177555 146.575349 
L 312.538683 143.49799 
L 312.899812 143.800335 
L 313.26094 141.970131 
L 313.622069 140.897699 
L 313.983197 142.58147 
L 314.344326 142.921897 
L 315.066583 136.188586 
L 315.427712 136.073954 
L 315.78884 135.740848 
L 316.149969 135.058879 
L 316.511097 132.583026 
L 316.872226 133.889222 
L 317.233354 132.653485 
L 317.594483 132.748142 
L 317.955611 133.86781 
L 318.31674 136.607029 
L 318.677868 137.242184 
L 319.038997 137.287789 
L 319.400125 138.661906 
L 319.761254 136.665979 
L 320.483511 137.732765 
L 320.844639 137.981568 
L 321.205768 137.777647 
L 321.566897 137.375053 
L 321.928025 139.539625 
L 322.289154 138.543691 
L 322.650282 139.019943 
L 323.011411 137.604726 
L 323.372539 138.585495 
L 324.094796 136.171664 
L 324.455925 131.360409 
L 324.817053 120.09449 
L 325.53931 131.356118 
L 325.900439 131.665351 
L 326.261567 133.244092 
L 326.622696 131.749984 
L 326.983824 134.268108 
L 327.344953 133.378466 
L 327.706082 130.250275 
L 328.06721 131.963288 
L 328.428339 131.957419 
L 328.789467 134.057047 
L 329.150596 130.495233 
L 329.511724 124.467026 
L 329.872853 124.609682 
L 330.233981 134.103312 
L 330.59511 123.445651 
L 331.317367 120.287178 
L 331.678495 123.652989 
L 332.039624 123.490557 
L 332.400752 122.265077 
L 332.761881 119.446486 
L 333.123009 120.031575 
L 333.845266 113.091941 
L 334.206395 113.792787 
L 334.567524 113.588876 
L 334.928652 111.355996 
L 335.289781 111.272872 
L 335.650909 112.102501 
L 336.012038 110.958901 
L 336.373166 111.725037 
L 336.734295 111.817962 
L 337.095423 114.860943 
L 337.456552 115.619724 
L 338.178809 118.359065 
L 338.539937 116.477518 
L 338.901066 117.514334 
L 339.262194 117.634393 
L 339.623323 115.034083 
L 339.984451 117.954369 
L 340.34558 118.765435 
L 340.706708 115.941219 
L 341.067837 115.177282 
L 341.428966 117.266711 
L 341.790094 114.054216 
L 342.151223 117.182136 
L 342.512351 117.458166 
L 342.87348 113.473234 
L 343.595737 100.516029 
L 343.956865 107.14727 
L 344.317994 111.665447 
L 344.679122 111.597362 
L 345.040251 112.131 
L 345.401379 111.089169 
L 345.762508 111.211039 
L 346.123636 111.870479 
L 346.845893 109.754551 
L 347.207022 112.525051 
L 347.929279 105.886737 
L 348.290408 109.280236 
L 348.651536 105.363215 
L 349.012665 107.809749 
L 349.373793 108.410623 
L 349.734922 107.230238 
L 350.09605 104.325578 
L 350.457179 108.725108 
L 350.818307 108.579458 
L 351.179436 105.445188 
L 351.540564 105.976482 
L 351.901693 105.446945 
L 352.262821 101.200512 
L 352.985078 97.01632 
L 353.346207 97.343834 
L 353.707335 97.18381 
L 354.068464 96.148891 
L 354.429592 97.42519 
L 354.790721 96.068496 
L 355.15185 96.983078 
L 355.512978 95.708861 
L 356.596364 102.080601 
L 356.957492 101.107195 
L 357.318621 102.626297 
L 357.679749 102.203675 
L 358.040878 101.585272 
L 358.402006 101.308596 
L 358.763135 103.308305 
L 359.124263 103.936998 
L 359.485392 101.406778 
L 359.84652 102.272502 
L 360.207649 104.554945 
L 360.568777 102.204956 
L 360.929906 103.769712 
L 361.291034 104.265905 
L 361.652163 102.882294 
L 362.013292 98.376243 
L 362.37442 87.213024 
L 363.096677 99.318635 
L 363.457806 99.319504 
L 363.818934 101.680885 
L 364.180063 100.735003 
L 364.90232 97.697856 
L 365.263448 97.025635 
L 365.624577 99.301155 
L 365.985705 85.009245 
L 366.707962 85.009245 
L 367.069091 95.769787 
L 367.430219 94.582606 
L 367.791348 95.018806 
L 368.152476 99.40604 
L 368.513605 98.74077 
L 368.874734 95.317092 
L 369.235862 96.231951 
L 369.596991 95.010029 
L 369.958119 95.857269 
L 370.319248 93.092818 
L 370.680376 88.075822 
L 371.041505 88.800401 
L 371.402633 84.85306 
L 371.763762 85.661505 
L 372.12489 85.315788 
L 372.486019 85.844606 
L 372.847147 85.696024 
L 373.208276 85.04635 
L 373.569404 86.620242 
L 373.930533 86.42103 
L 374.291661 86.441151 
L 374.65279 89.87127 
L 375.013918 90.646838 
L 375.375047 91.974087 
L 375.736176 92.807725 
L 376.819561 92.324216 
L 377.18069 92.697112 
L 377.541818 92.318547 
L 377.902947 92.793269 
L 378.264075 93.861915 
L 378.625204 91.368198 
L 378.986332 92.970288 
L 379.347461 93.967188 
L 379.708589 88.806765 
L 380.069718 92.82372 
L 380.430846 91.249158 
L 380.791975 86.915344 
L 381.153103 78.270551 
L 381.514232 76.739895 
L 381.875361 89.200893 
L 382.236489 91.974975 
L 382.597618 89.687154 
L 382.958746 88.31096 
L 383.319875 89.652466 
L 384.042132 87.557474 
L 384.40326 88.22638 
L 384.764389 85.176574 
L 385.125517 86.028421 
L 385.486646 84.485528 
L 385.847774 82.131156 
L 386.208903 80.533212 
L 386.570031 82.887661 
L 386.93116 81.735125 
L 387.292288 82.999702 
L 387.653417 82.906418 
L 388.014545 86.089773 
L 388.375674 85.310221 
L 389.097931 79.602188 
L 389.45906 79.099709 
L 389.820188 80.080857 
L 390.181317 78.701105 
L 390.542445 75.114457 
L 390.903574 74.208413 
L 391.264702 75.099452 
L 391.625831 70.732975 
L 391.986959 72.400417 
L 392.348088 72.189273 
L 392.709216 72.317851 
L 393.070345 72.813641 
L 393.792602 78.092474 
L 394.15373 79.421597 
L 395.237116 76.986693 
L 395.598245 78.563454 
L 395.959373 77.886908 
L 396.320502 79.468518 
L 396.68163 81.926566 
L 397.042759 79.424888 
L 397.403887 81.510385 
L 397.765016 80.556391 
L 398.126144 82.961232 
L 398.487273 78.649636 
L 398.487273 78.649636 
" clip-path="url(#p6b81b79bc1)" style="fill: none; stroke: #ff7f0e; stroke-width: 1.5; stroke-linecap: square"/>
   </g>
   <g id="line2d_19">
    <path d="M 73.832727 295.256027 
L 81.777555 295.217635 
L 82.138683 295.265391 
L 82.86094 295.179869 
L 85.027712 295.251308 
L 94.055925 295.227426 
L 94.417053 295.008845 
L 94.778182 295.183146 
L 121.501693 295.307205 
L 121.862821 295.233028 
L 122.585078 295.369955 
L 125.112978 295.320102 
L 125.835235 295.337849 
L 126.196364 295.292074 
L 126.918621 295.394906 
L 128.002006 295.365795 
L 128.363135 295.420526 
L 129.44652 295.293118 
L 129.807649 295.378567 
L 130.891034 295.231125 
L 131.252163 295.349669 
L 134.141191 295.255401 
L 134.50232 295.239115 
L 134.863448 295.109357 
L 135.946834 295.344058 
L 136.669091 295.108366 
L 137.030219 295.186626 
L 137.391348 295.080338 
L 139.196991 295.269177 
L 140.280376 294.90196 
L 140.641505 295.09227 
L 141.002633 295.003423 
L 142.086019 295.173777 
L 142.447147 295.043534 
L 142.808276 295.086586 
L 143.530533 294.879505 
L 143.891661 294.928134 
L 144.613918 294.852797 
L 144.975047 294.983157 
L 145.697304 294.840652 
L 146.058433 295.063679 
L 149.669718 294.826744 
L 150.030846 294.630906 
L 150.391975 294.581184 
L 151.114232 294.746077 
L 151.836489 294.705962 
L 152.197618 294.944585 
L 153.642132 294.652109 
L 154.725517 294.684943 
L 155.086646 294.933246 
L 156.170031 294.517007 
L 156.892288 294.591543 
L 157.253417 294.536982 
L 157.614545 294.740941 
L 157.975674 294.541957 
L 158.697931 294.794177 
L 159.781317 294.445824 
L 160.864702 294.536258 
L 161.225831 294.342294 
L 161.586959 294.467435 
L 162.309216 294.191328 
L 162.670345 294.328794 
L 163.031473 294.231292 
L 163.392602 294.295984 
L 164.114859 294.251831 
L 164.837116 294.245025 
L 165.198245 294.146271 
L 165.559373 294.254622 
L 166.642759 294.09867 
L 167.003887 294.280262 
L 167.726144 294.140489 
L 168.087273 293.88324 
L 168.448401 293.765899 
L 168.80953 293.481088 
L 169.531787 293.440764 
L 169.892915 293.205126 
L 170.254044 293.672728 
L 170.615172 293.63952 
L 170.976301 293.371257 
L 171.337429 293.322515 
L 171.698558 292.957716 
L 172.059687 293.15055 
L 172.420815 292.643522 
L 173.143072 293.086591 
L 173.504201 292.992861 
L 173.865329 293.961568 
L 174.226458 293.89274 
L 174.587586 292.816017 
L 174.948715 292.697768 
L 175.309843 292.739859 
L 175.670972 292.942736 
L 176.0321 292.106685 
L 176.393229 292.807954 
L 176.754357 292.812221 
L 177.115486 292.414321 
L 177.476614 292.933979 
L 177.837743 292.22156 
L 178.198871 292.328212 
L 178.56 292.725243 
L 179.282257 292.679337 
L 179.643386 292.944139 
L 180.004514 292.501842 
L 180.365643 292.763907 
L 180.726771 292.208099 
L 181.0879 292.63677 
L 181.449028 292.384055 
L 181.810157 292.742679 
L 182.171285 292.564612 
L 182.532414 292.873612 
L 183.254671 291.964791 
L 183.615799 292.700637 
L 183.976928 292.581194 
L 184.338056 292.191017 
L 184.699185 292.432063 
L 185.060313 292.81557 
L 185.421442 292.420204 
L 186.143699 292.080642 
L 186.504828 291.594138 
L 186.865956 291.829471 
L 187.227085 291.678703 
L 187.588213 291.26061 
L 187.949342 291.375432 
L 188.31047 288.797499 
L 188.671599 292.157363 
L 189.032727 292.432078 
L 189.393856 291.515777 
L 189.754984 291.512311 
L 190.477241 290.956741 
L 190.83837 290.99688 
L 191.199498 290.737311 
L 191.560627 290.854531 
L 192.282884 290.309422 
L 192.644013 292.064997 
L 193.005141 292.731607 
L 193.36627 289.887683 
L 193.727398 290.202629 
L 194.449655 289.832155 
L 194.810784 289.997048 
L 195.171912 289.952312 
L 195.533041 290.508401 
L 195.894169 288.376444 
L 196.255298 289.909643 
L 196.616426 289.902483 
L 196.977555 289.27944 
L 197.338683 289.603002 
L 197.699812 290.098991 
L 198.06094 289.786356 
L 198.422069 289.860635 
L 198.783197 288.733855 
L 199.144326 289.254431 
L 199.505455 288.883816 
L 199.866583 288.309223 
L 200.227712 289.637006 
L 200.58884 288.628062 
L 200.949969 289.596886 
L 201.311097 288.612189 
L 201.672226 289.034297 
L 202.033354 288.479669 
L 202.394483 289.828291 
L 202.755611 289.536233 
L 203.11674 288.634305 
L 203.838997 289.450541 
L 204.200125 289.165987 
L 204.561254 288.094939 
L 204.922382 288.778305 
L 205.283511 287.202195 
L 205.644639 287.69615 
L 206.005768 286.89686 
L 206.728025 286.167587 
L 207.450282 286.305767 
L 207.811411 286.36044 
L 208.172539 285.342041 
L 208.533668 286.427409 
L 208.894796 286.143408 
L 209.255925 285.110747 
L 209.617053 285.347934 
L 209.978182 285.115504 
L 210.33931 285.218166 
L 211.061567 286.404279 
L 211.422696 288.133486 
L 211.783824 289.174812 
L 212.144953 285.125382 
L 212.506082 284.741278 
L 212.86721 284.788442 
L 213.228339 285.223326 
L 213.589467 285.148595 
L 213.950596 284.933345 
L 214.672853 285.73014 
L 215.033981 284.739647 
L 215.39511 284.976766 
L 215.756238 284.32067 
L 216.117367 285.423256 
L 216.478495 285.521229 
L 216.839624 284.529426 
L 217.561881 283.578349 
L 217.923009 282.983742 
L 218.284138 284.908574 
L 218.645266 283.948827 
L 219.006395 283.646206 
L 219.367524 284.568856 
L 219.728652 283.662992 
L 220.089781 284.370858 
L 220.450909 284.285584 
L 220.812038 283.859811 
L 221.173166 284.829144 
L 221.534295 285.315609 
L 221.895423 284.874963 
L 222.256552 284.097231 
L 222.61768 284.437841 
L 222.978809 285.252873 
L 223.339937 284.770263 
L 224.062194 282.866906 
L 224.423323 282.988164 
L 224.784451 281.191721 
L 225.506708 281.162329 
L 225.867837 280.064378 
L 226.228966 281.314707 
L 226.590094 281.130145 
L 226.951223 279.999705 
L 227.312351 279.400991 
L 227.67348 280.835154 
L 228.034608 279.572112 
L 228.756865 279.347556 
L 229.479122 279.859914 
L 229.840251 278.193738 
L 230.201379 280.652039 
L 230.562508 284.520994 
L 231.284765 278.236926 
L 231.645893 278.483559 
L 232.007022 277.97025 
L 232.36815 278.667748 
L 232.729279 279.109675 
L 233.090408 278.941656 
L 233.451536 278.911473 
L 233.812665 279.406642 
L 234.173793 278.591959 
L 234.534922 278.501777 
L 234.89605 278.037428 
L 235.257179 278.949661 
L 235.618307 279.088307 
L 235.979436 278.777147 
L 236.340564 278.82884 
L 236.701693 275.787601 
L 237.062821 279.716544 
L 237.42395 277.200071 
L 237.785078 277.245181 
L 238.146207 277.972464 
L 238.507335 279.901335 
L 238.868464 279.121388 
L 239.229592 277.860749 
L 239.590721 277.39023 
L 239.95185 280.029345 
L 240.312978 279.539147 
L 240.674107 279.54753 
L 241.035235 278.724304 
L 241.396364 279.576306 
L 241.757492 280.095663 
L 242.479749 280.655087 
L 243.202006 277.281699 
L 243.563135 277.569214 
L 243.924263 276.981374 
L 244.285392 277.820449 
L 244.64652 276.397271 
L 245.007649 276.721324 
L 245.368777 277.473227 
L 245.729906 276.257557 
L 246.091034 276.7426 
L 246.452163 278.009011 
L 246.813292 276.198054 
L 247.17442 275.220401 
L 247.535549 276.479633 
L 247.896677 276.599833 
L 248.257806 290.475091 
L 248.618934 280.968126 
L 248.980063 278.263921 
L 249.341191 283.033201 
L 249.70232 281.805929 
L 250.063448 276.187855 
L 250.424577 277.256011 
L 250.785705 275.911694 
L 251.146834 275.972702 
L 251.507962 275.840022 
L 251.869091 278.336496 
L 252.230219 276.901207 
L 252.591348 276.109183 
L 252.952476 275.650149 
L 253.313605 276.969991 
L 253.674734 277.118243 
L 254.035862 277.784043 
L 254.396991 277.570821 
L 254.758119 273.539978 
L 255.119248 275.435472 
L 255.480376 274.389189 
L 255.841505 277.387089 
L 256.202633 275.521299 
L 256.563762 275.052838 
L 257.286019 276.23098 
L 257.647147 275.23559 
L 258.369404 277.537186 
L 259.091661 279.03528 
L 259.813918 277.487139 
L 260.536176 279.338285 
L 260.897304 278.658403 
L 261.258433 278.313754 
L 261.619561 278.409838 
L 261.98069 274.46657 
L 262.341818 274.021298 
L 263.425204 273.922505 
L 263.786332 274.399189 
L 264.147461 273.201829 
L 264.508589 273.676455 
L 264.869718 271.056062 
L 265.230846 273.880079 
L 265.591975 272.736426 
L 265.953103 270.764324 
L 266.314232 272.974283 
L 266.675361 271.125317 
L 267.036489 272.343701 
L 267.397618 272.382593 
L 267.758746 273.57137 
L 268.119875 284.301384 
L 268.842132 273.357416 
L 269.925517 272.133217 
L 270.286646 274.324483 
L 270.647774 273.250405 
L 271.008903 273.938165 
L 271.370031 271.462729 
L 271.73116 273.044237 
L 272.453417 271.760074 
L 272.814545 272.743416 
L 273.536803 271.670261 
L 273.897931 273.957669 
L 274.25906 271.0726 
L 274.620188 273.009194 
L 274.981317 271.402624 
L 275.342445 271.012544 
L 275.703574 271.103162 
L 276.425831 274.108353 
L 276.786959 272.288139 
L 277.148088 273.580768 
L 277.509216 273.896302 
L 277.870345 273.695867 
L 278.231473 274.468235 
L 278.592602 272.815943 
L 278.95373 274.3442 
L 279.314859 273.853561 
L 279.675987 274.045103 
L 280.037116 276.19302 
L 280.759373 271.414279 
L 281.120502 271.412187 
L 281.48163 271.551498 
L 281.842759 270.387564 
L 282.203887 271.073018 
L 282.565016 271.447462 
L 282.926144 269.185985 
L 283.287273 270.529812 
L 283.648401 270.186085 
L 284.370658 271.663028 
L 284.731787 268.468503 
L 285.454044 270.354793 
L 285.815172 270.320381 
L 286.176301 270.044992 
L 286.537429 271.668538 
L 286.898558 281.712835 
L 287.259687 281.498575 
L 287.620815 271.243571 
L 287.981944 269.919583 
L 288.343072 269.652883 
L 288.704201 269.952913 
L 289.065329 270.475012 
L 289.426458 271.785714 
L 289.787586 271.261915 
L 290.148715 271.833989 
L 290.509843 271.074324 
L 290.870972 270.613814 
L 291.2321 279.381468 
L 291.593229 283.696481 
L 291.954357 284.88806 
L 292.676614 282.808354 
L 293.398871 283.875796 
L 293.76 283.865951 
L 294.121129 281.308261 
L 294.482257 281.342231 
L 294.843386 282.632301 
L 295.204514 278.385844 
L 295.565643 279.560044 
L 295.926771 279.17879 
L 296.2879 278.332588 
L 296.649028 281.732708 
L 297.010157 280.468137 
L 297.371285 280.948097 
L 297.732414 279.77181 
L 298.093542 279.202551 
L 298.454671 280.063218 
L 298.815799 279.471882 
L 299.176928 280.0465 
L 299.538056 279.54023 
L 299.899185 277.297704 
L 300.260313 277.38006 
L 300.621442 274.652229 
L 300.982571 276.541422 
L 301.343699 276.55546 
L 301.704828 275.01383 
L 302.065956 276.721237 
L 302.427085 277.755922 
L 302.788213 277.775373 
L 303.149342 277.326043 
L 303.51047 278.972189 
L 304.232727 276.380335 
L 304.593856 275.344945 
L 305.316113 278.686349 
L 306.03837 286.123836 
L 306.760627 277.386293 
L 307.121755 278.249654 
L 308.205141 277.511245 
L 308.56627 278.931943 
L 308.927398 278.541091 
L 309.288527 274.78707 
L 309.649655 274.657443 
L 310.010784 273.302345 
L 310.371912 277.583447 
L 310.733041 275.55522 
L 311.094169 276.25129 
L 311.455298 277.272491 
L 311.816426 275.366017 
L 312.177555 272.084719 
L 312.538683 278.14623 
L 312.899812 276.124304 
L 313.26094 278.370058 
L 313.622069 279.89682 
L 313.983197 273.985246 
L 314.344326 273.104497 
L 314.705455 274.720319 
L 315.066583 278.069441 
L 315.427712 279.722384 
L 315.78884 277.934111 
L 316.149969 278.199083 
L 316.511097 279.579418 
L 316.872226 277.877035 
L 317.594483 277.959508 
L 317.955611 279.857593 
L 318.31674 275.491028 
L 318.677868 273.825474 
L 319.038997 275.739549 
L 319.400125 273.281729 
L 319.761254 274.896178 
L 320.122382 272.817055 
L 320.844639 274.506151 
L 321.205768 274.436591 
L 321.566897 275.229604 
L 321.928025 272.941332 
L 322.289154 272.53435 
L 322.650282 273.680192 
L 323.011411 273.146568 
L 323.372539 271.476607 
L 323.733668 272.694461 
L 324.094796 272.678486 
L 324.455925 276.203272 
L 324.817053 284.761904 
L 325.178182 280.112328 
L 325.53931 278.79519 
L 325.900439 274.601464 
L 326.261567 272.840243 
L 326.622696 276.94106 
L 326.983824 272.682705 
L 327.344953 271.84311 
L 327.706082 274.924925 
L 328.06721 273.944339 
L 328.428339 273.920321 
L 328.789467 272.381573 
L 329.150596 269.349631 
L 329.511724 274.673928 
L 329.872853 274.727834 
L 330.233981 263.88661 
L 330.59511 274.102271 
L 330.956238 273.162874 
L 331.317367 277.895063 
L 332.039624 273.30519 
L 332.400752 276.209457 
L 332.761881 276.173162 
L 333.123009 274.134474 
L 333.484138 274.246568 
L 333.845266 278.496588 
L 334.206395 272.570834 
L 334.567524 274.891333 
L 334.928652 278.670141 
L 335.289781 280.42576 
L 335.650909 278.07283 
L 336.012038 279.51358 
L 336.734295 279.163475 
L 337.095423 277.977677 
L 337.456552 276.353166 
L 337.81768 273.727336 
L 338.178809 272.569669 
L 338.539937 273.060319 
L 338.901066 272.376889 
L 339.262194 270.555757 
L 339.623323 274.356894 
L 339.984451 274.676695 
L 340.34558 271.685226 
L 340.706708 271.203853 
L 341.067837 274.707252 
L 341.428966 271.026446 
L 341.790094 275.891802 
L 342.151223 271.271356 
L 342.512351 270.974103 
L 342.87348 272.866296 
L 343.234608 276.790899 
L 343.595737 282.170175 
L 344.317994 273.398381 
L 344.679122 272.177798 
L 345.040251 272.023973 
L 345.401379 275.26189 
L 346.123636 272.583271 
L 346.484765 275.124957 
L 346.845893 275.307427 
L 347.207022 271.02101 
L 347.56815 274.730931 
L 347.929279 276.581561 
L 348.290408 271.779947 
L 348.651536 276.79439 
L 349.373793 271.340315 
L 350.09605 276.510044 
L 350.457179 272.050035 
L 350.818307 270.868874 
L 351.179436 275.518284 
L 351.540564 275.031581 
L 351.901693 272.894441 
L 352.262821 277.108215 
L 352.62395 277.999434 
L 352.985078 276.703038 
L 353.346207 277.80561 
L 353.707335 277.593456 
L 354.068464 278.215806 
L 354.429592 276.798506 
L 354.790721 278.511228 
L 355.15185 276.363054 
L 355.512978 279.084608 
L 356.235235 270.517317 
L 356.596364 270.540107 
L 356.957492 273.469757 
L 357.318621 272.71517 
L 357.679749 269.525518 
L 358.040878 272.293877 
L 358.402006 271.455544 
L 358.763135 273.350086 
L 359.124263 270.163542 
L 359.84652 273.040577 
L 360.207649 270.956852 
L 360.568777 274.458648 
L 360.929906 270.822866 
L 361.291034 272.533748 
L 361.652163 271.2361 
L 362.013292 275.414899 
L 362.37442 284.041747 
L 362.735549 281.981822 
L 363.096677 275.109079 
L 363.457806 274.344055 
L 363.818934 272.064229 
L 364.180063 271.627287 
L 364.541191 274.405572 
L 364.90232 273.13187 
L 365.263448 274.450634 
L 365.624577 272.176424 
L 365.985705 295.488 
L 366.707962 295.488 
L 367.069091 273.510115 
L 367.791348 275.710419 
L 368.152476 270.910426 
L 368.513605 270.014008 
L 368.874734 273.824571 
L 369.235862 272.217113 
L 369.596991 271.121914 
L 369.958119 271.138914 
L 370.319248 269.20981 
L 370.680376 275.190931 
L 371.041505 273.106492 
L 371.402633 277.418923 
L 371.763762 275.396012 
L 372.12489 279.573772 
L 372.486019 276.125401 
L 373.208276 278.549557 
L 373.569404 278.415207 
L 373.930533 277.311087 
L 374.291661 278.470118 
L 374.65279 274.064059 
L 375.013918 272.082146 
L 375.375047 272.279188 
L 376.097304 272.084937 
L 376.458433 276.374015 
L 376.819561 272.59811 
L 377.18069 272.736237 
L 377.541818 271.088833 
L 377.902947 272.900222 
L 378.264075 271.355635 
L 378.625204 273.762466 
L 378.986332 271.976237 
L 379.347461 268.851375 
L 379.708589 275.3949 
L 380.069718 270.196123 
L 380.430846 271.600894 
L 381.514232 287.253198 
L 381.875361 276.38781 
L 382.236489 272.476114 
L 382.958746 274.434387 
L 383.319875 272.037172 
L 384.042132 273.261007 
L 384.40326 270.350924 
L 384.764389 273.907287 
L 385.486646 270.336366 
L 386.208903 277.233526 
L 386.570031 273.611408 
L 386.93116 272.203598 
L 387.292288 277.13868 
L 387.653417 273.537066 
L 388.375674 272.007609 
L 388.736803 273.444821 
L 389.097931 276.29625 
L 389.45906 274.109732 
L 389.820188 275.288743 
L 390.181317 271.692352 
L 390.542445 278.972961 
L 390.903574 277.574277 
L 391.264702 275.304214 
L 391.625831 279.906621 
L 391.986959 277.012688 
L 392.348088 276.866727 
L 392.709216 280.211412 
L 393.070345 279.710035 
L 393.431473 277.475868 
L 394.15373 271.068406 
L 394.514859 270.537923 
L 394.875987 272.240723 
L 395.237116 272.852039 
L 395.598245 272.559796 
L 395.959373 273.745841 
L 396.320502 274.032477 
L 396.68163 269.665315 
L 397.042759 272.695947 
L 397.403887 270.840875 
L 397.765016 271.786286 
L 398.126144 271.437254 
L 398.487273 288.181305 
L 398.487273 288.181305 
" clip-path="url(#p6b81b79bc1)" style="fill: none; stroke: #2ca02c; stroke-width: 1.5; stroke-linecap: square"/>
   </g>
   <g id="patch_3">
    <path d="M 57.6 307.584 
L 57.6 41.472 
" style="fill: none; stroke: #000000; stroke-width: 0.8; stroke-linejoin: miter; stroke-linecap: square"/>
   </g>
   <g id="patch_4">
    <path d="M 414.72 307.584 
L 414.72 41.472 
" style="fill: none; stroke: #000000; stroke-width: 0.8; stroke-linejoin: miter; stroke-linecap: square"/>
   </g>
   <g id="patch_5">
    <path d="M 57.6 307.584 
L 414.72 307.584 
" style="fill: none; stroke: #000000; stroke-width: 0.8; stroke-linejoin: miter; stroke-linecap: square"/>
   </g>
   <g id="patch_6">
    <path d="M 57.6 41.472 
L 414.72 41.472 
" style="fill: none; stroke: #000000; stroke-width: 0.8; stroke-linejoin: miter; stroke-linecap: square"/>
   </g>
   <g id="legend_1">
    <g id="patch_7">
     <path d="M 64.6 93.506375 
L 186.25625 93.506375 
Q 188.25625 93.506375 188.25625 91.506375 
L 188.25625 48.472 
Q 188.25625 46.472 186.25625 46.472 
L 64.6 46.472 
Q 62.6 46.472 62.6 48.472 
L 62.6 91.506375 
Q 62.6 93.506375 64.6 93.506375 
z
" style="fill: #ffffff; opacity: 0.8; stroke: #cccccc; stroke-linejoin: miter"/>
    </g>
    <g id="line2d_20">
     <path d="M 66.6 54.570438 
L 76.6 54.570438 
L 86.6 54.570438 
" style="fill: none; stroke: #1f77b4; stroke-width: 1.5; stroke-linecap: square"/>
    </g>
    <g id="text_19">
     <!-- Weekly maximum -->
     <g transform="translate(94.6 58.070438) scale(0.1 -0.1)">
      <defs>
       <path id="DejaVuSans-57" d="M 213 4666 
L 850 4666 
L 1831 722 
L 2809 4666 
L 3519 4666 
L 4500 722 
L 5478 4666 
L 6119 4666 
L 4947 0 
L 4153 0 
L 3169 4050 
L 2175 0 
L 1381 0 
L 213 4666 
z
" transform="scale(0.015625)"/>
       <path id="DejaVuSans-6b" d="M 581 4863 
L 1159 4863 
L 1159 1991 
L 2875 3500 
L 3609 3500 
L 1753 1863 
L 3688 0 
L 2938 0 
L 1159 1709 
L 1159 0 
L 581 0 
L 581 4863 
z
" transform="scale(0.015625)"/>
       <path id="DejaVuSans-79" d="M 2059 -325 
Q 1816 -950 1584 -1140 
Q 1353 -1331 966 -1331 
L 506 -1331 
L 506 -850 
L 844 -850 
Q 1081 -850 1212 -737 
Q 1344 -625 1503 -206 
L 1606 56 
L 191 3500 
L 800 3500 
L 1894 763 
L 2988 3500 
L 3597 3500 
L 2059 -325 
z
" transform="scale(0.015625)"/>
       <path id="DejaVuSans-6d" d="M 3328 2828 
Q 3544 3216 3844 3400 
Q 4144 3584 4550 3584 
Q 5097 3584 5394 3201 
Q 5691 2819 5691 2113 
L 5691 0 
L 5113 0 
L 5113 2094 
Q 5113 2597 4934 2840 
Q 4756 3084 4391 3084 
Q 3944 3084 3684 2787 
Q 3425 2491 3425 1978 
L 3425 0 
L 2847 0 
L 2847 2094 
Q 2847 2600 2669 2842 
Q 2491 3084 2119 3084 
Q 1678 3084 1418 2786 
Q 1159 2488 1159 1978 
L 1159 0 
L 581 0 
L 581 3500 
L 1159 3500 
L 1159 2956 
Q 1356 3278 1631 3431 
Q 1906 3584 2284 3584 
Q 2666 3584 2933 3390 
Q 3200 3197 3328 2828 
z
" transform="scale(0.015625)"/>
       <path id="DejaVuSans-78" d="M 3513 3500 
L 2247 1797 
L 3578 0 
L 2900 0 
L 1881 1375 
L 863 0 
L 184 0 
L 1544 1831 
L 300 3500 
L 978 3500 
L 1906 2253 
L 2834 3500 
L 3513 3500 
z
" transform="scale(0.015625)"/>
       <path id="DejaVuSans-75" d="M 544 1381 
L 544 3500 
L 1119 3500 
L 1119 1403 
Q 1119 906 1312 657 
Q 1506 409 1894 409 
Q 2359 409 2629 706 
Q 2900 1003 2900 1516 
L 2900 3500 
L 3475 3500 
L 3475 0 
L 2900 0 
L 2900 538 
Q 2691 219 2414 64 
Q 2138 -91 1772 -91 
Q 1169 -91 856 284 
Q 544 659 544 1381 
z
M 1991 3584 
L 1991 3584 
z
" transform="scale(0.015625)"/>
      </defs>
      <use xlink:href="#DejaVuSans-57"/>
      <use xlink:href="#DejaVuSans-65" transform="translate(93.001953 0)"/>
      <use xlink:href="#DejaVuSans-65" transform="translate(154.525391 0)"/>
      <use xlink:href="#DejaVuSans-6b" transform="translate(216.048828 0)"/>
      <use xlink:href="#DejaVuSans-6c" transform="translate(273.958984 0)"/>
      <use xlink:href="#DejaVuSans-79" transform="translate(301.742188 0)"/>
      <use xlink:href="#DejaVuSans-20" transform="translate(360.921875 0)"/>
      <use xlink:href="#DejaVuSans-6d" transform="translate(392.708984 0)"/>
      <use xlink:href="#DejaVuSans-61" transform="translate(490.121094 0)"/>
      <use xlink:href="#DejaVuSans-78" transform="translate(551.400391 0)"/>
      <use xlink:href="#DejaVuSans-69" transform="translate(610.580078 0)"/>
      <use xlink:href="#DejaVuSans-6d" transform="translate(638.363281 0)"/>
      <use xlink:href="#DejaVuSans-75" transform="translate(735.775391 0)"/>
      <use xlink:href="#DejaVuSans-6d" transform="translate(799.154297 0)"/>
     </g>
    </g>
    <g id="line2d_21">
     <path d="M 66.6 69.248563 
L 76.6 69.248563 
L 86.6 69.248563 
" style="fill: none; stroke: #ff7f0e; stroke-width: 1.5; stroke-linecap: square"/>
    </g>
    <g id="text_20">
     <!-- Weekly minimum -->
     <g transform="translate(94.6 72.748563) scale(0.1 -0.1)">
      <defs>
       <path id="DejaVuSans-6e" d="M 3513 2113 
L 3513 0 
L 2938 0 
L 2938 2094 
Q 2938 2591 2744 2837 
Q 2550 3084 2163 3084 
Q 1697 3084 1428 2787 
Q 1159 2491 1159 1978 
L 1159 0 
L 581 0 
L 581 3500 
L 1159 3500 
L 1159 2956 
Q 1366 3272 1645 3428 
Q 1925 3584 2291 3584 
Q 2894 3584 3203 3211 
Q 3513 2838 3513 2113 
z
" transform="scale(0.015625)"/>
      </defs>
      <use xlink:href="#DejaVuSans-57"/>
      <use xlink:href="#DejaVuSans-65" transform="translate(93.001953 0)"/>
      <use xlink:href="#DejaVuSans-65" transform="translate(154.525391 0)"/>
      <use xlink:href="#DejaVuSans-6b" transform="translate(216.048828 0)"/>
      <use xlink:href="#DejaVuSans-6c" transform="translate(273.958984 0)"/>
      <use xlink:href="#DejaVuSans-79" transform="translate(301.742188 0)"/>
      <use xlink:href="#DejaVuSans-20" transform="translate(360.921875 0)"/>
      <use xlink:href="#DejaVuSans-6d" transform="translate(392.708984 0)"/>
      <use xlink:href="#DejaVuSans-69" transform="translate(490.121094 0)"/>
      <use xlink:href="#DejaVuSans-6e" transform="translate(517.904297 0)"/>
      <use xlink:href="#DejaVuSans-69" transform="translate(581.283203 0)"/>
      <use xlink:href="#DejaVuSans-6d" transform="translate(609.066406 0)"/>
      <use xlink:href="#DejaVuSans-75" transform="translate(706.478516 0)"/>
      <use xlink:href="#DejaVuSans-6d" transform="translate(769.857422 0)"/>
     </g>
    </g>
    <g id="line2d_22">
     <path d="M 66.6 83.926688 
L 76.6 83.926688 
L 86.6 83.926688 
" style="fill: none; stroke: #2ca02c; stroke-width: 1.5; stroke-linecap: square"/>
    </g>
    <g id="text_21">
     <!-- Weekly range -->
     <g transform="translate(94.6 87.426688) scale(0.1 -0.1)">
      <use xlink:href="#DejaVuSans-57"/>
      <use xlink:href="#DejaVuSans-65" transform="translate(93.001953 0)"/>
      <use xlink:href="#DejaVuSans-65" transform="translate(154.525391 0)"/>
      <use xlink:href="#DejaVuSans-6b" transform="translate(216.048828 0)"/>
      <use xlink:href="#DejaVuSans-6c" transform="translate(273.958984 0)"/>
      <use xlink:href="#DejaVuSans-79" transform="translate(301.742188 0)"/>
      <use xlink:href="#DejaVuSans-20" transform="translate(360.921875 0)"/>
      <use xlink:href="#DejaVuSans-72" transform="translate(392.708984 0)"/>
      <use xlink:href="#DejaVuSans-61" transform="translate(433.822266 0)"/>
      <use xlink:href="#DejaVuSans-6e" transform="translate(495.101562 0)"/>
      <use xlink:href="#DejaVuSans-67" transform="translate(558.480469 0)"/>
      <use xlink:href="#DejaVuSans-65" transform="translate(621.957031 0)"/>
     </g>
    </g>
   </g>
  </g>
 </g>
 <defs>
  <clipPath id="p6b81b79bc1">
   <rect x="57.6" y="41.472" width="357.12" height="266.112"/>
  </clipPath>
 </defs>
</svg>
