<?xml version="1.0" encoding="utf-8" standalone="no"?>
<!DOCTYPE svg PUBLIC "-//W3C//DTD SVG 1.1//EN"
  "http://www.w3.org/Graphics/SVG/1.1/DTD/svg11.dtd">
<svg xmlns:xlink="http://www.w3.org/1999/xlink" width="460.8pt" height="345.6pt" viewBox="0 0 460.8 345.6" xmlns="http://www.w3.org/2000/svg" version="1.1">
 <metadata>
  <rdf:RDF xmlns:dc="http://purl.org/dc/elements/1.1/" xmlns:cc="http://creativecommons.org/ns#" xmlns:rdf="http://www.w3.org/1999/02/22-rdf-syntax-ns#">
   <cc:Work>
    <dc:type rdf:resource="http://purl.org/dc/dcmitype/StillImage"/>
    <dc:date>2023-07-01T05:31:56.472909</dc:date>
    <dc:format>image/svg+xml</dc:format>
    <dc:creator>
     <cc:Agent>
      <dc:title>Matplotlib v3.7.1, https://matplotlib.org/</dc:title>
     </cc:Agent>
    </dc:creator>
   </cc:Work>
  </rdf:RDF>
 </metadata>
 <defs>
  <style type="text/css">*{stroke-linejoin: round; stroke-linecap: butt}</style>
 </defs>
 <g id="figure_1">
  <g id="patch_1">
   <path d="M 0 345.6 
L 460.8 345.6 
L 460.8 0 
L 0 0 
z
" style="fill: #ffffff"/>
  </g>
  <g id="axes_1">
   <g id="patch_2">
    <path d="M 57.6 307.584 
L 414.72 307.584 
L 414.72 41.472 
L 57.6 41.472 
z
" style="fill: #ffffff"/>
   </g>
   <g id="matplotlib.axis_1">
    <g id="xtick_1">
     <g id="line2d_1">
      <defs>
       <path id="mf3026cee48" d="M 0 0 
L 0 3.5 
" style="stroke: #000000; stroke-width: 0.8"/>
      </defs>
      <g>
       <use xlink:href="#mf3026cee48" x="59.192973" y="307.584" style="stroke: #000000; stroke-width: 0.8"/>
      </g>
     </g>
     <g id="text_1">
      <!-- 2008 -->
      <g transform="translate(46.467973 322.182437) scale(0.1 -0.1)">
       <defs>
        <path id="DejaVuSans-32" d="M 1228 531 
L 3431 531 
L 3431 0 
L 469 0 
L 469 531 
Q 828 903 1448 1529 
Q 2069 2156 2228 2338 
Q 2531 2678 2651 2914 
Q 2772 3150 2772 3378 
Q 2772 3750 2511 3984 
Q 2250 4219 1831 4219 
Q 1534 4219 1204 4116 
Q 875 4013 500 3803 
L 500 4441 
Q 881 4594 1212 4672 
Q 1544 4750 1819 4750 
Q 2544 4750 2975 4387 
Q 3406 4025 3406 3419 
Q 3406 3131 3298 2873 
Q 3191 2616 2906 2266 
Q 2828 2175 2409 1742 
Q 1991 1309 1228 531 
z
" transform="scale(0.015625)"/>
        <path id="DejaVuSans-30" d="M 2034 4250 
Q 1547 4250 1301 3770 
Q 1056 3291 1056 2328 
Q 1056 1369 1301 889 
Q 1547 409 2034 409 
Q 2525 409 2770 889 
Q 3016 1369 3016 2328 
Q 3016 3291 2770 3770 
Q 2525 4250 2034 4250 
z
M 2034 4750 
Q 2819 4750 3233 4129 
Q 3647 3509 3647 2328 
Q 3647 1150 3233 529 
Q 2819 -91 2034 -91 
Q 1250 -91 836 529 
Q 422 1150 422 2328 
Q 422 3509 836 4129 
Q 1250 4750 2034 4750 
z
" transform="scale(0.015625)"/>
        <path id="DejaVuSans-38" d="M 2034 2216 
Q 1584 2216 1326 1975 
Q 1069 1734 1069 1313 
Q 1069 891 1326 650 
Q 1584 409 2034 409 
Q 2484 409 2743 651 
Q 3003 894 3003 1313 
Q 3003 1734 2745 1975 
Q 2488 2216 2034 2216 
z
M 1403 2484 
Q 997 2584 770 2862 
Q 544 3141 544 3541 
Q 544 4100 942 4425 
Q 1341 4750 2034 4750 
Q 2731 4750 3128 4425 
Q 3525 4100 3525 3541 
Q 3525 3141 3298 2862 
Q 3072 2584 2669 2484 
Q 3125 2378 3379 2068 
Q 3634 1759 3634 1313 
Q 3634 634 3220 271 
Q 2806 -91 2034 -91 
Q 1263 -91 848 271 
Q 434 634 434 1313 
Q 434 1759 690 2068 
Q 947 2378 1403 2484 
z
M 1172 3481 
Q 1172 3119 1398 2916 
Q 1625 2713 2034 2713 
Q 2441 2713 2670 2916 
Q 2900 3119 2900 3481 
Q 2900 3844 2670 4047 
Q 2441 4250 2034 4250 
Q 1625 4250 1398 4047 
Q 1172 3844 1172 3481 
z
" transform="scale(0.015625)"/>
       </defs>
       <use xlink:href="#DejaVuSans-32"/>
       <use xlink:href="#DejaVuSans-30" x="63.623047"/>
       <use xlink:href="#DejaVuSans-30" x="127.246094"/>
       <use xlink:href="#DejaVuSans-38" x="190.869141"/>
      </g>
     </g>
    </g>
    <g id="xtick_2">
     <g id="line2d_2">
      <g>
       <use xlink:href="#mf3026cee48" x="103.052236" y="307.584" style="stroke: #000000; stroke-width: 0.8"/>
      </g>
     </g>
     <g id="text_2">
      <!-- 2010 -->
      <g transform="translate(90.327236 322.182437) scale(0.1 -0.1)">
       <defs>
        <path id="DejaVuSans-31" d="M 794 531 
L 1825 531 
L 1825 4091 
L 703 3866 
L 703 4441 
L 1819 4666 
L 2450 4666 
L 2450 531 
L 3481 531 
L 3481 0 
L 794 0 
L 794 531 
z
" transform="scale(0.015625)"/>
       </defs>
       <use xlink:href="#DejaVuSans-32"/>
       <use xlink:href="#DejaVuSans-30" x="63.623047"/>
       <use xlink:href="#DejaVuSans-31" x="127.246094"/>
       <use xlink:href="#DejaVuSans-30" x="190.869141"/>
      </g>
     </g>
    </g>
    <g id="xtick_3">
     <g id="line2d_3">
      <g>
       <use xlink:href="#mf3026cee48" x="146.8515" y="307.584" style="stroke: #000000; stroke-width: 0.8"/>
      </g>
     </g>
     <g id="text_3">
      <!-- 2012 -->
      <g transform="translate(134.1265 322.182437) scale(0.1 -0.1)">
       <use xlink:href="#DejaVuSans-32"/>
       <use xlink:href="#DejaVuSans-30" x="63.623047"/>
       <use xlink:href="#DejaVuSans-31" x="127.246094"/>
       <use xlink:href="#DejaVuSans-32" x="190.869141"/>
      </g>
     </g>
    </g>
    <g id="xtick_4">
     <g id="line2d_4">
      <g>
       <use xlink:href="#mf3026cee48" x="190.710764" y="307.584" style="stroke: #000000; stroke-width: 0.8"/>
      </g>
     </g>
     <g id="text_4">
      <!-- 2014 -->
      <g transform="translate(177.985764 322.182437) scale(0.1 -0.1)">
       <defs>
        <path id="DejaVuSans-34" d="M 2419 4116 
L 825 1625 
L 2419 1625 
L 2419 4116 
z
M 2253 4666 
L 3047 4666 
L 3047 1625 
L 3713 1625 
L 3713 1100 
L 3047 1100 
L 3047 0 
L 2419 0 
L 2419 1100 
L 313 1100 
L 313 1709 
L 2253 4666 
z
" transform="scale(0.015625)"/>
       </defs>
       <use xlink:href="#DejaVuSans-32"/>
       <use xlink:href="#DejaVuSans-30" x="63.623047"/>
       <use xlink:href="#DejaVuSans-31" x="127.246094"/>
       <use xlink:href="#DejaVuSans-34" x="190.869141"/>
      </g>
     </g>
    </g>
    <g id="xtick_5">
     <g id="line2d_5">
      <g>
       <use xlink:href="#mf3026cee48" x="234.510028" y="307.584" style="stroke: #000000; stroke-width: 0.8"/>
      </g>
     </g>
     <g id="text_5">
      <!-- 2016 -->
      <g transform="translate(221.785028 322.182437) scale(0.1 -0.1)">
       <defs>
        <path id="DejaVuSans-36" d="M 2113 2584 
Q 1688 2584 1439 2293 
Q 1191 2003 1191 1497 
Q 1191 994 1439 701 
Q 1688 409 2113 409 
Q 2538 409 2786 701 
Q 3034 994 3034 1497 
Q 3034 2003 2786 2293 
Q 2538 2584 2113 2584 
z
M 3366 4563 
L 3366 3988 
Q 3128 4100 2886 4159 
Q 2644 4219 2406 4219 
Q 1781 4219 1451 3797 
Q 1122 3375 1075 2522 
Q 1259 2794 1537 2939 
Q 1816 3084 2150 3084 
Q 2853 3084 3261 2657 
Q 3669 2231 3669 1497 
Q 3669 778 3244 343 
Q 2819 -91 2113 -91 
Q 1303 -91 875 529 
Q 447 1150 447 2328 
Q 447 3434 972 4092 
Q 1497 4750 2381 4750 
Q 2619 4750 2861 4703 
Q 3103 4656 3366 4563 
z
" transform="scale(0.015625)"/>
       </defs>
       <use xlink:href="#DejaVuSans-32"/>
       <use xlink:href="#DejaVuSans-30" x="63.623047"/>
       <use xlink:href="#DejaVuSans-31" x="127.246094"/>
       <use xlink:href="#DejaVuSans-36" x="190.869141"/>
      </g>
     </g>
    </g>
    <g id="xtick_6">
     <g id="line2d_6">
      <g>
       <use xlink:href="#mf3026cee48" x="278.369291" y="307.584" style="stroke: #000000; stroke-width: 0.8"/>
      </g>
     </g>
     <g id="text_6">
      <!-- 2018 -->
      <g transform="translate(265.644291 322.182437) scale(0.1 -0.1)">
       <use xlink:href="#DejaVuSans-32"/>
       <use xlink:href="#DejaVuSans-30" x="63.623047"/>
       <use xlink:href="#DejaVuSans-31" x="127.246094"/>
       <use xlink:href="#DejaVuSans-38" x="190.869141"/>
      </g>
     </g>
    </g>
    <g id="xtick_7">
     <g id="line2d_7">
      <g>
       <use xlink:href="#mf3026cee48" x="322.168555" y="307.584" style="stroke: #000000; stroke-width: 0.8"/>
      </g>
     </g>
     <g id="text_7">
      <!-- 2020 -->
      <g transform="translate(309.443555 322.182437) scale(0.1 -0.1)">
       <use xlink:href="#DejaVuSans-32"/>
       <use xlink:href="#DejaVuSans-30" x="63.623047"/>
       <use xlink:href="#DejaVuSans-32" x="127.246094"/>
       <use xlink:href="#DejaVuSans-30" x="190.869141"/>
      </g>
     </g>
    </g>
    <g id="xtick_8">
     <g id="line2d_8">
      <g>
       <use xlink:href="#mf3026cee48" x="366.027818" y="307.584" style="stroke: #000000; stroke-width: 0.8"/>
      </g>
     </g>
     <g id="text_8">
      <!-- 2022 -->
      <g transform="translate(353.302818 322.182437) scale(0.1 -0.1)">
       <use xlink:href="#DejaVuSans-32"/>
       <use xlink:href="#DejaVuSans-30" x="63.623047"/>
       <use xlink:href="#DejaVuSans-32" x="127.246094"/>
       <use xlink:href="#DejaVuSans-32" x="190.869141"/>
      </g>
     </g>
    </g>
    <g id="xtick_9">
     <g id="line2d_9">
      <g>
       <use xlink:href="#mf3026cee48" x="409.827082" y="307.584" style="stroke: #000000; stroke-width: 0.8"/>
      </g>
     </g>
     <g id="text_9">
      <!-- 2024 -->
      <g transform="translate(397.102082 322.182437) scale(0.1 -0.1)">
       <use xlink:href="#DejaVuSans-32"/>
       <use xlink:href="#DejaVuSans-30" x="63.623047"/>
       <use xlink:href="#DejaVuSans-32" x="127.246094"/>
       <use xlink:href="#DejaVuSans-34" x="190.869141"/>
      </g>
     </g>
    </g>
    <g id="text_10">
     <!-- Updated 2023-07-01 05:31:56.470755 - Last record 2023-06-29 -->
     <g transform="translate(75.905312 335.860562) scale(0.1 -0.1)">
      <defs>
       <path id="DejaVuSans-55" d="M 556 4666 
L 1191 4666 
L 1191 1831 
Q 1191 1081 1462 751 
Q 1734 422 2344 422 
Q 2950 422 3222 751 
Q 3494 1081 3494 1831 
L 3494 4666 
L 4128 4666 
L 4128 1753 
Q 4128 841 3676 375 
Q 3225 -91 2344 -91 
Q 1459 -91 1007 375 
Q 556 841 556 1753 
L 556 4666 
z
" transform="scale(0.015625)"/>
       <path id="DejaVuSans-70" d="M 1159 525 
L 1159 -1331 
L 581 -1331 
L 581 3500 
L 1159 3500 
L 1159 2969 
Q 1341 3281 1617 3432 
Q 1894 3584 2278 3584 
Q 2916 3584 3314 3078 
Q 3713 2572 3713 1747 
Q 3713 922 3314 415 
Q 2916 -91 2278 -91 
Q 1894 -91 1617 61 
Q 1341 213 1159 525 
z
M 3116 1747 
Q 3116 2381 2855 2742 
Q 2594 3103 2138 3103 
Q 1681 3103 1420 2742 
Q 1159 2381 1159 1747 
Q 1159 1113 1420 752 
Q 1681 391 2138 391 
Q 2594 391 2855 752 
Q 3116 1113 3116 1747 
z
" transform="scale(0.015625)"/>
       <path id="DejaVuSans-64" d="M 2906 2969 
L 2906 4863 
L 3481 4863 
L 3481 0 
L 2906 0 
L 2906 525 
Q 2725 213 2448 61 
Q 2172 -91 1784 -91 
Q 1150 -91 751 415 
Q 353 922 353 1747 
Q 353 2572 751 3078 
Q 1150 3584 1784 3584 
Q 2172 3584 2448 3432 
Q 2725 3281 2906 2969 
z
M 947 1747 
Q 947 1113 1208 752 
Q 1469 391 1925 391 
Q 2381 391 2643 752 
Q 2906 1113 2906 1747 
Q 2906 2381 2643 2742 
Q 2381 3103 1925 3103 
Q 1469 3103 1208 2742 
Q 947 2381 947 1747 
z
" transform="scale(0.015625)"/>
       <path id="DejaVuSans-61" d="M 2194 1759 
Q 1497 1759 1228 1600 
Q 959 1441 959 1056 
Q 959 750 1161 570 
Q 1363 391 1709 391 
Q 2188 391 2477 730 
Q 2766 1069 2766 1631 
L 2766 1759 
L 2194 1759 
z
M 3341 1997 
L 3341 0 
L 2766 0 
L 2766 531 
Q 2569 213 2275 61 
Q 1981 -91 1556 -91 
Q 1019 -91 701 211 
Q 384 513 384 1019 
Q 384 1609 779 1909 
Q 1175 2209 1959 2209 
L 2766 2209 
L 2766 2266 
Q 2766 2663 2505 2880 
Q 2244 3097 1772 3097 
Q 1472 3097 1187 3025 
Q 903 2953 641 2809 
L 641 3341 
Q 956 3463 1253 3523 
Q 1550 3584 1831 3584 
Q 2591 3584 2966 3190 
Q 3341 2797 3341 1997 
z
" transform="scale(0.015625)"/>
       <path id="DejaVuSans-74" d="M 1172 4494 
L 1172 3500 
L 2356 3500 
L 2356 3053 
L 1172 3053 
L 1172 1153 
Q 1172 725 1289 603 
Q 1406 481 1766 481 
L 2356 481 
L 2356 0 
L 1766 0 
Q 1100 0 847 248 
Q 594 497 594 1153 
L 594 3053 
L 172 3053 
L 172 3500 
L 594 3500 
L 594 4494 
L 1172 4494 
z
" transform="scale(0.015625)"/>
       <path id="DejaVuSans-65" d="M 3597 1894 
L 3597 1613 
L 953 1613 
Q 991 1019 1311 708 
Q 1631 397 2203 397 
Q 2534 397 2845 478 
Q 3156 559 3463 722 
L 3463 178 
Q 3153 47 2828 -22 
Q 2503 -91 2169 -91 
Q 1331 -91 842 396 
Q 353 884 353 1716 
Q 353 2575 817 3079 
Q 1281 3584 2069 3584 
Q 2775 3584 3186 3129 
Q 3597 2675 3597 1894 
z
M 3022 2063 
Q 3016 2534 2758 2815 
Q 2500 3097 2075 3097 
Q 1594 3097 1305 2825 
Q 1016 2553 972 2059 
L 3022 2063 
z
" transform="scale(0.015625)"/>
       <path id="DejaVuSans-20" transform="scale(0.015625)"/>
       <path id="DejaVuSans-33" d="M 2597 2516 
Q 3050 2419 3304 2112 
Q 3559 1806 3559 1356 
Q 3559 666 3084 287 
Q 2609 -91 1734 -91 
Q 1441 -91 1130 -33 
Q 819 25 488 141 
L 488 750 
Q 750 597 1062 519 
Q 1375 441 1716 441 
Q 2309 441 2620 675 
Q 2931 909 2931 1356 
Q 2931 1769 2642 2001 
Q 2353 2234 1838 2234 
L 1294 2234 
L 1294 2753 
L 1863 2753 
Q 2328 2753 2575 2939 
Q 2822 3125 2822 3475 
Q 2822 3834 2567 4026 
Q 2313 4219 1838 4219 
Q 1578 4219 1281 4162 
Q 984 4106 628 3988 
L 628 4550 
Q 988 4650 1302 4700 
Q 1616 4750 1894 4750 
Q 2613 4750 3031 4423 
Q 3450 4097 3450 3541 
Q 3450 3153 3228 2886 
Q 3006 2619 2597 2516 
z
" transform="scale(0.015625)"/>
       <path id="DejaVuSans-2d" d="M 313 2009 
L 1997 2009 
L 1997 1497 
L 313 1497 
L 313 2009 
z
" transform="scale(0.015625)"/>
       <path id="DejaVuSans-37" d="M 525 4666 
L 3525 4666 
L 3525 4397 
L 1831 0 
L 1172 0 
L 2766 4134 
L 525 4134 
L 525 4666 
z
" transform="scale(0.015625)"/>
       <path id="DejaVuSans-35" d="M 691 4666 
L 3169 4666 
L 3169 4134 
L 1269 4134 
L 1269 2991 
Q 1406 3038 1543 3061 
Q 1681 3084 1819 3084 
Q 2600 3084 3056 2656 
Q 3513 2228 3513 1497 
Q 3513 744 3044 326 
Q 2575 -91 1722 -91 
Q 1428 -91 1123 -41 
Q 819 9 494 109 
L 494 744 
Q 775 591 1075 516 
Q 1375 441 1709 441 
Q 2250 441 2565 725 
Q 2881 1009 2881 1497 
Q 2881 1984 2565 2268 
Q 2250 2553 1709 2553 
Q 1456 2553 1204 2497 
Q 953 2441 691 2322 
L 691 4666 
z
" transform="scale(0.015625)"/>
       <path id="DejaVuSans-3a" d="M 750 794 
L 1409 794 
L 1409 0 
L 750 0 
L 750 794 
z
M 750 3309 
L 1409 3309 
L 1409 2516 
L 750 2516 
L 750 3309 
z
" transform="scale(0.015625)"/>
       <path id="DejaVuSans-2e" d="M 684 794 
L 1344 794 
L 1344 0 
L 684 0 
L 684 794 
z
" transform="scale(0.015625)"/>
       <path id="DejaVuSans-4c" d="M 628 4666 
L 1259 4666 
L 1259 531 
L 3531 531 
L 3531 0 
L 628 0 
L 628 4666 
z
" transform="scale(0.015625)"/>
       <path id="DejaVuSans-73" d="M 2834 3397 
L 2834 2853 
Q 2591 2978 2328 3040 
Q 2066 3103 1784 3103 
Q 1356 3103 1142 2972 
Q 928 2841 928 2578 
Q 928 2378 1081 2264 
Q 1234 2150 1697 2047 
L 1894 2003 
Q 2506 1872 2764 1633 
Q 3022 1394 3022 966 
Q 3022 478 2636 193 
Q 2250 -91 1575 -91 
Q 1294 -91 989 -36 
Q 684 19 347 128 
L 347 722 
Q 666 556 975 473 
Q 1284 391 1588 391 
Q 1994 391 2212 530 
Q 2431 669 2431 922 
Q 2431 1156 2273 1281 
Q 2116 1406 1581 1522 
L 1381 1569 
Q 847 1681 609 1914 
Q 372 2147 372 2553 
Q 372 3047 722 3315 
Q 1072 3584 1716 3584 
Q 2034 3584 2315 3537 
Q 2597 3491 2834 3397 
z
" transform="scale(0.015625)"/>
       <path id="DejaVuSans-72" d="M 2631 2963 
Q 2534 3019 2420 3045 
Q 2306 3072 2169 3072 
Q 1681 3072 1420 2755 
Q 1159 2438 1159 1844 
L 1159 0 
L 581 0 
L 581 3500 
L 1159 3500 
L 1159 2956 
Q 1341 3275 1631 3429 
Q 1922 3584 2338 3584 
Q 2397 3584 2469 3576 
Q 2541 3569 2628 3553 
L 2631 2963 
z
" transform="scale(0.015625)"/>
       <path id="DejaVuSans-63" d="M 3122 3366 
L 3122 2828 
Q 2878 2963 2633 3030 
Q 2388 3097 2138 3097 
Q 1578 3097 1268 2742 
Q 959 2388 959 1747 
Q 959 1106 1268 751 
Q 1578 397 2138 397 
Q 2388 397 2633 464 
Q 2878 531 3122 666 
L 3122 134 
Q 2881 22 2623 -34 
Q 2366 -91 2075 -91 
Q 1284 -91 818 406 
Q 353 903 353 1747 
Q 353 2603 823 3093 
Q 1294 3584 2113 3584 
Q 2378 3584 2631 3529 
Q 2884 3475 3122 3366 
z
" transform="scale(0.015625)"/>
       <path id="DejaVuSans-6f" d="M 1959 3097 
Q 1497 3097 1228 2736 
Q 959 2375 959 1747 
Q 959 1119 1226 758 
Q 1494 397 1959 397 
Q 2419 397 2687 759 
Q 2956 1122 2956 1747 
Q 2956 2369 2687 2733 
Q 2419 3097 1959 3097 
z
M 1959 3584 
Q 2709 3584 3137 3096 
Q 3566 2609 3566 1747 
Q 3566 888 3137 398 
Q 2709 -91 1959 -91 
Q 1206 -91 779 398 
Q 353 888 353 1747 
Q 353 2609 779 3096 
Q 1206 3584 1959 3584 
z
" transform="scale(0.015625)"/>
       <path id="DejaVuSans-39" d="M 703 97 
L 703 672 
Q 941 559 1184 500 
Q 1428 441 1663 441 
Q 2288 441 2617 861 
Q 2947 1281 2994 2138 
Q 2813 1869 2534 1725 
Q 2256 1581 1919 1581 
Q 1219 1581 811 2004 
Q 403 2428 403 3163 
Q 403 3881 828 4315 
Q 1253 4750 1959 4750 
Q 2769 4750 3195 4129 
Q 3622 3509 3622 2328 
Q 3622 1225 3098 567 
Q 2575 -91 1691 -91 
Q 1453 -91 1209 -44 
Q 966 3 703 97 
z
M 1959 2075 
Q 2384 2075 2632 2365 
Q 2881 2656 2881 3163 
Q 2881 3666 2632 3958 
Q 2384 4250 1959 4250 
Q 1534 4250 1286 3958 
Q 1038 3666 1038 3163 
Q 1038 2656 1286 2365 
Q 1534 2075 1959 2075 
z
" transform="scale(0.015625)"/>
      </defs>
      <use xlink:href="#DejaVuSans-55"/>
      <use xlink:href="#DejaVuSans-70" x="73.193359"/>
      <use xlink:href="#DejaVuSans-64" x="136.669922"/>
      <use xlink:href="#DejaVuSans-61" x="200.146484"/>
      <use xlink:href="#DejaVuSans-74" x="261.425781"/>
      <use xlink:href="#DejaVuSans-65" x="300.634766"/>
      <use xlink:href="#DejaVuSans-64" x="362.158203"/>
      <use xlink:href="#DejaVuSans-20" x="425.634766"/>
      <use xlink:href="#DejaVuSans-32" x="457.421875"/>
      <use xlink:href="#DejaVuSans-30" x="521.044922"/>
      <use xlink:href="#DejaVuSans-32" x="584.667969"/>
      <use xlink:href="#DejaVuSans-33" x="648.291016"/>
      <use xlink:href="#DejaVuSans-2d" x="711.914062"/>
      <use xlink:href="#DejaVuSans-30" x="747.998047"/>
      <use xlink:href="#DejaVuSans-37" x="811.621094"/>
      <use xlink:href="#DejaVuSans-2d" x="875.244141"/>
      <use xlink:href="#DejaVuSans-30" x="911.328125"/>
      <use xlink:href="#DejaVuSans-31" x="974.951172"/>
      <use xlink:href="#DejaVuSans-20" x="1038.574219"/>
      <use xlink:href="#DejaVuSans-30" x="1070.361328"/>
      <use xlink:href="#DejaVuSans-35" x="1133.984375"/>
      <use xlink:href="#DejaVuSans-3a" x="1197.607422"/>
      <use xlink:href="#DejaVuSans-33" x="1231.298828"/>
      <use xlink:href="#DejaVuSans-31" x="1294.921875"/>
      <use xlink:href="#DejaVuSans-3a" x="1358.544922"/>
      <use xlink:href="#DejaVuSans-35" x="1392.236328"/>
      <use xlink:href="#DejaVuSans-36" x="1455.859375"/>
      <use xlink:href="#DejaVuSans-2e" x="1519.482422"/>
      <use xlink:href="#DejaVuSans-34" x="1551.269531"/>
      <use xlink:href="#DejaVuSans-37" x="1614.892578"/>
      <use xlink:href="#DejaVuSans-30" x="1678.515625"/>
      <use xlink:href="#DejaVuSans-37" x="1742.138672"/>
      <use xlink:href="#DejaVuSans-35" x="1805.761719"/>
      <use xlink:href="#DejaVuSans-35" x="1869.384766"/>
      <use xlink:href="#DejaVuSans-20" x="1933.007812"/>
      <use xlink:href="#DejaVuSans-2d" x="1964.794922"/>
      <use xlink:href="#DejaVuSans-20" x="2000.878906"/>
      <use xlink:href="#DejaVuSans-4c" x="2032.666016"/>
      <use xlink:href="#DejaVuSans-61" x="2088.378906"/>
      <use xlink:href="#DejaVuSans-73" x="2149.658203"/>
      <use xlink:href="#DejaVuSans-74" x="2201.757812"/>
      <use xlink:href="#DejaVuSans-20" x="2240.966797"/>
      <use xlink:href="#DejaVuSans-72" x="2272.753906"/>
      <use xlink:href="#DejaVuSans-65" x="2311.617188"/>
      <use xlink:href="#DejaVuSans-63" x="2373.140625"/>
      <use xlink:href="#DejaVuSans-6f" x="2428.121094"/>
      <use xlink:href="#DejaVuSans-72" x="2489.302734"/>
      <use xlink:href="#DejaVuSans-64" x="2528.666016"/>
      <use xlink:href="#DejaVuSans-20" x="2592.142578"/>
      <use xlink:href="#DejaVuSans-32" x="2623.929688"/>
      <use xlink:href="#DejaVuSans-30" x="2687.552734"/>
      <use xlink:href="#DejaVuSans-32" x="2751.175781"/>
      <use xlink:href="#DejaVuSans-33" x="2814.798828"/>
      <use xlink:href="#DejaVuSans-2d" x="2878.421875"/>
      <use xlink:href="#DejaVuSans-30" x="2914.505859"/>
      <use xlink:href="#DejaVuSans-36" x="2978.128906"/>
      <use xlink:href="#DejaVuSans-2d" x="3041.751953"/>
      <use xlink:href="#DejaVuSans-32" x="3077.835938"/>
      <use xlink:href="#DejaVuSans-39" x="3141.458984"/>
     </g>
    </g>
   </g>
   <g id="matplotlib.axis_2">
    <g id="ytick_1">
     <g id="line2d_10">
      <defs>
       <path id="m39b4b3dde3" d="M 0 0 
L -3.5 0 
" style="stroke: #000000; stroke-width: 0.8"/>
      </defs>
      <g>
       <use xlink:href="#m39b4b3dde3" x="57.6" y="295.564326" style="stroke: #000000; stroke-width: 0.8"/>
      </g>
     </g>
     <g id="text_11">
      <!-- 0 -->
      <g transform="translate(44.2375 299.363545) scale(0.1 -0.1)">
       <use xlink:href="#DejaVuSans-30"/>
      </g>
     </g>
    </g>
    <g id="ytick_2">
     <g id="line2d_11">
      <g>
       <use xlink:href="#m39b4b3dde3" x="57.6" y="240.653514" style="stroke: #000000; stroke-width: 0.8"/>
      </g>
     </g>
     <g id="text_12">
      <!-- 10 -->
      <g transform="translate(37.875 244.452733) scale(0.1 -0.1)">
       <use xlink:href="#DejaVuSans-31"/>
       <use xlink:href="#DejaVuSans-30" x="63.623047"/>
      </g>
     </g>
    </g>
    <g id="ytick_3">
     <g id="line2d_12">
      <g>
       <use xlink:href="#m39b4b3dde3" x="57.6" y="185.742702" style="stroke: #000000; stroke-width: 0.8"/>
      </g>
     </g>
     <g id="text_13">
      <!-- 20 -->
      <g transform="translate(37.875 189.54192) scale(0.1 -0.1)">
       <use xlink:href="#DejaVuSans-32"/>
       <use xlink:href="#DejaVuSans-30" x="63.623047"/>
      </g>
     </g>
    </g>
    <g id="ytick_4">
     <g id="line2d_13">
      <g>
       <use xlink:href="#m39b4b3dde3" x="57.6" y="130.831889" style="stroke: #000000; stroke-width: 0.8"/>
      </g>
     </g>
     <g id="text_14">
      <!-- 30 -->
      <g transform="translate(37.875 134.631108) scale(0.1 -0.1)">
       <use xlink:href="#DejaVuSans-33"/>
       <use xlink:href="#DejaVuSans-30" x="63.623047"/>
      </g>
     </g>
    </g>
    <g id="ytick_5">
     <g id="line2d_14">
      <g>
       <use xlink:href="#m39b4b3dde3" x="57.6" y="75.921077" style="stroke: #000000; stroke-width: 0.8"/>
      </g>
     </g>
     <g id="text_15">
      <!-- 40 -->
      <g transform="translate(37.875 79.720296) scale(0.1 -0.1)">
       <use xlink:href="#DejaVuSans-34"/>
       <use xlink:href="#DejaVuSans-30" x="63.623047"/>
      </g>
     </g>
    </g>
    <g id="text_16">
     <!-- IPv6 as % of total Google traffic -->
     <g transform="translate(31.795312 253.735813) rotate(-90) scale(0.1 -0.1)">
      <defs>
       <path id="DejaVuSans-49" d="M 628 4666 
L 1259 4666 
L 1259 0 
L 628 0 
L 628 4666 
z
" transform="scale(0.015625)"/>
       <path id="DejaVuSans-50" d="M 1259 4147 
L 1259 2394 
L 2053 2394 
Q 2494 2394 2734 2622 
Q 2975 2850 2975 3272 
Q 2975 3691 2734 3919 
Q 2494 4147 2053 4147 
L 1259 4147 
z
M 628 4666 
L 2053 4666 
Q 2838 4666 3239 4311 
Q 3641 3956 3641 3272 
Q 3641 2581 3239 2228 
Q 2838 1875 2053 1875 
L 1259 1875 
L 1259 0 
L 628 0 
L 628 4666 
z
" transform="scale(0.015625)"/>
       <path id="DejaVuSans-76" d="M 191 3500 
L 800 3500 
L 1894 563 
L 2988 3500 
L 3597 3500 
L 2284 0 
L 1503 0 
L 191 3500 
z
" transform="scale(0.015625)"/>
       <path id="DejaVuSans-25" d="M 4653 2053 
Q 4381 2053 4226 1822 
Q 4072 1591 4072 1178 
Q 4072 772 4226 539 
Q 4381 306 4653 306 
Q 4919 306 5073 539 
Q 5228 772 5228 1178 
Q 5228 1588 5073 1820 
Q 4919 2053 4653 2053 
z
M 4653 2450 
Q 5147 2450 5437 2106 
Q 5728 1763 5728 1178 
Q 5728 594 5436 251 
Q 5144 -91 4653 -91 
Q 4153 -91 3862 251 
Q 3572 594 3572 1178 
Q 3572 1766 3864 2108 
Q 4156 2450 4653 2450 
z
M 1428 4353 
Q 1159 4353 1004 4120 
Q 850 3888 850 3481 
Q 850 3069 1003 2837 
Q 1156 2606 1428 2606 
Q 1700 2606 1854 2837 
Q 2009 3069 2009 3481 
Q 2009 3884 1853 4118 
Q 1697 4353 1428 4353 
z
M 4250 4750 
L 4750 4750 
L 1831 -91 
L 1331 -91 
L 4250 4750 
z
M 1428 4750 
Q 1922 4750 2215 4408 
Q 2509 4066 2509 3481 
Q 2509 2891 2217 2550 
Q 1925 2209 1428 2209 
Q 931 2209 642 2551 
Q 353 2894 353 3481 
Q 353 4063 643 4406 
Q 934 4750 1428 4750 
z
" transform="scale(0.015625)"/>
       <path id="DejaVuSans-66" d="M 2375 4863 
L 2375 4384 
L 1825 4384 
Q 1516 4384 1395 4259 
Q 1275 4134 1275 3809 
L 1275 3500 
L 2222 3500 
L 2222 3053 
L 1275 3053 
L 1275 0 
L 697 0 
L 697 3053 
L 147 3053 
L 147 3500 
L 697 3500 
L 697 3744 
Q 697 4328 969 4595 
Q 1241 4863 1831 4863 
L 2375 4863 
z
" transform="scale(0.015625)"/>
       <path id="DejaVuSans-6c" d="M 603 4863 
L 1178 4863 
L 1178 0 
L 603 0 
L 603 4863 
z
" transform="scale(0.015625)"/>
       <path id="DejaVuSans-47" d="M 3809 666 
L 3809 1919 
L 2778 1919 
L 2778 2438 
L 4434 2438 
L 4434 434 
Q 4069 175 3628 42 
Q 3188 -91 2688 -91 
Q 1594 -91 976 548 
Q 359 1188 359 2328 
Q 359 3472 976 4111 
Q 1594 4750 2688 4750 
Q 3144 4750 3555 4637 
Q 3966 4525 4313 4306 
L 4313 3634 
Q 3963 3931 3569 4081 
Q 3175 4231 2741 4231 
Q 1884 4231 1454 3753 
Q 1025 3275 1025 2328 
Q 1025 1384 1454 906 
Q 1884 428 2741 428 
Q 3075 428 3337 486 
Q 3600 544 3809 666 
z
" transform="scale(0.015625)"/>
       <path id="DejaVuSans-67" d="M 2906 1791 
Q 2906 2416 2648 2759 
Q 2391 3103 1925 3103 
Q 1463 3103 1205 2759 
Q 947 2416 947 1791 
Q 947 1169 1205 825 
Q 1463 481 1925 481 
Q 2391 481 2648 825 
Q 2906 1169 2906 1791 
z
M 3481 434 
Q 3481 -459 3084 -895 
Q 2688 -1331 1869 -1331 
Q 1566 -1331 1297 -1286 
Q 1028 -1241 775 -1147 
L 775 -588 
Q 1028 -725 1275 -790 
Q 1522 -856 1778 -856 
Q 2344 -856 2625 -561 
Q 2906 -266 2906 331 
L 2906 616 
Q 2728 306 2450 153 
Q 2172 0 1784 0 
Q 1141 0 747 490 
Q 353 981 353 1791 
Q 353 2603 747 3093 
Q 1141 3584 1784 3584 
Q 2172 3584 2450 3431 
Q 2728 3278 2906 2969 
L 2906 3500 
L 3481 3500 
L 3481 434 
z
" transform="scale(0.015625)"/>
       <path id="DejaVuSans-69" d="M 603 3500 
L 1178 3500 
L 1178 0 
L 603 0 
L 603 3500 
z
M 603 4863 
L 1178 4863 
L 1178 4134 
L 603 4134 
L 603 4863 
z
" transform="scale(0.015625)"/>
      </defs>
      <use xlink:href="#DejaVuSans-49"/>
      <use xlink:href="#DejaVuSans-50" x="29.492188"/>
      <use xlink:href="#DejaVuSans-76" x="89.794922"/>
      <use xlink:href="#DejaVuSans-36" x="148.974609"/>
      <use xlink:href="#DejaVuSans-20" x="212.597656"/>
      <use xlink:href="#DejaVuSans-61" x="244.384766"/>
      <use xlink:href="#DejaVuSans-73" x="305.664062"/>
      <use xlink:href="#DejaVuSans-20" x="357.763672"/>
      <use xlink:href="#DejaVuSans-25" x="389.550781"/>
      <use xlink:href="#DejaVuSans-20" x="484.570312"/>
      <use xlink:href="#DejaVuSans-6f" x="516.357422"/>
      <use xlink:href="#DejaVuSans-66" x="577.539062"/>
      <use xlink:href="#DejaVuSans-20" x="612.744141"/>
      <use xlink:href="#DejaVuSans-74" x="644.53125"/>
      <use xlink:href="#DejaVuSans-6f" x="683.740234"/>
      <use xlink:href="#DejaVuSans-74" x="744.921875"/>
      <use xlink:href="#DejaVuSans-61" x="784.130859"/>
      <use xlink:href="#DejaVuSans-6c" x="845.410156"/>
      <use xlink:href="#DejaVuSans-20" x="873.193359"/>
      <use xlink:href="#DejaVuSans-47" x="904.980469"/>
      <use xlink:href="#DejaVuSans-6f" x="982.470703"/>
      <use xlink:href="#DejaVuSans-6f" x="1043.652344"/>
      <use xlink:href="#DejaVuSans-67" x="1104.833984"/>
      <use xlink:href="#DejaVuSans-6c" x="1168.310547"/>
      <use xlink:href="#DejaVuSans-65" x="1196.09375"/>
      <use xlink:href="#DejaVuSans-20" x="1257.617188"/>
      <use xlink:href="#DejaVuSans-74" x="1289.404297"/>
      <use xlink:href="#DejaVuSans-72" x="1328.613281"/>
      <use xlink:href="#DejaVuSans-61" x="1369.726562"/>
      <use xlink:href="#DejaVuSans-66" x="1431.005859"/>
      <use xlink:href="#DejaVuSans-66" x="1466.210938"/>
      <use xlink:href="#DejaVuSans-69" x="1501.416016"/>
      <use xlink:href="#DejaVuSans-63" x="1529.199219"/>
     </g>
    </g>
   </g>
   <g id="line2d_15">
    <path d="M 73.832727 294.563889 
L 75.512699 294.39433 
L 75.932692 294.55579 
L 77.612664 294.555082 
L 79.292636 294.407904 
L 79.712628 294.277755 
L 80.972607 294.299346 
L 82.232586 294.267981 
L 82.652579 294.341259 
L 84.332551 294.191523 
L 86.012523 294.249959 
L 87.692494 294.172436 
L 91.052438 294.239652 
L 91.472431 294.34529 
L 93.572396 294.319624 
L 94.832374 294.269205 
L 96.512346 294.170646 
L 97.352332 294.179646 
L 97.772325 293.912318 
L 100.292283 293.820617 
L 101.132269 293.78543 
L 103.232233 293.870536 
L 105.332198 293.922372 
L 107.432163 293.888734 
L 108.692142 294.08348 
L 109.95212 294.029657 
L 110.372113 294.015671 
L 111.212099 294.205003 
L 113.312064 294.222306 
L 114.572043 294.341221 
L 116.672008 294.252128 
L 117.511993 294.144223 
L 117.931986 294.055278 
L 118.771972 294.050896 
L 121.711923 293.986266 
L 122.551909 294.0794 
L 122.971902 293.948213 
L 125.491859 294.191545 
L 128.851803 294.016247 
L 129.271796 294.022112 
L 129.691789 293.897245 
L 130.531775 294.001691 
L 131.371761 293.807822 
L 131.791753 293.856018 
L 132.211746 293.736999 
L 132.631739 293.789109 
L 133.471725 293.678359 
L 134.731704 293.662594 
L 135.151697 293.79924 
L 136.831669 293.830105 
L 137.251662 293.894109 
L 138.091648 293.805972 
L 138.511641 293.625678 
L 140.191612 293.526943 
L 140.611605 293.625293 
L 144.391542 293.300408 
L 145.231528 293.09966 
L 146.071514 293.251307 
L 148.591471 292.855718 
L 150.691436 292.713818 
L 151.111429 292.503822 
L 151.531422 292.584745 
L 151.951415 292.398855 
L 154.471372 292.014067 
L 156.571337 291.520271 
L 157.831316 291.393328 
L 158.251309 291.497022 
L 160.351274 291.107001 
L 161.611252 290.721637 
L 162.031245 290.779941 
L 162.451238 290.433992 
L 162.871231 290.267113 
L 164.551203 290.065898 
L 164.971196 290.228165 
L 165.391189 290.070389 
L 166.231175 289.983575 
L 166.651168 289.731233 
L 167.491154 289.562854 
L 169.171125 289.545316 
L 170.011111 289.330214 
L 171.27109 289.171719 
L 171.691083 288.964491 
L 172.111076 288.944504 
L 172.531069 289.051657 
L 174.211041 288.276947 
L 174.631034 288.294695 
L 176.311006 287.807548 
L 176.730998 287.481081 
L 177.150991 287.406177 
L 177.570984 287.204144 
L 177.990977 287.237046 
L 179.250956 286.740933 
L 179.670949 286.828658 
L 180.090942 286.584464 
L 180.510935 286.541546 
L 182.6109 285.394322 
L 183.450886 285.045062 
L 184.290871 284.433377 
L 185.55085 282.921617 
L 185.970843 283.162406 
L 186.390836 283.204061 
L 187.650815 281.767825 
L 188.070808 281.595608 
L 188.490801 280.869649 
L 189.330787 280.643191 
L 190.170773 280.159982 
L 190.590766 280.21034 
L 191.850744 279.417588 
L 192.270737 279.249209 
L 192.69073 278.937821 
L 193.530716 278.864037 
L 193.950709 278.158631 
L 194.370702 278.149334 
L 194.790695 277.373791 
L 195.210688 276.97214 
L 196.050674 277.08742 
L 196.470667 276.80028 
L 196.89066 276.357968 
L 197.730646 275.84308 
L 198.150639 275.382785 
L 198.570632 275.664994 
L 200.250603 274.761881 
L 200.670596 274.427952 
L 201.090589 273.055714 
L 201.510582 273.316019 
L 202.350568 272.384204 
L 202.770561 272.344196 
L 203.190554 272.747028 
L 204.450533 271.830423 
L 204.870526 271.208591 
L 205.710512 271.256534 
L 206.130505 270.583695 
L 206.550497 270.537384 
L 206.97049 266.972832 
L 207.390483 269.318122 
L 207.810476 270.715251 
L 208.230469 270.036372 
L 208.650462 269.656998 
L 209.070455 269.595861 
L 209.490448 268.702994 
L 209.910441 268.423224 
L 211.17042 266.485284 
L 211.590413 265.219925 
L 212.010406 264.497694 
L 212.430399 263.517157 
L 212.850392 262.869769 
L 213.270385 263.903674 
L 213.690378 263.745449 
L 214.11037 263.774074 
L 214.530363 263.941096 
L 214.950356 264.252967 
L 215.370349 264.133981 
L 215.790342 261.853848 
L 216.210335 262.19111 
L 217.470314 260.989629 
L 217.890307 260.827916 
L 218.730293 260.899015 
L 219.150286 259.17543 
L 219.570279 259.112656 
L 220.410265 257.752444 
L 220.830258 258.216193 
L 221.25025 256.093171 
L 221.670243 256.594979 
L 222.090236 255.161812 
L 222.510229 254.475537 
L 222.930222 253.44507 
L 223.350215 254.160668 
L 223.770208 253.076679 
L 224.190201 251.273331 
L 224.610194 252.18205 
L 225.030187 252.441103 
L 225.45018 251.881331 
L 225.870173 250.232414 
L 226.290166 250.690452 
L 226.710159 249.234624 
L 227.130152 249.569986 
L 227.970138 247.606464 
L 228.390131 246.611793 
L 229.650109 246.299504 
L 230.070102 245.150967 
L 230.490095 245.290732 
L 230.910088 244.85988 
L 231.330081 243.721551 
L 231.750074 243.432638 
L 232.170067 242.159827 
L 232.59006 241.287272 
L 233.010053 241.133495 
L 233.430046 241.348267 
L 233.850039 240.79307 
L 234.270032 238.427951 
L 235.110018 239.815251 
L 235.530011 239.548758 
L 236.369996 239.468901 
L 236.789989 239.515888 
L 237.629975 239.230528 
L 238.049968 237.89983 
L 238.469961 237.836836 
L 238.889954 236.656709 
L 239.309947 236.653393 
L 239.72994 236.47412 
L 240.989919 233.098857 
L 241.409912 231.110866 
L 241.829905 232.468464 
L 242.249898 231.89944 
L 242.669891 230.723278 
L 243.089884 230.985082 
L 243.509877 228.473999 
L 243.929869 228.842407 
L 244.349862 228.534505 
L 244.769855 226.782362 
L 245.189848 226.765779 
L 245.609841 225.459747 
L 246.029834 225.774216 
L 246.449827 224.741211 
L 246.86982 224.192449 
L 247.289813 224.483987 
L 247.709806 223.776654 
L 248.129799 222.673171 
L 248.549792 223.025924 
L 248.969785 222.502575 
L 249.389778 220.766037 
L 249.809771 220.039841 
L 250.229764 220.107771 
L 250.649757 218.077054 
L 251.06975 218.438181 
L 251.909735 216.019497 
L 252.329728 213.605947 
L 252.749721 213.844496 
L 253.589707 212.487342 
L 254.0097 210.966686 
L 254.429693 211.169977 
L 254.849686 210.532687 
L 255.269679 208.128297 
L 255.689672 207.284707 
L 256.109665 203.298336 
L 256.529658 205.890132 
L 256.949651 205.420227 
L 257.369644 206.03832 
L 257.789637 205.312503 
L 258.629622 206.49129 
L 259.049615 206.256294 
L 259.469608 205.222977 
L 259.889601 205.533739 
L 260.729587 204.217675 
L 261.14958 203.127168 
L 261.569573 202.954227 
L 261.989566 202.21706 
L 262.409559 199.566213 
L 262.829552 200.39804 
L 263.249545 196.843268 
L 263.669538 197.118437 
L 264.089531 195.186197 
L 264.509524 193.995231 
L 264.929517 193.278156 
L 265.34951 192.783547 
L 265.769503 191.804811 
L 266.189495 190.012231 
L 266.609488 187.056772 
L 267.029481 187.803092 
L 268.709453 184.437043 
L 269.129446 183.88346 
L 269.549439 183.904414 
L 269.969432 184.209405 
L 270.389425 183.162118 
L 270.809418 181.694341 
L 271.229411 183.009269 
L 271.649404 183.034649 
L 272.069397 184.206099 
L 272.48939 182.924086 
L 272.909383 180.930894 
L 273.329376 181.186296 
L 273.749368 180.325799 
L 275.009347 178.95735 
L 275.849333 177.952181 
L 276.269326 177.843298 
L 276.689319 192.417907 
L 277.109312 175.993045 
L 277.529305 175.204696 
L 277.949298 171.221729 
L 278.369291 174.916991 
L 279.209277 174.377042 
L 279.62927 174.374428 
L 280.049263 173.879918 
L 280.469256 173.636218 
L 280.889249 174.990006 
L 281.309241 175.848256 
L 281.729234 175.639617 
L 282.149227 174.476875 
L 282.56922 174.560367 
L 283.829199 173.582631 
L 284.249192 170.970468 
L 284.669185 172.001496 
L 285.089178 169.235001 
L 285.509171 170.401527 
L 285.929164 168.079425 
L 286.349157 166.629522 
L 286.76915 167.484423 
L 287.189143 165.70635 
L 287.609136 164.525735 
L 288.029129 164.274693 
L 288.449121 165.239888 
L 288.869114 165.749027 
L 290.129093 163.141428 
L 290.549086 163.741103 
L 290.969079 164.605306 
L 291.389072 164.772883 
L 291.809065 162.795122 
L 292.229058 162.05846 
L 292.649051 160.624766 
L 293.069044 160.271525 
L 293.489037 160.070738 
L 293.90903 160.220771 
L 294.329023 160.031658 
L 295.169009 158.062249 
L 295.589002 159.211236 
L 296.008994 155.571494 
L 296.428987 155.665112 
L 296.84898 155.221268 
L 297.268973 152.566632 
L 297.688966 151.770129 
L 298.108959 151.291383 
L 298.528952 151.29487 
L 298.948945 149.855674 
L 299.368938 149.757565 
L 300.208924 147.482039 
L 300.628917 148.984015 
L 301.04891 149.951444 
L 301.888896 147.647573 
L 302.308889 148.777539 
L 302.728882 148.570931 
L 303.148875 149.06279 
L 303.568867 147.323803 
L 303.98886 146.717049 
L 304.408853 148.031784 
L 304.828846 146.144522 
L 305.248839 146.295526 
L 305.668832 145.757186 
L 306.508818 145.548492 
L 306.928811 141.820553 
L 307.348804 141.711962 
L 307.768797 142.006179 
L 308.18879 142.907881 
L 309.028776 138.557467 
L 309.448769 136.638318 
L 309.868762 136.151204 
L 310.288755 136.318517 
L 310.708748 135.968252 
L 311.12874 134.06188 
L 311.548733 135.633977 
L 311.968726 133.960147 
L 312.388719 135.513415 
L 312.808712 134.399939 
L 313.228705 133.725931 
L 313.648698 133.669724 
L 314.068691 133.74566 
L 314.488684 132.29417 
L 314.908677 132.459089 
L 315.32867 134.030021 
L 315.748663 133.497727 
L 316.168656 134.142105 
L 316.588649 134.405474 
L 317.008642 132.392229 
L 317.428635 133.597972 
L 317.848628 133.921973 
L 318.26862 133.173742 
L 318.688613 132.716571 
L 319.108606 130.913174 
L 319.528599 131.293794 
L 319.948592 130.901291 
L 320.368585 131.031457 
L 320.788578 129.982748 
L 321.208571 129.524002 
L 321.628564 128.196604 
L 322.048557 127.616405 
L 322.46855 128.436652 
L 322.888543 128.680533 
L 323.308536 128.7354 
L 324.148522 126.847731 
L 324.568515 127.300262 
L 324.988508 125.923763 
L 325.408501 126.519518 
L 325.828493 126.262063 
L 326.248486 125.30997 
L 326.668479 125.542644 
L 327.088472 126.196686 
L 327.508465 125.898521 
L 327.928458 125.914104 
L 328.348451 123.440938 
L 329.188437 121.680129 
L 329.60843 121.970855 
L 330.028423 121.355282 
L 330.448416 119.306511 
L 330.868409 119.969257 
L 331.288402 117.029282 
L 331.708395 119.382123 
L 332.128388 117.434365 
L 332.548381 114.771805 
L 332.968374 115.550682 
L 333.388366 113.888181 
L 333.808359 112.766358 
L 334.228352 112.873676 
L 334.648345 112.032047 
L 335.068338 114.14194 
L 335.488331 112.384207 
L 335.908324 113.04329 
L 336.328317 113.429983 
L 337.588296 110.733137 
L 338.008289 112.978468 
L 338.428282 113.023456 
L 338.848275 112.030872 
L 339.268268 112.593318 
L 339.688261 113.956978 
L 340.108254 112.896415 
L 340.528247 110.428745 
L 340.948239 114.525366 
L 341.368232 113.42184 
L 341.788225 111.824561 
L 342.208218 113.164478 
L 342.628211 113.261291 
L 343.048204 111.073172 
L 343.468197 109.983473 
L 343.88819 107.985801 
L 344.308183 108.959979 
L 344.728176 108.221928 
L 345.148169 108.449567 
L 345.568162 109.07493 
L 345.988155 107.478041 
L 346.408148 106.823312 
L 346.828141 108.007156 
L 347.248134 107.712093 
L 347.668127 105.15036 
L 348.088119 104.58686 
L 348.508112 102.843409 
L 348.928105 105.706393 
L 349.348098 106.655905 
L 349.768091 105.722471 
L 350.188084 105.543961 
L 350.608077 105.690353 
L 351.02807 100.640777 
L 351.448063 104.016447 
L 351.868056 102.071259 
L 352.708042 103.055266 
L 353.128035 98.272781 
L 353.548028 97.661569 
L 353.968021 95.737763 
L 354.388014 95.661196 
L 354.808007 97.40133 
L 355.228 95.001629 
L 355.647992 94.529923 
L 356.067985 93.290674 
L 356.487978 92.842508 
L 356.907971 91.434502 
L 357.327964 91.645013 
L 357.747957 95.058692 
L 358.16795 93.21784 
L 358.587943 92.052254 
L 359.007936 94.269042 
L 359.427929 93.043158 
L 359.847922 92.61163 
L 360.267915 90.841745 
L 361.107901 93.658626 
L 361.527894 93.349264 
L 361.947887 93.790906 
L 362.36788 93.650977 
L 362.787873 92.063999 
L 363.207865 93.89891 
L 363.627858 91.694384 
L 364.047851 90.914771 
L 364.467844 90.833091 
L 365.30783 88.088561 
L 365.727823 85.02608 
L 366.147816 87.114679 
L 366.567809 91.01568 
L 366.987802 86.621547 
L 367.407795 86.415126 
L 367.827788 89.363831 
L 368.667774 85.439174 
L 369.087767 85.386713 
L 369.50776 86.215234 
L 369.927753 86.181426 
L 370.347746 86.815893 
L 370.767738 79.357044 
L 371.187731 78.560782 
L 371.607724 78.783133 
L 372.027717 77.258737 
L 372.44771 76.758747 
L 372.867703 74.107483 
L 373.287696 77.476288 
L 373.707689 78.789832 
L 374.127682 75.907887 
L 374.547675 77.806928 
L 374.967668 74.577486 
L 375.387661 72.933177 
L 375.807654 68.944098 
L 376.227647 70.017489 
L 376.64764 64.107082 
L 377.067633 66.501363 
L 377.907618 70.142038 
L 378.327611 68.418882 
L 378.747604 68.755018 
L 379.167597 69.47793 
L 379.58759 69.330747 
L 380.007583 71.431591 
L 380.427576 70.452279 
L 380.847569 68.917016 
L 381.267562 69.271131 
L 381.687555 67.697749 
L 382.107548 68.0975 
L 382.527541 66.173249 
L 382.947534 67.531622 
L 383.367527 71.196803 
L 383.78752 68.730336 
L 384.207513 64.991058 
L 384.627506 68.089933 
L 385.047499 66.28977 
L 385.467491 68.159483 
L 385.887484 66.47114 
L 386.307477 66.447133 
L 387.567456 59.947192 
L 387.987449 62.859442 
L 388.407442 62.636757 
L 388.827435 61.179017 
L 389.247428 61.608662 
L 389.667421 64.092871 
L 390.507407 61.946638 
L 390.9274 63.519635 
L 391.347393 62.634665 
L 391.767386 60.91986 
L 392.187379 60.953208 
L 393.027364 58.107839 
L 393.447357 59.349241 
L 393.86735 59.329105 
L 394.287343 56.626823 
L 394.707336 58.018878 
L 395.547322 57.785403 
L 395.967315 56.284515 
L 396.387308 57.99844 
L 396.807301 58.048882 
L 397.227294 55.03234 
L 397.647287 54.995396 
L 398.06728 53.568 
L 398.487273 66.641166 
L 398.487273 66.641166 
" clip-path="url(#pc6c4f86762)" style="fill: none; stroke: #1f77b4; stroke-width: 1.5; stroke-linecap: square"/>
   </g>
   <g id="line2d_16">
    <path d="M 73.832727 294.826297 
L 75.512699 294.686791 
L 75.932692 294.803548 
L 85.172537 294.547581 
L 86.012523 294.538713 
L 88.112487 294.472133 
L 90.212452 294.5403 
L 91.892424 294.537225 
L 97.772325 294.454337 
L 98.192318 294.257762 
L 114.15205 294.423279 
L 116.252015 294.485482 
L 121.711923 294.197739 
L 126.751838 294.378807 
L 132.631739 293.925623 
L 133.471725 293.868285 
L 134.311711 293.804879 
L 135.151697 293.903527 
L 135.991683 293.916491 
L 136.831669 293.968343 
L 138.091648 294.003387 
L 138.931634 293.697759 
L 139.771619 293.736823 
L 140.191612 293.81752 
L 141.871584 293.714738 
L 142.291577 293.769934 
L 142.71157 293.635441 
L 144.811535 293.587515 
L 145.651521 293.41616 
L 146.071514 293.414134 
L 146.491507 293.523505 
L 152.371408 292.83941 
L 153.211394 292.725333 
L 153.631387 292.716761 
L 154.05138 292.573202 
L 154.891365 292.580692 
L 156.151344 292.164979 
L 157.831316 291.87332 
L 158.251309 291.999406 
L 159.931281 291.869394 
L 165.811182 290.799204 
L 166.231175 290.846202 
L 167.071161 290.577661 
L 167.911147 290.470876 
L 168.33114 290.225403 
L 169.591118 290.504794 
L 170.431104 290.311992 
L 170.851097 290.255318 
L 171.27109 290.016791 
L 171.691083 290.034653 
L 172.111076 289.857961 
L 173.371055 289.767677 
L 173.791048 289.515724 
L 175.051027 289.260955 
L 175.47102 289.263706 
L 175.891013 289.102312 
L 176.311006 289.08591 
L 177.990977 288.585453 
L 178.830963 288.344932 
L 179.250956 288.090157 
L 179.670949 288.23471 
L 180.930928 287.726121 
L 181.770914 287.302204 
L 182.190907 286.980981 
L 183.030893 286.757834 
L 183.450886 286.860364 
L 184.290871 286.703593 
L 185.55085 285.504001 
L 185.970843 285.21584 
L 186.390836 285.29506 
L 186.810829 285.140458 
L 188.070808 284.239729 
L 188.490801 284.087318 
L 189.330787 283.359662 
L 189.75078 283.259961 
L 190.170773 281.88668 
L 190.590766 282.014896 
L 191.010759 282.929738 
L 191.430751 282.830393 
L 192.270737 282.128408 
L 192.69073 282.76276 
L 193.110723 281.941393 
L 193.530716 281.890875 
L 193.950709 281.635573 
L 194.370702 281.038439 
L 194.790695 281.068783 
L 195.630681 280.1542 
L 196.050674 280.181781 
L 196.470667 279.977436 
L 196.89066 279.23558 
L 197.310653 279.486078 
L 197.730646 278.924571 
L 198.150639 279.093004 
L 198.570632 278.890301 
L 198.990624 278.973024 
L 199.410617 278.340347 
L 199.83061 278.364733 
L 200.250603 277.719273 
L 200.670596 277.831412 
L 201.510582 276.46908 
L 201.930575 276.199484 
L 202.350568 276.113747 
L 202.770561 275.801068 
L 203.190554 275.770076 
L 203.610547 275.889766 
L 204.03054 275.867065 
L 205.290519 275.420069 
L 205.710512 275.565605 
L 206.550497 275.189515 
L 206.97049 274.541118 
L 207.390483 273.085734 
L 207.810476 274.172106 
L 208.230469 274.529746 
L 208.650462 274.154293 
L 209.070455 274.37208 
L 209.490448 273.828749 
L 210.330434 273.126214 
L 210.750427 272.429747 
L 211.17042 271.992959 
L 211.590413 271.077926 
L 212.010406 268.36979 
L 212.430399 266.635185 
L 212.850392 269.204841 
L 213.270385 269.882479 
L 213.690378 269.901115 
L 214.11037 270.171958 
L 214.530363 270.152453 
L 214.950356 270.51493 
L 215.370349 269.766897 
L 215.790342 269.89843 
L 216.210335 268.50134 
L 216.630328 268.074414 
L 217.050321 268.317136 
L 217.890307 266.923956 
L 218.3103 267.301039 
L 218.730293 267.264683 
L 219.150286 266.81571 
L 219.570279 266.164061 
L 219.990272 265.825009 
L 220.410265 265.873067 
L 221.25025 263.853123 
L 221.670243 263.258999 
L 222.090236 262.93972 
L 222.510229 261.775957 
L 222.930222 261.372884 
L 224.190201 259.026221 
L 224.610194 259.424627 
L 225.45018 259.032783 
L 226.290166 258.28045 
L 226.710159 258.607515 
L 227.550145 258.192768 
L 228.390131 257.155031 
L 229.650109 256.624587 
L 230.070102 256.628063 
L 230.490095 255.54006 
L 230.910088 255.430469 
L 231.330081 255.460286 
L 231.750074 254.903067 
L 233.010053 252.144161 
L 233.430046 251.623761 
L 233.850039 249.112486 
L 234.270032 245.569421 
L 234.690025 250.826401 
L 235.110018 251.971928 
L 235.530011 251.652084 
L 235.950004 251.088067 
L 236.369996 251.164821 
L 236.789989 251.4553 
L 237.629975 250.268606 
L 238.469961 249.72713 
L 238.889954 249.289178 
L 239.309947 248.038617 
L 239.72994 247.748518 
L 240.149933 247.677623 
L 240.989919 246.571038 
L 241.409912 245.255666 
L 241.829905 244.435897 
L 242.249898 244.952536 
L 243.089884 243.336802 
L 243.509877 241.850432 
L 243.929869 241.418103 
L 244.349862 241.206663 
L 245.189848 238.823062 
L 245.609841 236.966741 
L 246.029834 237.779669 
L 246.449827 237.626434 
L 246.86982 236.692374 
L 247.289813 236.061949 
L 247.709806 235.900544 
L 248.129799 236.014676 
L 248.549792 237.302889 
L 248.969785 236.642372 
L 249.389778 236.937968 
L 249.809771 236.236724 
L 250.229764 236.312951 
L 250.649757 235.524234 
L 251.489742 233.318258 
L 251.909735 233.539835 
L 252.749721 230.419775 
L 253.169714 231.159088 
L 253.589707 230.584513 
L 254.0097 229.224734 
L 254.429693 229.123775 
L 254.849686 228.211158 
L 255.269679 227.691542 
L 255.689672 224.067126 
L 256.109665 215.704199 
L 256.529658 221.724538 
L 256.949651 224.934618 
L 257.369644 225.27372 
L 258.20963 224.920336 
L 258.629622 225.018429 
L 259.049615 224.973495 
L 259.469608 223.974322 
L 259.889601 223.72495 
L 260.309594 224.036195 
L 261.14958 222.867232 
L 261.989566 220.76837 
L 262.409559 218.469507 
L 262.829552 219.24286 
L 263.249545 219.128333 
L 263.669538 214.959086 
L 264.089531 215.873478 
L 264.929517 213.091707 
L 265.34951 210.415162 
L 265.769503 210.3187 
L 266.189495 209.952154 
L 267.029481 205.289902 
L 267.449474 204.980584 
L 267.869467 204.292189 
L 268.28946 203.956003 
L 269.129446 201.29525 
L 269.549439 201.067167 
L 269.969432 200.988376 
L 270.389425 202.154928 
L 270.809418 202.289284 
L 271.229411 203.278975 
L 271.649404 203.969319 
L 272.48939 204.519492 
L 272.909383 202.159733 
L 273.329376 201.564582 
L 273.749368 202.07925 
L 274.169361 201.028658 
L 274.589354 199.095589 
L 275.009347 200.778111 
L 275.42934 201.44508 
L 275.849333 199.45442 
L 276.269326 199.209567 
L 276.689319 198.088503 
L 277.109312 192.417907 
L 277.529305 194.688551 
L 277.949298 185.310581 
L 278.789284 196.445939 
L 279.209277 195.001043 
L 279.62927 196.519119 
L 280.049263 195.955596 
L 280.469256 195.861984 
L 280.889249 194.391764 
L 281.309241 196.873612 
L 281.729234 197.560909 
L 282.149227 196.917425 
L 282.56922 195.507914 
L 282.989213 195.02739 
L 283.409206 193.927147 
L 283.829199 193.850519 
L 284.249192 195.798041 
L 284.669185 194.684889 
L 285.089178 193.101947 
L 285.509171 190.877252 
L 285.929164 190.66573 
L 286.349157 189.745749 
L 286.76915 189.85813 
L 287.189143 187.489865 
L 287.609136 187.435234 
L 288.029129 185.8053 
L 288.449121 185.545824 
L 288.869114 185.048437 
L 289.289107 183.491106 
L 290.129093 183.503977 
L 290.969079 182.873842 
L 291.389072 183.8105 
L 291.809065 182.222605 
L 292.229058 181.377253 
L 292.649051 184.404179 
L 293.069044 184.554629 
L 293.489037 184.411411 
L 293.90903 184.502821 
L 294.329023 184.426517 
L 294.749016 182.910912 
L 295.169009 183.272335 
L 295.589002 183.884426 
L 296.008994 183.20887 
L 296.428987 180.107963 
L 296.84898 180.957817 
L 297.268973 180.534021 
L 297.688966 177.237615 
L 298.108959 178.850417 
L 299.368938 174.549627 
L 299.788931 161.103358 
L 300.208924 166.260982 
L 300.628917 174.018101 
L 301.04891 175.441796 
L 301.888896 174.066472 
L 302.308889 172.717681 
L 302.728882 173.726069 
L 303.148875 173.439934 
L 303.568867 174.501157 
L 303.98886 172.105404 
L 304.408853 174.221485 
L 305.248839 172.024169 
L 305.668832 171.993309 
L 306.088825 172.649784 
L 306.508818 169.903573 
L 306.928811 169.43922 
L 307.348804 167.139956 
L 307.768797 169.251524 
L 308.18879 170.594483 
L 308.608783 168.01541 
L 309.448769 160.822945 
L 309.868762 162.394855 
L 310.288755 161.099948 
L 310.708748 160.392752 
L 311.12874 158.713112 
L 311.548733 159.411506 
L 311.968726 159.606747 
L 312.388719 159.431252 
L 312.808712 158.872787 
L 313.228705 157.982107 
L 313.648698 155.496179 
L 314.068691 158.637116 
L 314.488684 159.52633 
L 314.908677 159.693616 
L 315.32867 161.10696 
L 315.748663 161.891306 
L 316.588649 161.600098 
L 317.008642 162.145033 
L 317.428635 161.830641 
L 317.848628 162.543465 
L 318.688613 159.667347 
L 319.108606 161.477592 
L 319.528599 160.862607 
L 319.948592 159.331941 
L 320.368585 159.501033 
L 320.788578 158.763844 
L 321.208571 156.468545 
L 321.628564 143.779052 
L 322.048557 143.441224 
L 322.46855 155.861918 
L 322.888543 157.603491 
L 323.308536 157.960049 
L 323.728529 156.761351 
L 324.148522 155.142388 
L 324.988508 153.328278 
L 325.408501 153.276903 
L 325.828493 153.878781 
L 326.248486 153.447616 
L 326.668479 143.762331 
L 327.088472 139.535237 
L 327.508465 137.889159 
L 327.928458 139.116448 
L 329.188437 134.815839 
L 329.60843 135.1177 
L 330.028423 137.395384 
L 330.448416 135.308186 
L 330.868409 134.511606 
L 331.288402 136.375218 
L 331.708395 137.399804 
L 332.548381 134.177984 
L 332.968374 131.110649 
L 333.388366 130.878629 
L 333.808359 129.213876 
L 334.228352 130.651809 
L 334.648345 130.454125 
L 335.068338 131.590433 
L 335.488331 130.501617 
L 335.908324 130.510694 
L 336.328317 131.470079 
L 336.74831 133.166604 
L 337.168303 132.355933 
L 337.588296 134.302533 
L 338.428282 134.439919 
L 338.848275 135.191226 
L 339.268268 133.822255 
L 339.688261 134.015481 
L 340.108254 132.932914 
L 340.528247 130.973526 
L 340.948239 133.208028 
L 341.368232 133.657709 
L 341.788225 133.439126 
L 342.208218 135.950274 
L 342.628211 133.846795 
L 343.468197 125.342796 
L 343.88819 118.578531 
L 344.728176 128.698555 
L 345.148169 127.94956 
L 345.568162 128.883851 
L 345.988155 127.726403 
L 346.828141 126.735345 
L 347.248134 126.882413 
L 347.668127 128.567225 
L 348.088119 128.150358 
L 348.508112 127.939792 
L 348.928105 125.959999 
L 349.348098 129.203839 
L 350.188084 126.14932 
L 350.608077 128.452313 
L 351.02807 127.114537 
L 351.448063 123.633433 
L 351.868056 123.975445 
L 352.288049 121.905121 
L 352.708042 120.691987 
L 353.128035 122.596668 
L 353.548028 122.981757 
L 354.388014 115.365045 
L 354.808007 115.235374 
L 355.228 114.858565 
L 355.647992 114.087123 
L 356.067985 111.286441 
L 356.487978 112.764008 
L 356.907971 111.366144 
L 357.327964 111.47322 
L 357.747957 112.739787 
L 358.16795 115.838388 
L 358.587943 116.556874 
L 359.007936 116.608462 
L 359.427929 118.162861 
L 359.847922 115.905071 
L 360.687908 117.111819 
L 361.107901 117.393264 
L 361.527894 117.162589 
L 361.947887 116.707176 
L 362.36788 119.155736 
L 362.787873 118.029137 
L 363.207865 118.567872 
L 363.627858 116.966981 
L 364.047851 118.076426 
L 364.887837 115.345904 
L 365.30783 109.903418 
L 365.727823 97.159426 
L 366.147816 104.507618 
L 366.567809 109.898564 
L 366.987802 110.248368 
L 367.407795 112.034238 
L 367.827788 110.344105 
L 368.247781 113.192603 
L 368.667774 112.186242 
L 369.087767 108.647636 
L 369.50776 110.585394 
L 369.927753 110.578755 
L 370.347746 112.953851 
L 370.767738 108.924732 
L 371.187731 102.105633 
L 371.607724 102.267005 
L 372.027717 113.006187 
L 372.44771 100.950254 
L 373.287696 97.377395 
L 373.707689 101.184795 
L 374.127682 101.001052 
L 374.547675 99.61479 
L 374.967668 96.426405 
L 375.387661 97.088256 
L 376.227647 89.238152 
L 376.64764 90.030948 
L 377.067633 89.800284 
L 377.487626 87.274453 
L 377.907618 87.180424 
L 378.327611 88.118899 
L 378.747604 86.825261 
L 379.167597 87.691912 
L 379.58759 87.797028 
L 380.007583 91.239244 
L 380.427576 92.097577 
L 381.267562 95.196315 
L 381.687555 93.067912 
L 382.107548 94.240757 
L 382.527541 94.376568 
L 382.947534 91.4351 
L 383.367527 94.738524 
L 383.78752 95.656001 
L 384.207513 92.461251 
L 384.627506 91.597087 
L 385.047499 93.960646 
L 385.467491 90.326676 
L 385.887484 93.864975 
L 386.307477 94.17722 
L 386.72747 89.66947 
L 387.567456 75.012298 
L 387.987449 82.513548 
L 388.407442 87.624504 
L 388.827435 87.547486 
L 389.247428 88.151137 
L 389.667421 86.972619 
L 390.087414 87.110478 
L 390.507407 87.856436 
L 391.347393 85.462901 
L 391.767386 88.596887 
L 392.607372 81.087635 
L 393.027364 84.926357 
L 393.447357 80.495428 
L 393.86735 83.262944 
L 394.287343 83.942652 
L 394.707336 82.607402 
L 395.127329 79.321654 
L 395.547322 84.298397 
L 395.967315 84.133637 
L 396.387308 80.588156 
L 396.807301 81.189154 
L 397.227294 80.590143 
L 397.647287 75.786584 
L 398.487273 71.053431 
L 398.487273 71.053431 
" clip-path="url(#pc6c4f86762)" style="fill: none; stroke: #ff7f0e; stroke-width: 1.5; stroke-linecap: square"/>
   </g>
   <g id="line2d_17">
    <path d="M 73.832727 295.301918 
L 80.132621 295.271294 
L 80.552614 295.340411 
L 81.3926 295.226696 
L 81.812593 295.313828 
L 82.232586 295.21204 
L 82.652579 295.313235 
L 83.912558 295.210151 
L 95.67236 295.275374 
L 96.092353 295.232764 
L 96.512346 295.330823 
L 97.772325 295.022307 
L 98.192318 295.219475 
L 107.852156 295.272612 
L 108.272149 295.408077 
L 109.532127 295.318128 
L 110.372113 295.238881 
L 111.212099 295.36987 
L 111.632092 295.387969 
L 112.052085 295.28757 
L 112.892071 295.410373 
L 113.732057 295.428367 
L 114.992036 295.432628 
L 119.191965 295.318496 
L 120.451944 295.320379 
L 120.871937 295.387634 
L 121.711923 295.352854 
L 122.551909 295.353562 
L 123.391895 295.363676 
L 123.811888 295.461368 
L 127.171831 295.364648 
L 136.831669 295.426088 
L 137.251662 295.488 
L 138.511641 295.343876 
L 138.931634 295.440535 
L 139.771619 295.29786 
L 140.191612 295.273749 
L 140.611605 295.407847 
L 141.031598 295.409203 
L 141.451591 295.286659 
L 142.71157 295.451369 
L 143.131563 295.303642 
L 144.391542 295.282787 
L 144.811535 295.136005 
L 146.071514 295.401499 
L 146.911499 295.134885 
L 147.331492 295.223412 
L 147.751485 295.10318 
L 149.011464 295.129597 
L 149.431457 295.154538 
L 149.85145 295.316794 
L 150.691436 295.233099 
L 151.111429 294.901399 
L 151.531422 295.116677 
L 151.951415 295.016173 
L 153.211394 295.208877 
L 153.631387 295.061546 
L 154.05138 295.110247 
L 154.891365 294.875997 
L 155.311358 294.931007 
L 156.151344 294.845785 
L 156.571337 294.993248 
L 157.411323 294.832046 
L 157.831316 295.084334 
L 160.771267 294.839048 
L 161.611252 294.794811 
L 162.031245 294.816314 
L 162.451238 294.594782 
L 162.871231 294.538537 
L 163.711217 294.725064 
L 164.551203 294.679685 
L 164.971196 294.949616 
L 166.651168 294.618767 
L 167.911147 294.655909 
L 168.33114 294.936789 
L 169.591118 294.46594 
L 170.431104 294.550255 
L 170.851097 294.488535 
L 171.27109 294.719254 
L 171.691083 294.494164 
L 172.531069 294.779475 
L 173.791048 294.385418 
L 175.051027 294.487717 
L 175.47102 294.268305 
L 175.891013 294.409865 
L 176.730998 294.097532 
L 177.150991 294.253034 
L 177.570984 294.14274 
L 177.990977 294.21592 
L 178.830963 294.165973 
L 179.670949 294.158274 
L 180.090942 294.046564 
L 180.510935 294.16913 
L 181.770914 293.992718 
L 182.190907 294.198134 
L 183.030893 294.040024 
L 183.450886 293.749024 
L 183.870879 293.616288 
L 184.290871 293.29411 
L 185.130857 293.248495 
L 185.55085 292.981942 
L 185.970843 293.510892 
L 186.390836 293.473328 
L 186.810829 293.169869 
L 187.230822 293.114733 
L 187.650815 292.702072 
L 188.070808 292.920206 
L 188.490801 292.346657 
L 189.330787 292.847855 
L 189.75078 292.741828 
L 190.170773 293.837628 
L 190.590766 293.75977 
L 191.010759 292.541782 
L 191.430751 292.40802 
L 191.850744 292.455633 
L 192.270737 292.685127 
L 192.69073 291.739387 
L 193.110723 292.532662 
L 193.530716 292.537488 
L 193.950709 292.087384 
L 194.370702 292.675221 
L 194.790695 291.869334 
L 195.210688 291.989978 
L 195.630681 292.439099 
L 196.050674 292.469964 
L 196.470667 292.38717 
L 196.89066 292.686714 
L 197.310653 292.186389 
L 197.730646 292.482836 
L 198.150639 291.854107 
L 198.570632 292.339019 
L 198.990624 292.053147 
L 199.410617 292.458823 
L 199.83061 292.257394 
L 200.250603 292.606934 
L 201.090589 291.578877 
L 201.510582 292.411265 
L 201.930575 292.276151 
L 202.350568 291.834784 
L 202.770561 292.107454 
L 203.190554 292.541277 
L 203.610547 292.09404 
L 204.03054 291.836107 
L 204.450533 291.709927 
L 204.870526 291.159595 
L 205.290519 291.425802 
L 205.710512 291.255255 
L 206.130505 290.782308 
L 206.550497 290.912194 
L 206.97049 287.99604 
L 207.390483 291.796714 
L 207.810476 292.107471 
L 208.230469 291.070952 
L 208.650462 291.067032 
L 209.490448 290.438572 
L 209.910441 290.483978 
L 210.330434 290.190353 
L 210.750427 290.322952 
L 211.590413 289.706325 
L 212.010406 291.69223 
L 212.430399 292.446298 
L 212.850392 289.229255 
L 213.270385 289.585521 
L 214.11037 289.166442 
L 214.530363 289.352969 
L 214.950356 289.302363 
L 215.370349 289.93141 
L 215.790342 287.519744 
L 216.210335 289.254096 
L 216.630328 289.245997 
L 217.050321 288.541211 
L 217.470314 288.907225 
L 217.890307 289.468287 
L 218.3103 289.114634 
L 218.730293 289.198658 
L 219.150286 287.924047 
L 219.570279 288.512921 
L 219.990272 288.093683 
L 220.410265 287.443703 
L 220.830258 288.94569 
L 221.25025 287.804374 
L 221.670243 288.900306 
L 222.090236 287.786418 
L 222.510229 288.263906 
L 222.930222 287.636512 
L 223.350215 289.162071 
L 223.770208 288.831695 
L 224.190201 287.811435 
L 225.030187 288.734761 
L 225.45018 288.412874 
L 225.870173 287.201305 
L 226.290166 287.974328 
L 226.710159 286.191435 
L 227.130152 286.750196 
L 227.550145 285.84604 
L 228.390131 285.021088 
L 229.230116 285.177397 
L 229.650109 285.239243 
L 230.070102 284.08723 
L 230.490095 285.314998 
L 230.910088 284.993737 
L 231.330081 283.825591 
L 231.750074 284.093897 
L 232.170067 283.830973 
L 232.59006 283.947104 
L 233.430046 285.288833 
L 233.850039 287.24491 
L 234.270032 288.422856 
L 234.690025 283.842147 
L 235.110018 283.407649 
L 235.530011 283.461 
L 235.950004 283.952941 
L 236.369996 283.868405 
L 236.789989 283.624914 
L 237.629975 284.526248 
L 238.049968 283.405804 
L 238.469961 283.674032 
L 238.889954 282.931858 
L 239.309947 284.179102 
L 239.72994 284.289928 
L 240.149933 283.168001 
L 240.989919 282.092145 
L 241.409912 281.419526 
L 241.829905 283.596893 
L 242.249898 282.51123 
L 242.669891 282.168905 
L 243.089884 283.212606 
L 243.509877 282.187893 
L 243.929869 282.98863 
L 244.349862 282.892168 
L 244.769855 282.410534 
L 245.189848 283.507043 
L 245.609841 284.057332 
L 246.029834 283.558873 
L 246.449827 282.679103 
L 246.86982 283.064401 
L 247.289813 283.986365 
L 247.709806 283.440436 
L 248.549792 281.287361 
L 248.969785 281.424528 
L 249.389778 279.392394 
L 250.229764 279.359146 
L 250.649757 278.117146 
L 251.06975 279.531516 
L 251.489742 279.32274 
L 251.909735 278.043988 
L 252.329728 277.366724 
L 252.749721 278.989047 
L 253.169714 277.560295 
L 254.0097 277.306278 
L 254.849686 277.885856 
L 255.269679 276.001081 
L 255.689672 278.781907 
L 256.109665 283.158463 
L 256.949651 276.049935 
L 257.369644 276.328926 
L 257.789637 275.748271 
L 258.20963 276.537279 
L 258.629622 277.037187 
L 259.049615 276.847125 
L 259.469608 276.812981 
L 259.889601 277.373115 
L 260.309594 276.451547 
L 260.729587 276.349534 
L 261.14958 275.824262 
L 261.569573 276.856179 
L 261.989566 277.013016 
L 262.409559 276.661032 
L 262.829552 276.719506 
L 263.249545 273.279262 
L 263.669538 277.723677 
L 264.089531 274.877045 
L 264.509524 274.928074 
L 264.929517 275.750775 
L 265.34951 277.932711 
L 265.769503 277.050437 
L 266.189495 275.624404 
L 266.609488 275.092153 
L 267.029481 278.077517 
L 267.449474 277.523005 
L 267.869467 277.532488 
L 268.28946 276.601256 
L 268.709453 277.565039 
L 269.129446 278.152536 
L 269.549439 278.401573 
L 269.969432 278.785355 
L 270.389425 276.571516 
L 270.809418 274.969383 
L 271.229411 275.29462 
L 271.649404 274.629656 
L 272.069397 275.578817 
L 272.48939 273.968919 
L 272.909383 274.335488 
L 273.329376 275.18604 
L 273.749368 273.810875 
L 274.169361 274.359555 
L 274.589354 275.792118 
L 275.009347 273.743565 
L 275.42934 272.637645 
L 275.849333 274.062087 
L 276.269326 274.198057 
L 276.689319 289.89373 
L 277.109312 279.139464 
L 277.529305 276.080471 
L 277.949298 281.475475 
L 278.369291 280.087186 
L 278.789284 273.732029 
L 279.209277 274.940325 
L 279.62927 273.419636 
L 280.049263 273.488647 
L 280.469256 273.33856 
L 280.889249 276.162568 
L 281.309241 274.538971 
L 281.729234 273.643035 
L 282.149227 273.123776 
L 282.56922 274.616779 
L 282.989213 274.784482 
L 283.409206 275.537633 
L 283.829199 275.296438 
L 284.249192 270.736754 
L 284.669185 272.880933 
L 285.089178 271.69738 
L 285.509171 275.0886 
L 285.929164 272.978021 
L 286.349157 272.448099 
L 287.189143 273.780811 
L 287.609136 272.654827 
L 288.449121 275.25839 
L 288.869114 276.264916 
L 289.289107 276.953031 
L 290.129093 275.201777 
L 290.969079 277.29579 
L 291.389072 276.526709 
L 291.809065 276.136842 
L 292.229058 276.245533 
L 292.649051 271.784913 
L 293.069044 271.281222 
L 293.489037 271.223653 
L 293.90903 271.282276 
L 294.329023 271.169467 
L 294.749016 271.708692 
L 295.169009 270.354239 
L 295.589002 270.891135 
L 296.008994 267.926951 
L 296.428987 271.121475 
L 296.84898 269.827777 
L 297.268973 267.596937 
L 297.688966 270.09684 
L 298.108959 268.005292 
L 298.528952 269.383526 
L 298.948945 269.427521 
L 299.368938 270.772265 
L 299.788931 282.910041 
L 300.628917 270.53024 
L 301.04891 270.073975 
L 301.468903 269.800634 
L 301.888896 269.145427 
L 302.308889 271.624184 
L 302.728882 270.409189 
L 303.148875 271.187182 
L 303.568867 268.386972 
L 303.98886 270.175972 
L 304.828846 268.723328 
L 305.248839 269.835684 
L 305.668832 269.328204 
L 306.088825 268.621732 
L 306.508818 271.209245 
L 306.928811 267.945659 
L 307.348804 270.136331 
L 307.768797 268.318981 
L 308.18879 267.877723 
L 308.608783 267.980231 
L 309.448769 271.379699 
L 309.868762 269.320675 
L 310.288755 270.782895 
L 310.708748 271.139827 
L 311.12874 270.913094 
L 311.548733 271.786797 
L 311.968726 269.917726 
L 312.388719 271.646489 
L 312.808712 271.091478 
L 313.228705 271.30815 
L 313.648698 273.737871 
L 314.488684 268.332165 
L 314.908677 268.329799 
L 315.32867 268.487387 
L 315.748663 267.170747 
L 316.168656 267.946131 
L 316.588649 268.369702 
L 317.008642 265.811523 
L 317.428635 267.331657 
L 317.848628 266.942834 
L 318.688613 268.61355 
L 319.108606 264.999908 
L 319.948592 267.133676 
L 320.368585 267.09475 
L 320.788578 266.78323 
L 321.208571 268.619783 
L 321.628564 279.981878 
L 322.048557 279.739508 
L 322.46855 268.13906 
L 322.888543 266.641368 
L 323.308536 266.339677 
L 323.728529 266.67907 
L 324.148522 267.269669 
L 324.568515 268.752332 
L 324.988508 268.159811 
L 325.408501 268.806941 
L 325.828493 267.947608 
L 326.248486 267.426681 
L 326.668479 277.344638 
L 327.088472 282.225776 
L 327.508465 283.573688 
L 328.348451 281.221128 
L 329.188437 282.428616 
L 329.60843 282.417481 
L 330.028423 279.524224 
L 330.448416 279.562651 
L 330.868409 281.021977 
L 331.288402 276.21839 
L 331.708395 277.546644 
L 332.128388 277.115369 
L 332.548381 276.158148 
L 332.968374 280.004359 
L 333.388366 278.573877 
L 333.808359 279.116808 
L 334.228352 277.786193 
L 334.648345 277.142248 
L 335.068338 278.115833 
L 335.488331 277.446915 
L 335.908324 278.096922 
L 336.328317 277.52423 
L 336.74831 274.987488 
L 337.168303 275.080649 
L 337.588296 271.994931 
L 338.008289 274.131983 
L 338.428282 274.147863 
L 338.848275 272.403972 
L 339.268268 274.335389 
L 339.688261 275.505824 
L 340.108254 275.527826 
L 340.528247 275.019544 
L 340.948239 276.881663 
L 341.788225 273.949761 
L 342.208218 272.77853 
L 342.628211 274.978823 
L 343.048204 276.558321 
L 343.468197 280.205003 
L 343.88819 284.971597 
L 344.728176 275.0877 
L 345.148169 276.064332 
L 346.408148 275.229046 
L 346.828141 276.836137 
L 347.248134 276.394006 
L 347.668127 272.147462 
L 348.088119 272.000828 
L 348.508112 270.467943 
L 348.928105 275.31072 
L 349.348098 273.016393 
L 349.768091 273.803786 
L 350.188084 274.958967 
L 350.608077 272.802367 
L 351.02807 269.090566 
L 351.448063 275.94734 
L 351.868056 273.660139 
L 352.288049 276.200533 
L 352.708042 277.927605 
L 353.128035 271.24044 
L 353.548028 270.244138 
L 353.968021 272.071954 
L 354.388014 275.860476 
L 354.808007 277.730283 
L 355.228 275.70739 
L 355.647992 276.007126 
L 356.067985 277.568559 
L 356.487978 275.642826 
L 356.907971 275.632684 
L 357.327964 275.73612 
L 357.747957 277.883231 
L 358.16795 272.943778 
L 358.587943 271.059706 
L 359.007936 273.224905 
L 359.427929 270.444623 
L 359.847922 272.270885 
L 360.267915 269.918983 
L 361.107901 271.829688 
L 361.527894 271.751 
L 361.947887 272.648056 
L 362.36788 270.059566 
L 362.787873 269.599188 
L 363.207865 270.895364 
L 363.627858 270.291729 
L 364.047851 268.402671 
L 364.467844 269.780306 
L 364.887837 269.762235 
L 365.30783 273.749468 
L 365.727823 283.43098 
L 366.147816 278.171387 
L 366.567809 276.681442 
L 366.987802 271.937505 
L 367.407795 269.945214 
L 367.827788 274.584052 
L 368.247781 269.767007 
L 368.667774 268.817258 
L 369.087767 272.303403 
L 369.50776 271.194166 
L 369.927753 271.166996 
L 370.347746 269.426368 
L 370.767738 265.996638 
L 371.187731 272.019476 
L 371.607724 272.080454 
L 372.027717 259.816877 
L 372.44771 271.372819 
L 372.867703 270.310174 
L 373.287696 275.66322 
L 374.127682 270.471161 
L 374.547675 273.756464 
L 374.967668 273.715407 
L 375.387661 271.409246 
L 375.807654 271.536046 
L 376.227647 276.343664 
L 376.64764 269.640459 
L 377.067633 272.265405 
L 377.487626 276.539986 
L 377.907618 278.52594 
L 378.327611 275.864309 
L 378.747604 277.494084 
L 379.58759 277.098045 
L 380.007583 275.756673 
L 380.427576 273.919027 
L 380.847569 270.948693 
L 381.267562 269.639141 
L 381.687555 270.194163 
L 382.107548 269.421069 
L 382.527541 267.361007 
L 382.947534 271.660848 
L 383.367527 272.022606 
L 383.78752 268.638661 
L 384.207513 268.094132 
L 384.627506 272.057172 
L 385.047499 267.89345 
L 385.467491 273.397133 
L 385.887484 268.170491 
L 386.307477 267.83424 
L 386.72747 269.974685 
L 387.147463 274.414191 
L 387.567456 280.499221 
L 388.407442 270.576579 
L 388.827435 269.195857 
L 389.247428 269.021851 
L 389.667421 272.684577 
L 390.507407 269.654527 
L 390.9274 272.52968 
L 391.347393 272.736089 
L 391.767386 267.8873 
L 392.187379 272.083958 
L 392.607372 274.177388 
L 393.027364 268.745808 
L 393.447357 274.418139 
L 394.287343 268.248498 
L 395.127329 274.096488 
L 395.547322 269.051332 
L 395.967315 267.715204 
L 396.387308 272.974611 
L 396.807301 272.424053 
L 397.227294 270.006522 
L 397.647287 274.773138 
L 398.06728 275.781284 
L 398.487273 291.152061 
L 398.487273 291.152061 
" clip-path="url(#pc6c4f86762)" style="fill: none; stroke: #2ca02c; stroke-width: 1.5; stroke-linecap: square"/>
   </g>
   <g id="patch_3">
    <path d="M 57.6 307.584 
L 57.6 41.472 
" style="fill: none; stroke: #000000; stroke-width: 0.8; stroke-linejoin: miter; stroke-linecap: square"/>
   </g>
   <g id="patch_4">
    <path d="M 414.72 307.584 
L 414.72 41.472 
" style="fill: none; stroke: #000000; stroke-width: 0.8; stroke-linejoin: miter; stroke-linecap: square"/>
   </g>
   <g id="patch_5">
    <path d="M 57.6 307.584 
L 414.72 307.584 
" style="fill: none; stroke: #000000; stroke-width: 0.8; stroke-linejoin: miter; stroke-linecap: square"/>
   </g>
   <g id="patch_6">
    <path d="M 57.6 41.472 
L 414.72 41.472 
" style="fill: none; stroke: #000000; stroke-width: 0.8; stroke-linejoin: miter; stroke-linecap: square"/>
   </g>
   <g id="legend_1">
    <g id="patch_7">
     <path d="M 64.6 93.506375 
L 186.25625 93.506375 
Q 188.25625 93.506375 188.25625 91.506375 
L 188.25625 48.472 
Q 188.25625 46.472 186.25625 46.472 
L 64.6 46.472 
Q 62.6 46.472 62.6 48.472 
L 62.6 91.506375 
Q 62.6 93.506375 64.6 93.506375 
z
" style="fill: #ffffff; opacity: 0.8; stroke: #cccccc; stroke-linejoin: miter"/>
    </g>
    <g id="line2d_18">
     <path d="M 66.6 54.570438 
L 76.6 54.570438 
L 86.6 54.570438 
" style="fill: none; stroke: #1f77b4; stroke-width: 1.5; stroke-linecap: square"/>
    </g>
    <g id="text_17">
     <!-- Weekly maximum -->
     <g transform="translate(94.6 58.070438) scale(0.1 -0.1)">
      <defs>
       <path id="DejaVuSans-57" d="M 213 4666 
L 850 4666 
L 1831 722 
L 2809 4666 
L 3519 4666 
L 4500 722 
L 5478 4666 
L 6119 4666 
L 4947 0 
L 4153 0 
L 3169 4050 
L 2175 0 
L 1381 0 
L 213 4666 
z
" transform="scale(0.015625)"/>
       <path id="DejaVuSans-6b" d="M 581 4863 
L 1159 4863 
L 1159 1991 
L 2875 3500 
L 3609 3500 
L 1753 1863 
L 3688 0 
L 2938 0 
L 1159 1709 
L 1159 0 
L 581 0 
L 581 4863 
z
" transform="scale(0.015625)"/>
       <path id="DejaVuSans-79" d="M 2059 -325 
Q 1816 -950 1584 -1140 
Q 1353 -1331 966 -1331 
L 506 -1331 
L 506 -850 
L 844 -850 
Q 1081 -850 1212 -737 
Q 1344 -625 1503 -206 
L 1606 56 
L 191 3500 
L 800 3500 
L 1894 763 
L 2988 3500 
L 3597 3500 
L 2059 -325 
z
" transform="scale(0.015625)"/>
       <path id="DejaVuSans-6d" d="M 3328 2828 
Q 3544 3216 3844 3400 
Q 4144 3584 4550 3584 
Q 5097 3584 5394 3201 
Q 5691 2819 5691 2113 
L 5691 0 
L 5113 0 
L 5113 2094 
Q 5113 2597 4934 2840 
Q 4756 3084 4391 3084 
Q 3944 3084 3684 2787 
Q 3425 2491 3425 1978 
L 3425 0 
L 2847 0 
L 2847 2094 
Q 2847 2600 2669 2842 
Q 2491 3084 2119 3084 
Q 1678 3084 1418 2786 
Q 1159 2488 1159 1978 
L 1159 0 
L 581 0 
L 581 3500 
L 1159 3500 
L 1159 2956 
Q 1356 3278 1631 3431 
Q 1906 3584 2284 3584 
Q 2666 3584 2933 3390 
Q 3200 3197 3328 2828 
z
" transform="scale(0.015625)"/>
       <path id="DejaVuSans-78" d="M 3513 3500 
L 2247 1797 
L 3578 0 
L 2900 0 
L 1881 1375 
L 863 0 
L 184 0 
L 1544 1831 
L 300 3500 
L 978 3500 
L 1906 2253 
L 2834 3500 
L 3513 3500 
z
" transform="scale(0.015625)"/>
       <path id="DejaVuSans-75" d="M 544 1381 
L 544 3500 
L 1119 3500 
L 1119 1403 
Q 1119 906 1312 657 
Q 1506 409 1894 409 
Q 2359 409 2629 706 
Q 2900 1003 2900 1516 
L 2900 3500 
L 3475 3500 
L 3475 0 
L 2900 0 
L 2900 538 
Q 2691 219 2414 64 
Q 2138 -91 1772 -91 
Q 1169 -91 856 284 
Q 544 659 544 1381 
z
M 1991 3584 
L 1991 3584 
z
" transform="scale(0.015625)"/>
      </defs>
      <use xlink:href="#DejaVuSans-57"/>
      <use xlink:href="#DejaVuSans-65" x="93.001953"/>
      <use xlink:href="#DejaVuSans-65" x="154.525391"/>
      <use xlink:href="#DejaVuSans-6b" x="216.048828"/>
      <use xlink:href="#DejaVuSans-6c" x="273.958984"/>
      <use xlink:href="#DejaVuSans-79" x="301.742188"/>
      <use xlink:href="#DejaVuSans-20" x="360.921875"/>
      <use xlink:href="#DejaVuSans-6d" x="392.708984"/>
      <use xlink:href="#DejaVuSans-61" x="490.121094"/>
      <use xlink:href="#DejaVuSans-78" x="551.400391"/>
      <use xlink:href="#DejaVuSans-69" x="610.580078"/>
      <use xlink:href="#DejaVuSans-6d" x="638.363281"/>
      <use xlink:href="#DejaVuSans-75" x="735.775391"/>
      <use xlink:href="#DejaVuSans-6d" x="799.154297"/>
     </g>
    </g>
    <g id="line2d_19">
     <path d="M 66.6 69.248563 
L 76.6 69.248563 
L 86.6 69.248563 
" style="fill: none; stroke: #ff7f0e; stroke-width: 1.5; stroke-linecap: square"/>
    </g>
    <g id="text_18">
     <!-- Weekly minimum -->
     <g transform="translate(94.6 72.748563) scale(0.1 -0.1)">
      <defs>
       <path id="DejaVuSans-6e" d="M 3513 2113 
L 3513 0 
L 2938 0 
L 2938 2094 
Q 2938 2591 2744 2837 
Q 2550 3084 2163 3084 
Q 1697 3084 1428 2787 
Q 1159 2491 1159 1978 
L 1159 0 
L 581 0 
L 581 3500 
L 1159 3500 
L 1159 2956 
Q 1366 3272 1645 3428 
Q 1925 3584 2291 3584 
Q 2894 3584 3203 3211 
Q 3513 2838 3513 2113 
z
" transform="scale(0.015625)"/>
      </defs>
      <use xlink:href="#DejaVuSans-57"/>
      <use xlink:href="#DejaVuSans-65" x="93.001953"/>
      <use xlink:href="#DejaVuSans-65" x="154.525391"/>
      <use xlink:href="#DejaVuSans-6b" x="216.048828"/>
      <use xlink:href="#DejaVuSans-6c" x="273.958984"/>
      <use xlink:href="#DejaVuSans-79" x="301.742188"/>
      <use xlink:href="#DejaVuSans-20" x="360.921875"/>
      <use xlink:href="#DejaVuSans-6d" x="392.708984"/>
      <use xlink:href="#DejaVuSans-69" x="490.121094"/>
      <use xlink:href="#DejaVuSans-6e" x="517.904297"/>
      <use xlink:href="#DejaVuSans-69" x="581.283203"/>
      <use xlink:href="#DejaVuSans-6d" x="609.066406"/>
      <use xlink:href="#DejaVuSans-75" x="706.478516"/>
      <use xlink:href="#DejaVuSans-6d" x="769.857422"/>
     </g>
    </g>
    <g id="line2d_20">
     <path d="M 66.6 83.926688 
L 76.6 83.926688 
L 86.6 83.926688 
" style="fill: none; stroke: #2ca02c; stroke-width: 1.5; stroke-linecap: square"/>
    </g>
    <g id="text_19">
     <!-- Weekly range -->
     <g transform="translate(94.6 87.426688) scale(0.1 -0.1)">
      <use xlink:href="#DejaVuSans-57"/>
      <use xlink:href="#DejaVuSans-65" x="93.001953"/>
      <use xlink:href="#DejaVuSans-65" x="154.525391"/>
      <use xlink:href="#DejaVuSans-6b" x="216.048828"/>
      <use xlink:href="#DejaVuSans-6c" x="273.958984"/>
      <use xlink:href="#DejaVuSans-79" x="301.742188"/>
      <use xlink:href="#DejaVuSans-20" x="360.921875"/>
      <use xlink:href="#DejaVuSans-72" x="392.708984"/>
      <use xlink:href="#DejaVuSans-61" x="433.822266"/>
      <use xlink:href="#DejaVuSans-6e" x="495.101562"/>
      <use xlink:href="#DejaVuSans-67" x="558.480469"/>
      <use xlink:href="#DejaVuSans-65" x="621.957031"/>
     </g>
    </g>
   </g>
  </g>
 </g>
 <defs>
  <clipPath id="pc6c4f86762">
   <rect x="57.6" y="41.472" width="357.12" height="266.112"/>
  </clipPath>
 </defs>
</svg>
