<?xml version="1.0" encoding="utf-8" standalone="no"?>
<!DOCTYPE svg PUBLIC "-//W3C//DTD SVG 1.1//EN"
  "http://www.w3.org/Graphics/SVG/1.1/DTD/svg11.dtd">
<svg xmlns:xlink="http://www.w3.org/1999/xlink" width="460.8pt" height="345.6pt" viewBox="0 0 460.8 345.6" xmlns="http://www.w3.org/2000/svg" version="1.1">
 <metadata>
  <rdf:RDF xmlns:dc="http://purl.org/dc/elements/1.1/" xmlns:cc="http://creativecommons.org/ns#" xmlns:rdf="http://www.w3.org/1999/02/22-rdf-syntax-ns#">
   <cc:Work>
    <dc:type rdf:resource="http://purl.org/dc/dcmitype/StillImage"/>
    <dc:date>2022-04-07T05:33:21.776018</dc:date>
    <dc:format>image/svg+xml</dc:format>
    <dc:creator>
     <cc:Agent>
      <dc:title>Matplotlib v3.5.1, https://matplotlib.org/</dc:title>
     </cc:Agent>
    </dc:creator>
   </cc:Work>
  </rdf:RDF>
 </metadata>
 <defs>
  <style type="text/css">*{stroke-linejoin: round; stroke-linecap: butt}</style>
 </defs>
 <g id="figure_1">
  <g id="patch_1">
   <path d="M 0 345.6 
L 460.8 345.6 
L 460.8 0 
L 0 0 
z
" style="fill: #ffffff"/>
  </g>
  <g id="axes_1">
   <g id="patch_2">
    <path d="M 57.6 307.584 
L 414.72 307.584 
L 414.72 41.472 
L 57.6 41.472 
z
" style="fill: #ffffff"/>
   </g>
   <g id="matplotlib.axis_1">
    <g id="xtick_1">
     <g id="line2d_1">
      <defs>
       <path id="m2dc9467003" d="M 0 0 
L 0 3.5 
" style="stroke: #000000; stroke-width: 0.8"/>
      </defs>
      <g>
       <use xlink:href="#m2dc9467003" x="57.871472" y="307.584" style="stroke: #000000; stroke-width: 0.8"/>
      </g>
     </g>
     <g id="text_1">
      <!-- 2008 -->
      <g transform="translate(45.146472 322.182437)scale(0.1 -0.1)">
       <defs>
        <path id="DejaVuSans-32" d="M 1228 531 
L 3431 531 
L 3431 0 
L 469 0 
L 469 531 
Q 828 903 1448 1529 
Q 2069 2156 2228 2338 
Q 2531 2678 2651 2914 
Q 2772 3150 2772 3378 
Q 2772 3750 2511 3984 
Q 2250 4219 1831 4219 
Q 1534 4219 1204 4116 
Q 875 4013 500 3803 
L 500 4441 
Q 881 4594 1212 4672 
Q 1544 4750 1819 4750 
Q 2544 4750 2975 4387 
Q 3406 4025 3406 3419 
Q 3406 3131 3298 2873 
Q 3191 2616 2906 2266 
Q 2828 2175 2409 1742 
Q 1991 1309 1228 531 
z
" transform="scale(0.015625)"/>
        <path id="DejaVuSans-30" d="M 2034 4250 
Q 1547 4250 1301 3770 
Q 1056 3291 1056 2328 
Q 1056 1369 1301 889 
Q 1547 409 2034 409 
Q 2525 409 2770 889 
Q 3016 1369 3016 2328 
Q 3016 3291 2770 3770 
Q 2525 4250 2034 4250 
z
M 2034 4750 
Q 2819 4750 3233 4129 
Q 3647 3509 3647 2328 
Q 3647 1150 3233 529 
Q 2819 -91 2034 -91 
Q 1250 -91 836 529 
Q 422 1150 422 2328 
Q 422 3509 836 4129 
Q 1250 4750 2034 4750 
z
" transform="scale(0.015625)"/>
        <path id="DejaVuSans-38" d="M 2034 2216 
Q 1584 2216 1326 1975 
Q 1069 1734 1069 1313 
Q 1069 891 1326 650 
Q 1584 409 2034 409 
Q 2484 409 2743 651 
Q 3003 894 3003 1313 
Q 3003 1734 2745 1975 
Q 2488 2216 2034 2216 
z
M 1403 2484 
Q 997 2584 770 2862 
Q 544 3141 544 3541 
Q 544 4100 942 4425 
Q 1341 4750 2034 4750 
Q 2731 4750 3128 4425 
Q 3525 4100 3525 3541 
Q 3525 3141 3298 2862 
Q 3072 2584 2669 2484 
Q 3125 2378 3379 2068 
Q 3634 1759 3634 1313 
Q 3634 634 3220 271 
Q 2806 -91 2034 -91 
Q 1263 -91 848 271 
Q 434 634 434 1313 
Q 434 1759 690 2068 
Q 947 2378 1403 2484 
z
M 1172 3481 
Q 1172 3119 1398 2916 
Q 1625 2713 2034 2713 
Q 2441 2713 2670 2916 
Q 2900 3119 2900 3481 
Q 2900 3844 2670 4047 
Q 2441 4250 2034 4250 
Q 1625 4250 1398 4047 
Q 1172 3844 1172 3481 
z
" transform="scale(0.015625)"/>
       </defs>
       <use xlink:href="#DejaVuSans-32"/>
       <use xlink:href="#DejaVuSans-30" x="63.623047"/>
       <use xlink:href="#DejaVuSans-30" x="127.246094"/>
       <use xlink:href="#DejaVuSans-38" x="190.869141"/>
      </g>
     </g>
    </g>
    <g id="xtick_2">
     <g id="line2d_2">
      <g>
       <use xlink:href="#m2dc9467003" x="105.689823" y="307.584" style="stroke: #000000; stroke-width: 0.8"/>
      </g>
     </g>
     <g id="text_2">
      <!-- 2010 -->
      <g transform="translate(92.964823 322.182437)scale(0.1 -0.1)">
       <defs>
        <path id="DejaVuSans-31" d="M 794 531 
L 1825 531 
L 1825 4091 
L 703 3866 
L 703 4441 
L 1819 4666 
L 2450 4666 
L 2450 531 
L 3481 531 
L 3481 0 
L 794 0 
L 794 531 
z
" transform="scale(0.015625)"/>
       </defs>
       <use xlink:href="#DejaVuSans-32"/>
       <use xlink:href="#DejaVuSans-30" x="63.623047"/>
       <use xlink:href="#DejaVuSans-31" x="127.246094"/>
       <use xlink:href="#DejaVuSans-30" x="190.869141"/>
      </g>
     </g>
    </g>
    <g id="xtick_3">
     <g id="line2d_3">
      <g>
       <use xlink:href="#m2dc9467003" x="153.442758" y="307.584" style="stroke: #000000; stroke-width: 0.8"/>
      </g>
     </g>
     <g id="text_3">
      <!-- 2012 -->
      <g transform="translate(140.717758 322.182437)scale(0.1 -0.1)">
       <use xlink:href="#DejaVuSans-32"/>
       <use xlink:href="#DejaVuSans-30" x="63.623047"/>
       <use xlink:href="#DejaVuSans-31" x="127.246094"/>
       <use xlink:href="#DejaVuSans-32" x="190.869141"/>
      </g>
     </g>
    </g>
    <g id="xtick_4">
     <g id="line2d_4">
      <g>
       <use xlink:href="#m2dc9467003" x="201.261108" y="307.584" style="stroke: #000000; stroke-width: 0.8"/>
      </g>
     </g>
     <g id="text_4">
      <!-- 2014 -->
      <g transform="translate(188.536108 322.182437)scale(0.1 -0.1)">
       <defs>
        <path id="DejaVuSans-34" d="M 2419 4116 
L 825 1625 
L 2419 1625 
L 2419 4116 
z
M 2253 4666 
L 3047 4666 
L 3047 1625 
L 3713 1625 
L 3713 1100 
L 3047 1100 
L 3047 0 
L 2419 0 
L 2419 1100 
L 313 1100 
L 313 1709 
L 2253 4666 
z
" transform="scale(0.015625)"/>
       </defs>
       <use xlink:href="#DejaVuSans-32"/>
       <use xlink:href="#DejaVuSans-30" x="63.623047"/>
       <use xlink:href="#DejaVuSans-31" x="127.246094"/>
       <use xlink:href="#DejaVuSans-34" x="190.869141"/>
      </g>
     </g>
    </g>
    <g id="xtick_5">
     <g id="line2d_5">
      <g>
       <use xlink:href="#m2dc9467003" x="249.014044" y="307.584" style="stroke: #000000; stroke-width: 0.8"/>
      </g>
     </g>
     <g id="text_5">
      <!-- 2016 -->
      <g transform="translate(236.289044 322.182437)scale(0.1 -0.1)">
       <defs>
        <path id="DejaVuSans-36" d="M 2113 2584 
Q 1688 2584 1439 2293 
Q 1191 2003 1191 1497 
Q 1191 994 1439 701 
Q 1688 409 2113 409 
Q 2538 409 2786 701 
Q 3034 994 3034 1497 
Q 3034 2003 2786 2293 
Q 2538 2584 2113 2584 
z
M 3366 4563 
L 3366 3988 
Q 3128 4100 2886 4159 
Q 2644 4219 2406 4219 
Q 1781 4219 1451 3797 
Q 1122 3375 1075 2522 
Q 1259 2794 1537 2939 
Q 1816 3084 2150 3084 
Q 2853 3084 3261 2657 
Q 3669 2231 3669 1497 
Q 3669 778 3244 343 
Q 2819 -91 2113 -91 
Q 1303 -91 875 529 
Q 447 1150 447 2328 
Q 447 3434 972 4092 
Q 1497 4750 2381 4750 
Q 2619 4750 2861 4703 
Q 3103 4656 3366 4563 
z
" transform="scale(0.015625)"/>
       </defs>
       <use xlink:href="#DejaVuSans-32"/>
       <use xlink:href="#DejaVuSans-30" x="63.623047"/>
       <use xlink:href="#DejaVuSans-31" x="127.246094"/>
       <use xlink:href="#DejaVuSans-36" x="190.869141"/>
      </g>
     </g>
    </g>
    <g id="xtick_6">
     <g id="line2d_6">
      <g>
       <use xlink:href="#m2dc9467003" x="296.832394" y="307.584" style="stroke: #000000; stroke-width: 0.8"/>
      </g>
     </g>
     <g id="text_6">
      <!-- 2018 -->
      <g transform="translate(284.107394 322.182437)scale(0.1 -0.1)">
       <use xlink:href="#DejaVuSans-32"/>
       <use xlink:href="#DejaVuSans-30" x="63.623047"/>
       <use xlink:href="#DejaVuSans-31" x="127.246094"/>
       <use xlink:href="#DejaVuSans-38" x="190.869141"/>
      </g>
     </g>
    </g>
    <g id="xtick_7">
     <g id="line2d_7">
      <g>
       <use xlink:href="#m2dc9467003" x="344.585329" y="307.584" style="stroke: #000000; stroke-width: 0.8"/>
      </g>
     </g>
     <g id="text_7">
      <!-- 2020 -->
      <g transform="translate(331.860329 322.182437)scale(0.1 -0.1)">
       <use xlink:href="#DejaVuSans-32"/>
       <use xlink:href="#DejaVuSans-30" x="63.623047"/>
       <use xlink:href="#DejaVuSans-32" x="127.246094"/>
       <use xlink:href="#DejaVuSans-30" x="190.869141"/>
      </g>
     </g>
    </g>
    <g id="xtick_8">
     <g id="line2d_8">
      <g>
       <use xlink:href="#m2dc9467003" x="392.40368" y="307.584" style="stroke: #000000; stroke-width: 0.8"/>
      </g>
     </g>
     <g id="text_8">
      <!-- 2022 -->
      <g transform="translate(379.67868 322.182437)scale(0.1 -0.1)">
       <use xlink:href="#DejaVuSans-32"/>
       <use xlink:href="#DejaVuSans-30" x="63.623047"/>
       <use xlink:href="#DejaVuSans-32" x="127.246094"/>
       <use xlink:href="#DejaVuSans-32" x="190.869141"/>
      </g>
     </g>
    </g>
    <g id="text_9">
     <!-- Updated 2022-04-07 05:33:21.773510 - Last record 2022-04-05 -->
     <g transform="translate(75.905312 335.860562)scale(0.1 -0.1)">
      <defs>
       <path id="DejaVuSans-55" d="M 556 4666 
L 1191 4666 
L 1191 1831 
Q 1191 1081 1462 751 
Q 1734 422 2344 422 
Q 2950 422 3222 751 
Q 3494 1081 3494 1831 
L 3494 4666 
L 4128 4666 
L 4128 1753 
Q 4128 841 3676 375 
Q 3225 -91 2344 -91 
Q 1459 -91 1007 375 
Q 556 841 556 1753 
L 556 4666 
z
" transform="scale(0.015625)"/>
       <path id="DejaVuSans-70" d="M 1159 525 
L 1159 -1331 
L 581 -1331 
L 581 3500 
L 1159 3500 
L 1159 2969 
Q 1341 3281 1617 3432 
Q 1894 3584 2278 3584 
Q 2916 3584 3314 3078 
Q 3713 2572 3713 1747 
Q 3713 922 3314 415 
Q 2916 -91 2278 -91 
Q 1894 -91 1617 61 
Q 1341 213 1159 525 
z
M 3116 1747 
Q 3116 2381 2855 2742 
Q 2594 3103 2138 3103 
Q 1681 3103 1420 2742 
Q 1159 2381 1159 1747 
Q 1159 1113 1420 752 
Q 1681 391 2138 391 
Q 2594 391 2855 752 
Q 3116 1113 3116 1747 
z
" transform="scale(0.015625)"/>
       <path id="DejaVuSans-64" d="M 2906 2969 
L 2906 4863 
L 3481 4863 
L 3481 0 
L 2906 0 
L 2906 525 
Q 2725 213 2448 61 
Q 2172 -91 1784 -91 
Q 1150 -91 751 415 
Q 353 922 353 1747 
Q 353 2572 751 3078 
Q 1150 3584 1784 3584 
Q 2172 3584 2448 3432 
Q 2725 3281 2906 2969 
z
M 947 1747 
Q 947 1113 1208 752 
Q 1469 391 1925 391 
Q 2381 391 2643 752 
Q 2906 1113 2906 1747 
Q 2906 2381 2643 2742 
Q 2381 3103 1925 3103 
Q 1469 3103 1208 2742 
Q 947 2381 947 1747 
z
" transform="scale(0.015625)"/>
       <path id="DejaVuSans-61" d="M 2194 1759 
Q 1497 1759 1228 1600 
Q 959 1441 959 1056 
Q 959 750 1161 570 
Q 1363 391 1709 391 
Q 2188 391 2477 730 
Q 2766 1069 2766 1631 
L 2766 1759 
L 2194 1759 
z
M 3341 1997 
L 3341 0 
L 2766 0 
L 2766 531 
Q 2569 213 2275 61 
Q 1981 -91 1556 -91 
Q 1019 -91 701 211 
Q 384 513 384 1019 
Q 384 1609 779 1909 
Q 1175 2209 1959 2209 
L 2766 2209 
L 2766 2266 
Q 2766 2663 2505 2880 
Q 2244 3097 1772 3097 
Q 1472 3097 1187 3025 
Q 903 2953 641 2809 
L 641 3341 
Q 956 3463 1253 3523 
Q 1550 3584 1831 3584 
Q 2591 3584 2966 3190 
Q 3341 2797 3341 1997 
z
" transform="scale(0.015625)"/>
       <path id="DejaVuSans-74" d="M 1172 4494 
L 1172 3500 
L 2356 3500 
L 2356 3053 
L 1172 3053 
L 1172 1153 
Q 1172 725 1289 603 
Q 1406 481 1766 481 
L 2356 481 
L 2356 0 
L 1766 0 
Q 1100 0 847 248 
Q 594 497 594 1153 
L 594 3053 
L 172 3053 
L 172 3500 
L 594 3500 
L 594 4494 
L 1172 4494 
z
" transform="scale(0.015625)"/>
       <path id="DejaVuSans-65" d="M 3597 1894 
L 3597 1613 
L 953 1613 
Q 991 1019 1311 708 
Q 1631 397 2203 397 
Q 2534 397 2845 478 
Q 3156 559 3463 722 
L 3463 178 
Q 3153 47 2828 -22 
Q 2503 -91 2169 -91 
Q 1331 -91 842 396 
Q 353 884 353 1716 
Q 353 2575 817 3079 
Q 1281 3584 2069 3584 
Q 2775 3584 3186 3129 
Q 3597 2675 3597 1894 
z
M 3022 2063 
Q 3016 2534 2758 2815 
Q 2500 3097 2075 3097 
Q 1594 3097 1305 2825 
Q 1016 2553 972 2059 
L 3022 2063 
z
" transform="scale(0.015625)"/>
       <path id="DejaVuSans-20" transform="scale(0.015625)"/>
       <path id="DejaVuSans-2d" d="M 313 2009 
L 1997 2009 
L 1997 1497 
L 313 1497 
L 313 2009 
z
" transform="scale(0.015625)"/>
       <path id="DejaVuSans-37" d="M 525 4666 
L 3525 4666 
L 3525 4397 
L 1831 0 
L 1172 0 
L 2766 4134 
L 525 4134 
L 525 4666 
z
" transform="scale(0.015625)"/>
       <path id="DejaVuSans-35" d="M 691 4666 
L 3169 4666 
L 3169 4134 
L 1269 4134 
L 1269 2991 
Q 1406 3038 1543 3061 
Q 1681 3084 1819 3084 
Q 2600 3084 3056 2656 
Q 3513 2228 3513 1497 
Q 3513 744 3044 326 
Q 2575 -91 1722 -91 
Q 1428 -91 1123 -41 
Q 819 9 494 109 
L 494 744 
Q 775 591 1075 516 
Q 1375 441 1709 441 
Q 2250 441 2565 725 
Q 2881 1009 2881 1497 
Q 2881 1984 2565 2268 
Q 2250 2553 1709 2553 
Q 1456 2553 1204 2497 
Q 953 2441 691 2322 
L 691 4666 
z
" transform="scale(0.015625)"/>
       <path id="DejaVuSans-3a" d="M 750 794 
L 1409 794 
L 1409 0 
L 750 0 
L 750 794 
z
M 750 3309 
L 1409 3309 
L 1409 2516 
L 750 2516 
L 750 3309 
z
" transform="scale(0.015625)"/>
       <path id="DejaVuSans-33" d="M 2597 2516 
Q 3050 2419 3304 2112 
Q 3559 1806 3559 1356 
Q 3559 666 3084 287 
Q 2609 -91 1734 -91 
Q 1441 -91 1130 -33 
Q 819 25 488 141 
L 488 750 
Q 750 597 1062 519 
Q 1375 441 1716 441 
Q 2309 441 2620 675 
Q 2931 909 2931 1356 
Q 2931 1769 2642 2001 
Q 2353 2234 1838 2234 
L 1294 2234 
L 1294 2753 
L 1863 2753 
Q 2328 2753 2575 2939 
Q 2822 3125 2822 3475 
Q 2822 3834 2567 4026 
Q 2313 4219 1838 4219 
Q 1578 4219 1281 4162 
Q 984 4106 628 3988 
L 628 4550 
Q 988 4650 1302 4700 
Q 1616 4750 1894 4750 
Q 2613 4750 3031 4423 
Q 3450 4097 3450 3541 
Q 3450 3153 3228 2886 
Q 3006 2619 2597 2516 
z
" transform="scale(0.015625)"/>
       <path id="DejaVuSans-2e" d="M 684 794 
L 1344 794 
L 1344 0 
L 684 0 
L 684 794 
z
" transform="scale(0.015625)"/>
       <path id="DejaVuSans-4c" d="M 628 4666 
L 1259 4666 
L 1259 531 
L 3531 531 
L 3531 0 
L 628 0 
L 628 4666 
z
" transform="scale(0.015625)"/>
       <path id="DejaVuSans-73" d="M 2834 3397 
L 2834 2853 
Q 2591 2978 2328 3040 
Q 2066 3103 1784 3103 
Q 1356 3103 1142 2972 
Q 928 2841 928 2578 
Q 928 2378 1081 2264 
Q 1234 2150 1697 2047 
L 1894 2003 
Q 2506 1872 2764 1633 
Q 3022 1394 3022 966 
Q 3022 478 2636 193 
Q 2250 -91 1575 -91 
Q 1294 -91 989 -36 
Q 684 19 347 128 
L 347 722 
Q 666 556 975 473 
Q 1284 391 1588 391 
Q 1994 391 2212 530 
Q 2431 669 2431 922 
Q 2431 1156 2273 1281 
Q 2116 1406 1581 1522 
L 1381 1569 
Q 847 1681 609 1914 
Q 372 2147 372 2553 
Q 372 3047 722 3315 
Q 1072 3584 1716 3584 
Q 2034 3584 2315 3537 
Q 2597 3491 2834 3397 
z
" transform="scale(0.015625)"/>
       <path id="DejaVuSans-72" d="M 2631 2963 
Q 2534 3019 2420 3045 
Q 2306 3072 2169 3072 
Q 1681 3072 1420 2755 
Q 1159 2438 1159 1844 
L 1159 0 
L 581 0 
L 581 3500 
L 1159 3500 
L 1159 2956 
Q 1341 3275 1631 3429 
Q 1922 3584 2338 3584 
Q 2397 3584 2469 3576 
Q 2541 3569 2628 3553 
L 2631 2963 
z
" transform="scale(0.015625)"/>
       <path id="DejaVuSans-63" d="M 3122 3366 
L 3122 2828 
Q 2878 2963 2633 3030 
Q 2388 3097 2138 3097 
Q 1578 3097 1268 2742 
Q 959 2388 959 1747 
Q 959 1106 1268 751 
Q 1578 397 2138 397 
Q 2388 397 2633 464 
Q 2878 531 3122 666 
L 3122 134 
Q 2881 22 2623 -34 
Q 2366 -91 2075 -91 
Q 1284 -91 818 406 
Q 353 903 353 1747 
Q 353 2603 823 3093 
Q 1294 3584 2113 3584 
Q 2378 3584 2631 3529 
Q 2884 3475 3122 3366 
z
" transform="scale(0.015625)"/>
       <path id="DejaVuSans-6f" d="M 1959 3097 
Q 1497 3097 1228 2736 
Q 959 2375 959 1747 
Q 959 1119 1226 758 
Q 1494 397 1959 397 
Q 2419 397 2687 759 
Q 2956 1122 2956 1747 
Q 2956 2369 2687 2733 
Q 2419 3097 1959 3097 
z
M 1959 3584 
Q 2709 3584 3137 3096 
Q 3566 2609 3566 1747 
Q 3566 888 3137 398 
Q 2709 -91 1959 -91 
Q 1206 -91 779 398 
Q 353 888 353 1747 
Q 353 2609 779 3096 
Q 1206 3584 1959 3584 
z
" transform="scale(0.015625)"/>
      </defs>
      <use xlink:href="#DejaVuSans-55"/>
      <use xlink:href="#DejaVuSans-70" x="73.193359"/>
      <use xlink:href="#DejaVuSans-64" x="136.669922"/>
      <use xlink:href="#DejaVuSans-61" x="200.146484"/>
      <use xlink:href="#DejaVuSans-74" x="261.425781"/>
      <use xlink:href="#DejaVuSans-65" x="300.634766"/>
      <use xlink:href="#DejaVuSans-64" x="362.158203"/>
      <use xlink:href="#DejaVuSans-20" x="425.634766"/>
      <use xlink:href="#DejaVuSans-32" x="457.421875"/>
      <use xlink:href="#DejaVuSans-30" x="521.044922"/>
      <use xlink:href="#DejaVuSans-32" x="584.667969"/>
      <use xlink:href="#DejaVuSans-32" x="648.291016"/>
      <use xlink:href="#DejaVuSans-2d" x="711.914062"/>
      <use xlink:href="#DejaVuSans-30" x="747.998047"/>
      <use xlink:href="#DejaVuSans-34" x="811.621094"/>
      <use xlink:href="#DejaVuSans-2d" x="875.244141"/>
      <use xlink:href="#DejaVuSans-30" x="911.328125"/>
      <use xlink:href="#DejaVuSans-37" x="974.951172"/>
      <use xlink:href="#DejaVuSans-20" x="1038.574219"/>
      <use xlink:href="#DejaVuSans-30" x="1070.361328"/>
      <use xlink:href="#DejaVuSans-35" x="1133.984375"/>
      <use xlink:href="#DejaVuSans-3a" x="1197.607422"/>
      <use xlink:href="#DejaVuSans-33" x="1231.298828"/>
      <use xlink:href="#DejaVuSans-33" x="1294.921875"/>
      <use xlink:href="#DejaVuSans-3a" x="1358.544922"/>
      <use xlink:href="#DejaVuSans-32" x="1392.236328"/>
      <use xlink:href="#DejaVuSans-31" x="1455.859375"/>
      <use xlink:href="#DejaVuSans-2e" x="1519.482422"/>
      <use xlink:href="#DejaVuSans-37" x="1551.269531"/>
      <use xlink:href="#DejaVuSans-37" x="1614.892578"/>
      <use xlink:href="#DejaVuSans-33" x="1678.515625"/>
      <use xlink:href="#DejaVuSans-35" x="1742.138672"/>
      <use xlink:href="#DejaVuSans-31" x="1805.761719"/>
      <use xlink:href="#DejaVuSans-30" x="1869.384766"/>
      <use xlink:href="#DejaVuSans-20" x="1933.007812"/>
      <use xlink:href="#DejaVuSans-2d" x="1964.794922"/>
      <use xlink:href="#DejaVuSans-20" x="2000.878906"/>
      <use xlink:href="#DejaVuSans-4c" x="2032.666016"/>
      <use xlink:href="#DejaVuSans-61" x="2088.378906"/>
      <use xlink:href="#DejaVuSans-73" x="2149.658203"/>
      <use xlink:href="#DejaVuSans-74" x="2201.757812"/>
      <use xlink:href="#DejaVuSans-20" x="2240.966797"/>
      <use xlink:href="#DejaVuSans-72" x="2272.753906"/>
      <use xlink:href="#DejaVuSans-65" x="2311.617188"/>
      <use xlink:href="#DejaVuSans-63" x="2373.140625"/>
      <use xlink:href="#DejaVuSans-6f" x="2428.121094"/>
      <use xlink:href="#DejaVuSans-72" x="2489.302734"/>
      <use xlink:href="#DejaVuSans-64" x="2528.666016"/>
      <use xlink:href="#DejaVuSans-20" x="2592.142578"/>
      <use xlink:href="#DejaVuSans-32" x="2623.929688"/>
      <use xlink:href="#DejaVuSans-30" x="2687.552734"/>
      <use xlink:href="#DejaVuSans-32" x="2751.175781"/>
      <use xlink:href="#DejaVuSans-32" x="2814.798828"/>
      <use xlink:href="#DejaVuSans-2d" x="2878.421875"/>
      <use xlink:href="#DejaVuSans-30" x="2914.505859"/>
      <use xlink:href="#DejaVuSans-34" x="2978.128906"/>
      <use xlink:href="#DejaVuSans-2d" x="3041.751953"/>
      <use xlink:href="#DejaVuSans-30" x="3077.835938"/>
      <use xlink:href="#DejaVuSans-35" x="3141.458984"/>
     </g>
    </g>
   </g>
   <g id="matplotlib.axis_2">
    <g id="ytick_1">
     <g id="line2d_9">
      <defs>
       <path id="m94173ecd0b" d="M 0 0 
L -3.5 0 
" style="stroke: #000000; stroke-width: 0.8"/>
      </defs>
      <g>
       <use xlink:href="#m94173ecd0b" x="57.6" y="295.57312" style="stroke: #000000; stroke-width: 0.8"/>
      </g>
     </g>
     <g id="text_10">
      <!-- 0 -->
      <g transform="translate(44.2375 299.372339)scale(0.1 -0.1)">
       <use xlink:href="#DejaVuSans-30"/>
      </g>
     </g>
    </g>
    <g id="ytick_2">
     <g id="line2d_10">
      <g>
       <use xlink:href="#m94173ecd0b" x="57.6" y="264.954501" style="stroke: #000000; stroke-width: 0.8"/>
      </g>
     </g>
     <g id="text_11">
      <!-- 5 -->
      <g transform="translate(44.2375 268.753719)scale(0.1 -0.1)">
       <use xlink:href="#DejaVuSans-35"/>
      </g>
     </g>
    </g>
    <g id="ytick_3">
     <g id="line2d_11">
      <g>
       <use xlink:href="#m94173ecd0b" x="57.6" y="234.335882" style="stroke: #000000; stroke-width: 0.8"/>
      </g>
     </g>
     <g id="text_12">
      <!-- 10 -->
      <g transform="translate(37.875 238.1351)scale(0.1 -0.1)">
       <use xlink:href="#DejaVuSans-31"/>
       <use xlink:href="#DejaVuSans-30" x="63.623047"/>
      </g>
     </g>
    </g>
    <g id="ytick_4">
     <g id="line2d_12">
      <g>
       <use xlink:href="#m94173ecd0b" x="57.6" y="203.717262" style="stroke: #000000; stroke-width: 0.8"/>
      </g>
     </g>
     <g id="text_13">
      <!-- 15 -->
      <g transform="translate(37.875 207.516481)scale(0.1 -0.1)">
       <use xlink:href="#DejaVuSans-31"/>
       <use xlink:href="#DejaVuSans-35" x="63.623047"/>
      </g>
     </g>
    </g>
    <g id="ytick_5">
     <g id="line2d_13">
      <g>
       <use xlink:href="#m94173ecd0b" x="57.6" y="173.098643" style="stroke: #000000; stroke-width: 0.8"/>
      </g>
     </g>
     <g id="text_14">
      <!-- 20 -->
      <g transform="translate(37.875 176.897862)scale(0.1 -0.1)">
       <use xlink:href="#DejaVuSans-32"/>
       <use xlink:href="#DejaVuSans-30" x="63.623047"/>
      </g>
     </g>
    </g>
    <g id="ytick_6">
     <g id="line2d_14">
      <g>
       <use xlink:href="#m94173ecd0b" x="57.6" y="142.480024" style="stroke: #000000; stroke-width: 0.8"/>
      </g>
     </g>
     <g id="text_15">
      <!-- 25 -->
      <g transform="translate(37.875 146.279243)scale(0.1 -0.1)">
       <use xlink:href="#DejaVuSans-32"/>
       <use xlink:href="#DejaVuSans-35" x="63.623047"/>
      </g>
     </g>
    </g>
    <g id="ytick_7">
     <g id="line2d_15">
      <g>
       <use xlink:href="#m94173ecd0b" x="57.6" y="111.861405" style="stroke: #000000; stroke-width: 0.8"/>
      </g>
     </g>
     <g id="text_16">
      <!-- 30 -->
      <g transform="translate(37.875 115.660624)scale(0.1 -0.1)">
       <use xlink:href="#DejaVuSans-33"/>
       <use xlink:href="#DejaVuSans-30" x="63.623047"/>
      </g>
     </g>
    </g>
    <g id="ytick_8">
     <g id="line2d_16">
      <g>
       <use xlink:href="#m94173ecd0b" x="57.6" y="81.242786" style="stroke: #000000; stroke-width: 0.8"/>
      </g>
     </g>
     <g id="text_17">
      <!-- 35 -->
      <g transform="translate(37.875 85.042005)scale(0.1 -0.1)">
       <use xlink:href="#DejaVuSans-33"/>
       <use xlink:href="#DejaVuSans-35" x="63.623047"/>
      </g>
     </g>
    </g>
    <g id="ytick_9">
     <g id="line2d_17">
      <g>
       <use xlink:href="#m94173ecd0b" x="57.6" y="50.624167" style="stroke: #000000; stroke-width: 0.8"/>
      </g>
     </g>
     <g id="text_18">
      <!-- 40 -->
      <g transform="translate(37.875 54.423385)scale(0.1 -0.1)">
       <use xlink:href="#DejaVuSans-34"/>
       <use xlink:href="#DejaVuSans-30" x="63.623047"/>
      </g>
     </g>
    </g>
    <g id="text_19">
     <!-- IPv6 as % of total Google traffic -->
     <g transform="translate(31.795312 253.735813)rotate(-90)scale(0.1 -0.1)">
      <defs>
       <path id="DejaVuSans-49" d="M 628 4666 
L 1259 4666 
L 1259 0 
L 628 0 
L 628 4666 
z
" transform="scale(0.015625)"/>
       <path id="DejaVuSans-50" d="M 1259 4147 
L 1259 2394 
L 2053 2394 
Q 2494 2394 2734 2622 
Q 2975 2850 2975 3272 
Q 2975 3691 2734 3919 
Q 2494 4147 2053 4147 
L 1259 4147 
z
M 628 4666 
L 2053 4666 
Q 2838 4666 3239 4311 
Q 3641 3956 3641 3272 
Q 3641 2581 3239 2228 
Q 2838 1875 2053 1875 
L 1259 1875 
L 1259 0 
L 628 0 
L 628 4666 
z
" transform="scale(0.015625)"/>
       <path id="DejaVuSans-76" d="M 191 3500 
L 800 3500 
L 1894 563 
L 2988 3500 
L 3597 3500 
L 2284 0 
L 1503 0 
L 191 3500 
z
" transform="scale(0.015625)"/>
       <path id="DejaVuSans-25" d="M 4653 2053 
Q 4381 2053 4226 1822 
Q 4072 1591 4072 1178 
Q 4072 772 4226 539 
Q 4381 306 4653 306 
Q 4919 306 5073 539 
Q 5228 772 5228 1178 
Q 5228 1588 5073 1820 
Q 4919 2053 4653 2053 
z
M 4653 2450 
Q 5147 2450 5437 2106 
Q 5728 1763 5728 1178 
Q 5728 594 5436 251 
Q 5144 -91 4653 -91 
Q 4153 -91 3862 251 
Q 3572 594 3572 1178 
Q 3572 1766 3864 2108 
Q 4156 2450 4653 2450 
z
M 1428 4353 
Q 1159 4353 1004 4120 
Q 850 3888 850 3481 
Q 850 3069 1003 2837 
Q 1156 2606 1428 2606 
Q 1700 2606 1854 2837 
Q 2009 3069 2009 3481 
Q 2009 3884 1853 4118 
Q 1697 4353 1428 4353 
z
M 4250 4750 
L 4750 4750 
L 1831 -91 
L 1331 -91 
L 4250 4750 
z
M 1428 4750 
Q 1922 4750 2215 4408 
Q 2509 4066 2509 3481 
Q 2509 2891 2217 2550 
Q 1925 2209 1428 2209 
Q 931 2209 642 2551 
Q 353 2894 353 3481 
Q 353 4063 643 4406 
Q 934 4750 1428 4750 
z
" transform="scale(0.015625)"/>
       <path id="DejaVuSans-66" d="M 2375 4863 
L 2375 4384 
L 1825 4384 
Q 1516 4384 1395 4259 
Q 1275 4134 1275 3809 
L 1275 3500 
L 2222 3500 
L 2222 3053 
L 1275 3053 
L 1275 0 
L 697 0 
L 697 3053 
L 147 3053 
L 147 3500 
L 697 3500 
L 697 3744 
Q 697 4328 969 4595 
Q 1241 4863 1831 4863 
L 2375 4863 
z
" transform="scale(0.015625)"/>
       <path id="DejaVuSans-6c" d="M 603 4863 
L 1178 4863 
L 1178 0 
L 603 0 
L 603 4863 
z
" transform="scale(0.015625)"/>
       <path id="DejaVuSans-47" d="M 3809 666 
L 3809 1919 
L 2778 1919 
L 2778 2438 
L 4434 2438 
L 4434 434 
Q 4069 175 3628 42 
Q 3188 -91 2688 -91 
Q 1594 -91 976 548 
Q 359 1188 359 2328 
Q 359 3472 976 4111 
Q 1594 4750 2688 4750 
Q 3144 4750 3555 4637 
Q 3966 4525 4313 4306 
L 4313 3634 
Q 3963 3931 3569 4081 
Q 3175 4231 2741 4231 
Q 1884 4231 1454 3753 
Q 1025 3275 1025 2328 
Q 1025 1384 1454 906 
Q 1884 428 2741 428 
Q 3075 428 3337 486 
Q 3600 544 3809 666 
z
" transform="scale(0.015625)"/>
       <path id="DejaVuSans-67" d="M 2906 1791 
Q 2906 2416 2648 2759 
Q 2391 3103 1925 3103 
Q 1463 3103 1205 2759 
Q 947 2416 947 1791 
Q 947 1169 1205 825 
Q 1463 481 1925 481 
Q 2391 481 2648 825 
Q 2906 1169 2906 1791 
z
M 3481 434 
Q 3481 -459 3084 -895 
Q 2688 -1331 1869 -1331 
Q 1566 -1331 1297 -1286 
Q 1028 -1241 775 -1147 
L 775 -588 
Q 1028 -725 1275 -790 
Q 1522 -856 1778 -856 
Q 2344 -856 2625 -561 
Q 2906 -266 2906 331 
L 2906 616 
Q 2728 306 2450 153 
Q 2172 0 1784 0 
Q 1141 0 747 490 
Q 353 981 353 1791 
Q 353 2603 747 3093 
Q 1141 3584 1784 3584 
Q 2172 3584 2450 3431 
Q 2728 3278 2906 2969 
L 2906 3500 
L 3481 3500 
L 3481 434 
z
" transform="scale(0.015625)"/>
       <path id="DejaVuSans-69" d="M 603 3500 
L 1178 3500 
L 1178 0 
L 603 0 
L 603 3500 
z
M 603 4863 
L 1178 4863 
L 1178 4134 
L 603 4134 
L 603 4863 
z
" transform="scale(0.015625)"/>
      </defs>
      <use xlink:href="#DejaVuSans-49"/>
      <use xlink:href="#DejaVuSans-50" x="29.492188"/>
      <use xlink:href="#DejaVuSans-76" x="89.794922"/>
      <use xlink:href="#DejaVuSans-36" x="148.974609"/>
      <use xlink:href="#DejaVuSans-20" x="212.597656"/>
      <use xlink:href="#DejaVuSans-61" x="244.384766"/>
      <use xlink:href="#DejaVuSans-73" x="305.664062"/>
      <use xlink:href="#DejaVuSans-20" x="357.763672"/>
      <use xlink:href="#DejaVuSans-25" x="389.550781"/>
      <use xlink:href="#DejaVuSans-20" x="484.570312"/>
      <use xlink:href="#DejaVuSans-6f" x="516.357422"/>
      <use xlink:href="#DejaVuSans-66" x="577.539062"/>
      <use xlink:href="#DejaVuSans-20" x="612.744141"/>
      <use xlink:href="#DejaVuSans-74" x="644.53125"/>
      <use xlink:href="#DejaVuSans-6f" x="683.740234"/>
      <use xlink:href="#DejaVuSans-74" x="744.921875"/>
      <use xlink:href="#DejaVuSans-61" x="784.130859"/>
      <use xlink:href="#DejaVuSans-6c" x="845.410156"/>
      <use xlink:href="#DejaVuSans-20" x="873.193359"/>
      <use xlink:href="#DejaVuSans-47" x="904.980469"/>
      <use xlink:href="#DejaVuSans-6f" x="982.470703"/>
      <use xlink:href="#DejaVuSans-6f" x="1043.652344"/>
      <use xlink:href="#DejaVuSans-67" x="1104.833984"/>
      <use xlink:href="#DejaVuSans-6c" x="1168.310547"/>
      <use xlink:href="#DejaVuSans-65" x="1196.09375"/>
      <use xlink:href="#DejaVuSans-20" x="1257.617188"/>
      <use xlink:href="#DejaVuSans-74" x="1289.404297"/>
      <use xlink:href="#DejaVuSans-72" x="1328.613281"/>
      <use xlink:href="#DejaVuSans-61" x="1369.726562"/>
      <use xlink:href="#DejaVuSans-66" x="1431.005859"/>
      <use xlink:href="#DejaVuSans-66" x="1466.210938"/>
      <use xlink:href="#DejaVuSans-69" x="1501.416016"/>
      <use xlink:href="#DejaVuSans-63" x="1529.199219"/>
     </g>
    </g>
   </g>
   <g id="line2d_18">
    <path d="M 73.832727 294.45742 
L 75.664347 294.268326 
L 76.122252 294.448388 
L 77.953871 294.447598 
L 79.78549 294.283464 
L 80.243395 294.138319 
L 81.61711 294.162398 
L 82.075015 294.142238 
L 82.53292 294.233359 
L 82.990824 294.127419 
L 83.448729 294.20914 
L 85.280349 294.042152 
L 87.111968 294.107321 
L 88.485683 294.054014 
L 89.859397 294.059201 
L 91.233112 294.113267 
L 92.606827 294.095827 
L 93.064731 294.213635 
L 95.354256 294.185012 
L 96.270065 294.20846 
L 98.101685 293.9201 
L 99.017495 294.047216 
L 99.475399 294.028906 
L 99.933304 293.730779 
L 102.680733 293.628513 
L 103.596543 293.589272 
L 105.428163 293.741673 
L 106.343972 293.717129 
L 107.259782 293.741912 
L 108.175592 293.741992 
L 110.465116 293.704478 
L 111.838831 293.921662 
L 112.75464 293.892794 
L 113.67045 293.84604 
L 114.58626 294.057186 
L 116.875784 294.076482 
L 118.249499 294.209097 
L 120.539023 294.10974 
L 120.996928 293.989874 
L 122.828547 293.885323 
L 126.033881 293.813247 
L 126.949691 293.917112 
L 127.407596 293.77081 
L 130.155025 294.042177 
L 133.360359 293.850835 
L 134.276169 293.853223 
L 134.734074 293.713969 
L 135.649883 293.830449 
L 136.565693 293.614245 
L 137.023598 293.667993 
L 137.481503 293.535261 
L 137.939408 293.593375 
L 138.855217 293.469866 
L 139.771027 293.421543 
L 140.228932 293.452284 
L 140.686837 293.604673 
L 142.518456 293.639095 
L 142.976361 293.710473 
L 143.892171 293.612181 
L 144.350076 293.411115 
L 145.72379 293.237899 
L 147.097505 293.378812 
L 147.55541 293.225498 
L 148.471219 293.381696 
L 151.676553 292.824492 
L 152.592363 292.993611 
L 155.339792 292.552446 
L 157.629317 292.394197 
L 158.087221 292.160007 
L 158.545126 292.250252 
L 159.003031 292.042946 
L 159.918841 291.995751 
L 160.376746 292.010637 
L 161.292555 291.730985 
L 163.124175 291.177394 
L 163.58208 290.980798 
L 164.039985 291.063138 
L 165.413699 290.92157 
L 165.871604 291.03721 
L 167.703223 290.80833 
L 169.076938 290.286723 
L 169.534843 290.172491 
L 169.992748 290.237513 
L 170.450653 289.851706 
L 170.908558 289.6656 
L 172.740177 289.441202 
L 173.198082 289.622165 
L 173.655987 289.446212 
L 174.571796 289.349396 
L 175.029701 289.06798 
L 175.945511 288.880202 
L 177.77713 288.860643 
L 178.69294 288.620758 
L 180.066655 288.444003 
L 180.52456 288.2129 
L 180.982464 288.190609 
L 181.440369 288.310108 
L 183.271989 287.446142 
L 183.729894 287.465934 
L 184.187798 287.342872 
L 184.645703 287.101248 
L 185.103608 287.079129 
L 185.561513 286.922662 
L 186.019418 286.558582 
L 186.477323 286.475048 
L 186.935228 286.249738 
L 187.393132 286.286431 
L 188.766847 285.733159 
L 189.224752 285.830992 
L 189.682657 285.558664 
L 190.140562 285.5108 
L 192.430086 284.231401 
L 193.345896 283.841902 
L 194.261705 283.159744 
L 195.63542 281.473809 
L 196.093325 281.74234 
L 196.55123 281.788795 
L 197.924944 280.187086 
L 198.382849 279.995028 
L 198.840754 279.185429 
L 199.756564 278.93288 
L 200.672373 278.393998 
L 201.130278 278.450159 
L 202.503993 277.566071 
L 202.961898 277.378293 
L 203.419803 277.031029 
L 204.335612 276.948745 
L 204.793517 276.162066 
L 205.251422 276.151699 
L 205.709327 275.286803 
L 206.167232 274.838877 
L 207.083041 274.967438 
L 207.540946 274.647216 
L 207.998851 274.153944 
L 208.914661 273.579735 
L 209.372566 273.066408 
L 209.830471 273.38113 
L 211.66209 272.373968 
L 212.119995 272.001566 
L 212.5779 270.471229 
L 213.035805 270.761524 
L 213.951614 269.722352 
L 214.409519 269.677735 
L 214.867424 270.126977 
L 216.241139 269.104769 
L 216.699043 268.411294 
L 217.614853 268.46476 
L 218.072758 267.714402 
L 218.530663 267.662754 
L 218.988568 263.687521 
L 219.446473 266.303018 
L 219.904377 267.861114 
L 220.362282 267.10402 
L 220.820187 266.680938 
L 221.278092 266.612756 
L 221.735997 265.61702 
L 222.193902 265.305016 
L 223.567616 263.143801 
L 224.025521 261.732656 
L 224.483426 260.927215 
L 224.941331 259.833708 
L 225.399236 259.111733 
L 225.857141 260.264757 
L 226.315046 260.088302 
L 226.77295 260.120225 
L 227.230855 260.30649 
L 227.68876 260.654293 
L 228.146665 260.521598 
L 228.60457 257.978765 
L 229.062475 258.354884 
L 230.436189 257.014976 
L 230.894094 256.834633 
L 231.809904 256.913923 
L 232.267809 254.991759 
L 232.725714 254.921753 
L 233.641523 253.404827 
L 234.099428 253.922006 
L 234.557333 251.554384 
L 235.015238 252.114007 
L 235.473143 250.515721 
L 235.931048 249.750378 
L 236.388952 248.601188 
L 236.846857 249.399232 
L 237.304762 248.190354 
L 237.762667 246.179237 
L 238.220572 247.192652 
L 238.678477 247.481551 
L 239.136382 246.857286 
L 239.594286 245.018393 
L 240.052191 245.529204 
L 240.510096 243.905645 
L 240.968001 244.279645 
L 241.883811 242.0899 
L 242.341716 240.98063 
L 243.71543 240.632362 
L 244.173335 239.351499 
L 244.63124 239.507366 
L 245.089145 239.026874 
L 245.54705 237.757396 
L 246.004954 237.435196 
L 246.462859 236.015741 
L 246.920764 235.042657 
L 247.378669 234.871162 
L 247.836574 235.11068 
L 248.294479 234.491516 
L 248.752384 231.853906 
L 249.668193 233.40104 
L 250.126098 233.103843 
L 251.041908 233.014786 
L 251.499813 233.067187 
L 252.415623 232.748949 
L 252.873527 231.264938 
L 253.331432 231.194687 
L 253.789337 229.878594 
L 254.247242 229.874896 
L 254.705147 229.674968 
L 256.078861 225.910832 
L 256.536766 223.693799 
L 256.994671 225.20781 
L 257.452576 224.573227 
L 257.910481 223.261556 
L 258.368386 223.553523 
L 258.826291 220.753131 
L 259.284195 221.163984 
L 259.7421 220.820609 
L 260.200005 218.866596 
L 260.65791 218.848102 
L 261.115815 217.391599 
L 261.57372 217.742298 
L 262.031625 216.590279 
L 262.489529 215.978292 
L 262.947434 216.303419 
L 263.405339 215.514592 
L 263.863244 214.283974 
L 264.321149 214.677369 
L 264.779054 214.093723 
L 265.236959 212.157113 
L 265.694863 211.347251 
L 266.152768 211.423007 
L 266.610673 209.158326 
L 267.068578 209.561059 
L 267.984388 206.863711 
L 268.442293 204.17209 
L 268.900197 204.438123 
L 269.816007 202.924608 
L 270.273912 201.228752 
L 270.731817 201.455465 
L 271.189722 200.744752 
L 271.647627 198.063345 
L 272.105531 197.122563 
L 272.563436 192.676911 
L 273.021341 195.567315 
L 273.479246 195.043271 
L 273.937151 195.732576 
L 274.395056 194.923136 
L 275.310865 196.237734 
L 275.76877 195.975663 
L 276.226675 194.823294 
L 276.68458 195.169861 
L 277.60039 193.702169 
L 278.058295 192.486022 
L 278.5162 192.293156 
L 278.974104 191.471058 
L 279.432009 188.5148 
L 279.889914 189.442464 
L 280.347819 185.478137 
L 280.805724 185.785009 
L 281.263629 183.63015 
L 281.721534 182.301969 
L 282.179438 181.502278 
L 282.637343 180.950684 
L 283.095248 179.859185 
L 283.553153 177.860077 
L 284.011058 174.564112 
L 284.468963 175.396418 
L 286.300582 171.642556 
L 286.758487 171.025193 
L 287.216392 171.048561 
L 287.674297 171.388691 
L 288.132202 170.220744 
L 288.590106 168.58386 
L 289.048011 170.050284 
L 289.505916 170.078588 
L 289.963821 171.385005 
L 290.421726 169.955287 
L 290.879631 167.732455 
L 291.337536 168.017281 
L 291.79544 167.057645 
L 293.169155 165.531533 
L 294.084965 164.410555 
L 294.54287 164.289128 
L 295.000774 180.542918 
L 295.458679 162.225702 
L 295.916584 161.346525 
L 296.374489 156.90467 
L 296.832394 161.025673 
L 297.748204 160.423515 
L 298.206108 160.4206 
L 298.664013 159.869116 
L 299.121918 159.597339 
L 299.579823 161.1071 
L 300.037728 162.064232 
L 300.495633 161.831555 
L 300.953538 160.53485 
L 301.411442 160.627961 
L 302.785157 159.537577 
L 303.243062 156.624461 
L 303.700967 157.774275 
L 304.158872 154.689045 
L 304.616777 155.989969 
L 305.074681 153.400332 
L 305.532586 151.783381 
L 305.990491 152.736778 
L 306.448396 150.753849 
L 306.906301 149.437211 
L 307.364206 149.157247 
L 307.822111 150.233644 
L 308.280015 150.801442 
L 309.65373 147.893414 
L 310.111635 148.56218 
L 310.56954 149.52595 
L 311.027445 149.712834 
L 311.485349 147.507209 
L 311.943254 146.685675 
L 312.401159 145.086801 
L 312.859064 144.692862 
L 313.316969 144.468942 
L 313.774874 144.636261 
L 314.232779 144.42536 
L 315.148588 142.229049 
L 315.606493 143.510414 
L 316.064398 139.451328 
L 316.522303 139.555732 
L 316.980208 139.060751 
L 317.438113 136.100267 
L 317.896017 135.211997 
L 318.353922 134.678094 
L 318.811827 134.681982 
L 319.269732 133.076973 
L 319.727637 132.96756 
L 320.185542 131.508313 
L 320.643447 130.429864 
L 321.101351 132.104887 
L 321.559256 133.183777 
L 322.475066 130.61447 
L 322.932971 131.874622 
L 323.390876 131.644211 
L 323.848781 132.192738 
L 324.306685 130.253397 
L 324.76459 129.576738 
L 325.222495 131.042947 
L 325.6804 128.938248 
L 326.138305 129.10665 
L 326.59621 128.506286 
L 327.054115 128.45053 
L 327.512019 128.273548 
L 327.969924 124.116103 
L 328.427829 123.995 
L 328.885734 124.323116 
L 329.343639 125.328705 
L 330.259449 120.477068 
L 330.717354 118.336808 
L 331.175258 117.793573 
L 331.633163 117.980162 
L 332.091068 117.589542 
L 332.548973 115.463532 
L 333.006878 117.216755 
L 333.464783 115.350078 
L 333.922688 117.082302 
L 334.380592 115.84054 
L 334.838497 115.088877 
L 335.296402 115.026194 
L 335.754307 115.110879 
L 336.212212 113.492159 
L 336.670117 113.676079 
L 337.128022 115.428003 
L 337.585926 114.834381 
L 338.043831 115.553 
L 338.501736 115.846712 
L 338.959641 113.601516 
L 339.417546 114.946176 
L 339.875451 115.307506 
L 340.333356 114.473069 
L 340.79126 113.963226 
L 341.249165 111.952054 
L 341.70707 112.376527 
L 342.164975 111.938803 
L 342.62288 112.083966 
L 343.080785 110.914432 
L 343.53869 110.402832 
L 343.996594 108.922501 
L 344.454499 108.275456 
L 344.912404 109.190206 
L 345.370309 109.462185 
L 345.828214 109.523373 
L 346.744024 107.418221 
L 347.201928 107.922889 
L 347.659833 106.3878 
L 348.117738 107.052194 
L 348.575643 106.765077 
L 349.033548 105.70329 
L 349.491453 105.962771 
L 349.949358 106.692168 
L 350.407262 106.359649 
L 350.865167 106.377029 
L 351.323072 103.618922 
L 352.238882 101.655246 
L 352.696787 101.979466 
L 353.154692 101.292972 
L 353.612596 99.008156 
L 354.070501 99.747259 
L 354.528406 96.468562 
L 354.986311 99.092479 
L 355.444216 96.920315 
L 355.902121 93.950995 
L 356.360026 94.819608 
L 356.817931 92.965565 
L 357.275835 91.714494 
L 357.73374 91.834177 
L 358.191645 90.895581 
L 358.64955 93.248561 
L 359.107455 91.288314 
L 359.56536 92.023332 
L 360.023265 92.454577 
L 361.396979 89.44702 
L 361.854884 91.951042 
L 362.312789 92.001213 
L 362.770694 90.894271 
L 363.228599 91.521518 
L 363.686503 93.042289 
L 364.144408 91.859535 
L 364.602313 89.107558 
L 365.060218 93.676162 
L 365.518123 92.445496 
L 365.976028 90.66419 
L 366.433933 92.158483 
L 366.891837 92.26645 
L 367.349742 89.826232 
L 367.807647 88.610985 
L 368.265552 86.383156 
L 368.723457 87.469572 
L 369.181362 86.646488 
L 369.639267 86.900353 
L 370.097171 87.597766 
L 370.555076 85.816895 
L 371.012981 85.086733 
L 371.470886 86.406971 
L 371.928791 86.077913 
L 372.386696 83.221036 
L 372.844601 82.592614 
L 373.302505 80.648295 
L 373.76041 83.841131 
L 374.218315 84.900039 
L 374.67622 83.859061 
L 375.134125 83.659985 
L 375.59203 83.823243 
L 376.049935 78.191892 
L 376.507839 81.956481 
L 376.965744 79.787183 
L 377.881554 80.88456 
L 378.339459 75.551072 
L 378.797364 74.869441 
L 379.255269 72.723988 
L 379.713173 72.638599 
L 380.171078 74.579219 
L 380.628983 71.903042 
L 381.086888 71.376989 
L 381.544793 69.994963 
L 382.002698 69.495163 
L 382.460603 67.924936 
L 382.918508 68.159701 
L 383.376412 71.966679 
L 383.834317 69.913738 
L 384.292222 68.613861 
L 384.750127 71.086051 
L 385.208032 69.71893 
L 385.665937 69.237685 
L 386.123842 67.263886 
L 387.039651 70.405307 
L 387.497556 70.060303 
L 387.955461 70.552828 
L 388.413366 70.396777 
L 388.871271 68.626959 
L 389.329176 70.673275 
L 389.78708 68.214759 
L 390.244985 67.345325 
L 390.70289 67.254235 
L 391.6187 64.1935 
L 392.076605 60.778183 
L 392.53451 63.107415 
L 392.992414 67.457861 
L 393.450319 62.557467 
L 393.908224 62.327264 
L 394.366129 65.615698 
L 395.281939 61.23887 
L 395.739844 61.180364 
L 396.197748 62.104342 
L 396.655653 62.066639 
L 397.113558 62.774204 
L 397.571463 54.456001 
L 398.029368 53.568 
L 398.487273 77.824934 
L 398.487273 77.824934 
" clip-path="url(#p6d55f9652f)" style="fill: none; stroke: #1f77b4; stroke-width: 1.5; stroke-linecap: square"/>
   </g>
   <g id="line2d_19">
    <path d="M 73.832727 294.750061 
L 75.664347 294.594481 
L 76.122252 294.72469 
L 86.196158 294.439233 
L 87.111968 294.429343 
L 89.401492 294.355093 
L 91.691017 294.431113 
L 93.064731 294.420427 
L 97.185875 294.392196 
L 98.55959 294.279275 
L 99.017495 294.386795 
L 99.933304 294.335246 
L 100.391209 294.116023 
L 103.138638 294.028184 
L 105.428163 294.042452 
L 108.175592 294.078772 
L 110.007211 294.087168 
L 111.838831 294.1632 
L 113.67045 294.208981 
L 116.417879 294.242686 
L 119.623213 294.35306 
L 120.539023 294.337028 
L 121.912738 294.144559 
L 123.744357 294.115631 
L 126.033881 294.049084 
L 131.52874 294.251014 
L 137.939408 293.745617 
L 138.855217 293.681673 
L 139.771027 293.610962 
L 140.686837 293.720975 
L 141.602646 293.735433 
L 142.518456 293.793259 
L 143.892171 293.832341 
L 144.807981 293.491501 
L 145.265885 293.45553 
L 146.6396 293.585194 
L 148.013315 293.510435 
L 148.471219 293.571991 
L 148.929124 293.422003 
L 151.218649 293.368555 
L 152.134458 293.177458 
L 152.592363 293.175198 
L 153.050268 293.29717 
L 157.629317 292.763586 
L 158.087221 292.899312 
L 159.460936 292.534259 
L 160.376746 292.407038 
L 160.834651 292.397479 
L 161.292555 292.23738 
L 162.208365 292.245733 
L 163.58208 291.782124 
L 165.413699 291.456863 
L 165.871604 291.597476 
L 167.703223 291.452484 
L 174.113892 290.258995 
L 174.571796 290.311408 
L 175.487606 290.011927 
L 176.403416 289.892839 
L 176.861321 289.619084 
L 178.235035 289.930666 
L 179.150845 289.715649 
L 179.60875 289.652446 
L 180.066655 289.386438 
L 180.52456 289.406358 
L 180.982464 289.209309 
L 182.356179 289.108623 
L 182.814084 288.827642 
L 184.187798 288.54352 
L 184.645703 288.546588 
L 185.103608 288.366599 
L 185.561513 288.348308 
L 187.393132 287.790191 
L 187.851037 287.718054 
L 188.766847 287.237831 
L 189.224752 287.399038 
L 190.140562 287.066741 
L 191.514276 286.359095 
L 191.972181 286.000864 
L 192.887991 285.752008 
L 193.345896 285.86635 
L 194.261705 285.691518 
L 195.63542 284.353717 
L 196.093325 284.032356 
L 196.55123 284.120703 
L 197.009135 283.948289 
L 198.382849 282.943784 
L 198.840754 282.773814 
L 199.756564 281.962323 
L 200.214469 281.851135 
L 200.672373 280.319634 
L 201.130278 280.462623 
L 201.588183 281.482866 
L 202.046088 281.372076 
L 202.961898 280.589213 
L 203.419803 281.29665 
L 203.877707 280.380651 
L 204.335612 280.324313 
L 204.793517 280.039596 
L 205.251422 279.373666 
L 205.709327 279.407505 
L 206.625137 278.38755 
L 207.083041 278.41831 
L 207.540946 278.190421 
L 207.998851 277.363094 
L 208.456756 277.642452 
L 208.914661 277.016252 
L 209.372566 277.204092 
L 209.830471 276.978034 
L 210.288375 277.070288 
L 210.74628 276.364719 
L 211.204185 276.391914 
L 211.66209 275.672089 
L 212.119995 275.797148 
L 212.5779 274.915852 
L 213.035805 274.277858 
L 213.493709 273.977201 
L 213.951614 273.881586 
L 214.409519 273.532882 
L 214.867424 273.49832 
L 215.325329 273.631799 
L 215.783234 273.606483 
L 216.241139 273.403243 
L 216.699043 273.323506 
L 217.156948 273.107988 
L 217.614853 273.270291 
L 218.530663 272.850871 
L 218.988568 272.127769 
L 219.446473 270.504707 
L 219.904377 271.716243 
L 220.362282 272.115087 
L 220.820187 271.696378 
L 221.278092 271.939257 
L 221.735997 271.333327 
L 222.651807 270.549851 
L 223.109712 269.773143 
L 223.567616 269.286031 
L 224.025521 268.265574 
L 224.483426 265.245427 
L 224.941331 263.310973 
L 225.399236 266.176686 
L 225.857141 266.932396 
L 226.315046 266.95318 
L 226.77295 267.255227 
L 227.230855 267.233475 
L 227.68876 267.637714 
L 228.146665 266.803498 
L 228.60457 266.950185 
L 229.062475 265.392133 
L 229.52038 264.916019 
L 229.978284 265.186706 
L 230.894094 263.633013 
L 231.351999 264.053542 
L 231.809904 264.012996 
L 232.267809 263.512296 
L 232.725714 262.78557 
L 233.183618 262.407454 
L 233.641523 262.461049 
L 234.557333 260.208382 
L 235.015238 259.545807 
L 235.473143 259.189743 
L 235.931048 257.8919 
L 236.388952 257.442388 
L 237.762667 254.825359 
L 238.220572 255.269666 
L 239.136382 254.832677 
L 240.052191 253.993666 
L 240.510096 254.358413 
L 241.425906 253.895882 
L 242.341716 252.738584 
L 243.71543 252.147026 
L 244.173335 252.150903 
L 244.63124 250.937548 
L 245.089145 250.815331 
L 245.54705 250.848582 
L 246.004954 250.227165 
L 246.920764 247.998332 
L 247.378669 247.150398 
L 247.836574 246.570041 
L 248.294479 243.769435 
L 248.752384 239.818164 
L 249.210288 245.680815 
L 249.668193 246.958322 
L 250.126098 246.601627 
L 250.584003 245.972629 
L 251.041908 246.058226 
L 251.499813 246.382171 
L 252.415623 245.058755 
L 252.873527 244.824277 
L 253.789337 243.966484 
L 254.247242 242.571843 
L 254.705147 242.248321 
L 255.163052 242.169257 
L 256.078861 240.93518 
L 256.536766 239.46826 
L 256.994671 238.554043 
L 257.452576 239.130206 
L 258.368386 237.328319 
L 258.826291 235.6707 
L 259.284195 235.188561 
L 259.7421 234.952761 
L 260.65791 232.294538 
L 261.115815 230.224346 
L 261.57372 231.130933 
L 262.031625 230.960044 
L 262.489529 229.918368 
L 262.947434 229.215309 
L 263.405339 229.035309 
L 263.863244 229.16259 
L 264.321149 230.599222 
L 264.779054 229.862605 
L 265.236959 230.192258 
L 265.694863 229.410221 
L 266.152768 229.495231 
L 266.610673 228.615644 
L 267.526483 226.155511 
L 267.984388 226.402616 
L 268.900197 222.923085 
L 269.358102 223.747577 
L 269.816007 223.106803 
L 270.273912 221.590361 
L 270.731817 221.47777 
L 271.189722 220.460007 
L 271.647627 219.880525 
L 272.105531 215.838531 
L 272.563436 206.512087 
L 273.021341 213.226046 
L 273.479246 216.805969 
L 273.937151 217.184139 
L 274.852961 216.790041 
L 275.310865 216.899435 
L 275.76877 216.849325 
L 276.226675 215.735034 
L 276.68458 215.456931 
L 277.142485 215.804036 
L 278.058295 214.500393 
L 278.5162 213.156719 
L 278.974104 212.159716 
L 279.432009 209.595994 
L 279.889914 210.458447 
L 280.347819 210.330725 
L 280.805724 205.681128 
L 281.263629 206.700869 
L 282.179438 203.598603 
L 282.637343 200.613686 
L 283.095248 200.50611 
L 283.553153 200.097333 
L 284.468963 194.89793 
L 284.926868 194.552975 
L 285.384772 193.785268 
L 285.842677 193.410349 
L 286.758487 190.443044 
L 287.216392 190.188683 
L 287.674297 190.100813 
L 288.132202 191.401768 
L 288.590106 191.551603 
L 289.048011 192.655319 
L 289.505916 193.425199 
L 290.421726 194.03876 
L 290.879631 191.407126 
L 291.337536 190.743406 
L 291.79544 191.317371 
L 292.253345 190.145737 
L 292.71125 187.989954 
L 293.169155 189.866324 
L 293.62706 190.610136 
L 294.084965 188.390127 
L 294.54287 188.117064 
L 295.000774 186.866838 
L 295.458679 180.542918 
L 295.916584 183.075169 
L 296.374489 172.616737 
L 297.290299 185.03503 
L 297.748204 183.423664 
L 298.206108 185.116641 
L 298.664013 184.488194 
L 299.121918 184.383797 
L 299.579823 182.744188 
L 300.037728 185.511976 
L 300.495633 186.278458 
L 300.953538 185.560838 
L 301.411442 183.988933 
L 301.869347 183.453046 
L 302.327252 182.226041 
L 302.785157 182.140585 
L 303.243062 184.312486 
L 303.700967 183.071085 
L 304.158872 181.305768 
L 304.616777 178.82476 
L 305.074681 178.588868 
L 305.532586 177.562893 
L 305.990491 177.688221 
L 306.448396 175.047102 
L 306.906301 174.986177 
L 307.364206 173.168454 
L 307.822111 172.879083 
L 308.280015 172.32439 
L 308.73792 170.587635 
L 309.65373 170.601989 
L 310.56954 169.899255 
L 311.027445 170.943827 
L 311.485349 169.172987 
L 311.943254 168.23024 
L 312.401159 171.605906 
L 312.859064 171.77369 
L 313.316969 171.613971 
L 313.774874 171.715913 
L 314.232779 171.630817 
L 314.690683 169.940596 
L 315.148588 170.34366 
L 315.606493 171.026271 
L 316.064398 170.272882 
L 316.522303 166.814711 
L 316.980208 167.762479 
L 317.438113 167.289856 
L 317.896017 163.613663 
L 318.353922 165.41228 
L 319.727637 160.615983 
L 320.185542 145.620533 
L 320.643447 151.372381 
L 321.101351 160.023219 
L 321.559256 161.610942 
L 322.475066 160.077163 
L 322.932971 158.572974 
L 323.390876 159.697541 
L 323.848781 159.37844 
L 324.306685 160.561929 
L 324.76459 157.890155 
L 325.222495 160.250036 
L 326.138305 157.79956 
L 326.59621 157.765145 
L 327.054115 158.497255 
L 327.512019 155.434646 
L 327.969924 154.916793 
L 328.427829 152.352624 
L 328.885734 154.707472 
L 329.343639 156.205157 
L 329.801544 153.328942 
L 330.717354 145.307813 
L 331.175258 147.060827 
L 331.633163 145.61673 
L 332.091068 144.828056 
L 332.548973 142.954901 
L 333.006878 143.733759 
L 333.464783 143.951494 
L 333.922688 143.75578 
L 334.380592 143.132972 
L 334.838497 142.139674 
L 335.296402 139.367335 
L 335.754307 142.870148 
L 336.212212 143.861812 
L 336.670117 144.048371 
L 337.128022 145.62455 
L 337.585926 146.499263 
L 338.501736 146.174503 
L 338.959641 146.782222 
L 339.417546 146.431608 
L 339.875451 147.226559 
L 340.79126 144.019075 
L 341.249165 146.037883 
L 341.70707 145.352044 
L 342.164975 143.645026 
L 342.62288 143.8336 
L 343.080785 143.011478 
L 343.53869 140.45173 
L 343.996594 126.300246 
L 344.454499 125.923496 
L 344.912404 139.775212 
L 345.370309 141.717437 
L 345.828214 142.115075 
L 346.286119 140.778272 
L 346.744024 138.972784 
L 347.659833 136.949665 
L 348.117738 136.892371 
L 348.575643 137.563592 
L 349.033548 137.082752 
L 349.491453 126.281599 
L 349.949358 121.567489 
L 350.407262 119.731762 
L 350.865167 121.100451 
L 352.238882 116.304356 
L 352.696787 116.640996 
L 353.154692 119.181098 
L 353.612596 116.853428 
L 354.070501 115.965072 
L 354.528406 118.043396 
L 354.986311 119.186028 
L 355.902121 115.593012 
L 356.360026 112.172282 
L 356.817931 111.91353 
L 357.275835 110.056976 
L 357.73374 111.660577 
L 358.191645 111.440117 
L 358.64955 112.707342 
L 359.107455 111.493081 
L 359.56536 111.503204 
L 360.023265 112.573123 
L 360.481169 114.465108 
L 360.939074 113.561038 
L 361.396979 115.731911 
L 362.312789 115.885126 
L 362.770694 116.722993 
L 363.228599 115.196299 
L 363.686503 115.411787 
L 364.144408 114.204495 
L 364.602313 112.01936 
L 365.060218 114.511306 
L 365.518123 115.012796 
L 365.976028 114.769029 
L 366.433933 117.569493 
L 366.891837 115.223666 
L 367.349742 111.021971 
L 367.807647 105.739898 
L 368.265552 98.196303 
L 368.723457 104.686397 
L 369.181362 109.482283 
L 369.639267 108.646995 
L 370.097171 109.688928 
L 370.555076 108.398127 
L 371.470886 107.292887 
L 371.928791 107.456898 
L 372.386696 109.335822 
L 372.844601 108.870927 
L 373.302505 108.636101 
L 373.76041 106.428211 
L 374.218315 110.045782 
L 375.134125 106.639344 
L 375.59203 109.207671 
L 376.049935 107.715766 
L 376.507839 103.833595 
L 376.965744 104.215011 
L 377.423649 101.906159 
L 377.881554 100.553257 
L 378.339459 102.677381 
L 378.797364 103.106838 
L 379.713173 94.612583 
L 380.171078 94.467972 
L 380.628983 94.04775 
L 381.086888 93.187428 
L 381.544793 90.064071 
L 382.002698 91.711874 
L 382.460603 90.152957 
L 382.918508 90.27237 
L 383.376412 91.684862 
L 383.834317 95.140461 
L 384.292222 95.941726 
L 384.750127 95.999258 
L 385.208032 97.732743 
L 385.665937 95.214827 
L 386.581746 96.560607 
L 387.039651 96.874479 
L 387.497556 96.617227 
L 387.955461 96.109344 
L 388.413366 98.840011 
L 388.871271 97.583612 
L 389.329176 98.184417 
L 389.78708 96.399082 
L 390.244985 97.63635 
L 391.160795 94.591236 
L 391.6187 88.521707 
L 392.076605 74.309445 
L 392.53451 82.504242 
L 392.992414 88.516294 
L 393.450319 88.9064 
L 393.908224 90.898024 
L 394.366129 89.013167 
L 394.824034 92.189849 
L 395.281939 91.067541 
L 395.739844 87.121242 
L 396.197748 89.282255 
L 396.655653 89.274852 
L 397.113558 91.923589 
L 397.571463 87.430264 
L 398.029368 79.825517 
L 398.487273 79.298742 
L 398.487273 79.298742 
" clip-path="url(#p6d55f9652f)" style="fill: none; stroke: #ff7f0e; stroke-width: 1.5; stroke-linecap: square"/>
   </g>
   <g id="line2d_20">
    <path d="M 73.832727 295.280479 
L 76.580156 295.335182 
L 77.953871 295.294349 
L 82.990824 295.180246 
L 83.448729 295.2931 
L 83.906634 295.232047 
L 84.364539 295.292292 
L 84.822444 295.17814 
L 97.64378 295.250877 
L 98.101685 295.203357 
L 98.55959 295.312715 
L 99.933304 294.968653 
L 100.391209 295.188538 
L 104.512353 295.248789 
L 104.970258 295.344919 
L 106.343972 295.197337 
L 107.717687 295.236364 
L 110.923021 295.247797 
L 111.380926 295.398869 
L 112.75464 295.298556 
L 113.67045 295.210179 
L 114.58626 295.35626 
L 115.044165 295.376444 
L 115.502069 295.264478 
L 116.417879 295.401429 
L 117.333689 295.421496 
L 118.707404 295.426248 
L 122.370642 295.340382 
L 123.744357 295.270645 
L 124.660167 295.301067 
L 125.118072 295.376071 
L 126.033881 295.337283 
L 126.949691 295.338073 
L 127.865501 295.349353 
L 128.323406 295.4583 
L 131.52874 295.345556 
L 134.276169 295.345042 
L 134.734074 295.251465 
L 135.191978 295.396469 
L 136.107788 295.403382 
L 136.565693 295.340271 
L 137.023598 295.477669 
L 137.481503 295.32029 
L 137.939408 295.420878 
L 138.397312 295.296285 
L 139.771027 295.383701 
L 140.228932 295.325954 
L 140.686837 295.456818 
L 141.602646 295.419831 
L 142.060551 295.317963 
L 142.976361 295.488 
L 144.350076 295.327271 
L 144.807981 295.435067 
L 145.72379 295.275954 
L 146.181695 295.249065 
L 146.6396 295.398612 
L 147.097505 295.400125 
L 147.55541 295.263461 
L 148.929124 295.447149 
L 149.387029 295.282402 
L 150.760744 295.259144 
L 151.218649 295.095451 
L 152.592363 295.391533 
L 153.508173 295.094202 
L 153.966078 295.192928 
L 154.423983 295.058843 
L 155.797697 295.088305 
L 156.255602 295.116118 
L 156.713507 295.297068 
L 157.171412 295.189977 
L 157.629317 295.203731 
L 158.087221 294.833815 
L 158.545126 295.073895 
L 159.003031 294.961813 
L 160.376746 295.176719 
L 160.834651 295.012413 
L 161.292555 295.066725 
L 162.208365 294.805486 
L 162.66627 294.866834 
L 163.124175 294.758107 
L 163.58208 294.771794 
L 164.039985 294.936246 
L 164.497889 294.905107 
L 164.955794 294.756472 
L 165.413699 295.037827 
L 168.619033 294.76428 
L 169.534843 294.714947 
L 169.992748 294.738928 
L 170.450653 294.491872 
L 170.908558 294.429147 
L 171.824367 294.637164 
L 172.740177 294.586557 
L 173.198082 294.887587 
L 175.029701 294.518621 
L 176.403416 294.560042 
L 176.861321 294.873282 
L 178.235035 294.348185 
L 179.150845 294.442215 
L 179.60875 294.373384 
L 180.066655 294.630685 
L 180.52456 294.379661 
L 181.440369 294.697844 
L 182.814084 294.258387 
L 184.187798 294.372472 
L 184.645703 294.12778 
L 185.103608 294.28565 
L 186.019418 293.937332 
L 186.477323 294.11075 
L 186.935228 293.987749 
L 187.393132 294.06936 
L 187.851037 293.983873 
L 189.224752 294.005073 
L 189.682657 293.880492 
L 190.140562 294.01718 
L 191.514276 293.820443 
L 191.972181 294.049525 
L 192.887991 293.873199 
L 193.345896 293.548672 
L 193.8038 293.400643 
L 194.261705 293.041346 
L 195.177515 292.990476 
L 195.63542 292.693212 
L 196.093325 293.283104 
L 196.55123 293.241212 
L 197.009135 292.90279 
L 197.467039 292.841302 
L 197.924944 292.381098 
L 198.382849 292.624363 
L 198.840754 291.984734 
L 199.756564 292.543677 
L 200.214469 292.425434 
L 200.672373 293.647484 
L 201.130278 293.560656 
L 201.588183 292.20234 
L 202.046088 292.053167 
L 202.503993 292.106265 
L 202.961898 292.3622 
L 203.419803 291.307499 
L 203.877707 292.192169 
L 204.335612 292.197552 
L 204.793517 291.69559 
L 205.251422 292.351153 
L 205.709327 291.452417 
L 206.167232 291.586961 
L 206.625137 292.087827 
L 207.083041 292.122248 
L 207.540946 292.029915 
L 207.998851 292.36397 
L 208.456756 291.806001 
L 208.914661 292.136602 
L 209.372566 291.435436 
L 209.830471 291.976216 
L 210.288375 291.657409 
L 210.74628 292.109823 
L 211.204185 291.885187 
L 211.66209 292.274998 
L 212.5779 291.128497 
L 213.035805 292.056786 
L 213.493709 291.906105 
L 213.951614 291.413887 
L 214.409519 291.717972 
L 214.867424 292.201777 
L 215.325329 291.703012 
L 215.783234 291.415362 
L 216.241139 291.274645 
L 216.699043 290.660907 
L 217.156948 290.957785 
L 217.614853 290.767589 
L 218.072758 290.240152 
L 218.530663 290.385003 
L 218.988568 287.132871 
L 219.446473 291.371431 
L 219.904377 291.717991 
L 220.362282 290.562052 
L 220.820187 290.55768 
L 221.735997 289.856813 
L 222.193902 289.90745 
L 222.651807 289.579997 
L 223.109712 289.727872 
L 224.025521 289.040203 
L 224.483426 291.254909 
L 224.941331 292.095855 
L 225.399236 288.508167 
L 225.857141 288.905481 
L 226.77295 288.438118 
L 227.230855 288.646135 
L 227.68876 288.589699 
L 228.146665 289.29122 
L 228.60457 286.601699 
L 229.062475 288.535871 
L 229.52038 288.526839 
L 229.978284 287.740852 
L 230.436189 288.149035 
L 230.894094 288.774739 
L 231.351999 288.380341 
L 231.809904 288.474046 
L 232.267809 287.052583 
L 232.725714 287.709303 
L 233.183618 287.241763 
L 233.641523 286.516898 
L 234.099428 288.191932 
L 234.557333 286.919122 
L 235.015238 288.14132 
L 235.473143 286.899098 
L 235.931048 287.431598 
L 236.388952 286.73192 
L 236.846857 288.433244 
L 237.304762 288.064804 
L 237.762667 286.926997 
L 238.678477 287.956702 
L 239.136382 287.597729 
L 239.594286 286.246572 
L 240.052191 287.108658 
L 240.510096 285.120352 
L 240.968001 285.74349 
L 241.425906 284.735163 
L 242.341716 283.815166 
L 243.257525 283.989484 
L 243.71543 284.058455 
L 244.173335 282.773716 
L 244.63124 284.142938 
L 245.089145 283.784664 
L 245.54705 282.481933 
L 246.004954 282.781151 
L 246.462859 282.487934 
L 246.920764 282.617445 
L 247.836574 284.113759 
L 248.294479 286.295201 
L 248.752384 287.608862 
L 249.210288 282.500396 
L 249.668193 282.015838 
L 250.126098 282.075336 
L 250.584003 282.623955 
L 251.041908 282.52968 
L 251.499813 282.258136 
L 252.415623 283.263314 
L 252.873527 282.013781 
L 253.331432 282.312912 
L 253.789337 281.48523 
L 254.247242 282.876172 
L 254.705147 282.999768 
L 255.163052 281.748581 
L 256.078861 280.548772 
L 256.536766 279.798658 
L 256.994671 282.226886 
L 257.452576 281.01614 
L 257.910481 280.634375 
L 258.368386 281.798324 
L 258.826291 280.655551 
L 259.284195 281.548543 
L 259.7421 281.440968 
L 260.200005 280.903843 
L 260.65791 282.126684 
L 261.115815 282.740373 
L 261.57372 282.184486 
L 262.031625 281.203355 
L 262.489529 281.633044 
L 262.947434 282.66123 
L 263.405339 282.052403 
L 264.321149 279.651266 
L 264.779054 279.804237 
L 265.236959 277.537975 
L 266.152768 277.500896 
L 266.610673 276.115802 
L 267.068578 277.693126 
L 267.526483 277.460296 
L 267.984388 276.034215 
L 268.442293 275.278921 
L 268.900197 277.088157 
L 269.358102 275.494795 
L 270.273912 275.211511 
L 271.189722 275.857864 
L 271.647627 273.755939 
L 272.105531 276.857152 
L 272.563436 281.737944 
L 273.479246 273.810422 
L 273.937151 274.121556 
L 274.395056 273.474003 
L 274.852961 274.353915 
L 275.310865 274.911418 
L 275.76877 274.699458 
L 276.226675 274.661381 
L 276.68458 275.286049 
L 277.142485 274.258305 
L 277.60039 274.144538 
L 278.058295 273.558749 
L 278.5162 274.709556 
L 278.974104 274.884462 
L 279.432009 274.491925 
L 279.889914 274.557136 
L 280.347819 270.720532 
L 280.805724 275.677 
L 281.263629 272.502401 
L 281.721534 272.559308 
L 282.179438 273.476795 
L 282.637343 275.910118 
L 283.095248 274.926195 
L 283.553153 273.335864 
L 284.011058 272.742291 
L 284.468963 276.071607 
L 284.926868 275.453209 
L 285.384772 275.463784 
L 285.842677 274.425262 
L 286.300582 275.500086 
L 286.758487 276.155269 
L 287.216392 276.432998 
L 287.674297 276.860998 
L 288.132202 274.392096 
L 288.590106 272.605377 
L 289.048011 272.968085 
L 289.505916 272.226508 
L 289.963821 273.285025 
L 290.421726 271.489647 
L 290.879631 271.898448 
L 291.337536 272.846995 
L 291.79544 271.313394 
L 292.253345 271.925289 
L 292.71125 273.522901 
L 293.169155 271.238329 
L 293.62706 270.004993 
L 294.084965 271.593548 
L 294.54287 271.745184 
L 295.000774 289.249199 
L 295.458679 277.255904 
L 295.916584 273.844476 
L 296.374489 279.861053 
L 296.832394 278.312816 
L 297.290299 271.225463 
L 297.748204 272.57297 
L 298.206108 270.877079 
L 298.664013 270.954041 
L 299.121918 270.786662 
L 299.579823 273.936032 
L 300.037728 272.125375 
L 300.495633 271.126216 
L 300.953538 270.547132 
L 301.411442 272.212148 
L 301.869347 272.399173 
L 302.327252 273.239097 
L 302.785157 272.970112 
L 303.243062 267.885094 
L 303.700967 270.276311 
L 304.158872 268.956397 
L 304.616777 272.738329 
L 305.074681 270.384584 
L 305.532586 269.793608 
L 306.448396 271.279866 
L 306.906301 270.024154 
L 307.822111 272.927681 
L 308.280015 274.050172 
L 308.73792 274.817566 
L 309.65373 272.864545 
L 310.56954 275.199815 
L 311.027445 274.342126 
L 311.485349 273.907342 
L 311.943254 274.028555 
L 312.401159 269.054015 
L 312.859064 268.492292 
L 313.316969 268.428091 
L 313.774874 268.493468 
L 314.232779 268.367662 
L 314.690683 268.969012 
L 315.148588 267.45851 
L 315.606493 268.057263 
L 316.064398 264.751567 
L 316.522303 268.314141 
L 316.980208 266.871392 
L 317.438113 264.383531 
L 317.896017 267.171454 
L 318.353922 264.838934 
L 318.811827 266.375958 
L 319.269732 266.425021 
L 319.727637 267.924697 
L 320.185542 281.4609 
L 321.101351 267.654787 
L 321.559256 267.145955 
L 322.017161 266.841122 
L 322.475066 266.110427 
L 322.932971 268.874768 
L 323.390876 267.51979 
L 323.848781 268.387417 
L 324.306685 265.264588 
L 324.76459 267.259703 
L 325.6804 265.639696 
L 326.138305 266.88021 
L 326.59621 266.314261 
L 327.054115 265.526395 
L 327.512019 268.412022 
L 327.969924 264.77243 
L 328.427829 267.215496 
L 328.885734 265.188764 
L 329.343639 264.696667 
L 329.801544 264.810985 
L 330.717354 268.602115 
L 331.175258 266.305866 
L 331.633163 267.936552 
L 332.091068 268.334606 
L 332.548973 268.081752 
L 333.006878 269.056116 
L 333.464783 266.971704 
L 333.922688 268.899642 
L 334.380592 268.280687 
L 334.838497 268.522323 
L 335.296402 271.231979 
L 336.212212 265.203467 
L 336.670117 265.200827 
L 337.128022 265.376572 
L 337.585926 263.908238 
L 338.043831 264.772957 
L 338.501736 265.245329 
L 338.959641 262.392414 
L 339.417546 264.087688 
L 339.875451 263.654067 
L 340.79126 265.517271 
L 341.249165 261.487291 
L 342.164975 263.866897 
L 342.62288 263.823486 
L 343.080785 263.476074 
L 343.53869 265.524221 
L 343.996594 278.195376 
L 344.454499 277.92508 
L 344.912404 264.988114 
L 345.370309 263.317868 
L 345.828214 262.981418 
L 346.286119 263.359914 
L 346.744024 264.018557 
L 347.201928 265.672042 
L 347.659833 265.011255 
L 348.117738 265.732942 
L 348.575643 264.774604 
L 349.033548 264.193659 
L 349.491453 275.254292 
L 349.949358 280.697799 
L 350.407262 282.201007 
L 351.323072 279.577402 
L 351.780977 280.160442 
L 352.238882 280.924009 
L 352.696787 280.91159 
L 353.154692 277.684994 
L 353.612596 277.727848 
L 354.070501 279.355307 
L 354.528406 273.998285 
L 354.986311 275.479571 
L 355.444216 274.998608 
L 355.902121 273.931102 
L 356.360026 278.220446 
L 356.817931 276.625155 
L 357.275835 277.230638 
L 357.73374 275.746719 
L 358.191645 275.028584 
L 358.64955 276.114338 
L 359.107455 275.368352 
L 359.56536 276.093248 
L 360.023265 275.454574 
L 360.481169 272.625567 
L 360.939074 272.729462 
L 361.396979 269.288229 
L 361.854884 271.671497 
L 362.312789 271.689207 
L 362.770694 269.744398 
L 363.228599 271.898338 
L 363.686503 273.203622 
L 364.144408 273.22816 
L 364.602313 272.661317 
L 365.060218 274.737976 
L 365.976028 271.468281 
L 366.433933 270.162109 
L 366.891837 272.615904 
L 367.349742 274.377381 
L 367.807647 278.444207 
L 368.265552 283.759973 
L 369.181362 272.737325 
L 369.639267 273.826478 
L 370.097171 273.481958 
L 370.555076 272.991888 
L 371.012981 272.894956 
L 371.470886 274.687204 
L 371.928791 274.194134 
L 372.386696 269.458334 
L 372.844601 269.294806 
L 373.302505 267.585314 
L 373.76041 272.98604 
L 374.218315 270.427377 
L 374.67622 271.305488 
L 375.134125 272.59376 
L 375.59203 270.188692 
L 376.049935 266.049245 
L 376.507839 273.696006 
L 376.965744 271.145291 
L 377.423649 273.978371 
L 377.881554 275.904423 
L 378.339459 268.446811 
L 378.797364 267.335723 
L 379.255269 269.374127 
L 379.713173 273.599135 
L 380.171078 275.684367 
L 380.628983 273.428412 
L 381.086888 273.762681 
L 381.544793 275.504011 
L 382.002698 273.356409 
L 382.460603 273.345098 
L 382.918508 273.460451 
L 383.376412 275.854937 
L 383.834317 270.346397 
L 384.292222 268.245255 
L 384.750127 270.659913 
L 385.208032 267.559306 
L 385.665937 269.595977 
L 386.123842 266.973107 
L 387.039651 269.103948 
L 387.497556 269.016195 
L 387.955461 270.016603 
L 388.413366 267.129886 
L 388.871271 266.616467 
L 389.329176 268.061978 
L 389.78708 267.388797 
L 390.244985 265.282095 
L 390.70289 266.818452 
L 391.160795 266.798299 
L 391.6187 271.244912 
L 392.076605 282.041858 
L 392.53451 276.176292 
L 392.992414 274.514687 
L 393.450319 269.224187 
L 393.908224 267.00236 
L 394.366129 272.175651 
L 394.824034 266.80362 
L 395.281939 265.744449 
L 395.739844 269.632242 
L 396.197748 268.395207 
L 396.655653 268.364907 
L 397.113558 266.423735 
L 397.571463 262.598857 
L 398.029368 269.315602 
L 398.487273 294.099311 
L 398.487273 294.099311 
" clip-path="url(#p6d55f9652f)" style="fill: none; stroke: #2ca02c; stroke-width: 1.5; stroke-linecap: square"/>
   </g>
   <g id="patch_3">
    <path d="M 57.6 307.584 
L 57.6 41.472 
" style="fill: none; stroke: #000000; stroke-width: 0.8; stroke-linejoin: miter; stroke-linecap: square"/>
   </g>
   <g id="patch_4">
    <path d="M 414.72 307.584 
L 414.72 41.472 
" style="fill: none; stroke: #000000; stroke-width: 0.8; stroke-linejoin: miter; stroke-linecap: square"/>
   </g>
   <g id="patch_5">
    <path d="M 57.6 307.584 
L 414.72 307.584 
" style="fill: none; stroke: #000000; stroke-width: 0.8; stroke-linejoin: miter; stroke-linecap: square"/>
   </g>
   <g id="patch_6">
    <path d="M 57.6 41.472 
L 414.72 41.472 
" style="fill: none; stroke: #000000; stroke-width: 0.8; stroke-linejoin: miter; stroke-linecap: square"/>
   </g>
   <g id="legend_1">
    <g id="patch_7">
     <path d="M 64.6 93.506375 
L 186.25625 93.506375 
Q 188.25625 93.506375 188.25625 91.506375 
L 188.25625 48.472 
Q 188.25625 46.472 186.25625 46.472 
L 64.6 46.472 
Q 62.6 46.472 62.6 48.472 
L 62.6 91.506375 
Q 62.6 93.506375 64.6 93.506375 
z
" style="fill: #ffffff; opacity: 0.8; stroke: #cccccc; stroke-linejoin: miter"/>
    </g>
    <g id="line2d_21">
     <path d="M 66.6 54.570438 
L 76.6 54.570438 
L 86.6 54.570438 
" style="fill: none; stroke: #1f77b4; stroke-width: 1.5; stroke-linecap: square"/>
    </g>
    <g id="text_20">
     <!-- Weekly maximum -->
     <g transform="translate(94.6 58.070438)scale(0.1 -0.1)">
      <defs>
       <path id="DejaVuSans-57" d="M 213 4666 
L 850 4666 
L 1831 722 
L 2809 4666 
L 3519 4666 
L 4500 722 
L 5478 4666 
L 6119 4666 
L 4947 0 
L 4153 0 
L 3169 4050 
L 2175 0 
L 1381 0 
L 213 4666 
z
" transform="scale(0.015625)"/>
       <path id="DejaVuSans-6b" d="M 581 4863 
L 1159 4863 
L 1159 1991 
L 2875 3500 
L 3609 3500 
L 1753 1863 
L 3688 0 
L 2938 0 
L 1159 1709 
L 1159 0 
L 581 0 
L 581 4863 
z
" transform="scale(0.015625)"/>
       <path id="DejaVuSans-79" d="M 2059 -325 
Q 1816 -950 1584 -1140 
Q 1353 -1331 966 -1331 
L 506 -1331 
L 506 -850 
L 844 -850 
Q 1081 -850 1212 -737 
Q 1344 -625 1503 -206 
L 1606 56 
L 191 3500 
L 800 3500 
L 1894 763 
L 2988 3500 
L 3597 3500 
L 2059 -325 
z
" transform="scale(0.015625)"/>
       <path id="DejaVuSans-6d" d="M 3328 2828 
Q 3544 3216 3844 3400 
Q 4144 3584 4550 3584 
Q 5097 3584 5394 3201 
Q 5691 2819 5691 2113 
L 5691 0 
L 5113 0 
L 5113 2094 
Q 5113 2597 4934 2840 
Q 4756 3084 4391 3084 
Q 3944 3084 3684 2787 
Q 3425 2491 3425 1978 
L 3425 0 
L 2847 0 
L 2847 2094 
Q 2847 2600 2669 2842 
Q 2491 3084 2119 3084 
Q 1678 3084 1418 2786 
Q 1159 2488 1159 1978 
L 1159 0 
L 581 0 
L 581 3500 
L 1159 3500 
L 1159 2956 
Q 1356 3278 1631 3431 
Q 1906 3584 2284 3584 
Q 2666 3584 2933 3390 
Q 3200 3197 3328 2828 
z
" transform="scale(0.015625)"/>
       <path id="DejaVuSans-78" d="M 3513 3500 
L 2247 1797 
L 3578 0 
L 2900 0 
L 1881 1375 
L 863 0 
L 184 0 
L 1544 1831 
L 300 3500 
L 978 3500 
L 1906 2253 
L 2834 3500 
L 3513 3500 
z
" transform="scale(0.015625)"/>
       <path id="DejaVuSans-75" d="M 544 1381 
L 544 3500 
L 1119 3500 
L 1119 1403 
Q 1119 906 1312 657 
Q 1506 409 1894 409 
Q 2359 409 2629 706 
Q 2900 1003 2900 1516 
L 2900 3500 
L 3475 3500 
L 3475 0 
L 2900 0 
L 2900 538 
Q 2691 219 2414 64 
Q 2138 -91 1772 -91 
Q 1169 -91 856 284 
Q 544 659 544 1381 
z
M 1991 3584 
L 1991 3584 
z
" transform="scale(0.015625)"/>
      </defs>
      <use xlink:href="#DejaVuSans-57"/>
      <use xlink:href="#DejaVuSans-65" x="93.001953"/>
      <use xlink:href="#DejaVuSans-65" x="154.525391"/>
      <use xlink:href="#DejaVuSans-6b" x="216.048828"/>
      <use xlink:href="#DejaVuSans-6c" x="273.958984"/>
      <use xlink:href="#DejaVuSans-79" x="301.742188"/>
      <use xlink:href="#DejaVuSans-20" x="360.921875"/>
      <use xlink:href="#DejaVuSans-6d" x="392.708984"/>
      <use xlink:href="#DejaVuSans-61" x="490.121094"/>
      <use xlink:href="#DejaVuSans-78" x="551.400391"/>
      <use xlink:href="#DejaVuSans-69" x="610.580078"/>
      <use xlink:href="#DejaVuSans-6d" x="638.363281"/>
      <use xlink:href="#DejaVuSans-75" x="735.775391"/>
      <use xlink:href="#DejaVuSans-6d" x="799.154297"/>
     </g>
    </g>
    <g id="line2d_22">
     <path d="M 66.6 69.248563 
L 76.6 69.248563 
L 86.6 69.248563 
" style="fill: none; stroke: #ff7f0e; stroke-width: 1.5; stroke-linecap: square"/>
    </g>
    <g id="text_21">
     <!-- Weekly minimum -->
     <g transform="translate(94.6 72.748563)scale(0.1 -0.1)">
      <defs>
       <path id="DejaVuSans-6e" d="M 3513 2113 
L 3513 0 
L 2938 0 
L 2938 2094 
Q 2938 2591 2744 2837 
Q 2550 3084 2163 3084 
Q 1697 3084 1428 2787 
Q 1159 2491 1159 1978 
L 1159 0 
L 581 0 
L 581 3500 
L 1159 3500 
L 1159 2956 
Q 1366 3272 1645 3428 
Q 1925 3584 2291 3584 
Q 2894 3584 3203 3211 
Q 3513 2838 3513 2113 
z
" transform="scale(0.015625)"/>
      </defs>
      <use xlink:href="#DejaVuSans-57"/>
      <use xlink:href="#DejaVuSans-65" x="93.001953"/>
      <use xlink:href="#DejaVuSans-65" x="154.525391"/>
      <use xlink:href="#DejaVuSans-6b" x="216.048828"/>
      <use xlink:href="#DejaVuSans-6c" x="273.958984"/>
      <use xlink:href="#DejaVuSans-79" x="301.742188"/>
      <use xlink:href="#DejaVuSans-20" x="360.921875"/>
      <use xlink:href="#DejaVuSans-6d" x="392.708984"/>
      <use xlink:href="#DejaVuSans-69" x="490.121094"/>
      <use xlink:href="#DejaVuSans-6e" x="517.904297"/>
      <use xlink:href="#DejaVuSans-69" x="581.283203"/>
      <use xlink:href="#DejaVuSans-6d" x="609.066406"/>
      <use xlink:href="#DejaVuSans-75" x="706.478516"/>
      <use xlink:href="#DejaVuSans-6d" x="769.857422"/>
     </g>
    </g>
    <g id="line2d_23">
     <path d="M 66.6 83.926688 
L 76.6 83.926688 
L 86.6 83.926688 
" style="fill: none; stroke: #2ca02c; stroke-width: 1.5; stroke-linecap: square"/>
    </g>
    <g id="text_22">
     <!-- Weekly range -->
     <g transform="translate(94.6 87.426688)scale(0.1 -0.1)">
      <use xlink:href="#DejaVuSans-57"/>
      <use xlink:href="#DejaVuSans-65" x="93.001953"/>
      <use xlink:href="#DejaVuSans-65" x="154.525391"/>
      <use xlink:href="#DejaVuSans-6b" x="216.048828"/>
      <use xlink:href="#DejaVuSans-6c" x="273.958984"/>
      <use xlink:href="#DejaVuSans-79" x="301.742188"/>
      <use xlink:href="#DejaVuSans-20" x="360.921875"/>
      <use xlink:href="#DejaVuSans-72" x="392.708984"/>
      <use xlink:href="#DejaVuSans-61" x="433.822266"/>
      <use xlink:href="#DejaVuSans-6e" x="495.101562"/>
      <use xlink:href="#DejaVuSans-67" x="558.480469"/>
      <use xlink:href="#DejaVuSans-65" x="621.957031"/>
     </g>
    </g>
   </g>
  </g>
 </g>
 <defs>
  <clipPath id="p6d55f9652f">
   <rect x="57.6" y="41.472" width="357.12" height="266.112"/>
  </clipPath>
 </defs>
</svg>
