<?xml version="1.0" encoding="utf-8" standalone="no"?>
<!DOCTYPE svg PUBLIC "-//W3C//DTD SVG 1.1//EN"
  "http://www.w3.org/Graphics/SVG/1.1/DTD/svg11.dtd">
<svg xmlns:xlink="http://www.w3.org/1999/xlink" width="460.8pt" height="345.6pt" viewBox="0 0 460.8 345.6" xmlns="http://www.w3.org/2000/svg" version="1.1">
 <metadata>
  <rdf:RDF xmlns:dc="http://purl.org/dc/elements/1.1/" xmlns:cc="http://creativecommons.org/ns#" xmlns:rdf="http://www.w3.org/1999/02/22-rdf-syntax-ns#">
   <cc:Work>
    <dc:type rdf:resource="http://purl.org/dc/dcmitype/StillImage"/>
    <dc:date>2024-10-23T05:37:31.879775</dc:date>
    <dc:format>image/svg+xml</dc:format>
    <dc:creator>
     <cc:Agent>
      <dc:title>Matplotlib v3.9.2, https://matplotlib.org/</dc:title>
     </cc:Agent>
    </dc:creator>
   </cc:Work>
  </rdf:RDF>
 </metadata>
 <defs>
  <style type="text/css">*{stroke-linejoin: round; stroke-linecap: butt}</style>
 </defs>
 <g id="figure_1">
  <g id="patch_1">
   <path d="M 0 345.6 
L 460.8 345.6 
L 460.8 0 
L 0 0 
z
" style="fill: #ffffff"/>
  </g>
  <g id="axes_1">
   <g id="patch_2">
    <path d="M 57.6 307.584 
L 414.72 307.584 
L 414.72 41.472 
L 57.6 41.472 
z
" style="fill: #ffffff"/>
   </g>
   <g id="matplotlib.axis_1">
    <g id="xtick_1">
     <g id="line2d_1">
      <defs>
       <path id="mafbc3b0def" d="M 0 0 
L 0 3.5 
" style="stroke: #000000; stroke-width: 0.8"/>
      </defs>
      <g>
       <use xlink:href="#mafbc3b0def" x="60.376687" y="307.584" style="stroke: #000000; stroke-width: 0.8"/>
      </g>
     </g>
     <g id="text_1">
      <!-- 2008 -->
      <g transform="translate(47.651687 322.182437) scale(0.1 -0.1)">
       <defs>
        <path id="DejaVuSans-32" d="M 1228 531 
L 3431 531 
L 3431 0 
L 469 0 
L 469 531 
Q 828 903 1448 1529 
Q 2069 2156 2228 2338 
Q 2531 2678 2651 2914 
Q 2772 3150 2772 3378 
Q 2772 3750 2511 3984 
Q 2250 4219 1831 4219 
Q 1534 4219 1204 4116 
Q 875 4013 500 3803 
L 500 4441 
Q 881 4594 1212 4672 
Q 1544 4750 1819 4750 
Q 2544 4750 2975 4387 
Q 3406 4025 3406 3419 
Q 3406 3131 3298 2873 
Q 3191 2616 2906 2266 
Q 2828 2175 2409 1742 
Q 1991 1309 1228 531 
z
" transform="scale(0.015625)"/>
        <path id="DejaVuSans-30" d="M 2034 4250 
Q 1547 4250 1301 3770 
Q 1056 3291 1056 2328 
Q 1056 1369 1301 889 
Q 1547 409 2034 409 
Q 2525 409 2770 889 
Q 3016 1369 3016 2328 
Q 3016 3291 2770 3770 
Q 2525 4250 2034 4250 
z
M 2034 4750 
Q 2819 4750 3233 4129 
Q 3647 3509 3647 2328 
Q 3647 1150 3233 529 
Q 2819 -91 2034 -91 
Q 1250 -91 836 529 
Q 422 1150 422 2328 
Q 422 3509 836 4129 
Q 1250 4750 2034 4750 
z
" transform="scale(0.015625)"/>
        <path id="DejaVuSans-38" d="M 2034 2216 
Q 1584 2216 1326 1975 
Q 1069 1734 1069 1313 
Q 1069 891 1326 650 
Q 1584 409 2034 409 
Q 2484 409 2743 651 
Q 3003 894 3003 1313 
Q 3003 1734 2745 1975 
Q 2488 2216 2034 2216 
z
M 1403 2484 
Q 997 2584 770 2862 
Q 544 3141 544 3541 
Q 544 4100 942 4425 
Q 1341 4750 2034 4750 
Q 2731 4750 3128 4425 
Q 3525 4100 3525 3541 
Q 3525 3141 3298 2862 
Q 3072 2584 2669 2484 
Q 3125 2378 3379 2068 
Q 3634 1759 3634 1313 
Q 3634 634 3220 271 
Q 2806 -91 2034 -91 
Q 1263 -91 848 271 
Q 434 634 434 1313 
Q 434 1759 690 2068 
Q 947 2378 1403 2484 
z
M 1172 3481 
Q 1172 3119 1398 2916 
Q 1625 2713 2034 2713 
Q 2441 2713 2670 2916 
Q 2900 3119 2900 3481 
Q 2900 3844 2670 4047 
Q 2441 4250 2034 4250 
Q 1625 4250 1398 4047 
Q 1172 3844 1172 3481 
z
" transform="scale(0.015625)"/>
       </defs>
       <use xlink:href="#DejaVuSans-32"/>
       <use xlink:href="#DejaVuSans-30" x="63.623047"/>
       <use xlink:href="#DejaVuSans-30" x="127.246094"/>
       <use xlink:href="#DejaVuSans-38" x="190.869141"/>
      </g>
     </g>
    </g>
    <g id="xtick_2">
     <g id="line2d_2">
      <g>
       <use xlink:href="#mafbc3b0def" x="100.68966" y="307.584" style="stroke: #000000; stroke-width: 0.8"/>
      </g>
     </g>
     <g id="text_2">
      <!-- 2010 -->
      <g transform="translate(87.96466 322.182437) scale(0.1 -0.1)">
       <defs>
        <path id="DejaVuSans-31" d="M 794 531 
L 1825 531 
L 1825 4091 
L 703 3866 
L 703 4441 
L 1819 4666 
L 2450 4666 
L 2450 531 
L 3481 531 
L 3481 0 
L 794 0 
L 794 531 
z
" transform="scale(0.015625)"/>
       </defs>
       <use xlink:href="#DejaVuSans-32"/>
       <use xlink:href="#DejaVuSans-30" x="63.623047"/>
       <use xlink:href="#DejaVuSans-31" x="127.246094"/>
       <use xlink:href="#DejaVuSans-30" x="190.869141"/>
      </g>
     </g>
    </g>
    <g id="xtick_3">
     <g id="line2d_3">
      <g>
       <use xlink:href="#mafbc3b0def" x="140.947486" y="307.584" style="stroke: #000000; stroke-width: 0.8"/>
      </g>
     </g>
     <g id="text_3">
      <!-- 2012 -->
      <g transform="translate(128.222486 322.182437) scale(0.1 -0.1)">
       <use xlink:href="#DejaVuSans-32"/>
       <use xlink:href="#DejaVuSans-30" x="63.623047"/>
       <use xlink:href="#DejaVuSans-31" x="127.246094"/>
       <use xlink:href="#DejaVuSans-32" x="190.869141"/>
      </g>
     </g>
    </g>
    <g id="xtick_4">
     <g id="line2d_4">
      <g>
       <use xlink:href="#mafbc3b0def" x="181.260459" y="307.584" style="stroke: #000000; stroke-width: 0.8"/>
      </g>
     </g>
     <g id="text_4">
      <!-- 2014 -->
      <g transform="translate(168.535459 322.182437) scale(0.1 -0.1)">
       <defs>
        <path id="DejaVuSans-34" d="M 2419 4116 
L 825 1625 
L 2419 1625 
L 2419 4116 
z
M 2253 4666 
L 3047 4666 
L 3047 1625 
L 3713 1625 
L 3713 1100 
L 3047 1100 
L 3047 0 
L 2419 0 
L 2419 1100 
L 313 1100 
L 313 1709 
L 2253 4666 
z
" transform="scale(0.015625)"/>
       </defs>
       <use xlink:href="#DejaVuSans-32"/>
       <use xlink:href="#DejaVuSans-30" x="63.623047"/>
       <use xlink:href="#DejaVuSans-31" x="127.246094"/>
       <use xlink:href="#DejaVuSans-34" x="190.869141"/>
      </g>
     </g>
    </g>
    <g id="xtick_5">
     <g id="line2d_5">
      <g>
       <use xlink:href="#mafbc3b0def" x="221.518284" y="307.584" style="stroke: #000000; stroke-width: 0.8"/>
      </g>
     </g>
     <g id="text_5">
      <!-- 2016 -->
      <g transform="translate(208.793284 322.182437) scale(0.1 -0.1)">
       <defs>
        <path id="DejaVuSans-36" d="M 2113 2584 
Q 1688 2584 1439 2293 
Q 1191 2003 1191 1497 
Q 1191 994 1439 701 
Q 1688 409 2113 409 
Q 2538 409 2786 701 
Q 3034 994 3034 1497 
Q 3034 2003 2786 2293 
Q 2538 2584 2113 2584 
z
M 3366 4563 
L 3366 3988 
Q 3128 4100 2886 4159 
Q 2644 4219 2406 4219 
Q 1781 4219 1451 3797 
Q 1122 3375 1075 2522 
Q 1259 2794 1537 2939 
Q 1816 3084 2150 3084 
Q 2853 3084 3261 2657 
Q 3669 2231 3669 1497 
Q 3669 778 3244 343 
Q 2819 -91 2113 -91 
Q 1303 -91 875 529 
Q 447 1150 447 2328 
Q 447 3434 972 4092 
Q 1497 4750 2381 4750 
Q 2619 4750 2861 4703 
Q 3103 4656 3366 4563 
z
" transform="scale(0.015625)"/>
       </defs>
       <use xlink:href="#DejaVuSans-32"/>
       <use xlink:href="#DejaVuSans-30" x="63.623047"/>
       <use xlink:href="#DejaVuSans-31" x="127.246094"/>
       <use xlink:href="#DejaVuSans-36" x="190.869141"/>
      </g>
     </g>
    </g>
    <g id="xtick_6">
     <g id="line2d_6">
      <g>
       <use xlink:href="#mafbc3b0def" x="261.831257" y="307.584" style="stroke: #000000; stroke-width: 0.8"/>
      </g>
     </g>
     <g id="text_6">
      <!-- 2018 -->
      <g transform="translate(249.106257 322.182437) scale(0.1 -0.1)">
       <use xlink:href="#DejaVuSans-32"/>
       <use xlink:href="#DejaVuSans-30" x="63.623047"/>
       <use xlink:href="#DejaVuSans-31" x="127.246094"/>
       <use xlink:href="#DejaVuSans-38" x="190.869141"/>
      </g>
     </g>
    </g>
    <g id="xtick_7">
     <g id="line2d_7">
      <g>
       <use xlink:href="#mafbc3b0def" x="302.089083" y="307.584" style="stroke: #000000; stroke-width: 0.8"/>
      </g>
     </g>
     <g id="text_7">
      <!-- 2020 -->
      <g transform="translate(289.364083 322.182437) scale(0.1 -0.1)">
       <use xlink:href="#DejaVuSans-32"/>
       <use xlink:href="#DejaVuSans-30" x="63.623047"/>
       <use xlink:href="#DejaVuSans-32" x="127.246094"/>
       <use xlink:href="#DejaVuSans-30" x="190.869141"/>
      </g>
     </g>
    </g>
    <g id="xtick_8">
     <g id="line2d_8">
      <g>
       <use xlink:href="#mafbc3b0def" x="342.402056" y="307.584" style="stroke: #000000; stroke-width: 0.8"/>
      </g>
     </g>
     <g id="text_8">
      <!-- 2022 -->
      <g transform="translate(329.677056 322.182437) scale(0.1 -0.1)">
       <use xlink:href="#DejaVuSans-32"/>
       <use xlink:href="#DejaVuSans-30" x="63.623047"/>
       <use xlink:href="#DejaVuSans-32" x="127.246094"/>
       <use xlink:href="#DejaVuSans-32" x="190.869141"/>
      </g>
     </g>
    </g>
    <g id="xtick_9">
     <g id="line2d_9">
      <g>
       <use xlink:href="#mafbc3b0def" x="382.659881" y="307.584" style="stroke: #000000; stroke-width: 0.8"/>
      </g>
     </g>
     <g id="text_9">
      <!-- 2024 -->
      <g transform="translate(369.934881 322.182437) scale(0.1 -0.1)">
       <use xlink:href="#DejaVuSans-32"/>
       <use xlink:href="#DejaVuSans-30" x="63.623047"/>
       <use xlink:href="#DejaVuSans-32" x="127.246094"/>
       <use xlink:href="#DejaVuSans-34" x="190.869141"/>
      </g>
     </g>
    </g>
    <g id="text_10">
     <!-- Updated 2024-10-23 05:37:31.878525 - Last record 2024-10-20 -->
     <g transform="translate(75.905312 335.860562) scale(0.1 -0.1)">
      <defs>
       <path id="DejaVuSans-55" d="M 556 4666 
L 1191 4666 
L 1191 1831 
Q 1191 1081 1462 751 
Q 1734 422 2344 422 
Q 2950 422 3222 751 
Q 3494 1081 3494 1831 
L 3494 4666 
L 4128 4666 
L 4128 1753 
Q 4128 841 3676 375 
Q 3225 -91 2344 -91 
Q 1459 -91 1007 375 
Q 556 841 556 1753 
L 556 4666 
z
" transform="scale(0.015625)"/>
       <path id="DejaVuSans-70" d="M 1159 525 
L 1159 -1331 
L 581 -1331 
L 581 3500 
L 1159 3500 
L 1159 2969 
Q 1341 3281 1617 3432 
Q 1894 3584 2278 3584 
Q 2916 3584 3314 3078 
Q 3713 2572 3713 1747 
Q 3713 922 3314 415 
Q 2916 -91 2278 -91 
Q 1894 -91 1617 61 
Q 1341 213 1159 525 
z
M 3116 1747 
Q 3116 2381 2855 2742 
Q 2594 3103 2138 3103 
Q 1681 3103 1420 2742 
Q 1159 2381 1159 1747 
Q 1159 1113 1420 752 
Q 1681 391 2138 391 
Q 2594 391 2855 752 
Q 3116 1113 3116 1747 
z
" transform="scale(0.015625)"/>
       <path id="DejaVuSans-64" d="M 2906 2969 
L 2906 4863 
L 3481 4863 
L 3481 0 
L 2906 0 
L 2906 525 
Q 2725 213 2448 61 
Q 2172 -91 1784 -91 
Q 1150 -91 751 415 
Q 353 922 353 1747 
Q 353 2572 751 3078 
Q 1150 3584 1784 3584 
Q 2172 3584 2448 3432 
Q 2725 3281 2906 2969 
z
M 947 1747 
Q 947 1113 1208 752 
Q 1469 391 1925 391 
Q 2381 391 2643 752 
Q 2906 1113 2906 1747 
Q 2906 2381 2643 2742 
Q 2381 3103 1925 3103 
Q 1469 3103 1208 2742 
Q 947 2381 947 1747 
z
" transform="scale(0.015625)"/>
       <path id="DejaVuSans-61" d="M 2194 1759 
Q 1497 1759 1228 1600 
Q 959 1441 959 1056 
Q 959 750 1161 570 
Q 1363 391 1709 391 
Q 2188 391 2477 730 
Q 2766 1069 2766 1631 
L 2766 1759 
L 2194 1759 
z
M 3341 1997 
L 3341 0 
L 2766 0 
L 2766 531 
Q 2569 213 2275 61 
Q 1981 -91 1556 -91 
Q 1019 -91 701 211 
Q 384 513 384 1019 
Q 384 1609 779 1909 
Q 1175 2209 1959 2209 
L 2766 2209 
L 2766 2266 
Q 2766 2663 2505 2880 
Q 2244 3097 1772 3097 
Q 1472 3097 1187 3025 
Q 903 2953 641 2809 
L 641 3341 
Q 956 3463 1253 3523 
Q 1550 3584 1831 3584 
Q 2591 3584 2966 3190 
Q 3341 2797 3341 1997 
z
" transform="scale(0.015625)"/>
       <path id="DejaVuSans-74" d="M 1172 4494 
L 1172 3500 
L 2356 3500 
L 2356 3053 
L 1172 3053 
L 1172 1153 
Q 1172 725 1289 603 
Q 1406 481 1766 481 
L 2356 481 
L 2356 0 
L 1766 0 
Q 1100 0 847 248 
Q 594 497 594 1153 
L 594 3053 
L 172 3053 
L 172 3500 
L 594 3500 
L 594 4494 
L 1172 4494 
z
" transform="scale(0.015625)"/>
       <path id="DejaVuSans-65" d="M 3597 1894 
L 3597 1613 
L 953 1613 
Q 991 1019 1311 708 
Q 1631 397 2203 397 
Q 2534 397 2845 478 
Q 3156 559 3463 722 
L 3463 178 
Q 3153 47 2828 -22 
Q 2503 -91 2169 -91 
Q 1331 -91 842 396 
Q 353 884 353 1716 
Q 353 2575 817 3079 
Q 1281 3584 2069 3584 
Q 2775 3584 3186 3129 
Q 3597 2675 3597 1894 
z
M 3022 2063 
Q 3016 2534 2758 2815 
Q 2500 3097 2075 3097 
Q 1594 3097 1305 2825 
Q 1016 2553 972 2059 
L 3022 2063 
z
" transform="scale(0.015625)"/>
       <path id="DejaVuSans-20" transform="scale(0.015625)"/>
       <path id="DejaVuSans-2d" d="M 313 2009 
L 1997 2009 
L 1997 1497 
L 313 1497 
L 313 2009 
z
" transform="scale(0.015625)"/>
       <path id="DejaVuSans-33" d="M 2597 2516 
Q 3050 2419 3304 2112 
Q 3559 1806 3559 1356 
Q 3559 666 3084 287 
Q 2609 -91 1734 -91 
Q 1441 -91 1130 -33 
Q 819 25 488 141 
L 488 750 
Q 750 597 1062 519 
Q 1375 441 1716 441 
Q 2309 441 2620 675 
Q 2931 909 2931 1356 
Q 2931 1769 2642 2001 
Q 2353 2234 1838 2234 
L 1294 2234 
L 1294 2753 
L 1863 2753 
Q 2328 2753 2575 2939 
Q 2822 3125 2822 3475 
Q 2822 3834 2567 4026 
Q 2313 4219 1838 4219 
Q 1578 4219 1281 4162 
Q 984 4106 628 3988 
L 628 4550 
Q 988 4650 1302 4700 
Q 1616 4750 1894 4750 
Q 2613 4750 3031 4423 
Q 3450 4097 3450 3541 
Q 3450 3153 3228 2886 
Q 3006 2619 2597 2516 
z
" transform="scale(0.015625)"/>
       <path id="DejaVuSans-35" d="M 691 4666 
L 3169 4666 
L 3169 4134 
L 1269 4134 
L 1269 2991 
Q 1406 3038 1543 3061 
Q 1681 3084 1819 3084 
Q 2600 3084 3056 2656 
Q 3513 2228 3513 1497 
Q 3513 744 3044 326 
Q 2575 -91 1722 -91 
Q 1428 -91 1123 -41 
Q 819 9 494 109 
L 494 744 
Q 775 591 1075 516 
Q 1375 441 1709 441 
Q 2250 441 2565 725 
Q 2881 1009 2881 1497 
Q 2881 1984 2565 2268 
Q 2250 2553 1709 2553 
Q 1456 2553 1204 2497 
Q 953 2441 691 2322 
L 691 4666 
z
" transform="scale(0.015625)"/>
       <path id="DejaVuSans-3a" d="M 750 794 
L 1409 794 
L 1409 0 
L 750 0 
L 750 794 
z
M 750 3309 
L 1409 3309 
L 1409 2516 
L 750 2516 
L 750 3309 
z
" transform="scale(0.015625)"/>
       <path id="DejaVuSans-37" d="M 525 4666 
L 3525 4666 
L 3525 4397 
L 1831 0 
L 1172 0 
L 2766 4134 
L 525 4134 
L 525 4666 
z
" transform="scale(0.015625)"/>
       <path id="DejaVuSans-2e" d="M 684 794 
L 1344 794 
L 1344 0 
L 684 0 
L 684 794 
z
" transform="scale(0.015625)"/>
       <path id="DejaVuSans-4c" d="M 628 4666 
L 1259 4666 
L 1259 531 
L 3531 531 
L 3531 0 
L 628 0 
L 628 4666 
z
" transform="scale(0.015625)"/>
       <path id="DejaVuSans-73" d="M 2834 3397 
L 2834 2853 
Q 2591 2978 2328 3040 
Q 2066 3103 1784 3103 
Q 1356 3103 1142 2972 
Q 928 2841 928 2578 
Q 928 2378 1081 2264 
Q 1234 2150 1697 2047 
L 1894 2003 
Q 2506 1872 2764 1633 
Q 3022 1394 3022 966 
Q 3022 478 2636 193 
Q 2250 -91 1575 -91 
Q 1294 -91 989 -36 
Q 684 19 347 128 
L 347 722 
Q 666 556 975 473 
Q 1284 391 1588 391 
Q 1994 391 2212 530 
Q 2431 669 2431 922 
Q 2431 1156 2273 1281 
Q 2116 1406 1581 1522 
L 1381 1569 
Q 847 1681 609 1914 
Q 372 2147 372 2553 
Q 372 3047 722 3315 
Q 1072 3584 1716 3584 
Q 2034 3584 2315 3537 
Q 2597 3491 2834 3397 
z
" transform="scale(0.015625)"/>
       <path id="DejaVuSans-72" d="M 2631 2963 
Q 2534 3019 2420 3045 
Q 2306 3072 2169 3072 
Q 1681 3072 1420 2755 
Q 1159 2438 1159 1844 
L 1159 0 
L 581 0 
L 581 3500 
L 1159 3500 
L 1159 2956 
Q 1341 3275 1631 3429 
Q 1922 3584 2338 3584 
Q 2397 3584 2469 3576 
Q 2541 3569 2628 3553 
L 2631 2963 
z
" transform="scale(0.015625)"/>
       <path id="DejaVuSans-63" d="M 3122 3366 
L 3122 2828 
Q 2878 2963 2633 3030 
Q 2388 3097 2138 3097 
Q 1578 3097 1268 2742 
Q 959 2388 959 1747 
Q 959 1106 1268 751 
Q 1578 397 2138 397 
Q 2388 397 2633 464 
Q 2878 531 3122 666 
L 3122 134 
Q 2881 22 2623 -34 
Q 2366 -91 2075 -91 
Q 1284 -91 818 406 
Q 353 903 353 1747 
Q 353 2603 823 3093 
Q 1294 3584 2113 3584 
Q 2378 3584 2631 3529 
Q 2884 3475 3122 3366 
z
" transform="scale(0.015625)"/>
       <path id="DejaVuSans-6f" d="M 1959 3097 
Q 1497 3097 1228 2736 
Q 959 2375 959 1747 
Q 959 1119 1226 758 
Q 1494 397 1959 397 
Q 2419 397 2687 759 
Q 2956 1122 2956 1747 
Q 2956 2369 2687 2733 
Q 2419 3097 1959 3097 
z
M 1959 3584 
Q 2709 3584 3137 3096 
Q 3566 2609 3566 1747 
Q 3566 888 3137 398 
Q 2709 -91 1959 -91 
Q 1206 -91 779 398 
Q 353 888 353 1747 
Q 353 2609 779 3096 
Q 1206 3584 1959 3584 
z
" transform="scale(0.015625)"/>
      </defs>
      <use xlink:href="#DejaVuSans-55"/>
      <use xlink:href="#DejaVuSans-70" x="73.193359"/>
      <use xlink:href="#DejaVuSans-64" x="136.669922"/>
      <use xlink:href="#DejaVuSans-61" x="200.146484"/>
      <use xlink:href="#DejaVuSans-74" x="261.425781"/>
      <use xlink:href="#DejaVuSans-65" x="300.634766"/>
      <use xlink:href="#DejaVuSans-64" x="362.158203"/>
      <use xlink:href="#DejaVuSans-20" x="425.634766"/>
      <use xlink:href="#DejaVuSans-32" x="457.421875"/>
      <use xlink:href="#DejaVuSans-30" x="521.044922"/>
      <use xlink:href="#DejaVuSans-32" x="584.667969"/>
      <use xlink:href="#DejaVuSans-34" x="648.291016"/>
      <use xlink:href="#DejaVuSans-2d" x="711.914062"/>
      <use xlink:href="#DejaVuSans-31" x="747.998047"/>
      <use xlink:href="#DejaVuSans-30" x="811.621094"/>
      <use xlink:href="#DejaVuSans-2d" x="875.244141"/>
      <use xlink:href="#DejaVuSans-32" x="911.328125"/>
      <use xlink:href="#DejaVuSans-33" x="974.951172"/>
      <use xlink:href="#DejaVuSans-20" x="1038.574219"/>
      <use xlink:href="#DejaVuSans-30" x="1070.361328"/>
      <use xlink:href="#DejaVuSans-35" x="1133.984375"/>
      <use xlink:href="#DejaVuSans-3a" x="1197.607422"/>
      <use xlink:href="#DejaVuSans-33" x="1231.298828"/>
      <use xlink:href="#DejaVuSans-37" x="1294.921875"/>
      <use xlink:href="#DejaVuSans-3a" x="1358.544922"/>
      <use xlink:href="#DejaVuSans-33" x="1392.236328"/>
      <use xlink:href="#DejaVuSans-31" x="1455.859375"/>
      <use xlink:href="#DejaVuSans-2e" x="1519.482422"/>
      <use xlink:href="#DejaVuSans-38" x="1551.269531"/>
      <use xlink:href="#DejaVuSans-37" x="1614.892578"/>
      <use xlink:href="#DejaVuSans-38" x="1678.515625"/>
      <use xlink:href="#DejaVuSans-35" x="1742.138672"/>
      <use xlink:href="#DejaVuSans-32" x="1805.761719"/>
      <use xlink:href="#DejaVuSans-35" x="1869.384766"/>
      <use xlink:href="#DejaVuSans-20" x="1933.007812"/>
      <use xlink:href="#DejaVuSans-2d" x="1964.794922"/>
      <use xlink:href="#DejaVuSans-20" x="2000.878906"/>
      <use xlink:href="#DejaVuSans-4c" x="2032.666016"/>
      <use xlink:href="#DejaVuSans-61" x="2088.378906"/>
      <use xlink:href="#DejaVuSans-73" x="2149.658203"/>
      <use xlink:href="#DejaVuSans-74" x="2201.757812"/>
      <use xlink:href="#DejaVuSans-20" x="2240.966797"/>
      <use xlink:href="#DejaVuSans-72" x="2272.753906"/>
      <use xlink:href="#DejaVuSans-65" x="2311.617188"/>
      <use xlink:href="#DejaVuSans-63" x="2373.140625"/>
      <use xlink:href="#DejaVuSans-6f" x="2428.121094"/>
      <use xlink:href="#DejaVuSans-72" x="2489.302734"/>
      <use xlink:href="#DejaVuSans-64" x="2528.666016"/>
      <use xlink:href="#DejaVuSans-20" x="2592.142578"/>
      <use xlink:href="#DejaVuSans-32" x="2623.929688"/>
      <use xlink:href="#DejaVuSans-30" x="2687.552734"/>
      <use xlink:href="#DejaVuSans-32" x="2751.175781"/>
      <use xlink:href="#DejaVuSans-34" x="2814.798828"/>
      <use xlink:href="#DejaVuSans-2d" x="2878.421875"/>
      <use xlink:href="#DejaVuSans-31" x="2914.505859"/>
      <use xlink:href="#DejaVuSans-30" x="2978.128906"/>
      <use xlink:href="#DejaVuSans-2d" x="3041.751953"/>
      <use xlink:href="#DejaVuSans-32" x="3077.835938"/>
      <use xlink:href="#DejaVuSans-30" x="3141.458984"/>
     </g>
    </g>
   </g>
   <g id="matplotlib.axis_2">
    <g id="ytick_1">
     <g id="line2d_10">
      <defs>
       <path id="m6f421716bc" d="M 0 0 
L -3.5 0 
" style="stroke: #000000; stroke-width: 0.8"/>
      </defs>
      <g>
       <use xlink:href="#m6f421716bc" x="57.6" y="295.488" style="stroke: #000000; stroke-width: 0.8"/>
      </g>
     </g>
     <g id="text_11">
      <!-- 0 -->
      <g transform="translate(44.2375 299.287219) scale(0.1 -0.1)">
       <use xlink:href="#DejaVuSans-30"/>
      </g>
     </g>
    </g>
    <g id="ytick_2">
     <g id="line2d_11">
      <g>
       <use xlink:href="#m6f421716bc" x="57.6" y="244.412" style="stroke: #000000; stroke-width: 0.8"/>
      </g>
     </g>
     <g id="text_12">
      <!-- 10 -->
      <g transform="translate(37.875 248.211218) scale(0.1 -0.1)">
       <use xlink:href="#DejaVuSans-31"/>
       <use xlink:href="#DejaVuSans-30" x="63.623047"/>
      </g>
     </g>
    </g>
    <g id="ytick_3">
     <g id="line2d_12">
      <g>
       <use xlink:href="#m6f421716bc" x="57.6" y="193.335999" style="stroke: #000000; stroke-width: 0.8"/>
      </g>
     </g>
     <g id="text_13">
      <!-- 20 -->
      <g transform="translate(37.875 197.135218) scale(0.1 -0.1)">
       <use xlink:href="#DejaVuSans-32"/>
       <use xlink:href="#DejaVuSans-30" x="63.623047"/>
      </g>
     </g>
    </g>
    <g id="ytick_4">
     <g id="line2d_13">
      <g>
       <use xlink:href="#m6f421716bc" x="57.6" y="142.259999" style="stroke: #000000; stroke-width: 0.8"/>
      </g>
     </g>
     <g id="text_14">
      <!-- 30 -->
      <g transform="translate(37.875 146.059217) scale(0.1 -0.1)">
       <use xlink:href="#DejaVuSans-33"/>
       <use xlink:href="#DejaVuSans-30" x="63.623047"/>
      </g>
     </g>
    </g>
    <g id="ytick_5">
     <g id="line2d_14">
      <g>
       <use xlink:href="#m6f421716bc" x="57.6" y="91.183998" style="stroke: #000000; stroke-width: 0.8"/>
      </g>
     </g>
     <g id="text_15">
      <!-- 40 -->
      <g transform="translate(37.875 94.983217) scale(0.1 -0.1)">
       <use xlink:href="#DejaVuSans-34"/>
       <use xlink:href="#DejaVuSans-30" x="63.623047"/>
      </g>
     </g>
    </g>
    <g id="text_16">
     <!-- IPv6 as % of total Google traffic -->
     <g transform="translate(31.795312 253.735813) rotate(-90) scale(0.1 -0.1)">
      <defs>
       <path id="DejaVuSans-49" d="M 628 4666 
L 1259 4666 
L 1259 0 
L 628 0 
L 628 4666 
z
" transform="scale(0.015625)"/>
       <path id="DejaVuSans-50" d="M 1259 4147 
L 1259 2394 
L 2053 2394 
Q 2494 2394 2734 2622 
Q 2975 2850 2975 3272 
Q 2975 3691 2734 3919 
Q 2494 4147 2053 4147 
L 1259 4147 
z
M 628 4666 
L 2053 4666 
Q 2838 4666 3239 4311 
Q 3641 3956 3641 3272 
Q 3641 2581 3239 2228 
Q 2838 1875 2053 1875 
L 1259 1875 
L 1259 0 
L 628 0 
L 628 4666 
z
" transform="scale(0.015625)"/>
       <path id="DejaVuSans-76" d="M 191 3500 
L 800 3500 
L 1894 563 
L 2988 3500 
L 3597 3500 
L 2284 0 
L 1503 0 
L 191 3500 
z
" transform="scale(0.015625)"/>
       <path id="DejaVuSans-25" d="M 4653 2053 
Q 4381 2053 4226 1822 
Q 4072 1591 4072 1178 
Q 4072 772 4226 539 
Q 4381 306 4653 306 
Q 4919 306 5073 539 
Q 5228 772 5228 1178 
Q 5228 1588 5073 1820 
Q 4919 2053 4653 2053 
z
M 4653 2450 
Q 5147 2450 5437 2106 
Q 5728 1763 5728 1178 
Q 5728 594 5436 251 
Q 5144 -91 4653 -91 
Q 4153 -91 3862 251 
Q 3572 594 3572 1178 
Q 3572 1766 3864 2108 
Q 4156 2450 4653 2450 
z
M 1428 4353 
Q 1159 4353 1004 4120 
Q 850 3888 850 3481 
Q 850 3069 1003 2837 
Q 1156 2606 1428 2606 
Q 1700 2606 1854 2837 
Q 2009 3069 2009 3481 
Q 2009 3884 1853 4118 
Q 1697 4353 1428 4353 
z
M 4250 4750 
L 4750 4750 
L 1831 -91 
L 1331 -91 
L 4250 4750 
z
M 1428 4750 
Q 1922 4750 2215 4408 
Q 2509 4066 2509 3481 
Q 2509 2891 2217 2550 
Q 1925 2209 1428 2209 
Q 931 2209 642 2551 
Q 353 2894 353 3481 
Q 353 4063 643 4406 
Q 934 4750 1428 4750 
z
" transform="scale(0.015625)"/>
       <path id="DejaVuSans-66" d="M 2375 4863 
L 2375 4384 
L 1825 4384 
Q 1516 4384 1395 4259 
Q 1275 4134 1275 3809 
L 1275 3500 
L 2222 3500 
L 2222 3053 
L 1275 3053 
L 1275 0 
L 697 0 
L 697 3053 
L 147 3053 
L 147 3500 
L 697 3500 
L 697 3744 
Q 697 4328 969 4595 
Q 1241 4863 1831 4863 
L 2375 4863 
z
" transform="scale(0.015625)"/>
       <path id="DejaVuSans-6c" d="M 603 4863 
L 1178 4863 
L 1178 0 
L 603 0 
L 603 4863 
z
" transform="scale(0.015625)"/>
       <path id="DejaVuSans-47" d="M 3809 666 
L 3809 1919 
L 2778 1919 
L 2778 2438 
L 4434 2438 
L 4434 434 
Q 4069 175 3628 42 
Q 3188 -91 2688 -91 
Q 1594 -91 976 548 
Q 359 1188 359 2328 
Q 359 3472 976 4111 
Q 1594 4750 2688 4750 
Q 3144 4750 3555 4637 
Q 3966 4525 4313 4306 
L 4313 3634 
Q 3963 3931 3569 4081 
Q 3175 4231 2741 4231 
Q 1884 4231 1454 3753 
Q 1025 3275 1025 2328 
Q 1025 1384 1454 906 
Q 1884 428 2741 428 
Q 3075 428 3337 486 
Q 3600 544 3809 666 
z
" transform="scale(0.015625)"/>
       <path id="DejaVuSans-67" d="M 2906 1791 
Q 2906 2416 2648 2759 
Q 2391 3103 1925 3103 
Q 1463 3103 1205 2759 
Q 947 2416 947 1791 
Q 947 1169 1205 825 
Q 1463 481 1925 481 
Q 2391 481 2648 825 
Q 2906 1169 2906 1791 
z
M 3481 434 
Q 3481 -459 3084 -895 
Q 2688 -1331 1869 -1331 
Q 1566 -1331 1297 -1286 
Q 1028 -1241 775 -1147 
L 775 -588 
Q 1028 -725 1275 -790 
Q 1522 -856 1778 -856 
Q 2344 -856 2625 -561 
Q 2906 -266 2906 331 
L 2906 616 
Q 2728 306 2450 153 
Q 2172 0 1784 0 
Q 1141 0 747 490 
Q 353 981 353 1791 
Q 353 2603 747 3093 
Q 1141 3584 1784 3584 
Q 2172 3584 2450 3431 
Q 2728 3278 2906 2969 
L 2906 3500 
L 3481 3500 
L 3481 434 
z
" transform="scale(0.015625)"/>
       <path id="DejaVuSans-69" d="M 603 3500 
L 1178 3500 
L 1178 0 
L 603 0 
L 603 3500 
z
M 603 4863 
L 1178 4863 
L 1178 4134 
L 603 4134 
L 603 4863 
z
" transform="scale(0.015625)"/>
      </defs>
      <use xlink:href="#DejaVuSans-49"/>
      <use xlink:href="#DejaVuSans-50" x="29.492188"/>
      <use xlink:href="#DejaVuSans-76" x="89.794922"/>
      <use xlink:href="#DejaVuSans-36" x="148.974609"/>
      <use xlink:href="#DejaVuSans-20" x="212.597656"/>
      <use xlink:href="#DejaVuSans-61" x="244.384766"/>
      <use xlink:href="#DejaVuSans-73" x="305.664062"/>
      <use xlink:href="#DejaVuSans-20" x="357.763672"/>
      <use xlink:href="#DejaVuSans-25" x="389.550781"/>
      <use xlink:href="#DejaVuSans-20" x="484.570312"/>
      <use xlink:href="#DejaVuSans-6f" x="516.357422"/>
      <use xlink:href="#DejaVuSans-66" x="577.539062"/>
      <use xlink:href="#DejaVuSans-20" x="612.744141"/>
      <use xlink:href="#DejaVuSans-74" x="644.53125"/>
      <use xlink:href="#DejaVuSans-6f" x="683.740234"/>
      <use xlink:href="#DejaVuSans-74" x="744.921875"/>
      <use xlink:href="#DejaVuSans-61" x="784.130859"/>
      <use xlink:href="#DejaVuSans-6c" x="845.410156"/>
      <use xlink:href="#DejaVuSans-20" x="873.193359"/>
      <use xlink:href="#DejaVuSans-47" x="904.980469"/>
      <use xlink:href="#DejaVuSans-6f" x="982.470703"/>
      <use xlink:href="#DejaVuSans-6f" x="1043.652344"/>
      <use xlink:href="#DejaVuSans-67" x="1104.833984"/>
      <use xlink:href="#DejaVuSans-6c" x="1168.310547"/>
      <use xlink:href="#DejaVuSans-65" x="1196.09375"/>
      <use xlink:href="#DejaVuSans-20" x="1257.617188"/>
      <use xlink:href="#DejaVuSans-74" x="1289.404297"/>
      <use xlink:href="#DejaVuSans-72" x="1328.613281"/>
      <use xlink:href="#DejaVuSans-61" x="1369.726562"/>
      <use xlink:href="#DejaVuSans-66" x="1431.005859"/>
      <use xlink:href="#DejaVuSans-66" x="1466.210938"/>
      <use xlink:href="#DejaVuSans-69" x="1501.416016"/>
      <use xlink:href="#DejaVuSans-63" x="1529.199219"/>
     </g>
    </g>
   </g>
   <g id="line2d_15">
    <path d="M 73.832727 294.557431 
L 75.376863 294.399713 
L 75.762897 294.549897 
L 77.307033 294.549238 
L 78.851169 294.412339 
L 79.237202 294.291279 
L 80.395304 294.311362 
L 83.86961 294.23888 
L 85.027712 294.265424 
L 86.571847 294.193315 
L 89.660119 294.255837 
L 90.046153 294.354097 
L 92.362357 294.346216 
L 93.134424 294.283327 
L 94.67856 294.19165 
L 95.450628 294.200022 
L 95.836662 293.951363 
L 98.152866 293.866066 
L 99.310967 293.869636 
L 100.469069 293.96045 
L 101.627171 293.915222 
L 102.785273 293.960715 
L 104.715443 293.929426 
L 105.873544 294.110572 
L 107.031646 294.060508 
L 107.803714 294.140825 
L 108.575782 294.217617 
L 108.961816 294.141008 
L 111.27802 294.350313 
L 113.208189 294.267442 
L 113.980257 294.167072 
L 114.366291 294.08434 
L 115.138359 294.080264 
L 118.226631 294.083006 
L 118.612665 294.106777 
L 118.998699 293.984752 
L 121.314902 294.21109 
L 124.403174 294.048035 
L 124.789208 294.05349 
L 125.175242 293.937343 
L 125.947309 294.034495 
L 126.719377 293.854166 
L 127.105411 293.898995 
L 127.491445 293.788288 
L 127.877479 293.836759 
L 128.649547 293.733744 
L 129.807649 293.71908 
L 130.193683 293.846182 
L 131.737819 293.874892 
L 132.509886 293.88854 
L 132.89592 293.852444 
L 133.667988 293.636643 
L 134.054022 293.516446 
L 136.75626 293.660204 
L 139.458497 293.195459 
L 140.230565 293.336515 
L 143.318837 292.887517 
L 143.704871 292.989786 
L 146.021074 292.500646 
L 146.793142 292.516649 
L 147.951244 292.185681 
L 149.881414 291.72637 
L 151.039516 291.608293 
L 151.42555 291.704744 
L 153.355719 291.341962 
L 154.513821 290.98351 
L 154.899855 291.037743 
L 155.285889 290.715954 
L 156.057957 290.523367 
L 156.443991 290.573406 
L 157.216059 290.373566 
L 157.602093 290.524501 
L 158.374161 290.34221 
L 158.760195 290.296993 
L 159.146229 290.062273 
L 159.918296 289.905654 
L 161.462432 289.88934 
L 162.2345 289.68926 
L 163.392602 289.541834 
L 163.778636 289.349078 
L 164.16467 289.330487 
L 164.550704 289.430157 
L 166.094839 288.709551 
L 166.480873 288.726059 
L 168.025009 288.272933 
L 168.411043 287.969265 
L 168.797077 287.899593 
L 169.183111 287.711669 
L 169.569145 287.742273 
L 170.727247 287.280807 
L 171.113281 287.362406 
L 171.499315 287.135266 
L 171.885349 287.095345 
L 173.815518 286.028239 
L 174.97362 285.461577 
L 175.745688 284.676299 
L 176.517756 283.728221 
L 176.90379 283.952194 
L 177.289824 283.99094 
L 178.447926 282.655007 
L 178.83396 282.494817 
L 179.219994 281.819557 
L 180.378095 281.417553 
L 180.764129 281.15945 
L 181.150163 281.206292 
L 182.308265 280.468903 
L 182.694299 280.312283 
L 183.080333 280.022642 
L 183.852401 279.954011 
L 184.238435 279.297868 
L 184.624469 279.289221 
L 185.010503 278.567839 
L 185.396537 278.194238 
L 186.168604 278.301467 
L 186.554638 278.034381 
L 186.940672 277.622958 
L 187.71274 277.144029 
L 188.098774 276.715879 
L 188.484808 276.978379 
L 190.028944 276.138337 
L 190.414978 275.827729 
L 190.801012 274.551324 
L 191.187046 274.79345 
L 191.959114 273.926711 
L 192.345148 273.889497 
L 192.731181 274.264195 
L 193.889283 273.411604 
L 194.275317 272.833199 
L 195.047385 272.877794 
L 195.433419 272.251944 
L 195.819453 272.208867 
L 196.205487 268.893253 
L 196.591521 271.074755 
L 196.977555 272.374312 
L 197.363589 271.742844 
L 197.749623 271.389965 
L 198.135657 271.333097 
L 198.521691 270.502586 
L 198.907725 270.242354 
L 200.065826 268.439754 
L 200.45186 267.262764 
L 200.837894 266.590971 
L 201.223928 265.678912 
L 201.609962 265.076736 
L 201.995996 266.038436 
L 202.38203 265.891261 
L 202.768064 265.917887 
L 203.154098 266.073245 
L 203.540132 266.363336 
L 203.926166 266.252659 
L 204.3122 264.131764 
L 204.698234 264.445473 
L 205.856336 263.327899 
L 206.242369 263.17748 
L 207.014437 263.243614 
L 207.400471 261.640399 
L 207.786505 261.582009 
L 208.558573 260.31679 
L 208.944607 260.748153 
L 209.330641 258.773396 
L 209.716675 259.240159 
L 210.102709 257.907081 
L 210.488743 257.268733 
L 210.874777 256.31023 
L 211.260811 256.975853 
L 211.646845 255.967567 
L 212.032879 254.290159 
L 212.418913 255.135416 
L 212.804946 255.376377 
L 213.19098 254.855698 
L 213.577014 253.321937 
L 213.963048 253.747988 
L 214.349082 252.39383 
L 214.735116 252.705772 
L 215.893218 249.95417 
L 217.05132 249.66369 
L 217.437354 248.595364 
L 217.823388 248.725368 
L 218.209422 248.324605 
L 218.595456 247.265774 
L 218.98149 246.997038 
L 219.367524 245.813116 
L 219.753557 245.001498 
L 220.139591 244.85846 
L 220.525625 245.058234 
L 220.911659 244.541809 
L 221.297693 242.341864 
L 222.069761 243.632278 
L 222.455795 243.384396 
L 223.227863 243.310117 
L 223.613897 243.353822 
L 224.385965 243.088391 
L 224.771999 241.850625 
L 225.158033 241.792031 
L 225.544067 240.69432 
L 225.930101 240.691236 
L 226.316134 240.524483 
L 227.474236 237.384938 
L 227.86027 235.535782 
L 228.246304 236.79857 
L 228.632338 236.269285 
L 229.018372 235.175262 
L 229.404406 235.418783 
L 229.79044 233.083067 
L 230.176474 233.425746 
L 230.562508 233.139347 
L 230.948542 231.509569 
L 231.334576 231.494144 
L 231.72061 230.279321 
L 232.106644 230.571828 
L 232.492678 229.610966 
L 232.878711 229.100528 
L 233.264745 229.371706 
L 233.650779 228.71377 
L 234.036813 227.687352 
L 234.422847 228.01547 
L 234.808881 227.528669 
L 235.194915 225.913406 
L 235.580949 225.237926 
L 235.966983 225.301112 
L 236.353017 223.412214 
L 236.739051 223.748121 
L 237.511119 221.498351 
L 237.897153 219.253356 
L 238.283187 219.475246 
L 239.055255 218.212872 
L 239.441289 216.798414 
L 239.827322 216.987507 
L 240.213356 216.394724 
L 240.59939 214.158249 
L 240.985424 213.373574 
L 241.371458 209.665599 
L 241.757492 212.076391 
L 242.143526 211.639304 
L 242.52956 212.21423 
L 242.915594 211.539103 
L 243.687662 212.635566 
L 244.073696 212.416982 
L 244.45973 211.455828 
L 244.845764 211.744888 
L 245.617832 210.520734 
L 246.003866 209.506385 
L 246.389899 209.345521 
L 246.775933 208.659836 
L 247.161967 206.194117 
L 247.548001 206.967852 
L 247.934035 203.661334 
L 248.320069 203.917286 
L 248.706103 202.119988 
L 249.092137 201.012196 
L 250.250239 198.974749 
L 250.636273 197.307357 
L 251.022307 194.558299 
L 251.408341 195.252498 
L 252.952476 192.121524 
L 253.33851 191.606601 
L 253.724544 191.626092 
L 254.110578 191.909784 
L 254.496612 190.935637 
L 254.882646 189.570365 
L 255.26868 190.793461 
L 255.654714 190.817069 
L 256.040748 191.906709 
L 256.426782 190.714227 
L 256.812816 188.860235 
L 257.19885 189.097799 
L 257.584884 188.297398 
L 258.742986 187.024517 
L 259.515054 186.089546 
L 259.901087 185.988267 
L 260.287121 199.545028 
L 260.673155 184.267231 
L 261.059189 183.533937 
L 261.445223 179.82913 
L 261.831257 183.266325 
L 262.603325 182.764084 
L 262.989359 182.761653 
L 263.375393 182.301678 
L 263.761427 182.074997 
L 264.147461 183.334241 
L 264.533495 184.132553 
L 264.919529 183.938485 
L 265.305563 182.856946 
L 265.691597 182.934607 
L 266.849698 182.025152 
L 267.235732 179.595416 
L 267.621766 180.554439 
L 268.0078 177.981149 
L 268.393834 179.066207 
L 268.779868 176.906275 
L 269.165902 175.557628 
L 269.551936 176.352825 
L 269.93797 174.698928 
L 270.324004 173.600764 
L 270.710038 173.367254 
L 271.096072 174.265043 
L 271.482106 174.738625 
L 272.640208 172.313133 
L 273.026241 172.870929 
L 273.412275 173.674778 
L 273.798309 173.830652 
L 274.184343 171.991012 
L 274.570377 171.305796 
L 274.956411 169.972228 
L 275.728479 169.456891 
L 276.114513 169.596446 
L 276.500547 169.42054 
L 277.272615 167.588669 
L 277.658649 168.657414 
L 278.044683 165.271862 
L 278.430717 165.358941 
L 278.816751 164.946094 
L 279.202785 162.47685 
L 279.588819 161.735972 
L 279.974852 161.290661 
L 280.360886 161.293904 
L 280.74692 159.955218 
L 281.132954 159.86396 
L 281.905022 157.74735 
L 282.291056 159.144432 
L 282.67709 160.044299 
L 283.449158 157.901324 
L 283.835192 158.952376 
L 284.221226 158.760198 
L 284.60726 159.217706 
L 284.993294 157.600165 
L 285.379328 157.035785 
L 285.765362 158.258703 
L 286.151396 156.503241 
L 286.537429 156.6437 
L 286.923463 156.142956 
L 287.695531 155.948837 
L 288.081565 152.481246 
L 288.467599 152.380238 
L 288.853633 152.653909 
L 289.239667 153.492638 
L 290.011735 149.446045 
L 290.397769 147.660923 
L 290.783803 147.207828 
L 291.169837 147.363456 
L 291.555871 147.037653 
L 291.941905 145.264417 
L 292.327939 146.726723 
L 292.713973 145.169788 
L 293.100006 146.61458 
L 293.48604 145.578866 
L 293.872074 144.951929 
L 294.258108 144.899647 
L 294.644142 144.97028 
L 295.030176 143.620158 
L 295.41621 143.773559 
L 295.802244 145.234782 
L 296.188278 144.739662 
L 296.574312 145.339039 
L 296.960346 145.584015 
L 297.34638 143.711369 
L 297.732414 144.832906 
L 298.118448 145.13428 
L 298.504482 144.438303 
L 298.890516 144.01306 
L 299.27655 142.335606 
L 299.662584 142.689645 
L 300.048617 142.324554 
L 300.434651 142.445629 
L 300.820685 141.470159 
L 301.206719 141.04345 
L 301.592753 139.808754 
L 301.978787 139.269075 
L 302.364821 140.032038 
L 302.750855 140.258887 
L 303.136889 140.309922 
L 303.908957 138.554082 
L 304.294991 138.97501 
L 304.681025 137.694642 
L 305.067059 138.248791 
L 305.453093 138.009316 
L 305.839127 137.123714 
L 306.225161 137.340139 
L 306.611194 137.948505 
L 306.997228 137.671162 
L 307.383262 137.685658 
L 307.769296 135.38521 
L 308.541364 133.747371 
L 308.927398 134.017793 
L 309.313432 133.445211 
L 309.699466 131.539519 
L 310.0855 132.155981 
L 310.471534 129.421326 
L 310.857568 131.609851 
L 311.243602 129.798119 
L 311.629636 127.321505 
L 312.01567 128.045987 
L 312.401704 126.49959 
L 312.787738 125.456112 
L 313.173771 125.555935 
L 313.559805 124.773083 
L 313.945839 126.735627 
L 314.331873 125.100649 
L 314.717907 125.713704 
L 315.103941 126.073391 
L 316.262043 123.564885 
L 316.648077 125.653408 
L 317.034111 125.695255 
L 317.420145 124.77199 
L 317.806179 125.295156 
L 318.192213 126.563583 
L 318.578247 125.577086 
L 318.964281 123.28175 
L 319.350315 127.092275 
L 319.736349 126.065816 
L 320.122382 124.580087 
L 320.508416 125.826428 
L 320.89445 125.91648 
L 321.280484 123.881173 
L 321.666518 122.867575 
L 322.052552 121.009415 
L 322.438586 121.915559 
L 322.82462 121.229052 
L 323.210654 121.440793 
L 323.596688 122.022482 
L 323.982722 120.537115 
L 324.368756 119.928111 
L 324.75479 121.029278 
L 325.140824 120.754822 
L 325.526858 118.371993 
L 325.912892 117.847846 
L 326.298926 116.226153 
L 326.684959 118.889194 
L 327.070993 119.772395 
L 327.457027 118.904149 
L 327.843061 118.738106 
L 328.229095 118.874275 
L 328.615129 114.177346 
L 329.001163 117.317269 
L 329.387197 115.507927 
L 330.159265 116.423214 
L 330.545299 111.974724 
L 330.931333 111.406197 
L 331.317367 109.616745 
L 331.703401 109.545524 
L 332.089435 111.164133 
L 332.475469 108.93202 
L 332.861503 108.493256 
L 333.247536 107.340553 
L 333.63357 106.923686 
L 334.019604 105.61401 
L 334.405638 105.80982 
L 334.791672 108.985098 
L 335.177706 107.272806 
L 335.56374 106.18862 
L 335.949774 108.250594 
L 336.335808 107.110323 
L 336.721842 106.708932 
L 337.107876 105.06265 
L 337.879944 107.682808 
L 338.265978 107.395051 
L 338.652012 107.80585 
L 339.038046 107.675693 
L 339.42408 106.199546 
L 339.810114 107.906311 
L 340.196147 105.855743 
L 340.582181 105.130576 
L 340.968215 105.0546 
L 341.740283 102.50174 
L 342.126317 99.653135 
L 342.512351 101.595872 
L 342.898385 105.224438 
L 343.284419 101.137178 
L 343.670453 100.945174 
L 344.056487 103.68795 
L 344.828555 100.037379 
L 345.214589 99.988581 
L 345.600623 100.759242 
L 345.986657 100.727794 
L 346.372691 101.317952 
L 346.758724 94.380007 
L 347.144758 93.639354 
L 347.530792 93.846176 
L 347.916826 92.42824 
L 348.30286 91.963168 
L 348.688894 89.49706 
L 349.074928 92.630598 
L 349.460962 93.852408 
L 349.846996 91.17173 
L 350.23303 92.938147 
L 350.619064 89.93424 
L 351.005098 88.404764 
L 351.391132 84.694271 
L 351.777166 85.6927 
L 352.1632 80.195058 
L 352.935268 84.048752 
L 353.321301 85.808551 
L 353.707335 84.205735 
L 354.093369 84.518396 
L 354.479403 85.190822 
L 354.865437 85.053918 
L 355.251471 87.008045 
L 355.637505 86.097125 
L 356.023539 84.669081 
L 356.409573 84.998465 
L 356.795607 83.534964 
L 357.181641 83.906797 
L 357.567675 82.11693 
L 357.953709 83.380438 
L 358.339743 86.789654 
L 358.725777 84.495438 
L 359.111811 81.0173 
L 359.497845 83.899759 
L 359.883878 82.225314 
L 360.269912 83.964452 
L 360.655946 82.394018 
L 361.04198 82.371687 
L 362.200082 76.325683 
L 362.586116 79.03455 
L 362.97215 78.827416 
L 363.358184 77.471481 
L 363.744218 77.87112 
L 364.130252 80.18184 
L 364.90232 78.185493 
L 365.288354 79.648637 
L 365.674388 78.82547 
L 366.060422 77.230423 
L 366.446456 77.261442 
L 367.218523 74.614785 
L 367.604557 75.769491 
L 367.990591 75.750762 
L 368.376625 73.237199 
L 368.762659 74.532037 
L 369.534727 74.314867 
L 369.920761 72.918797 
L 370.306795 74.513027 
L 370.692829 74.559945 
L 371.078863 71.75407 
L 371.464897 71.719706 
L 371.850931 70.391995 
L 372.236965 66.890776 
L 372.622999 68.395511 
L 373.395066 67.569801 
L 373.7811 67.421441 
L 374.167134 67.796052 
L 374.553168 66.498068 
L 374.939202 68.020955 
L 375.71127 64.217811 
L 376.097304 65.734778 
L 376.483338 67.793136 
L 376.869372 68.597557 
L 377.255406 64.796727 
L 377.64144 67.058908 
L 378.027474 65.885698 
L 378.413508 69.983224 
L 378.799542 67.291856 
L 379.185576 66.289775 
L 379.57161 68.567688 
L 379.957643 68.776778 
L 380.343677 69.988709 
L 380.729711 67.809577 
L 381.115745 70.13186 
L 381.501779 67.310641 
L 381.887813 66.966308 
L 382.273847 64.297541 
L 382.659881 67.650956 
L 383.045915 67.636108 
L 383.431949 66.832064 
L 383.817983 66.917877 
L 384.204017 65.46287 
L 384.590051 66.590255 
L 384.976085 63.850309 
L 385.362119 64.5306 
L 385.748153 64.531979 
L 386.134187 74.022462 
L 386.906254 74.022462 
L 387.292288 62.219585 
L 387.678322 62.165766 
L 388.064356 63.744561 
L 388.45039 63.310257 
L 388.836424 61.66705 
L 389.222458 62.074131 
L 389.608492 61.345378 
L 389.994526 58.907306 
L 390.38056 59.816658 
L 390.766594 54.878105 
L 391.152628 55.892556 
L 391.538662 54.461713 
L 391.924696 54.84586 
L 392.31073 53.568 
L 392.696764 57.600072 
L 393.082798 54.528122 
L 393.468831 55.552824 
L 393.854865 56.238892 
L 394.240899 57.753576 
L 394.626933 56.382211 
L 395.012967 57.622913 
L 395.785035 55.326715 
L 396.171069 56.930573 
L 396.557103 57.66121 
L 396.943137 57.400268 
L 397.329171 61.669159 
L 397.715205 57.634549 
L 398.101239 58.172246 
L 398.487273 56.040523 
L 398.487273 56.040523 
" clip-path="url(#p91eefc4a3a)" style="fill: none; stroke: #1f77b4; stroke-width: 1.5; stroke-linecap: square"/>
   </g>
   <g id="line2d_16">
    <path d="M 73.832727 294.801513 
L 75.376863 294.671749 
L 75.762897 294.780352 
L 84.255644 294.542261 
L 85.027712 294.534013 
L 86.957881 294.472083 
L 89.274085 294.511013 
L 95.836662 294.455529 
L 96.222696 294.272682 
L 111.27802 294.455938 
L 113.208189 294.457016 
L 114.366291 294.296484 
L 115.910427 294.272355 
L 117.840597 294.216851 
L 122.473004 294.385274 
L 127.877479 293.963739 
L 128.649547 293.910405 
L 129.421615 293.851428 
L 130.193683 293.943186 
L 131.351785 294.007976 
L 133.281954 293.889796 
L 134.054022 293.721787 
L 135.212124 293.829935 
L 140.230565 293.487971 
L 140.616599 293.589704 
L 146.021074 292.953384 
L 147.56521 292.705768 
L 148.337278 292.712734 
L 149.49538 292.326053 
L 151.039516 292.054763 
L 151.42555 292.172044 
L 152.969685 292.051111 
L 158.374161 291.05566 
L 158.760195 291.099376 
L 159.532262 290.849589 
L 160.30433 290.750262 
L 160.690364 290.521932 
L 161.848466 290.781811 
L 162.620534 290.602473 
L 163.006568 290.549758 
L 163.392602 290.327889 
L 163.778636 290.344504 
L 164.16467 290.180151 
L 165.322772 290.096172 
L 165.708806 289.861815 
L 166.866907 289.624838 
L 167.252941 289.627397 
L 167.638975 289.477274 
L 168.025009 289.462018 
L 170.727247 288.535806 
L 171.113281 288.670263 
L 172.271383 288.197192 
L 173.04345 287.80288 
L 173.429484 287.504091 
L 174.201552 287.296528 
L 174.587586 287.391897 
L 175.359654 287.246075 
L 176.517756 286.130259 
L 176.90379 285.862222 
L 177.289824 285.935909 
L 177.675858 285.792105 
L 178.83396 284.95428 
L 179.219994 284.812513 
L 179.992061 284.135674 
L 180.378095 284.042936 
L 180.764129 282.765561 
L 181.150163 282.884823 
L 181.536197 283.735775 
L 181.922231 283.643368 
L 182.694299 282.990408 
L 183.080333 283.580458 
L 183.466367 282.816453 
L 183.852401 282.769463 
L 184.238435 282.53199 
L 184.624469 281.976559 
L 185.010503 282.004784 
L 185.782571 281.154072 
L 186.168604 281.179728 
L 186.554638 280.989653 
L 186.940672 280.299606 
L 187.326706 280.53261 
L 187.71274 280.010317 
L 188.098774 280.166988 
L 188.484808 279.97844 
L 188.870842 280.055386 
L 189.256876 279.466894 
L 189.64291 279.489577 
L 190.028944 278.889194 
L 190.414978 278.993501 
L 191.187046 277.726311 
L 191.57308 277.475543 
L 191.959114 277.395793 
L 192.345148 277.104951 
L 192.731181 277.076123 
L 193.117215 277.187454 
L 193.503249 277.166339 
L 194.661351 276.75056 
L 195.047385 276.885932 
L 195.819453 276.536107 
L 196.205487 275.932991 
L 196.591521 274.579248 
L 196.977555 275.58975 
L 197.363589 275.922414 
L 197.749623 275.573181 
L 198.135657 275.775759 
L 198.521691 275.270372 
L 199.293759 274.616901 
L 199.679792 273.969073 
L 200.065826 273.562789 
L 200.45186 272.711659 
L 200.837894 270.192652 
L 201.223928 268.579186 
L 201.609962 270.969385 
L 201.995996 271.599698 
L 202.38203 271.617034 
L 202.768064 271.868961 
L 203.154098 271.850819 
L 203.540132 272.187982 
L 203.926166 271.492189 
L 204.3122 271.614536 
L 204.698234 270.315014 
L 205.084268 269.917904 
L 205.470302 270.143675 
L 206.242369 268.84779 
L 206.628403 269.198539 
L 207.014437 269.164722 
L 207.400471 268.747104 
L 207.786505 268.140964 
L 208.172539 267.825591 
L 208.558573 267.870292 
L 209.330641 265.991416 
L 209.716675 265.438784 
L 210.102709 265.141802 
L 210.488743 264.059313 
L 210.874777 263.684389 
L 212.032879 261.50161 
L 212.418913 261.872192 
L 213.19098 261.507714 
L 213.963048 260.807922 
L 214.349082 261.112146 
L 215.12115 260.726364 
L 215.893218 259.761099 
L 217.05132 259.267699 
L 217.437354 259.270933 
L 217.823388 258.258913 
L 218.209422 258.156975 
L 218.595456 258.184709 
L 218.98149 257.666406 
L 220.139591 255.100174 
L 220.525625 254.616116 
L 220.911659 252.280222 
L 221.297693 248.984594 
L 221.683727 253.874442 
L 222.069761 254.939969 
L 222.455795 254.642461 
L 222.841829 254.117834 
L 223.227863 254.189228 
L 223.613897 254.45942 
L 224.385965 253.355601 
L 225.158033 252.851941 
L 225.544067 252.444574 
L 225.930101 251.281349 
L 226.316134 251.011509 
L 226.702168 250.945565 
L 227.474236 249.916261 
L 227.86027 248.692751 
L 228.246304 247.930232 
L 228.632338 248.410791 
L 229.404406 246.907895 
L 229.79044 245.525329 
L 230.176474 245.123192 
L 230.562508 244.926519 
L 231.334576 242.709381 
L 231.72061 240.982701 
L 232.106644 241.738855 
L 232.492678 241.596323 
L 232.878711 240.727494 
L 233.264745 240.141096 
L 233.650779 239.990963 
L 234.036813 240.097125 
L 234.422847 241.295373 
L 234.808881 240.680985 
L 235.194915 240.955937 
L 235.580949 240.303666 
L 235.966983 240.374569 
L 236.353017 239.640934 
L 237.125085 237.589017 
L 237.511119 237.795119 
L 238.283187 234.892955 
L 238.669221 235.580637 
L 239.055255 235.046188 
L 239.441289 233.781373 
L 239.827322 233.687464 
L 240.213356 232.838581 
L 240.59939 232.355254 
L 240.985424 228.983957 
L 241.371458 221.205072 
L 241.757492 226.804968 
L 242.143526 229.790866 
L 242.52956 230.106286 
L 243.301628 229.777581 
L 243.687662 229.868823 
L 244.073696 229.827028 
L 244.45973 228.897634 
L 244.845764 228.665677 
L 245.231798 228.955186 
L 246.003866 227.86786 
L 246.775933 225.915577 
L 247.161967 223.77726 
L 247.548001 224.496604 
L 247.934035 224.390075 
L 248.320069 220.511996 
L 248.706103 221.362529 
L 249.478171 218.775029 
L 249.864205 216.285406 
L 250.250239 216.195681 
L 250.636273 215.854734 
L 251.408341 211.51808 
L 251.794375 211.230364 
L 252.180409 210.590044 
L 252.566443 210.277336 
L 253.33851 207.802403 
L 253.724544 207.590248 
L 254.110578 207.51696 
L 254.496612 208.602044 
L 254.882646 208.727016 
L 255.654714 210.289722 
L 256.426782 210.801473 
L 256.812816 208.606513 
L 257.19885 208.052926 
L 257.584884 208.531651 
L 257.970918 207.554429 
L 258.356952 205.75636 
L 258.742986 207.321379 
L 259.12902 207.941769 
L 259.515054 206.090131 
L 259.901087 205.862378 
L 260.287121 204.819605 
L 260.673155 199.545028 
L 261.059189 201.657097 
L 261.445223 192.934057 
L 262.217291 203.291754 
L 262.603325 201.947765 
L 262.989359 203.359823 
L 263.375393 202.835655 
L 263.761427 202.748581 
L 264.147461 201.381036 
L 264.533495 203.689559 
L 264.919529 204.328857 
L 265.305563 203.730313 
L 265.691597 202.419238 
L 266.077631 201.972271 
L 266.463664 200.948867 
L 266.849698 200.87759 
L 267.235732 202.689103 
L 267.621766 201.65369 
L 268.0078 200.181297 
L 268.393834 198.111968 
L 268.779868 197.915218 
L 269.165902 197.059486 
L 269.551936 197.164018 
L 269.93797 194.961146 
L 270.324004 194.91033 
L 270.710038 193.394226 
L 271.096072 193.152871 
L 271.482106 192.69022 
L 271.86814 191.241648 
L 272.640208 191.25362 
L 273.412275 190.667493 
L 273.798309 191.538737 
L 274.184343 190.061736 
L 274.570377 189.275421 
L 274.956411 192.090955 
L 275.342445 192.230898 
L 275.728479 192.097682 
L 276.114513 192.182708 
L 276.500547 192.111733 
L 276.886581 190.701974 
L 277.272615 191.038156 
L 277.658649 191.6075 
L 278.044683 190.979123 
L 278.430717 188.094774 
L 278.816751 188.885277 
L 279.202785 188.491078 
L 279.588819 185.424883 
L 279.974852 186.925052 
L 281.132954 182.924616 
L 281.518988 170.417396 
L 281.905022 175.214827 
L 282.291056 182.430211 
L 282.67709 183.754479 
L 283.449158 182.475203 
L 283.835192 181.220608 
L 284.221226 182.158573 
L 284.60726 181.892421 
L 284.993294 182.879531 
L 285.379328 180.651091 
L 285.765362 182.619391 
L 286.537429 180.575529 
L 286.923463 180.546824 
L 287.309497 181.157453 
L 287.695531 178.60303 
L 288.081565 178.171106 
L 288.467599 176.032416 
L 288.853633 177.996518 
L 289.239667 179.245688 
L 289.625701 176.84673 
L 290.397769 170.156566 
L 290.783803 171.618698 
L 291.169837 170.414224 
L 291.555871 169.756416 
L 291.941905 168.194078 
L 292.327939 168.843698 
L 292.713973 169.025304 
L 293.100006 168.862065 
L 293.48604 168.342602 
L 293.872074 167.514124 
L 294.258108 165.201806 
L 294.644142 168.123389 
L 295.030176 168.950503 
L 295.41621 169.106106 
L 295.802244 170.420746 
L 296.188278 171.150316 
L 296.960346 170.879445 
L 297.34638 171.386323 
L 297.732414 171.093887 
L 298.118448 171.75693 
L 298.890516 169.081672 
L 299.27655 170.765494 
L 299.662584 170.193458 
L 300.048617 168.769689 
L 300.434651 168.926973 
L 300.820685 168.241267 
L 301.206719 166.106265 
L 301.592753 154.302969 
L 301.978787 153.988734 
L 302.364821 165.542003 
L 302.750855 167.161949 
L 303.136889 167.493606 
L 303.522923 166.378622 
L 303.908957 164.872723 
L 304.681025 163.185305 
L 305.067059 163.137518 
L 305.453093 163.697362 
L 305.839127 163.296308 
L 306.225161 154.287416 
L 306.611194 150.355529 
L 306.997228 148.824409 
L 307.383262 149.965988 
L 308.541364 145.965721 
L 308.927398 146.246501 
L 309.313432 148.365118 
L 309.699466 146.423684 
L 310.0855 145.682734 
L 310.471534 147.416198 
L 310.857568 148.36923 
L 311.629636 145.372412 
L 312.01567 142.519291 
L 312.401704 142.303475 
L 312.787738 140.754983 
L 313.173771 142.092495 
L 313.559805 141.908616 
L 313.945839 142.965568 
L 314.331873 141.952792 
L 314.717907 141.961235 
L 315.103941 142.853619 
L 315.489975 144.431663 
L 315.876009 143.677608 
L 316.262043 145.488262 
L 317.034111 145.616055 
L 317.420145 146.314892 
L 317.806179 145.041526 
L 318.192213 145.221257 
L 318.578247 144.214294 
L 318.964281 142.391744 
L 319.350315 144.470195 
L 319.736349 144.888472 
L 320.122382 144.685154 
L 320.508416 147.020931 
L 320.89445 145.064352 
L 321.666518 137.154248 
L 322.052552 130.862379 
L 322.82462 140.27565 
L 323.210654 139.578963 
L 323.596688 140.448006 
L 323.982722 139.37139 
L 324.75479 138.449545 
L 325.140824 138.586342 
L 325.526858 140.153492 
L 325.912892 139.765738 
L 326.298926 139.569877 
L 326.684959 137.728347 
L 327.070993 140.745646 
L 327.843061 137.904447 
L 328.229095 140.046605 
L 328.615129 138.802256 
L 329.001163 135.564262 
L 329.387197 135.882389 
L 329.773231 133.95665 
L 330.159265 132.828238 
L 330.545299 134.599901 
L 330.931333 134.958097 
L 331.703401 127.873314 
L 332.089435 127.752698 
L 332.475469 127.402205 
L 332.861503 126.684638 
L 333.247536 124.079547 
L 333.63357 125.453926 
L 334.019604 124.153684 
L 334.405638 124.253282 
L 334.791672 125.431396 
L 335.177706 128.3136 
L 335.56374 128.981909 
L 335.949774 129.029895 
L 336.335808 130.475739 
L 336.721842 128.375626 
L 337.49391 129.498098 
L 337.879944 129.759888 
L 338.265978 129.545323 
L 338.652012 129.121714 
L 339.038046 131.399275 
L 339.42408 130.351353 
L 339.810114 130.852465 
L 340.196147 129.363375 
L 340.582181 130.39534 
L 341.354249 127.855509 
L 341.740283 122.793111 
L 342.126317 110.939123 
L 342.898385 122.788596 
L 343.284419 123.113971 
L 343.670453 124.775121 
L 344.056487 123.203022 
L 344.442521 125.852589 
L 344.828555 124.916509 
L 345.214589 121.625029 
L 345.600623 123.42746 
L 345.986657 123.421285 
L 346.372691 125.630511 
L 346.758724 121.882774 
L 347.144758 115.539901 
L 347.530792 115.690003 
L 347.916826 125.679192 
L 348.30286 114.46521 
L 349.074928 111.141869 
L 349.460962 114.683371 
L 349.846996 114.512461 
L 350.23303 113.223012 
L 350.619064 110.257294 
L 351.005098 110.872923 
L 351.777166 103.571047 
L 352.1632 104.308477 
L 352.549234 104.093922 
L 352.935268 101.744487 
L 353.321301 101.657025 
L 353.707335 102.52996 
L 354.093369 101.326665 
L 354.479403 102.132793 
L 354.865437 102.230567 
L 355.251471 105.432389 
L 355.637505 106.230779 
L 356.409573 109.11311 
L 356.795607 107.133348 
L 357.181641 108.224285 
L 357.567675 108.350611 
L 357.953709 105.614567 
L 358.339743 108.687289 
L 358.725777 109.540692 
L 359.111811 106.569055 
L 359.497845 105.765241 
L 359.883878 107.963736 
L 360.269912 104.583552 
L 360.655946 107.874746 
L 361.04198 108.165185 
L 361.428014 103.972244 
L 362.200082 90.338685 
L 362.586116 97.31607 
L 362.97215 102.070092 
L 363.358184 101.998453 
L 363.744218 102.559946 
L 364.130252 101.463733 
L 364.516286 101.591964 
L 364.90232 102.285827 
L 365.674388 100.059449 
L 366.060422 102.974566 
L 366.832489 95.989739 
L 367.218523 99.560375 
L 367.604557 95.43889 
L 367.990591 98.01313 
L 368.376625 98.645369 
L 368.762659 97.40337 
L 369.148693 94.347089 
L 369.534727 98.97627 
L 369.920761 98.823017 
L 370.306795 95.525142 
L 370.692829 96.084168 
L 371.078863 95.526991 
L 371.464897 91.058898 
L 372.236965 86.656295 
L 372.622999 87.000904 
L 373.009033 86.832527 
L 373.395066 85.743587 
L 373.7811 87.086508 
L 374.167134 85.658995 
L 374.553168 86.621318 
L 374.939202 85.280588 
L 375.71127 90.491939 
L 376.097304 91.984926 
L 376.483338 90.960709 
L 376.869372 92.559107 
L 377.255406 92.114424 
L 377.64144 91.463741 
L 378.027474 91.172624 
L 378.413508 93.276715 
L 378.799542 93.938226 
L 379.185576 91.27593 
L 379.57161 92.186845 
L 379.957643 94.588428 
L 380.343677 92.115773 
L 380.729711 93.762207 
L 381.115745 94.284301 
L 381.501779 92.828467 
L 381.887813 88.087204 
L 382.273847 76.341277 
L 382.659881 81.862143 
L 383.045915 89.078789 
L 383.431949 89.079703 
L 383.817983 91.564346 
L 384.204017 90.569089 
L 384.976085 87.373407 
L 385.362119 86.666096 
L 385.748153 89.060396 
L 386.134187 74.022462 
L 386.906254 74.022462 
L 387.292288 85.344694 
L 387.678322 84.095543 
L 388.064356 84.554512 
L 388.45039 89.170756 
L 388.836424 88.470759 
L 389.222458 84.868369 
L 389.608492 85.830983 
L 389.994526 84.545278 
L 390.38056 85.436743 
L 390.766594 82.52799 
L 391.152628 77.249112 
L 391.538662 78.011513 
L 391.924696 73.858125 
L 392.31073 74.70877 
L 392.696764 74.345007 
L 393.082798 74.901429 
L 393.468831 74.74509 
L 393.854865 74.061505 
L 394.240899 75.717552 
L 394.626933 75.507941 
L 395.012967 75.529112 
L 395.399001 79.13828 
L 395.785035 79.954332 
L 396.171069 81.350862 
L 396.557103 82.228016 
L 397.715205 81.719268 
L 398.101239 82.111629 
L 398.487273 81.713302 
L 398.487273 81.713302 
" clip-path="url(#p91eefc4a3a)" style="fill: none; stroke: #ff7f0e; stroke-width: 1.5; stroke-linecap: square"/>
   </g>
   <g id="line2d_17">
    <path d="M 73.832727 295.243918 
L 79.623236 295.215433 
L 80.00927 295.279722 
L 80.781338 295.173949 
L 81.167372 295.254996 
L 81.553406 295.160317 
L 81.93944 295.254445 
L 83.097542 295.15856 
L 93.906492 295.219228 
L 94.292526 295.179593 
L 94.67856 295.270804 
L 95.836662 294.983834 
L 96.222696 295.167233 
L 124.789208 295.297767 
L 125.175242 295.219718 
L 125.947309 295.363793 
L 128.649547 295.311338 
L 129.421615 295.330012 
L 129.807649 295.281847 
L 130.579717 295.390046 
L 131.737819 295.359416 
L 132.123853 295.417004 
L 133.281954 295.282945 
L 133.667988 295.372854 
L 134.440056 295.240143 
L 134.82609 295.217716 
L 135.212124 295.342449 
L 135.598158 295.34371 
L 135.984192 295.229724 
L 137.142294 295.382932 
L 137.528328 295.245522 
L 138.68643 295.226123 
L 139.072464 295.089592 
L 140.230565 295.336544 
L 141.002633 295.08855 
L 141.388667 295.170895 
L 141.774701 295.059059 
L 143.704871 295.257754 
L 144.476939 295.179904 
L 144.862973 294.87137 
L 145.249007 295.071613 
L 145.635041 294.978129 
L 146.793142 295.157375 
L 147.179176 295.020333 
L 147.56521 295.065632 
L 148.337278 294.847742 
L 148.723312 294.89891 
L 149.49538 294.81964 
L 149.881414 294.956804 
L 150.653482 294.806861 
L 151.039516 295.041529 
L 154.899855 294.792227 
L 155.285889 294.586166 
L 155.671923 294.533849 
L 156.443991 294.707349 
L 157.216059 294.66514 
L 157.602093 294.916219 
L 159.146229 294.608476 
L 160.30433 294.643024 
L 160.690364 294.904288 
L 161.848466 294.466322 
L 162.620534 294.544749 
L 163.006568 294.487339 
L 163.392602 294.701945 
L 163.778636 294.492575 
L 164.550704 294.757961 
L 165.708806 294.391424 
L 166.866907 294.486578 
L 167.252941 294.282489 
L 167.638975 294.414163 
L 168.411043 294.123643 
L 168.797077 294.268285 
L 169.183111 294.165693 
L 169.569145 294.233762 
L 170.341213 294.187304 
L 171.113281 294.180143 
L 171.499315 294.076234 
L 171.885349 294.190241 
L 173.04345 294.026149 
L 173.429484 294.217219 
L 174.201552 294.070151 
L 174.587586 293.799473 
L 174.97362 293.676007 
L 175.359654 293.376329 
L 176.131722 293.3339 
L 176.517756 293.085962 
L 176.90379 293.577972 
L 177.289824 293.543031 
L 177.675858 293.260765 
L 178.061892 293.209479 
L 178.447926 292.825638 
L 178.83396 293.028537 
L 179.219994 292.495043 
L 179.992061 292.96124 
L 180.378095 292.862617 
L 180.764129 293.88189 
L 181.150163 293.809469 
L 181.536197 292.676542 
L 181.922231 292.552121 
L 182.308265 292.596409 
L 182.694299 292.809876 
L 183.080333 291.930184 
L 183.466367 292.668058 
L 183.852401 292.672548 
L 184.238435 292.253878 
L 184.624469 292.800662 
L 185.010503 292.051055 
L 185.396537 292.163274 
L 185.782571 292.58103 
L 186.554638 292.532727 
L 186.940672 292.811352 
L 187.326706 292.345968 
L 187.71274 292.621712 
L 188.098774 292.036892 
L 188.484808 292.487939 
L 188.870842 292.222032 
L 189.256876 292.599376 
L 189.64291 292.412014 
L 190.028944 292.737144 
L 190.801012 291.780883 
L 191.187046 292.555139 
L 191.57308 292.429462 
L 191.959114 292.018918 
L 192.345148 292.272546 
L 192.731181 292.676072 
L 193.117215 292.260068 
L 193.889283 291.902781 
L 194.275317 291.390882 
L 194.661351 291.638499 
L 195.047385 291.479862 
L 195.433419 291.039944 
L 195.819453 291.16076 
L 196.205487 288.448261 
L 196.591521 291.983507 
L 196.977555 292.272561 
L 197.363589 291.30843 
L 197.749623 291.304784 
L 198.521691 290.720214 
L 198.907725 290.762448 
L 199.293759 290.48933 
L 199.679792 290.612668 
L 200.45186 290.039105 
L 200.837894 291.88632 
L 201.223928 292.587726 
L 201.609962 289.595352 
L 201.995996 289.926738 
L 202.768064 289.536926 
L 203.154098 289.710426 
L 203.540132 289.663354 
L 203.926166 290.248471 
L 204.3122 288.005228 
L 204.698234 289.618458 
L 205.084268 289.610925 
L 205.470302 288.955359 
L 205.856336 289.295811 
L 206.242369 289.817691 
L 206.628403 289.488736 
L 207.014437 289.566892 
L 207.400471 288.381296 
L 207.786505 288.929045 
L 208.172539 288.539085 
L 208.558573 287.934498 
L 208.944607 289.33159 
L 209.330641 288.26998 
L 209.716675 289.289376 
L 210.102709 288.253279 
L 210.488743 288.69742 
L 210.874777 288.113841 
L 211.260811 289.53286 
L 211.646845 289.225556 
L 212.032879 288.276549 
L 212.804946 289.135392 
L 213.19098 288.835984 
L 213.577014 287.709028 
L 213.963048 288.428066 
L 214.349082 286.769684 
L 214.735116 287.289423 
L 215.12115 286.448411 
L 215.893218 285.681071 
L 216.665286 285.826464 
L 217.05132 285.883991 
L 217.437354 284.812431 
L 217.823388 285.954455 
L 218.209422 285.65563 
L 218.595456 284.569065 
L 218.98149 284.818632 
L 219.367524 284.57407 
L 219.753557 284.682091 
L 220.525625 285.930117 
L 220.911659 287.749588 
L 221.297693 288.84527 
L 221.683727 284.584464 
L 222.069761 284.18031 
L 222.455795 284.229935 
L 222.841829 284.68752 
L 223.227863 284.608889 
L 223.613897 284.382402 
L 224.385965 285.220789 
L 224.771999 284.178594 
L 225.158033 284.42809 
L 225.544067 283.737746 
L 225.930101 284.897887 
L 226.316134 285.000973 
L 226.702168 283.957399 
L 227.474236 282.956677 
L 227.86027 282.331032 
L 228.246304 284.356338 
L 228.632338 283.346494 
L 229.018372 283.028076 
L 229.404406 283.998888 
L 229.79044 283.045738 
L 230.176474 283.790554 
L 230.562508 283.700829 
L 230.948542 283.252831 
L 231.334576 284.272762 
L 231.72061 284.784621 
L 232.106644 284.320973 
L 232.492678 283.502644 
L 232.878711 283.861034 
L 233.264745 284.71861 
L 233.650779 284.210807 
L 234.422847 282.208097 
L 234.808881 282.335685 
L 235.194915 280.445469 
L 235.966983 280.414543 
L 236.353017 279.25928 
L 236.739051 280.574875 
L 237.125085 280.380679 
L 237.511119 279.191232 
L 237.897153 278.561265 
L 238.283187 280.07029 
L 238.669221 278.741318 
L 239.441289 278.505041 
L 240.213356 279.044143 
L 240.59939 277.290995 
L 240.985424 279.877616 
L 241.371458 283.948527 
L 242.143526 277.336437 
L 242.52956 277.595944 
L 242.915594 277.055841 
L 243.301628 277.789747 
L 243.687662 278.254743 
L 244.073696 278.077954 
L 244.45973 278.046195 
L 244.845764 278.567211 
L 245.231798 277.710002 
L 245.617832 277.615113 
L 246.003866 277.126525 
L 246.389899 278.086376 
L 246.775933 278.232259 
L 247.161967 277.904857 
L 247.548001 277.959248 
L 247.934035 274.75926 
L 248.320069 278.89329 
L 248.706103 276.245459 
L 249.092137 276.292924 
L 249.478171 277.05817 
L 249.864205 279.087726 
L 250.250239 278.267068 
L 250.636273 276.940624 
L 251.022307 276.445544 
L 251.408341 279.222419 
L 251.794375 278.706633 
L 252.180409 278.715454 
L 252.566443 277.849256 
L 252.952476 278.745731 
L 253.33851 279.292199 
L 254.110578 279.880824 
L 254.882646 276.331348 
L 255.26868 276.633872 
L 255.654714 276.015346 
L 256.040748 276.898221 
L 256.426782 275.400754 
L 256.812816 275.741722 
L 257.19885 276.532874 
L 257.584884 275.253747 
L 257.970918 275.764109 
L 258.356952 277.096625 
L 258.742986 275.191138 
L 259.12902 274.162452 
L 259.515054 275.487415 
L 259.901087 275.613889 
L 260.287121 290.213422 
L 260.673155 280.210203 
L 261.059189 277.364841 
L 261.445223 282.383073 
L 261.831257 281.091739 
L 262.217291 275.180407 
L 262.603325 276.304319 
L 262.989359 274.88983 
L 263.375393 274.954023 
L 263.761427 274.814417 
L 264.147461 277.441204 
L 264.533495 275.930994 
L 264.919529 275.097628 
L 265.305563 274.614633 
L 265.691597 276.003369 
L 266.077631 276.15936 
L 266.463664 276.859914 
L 266.849698 276.635562 
L 267.235732 272.394313 
L 267.621766 274.388749 
L 268.0078 273.287852 
L 268.393834 276.44224 
L 268.779868 274.479057 
L 269.165902 273.986143 
L 269.93797 275.225783 
L 270.324004 274.178434 
L 271.096072 276.600172 
L 271.482106 277.536405 
L 271.86814 278.176464 
L 272.640208 276.547512 
L 273.412275 278.495285 
L 273.798309 277.779915 
L 274.184343 277.417275 
L 274.570377 277.518375 
L 274.956411 273.369272 
L 275.342445 272.900757 
L 276.500547 272.796807 
L 276.886581 273.298374 
L 277.272615 272.038513 
L 277.658649 272.537913 
L 278.044683 269.780739 
L 278.430717 272.752167 
L 278.816751 271.548816 
L 279.202785 269.473772 
L 279.588819 271.799089 
L 279.974852 269.853609 
L 280.360886 271.135591 
L 280.74692 271.176513 
L 281.132954 272.427344 
L 281.518988 283.717454 
L 282.291056 272.202222 
L 282.67709 271.777821 
L 283.063124 271.52357 
L 283.449158 270.914121 
L 283.835192 273.219768 
L 284.221226 272.089625 
L 284.60726 272.813285 
L 284.993294 270.208633 
L 285.379328 271.872695 
L 286.151396 270.521499 
L 286.537429 271.556171 
L 286.923463 271.084132 
L 287.309497 270.426999 
L 287.695531 272.833807 
L 288.081565 269.798141 
L 288.467599 271.835823 
L 288.853633 270.145391 
L 289.239667 269.734949 
L 289.625701 269.830298 
L 290.397769 272.992357 
L 290.783803 271.07713 
L 291.169837 272.437232 
L 291.555871 272.769237 
L 291.941905 272.558339 
L 292.327939 273.371024 
L 292.713973 271.632484 
L 293.100006 273.240515 
L 293.48604 272.724264 
L 293.872074 272.925805 
L 294.258108 275.185841 
L 295.030176 270.157654 
L 295.41621 270.155453 
L 295.802244 270.302036 
L 296.188278 269.077346 
L 296.574312 269.79858 
L 296.960346 270.19257 
L 297.34638 267.813046 
L 297.732414 269.227019 
L 298.118448 268.86535 
L 298.890516 270.419388 
L 299.27655 267.058112 
L 300.048617 269.042864 
L 300.434651 269.006657 
L 300.820685 268.716892 
L 301.206719 270.425185 
L 301.592753 280.993785 
L 301.978787 280.768341 
L 302.364821 269.978035 
L 302.750855 268.584937 
L 303.136889 268.304316 
L 303.522923 268.620006 
L 303.908957 269.169359 
L 304.294991 270.548478 
L 304.681025 269.997337 
L 305.067059 270.599273 
L 305.453093 269.799954 
L 305.839127 269.315406 
L 306.225161 278.540723 
L 306.611194 283.080976 
L 306.997228 284.334753 
L 307.769296 282.146489 
L 308.541364 283.26965 
L 308.927398 283.259292 
L 309.313432 280.568092 
L 309.699466 280.603835 
L 310.0855 281.961247 
L 310.471534 277.493128 
L 310.857568 278.728621 
L 311.243602 278.327465 
L 311.629636 277.437093 
L 312.01567 281.014696 
L 312.401704 279.684115 
L 312.787738 280.189129 
L 313.173771 278.95144 
L 313.559805 278.352467 
L 313.945839 279.258059 
L 314.331873 278.635857 
L 314.717907 279.240469 
L 315.103941 278.707772 
L 315.489975 276.348188 
L 315.876009 276.434844 
L 316.262043 273.564623 
L 316.648077 275.552429 
L 317.034111 275.5672 
L 317.420145 273.945098 
L 317.806179 275.74163 
L 318.192213 276.830325 
L 318.578247 276.850791 
L 318.964281 276.378006 
L 319.350315 278.11008 
L 320.122382 275.382934 
L 320.508416 274.293498 
L 321.280484 277.809319 
L 321.666518 281.201328 
L 322.052552 285.635036 
L 322.82462 276.441402 
L 323.210654 277.349829 
L 324.368756 276.572877 
L 324.75479 278.067733 
L 325.140824 277.65648 
L 325.526858 273.706502 
L 325.912892 273.570108 
L 326.298926 272.144276 
L 326.684959 276.648847 
L 327.070993 274.514749 
L 327.457027 275.247153 
L 327.843061 276.321659 
L 328.229095 274.31567 
L 328.615129 270.863091 
L 329.001163 277.241007 
L 329.387197 275.113538 
L 329.773231 277.476518 
L 330.159265 279.082976 
L 330.545299 272.862823 
L 330.931333 271.9361 
L 331.317367 273.636267 
L 331.703401 277.16021 
L 332.089435 278.899434 
L 332.475469 277.017815 
L 332.861503 277.296618 
L 333.247536 278.749005 
L 333.63357 276.95776 
L 334.405638 277.044538 
L 334.791672 279.041702 
L 335.177706 274.447206 
L 335.56374 272.694712 
L 335.949774 274.7087 
L 336.335808 272.122584 
L 336.721842 273.821305 
L 337.107876 271.633654 
L 337.879944 273.41092 
L 338.265978 273.337728 
L 338.652012 274.172136 
L 339.038046 271.764419 
L 339.42408 271.336192 
L 339.810114 272.541846 
L 340.196147 271.980368 
L 340.582181 270.223236 
L 340.968215 271.504661 
L 341.354249 271.487852 
L 341.740283 275.196629 
L 342.126317 284.202012 
L 342.512351 279.309733 
L 342.898385 277.923842 
L 343.284419 273.511208 
L 343.670453 271.658053 
L 344.056487 275.972928 
L 344.442521 271.492291 
L 344.828555 270.60887 
L 345.214589 273.851552 
L 345.600623 272.819781 
L 345.986657 272.794509 
L 346.372691 271.175441 
L 346.758724 267.985234 
L 347.144758 273.587454 
L 347.530792 273.644174 
L 347.916826 262.237049 
L 348.30286 272.985957 
L 348.688894 271.997524 
L 349.074928 276.976729 
L 349.846996 272.147269 
L 350.23303 275.203136 
L 350.619064 275.164946 
L 351.005098 273.019841 
L 351.391132 273.137786 
L 351.777166 277.609653 
L 352.1632 271.374581 
L 352.549234 273.816208 
L 352.935268 277.792265 
L 353.321301 279.639526 
L 353.707335 277.163775 
L 354.093369 278.679731 
L 354.865437 278.31135 
L 355.251471 277.063656 
L 355.637505 275.354346 
L 356.023539 272.591451 
L 356.409573 271.373355 
L 356.795607 271.889616 
L 357.181641 271.170512 
L 357.567675 269.254319 
L 357.953709 273.253871 
L 358.339743 273.590365 
L 358.725777 270.442745 
L 359.111811 269.936245 
L 359.497845 273.622517 
L 359.883878 269.749578 
L 360.269912 274.8689 
L 360.655946 270.007271 
L 361.04198 269.694502 
L 361.428014 271.685465 
L 361.814048 275.814929 
L 362.200082 281.474998 
L 362.97215 272.245325 
L 363.358184 270.961029 
L 363.744218 270.799174 
L 364.130252 274.206107 
L 364.90232 271.387667 
L 365.288354 274.062026 
L 365.674388 274.254021 
L 366.060422 269.743857 
L 366.446456 273.647432 
L 366.832489 275.594664 
L 367.218523 270.54241 
L 367.604557 275.818602 
L 368.376625 270.07983 
L 369.148693 275.519414 
L 369.534727 270.826597 
L 369.920761 269.58378 
L 370.306795 274.475885 
L 370.692829 273.963777 
L 371.078863 271.715079 
L 371.464897 276.148808 
L 371.850931 277.086548 
L 372.236965 275.722482 
L 372.622999 276.882607 
L 373.009033 276.659379 
L 373.395066 277.314214 
L 373.7811 275.822933 
L 374.167134 277.625058 
L 374.553168 275.36475 
L 374.939202 278.228367 
L 375.71127 269.213872 
L 376.097304 269.237852 
L 376.483338 272.320427 
L 376.869372 271.52645 
L 377.255406 268.170303 
L 377.64144 271.083167 
L 378.027474 270.201074 
L 378.413508 272.194509 
L 378.799542 268.84163 
L 379.57161 271.868843 
L 379.957643 269.67635 
L 380.343677 273.360937 
L 380.729711 269.53537 
L 381.115745 271.335559 
L 381.501779 269.970175 
L 381.887813 274.367103 
L 382.273847 283.444264 
L 382.659881 281.276813 
L 383.045915 274.045319 
L 383.431949 273.240362 
L 383.817983 270.841531 
L 384.204017 270.381781 
L 384.590051 273.30509 
L 384.976085 271.964902 
L 385.362119 273.352504 
L 385.748153 270.959583 
L 386.134187 295.488 
L 386.906254 295.488 
L 387.292288 272.362891 
L 388.064356 274.678049 
L 388.45039 269.627501 
L 388.836424 268.684291 
L 389.222458 272.693762 
L 389.608492 271.002395 
L 389.994526 269.850029 
L 390.38056 269.867916 
L 390.766594 267.838114 
L 391.152628 274.131444 
L 391.538662 271.938199 
L 391.924696 276.475735 
L 392.31073 274.34723 
L 392.696764 278.743065 
L 393.082798 275.114693 
L 393.854865 277.665387 
L 394.240899 277.524024 
L 394.626933 276.36227 
L 395.012967 277.581801 
L 395.399001 272.94575 
L 395.785035 270.860384 
L 396.171069 271.067711 
L 396.943137 270.86332 
L 397.329171 275.376283 
L 397.715205 271.403281 
L 398.101239 271.548617 
L 398.487273 269.81522 
L 398.487273 269.81522 
" clip-path="url(#p91eefc4a3a)" style="fill: none; stroke: #2ca02c; stroke-width: 1.5; stroke-linecap: square"/>
   </g>
   <g id="patch_3">
    <path d="M 57.6 307.584 
L 57.6 41.472 
" style="fill: none; stroke: #000000; stroke-width: 0.8; stroke-linejoin: miter; stroke-linecap: square"/>
   </g>
   <g id="patch_4">
    <path d="M 414.72 307.584 
L 414.72 41.472 
" style="fill: none; stroke: #000000; stroke-width: 0.8; stroke-linejoin: miter; stroke-linecap: square"/>
   </g>
   <g id="patch_5">
    <path d="M 57.6 307.584 
L 414.72 307.584 
" style="fill: none; stroke: #000000; stroke-width: 0.8; stroke-linejoin: miter; stroke-linecap: square"/>
   </g>
   <g id="patch_6">
    <path d="M 57.6 41.472 
L 414.72 41.472 
" style="fill: none; stroke: #000000; stroke-width: 0.8; stroke-linejoin: miter; stroke-linecap: square"/>
   </g>
   <g id="legend_1">
    <g id="patch_7">
     <path d="M 64.6 93.506375 
L 186.25625 93.506375 
Q 188.25625 93.506375 188.25625 91.506375 
L 188.25625 48.472 
Q 188.25625 46.472 186.25625 46.472 
L 64.6 46.472 
Q 62.6 46.472 62.6 48.472 
L 62.6 91.506375 
Q 62.6 93.506375 64.6 93.506375 
z
" style="fill: #ffffff; opacity: 0.8; stroke: #cccccc; stroke-linejoin: miter"/>
    </g>
    <g id="line2d_18">
     <path d="M 66.6 54.570438 
L 76.6 54.570438 
L 86.6 54.570438 
" style="fill: none; stroke: #1f77b4; stroke-width: 1.5; stroke-linecap: square"/>
    </g>
    <g id="text_17">
     <!-- Weekly maximum -->
     <g transform="translate(94.6 58.070438) scale(0.1 -0.1)">
      <defs>
       <path id="DejaVuSans-57" d="M 213 4666 
L 850 4666 
L 1831 722 
L 2809 4666 
L 3519 4666 
L 4500 722 
L 5478 4666 
L 6119 4666 
L 4947 0 
L 4153 0 
L 3169 4050 
L 2175 0 
L 1381 0 
L 213 4666 
z
" transform="scale(0.015625)"/>
       <path id="DejaVuSans-6b" d="M 581 4863 
L 1159 4863 
L 1159 1991 
L 2875 3500 
L 3609 3500 
L 1753 1863 
L 3688 0 
L 2938 0 
L 1159 1709 
L 1159 0 
L 581 0 
L 581 4863 
z
" transform="scale(0.015625)"/>
       <path id="DejaVuSans-79" d="M 2059 -325 
Q 1816 -950 1584 -1140 
Q 1353 -1331 966 -1331 
L 506 -1331 
L 506 -850 
L 844 -850 
Q 1081 -850 1212 -737 
Q 1344 -625 1503 -206 
L 1606 56 
L 191 3500 
L 800 3500 
L 1894 763 
L 2988 3500 
L 3597 3500 
L 2059 -325 
z
" transform="scale(0.015625)"/>
       <path id="DejaVuSans-6d" d="M 3328 2828 
Q 3544 3216 3844 3400 
Q 4144 3584 4550 3584 
Q 5097 3584 5394 3201 
Q 5691 2819 5691 2113 
L 5691 0 
L 5113 0 
L 5113 2094 
Q 5113 2597 4934 2840 
Q 4756 3084 4391 3084 
Q 3944 3084 3684 2787 
Q 3425 2491 3425 1978 
L 3425 0 
L 2847 0 
L 2847 2094 
Q 2847 2600 2669 2842 
Q 2491 3084 2119 3084 
Q 1678 3084 1418 2786 
Q 1159 2488 1159 1978 
L 1159 0 
L 581 0 
L 581 3500 
L 1159 3500 
L 1159 2956 
Q 1356 3278 1631 3431 
Q 1906 3584 2284 3584 
Q 2666 3584 2933 3390 
Q 3200 3197 3328 2828 
z
" transform="scale(0.015625)"/>
       <path id="DejaVuSans-78" d="M 3513 3500 
L 2247 1797 
L 3578 0 
L 2900 0 
L 1881 1375 
L 863 0 
L 184 0 
L 1544 1831 
L 300 3500 
L 978 3500 
L 1906 2253 
L 2834 3500 
L 3513 3500 
z
" transform="scale(0.015625)"/>
       <path id="DejaVuSans-75" d="M 544 1381 
L 544 3500 
L 1119 3500 
L 1119 1403 
Q 1119 906 1312 657 
Q 1506 409 1894 409 
Q 2359 409 2629 706 
Q 2900 1003 2900 1516 
L 2900 3500 
L 3475 3500 
L 3475 0 
L 2900 0 
L 2900 538 
Q 2691 219 2414 64 
Q 2138 -91 1772 -91 
Q 1169 -91 856 284 
Q 544 659 544 1381 
z
M 1991 3584 
L 1991 3584 
z
" transform="scale(0.015625)"/>
      </defs>
      <use xlink:href="#DejaVuSans-57"/>
      <use xlink:href="#DejaVuSans-65" x="93.001953"/>
      <use xlink:href="#DejaVuSans-65" x="154.525391"/>
      <use xlink:href="#DejaVuSans-6b" x="216.048828"/>
      <use xlink:href="#DejaVuSans-6c" x="273.958984"/>
      <use xlink:href="#DejaVuSans-79" x="301.742188"/>
      <use xlink:href="#DejaVuSans-20" x="360.921875"/>
      <use xlink:href="#DejaVuSans-6d" x="392.708984"/>
      <use xlink:href="#DejaVuSans-61" x="490.121094"/>
      <use xlink:href="#DejaVuSans-78" x="551.400391"/>
      <use xlink:href="#DejaVuSans-69" x="610.580078"/>
      <use xlink:href="#DejaVuSans-6d" x="638.363281"/>
      <use xlink:href="#DejaVuSans-75" x="735.775391"/>
      <use xlink:href="#DejaVuSans-6d" x="799.154297"/>
     </g>
    </g>
    <g id="line2d_19">
     <path d="M 66.6 69.248563 
L 76.6 69.248563 
L 86.6 69.248563 
" style="fill: none; stroke: #ff7f0e; stroke-width: 1.5; stroke-linecap: square"/>
    </g>
    <g id="text_18">
     <!-- Weekly minimum -->
     <g transform="translate(94.6 72.748563) scale(0.1 -0.1)">
      <defs>
       <path id="DejaVuSans-6e" d="M 3513 2113 
L 3513 0 
L 2938 0 
L 2938 2094 
Q 2938 2591 2744 2837 
Q 2550 3084 2163 3084 
Q 1697 3084 1428 2787 
Q 1159 2491 1159 1978 
L 1159 0 
L 581 0 
L 581 3500 
L 1159 3500 
L 1159 2956 
Q 1366 3272 1645 3428 
Q 1925 3584 2291 3584 
Q 2894 3584 3203 3211 
Q 3513 2838 3513 2113 
z
" transform="scale(0.015625)"/>
      </defs>
      <use xlink:href="#DejaVuSans-57"/>
      <use xlink:href="#DejaVuSans-65" x="93.001953"/>
      <use xlink:href="#DejaVuSans-65" x="154.525391"/>
      <use xlink:href="#DejaVuSans-6b" x="216.048828"/>
      <use xlink:href="#DejaVuSans-6c" x="273.958984"/>
      <use xlink:href="#DejaVuSans-79" x="301.742188"/>
      <use xlink:href="#DejaVuSans-20" x="360.921875"/>
      <use xlink:href="#DejaVuSans-6d" x="392.708984"/>
      <use xlink:href="#DejaVuSans-69" x="490.121094"/>
      <use xlink:href="#DejaVuSans-6e" x="517.904297"/>
      <use xlink:href="#DejaVuSans-69" x="581.283203"/>
      <use xlink:href="#DejaVuSans-6d" x="609.066406"/>
      <use xlink:href="#DejaVuSans-75" x="706.478516"/>
      <use xlink:href="#DejaVuSans-6d" x="769.857422"/>
     </g>
    </g>
    <g id="line2d_20">
     <path d="M 66.6 83.926688 
L 76.6 83.926688 
L 86.6 83.926688 
" style="fill: none; stroke: #2ca02c; stroke-width: 1.5; stroke-linecap: square"/>
    </g>
    <g id="text_19">
     <!-- Weekly range -->
     <g transform="translate(94.6 87.426688) scale(0.1 -0.1)">
      <use xlink:href="#DejaVuSans-57"/>
      <use xlink:href="#DejaVuSans-65" x="93.001953"/>
      <use xlink:href="#DejaVuSans-65" x="154.525391"/>
      <use xlink:href="#DejaVuSans-6b" x="216.048828"/>
      <use xlink:href="#DejaVuSans-6c" x="273.958984"/>
      <use xlink:href="#DejaVuSans-79" x="301.742188"/>
      <use xlink:href="#DejaVuSans-20" x="360.921875"/>
      <use xlink:href="#DejaVuSans-72" x="392.708984"/>
      <use xlink:href="#DejaVuSans-61" x="433.822266"/>
      <use xlink:href="#DejaVuSans-6e" x="495.101562"/>
      <use xlink:href="#DejaVuSans-67" x="558.480469"/>
      <use xlink:href="#DejaVuSans-65" x="621.957031"/>
     </g>
    </g>
   </g>
  </g>
 </g>
 <defs>
  <clipPath id="p91eefc4a3a">
   <rect x="57.6" y="41.472" width="357.12" height="266.112"/>
  </clipPath>
 </defs>
</svg>
