<?xml version="1.0" encoding="utf-8" standalone="no"?>
<!DOCTYPE svg PUBLIC "-//W3C//DTD SVG 1.1//EN"
  "http://www.w3.org/Graphics/SVG/1.1/DTD/svg11.dtd">
<svg xmlns:xlink="http://www.w3.org/1999/xlink" width="460.8pt" height="345.6pt" viewBox="0 0 460.8 345.6" xmlns="http://www.w3.org/2000/svg" version="1.1">
 <metadata>
  <rdf:RDF xmlns:dc="http://purl.org/dc/elements/1.1/" xmlns:cc="http://creativecommons.org/ns#" xmlns:rdf="http://www.w3.org/1999/02/22-rdf-syntax-ns#">
   <cc:Work>
    <dc:type rdf:resource="http://purl.org/dc/dcmitype/StillImage"/>
    <dc:date>2025-08-12T05:40:29.747504</dc:date>
    <dc:format>image/svg+xml</dc:format>
    <dc:creator>
     <cc:Agent>
      <dc:title>Matplotlib v3.10.5, https://matplotlib.org/</dc:title>
     </cc:Agent>
    </dc:creator>
   </cc:Work>
  </rdf:RDF>
 </metadata>
 <defs>
  <style type="text/css">*{stroke-linejoin: round; stroke-linecap: butt}</style>
 </defs>
 <g id="figure_1">
  <g id="patch_1">
   <path d="M 0 345.6 
L 460.8 345.6 
L 460.8 0 
L 0 0 
z
" style="fill: #ffffff"/>
  </g>
  <g id="axes_1">
   <g id="patch_2">
    <path d="M 57.6 307.584 
L 414.72 307.584 
L 414.72 41.472 
L 57.6 41.472 
z
" style="fill: #ffffff"/>
   </g>
   <g id="matplotlib.axis_1">
    <g id="xtick_1">
     <g id="line2d_1">
      <defs>
       <path id="mb9bee4f19b" d="M 0 0 
L 0 3.5 
" style="stroke: #000000; stroke-width: 0.8"/>
      </defs>
      <g>
       <use xlink:href="#mb9bee4f19b" x="61.016725" y="307.584" style="stroke: #000000; stroke-width: 0.8"/>
      </g>
     </g>
     <g id="text_1">
      <!-- 2008 -->
      <g transform="translate(48.291725 322.182437) scale(0.1 -0.1)">
       <defs>
        <path id="DejaVuSans-32" d="M 1228 531 
L 3431 531 
L 3431 0 
L 469 0 
L 469 531 
Q 828 903 1448 1529 
Q 2069 2156 2228 2338 
Q 2531 2678 2651 2914 
Q 2772 3150 2772 3378 
Q 2772 3750 2511 3984 
Q 2250 4219 1831 4219 
Q 1534 4219 1204 4116 
Q 875 4013 500 3803 
L 500 4441 
Q 881 4594 1212 4672 
Q 1544 4750 1819 4750 
Q 2544 4750 2975 4387 
Q 3406 4025 3406 3419 
Q 3406 3131 3298 2873 
Q 3191 2616 2906 2266 
Q 2828 2175 2409 1742 
Q 1991 1309 1228 531 
z
" transform="scale(0.015625)"/>
        <path id="DejaVuSans-30" d="M 2034 4250 
Q 1547 4250 1301 3770 
Q 1056 3291 1056 2328 
Q 1056 1369 1301 889 
Q 1547 409 2034 409 
Q 2525 409 2770 889 
Q 3016 1369 3016 2328 
Q 3016 3291 2770 3770 
Q 2525 4250 2034 4250 
z
M 2034 4750 
Q 2819 4750 3233 4129 
Q 3647 3509 3647 2328 
Q 3647 1150 3233 529 
Q 2819 -91 2034 -91 
Q 1250 -91 836 529 
Q 422 1150 422 2328 
Q 422 3509 836 4129 
Q 1250 4750 2034 4750 
z
" transform="scale(0.015625)"/>
        <path id="DejaVuSans-38" d="M 2034 2216 
Q 1584 2216 1326 1975 
Q 1069 1734 1069 1313 
Q 1069 891 1326 650 
Q 1584 409 2034 409 
Q 2484 409 2743 651 
Q 3003 894 3003 1313 
Q 3003 1734 2745 1975 
Q 2488 2216 2034 2216 
z
M 1403 2484 
Q 997 2584 770 2862 
Q 544 3141 544 3541 
Q 544 4100 942 4425 
Q 1341 4750 2034 4750 
Q 2731 4750 3128 4425 
Q 3525 4100 3525 3541 
Q 3525 3141 3298 2862 
Q 3072 2584 2669 2484 
Q 3125 2378 3379 2068 
Q 3634 1759 3634 1313 
Q 3634 634 3220 271 
Q 2806 -91 2034 -91 
Q 1263 -91 848 271 
Q 434 634 434 1313 
Q 434 1759 690 2068 
Q 947 2378 1403 2484 
z
M 1172 3481 
Q 1172 3119 1398 2916 
Q 1625 2713 2034 2713 
Q 2441 2713 2670 2916 
Q 2900 3119 2900 3481 
Q 2900 3844 2670 4047 
Q 2441 4250 2034 4250 
Q 1625 4250 1398 4047 
Q 1172 3844 1172 3481 
z
" transform="scale(0.015625)"/>
       </defs>
       <use xlink:href="#DejaVuSans-32"/>
       <use xlink:href="#DejaVuSans-30" transform="translate(63.623047 0)"/>
       <use xlink:href="#DejaVuSans-30" transform="translate(127.246094 0)"/>
       <use xlink:href="#DejaVuSans-38" transform="translate(190.869141 0)"/>
      </g>
     </g>
    </g>
    <g id="xtick_2">
     <g id="line2d_2">
      <g>
       <use xlink:href="#mb9bee4f19b" x="99.412207" y="307.584" style="stroke: #000000; stroke-width: 0.8"/>
      </g>
     </g>
     <g id="text_2">
      <!-- 2010 -->
      <g transform="translate(86.687207 322.182437) scale(0.1 -0.1)">
       <defs>
        <path id="DejaVuSans-31" d="M 794 531 
L 1825 531 
L 1825 4091 
L 703 3866 
L 703 4441 
L 1819 4666 
L 2450 4666 
L 2450 531 
L 3481 531 
L 3481 0 
L 794 0 
L 794 531 
z
" transform="scale(0.015625)"/>
       </defs>
       <use xlink:href="#DejaVuSans-32"/>
       <use xlink:href="#DejaVuSans-30" transform="translate(63.623047 0)"/>
       <use xlink:href="#DejaVuSans-31" transform="translate(127.246094 0)"/>
       <use xlink:href="#DejaVuSans-30" transform="translate(190.869141 0)"/>
      </g>
     </g>
    </g>
    <g id="xtick_3">
     <g id="line2d_3">
      <g>
       <use xlink:href="#mb9bee4f19b" x="137.755164" y="307.584" style="stroke: #000000; stroke-width: 0.8"/>
      </g>
     </g>
     <g id="text_3">
      <!-- 2012 -->
      <g transform="translate(125.030164 322.182437) scale(0.1 -0.1)">
       <use xlink:href="#DejaVuSans-32"/>
       <use xlink:href="#DejaVuSans-30" transform="translate(63.623047 0)"/>
       <use xlink:href="#DejaVuSans-31" transform="translate(127.246094 0)"/>
       <use xlink:href="#DejaVuSans-32" transform="translate(190.869141 0)"/>
      </g>
     </g>
    </g>
    <g id="xtick_4">
     <g id="line2d_4">
      <g>
       <use xlink:href="#mb9bee4f19b" x="176.150646" y="307.584" style="stroke: #000000; stroke-width: 0.8"/>
      </g>
     </g>
     <g id="text_4">
      <!-- 2014 -->
      <g transform="translate(163.425646 322.182437) scale(0.1 -0.1)">
       <defs>
        <path id="DejaVuSans-34" d="M 2419 4116 
L 825 1625 
L 2419 1625 
L 2419 4116 
z
M 2253 4666 
L 3047 4666 
L 3047 1625 
L 3713 1625 
L 3713 1100 
L 3047 1100 
L 3047 0 
L 2419 0 
L 2419 1100 
L 313 1100 
L 313 1709 
L 2253 4666 
z
" transform="scale(0.015625)"/>
       </defs>
       <use xlink:href="#DejaVuSans-32"/>
       <use xlink:href="#DejaVuSans-30" transform="translate(63.623047 0)"/>
       <use xlink:href="#DejaVuSans-31" transform="translate(127.246094 0)"/>
       <use xlink:href="#DejaVuSans-34" transform="translate(190.869141 0)"/>
      </g>
     </g>
    </g>
    <g id="xtick_5">
     <g id="line2d_5">
      <g>
       <use xlink:href="#mb9bee4f19b" x="214.493603" y="307.584" style="stroke: #000000; stroke-width: 0.8"/>
      </g>
     </g>
     <g id="text_5">
      <!-- 2016 -->
      <g transform="translate(201.768603 322.182437) scale(0.1 -0.1)">
       <defs>
        <path id="DejaVuSans-36" d="M 2113 2584 
Q 1688 2584 1439 2293 
Q 1191 2003 1191 1497 
Q 1191 994 1439 701 
Q 1688 409 2113 409 
Q 2538 409 2786 701 
Q 3034 994 3034 1497 
Q 3034 2003 2786 2293 
Q 2538 2584 2113 2584 
z
M 3366 4563 
L 3366 3988 
Q 3128 4100 2886 4159 
Q 2644 4219 2406 4219 
Q 1781 4219 1451 3797 
Q 1122 3375 1075 2522 
Q 1259 2794 1537 2939 
Q 1816 3084 2150 3084 
Q 2853 3084 3261 2657 
Q 3669 2231 3669 1497 
Q 3669 778 3244 343 
Q 2819 -91 2113 -91 
Q 1303 -91 875 529 
Q 447 1150 447 2328 
Q 447 3434 972 4092 
Q 1497 4750 2381 4750 
Q 2619 4750 2861 4703 
Q 3103 4656 3366 4563 
z
" transform="scale(0.015625)"/>
       </defs>
       <use xlink:href="#DejaVuSans-32"/>
       <use xlink:href="#DejaVuSans-30" transform="translate(63.623047 0)"/>
       <use xlink:href="#DejaVuSans-31" transform="translate(127.246094 0)"/>
       <use xlink:href="#DejaVuSans-36" transform="translate(190.869141 0)"/>
      </g>
     </g>
    </g>
    <g id="xtick_6">
     <g id="line2d_6">
      <g>
       <use xlink:href="#mb9bee4f19b" x="252.889085" y="307.584" style="stroke: #000000; stroke-width: 0.8"/>
      </g>
     </g>
     <g id="text_6">
      <!-- 2018 -->
      <g transform="translate(240.164085 322.182437) scale(0.1 -0.1)">
       <use xlink:href="#DejaVuSans-32"/>
       <use xlink:href="#DejaVuSans-30" transform="translate(63.623047 0)"/>
       <use xlink:href="#DejaVuSans-31" transform="translate(127.246094 0)"/>
       <use xlink:href="#DejaVuSans-38" transform="translate(190.869141 0)"/>
      </g>
     </g>
    </g>
    <g id="xtick_7">
     <g id="line2d_7">
      <g>
       <use xlink:href="#mb9bee4f19b" x="291.232042" y="307.584" style="stroke: #000000; stroke-width: 0.8"/>
      </g>
     </g>
     <g id="text_7">
      <!-- 2020 -->
      <g transform="translate(278.507042 322.182437) scale(0.1 -0.1)">
       <use xlink:href="#DejaVuSans-32"/>
       <use xlink:href="#DejaVuSans-30" transform="translate(63.623047 0)"/>
       <use xlink:href="#DejaVuSans-32" transform="translate(127.246094 0)"/>
       <use xlink:href="#DejaVuSans-30" transform="translate(190.869141 0)"/>
      </g>
     </g>
    </g>
    <g id="xtick_8">
     <g id="line2d_8">
      <g>
       <use xlink:href="#mb9bee4f19b" x="329.627524" y="307.584" style="stroke: #000000; stroke-width: 0.8"/>
      </g>
     </g>
     <g id="text_8">
      <!-- 2022 -->
      <g transform="translate(316.902524 322.182437) scale(0.1 -0.1)">
       <use xlink:href="#DejaVuSans-32"/>
       <use xlink:href="#DejaVuSans-30" transform="translate(63.623047 0)"/>
       <use xlink:href="#DejaVuSans-32" transform="translate(127.246094 0)"/>
       <use xlink:href="#DejaVuSans-32" transform="translate(190.869141 0)"/>
      </g>
     </g>
    </g>
    <g id="xtick_9">
     <g id="line2d_9">
      <g>
       <use xlink:href="#mb9bee4f19b" x="367.970481" y="307.584" style="stroke: #000000; stroke-width: 0.8"/>
      </g>
     </g>
     <g id="text_9">
      <!-- 2024 -->
      <g transform="translate(355.245481 322.182437) scale(0.1 -0.1)">
       <use xlink:href="#DejaVuSans-32"/>
       <use xlink:href="#DejaVuSans-30" transform="translate(63.623047 0)"/>
       <use xlink:href="#DejaVuSans-32" transform="translate(127.246094 0)"/>
       <use xlink:href="#DejaVuSans-34" transform="translate(190.869141 0)"/>
      </g>
     </g>
    </g>
    <g id="xtick_10">
     <g id="line2d_10">
      <g>
       <use xlink:href="#mb9bee4f19b" x="406.365963" y="307.584" style="stroke: #000000; stroke-width: 0.8"/>
      </g>
     </g>
     <g id="text_10">
      <!-- 2026 -->
      <g transform="translate(393.640963 322.182437) scale(0.1 -0.1)">
       <use xlink:href="#DejaVuSans-32"/>
       <use xlink:href="#DejaVuSans-30" transform="translate(63.623047 0)"/>
       <use xlink:href="#DejaVuSans-32" transform="translate(127.246094 0)"/>
       <use xlink:href="#DejaVuSans-36" transform="translate(190.869141 0)"/>
      </g>
     </g>
    </g>
    <g id="text_11">
     <!-- Updated 2025-08-12 05:40:29.745498 - Last record 2025-08-09 -->
     <g transform="translate(75.905312 335.860562) scale(0.1 -0.1)">
      <defs>
       <path id="DejaVuSans-55" d="M 556 4666 
L 1191 4666 
L 1191 1831 
Q 1191 1081 1462 751 
Q 1734 422 2344 422 
Q 2950 422 3222 751 
Q 3494 1081 3494 1831 
L 3494 4666 
L 4128 4666 
L 4128 1753 
Q 4128 841 3676 375 
Q 3225 -91 2344 -91 
Q 1459 -91 1007 375 
Q 556 841 556 1753 
L 556 4666 
z
" transform="scale(0.015625)"/>
       <path id="DejaVuSans-70" d="M 1159 525 
L 1159 -1331 
L 581 -1331 
L 581 3500 
L 1159 3500 
L 1159 2969 
Q 1341 3281 1617 3432 
Q 1894 3584 2278 3584 
Q 2916 3584 3314 3078 
Q 3713 2572 3713 1747 
Q 3713 922 3314 415 
Q 2916 -91 2278 -91 
Q 1894 -91 1617 61 
Q 1341 213 1159 525 
z
M 3116 1747 
Q 3116 2381 2855 2742 
Q 2594 3103 2138 3103 
Q 1681 3103 1420 2742 
Q 1159 2381 1159 1747 
Q 1159 1113 1420 752 
Q 1681 391 2138 391 
Q 2594 391 2855 752 
Q 3116 1113 3116 1747 
z
" transform="scale(0.015625)"/>
       <path id="DejaVuSans-64" d="M 2906 2969 
L 2906 4863 
L 3481 4863 
L 3481 0 
L 2906 0 
L 2906 525 
Q 2725 213 2448 61 
Q 2172 -91 1784 -91 
Q 1150 -91 751 415 
Q 353 922 353 1747 
Q 353 2572 751 3078 
Q 1150 3584 1784 3584 
Q 2172 3584 2448 3432 
Q 2725 3281 2906 2969 
z
M 947 1747 
Q 947 1113 1208 752 
Q 1469 391 1925 391 
Q 2381 391 2643 752 
Q 2906 1113 2906 1747 
Q 2906 2381 2643 2742 
Q 2381 3103 1925 3103 
Q 1469 3103 1208 2742 
Q 947 2381 947 1747 
z
" transform="scale(0.015625)"/>
       <path id="DejaVuSans-61" d="M 2194 1759 
Q 1497 1759 1228 1600 
Q 959 1441 959 1056 
Q 959 750 1161 570 
Q 1363 391 1709 391 
Q 2188 391 2477 730 
Q 2766 1069 2766 1631 
L 2766 1759 
L 2194 1759 
z
M 3341 1997 
L 3341 0 
L 2766 0 
L 2766 531 
Q 2569 213 2275 61 
Q 1981 -91 1556 -91 
Q 1019 -91 701 211 
Q 384 513 384 1019 
Q 384 1609 779 1909 
Q 1175 2209 1959 2209 
L 2766 2209 
L 2766 2266 
Q 2766 2663 2505 2880 
Q 2244 3097 1772 3097 
Q 1472 3097 1187 3025 
Q 903 2953 641 2809 
L 641 3341 
Q 956 3463 1253 3523 
Q 1550 3584 1831 3584 
Q 2591 3584 2966 3190 
Q 3341 2797 3341 1997 
z
" transform="scale(0.015625)"/>
       <path id="DejaVuSans-74" d="M 1172 4494 
L 1172 3500 
L 2356 3500 
L 2356 3053 
L 1172 3053 
L 1172 1153 
Q 1172 725 1289 603 
Q 1406 481 1766 481 
L 2356 481 
L 2356 0 
L 1766 0 
Q 1100 0 847 248 
Q 594 497 594 1153 
L 594 3053 
L 172 3053 
L 172 3500 
L 594 3500 
L 594 4494 
L 1172 4494 
z
" transform="scale(0.015625)"/>
       <path id="DejaVuSans-65" d="M 3597 1894 
L 3597 1613 
L 953 1613 
Q 991 1019 1311 708 
Q 1631 397 2203 397 
Q 2534 397 2845 478 
Q 3156 559 3463 722 
L 3463 178 
Q 3153 47 2828 -22 
Q 2503 -91 2169 -91 
Q 1331 -91 842 396 
Q 353 884 353 1716 
Q 353 2575 817 3079 
Q 1281 3584 2069 3584 
Q 2775 3584 3186 3129 
Q 3597 2675 3597 1894 
z
M 3022 2063 
Q 3016 2534 2758 2815 
Q 2500 3097 2075 3097 
Q 1594 3097 1305 2825 
Q 1016 2553 972 2059 
L 3022 2063 
z
" transform="scale(0.015625)"/>
       <path id="DejaVuSans-20" transform="scale(0.015625)"/>
       <path id="DejaVuSans-35" d="M 691 4666 
L 3169 4666 
L 3169 4134 
L 1269 4134 
L 1269 2991 
Q 1406 3038 1543 3061 
Q 1681 3084 1819 3084 
Q 2600 3084 3056 2656 
Q 3513 2228 3513 1497 
Q 3513 744 3044 326 
Q 2575 -91 1722 -91 
Q 1428 -91 1123 -41 
Q 819 9 494 109 
L 494 744 
Q 775 591 1075 516 
Q 1375 441 1709 441 
Q 2250 441 2565 725 
Q 2881 1009 2881 1497 
Q 2881 1984 2565 2268 
Q 2250 2553 1709 2553 
Q 1456 2553 1204 2497 
Q 953 2441 691 2322 
L 691 4666 
z
" transform="scale(0.015625)"/>
       <path id="DejaVuSans-2d" d="M 313 2009 
L 1997 2009 
L 1997 1497 
L 313 1497 
L 313 2009 
z
" transform="scale(0.015625)"/>
       <path id="DejaVuSans-3a" d="M 750 794 
L 1409 794 
L 1409 0 
L 750 0 
L 750 794 
z
M 750 3309 
L 1409 3309 
L 1409 2516 
L 750 2516 
L 750 3309 
z
" transform="scale(0.015625)"/>
       <path id="DejaVuSans-39" d="M 703 97 
L 703 672 
Q 941 559 1184 500 
Q 1428 441 1663 441 
Q 2288 441 2617 861 
Q 2947 1281 2994 2138 
Q 2813 1869 2534 1725 
Q 2256 1581 1919 1581 
Q 1219 1581 811 2004 
Q 403 2428 403 3163 
Q 403 3881 828 4315 
Q 1253 4750 1959 4750 
Q 2769 4750 3195 4129 
Q 3622 3509 3622 2328 
Q 3622 1225 3098 567 
Q 2575 -91 1691 -91 
Q 1453 -91 1209 -44 
Q 966 3 703 97 
z
M 1959 2075 
Q 2384 2075 2632 2365 
Q 2881 2656 2881 3163 
Q 2881 3666 2632 3958 
Q 2384 4250 1959 4250 
Q 1534 4250 1286 3958 
Q 1038 3666 1038 3163 
Q 1038 2656 1286 2365 
Q 1534 2075 1959 2075 
z
" transform="scale(0.015625)"/>
       <path id="DejaVuSans-2e" d="M 684 794 
L 1344 794 
L 1344 0 
L 684 0 
L 684 794 
z
" transform="scale(0.015625)"/>
       <path id="DejaVuSans-37" d="M 525 4666 
L 3525 4666 
L 3525 4397 
L 1831 0 
L 1172 0 
L 2766 4134 
L 525 4134 
L 525 4666 
z
" transform="scale(0.015625)"/>
       <path id="DejaVuSans-4c" d="M 628 4666 
L 1259 4666 
L 1259 531 
L 3531 531 
L 3531 0 
L 628 0 
L 628 4666 
z
" transform="scale(0.015625)"/>
       <path id="DejaVuSans-73" d="M 2834 3397 
L 2834 2853 
Q 2591 2978 2328 3040 
Q 2066 3103 1784 3103 
Q 1356 3103 1142 2972 
Q 928 2841 928 2578 
Q 928 2378 1081 2264 
Q 1234 2150 1697 2047 
L 1894 2003 
Q 2506 1872 2764 1633 
Q 3022 1394 3022 966 
Q 3022 478 2636 193 
Q 2250 -91 1575 -91 
Q 1294 -91 989 -36 
Q 684 19 347 128 
L 347 722 
Q 666 556 975 473 
Q 1284 391 1588 391 
Q 1994 391 2212 530 
Q 2431 669 2431 922 
Q 2431 1156 2273 1281 
Q 2116 1406 1581 1522 
L 1381 1569 
Q 847 1681 609 1914 
Q 372 2147 372 2553 
Q 372 3047 722 3315 
Q 1072 3584 1716 3584 
Q 2034 3584 2315 3537 
Q 2597 3491 2834 3397 
z
" transform="scale(0.015625)"/>
       <path id="DejaVuSans-72" d="M 2631 2963 
Q 2534 3019 2420 3045 
Q 2306 3072 2169 3072 
Q 1681 3072 1420 2755 
Q 1159 2438 1159 1844 
L 1159 0 
L 581 0 
L 581 3500 
L 1159 3500 
L 1159 2956 
Q 1341 3275 1631 3429 
Q 1922 3584 2338 3584 
Q 2397 3584 2469 3576 
Q 2541 3569 2628 3553 
L 2631 2963 
z
" transform="scale(0.015625)"/>
       <path id="DejaVuSans-63" d="M 3122 3366 
L 3122 2828 
Q 2878 2963 2633 3030 
Q 2388 3097 2138 3097 
Q 1578 3097 1268 2742 
Q 959 2388 959 1747 
Q 959 1106 1268 751 
Q 1578 397 2138 397 
Q 2388 397 2633 464 
Q 2878 531 3122 666 
L 3122 134 
Q 2881 22 2623 -34 
Q 2366 -91 2075 -91 
Q 1284 -91 818 406 
Q 353 903 353 1747 
Q 353 2603 823 3093 
Q 1294 3584 2113 3584 
Q 2378 3584 2631 3529 
Q 2884 3475 3122 3366 
z
" transform="scale(0.015625)"/>
       <path id="DejaVuSans-6f" d="M 1959 3097 
Q 1497 3097 1228 2736 
Q 959 2375 959 1747 
Q 959 1119 1226 758 
Q 1494 397 1959 397 
Q 2419 397 2687 759 
Q 2956 1122 2956 1747 
Q 2956 2369 2687 2733 
Q 2419 3097 1959 3097 
z
M 1959 3584 
Q 2709 3584 3137 3096 
Q 3566 2609 3566 1747 
Q 3566 888 3137 398 
Q 2709 -91 1959 -91 
Q 1206 -91 779 398 
Q 353 888 353 1747 
Q 353 2609 779 3096 
Q 1206 3584 1959 3584 
z
" transform="scale(0.015625)"/>
      </defs>
      <use xlink:href="#DejaVuSans-55"/>
      <use xlink:href="#DejaVuSans-70" transform="translate(73.193359 0)"/>
      <use xlink:href="#DejaVuSans-64" transform="translate(136.669922 0)"/>
      <use xlink:href="#DejaVuSans-61" transform="translate(200.146484 0)"/>
      <use xlink:href="#DejaVuSans-74" transform="translate(261.425781 0)"/>
      <use xlink:href="#DejaVuSans-65" transform="translate(300.634766 0)"/>
      <use xlink:href="#DejaVuSans-64" transform="translate(362.158203 0)"/>
      <use xlink:href="#DejaVuSans-20" transform="translate(425.634766 0)"/>
      <use xlink:href="#DejaVuSans-32" transform="translate(457.421875 0)"/>
      <use xlink:href="#DejaVuSans-30" transform="translate(521.044922 0)"/>
      <use xlink:href="#DejaVuSans-32" transform="translate(584.667969 0)"/>
      <use xlink:href="#DejaVuSans-35" transform="translate(648.291016 0)"/>
      <use xlink:href="#DejaVuSans-2d" transform="translate(711.914062 0)"/>
      <use xlink:href="#DejaVuSans-30" transform="translate(747.998047 0)"/>
      <use xlink:href="#DejaVuSans-38" transform="translate(811.621094 0)"/>
      <use xlink:href="#DejaVuSans-2d" transform="translate(875.244141 0)"/>
      <use xlink:href="#DejaVuSans-31" transform="translate(911.328125 0)"/>
      <use xlink:href="#DejaVuSans-32" transform="translate(974.951172 0)"/>
      <use xlink:href="#DejaVuSans-20" transform="translate(1038.574219 0)"/>
      <use xlink:href="#DejaVuSans-30" transform="translate(1070.361328 0)"/>
      <use xlink:href="#DejaVuSans-35" transform="translate(1133.984375 0)"/>
      <use xlink:href="#DejaVuSans-3a" transform="translate(1197.607422 0)"/>
      <use xlink:href="#DejaVuSans-34" transform="translate(1231.298828 0)"/>
      <use xlink:href="#DejaVuSans-30" transform="translate(1294.921875 0)"/>
      <use xlink:href="#DejaVuSans-3a" transform="translate(1358.544922 0)"/>
      <use xlink:href="#DejaVuSans-32" transform="translate(1392.236328 0)"/>
      <use xlink:href="#DejaVuSans-39" transform="translate(1455.859375 0)"/>
      <use xlink:href="#DejaVuSans-2e" transform="translate(1519.482422 0)"/>
      <use xlink:href="#DejaVuSans-37" transform="translate(1551.269531 0)"/>
      <use xlink:href="#DejaVuSans-34" transform="translate(1614.892578 0)"/>
      <use xlink:href="#DejaVuSans-35" transform="translate(1678.515625 0)"/>
      <use xlink:href="#DejaVuSans-34" transform="translate(1742.138672 0)"/>
      <use xlink:href="#DejaVuSans-39" transform="translate(1805.761719 0)"/>
      <use xlink:href="#DejaVuSans-38" transform="translate(1869.384766 0)"/>
      <use xlink:href="#DejaVuSans-20" transform="translate(1933.007812 0)"/>
      <use xlink:href="#DejaVuSans-2d" transform="translate(1964.794922 0)"/>
      <use xlink:href="#DejaVuSans-20" transform="translate(2000.878906 0)"/>
      <use xlink:href="#DejaVuSans-4c" transform="translate(2032.666016 0)"/>
      <use xlink:href="#DejaVuSans-61" transform="translate(2088.378906 0)"/>
      <use xlink:href="#DejaVuSans-73" transform="translate(2149.658203 0)"/>
      <use xlink:href="#DejaVuSans-74" transform="translate(2201.757812 0)"/>
      <use xlink:href="#DejaVuSans-20" transform="translate(2240.966797 0)"/>
      <use xlink:href="#DejaVuSans-72" transform="translate(2272.753906 0)"/>
      <use xlink:href="#DejaVuSans-65" transform="translate(2311.617188 0)"/>
      <use xlink:href="#DejaVuSans-63" transform="translate(2373.140625 0)"/>
      <use xlink:href="#DejaVuSans-6f" transform="translate(2428.121094 0)"/>
      <use xlink:href="#DejaVuSans-72" transform="translate(2489.302734 0)"/>
      <use xlink:href="#DejaVuSans-64" transform="translate(2528.666016 0)"/>
      <use xlink:href="#DejaVuSans-20" transform="translate(2592.142578 0)"/>
      <use xlink:href="#DejaVuSans-32" transform="translate(2623.929688 0)"/>
      <use xlink:href="#DejaVuSans-30" transform="translate(2687.552734 0)"/>
      <use xlink:href="#DejaVuSans-32" transform="translate(2751.175781 0)"/>
      <use xlink:href="#DejaVuSans-35" transform="translate(2814.798828 0)"/>
      <use xlink:href="#DejaVuSans-2d" transform="translate(2878.421875 0)"/>
      <use xlink:href="#DejaVuSans-30" transform="translate(2914.505859 0)"/>
      <use xlink:href="#DejaVuSans-38" transform="translate(2978.128906 0)"/>
      <use xlink:href="#DejaVuSans-2d" transform="translate(3041.751953 0)"/>
      <use xlink:href="#DejaVuSans-30" transform="translate(3077.835938 0)"/>
      <use xlink:href="#DejaVuSans-39" transform="translate(3141.458984 0)"/>
     </g>
    </g>
   </g>
   <g id="matplotlib.axis_2">
    <g id="ytick_1">
     <g id="line2d_11">
      <defs>
       <path id="m68209973d4" d="M 0 0 
L -3.5 0 
" style="stroke: #000000; stroke-width: 0.8"/>
      </defs>
      <g>
       <use xlink:href="#m68209973d4" x="57.6" y="295.488" style="stroke: #000000; stroke-width: 0.8"/>
      </g>
     </g>
     <g id="text_12">
      <!-- 0 -->
      <g transform="translate(44.2375 299.287219) scale(0.1 -0.1)">
       <use xlink:href="#DejaVuSans-30"/>
      </g>
     </g>
    </g>
    <g id="ytick_2">
     <g id="line2d_12">
      <g>
       <use xlink:href="#m68209973d4" x="57.6" y="246.945852" style="stroke: #000000; stroke-width: 0.8"/>
      </g>
     </g>
     <g id="text_13">
      <!-- 10 -->
      <g transform="translate(37.875 250.74507) scale(0.1 -0.1)">
       <use xlink:href="#DejaVuSans-31"/>
       <use xlink:href="#DejaVuSans-30" transform="translate(63.623047 0)"/>
      </g>
     </g>
    </g>
    <g id="ytick_3">
     <g id="line2d_13">
      <g>
       <use xlink:href="#m68209973d4" x="57.6" y="198.403703" style="stroke: #000000; stroke-width: 0.8"/>
      </g>
     </g>
     <g id="text_14">
      <!-- 20 -->
      <g transform="translate(37.875 202.202922) scale(0.1 -0.1)">
       <use xlink:href="#DejaVuSans-32"/>
       <use xlink:href="#DejaVuSans-30" transform="translate(63.623047 0)"/>
      </g>
     </g>
    </g>
    <g id="ytick_4">
     <g id="line2d_14">
      <g>
       <use xlink:href="#m68209973d4" x="57.6" y="149.861555" style="stroke: #000000; stroke-width: 0.8"/>
      </g>
     </g>
     <g id="text_15">
      <!-- 30 -->
      <g transform="translate(37.875 153.660774) scale(0.1 -0.1)">
       <defs>
        <path id="DejaVuSans-33" d="M 2597 2516 
Q 3050 2419 3304 2112 
Q 3559 1806 3559 1356 
Q 3559 666 3084 287 
Q 2609 -91 1734 -91 
Q 1441 -91 1130 -33 
Q 819 25 488 141 
L 488 750 
Q 750 597 1062 519 
Q 1375 441 1716 441 
Q 2309 441 2620 675 
Q 2931 909 2931 1356 
Q 2931 1769 2642 2001 
Q 2353 2234 1838 2234 
L 1294 2234 
L 1294 2753 
L 1863 2753 
Q 2328 2753 2575 2939 
Q 2822 3125 2822 3475 
Q 2822 3834 2567 4026 
Q 2313 4219 1838 4219 
Q 1578 4219 1281 4162 
Q 984 4106 628 3988 
L 628 4550 
Q 988 4650 1302 4700 
Q 1616 4750 1894 4750 
Q 2613 4750 3031 4423 
Q 3450 4097 3450 3541 
Q 3450 3153 3228 2886 
Q 3006 2619 2597 2516 
z
" transform="scale(0.015625)"/>
       </defs>
       <use xlink:href="#DejaVuSans-33"/>
       <use xlink:href="#DejaVuSans-30" transform="translate(63.623047 0)"/>
      </g>
     </g>
    </g>
    <g id="ytick_5">
     <g id="line2d_15">
      <g>
       <use xlink:href="#m68209973d4" x="57.6" y="101.319406" style="stroke: #000000; stroke-width: 0.8"/>
      </g>
     </g>
     <g id="text_16">
      <!-- 40 -->
      <g transform="translate(37.875 105.118625) scale(0.1 -0.1)">
       <use xlink:href="#DejaVuSans-34"/>
       <use xlink:href="#DejaVuSans-30" transform="translate(63.623047 0)"/>
      </g>
     </g>
    </g>
    <g id="ytick_6">
     <g id="line2d_16">
      <g>
       <use xlink:href="#m68209973d4" x="57.6" y="52.777258" style="stroke: #000000; stroke-width: 0.8"/>
      </g>
     </g>
     <g id="text_17">
      <!-- 50 -->
      <g transform="translate(37.875 56.576477) scale(0.1 -0.1)">
       <use xlink:href="#DejaVuSans-35"/>
       <use xlink:href="#DejaVuSans-30" transform="translate(63.623047 0)"/>
      </g>
     </g>
    </g>
    <g id="text_18">
     <!-- IPv6 as % of total Google traffic -->
     <g transform="translate(31.795312 253.735813) rotate(-90) scale(0.1 -0.1)">
      <defs>
       <path id="DejaVuSans-49" d="M 628 4666 
L 1259 4666 
L 1259 0 
L 628 0 
L 628 4666 
z
" transform="scale(0.015625)"/>
       <path id="DejaVuSans-50" d="M 1259 4147 
L 1259 2394 
L 2053 2394 
Q 2494 2394 2734 2622 
Q 2975 2850 2975 3272 
Q 2975 3691 2734 3919 
Q 2494 4147 2053 4147 
L 1259 4147 
z
M 628 4666 
L 2053 4666 
Q 2838 4666 3239 4311 
Q 3641 3956 3641 3272 
Q 3641 2581 3239 2228 
Q 2838 1875 2053 1875 
L 1259 1875 
L 1259 0 
L 628 0 
L 628 4666 
z
" transform="scale(0.015625)"/>
       <path id="DejaVuSans-76" d="M 191 3500 
L 800 3500 
L 1894 563 
L 2988 3500 
L 3597 3500 
L 2284 0 
L 1503 0 
L 191 3500 
z
" transform="scale(0.015625)"/>
       <path id="DejaVuSans-25" d="M 4653 2053 
Q 4381 2053 4226 1822 
Q 4072 1591 4072 1178 
Q 4072 772 4226 539 
Q 4381 306 4653 306 
Q 4919 306 5073 539 
Q 5228 772 5228 1178 
Q 5228 1588 5073 1820 
Q 4919 2053 4653 2053 
z
M 4653 2450 
Q 5147 2450 5437 2106 
Q 5728 1763 5728 1178 
Q 5728 594 5436 251 
Q 5144 -91 4653 -91 
Q 4153 -91 3862 251 
Q 3572 594 3572 1178 
Q 3572 1766 3864 2108 
Q 4156 2450 4653 2450 
z
M 1428 4353 
Q 1159 4353 1004 4120 
Q 850 3888 850 3481 
Q 850 3069 1003 2837 
Q 1156 2606 1428 2606 
Q 1700 2606 1854 2837 
Q 2009 3069 2009 3481 
Q 2009 3884 1853 4118 
Q 1697 4353 1428 4353 
z
M 4250 4750 
L 4750 4750 
L 1831 -91 
L 1331 -91 
L 4250 4750 
z
M 1428 4750 
Q 1922 4750 2215 4408 
Q 2509 4066 2509 3481 
Q 2509 2891 2217 2550 
Q 1925 2209 1428 2209 
Q 931 2209 642 2551 
Q 353 2894 353 3481 
Q 353 4063 643 4406 
Q 934 4750 1428 4750 
z
" transform="scale(0.015625)"/>
       <path id="DejaVuSans-66" d="M 2375 4863 
L 2375 4384 
L 1825 4384 
Q 1516 4384 1395 4259 
Q 1275 4134 1275 3809 
L 1275 3500 
L 2222 3500 
L 2222 3053 
L 1275 3053 
L 1275 0 
L 697 0 
L 697 3053 
L 147 3053 
L 147 3500 
L 697 3500 
L 697 3744 
Q 697 4328 969 4595 
Q 1241 4863 1831 4863 
L 2375 4863 
z
" transform="scale(0.015625)"/>
       <path id="DejaVuSans-6c" d="M 603 4863 
L 1178 4863 
L 1178 0 
L 603 0 
L 603 4863 
z
" transform="scale(0.015625)"/>
       <path id="DejaVuSans-47" d="M 3809 666 
L 3809 1919 
L 2778 1919 
L 2778 2438 
L 4434 2438 
L 4434 434 
Q 4069 175 3628 42 
Q 3188 -91 2688 -91 
Q 1594 -91 976 548 
Q 359 1188 359 2328 
Q 359 3472 976 4111 
Q 1594 4750 2688 4750 
Q 3144 4750 3555 4637 
Q 3966 4525 4313 4306 
L 4313 3634 
Q 3963 3931 3569 4081 
Q 3175 4231 2741 4231 
Q 1884 4231 1454 3753 
Q 1025 3275 1025 2328 
Q 1025 1384 1454 906 
Q 1884 428 2741 428 
Q 3075 428 3337 486 
Q 3600 544 3809 666 
z
" transform="scale(0.015625)"/>
       <path id="DejaVuSans-67" d="M 2906 1791 
Q 2906 2416 2648 2759 
Q 2391 3103 1925 3103 
Q 1463 3103 1205 2759 
Q 947 2416 947 1791 
Q 947 1169 1205 825 
Q 1463 481 1925 481 
Q 2391 481 2648 825 
Q 2906 1169 2906 1791 
z
M 3481 434 
Q 3481 -459 3084 -895 
Q 2688 -1331 1869 -1331 
Q 1566 -1331 1297 -1286 
Q 1028 -1241 775 -1147 
L 775 -588 
Q 1028 -725 1275 -790 
Q 1522 -856 1778 -856 
Q 2344 -856 2625 -561 
Q 2906 -266 2906 331 
L 2906 616 
Q 2728 306 2450 153 
Q 2172 0 1784 0 
Q 1141 0 747 490 
Q 353 981 353 1791 
Q 353 2603 747 3093 
Q 1141 3584 1784 3584 
Q 2172 3584 2450 3431 
Q 2728 3278 2906 2969 
L 2906 3500 
L 3481 3500 
L 3481 434 
z
" transform="scale(0.015625)"/>
       <path id="DejaVuSans-69" d="M 603 3500 
L 1178 3500 
L 1178 0 
L 603 0 
L 603 3500 
z
M 603 4863 
L 1178 4863 
L 1178 4134 
L 603 4134 
L 603 4863 
z
" transform="scale(0.015625)"/>
      </defs>
      <use xlink:href="#DejaVuSans-49"/>
      <use xlink:href="#DejaVuSans-50" transform="translate(29.492188 0)"/>
      <use xlink:href="#DejaVuSans-76" transform="translate(89.794922 0)"/>
      <use xlink:href="#DejaVuSans-36" transform="translate(148.974609 0)"/>
      <use xlink:href="#DejaVuSans-20" transform="translate(212.597656 0)"/>
      <use xlink:href="#DejaVuSans-61" transform="translate(244.384766 0)"/>
      <use xlink:href="#DejaVuSans-73" transform="translate(305.664062 0)"/>
      <use xlink:href="#DejaVuSans-20" transform="translate(357.763672 0)"/>
      <use xlink:href="#DejaVuSans-25" transform="translate(389.550781 0)"/>
      <use xlink:href="#DejaVuSans-20" transform="translate(484.570312 0)"/>
      <use xlink:href="#DejaVuSans-6f" transform="translate(516.357422 0)"/>
      <use xlink:href="#DejaVuSans-66" transform="translate(577.539062 0)"/>
      <use xlink:href="#DejaVuSans-20" transform="translate(612.744141 0)"/>
      <use xlink:href="#DejaVuSans-74" transform="translate(644.53125 0)"/>
      <use xlink:href="#DejaVuSans-6f" transform="translate(683.740234 0)"/>
      <use xlink:href="#DejaVuSans-74" transform="translate(744.921875 0)"/>
      <use xlink:href="#DejaVuSans-61" transform="translate(784.130859 0)"/>
      <use xlink:href="#DejaVuSans-6c" transform="translate(845.410156 0)"/>
      <use xlink:href="#DejaVuSans-20" transform="translate(873.193359 0)"/>
      <use xlink:href="#DejaVuSans-47" transform="translate(904.980469 0)"/>
      <use xlink:href="#DejaVuSans-6f" transform="translate(982.470703 0)"/>
      <use xlink:href="#DejaVuSans-6f" transform="translate(1043.652344 0)"/>
      <use xlink:href="#DejaVuSans-67" transform="translate(1104.833984 0)"/>
      <use xlink:href="#DejaVuSans-6c" transform="translate(1168.310547 0)"/>
      <use xlink:href="#DejaVuSans-65" transform="translate(1196.09375 0)"/>
      <use xlink:href="#DejaVuSans-20" transform="translate(1257.617188 0)"/>
      <use xlink:href="#DejaVuSans-74" transform="translate(1289.404297 0)"/>
      <use xlink:href="#DejaVuSans-72" transform="translate(1328.613281 0)"/>
      <use xlink:href="#DejaVuSans-61" transform="translate(1369.726562 0)"/>
      <use xlink:href="#DejaVuSans-66" transform="translate(1431.005859 0)"/>
      <use xlink:href="#DejaVuSans-66" transform="translate(1466.210938 0)"/>
      <use xlink:href="#DejaVuSans-69" transform="translate(1501.416016 0)"/>
      <use xlink:href="#DejaVuSans-63" transform="translate(1529.199219 0)"/>
     </g>
    </g>
   </g>
   <g id="line2d_17">
    <path d="M 73.832727 294.603596 
L 75.303416 294.453703 
L 75.671088 294.596436 
L 77.509449 294.569612 
L 78.612466 294.465702 
L 78.980138 294.350648 
L 80.083155 294.369735 
L 83.392204 294.300848 
L 84.495221 294.326076 
L 85.96591 294.257544 
L 88.907287 294.316964 
L 89.642632 294.392025 
L 92.216337 294.34309 
L 93.687026 294.255961 
L 94.42237 294.263917 
L 94.790042 294.027595 
L 96.996075 293.94653 
L 98.099092 293.949923 
L 99.202109 294.036231 
L 100.305125 293.993246 
L 101.408142 294.036483 
L 103.246503 294.006746 
L 104.349519 294.178906 
L 105.452536 294.131325 
L 106.18788 294.207657 
L 106.923225 294.28064 
L 107.290897 294.207832 
L 109.49693 294.406753 
L 111.335291 294.327993 
L 112.438307 294.153974 
L 113.173652 294.150101 
L 116.115029 294.152707 
L 116.482702 294.175299 
L 116.850374 294.059327 
L 119.056407 294.274437 
L 121.997784 294.119471 
L 122.365457 294.124655 
L 122.733129 294.01427 
L 123.468473 294.106602 
L 124.203818 293.935219 
L 124.57149 293.977825 
L 124.939162 293.87261 
L 125.306834 293.918676 
L 126.042179 293.820771 
L 127.145195 293.806835 
L 127.512867 293.927632 
L 128.983556 293.954918 
L 129.7189 293.967888 
L 130.086573 293.933583 
L 130.821917 293.728488 
L 131.189589 293.614254 
L 133.763295 293.75088 
L 136.337 293.309191 
L 137.072344 293.443249 
L 140.013722 293.016525 
L 140.381394 293.113721 
L 142.587427 292.648847 
L 143.322772 292.664056 
L 144.425788 292.349507 
L 146.264149 291.912982 
L 147.367166 291.800763 
L 147.734838 291.89243 
L 149.573199 291.547645 
L 150.676215 291.206976 
L 151.043888 291.258518 
L 151.41156 290.952693 
L 152.146904 290.769659 
L 152.514576 290.817216 
L 153.249921 290.62729 
L 153.617593 290.770737 
L 154.352937 290.59749 
L 154.720609 290.554516 
L 155.088282 290.33144 
L 155.823626 290.182591 
L 157.294315 290.167086 
L 158.029659 289.976932 
L 159.132676 289.83682 
L 159.500348 289.653627 
L 159.86802 289.635958 
L 160.235692 289.730683 
L 161.706381 289.045826 
L 162.074053 289.061515 
L 163.544742 288.630868 
L 163.912414 288.342266 
L 165.383103 288.001587 
L 166.118447 287.687961 
L 166.48612 287.765512 
L 166.853792 287.54964 
L 167.221464 287.5117 
L 169.059825 286.497533 
L 170.162842 285.958982 
L 170.898186 285.212661 
L 171.63353 284.311617 
L 172.001203 284.524479 
L 172.368875 284.561303 
L 173.471891 283.291644 
L 173.839563 283.139402 
L 174.207236 282.497641 
L 175.310252 282.11558 
L 175.677924 281.870282 
L 176.045597 281.9148 
L 177.148613 281.213992 
L 177.516285 281.065142 
L 177.883958 280.789869 
L 178.619302 280.724643 
L 178.986974 280.101052 
L 179.354646 280.092833 
L 179.722319 279.407239 
L 180.089991 279.052172 
L 180.825335 279.154082 
L 181.193007 278.900245 
L 181.56068 278.509233 
L 182.296024 278.054063 
L 182.663696 277.647154 
L 183.031368 277.896631 
L 184.502057 277.098263 
L 184.869729 276.803064 
L 185.237401 275.589981 
L 185.605074 275.820095 
L 186.340418 274.996354 
L 186.70809 274.960987 
L 187.075762 275.317097 
L 188.178779 274.506802 
L 188.546451 273.957091 
L 189.281796 273.999473 
L 189.649468 273.404672 
L 190.01714 273.363731 
L 190.384812 270.212603 
L 190.752484 272.285882 
L 191.120156 273.520969 
L 191.487829 272.920828 
L 191.855501 272.585455 
L 192.223173 272.531408 
L 192.590845 271.742098 
L 192.958517 271.494776 
L 194.061534 269.781602 
L 194.429206 268.663002 
L 194.796878 268.024537 
L 195.164551 267.157725 
L 195.532223 266.585422 
L 195.899895 267.499413 
L 196.267567 267.359539 
L 196.635239 267.384844 
L 197.002912 267.532494 
L 197.370584 267.808194 
L 197.738256 267.703008 
L 198.105928 265.68733 
L 198.4736 265.985475 
L 199.576617 264.923344 
L 199.944289 264.780387 
L 200.679633 264.84324 
L 201.047306 263.31956 
L 201.414978 263.264067 
L 202.150322 262.061614 
L 202.517994 262.471577 
L 202.885667 260.594787 
L 203.253339 261.038395 
L 203.621011 259.771449 
L 203.988683 259.16477 
L 204.356355 258.253818 
L 204.724028 258.886419 
L 205.0917 257.928153 
L 205.459372 256.333961 
L 205.827044 257.137285 
L 206.194716 257.366293 
L 206.562389 256.871444 
L 206.930061 255.413772 
L 207.297733 255.818686 
L 207.665405 254.531708 
L 208.033077 254.828174 
L 209.136094 252.213078 
L 210.23911 251.937009 
L 210.606783 250.921682 
L 210.974455 251.045236 
L 211.342127 250.664355 
L 211.709799 249.658052 
L 212.077471 249.402647 
L 212.812816 247.506106 
L 213.180488 247.370163 
L 213.54816 247.560026 
L 213.915832 247.069221 
L 214.283505 244.978414 
L 215.018849 246.204812 
L 215.386521 245.969227 
L 216.121866 245.898632 
L 216.489538 245.94017 
L 217.224882 245.687906 
L 217.592554 244.511545 
L 217.960227 244.455858 
L 218.327899 243.412605 
L 218.695571 243.409673 
L 219.063243 243.251192 
L 220.16626 240.267399 
L 220.533932 238.509979 
L 220.901604 239.71012 
L 221.269276 239.207092 
L 221.636948 238.167344 
L 222.004621 238.398783 
L 222.372293 236.178941 
L 222.739965 236.50462 
L 223.107637 236.23243 
L 223.475309 234.683503 
L 223.842982 234.668843 
L 224.210654 233.514288 
L 224.578326 233.792284 
L 224.945998 232.879089 
L 225.31367 232.393974 
L 225.681343 232.651699 
L 226.049015 232.026403 
L 226.416687 231.050905 
L 226.784359 231.362744 
L 227.152031 230.900094 
L 227.519703 229.364963 
L 227.887376 228.722993 
L 228.255048 228.783045 
L 228.62272 226.987854 
L 228.990392 227.307096 
L 229.725737 225.168936 
L 230.093409 223.035315 
L 230.461081 223.246196 
L 231.196425 222.046448 
L 231.564098 220.70216 
L 231.93177 220.881873 
L 232.299442 220.318498 
L 232.667114 218.192973 
L 233.034786 217.447225 
L 233.402459 213.923201 
L 233.770131 216.214395 
L 234.137803 215.798991 
L 234.505475 216.345396 
L 234.873147 215.703761 
L 235.608492 216.74583 
L 235.976164 216.538089 
L 236.343836 215.624618 
L 236.711508 215.899337 
L 237.446853 214.735913 
L 237.814525 213.771885 
L 238.182197 213.619002 
L 238.549869 212.967333 
L 238.917541 210.623937 
L 239.285214 211.359287 
L 239.652886 208.216804 
L 240.020558 208.460059 
L 240.38823 206.751924 
L 240.755902 205.699088 
L 241.858919 203.762718 
L 242.226591 202.178045 
L 242.594263 199.565365 
L 242.961936 200.225126 
L 244.432624 197.249478 
L 244.800297 196.7601 
L 245.167969 196.778624 
L 245.535641 197.048241 
L 245.903313 196.122421 
L 246.270985 194.82488 
L 246.638657 195.987299 
L 247.00633 196.009736 
L 247.374002 197.045319 
L 247.741674 195.911996 
L 248.109346 194.149979 
L 248.477018 194.375758 
L 248.844691 193.615064 
L 249.947707 192.405331 
L 250.683052 191.516742 
L 251.050724 191.420488 
L 251.418396 204.304705 
L 251.786068 189.784831 
L 252.15374 189.087916 
L 252.521413 185.566902 
L 252.889085 188.83358 
L 253.624429 188.356255 
L 253.992101 188.353945 
L 254.359773 187.916789 
L 254.727446 187.701354 
L 255.095118 188.898126 
L 255.46279 189.656835 
L 255.830462 189.472395 
L 256.198134 188.44451 
L 256.565807 188.518318 
L 257.668823 187.653981 
L 258.036495 185.344783 
L 258.404168 186.25623 
L 258.77184 183.810599 
L 259.139512 184.841828 
L 259.507184 182.789048 
L 259.874856 181.507308 
L 260.242529 182.263055 
L 260.610201 180.691207 
L 260.977873 179.647522 
L 261.345545 179.425597 
L 261.713217 180.278847 
L 262.08089 180.728934 
L 263.183906 178.42377 
L 263.551578 178.953893 
L 263.91925 179.717864 
L 264.286923 179.866005 
L 264.654595 178.117629 
L 265.022267 177.466407 
L 265.389939 176.198995 
L 266.125284 175.709225 
L 266.492956 175.841856 
L 266.860628 175.674677 
L 267.595972 173.933684 
L 267.963645 174.949409 
L 268.331317 171.731812 
L 268.698989 171.814572 
L 269.066661 171.422205 
L 269.434333 169.075459 
L 269.802006 168.371336 
L 270.169678 167.948117 
L 270.53735 167.951199 
L 270.905022 166.678924 
L 271.272694 166.592194 
L 272.008039 164.580588 
L 272.375711 165.908361 
L 272.743383 166.763586 
L 273.478727 164.726923 
L 273.8464 165.725833 
L 274.214072 165.543188 
L 274.581744 165.978 
L 274.949416 164.440704 
L 275.317088 163.904323 
L 275.684761 165.066572 
L 276.052433 163.398198 
L 276.420105 163.531689 
L 276.787777 163.055787 
L 277.523122 162.871297 
L 277.890794 159.575732 
L 278.258466 159.479735 
L 278.626138 159.739829 
L 278.99381 160.536949 
L 279.729155 156.691105 
L 280.096827 154.994542 
L 280.464499 154.563925 
L 280.832171 154.711833 
L 281.199844 154.402192 
L 281.567516 152.716925 
L 281.935188 154.106687 
L 282.30286 152.626991 
L 282.670532 154.000108 
L 283.038204 153.015775 
L 283.405877 152.41994 
L 283.773549 152.370252 
L 284.141221 152.437381 
L 284.508893 151.154237 
L 284.876565 151.300029 
L 285.244238 152.688761 
L 285.61191 152.218203 
L 285.979582 152.787845 
L 286.347254 153.020668 
L 286.714926 151.240924 
L 287.082599 152.306822 
L 287.450271 152.593245 
L 287.817943 151.931795 
L 288.185615 151.527648 
L 288.553287 149.933412 
L 288.92096 150.269887 
L 289.288632 149.922907 
L 289.656304 150.037976 
L 290.023976 149.110899 
L 290.391648 148.705359 
L 290.75932 147.531915 
L 291.126993 147.019009 
L 291.494665 147.744122 
L 291.862337 147.959717 
L 292.230009 148.00822 
L 292.965354 146.339487 
L 293.333026 146.739533 
L 293.700698 145.522683 
L 294.06837 146.049341 
L 294.436042 145.821746 
L 294.803715 144.980079 
L 295.171387 145.185766 
L 295.539059 145.763952 
L 295.906731 145.500368 
L 296.274403 145.514144 
L 296.642076 143.327821 
L 297.37742 141.771234 
L 297.745092 142.02824 
L 298.112764 141.484064 
L 298.480437 139.672912 
L 298.848109 140.258792 
L 299.215781 137.659801 
L 299.583453 139.739755 
L 299.951125 138.017902 
L 300.318797 135.664151 
L 300.68647 136.352692 
L 301.054142 134.883011 
L 301.421814 133.8913 
L 301.789486 133.98617 
L 302.157158 133.242155 
L 302.524831 135.107339 
L 302.892503 133.553471 
L 303.260175 134.136112 
L 303.627847 134.477956 
L 304.730864 132.093896 
L 305.098536 134.078808 
L 305.466208 134.118579 
L 305.83388 133.241116 
L 306.201553 133.738329 
L 306.569225 134.943829 
L 306.936897 134.006272 
L 307.304569 131.824807 
L 307.672241 135.446294 
L 308.039914 134.470757 
L 308.407586 133.058734 
L 308.775258 134.243245 
L 309.14293 134.328829 
L 309.510602 132.394493 
L 309.878274 131.431179 
L 310.245947 129.665201 
L 310.613619 130.526392 
L 310.981291 129.873942 
L 311.348963 130.075178 
L 311.716635 130.62801 
L 312.084308 129.216332 
L 312.45198 128.637539 
L 312.819652 129.684079 
L 313.187324 129.423238 
L 313.554996 127.15862 
L 313.922669 126.660476 
L 314.290341 125.119234 
L 314.658013 127.650163 
L 315.025685 128.489549 
L 315.393357 127.664376 
L 315.76103 127.50657 
L 316.128702 127.635984 
L 316.496374 123.172067 
L 316.864046 126.15622 
L 317.231718 124.436639 
L 317.967063 125.306519 
L 318.334735 121.078716 
L 318.702407 120.538393 
L 319.070079 118.837714 
L 319.437751 118.770027 
L 319.805424 120.308338 
L 320.173096 118.186958 
L 320.540768 117.769962 
L 320.90844 116.674443 
L 321.276112 116.278257 
L 321.643785 115.033554 
L 322.011457 115.21965 
L 322.379129 118.237403 
L 322.746801 116.610057 
L 323.114473 115.579658 
L 323.482146 117.539338 
L 323.849818 116.455635 
L 324.21749 116.074157 
L 324.585162 114.509546 
L 325.320507 116.999719 
L 325.688179 116.726238 
L 326.055851 117.116657 
L 326.423523 116.992957 
L 326.791195 115.590041 
L 327.158867 117.212135 
L 327.52654 115.263294 
L 327.894212 114.574102 
L 328.261884 114.501896 
L 328.997228 112.075682 
L 329.364901 109.368394 
L 329.732573 111.214753 
L 330.100245 114.663308 
L 330.467917 110.778815 
L 330.835589 110.596335 
L 331.203262 113.203044 
L 331.938606 109.733576 
L 332.306278 109.687199 
L 332.67395 110.419627 
L 333.041623 110.38974 
L 333.409295 110.95062 
L 333.776967 104.356863 
L 334.144639 103.652954 
L 334.512311 103.849515 
L 334.879984 102.501922 
L 335.247656 102.059922 
L 335.615328 99.716156 
L 335.983 102.694241 
L 336.350672 103.855438 
L 336.718344 101.307747 
L 337.086017 102.986533 
L 337.453689 100.131648 
L 337.821361 98.678049 
L 338.189033 95.151631 
L 338.556705 96.100528 
L 338.924378 90.875622 
L 339.659722 94.538136 
L 340.027394 96.210632 
L 340.395066 94.687331 
L 340.762739 94.984481 
L 341.130411 95.623548 
L 341.498083 95.493436 
L 341.865755 97.35062 
L 342.233427 96.48489 
L 342.6011 95.12769 
L 342.968772 95.440734 
L 343.336444 94.049836 
L 343.704116 94.403223 
L 344.071788 92.702151 
L 344.439461 93.902977 
L 344.807133 97.143063 
L 345.174805 94.962662 
L 345.542477 91.657072 
L 345.910149 94.396534 
L 346.277821 92.805157 
L 346.645494 94.458018 
L 347.013166 92.965492 
L 347.380838 92.944269 
L 348.483855 87.198204 
L 348.851527 89.772686 
L 349.219199 89.575828 
L 349.586871 88.28716 
L 349.954543 88.666973 
L 350.322216 90.863059 
L 351.05756 88.96575 
L 351.425232 90.356308 
L 351.792904 89.573978 
L 352.160577 88.05806 
L 352.528249 88.08754 
L 353.263593 85.572183 
L 353.631265 86.669605 
L 353.998938 86.651804 
L 354.36661 84.262938 
L 354.734282 85.49354 
L 355.469626 85.287144 
L 355.837298 83.960331 
L 356.204971 85.475473 
L 356.572643 85.520063 
L 356.940315 82.853386 
L 357.307987 82.820727 
L 357.675659 81.558883 
L 358.043332 78.231358 
L 358.411004 79.661444 
L 359.146348 78.876697 
L 359.51402 78.735696 
L 359.881693 79.091724 
L 360.249365 77.858132 
L 360.617037 79.305469 
L 361.352381 75.690997 
L 361.720054 77.132708 
L 362.087726 79.088952 
L 362.455398 79.853467 
L 362.82307 76.241193 
L 363.190742 78.391149 
L 363.558414 77.276141 
L 363.926087 81.170391 
L 364.293759 78.61254 
L 364.661431 77.660172 
L 365.029103 79.825079 
L 365.396775 80.023796 
L 365.764448 81.175604 
L 366.13212 79.104578 
L 366.499792 81.311653 
L 366.867464 78.630394 
L 367.235136 78.303142 
L 367.602809 75.766771 
L 367.970481 78.953825 
L 368.338153 78.939714 
L 368.705825 78.175559 
L 369.073497 78.257114 
L 369.44117 76.874289 
L 369.808842 77.945746 
L 370.176514 75.341726 
L 370.544186 75.988269 
L 370.911858 75.98958 
L 371.279531 85.009245 
L 372.014875 85.009245 
L 372.382547 73.791902 
L 372.750219 73.740753 
L 373.117891 75.241225 
L 373.485564 74.828466 
L 373.853236 73.266778 
L 374.220908 73.653663 
L 374.58858 72.961064 
L 374.956252 70.643943 
L 375.323925 71.508183 
L 375.691597 66.814628 
L 376.059269 67.778753 
L 376.426941 66.418893 
L 376.794613 66.783983 
L 377.162286 65.569517 
L 377.529958 69.40156 
L 377.89763 66.482008 
L 378.265302 67.455875 
L 378.632974 68.107907 
L 379.000647 69.547449 
L 379.368319 68.244117 
L 379.735991 69.423269 
L 380.471335 67.240983 
L 380.839008 68.765275 
L 381.20668 69.459665 
L 381.574352 69.211668 
L 381.942024 73.268782 
L 382.309696 69.434326 
L 382.677368 69.945349 
L 383.045041 67.919379 
L 383.412713 70.205491 
L 383.780385 69.72955 
L 384.515729 69.458525 
L 384.883402 67.330563 
L 385.251074 68.713665 
L 385.618746 67.531843 
L 385.986418 67.362052 
L 386.35409 68.060525 
L 386.721763 64.845778 
L 387.089435 68.505094 
L 387.457107 70.100703 
L 388.192451 67.822018 
L 388.560124 67.257347 
L 388.927796 66.201638 
L 389.295468 65.859518 
L 389.66314 65.330481 
L 390.030812 63.089305 
L 390.398485 63.595861 
L 390.766157 62.866113 
L 391.133829 59.333895 
L 391.501501 60.355513 
L 391.869173 62.278738 
L 392.236845 61.01107 
L 392.604518 58.450724 
L 392.97219 64.650381 
L 393.339862 60.955484 
L 393.707534 63.374009 
L 394.442879 60.571661 
L 394.810551 60.410438 
L 395.178223 57.721441 
L 395.545895 59.881601 
L 395.913567 54.905458 
L 396.28124 58.599418 
L 396.648912 56.29469 
L 397.016584 54.915666 
L 397.384256 55.151595 
L 397.751928 53.925105 
L 398.119601 53.568 
L 398.487273 57.040972 
L 398.487273 57.040972 
" clip-path="url(#p65e6c8be96)" style="fill: none; stroke: #1f77b4; stroke-width: 1.5; stroke-linecap: square"/>
   </g>
   <g id="line2d_18">
    <path d="M 73.832727 294.835569 
L 75.671088 294.815458 
L 83.759876 294.589179 
L 84.862893 294.554937 
L 85.598237 294.522866 
L 89.642632 294.580024 
L 94.790042 294.50675 
L 95.157714 294.332974 
L 109.49693 294.507138 
L 111.335291 294.508162 
L 112.438307 294.355594 
L 113.908996 294.332663 
L 116.115029 294.299033 
L 116.482702 294.361618 
L 116.850374 294.262791 
L 120.527096 294.406296 
L 121.997784 294.307712 
L 123.468473 294.224647 
L 124.57149 294.053487 
L 125.674506 294.051482 
L 126.777523 293.932617 
L 127.512867 294.019823 
L 128.615884 294.081399 
L 130.454245 293.969082 
L 131.189589 293.809408 
L 132.292606 293.912191 
L 137.072344 293.587191 
L 137.440016 293.683878 
L 142.587427 293.079125 
L 144.058116 292.843793 
L 144.79346 292.850414 
L 145.896477 292.482916 
L 147.367166 292.225084 
L 147.734838 292.336547 
L 149.573199 292.14781 
L 151.779232 291.711984 
L 152.146904 291.566959 
L 152.882249 291.503418 
L 153.985265 291.266959 
L 154.720609 291.317094 
L 155.455954 291.079698 
L 156.191298 290.985298 
L 156.55897 290.768295 
L 157.661987 291.015283 
L 159.132676 290.583879 
L 159.500348 290.59967 
L 159.86802 290.443471 
L 160.971037 290.363658 
L 161.338709 290.140927 
L 163.17707 289.775463 
L 163.912414 289.638938 
L 164.647759 289.354156 
L 165.383103 289.261368 
L 166.118447 288.8807 
L 166.48612 289.008487 
L 167.589136 288.558885 
L 168.324481 288.184135 
L 168.692153 287.900168 
L 169.427497 287.702902 
L 169.795169 287.79354 
L 170.530514 287.654953 
L 171.63353 286.594491 
L 172.001203 286.339752 
L 172.368875 286.409783 
L 172.736547 286.273113 
L 173.839563 285.476852 
L 174.207236 285.342118 
L 174.94258 284.698857 
L 175.310252 284.610719 
L 175.677924 283.396714 
L 176.045597 283.51006 
L 176.413269 284.318796 
L 176.780941 284.230974 
L 177.516285 283.610406 
L 177.883958 284.171184 
L 178.25163 283.445081 
L 178.619302 283.400423 
L 178.986974 283.174731 
L 179.354646 282.646854 
L 179.722319 282.673679 
L 180.457663 281.86517 
L 180.825335 281.889553 
L 181.193007 281.708908 
L 181.56068 281.053094 
L 181.928352 281.274539 
L 182.296024 280.778156 
L 182.663696 280.927054 
L 183.031368 280.747861 
L 183.39904 280.82099 
L 183.766713 280.261692 
L 184.134385 280.28325 
L 184.502057 279.712651 
L 184.869729 279.811784 
L 185.605074 278.607458 
L 185.972746 278.369131 
L 186.340418 278.293337 
L 186.70809 278.016924 
L 187.075762 277.989526 
L 187.443435 278.095334 
L 187.811107 278.075266 
L 188.914123 277.680114 
L 189.281796 277.80877 
L 190.01714 277.4763 
L 190.384812 276.903105 
L 190.752484 275.616519 
L 191.120156 276.576892 
L 191.487829 276.893051 
L 191.855501 276.561145 
L 192.223173 276.753672 
L 192.590845 276.273358 
L 193.32619 275.652304 
L 193.693862 275.036615 
L 194.061534 274.650487 
L 194.429206 273.84158 
L 194.796878 271.44754 
L 195.164551 269.914118 
L 195.532223 272.18574 
L 195.899895 272.784784 
L 196.267567 272.801259 
L 196.635239 273.040688 
L 197.002912 273.023446 
L 197.370584 273.343883 
L 197.738256 272.682607 
L 198.105928 272.798885 
L 198.4736 271.563832 
L 198.841273 271.186422 
L 199.208945 271.400993 
L 199.944289 270.169396 
L 200.311961 270.502745 
L 200.679633 270.470605 
L 201.047306 270.073705 
L 201.414978 269.497636 
L 201.78265 269.197907 
L 202.150322 269.240391 
L 202.885667 267.454725 
L 203.253339 266.929509 
L 203.621011 266.64726 
L 203.988683 265.618472 
L 204.356355 265.262149 
L 205.459372 263.187656 
L 205.827044 263.539854 
L 206.562389 263.193457 
L 207.297733 262.528381 
L 207.665405 262.817513 
L 208.40075 262.450869 
L 209.136094 261.53349 
L 210.23911 261.064568 
L 210.606783 261.067641 
L 210.974455 260.105827 
L 211.342127 260.008947 
L 211.709799 260.035305 
L 212.077471 259.542714 
L 213.180488 257.103791 
L 213.54816 256.643748 
L 213.915832 254.423736 
L 214.283505 251.291602 
L 214.651177 255.938867 
L 215.018849 256.951534 
L 215.386521 256.668786 
L 215.754193 256.170185 
L 216.121866 256.238037 
L 216.489538 256.494825 
L 217.224882 255.445766 
L 217.960227 254.967092 
L 218.327899 254.579935 
L 218.695571 253.474416 
L 219.063243 253.217963 
L 219.430915 253.15529 
L 220.16626 252.17705 
L 220.533932 251.014237 
L 220.901604 250.289546 
L 221.269276 250.746265 
L 222.004621 249.317927 
L 222.372293 248.003949 
L 222.739965 247.621762 
L 223.107637 247.434846 
L 223.842982 245.327699 
L 224.210654 243.686678 
L 224.578326 244.405321 
L 224.945998 244.269859 
L 225.681343 242.886825 
L 226.049015 242.74414 
L 226.416687 242.845035 
L 226.784359 243.983839 
L 227.152031 243.39993 
L 227.519703 243.661242 
L 227.887376 243.04133 
L 228.255048 243.108716 
L 228.990392 241.480389 
L 229.358064 240.461354 
L 229.725737 240.657231 
L 230.461081 237.899042 
L 230.828753 238.552608 
L 231.196425 238.044673 
L 231.564098 236.842604 
L 231.93177 236.753355 
L 232.299442 235.946584 
L 232.667114 235.487235 
L 233.034786 232.283186 
L 233.402459 224.890207 
L 233.770131 230.212295 
L 234.137803 233.050065 
L 234.505475 233.349837 
L 235.24082 233.037439 
L 235.608492 233.124154 
L 235.976164 233.084432 
L 236.343836 232.201145 
L 236.711508 231.980696 
L 237.07918 232.255842 
L 237.814525 231.222458 
L 238.549869 229.367026 
L 238.917541 227.33479 
L 239.285214 228.018448 
L 239.652886 227.917203 
L 240.020558 224.231514 
L 240.38823 225.039853 
L 241.123575 222.580717 
L 241.491247 220.214603 
L 241.858919 220.129329 
L 242.226591 219.805296 
L 242.961936 215.683781 
L 243.329608 215.410338 
L 243.69728 214.801785 
L 244.064952 214.50459 
L 244.800297 212.152437 
L 245.167969 211.950807 
L 245.535641 211.881154 
L 245.903313 212.912408 
L 246.270985 213.031181 
L 247.00633 214.516362 
L 247.741674 215.002725 
L 248.109346 212.916655 
L 248.477018 212.390531 
L 248.844691 212.845507 
L 249.212363 211.916765 
L 249.580035 210.207896 
L 249.947707 211.695276 
L 250.315379 212.284889 
L 250.683052 210.52511 
L 251.050724 210.308655 
L 251.418396 209.317614 
L 251.786068 204.304705 
L 252.15374 206.311996 
L 252.521413 198.021701 
L 253.256757 207.865558 
L 253.624429 206.588244 
L 253.992101 207.93025 
L 254.359773 207.432087 
L 254.727446 207.349332 
L 255.095118 206.04963 
L 255.46279 208.243629 
L 255.830462 208.851211 
L 256.198134 208.282361 
L 256.565807 207.036327 
L 256.933479 206.611535 
L 257.301151 205.638901 
L 257.668823 205.57116 
L 258.036495 207.292805 
L 258.404168 206.308758 
L 258.77184 204.909409 
L 259.139512 202.942739 
L 259.507184 202.75575 
L 259.874856 201.94247 
L 260.242529 202.041816 
L 260.610201 199.948227 
L 260.977873 199.899932 
L 261.345545 198.459041 
L 261.713217 198.22966 
L 262.08089 197.789961 
L 262.448562 196.413252 
L 263.183906 196.42463 
L 263.91925 195.86758 
L 264.286923 196.695602 
L 264.654595 195.291875 
L 265.022267 194.544568 
L 265.389939 197.220425 
L 265.757611 197.353426 
L 266.125284 197.226818 
L 266.492956 197.307626 
L 266.860628 197.240172 
L 267.2283 195.900351 
L 267.595972 196.219855 
L 267.963645 196.760954 
L 268.331317 196.16375 
L 268.698989 193.422492 
L 269.066661 194.173779 
L 269.434333 193.799136 
L 269.802006 190.885054 
L 270.169678 192.3108 
L 271.272694 188.508823 
L 271.640367 176.622079 
L 272.008039 181.181512 
L 272.375711 188.038945 
L 272.743383 189.297517 
L 273.478727 188.081706 
L 273.8464 186.88935 
L 274.214072 187.780783 
L 274.581744 187.527835 
L 274.949416 188.465975 
L 275.317088 186.348086 
L 275.684761 188.21874 
L 276.420105 186.276273 
L 276.787777 186.248992 
L 277.155449 186.829328 
L 277.523122 184.401628 
L 277.890794 183.991132 
L 278.258466 181.958541 
L 278.626138 183.825205 
L 278.99381 185.012405 
L 279.361483 182.732458 
L 280.096827 176.374189 
L 280.464499 177.763786 
L 280.832171 176.619065 
L 281.199844 175.99389 
L 281.567516 174.509059 
L 281.935188 175.126452 
L 282.30286 175.299048 
L 282.670532 175.143908 
L 283.038204 174.650215 
L 283.405877 173.862837 
L 283.773549 171.665232 
L 284.141221 174.441877 
L 284.508893 175.227958 
L 284.876565 175.375842 
L 285.244238 176.625264 
L 285.61191 177.31864 
L 286.347254 177.061206 
L 286.714926 177.542938 
L 287.082599 177.26501 
L 287.450271 177.89516 
L 288.185615 175.352619 
L 288.553287 176.952908 
L 288.92096 176.409251 
L 289.288632 175.056114 
L 289.656304 175.205595 
L 290.023976 174.553907 
L 290.391648 172.524821 
L 290.75932 161.30708 
L 291.126993 161.008434 
L 291.494665 171.988551 
L 291.862337 173.528134 
L 292.230009 173.843337 
L 292.597681 172.783667 
L 292.965354 171.352475 
L 293.700698 169.748768 
L 294.06837 169.703352 
L 294.436042 170.235423 
L 294.803715 169.854265 
L 295.171387 161.292299 
L 295.539059 157.555471 
L 295.906731 156.100308 
L 296.274403 157.185254 
L 297.37742 153.383438 
L 297.745092 153.650289 
L 298.112764 155.663803 
L 298.480437 153.818682 
L 298.848109 153.11449 
L 299.215781 154.761958 
L 299.583453 155.66771 
L 300.318797 152.819563 
L 300.68647 150.107984 
L 301.054142 149.902874 
L 301.421814 148.431202 
L 301.789486 149.702361 
L 302.157158 149.527604 
L 302.524831 150.532121 
L 302.892503 149.569588 
L 303.260175 149.577612 
L 303.627847 150.425726 
L 303.995519 151.925484 
L 304.363192 151.208837 
L 304.730864 152.929666 
L 305.466208 153.051119 
L 305.83388 153.715287 
L 306.201553 152.505092 
L 306.569225 152.675907 
L 306.936897 151.718899 
L 307.304569 149.986764 
L 307.672241 151.962105 
L 308.039914 152.359631 
L 308.407586 152.166399 
L 308.775258 154.3863 
L 309.14293 152.526786 
L 309.878274 145.009097 
L 310.245947 139.029365 
L 310.981291 147.975649 
L 311.348963 147.313524 
L 311.716635 148.139454 
L 312.084308 147.116249 
L 312.819652 146.240136 
L 313.187324 146.370146 
L 313.554996 147.85955 
L 313.922669 147.491033 
L 314.290341 147.304888 
L 314.658013 145.554716 
L 315.025685 148.422329 
L 315.76103 145.722079 
L 316.128702 147.757966 
L 316.496374 146.575349 
L 316.864046 143.49799 
L 317.231718 143.800335 
L 317.599391 141.970131 
L 317.967063 140.897699 
L 318.334735 142.58147 
L 318.702407 142.921897 
L 319.437751 136.188586 
L 319.805424 136.073954 
L 320.173096 135.740848 
L 320.540768 135.058879 
L 320.90844 132.583026 
L 321.276112 133.889222 
L 321.643785 132.653485 
L 322.011457 132.748142 
L 322.379129 133.86781 
L 322.746801 136.607029 
L 323.114473 137.242184 
L 323.482146 137.287789 
L 323.849818 138.661906 
L 324.21749 136.665979 
L 324.952834 137.732765 
L 325.320507 137.981568 
L 325.688179 137.777647 
L 326.055851 137.375053 
L 326.423523 139.539625 
L 326.791195 138.543691 
L 327.158867 139.019943 
L 327.52654 137.604726 
L 327.894212 138.585495 
L 328.629556 136.171664 
L 328.997228 131.360409 
L 329.364901 120.09449 
L 330.100245 131.356118 
L 330.467917 131.665351 
L 330.835589 133.244092 
L 331.203262 131.749984 
L 331.570934 134.268108 
L 331.938606 133.378466 
L 332.306278 130.250275 
L 332.67395 131.963288 
L 333.041623 131.957419 
L 333.409295 134.057047 
L 333.776967 130.495233 
L 334.144639 124.467026 
L 334.512311 124.609682 
L 334.879984 134.103312 
L 335.247656 123.445651 
L 335.983 120.287178 
L 336.350672 123.652989 
L 336.718344 123.490557 
L 337.086017 122.265077 
L 337.453689 119.446486 
L 337.821361 120.031575 
L 338.556705 113.091941 
L 338.924378 113.792787 
L 339.29205 113.588876 
L 339.659722 111.355996 
L 340.027394 111.272872 
L 340.395066 112.102501 
L 340.762739 110.958901 
L 341.130411 111.725037 
L 341.498083 111.817962 
L 341.865755 114.860943 
L 342.233427 115.619724 
L 342.968772 118.359065 
L 343.336444 116.477518 
L 343.704116 117.514334 
L 344.071788 117.634393 
L 344.439461 115.034083 
L 344.807133 117.954369 
L 345.174805 118.765435 
L 345.542477 115.941219 
L 345.910149 115.177282 
L 346.277821 117.266711 
L 346.645494 114.054216 
L 347.013166 117.182136 
L 347.380838 117.458166 
L 347.74851 113.473234 
L 348.483855 100.516029 
L 348.851527 107.14727 
L 349.219199 111.665447 
L 349.586871 111.597362 
L 349.954543 112.131 
L 350.322216 111.089169 
L 350.689888 111.211039 
L 351.05756 111.870479 
L 351.792904 109.754551 
L 352.160577 112.525051 
L 352.895921 105.886737 
L 353.263593 109.280236 
L 353.631265 105.363215 
L 353.998938 107.809749 
L 354.36661 108.410623 
L 354.734282 107.230238 
L 355.101954 104.325578 
L 355.469626 108.725108 
L 355.837298 108.579458 
L 356.204971 105.445188 
L 356.572643 105.976482 
L 356.940315 105.446945 
L 357.307987 101.200512 
L 358.043332 97.01632 
L 358.411004 97.343834 
L 358.778676 97.18381 
L 359.146348 96.148891 
L 359.51402 97.42519 
L 359.881693 96.068496 
L 360.249365 96.983078 
L 360.617037 95.708861 
L 361.720054 102.080601 
L 362.087726 101.107195 
L 362.455398 102.626297 
L 362.82307 102.203675 
L 363.190742 101.585272 
L 363.558414 101.308596 
L 363.926087 103.308305 
L 364.293759 103.936998 
L 364.661431 101.406778 
L 365.029103 102.272502 
L 365.396775 104.554945 
L 365.764448 102.204956 
L 366.13212 103.769712 
L 366.499792 104.265905 
L 366.867464 102.882294 
L 367.235136 98.376243 
L 367.602809 87.213024 
L 367.970481 92.460003 
L 368.338153 99.318635 
L 368.705825 99.319504 
L 369.073497 101.680885 
L 369.44117 100.735003 
L 370.176514 97.697856 
L 370.544186 97.025635 
L 370.911858 99.301155 
L 371.279531 85.009245 
L 372.014875 85.009245 
L 372.382547 95.769787 
L 372.750219 94.582606 
L 373.117891 95.018806 
L 373.485564 99.40604 
L 373.853236 98.74077 
L 374.220908 95.317092 
L 374.58858 96.231951 
L 374.956252 95.010029 
L 375.323925 95.857269 
L 375.691597 93.092818 
L 376.059269 88.075822 
L 376.426941 88.800401 
L 376.794613 84.85306 
L 377.162286 85.661505 
L 377.529958 85.315788 
L 377.89763 85.844606 
L 378.265302 85.696024 
L 378.632974 85.04635 
L 379.000647 86.620242 
L 379.368319 86.42103 
L 379.735991 86.441151 
L 380.103663 89.87127 
L 380.471335 90.646838 
L 380.839008 91.974087 
L 381.20668 92.807725 
L 382.309696 92.324216 
L 382.677368 92.697112 
L 383.045041 92.318547 
L 383.412713 92.793269 
L 383.780385 93.861915 
L 384.148057 91.368198 
L 384.515729 92.970288 
L 384.883402 93.967188 
L 385.251074 88.806765 
L 385.618746 92.82372 
L 385.986418 91.249158 
L 386.35409 86.915344 
L 386.721763 78.270551 
L 387.089435 76.739895 
L 387.457107 89.200893 
L 387.824779 91.974975 
L 388.192451 89.687154 
L 388.560124 88.31096 
L 388.927796 89.652466 
L 389.66314 87.557474 
L 390.030812 88.22638 
L 390.398485 85.176574 
L 390.766157 86.028421 
L 391.133829 84.485528 
L 391.501501 82.131156 
L 391.869173 80.533212 
L 392.236845 82.887661 
L 392.604518 81.735125 
L 392.97219 82.999702 
L 393.339862 82.906418 
L 393.707534 86.089773 
L 394.075206 85.310221 
L 394.810551 79.602188 
L 395.178223 79.099709 
L 395.545895 80.080857 
L 395.913567 78.701105 
L 396.28124 75.114457 
L 396.648912 74.208413 
L 397.016584 75.099452 
L 397.384256 70.732975 
L 397.751928 72.400417 
L 398.119601 72.189273 
L 398.487273 72.317851 
L 398.487273 72.317851 
" clip-path="url(#p65e6c8be96)" style="fill: none; stroke: #ff7f0e; stroke-width: 1.5; stroke-linecap: square"/>
   </g>
   <g id="line2d_19">
    <path d="M 73.832727 295.256027 
L 81.921515 295.217635 
L 82.289188 295.265391 
L 83.024532 295.179869 
L 85.230565 295.251308 
L 94.42237 295.227426 
L 94.790042 295.008845 
L 95.157714 295.183146 
L 122.365457 295.307205 
L 122.733129 295.233028 
L 123.468473 295.369955 
L 126.042179 295.320102 
L 126.777523 295.337849 
L 127.145195 295.292074 
L 127.880539 295.394906 
L 128.983556 295.365795 
L 129.351228 295.420526 
L 130.454245 295.293118 
L 130.821917 295.378567 
L 131.924934 295.231125 
L 132.292606 295.349669 
L 135.233983 295.255401 
L 135.601656 295.239115 
L 135.969328 295.109357 
L 137.072344 295.344058 
L 137.807689 295.108366 
L 138.175361 295.186626 
L 138.543033 295.080338 
L 140.381394 295.269177 
L 141.484411 294.90196 
L 141.852083 295.09227 
L 142.219755 295.003423 
L 143.322772 295.173777 
L 143.690444 295.043534 
L 144.058116 295.086586 
L 144.79346 294.879505 
L 145.161133 294.928134 
L 145.896477 294.852797 
L 146.264149 294.983157 
L 146.999493 294.840652 
L 147.367166 295.063679 
L 151.043888 294.826744 
L 151.41156 294.630906 
L 151.779232 294.581184 
L 152.514576 294.746077 
L 153.249921 294.705962 
L 153.617593 294.944585 
L 155.088282 294.652109 
L 156.191298 294.684943 
L 156.55897 294.933246 
L 157.661987 294.517007 
L 158.397331 294.591543 
L 158.765004 294.536982 
L 159.132676 294.740941 
L 159.500348 294.541957 
L 160.235692 294.794177 
L 161.338709 294.445824 
L 162.441726 294.536258 
L 162.809398 294.342294 
L 163.17707 294.467435 
L 163.912414 294.191328 
L 164.280086 294.328794 
L 164.647759 294.231292 
L 165.015431 294.295984 
L 165.750775 294.251831 
L 166.48612 294.245025 
L 166.853792 294.146271 
L 167.221464 294.254622 
L 168.324481 294.09867 
L 168.692153 294.280262 
L 169.427497 294.140489 
L 169.795169 293.88324 
L 170.162842 293.765899 
L 170.530514 293.481088 
L 171.265858 293.440764 
L 171.63353 293.205126 
L 172.001203 293.672728 
L 172.368875 293.63952 
L 172.736547 293.371257 
L 173.104219 293.322515 
L 173.471891 292.957716 
L 173.839563 293.15055 
L 174.207236 292.643522 
L 174.94258 293.086591 
L 175.310252 292.992861 
L 175.677924 293.961568 
L 176.045597 293.89274 
L 176.413269 292.816017 
L 176.780941 292.697768 
L 177.148613 292.739859 
L 177.516285 292.942736 
L 177.883958 292.106685 
L 178.25163 292.807954 
L 178.619302 292.812221 
L 178.986974 292.414321 
L 179.354646 292.933979 
L 179.722319 292.22156 
L 180.089991 292.328212 
L 180.457663 292.725243 
L 181.193007 292.679337 
L 181.56068 292.944139 
L 181.928352 292.501842 
L 182.296024 292.763907 
L 182.663696 292.208099 
L 183.031368 292.63677 
L 183.39904 292.384055 
L 183.766713 292.742679 
L 184.134385 292.564612 
L 184.502057 292.873612 
L 185.237401 291.964791 
L 185.605074 292.700637 
L 185.972746 292.581194 
L 186.340418 292.191017 
L 186.70809 292.432063 
L 187.075762 292.81557 
L 187.443435 292.420204 
L 188.178779 292.080642 
L 188.546451 291.594138 
L 188.914123 291.829471 
L 189.281796 291.678703 
L 189.649468 291.26061 
L 190.01714 291.375432 
L 190.384812 288.797499 
L 190.752484 292.157363 
L 191.120156 292.432078 
L 191.487829 291.515777 
L 191.855501 291.512311 
L 192.590845 290.956741 
L 192.958517 290.99688 
L 193.32619 290.737311 
L 193.693862 290.854531 
L 194.429206 290.309422 
L 194.796878 292.064997 
L 195.164551 292.731607 
L 195.532223 289.887683 
L 195.899895 290.202629 
L 196.635239 289.832155 
L 197.002912 289.997048 
L 197.370584 289.952312 
L 197.738256 290.508401 
L 198.105928 288.376444 
L 198.4736 289.909643 
L 198.841273 289.902483 
L 199.208945 289.27944 
L 199.576617 289.603002 
L 199.944289 290.098991 
L 200.311961 289.786356 
L 200.679633 289.860635 
L 201.047306 288.733855 
L 201.414978 289.254431 
L 201.78265 288.883816 
L 202.150322 288.309223 
L 202.517994 289.637006 
L 202.885667 288.628062 
L 203.253339 289.596886 
L 203.621011 288.612189 
L 203.988683 289.034297 
L 204.356355 288.479669 
L 204.724028 289.828291 
L 205.0917 289.536233 
L 205.459372 288.634305 
L 206.194716 289.450541 
L 206.562389 289.165987 
L 206.930061 288.094939 
L 207.297733 288.778305 
L 207.665405 287.202195 
L 208.033077 287.69615 
L 208.40075 286.89686 
L 209.136094 286.167587 
L 209.871438 286.305767 
L 210.23911 286.36044 
L 210.606783 285.342041 
L 210.974455 286.427409 
L 211.342127 286.143408 
L 211.709799 285.110747 
L 212.077471 285.347934 
L 212.445144 285.115504 
L 212.812816 285.218166 
L 213.54816 286.404279 
L 213.915832 288.133486 
L 214.283505 289.174812 
L 214.651177 285.125382 
L 215.018849 284.741278 
L 215.386521 284.788442 
L 215.754193 285.223326 
L 216.121866 285.148595 
L 216.489538 284.933345 
L 217.224882 285.73014 
L 217.592554 284.739647 
L 217.960227 284.976766 
L 218.327899 284.32067 
L 218.695571 285.423256 
L 219.063243 285.521229 
L 219.430915 284.529426 
L 220.16626 283.578349 
L 220.533932 282.983742 
L 220.901604 284.908574 
L 221.269276 283.948827 
L 221.636948 283.646206 
L 222.004621 284.568856 
L 222.372293 283.662992 
L 222.739965 284.370858 
L 223.107637 284.285584 
L 223.475309 283.859811 
L 223.842982 284.829144 
L 224.210654 285.315609 
L 224.578326 284.874963 
L 224.945998 284.097231 
L 225.31367 284.437841 
L 225.681343 285.252873 
L 226.049015 284.770263 
L 226.784359 282.866906 
L 227.152031 282.988164 
L 227.519703 281.191721 
L 228.255048 281.162329 
L 228.62272 280.064378 
L 228.990392 281.314707 
L 229.358064 281.130145 
L 229.725737 279.999705 
L 230.093409 279.400991 
L 230.461081 280.835154 
L 230.828753 279.572112 
L 231.564098 279.347556 
L 232.299442 279.859914 
L 232.667114 278.193738 
L 233.034786 280.652039 
L 233.402459 284.520994 
L 234.137803 278.236926 
L 234.505475 278.483559 
L 234.873147 277.97025 
L 235.24082 278.667748 
L 235.608492 279.109675 
L 235.976164 278.941656 
L 236.343836 278.911473 
L 236.711508 279.406642 
L 237.07918 278.591959 
L 237.446853 278.501777 
L 237.814525 278.037428 
L 238.182197 278.949661 
L 238.549869 279.088307 
L 238.917541 278.777147 
L 239.285214 278.82884 
L 239.652886 275.787601 
L 240.020558 279.716544 
L 240.38823 277.200071 
L 240.755902 277.245181 
L 241.123575 277.972464 
L 241.491247 279.901335 
L 241.858919 279.121388 
L 242.226591 277.860749 
L 242.594263 277.39023 
L 242.961936 280.029345 
L 243.329608 279.539147 
L 243.69728 279.54753 
L 244.064952 278.724304 
L 244.432624 279.576306 
L 244.800297 280.095663 
L 245.535641 280.655087 
L 246.270985 277.281699 
L 246.638657 277.569214 
L 247.00633 276.981374 
L 247.374002 277.820449 
L 247.741674 276.397271 
L 248.109346 276.721324 
L 248.477018 277.473227 
L 248.844691 276.257557 
L 249.212363 276.7426 
L 249.580035 278.009011 
L 249.947707 276.198054 
L 250.315379 275.220401 
L 250.683052 276.479633 
L 251.050724 276.599833 
L 251.418396 290.475091 
L 251.786068 280.968126 
L 252.15374 278.263921 
L 252.521413 283.033201 
L 252.889085 281.805929 
L 253.256757 276.187855 
L 253.624429 277.256011 
L 253.992101 275.911694 
L 254.359773 275.972702 
L 254.727446 275.840022 
L 255.095118 278.336496 
L 255.46279 276.901207 
L 255.830462 276.109183 
L 256.198134 275.650149 
L 256.565807 276.969991 
L 256.933479 277.118243 
L 257.301151 277.784043 
L 257.668823 277.570821 
L 258.036495 273.539978 
L 258.404168 275.435472 
L 258.77184 274.389189 
L 259.139512 277.387089 
L 259.507184 275.521299 
L 259.874856 275.052838 
L 260.610201 276.23098 
L 260.977873 275.23559 
L 261.713217 277.537186 
L 262.448562 279.03528 
L 263.183906 277.487139 
L 263.91925 279.338285 
L 264.286923 278.658403 
L 264.654595 278.313754 
L 265.022267 278.409838 
L 265.389939 274.46657 
L 265.757611 274.021298 
L 266.860628 273.922505 
L 267.2283 274.399189 
L 267.595972 273.201829 
L 267.963645 273.676455 
L 268.331317 271.056062 
L 268.698989 273.880079 
L 269.066661 272.736426 
L 269.434333 270.764324 
L 269.802006 272.974283 
L 270.169678 271.125317 
L 270.53735 272.343701 
L 270.905022 272.382593 
L 271.272694 273.57137 
L 271.640367 284.301384 
L 272.375711 273.357416 
L 273.478727 272.133217 
L 273.8464 274.324483 
L 274.214072 273.250405 
L 274.581744 273.938165 
L 274.949416 271.462729 
L 275.317088 273.044237 
L 276.052433 271.760074 
L 276.420105 272.743416 
L 276.787777 272.294795 
L 277.155449 271.670261 
L 277.523122 273.957669 
L 277.890794 271.0726 
L 278.258466 273.009194 
L 278.626138 271.402624 
L 278.99381 271.012544 
L 279.361483 271.103162 
L 280.096827 274.108353 
L 280.464499 272.288139 
L 280.832171 273.580768 
L 281.199844 273.896302 
L 281.567516 273.695867 
L 281.935188 274.468235 
L 282.30286 272.815943 
L 282.670532 274.3442 
L 283.038204 273.853561 
L 283.405877 274.045103 
L 283.773549 276.19302 
L 284.508893 271.414279 
L 284.876565 271.412187 
L 285.244238 271.551498 
L 285.61191 270.387564 
L 285.979582 271.073018 
L 286.347254 271.447462 
L 286.714926 269.185985 
L 287.082599 270.529812 
L 287.450271 270.186085 
L 288.185615 271.663028 
L 288.553287 268.468503 
L 289.288632 270.354793 
L 289.656304 270.320381 
L 290.023976 270.044992 
L 290.391648 271.668538 
L 290.75932 281.712835 
L 291.126993 281.498575 
L 291.494665 271.243571 
L 291.862337 269.919583 
L 292.230009 269.652883 
L 292.597681 269.952913 
L 292.965354 270.475012 
L 293.333026 271.785714 
L 293.700698 271.261915 
L 294.06837 271.833989 
L 294.436042 271.074324 
L 294.803715 270.613814 
L 295.171387 279.381468 
L 295.539059 283.696481 
L 295.906731 284.88806 
L 296.642076 282.808354 
L 297.37742 283.875796 
L 297.745092 283.865951 
L 298.112764 281.308261 
L 298.480437 281.342231 
L 298.848109 282.632301 
L 299.215781 278.385844 
L 299.583453 279.560044 
L 299.951125 279.17879 
L 300.318797 278.332588 
L 300.68647 281.732708 
L 301.054142 280.468137 
L 301.421814 280.948097 
L 301.789486 279.77181 
L 302.157158 279.202551 
L 302.524831 280.063218 
L 302.892503 279.471882 
L 303.260175 280.0465 
L 303.627847 279.54023 
L 303.995519 277.297704 
L 304.363192 277.38006 
L 304.730864 274.652229 
L 305.098536 276.541422 
L 305.466208 276.55546 
L 305.83388 275.01383 
L 306.201553 276.721237 
L 306.569225 277.755922 
L 306.936897 277.775373 
L 307.304569 277.326043 
L 307.672241 278.972189 
L 308.407586 276.380335 
L 308.775258 275.344945 
L 309.510602 278.686349 
L 309.878274 281.910082 
L 310.245947 286.123836 
L 310.981291 277.386293 
L 311.348963 278.249654 
L 312.45198 277.511245 
L 312.819652 278.931943 
L 313.187324 278.541091 
L 313.554996 274.78707 
L 313.922669 274.657443 
L 314.290341 273.302345 
L 314.658013 277.583447 
L 315.025685 275.55522 
L 315.393357 276.25129 
L 315.76103 277.272491 
L 316.128702 275.366017 
L 316.496374 272.084719 
L 316.864046 278.14623 
L 317.231718 276.124304 
L 317.599391 278.370058 
L 317.967063 279.89682 
L 318.334735 273.985246 
L 318.702407 273.104497 
L 319.070079 274.720319 
L 319.437751 278.069441 
L 319.805424 279.722384 
L 320.173096 277.934111 
L 320.540768 278.199083 
L 320.90844 279.579418 
L 321.276112 277.877035 
L 322.011457 277.959508 
L 322.379129 279.857593 
L 322.746801 275.491028 
L 323.114473 273.825474 
L 323.482146 275.739549 
L 323.849818 273.281729 
L 324.21749 274.896178 
L 324.585162 272.817055 
L 325.320507 274.506151 
L 325.688179 274.436591 
L 326.055851 275.229604 
L 326.423523 272.941332 
L 326.791195 272.53435 
L 327.158867 273.680192 
L 327.52654 273.146568 
L 327.894212 271.476607 
L 328.261884 272.694461 
L 328.629556 272.678486 
L 328.997228 276.203272 
L 329.364901 284.761904 
L 329.732573 280.112328 
L 330.100245 278.79519 
L 330.467917 274.601464 
L 330.835589 272.840243 
L 331.203262 276.94106 
L 331.570934 272.682705 
L 331.938606 271.84311 
L 332.306278 274.924925 
L 332.67395 273.944339 
L 333.041623 273.920321 
L 333.409295 272.381573 
L 333.776967 269.349631 
L 334.144639 274.673928 
L 334.512311 274.727834 
L 334.879984 263.88661 
L 335.247656 274.102271 
L 335.615328 273.162874 
L 335.983 277.895063 
L 336.718344 273.30519 
L 337.086017 276.209457 
L 337.453689 276.173162 
L 337.821361 274.134474 
L 338.189033 274.246568 
L 338.556705 278.496588 
L 338.924378 272.570834 
L 339.29205 274.891333 
L 339.659722 278.670141 
L 340.027394 280.42576 
L 340.395066 278.07283 
L 340.762739 279.51358 
L 341.498083 279.163475 
L 341.865755 277.977677 
L 342.233427 276.353166 
L 342.6011 273.727336 
L 342.968772 272.569669 
L 343.336444 273.060319 
L 343.704116 272.376889 
L 344.071788 270.555757 
L 344.439461 274.356894 
L 344.807133 274.676695 
L 345.174805 271.685226 
L 345.542477 271.203853 
L 345.910149 274.707252 
L 346.277821 271.026446 
L 346.645494 275.891802 
L 347.013166 271.271356 
L 347.380838 270.974103 
L 347.74851 272.866296 
L 348.116182 276.790899 
L 348.483855 282.170175 
L 349.219199 273.398381 
L 349.586871 272.177798 
L 349.954543 272.023973 
L 350.322216 275.26189 
L 351.05756 272.583271 
L 351.425232 275.124957 
L 351.792904 275.307427 
L 352.160577 271.02101 
L 352.528249 274.730931 
L 352.895921 276.581561 
L 353.263593 271.779947 
L 353.631265 276.79439 
L 354.36661 271.340315 
L 355.101954 276.510044 
L 355.469626 272.050035 
L 355.837298 270.868874 
L 356.204971 275.518284 
L 356.572643 275.031581 
L 356.940315 272.894441 
L 357.307987 277.108215 
L 357.675659 277.999434 
L 358.043332 276.703038 
L 358.411004 277.80561 
L 358.778676 277.593456 
L 359.146348 278.215806 
L 359.51402 276.798506 
L 359.881693 278.511228 
L 360.249365 276.363054 
L 360.617037 279.084608 
L 361.352381 270.517317 
L 361.720054 270.540107 
L 362.087726 273.469757 
L 362.455398 272.71517 
L 362.82307 269.525518 
L 363.190742 272.293877 
L 363.558414 271.455544 
L 363.926087 273.350086 
L 364.293759 270.163542 
L 365.029103 273.040577 
L 365.396775 270.956852 
L 365.764448 274.458648 
L 366.13212 270.822866 
L 366.499792 272.533748 
L 366.867464 271.2361 
L 367.235136 275.414899 
L 367.602809 284.041747 
L 367.970481 281.981822 
L 368.338153 275.109079 
L 368.705825 274.344055 
L 369.073497 272.064229 
L 369.44117 271.627287 
L 369.808842 274.405572 
L 370.176514 273.13187 
L 370.544186 274.450634 
L 370.911858 272.176424 
L 371.279531 295.488 
L 372.014875 295.488 
L 372.382547 273.510115 
L 373.117891 275.710419 
L 373.485564 270.910426 
L 373.853236 270.014008 
L 374.220908 273.824571 
L 374.58858 272.217113 
L 374.956252 271.121914 
L 375.323925 271.138914 
L 375.691597 269.20981 
L 376.059269 275.190931 
L 376.426941 273.106492 
L 376.794613 277.418923 
L 377.162286 275.396012 
L 377.529958 279.573772 
L 377.89763 276.125401 
L 378.632974 278.549557 
L 379.000647 278.415207 
L 379.368319 277.311087 
L 379.735991 278.470118 
L 380.103663 274.064059 
L 380.471335 272.082146 
L 380.839008 272.279188 
L 381.574352 272.084937 
L 381.942024 276.374015 
L 382.309696 272.59811 
L 382.677368 272.736237 
L 383.045041 271.088833 
L 383.412713 272.900222 
L 383.780385 271.355635 
L 384.148057 273.762466 
L 384.515729 271.976237 
L 384.883402 268.851375 
L 385.251074 275.3949 
L 385.618746 270.196123 
L 385.986418 271.600894 
L 387.089435 287.253198 
L 387.457107 276.38781 
L 387.824779 272.476114 
L 388.560124 274.434387 
L 388.927796 272.037172 
L 389.66314 273.261007 
L 390.030812 270.350924 
L 390.398485 273.907287 
L 391.133829 270.336366 
L 391.869173 277.233526 
L 392.236845 273.611408 
L 392.604518 272.203598 
L 392.97219 277.13868 
L 393.339862 273.537066 
L 394.075206 272.007609 
L 394.442879 273.444821 
L 394.810551 276.29625 
L 395.178223 274.109732 
L 395.545895 275.288743 
L 395.913567 271.692352 
L 396.28124 278.972961 
L 396.648912 277.574277 
L 397.016584 275.304214 
L 397.384256 279.906621 
L 397.751928 277.012688 
L 398.119601 276.866727 
L 398.487273 280.211121 
L 398.487273 280.211121 
" clip-path="url(#p65e6c8be96)" style="fill: none; stroke: #2ca02c; stroke-width: 1.5; stroke-linecap: square"/>
   </g>
   <g id="patch_3">
    <path d="M 57.6 307.584 
L 57.6 41.472 
" style="fill: none; stroke: #000000; stroke-width: 0.8; stroke-linejoin: miter; stroke-linecap: square"/>
   </g>
   <g id="patch_4">
    <path d="M 414.72 307.584 
L 414.72 41.472 
" style="fill: none; stroke: #000000; stroke-width: 0.8; stroke-linejoin: miter; stroke-linecap: square"/>
   </g>
   <g id="patch_5">
    <path d="M 57.6 307.584 
L 414.72 307.584 
" style="fill: none; stroke: #000000; stroke-width: 0.8; stroke-linejoin: miter; stroke-linecap: square"/>
   </g>
   <g id="patch_6">
    <path d="M 57.6 41.472 
L 414.72 41.472 
" style="fill: none; stroke: #000000; stroke-width: 0.8; stroke-linejoin: miter; stroke-linecap: square"/>
   </g>
   <g id="legend_1">
    <g id="patch_7">
     <path d="M 64.6 93.506375 
L 186.25625 93.506375 
Q 188.25625 93.506375 188.25625 91.506375 
L 188.25625 48.472 
Q 188.25625 46.472 186.25625 46.472 
L 64.6 46.472 
Q 62.6 46.472 62.6 48.472 
L 62.6 91.506375 
Q 62.6 93.506375 64.6 93.506375 
z
" style="fill: #ffffff; opacity: 0.8; stroke: #cccccc; stroke-linejoin: miter"/>
    </g>
    <g id="line2d_20">
     <path d="M 66.6 54.570438 
L 76.6 54.570438 
L 86.6 54.570438 
" style="fill: none; stroke: #1f77b4; stroke-width: 1.5; stroke-linecap: square"/>
    </g>
    <g id="text_19">
     <!-- Weekly maximum -->
     <g transform="translate(94.6 58.070438) scale(0.1 -0.1)">
      <defs>
       <path id="DejaVuSans-57" d="M 213 4666 
L 850 4666 
L 1831 722 
L 2809 4666 
L 3519 4666 
L 4500 722 
L 5478 4666 
L 6119 4666 
L 4947 0 
L 4153 0 
L 3169 4050 
L 2175 0 
L 1381 0 
L 213 4666 
z
" transform="scale(0.015625)"/>
       <path id="DejaVuSans-6b" d="M 581 4863 
L 1159 4863 
L 1159 1991 
L 2875 3500 
L 3609 3500 
L 1753 1863 
L 3688 0 
L 2938 0 
L 1159 1709 
L 1159 0 
L 581 0 
L 581 4863 
z
" transform="scale(0.015625)"/>
       <path id="DejaVuSans-79" d="M 2059 -325 
Q 1816 -950 1584 -1140 
Q 1353 -1331 966 -1331 
L 506 -1331 
L 506 -850 
L 844 -850 
Q 1081 -850 1212 -737 
Q 1344 -625 1503 -206 
L 1606 56 
L 191 3500 
L 800 3500 
L 1894 763 
L 2988 3500 
L 3597 3500 
L 2059 -325 
z
" transform="scale(0.015625)"/>
       <path id="DejaVuSans-6d" d="M 3328 2828 
Q 3544 3216 3844 3400 
Q 4144 3584 4550 3584 
Q 5097 3584 5394 3201 
Q 5691 2819 5691 2113 
L 5691 0 
L 5113 0 
L 5113 2094 
Q 5113 2597 4934 2840 
Q 4756 3084 4391 3084 
Q 3944 3084 3684 2787 
Q 3425 2491 3425 1978 
L 3425 0 
L 2847 0 
L 2847 2094 
Q 2847 2600 2669 2842 
Q 2491 3084 2119 3084 
Q 1678 3084 1418 2786 
Q 1159 2488 1159 1978 
L 1159 0 
L 581 0 
L 581 3500 
L 1159 3500 
L 1159 2956 
Q 1356 3278 1631 3431 
Q 1906 3584 2284 3584 
Q 2666 3584 2933 3390 
Q 3200 3197 3328 2828 
z
" transform="scale(0.015625)"/>
       <path id="DejaVuSans-78" d="M 3513 3500 
L 2247 1797 
L 3578 0 
L 2900 0 
L 1881 1375 
L 863 0 
L 184 0 
L 1544 1831 
L 300 3500 
L 978 3500 
L 1906 2253 
L 2834 3500 
L 3513 3500 
z
" transform="scale(0.015625)"/>
       <path id="DejaVuSans-75" d="M 544 1381 
L 544 3500 
L 1119 3500 
L 1119 1403 
Q 1119 906 1312 657 
Q 1506 409 1894 409 
Q 2359 409 2629 706 
Q 2900 1003 2900 1516 
L 2900 3500 
L 3475 3500 
L 3475 0 
L 2900 0 
L 2900 538 
Q 2691 219 2414 64 
Q 2138 -91 1772 -91 
Q 1169 -91 856 284 
Q 544 659 544 1381 
z
M 1991 3584 
L 1991 3584 
z
" transform="scale(0.015625)"/>
      </defs>
      <use xlink:href="#DejaVuSans-57"/>
      <use xlink:href="#DejaVuSans-65" transform="translate(93.001953 0)"/>
      <use xlink:href="#DejaVuSans-65" transform="translate(154.525391 0)"/>
      <use xlink:href="#DejaVuSans-6b" transform="translate(216.048828 0)"/>
      <use xlink:href="#DejaVuSans-6c" transform="translate(273.958984 0)"/>
      <use xlink:href="#DejaVuSans-79" transform="translate(301.742188 0)"/>
      <use xlink:href="#DejaVuSans-20" transform="translate(360.921875 0)"/>
      <use xlink:href="#DejaVuSans-6d" transform="translate(392.708984 0)"/>
      <use xlink:href="#DejaVuSans-61" transform="translate(490.121094 0)"/>
      <use xlink:href="#DejaVuSans-78" transform="translate(551.400391 0)"/>
      <use xlink:href="#DejaVuSans-69" transform="translate(610.580078 0)"/>
      <use xlink:href="#DejaVuSans-6d" transform="translate(638.363281 0)"/>
      <use xlink:href="#DejaVuSans-75" transform="translate(735.775391 0)"/>
      <use xlink:href="#DejaVuSans-6d" transform="translate(799.154297 0)"/>
     </g>
    </g>
    <g id="line2d_21">
     <path d="M 66.6 69.248563 
L 76.6 69.248563 
L 86.6 69.248563 
" style="fill: none; stroke: #ff7f0e; stroke-width: 1.5; stroke-linecap: square"/>
    </g>
    <g id="text_20">
     <!-- Weekly minimum -->
     <g transform="translate(94.6 72.748563) scale(0.1 -0.1)">
      <defs>
       <path id="DejaVuSans-6e" d="M 3513 2113 
L 3513 0 
L 2938 0 
L 2938 2094 
Q 2938 2591 2744 2837 
Q 2550 3084 2163 3084 
Q 1697 3084 1428 2787 
Q 1159 2491 1159 1978 
L 1159 0 
L 581 0 
L 581 3500 
L 1159 3500 
L 1159 2956 
Q 1366 3272 1645 3428 
Q 1925 3584 2291 3584 
Q 2894 3584 3203 3211 
Q 3513 2838 3513 2113 
z
" transform="scale(0.015625)"/>
      </defs>
      <use xlink:href="#DejaVuSans-57"/>
      <use xlink:href="#DejaVuSans-65" transform="translate(93.001953 0)"/>
      <use xlink:href="#DejaVuSans-65" transform="translate(154.525391 0)"/>
      <use xlink:href="#DejaVuSans-6b" transform="translate(216.048828 0)"/>
      <use xlink:href="#DejaVuSans-6c" transform="translate(273.958984 0)"/>
      <use xlink:href="#DejaVuSans-79" transform="translate(301.742188 0)"/>
      <use xlink:href="#DejaVuSans-20" transform="translate(360.921875 0)"/>
      <use xlink:href="#DejaVuSans-6d" transform="translate(392.708984 0)"/>
      <use xlink:href="#DejaVuSans-69" transform="translate(490.121094 0)"/>
      <use xlink:href="#DejaVuSans-6e" transform="translate(517.904297 0)"/>
      <use xlink:href="#DejaVuSans-69" transform="translate(581.283203 0)"/>
      <use xlink:href="#DejaVuSans-6d" transform="translate(609.066406 0)"/>
      <use xlink:href="#DejaVuSans-75" transform="translate(706.478516 0)"/>
      <use xlink:href="#DejaVuSans-6d" transform="translate(769.857422 0)"/>
     </g>
    </g>
    <g id="line2d_22">
     <path d="M 66.6 83.926688 
L 76.6 83.926688 
L 86.6 83.926688 
" style="fill: none; stroke: #2ca02c; stroke-width: 1.5; stroke-linecap: square"/>
    </g>
    <g id="text_21">
     <!-- Weekly range -->
     <g transform="translate(94.6 87.426688) scale(0.1 -0.1)">
      <use xlink:href="#DejaVuSans-57"/>
      <use xlink:href="#DejaVuSans-65" transform="translate(93.001953 0)"/>
      <use xlink:href="#DejaVuSans-65" transform="translate(154.525391 0)"/>
      <use xlink:href="#DejaVuSans-6b" transform="translate(216.048828 0)"/>
      <use xlink:href="#DejaVuSans-6c" transform="translate(273.958984 0)"/>
      <use xlink:href="#DejaVuSans-79" transform="translate(301.742188 0)"/>
      <use xlink:href="#DejaVuSans-20" transform="translate(360.921875 0)"/>
      <use xlink:href="#DejaVuSans-72" transform="translate(392.708984 0)"/>
      <use xlink:href="#DejaVuSans-61" transform="translate(433.822266 0)"/>
      <use xlink:href="#DejaVuSans-6e" transform="translate(495.101562 0)"/>
      <use xlink:href="#DejaVuSans-67" transform="translate(558.480469 0)"/>
      <use xlink:href="#DejaVuSans-65" transform="translate(621.957031 0)"/>
     </g>
    </g>
   </g>
  </g>
 </g>
 <defs>
  <clipPath id="p65e6c8be96">
   <rect x="57.6" y="41.472" width="357.12" height="266.112"/>
  </clipPath>
 </defs>
</svg>
