<?xml version="1.0" encoding="utf-8" standalone="no"?>
<!DOCTYPE svg PUBLIC "-//W3C//DTD SVG 1.1//EN"
  "http://www.w3.org/Graphics/SVG/1.1/DTD/svg11.dtd">
<svg xmlns:xlink="http://www.w3.org/1999/xlink" width="460.8pt" height="345.6pt" viewBox="0 0 460.8 345.6" xmlns="http://www.w3.org/2000/svg" version="1.1">
 <metadata>
  <rdf:RDF xmlns:dc="http://purl.org/dc/elements/1.1/" xmlns:cc="http://creativecommons.org/ns#" xmlns:rdf="http://www.w3.org/1999/02/22-rdf-syntax-ns#">
   <cc:Work>
    <dc:type rdf:resource="http://purl.org/dc/dcmitype/StillImage"/>
    <dc:date>2024-12-03T05:38:49.603513</dc:date>
    <dc:format>image/svg+xml</dc:format>
    <dc:creator>
     <cc:Agent>
      <dc:title>Matplotlib v3.9.3, https://matplotlib.org/</dc:title>
     </cc:Agent>
    </dc:creator>
   </cc:Work>
  </rdf:RDF>
 </metadata>
 <defs>
  <style type="text/css">*{stroke-linejoin: round; stroke-linecap: butt}</style>
 </defs>
 <g id="figure_1">
  <g id="patch_1">
   <path d="M 0 345.6 
L 460.8 345.6 
L 460.8 0 
L 0 0 
z
" style="fill: #ffffff"/>
  </g>
  <g id="axes_1">
   <g id="patch_2">
    <path d="M 57.6 307.584 
L 414.72 307.584 
L 414.72 41.472 
L 57.6 41.472 
z
" style="fill: #ffffff"/>
   </g>
   <g id="matplotlib.axis_1">
    <g id="xtick_1">
     <g id="line2d_1">
      <defs>
       <path id="m19c755ecf4" d="M 0 0 
L 0 3.5 
" style="stroke: #000000; stroke-width: 0.8"/>
      </defs>
      <g>
       <use xlink:href="#m19c755ecf4" x="60.472007" y="307.584" style="stroke: #000000; stroke-width: 0.8"/>
      </g>
     </g>
     <g id="text_1">
      <!-- 2008 -->
      <g transform="translate(47.747007 322.182437) scale(0.1 -0.1)">
       <defs>
        <path id="DejaVuSans-32" d="M 1228 531 
L 3431 531 
L 3431 0 
L 469 0 
L 469 531 
Q 828 903 1448 1529 
Q 2069 2156 2228 2338 
Q 2531 2678 2651 2914 
Q 2772 3150 2772 3378 
Q 2772 3750 2511 3984 
Q 2250 4219 1831 4219 
Q 1534 4219 1204 4116 
Q 875 4013 500 3803 
L 500 4441 
Q 881 4594 1212 4672 
Q 1544 4750 1819 4750 
Q 2544 4750 2975 4387 
Q 3406 4025 3406 3419 
Q 3406 3131 3298 2873 
Q 3191 2616 2906 2266 
Q 2828 2175 2409 1742 
Q 1991 1309 1228 531 
z
" transform="scale(0.015625)"/>
        <path id="DejaVuSans-30" d="M 2034 4250 
Q 1547 4250 1301 3770 
Q 1056 3291 1056 2328 
Q 1056 1369 1301 889 
Q 1547 409 2034 409 
Q 2525 409 2770 889 
Q 3016 1369 3016 2328 
Q 3016 3291 2770 3770 
Q 2525 4250 2034 4250 
z
M 2034 4750 
Q 2819 4750 3233 4129 
Q 3647 3509 3647 2328 
Q 3647 1150 3233 529 
Q 2819 -91 2034 -91 
Q 1250 -91 836 529 
Q 422 1150 422 2328 
Q 422 3509 836 4129 
Q 1250 4750 2034 4750 
z
" transform="scale(0.015625)"/>
        <path id="DejaVuSans-38" d="M 2034 2216 
Q 1584 2216 1326 1975 
Q 1069 1734 1069 1313 
Q 1069 891 1326 650 
Q 1584 409 2034 409 
Q 2484 409 2743 651 
Q 3003 894 3003 1313 
Q 3003 1734 2745 1975 
Q 2488 2216 2034 2216 
z
M 1403 2484 
Q 997 2584 770 2862 
Q 544 3141 544 3541 
Q 544 4100 942 4425 
Q 1341 4750 2034 4750 
Q 2731 4750 3128 4425 
Q 3525 4100 3525 3541 
Q 3525 3141 3298 2862 
Q 3072 2584 2669 2484 
Q 3125 2378 3379 2068 
Q 3634 1759 3634 1313 
Q 3634 634 3220 271 
Q 2806 -91 2034 -91 
Q 1263 -91 848 271 
Q 434 634 434 1313 
Q 434 1759 690 2068 
Q 947 2378 1403 2484 
z
M 1172 3481 
Q 1172 3119 1398 2916 
Q 1625 2713 2034 2713 
Q 2441 2713 2670 2916 
Q 2900 3119 2900 3481 
Q 2900 3844 2670 4047 
Q 2441 4250 2034 4250 
Q 1625 4250 1398 4047 
Q 1172 3844 1172 3481 
z
" transform="scale(0.015625)"/>
       </defs>
       <use xlink:href="#DejaVuSans-32"/>
       <use xlink:href="#DejaVuSans-30" x="63.623047"/>
       <use xlink:href="#DejaVuSans-30" x="127.246094"/>
       <use xlink:href="#DejaVuSans-38" x="190.869141"/>
      </g>
     </g>
    </g>
    <g id="xtick_2">
     <g id="line2d_2">
      <g>
       <use xlink:href="#m19c755ecf4" x="100.49941" y="307.584" style="stroke: #000000; stroke-width: 0.8"/>
      </g>
     </g>
     <g id="text_2">
      <!-- 2010 -->
      <g transform="translate(87.77441 322.182437) scale(0.1 -0.1)">
       <defs>
        <path id="DejaVuSans-31" d="M 794 531 
L 1825 531 
L 1825 4091 
L 703 3866 
L 703 4441 
L 1819 4666 
L 2450 4666 
L 2450 531 
L 3481 531 
L 3481 0 
L 794 0 
L 794 531 
z
" transform="scale(0.015625)"/>
       </defs>
       <use xlink:href="#DejaVuSans-32"/>
       <use xlink:href="#DejaVuSans-30" x="63.623047"/>
       <use xlink:href="#DejaVuSans-31" x="127.246094"/>
       <use xlink:href="#DejaVuSans-30" x="190.869141"/>
      </g>
     </g>
    </g>
    <g id="xtick_3">
     <g id="line2d_3">
      <g>
       <use xlink:href="#m19c755ecf4" x="140.472056" y="307.584" style="stroke: #000000; stroke-width: 0.8"/>
      </g>
     </g>
     <g id="text_3">
      <!-- 2012 -->
      <g transform="translate(127.747056 322.182437) scale(0.1 -0.1)">
       <use xlink:href="#DejaVuSans-32"/>
       <use xlink:href="#DejaVuSans-30" x="63.623047"/>
       <use xlink:href="#DejaVuSans-31" x="127.246094"/>
       <use xlink:href="#DejaVuSans-32" x="190.869141"/>
      </g>
     </g>
    </g>
    <g id="xtick_4">
     <g id="line2d_4">
      <g>
       <use xlink:href="#m19c755ecf4" x="180.499459" y="307.584" style="stroke: #000000; stroke-width: 0.8"/>
      </g>
     </g>
     <g id="text_4">
      <!-- 2014 -->
      <g transform="translate(167.774459 322.182437) scale(0.1 -0.1)">
       <defs>
        <path id="DejaVuSans-34" d="M 2419 4116 
L 825 1625 
L 2419 1625 
L 2419 4116 
z
M 2253 4666 
L 3047 4666 
L 3047 1625 
L 3713 1625 
L 3713 1100 
L 3047 1100 
L 3047 0 
L 2419 0 
L 2419 1100 
L 313 1100 
L 313 1709 
L 2253 4666 
z
" transform="scale(0.015625)"/>
       </defs>
       <use xlink:href="#DejaVuSans-32"/>
       <use xlink:href="#DejaVuSans-30" x="63.623047"/>
       <use xlink:href="#DejaVuSans-31" x="127.246094"/>
       <use xlink:href="#DejaVuSans-34" x="190.869141"/>
      </g>
     </g>
    </g>
    <g id="xtick_5">
     <g id="line2d_5">
      <g>
       <use xlink:href="#m19c755ecf4" x="220.472105" y="307.584" style="stroke: #000000; stroke-width: 0.8"/>
      </g>
     </g>
     <g id="text_5">
      <!-- 2016 -->
      <g transform="translate(207.747105 322.182437) scale(0.1 -0.1)">
       <defs>
        <path id="DejaVuSans-36" d="M 2113 2584 
Q 1688 2584 1439 2293 
Q 1191 2003 1191 1497 
Q 1191 994 1439 701 
Q 1688 409 2113 409 
Q 2538 409 2786 701 
Q 3034 994 3034 1497 
Q 3034 2003 2786 2293 
Q 2538 2584 2113 2584 
z
M 3366 4563 
L 3366 3988 
Q 3128 4100 2886 4159 
Q 2644 4219 2406 4219 
Q 1781 4219 1451 3797 
Q 1122 3375 1075 2522 
Q 1259 2794 1537 2939 
Q 1816 3084 2150 3084 
Q 2853 3084 3261 2657 
Q 3669 2231 3669 1497 
Q 3669 778 3244 343 
Q 2819 -91 2113 -91 
Q 1303 -91 875 529 
Q 447 1150 447 2328 
Q 447 3434 972 4092 
Q 1497 4750 2381 4750 
Q 2619 4750 2861 4703 
Q 3103 4656 3366 4563 
z
" transform="scale(0.015625)"/>
       </defs>
       <use xlink:href="#DejaVuSans-32"/>
       <use xlink:href="#DejaVuSans-30" x="63.623047"/>
       <use xlink:href="#DejaVuSans-31" x="127.246094"/>
       <use xlink:href="#DejaVuSans-36" x="190.869141"/>
      </g>
     </g>
    </g>
    <g id="xtick_6">
     <g id="line2d_6">
      <g>
       <use xlink:href="#m19c755ecf4" x="260.499508" y="307.584" style="stroke: #000000; stroke-width: 0.8"/>
      </g>
     </g>
     <g id="text_6">
      <!-- 2018 -->
      <g transform="translate(247.774508 322.182437) scale(0.1 -0.1)">
       <use xlink:href="#DejaVuSans-32"/>
       <use xlink:href="#DejaVuSans-30" x="63.623047"/>
       <use xlink:href="#DejaVuSans-31" x="127.246094"/>
       <use xlink:href="#DejaVuSans-38" x="190.869141"/>
      </g>
     </g>
    </g>
    <g id="xtick_7">
     <g id="line2d_7">
      <g>
       <use xlink:href="#m19c755ecf4" x="300.472154" y="307.584" style="stroke: #000000; stroke-width: 0.8"/>
      </g>
     </g>
     <g id="text_7">
      <!-- 2020 -->
      <g transform="translate(287.747154 322.182437) scale(0.1 -0.1)">
       <use xlink:href="#DejaVuSans-32"/>
       <use xlink:href="#DejaVuSans-30" x="63.623047"/>
       <use xlink:href="#DejaVuSans-32" x="127.246094"/>
       <use xlink:href="#DejaVuSans-30" x="190.869141"/>
      </g>
     </g>
    </g>
    <g id="xtick_8">
     <g id="line2d_8">
      <g>
       <use xlink:href="#m19c755ecf4" x="340.499557" y="307.584" style="stroke: #000000; stroke-width: 0.8"/>
      </g>
     </g>
     <g id="text_8">
      <!-- 2022 -->
      <g transform="translate(327.774557 322.182437) scale(0.1 -0.1)">
       <use xlink:href="#DejaVuSans-32"/>
       <use xlink:href="#DejaVuSans-30" x="63.623047"/>
       <use xlink:href="#DejaVuSans-32" x="127.246094"/>
       <use xlink:href="#DejaVuSans-32" x="190.869141"/>
      </g>
     </g>
    </g>
    <g id="xtick_9">
     <g id="line2d_9">
      <g>
       <use xlink:href="#m19c755ecf4" x="380.472203" y="307.584" style="stroke: #000000; stroke-width: 0.8"/>
      </g>
     </g>
     <g id="text_9">
      <!-- 2024 -->
      <g transform="translate(367.747203 322.182437) scale(0.1 -0.1)">
       <use xlink:href="#DejaVuSans-32"/>
       <use xlink:href="#DejaVuSans-30" x="63.623047"/>
       <use xlink:href="#DejaVuSans-32" x="127.246094"/>
       <use xlink:href="#DejaVuSans-34" x="190.869141"/>
      </g>
     </g>
    </g>
    <g id="text_10">
     <!-- Updated 2024-12-03 05:38:49.601953 - Last record 2024-12-01 -->
     <g transform="translate(75.905312 335.860562) scale(0.1 -0.1)">
      <defs>
       <path id="DejaVuSans-55" d="M 556 4666 
L 1191 4666 
L 1191 1831 
Q 1191 1081 1462 751 
Q 1734 422 2344 422 
Q 2950 422 3222 751 
Q 3494 1081 3494 1831 
L 3494 4666 
L 4128 4666 
L 4128 1753 
Q 4128 841 3676 375 
Q 3225 -91 2344 -91 
Q 1459 -91 1007 375 
Q 556 841 556 1753 
L 556 4666 
z
" transform="scale(0.015625)"/>
       <path id="DejaVuSans-70" d="M 1159 525 
L 1159 -1331 
L 581 -1331 
L 581 3500 
L 1159 3500 
L 1159 2969 
Q 1341 3281 1617 3432 
Q 1894 3584 2278 3584 
Q 2916 3584 3314 3078 
Q 3713 2572 3713 1747 
Q 3713 922 3314 415 
Q 2916 -91 2278 -91 
Q 1894 -91 1617 61 
Q 1341 213 1159 525 
z
M 3116 1747 
Q 3116 2381 2855 2742 
Q 2594 3103 2138 3103 
Q 1681 3103 1420 2742 
Q 1159 2381 1159 1747 
Q 1159 1113 1420 752 
Q 1681 391 2138 391 
Q 2594 391 2855 752 
Q 3116 1113 3116 1747 
z
" transform="scale(0.015625)"/>
       <path id="DejaVuSans-64" d="M 2906 2969 
L 2906 4863 
L 3481 4863 
L 3481 0 
L 2906 0 
L 2906 525 
Q 2725 213 2448 61 
Q 2172 -91 1784 -91 
Q 1150 -91 751 415 
Q 353 922 353 1747 
Q 353 2572 751 3078 
Q 1150 3584 1784 3584 
Q 2172 3584 2448 3432 
Q 2725 3281 2906 2969 
z
M 947 1747 
Q 947 1113 1208 752 
Q 1469 391 1925 391 
Q 2381 391 2643 752 
Q 2906 1113 2906 1747 
Q 2906 2381 2643 2742 
Q 2381 3103 1925 3103 
Q 1469 3103 1208 2742 
Q 947 2381 947 1747 
z
" transform="scale(0.015625)"/>
       <path id="DejaVuSans-61" d="M 2194 1759 
Q 1497 1759 1228 1600 
Q 959 1441 959 1056 
Q 959 750 1161 570 
Q 1363 391 1709 391 
Q 2188 391 2477 730 
Q 2766 1069 2766 1631 
L 2766 1759 
L 2194 1759 
z
M 3341 1997 
L 3341 0 
L 2766 0 
L 2766 531 
Q 2569 213 2275 61 
Q 1981 -91 1556 -91 
Q 1019 -91 701 211 
Q 384 513 384 1019 
Q 384 1609 779 1909 
Q 1175 2209 1959 2209 
L 2766 2209 
L 2766 2266 
Q 2766 2663 2505 2880 
Q 2244 3097 1772 3097 
Q 1472 3097 1187 3025 
Q 903 2953 641 2809 
L 641 3341 
Q 956 3463 1253 3523 
Q 1550 3584 1831 3584 
Q 2591 3584 2966 3190 
Q 3341 2797 3341 1997 
z
" transform="scale(0.015625)"/>
       <path id="DejaVuSans-74" d="M 1172 4494 
L 1172 3500 
L 2356 3500 
L 2356 3053 
L 1172 3053 
L 1172 1153 
Q 1172 725 1289 603 
Q 1406 481 1766 481 
L 2356 481 
L 2356 0 
L 1766 0 
Q 1100 0 847 248 
Q 594 497 594 1153 
L 594 3053 
L 172 3053 
L 172 3500 
L 594 3500 
L 594 4494 
L 1172 4494 
z
" transform="scale(0.015625)"/>
       <path id="DejaVuSans-65" d="M 3597 1894 
L 3597 1613 
L 953 1613 
Q 991 1019 1311 708 
Q 1631 397 2203 397 
Q 2534 397 2845 478 
Q 3156 559 3463 722 
L 3463 178 
Q 3153 47 2828 -22 
Q 2503 -91 2169 -91 
Q 1331 -91 842 396 
Q 353 884 353 1716 
Q 353 2575 817 3079 
Q 1281 3584 2069 3584 
Q 2775 3584 3186 3129 
Q 3597 2675 3597 1894 
z
M 3022 2063 
Q 3016 2534 2758 2815 
Q 2500 3097 2075 3097 
Q 1594 3097 1305 2825 
Q 1016 2553 972 2059 
L 3022 2063 
z
" transform="scale(0.015625)"/>
       <path id="DejaVuSans-20" transform="scale(0.015625)"/>
       <path id="DejaVuSans-2d" d="M 313 2009 
L 1997 2009 
L 1997 1497 
L 313 1497 
L 313 2009 
z
" transform="scale(0.015625)"/>
       <path id="DejaVuSans-33" d="M 2597 2516 
Q 3050 2419 3304 2112 
Q 3559 1806 3559 1356 
Q 3559 666 3084 287 
Q 2609 -91 1734 -91 
Q 1441 -91 1130 -33 
Q 819 25 488 141 
L 488 750 
Q 750 597 1062 519 
Q 1375 441 1716 441 
Q 2309 441 2620 675 
Q 2931 909 2931 1356 
Q 2931 1769 2642 2001 
Q 2353 2234 1838 2234 
L 1294 2234 
L 1294 2753 
L 1863 2753 
Q 2328 2753 2575 2939 
Q 2822 3125 2822 3475 
Q 2822 3834 2567 4026 
Q 2313 4219 1838 4219 
Q 1578 4219 1281 4162 
Q 984 4106 628 3988 
L 628 4550 
Q 988 4650 1302 4700 
Q 1616 4750 1894 4750 
Q 2613 4750 3031 4423 
Q 3450 4097 3450 3541 
Q 3450 3153 3228 2886 
Q 3006 2619 2597 2516 
z
" transform="scale(0.015625)"/>
       <path id="DejaVuSans-35" d="M 691 4666 
L 3169 4666 
L 3169 4134 
L 1269 4134 
L 1269 2991 
Q 1406 3038 1543 3061 
Q 1681 3084 1819 3084 
Q 2600 3084 3056 2656 
Q 3513 2228 3513 1497 
Q 3513 744 3044 326 
Q 2575 -91 1722 -91 
Q 1428 -91 1123 -41 
Q 819 9 494 109 
L 494 744 
Q 775 591 1075 516 
Q 1375 441 1709 441 
Q 2250 441 2565 725 
Q 2881 1009 2881 1497 
Q 2881 1984 2565 2268 
Q 2250 2553 1709 2553 
Q 1456 2553 1204 2497 
Q 953 2441 691 2322 
L 691 4666 
z
" transform="scale(0.015625)"/>
       <path id="DejaVuSans-3a" d="M 750 794 
L 1409 794 
L 1409 0 
L 750 0 
L 750 794 
z
M 750 3309 
L 1409 3309 
L 1409 2516 
L 750 2516 
L 750 3309 
z
" transform="scale(0.015625)"/>
       <path id="DejaVuSans-39" d="M 703 97 
L 703 672 
Q 941 559 1184 500 
Q 1428 441 1663 441 
Q 2288 441 2617 861 
Q 2947 1281 2994 2138 
Q 2813 1869 2534 1725 
Q 2256 1581 1919 1581 
Q 1219 1581 811 2004 
Q 403 2428 403 3163 
Q 403 3881 828 4315 
Q 1253 4750 1959 4750 
Q 2769 4750 3195 4129 
Q 3622 3509 3622 2328 
Q 3622 1225 3098 567 
Q 2575 -91 1691 -91 
Q 1453 -91 1209 -44 
Q 966 3 703 97 
z
M 1959 2075 
Q 2384 2075 2632 2365 
Q 2881 2656 2881 3163 
Q 2881 3666 2632 3958 
Q 2384 4250 1959 4250 
Q 1534 4250 1286 3958 
Q 1038 3666 1038 3163 
Q 1038 2656 1286 2365 
Q 1534 2075 1959 2075 
z
" transform="scale(0.015625)"/>
       <path id="DejaVuSans-2e" d="M 684 794 
L 1344 794 
L 1344 0 
L 684 0 
L 684 794 
z
" transform="scale(0.015625)"/>
       <path id="DejaVuSans-4c" d="M 628 4666 
L 1259 4666 
L 1259 531 
L 3531 531 
L 3531 0 
L 628 0 
L 628 4666 
z
" transform="scale(0.015625)"/>
       <path id="DejaVuSans-73" d="M 2834 3397 
L 2834 2853 
Q 2591 2978 2328 3040 
Q 2066 3103 1784 3103 
Q 1356 3103 1142 2972 
Q 928 2841 928 2578 
Q 928 2378 1081 2264 
Q 1234 2150 1697 2047 
L 1894 2003 
Q 2506 1872 2764 1633 
Q 3022 1394 3022 966 
Q 3022 478 2636 193 
Q 2250 -91 1575 -91 
Q 1294 -91 989 -36 
Q 684 19 347 128 
L 347 722 
Q 666 556 975 473 
Q 1284 391 1588 391 
Q 1994 391 2212 530 
Q 2431 669 2431 922 
Q 2431 1156 2273 1281 
Q 2116 1406 1581 1522 
L 1381 1569 
Q 847 1681 609 1914 
Q 372 2147 372 2553 
Q 372 3047 722 3315 
Q 1072 3584 1716 3584 
Q 2034 3584 2315 3537 
Q 2597 3491 2834 3397 
z
" transform="scale(0.015625)"/>
       <path id="DejaVuSans-72" d="M 2631 2963 
Q 2534 3019 2420 3045 
Q 2306 3072 2169 3072 
Q 1681 3072 1420 2755 
Q 1159 2438 1159 1844 
L 1159 0 
L 581 0 
L 581 3500 
L 1159 3500 
L 1159 2956 
Q 1341 3275 1631 3429 
Q 1922 3584 2338 3584 
Q 2397 3584 2469 3576 
Q 2541 3569 2628 3553 
L 2631 2963 
z
" transform="scale(0.015625)"/>
       <path id="DejaVuSans-63" d="M 3122 3366 
L 3122 2828 
Q 2878 2963 2633 3030 
Q 2388 3097 2138 3097 
Q 1578 3097 1268 2742 
Q 959 2388 959 1747 
Q 959 1106 1268 751 
Q 1578 397 2138 397 
Q 2388 397 2633 464 
Q 2878 531 3122 666 
L 3122 134 
Q 2881 22 2623 -34 
Q 2366 -91 2075 -91 
Q 1284 -91 818 406 
Q 353 903 353 1747 
Q 353 2603 823 3093 
Q 1294 3584 2113 3584 
Q 2378 3584 2631 3529 
Q 2884 3475 3122 3366 
z
" transform="scale(0.015625)"/>
       <path id="DejaVuSans-6f" d="M 1959 3097 
Q 1497 3097 1228 2736 
Q 959 2375 959 1747 
Q 959 1119 1226 758 
Q 1494 397 1959 397 
Q 2419 397 2687 759 
Q 2956 1122 2956 1747 
Q 2956 2369 2687 2733 
Q 2419 3097 1959 3097 
z
M 1959 3584 
Q 2709 3584 3137 3096 
Q 3566 2609 3566 1747 
Q 3566 888 3137 398 
Q 2709 -91 1959 -91 
Q 1206 -91 779 398 
Q 353 888 353 1747 
Q 353 2609 779 3096 
Q 1206 3584 1959 3584 
z
" transform="scale(0.015625)"/>
      </defs>
      <use xlink:href="#DejaVuSans-55"/>
      <use xlink:href="#DejaVuSans-70" x="73.193359"/>
      <use xlink:href="#DejaVuSans-64" x="136.669922"/>
      <use xlink:href="#DejaVuSans-61" x="200.146484"/>
      <use xlink:href="#DejaVuSans-74" x="261.425781"/>
      <use xlink:href="#DejaVuSans-65" x="300.634766"/>
      <use xlink:href="#DejaVuSans-64" x="362.158203"/>
      <use xlink:href="#DejaVuSans-20" x="425.634766"/>
      <use xlink:href="#DejaVuSans-32" x="457.421875"/>
      <use xlink:href="#DejaVuSans-30" x="521.044922"/>
      <use xlink:href="#DejaVuSans-32" x="584.667969"/>
      <use xlink:href="#DejaVuSans-34" x="648.291016"/>
      <use xlink:href="#DejaVuSans-2d" x="711.914062"/>
      <use xlink:href="#DejaVuSans-31" x="747.998047"/>
      <use xlink:href="#DejaVuSans-32" x="811.621094"/>
      <use xlink:href="#DejaVuSans-2d" x="875.244141"/>
      <use xlink:href="#DejaVuSans-30" x="911.328125"/>
      <use xlink:href="#DejaVuSans-33" x="974.951172"/>
      <use xlink:href="#DejaVuSans-20" x="1038.574219"/>
      <use xlink:href="#DejaVuSans-30" x="1070.361328"/>
      <use xlink:href="#DejaVuSans-35" x="1133.984375"/>
      <use xlink:href="#DejaVuSans-3a" x="1197.607422"/>
      <use xlink:href="#DejaVuSans-33" x="1231.298828"/>
      <use xlink:href="#DejaVuSans-38" x="1294.921875"/>
      <use xlink:href="#DejaVuSans-3a" x="1358.544922"/>
      <use xlink:href="#DejaVuSans-34" x="1392.236328"/>
      <use xlink:href="#DejaVuSans-39" x="1455.859375"/>
      <use xlink:href="#DejaVuSans-2e" x="1519.482422"/>
      <use xlink:href="#DejaVuSans-36" x="1551.269531"/>
      <use xlink:href="#DejaVuSans-30" x="1614.892578"/>
      <use xlink:href="#DejaVuSans-31" x="1678.515625"/>
      <use xlink:href="#DejaVuSans-39" x="1742.138672"/>
      <use xlink:href="#DejaVuSans-35" x="1805.761719"/>
      <use xlink:href="#DejaVuSans-33" x="1869.384766"/>
      <use xlink:href="#DejaVuSans-20" x="1933.007812"/>
      <use xlink:href="#DejaVuSans-2d" x="1964.794922"/>
      <use xlink:href="#DejaVuSans-20" x="2000.878906"/>
      <use xlink:href="#DejaVuSans-4c" x="2032.666016"/>
      <use xlink:href="#DejaVuSans-61" x="2088.378906"/>
      <use xlink:href="#DejaVuSans-73" x="2149.658203"/>
      <use xlink:href="#DejaVuSans-74" x="2201.757812"/>
      <use xlink:href="#DejaVuSans-20" x="2240.966797"/>
      <use xlink:href="#DejaVuSans-72" x="2272.753906"/>
      <use xlink:href="#DejaVuSans-65" x="2311.617188"/>
      <use xlink:href="#DejaVuSans-63" x="2373.140625"/>
      <use xlink:href="#DejaVuSans-6f" x="2428.121094"/>
      <use xlink:href="#DejaVuSans-72" x="2489.302734"/>
      <use xlink:href="#DejaVuSans-64" x="2528.666016"/>
      <use xlink:href="#DejaVuSans-20" x="2592.142578"/>
      <use xlink:href="#DejaVuSans-32" x="2623.929688"/>
      <use xlink:href="#DejaVuSans-30" x="2687.552734"/>
      <use xlink:href="#DejaVuSans-32" x="2751.175781"/>
      <use xlink:href="#DejaVuSans-34" x="2814.798828"/>
      <use xlink:href="#DejaVuSans-2d" x="2878.421875"/>
      <use xlink:href="#DejaVuSans-31" x="2914.505859"/>
      <use xlink:href="#DejaVuSans-32" x="2978.128906"/>
      <use xlink:href="#DejaVuSans-2d" x="3041.751953"/>
      <use xlink:href="#DejaVuSans-30" x="3077.835938"/>
      <use xlink:href="#DejaVuSans-31" x="3141.458984"/>
     </g>
    </g>
   </g>
   <g id="matplotlib.axis_2">
    <g id="ytick_1">
     <g id="line2d_10">
      <defs>
       <path id="m917fdd7bfd" d="M 0 0 
L -3.5 0 
" style="stroke: #000000; stroke-width: 0.8"/>
      </defs>
      <g>
       <use xlink:href="#m917fdd7bfd" x="57.6" y="295.488" style="stroke: #000000; stroke-width: 0.8"/>
      </g>
     </g>
     <g id="text_11">
      <!-- 0 -->
      <g transform="translate(44.2375 299.287219) scale(0.1 -0.1)">
       <use xlink:href="#DejaVuSans-30"/>
      </g>
     </g>
    </g>
    <g id="ytick_2">
     <g id="line2d_11">
      <g>
       <use xlink:href="#m917fdd7bfd" x="57.6" y="244.412" style="stroke: #000000; stroke-width: 0.8"/>
      </g>
     </g>
     <g id="text_12">
      <!-- 10 -->
      <g transform="translate(37.875 248.211218) scale(0.1 -0.1)">
       <use xlink:href="#DejaVuSans-31"/>
       <use xlink:href="#DejaVuSans-30" x="63.623047"/>
      </g>
     </g>
    </g>
    <g id="ytick_3">
     <g id="line2d_12">
      <g>
       <use xlink:href="#m917fdd7bfd" x="57.6" y="193.335999" style="stroke: #000000; stroke-width: 0.8"/>
      </g>
     </g>
     <g id="text_13">
      <!-- 20 -->
      <g transform="translate(37.875 197.135218) scale(0.1 -0.1)">
       <use xlink:href="#DejaVuSans-32"/>
       <use xlink:href="#DejaVuSans-30" x="63.623047"/>
      </g>
     </g>
    </g>
    <g id="ytick_4">
     <g id="line2d_13">
      <g>
       <use xlink:href="#m917fdd7bfd" x="57.6" y="142.259999" style="stroke: #000000; stroke-width: 0.8"/>
      </g>
     </g>
     <g id="text_14">
      <!-- 30 -->
      <g transform="translate(37.875 146.059217) scale(0.1 -0.1)">
       <use xlink:href="#DejaVuSans-33"/>
       <use xlink:href="#DejaVuSans-30" x="63.623047"/>
      </g>
     </g>
    </g>
    <g id="ytick_5">
     <g id="line2d_14">
      <g>
       <use xlink:href="#m917fdd7bfd" x="57.6" y="91.183998" style="stroke: #000000; stroke-width: 0.8"/>
      </g>
     </g>
     <g id="text_15">
      <!-- 40 -->
      <g transform="translate(37.875 94.983217) scale(0.1 -0.1)">
       <use xlink:href="#DejaVuSans-34"/>
       <use xlink:href="#DejaVuSans-30" x="63.623047"/>
      </g>
     </g>
    </g>
    <g id="text_16">
     <!-- IPv6 as % of total Google traffic -->
     <g transform="translate(31.795312 253.735813) rotate(-90) scale(0.1 -0.1)">
      <defs>
       <path id="DejaVuSans-49" d="M 628 4666 
L 1259 4666 
L 1259 0 
L 628 0 
L 628 4666 
z
" transform="scale(0.015625)"/>
       <path id="DejaVuSans-50" d="M 1259 4147 
L 1259 2394 
L 2053 2394 
Q 2494 2394 2734 2622 
Q 2975 2850 2975 3272 
Q 2975 3691 2734 3919 
Q 2494 4147 2053 4147 
L 1259 4147 
z
M 628 4666 
L 2053 4666 
Q 2838 4666 3239 4311 
Q 3641 3956 3641 3272 
Q 3641 2581 3239 2228 
Q 2838 1875 2053 1875 
L 1259 1875 
L 1259 0 
L 628 0 
L 628 4666 
z
" transform="scale(0.015625)"/>
       <path id="DejaVuSans-76" d="M 191 3500 
L 800 3500 
L 1894 563 
L 2988 3500 
L 3597 3500 
L 2284 0 
L 1503 0 
L 191 3500 
z
" transform="scale(0.015625)"/>
       <path id="DejaVuSans-25" d="M 4653 2053 
Q 4381 2053 4226 1822 
Q 4072 1591 4072 1178 
Q 4072 772 4226 539 
Q 4381 306 4653 306 
Q 4919 306 5073 539 
Q 5228 772 5228 1178 
Q 5228 1588 5073 1820 
Q 4919 2053 4653 2053 
z
M 4653 2450 
Q 5147 2450 5437 2106 
Q 5728 1763 5728 1178 
Q 5728 594 5436 251 
Q 5144 -91 4653 -91 
Q 4153 -91 3862 251 
Q 3572 594 3572 1178 
Q 3572 1766 3864 2108 
Q 4156 2450 4653 2450 
z
M 1428 4353 
Q 1159 4353 1004 4120 
Q 850 3888 850 3481 
Q 850 3069 1003 2837 
Q 1156 2606 1428 2606 
Q 1700 2606 1854 2837 
Q 2009 3069 2009 3481 
Q 2009 3884 1853 4118 
Q 1697 4353 1428 4353 
z
M 4250 4750 
L 4750 4750 
L 1831 -91 
L 1331 -91 
L 4250 4750 
z
M 1428 4750 
Q 1922 4750 2215 4408 
Q 2509 4066 2509 3481 
Q 2509 2891 2217 2550 
Q 1925 2209 1428 2209 
Q 931 2209 642 2551 
Q 353 2894 353 3481 
Q 353 4063 643 4406 
Q 934 4750 1428 4750 
z
" transform="scale(0.015625)"/>
       <path id="DejaVuSans-66" d="M 2375 4863 
L 2375 4384 
L 1825 4384 
Q 1516 4384 1395 4259 
Q 1275 4134 1275 3809 
L 1275 3500 
L 2222 3500 
L 2222 3053 
L 1275 3053 
L 1275 0 
L 697 0 
L 697 3053 
L 147 3053 
L 147 3500 
L 697 3500 
L 697 3744 
Q 697 4328 969 4595 
Q 1241 4863 1831 4863 
L 2375 4863 
z
" transform="scale(0.015625)"/>
       <path id="DejaVuSans-6c" d="M 603 4863 
L 1178 4863 
L 1178 0 
L 603 0 
L 603 4863 
z
" transform="scale(0.015625)"/>
       <path id="DejaVuSans-47" d="M 3809 666 
L 3809 1919 
L 2778 1919 
L 2778 2438 
L 4434 2438 
L 4434 434 
Q 4069 175 3628 42 
Q 3188 -91 2688 -91 
Q 1594 -91 976 548 
Q 359 1188 359 2328 
Q 359 3472 976 4111 
Q 1594 4750 2688 4750 
Q 3144 4750 3555 4637 
Q 3966 4525 4313 4306 
L 4313 3634 
Q 3963 3931 3569 4081 
Q 3175 4231 2741 4231 
Q 1884 4231 1454 3753 
Q 1025 3275 1025 2328 
Q 1025 1384 1454 906 
Q 1884 428 2741 428 
Q 3075 428 3337 486 
Q 3600 544 3809 666 
z
" transform="scale(0.015625)"/>
       <path id="DejaVuSans-67" d="M 2906 1791 
Q 2906 2416 2648 2759 
Q 2391 3103 1925 3103 
Q 1463 3103 1205 2759 
Q 947 2416 947 1791 
Q 947 1169 1205 825 
Q 1463 481 1925 481 
Q 2391 481 2648 825 
Q 2906 1169 2906 1791 
z
M 3481 434 
Q 3481 -459 3084 -895 
Q 2688 -1331 1869 -1331 
Q 1566 -1331 1297 -1286 
Q 1028 -1241 775 -1147 
L 775 -588 
Q 1028 -725 1275 -790 
Q 1522 -856 1778 -856 
Q 2344 -856 2625 -561 
Q 2906 -266 2906 331 
L 2906 616 
Q 2728 306 2450 153 
Q 2172 0 1784 0 
Q 1141 0 747 490 
Q 353 981 353 1791 
Q 353 2603 747 3093 
Q 1141 3584 1784 3584 
Q 2172 3584 2450 3431 
Q 2728 3278 2906 2969 
L 2906 3500 
L 3481 3500 
L 3481 434 
z
" transform="scale(0.015625)"/>
       <path id="DejaVuSans-69" d="M 603 3500 
L 1178 3500 
L 1178 0 
L 603 0 
L 603 3500 
z
M 603 4863 
L 1178 4863 
L 1178 4134 
L 603 4134 
L 603 4863 
z
" transform="scale(0.015625)"/>
      </defs>
      <use xlink:href="#DejaVuSans-49"/>
      <use xlink:href="#DejaVuSans-50" x="29.492188"/>
      <use xlink:href="#DejaVuSans-76" x="89.794922"/>
      <use xlink:href="#DejaVuSans-36" x="148.974609"/>
      <use xlink:href="#DejaVuSans-20" x="212.597656"/>
      <use xlink:href="#DejaVuSans-61" x="244.384766"/>
      <use xlink:href="#DejaVuSans-73" x="305.664062"/>
      <use xlink:href="#DejaVuSans-20" x="357.763672"/>
      <use xlink:href="#DejaVuSans-25" x="389.550781"/>
      <use xlink:href="#DejaVuSans-20" x="484.570312"/>
      <use xlink:href="#DejaVuSans-6f" x="516.357422"/>
      <use xlink:href="#DejaVuSans-66" x="577.539062"/>
      <use xlink:href="#DejaVuSans-20" x="612.744141"/>
      <use xlink:href="#DejaVuSans-74" x="644.53125"/>
      <use xlink:href="#DejaVuSans-6f" x="683.740234"/>
      <use xlink:href="#DejaVuSans-74" x="744.921875"/>
      <use xlink:href="#DejaVuSans-61" x="784.130859"/>
      <use xlink:href="#DejaVuSans-6c" x="845.410156"/>
      <use xlink:href="#DejaVuSans-20" x="873.193359"/>
      <use xlink:href="#DejaVuSans-47" x="904.980469"/>
      <use xlink:href="#DejaVuSans-6f" x="982.470703"/>
      <use xlink:href="#DejaVuSans-6f" x="1043.652344"/>
      <use xlink:href="#DejaVuSans-67" x="1104.833984"/>
      <use xlink:href="#DejaVuSans-6c" x="1168.310547"/>
      <use xlink:href="#DejaVuSans-65" x="1196.09375"/>
      <use xlink:href="#DejaVuSans-20" x="1257.617188"/>
      <use xlink:href="#DejaVuSans-74" x="1289.404297"/>
      <use xlink:href="#DejaVuSans-72" x="1328.613281"/>
      <use xlink:href="#DejaVuSans-61" x="1369.726562"/>
      <use xlink:href="#DejaVuSans-66" x="1431.005859"/>
      <use xlink:href="#DejaVuSans-66" x="1466.210938"/>
      <use xlink:href="#DejaVuSans-69" x="1501.416016"/>
      <use xlink:href="#DejaVuSans-63" x="1529.199219"/>
     </g>
    </g>
   </g>
   <g id="line2d_15">
    <path d="M 73.832727 294.557431 
L 75.365925 294.399713 
L 75.749224 294.549897 
L 77.282421 294.549238 
L 78.815619 294.412339 
L 79.198918 294.291279 
L 80.348816 294.311362 
L 83.79851 294.23888 
L 84.948408 294.265424 
L 86.481606 294.193315 
L 89.548 294.255837 
L 89.9313 294.354097 
L 92.231096 294.346216 
L 92.997695 294.283327 
L 94.530892 294.19165 
L 95.297491 294.200022 
L 95.68079 293.951363 
L 97.980586 293.866066 
L 99.130484 293.869636 
L 100.280382 293.96045 
L 101.43028 293.915222 
L 102.580178 293.960715 
L 104.496675 293.929426 
L 105.646573 294.110572 
L 106.796471 294.060508 
L 107.56307 294.140825 
L 108.329668 294.217617 
L 108.712968 294.141008 
L 111.012764 294.350313 
L 112.92926 294.267442 
L 113.695859 294.167072 
L 114.079159 294.08434 
L 114.845757 294.080264 
L 117.912152 294.083006 
L 118.295451 294.106777 
L 118.678751 293.984752 
L 120.978547 294.21109 
L 124.044942 294.048035 
L 124.428241 294.05349 
L 124.81154 293.937343 
L 125.578139 294.034495 
L 126.344738 293.854166 
L 126.728037 293.898995 
L 127.111336 293.788288 
L 127.494636 293.836759 
L 128.261234 293.733744 
L 129.411132 293.71908 
L 129.794432 293.846182 
L 131.327629 293.874892 
L 132.094228 293.88854 
L 132.477527 293.852444 
L 133.244126 293.636643 
L 133.627425 293.516446 
L 136.310521 293.660204 
L 138.993616 293.195459 
L 139.760215 293.336515 
L 142.826609 292.887517 
L 143.209909 292.989786 
L 145.509705 292.500646 
L 146.276304 292.516649 
L 147.426202 292.185681 
L 149.342698 291.72637 
L 150.492596 291.608293 
L 150.875896 291.704744 
L 152.792392 291.341962 
L 153.94229 290.98351 
L 154.32559 291.037743 
L 154.708889 290.715954 
L 155.475488 290.523367 
L 155.858787 290.573406 
L 156.625386 290.373566 
L 157.008685 290.524501 
L 157.775284 290.34221 
L 158.158583 290.296993 
L 158.541883 290.062273 
L 159.308481 289.905654 
L 160.841679 289.88934 
L 161.608277 289.68926 
L 162.758175 289.541834 
L 163.141475 289.349078 
L 163.524774 289.330487 
L 163.908073 289.430157 
L 165.441271 288.709551 
L 165.82457 288.726059 
L 167.357768 288.272933 
L 167.741067 287.969265 
L 168.124366 287.899593 
L 168.507666 287.711669 
L 168.890965 287.742273 
L 170.040863 287.280807 
L 170.424162 287.362406 
L 170.807462 287.135266 
L 171.190761 287.095345 
L 173.107258 286.028239 
L 174.257156 285.461577 
L 175.023754 284.676299 
L 175.790353 283.728221 
L 176.173652 283.952194 
L 176.556952 283.99094 
L 177.70685 282.655007 
L 178.090149 282.494817 
L 178.473449 281.819557 
L 179.623347 281.417553 
L 180.006646 281.15945 
L 180.389945 281.206292 
L 181.539843 280.468903 
L 181.923143 280.312283 
L 182.306442 280.022642 
L 183.073041 279.954011 
L 183.45634 279.297868 
L 183.839639 279.289221 
L 184.222939 278.567839 
L 184.606238 278.194238 
L 185.372837 278.301467 
L 185.756136 278.034381 
L 186.139435 277.622958 
L 186.906034 277.144029 
L 187.289333 276.715879 
L 187.672633 276.978379 
L 189.20583 276.138337 
L 189.58913 275.827729 
L 189.972429 274.551324 
L 190.355728 274.79345 
L 191.122327 273.926711 
L 191.505626 273.889497 
L 191.888926 274.264195 
L 193.038824 273.411604 
L 193.422123 272.833199 
L 194.188722 272.877794 
L 194.572021 272.251944 
L 194.95532 272.208867 
L 195.33862 268.893253 
L 195.721919 271.074755 
L 196.105218 272.374312 
L 196.488518 271.742844 
L 196.871817 271.389965 
L 197.255116 271.333097 
L 197.638416 270.502586 
L 198.021715 270.242354 
L 199.171613 268.439754 
L 199.554913 267.262764 
L 199.938212 266.590971 
L 200.321511 265.678912 
L 200.704811 265.076736 
L 201.08811 266.038436 
L 201.471409 265.891261 
L 201.854709 265.917887 
L 202.238008 266.073245 
L 202.621307 266.363336 
L 203.004607 266.252659 
L 203.387906 264.131764 
L 203.771205 264.445473 
L 204.921103 263.327899 
L 205.304403 263.17748 
L 206.071001 263.243614 
L 206.454301 261.640399 
L 206.8376 261.582009 
L 207.604199 260.31679 
L 207.987498 260.748153 
L 208.370797 258.773396 
L 208.754097 259.240159 
L 209.137396 257.907081 
L 209.520696 257.268733 
L 209.903995 256.31023 
L 210.287294 256.975853 
L 210.670594 255.967567 
L 211.053893 254.290159 
L 211.437192 255.135416 
L 211.820492 255.376377 
L 212.203791 254.855698 
L 212.58709 253.321937 
L 212.97039 253.747988 
L 213.353689 252.39383 
L 213.736988 252.705772 
L 214.886886 249.95417 
L 216.036784 249.66369 
L 216.420084 248.595364 
L 216.803383 248.725368 
L 217.186682 248.324605 
L 217.569982 247.265774 
L 217.953281 246.997038 
L 218.33658 245.813116 
L 218.71988 245.001498 
L 219.103179 244.85846 
L 219.486478 245.058234 
L 219.869778 244.541809 
L 220.253077 242.341864 
L 221.019676 243.632278 
L 221.402975 243.384396 
L 222.169574 243.310117 
L 222.552873 243.353822 
L 223.319472 243.088391 
L 223.702771 241.850625 
L 224.086071 241.792031 
L 224.46937 240.69432 
L 224.852669 240.691236 
L 225.235969 240.524483 
L 226.385867 237.384938 
L 226.769166 235.535782 
L 227.152465 236.79857 
L 227.535765 236.269285 
L 227.919064 235.175262 
L 228.302363 235.418783 
L 228.685663 233.083067 
L 229.068962 233.425746 
L 229.452261 233.139347 
L 229.835561 231.509569 
L 230.21886 231.494144 
L 230.602159 230.279321 
L 230.985459 230.571828 
L 231.368758 229.610966 
L 231.752058 229.100528 
L 232.135357 229.371706 
L 232.518656 228.71377 
L 232.901956 227.687352 
L 233.285255 228.01547 
L 233.668554 227.528669 
L 234.051854 225.913406 
L 234.435153 225.237926 
L 234.818452 225.301112 
L 235.201752 223.412214 
L 235.585051 223.748121 
L 236.35165 221.498351 
L 236.734949 219.253356 
L 237.118248 219.475246 
L 237.884847 218.212872 
L 238.268146 216.798414 
L 238.651446 216.987507 
L 239.034745 216.394724 
L 239.418044 214.158249 
L 239.801344 213.373574 
L 240.184643 209.665599 
L 240.567942 212.076391 
L 240.951242 211.639304 
L 241.334541 212.21423 
L 241.717841 211.539103 
L 242.484439 212.635566 
L 242.867739 212.416982 
L 243.251038 211.455828 
L 243.634337 211.744888 
L 244.400936 210.520734 
L 244.784235 209.506385 
L 245.167535 209.345521 
L 245.550834 208.659836 
L 245.934133 206.194117 
L 246.317433 206.967852 
L 246.700732 203.661334 
L 247.084031 203.917286 
L 247.467331 202.119988 
L 247.85063 201.012196 
L 249.000528 198.974749 
L 249.383827 197.307357 
L 249.767127 194.558299 
L 250.150426 195.252498 
L 251.683623 192.121524 
L 252.066923 191.606601 
L 252.450222 191.626092 
L 252.833522 191.909784 
L 253.216821 190.935637 
L 253.60012 189.570365 
L 253.98342 190.793461 
L 254.366719 190.817069 
L 254.750018 191.906709 
L 255.133318 190.714227 
L 255.516617 188.860235 
L 255.899916 189.097799 
L 256.283216 188.297398 
L 257.433114 187.024517 
L 258.199712 186.089546 
L 258.583012 185.988267 
L 258.966311 199.545028 
L 259.34961 184.267231 
L 259.73291 183.533937 
L 260.116209 179.82913 
L 260.499508 183.266325 
L 261.266107 182.764084 
L 261.649406 182.761653 
L 262.032706 182.301678 
L 262.416005 182.074997 
L 262.799304 183.334241 
L 263.182604 184.132553 
L 263.565903 183.938485 
L 263.949203 182.856946 
L 264.332502 182.934607 
L 265.4824 182.025152 
L 265.865699 179.595416 
L 266.248999 180.554439 
L 266.632298 177.981149 
L 267.015597 179.066207 
L 267.398897 176.906275 
L 267.782196 175.557628 
L 268.165495 176.352825 
L 268.548795 174.698928 
L 268.932094 173.600764 
L 269.315393 173.367254 
L 269.698693 174.265043 
L 270.081992 174.738625 
L 271.23189 172.313133 
L 271.615189 172.870929 
L 271.998489 173.674778 
L 272.381788 173.830652 
L 272.765087 171.991012 
L 273.148387 171.305796 
L 273.531686 169.972228 
L 274.298285 169.456891 
L 274.681584 169.596446 
L 275.064884 169.42054 
L 275.831482 167.588669 
L 276.214782 168.657414 
L 276.598081 165.271862 
L 276.98138 165.358941 
L 277.36468 164.946094 
L 277.747979 162.47685 
L 278.131278 161.735972 
L 278.514578 161.290661 
L 278.897877 161.293904 
L 279.281176 159.955218 
L 279.664476 159.86396 
L 280.431074 157.74735 
L 280.814374 159.144432 
L 281.197673 160.044299 
L 281.964272 157.901324 
L 282.347571 158.952376 
L 282.73087 158.760198 
L 283.11417 159.217706 
L 283.497469 157.600165 
L 283.880768 157.035785 
L 284.264068 158.258703 
L 284.647367 156.503241 
L 285.030667 156.6437 
L 285.413966 156.142956 
L 286.180565 155.948837 
L 286.563864 152.481246 
L 286.947163 152.380238 
L 287.330463 152.653909 
L 287.713762 153.492638 
L 288.480361 149.446045 
L 288.86366 147.660923 
L 289.246959 147.207828 
L 289.630259 147.363456 
L 290.013558 147.037653 
L 290.396857 145.264417 
L 290.780157 146.726723 
L 291.163456 145.169788 
L 291.546755 146.61458 
L 291.930055 145.578866 
L 292.313354 144.951929 
L 292.696653 144.899647 
L 293.079953 144.97028 
L 293.463252 143.620158 
L 293.846551 143.773559 
L 294.229851 145.234782 
L 294.61315 144.739662 
L 294.99645 145.339039 
L 295.379749 145.584015 
L 295.763048 143.711369 
L 296.146348 144.832906 
L 296.529647 145.13428 
L 296.912946 144.438303 
L 297.296246 144.01306 
L 297.679545 142.335606 
L 298.062844 142.689645 
L 298.446144 142.324554 
L 298.829443 142.445629 
L 299.212742 141.470159 
L 299.596042 141.04345 
L 299.979341 139.808754 
L 300.36264 139.269075 
L 300.74594 140.032038 
L 301.129239 140.258887 
L 301.512538 140.309922 
L 302.279137 138.554082 
L 302.662436 138.97501 
L 303.045736 137.694642 
L 303.429035 138.248791 
L 303.812334 138.009316 
L 304.195634 137.123714 
L 304.578933 137.340139 
L 304.962232 137.948505 
L 305.345532 137.671162 
L 305.728831 137.685658 
L 306.112131 135.38521 
L 306.878729 133.747371 
L 307.262029 134.017793 
L 307.645328 133.445211 
L 308.028627 131.539519 
L 308.411927 132.155981 
L 308.795226 129.421326 
L 309.178525 131.609851 
L 309.561825 129.798119 
L 309.945124 127.321505 
L 310.328423 128.045987 
L 310.711723 126.49959 
L 311.095022 125.456112 
L 311.478321 125.555935 
L 311.861621 124.773083 
L 312.24492 126.735627 
L 312.628219 125.100649 
L 313.011519 125.713704 
L 313.394818 126.073391 
L 314.544716 123.564885 
L 314.928015 125.653408 
L 315.311315 125.695255 
L 315.694614 124.77199 
L 316.077913 125.295156 
L 316.461213 126.563583 
L 316.844512 125.577086 
L 317.227812 123.28175 
L 317.611111 127.092275 
L 317.99441 126.065816 
L 318.37771 124.580087 
L 318.761009 125.826428 
L 319.144308 125.91648 
L 319.527608 123.881173 
L 319.910907 122.867575 
L 320.294206 121.009415 
L 320.677506 121.915559 
L 321.060805 121.229052 
L 321.444104 121.440793 
L 321.827404 122.022482 
L 322.210703 120.537115 
L 322.594002 119.928111 
L 322.977302 121.029278 
L 323.360601 120.754822 
L 323.7439 118.371993 
L 324.1272 117.847846 
L 324.510499 116.226153 
L 324.893798 118.889194 
L 325.277098 119.772395 
L 325.660397 118.904149 
L 326.043696 118.738106 
L 326.426996 118.874275 
L 326.810295 114.177346 
L 327.193595 117.317269 
L 327.576894 115.507927 
L 328.343493 116.423214 
L 328.726792 111.974724 
L 329.110091 111.406197 
L 329.493391 109.616745 
L 329.87669 109.545524 
L 330.259989 111.164133 
L 330.643289 108.93202 
L 331.026588 108.493256 
L 331.409887 107.340553 
L 331.793187 106.923686 
L 332.176486 105.61401 
L 332.559785 105.80982 
L 332.943085 108.985098 
L 333.326384 107.272806 
L 333.709683 106.18862 
L 334.092983 108.250594 
L 334.476282 107.110323 
L 334.859581 106.708932 
L 335.242881 105.06265 
L 336.009479 107.682808 
L 336.392779 107.395051 
L 336.776078 107.80585 
L 337.159377 107.675693 
L 337.542677 106.199546 
L 337.925976 107.906311 
L 338.309276 105.855743 
L 338.692575 105.130576 
L 339.075874 105.0546 
L 339.842473 102.50174 
L 340.225772 99.653135 
L 340.609072 101.595872 
L 340.992371 105.224438 
L 341.37567 101.137178 
L 341.75897 100.945174 
L 342.142269 103.68795 
L 342.908868 100.037379 
L 343.292167 99.988581 
L 343.675466 100.759242 
L 344.058766 100.727794 
L 344.442065 101.317952 
L 344.825364 94.380007 
L 345.208664 93.639354 
L 345.591963 93.846176 
L 345.975262 92.42824 
L 346.358562 91.963168 
L 346.741861 89.49706 
L 347.12516 92.630598 
L 347.50846 93.852408 
L 347.891759 91.17173 
L 348.275058 92.938147 
L 348.658358 89.93424 
L 349.041657 88.404764 
L 349.424957 84.694271 
L 349.808256 85.6927 
L 350.191555 80.195058 
L 350.958154 84.048752 
L 351.341453 85.808551 
L 351.724753 84.205735 
L 352.108052 84.518396 
L 352.491351 85.190822 
L 352.874651 85.053918 
L 353.25795 87.008045 
L 353.641249 86.097125 
L 354.024549 84.669081 
L 354.407848 84.998465 
L 354.791147 83.534964 
L 355.174447 83.906797 
L 355.557746 82.11693 
L 355.941045 83.380438 
L 356.324345 86.789654 
L 356.707644 84.495438 
L 357.090943 81.0173 
L 357.474243 83.899759 
L 357.857542 82.225314 
L 358.240841 83.964452 
L 358.624141 82.394018 
L 359.00744 82.371687 
L 360.157338 76.325683 
L 360.540638 79.03455 
L 360.923937 78.827416 
L 361.307236 77.471481 
L 361.690536 77.87112 
L 362.073835 80.18184 
L 362.840434 78.185493 
L 363.223733 79.648637 
L 363.607032 78.82547 
L 363.990332 77.230423 
L 364.373631 77.261442 
L 365.14023 74.614785 
L 365.523529 75.769491 
L 365.906828 75.750762 
L 366.290128 73.237199 
L 366.673427 74.532037 
L 367.440026 74.314867 
L 367.823325 72.918797 
L 368.206624 74.513027 
L 368.589924 74.559945 
L 368.973223 71.75407 
L 369.356522 71.719706 
L 369.739822 70.391995 
L 370.123121 66.890776 
L 370.506421 68.395511 
L 371.273019 67.569801 
L 371.656319 67.421441 
L 372.039618 67.796052 
L 372.422917 66.498068 
L 372.806217 68.020955 
L 373.572815 64.217811 
L 373.956115 65.734778 
L 374.339414 67.793136 
L 374.722713 68.597557 
L 375.106013 64.796727 
L 375.489312 67.058908 
L 375.872611 65.885698 
L 376.255911 69.983224 
L 376.63921 67.291856 
L 377.022509 66.289775 
L 377.405809 68.567688 
L 377.789108 68.776778 
L 378.172407 69.988709 
L 378.555707 67.809577 
L 378.939006 70.13186 
L 379.322305 67.310641 
L 379.705605 66.966308 
L 380.088904 64.297541 
L 380.472203 67.650956 
L 380.855503 67.636108 
L 381.238802 66.832064 
L 381.622102 66.917877 
L 382.005401 65.46287 
L 382.3887 66.590255 
L 382.772 63.850309 
L 383.155299 64.5306 
L 383.538598 64.531979 
L 383.921898 74.022462 
L 384.688496 74.022462 
L 385.071796 62.219585 
L 385.455095 62.165766 
L 385.838394 63.744561 
L 386.221694 63.310257 
L 386.604993 61.66705 
L 386.988292 62.074131 
L 387.371592 61.345378 
L 387.754891 58.907306 
L 388.13819 59.816658 
L 388.52149 54.878105 
L 388.904789 55.892556 
L 389.288088 54.461713 
L 389.671388 54.84586 
L 390.054687 53.568 
L 390.437986 57.600072 
L 390.821286 54.528122 
L 391.204585 55.552824 
L 391.587885 56.238892 
L 391.971184 57.753576 
L 392.354483 56.382211 
L 392.737783 57.622913 
L 393.504381 55.326715 
L 393.887681 56.930573 
L 394.27098 57.66121 
L 394.654279 57.400268 
L 395.037579 61.669159 
L 395.420878 57.634549 
L 395.804177 58.172246 
L 396.187477 56.040523 
L 396.570776 58.445967 
L 396.954075 57.945183 
L 397.720674 57.66001 
L 398.103973 55.420971 
L 398.487273 56.876269 
L 398.487273 56.876269 
" clip-path="url(#p4f2b5563b6)" style="fill: none; stroke: #1f77b4; stroke-width: 1.5; stroke-linecap: square"/>
   </g>
   <g id="line2d_16">
    <path d="M 73.832727 294.801513 
L 75.365925 294.671749 
L 75.749224 294.780352 
L 84.18181 294.542261 
L 84.948408 294.534013 
L 86.864905 294.472083 
L 89.164701 294.511013 
L 95.68079 294.455529 
L 96.064089 294.272682 
L 111.012764 294.455938 
L 112.92926 294.457016 
L 114.079159 294.296484 
L 115.612356 294.272355 
L 117.528853 294.216851 
L 122.128445 294.385274 
L 127.494636 293.963739 
L 128.261234 293.910405 
L 129.027833 293.851428 
L 129.794432 293.943186 
L 130.94433 294.007976 
L 132.860826 293.889796 
L 133.627425 293.721787 
L 134.777323 293.829935 
L 139.760215 293.487971 
L 140.143514 293.589704 
L 145.509705 292.953384 
L 147.042902 292.705768 
L 147.809501 292.712734 
L 148.959399 292.326053 
L 150.492596 292.054763 
L 150.875896 292.172044 
L 152.409093 292.051111 
L 157.775284 291.05566 
L 158.158583 291.099376 
L 158.925182 290.849589 
L 159.691781 290.750262 
L 160.07508 290.521932 
L 161.224978 290.781811 
L 161.991577 290.602473 
L 162.374876 290.549758 
L 162.758175 290.327889 
L 163.141475 290.344504 
L 163.524774 290.180151 
L 164.674672 290.096172 
L 165.057971 289.861815 
L 166.207869 289.624838 
L 166.591169 289.627397 
L 166.974468 289.477274 
L 167.357768 289.462018 
L 170.040863 288.535806 
L 170.424162 288.670263 
L 171.57406 288.197192 
L 172.340659 287.80288 
L 172.723958 287.504091 
L 173.490557 287.296528 
L 173.873856 287.391897 
L 174.640455 287.246075 
L 175.790353 286.130259 
L 176.173652 285.862222 
L 176.556952 285.935909 
L 176.940251 285.792105 
L 178.090149 284.95428 
L 178.473449 284.812513 
L 179.240047 284.135674 
L 179.623347 284.042936 
L 180.006646 282.765561 
L 180.389945 282.884823 
L 180.773245 283.735775 
L 181.156544 283.643368 
L 181.923143 282.990408 
L 182.306442 283.580458 
L 182.689741 282.816453 
L 183.073041 282.769463 
L 183.45634 282.53199 
L 183.839639 281.976559 
L 184.222939 282.004784 
L 184.989537 281.154072 
L 185.372837 281.179728 
L 185.756136 280.989653 
L 186.139435 280.299606 
L 186.522735 280.53261 
L 186.906034 280.010317 
L 187.289333 280.166988 
L 187.672633 279.97844 
L 188.055932 280.055386 
L 188.439232 279.466894 
L 188.822531 279.489577 
L 189.20583 278.889194 
L 189.58913 278.993501 
L 190.355728 277.726311 
L 190.739028 277.475543 
L 191.122327 277.395793 
L 191.505626 277.104951 
L 191.888926 277.076123 
L 192.272225 277.187454 
L 192.655524 277.166339 
L 193.805422 276.75056 
L 194.188722 276.885932 
L 194.95532 276.536107 
L 195.33862 275.932991 
L 195.721919 274.579248 
L 196.105218 275.58975 
L 196.488518 275.922414 
L 196.871817 275.573181 
L 197.255116 275.775759 
L 197.638416 275.270372 
L 198.405014 274.616901 
L 198.788314 273.969073 
L 199.171613 273.562789 
L 199.554913 272.711659 
L 199.938212 270.192652 
L 200.321511 268.579186 
L 200.704811 270.969385 
L 201.08811 271.599698 
L 201.471409 271.617034 
L 201.854709 271.868961 
L 202.238008 271.850819 
L 202.621307 272.187982 
L 203.004607 271.492189 
L 203.387906 271.614536 
L 203.771205 270.315014 
L 204.154505 269.917904 
L 204.537804 270.143675 
L 205.304403 268.84779 
L 205.687702 269.198539 
L 206.071001 269.164722 
L 206.454301 268.747104 
L 206.8376 268.140964 
L 207.220899 267.825591 
L 207.604199 267.870292 
L 208.370797 265.991416 
L 208.754097 265.438784 
L 209.137396 265.141802 
L 209.520696 264.059313 
L 209.903995 263.684389 
L 211.053893 261.50161 
L 211.437192 261.872192 
L 212.203791 261.507714 
L 212.97039 260.807922 
L 213.353689 261.112146 
L 214.120288 260.726364 
L 214.886886 259.761099 
L 216.036784 259.267699 
L 216.420084 259.270933 
L 216.803383 258.258913 
L 217.186682 258.156975 
L 217.569982 258.184709 
L 217.953281 257.666406 
L 219.103179 255.100174 
L 219.486478 254.616116 
L 219.869778 252.280222 
L 220.253077 248.984594 
L 220.636377 253.874442 
L 221.019676 254.939969 
L 221.402975 254.642461 
L 221.786275 254.117834 
L 222.169574 254.189228 
L 222.552873 254.45942 
L 223.319472 253.355601 
L 224.086071 252.851941 
L 224.46937 252.444574 
L 224.852669 251.281349 
L 225.235969 251.011509 
L 225.619268 250.945565 
L 226.385867 249.916261 
L 226.769166 248.692751 
L 227.152465 247.930232 
L 227.535765 248.410791 
L 228.302363 246.907895 
L 228.685663 245.525329 
L 229.068962 245.123192 
L 229.452261 244.926519 
L 230.21886 242.709381 
L 230.602159 240.982701 
L 230.985459 241.738855 
L 231.368758 241.596323 
L 231.752058 240.727494 
L 232.135357 240.141096 
L 232.518656 239.990963 
L 232.901956 240.097125 
L 233.285255 241.295373 
L 233.668554 240.680985 
L 234.051854 240.955937 
L 234.435153 240.303666 
L 234.818452 240.374569 
L 235.201752 239.640934 
L 235.96835 237.589017 
L 236.35165 237.795119 
L 237.118248 234.892955 
L 237.501548 235.580637 
L 237.884847 235.046188 
L 238.268146 233.781373 
L 238.651446 233.687464 
L 239.034745 232.838581 
L 239.418044 232.355254 
L 239.801344 228.983957 
L 240.184643 221.205072 
L 240.567942 226.804968 
L 240.951242 229.790866 
L 241.334541 230.106286 
L 242.10114 229.777581 
L 242.484439 229.868823 
L 242.867739 229.827028 
L 243.251038 228.897634 
L 243.634337 228.665677 
L 244.017637 228.955186 
L 244.784235 227.86786 
L 245.550834 225.915577 
L 245.934133 223.77726 
L 246.317433 224.496604 
L 246.700732 224.390075 
L 247.084031 220.511996 
L 247.467331 221.362529 
L 248.233929 218.775029 
L 248.617229 216.285406 
L 249.000528 216.195681 
L 249.383827 215.854734 
L 250.150426 211.51808 
L 250.533725 211.230364 
L 250.917025 210.590044 
L 251.300324 210.277336 
L 252.066923 207.802403 
L 252.450222 207.590248 
L 252.833522 207.51696 
L 253.216821 208.602044 
L 253.60012 208.727016 
L 254.366719 210.289722 
L 255.133318 210.801473 
L 255.516617 208.606513 
L 255.899916 208.052926 
L 256.283216 208.531651 
L 256.666515 207.554429 
L 257.049814 205.75636 
L 257.433114 207.321379 
L 257.816413 207.941769 
L 258.199712 206.090131 
L 258.583012 205.862378 
L 258.966311 204.819605 
L 259.34961 199.545028 
L 259.73291 201.657097 
L 260.116209 192.934057 
L 260.882808 203.291754 
L 261.266107 201.947765 
L 261.649406 203.359823 
L 262.032706 202.835655 
L 262.416005 202.748581 
L 262.799304 201.381036 
L 263.182604 203.689559 
L 263.565903 204.328857 
L 263.949203 203.730313 
L 264.332502 202.419238 
L 264.715801 201.972271 
L 265.099101 200.948867 
L 265.4824 200.87759 
L 265.865699 202.689103 
L 266.248999 201.65369 
L 266.632298 200.181297 
L 267.015597 198.111968 
L 267.398897 197.915218 
L 267.782196 197.059486 
L 268.165495 197.164018 
L 268.548795 194.961146 
L 268.932094 194.91033 
L 269.315393 193.394226 
L 269.698693 193.152871 
L 270.081992 192.69022 
L 270.465291 191.241648 
L 271.23189 191.25362 
L 271.998489 190.667493 
L 272.381788 191.538737 
L 272.765087 190.061736 
L 273.148387 189.275421 
L 273.531686 192.090955 
L 273.914986 192.230898 
L 274.298285 192.097682 
L 274.681584 192.182708 
L 275.064884 192.111733 
L 275.448183 190.701974 
L 275.831482 191.038156 
L 276.214782 191.6075 
L 276.598081 190.979123 
L 276.98138 188.094774 
L 277.36468 188.885277 
L 277.747979 188.491078 
L 278.131278 185.424883 
L 278.514578 186.925052 
L 279.664476 182.924616 
L 280.047775 170.417396 
L 280.431074 175.214827 
L 280.814374 182.430211 
L 281.197673 183.754479 
L 281.964272 182.475203 
L 282.347571 181.220608 
L 282.73087 182.158573 
L 283.11417 181.892421 
L 283.497469 182.879531 
L 283.880768 180.651091 
L 284.264068 182.619391 
L 285.030667 180.575529 
L 285.413966 180.546824 
L 285.797265 181.157453 
L 286.180565 178.60303 
L 286.563864 178.171106 
L 286.947163 176.032416 
L 287.330463 177.996518 
L 287.713762 179.245688 
L 288.097061 176.84673 
L 288.86366 170.156566 
L 289.246959 171.618698 
L 289.630259 170.414224 
L 290.013558 169.756416 
L 290.396857 168.194078 
L 290.780157 168.843698 
L 291.163456 169.025304 
L 291.546755 168.862065 
L 291.930055 168.342602 
L 292.313354 167.514124 
L 292.696653 165.201806 
L 293.079953 168.123389 
L 293.463252 168.950503 
L 293.846551 169.106106 
L 294.229851 170.420746 
L 294.61315 171.150316 
L 295.379749 170.879445 
L 295.763048 171.386323 
L 296.146348 171.093887 
L 296.529647 171.75693 
L 297.296246 169.081672 
L 297.679545 170.765494 
L 298.062844 170.193458 
L 298.446144 168.769689 
L 298.829443 168.926973 
L 299.212742 168.241267 
L 299.596042 166.106265 
L 299.979341 154.302969 
L 300.36264 153.988734 
L 300.74594 165.542003 
L 301.129239 167.161949 
L 301.512538 167.493606 
L 301.895838 166.378622 
L 302.279137 164.872723 
L 303.045736 163.185305 
L 303.429035 163.137518 
L 303.812334 163.697362 
L 304.195634 163.296308 
L 304.578933 154.287416 
L 304.962232 150.355529 
L 305.345532 148.824409 
L 305.728831 149.965988 
L 306.878729 145.965721 
L 307.262029 146.246501 
L 307.645328 148.365118 
L 308.028627 146.423684 
L 308.411927 145.682734 
L 308.795226 147.416198 
L 309.178525 148.36923 
L 309.945124 145.372412 
L 310.328423 142.519291 
L 310.711723 142.303475 
L 311.095022 140.754983 
L 311.478321 142.092495 
L 311.861621 141.908616 
L 312.24492 142.965568 
L 312.628219 141.952792 
L 313.011519 141.961235 
L 313.394818 142.853619 
L 313.778117 144.431663 
L 314.161417 143.677608 
L 314.544716 145.488262 
L 315.311315 145.616055 
L 315.694614 146.314892 
L 316.077913 145.041526 
L 316.461213 145.221257 
L 316.844512 144.214294 
L 317.227812 142.391744 
L 317.611111 144.470195 
L 317.99441 144.888472 
L 318.37771 144.685154 
L 318.761009 147.020931 
L 319.144308 145.064352 
L 319.910907 137.154248 
L 320.294206 130.862379 
L 321.060805 140.27565 
L 321.444104 139.578963 
L 321.827404 140.448006 
L 322.210703 139.37139 
L 322.977302 138.449545 
L 323.360601 138.586342 
L 323.7439 140.153492 
L 324.1272 139.765738 
L 324.510499 139.569877 
L 324.893798 137.728347 
L 325.277098 140.745646 
L 326.043696 137.904447 
L 326.426996 140.046605 
L 326.810295 138.802256 
L 327.193595 135.564262 
L 327.576894 135.882389 
L 327.960193 133.95665 
L 328.343493 132.828238 
L 328.726792 134.599901 
L 329.110091 134.958097 
L 329.87669 127.873314 
L 330.259989 127.752698 
L 330.643289 127.402205 
L 331.026588 126.684638 
L 331.409887 124.079547 
L 331.793187 125.453926 
L 332.176486 124.153684 
L 332.559785 124.253282 
L 332.943085 125.431396 
L 333.326384 128.3136 
L 333.709683 128.981909 
L 334.092983 129.029895 
L 334.476282 130.475739 
L 334.859581 128.375626 
L 335.62618 129.498098 
L 336.009479 129.759888 
L 336.392779 129.545323 
L 336.776078 129.121714 
L 337.159377 131.399275 
L 337.542677 130.351353 
L 337.925976 130.852465 
L 338.309276 129.363375 
L 338.692575 130.39534 
L 339.459174 127.855509 
L 339.842473 122.793111 
L 340.225772 110.939123 
L 340.992371 122.788596 
L 341.37567 123.113971 
L 341.75897 124.775121 
L 342.142269 123.203022 
L 342.525568 125.852589 
L 342.908868 124.916509 
L 343.292167 121.625029 
L 343.675466 123.42746 
L 344.058766 123.421285 
L 344.442065 125.630511 
L 344.825364 121.882774 
L 345.208664 115.539901 
L 345.591963 115.690003 
L 345.975262 125.679192 
L 346.358562 114.46521 
L 347.12516 111.141869 
L 347.50846 114.683371 
L 347.891759 114.512461 
L 348.275058 113.223012 
L 348.658358 110.257294 
L 349.041657 110.872923 
L 349.808256 103.571047 
L 350.191555 104.308477 
L 350.574855 104.093922 
L 350.958154 101.744487 
L 351.341453 101.657025 
L 351.724753 102.52996 
L 352.108052 101.326665 
L 352.491351 102.132793 
L 352.874651 102.230567 
L 353.25795 105.432389 
L 353.641249 106.230779 
L 354.407848 109.11311 
L 354.791147 107.133348 
L 355.174447 108.224285 
L 355.557746 108.350611 
L 355.941045 105.614567 
L 356.324345 108.687289 
L 356.707644 109.540692 
L 357.090943 106.569055 
L 357.474243 105.765241 
L 357.857542 107.963736 
L 358.240841 104.583552 
L 358.624141 107.874746 
L 359.00744 108.165185 
L 359.39074 103.972244 
L 360.157338 90.338685 
L 360.540638 97.31607 
L 360.923937 102.070092 
L 361.307236 101.998453 
L 361.690536 102.559946 
L 362.073835 101.463733 
L 362.457134 101.591964 
L 362.840434 102.285827 
L 363.607032 100.059449 
L 363.990332 102.974566 
L 364.75693 95.989739 
L 365.14023 99.560375 
L 365.523529 95.43889 
L 365.906828 98.01313 
L 366.290128 98.645369 
L 366.673427 97.40337 
L 367.056726 94.347089 
L 367.440026 98.97627 
L 367.823325 98.823017 
L 368.206624 95.525142 
L 368.589924 96.084168 
L 368.973223 95.526991 
L 369.356522 91.058898 
L 370.123121 86.656295 
L 370.506421 87.000904 
L 370.88972 86.832527 
L 371.273019 85.743587 
L 371.656319 87.086508 
L 372.039618 85.658995 
L 372.422917 86.621318 
L 372.806217 85.280588 
L 373.956115 91.984926 
L 374.339414 90.960709 
L 374.722713 92.559107 
L 375.106013 92.114424 
L 375.489312 91.463741 
L 375.872611 91.172624 
L 376.255911 93.276715 
L 376.63921 93.938226 
L 377.022509 91.27593 
L 377.405809 92.186845 
L 377.789108 94.588428 
L 378.172407 92.115773 
L 378.555707 93.762207 
L 378.939006 94.284301 
L 379.322305 92.828467 
L 379.705605 88.087204 
L 380.088904 76.341277 
L 380.472203 81.862143 
L 380.855503 89.078789 
L 381.238802 89.079703 
L 381.622102 91.564346 
L 382.005401 90.569089 
L 382.772 87.373407 
L 383.155299 86.666096 
L 383.538598 89.060396 
L 383.921898 74.022462 
L 384.688496 74.022462 
L 385.071796 85.344694 
L 385.455095 84.095543 
L 385.838394 84.554512 
L 386.221694 89.170756 
L 386.604993 88.470759 
L 386.988292 84.868369 
L 387.371592 85.830983 
L 387.754891 84.545278 
L 388.13819 85.436743 
L 388.52149 82.52799 
L 388.904789 77.249112 
L 389.288088 78.011513 
L 389.671388 73.858125 
L 390.054687 74.70877 
L 390.437986 74.345007 
L 390.821286 74.901429 
L 391.204585 74.74509 
L 391.587885 74.061505 
L 391.971184 75.717552 
L 392.354483 75.507941 
L 392.737783 75.529112 
L 393.121082 79.13828 
L 393.504381 79.954332 
L 393.887681 81.350862 
L 394.27098 82.228016 
L 395.420878 81.719268 
L 395.804177 82.111629 
L 396.187477 81.713302 
L 396.570776 82.212805 
L 396.954075 83.337233 
L 397.337375 80.713347 
L 397.720674 82.399064 
L 398.103973 83.448002 
L 398.487273 78.018209 
L 398.487273 78.018209 
" clip-path="url(#p4f2b5563b6)" style="fill: none; stroke: #ff7f0e; stroke-width: 1.5; stroke-linecap: square"/>
   </g>
   <g id="line2d_17">
    <path d="M 73.832727 295.243918 
L 79.582217 295.215433 
L 79.965517 295.279722 
L 80.732115 295.173949 
L 81.115415 295.254996 
L 81.498714 295.160317 
L 81.882014 295.254445 
L 83.031912 295.15856 
L 93.764293 295.219228 
L 94.147593 295.179593 
L 94.530892 295.270804 
L 95.68079 294.983834 
L 96.064089 295.167233 
L 124.428241 295.297767 
L 124.81154 295.219718 
L 125.578139 295.363793 
L 128.261234 295.311338 
L 129.027833 295.330012 
L 129.411132 295.281847 
L 130.177731 295.390046 
L 131.327629 295.359416 
L 131.710928 295.417004 
L 132.860826 295.282945 
L 133.244126 295.372854 
L 134.010724 295.240143 
L 134.394024 295.217716 
L 134.777323 295.342449 
L 135.160623 295.34371 
L 135.543922 295.229724 
L 136.69382 295.382932 
L 137.077119 295.245522 
L 138.227017 295.226123 
L 138.610317 295.089592 
L 139.760215 295.336544 
L 140.526813 295.08855 
L 140.910113 295.170895 
L 141.293412 295.059059 
L 143.209909 295.257754 
L 143.976507 295.179904 
L 144.359807 294.87137 
L 144.743106 295.071613 
L 145.126405 294.978129 
L 146.276304 295.157375 
L 146.659603 295.020333 
L 147.042902 295.065632 
L 147.809501 294.847742 
L 148.1928 294.89891 
L 148.959399 294.81964 
L 149.342698 294.956804 
L 150.109297 294.806861 
L 150.492596 295.041529 
L 154.32559 294.792227 
L 154.708889 294.586166 
L 155.092188 294.533849 
L 155.858787 294.707349 
L 156.625386 294.66514 
L 157.008685 294.916219 
L 158.541883 294.608476 
L 159.691781 294.643024 
L 160.07508 294.904288 
L 161.224978 294.466322 
L 161.991577 294.544749 
L 162.374876 294.487339 
L 162.758175 294.701945 
L 163.141475 294.492575 
L 163.908073 294.757961 
L 165.057971 294.391424 
L 166.207869 294.486578 
L 166.591169 294.282489 
L 166.974468 294.414163 
L 167.741067 294.123643 
L 168.124366 294.268285 
L 168.507666 294.165693 
L 168.890965 294.233762 
L 169.657564 294.187304 
L 170.424162 294.180143 
L 170.807462 294.076234 
L 171.190761 294.190241 
L 172.340659 294.026149 
L 172.723958 294.217219 
L 173.490557 294.070151 
L 173.873856 293.799473 
L 174.257156 293.676007 
L 174.640455 293.376329 
L 175.407054 293.3339 
L 175.790353 293.085962 
L 176.173652 293.577972 
L 176.556952 293.543031 
L 176.940251 293.260765 
L 177.32355 293.209479 
L 177.70685 292.825638 
L 178.090149 293.028537 
L 178.473449 292.495043 
L 179.240047 292.96124 
L 179.623347 292.862617 
L 180.006646 293.88189 
L 180.389945 293.809469 
L 180.773245 292.676542 
L 181.156544 292.552121 
L 181.539843 292.596409 
L 181.923143 292.809876 
L 182.306442 291.930184 
L 182.689741 292.668058 
L 183.073041 292.672548 
L 183.45634 292.253878 
L 183.839639 292.800662 
L 184.222939 292.051055 
L 184.606238 292.163274 
L 184.989537 292.58103 
L 185.756136 292.532727 
L 186.139435 292.811352 
L 186.522735 292.345968 
L 186.906034 292.621712 
L 187.289333 292.036892 
L 187.672633 292.487939 
L 188.055932 292.222032 
L 188.439232 292.599376 
L 188.822531 292.412014 
L 189.20583 292.737144 
L 189.972429 291.780883 
L 190.355728 292.555139 
L 190.739028 292.429462 
L 191.122327 292.018918 
L 191.505626 292.272546 
L 191.888926 292.676072 
L 192.272225 292.260068 
L 193.038824 291.902781 
L 193.422123 291.390882 
L 193.805422 291.638499 
L 194.188722 291.479862 
L 194.572021 291.039944 
L 194.95532 291.16076 
L 195.33862 288.448261 
L 195.721919 291.983507 
L 196.105218 292.272561 
L 196.488518 291.30843 
L 196.871817 291.304784 
L 197.638416 290.720214 
L 198.021715 290.762448 
L 198.405014 290.48933 
L 198.788314 290.612668 
L 199.554913 290.039105 
L 199.938212 291.88632 
L 200.321511 292.587726 
L 200.704811 289.595352 
L 201.08811 289.926738 
L 201.854709 289.536926 
L 202.238008 289.710426 
L 202.621307 289.663354 
L 203.004607 290.248471 
L 203.387906 288.005228 
L 203.771205 289.618458 
L 204.154505 289.610925 
L 204.537804 288.955359 
L 204.921103 289.295811 
L 205.304403 289.817691 
L 205.687702 289.488736 
L 206.071001 289.566892 
L 206.454301 288.381296 
L 206.8376 288.929045 
L 207.220899 288.539085 
L 207.604199 287.934498 
L 207.987498 289.33159 
L 208.370797 288.26998 
L 208.754097 289.289376 
L 209.137396 288.253279 
L 209.520696 288.69742 
L 209.903995 288.113841 
L 210.287294 289.53286 
L 210.670594 289.225556 
L 211.053893 288.276549 
L 211.820492 289.135392 
L 212.203791 288.835984 
L 212.58709 287.709028 
L 212.97039 288.428066 
L 213.353689 286.769684 
L 213.736988 287.289423 
L 214.120288 286.448411 
L 214.886886 285.681071 
L 215.653485 285.826464 
L 216.036784 285.883991 
L 216.420084 284.812431 
L 216.803383 285.954455 
L 217.186682 285.65563 
L 217.569982 284.569065 
L 217.953281 284.818632 
L 218.33658 284.57407 
L 218.71988 284.682091 
L 219.486478 285.930117 
L 219.869778 287.749588 
L 220.253077 288.84527 
L 220.636377 284.584464 
L 221.019676 284.18031 
L 221.402975 284.229935 
L 221.786275 284.68752 
L 222.169574 284.608889 
L 222.552873 284.382402 
L 223.319472 285.220789 
L 223.702771 284.178594 
L 224.086071 284.42809 
L 224.46937 283.737746 
L 224.852669 284.897887 
L 225.235969 285.000973 
L 225.619268 283.957399 
L 226.385867 282.956677 
L 226.769166 282.331032 
L 227.152465 284.356338 
L 227.535765 283.346494 
L 227.919064 283.028076 
L 228.302363 283.998888 
L 228.685663 283.045738 
L 229.068962 283.790554 
L 229.452261 283.700829 
L 229.835561 283.252831 
L 230.21886 284.272762 
L 230.602159 284.784621 
L 230.985459 284.320973 
L 231.368758 283.502644 
L 231.752058 283.861034 
L 232.135357 284.71861 
L 232.518656 284.210807 
L 233.285255 282.208097 
L 233.668554 282.335685 
L 234.051854 280.445469 
L 234.818452 280.414543 
L 235.201752 279.25928 
L 235.585051 280.574875 
L 235.96835 280.380679 
L 236.35165 279.191232 
L 236.734949 278.561265 
L 237.118248 280.07029 
L 237.501548 278.741318 
L 238.268146 278.505041 
L 239.034745 279.044143 
L 239.418044 277.290995 
L 239.801344 279.877616 
L 240.184643 283.948527 
L 240.951242 277.336437 
L 241.334541 277.595944 
L 241.717841 277.055841 
L 242.10114 277.789747 
L 242.484439 278.254743 
L 242.867739 278.077954 
L 243.251038 278.046195 
L 243.634337 278.567211 
L 244.017637 277.710002 
L 244.400936 277.615113 
L 244.784235 277.126525 
L 245.167535 278.086376 
L 245.550834 278.232259 
L 245.934133 277.904857 
L 246.317433 277.959248 
L 246.700732 274.75926 
L 247.084031 278.89329 
L 247.467331 276.245459 
L 247.85063 276.292924 
L 248.233929 277.05817 
L 248.617229 279.087726 
L 249.000528 278.267068 
L 249.383827 276.940624 
L 249.767127 276.445544 
L 250.150426 279.222419 
L 250.533725 278.706633 
L 250.917025 278.715454 
L 251.300324 277.849256 
L 251.683623 278.745731 
L 252.066923 279.292199 
L 252.833522 279.880824 
L 253.60012 276.331348 
L 253.98342 276.633872 
L 254.366719 276.015346 
L 254.750018 276.898221 
L 255.133318 275.400754 
L 255.516617 275.741722 
L 255.899916 276.532874 
L 256.283216 275.253747 
L 256.666515 275.764109 
L 257.049814 277.096625 
L 257.433114 275.191138 
L 257.816413 274.162452 
L 258.199712 275.487415 
L 258.583012 275.613889 
L 258.966311 290.213422 
L 259.34961 280.210203 
L 259.73291 277.364841 
L 260.116209 282.383073 
L 260.499508 281.091739 
L 260.882808 275.180407 
L 261.266107 276.304319 
L 261.649406 274.88983 
L 262.032706 274.954023 
L 262.416005 274.814417 
L 262.799304 277.441204 
L 263.182604 275.930994 
L 263.565903 275.097628 
L 263.949203 274.614633 
L 264.332502 276.003369 
L 264.715801 276.15936 
L 265.099101 276.859914 
L 265.4824 276.635562 
L 265.865699 272.394313 
L 266.248999 274.388749 
L 266.632298 273.287852 
L 267.015597 276.44224 
L 267.398897 274.479057 
L 267.782196 273.986143 
L 268.548795 275.225783 
L 268.932094 274.178434 
L 269.698693 276.600172 
L 270.081992 277.536405 
L 270.465291 278.176464 
L 271.23189 276.547512 
L 271.998489 278.495285 
L 272.381788 277.779915 
L 272.765087 277.417275 
L 273.148387 277.518375 
L 273.531686 273.369272 
L 273.914986 272.900757 
L 275.064884 272.796807 
L 275.448183 273.298374 
L 275.831482 272.038513 
L 276.214782 272.537913 
L 276.598081 269.780739 
L 276.98138 272.752167 
L 277.36468 271.548816 
L 277.747979 269.473772 
L 278.131278 271.799089 
L 278.514578 269.853609 
L 278.897877 271.135591 
L 279.281176 271.176513 
L 279.664476 272.427344 
L 280.047775 283.717454 
L 280.814374 272.202222 
L 281.197673 271.777821 
L 281.580972 271.52357 
L 281.964272 270.914121 
L 282.347571 273.219768 
L 282.73087 272.089625 
L 283.11417 272.813285 
L 283.497469 270.208633 
L 283.880768 271.872695 
L 284.647367 270.521499 
L 285.030667 271.556171 
L 285.413966 271.084132 
L 285.797265 270.426999 
L 286.180565 272.833807 
L 286.563864 269.798141 
L 286.947163 271.835823 
L 287.330463 270.145391 
L 287.713762 269.734949 
L 288.097061 269.830298 
L 288.86366 272.992357 
L 289.246959 271.07713 
L 289.630259 272.437232 
L 290.013558 272.769237 
L 290.396857 272.558339 
L 290.780157 273.371024 
L 291.163456 271.632484 
L 291.546755 273.240515 
L 291.930055 272.724264 
L 292.313354 272.925805 
L 292.696653 275.185841 
L 293.463252 270.157654 
L 293.846551 270.155453 
L 294.229851 270.302036 
L 294.61315 269.077346 
L 294.99645 269.79858 
L 295.379749 270.19257 
L 295.763048 267.813046 
L 296.146348 269.227019 
L 296.529647 268.86535 
L 297.296246 270.419388 
L 297.679545 267.058112 
L 298.446144 269.042864 
L 298.829443 269.006657 
L 299.212742 268.716892 
L 299.596042 270.425185 
L 299.979341 280.993785 
L 300.36264 280.768341 
L 300.74594 269.978035 
L 301.129239 268.584937 
L 301.512538 268.304316 
L 301.895838 268.620006 
L 302.279137 269.169359 
L 302.662436 270.548478 
L 303.045736 269.997337 
L 303.429035 270.599273 
L 303.812334 269.799954 
L 304.195634 269.315406 
L 304.578933 278.540723 
L 304.962232 283.080976 
L 305.345532 284.334753 
L 306.112131 282.146489 
L 306.878729 283.26965 
L 307.262029 283.259292 
L 307.645328 280.568092 
L 308.028627 280.603835 
L 308.411927 281.961247 
L 308.795226 277.493128 
L 309.178525 278.728621 
L 309.561825 278.327465 
L 309.945124 277.437093 
L 310.328423 281.014696 
L 310.711723 279.684115 
L 311.095022 280.189129 
L 311.478321 278.95144 
L 311.861621 278.352467 
L 312.24492 279.258059 
L 312.628219 278.635857 
L 313.011519 279.240469 
L 313.394818 278.707772 
L 313.778117 276.348188 
L 314.161417 276.434844 
L 314.544716 273.564623 
L 314.928015 275.552429 
L 315.311315 275.5672 
L 315.694614 273.945098 
L 316.077913 275.74163 
L 316.461213 276.830325 
L 316.844512 276.850791 
L 317.227812 276.378006 
L 317.611111 278.11008 
L 318.37771 275.382934 
L 318.761009 274.293498 
L 319.527608 277.809319 
L 319.910907 281.201328 
L 320.294206 285.635036 
L 321.060805 276.441402 
L 321.444104 277.349829 
L 322.594002 276.572877 
L 322.977302 278.067733 
L 323.360601 277.65648 
L 323.7439 273.706502 
L 324.1272 273.570108 
L 324.510499 272.144276 
L 324.893798 276.648847 
L 325.277098 274.514749 
L 325.660397 275.247153 
L 326.043696 276.321659 
L 326.426996 274.31567 
L 326.810295 270.863091 
L 327.193595 277.241007 
L 327.576894 275.113538 
L 327.960193 277.476518 
L 328.343493 279.082976 
L 328.726792 272.862823 
L 329.110091 271.9361 
L 329.493391 273.636267 
L 329.87669 277.16021 
L 330.259989 278.899434 
L 330.643289 277.017815 
L 331.026588 277.296618 
L 331.409887 278.749005 
L 331.793187 276.95776 
L 332.559785 277.044538 
L 332.943085 279.041702 
L 333.326384 274.447206 
L 333.709683 272.694712 
L 334.092983 274.7087 
L 334.476282 272.122584 
L 334.859581 273.821305 
L 335.242881 271.633654 
L 336.009479 273.41092 
L 336.392779 273.337728 
L 336.776078 274.172136 
L 337.159377 271.764419 
L 337.542677 271.336192 
L 337.925976 272.541846 
L 338.309276 271.980368 
L 338.692575 270.223236 
L 339.075874 271.504661 
L 339.459174 271.487852 
L 339.842473 275.196629 
L 340.225772 284.202012 
L 340.609072 279.309733 
L 340.992371 277.923842 
L 341.37567 273.511208 
L 341.75897 271.658053 
L 342.142269 275.972928 
L 342.525568 271.492291 
L 342.908868 270.60887 
L 343.292167 273.851552 
L 343.675466 272.819781 
L 344.058766 272.794509 
L 344.442065 271.175441 
L 344.825364 267.985234 
L 345.208664 273.587454 
L 345.591963 273.644174 
L 345.975262 262.237049 
L 346.358562 272.985957 
L 346.741861 271.997524 
L 347.12516 276.976729 
L 347.891759 272.147269 
L 348.275058 275.203136 
L 348.658358 275.164946 
L 349.041657 273.019841 
L 349.424957 273.137786 
L 349.808256 277.609653 
L 350.191555 271.374581 
L 350.574855 273.816208 
L 350.958154 277.792265 
L 351.341453 279.639526 
L 351.724753 277.163775 
L 352.108052 278.679731 
L 352.874651 278.31135 
L 353.25795 277.063656 
L 353.641249 275.354346 
L 354.024549 272.591451 
L 354.407848 271.373355 
L 354.791147 271.889616 
L 355.174447 271.170512 
L 355.557746 269.254319 
L 355.941045 273.253871 
L 356.324345 273.590365 
L 356.707644 270.442745 
L 357.090943 269.936245 
L 357.474243 273.622517 
L 357.857542 269.749578 
L 358.240841 274.8689 
L 358.624141 270.007271 
L 359.00744 269.694502 
L 359.39074 271.685465 
L 359.774039 275.814929 
L 360.157338 281.474998 
L 360.923937 272.245325 
L 361.307236 270.961029 
L 361.690536 270.799174 
L 362.073835 274.206107 
L 362.840434 271.387667 
L 363.223733 274.062026 
L 363.607032 274.254021 
L 363.990332 269.743857 
L 364.373631 273.647432 
L 364.75693 275.594664 
L 365.14023 270.54241 
L 365.523529 275.818602 
L 366.290128 270.07983 
L 367.056726 275.519414 
L 367.440026 270.826597 
L 367.823325 269.58378 
L 368.206624 274.475885 
L 368.589924 273.963777 
L 368.973223 271.715079 
L 369.356522 276.148808 
L 369.739822 277.086548 
L 370.123121 275.722482 
L 370.506421 276.882607 
L 370.88972 276.659379 
L 371.273019 277.314214 
L 371.656319 275.822933 
L 372.039618 277.625058 
L 372.422917 275.36475 
L 372.806217 278.228367 
L 373.572815 269.213872 
L 373.956115 269.237852 
L 374.339414 272.320427 
L 374.722713 271.52645 
L 375.106013 268.170303 
L 375.489312 271.083167 
L 375.872611 270.201074 
L 376.255911 272.194509 
L 376.63921 268.84163 
L 377.405809 271.868843 
L 377.789108 269.67635 
L 378.172407 273.360937 
L 378.555707 269.53537 
L 378.939006 271.335559 
L 379.322305 269.970175 
L 379.705605 274.367103 
L 380.088904 283.444264 
L 380.472203 281.276813 
L 380.855503 274.045319 
L 381.238802 273.240362 
L 381.622102 270.841531 
L 382.005401 270.381781 
L 382.3887 273.30509 
L 382.772 271.964902 
L 383.155299 273.352504 
L 383.538598 270.959583 
L 383.921898 295.488 
L 384.688496 295.488 
L 385.071796 272.362891 
L 385.838394 274.678049 
L 386.221694 269.627501 
L 386.604993 268.684291 
L 386.988292 272.693762 
L 387.371592 271.002395 
L 387.754891 269.850029 
L 388.13819 269.867916 
L 388.52149 267.838114 
L 388.904789 274.131444 
L 389.288088 271.938199 
L 389.671388 276.475735 
L 390.054687 274.34723 
L 390.437986 278.743065 
L 390.821286 275.114693 
L 391.587885 277.665387 
L 391.971184 277.524024 
L 392.354483 276.36227 
L 392.737783 277.581801 
L 393.121082 272.94575 
L 393.504381 270.860384 
L 393.887681 271.067711 
L 394.654279 270.86332 
L 395.037579 275.376283 
L 395.420878 271.403281 
L 395.804177 271.548617 
L 396.187477 269.81522 
L 396.570776 271.721162 
L 396.954075 270.095949 
L 397.337375 272.628415 
L 397.720674 270.748946 
L 398.103973 267.460969 
L 398.487273 274.34606 
L 398.487273 274.34606 
" clip-path="url(#p4f2b5563b6)" style="fill: none; stroke: #2ca02c; stroke-width: 1.5; stroke-linecap: square"/>
   </g>
   <g id="patch_3">
    <path d="M 57.6 307.584 
L 57.6 41.472 
" style="fill: none; stroke: #000000; stroke-width: 0.8; stroke-linejoin: miter; stroke-linecap: square"/>
   </g>
   <g id="patch_4">
    <path d="M 414.72 307.584 
L 414.72 41.472 
" style="fill: none; stroke: #000000; stroke-width: 0.8; stroke-linejoin: miter; stroke-linecap: square"/>
   </g>
   <g id="patch_5">
    <path d="M 57.6 307.584 
L 414.72 307.584 
" style="fill: none; stroke: #000000; stroke-width: 0.8; stroke-linejoin: miter; stroke-linecap: square"/>
   </g>
   <g id="patch_6">
    <path d="M 57.6 41.472 
L 414.72 41.472 
" style="fill: none; stroke: #000000; stroke-width: 0.8; stroke-linejoin: miter; stroke-linecap: square"/>
   </g>
   <g id="legend_1">
    <g id="patch_7">
     <path d="M 64.6 93.506375 
L 186.25625 93.506375 
Q 188.25625 93.506375 188.25625 91.506375 
L 188.25625 48.472 
Q 188.25625 46.472 186.25625 46.472 
L 64.6 46.472 
Q 62.6 46.472 62.6 48.472 
L 62.6 91.506375 
Q 62.6 93.506375 64.6 93.506375 
z
" style="fill: #ffffff; opacity: 0.8; stroke: #cccccc; stroke-linejoin: miter"/>
    </g>
    <g id="line2d_18">
     <path d="M 66.6 54.570438 
L 76.6 54.570438 
L 86.6 54.570438 
" style="fill: none; stroke: #1f77b4; stroke-width: 1.5; stroke-linecap: square"/>
    </g>
    <g id="text_17">
     <!-- Weekly maximum -->
     <g transform="translate(94.6 58.070438) scale(0.1 -0.1)">
      <defs>
       <path id="DejaVuSans-57" d="M 213 4666 
L 850 4666 
L 1831 722 
L 2809 4666 
L 3519 4666 
L 4500 722 
L 5478 4666 
L 6119 4666 
L 4947 0 
L 4153 0 
L 3169 4050 
L 2175 0 
L 1381 0 
L 213 4666 
z
" transform="scale(0.015625)"/>
       <path id="DejaVuSans-6b" d="M 581 4863 
L 1159 4863 
L 1159 1991 
L 2875 3500 
L 3609 3500 
L 1753 1863 
L 3688 0 
L 2938 0 
L 1159 1709 
L 1159 0 
L 581 0 
L 581 4863 
z
" transform="scale(0.015625)"/>
       <path id="DejaVuSans-79" d="M 2059 -325 
Q 1816 -950 1584 -1140 
Q 1353 -1331 966 -1331 
L 506 -1331 
L 506 -850 
L 844 -850 
Q 1081 -850 1212 -737 
Q 1344 -625 1503 -206 
L 1606 56 
L 191 3500 
L 800 3500 
L 1894 763 
L 2988 3500 
L 3597 3500 
L 2059 -325 
z
" transform="scale(0.015625)"/>
       <path id="DejaVuSans-6d" d="M 3328 2828 
Q 3544 3216 3844 3400 
Q 4144 3584 4550 3584 
Q 5097 3584 5394 3201 
Q 5691 2819 5691 2113 
L 5691 0 
L 5113 0 
L 5113 2094 
Q 5113 2597 4934 2840 
Q 4756 3084 4391 3084 
Q 3944 3084 3684 2787 
Q 3425 2491 3425 1978 
L 3425 0 
L 2847 0 
L 2847 2094 
Q 2847 2600 2669 2842 
Q 2491 3084 2119 3084 
Q 1678 3084 1418 2786 
Q 1159 2488 1159 1978 
L 1159 0 
L 581 0 
L 581 3500 
L 1159 3500 
L 1159 2956 
Q 1356 3278 1631 3431 
Q 1906 3584 2284 3584 
Q 2666 3584 2933 3390 
Q 3200 3197 3328 2828 
z
" transform="scale(0.015625)"/>
       <path id="DejaVuSans-78" d="M 3513 3500 
L 2247 1797 
L 3578 0 
L 2900 0 
L 1881 1375 
L 863 0 
L 184 0 
L 1544 1831 
L 300 3500 
L 978 3500 
L 1906 2253 
L 2834 3500 
L 3513 3500 
z
" transform="scale(0.015625)"/>
       <path id="DejaVuSans-75" d="M 544 1381 
L 544 3500 
L 1119 3500 
L 1119 1403 
Q 1119 906 1312 657 
Q 1506 409 1894 409 
Q 2359 409 2629 706 
Q 2900 1003 2900 1516 
L 2900 3500 
L 3475 3500 
L 3475 0 
L 2900 0 
L 2900 538 
Q 2691 219 2414 64 
Q 2138 -91 1772 -91 
Q 1169 -91 856 284 
Q 544 659 544 1381 
z
M 1991 3584 
L 1991 3584 
z
" transform="scale(0.015625)"/>
      </defs>
      <use xlink:href="#DejaVuSans-57"/>
      <use xlink:href="#DejaVuSans-65" x="93.001953"/>
      <use xlink:href="#DejaVuSans-65" x="154.525391"/>
      <use xlink:href="#DejaVuSans-6b" x="216.048828"/>
      <use xlink:href="#DejaVuSans-6c" x="273.958984"/>
      <use xlink:href="#DejaVuSans-79" x="301.742188"/>
      <use xlink:href="#DejaVuSans-20" x="360.921875"/>
      <use xlink:href="#DejaVuSans-6d" x="392.708984"/>
      <use xlink:href="#DejaVuSans-61" x="490.121094"/>
      <use xlink:href="#DejaVuSans-78" x="551.400391"/>
      <use xlink:href="#DejaVuSans-69" x="610.580078"/>
      <use xlink:href="#DejaVuSans-6d" x="638.363281"/>
      <use xlink:href="#DejaVuSans-75" x="735.775391"/>
      <use xlink:href="#DejaVuSans-6d" x="799.154297"/>
     </g>
    </g>
    <g id="line2d_19">
     <path d="M 66.6 69.248563 
L 76.6 69.248563 
L 86.6 69.248563 
" style="fill: none; stroke: #ff7f0e; stroke-width: 1.5; stroke-linecap: square"/>
    </g>
    <g id="text_18">
     <!-- Weekly minimum -->
     <g transform="translate(94.6 72.748563) scale(0.1 -0.1)">
      <defs>
       <path id="DejaVuSans-6e" d="M 3513 2113 
L 3513 0 
L 2938 0 
L 2938 2094 
Q 2938 2591 2744 2837 
Q 2550 3084 2163 3084 
Q 1697 3084 1428 2787 
Q 1159 2491 1159 1978 
L 1159 0 
L 581 0 
L 581 3500 
L 1159 3500 
L 1159 2956 
Q 1366 3272 1645 3428 
Q 1925 3584 2291 3584 
Q 2894 3584 3203 3211 
Q 3513 2838 3513 2113 
z
" transform="scale(0.015625)"/>
      </defs>
      <use xlink:href="#DejaVuSans-57"/>
      <use xlink:href="#DejaVuSans-65" x="93.001953"/>
      <use xlink:href="#DejaVuSans-65" x="154.525391"/>
      <use xlink:href="#DejaVuSans-6b" x="216.048828"/>
      <use xlink:href="#DejaVuSans-6c" x="273.958984"/>
      <use xlink:href="#DejaVuSans-79" x="301.742188"/>
      <use xlink:href="#DejaVuSans-20" x="360.921875"/>
      <use xlink:href="#DejaVuSans-6d" x="392.708984"/>
      <use xlink:href="#DejaVuSans-69" x="490.121094"/>
      <use xlink:href="#DejaVuSans-6e" x="517.904297"/>
      <use xlink:href="#DejaVuSans-69" x="581.283203"/>
      <use xlink:href="#DejaVuSans-6d" x="609.066406"/>
      <use xlink:href="#DejaVuSans-75" x="706.478516"/>
      <use xlink:href="#DejaVuSans-6d" x="769.857422"/>
     </g>
    </g>
    <g id="line2d_20">
     <path d="M 66.6 83.926688 
L 76.6 83.926688 
L 86.6 83.926688 
" style="fill: none; stroke: #2ca02c; stroke-width: 1.5; stroke-linecap: square"/>
    </g>
    <g id="text_19">
     <!-- Weekly range -->
     <g transform="translate(94.6 87.426688) scale(0.1 -0.1)">
      <use xlink:href="#DejaVuSans-57"/>
      <use xlink:href="#DejaVuSans-65" x="93.001953"/>
      <use xlink:href="#DejaVuSans-65" x="154.525391"/>
      <use xlink:href="#DejaVuSans-6b" x="216.048828"/>
      <use xlink:href="#DejaVuSans-6c" x="273.958984"/>
      <use xlink:href="#DejaVuSans-79" x="301.742188"/>
      <use xlink:href="#DejaVuSans-20" x="360.921875"/>
      <use xlink:href="#DejaVuSans-72" x="392.708984"/>
      <use xlink:href="#DejaVuSans-61" x="433.822266"/>
      <use xlink:href="#DejaVuSans-6e" x="495.101562"/>
      <use xlink:href="#DejaVuSans-67" x="558.480469"/>
      <use xlink:href="#DejaVuSans-65" x="621.957031"/>
     </g>
    </g>
   </g>
  </g>
 </g>
 <defs>
  <clipPath id="p4f2b5563b6">
   <rect x="57.6" y="41.472" width="357.12" height="266.112"/>
  </clipPath>
 </defs>
</svg>
