<?xml version="1.0" encoding="utf-8" standalone="no"?>
<!DOCTYPE svg PUBLIC "-//W3C//DTD SVG 1.1//EN"
  "http://www.w3.org/Graphics/SVG/1.1/DTD/svg11.dtd">
<svg xmlns:xlink="http://www.w3.org/1999/xlink" width="460.8pt" height="345.6pt" viewBox="0 0 460.8 345.6" xmlns="http://www.w3.org/2000/svg" version="1.1">
 <metadata>
  <rdf:RDF xmlns:dc="http://purl.org/dc/elements/1.1/" xmlns:cc="http://creativecommons.org/ns#" xmlns:rdf="http://www.w3.org/1999/02/22-rdf-syntax-ns#">
   <cc:Work>
    <dc:type rdf:resource="http://purl.org/dc/dcmitype/StillImage"/>
    <dc:date>2026-04-23T07:11:40.801757</dc:date>
    <dc:format>image/svg+xml</dc:format>
    <dc:creator>
     <cc:Agent>
      <dc:title>Matplotlib v3.10.8, https://matplotlib.org/</dc:title>
     </cc:Agent>
    </dc:creator>
   </cc:Work>
  </rdf:RDF>
 </metadata>
 <defs>
  <style type="text/css">*{stroke-linejoin: round; stroke-linecap: butt}</style>
 </defs>
 <g id="figure_1">
  <g id="patch_1">
   <path d="M 0 345.6 
L 460.8 345.6 
L 460.8 0 
L 0 0 
z
" style="fill: #ffffff"/>
  </g>
  <g id="axes_1">
   <g id="patch_2">
    <path d="M 57.6 307.584 
L 414.72 307.584 
L 414.72 41.472 
L 57.6 41.472 
z
" style="fill: #ffffff"/>
   </g>
   <g id="matplotlib.axis_1">
    <g id="xtick_1">
     <g id="line2d_1">
      <defs>
       <path id="m678ef75131" d="M 0 0 
L 0 3.5 
" style="stroke: #000000; stroke-width: 0.8"/>
      </defs>
      <g>
       <use xlink:href="#m678ef75131" x="61.532151" y="307.584" style="stroke: #000000; stroke-width: 0.8"/>
      </g>
     </g>
     <g id="text_1">
      <!-- 2008 -->
      <g transform="translate(48.807151 322.182437) scale(0.1 -0.1)">
       <defs>
        <path id="DejaVuSans-32" d="M 1228 531 
L 3431 531 
L 3431 0 
L 469 0 
L 469 531 
Q 828 903 1448 1529 
Q 2069 2156 2228 2338 
Q 2531 2678 2651 2914 
Q 2772 3150 2772 3378 
Q 2772 3750 2511 3984 
Q 2250 4219 1831 4219 
Q 1534 4219 1204 4116 
Q 875 4013 500 3803 
L 500 4441 
Q 881 4594 1212 4672 
Q 1544 4750 1819 4750 
Q 2544 4750 2975 4387 
Q 3406 4025 3406 3419 
Q 3406 3131 3298 2873 
Q 3191 2616 2906 2266 
Q 2828 2175 2409 1742 
Q 1991 1309 1228 531 
z
" transform="scale(0.015625)"/>
        <path id="DejaVuSans-30" d="M 2034 4250 
Q 1547 4250 1301 3770 
Q 1056 3291 1056 2328 
Q 1056 1369 1301 889 
Q 1547 409 2034 409 
Q 2525 409 2770 889 
Q 3016 1369 3016 2328 
Q 3016 3291 2770 3770 
Q 2525 4250 2034 4250 
z
M 2034 4750 
Q 2819 4750 3233 4129 
Q 3647 3509 3647 2328 
Q 3647 1150 3233 529 
Q 2819 -91 2034 -91 
Q 1250 -91 836 529 
Q 422 1150 422 2328 
Q 422 3509 836 4129 
Q 1250 4750 2034 4750 
z
" transform="scale(0.015625)"/>
        <path id="DejaVuSans-38" d="M 2034 2216 
Q 1584 2216 1326 1975 
Q 1069 1734 1069 1313 
Q 1069 891 1326 650 
Q 1584 409 2034 409 
Q 2484 409 2743 651 
Q 3003 894 3003 1313 
Q 3003 1734 2745 1975 
Q 2488 2216 2034 2216 
z
M 1403 2484 
Q 997 2584 770 2862 
Q 544 3141 544 3541 
Q 544 4100 942 4425 
Q 1341 4750 2034 4750 
Q 2731 4750 3128 4425 
Q 3525 4100 3525 3541 
Q 3525 3141 3298 2862 
Q 3072 2584 2669 2484 
Q 3125 2378 3379 2068 
Q 3634 1759 3634 1313 
Q 3634 634 3220 271 
Q 2806 -91 2034 -91 
Q 1263 -91 848 271 
Q 434 634 434 1313 
Q 434 1759 690 2068 
Q 947 2378 1403 2484 
z
M 1172 3481 
Q 1172 3119 1398 2916 
Q 1625 2713 2034 2713 
Q 2441 2713 2670 2916 
Q 2900 3119 2900 3481 
Q 2900 3844 2670 4047 
Q 2441 4250 2034 4250 
Q 1625 4250 1398 4047 
Q 1172 3844 1172 3481 
z
" transform="scale(0.015625)"/>
       </defs>
       <use xlink:href="#DejaVuSans-32"/>
       <use xlink:href="#DejaVuSans-30" transform="translate(63.623047 0)"/>
       <use xlink:href="#DejaVuSans-30" transform="translate(127.246094 0)"/>
       <use xlink:href="#DejaVuSans-38" transform="translate(190.869141 0)"/>
      </g>
     </g>
    </g>
    <g id="xtick_2">
     <g id="line2d_2">
      <g>
       <use xlink:href="#m678ef75131" x="98.383467" y="307.584" style="stroke: #000000; stroke-width: 0.8"/>
      </g>
     </g>
     <g id="text_2">
      <!-- 2010 -->
      <g transform="translate(85.658467 322.182437) scale(0.1 -0.1)">
       <defs>
        <path id="DejaVuSans-31" d="M 794 531 
L 1825 531 
L 1825 4091 
L 703 3866 
L 703 4441 
L 1819 4666 
L 2450 4666 
L 2450 531 
L 3481 531 
L 3481 0 
L 794 0 
L 794 531 
z
" transform="scale(0.015625)"/>
       </defs>
       <use xlink:href="#DejaVuSans-32"/>
       <use xlink:href="#DejaVuSans-30" transform="translate(63.623047 0)"/>
       <use xlink:href="#DejaVuSans-31" transform="translate(127.246094 0)"/>
       <use xlink:href="#DejaVuSans-30" transform="translate(190.869141 0)"/>
      </g>
     </g>
    </g>
    <g id="xtick_3">
     <g id="line2d_3">
      <g>
       <use xlink:href="#m678ef75131" x="135.18437" y="307.584" style="stroke: #000000; stroke-width: 0.8"/>
      </g>
     </g>
     <g id="text_3">
      <!-- 2012 -->
      <g transform="translate(122.45937 322.182437) scale(0.1 -0.1)">
       <use xlink:href="#DejaVuSans-32"/>
       <use xlink:href="#DejaVuSans-30" transform="translate(63.623047 0)"/>
       <use xlink:href="#DejaVuSans-31" transform="translate(127.246094 0)"/>
       <use xlink:href="#DejaVuSans-32" transform="translate(190.869141 0)"/>
      </g>
     </g>
    </g>
    <g id="xtick_4">
     <g id="line2d_4">
      <g>
       <use xlink:href="#m678ef75131" x="172.035686" y="307.584" style="stroke: #000000; stroke-width: 0.8"/>
      </g>
     </g>
     <g id="text_4">
      <!-- 2014 -->
      <g transform="translate(159.310686 322.182437) scale(0.1 -0.1)">
       <defs>
        <path id="DejaVuSans-34" d="M 2419 4116 
L 825 1625 
L 2419 1625 
L 2419 4116 
z
M 2253 4666 
L 3047 4666 
L 3047 1625 
L 3713 1625 
L 3713 1100 
L 3047 1100 
L 3047 0 
L 2419 0 
L 2419 1100 
L 313 1100 
L 313 1709 
L 2253 4666 
z
" transform="scale(0.015625)"/>
       </defs>
       <use xlink:href="#DejaVuSans-32"/>
       <use xlink:href="#DejaVuSans-30" transform="translate(63.623047 0)"/>
       <use xlink:href="#DejaVuSans-31" transform="translate(127.246094 0)"/>
       <use xlink:href="#DejaVuSans-34" transform="translate(190.869141 0)"/>
      </g>
     </g>
    </g>
    <g id="xtick_5">
     <g id="line2d_5">
      <g>
       <use xlink:href="#m678ef75131" x="208.836589" y="307.584" style="stroke: #000000; stroke-width: 0.8"/>
      </g>
     </g>
     <g id="text_5">
      <!-- 2016 -->
      <g transform="translate(196.111589 322.182437) scale(0.1 -0.1)">
       <defs>
        <path id="DejaVuSans-36" d="M 2113 2584 
Q 1688 2584 1439 2293 
Q 1191 2003 1191 1497 
Q 1191 994 1439 701 
Q 1688 409 2113 409 
Q 2538 409 2786 701 
Q 3034 994 3034 1497 
Q 3034 2003 2786 2293 
Q 2538 2584 2113 2584 
z
M 3366 4563 
L 3366 3988 
Q 3128 4100 2886 4159 
Q 2644 4219 2406 4219 
Q 1781 4219 1451 3797 
Q 1122 3375 1075 2522 
Q 1259 2794 1537 2939 
Q 1816 3084 2150 3084 
Q 2853 3084 3261 2657 
Q 3669 2231 3669 1497 
Q 3669 778 3244 343 
Q 2819 -91 2113 -91 
Q 1303 -91 875 529 
Q 447 1150 447 2328 
Q 447 3434 972 4092 
Q 1497 4750 2381 4750 
Q 2619 4750 2861 4703 
Q 3103 4656 3366 4563 
z
" transform="scale(0.015625)"/>
       </defs>
       <use xlink:href="#DejaVuSans-32"/>
       <use xlink:href="#DejaVuSans-30" transform="translate(63.623047 0)"/>
       <use xlink:href="#DejaVuSans-31" transform="translate(127.246094 0)"/>
       <use xlink:href="#DejaVuSans-36" transform="translate(190.869141 0)"/>
      </g>
     </g>
    </g>
    <g id="xtick_6">
     <g id="line2d_6">
      <g>
       <use xlink:href="#m678ef75131" x="245.687905" y="307.584" style="stroke: #000000; stroke-width: 0.8"/>
      </g>
     </g>
     <g id="text_6">
      <!-- 2018 -->
      <g transform="translate(232.962905 322.182437) scale(0.1 -0.1)">
       <use xlink:href="#DejaVuSans-32"/>
       <use xlink:href="#DejaVuSans-30" transform="translate(63.623047 0)"/>
       <use xlink:href="#DejaVuSans-31" transform="translate(127.246094 0)"/>
       <use xlink:href="#DejaVuSans-38" transform="translate(190.869141 0)"/>
      </g>
     </g>
    </g>
    <g id="xtick_7">
     <g id="line2d_7">
      <g>
       <use xlink:href="#m678ef75131" x="282.488809" y="307.584" style="stroke: #000000; stroke-width: 0.8"/>
      </g>
     </g>
     <g id="text_7">
      <!-- 2020 -->
      <g transform="translate(269.763809 322.182437) scale(0.1 -0.1)">
       <use xlink:href="#DejaVuSans-32"/>
       <use xlink:href="#DejaVuSans-30" transform="translate(63.623047 0)"/>
       <use xlink:href="#DejaVuSans-32" transform="translate(127.246094 0)"/>
       <use xlink:href="#DejaVuSans-30" transform="translate(190.869141 0)"/>
      </g>
     </g>
    </g>
    <g id="xtick_8">
     <g id="line2d_8">
      <g>
       <use xlink:href="#m678ef75131" x="319.340124" y="307.584" style="stroke: #000000; stroke-width: 0.8"/>
      </g>
     </g>
     <g id="text_8">
      <!-- 2022 -->
      <g transform="translate(306.615124 322.182437) scale(0.1 -0.1)">
       <use xlink:href="#DejaVuSans-32"/>
       <use xlink:href="#DejaVuSans-30" transform="translate(63.623047 0)"/>
       <use xlink:href="#DejaVuSans-32" transform="translate(127.246094 0)"/>
       <use xlink:href="#DejaVuSans-32" transform="translate(190.869141 0)"/>
      </g>
     </g>
    </g>
    <g id="xtick_9">
     <g id="line2d_9">
      <g>
       <use xlink:href="#m678ef75131" x="356.141028" y="307.584" style="stroke: #000000; stroke-width: 0.8"/>
      </g>
     </g>
     <g id="text_9">
      <!-- 2024 -->
      <g transform="translate(343.416028 322.182437) scale(0.1 -0.1)">
       <use xlink:href="#DejaVuSans-32"/>
       <use xlink:href="#DejaVuSans-30" transform="translate(63.623047 0)"/>
       <use xlink:href="#DejaVuSans-32" transform="translate(127.246094 0)"/>
       <use xlink:href="#DejaVuSans-34" transform="translate(190.869141 0)"/>
      </g>
     </g>
    </g>
    <g id="xtick_10">
     <g id="line2d_10">
      <g>
       <use xlink:href="#m678ef75131" x="392.992343" y="307.584" style="stroke: #000000; stroke-width: 0.8"/>
      </g>
     </g>
     <g id="text_10">
      <!-- 2026 -->
      <g transform="translate(380.267343 322.182437) scale(0.1 -0.1)">
       <use xlink:href="#DejaVuSans-32"/>
       <use xlink:href="#DejaVuSans-30" transform="translate(63.623047 0)"/>
       <use xlink:href="#DejaVuSans-32" transform="translate(127.246094 0)"/>
       <use xlink:href="#DejaVuSans-36" transform="translate(190.869141 0)"/>
      </g>
     </g>
    </g>
    <g id="text_11">
     <!-- Updated 2026-04-23 07:11:40.800219 - Last record 2026-04-20 -->
     <g transform="translate(75.905312 335.860562) scale(0.1 -0.1)">
      <defs>
       <path id="DejaVuSans-55" d="M 556 4666 
L 1191 4666 
L 1191 1831 
Q 1191 1081 1462 751 
Q 1734 422 2344 422 
Q 2950 422 3222 751 
Q 3494 1081 3494 1831 
L 3494 4666 
L 4128 4666 
L 4128 1753 
Q 4128 841 3676 375 
Q 3225 -91 2344 -91 
Q 1459 -91 1007 375 
Q 556 841 556 1753 
L 556 4666 
z
" transform="scale(0.015625)"/>
       <path id="DejaVuSans-70" d="M 1159 525 
L 1159 -1331 
L 581 -1331 
L 581 3500 
L 1159 3500 
L 1159 2969 
Q 1341 3281 1617 3432 
Q 1894 3584 2278 3584 
Q 2916 3584 3314 3078 
Q 3713 2572 3713 1747 
Q 3713 922 3314 415 
Q 2916 -91 2278 -91 
Q 1894 -91 1617 61 
Q 1341 213 1159 525 
z
M 3116 1747 
Q 3116 2381 2855 2742 
Q 2594 3103 2138 3103 
Q 1681 3103 1420 2742 
Q 1159 2381 1159 1747 
Q 1159 1113 1420 752 
Q 1681 391 2138 391 
Q 2594 391 2855 752 
Q 3116 1113 3116 1747 
z
" transform="scale(0.015625)"/>
       <path id="DejaVuSans-64" d="M 2906 2969 
L 2906 4863 
L 3481 4863 
L 3481 0 
L 2906 0 
L 2906 525 
Q 2725 213 2448 61 
Q 2172 -91 1784 -91 
Q 1150 -91 751 415 
Q 353 922 353 1747 
Q 353 2572 751 3078 
Q 1150 3584 1784 3584 
Q 2172 3584 2448 3432 
Q 2725 3281 2906 2969 
z
M 947 1747 
Q 947 1113 1208 752 
Q 1469 391 1925 391 
Q 2381 391 2643 752 
Q 2906 1113 2906 1747 
Q 2906 2381 2643 2742 
Q 2381 3103 1925 3103 
Q 1469 3103 1208 2742 
Q 947 2381 947 1747 
z
" transform="scale(0.015625)"/>
       <path id="DejaVuSans-61" d="M 2194 1759 
Q 1497 1759 1228 1600 
Q 959 1441 959 1056 
Q 959 750 1161 570 
Q 1363 391 1709 391 
Q 2188 391 2477 730 
Q 2766 1069 2766 1631 
L 2766 1759 
L 2194 1759 
z
M 3341 1997 
L 3341 0 
L 2766 0 
L 2766 531 
Q 2569 213 2275 61 
Q 1981 -91 1556 -91 
Q 1019 -91 701 211 
Q 384 513 384 1019 
Q 384 1609 779 1909 
Q 1175 2209 1959 2209 
L 2766 2209 
L 2766 2266 
Q 2766 2663 2505 2880 
Q 2244 3097 1772 3097 
Q 1472 3097 1187 3025 
Q 903 2953 641 2809 
L 641 3341 
Q 956 3463 1253 3523 
Q 1550 3584 1831 3584 
Q 2591 3584 2966 3190 
Q 3341 2797 3341 1997 
z
" transform="scale(0.015625)"/>
       <path id="DejaVuSans-74" d="M 1172 4494 
L 1172 3500 
L 2356 3500 
L 2356 3053 
L 1172 3053 
L 1172 1153 
Q 1172 725 1289 603 
Q 1406 481 1766 481 
L 2356 481 
L 2356 0 
L 1766 0 
Q 1100 0 847 248 
Q 594 497 594 1153 
L 594 3053 
L 172 3053 
L 172 3500 
L 594 3500 
L 594 4494 
L 1172 4494 
z
" transform="scale(0.015625)"/>
       <path id="DejaVuSans-65" d="M 3597 1894 
L 3597 1613 
L 953 1613 
Q 991 1019 1311 708 
Q 1631 397 2203 397 
Q 2534 397 2845 478 
Q 3156 559 3463 722 
L 3463 178 
Q 3153 47 2828 -22 
Q 2503 -91 2169 -91 
Q 1331 -91 842 396 
Q 353 884 353 1716 
Q 353 2575 817 3079 
Q 1281 3584 2069 3584 
Q 2775 3584 3186 3129 
Q 3597 2675 3597 1894 
z
M 3022 2063 
Q 3016 2534 2758 2815 
Q 2500 3097 2075 3097 
Q 1594 3097 1305 2825 
Q 1016 2553 972 2059 
L 3022 2063 
z
" transform="scale(0.015625)"/>
       <path id="DejaVuSans-20" transform="scale(0.015625)"/>
       <path id="DejaVuSans-2d" d="M 313 2009 
L 1997 2009 
L 1997 1497 
L 313 1497 
L 313 2009 
z
" transform="scale(0.015625)"/>
       <path id="DejaVuSans-33" d="M 2597 2516 
Q 3050 2419 3304 2112 
Q 3559 1806 3559 1356 
Q 3559 666 3084 287 
Q 2609 -91 1734 -91 
Q 1441 -91 1130 -33 
Q 819 25 488 141 
L 488 750 
Q 750 597 1062 519 
Q 1375 441 1716 441 
Q 2309 441 2620 675 
Q 2931 909 2931 1356 
Q 2931 1769 2642 2001 
Q 2353 2234 1838 2234 
L 1294 2234 
L 1294 2753 
L 1863 2753 
Q 2328 2753 2575 2939 
Q 2822 3125 2822 3475 
Q 2822 3834 2567 4026 
Q 2313 4219 1838 4219 
Q 1578 4219 1281 4162 
Q 984 4106 628 3988 
L 628 4550 
Q 988 4650 1302 4700 
Q 1616 4750 1894 4750 
Q 2613 4750 3031 4423 
Q 3450 4097 3450 3541 
Q 3450 3153 3228 2886 
Q 3006 2619 2597 2516 
z
" transform="scale(0.015625)"/>
       <path id="DejaVuSans-37" d="M 525 4666 
L 3525 4666 
L 3525 4397 
L 1831 0 
L 1172 0 
L 2766 4134 
L 525 4134 
L 525 4666 
z
" transform="scale(0.015625)"/>
       <path id="DejaVuSans-3a" d="M 750 794 
L 1409 794 
L 1409 0 
L 750 0 
L 750 794 
z
M 750 3309 
L 1409 3309 
L 1409 2516 
L 750 2516 
L 750 3309 
z
" transform="scale(0.015625)"/>
       <path id="DejaVuSans-2e" d="M 684 794 
L 1344 794 
L 1344 0 
L 684 0 
L 684 794 
z
" transform="scale(0.015625)"/>
       <path id="DejaVuSans-39" d="M 703 97 
L 703 672 
Q 941 559 1184 500 
Q 1428 441 1663 441 
Q 2288 441 2617 861 
Q 2947 1281 2994 2138 
Q 2813 1869 2534 1725 
Q 2256 1581 1919 1581 
Q 1219 1581 811 2004 
Q 403 2428 403 3163 
Q 403 3881 828 4315 
Q 1253 4750 1959 4750 
Q 2769 4750 3195 4129 
Q 3622 3509 3622 2328 
Q 3622 1225 3098 567 
Q 2575 -91 1691 -91 
Q 1453 -91 1209 -44 
Q 966 3 703 97 
z
M 1959 2075 
Q 2384 2075 2632 2365 
Q 2881 2656 2881 3163 
Q 2881 3666 2632 3958 
Q 2384 4250 1959 4250 
Q 1534 4250 1286 3958 
Q 1038 3666 1038 3163 
Q 1038 2656 1286 2365 
Q 1534 2075 1959 2075 
z
" transform="scale(0.015625)"/>
       <path id="DejaVuSans-4c" d="M 628 4666 
L 1259 4666 
L 1259 531 
L 3531 531 
L 3531 0 
L 628 0 
L 628 4666 
z
" transform="scale(0.015625)"/>
       <path id="DejaVuSans-73" d="M 2834 3397 
L 2834 2853 
Q 2591 2978 2328 3040 
Q 2066 3103 1784 3103 
Q 1356 3103 1142 2972 
Q 928 2841 928 2578 
Q 928 2378 1081 2264 
Q 1234 2150 1697 2047 
L 1894 2003 
Q 2506 1872 2764 1633 
Q 3022 1394 3022 966 
Q 3022 478 2636 193 
Q 2250 -91 1575 -91 
Q 1294 -91 989 -36 
Q 684 19 347 128 
L 347 722 
Q 666 556 975 473 
Q 1284 391 1588 391 
Q 1994 391 2212 530 
Q 2431 669 2431 922 
Q 2431 1156 2273 1281 
Q 2116 1406 1581 1522 
L 1381 1569 
Q 847 1681 609 1914 
Q 372 2147 372 2553 
Q 372 3047 722 3315 
Q 1072 3584 1716 3584 
Q 2034 3584 2315 3537 
Q 2597 3491 2834 3397 
z
" transform="scale(0.015625)"/>
       <path id="DejaVuSans-72" d="M 2631 2963 
Q 2534 3019 2420 3045 
Q 2306 3072 2169 3072 
Q 1681 3072 1420 2755 
Q 1159 2438 1159 1844 
L 1159 0 
L 581 0 
L 581 3500 
L 1159 3500 
L 1159 2956 
Q 1341 3275 1631 3429 
Q 1922 3584 2338 3584 
Q 2397 3584 2469 3576 
Q 2541 3569 2628 3553 
L 2631 2963 
z
" transform="scale(0.015625)"/>
       <path id="DejaVuSans-63" d="M 3122 3366 
L 3122 2828 
Q 2878 2963 2633 3030 
Q 2388 3097 2138 3097 
Q 1578 3097 1268 2742 
Q 959 2388 959 1747 
Q 959 1106 1268 751 
Q 1578 397 2138 397 
Q 2388 397 2633 464 
Q 2878 531 3122 666 
L 3122 134 
Q 2881 22 2623 -34 
Q 2366 -91 2075 -91 
Q 1284 -91 818 406 
Q 353 903 353 1747 
Q 353 2603 823 3093 
Q 1294 3584 2113 3584 
Q 2378 3584 2631 3529 
Q 2884 3475 3122 3366 
z
" transform="scale(0.015625)"/>
       <path id="DejaVuSans-6f" d="M 1959 3097 
Q 1497 3097 1228 2736 
Q 959 2375 959 1747 
Q 959 1119 1226 758 
Q 1494 397 1959 397 
Q 2419 397 2687 759 
Q 2956 1122 2956 1747 
Q 2956 2369 2687 2733 
Q 2419 3097 1959 3097 
z
M 1959 3584 
Q 2709 3584 3137 3096 
Q 3566 2609 3566 1747 
Q 3566 888 3137 398 
Q 2709 -91 1959 -91 
Q 1206 -91 779 398 
Q 353 888 353 1747 
Q 353 2609 779 3096 
Q 1206 3584 1959 3584 
z
" transform="scale(0.015625)"/>
      </defs>
      <use xlink:href="#DejaVuSans-55"/>
      <use xlink:href="#DejaVuSans-70" transform="translate(73.193359 0)"/>
      <use xlink:href="#DejaVuSans-64" transform="translate(136.669922 0)"/>
      <use xlink:href="#DejaVuSans-61" transform="translate(200.146484 0)"/>
      <use xlink:href="#DejaVuSans-74" transform="translate(261.425781 0)"/>
      <use xlink:href="#DejaVuSans-65" transform="translate(300.634766 0)"/>
      <use xlink:href="#DejaVuSans-64" transform="translate(362.158203 0)"/>
      <use xlink:href="#DejaVuSans-20" transform="translate(425.634766 0)"/>
      <use xlink:href="#DejaVuSans-32" transform="translate(457.421875 0)"/>
      <use xlink:href="#DejaVuSans-30" transform="translate(521.044922 0)"/>
      <use xlink:href="#DejaVuSans-32" transform="translate(584.667969 0)"/>
      <use xlink:href="#DejaVuSans-36" transform="translate(648.291016 0)"/>
      <use xlink:href="#DejaVuSans-2d" transform="translate(711.914062 0)"/>
      <use xlink:href="#DejaVuSans-30" transform="translate(747.998047 0)"/>
      <use xlink:href="#DejaVuSans-34" transform="translate(811.621094 0)"/>
      <use xlink:href="#DejaVuSans-2d" transform="translate(875.244141 0)"/>
      <use xlink:href="#DejaVuSans-32" transform="translate(911.328125 0)"/>
      <use xlink:href="#DejaVuSans-33" transform="translate(974.951172 0)"/>
      <use xlink:href="#DejaVuSans-20" transform="translate(1038.574219 0)"/>
      <use xlink:href="#DejaVuSans-30" transform="translate(1070.361328 0)"/>
      <use xlink:href="#DejaVuSans-37" transform="translate(1133.984375 0)"/>
      <use xlink:href="#DejaVuSans-3a" transform="translate(1197.607422 0)"/>
      <use xlink:href="#DejaVuSans-31" transform="translate(1231.298828 0)"/>
      <use xlink:href="#DejaVuSans-31" transform="translate(1294.921875 0)"/>
      <use xlink:href="#DejaVuSans-3a" transform="translate(1358.544922 0)"/>
      <use xlink:href="#DejaVuSans-34" transform="translate(1392.236328 0)"/>
      <use xlink:href="#DejaVuSans-30" transform="translate(1455.859375 0)"/>
      <use xlink:href="#DejaVuSans-2e" transform="translate(1519.482422 0)"/>
      <use xlink:href="#DejaVuSans-38" transform="translate(1551.269531 0)"/>
      <use xlink:href="#DejaVuSans-30" transform="translate(1614.892578 0)"/>
      <use xlink:href="#DejaVuSans-30" transform="translate(1678.515625 0)"/>
      <use xlink:href="#DejaVuSans-32" transform="translate(1742.138672 0)"/>
      <use xlink:href="#DejaVuSans-31" transform="translate(1805.761719 0)"/>
      <use xlink:href="#DejaVuSans-39" transform="translate(1869.384766 0)"/>
      <use xlink:href="#DejaVuSans-20" transform="translate(1933.007812 0)"/>
      <use xlink:href="#DejaVuSans-2d" transform="translate(1964.794922 0)"/>
      <use xlink:href="#DejaVuSans-20" transform="translate(2000.878906 0)"/>
      <use xlink:href="#DejaVuSans-4c" transform="translate(2032.666016 0)"/>
      <use xlink:href="#DejaVuSans-61" transform="translate(2088.378906 0)"/>
      <use xlink:href="#DejaVuSans-73" transform="translate(2149.658203 0)"/>
      <use xlink:href="#DejaVuSans-74" transform="translate(2201.757812 0)"/>
      <use xlink:href="#DejaVuSans-20" transform="translate(2240.966797 0)"/>
      <use xlink:href="#DejaVuSans-72" transform="translate(2272.753906 0)"/>
      <use xlink:href="#DejaVuSans-65" transform="translate(2311.617188 0)"/>
      <use xlink:href="#DejaVuSans-63" transform="translate(2373.140625 0)"/>
      <use xlink:href="#DejaVuSans-6f" transform="translate(2428.121094 0)"/>
      <use xlink:href="#DejaVuSans-72" transform="translate(2489.302734 0)"/>
      <use xlink:href="#DejaVuSans-64" transform="translate(2528.666016 0)"/>
      <use xlink:href="#DejaVuSans-20" transform="translate(2592.142578 0)"/>
      <use xlink:href="#DejaVuSans-32" transform="translate(2623.929688 0)"/>
      <use xlink:href="#DejaVuSans-30" transform="translate(2687.552734 0)"/>
      <use xlink:href="#DejaVuSans-32" transform="translate(2751.175781 0)"/>
      <use xlink:href="#DejaVuSans-36" transform="translate(2814.798828 0)"/>
      <use xlink:href="#DejaVuSans-2d" transform="translate(2878.421875 0)"/>
      <use xlink:href="#DejaVuSans-30" transform="translate(2914.505859 0)"/>
      <use xlink:href="#DejaVuSans-34" transform="translate(2978.128906 0)"/>
      <use xlink:href="#DejaVuSans-2d" transform="translate(3041.751953 0)"/>
      <use xlink:href="#DejaVuSans-32" transform="translate(3077.835938 0)"/>
      <use xlink:href="#DejaVuSans-30" transform="translate(3141.458984 0)"/>
     </g>
    </g>
   </g>
   <g id="matplotlib.axis_2">
    <g id="ytick_1">
     <g id="line2d_11">
      <defs>
       <path id="mb6baeba291" d="M 0 0 
L -3.5 0 
" style="stroke: #000000; stroke-width: 0.8"/>
      </defs>
      <g>
       <use xlink:href="#mb6baeba291" x="57.6" y="295.488" style="stroke: #000000; stroke-width: 0.8"/>
      </g>
     </g>
     <g id="text_12">
      <!-- 0 -->
      <g transform="translate(44.2375 299.287219) scale(0.1 -0.1)">
       <use xlink:href="#DejaVuSans-30"/>
      </g>
     </g>
    </g>
    <g id="ytick_2">
     <g id="line2d_12">
      <g>
       <use xlink:href="#mb6baeba291" x="57.6" y="247.258052" style="stroke: #000000; stroke-width: 0.8"/>
      </g>
     </g>
     <g id="text_13">
      <!-- 10 -->
      <g transform="translate(37.875 251.057271) scale(0.1 -0.1)">
       <use xlink:href="#DejaVuSans-31"/>
       <use xlink:href="#DejaVuSans-30" transform="translate(63.623047 0)"/>
      </g>
     </g>
    </g>
    <g id="ytick_3">
     <g id="line2d_13">
      <g>
       <use xlink:href="#mb6baeba291" x="57.6" y="199.028104" style="stroke: #000000; stroke-width: 0.8"/>
      </g>
     </g>
     <g id="text_14">
      <!-- 20 -->
      <g transform="translate(37.875 202.827323) scale(0.1 -0.1)">
       <use xlink:href="#DejaVuSans-32"/>
       <use xlink:href="#DejaVuSans-30" transform="translate(63.623047 0)"/>
      </g>
     </g>
    </g>
    <g id="ytick_4">
     <g id="line2d_14">
      <g>
       <use xlink:href="#mb6baeba291" x="57.6" y="150.798157" style="stroke: #000000; stroke-width: 0.8"/>
      </g>
     </g>
     <g id="text_15">
      <!-- 30 -->
      <g transform="translate(37.875 154.597375) scale(0.1 -0.1)">
       <use xlink:href="#DejaVuSans-33"/>
       <use xlink:href="#DejaVuSans-30" transform="translate(63.623047 0)"/>
      </g>
     </g>
    </g>
    <g id="ytick_5">
     <g id="line2d_15">
      <g>
       <use xlink:href="#mb6baeba291" x="57.6" y="102.568209" style="stroke: #000000; stroke-width: 0.8"/>
      </g>
     </g>
     <g id="text_16">
      <!-- 40 -->
      <g transform="translate(37.875 106.367428) scale(0.1 -0.1)">
       <use xlink:href="#DejaVuSans-34"/>
       <use xlink:href="#DejaVuSans-30" transform="translate(63.623047 0)"/>
      </g>
     </g>
    </g>
    <g id="ytick_6">
     <g id="line2d_16">
      <g>
       <use xlink:href="#mb6baeba291" x="57.6" y="54.338261" style="stroke: #000000; stroke-width: 0.8"/>
      </g>
     </g>
     <g id="text_17">
      <!-- 50 -->
      <g transform="translate(37.875 58.13748) scale(0.1 -0.1)">
       <defs>
        <path id="DejaVuSans-35" d="M 691 4666 
L 3169 4666 
L 3169 4134 
L 1269 4134 
L 1269 2991 
Q 1406 3038 1543 3061 
Q 1681 3084 1819 3084 
Q 2600 3084 3056 2656 
Q 3513 2228 3513 1497 
Q 3513 744 3044 326 
Q 2575 -91 1722 -91 
Q 1428 -91 1123 -41 
Q 819 9 494 109 
L 494 744 
Q 775 591 1075 516 
Q 1375 441 1709 441 
Q 2250 441 2565 725 
Q 2881 1009 2881 1497 
Q 2881 1984 2565 2268 
Q 2250 2553 1709 2553 
Q 1456 2553 1204 2497 
Q 953 2441 691 2322 
L 691 4666 
z
" transform="scale(0.015625)"/>
       </defs>
       <use xlink:href="#DejaVuSans-35"/>
       <use xlink:href="#DejaVuSans-30" transform="translate(63.623047 0)"/>
      </g>
     </g>
    </g>
    <g id="text_18">
     <!-- IPv6 as % of total Google traffic -->
     <g transform="translate(31.795312 253.735813) rotate(-90) scale(0.1 -0.1)">
      <defs>
       <path id="DejaVuSans-49" d="M 628 4666 
L 1259 4666 
L 1259 0 
L 628 0 
L 628 4666 
z
" transform="scale(0.015625)"/>
       <path id="DejaVuSans-50" d="M 1259 4147 
L 1259 2394 
L 2053 2394 
Q 2494 2394 2734 2622 
Q 2975 2850 2975 3272 
Q 2975 3691 2734 3919 
Q 2494 4147 2053 4147 
L 1259 4147 
z
M 628 4666 
L 2053 4666 
Q 2838 4666 3239 4311 
Q 3641 3956 3641 3272 
Q 3641 2581 3239 2228 
Q 2838 1875 2053 1875 
L 1259 1875 
L 1259 0 
L 628 0 
L 628 4666 
z
" transform="scale(0.015625)"/>
       <path id="DejaVuSans-76" d="M 191 3500 
L 800 3500 
L 1894 563 
L 2988 3500 
L 3597 3500 
L 2284 0 
L 1503 0 
L 191 3500 
z
" transform="scale(0.015625)"/>
       <path id="DejaVuSans-25" d="M 4653 2053 
Q 4381 2053 4226 1822 
Q 4072 1591 4072 1178 
Q 4072 772 4226 539 
Q 4381 306 4653 306 
Q 4919 306 5073 539 
Q 5228 772 5228 1178 
Q 5228 1588 5073 1820 
Q 4919 2053 4653 2053 
z
M 4653 2450 
Q 5147 2450 5437 2106 
Q 5728 1763 5728 1178 
Q 5728 594 5436 251 
Q 5144 -91 4653 -91 
Q 4153 -91 3862 251 
Q 3572 594 3572 1178 
Q 3572 1766 3864 2108 
Q 4156 2450 4653 2450 
z
M 1428 4353 
Q 1159 4353 1004 4120 
Q 850 3888 850 3481 
Q 850 3069 1003 2837 
Q 1156 2606 1428 2606 
Q 1700 2606 1854 2837 
Q 2009 3069 2009 3481 
Q 2009 3884 1853 4118 
Q 1697 4353 1428 4353 
z
M 4250 4750 
L 4750 4750 
L 1831 -91 
L 1331 -91 
L 4250 4750 
z
M 1428 4750 
Q 1922 4750 2215 4408 
Q 2509 4066 2509 3481 
Q 2509 2891 2217 2550 
Q 1925 2209 1428 2209 
Q 931 2209 642 2551 
Q 353 2894 353 3481 
Q 353 4063 643 4406 
Q 934 4750 1428 4750 
z
" transform="scale(0.015625)"/>
       <path id="DejaVuSans-66" d="M 2375 4863 
L 2375 4384 
L 1825 4384 
Q 1516 4384 1395 4259 
Q 1275 4134 1275 3809 
L 1275 3500 
L 2222 3500 
L 2222 3053 
L 1275 3053 
L 1275 0 
L 697 0 
L 697 3053 
L 147 3053 
L 147 3500 
L 697 3500 
L 697 3744 
Q 697 4328 969 4595 
Q 1241 4863 1831 4863 
L 2375 4863 
z
" transform="scale(0.015625)"/>
       <path id="DejaVuSans-6c" d="M 603 4863 
L 1178 4863 
L 1178 0 
L 603 0 
L 603 4863 
z
" transform="scale(0.015625)"/>
       <path id="DejaVuSans-47" d="M 3809 666 
L 3809 1919 
L 2778 1919 
L 2778 2438 
L 4434 2438 
L 4434 434 
Q 4069 175 3628 42 
Q 3188 -91 2688 -91 
Q 1594 -91 976 548 
Q 359 1188 359 2328 
Q 359 3472 976 4111 
Q 1594 4750 2688 4750 
Q 3144 4750 3555 4637 
Q 3966 4525 4313 4306 
L 4313 3634 
Q 3963 3931 3569 4081 
Q 3175 4231 2741 4231 
Q 1884 4231 1454 3753 
Q 1025 3275 1025 2328 
Q 1025 1384 1454 906 
Q 1884 428 2741 428 
Q 3075 428 3337 486 
Q 3600 544 3809 666 
z
" transform="scale(0.015625)"/>
       <path id="DejaVuSans-67" d="M 2906 1791 
Q 2906 2416 2648 2759 
Q 2391 3103 1925 3103 
Q 1463 3103 1205 2759 
Q 947 2416 947 1791 
Q 947 1169 1205 825 
Q 1463 481 1925 481 
Q 2391 481 2648 825 
Q 2906 1169 2906 1791 
z
M 3481 434 
Q 3481 -459 3084 -895 
Q 2688 -1331 1869 -1331 
Q 1566 -1331 1297 -1286 
Q 1028 -1241 775 -1147 
L 775 -588 
Q 1028 -725 1275 -790 
Q 1522 -856 1778 -856 
Q 2344 -856 2625 -561 
Q 2906 -266 2906 331 
L 2906 616 
Q 2728 306 2450 153 
Q 2172 0 1784 0 
Q 1141 0 747 490 
Q 353 981 353 1791 
Q 353 2603 747 3093 
Q 1141 3584 1784 3584 
Q 2172 3584 2450 3431 
Q 2728 3278 2906 2969 
L 2906 3500 
L 3481 3500 
L 3481 434 
z
" transform="scale(0.015625)"/>
       <path id="DejaVuSans-69" d="M 603 3500 
L 1178 3500 
L 1178 0 
L 603 0 
L 603 3500 
z
M 603 4863 
L 1178 4863 
L 1178 4134 
L 603 4134 
L 603 4863 
z
" transform="scale(0.015625)"/>
      </defs>
      <use xlink:href="#DejaVuSans-49"/>
      <use xlink:href="#DejaVuSans-50" transform="translate(29.492188 0)"/>
      <use xlink:href="#DejaVuSans-76" transform="translate(89.794922 0)"/>
      <use xlink:href="#DejaVuSans-36" transform="translate(148.974609 0)"/>
      <use xlink:href="#DejaVuSans-20" transform="translate(212.597656 0)"/>
      <use xlink:href="#DejaVuSans-61" transform="translate(244.384766 0)"/>
      <use xlink:href="#DejaVuSans-73" transform="translate(305.664062 0)"/>
      <use xlink:href="#DejaVuSans-20" transform="translate(357.763672 0)"/>
      <use xlink:href="#DejaVuSans-25" transform="translate(389.550781 0)"/>
      <use xlink:href="#DejaVuSans-20" transform="translate(484.570312 0)"/>
      <use xlink:href="#DejaVuSans-6f" transform="translate(516.357422 0)"/>
      <use xlink:href="#DejaVuSans-66" transform="translate(577.539062 0)"/>
      <use xlink:href="#DejaVuSans-20" transform="translate(612.744141 0)"/>
      <use xlink:href="#DejaVuSans-74" transform="translate(644.53125 0)"/>
      <use xlink:href="#DejaVuSans-6f" transform="translate(683.740234 0)"/>
      <use xlink:href="#DejaVuSans-74" transform="translate(744.921875 0)"/>
      <use xlink:href="#DejaVuSans-61" transform="translate(784.130859 0)"/>
      <use xlink:href="#DejaVuSans-6c" transform="translate(845.410156 0)"/>
      <use xlink:href="#DejaVuSans-20" transform="translate(873.193359 0)"/>
      <use xlink:href="#DejaVuSans-47" transform="translate(904.980469 0)"/>
      <use xlink:href="#DejaVuSans-6f" transform="translate(982.470703 0)"/>
      <use xlink:href="#DejaVuSans-6f" transform="translate(1043.652344 0)"/>
      <use xlink:href="#DejaVuSans-67" transform="translate(1104.833984 0)"/>
      <use xlink:href="#DejaVuSans-6c" transform="translate(1168.310547 0)"/>
      <use xlink:href="#DejaVuSans-65" transform="translate(1196.09375 0)"/>
      <use xlink:href="#DejaVuSans-20" transform="translate(1257.617188 0)"/>
      <use xlink:href="#DejaVuSans-74" transform="translate(1289.404297 0)"/>
      <use xlink:href="#DejaVuSans-72" transform="translate(1328.613281 0)"/>
      <use xlink:href="#DejaVuSans-61" transform="translate(1369.726562 0)"/>
      <use xlink:href="#DejaVuSans-66" transform="translate(1431.005859 0)"/>
      <use xlink:href="#DejaVuSans-66" transform="translate(1466.210938 0)"/>
      <use xlink:href="#DejaVuSans-69" transform="translate(1501.416016 0)"/>
      <use xlink:href="#DejaVuSans-63" transform="translate(1529.199219 0)"/>
     </g>
    </g>
   </g>
   <g id="line2d_17">
    <path d="M 73.832727 294.609284 
L 75.244269 294.460355 
L 75.597154 294.60217 
L 77.361581 294.575518 
L 78.420237 294.472277 
L 78.773123 294.357963 
L 79.831779 294.376927 
L 83.007747 294.308484 
L 84.066403 294.333549 
L 85.477945 294.265458 
L 88.301028 294.324496 
L 89.006798 294.399074 
L 91.476996 294.350453 
L 92.888538 294.263885 
L 93.594308 294.27179 
L 93.947194 294.036988 
L 96.064506 293.956444 
L 97.123162 293.959815 
L 98.181818 294.045568 
L 99.240474 294.00286 
L 100.29913 294.045818 
L 102.063557 294.016273 
L 103.122213 294.187325 
L 104.18087 294.14005 
L 104.88664 294.215892 
L 105.592411 294.288405 
L 105.945296 294.216065 
L 108.062609 294.413707 
L 109.827036 294.335454 
L 110.885692 294.162554 
L 111.944348 294.146132 
L 113.003004 294.10707 
L 115.826087 294.213229 
L 116.531858 294.277862 
L 117.237628 294.282242 
L 120.060711 294.128272 
L 120.413597 294.133423 
L 120.766482 294.023748 
L 121.472253 294.115487 
L 122.178024 293.945206 
L 122.530909 293.987537 
L 122.883794 293.882999 
L 123.23668 293.928769 
L 123.942451 293.831494 
L 125.001107 293.817647 
L 125.353992 293.937668 
L 126.765534 293.964778 
L 127.471304 293.977665 
L 127.82419 293.943581 
L 128.52996 293.739804 
L 128.882846 293.626305 
L 131.353043 293.762053 
L 133.823241 293.323204 
L 134.529012 293.4564 
L 137.352095 293.03242 
L 137.70498 293.128991 
L 139.822292 292.667108 
L 140.528063 292.682218 
L 141.586719 292.369693 
L 143.351146 291.935975 
L 144.409802 291.824477 
L 144.762688 291.915555 
L 146.527115 291.572987 
L 147.585771 291.234509 
L 147.938656 291.28572 
L 148.291542 290.981862 
L 148.997312 290.800006 
L 149.350198 290.847257 
L 150.055968 290.658552 
L 150.408854 290.801076 
L 151.114625 290.628944 
L 151.46751 290.586246 
L 152.173281 290.272457 
L 152.879051 290.216365 
L 153.231937 290.247464 
L 153.584822 290.157539 
L 153.937708 290.201308 
L 154.643478 290.012377 
L 155.702134 289.873166 
L 156.05502 289.691151 
L 156.407905 289.673595 
L 156.760791 289.767711 
L 158.172332 289.087259 
L 158.525217 289.102847 
L 159.936759 288.67497 
L 160.289644 288.388224 
L 161.701186 288.049736 
L 162.406957 287.738127 
L 162.759842 287.81518 
L 163.112727 287.600696 
L 163.465613 287.563 
L 165.23004 286.555355 
L 166.288696 286.020268 
L 166.994466 285.278747 
L 167.700237 284.383498 
L 168.053123 284.594991 
L 168.406008 284.631579 
L 169.464664 283.370086 
L 169.817549 283.218822 
L 170.170435 282.581189 
L 171.229091 282.201585 
L 171.581976 281.957865 
L 171.934862 282.002096 
L 172.993518 281.305796 
L 173.346403 281.157903 
L 173.699289 280.884401 
L 174.405059 280.819594 
L 174.757945 280.200013 
L 175.11083 280.191848 
L 175.463715 279.510663 
L 175.816601 279.15788 
L 176.522372 279.259134 
L 177.933913 278.16619 
L 178.286798 277.761898 
L 178.639684 278.009771 
L 180.051225 277.216538 
L 180.404111 276.923237 
L 180.756996 275.717956 
L 181.109881 275.94659 
L 181.815652 275.128147 
L 182.168538 275.093007 
L 182.521423 275.446827 
L 183.580079 274.641743 
L 183.932964 274.095568 
L 184.638735 274.137678 
L 184.991621 273.546702 
L 185.344506 273.506024 
L 185.697391 270.375163 
L 186.050277 272.435107 
L 186.403162 273.662251 
L 186.756047 273.06597 
L 187.108933 272.732754 
L 187.461818 272.679055 
L 187.814704 271.894821 
L 188.167589 271.64909 
L 189.226245 269.946934 
L 189.57913 268.835528 
L 190.637787 266.77131 
L 190.990672 267.679422 
L 191.343557 267.540448 
L 191.696443 267.56559 
L 192.049328 267.712291 
L 192.402213 267.986218 
L 192.755099 267.881708 
L 193.107984 265.878994 
L 193.46087 266.175222 
L 194.519526 265.119922 
L 194.872411 264.977885 
L 195.578182 265.040333 
L 195.931067 263.526453 
L 196.283953 263.471316 
L 196.989723 262.276598 
L 197.342609 262.683924 
L 197.695494 260.819204 
L 198.048379 261.259958 
L 198.401265 260.001162 
L 198.75415 259.398384 
L 199.107036 258.493291 
L 199.459921 259.121824 
L 199.812806 258.169721 
L 200.165692 256.585782 
L 200.518577 257.383939 
L 200.871462 257.611474 
L 201.224348 257.119808 
L 201.577233 255.671511 
L 201.930119 256.073821 
L 202.283004 254.79512 
L 202.635889 255.089679 
L 203.694545 252.491402 
L 204.753202 252.217109 
L 205.106087 251.208312 
L 205.458972 251.331071 
L 205.811858 250.95264 
L 206.164743 249.952809 
L 206.517628 249.699047 
L 207.223399 247.814703 
L 207.576285 247.679635 
L 207.92917 247.868277 
L 208.282055 247.380629 
L 208.634941 245.303268 
L 209.340711 246.521779 
L 209.693597 246.287709 
L 210.399368 246.217568 
L 210.752253 246.258839 
L 211.458024 246.008197 
L 211.810909 244.839402 
L 212.163794 244.784073 
L 212.51668 243.747529 
L 212.869565 243.744616 
L 213.222451 243.587155 
L 214.281107 240.622552 
L 214.633992 238.876435 
L 214.986877 240.068858 
L 215.339763 239.569065 
L 215.692648 238.536004 
L 216.045534 238.765955 
L 216.398419 236.560389 
L 216.751304 236.883974 
L 217.10419 236.613534 
L 217.457075 235.074569 
L 217.80996 235.060004 
L 218.162846 233.912874 
L 218.515731 234.189082 
L 218.868617 233.281761 
L 219.221502 232.799765 
L 219.574387 233.055833 
L 219.927273 232.434559 
L 220.280158 231.465334 
L 220.633043 231.775168 
L 220.985929 231.315493 
L 221.338814 229.790236 
L 221.6917 229.152395 
L 222.044585 229.21206 
L 222.39747 227.428415 
L 222.750356 227.745604 
L 223.456126 225.621196 
L 223.809012 223.501297 
L 224.161897 223.710822 
L 224.867668 222.51879 
L 225.220553 221.183148 
L 225.573439 221.361705 
L 225.926324 220.801953 
L 226.279209 218.690099 
L 226.632095 217.949147 
L 226.98498 214.447788 
L 227.337866 216.724246 
L 227.690751 216.311514 
L 228.043636 216.854404 
L 228.396522 216.216896 
L 229.102292 217.252263 
L 229.455178 217.045858 
L 229.808063 216.138262 
L 230.160949 216.411215 
L 230.866719 215.255273 
L 231.219605 214.297446 
L 231.57249 214.145545 
L 231.925375 213.498068 
L 232.278261 211.169743 
L 232.631146 211.900364 
L 232.984032 208.778092 
L 233.336917 209.019782 
L 233.689802 207.322633 
L 234.042688 206.276569 
L 235.101344 204.352652 
L 235.454229 202.778171 
L 235.807115 200.182295 
L 236.16 200.837813 
L 237.571542 197.881302 
L 237.924427 197.395072 
L 238.277312 197.413477 
L 238.630198 197.68136 
L 238.983083 196.761495 
L 239.335968 195.472299 
L 239.688854 196.627242 
L 240.041739 196.649534 
L 240.394625 197.678457 
L 240.74751 196.552423 
L 241.100395 194.801738 
L 241.453281 195.026065 
L 241.806166 194.270264 
L 243.570593 192.185437 
L 243.923478 192.089802 
L 244.276364 204.891154 
L 244.629249 190.464665 
L 244.982134 189.772233 
L 245.33502 186.273864 
L 245.687905 189.519532 
L 246.393676 189.045277 
L 246.746561 189.042981 
L 247.099447 188.608637 
L 247.452332 188.394587 
L 247.805217 189.583663 
L 248.158103 190.337492 
L 248.510988 190.154238 
L 248.863874 189.132964 
L 249.216759 189.206297 
L 250.275415 188.34752 
L 250.6283 186.053173 
L 250.981186 186.958758 
L 251.334071 184.528856 
L 251.686957 185.553453 
L 252.039842 183.513876 
L 252.392727 182.240379 
L 252.745613 182.991266 
L 253.098498 181.429527 
L 253.451383 180.392554 
L 253.804269 180.172057 
L 254.157154 181.019818 
L 254.51004 181.467011 
L 255.568696 179.176672 
L 255.921581 179.703387 
L 256.274466 180.462444 
L 256.627352 180.609632 
L 256.980237 178.872501 
L 257.333123 178.225467 
L 257.686008 176.966207 
L 258.391779 176.479586 
L 258.744664 176.611365 
L 259.097549 176.445261 
L 259.80332 174.715465 
L 260.156206 175.724657 
L 260.509091 172.527755 
L 260.861976 172.609982 
L 261.214862 172.220139 
L 261.567747 169.888486 
L 261.920632 169.188892 
L 262.273518 168.768394 
L 262.626403 168.771457 
L 262.979289 167.507364 
L 263.332174 167.421192 
L 264.037945 165.422523 
L 264.39083 166.741757 
L 264.743715 167.591482 
L 265.449486 165.567917 
L 265.802372 166.560403 
L 266.155257 166.378933 
L 266.508142 166.810948 
L 266.861028 165.283539 
L 267.213913 164.750608 
L 267.566798 165.905382 
L 267.919684 164.247738 
L 268.272569 164.380371 
L 268.625455 163.907529 
L 269.331225 163.724226 
L 269.684111 160.449857 
L 270.036996 160.354477 
L 270.389881 160.612898 
L 270.742767 161.404892 
L 271.448538 157.583782 
L 271.801423 155.898131 
L 272.154308 155.470283 
L 272.507194 155.61724 
L 272.860079 155.309591 
L 273.212964 153.635163 
L 273.56585 155.015986 
L 273.918735 153.545807 
L 274.271621 154.910093 
L 274.624506 153.93209 
L 274.977391 153.340087 
L 275.330277 153.290719 
L 275.683162 153.357416 
L 276.036047 152.082525 
L 276.388933 152.227379 
L 276.741818 153.60718 
L 277.094704 153.139648 
L 277.447589 153.705627 
L 277.800474 153.936952 
L 278.15336 152.168654 
L 278.506245 153.227697 
L 278.85913 153.512278 
L 279.212016 152.855082 
L 279.564901 152.453534 
L 279.917787 150.869552 
L 280.270672 151.203862 
L 280.623557 150.859115 
L 280.976443 150.973444 
L 281.329328 150.052329 
L 281.682213 149.649397 
L 282.035099 148.4835 
L 282.387984 147.973893 
L 282.74087 148.694342 
L 283.093755 148.908551 
L 283.44664 148.956742 
L 284.152411 147.298741 
L 284.505296 147.696214 
L 284.858182 146.48719 
L 285.211067 147.010461 
L 285.563953 146.78433 
L 285.916838 145.948076 
L 286.269723 146.152441 
L 286.622609 146.726908 
L 286.975494 146.465019 
L 287.328379 146.478707 
L 287.681265 144.306444 
L 288.387036 142.759869 
L 288.739921 143.015223 
L 289.092806 142.474546 
L 289.445692 140.675043 
L 289.798577 141.257154 
L 290.151462 138.674879 
L 290.504348 140.741455 
L 290.857233 139.030676 
L 291.210119 136.692064 
L 291.563004 137.376177 
L 291.915889 135.915948 
L 292.268775 134.930615 
L 292.62166 135.024875 
L 292.974545 134.285645 
L 293.327431 136.138833 
L 293.680316 134.594959 
L 294.033202 135.173853 
L 294.386087 135.513498 
L 295.444743 133.144771 
L 295.797628 135.116917 
L 296.150514 135.156432 
L 296.503399 134.284613 
L 296.856285 134.778628 
L 297.20917 135.976375 
L 297.562055 135.044847 
L 297.914941 132.877413 
L 298.267826 136.475608 
L 298.620711 135.506345 
L 298.973597 134.103404 
L 299.326482 135.280296 
L 299.679368 135.365331 
L 300.032253 133.443435 
L 300.385138 132.486316 
L 300.738024 130.731696 
L 301.090909 131.587349 
L 301.443794 130.939095 
L 301.79668 131.139037 
L 302.149565 131.688313 
L 302.502451 130.285714 
L 302.855336 129.710644 
L 303.208221 130.750453 
L 303.561107 130.491289 
L 303.913992 128.241237 
L 304.266877 127.746296 
L 304.619763 126.214967 
L 304.972648 128.729618 
L 305.325534 129.563606 
L 305.678419 128.74374 
L 306.031304 128.586949 
L 306.38419 128.71553 
L 306.737075 124.280323 
L 307.08996 127.245284 
L 307.442846 125.536762 
L 308.148617 126.401047 
L 308.501502 122.200436 
L 308.854387 121.663588 
L 309.207273 119.973847 
L 309.560158 119.906595 
L 309.913043 121.435012 
L 310.265929 119.327277 
L 310.618814 118.912962 
L 310.9717 117.824489 
L 311.324585 117.430851 
L 311.67747 116.194153 
L 312.030356 116.379052 
L 312.383241 119.377397 
L 312.736126 117.760517 
L 313.089012 116.736745 
L 313.441897 118.683822 
L 313.794783 117.607088 
L 314.147668 117.228063 
L 314.500553 115.673516 
L 315.206324 118.147673 
L 315.559209 117.875951 
L 315.912095 118.263859 
L 316.26498 118.140955 
L 316.617866 116.747061 
L 316.970751 118.358723 
L 317.323636 116.422416 
L 317.676522 115.737657 
L 318.029407 115.665915 
L 318.735178 113.255305 
L 319.088063 110.565429 
L 319.440949 112.399913 
L 319.793834 115.826289 
L 320.146719 111.966779 
L 320.499605 111.785473 
L 320.85249 114.375416 
L 321.558261 110.928263 
L 321.911146 110.882184 
L 322.264032 111.609901 
L 322.616917 111.580206 
L 322.969802 112.137479 
L 323.322688 105.58613 
L 323.675573 104.886748 
L 324.028458 105.082045 
L 324.381344 103.743119 
L 324.734229 103.303962 
L 325.087115 100.97527 
L 325.44 103.934202 
L 325.792885 105.08793 
L 326.145771 102.556624 
L 326.498656 104.224613 
L 326.851542 101.38809 
L 327.204427 99.943839 
L 327.557312 96.440102 
L 327.910198 97.382896 
L 328.263083 92.191594 
L 328.968854 95.830553 
L 329.321739 97.492292 
L 329.674625 95.978788 
L 330.02751 96.274027 
L 330.380395 96.908984 
L 330.733281 96.779709 
L 331.086166 98.624948 
L 331.439051 97.764786 
L 331.791937 96.416315 
L 332.144822 96.727345 
L 332.497708 95.345393 
L 332.850593 95.696507 
L 333.203478 94.006376 
L 333.556364 95.199478 
L 333.909249 98.418726 
L 334.262134 96.252348 
L 334.61502 92.968019 
L 334.967905 95.689861 
L 335.320791 94.10872 
L 335.673676 95.750949 
L 336.026561 94.268023 
L 336.379447 94.246937 
L 337.438103 88.537828 
L 337.790988 91.095751 
L 338.143874 90.90016 
L 338.496759 89.61978 
L 338.849644 89.99715 
L 339.20253 92.179112 
L 339.9083 90.294006 
L 340.261186 91.67562 
L 340.614071 90.898322 
L 340.966957 89.392154 
L 341.319842 89.421444 
L 342.025613 86.922264 
L 342.378498 88.012628 
L 342.731383 87.994942 
L 343.084269 85.62144 
L 343.437154 86.844127 
L 344.142925 86.639058 
L 344.49581 85.320779 
L 344.848696 86.826176 
L 345.201581 86.87048 
L 345.554466 84.220953 
L 345.907352 84.188504 
L 346.260237 82.934776 
L 346.613123 79.628652 
L 346.966008 81.04954 
L 347.671779 80.26984 
L 348.024664 80.129747 
L 348.377549 80.483484 
L 348.730435 79.257826 
L 349.08332 80.695855 
L 349.789091 77.104629 
L 350.141976 78.537068 
L 350.494862 80.48073 
L 350.847747 81.240328 
L 351.200632 77.651287 
L 351.553518 79.787415 
L 351.906403 78.679578 
L 352.259289 82.548782 
L 352.612174 80.007382 
L 352.965059 79.06114 
L 353.317945 81.212123 
L 353.67083 81.409562 
L 354.023715 82.553962 
L 354.376601 80.496256 
L 354.729486 82.689136 
L 355.082372 80.025121 
L 355.435257 79.699974 
L 355.788142 77.179916 
L 356.141028 80.346473 
L 356.493913 80.332452 
L 356.846798 79.573212 
L 357.199684 79.654243 
L 357.552569 78.280311 
L 357.905455 79.344877 
L 358.25834 76.757605 
L 358.611225 77.399989 
L 358.964111 77.401292 
L 359.316996 86.362947 
L 360.022767 86.362947 
L 360.375652 75.217748 
L 360.728538 75.166928 
L 361.081423 76.65775 
L 361.434308 76.247646 
L 361.787194 74.696002 
L 362.140079 75.080399 
L 362.492964 74.392254 
L 362.84585 72.090036 
L 363.198735 72.948717 
L 363.551621 68.285349 
L 363.904506 69.243273 
L 364.257391 67.892159 
L 364.610277 68.254902 
L 364.963162 67.048246 
L 365.316047 70.855644 
L 365.668933 67.954868 
L 366.727589 71.000594 
L 367.080474 69.705644 
L 367.43336 70.877212 
L 368.13913 68.708963 
L 368.492016 70.22345 
L 368.844901 70.913375 
L 369.197787 70.666973 
L 369.550672 74.697993 
L 369.903557 70.888199 
L 370.256443 71.395935 
L 370.609328 69.382995 
L 370.962213 71.654404 
L 371.315099 71.181524 
L 372.02087 70.912242 
L 372.373755 68.797966 
L 372.72664 70.172172 
L 373.079526 68.997952 
L 373.432411 68.829253 
L 373.785296 69.523234 
L 374.138182 66.329162 
L 374.491067 69.964943 
L 374.843953 71.55029 
L 375.549723 69.286261 
L 375.902609 68.725221 
L 376.255494 67.676301 
L 376.608379 67.336382 
L 376.961265 66.810748 
L 377.31415 64.583985 
L 377.667036 65.087284 
L 378.019921 64.362229 
L 378.372806 60.852728 
L 378.725692 61.867776 
L 379.078577 63.778632 
L 379.431462 62.519117 
L 379.784348 59.975238 
L 380.137233 66.135022 
L 380.490119 62.463888 
L 380.843004 64.866859 
L 381.548775 62.082534 
L 381.90166 61.922348 
L 382.254545 59.250645 
L 382.607431 61.396912 
L 382.960316 56.452773 
L 383.313202 60.122976 
L 383.666087 57.833071 
L 384.018972 56.462916 
L 384.371858 56.697328 
L 384.724743 55.478726 
L 385.077628 55.123917 
L 385.430514 58.574843 
L 385.783399 58.569291 
L 386.136285 59.006182 
L 386.48917 58.307542 
L 387.194941 55.218164 
L 387.547826 56.089143 
L 387.900711 55.901616 
L 388.253597 57.177872 
L 388.606482 57.684093 
L 388.959368 59.540324 
L 389.312253 57.643488 
L 389.665138 58.169041 
L 390.018024 58.397983 
L 390.370909 58.389456 
L 390.723794 60.432043 
L 391.07668 61.403785 
L 391.429565 58.936152 
L 391.782451 59.535496 
L 392.135336 59.347665 
L 392.488221 60.092755 
L 392.841107 58.057653 
L 393.193992 58.806703 
L 393.546877 56.409636 
L 393.899763 61.636798 
L 394.252648 60.886948 
L 394.605534 61.178705 
L 394.958419 59.566836 
L 395.311304 58.640561 
L 395.66419 55.538025 
L 396.017075 57.251427 
L 396.36996 56.828344 
L 397.075731 53.834263 
L 397.428617 55.891164 
L 398.134387 53.568 
L 398.487273 77.302864 
L 398.487273 77.302864 
" clip-path="url(#pe1957f8d3d)" style="fill: none; stroke: #1f77b4; stroke-width: 1.5; stroke-linecap: square"/>
   </g>
   <g id="line2d_18">
    <path d="M 73.832727 294.839765 
L 75.597154 294.819784 
L 83.360632 294.59496 
L 84.419289 294.560938 
L 85.125059 294.529073 
L 89.006798 294.585864 
L 93.947194 294.513061 
L 94.300079 294.340402 
L 108.062609 294.513446 
L 109.827036 294.514464 
L 110.885692 294.362877 
L 112.297233 294.340093 
L 114.414545 294.30668 
L 114.767431 294.368863 
L 115.120316 294.270671 
L 118.64917 294.413253 
L 120.060711 294.315303 
L 121.472253 294.232772 
L 122.530909 294.062713 
L 123.589565 294.060722 
L 124.648221 293.942621 
L 125.353992 294.029266 
L 126.412648 294.090446 
L 128.177075 293.978851 
L 128.882846 293.820204 
L 129.941502 293.922326 
L 134.529012 293.599417 
L 134.881897 293.695481 
L 139.822292 293.094618 
L 141.233834 292.860799 
L 141.939605 292.867378 
L 142.998261 292.502243 
L 144.409802 292.24607 
L 144.762688 292.356815 
L 146.527115 292.169292 
L 148.644427 291.73627 
L 148.997312 291.592178 
L 149.703083 291.529045 
L 150.761739 291.294107 
L 151.46751 291.343919 
L 152.173281 291.10805 
L 152.879051 291.014258 
L 153.231937 290.79865 
L 154.290593 291.044049 
L 155.702134 290.61542 
L 156.05502 290.631109 
L 156.407905 290.475915 
L 157.466561 290.396615 
L 157.819447 290.175317 
L 159.583874 289.812203 
L 160.289644 289.676557 
L 160.995415 289.393606 
L 161.701186 289.301414 
L 162.406957 288.923195 
L 162.759842 289.05016 
L 163.818498 288.60345 
L 164.524269 288.23111 
L 164.877154 287.948969 
L 165.582925 287.752973 
L 165.93581 287.843028 
L 166.641581 287.705331 
L 167.700237 286.65169 
L 168.053123 286.398589 
L 168.406008 286.46817 
L 168.758893 286.332379 
L 169.817549 285.541239 
L 170.170435 285.407372 
L 170.876206 284.768248 
L 171.229091 284.680677 
L 171.581976 283.474479 
L 171.934862 283.587096 
L 172.287747 284.390631 
L 172.640632 284.303374 
L 173.346403 283.686797 
L 173.699289 284.243969 
L 174.052174 283.522536 
L 174.405059 283.478164 
L 174.757945 283.253924 
L 175.11083 282.729443 
L 175.463715 282.756094 
L 176.169486 281.952786 
L 176.522372 281.977012 
L 176.875257 281.797529 
L 177.228142 281.145933 
L 177.581028 281.365953 
L 177.933913 280.872763 
L 178.286798 281.020704 
L 178.639684 280.842663 
L 178.992569 280.915321 
L 179.345455 280.359621 
L 179.69834 280.38104 
L 180.051225 279.814111 
L 180.404111 279.912606 
L 181.109881 278.716026 
L 181.462767 278.479231 
L 181.815652 278.403925 
L 182.168538 278.129289 
L 182.521423 278.102068 
L 182.874308 278.207195 
L 183.227194 278.187257 
L 184.28585 277.794646 
L 184.638735 277.922475 
L 185.344506 277.592143 
L 185.697391 277.022634 
L 186.050277 275.744323 
L 186.403162 276.698519 
L 186.756047 277.012646 
L 187.108933 276.682873 
L 187.461818 276.874163 
L 187.814704 276.396937 
L 188.520474 275.779878 
L 188.87336 275.168149 
L 189.226245 274.784504 
L 189.57913 273.9808 
L 189.932016 271.602157 
L 190.284901 270.078597 
L 190.637787 272.335609 
L 190.990672 272.9308 
L 191.343557 272.94717 
L 191.696443 273.185059 
L 192.049328 273.167928 
L 192.402213 273.486303 
L 192.755099 272.829281 
L 193.107984 272.944811 
L 193.46087 271.717701 
L 193.813755 271.342718 
L 194.16664 271.555909 
L 194.872411 270.332233 
L 195.225296 270.663438 
L 195.578182 270.631505 
L 195.931067 270.237158 
L 196.283953 269.664794 
L 196.636838 269.366993 
L 196.989723 269.409204 
L 197.695494 267.635022 
L 198.048379 267.113184 
L 198.401265 266.83275 
L 198.75415 265.810579 
L 199.107036 265.456547 
L 200.165692 263.395397 
L 200.518577 263.74533 
L 201.224348 263.401161 
L 201.930119 262.740362 
L 202.283004 263.027634 
L 202.988775 262.663349 
L 203.694545 261.75187 
L 204.753202 261.285964 
L 205.106087 261.289017 
L 205.458972 260.333389 
L 205.811858 260.237131 
L 206.164743 260.26332 
L 206.517628 259.773897 
L 207.576285 257.350661 
L 207.92917 256.893576 
L 208.282055 254.687842 
L 208.634941 251.575853 
L 208.987826 256.193229 
L 209.340711 257.199383 
L 209.693597 256.918453 
L 210.046482 256.423059 
L 210.399368 256.490475 
L 210.752253 256.745611 
L 211.458024 255.703299 
L 212.163794 255.227704 
L 212.51668 254.843036 
L 212.869565 253.744628 
L 213.222451 253.489824 
L 213.575336 253.427555 
L 214.281107 252.455606 
L 214.633992 251.300272 
L 214.986877 250.580242 
L 215.339763 251.034023 
L 216.045534 249.614871 
L 216.398419 248.309345 
L 216.751304 247.929616 
L 217.10419 247.743901 
L 217.80996 245.650307 
L 218.162846 244.01984 
L 218.515731 244.733861 
L 218.868617 244.59927 
L 219.574387 243.225132 
L 219.927273 243.083364 
L 220.280158 243.18361 
L 220.633043 244.31509 
L 220.985929 243.734937 
L 221.338814 243.994568 
L 221.6917 243.378643 
L 222.044585 243.445595 
L 222.750356 241.827741 
L 223.103241 240.815259 
L 223.456126 241.009877 
L 224.161897 238.269427 
L 224.514783 238.91879 
L 224.867668 238.414122 
L 225.220553 237.219784 
L 225.573439 237.131109 
L 225.926324 236.329527 
L 226.279209 235.873132 
L 226.632095 232.68969 
L 226.98498 225.344259 
L 227.337866 230.632119 
L 227.690751 233.451636 
L 228.043636 233.749481 
L 228.749407 233.439092 
L 229.102292 233.52525 
L 229.455178 233.485783 
L 229.808063 232.608177 
L 230.160949 232.389145 
L 230.513834 232.662522 
L 231.219605 231.635784 
L 231.925375 229.792286 
L 232.278261 227.77312 
L 232.631146 228.452381 
L 232.984032 228.351787 
L 233.336917 224.689803 
L 233.689802 225.492943 
L 234.395573 223.049623 
L 234.748458 220.698727 
L 235.101344 220.614001 
L 235.454229 220.292052 
L 236.16 216.197045 
L 236.512885 215.925361 
L 236.865771 215.320721 
L 237.218656 215.025438 
L 237.924427 212.688412 
L 238.277312 212.48808 
L 238.630198 212.418875 
L 238.983083 213.443496 
L 239.335968 213.561505 
L 240.041739 215.037134 
L 240.74751 215.520369 
L 241.100395 213.447716 
L 241.453281 212.924976 
L 241.806166 213.377025 
L 242.159051 212.454256 
L 242.511937 210.756379 
L 242.864822 212.234192 
L 243.217708 212.820013 
L 243.570593 211.071552 
L 243.923478 210.85649 
L 244.276364 209.871822 
L 244.629249 204.891154 
L 244.982134 206.885535 
L 245.33502 198.648559 
L 246.040791 208.429105 
L 246.393676 207.160006 
L 246.746561 208.493381 
L 247.099447 207.998421 
L 247.452332 207.916199 
L 247.805217 206.624857 
L 248.158103 208.804744 
L 248.510988 209.408419 
L 248.863874 208.843227 
L 249.216759 207.605207 
L 249.569644 207.183147 
L 249.92253 206.216769 
L 250.275415 206.149464 
L 250.6283 207.860035 
L 250.981186 206.882318 
L 251.334071 205.491969 
L 251.686957 203.537947 
L 252.039842 203.35216 
L 252.392727 202.544111 
L 252.745613 202.642818 
L 253.098498 200.562695 
L 253.451383 200.514711 
L 253.804269 199.083087 
L 254.157154 198.855181 
L 254.51004 198.418309 
L 254.862925 197.050455 
L 255.568696 197.06176 
L 256.274466 196.508292 
L 256.627352 197.330989 
L 256.980237 195.93629 
L 257.333123 195.19379 
L 257.686008 197.852437 
L 258.038893 197.984582 
L 258.391779 197.858789 
L 258.744664 197.939077 
L 259.097549 197.872057 
L 259.450435 196.540852 
L 259.80332 196.858302 
L 260.156206 197.395921 
L 260.509091 196.802558 
L 260.861976 194.078931 
L 261.214862 194.825385 
L 261.567747 194.453152 
L 261.920632 191.557811 
L 262.273518 192.974388 
L 263.332174 189.196864 
L 263.685059 177.38657 
L 264.037945 181.916678 
L 264.39083 188.730007 
L 264.743715 189.980485 
L 265.449486 188.772493 
L 265.802372 187.587807 
L 266.155257 188.473506 
L 266.508142 188.222185 
L 266.861028 189.154291 
L 267.213913 187.050023 
L 267.566798 188.908646 
L 268.272569 186.978672 
L 268.625455 186.951567 
L 268.97834 187.52817 
L 269.331225 185.116084 
L 269.684111 184.708228 
L 270.036996 182.68871 
L 270.389881 184.543368 
L 270.742767 185.722933 
L 271.095652 183.457649 
L 271.801423 177.140274 
L 272.154308 178.520933 
L 272.507194 177.383575 
L 272.860079 176.762421 
L 273.212964 175.287139 
L 273.56585 175.900562 
L 273.918735 176.072048 
L 274.271621 175.917905 
L 274.624506 175.427387 
L 274.977391 174.645073 
L 275.330277 172.461602 
L 275.683162 175.220389 
L 276.036047 176.001415 
L 276.388933 176.148348 
L 276.741818 177.389734 
L 277.094704 178.07865 
L 277.800474 177.822872 
L 278.15336 178.301506 
L 278.506245 178.025366 
L 278.85913 178.651463 
L 279.564901 176.125275 
L 279.917787 177.715271 
L 280.270672 177.17511 
L 280.623557 175.830676 
L 280.976443 175.979196 
L 281.329328 175.331699 
L 281.682213 173.315663 
L 282.035099 162.170069 
L 282.387984 161.873344 
L 282.74087 172.782843 
L 283.093755 174.312523 
L 283.44664 174.625699 
L 283.799526 173.572844 
L 284.152411 172.150857 
L 284.858182 170.557465 
L 285.211067 170.512341 
L 285.563953 171.040989 
L 285.916838 170.662283 
L 286.269723 162.155383 
L 286.622609 158.442589 
L 286.975494 156.996785 
L 287.328379 158.074754 
L 288.387036 154.297389 
L 288.739921 154.562523 
L 289.092806 156.563087 
L 289.445692 154.729833 
L 289.798577 154.030171 
L 290.151462 155.667042 
L 290.504348 156.56697 
L 291.210119 153.73714 
L 291.563004 151.043001 
L 291.915889 150.83921 
L 292.268775 149.377003 
L 292.62166 150.639987 
L 292.974545 150.466354 
L 293.327431 151.46441 
L 293.680316 150.508068 
L 294.033202 150.51604 
L 294.386087 151.3587 
L 294.738972 152.848812 
L 295.091858 152.136774 
L 295.444743 153.846535 
L 296.150514 153.967207 
L 296.503399 154.627103 
L 296.856285 153.424692 
L 297.20917 153.594409 
L 297.562055 152.643555 
L 297.914941 150.922561 
L 298.267826 152.885197 
L 298.620711 153.280166 
L 298.973597 153.088177 
L 299.326482 155.2938 
L 299.679368 153.446246 
L 300.385138 145.976908 
L 300.738024 140.035634 
L 301.443794 148.92438 
L 301.79668 148.266514 
L 302.149565 149.087132 
L 302.502451 148.070507 
L 303.208221 147.200029 
L 303.561107 147.329203 
L 303.913992 148.809028 
L 304.266877 148.442881 
L 304.619763 148.257934 
L 304.972648 146.519017 
L 305.325534 149.368187 
L 306.031304 146.685305 
L 306.38419 148.708097 
L 306.737075 147.533086 
L 307.08996 144.475519 
L 307.442846 144.775919 
L 307.795731 142.957486 
L 308.148617 141.891952 
L 308.501502 143.564894 
L 308.854387 143.903131 
L 309.560158 137.213126 
L 309.913043 137.099231 
L 310.265929 136.768267 
L 310.618814 136.090685 
L 310.9717 133.630755 
L 311.324585 134.928551 
L 311.67747 133.700761 
L 312.030356 133.794809 
L 312.383241 134.907276 
L 312.736126 137.628878 
L 313.089012 138.259947 
L 313.441897 138.305259 
L 313.794783 139.670538 
L 314.147668 137.687448 
L 314.853439 138.747374 
L 315.206324 138.994576 
L 315.559209 138.791967 
L 315.912095 138.391962 
L 316.26498 140.542613 
L 316.617866 139.553084 
L 316.970751 140.026273 
L 317.323636 138.620158 
L 317.676522 139.59462 
L 318.382292 137.196313 
L 318.735178 132.416002 
L 319.088063 121.22254 
L 319.793834 132.411738 
L 320.146719 132.718982 
L 320.499605 134.28757 
L 320.85249 132.803071 
L 321.205375 135.305 
L 321.558261 134.42108 
L 321.911146 131.313007 
L 322.264032 133.015003 
L 322.616917 133.009172 
L 322.969802 135.095296 
L 323.322688 131.55639 
L 323.675573 125.566954 
L 324.028458 125.708692 
L 324.381344 135.141264 
L 324.734229 124.552147 
L 325.44 121.413989 
L 325.792885 124.758152 
L 326.145771 124.596765 
L 326.498656 123.379166 
L 326.851542 120.578704 
L 327.204427 121.160029 
L 327.910198 114.265028 
L 328.263083 114.961367 
L 328.615968 114.758767 
L 328.968854 112.540247 
L 329.321739 112.457658 
L 329.674625 113.281952 
L 330.02751 112.145707 
L 330.380395 112.906916 
L 330.733281 112.999242 
L 331.086166 116.022652 
L 331.439051 116.776554 
L 332.144822 119.498276 
L 332.497708 117.62883 
L 332.850593 118.658978 
L 333.203478 118.778265 
L 333.556364 116.194679 
L 333.909249 119.096183 
L 334.262134 119.902033 
L 334.61502 117.095981 
L 334.967905 116.336957 
L 335.320791 118.412948 
L 335.673676 115.221114 
L 336.026561 118.328917 
L 336.379447 118.603171 
L 336.732332 114.643869 
L 337.438103 101.769999 
L 337.790988 108.35859 
L 338.143874 112.847709 
L 338.496759 112.780061 
L 338.849644 113.310267 
L 339.20253 112.275137 
L 339.555415 112.396223 
L 339.9083 113.051422 
L 340.614071 110.949103 
L 340.966957 113.701784 
L 341.672727 107.106165 
L 342.025613 110.477838 
L 342.378498 106.58601 
L 342.731383 109.016809 
L 343.084269 109.613818 
L 343.437154 108.441025 
L 343.79004 105.555046 
L 344.142925 109.926281 
L 344.49581 109.781567 
L 344.848696 106.667455 
L 345.201581 107.195332 
L 345.554466 106.669201 
L 345.907352 102.450079 
L 346.613123 98.292798 
L 346.966008 98.618205 
L 347.318893 98.45921 
L 347.671779 97.430948 
L 348.024664 98.699039 
L 348.377549 97.351069 
L 348.730435 98.25977 
L 349.08332 96.993748 
L 350.141976 103.324508 
L 350.494862 102.357362 
L 350.847747 103.866694 
L 351.200632 103.44679 
L 351.553518 102.832364 
L 351.906403 102.557468 
L 352.259289 104.544315 
L 352.612174 105.168965 
L 352.965059 102.655018 
L 353.317945 103.515175 
L 353.67083 105.782938 
L 354.023715 103.448063 
L 354.376601 105.002755 
L 354.729486 105.495757 
L 355.082372 104.121044 
L 355.435257 99.643974 
L 355.788142 88.552552 
L 356.493913 100.580306 
L 356.846798 100.581169 
L 357.199684 102.927363 
L 357.552569 101.987564 
L 358.25834 98.969951 
L 358.611225 98.302053 
L 358.964111 100.562938 
L 359.316996 86.362947 
L 360.022767 86.362947 
L 360.375652 97.054282 
L 360.728538 95.874736 
L 361.081423 96.308131 
L 361.434308 100.667148 
L 361.787194 100.006157 
L 362.140079 96.604499 
L 362.492964 97.513474 
L 362.84585 96.299411 
L 363.198735 97.141202 
L 363.551621 94.39453 
L 363.904506 89.409801 
L 364.257391 90.12972 
L 364.610277 86.207767 
L 364.963162 87.011012 
L 365.316047 86.667519 
L 365.668933 87.192936 
L 366.021818 87.045309 
L 366.374704 86.399813 
L 366.727589 87.963583 
L 367.080474 87.765652 
L 367.43336 87.785643 
L 367.786245 91.193701 
L 368.13913 91.964281 
L 368.492016 93.282994 
L 368.844901 94.111271 
L 369.903557 93.630872 
L 370.256443 94.001369 
L 370.609328 93.625238 
L 370.962213 94.096908 
L 371.315099 95.158681 
L 371.667984 92.681002 
L 372.02087 94.272788 
L 372.373755 95.263277 
L 372.72664 90.136043 
L 373.079526 94.127163 
L 373.432411 92.562728 
L 373.785296 88.256787 
L 374.138182 79.667593 
L 374.491067 78.146782 
L 374.843953 90.527636 
L 375.196838 93.283876 
L 375.549723 91.01077 
L 375.902609 89.643427 
L 376.255494 90.976305 
L 376.961265 88.894787 
L 377.31415 89.559391 
L 377.667036 86.5292 
L 378.019921 87.375568 
L 378.372806 85.842598 
L 378.725692 83.503369 
L 379.078577 81.915702 
L 379.431462 84.255008 
L 379.784348 83.109885 
L 380.137233 84.366328 
L 380.490119 84.273644 
L 380.843004 87.436526 
L 381.195889 86.661987 
L 381.90166 80.990666 
L 382.254545 80.491418 
L 382.607431 81.466256 
L 382.960316 80.095378 
L 383.313202 76.531797 
L 383.666087 75.631581 
L 384.018972 76.516889 
L 384.371858 72.178495 
L 384.724743 73.835213 
L 385.077628 73.625427 
L 385.430514 73.753178 
L 385.783399 74.24578 
L 386.48917 79.490661 
L 386.842055 80.811236 
L 387.900711 78.391993 
L 388.253597 79.958612 
L 388.606482 79.286417 
L 388.959368 80.857855 
L 389.312253 83.300094 
L 389.665138 80.814506 
L 390.018024 82.88659 
L 390.370909 81.938731 
L 390.723794 84.328106 
L 391.07668 80.04424 
L 391.429565 83.855983 
L 391.782451 81.237502 
L 392.135336 79.526318 
L 392.841107 66.576369 
L 393.193992 79.562673 
L 393.546877 80.573911 
L 393.899763 79.057918 
L 394.252648 81.211689 
L 394.958419 82.649366 
L 395.311304 74.711609 
L 395.66419 81.609586 
L 396.017075 83.011964 
L 396.36996 78.24235 
L 396.722846 77.317111 
L 397.075731 78.649849 
L 397.428617 76.784373 
L 397.781502 75.995461 
L 398.134387 75.832343 
L 398.487273 77.302864 
L 398.487273 77.302864 
" clip-path="url(#pe1957f8d3d)" style="fill: none; stroke: #ff7f0e; stroke-width: 1.5; stroke-linecap: square"/>
   </g>
   <g id="line2d_19">
    <path d="M 73.832727 295.257519 
L 81.596206 295.219374 
L 81.949091 295.266822 
L 82.654862 295.181851 
L 84.772174 295.252831 
L 93.594308 295.229102 
L 93.947194 295.011927 
L 94.300079 295.185106 
L 120.413597 295.308368 
L 120.766482 295.234667 
L 121.472253 295.370714 
L 124.295336 295.35013 
L 126.765534 295.366581 
L 127.118419 295.42096 
L 128.177075 295.294371 
L 128.52996 295.37927 
L 129.588617 295.232777 
L 130.294387 295.35175 
L 130.647273 295.244116 
L 131.705929 295.388786 
L 132.058814 295.259033 
L 133.11747 295.240715 
L 133.470356 295.111792 
L 134.529012 295.344984 
L 135.234783 295.110808 
L 135.587668 295.188564 
L 135.940553 295.08296 
L 137.70498 295.270584 
L 138.763636 294.905729 
L 139.116522 295.094815 
L 139.469407 295.00654 
L 140.528063 295.175798 
L 140.880949 295.046392 
L 141.233834 295.089167 
L 141.939605 294.883418 
L 142.29249 294.931735 
L 142.998261 294.856882 
L 143.351146 294.986404 
L 144.056917 294.844815 
L 144.409802 295.066408 
L 147.938656 294.830997 
L 148.291542 294.636418 
L 148.644427 294.587016 
L 149.350198 294.750849 
L 150.055968 294.710991 
L 150.408854 294.94808 
L 151.820395 294.657485 
L 152.879051 294.690108 
L 153.231937 294.936814 
L 154.290593 294.523252 
L 154.996364 294.597309 
L 155.349249 294.543098 
L 155.702134 294.745746 
L 156.05502 294.548042 
L 156.760791 294.79864 
L 157.819447 294.452527 
L 158.878103 294.54238 
L 159.230988 294.349662 
L 159.583874 294.473999 
L 160.289644 294.199667 
L 160.64253 294.33625 
L 160.995415 294.239375 
L 161.3483 294.303651 
L 162.054071 294.259781 
L 162.759842 294.253019 
L 163.112727 294.1549 
L 163.465613 294.262554 
L 164.524269 294.107606 
L 164.877154 294.288029 
L 165.582925 294.149156 
L 165.93581 293.893561 
L 166.288696 293.776975 
L 166.641581 293.493996 
L 167.347352 293.453931 
L 167.700237 293.219808 
L 168.053123 293.684403 
L 168.406008 293.651408 
L 168.758893 293.38487 
L 169.111779 293.336443 
L 169.464664 292.97399 
L 169.817549 293.165583 
L 170.170435 292.661817 
L 170.876206 293.102036 
L 171.229091 293.008908 
L 171.581976 293.971385 
L 171.934862 293.903 
L 172.287747 292.833202 
L 172.640632 292.715714 
L 172.993518 292.757534 
L 173.346403 292.959106 
L 173.699289 292.128432 
L 174.052174 292.825191 
L 174.405059 292.82943 
L 174.757945 292.434089 
L 175.11083 292.950405 
L 175.463715 292.242568 
L 175.816601 292.348534 
L 176.169486 292.743012 
L 176.875257 292.697401 
L 177.228142 292.9605 
L 177.581028 292.521048 
L 177.933913 292.781427 
L 178.286798 292.229194 
L 178.639684 292.655108 
L 178.992569 292.404018 
L 179.345455 292.760336 
L 179.69834 292.583414 
L 180.051225 292.890427 
L 180.756996 291.987451 
L 181.109881 292.718564 
L 181.462767 292.599889 
L 181.815652 292.212222 
L 182.168538 292.451717 
L 182.521423 292.832758 
L 182.874308 292.439935 
L 183.580079 292.102557 
L 183.932964 291.619182 
L 184.28585 291.853 
L 184.638735 291.703203 
L 184.991621 291.287799 
L 185.344506 291.401882 
L 185.697391 288.840529 
L 186.050277 292.178784 
L 186.403162 292.451732 
L 186.756047 291.541324 
L 187.108933 291.53788 
L 187.814704 290.985884 
L 188.167589 291.025765 
L 188.520474 290.767865 
L 188.87336 290.884331 
L 189.57913 290.342728 
L 189.932016 292.087012 
L 190.284901 292.749335 
L 190.637787 289.923701 
L 190.990672 290.236622 
L 191.696443 289.868531 
L 192.049328 290.032363 
L 192.402213 289.987915 
L 192.755099 290.540427 
L 193.107984 288.422182 
L 193.46087 289.945521 
L 193.813755 289.938407 
L 194.16664 289.31937 
L 194.519526 289.640852 
L 194.872411 290.133651 
L 195.225296 289.823026 
L 195.578182 289.896828 
L 195.931067 288.777295 
L 196.283953 289.294522 
L 196.636838 288.926291 
L 196.989723 288.355394 
L 197.342609 289.674637 
L 197.695494 288.672182 
L 198.048379 289.634775 
L 198.401265 288.656411 
L 198.75415 289.075804 
L 199.107036 288.524743 
L 199.459921 289.864692 
L 199.812806 289.574512 
L 200.165692 288.678385 
L 200.871462 289.489371 
L 201.224348 289.206647 
L 201.577233 288.142487 
L 201.930119 288.821459 
L 202.283004 287.255486 
L 202.635889 287.746264 
L 202.988775 286.952114 
L 203.694545 286.227532 
L 204.400316 286.364823 
L 204.753202 286.419144 
L 205.106087 285.407295 
L 205.458972 286.485683 
L 205.811858 286.203508 
L 206.164743 285.177489 
L 206.517628 285.41315 
L 206.870514 285.182215 
L 207.223399 285.284217 
L 207.92917 286.462701 
L 208.282055 288.180787 
L 208.634941 289.215416 
L 208.987826 285.19203 
L 209.340711 284.810396 
L 209.693597 284.857256 
L 210.046482 285.289343 
L 210.399368 285.215093 
L 210.752253 285.001227 
L 211.458024 285.792898 
L 211.810909 284.808775 
L 212.163794 285.044369 
L 212.51668 284.392493 
L 212.869565 285.487988 
L 213.222451 285.585331 
L 213.575336 284.599906 
L 214.281107 283.654946 
L 214.633992 283.064163 
L 214.986877 284.976616 
L 215.339763 284.023042 
L 215.692648 283.722367 
L 216.045534 284.639083 
L 216.398419 283.739045 
L 216.751304 284.442358 
L 217.10419 284.357633 
L 217.457075 283.934598 
L 217.80996 284.897697 
L 218.162846 285.381033 
L 218.515731 284.943221 
L 218.868617 284.170491 
L 219.221502 284.508911 
L 219.574387 285.318701 
L 219.927273 284.839194 
L 220.633043 282.948079 
L 220.985929 283.068557 
L 221.338814 281.283668 
L 222.044585 281.254465 
L 222.39747 280.163576 
L 222.750356 281.405863 
L 223.103241 281.222488 
L 223.456126 280.099319 
L 223.809012 279.504455 
L 224.161897 280.929395 
L 224.514783 279.674476 
L 225.220553 279.451364 
L 225.926324 279.960426 
L 226.279209 278.304967 
L 226.632095 280.747457 
L 226.98498 284.591528 
L 227.690751 278.347877 
L 228.043636 278.592924 
L 228.396522 278.082916 
L 228.749407 278.775928 
L 229.102292 279.215013 
L 229.455178 279.048075 
L 229.808063 279.018085 
L 230.160949 279.510069 
L 230.513834 278.700626 
L 230.866719 278.611025 
L 231.219605 278.149662 
L 231.57249 279.056028 
L 231.925375 279.193782 
L 232.278261 278.884623 
L 232.631146 278.935984 
L 232.984032 275.914305 
L 233.336917 279.817979 
L 233.689802 277.31769 
L 234.042688 277.36251 
L 234.395573 278.085116 
L 234.748458 280.001581 
L 235.101344 279.226651 
L 235.454229 277.974119 
L 235.807115 277.506626 
L 236.16 280.128768 
L 236.512885 279.641723 
L 236.865771 279.650052 
L 237.218656 278.83212 
L 237.571542 279.678643 
L 237.924427 280.19466 
L 238.630198 280.750486 
L 239.335968 277.398794 
L 239.688854 277.68446 
L 240.041739 277.1004 
L 240.394625 277.934079 
L 240.74751 276.520054 
L 241.100395 276.842022 
L 241.453281 277.58909 
L 241.806166 276.381238 
L 242.159051 276.863162 
L 242.511937 278.121428 
L 242.864822 276.322118 
L 243.217708 275.350752 
L 243.570593 276.601886 
L 243.923478 276.721313 
L 244.276364 290.507332 
L 244.629249 281.061511 
L 244.982134 278.374698 
L 245.33502 283.113305 
L 245.687905 281.893926 
L 246.040791 276.311985 
L 246.393676 277.373271 
L 246.746561 276.0376 
L 247.099447 276.098215 
L 247.452332 275.966388 
L 247.805217 278.446806 
L 248.158103 277.020748 
L 248.510988 276.233819 
L 248.863874 275.777737 
L 249.216759 277.08909 
L 249.569644 277.236389 
L 249.92253 277.897906 
L 250.275415 277.686056 
L 250.6283 273.681138 
L 250.981186 275.56444 
L 251.334071 274.524887 
L 251.686957 277.503506 
L 252.039842 275.649715 
L 252.392727 275.184268 
L 253.098498 276.354832 
L 253.451383 275.365844 
L 254.157154 277.652638 
L 254.862925 279.141096 
L 255.568696 277.602913 
L 256.274466 279.442152 
L 256.627352 278.766643 
L 256.980237 278.424211 
L 257.333123 278.519677 
L 257.686008 274.60177 
L 258.038893 274.159362 
L 259.097549 274.061204 
L 259.450435 274.534822 
L 259.80332 273.345163 
L 260.156206 273.816736 
L 260.509091 271.213197 
L 260.861976 274.019051 
L 261.214862 272.882754 
L 261.567747 270.923335 
L 261.920632 273.11908 
L 262.273518 271.282007 
L 262.626403 272.492554 
L 262.979289 272.531196 
L 263.332174 273.712328 
L 263.685059 284.373331 
L 264.39083 273.49975 
L 265.449486 272.283424 
L 265.802372 274.460596 
L 266.155257 273.393427 
L 266.508142 274.076763 
L 266.861028 271.617248 
L 267.213913 273.188585 
L 267.919684 271.912681 
L 268.272569 272.889699 
L 268.97834 271.823446 
L 269.331225 274.096142 
L 269.684111 271.229629 
L 270.036996 273.153767 
L 270.389881 271.55753 
L 270.742767 271.169959 
L 271.095652 271.259994 
L 271.801423 274.245857 
L 272.154308 272.43735 
L 272.507194 273.721665 
L 272.860079 274.03517 
L 273.212964 273.836023 
L 273.56585 274.603425 
L 273.918735 272.961759 
L 274.271621 274.480187 
L 274.624506 273.992703 
L 274.977391 274.183014 
L 275.330277 276.317117 
L 276.036047 271.56911 
L 276.388933 271.567031 
L 276.741818 271.705446 
L 277.094704 270.548998 
L 277.447589 271.230044 
L 277.800474 271.60208 
L 278.15336 269.355148 
L 278.506245 270.690331 
L 278.85913 270.348815 
L 279.564901 271.816259 
L 279.917787 268.64228 
L 280.623557 270.516438 
L 280.976443 270.482248 
L 281.329328 270.20863 
L 281.682213 271.821733 
L 282.035099 281.801431 
L 282.387984 281.588549 
L 282.74087 271.3995 
L 283.093755 270.084028 
L 283.44664 269.819043 
L 283.799526 270.117142 
L 284.152411 270.635884 
L 284.505296 271.938156 
L 284.858182 271.417726 
L 285.211067 271.98612 
L 285.563953 271.231341 
L 285.916838 270.773793 
L 286.269723 279.485057 
L 286.622609 283.772319 
L 286.975494 284.956234 
L 287.681265 282.889904 
L 288.387036 283.95048 
L 288.739921 283.940699 
L 289.092806 281.399458 
L 289.445692 281.43321 
L 289.798577 282.714983 
L 290.151462 278.495837 
L 290.504348 279.662486 
L 290.857233 279.283683 
L 291.210119 278.442924 
L 291.563004 281.821176 
L 291.915889 280.564738 
L 292.268775 281.041611 
L 292.62166 279.872889 
L 292.974545 279.307291 
L 293.327431 280.162423 
L 293.680316 279.57489 
L 294.033202 280.145812 
L 294.386087 279.642798 
L 294.738972 277.414695 
L 295.091858 277.496522 
L 295.444743 274.786235 
L 295.797628 276.663277 
L 296.150514 276.677226 
L 296.503399 275.14551 
L 296.856285 276.841936 
L 297.20917 277.869967 
L 297.562055 277.889292 
L 297.914941 277.442852 
L 298.267826 279.078411 
L 298.973597 276.503226 
L 299.326482 275.474496 
L 300.032253 278.794409 
L 300.738024 286.184062 
L 301.443794 277.502715 
L 301.79668 278.360523 
L 302.855336 277.626864 
L 303.208221 279.038424 
L 303.561107 278.650086 
L 303.913992 274.920209 
L 304.266877 274.791415 
L 304.619763 273.445033 
L 304.972648 277.698601 
L 305.325534 275.683419 
L 305.678419 276.375012 
L 306.031304 277.389645 
L 306.38419 275.495433 
L 306.737075 272.235238 
L 307.08996 278.257764 
L 307.442846 276.248842 
L 307.795731 278.480153 
L 308.148617 279.997095 
L 308.501502 274.123541 
L 308.854387 273.248457 
L 309.207273 274.853888 
L 309.560158 278.181469 
L 309.913043 279.823781 
L 310.265929 278.047009 
L 310.618814 278.310277 
L 310.9717 279.681734 
L 311.324585 277.9903 
L 312.030356 278.072243 
L 312.383241 279.958121 
L 312.736126 275.619639 
L 313.089012 273.964797 
L 313.441897 275.866562 
L 313.794783 273.42455 
L 314.147668 275.028615 
L 314.500553 272.962864 
L 315.206324 274.641097 
L 315.559209 274.571984 
L 315.912095 275.359897 
L 316.26498 273.086342 
L 316.617866 272.681977 
L 316.970751 273.82045 
L 317.323636 273.290258 
L 317.676522 271.631037 
L 318.029407 272.841059 
L 318.382292 272.825186 
L 318.735178 276.327303 
L 319.088063 284.830889 
L 319.440949 280.211217 
L 319.793834 278.902551 
L 320.146719 274.735797 
L 320.499605 272.985903 
L 320.85249 277.060345 
L 321.205375 272.829378 
L 321.558261 271.995183 
L 321.911146 275.057177 
L 322.264032 274.082898 
L 322.616917 274.059034 
L 322.969802 272.530183 
L 323.322688 269.517741 
L 323.675573 274.807794 
L 324.028458 274.861354 
L 324.381344 264.089855 
L 324.734229 274.239814 
L 325.087115 273.306459 
L 325.44 278.008213 
L 326.145771 273.447859 
L 326.498656 276.333447 
L 326.851542 276.297386 
L 327.204427 274.27181 
L 327.557312 274.383183 
L 327.910198 278.605869 
L 328.263083 272.718227 
L 328.615968 275.023802 
L 328.968854 278.778305 
L 329.321739 280.522633 
L 329.674625 278.184836 
L 330.02751 279.61632 
L 330.733281 279.268466 
L 331.086166 278.090296 
L 331.439051 276.476232 
L 331.791937 273.867291 
L 332.144822 272.717069 
L 332.497708 273.204563 
L 332.850593 272.525529 
L 333.203478 270.71611 
L 333.556364 274.4928 
L 333.909249 274.810543 
L 334.262134 271.838315 
L 334.61502 271.360038 
L 334.967905 274.840904 
L 335.320791 271.183772 
L 335.673676 276.017835 
L 336.026561 271.427106 
L 336.379447 271.131765 
L 336.732332 273.011788 
L 337.085217 276.91115 
L 337.438103 282.255829 
L 338.143874 273.540451 
L 338.496759 272.327719 
L 338.849644 272.174883 
L 339.20253 275.391975 
L 339.9083 272.730583 
L 340.261186 275.255923 
L 340.614071 275.437219 
L 340.966957 271.17837 
L 341.319842 274.864431 
L 341.672727 276.703159 
L 342.025613 271.932426 
L 342.378498 276.914618 
L 343.084269 271.495622 
L 343.79004 276.632102 
L 344.142925 272.200777 
L 344.49581 271.027213 
L 344.848696 275.64672 
L 345.201581 275.163148 
L 345.554466 273.039752 
L 345.907352 277.226425 
L 346.260237 278.111912 
L 346.613123 276.823854 
L 346.966008 277.919335 
L 347.318893 277.708546 
L 347.671779 278.326892 
L 348.024664 276.918708 
L 348.377549 278.620415 
L 348.730435 276.486057 
L 349.08332 279.190107 
L 349.789091 270.677917 
L 350.141976 270.700561 
L 350.494862 273.611368 
L 350.847747 272.861634 
L 351.200632 269.692497 
L 351.553518 272.443051 
L 351.906403 271.61011 
L 352.259289 273.492467 
L 352.612174 270.326417 
L 353.317945 273.184948 
L 353.67083 271.114625 
L 354.023715 274.593899 
L 354.376601 270.9815 
L 354.729486 272.681379 
L 355.082372 271.392077 
L 355.435257 275.544 
L 355.788142 284.115364 
L 356.141028 282.068687 
L 356.493913 275.240147 
L 356.846798 274.480043 
L 357.199684 272.21488 
L 357.552569 271.780748 
L 357.905455 274.541165 
L 358.25834 273.275654 
L 358.611225 274.585936 
L 358.964111 272.326354 
L 359.316996 295.488 
L 360.022767 295.488 
L 360.375652 273.651467 
L 361.081423 275.837619 
L 361.434308 271.068497 
L 361.787194 270.177845 
L 362.140079 273.9639 
L 362.84585 271.278626 
L 363.198735 271.295516 
L 363.551621 269.378819 
L 363.904506 275.321472 
L 364.257391 273.25044 
L 364.610277 277.535135 
L 364.963162 275.525234 
L 365.316047 279.676125 
L 365.668933 276.249932 
L 366.374704 278.658497 
L 366.727589 278.525011 
L 367.080474 277.427992 
L 367.43336 278.579569 
L 367.786245 274.201848 
L 368.13913 272.232682 
L 368.492016 272.428457 
L 369.197787 272.235455 
L 369.550672 276.496947 
L 369.903557 272.745327 
L 370.256443 272.882566 
L 370.609328 271.245757 
L 370.962213 273.045496 
L 371.315099 271.510843 
L 371.667984 273.902195 
L 372.02087 272.127453 
L 372.373755 269.022689 
L 372.72664 275.524129 
L 373.079526 270.358789 
L 373.432411 271.754525 
L 374.491067 287.306161 
L 374.843953 276.510654 
L 375.196838 272.624116 
L 375.902609 274.569794 
L 376.255494 272.187996 
L 376.961265 273.40396 
L 377.31415 270.512594 
L 377.667036 274.046084 
L 378.372806 270.49813 
L 379.078577 277.35093 
L 379.431462 273.752108 
L 379.784348 272.353353 
L 380.137233 277.256694 
L 380.490119 273.678244 
L 381.195889 272.158624 
L 381.548775 273.586593 
L 381.90166 276.419682 
L 382.254545 274.247227 
L 382.607431 275.418655 
L 382.960316 271.845395 
L 383.313202 279.079178 
L 383.666087 277.68949 
L 384.018972 275.434026 
L 384.371858 280.006833 
L 384.724743 277.131513 
L 385.077628 276.98649 
L 385.430514 280.309664 
L 385.783399 279.811511 
L 386.136285 277.591714 
L 386.842055 271.225462 
L 387.194941 270.69839 
L 387.547826 272.390239 
L 387.900711 272.997623 
L 388.253597 272.707259 
L 388.606482 273.885676 
L 388.959368 274.170469 
L 389.312253 269.831394 
L 389.665138 272.842535 
L 390.018024 270.999394 
L 390.370909 271.938725 
L 390.723794 271.591937 
L 391.07668 276.847545 
L 391.429565 270.56817 
L 391.782451 273.785995 
L 392.135336 275.309347 
L 392.488221 282.27855 
L 392.841107 286.969284 
L 393.193992 274.73203 
L 393.546877 271.323725 
L 393.899763 278.06688 
L 394.252648 275.163259 
L 394.605534 274.737243 
L 394.958419 272.40547 
L 395.311304 279.416952 
L 395.66419 269.416438 
L 396.017075 269.727464 
L 396.36996 274.073995 
L 396.722846 273.672871 
L 397.075731 270.672414 
L 397.428617 274.594791 
L 397.781502 274.0391 
L 398.134387 273.223657 
L 398.487273 295.488 
L 398.487273 295.488 
" clip-path="url(#pe1957f8d3d)" style="fill: none; stroke: #2ca02c; stroke-width: 1.5; stroke-linecap: square"/>
   </g>
   <g id="patch_3">
    <path d="M 57.6 307.584 
L 57.6 41.472 
" style="fill: none; stroke: #000000; stroke-width: 0.8; stroke-linejoin: miter; stroke-linecap: square"/>
   </g>
   <g id="patch_4">
    <path d="M 414.72 307.584 
L 414.72 41.472 
" style="fill: none; stroke: #000000; stroke-width: 0.8; stroke-linejoin: miter; stroke-linecap: square"/>
   </g>
   <g id="patch_5">
    <path d="M 57.6 307.584 
L 414.72 307.584 
" style="fill: none; stroke: #000000; stroke-width: 0.8; stroke-linejoin: miter; stroke-linecap: square"/>
   </g>
   <g id="patch_6">
    <path d="M 57.6 41.472 
L 414.72 41.472 
" style="fill: none; stroke: #000000; stroke-width: 0.8; stroke-linejoin: miter; stroke-linecap: square"/>
   </g>
   <g id="legend_1">
    <g id="patch_7">
     <path d="M 64.6 93.506375 
L 186.25625 93.506375 
Q 188.25625 93.506375 188.25625 91.506375 
L 188.25625 48.472 
Q 188.25625 46.472 186.25625 46.472 
L 64.6 46.472 
Q 62.6 46.472 62.6 48.472 
L 62.6 91.506375 
Q 62.6 93.506375 64.6 93.506375 
z
" style="fill: #ffffff; opacity: 0.8; stroke: #cccccc; stroke-linejoin: miter"/>
    </g>
    <g id="line2d_20">
     <path d="M 66.6 54.570438 
L 76.6 54.570438 
L 86.6 54.570438 
" style="fill: none; stroke: #1f77b4; stroke-width: 1.5; stroke-linecap: square"/>
    </g>
    <g id="text_19">
     <!-- Weekly maximum -->
     <g transform="translate(94.6 58.070438) scale(0.1 -0.1)">
      <defs>
       <path id="DejaVuSans-57" d="M 213 4666 
L 850 4666 
L 1831 722 
L 2809 4666 
L 3519 4666 
L 4500 722 
L 5478 4666 
L 6119 4666 
L 4947 0 
L 4153 0 
L 3169 4050 
L 2175 0 
L 1381 0 
L 213 4666 
z
" transform="scale(0.015625)"/>
       <path id="DejaVuSans-6b" d="M 581 4863 
L 1159 4863 
L 1159 1991 
L 2875 3500 
L 3609 3500 
L 1753 1863 
L 3688 0 
L 2938 0 
L 1159 1709 
L 1159 0 
L 581 0 
L 581 4863 
z
" transform="scale(0.015625)"/>
       <path id="DejaVuSans-79" d="M 2059 -325 
Q 1816 -950 1584 -1140 
Q 1353 -1331 966 -1331 
L 506 -1331 
L 506 -850 
L 844 -850 
Q 1081 -850 1212 -737 
Q 1344 -625 1503 -206 
L 1606 56 
L 191 3500 
L 800 3500 
L 1894 763 
L 2988 3500 
L 3597 3500 
L 2059 -325 
z
" transform="scale(0.015625)"/>
       <path id="DejaVuSans-6d" d="M 3328 2828 
Q 3544 3216 3844 3400 
Q 4144 3584 4550 3584 
Q 5097 3584 5394 3201 
Q 5691 2819 5691 2113 
L 5691 0 
L 5113 0 
L 5113 2094 
Q 5113 2597 4934 2840 
Q 4756 3084 4391 3084 
Q 3944 3084 3684 2787 
Q 3425 2491 3425 1978 
L 3425 0 
L 2847 0 
L 2847 2094 
Q 2847 2600 2669 2842 
Q 2491 3084 2119 3084 
Q 1678 3084 1418 2786 
Q 1159 2488 1159 1978 
L 1159 0 
L 581 0 
L 581 3500 
L 1159 3500 
L 1159 2956 
Q 1356 3278 1631 3431 
Q 1906 3584 2284 3584 
Q 2666 3584 2933 3390 
Q 3200 3197 3328 2828 
z
" transform="scale(0.015625)"/>
       <path id="DejaVuSans-78" d="M 3513 3500 
L 2247 1797 
L 3578 0 
L 2900 0 
L 1881 1375 
L 863 0 
L 184 0 
L 1544 1831 
L 300 3500 
L 978 3500 
L 1906 2253 
L 2834 3500 
L 3513 3500 
z
" transform="scale(0.015625)"/>
       <path id="DejaVuSans-75" d="M 544 1381 
L 544 3500 
L 1119 3500 
L 1119 1403 
Q 1119 906 1312 657 
Q 1506 409 1894 409 
Q 2359 409 2629 706 
Q 2900 1003 2900 1516 
L 2900 3500 
L 3475 3500 
L 3475 0 
L 2900 0 
L 2900 538 
Q 2691 219 2414 64 
Q 2138 -91 1772 -91 
Q 1169 -91 856 284 
Q 544 659 544 1381 
z
M 1991 3584 
L 1991 3584 
z
" transform="scale(0.015625)"/>
      </defs>
      <use xlink:href="#DejaVuSans-57"/>
      <use xlink:href="#DejaVuSans-65" transform="translate(93.001953 0)"/>
      <use xlink:href="#DejaVuSans-65" transform="translate(154.525391 0)"/>
      <use xlink:href="#DejaVuSans-6b" transform="translate(216.048828 0)"/>
      <use xlink:href="#DejaVuSans-6c" transform="translate(273.958984 0)"/>
      <use xlink:href="#DejaVuSans-79" transform="translate(301.742188 0)"/>
      <use xlink:href="#DejaVuSans-20" transform="translate(360.921875 0)"/>
      <use xlink:href="#DejaVuSans-6d" transform="translate(392.708984 0)"/>
      <use xlink:href="#DejaVuSans-61" transform="translate(490.121094 0)"/>
      <use xlink:href="#DejaVuSans-78" transform="translate(551.400391 0)"/>
      <use xlink:href="#DejaVuSans-69" transform="translate(610.580078 0)"/>
      <use xlink:href="#DejaVuSans-6d" transform="translate(638.363281 0)"/>
      <use xlink:href="#DejaVuSans-75" transform="translate(735.775391 0)"/>
      <use xlink:href="#DejaVuSans-6d" transform="translate(799.154297 0)"/>
     </g>
    </g>
    <g id="line2d_21">
     <path d="M 66.6 69.248563 
L 76.6 69.248563 
L 86.6 69.248563 
" style="fill: none; stroke: #ff7f0e; stroke-width: 1.5; stroke-linecap: square"/>
    </g>
    <g id="text_20">
     <!-- Weekly minimum -->
     <g transform="translate(94.6 72.748563) scale(0.1 -0.1)">
      <defs>
       <path id="DejaVuSans-6e" d="M 3513 2113 
L 3513 0 
L 2938 0 
L 2938 2094 
Q 2938 2591 2744 2837 
Q 2550 3084 2163 3084 
Q 1697 3084 1428 2787 
Q 1159 2491 1159 1978 
L 1159 0 
L 581 0 
L 581 3500 
L 1159 3500 
L 1159 2956 
Q 1366 3272 1645 3428 
Q 1925 3584 2291 3584 
Q 2894 3584 3203 3211 
Q 3513 2838 3513 2113 
z
" transform="scale(0.015625)"/>
      </defs>
      <use xlink:href="#DejaVuSans-57"/>
      <use xlink:href="#DejaVuSans-65" transform="translate(93.001953 0)"/>
      <use xlink:href="#DejaVuSans-65" transform="translate(154.525391 0)"/>
      <use xlink:href="#DejaVuSans-6b" transform="translate(216.048828 0)"/>
      <use xlink:href="#DejaVuSans-6c" transform="translate(273.958984 0)"/>
      <use xlink:href="#DejaVuSans-79" transform="translate(301.742188 0)"/>
      <use xlink:href="#DejaVuSans-20" transform="translate(360.921875 0)"/>
      <use xlink:href="#DejaVuSans-6d" transform="translate(392.708984 0)"/>
      <use xlink:href="#DejaVuSans-69" transform="translate(490.121094 0)"/>
      <use xlink:href="#DejaVuSans-6e" transform="translate(517.904297 0)"/>
      <use xlink:href="#DejaVuSans-69" transform="translate(581.283203 0)"/>
      <use xlink:href="#DejaVuSans-6d" transform="translate(609.066406 0)"/>
      <use xlink:href="#DejaVuSans-75" transform="translate(706.478516 0)"/>
      <use xlink:href="#DejaVuSans-6d" transform="translate(769.857422 0)"/>
     </g>
    </g>
    <g id="line2d_22">
     <path d="M 66.6 83.926688 
L 76.6 83.926688 
L 86.6 83.926688 
" style="fill: none; stroke: #2ca02c; stroke-width: 1.5; stroke-linecap: square"/>
    </g>
    <g id="text_21">
     <!-- Weekly range -->
     <g transform="translate(94.6 87.426688) scale(0.1 -0.1)">
      <use xlink:href="#DejaVuSans-57"/>
      <use xlink:href="#DejaVuSans-65" transform="translate(93.001953 0)"/>
      <use xlink:href="#DejaVuSans-65" transform="translate(154.525391 0)"/>
      <use xlink:href="#DejaVuSans-6b" transform="translate(216.048828 0)"/>
      <use xlink:href="#DejaVuSans-6c" transform="translate(273.958984 0)"/>
      <use xlink:href="#DejaVuSans-79" transform="translate(301.742188 0)"/>
      <use xlink:href="#DejaVuSans-20" transform="translate(360.921875 0)"/>
      <use xlink:href="#DejaVuSans-72" transform="translate(392.708984 0)"/>
      <use xlink:href="#DejaVuSans-61" transform="translate(433.822266 0)"/>
      <use xlink:href="#DejaVuSans-6e" transform="translate(495.101562 0)"/>
      <use xlink:href="#DejaVuSans-67" transform="translate(558.480469 0)"/>
      <use xlink:href="#DejaVuSans-65" transform="translate(621.957031 0)"/>
     </g>
    </g>
   </g>
  </g>
 </g>
 <defs>
  <clipPath id="pe1957f8d3d">
   <rect x="57.6" y="41.472" width="357.12" height="266.112"/>
  </clipPath>
 </defs>
</svg>
