<?xml version="1.0" encoding="utf-8" standalone="no"?>
<!DOCTYPE svg PUBLIC "-//W3C//DTD SVG 1.1//EN"
  "http://www.w3.org/Graphics/SVG/1.1/DTD/svg11.dtd">
<svg xmlns:xlink="http://www.w3.org/1999/xlink" width="460.8pt" height="345.6pt" viewBox="0 0 460.8 345.6" xmlns="http://www.w3.org/2000/svg" version="1.1">
 <metadata>
  <rdf:RDF xmlns:dc="http://purl.org/dc/elements/1.1/" xmlns:cc="http://creativecommons.org/ns#" xmlns:rdf="http://www.w3.org/1999/02/22-rdf-syntax-ns#">
   <cc:Work>
    <dc:type rdf:resource="http://purl.org/dc/dcmitype/StillImage"/>
    <dc:date>2023-07-05T05:35:16.954660</dc:date>
    <dc:format>image/svg+xml</dc:format>
    <dc:creator>
     <cc:Agent>
      <dc:title>Matplotlib v3.7.1, https://matplotlib.org/</dc:title>
     </cc:Agent>
    </dc:creator>
   </cc:Work>
  </rdf:RDF>
 </metadata>
 <defs>
  <style type="text/css">*{stroke-linejoin: round; stroke-linecap: butt}</style>
 </defs>
 <g id="figure_1">
  <g id="patch_1">
   <path d="M 0 345.6 
L 460.8 345.6 
L 460.8 0 
L 0 0 
z
" style="fill: #ffffff"/>
  </g>
  <g id="axes_1">
   <g id="patch_2">
    <path d="M 57.6 307.584 
L 414.72 307.584 
L 414.72 41.472 
L 57.6 41.472 
z
" style="fill: #ffffff"/>
   </g>
   <g id="matplotlib.axis_1">
    <g id="xtick_1">
     <g id="line2d_1">
      <defs>
       <path id="m628b0bfba4" d="M 0 0 
L 0 3.5 
" style="stroke: #000000; stroke-width: 0.8"/>
      </defs>
      <g>
       <use xlink:href="#m628b0bfba4" x="59.211888" y="307.584" style="stroke: #000000; stroke-width: 0.8"/>
      </g>
     </g>
     <g id="text_1">
      <!-- 2008 -->
      <g transform="translate(46.486888 322.182437) scale(0.1 -0.1)">
       <defs>
        <path id="DejaVuSans-32" d="M 1228 531 
L 3431 531 
L 3431 0 
L 469 0 
L 469 531 
Q 828 903 1448 1529 
Q 2069 2156 2228 2338 
Q 2531 2678 2651 2914 
Q 2772 3150 2772 3378 
Q 2772 3750 2511 3984 
Q 2250 4219 1831 4219 
Q 1534 4219 1204 4116 
Q 875 4013 500 3803 
L 500 4441 
Q 881 4594 1212 4672 
Q 1544 4750 1819 4750 
Q 2544 4750 2975 4387 
Q 3406 4025 3406 3419 
Q 3406 3131 3298 2873 
Q 3191 2616 2906 2266 
Q 2828 2175 2409 1742 
Q 1991 1309 1228 531 
z
" transform="scale(0.015625)"/>
        <path id="DejaVuSans-30" d="M 2034 4250 
Q 1547 4250 1301 3770 
Q 1056 3291 1056 2328 
Q 1056 1369 1301 889 
Q 1547 409 2034 409 
Q 2525 409 2770 889 
Q 3016 1369 3016 2328 
Q 3016 3291 2770 3770 
Q 2525 4250 2034 4250 
z
M 2034 4750 
Q 2819 4750 3233 4129 
Q 3647 3509 3647 2328 
Q 3647 1150 3233 529 
Q 2819 -91 2034 -91 
Q 1250 -91 836 529 
Q 422 1150 422 2328 
Q 422 3509 836 4129 
Q 1250 4750 2034 4750 
z
" transform="scale(0.015625)"/>
        <path id="DejaVuSans-38" d="M 2034 2216 
Q 1584 2216 1326 1975 
Q 1069 1734 1069 1313 
Q 1069 891 1326 650 
Q 1584 409 2034 409 
Q 2484 409 2743 651 
Q 3003 894 3003 1313 
Q 3003 1734 2745 1975 
Q 2488 2216 2034 2216 
z
M 1403 2484 
Q 997 2584 770 2862 
Q 544 3141 544 3541 
Q 544 4100 942 4425 
Q 1341 4750 2034 4750 
Q 2731 4750 3128 4425 
Q 3525 4100 3525 3541 
Q 3525 3141 3298 2862 
Q 3072 2584 2669 2484 
Q 3125 2378 3379 2068 
Q 3634 1759 3634 1313 
Q 3634 634 3220 271 
Q 2806 -91 2034 -91 
Q 1263 -91 848 271 
Q 434 634 434 1313 
Q 434 1759 690 2068 
Q 947 2378 1403 2484 
z
M 1172 3481 
Q 1172 3119 1398 2916 
Q 1625 2713 2034 2713 
Q 2441 2713 2670 2916 
Q 2900 3119 2900 3481 
Q 2900 3844 2670 4047 
Q 2441 4250 2034 4250 
Q 1625 4250 1398 4047 
Q 1172 3844 1172 3481 
z
" transform="scale(0.015625)"/>
       </defs>
       <use xlink:href="#DejaVuSans-32"/>
       <use xlink:href="#DejaVuSans-30" x="63.623047"/>
       <use xlink:href="#DejaVuSans-30" x="127.246094"/>
       <use xlink:href="#DejaVuSans-38" x="190.869141"/>
      </g>
     </g>
    </g>
    <g id="xtick_2">
     <g id="line2d_2">
      <g>
       <use xlink:href="#m628b0bfba4" x="103.014485" y="307.584" style="stroke: #000000; stroke-width: 0.8"/>
      </g>
     </g>
     <g id="text_2">
      <!-- 2010 -->
      <g transform="translate(90.289485 322.182437) scale(0.1 -0.1)">
       <defs>
        <path id="DejaVuSans-31" d="M 794 531 
L 1825 531 
L 1825 4091 
L 703 3866 
L 703 4441 
L 1819 4666 
L 2450 4666 
L 2450 531 
L 3481 531 
L 3481 0 
L 794 0 
L 794 531 
z
" transform="scale(0.015625)"/>
       </defs>
       <use xlink:href="#DejaVuSans-32"/>
       <use xlink:href="#DejaVuSans-30" x="63.623047"/>
       <use xlink:href="#DejaVuSans-31" x="127.246094"/>
       <use xlink:href="#DejaVuSans-30" x="190.869141"/>
      </g>
     </g>
    </g>
    <g id="xtick_3">
     <g id="line2d_3">
      <g>
       <use xlink:href="#m628b0bfba4" x="146.757161" y="307.584" style="stroke: #000000; stroke-width: 0.8"/>
      </g>
     </g>
     <g id="text_3">
      <!-- 2012 -->
      <g transform="translate(134.032161 322.182437) scale(0.1 -0.1)">
       <use xlink:href="#DejaVuSans-32"/>
       <use xlink:href="#DejaVuSans-30" x="63.623047"/>
       <use xlink:href="#DejaVuSans-31" x="127.246094"/>
       <use xlink:href="#DejaVuSans-32" x="190.869141"/>
      </g>
     </g>
    </g>
    <g id="xtick_4">
     <g id="line2d_4">
      <g>
       <use xlink:href="#m628b0bfba4" x="190.559758" y="307.584" style="stroke: #000000; stroke-width: 0.8"/>
      </g>
     </g>
     <g id="text_4">
      <!-- 2014 -->
      <g transform="translate(177.834758 322.182437) scale(0.1 -0.1)">
       <defs>
        <path id="DejaVuSans-34" d="M 2419 4116 
L 825 1625 
L 2419 1625 
L 2419 4116 
z
M 2253 4666 
L 3047 4666 
L 3047 1625 
L 3713 1625 
L 3713 1100 
L 3047 1100 
L 3047 0 
L 2419 0 
L 2419 1100 
L 313 1100 
L 313 1709 
L 2253 4666 
z
" transform="scale(0.015625)"/>
       </defs>
       <use xlink:href="#DejaVuSans-32"/>
       <use xlink:href="#DejaVuSans-30" x="63.623047"/>
       <use xlink:href="#DejaVuSans-31" x="127.246094"/>
       <use xlink:href="#DejaVuSans-34" x="190.869141"/>
      </g>
     </g>
    </g>
    <g id="xtick_5">
     <g id="line2d_5">
      <g>
       <use xlink:href="#m628b0bfba4" x="234.302434" y="307.584" style="stroke: #000000; stroke-width: 0.8"/>
      </g>
     </g>
     <g id="text_5">
      <!-- 2016 -->
      <g transform="translate(221.577434 322.182437) scale(0.1 -0.1)">
       <defs>
        <path id="DejaVuSans-36" d="M 2113 2584 
Q 1688 2584 1439 2293 
Q 1191 2003 1191 1497 
Q 1191 994 1439 701 
Q 1688 409 2113 409 
Q 2538 409 2786 701 
Q 3034 994 3034 1497 
Q 3034 2003 2786 2293 
Q 2538 2584 2113 2584 
z
M 3366 4563 
L 3366 3988 
Q 3128 4100 2886 4159 
Q 2644 4219 2406 4219 
Q 1781 4219 1451 3797 
Q 1122 3375 1075 2522 
Q 1259 2794 1537 2939 
Q 1816 3084 2150 3084 
Q 2853 3084 3261 2657 
Q 3669 2231 3669 1497 
Q 3669 778 3244 343 
Q 2819 -91 2113 -91 
Q 1303 -91 875 529 
Q 447 1150 447 2328 
Q 447 3434 972 4092 
Q 1497 4750 2381 4750 
Q 2619 4750 2861 4703 
Q 3103 4656 3366 4563 
z
" transform="scale(0.015625)"/>
       </defs>
       <use xlink:href="#DejaVuSans-32"/>
       <use xlink:href="#DejaVuSans-30" x="63.623047"/>
       <use xlink:href="#DejaVuSans-31" x="127.246094"/>
       <use xlink:href="#DejaVuSans-36" x="190.869141"/>
      </g>
     </g>
    </g>
    <g id="xtick_6">
     <g id="line2d_6">
      <g>
       <use xlink:href="#m628b0bfba4" x="278.105032" y="307.584" style="stroke: #000000; stroke-width: 0.8"/>
      </g>
     </g>
     <g id="text_6">
      <!-- 2018 -->
      <g transform="translate(265.380032 322.182437) scale(0.1 -0.1)">
       <use xlink:href="#DejaVuSans-32"/>
       <use xlink:href="#DejaVuSans-30" x="63.623047"/>
       <use xlink:href="#DejaVuSans-31" x="127.246094"/>
       <use xlink:href="#DejaVuSans-38" x="190.869141"/>
      </g>
     </g>
    </g>
    <g id="xtick_7">
     <g id="line2d_7">
      <g>
       <use xlink:href="#m628b0bfba4" x="321.847708" y="307.584" style="stroke: #000000; stroke-width: 0.8"/>
      </g>
     </g>
     <g id="text_7">
      <!-- 2020 -->
      <g transform="translate(309.122708 322.182437) scale(0.1 -0.1)">
       <use xlink:href="#DejaVuSans-32"/>
       <use xlink:href="#DejaVuSans-30" x="63.623047"/>
       <use xlink:href="#DejaVuSans-32" x="127.246094"/>
       <use xlink:href="#DejaVuSans-30" x="190.869141"/>
      </g>
     </g>
    </g>
    <g id="xtick_8">
     <g id="line2d_8">
      <g>
       <use xlink:href="#m628b0bfba4" x="365.650305" y="307.584" style="stroke: #000000; stroke-width: 0.8"/>
      </g>
     </g>
     <g id="text_8">
      <!-- 2022 -->
      <g transform="translate(352.925305 322.182437) scale(0.1 -0.1)">
       <use xlink:href="#DejaVuSans-32"/>
       <use xlink:href="#DejaVuSans-30" x="63.623047"/>
       <use xlink:href="#DejaVuSans-32" x="127.246094"/>
       <use xlink:href="#DejaVuSans-32" x="190.869141"/>
      </g>
     </g>
    </g>
    <g id="xtick_9">
     <g id="line2d_9">
      <g>
       <use xlink:href="#m628b0bfba4" x="409.392981" y="307.584" style="stroke: #000000; stroke-width: 0.8"/>
      </g>
     </g>
     <g id="text_9">
      <!-- 2024 -->
      <g transform="translate(396.667981 322.182437) scale(0.1 -0.1)">
       <use xlink:href="#DejaVuSans-32"/>
       <use xlink:href="#DejaVuSans-30" x="63.623047"/>
       <use xlink:href="#DejaVuSans-32" x="127.246094"/>
       <use xlink:href="#DejaVuSans-34" x="190.869141"/>
      </g>
     </g>
    </g>
    <g id="text_10">
     <!-- Updated 2023-07-05 05:35:16.952641 - Last record 2023-07-03 -->
     <g transform="translate(75.905312 335.860562) scale(0.1 -0.1)">
      <defs>
       <path id="DejaVuSans-55" d="M 556 4666 
L 1191 4666 
L 1191 1831 
Q 1191 1081 1462 751 
Q 1734 422 2344 422 
Q 2950 422 3222 751 
Q 3494 1081 3494 1831 
L 3494 4666 
L 4128 4666 
L 4128 1753 
Q 4128 841 3676 375 
Q 3225 -91 2344 -91 
Q 1459 -91 1007 375 
Q 556 841 556 1753 
L 556 4666 
z
" transform="scale(0.015625)"/>
       <path id="DejaVuSans-70" d="M 1159 525 
L 1159 -1331 
L 581 -1331 
L 581 3500 
L 1159 3500 
L 1159 2969 
Q 1341 3281 1617 3432 
Q 1894 3584 2278 3584 
Q 2916 3584 3314 3078 
Q 3713 2572 3713 1747 
Q 3713 922 3314 415 
Q 2916 -91 2278 -91 
Q 1894 -91 1617 61 
Q 1341 213 1159 525 
z
M 3116 1747 
Q 3116 2381 2855 2742 
Q 2594 3103 2138 3103 
Q 1681 3103 1420 2742 
Q 1159 2381 1159 1747 
Q 1159 1113 1420 752 
Q 1681 391 2138 391 
Q 2594 391 2855 752 
Q 3116 1113 3116 1747 
z
" transform="scale(0.015625)"/>
       <path id="DejaVuSans-64" d="M 2906 2969 
L 2906 4863 
L 3481 4863 
L 3481 0 
L 2906 0 
L 2906 525 
Q 2725 213 2448 61 
Q 2172 -91 1784 -91 
Q 1150 -91 751 415 
Q 353 922 353 1747 
Q 353 2572 751 3078 
Q 1150 3584 1784 3584 
Q 2172 3584 2448 3432 
Q 2725 3281 2906 2969 
z
M 947 1747 
Q 947 1113 1208 752 
Q 1469 391 1925 391 
Q 2381 391 2643 752 
Q 2906 1113 2906 1747 
Q 2906 2381 2643 2742 
Q 2381 3103 1925 3103 
Q 1469 3103 1208 2742 
Q 947 2381 947 1747 
z
" transform="scale(0.015625)"/>
       <path id="DejaVuSans-61" d="M 2194 1759 
Q 1497 1759 1228 1600 
Q 959 1441 959 1056 
Q 959 750 1161 570 
Q 1363 391 1709 391 
Q 2188 391 2477 730 
Q 2766 1069 2766 1631 
L 2766 1759 
L 2194 1759 
z
M 3341 1997 
L 3341 0 
L 2766 0 
L 2766 531 
Q 2569 213 2275 61 
Q 1981 -91 1556 -91 
Q 1019 -91 701 211 
Q 384 513 384 1019 
Q 384 1609 779 1909 
Q 1175 2209 1959 2209 
L 2766 2209 
L 2766 2266 
Q 2766 2663 2505 2880 
Q 2244 3097 1772 3097 
Q 1472 3097 1187 3025 
Q 903 2953 641 2809 
L 641 3341 
Q 956 3463 1253 3523 
Q 1550 3584 1831 3584 
Q 2591 3584 2966 3190 
Q 3341 2797 3341 1997 
z
" transform="scale(0.015625)"/>
       <path id="DejaVuSans-74" d="M 1172 4494 
L 1172 3500 
L 2356 3500 
L 2356 3053 
L 1172 3053 
L 1172 1153 
Q 1172 725 1289 603 
Q 1406 481 1766 481 
L 2356 481 
L 2356 0 
L 1766 0 
Q 1100 0 847 248 
Q 594 497 594 1153 
L 594 3053 
L 172 3053 
L 172 3500 
L 594 3500 
L 594 4494 
L 1172 4494 
z
" transform="scale(0.015625)"/>
       <path id="DejaVuSans-65" d="M 3597 1894 
L 3597 1613 
L 953 1613 
Q 991 1019 1311 708 
Q 1631 397 2203 397 
Q 2534 397 2845 478 
Q 3156 559 3463 722 
L 3463 178 
Q 3153 47 2828 -22 
Q 2503 -91 2169 -91 
Q 1331 -91 842 396 
Q 353 884 353 1716 
Q 353 2575 817 3079 
Q 1281 3584 2069 3584 
Q 2775 3584 3186 3129 
Q 3597 2675 3597 1894 
z
M 3022 2063 
Q 3016 2534 2758 2815 
Q 2500 3097 2075 3097 
Q 1594 3097 1305 2825 
Q 1016 2553 972 2059 
L 3022 2063 
z
" transform="scale(0.015625)"/>
       <path id="DejaVuSans-20" transform="scale(0.015625)"/>
       <path id="DejaVuSans-33" d="M 2597 2516 
Q 3050 2419 3304 2112 
Q 3559 1806 3559 1356 
Q 3559 666 3084 287 
Q 2609 -91 1734 -91 
Q 1441 -91 1130 -33 
Q 819 25 488 141 
L 488 750 
Q 750 597 1062 519 
Q 1375 441 1716 441 
Q 2309 441 2620 675 
Q 2931 909 2931 1356 
Q 2931 1769 2642 2001 
Q 2353 2234 1838 2234 
L 1294 2234 
L 1294 2753 
L 1863 2753 
Q 2328 2753 2575 2939 
Q 2822 3125 2822 3475 
Q 2822 3834 2567 4026 
Q 2313 4219 1838 4219 
Q 1578 4219 1281 4162 
Q 984 4106 628 3988 
L 628 4550 
Q 988 4650 1302 4700 
Q 1616 4750 1894 4750 
Q 2613 4750 3031 4423 
Q 3450 4097 3450 3541 
Q 3450 3153 3228 2886 
Q 3006 2619 2597 2516 
z
" transform="scale(0.015625)"/>
       <path id="DejaVuSans-2d" d="M 313 2009 
L 1997 2009 
L 1997 1497 
L 313 1497 
L 313 2009 
z
" transform="scale(0.015625)"/>
       <path id="DejaVuSans-37" d="M 525 4666 
L 3525 4666 
L 3525 4397 
L 1831 0 
L 1172 0 
L 2766 4134 
L 525 4134 
L 525 4666 
z
" transform="scale(0.015625)"/>
       <path id="DejaVuSans-35" d="M 691 4666 
L 3169 4666 
L 3169 4134 
L 1269 4134 
L 1269 2991 
Q 1406 3038 1543 3061 
Q 1681 3084 1819 3084 
Q 2600 3084 3056 2656 
Q 3513 2228 3513 1497 
Q 3513 744 3044 326 
Q 2575 -91 1722 -91 
Q 1428 -91 1123 -41 
Q 819 9 494 109 
L 494 744 
Q 775 591 1075 516 
Q 1375 441 1709 441 
Q 2250 441 2565 725 
Q 2881 1009 2881 1497 
Q 2881 1984 2565 2268 
Q 2250 2553 1709 2553 
Q 1456 2553 1204 2497 
Q 953 2441 691 2322 
L 691 4666 
z
" transform="scale(0.015625)"/>
       <path id="DejaVuSans-3a" d="M 750 794 
L 1409 794 
L 1409 0 
L 750 0 
L 750 794 
z
M 750 3309 
L 1409 3309 
L 1409 2516 
L 750 2516 
L 750 3309 
z
" transform="scale(0.015625)"/>
       <path id="DejaVuSans-2e" d="M 684 794 
L 1344 794 
L 1344 0 
L 684 0 
L 684 794 
z
" transform="scale(0.015625)"/>
       <path id="DejaVuSans-39" d="M 703 97 
L 703 672 
Q 941 559 1184 500 
Q 1428 441 1663 441 
Q 2288 441 2617 861 
Q 2947 1281 2994 2138 
Q 2813 1869 2534 1725 
Q 2256 1581 1919 1581 
Q 1219 1581 811 2004 
Q 403 2428 403 3163 
Q 403 3881 828 4315 
Q 1253 4750 1959 4750 
Q 2769 4750 3195 4129 
Q 3622 3509 3622 2328 
Q 3622 1225 3098 567 
Q 2575 -91 1691 -91 
Q 1453 -91 1209 -44 
Q 966 3 703 97 
z
M 1959 2075 
Q 2384 2075 2632 2365 
Q 2881 2656 2881 3163 
Q 2881 3666 2632 3958 
Q 2384 4250 1959 4250 
Q 1534 4250 1286 3958 
Q 1038 3666 1038 3163 
Q 1038 2656 1286 2365 
Q 1534 2075 1959 2075 
z
" transform="scale(0.015625)"/>
       <path id="DejaVuSans-4c" d="M 628 4666 
L 1259 4666 
L 1259 531 
L 3531 531 
L 3531 0 
L 628 0 
L 628 4666 
z
" transform="scale(0.015625)"/>
       <path id="DejaVuSans-73" d="M 2834 3397 
L 2834 2853 
Q 2591 2978 2328 3040 
Q 2066 3103 1784 3103 
Q 1356 3103 1142 2972 
Q 928 2841 928 2578 
Q 928 2378 1081 2264 
Q 1234 2150 1697 2047 
L 1894 2003 
Q 2506 1872 2764 1633 
Q 3022 1394 3022 966 
Q 3022 478 2636 193 
Q 2250 -91 1575 -91 
Q 1294 -91 989 -36 
Q 684 19 347 128 
L 347 722 
Q 666 556 975 473 
Q 1284 391 1588 391 
Q 1994 391 2212 530 
Q 2431 669 2431 922 
Q 2431 1156 2273 1281 
Q 2116 1406 1581 1522 
L 1381 1569 
Q 847 1681 609 1914 
Q 372 2147 372 2553 
Q 372 3047 722 3315 
Q 1072 3584 1716 3584 
Q 2034 3584 2315 3537 
Q 2597 3491 2834 3397 
z
" transform="scale(0.015625)"/>
       <path id="DejaVuSans-72" d="M 2631 2963 
Q 2534 3019 2420 3045 
Q 2306 3072 2169 3072 
Q 1681 3072 1420 2755 
Q 1159 2438 1159 1844 
L 1159 0 
L 581 0 
L 581 3500 
L 1159 3500 
L 1159 2956 
Q 1341 3275 1631 3429 
Q 1922 3584 2338 3584 
Q 2397 3584 2469 3576 
Q 2541 3569 2628 3553 
L 2631 2963 
z
" transform="scale(0.015625)"/>
       <path id="DejaVuSans-63" d="M 3122 3366 
L 3122 2828 
Q 2878 2963 2633 3030 
Q 2388 3097 2138 3097 
Q 1578 3097 1268 2742 
Q 959 2388 959 1747 
Q 959 1106 1268 751 
Q 1578 397 2138 397 
Q 2388 397 2633 464 
Q 2878 531 3122 666 
L 3122 134 
Q 2881 22 2623 -34 
Q 2366 -91 2075 -91 
Q 1284 -91 818 406 
Q 353 903 353 1747 
Q 353 2603 823 3093 
Q 1294 3584 2113 3584 
Q 2378 3584 2631 3529 
Q 2884 3475 3122 3366 
z
" transform="scale(0.015625)"/>
       <path id="DejaVuSans-6f" d="M 1959 3097 
Q 1497 3097 1228 2736 
Q 959 2375 959 1747 
Q 959 1119 1226 758 
Q 1494 397 1959 397 
Q 2419 397 2687 759 
Q 2956 1122 2956 1747 
Q 2956 2369 2687 2733 
Q 2419 3097 1959 3097 
z
M 1959 3584 
Q 2709 3584 3137 3096 
Q 3566 2609 3566 1747 
Q 3566 888 3137 398 
Q 2709 -91 1959 -91 
Q 1206 -91 779 398 
Q 353 888 353 1747 
Q 353 2609 779 3096 
Q 1206 3584 1959 3584 
z
" transform="scale(0.015625)"/>
      </defs>
      <use xlink:href="#DejaVuSans-55"/>
      <use xlink:href="#DejaVuSans-70" x="73.193359"/>
      <use xlink:href="#DejaVuSans-64" x="136.669922"/>
      <use xlink:href="#DejaVuSans-61" x="200.146484"/>
      <use xlink:href="#DejaVuSans-74" x="261.425781"/>
      <use xlink:href="#DejaVuSans-65" x="300.634766"/>
      <use xlink:href="#DejaVuSans-64" x="362.158203"/>
      <use xlink:href="#DejaVuSans-20" x="425.634766"/>
      <use xlink:href="#DejaVuSans-32" x="457.421875"/>
      <use xlink:href="#DejaVuSans-30" x="521.044922"/>
      <use xlink:href="#DejaVuSans-32" x="584.667969"/>
      <use xlink:href="#DejaVuSans-33" x="648.291016"/>
      <use xlink:href="#DejaVuSans-2d" x="711.914062"/>
      <use xlink:href="#DejaVuSans-30" x="747.998047"/>
      <use xlink:href="#DejaVuSans-37" x="811.621094"/>
      <use xlink:href="#DejaVuSans-2d" x="875.244141"/>
      <use xlink:href="#DejaVuSans-30" x="911.328125"/>
      <use xlink:href="#DejaVuSans-35" x="974.951172"/>
      <use xlink:href="#DejaVuSans-20" x="1038.574219"/>
      <use xlink:href="#DejaVuSans-30" x="1070.361328"/>
      <use xlink:href="#DejaVuSans-35" x="1133.984375"/>
      <use xlink:href="#DejaVuSans-3a" x="1197.607422"/>
      <use xlink:href="#DejaVuSans-33" x="1231.298828"/>
      <use xlink:href="#DejaVuSans-35" x="1294.921875"/>
      <use xlink:href="#DejaVuSans-3a" x="1358.544922"/>
      <use xlink:href="#DejaVuSans-31" x="1392.236328"/>
      <use xlink:href="#DejaVuSans-36" x="1455.859375"/>
      <use xlink:href="#DejaVuSans-2e" x="1519.482422"/>
      <use xlink:href="#DejaVuSans-39" x="1551.269531"/>
      <use xlink:href="#DejaVuSans-35" x="1614.892578"/>
      <use xlink:href="#DejaVuSans-32" x="1678.515625"/>
      <use xlink:href="#DejaVuSans-36" x="1742.138672"/>
      <use xlink:href="#DejaVuSans-34" x="1805.761719"/>
      <use xlink:href="#DejaVuSans-31" x="1869.384766"/>
      <use xlink:href="#DejaVuSans-20" x="1933.007812"/>
      <use xlink:href="#DejaVuSans-2d" x="1964.794922"/>
      <use xlink:href="#DejaVuSans-20" x="2000.878906"/>
      <use xlink:href="#DejaVuSans-4c" x="2032.666016"/>
      <use xlink:href="#DejaVuSans-61" x="2088.378906"/>
      <use xlink:href="#DejaVuSans-73" x="2149.658203"/>
      <use xlink:href="#DejaVuSans-74" x="2201.757812"/>
      <use xlink:href="#DejaVuSans-20" x="2240.966797"/>
      <use xlink:href="#DejaVuSans-72" x="2272.753906"/>
      <use xlink:href="#DejaVuSans-65" x="2311.617188"/>
      <use xlink:href="#DejaVuSans-63" x="2373.140625"/>
      <use xlink:href="#DejaVuSans-6f" x="2428.121094"/>
      <use xlink:href="#DejaVuSans-72" x="2489.302734"/>
      <use xlink:href="#DejaVuSans-64" x="2528.666016"/>
      <use xlink:href="#DejaVuSans-20" x="2592.142578"/>
      <use xlink:href="#DejaVuSans-32" x="2623.929688"/>
      <use xlink:href="#DejaVuSans-30" x="2687.552734"/>
      <use xlink:href="#DejaVuSans-32" x="2751.175781"/>
      <use xlink:href="#DejaVuSans-33" x="2814.798828"/>
      <use xlink:href="#DejaVuSans-2d" x="2878.421875"/>
      <use xlink:href="#DejaVuSans-30" x="2914.505859"/>
      <use xlink:href="#DejaVuSans-37" x="2978.128906"/>
      <use xlink:href="#DejaVuSans-2d" x="3041.751953"/>
      <use xlink:href="#DejaVuSans-30" x="3077.835938"/>
      <use xlink:href="#DejaVuSans-33" x="3141.458984"/>
     </g>
    </g>
   </g>
   <g id="matplotlib.axis_2">
    <g id="ytick_1">
     <g id="line2d_10">
      <defs>
       <path id="m475ced1f90" d="M 0 0 
L -3.5 0 
" style="stroke: #000000; stroke-width: 0.8"/>
      </defs>
      <g>
       <use xlink:href="#m475ced1f90" x="57.6" y="295.488" style="stroke: #000000; stroke-width: 0.8"/>
      </g>
     </g>
     <g id="text_11">
      <!-- 0 -->
      <g transform="translate(44.2375 299.287219) scale(0.1 -0.1)">
       <use xlink:href="#DejaVuSans-30"/>
      </g>
     </g>
    </g>
    <g id="ytick_2">
     <g id="line2d_11">
      <g>
       <use xlink:href="#m475ced1f90" x="57.6" y="241.435261" style="stroke: #000000; stroke-width: 0.8"/>
      </g>
     </g>
     <g id="text_12">
      <!-- 10 -->
      <g transform="translate(37.875 245.23448) scale(0.1 -0.1)">
       <use xlink:href="#DejaVuSans-31"/>
       <use xlink:href="#DejaVuSans-30" x="63.623047"/>
      </g>
     </g>
    </g>
    <g id="ytick_3">
     <g id="line2d_12">
      <g>
       <use xlink:href="#m475ced1f90" x="57.6" y="187.382522" style="stroke: #000000; stroke-width: 0.8"/>
      </g>
     </g>
     <g id="text_13">
      <!-- 20 -->
      <g transform="translate(37.875 191.181741) scale(0.1 -0.1)">
       <use xlink:href="#DejaVuSans-32"/>
       <use xlink:href="#DejaVuSans-30" x="63.623047"/>
      </g>
     </g>
    </g>
    <g id="ytick_4">
     <g id="line2d_13">
      <g>
       <use xlink:href="#m475ced1f90" x="57.6" y="133.329784" style="stroke: #000000; stroke-width: 0.8"/>
      </g>
     </g>
     <g id="text_14">
      <!-- 30 -->
      <g transform="translate(37.875 137.129002) scale(0.1 -0.1)">
       <use xlink:href="#DejaVuSans-33"/>
       <use xlink:href="#DejaVuSans-30" x="63.623047"/>
      </g>
     </g>
    </g>
    <g id="ytick_5">
     <g id="line2d_14">
      <g>
       <use xlink:href="#m475ced1f90" x="57.6" y="79.277045" style="stroke: #000000; stroke-width: 0.8"/>
      </g>
     </g>
     <g id="text_15">
      <!-- 40 -->
      <g transform="translate(37.875 83.076263) scale(0.1 -0.1)">
       <use xlink:href="#DejaVuSans-34"/>
       <use xlink:href="#DejaVuSans-30" x="63.623047"/>
      </g>
     </g>
    </g>
    <g id="text_16">
     <!-- IPv6 as % of total Google traffic -->
     <g transform="translate(31.795312 253.735813) rotate(-90) scale(0.1 -0.1)">
      <defs>
       <path id="DejaVuSans-49" d="M 628 4666 
L 1259 4666 
L 1259 0 
L 628 0 
L 628 4666 
z
" transform="scale(0.015625)"/>
       <path id="DejaVuSans-50" d="M 1259 4147 
L 1259 2394 
L 2053 2394 
Q 2494 2394 2734 2622 
Q 2975 2850 2975 3272 
Q 2975 3691 2734 3919 
Q 2494 4147 2053 4147 
L 1259 4147 
z
M 628 4666 
L 2053 4666 
Q 2838 4666 3239 4311 
Q 3641 3956 3641 3272 
Q 3641 2581 3239 2228 
Q 2838 1875 2053 1875 
L 1259 1875 
L 1259 0 
L 628 0 
L 628 4666 
z
" transform="scale(0.015625)"/>
       <path id="DejaVuSans-76" d="M 191 3500 
L 800 3500 
L 1894 563 
L 2988 3500 
L 3597 3500 
L 2284 0 
L 1503 0 
L 191 3500 
z
" transform="scale(0.015625)"/>
       <path id="DejaVuSans-25" d="M 4653 2053 
Q 4381 2053 4226 1822 
Q 4072 1591 4072 1178 
Q 4072 772 4226 539 
Q 4381 306 4653 306 
Q 4919 306 5073 539 
Q 5228 772 5228 1178 
Q 5228 1588 5073 1820 
Q 4919 2053 4653 2053 
z
M 4653 2450 
Q 5147 2450 5437 2106 
Q 5728 1763 5728 1178 
Q 5728 594 5436 251 
Q 5144 -91 4653 -91 
Q 4153 -91 3862 251 
Q 3572 594 3572 1178 
Q 3572 1766 3864 2108 
Q 4156 2450 4653 2450 
z
M 1428 4353 
Q 1159 4353 1004 4120 
Q 850 3888 850 3481 
Q 850 3069 1003 2837 
Q 1156 2606 1428 2606 
Q 1700 2606 1854 2837 
Q 2009 3069 2009 3481 
Q 2009 3884 1853 4118 
Q 1697 4353 1428 4353 
z
M 4250 4750 
L 4750 4750 
L 1831 -91 
L 1331 -91 
L 4250 4750 
z
M 1428 4750 
Q 1922 4750 2215 4408 
Q 2509 4066 2509 3481 
Q 2509 2891 2217 2550 
Q 1925 2209 1428 2209 
Q 931 2209 642 2551 
Q 353 2894 353 3481 
Q 353 4063 643 4406 
Q 934 4750 1428 4750 
z
" transform="scale(0.015625)"/>
       <path id="DejaVuSans-66" d="M 2375 4863 
L 2375 4384 
L 1825 4384 
Q 1516 4384 1395 4259 
Q 1275 4134 1275 3809 
L 1275 3500 
L 2222 3500 
L 2222 3053 
L 1275 3053 
L 1275 0 
L 697 0 
L 697 3053 
L 147 3053 
L 147 3500 
L 697 3500 
L 697 3744 
Q 697 4328 969 4595 
Q 1241 4863 1831 4863 
L 2375 4863 
z
" transform="scale(0.015625)"/>
       <path id="DejaVuSans-6c" d="M 603 4863 
L 1178 4863 
L 1178 0 
L 603 0 
L 603 4863 
z
" transform="scale(0.015625)"/>
       <path id="DejaVuSans-47" d="M 3809 666 
L 3809 1919 
L 2778 1919 
L 2778 2438 
L 4434 2438 
L 4434 434 
Q 4069 175 3628 42 
Q 3188 -91 2688 -91 
Q 1594 -91 976 548 
Q 359 1188 359 2328 
Q 359 3472 976 4111 
Q 1594 4750 2688 4750 
Q 3144 4750 3555 4637 
Q 3966 4525 4313 4306 
L 4313 3634 
Q 3963 3931 3569 4081 
Q 3175 4231 2741 4231 
Q 1884 4231 1454 3753 
Q 1025 3275 1025 2328 
Q 1025 1384 1454 906 
Q 1884 428 2741 428 
Q 3075 428 3337 486 
Q 3600 544 3809 666 
z
" transform="scale(0.015625)"/>
       <path id="DejaVuSans-67" d="M 2906 1791 
Q 2906 2416 2648 2759 
Q 2391 3103 1925 3103 
Q 1463 3103 1205 2759 
Q 947 2416 947 1791 
Q 947 1169 1205 825 
Q 1463 481 1925 481 
Q 2391 481 2648 825 
Q 2906 1169 2906 1791 
z
M 3481 434 
Q 3481 -459 3084 -895 
Q 2688 -1331 1869 -1331 
Q 1566 -1331 1297 -1286 
Q 1028 -1241 775 -1147 
L 775 -588 
Q 1028 -725 1275 -790 
Q 1522 -856 1778 -856 
Q 2344 -856 2625 -561 
Q 2906 -266 2906 331 
L 2906 616 
Q 2728 306 2450 153 
Q 2172 0 1784 0 
Q 1141 0 747 490 
Q 353 981 353 1791 
Q 353 2603 747 3093 
Q 1141 3584 1784 3584 
Q 2172 3584 2450 3431 
Q 2728 3278 2906 2969 
L 2906 3500 
L 3481 3500 
L 3481 434 
z
" transform="scale(0.015625)"/>
       <path id="DejaVuSans-69" d="M 603 3500 
L 1178 3500 
L 1178 0 
L 603 0 
L 603 3500 
z
M 603 4863 
L 1178 4863 
L 1178 4134 
L 603 4134 
L 603 4863 
z
" transform="scale(0.015625)"/>
      </defs>
      <use xlink:href="#DejaVuSans-49"/>
      <use xlink:href="#DejaVuSans-50" x="29.492188"/>
      <use xlink:href="#DejaVuSans-76" x="89.794922"/>
      <use xlink:href="#DejaVuSans-36" x="148.974609"/>
      <use xlink:href="#DejaVuSans-20" x="212.597656"/>
      <use xlink:href="#DejaVuSans-61" x="244.384766"/>
      <use xlink:href="#DejaVuSans-73" x="305.664062"/>
      <use xlink:href="#DejaVuSans-20" x="357.763672"/>
      <use xlink:href="#DejaVuSans-25" x="389.550781"/>
      <use xlink:href="#DejaVuSans-20" x="484.570312"/>
      <use xlink:href="#DejaVuSans-6f" x="516.357422"/>
      <use xlink:href="#DejaVuSans-66" x="577.539062"/>
      <use xlink:href="#DejaVuSans-20" x="612.744141"/>
      <use xlink:href="#DejaVuSans-74" x="644.53125"/>
      <use xlink:href="#DejaVuSans-6f" x="683.740234"/>
      <use xlink:href="#DejaVuSans-74" x="744.921875"/>
      <use xlink:href="#DejaVuSans-61" x="784.130859"/>
      <use xlink:href="#DejaVuSans-6c" x="845.410156"/>
      <use xlink:href="#DejaVuSans-20" x="873.193359"/>
      <use xlink:href="#DejaVuSans-47" x="904.980469"/>
      <use xlink:href="#DejaVuSans-6f" x="982.470703"/>
      <use xlink:href="#DejaVuSans-6f" x="1043.652344"/>
      <use xlink:href="#DejaVuSans-67" x="1104.833984"/>
      <use xlink:href="#DejaVuSans-6c" x="1168.310547"/>
      <use xlink:href="#DejaVuSans-65" x="1196.09375"/>
      <use xlink:href="#DejaVuSans-20" x="1257.617188"/>
      <use xlink:href="#DejaVuSans-74" x="1289.404297"/>
      <use xlink:href="#DejaVuSans-72" x="1328.613281"/>
      <use xlink:href="#DejaVuSans-61" x="1369.726562"/>
      <use xlink:href="#DejaVuSans-66" x="1431.005859"/>
      <use xlink:href="#DejaVuSans-66" x="1466.210938"/>
      <use xlink:href="#DejaVuSans-69" x="1501.416016"/>
      <use xlink:href="#DejaVuSans-63" x="1529.199219"/>
     </g>
    </g>
   </g>
   <g id="line2d_15">
    <path d="M 73.832727 294.503197 
L 75.510529 294.336287 
L 75.929979 294.495224 
L 77.60778 294.494527 
L 79.285581 294.349649 
L 79.705032 294.221534 
L 80.963383 294.242787 
L 82.221734 294.211912 
L 82.641184 294.284046 
L 84.318985 294.136649 
L 85.996786 294.194172 
L 87.674588 294.11786 
L 91.03019 294.184026 
L 91.449641 294.288013 
L 93.546892 294.262749 
L 94.805243 294.213118 
L 96.483044 294.116098 
L 97.321945 294.124957 
L 97.741395 293.861807 
L 100.258097 293.771539 
L 101.096998 293.736902 
L 103.194249 293.820678 
L 105.291501 293.871704 
L 107.388753 293.838591 
L 108.647104 294.030295 
L 109.905455 293.977312 
L 110.324905 293.963545 
L 111.163805 294.149919 
L 113.261057 294.166951 
L 114.519408 294.284008 
L 116.61666 294.196307 
L 117.45556 294.090088 
L 117.875011 294.002533 
L 118.713911 293.99822 
L 121.650063 293.9346 
L 122.488964 294.026279 
L 122.908414 293.897141 
L 125.425116 294.136671 
L 128.780719 293.964113 
L 129.200169 293.969886 
L 129.619619 293.84697 
L 130.45852 293.949783 
L 131.297421 293.758945 
L 131.716871 293.806387 
L 132.136321 293.689228 
L 132.555772 293.740524 
L 133.394672 293.631505 
L 134.653023 293.615986 
L 135.072474 293.750496 
L 136.750275 293.780879 
L 137.589175 293.795322 
L 138.008626 293.757123 
L 138.428076 293.579646 
L 140.105877 293.482454 
L 140.525328 293.579268 
L 144.300381 293.25946 
L 145.139281 293.061848 
L 145.978182 293.211126 
L 148.494884 292.821719 
L 150.592135 292.682036 
L 151.011586 292.475322 
L 151.431036 292.554979 
L 151.850486 292.371995 
L 154.367188 291.99322 
L 156.46444 291.50714 
L 157.722791 291.382181 
L 158.142241 291.484254 
L 160.239493 291.100328 
L 161.497844 290.720986 
L 161.917294 290.778379 
L 162.336744 290.437836 
L 162.756195 290.273565 
L 164.433996 290.075494 
L 164.853446 290.235225 
L 165.692347 290.042311 
L 166.111797 289.994458 
L 166.531247 289.746059 
L 167.370148 289.580311 
L 169.047949 289.563047 
L 169.88685 289.351306 
L 171.145201 289.195288 
L 171.564651 288.991299 
L 171.984101 288.971623 
L 172.403552 289.077102 
L 174.081353 288.314499 
L 174.500803 288.331969 
L 176.178605 287.852434 
L 176.598055 287.531069 
L 177.017505 287.457336 
L 177.436956 287.25846 
L 177.856406 287.290848 
L 179.114757 286.802487 
L 179.534207 286.888842 
L 179.953658 286.648464 
L 180.373108 286.606216 
L 182.470359 285.476919 
L 183.30926 285.133117 
L 184.148161 284.530991 
L 185.406512 283.042854 
L 185.825962 283.279881 
L 186.245412 283.320885 
L 187.503763 281.907093 
L 187.923214 281.737567 
L 188.342664 281.022952 
L 189.181564 280.800033 
L 190.020465 280.324374 
L 190.439915 280.373946 
L 191.698266 279.593581 
L 192.117717 279.427834 
L 192.537167 279.121312 
L 193.376068 279.048681 
L 193.795518 278.354298 
L 194.214968 278.345147 
L 194.634419 277.581722 
L 195.053869 277.186348 
L 195.89277 277.299826 
L 196.31222 277.017174 
L 196.73167 276.581774 
L 197.570571 276.074932 
L 197.990021 275.621829 
L 198.409471 275.899628 
L 200.087273 275.010628 
L 200.506723 274.681917 
L 200.926173 273.331123 
L 201.345624 273.58736 
L 202.184524 272.670107 
L 202.603975 272.630724 
L 203.023425 273.02726 
L 204.281776 272.124979 
L 204.701226 271.512864 
L 205.540127 271.560058 
L 205.959577 270.897733 
L 206.379027 270.852145 
L 206.798478 267.343296 
L 207.217928 269.651937 
L 207.637378 271.027233 
L 208.056829 270.358963 
L 208.476279 269.985518 
L 208.895729 269.925336 
L 209.31518 269.046422 
L 209.73463 268.771023 
L 210.992981 266.863367 
L 211.412431 265.617781 
L 211.831882 264.906836 
L 212.251332 263.941622 
L 212.670782 263.304351 
L 213.090233 264.322099 
L 213.509683 264.166346 
L 213.929133 264.194524 
L 214.348584 264.358936 
L 214.768034 264.665934 
L 215.187484 264.548807 
L 215.606934 262.304305 
L 216.026385 262.636297 
L 217.284736 261.45359 
L 217.704186 261.294405 
L 218.543087 261.364392 
L 218.962537 259.667742 
L 219.381987 259.605949 
L 220.220888 258.266992 
L 220.640338 258.723495 
L 221.059789 256.633648 
L 221.479239 257.127614 
L 221.898689 255.716843 
L 222.31814 255.041292 
L 222.73759 254.026928 
L 223.15704 254.731343 
L 223.57649 253.664293 
L 223.995941 251.889126 
L 224.415391 252.783645 
L 224.834841 253.038649 
L 225.254292 252.487625 
L 225.673742 250.864475 
L 226.093192 251.315356 
L 226.512643 249.882277 
L 226.932093 250.212399 
L 227.770994 248.27956 
L 228.190444 247.300432 
L 229.448795 246.993023 
L 229.868245 245.862435 
L 230.287696 246.000015 
L 230.707146 245.575896 
L 231.126596 244.455355 
L 231.546047 244.170957 
L 231.965497 242.918036 
L 232.384947 242.059116 
L 232.804397 241.907742 
L 233.223848 242.119158 
L 233.643298 241.572636 
L 234.062748 239.244477 
L 234.901649 240.610097 
L 235.321099 240.347769 
L 236.16 240.26916 
L 236.57945 240.315413 
L 237.418351 240.034511 
L 237.837801 238.724608 
L 238.257252 238.662599 
L 238.676702 237.500914 
L 239.096152 237.497649 
L 239.515603 237.321177 
L 240.773953 233.998658 
L 241.193404 232.041733 
L 241.612854 233.378117 
L 242.032304 232.817984 
L 242.451755 231.660202 
L 242.871205 231.917914 
L 243.290655 229.446072 
L 243.710106 229.808722 
L 244.129556 229.505633 
L 244.549006 227.780869 
L 244.968457 227.764545 
L 245.387907 226.478922 
L 245.807357 226.788477 
L 246.226808 225.771615 
L 246.646258 225.231428 
L 247.065708 225.518411 
L 247.485159 224.82213 
L 247.904609 223.735892 
L 248.324059 224.083132 
L 248.74351 223.567961 
L 249.16296 221.858559 
L 249.58241 221.143712 
L 250.00186 221.21058 
L 250.421311 219.211597 
L 250.840761 219.56708 
L 251.679662 217.186192 
L 252.099112 214.810358 
L 252.518562 215.045179 
L 253.357463 213.709233 
L 253.776913 212.21234 
L 254.196364 212.412454 
L 254.615814 211.785123 
L 255.035264 209.418305 
L 255.454715 208.587898 
L 255.874165 204.663821 
L 256.293615 207.215115 
L 256.713066 206.752554 
L 257.132516 207.360988 
L 257.551966 206.646513 
L 258.390867 207.806879 
L 258.810317 207.575555 
L 259.229767 206.558385 
L 259.649218 206.864292 
L 260.488118 205.568793 
L 260.907569 204.495328 
L 261.327019 204.325088 
L 261.746469 203.599441 
L 262.16592 200.990018 
L 262.58537 201.808847 
L 263.00482 198.309624 
L 263.424271 198.580493 
L 263.843721 196.678448 
L 264.263171 195.506092 
L 264.682622 194.800223 
L 265.102072 194.313343 
L 265.521522 193.349901 
L 265.940973 191.585334 
L 266.360423 188.676058 
L 266.779873 189.410716 
L 268.457674 186.097267 
L 268.877125 185.552334 
L 269.296575 185.572961 
L 269.716025 185.873186 
L 270.135476 184.842265 
L 270.554926 183.397425 
L 270.974376 184.691804 
L 271.393827 184.716787 
L 271.813277 185.869932 
L 272.232727 184.607952 
L 272.652178 182.645908 
L 273.071628 182.897318 
L 273.491078 182.050268 
L 274.749429 180.703204 
L 275.58833 179.713741 
L 276.00778 179.60656 
L 276.42723 193.953417 
L 276.846681 177.785221 
L 277.266131 177.009191 
L 277.685581 173.088465 
L 278.105032 176.725982 
L 278.943932 176.19447 
L 279.363383 176.191897 
L 279.782833 175.705115 
L 280.202283 175.465223 
L 280.621734 176.797856 
L 281.041184 177.642694 
L 281.460634 177.437316 
L 281.880085 176.292744 
L 282.299535 176.374931 
L 283.557886 175.412473 
L 283.977336 172.84113 
L 284.396786 173.856046 
L 284.816237 171.132783 
L 285.235687 172.281079 
L 285.655137 169.995264 
L 286.074588 168.568018 
L 286.494038 169.40956 
L 286.913488 167.659273 
L 287.332939 166.497106 
L 287.752389 166.249988 
L 288.171839 167.2001 
L 288.59129 167.701282 
L 289.849641 165.134431 
L 290.269091 165.724736 
L 290.688541 166.575434 
L 291.107992 166.740392 
L 291.527442 164.793537 
L 291.946892 164.068387 
L 292.366342 162.657097 
L 292.785793 162.309376 
L 293.205243 162.111726 
L 293.624693 162.259415 
L 294.044144 162.073257 
L 294.883044 160.134623 
L 295.302495 161.265655 
L 295.721945 157.682791 
L 296.141395 157.774945 
L 296.560846 157.338037 
L 296.980296 154.724885 
L 297.399746 153.940828 
L 297.819197 153.469564 
L 298.238647 153.472996 
L 298.658097 152.05629 
L 299.077548 151.959714 
L 299.916448 149.719747 
L 300.335899 151.198251 
L 300.755349 152.150563 
L 301.594249 149.882694 
L 302.0137 150.995002 
L 302.43315 150.791624 
L 302.8526 151.275796 
L 303.272051 149.563983 
L 303.691501 148.966711 
L 304.110951 150.260901 
L 304.530402 148.40313 
L 304.949852 148.551775 
L 305.369302 148.021848 
L 306.208203 147.816415 
L 306.627653 144.146731 
L 307.047104 144.039836 
L 307.466554 144.329456 
L 307.886004 145.217067 
L 308.724905 140.934636 
L 309.144355 139.045477 
L 309.563805 138.565975 
L 309.983256 138.730674 
L 310.402706 138.385882 
L 310.822156 136.509301 
L 311.241607 138.056831 
L 311.661057 136.409157 
L 312.080507 137.938152 
L 312.499958 136.842076 
L 312.919408 136.178601 
L 313.338858 136.123272 
L 313.758309 136.198022 
L 314.177759 134.769213 
L 314.597209 134.931555 
L 315.01666 136.477939 
L 315.43611 135.953963 
L 315.85556 136.588272 
L 316.275011 136.847525 
L 316.694461 134.865741 
L 317.113911 136.052642 
L 317.533362 136.37158 
L 317.952812 135.635041 
L 318.372262 135.185014 
L 318.791712 133.409798 
L 319.211163 133.78447 
L 319.630613 133.398101 
L 320.050063 133.526233 
L 320.469514 132.493912 
L 320.888964 132.042334 
L 321.308414 130.735679 
L 321.727865 130.164547 
L 322.147315 130.971976 
L 322.566765 131.212046 
L 322.986216 131.266055 
L 323.825116 129.407884 
L 324.244567 129.853344 
L 324.664017 128.498355 
L 325.083467 129.0848 
L 325.502918 128.831369 
L 325.922368 127.894154 
L 326.341818 128.123191 
L 326.761268 128.767013 
L 327.180719 128.473507 
L 327.600169 128.488847 
L 328.019619 126.054328 
L 328.85852 124.321035 
L 329.27797 124.607217 
L 329.697421 124.001265 
L 330.116871 121.984508 
L 330.536321 122.636898 
L 330.955772 119.742865 
L 331.375222 122.058939 
L 331.794672 120.141618 
L 332.214123 117.520666 
L 332.633573 118.287371 
L 333.053023 116.650849 
L 333.472474 115.546557 
L 333.891924 115.652197 
L 334.311374 114.82372 
L 334.730825 116.900643 
L 335.150275 115.170377 
L 335.569725 115.819161 
L 335.989175 116.199811 
L 337.247526 113.545108 
L 337.666977 115.755352 
L 338.086427 115.799637 
L 338.505877 114.822564 
L 338.925328 115.37622 
L 339.344778 116.718572 
L 339.764228 115.674581 
L 340.183679 113.245472 
L 340.603129 117.278077 
L 341.022579 116.191795 
L 341.44203 114.619477 
L 341.86148 115.938455 
L 342.28093 116.033756 
L 342.700381 113.87983 
L 343.119831 112.807159 
L 343.539281 110.840704 
L 343.958732 111.799659 
L 344.378182 111.073141 
L 344.797632 111.297222 
L 345.217082 111.912813 
L 345.636533 110.340878 
L 346.055983 109.69638 
L 346.475433 110.861725 
L 346.894884 110.571272 
L 347.314334 108.049572 
L 347.733784 107.494877 
L 348.153235 105.77867 
L 348.572685 108.596915 
L 348.992135 109.53159 
L 349.411586 108.612742 
L 349.831036 108.437022 
L 350.250486 108.581126 
L 350.669937 103.610458 
L 351.089387 106.933377 
L 351.508837 105.018586 
L 352.347738 105.987216 
L 352.767188 101.279466 
L 353.186638 100.677805 
L 353.606089 98.784062 
L 354.025539 98.708691 
L 354.444989 100.421633 
L 354.86444 98.059431 
L 355.28389 97.595096 
L 355.70334 96.375212 
L 356.122791 95.93405 
L 356.542241 94.548046 
L 356.961691 94.755268 
L 357.381142 98.115603 
L 357.800592 96.303517 
L 358.220042 95.156145 
L 358.639493 97.338292 
L 359.058943 96.131564 
L 359.478393 95.70678 
L 359.897844 93.964552 
L 360.736744 96.737414 
L 361.156195 96.432887 
L 361.575645 96.867627 
L 361.995095 96.729885 
L 362.414545 95.167707 
L 362.833996 96.973944 
L 363.253446 94.803867 
L 363.672896 94.036437 
L 364.092347 93.956033 
L 364.931247 91.254391 
L 365.350698 88.239767 
L 365.770148 90.295728 
L 366.189598 94.13577 
L 366.609049 89.810302 
L 367.028499 89.607107 
L 367.447949 92.509734 
L 368.28685 88.646406 
L 368.7063 88.594764 
L 369.125751 89.410339 
L 369.545201 89.377058 
L 369.964651 90.001611 
L 370.384101 82.659319 
L 370.803552 81.8755 
L 371.223002 82.094376 
L 371.642452 80.593802 
L 372.061903 80.101625 
L 372.481353 77.491791 
L 372.900803 80.807953 
L 373.320254 82.100971 
L 373.739704 79.264061 
L 374.159154 81.133427 
L 374.578605 77.95445 
L 374.998055 76.335835 
L 375.417505 72.409093 
L 375.836956 73.46571 
L 376.256406 67.647663 
L 376.675856 70.00453 
L 377.514757 73.588313 
L 377.934207 71.892084 
L 378.353658 72.222968 
L 378.773108 72.934583 
L 379.192558 72.7897 
L 379.612008 74.857714 
L 380.031459 73.893705 
L 380.450909 72.382434 
L 380.870359 72.731015 
L 381.28981 71.18222 
L 381.70926 71.575724 
L 382.12871 69.681543 
L 382.548161 71.018689 
L 382.967611 74.626596 
L 383.387061 72.198671 
L 383.806512 68.517825 
L 384.225962 71.568276 
L 384.645412 69.796243 
L 385.064863 71.636739 
L 385.484313 69.974779 
L 385.903763 69.951147 
L 387.162114 63.552779 
L 387.581564 66.41952 
L 388.001015 66.200314 
L 388.420465 64.765355 
L 388.839915 65.188285 
L 389.259366 67.633674 
L 390.098266 65.520979 
L 390.517717 67.069396 
L 390.937167 66.198255 
L 391.356617 64.510247 
L 391.776068 64.543073 
L 392.614968 61.742169 
L 393.034419 62.964171 
L 393.453869 62.94435 
L 393.873319 60.284296 
L 394.29277 61.654598 
L 395.13167 61.424771 
L 395.551121 59.947337 
L 395.970571 61.634479 
L 396.390021 61.684132 
L 396.809471 58.714729 
L 397.228922 58.678362 
L 397.648372 57.273272 
L 398.067822 53.568 
L 398.487273 71.254489 
L 398.487273 71.254489 
" clip-path="url(#p4e6c0e6486)" style="fill: none; stroke: #1f77b4; stroke-width: 1.5; stroke-linecap: square"/>
   </g>
   <g id="line2d_16">
    <path d="M 73.832727 294.761504 
L 75.510529 294.624178 
L 75.929979 294.73911 
L 85.157886 294.487143 
L 85.996786 294.478414 
L 88.094038 294.412875 
L 90.19129 294.479976 
L 91.869091 294.476949 
L 97.741395 294.395356 
L 98.160846 294.201853 
L 114.099958 294.364784 
L 116.197209 294.426015 
L 121.650063 294.142768 
L 126.683467 294.321007 
L 132.555772 293.874904 
L 133.394672 293.818462 
L 134.233573 293.756048 
L 135.072474 293.853153 
L 135.911374 293.865915 
L 136.750275 293.916957 
L 138.008626 293.951454 
L 138.847526 293.650601 
L 139.686427 293.689055 
L 140.105877 293.76849 
L 141.783679 293.667315 
L 142.203129 293.721648 
L 142.622579 293.589257 
L 144.719831 293.54208 
L 145.558732 293.373403 
L 148.494884 293.278697 
L 150.592135 293.008087 
L 151.011586 293.12789 
L 152.269937 292.805665 
L 153.947738 292.543618 
L 154.786638 292.55099 
L 156.044989 292.141773 
L 157.722791 291.854672 
L 158.142241 291.978788 
L 159.820042 291.850807 
L 165.692347 290.797341 
L 166.111797 290.843605 
L 166.950698 290.57926 
L 167.789598 290.474144 
L 168.209049 290.232506 
L 169.4674 290.507532 
L 170.3063 290.317742 
L 170.725751 290.261954 
L 171.145201 290.027154 
L 171.564651 290.044738 
L 171.984101 289.870807 
L 173.242452 289.781933 
L 173.661903 289.533918 
L 174.920254 289.283129 
L 175.339704 289.285837 
L 175.759154 289.126966 
L 176.178605 289.11082 
L 177.856406 288.618183 
L 178.695307 288.381422 
L 179.114757 288.130628 
L 179.534207 288.272922 
L 180.792558 287.77228 
L 181.631459 287.354987 
L 182.050909 287.038784 
L 182.88981 286.819124 
L 183.30926 286.920052 
L 184.148161 286.765731 
L 185.406512 285.584884 
L 185.825962 285.301226 
L 186.245412 285.379208 
L 186.664863 285.227023 
L 187.923214 284.340369 
L 188.342664 284.19034 
L 189.181564 283.474054 
L 189.601015 283.375911 
L 190.020465 282.02409 
L 190.439915 282.150303 
L 190.859366 283.050849 
L 191.278816 282.953056 
L 192.117717 282.262041 
L 192.537167 282.88648 
L 192.956617 282.077948 
L 193.376068 282.028219 
L 193.795518 281.776907 
L 194.214968 281.189105 
L 194.634419 281.218974 
L 195.473319 280.318683 
L 195.89277 280.345833 
L 196.31222 280.144681 
L 196.73167 279.414418 
L 197.151121 279.661001 
L 197.570571 279.108269 
L 197.990021 279.27407 
L 198.409471 279.074535 
L 198.828922 279.155965 
L 199.248372 278.533175 
L 199.667822 278.55718 
L 200.087273 277.921806 
L 200.506723 278.032192 
L 201.345624 276.691149 
L 201.765074 276.425767 
L 202.184524 276.341369 
L 202.603975 276.033576 
L 203.023425 276.003069 
L 203.442875 276.120887 
L 203.862326 276.098542 
L 205.120677 275.658531 
L 205.540127 275.801793 
L 206.379027 275.43158 
L 206.798478 274.793314 
L 207.217928 273.360674 
L 207.637378 274.430069 
L 208.056829 274.78212 
L 208.476279 274.412534 
L 208.895729 274.626918 
L 209.31518 274.092077 
L 210.15408 273.400521 
L 210.573531 272.714938 
L 210.992981 272.284975 
L 211.412431 271.384241 
L 211.831882 268.718424 
L 212.251332 267.010925 
L 212.670782 269.540426 
L 213.090233 270.207475 
L 213.509683 270.22582 
L 213.929133 270.49243 
L 214.348584 270.47323 
L 214.768034 270.830043 
L 215.187484 270.093699 
L 215.606934 270.223177 
L 216.026385 268.847918 
L 216.445835 268.427664 
L 216.865285 268.666593 
L 217.704186 267.295183 
L 218.123636 267.666374 
L 218.543087 267.630586 
L 218.962537 267.188629 
L 219.381987 266.547164 
L 219.801438 266.21341 
L 220.220888 266.260717 
L 221.059789 264.272338 
L 221.479239 263.687498 
L 221.898689 263.373208 
L 222.31814 262.227631 
L 222.73759 261.830857 
L 223.995941 259.520864 
L 224.415391 259.913044 
L 225.254292 259.527324 
L 226.093192 258.786747 
L 226.512643 259.108701 
L 227.351543 258.700436 
L 228.190444 257.678915 
L 229.448795 257.15676 
L 229.868245 257.160181 
L 230.287696 256.08918 
L 230.707146 255.981302 
L 231.126596 256.010652 
L 231.546047 255.462141 
L 232.804397 252.746348 
L 233.223848 252.234079 
L 233.643298 249.762048 
L 234.062748 246.274349 
L 234.482199 251.44918 
L 234.901649 252.576806 
L 235.321099 252.26196 
L 235.74055 251.706757 
L 236.16 251.782312 
L 236.57945 252.068251 
L 237.418351 250.900101 
L 238.257252 250.367087 
L 238.676702 249.935979 
L 239.096152 248.70496 
L 239.515603 248.419394 
L 239.935053 248.349606 
L 240.773953 247.260314 
L 241.193404 245.965497 
L 241.612854 245.158538 
L 242.032304 245.667104 
L 242.871205 244.076619 
L 243.290655 242.613476 
L 243.710106 242.187902 
L 244.129556 241.979767 
L 244.968457 239.633413 
L 245.387907 237.806101 
L 245.807357 238.606325 
L 246.226808 238.455485 
L 246.646258 237.536021 
L 247.065708 236.915447 
L 247.485159 236.756564 
L 247.904609 236.868913 
L 248.324059 238.136995 
L 248.74351 237.4868 
L 249.16296 237.777777 
L 249.58241 237.087491 
L 250.00186 237.162527 
L 250.421311 236.386135 
L 251.260211 234.214631 
L 251.679662 234.432745 
L 252.518562 231.361441 
L 252.938013 232.089202 
L 253.357463 231.523605 
L 253.776913 230.185075 
L 254.196364 230.085694 
L 254.615814 229.187338 
L 255.035264 228.675842 
L 255.454715 225.108064 
L 255.874165 216.875821 
L 256.293615 222.802082 
L 256.713066 225.962 
L 257.132516 226.295803 
L 257.971416 225.947941 
L 258.390867 226.044501 
L 258.810317 226.000269 
L 259.229767 225.016709 
L 259.649218 224.771234 
L 260.068668 225.077616 
L 260.907569 223.92692 
L 261.746469 221.860856 
L 262.16592 219.597917 
L 262.58537 220.359185 
L 263.00482 220.246447 
L 263.424271 216.142352 
L 263.843721 217.042455 
L 264.682622 214.304154 
L 265.102072 211.669434 
L 265.521522 211.57448 
L 265.940973 211.213661 
L 266.779873 206.624265 
L 267.199323 206.31978 
L 267.618774 205.642143 
L 268.038224 205.31121 
L 268.877125 202.692036 
L 269.296575 202.467517 
L 269.716025 202.389957 
L 270.135476 203.538281 
L 270.554926 203.670537 
L 270.974376 204.644762 
L 271.393827 205.324318 
L 272.232727 205.865894 
L 272.652178 203.54301 
L 273.071628 202.95716 
L 273.491078 203.463785 
L 273.910529 202.42961 
L 274.329979 200.526748 
L 274.749429 202.182978 
L 275.168879 202.839525 
L 275.58833 200.879972 
L 276.00778 200.638946 
L 276.42723 199.5354 
L 276.846681 193.953417 
L 277.266131 196.188578 
L 277.685581 186.957154 
L 278.524482 197.918504 
L 278.943932 196.496187 
L 279.363383 197.99054 
L 279.782833 197.435824 
L 280.202283 197.343675 
L 280.621734 195.896429 
L 281.041184 198.339494 
L 281.460634 199.01605 
L 281.880085 198.382622 
L 282.299535 196.995137 
L 282.718985 196.522122 
L 283.138436 195.439072 
L 283.557886 195.363642 
L 283.977336 197.28073 
L 284.396786 196.184973 
L 284.816237 194.626768 
L 285.235687 192.436837 
L 285.655137 192.228621 
L 286.074588 191.323016 
L 286.494038 191.43364 
L 286.913488 189.102383 
L 287.332939 189.048606 
L 287.752389 187.444142 
L 288.171839 187.188722 
L 288.59129 186.699107 
L 289.01074 185.166111 
L 289.849641 185.178781 
L 290.688541 184.558494 
L 291.107992 185.480515 
L 291.527442 183.917434 
L 291.946892 183.085292 
L 292.366342 186.064917 
L 292.785793 186.213016 
L 293.205243 186.072035 
L 293.624693 186.162017 
L 294.044144 186.086905 
L 294.463594 184.594985 
L 294.883044 184.95076 
L 295.302495 185.553286 
L 295.721945 184.888286 
L 296.141395 181.835836 
L 296.560846 182.67241 
L 296.980296 182.255236 
L 297.399746 179.010342 
L 297.819197 180.597941 
L 299.077548 176.364358 
L 299.496998 163.12821 
L 299.916448 168.205238 
L 300.335899 175.841138 
L 300.755349 177.242585 
L 301.594249 175.888753 
L 302.0137 174.56104 
L 302.43315 175.55367 
L 302.8526 175.272006 
L 303.272051 176.316646 
L 303.691501 173.95833 
L 304.110951 176.041344 
L 304.949852 173.878364 
L 305.369302 173.847987 
L 305.788753 174.494204 
L 306.208203 171.790907 
L 306.627653 171.33381 
L 307.047104 169.070476 
L 307.466554 171.149047 
L 307.886004 172.47102 
L 308.305455 169.93225 
L 309.144355 162.852179 
L 309.563805 164.399525 
L 309.983256 163.124853 
L 310.402706 162.428708 
L 310.822156 160.775316 
L 311.241607 161.462796 
L 311.661057 161.654986 
L 312.080507 161.482234 
L 312.499958 160.932496 
L 312.919408 160.055733 
L 313.338858 157.608652 
L 313.758309 160.700507 
L 314.177759 161.575826 
L 314.597209 161.740498 
L 315.01666 163.131756 
L 315.43611 163.903845 
L 316.275011 163.617187 
L 316.694461 164.153606 
L 317.113911 163.844128 
L 317.533362 164.545813 
L 318.372262 161.714639 
L 318.791712 163.496595 
L 319.211163 162.891221 
L 319.630613 161.384474 
L 320.050063 161.550924 
L 320.469514 160.825255 
L 320.888964 158.565824 
L 321.308414 146.074625 
L 321.727865 145.742076 
L 322.147315 157.968676 
L 322.566765 159.683034 
L 322.986216 160.03402 
L 323.405666 158.854054 
L 323.825116 157.26039 
L 324.664017 155.474628 
L 325.083467 155.424057 
L 325.502918 156.016529 
L 325.922368 155.592101 
L 326.341818 146.058166 
L 326.761268 141.897126 
L 327.180719 140.276771 
L 327.600169 141.484882 
L 328.85852 137.251477 
L 329.27797 137.548621 
L 329.697421 139.790713 
L 330.116871 137.73613 
L 330.536321 136.951998 
L 330.955772 138.786489 
L 331.375222 139.795064 
L 332.214123 136.62359 
L 332.633573 133.604188 
L 333.053023 133.375793 
L 333.472474 131.737055 
L 333.891924 133.152518 
L 334.311374 132.957922 
L 334.730825 134.076473 
L 335.150275 133.004673 
L 335.569725 133.013607 
L 335.989175 133.958001 
L 336.408626 135.628014 
L 336.828076 134.830012 
L 337.247526 136.746192 
L 338.086427 136.881432 
L 338.505877 137.620998 
L 338.925328 136.27342 
L 339.344778 136.463626 
L 339.764228 135.397976 
L 340.183679 133.469207 
L 340.603129 135.668791 
L 341.022579 136.111446 
L 341.44203 135.896278 
L 341.86148 138.368185 
L 342.28093 136.297576 
L 343.119831 127.926466 
L 343.539281 121.267904 
L 344.378182 131.229786 
L 344.797632 130.492496 
L 345.217082 131.412187 
L 345.636533 130.272825 
L 346.475433 129.297255 
L 346.894884 129.442024 
L 347.314334 131.100508 
L 347.733784 130.690156 
L 348.153235 130.48288 
L 348.572685 128.534025 
L 348.992135 131.727174 
L 349.831036 128.720388 
L 350.250486 130.987392 
L 350.669937 129.670521 
L 351.089387 126.243815 
L 351.508837 126.580483 
L 351.928288 124.542511 
L 352.347738 123.348335 
L 352.767188 125.223251 
L 353.186638 125.602323 
L 354.025539 118.104635 
L 354.444989 117.97699 
L 354.86444 117.606069 
L 355.28389 116.846682 
L 355.70334 114.089765 
L 356.122791 115.544243 
L 356.542241 114.168223 
L 356.961691 114.273626 
L 357.381142 115.520401 
L 357.800592 118.57058 
L 358.220042 119.277839 
L 358.639493 119.328622 
L 359.058943 120.85873 
L 359.478393 118.636222 
L 360.317294 119.824112 
L 360.736744 120.101159 
L 361.156195 119.874089 
L 361.575645 119.425792 
L 361.995095 121.83609 
L 362.414545 120.727096 
L 362.833996 121.257412 
L 363.253446 119.681537 
L 363.672896 120.773646 
L 364.511797 118.085792 
L 364.931247 112.728355 
L 365.350698 100.183509 
L 365.770148 107.416874 
L 366.189598 112.723577 
L 366.609049 113.067914 
L 367.028499 114.825877 
L 367.447949 113.162155 
L 367.8674 115.966141 
L 368.28685 114.975506 
L 368.7063 111.492196 
L 369.125751 113.399674 
L 369.545201 113.393139 
L 369.964651 115.73112 
L 370.384101 111.764962 
L 370.803552 105.052423 
L 371.223002 105.211273 
L 371.642452 115.782638 
L 372.061903 103.915099 
L 372.900803 100.398071 
L 373.320254 104.145975 
L 373.739704 103.965103 
L 374.159154 102.600504 
L 374.578605 99.461943 
L 374.998055 100.113451 
L 375.836956 92.386018 
L 376.256406 93.166426 
L 376.675856 92.939366 
L 377.095307 90.453005 
L 377.514757 90.360445 
L 377.934207 91.284255 
L 378.353658 90.010832 
L 378.773108 90.863941 
L 379.192558 90.967414 
L 379.612008 94.35584 
L 380.031459 95.20076 
L 380.870359 98.251075 
L 381.28981 96.155931 
L 381.70926 97.310449 
L 382.12871 97.444138 
L 382.548161 94.548635 
L 382.967611 97.800437 
L 383.387061 98.703577 
L 383.806512 95.558751 
L 384.225962 94.708091 
L 384.645412 97.034715 
L 385.064863 93.457532 
L 385.484313 96.940539 
L 385.903763 97.247905 
L 386.323214 92.810596 
L 387.162114 78.382466 
L 387.581564 85.766498 
L 388.001015 90.797586 
L 388.420465 90.721772 
L 388.839915 91.31599 
L 389.259366 90.155888 
L 389.678816 90.291593 
L 390.098266 91.025894 
L 390.937167 88.669762 
L 391.356617 91.754774 
L 392.195518 84.362867 
L 392.614968 88.141602 
L 393.034419 83.779914 
L 393.453869 86.504182 
L 393.873319 87.173269 
L 394.29277 85.858885 
L 394.71222 82.624482 
L 395.13167 87.523455 
L 395.551121 87.36127 
L 395.970571 83.871192 
L 396.390021 84.4628 
L 396.809471 83.873149 
L 397.228922 79.144653 
L 398.067822 74.485464 
L 398.487273 71.254489 
L 398.487273 71.254489 
" clip-path="url(#p4e6c0e6486)" style="fill: none; stroke: #ff7f0e; stroke-width: 1.5; stroke-linecap: square"/>
   </g>
   <g id="line2d_17">
    <path d="M 73.832727 295.229693 
L 80.124482 295.199548 
L 80.543932 295.267584 
L 81.382833 295.155646 
L 81.802283 295.241417 
L 82.221734 295.141219 
L 82.641184 295.240833 
L 83.899535 295.13936 
L 95.644144 295.203564 
L 96.063594 295.161619 
L 96.483044 295.258146 
L 97.741395 294.954451 
L 98.160846 295.148538 
L 113.680507 295.354165 
L 114.938858 295.35836 
L 119.133362 295.246011 
L 120.391712 295.247865 
L 120.811163 295.314069 
L 121.650063 295.279832 
L 122.488964 295.280529 
L 123.327865 295.290486 
L 123.747315 295.386651 
L 127.102918 295.291443 
L 136.750275 295.351922 
L 137.169725 295.412867 
L 138.428076 295.270994 
L 138.847526 295.366144 
L 139.686427 295.225698 
L 140.105877 295.201964 
L 140.525328 295.333966 
L 140.944778 295.335301 
L 141.364228 295.214672 
L 142.622579 295.376808 
L 143.04203 295.23139 
L 144.300381 295.210861 
L 144.719831 295.066372 
L 145.978182 295.327717 
L 146.817082 295.06527 
L 147.236533 295.152414 
L 147.655983 295.03406 
L 149.753235 295.244336 
L 150.592135 295.161948 
L 151.011586 294.835432 
L 151.431036 295.047346 
L 151.850486 294.948413 
L 153.108837 295.138106 
L 153.528288 294.993077 
L 153.947738 295.041016 
L 154.786638 294.810427 
L 155.206089 294.864577 
L 156.044989 294.780687 
L 156.46444 294.925846 
L 157.30334 294.767163 
L 157.722791 295.015509 
L 161.917294 294.751677 
L 162.336744 294.533607 
L 162.756195 294.478241 
L 163.595095 294.661853 
L 164.433996 294.617183 
L 164.853446 294.882896 
L 166.531247 294.557217 
L 167.789598 294.593779 
L 168.209049 294.870269 
L 169.4674 294.406778 
L 170.3063 294.489776 
L 170.725751 294.42902 
L 171.145201 294.656134 
L 171.564651 294.434561 
L 172.403552 294.715413 
L 173.661903 294.327515 
L 174.920254 294.428215 
L 175.339704 294.212231 
L 175.759154 294.351579 
L 176.598055 294.044127 
L 177.017505 294.197199 
L 177.436956 294.088629 
L 177.856406 294.160665 
L 178.695307 294.111498 
L 179.534207 294.10392 
L 179.953658 293.993955 
L 180.373108 294.114606 
L 181.631459 293.940951 
L 182.050909 294.143157 
L 182.88981 293.987518 
L 183.30926 293.701065 
L 183.72871 293.570403 
L 184.148161 293.25326 
L 184.987061 293.208358 
L 185.406512 292.94597 
L 185.825962 293.466655 
L 186.245412 293.429677 
L 186.664863 293.13096 
L 187.084313 293.076686 
L 187.503763 292.670474 
L 187.923214 292.885198 
L 188.342664 292.320612 
L 189.181564 292.813979 
L 189.601015 292.709608 
L 190.020465 293.788285 
L 190.439915 293.711643 
L 190.859366 292.512689 
L 191.278816 292.381016 
L 191.698266 292.427885 
L 192.117717 292.653793 
L 192.537167 291.722832 
L 192.956617 292.50371 
L 193.376068 292.508462 
L 193.795518 292.065391 
L 194.214968 292.644042 
L 194.634419 291.850748 
L 195.053869 291.969507 
L 195.473319 292.41161 
L 195.89277 292.441993 
L 196.31222 292.360492 
L 196.73167 292.655355 
L 197.151121 292.162848 
L 197.570571 292.454663 
L 197.990021 291.835759 
L 198.409471 292.313093 
L 198.828922 292.03169 
L 199.248372 292.431026 
L 199.667822 292.232744 
L 200.087273 292.576822 
L 200.926173 291.564831 
L 201.345624 292.384211 
L 201.765074 292.251208 
L 202.184524 291.816738 
L 202.603975 292.085148 
L 203.023425 292.512191 
L 203.442875 292.071943 
L 204.281776 291.693833 
L 204.701226 291.1521 
L 205.120677 291.414148 
L 205.540127 291.246265 
L 205.959577 290.780709 
L 206.379027 290.908565 
L 206.798478 288.037981 
L 207.217928 291.779263 
L 207.637378 292.085164 
L 208.056829 291.064843 
L 208.476279 291.060983 
L 209.31518 290.442344 
L 209.73463 290.487041 
L 210.15408 290.198004 
L 210.573531 290.328531 
L 211.412431 289.72154 
L 211.831882 291.676412 
L 212.251332 292.418696 
L 212.670782 289.251925 
L 213.090233 289.602624 
L 213.929133 289.190094 
L 214.348584 289.373706 
L 214.768034 289.323891 
L 215.187484 289.943108 
L 215.606934 287.569128 
L 216.026385 289.276378 
L 216.445835 289.268405 
L 216.865285 288.574633 
L 217.284736 288.934927 
L 217.704186 289.487222 
L 218.123636 289.139095 
L 218.543087 289.221807 
L 218.962537 287.967113 
L 219.381987 288.546785 
L 219.801438 288.134098 
L 220.220888 287.494276 
L 220.640338 288.972791 
L 221.059789 287.84931 
L 221.479239 288.928116 
L 221.898689 287.831635 
L 222.31814 288.301661 
L 222.73759 287.684071 
L 223.15704 289.185791 
L 223.57649 288.860577 
L 223.995941 287.856261 
L 224.834841 288.765158 
L 225.254292 288.448301 
L 225.673742 287.255665 
L 226.093192 288.016609 
L 226.512643 286.261576 
L 226.932093 286.811606 
L 227.351543 285.921579 
L 228.190444 285.109517 
L 229.029345 285.263384 
L 229.448795 285.324264 
L 229.868245 284.190253 
L 230.287696 285.398835 
L 230.707146 285.082594 
L 231.126596 283.932703 
L 231.546047 284.196815 
L 231.965497 283.938 
L 232.384947 284.052316 
L 233.223848 285.373079 
L 233.643298 287.298588 
L 234.062748 288.458128 
L 234.482199 283.949 
L 234.901649 283.521291 
L 235.321099 283.573809 
L 235.74055 284.058062 
L 236.16 283.974848 
L 236.57945 283.735162 
L 237.418351 284.62241 
L 237.837801 283.519475 
L 238.257252 283.783512 
L 238.676702 283.052935 
L 239.096152 284.280689 
L 239.515603 284.389784 
L 239.935053 283.285389 
L 240.773953 282.226344 
L 241.193404 281.564236 
L 241.612854 283.707579 
L 242.032304 282.63888 
L 242.451755 282.301905 
L 242.871205 283.329296 
L 243.290655 282.320596 
L 243.710106 283.10882 
L 244.129556 283.013866 
L 244.549006 282.539758 
L 244.968457 283.619132 
L 245.387907 284.160822 
L 245.807357 283.670152 
L 246.226808 282.80413 
L 246.646258 283.183408 
L 247.065708 284.090964 
L 247.485159 283.553566 
L 248.324059 281.434137 
L 248.74351 281.56916 
L 249.16296 279.568782 
L 250.00186 279.536053 
L 250.421311 278.313461 
L 250.840761 279.70573 
L 251.260211 279.500216 
L 251.679662 278.241447 
L 252.099112 277.574766 
L 252.518562 279.171738 
L 252.938013 277.765312 
L 253.776913 277.515264 
L 254.615814 278.085786 
L 255.035264 276.230463 
L 255.454715 278.967834 
L 255.874165 283.276 
L 256.713066 276.278554 
L 257.132516 276.553185 
L 257.551966 275.981604 
L 257.971416 276.758283 
L 258.390867 277.250379 
L 258.810317 277.063286 
L 259.229767 277.029676 
L 259.649218 277.581057 
L 260.068668 276.67389 
L 260.488118 276.573471 
L 260.907569 276.056408 
L 261.327019 277.072199 
L 261.746469 277.226585 
L 262.16592 276.880101 
L 262.58537 276.937662 
L 263.00482 273.551177 
L 263.424271 277.926141 
L 263.843721 275.123993 
L 264.263171 275.174224 
L 264.682622 275.984069 
L 265.102072 278.131909 
L 265.521522 277.263422 
L 265.940973 275.859672 
L 266.360423 275.335739 
L 266.779873 278.274451 
L 267.199323 277.728605 
L 267.618774 277.73794 
L 268.038224 276.82126 
L 268.457674 277.769982 
L 268.877125 278.348298 
L 269.296575 278.593444 
L 269.716025 278.971229 
L 270.135476 276.791985 
L 270.554926 275.214888 
L 270.974376 275.535042 
L 271.393827 274.880469 
L 271.813277 275.814798 
L 272.232727 274.230058 
L 272.652178 274.590898 
L 273.071628 275.428158 
L 273.491078 274.074483 
L 273.910529 274.614589 
L 274.329979 276.024765 
L 274.749429 274.008225 
L 275.168879 272.919587 
L 275.58833 274.321769 
L 276.00778 274.455614 
L 276.42723 289.906017 
L 276.846681 279.319804 
L 277.266131 276.308613 
L 277.685581 281.61931 
L 278.105032 280.252717 
L 278.524482 273.996869 
L 278.943932 275.186283 
L 279.363383 273.689357 
L 279.782833 273.757291 
L 280.202283 273.609549 
L 280.621734 276.389427 
L 281.041184 274.791201 
L 281.460634 273.909266 
L 281.880085 273.398121 
L 282.299535 274.867794 
L 282.718985 275.032876 
L 283.138436 275.774258 
L 283.557886 275.536831 
L 283.977336 271.0484 
L 284.396786 273.159073 
L 284.816237 271.994015 
L 285.235687 275.332242 
L 285.655137 273.254644 
L 286.074588 272.733002 
L 286.913488 274.044889 
L 287.332939 272.9365 
L 288.171839 275.499378 
L 288.59129 276.490176 
L 289.01074 277.167538 
L 289.849641 275.44365 
L 290.688541 277.50494 
L 291.107992 276.747878 
L 291.527442 276.364103 
L 291.946892 276.471095 
L 292.366342 272.08018 
L 292.785793 271.58436 
L 293.205243 271.527691 
L 293.624693 271.585398 
L 294.044144 271.474352 
L 294.463594 272.00515 
L 294.883044 270.671863 
L 295.302495 271.200369 
L 295.721945 268.282505 
L 296.141395 271.42711 
L 296.560846 270.153627 
L 296.980296 267.957648 
L 297.399746 270.418486 
L 297.819197 268.359622 
L 298.238647 269.716319 
L 298.658097 269.759626 
L 299.077548 271.083356 
L 299.496998 283.03146 
L 300.335899 270.845113 
L 300.755349 270.395978 
L 301.174799 270.126909 
L 301.594249 269.481941 
L 302.0137 271.921963 
L 302.43315 270.725954 
L 302.8526 271.491789 
L 303.272051 268.735337 
L 303.691501 270.496381 
L 304.530402 269.066437 
L 304.949852 270.161411 
L 305.369302 269.661861 
L 305.788753 268.966429 
L 306.208203 271.513508 
L 306.627653 268.300921 
L 307.047104 270.45736 
L 307.466554 268.668409 
L 307.886004 268.234047 
L 308.305455 268.334953 
L 309.144355 271.681298 
L 309.563805 269.65445 
L 309.983256 271.093821 
L 310.402706 271.445174 
L 310.822156 271.221985 
L 311.241607 272.082034 
L 311.661057 270.242171 
L 312.080507 271.943919 
L 312.499958 271.397581 
L 312.919408 271.610867 
L 313.338858 274.00262 
L 314.177759 268.681387 
L 314.597209 268.679058 
L 315.01666 268.834184 
L 315.43611 267.538118 
L 315.85556 268.301386 
L 316.275011 268.718338 
L 316.694461 266.200134 
L 317.113911 267.696514 
L 317.533362 267.313767 
L 318.372262 268.958375 
L 318.791712 265.401202 
L 319.630613 267.501627 
L 320.050063 267.463309 
L 320.469514 267.156657 
L 320.888964 268.96451 
L 321.308414 280.149054 
L 321.727865 279.910471 
L 322.147315 268.4913 
L 322.566765 267.017012 
L 322.986216 266.720035 
L 323.405666 267.054124 
L 323.825116 267.635494 
L 324.244567 269.094988 
L 324.664017 268.511727 
L 325.083467 269.148744 
L 325.502918 268.30284 
L 325.922368 267.790052 
L 326.341818 277.553026 
L 326.761268 282.357887 
L 327.180719 283.684736 
L 328.019619 281.368938 
L 328.85852 282.557558 
L 329.27797 282.546596 
L 329.697421 279.698552 
L 330.116871 279.736378 
L 330.536321 281.1729 
L 330.955772 276.444377 
L 331.375222 277.751875 
L 331.794672 277.327339 
L 332.214123 276.385076 
L 332.633573 280.171184 
L 333.053023 278.763056 
L 333.472474 279.297502 
L 333.891924 277.98768 
L 334.311374 277.353798 
L 334.730825 278.312169 
L 335.150275 277.653704 
L 335.569725 278.293554 
L 335.989175 277.72981 
L 336.408626 275.232709 
L 336.828076 275.324415 
L 337.247526 272.286916 
L 337.666977 274.390573 
L 338.086427 274.406205 
L 338.505877 272.689566 
L 338.925328 274.5908 
L 339.344778 275.742945 
L 339.764228 275.764604 
L 340.183679 275.264265 
L 340.603129 277.097285 
L 341.44203 274.211199 
L 341.86148 273.05827 
L 342.28093 275.22418 
L 342.700381 276.778996 
L 343.119831 280.368692 
L 343.539281 285.0608 
L 344.378182 275.331355 
L 344.797632 276.292727 
L 346.055983 275.470492 
L 346.475433 277.05247 
L 346.894884 276.617248 
L 347.314334 272.437064 
L 347.733784 272.292721 
L 348.153235 270.78379 
L 348.572685 275.550891 
L 348.992135 273.292416 
L 349.411586 274.067505 
L 349.831036 275.204634 
L 350.250486 273.081734 
L 350.669937 269.427937 
L 351.089387 276.177562 
L 351.508837 273.926103 
L 351.928288 276.426799 
L 352.347738 278.126882 
L 352.767188 271.544215 
L 353.186638 270.563482 
L 353.606089 272.362736 
L 354.025539 276.092056 
L 354.444989 277.932643 
L 354.86444 275.941362 
L 355.28389 276.236414 
L 355.70334 277.773447 
L 356.122791 275.877807 
L 356.542241 275.867823 
L 356.961691 275.969642 
L 357.381142 278.083202 
L 357.800592 273.220936 
L 358.220042 271.366306 
L 358.639493 273.49767 
L 359.058943 270.760834 
L 359.478393 272.558558 
L 359.897844 270.243409 
L 360.736744 272.124255 
L 361.156195 272.046797 
L 361.575645 272.929835 
L 361.995095 270.381795 
L 362.414545 269.928611 
L 362.833996 271.204531 
L 363.253446 270.61033 
L 363.672896 268.750791 
L 364.092347 270.106899 
L 364.511797 270.08911 
L 364.931247 274.014036 
L 365.350698 283.544258 
L 365.770148 278.366854 
L 366.189598 276.900193 
L 366.609049 272.230388 
L 367.028499 270.26923 
L 367.447949 274.835578 
L 367.8674 270.093807 
L 368.28685 269.1589 
L 368.7063 272.590568 
L 369.125751 271.498665 
L 369.545201 271.47192 
L 369.964651 269.758491 
L 370.384101 266.382357 
L 370.803552 272.311077 
L 371.223002 272.371103 
L 371.642452 260.299164 
L 372.061903 271.674525 
L 372.481353 270.628486 
L 372.900803 275.897882 
L 373.739704 270.786958 
L 374.159154 274.020922 
L 374.578605 273.980507 
L 374.998055 271.710384 
L 375.417505 271.835203 
L 375.836956 276.567693 
L 376.256406 269.969237 
L 376.675856 272.553163 
L 377.095307 276.760948 
L 377.514757 278.715868 
L 377.934207 276.095829 
L 378.353658 277.700136 
L 379.192558 277.310286 
L 379.612008 275.989874 
L 380.031459 274.180945 
L 380.450909 271.257027 
L 380.870359 269.96794 
L 381.28981 270.514289 
L 381.70926 269.753275 
L 382.12871 267.725405 
L 382.548161 271.958054 
L 382.967611 272.314158 
L 383.387061 268.983094 
L 383.806512 268.447074 
L 384.225962 272.348185 
L 384.645412 268.249528 
L 385.064863 273.667207 
L 385.484313 268.52224 
L 385.903763 268.191243 
L 386.323214 270.29824 
L 386.742664 274.668371 
L 387.162114 280.658312 
L 388.001015 270.890728 
L 388.420465 269.531583 
L 388.839915 269.360295 
L 389.259366 272.965786 
L 390.098266 269.983085 
L 390.517717 272.813308 
L 390.937167 273.016493 
L 391.356617 268.243474 
L 391.776068 272.374552 
L 392.195518 274.435269 
L 392.614968 269.088567 
L 393.034419 274.672258 
L 393.873319 268.599027 
L 394.71222 274.355633 
L 395.13167 269.389316 
L 395.551121 268.074067 
L 395.970571 273.251287 
L 396.390021 272.709333 
L 396.809471 270.32958 
L 397.228922 275.021709 
L 397.648372 276.014101 
L 398.067822 274.570536 
L 398.487273 295.488 
L 398.487273 295.488 
" clip-path="url(#p4e6c0e6486)" style="fill: none; stroke: #2ca02c; stroke-width: 1.5; stroke-linecap: square"/>
   </g>
   <g id="patch_3">
    <path d="M 57.6 307.584 
L 57.6 41.472 
" style="fill: none; stroke: #000000; stroke-width: 0.8; stroke-linejoin: miter; stroke-linecap: square"/>
   </g>
   <g id="patch_4">
    <path d="M 414.72 307.584 
L 414.72 41.472 
" style="fill: none; stroke: #000000; stroke-width: 0.8; stroke-linejoin: miter; stroke-linecap: square"/>
   </g>
   <g id="patch_5">
    <path d="M 57.6 307.584 
L 414.72 307.584 
" style="fill: none; stroke: #000000; stroke-width: 0.8; stroke-linejoin: miter; stroke-linecap: square"/>
   </g>
   <g id="patch_6">
    <path d="M 57.6 41.472 
L 414.72 41.472 
" style="fill: none; stroke: #000000; stroke-width: 0.8; stroke-linejoin: miter; stroke-linecap: square"/>
   </g>
   <g id="legend_1">
    <g id="patch_7">
     <path d="M 64.6 93.506375 
L 186.25625 93.506375 
Q 188.25625 93.506375 188.25625 91.506375 
L 188.25625 48.472 
Q 188.25625 46.472 186.25625 46.472 
L 64.6 46.472 
Q 62.6 46.472 62.6 48.472 
L 62.6 91.506375 
Q 62.6 93.506375 64.6 93.506375 
z
" style="fill: #ffffff; opacity: 0.8; stroke: #cccccc; stroke-linejoin: miter"/>
    </g>
    <g id="line2d_18">
     <path d="M 66.6 54.570438 
L 76.6 54.570438 
L 86.6 54.570438 
" style="fill: none; stroke: #1f77b4; stroke-width: 1.5; stroke-linecap: square"/>
    </g>
    <g id="text_17">
     <!-- Weekly maximum -->
     <g transform="translate(94.6 58.070438) scale(0.1 -0.1)">
      <defs>
       <path id="DejaVuSans-57" d="M 213 4666 
L 850 4666 
L 1831 722 
L 2809 4666 
L 3519 4666 
L 4500 722 
L 5478 4666 
L 6119 4666 
L 4947 0 
L 4153 0 
L 3169 4050 
L 2175 0 
L 1381 0 
L 213 4666 
z
" transform="scale(0.015625)"/>
       <path id="DejaVuSans-6b" d="M 581 4863 
L 1159 4863 
L 1159 1991 
L 2875 3500 
L 3609 3500 
L 1753 1863 
L 3688 0 
L 2938 0 
L 1159 1709 
L 1159 0 
L 581 0 
L 581 4863 
z
" transform="scale(0.015625)"/>
       <path id="DejaVuSans-79" d="M 2059 -325 
Q 1816 -950 1584 -1140 
Q 1353 -1331 966 -1331 
L 506 -1331 
L 506 -850 
L 844 -850 
Q 1081 -850 1212 -737 
Q 1344 -625 1503 -206 
L 1606 56 
L 191 3500 
L 800 3500 
L 1894 763 
L 2988 3500 
L 3597 3500 
L 2059 -325 
z
" transform="scale(0.015625)"/>
       <path id="DejaVuSans-6d" d="M 3328 2828 
Q 3544 3216 3844 3400 
Q 4144 3584 4550 3584 
Q 5097 3584 5394 3201 
Q 5691 2819 5691 2113 
L 5691 0 
L 5113 0 
L 5113 2094 
Q 5113 2597 4934 2840 
Q 4756 3084 4391 3084 
Q 3944 3084 3684 2787 
Q 3425 2491 3425 1978 
L 3425 0 
L 2847 0 
L 2847 2094 
Q 2847 2600 2669 2842 
Q 2491 3084 2119 3084 
Q 1678 3084 1418 2786 
Q 1159 2488 1159 1978 
L 1159 0 
L 581 0 
L 581 3500 
L 1159 3500 
L 1159 2956 
Q 1356 3278 1631 3431 
Q 1906 3584 2284 3584 
Q 2666 3584 2933 3390 
Q 3200 3197 3328 2828 
z
" transform="scale(0.015625)"/>
       <path id="DejaVuSans-78" d="M 3513 3500 
L 2247 1797 
L 3578 0 
L 2900 0 
L 1881 1375 
L 863 0 
L 184 0 
L 1544 1831 
L 300 3500 
L 978 3500 
L 1906 2253 
L 2834 3500 
L 3513 3500 
z
" transform="scale(0.015625)"/>
       <path id="DejaVuSans-75" d="M 544 1381 
L 544 3500 
L 1119 3500 
L 1119 1403 
Q 1119 906 1312 657 
Q 1506 409 1894 409 
Q 2359 409 2629 706 
Q 2900 1003 2900 1516 
L 2900 3500 
L 3475 3500 
L 3475 0 
L 2900 0 
L 2900 538 
Q 2691 219 2414 64 
Q 2138 -91 1772 -91 
Q 1169 -91 856 284 
Q 544 659 544 1381 
z
M 1991 3584 
L 1991 3584 
z
" transform="scale(0.015625)"/>
      </defs>
      <use xlink:href="#DejaVuSans-57"/>
      <use xlink:href="#DejaVuSans-65" x="93.001953"/>
      <use xlink:href="#DejaVuSans-65" x="154.525391"/>
      <use xlink:href="#DejaVuSans-6b" x="216.048828"/>
      <use xlink:href="#DejaVuSans-6c" x="273.958984"/>
      <use xlink:href="#DejaVuSans-79" x="301.742188"/>
      <use xlink:href="#DejaVuSans-20" x="360.921875"/>
      <use xlink:href="#DejaVuSans-6d" x="392.708984"/>
      <use xlink:href="#DejaVuSans-61" x="490.121094"/>
      <use xlink:href="#DejaVuSans-78" x="551.400391"/>
      <use xlink:href="#DejaVuSans-69" x="610.580078"/>
      <use xlink:href="#DejaVuSans-6d" x="638.363281"/>
      <use xlink:href="#DejaVuSans-75" x="735.775391"/>
      <use xlink:href="#DejaVuSans-6d" x="799.154297"/>
     </g>
    </g>
    <g id="line2d_19">
     <path d="M 66.6 69.248563 
L 76.6 69.248563 
L 86.6 69.248563 
" style="fill: none; stroke: #ff7f0e; stroke-width: 1.5; stroke-linecap: square"/>
    </g>
    <g id="text_18">
     <!-- Weekly minimum -->
     <g transform="translate(94.6 72.748563) scale(0.1 -0.1)">
      <defs>
       <path id="DejaVuSans-6e" d="M 3513 2113 
L 3513 0 
L 2938 0 
L 2938 2094 
Q 2938 2591 2744 2837 
Q 2550 3084 2163 3084 
Q 1697 3084 1428 2787 
Q 1159 2491 1159 1978 
L 1159 0 
L 581 0 
L 581 3500 
L 1159 3500 
L 1159 2956 
Q 1366 3272 1645 3428 
Q 1925 3584 2291 3584 
Q 2894 3584 3203 3211 
Q 3513 2838 3513 2113 
z
" transform="scale(0.015625)"/>
      </defs>
      <use xlink:href="#DejaVuSans-57"/>
      <use xlink:href="#DejaVuSans-65" x="93.001953"/>
      <use xlink:href="#DejaVuSans-65" x="154.525391"/>
      <use xlink:href="#DejaVuSans-6b" x="216.048828"/>
      <use xlink:href="#DejaVuSans-6c" x="273.958984"/>
      <use xlink:href="#DejaVuSans-79" x="301.742188"/>
      <use xlink:href="#DejaVuSans-20" x="360.921875"/>
      <use xlink:href="#DejaVuSans-6d" x="392.708984"/>
      <use xlink:href="#DejaVuSans-69" x="490.121094"/>
      <use xlink:href="#DejaVuSans-6e" x="517.904297"/>
      <use xlink:href="#DejaVuSans-69" x="581.283203"/>
      <use xlink:href="#DejaVuSans-6d" x="609.066406"/>
      <use xlink:href="#DejaVuSans-75" x="706.478516"/>
      <use xlink:href="#DejaVuSans-6d" x="769.857422"/>
     </g>
    </g>
    <g id="line2d_20">
     <path d="M 66.6 83.926688 
L 76.6 83.926688 
L 86.6 83.926688 
" style="fill: none; stroke: #2ca02c; stroke-width: 1.5; stroke-linecap: square"/>
    </g>
    <g id="text_19">
     <!-- Weekly range -->
     <g transform="translate(94.6 87.426688) scale(0.1 -0.1)">
      <use xlink:href="#DejaVuSans-57"/>
      <use xlink:href="#DejaVuSans-65" x="93.001953"/>
      <use xlink:href="#DejaVuSans-65" x="154.525391"/>
      <use xlink:href="#DejaVuSans-6b" x="216.048828"/>
      <use xlink:href="#DejaVuSans-6c" x="273.958984"/>
      <use xlink:href="#DejaVuSans-79" x="301.742188"/>
      <use xlink:href="#DejaVuSans-20" x="360.921875"/>
      <use xlink:href="#DejaVuSans-72" x="392.708984"/>
      <use xlink:href="#DejaVuSans-61" x="433.822266"/>
      <use xlink:href="#DejaVuSans-6e" x="495.101562"/>
      <use xlink:href="#DejaVuSans-67" x="558.480469"/>
      <use xlink:href="#DejaVuSans-65" x="621.957031"/>
     </g>
    </g>
   </g>
  </g>
 </g>
 <defs>
  <clipPath id="p4e6c0e6486">
   <rect x="57.6" y="41.472" width="357.12" height="266.112"/>
  </clipPath>
 </defs>
</svg>
