<?xml version="1.0" encoding="utf-8" standalone="no"?>
<!DOCTYPE svg PUBLIC "-//W3C//DTD SVG 1.1//EN"
  "http://www.w3.org/Graphics/SVG/1.1/DTD/svg11.dtd">
<svg xmlns:xlink="http://www.w3.org/1999/xlink" width="460.8pt" height="345.6pt" viewBox="0 0 460.8 345.6" xmlns="http://www.w3.org/2000/svg" version="1.1">
 <metadata>
  <rdf:RDF xmlns:dc="http://purl.org/dc/elements/1.1/" xmlns:cc="http://creativecommons.org/ns#" xmlns:rdf="http://www.w3.org/1999/02/22-rdf-syntax-ns#">
   <cc:Work>
    <dc:type rdf:resource="http://purl.org/dc/dcmitype/StillImage"/>
    <dc:date>2026-03-17T06:35:12.602469</dc:date>
    <dc:format>image/svg+xml</dc:format>
    <dc:creator>
     <cc:Agent>
      <dc:title>Matplotlib v3.10.8, https://matplotlib.org/</dc:title>
     </cc:Agent>
    </dc:creator>
   </cc:Work>
  </rdf:RDF>
 </metadata>
 <defs>
  <style type="text/css">*{stroke-linejoin: round; stroke-linecap: butt}</style>
 </defs>
 <g id="figure_1">
  <g id="patch_1">
   <path d="M 0 345.6 
L 460.8 345.6 
L 460.8 0 
L 0 0 
z
" style="fill: #ffffff"/>
  </g>
  <g id="axes_1">
   <g id="patch_2">
    <path d="M 57.6 307.584 
L 414.72 307.584 
L 414.72 41.472 
L 57.6 41.472 
z
" style="fill: #ffffff"/>
   </g>
   <g id="matplotlib.axis_1">
    <g id="xtick_1">
     <g id="line2d_1">
      <defs>
       <path id="m16e7cfaff7" d="M 0 0 
L 0 3.5 
" style="stroke: #000000; stroke-width: 0.8"/>
      </defs>
      <g>
       <use xlink:href="#m16e7cfaff7" x="61.451404" y="307.584" style="stroke: #000000; stroke-width: 0.8"/>
      </g>
     </g>
     <g id="text_1">
      <!-- 2008 -->
      <g transform="translate(48.726404 322.182437) scale(0.1 -0.1)">
       <defs>
        <path id="DejaVuSans-32" d="M 1228 531 
L 3431 531 
L 3431 0 
L 469 0 
L 469 531 
Q 828 903 1448 1529 
Q 2069 2156 2228 2338 
Q 2531 2678 2651 2914 
Q 2772 3150 2772 3378 
Q 2772 3750 2511 3984 
Q 2250 4219 1831 4219 
Q 1534 4219 1204 4116 
Q 875 4013 500 3803 
L 500 4441 
Q 881 4594 1212 4672 
Q 1544 4750 1819 4750 
Q 2544 4750 2975 4387 
Q 3406 4025 3406 3419 
Q 3406 3131 3298 2873 
Q 3191 2616 2906 2266 
Q 2828 2175 2409 1742 
Q 1991 1309 1228 531 
z
" transform="scale(0.015625)"/>
        <path id="DejaVuSans-30" d="M 2034 4250 
Q 1547 4250 1301 3770 
Q 1056 3291 1056 2328 
Q 1056 1369 1301 889 
Q 1547 409 2034 409 
Q 2525 409 2770 889 
Q 3016 1369 3016 2328 
Q 3016 3291 2770 3770 
Q 2525 4250 2034 4250 
z
M 2034 4750 
Q 2819 4750 3233 4129 
Q 3647 3509 3647 2328 
Q 3647 1150 3233 529 
Q 2819 -91 2034 -91 
Q 1250 -91 836 529 
Q 422 1150 422 2328 
Q 422 3509 836 4129 
Q 1250 4750 2034 4750 
z
" transform="scale(0.015625)"/>
        <path id="DejaVuSans-38" d="M 2034 2216 
Q 1584 2216 1326 1975 
Q 1069 1734 1069 1313 
Q 1069 891 1326 650 
Q 1584 409 2034 409 
Q 2484 409 2743 651 
Q 3003 894 3003 1313 
Q 3003 1734 2745 1975 
Q 2488 2216 2034 2216 
z
M 1403 2484 
Q 997 2584 770 2862 
Q 544 3141 544 3541 
Q 544 4100 942 4425 
Q 1341 4750 2034 4750 
Q 2731 4750 3128 4425 
Q 3525 4100 3525 3541 
Q 3525 3141 3298 2862 
Q 3072 2584 2669 2484 
Q 3125 2378 3379 2068 
Q 3634 1759 3634 1313 
Q 3634 634 3220 271 
Q 2806 -91 2034 -91 
Q 1263 -91 848 271 
Q 434 634 434 1313 
Q 434 1759 690 2068 
Q 947 2378 1403 2484 
z
M 1172 3481 
Q 1172 3119 1398 2916 
Q 1625 2713 2034 2713 
Q 2441 2713 2670 2916 
Q 2900 3119 2900 3481 
Q 2900 3844 2670 4047 
Q 2441 4250 2034 4250 
Q 1625 4250 1398 4047 
Q 1172 3844 1172 3481 
z
" transform="scale(0.015625)"/>
       </defs>
       <use xlink:href="#DejaVuSans-32"/>
       <use xlink:href="#DejaVuSans-30" transform="translate(63.623047 0)"/>
       <use xlink:href="#DejaVuSans-30" transform="translate(127.246094 0)"/>
       <use xlink:href="#DejaVuSans-38" transform="translate(190.869141 0)"/>
      </g>
     </g>
    </g>
    <g id="xtick_2">
     <g id="line2d_2">
      <g>
       <use xlink:href="#m16e7cfaff7" x="98.544632" y="307.584" style="stroke: #000000; stroke-width: 0.8"/>
      </g>
     </g>
     <g id="text_2">
      <!-- 2010 -->
      <g transform="translate(85.819632 322.182437) scale(0.1 -0.1)">
       <defs>
        <path id="DejaVuSans-31" d="M 794 531 
L 1825 531 
L 1825 4091 
L 703 3866 
L 703 4441 
L 1819 4666 
L 2450 4666 
L 2450 531 
L 3481 531 
L 3481 0 
L 794 0 
L 794 531 
z
" transform="scale(0.015625)"/>
       </defs>
       <use xlink:href="#DejaVuSans-32"/>
       <use xlink:href="#DejaVuSans-30" transform="translate(63.623047 0)"/>
       <use xlink:href="#DejaVuSans-31" transform="translate(127.246094 0)"/>
       <use xlink:href="#DejaVuSans-30" transform="translate(190.869141 0)"/>
      </g>
     </g>
    </g>
    <g id="xtick_3">
     <g id="line2d_3">
      <g>
       <use xlink:href="#m16e7cfaff7" x="135.587116" y="307.584" style="stroke: #000000; stroke-width: 0.8"/>
      </g>
     </g>
     <g id="text_3">
      <!-- 2012 -->
      <g transform="translate(122.862116 322.182437) scale(0.1 -0.1)">
       <use xlink:href="#DejaVuSans-32"/>
       <use xlink:href="#DejaVuSans-30" transform="translate(63.623047 0)"/>
       <use xlink:href="#DejaVuSans-31" transform="translate(127.246094 0)"/>
       <use xlink:href="#DejaVuSans-32" transform="translate(190.869141 0)"/>
      </g>
     </g>
    </g>
    <g id="xtick_4">
     <g id="line2d_4">
      <g>
       <use xlink:href="#m16e7cfaff7" x="172.680344" y="307.584" style="stroke: #000000; stroke-width: 0.8"/>
      </g>
     </g>
     <g id="text_4">
      <!-- 2014 -->
      <g transform="translate(159.955344 322.182437) scale(0.1 -0.1)">
       <defs>
        <path id="DejaVuSans-34" d="M 2419 4116 
L 825 1625 
L 2419 1625 
L 2419 4116 
z
M 2253 4666 
L 3047 4666 
L 3047 1625 
L 3713 1625 
L 3713 1100 
L 3047 1100 
L 3047 0 
L 2419 0 
L 2419 1100 
L 313 1100 
L 313 1709 
L 2253 4666 
z
" transform="scale(0.015625)"/>
       </defs>
       <use xlink:href="#DejaVuSans-32"/>
       <use xlink:href="#DejaVuSans-30" transform="translate(63.623047 0)"/>
       <use xlink:href="#DejaVuSans-31" transform="translate(127.246094 0)"/>
       <use xlink:href="#DejaVuSans-34" transform="translate(190.869141 0)"/>
      </g>
     </g>
    </g>
    <g id="xtick_5">
     <g id="line2d_5">
      <g>
       <use xlink:href="#m16e7cfaff7" x="209.722829" y="307.584" style="stroke: #000000; stroke-width: 0.8"/>
      </g>
     </g>
     <g id="text_5">
      <!-- 2016 -->
      <g transform="translate(196.997829 322.182437) scale(0.1 -0.1)">
       <defs>
        <path id="DejaVuSans-36" d="M 2113 2584 
Q 1688 2584 1439 2293 
Q 1191 2003 1191 1497 
Q 1191 994 1439 701 
Q 1688 409 2113 409 
Q 2538 409 2786 701 
Q 3034 994 3034 1497 
Q 3034 2003 2786 2293 
Q 2538 2584 2113 2584 
z
M 3366 4563 
L 3366 3988 
Q 3128 4100 2886 4159 
Q 2644 4219 2406 4219 
Q 1781 4219 1451 3797 
Q 1122 3375 1075 2522 
Q 1259 2794 1537 2939 
Q 1816 3084 2150 3084 
Q 2853 3084 3261 2657 
Q 3669 2231 3669 1497 
Q 3669 778 3244 343 
Q 2819 -91 2113 -91 
Q 1303 -91 875 529 
Q 447 1150 447 2328 
Q 447 3434 972 4092 
Q 1497 4750 2381 4750 
Q 2619 4750 2861 4703 
Q 3103 4656 3366 4563 
z
" transform="scale(0.015625)"/>
       </defs>
       <use xlink:href="#DejaVuSans-32"/>
       <use xlink:href="#DejaVuSans-30" transform="translate(63.623047 0)"/>
       <use xlink:href="#DejaVuSans-31" transform="translate(127.246094 0)"/>
       <use xlink:href="#DejaVuSans-36" transform="translate(190.869141 0)"/>
      </g>
     </g>
    </g>
    <g id="xtick_6">
     <g id="line2d_6">
      <g>
       <use xlink:href="#m16e7cfaff7" x="246.816057" y="307.584" style="stroke: #000000; stroke-width: 0.8"/>
      </g>
     </g>
     <g id="text_6">
      <!-- 2018 -->
      <g transform="translate(234.091057 322.182437) scale(0.1 -0.1)">
       <use xlink:href="#DejaVuSans-32"/>
       <use xlink:href="#DejaVuSans-30" transform="translate(63.623047 0)"/>
       <use xlink:href="#DejaVuSans-31" transform="translate(127.246094 0)"/>
       <use xlink:href="#DejaVuSans-38" transform="translate(190.869141 0)"/>
      </g>
     </g>
    </g>
    <g id="xtick_7">
     <g id="line2d_7">
      <g>
       <use xlink:href="#m16e7cfaff7" x="283.858542" y="307.584" style="stroke: #000000; stroke-width: 0.8"/>
      </g>
     </g>
     <g id="text_7">
      <!-- 2020 -->
      <g transform="translate(271.133542 322.182437) scale(0.1 -0.1)">
       <use xlink:href="#DejaVuSans-32"/>
       <use xlink:href="#DejaVuSans-30" transform="translate(63.623047 0)"/>
       <use xlink:href="#DejaVuSans-32" transform="translate(127.246094 0)"/>
       <use xlink:href="#DejaVuSans-30" transform="translate(190.869141 0)"/>
      </g>
     </g>
    </g>
    <g id="xtick_8">
     <g id="line2d_8">
      <g>
       <use xlink:href="#m16e7cfaff7" x="320.95177" y="307.584" style="stroke: #000000; stroke-width: 0.8"/>
      </g>
     </g>
     <g id="text_8">
      <!-- 2022 -->
      <g transform="translate(308.22677 322.182437) scale(0.1 -0.1)">
       <use xlink:href="#DejaVuSans-32"/>
       <use xlink:href="#DejaVuSans-30" transform="translate(63.623047 0)"/>
       <use xlink:href="#DejaVuSans-32" transform="translate(127.246094 0)"/>
       <use xlink:href="#DejaVuSans-32" transform="translate(190.869141 0)"/>
      </g>
     </g>
    </g>
    <g id="xtick_9">
     <g id="line2d_9">
      <g>
       <use xlink:href="#m16e7cfaff7" x="357.994255" y="307.584" style="stroke: #000000; stroke-width: 0.8"/>
      </g>
     </g>
     <g id="text_9">
      <!-- 2024 -->
      <g transform="translate(345.269255 322.182437) scale(0.1 -0.1)">
       <use xlink:href="#DejaVuSans-32"/>
       <use xlink:href="#DejaVuSans-30" transform="translate(63.623047 0)"/>
       <use xlink:href="#DejaVuSans-32" transform="translate(127.246094 0)"/>
       <use xlink:href="#DejaVuSans-34" transform="translate(190.869141 0)"/>
      </g>
     </g>
    </g>
    <g id="xtick_10">
     <g id="line2d_10">
      <g>
       <use xlink:href="#m16e7cfaff7" x="395.087483" y="307.584" style="stroke: #000000; stroke-width: 0.8"/>
      </g>
     </g>
     <g id="text_10">
      <!-- 2026 -->
      <g transform="translate(382.362483 322.182437) scale(0.1 -0.1)">
       <use xlink:href="#DejaVuSans-32"/>
       <use xlink:href="#DejaVuSans-30" transform="translate(63.623047 0)"/>
       <use xlink:href="#DejaVuSans-32" transform="translate(127.246094 0)"/>
       <use xlink:href="#DejaVuSans-36" transform="translate(190.869141 0)"/>
      </g>
     </g>
    </g>
    <g id="text_11">
     <!-- Updated 2026-03-17 06:35:12.600886 - Last record 2026-03-14 -->
     <g transform="translate(75.905312 335.860562) scale(0.1 -0.1)">
      <defs>
       <path id="DejaVuSans-55" d="M 556 4666 
L 1191 4666 
L 1191 1831 
Q 1191 1081 1462 751 
Q 1734 422 2344 422 
Q 2950 422 3222 751 
Q 3494 1081 3494 1831 
L 3494 4666 
L 4128 4666 
L 4128 1753 
Q 4128 841 3676 375 
Q 3225 -91 2344 -91 
Q 1459 -91 1007 375 
Q 556 841 556 1753 
L 556 4666 
z
" transform="scale(0.015625)"/>
       <path id="DejaVuSans-70" d="M 1159 525 
L 1159 -1331 
L 581 -1331 
L 581 3500 
L 1159 3500 
L 1159 2969 
Q 1341 3281 1617 3432 
Q 1894 3584 2278 3584 
Q 2916 3584 3314 3078 
Q 3713 2572 3713 1747 
Q 3713 922 3314 415 
Q 2916 -91 2278 -91 
Q 1894 -91 1617 61 
Q 1341 213 1159 525 
z
M 3116 1747 
Q 3116 2381 2855 2742 
Q 2594 3103 2138 3103 
Q 1681 3103 1420 2742 
Q 1159 2381 1159 1747 
Q 1159 1113 1420 752 
Q 1681 391 2138 391 
Q 2594 391 2855 752 
Q 3116 1113 3116 1747 
z
" transform="scale(0.015625)"/>
       <path id="DejaVuSans-64" d="M 2906 2969 
L 2906 4863 
L 3481 4863 
L 3481 0 
L 2906 0 
L 2906 525 
Q 2725 213 2448 61 
Q 2172 -91 1784 -91 
Q 1150 -91 751 415 
Q 353 922 353 1747 
Q 353 2572 751 3078 
Q 1150 3584 1784 3584 
Q 2172 3584 2448 3432 
Q 2725 3281 2906 2969 
z
M 947 1747 
Q 947 1113 1208 752 
Q 1469 391 1925 391 
Q 2381 391 2643 752 
Q 2906 1113 2906 1747 
Q 2906 2381 2643 2742 
Q 2381 3103 1925 3103 
Q 1469 3103 1208 2742 
Q 947 2381 947 1747 
z
" transform="scale(0.015625)"/>
       <path id="DejaVuSans-61" d="M 2194 1759 
Q 1497 1759 1228 1600 
Q 959 1441 959 1056 
Q 959 750 1161 570 
Q 1363 391 1709 391 
Q 2188 391 2477 730 
Q 2766 1069 2766 1631 
L 2766 1759 
L 2194 1759 
z
M 3341 1997 
L 3341 0 
L 2766 0 
L 2766 531 
Q 2569 213 2275 61 
Q 1981 -91 1556 -91 
Q 1019 -91 701 211 
Q 384 513 384 1019 
Q 384 1609 779 1909 
Q 1175 2209 1959 2209 
L 2766 2209 
L 2766 2266 
Q 2766 2663 2505 2880 
Q 2244 3097 1772 3097 
Q 1472 3097 1187 3025 
Q 903 2953 641 2809 
L 641 3341 
Q 956 3463 1253 3523 
Q 1550 3584 1831 3584 
Q 2591 3584 2966 3190 
Q 3341 2797 3341 1997 
z
" transform="scale(0.015625)"/>
       <path id="DejaVuSans-74" d="M 1172 4494 
L 1172 3500 
L 2356 3500 
L 2356 3053 
L 1172 3053 
L 1172 1153 
Q 1172 725 1289 603 
Q 1406 481 1766 481 
L 2356 481 
L 2356 0 
L 1766 0 
Q 1100 0 847 248 
Q 594 497 594 1153 
L 594 3053 
L 172 3053 
L 172 3500 
L 594 3500 
L 594 4494 
L 1172 4494 
z
" transform="scale(0.015625)"/>
       <path id="DejaVuSans-65" d="M 3597 1894 
L 3597 1613 
L 953 1613 
Q 991 1019 1311 708 
Q 1631 397 2203 397 
Q 2534 397 2845 478 
Q 3156 559 3463 722 
L 3463 178 
Q 3153 47 2828 -22 
Q 2503 -91 2169 -91 
Q 1331 -91 842 396 
Q 353 884 353 1716 
Q 353 2575 817 3079 
Q 1281 3584 2069 3584 
Q 2775 3584 3186 3129 
Q 3597 2675 3597 1894 
z
M 3022 2063 
Q 3016 2534 2758 2815 
Q 2500 3097 2075 3097 
Q 1594 3097 1305 2825 
Q 1016 2553 972 2059 
L 3022 2063 
z
" transform="scale(0.015625)"/>
       <path id="DejaVuSans-20" transform="scale(0.015625)"/>
       <path id="DejaVuSans-2d" d="M 313 2009 
L 1997 2009 
L 1997 1497 
L 313 1497 
L 313 2009 
z
" transform="scale(0.015625)"/>
       <path id="DejaVuSans-33" d="M 2597 2516 
Q 3050 2419 3304 2112 
Q 3559 1806 3559 1356 
Q 3559 666 3084 287 
Q 2609 -91 1734 -91 
Q 1441 -91 1130 -33 
Q 819 25 488 141 
L 488 750 
Q 750 597 1062 519 
Q 1375 441 1716 441 
Q 2309 441 2620 675 
Q 2931 909 2931 1356 
Q 2931 1769 2642 2001 
Q 2353 2234 1838 2234 
L 1294 2234 
L 1294 2753 
L 1863 2753 
Q 2328 2753 2575 2939 
Q 2822 3125 2822 3475 
Q 2822 3834 2567 4026 
Q 2313 4219 1838 4219 
Q 1578 4219 1281 4162 
Q 984 4106 628 3988 
L 628 4550 
Q 988 4650 1302 4700 
Q 1616 4750 1894 4750 
Q 2613 4750 3031 4423 
Q 3450 4097 3450 3541 
Q 3450 3153 3228 2886 
Q 3006 2619 2597 2516 
z
" transform="scale(0.015625)"/>
       <path id="DejaVuSans-37" d="M 525 4666 
L 3525 4666 
L 3525 4397 
L 1831 0 
L 1172 0 
L 2766 4134 
L 525 4134 
L 525 4666 
z
" transform="scale(0.015625)"/>
       <path id="DejaVuSans-3a" d="M 750 794 
L 1409 794 
L 1409 0 
L 750 0 
L 750 794 
z
M 750 3309 
L 1409 3309 
L 1409 2516 
L 750 2516 
L 750 3309 
z
" transform="scale(0.015625)"/>
       <path id="DejaVuSans-35" d="M 691 4666 
L 3169 4666 
L 3169 4134 
L 1269 4134 
L 1269 2991 
Q 1406 3038 1543 3061 
Q 1681 3084 1819 3084 
Q 2600 3084 3056 2656 
Q 3513 2228 3513 1497 
Q 3513 744 3044 326 
Q 2575 -91 1722 -91 
Q 1428 -91 1123 -41 
Q 819 9 494 109 
L 494 744 
Q 775 591 1075 516 
Q 1375 441 1709 441 
Q 2250 441 2565 725 
Q 2881 1009 2881 1497 
Q 2881 1984 2565 2268 
Q 2250 2553 1709 2553 
Q 1456 2553 1204 2497 
Q 953 2441 691 2322 
L 691 4666 
z
" transform="scale(0.015625)"/>
       <path id="DejaVuSans-2e" d="M 684 794 
L 1344 794 
L 1344 0 
L 684 0 
L 684 794 
z
" transform="scale(0.015625)"/>
       <path id="DejaVuSans-4c" d="M 628 4666 
L 1259 4666 
L 1259 531 
L 3531 531 
L 3531 0 
L 628 0 
L 628 4666 
z
" transform="scale(0.015625)"/>
       <path id="DejaVuSans-73" d="M 2834 3397 
L 2834 2853 
Q 2591 2978 2328 3040 
Q 2066 3103 1784 3103 
Q 1356 3103 1142 2972 
Q 928 2841 928 2578 
Q 928 2378 1081 2264 
Q 1234 2150 1697 2047 
L 1894 2003 
Q 2506 1872 2764 1633 
Q 3022 1394 3022 966 
Q 3022 478 2636 193 
Q 2250 -91 1575 -91 
Q 1294 -91 989 -36 
Q 684 19 347 128 
L 347 722 
Q 666 556 975 473 
Q 1284 391 1588 391 
Q 1994 391 2212 530 
Q 2431 669 2431 922 
Q 2431 1156 2273 1281 
Q 2116 1406 1581 1522 
L 1381 1569 
Q 847 1681 609 1914 
Q 372 2147 372 2553 
Q 372 3047 722 3315 
Q 1072 3584 1716 3584 
Q 2034 3584 2315 3537 
Q 2597 3491 2834 3397 
z
" transform="scale(0.015625)"/>
       <path id="DejaVuSans-72" d="M 2631 2963 
Q 2534 3019 2420 3045 
Q 2306 3072 2169 3072 
Q 1681 3072 1420 2755 
Q 1159 2438 1159 1844 
L 1159 0 
L 581 0 
L 581 3500 
L 1159 3500 
L 1159 2956 
Q 1341 3275 1631 3429 
Q 1922 3584 2338 3584 
Q 2397 3584 2469 3576 
Q 2541 3569 2628 3553 
L 2631 2963 
z
" transform="scale(0.015625)"/>
       <path id="DejaVuSans-63" d="M 3122 3366 
L 3122 2828 
Q 2878 2963 2633 3030 
Q 2388 3097 2138 3097 
Q 1578 3097 1268 2742 
Q 959 2388 959 1747 
Q 959 1106 1268 751 
Q 1578 397 2138 397 
Q 2388 397 2633 464 
Q 2878 531 3122 666 
L 3122 134 
Q 2881 22 2623 -34 
Q 2366 -91 2075 -91 
Q 1284 -91 818 406 
Q 353 903 353 1747 
Q 353 2603 823 3093 
Q 1294 3584 2113 3584 
Q 2378 3584 2631 3529 
Q 2884 3475 3122 3366 
z
" transform="scale(0.015625)"/>
       <path id="DejaVuSans-6f" d="M 1959 3097 
Q 1497 3097 1228 2736 
Q 959 2375 959 1747 
Q 959 1119 1226 758 
Q 1494 397 1959 397 
Q 2419 397 2687 759 
Q 2956 1122 2956 1747 
Q 2956 2369 2687 2733 
Q 2419 3097 1959 3097 
z
M 1959 3584 
Q 2709 3584 3137 3096 
Q 3566 2609 3566 1747 
Q 3566 888 3137 398 
Q 2709 -91 1959 -91 
Q 1206 -91 779 398 
Q 353 888 353 1747 
Q 353 2609 779 3096 
Q 1206 3584 1959 3584 
z
" transform="scale(0.015625)"/>
      </defs>
      <use xlink:href="#DejaVuSans-55"/>
      <use xlink:href="#DejaVuSans-70" transform="translate(73.193359 0)"/>
      <use xlink:href="#DejaVuSans-64" transform="translate(136.669922 0)"/>
      <use xlink:href="#DejaVuSans-61" transform="translate(200.146484 0)"/>
      <use xlink:href="#DejaVuSans-74" transform="translate(261.425781 0)"/>
      <use xlink:href="#DejaVuSans-65" transform="translate(300.634766 0)"/>
      <use xlink:href="#DejaVuSans-64" transform="translate(362.158203 0)"/>
      <use xlink:href="#DejaVuSans-20" transform="translate(425.634766 0)"/>
      <use xlink:href="#DejaVuSans-32" transform="translate(457.421875 0)"/>
      <use xlink:href="#DejaVuSans-30" transform="translate(521.044922 0)"/>
      <use xlink:href="#DejaVuSans-32" transform="translate(584.667969 0)"/>
      <use xlink:href="#DejaVuSans-36" transform="translate(648.291016 0)"/>
      <use xlink:href="#DejaVuSans-2d" transform="translate(711.914062 0)"/>
      <use xlink:href="#DejaVuSans-30" transform="translate(747.998047 0)"/>
      <use xlink:href="#DejaVuSans-33" transform="translate(811.621094 0)"/>
      <use xlink:href="#DejaVuSans-2d" transform="translate(875.244141 0)"/>
      <use xlink:href="#DejaVuSans-31" transform="translate(911.328125 0)"/>
      <use xlink:href="#DejaVuSans-37" transform="translate(974.951172 0)"/>
      <use xlink:href="#DejaVuSans-20" transform="translate(1038.574219 0)"/>
      <use xlink:href="#DejaVuSans-30" transform="translate(1070.361328 0)"/>
      <use xlink:href="#DejaVuSans-36" transform="translate(1133.984375 0)"/>
      <use xlink:href="#DejaVuSans-3a" transform="translate(1197.607422 0)"/>
      <use xlink:href="#DejaVuSans-33" transform="translate(1231.298828 0)"/>
      <use xlink:href="#DejaVuSans-35" transform="translate(1294.921875 0)"/>
      <use xlink:href="#DejaVuSans-3a" transform="translate(1358.544922 0)"/>
      <use xlink:href="#DejaVuSans-31" transform="translate(1392.236328 0)"/>
      <use xlink:href="#DejaVuSans-32" transform="translate(1455.859375 0)"/>
      <use xlink:href="#DejaVuSans-2e" transform="translate(1519.482422 0)"/>
      <use xlink:href="#DejaVuSans-36" transform="translate(1551.269531 0)"/>
      <use xlink:href="#DejaVuSans-30" transform="translate(1614.892578 0)"/>
      <use xlink:href="#DejaVuSans-30" transform="translate(1678.515625 0)"/>
      <use xlink:href="#DejaVuSans-38" transform="translate(1742.138672 0)"/>
      <use xlink:href="#DejaVuSans-38" transform="translate(1805.761719 0)"/>
      <use xlink:href="#DejaVuSans-36" transform="translate(1869.384766 0)"/>
      <use xlink:href="#DejaVuSans-20" transform="translate(1933.007812 0)"/>
      <use xlink:href="#DejaVuSans-2d" transform="translate(1964.794922 0)"/>
      <use xlink:href="#DejaVuSans-20" transform="translate(2000.878906 0)"/>
      <use xlink:href="#DejaVuSans-4c" transform="translate(2032.666016 0)"/>
      <use xlink:href="#DejaVuSans-61" transform="translate(2088.378906 0)"/>
      <use xlink:href="#DejaVuSans-73" transform="translate(2149.658203 0)"/>
      <use xlink:href="#DejaVuSans-74" transform="translate(2201.757812 0)"/>
      <use xlink:href="#DejaVuSans-20" transform="translate(2240.966797 0)"/>
      <use xlink:href="#DejaVuSans-72" transform="translate(2272.753906 0)"/>
      <use xlink:href="#DejaVuSans-65" transform="translate(2311.617188 0)"/>
      <use xlink:href="#DejaVuSans-63" transform="translate(2373.140625 0)"/>
      <use xlink:href="#DejaVuSans-6f" transform="translate(2428.121094 0)"/>
      <use xlink:href="#DejaVuSans-72" transform="translate(2489.302734 0)"/>
      <use xlink:href="#DejaVuSans-64" transform="translate(2528.666016 0)"/>
      <use xlink:href="#DejaVuSans-20" transform="translate(2592.142578 0)"/>
      <use xlink:href="#DejaVuSans-32" transform="translate(2623.929688 0)"/>
      <use xlink:href="#DejaVuSans-30" transform="translate(2687.552734 0)"/>
      <use xlink:href="#DejaVuSans-32" transform="translate(2751.175781 0)"/>
      <use xlink:href="#DejaVuSans-36" transform="translate(2814.798828 0)"/>
      <use xlink:href="#DejaVuSans-2d" transform="translate(2878.421875 0)"/>
      <use xlink:href="#DejaVuSans-30" transform="translate(2914.505859 0)"/>
      <use xlink:href="#DejaVuSans-33" transform="translate(2978.128906 0)"/>
      <use xlink:href="#DejaVuSans-2d" transform="translate(3041.751953 0)"/>
      <use xlink:href="#DejaVuSans-31" transform="translate(3077.835938 0)"/>
      <use xlink:href="#DejaVuSans-34" transform="translate(3141.458984 0)"/>
     </g>
    </g>
   </g>
   <g id="matplotlib.axis_2">
    <g id="ytick_1">
     <g id="line2d_11">
      <defs>
       <path id="m820e363e85" d="M 0 0 
L -3.5 0 
" style="stroke: #000000; stroke-width: 0.8"/>
      </defs>
      <g>
       <use xlink:href="#m820e363e85" x="57.6" y="295.488" style="stroke: #000000; stroke-width: 0.8"/>
      </g>
     </g>
     <g id="text_12">
      <!-- 0 -->
      <g transform="translate(44.2375 299.287219) scale(0.1 -0.1)">
       <use xlink:href="#DejaVuSans-30"/>
      </g>
     </g>
    </g>
    <g id="ytick_2">
     <g id="line2d_12">
      <g>
       <use xlink:href="#m820e363e85" x="57.6" y="246.945852" style="stroke: #000000; stroke-width: 0.8"/>
      </g>
     </g>
     <g id="text_13">
      <!-- 10 -->
      <g transform="translate(37.875 250.74507) scale(0.1 -0.1)">
       <use xlink:href="#DejaVuSans-31"/>
       <use xlink:href="#DejaVuSans-30" transform="translate(63.623047 0)"/>
      </g>
     </g>
    </g>
    <g id="ytick_3">
     <g id="line2d_13">
      <g>
       <use xlink:href="#m820e363e85" x="57.6" y="198.403703" style="stroke: #000000; stroke-width: 0.8"/>
      </g>
     </g>
     <g id="text_14">
      <!-- 20 -->
      <g transform="translate(37.875 202.202922) scale(0.1 -0.1)">
       <use xlink:href="#DejaVuSans-32"/>
       <use xlink:href="#DejaVuSans-30" transform="translate(63.623047 0)"/>
      </g>
     </g>
    </g>
    <g id="ytick_4">
     <g id="line2d_14">
      <g>
       <use xlink:href="#m820e363e85" x="57.6" y="149.861555" style="stroke: #000000; stroke-width: 0.8"/>
      </g>
     </g>
     <g id="text_15">
      <!-- 30 -->
      <g transform="translate(37.875 153.660774) scale(0.1 -0.1)">
       <use xlink:href="#DejaVuSans-33"/>
       <use xlink:href="#DejaVuSans-30" transform="translate(63.623047 0)"/>
      </g>
     </g>
    </g>
    <g id="ytick_5">
     <g id="line2d_15">
      <g>
       <use xlink:href="#m820e363e85" x="57.6" y="101.319406" style="stroke: #000000; stroke-width: 0.8"/>
      </g>
     </g>
     <g id="text_16">
      <!-- 40 -->
      <g transform="translate(37.875 105.118625) scale(0.1 -0.1)">
       <use xlink:href="#DejaVuSans-34"/>
       <use xlink:href="#DejaVuSans-30" transform="translate(63.623047 0)"/>
      </g>
     </g>
    </g>
    <g id="ytick_6">
     <g id="line2d_16">
      <g>
       <use xlink:href="#m820e363e85" x="57.6" y="52.777258" style="stroke: #000000; stroke-width: 0.8"/>
      </g>
     </g>
     <g id="text_17">
      <!-- 50 -->
      <g transform="translate(37.875 56.576477) scale(0.1 -0.1)">
       <use xlink:href="#DejaVuSans-35"/>
       <use xlink:href="#DejaVuSans-30" transform="translate(63.623047 0)"/>
      </g>
     </g>
    </g>
    <g id="text_18">
     <!-- IPv6 as % of total Google traffic -->
     <g transform="translate(31.795312 253.735813) rotate(-90) scale(0.1 -0.1)">
      <defs>
       <path id="DejaVuSans-49" d="M 628 4666 
L 1259 4666 
L 1259 0 
L 628 0 
L 628 4666 
z
" transform="scale(0.015625)"/>
       <path id="DejaVuSans-50" d="M 1259 4147 
L 1259 2394 
L 2053 2394 
Q 2494 2394 2734 2622 
Q 2975 2850 2975 3272 
Q 2975 3691 2734 3919 
Q 2494 4147 2053 4147 
L 1259 4147 
z
M 628 4666 
L 2053 4666 
Q 2838 4666 3239 4311 
Q 3641 3956 3641 3272 
Q 3641 2581 3239 2228 
Q 2838 1875 2053 1875 
L 1259 1875 
L 1259 0 
L 628 0 
L 628 4666 
z
" transform="scale(0.015625)"/>
       <path id="DejaVuSans-76" d="M 191 3500 
L 800 3500 
L 1894 563 
L 2988 3500 
L 3597 3500 
L 2284 0 
L 1503 0 
L 191 3500 
z
" transform="scale(0.015625)"/>
       <path id="DejaVuSans-25" d="M 4653 2053 
Q 4381 2053 4226 1822 
Q 4072 1591 4072 1178 
Q 4072 772 4226 539 
Q 4381 306 4653 306 
Q 4919 306 5073 539 
Q 5228 772 5228 1178 
Q 5228 1588 5073 1820 
Q 4919 2053 4653 2053 
z
M 4653 2450 
Q 5147 2450 5437 2106 
Q 5728 1763 5728 1178 
Q 5728 594 5436 251 
Q 5144 -91 4653 -91 
Q 4153 -91 3862 251 
Q 3572 594 3572 1178 
Q 3572 1766 3864 2108 
Q 4156 2450 4653 2450 
z
M 1428 4353 
Q 1159 4353 1004 4120 
Q 850 3888 850 3481 
Q 850 3069 1003 2837 
Q 1156 2606 1428 2606 
Q 1700 2606 1854 2837 
Q 2009 3069 2009 3481 
Q 2009 3884 1853 4118 
Q 1697 4353 1428 4353 
z
M 4250 4750 
L 4750 4750 
L 1831 -91 
L 1331 -91 
L 4250 4750 
z
M 1428 4750 
Q 1922 4750 2215 4408 
Q 2509 4066 2509 3481 
Q 2509 2891 2217 2550 
Q 1925 2209 1428 2209 
Q 931 2209 642 2551 
Q 353 2894 353 3481 
Q 353 4063 643 4406 
Q 934 4750 1428 4750 
z
" transform="scale(0.015625)"/>
       <path id="DejaVuSans-66" d="M 2375 4863 
L 2375 4384 
L 1825 4384 
Q 1516 4384 1395 4259 
Q 1275 4134 1275 3809 
L 1275 3500 
L 2222 3500 
L 2222 3053 
L 1275 3053 
L 1275 0 
L 697 0 
L 697 3053 
L 147 3053 
L 147 3500 
L 697 3500 
L 697 3744 
Q 697 4328 969 4595 
Q 1241 4863 1831 4863 
L 2375 4863 
z
" transform="scale(0.015625)"/>
       <path id="DejaVuSans-6c" d="M 603 4863 
L 1178 4863 
L 1178 0 
L 603 0 
L 603 4863 
z
" transform="scale(0.015625)"/>
       <path id="DejaVuSans-47" d="M 3809 666 
L 3809 1919 
L 2778 1919 
L 2778 2438 
L 4434 2438 
L 4434 434 
Q 4069 175 3628 42 
Q 3188 -91 2688 -91 
Q 1594 -91 976 548 
Q 359 1188 359 2328 
Q 359 3472 976 4111 
Q 1594 4750 2688 4750 
Q 3144 4750 3555 4637 
Q 3966 4525 4313 4306 
L 4313 3634 
Q 3963 3931 3569 4081 
Q 3175 4231 2741 4231 
Q 1884 4231 1454 3753 
Q 1025 3275 1025 2328 
Q 1025 1384 1454 906 
Q 1884 428 2741 428 
Q 3075 428 3337 486 
Q 3600 544 3809 666 
z
" transform="scale(0.015625)"/>
       <path id="DejaVuSans-67" d="M 2906 1791 
Q 2906 2416 2648 2759 
Q 2391 3103 1925 3103 
Q 1463 3103 1205 2759 
Q 947 2416 947 1791 
Q 947 1169 1205 825 
Q 1463 481 1925 481 
Q 2391 481 2648 825 
Q 2906 1169 2906 1791 
z
M 3481 434 
Q 3481 -459 3084 -895 
Q 2688 -1331 1869 -1331 
Q 1566 -1331 1297 -1286 
Q 1028 -1241 775 -1147 
L 775 -588 
Q 1028 -725 1275 -790 
Q 1522 -856 1778 -856 
Q 2344 -856 2625 -561 
Q 2906 -266 2906 331 
L 2906 616 
Q 2728 306 2450 153 
Q 2172 0 1784 0 
Q 1141 0 747 490 
Q 353 981 353 1791 
Q 353 2603 747 3093 
Q 1141 3584 1784 3584 
Q 2172 3584 2450 3431 
Q 2728 3278 2906 2969 
L 2906 3500 
L 3481 3500 
L 3481 434 
z
" transform="scale(0.015625)"/>
       <path id="DejaVuSans-69" d="M 603 3500 
L 1178 3500 
L 1178 0 
L 603 0 
L 603 3500 
z
M 603 4863 
L 1178 4863 
L 1178 4134 
L 603 4134 
L 603 4863 
z
" transform="scale(0.015625)"/>
      </defs>
      <use xlink:href="#DejaVuSans-49"/>
      <use xlink:href="#DejaVuSans-50" transform="translate(29.492188 0)"/>
      <use xlink:href="#DejaVuSans-76" transform="translate(89.794922 0)"/>
      <use xlink:href="#DejaVuSans-36" transform="translate(148.974609 0)"/>
      <use xlink:href="#DejaVuSans-20" transform="translate(212.597656 0)"/>
      <use xlink:href="#DejaVuSans-61" transform="translate(244.384766 0)"/>
      <use xlink:href="#DejaVuSans-73" transform="translate(305.664062 0)"/>
      <use xlink:href="#DejaVuSans-20" transform="translate(357.763672 0)"/>
      <use xlink:href="#DejaVuSans-25" transform="translate(389.550781 0)"/>
      <use xlink:href="#DejaVuSans-20" transform="translate(484.570312 0)"/>
      <use xlink:href="#DejaVuSans-6f" transform="translate(516.357422 0)"/>
      <use xlink:href="#DejaVuSans-66" transform="translate(577.539062 0)"/>
      <use xlink:href="#DejaVuSans-20" transform="translate(612.744141 0)"/>
      <use xlink:href="#DejaVuSans-74" transform="translate(644.53125 0)"/>
      <use xlink:href="#DejaVuSans-6f" transform="translate(683.740234 0)"/>
      <use xlink:href="#DejaVuSans-74" transform="translate(744.921875 0)"/>
      <use xlink:href="#DejaVuSans-61" transform="translate(784.130859 0)"/>
      <use xlink:href="#DejaVuSans-6c" transform="translate(845.410156 0)"/>
      <use xlink:href="#DejaVuSans-20" transform="translate(873.193359 0)"/>
      <use xlink:href="#DejaVuSans-47" transform="translate(904.980469 0)"/>
      <use xlink:href="#DejaVuSans-6f" transform="translate(982.470703 0)"/>
      <use xlink:href="#DejaVuSans-6f" transform="translate(1043.652344 0)"/>
      <use xlink:href="#DejaVuSans-67" transform="translate(1104.833984 0)"/>
      <use xlink:href="#DejaVuSans-6c" transform="translate(1168.310547 0)"/>
      <use xlink:href="#DejaVuSans-65" transform="translate(1196.09375 0)"/>
      <use xlink:href="#DejaVuSans-20" transform="translate(1257.617188 0)"/>
      <use xlink:href="#DejaVuSans-74" transform="translate(1289.404297 0)"/>
      <use xlink:href="#DejaVuSans-72" transform="translate(1328.613281 0)"/>
      <use xlink:href="#DejaVuSans-61" transform="translate(1369.726562 0)"/>
      <use xlink:href="#DejaVuSans-66" transform="translate(1431.005859 0)"/>
      <use xlink:href="#DejaVuSans-66" transform="translate(1466.210938 0)"/>
      <use xlink:href="#DejaVuSans-69" transform="translate(1501.416016 0)"/>
      <use xlink:href="#DejaVuSans-63" transform="translate(1529.199219 0)"/>
     </g>
    </g>
   </g>
   <g id="line2d_17">
    <path d="M 73.832727 294.603596 
L 75.253535 294.453703 
L 75.608737 294.596436 
L 77.384746 294.569612 
L 78.450352 294.465702 
L 78.805554 294.350648 
L 79.87116 294.369735 
L 83.067977 294.300848 
L 84.133583 294.326076 
L 85.55439 294.257544 
L 88.396006 294.316964 
L 89.106409 294.392025 
L 91.592823 294.34309 
L 93.01363 294.255961 
L 93.724034 294.263917 
L 94.079236 294.027595 
L 96.210448 293.94653 
L 97.276053 293.949923 
L 98.341659 294.036231 
L 99.407265 293.993246 
L 100.47287 294.036483 
L 102.24888 294.006746 
L 103.314486 294.178906 
L 104.380092 294.131325 
L 105.090495 294.207657 
L 105.800899 294.28064 
L 106.156101 294.207832 
L 108.287313 294.406753 
L 110.063322 294.327993 
L 111.128928 294.153974 
L 111.839332 294.150101 
L 114.680947 294.152707 
L 115.036149 294.175299 
L 115.391351 294.059327 
L 117.522562 294.274437 
L 120.364177 294.119471 
L 120.719379 294.124655 
L 121.074581 294.01427 
L 121.784985 294.106602 
L 122.495389 293.935219 
L 122.850591 293.977825 
L 123.205793 293.87261 
L 123.560995 293.918676 
L 124.271398 293.820771 
L 125.337004 293.806835 
L 125.692206 293.927632 
L 127.113014 293.954918 
L 127.823418 293.967888 
L 128.178619 293.933583 
L 128.889023 293.728488 
L 129.244225 293.614254 
L 131.730639 293.75088 
L 134.217052 293.309191 
L 134.927456 293.443249 
L 137.769071 293.016525 
L 138.124273 293.113721 
L 140.255484 292.648847 
L 140.965888 292.664056 
L 142.031494 292.349507 
L 143.807503 291.912982 
L 144.873109 291.800763 
L 145.228311 291.89243 
L 147.004321 291.547645 
L 148.069926 291.206976 
L 148.425128 291.258518 
L 148.78033 290.952693 
L 149.490734 290.769659 
L 149.845936 290.817216 
L 150.55634 290.62729 
L 150.911542 290.770737 
L 151.621945 290.59749 
L 151.977147 290.554516 
L 152.687551 290.238696 
L 153.397955 290.182241 
L 153.753157 290.213541 
L 154.108359 290.123034 
L 154.463561 290.167086 
L 155.173965 289.976932 
L 156.23957 289.83682 
L 156.594772 289.653627 
L 156.949974 289.635958 
L 157.305176 289.730683 
L 158.725984 289.045826 
L 159.081186 289.061515 
L 160.501993 288.630868 
L 160.857195 288.342266 
L 162.278003 288.001587 
L 162.988407 287.687961 
L 163.343609 287.765512 
L 163.69881 287.54964 
L 164.054012 287.5117 
L 165.830022 286.497533 
L 166.895628 285.958982 
L 167.606031 285.212661 
L 168.316435 284.311617 
L 168.671637 284.524479 
L 169.026839 284.561303 
L 170.092445 283.291644 
L 170.447647 283.139402 
L 170.802849 282.497641 
L 171.868454 282.11558 
L 172.223656 281.870282 
L 172.578858 281.9148 
L 173.644464 281.213992 
L 173.999666 281.065142 
L 174.354868 280.789869 
L 175.065272 280.724643 
L 175.420473 280.101052 
L 175.775675 280.092833 
L 176.130877 279.407239 
L 176.486079 279.052172 
L 177.196483 279.154082 
L 177.551685 278.900245 
L 177.906887 278.509233 
L 178.617291 278.054063 
L 178.972493 277.647154 
L 179.327694 277.896631 
L 180.748502 277.098263 
L 181.103704 276.803064 
L 181.458906 275.589981 
L 181.814108 275.820095 
L 182.524512 274.996354 
L 182.879714 274.960987 
L 183.234915 275.317097 
L 184.300521 274.506802 
L 184.655723 273.957091 
L 185.366127 273.999473 
L 185.721329 273.404672 
L 186.076531 273.363731 
L 186.431733 270.212603 
L 186.786935 272.285882 
L 187.142136 273.520969 
L 187.497338 272.920828 
L 187.85254 272.585455 
L 188.207742 272.531408 
L 188.562944 271.742098 
L 188.918146 271.494776 
L 189.983752 269.781602 
L 190.338954 268.663002 
L 191.404559 266.585422 
L 191.759761 267.499413 
L 192.114963 267.359539 
L 192.470165 267.384844 
L 192.825367 267.532494 
L 193.180569 267.808194 
L 193.535771 267.703008 
L 193.890973 265.68733 
L 194.246175 265.985475 
L 195.31178 264.923344 
L 195.666982 264.780387 
L 196.377386 264.84324 
L 196.732588 263.31956 
L 197.08779 263.264067 
L 197.798194 262.061614 
L 198.153396 262.471577 
L 198.508598 260.594787 
L 198.863799 261.038395 
L 199.219001 259.771449 
L 199.574203 259.16477 
L 199.929405 258.253818 
L 200.284607 258.886419 
L 200.639809 257.928153 
L 200.995011 256.333961 
L 201.350213 257.137285 
L 201.705415 257.366293 
L 202.060617 256.871444 
L 202.415819 255.413772 
L 202.77102 255.818686 
L 203.126222 254.531708 
L 203.481424 254.828174 
L 204.54703 252.213078 
L 205.612636 251.937009 
L 205.967838 250.921682 
L 206.32304 251.045236 
L 206.678241 250.664355 
L 207.033443 249.658052 
L 207.388645 249.402647 
L 208.099049 247.506106 
L 208.454251 247.370163 
L 208.809453 247.560026 
L 209.164655 247.069221 
L 209.519857 244.978414 
L 210.230261 246.204812 
L 210.585463 245.969227 
L 211.295866 245.898632 
L 211.651068 245.94017 
L 212.361472 245.687906 
L 212.716674 244.511545 
L 213.071876 244.455858 
L 213.427078 243.412605 
L 213.78228 243.409673 
L 214.137482 243.251192 
L 215.203087 240.267399 
L 215.558289 238.509979 
L 215.913491 239.71012 
L 216.268693 239.207092 
L 216.623895 238.167344 
L 216.979097 238.398783 
L 217.334299 236.178941 
L 217.689501 236.50462 
L 218.044703 236.23243 
L 218.399905 234.683503 
L 218.755106 234.668843 
L 219.110308 233.514288 
L 219.46551 233.792284 
L 219.820712 232.879089 
L 220.175914 232.393974 
L 220.531116 232.651699 
L 220.886318 232.026403 
L 221.24152 231.050905 
L 221.596722 231.362744 
L 221.951924 230.900094 
L 222.307126 229.364963 
L 222.662327 228.722993 
L 223.017529 228.783045 
L 223.372731 226.987854 
L 223.727933 227.307096 
L 224.438337 225.168936 
L 224.793539 223.035315 
L 225.148741 223.246196 
L 225.859145 222.046448 
L 226.214347 220.70216 
L 226.569548 220.881873 
L 226.92475 220.318498 
L 227.279952 218.192973 
L 227.635154 217.447225 
L 227.990356 213.923201 
L 228.345558 216.214395 
L 228.70076 215.798991 
L 229.055962 216.345396 
L 229.411164 215.703761 
L 230.121568 216.74583 
L 230.476769 216.538089 
L 230.831971 215.624618 
L 231.187173 215.899337 
L 231.897577 214.735913 
L 232.252779 213.771885 
L 232.607981 213.619002 
L 232.963183 212.967333 
L 233.318385 210.623937 
L 233.673587 211.359287 
L 234.028789 208.216804 
L 234.38399 208.460059 
L 234.739192 206.751924 
L 235.094394 205.699088 
L 236.16 203.762718 
L 236.515202 202.178045 
L 236.870404 199.565365 
L 237.225606 200.225126 
L 238.646413 197.249478 
L 239.001615 196.7601 
L 239.356817 196.778624 
L 239.712019 197.048241 
L 240.067221 196.122421 
L 240.422423 194.82488 
L 240.777625 195.987299 
L 241.132827 196.009736 
L 241.488029 197.045319 
L 241.843231 195.911996 
L 242.198432 194.149979 
L 242.553634 194.375758 
L 242.908836 193.615064 
L 244.684846 191.516742 
L 245.040048 191.420488 
L 245.39525 204.304705 
L 245.750452 189.784831 
L 246.105653 189.087916 
L 246.460855 185.566902 
L 246.816057 188.83358 
L 247.526461 188.356255 
L 247.881663 188.353945 
L 248.236865 187.916789 
L 248.592067 187.701354 
L 248.947269 188.898126 
L 249.302471 189.656835 
L 249.657673 189.472395 
L 250.012874 188.44451 
L 250.368076 188.518318 
L 251.433682 187.653981 
L 251.788884 185.344783 
L 252.144086 186.25623 
L 252.499288 183.810599 
L 252.85449 184.841828 
L 253.209692 182.789048 
L 253.564894 181.507308 
L 253.920095 182.263055 
L 254.275297 180.691207 
L 254.630499 179.647522 
L 254.985701 179.425597 
L 255.340903 180.278847 
L 255.696105 180.728934 
L 256.761711 178.42377 
L 257.116913 178.953893 
L 257.472115 179.717864 
L 257.827316 179.866005 
L 258.182518 178.117629 
L 258.53772 177.466407 
L 258.892922 176.198995 
L 259.603326 175.709225 
L 259.958528 175.841856 
L 260.31373 175.674677 
L 261.024134 173.933684 
L 261.379336 174.949409 
L 261.734537 171.731812 
L 262.089739 171.814572 
L 262.444941 171.422205 
L 262.800143 169.075459 
L 263.155345 168.371336 
L 263.510547 167.948117 
L 263.865749 167.951199 
L 264.220951 166.678924 
L 264.576153 166.592194 
L 265.286557 164.580588 
L 265.641759 165.908361 
L 265.99696 166.763586 
L 266.707364 164.726923 
L 267.062566 165.725833 
L 267.417768 165.543188 
L 267.77297 165.978 
L 268.128172 164.440704 
L 268.483374 163.904323 
L 268.838576 165.066572 
L 269.193778 163.398198 
L 269.54898 163.531689 
L 269.904181 163.055787 
L 270.614585 162.871297 
L 270.969787 159.575732 
L 271.324989 159.479735 
L 271.680191 159.739829 
L 272.035393 160.536949 
L 272.745797 156.691105 
L 273.100999 154.994542 
L 273.456201 154.563925 
L 273.811402 154.711833 
L 274.166604 154.402192 
L 274.521806 152.716925 
L 274.877008 154.106687 
L 275.23221 152.626991 
L 275.587412 154.000108 
L 275.942614 153.015775 
L 276.297816 152.41994 
L 276.653018 152.370252 
L 277.00822 152.437381 
L 277.363422 151.154237 
L 277.718623 151.300029 
L 278.073825 152.688761 
L 278.429027 152.218203 
L 278.784229 152.787845 
L 279.139431 153.020668 
L 279.494633 151.240924 
L 279.849835 152.306822 
L 280.205037 152.593245 
L 280.560239 151.931795 
L 280.915441 151.527648 
L 281.270643 149.933412 
L 281.625844 150.269887 
L 281.981046 149.922907 
L 282.336248 150.037976 
L 282.69145 149.110899 
L 283.046652 148.705359 
L 283.401854 147.531915 
L 283.757056 147.019009 
L 284.112258 147.744122 
L 284.46746 147.959717 
L 284.822662 148.00822 
L 285.533065 146.339487 
L 285.888267 146.739533 
L 286.243469 145.522683 
L 286.598671 146.049341 
L 286.953873 145.821746 
L 287.309075 144.980079 
L 287.664277 145.185766 
L 288.019479 145.763952 
L 288.374681 145.500368 
L 288.729883 145.514144 
L 289.085085 143.327821 
L 289.795488 141.771234 
L 290.15069 142.02824 
L 290.505892 141.484064 
L 290.861094 139.672912 
L 291.216296 140.258792 
L 291.571498 137.659801 
L 291.9267 139.739755 
L 292.281902 138.017902 
L 292.637104 135.664151 
L 292.992306 136.352692 
L 293.347507 134.883011 
L 293.702709 133.8913 
L 294.057911 133.98617 
L 294.413113 133.242155 
L 294.768315 135.107339 
L 295.123517 133.553471 
L 295.478719 134.136112 
L 295.833921 134.477956 
L 296.899527 132.093896 
L 297.254728 134.078808 
L 297.60993 134.118579 
L 297.965132 133.241116 
L 298.320334 133.738329 
L 298.675536 134.943829 
L 299.030738 134.006272 
L 299.38594 131.824807 
L 299.741142 135.446294 
L 300.096344 134.470757 
L 300.451546 133.058734 
L 300.806748 134.243245 
L 301.161949 134.328829 
L 301.517151 132.394493 
L 301.872353 131.431179 
L 302.227555 129.665201 
L 302.582757 130.526392 
L 302.937959 129.873942 
L 303.293161 130.075178 
L 303.648363 130.62801 
L 304.003565 129.216332 
L 304.358767 128.637539 
L 304.713969 129.684079 
L 305.06917 129.423238 
L 305.424372 127.15862 
L 305.779574 126.660476 
L 306.134776 125.119234 
L 306.489978 127.650163 
L 306.84518 128.489549 
L 307.200382 127.664376 
L 307.555584 127.50657 
L 307.910786 127.635984 
L 308.265988 123.172067 
L 308.62119 126.15622 
L 308.976391 124.436639 
L 309.686795 125.306519 
L 310.041997 121.078716 
L 310.397199 120.538393 
L 310.752401 118.837714 
L 311.107603 118.770027 
L 311.462805 120.308338 
L 311.818007 118.186958 
L 312.173209 117.769962 
L 312.528411 116.674443 
L 312.883612 116.278257 
L 313.238814 115.033554 
L 313.594016 115.21965 
L 313.949218 118.237403 
L 314.30442 116.610057 
L 314.659622 115.579658 
L 315.014824 117.539338 
L 315.370026 116.455635 
L 315.725228 116.074157 
L 316.08043 114.509546 
L 316.790833 116.999719 
L 317.146035 116.726238 
L 317.501237 117.116657 
L 317.856439 116.992957 
L 318.211641 115.590041 
L 318.566843 117.212135 
L 318.922045 115.263294 
L 319.277247 114.574102 
L 319.632449 114.501896 
L 320.342853 112.075682 
L 320.698055 109.368394 
L 321.053256 111.214753 
L 321.408458 114.663308 
L 321.76366 110.778815 
L 322.118862 110.596335 
L 322.474064 113.203044 
L 323.184468 109.733576 
L 323.53967 109.687199 
L 323.894872 110.419627 
L 324.250074 110.38974 
L 324.605276 110.95062 
L 324.960477 104.356863 
L 325.315679 103.652954 
L 325.670881 103.849515 
L 326.026083 102.501922 
L 326.381285 102.059922 
L 326.736487 99.716156 
L 327.091689 102.694241 
L 327.446891 103.855438 
L 327.802093 101.307747 
L 328.157295 102.986533 
L 328.512497 100.131648 
L 328.867698 98.678049 
L 329.2229 95.151631 
L 329.578102 96.100528 
L 329.933304 90.875622 
L 330.643708 94.538136 
L 330.99891 96.210632 
L 331.354112 94.687331 
L 331.709314 94.984481 
L 332.064516 95.623548 
L 332.419718 95.493436 
L 332.774919 97.35062 
L 333.130121 96.48489 
L 333.485323 95.12769 
L 333.840525 95.440734 
L 334.195727 94.049836 
L 334.550929 94.403223 
L 334.906131 92.702151 
L 335.261333 93.902977 
L 335.616535 97.143063 
L 335.971737 94.962662 
L 336.326939 91.657072 
L 336.68214 94.396534 
L 337.037342 92.805157 
L 337.392544 94.458018 
L 337.747746 92.965492 
L 338.102948 92.944269 
L 339.168554 87.198204 
L 339.523756 89.772686 
L 339.878958 89.575828 
L 340.23416 88.28716 
L 340.589361 88.666973 
L 340.944563 90.863059 
L 341.654967 88.96575 
L 342.010169 90.356308 
L 342.365371 89.573978 
L 342.720573 88.05806 
L 343.075775 88.08754 
L 343.786179 85.572183 
L 344.141381 86.669605 
L 344.496582 86.651804 
L 344.851784 84.262938 
L 345.206986 85.49354 
L 345.91739 85.287144 
L 346.272592 83.960331 
L 346.627794 85.475473 
L 346.982996 85.520063 
L 347.338198 82.853386 
L 347.6934 82.820727 
L 348.048602 81.558883 
L 348.403803 78.231358 
L 348.759005 79.661444 
L 349.469409 78.876697 
L 349.824611 78.735696 
L 350.179813 79.091724 
L 350.535015 77.858132 
L 350.890217 79.305469 
L 351.600621 75.690997 
L 351.955823 77.132708 
L 352.311024 79.088952 
L 352.666226 79.853467 
L 353.021428 76.241193 
L 353.37663 78.391149 
L 353.731832 77.276141 
L 354.087034 81.170391 
L 354.442236 78.61254 
L 354.797438 77.660172 
L 355.15264 79.825079 
L 355.507842 80.023796 
L 355.863044 81.175604 
L 356.218245 79.104578 
L 356.573447 81.311653 
L 356.928649 78.630394 
L 357.283851 78.303142 
L 357.639053 75.766771 
L 357.994255 78.953825 
L 358.349457 78.939714 
L 358.704659 78.175559 
L 359.059861 78.257114 
L 359.415063 76.874289 
L 359.770265 77.945746 
L 360.125466 75.341726 
L 360.480668 75.988269 
L 360.83587 75.98958 
L 361.191072 85.009245 
L 361.901476 85.009245 
L 362.256678 73.791902 
L 362.61188 73.740753 
L 362.967082 75.241225 
L 363.322284 74.828466 
L 363.677486 73.266778 
L 364.032687 73.653663 
L 364.387889 72.961064 
L 364.743091 70.643943 
L 365.098293 71.508183 
L 365.453495 66.814628 
L 365.808697 67.778753 
L 366.163899 66.418893 
L 366.519101 66.783983 
L 366.874303 65.569517 
L 367.229505 69.40156 
L 367.584707 66.482008 
L 368.650312 69.547449 
L 369.005514 68.244117 
L 369.360716 69.423269 
L 370.07112 67.240983 
L 370.426322 68.765275 
L 370.781524 69.459665 
L 371.136726 69.211668 
L 371.491928 73.268782 
L 371.84713 69.434326 
L 372.202331 69.945349 
L 372.557533 67.919379 
L 372.912735 70.205491 
L 373.267937 69.72955 
L 373.978341 69.458525 
L 374.333543 67.330563 
L 374.688745 68.713665 
L 375.043947 67.531843 
L 375.399149 67.362052 
L 375.754351 68.060525 
L 376.109552 64.845778 
L 376.464754 68.505094 
L 376.819956 70.100703 
L 377.53036 67.822018 
L 377.885562 67.257347 
L 378.240764 66.201638 
L 378.595966 65.859518 
L 378.951168 65.330481 
L 379.30637 63.089305 
L 379.661572 63.595861 
L 380.016773 62.866113 
L 380.371975 59.333895 
L 380.727177 60.355513 
L 381.082379 62.278738 
L 381.437581 61.01107 
L 381.792783 58.450724 
L 382.147985 64.650381 
L 382.503187 60.955484 
L 382.858389 63.374009 
L 383.568793 60.571661 
L 383.923994 60.410438 
L 384.279196 57.721441 
L 384.634398 59.881601 
L 384.9896 54.905458 
L 385.344802 58.599418 
L 385.700004 56.29469 
L 386.055206 54.915666 
L 386.410408 55.151595 
L 386.76561 53.925105 
L 387.120812 53.568 
L 387.476014 57.041264 
L 387.831215 57.035676 
L 388.186417 57.475395 
L 388.541619 56.772233 
L 389.252023 53.662856 
L 389.607225 54.539474 
L 389.962427 54.350732 
L 390.317629 55.63525 
L 390.672831 56.144748 
L 391.028033 58.012995 
L 391.383235 56.103881 
L 391.738436 56.632835 
L 392.093638 56.863259 
L 392.44884 56.854677 
L 392.804042 58.910486 
L 393.159244 59.888518 
L 393.514446 57.404912 
L 393.869648 58.008136 
L 394.22485 57.819088 
L 394.580052 58.569001 
L 394.935254 56.520727 
L 395.290456 57.274625 
L 395.645657 54.862041 
L 396.000859 60.123039 
L 396.356061 59.368335 
L 396.711263 59.661981 
L 397.066465 58.039678 
L 397.421667 57.107407 
L 397.776869 53.984788 
L 398.132071 55.709282 
L 398.487273 55.283266 
L 398.487273 55.283266 
" clip-path="url(#p4281ece011)" style="fill: none; stroke: #1f77b4; stroke-width: 1.5; stroke-linecap: square"/>
   </g>
   <g id="line2d_18">
    <path d="M 73.832727 294.835569 
L 75.608737 294.815458 
L 83.423179 294.589179 
L 84.488785 294.554937 
L 85.199188 294.522866 
L 89.106409 294.580024 
L 94.079236 294.50675 
L 94.434438 294.332974 
L 108.287313 294.507138 
L 110.063322 294.508162 
L 111.128928 294.355594 
L 112.549735 294.332663 
L 114.680947 294.299033 
L 115.036149 294.361618 
L 115.391351 294.262791 
L 118.94337 294.406296 
L 120.364177 294.307712 
L 121.784985 294.224647 
L 122.850591 294.053487 
L 123.916197 294.051482 
L 124.981802 293.932617 
L 125.692206 294.019823 
L 126.757812 294.081399 
L 128.533821 293.969082 
L 129.244225 293.809408 
L 130.309831 293.912191 
L 134.927456 293.587191 
L 135.282658 293.683878 
L 140.255484 293.079125 
L 141.676292 292.843793 
L 142.386696 292.850414 
L 143.452302 292.482916 
L 144.873109 292.225084 
L 145.228311 292.336547 
L 147.004321 292.14781 
L 149.135532 291.711984 
L 149.490734 291.566959 
L 150.201138 291.503418 
L 151.266744 291.266959 
L 151.977147 291.317094 
L 152.687551 291.079698 
L 153.397955 290.985298 
L 153.753157 290.768295 
L 154.818763 291.015283 
L 156.23957 290.583879 
L 156.594772 290.59967 
L 156.949974 290.443471 
L 158.01558 290.363658 
L 158.370782 290.140927 
L 160.146791 289.775463 
L 160.857195 289.638938 
L 161.567599 289.354156 
L 162.278003 289.261368 
L 162.988407 288.8807 
L 163.343609 289.008487 
L 164.409214 288.558885 
L 165.119618 288.184135 
L 165.47482 287.900168 
L 166.185224 287.702902 
L 166.540426 287.79354 
L 167.25083 287.654953 
L 168.316435 286.594491 
L 168.671637 286.339752 
L 169.026839 286.409783 
L 169.382041 286.273113 
L 170.447647 285.476852 
L 170.802849 285.342118 
L 171.513252 284.698857 
L 171.868454 284.610719 
L 172.223656 283.396714 
L 172.578858 283.51006 
L 172.93406 284.318796 
L 173.289262 284.230974 
L 173.999666 283.610406 
L 174.354868 284.171184 
L 174.71007 283.445081 
L 175.065272 283.400423 
L 175.420473 283.174731 
L 175.775675 282.646854 
L 176.130877 282.673679 
L 176.841281 281.86517 
L 177.196483 281.889553 
L 177.551685 281.708908 
L 177.906887 281.053094 
L 178.262089 281.274539 
L 178.617291 280.778156 
L 178.972493 280.927054 
L 179.327694 280.747861 
L 179.682896 280.82099 
L 180.038098 280.261692 
L 180.3933 280.28325 
L 180.748502 279.712651 
L 181.103704 279.811784 
L 181.814108 278.607458 
L 182.16931 278.369131 
L 182.524512 278.293337 
L 182.879714 278.016924 
L 183.234915 277.989526 
L 183.590117 278.095334 
L 183.945319 278.075266 
L 185.010925 277.680114 
L 185.366127 277.80877 
L 186.076531 277.4763 
L 186.431733 276.903105 
L 186.786935 275.616519 
L 187.142136 276.576892 
L 187.497338 276.893051 
L 187.85254 276.561145 
L 188.207742 276.753672 
L 188.562944 276.273358 
L 189.273348 275.652304 
L 189.62855 275.036615 
L 189.983752 274.650487 
L 190.338954 273.84158 
L 190.694156 271.44754 
L 191.049357 269.914118 
L 191.404559 272.18574 
L 191.759761 272.784784 
L 192.114963 272.801259 
L 192.470165 273.040688 
L 192.825367 273.023446 
L 193.180569 273.343883 
L 193.535771 272.682607 
L 193.890973 272.798885 
L 194.246175 271.563832 
L 194.601377 271.186422 
L 194.956578 271.400993 
L 195.666982 270.169396 
L 196.022184 270.502745 
L 196.377386 270.470605 
L 196.732588 270.073705 
L 197.08779 269.497636 
L 197.442992 269.197907 
L 197.798194 269.240391 
L 198.508598 267.454725 
L 198.863799 266.929509 
L 199.219001 266.64726 
L 199.574203 265.618472 
L 199.929405 265.262149 
L 200.995011 263.187656 
L 201.350213 263.539854 
L 202.060617 263.193457 
L 202.77102 262.528381 
L 203.126222 262.817513 
L 203.836626 262.450869 
L 204.54703 261.53349 
L 205.612636 261.064568 
L 205.967838 261.067641 
L 206.32304 260.105827 
L 206.678241 260.008947 
L 207.033443 260.035305 
L 207.388645 259.542714 
L 208.454251 257.103791 
L 208.809453 256.643748 
L 209.164655 254.423736 
L 209.519857 251.291602 
L 209.875059 255.938867 
L 210.230261 256.951534 
L 210.585463 256.668786 
L 210.940664 256.170185 
L 211.295866 256.238037 
L 211.651068 256.494825 
L 212.361472 255.445766 
L 213.071876 254.967092 
L 213.427078 254.579935 
L 213.78228 253.474416 
L 214.137482 253.217963 
L 214.492684 253.15529 
L 215.203087 252.17705 
L 215.558289 251.014237 
L 215.913491 250.289546 
L 216.268693 250.746265 
L 216.979097 249.317927 
L 217.334299 248.003949 
L 217.689501 247.621762 
L 218.044703 247.434846 
L 218.755106 245.327699 
L 219.110308 243.686678 
L 219.46551 244.405321 
L 219.820712 244.269859 
L 220.531116 242.886825 
L 220.886318 242.74414 
L 221.24152 242.845035 
L 221.596722 243.983839 
L 221.951924 243.39993 
L 222.307126 243.661242 
L 222.662327 243.04133 
L 223.017529 243.108716 
L 223.727933 241.480389 
L 224.083135 240.461354 
L 224.438337 240.657231 
L 225.148741 237.899042 
L 225.503943 238.552608 
L 225.859145 238.044673 
L 226.214347 236.842604 
L 226.569548 236.753355 
L 226.92475 235.946584 
L 227.279952 235.487235 
L 227.635154 232.283186 
L 227.990356 224.890207 
L 228.345558 230.212295 
L 228.70076 233.050065 
L 229.055962 233.349837 
L 229.766366 233.037439 
L 230.121568 233.124154 
L 230.476769 233.084432 
L 230.831971 232.201145 
L 231.187173 231.980696 
L 231.542375 232.255842 
L 232.252779 231.222458 
L 232.963183 229.367026 
L 233.318385 227.33479 
L 233.673587 228.018448 
L 234.028789 227.917203 
L 234.38399 224.231514 
L 234.739192 225.039853 
L 235.449596 222.580717 
L 235.804798 220.214603 
L 236.16 220.129329 
L 236.515202 219.805296 
L 237.225606 215.683781 
L 237.580808 215.410338 
L 237.93601 214.801785 
L 238.291211 214.50459 
L 239.001615 212.152437 
L 239.356817 211.950807 
L 239.712019 211.881154 
L 240.067221 212.912408 
L 240.422423 213.031181 
L 241.132827 214.516362 
L 241.843231 215.002725 
L 242.198432 212.916655 
L 242.553634 212.390531 
L 242.908836 212.845507 
L 243.264038 211.916765 
L 243.61924 210.207896 
L 243.974442 211.695276 
L 244.329644 212.284889 
L 244.684846 210.52511 
L 245.040048 210.308655 
L 245.39525 209.317614 
L 245.750452 204.304705 
L 246.105653 206.311996 
L 246.460855 198.021701 
L 247.171259 207.865558 
L 247.526461 206.588244 
L 247.881663 207.93025 
L 248.236865 207.432087 
L 248.592067 207.349332 
L 248.947269 206.04963 
L 249.302471 208.243629 
L 249.657673 208.851211 
L 250.012874 208.282361 
L 250.368076 207.036327 
L 250.723278 206.611535 
L 251.07848 205.638901 
L 251.433682 205.57116 
L 251.788884 207.292805 
L 252.144086 206.308758 
L 252.499288 204.909409 
L 252.85449 202.942739 
L 253.209692 202.75575 
L 253.564894 201.94247 
L 253.920095 202.041816 
L 254.275297 199.948227 
L 254.630499 199.899932 
L 254.985701 198.459041 
L 255.340903 198.22966 
L 255.696105 197.789961 
L 256.051307 196.413252 
L 256.761711 196.42463 
L 257.472115 195.86758 
L 257.827316 196.695602 
L 258.182518 195.291875 
L 258.53772 194.544568 
L 258.892922 197.220425 
L 259.248124 197.353426 
L 259.603326 197.226818 
L 259.958528 197.307626 
L 260.31373 197.240172 
L 260.668932 195.900351 
L 261.024134 196.219855 
L 261.379336 196.760954 
L 261.734537 196.16375 
L 262.089739 193.422492 
L 262.444941 194.173779 
L 262.800143 193.799136 
L 263.155345 190.885054 
L 263.510547 192.3108 
L 264.576153 188.508823 
L 264.931355 176.622079 
L 265.286557 181.181512 
L 265.641759 188.038945 
L 265.99696 189.297517 
L 266.707364 188.081706 
L 267.062566 186.88935 
L 267.417768 187.780783 
L 267.77297 187.527835 
L 268.128172 188.465975 
L 268.483374 186.348086 
L 268.838576 188.21874 
L 269.54898 186.276273 
L 269.904181 186.248992 
L 270.259383 186.829328 
L 270.614585 184.401628 
L 270.969787 183.991132 
L 271.324989 181.958541 
L 271.680191 183.825205 
L 272.035393 185.012405 
L 272.390595 182.732458 
L 273.100999 176.374189 
L 273.456201 177.763786 
L 273.811402 176.619065 
L 274.166604 175.99389 
L 274.521806 174.509059 
L 274.877008 175.126452 
L 275.23221 175.299048 
L 275.587412 175.143908 
L 275.942614 174.650215 
L 276.297816 173.862837 
L 276.653018 171.665232 
L 277.00822 174.441877 
L 277.363422 175.227958 
L 277.718623 175.375842 
L 278.073825 176.625264 
L 278.429027 177.31864 
L 279.139431 177.061206 
L 279.494633 177.542938 
L 279.849835 177.26501 
L 280.205037 177.89516 
L 280.915441 175.352619 
L 281.270643 176.952908 
L 281.625844 176.409251 
L 281.981046 175.056114 
L 282.336248 175.205595 
L 282.69145 174.553907 
L 283.046652 172.524821 
L 283.401854 161.30708 
L 283.757056 161.008434 
L 284.112258 171.988551 
L 284.46746 173.528134 
L 284.822662 173.843337 
L 285.177864 172.783667 
L 285.533065 171.352475 
L 286.243469 169.748768 
L 286.598671 169.703352 
L 286.953873 170.235423 
L 287.309075 169.854265 
L 287.664277 161.292299 
L 288.019479 157.555471 
L 288.374681 156.100308 
L 288.729883 157.185254 
L 289.795488 153.383438 
L 290.15069 153.650289 
L 290.505892 155.663803 
L 290.861094 153.818682 
L 291.216296 153.11449 
L 291.571498 154.761958 
L 291.9267 155.66771 
L 292.637104 152.819563 
L 292.992306 150.107984 
L 293.347507 149.902874 
L 293.702709 148.431202 
L 294.057911 149.702361 
L 294.413113 149.527604 
L 294.768315 150.532121 
L 295.123517 149.569588 
L 295.478719 149.577612 
L 295.833921 150.425726 
L 296.189123 151.925484 
L 296.544325 151.208837 
L 296.899527 152.929666 
L 297.60993 153.051119 
L 297.965132 153.715287 
L 298.320334 152.505092 
L 298.675536 152.675907 
L 299.030738 151.718899 
L 299.38594 149.986764 
L 299.741142 151.962105 
L 300.096344 152.359631 
L 300.451546 152.166399 
L 300.806748 154.3863 
L 301.161949 152.526786 
L 301.872353 145.009097 
L 302.227555 139.029365 
L 302.937959 147.975649 
L 303.293161 147.313524 
L 303.648363 148.139454 
L 304.003565 147.116249 
L 304.713969 146.240136 
L 305.06917 146.370146 
L 305.424372 147.85955 
L 305.779574 147.491033 
L 306.134776 147.304888 
L 306.489978 145.554716 
L 306.84518 148.422329 
L 307.555584 145.722079 
L 307.910786 147.757966 
L 308.265988 146.575349 
L 308.62119 143.49799 
L 308.976391 143.800335 
L 309.331593 141.970131 
L 309.686795 140.897699 
L 310.041997 142.58147 
L 310.397199 142.921897 
L 311.107603 136.188586 
L 311.462805 136.073954 
L 311.818007 135.740848 
L 312.173209 135.058879 
L 312.528411 132.583026 
L 312.883612 133.889222 
L 313.238814 132.653485 
L 313.594016 132.748142 
L 313.949218 133.86781 
L 314.30442 136.607029 
L 314.659622 137.242184 
L 315.014824 137.287789 
L 315.370026 138.661906 
L 315.725228 136.665979 
L 316.435632 137.732765 
L 316.790833 137.981568 
L 317.146035 137.777647 
L 317.501237 137.375053 
L 317.856439 139.539625 
L 318.211641 138.543691 
L 318.566843 139.019943 
L 318.922045 137.604726 
L 319.277247 138.585495 
L 319.987651 136.171664 
L 320.342853 131.360409 
L 320.698055 120.09449 
L 321.408458 131.356118 
L 321.76366 131.665351 
L 322.118862 133.244092 
L 322.474064 131.749984 
L 322.829266 134.268108 
L 323.184468 133.378466 
L 323.53967 130.250275 
L 323.894872 131.963288 
L 324.250074 131.957419 
L 324.605276 134.057047 
L 324.960477 130.495233 
L 325.315679 124.467026 
L 325.670881 124.609682 
L 326.026083 134.103312 
L 326.381285 123.445651 
L 327.091689 120.287178 
L 327.446891 123.652989 
L 327.802093 123.490557 
L 328.157295 122.265077 
L 328.512497 119.446486 
L 328.867698 120.031575 
L 329.578102 113.091941 
L 329.933304 113.792787 
L 330.288506 113.588876 
L 330.643708 111.355996 
L 330.99891 111.272872 
L 331.354112 112.102501 
L 331.709314 110.958901 
L 332.064516 111.725037 
L 332.419718 111.817962 
L 332.774919 114.860943 
L 333.130121 115.619724 
L 333.840525 118.359065 
L 334.195727 116.477518 
L 334.550929 117.514334 
L 334.906131 117.634393 
L 335.261333 115.034083 
L 335.616535 117.954369 
L 335.971737 118.765435 
L 336.326939 115.941219 
L 336.68214 115.177282 
L 337.037342 117.266711 
L 337.392544 114.054216 
L 337.747746 117.182136 
L 338.102948 117.458166 
L 338.45815 113.473234 
L 339.168554 100.516029 
L 339.523756 107.14727 
L 339.878958 111.665447 
L 340.23416 111.597362 
L 340.589361 112.131 
L 340.944563 111.089169 
L 341.299765 111.211039 
L 341.654967 111.870479 
L 342.365371 109.754551 
L 342.720573 112.525051 
L 343.430977 105.886737 
L 343.786179 109.280236 
L 344.141381 105.363215 
L 344.496582 107.809749 
L 344.851784 108.410623 
L 345.206986 107.230238 
L 345.562188 104.325578 
L 345.91739 108.725108 
L 346.272592 108.579458 
L 346.627794 105.445188 
L 346.982996 105.976482 
L 347.338198 105.446945 
L 347.6934 101.200512 
L 348.403803 97.01632 
L 348.759005 97.343834 
L 349.114207 97.18381 
L 349.469409 96.148891 
L 349.824611 97.42519 
L 350.179813 96.068496 
L 350.535015 96.983078 
L 350.890217 95.708861 
L 351.955823 102.080601 
L 352.311024 101.107195 
L 352.666226 102.626297 
L 353.021428 102.203675 
L 353.37663 101.585272 
L 353.731832 101.308596 
L 354.087034 103.308305 
L 354.442236 103.936998 
L 354.797438 101.406778 
L 355.15264 102.272502 
L 355.507842 104.554945 
L 355.863044 102.204956 
L 356.218245 103.769712 
L 356.573447 104.265905 
L 356.928649 102.882294 
L 357.283851 98.376243 
L 357.639053 87.213024 
L 358.349457 99.318635 
L 358.704659 99.319504 
L 359.059861 101.680885 
L 359.415063 100.735003 
L 360.125466 97.697856 
L 360.480668 97.025635 
L 360.83587 99.301155 
L 361.191072 85.009245 
L 361.901476 85.009245 
L 362.256678 95.769787 
L 362.61188 94.582606 
L 362.967082 95.018806 
L 363.322284 99.40604 
L 363.677486 98.74077 
L 364.032687 95.317092 
L 364.387889 96.231951 
L 364.743091 95.010029 
L 365.098293 95.857269 
L 365.453495 93.092818 
L 365.808697 88.075822 
L 366.163899 88.800401 
L 366.519101 84.85306 
L 366.874303 85.661505 
L 367.229505 85.315788 
L 367.584707 85.844606 
L 367.939908 85.696024 
L 368.29511 85.04635 
L 368.650312 86.620242 
L 369.005514 86.42103 
L 369.360716 86.441151 
L 369.715918 89.87127 
L 370.07112 90.646838 
L 370.426322 91.974087 
L 370.781524 92.807725 
L 371.84713 92.324216 
L 372.202331 92.697112 
L 372.557533 92.318547 
L 372.912735 92.793269 
L 373.267937 93.861915 
L 373.623139 91.368198 
L 373.978341 92.970288 
L 374.333543 93.967188 
L 374.688745 88.806765 
L 375.043947 92.82372 
L 375.399149 91.249158 
L 375.754351 86.915344 
L 376.109552 78.270551 
L 376.464754 76.739895 
L 376.819956 89.200893 
L 377.175158 91.974975 
L 377.53036 89.687154 
L 377.885562 88.31096 
L 378.240764 89.652466 
L 378.951168 87.557474 
L 379.30637 88.22638 
L 379.661572 85.176574 
L 380.016773 86.028421 
L 380.371975 84.485528 
L 380.727177 82.131156 
L 381.082379 80.533212 
L 381.437581 82.887661 
L 381.792783 81.735125 
L 382.147985 82.999702 
L 382.503187 82.906418 
L 382.858389 86.089773 
L 383.213591 85.310221 
L 383.923994 79.602188 
L 384.279196 79.099709 
L 384.634398 80.080857 
L 384.9896 78.701105 
L 385.344802 75.114457 
L 385.700004 74.208413 
L 386.055206 75.099452 
L 386.410408 70.732975 
L 386.76561 72.400417 
L 387.120812 72.189273 
L 387.476014 72.317851 
L 387.831215 72.813641 
L 388.541619 78.092474 
L 388.896821 79.421597 
L 389.962427 76.986693 
L 390.317629 78.563454 
L 390.672831 77.886908 
L 391.028033 79.468518 
L 391.383235 81.926566 
L 391.738436 79.424888 
L 392.093638 81.510385 
L 392.44884 80.556391 
L 392.804042 82.961232 
L 393.159244 78.649636 
L 393.514446 82.486053 
L 393.869648 79.850622 
L 394.22485 78.128361 
L 394.935254 65.094586 
L 395.290456 78.164952 
L 395.645657 79.182735 
L 396.000859 77.656929 
L 396.356061 79.824642 
L 397.066465 81.271625 
L 397.421667 73.282486 
L 397.776869 80.225115 
L 398.132071 81.63657 
L 398.487273 76.836082 
L 398.487273 76.836082 
" clip-path="url(#p4281ece011)" style="fill: none; stroke: #ff7f0e; stroke-width: 1.5; stroke-linecap: square"/>
   </g>
   <g id="line2d_19">
    <path d="M 73.832727 295.256027 
L 81.647169 295.217635 
L 82.002371 295.265391 
L 82.712775 295.179869 
L 84.843986 295.251308 
L 93.724034 295.227426 
L 94.079236 295.008845 
L 94.434438 295.183146 
L 120.719379 295.307205 
L 121.074581 295.233028 
L 121.784985 295.369955 
L 124.271398 295.320102 
L 124.981802 295.337849 
L 125.337004 295.292074 
L 126.047408 295.394906 
L 127.113014 295.365795 
L 127.468216 295.420526 
L 128.533821 295.293118 
L 128.889023 295.378567 
L 129.954629 295.231125 
L 130.309831 295.349669 
L 133.151446 295.255401 
L 133.506648 295.239115 
L 133.86185 295.109357 
L 134.927456 295.344058 
L 135.63786 295.108366 
L 135.993061 295.186626 
L 136.348263 295.080338 
L 138.124273 295.269177 
L 139.189879 294.90196 
L 139.545081 295.09227 
L 139.900282 295.003423 
L 140.965888 295.173777 
L 141.32109 295.043534 
L 141.676292 295.086586 
L 142.386696 294.879505 
L 142.741898 294.928134 
L 143.452302 294.852797 
L 143.807503 294.983157 
L 144.517907 294.840652 
L 144.873109 295.063679 
L 148.425128 294.826744 
L 148.78033 294.630906 
L 149.135532 294.581184 
L 149.845936 294.746077 
L 150.55634 294.705962 
L 150.911542 294.944585 
L 152.332349 294.652109 
L 153.397955 294.684943 
L 153.753157 294.933246 
L 154.818763 294.517007 
L 155.529167 294.591543 
L 155.884368 294.536982 
L 156.23957 294.740941 
L 156.594772 294.541957 
L 157.305176 294.794177 
L 158.370782 294.445824 
L 159.436388 294.536258 
L 159.791589 294.342294 
L 160.146791 294.467435 
L 160.857195 294.191328 
L 161.212397 294.328794 
L 161.567599 294.231292 
L 161.922801 294.295984 
L 162.633205 294.251831 
L 163.343609 294.245025 
L 163.69881 294.146271 
L 164.054012 294.254622 
L 165.119618 294.09867 
L 165.47482 294.280262 
L 166.185224 294.140489 
L 166.540426 293.88324 
L 166.895628 293.765899 
L 167.25083 293.481088 
L 167.961233 293.440764 
L 168.316435 293.205126 
L 168.671637 293.672728 
L 169.026839 293.63952 
L 169.382041 293.371257 
L 169.737243 293.322515 
L 170.092445 292.957716 
L 170.447647 293.15055 
L 170.802849 292.643522 
L 171.513252 293.086591 
L 171.868454 292.992861 
L 172.223656 293.961568 
L 172.578858 293.89274 
L 172.93406 292.816017 
L 173.289262 292.697768 
L 173.644464 292.739859 
L 173.999666 292.942736 
L 174.354868 292.106685 
L 174.71007 292.807954 
L 175.065272 292.812221 
L 175.420473 292.414321 
L 175.775675 292.933979 
L 176.130877 292.22156 
L 176.486079 292.328212 
L 176.841281 292.725243 
L 177.551685 292.679337 
L 177.906887 292.944139 
L 178.262089 292.501842 
L 178.617291 292.763907 
L 178.972493 292.208099 
L 179.327694 292.63677 
L 179.682896 292.384055 
L 180.038098 292.742679 
L 180.3933 292.564612 
L 180.748502 292.873612 
L 181.458906 291.964791 
L 181.814108 292.700637 
L 182.16931 292.581194 
L 182.524512 292.191017 
L 182.879714 292.432063 
L 183.234915 292.81557 
L 183.590117 292.420204 
L 184.300521 292.080642 
L 184.655723 291.594138 
L 185.010925 291.829471 
L 185.366127 291.678703 
L 185.721329 291.26061 
L 186.076531 291.375432 
L 186.431733 288.797499 
L 186.786935 292.157363 
L 187.142136 292.432078 
L 187.497338 291.515777 
L 187.85254 291.512311 
L 188.562944 290.956741 
L 188.918146 290.99688 
L 189.273348 290.737311 
L 189.62855 290.854531 
L 190.338954 290.309422 
L 190.694156 292.064997 
L 191.049357 292.731607 
L 191.404559 289.887683 
L 191.759761 290.202629 
L 192.470165 289.832155 
L 192.825367 289.997048 
L 193.180569 289.952312 
L 193.535771 290.508401 
L 193.890973 288.376444 
L 194.246175 289.909643 
L 194.601377 289.902483 
L 194.956578 289.27944 
L 195.31178 289.603002 
L 195.666982 290.098991 
L 196.022184 289.786356 
L 196.377386 289.860635 
L 196.732588 288.733855 
L 197.08779 289.254431 
L 197.442992 288.883816 
L 197.798194 288.309223 
L 198.153396 289.637006 
L 198.508598 288.628062 
L 198.863799 289.596886 
L 199.219001 288.612189 
L 199.574203 289.034297 
L 199.929405 288.479669 
L 200.284607 289.828291 
L 200.639809 289.536233 
L 200.995011 288.634305 
L 201.705415 289.450541 
L 202.060617 289.165987 
L 202.415819 288.094939 
L 202.77102 288.778305 
L 203.126222 287.202195 
L 203.481424 287.69615 
L 203.836626 286.89686 
L 204.54703 286.167587 
L 205.257434 286.305767 
L 205.612636 286.36044 
L 205.967838 285.342041 
L 206.32304 286.427409 
L 206.678241 286.143408 
L 207.033443 285.110747 
L 207.388645 285.347934 
L 207.743847 285.115504 
L 208.099049 285.218166 
L 208.809453 286.404279 
L 209.164655 288.133486 
L 209.519857 289.174812 
L 209.875059 285.125382 
L 210.230261 284.741278 
L 210.585463 284.788442 
L 210.940664 285.223326 
L 211.295866 285.148595 
L 211.651068 284.933345 
L 212.361472 285.73014 
L 212.716674 284.739647 
L 213.071876 284.976766 
L 213.427078 284.32067 
L 213.78228 285.423256 
L 214.137482 285.521229 
L 214.492684 284.529426 
L 215.203087 283.578349 
L 215.558289 282.983742 
L 215.913491 284.908574 
L 216.268693 283.948827 
L 216.623895 283.646206 
L 216.979097 284.568856 
L 217.334299 283.662992 
L 217.689501 284.370858 
L 218.044703 284.285584 
L 218.399905 283.859811 
L 218.755106 284.829144 
L 219.110308 285.315609 
L 219.46551 284.874963 
L 219.820712 284.097231 
L 220.175914 284.437841 
L 220.531116 285.252873 
L 220.886318 284.770263 
L 221.596722 282.866906 
L 221.951924 282.988164 
L 222.307126 281.191721 
L 223.017529 281.162329 
L 223.372731 280.064378 
L 223.727933 281.314707 
L 224.083135 281.130145 
L 224.438337 279.999705 
L 224.793539 279.400991 
L 225.148741 280.835154 
L 225.503943 279.572112 
L 226.214347 279.347556 
L 226.92475 279.859914 
L 227.279952 278.193738 
L 227.635154 280.652039 
L 227.990356 284.520994 
L 228.70076 278.236926 
L 229.055962 278.483559 
L 229.411164 277.97025 
L 229.766366 278.667748 
L 230.121568 279.109675 
L 230.476769 278.941656 
L 230.831971 278.911473 
L 231.187173 279.406642 
L 231.542375 278.591959 
L 231.897577 278.501777 
L 232.252779 278.037428 
L 232.607981 278.949661 
L 232.963183 279.088307 
L 233.318385 278.777147 
L 233.673587 278.82884 
L 234.028789 275.787601 
L 234.38399 279.716544 
L 234.739192 277.200071 
L 235.094394 277.245181 
L 235.449596 277.972464 
L 235.804798 279.901335 
L 236.16 279.121388 
L 236.515202 277.860749 
L 236.870404 277.39023 
L 237.225606 280.029345 
L 237.580808 279.539147 
L 237.93601 279.54753 
L 238.291211 278.724304 
L 238.646413 279.576306 
L 239.001615 280.095663 
L 239.712019 280.655087 
L 240.422423 277.281699 
L 240.777625 277.569214 
L 241.132827 276.981374 
L 241.488029 277.820449 
L 241.843231 276.397271 
L 242.198432 276.721324 
L 242.553634 277.473227 
L 242.908836 276.257557 
L 243.264038 276.7426 
L 243.61924 278.009011 
L 243.974442 276.198054 
L 244.329644 275.220401 
L 244.684846 276.479633 
L 245.040048 276.599833 
L 245.39525 290.475091 
L 245.750452 280.968126 
L 246.105653 278.263921 
L 246.460855 283.033201 
L 246.816057 281.805929 
L 247.171259 276.187855 
L 247.526461 277.256011 
L 247.881663 275.911694 
L 248.236865 275.972702 
L 248.592067 275.840022 
L 248.947269 278.336496 
L 249.302471 276.901207 
L 249.657673 276.109183 
L 250.012874 275.650149 
L 250.368076 276.969991 
L 250.723278 277.118243 
L 251.07848 277.784043 
L 251.433682 277.570821 
L 251.788884 273.539978 
L 252.144086 275.435472 
L 252.499288 274.389189 
L 252.85449 277.387089 
L 253.209692 275.521299 
L 253.564894 275.052838 
L 254.275297 276.23098 
L 254.630499 275.23559 
L 255.340903 277.537186 
L 256.051307 279.03528 
L 256.761711 277.487139 
L 257.472115 279.338285 
L 257.827316 278.658403 
L 258.182518 278.313754 
L 258.53772 278.409838 
L 258.892922 274.46657 
L 259.248124 274.021298 
L 260.31373 273.922505 
L 260.668932 274.399189 
L 261.024134 273.201829 
L 261.379336 273.676455 
L 261.734537 271.056062 
L 262.089739 273.880079 
L 262.444941 272.736426 
L 262.800143 270.764324 
L 263.155345 272.974283 
L 263.510547 271.125317 
L 263.865749 272.343701 
L 264.220951 272.382593 
L 264.576153 273.57137 
L 264.931355 284.301384 
L 265.641759 273.357416 
L 266.707364 272.133217 
L 267.062566 274.324483 
L 267.417768 273.250405 
L 267.77297 273.938165 
L 268.128172 271.462729 
L 268.483374 273.044237 
L 269.193778 271.760074 
L 269.54898 272.743416 
L 270.259383 271.670261 
L 270.614585 273.957669 
L 270.969787 271.0726 
L 271.324989 273.009194 
L 271.680191 271.402624 
L 272.035393 271.012544 
L 272.390595 271.103162 
L 273.100999 274.108353 
L 273.456201 272.288139 
L 273.811402 273.580768 
L 274.166604 273.896302 
L 274.521806 273.695867 
L 274.877008 274.468235 
L 275.23221 272.815943 
L 275.587412 274.3442 
L 275.942614 273.853561 
L 276.297816 274.045103 
L 276.653018 276.19302 
L 277.363422 271.414279 
L 277.718623 271.412187 
L 278.073825 271.551498 
L 278.429027 270.387564 
L 278.784229 271.073018 
L 279.139431 271.447462 
L 279.494633 269.185985 
L 279.849835 270.529812 
L 280.205037 270.186085 
L 280.915441 271.663028 
L 281.270643 268.468503 
L 281.981046 270.354793 
L 282.336248 270.320381 
L 282.69145 270.044992 
L 283.046652 271.668538 
L 283.401854 281.712835 
L 283.757056 281.498575 
L 284.112258 271.243571 
L 284.46746 269.919583 
L 284.822662 269.652883 
L 285.177864 269.952913 
L 285.533065 270.475012 
L 285.888267 271.785714 
L 286.243469 271.261915 
L 286.598671 271.833989 
L 286.953873 271.074324 
L 287.309075 270.613814 
L 287.664277 279.381468 
L 288.019479 283.696481 
L 288.374681 284.88806 
L 289.085085 282.808354 
L 289.795488 283.875796 
L 290.15069 283.865951 
L 290.505892 281.308261 
L 290.861094 281.342231 
L 291.216296 282.632301 
L 291.571498 278.385844 
L 291.9267 279.560044 
L 292.281902 279.17879 
L 292.637104 278.332588 
L 292.992306 281.732708 
L 293.347507 280.468137 
L 293.702709 280.948097 
L 294.057911 279.77181 
L 294.413113 279.202551 
L 294.768315 280.063218 
L 295.123517 279.471882 
L 295.478719 280.0465 
L 295.833921 279.54023 
L 296.189123 277.297704 
L 296.544325 277.38006 
L 296.899527 274.652229 
L 297.254728 276.541422 
L 297.60993 276.55546 
L 297.965132 275.01383 
L 298.320334 276.721237 
L 298.675536 277.755922 
L 299.030738 277.775373 
L 299.38594 277.326043 
L 299.741142 278.972189 
L 300.451546 276.380335 
L 300.806748 275.344945 
L 301.517151 278.686349 
L 302.227555 286.123836 
L 302.937959 277.386293 
L 303.293161 278.249654 
L 304.358767 277.511245 
L 304.713969 278.931943 
L 305.06917 278.541091 
L 305.424372 274.78707 
L 305.779574 274.657443 
L 306.134776 273.302345 
L 306.489978 277.583447 
L 306.84518 275.55522 
L 307.200382 276.25129 
L 307.555584 277.272491 
L 307.910786 275.366017 
L 308.265988 272.084719 
L 308.62119 278.14623 
L 308.976391 276.124304 
L 309.331593 278.370058 
L 309.686795 279.89682 
L 310.041997 273.985246 
L 310.397199 273.104497 
L 310.752401 274.720319 
L 311.107603 278.069441 
L 311.462805 279.722384 
L 311.818007 277.934111 
L 312.173209 278.199083 
L 312.528411 279.579418 
L 312.883612 277.877035 
L 313.594016 277.959508 
L 313.949218 279.857593 
L 314.30442 275.491028 
L 314.659622 273.825474 
L 315.014824 275.739549 
L 315.370026 273.281729 
L 315.725228 274.896178 
L 316.08043 272.817055 
L 316.790833 274.506151 
L 317.146035 274.436591 
L 317.501237 275.229604 
L 317.856439 272.941332 
L 318.211641 272.53435 
L 318.566843 273.680192 
L 318.922045 273.146568 
L 319.277247 271.476607 
L 319.632449 272.694461 
L 319.987651 272.678486 
L 320.342853 276.203272 
L 320.698055 284.761904 
L 321.053256 280.112328 
L 321.408458 278.79519 
L 321.76366 274.601464 
L 322.118862 272.840243 
L 322.474064 276.94106 
L 322.829266 272.682705 
L 323.184468 271.84311 
L 323.53967 274.924925 
L 323.894872 273.944339 
L 324.250074 273.920321 
L 324.605276 272.381573 
L 324.960477 269.349631 
L 325.315679 274.673928 
L 325.670881 274.727834 
L 326.026083 263.88661 
L 326.381285 274.102271 
L 326.736487 273.162874 
L 327.091689 277.895063 
L 327.802093 273.30519 
L 328.157295 276.209457 
L 328.512497 276.173162 
L 328.867698 274.134474 
L 329.2229 274.246568 
L 329.578102 278.496588 
L 329.933304 272.570834 
L 330.288506 274.891333 
L 330.643708 278.670141 
L 330.99891 280.42576 
L 331.354112 278.07283 
L 331.709314 279.51358 
L 332.419718 279.163475 
L 332.774919 277.977677 
L 333.130121 276.353166 
L 333.485323 273.727336 
L 333.840525 272.569669 
L 334.195727 273.060319 
L 334.550929 272.376889 
L 334.906131 270.555757 
L 335.261333 274.356894 
L 335.616535 274.676695 
L 335.971737 271.685226 
L 336.326939 271.203853 
L 336.68214 274.707252 
L 337.037342 271.026446 
L 337.392544 275.891802 
L 337.747746 271.271356 
L 338.102948 270.974103 
L 338.45815 272.866296 
L 338.813352 276.790899 
L 339.168554 282.170175 
L 339.878958 273.398381 
L 340.23416 272.177798 
L 340.589361 272.023973 
L 340.944563 275.26189 
L 341.654967 272.583271 
L 342.010169 275.124957 
L 342.365371 275.307427 
L 342.720573 271.02101 
L 343.075775 274.730931 
L 343.430977 276.581561 
L 343.786179 271.779947 
L 344.141381 276.79439 
L 344.851784 271.340315 
L 345.562188 276.510044 
L 345.91739 272.050035 
L 346.272592 270.868874 
L 346.627794 275.518284 
L 346.982996 275.031581 
L 347.338198 272.894441 
L 347.6934 277.108215 
L 348.048602 277.999434 
L 348.403803 276.703038 
L 348.759005 277.80561 
L 349.114207 277.593456 
L 349.469409 278.215806 
L 349.824611 276.798506 
L 350.179813 278.511228 
L 350.535015 276.363054 
L 350.890217 279.084608 
L 351.600621 270.517317 
L 351.955823 270.540107 
L 352.311024 273.469757 
L 352.666226 272.71517 
L 353.021428 269.525518 
L 353.37663 272.293877 
L 353.731832 271.455544 
L 354.087034 273.350086 
L 354.442236 270.163542 
L 355.15264 273.040577 
L 355.507842 270.956852 
L 355.863044 274.458648 
L 356.218245 270.822866 
L 356.573447 272.533748 
L 356.928649 271.2361 
L 357.283851 275.414899 
L 357.639053 284.041747 
L 357.994255 281.981822 
L 358.349457 275.109079 
L 358.704659 274.344055 
L 359.059861 272.064229 
L 359.415063 271.627287 
L 359.770265 274.405572 
L 360.125466 273.13187 
L 360.480668 274.450634 
L 360.83587 272.176424 
L 361.191072 295.488 
L 361.901476 295.488 
L 362.256678 273.510115 
L 362.967082 275.710419 
L 363.322284 270.910426 
L 363.677486 270.014008 
L 364.032687 273.824571 
L 364.743091 271.121914 
L 365.098293 271.138914 
L 365.453495 269.20981 
L 365.808697 275.190931 
L 366.163899 273.106492 
L 366.519101 277.418923 
L 366.874303 275.396012 
L 367.229505 279.573772 
L 367.584707 276.125401 
L 368.29511 278.549557 
L 368.650312 278.415207 
L 369.005514 277.311087 
L 369.360716 278.470118 
L 369.715918 274.064059 
L 370.07112 272.082146 
L 370.426322 272.279188 
L 371.136726 272.084937 
L 371.491928 276.374015 
L 371.84713 272.59811 
L 372.202331 272.736237 
L 372.557533 271.088833 
L 372.912735 272.900222 
L 373.267937 271.355635 
L 373.623139 273.762466 
L 373.978341 271.976237 
L 374.333543 268.851375 
L 374.688745 275.3949 
L 375.043947 270.196123 
L 375.399149 271.600894 
L 376.464754 287.253198 
L 376.819956 276.38781 
L 377.175158 272.476114 
L 377.885562 274.434387 
L 378.240764 272.037172 
L 378.951168 273.261007 
L 379.30637 270.350924 
L 379.661572 273.907287 
L 380.371975 270.336366 
L 381.082379 277.233526 
L 381.437581 273.611408 
L 381.792783 272.203598 
L 382.147985 277.13868 
L 382.503187 273.537066 
L 383.213591 272.007609 
L 383.568793 273.444821 
L 383.923994 276.29625 
L 384.279196 274.109732 
L 384.634398 275.288743 
L 384.9896 271.692352 
L 385.344802 278.972961 
L 385.700004 277.574277 
L 386.055206 275.304214 
L 386.410408 279.906621 
L 386.76561 277.012688 
L 387.120812 276.866727 
L 387.476014 280.211412 
L 387.831215 279.710035 
L 388.186417 277.475868 
L 388.896821 271.068406 
L 389.252023 270.537923 
L 389.607225 272.240723 
L 389.962427 272.852039 
L 390.317629 272.559796 
L 390.672831 273.745841 
L 391.028033 274.032477 
L 391.383235 269.665315 
L 391.738436 272.695947 
L 392.093638 270.840875 
L 392.44884 271.786286 
L 392.804042 271.437254 
L 393.159244 276.726882 
L 393.514446 270.406859 
L 393.869648 273.645514 
L 394.22485 275.178727 
L 394.580052 282.193043 
L 394.935254 286.914141 
L 395.290456 274.597673 
L 395.645657 271.167306 
L 396.000859 277.95411 
L 396.356061 275.031693 
L 396.711263 274.60292 
L 397.066465 272.256053 
L 397.421667 279.312921 
L 397.776869 269.247673 
L 398.132071 269.560711 
L 398.487273 273.935184 
L 398.487273 273.935184 
" clip-path="url(#p4281ece011)" style="fill: none; stroke: #2ca02c; stroke-width: 1.5; stroke-linecap: square"/>
   </g>
   <g id="patch_3">
    <path d="M 57.6 307.584 
L 57.6 41.472 
" style="fill: none; stroke: #000000; stroke-width: 0.8; stroke-linejoin: miter; stroke-linecap: square"/>
   </g>
   <g id="patch_4">
    <path d="M 414.72 307.584 
L 414.72 41.472 
" style="fill: none; stroke: #000000; stroke-width: 0.8; stroke-linejoin: miter; stroke-linecap: square"/>
   </g>
   <g id="patch_5">
    <path d="M 57.6 307.584 
L 414.72 307.584 
" style="fill: none; stroke: #000000; stroke-width: 0.8; stroke-linejoin: miter; stroke-linecap: square"/>
   </g>
   <g id="patch_6">
    <path d="M 57.6 41.472 
L 414.72 41.472 
" style="fill: none; stroke: #000000; stroke-width: 0.8; stroke-linejoin: miter; stroke-linecap: square"/>
   </g>
   <g id="legend_1">
    <g id="patch_7">
     <path d="M 64.6 93.506375 
L 186.25625 93.506375 
Q 188.25625 93.506375 188.25625 91.506375 
L 188.25625 48.472 
Q 188.25625 46.472 186.25625 46.472 
L 64.6 46.472 
Q 62.6 46.472 62.6 48.472 
L 62.6 91.506375 
Q 62.6 93.506375 64.6 93.506375 
z
" style="fill: #ffffff; opacity: 0.8; stroke: #cccccc; stroke-linejoin: miter"/>
    </g>
    <g id="line2d_20">
     <path d="M 66.6 54.570438 
L 76.6 54.570438 
L 86.6 54.570438 
" style="fill: none; stroke: #1f77b4; stroke-width: 1.5; stroke-linecap: square"/>
    </g>
    <g id="text_19">
     <!-- Weekly maximum -->
     <g transform="translate(94.6 58.070438) scale(0.1 -0.1)">
      <defs>
       <path id="DejaVuSans-57" d="M 213 4666 
L 850 4666 
L 1831 722 
L 2809 4666 
L 3519 4666 
L 4500 722 
L 5478 4666 
L 6119 4666 
L 4947 0 
L 4153 0 
L 3169 4050 
L 2175 0 
L 1381 0 
L 213 4666 
z
" transform="scale(0.015625)"/>
       <path id="DejaVuSans-6b" d="M 581 4863 
L 1159 4863 
L 1159 1991 
L 2875 3500 
L 3609 3500 
L 1753 1863 
L 3688 0 
L 2938 0 
L 1159 1709 
L 1159 0 
L 581 0 
L 581 4863 
z
" transform="scale(0.015625)"/>
       <path id="DejaVuSans-79" d="M 2059 -325 
Q 1816 -950 1584 -1140 
Q 1353 -1331 966 -1331 
L 506 -1331 
L 506 -850 
L 844 -850 
Q 1081 -850 1212 -737 
Q 1344 -625 1503 -206 
L 1606 56 
L 191 3500 
L 800 3500 
L 1894 763 
L 2988 3500 
L 3597 3500 
L 2059 -325 
z
" transform="scale(0.015625)"/>
       <path id="DejaVuSans-6d" d="M 3328 2828 
Q 3544 3216 3844 3400 
Q 4144 3584 4550 3584 
Q 5097 3584 5394 3201 
Q 5691 2819 5691 2113 
L 5691 0 
L 5113 0 
L 5113 2094 
Q 5113 2597 4934 2840 
Q 4756 3084 4391 3084 
Q 3944 3084 3684 2787 
Q 3425 2491 3425 1978 
L 3425 0 
L 2847 0 
L 2847 2094 
Q 2847 2600 2669 2842 
Q 2491 3084 2119 3084 
Q 1678 3084 1418 2786 
Q 1159 2488 1159 1978 
L 1159 0 
L 581 0 
L 581 3500 
L 1159 3500 
L 1159 2956 
Q 1356 3278 1631 3431 
Q 1906 3584 2284 3584 
Q 2666 3584 2933 3390 
Q 3200 3197 3328 2828 
z
" transform="scale(0.015625)"/>
       <path id="DejaVuSans-78" d="M 3513 3500 
L 2247 1797 
L 3578 0 
L 2900 0 
L 1881 1375 
L 863 0 
L 184 0 
L 1544 1831 
L 300 3500 
L 978 3500 
L 1906 2253 
L 2834 3500 
L 3513 3500 
z
" transform="scale(0.015625)"/>
       <path id="DejaVuSans-75" d="M 544 1381 
L 544 3500 
L 1119 3500 
L 1119 1403 
Q 1119 906 1312 657 
Q 1506 409 1894 409 
Q 2359 409 2629 706 
Q 2900 1003 2900 1516 
L 2900 3500 
L 3475 3500 
L 3475 0 
L 2900 0 
L 2900 538 
Q 2691 219 2414 64 
Q 2138 -91 1772 -91 
Q 1169 -91 856 284 
Q 544 659 544 1381 
z
M 1991 3584 
L 1991 3584 
z
" transform="scale(0.015625)"/>
      </defs>
      <use xlink:href="#DejaVuSans-57"/>
      <use xlink:href="#DejaVuSans-65" transform="translate(93.001953 0)"/>
      <use xlink:href="#DejaVuSans-65" transform="translate(154.525391 0)"/>
      <use xlink:href="#DejaVuSans-6b" transform="translate(216.048828 0)"/>
      <use xlink:href="#DejaVuSans-6c" transform="translate(273.958984 0)"/>
      <use xlink:href="#DejaVuSans-79" transform="translate(301.742188 0)"/>
      <use xlink:href="#DejaVuSans-20" transform="translate(360.921875 0)"/>
      <use xlink:href="#DejaVuSans-6d" transform="translate(392.708984 0)"/>
      <use xlink:href="#DejaVuSans-61" transform="translate(490.121094 0)"/>
      <use xlink:href="#DejaVuSans-78" transform="translate(551.400391 0)"/>
      <use xlink:href="#DejaVuSans-69" transform="translate(610.580078 0)"/>
      <use xlink:href="#DejaVuSans-6d" transform="translate(638.363281 0)"/>
      <use xlink:href="#DejaVuSans-75" transform="translate(735.775391 0)"/>
      <use xlink:href="#DejaVuSans-6d" transform="translate(799.154297 0)"/>
     </g>
    </g>
    <g id="line2d_21">
     <path d="M 66.6 69.248563 
L 76.6 69.248563 
L 86.6 69.248563 
" style="fill: none; stroke: #ff7f0e; stroke-width: 1.5; stroke-linecap: square"/>
    </g>
    <g id="text_20">
     <!-- Weekly minimum -->
     <g transform="translate(94.6 72.748563) scale(0.1 -0.1)">
      <defs>
       <path id="DejaVuSans-6e" d="M 3513 2113 
L 3513 0 
L 2938 0 
L 2938 2094 
Q 2938 2591 2744 2837 
Q 2550 3084 2163 3084 
Q 1697 3084 1428 2787 
Q 1159 2491 1159 1978 
L 1159 0 
L 581 0 
L 581 3500 
L 1159 3500 
L 1159 2956 
Q 1366 3272 1645 3428 
Q 1925 3584 2291 3584 
Q 2894 3584 3203 3211 
Q 3513 2838 3513 2113 
z
" transform="scale(0.015625)"/>
      </defs>
      <use xlink:href="#DejaVuSans-57"/>
      <use xlink:href="#DejaVuSans-65" transform="translate(93.001953 0)"/>
      <use xlink:href="#DejaVuSans-65" transform="translate(154.525391 0)"/>
      <use xlink:href="#DejaVuSans-6b" transform="translate(216.048828 0)"/>
      <use xlink:href="#DejaVuSans-6c" transform="translate(273.958984 0)"/>
      <use xlink:href="#DejaVuSans-79" transform="translate(301.742188 0)"/>
      <use xlink:href="#DejaVuSans-20" transform="translate(360.921875 0)"/>
      <use xlink:href="#DejaVuSans-6d" transform="translate(392.708984 0)"/>
      <use xlink:href="#DejaVuSans-69" transform="translate(490.121094 0)"/>
      <use xlink:href="#DejaVuSans-6e" transform="translate(517.904297 0)"/>
      <use xlink:href="#DejaVuSans-69" transform="translate(581.283203 0)"/>
      <use xlink:href="#DejaVuSans-6d" transform="translate(609.066406 0)"/>
      <use xlink:href="#DejaVuSans-75" transform="translate(706.478516 0)"/>
      <use xlink:href="#DejaVuSans-6d" transform="translate(769.857422 0)"/>
     </g>
    </g>
    <g id="line2d_22">
     <path d="M 66.6 83.926688 
L 76.6 83.926688 
L 86.6 83.926688 
" style="fill: none; stroke: #2ca02c; stroke-width: 1.5; stroke-linecap: square"/>
    </g>
    <g id="text_21">
     <!-- Weekly range -->
     <g transform="translate(94.6 87.426688) scale(0.1 -0.1)">
      <use xlink:href="#DejaVuSans-57"/>
      <use xlink:href="#DejaVuSans-65" transform="translate(93.001953 0)"/>
      <use xlink:href="#DejaVuSans-65" transform="translate(154.525391 0)"/>
      <use xlink:href="#DejaVuSans-6b" transform="translate(216.048828 0)"/>
      <use xlink:href="#DejaVuSans-6c" transform="translate(273.958984 0)"/>
      <use xlink:href="#DejaVuSans-79" transform="translate(301.742188 0)"/>
      <use xlink:href="#DejaVuSans-20" transform="translate(360.921875 0)"/>
      <use xlink:href="#DejaVuSans-72" transform="translate(392.708984 0)"/>
      <use xlink:href="#DejaVuSans-61" transform="translate(433.822266 0)"/>
      <use xlink:href="#DejaVuSans-6e" transform="translate(495.101562 0)"/>
      <use xlink:href="#DejaVuSans-67" transform="translate(558.480469 0)"/>
      <use xlink:href="#DejaVuSans-65" transform="translate(621.957031 0)"/>
     </g>
    </g>
   </g>
  </g>
 </g>
 <defs>
  <clipPath id="p4281ece011">
   <rect x="57.6" y="41.472" width="357.12" height="266.112"/>
  </clipPath>
 </defs>
</svg>
