<?xml version="1.0" encoding="utf-8" standalone="no"?>
<!DOCTYPE svg PUBLIC "-//W3C//DTD SVG 1.1//EN"
  "http://www.w3.org/Graphics/SVG/1.1/DTD/svg11.dtd">
<svg xmlns:xlink="http://www.w3.org/1999/xlink" width="460.8pt" height="345.6pt" viewBox="0 0 460.8 345.6" xmlns="http://www.w3.org/2000/svg" version="1.1">
 <metadata>
  <rdf:RDF xmlns:dc="http://purl.org/dc/elements/1.1/" xmlns:cc="http://creativecommons.org/ns#" xmlns:rdf="http://www.w3.org/1999/02/22-rdf-syntax-ns#">
   <cc:Work>
    <dc:type rdf:resource="http://purl.org/dc/dcmitype/StillImage"/>
    <dc:date>2024-04-29T05:34:30.723579</dc:date>
    <dc:format>image/svg+xml</dc:format>
    <dc:creator>
     <cc:Agent>
      <dc:title>Matplotlib v3.8.4, https://matplotlib.org/</dc:title>
     </cc:Agent>
    </dc:creator>
   </cc:Work>
  </rdf:RDF>
 </metadata>
 <defs>
  <style type="text/css">*{stroke-linejoin: round; stroke-linecap: butt}</style>
 </defs>
 <g id="figure_1">
  <g id="patch_1">
   <path d="M 0 345.6 
L 460.8 345.6 
L 460.8 0 
L 0 0 
z
" style="fill: #ffffff"/>
  </g>
  <g id="axes_1">
   <g id="patch_2">
    <path d="M 57.6 307.584 
L 414.72 307.584 
L 414.72 41.472 
L 57.6 41.472 
z
" style="fill: #ffffff"/>
   </g>
   <g id="matplotlib.axis_1">
    <g id="xtick_1">
     <g id="line2d_1">
      <defs>
       <path id="m605415bf4b" d="M 0 0 
L 0 3.5 
" style="stroke: #000000; stroke-width: 0.8"/>
      </defs>
      <g>
       <use xlink:href="#m605415bf4b" x="59.964431" y="307.584" style="stroke: #000000; stroke-width: 0.8"/>
      </g>
     </g>
     <g id="text_1">
      <!-- 2008 -->
      <g transform="translate(47.239431 322.182437) scale(0.1 -0.1)">
       <defs>
        <path id="DejaVuSans-32" d="M 1228 531 
L 3431 531 
L 3431 0 
L 469 0 
L 469 531 
Q 828 903 1448 1529 
Q 2069 2156 2228 2338 
Q 2531 2678 2651 2914 
Q 2772 3150 2772 3378 
Q 2772 3750 2511 3984 
Q 2250 4219 1831 4219 
Q 1534 4219 1204 4116 
Q 875 4013 500 3803 
L 500 4441 
Q 881 4594 1212 4672 
Q 1544 4750 1819 4750 
Q 2544 4750 2975 4387 
Q 3406 4025 3406 3419 
Q 3406 3131 3298 2873 
Q 3191 2616 2906 2266 
Q 2828 2175 2409 1742 
Q 1991 1309 1228 531 
z
" transform="scale(0.015625)"/>
        <path id="DejaVuSans-30" d="M 2034 4250 
Q 1547 4250 1301 3770 
Q 1056 3291 1056 2328 
Q 1056 1369 1301 889 
Q 1547 409 2034 409 
Q 2525 409 2770 889 
Q 3016 1369 3016 2328 
Q 3016 3291 2770 3770 
Q 2525 4250 2034 4250 
z
M 2034 4750 
Q 2819 4750 3233 4129 
Q 3647 3509 3647 2328 
Q 3647 1150 3233 529 
Q 2819 -91 2034 -91 
Q 1250 -91 836 529 
Q 422 1150 422 2328 
Q 422 3509 836 4129 
Q 1250 4750 2034 4750 
z
" transform="scale(0.015625)"/>
        <path id="DejaVuSans-38" d="M 2034 2216 
Q 1584 2216 1326 1975 
Q 1069 1734 1069 1313 
Q 1069 891 1326 650 
Q 1584 409 2034 409 
Q 2484 409 2743 651 
Q 3003 894 3003 1313 
Q 3003 1734 2745 1975 
Q 2488 2216 2034 2216 
z
M 1403 2484 
Q 997 2584 770 2862 
Q 544 3141 544 3541 
Q 544 4100 942 4425 
Q 1341 4750 2034 4750 
Q 2731 4750 3128 4425 
Q 3525 4100 3525 3541 
Q 3525 3141 3298 2862 
Q 3072 2584 2669 2484 
Q 3125 2378 3379 2068 
Q 3634 1759 3634 1313 
Q 3634 634 3220 271 
Q 2806 -91 2034 -91 
Q 1263 -91 848 271 
Q 434 634 434 1313 
Q 434 1759 690 2068 
Q 947 2378 1403 2484 
z
M 1172 3481 
Q 1172 3119 1398 2916 
Q 1625 2713 2034 2713 
Q 2441 2713 2670 2916 
Q 2900 3119 2900 3481 
Q 2900 3844 2670 4047 
Q 2441 4250 2034 4250 
Q 1625 4250 1398 4047 
Q 1172 3844 1172 3481 
z
" transform="scale(0.015625)"/>
       </defs>
       <use xlink:href="#DejaVuSans-32"/>
       <use xlink:href="#DejaVuSans-30" x="63.623047"/>
       <use xlink:href="#DejaVuSans-30" x="127.246094"/>
       <use xlink:href="#DejaVuSans-38" x="190.869141"/>
      </g>
     </g>
    </g>
    <g id="xtick_2">
     <g id="line2d_2">
      <g>
       <use xlink:href="#m605415bf4b" x="101.512483" y="307.584" style="stroke: #000000; stroke-width: 0.8"/>
      </g>
     </g>
     <g id="text_2">
      <!-- 2010 -->
      <g transform="translate(88.787483 322.182437) scale(0.1 -0.1)">
       <defs>
        <path id="DejaVuSans-31" d="M 794 531 
L 1825 531 
L 1825 4091 
L 703 3866 
L 703 4441 
L 1819 4666 
L 2450 4666 
L 2450 531 
L 3481 531 
L 3481 0 
L 794 0 
L 794 531 
z
" transform="scale(0.015625)"/>
       </defs>
       <use xlink:href="#DejaVuSans-32"/>
       <use xlink:href="#DejaVuSans-30" x="63.623047"/>
       <use xlink:href="#DejaVuSans-31" x="127.246094"/>
       <use xlink:href="#DejaVuSans-30" x="190.869141"/>
      </g>
     </g>
    </g>
    <g id="xtick_3">
     <g id="line2d_3">
      <g>
       <use xlink:href="#m605415bf4b" x="143.003697" y="307.584" style="stroke: #000000; stroke-width: 0.8"/>
      </g>
     </g>
     <g id="text_3">
      <!-- 2012 -->
      <g transform="translate(130.278697 322.182437) scale(0.1 -0.1)">
       <use xlink:href="#DejaVuSans-32"/>
       <use xlink:href="#DejaVuSans-30" x="63.623047"/>
       <use xlink:href="#DejaVuSans-31" x="127.246094"/>
       <use xlink:href="#DejaVuSans-32" x="190.869141"/>
      </g>
     </g>
    </g>
    <g id="xtick_4">
     <g id="line2d_4">
      <g>
       <use xlink:href="#m605415bf4b" x="184.551749" y="307.584" style="stroke: #000000; stroke-width: 0.8"/>
      </g>
     </g>
     <g id="text_4">
      <!-- 2014 -->
      <g transform="translate(171.826749 322.182437) scale(0.1 -0.1)">
       <defs>
        <path id="DejaVuSans-34" d="M 2419 4116 
L 825 1625 
L 2419 1625 
L 2419 4116 
z
M 2253 4666 
L 3047 4666 
L 3047 1625 
L 3713 1625 
L 3713 1100 
L 3047 1100 
L 3047 0 
L 2419 0 
L 2419 1100 
L 313 1100 
L 313 1709 
L 2253 4666 
z
" transform="scale(0.015625)"/>
       </defs>
       <use xlink:href="#DejaVuSans-32"/>
       <use xlink:href="#DejaVuSans-30" x="63.623047"/>
       <use xlink:href="#DejaVuSans-31" x="127.246094"/>
       <use xlink:href="#DejaVuSans-34" x="190.869141"/>
      </g>
     </g>
    </g>
    <g id="xtick_5">
     <g id="line2d_5">
      <g>
       <use xlink:href="#m605415bf4b" x="226.042964" y="307.584" style="stroke: #000000; stroke-width: 0.8"/>
      </g>
     </g>
     <g id="text_5">
      <!-- 2016 -->
      <g transform="translate(213.317964 322.182437) scale(0.1 -0.1)">
       <defs>
        <path id="DejaVuSans-36" d="M 2113 2584 
Q 1688 2584 1439 2293 
Q 1191 2003 1191 1497 
Q 1191 994 1439 701 
Q 1688 409 2113 409 
Q 2538 409 2786 701 
Q 3034 994 3034 1497 
Q 3034 2003 2786 2293 
Q 2538 2584 2113 2584 
z
M 3366 4563 
L 3366 3988 
Q 3128 4100 2886 4159 
Q 2644 4219 2406 4219 
Q 1781 4219 1451 3797 
Q 1122 3375 1075 2522 
Q 1259 2794 1537 2939 
Q 1816 3084 2150 3084 
Q 2853 3084 3261 2657 
Q 3669 2231 3669 1497 
Q 3669 778 3244 343 
Q 2819 -91 2113 -91 
Q 1303 -91 875 529 
Q 447 1150 447 2328 
Q 447 3434 972 4092 
Q 1497 4750 2381 4750 
Q 2619 4750 2861 4703 
Q 3103 4656 3366 4563 
z
" transform="scale(0.015625)"/>
       </defs>
       <use xlink:href="#DejaVuSans-32"/>
       <use xlink:href="#DejaVuSans-30" x="63.623047"/>
       <use xlink:href="#DejaVuSans-31" x="127.246094"/>
       <use xlink:href="#DejaVuSans-36" x="190.869141"/>
      </g>
     </g>
    </g>
    <g id="xtick_6">
     <g id="line2d_6">
      <g>
       <use xlink:href="#m605415bf4b" x="267.591016" y="307.584" style="stroke: #000000; stroke-width: 0.8"/>
      </g>
     </g>
     <g id="text_6">
      <!-- 2018 -->
      <g transform="translate(254.866016 322.182437) scale(0.1 -0.1)">
       <use xlink:href="#DejaVuSans-32"/>
       <use xlink:href="#DejaVuSans-30" x="63.623047"/>
       <use xlink:href="#DejaVuSans-31" x="127.246094"/>
       <use xlink:href="#DejaVuSans-38" x="190.869141"/>
      </g>
     </g>
    </g>
    <g id="xtick_7">
     <g id="line2d_7">
      <g>
       <use xlink:href="#m605415bf4b" x="309.082231" y="307.584" style="stroke: #000000; stroke-width: 0.8"/>
      </g>
     </g>
     <g id="text_7">
      <!-- 2020 -->
      <g transform="translate(296.357231 322.182437) scale(0.1 -0.1)">
       <use xlink:href="#DejaVuSans-32"/>
       <use xlink:href="#DejaVuSans-30" x="63.623047"/>
       <use xlink:href="#DejaVuSans-32" x="127.246094"/>
       <use xlink:href="#DejaVuSans-30" x="190.869141"/>
      </g>
     </g>
    </g>
    <g id="xtick_8">
     <g id="line2d_8">
      <g>
       <use xlink:href="#m605415bf4b" x="350.630283" y="307.584" style="stroke: #000000; stroke-width: 0.8"/>
      </g>
     </g>
     <g id="text_8">
      <!-- 2022 -->
      <g transform="translate(337.905283 322.182437) scale(0.1 -0.1)">
       <use xlink:href="#DejaVuSans-32"/>
       <use xlink:href="#DejaVuSans-30" x="63.623047"/>
       <use xlink:href="#DejaVuSans-32" x="127.246094"/>
       <use xlink:href="#DejaVuSans-32" x="190.869141"/>
      </g>
     </g>
    </g>
    <g id="xtick_9">
     <g id="line2d_9">
      <g>
       <use xlink:href="#m605415bf4b" x="392.121497" y="307.584" style="stroke: #000000; stroke-width: 0.8"/>
      </g>
     </g>
     <g id="text_9">
      <!-- 2024 -->
      <g transform="translate(379.396497 322.182437) scale(0.1 -0.1)">
       <use xlink:href="#DejaVuSans-32"/>
       <use xlink:href="#DejaVuSans-30" x="63.623047"/>
       <use xlink:href="#DejaVuSans-32" x="127.246094"/>
       <use xlink:href="#DejaVuSans-34" x="190.869141"/>
      </g>
     </g>
    </g>
    <g id="text_10">
     <!-- Updated 2024-04-29 05:34:30.722172 - Last record 2024-04-27 -->
     <g transform="translate(75.905312 335.860562) scale(0.1 -0.1)">
      <defs>
       <path id="DejaVuSans-55" d="M 556 4666 
L 1191 4666 
L 1191 1831 
Q 1191 1081 1462 751 
Q 1734 422 2344 422 
Q 2950 422 3222 751 
Q 3494 1081 3494 1831 
L 3494 4666 
L 4128 4666 
L 4128 1753 
Q 4128 841 3676 375 
Q 3225 -91 2344 -91 
Q 1459 -91 1007 375 
Q 556 841 556 1753 
L 556 4666 
z
" transform="scale(0.015625)"/>
       <path id="DejaVuSans-70" d="M 1159 525 
L 1159 -1331 
L 581 -1331 
L 581 3500 
L 1159 3500 
L 1159 2969 
Q 1341 3281 1617 3432 
Q 1894 3584 2278 3584 
Q 2916 3584 3314 3078 
Q 3713 2572 3713 1747 
Q 3713 922 3314 415 
Q 2916 -91 2278 -91 
Q 1894 -91 1617 61 
Q 1341 213 1159 525 
z
M 3116 1747 
Q 3116 2381 2855 2742 
Q 2594 3103 2138 3103 
Q 1681 3103 1420 2742 
Q 1159 2381 1159 1747 
Q 1159 1113 1420 752 
Q 1681 391 2138 391 
Q 2594 391 2855 752 
Q 3116 1113 3116 1747 
z
" transform="scale(0.015625)"/>
       <path id="DejaVuSans-64" d="M 2906 2969 
L 2906 4863 
L 3481 4863 
L 3481 0 
L 2906 0 
L 2906 525 
Q 2725 213 2448 61 
Q 2172 -91 1784 -91 
Q 1150 -91 751 415 
Q 353 922 353 1747 
Q 353 2572 751 3078 
Q 1150 3584 1784 3584 
Q 2172 3584 2448 3432 
Q 2725 3281 2906 2969 
z
M 947 1747 
Q 947 1113 1208 752 
Q 1469 391 1925 391 
Q 2381 391 2643 752 
Q 2906 1113 2906 1747 
Q 2906 2381 2643 2742 
Q 2381 3103 1925 3103 
Q 1469 3103 1208 2742 
Q 947 2381 947 1747 
z
" transform="scale(0.015625)"/>
       <path id="DejaVuSans-61" d="M 2194 1759 
Q 1497 1759 1228 1600 
Q 959 1441 959 1056 
Q 959 750 1161 570 
Q 1363 391 1709 391 
Q 2188 391 2477 730 
Q 2766 1069 2766 1631 
L 2766 1759 
L 2194 1759 
z
M 3341 1997 
L 3341 0 
L 2766 0 
L 2766 531 
Q 2569 213 2275 61 
Q 1981 -91 1556 -91 
Q 1019 -91 701 211 
Q 384 513 384 1019 
Q 384 1609 779 1909 
Q 1175 2209 1959 2209 
L 2766 2209 
L 2766 2266 
Q 2766 2663 2505 2880 
Q 2244 3097 1772 3097 
Q 1472 3097 1187 3025 
Q 903 2953 641 2809 
L 641 3341 
Q 956 3463 1253 3523 
Q 1550 3584 1831 3584 
Q 2591 3584 2966 3190 
Q 3341 2797 3341 1997 
z
" transform="scale(0.015625)"/>
       <path id="DejaVuSans-74" d="M 1172 4494 
L 1172 3500 
L 2356 3500 
L 2356 3053 
L 1172 3053 
L 1172 1153 
Q 1172 725 1289 603 
Q 1406 481 1766 481 
L 2356 481 
L 2356 0 
L 1766 0 
Q 1100 0 847 248 
Q 594 497 594 1153 
L 594 3053 
L 172 3053 
L 172 3500 
L 594 3500 
L 594 4494 
L 1172 4494 
z
" transform="scale(0.015625)"/>
       <path id="DejaVuSans-65" d="M 3597 1894 
L 3597 1613 
L 953 1613 
Q 991 1019 1311 708 
Q 1631 397 2203 397 
Q 2534 397 2845 478 
Q 3156 559 3463 722 
L 3463 178 
Q 3153 47 2828 -22 
Q 2503 -91 2169 -91 
Q 1331 -91 842 396 
Q 353 884 353 1716 
Q 353 2575 817 3079 
Q 1281 3584 2069 3584 
Q 2775 3584 3186 3129 
Q 3597 2675 3597 1894 
z
M 3022 2063 
Q 3016 2534 2758 2815 
Q 2500 3097 2075 3097 
Q 1594 3097 1305 2825 
Q 1016 2553 972 2059 
L 3022 2063 
z
" transform="scale(0.015625)"/>
       <path id="DejaVuSans-20" transform="scale(0.015625)"/>
       <path id="DejaVuSans-2d" d="M 313 2009 
L 1997 2009 
L 1997 1497 
L 313 1497 
L 313 2009 
z
" transform="scale(0.015625)"/>
       <path id="DejaVuSans-39" d="M 703 97 
L 703 672 
Q 941 559 1184 500 
Q 1428 441 1663 441 
Q 2288 441 2617 861 
Q 2947 1281 2994 2138 
Q 2813 1869 2534 1725 
Q 2256 1581 1919 1581 
Q 1219 1581 811 2004 
Q 403 2428 403 3163 
Q 403 3881 828 4315 
Q 1253 4750 1959 4750 
Q 2769 4750 3195 4129 
Q 3622 3509 3622 2328 
Q 3622 1225 3098 567 
Q 2575 -91 1691 -91 
Q 1453 -91 1209 -44 
Q 966 3 703 97 
z
M 1959 2075 
Q 2384 2075 2632 2365 
Q 2881 2656 2881 3163 
Q 2881 3666 2632 3958 
Q 2384 4250 1959 4250 
Q 1534 4250 1286 3958 
Q 1038 3666 1038 3163 
Q 1038 2656 1286 2365 
Q 1534 2075 1959 2075 
z
" transform="scale(0.015625)"/>
       <path id="DejaVuSans-35" d="M 691 4666 
L 3169 4666 
L 3169 4134 
L 1269 4134 
L 1269 2991 
Q 1406 3038 1543 3061 
Q 1681 3084 1819 3084 
Q 2600 3084 3056 2656 
Q 3513 2228 3513 1497 
Q 3513 744 3044 326 
Q 2575 -91 1722 -91 
Q 1428 -91 1123 -41 
Q 819 9 494 109 
L 494 744 
Q 775 591 1075 516 
Q 1375 441 1709 441 
Q 2250 441 2565 725 
Q 2881 1009 2881 1497 
Q 2881 1984 2565 2268 
Q 2250 2553 1709 2553 
Q 1456 2553 1204 2497 
Q 953 2441 691 2322 
L 691 4666 
z
" transform="scale(0.015625)"/>
       <path id="DejaVuSans-3a" d="M 750 794 
L 1409 794 
L 1409 0 
L 750 0 
L 750 794 
z
M 750 3309 
L 1409 3309 
L 1409 2516 
L 750 2516 
L 750 3309 
z
" transform="scale(0.015625)"/>
       <path id="DejaVuSans-33" d="M 2597 2516 
Q 3050 2419 3304 2112 
Q 3559 1806 3559 1356 
Q 3559 666 3084 287 
Q 2609 -91 1734 -91 
Q 1441 -91 1130 -33 
Q 819 25 488 141 
L 488 750 
Q 750 597 1062 519 
Q 1375 441 1716 441 
Q 2309 441 2620 675 
Q 2931 909 2931 1356 
Q 2931 1769 2642 2001 
Q 2353 2234 1838 2234 
L 1294 2234 
L 1294 2753 
L 1863 2753 
Q 2328 2753 2575 2939 
Q 2822 3125 2822 3475 
Q 2822 3834 2567 4026 
Q 2313 4219 1838 4219 
Q 1578 4219 1281 4162 
Q 984 4106 628 3988 
L 628 4550 
Q 988 4650 1302 4700 
Q 1616 4750 1894 4750 
Q 2613 4750 3031 4423 
Q 3450 4097 3450 3541 
Q 3450 3153 3228 2886 
Q 3006 2619 2597 2516 
z
" transform="scale(0.015625)"/>
       <path id="DejaVuSans-2e" d="M 684 794 
L 1344 794 
L 1344 0 
L 684 0 
L 684 794 
z
" transform="scale(0.015625)"/>
       <path id="DejaVuSans-37" d="M 525 4666 
L 3525 4666 
L 3525 4397 
L 1831 0 
L 1172 0 
L 2766 4134 
L 525 4134 
L 525 4666 
z
" transform="scale(0.015625)"/>
       <path id="DejaVuSans-4c" d="M 628 4666 
L 1259 4666 
L 1259 531 
L 3531 531 
L 3531 0 
L 628 0 
L 628 4666 
z
" transform="scale(0.015625)"/>
       <path id="DejaVuSans-73" d="M 2834 3397 
L 2834 2853 
Q 2591 2978 2328 3040 
Q 2066 3103 1784 3103 
Q 1356 3103 1142 2972 
Q 928 2841 928 2578 
Q 928 2378 1081 2264 
Q 1234 2150 1697 2047 
L 1894 2003 
Q 2506 1872 2764 1633 
Q 3022 1394 3022 966 
Q 3022 478 2636 193 
Q 2250 -91 1575 -91 
Q 1294 -91 989 -36 
Q 684 19 347 128 
L 347 722 
Q 666 556 975 473 
Q 1284 391 1588 391 
Q 1994 391 2212 530 
Q 2431 669 2431 922 
Q 2431 1156 2273 1281 
Q 2116 1406 1581 1522 
L 1381 1569 
Q 847 1681 609 1914 
Q 372 2147 372 2553 
Q 372 3047 722 3315 
Q 1072 3584 1716 3584 
Q 2034 3584 2315 3537 
Q 2597 3491 2834 3397 
z
" transform="scale(0.015625)"/>
       <path id="DejaVuSans-72" d="M 2631 2963 
Q 2534 3019 2420 3045 
Q 2306 3072 2169 3072 
Q 1681 3072 1420 2755 
Q 1159 2438 1159 1844 
L 1159 0 
L 581 0 
L 581 3500 
L 1159 3500 
L 1159 2956 
Q 1341 3275 1631 3429 
Q 1922 3584 2338 3584 
Q 2397 3584 2469 3576 
Q 2541 3569 2628 3553 
L 2631 2963 
z
" transform="scale(0.015625)"/>
       <path id="DejaVuSans-63" d="M 3122 3366 
L 3122 2828 
Q 2878 2963 2633 3030 
Q 2388 3097 2138 3097 
Q 1578 3097 1268 2742 
Q 959 2388 959 1747 
Q 959 1106 1268 751 
Q 1578 397 2138 397 
Q 2388 397 2633 464 
Q 2878 531 3122 666 
L 3122 134 
Q 2881 22 2623 -34 
Q 2366 -91 2075 -91 
Q 1284 -91 818 406 
Q 353 903 353 1747 
Q 353 2603 823 3093 
Q 1294 3584 2113 3584 
Q 2378 3584 2631 3529 
Q 2884 3475 3122 3366 
z
" transform="scale(0.015625)"/>
       <path id="DejaVuSans-6f" d="M 1959 3097 
Q 1497 3097 1228 2736 
Q 959 2375 959 1747 
Q 959 1119 1226 758 
Q 1494 397 1959 397 
Q 2419 397 2687 759 
Q 2956 1122 2956 1747 
Q 2956 2369 2687 2733 
Q 2419 3097 1959 3097 
z
M 1959 3584 
Q 2709 3584 3137 3096 
Q 3566 2609 3566 1747 
Q 3566 888 3137 398 
Q 2709 -91 1959 -91 
Q 1206 -91 779 398 
Q 353 888 353 1747 
Q 353 2609 779 3096 
Q 1206 3584 1959 3584 
z
" transform="scale(0.015625)"/>
      </defs>
      <use xlink:href="#DejaVuSans-55"/>
      <use xlink:href="#DejaVuSans-70" x="73.193359"/>
      <use xlink:href="#DejaVuSans-64" x="136.669922"/>
      <use xlink:href="#DejaVuSans-61" x="200.146484"/>
      <use xlink:href="#DejaVuSans-74" x="261.425781"/>
      <use xlink:href="#DejaVuSans-65" x="300.634766"/>
      <use xlink:href="#DejaVuSans-64" x="362.158203"/>
      <use xlink:href="#DejaVuSans-20" x="425.634766"/>
      <use xlink:href="#DejaVuSans-32" x="457.421875"/>
      <use xlink:href="#DejaVuSans-30" x="521.044922"/>
      <use xlink:href="#DejaVuSans-32" x="584.667969"/>
      <use xlink:href="#DejaVuSans-34" x="648.291016"/>
      <use xlink:href="#DejaVuSans-2d" x="711.914062"/>
      <use xlink:href="#DejaVuSans-30" x="747.998047"/>
      <use xlink:href="#DejaVuSans-34" x="811.621094"/>
      <use xlink:href="#DejaVuSans-2d" x="875.244141"/>
      <use xlink:href="#DejaVuSans-32" x="911.328125"/>
      <use xlink:href="#DejaVuSans-39" x="974.951172"/>
      <use xlink:href="#DejaVuSans-20" x="1038.574219"/>
      <use xlink:href="#DejaVuSans-30" x="1070.361328"/>
      <use xlink:href="#DejaVuSans-35" x="1133.984375"/>
      <use xlink:href="#DejaVuSans-3a" x="1197.607422"/>
      <use xlink:href="#DejaVuSans-33" x="1231.298828"/>
      <use xlink:href="#DejaVuSans-34" x="1294.921875"/>
      <use xlink:href="#DejaVuSans-3a" x="1358.544922"/>
      <use xlink:href="#DejaVuSans-33" x="1392.236328"/>
      <use xlink:href="#DejaVuSans-30" x="1455.859375"/>
      <use xlink:href="#DejaVuSans-2e" x="1519.482422"/>
      <use xlink:href="#DejaVuSans-37" x="1551.269531"/>
      <use xlink:href="#DejaVuSans-32" x="1614.892578"/>
      <use xlink:href="#DejaVuSans-32" x="1678.515625"/>
      <use xlink:href="#DejaVuSans-31" x="1742.138672"/>
      <use xlink:href="#DejaVuSans-37" x="1805.761719"/>
      <use xlink:href="#DejaVuSans-32" x="1869.384766"/>
      <use xlink:href="#DejaVuSans-20" x="1933.007812"/>
      <use xlink:href="#DejaVuSans-2d" x="1964.794922"/>
      <use xlink:href="#DejaVuSans-20" x="2000.878906"/>
      <use xlink:href="#DejaVuSans-4c" x="2032.666016"/>
      <use xlink:href="#DejaVuSans-61" x="2088.378906"/>
      <use xlink:href="#DejaVuSans-73" x="2149.658203"/>
      <use xlink:href="#DejaVuSans-74" x="2201.757812"/>
      <use xlink:href="#DejaVuSans-20" x="2240.966797"/>
      <use xlink:href="#DejaVuSans-72" x="2272.753906"/>
      <use xlink:href="#DejaVuSans-65" x="2311.617188"/>
      <use xlink:href="#DejaVuSans-63" x="2373.140625"/>
      <use xlink:href="#DejaVuSans-6f" x="2428.121094"/>
      <use xlink:href="#DejaVuSans-72" x="2489.302734"/>
      <use xlink:href="#DejaVuSans-64" x="2528.666016"/>
      <use xlink:href="#DejaVuSans-20" x="2592.142578"/>
      <use xlink:href="#DejaVuSans-32" x="2623.929688"/>
      <use xlink:href="#DejaVuSans-30" x="2687.552734"/>
      <use xlink:href="#DejaVuSans-32" x="2751.175781"/>
      <use xlink:href="#DejaVuSans-34" x="2814.798828"/>
      <use xlink:href="#DejaVuSans-2d" x="2878.421875"/>
      <use xlink:href="#DejaVuSans-30" x="2914.505859"/>
      <use xlink:href="#DejaVuSans-34" x="2978.128906"/>
      <use xlink:href="#DejaVuSans-2d" x="3041.751953"/>
      <use xlink:href="#DejaVuSans-32" x="3077.835938"/>
      <use xlink:href="#DejaVuSans-37" x="3141.458984"/>
     </g>
    </g>
   </g>
   <g id="matplotlib.axis_2">
    <g id="ytick_1">
     <g id="line2d_10">
      <defs>
       <path id="m517831680c" d="M 0 0 
L -3.5 0 
" style="stroke: #000000; stroke-width: 0.8"/>
      </defs>
      <g>
       <use xlink:href="#m517831680c" x="57.6" y="295.488" style="stroke: #000000; stroke-width: 0.8"/>
      </g>
     </g>
     <g id="text_11">
      <!-- 0 -->
      <g transform="translate(44.2375 299.287219) scale(0.1 -0.1)">
       <use xlink:href="#DejaVuSans-30"/>
      </g>
     </g>
    </g>
    <g id="ytick_2">
     <g id="line2d_11">
      <g>
       <use xlink:href="#m517831680c" x="57.6" y="242.642475" style="stroke: #000000; stroke-width: 0.8"/>
      </g>
     </g>
     <g id="text_12">
      <!-- 10 -->
      <g transform="translate(37.875 246.441694) scale(0.1 -0.1)">
       <use xlink:href="#DejaVuSans-31"/>
       <use xlink:href="#DejaVuSans-30" x="63.623047"/>
      </g>
     </g>
    </g>
    <g id="ytick_3">
     <g id="line2d_12">
      <g>
       <use xlink:href="#m517831680c" x="57.6" y="189.796951" style="stroke: #000000; stroke-width: 0.8"/>
      </g>
     </g>
     <g id="text_13">
      <!-- 20 -->
      <g transform="translate(37.875 193.596169) scale(0.1 -0.1)">
       <use xlink:href="#DejaVuSans-32"/>
       <use xlink:href="#DejaVuSans-30" x="63.623047"/>
      </g>
     </g>
    </g>
    <g id="ytick_4">
     <g id="line2d_13">
      <g>
       <use xlink:href="#m517831680c" x="57.6" y="136.951426" style="stroke: #000000; stroke-width: 0.8"/>
      </g>
     </g>
     <g id="text_14">
      <!-- 30 -->
      <g transform="translate(37.875 140.750645) scale(0.1 -0.1)">
       <use xlink:href="#DejaVuSans-33"/>
       <use xlink:href="#DejaVuSans-30" x="63.623047"/>
      </g>
     </g>
    </g>
    <g id="ytick_5">
     <g id="line2d_14">
      <g>
       <use xlink:href="#m517831680c" x="57.6" y="84.105901" style="stroke: #000000; stroke-width: 0.8"/>
      </g>
     </g>
     <g id="text_15">
      <!-- 40 -->
      <g transform="translate(37.875 87.90512) scale(0.1 -0.1)">
       <use xlink:href="#DejaVuSans-34"/>
       <use xlink:href="#DejaVuSans-30" x="63.623047"/>
      </g>
     </g>
    </g>
    <g id="text_16">
     <!-- IPv6 as % of total Google traffic -->
     <g transform="translate(31.795312 253.735813) rotate(-90) scale(0.1 -0.1)">
      <defs>
       <path id="DejaVuSans-49" d="M 628 4666 
L 1259 4666 
L 1259 0 
L 628 0 
L 628 4666 
z
" transform="scale(0.015625)"/>
       <path id="DejaVuSans-50" d="M 1259 4147 
L 1259 2394 
L 2053 2394 
Q 2494 2394 2734 2622 
Q 2975 2850 2975 3272 
Q 2975 3691 2734 3919 
Q 2494 4147 2053 4147 
L 1259 4147 
z
M 628 4666 
L 2053 4666 
Q 2838 4666 3239 4311 
Q 3641 3956 3641 3272 
Q 3641 2581 3239 2228 
Q 2838 1875 2053 1875 
L 1259 1875 
L 1259 0 
L 628 0 
L 628 4666 
z
" transform="scale(0.015625)"/>
       <path id="DejaVuSans-76" d="M 191 3500 
L 800 3500 
L 1894 563 
L 2988 3500 
L 3597 3500 
L 2284 0 
L 1503 0 
L 191 3500 
z
" transform="scale(0.015625)"/>
       <path id="DejaVuSans-25" d="M 4653 2053 
Q 4381 2053 4226 1822 
Q 4072 1591 4072 1178 
Q 4072 772 4226 539 
Q 4381 306 4653 306 
Q 4919 306 5073 539 
Q 5228 772 5228 1178 
Q 5228 1588 5073 1820 
Q 4919 2053 4653 2053 
z
M 4653 2450 
Q 5147 2450 5437 2106 
Q 5728 1763 5728 1178 
Q 5728 594 5436 251 
Q 5144 -91 4653 -91 
Q 4153 -91 3862 251 
Q 3572 594 3572 1178 
Q 3572 1766 3864 2108 
Q 4156 2450 4653 2450 
z
M 1428 4353 
Q 1159 4353 1004 4120 
Q 850 3888 850 3481 
Q 850 3069 1003 2837 
Q 1156 2606 1428 2606 
Q 1700 2606 1854 2837 
Q 2009 3069 2009 3481 
Q 2009 3884 1853 4118 
Q 1697 4353 1428 4353 
z
M 4250 4750 
L 4750 4750 
L 1831 -91 
L 1331 -91 
L 4250 4750 
z
M 1428 4750 
Q 1922 4750 2215 4408 
Q 2509 4066 2509 3481 
Q 2509 2891 2217 2550 
Q 1925 2209 1428 2209 
Q 931 2209 642 2551 
Q 353 2894 353 3481 
Q 353 4063 643 4406 
Q 934 4750 1428 4750 
z
" transform="scale(0.015625)"/>
       <path id="DejaVuSans-66" d="M 2375 4863 
L 2375 4384 
L 1825 4384 
Q 1516 4384 1395 4259 
Q 1275 4134 1275 3809 
L 1275 3500 
L 2222 3500 
L 2222 3053 
L 1275 3053 
L 1275 0 
L 697 0 
L 697 3053 
L 147 3053 
L 147 3500 
L 697 3500 
L 697 3744 
Q 697 4328 969 4595 
Q 1241 4863 1831 4863 
L 2375 4863 
z
" transform="scale(0.015625)"/>
       <path id="DejaVuSans-6c" d="M 603 4863 
L 1178 4863 
L 1178 0 
L 603 0 
L 603 4863 
z
" transform="scale(0.015625)"/>
       <path id="DejaVuSans-47" d="M 3809 666 
L 3809 1919 
L 2778 1919 
L 2778 2438 
L 4434 2438 
L 4434 434 
Q 4069 175 3628 42 
Q 3188 -91 2688 -91 
Q 1594 -91 976 548 
Q 359 1188 359 2328 
Q 359 3472 976 4111 
Q 1594 4750 2688 4750 
Q 3144 4750 3555 4637 
Q 3966 4525 4313 4306 
L 4313 3634 
Q 3963 3931 3569 4081 
Q 3175 4231 2741 4231 
Q 1884 4231 1454 3753 
Q 1025 3275 1025 2328 
Q 1025 1384 1454 906 
Q 1884 428 2741 428 
Q 3075 428 3337 486 
Q 3600 544 3809 666 
z
" transform="scale(0.015625)"/>
       <path id="DejaVuSans-67" d="M 2906 1791 
Q 2906 2416 2648 2759 
Q 2391 3103 1925 3103 
Q 1463 3103 1205 2759 
Q 947 2416 947 1791 
Q 947 1169 1205 825 
Q 1463 481 1925 481 
Q 2391 481 2648 825 
Q 2906 1169 2906 1791 
z
M 3481 434 
Q 3481 -459 3084 -895 
Q 2688 -1331 1869 -1331 
Q 1566 -1331 1297 -1286 
Q 1028 -1241 775 -1147 
L 775 -588 
Q 1028 -725 1275 -790 
Q 1522 -856 1778 -856 
Q 2344 -856 2625 -561 
Q 2906 -266 2906 331 
L 2906 616 
Q 2728 306 2450 153 
Q 2172 0 1784 0 
Q 1141 0 747 490 
Q 353 981 353 1791 
Q 353 2603 747 3093 
Q 1141 3584 1784 3584 
Q 2172 3584 2450 3431 
Q 2728 3278 2906 2969 
L 2906 3500 
L 3481 3500 
L 3481 434 
z
" transform="scale(0.015625)"/>
       <path id="DejaVuSans-69" d="M 603 3500 
L 1178 3500 
L 1178 0 
L 603 0 
L 603 3500 
z
M 603 4863 
L 1178 4863 
L 1178 4134 
L 603 4134 
L 603 4863 
z
" transform="scale(0.015625)"/>
      </defs>
      <use xlink:href="#DejaVuSans-49"/>
      <use xlink:href="#DejaVuSans-50" x="29.492188"/>
      <use xlink:href="#DejaVuSans-76" x="89.794922"/>
      <use xlink:href="#DejaVuSans-36" x="148.974609"/>
      <use xlink:href="#DejaVuSans-20" x="212.597656"/>
      <use xlink:href="#DejaVuSans-61" x="244.384766"/>
      <use xlink:href="#DejaVuSans-73" x="305.664062"/>
      <use xlink:href="#DejaVuSans-20" x="357.763672"/>
      <use xlink:href="#DejaVuSans-25" x="389.550781"/>
      <use xlink:href="#DejaVuSans-20" x="484.570312"/>
      <use xlink:href="#DejaVuSans-6f" x="516.357422"/>
      <use xlink:href="#DejaVuSans-66" x="577.539062"/>
      <use xlink:href="#DejaVuSans-20" x="612.744141"/>
      <use xlink:href="#DejaVuSans-74" x="644.53125"/>
      <use xlink:href="#DejaVuSans-6f" x="683.740234"/>
      <use xlink:href="#DejaVuSans-74" x="744.921875"/>
      <use xlink:href="#DejaVuSans-61" x="784.130859"/>
      <use xlink:href="#DejaVuSans-6c" x="845.410156"/>
      <use xlink:href="#DejaVuSans-20" x="873.193359"/>
      <use xlink:href="#DejaVuSans-47" x="904.980469"/>
      <use xlink:href="#DejaVuSans-6f" x="982.470703"/>
      <use xlink:href="#DejaVuSans-6f" x="1043.652344"/>
      <use xlink:href="#DejaVuSans-67" x="1104.833984"/>
      <use xlink:href="#DejaVuSans-6c" x="1168.310547"/>
      <use xlink:href="#DejaVuSans-65" x="1196.09375"/>
      <use xlink:href="#DejaVuSans-20" x="1257.617188"/>
      <use xlink:href="#DejaVuSans-74" x="1289.404297"/>
      <use xlink:href="#DejaVuSans-72" x="1328.613281"/>
      <use xlink:href="#DejaVuSans-61" x="1369.726562"/>
      <use xlink:href="#DejaVuSans-66" x="1431.005859"/>
      <use xlink:href="#DejaVuSans-66" x="1466.210938"/>
      <use xlink:href="#DejaVuSans-69" x="1501.416016"/>
      <use xlink:href="#DejaVuSans-63" x="1529.199219"/>
     </g>
    </g>
   </g>
   <g id="line2d_15">
    <path d="M 73.832727 294.525192 
L 75.424171 294.36201 
L 75.822032 294.517397 
L 77.413476 294.516715 
L 79.00492 294.375073 
L 79.402781 294.249819 
L 80.596364 294.270598 
L 84.177112 294.195605 
L 85.370695 294.223068 
L 86.962139 294.148461 
L 90.145027 294.213149 
L 90.542888 294.314813 
L 92.532193 294.290114 
L 93.725775 294.241591 
L 95.317219 294.146738 
L 96.112941 294.1554 
L 96.510802 293.898127 
L 98.897968 293.809875 
L 99.69369 293.776011 
L 101.682995 293.857916 
L 103.672299 293.907803 
L 105.661604 293.875429 
L 106.855187 294.062851 
L 108.04877 294.011052 
L 108.844492 294.094152 
L 109.640214 294.173605 
L 110.038075 294.094342 
L 112.425241 294.310898 
L 114.414545 294.225156 
L 115.210267 294.121309 
L 115.608128 294.03571 
L 116.40385 294.031493 
L 119.188877 293.969294 
L 119.984599 294.058925 
L 120.38246 293.932672 
L 122.769626 294.166851 
L 125.952513 293.998147 
L 126.350374 294.003791 
L 126.748235 293.88362 
L 127.543957 293.984138 
L 128.339679 293.797562 
L 128.73754 293.843944 
L 129.135401 293.729401 
L 129.533262 293.779552 
L 130.328984 293.672968 
L 131.522567 293.657796 
L 131.920428 293.789302 
L 133.511872 293.819006 
L 134.307594 293.833127 
L 134.705455 293.795781 
L 135.103316 293.622268 
L 136.694759 293.527246 
L 137.09262 293.621898 
L 140.673369 293.309232 
L 141.469091 293.116034 
L 142.264813 293.261977 
L 145.04984 292.866064 
L 145.447701 292.797423 
L 145.845561 292.903236 
L 148.232727 292.39715 
L 149.028449 292.413706 
L 150.222032 292.071273 
L 152.211337 291.596049 
L 153.40492 291.47388 
L 153.802781 291.573674 
L 155.792086 291.198323 
L 156.985668 290.827453 
L 157.383529 290.883564 
L 157.78139 290.550627 
L 158.179251 290.390024 
L 159.770695 290.196377 
L 160.168556 290.352541 
L 160.964278 290.163935 
L 161.362139 290.117151 
L 161.76 289.874299 
L 162.555722 289.712254 
L 164.147166 289.695375 
L 164.942888 289.488363 
L 166.136471 289.33583 
L 166.534332 289.136396 
L 166.932193 289.11716 
L 167.330053 289.220283 
L 168.921497 288.474712 
L 169.319358 288.491792 
L 170.910802 288.022967 
L 171.308663 287.708779 
L 171.706524 287.636693 
L 172.104385 287.442258 
L 172.502246 287.473923 
L 173.695829 286.996469 
L 174.09369 287.080895 
L 174.491551 286.845886 
L 174.889412 286.804582 
L 176.878717 285.700507 
L 177.674439 285.364383 
L 178.47016 284.775705 
L 179.663743 283.320804 
L 180.061604 283.552537 
L 180.459465 283.592626 
L 181.653048 282.210409 
L 182.050909 282.044669 
L 182.44877 281.346014 
L 183.244492 281.128074 
L 184.040214 280.663039 
L 184.438075 280.711504 
L 185.631658 279.948567 
L 186.029519 279.786522 
L 186.42738 279.486845 
L 187.223102 279.415837 
L 187.620963 278.736962 
L 188.018824 278.728015 
L 188.416684 277.981641 
L 188.814545 277.595097 
L 189.610267 277.706041 
L 190.008128 277.429701 
L 190.405989 277.004025 
L 191.201711 276.508503 
L 191.599572 276.065521 
L 191.997433 276.337115 
L 193.588877 275.46797 
L 193.986738 275.1466 
L 194.384599 273.825975 
L 194.78246 274.076489 
L 195.578182 273.179722 
L 195.976043 273.141218 
L 196.373904 273.528898 
L 197.567487 272.646769 
L 197.965348 272.048325 
L 198.76107 272.094465 
L 199.15893 271.446933 
L 199.556791 271.402363 
L 199.954652 267.97188 
L 200.352513 270.22896 
L 200.750374 271.57354 
L 201.148235 270.920195 
L 201.546096 270.55509 
L 201.943957 270.496252 
L 202.341818 269.636968 
L 202.739679 269.36772 
L 203.933262 267.50267 
L 204.331123 266.284903 
L 204.728984 265.589836 
L 205.126845 264.646179 
L 205.524706 264.02314 
L 205.922567 265.018158 
L 206.320428 264.865884 
L 206.718289 264.893432 
L 207.11615 265.054173 
L 207.514011 265.354314 
L 207.911872 265.239803 
L 208.309733 263.04543 
L 208.707594 263.370007 
L 209.901176 262.213715 
L 210.299037 262.058085 
L 211.094759 262.126509 
L 211.49262 260.467752 
L 211.890481 260.407339 
L 212.686203 259.098286 
L 213.084064 259.544593 
L 213.481925 257.501421 
L 213.879786 257.984356 
L 214.277647 256.605093 
L 214.675508 255.944629 
L 215.073369 254.95292 
L 215.47123 255.641602 
L 215.869091 254.598384 
L 216.266952 252.862863 
L 216.664813 253.737404 
L 217.062674 253.986713 
L 217.460535 253.447995 
L 217.858396 251.861097 
L 218.256257 252.301908 
L 218.654118 250.900836 
L 219.051979 251.223584 
L 219.847701 249.333913 
L 220.245561 248.376653 
L 221.439144 248.07611 
L 221.837005 246.970772 
L 222.234866 247.10528 
L 222.632727 246.690633 
L 223.030588 245.595119 
L 223.428449 245.317072 
L 223.82631 244.092134 
L 224.224171 243.252397 
L 224.622032 243.104403 
L 225.019893 243.311098 
L 225.417754 242.776782 
L 225.815615 240.50062 
L 226.611337 241.835741 
L 227.009198 241.579271 
L 227.80492 241.502418 
L 228.202781 241.547638 
L 228.998503 241.27301 
L 229.396364 239.992362 
L 229.794225 239.931738 
L 230.192086 238.795998 
L 230.589947 238.792806 
L 230.987807 238.620276 
L 232.18139 235.371962 
L 232.579251 233.458742 
L 232.977112 234.765279 
L 233.374973 234.217657 
L 233.772834 233.085732 
L 234.170695 233.337689 
L 234.568556 230.921053 
L 234.966417 231.275604 
L 235.364278 230.979283 
L 235.762139 229.293041 
L 236.16 229.277081 
L 236.557861 228.020172 
L 236.955722 228.322813 
L 237.353583 227.328661 
L 237.751444 226.800539 
L 238.149305 227.081112 
L 238.547166 226.400382 
L 238.945027 225.338404 
L 239.342888 225.677889 
L 239.740749 225.174223 
L 240.13861 223.503 
L 240.536471 222.804117 
L 240.934332 222.869493 
L 241.332193 220.915154 
L 241.730053 221.262698 
L 242.525775 218.934985 
L 242.923636 216.612213 
L 243.321497 216.841789 
L 244.117219 215.535681 
L 244.51508 214.072219 
L 244.912941 214.267864 
L 245.310802 213.654544 
L 245.708663 211.340586 
L 246.106524 210.528726 
L 246.504385 206.692289 
L 246.902246 209.186603 
L 247.300107 208.734372 
L 247.697968 209.329217 
L 248.095829 208.630699 
L 248.891551 209.76515 
L 249.289412 209.538992 
L 249.687273 208.54454 
L 250.085134 208.843614 
L 250.880856 207.577049 
L 251.278717 206.527558 
L 251.676578 206.361121 
L 252.074439 205.651681 
L 252.472299 203.100537 
L 252.87016 203.901078 
L 253.268021 200.480006 
L 253.665882 200.744826 
L 254.063743 198.885261 
L 254.461604 197.739089 
L 255.655187 195.631054 
L 256.053048 193.905896 
L 256.450909 191.061597 
L 256.84877 191.779847 
L 258.440214 188.5404 
L 258.838075 188.007638 
L 259.235936 188.027804 
L 259.633797 188.321324 
L 260.031658 187.313428 
L 260.429519 185.900856 
L 260.82738 187.166327 
L 261.225241 187.190752 
L 261.623102 188.318143 
L 262.020963 187.084348 
L 262.418824 185.166124 
L 262.816684 185.411919 
L 263.214545 184.583787 
L 264.408128 183.266808 
L 265.20385 182.299444 
L 265.601711 182.194657 
L 265.999572 196.221091 
L 266.397433 180.413995 
L 266.795294 179.655297 
L 267.193155 175.822137 
L 267.591016 179.378413 
L 268.386738 178.858773 
L 268.784599 178.856257 
L 269.18246 178.380346 
L 269.580321 178.145813 
L 269.978182 179.448682 
L 270.376043 180.274652 
L 270.773904 180.07386 
L 271.171765 178.954851 
L 271.569626 179.035203 
L 272.763209 178.094241 
L 273.16107 175.580326 
L 273.55893 176.572575 
L 273.956791 173.910133 
L 274.354652 175.032783 
L 274.752513 172.79802 
L 275.150374 171.40265 
L 275.548235 172.225396 
L 275.946096 170.5142 
L 276.343957 169.37799 
L 276.741818 169.13639 
L 277.139679 170.065283 
L 277.53754 170.555272 
L 278.731123 168.045749 
L 279.128984 168.622869 
L 279.526845 169.454568 
L 279.924706 169.615842 
L 280.322567 167.712468 
L 280.720428 167.003513 
L 281.118289 165.623743 
L 281.51615 165.283788 
L 281.914011 165.090553 
L 282.311872 165.234943 
L 282.709733 165.052943 
L 283.505455 163.157606 
L 283.903316 164.263378 
L 284.301176 160.760533 
L 284.699037 160.85063 
L 285.096898 160.423479 
L 285.494759 157.868689 
L 285.89262 157.102143 
L 286.290481 156.641404 
L 286.688342 156.64476 
L 287.086203 155.259695 
L 287.484064 155.165276 
L 288.279786 152.975336 
L 288.677647 154.42082 
L 289.075508 155.351863 
L 289.87123 153.134644 
L 290.269091 154.22211 
L 290.666952 154.023273 
L 291.064813 154.496632 
L 291.462674 152.823051 
L 291.860535 152.239118 
L 292.258396 153.504404 
L 292.656257 151.688125 
L 293.054118 151.83345 
L 293.451979 151.315358 
L 294.247701 151.114513 
L 294.645561 147.526788 
L 295.043422 147.422281 
L 295.441283 147.705432 
L 295.839144 148.573219 
L 296.634866 144.386432 
L 297.032727 142.539465 
L 297.430588 142.070672 
L 297.828449 142.231693 
L 298.22631 141.894602 
L 298.624171 140.059932 
L 299.022032 141.572899 
L 299.419893 139.962025 
L 299.817754 141.456872 
L 300.215615 140.385275 
L 300.613476 139.736618 
L 301.011337 139.682525 
L 301.409198 139.755605 
L 301.807059 138.358708 
L 302.20492 138.517424 
L 302.602781 140.029271 
L 303.000642 139.516997 
L 303.398503 140.137139 
L 303.796364 140.390602 
L 304.194225 138.453079 
L 304.592086 139.613472 
L 304.989947 139.925287 
L 305.387807 139.205198 
L 305.785668 138.765222 
L 306.183529 137.029653 
L 306.58139 137.395957 
L 306.979251 137.018218 
L 307.377112 137.143488 
L 307.774973 136.134223 
L 308.172834 135.69273 
L 308.570695 134.415258 
L 308.968556 133.856882 
L 309.366417 134.646278 
L 309.764278 134.880986 
L 310.162139 134.933789 
L 310.957861 133.117119 
L 311.355722 133.552629 
L 311.753583 132.227903 
L 312.151444 132.80125 
L 312.549305 132.553479 
L 312.947166 131.637196 
L 313.345027 131.861118 
L 313.742888 132.490561 
L 314.140749 132.20361 
L 314.53861 132.218607 
L 314.936471 129.838461 
L 315.732193 128.143879 
L 316.130053 128.42367 
L 316.527914 127.83125 
L 316.925775 125.859536 
L 317.323636 126.497355 
L 317.721497 123.667958 
L 318.119358 125.932305 
L 318.517219 124.057805 
L 318.91508 121.495389 
L 319.312941 122.244971 
L 319.710802 120.644999 
L 320.108663 119.56537 
L 320.506524 119.668651 
L 320.904385 118.858677 
L 321.302246 120.889214 
L 321.700107 119.197592 
L 322.097968 119.831886 
L 322.495829 120.204035 
L 323.689412 117.608622 
L 324.087273 119.769502 
L 324.485134 119.812798 
L 324.882995 118.857547 
L 325.280856 119.398838 
L 325.678717 120.711209 
L 326.076578 119.690535 
L 326.474439 117.315678 
L 326.872299 121.258218 
L 327.27016 120.196198 
L 327.668021 118.658995 
L 328.065882 119.948516 
L 328.463743 120.041688 
L 328.861604 117.935868 
L 329.259465 116.887154 
L 329.657326 114.964618 
L 330.055187 115.902155 
L 330.453048 115.191864 
L 330.850909 115.41094 
L 331.24877 116.012782 
L 331.646631 114.475955 
L 332.044492 113.845851 
L 332.442353 114.985169 
L 332.840214 114.701204 
L 333.238075 112.235823 
L 333.635936 111.693517 
L 334.033797 110.015639 
L 334.431658 112.770942 
L 334.829519 113.684741 
L 335.22738 112.786415 
L 335.625241 112.614619 
L 336.023102 112.755505 
L 336.420963 107.895852 
L 336.818824 111.144557 
L 337.216684 109.272531 
L 338.012406 110.219528 
L 338.410267 105.616921 
L 338.808128 105.028697 
L 339.205989 103.177249 
L 339.60385 103.103561 
L 340.001711 104.778246 
L 340.399572 102.468802 
L 340.797433 102.014838 
L 341.195294 100.822199 
L 341.593155 100.390889 
L 341.991016 99.03584 
L 342.388877 99.238434 
L 342.786738 102.523719 
L 343.184599 100.752104 
L 343.58246 99.630358 
L 343.980321 101.763768 
L 344.378182 100.583992 
L 344.776043 100.168695 
L 345.173904 98.465378 
L 345.969626 101.176311 
L 346.367487 100.878585 
L 346.765348 101.303616 
L 347.163209 101.16895 
L 347.56107 99.641661 
L 347.95893 101.407558 
L 348.356791 99.285948 
L 348.754652 98.535657 
L 349.152513 98.45705 
L 349.948235 95.815746 
L 350.346096 92.86845 
L 350.743957 94.878493 
L 351.141818 98.632772 
L 351.539679 94.403909 
L 351.93754 94.205252 
L 352.335401 97.043051 
L 353.131123 93.266007 
L 353.528984 93.215519 
L 353.926845 94.012878 
L 354.324706 93.980341 
L 354.722567 94.590945 
L 355.120428 87.412636 
L 355.518289 86.646323 
L 355.91615 86.860311 
L 356.314011 85.39325 
L 356.711872 84.912065 
L 357.109733 82.360519 
L 357.507594 85.602619 
L 357.905455 86.866758 
L 358.303316 84.093208 
L 358.701176 85.920823 
L 359.099037 82.812845 
L 359.496898 81.230381 
L 359.894759 77.391339 
L 360.29262 78.424358 
L 360.690481 72.73625 
L 361.486203 76.723456 
L 361.884064 78.544222 
L 362.281925 76.885876 
L 362.679786 77.20937 
L 363.077647 77.905092 
L 363.475508 77.763445 
L 363.873369 79.785272 
L 364.27123 78.842794 
L 364.669091 77.365275 
L 365.066952 77.706071 
L 365.464813 76.191867 
L 365.862674 76.576582 
L 366.260535 74.724706 
L 366.658396 76.031988 
L 367.056257 79.559316 
L 367.454118 77.185616 
L 367.851979 73.586979 
L 368.24984 76.5693 
L 368.647701 74.836844 
L 369.045561 76.636234 
L 369.443422 75.011393 
L 369.841283 74.988289 
L 371.034866 68.732821 
L 371.432727 71.535537 
L 371.830588 71.321227 
L 372.228449 69.918315 
L 372.62631 70.3318 
L 373.024171 72.722574 
L 373.819893 70.657064 
L 374.217754 72.170898 
L 374.615615 71.319213 
L 375.013476 69.668906 
L 375.411337 69.700999 
L 376.207059 66.962649 
L 376.60492 68.15736 
L 377.002781 68.137981 
L 377.400642 65.537337 
L 377.798503 66.877034 
L 378.594225 66.652341 
L 378.992086 65.207903 
L 379.389947 66.857365 
L 379.787807 66.905909 
L 380.185668 64.002824 
L 380.583529 63.96727 
L 380.98139 62.593561 
L 381.379251 58.971043 
L 381.777112 60.527909 
L 382.572834 59.673592 
L 382.970695 59.520092 
L 383.368556 59.907682 
L 383.766417 58.564729 
L 384.164278 60.140377 
L 384.96 56.205473 
L 385.357861 57.774995 
L 385.755722 59.904665 
L 386.153583 60.736955 
L 386.551444 56.804445 
L 386.949305 59.145 
L 387.347166 57.931143 
L 387.745027 62.170628 
L 388.142888 59.386017 
L 388.540749 58.34922 
L 388.93861 60.706051 
L 389.336471 60.922385 
L 389.734332 62.176303 
L 390.132193 59.921676 
L 390.530053 62.324414 
L 390.927914 59.405454 
L 391.325775 59.049191 
L 391.723636 56.287964 
L 392.121497 59.757558 
L 392.519358 59.742196 
L 392.917219 58.910297 
L 393.31508 58.999083 
L 393.712941 57.493667 
L 394.110802 58.66011 
L 394.508663 55.825238 
L 394.906524 56.529099 
L 395.304385 56.530525 
L 395.702246 66.349805 
L 396.497968 66.349805 
L 396.895829 54.138018 
L 397.29369 54.082335 
L 397.691551 55.715827 
L 398.089412 55.266476 
L 398.487273 53.568 
L 398.487273 53.568 
" clip-path="url(#p41bf8cad8d)" style="fill: none; stroke: #1f77b4; stroke-width: 1.5; stroke-linecap: square"/>
   </g>
   <g id="line2d_16">
    <path d="M 73.832727 294.77773 
L 75.424171 294.64347 
L 75.822032 294.755836 
L 84.574973 294.509496 
L 85.370695 294.500962 
L 87.36 294.436887 
L 89.349305 294.502489 
L 90.940749 294.49953 
L 96.510802 294.419759 
L 96.908663 294.230578 
L 112.425241 294.420182 
L 114.414545 294.421297 
L 115.608128 294.255204 
L 117.199572 294.23024 
L 119.188877 294.172812 
L 123.963209 294.34707 
L 129.533262 293.910931 
L 130.328984 293.85575 
L 131.124706 293.794729 
L 131.920428 293.889666 
L 132.71615 293.902143 
L 133.909733 293.954058 
L 134.705455 293.985771 
L 135.501176 293.691638 
L 136.296898 293.729232 
L 137.09262 293.772492 
L 142.264813 293.41868 
L 142.662674 293.523938 
L 148.232727 292.865573 
L 149.824171 292.609377 
L 150.619893 292.616586 
L 151.813476 292.216508 
L 153.40492 291.935819 
L 153.802781 292.057163 
L 155.394225 291.932041 
L 160.964278 290.902102 
L 161.362139 290.947333 
L 162.157861 290.688892 
L 162.953583 290.586123 
L 163.351444 290.349882 
L 164.545027 290.618766 
L 165.340749 290.433215 
L 165.73861 290.378673 
L 166.136471 290.149117 
L 166.534332 290.166308 
L 166.932193 289.996261 
L 168.125775 289.909373 
L 168.523636 289.666896 
L 169.717219 289.421709 
L 170.11508 289.424357 
L 170.512941 289.269033 
L 170.910802 289.253248 
L 172.502246 288.771614 
L 173.297968 288.54014 
L 173.695829 288.294947 
L 174.09369 288.434063 
L 175.287273 287.944603 
L 176.082995 287.53663 
L 176.480856 287.227489 
L 177.276578 287.012735 
L 177.674439 287.111408 
L 178.47016 286.960534 
L 179.663743 285.80606 
L 180.061604 285.528738 
L 180.459465 285.604978 
L 180.857326 285.456191 
L 182.050909 284.58934 
L 182.44877 284.442662 
L 183.244492 283.742374 
L 183.642353 283.646422 
L 184.040214 282.324793 
L 184.438075 282.448187 
L 184.835936 283.32862 
L 185.233797 283.233012 
L 186.029519 282.557429 
L 186.42738 283.167922 
L 186.825241 282.377448 
L 187.223102 282.32883 
L 187.620963 282.08313 
L 188.018824 281.508456 
L 188.416684 281.537659 
L 189.212406 280.657474 
L 189.610267 280.684019 
L 190.008128 280.487359 
L 190.405989 279.773406 
L 190.80385 280.014482 
L 191.201711 279.474094 
L 191.599572 279.636192 
L 191.997433 279.441113 
L 192.395294 279.520725 
L 192.793155 278.911844 
L 193.191016 278.935313 
L 193.588877 278.314129 
L 193.986738 278.42205 
L 194.78246 277.110958 
L 195.180321 276.851503 
L 195.578182 276.76899 
L 195.976043 276.468071 
L 196.373904 276.438245 
L 196.771765 276.553433 
L 197.169626 276.531586 
L 198.363209 276.101403 
L 198.76107 276.241464 
L 199.556791 275.87952 
L 199.954652 275.25551 
L 200.352513 273.854865 
L 200.750374 274.900377 
L 201.148235 275.244565 
L 201.546096 274.883234 
L 201.943957 275.09283 
L 202.341818 274.569934 
L 203.13754 273.893823 
L 203.535401 273.223552 
L 203.933262 272.803192 
L 204.331123 271.922574 
L 204.728984 269.316296 
L 205.126845 267.646932 
L 205.524706 270.119939 
L 205.922567 270.77209 
L 206.320428 270.790026 
L 206.718289 271.050681 
L 207.11615 271.03191 
L 207.514011 271.380754 
L 207.911872 270.660855 
L 208.309733 270.787442 
L 208.707594 269.442898 
L 209.105455 269.03203 
L 209.503316 269.265623 
L 210.299037 267.924842 
L 210.696898 268.287743 
L 211.094759 268.252754 
L 211.49262 267.820667 
L 211.890481 267.193528 
L 212.288342 266.867228 
L 212.686203 266.913479 
L 213.481925 264.969509 
L 213.879786 264.397731 
L 214.277647 264.09046 
L 214.675508 262.970468 
L 215.073369 262.582556 
L 216.266952 260.324155 
L 216.664813 260.707575 
L 217.460535 260.33047 
L 218.256257 259.606433 
L 218.654118 259.921197 
L 219.44984 259.522049 
L 220.245561 258.523343 
L 221.439144 258.01285 
L 221.837005 258.016195 
L 222.234866 256.969114 
L 222.632727 256.863645 
L 223.030588 256.89234 
L 223.428449 256.356079 
L 224.622032 253.70094 
L 225.019893 253.200113 
L 225.417754 250.783291 
L 225.815615 247.373487 
L 226.213476 252.432743 
L 226.611337 253.535185 
L 227.009198 253.227371 
L 227.407059 252.684568 
L 227.80492 252.758435 
L 228.202781 253.037988 
L 228.998503 251.895928 
L 229.794225 251.374818 
L 230.192086 250.953338 
L 230.589947 249.749813 
L 230.987807 249.470624 
L 231.385668 249.402396 
L 232.18139 248.337431 
L 232.579251 247.071533 
L 232.977112 246.282597 
L 233.374973 246.779804 
L 234.170695 245.224841 
L 234.568556 243.794376 
L 234.966417 243.378307 
L 235.364278 243.17482 
L 236.16 240.88087 
L 236.557861 239.094369 
L 236.955722 239.87672 
L 237.353583 239.72925 
L 237.751444 238.830321 
L 238.149305 238.223607 
L 238.547166 238.068272 
L 238.945027 238.178112 
L 239.342888 239.417873 
L 239.740749 238.7822 
L 240.13861 239.066678 
L 240.536471 238.391809 
L 240.934332 238.465169 
L 241.332193 237.706117 
L 242.127914 235.583111 
L 242.525775 235.796353 
L 243.321497 232.793644 
L 243.719358 233.505151 
L 244.117219 232.952186 
L 244.51508 231.643551 
L 244.912941 231.54639 
L 245.310802 230.668097 
L 245.708663 230.168025 
L 246.106524 226.67993 
L 246.504385 218.631546 
L 246.902246 224.42545 
L 247.300107 227.514794 
L 247.697968 227.841141 
L 248.49369 227.501049 
L 248.891551 227.595452 
L 249.289412 227.552209 
L 249.687273 226.590616 
L 250.085134 226.350623 
L 250.482995 226.650162 
L 251.278717 225.525165 
L 252.074439 223.505245 
L 252.472299 221.292846 
L 252.87016 222.037112 
L 253.268021 221.926892 
L 253.665882 217.914458 
L 254.063743 218.794458 
L 254.859465 216.117314 
L 255.257326 213.541438 
L 255.655187 213.448605 
L 256.053048 213.095845 
L 256.84877 208.608948 
L 257.246631 208.311264 
L 257.644492 207.648761 
L 258.042353 207.325219 
L 258.838075 204.764542 
L 259.235936 204.545037 
L 259.633797 204.469209 
L 260.031658 205.591886 
L 260.429519 205.721189 
L 261.225241 207.338034 
L 262.020963 207.867515 
L 262.418824 205.59651 
L 262.816684 205.023744 
L 263.214545 205.519054 
L 263.612406 204.507977 
L 264.010267 202.647614 
L 264.408128 204.266853 
L 264.805989 204.908736 
L 265.20385 202.992949 
L 265.601711 202.757305 
L 265.999572 201.678406 
L 266.397433 196.221091 
L 266.795294 198.406332 
L 267.193155 189.381083 
L 267.988877 200.097622 
L 268.386738 198.707071 
L 268.784599 200.168049 
L 269.18246 199.625722 
L 269.580321 199.535631 
L 269.978182 198.120707 
L 270.376043 200.509209 
L 270.773904 201.170655 
L 271.171765 200.551374 
L 271.569626 199.194877 
L 271.967487 198.732426 
L 272.365348 197.673566 
L 272.763209 197.59982 
L 273.16107 199.474092 
L 273.55893 198.402807 
L 273.956791 196.879403 
L 274.354652 194.738382 
L 274.752513 194.534816 
L 275.150374 193.649437 
L 275.548235 193.757591 
L 275.946096 191.4784 
L 276.343957 191.425824 
L 276.741818 189.857195 
L 277.139679 189.607478 
L 277.53754 189.128798 
L 277.935401 187.630041 
L 278.731123 187.642428 
L 279.526845 187.035994 
L 279.924706 187.937422 
L 280.322567 186.409251 
L 280.720428 185.595695 
L 281.118289 188.508772 
L 281.51615 188.653564 
L 281.914011 188.515732 
L 282.311872 188.603704 
L 282.709733 188.53027 
L 283.107594 187.07167 
L 283.505455 187.419499 
L 283.903316 188.008568 
L 284.301176 187.35842 
L 284.699037 184.374144 
L 285.096898 185.192034 
L 285.494759 184.784178 
L 285.89262 181.611755 
L 286.290481 183.163897 
L 287.484064 179.024866 
L 287.881925 166.084334 
L 288.279786 171.047972 
L 288.677647 178.513332 
L 289.075508 179.883479 
L 289.87123 178.559884 
L 290.269091 177.261823 
L 290.666952 178.232284 
L 291.064813 177.956911 
L 291.462674 178.978219 
L 291.860535 176.672574 
L 292.258396 178.709067 
L 293.054118 176.594395 
L 293.451979 176.564696 
L 293.84984 177.19648 
L 294.247701 174.553559 
L 294.645561 174.106671 
L 295.043422 171.893886 
L 295.441283 173.926034 
L 295.839144 175.218482 
L 296.237005 172.736413 
L 297.032727 165.814468 
L 297.430588 167.327256 
L 297.828449 166.081052 
L 298.22631 165.400455 
L 298.624171 163.78399 
L 299.022032 164.456116 
L 299.419893 164.644014 
L 299.817754 164.475119 
L 300.215615 163.937659 
L 300.613476 163.080478 
L 301.011337 160.68805 
L 301.409198 163.710851 
L 301.807059 164.566621 
L 302.20492 164.727615 
L 302.602781 166.087801 
L 303.000642 166.842646 
L 303.796364 166.562391 
L 304.194225 167.08683 
L 304.592086 166.784263 
L 304.989947 167.470277 
L 305.785668 164.702334 
L 306.183529 166.444492 
L 306.58139 165.852638 
L 306.979251 164.379543 
L 307.377112 164.542275 
L 307.774973 163.832814 
L 308.172834 161.623844 
L 308.570695 149.411624 
L 308.968556 149.086502 
L 309.366417 161.040033 
L 309.764278 162.716103 
L 310.162139 163.05925 
L 310.56 161.905638 
L 310.957861 160.347567 
L 311.753583 158.601688 
L 312.151444 158.552246 
L 312.549305 159.131485 
L 312.947166 158.716537 
L 313.345027 149.395533 
L 313.742888 145.327426 
L 314.140749 143.74326 
L 314.53861 144.924389 
L 315.732193 140.785533 
L 316.130053 141.07604 
L 316.527914 143.268057 
L 316.925775 141.259362 
L 317.323636 140.492742 
L 317.721497 142.286261 
L 318.119358 143.272311 
L 318.91508 140.171669 
L 319.312941 137.219702 
L 319.710802 136.996408 
L 320.108663 135.394269 
L 320.506524 136.778119 
L 320.904385 136.58787 
L 321.302246 137.681439 
L 321.700107 136.633576 
L 322.097968 136.642311 
L 322.495829 137.565613 
L 322.89369 139.198328 
L 323.291551 138.418148 
L 323.689412 140.291533 
L 324.485134 140.423752 
L 324.882995 141.146801 
L 325.280856 139.829319 
L 325.678717 140.015277 
L 326.076578 138.973428 
L 326.474439 137.087736 
L 326.872299 139.238195 
L 327.27016 139.670962 
L 327.668021 139.4606 
L 328.065882 141.8773 
L 328.463743 139.852936 
L 329.259465 131.668787 
L 329.657326 125.158937 
L 330.453048 134.89833 
L 330.850909 134.177506 
L 331.24877 135.076657 
L 331.646631 133.962742 
L 332.442353 133.00896 
L 332.840214 133.150496 
L 333.238075 134.771939 
L 333.635936 134.370752 
L 334.033797 134.168105 
L 334.431658 132.262776 
L 334.829519 135.384609 
L 335.625241 132.444976 
L 336.023102 134.661349 
L 336.420963 133.37389 
L 336.818824 130.023716 
L 337.216684 130.352864 
L 337.614545 128.360408 
L 338.012406 127.192903 
L 338.410267 129.025945 
L 338.808128 129.396551 
L 339.60385 122.066316 
L 340.001711 121.941521 
L 340.399572 121.578885 
L 340.797433 120.836458 
L 341.195294 118.141114 
L 341.593155 119.563108 
L 341.991016 118.21782 
L 342.388877 118.320868 
L 342.786738 119.539798 
L 343.184599 122.521855 
L 343.58246 123.213318 
L 343.980321 123.262966 
L 344.378182 124.758901 
L 344.776043 122.586031 
L 345.571765 123.74739 
L 345.969626 124.01825 
L 346.367487 123.796251 
L 346.765348 123.357967 
L 347.163209 125.714433 
L 347.56107 124.630207 
L 347.95893 125.148679 
L 348.356791 123.608 
L 348.754652 124.675717 
L 349.550374 122.047894 
L 349.948235 116.81011 
L 350.346096 104.545441 
L 351.141818 116.805439 
L 351.539679 117.142086 
L 351.93754 118.860786 
L 352.335401 117.234222 
L 352.733262 119.975583 
L 353.131123 119.007073 
L 353.528984 115.601559 
L 353.926845 117.466436 
L 354.324706 117.460047 
L 354.722567 119.745811 
L 355.120428 115.868234 
L 355.518289 109.305612 
L 355.91615 109.460915 
L 356.314011 119.796178 
L 356.711872 108.19369 
L 357.507594 104.755211 
L 357.905455 108.419409 
L 358.303316 108.242577 
L 358.701176 106.908455 
L 359.099037 103.83999 
L 359.496898 104.476948 
L 360.29262 96.922098 
L 360.690481 97.685077 
L 361.088342 97.463089 
L 361.486203 95.032258 
L 361.884064 94.941765 
L 362.281925 95.844943 
L 362.679786 94.59996 
L 363.077647 95.434016 
L 363.475508 95.535178 
L 363.873369 98.847927 
L 364.27123 99.673976 
L 365.066952 102.656166 
L 365.464813 100.607815 
L 365.862674 101.736548 
L 366.260535 101.867251 
L 366.658396 99.036416 
L 367.056257 102.215592 
L 367.454118 103.098562 
L 367.851979 100.023972 
L 368.24984 99.192311 
L 368.647701 101.466972 
L 369.045561 97.969682 
L 369.443422 101.374899 
L 369.841283 101.6754 
L 370.239144 97.337195 
L 371.034866 83.231303 
L 371.432727 90.450419 
L 371.830588 95.369143 
L 372.228449 95.295022 
L 372.62631 95.875968 
L 373.024171 94.741777 
L 373.422032 94.874451 
L 373.819893 95.592352 
L 374.615615 93.288842 
L 375.013476 96.304953 
L 375.809198 89.078137 
L 376.207059 92.772478 
L 376.60492 88.508203 
L 377.002781 91.171628 
L 377.400642 91.825771 
L 377.798503 90.540742 
L 378.196364 87.378577 
L 378.594225 92.168136 
L 378.992086 92.009573 
L 379.389947 88.597443 
L 379.787807 89.175838 
L 380.185668 88.599356 
L 380.583529 83.976467 
L 381.379251 79.421336 
L 381.777112 79.777885 
L 382.174973 79.603674 
L 382.572834 78.477008 
L 382.970695 79.866454 
L 383.368556 78.389485 
L 383.766417 79.385147 
L 384.164278 77.997968 
L 384.96 83.389866 
L 385.357861 84.934577 
L 385.755722 83.874877 
L 386.153583 85.528651 
L 386.551444 85.068562 
L 386.949305 84.395336 
L 387.347166 84.094133 
L 387.745027 86.27112 
L 388.142888 86.955549 
L 388.540749 84.201018 
L 388.93861 85.143492 
L 389.336471 87.628278 
L 389.734332 85.069957 
L 390.132193 86.773433 
L 390.530053 87.313614 
L 390.927914 85.807342 
L 391.325775 80.901819 
L 391.723636 68.748955 
L 392.121497 74.461091 
L 392.519358 81.927757 
L 392.917219 81.928703 
L 393.31508 84.499426 
L 393.712941 83.469689 
L 394.508663 80.163292 
L 394.906524 79.431477 
L 395.304385 81.908727 
L 395.702246 66.349805 
L 396.497968 66.349805 
L 396.895829 78.064295 
L 397.29369 76.771867 
L 397.691551 77.246737 
L 398.089412 82.022911 
L 398.487273 81.298663 
L 398.487273 81.298663 
" clip-path="url(#p41bf8cad8d)" style="fill: none; stroke: #ff7f0e; stroke-width: 1.5; stroke-linecap: square"/>
   </g>
   <g id="line2d_17">
    <path d="M 73.832727 295.235462 
L 79.800642 295.20599 
L 80.198503 295.272507 
L 80.994225 295.163069 
L 81.392086 295.246924 
L 81.789947 295.148964 
L 82.187807 295.246353 
L 83.38139 295.147146 
L 94.521497 295.209916 
L 94.919358 295.168908 
L 95.317219 295.26328 
L 96.510802 294.966367 
L 96.908663 295.15612 
L 111.629519 295.357154 
L 112.823102 295.361255 
L 117.199572 295.226975 
L 117.995294 295.253228 
L 118.393155 295.317954 
L 119.188877 295.284481 
L 119.984599 295.285163 
L 120.780321 295.294897 
L 121.178182 295.388915 
L 124.36107 295.295833 
L 140.673369 295.21705 
L 141.07123 295.075789 
L 142.264813 295.331297 
L 143.060535 295.074711 
L 143.458396 295.159909 
L 143.856257 295.044198 
L 145.845561 295.249778 
L 146.641283 295.169231 
L 147.039144 294.850007 
L 147.437005 295.057187 
L 147.834866 294.960464 
L 149.028449 295.14592 
L 149.42631 295.004131 
L 149.824171 295.050999 
L 150.619893 294.82556 
L 151.017754 294.878501 
L 151.813476 294.796485 
L 152.211337 294.938401 
L 153.007059 294.783263 
L 153.40492 295.026061 
L 157.383529 294.768122 
L 157.78139 294.554922 
L 158.179251 294.500793 
L 158.974973 294.680304 
L 159.770695 294.636632 
L 160.168556 294.89641 
L 161.76 294.578005 
L 162.953583 294.61375 
L 163.351444 294.884065 
L 164.545027 294.430926 
L 165.340749 294.51207 
L 165.73861 294.452672 
L 166.136471 294.674713 
L 166.534332 294.458088 
L 167.330053 294.732668 
L 168.523636 294.353433 
L 169.717219 294.451884 
L 170.11508 294.240724 
L 170.512941 294.37696 
L 171.308663 294.076374 
L 171.706524 294.226028 
L 172.104385 294.119882 
L 172.502246 294.190309 
L 173.297968 294.142241 
L 174.09369 294.134832 
L 174.491551 294.027323 
L 174.889412 294.14528 
L 176.082995 293.975503 
L 176.480856 294.173193 
L 177.276578 294.021029 
L 177.674439 293.740975 
L 178.072299 293.613231 
L 178.47016 293.30317 
L 179.265882 293.259272 
L 179.663743 293.002744 
L 180.061604 293.511799 
L 180.459465 293.475648 
L 180.857326 293.183602 
L 181.255187 293.13054 
L 181.653048 292.733401 
L 182.050909 292.943329 
L 182.44877 292.391353 
L 183.244492 292.8737 
L 183.642353 292.771661 
L 184.040214 293.826246 
L 184.438075 293.751316 
L 184.835936 292.579139 
L 185.233797 292.450408 
L 185.631658 292.49623 
L 186.029519 292.717092 
L 186.42738 291.806923 
L 186.825241 292.570362 
L 187.223102 292.575007 
L 187.620963 292.141832 
L 188.018824 292.707559 
L 188.416684 291.931982 
L 188.814545 292.048089 
L 189.212406 292.480318 
L 190.008128 292.430342 
L 190.405989 292.71862 
L 190.80385 292.237112 
L 191.201711 292.52241 
L 191.599572 291.917328 
L 191.997433 292.384002 
L 192.395294 292.108883 
L 192.793155 292.4993 
L 193.191016 292.305447 
L 193.588877 292.64184 
L 194.384599 291.652451 
L 194.78246 292.453531 
L 195.180321 292.323499 
L 195.578182 291.898732 
L 195.976043 292.161147 
L 196.373904 292.578653 
L 196.771765 292.148237 
L 197.567487 291.778572 
L 197.965348 291.248938 
L 198.363209 291.505133 
L 198.76107 291.341 
L 199.15893 290.885842 
L 199.556791 291.010843 
L 199.954652 288.20437 
L 200.352513 291.862094 
L 200.750374 292.161163 
L 201.148235 291.16363 
L 201.546096 291.159856 
L 202.341818 290.555034 
L 202.739679 290.598732 
L 203.13754 290.316151 
L 203.535401 290.443763 
L 204.331123 289.850328 
L 204.728984 291.76154 
L 205.126845 292.487246 
L 205.524706 289.391201 
L 205.922567 289.734068 
L 206.718289 289.330751 
L 207.11615 289.510262 
L 207.514011 289.46156 
L 207.911872 290.066948 
L 208.309733 287.745988 
L 208.707594 289.415109 
L 209.105455 289.407314 
L 209.503316 288.729036 
L 209.901176 289.081283 
L 210.299037 289.621243 
L 210.696898 289.280892 
L 211.094759 289.361756 
L 211.49262 288.135084 
L 211.890481 288.70181 
L 212.288342 288.29834 
L 212.686203 287.672807 
L 213.084064 289.118302 
L 213.481925 288.019913 
L 213.879786 289.074625 
L 214.277647 288.002632 
L 214.675508 288.462161 
L 215.073369 287.858364 
L 215.47123 289.326545 
L 215.869091 289.008594 
L 216.266952 288.026709 
L 217.062674 288.915306 
L 217.460535 288.605526 
L 217.858396 287.439526 
L 218.256257 288.183475 
L 218.654118 286.467639 
L 219.051979 287.005384 
L 219.44984 286.135235 
L 220.245561 285.34131 
L 221.041283 285.491741 
L 221.439144 285.55126 
L 221.837005 284.442577 
L 222.234866 285.624166 
L 222.632727 285.314988 
L 223.030588 284.190779 
L 223.428449 284.448993 
L 223.82631 284.195958 
L 224.224171 284.307721 
L 225.019893 285.598985 
L 225.417754 287.481491 
L 225.815615 288.615133 
L 226.213476 284.206712 
L 226.611337 283.788556 
L 227.009198 283.8399 
L 227.407059 284.313338 
L 227.80492 284.231983 
L 228.202781 283.99765 
L 228.998503 284.865082 
L 229.396364 283.78678 
L 229.794225 284.04492 
L 230.192086 283.33066 
L 230.589947 284.530993 
L 230.987807 284.637651 
L 231.385668 283.557922 
L 232.18139 282.52253 
L 232.579251 281.87521 
L 232.977112 283.970683 
L 233.374973 282.925853 
L 233.772834 282.596403 
L 234.170695 283.600848 
L 234.568556 282.614677 
L 234.966417 283.385297 
L 235.364278 283.292463 
L 235.762139 282.828944 
L 236.16 283.884211 
L 236.557861 284.413803 
L 236.955722 283.934092 
L 237.353583 283.087412 
L 237.751444 283.458218 
L 238.149305 284.345505 
L 238.547166 283.82011 
L 239.342888 281.748016 
L 239.740749 281.880024 
L 240.13861 279.924322 
L 240.934332 279.892324 
L 241.332193 278.697037 
L 241.730053 280.058211 
L 242.127914 279.857287 
L 242.525775 278.626631 
L 242.923636 277.97484 
L 243.321497 279.536145 
L 243.719358 278.161131 
L 244.51508 277.916668 
L 245.310802 278.474447 
L 245.708663 276.660561 
L 246.106524 279.336796 
L 246.504385 283.548743 
L 247.300107 276.707578 
L 247.697968 276.976075 
L 248.095829 276.41726 
L 248.49369 277.176592 
L 248.891551 277.657698 
L 249.289412 277.474784 
L 249.687273 277.441924 
L 250.085134 277.980991 
L 250.482995 277.094085 
L 250.880856 276.995908 
L 251.278717 276.490393 
L 251.676578 277.483498 
L 252.074439 277.634435 
L 252.472299 277.29569 
L 252.87016 277.351966 
L 253.268021 274.041114 
L 253.665882 278.318368 
L 254.063743 275.578803 
L 254.461604 275.627912 
L 254.859465 276.41967 
L 255.257326 278.51954 
L 255.655187 277.67045 
L 256.053048 276.298051 
L 256.450909 275.78582 
L 256.84877 278.658899 
L 257.246631 278.125244 
L 257.644492 278.13437 
L 258.042353 277.238163 
L 258.440214 278.165697 
L 258.838075 278.731096 
L 259.633797 279.340115 
L 260.429519 275.667668 
L 260.82738 275.980672 
L 261.225241 275.340718 
L 261.623102 276.254179 
L 262.020963 274.704833 
L 262.418824 275.057614 
L 262.816684 275.876175 
L 263.214545 274.552733 
L 263.612406 275.080776 
L 264.010267 276.459457 
L 264.408128 274.487955 
L 264.805989 273.42363 
L 265.20385 274.794496 
L 265.601711 274.925352 
L 265.999572 290.030685 
L 266.397433 279.680905 
L 266.795294 276.736965 
L 267.193155 281.929054 
L 267.591016 280.592982 
L 267.988877 274.476852 
L 268.386738 275.639702 
L 268.784599 274.176208 
L 269.18246 274.242625 
L 269.580321 274.098182 
L 269.978182 276.815975 
L 270.376043 275.253443 
L 270.773904 274.391205 
L 271.171765 273.891477 
L 271.569626 275.328325 
L 271.967487 275.489721 
L 272.365348 276.214545 
L 272.763209 275.982421 
L 273.16107 271.594234 
L 273.55893 273.657767 
L 273.956791 272.51873 
L 274.354652 275.782401 
L 274.752513 273.751204 
L 275.150374 273.241213 
L 275.946096 274.5238 
L 276.343957 273.440165 
L 277.139679 275.945804 
L 277.53754 276.914473 
L 277.935401 277.576707 
L 278.731123 275.891321 
L 279.526845 277.906574 
L 279.924706 277.16642 
L 280.322567 276.791216 
L 280.720428 276.895819 
L 281.118289 272.602971 
L 281.51615 272.118224 
L 282.709733 272.010673 
L 283.107594 272.529616 
L 283.505455 271.226107 
L 283.903316 271.742809 
L 284.301176 268.890113 
L 284.699037 271.964486 
L 285.096898 270.719445 
L 285.494759 268.572511 
L 285.89262 270.978388 
L 286.290481 268.965508 
L 286.688342 270.291904 
L 287.086203 270.334244 
L 287.484064 271.628409 
L 287.881925 283.309664 
L 288.677647 271.395488 
L 289.075508 270.956383 
L 289.473369 270.693324 
L 289.87123 270.06276 
L 290.269091 272.448287 
L 290.666952 271.27899 
L 291.064813 272.027721 
L 291.462674 269.332832 
L 291.860535 271.054544 
L 292.656257 269.656537 
L 293.054118 270.727055 
L 293.451979 270.238662 
L 293.84984 269.558762 
L 294.247701 272.048954 
L 294.645561 268.908117 
L 295.043422 271.016395 
L 295.441283 269.267398 
L 295.839144 268.842737 
L 296.237005 268.941389 
L 297.032727 272.212997 
L 297.430588 270.231417 
L 297.828449 271.63864 
L 298.22631 271.982147 
L 298.624171 271.763942 
L 299.022032 272.604783 
L 299.419893 270.806012 
L 299.817754 272.469752 
L 300.215615 271.935616 
L 300.613476 272.144139 
L 301.011337 274.482475 
L 301.807059 269.280086 
L 302.20492 269.277809 
L 302.602781 269.42947 
L 303.000642 268.162351 
L 303.398503 268.908572 
L 303.796364 269.316212 
L 304.194225 266.85425 
L 304.592086 268.317209 
L 304.989947 267.94301 
L 305.785668 269.550888 
L 306.183529 266.073161 
L 306.979251 268.126675 
L 307.377112 268.089213 
L 307.774973 267.789409 
L 308.172834 269.556886 
L 308.570695 280.491634 
L 308.968556 280.25838 
L 309.366417 269.094245 
L 309.764278 267.652883 
L 310.162139 267.362539 
L 310.56 267.689167 
L 310.957861 268.257552 
L 311.355722 269.68445 
L 311.753583 269.114215 
L 312.151444 269.737005 
L 312.549305 268.909993 
L 312.947166 268.408658 
L 313.345027 277.953585 
L 313.742888 282.651135 
L 314.140749 283.94835 
L 314.936471 281.684273 
L 315.732193 282.846346 
L 316.130053 282.835629 
L 316.527914 280.051193 
L 316.925775 280.088175 
L 317.323636 281.492613 
L 317.721497 276.869697 
L 318.119358 278.147994 
L 318.517219 277.732939 
L 318.91508 276.81172 
L 319.312941 280.513269 
L 319.710802 279.136591 
L 320.108663 279.659101 
L 320.506524 278.378532 
L 320.904385 277.758807 
L 321.302246 278.695774 
L 321.700107 278.052015 
L 322.097968 278.677574 
L 322.495829 278.126422 
L 322.89369 275.685091 
L 323.291551 275.774749 
L 323.689412 272.805089 
L 324.087273 274.861763 
L 324.485134 274.877046 
L 324.882995 273.198746 
L 325.280856 275.057519 
L 325.678717 276.183931 
L 326.076578 276.205107 
L 326.474439 275.715942 
L 326.872299 277.508024 
L 327.668021 274.686395 
L 328.065882 273.559216 
L 328.861604 277.196843 
L 329.259465 280.706367 
L 329.657326 285.293681 
L 330.453048 275.781534 
L 330.850909 276.721434 
L 332.044492 275.917564 
L 332.442353 277.464209 
L 332.840214 277.038708 
L 333.238075 272.951883 
L 333.635936 272.810765 
L 334.033797 271.335534 
L 334.431658 275.996166 
L 334.829519 273.788132 
L 335.22738 274.54591 
L 335.625241 275.657643 
L 336.023102 273.582156 
L 336.420963 270.009962 
L 336.818824 276.608841 
L 337.216684 274.407667 
L 337.614545 276.852512 
L 338.012406 278.514625 
L 338.410267 272.078976 
L 338.808128 271.120146 
L 339.205989 272.879215 
L 339.60385 276.525245 
L 340.001711 278.324725 
L 340.399572 276.377917 
L 340.797433 276.666379 
L 341.195294 278.169084 
L 341.593155 276.315781 
L 342.388877 276.405566 
L 342.786738 278.471921 
L 343.184599 273.718249 
L 343.58246 271.90504 
L 343.980321 273.988802 
L 344.378182 271.313091 
L 344.776043 273.070664 
L 345.173904 270.807222 
L 345.969626 272.646061 
L 346.367487 272.570333 
L 346.765348 273.43365 
L 347.163209 270.942517 
L 347.56107 270.499455 
L 347.95893 271.746879 
L 348.356791 271.165948 
L 348.754652 269.34794 
L 349.152513 270.67376 
L 349.550374 270.656369 
L 349.948235 274.493636 
L 350.346096 283.81101 
L 350.743957 278.749238 
L 351.141818 277.315333 
L 351.539679 272.749823 
L 351.93754 270.832466 
L 352.335401 275.29683 
L 352.733262 270.660961 
L 353.131123 269.746934 
L 353.528984 273.101959 
L 353.926845 272.034443 
L 354.324706 272.008295 
L 354.722567 270.333134 
L 355.120428 267.032402 
L 355.518289 272.828711 
L 355.91615 272.887396 
L 356.314011 261.085072 
L 356.711872 272.206376 
L 357.109733 271.183699 
L 357.507594 276.335408 
L 358.303316 271.338631 
L 358.701176 274.500368 
L 359.099037 274.460856 
L 359.496898 272.241433 
L 359.894759 272.363464 
L 360.29262 276.990259 
L 360.690481 270.539173 
L 361.088342 273.06539 
L 361.486203 277.179198 
L 361.884064 279.090456 
L 362.281925 276.528933 
L 362.679786 278.09741 
L 363.475508 277.716267 
L 363.873369 276.425346 
L 364.27123 274.656817 
L 364.669091 271.798202 
L 365.066952 270.537905 
L 365.464813 271.072052 
L 365.862674 270.328034 
L 366.260535 268.345455 
L 366.658396 272.483572 
L 367.056257 272.831723 
L 367.454118 269.575054 
L 367.851979 269.051006 
L 368.24984 272.864989 
L 368.647701 268.857872 
L 369.045561 274.154552 
L 369.443422 269.124493 
L 369.841283 268.800889 
L 370.239144 270.860828 
L 370.637005 275.133357 
L 371.034866 280.989519 
L 371.830588 271.440084 
L 372.228449 270.111294 
L 372.62631 269.943832 
L 373.024171 273.468797 
L 373.819893 270.552712 
L 374.217754 273.319725 
L 374.615615 273.518372 
L 375.013476 268.851953 
L 375.411337 272.890767 
L 375.809198 274.905461 
L 376.207059 269.678172 
L 376.60492 275.137157 
L 377.400642 269.199566 
L 378.196364 274.827604 
L 378.594225 269.972204 
L 378.992086 268.68633 
L 379.389947 273.747922 
L 379.787807 273.218072 
L 380.185668 270.891468 
L 380.583529 275.478803 
L 380.98139 276.449031 
L 381.379251 275.037707 
L 381.777112 276.238024 
L 382.174973 276.007063 
L 382.572834 276.684585 
L 382.970695 275.141638 
L 383.368556 277.006197 
L 383.766417 274.667582 
L 384.164278 277.630409 
L 384.96 268.303607 
L 385.357861 268.328418 
L 385.755722 271.517788 
L 386.153583 270.696304 
L 386.551444 267.223883 
L 386.949305 270.237663 
L 387.347166 269.32501 
L 387.745027 271.387508 
L 388.142888 267.918469 
L 388.93861 271.050559 
L 389.336471 268.782107 
L 389.734332 272.594346 
L 390.132193 268.636243 
L 390.530053 270.498799 
L 390.927914 269.086112 
L 391.325775 273.635371 
L 391.723636 283.027009 
L 392.121497 280.784467 
L 392.519358 273.302439 
L 392.917219 272.469594 
L 393.31508 269.987656 
L 393.712941 269.511978 
L 394.110802 272.536565 
L 394.508663 271.149946 
L 394.906524 272.585622 
L 395.304385 270.109798 
L 395.702246 295.488 
L 396.497968 295.488 
L 396.895829 271.561724 
L 397.691551 273.95709 
L 398.089412 268.731566 
L 398.487273 267.757337 
L 398.487273 267.757337 
" clip-path="url(#p41bf8cad8d)" style="fill: none; stroke: #2ca02c; stroke-width: 1.5; stroke-linecap: square"/>
   </g>
   <g id="patch_3">
    <path d="M 57.6 307.584 
L 57.6 41.472 
" style="fill: none; stroke: #000000; stroke-width: 0.8; stroke-linejoin: miter; stroke-linecap: square"/>
   </g>
   <g id="patch_4">
    <path d="M 414.72 307.584 
L 414.72 41.472 
" style="fill: none; stroke: #000000; stroke-width: 0.8; stroke-linejoin: miter; stroke-linecap: square"/>
   </g>
   <g id="patch_5">
    <path d="M 57.6 307.584 
L 414.72 307.584 
" style="fill: none; stroke: #000000; stroke-width: 0.8; stroke-linejoin: miter; stroke-linecap: square"/>
   </g>
   <g id="patch_6">
    <path d="M 57.6 41.472 
L 414.72 41.472 
" style="fill: none; stroke: #000000; stroke-width: 0.8; stroke-linejoin: miter; stroke-linecap: square"/>
   </g>
   <g id="legend_1">
    <g id="patch_7">
     <path d="M 64.6 93.506375 
L 186.25625 93.506375 
Q 188.25625 93.506375 188.25625 91.506375 
L 188.25625 48.472 
Q 188.25625 46.472 186.25625 46.472 
L 64.6 46.472 
Q 62.6 46.472 62.6 48.472 
L 62.6 91.506375 
Q 62.6 93.506375 64.6 93.506375 
z
" style="fill: #ffffff; opacity: 0.8; stroke: #cccccc; stroke-linejoin: miter"/>
    </g>
    <g id="line2d_18">
     <path d="M 66.6 54.570438 
L 76.6 54.570438 
L 86.6 54.570438 
" style="fill: none; stroke: #1f77b4; stroke-width: 1.5; stroke-linecap: square"/>
    </g>
    <g id="text_17">
     <!-- Weekly maximum -->
     <g transform="translate(94.6 58.070438) scale(0.1 -0.1)">
      <defs>
       <path id="DejaVuSans-57" d="M 213 4666 
L 850 4666 
L 1831 722 
L 2809 4666 
L 3519 4666 
L 4500 722 
L 5478 4666 
L 6119 4666 
L 4947 0 
L 4153 0 
L 3169 4050 
L 2175 0 
L 1381 0 
L 213 4666 
z
" transform="scale(0.015625)"/>
       <path id="DejaVuSans-6b" d="M 581 4863 
L 1159 4863 
L 1159 1991 
L 2875 3500 
L 3609 3500 
L 1753 1863 
L 3688 0 
L 2938 0 
L 1159 1709 
L 1159 0 
L 581 0 
L 581 4863 
z
" transform="scale(0.015625)"/>
       <path id="DejaVuSans-79" d="M 2059 -325 
Q 1816 -950 1584 -1140 
Q 1353 -1331 966 -1331 
L 506 -1331 
L 506 -850 
L 844 -850 
Q 1081 -850 1212 -737 
Q 1344 -625 1503 -206 
L 1606 56 
L 191 3500 
L 800 3500 
L 1894 763 
L 2988 3500 
L 3597 3500 
L 2059 -325 
z
" transform="scale(0.015625)"/>
       <path id="DejaVuSans-6d" d="M 3328 2828 
Q 3544 3216 3844 3400 
Q 4144 3584 4550 3584 
Q 5097 3584 5394 3201 
Q 5691 2819 5691 2113 
L 5691 0 
L 5113 0 
L 5113 2094 
Q 5113 2597 4934 2840 
Q 4756 3084 4391 3084 
Q 3944 3084 3684 2787 
Q 3425 2491 3425 1978 
L 3425 0 
L 2847 0 
L 2847 2094 
Q 2847 2600 2669 2842 
Q 2491 3084 2119 3084 
Q 1678 3084 1418 2786 
Q 1159 2488 1159 1978 
L 1159 0 
L 581 0 
L 581 3500 
L 1159 3500 
L 1159 2956 
Q 1356 3278 1631 3431 
Q 1906 3584 2284 3584 
Q 2666 3584 2933 3390 
Q 3200 3197 3328 2828 
z
" transform="scale(0.015625)"/>
       <path id="DejaVuSans-78" d="M 3513 3500 
L 2247 1797 
L 3578 0 
L 2900 0 
L 1881 1375 
L 863 0 
L 184 0 
L 1544 1831 
L 300 3500 
L 978 3500 
L 1906 2253 
L 2834 3500 
L 3513 3500 
z
" transform="scale(0.015625)"/>
       <path id="DejaVuSans-75" d="M 544 1381 
L 544 3500 
L 1119 3500 
L 1119 1403 
Q 1119 906 1312 657 
Q 1506 409 1894 409 
Q 2359 409 2629 706 
Q 2900 1003 2900 1516 
L 2900 3500 
L 3475 3500 
L 3475 0 
L 2900 0 
L 2900 538 
Q 2691 219 2414 64 
Q 2138 -91 1772 -91 
Q 1169 -91 856 284 
Q 544 659 544 1381 
z
M 1991 3584 
L 1991 3584 
z
" transform="scale(0.015625)"/>
      </defs>
      <use xlink:href="#DejaVuSans-57"/>
      <use xlink:href="#DejaVuSans-65" x="93.001953"/>
      <use xlink:href="#DejaVuSans-65" x="154.525391"/>
      <use xlink:href="#DejaVuSans-6b" x="216.048828"/>
      <use xlink:href="#DejaVuSans-6c" x="273.958984"/>
      <use xlink:href="#DejaVuSans-79" x="301.742188"/>
      <use xlink:href="#DejaVuSans-20" x="360.921875"/>
      <use xlink:href="#DejaVuSans-6d" x="392.708984"/>
      <use xlink:href="#DejaVuSans-61" x="490.121094"/>
      <use xlink:href="#DejaVuSans-78" x="551.400391"/>
      <use xlink:href="#DejaVuSans-69" x="610.580078"/>
      <use xlink:href="#DejaVuSans-6d" x="638.363281"/>
      <use xlink:href="#DejaVuSans-75" x="735.775391"/>
      <use xlink:href="#DejaVuSans-6d" x="799.154297"/>
     </g>
    </g>
    <g id="line2d_19">
     <path d="M 66.6 69.248563 
L 76.6 69.248563 
L 86.6 69.248563 
" style="fill: none; stroke: #ff7f0e; stroke-width: 1.5; stroke-linecap: square"/>
    </g>
    <g id="text_18">
     <!-- Weekly minimum -->
     <g transform="translate(94.6 72.748563) scale(0.1 -0.1)">
      <defs>
       <path id="DejaVuSans-6e" d="M 3513 2113 
L 3513 0 
L 2938 0 
L 2938 2094 
Q 2938 2591 2744 2837 
Q 2550 3084 2163 3084 
Q 1697 3084 1428 2787 
Q 1159 2491 1159 1978 
L 1159 0 
L 581 0 
L 581 3500 
L 1159 3500 
L 1159 2956 
Q 1366 3272 1645 3428 
Q 1925 3584 2291 3584 
Q 2894 3584 3203 3211 
Q 3513 2838 3513 2113 
z
" transform="scale(0.015625)"/>
      </defs>
      <use xlink:href="#DejaVuSans-57"/>
      <use xlink:href="#DejaVuSans-65" x="93.001953"/>
      <use xlink:href="#DejaVuSans-65" x="154.525391"/>
      <use xlink:href="#DejaVuSans-6b" x="216.048828"/>
      <use xlink:href="#DejaVuSans-6c" x="273.958984"/>
      <use xlink:href="#DejaVuSans-79" x="301.742188"/>
      <use xlink:href="#DejaVuSans-20" x="360.921875"/>
      <use xlink:href="#DejaVuSans-6d" x="392.708984"/>
      <use xlink:href="#DejaVuSans-69" x="490.121094"/>
      <use xlink:href="#DejaVuSans-6e" x="517.904297"/>
      <use xlink:href="#DejaVuSans-69" x="581.283203"/>
      <use xlink:href="#DejaVuSans-6d" x="609.066406"/>
      <use xlink:href="#DejaVuSans-75" x="706.478516"/>
      <use xlink:href="#DejaVuSans-6d" x="769.857422"/>
     </g>
    </g>
    <g id="line2d_20">
     <path d="M 66.6 83.926688 
L 76.6 83.926688 
L 86.6 83.926688 
" style="fill: none; stroke: #2ca02c; stroke-width: 1.5; stroke-linecap: square"/>
    </g>
    <g id="text_19">
     <!-- Weekly range -->
     <g transform="translate(94.6 87.426688) scale(0.1 -0.1)">
      <use xlink:href="#DejaVuSans-57"/>
      <use xlink:href="#DejaVuSans-65" x="93.001953"/>
      <use xlink:href="#DejaVuSans-65" x="154.525391"/>
      <use xlink:href="#DejaVuSans-6b" x="216.048828"/>
      <use xlink:href="#DejaVuSans-6c" x="273.958984"/>
      <use xlink:href="#DejaVuSans-79" x="301.742188"/>
      <use xlink:href="#DejaVuSans-20" x="360.921875"/>
      <use xlink:href="#DejaVuSans-72" x="392.708984"/>
      <use xlink:href="#DejaVuSans-61" x="433.822266"/>
      <use xlink:href="#DejaVuSans-6e" x="495.101562"/>
      <use xlink:href="#DejaVuSans-67" x="558.480469"/>
      <use xlink:href="#DejaVuSans-65" x="621.957031"/>
     </g>
    </g>
   </g>
  </g>
 </g>
 <defs>
  <clipPath id="p41bf8cad8d">
   <rect x="57.6" y="41.472" width="357.12" height="266.112"/>
  </clipPath>
 </defs>
</svg>
