<?xml version="1.0" encoding="utf-8" standalone="no"?>
<!DOCTYPE svg PUBLIC "-//W3C//DTD SVG 1.1//EN"
  "http://www.w3.org/Graphics/SVG/1.1/DTD/svg11.dtd">
<svg xmlns:xlink="http://www.w3.org/1999/xlink" width="460.8pt" height="345.6pt" viewBox="0 0 460.8 345.6" xmlns="http://www.w3.org/2000/svg" version="1.1">
 <metadata>
  <rdf:RDF xmlns:dc="http://purl.org/dc/elements/1.1/" xmlns:cc="http://creativecommons.org/ns#" xmlns:rdf="http://www.w3.org/1999/02/22-rdf-syntax-ns#">
   <cc:Work>
    <dc:type rdf:resource="http://purl.org/dc/dcmitype/StillImage"/>
    <dc:date>2022-12-28T05:31:49.724202</dc:date>
    <dc:format>image/svg+xml</dc:format>
    <dc:creator>
     <cc:Agent>
      <dc:title>Matplotlib v3.6.2, https://matplotlib.org/</dc:title>
     </cc:Agent>
    </dc:creator>
   </cc:Work>
  </rdf:RDF>
 </metadata>
 <defs>
  <style type="text/css">*{stroke-linejoin: round; stroke-linecap: butt}</style>
 </defs>
 <g id="figure_1">
  <g id="patch_1">
   <path d="M 0 345.6 
L 460.8 345.6 
L 460.8 0 
L 0 0 
z
" style="fill: #ffffff"/>
  </g>
  <g id="axes_1">
   <g id="patch_2">
    <path d="M 57.6 307.584 
L 414.72 307.584 
L 414.72 41.472 
L 57.6 41.472 
z
" style="fill: #ffffff"/>
   </g>
   <g id="matplotlib.axis_1">
    <g id="xtick_1">
     <g id="line2d_1">
      <defs>
       <path id="ma240b71abd" d="M 0 0 
L 0 3.5 
" style="stroke: #000000; stroke-width: 0.8"/>
      </defs>
      <g>
       <use xlink:href="#ma240b71abd" x="58.683424" y="307.584" style="stroke: #000000; stroke-width: 0.8"/>
      </g>
     </g>
     <g id="text_1">
      <!-- 2008 -->
      <g transform="translate(45.958424 322.182437) scale(0.1 -0.1)">
       <defs>
        <path id="DejaVuSans-32" d="M 1228 531 
L 3431 531 
L 3431 0 
L 469 0 
L 469 531 
Q 828 903 1448 1529 
Q 2069 2156 2228 2338 
Q 2531 2678 2651 2914 
Q 2772 3150 2772 3378 
Q 2772 3750 2511 3984 
Q 2250 4219 1831 4219 
Q 1534 4219 1204 4116 
Q 875 4013 500 3803 
L 500 4441 
Q 881 4594 1212 4672 
Q 1544 4750 1819 4750 
Q 2544 4750 2975 4387 
Q 3406 4025 3406 3419 
Q 3406 3131 3298 2873 
Q 3191 2616 2906 2266 
Q 2828 2175 2409 1742 
Q 1991 1309 1228 531 
z
" transform="scale(0.015625)"/>
        <path id="DejaVuSans-30" d="M 2034 4250 
Q 1547 4250 1301 3770 
Q 1056 3291 1056 2328 
Q 1056 1369 1301 889 
Q 1547 409 2034 409 
Q 2525 409 2770 889 
Q 3016 1369 3016 2328 
Q 3016 3291 2770 3770 
Q 2525 4250 2034 4250 
z
M 2034 4750 
Q 2819 4750 3233 4129 
Q 3647 3509 3647 2328 
Q 3647 1150 3233 529 
Q 2819 -91 2034 -91 
Q 1250 -91 836 529 
Q 422 1150 422 2328 
Q 422 3509 836 4129 
Q 1250 4750 2034 4750 
z
" transform="scale(0.015625)"/>
        <path id="DejaVuSans-38" d="M 2034 2216 
Q 1584 2216 1326 1975 
Q 1069 1734 1069 1313 
Q 1069 891 1326 650 
Q 1584 409 2034 409 
Q 2484 409 2743 651 
Q 3003 894 3003 1313 
Q 3003 1734 2745 1975 
Q 2488 2216 2034 2216 
z
M 1403 2484 
Q 997 2584 770 2862 
Q 544 3141 544 3541 
Q 544 4100 942 4425 
Q 1341 4750 2034 4750 
Q 2731 4750 3128 4425 
Q 3525 4100 3525 3541 
Q 3525 3141 3298 2862 
Q 3072 2584 2669 2484 
Q 3125 2378 3379 2068 
Q 3634 1759 3634 1313 
Q 3634 634 3220 271 
Q 2806 -91 2034 -91 
Q 1263 -91 848 271 
Q 434 634 434 1313 
Q 434 1759 690 2068 
Q 947 2378 1403 2484 
z
M 1172 3481 
Q 1172 3119 1398 2916 
Q 1625 2713 2034 2713 
Q 2441 2713 2670 2916 
Q 2900 3119 2900 3481 
Q 2900 3844 2670 4047 
Q 2441 4250 2034 4250 
Q 1625 4250 1398 4047 
Q 1172 3844 1172 3481 
z
" transform="scale(0.015625)"/>
       </defs>
       <use xlink:href="#DejaVuSans-32"/>
       <use xlink:href="#DejaVuSans-30" x="63.623047"/>
       <use xlink:href="#DejaVuSans-30" x="127.246094"/>
       <use xlink:href="#DejaVuSans-38" x="190.869141"/>
      </g>
     </g>
    </g>
    <g id="xtick_2">
     <g id="line2d_2">
      <g>
       <use xlink:href="#ma240b71abd" x="104.069247" y="307.584" style="stroke: #000000; stroke-width: 0.8"/>
      </g>
     </g>
     <g id="text_2">
      <!-- 2010 -->
      <g transform="translate(91.344247 322.182437) scale(0.1 -0.1)">
       <defs>
        <path id="DejaVuSans-31" d="M 794 531 
L 1825 531 
L 1825 4091 
L 703 3866 
L 703 4441 
L 1819 4666 
L 2450 4666 
L 2450 531 
L 3481 531 
L 3481 0 
L 794 0 
L 794 531 
z
" transform="scale(0.015625)"/>
       </defs>
       <use xlink:href="#DejaVuSans-32"/>
       <use xlink:href="#DejaVuSans-30" x="63.623047"/>
       <use xlink:href="#DejaVuSans-31" x="127.246094"/>
       <use xlink:href="#DejaVuSans-30" x="190.869141"/>
      </g>
     </g>
    </g>
    <g id="xtick_3">
     <g id="line2d_3">
      <g>
       <use xlink:href="#ma240b71abd" x="149.392984" y="307.584" style="stroke: #000000; stroke-width: 0.8"/>
      </g>
     </g>
     <g id="text_3">
      <!-- 2012 -->
      <g transform="translate(136.667984 322.182437) scale(0.1 -0.1)">
       <use xlink:href="#DejaVuSans-32"/>
       <use xlink:href="#DejaVuSans-30" x="63.623047"/>
       <use xlink:href="#DejaVuSans-31" x="127.246094"/>
       <use xlink:href="#DejaVuSans-32" x="190.869141"/>
      </g>
     </g>
    </g>
    <g id="xtick_4">
     <g id="line2d_4">
      <g>
       <use xlink:href="#ma240b71abd" x="194.778808" y="307.584" style="stroke: #000000; stroke-width: 0.8"/>
      </g>
     </g>
     <g id="text_4">
      <!-- 2014 -->
      <g transform="translate(182.053808 322.182437) scale(0.1 -0.1)">
       <defs>
        <path id="DejaVuSans-34" d="M 2419 4116 
L 825 1625 
L 2419 1625 
L 2419 4116 
z
M 2253 4666 
L 3047 4666 
L 3047 1625 
L 3713 1625 
L 3713 1100 
L 3047 1100 
L 3047 0 
L 2419 0 
L 2419 1100 
L 313 1100 
L 313 1709 
L 2253 4666 
z
" transform="scale(0.015625)"/>
       </defs>
       <use xlink:href="#DejaVuSans-32"/>
       <use xlink:href="#DejaVuSans-30" x="63.623047"/>
       <use xlink:href="#DejaVuSans-31" x="127.246094"/>
       <use xlink:href="#DejaVuSans-34" x="190.869141"/>
      </g>
     </g>
    </g>
    <g id="xtick_5">
     <g id="line2d_5">
      <g>
       <use xlink:href="#ma240b71abd" x="240.102544" y="307.584" style="stroke: #000000; stroke-width: 0.8"/>
      </g>
     </g>
     <g id="text_5">
      <!-- 2016 -->
      <g transform="translate(227.377544 322.182437) scale(0.1 -0.1)">
       <defs>
        <path id="DejaVuSans-36" d="M 2113 2584 
Q 1688 2584 1439 2293 
Q 1191 2003 1191 1497 
Q 1191 994 1439 701 
Q 1688 409 2113 409 
Q 2538 409 2786 701 
Q 3034 994 3034 1497 
Q 3034 2003 2786 2293 
Q 2538 2584 2113 2584 
z
M 3366 4563 
L 3366 3988 
Q 3128 4100 2886 4159 
Q 2644 4219 2406 4219 
Q 1781 4219 1451 3797 
Q 1122 3375 1075 2522 
Q 1259 2794 1537 2939 
Q 1816 3084 2150 3084 
Q 2853 3084 3261 2657 
Q 3669 2231 3669 1497 
Q 3669 778 3244 343 
Q 2819 -91 2113 -91 
Q 1303 -91 875 529 
Q 447 1150 447 2328 
Q 447 3434 972 4092 
Q 1497 4750 2381 4750 
Q 2619 4750 2861 4703 
Q 3103 4656 3366 4563 
z
" transform="scale(0.015625)"/>
       </defs>
       <use xlink:href="#DejaVuSans-32"/>
       <use xlink:href="#DejaVuSans-30" x="63.623047"/>
       <use xlink:href="#DejaVuSans-31" x="127.246094"/>
       <use xlink:href="#DejaVuSans-36" x="190.869141"/>
      </g>
     </g>
    </g>
    <g id="xtick_6">
     <g id="line2d_6">
      <g>
       <use xlink:href="#ma240b71abd" x="285.488368" y="307.584" style="stroke: #000000; stroke-width: 0.8"/>
      </g>
     </g>
     <g id="text_6">
      <!-- 2018 -->
      <g transform="translate(272.763368 322.182437) scale(0.1 -0.1)">
       <use xlink:href="#DejaVuSans-32"/>
       <use xlink:href="#DejaVuSans-30" x="63.623047"/>
       <use xlink:href="#DejaVuSans-31" x="127.246094"/>
       <use xlink:href="#DejaVuSans-38" x="190.869141"/>
      </g>
     </g>
    </g>
    <g id="xtick_7">
     <g id="line2d_7">
      <g>
       <use xlink:href="#ma240b71abd" x="330.812105" y="307.584" style="stroke: #000000; stroke-width: 0.8"/>
      </g>
     </g>
     <g id="text_7">
      <!-- 2020 -->
      <g transform="translate(318.087105 322.182437) scale(0.1 -0.1)">
       <use xlink:href="#DejaVuSans-32"/>
       <use xlink:href="#DejaVuSans-30" x="63.623047"/>
       <use xlink:href="#DejaVuSans-32" x="127.246094"/>
       <use xlink:href="#DejaVuSans-30" x="190.869141"/>
      </g>
     </g>
    </g>
    <g id="xtick_8">
     <g id="line2d_8">
      <g>
       <use xlink:href="#ma240b71abd" x="376.197928" y="307.584" style="stroke: #000000; stroke-width: 0.8"/>
      </g>
     </g>
     <g id="text_8">
      <!-- 2022 -->
      <g transform="translate(363.472928 322.182437) scale(0.1 -0.1)">
       <use xlink:href="#DejaVuSans-32"/>
       <use xlink:href="#DejaVuSans-30" x="63.623047"/>
       <use xlink:href="#DejaVuSans-32" x="127.246094"/>
       <use xlink:href="#DejaVuSans-32" x="190.869141"/>
      </g>
     </g>
    </g>
    <g id="text_9">
     <!-- Updated 2022-12-28 05:31:49.722101 - Last record 2022-12-26 -->
     <g transform="translate(75.905312 335.860562) scale(0.1 -0.1)">
      <defs>
       <path id="DejaVuSans-55" d="M 556 4666 
L 1191 4666 
L 1191 1831 
Q 1191 1081 1462 751 
Q 1734 422 2344 422 
Q 2950 422 3222 751 
Q 3494 1081 3494 1831 
L 3494 4666 
L 4128 4666 
L 4128 1753 
Q 4128 841 3676 375 
Q 3225 -91 2344 -91 
Q 1459 -91 1007 375 
Q 556 841 556 1753 
L 556 4666 
z
" transform="scale(0.015625)"/>
       <path id="DejaVuSans-70" d="M 1159 525 
L 1159 -1331 
L 581 -1331 
L 581 3500 
L 1159 3500 
L 1159 2969 
Q 1341 3281 1617 3432 
Q 1894 3584 2278 3584 
Q 2916 3584 3314 3078 
Q 3713 2572 3713 1747 
Q 3713 922 3314 415 
Q 2916 -91 2278 -91 
Q 1894 -91 1617 61 
Q 1341 213 1159 525 
z
M 3116 1747 
Q 3116 2381 2855 2742 
Q 2594 3103 2138 3103 
Q 1681 3103 1420 2742 
Q 1159 2381 1159 1747 
Q 1159 1113 1420 752 
Q 1681 391 2138 391 
Q 2594 391 2855 752 
Q 3116 1113 3116 1747 
z
" transform="scale(0.015625)"/>
       <path id="DejaVuSans-64" d="M 2906 2969 
L 2906 4863 
L 3481 4863 
L 3481 0 
L 2906 0 
L 2906 525 
Q 2725 213 2448 61 
Q 2172 -91 1784 -91 
Q 1150 -91 751 415 
Q 353 922 353 1747 
Q 353 2572 751 3078 
Q 1150 3584 1784 3584 
Q 2172 3584 2448 3432 
Q 2725 3281 2906 2969 
z
M 947 1747 
Q 947 1113 1208 752 
Q 1469 391 1925 391 
Q 2381 391 2643 752 
Q 2906 1113 2906 1747 
Q 2906 2381 2643 2742 
Q 2381 3103 1925 3103 
Q 1469 3103 1208 2742 
Q 947 2381 947 1747 
z
" transform="scale(0.015625)"/>
       <path id="DejaVuSans-61" d="M 2194 1759 
Q 1497 1759 1228 1600 
Q 959 1441 959 1056 
Q 959 750 1161 570 
Q 1363 391 1709 391 
Q 2188 391 2477 730 
Q 2766 1069 2766 1631 
L 2766 1759 
L 2194 1759 
z
M 3341 1997 
L 3341 0 
L 2766 0 
L 2766 531 
Q 2569 213 2275 61 
Q 1981 -91 1556 -91 
Q 1019 -91 701 211 
Q 384 513 384 1019 
Q 384 1609 779 1909 
Q 1175 2209 1959 2209 
L 2766 2209 
L 2766 2266 
Q 2766 2663 2505 2880 
Q 2244 3097 1772 3097 
Q 1472 3097 1187 3025 
Q 903 2953 641 2809 
L 641 3341 
Q 956 3463 1253 3523 
Q 1550 3584 1831 3584 
Q 2591 3584 2966 3190 
Q 3341 2797 3341 1997 
z
" transform="scale(0.015625)"/>
       <path id="DejaVuSans-74" d="M 1172 4494 
L 1172 3500 
L 2356 3500 
L 2356 3053 
L 1172 3053 
L 1172 1153 
Q 1172 725 1289 603 
Q 1406 481 1766 481 
L 2356 481 
L 2356 0 
L 1766 0 
Q 1100 0 847 248 
Q 594 497 594 1153 
L 594 3053 
L 172 3053 
L 172 3500 
L 594 3500 
L 594 4494 
L 1172 4494 
z
" transform="scale(0.015625)"/>
       <path id="DejaVuSans-65" d="M 3597 1894 
L 3597 1613 
L 953 1613 
Q 991 1019 1311 708 
Q 1631 397 2203 397 
Q 2534 397 2845 478 
Q 3156 559 3463 722 
L 3463 178 
Q 3153 47 2828 -22 
Q 2503 -91 2169 -91 
Q 1331 -91 842 396 
Q 353 884 353 1716 
Q 353 2575 817 3079 
Q 1281 3584 2069 3584 
Q 2775 3584 3186 3129 
Q 3597 2675 3597 1894 
z
M 3022 2063 
Q 3016 2534 2758 2815 
Q 2500 3097 2075 3097 
Q 1594 3097 1305 2825 
Q 1016 2553 972 2059 
L 3022 2063 
z
" transform="scale(0.015625)"/>
       <path id="DejaVuSans-20" transform="scale(0.015625)"/>
       <path id="DejaVuSans-2d" d="M 313 2009 
L 1997 2009 
L 1997 1497 
L 313 1497 
L 313 2009 
z
" transform="scale(0.015625)"/>
       <path id="DejaVuSans-35" d="M 691 4666 
L 3169 4666 
L 3169 4134 
L 1269 4134 
L 1269 2991 
Q 1406 3038 1543 3061 
Q 1681 3084 1819 3084 
Q 2600 3084 3056 2656 
Q 3513 2228 3513 1497 
Q 3513 744 3044 326 
Q 2575 -91 1722 -91 
Q 1428 -91 1123 -41 
Q 819 9 494 109 
L 494 744 
Q 775 591 1075 516 
Q 1375 441 1709 441 
Q 2250 441 2565 725 
Q 2881 1009 2881 1497 
Q 2881 1984 2565 2268 
Q 2250 2553 1709 2553 
Q 1456 2553 1204 2497 
Q 953 2441 691 2322 
L 691 4666 
z
" transform="scale(0.015625)"/>
       <path id="DejaVuSans-3a" d="M 750 794 
L 1409 794 
L 1409 0 
L 750 0 
L 750 794 
z
M 750 3309 
L 1409 3309 
L 1409 2516 
L 750 2516 
L 750 3309 
z
" transform="scale(0.015625)"/>
       <path id="DejaVuSans-33" d="M 2597 2516 
Q 3050 2419 3304 2112 
Q 3559 1806 3559 1356 
Q 3559 666 3084 287 
Q 2609 -91 1734 -91 
Q 1441 -91 1130 -33 
Q 819 25 488 141 
L 488 750 
Q 750 597 1062 519 
Q 1375 441 1716 441 
Q 2309 441 2620 675 
Q 2931 909 2931 1356 
Q 2931 1769 2642 2001 
Q 2353 2234 1838 2234 
L 1294 2234 
L 1294 2753 
L 1863 2753 
Q 2328 2753 2575 2939 
Q 2822 3125 2822 3475 
Q 2822 3834 2567 4026 
Q 2313 4219 1838 4219 
Q 1578 4219 1281 4162 
Q 984 4106 628 3988 
L 628 4550 
Q 988 4650 1302 4700 
Q 1616 4750 1894 4750 
Q 2613 4750 3031 4423 
Q 3450 4097 3450 3541 
Q 3450 3153 3228 2886 
Q 3006 2619 2597 2516 
z
" transform="scale(0.015625)"/>
       <path id="DejaVuSans-39" d="M 703 97 
L 703 672 
Q 941 559 1184 500 
Q 1428 441 1663 441 
Q 2288 441 2617 861 
Q 2947 1281 2994 2138 
Q 2813 1869 2534 1725 
Q 2256 1581 1919 1581 
Q 1219 1581 811 2004 
Q 403 2428 403 3163 
Q 403 3881 828 4315 
Q 1253 4750 1959 4750 
Q 2769 4750 3195 4129 
Q 3622 3509 3622 2328 
Q 3622 1225 3098 567 
Q 2575 -91 1691 -91 
Q 1453 -91 1209 -44 
Q 966 3 703 97 
z
M 1959 2075 
Q 2384 2075 2632 2365 
Q 2881 2656 2881 3163 
Q 2881 3666 2632 3958 
Q 2384 4250 1959 4250 
Q 1534 4250 1286 3958 
Q 1038 3666 1038 3163 
Q 1038 2656 1286 2365 
Q 1534 2075 1959 2075 
z
" transform="scale(0.015625)"/>
       <path id="DejaVuSans-2e" d="M 684 794 
L 1344 794 
L 1344 0 
L 684 0 
L 684 794 
z
" transform="scale(0.015625)"/>
       <path id="DejaVuSans-37" d="M 525 4666 
L 3525 4666 
L 3525 4397 
L 1831 0 
L 1172 0 
L 2766 4134 
L 525 4134 
L 525 4666 
z
" transform="scale(0.015625)"/>
       <path id="DejaVuSans-4c" d="M 628 4666 
L 1259 4666 
L 1259 531 
L 3531 531 
L 3531 0 
L 628 0 
L 628 4666 
z
" transform="scale(0.015625)"/>
       <path id="DejaVuSans-73" d="M 2834 3397 
L 2834 2853 
Q 2591 2978 2328 3040 
Q 2066 3103 1784 3103 
Q 1356 3103 1142 2972 
Q 928 2841 928 2578 
Q 928 2378 1081 2264 
Q 1234 2150 1697 2047 
L 1894 2003 
Q 2506 1872 2764 1633 
Q 3022 1394 3022 966 
Q 3022 478 2636 193 
Q 2250 -91 1575 -91 
Q 1294 -91 989 -36 
Q 684 19 347 128 
L 347 722 
Q 666 556 975 473 
Q 1284 391 1588 391 
Q 1994 391 2212 530 
Q 2431 669 2431 922 
Q 2431 1156 2273 1281 
Q 2116 1406 1581 1522 
L 1381 1569 
Q 847 1681 609 1914 
Q 372 2147 372 2553 
Q 372 3047 722 3315 
Q 1072 3584 1716 3584 
Q 2034 3584 2315 3537 
Q 2597 3491 2834 3397 
z
" transform="scale(0.015625)"/>
       <path id="DejaVuSans-72" d="M 2631 2963 
Q 2534 3019 2420 3045 
Q 2306 3072 2169 3072 
Q 1681 3072 1420 2755 
Q 1159 2438 1159 1844 
L 1159 0 
L 581 0 
L 581 3500 
L 1159 3500 
L 1159 2956 
Q 1341 3275 1631 3429 
Q 1922 3584 2338 3584 
Q 2397 3584 2469 3576 
Q 2541 3569 2628 3553 
L 2631 2963 
z
" transform="scale(0.015625)"/>
       <path id="DejaVuSans-63" d="M 3122 3366 
L 3122 2828 
Q 2878 2963 2633 3030 
Q 2388 3097 2138 3097 
Q 1578 3097 1268 2742 
Q 959 2388 959 1747 
Q 959 1106 1268 751 
Q 1578 397 2138 397 
Q 2388 397 2633 464 
Q 2878 531 3122 666 
L 3122 134 
Q 2881 22 2623 -34 
Q 2366 -91 2075 -91 
Q 1284 -91 818 406 
Q 353 903 353 1747 
Q 353 2603 823 3093 
Q 1294 3584 2113 3584 
Q 2378 3584 2631 3529 
Q 2884 3475 3122 3366 
z
" transform="scale(0.015625)"/>
       <path id="DejaVuSans-6f" d="M 1959 3097 
Q 1497 3097 1228 2736 
Q 959 2375 959 1747 
Q 959 1119 1226 758 
Q 1494 397 1959 397 
Q 2419 397 2687 759 
Q 2956 1122 2956 1747 
Q 2956 2369 2687 2733 
Q 2419 3097 1959 3097 
z
M 1959 3584 
Q 2709 3584 3137 3096 
Q 3566 2609 3566 1747 
Q 3566 888 3137 398 
Q 2709 -91 1959 -91 
Q 1206 -91 779 398 
Q 353 888 353 1747 
Q 353 2609 779 3096 
Q 1206 3584 1959 3584 
z
" transform="scale(0.015625)"/>
      </defs>
      <use xlink:href="#DejaVuSans-55"/>
      <use xlink:href="#DejaVuSans-70" x="73.193359"/>
      <use xlink:href="#DejaVuSans-64" x="136.669922"/>
      <use xlink:href="#DejaVuSans-61" x="200.146484"/>
      <use xlink:href="#DejaVuSans-74" x="261.425781"/>
      <use xlink:href="#DejaVuSans-65" x="300.634766"/>
      <use xlink:href="#DejaVuSans-64" x="362.158203"/>
      <use xlink:href="#DejaVuSans-20" x="425.634766"/>
      <use xlink:href="#DejaVuSans-32" x="457.421875"/>
      <use xlink:href="#DejaVuSans-30" x="521.044922"/>
      <use xlink:href="#DejaVuSans-32" x="584.667969"/>
      <use xlink:href="#DejaVuSans-32" x="648.291016"/>
      <use xlink:href="#DejaVuSans-2d" x="711.914062"/>
      <use xlink:href="#DejaVuSans-31" x="747.998047"/>
      <use xlink:href="#DejaVuSans-32" x="811.621094"/>
      <use xlink:href="#DejaVuSans-2d" x="875.244141"/>
      <use xlink:href="#DejaVuSans-32" x="911.328125"/>
      <use xlink:href="#DejaVuSans-38" x="974.951172"/>
      <use xlink:href="#DejaVuSans-20" x="1038.574219"/>
      <use xlink:href="#DejaVuSans-30" x="1070.361328"/>
      <use xlink:href="#DejaVuSans-35" x="1133.984375"/>
      <use xlink:href="#DejaVuSans-3a" x="1197.607422"/>
      <use xlink:href="#DejaVuSans-33" x="1231.298828"/>
      <use xlink:href="#DejaVuSans-31" x="1294.921875"/>
      <use xlink:href="#DejaVuSans-3a" x="1358.544922"/>
      <use xlink:href="#DejaVuSans-34" x="1392.236328"/>
      <use xlink:href="#DejaVuSans-39" x="1455.859375"/>
      <use xlink:href="#DejaVuSans-2e" x="1519.482422"/>
      <use xlink:href="#DejaVuSans-37" x="1551.269531"/>
      <use xlink:href="#DejaVuSans-32" x="1614.892578"/>
      <use xlink:href="#DejaVuSans-32" x="1678.515625"/>
      <use xlink:href="#DejaVuSans-31" x="1742.138672"/>
      <use xlink:href="#DejaVuSans-30" x="1805.761719"/>
      <use xlink:href="#DejaVuSans-31" x="1869.384766"/>
      <use xlink:href="#DejaVuSans-20" x="1933.007812"/>
      <use xlink:href="#DejaVuSans-2d" x="1964.794922"/>
      <use xlink:href="#DejaVuSans-20" x="2000.878906"/>
      <use xlink:href="#DejaVuSans-4c" x="2032.666016"/>
      <use xlink:href="#DejaVuSans-61" x="2088.378906"/>
      <use xlink:href="#DejaVuSans-73" x="2149.658203"/>
      <use xlink:href="#DejaVuSans-74" x="2201.757812"/>
      <use xlink:href="#DejaVuSans-20" x="2240.966797"/>
      <use xlink:href="#DejaVuSans-72" x="2272.753906"/>
      <use xlink:href="#DejaVuSans-65" x="2311.617188"/>
      <use xlink:href="#DejaVuSans-63" x="2373.140625"/>
      <use xlink:href="#DejaVuSans-6f" x="2428.121094"/>
      <use xlink:href="#DejaVuSans-72" x="2489.302734"/>
      <use xlink:href="#DejaVuSans-64" x="2528.666016"/>
      <use xlink:href="#DejaVuSans-20" x="2592.142578"/>
      <use xlink:href="#DejaVuSans-32" x="2623.929688"/>
      <use xlink:href="#DejaVuSans-30" x="2687.552734"/>
      <use xlink:href="#DejaVuSans-32" x="2751.175781"/>
      <use xlink:href="#DejaVuSans-32" x="2814.798828"/>
      <use xlink:href="#DejaVuSans-2d" x="2878.421875"/>
      <use xlink:href="#DejaVuSans-31" x="2914.505859"/>
      <use xlink:href="#DejaVuSans-32" x="2978.128906"/>
      <use xlink:href="#DejaVuSans-2d" x="3041.751953"/>
      <use xlink:href="#DejaVuSans-32" x="3077.835938"/>
      <use xlink:href="#DejaVuSans-36" x="3141.458984"/>
     </g>
    </g>
   </g>
   <g id="matplotlib.axis_2">
    <g id="ytick_1">
     <g id="line2d_9">
      <defs>
       <path id="me86115c3f7" d="M 0 0 
L -3.5 0 
" style="stroke: #000000; stroke-width: 0.8"/>
      </defs>
      <g>
       <use xlink:href="#me86115c3f7" x="57.6" y="295.488" style="stroke: #000000; stroke-width: 0.8"/>
      </g>
     </g>
     <g id="text_10">
      <!-- 0 -->
      <g transform="translate(44.2375 299.287219) scale(0.1 -0.1)">
       <use xlink:href="#DejaVuSans-30"/>
      </g>
     </g>
    </g>
    <g id="ytick_2">
     <g id="line2d_10">
      <g>
       <use xlink:href="#me86115c3f7" x="57.6" y="238.647025" style="stroke: #000000; stroke-width: 0.8"/>
      </g>
     </g>
     <g id="text_11">
      <!-- 10 -->
      <g transform="translate(37.875 242.446243) scale(0.1 -0.1)">
       <use xlink:href="#DejaVuSans-31"/>
       <use xlink:href="#DejaVuSans-30" x="63.623047"/>
      </g>
     </g>
    </g>
    <g id="ytick_3">
     <g id="line2d_11">
      <g>
       <use xlink:href="#me86115c3f7" x="57.6" y="181.806049" style="stroke: #000000; stroke-width: 0.8"/>
      </g>
     </g>
     <g id="text_12">
      <!-- 20 -->
      <g transform="translate(37.875 185.605268) scale(0.1 -0.1)">
       <use xlink:href="#DejaVuSans-32"/>
       <use xlink:href="#DejaVuSans-30" x="63.623047"/>
      </g>
     </g>
    </g>
    <g id="ytick_4">
     <g id="line2d_12">
      <g>
       <use xlink:href="#me86115c3f7" x="57.6" y="124.965074" style="stroke: #000000; stroke-width: 0.8"/>
      </g>
     </g>
     <g id="text_13">
      <!-- 30 -->
      <g transform="translate(37.875 128.764293) scale(0.1 -0.1)">
       <use xlink:href="#DejaVuSans-33"/>
       <use xlink:href="#DejaVuSans-30" x="63.623047"/>
      </g>
     </g>
    </g>
    <g id="ytick_5">
     <g id="line2d_13">
      <g>
       <use xlink:href="#me86115c3f7" x="57.6" y="68.124098" style="stroke: #000000; stroke-width: 0.8"/>
      </g>
     </g>
     <g id="text_14">
      <!-- 40 -->
      <g transform="translate(37.875 71.923317) scale(0.1 -0.1)">
       <use xlink:href="#DejaVuSans-34"/>
       <use xlink:href="#DejaVuSans-30" x="63.623047"/>
      </g>
     </g>
    </g>
    <g id="text_15">
     <!-- IPv6 as % of total Google traffic -->
     <g transform="translate(31.795312 253.735813) rotate(-90) scale(0.1 -0.1)">
      <defs>
       <path id="DejaVuSans-49" d="M 628 4666 
L 1259 4666 
L 1259 0 
L 628 0 
L 628 4666 
z
" transform="scale(0.015625)"/>
       <path id="DejaVuSans-50" d="M 1259 4147 
L 1259 2394 
L 2053 2394 
Q 2494 2394 2734 2622 
Q 2975 2850 2975 3272 
Q 2975 3691 2734 3919 
Q 2494 4147 2053 4147 
L 1259 4147 
z
M 628 4666 
L 2053 4666 
Q 2838 4666 3239 4311 
Q 3641 3956 3641 3272 
Q 3641 2581 3239 2228 
Q 2838 1875 2053 1875 
L 1259 1875 
L 1259 0 
L 628 0 
L 628 4666 
z
" transform="scale(0.015625)"/>
       <path id="DejaVuSans-76" d="M 191 3500 
L 800 3500 
L 1894 563 
L 2988 3500 
L 3597 3500 
L 2284 0 
L 1503 0 
L 191 3500 
z
" transform="scale(0.015625)"/>
       <path id="DejaVuSans-25" d="M 4653 2053 
Q 4381 2053 4226 1822 
Q 4072 1591 4072 1178 
Q 4072 772 4226 539 
Q 4381 306 4653 306 
Q 4919 306 5073 539 
Q 5228 772 5228 1178 
Q 5228 1588 5073 1820 
Q 4919 2053 4653 2053 
z
M 4653 2450 
Q 5147 2450 5437 2106 
Q 5728 1763 5728 1178 
Q 5728 594 5436 251 
Q 5144 -91 4653 -91 
Q 4153 -91 3862 251 
Q 3572 594 3572 1178 
Q 3572 1766 3864 2108 
Q 4156 2450 4653 2450 
z
M 1428 4353 
Q 1159 4353 1004 4120 
Q 850 3888 850 3481 
Q 850 3069 1003 2837 
Q 1156 2606 1428 2606 
Q 1700 2606 1854 2837 
Q 2009 3069 2009 3481 
Q 2009 3884 1853 4118 
Q 1697 4353 1428 4353 
z
M 4250 4750 
L 4750 4750 
L 1831 -91 
L 1331 -91 
L 4250 4750 
z
M 1428 4750 
Q 1922 4750 2215 4408 
Q 2509 4066 2509 3481 
Q 2509 2891 2217 2550 
Q 1925 2209 1428 2209 
Q 931 2209 642 2551 
Q 353 2894 353 3481 
Q 353 4063 643 4406 
Q 934 4750 1428 4750 
z
" transform="scale(0.015625)"/>
       <path id="DejaVuSans-66" d="M 2375 4863 
L 2375 4384 
L 1825 4384 
Q 1516 4384 1395 4259 
Q 1275 4134 1275 3809 
L 1275 3500 
L 2222 3500 
L 2222 3053 
L 1275 3053 
L 1275 0 
L 697 0 
L 697 3053 
L 147 3053 
L 147 3500 
L 697 3500 
L 697 3744 
Q 697 4328 969 4595 
Q 1241 4863 1831 4863 
L 2375 4863 
z
" transform="scale(0.015625)"/>
       <path id="DejaVuSans-6c" d="M 603 4863 
L 1178 4863 
L 1178 0 
L 603 0 
L 603 4863 
z
" transform="scale(0.015625)"/>
       <path id="DejaVuSans-47" d="M 3809 666 
L 3809 1919 
L 2778 1919 
L 2778 2438 
L 4434 2438 
L 4434 434 
Q 4069 175 3628 42 
Q 3188 -91 2688 -91 
Q 1594 -91 976 548 
Q 359 1188 359 2328 
Q 359 3472 976 4111 
Q 1594 4750 2688 4750 
Q 3144 4750 3555 4637 
Q 3966 4525 4313 4306 
L 4313 3634 
Q 3963 3931 3569 4081 
Q 3175 4231 2741 4231 
Q 1884 4231 1454 3753 
Q 1025 3275 1025 2328 
Q 1025 1384 1454 906 
Q 1884 428 2741 428 
Q 3075 428 3337 486 
Q 3600 544 3809 666 
z
" transform="scale(0.015625)"/>
       <path id="DejaVuSans-67" d="M 2906 1791 
Q 2906 2416 2648 2759 
Q 2391 3103 1925 3103 
Q 1463 3103 1205 2759 
Q 947 2416 947 1791 
Q 947 1169 1205 825 
Q 1463 481 1925 481 
Q 2391 481 2648 825 
Q 2906 1169 2906 1791 
z
M 3481 434 
Q 3481 -459 3084 -895 
Q 2688 -1331 1869 -1331 
Q 1566 -1331 1297 -1286 
Q 1028 -1241 775 -1147 
L 775 -588 
Q 1028 -725 1275 -790 
Q 1522 -856 1778 -856 
Q 2344 -856 2625 -561 
Q 2906 -266 2906 331 
L 2906 616 
Q 2728 306 2450 153 
Q 2172 0 1784 0 
Q 1141 0 747 490 
Q 353 981 353 1791 
Q 353 2603 747 3093 
Q 1141 3584 1784 3584 
Q 2172 3584 2450 3431 
Q 2728 3278 2906 2969 
L 2906 3500 
L 3481 3500 
L 3481 434 
z
" transform="scale(0.015625)"/>
       <path id="DejaVuSans-69" d="M 603 3500 
L 1178 3500 
L 1178 0 
L 603 0 
L 603 3500 
z
M 603 4863 
L 1178 4863 
L 1178 4134 
L 603 4134 
L 603 4863 
z
" transform="scale(0.015625)"/>
      </defs>
      <use xlink:href="#DejaVuSans-49"/>
      <use xlink:href="#DejaVuSans-50" x="29.492188"/>
      <use xlink:href="#DejaVuSans-76" x="89.794922"/>
      <use xlink:href="#DejaVuSans-36" x="148.974609"/>
      <use xlink:href="#DejaVuSans-20" x="212.597656"/>
      <use xlink:href="#DejaVuSans-61" x="244.384766"/>
      <use xlink:href="#DejaVuSans-73" x="305.664062"/>
      <use xlink:href="#DejaVuSans-20" x="357.763672"/>
      <use xlink:href="#DejaVuSans-25" x="389.550781"/>
      <use xlink:href="#DejaVuSans-20" x="484.570312"/>
      <use xlink:href="#DejaVuSans-6f" x="516.357422"/>
      <use xlink:href="#DejaVuSans-66" x="577.539062"/>
      <use xlink:href="#DejaVuSans-20" x="612.744141"/>
      <use xlink:href="#DejaVuSans-74" x="644.53125"/>
      <use xlink:href="#DejaVuSans-6f" x="683.740234"/>
      <use xlink:href="#DejaVuSans-74" x="744.921875"/>
      <use xlink:href="#DejaVuSans-61" x="784.130859"/>
      <use xlink:href="#DejaVuSans-6c" x="845.410156"/>
      <use xlink:href="#DejaVuSans-20" x="873.193359"/>
      <use xlink:href="#DejaVuSans-47" x="904.980469"/>
      <use xlink:href="#DejaVuSans-6f" x="982.470703"/>
      <use xlink:href="#DejaVuSans-6f" x="1043.652344"/>
      <use xlink:href="#DejaVuSans-67" x="1104.833984"/>
      <use xlink:href="#DejaVuSans-6c" x="1168.310547"/>
      <use xlink:href="#DejaVuSans-65" x="1196.09375"/>
      <use xlink:href="#DejaVuSans-20" x="1257.617188"/>
      <use xlink:href="#DejaVuSans-74" x="1289.404297"/>
      <use xlink:href="#DejaVuSans-72" x="1328.613281"/>
      <use xlink:href="#DejaVuSans-61" x="1369.726562"/>
      <use xlink:href="#DejaVuSans-66" x="1431.005859"/>
      <use xlink:href="#DejaVuSans-66" x="1466.210938"/>
      <use xlink:href="#DejaVuSans-69" x="1501.416016"/>
      <use xlink:href="#DejaVuSans-63" x="1529.199219"/>
     </g>
    </g>
   </g>
   <g id="line2d_14">
    <path d="M 73.832727 294.452397 
L 75.571172 294.276878 
L 76.005783 294.444013 
L 77.744228 294.44328 
L 79.482673 294.290929 
L 79.917284 294.156205 
L 81.221117 294.178554 
L 82.524951 294.146087 
L 82.959562 294.221941 
L 84.698007 294.066942 
L 86.436451 294.127432 
L 88.174896 294.047184 
L 91.651785 294.116763 
L 92.086396 294.226113 
L 94.259452 294.199546 
L 95.563286 294.147354 
L 97.301731 294.045331 
L 98.170953 294.054647 
L 98.605564 293.777922 
L 101.213231 293.682998 
L 102.082453 293.646574 
L 103.820898 293.788034 
L 105.124732 293.737702 
L 106.428565 293.78833 
L 108.601621 293.753509 
L 109.905455 293.955101 
L 110.774677 293.928306 
L 111.643899 293.884908 
L 112.513122 294.080896 
L 114.686177 294.098807 
L 115.990011 294.221901 
L 118.163067 294.129677 
L 119.032289 294.017979 
L 119.4669 293.925908 
L 120.336123 293.921372 
L 123.378401 293.85447 
L 124.247623 293.950878 
L 124.682234 293.815079 
L 127.289901 294.066964 
L 130.33218 293.889359 
L 131.201402 293.891576 
L 131.636013 293.762319 
L 132.505235 293.870437 
L 133.374458 293.669754 
L 133.809069 293.719643 
L 134.24368 293.59644 
L 134.678291 293.650382 
L 135.547514 293.53574 
L 136.416736 293.490887 
L 136.851347 293.519421 
L 137.285958 293.66087 
L 139.024403 293.69282 
L 139.459014 293.759074 
L 140.328237 293.667838 
L 140.762848 293.481207 
L 142.501292 293.379001 
L 142.935904 293.480809 
L 143.370515 293.451223 
L 143.805126 293.308916 
L 144.674348 293.4539 
L 147.716627 292.936699 
L 148.585849 293.093676 
L 151.193516 292.684182 
L 153.366572 292.537294 
L 153.801183 292.319917 
L 154.235794 292.403684 
L 154.670405 292.21126 
L 155.539628 292.167453 
L 155.974239 292.181271 
L 157.278072 291.812947 
L 159.016517 291.225365 
L 159.451128 291.301793 
L 160.754962 291.170388 
L 161.189573 291.277726 
L 162.928018 291.065278 
L 164.231851 290.581118 
L 164.666462 290.475086 
L 165.101073 290.53544 
L 165.535685 290.177331 
L 165.970296 290.004585 
L 167.70874 289.796297 
L 168.143352 289.964268 
L 168.577963 289.800947 
L 169.447185 289.711081 
L 169.881796 289.449868 
L 170.751019 289.275571 
L 172.489463 289.257416 
L 173.358686 289.034753 
L 174.662519 288.870687 
L 175.09713 288.656175 
L 175.531742 288.635485 
L 175.966353 288.746405 
L 177.704797 287.944464 
L 178.139409 287.962835 
L 179.877853 287.458564 
L 180.312464 287.120622 
L 180.747076 287.043085 
L 181.181687 286.83395 
L 181.616298 286.868009 
L 182.920131 286.354457 
L 183.354743 286.445266 
L 183.789354 286.192488 
L 184.223965 286.148061 
L 186.397021 284.960511 
L 187.266243 284.598974 
L 188.135465 283.965789 
L 189.439299 282.400888 
L 189.87391 282.650142 
L 190.308521 282.693261 
L 191.612355 281.20654 
L 192.046966 281.02827 
L 192.481577 280.276792 
L 193.3508 280.042374 
L 194.220022 279.542179 
L 194.654633 279.594308 
L 195.958467 278.77369 
L 196.393078 278.599392 
L 196.827689 278.277059 
L 197.696911 278.200681 
L 198.131522 277.470479 
L 198.566134 277.460856 
L 199.000745 276.658051 
L 199.435356 276.242282 
L 200.304578 276.361614 
L 200.739189 276.064381 
L 201.173801 275.606522 
L 202.043023 275.073535 
L 202.477634 274.59706 
L 202.912245 274.889189 
L 204.65069 273.954331 
L 205.085301 273.608664 
L 205.519912 272.188191 
L 205.954524 272.457645 
L 206.823746 271.493077 
L 207.258357 271.451662 
L 207.692968 271.868654 
L 208.996802 270.91983 
L 209.431413 270.27614 
L 210.300635 270.325768 
L 210.735246 269.629278 
L 211.169858 269.581339 
L 211.604469 265.89149 
L 212.03908 268.319219 
L 212.473691 269.765458 
L 212.908302 269.062716 
L 213.342913 268.670007 
L 213.777525 268.60672 
L 214.212136 267.682469 
L 214.646747 267.392864 
L 215.950581 265.386804 
L 216.385192 264.076966 
L 216.819803 263.329349 
L 217.254414 262.314345 
L 217.689025 261.644201 
L 218.123636 262.714449 
L 218.558248 262.550661 
L 218.992859 262.580292 
L 219.42747 262.753186 
L 219.862081 263.07602 
L 220.296692 262.952851 
L 220.731303 260.592569 
L 221.165915 260.941686 
L 222.469748 259.697972 
L 222.904359 259.530575 
L 223.773582 259.604173 
L 224.208193 257.820003 
L 224.642804 257.755022 
L 225.512026 256.346997 
L 225.946637 256.827048 
L 226.381249 254.6294 
L 226.81586 255.148846 
L 227.250471 253.665303 
L 227.685082 252.954904 
L 228.119693 251.888215 
L 228.554304 252.628967 
L 228.988916 251.506875 
L 229.423527 249.640137 
L 229.858138 250.580799 
L 230.292749 250.848957 
L 230.72736 250.269509 
L 231.161972 248.562632 
L 231.596583 249.036771 
L 232.031194 247.529768 
L 232.465805 247.876919 
L 233.335027 245.844377 
L 233.769639 244.814742 
L 235.073472 244.491476 
L 235.508083 243.302568 
L 235.942694 243.447245 
L 236.377306 243.001248 
L 236.811917 241.822906 
L 237.246528 241.523837 
L 237.681139 240.206286 
L 238.11575 239.30306 
L 238.550361 239.143877 
L 238.984973 239.366199 
L 239.419584 238.791486 
L 239.854195 236.343231 
L 240.723417 237.779296 
L 241.158028 237.503435 
L 242.027251 237.420772 
L 242.461862 237.46941 
L 243.331084 237.174019 
L 243.765696 235.796546 
L 244.200307 235.731338 
L 244.634918 234.509729 
L 245.069529 234.506296 
L 245.50414 234.320722 
L 246.807974 230.826815 
L 247.242585 228.768944 
L 247.677196 230.174263 
L 248.111807 229.585237 
L 248.546418 228.367732 
L 248.98103 228.638739 
L 249.415641 226.039389 
L 249.850252 226.420747 
L 250.284863 226.102022 
L 250.719474 224.288289 
L 251.154085 224.271123 
L 251.588697 222.919184 
L 252.023308 223.244706 
L 252.457919 222.175391 
L 252.89253 221.607339 
L 253.327141 221.909125 
L 253.761752 221.176928 
L 254.196364 220.034658 
L 254.630975 220.39981 
L 255.065586 219.858064 
L 255.500197 218.060485 
L 255.934808 217.308763 
L 256.369419 217.379081 
L 256.804031 215.276983 
L 257.238642 215.650803 
L 258.107864 213.1471 
L 258.542475 210.648712 
L 258.977087 210.895646 
L 259.846309 209.490787 
L 260.28092 207.916679 
L 260.715531 208.127115 
L 261.150142 207.467425 
L 261.584754 204.978518 
L 262.019365 204.105275 
L 262.453976 199.97878 
L 262.888587 202.66168 
L 263.323198 202.175257 
L 263.757809 202.815076 
L 264.192421 202.063747 
L 265.061643 203.283969 
L 265.496254 203.040712 
L 265.930865 201.971073 
L 266.365476 202.292759 
L 267.234699 200.930434 
L 267.66931 199.801595 
L 268.103921 199.622574 
L 268.538532 198.859496 
L 268.973143 196.115469 
L 269.407755 196.976536 
L 269.842366 193.29681 
L 270.276977 193.581652 
L 270.711588 191.581492 
L 271.146199 190.348662 
L 271.580811 189.606382 
L 272.015422 189.094387 
L 272.450033 188.081247 
L 272.884644 186.225657 
L 273.319255 183.166311 
L 273.753866 183.938865 
L 275.492311 180.454496 
L 275.926922 179.881454 
L 276.361533 179.903144 
L 276.796145 180.218856 
L 277.230756 179.134756 
L 277.665367 177.615386 
L 278.099978 178.976534 
L 278.534589 179.002806 
L 278.9692 180.215434 
L 279.403812 178.888356 
L 279.838423 176.825103 
L 280.273034 177.089482 
L 280.707645 176.198738 
L 282.011479 174.782187 
L 282.880701 173.741685 
L 283.315312 173.628975 
L 283.749923 188.715894 
L 284.184535 171.713684 
L 284.619146 170.897624 
L 285.053757 166.774652 
L 285.488368 170.599805 
L 286.35759 170.040877 
L 286.792202 170.038171 
L 287.226813 169.526278 
L 287.661424 169.274012 
L 288.096035 170.675387 
L 288.530646 171.563806 
L 288.965257 171.347833 
L 289.399869 170.144219 
L 289.83448 170.230646 
L 291.138313 169.218541 
L 291.572924 166.514559 
L 292.007536 167.581828 
L 292.442147 164.718089 
L 292.876758 165.925619 
L 293.311369 163.521893 
L 293.74598 162.021024 
L 294.180591 162.905976 
L 294.615203 161.065403 
L 295.049814 159.843287 
L 295.484425 159.583422 
L 295.919036 160.582544 
L 296.353647 161.109579 
L 297.657481 158.410321 
L 298.092092 159.031075 
L 298.526703 159.925656 
L 298.961314 160.099123 
L 299.395926 158.051842 
L 299.830537 157.289286 
L 300.265148 155.805197 
L 300.699759 155.439539 
L 301.13437 155.231694 
L 301.568981 155.387 
L 302.003593 155.19124 
L 302.872815 153.152604 
L 303.307426 154.341979 
L 303.742037 150.574298 
L 304.176648 150.671206 
L 304.61126 150.21176 
L 305.045871 147.463812 
L 305.480482 146.639311 
L 305.915093 146.143737 
L 306.349704 146.147346 
L 306.784315 144.657562 
L 307.218927 144.556004 
L 308.088149 142.200491 
L 308.52276 143.755262 
L 308.957371 144.756698 
L 309.826594 142.371844 
L 310.261205 143.541529 
L 310.695816 143.327659 
L 311.130427 143.836806 
L 311.565038 142.036692 
L 311.99965 141.408611 
L 312.434261 142.76956 
L 312.868872 140.815959 
L 313.303483 140.972271 
L 313.738094 140.415008 
L 314.172705 140.363254 
L 314.607317 140.198978 
L 315.041928 136.339999 
L 315.476539 136.22759 
L 315.91115 136.53215 
L 316.345761 137.465547 
L 317.214984 132.962213 
L 317.649595 130.975603 
L 318.084206 130.471367 
L 318.518817 130.644562 
L 318.953428 130.281984 
L 319.388039 128.308602 
L 319.822651 129.935959 
L 320.257262 128.203293 
L 320.691873 129.811159 
L 321.126484 128.658544 
L 321.561095 127.960843 
L 321.995706 127.902661 
L 322.430318 127.981266 
L 322.864929 126.478755 
L 323.29954 126.649471 
L 323.734151 128.275623 
L 324.168762 127.724618 
L 324.603373 128.391647 
L 325.037985 128.664273 
L 325.472596 126.580261 
L 325.907207 127.828387 
L 326.341818 128.163777 
L 326.776429 127.389245 
L 327.211041 126.916004 
L 327.645652 125.049216 
L 328.080263 125.443214 
L 328.514874 125.036915 
L 328.949485 125.171657 
L 329.384096 124.086085 
L 329.818708 123.611213 
L 330.253319 122.237156 
L 330.68793 121.636563 
L 331.122541 122.485642 
L 331.557152 122.738096 
L 331.991763 122.794891 
L 332.860986 120.840869 
L 333.295597 121.309307 
L 333.730208 119.884423 
L 334.164819 120.501119 
L 334.59943 120.234614 
L 335.034042 119.249054 
L 335.468653 119.489907 
L 335.903264 120.16694 
L 336.337875 119.858293 
L 336.772486 119.874424 
L 337.207097 117.314324 
L 338.07632 115.491622 
L 338.510931 115.792566 
L 338.945542 115.155356 
L 339.380153 113.034568 
L 339.814765 113.72061 
L 340.249376 110.677293 
L 340.683987 113.112838 
L 341.118598 111.096615 
L 341.553209 108.340464 
L 341.98782 109.146719 
L 342.422432 107.425779 
L 342.857043 106.264524 
L 343.291654 106.375614 
L 343.726265 105.504401 
L 344.160876 107.688458 
L 344.595487 105.868939 
L 345.030099 106.55119 
L 345.46471 106.951475 
L 346.768543 104.159833 
L 347.203154 106.484089 
L 347.637766 106.530659 
L 348.072377 105.503184 
L 348.506988 106.085401 
L 348.941599 107.496995 
L 349.37621 106.399152 
L 349.810821 103.844741 
L 350.245433 108.085362 
L 350.680044 106.943046 
L 351.114655 105.289621 
L 351.549266 106.676638 
L 351.983877 106.776854 
L 352.418488 104.511821 
L 352.8531 103.383817 
L 353.287711 101.315926 
L 353.722322 102.324347 
L 354.156933 101.560353 
L 354.591544 101.795993 
L 355.026156 102.443338 
L 355.460767 100.790317 
L 355.895378 100.112574 
L 356.329989 101.338031 
L 356.7646 101.032596 
L 357.199211 98.380817 
L 357.633823 97.797509 
L 358.068434 95.992774 
L 358.503045 98.956394 
L 358.937656 99.939283 
L 359.372267 98.973037 
L 359.806878 98.788253 
L 360.24149 98.939791 
L 360.676101 93.712718 
L 361.110712 97.207045 
L 361.545323 95.193482 
L 362.414545 96.212078 
L 362.849157 91.261485 
L 363.283768 90.628788 
L 363.718379 88.637358 
L 364.15299 88.558099 
L 364.587601 90.359401 
L 365.022212 87.875348 
L 365.456824 87.387062 
L 365.891435 86.104252 
L 366.326046 85.640333 
L 366.760657 84.182834 
L 367.195268 84.400745 
L 367.62988 87.934418 
L 368.064491 86.028858 
L 368.499102 84.8223 
L 368.933713 87.11701 
L 369.368324 85.848035 
L 369.802935 85.401339 
L 370.237547 83.569241 
L 371.106769 86.485137 
L 371.54138 86.164901 
L 371.975991 86.622067 
L 372.410602 86.47722 
L 372.845214 84.834458 
L 373.279825 86.733868 
L 373.714436 84.451851 
L 374.149047 83.644834 
L 374.583658 83.560283 
L 375.452881 80.71928 
L 375.887492 77.549151 
L 376.322103 79.711165 
L 376.756714 83.74929 
L 377.191325 79.200699 
L 377.625936 78.987023 
L 378.060548 82.039377 
L 378.92977 77.976765 
L 379.364381 77.922459 
L 379.798992 78.780105 
L 380.233604 78.745108 
L 380.668215 79.401877 
L 381.102826 71.680843 
L 381.537437 70.856592 
L 381.972048 71.086758 
L 382.406659 69.508779 
L 382.841271 68.991213 
L 383.275882 66.246755 
L 383.710493 69.733977 
L 384.145104 71.093693 
L 384.579715 68.110445 
L 385.014326 70.076239 
L 385.448938 66.733279 
L 385.883549 65.031171 
L 386.31816 60.901873 
L 386.752771 62.012994 
L 387.187382 55.894831 
L 387.621993 58.373274 
L 388.491216 62.141921 
L 388.925827 60.358194 
L 389.360438 60.706147 
L 389.795049 61.454469 
L 390.22966 61.302113 
L 390.664272 63.476803 
L 391.098883 62.463067 
L 391.533494 60.873839 
L 391.968105 61.240401 
L 392.402716 59.611713 
L 392.837327 60.025516 
L 393.271939 58.033626 
L 393.70655 59.439747 
L 394.141161 63.233762 
L 394.575772 60.680597 
L 395.010383 56.80988 
L 395.444995 60.017683 
L 395.879606 58.154243 
L 396.314217 60.089678 
L 396.748828 58.341988 
L 397.183439 58.317137 
L 398.052662 53.568 
L 398.487273 64.906359 
L 398.487273 64.906359 
" clip-path="url(#p82e09cdc18)" style="fill: none; stroke: #1f77b4; stroke-width: 1.5; stroke-linecap: square"/>
   </g>
   <g id="line2d_15">
    <path d="M 73.832727 294.724029 
L 75.571172 294.579619 
L 76.005783 294.70048 
L 85.567229 294.435515 
L 86.436451 294.426336 
L 88.609507 294.357416 
L 90.782563 294.427978 
L 92.521008 294.424795 
L 98.605564 294.338994 
L 99.040175 294.135509 
L 101.647842 294.053976 
L 103.820898 294.06722 
L 106.428565 294.100932 
L 108.601621 294.101938 
L 110.340066 294.212761 
L 111.643899 294.221793 
L 114.251566 294.253079 
L 117.293844 294.355529 
L 118.163067 294.340648 
L 119.4669 294.161997 
L 121.205345 294.135145 
L 123.378401 294.073376 
L 128.593735 294.260809 
L 134.678291 293.791695 
L 135.547514 293.732341 
L 136.416736 293.666707 
L 137.285958 293.768822 
L 138.155181 293.782242 
L 139.024403 293.835917 
L 140.328237 293.872193 
L 141.197459 293.555822 
L 142.066681 293.596258 
L 142.501292 293.679792 
L 144.239737 293.573397 
L 144.674348 293.630534 
L 145.108959 293.491313 
L 147.282015 293.441702 
L 148.151238 293.264324 
L 148.585849 293.262227 
L 149.02046 293.375443 
L 155.105016 292.667301 
L 155.974239 292.549214 
L 156.40885 292.540341 
L 156.843461 292.391736 
L 157.712683 292.399489 
L 159.016517 291.969163 
L 160.754962 291.667252 
L 161.189573 291.79777 
L 162.928018 291.663188 
L 169.012574 290.55538 
L 169.447185 290.60403 
L 170.316407 290.326049 
L 171.18563 290.215511 
L 171.620241 289.961409 
L 172.924074 290.250621 
L 173.793297 290.051041 
L 174.227908 289.992376 
L 174.662519 289.745464 
L 175.09713 289.763955 
L 175.531742 289.581052 
L 176.835575 289.487594 
L 177.270186 289.226785 
L 178.57402 288.96306 
L 179.008631 288.965907 
L 179.443242 288.79884 
L 179.877853 288.781862 
L 181.616298 288.263813 
L 182.050909 288.196855 
L 182.920131 287.751108 
L 183.354743 287.900742 
L 184.658576 287.374275 
L 185.527798 286.935457 
L 185.96241 286.602943 
L 186.831632 286.371952 
L 187.266243 286.478086 
L 188.135465 286.315805 
L 189.439299 285.074046 
L 189.87391 284.775755 
L 190.308521 284.85776 
L 190.743133 284.697724 
L 192.046966 283.765333 
L 192.481577 283.607565 
L 193.3508 282.854332 
L 193.785411 282.751125 
L 194.220022 281.329572 
L 194.654633 281.462296 
L 195.089244 282.409295 
L 195.523855 282.306458 
L 196.393078 281.579798 
L 196.827689 282.236447 
L 197.2623 281.386209 
L 197.696911 281.333915 
L 198.131522 281.069639 
L 198.566134 280.451516 
L 199.000745 280.482926 
L 199.869967 279.536194 
L 200.304578 279.564745 
L 200.739189 279.353217 
L 201.173801 278.585284 
L 201.608412 278.844587 
L 202.043023 278.263343 
L 202.477634 278.437697 
L 202.912245 278.227868 
L 203.346857 278.313499 
L 203.781468 277.658583 
L 204.216079 277.683826 
L 204.65069 277.015678 
L 205.085301 277.131758 
L 205.954524 275.721539 
L 206.389135 275.442467 
L 206.823746 275.353716 
L 207.258357 275.030046 
L 207.692968 274.997965 
L 208.127579 275.121861 
L 208.562191 275.098363 
L 209.866024 274.635655 
L 210.300635 274.786306 
L 211.169858 274.396997 
L 211.604469 273.725807 
L 212.03908 272.219266 
L 212.473691 273.343825 
L 212.908302 273.714036 
L 213.342913 273.325385 
L 213.777525 273.550828 
L 214.212136 272.988398 
L 215.081358 272.261169 
L 215.515969 271.540221 
L 215.950581 271.088079 
L 216.385192 270.140881 
L 216.819803 267.337552 
L 217.254414 265.541974 
L 217.689025 268.201956 
L 218.123636 268.903413 
L 218.558248 268.922705 
L 218.992859 269.203068 
L 219.42747 269.182878 
L 219.862081 269.558096 
L 220.296692 268.783769 
L 220.731303 268.919926 
L 221.165915 267.473726 
L 221.600526 267.031793 
L 222.035137 267.283048 
L 222.904359 265.840895 
L 223.33897 266.231234 
L 223.773582 266.193599 
L 224.208193 265.728845 
L 224.642804 265.05429 
L 225.077415 264.70332 
L 225.512026 264.753067 
L 226.381249 262.662121 
L 226.81586 262.047113 
L 227.250471 261.716611 
L 227.685082 260.51194 
L 228.119693 260.094699 
L 229.423527 257.665549 
L 229.858138 258.077959 
L 230.72736 257.672341 
L 231.596583 256.893563 
L 232.031194 257.232125 
L 232.900416 256.8028 
L 233.769639 255.728585 
L 235.073472 255.179495 
L 235.508083 255.183093 
L 235.942694 254.056846 
L 236.377306 253.943403 
L 236.811917 253.974268 
L 237.246528 253.397462 
L 238.550361 250.541578 
L 238.984973 250.002885 
L 239.419584 247.403337 
L 239.854195 243.73573 
L 240.288806 249.177497 
L 240.723417 250.363291 
L 241.158028 250.032204 
L 241.59264 249.448362 
L 242.027251 249.527814 
L 242.461862 249.828503 
L 243.331084 248.600095 
L 243.765696 248.382451 
L 244.634918 247.58624 
L 245.069529 246.291721 
L 245.50414 245.991424 
L 245.938751 245.918037 
L 246.807974 244.772555 
L 247.242585 243.410946 
L 247.677196 242.562362 
L 248.111807 243.097161 
L 248.98103 241.424633 
L 249.415641 239.886016 
L 249.850252 239.43849 
L 250.284863 239.219618 
L 251.154085 236.752231 
L 251.588697 234.830659 
L 252.023308 235.672161 
L 252.457919 235.513541 
L 252.89253 234.546647 
L 253.327141 233.894062 
L 253.761752 233.726983 
L 254.196364 233.845127 
L 254.630975 235.178622 
L 255.065586 234.494888 
L 255.500197 234.800874 
L 255.934808 234.074981 
L 256.369419 234.153888 
L 256.804031 233.337447 
L 257.673253 231.053929 
L 258.107864 231.283293 
L 258.977087 228.053561 
L 259.411698 228.818862 
L 259.846309 228.224089 
L 260.28092 226.816513 
L 260.715531 226.712006 
L 261.150142 225.767309 
L 261.584754 225.229428 
L 262.019365 221.477611 
L 262.453976 212.820719 
L 262.888587 219.052679 
L 263.323198 222.375596 
L 263.757809 222.726618 
L 264.627032 222.360812 
L 265.061643 222.462353 
L 265.496254 222.41584 
L 265.930865 221.381544 
L 266.365476 221.123407 
L 266.800088 221.445593 
L 267.66931 220.235539 
L 268.538532 218.062901 
L 268.973143 215.683231 
L 269.407755 216.483768 
L 269.842366 216.365214 
L 270.276977 212.049416 
L 270.711588 212.995949 
L 271.580811 210.116396 
L 272.015422 207.345768 
L 272.450033 207.245916 
L 272.884644 206.866485 
L 273.753866 202.040351 
L 274.188478 201.72016 
L 274.623089 201.007567 
L 275.0577 200.659564 
L 275.926922 197.905284 
L 276.361533 197.669183 
L 276.796145 197.587622 
L 277.230756 198.79518 
L 277.665367 198.934259 
L 278.099978 199.958738 
L 278.534589 200.673348 
L 279.403812 201.242861 
L 279.838423 198.800154 
L 280.273034 198.184083 
L 280.707645 198.716842 
L 281.142256 197.629321 
L 281.576867 195.628302 
L 282.011479 197.369967 
L 282.44609 198.06038 
L 282.880701 195.999747 
L 283.315312 195.746287 
L 283.749923 194.585816 
L 284.184535 188.715894 
L 284.619146 191.066354 
L 285.053757 181.358739 
L 285.922979 192.885515 
L 286.35759 191.38983 
L 286.792202 192.961267 
L 287.226813 192.377936 
L 287.661424 192.281034 
L 288.096035 190.759134 
L 288.530646 193.328221 
L 288.965257 194.039677 
L 289.399869 193.373574 
L 289.83448 191.914518 
L 290.269091 191.417102 
L 290.703702 190.278185 
L 291.138313 190.198864 
L 291.572924 192.214843 
L 292.007536 191.062562 
L 292.442147 189.423979 
L 292.876758 187.121084 
L 293.311369 186.902127 
L 293.74598 185.949807 
L 294.180591 186.066138 
L 294.615203 183.614627 
L 295.049814 183.558076 
L 295.484425 181.870848 
L 295.919036 181.602252 
L 296.353647 181.08738 
L 296.788258 179.475308 
L 297.657481 179.488631 
L 298.526703 178.836347 
L 298.961314 179.805929 
L 299.395926 178.162219 
L 299.830537 177.287152 
L 300.265148 180.420477 
L 300.699759 180.576215 
L 301.13437 180.427963 
L 301.568981 180.522586 
L 302.003593 180.443599 
L 302.438204 178.87472 
L 302.872815 179.248848 
L 303.307426 179.882454 
L 303.742037 179.183151 
L 304.176648 175.973244 
L 304.61126 176.852972 
L 305.045871 176.414279 
L 305.480482 173.002002 
L 305.915093 174.671495 
L 307.218927 170.219528 
L 307.653538 156.300611 
L 308.088149 161.639531 
L 308.52276 169.669319 
L 308.957371 171.143057 
L 309.826594 169.71939 
L 310.261205 168.323188 
L 310.695816 169.367021 
L 311.130427 169.070829 
L 311.565038 170.169354 
L 311.99965 167.689388 
L 312.434261 169.879852 
L 313.303483 167.605298 
L 313.738094 167.573353 
L 314.172705 168.252904 
L 314.607317 165.410162 
L 315.041928 164.929486 
L 315.476539 162.549401 
L 315.91115 164.735192 
L 316.345761 166.125358 
L 316.780372 163.455628 
L 317.649595 156.010341 
L 318.084206 157.637505 
L 318.518817 156.297081 
L 318.953428 155.565026 
L 319.388039 153.826346 
L 319.822651 154.54929 
L 320.257262 154.751393 
L 320.691873 154.56973 
L 321.126484 153.991634 
L 321.561095 153.069645 
L 321.995706 150.496335 
L 322.430318 153.747678 
L 322.864929 154.66815 
L 323.29954 154.841316 
L 323.734151 156.30434 
L 324.168762 157.116256 
L 325.037985 156.814812 
L 325.472596 157.378902 
L 325.907207 157.053459 
L 326.341818 157.79134 
L 327.211041 154.814123 
L 327.645652 156.687999 
L 328.080263 156.051398 
L 328.514874 154.466927 
L 328.949485 154.641963 
L 329.384096 153.878862 
L 329.818708 151.50288 
L 330.253319 138.36734 
L 330.68793 138.017638 
L 331.122541 150.87493 
L 331.557152 152.677721 
L 331.991763 153.046812 
L 332.426375 151.805979 
L 332.860986 150.130108 
L 333.730208 148.25223 
L 334.164819 148.19905 
L 334.59943 148.822084 
L 335.034042 148.375763 
L 335.468653 138.350032 
L 335.903264 133.974351 
L 336.337875 132.270412 
L 336.772486 133.540842 
L 338.07632 129.089063 
L 338.510931 129.401535 
L 338.945542 131.759281 
L 339.380153 129.598716 
L 339.814765 128.774135 
L 340.249376 130.703256 
L 340.683987 131.763857 
L 341.553209 128.428787 
L 341.98782 125.253633 
L 342.422432 125.013457 
L 342.857043 123.290186 
L 343.291654 124.778664 
L 343.726265 124.574031 
L 344.160876 125.750281 
L 344.595487 124.623192 
L 345.030099 124.632588 
L 345.46471 125.625697 
L 345.899321 127.381855 
L 346.333932 126.542689 
L 346.768543 128.557713 
L 347.637766 128.699929 
L 348.072377 129.477645 
L 348.506988 128.060554 
L 348.941599 128.260571 
L 349.37621 127.139952 
L 349.810821 125.111689 
L 350.245433 127.424736 
L 350.680044 127.890224 
L 351.114655 127.663957 
L 351.549266 130.263375 
L 351.983877 128.085956 
L 352.8531 119.283034 
L 353.287711 112.280999 
L 353.722322 118.305165 
L 354.156933 122.756751 
L 354.591544 121.981429 
L 355.026156 122.948561 
L 355.460767 121.750427 
L 356.329989 120.724532 
L 356.7646 120.87677 
L 357.199211 122.620804 
L 357.633823 122.189285 
L 358.068434 121.971317 
L 358.503045 119.921932 
L 358.937656 123.279796 
L 359.806878 120.117909 
L 360.24149 122.501853 
L 360.676101 121.117053 
L 361.110712 117.513586 
L 361.545323 117.86762 
L 361.979934 115.724522 
L 362.414545 114.468745 
L 362.849157 116.440377 
L 363.283768 116.839003 
L 364.15299 108.954557 
L 364.587601 108.820327 
L 365.022212 108.430273 
L 365.456824 107.631714 
L 365.891435 104.732585 
L 366.326046 106.262091 
L 366.760657 104.81509 
L 367.195268 104.92593 
L 367.62988 106.237018 
L 368.064491 109.444538 
L 368.499102 110.188279 
L 368.933713 110.241681 
L 369.368324 111.850718 
L 369.802935 109.513565 
L 370.672158 110.762731 
L 371.106769 111.054069 
L 371.54138 110.815286 
L 371.975991 110.343864 
L 372.410602 112.878494 
L 372.845214 111.712293 
L 373.279825 112.269966 
L 373.714436 110.612801 
L 374.149047 111.761245 
L 375.018269 108.934742 
L 375.452881 103.300949 
L 375.887492 90.108994 
L 376.322103 97.715482 
L 376.756714 103.295924 
L 377.191325 103.658024 
L 377.625936 105.506669 
L 378.060548 103.757126 
L 378.495159 106.705752 
L 378.92977 105.664016 
L 379.364381 102.001024 
L 379.798992 104.006897 
L 380.233604 104.000025 
L 380.668215 106.458607 
L 381.102826 102.287861 
L 381.537437 95.229064 
L 381.972048 95.396109 
L 382.406659 106.512782 
L 382.841271 94.033073 
L 383.710493 90.334624 
L 384.145104 94.275858 
L 384.579715 94.085657 
L 385.014326 92.650667 
L 385.448938 89.350207 
L 385.883549 90.035322 
L 386.752771 81.90928 
L 387.187382 82.729944 
L 387.621993 82.491172 
L 388.056605 79.876556 
L 388.491216 79.779221 
L 388.925827 80.750685 
L 389.360438 79.411574 
L 389.795049 80.308689 
L 390.22966 80.4175 
L 390.664272 83.980713 
L 391.098883 84.869217 
L 391.968105 88.076878 
L 392.402716 85.873659 
L 392.837327 87.087731 
L 393.271939 87.228316 
L 393.70655 84.183453 
L 394.141161 87.602995 
L 394.575772 88.552722 
L 395.010383 85.245675 
L 395.444995 84.351134 
L 395.879606 86.797774 
L 396.314217 83.036067 
L 396.748828 86.69874 
L 397.183439 87.021961 
L 397.61805 82.35576 
L 398.052662 75.461581 
L 398.487273 64.906359 
L 398.487273 64.906359 
" clip-path="url(#p82e09cdc18)" style="fill: none; stroke: #ff7f0e; stroke-width: 1.5; stroke-linecap: square"/>
   </g>
   <g id="line2d_16">
    <path d="M 73.832727 295.216368 
L 80.351895 295.184668 
L 80.786506 295.256214 
L 81.655728 295.138502 
L 82.09034 295.228697 
L 82.524951 295.123331 
L 82.959562 295.228083 
L 83.394173 295.171413 
L 83.828784 295.227333 
L 84.698007 295.127191 
L 86.436451 295.189096 
L 89.044118 295.185839 
L 90.347952 295.233585 
L 91.217174 295.19058 
L 95.128675 295.273567 
L 95.997897 295.19906 
L 98.170953 295.182878 
L 98.605564 294.926928 
L 99.040175 295.131027 
L 102.951676 295.186953 
L 103.386287 295.276182 
L 104.69012 295.139195 
L 105.993954 295.17542 
L 109.036232 295.186032 
L 109.470843 295.326259 
L 110.774677 295.233148 
L 111.643899 295.151115 
L 112.513122 295.286709 
L 112.947733 295.305444 
L 113.382344 295.201516 
L 114.251566 295.328635 
L 115.120789 295.347262 
L 116.424622 295.351673 
L 120.770734 295.233529 
L 122.074567 295.235478 
L 122.509179 295.305097 
L 123.378401 295.269094 
L 124.247623 295.269827 
L 125.116846 295.280297 
L 125.551457 295.381423 
L 129.028346 295.281303 
L 133.374458 295.271868 
L 133.809069 295.399402 
L 134.24368 295.253321 
L 134.678291 295.346688 
L 135.112903 295.231039 
L 136.416736 295.312179 
L 136.851347 295.258578 
L 137.285958 295.380048 
L 138.155181 295.345716 
L 138.589792 295.251161 
L 139.459014 295.408991 
L 140.762848 295.259801 
L 141.197459 295.359858 
L 142.066681 295.212168 
L 142.501292 295.187209 
L 142.935904 295.32602 
L 143.370515 295.327424 
L 143.805126 295.200572 
L 145.108959 295.371072 
L 145.543571 295.218153 
L 146.847404 295.196565 
L 147.282015 295.044623 
L 148.585849 295.319449 
L 149.455071 295.043464 
L 149.889682 295.135103 
L 150.324294 295.010644 
L 151.628127 295.03799 
L 152.062738 295.063807 
L 152.497349 295.231767 
L 153.366572 295.14513 
L 153.801183 294.80177 
L 154.235794 295.024615 
L 154.670405 294.920579 
L 155.974239 295.120057 
L 156.40885 294.967547 
L 156.843461 295.017959 
L 157.712683 294.775476 
L 158.147295 294.832419 
L 159.016517 294.744202 
L 159.451128 294.896848 
L 160.32035 294.72998 
L 160.754962 294.991136 
L 163.79724 294.737227 
L 164.666462 294.691436 
L 165.101073 294.713695 
L 165.535685 294.484376 
L 165.970296 294.426154 
L 166.839518 294.619237 
L 167.70874 294.572263 
L 168.143352 294.851682 
L 169.881796 294.509204 
L 171.18563 294.547651 
L 171.620241 294.838404 
L 172.924074 294.351004 
L 173.793297 294.438284 
L 174.227908 294.374394 
L 174.662519 294.613223 
L 175.09713 294.380221 
L 175.966353 294.675561 
L 177.270186 294.267653 
L 178.57402 294.373547 
L 179.008631 294.146422 
L 179.443242 294.292958 
L 180.312464 293.969647 
L 180.747076 294.130615 
L 181.181687 294.016444 
L 181.616298 294.092196 
L 182.48552 294.040493 
L 183.354743 294.032524 
L 183.789354 293.916887 
L 184.223965 294.043762 
L 185.527798 293.861149 
L 185.96241 294.073785 
L 186.831632 293.910117 
L 187.266243 293.608889 
L 187.700854 293.471487 
L 188.135465 293.137984 
L 189.004688 293.090766 
L 189.439299 292.814843 
L 189.87391 293.362386 
L 190.308521 293.323501 
L 190.743133 293.009375 
L 191.177744 292.952301 
L 191.612355 292.525136 
L 192.046966 292.750937 
L 192.481577 292.157227 
L 193.3508 292.676043 
L 193.785411 292.566289 
L 194.220022 293.700607 
L 194.654633 293.620012 
L 195.089244 292.359211 
L 195.523855 292.220747 
L 195.958467 292.270033 
L 196.393078 292.507595 
L 196.827689 291.528611 
L 197.2623 292.34977 
L 197.696911 292.354766 
L 198.131522 291.888841 
L 198.566134 292.497341 
L 199.000745 291.663125 
L 199.435356 291.788011 
L 199.869967 292.252919 
L 200.304578 292.284869 
L 200.739189 292.199164 
L 201.173801 292.509237 
L 201.608412 291.991325 
L 202.043023 292.298192 
L 202.477634 291.647363 
L 202.912245 292.14932 
L 203.346857 291.8534 
L 203.781468 292.273336 
L 204.216079 292.064826 
L 204.65069 292.426653 
L 205.519912 291.362459 
L 205.954524 292.224106 
L 206.389135 292.084243 
L 206.823746 291.627361 
L 207.258357 291.909616 
L 207.692968 292.358688 
L 208.127579 291.89573 
L 208.562191 291.628731 
L 208.996802 291.498116 
L 209.431413 290.928439 
L 209.866024 291.204004 
L 210.300635 291.027461 
L 210.735246 290.53789 
L 211.169858 290.672342 
L 211.604469 287.653682 
L 212.03908 291.587953 
L 212.473691 291.909633 
L 212.908302 290.83668 
L 213.342913 290.832622 
L 214.212136 290.182071 
L 214.646747 290.229073 
L 215.081358 289.925127 
L 215.515969 290.062387 
L 216.385192 289.424085 
L 216.819803 291.479796 
L 217.254414 292.26037 
L 217.689025 288.930245 
L 218.123636 289.299035 
L 218.992859 288.865225 
L 219.42747 289.058308 
L 219.862081 289.005923 
L 220.296692 289.657082 
L 220.731303 287.160644 
L 221.165915 288.95596 
L 221.600526 288.947576 
L 222.035137 288.218017 
L 222.469748 288.596896 
L 222.904359 289.17768 
L 223.33897 288.811595 
L 223.773582 288.898574 
L 224.208193 287.579158 
L 224.642804 288.188732 
L 225.077415 287.754757 
L 225.512026 287.08193 
L 225.946637 288.636713 
L 226.381249 287.455279 
L 226.81586 288.589734 
L 227.250471 287.436692 
L 227.685082 287.930964 
L 228.119693 287.281516 
L 228.554304 288.8607 
L 228.988916 288.518711 
L 229.423527 287.462589 
L 230.292749 288.41837 
L 230.72736 288.085168 
L 231.161972 286.831011 
L 231.596583 287.631207 
L 232.031194 285.785643 
L 232.465805 286.364046 
L 232.900416 285.428108 
L 233.769639 284.574158 
L 234.638861 284.735961 
L 235.073472 284.799981 
L 235.508083 283.607474 
L 235.942694 284.878399 
L 236.377306 284.545845 
L 236.811917 283.336639 
L 237.246528 283.614375 
L 237.681139 283.342209 
L 238.11575 283.462422 
L 238.984973 284.851314 
L 239.419584 286.876149 
L 239.854195 288.095501 
L 240.288806 283.353776 
L 240.723417 282.904005 
L 241.158028 282.959232 
L 241.59264 283.468464 
L 242.027251 283.380958 
L 242.461862 283.128908 
L 243.331084 284.061924 
L 243.765696 282.902095 
L 244.200307 283.179752 
L 244.634918 282.411489 
L 245.069529 283.702575 
L 245.50414 283.817297 
L 245.938751 282.655934 
L 246.807974 281.54226 
L 247.242585 280.845998 
L 247.677196 283.099902 
L 248.111807 281.976076 
L 248.546418 281.621718 
L 248.98103 282.702106 
L 249.415641 281.641374 
L 249.850252 282.470257 
L 250.284863 282.370405 
L 250.719474 281.871841 
L 251.154085 283.006893 
L 251.588697 283.576525 
L 252.023308 283.060545 
L 252.457919 282.14985 
L 252.89253 282.548692 
L 253.327141 283.503063 
L 253.761752 282.937945 
L 254.630975 280.709187 
L 255.065586 280.851176 
L 255.500197 278.747611 
L 256.369419 278.713194 
L 256.804031 277.427536 
L 257.238642 278.891623 
L 257.673253 278.675508 
L 258.107864 277.351807 
L 258.542475 276.650736 
L 258.977087 278.330085 
L 259.411698 276.851112 
L 260.28092 276.588165 
L 261.150142 277.188116 
L 261.584754 275.237089 
L 262.019365 278.115664 
L 262.453976 282.646061 
L 263.323198 275.287661 
L 263.757809 275.576459 
L 264.192421 274.975394 
L 264.627032 275.792136 
L 265.061643 276.309616 
L 265.496254 276.112873 
L 265.930865 276.077529 
L 266.365476 276.657352 
L 266.800088 275.70339 
L 267.234699 275.597791 
L 267.66931 275.054056 
L 268.103921 276.122246 
L 268.538532 276.284595 
L 268.973143 275.920238 
L 269.407755 275.980768 
L 269.842366 272.419596 
L 270.276977 277.020236 
L 270.711588 274.073543 
L 271.146199 274.126366 
L 271.580811 274.977986 
L 272.015422 277.236619 
L 272.450033 276.323332 
L 272.884644 274.847172 
L 273.319255 274.296212 
L 273.753866 277.386514 
L 274.188478 276.812511 
L 274.623089 276.822327 
L 275.0577 275.858361 
L 275.492311 276.856023 
L 275.926922 277.46417 
L 276.361533 277.721961 
L 276.796145 278.119234 
L 277.230756 275.827576 
L 277.665367 274.169127 
L 278.099978 274.505796 
L 278.534589 273.817458 
L 278.9692 274.799982 
L 279.403812 273.133496 
L 279.838423 273.512949 
L 280.273034 274.393399 
L 280.707645 272.969896 
L 281.142256 273.537863 
L 281.576867 275.020781 
L 282.011479 272.900221 
L 282.44609 271.755426 
L 282.880701 273.229938 
L 283.315312 273.370688 
L 283.749923 289.618078 
L 284.184535 278.48579 
L 284.619146 275.31927 
L 285.053757 280.903913 
L 285.488368 279.466825 
L 285.922979 272.888278 
L 286.35759 274.139047 
L 286.792202 272.564904 
L 287.226813 272.636342 
L 287.661424 272.480979 
L 288.096035 275.404253 
L 288.530646 273.723585 
L 288.965257 272.796156 
L 289.399869 272.258645 
L 289.83448 273.804129 
L 290.269091 273.977727 
L 290.703702 274.757352 
L 291.138313 274.507678 
L 291.572924 269.787717 
L 292.007536 272.007266 
L 292.442147 270.78211 
L 292.876758 274.292535 
L 293.311369 272.107766 
L 293.74598 271.559217 
L 294.615203 272.938776 
L 295.049814 271.773212 
L 295.919036 274.468293 
L 296.353647 275.510199 
L 296.788258 276.222502 
L 297.657481 274.40969 
L 298.526703 276.577309 
L 298.961314 275.781194 
L 299.395926 275.377623 
L 299.830537 275.490134 
L 300.265148 270.87272 
L 300.699759 270.351323 
L 301.13437 270.291731 
L 301.568981 270.352415 
L 302.003593 270.235641 
L 302.438204 270.793819 
L 302.872815 269.391757 
L 303.307426 269.947525 
L 303.742037 266.879147 
L 304.176648 270.185962 
L 304.61126 268.846788 
L 305.045871 266.537533 
L 305.480482 269.125309 
L 305.915093 266.960242 
L 306.349704 268.386922 
L 306.784315 268.432463 
L 307.218927 269.824476 
L 307.653538 282.388906 
L 308.52276 269.573944 
L 308.957371 269.101641 
L 309.391982 268.818692 
L 309.826594 268.140454 
L 310.261205 270.706341 
L 310.695816 269.448638 
L 311.130427 270.253978 
L 311.565038 267.355338 
L 311.99965 269.207223 
L 312.868872 267.703517 
L 313.303483 268.854973 
L 313.738094 268.329655 
L 314.172705 267.59835 
L 314.607317 270.276816 
L 315.041928 266.898513 
L 315.476539 269.166189 
L 315.91115 267.284957 
L 316.345761 266.828189 
L 316.780372 266.9343 
L 317.649595 270.453262 
L 318.084206 268.321862 
L 318.518817 269.83548 
L 318.953428 270.204958 
L 319.388039 269.970256 
L 319.822651 270.87467 
L 320.257262 268.9399 
L 320.691873 270.72943 
L 321.126484 270.154909 
L 321.561095 270.379198 
L 321.995706 272.894326 
L 322.864929 267.298605 
L 323.29954 267.296155 
L 323.734151 267.459283 
L 324.168762 266.096362 
L 324.603373 266.899002 
L 325.037985 267.337461 
L 325.472596 264.68936 
L 325.907207 266.262928 
L 326.341818 265.860437 
L 327.211041 267.589881 
L 327.645652 263.849216 
L 328.514874 266.057988 
L 328.949485 266.017694 
L 329.384096 265.695223 
L 329.818708 267.596332 
L 330.253319 279.357816 
L 330.68793 279.106925 
L 331.122541 267.098712 
L 331.557152 265.548375 
L 331.991763 265.236079 
L 332.426375 265.587402 
L 332.860986 266.198761 
L 333.295597 267.733541 
L 333.730208 267.120193 
L 334.164819 267.790069 
L 334.59943 266.900531 
L 335.034042 266.361292 
L 335.468653 276.627874 
L 335.903264 281.680588 
L 336.337875 283.075881 
L 337.207097 280.640626 
L 338.07632 281.890559 
L 338.510931 281.879031 
L 338.945542 278.884075 
L 339.380153 278.923852 
L 339.814765 280.434475 
L 340.249376 275.462038 
L 340.683987 276.836981 
L 341.118598 276.390546 
L 341.553209 275.399677 
L 341.98782 279.381086 
L 342.422432 277.900322 
L 342.857043 278.462337 
L 343.291654 277.08495 
L 343.726265 276.41837 
L 344.160876 277.426178 
L 344.595487 276.733746 
L 345.030099 277.406602 
L 345.46471 276.813779 
L 345.899321 274.187868 
L 346.333932 274.284304 
L 346.768543 271.09012 
L 347.203154 273.302291 
L 347.637766 273.318729 
L 348.072377 271.51354 
L 348.506988 273.512847 
L 348.941599 274.724424 
L 349.37621 274.7472 
L 349.810821 274.221051 
L 350.245433 276.148625 
L 351.114655 273.113664 
L 351.549266 271.901263 
L 351.983877 274.178898 
L 352.418488 275.813917 
L 352.8531 279.588783 
L 353.287711 284.522927 
L 354.156933 274.291602 
L 354.591544 275.302565 
L 355.895378 274.437917 
L 356.329989 276.101499 
L 356.7646 275.643826 
L 357.199211 271.248013 
L 357.633823 271.096224 
L 358.068434 269.509457 
L 358.503045 274.522462 
L 358.937656 272.147487 
L 359.372267 272.962558 
L 359.806878 274.158344 
L 360.24149 271.925938 
L 360.676101 268.083664 
L 361.110712 275.181459 
L 361.545323 272.813862 
L 361.979934 275.443553 
L 362.414545 277.231332 
L 362.849157 270.309108 
L 363.283768 269.277785 
L 363.718379 271.169851 
L 364.15299 275.091542 
L 364.587601 277.027074 
L 365.022212 274.933076 
L 365.456824 275.243348 
L 365.891435 276.859666 
L 366.326046 274.866242 
L 366.760657 274.855743 
L 367.195268 274.962815 
L 367.62988 277.185399 
L 368.064491 272.07232 
L 368.499102 270.122021 
L 368.933713 272.363329 
L 369.368324 269.485317 
L 369.802935 271.375774 
L 370.237547 268.941201 
L 371.106769 270.919068 
L 371.54138 270.837615 
L 371.975991 271.766203 
L 372.410602 269.086725 
L 372.845214 268.610165 
L 373.279825 269.951902 
L 373.714436 269.327049 
L 374.149047 267.371589 
L 374.583658 268.797649 
L 375.018269 268.778943 
L 375.452881 272.906331 
L 375.887492 282.928157 
L 376.322103 277.483684 
L 376.756714 275.941366 
L 377.191325 271.030675 
L 377.625936 268.968354 
L 378.060548 273.770251 
L 378.495159 268.783882 
L 378.92977 267.80075 
L 379.364381 271.409435 
L 379.798992 270.261208 
L 380.233604 270.233083 
L 380.668215 268.431269 
L 381.102826 264.880982 
L 381.537437 271.115528 
L 381.972048 271.17865 
L 382.406659 258.483996 
L 382.841271 270.44614 
L 383.275882 269.346142 
L 383.710493 274.887353 
L 384.579715 269.512788 
L 385.014326 272.913573 
L 385.448938 272.871073 
L 385.883549 270.483848 
L 386.31816 270.615105 
L 386.752771 275.591715 
L 387.187382 268.652887 
L 387.621993 271.370101 
L 388.056605 275.794938 
L 388.491216 277.8507 
L 388.925827 275.09551 
L 389.360438 276.782573 
L 390.22966 276.372613 
L 390.664272 274.98409 
L 391.098883 273.08185 
L 391.533494 270.007106 
L 391.968105 268.651523 
L 392.402716 269.226054 
L 392.837327 268.425784 
L 393.271939 266.29331 
L 393.70655 270.744294 
L 394.141161 271.118768 
L 394.575772 267.615874 
L 395.010383 267.052205 
L 395.444995 271.154549 
L 395.879606 266.844468 
L 396.314217 272.541611 
L 396.748828 267.131248 
L 397.183439 266.783177 
L 397.61805 268.998861 
L 398.052662 273.594419 
L 398.487273 295.488 
L 398.487273 295.488 
" clip-path="url(#p82e09cdc18)" style="fill: none; stroke: #2ca02c; stroke-width: 1.5; stroke-linecap: square"/>
   </g>
   <g id="patch_3">
    <path d="M 57.6 307.584 
L 57.6 41.472 
" style="fill: none; stroke: #000000; stroke-width: 0.8; stroke-linejoin: miter; stroke-linecap: square"/>
   </g>
   <g id="patch_4">
    <path d="M 414.72 307.584 
L 414.72 41.472 
" style="fill: none; stroke: #000000; stroke-width: 0.8; stroke-linejoin: miter; stroke-linecap: square"/>
   </g>
   <g id="patch_5">
    <path d="M 57.6 307.584 
L 414.72 307.584 
" style="fill: none; stroke: #000000; stroke-width: 0.8; stroke-linejoin: miter; stroke-linecap: square"/>
   </g>
   <g id="patch_6">
    <path d="M 57.6 41.472 
L 414.72 41.472 
" style="fill: none; stroke: #000000; stroke-width: 0.8; stroke-linejoin: miter; stroke-linecap: square"/>
   </g>
   <g id="legend_1">
    <g id="patch_7">
     <path d="M 64.6 93.506375 
L 186.25625 93.506375 
Q 188.25625 93.506375 188.25625 91.506375 
L 188.25625 48.472 
Q 188.25625 46.472 186.25625 46.472 
L 64.6 46.472 
Q 62.6 46.472 62.6 48.472 
L 62.6 91.506375 
Q 62.6 93.506375 64.6 93.506375 
z
" style="fill: #ffffff; opacity: 0.8; stroke: #cccccc; stroke-linejoin: miter"/>
    </g>
    <g id="line2d_17">
     <path d="M 66.6 54.570438 
L 76.6 54.570438 
L 86.6 54.570438 
" style="fill: none; stroke: #1f77b4; stroke-width: 1.5; stroke-linecap: square"/>
    </g>
    <g id="text_16">
     <!-- Weekly maximum -->
     <g transform="translate(94.6 58.070438) scale(0.1 -0.1)">
      <defs>
       <path id="DejaVuSans-57" d="M 213 4666 
L 850 4666 
L 1831 722 
L 2809 4666 
L 3519 4666 
L 4500 722 
L 5478 4666 
L 6119 4666 
L 4947 0 
L 4153 0 
L 3169 4050 
L 2175 0 
L 1381 0 
L 213 4666 
z
" transform="scale(0.015625)"/>
       <path id="DejaVuSans-6b" d="M 581 4863 
L 1159 4863 
L 1159 1991 
L 2875 3500 
L 3609 3500 
L 1753 1863 
L 3688 0 
L 2938 0 
L 1159 1709 
L 1159 0 
L 581 0 
L 581 4863 
z
" transform="scale(0.015625)"/>
       <path id="DejaVuSans-79" d="M 2059 -325 
Q 1816 -950 1584 -1140 
Q 1353 -1331 966 -1331 
L 506 -1331 
L 506 -850 
L 844 -850 
Q 1081 -850 1212 -737 
Q 1344 -625 1503 -206 
L 1606 56 
L 191 3500 
L 800 3500 
L 1894 763 
L 2988 3500 
L 3597 3500 
L 2059 -325 
z
" transform="scale(0.015625)"/>
       <path id="DejaVuSans-6d" d="M 3328 2828 
Q 3544 3216 3844 3400 
Q 4144 3584 4550 3584 
Q 5097 3584 5394 3201 
Q 5691 2819 5691 2113 
L 5691 0 
L 5113 0 
L 5113 2094 
Q 5113 2597 4934 2840 
Q 4756 3084 4391 3084 
Q 3944 3084 3684 2787 
Q 3425 2491 3425 1978 
L 3425 0 
L 2847 0 
L 2847 2094 
Q 2847 2600 2669 2842 
Q 2491 3084 2119 3084 
Q 1678 3084 1418 2786 
Q 1159 2488 1159 1978 
L 1159 0 
L 581 0 
L 581 3500 
L 1159 3500 
L 1159 2956 
Q 1356 3278 1631 3431 
Q 1906 3584 2284 3584 
Q 2666 3584 2933 3390 
Q 3200 3197 3328 2828 
z
" transform="scale(0.015625)"/>
       <path id="DejaVuSans-78" d="M 3513 3500 
L 2247 1797 
L 3578 0 
L 2900 0 
L 1881 1375 
L 863 0 
L 184 0 
L 1544 1831 
L 300 3500 
L 978 3500 
L 1906 2253 
L 2834 3500 
L 3513 3500 
z
" transform="scale(0.015625)"/>
       <path id="DejaVuSans-75" d="M 544 1381 
L 544 3500 
L 1119 3500 
L 1119 1403 
Q 1119 906 1312 657 
Q 1506 409 1894 409 
Q 2359 409 2629 706 
Q 2900 1003 2900 1516 
L 2900 3500 
L 3475 3500 
L 3475 0 
L 2900 0 
L 2900 538 
Q 2691 219 2414 64 
Q 2138 -91 1772 -91 
Q 1169 -91 856 284 
Q 544 659 544 1381 
z
M 1991 3584 
L 1991 3584 
z
" transform="scale(0.015625)"/>
      </defs>
      <use xlink:href="#DejaVuSans-57"/>
      <use xlink:href="#DejaVuSans-65" x="93.001953"/>
      <use xlink:href="#DejaVuSans-65" x="154.525391"/>
      <use xlink:href="#DejaVuSans-6b" x="216.048828"/>
      <use xlink:href="#DejaVuSans-6c" x="273.958984"/>
      <use xlink:href="#DejaVuSans-79" x="301.742188"/>
      <use xlink:href="#DejaVuSans-20" x="360.921875"/>
      <use xlink:href="#DejaVuSans-6d" x="392.708984"/>
      <use xlink:href="#DejaVuSans-61" x="490.121094"/>
      <use xlink:href="#DejaVuSans-78" x="551.400391"/>
      <use xlink:href="#DejaVuSans-69" x="610.580078"/>
      <use xlink:href="#DejaVuSans-6d" x="638.363281"/>
      <use xlink:href="#DejaVuSans-75" x="735.775391"/>
      <use xlink:href="#DejaVuSans-6d" x="799.154297"/>
     </g>
    </g>
    <g id="line2d_18">
     <path d="M 66.6 69.248563 
L 76.6 69.248563 
L 86.6 69.248563 
" style="fill: none; stroke: #ff7f0e; stroke-width: 1.5; stroke-linecap: square"/>
    </g>
    <g id="text_17">
     <!-- Weekly minimum -->
     <g transform="translate(94.6 72.748563) scale(0.1 -0.1)">
      <defs>
       <path id="DejaVuSans-6e" d="M 3513 2113 
L 3513 0 
L 2938 0 
L 2938 2094 
Q 2938 2591 2744 2837 
Q 2550 3084 2163 3084 
Q 1697 3084 1428 2787 
Q 1159 2491 1159 1978 
L 1159 0 
L 581 0 
L 581 3500 
L 1159 3500 
L 1159 2956 
Q 1366 3272 1645 3428 
Q 1925 3584 2291 3584 
Q 2894 3584 3203 3211 
Q 3513 2838 3513 2113 
z
" transform="scale(0.015625)"/>
      </defs>
      <use xlink:href="#DejaVuSans-57"/>
      <use xlink:href="#DejaVuSans-65" x="93.001953"/>
      <use xlink:href="#DejaVuSans-65" x="154.525391"/>
      <use xlink:href="#DejaVuSans-6b" x="216.048828"/>
      <use xlink:href="#DejaVuSans-6c" x="273.958984"/>
      <use xlink:href="#DejaVuSans-79" x="301.742188"/>
      <use xlink:href="#DejaVuSans-20" x="360.921875"/>
      <use xlink:href="#DejaVuSans-6d" x="392.708984"/>
      <use xlink:href="#DejaVuSans-69" x="490.121094"/>
      <use xlink:href="#DejaVuSans-6e" x="517.904297"/>
      <use xlink:href="#DejaVuSans-69" x="581.283203"/>
      <use xlink:href="#DejaVuSans-6d" x="609.066406"/>
      <use xlink:href="#DejaVuSans-75" x="706.478516"/>
      <use xlink:href="#DejaVuSans-6d" x="769.857422"/>
     </g>
    </g>
    <g id="line2d_19">
     <path d="M 66.6 83.926688 
L 76.6 83.926688 
L 86.6 83.926688 
" style="fill: none; stroke: #2ca02c; stroke-width: 1.5; stroke-linecap: square"/>
    </g>
    <g id="text_18">
     <!-- Weekly range -->
     <g transform="translate(94.6 87.426688) scale(0.1 -0.1)">
      <use xlink:href="#DejaVuSans-57"/>
      <use xlink:href="#DejaVuSans-65" x="93.001953"/>
      <use xlink:href="#DejaVuSans-65" x="154.525391"/>
      <use xlink:href="#DejaVuSans-6b" x="216.048828"/>
      <use xlink:href="#DejaVuSans-6c" x="273.958984"/>
      <use xlink:href="#DejaVuSans-79" x="301.742188"/>
      <use xlink:href="#DejaVuSans-20" x="360.921875"/>
      <use xlink:href="#DejaVuSans-72" x="392.708984"/>
      <use xlink:href="#DejaVuSans-61" x="433.822266"/>
      <use xlink:href="#DejaVuSans-6e" x="495.101562"/>
      <use xlink:href="#DejaVuSans-67" x="558.480469"/>
      <use xlink:href="#DejaVuSans-65" x="621.957031"/>
     </g>
    </g>
   </g>
  </g>
 </g>
 <defs>
  <clipPath id="p82e09cdc18">
   <rect x="57.6" y="41.472" width="357.12" height="266.112"/>
  </clipPath>
 </defs>
</svg>
