<?xml version="1.0" encoding="utf-8" standalone="no"?>
<!DOCTYPE svg PUBLIC "-//W3C//DTD SVG 1.1//EN"
  "http://www.w3.org/Graphics/SVG/1.1/DTD/svg11.dtd">
<svg xmlns:xlink="http://www.w3.org/1999/xlink" width="460.8pt" height="345.6pt" viewBox="0 0 460.8 345.6" xmlns="http://www.w3.org/2000/svg" version="1.1">
 <metadata>
  <rdf:RDF xmlns:dc="http://purl.org/dc/elements/1.1/" xmlns:cc="http://creativecommons.org/ns#" xmlns:rdf="http://www.w3.org/1999/02/22-rdf-syntax-ns#">
   <cc:Work>
    <dc:type rdf:resource="http://purl.org/dc/dcmitype/StillImage"/>
    <dc:date>2023-07-20T05:31:55.432687</dc:date>
    <dc:format>image/svg+xml</dc:format>
    <dc:creator>
     <cc:Agent>
      <dc:title>Matplotlib v3.7.2, https://matplotlib.org/</dc:title>
     </cc:Agent>
    </dc:creator>
   </cc:Work>
  </rdf:RDF>
 </metadata>
 <defs>
  <style type="text/css">*{stroke-linejoin: round; stroke-linecap: butt}</style>
 </defs>
 <g id="figure_1">
  <g id="patch_1">
   <path d="M 0 345.6 
L 460.8 345.6 
L 460.8 0 
L 0 0 
z
" style="fill: #ffffff"/>
  </g>
  <g id="axes_1">
   <g id="patch_2">
    <path d="M 57.6 307.584 
L 414.72 307.584 
L 414.72 41.472 
L 57.6 41.472 
z
" style="fill: #ffffff"/>
   </g>
   <g id="matplotlib.axis_1">
    <g id="xtick_1">
     <g id="line2d_1">
      <defs>
       <path id="ma2841ab105" d="M 0 0 
L 0 3.5 
" style="stroke: #000000; stroke-width: 0.8"/>
      </defs>
      <g>
       <use xlink:href="#ma2841ab105" x="59.24957" y="307.584" style="stroke: #000000; stroke-width: 0.8"/>
      </g>
     </g>
     <g id="text_1">
      <!-- 2008 -->
      <g transform="translate(46.52457 322.182437) scale(0.1 -0.1)">
       <defs>
        <path id="DejaVuSans-32" d="M 1228 531 
L 3431 531 
L 3431 0 
L 469 0 
L 469 531 
Q 828 903 1448 1529 
Q 2069 2156 2228 2338 
Q 2531 2678 2651 2914 
Q 2772 3150 2772 3378 
Q 2772 3750 2511 3984 
Q 2250 4219 1831 4219 
Q 1534 4219 1204 4116 
Q 875 4013 500 3803 
L 500 4441 
Q 881 4594 1212 4672 
Q 1544 4750 1819 4750 
Q 2544 4750 2975 4387 
Q 3406 4025 3406 3419 
Q 3406 3131 3298 2873 
Q 3191 2616 2906 2266 
Q 2828 2175 2409 1742 
Q 1991 1309 1228 531 
z
" transform="scale(0.015625)"/>
        <path id="DejaVuSans-30" d="M 2034 4250 
Q 1547 4250 1301 3770 
Q 1056 3291 1056 2328 
Q 1056 1369 1301 889 
Q 1547 409 2034 409 
Q 2525 409 2770 889 
Q 3016 1369 3016 2328 
Q 3016 3291 2770 3770 
Q 2525 4250 2034 4250 
z
M 2034 4750 
Q 2819 4750 3233 4129 
Q 3647 3509 3647 2328 
Q 3647 1150 3233 529 
Q 2819 -91 2034 -91 
Q 1250 -91 836 529 
Q 422 1150 422 2328 
Q 422 3509 836 4129 
Q 1250 4750 2034 4750 
z
" transform="scale(0.015625)"/>
        <path id="DejaVuSans-38" d="M 2034 2216 
Q 1584 2216 1326 1975 
Q 1069 1734 1069 1313 
Q 1069 891 1326 650 
Q 1584 409 2034 409 
Q 2484 409 2743 651 
Q 3003 894 3003 1313 
Q 3003 1734 2745 1975 
Q 2488 2216 2034 2216 
z
M 1403 2484 
Q 997 2584 770 2862 
Q 544 3141 544 3541 
Q 544 4100 942 4425 
Q 1341 4750 2034 4750 
Q 2731 4750 3128 4425 
Q 3525 4100 3525 3541 
Q 3525 3141 3298 2862 
Q 3072 2584 2669 2484 
Q 3125 2378 3379 2068 
Q 3634 1759 3634 1313 
Q 3634 634 3220 271 
Q 2806 -91 2034 -91 
Q 1263 -91 848 271 
Q 434 634 434 1313 
Q 434 1759 690 2068 
Q 947 2378 1403 2484 
z
M 1172 3481 
Q 1172 3119 1398 2916 
Q 1625 2713 2034 2713 
Q 2441 2713 2670 2916 
Q 2900 3119 2900 3481 
Q 2900 3844 2670 4047 
Q 2441 4250 2034 4250 
Q 1625 4250 1398 4047 
Q 1172 3844 1172 3481 
z
" transform="scale(0.015625)"/>
       </defs>
       <use xlink:href="#DejaVuSans-32"/>
       <use xlink:href="#DejaVuSans-30" x="63.623047"/>
       <use xlink:href="#DejaVuSans-30" x="127.246094"/>
       <use xlink:href="#DejaVuSans-38" x="190.869141"/>
      </g>
     </g>
    </g>
    <g id="xtick_2">
     <g id="line2d_2">
      <g>
       <use xlink:href="#ma2841ab105" x="102.939274" y="307.584" style="stroke: #000000; stroke-width: 0.8"/>
      </g>
     </g>
     <g id="text_2">
      <!-- 2010 -->
      <g transform="translate(90.214274 322.182437) scale(0.1 -0.1)">
       <defs>
        <path id="DejaVuSans-31" d="M 794 531 
L 1825 531 
L 1825 4091 
L 703 3866 
L 703 4441 
L 1819 4666 
L 2450 4666 
L 2450 531 
L 3481 531 
L 3481 0 
L 794 0 
L 794 531 
z
" transform="scale(0.015625)"/>
       </defs>
       <use xlink:href="#DejaVuSans-32"/>
       <use xlink:href="#DejaVuSans-30" x="63.623047"/>
       <use xlink:href="#DejaVuSans-31" x="127.246094"/>
       <use xlink:href="#DejaVuSans-30" x="190.869141"/>
      </g>
     </g>
    </g>
    <g id="xtick_3">
     <g id="line2d_3">
      <g>
       <use xlink:href="#ma2841ab105" x="146.569211" y="307.584" style="stroke: #000000; stroke-width: 0.8"/>
      </g>
     </g>
     <g id="text_3">
      <!-- 2012 -->
      <g transform="translate(133.844211 322.182437) scale(0.1 -0.1)">
       <use xlink:href="#DejaVuSans-32"/>
       <use xlink:href="#DejaVuSans-30" x="63.623047"/>
       <use xlink:href="#DejaVuSans-31" x="127.246094"/>
       <use xlink:href="#DejaVuSans-32" x="190.869141"/>
      </g>
     </g>
    </g>
    <g id="xtick_4">
     <g id="line2d_4">
      <g>
       <use xlink:href="#ma2841ab105" x="190.258916" y="307.584" style="stroke: #000000; stroke-width: 0.8"/>
      </g>
     </g>
     <g id="text_4">
      <!-- 2014 -->
      <g transform="translate(177.533916 322.182437) scale(0.1 -0.1)">
       <defs>
        <path id="DejaVuSans-34" d="M 2419 4116 
L 825 1625 
L 2419 1625 
L 2419 4116 
z
M 2253 4666 
L 3047 4666 
L 3047 1625 
L 3713 1625 
L 3713 1100 
L 3047 1100 
L 3047 0 
L 2419 0 
L 2419 1100 
L 313 1100 
L 313 1709 
L 2253 4666 
z
" transform="scale(0.015625)"/>
       </defs>
       <use xlink:href="#DejaVuSans-32"/>
       <use xlink:href="#DejaVuSans-30" x="63.623047"/>
       <use xlink:href="#DejaVuSans-31" x="127.246094"/>
       <use xlink:href="#DejaVuSans-34" x="190.869141"/>
      </g>
     </g>
    </g>
    <g id="xtick_5">
     <g id="line2d_5">
      <g>
       <use xlink:href="#ma2841ab105" x="233.888853" y="307.584" style="stroke: #000000; stroke-width: 0.8"/>
      </g>
     </g>
     <g id="text_5">
      <!-- 2016 -->
      <g transform="translate(221.163853 322.182437) scale(0.1 -0.1)">
       <defs>
        <path id="DejaVuSans-36" d="M 2113 2584 
Q 1688 2584 1439 2293 
Q 1191 2003 1191 1497 
Q 1191 994 1439 701 
Q 1688 409 2113 409 
Q 2538 409 2786 701 
Q 3034 994 3034 1497 
Q 3034 2003 2786 2293 
Q 2538 2584 2113 2584 
z
M 3366 4563 
L 3366 3988 
Q 3128 4100 2886 4159 
Q 2644 4219 2406 4219 
Q 1781 4219 1451 3797 
Q 1122 3375 1075 2522 
Q 1259 2794 1537 2939 
Q 1816 3084 2150 3084 
Q 2853 3084 3261 2657 
Q 3669 2231 3669 1497 
Q 3669 778 3244 343 
Q 2819 -91 2113 -91 
Q 1303 -91 875 529 
Q 447 1150 447 2328 
Q 447 3434 972 4092 
Q 1497 4750 2381 4750 
Q 2619 4750 2861 4703 
Q 3103 4656 3366 4563 
z
" transform="scale(0.015625)"/>
       </defs>
       <use xlink:href="#DejaVuSans-32"/>
       <use xlink:href="#DejaVuSans-30" x="63.623047"/>
       <use xlink:href="#DejaVuSans-31" x="127.246094"/>
       <use xlink:href="#DejaVuSans-36" x="190.869141"/>
      </g>
     </g>
    </g>
    <g id="xtick_6">
     <g id="line2d_6">
      <g>
       <use xlink:href="#ma2841ab105" x="277.578557" y="307.584" style="stroke: #000000; stroke-width: 0.8"/>
      </g>
     </g>
     <g id="text_6">
      <!-- 2018 -->
      <g transform="translate(264.853557 322.182437) scale(0.1 -0.1)">
       <use xlink:href="#DejaVuSans-32"/>
       <use xlink:href="#DejaVuSans-30" x="63.623047"/>
       <use xlink:href="#DejaVuSans-31" x="127.246094"/>
       <use xlink:href="#DejaVuSans-38" x="190.869141"/>
      </g>
     </g>
    </g>
    <g id="xtick_7">
     <g id="line2d_7">
      <g>
       <use xlink:href="#ma2841ab105" x="321.208494" y="307.584" style="stroke: #000000; stroke-width: 0.8"/>
      </g>
     </g>
     <g id="text_7">
      <!-- 2020 -->
      <g transform="translate(308.483494 322.182437) scale(0.1 -0.1)">
       <use xlink:href="#DejaVuSans-32"/>
       <use xlink:href="#DejaVuSans-30" x="63.623047"/>
       <use xlink:href="#DejaVuSans-32" x="127.246094"/>
       <use xlink:href="#DejaVuSans-30" x="190.869141"/>
      </g>
     </g>
    </g>
    <g id="xtick_8">
     <g id="line2d_8">
      <g>
       <use xlink:href="#ma2841ab105" x="364.898198" y="307.584" style="stroke: #000000; stroke-width: 0.8"/>
      </g>
     </g>
     <g id="text_8">
      <!-- 2022 -->
      <g transform="translate(352.173198 322.182437) scale(0.1 -0.1)">
       <use xlink:href="#DejaVuSans-32"/>
       <use xlink:href="#DejaVuSans-30" x="63.623047"/>
       <use xlink:href="#DejaVuSans-32" x="127.246094"/>
       <use xlink:href="#DejaVuSans-32" x="190.869141"/>
      </g>
     </g>
    </g>
    <g id="xtick_9">
     <g id="line2d_9">
      <g>
       <use xlink:href="#ma2841ab105" x="408.528135" y="307.584" style="stroke: #000000; stroke-width: 0.8"/>
      </g>
     </g>
     <g id="text_9">
      <!-- 2024 -->
      <g transform="translate(395.803135 322.182437) scale(0.1 -0.1)">
       <use xlink:href="#DejaVuSans-32"/>
       <use xlink:href="#DejaVuSans-30" x="63.623047"/>
       <use xlink:href="#DejaVuSans-32" x="127.246094"/>
       <use xlink:href="#DejaVuSans-34" x="190.869141"/>
      </g>
     </g>
    </g>
    <g id="text_10">
     <!-- Updated 2023-07-20 05:31:55.430487 - Last record 2023-07-18 -->
     <g transform="translate(75.905312 335.860562) scale(0.1 -0.1)">
      <defs>
       <path id="DejaVuSans-55" d="M 556 4666 
L 1191 4666 
L 1191 1831 
Q 1191 1081 1462 751 
Q 1734 422 2344 422 
Q 2950 422 3222 751 
Q 3494 1081 3494 1831 
L 3494 4666 
L 4128 4666 
L 4128 1753 
Q 4128 841 3676 375 
Q 3225 -91 2344 -91 
Q 1459 -91 1007 375 
Q 556 841 556 1753 
L 556 4666 
z
" transform="scale(0.015625)"/>
       <path id="DejaVuSans-70" d="M 1159 525 
L 1159 -1331 
L 581 -1331 
L 581 3500 
L 1159 3500 
L 1159 2969 
Q 1341 3281 1617 3432 
Q 1894 3584 2278 3584 
Q 2916 3584 3314 3078 
Q 3713 2572 3713 1747 
Q 3713 922 3314 415 
Q 2916 -91 2278 -91 
Q 1894 -91 1617 61 
Q 1341 213 1159 525 
z
M 3116 1747 
Q 3116 2381 2855 2742 
Q 2594 3103 2138 3103 
Q 1681 3103 1420 2742 
Q 1159 2381 1159 1747 
Q 1159 1113 1420 752 
Q 1681 391 2138 391 
Q 2594 391 2855 752 
Q 3116 1113 3116 1747 
z
" transform="scale(0.015625)"/>
       <path id="DejaVuSans-64" d="M 2906 2969 
L 2906 4863 
L 3481 4863 
L 3481 0 
L 2906 0 
L 2906 525 
Q 2725 213 2448 61 
Q 2172 -91 1784 -91 
Q 1150 -91 751 415 
Q 353 922 353 1747 
Q 353 2572 751 3078 
Q 1150 3584 1784 3584 
Q 2172 3584 2448 3432 
Q 2725 3281 2906 2969 
z
M 947 1747 
Q 947 1113 1208 752 
Q 1469 391 1925 391 
Q 2381 391 2643 752 
Q 2906 1113 2906 1747 
Q 2906 2381 2643 2742 
Q 2381 3103 1925 3103 
Q 1469 3103 1208 2742 
Q 947 2381 947 1747 
z
" transform="scale(0.015625)"/>
       <path id="DejaVuSans-61" d="M 2194 1759 
Q 1497 1759 1228 1600 
Q 959 1441 959 1056 
Q 959 750 1161 570 
Q 1363 391 1709 391 
Q 2188 391 2477 730 
Q 2766 1069 2766 1631 
L 2766 1759 
L 2194 1759 
z
M 3341 1997 
L 3341 0 
L 2766 0 
L 2766 531 
Q 2569 213 2275 61 
Q 1981 -91 1556 -91 
Q 1019 -91 701 211 
Q 384 513 384 1019 
Q 384 1609 779 1909 
Q 1175 2209 1959 2209 
L 2766 2209 
L 2766 2266 
Q 2766 2663 2505 2880 
Q 2244 3097 1772 3097 
Q 1472 3097 1187 3025 
Q 903 2953 641 2809 
L 641 3341 
Q 956 3463 1253 3523 
Q 1550 3584 1831 3584 
Q 2591 3584 2966 3190 
Q 3341 2797 3341 1997 
z
" transform="scale(0.015625)"/>
       <path id="DejaVuSans-74" d="M 1172 4494 
L 1172 3500 
L 2356 3500 
L 2356 3053 
L 1172 3053 
L 1172 1153 
Q 1172 725 1289 603 
Q 1406 481 1766 481 
L 2356 481 
L 2356 0 
L 1766 0 
Q 1100 0 847 248 
Q 594 497 594 1153 
L 594 3053 
L 172 3053 
L 172 3500 
L 594 3500 
L 594 4494 
L 1172 4494 
z
" transform="scale(0.015625)"/>
       <path id="DejaVuSans-65" d="M 3597 1894 
L 3597 1613 
L 953 1613 
Q 991 1019 1311 708 
Q 1631 397 2203 397 
Q 2534 397 2845 478 
Q 3156 559 3463 722 
L 3463 178 
Q 3153 47 2828 -22 
Q 2503 -91 2169 -91 
Q 1331 -91 842 396 
Q 353 884 353 1716 
Q 353 2575 817 3079 
Q 1281 3584 2069 3584 
Q 2775 3584 3186 3129 
Q 3597 2675 3597 1894 
z
M 3022 2063 
Q 3016 2534 2758 2815 
Q 2500 3097 2075 3097 
Q 1594 3097 1305 2825 
Q 1016 2553 972 2059 
L 3022 2063 
z
" transform="scale(0.015625)"/>
       <path id="DejaVuSans-20" transform="scale(0.015625)"/>
       <path id="DejaVuSans-33" d="M 2597 2516 
Q 3050 2419 3304 2112 
Q 3559 1806 3559 1356 
Q 3559 666 3084 287 
Q 2609 -91 1734 -91 
Q 1441 -91 1130 -33 
Q 819 25 488 141 
L 488 750 
Q 750 597 1062 519 
Q 1375 441 1716 441 
Q 2309 441 2620 675 
Q 2931 909 2931 1356 
Q 2931 1769 2642 2001 
Q 2353 2234 1838 2234 
L 1294 2234 
L 1294 2753 
L 1863 2753 
Q 2328 2753 2575 2939 
Q 2822 3125 2822 3475 
Q 2822 3834 2567 4026 
Q 2313 4219 1838 4219 
Q 1578 4219 1281 4162 
Q 984 4106 628 3988 
L 628 4550 
Q 988 4650 1302 4700 
Q 1616 4750 1894 4750 
Q 2613 4750 3031 4423 
Q 3450 4097 3450 3541 
Q 3450 3153 3228 2886 
Q 3006 2619 2597 2516 
z
" transform="scale(0.015625)"/>
       <path id="DejaVuSans-2d" d="M 313 2009 
L 1997 2009 
L 1997 1497 
L 313 1497 
L 313 2009 
z
" transform="scale(0.015625)"/>
       <path id="DejaVuSans-37" d="M 525 4666 
L 3525 4666 
L 3525 4397 
L 1831 0 
L 1172 0 
L 2766 4134 
L 525 4134 
L 525 4666 
z
" transform="scale(0.015625)"/>
       <path id="DejaVuSans-35" d="M 691 4666 
L 3169 4666 
L 3169 4134 
L 1269 4134 
L 1269 2991 
Q 1406 3038 1543 3061 
Q 1681 3084 1819 3084 
Q 2600 3084 3056 2656 
Q 3513 2228 3513 1497 
Q 3513 744 3044 326 
Q 2575 -91 1722 -91 
Q 1428 -91 1123 -41 
Q 819 9 494 109 
L 494 744 
Q 775 591 1075 516 
Q 1375 441 1709 441 
Q 2250 441 2565 725 
Q 2881 1009 2881 1497 
Q 2881 1984 2565 2268 
Q 2250 2553 1709 2553 
Q 1456 2553 1204 2497 
Q 953 2441 691 2322 
L 691 4666 
z
" transform="scale(0.015625)"/>
       <path id="DejaVuSans-3a" d="M 750 794 
L 1409 794 
L 1409 0 
L 750 0 
L 750 794 
z
M 750 3309 
L 1409 3309 
L 1409 2516 
L 750 2516 
L 750 3309 
z
" transform="scale(0.015625)"/>
       <path id="DejaVuSans-2e" d="M 684 794 
L 1344 794 
L 1344 0 
L 684 0 
L 684 794 
z
" transform="scale(0.015625)"/>
       <path id="DejaVuSans-4c" d="M 628 4666 
L 1259 4666 
L 1259 531 
L 3531 531 
L 3531 0 
L 628 0 
L 628 4666 
z
" transform="scale(0.015625)"/>
       <path id="DejaVuSans-73" d="M 2834 3397 
L 2834 2853 
Q 2591 2978 2328 3040 
Q 2066 3103 1784 3103 
Q 1356 3103 1142 2972 
Q 928 2841 928 2578 
Q 928 2378 1081 2264 
Q 1234 2150 1697 2047 
L 1894 2003 
Q 2506 1872 2764 1633 
Q 3022 1394 3022 966 
Q 3022 478 2636 193 
Q 2250 -91 1575 -91 
Q 1294 -91 989 -36 
Q 684 19 347 128 
L 347 722 
Q 666 556 975 473 
Q 1284 391 1588 391 
Q 1994 391 2212 530 
Q 2431 669 2431 922 
Q 2431 1156 2273 1281 
Q 2116 1406 1581 1522 
L 1381 1569 
Q 847 1681 609 1914 
Q 372 2147 372 2553 
Q 372 3047 722 3315 
Q 1072 3584 1716 3584 
Q 2034 3584 2315 3537 
Q 2597 3491 2834 3397 
z
" transform="scale(0.015625)"/>
       <path id="DejaVuSans-72" d="M 2631 2963 
Q 2534 3019 2420 3045 
Q 2306 3072 2169 3072 
Q 1681 3072 1420 2755 
Q 1159 2438 1159 1844 
L 1159 0 
L 581 0 
L 581 3500 
L 1159 3500 
L 1159 2956 
Q 1341 3275 1631 3429 
Q 1922 3584 2338 3584 
Q 2397 3584 2469 3576 
Q 2541 3569 2628 3553 
L 2631 2963 
z
" transform="scale(0.015625)"/>
       <path id="DejaVuSans-63" d="M 3122 3366 
L 3122 2828 
Q 2878 2963 2633 3030 
Q 2388 3097 2138 3097 
Q 1578 3097 1268 2742 
Q 959 2388 959 1747 
Q 959 1106 1268 751 
Q 1578 397 2138 397 
Q 2388 397 2633 464 
Q 2878 531 3122 666 
L 3122 134 
Q 2881 22 2623 -34 
Q 2366 -91 2075 -91 
Q 1284 -91 818 406 
Q 353 903 353 1747 
Q 353 2603 823 3093 
Q 1294 3584 2113 3584 
Q 2378 3584 2631 3529 
Q 2884 3475 3122 3366 
z
" transform="scale(0.015625)"/>
       <path id="DejaVuSans-6f" d="M 1959 3097 
Q 1497 3097 1228 2736 
Q 959 2375 959 1747 
Q 959 1119 1226 758 
Q 1494 397 1959 397 
Q 2419 397 2687 759 
Q 2956 1122 2956 1747 
Q 2956 2369 2687 2733 
Q 2419 3097 1959 3097 
z
M 1959 3584 
Q 2709 3584 3137 3096 
Q 3566 2609 3566 1747 
Q 3566 888 3137 398 
Q 2709 -91 1959 -91 
Q 1206 -91 779 398 
Q 353 888 353 1747 
Q 353 2609 779 3096 
Q 1206 3584 1959 3584 
z
" transform="scale(0.015625)"/>
      </defs>
      <use xlink:href="#DejaVuSans-55"/>
      <use xlink:href="#DejaVuSans-70" x="73.193359"/>
      <use xlink:href="#DejaVuSans-64" x="136.669922"/>
      <use xlink:href="#DejaVuSans-61" x="200.146484"/>
      <use xlink:href="#DejaVuSans-74" x="261.425781"/>
      <use xlink:href="#DejaVuSans-65" x="300.634766"/>
      <use xlink:href="#DejaVuSans-64" x="362.158203"/>
      <use xlink:href="#DejaVuSans-20" x="425.634766"/>
      <use xlink:href="#DejaVuSans-32" x="457.421875"/>
      <use xlink:href="#DejaVuSans-30" x="521.044922"/>
      <use xlink:href="#DejaVuSans-32" x="584.667969"/>
      <use xlink:href="#DejaVuSans-33" x="648.291016"/>
      <use xlink:href="#DejaVuSans-2d" x="711.914062"/>
      <use xlink:href="#DejaVuSans-30" x="747.998047"/>
      <use xlink:href="#DejaVuSans-37" x="811.621094"/>
      <use xlink:href="#DejaVuSans-2d" x="875.244141"/>
      <use xlink:href="#DejaVuSans-32" x="911.328125"/>
      <use xlink:href="#DejaVuSans-30" x="974.951172"/>
      <use xlink:href="#DejaVuSans-20" x="1038.574219"/>
      <use xlink:href="#DejaVuSans-30" x="1070.361328"/>
      <use xlink:href="#DejaVuSans-35" x="1133.984375"/>
      <use xlink:href="#DejaVuSans-3a" x="1197.607422"/>
      <use xlink:href="#DejaVuSans-33" x="1231.298828"/>
      <use xlink:href="#DejaVuSans-31" x="1294.921875"/>
      <use xlink:href="#DejaVuSans-3a" x="1358.544922"/>
      <use xlink:href="#DejaVuSans-35" x="1392.236328"/>
      <use xlink:href="#DejaVuSans-35" x="1455.859375"/>
      <use xlink:href="#DejaVuSans-2e" x="1519.482422"/>
      <use xlink:href="#DejaVuSans-34" x="1551.269531"/>
      <use xlink:href="#DejaVuSans-33" x="1614.892578"/>
      <use xlink:href="#DejaVuSans-30" x="1678.515625"/>
      <use xlink:href="#DejaVuSans-34" x="1742.138672"/>
      <use xlink:href="#DejaVuSans-38" x="1805.761719"/>
      <use xlink:href="#DejaVuSans-37" x="1869.384766"/>
      <use xlink:href="#DejaVuSans-20" x="1933.007812"/>
      <use xlink:href="#DejaVuSans-2d" x="1964.794922"/>
      <use xlink:href="#DejaVuSans-20" x="2000.878906"/>
      <use xlink:href="#DejaVuSans-4c" x="2032.666016"/>
      <use xlink:href="#DejaVuSans-61" x="2088.378906"/>
      <use xlink:href="#DejaVuSans-73" x="2149.658203"/>
      <use xlink:href="#DejaVuSans-74" x="2201.757812"/>
      <use xlink:href="#DejaVuSans-20" x="2240.966797"/>
      <use xlink:href="#DejaVuSans-72" x="2272.753906"/>
      <use xlink:href="#DejaVuSans-65" x="2311.617188"/>
      <use xlink:href="#DejaVuSans-63" x="2373.140625"/>
      <use xlink:href="#DejaVuSans-6f" x="2428.121094"/>
      <use xlink:href="#DejaVuSans-72" x="2489.302734"/>
      <use xlink:href="#DejaVuSans-64" x="2528.666016"/>
      <use xlink:href="#DejaVuSans-20" x="2592.142578"/>
      <use xlink:href="#DejaVuSans-32" x="2623.929688"/>
      <use xlink:href="#DejaVuSans-30" x="2687.552734"/>
      <use xlink:href="#DejaVuSans-32" x="2751.175781"/>
      <use xlink:href="#DejaVuSans-33" x="2814.798828"/>
      <use xlink:href="#DejaVuSans-2d" x="2878.421875"/>
      <use xlink:href="#DejaVuSans-30" x="2914.505859"/>
      <use xlink:href="#DejaVuSans-37" x="2978.128906"/>
      <use xlink:href="#DejaVuSans-2d" x="3041.751953"/>
      <use xlink:href="#DejaVuSans-31" x="3077.835938"/>
      <use xlink:href="#DejaVuSans-38" x="3141.458984"/>
     </g>
    </g>
   </g>
   <g id="matplotlib.axis_2">
    <g id="ytick_1">
     <g id="line2d_10">
      <defs>
       <path id="m9dba05b71f" d="M 0 0 
L -3.5 0 
" style="stroke: #000000; stroke-width: 0.8"/>
      </defs>
      <g>
       <use xlink:href="#m9dba05b71f" x="57.6" y="295.545266" style="stroke: #000000; stroke-width: 0.8"/>
      </g>
     </g>
     <g id="text_11">
      <!-- 0 -->
      <g transform="translate(44.2375 299.344485) scale(0.1 -0.1)">
       <use xlink:href="#DejaVuSans-30"/>
      </g>
     </g>
    </g>
    <g id="ytick_2">
     <g id="line2d_11">
      <g>
       <use xlink:href="#m9dba05b71f" x="57.6" y="241.479732" style="stroke: #000000; stroke-width: 0.8"/>
      </g>
     </g>
     <g id="text_12">
      <!-- 10 -->
      <g transform="translate(37.875 245.278951) scale(0.1 -0.1)">
       <use xlink:href="#DejaVuSans-31"/>
       <use xlink:href="#DejaVuSans-30" x="63.623047"/>
      </g>
     </g>
    </g>
    <g id="ytick_3">
     <g id="line2d_12">
      <g>
       <use xlink:href="#m9dba05b71f" x="57.6" y="187.414198" style="stroke: #000000; stroke-width: 0.8"/>
      </g>
     </g>
     <g id="text_13">
      <!-- 20 -->
      <g transform="translate(37.875 191.213417) scale(0.1 -0.1)">
       <use xlink:href="#DejaVuSans-32"/>
       <use xlink:href="#DejaVuSans-30" x="63.623047"/>
      </g>
     </g>
    </g>
    <g id="ytick_4">
     <g id="line2d_13">
      <g>
       <use xlink:href="#m9dba05b71f" x="57.6" y="133.348664" style="stroke: #000000; stroke-width: 0.8"/>
      </g>
     </g>
     <g id="text_14">
      <!-- 30 -->
      <g transform="translate(37.875 137.147883) scale(0.1 -0.1)">
       <use xlink:href="#DejaVuSans-33"/>
       <use xlink:href="#DejaVuSans-30" x="63.623047"/>
      </g>
     </g>
    </g>
    <g id="ytick_5">
     <g id="line2d_14">
      <g>
       <use xlink:href="#m9dba05b71f" x="57.6" y="79.28313" style="stroke: #000000; stroke-width: 0.8"/>
      </g>
     </g>
     <g id="text_15">
      <!-- 40 -->
      <g transform="translate(37.875 83.082349) scale(0.1 -0.1)">
       <use xlink:href="#DejaVuSans-34"/>
       <use xlink:href="#DejaVuSans-30" x="63.623047"/>
      </g>
     </g>
    </g>
    <g id="text_16">
     <!-- IPv6 as % of total Google traffic -->
     <g transform="translate(31.795312 253.735813) rotate(-90) scale(0.1 -0.1)">
      <defs>
       <path id="DejaVuSans-49" d="M 628 4666 
L 1259 4666 
L 1259 0 
L 628 0 
L 628 4666 
z
" transform="scale(0.015625)"/>
       <path id="DejaVuSans-50" d="M 1259 4147 
L 1259 2394 
L 2053 2394 
Q 2494 2394 2734 2622 
Q 2975 2850 2975 3272 
Q 2975 3691 2734 3919 
Q 2494 4147 2053 4147 
L 1259 4147 
z
M 628 4666 
L 2053 4666 
Q 2838 4666 3239 4311 
Q 3641 3956 3641 3272 
Q 3641 2581 3239 2228 
Q 2838 1875 2053 1875 
L 1259 1875 
L 1259 0 
L 628 0 
L 628 4666 
z
" transform="scale(0.015625)"/>
       <path id="DejaVuSans-76" d="M 191 3500 
L 800 3500 
L 1894 563 
L 2988 3500 
L 3597 3500 
L 2284 0 
L 1503 0 
L 191 3500 
z
" transform="scale(0.015625)"/>
       <path id="DejaVuSans-25" d="M 4653 2053 
Q 4381 2053 4226 1822 
Q 4072 1591 4072 1178 
Q 4072 772 4226 539 
Q 4381 306 4653 306 
Q 4919 306 5073 539 
Q 5228 772 5228 1178 
Q 5228 1588 5073 1820 
Q 4919 2053 4653 2053 
z
M 4653 2450 
Q 5147 2450 5437 2106 
Q 5728 1763 5728 1178 
Q 5728 594 5436 251 
Q 5144 -91 4653 -91 
Q 4153 -91 3862 251 
Q 3572 594 3572 1178 
Q 3572 1766 3864 2108 
Q 4156 2450 4653 2450 
z
M 1428 4353 
Q 1159 4353 1004 4120 
Q 850 3888 850 3481 
Q 850 3069 1003 2837 
Q 1156 2606 1428 2606 
Q 1700 2606 1854 2837 
Q 2009 3069 2009 3481 
Q 2009 3884 1853 4118 
Q 1697 4353 1428 4353 
z
M 4250 4750 
L 4750 4750 
L 1831 -91 
L 1331 -91 
L 4250 4750 
z
M 1428 4750 
Q 1922 4750 2215 4408 
Q 2509 4066 2509 3481 
Q 2509 2891 2217 2550 
Q 1925 2209 1428 2209 
Q 931 2209 642 2551 
Q 353 2894 353 3481 
Q 353 4063 643 4406 
Q 934 4750 1428 4750 
z
" transform="scale(0.015625)"/>
       <path id="DejaVuSans-66" d="M 2375 4863 
L 2375 4384 
L 1825 4384 
Q 1516 4384 1395 4259 
Q 1275 4134 1275 3809 
L 1275 3500 
L 2222 3500 
L 2222 3053 
L 1275 3053 
L 1275 0 
L 697 0 
L 697 3053 
L 147 3053 
L 147 3500 
L 697 3500 
L 697 3744 
Q 697 4328 969 4595 
Q 1241 4863 1831 4863 
L 2375 4863 
z
" transform="scale(0.015625)"/>
       <path id="DejaVuSans-6c" d="M 603 4863 
L 1178 4863 
L 1178 0 
L 603 0 
L 603 4863 
z
" transform="scale(0.015625)"/>
       <path id="DejaVuSans-47" d="M 3809 666 
L 3809 1919 
L 2778 1919 
L 2778 2438 
L 4434 2438 
L 4434 434 
Q 4069 175 3628 42 
Q 3188 -91 2688 -91 
Q 1594 -91 976 548 
Q 359 1188 359 2328 
Q 359 3472 976 4111 
Q 1594 4750 2688 4750 
Q 3144 4750 3555 4637 
Q 3966 4525 4313 4306 
L 4313 3634 
Q 3963 3931 3569 4081 
Q 3175 4231 2741 4231 
Q 1884 4231 1454 3753 
Q 1025 3275 1025 2328 
Q 1025 1384 1454 906 
Q 1884 428 2741 428 
Q 3075 428 3337 486 
Q 3600 544 3809 666 
z
" transform="scale(0.015625)"/>
       <path id="DejaVuSans-67" d="M 2906 1791 
Q 2906 2416 2648 2759 
Q 2391 3103 1925 3103 
Q 1463 3103 1205 2759 
Q 947 2416 947 1791 
Q 947 1169 1205 825 
Q 1463 481 1925 481 
Q 2391 481 2648 825 
Q 2906 1169 2906 1791 
z
M 3481 434 
Q 3481 -459 3084 -895 
Q 2688 -1331 1869 -1331 
Q 1566 -1331 1297 -1286 
Q 1028 -1241 775 -1147 
L 775 -588 
Q 1028 -725 1275 -790 
Q 1522 -856 1778 -856 
Q 2344 -856 2625 -561 
Q 2906 -266 2906 331 
L 2906 616 
Q 2728 306 2450 153 
Q 2172 0 1784 0 
Q 1141 0 747 490 
Q 353 981 353 1791 
Q 353 2603 747 3093 
Q 1141 3584 1784 3584 
Q 2172 3584 2450 3431 
Q 2728 3278 2906 2969 
L 2906 3500 
L 3481 3500 
L 3481 434 
z
" transform="scale(0.015625)"/>
       <path id="DejaVuSans-69" d="M 603 3500 
L 1178 3500 
L 1178 0 
L 603 0 
L 603 3500 
z
M 603 4863 
L 1178 4863 
L 1178 4134 
L 603 4134 
L 603 4863 
z
" transform="scale(0.015625)"/>
      </defs>
      <use xlink:href="#DejaVuSans-49"/>
      <use xlink:href="#DejaVuSans-50" x="29.492188"/>
      <use xlink:href="#DejaVuSans-76" x="89.794922"/>
      <use xlink:href="#DejaVuSans-36" x="148.974609"/>
      <use xlink:href="#DejaVuSans-20" x="212.597656"/>
      <use xlink:href="#DejaVuSans-61" x="244.384766"/>
      <use xlink:href="#DejaVuSans-73" x="305.664062"/>
      <use xlink:href="#DejaVuSans-20" x="357.763672"/>
      <use xlink:href="#DejaVuSans-25" x="389.550781"/>
      <use xlink:href="#DejaVuSans-20" x="484.570312"/>
      <use xlink:href="#DejaVuSans-6f" x="516.357422"/>
      <use xlink:href="#DejaVuSans-66" x="577.539062"/>
      <use xlink:href="#DejaVuSans-20" x="612.744141"/>
      <use xlink:href="#DejaVuSans-74" x="644.53125"/>
      <use xlink:href="#DejaVuSans-6f" x="683.740234"/>
      <use xlink:href="#DejaVuSans-74" x="744.921875"/>
      <use xlink:href="#DejaVuSans-61" x="784.130859"/>
      <use xlink:href="#DejaVuSans-6c" x="845.410156"/>
      <use xlink:href="#DejaVuSans-20" x="873.193359"/>
      <use xlink:href="#DejaVuSans-47" x="904.980469"/>
      <use xlink:href="#DejaVuSans-6f" x="982.470703"/>
      <use xlink:href="#DejaVuSans-6f" x="1043.652344"/>
      <use xlink:href="#DejaVuSans-67" x="1104.833984"/>
      <use xlink:href="#DejaVuSans-6c" x="1168.310547"/>
      <use xlink:href="#DejaVuSans-65" x="1196.09375"/>
      <use xlink:href="#DejaVuSans-20" x="1257.617188"/>
      <use xlink:href="#DejaVuSans-74" x="1289.404297"/>
      <use xlink:href="#DejaVuSans-72" x="1328.613281"/>
      <use xlink:href="#DejaVuSans-61" x="1369.726562"/>
      <use xlink:href="#DejaVuSans-66" x="1431.005859"/>
      <use xlink:href="#DejaVuSans-66" x="1466.210938"/>
      <use xlink:href="#DejaVuSans-69" x="1501.416016"/>
      <use xlink:href="#DejaVuSans-63" x="1529.199219"/>
     </g>
    </g>
   </g>
   <g id="line2d_15">
    <path d="M 73.832727 294.56023 
L 75.506204 294.393281 
L 75.924574 294.552255 
L 77.598051 294.551558 
L 79.271528 294.406646 
L 79.689897 294.2785 
L 80.945005 294.299759 
L 82.200112 294.268876 
L 82.618482 294.341027 
L 84.291959 294.193595 
L 85.965436 294.251132 
L 87.638913 294.174802 
L 90.985867 294.240984 
L 91.404236 294.344995 
L 93.496082 294.319725 
L 94.75119 294.270082 
L 96.424667 294.17304 
L 97.261406 294.181901 
L 97.679775 293.918688 
L 100.189991 293.828399 
L 101.026729 293.793754 
L 103.118575 293.87755 
L 105.210422 293.928588 
L 107.302268 293.895467 
L 108.557376 294.087216 
L 109.812484 294.034221 
L 110.230853 294.020451 
L 111.067591 294.206869 
L 113.159438 294.223905 
L 114.414545 294.340989 
L 116.506392 294.253268 
L 117.34313 294.147023 
L 117.7615 294.059448 
L 118.598238 294.055134 
L 121.526823 293.991498 
L 122.363561 294.083199 
L 122.781931 293.954031 
L 125.292146 294.193617 
L 128.6391 294.021018 
L 129.05747 294.026792 
L 129.475839 293.903847 
L 130.312577 294.006685 
L 131.149316 293.815802 
L 131.567685 293.863255 
L 131.986054 293.746068 
L 132.404424 293.797376 
L 133.241162 293.688331 
L 134.49627 293.672809 
L 134.914639 293.807351 
L 136.588116 293.837741 
L 137.424855 293.852188 
L 137.843224 293.81398 
L 138.261593 293.636461 
L 139.93507 293.539246 
L 140.35344 293.636082 
L 144.118763 293.316198 
L 144.955501 293.11854 
L 145.79224 293.267853 
L 148.302455 292.878354 
L 150.394302 292.738638 
L 150.812671 292.531875 
L 151.23104 292.611551 
L 151.64941 292.428523 
L 154.159625 292.049659 
L 156.251471 291.563464 
L 157.506579 291.438475 
L 157.924948 291.540573 
L 160.016795 291.156556 
L 161.271903 290.777124 
L 161.690272 290.834531 
L 162.108641 290.493907 
L 162.52701 290.329597 
L 164.200487 290.131479 
L 164.618857 290.291248 
L 165.455595 290.098288 
L 165.873964 290.050424 
L 166.292334 289.801966 
L 167.129072 289.636179 
L 168.802549 289.618911 
L 169.639288 289.40712 
L 170.894396 289.251065 
L 171.312765 289.047027 
L 171.731134 289.027347 
L 172.149503 289.132851 
L 173.82298 288.370067 
L 174.24135 288.387541 
L 175.914827 287.907893 
L 176.333196 287.586452 
L 176.751565 287.512701 
L 177.169934 287.313778 
L 177.588304 287.346174 
L 178.843411 286.857697 
L 179.261781 286.944072 
L 179.68015 286.703637 
L 180.098519 286.66138 
L 182.190366 285.531816 
L 183.027104 285.187932 
L 183.863843 284.585663 
L 185.11895 283.097174 
L 185.53732 283.334257 
L 185.955689 283.375271 
L 187.210797 281.961144 
L 187.629166 281.791578 
L 188.047535 281.076794 
L 188.884274 280.853822 
L 189.721012 280.378051 
L 190.139381 280.427635 
L 191.394489 279.647085 
L 191.812858 279.481299 
L 192.231228 279.174704 
L 193.067966 279.102056 
L 193.486336 278.407508 
L 193.904705 278.398355 
L 194.323074 277.63475 
L 194.741443 277.239282 
L 195.578182 277.352787 
L 195.996551 277.070068 
L 196.41492 276.634564 
L 197.251659 276.127603 
L 197.670028 275.674393 
L 198.088397 275.952257 
L 199.761874 275.063047 
L 200.180244 274.734258 
L 200.598613 273.383144 
L 201.016982 273.639442 
L 201.853721 272.721971 
L 202.27209 272.682579 
L 202.690459 273.079209 
L 203.945567 272.176715 
L 204.363936 271.564455 
L 205.200675 271.61166 
L 205.619044 270.949179 
L 206.037413 270.90358 
L 206.455783 267.3939 
L 206.874152 269.703087 
L 207.292521 271.078709 
L 207.71089 270.410281 
L 208.12926 270.036747 
L 208.547629 269.976551 
L 208.965998 269.097429 
L 209.384367 268.821965 
L 210.639475 266.913857 
L 211.057844 265.667976 
L 211.476214 264.956863 
L 211.894583 263.99142 
L 212.312952 263.353999 
L 212.731321 264.371988 
L 213.149691 264.216198 
L 213.56806 264.244382 
L 213.986429 264.408833 
L 214.404799 264.715904 
L 214.823168 264.598749 
L 215.241537 262.353716 
L 215.659906 262.685786 
L 216.915014 261.5028 
L 217.333383 261.343577 
L 218.170122 261.413581 
L 218.588491 259.716529 
L 219.00686 259.654721 
L 219.843599 258.315448 
L 220.261968 258.772058 
L 220.680337 256.681717 
L 221.098707 257.1758 
L 221.517076 255.764695 
L 221.935445 255.088984 
L 222.353814 254.07438 
L 222.772184 254.778962 
L 223.190553 253.711659 
L 223.608922 251.936071 
L 224.027291 252.830802 
L 224.445661 253.085867 
L 224.86403 252.534712 
L 225.282399 250.911178 
L 225.700769 251.362166 
L 226.119138 249.928748 
L 226.537507 250.258948 
L 227.374246 248.325651 
L 227.792615 247.346291 
L 229.047723 247.03881 
L 229.466092 245.907954 
L 229.884461 246.045567 
L 230.30283 245.621347 
L 230.7212 244.500541 
L 231.139569 244.216075 
L 231.557938 242.962858 
L 231.976307 242.103735 
L 232.394677 241.952325 
L 232.813046 242.163791 
L 233.231415 241.61714 
L 233.649784 239.288429 
L 234.486523 240.654373 
L 234.904892 240.391982 
L 235.741631 240.313355 
L 236.16 240.359619 
L 236.996739 240.078651 
L 237.415108 238.768438 
L 237.833477 238.706414 
L 238.251846 237.544453 
L 238.670216 237.541188 
L 239.088585 237.364675 
L 240.343693 234.041369 
L 240.762062 232.08398 
L 241.180431 233.420681 
L 241.5988 232.860416 
L 242.01717 231.702359 
L 242.435539 231.960133 
L 242.853908 229.487705 
L 243.272277 229.850441 
L 243.690647 229.54728 
L 244.109016 227.822108 
L 244.527385 227.80578 
L 244.945754 226.519853 
L 245.364124 226.829481 
L 245.782493 225.812379 
L 246.200862 225.272064 
L 246.619231 225.559114 
L 247.037601 224.862669 
L 247.45597 223.776173 
L 247.874339 224.123496 
L 248.292709 223.608202 
L 248.711078 221.898396 
L 249.129447 221.183379 
L 249.547816 221.250264 
L 249.966186 219.250807 
L 250.384555 219.606374 
L 251.221293 217.224923 
L 251.639663 214.848526 
L 252.058032 215.083403 
L 252.89477 213.747141 
L 253.31314 212.249893 
L 253.731509 212.450055 
L 254.149878 211.822576 
L 254.568247 209.455197 
L 254.986617 208.624594 
L 255.404986 204.699588 
L 255.823355 207.251486 
L 256.241724 206.788815 
L 256.660094 207.397393 
L 257.078463 206.682749 
L 257.915201 207.84339 
L 258.333571 207.612011 
L 258.75194 206.594601 
L 259.170309 206.900579 
L 260.007048 205.604774 
L 260.425417 204.531054 
L 260.843786 204.360775 
L 261.262156 203.634956 
L 261.680525 201.024915 
L 262.098894 201.843938 
L 262.517263 198.343887 
L 262.935633 198.61482 
L 263.354002 196.712324 
L 263.772371 195.539691 
L 264.19074 194.833655 
L 264.60911 194.34666 
L 265.027479 193.38299 
L 265.445848 191.618004 
L 265.864217 188.708041 
L 266.282587 189.442872 
L 267.956064 186.128639 
L 268.374433 185.583577 
L 268.792802 185.604209 
L 269.211172 185.904505 
L 269.629541 184.87334 
L 270.04791 183.428157 
L 270.466279 184.722843 
L 270.884649 184.747832 
L 271.303018 185.90125 
L 271.721387 184.638971 
L 272.139756 182.676463 
L 272.558126 182.927932 
L 272.976495 182.080682 
L 274.231603 180.733299 
L 275.068341 179.743602 
L 275.48671 179.636395 
L 275.90508 193.986648 
L 276.323449 177.814625 
L 276.741818 177.038411 
L 277.160187 173.116757 
L 277.578557 176.755135 
L 278.415295 176.223498 
L 278.833664 176.220924 
L 279.252034 175.734026 
L 279.670403 175.494078 
L 280.088772 176.827026 
L 280.507142 177.672065 
L 280.925511 177.466637 
L 281.34388 176.321794 
L 281.762249 176.404001 
L 283.017357 175.441316 
L 283.435726 172.869364 
L 283.854096 173.88452 
L 284.272465 171.160612 
L 284.690834 172.30918 
L 285.109203 170.022824 
L 285.527573 168.59524 
L 285.945942 169.436981 
L 286.364311 167.68628 
L 286.78268 166.523838 
L 287.20105 166.276661 
L 287.619419 167.226998 
L 288.037788 167.728299 
L 289.292896 165.160841 
L 289.711265 165.751285 
L 290.129634 166.602185 
L 290.548004 166.767182 
L 290.966373 164.819866 
L 291.384742 164.094544 
L 291.803112 162.68292 
L 292.221481 162.335116 
L 292.63985 162.13742 
L 293.058219 162.285144 
L 293.476589 162.098942 
L 294.313327 160.159849 
L 294.731696 161.291149 
L 295.150066 157.707437 
L 295.568435 157.799613 
L 295.986804 157.362601 
L 296.405173 154.74883 
L 296.823543 153.964588 
L 297.241912 153.493212 
L 297.660281 153.496645 
L 298.07865 152.079604 
L 298.49702 151.983005 
L 299.333758 149.742507 
L 299.752127 151.221362 
L 300.170497 152.173899 
L 301.007235 149.905493 
L 301.425604 151.018065 
L 301.843974 150.814638 
L 302.262343 151.298924 
L 302.680712 149.586707 
L 303.099082 148.989294 
L 303.517451 150.28379 
L 303.93582 148.425579 
L 304.354189 148.574259 
L 304.772559 148.044206 
L 305.609297 147.838725 
L 306.027666 144.168173 
L 306.446036 144.061253 
L 306.864405 144.350941 
L 307.282774 145.238762 
L 308.119513 140.955317 
L 308.537882 139.065711 
L 308.956251 138.586095 
L 309.37462 138.750833 
L 309.79299 138.40596 
L 310.211359 136.528934 
L 310.629728 138.07683 
L 311.048097 136.428767 
L 311.466467 137.958124 
L 311.884836 136.861789 
L 312.303205 136.198156 
L 312.721575 136.142814 
L 313.139944 136.217582 
L 313.558313 134.788435 
L 313.976682 134.950815 
L 314.395052 136.497565 
L 314.813421 135.973465 
L 315.23179 136.607924 
L 315.650159 136.867239 
L 316.068529 134.884985 
L 316.486898 136.072167 
L 316.905267 136.391181 
L 317.323636 135.654467 
L 317.742006 135.204334 
L 318.160375 133.428698 
L 318.578744 133.803458 
L 318.997113 133.416998 
L 319.415483 133.54516 
L 319.833852 132.512595 
L 320.252221 132.06091 
L 320.67059 130.753946 
L 321.08896 130.182679 
L 321.507329 130.990299 
L 321.925698 131.230425 
L 322.344067 131.284448 
L 323.180806 129.425837 
L 323.599175 129.871402 
L 324.017545 128.516092 
L 324.435914 129.102676 
L 324.854283 128.849185 
L 325.272652 127.911748 
L 325.691022 128.14084 
L 326.109391 128.784814 
L 326.52776 128.491238 
L 326.946129 128.506582 
L 327.364499 126.071487 
L 328.201237 124.337784 
L 328.619606 124.624033 
L 329.037976 124.017937 
L 329.456345 122.000703 
L 329.874714 122.653247 
L 330.293083 119.75853 
L 330.711453 122.075152 
L 331.129822 120.157377 
L 331.548191 117.535804 
L 331.96656 118.302691 
L 332.38493 116.665782 
L 332.803299 115.561228 
L 333.221668 115.666894 
L 333.640037 114.83822 
L 334.058407 116.915635 
L 334.476776 115.184959 
L 334.895145 115.833897 
L 335.313515 116.214637 
L 336.568622 113.559306 
L 336.986992 115.770072 
L 337.405361 115.814368 
L 337.82373 114.837063 
L 338.242099 115.390851 
L 338.660469 116.73352 
L 339.078838 115.689282 
L 339.497207 113.259599 
L 339.915576 117.293158 
L 340.333946 116.206619 
L 340.752315 114.633928 
L 341.170684 115.953219 
L 341.589053 116.048542 
L 342.007423 113.894107 
L 342.425792 112.821181 
L 342.844161 110.854261 
L 343.26253 111.813443 
L 343.6809 111.086754 
L 344.099269 111.310888 
L 344.517638 111.926624 
L 344.936007 110.354317 
L 345.354377 109.709667 
L 345.772746 110.875287 
L 346.191115 110.584766 
L 346.609485 108.062468 
L 347.027854 107.507642 
L 347.446223 105.791029 
L 347.864592 108.609941 
L 348.282962 109.544837 
L 348.701331 108.625772 
L 349.1197 108.45001 
L 349.538069 108.594149 
L 349.956439 103.622304 
L 350.374808 106.94601 
L 350.793177 105.030765 
L 351.629916 105.999625 
L 352.048285 101.29076 
L 352.466654 100.688957 
L 352.885023 98.794765 
L 353.303393 98.719376 
L 353.721762 100.432724 
L 354.140131 98.069963 
L 354.5585 97.605518 
L 354.97687 96.385346 
L 355.395239 95.944079 
L 355.813608 94.557747 
L 356.231978 94.765018 
L 356.650347 98.126148 
L 357.068716 96.313633 
L 357.487085 95.165989 
L 357.905455 97.348653 
L 358.323824 96.14164 
L 358.742193 95.716755 
L 359.160562 93.974115 
L 359.997301 96.747633 
L 360.41567 96.443034 
L 360.834039 96.877877 
L 361.252409 96.740102 
L 361.670778 95.177554 
L 362.089147 96.984219 
L 362.507516 94.813628 
L 362.925886 94.046016 
L 363.344255 93.965594 
L 364.180993 91.263312 
L 364.599363 88.247975 
L 365.017732 90.304422 
L 365.436101 94.145373 
L 365.85447 89.818881 
L 366.27284 89.615638 
L 366.691209 92.518952 
L 367.527948 88.65471 
L 367.946317 88.603055 
L 368.364686 89.418823 
L 368.783055 89.385535 
L 369.201425 90.010235 
L 369.619794 82.666206 
L 370.038163 81.882201 
L 370.456532 82.101129 
L 370.874902 80.600199 
L 371.293271 80.107906 
L 371.71164 77.497454 
L 372.130009 80.814402 
L 372.548379 82.107725 
L 372.966748 79.270144 
L 373.385117 81.139952 
L 373.803486 77.960223 
L 374.221856 76.341225 
L 374.640225 72.413553 
L 375.058594 73.470421 
L 375.476963 67.650996 
L 376.313702 71.730251 
L 376.732071 73.593052 
L 377.15044 71.896421 
L 377.56881 72.227384 
L 377.987179 72.939167 
L 378.405548 72.79425 
L 378.823918 74.862754 
L 379.242287 73.898517 
L 379.660656 72.386888 
L 380.079025 72.735551 
L 380.497395 71.18639 
L 380.915764 71.579987 
L 381.334133 69.685357 
L 381.752502 71.02282 
L 382.170872 74.631581 
L 382.589241 72.203081 
L 383.00761 68.521364 
L 383.425979 71.572536 
L 383.844349 69.800084 
L 384.262718 71.641016 
L 384.681087 69.978663 
L 385.099456 69.955025 
L 386.354564 63.555142 
L 386.772933 66.422562 
L 387.191303 66.203305 
L 387.609672 64.768005 
L 388.028041 65.191036 
L 388.44641 67.637004 
L 389.283149 65.523809 
L 389.701518 67.072592 
L 390.119888 66.201245 
L 390.538257 64.512837 
L 390.956626 64.545671 
L 391.793365 61.744104 
L 392.211734 62.966396 
L 392.630103 62.94657 
L 393.048472 60.285886 
L 393.466842 61.656512 
L 394.30358 61.426631 
L 394.721949 59.948847 
L 395.140319 61.636389 
L 395.558688 61.686053 
L 395.977057 58.715947 
L 396.395426 58.679572 
L 396.813796 57.274149 
L 397.232165 53.568 
L 397.650534 55.160808 
L 398.068903 54.746283 
L 398.487273 73.213161 
L 398.487273 73.213161 
" clip-path="url(#pe855d80bed)" style="fill: none; stroke: #1f77b4; stroke-width: 1.5; stroke-linecap: square"/>
   </g>
   <g id="line2d_16">
    <path d="M 73.832727 294.818598 
L 75.506204 294.68124 
L 75.924574 294.796199 
L 85.128697 294.544173 
L 85.965436 294.535441 
L 88.057282 294.469887 
L 90.149128 294.537003 
L 91.822605 294.533976 
L 97.679775 294.452364 
L 98.098144 294.258815 
L 113.996176 294.421784 
L 116.088022 294.48303 
L 121.526823 294.199716 
L 126.547254 294.377997 
L 132.404424 293.931788 
L 133.241162 293.875333 
L 134.077901 293.812904 
L 134.914639 293.910033 
L 135.751378 293.922797 
L 136.588116 293.973851 
L 137.843224 294.008356 
L 138.679963 293.707433 
L 139.516701 293.745895 
L 139.93507 293.82535 
L 141.608547 293.72415 
L 142.026917 293.778496 
L 142.445286 293.646074 
L 144.537132 293.598885 
L 145.373871 293.430168 
L 148.302455 293.33544 
L 150.394302 293.064767 
L 150.812671 293.184597 
L 152.067779 292.862297 
L 153.741256 292.600187 
L 154.577994 292.607561 
L 155.833102 292.198247 
L 157.506579 291.911078 
L 157.924948 292.035224 
L 159.598425 291.907213 
L 165.455595 290.853497 
L 165.873964 290.899772 
L 166.710703 290.635364 
L 167.547441 290.530223 
L 167.965811 290.288528 
L 169.220918 290.563619 
L 170.057657 290.373784 
L 170.476026 290.317983 
L 170.894396 290.083128 
L 171.312765 290.100716 
L 171.731134 289.926743 
L 172.986242 289.837849 
L 173.404611 289.589775 
L 174.659719 289.338927 
L 175.078088 289.341635 
L 175.496457 289.182726 
L 175.914827 289.166577 
L 177.588304 288.673823 
L 178.425042 288.437006 
L 178.843411 288.186152 
L 179.261781 288.32848 
L 180.516888 287.827719 
L 181.353627 287.410328 
L 181.771996 287.09405 
L 182.608735 286.874339 
L 183.027104 286.97529 
L 183.863843 286.820933 
L 185.11895 285.639806 
L 185.53732 285.356081 
L 185.955689 285.434081 
L 186.374058 285.28186 
L 187.629166 284.394996 
L 188.047535 284.244932 
L 188.884274 283.528477 
L 189.302643 283.43031 
L 189.721012 282.078169 
L 190.139381 282.204412 
L 190.557751 283.105171 
L 190.97612 283.007355 
L 191.812858 282.316176 
L 192.231228 282.940763 
L 192.649597 282.13204 
L 193.067966 282.082299 
L 193.486336 281.830927 
L 193.904705 281.242986 
L 194.323074 281.272863 
L 195.159813 280.372358 
L 195.578182 280.399515 
L 195.996551 280.198316 
L 196.41492 279.467879 
L 196.83329 279.714521 
L 197.251659 279.161658 
L 197.670028 279.327498 
L 198.088397 279.127915 
L 198.506767 279.209365 
L 198.925136 278.586427 
L 199.343505 278.610438 
L 199.761874 277.974914 
L 200.180244 278.085326 
L 201.016982 276.743966 
L 201.435351 276.47852 
L 201.853721 276.394102 
L 202.27209 276.086237 
L 202.690459 276.055723 
L 203.108828 276.173569 
L 203.527198 276.151218 
L 204.782306 275.711103 
L 205.200675 275.854399 
L 206.037413 275.484098 
L 206.455783 274.845682 
L 206.874152 273.412702 
L 207.292521 274.482351 
L 207.71089 274.834485 
L 208.12926 274.464812 
L 208.547629 274.679246 
L 208.965998 274.144279 
L 209.802737 273.452559 
L 210.221106 272.766813 
L 210.639475 272.336749 
L 211.057844 271.435801 
L 211.476214 268.769354 
L 211.894583 267.061451 
L 212.312952 269.59155 
L 212.731321 270.258757 
L 213.149691 270.277106 
L 213.56806 270.543779 
L 213.986429 270.524575 
L 214.404799 270.881473 
L 214.823168 270.144954 
L 215.241537 270.274463 
L 215.659906 268.898879 
L 216.078276 268.478524 
L 216.496645 268.71751 
L 217.333383 267.345776 
L 217.751753 267.717055 
L 218.170122 267.681258 
L 218.588491 267.239196 
L 219.00686 266.597579 
L 219.42523 266.263746 
L 219.843599 266.311064 
L 220.680337 264.322215 
L 221.098707 263.737237 
L 221.517076 263.422873 
L 221.935445 262.277024 
L 222.353814 261.880156 
L 223.608922 259.569617 
L 224.027291 259.961889 
L 224.86403 259.576077 
L 225.700769 258.835326 
L 226.119138 259.157356 
L 226.955876 258.748994 
L 227.792615 257.727231 
L 229.047723 257.204952 
L 229.466092 257.208375 
L 229.884461 256.13712 
L 230.30283 256.029216 
L 230.7212 256.058574 
L 231.139569 255.509933 
L 232.394677 252.793497 
L 232.813046 252.281107 
L 233.231415 249.80849 
L 233.649784 246.319965 
L 234.068154 251.496021 
L 234.486523 252.623915 
L 234.904892 252.308994 
L 235.323261 251.75366 
L 235.741631 251.829233 
L 236.16 252.115239 
L 236.996739 250.946813 
L 237.833477 250.413672 
L 238.251846 249.982462 
L 238.670216 248.751152 
L 239.088585 248.465518 
L 239.506954 248.395714 
L 240.343693 247.306164 
L 240.762062 246.01104 
L 241.180431 245.203891 
L 241.5988 245.712577 
L 242.435539 244.121715 
L 242.853908 242.658226 
L 243.272277 242.232552 
L 243.690647 242.024367 
L 244.527385 239.677458 
L 244.945754 237.849713 
L 245.364124 238.650126 
L 245.782493 238.499251 
L 246.200862 237.579569 
L 246.619231 236.958848 
L 247.037601 236.799928 
L 247.45597 236.912303 
L 247.874339 238.180686 
L 248.292709 237.530337 
L 248.711078 237.821383 
L 249.129447 237.130933 
L 249.547816 237.205987 
L 249.966186 236.429411 
L 250.802924 234.257393 
L 251.221293 234.475559 
L 252.058032 231.403528 
L 252.476401 232.131461 
L 252.89477 231.56573 
L 253.31314 230.226883 
L 253.731509 230.127479 
L 254.149878 229.228909 
L 254.568247 228.717293 
L 254.986617 225.14867 
L 255.404986 216.914478 
L 255.823355 222.842142 
L 256.241724 226.002808 
L 256.660094 226.33669 
L 257.496832 225.988746 
L 257.915201 226.085328 
L 258.333571 226.041087 
L 258.75194 225.057294 
L 259.170309 224.811761 
L 259.588679 225.118215 
L 260.425417 223.967246 
L 261.262156 221.900694 
L 261.680525 219.637219 
L 262.098894 220.398667 
L 262.517263 220.285902 
L 262.935633 216.180836 
L 263.354002 217.081152 
L 264.19074 214.342203 
L 264.60911 211.706859 
L 265.027479 211.611882 
L 265.445848 211.250979 
L 266.282587 206.660496 
L 266.700956 206.355939 
L 267.119325 205.678141 
L 267.537694 205.34713 
L 268.374433 202.727336 
L 268.792802 202.502764 
L 269.211172 202.425186 
L 269.629541 203.573781 
L 270.04791 203.706068 
L 270.466279 204.680524 
L 270.884649 205.360241 
L 271.721387 205.901946 
L 272.139756 203.578512 
L 272.558126 202.992522 
L 272.976495 203.499268 
L 273.394864 202.464848 
L 273.813233 200.561536 
L 274.231603 202.218158 
L 274.649972 202.87486 
L 275.068341 200.914843 
L 275.48671 200.67376 
L 275.90508 199.569952 
L 276.323449 193.986648 
L 276.741818 196.222339 
L 277.160187 186.98873 
L 277.996926 197.952674 
L 278.415295 196.53002 
L 278.833664 198.024727 
L 279.252034 197.469879 
L 279.670403 197.377709 
L 280.088772 195.93012 
L 280.507142 198.373763 
L 280.925511 199.05048 
L 281.34388 198.416902 
L 281.762249 197.029089 
L 282.180619 196.555961 
L 282.598988 195.472655 
L 283.017357 195.397207 
L 283.435726 197.314749 
L 283.854096 196.218733 
L 284.272465 194.660159 
L 284.690834 192.46971 
L 285.109203 192.261444 
L 285.527573 191.355624 
L 285.945942 191.466275 
L 286.364311 189.134466 
L 286.78268 189.080676 
L 287.20105 187.475833 
L 287.619419 187.220352 
L 288.037788 186.730621 
L 288.456157 185.197263 
L 289.292896 185.209936 
L 290.129634 184.589501 
L 290.548004 185.51174 
L 290.966373 183.948289 
L 291.384742 183.115951 
L 291.803112 186.096281 
L 292.221481 186.244415 
L 292.63985 186.103401 
L 293.058219 186.193404 
L 293.476589 186.118275 
L 293.894958 184.626001 
L 294.313327 184.98186 
L 294.731696 185.584529 
L 295.150066 184.919371 
L 295.568435 181.866199 
L 295.986804 182.702971 
L 296.405173 182.285699 
L 296.823543 179.040036 
L 297.241912 180.628011 
L 298.49702 176.393426 
L 298.915389 163.154144 
L 299.333758 168.232374 
L 299.752127 175.870082 
L 300.170497 177.271861 
L 301.007235 175.917709 
L 301.425604 174.589681 
L 301.843974 175.582546 
L 302.262343 175.300815 
L 302.680712 176.345702 
L 303.099082 173.986828 
L 303.517451 176.070336 
L 304.354189 173.906844 
L 304.772559 173.876459 
L 305.190928 174.522829 
L 305.609297 171.818892 
L 306.027666 171.361687 
L 306.446036 169.097817 
L 306.864405 171.17688 
L 307.282774 172.499167 
L 307.701143 169.959795 
L 308.537882 162.878048 
L 308.956251 164.42576 
L 309.37462 163.150787 
L 309.79299 162.454477 
L 310.211359 160.800693 
L 310.629728 161.488337 
L 311.048097 161.680572 
L 311.466467 161.507779 
L 311.884836 160.957911 
L 312.303205 160.080941 
L 312.721575 157.63328 
L 313.139944 160.725867 
L 313.558313 161.601393 
L 313.976682 161.766104 
L 314.395052 163.157691 
L 314.813421 163.929963 
L 315.650159 163.643237 
L 316.068529 164.179784 
L 316.486898 163.870232 
L 316.905267 164.572083 
L 317.742006 161.740239 
L 318.160375 163.522617 
L 318.578744 162.917099 
L 318.997113 161.409996 
L 319.415483 161.576485 
L 319.833852 160.850644 
L 320.252221 158.590678 
L 320.67059 146.096523 
L 321.08896 145.763895 
L 321.507329 157.993389 
L 321.925698 159.708153 
L 322.344067 160.059222 
L 322.762437 158.878977 
L 323.180806 157.284936 
L 324.017545 155.498751 
L 324.435914 155.448168 
L 324.854283 156.04078 
L 325.272652 155.616252 
L 325.691022 146.08006 
L 326.109391 141.918035 
L 326.52776 140.297297 
L 326.946129 141.505694 
L 328.201237 137.271286 
L 328.619606 137.568501 
L 329.037976 139.811123 
L 329.456345 137.756054 
L 329.874714 136.971736 
L 330.293083 138.806661 
L 330.711453 139.815475 
L 331.548191 136.64325 
L 331.96656 133.623133 
L 332.38493 133.394685 
L 332.803299 131.755559 
L 333.221668 133.171356 
L 333.640037 132.976715 
L 334.058407 134.095531 
L 334.476776 133.023476 
L 334.895145 133.032413 
L 335.313515 133.97703 
L 335.731884 135.647439 
L 336.150253 134.849248 
L 336.568622 136.765882 
L 337.405361 136.901154 
L 337.82373 137.640895 
L 338.242099 136.292998 
L 338.660469 136.483249 
L 339.078838 135.417347 
L 339.497207 133.488121 
L 339.915576 135.688226 
L 340.333946 136.130985 
L 340.752315 135.915766 
L 341.170684 138.388259 
L 341.589053 136.31716 
L 342.425792 127.944068 
L 342.844161 121.28393 
L 343.6809 131.24817 
L 344.099269 130.510705 
L 344.517638 131.430614 
L 344.936007 130.290983 
L 345.772746 129.315181 
L 346.191115 129.459985 
L 346.609485 131.118861 
L 347.027854 130.708412 
L 347.446223 130.501087 
L 347.864592 128.55177 
L 348.282962 131.745675 
L 349.1197 128.738177 
L 349.538069 131.005718 
L 349.956439 129.688536 
L 350.374808 126.261019 
L 350.793177 126.597766 
L 351.211546 124.559312 
L 351.629916 123.364853 
L 352.048285 125.240213 
L 352.466654 125.619375 
L 353.303393 118.119912 
L 353.721762 117.992236 
L 354.140131 117.621228 
L 354.5585 116.861661 
L 354.97687 114.104092 
L 355.395239 115.558914 
L 355.813608 114.182568 
L 356.231978 114.287996 
L 356.650347 115.535066 
L 357.068716 118.585968 
L 357.487085 119.293393 
L 357.905455 119.344188 
L 358.323824 120.874659 
L 358.742193 118.651625 
L 359.578932 119.839796 
L 359.997301 120.116909 
L 360.41567 119.889785 
L 360.834039 119.441382 
L 361.252409 121.85225 
L 361.670778 120.742993 
L 362.089147 121.273436 
L 362.507516 119.697187 
L 362.925886 120.789554 
L 363.762624 118.101065 
L 364.180993 112.742359 
L 364.599363 100.194544 
L 365.017732 107.42962 
L 365.436101 112.73758 
L 365.85447 113.081999 
L 366.27284 114.840378 
L 366.691209 113.176262 
L 367.109578 115.980912 
L 367.527948 114.990042 
L 367.946317 111.505908 
L 368.364686 113.413837 
L 368.783055 113.4073 
L 369.201425 115.745835 
L 369.619794 111.778738 
L 370.038163 105.06461 
L 370.456532 105.223498 
L 370.874902 115.797365 
L 371.293271 103.927017 
L 372.130009 100.409157 
L 372.548379 104.157947 
L 372.966748 103.977033 
L 373.385117 102.612111 
L 373.803486 99.472807 
L 374.221856 100.124469 
L 375.058594 92.395206 
L 375.476963 93.175799 
L 375.895333 92.948686 
L 376.313702 90.461736 
L 376.732071 90.369155 
L 377.15044 91.293183 
L 377.56881 90.019459 
L 377.987179 90.87277 
L 378.405548 90.976267 
L 378.823918 94.365495 
L 379.242287 95.210615 
L 380.079025 98.261652 
L 380.497395 96.166013 
L 380.915764 97.320804 
L 381.334133 97.454524 
L 381.752502 94.558336 
L 382.170872 97.810908 
L 382.589241 98.714262 
L 383.00761 95.568691 
L 383.425979 94.717829 
L 383.844349 97.045005 
L 384.262718 93.466975 
L 384.681087 96.950806 
L 385.099456 97.258244 
L 385.517826 92.819886 
L 386.354564 78.38834 
L 386.772933 85.774119 
L 387.191303 90.806399 
L 387.609672 90.730567 
L 388.028041 91.324925 
L 388.44641 90.164549 
L 388.86478 90.300286 
L 389.283149 91.034761 
L 390.119888 88.678071 
L 390.538257 91.763813 
L 391.374995 84.370157 
L 391.793365 88.149786 
L 392.211734 83.787065 
L 392.630103 86.511979 
L 393.048472 87.181224 
L 393.466842 85.866528 
L 393.885211 82.63136 
L 394.30358 87.531493 
L 394.721949 87.369269 
L 395.140319 83.878366 
L 395.558688 84.470113 
L 395.977057 83.880323 
L 396.395426 79.150708 
L 397.232165 74.490415 
L 397.650534 74.855196 
L 398.068903 74.676963 
L 398.487273 73.270427 
L 398.487273 73.270427 
" clip-path="url(#pe855d80bed)" style="fill: none; stroke: #ff7f0e; stroke-width: 1.5; stroke-linecap: square"/>
   </g>
   <g id="line2d_17">
    <path d="M 73.832727 295.286898 
L 80.108266 295.256745 
L 80.526635 295.324798 
L 81.363374 295.212833 
L 81.781743 295.298625 
L 82.200112 295.198403 
L 82.618482 295.298041 
L 83.87359 295.196544 
L 95.587929 295.260763 
L 96.006298 295.218808 
L 96.424667 295.315358 
L 97.679775 295.011591 
L 98.098144 295.205724 
L 113.577807 295.4114 
L 114.832915 295.415595 
L 119.016607 295.30322 
L 120.271715 295.305075 
L 120.690084 295.371294 
L 121.526823 295.337049 
L 122.363561 295.337746 
L 123.2003 295.347705 
L 123.618669 295.443893 
L 126.965623 295.348662 
L 136.588116 295.409156 
L 137.006485 295.470115 
L 138.261593 295.328209 
L 138.679963 295.423381 
L 139.516701 295.282902 
L 139.93507 295.259162 
L 140.35344 295.391196 
L 140.771809 295.392531 
L 141.190178 295.271873 
L 142.445286 295.434048 
L 142.863655 295.288595 
L 144.118763 295.268061 
L 144.537132 295.123539 
L 145.79224 295.384946 
L 146.628978 295.122436 
L 147.047348 295.2096 
L 147.465717 295.091218 
L 149.557563 295.301544 
L 150.394302 295.219138 
L 150.812671 294.892544 
L 151.23104 295.104508 
L 151.64941 295.005552 
L 152.904517 295.195289 
L 153.322887 295.050226 
L 153.741256 295.098177 
L 154.577994 294.867533 
L 154.996364 294.921696 
L 155.833102 294.837786 
L 156.251471 294.982979 
L 157.08821 294.824259 
L 157.506579 295.072663 
L 161.690272 294.808769 
L 162.108641 294.590647 
L 162.52701 294.535268 
L 163.363749 294.718923 
L 164.200487 294.674243 
L 164.618857 294.940019 
L 166.292334 294.614263 
L 167.547441 294.650833 
L 167.965811 294.927389 
L 169.220918 294.463788 
L 170.057657 294.546806 
L 170.476026 294.486036 
L 170.894396 294.713203 
L 171.312765 294.491578 
L 172.149503 294.772497 
L 173.404611 294.384506 
L 174.659719 294.48523 
L 175.078088 294.269195 
L 175.496457 294.408576 
L 176.333196 294.101051 
L 176.751565 294.25416 
L 177.169934 294.145564 
L 177.588304 294.217617 
L 178.425042 294.168439 
L 179.261781 294.160859 
L 179.68015 294.050868 
L 180.098519 294.171548 
L 181.353627 293.997851 
L 181.771996 294.200105 
L 182.608735 294.044429 
L 183.027104 293.757908 
L 183.445473 293.627216 
L 183.863843 293.309997 
L 184.700581 293.265085 
L 185.11895 293.002634 
L 185.53732 293.523442 
L 185.955689 293.486456 
L 186.374058 293.187668 
L 186.792427 293.133381 
L 187.210797 292.727073 
L 187.629166 292.941849 
L 188.047535 292.377129 
L 188.884274 292.870612 
L 189.302643 292.766217 
L 189.721012 293.845148 
L 190.139381 293.768489 
L 190.557751 292.569251 
L 190.97612 292.437547 
L 191.394489 292.484427 
L 191.812858 292.710389 
L 192.231228 291.779207 
L 192.649597 292.56027 
L 193.067966 292.565023 
L 193.486336 292.121847 
L 193.904705 292.700635 
L 194.323074 291.907153 
L 194.741443 292.025941 
L 195.159813 292.468148 
L 195.578182 292.498538 
L 195.996551 292.417018 
L 196.41492 292.711951 
L 196.83329 292.219328 
L 197.251659 292.511211 
L 197.670028 291.892161 
L 198.088397 292.369608 
L 198.506767 292.088138 
L 198.925136 292.487568 
L 199.343505 292.28924 
L 199.761874 292.633399 
L 200.598613 291.621168 
L 201.016982 292.440742 
L 201.435351 292.307709 
L 201.853721 291.873135 
L 202.27209 292.141608 
L 202.690459 292.568753 
L 203.108828 292.1284 
L 203.945567 291.750201 
L 204.363936 291.20834 
L 204.782306 291.47045 
L 205.200675 291.302528 
L 205.619044 290.836861 
L 206.037413 290.964748 
L 206.455783 288.093484 
L 206.874152 291.835652 
L 207.292521 292.141625 
L 207.71089 291.121062 
L 208.12926 291.117202 
L 208.965998 290.498416 
L 209.384367 290.543123 
L 209.802737 290.254018 
L 210.221106 290.384576 
L 211.057844 289.777442 
L 211.476214 291.732776 
L 211.894583 292.475236 
L 212.312952 289.307715 
L 212.731321 289.658497 
L 213.56806 289.245869 
L 213.986429 289.429524 
L 214.404799 289.379698 
L 214.823168 289.999062 
L 215.241537 287.62452 
L 215.659906 289.332174 
L 216.078276 289.324199 
L 216.496645 288.630263 
L 216.915014 288.990642 
L 217.333383 289.543067 
L 217.751753 289.194858 
L 218.170122 289.277589 
L 218.588491 288.022599 
L 219.00686 288.602408 
L 219.42523 288.189623 
L 219.843599 287.54965 
L 220.261968 289.028515 
L 220.680337 287.904768 
L 221.098707 288.98383 
L 221.517076 287.887089 
L 221.935445 288.357226 
L 222.353814 287.73949 
L 222.772184 289.241566 
L 223.190553 288.916275 
L 223.608922 287.911721 
L 224.445661 288.820833 
L 224.86403 288.503901 
L 225.282399 287.310983 
L 225.700769 288.072106 
L 226.119138 286.316658 
L 226.537507 286.866818 
L 226.955876 285.97658 
L 227.792615 285.164327 
L 228.629353 285.31823 
L 229.047723 285.379124 
L 229.466092 284.244845 
L 229.884461 285.453713 
L 230.30283 285.137397 
L 230.7212 283.987234 
L 231.139569 284.251409 
L 231.557938 283.992532 
L 231.976307 284.106875 
L 232.813046 285.42795 
L 233.231415 287.353916 
L 233.649784 288.51373 
L 234.068154 284.003534 
L 234.486523 283.575725 
L 234.904892 283.628255 
L 235.323261 284.112622 
L 235.741631 284.029389 
L 236.16 283.789646 
L 236.996739 284.677104 
L 237.415108 283.573908 
L 237.833477 283.838007 
L 238.251846 283.107258 
L 238.670216 284.335302 
L 239.088585 284.444423 
L 239.506954 283.339766 
L 240.343693 282.280471 
L 240.762062 281.618206 
L 241.180431 283.762056 
L 241.5988 282.693105 
L 242.01717 282.356049 
L 242.435539 283.383684 
L 242.853908 282.374745 
L 243.272277 283.163156 
L 243.690647 283.068179 
L 244.109016 282.593959 
L 244.527385 283.673589 
L 244.945754 284.215406 
L 245.364124 283.724621 
L 245.782493 282.858394 
L 246.200862 283.237761 
L 246.619231 284.145532 
L 247.037601 283.608007 
L 247.874339 281.488076 
L 248.292709 281.623132 
L 248.711078 279.62228 
L 249.547816 279.589543 
L 249.966186 278.366662 
L 250.384555 279.75926 
L 250.802924 279.553698 
L 251.221293 278.29463 
L 251.639663 277.627791 
L 252.058032 279.225141 
L 252.476401 277.818383 
L 253.31314 277.568276 
L 254.149878 278.138932 
L 254.568247 276.283171 
L 254.986617 279.02119 
L 255.404986 283.330375 
L 256.241724 276.331273 
L 256.660094 276.605969 
L 257.078463 276.034253 
L 257.496832 276.811115 
L 257.915201 277.303328 
L 258.333571 277.116191 
L 258.75194 277.082573 
L 259.170309 277.634085 
L 259.588679 276.726703 
L 260.007048 276.62626 
L 260.425417 276.109074 
L 260.843786 277.125106 
L 261.262156 277.279528 
L 261.680525 276.932963 
L 262.098894 276.990537 
L 262.517263 273.60325 
L 262.935633 277.97925 
L 263.354002 275.176439 
L 263.772371 275.226682 
L 264.19074 276.036719 
L 264.60911 278.185067 
L 265.027479 277.316374 
L 265.445848 275.912292 
L 265.864217 275.388235 
L 266.282587 278.327643 
L 266.700956 277.781667 
L 267.119325 277.791005 
L 267.537694 276.874107 
L 267.956064 277.823055 
L 268.374433 278.401507 
L 268.792802 278.646711 
L 269.211172 279.024585 
L 269.629541 276.844825 
L 270.04791 275.267355 
L 270.466279 275.587585 
L 270.884649 274.932857 
L 271.303018 275.867407 
L 271.721387 274.282292 
L 272.139756 274.643217 
L 272.558126 275.480676 
L 272.976495 274.126681 
L 273.394864 274.666914 
L 273.813233 276.077424 
L 274.231603 274.060407 
L 274.649972 272.971511 
L 275.068341 274.374025 
L 275.48671 274.507902 
L 275.90508 289.961962 
L 276.323449 279.373243 
L 276.741818 276.361339 
L 277.160187 281.673294 
L 277.578557 280.306376 
L 277.996926 274.049048 
L 278.415295 275.238744 
L 278.833664 273.741464 
L 279.252034 273.809413 
L 279.670403 273.661636 
L 280.088772 276.442172 
L 280.507142 274.843568 
L 280.925511 273.961424 
L 281.34388 273.450158 
L 281.762249 274.920179 
L 282.180619 275.0853 
L 282.598988 275.826858 
L 283.017357 275.589375 
L 283.435726 271.099881 
L 283.854096 273.211054 
L 284.272465 272.04572 
L 284.690834 275.384737 
L 285.109203 273.306647 
L 285.527573 272.784882 
L 286.364311 274.09708 
L 286.78268 272.988428 
L 287.619419 275.551913 
L 288.037788 276.542945 
L 288.456157 277.220467 
L 289.292896 275.496171 
L 290.129634 277.55795 
L 290.548004 276.800708 
L 290.966373 276.416842 
L 291.384742 276.52386 
L 291.803112 272.131906 
L 292.221481 271.635968 
L 292.63985 271.579286 
L 293.058219 271.637006 
L 293.476589 271.525934 
L 293.894958 272.056857 
L 294.313327 270.723255 
L 294.731696 271.251886 
L 295.150066 268.333331 
L 295.568435 271.47868 
L 295.986804 270.204896 
L 296.405173 268.008398 
L 296.823543 270.469818 
L 297.241912 268.410467 
L 297.660281 269.767485 
L 298.07865 269.810802 
L 298.49702 271.134845 
L 298.915389 283.085777 
L 299.752127 270.896546 
L 300.170497 270.447305 
L 300.588866 270.178172 
L 301.007235 269.533051 
L 301.425604 271.97365 
L 301.843974 270.777359 
L 302.262343 271.543375 
L 302.680712 268.786271 
L 303.099082 270.547731 
L 303.93582 269.117449 
L 304.354189 270.212682 
L 304.772559 269.713014 
L 305.190928 269.017417 
L 305.609297 271.565099 
L 306.027666 268.351752 
L 306.446036 270.508701 
L 306.864405 268.719327 
L 307.282774 268.284862 
L 307.701143 268.385791 
L 308.537882 271.732929 
L 308.956251 269.705601 
L 309.37462 271.145312 
L 309.79299 271.496749 
L 310.211359 271.273507 
L 310.629728 272.13376 
L 311.048097 270.293461 
L 311.466467 271.995612 
L 311.884836 271.449144 
L 312.303205 271.662482 
L 312.721575 274.0548 
L 313.558313 268.732308 
L 313.976682 268.729978 
L 314.395052 268.885141 
L 314.813421 267.588768 
L 315.23179 268.352217 
L 315.650159 268.769267 
L 316.068529 266.250468 
L 316.486898 267.747202 
L 316.905267 267.364364 
L 317.742006 269.009361 
L 318.160375 265.451347 
L 318.997113 267.552268 
L 319.415483 267.513941 
L 319.833852 267.207217 
L 320.252221 269.015498 
L 320.67059 280.20269 
L 321.08896 279.96405 
L 321.507329 268.542176 
L 321.925698 267.067538 
L 322.344067 266.770492 
L 322.762437 267.10466 
L 323.180806 267.686167 
L 323.599175 269.146007 
L 324.017545 268.562607 
L 324.435914 269.199775 
L 324.854283 268.353671 
L 325.272652 267.840762 
L 325.691022 277.606046 
L 326.109391 282.412045 
L 326.52776 283.739208 
L 327.364499 281.422862 
L 328.201237 282.611763 
L 328.619606 282.600799 
L 329.037976 279.75208 
L 329.456345 279.789915 
L 329.874714 281.226777 
L 330.293083 276.497135 
L 330.711453 277.804943 
L 331.129822 277.380306 
L 331.548191 276.43782 
L 331.96656 280.224824 
L 332.38493 278.816363 
L 332.803299 279.350936 
L 333.221668 278.040803 
L 333.640037 277.406772 
L 334.058407 278.36537 
L 334.476776 277.706749 
L 334.895145 278.34675 
L 335.313515 277.782873 
L 335.731884 275.285181 
L 336.150253 275.376908 
L 336.568622 272.33869 
L 336.986992 274.442845 
L 337.405361 274.458481 
L 337.82373 272.741435 
L 338.242099 274.64312 
L 338.660469 275.795538 
L 339.078838 275.817202 
L 339.497207 275.316744 
L 339.915576 277.150198 
L 340.752315 274.263428 
L 341.170684 273.110227 
L 341.589053 275.276649 
L 342.007423 276.831833 
L 342.425792 280.422379 
L 342.844161 285.115598 
L 343.6809 275.38385 
L 344.099269 276.345449 
L 345.354377 275.52302 
L 345.772746 277.105372 
L 346.191115 276.670048 
L 346.609485 272.488873 
L 347.027854 272.344497 
L 347.446223 270.835209 
L 347.864592 275.603437 
L 348.282962 273.344428 
L 348.701331 274.119701 
L 349.1197 275.257099 
L 349.538069 273.133697 
L 349.956439 269.479034 
L 350.374808 276.230257 
L 350.793177 273.978265 
L 351.211546 276.479553 
L 351.629916 278.180038 
L 352.048285 271.595813 
L 352.466654 270.614848 
L 352.885023 272.414528 
L 353.303393 276.144731 
L 353.721762 277.985754 
L 354.140131 275.994001 
L 354.5585 276.289123 
L 354.97687 277.82652 
L 355.395239 275.930431 
L 355.813608 275.920445 
L 356.231978 276.022288 
L 356.650347 278.136348 
L 357.068716 273.272932 
L 357.487085 271.417862 
L 357.905455 273.549731 
L 358.323824 270.812247 
L 358.742193 272.610396 
L 359.160562 270.294699 
L 359.997301 272.175991 
L 360.41567 272.098515 
L 360.834039 272.981762 
L 361.252409 270.433118 
L 361.670778 269.979827 
L 362.089147 271.256049 
L 362.507516 270.661707 
L 362.925886 268.801728 
L 363.344255 270.158157 
L 363.762624 270.140364 
L 364.180993 274.066219 
L 364.599363 283.598697 
L 365.017732 278.420068 
L 365.436101 276.953059 
L 365.85447 272.282148 
L 366.27284 270.320526 
L 366.691209 274.887956 
L 367.109578 270.145062 
L 367.527948 269.209934 
L 367.946317 272.642414 
L 368.364686 271.550252 
L 368.783055 271.523501 
L 369.201425 269.809667 
L 369.619794 266.432733 
L 370.038163 272.362857 
L 370.456532 272.422897 
L 370.874902 260.348101 
L 371.293271 271.726155 
L 371.71164 270.679868 
L 372.130009 275.950511 
L 372.966748 270.838377 
L 373.385117 274.073107 
L 373.803486 274.032682 
L 374.221856 271.762022 
L 374.640225 271.88687 
L 375.058594 276.62048 
L 375.476963 270.020463 
L 375.895333 272.605001 
L 376.313702 276.813781 
L 376.732071 278.769164 
L 377.15044 276.148504 
L 377.56881 277.753191 
L 378.405548 277.363249 
L 378.823918 276.042525 
L 379.242287 274.233168 
L 379.660656 271.308558 
L 380.079025 270.019165 
L 380.497395 270.565643 
L 380.915764 269.804449 
L 381.334133 267.7761 
L 381.752502 272.00975 
L 382.170872 272.365939 
L 382.589241 269.034086 
L 383.00761 268.497939 
L 383.425979 272.399973 
L 383.844349 268.300346 
L 384.262718 273.719308 
L 384.681087 268.573123 
L 385.099456 268.242047 
L 385.517826 270.349543 
L 385.936195 274.720709 
L 386.354564 280.712068 
L 387.191303 270.942172 
L 387.609672 269.582705 
L 388.028041 269.411377 
L 388.44641 273.017721 
L 389.283149 270.034314 
L 389.701518 272.865207 
L 390.119888 273.06844 
L 390.538257 268.294291 
L 390.956626 272.426346 
L 391.374995 274.487552 
L 391.793365 269.139584 
L 392.211734 274.724597 
L 393.048472 268.649928 
L 393.885211 274.407897 
L 394.30358 269.440404 
L 394.721949 268.124844 
L 395.140319 273.303289 
L 395.558688 272.761207 
L 395.977057 270.380891 
L 396.395426 275.07413 
L 396.813796 276.066757 
L 397.232165 274.622851 
L 397.650534 275.850879 
L 398.068903 275.614586 
L 398.487273 295.488 
L 398.487273 295.488 
" clip-path="url(#pe855d80bed)" style="fill: none; stroke: #2ca02c; stroke-width: 1.5; stroke-linecap: square"/>
   </g>
   <g id="patch_3">
    <path d="M 57.6 307.584 
L 57.6 41.472 
" style="fill: none; stroke: #000000; stroke-width: 0.8; stroke-linejoin: miter; stroke-linecap: square"/>
   </g>
   <g id="patch_4">
    <path d="M 414.72 307.584 
L 414.72 41.472 
" style="fill: none; stroke: #000000; stroke-width: 0.8; stroke-linejoin: miter; stroke-linecap: square"/>
   </g>
   <g id="patch_5">
    <path d="M 57.6 307.584 
L 414.72 307.584 
" style="fill: none; stroke: #000000; stroke-width: 0.8; stroke-linejoin: miter; stroke-linecap: square"/>
   </g>
   <g id="patch_6">
    <path d="M 57.6 41.472 
L 414.72 41.472 
" style="fill: none; stroke: #000000; stroke-width: 0.8; stroke-linejoin: miter; stroke-linecap: square"/>
   </g>
   <g id="legend_1">
    <g id="patch_7">
     <path d="M 64.6 93.506375 
L 186.25625 93.506375 
Q 188.25625 93.506375 188.25625 91.506375 
L 188.25625 48.472 
Q 188.25625 46.472 186.25625 46.472 
L 64.6 46.472 
Q 62.6 46.472 62.6 48.472 
L 62.6 91.506375 
Q 62.6 93.506375 64.6 93.506375 
z
" style="fill: #ffffff; opacity: 0.8; stroke: #cccccc; stroke-linejoin: miter"/>
    </g>
    <g id="line2d_18">
     <path d="M 66.6 54.570438 
L 76.6 54.570438 
L 86.6 54.570438 
" style="fill: none; stroke: #1f77b4; stroke-width: 1.5; stroke-linecap: square"/>
    </g>
    <g id="text_17">
     <!-- Weekly maximum -->
     <g transform="translate(94.6 58.070438) scale(0.1 -0.1)">
      <defs>
       <path id="DejaVuSans-57" d="M 213 4666 
L 850 4666 
L 1831 722 
L 2809 4666 
L 3519 4666 
L 4500 722 
L 5478 4666 
L 6119 4666 
L 4947 0 
L 4153 0 
L 3169 4050 
L 2175 0 
L 1381 0 
L 213 4666 
z
" transform="scale(0.015625)"/>
       <path id="DejaVuSans-6b" d="M 581 4863 
L 1159 4863 
L 1159 1991 
L 2875 3500 
L 3609 3500 
L 1753 1863 
L 3688 0 
L 2938 0 
L 1159 1709 
L 1159 0 
L 581 0 
L 581 4863 
z
" transform="scale(0.015625)"/>
       <path id="DejaVuSans-79" d="M 2059 -325 
Q 1816 -950 1584 -1140 
Q 1353 -1331 966 -1331 
L 506 -1331 
L 506 -850 
L 844 -850 
Q 1081 -850 1212 -737 
Q 1344 -625 1503 -206 
L 1606 56 
L 191 3500 
L 800 3500 
L 1894 763 
L 2988 3500 
L 3597 3500 
L 2059 -325 
z
" transform="scale(0.015625)"/>
       <path id="DejaVuSans-6d" d="M 3328 2828 
Q 3544 3216 3844 3400 
Q 4144 3584 4550 3584 
Q 5097 3584 5394 3201 
Q 5691 2819 5691 2113 
L 5691 0 
L 5113 0 
L 5113 2094 
Q 5113 2597 4934 2840 
Q 4756 3084 4391 3084 
Q 3944 3084 3684 2787 
Q 3425 2491 3425 1978 
L 3425 0 
L 2847 0 
L 2847 2094 
Q 2847 2600 2669 2842 
Q 2491 3084 2119 3084 
Q 1678 3084 1418 2786 
Q 1159 2488 1159 1978 
L 1159 0 
L 581 0 
L 581 3500 
L 1159 3500 
L 1159 2956 
Q 1356 3278 1631 3431 
Q 1906 3584 2284 3584 
Q 2666 3584 2933 3390 
Q 3200 3197 3328 2828 
z
" transform="scale(0.015625)"/>
       <path id="DejaVuSans-78" d="M 3513 3500 
L 2247 1797 
L 3578 0 
L 2900 0 
L 1881 1375 
L 863 0 
L 184 0 
L 1544 1831 
L 300 3500 
L 978 3500 
L 1906 2253 
L 2834 3500 
L 3513 3500 
z
" transform="scale(0.015625)"/>
       <path id="DejaVuSans-75" d="M 544 1381 
L 544 3500 
L 1119 3500 
L 1119 1403 
Q 1119 906 1312 657 
Q 1506 409 1894 409 
Q 2359 409 2629 706 
Q 2900 1003 2900 1516 
L 2900 3500 
L 3475 3500 
L 3475 0 
L 2900 0 
L 2900 538 
Q 2691 219 2414 64 
Q 2138 -91 1772 -91 
Q 1169 -91 856 284 
Q 544 659 544 1381 
z
M 1991 3584 
L 1991 3584 
z
" transform="scale(0.015625)"/>
      </defs>
      <use xlink:href="#DejaVuSans-57"/>
      <use xlink:href="#DejaVuSans-65" x="93.001953"/>
      <use xlink:href="#DejaVuSans-65" x="154.525391"/>
      <use xlink:href="#DejaVuSans-6b" x="216.048828"/>
      <use xlink:href="#DejaVuSans-6c" x="273.958984"/>
      <use xlink:href="#DejaVuSans-79" x="301.742188"/>
      <use xlink:href="#DejaVuSans-20" x="360.921875"/>
      <use xlink:href="#DejaVuSans-6d" x="392.708984"/>
      <use xlink:href="#DejaVuSans-61" x="490.121094"/>
      <use xlink:href="#DejaVuSans-78" x="551.400391"/>
      <use xlink:href="#DejaVuSans-69" x="610.580078"/>
      <use xlink:href="#DejaVuSans-6d" x="638.363281"/>
      <use xlink:href="#DejaVuSans-75" x="735.775391"/>
      <use xlink:href="#DejaVuSans-6d" x="799.154297"/>
     </g>
    </g>
    <g id="line2d_19">
     <path d="M 66.6 69.248563 
L 76.6 69.248563 
L 86.6 69.248563 
" style="fill: none; stroke: #ff7f0e; stroke-width: 1.5; stroke-linecap: square"/>
    </g>
    <g id="text_18">
     <!-- Weekly minimum -->
     <g transform="translate(94.6 72.748563) scale(0.1 -0.1)">
      <defs>
       <path id="DejaVuSans-6e" d="M 3513 2113 
L 3513 0 
L 2938 0 
L 2938 2094 
Q 2938 2591 2744 2837 
Q 2550 3084 2163 3084 
Q 1697 3084 1428 2787 
Q 1159 2491 1159 1978 
L 1159 0 
L 581 0 
L 581 3500 
L 1159 3500 
L 1159 2956 
Q 1366 3272 1645 3428 
Q 1925 3584 2291 3584 
Q 2894 3584 3203 3211 
Q 3513 2838 3513 2113 
z
" transform="scale(0.015625)"/>
      </defs>
      <use xlink:href="#DejaVuSans-57"/>
      <use xlink:href="#DejaVuSans-65" x="93.001953"/>
      <use xlink:href="#DejaVuSans-65" x="154.525391"/>
      <use xlink:href="#DejaVuSans-6b" x="216.048828"/>
      <use xlink:href="#DejaVuSans-6c" x="273.958984"/>
      <use xlink:href="#DejaVuSans-79" x="301.742188"/>
      <use xlink:href="#DejaVuSans-20" x="360.921875"/>
      <use xlink:href="#DejaVuSans-6d" x="392.708984"/>
      <use xlink:href="#DejaVuSans-69" x="490.121094"/>
      <use xlink:href="#DejaVuSans-6e" x="517.904297"/>
      <use xlink:href="#DejaVuSans-69" x="581.283203"/>
      <use xlink:href="#DejaVuSans-6d" x="609.066406"/>
      <use xlink:href="#DejaVuSans-75" x="706.478516"/>
      <use xlink:href="#DejaVuSans-6d" x="769.857422"/>
     </g>
    </g>
    <g id="line2d_20">
     <path d="M 66.6 83.926688 
L 76.6 83.926688 
L 86.6 83.926688 
" style="fill: none; stroke: #2ca02c; stroke-width: 1.5; stroke-linecap: square"/>
    </g>
    <g id="text_19">
     <!-- Weekly range -->
     <g transform="translate(94.6 87.426688) scale(0.1 -0.1)">
      <use xlink:href="#DejaVuSans-57"/>
      <use xlink:href="#DejaVuSans-65" x="93.001953"/>
      <use xlink:href="#DejaVuSans-65" x="154.525391"/>
      <use xlink:href="#DejaVuSans-6b" x="216.048828"/>
      <use xlink:href="#DejaVuSans-6c" x="273.958984"/>
      <use xlink:href="#DejaVuSans-79" x="301.742188"/>
      <use xlink:href="#DejaVuSans-20" x="360.921875"/>
      <use xlink:href="#DejaVuSans-72" x="392.708984"/>
      <use xlink:href="#DejaVuSans-61" x="433.822266"/>
      <use xlink:href="#DejaVuSans-6e" x="495.101562"/>
      <use xlink:href="#DejaVuSans-67" x="558.480469"/>
      <use xlink:href="#DejaVuSans-65" x="621.957031"/>
     </g>
    </g>
   </g>
  </g>
 </g>
 <defs>
  <clipPath id="pe855d80bed">
   <rect x="57.6" y="41.472" width="357.12" height="266.112"/>
  </clipPath>
 </defs>
</svg>
