<?xml version="1.0" encoding="utf-8" standalone="no"?>
<!DOCTYPE svg PUBLIC "-//W3C//DTD SVG 1.1//EN"
  "http://www.w3.org/Graphics/SVG/1.1/DTD/svg11.dtd">
<svg xmlns:xlink="http://www.w3.org/1999/xlink" width="460.8pt" height="345.6pt" viewBox="0 0 460.8 345.6" xmlns="http://www.w3.org/2000/svg" version="1.1">
 <metadata>
  <rdf:RDF xmlns:dc="http://purl.org/dc/elements/1.1/" xmlns:cc="http://creativecommons.org/ns#" xmlns:rdf="http://www.w3.org/1999/02/22-rdf-syntax-ns#">
   <cc:Work>
    <dc:type rdf:resource="http://purl.org/dc/dcmitype/StillImage"/>
    <dc:date>2025-01-23T05:35:08.850574</dc:date>
    <dc:format>image/svg+xml</dc:format>
    <dc:creator>
     <cc:Agent>
      <dc:title>Matplotlib v3.10.0, https://matplotlib.org/</dc:title>
     </cc:Agent>
    </dc:creator>
   </cc:Work>
  </rdf:RDF>
 </metadata>
 <defs>
  <style type="text/css">*{stroke-linejoin: round; stroke-linecap: butt}</style>
 </defs>
 <g id="figure_1">
  <g id="patch_1">
   <path d="M 0 345.6 
L 460.8 345.6 
L 460.8 0 
L 0 0 
z
" style="fill: #ffffff"/>
  </g>
  <g id="axes_1">
   <g id="patch_2">
    <path d="M 57.6 307.584 
L 414.72 307.584 
L 414.72 41.472 
L 57.6 41.472 
z
" style="fill: #ffffff"/>
   </g>
   <g id="matplotlib.axis_1">
    <g id="xtick_1">
     <g id="line2d_1">
      <defs>
       <path id="m20ed0ec585" d="M 0 0 
L 0 3.5 
" style="stroke: #000000; stroke-width: 0.8"/>
      </defs>
      <g>
       <use xlink:href="#m20ed0ec585" x="60.59702" y="307.584" style="stroke: #000000; stroke-width: 0.8"/>
      </g>
     </g>
     <g id="text_1">
      <!-- 2008 -->
      <g transform="translate(47.87202 322.182437) scale(0.1 -0.1)">
       <defs>
        <path id="DejaVuSans-32" d="M 1228 531 
L 3431 531 
L 3431 0 
L 469 0 
L 469 531 
Q 828 903 1448 1529 
Q 2069 2156 2228 2338 
Q 2531 2678 2651 2914 
Q 2772 3150 2772 3378 
Q 2772 3750 2511 3984 
Q 2250 4219 1831 4219 
Q 1534 4219 1204 4116 
Q 875 4013 500 3803 
L 500 4441 
Q 881 4594 1212 4672 
Q 1544 4750 1819 4750 
Q 2544 4750 2975 4387 
Q 3406 4025 3406 3419 
Q 3406 3131 3298 2873 
Q 3191 2616 2906 2266 
Q 2828 2175 2409 1742 
Q 1991 1309 1228 531 
z
" transform="scale(0.015625)"/>
        <path id="DejaVuSans-30" d="M 2034 4250 
Q 1547 4250 1301 3770 
Q 1056 3291 1056 2328 
Q 1056 1369 1301 889 
Q 1547 409 2034 409 
Q 2525 409 2770 889 
Q 3016 1369 3016 2328 
Q 3016 3291 2770 3770 
Q 2525 4250 2034 4250 
z
M 2034 4750 
Q 2819 4750 3233 4129 
Q 3647 3509 3647 2328 
Q 3647 1150 3233 529 
Q 2819 -91 2034 -91 
Q 1250 -91 836 529 
Q 422 1150 422 2328 
Q 422 3509 836 4129 
Q 1250 4750 2034 4750 
z
" transform="scale(0.015625)"/>
        <path id="DejaVuSans-38" d="M 2034 2216 
Q 1584 2216 1326 1975 
Q 1069 1734 1069 1313 
Q 1069 891 1326 650 
Q 1584 409 2034 409 
Q 2484 409 2743 651 
Q 3003 894 3003 1313 
Q 3003 1734 2745 1975 
Q 2488 2216 2034 2216 
z
M 1403 2484 
Q 997 2584 770 2862 
Q 544 3141 544 3541 
Q 544 4100 942 4425 
Q 1341 4750 2034 4750 
Q 2731 4750 3128 4425 
Q 3525 4100 3525 3541 
Q 3525 3141 3298 2862 
Q 3072 2584 2669 2484 
Q 3125 2378 3379 2068 
Q 3634 1759 3634 1313 
Q 3634 634 3220 271 
Q 2806 -91 2034 -91 
Q 1263 -91 848 271 
Q 434 634 434 1313 
Q 434 1759 690 2068 
Q 947 2378 1403 2484 
z
M 1172 3481 
Q 1172 3119 1398 2916 
Q 1625 2713 2034 2713 
Q 2441 2713 2670 2916 
Q 2900 3119 2900 3481 
Q 2900 3844 2670 4047 
Q 2441 4250 2034 4250 
Q 1625 4250 1398 4047 
Q 1172 3844 1172 3481 
z
" transform="scale(0.015625)"/>
       </defs>
       <use xlink:href="#DejaVuSans-32"/>
       <use xlink:href="#DejaVuSans-30" transform="translate(63.623047 0)"/>
       <use xlink:href="#DejaVuSans-30" transform="translate(127.246094 0)"/>
       <use xlink:href="#DejaVuSans-38" transform="translate(190.869141 0)"/>
      </g>
     </g>
    </g>
    <g id="xtick_2">
     <g id="line2d_2">
      <g>
       <use xlink:href="#m20ed0ec585" x="100.249897" y="307.584" style="stroke: #000000; stroke-width: 0.8"/>
      </g>
     </g>
     <g id="text_2">
      <!-- 2010 -->
      <g transform="translate(87.524897 322.182437) scale(0.1 -0.1)">
       <defs>
        <path id="DejaVuSans-31" d="M 794 531 
L 1825 531 
L 1825 4091 
L 703 3866 
L 703 4441 
L 1819 4666 
L 2450 4666 
L 2450 531 
L 3481 531 
L 3481 0 
L 794 0 
L 794 531 
z
" transform="scale(0.015625)"/>
       </defs>
       <use xlink:href="#DejaVuSans-32"/>
       <use xlink:href="#DejaVuSans-30" transform="translate(63.623047 0)"/>
       <use xlink:href="#DejaVuSans-31" transform="translate(127.246094 0)"/>
       <use xlink:href="#DejaVuSans-30" transform="translate(190.869141 0)"/>
      </g>
     </g>
    </g>
    <g id="xtick_3">
     <g id="line2d_3">
      <g>
       <use xlink:href="#m20ed0ec585" x="139.84853" y="307.584" style="stroke: #000000; stroke-width: 0.8"/>
      </g>
     </g>
     <g id="text_3">
      <!-- 2012 -->
      <g transform="translate(127.12353 322.182437) scale(0.1 -0.1)">
       <use xlink:href="#DejaVuSans-32"/>
       <use xlink:href="#DejaVuSans-30" transform="translate(63.623047 0)"/>
       <use xlink:href="#DejaVuSans-31" transform="translate(127.246094 0)"/>
       <use xlink:href="#DejaVuSans-32" transform="translate(190.869141 0)"/>
      </g>
     </g>
    </g>
    <g id="xtick_4">
     <g id="line2d_4">
      <g>
       <use xlink:href="#m20ed0ec585" x="179.501408" y="307.584" style="stroke: #000000; stroke-width: 0.8"/>
      </g>
     </g>
     <g id="text_4">
      <!-- 2014 -->
      <g transform="translate(166.776408 322.182437) scale(0.1 -0.1)">
       <defs>
        <path id="DejaVuSans-34" d="M 2419 4116 
L 825 1625 
L 2419 1625 
L 2419 4116 
z
M 2253 4666 
L 3047 4666 
L 3047 1625 
L 3713 1625 
L 3713 1100 
L 3047 1100 
L 3047 0 
L 2419 0 
L 2419 1100 
L 313 1100 
L 313 1709 
L 2253 4666 
z
" transform="scale(0.015625)"/>
       </defs>
       <use xlink:href="#DejaVuSans-32"/>
       <use xlink:href="#DejaVuSans-30" transform="translate(63.623047 0)"/>
       <use xlink:href="#DejaVuSans-31" transform="translate(127.246094 0)"/>
       <use xlink:href="#DejaVuSans-34" transform="translate(190.869141 0)"/>
      </g>
     </g>
    </g>
    <g id="xtick_5">
     <g id="line2d_5">
      <g>
       <use xlink:href="#m20ed0ec585" x="219.100041" y="307.584" style="stroke: #000000; stroke-width: 0.8"/>
      </g>
     </g>
     <g id="text_5">
      <!-- 2016 -->
      <g transform="translate(206.375041 322.182437) scale(0.1 -0.1)">
       <defs>
        <path id="DejaVuSans-36" d="M 2113 2584 
Q 1688 2584 1439 2293 
Q 1191 2003 1191 1497 
Q 1191 994 1439 701 
Q 1688 409 2113 409 
Q 2538 409 2786 701 
Q 3034 994 3034 1497 
Q 3034 2003 2786 2293 
Q 2538 2584 2113 2584 
z
M 3366 4563 
L 3366 3988 
Q 3128 4100 2886 4159 
Q 2644 4219 2406 4219 
Q 1781 4219 1451 3797 
Q 1122 3375 1075 2522 
Q 1259 2794 1537 2939 
Q 1816 3084 2150 3084 
Q 2853 3084 3261 2657 
Q 3669 2231 3669 1497 
Q 3669 778 3244 343 
Q 2819 -91 2113 -91 
Q 1303 -91 875 529 
Q 447 1150 447 2328 
Q 447 3434 972 4092 
Q 1497 4750 2381 4750 
Q 2619 4750 2861 4703 
Q 3103 4656 3366 4563 
z
" transform="scale(0.015625)"/>
       </defs>
       <use xlink:href="#DejaVuSans-32"/>
       <use xlink:href="#DejaVuSans-30" transform="translate(63.623047 0)"/>
       <use xlink:href="#DejaVuSans-31" transform="translate(127.246094 0)"/>
       <use xlink:href="#DejaVuSans-36" transform="translate(190.869141 0)"/>
      </g>
     </g>
    </g>
    <g id="xtick_6">
     <g id="line2d_6">
      <g>
       <use xlink:href="#m20ed0ec585" x="258.752919" y="307.584" style="stroke: #000000; stroke-width: 0.8"/>
      </g>
     </g>
     <g id="text_6">
      <!-- 2018 -->
      <g transform="translate(246.027919 322.182437) scale(0.1 -0.1)">
       <use xlink:href="#DejaVuSans-32"/>
       <use xlink:href="#DejaVuSans-30" transform="translate(63.623047 0)"/>
       <use xlink:href="#DejaVuSans-31" transform="translate(127.246094 0)"/>
       <use xlink:href="#DejaVuSans-38" transform="translate(190.869141 0)"/>
      </g>
     </g>
    </g>
    <g id="xtick_7">
     <g id="line2d_7">
      <g>
       <use xlink:href="#m20ed0ec585" x="298.351552" y="307.584" style="stroke: #000000; stroke-width: 0.8"/>
      </g>
     </g>
     <g id="text_7">
      <!-- 2020 -->
      <g transform="translate(285.626552 322.182437) scale(0.1 -0.1)">
       <use xlink:href="#DejaVuSans-32"/>
       <use xlink:href="#DejaVuSans-30" transform="translate(63.623047 0)"/>
       <use xlink:href="#DejaVuSans-32" transform="translate(127.246094 0)"/>
       <use xlink:href="#DejaVuSans-30" transform="translate(190.869141 0)"/>
      </g>
     </g>
    </g>
    <g id="xtick_8">
     <g id="line2d_8">
      <g>
       <use xlink:href="#m20ed0ec585" x="338.004429" y="307.584" style="stroke: #000000; stroke-width: 0.8"/>
      </g>
     </g>
     <g id="text_8">
      <!-- 2022 -->
      <g transform="translate(325.279429 322.182437) scale(0.1 -0.1)">
       <use xlink:href="#DejaVuSans-32"/>
       <use xlink:href="#DejaVuSans-30" transform="translate(63.623047 0)"/>
       <use xlink:href="#DejaVuSans-32" transform="translate(127.246094 0)"/>
       <use xlink:href="#DejaVuSans-32" transform="translate(190.869141 0)"/>
      </g>
     </g>
    </g>
    <g id="xtick_9">
     <g id="line2d_9">
      <g>
       <use xlink:href="#m20ed0ec585" x="377.603062" y="307.584" style="stroke: #000000; stroke-width: 0.8"/>
      </g>
     </g>
     <g id="text_9">
      <!-- 2024 -->
      <g transform="translate(364.878062 322.182437) scale(0.1 -0.1)">
       <use xlink:href="#DejaVuSans-32"/>
       <use xlink:href="#DejaVuSans-30" transform="translate(63.623047 0)"/>
       <use xlink:href="#DejaVuSans-32" transform="translate(127.246094 0)"/>
       <use xlink:href="#DejaVuSans-34" transform="translate(190.869141 0)"/>
      </g>
     </g>
    </g>
    <g id="text_10">
     <!-- Updated 2025-01-23 05:35:08.849198 - Last record 2025-01-20 -->
     <g transform="translate(75.905312 335.860562) scale(0.1 -0.1)">
      <defs>
       <path id="DejaVuSans-55" d="M 556 4666 
L 1191 4666 
L 1191 1831 
Q 1191 1081 1462 751 
Q 1734 422 2344 422 
Q 2950 422 3222 751 
Q 3494 1081 3494 1831 
L 3494 4666 
L 4128 4666 
L 4128 1753 
Q 4128 841 3676 375 
Q 3225 -91 2344 -91 
Q 1459 -91 1007 375 
Q 556 841 556 1753 
L 556 4666 
z
" transform="scale(0.015625)"/>
       <path id="DejaVuSans-70" d="M 1159 525 
L 1159 -1331 
L 581 -1331 
L 581 3500 
L 1159 3500 
L 1159 2969 
Q 1341 3281 1617 3432 
Q 1894 3584 2278 3584 
Q 2916 3584 3314 3078 
Q 3713 2572 3713 1747 
Q 3713 922 3314 415 
Q 2916 -91 2278 -91 
Q 1894 -91 1617 61 
Q 1341 213 1159 525 
z
M 3116 1747 
Q 3116 2381 2855 2742 
Q 2594 3103 2138 3103 
Q 1681 3103 1420 2742 
Q 1159 2381 1159 1747 
Q 1159 1113 1420 752 
Q 1681 391 2138 391 
Q 2594 391 2855 752 
Q 3116 1113 3116 1747 
z
" transform="scale(0.015625)"/>
       <path id="DejaVuSans-64" d="M 2906 2969 
L 2906 4863 
L 3481 4863 
L 3481 0 
L 2906 0 
L 2906 525 
Q 2725 213 2448 61 
Q 2172 -91 1784 -91 
Q 1150 -91 751 415 
Q 353 922 353 1747 
Q 353 2572 751 3078 
Q 1150 3584 1784 3584 
Q 2172 3584 2448 3432 
Q 2725 3281 2906 2969 
z
M 947 1747 
Q 947 1113 1208 752 
Q 1469 391 1925 391 
Q 2381 391 2643 752 
Q 2906 1113 2906 1747 
Q 2906 2381 2643 2742 
Q 2381 3103 1925 3103 
Q 1469 3103 1208 2742 
Q 947 2381 947 1747 
z
" transform="scale(0.015625)"/>
       <path id="DejaVuSans-61" d="M 2194 1759 
Q 1497 1759 1228 1600 
Q 959 1441 959 1056 
Q 959 750 1161 570 
Q 1363 391 1709 391 
Q 2188 391 2477 730 
Q 2766 1069 2766 1631 
L 2766 1759 
L 2194 1759 
z
M 3341 1997 
L 3341 0 
L 2766 0 
L 2766 531 
Q 2569 213 2275 61 
Q 1981 -91 1556 -91 
Q 1019 -91 701 211 
Q 384 513 384 1019 
Q 384 1609 779 1909 
Q 1175 2209 1959 2209 
L 2766 2209 
L 2766 2266 
Q 2766 2663 2505 2880 
Q 2244 3097 1772 3097 
Q 1472 3097 1187 3025 
Q 903 2953 641 2809 
L 641 3341 
Q 956 3463 1253 3523 
Q 1550 3584 1831 3584 
Q 2591 3584 2966 3190 
Q 3341 2797 3341 1997 
z
" transform="scale(0.015625)"/>
       <path id="DejaVuSans-74" d="M 1172 4494 
L 1172 3500 
L 2356 3500 
L 2356 3053 
L 1172 3053 
L 1172 1153 
Q 1172 725 1289 603 
Q 1406 481 1766 481 
L 2356 481 
L 2356 0 
L 1766 0 
Q 1100 0 847 248 
Q 594 497 594 1153 
L 594 3053 
L 172 3053 
L 172 3500 
L 594 3500 
L 594 4494 
L 1172 4494 
z
" transform="scale(0.015625)"/>
       <path id="DejaVuSans-65" d="M 3597 1894 
L 3597 1613 
L 953 1613 
Q 991 1019 1311 708 
Q 1631 397 2203 397 
Q 2534 397 2845 478 
Q 3156 559 3463 722 
L 3463 178 
Q 3153 47 2828 -22 
Q 2503 -91 2169 -91 
Q 1331 -91 842 396 
Q 353 884 353 1716 
Q 353 2575 817 3079 
Q 1281 3584 2069 3584 
Q 2775 3584 3186 3129 
Q 3597 2675 3597 1894 
z
M 3022 2063 
Q 3016 2534 2758 2815 
Q 2500 3097 2075 3097 
Q 1594 3097 1305 2825 
Q 1016 2553 972 2059 
L 3022 2063 
z
" transform="scale(0.015625)"/>
       <path id="DejaVuSans-20" transform="scale(0.015625)"/>
       <path id="DejaVuSans-35" d="M 691 4666 
L 3169 4666 
L 3169 4134 
L 1269 4134 
L 1269 2991 
Q 1406 3038 1543 3061 
Q 1681 3084 1819 3084 
Q 2600 3084 3056 2656 
Q 3513 2228 3513 1497 
Q 3513 744 3044 326 
Q 2575 -91 1722 -91 
Q 1428 -91 1123 -41 
Q 819 9 494 109 
L 494 744 
Q 775 591 1075 516 
Q 1375 441 1709 441 
Q 2250 441 2565 725 
Q 2881 1009 2881 1497 
Q 2881 1984 2565 2268 
Q 2250 2553 1709 2553 
Q 1456 2553 1204 2497 
Q 953 2441 691 2322 
L 691 4666 
z
" transform="scale(0.015625)"/>
       <path id="DejaVuSans-2d" d="M 313 2009 
L 1997 2009 
L 1997 1497 
L 313 1497 
L 313 2009 
z
" transform="scale(0.015625)"/>
       <path id="DejaVuSans-33" d="M 2597 2516 
Q 3050 2419 3304 2112 
Q 3559 1806 3559 1356 
Q 3559 666 3084 287 
Q 2609 -91 1734 -91 
Q 1441 -91 1130 -33 
Q 819 25 488 141 
L 488 750 
Q 750 597 1062 519 
Q 1375 441 1716 441 
Q 2309 441 2620 675 
Q 2931 909 2931 1356 
Q 2931 1769 2642 2001 
Q 2353 2234 1838 2234 
L 1294 2234 
L 1294 2753 
L 1863 2753 
Q 2328 2753 2575 2939 
Q 2822 3125 2822 3475 
Q 2822 3834 2567 4026 
Q 2313 4219 1838 4219 
Q 1578 4219 1281 4162 
Q 984 4106 628 3988 
L 628 4550 
Q 988 4650 1302 4700 
Q 1616 4750 1894 4750 
Q 2613 4750 3031 4423 
Q 3450 4097 3450 3541 
Q 3450 3153 3228 2886 
Q 3006 2619 2597 2516 
z
" transform="scale(0.015625)"/>
       <path id="DejaVuSans-3a" d="M 750 794 
L 1409 794 
L 1409 0 
L 750 0 
L 750 794 
z
M 750 3309 
L 1409 3309 
L 1409 2516 
L 750 2516 
L 750 3309 
z
" transform="scale(0.015625)"/>
       <path id="DejaVuSans-2e" d="M 684 794 
L 1344 794 
L 1344 0 
L 684 0 
L 684 794 
z
" transform="scale(0.015625)"/>
       <path id="DejaVuSans-39" d="M 703 97 
L 703 672 
Q 941 559 1184 500 
Q 1428 441 1663 441 
Q 2288 441 2617 861 
Q 2947 1281 2994 2138 
Q 2813 1869 2534 1725 
Q 2256 1581 1919 1581 
Q 1219 1581 811 2004 
Q 403 2428 403 3163 
Q 403 3881 828 4315 
Q 1253 4750 1959 4750 
Q 2769 4750 3195 4129 
Q 3622 3509 3622 2328 
Q 3622 1225 3098 567 
Q 2575 -91 1691 -91 
Q 1453 -91 1209 -44 
Q 966 3 703 97 
z
M 1959 2075 
Q 2384 2075 2632 2365 
Q 2881 2656 2881 3163 
Q 2881 3666 2632 3958 
Q 2384 4250 1959 4250 
Q 1534 4250 1286 3958 
Q 1038 3666 1038 3163 
Q 1038 2656 1286 2365 
Q 1534 2075 1959 2075 
z
" transform="scale(0.015625)"/>
       <path id="DejaVuSans-4c" d="M 628 4666 
L 1259 4666 
L 1259 531 
L 3531 531 
L 3531 0 
L 628 0 
L 628 4666 
z
" transform="scale(0.015625)"/>
       <path id="DejaVuSans-73" d="M 2834 3397 
L 2834 2853 
Q 2591 2978 2328 3040 
Q 2066 3103 1784 3103 
Q 1356 3103 1142 2972 
Q 928 2841 928 2578 
Q 928 2378 1081 2264 
Q 1234 2150 1697 2047 
L 1894 2003 
Q 2506 1872 2764 1633 
Q 3022 1394 3022 966 
Q 3022 478 2636 193 
Q 2250 -91 1575 -91 
Q 1294 -91 989 -36 
Q 684 19 347 128 
L 347 722 
Q 666 556 975 473 
Q 1284 391 1588 391 
Q 1994 391 2212 530 
Q 2431 669 2431 922 
Q 2431 1156 2273 1281 
Q 2116 1406 1581 1522 
L 1381 1569 
Q 847 1681 609 1914 
Q 372 2147 372 2553 
Q 372 3047 722 3315 
Q 1072 3584 1716 3584 
Q 2034 3584 2315 3537 
Q 2597 3491 2834 3397 
z
" transform="scale(0.015625)"/>
       <path id="DejaVuSans-72" d="M 2631 2963 
Q 2534 3019 2420 3045 
Q 2306 3072 2169 3072 
Q 1681 3072 1420 2755 
Q 1159 2438 1159 1844 
L 1159 0 
L 581 0 
L 581 3500 
L 1159 3500 
L 1159 2956 
Q 1341 3275 1631 3429 
Q 1922 3584 2338 3584 
Q 2397 3584 2469 3576 
Q 2541 3569 2628 3553 
L 2631 2963 
z
" transform="scale(0.015625)"/>
       <path id="DejaVuSans-63" d="M 3122 3366 
L 3122 2828 
Q 2878 2963 2633 3030 
Q 2388 3097 2138 3097 
Q 1578 3097 1268 2742 
Q 959 2388 959 1747 
Q 959 1106 1268 751 
Q 1578 397 2138 397 
Q 2388 397 2633 464 
Q 2878 531 3122 666 
L 3122 134 
Q 2881 22 2623 -34 
Q 2366 -91 2075 -91 
Q 1284 -91 818 406 
Q 353 903 353 1747 
Q 353 2603 823 3093 
Q 1294 3584 2113 3584 
Q 2378 3584 2631 3529 
Q 2884 3475 3122 3366 
z
" transform="scale(0.015625)"/>
       <path id="DejaVuSans-6f" d="M 1959 3097 
Q 1497 3097 1228 2736 
Q 959 2375 959 1747 
Q 959 1119 1226 758 
Q 1494 397 1959 397 
Q 2419 397 2687 759 
Q 2956 1122 2956 1747 
Q 2956 2369 2687 2733 
Q 2419 3097 1959 3097 
z
M 1959 3584 
Q 2709 3584 3137 3096 
Q 3566 2609 3566 1747 
Q 3566 888 3137 398 
Q 2709 -91 1959 -91 
Q 1206 -91 779 398 
Q 353 888 353 1747 
Q 353 2609 779 3096 
Q 1206 3584 1959 3584 
z
" transform="scale(0.015625)"/>
      </defs>
      <use xlink:href="#DejaVuSans-55"/>
      <use xlink:href="#DejaVuSans-70" transform="translate(73.193359 0)"/>
      <use xlink:href="#DejaVuSans-64" transform="translate(136.669922 0)"/>
      <use xlink:href="#DejaVuSans-61" transform="translate(200.146484 0)"/>
      <use xlink:href="#DejaVuSans-74" transform="translate(261.425781 0)"/>
      <use xlink:href="#DejaVuSans-65" transform="translate(300.634766 0)"/>
      <use xlink:href="#DejaVuSans-64" transform="translate(362.158203 0)"/>
      <use xlink:href="#DejaVuSans-20" transform="translate(425.634766 0)"/>
      <use xlink:href="#DejaVuSans-32" transform="translate(457.421875 0)"/>
      <use xlink:href="#DejaVuSans-30" transform="translate(521.044922 0)"/>
      <use xlink:href="#DejaVuSans-32" transform="translate(584.667969 0)"/>
      <use xlink:href="#DejaVuSans-35" transform="translate(648.291016 0)"/>
      <use xlink:href="#DejaVuSans-2d" transform="translate(711.914062 0)"/>
      <use xlink:href="#DejaVuSans-30" transform="translate(747.998047 0)"/>
      <use xlink:href="#DejaVuSans-31" transform="translate(811.621094 0)"/>
      <use xlink:href="#DejaVuSans-2d" transform="translate(875.244141 0)"/>
      <use xlink:href="#DejaVuSans-32" transform="translate(911.328125 0)"/>
      <use xlink:href="#DejaVuSans-33" transform="translate(974.951172 0)"/>
      <use xlink:href="#DejaVuSans-20" transform="translate(1038.574219 0)"/>
      <use xlink:href="#DejaVuSans-30" transform="translate(1070.361328 0)"/>
      <use xlink:href="#DejaVuSans-35" transform="translate(1133.984375 0)"/>
      <use xlink:href="#DejaVuSans-3a" transform="translate(1197.607422 0)"/>
      <use xlink:href="#DejaVuSans-33" transform="translate(1231.298828 0)"/>
      <use xlink:href="#DejaVuSans-35" transform="translate(1294.921875 0)"/>
      <use xlink:href="#DejaVuSans-3a" transform="translate(1358.544922 0)"/>
      <use xlink:href="#DejaVuSans-30" transform="translate(1392.236328 0)"/>
      <use xlink:href="#DejaVuSans-38" transform="translate(1455.859375 0)"/>
      <use xlink:href="#DejaVuSans-2e" transform="translate(1519.482422 0)"/>
      <use xlink:href="#DejaVuSans-38" transform="translate(1551.269531 0)"/>
      <use xlink:href="#DejaVuSans-34" transform="translate(1614.892578 0)"/>
      <use xlink:href="#DejaVuSans-39" transform="translate(1678.515625 0)"/>
      <use xlink:href="#DejaVuSans-31" transform="translate(1742.138672 0)"/>
      <use xlink:href="#DejaVuSans-39" transform="translate(1805.761719 0)"/>
      <use xlink:href="#DejaVuSans-38" transform="translate(1869.384766 0)"/>
      <use xlink:href="#DejaVuSans-20" transform="translate(1933.007812 0)"/>
      <use xlink:href="#DejaVuSans-2d" transform="translate(1964.794922 0)"/>
      <use xlink:href="#DejaVuSans-20" transform="translate(2000.878906 0)"/>
      <use xlink:href="#DejaVuSans-4c" transform="translate(2032.666016 0)"/>
      <use xlink:href="#DejaVuSans-61" transform="translate(2088.378906 0)"/>
      <use xlink:href="#DejaVuSans-73" transform="translate(2149.658203 0)"/>
      <use xlink:href="#DejaVuSans-74" transform="translate(2201.757812 0)"/>
      <use xlink:href="#DejaVuSans-20" transform="translate(2240.966797 0)"/>
      <use xlink:href="#DejaVuSans-72" transform="translate(2272.753906 0)"/>
      <use xlink:href="#DejaVuSans-65" transform="translate(2311.617188 0)"/>
      <use xlink:href="#DejaVuSans-63" transform="translate(2373.140625 0)"/>
      <use xlink:href="#DejaVuSans-6f" transform="translate(2428.121094 0)"/>
      <use xlink:href="#DejaVuSans-72" transform="translate(2489.302734 0)"/>
      <use xlink:href="#DejaVuSans-64" transform="translate(2528.666016 0)"/>
      <use xlink:href="#DejaVuSans-20" transform="translate(2592.142578 0)"/>
      <use xlink:href="#DejaVuSans-32" transform="translate(2623.929688 0)"/>
      <use xlink:href="#DejaVuSans-30" transform="translate(2687.552734 0)"/>
      <use xlink:href="#DejaVuSans-32" transform="translate(2751.175781 0)"/>
      <use xlink:href="#DejaVuSans-35" transform="translate(2814.798828 0)"/>
      <use xlink:href="#DejaVuSans-2d" transform="translate(2878.421875 0)"/>
      <use xlink:href="#DejaVuSans-30" transform="translate(2914.505859 0)"/>
      <use xlink:href="#DejaVuSans-31" transform="translate(2978.128906 0)"/>
      <use xlink:href="#DejaVuSans-2d" transform="translate(3041.751953 0)"/>
      <use xlink:href="#DejaVuSans-32" transform="translate(3077.835938 0)"/>
      <use xlink:href="#DejaVuSans-30" transform="translate(3141.458984 0)"/>
     </g>
    </g>
   </g>
   <g id="matplotlib.axis_2">
    <g id="ytick_1">
     <g id="line2d_10">
      <defs>
       <path id="m947797ece1" d="M 0 0 
L -3.5 0 
" style="stroke: #000000; stroke-width: 0.8"/>
      </defs>
      <g>
       <use xlink:href="#m947797ece1" x="57.6" y="295.488" style="stroke: #000000; stroke-width: 0.8"/>
      </g>
     </g>
     <g id="text_11">
      <!-- 0 -->
      <g transform="translate(44.2375 299.287219) scale(0.1 -0.1)">
       <use xlink:href="#DejaVuSans-30"/>
      </g>
     </g>
    </g>
    <g id="ytick_2">
     <g id="line2d_11">
      <g>
       <use xlink:href="#m947797ece1" x="57.6" y="244.572272" style="stroke: #000000; stroke-width: 0.8"/>
      </g>
     </g>
     <g id="text_12">
      <!-- 10 -->
      <g transform="translate(37.875 248.371491) scale(0.1 -0.1)">
       <use xlink:href="#DejaVuSans-31"/>
       <use xlink:href="#DejaVuSans-30" transform="translate(63.623047 0)"/>
      </g>
     </g>
    </g>
    <g id="ytick_3">
     <g id="line2d_12">
      <g>
       <use xlink:href="#m947797ece1" x="57.6" y="193.656545" style="stroke: #000000; stroke-width: 0.8"/>
      </g>
     </g>
     <g id="text_13">
      <!-- 20 -->
      <g transform="translate(37.875 197.455764) scale(0.1 -0.1)">
       <use xlink:href="#DejaVuSans-32"/>
       <use xlink:href="#DejaVuSans-30" transform="translate(63.623047 0)"/>
      </g>
     </g>
    </g>
    <g id="ytick_4">
     <g id="line2d_13">
      <g>
       <use xlink:href="#m947797ece1" x="57.6" y="142.740817" style="stroke: #000000; stroke-width: 0.8"/>
      </g>
     </g>
     <g id="text_14">
      <!-- 30 -->
      <g transform="translate(37.875 146.540036) scale(0.1 -0.1)">
       <use xlink:href="#DejaVuSans-33"/>
       <use xlink:href="#DejaVuSans-30" transform="translate(63.623047 0)"/>
      </g>
     </g>
    </g>
    <g id="ytick_5">
     <g id="line2d_14">
      <g>
       <use xlink:href="#m947797ece1" x="57.6" y="91.82509" style="stroke: #000000; stroke-width: 0.8"/>
      </g>
     </g>
     <g id="text_15">
      <!-- 40 -->
      <g transform="translate(37.875 95.624309) scale(0.1 -0.1)">
       <use xlink:href="#DejaVuSans-34"/>
       <use xlink:href="#DejaVuSans-30" transform="translate(63.623047 0)"/>
      </g>
     </g>
    </g>
    <g id="text_16">
     <!-- IPv6 as % of total Google traffic -->
     <g transform="translate(31.795312 253.735813) rotate(-90) scale(0.1 -0.1)">
      <defs>
       <path id="DejaVuSans-49" d="M 628 4666 
L 1259 4666 
L 1259 0 
L 628 0 
L 628 4666 
z
" transform="scale(0.015625)"/>
       <path id="DejaVuSans-50" d="M 1259 4147 
L 1259 2394 
L 2053 2394 
Q 2494 2394 2734 2622 
Q 2975 2850 2975 3272 
Q 2975 3691 2734 3919 
Q 2494 4147 2053 4147 
L 1259 4147 
z
M 628 4666 
L 2053 4666 
Q 2838 4666 3239 4311 
Q 3641 3956 3641 3272 
Q 3641 2581 3239 2228 
Q 2838 1875 2053 1875 
L 1259 1875 
L 1259 0 
L 628 0 
L 628 4666 
z
" transform="scale(0.015625)"/>
       <path id="DejaVuSans-76" d="M 191 3500 
L 800 3500 
L 1894 563 
L 2988 3500 
L 3597 3500 
L 2284 0 
L 1503 0 
L 191 3500 
z
" transform="scale(0.015625)"/>
       <path id="DejaVuSans-25" d="M 4653 2053 
Q 4381 2053 4226 1822 
Q 4072 1591 4072 1178 
Q 4072 772 4226 539 
Q 4381 306 4653 306 
Q 4919 306 5073 539 
Q 5228 772 5228 1178 
Q 5228 1588 5073 1820 
Q 4919 2053 4653 2053 
z
M 4653 2450 
Q 5147 2450 5437 2106 
Q 5728 1763 5728 1178 
Q 5728 594 5436 251 
Q 5144 -91 4653 -91 
Q 4153 -91 3862 251 
Q 3572 594 3572 1178 
Q 3572 1766 3864 2108 
Q 4156 2450 4653 2450 
z
M 1428 4353 
Q 1159 4353 1004 4120 
Q 850 3888 850 3481 
Q 850 3069 1003 2837 
Q 1156 2606 1428 2606 
Q 1700 2606 1854 2837 
Q 2009 3069 2009 3481 
Q 2009 3884 1853 4118 
Q 1697 4353 1428 4353 
z
M 4250 4750 
L 4750 4750 
L 1831 -91 
L 1331 -91 
L 4250 4750 
z
M 1428 4750 
Q 1922 4750 2215 4408 
Q 2509 4066 2509 3481 
Q 2509 2891 2217 2550 
Q 1925 2209 1428 2209 
Q 931 2209 642 2551 
Q 353 2894 353 3481 
Q 353 4063 643 4406 
Q 934 4750 1428 4750 
z
" transform="scale(0.015625)"/>
       <path id="DejaVuSans-66" d="M 2375 4863 
L 2375 4384 
L 1825 4384 
Q 1516 4384 1395 4259 
Q 1275 4134 1275 3809 
L 1275 3500 
L 2222 3500 
L 2222 3053 
L 1275 3053 
L 1275 0 
L 697 0 
L 697 3053 
L 147 3053 
L 147 3500 
L 697 3500 
L 697 3744 
Q 697 4328 969 4595 
Q 1241 4863 1831 4863 
L 2375 4863 
z
" transform="scale(0.015625)"/>
       <path id="DejaVuSans-6c" d="M 603 4863 
L 1178 4863 
L 1178 0 
L 603 0 
L 603 4863 
z
" transform="scale(0.015625)"/>
       <path id="DejaVuSans-47" d="M 3809 666 
L 3809 1919 
L 2778 1919 
L 2778 2438 
L 4434 2438 
L 4434 434 
Q 4069 175 3628 42 
Q 3188 -91 2688 -91 
Q 1594 -91 976 548 
Q 359 1188 359 2328 
Q 359 3472 976 4111 
Q 1594 4750 2688 4750 
Q 3144 4750 3555 4637 
Q 3966 4525 4313 4306 
L 4313 3634 
Q 3963 3931 3569 4081 
Q 3175 4231 2741 4231 
Q 1884 4231 1454 3753 
Q 1025 3275 1025 2328 
Q 1025 1384 1454 906 
Q 1884 428 2741 428 
Q 3075 428 3337 486 
Q 3600 544 3809 666 
z
" transform="scale(0.015625)"/>
       <path id="DejaVuSans-67" d="M 2906 1791 
Q 2906 2416 2648 2759 
Q 2391 3103 1925 3103 
Q 1463 3103 1205 2759 
Q 947 2416 947 1791 
Q 947 1169 1205 825 
Q 1463 481 1925 481 
Q 2391 481 2648 825 
Q 2906 1169 2906 1791 
z
M 3481 434 
Q 3481 -459 3084 -895 
Q 2688 -1331 1869 -1331 
Q 1566 -1331 1297 -1286 
Q 1028 -1241 775 -1147 
L 775 -588 
Q 1028 -725 1275 -790 
Q 1522 -856 1778 -856 
Q 2344 -856 2625 -561 
Q 2906 -266 2906 331 
L 2906 616 
Q 2728 306 2450 153 
Q 2172 0 1784 0 
Q 1141 0 747 490 
Q 353 981 353 1791 
Q 353 2603 747 3093 
Q 1141 3584 1784 3584 
Q 2172 3584 2450 3431 
Q 2728 3278 2906 2969 
L 2906 3500 
L 3481 3500 
L 3481 434 
z
" transform="scale(0.015625)"/>
       <path id="DejaVuSans-69" d="M 603 3500 
L 1178 3500 
L 1178 0 
L 603 0 
L 603 3500 
z
M 603 4863 
L 1178 4863 
L 1178 4134 
L 603 4134 
L 603 4863 
z
" transform="scale(0.015625)"/>
      </defs>
      <use xlink:href="#DejaVuSans-49"/>
      <use xlink:href="#DejaVuSans-50" transform="translate(29.492188 0)"/>
      <use xlink:href="#DejaVuSans-76" transform="translate(89.794922 0)"/>
      <use xlink:href="#DejaVuSans-36" transform="translate(148.974609 0)"/>
      <use xlink:href="#DejaVuSans-20" transform="translate(212.597656 0)"/>
      <use xlink:href="#DejaVuSans-61" transform="translate(244.384766 0)"/>
      <use xlink:href="#DejaVuSans-73" transform="translate(305.664062 0)"/>
      <use xlink:href="#DejaVuSans-20" transform="translate(357.763672 0)"/>
      <use xlink:href="#DejaVuSans-25" transform="translate(389.550781 0)"/>
      <use xlink:href="#DejaVuSans-20" transform="translate(484.570312 0)"/>
      <use xlink:href="#DejaVuSans-6f" transform="translate(516.357422 0)"/>
      <use xlink:href="#DejaVuSans-66" transform="translate(577.539062 0)"/>
      <use xlink:href="#DejaVuSans-20" transform="translate(612.744141 0)"/>
      <use xlink:href="#DejaVuSans-74" transform="translate(644.53125 0)"/>
      <use xlink:href="#DejaVuSans-6f" transform="translate(683.740234 0)"/>
      <use xlink:href="#DejaVuSans-74" transform="translate(744.921875 0)"/>
      <use xlink:href="#DejaVuSans-61" transform="translate(784.130859 0)"/>
      <use xlink:href="#DejaVuSans-6c" transform="translate(845.410156 0)"/>
      <use xlink:href="#DejaVuSans-20" transform="translate(873.193359 0)"/>
      <use xlink:href="#DejaVuSans-47" transform="translate(904.980469 0)"/>
      <use xlink:href="#DejaVuSans-6f" transform="translate(982.470703 0)"/>
      <use xlink:href="#DejaVuSans-6f" transform="translate(1043.652344 0)"/>
      <use xlink:href="#DejaVuSans-67" transform="translate(1104.833984 0)"/>
      <use xlink:href="#DejaVuSans-6c" transform="translate(1168.310547 0)"/>
      <use xlink:href="#DejaVuSans-65" transform="translate(1196.09375 0)"/>
      <use xlink:href="#DejaVuSans-20" transform="translate(1257.617188 0)"/>
      <use xlink:href="#DejaVuSans-74" transform="translate(1289.404297 0)"/>
      <use xlink:href="#DejaVuSans-72" transform="translate(1328.613281 0)"/>
      <use xlink:href="#DejaVuSans-61" transform="translate(1369.726562 0)"/>
      <use xlink:href="#DejaVuSans-66" transform="translate(1431.005859 0)"/>
      <use xlink:href="#DejaVuSans-66" transform="translate(1466.210938 0)"/>
      <use xlink:href="#DejaVuSans-69" transform="translate(1501.416016 0)"/>
      <use xlink:href="#DejaVuSans-63" transform="translate(1529.199219 0)"/>
     </g>
    </g>
   </g>
   <g id="line2d_15">
    <path d="M 73.832727 294.560351 
L 75.351579 294.403128 
L 75.731292 294.552841 
L 77.250144 294.552184 
L 78.768995 294.415715 
L 79.148708 294.295034 
L 80.287847 294.315054 
L 83.705263 294.2428 
L 84.844402 294.269261 
L 86.363254 294.197378 
L 89.400957 294.259704 
L 89.78067 294.357656 
L 92.058947 294.349799 
L 92.818373 294.287107 
L 94.337225 294.195718 
L 95.096651 294.204063 
L 95.476364 293.956185 
L 97.754641 293.871156 
L 98.89378 293.874715 
L 100.032919 293.965243 
L 101.172057 293.920157 
L 102.311196 293.965508 
L 104.209761 293.934317 
L 105.3489 294.114894 
L 106.488038 294.064987 
L 107.247464 294.145052 
L 108.00689 294.221604 
L 108.386603 294.145235 
L 110.66488 294.353883 
L 112.563445 294.271272 
L 113.322871 294.171217 
L 113.702584 294.088744 
L 114.46201 294.084681 
L 117.499713 294.087415 
L 117.879426 294.111111 
L 118.259139 293.989469 
L 120.537416 294.215097 
L 123.57512 294.052553 
L 123.954833 294.057991 
L 124.334545 293.942209 
L 125.093971 294.039056 
L 125.853397 293.859292 
L 126.23311 293.903981 
L 126.612823 293.793621 
L 126.992536 293.84194 
L 127.751962 293.739248 
L 128.8911 293.724631 
L 129.270813 293.851334 
L 130.789665 293.879954 
L 131.549091 293.893559 
L 131.928804 293.857577 
L 132.68823 293.642453 
L 133.067943 293.522633 
L 135.725933 293.66594 
L 138.383923 293.202653 
L 139.143349 293.343267 
L 142.181053 292.895677 
L 142.560766 292.997625 
L 144.839043 292.510021 
L 145.598469 292.525972 
L 146.737608 292.196044 
L 148.636172 291.738174 
L 149.775311 291.620467 
L 150.155024 291.716616 
L 152.053589 291.354972 
L 153.192727 290.997645 
L 153.57244 291.051708 
L 153.952153 290.730928 
L 154.711579 290.538945 
L 155.091292 290.588828 
L 155.850718 290.389615 
L 156.230431 290.540076 
L 156.989856 290.358358 
L 157.369569 290.313282 
L 157.749282 290.079299 
L 158.508708 289.923171 
L 160.02756 289.906908 
L 160.786986 289.707456 
L 161.926124 289.560493 
L 162.305837 289.368342 
L 162.68555 289.349809 
L 163.065263 289.449166 
L 164.584115 288.730821 
L 164.963828 288.747277 
L 166.482679 288.295573 
L 166.862392 287.992859 
L 167.242105 287.923405 
L 167.621818 287.73607 
L 168.001531 287.766579 
L 169.14067 287.30656 
L 169.520383 287.387903 
L 169.900096 287.161476 
L 170.279809 287.12168 
L 172.178373 286.057924 
L 173.317512 285.493039 
L 174.076938 284.710225 
L 174.836364 283.765122 
L 175.216077 283.988393 
L 175.595789 284.027017 
L 176.734928 282.695276 
L 177.114641 282.535589 
L 177.494354 281.862447 
L 178.633493 281.461705 
L 179.013206 281.204412 
L 179.392919 281.251107 
L 180.532057 280.516032 
L 180.91177 280.359904 
L 181.291483 280.071171 
L 182.050909 280.002755 
L 182.430622 279.348672 
L 182.810335 279.340052 
L 183.190048 278.620933 
L 183.569761 278.248505 
L 184.329187 278.355397 
L 184.7089 278.089149 
L 185.088612 277.679018 
L 185.848038 277.201591 
L 186.227751 276.774785 
L 186.607464 277.036461 
L 188.126316 276.199055 
L 188.506029 275.889421 
L 188.885742 274.617022 
L 189.265455 274.858388 
L 190.02488 273.994369 
L 190.404593 273.957271 
L 190.784306 274.330794 
L 191.923445 273.480878 
L 192.303158 272.904288 
L 193.062584 272.948743 
L 193.442297 272.324857 
L 193.82201 272.281915 
L 194.201722 268.976705 
L 194.581435 271.151362 
L 194.961148 272.446841 
L 195.340861 271.817355 
L 195.720574 271.465583 
L 196.100287 271.408893 
L 196.48 270.580988 
L 196.859713 270.321573 
L 197.998852 268.524629 
L 198.378565 267.351333 
L 198.758278 266.681648 
L 199.13799 265.772451 
L 199.517703 265.172165 
L 199.897416 266.130847 
L 200.277129 265.984133 
L 200.656842 266.010676 
L 201.036555 266.165546 
L 201.416268 266.454727 
L 201.795981 266.344398 
L 202.175694 264.230158 
L 202.555407 264.542882 
L 203.694545 263.428815 
L 204.074258 263.278869 
L 204.833684 263.344794 
L 205.213397 261.746611 
L 205.59311 261.688404 
L 206.352536 260.427155 
L 206.732249 260.857164 
L 207.111962 258.888604 
L 207.491675 259.353902 
L 207.871388 258.025007 
L 208.2511 257.388662 
L 208.630813 256.433168 
L 209.010526 257.096701 
L 209.390239 256.091579 
L 209.769952 254.419435 
L 210.149665 255.26204 
L 210.529378 255.502245 
L 210.909091 254.9832 
L 211.288804 253.454251 
L 211.668517 253.878965 
L 212.04823 252.529057 
L 212.427943 252.840019 
L 213.567081 250.097052 
L 214.70622 249.807484 
L 215.085933 248.74251 
L 215.465646 248.872106 
L 215.845359 248.4726 
L 216.225072 247.417092 
L 216.604785 247.149199 
L 216.984498 245.968993 
L 217.364211 245.159921 
L 217.743923 245.017332 
L 218.123636 245.216479 
L 218.503349 244.701675 
L 218.883062 242.508633 
L 219.642488 243.794998 
L 220.022201 243.547894 
L 220.781627 243.473847 
L 221.16134 243.517416 
L 221.920766 243.252817 
L 222.300478 242.018935 
L 222.680191 241.960525 
L 223.059904 240.866259 
L 223.439617 240.863184 
L 223.81933 240.696954 
L 224.958469 237.567261 
L 225.338182 235.723908 
L 225.717895 236.982733 
L 226.097608 236.455109 
L 226.477321 235.36452 
L 226.857033 235.607276 
L 227.236746 233.278889 
L 227.616459 233.620493 
L 227.996172 233.334993 
L 228.375885 231.710328 
L 228.755598 231.694952 
L 229.135311 230.483942 
L 229.515024 230.775531 
L 229.894737 229.817684 
L 230.27445 229.308847 
L 230.654163 229.579174 
L 231.033876 228.923303 
L 231.413589 227.900106 
L 231.793301 228.227194 
L 232.173014 227.741921 
L 232.552727 226.131726 
L 232.93244 225.458366 
L 233.312153 225.521354 
L 233.691866 223.638383 
L 234.071579 223.973235 
L 234.831005 221.730525 
L 235.210718 219.492575 
L 235.590431 219.713768 
L 236.349856 218.455356 
L 236.729569 217.045336 
L 237.109282 217.233836 
L 237.488995 216.642913 
L 237.868708 214.413456 
L 238.248421 213.631243 
L 238.628134 209.934904 
L 239.007847 212.338131 
L 239.38756 211.902415 
L 239.767273 212.475538 
L 240.146986 211.802528 
L 240.906411 212.895552 
L 241.286124 212.677653 
L 241.665837 211.719515 
L 242.04555 212.007668 
L 242.804976 210.787355 
L 243.184689 209.776189 
L 243.564402 209.61583 
L 243.944115 208.932297 
L 244.323828 206.474315 
L 244.703541 207.245622 
L 245.083254 203.94948 
L 245.462967 204.204629 
L 245.842679 202.412971 
L 246.222392 201.308654 
L 247.361531 199.277601 
L 247.741244 197.615441 
L 248.120957 194.875009 
L 248.50067 195.56703 
L 250.019522 192.445881 
L 250.399234 191.932574 
L 250.778947 191.952003 
L 251.15866 192.234805 
L 251.538373 191.263715 
L 251.918086 189.902727 
L 252.297799 191.121985 
L 252.677512 191.145519 
L 253.057225 192.23174 
L 253.436938 191.043 
L 253.816651 189.194825 
L 254.196364 189.431644 
L 254.576077 188.633754 
L 255.715215 187.364868 
L 256.474641 186.43283 
L 256.854354 186.331869 
L 257.234067 199.84609 
L 257.61378 184.616233 
L 257.993493 183.885241 
L 258.373206 180.192059 
L 258.752919 183.618469 
L 259.512344 183.117804 
L 259.892057 183.11538 
L 260.27177 182.656849 
L 260.651483 182.43088 
L 261.031196 183.686171 
L 261.410909 184.481979 
L 261.790622 184.28852 
L 262.170335 183.210374 
L 262.550048 183.287791 
L 263.689187 182.381191 
L 264.0689 179.959079 
L 264.448612 180.915093 
L 264.828325 178.349877 
L 265.208038 179.431531 
L 265.587751 177.278376 
L 265.967464 175.933961 
L 266.347177 176.726663 
L 266.72689 175.077956 
L 267.106603 173.983237 
L 267.486316 173.750461 
L 267.866029 174.645432 
L 268.245742 175.117528 
L 269.38488 172.699647 
L 269.764593 173.255692 
L 270.144306 174.057019 
L 270.524019 174.212404 
L 270.903732 172.378537 
L 271.283445 171.695472 
L 271.663158 170.366087 
L 272.422584 169.852368 
L 272.802297 169.991485 
L 273.18201 169.816131 
L 273.941435 167.990008 
L 274.321148 169.055399 
L 274.700861 165.680471 
L 275.080574 165.767277 
L 275.460287 165.355725 
L 275.84 162.89423 
L 276.219713 162.155677 
L 276.599426 161.711763 
L 276.979139 161.714996 
L 277.358852 160.38051 
L 277.738565 160.289539 
L 278.49799 158.179571 
L 278.877703 159.572269 
L 279.257416 160.469312 
L 280.016842 158.333061 
L 280.396555 159.380815 
L 280.776268 159.18924 
L 281.155981 159.645312 
L 281.535694 158.032847 
L 281.915407 157.470238 
L 282.29512 158.689319 
L 282.674833 156.939366 
L 283.054545 157.079384 
L 283.434258 156.580211 
L 284.193684 156.386701 
L 284.573397 152.929991 
L 284.95311 152.8293 
L 285.332823 153.102112 
L 285.712536 153.938209 
L 286.471962 149.904314 
L 286.851675 148.124794 
L 287.231388 147.673121 
L 287.6111 147.828261 
L 287.990813 147.50348 
L 288.370526 145.735808 
L 288.750239 147.193525 
L 289.129952 145.641476 
L 289.509665 147.081735 
L 289.889378 146.04927 
L 290.269091 145.4243 
L 290.648804 145.372183 
L 291.028517 145.442594 
L 291.40823 144.096708 
L 291.787943 144.249629 
L 292.167656 145.706267 
L 292.547368 145.2127 
L 292.927081 145.810196 
L 293.306794 146.054403 
L 293.686507 144.187634 
L 294.06622 145.305651 
L 294.445933 145.60608 
L 294.825646 144.912287 
L 295.205359 144.488378 
L 295.585072 142.816188 
L 295.964785 143.169115 
L 296.344498 142.80517 
L 296.724211 142.925866 
L 297.103923 141.953457 
L 297.483636 141.528086 
L 297.863349 140.297265 
L 298.243062 139.759279 
L 298.622775 140.519848 
L 299.002488 140.745985 
L 299.382201 140.79686 
L 300.141627 139.04653 
L 300.52134 139.466137 
L 300.901053 138.189786 
L 301.280766 138.742197 
L 301.660478 138.503473 
L 302.040191 137.62065 
L 302.419904 137.836396 
L 302.799617 138.442853 
L 303.17933 138.16638 
L 303.559043 138.18083 
L 303.938756 135.887601 
L 304.698182 134.254902 
L 305.077895 134.524475 
L 305.457608 133.95369 
L 305.837321 132.053978 
L 306.217033 132.668505 
L 306.596746 129.942431 
L 306.976459 132.124089 
L 307.356172 130.318042 
L 307.735885 127.849199 
L 308.115598 128.571408 
L 308.495311 127.029863 
L 308.875024 125.98966 
L 309.254737 126.08917 
L 309.63445 125.308774 
L 310.014163 127.26516 
L 310.393876 125.635312 
L 310.773589 126.246443 
L 311.153301 126.605002 
L 312.29244 124.104368 
L 312.672153 126.186337 
L 313.051866 126.228053 
L 313.431579 125.307685 
L 313.811292 125.829209 
L 314.191005 127.093656 
L 314.570718 126.110254 
L 314.950431 123.822122 
L 315.330144 127.620689 
L 315.709856 126.597451 
L 316.089569 125.116384 
L 316.469282 126.358814 
L 316.848995 126.448584 
L 317.228708 124.419664 
L 317.608421 123.409246 
L 317.988134 121.556917 
L 318.367847 122.460218 
L 318.74756 121.775864 
L 319.127273 121.986941 
L 319.506986 122.566805 
L 319.886699 121.086099 
L 320.266411 120.479005 
L 320.646124 121.576718 
L 321.025837 121.303122 
L 321.40555 118.927771 
L 321.785263 118.405269 
L 322.164976 116.788664 
L 322.544689 119.443349 
L 322.924402 120.323778 
L 323.304115 119.458257 
L 323.683828 119.292735 
L 324.063541 119.428476 
L 324.443254 114.746286 
L 324.822967 117.876356 
L 325.202679 116.072692 
L 325.962105 116.985107 
L 326.341818 112.550576 
L 326.721531 111.983833 
L 327.101244 110.199996 
L 327.480957 110.128999 
L 327.86067 111.742528 
L 328.240383 109.517419 
L 328.620096 109.080033 
L 328.999809 107.930946 
L 329.379522 107.515387 
L 329.759234 106.209822 
L 330.138947 106.405017 
L 330.51866 109.570331 
L 330.898373 107.863412 
L 331.278086 106.782629 
L 331.657799 108.838132 
L 332.037512 107.701439 
L 332.417225 107.301307 
L 332.796938 105.660191 
L 333.556364 108.272128 
L 333.936077 107.985273 
L 334.315789 108.394783 
L 334.695502 108.265035 
L 335.075215 106.79352 
L 335.454928 108.49493 
L 335.834641 106.450796 
L 336.214354 105.727904 
L 336.594067 105.652167 
L 337.353493 103.107318 
L 337.733206 100.267651 
L 338.112919 102.204292 
L 338.492632 105.821472 
L 338.872344 101.747038 
L 339.252057 101.555635 
L 339.63177 104.289805 
L 340.391196 100.65069 
L 340.770909 100.602045 
L 341.150622 101.370287 
L 341.530335 101.338938 
L 341.910048 101.927244 
L 342.289761 95.01107 
L 342.669474 94.272741 
L 343.049187 94.478914 
L 343.4289 93.065428 
L 343.808612 92.601814 
L 344.188325 90.143445 
L 344.568038 93.267151 
L 344.947751 94.485126 
L 345.327464 91.81286 
L 345.707177 93.573735 
L 346.08689 90.579253 
L 346.466603 89.054577 
L 346.846316 85.355727 
L 347.226029 86.351023 
L 347.605742 80.870632 
L 348.365167 84.712234 
L 348.74488 86.46651 
L 349.124593 84.868724 
L 349.504306 85.180404 
L 349.884019 85.85072 
L 350.263732 85.714245 
L 350.643445 87.66224 
L 351.023158 86.754179 
L 351.402871 85.330616 
L 351.782584 85.658966 
L 352.162297 84.200057 
L 352.54201 84.570724 
L 352.921722 82.786474 
L 353.301435 84.046017 
L 353.681148 87.444535 
L 354.060861 85.157518 
L 354.440574 81.690294 
L 354.820287 84.563708 
L 355.2 82.894517 
L 355.579713 84.628198 
L 355.959426 83.062692 
L 356.339139 83.040431 
L 357.478278 77.013399 
L 357.85799 79.713766 
L 358.237703 79.507282 
L 358.617416 78.155602 
L 358.997129 78.553987 
L 359.376842 80.857455 
L 360.136268 78.867373 
L 360.515981 80.325926 
L 360.895694 79.505342 
L 361.275407 77.9153 
L 361.65512 77.946221 
L 362.414545 75.30787 
L 362.794258 76.458952 
L 363.173971 76.440282 
L 363.553684 73.934607 
L 363.933397 75.225381 
L 364.692823 75.008893 
L 365.072536 73.617203 
L 365.452249 75.206431 
L 365.831962 75.253202 
L 366.211675 72.456131 
L 366.591388 72.421875 
L 366.9711 71.098331 
L 367.350813 67.608098 
L 367.730526 69.108111 
L 368.489952 68.284992 
L 368.869665 68.137098 
L 369.249378 68.510534 
L 369.629091 67.216623 
L 370.008804 68.734731 
L 370.76823 64.943521 
L 371.147943 66.455728 
L 371.527656 68.507627 
L 371.907368 69.309524 
L 372.287081 65.52062 
L 372.666794 67.775703 
L 373.046507 66.606174 
L 373.42622 70.690842 
L 373.805933 68.007919 
L 374.185646 67.008983 
L 374.565359 69.279748 
L 374.945072 69.488182 
L 375.324785 70.69631 
L 375.704498 68.524016 
L 376.084211 70.839012 
L 376.463923 68.026646 
L 376.843636 67.683393 
L 377.223349 65.023 
L 377.603062 68.365892 
L 377.982775 68.351091 
L 378.362488 67.549571 
L 378.742201 67.635114 
L 379.121914 66.184673 
L 379.501627 67.30852 
L 379.88134 64.577172 
L 380.261053 65.255328 
L 380.640766 65.256703 
L 381.020478 74.717405 
L 381.779904 74.717405 
L 382.159617 62.951565 
L 382.53933 62.897915 
L 382.919043 64.471756 
L 383.298756 64.038814 
L 383.678469 62.400764 
L 384.058182 62.806567 
L 384.437895 62.080102 
L 384.817608 59.64968 
L 385.197321 60.556179 
L 385.577033 55.633122 
L 385.956746 56.644389 
L 386.336459 55.218036 
L 386.716172 55.600978 
L 387.095885 54.327128 
L 387.475598 58.346548 
L 387.855311 55.284237 
L 388.235024 56.305723 
L 388.614737 56.989639 
L 388.99445 58.49957 
L 389.374163 57.132508 
L 389.753876 58.369317 
L 390.513301 56.080325 
L 390.893014 57.67915 
L 391.272727 58.407494 
L 391.65244 58.147371 
L 392.032153 62.402866 
L 392.411866 58.380916 
L 392.791579 58.916926 
L 393.171292 56.791892 
L 393.551005 59.189789 
L 393.930718 58.690575 
L 394.690144 58.406298 
L 395.069856 56.174284 
L 395.449569 57.625016 
L 395.829282 56.385407 
L 396.208995 56.207313 
L 396.588708 56.93994 
L 396.968421 53.568 
L 397.348134 57.406246 
L 397.727847 59.079877 
L 398.10756 57.886636 
L 398.487273 73.74963 
L 398.487273 73.74963 
" clip-path="url(#p88b9401043)" style="fill: none; stroke: #1f77b4; stroke-width: 1.5; stroke-linecap: square"/>
   </g>
   <g id="line2d_16">
    <path d="M 73.832727 294.803667 
L 75.351579 294.674311 
L 75.731292 294.782573 
L 84.084976 294.545229 
L 85.224115 294.509313 
L 85.983541 294.475673 
L 90.160383 294.535626 
L 95.476364 294.458769 
L 95.856077 294.276496 
L 110.66488 294.459176 
L 112.563445 294.460251 
L 113.702584 294.300223 
L 115.221435 294.27617 
L 117.12 294.22084 
L 121.676555 294.388735 
L 126.992536 293.968522 
L 127.751962 293.915356 
L 128.511388 293.856563 
L 129.270813 293.948033 
L 130.409952 294.01262 
L 132.308517 293.894811 
L 133.067943 293.727329 
L 134.207081 293.835138 
L 139.143349 293.494247 
L 139.523062 293.595661 
L 144.839043 292.961338 
L 146.357895 292.714498 
L 147.117321 292.721443 
L 148.256459 292.335975 
L 149.775311 292.065536 
L 150.155024 292.182449 
L 151.673876 292.061896 
L 156.989856 291.069569 
L 157.369569 291.113148 
L 158.128995 290.864144 
L 158.888421 290.765128 
L 159.268134 290.537515 
L 160.407273 290.796579 
L 161.166699 290.617804 
L 161.546411 290.565254 
L 161.926124 290.344081 
L 162.305837 290.360644 
L 162.68555 290.196807 
L 163.824689 290.113091 
L 164.204402 289.87947 
L 165.343541 289.643236 
L 165.723254 289.645787 
L 166.102967 289.496135 
L 166.482679 289.480927 
L 169.14067 288.557621 
L 169.520383 288.691657 
L 170.659522 288.22007 
L 171.418947 287.826996 
L 171.79866 287.529144 
L 172.558086 287.322232 
L 172.937799 287.417302 
L 173.697225 287.271938 
L 174.836364 286.159623 
L 175.216077 285.892427 
L 175.595789 285.965883 
L 175.975502 285.82253 
L 177.114641 284.987334 
L 177.494354 284.846012 
L 178.25378 284.171297 
L 178.633493 284.07885 
L 179.013206 282.805483 
L 179.392919 282.924371 
L 179.772632 283.772653 
L 180.152344 283.680536 
L 180.91177 283.029624 
L 181.291483 283.617823 
L 181.671196 282.856215 
L 182.050909 282.809373 
L 182.430622 282.572645 
L 182.810335 282.018957 
L 183.190048 282.047093 
L 183.949474 281.199051 
L 184.329187 281.224626 
L 184.7089 281.035148 
L 185.088612 280.347266 
L 185.468325 280.579539 
L 185.848038 280.058885 
L 186.227751 280.215064 
L 186.607464 280.027108 
L 186.987177 280.103813 
L 187.36689 279.517167 
L 187.746603 279.539779 
L 188.126316 278.94128 
L 188.506029 279.04526 
L 189.265455 277.782046 
L 189.645167 277.532065 
L 190.02488 277.452565 
L 190.404593 277.162635 
L 190.784306 277.133899 
L 191.164019 277.24488 
L 191.543732 277.223831 
L 192.682871 276.809357 
L 193.062584 276.944304 
L 193.82201 276.595577 
L 194.201722 275.994354 
L 194.581435 274.644858 
L 194.961148 275.65219 
L 195.340861 275.983809 
L 195.720574 275.635673 
L 196.100287 275.837615 
L 196.48 275.333814 
L 197.239426 274.682393 
L 197.619139 274.036598 
L 197.998852 273.631589 
L 198.378565 272.783129 
L 198.758278 270.272027 
L 199.13799 268.663624 
L 199.517703 271.046323 
L 199.897416 271.674658 
L 200.277129 271.691939 
L 200.656842 271.943076 
L 201.036555 271.92499 
L 201.416268 272.261095 
L 201.795981 271.567486 
L 202.175694 271.689449 
L 202.555407 270.394005 
L 202.93512 269.998141 
L 203.314833 270.223204 
L 204.074258 268.931385 
L 204.453971 269.281034 
L 204.833684 269.247322 
L 205.213397 268.831015 
L 205.59311 268.226778 
L 205.972823 267.912393 
L 206.352536 267.956955 
L 207.111962 266.083974 
L 207.491675 265.533076 
L 207.871388 265.237026 
L 208.2511 264.157934 
L 208.630813 263.784187 
L 209.769952 261.608257 
L 210.149665 261.977676 
L 210.909091 261.614342 
L 211.668517 260.916745 
L 212.04823 261.220015 
L 212.807656 260.835443 
L 213.567081 259.873207 
L 214.70622 259.381356 
L 215.085933 259.384579 
L 215.465646 258.375735 
L 215.845359 258.274117 
L 216.225072 258.301765 
L 216.604785 257.785087 
L 217.743923 255.226908 
L 218.123636 254.744369 
L 218.503349 252.415805 
L 218.883062 249.130518 
L 219.262775 254.005022 
L 219.642488 255.067206 
L 220.022201 254.770632 
L 220.401914 254.247651 
L 220.781627 254.318821 
L 221.16134 254.588165 
L 221.920766 253.48781 
L 222.680191 252.98573 
L 223.059904 252.579641 
L 223.439617 251.420066 
L 223.81933 251.151073 
L 224.199043 251.085336 
L 224.958469 250.059262 
L 225.338182 248.839591 
L 225.717895 248.079465 
L 226.097608 248.558516 
L 226.857033 247.060336 
L 227.236746 245.682108 
L 227.616459 245.281233 
L 227.996172 245.085177 
L 228.755598 242.874997 
L 229.135311 241.153735 
L 229.515024 241.907516 
L 229.894737 241.765431 
L 230.27445 240.899329 
L 230.654163 240.314771 
L 231.033876 240.165109 
L 231.413589 240.270937 
L 231.793301 241.465425 
L 232.173014 240.852965 
L 232.552727 241.127055 
L 232.93244 240.47683 
L 233.312153 240.547512 
L 233.691866 239.816178 
L 234.451292 237.7707 
L 234.831005 237.976155 
L 235.590431 235.083098 
L 235.970144 235.768622 
L 236.349856 235.23585 
L 236.729569 233.975004 
L 237.109282 233.88139 
L 237.488995 233.035171 
L 237.868708 232.55336 
L 238.248421 229.192642 
L 238.628134 221.438167 
L 239.007847 227.020491 
L 239.38756 229.997019 
L 239.767273 230.311449 
L 240.526699 229.983776 
L 240.906411 230.074732 
L 241.286124 230.033068 
L 241.665837 229.10659 
L 242.04555 228.875361 
L 242.425263 229.163962 
L 243.184689 228.080047 
L 243.944115 226.13389 
L 244.323828 224.002283 
L 244.703541 224.71937 
L 245.083254 224.613175 
L 245.462967 220.747266 
L 245.842679 221.59513 
L 246.602105 219.015749 
L 246.981818 216.533939 
L 247.361531 216.444495 
L 247.741244 216.104617 
L 248.50067 211.781571 
L 248.880383 211.494758 
L 249.260096 210.856448 
L 249.639809 210.544722 
L 250.399234 208.077554 
L 250.778947 207.866065 
L 251.15866 207.793006 
L 251.538373 208.874686 
L 251.918086 208.999266 
L 252.677512 210.557069 
L 253.436938 211.067214 
L 253.816651 208.879141 
L 254.196364 208.327291 
L 254.576077 208.804514 
L 254.955789 207.830358 
L 255.335502 206.037931 
L 255.715215 207.59804 
L 256.094928 208.216483 
L 256.474641 206.370655 
L 256.854354 206.143617 
L 257.234067 205.104116 
L 257.61378 199.84609 
L 257.993493 201.951532 
L 258.373206 193.255864 
L 259.132632 203.581059 
L 259.512344 202.241288 
L 259.892057 203.648914 
L 260.27177 203.126392 
L 260.651483 203.039591 
L 261.031196 201.676337 
L 261.410909 203.977616 
L 261.790622 204.614908 
L 262.170335 204.018242 
L 262.550048 202.711281 
L 262.929761 202.265717 
L 263.309474 201.245524 
L 263.689187 201.174471 
L 264.0689 202.980299 
L 264.448612 201.948136 
L 264.828325 200.480362 
L 265.208038 198.417527 
L 265.587751 198.221395 
L 265.967464 197.368347 
L 266.347177 197.472551 
L 266.72689 195.276592 
L 267.106603 195.225936 
L 267.486316 193.714589 
L 267.866029 193.473992 
L 268.245742 193.012792 
L 268.625455 191.568766 
L 269.38488 191.580701 
L 270.144306 190.996412 
L 270.524019 191.864922 
L 270.903732 190.392557 
L 271.283445 189.608709 
L 271.663158 192.415408 
L 272.042871 192.554912 
L 272.422584 192.422114 
L 272.802297 192.506873 
L 273.18201 192.43612 
L 273.561722 191.030785 
L 273.941435 191.365913 
L 274.321148 191.93347 
L 274.700861 191.307064 
L 275.080574 188.431766 
L 275.460287 189.219789 
L 275.84 188.826827 
L 276.219713 185.770254 
L 276.599426 187.265715 
L 277.738565 183.277832 
L 278.118278 170.809859 
L 278.49799 175.592235 
L 278.877703 182.784978 
L 279.257416 184.105091 
L 280.016842 182.82983 
L 280.396555 181.579171 
L 280.776268 182.514193 
L 281.155981 182.248876 
L 281.535694 183.232889 
L 281.915407 181.011441 
L 282.29512 182.973565 
L 283.054545 180.936116 
L 283.434258 180.907501 
L 283.813971 181.516214 
L 284.193684 178.969807 
L 284.573397 178.539238 
L 284.95311 176.407259 
L 285.332823 178.365198 
L 285.712536 179.610449 
L 286.092249 177.219018 
L 286.851675 170.549847 
L 287.231388 172.007391 
L 287.6111 170.806697 
L 287.990813 170.150953 
L 288.370526 168.593517 
L 288.750239 169.241099 
L 289.129952 169.422135 
L 289.509665 169.259409 
L 289.889378 168.741575 
L 290.269091 167.915697 
L 290.648804 165.610635 
L 291.028517 168.52305 
L 291.40823 169.347569 
L 291.787943 169.502684 
L 292.167656 170.813199 
L 292.547368 171.540479 
L 293.306794 171.270458 
L 293.686507 171.775745 
L 294.06622 171.484227 
L 294.445933 172.14519 
L 295.205359 169.478326 
L 295.585072 171.156865 
L 295.964785 170.586624 
L 296.344498 169.167322 
L 296.724211 169.324112 
L 297.103923 168.640558 
L 297.483636 166.512256 
L 297.863349 154.745998 
L 298.243062 154.432749 
L 298.622775 165.949764 
L 299.002488 167.564628 
L 299.382201 167.895244 
L 299.761914 166.783759 
L 300.141627 165.282585 
L 300.901053 163.600461 
L 301.280766 163.552825 
L 301.660478 164.110912 
L 302.040191 163.711117 
L 302.419904 154.730494 
L 302.799617 150.810945 
L 303.17933 149.284629 
L 303.559043 150.422626 
L 304.698182 146.434911 
L 305.077895 146.71481 
L 305.457608 148.826779 
L 305.837321 146.891437 
L 306.217033 146.152813 
L 306.596746 147.880836 
L 306.976459 148.830878 
L 307.735885 145.843464 
L 308.115598 142.999296 
L 308.495311 142.784157 
L 308.875024 141.240524 
L 309.254737 142.573839 
L 309.63445 142.390538 
L 310.014163 143.444172 
L 310.393876 142.434575 
L 310.773589 142.442991 
L 311.153301 143.332575 
L 311.533014 144.905668 
L 311.912727 144.153978 
L 312.29244 145.958951 
L 313.051866 146.086342 
L 313.431579 146.782986 
L 313.811292 145.513617 
L 314.191005 145.692784 
L 314.570718 144.68898 
L 314.950431 142.872149 
L 315.330144 144.944078 
L 315.709856 145.361043 
L 316.089569 145.158362 
L 316.469282 147.48681 
L 316.848995 145.536371 
L 317.608421 137.651088 
L 317.988134 131.378963 
L 318.74756 140.762696 
L 319.127273 140.068195 
L 319.506986 140.934511 
L 319.886699 139.861273 
L 320.646124 138.942321 
L 321.025837 139.078688 
L 321.40555 140.64092 
L 321.785263 140.254384 
L 322.164976 140.059137 
L 322.544689 138.223386 
L 322.924402 141.231217 
L 323.683828 138.398933 
L 324.063541 140.534369 
L 324.443254 139.293925 
L 324.822967 136.066091 
L 325.202679 136.38322 
L 325.582392 134.463524 
L 325.962105 133.338653 
L 326.341818 135.104757 
L 326.721531 135.461829 
L 327.480957 128.399278 
L 327.86067 128.27904 
L 328.240383 127.929646 
L 328.620096 127.214331 
L 328.999809 124.617415 
L 329.379522 125.987481 
L 329.759234 124.691319 
L 330.138947 124.790605 
L 330.51866 125.965022 
L 330.898373 128.838181 
L 331.278086 129.504393 
L 331.657799 129.552229 
L 332.037512 130.993536 
L 332.417225 128.900013 
L 333.176651 130.018963 
L 333.556364 130.279931 
L 333.936077 130.06604 
L 334.315789 129.64376 
L 334.695502 131.914173 
L 335.075215 130.869541 
L 335.454928 131.36908 
L 335.834641 129.884662 
L 336.214354 130.913389 
L 336.97378 128.381528 
L 337.353493 123.335016 
L 337.733206 111.518224 
L 338.492632 123.330515 
L 338.872344 123.654869 
L 339.252057 125.310806 
L 339.63177 123.74364 
L 340.011483 126.384894 
L 340.391196 125.451751 
L 340.770909 122.170599 
L 341.150622 123.967374 
L 341.530335 123.961218 
L 341.910048 126.163512 
L 342.289761 122.427535 
L 342.669474 116.104565 
L 343.049187 116.254196 
L 343.4289 126.21204 
L 343.808612 115.033247 
L 344.568038 111.720334 
L 344.947751 115.250724 
L 345.327464 115.080349 
L 345.707177 113.794946 
L 346.08689 110.838535 
L 346.466603 111.452232 
L 347.226029 104.173269 
L 347.605742 104.908385 
L 347.985455 104.694503 
L 348.365167 102.352441 
L 348.74488 102.265253 
L 349.124593 103.135449 
L 349.504306 101.93593 
L 349.884019 102.739528 
L 350.263732 102.836996 
L 350.643445 106.02877 
L 351.023158 106.824654 
L 351.782584 109.697941 
L 352.162297 107.724391 
L 352.54201 108.811906 
L 352.921722 108.937835 
L 353.301435 106.210377 
L 353.681148 109.273457 
L 354.060861 110.124182 
L 354.440574 107.161869 
L 354.820287 106.360578 
L 355.2 108.552174 
L 355.579713 105.182597 
L 355.959426 108.463464 
L 356.339139 108.752991 
L 356.718852 104.573207 
L 357.478278 90.98243 
L 357.85799 97.93792 
L 358.237703 102.677024 
L 358.617416 102.605609 
L 358.997129 103.165341 
L 359.376842 102.072567 
L 359.756555 102.200396 
L 360.136268 102.892082 
L 360.895694 100.67269 
L 361.275407 103.57866 
L 362.034833 96.615751 
L 362.414545 100.175183 
L 362.794258 96.06663 
L 363.173971 98.632793 
L 363.553684 99.263048 
L 363.933397 98.024945 
L 364.31311 94.978255 
L 364.692823 99.59291 
L 365.072536 99.440138 
L 365.452249 96.152611 
L 365.831962 96.709884 
L 366.211675 96.154454 
L 366.591388 91.700382 
L 367.350813 87.311594 
L 367.730526 87.655122 
L 368.110239 87.487274 
L 368.489952 86.40175 
L 368.869665 87.740457 
L 369.249378 86.317424 
L 369.629091 87.276727 
L 370.008804 85.940204 
L 371.147943 92.623505 
L 371.527656 91.602502 
L 371.907368 93.195884 
L 372.287081 92.752596 
L 372.666794 92.103955 
L 373.046507 91.813751 
L 373.42622 93.91124 
L 373.805933 94.570675 
L 374.185646 91.916733 
L 374.565359 92.82479 
L 374.945072 95.218837 
L 375.324785 92.75394 
L 375.704498 94.395209 
L 376.084211 94.915664 
L 376.463923 93.464398 
L 376.843636 88.738013 
L 377.223349 77.028944 
L 377.603062 82.532486 
L 377.982775 89.726486 
L 378.362488 89.727398 
L 378.742201 92.204244 
L 379.121914 91.21211 
L 379.88134 88.026456 
L 380.261053 87.321365 
L 380.640766 89.708151 
L 381.020478 74.717405 
L 381.779904 74.717405 
L 382.159617 86.004109 
L 382.53933 84.758878 
L 382.919043 85.216407 
L 383.298756 89.818165 
L 383.678469 89.120365 
L 384.058182 85.529279 
L 384.437895 86.488872 
L 384.817608 85.207201 
L 385.197321 86.095869 
L 385.577033 83.196244 
L 385.956746 77.93393 
L 386.336459 78.693939 
L 386.716172 74.553584 
L 387.095885 75.40156 
L 387.475598 75.038938 
L 387.855311 75.593614 
L 388.235024 75.437766 
L 388.614737 74.756325 
L 388.99445 76.407176 
L 389.374163 76.198223 
L 389.753876 76.219328 
L 390.133589 79.817171 
L 390.513301 80.630661 
L 390.893014 82.022809 
L 391.272727 82.897211 
L 392.411866 82.390059 
L 392.791579 82.781189 
L 393.171292 82.384112 
L 393.551005 82.882048 
L 393.930718 84.002947 
L 394.310431 81.387294 
L 394.690144 83.067722 
L 395.069856 84.113368 
L 395.449569 78.700614 
L 395.829282 82.913987 
L 396.208995 81.262434 
L 396.588708 76.716708 
L 396.968421 67.649208 
L 397.348134 66.043708 
L 397.727847 79.114014 
L 398.10756 82.023741 
L 398.487273 73.74963 
L 398.487273 73.74963 
" clip-path="url(#p88b9401043)" style="fill: none; stroke: #ff7f0e; stroke-width: 1.5; stroke-linecap: square"/>
   </g>
   <g id="line2d_17">
    <path d="M 73.832727 295.244684 
L 79.528421 295.216288 
L 79.908134 295.280376 
L 80.66756 295.174934 
L 81.047273 295.255728 
L 81.426986 295.161345 
L 81.806699 295.255178 
L 82.945837 295.159594 
L 93.577799 295.220071 
L 93.957512 295.180561 
L 94.337225 295.271486 
L 95.476364 294.985416 
L 95.856077 295.168239 
L 123.954833 295.298364 
L 124.334545 295.22056 
L 125.093971 295.364183 
L 127.751962 295.311893 
L 128.511388 295.330507 
L 128.8911 295.282494 
L 129.650526 295.390354 
L 130.789665 295.35982 
L 131.169378 295.417227 
L 132.308517 295.283589 
L 132.68823 295.373216 
L 133.447656 295.240921 
L 133.827368 295.218564 
L 134.207081 295.342905 
L 134.586794 295.344163 
L 134.966507 295.230534 
L 136.105646 295.383261 
L 136.485359 295.246283 
L 137.624498 295.226945 
L 138.004211 295.090842 
L 139.143349 295.33702 
L 139.902775 295.089803 
L 140.282488 295.17189 
L 140.662201 295.060405 
L 142.560766 295.258477 
L 143.320191 295.180871 
L 143.699904 294.873305 
L 144.079617 295.07292 
L 144.45933 294.979729 
L 145.598469 295.158412 
L 145.978182 295.0218 
L 146.357895 295.066957 
L 147.117321 294.849751 
L 147.497033 294.900758 
L 148.256459 294.821737 
L 148.636172 294.958471 
L 149.395598 294.808998 
L 149.775311 295.04293 
L 153.57244 294.794411 
L 153.952153 294.588996 
L 154.331866 294.536843 
L 155.091292 294.709799 
L 155.850718 294.667722 
L 156.230431 294.918014 
L 157.749282 294.611236 
L 158.888421 294.645676 
L 159.268134 294.90612 
L 160.407273 294.469528 
L 161.166699 294.547709 
L 161.546411 294.490479 
L 161.926124 294.704412 
L 162.305837 294.495698 
L 163.065263 294.760251 
L 164.204402 294.394865 
L 165.343541 294.489721 
L 165.723254 294.286272 
L 166.102967 294.417532 
L 166.862392 294.127924 
L 167.242105 294.272112 
L 167.621818 294.169843 
L 168.001531 294.237698 
L 168.760957 294.191385 
L 169.520383 294.184247 
L 169.900096 294.080664 
L 170.279809 294.194313 
L 171.418947 294.030736 
L 171.79866 294.221207 
L 172.558086 294.0746 
L 172.937799 293.804772 
L 173.317512 293.681693 
L 173.697225 293.382955 
L 174.456651 293.34066 
L 174.836364 293.0935 
L 175.216077 293.583966 
L 175.595789 293.549134 
L 175.975502 293.267754 
L 176.355215 293.216629 
L 176.734928 292.833992 
L 177.114641 293.036255 
L 177.494354 292.504435 
L 178.25378 292.969168 
L 178.633493 292.870855 
L 179.013206 293.886929 
L 179.392919 293.814736 
L 179.772632 292.685364 
L 180.152344 292.561333 
L 180.532057 292.605482 
L 180.91177 292.81828 
L 181.291483 291.941348 
L 181.671196 292.676907 
L 182.050909 292.681383 
L 182.430622 292.264026 
L 182.810335 292.809094 
L 183.190048 292.06184 
L 183.569761 292.173707 
L 183.949474 292.590152 
L 184.7089 292.542001 
L 185.088612 292.819751 
L 185.468325 292.355827 
L 185.848038 292.630706 
L 186.227751 292.047721 
L 186.607464 292.497353 
L 186.987177 292.23228 
L 187.36689 292.608441 
L 187.746603 292.421667 
L 188.126316 292.745776 
L 188.885742 291.792516 
L 189.265455 292.564343 
L 189.645167 292.439059 
L 190.02488 292.029804 
L 190.404593 292.282636 
L 190.784306 292.684896 
L 191.164019 292.270197 
L 191.923445 291.914032 
L 192.303158 291.403739 
L 192.682871 291.650578 
L 193.062584 291.492439 
L 193.442297 291.053902 
L 193.82201 291.174338 
L 194.201722 288.470351 
L 194.581435 291.994504 
L 194.961148 292.282651 
L 195.340861 291.321546 
L 195.720574 291.31791 
L 196.48 290.735175 
L 196.859713 290.777277 
L 197.239426 290.505015 
L 197.619139 290.627967 
L 198.378565 290.056203 
L 198.758278 291.897621 
L 199.13799 292.596827 
L 199.517703 289.613842 
L 199.897416 289.944189 
L 200.656842 289.5556 
L 201.036555 289.728555 
L 201.416268 289.681632 
L 201.795981 290.264912 
L 202.175694 288.028708 
L 202.555407 289.636877 
L 202.93512 289.629367 
L 203.314833 288.975858 
L 203.694545 289.315242 
L 204.074258 289.835484 
L 204.453971 289.507561 
L 204.833684 289.585472 
L 205.213397 288.403596 
L 205.59311 288.949626 
L 205.972823 288.56089 
L 206.352536 287.9582 
L 206.732249 289.350908 
L 207.111962 288.29263 
L 207.491675 289.308827 
L 207.871388 288.275981 
L 208.2511 288.718729 
L 208.630813 288.136981 
L 209.010526 289.551547 
L 209.390239 289.245207 
L 209.769952 288.299178 
L 210.529378 289.155326 
L 210.909091 288.856858 
L 211.288804 287.733438 
L 211.668517 288.450219 
L 212.04823 286.797042 
L 212.427943 287.31515 
L 212.807656 286.476777 
L 213.567081 285.711844 
L 214.326507 285.856781 
L 214.70622 285.914127 
L 215.085933 284.845931 
L 215.465646 285.984371 
L 215.845359 285.686483 
L 216.225072 284.603327 
L 216.604785 284.852112 
L 216.984498 284.608317 
L 217.364211 284.715999 
L 218.123636 285.960109 
L 218.503349 287.77387 
L 218.883062 288.866114 
L 219.262775 284.618679 
L 219.642488 284.215793 
L 220.022201 284.265262 
L 220.401914 284.721411 
L 220.781627 284.643026 
L 221.16134 284.417251 
L 221.920766 285.253007 
L 222.300478 284.214082 
L 222.680191 284.462795 
L 223.059904 283.774618 
L 223.439617 284.931118 
L 223.81933 285.033881 
L 224.199043 283.993581 
L 224.958469 282.995999 
L 225.338182 282.372317 
L 225.717895 284.391269 
L 226.097608 283.384593 
L 226.477321 283.067174 
L 226.857033 284.03494 
L 227.236746 283.084781 
L 227.616459 283.82726 
L 227.996172 283.737816 
L 228.375885 283.291224 
L 228.755598 284.307955 
L 229.135311 284.818207 
L 229.515024 284.356014 
L 229.894737 283.540253 
L 230.27445 283.897518 
L 230.654163 284.752404 
L 231.033876 284.246194 
L 231.793301 282.249768 
L 232.173014 282.376956 
L 232.552727 280.492672 
L 233.312153 280.461842 
L 233.691866 279.310205 
L 234.071579 280.621672 
L 234.451292 280.428085 
L 234.831005 279.24237 
L 235.210718 278.61438 
L 235.590431 280.11867 
L 235.970144 278.793868 
L 236.729569 278.558332 
L 237.488995 279.095743 
L 237.868708 277.348096 
L 238.248421 279.926601 
L 238.628134 283.984737 
L 239.38756 277.393396 
L 239.767273 277.652088 
L 240.146986 277.11368 
L 240.526699 277.845283 
L 240.906411 278.30882 
L 241.286124 278.132585 
L 241.665837 278.100926 
L 242.04555 278.620307 
L 242.425263 277.765788 
L 242.804976 277.671197 
L 243.184689 277.184142 
L 243.564402 278.140981 
L 243.944115 278.286407 
L 244.323828 277.960032 
L 244.703541 278.014252 
L 245.083254 274.824305 
L 245.462967 278.945363 
L 245.842679 276.305841 
L 246.222392 276.353157 
L 246.602105 277.116002 
L 246.981818 279.139189 
L 247.361531 278.321106 
L 247.741244 276.998824 
L 248.120957 276.505298 
L 248.50067 279.273459 
L 248.880383 278.759291 
L 249.260096 278.768085 
L 249.639809 277.904605 
L 250.019522 278.798267 
L 250.399234 279.34302 
L 251.15866 279.929798 
L 251.918086 276.391461 
L 252.297799 276.693035 
L 252.677512 276.07645 
L 253.057225 276.956554 
L 253.436938 275.463786 
L 253.816651 275.803684 
L 254.196364 276.592354 
L 254.576077 275.317241 
L 254.955789 275.826001 
L 255.335502 277.154336 
L 255.715215 275.254828 
L 256.094928 274.22937 
L 256.474641 275.550175 
L 256.854354 275.676253 
L 257.234067 290.229974 
L 257.61378 280.258144 
L 257.993493 277.42171 
L 258.373206 282.424195 
L 258.752919 281.136913 
L 259.132632 275.244131 
L 259.512344 276.364516 
L 259.892057 274.954466 
L 260.27177 275.018457 
L 260.651483 274.879289 
L 261.031196 277.497834 
L 261.410909 275.992363 
L 261.790622 275.161612 
L 262.170335 274.680132 
L 262.550048 276.06451 
L 262.929761 276.220012 
L 263.309474 276.918367 
L 263.689187 276.69472 
L 264.0689 272.46678 
L 264.448612 274.454957 
L 264.828325 273.357515 
L 265.208038 276.502004 
L 265.587751 274.544981 
L 265.967464 274.053614 
L 266.72689 275.289364 
L 267.106603 274.245302 
L 267.866029 276.65944 
L 268.245742 277.592736 
L 268.625455 278.230786 
L 269.38488 276.606946 
L 270.144306 278.548607 
L 270.524019 277.835482 
L 270.903732 277.47398 
L 271.283445 277.574763 
L 271.663158 273.438679 
L 272.042871 272.971635 
L 273.18201 272.868011 
L 273.561722 273.368003 
L 273.941435 272.112096 
L 274.321148 272.609929 
L 274.700861 269.861407 
L 275.080574 272.823511 
L 275.460287 271.623936 
L 275.84 269.555403 
L 276.219713 271.873423 
L 276.599426 269.934048 
L 276.979139 271.212007 
L 277.358852 271.252801 
L 277.738565 272.499707 
L 278.118278 283.754389 
L 278.877703 272.275291 
L 279.257416 271.852222 
L 279.637129 271.598768 
L 280.016842 270.991232 
L 280.396555 273.289644 
L 280.776268 272.163047 
L 281.155981 272.884436 
L 281.535694 270.287958 
L 281.915407 271.946798 
L 282.674833 270.599842 
L 283.054545 271.631268 
L 283.434258 271.16071 
L 283.813971 270.505638 
L 284.193684 272.904894 
L 284.573397 269.878754 
L 284.95311 271.910042 
L 285.332823 270.224914 
L 285.712536 269.815761 
L 286.092249 269.91081 
L 286.851675 273.062947 
L 287.231388 271.153729 
L 287.6111 272.509564 
L 287.990813 272.840527 
L 288.370526 272.63029 
L 288.750239 273.440426 
L 289.129952 271.707341 
L 289.509665 273.310326 
L 289.889378 272.795695 
L 290.269091 272.996604 
L 290.648804 275.249548 
L 291.40823 270.237139 
L 291.787943 270.234945 
L 292.167656 270.381068 
L 292.547368 269.160221 
L 292.927081 269.879191 
L 293.306794 270.271945 
L 293.686507 267.899888 
L 294.06622 269.309424 
L 294.445933 268.94889 
L 295.205359 270.498052 
L 295.585072 267.147323 
L 296.344498 269.125847 
L 296.724211 269.089753 
L 297.103923 268.800898 
L 297.483636 270.503831 
L 297.863349 281.039267 
L 298.243062 280.81453 
L 298.622775 270.058084 
L 299.002488 268.669357 
L 299.382201 268.389616 
L 299.761914 268.704316 
L 300.141627 269.251945 
L 300.52134 270.626736 
L 300.901053 270.077325 
L 301.280766 270.677372 
L 301.660478 269.880561 
L 302.040191 269.397534 
L 302.419904 278.593902 
L 302.799617 283.119908 
L 303.17933 284.369752 
L 303.938756 282.188354 
L 304.698182 283.307991 
L 305.077895 283.297665 
L 305.457608 280.61491 
L 305.837321 280.650541 
L 306.217033 282.003693 
L 306.596746 277.549595 
L 306.976459 278.781211 
L 307.356172 278.381313 
L 307.735885 277.493735 
L 308.115598 281.060112 
L 308.495311 279.733707 
L 308.875024 280.237136 
L 309.254737 279.003331 
L 309.63445 278.406237 
L 310.014163 279.308988 
L 310.393876 278.688738 
L 310.773589 279.291452 
L 311.153301 278.760427 
L 311.533014 276.408248 
L 311.912727 276.494631 
L 312.29244 273.633417 
L 312.672153 275.614986 
L 313.051866 275.62971 
L 313.431579 274.012698 
L 313.811292 275.803593 
L 314.191005 276.888872 
L 314.570718 276.909274 
L 314.950431 276.437972 
L 315.330144 278.164611 
L 316.089569 275.446022 
L 316.469282 274.360005 
L 317.228708 277.864794 
L 317.608421 281.246158 
L 317.988134 285.665954 
L 318.74756 276.501169 
L 319.127273 277.406746 
L 320.266411 276.632231 
L 320.646124 278.122397 
L 321.025837 277.712434 
L 321.40555 273.774851 
L 321.785263 273.638885 
L 322.164976 272.217527 
L 322.544689 276.707963 
L 322.924402 274.580561 
L 323.304115 275.310667 
L 323.683828 276.381802 
L 324.063541 274.382107 
L 324.443254 270.940362 
L 324.822967 277.298265 
L 325.202679 275.177472 
L 325.582392 277.533037 
L 325.962105 279.134454 
L 326.341818 272.933819 
L 326.721531 272.010004 
L 327.101244 273.704836 
L 327.480957 277.217721 
L 327.86067 278.951488 
L 328.240383 277.075773 
L 328.620096 277.353702 
L 328.999809 278.801531 
L 329.379522 277.015906 
L 330.138947 277.102412 
L 330.51866 279.093309 
L 330.898373 274.51323 
L 331.278086 272.766235 
L 331.657799 274.773904 
L 332.037512 272.195903 
L 332.417225 273.889294 
L 332.796938 271.708507 
L 333.556364 273.480196 
L 333.936077 273.407234 
L 334.315789 274.239024 
L 334.695502 271.838861 
L 335.075215 271.411979 
L 335.454928 272.61385 
L 335.834641 272.054133 
L 336.214354 270.302515 
L 336.594067 271.579919 
L 336.97378 271.563163 
L 337.353493 275.260302 
L 337.733206 284.237427 
L 338.112919 279.360499 
L 338.492632 277.978957 
L 338.872344 273.580169 
L 339.252057 271.732829 
L 339.63177 276.034165 
L 340.011483 271.567588 
L 340.391196 270.686939 
L 340.770909 273.919446 
L 341.150622 272.890913 
L 341.530335 272.86572 
L 341.910048 271.251732 
L 342.289761 268.071535 
L 342.669474 273.656176 
L 343.049187 273.712718 
L 343.4289 262.341388 
L 343.808612 273.056567 
L 344.188325 272.071236 
L 344.568038 277.034817 
L 345.327464 272.22051 
L 345.707177 275.266788 
L 346.08689 275.228719 
L 346.466603 273.090345 
L 346.846316 273.207919 
L 347.226029 277.665754 
L 347.605742 271.450247 
L 347.985455 273.884212 
L 348.365167 277.847793 
L 348.74488 279.689257 
L 349.124593 277.221275 
L 349.504306 278.732474 
L 350.263732 278.36525 
L 350.643445 277.12147 
L 351.023158 275.417524 
L 351.402871 272.663299 
L 351.782584 271.449025 
L 352.162297 271.963666 
L 352.54201 271.246818 
L 352.921722 269.336639 
L 353.301435 273.32364 
L 353.681148 273.659078 
L 354.060861 270.521336 
L 354.440574 270.016425 
L 354.820287 273.69113 
L 355.2 269.830343 
L 355.579713 274.933601 
L 355.959426 270.087228 
L 356.339139 269.77544 
L 356.718852 271.760156 
L 357.098565 275.876662 
L 357.478278 281.51897 
L 358.237703 272.318258 
L 358.617416 271.037993 
L 358.997129 270.876646 
L 359.376842 274.272888 
L 360.136268 271.463292 
L 360.515981 274.12926 
L 360.895694 274.320652 
L 361.275407 269.82464 
L 361.65512 273.715966 
L 362.034833 275.657088 
L 362.414545 270.620687 
L 362.794258 275.880323 
L 363.553684 270.159559 
L 364.31311 275.582074 
L 364.692823 270.903983 
L 365.072536 269.665065 
L 365.452249 274.54182 
L 365.831962 274.031318 
L 366.211675 271.789677 
L 366.591388 276.209493 
L 366.9711 277.14429 
L 367.350813 275.784504 
L 367.730526 276.940989 
L 368.110239 276.718462 
L 368.489952 277.371242 
L 368.869665 275.88464 
L 369.249378 277.68111 
L 369.629091 275.427896 
L 370.008804 278.282527 
L 370.76823 269.296318 
L 371.147943 269.320223 
L 371.527656 272.393125 
L 371.907368 271.60164 
L 372.287081 268.256024 
L 372.666794 271.159747 
L 373.046507 270.280423 
L 373.42622 272.267602 
L 373.805933 268.925245 
L 374.565359 271.942959 
L 374.945072 269.757345 
L 375.324785 273.43037 
L 375.704498 269.616807 
L 376.084211 271.411348 
L 376.463923 270.050248 
L 376.843636 274.433379 
L 377.223349 283.482056 
L 377.603062 281.321407 
L 377.982775 274.112605 
L 378.362488 273.310173 
L 378.742201 270.91887 
L 379.121914 270.460563 
L 379.501627 273.374699 
L 379.88134 272.038716 
L 380.261053 273.421964 
L 380.640766 271.036552 
L 381.020478 295.488 
L 381.779904 295.488 
L 382.159617 272.435456 
L 382.919043 274.743349 
L 383.298756 269.708649 
L 383.678469 268.768399 
L 384.058182 272.765288 
L 384.437895 271.079229 
L 384.817608 269.930479 
L 385.197321 269.94831 
L 385.577033 267.924878 
L 385.956746 274.198459 
L 386.336459 272.012097 
L 386.716172 276.535394 
L 387.095885 274.413568 
L 387.475598 278.79561 
L 387.855311 275.178623 
L 388.614737 277.721313 
L 388.99445 277.580394 
L 389.374163 276.422285 
L 389.753876 277.63799 
L 390.133589 273.016486 
L 390.513301 270.937663 
L 390.893014 271.14434 
L 391.65244 270.940591 
L 392.032153 275.439393 
L 392.411866 271.478857 
L 392.791579 271.623737 
L 393.171292 269.89578 
L 393.551005 271.795741 
L 393.930718 270.175628 
L 394.310431 272.700147 
L 394.690144 270.826575 
L 395.069856 267.548916 
L 395.449569 274.412402 
L 395.829282 268.959419 
L 396.208995 270.43288 
L 397.348134 286.850539 
L 397.727847 275.453863 
L 398.10756 271.350895 
L 398.487273 295.488 
L 398.487273 295.488 
" clip-path="url(#p88b9401043)" style="fill: none; stroke: #2ca02c; stroke-width: 1.5; stroke-linecap: square"/>
   </g>
   <g id="patch_3">
    <path d="M 57.6 307.584 
L 57.6 41.472 
" style="fill: none; stroke: #000000; stroke-width: 0.8; stroke-linejoin: miter; stroke-linecap: square"/>
   </g>
   <g id="patch_4">
    <path d="M 414.72 307.584 
L 414.72 41.472 
" style="fill: none; stroke: #000000; stroke-width: 0.8; stroke-linejoin: miter; stroke-linecap: square"/>
   </g>
   <g id="patch_5">
    <path d="M 57.6 307.584 
L 414.72 307.584 
" style="fill: none; stroke: #000000; stroke-width: 0.8; stroke-linejoin: miter; stroke-linecap: square"/>
   </g>
   <g id="patch_6">
    <path d="M 57.6 41.472 
L 414.72 41.472 
" style="fill: none; stroke: #000000; stroke-width: 0.8; stroke-linejoin: miter; stroke-linecap: square"/>
   </g>
   <g id="legend_1">
    <g id="patch_7">
     <path d="M 64.6 93.506375 
L 186.25625 93.506375 
Q 188.25625 93.506375 188.25625 91.506375 
L 188.25625 48.472 
Q 188.25625 46.472 186.25625 46.472 
L 64.6 46.472 
Q 62.6 46.472 62.6 48.472 
L 62.6 91.506375 
Q 62.6 93.506375 64.6 93.506375 
z
" style="fill: #ffffff; opacity: 0.8; stroke: #cccccc; stroke-linejoin: miter"/>
    </g>
    <g id="line2d_18">
     <path d="M 66.6 54.570438 
L 76.6 54.570438 
L 86.6 54.570438 
" style="fill: none; stroke: #1f77b4; stroke-width: 1.5; stroke-linecap: square"/>
    </g>
    <g id="text_17">
     <!-- Weekly maximum -->
     <g transform="translate(94.6 58.070438) scale(0.1 -0.1)">
      <defs>
       <path id="DejaVuSans-57" d="M 213 4666 
L 850 4666 
L 1831 722 
L 2809 4666 
L 3519 4666 
L 4500 722 
L 5478 4666 
L 6119 4666 
L 4947 0 
L 4153 0 
L 3169 4050 
L 2175 0 
L 1381 0 
L 213 4666 
z
" transform="scale(0.015625)"/>
       <path id="DejaVuSans-6b" d="M 581 4863 
L 1159 4863 
L 1159 1991 
L 2875 3500 
L 3609 3500 
L 1753 1863 
L 3688 0 
L 2938 0 
L 1159 1709 
L 1159 0 
L 581 0 
L 581 4863 
z
" transform="scale(0.015625)"/>
       <path id="DejaVuSans-79" d="M 2059 -325 
Q 1816 -950 1584 -1140 
Q 1353 -1331 966 -1331 
L 506 -1331 
L 506 -850 
L 844 -850 
Q 1081 -850 1212 -737 
Q 1344 -625 1503 -206 
L 1606 56 
L 191 3500 
L 800 3500 
L 1894 763 
L 2988 3500 
L 3597 3500 
L 2059 -325 
z
" transform="scale(0.015625)"/>
       <path id="DejaVuSans-6d" d="M 3328 2828 
Q 3544 3216 3844 3400 
Q 4144 3584 4550 3584 
Q 5097 3584 5394 3201 
Q 5691 2819 5691 2113 
L 5691 0 
L 5113 0 
L 5113 2094 
Q 5113 2597 4934 2840 
Q 4756 3084 4391 3084 
Q 3944 3084 3684 2787 
Q 3425 2491 3425 1978 
L 3425 0 
L 2847 0 
L 2847 2094 
Q 2847 2600 2669 2842 
Q 2491 3084 2119 3084 
Q 1678 3084 1418 2786 
Q 1159 2488 1159 1978 
L 1159 0 
L 581 0 
L 581 3500 
L 1159 3500 
L 1159 2956 
Q 1356 3278 1631 3431 
Q 1906 3584 2284 3584 
Q 2666 3584 2933 3390 
Q 3200 3197 3328 2828 
z
" transform="scale(0.015625)"/>
       <path id="DejaVuSans-78" d="M 3513 3500 
L 2247 1797 
L 3578 0 
L 2900 0 
L 1881 1375 
L 863 0 
L 184 0 
L 1544 1831 
L 300 3500 
L 978 3500 
L 1906 2253 
L 2834 3500 
L 3513 3500 
z
" transform="scale(0.015625)"/>
       <path id="DejaVuSans-75" d="M 544 1381 
L 544 3500 
L 1119 3500 
L 1119 1403 
Q 1119 906 1312 657 
Q 1506 409 1894 409 
Q 2359 409 2629 706 
Q 2900 1003 2900 1516 
L 2900 3500 
L 3475 3500 
L 3475 0 
L 2900 0 
L 2900 538 
Q 2691 219 2414 64 
Q 2138 -91 1772 -91 
Q 1169 -91 856 284 
Q 544 659 544 1381 
z
M 1991 3584 
L 1991 3584 
z
" transform="scale(0.015625)"/>
      </defs>
      <use xlink:href="#DejaVuSans-57"/>
      <use xlink:href="#DejaVuSans-65" transform="translate(93.001953 0)"/>
      <use xlink:href="#DejaVuSans-65" transform="translate(154.525391 0)"/>
      <use xlink:href="#DejaVuSans-6b" transform="translate(216.048828 0)"/>
      <use xlink:href="#DejaVuSans-6c" transform="translate(273.958984 0)"/>
      <use xlink:href="#DejaVuSans-79" transform="translate(301.742188 0)"/>
      <use xlink:href="#DejaVuSans-20" transform="translate(360.921875 0)"/>
      <use xlink:href="#DejaVuSans-6d" transform="translate(392.708984 0)"/>
      <use xlink:href="#DejaVuSans-61" transform="translate(490.121094 0)"/>
      <use xlink:href="#DejaVuSans-78" transform="translate(551.400391 0)"/>
      <use xlink:href="#DejaVuSans-69" transform="translate(610.580078 0)"/>
      <use xlink:href="#DejaVuSans-6d" transform="translate(638.363281 0)"/>
      <use xlink:href="#DejaVuSans-75" transform="translate(735.775391 0)"/>
      <use xlink:href="#DejaVuSans-6d" transform="translate(799.154297 0)"/>
     </g>
    </g>
    <g id="line2d_19">
     <path d="M 66.6 69.248563 
L 76.6 69.248563 
L 86.6 69.248563 
" style="fill: none; stroke: #ff7f0e; stroke-width: 1.5; stroke-linecap: square"/>
    </g>
    <g id="text_18">
     <!-- Weekly minimum -->
     <g transform="translate(94.6 72.748563) scale(0.1 -0.1)">
      <defs>
       <path id="DejaVuSans-6e" d="M 3513 2113 
L 3513 0 
L 2938 0 
L 2938 2094 
Q 2938 2591 2744 2837 
Q 2550 3084 2163 3084 
Q 1697 3084 1428 2787 
Q 1159 2491 1159 1978 
L 1159 0 
L 581 0 
L 581 3500 
L 1159 3500 
L 1159 2956 
Q 1366 3272 1645 3428 
Q 1925 3584 2291 3584 
Q 2894 3584 3203 3211 
Q 3513 2838 3513 2113 
z
" transform="scale(0.015625)"/>
      </defs>
      <use xlink:href="#DejaVuSans-57"/>
      <use xlink:href="#DejaVuSans-65" transform="translate(93.001953 0)"/>
      <use xlink:href="#DejaVuSans-65" transform="translate(154.525391 0)"/>
      <use xlink:href="#DejaVuSans-6b" transform="translate(216.048828 0)"/>
      <use xlink:href="#DejaVuSans-6c" transform="translate(273.958984 0)"/>
      <use xlink:href="#DejaVuSans-79" transform="translate(301.742188 0)"/>
      <use xlink:href="#DejaVuSans-20" transform="translate(360.921875 0)"/>
      <use xlink:href="#DejaVuSans-6d" transform="translate(392.708984 0)"/>
      <use xlink:href="#DejaVuSans-69" transform="translate(490.121094 0)"/>
      <use xlink:href="#DejaVuSans-6e" transform="translate(517.904297 0)"/>
      <use xlink:href="#DejaVuSans-69" transform="translate(581.283203 0)"/>
      <use xlink:href="#DejaVuSans-6d" transform="translate(609.066406 0)"/>
      <use xlink:href="#DejaVuSans-75" transform="translate(706.478516 0)"/>
      <use xlink:href="#DejaVuSans-6d" transform="translate(769.857422 0)"/>
     </g>
    </g>
    <g id="line2d_20">
     <path d="M 66.6 83.926688 
L 76.6 83.926688 
L 86.6 83.926688 
" style="fill: none; stroke: #2ca02c; stroke-width: 1.5; stroke-linecap: square"/>
    </g>
    <g id="text_19">
     <!-- Weekly range -->
     <g transform="translate(94.6 87.426688) scale(0.1 -0.1)">
      <use xlink:href="#DejaVuSans-57"/>
      <use xlink:href="#DejaVuSans-65" transform="translate(93.001953 0)"/>
      <use xlink:href="#DejaVuSans-65" transform="translate(154.525391 0)"/>
      <use xlink:href="#DejaVuSans-6b" transform="translate(216.048828 0)"/>
      <use xlink:href="#DejaVuSans-6c" transform="translate(273.958984 0)"/>
      <use xlink:href="#DejaVuSans-79" transform="translate(301.742188 0)"/>
      <use xlink:href="#DejaVuSans-20" transform="translate(360.921875 0)"/>
      <use xlink:href="#DejaVuSans-72" transform="translate(392.708984 0)"/>
      <use xlink:href="#DejaVuSans-61" transform="translate(433.822266 0)"/>
      <use xlink:href="#DejaVuSans-6e" transform="translate(495.101562 0)"/>
      <use xlink:href="#DejaVuSans-67" transform="translate(558.480469 0)"/>
      <use xlink:href="#DejaVuSans-65" transform="translate(621.957031 0)"/>
     </g>
    </g>
   </g>
  </g>
 </g>
 <defs>
  <clipPath id="p88b9401043">
   <rect x="57.6" y="41.472" width="357.12" height="266.112"/>
  </clipPath>
 </defs>
</svg>
