<?xml version="1.0" encoding="utf-8" standalone="no"?>
<!DOCTYPE svg PUBLIC "-//W3C//DTD SVG 1.1//EN"
  "http://www.w3.org/Graphics/SVG/1.1/DTD/svg11.dtd">
<svg xmlns:xlink="http://www.w3.org/1999/xlink" width="460.8pt" height="345.6pt" viewBox="0 0 460.8 345.6" xmlns="http://www.w3.org/2000/svg" version="1.1">
 <metadata>
  <rdf:RDF xmlns:dc="http://purl.org/dc/elements/1.1/" xmlns:cc="http://creativecommons.org/ns#" xmlns:rdf="http://www.w3.org/1999/02/22-rdf-syntax-ns#">
   <cc:Work>
    <dc:type rdf:resource="http://purl.org/dc/dcmitype/StillImage"/>
    <dc:date>2022-08-29T06:30:11.897046</dc:date>
    <dc:format>image/svg+xml</dc:format>
    <dc:creator>
     <cc:Agent>
      <dc:title>Matplotlib v3.5.3, https://matplotlib.org/</dc:title>
     </cc:Agent>
    </dc:creator>
   </cc:Work>
  </rdf:RDF>
 </metadata>
 <defs>
  <style type="text/css">*{stroke-linejoin: round; stroke-linecap: butt}</style>
 </defs>
 <g id="figure_1">
  <g id="patch_1">
   <path d="M 0 345.6 
L 460.8 345.6 
L 460.8 0 
L 0 0 
z
" style="fill: #ffffff"/>
  </g>
  <g id="axes_1">
   <g id="patch_2">
    <path d="M 57.6 307.584 
L 414.72 307.584 
L 414.72 41.472 
L 57.6 41.472 
z
" style="fill: #ffffff"/>
   </g>
   <g id="matplotlib.axis_1">
    <g id="xtick_1">
     <g id="line2d_1">
      <defs>
       <path id="m868170de48" d="M 0 0 
L 0 3.5 
" style="stroke: #000000; stroke-width: 0.8"/>
      </defs>
      <g>
       <use xlink:href="#m868170de48" x="58.309367" y="307.584" style="stroke: #000000; stroke-width: 0.8"/>
      </g>
     </g>
     <g id="text_1">
      <!-- 2008 -->
      <g transform="translate(45.584367 322.182437)scale(0.1 -0.1)">
       <defs>
        <path id="DejaVuSans-32" d="M 1228 531 
L 3431 531 
L 3431 0 
L 469 0 
L 469 531 
Q 828 903 1448 1529 
Q 2069 2156 2228 2338 
Q 2531 2678 2651 2914 
Q 2772 3150 2772 3378 
Q 2772 3750 2511 3984 
Q 2250 4219 1831 4219 
Q 1534 4219 1204 4116 
Q 875 4013 500 3803 
L 500 4441 
Q 881 4594 1212 4672 
Q 1544 4750 1819 4750 
Q 2544 4750 2975 4387 
Q 3406 4025 3406 3419 
Q 3406 3131 3298 2873 
Q 3191 2616 2906 2266 
Q 2828 2175 2409 1742 
Q 1991 1309 1228 531 
z
" transform="scale(0.015625)"/>
        <path id="DejaVuSans-30" d="M 2034 4250 
Q 1547 4250 1301 3770 
Q 1056 3291 1056 2328 
Q 1056 1369 1301 889 
Q 1547 409 2034 409 
Q 2525 409 2770 889 
Q 3016 1369 3016 2328 
Q 3016 3291 2770 3770 
Q 2525 4250 2034 4250 
z
M 2034 4750 
Q 2819 4750 3233 4129 
Q 3647 3509 3647 2328 
Q 3647 1150 3233 529 
Q 2819 -91 2034 -91 
Q 1250 -91 836 529 
Q 422 1150 422 2328 
Q 422 3509 836 4129 
Q 1250 4750 2034 4750 
z
" transform="scale(0.015625)"/>
        <path id="DejaVuSans-38" d="M 2034 2216 
Q 1584 2216 1326 1975 
Q 1069 1734 1069 1313 
Q 1069 891 1326 650 
Q 1584 409 2034 409 
Q 2484 409 2743 651 
Q 3003 894 3003 1313 
Q 3003 1734 2745 1975 
Q 2488 2216 2034 2216 
z
M 1403 2484 
Q 997 2584 770 2862 
Q 544 3141 544 3541 
Q 544 4100 942 4425 
Q 1341 4750 2034 4750 
Q 2731 4750 3128 4425 
Q 3525 4100 3525 3541 
Q 3525 3141 3298 2862 
Q 3072 2584 2669 2484 
Q 3125 2378 3379 2068 
Q 3634 1759 3634 1313 
Q 3634 634 3220 271 
Q 2806 -91 2034 -91 
Q 1263 -91 848 271 
Q 434 634 434 1313 
Q 434 1759 690 2068 
Q 947 2378 1403 2484 
z
M 1172 3481 
Q 1172 3119 1398 2916 
Q 1625 2713 2034 2713 
Q 2441 2713 2670 2916 
Q 2900 3119 2900 3481 
Q 2900 3844 2670 4047 
Q 2441 4250 2034 4250 
Q 1625 4250 1398 4047 
Q 1172 3844 1172 3481 
z
" transform="scale(0.015625)"/>
       </defs>
       <use xlink:href="#DejaVuSans-32"/>
       <use xlink:href="#DejaVuSans-30" x="63.623047"/>
       <use xlink:href="#DejaVuSans-30" x="127.246094"/>
       <use xlink:href="#DejaVuSans-38" x="190.869141"/>
      </g>
     </g>
    </g>
    <g id="xtick_2">
     <g id="line2d_2">
      <g>
       <use xlink:href="#m868170de48" x="104.815828" y="307.584" style="stroke: #000000; stroke-width: 0.8"/>
      </g>
     </g>
     <g id="text_2">
      <!-- 2010 -->
      <g transform="translate(92.090828 322.182437)scale(0.1 -0.1)">
       <defs>
        <path id="DejaVuSans-31" d="M 794 531 
L 1825 531 
L 1825 4091 
L 703 3866 
L 703 4441 
L 1819 4666 
L 2450 4666 
L 2450 531 
L 3481 531 
L 3481 0 
L 794 0 
L 794 531 
z
" transform="scale(0.015625)"/>
       </defs>
       <use xlink:href="#DejaVuSans-32"/>
       <use xlink:href="#DejaVuSans-30" x="63.623047"/>
       <use xlink:href="#DejaVuSans-31" x="127.246094"/>
       <use xlink:href="#DejaVuSans-30" x="190.869141"/>
      </g>
     </g>
    </g>
    <g id="xtick_3">
     <g id="line2d_3">
      <g>
       <use xlink:href="#m868170de48" x="151.258669" y="307.584" style="stroke: #000000; stroke-width: 0.8"/>
      </g>
     </g>
     <g id="text_3">
      <!-- 2012 -->
      <g transform="translate(138.533669 322.182437)scale(0.1 -0.1)">
       <use xlink:href="#DejaVuSans-32"/>
       <use xlink:href="#DejaVuSans-30" x="63.623047"/>
       <use xlink:href="#DejaVuSans-31" x="127.246094"/>
       <use xlink:href="#DejaVuSans-32" x="190.869141"/>
      </g>
     </g>
    </g>
    <g id="xtick_4">
     <g id="line2d_4">
      <g>
       <use xlink:href="#m868170de48" x="197.765131" y="307.584" style="stroke: #000000; stroke-width: 0.8"/>
      </g>
     </g>
     <g id="text_4">
      <!-- 2014 -->
      <g transform="translate(185.040131 322.182437)scale(0.1 -0.1)">
       <defs>
        <path id="DejaVuSans-34" d="M 2419 4116 
L 825 1625 
L 2419 1625 
L 2419 4116 
z
M 2253 4666 
L 3047 4666 
L 3047 1625 
L 3713 1625 
L 3713 1100 
L 3047 1100 
L 3047 0 
L 2419 0 
L 2419 1100 
L 313 1100 
L 313 1709 
L 2253 4666 
z
" transform="scale(0.015625)"/>
       </defs>
       <use xlink:href="#DejaVuSans-32"/>
       <use xlink:href="#DejaVuSans-30" x="63.623047"/>
       <use xlink:href="#DejaVuSans-31" x="127.246094"/>
       <use xlink:href="#DejaVuSans-34" x="190.869141"/>
      </g>
     </g>
    </g>
    <g id="xtick_5">
     <g id="line2d_5">
      <g>
       <use xlink:href="#m868170de48" x="244.207972" y="307.584" style="stroke: #000000; stroke-width: 0.8"/>
      </g>
     </g>
     <g id="text_5">
      <!-- 2016 -->
      <g transform="translate(231.482972 322.182437)scale(0.1 -0.1)">
       <defs>
        <path id="DejaVuSans-36" d="M 2113 2584 
Q 1688 2584 1439 2293 
Q 1191 2003 1191 1497 
Q 1191 994 1439 701 
Q 1688 409 2113 409 
Q 2538 409 2786 701 
Q 3034 994 3034 1497 
Q 3034 2003 2786 2293 
Q 2538 2584 2113 2584 
z
M 3366 4563 
L 3366 3988 
Q 3128 4100 2886 4159 
Q 2644 4219 2406 4219 
Q 1781 4219 1451 3797 
Q 1122 3375 1075 2522 
Q 1259 2794 1537 2939 
Q 1816 3084 2150 3084 
Q 2853 3084 3261 2657 
Q 3669 2231 3669 1497 
Q 3669 778 3244 343 
Q 2819 -91 2113 -91 
Q 1303 -91 875 529 
Q 447 1150 447 2328 
Q 447 3434 972 4092 
Q 1497 4750 2381 4750 
Q 2619 4750 2861 4703 
Q 3103 4656 3366 4563 
z
" transform="scale(0.015625)"/>
       </defs>
       <use xlink:href="#DejaVuSans-32"/>
       <use xlink:href="#DejaVuSans-30" x="63.623047"/>
       <use xlink:href="#DejaVuSans-31" x="127.246094"/>
       <use xlink:href="#DejaVuSans-36" x="190.869141"/>
      </g>
     </g>
    </g>
    <g id="xtick_6">
     <g id="line2d_6">
      <g>
       <use xlink:href="#m868170de48" x="290.714433" y="307.584" style="stroke: #000000; stroke-width: 0.8"/>
      </g>
     </g>
     <g id="text_6">
      <!-- 2018 -->
      <g transform="translate(277.989433 322.182437)scale(0.1 -0.1)">
       <use xlink:href="#DejaVuSans-32"/>
       <use xlink:href="#DejaVuSans-30" x="63.623047"/>
       <use xlink:href="#DejaVuSans-31" x="127.246094"/>
       <use xlink:href="#DejaVuSans-38" x="190.869141"/>
      </g>
     </g>
    </g>
    <g id="xtick_7">
     <g id="line2d_7">
      <g>
       <use xlink:href="#m868170de48" x="337.157274" y="307.584" style="stroke: #000000; stroke-width: 0.8"/>
      </g>
     </g>
     <g id="text_7">
      <!-- 2020 -->
      <g transform="translate(324.432274 322.182437)scale(0.1 -0.1)">
       <use xlink:href="#DejaVuSans-32"/>
       <use xlink:href="#DejaVuSans-30" x="63.623047"/>
       <use xlink:href="#DejaVuSans-32" x="127.246094"/>
       <use xlink:href="#DejaVuSans-30" x="190.869141"/>
      </g>
     </g>
    </g>
    <g id="xtick_8">
     <g id="line2d_8">
      <g>
       <use xlink:href="#m868170de48" x="383.663736" y="307.584" style="stroke: #000000; stroke-width: 0.8"/>
      </g>
     </g>
     <g id="text_8">
      <!-- 2022 -->
      <g transform="translate(370.938736 322.182437)scale(0.1 -0.1)">
       <use xlink:href="#DejaVuSans-32"/>
       <use xlink:href="#DejaVuSans-30" x="63.623047"/>
       <use xlink:href="#DejaVuSans-32" x="127.246094"/>
       <use xlink:href="#DejaVuSans-32" x="190.869141"/>
      </g>
     </g>
    </g>
    <g id="text_9">
     <!-- Updated 2022-08-29 06:30:11.894426 - Last record 2022-08-27 -->
     <g transform="translate(75.905312 335.860562)scale(0.1 -0.1)">
      <defs>
       <path id="DejaVuSans-55" d="M 556 4666 
L 1191 4666 
L 1191 1831 
Q 1191 1081 1462 751 
Q 1734 422 2344 422 
Q 2950 422 3222 751 
Q 3494 1081 3494 1831 
L 3494 4666 
L 4128 4666 
L 4128 1753 
Q 4128 841 3676 375 
Q 3225 -91 2344 -91 
Q 1459 -91 1007 375 
Q 556 841 556 1753 
L 556 4666 
z
" transform="scale(0.015625)"/>
       <path id="DejaVuSans-70" d="M 1159 525 
L 1159 -1331 
L 581 -1331 
L 581 3500 
L 1159 3500 
L 1159 2969 
Q 1341 3281 1617 3432 
Q 1894 3584 2278 3584 
Q 2916 3584 3314 3078 
Q 3713 2572 3713 1747 
Q 3713 922 3314 415 
Q 2916 -91 2278 -91 
Q 1894 -91 1617 61 
Q 1341 213 1159 525 
z
M 3116 1747 
Q 3116 2381 2855 2742 
Q 2594 3103 2138 3103 
Q 1681 3103 1420 2742 
Q 1159 2381 1159 1747 
Q 1159 1113 1420 752 
Q 1681 391 2138 391 
Q 2594 391 2855 752 
Q 3116 1113 3116 1747 
z
" transform="scale(0.015625)"/>
       <path id="DejaVuSans-64" d="M 2906 2969 
L 2906 4863 
L 3481 4863 
L 3481 0 
L 2906 0 
L 2906 525 
Q 2725 213 2448 61 
Q 2172 -91 1784 -91 
Q 1150 -91 751 415 
Q 353 922 353 1747 
Q 353 2572 751 3078 
Q 1150 3584 1784 3584 
Q 2172 3584 2448 3432 
Q 2725 3281 2906 2969 
z
M 947 1747 
Q 947 1113 1208 752 
Q 1469 391 1925 391 
Q 2381 391 2643 752 
Q 2906 1113 2906 1747 
Q 2906 2381 2643 2742 
Q 2381 3103 1925 3103 
Q 1469 3103 1208 2742 
Q 947 2381 947 1747 
z
" transform="scale(0.015625)"/>
       <path id="DejaVuSans-61" d="M 2194 1759 
Q 1497 1759 1228 1600 
Q 959 1441 959 1056 
Q 959 750 1161 570 
Q 1363 391 1709 391 
Q 2188 391 2477 730 
Q 2766 1069 2766 1631 
L 2766 1759 
L 2194 1759 
z
M 3341 1997 
L 3341 0 
L 2766 0 
L 2766 531 
Q 2569 213 2275 61 
Q 1981 -91 1556 -91 
Q 1019 -91 701 211 
Q 384 513 384 1019 
Q 384 1609 779 1909 
Q 1175 2209 1959 2209 
L 2766 2209 
L 2766 2266 
Q 2766 2663 2505 2880 
Q 2244 3097 1772 3097 
Q 1472 3097 1187 3025 
Q 903 2953 641 2809 
L 641 3341 
Q 956 3463 1253 3523 
Q 1550 3584 1831 3584 
Q 2591 3584 2966 3190 
Q 3341 2797 3341 1997 
z
" transform="scale(0.015625)"/>
       <path id="DejaVuSans-74" d="M 1172 4494 
L 1172 3500 
L 2356 3500 
L 2356 3053 
L 1172 3053 
L 1172 1153 
Q 1172 725 1289 603 
Q 1406 481 1766 481 
L 2356 481 
L 2356 0 
L 1766 0 
Q 1100 0 847 248 
Q 594 497 594 1153 
L 594 3053 
L 172 3053 
L 172 3500 
L 594 3500 
L 594 4494 
L 1172 4494 
z
" transform="scale(0.015625)"/>
       <path id="DejaVuSans-65" d="M 3597 1894 
L 3597 1613 
L 953 1613 
Q 991 1019 1311 708 
Q 1631 397 2203 397 
Q 2534 397 2845 478 
Q 3156 559 3463 722 
L 3463 178 
Q 3153 47 2828 -22 
Q 2503 -91 2169 -91 
Q 1331 -91 842 396 
Q 353 884 353 1716 
Q 353 2575 817 3079 
Q 1281 3584 2069 3584 
Q 2775 3584 3186 3129 
Q 3597 2675 3597 1894 
z
M 3022 2063 
Q 3016 2534 2758 2815 
Q 2500 3097 2075 3097 
Q 1594 3097 1305 2825 
Q 1016 2553 972 2059 
L 3022 2063 
z
" transform="scale(0.015625)"/>
       <path id="DejaVuSans-20" transform="scale(0.015625)"/>
       <path id="DejaVuSans-2d" d="M 313 2009 
L 1997 2009 
L 1997 1497 
L 313 1497 
L 313 2009 
z
" transform="scale(0.015625)"/>
       <path id="DejaVuSans-39" d="M 703 97 
L 703 672 
Q 941 559 1184 500 
Q 1428 441 1663 441 
Q 2288 441 2617 861 
Q 2947 1281 2994 2138 
Q 2813 1869 2534 1725 
Q 2256 1581 1919 1581 
Q 1219 1581 811 2004 
Q 403 2428 403 3163 
Q 403 3881 828 4315 
Q 1253 4750 1959 4750 
Q 2769 4750 3195 4129 
Q 3622 3509 3622 2328 
Q 3622 1225 3098 567 
Q 2575 -91 1691 -91 
Q 1453 -91 1209 -44 
Q 966 3 703 97 
z
M 1959 2075 
Q 2384 2075 2632 2365 
Q 2881 2656 2881 3163 
Q 2881 3666 2632 3958 
Q 2384 4250 1959 4250 
Q 1534 4250 1286 3958 
Q 1038 3666 1038 3163 
Q 1038 2656 1286 2365 
Q 1534 2075 1959 2075 
z
" transform="scale(0.015625)"/>
       <path id="DejaVuSans-3a" d="M 750 794 
L 1409 794 
L 1409 0 
L 750 0 
L 750 794 
z
M 750 3309 
L 1409 3309 
L 1409 2516 
L 750 2516 
L 750 3309 
z
" transform="scale(0.015625)"/>
       <path id="DejaVuSans-33" d="M 2597 2516 
Q 3050 2419 3304 2112 
Q 3559 1806 3559 1356 
Q 3559 666 3084 287 
Q 2609 -91 1734 -91 
Q 1441 -91 1130 -33 
Q 819 25 488 141 
L 488 750 
Q 750 597 1062 519 
Q 1375 441 1716 441 
Q 2309 441 2620 675 
Q 2931 909 2931 1356 
Q 2931 1769 2642 2001 
Q 2353 2234 1838 2234 
L 1294 2234 
L 1294 2753 
L 1863 2753 
Q 2328 2753 2575 2939 
Q 2822 3125 2822 3475 
Q 2822 3834 2567 4026 
Q 2313 4219 1838 4219 
Q 1578 4219 1281 4162 
Q 984 4106 628 3988 
L 628 4550 
Q 988 4650 1302 4700 
Q 1616 4750 1894 4750 
Q 2613 4750 3031 4423 
Q 3450 4097 3450 3541 
Q 3450 3153 3228 2886 
Q 3006 2619 2597 2516 
z
" transform="scale(0.015625)"/>
       <path id="DejaVuSans-2e" d="M 684 794 
L 1344 794 
L 1344 0 
L 684 0 
L 684 794 
z
" transform="scale(0.015625)"/>
       <path id="DejaVuSans-4c" d="M 628 4666 
L 1259 4666 
L 1259 531 
L 3531 531 
L 3531 0 
L 628 0 
L 628 4666 
z
" transform="scale(0.015625)"/>
       <path id="DejaVuSans-73" d="M 2834 3397 
L 2834 2853 
Q 2591 2978 2328 3040 
Q 2066 3103 1784 3103 
Q 1356 3103 1142 2972 
Q 928 2841 928 2578 
Q 928 2378 1081 2264 
Q 1234 2150 1697 2047 
L 1894 2003 
Q 2506 1872 2764 1633 
Q 3022 1394 3022 966 
Q 3022 478 2636 193 
Q 2250 -91 1575 -91 
Q 1294 -91 989 -36 
Q 684 19 347 128 
L 347 722 
Q 666 556 975 473 
Q 1284 391 1588 391 
Q 1994 391 2212 530 
Q 2431 669 2431 922 
Q 2431 1156 2273 1281 
Q 2116 1406 1581 1522 
L 1381 1569 
Q 847 1681 609 1914 
Q 372 2147 372 2553 
Q 372 3047 722 3315 
Q 1072 3584 1716 3584 
Q 2034 3584 2315 3537 
Q 2597 3491 2834 3397 
z
" transform="scale(0.015625)"/>
       <path id="DejaVuSans-72" d="M 2631 2963 
Q 2534 3019 2420 3045 
Q 2306 3072 2169 3072 
Q 1681 3072 1420 2755 
Q 1159 2438 1159 1844 
L 1159 0 
L 581 0 
L 581 3500 
L 1159 3500 
L 1159 2956 
Q 1341 3275 1631 3429 
Q 1922 3584 2338 3584 
Q 2397 3584 2469 3576 
Q 2541 3569 2628 3553 
L 2631 2963 
z
" transform="scale(0.015625)"/>
       <path id="DejaVuSans-63" d="M 3122 3366 
L 3122 2828 
Q 2878 2963 2633 3030 
Q 2388 3097 2138 3097 
Q 1578 3097 1268 2742 
Q 959 2388 959 1747 
Q 959 1106 1268 751 
Q 1578 397 2138 397 
Q 2388 397 2633 464 
Q 2878 531 3122 666 
L 3122 134 
Q 2881 22 2623 -34 
Q 2366 -91 2075 -91 
Q 1284 -91 818 406 
Q 353 903 353 1747 
Q 353 2603 823 3093 
Q 1294 3584 2113 3584 
Q 2378 3584 2631 3529 
Q 2884 3475 3122 3366 
z
" transform="scale(0.015625)"/>
       <path id="DejaVuSans-6f" d="M 1959 3097 
Q 1497 3097 1228 2736 
Q 959 2375 959 1747 
Q 959 1119 1226 758 
Q 1494 397 1959 397 
Q 2419 397 2687 759 
Q 2956 1122 2956 1747 
Q 2956 2369 2687 2733 
Q 2419 3097 1959 3097 
z
M 1959 3584 
Q 2709 3584 3137 3096 
Q 3566 2609 3566 1747 
Q 3566 888 3137 398 
Q 2709 -91 1959 -91 
Q 1206 -91 779 398 
Q 353 888 353 1747 
Q 353 2609 779 3096 
Q 1206 3584 1959 3584 
z
" transform="scale(0.015625)"/>
       <path id="DejaVuSans-37" d="M 525 4666 
L 3525 4666 
L 3525 4397 
L 1831 0 
L 1172 0 
L 2766 4134 
L 525 4134 
L 525 4666 
z
" transform="scale(0.015625)"/>
      </defs>
      <use xlink:href="#DejaVuSans-55"/>
      <use xlink:href="#DejaVuSans-70" x="73.193359"/>
      <use xlink:href="#DejaVuSans-64" x="136.669922"/>
      <use xlink:href="#DejaVuSans-61" x="200.146484"/>
      <use xlink:href="#DejaVuSans-74" x="261.425781"/>
      <use xlink:href="#DejaVuSans-65" x="300.634766"/>
      <use xlink:href="#DejaVuSans-64" x="362.158203"/>
      <use xlink:href="#DejaVuSans-20" x="425.634766"/>
      <use xlink:href="#DejaVuSans-32" x="457.421875"/>
      <use xlink:href="#DejaVuSans-30" x="521.044922"/>
      <use xlink:href="#DejaVuSans-32" x="584.667969"/>
      <use xlink:href="#DejaVuSans-32" x="648.291016"/>
      <use xlink:href="#DejaVuSans-2d" x="711.914062"/>
      <use xlink:href="#DejaVuSans-30" x="747.998047"/>
      <use xlink:href="#DejaVuSans-38" x="811.621094"/>
      <use xlink:href="#DejaVuSans-2d" x="875.244141"/>
      <use xlink:href="#DejaVuSans-32" x="911.328125"/>
      <use xlink:href="#DejaVuSans-39" x="974.951172"/>
      <use xlink:href="#DejaVuSans-20" x="1038.574219"/>
      <use xlink:href="#DejaVuSans-30" x="1070.361328"/>
      <use xlink:href="#DejaVuSans-36" x="1133.984375"/>
      <use xlink:href="#DejaVuSans-3a" x="1197.607422"/>
      <use xlink:href="#DejaVuSans-33" x="1231.298828"/>
      <use xlink:href="#DejaVuSans-30" x="1294.921875"/>
      <use xlink:href="#DejaVuSans-3a" x="1358.544922"/>
      <use xlink:href="#DejaVuSans-31" x="1392.236328"/>
      <use xlink:href="#DejaVuSans-31" x="1455.859375"/>
      <use xlink:href="#DejaVuSans-2e" x="1519.482422"/>
      <use xlink:href="#DejaVuSans-38" x="1551.269531"/>
      <use xlink:href="#DejaVuSans-39" x="1614.892578"/>
      <use xlink:href="#DejaVuSans-34" x="1678.515625"/>
      <use xlink:href="#DejaVuSans-34" x="1742.138672"/>
      <use xlink:href="#DejaVuSans-32" x="1805.761719"/>
      <use xlink:href="#DejaVuSans-36" x="1869.384766"/>
      <use xlink:href="#DejaVuSans-20" x="1933.007812"/>
      <use xlink:href="#DejaVuSans-2d" x="1964.794922"/>
      <use xlink:href="#DejaVuSans-20" x="2000.878906"/>
      <use xlink:href="#DejaVuSans-4c" x="2032.666016"/>
      <use xlink:href="#DejaVuSans-61" x="2088.378906"/>
      <use xlink:href="#DejaVuSans-73" x="2149.658203"/>
      <use xlink:href="#DejaVuSans-74" x="2201.757812"/>
      <use xlink:href="#DejaVuSans-20" x="2240.966797"/>
      <use xlink:href="#DejaVuSans-72" x="2272.753906"/>
      <use xlink:href="#DejaVuSans-65" x="2311.617188"/>
      <use xlink:href="#DejaVuSans-63" x="2373.140625"/>
      <use xlink:href="#DejaVuSans-6f" x="2428.121094"/>
      <use xlink:href="#DejaVuSans-72" x="2489.302734"/>
      <use xlink:href="#DejaVuSans-64" x="2528.666016"/>
      <use xlink:href="#DejaVuSans-20" x="2592.142578"/>
      <use xlink:href="#DejaVuSans-32" x="2623.929688"/>
      <use xlink:href="#DejaVuSans-30" x="2687.552734"/>
      <use xlink:href="#DejaVuSans-32" x="2751.175781"/>
      <use xlink:href="#DejaVuSans-32" x="2814.798828"/>
      <use xlink:href="#DejaVuSans-2d" x="2878.421875"/>
      <use xlink:href="#DejaVuSans-30" x="2914.505859"/>
      <use xlink:href="#DejaVuSans-38" x="2978.128906"/>
      <use xlink:href="#DejaVuSans-2d" x="3041.751953"/>
      <use xlink:href="#DejaVuSans-32" x="3077.835938"/>
      <use xlink:href="#DejaVuSans-37" x="3141.458984"/>
     </g>
    </g>
   </g>
   <g id="matplotlib.axis_2">
    <g id="ytick_1">
     <g id="line2d_9">
      <defs>
       <path id="m9e24d175e7" d="M 0 0 
L -3.5 0 
" style="stroke: #000000; stroke-width: 0.8"/>
      </defs>
      <g>
       <use xlink:href="#m9e24d175e7" x="57.6" y="295.567803" style="stroke: #000000; stroke-width: 0.8"/>
      </g>
     </g>
     <g id="text_10">
      <!-- 0 -->
      <g transform="translate(44.2375 299.367021)scale(0.1 -0.1)">
       <use xlink:href="#DejaVuSans-30"/>
      </g>
     </g>
    </g>
    <g id="ytick_2">
     <g id="line2d_10">
      <g>
       <use xlink:href="#m9e24d175e7" x="57.6" y="238.155879" style="stroke: #000000; stroke-width: 0.8"/>
      </g>
     </g>
     <g id="text_11">
      <!-- 10 -->
      <g transform="translate(37.875 241.955097)scale(0.1 -0.1)">
       <use xlink:href="#DejaVuSans-31"/>
       <use xlink:href="#DejaVuSans-30" x="63.623047"/>
      </g>
     </g>
    </g>
    <g id="ytick_3">
     <g id="line2d_11">
      <g>
       <use xlink:href="#m9e24d175e7" x="57.6" y="180.743955" style="stroke: #000000; stroke-width: 0.8"/>
      </g>
     </g>
     <g id="text_12">
      <!-- 20 -->
      <g transform="translate(37.875 184.543173)scale(0.1 -0.1)">
       <use xlink:href="#DejaVuSans-32"/>
       <use xlink:href="#DejaVuSans-30" x="63.623047"/>
      </g>
     </g>
    </g>
    <g id="ytick_4">
     <g id="line2d_12">
      <g>
       <use xlink:href="#m9e24d175e7" x="57.6" y="123.332031" style="stroke: #000000; stroke-width: 0.8"/>
      </g>
     </g>
     <g id="text_13">
      <!-- 30 -->
      <g transform="translate(37.875 127.131249)scale(0.1 -0.1)">
       <use xlink:href="#DejaVuSans-33"/>
       <use xlink:href="#DejaVuSans-30" x="63.623047"/>
      </g>
     </g>
    </g>
    <g id="ytick_5">
     <g id="line2d_13">
      <g>
       <use xlink:href="#m9e24d175e7" x="57.6" y="65.920107" style="stroke: #000000; stroke-width: 0.8"/>
      </g>
     </g>
     <g id="text_14">
      <!-- 40 -->
      <g transform="translate(37.875 69.719325)scale(0.1 -0.1)">
       <use xlink:href="#DejaVuSans-34"/>
       <use xlink:href="#DejaVuSans-30" x="63.623047"/>
      </g>
     </g>
    </g>
    <g id="text_15">
     <!-- IPv6 as % of total Google traffic -->
     <g transform="translate(31.795312 253.735813)rotate(-90)scale(0.1 -0.1)">
      <defs>
       <path id="DejaVuSans-49" d="M 628 4666 
L 1259 4666 
L 1259 0 
L 628 0 
L 628 4666 
z
" transform="scale(0.015625)"/>
       <path id="DejaVuSans-50" d="M 1259 4147 
L 1259 2394 
L 2053 2394 
Q 2494 2394 2734 2622 
Q 2975 2850 2975 3272 
Q 2975 3691 2734 3919 
Q 2494 4147 2053 4147 
L 1259 4147 
z
M 628 4666 
L 2053 4666 
Q 2838 4666 3239 4311 
Q 3641 3956 3641 3272 
Q 3641 2581 3239 2228 
Q 2838 1875 2053 1875 
L 1259 1875 
L 1259 0 
L 628 0 
L 628 4666 
z
" transform="scale(0.015625)"/>
       <path id="DejaVuSans-76" d="M 191 3500 
L 800 3500 
L 1894 563 
L 2988 3500 
L 3597 3500 
L 2284 0 
L 1503 0 
L 191 3500 
z
" transform="scale(0.015625)"/>
       <path id="DejaVuSans-25" d="M 4653 2053 
Q 4381 2053 4226 1822 
Q 4072 1591 4072 1178 
Q 4072 772 4226 539 
Q 4381 306 4653 306 
Q 4919 306 5073 539 
Q 5228 772 5228 1178 
Q 5228 1588 5073 1820 
Q 4919 2053 4653 2053 
z
M 4653 2450 
Q 5147 2450 5437 2106 
Q 5728 1763 5728 1178 
Q 5728 594 5436 251 
Q 5144 -91 4653 -91 
Q 4153 -91 3862 251 
Q 3572 594 3572 1178 
Q 3572 1766 3864 2108 
Q 4156 2450 4653 2450 
z
M 1428 4353 
Q 1159 4353 1004 4120 
Q 850 3888 850 3481 
Q 850 3069 1003 2837 
Q 1156 2606 1428 2606 
Q 1700 2606 1854 2837 
Q 2009 3069 2009 3481 
Q 2009 3884 1853 4118 
Q 1697 4353 1428 4353 
z
M 4250 4750 
L 4750 4750 
L 1831 -91 
L 1331 -91 
L 4250 4750 
z
M 1428 4750 
Q 1922 4750 2215 4408 
Q 2509 4066 2509 3481 
Q 2509 2891 2217 2550 
Q 1925 2209 1428 2209 
Q 931 2209 642 2551 
Q 353 2894 353 3481 
Q 353 4063 643 4406 
Q 934 4750 1428 4750 
z
" transform="scale(0.015625)"/>
       <path id="DejaVuSans-66" d="M 2375 4863 
L 2375 4384 
L 1825 4384 
Q 1516 4384 1395 4259 
Q 1275 4134 1275 3809 
L 1275 3500 
L 2222 3500 
L 2222 3053 
L 1275 3053 
L 1275 0 
L 697 0 
L 697 3053 
L 147 3053 
L 147 3500 
L 697 3500 
L 697 3744 
Q 697 4328 969 4595 
Q 1241 4863 1831 4863 
L 2375 4863 
z
" transform="scale(0.015625)"/>
       <path id="DejaVuSans-6c" d="M 603 4863 
L 1178 4863 
L 1178 0 
L 603 0 
L 603 4863 
z
" transform="scale(0.015625)"/>
       <path id="DejaVuSans-47" d="M 3809 666 
L 3809 1919 
L 2778 1919 
L 2778 2438 
L 4434 2438 
L 4434 434 
Q 4069 175 3628 42 
Q 3188 -91 2688 -91 
Q 1594 -91 976 548 
Q 359 1188 359 2328 
Q 359 3472 976 4111 
Q 1594 4750 2688 4750 
Q 3144 4750 3555 4637 
Q 3966 4525 4313 4306 
L 4313 3634 
Q 3963 3931 3569 4081 
Q 3175 4231 2741 4231 
Q 1884 4231 1454 3753 
Q 1025 3275 1025 2328 
Q 1025 1384 1454 906 
Q 1884 428 2741 428 
Q 3075 428 3337 486 
Q 3600 544 3809 666 
z
" transform="scale(0.015625)"/>
       <path id="DejaVuSans-67" d="M 2906 1791 
Q 2906 2416 2648 2759 
Q 2391 3103 1925 3103 
Q 1463 3103 1205 2759 
Q 947 2416 947 1791 
Q 947 1169 1205 825 
Q 1463 481 1925 481 
Q 2391 481 2648 825 
Q 2906 1169 2906 1791 
z
M 3481 434 
Q 3481 -459 3084 -895 
Q 2688 -1331 1869 -1331 
Q 1566 -1331 1297 -1286 
Q 1028 -1241 775 -1147 
L 775 -588 
Q 1028 -725 1275 -790 
Q 1522 -856 1778 -856 
Q 2344 -856 2625 -561 
Q 2906 -266 2906 331 
L 2906 616 
Q 2728 306 2450 153 
Q 2172 0 1784 0 
Q 1141 0 747 490 
Q 353 981 353 1791 
Q 353 2603 747 3093 
Q 1141 3584 1784 3584 
Q 2172 3584 2450 3431 
Q 2728 3278 2906 2969 
L 2906 3500 
L 3481 3500 
L 3481 434 
z
" transform="scale(0.015625)"/>
       <path id="DejaVuSans-69" d="M 603 3500 
L 1178 3500 
L 1178 0 
L 603 0 
L 603 3500 
z
M 603 4863 
L 1178 4863 
L 1178 4134 
L 603 4134 
L 603 4863 
z
" transform="scale(0.015625)"/>
      </defs>
      <use xlink:href="#DejaVuSans-49"/>
      <use xlink:href="#DejaVuSans-50" x="29.492188"/>
      <use xlink:href="#DejaVuSans-76" x="89.794922"/>
      <use xlink:href="#DejaVuSans-36" x="148.974609"/>
      <use xlink:href="#DejaVuSans-20" x="212.597656"/>
      <use xlink:href="#DejaVuSans-61" x="244.384766"/>
      <use xlink:href="#DejaVuSans-73" x="305.664062"/>
      <use xlink:href="#DejaVuSans-20" x="357.763672"/>
      <use xlink:href="#DejaVuSans-25" x="389.550781"/>
      <use xlink:href="#DejaVuSans-20" x="484.570312"/>
      <use xlink:href="#DejaVuSans-6f" x="516.357422"/>
      <use xlink:href="#DejaVuSans-66" x="577.539062"/>
      <use xlink:href="#DejaVuSans-20" x="612.744141"/>
      <use xlink:href="#DejaVuSans-74" x="644.53125"/>
      <use xlink:href="#DejaVuSans-6f" x="683.740234"/>
      <use xlink:href="#DejaVuSans-74" x="744.921875"/>
      <use xlink:href="#DejaVuSans-61" x="784.130859"/>
      <use xlink:href="#DejaVuSans-6c" x="845.410156"/>
      <use xlink:href="#DejaVuSans-20" x="873.193359"/>
      <use xlink:href="#DejaVuSans-47" x="904.980469"/>
      <use xlink:href="#DejaVuSans-6f" x="982.470703"/>
      <use xlink:href="#DejaVuSans-6f" x="1043.652344"/>
      <use xlink:href="#DejaVuSans-67" x="1104.833984"/>
      <use xlink:href="#DejaVuSans-6c" x="1168.310547"/>
      <use xlink:href="#DejaVuSans-65" x="1196.09375"/>
      <use xlink:href="#DejaVuSans-20" x="1257.617188"/>
      <use xlink:href="#DejaVuSans-74" x="1289.404297"/>
      <use xlink:href="#DejaVuSans-72" x="1328.613281"/>
      <use xlink:href="#DejaVuSans-61" x="1369.726562"/>
      <use xlink:href="#DejaVuSans-66" x="1431.005859"/>
      <use xlink:href="#DejaVuSans-66" x="1466.210938"/>
      <use xlink:href="#DejaVuSans-69" x="1501.416016"/>
      <use xlink:href="#DejaVuSans-63" x="1529.199219"/>
     </g>
    </g>
   </g>
   <g id="line2d_14">
    <path d="M 73.832727 294.521798 
L 75.614097 294.344515 
L 76.059439 294.513329 
L 77.840808 294.512589 
L 79.622177 294.358707 
L 80.06752 294.22263 
L 81.403547 294.245204 
L 82.739574 294.21241 
L 83.184916 294.289027 
L 84.966285 294.13247 
L 86.747654 294.193568 
L 88.083681 294.143591 
L 89.419708 294.148454 
L 90.755735 294.199142 
L 92.091762 294.182792 
L 92.537104 294.293241 
L 94.763816 294.266406 
L 96.099843 294.213691 
L 97.881212 294.110642 
L 98.771897 294.120052 
L 99.217239 293.840548 
L 101.889293 293.74467 
L 102.779978 293.70788 
L 104.561347 293.850761 
L 105.897374 293.799923 
L 107.233401 293.85106 
L 109.460112 293.815889 
L 110.796139 294.019506 
L 111.686824 293.992442 
L 112.577508 293.948608 
L 113.468193 294.146565 
L 115.694905 294.164655 
L 117.030932 294.288986 
L 119.257643 294.195836 
L 120.148328 294.083015 
L 120.59367 293.99002 
L 121.484355 293.985438 
L 124.601751 293.917864 
L 125.492435 294.015241 
L 125.937778 293.878078 
L 128.609832 294.132493 
L 131.727228 293.953104 
L 132.617912 293.955343 
L 133.063255 293.824788 
L 133.953939 293.933991 
L 134.844624 293.731293 
L 135.289966 293.781683 
L 135.735309 293.657243 
L 136.180651 293.711727 
L 137.071336 293.595933 
L 137.96202 293.550629 
L 138.407363 293.57945 
L 138.852705 293.722319 
L 140.634074 293.75459 
L 141.079416 293.82151 
L 141.970101 293.729358 
L 142.415443 293.540852 
L 143.75147 293.378456 
L 145.087497 293.510567 
L 145.53284 293.36683 
L 146.423524 293.513271 
L 149.54092 292.990874 
L 150.431605 293.149429 
L 153.103659 292.735822 
L 155.33037 292.587458 
L 155.775713 292.367897 
L 156.221055 292.452505 
L 156.666397 292.258149 
L 157.557082 292.213901 
L 158.002424 292.227858 
L 159.338451 291.855835 
L 161.11982 291.26235 
L 161.565163 291.339546 
L 162.90119 291.206822 
L 163.346532 291.315238 
L 165.127901 291.100655 
L 166.463928 290.611632 
L 166.90927 290.504536 
L 167.354613 290.565496 
L 167.799955 290.203789 
L 168.245297 290.029309 
L 170.026667 289.818928 
L 170.472009 289.988586 
L 170.917351 289.823625 
L 171.808036 289.732857 
L 172.253378 289.46902 
L 173.144063 289.292972 
L 174.925432 289.274635 
L 175.816117 289.049735 
L 177.152144 288.884021 
L 177.597486 288.667354 
L 178.042828 288.646456 
L 178.488171 288.75849 
L 180.26954 287.948494 
L 180.714882 287.967049 
L 182.496251 287.457714 
L 182.941594 287.116377 
L 183.386936 287.038061 
L 183.832278 286.826826 
L 184.277621 286.861227 
L 185.613648 286.342516 
L 186.05899 286.434237 
L 186.504332 286.178921 
L 186.949675 286.134047 
L 189.176386 284.934569 
L 190.067071 284.5694 
L 190.957755 283.929854 
L 192.293782 282.349235 
L 192.739125 282.600992 
L 193.184467 282.644545 
L 194.520494 281.14289 
L 194.965836 280.962829 
L 195.411178 280.203803 
L 196.301863 279.967031 
L 197.192548 279.461812 
L 197.63789 279.514464 
L 198.973917 278.685602 
L 199.419259 278.509554 
L 199.864602 278.183983 
L 200.755286 278.106839 
L 201.200629 277.369302 
L 201.645971 277.359582 
L 202.091313 276.548713 
L 202.536655 276.128768 
L 203.42734 276.249299 
L 203.872682 275.94908 
L 204.318025 275.486621 
L 205.208709 274.948281 
L 205.654052 274.46702 
L 206.099394 274.762083 
L 207.880763 273.817835 
L 208.326105 273.468696 
L 208.771448 272.033954 
L 209.21679 272.306116 
L 210.107475 271.331858 
L 210.552817 271.290028 
L 210.998159 271.711208 
L 212.334186 270.752853 
L 212.779529 270.102698 
L 213.670213 270.152824 
L 214.115556 269.449339 
L 214.560898 269.400917 
L 215.00624 265.674005 
L 215.451582 268.12612 
L 215.896925 269.586886 
L 216.342267 268.877085 
L 216.787609 268.480432 
L 217.232952 268.41651 
L 217.678294 267.482974 
L 218.123636 267.190461 
L 219.459663 265.16425 
L 219.905006 263.841256 
L 220.350348 263.086128 
L 220.79569 262.060929 
L 221.241033 261.384054 
L 221.686375 262.465052 
L 222.131717 262.299619 
L 222.577059 262.329548 
L 223.022402 262.504178 
L 223.467744 262.830255 
L 223.913086 262.705849 
L 224.358429 260.321859 
L 224.803771 260.674483 
L 226.139798 259.418276 
L 226.58514 259.249197 
L 227.475825 259.323534 
L 227.921167 257.521443 
L 228.36651 257.45581 
L 229.257194 256.033642 
L 229.702536 256.518514 
L 230.147879 254.298791 
L 230.593221 254.823456 
L 231.038563 253.32501 
L 231.483906 252.607476 
L 231.929248 251.530072 
L 232.37459 252.278265 
L 232.819933 251.144902 
L 233.265275 249.259414 
L 233.710617 250.209523 
L 234.15596 250.480376 
L 234.601302 249.895107 
L 235.046644 248.171084 
L 235.491987 248.649986 
L 235.937329 247.127847 
L 236.382671 247.478484 
L 237.273356 245.425526 
L 237.718698 244.385549 
L 239.054725 244.059036 
L 239.500067 242.858185 
L 239.94541 243.004316 
L 240.390752 242.553839 
L 240.836094 241.363661 
L 241.281437 241.061588 
L 241.726779 239.730802 
L 242.172121 238.818504 
L 242.617464 238.657722 
L 243.062806 238.882277 
L 243.508148 238.301791 
L 243.95349 235.828945 
L 244.844175 237.279434 
L 245.289517 237.000802 
L 246.180202 236.917308 
L 246.625544 236.966436 
L 247.516229 236.668077 
L 247.961571 235.276768 
L 248.406914 235.210905 
L 248.852256 233.977025 
L 249.297598 233.973558 
L 249.742941 233.786119 
L 251.078967 230.257117 
L 251.52431 228.178576 
L 251.969652 229.598011 
L 252.414994 229.003069 
L 252.860337 227.773334 
L 253.305679 228.047063 
L 253.751021 225.421604 
L 254.196364 225.806792 
L 254.641706 225.484866 
L 255.087048 223.652915 
L 255.532391 223.635576 
L 255.977733 222.270057 
L 256.423075 222.598849 
L 256.868418 221.518793 
L 257.31376 220.945035 
L 257.759102 221.249852 
L 258.204444 220.510301 
L 258.649787 219.356556 
L 259.095129 219.725376 
L 259.540471 219.178189 
L 259.985814 217.362554 
L 260.431156 216.603282 
L 260.876498 216.674306 
L 261.321841 214.551092 
L 261.767183 214.928668 
L 262.657868 212.399816 
L 263.10321 209.876332 
L 263.548552 210.125747 
L 264.439237 208.706777 
L 264.884579 207.116857 
L 265.329921 207.329407 
L 265.775264 206.66309 
L 266.220606 204.149183 
L 266.665948 203.267169 
L 267.111291 199.099224 
L 267.556633 201.809073 
L 268.001975 201.317764 
L 268.447318 201.96401 
L 268.89266 201.205134 
L 269.783345 202.437613 
L 270.228687 202.191913 
L 270.674029 201.111529 
L 271.119371 201.436446 
L 272.010056 200.060438 
L 272.455398 198.92026 
L 272.900741 198.739441 
L 273.346083 197.968697 
L 273.791425 195.197108 
L 274.236768 196.066824 
L 274.68211 192.350137 
L 275.127452 192.637839 
L 275.572795 190.617588 
L 276.018137 189.372375 
L 276.463479 188.622639 
L 276.908822 188.105501 
L 277.354164 187.082185 
L 277.799506 185.207956 
L 278.244848 182.117879 
L 278.690191 182.898193 
L 280.47156 179.378825 
L 280.916902 178.800027 
L 281.362245 178.821935 
L 281.807587 179.140818 
L 282.252929 178.04583 
L 282.698272 176.511197 
L 283.143614 177.886018 
L 283.588956 177.912553 
L 284.034299 179.137362 
L 284.479641 177.796955 
L 284.924983 175.712976 
L 285.370325 175.980011 
L 285.815668 175.08032 
L 287.151695 173.64954 
L 288.042379 172.598586 
L 288.487722 172.484744 
L 288.933064 187.723206 
L 289.378406 170.550215 
L 289.823749 169.725958 
L 290.269091 165.561572 
L 290.714433 169.425148 
L 291.605118 168.860605 
L 292.05046 168.857872 
L 292.495802 168.340838 
L 292.941145 168.086038 
L 293.386487 169.501488 
L 293.831829 170.398831 
L 294.277172 170.180689 
L 294.722514 168.964986 
L 295.167856 169.05228 
L 296.503883 168.030009 
L 296.949226 165.298867 
L 297.394568 166.376856 
L 297.83991 163.484351 
L 298.285253 164.70401 
L 298.730595 162.27614 
L 299.175937 160.760196 
L 299.621279 161.654036 
L 300.066622 159.794975 
L 300.511964 158.560584 
L 300.957306 158.298108 
L 301.402649 159.307266 
L 301.847991 159.839596 
L 303.184018 157.113224 
L 303.62936 157.740214 
L 304.074703 158.64378 
L 304.520045 158.81899 
L 304.965387 156.751144 
L 305.41073 155.980929 
L 305.856072 154.481932 
L 306.301414 154.112601 
L 306.746756 153.902669 
L 307.192099 154.059535 
L 307.637441 153.861809 
L 308.528126 151.802696 
L 308.973468 153.004017 
L 309.41881 149.198491 
L 309.864153 149.296372 
L 310.309495 148.832312 
L 310.754837 146.056761 
L 311.20018 145.223978 
L 311.645522 144.723426 
L 312.090864 144.727072 
L 312.536207 143.222323 
L 312.981549 143.119745 
L 313.872233 140.740572 
L 314.317576 142.31096 
L 314.762918 143.322455 
L 315.653603 140.913646 
L 316.098945 142.09508 
L 316.544287 141.879062 
L 316.98963 142.393323 
L 317.434972 140.575128 
L 317.880314 139.940738 
L 318.325657 141.315357 
L 318.770999 139.342132 
L 319.216341 139.500015 
L 319.661684 138.937154 
L 320.107026 138.884881 
L 320.552368 138.718954 
L 320.99771 134.821213 
L 321.443053 134.707675 
L 321.888395 135.015294 
L 322.333737 135.958067 
L 323.224422 131.409498 
L 323.669764 129.402934 
L 324.115107 128.893633 
L 324.560449 129.068567 
L 325.005791 128.702348 
L 325.451134 126.709143 
L 325.896476 128.352847 
L 326.341818 126.602776 
L 326.78716 128.226793 
L 327.232503 127.0626 
L 327.677845 126.357892 
L 328.123187 126.299125 
L 328.56853 126.37852 
L 329.013872 124.860916 
L 329.459214 125.033347 
L 329.904557 126.675833 
L 330.349899 126.119293 
L 330.795241 126.793022 
L 331.240584 127.068387 
L 331.685926 124.963442 
L 332.131268 126.224105 
L 332.576611 126.562864 
L 333.021953 125.780552 
L 333.467295 125.302557 
L 333.912637 123.417017 
L 334.35798 123.814974 
L 334.803322 123.404593 
L 335.248664 123.540688 
L 335.694007 122.444213 
L 336.139349 121.96457 
L 336.584691 120.576712 
L 337.030034 119.970086 
L 337.475376 120.827694 
L 337.920718 121.082683 
L 338.366061 121.140049 
L 339.256745 119.166399 
L 339.702088 119.639542 
L 340.14743 118.200346 
L 340.592772 118.823237 
L 341.038114 118.554055 
L 341.483457 117.558596 
L 341.928799 117.801867 
L 342.374141 118.485701 
L 342.819484 118.173954 
L 343.264826 118.190247 
L 343.710168 115.604432 
L 344.600853 113.763421 
L 345.046195 114.067388 
L 345.491538 113.423777 
L 345.93688 111.281687 
L 346.382222 111.97462 
L 346.827565 108.900734 
L 347.272907 111.360743 
L 347.718249 109.324267 
L 348.163591 106.540432 
L 348.608934 107.354786 
L 349.054276 105.616559 
L 349.499618 104.44364 
L 349.944961 104.555845 
L 350.390303 103.675881 
L 350.835645 105.881877 
L 351.280988 104.044081 
L 351.72633 104.733185 
L 352.171672 105.137491 
L 353.507699 102.317808 
L 353.953042 104.66541 
L 354.398384 104.712448 
L 354.843726 103.674653 
L 355.289068 104.262717 
L 355.734411 105.688491 
L 356.179753 104.57962 
L 356.625095 101.999551 
L 357.070438 106.282767 
L 357.51578 105.128977 
L 357.961122 103.458945 
L 358.406465 104.859893 
L 358.851807 104.961116 
L 359.297149 102.673331 
L 359.742492 101.533998 
L 360.187834 99.445335 
L 360.633176 100.463885 
L 361.078519 99.692217 
L 361.523861 99.930224 
L 361.969203 100.584071 
L 362.414545 98.914446 
L 362.859888 98.229895 
L 363.30523 99.467662 
L 363.750572 99.159159 
L 364.195915 96.480744 
L 364.641257 95.891577 
L 365.086599 94.068714 
L 365.531942 97.062102 
L 365.977284 98.054864 
L 366.422626 97.078913 
L 366.867969 96.892272 
L 367.313311 97.045332 
L 367.758653 91.765755 
L 368.203996 95.295182 
L 368.649338 93.261393 
L 369.540022 94.29022 
L 369.985365 89.2899 
L 370.430707 88.650848 
L 370.876049 86.639415 
L 371.321392 86.55936 
L 371.766734 88.378756 
L 372.212076 85.869751 
L 372.657419 85.37656 
L 373.102761 84.080865 
L 373.548103 83.612286 
L 373.993446 82.140146 
L 374.438788 82.360246 
L 374.88413 85.929414 
L 375.329473 84.004713 
L 375.774815 82.786036 
L 376.220157 85.103796 
L 376.665499 83.822075 
L 377.110842 83.370891 
L 377.556184 81.52039 
L 378.446869 84.465576 
L 378.892211 84.142123 
L 379.337553 84.603881 
L 379.782896 84.457579 
L 380.228238 82.798317 
L 380.67358 84.716805 
L 381.118923 82.411865 
L 381.564265 81.596742 
L 382.009607 81.511342 
L 382.900292 78.641802 
L 383.345634 75.43983 
L 383.790976 77.623562 
L 384.236319 81.702248 
L 384.681661 77.107968 
L 385.127003 76.892145 
L 385.572346 79.97516 
L 386.46303 75.87174 
L 386.908373 75.816889 
L 387.353715 76.683149 
L 387.799057 76.6478 
L 388.2444 77.311166 
L 388.689742 69.512577 
L 389.135084 68.680047 
L 389.580426 68.912525 
L 390.025769 67.318695 
L 390.471111 66.795931 
L 390.916453 64.023906 
L 391.361796 67.546156 
L 391.807138 68.919529 
L 392.25248 65.906316 
L 392.697823 67.891856 
L 393.143165 64.515317 
L 393.588507 62.796111 
L 394.03385 58.625336 
L 394.479192 59.747619 
L 394.924534 53.568 
L 395.369877 56.071338 
L 396.260561 59.87784 
L 396.705903 58.076197 
L 397.151246 58.427644 
L 397.596588 59.183483 
L 398.04193 59.029596 
L 398.487273 61.224184 
L 398.487273 61.224184 
" clip-path="url(#pab25ecc441)" style="fill: none; stroke: #1f77b4; stroke-width: 1.5; stroke-linecap: square"/>
   </g>
   <g id="line2d_15">
    <path d="M 73.832727 294.796158 
L 75.614097 294.650297 
L 76.059439 294.772372 
L 85.85697 294.504746 
L 86.747654 294.495474 
L 88.974366 294.425862 
L 91.201077 294.497133 
L 92.982447 294.493918 
L 99.217239 294.407255 
L 99.662581 294.201726 
L 102.334635 294.119374 
L 104.561347 294.132751 
L 107.233401 294.166802 
L 109.460112 294.167819 
L 111.241481 294.279755 
L 112.577508 294.288877 
L 115.249562 294.320477 
L 118.366958 294.423956 
L 119.257643 294.408926 
L 120.59367 294.22848 
L 122.375039 294.201359 
L 124.601751 294.138969 
L 129.945859 294.328285 
L 136.180651 293.854459 
L 137.071336 293.794509 
L 137.96202 293.728215 
L 138.852705 293.831356 
L 139.743389 293.844911 
L 140.634074 293.899125 
L 141.970101 293.935765 
L 142.860786 293.616216 
L 143.75147 293.657059 
L 144.196813 293.741432 
L 145.978182 293.633968 
L 146.423524 293.691678 
L 146.868866 293.551059 
L 149.095578 293.50095 
L 149.986263 293.321791 
L 150.431605 293.319672 
L 150.876947 293.434025 
L 157.11174 292.71877 
L 158.002424 292.599497 
L 158.447767 292.590535 
L 158.893109 292.440437 
L 159.783793 292.448268 
L 161.11982 292.01362 
L 162.90119 291.708676 
L 163.346532 291.840506 
L 165.127901 291.704571 
L 171.362694 290.585636 
L 171.808036 290.634775 
L 172.698721 290.354002 
L 173.589405 290.242353 
L 174.034747 289.985699 
L 175.370774 290.277816 
L 176.261459 290.076231 
L 176.706801 290.016977 
L 177.152144 289.767585 
L 177.597486 289.786261 
L 178.042828 289.601521 
L 179.378855 289.507124 
L 179.824198 289.243695 
L 181.160224 288.977321 
L 181.605567 288.980198 
L 182.050909 288.811453 
L 182.496251 288.794304 
L 184.277621 288.271051 
L 184.722963 288.20342 
L 185.613648 287.753196 
L 186.05899 287.904333 
L 187.395017 287.372578 
L 188.285701 286.929352 
L 188.731044 286.593498 
L 189.621728 286.360187 
L 190.067071 286.467387 
L 190.957755 286.303476 
L 192.293782 285.049243 
L 192.739125 284.747957 
L 193.184467 284.830785 
L 193.629809 284.669142 
L 194.965836 283.727386 
L 195.411178 283.568033 
L 196.301863 282.807233 
L 196.747205 282.70299 
L 197.192548 281.267158 
L 197.63789 281.401215 
L 198.083232 282.357726 
L 198.528575 282.253857 
L 199.419259 281.519897 
L 199.864602 282.183143 
L 200.309944 281.324364 
L 200.755286 281.271545 
L 201.200629 281.004614 
L 201.645971 280.380282 
L 202.091313 280.412008 
L 202.981998 279.455766 
L 203.42734 279.484604 
L 203.872682 279.270951 
L 204.318025 278.495305 
L 204.763367 278.757212 
L 205.208709 278.170129 
L 205.654052 278.346235 
L 206.099394 278.134299 
L 206.544736 278.22079 
L 206.990079 277.559295 
L 207.435421 277.584792 
L 207.880763 276.909932 
L 208.326105 277.027179 
L 209.21679 275.602795 
L 209.662132 275.320919 
L 210.107475 275.231276 
L 210.552817 274.904355 
L 210.998159 274.871952 
L 211.443502 274.997093 
L 211.888844 274.973359 
L 213.224871 274.506003 
L 213.670213 274.658167 
L 214.560898 274.264947 
L 215.00624 273.587016 
L 215.451582 272.065342 
L 215.896925 273.201196 
L 216.342267 273.575126 
L 216.787609 273.182572 
L 217.232952 273.410279 
L 217.678294 272.8422 
L 218.568979 272.107666 
L 219.014321 271.379476 
L 219.459663 270.922793 
L 219.905006 269.96608 
L 220.350348 267.134593 
L 220.79569 265.320979 
L 221.241033 268.007679 
L 221.686375 268.716183 
L 222.131717 268.735668 
L 222.577059 269.018847 
L 223.022402 268.998454 
L 223.467744 269.377442 
L 223.913086 268.595336 
L 224.358429 268.732861 
L 224.803771 267.272135 
L 225.249113 266.825763 
L 225.694456 267.079541 
L 226.58514 265.622903 
L 227.030483 266.017162 
L 227.475825 265.979149 
L 227.921167 265.509727 
L 228.36651 264.828396 
L 228.811852 264.473901 
L 229.257194 264.524148 
L 230.147879 262.412198 
L 230.593221 261.791013 
L 231.038563 261.457191 
L 231.483906 260.24042 
L 231.929248 259.818988 
L 233.265275 257.365438 
L 233.710617 257.78199 
L 234.601302 257.372298 
L 235.491987 256.585698 
L 235.937329 256.92766 
L 236.828013 256.494022 
L 237.718698 255.409017 
L 239.054725 254.854412 
L 239.500067 254.858046 
L 239.94541 253.720487 
L 240.390752 253.605904 
L 240.836094 253.637079 
L 241.281437 253.05448 
L 242.617464 250.169909 
L 243.062806 249.625805 
L 243.508148 247.000145 
L 243.95349 243.295698 
L 244.398833 248.792126 
L 244.844175 249.989831 
L 245.289517 249.655418 
L 245.73486 249.065711 
L 246.180202 249.145962 
L 246.625544 249.449671 
L 247.516229 248.208925 
L 247.961571 247.989094 
L 248.852256 247.184885 
L 249.297598 245.877363 
L 249.742941 245.57405 
L 250.188283 245.499926 
L 251.078967 244.342938 
L 251.52431 242.967652 
L 251.969652 242.110544 
L 252.414994 242.650716 
L 253.305679 240.961387 
L 253.751021 239.407315 
L 254.196364 238.955294 
L 254.641706 238.734223 
L 255.532391 236.242052 
L 255.977733 234.301179 
L 256.423075 235.151134 
L 256.868418 234.99092 
L 257.31376 234.014314 
L 257.759102 233.355174 
L 258.204444 233.186417 
L 258.649787 233.305748 
L 259.095129 234.652637 
L 259.540471 233.962035 
L 259.985814 234.271095 
L 260.431156 233.53791 
L 260.876498 233.61761 
L 261.321841 232.792968 
L 262.212525 230.486512 
L 262.657868 230.718181 
L 263.548552 227.456007 
L 263.993895 228.228995 
L 264.439237 227.628248 
L 264.884579 226.206534 
L 265.329921 226.100976 
L 265.775264 225.14679 
L 266.220606 224.603507 
L 266.665948 220.814004 
L 267.111291 212.070157 
L 267.556633 218.364714 
L 268.001975 221.721009 
L 268.447318 222.075556 
L 269.338002 221.706076 
L 269.783345 221.808637 
L 270.228687 221.761657 
L 270.674029 220.716972 
L 271.119371 220.456242 
L 271.564714 220.781664 
L 272.455398 219.559456 
L 273.346083 217.364994 
L 273.791425 214.961421 
L 274.236768 215.769999 
L 274.68211 215.650255 
L 275.127452 211.291105 
L 275.572795 212.247146 
L 276.463479 209.338669 
L 276.908822 206.540211 
L 277.354164 206.439356 
L 277.799506 206.056114 
L 278.690191 201.181503 
L 279.135533 200.858096 
L 279.580875 200.138346 
L 280.026218 199.786847 
L 280.916902 197.0049 
L 281.362245 196.766428 
L 281.807587 196.684048 
L 282.252929 197.903736 
L 282.698272 198.044211 
L 283.143614 199.078981 
L 283.588956 199.800769 
L 284.479641 200.376002 
L 284.924983 197.908759 
L 285.370325 197.2865 
L 285.815668 197.824611 
L 286.26101 196.726165 
L 286.706352 194.705048 
L 287.151695 196.464206 
L 287.597037 197.161554 
L 288.042379 195.080223 
L 288.487722 194.824217 
L 288.933064 193.65209 
L 289.378406 187.723206 
L 289.823749 190.097276 
L 290.269091 180.292151 
L 291.159776 191.93471 
L 291.605118 190.424001 
L 292.05046 192.011223 
L 292.495802 191.422033 
L 292.941145 191.324157 
L 293.386487 189.78697 
L 293.831829 192.381863 
L 294.277172 193.100465 
L 294.722514 192.427672 
L 295.167856 190.953959 
L 295.613199 190.451547 
L 296.058541 189.30119 
L 296.503883 189.221072 
L 296.949226 191.257301 
L 297.394568 190.093446 
L 297.83991 188.438404 
L 298.285253 186.112377 
L 298.730595 185.891221 
L 299.175937 184.929335 
L 299.621279 185.046835 
L 300.066622 182.570699 
L 300.511964 182.51358 
L 300.957306 180.809404 
L 301.402649 180.53811 
L 301.847991 180.018067 
L 302.293333 178.389802 
L 303.184018 178.403259 
L 304.074703 177.744423 
L 304.520045 178.723744 
L 304.965387 177.063523 
L 305.41073 176.179666 
L 305.856072 179.344464 
L 306.301414 179.501767 
L 306.746756 179.352025 
L 307.192099 179.447599 
L 307.637441 179.367819 
L 308.082783 177.783181 
L 308.528126 178.161067 
L 308.973468 178.801037 
L 309.41881 178.09471 
L 309.864153 174.852561 
L 310.309495 175.741125 
L 310.754837 175.298026 
L 311.20018 171.851473 
L 311.645522 173.537736 
L 312.981549 169.041051 
L 313.426891 154.982323 
L 313.872233 160.37487 
L 314.317576 168.485315 
L 314.762918 169.973857 
L 315.653603 168.535889 
L 316.098945 167.125662 
L 316.544287 168.179981 
L 316.98963 167.880813 
L 317.434972 168.990373 
L 317.880314 166.485497 
L 318.325657 168.697963 
L 319.216341 166.400561 
L 319.661684 166.368296 
L 320.107026 167.054673 
L 320.552368 164.183376 
L 320.99771 163.697872 
L 321.443053 161.29388 
L 321.888395 163.501627 
L 322.333737 164.905756 
L 322.77908 162.20921 
L 323.669764 154.689137 
L 324.115107 156.332646 
L 324.560449 154.978758 
L 325.005791 154.239349 
L 325.451134 152.483205 
L 325.896476 153.21341 
L 326.341818 153.417544 
L 326.78716 153.234055 
L 327.232503 152.650153 
L 327.677845 151.718903 
L 328.123187 149.119744 
L 328.56853 152.403747 
L 329.013872 153.333464 
L 329.459214 153.508369 
L 329.904557 154.986089 
L 330.349899 155.806161 
L 331.240584 155.501688 
L 331.685926 156.071444 
L 332.131268 155.742732 
L 332.576611 156.488025 
L 333.467295 153.480903 
L 333.912637 155.373602 
L 334.35798 154.730606 
L 334.803322 153.13022 
L 335.248664 153.307014 
L 335.694007 152.536248 
L 336.139349 150.136401 
L 336.584691 136.868918 
L 337.030034 136.515703 
L 337.475376 149.502142 
L 337.920718 151.323042 
L 338.366061 151.69584 
L 338.811403 150.442544 
L 339.256745 148.749839 
L 340.14743 146.853099 
L 340.592772 146.799384 
L 341.038114 147.428676 
L 341.483457 146.977872 
L 341.928799 136.851436 
L 342.374141 132.431803 
L 342.819484 130.710749 
L 343.264826 131.99394 
L 344.600853 127.497444 
L 345.046195 127.813054 
L 345.491538 130.194484 
L 345.93688 128.012216 
L 346.382222 127.179353 
L 346.827565 129.12785 
L 347.272907 130.199105 
L 348.163591 126.830535 
L 348.608934 123.623488 
L 349.054276 123.3809 
L 349.499618 121.640319 
L 349.944961 123.143748 
L 350.390303 122.937059 
L 350.835645 124.125125 
L 351.280988 122.986715 
L 351.72633 122.996205 
L 352.171672 123.999289 
L 352.617015 125.773088 
L 353.062357 124.925493 
L 353.507699 126.960757 
L 354.398384 127.104402 
L 354.843726 127.889929 
L 355.289068 126.458604 
L 355.734411 126.66063 
L 356.179753 125.528754 
L 356.625095 123.480119 
L 357.070438 125.8164 
L 357.51578 126.286563 
L 357.961122 126.058023 
L 358.406465 128.683551 
L 358.851807 126.484261 
L 359.297149 122.545034 
L 359.742492 117.592916 
L 360.187834 110.520548 
L 360.633176 116.605225 
L 361.078519 121.101526 
L 361.523861 120.318416 
L 361.969203 121.295262 
L 362.414545 120.085093 
L 363.30523 119.048894 
L 363.750572 119.202661 
L 364.195915 120.964214 
L 364.641257 120.528359 
L 365.086599 120.308202 
L 365.531942 118.238232 
L 365.977284 121.629824 
L 366.867969 118.436177 
L 367.313311 120.844068 
L 367.758653 119.445358 
L 368.203996 115.805695 
L 368.649338 116.163285 
L 369.09468 113.99866 
L 369.540022 112.73027 
L 369.985365 114.721706 
L 370.430707 115.124336 
L 371.321392 107.160693 
L 371.766734 107.025115 
L 372.212076 106.631143 
L 372.657419 105.824563 
L 373.102761 102.896314 
L 373.548103 104.441182 
L 373.993446 102.979647 
L 374.438788 103.0916 
L 374.88413 104.415858 
L 375.329473 107.655596 
L 375.774815 108.406808 
L 376.220157 108.460746 
L 376.665499 110.085946 
L 377.110842 107.725317 
L 378.001526 108.98703 
L 378.446869 109.281295 
L 378.892211 109.040113 
L 379.337553 108.563956 
L 379.782896 111.124045 
L 380.228238 109.94613 
L 380.67358 110.509405 
L 381.118923 108.835594 
L 381.564265 109.995574 
L 382.454949 107.14068 
L 382.900292 101.450297 
L 383.345634 88.125833 
L 383.790976 95.808725 
L 384.236319 101.445222 
L 384.681661 101.810958 
L 385.127003 103.678172 
L 385.572346 101.911056 
L 386.017688 104.8893 
L 386.46303 103.8371 
L 386.908373 100.137315 
L 387.353715 102.163336 
L 387.799057 102.156394 
L 388.2444 104.639673 
L 388.689742 100.427033 
L 389.135084 93.297333 
L 389.580426 93.466055 
L 390.025769 104.694392 
L 390.471111 92.089328 
L 391.361796 88.35373 
L 391.807138 92.334552 
L 392.25248 92.14244 
L 392.697823 90.693036 
L 393.143165 87.359424 
L 393.588507 88.051422 
L 394.479192 79.843755 
L 394.924534 80.672663 
L 395.369877 80.431493 
L 395.815219 77.790613 
L 396.260561 77.692301 
L 396.705903 78.673522 
L 397.151246 77.320961 
L 397.596588 78.227087 
L 398.04193 78.336991 
L 398.487273 81.935995 
L 398.487273 81.935995 
" clip-path="url(#pab25ecc441)" style="fill: none; stroke: #ff7f0e; stroke-width: 1.5; stroke-linecap: square"/>
   </g>
   <g id="line2d_16">
    <path d="M 73.832727 295.293442 
L 80.512862 295.261424 
L 80.958204 295.333688 
L 81.848889 295.214794 
L 82.294231 295.305895 
L 82.739574 295.199471 
L 83.184916 295.305275 
L 83.630258 295.248035 
L 84.0756 295.304517 
L 84.966285 295.203369 
L 86.747654 295.265896 
L 89.419708 295.262607 
L 90.755735 295.310833 
L 91.64642 295.267395 
L 95.654501 295.351216 
L 96.545185 295.275961 
L 98.771897 295.259615 
L 99.217239 295.001095 
L 99.662581 295.207244 
L 103.670662 295.263732 
L 104.116004 295.353857 
L 105.452031 295.215494 
L 106.788058 295.252083 
L 109.905455 295.262802 
L 110.350797 295.404437 
L 111.686824 295.31039 
L 112.577508 295.227534 
L 113.468193 295.36449 
L 113.913535 295.383413 
L 114.358878 295.278441 
L 115.249562 295.406837 
L 116.140247 295.425651 
L 117.476274 295.430106 
L 121.039012 295.349603 
L 122.375039 295.284222 
L 123.265724 295.312744 
L 123.711066 295.383062 
L 124.601751 295.346698 
L 125.492435 295.347438 
L 126.38312 295.358014 
L 126.828462 295.460155 
L 130.391201 295.35903 
L 134.844624 295.349499 
L 135.289966 295.478315 
L 135.735309 295.330766 
L 136.180651 295.425071 
L 136.625993 295.30826 
L 137.96202 295.390216 
L 138.407363 295.336077 
L 138.852705 295.458766 
L 139.743389 295.424089 
L 140.188732 295.328584 
L 141.079416 295.488 
L 142.415443 295.337311 
L 142.860786 295.438373 
L 143.75147 295.2892 
L 144.196813 295.26399 
L 144.642155 295.404196 
L 145.087497 295.405614 
L 145.53284 295.277488 
L 146.868866 295.449701 
L 147.314209 295.295245 
L 148.650236 295.27344 
L 149.095578 295.119972 
L 150.431605 295.397559 
L 151.32229 295.118801 
L 151.767632 295.211361 
L 152.212974 295.085651 
L 153.549001 295.113272 
L 153.994343 295.139349 
L 154.439686 295.308995 
L 155.33037 295.221488 
L 155.775713 294.87468 
L 156.221055 295.099763 
L 156.666397 294.994682 
L 158.002424 295.196164 
L 158.447767 295.042122 
L 158.893109 295.09304 
L 159.783793 294.848121 
L 160.229136 294.905636 
L 160.674478 294.803702 
L 161.11982 294.816533 
L 161.565163 294.970713 
L 162.455847 294.802169 
L 162.90119 295.065948 
L 166.018586 294.809489 
L 166.90927 294.763238 
L 167.354613 294.78572 
L 167.799955 294.554097 
L 168.245297 294.49529 
L 169.135982 294.690313 
L 170.026667 294.642868 
L 170.472009 294.925093 
L 172.253378 294.579175 
L 173.589405 294.618008 
L 174.034747 294.911682 
L 175.370774 294.419386 
L 176.261459 294.507542 
L 176.706801 294.443011 
L 177.152144 294.684239 
L 177.597486 294.448896 
L 178.488171 294.747202 
L 179.824198 294.335197 
L 181.160224 294.442156 
L 181.605567 294.212749 
L 182.050909 294.360757 
L 182.941594 294.034198 
L 183.386936 294.196783 
L 183.832278 294.081465 
L 184.277621 294.157978 
L 185.168305 294.105756 
L 186.05899 294.097707 
L 186.504332 293.980908 
L 186.949675 294.109057 
L 188.285701 293.92461 
L 188.731044 294.139382 
L 189.621728 293.974071 
L 190.067071 293.669816 
L 190.512413 293.531034 
L 190.957755 293.194181 
L 191.84844 293.146489 
L 192.293782 292.867794 
L 192.739125 293.420838 
L 193.184467 293.381562 
L 193.629809 293.064281 
L 194.075152 293.006634 
L 194.520494 292.575177 
L 194.965836 292.803246 
L 195.411178 292.203573 
L 196.301863 292.7276 
L 196.747205 292.616744 
L 197.192548 293.762456 
L 197.63789 293.681052 
L 198.083232 292.407586 
L 198.528575 292.267731 
L 198.973917 292.317513 
L 199.419259 292.55746 
L 199.864602 291.568643 
L 200.309944 292.39805 
L 200.755286 292.403097 
L 201.200629 291.932491 
L 201.645971 292.547103 
L 202.091313 291.704508 
L 202.536655 291.830648 
L 202.981998 292.300226 
L 203.42734 292.332497 
L 203.872682 292.245931 
L 204.318025 292.559119 
L 204.763367 292.036005 
L 205.208709 292.345954 
L 205.654052 291.688588 
L 206.099394 292.195587 
L 206.544736 291.896695 
L 206.990079 292.320848 
L 207.435421 292.110244 
L 207.880763 292.475705 
L 208.771448 291.400822 
L 209.21679 292.271124 
L 209.662132 292.129856 
L 210.107475 291.668385 
L 210.552817 291.953475 
L 210.998159 292.407058 
L 211.443502 291.939449 
L 211.888844 291.669768 
L 212.334186 291.537841 
L 212.779529 290.962442 
L 213.224871 291.240775 
L 213.670213 291.062459 
L 214.115556 290.56797 
L 214.560898 290.703773 
L 215.00624 287.654792 
L 215.451582 291.628581 
L 215.896925 291.953492 
L 216.342267 290.869762 
L 216.787609 290.865663 
L 217.678294 290.208577 
L 218.123636 290.256051 
L 218.568979 289.949053 
L 219.014321 290.087691 
L 219.905006 289.442978 
L 220.350348 291.519338 
L 220.79569 292.307753 
L 221.241033 288.944177 
L 221.686375 289.316672 
L 222.577059 288.878504 
L 223.022402 289.073526 
L 223.467744 289.020616 
L 223.913086 289.678315 
L 224.358429 287.156801 
L 224.803771 288.970151 
L 225.249113 288.961682 
L 225.694456 288.224795 
L 226.139798 288.607479 
L 226.58514 289.194097 
L 227.030483 288.824336 
L 227.475825 288.912187 
L 227.921167 287.579519 
L 228.36651 288.195216 
L 228.811852 287.756882 
L 229.257194 287.077297 
L 229.702536 288.647697 
L 230.147879 287.454395 
L 230.593221 288.600246 
L 231.038563 287.435622 
L 231.483906 287.934859 
L 231.929248 287.278887 
L 232.37459 288.873934 
L 232.819933 288.528509 
L 233.265275 287.461779 
L 234.15596 288.42716 
L 234.601302 288.090611 
L 235.046644 286.823857 
L 235.491987 287.632091 
L 235.937329 285.767989 
L 236.382671 286.352201 
L 236.828013 285.406862 
L 237.718698 284.544334 
L 238.609383 284.707763 
L 239.054725 284.772426 
L 239.500067 283.567941 
L 239.94541 284.851632 
L 240.390752 284.515737 
L 240.836094 283.294385 
L 241.281437 283.574911 
L 241.726779 283.300011 
L 242.172121 283.421432 
L 243.062806 284.824275 
L 243.508148 286.869448 
L 243.95349 288.101049 
L 244.398833 283.311694 
L 244.844175 282.857405 
L 245.289517 282.913187 
L 245.73486 283.427535 
L 246.180202 283.339149 
L 246.625544 283.084567 
L 247.516229 284.026955 
L 247.961571 282.855476 
L 248.406914 283.135922 
L 248.852256 282.359943 
L 249.297598 283.663997 
L 249.742941 283.779872 
L 250.188283 282.606843 
L 251.078967 281.481982 
L 251.52431 280.778726 
L 251.969652 283.05527 
L 252.414994 281.920156 
L 252.860337 281.562238 
L 253.305679 282.653478 
L 253.751021 281.582091 
L 254.196364 282.419301 
L 254.641706 282.318445 
L 255.087048 281.814874 
L 255.532391 282.961327 
L 255.977733 283.53668 
L 256.423075 283.015518 
L 256.868418 282.095675 
L 257.31376 282.498523 
L 257.759102 283.462481 
L 258.204444 282.891686 
L 259.095129 280.640542 
L 259.540471 280.783957 
L 259.985814 278.659262 
L 260.876498 278.624499 
L 261.321841 277.325927 
L 261.767183 278.804721 
L 262.212525 278.586435 
L 262.657868 277.249437 
L 263.10321 276.541324 
L 263.548552 278.237543 
L 263.993895 276.743713 
L 264.884579 276.478125 
L 265.775264 277.084103 
L 266.220606 275.113478 
L 266.665948 278.020968 
L 267.111291 282.59687 
L 268.001975 275.164558 
L 268.447318 275.456256 
L 268.89266 274.849154 
L 269.338002 275.6741 
L 269.783345 276.196778 
L 270.228687 275.998058 
L 270.674029 275.96236 
L 271.119371 276.548007 
L 271.564714 275.584463 
L 272.010056 275.477803 
L 272.455398 274.928606 
L 272.900741 276.007526 
L 273.346083 276.171506 
L 273.791425 275.803489 
L 274.236768 275.864627 
L 274.68211 272.267684 
L 275.127452 276.914536 
L 275.572795 273.938245 
L 276.018137 273.991598 
L 276.463479 274.851772 
L 276.908822 277.133092 
L 277.354164 276.210632 
L 277.799506 274.719644 
L 278.244848 274.16315 
L 278.690191 277.284493 
L 279.135533 276.704725 
L 279.580875 276.71464 
L 280.026218 275.740991 
L 280.47156 276.748673 
L 280.916902 277.362929 
L 281.362245 277.62331 
L 281.807587 278.024573 
L 282.252929 275.709896 
L 282.698272 274.034789 
L 283.143614 274.37484 
L 283.588956 273.679587 
L 284.034299 274.671981 
L 284.479641 272.988755 
L 284.924983 273.37202 
L 285.370325 274.261313 
L 285.815668 272.823512 
L 286.26101 273.397183 
L 286.706352 274.894997 
L 287.151695 272.753136 
L 287.597037 271.596843 
L 288.042379 273.086166 
L 288.487722 273.228329 
L 288.933064 289.638919 
L 289.378406 278.394811 
L 289.823749 275.196485 
L 290.269091 280.837223 
L 290.714433 279.385701 
L 291.159776 272.741074 
L 291.605118 274.004406 
L 292.05046 272.414452 
L 292.495802 272.486607 
L 292.941145 272.329683 
L 293.386487 275.282321 
L 293.831829 273.584771 
L 294.277172 272.648027 
L 294.722514 272.105117 
L 295.167856 273.666124 
L 295.613199 273.841466 
L 296.058541 274.628922 
L 296.503883 274.37674 
L 296.949226 269.609369 
L 297.394568 271.851212 
L 297.83991 270.61375 
L 298.285253 274.159436 
L 298.730595 271.952722 
L 299.175937 271.398663 
L 300.066622 272.792079 
L 300.511964 271.614807 
L 301.402649 274.336959 
L 301.847991 275.389331 
L 302.293333 276.108789 
L 303.184018 274.277768 
L 304.074703 276.46716 
L 304.520045 275.663048 
L 304.965387 275.255424 
L 305.41073 275.369065 
L 305.856072 270.70527 
L 306.301414 270.178637 
L 306.746756 270.118446 
L 307.192099 270.179739 
L 307.637441 270.061792 
L 308.082783 270.625577 
L 308.528126 269.209431 
L 308.973468 269.770782 
L 309.41881 266.671583 
L 309.864153 270.011614 
L 310.309495 268.658989 
L 310.754837 266.326538 
L 311.20018 268.940307 
L 311.645522 266.753493 
L 312.090864 268.194503 
L 312.536207 268.240502 
L 312.981549 269.646497 
L 313.426891 282.337133 
L 314.317576 269.393448 
L 314.762918 268.916401 
L 315.20826 268.63061 
L 315.653603 267.94556 
L 316.098945 270.53722 
L 316.544287 269.266883 
L 316.98963 270.080313 
L 317.434972 267.152557 
L 317.880314 269.023044 
L 318.770999 267.504234 
L 319.216341 268.667256 
L 319.661684 268.136661 
L 320.107026 267.398011 
L 320.552368 270.103381 
L 320.99771 266.691143 
L 321.443053 268.981598 
L 321.888395 267.08147 
L 322.333737 266.620113 
L 322.77908 266.72729 
L 323.669764 270.281599 
L 324.115107 268.12879 
L 324.560449 269.657612 
L 325.005791 270.030801 
L 325.451134 269.793741 
L 325.896476 270.70724 
L 326.341818 268.753035 
L 326.78716 270.560541 
L 327.232503 269.98025 
L 327.677845 270.206791 
L 328.123187 272.747183 
L 329.013872 267.095254 
L 329.459214 267.09278 
L 329.904557 267.257547 
L 330.349899 265.880935 
L 330.795241 266.691637 
L 331.240584 267.134501 
L 331.685926 264.4598 
L 332.131268 266.049175 
L 332.576611 265.642641 
L 333.467295 267.389456 
L 333.912637 263.611218 
L 334.803322 265.842176 
L 335.248664 265.801477 
L 335.694007 265.475767 
L 336.139349 267.395972 
L 336.584691 279.275596 
L 337.030034 279.022186 
L 337.475376 266.893354 
L 337.920718 265.327444 
L 338.366061 265.012011 
L 338.811403 265.366863 
L 339.256745 265.984362 
L 339.702088 267.534559 
L 340.14743 266.91505 
L 340.592772 267.591655 
L 341.038114 266.693182 
L 341.483457 266.148526 
L 341.928799 276.518233 
L 342.374141 281.6217 
L 342.819484 283.031008 
L 343.710168 280.571291 
L 344.600853 281.83378 
L 345.046195 281.822136 
L 345.491538 278.797096 
L 345.93688 278.837273 
L 346.382222 280.36307 
L 346.827565 275.340686 
L 347.272907 276.72944 
L 347.718249 276.278521 
L 348.163591 275.277699 
L 348.608934 279.2991 
L 349.054276 277.803462 
L 349.499618 278.371123 
L 349.944961 276.9799 
L 350.390303 276.306625 
L 350.835645 277.324555 
L 351.280988 276.625169 
L 351.72633 277.304782 
L 352.171672 276.706005 
L 352.617015 274.053717 
L 353.062357 274.151123 
L 353.507699 270.924854 
L 353.953042 273.159245 
L 354.398384 273.175849 
L 354.843726 271.352527 
L 355.289068 273.371916 
L 355.734411 274.595663 
L 356.179753 274.618668 
L 356.625095 274.087235 
L 357.070438 276.03417 
L 357.961122 272.968724 
L 358.406465 271.744145 
L 358.851807 274.044658 
L 359.297149 275.6961 
L 359.742492 279.508884 
L 360.187834 284.492589 
L 361.078519 274.158494 
L 361.523861 275.179611 
L 362.859888 274.306278 
L 363.30523 275.98657 
L 363.750572 275.524301 
L 364.195915 271.084333 
L 364.641257 270.93102 
L 365.086599 269.328314 
L 365.531942 274.391673 
L 365.977284 271.992842 
L 366.422626 272.8161 
L 366.867969 274.023898 
L 367.313311 271.769067 
L 367.758653 267.888199 
L 368.203996 275.057289 
L 368.649338 272.665911 
L 369.09468 275.322016 
L 369.540022 277.127753 
L 369.985365 270.135997 
L 370.430707 269.094315 
L 370.876049 271.005385 
L 371.321392 274.966469 
L 371.766734 276.921443 
L 372.212076 274.806411 
L 372.657419 275.119799 
L 373.102761 276.752353 
L 373.548103 274.738906 
L 373.993446 274.728302 
L 374.438788 274.836449 
L 374.88413 277.081358 
L 375.329473 271.91692 
L 375.774815 269.947031 
L 376.220157 272.210852 
L 376.665499 269.303931 
L 377.110842 271.213377 
L 377.556184 268.75435 
L 378.446869 270.752084 
L 378.892211 270.669813 
L 379.337553 271.607728 
L 379.782896 268.901336 
L 380.228238 268.419989 
L 380.67358 269.775203 
L 381.118923 269.144074 
L 381.564265 267.168971 
L 382.009607 268.609356 
L 382.454949 268.590462 
L 382.900292 272.759308 
L 383.345634 282.8818 
L 383.790976 277.382639 
L 384.236319 275.824829 
L 384.681661 270.864812 
L 385.127003 268.781776 
L 385.572346 273.631906 
L 386.017688 268.595451 
L 386.46303 267.602443 
L 386.908373 271.247377 
L 387.353715 270.087616 
L 387.799057 270.059208 
L 388.2444 268.239296 
L 388.689742 264.653347 
L 389.135084 270.950517 
L 389.580426 271.014273 
L 390.025769 258.192106 
L 390.471111 270.274405 
L 390.916453 269.163358 
L 391.361796 274.760229 
L 392.25248 269.331679 
L 392.697823 272.766623 
L 393.143165 272.723696 
L 393.588507 270.312492 
L 394.03385 270.445068 
L 394.479192 275.471666 
L 394.924534 268.46314 
L 395.369877 271.207648 
L 395.815219 275.676931 
L 396.260561 277.753342 
L 396.705903 274.970477 
L 397.151246 276.674486 
L 398.04193 276.260408 
L 398.487273 274.855992 
L 398.487273 274.855992 
" clip-path="url(#pab25ecc441)" style="fill: none; stroke: #2ca02c; stroke-width: 1.5; stroke-linecap: square"/>
   </g>
   <g id="patch_3">
    <path d="M 57.6 307.584 
L 57.6 41.472 
" style="fill: none; stroke: #000000; stroke-width: 0.8; stroke-linejoin: miter; stroke-linecap: square"/>
   </g>
   <g id="patch_4">
    <path d="M 414.72 307.584 
L 414.72 41.472 
" style="fill: none; stroke: #000000; stroke-width: 0.8; stroke-linejoin: miter; stroke-linecap: square"/>
   </g>
   <g id="patch_5">
    <path d="M 57.6 307.584 
L 414.72 307.584 
" style="fill: none; stroke: #000000; stroke-width: 0.8; stroke-linejoin: miter; stroke-linecap: square"/>
   </g>
   <g id="patch_6">
    <path d="M 57.6 41.472 
L 414.72 41.472 
" style="fill: none; stroke: #000000; stroke-width: 0.8; stroke-linejoin: miter; stroke-linecap: square"/>
   </g>
   <g id="legend_1">
    <g id="patch_7">
     <path d="M 64.6 93.506375 
L 186.25625 93.506375 
Q 188.25625 93.506375 188.25625 91.506375 
L 188.25625 48.472 
Q 188.25625 46.472 186.25625 46.472 
L 64.6 46.472 
Q 62.6 46.472 62.6 48.472 
L 62.6 91.506375 
Q 62.6 93.506375 64.6 93.506375 
z
" style="fill: #ffffff; opacity: 0.8; stroke: #cccccc; stroke-linejoin: miter"/>
    </g>
    <g id="line2d_17">
     <path d="M 66.6 54.570438 
L 76.6 54.570438 
L 86.6 54.570438 
" style="fill: none; stroke: #1f77b4; stroke-width: 1.5; stroke-linecap: square"/>
    </g>
    <g id="text_16">
     <!-- Weekly maximum -->
     <g transform="translate(94.6 58.070438)scale(0.1 -0.1)">
      <defs>
       <path id="DejaVuSans-57" d="M 213 4666 
L 850 4666 
L 1831 722 
L 2809 4666 
L 3519 4666 
L 4500 722 
L 5478 4666 
L 6119 4666 
L 4947 0 
L 4153 0 
L 3169 4050 
L 2175 0 
L 1381 0 
L 213 4666 
z
" transform="scale(0.015625)"/>
       <path id="DejaVuSans-6b" d="M 581 4863 
L 1159 4863 
L 1159 1991 
L 2875 3500 
L 3609 3500 
L 1753 1863 
L 3688 0 
L 2938 0 
L 1159 1709 
L 1159 0 
L 581 0 
L 581 4863 
z
" transform="scale(0.015625)"/>
       <path id="DejaVuSans-79" d="M 2059 -325 
Q 1816 -950 1584 -1140 
Q 1353 -1331 966 -1331 
L 506 -1331 
L 506 -850 
L 844 -850 
Q 1081 -850 1212 -737 
Q 1344 -625 1503 -206 
L 1606 56 
L 191 3500 
L 800 3500 
L 1894 763 
L 2988 3500 
L 3597 3500 
L 2059 -325 
z
" transform="scale(0.015625)"/>
       <path id="DejaVuSans-6d" d="M 3328 2828 
Q 3544 3216 3844 3400 
Q 4144 3584 4550 3584 
Q 5097 3584 5394 3201 
Q 5691 2819 5691 2113 
L 5691 0 
L 5113 0 
L 5113 2094 
Q 5113 2597 4934 2840 
Q 4756 3084 4391 3084 
Q 3944 3084 3684 2787 
Q 3425 2491 3425 1978 
L 3425 0 
L 2847 0 
L 2847 2094 
Q 2847 2600 2669 2842 
Q 2491 3084 2119 3084 
Q 1678 3084 1418 2786 
Q 1159 2488 1159 1978 
L 1159 0 
L 581 0 
L 581 3500 
L 1159 3500 
L 1159 2956 
Q 1356 3278 1631 3431 
Q 1906 3584 2284 3584 
Q 2666 3584 2933 3390 
Q 3200 3197 3328 2828 
z
" transform="scale(0.015625)"/>
       <path id="DejaVuSans-78" d="M 3513 3500 
L 2247 1797 
L 3578 0 
L 2900 0 
L 1881 1375 
L 863 0 
L 184 0 
L 1544 1831 
L 300 3500 
L 978 3500 
L 1906 2253 
L 2834 3500 
L 3513 3500 
z
" transform="scale(0.015625)"/>
       <path id="DejaVuSans-75" d="M 544 1381 
L 544 3500 
L 1119 3500 
L 1119 1403 
Q 1119 906 1312 657 
Q 1506 409 1894 409 
Q 2359 409 2629 706 
Q 2900 1003 2900 1516 
L 2900 3500 
L 3475 3500 
L 3475 0 
L 2900 0 
L 2900 538 
Q 2691 219 2414 64 
Q 2138 -91 1772 -91 
Q 1169 -91 856 284 
Q 544 659 544 1381 
z
M 1991 3584 
L 1991 3584 
z
" transform="scale(0.015625)"/>
      </defs>
      <use xlink:href="#DejaVuSans-57"/>
      <use xlink:href="#DejaVuSans-65" x="93.001953"/>
      <use xlink:href="#DejaVuSans-65" x="154.525391"/>
      <use xlink:href="#DejaVuSans-6b" x="216.048828"/>
      <use xlink:href="#DejaVuSans-6c" x="273.958984"/>
      <use xlink:href="#DejaVuSans-79" x="301.742188"/>
      <use xlink:href="#DejaVuSans-20" x="360.921875"/>
      <use xlink:href="#DejaVuSans-6d" x="392.708984"/>
      <use xlink:href="#DejaVuSans-61" x="490.121094"/>
      <use xlink:href="#DejaVuSans-78" x="551.400391"/>
      <use xlink:href="#DejaVuSans-69" x="610.580078"/>
      <use xlink:href="#DejaVuSans-6d" x="638.363281"/>
      <use xlink:href="#DejaVuSans-75" x="735.775391"/>
      <use xlink:href="#DejaVuSans-6d" x="799.154297"/>
     </g>
    </g>
    <g id="line2d_18">
     <path d="M 66.6 69.248563 
L 76.6 69.248563 
L 86.6 69.248563 
" style="fill: none; stroke: #ff7f0e; stroke-width: 1.5; stroke-linecap: square"/>
    </g>
    <g id="text_17">
     <!-- Weekly minimum -->
     <g transform="translate(94.6 72.748563)scale(0.1 -0.1)">
      <defs>
       <path id="DejaVuSans-6e" d="M 3513 2113 
L 3513 0 
L 2938 0 
L 2938 2094 
Q 2938 2591 2744 2837 
Q 2550 3084 2163 3084 
Q 1697 3084 1428 2787 
Q 1159 2491 1159 1978 
L 1159 0 
L 581 0 
L 581 3500 
L 1159 3500 
L 1159 2956 
Q 1366 3272 1645 3428 
Q 1925 3584 2291 3584 
Q 2894 3584 3203 3211 
Q 3513 2838 3513 2113 
z
" transform="scale(0.015625)"/>
      </defs>
      <use xlink:href="#DejaVuSans-57"/>
      <use xlink:href="#DejaVuSans-65" x="93.001953"/>
      <use xlink:href="#DejaVuSans-65" x="154.525391"/>
      <use xlink:href="#DejaVuSans-6b" x="216.048828"/>
      <use xlink:href="#DejaVuSans-6c" x="273.958984"/>
      <use xlink:href="#DejaVuSans-79" x="301.742188"/>
      <use xlink:href="#DejaVuSans-20" x="360.921875"/>
      <use xlink:href="#DejaVuSans-6d" x="392.708984"/>
      <use xlink:href="#DejaVuSans-69" x="490.121094"/>
      <use xlink:href="#DejaVuSans-6e" x="517.904297"/>
      <use xlink:href="#DejaVuSans-69" x="581.283203"/>
      <use xlink:href="#DejaVuSans-6d" x="609.066406"/>
      <use xlink:href="#DejaVuSans-75" x="706.478516"/>
      <use xlink:href="#DejaVuSans-6d" x="769.857422"/>
     </g>
    </g>
    <g id="line2d_19">
     <path d="M 66.6 83.926688 
L 76.6 83.926688 
L 86.6 83.926688 
" style="fill: none; stroke: #2ca02c; stroke-width: 1.5; stroke-linecap: square"/>
    </g>
    <g id="text_18">
     <!-- Weekly range -->
     <g transform="translate(94.6 87.426688)scale(0.1 -0.1)">
      <use xlink:href="#DejaVuSans-57"/>
      <use xlink:href="#DejaVuSans-65" x="93.001953"/>
      <use xlink:href="#DejaVuSans-65" x="154.525391"/>
      <use xlink:href="#DejaVuSans-6b" x="216.048828"/>
      <use xlink:href="#DejaVuSans-6c" x="273.958984"/>
      <use xlink:href="#DejaVuSans-79" x="301.742188"/>
      <use xlink:href="#DejaVuSans-20" x="360.921875"/>
      <use xlink:href="#DejaVuSans-72" x="392.708984"/>
      <use xlink:href="#DejaVuSans-61" x="433.822266"/>
      <use xlink:href="#DejaVuSans-6e" x="495.101562"/>
      <use xlink:href="#DejaVuSans-67" x="558.480469"/>
      <use xlink:href="#DejaVuSans-65" x="621.957031"/>
     </g>
    </g>
   </g>
  </g>
 </g>
 <defs>
  <clipPath id="pab25ecc441">
   <rect x="57.6" y="41.472" width="357.12" height="266.112"/>
  </clipPath>
 </defs>
</svg>
