<?xml version="1.0" encoding="utf-8" standalone="no"?>
<!DOCTYPE svg PUBLIC "-//W3C//DTD SVG 1.1//EN"
  "http://www.w3.org/Graphics/SVG/1.1/DTD/svg11.dtd">
<svg xmlns:xlink="http://www.w3.org/1999/xlink" width="460.8pt" height="345.6pt" viewBox="0 0 460.8 345.6" xmlns="http://www.w3.org/2000/svg" version="1.1">
 <metadata>
  <rdf:RDF xmlns:dc="http://purl.org/dc/elements/1.1/" xmlns:cc="http://creativecommons.org/ns#" xmlns:rdf="http://www.w3.org/1999/02/22-rdf-syntax-ns#">
   <cc:Work>
    <dc:type rdf:resource="http://purl.org/dc/dcmitype/StillImage"/>
    <dc:date>2025-07-27T05:46:29.503817</dc:date>
    <dc:format>image/svg+xml</dc:format>
    <dc:creator>
     <cc:Agent>
      <dc:title>Matplotlib v3.10.3, https://matplotlib.org/</dc:title>
     </cc:Agent>
    </dc:creator>
   </cc:Work>
  </rdf:RDF>
 </metadata>
 <defs>
  <style type="text/css">*{stroke-linejoin: round; stroke-linecap: butt}</style>
 </defs>
 <g id="figure_1">
  <g id="patch_1">
   <path d="M 0 345.6 
L 460.8 345.6 
L 460.8 0 
L 0 0 
z
" style="fill: #ffffff"/>
  </g>
  <g id="axes_1">
   <g id="patch_2">
    <path d="M 57.6 307.584 
L 414.72 307.584 
L 414.72 41.472 
L 57.6 41.472 
z
" style="fill: #ffffff"/>
   </g>
   <g id="matplotlib.axis_1">
    <g id="xtick_1">
     <g id="line2d_1">
      <defs>
       <path id="m086473dc33" d="M 0 0 
L 0 3.5 
" style="stroke: #000000; stroke-width: 0.8"/>
      </defs>
      <g>
       <use xlink:href="#m086473dc33" x="60.987631" y="307.584" style="stroke: #000000; stroke-width: 0.8"/>
      </g>
     </g>
     <g id="text_1">
      <!-- 2008 -->
      <g transform="translate(48.262631 322.182437) scale(0.1 -0.1)">
       <defs>
        <path id="DejaVuSans-32" d="M 1228 531 
L 3431 531 
L 3431 0 
L 469 0 
L 469 531 
Q 828 903 1448 1529 
Q 2069 2156 2228 2338 
Q 2531 2678 2651 2914 
Q 2772 3150 2772 3378 
Q 2772 3750 2511 3984 
Q 2250 4219 1831 4219 
Q 1534 4219 1204 4116 
Q 875 4013 500 3803 
L 500 4441 
Q 881 4594 1212 4672 
Q 1544 4750 1819 4750 
Q 2544 4750 2975 4387 
Q 3406 4025 3406 3419 
Q 3406 3131 3298 2873 
Q 3191 2616 2906 2266 
Q 2828 2175 2409 1742 
Q 1991 1309 1228 531 
z
" transform="scale(0.015625)"/>
        <path id="DejaVuSans-30" d="M 2034 4250 
Q 1547 4250 1301 3770 
Q 1056 3291 1056 2328 
Q 1056 1369 1301 889 
Q 1547 409 2034 409 
Q 2525 409 2770 889 
Q 3016 1369 3016 2328 
Q 3016 3291 2770 3770 
Q 2525 4250 2034 4250 
z
M 2034 4750 
Q 2819 4750 3233 4129 
Q 3647 3509 3647 2328 
Q 3647 1150 3233 529 
Q 2819 -91 2034 -91 
Q 1250 -91 836 529 
Q 422 1150 422 2328 
Q 422 3509 836 4129 
Q 1250 4750 2034 4750 
z
" transform="scale(0.015625)"/>
        <path id="DejaVuSans-38" d="M 2034 2216 
Q 1584 2216 1326 1975 
Q 1069 1734 1069 1313 
Q 1069 891 1326 650 
Q 1584 409 2034 409 
Q 2484 409 2743 651 
Q 3003 894 3003 1313 
Q 3003 1734 2745 1975 
Q 2488 2216 2034 2216 
z
M 1403 2484 
Q 997 2584 770 2862 
Q 544 3141 544 3541 
Q 544 4100 942 4425 
Q 1341 4750 2034 4750 
Q 2731 4750 3128 4425 
Q 3525 4100 3525 3541 
Q 3525 3141 3298 2862 
Q 3072 2584 2669 2484 
Q 3125 2378 3379 2068 
Q 3634 1759 3634 1313 
Q 3634 634 3220 271 
Q 2806 -91 2034 -91 
Q 1263 -91 848 271 
Q 434 634 434 1313 
Q 434 1759 690 2068 
Q 947 2378 1403 2484 
z
M 1172 3481 
Q 1172 3119 1398 2916 
Q 1625 2713 2034 2713 
Q 2441 2713 2670 2916 
Q 2900 3119 2900 3481 
Q 2900 3844 2670 4047 
Q 2441 4250 2034 4250 
Q 1625 4250 1398 4047 
Q 1172 3844 1172 3481 
z
" transform="scale(0.015625)"/>
       </defs>
       <use xlink:href="#DejaVuSans-32"/>
       <use xlink:href="#DejaVuSans-30" transform="translate(63.623047 0)"/>
       <use xlink:href="#DejaVuSans-30" transform="translate(127.246094 0)"/>
       <use xlink:href="#DejaVuSans-38" transform="translate(190.869141 0)"/>
      </g>
     </g>
    </g>
    <g id="xtick_2">
     <g id="line2d_2">
      <g>
       <use xlink:href="#m086473dc33" x="99.470276" y="307.584" style="stroke: #000000; stroke-width: 0.8"/>
      </g>
     </g>
     <g id="text_2">
      <!-- 2010 -->
      <g transform="translate(86.745276 322.182437) scale(0.1 -0.1)">
       <defs>
        <path id="DejaVuSans-31" d="M 794 531 
L 1825 531 
L 1825 4091 
L 703 3866 
L 703 4441 
L 1819 4666 
L 2450 4666 
L 2450 531 
L 3481 531 
L 3481 0 
L 794 0 
L 794 531 
z
" transform="scale(0.015625)"/>
       </defs>
       <use xlink:href="#DejaVuSans-32"/>
       <use xlink:href="#DejaVuSans-30" transform="translate(63.623047 0)"/>
       <use xlink:href="#DejaVuSans-31" transform="translate(127.246094 0)"/>
       <use xlink:href="#DejaVuSans-30" transform="translate(190.869141 0)"/>
      </g>
     </g>
    </g>
    <g id="xtick_3">
     <g id="line2d_3">
      <g>
       <use xlink:href="#m086473dc33" x="137.900277" y="307.584" style="stroke: #000000; stroke-width: 0.8"/>
      </g>
     </g>
     <g id="text_3">
      <!-- 2012 -->
      <g transform="translate(125.175277 322.182437) scale(0.1 -0.1)">
       <use xlink:href="#DejaVuSans-32"/>
       <use xlink:href="#DejaVuSans-30" transform="translate(63.623047 0)"/>
       <use xlink:href="#DejaVuSans-31" transform="translate(127.246094 0)"/>
       <use xlink:href="#DejaVuSans-32" transform="translate(190.869141 0)"/>
      </g>
     </g>
    </g>
    <g id="xtick_4">
     <g id="line2d_4">
      <g>
       <use xlink:href="#m086473dc33" x="176.382923" y="307.584" style="stroke: #000000; stroke-width: 0.8"/>
      </g>
     </g>
     <g id="text_4">
      <!-- 2014 -->
      <g transform="translate(163.657923 322.182437) scale(0.1 -0.1)">
       <defs>
        <path id="DejaVuSans-34" d="M 2419 4116 
L 825 1625 
L 2419 1625 
L 2419 4116 
z
M 2253 4666 
L 3047 4666 
L 3047 1625 
L 3713 1625 
L 3713 1100 
L 3047 1100 
L 3047 0 
L 2419 0 
L 2419 1100 
L 313 1100 
L 313 1709 
L 2253 4666 
z
" transform="scale(0.015625)"/>
       </defs>
       <use xlink:href="#DejaVuSans-32"/>
       <use xlink:href="#DejaVuSans-30" transform="translate(63.623047 0)"/>
       <use xlink:href="#DejaVuSans-31" transform="translate(127.246094 0)"/>
       <use xlink:href="#DejaVuSans-34" transform="translate(190.869141 0)"/>
      </g>
     </g>
    </g>
    <g id="xtick_5">
     <g id="line2d_5">
      <g>
       <use xlink:href="#m086473dc33" x="214.812924" y="307.584" style="stroke: #000000; stroke-width: 0.8"/>
      </g>
     </g>
     <g id="text_5">
      <!-- 2016 -->
      <g transform="translate(202.087924 322.182437) scale(0.1 -0.1)">
       <defs>
        <path id="DejaVuSans-36" d="M 2113 2584 
Q 1688 2584 1439 2293 
Q 1191 2003 1191 1497 
Q 1191 994 1439 701 
Q 1688 409 2113 409 
Q 2538 409 2786 701 
Q 3034 994 3034 1497 
Q 3034 2003 2786 2293 
Q 2538 2584 2113 2584 
z
M 3366 4563 
L 3366 3988 
Q 3128 4100 2886 4159 
Q 2644 4219 2406 4219 
Q 1781 4219 1451 3797 
Q 1122 3375 1075 2522 
Q 1259 2794 1537 2939 
Q 1816 3084 2150 3084 
Q 2853 3084 3261 2657 
Q 3669 2231 3669 1497 
Q 3669 778 3244 343 
Q 2819 -91 2113 -91 
Q 1303 -91 875 529 
Q 447 1150 447 2328 
Q 447 3434 972 4092 
Q 1497 4750 2381 4750 
Q 2619 4750 2861 4703 
Q 3103 4656 3366 4563 
z
" transform="scale(0.015625)"/>
       </defs>
       <use xlink:href="#DejaVuSans-32"/>
       <use xlink:href="#DejaVuSans-30" transform="translate(63.623047 0)"/>
       <use xlink:href="#DejaVuSans-31" transform="translate(127.246094 0)"/>
       <use xlink:href="#DejaVuSans-36" transform="translate(190.869141 0)"/>
      </g>
     </g>
    </g>
    <g id="xtick_6">
     <g id="line2d_6">
      <g>
       <use xlink:href="#m086473dc33" x="253.295569" y="307.584" style="stroke: #000000; stroke-width: 0.8"/>
      </g>
     </g>
     <g id="text_6">
      <!-- 2018 -->
      <g transform="translate(240.570569 322.182437) scale(0.1 -0.1)">
       <use xlink:href="#DejaVuSans-32"/>
       <use xlink:href="#DejaVuSans-30" transform="translate(63.623047 0)"/>
       <use xlink:href="#DejaVuSans-31" transform="translate(127.246094 0)"/>
       <use xlink:href="#DejaVuSans-38" transform="translate(190.869141 0)"/>
      </g>
     </g>
    </g>
    <g id="xtick_7">
     <g id="line2d_7">
      <g>
       <use xlink:href="#m086473dc33" x="291.72557" y="307.584" style="stroke: #000000; stroke-width: 0.8"/>
      </g>
     </g>
     <g id="text_7">
      <!-- 2020 -->
      <g transform="translate(279.00057 322.182437) scale(0.1 -0.1)">
       <use xlink:href="#DejaVuSans-32"/>
       <use xlink:href="#DejaVuSans-30" transform="translate(63.623047 0)"/>
       <use xlink:href="#DejaVuSans-32" transform="translate(127.246094 0)"/>
       <use xlink:href="#DejaVuSans-30" transform="translate(190.869141 0)"/>
      </g>
     </g>
    </g>
    <g id="xtick_8">
     <g id="line2d_8">
      <g>
       <use xlink:href="#m086473dc33" x="330.208216" y="307.584" style="stroke: #000000; stroke-width: 0.8"/>
      </g>
     </g>
     <g id="text_8">
      <!-- 2022 -->
      <g transform="translate(317.483216 322.182437) scale(0.1 -0.1)">
       <use xlink:href="#DejaVuSans-32"/>
       <use xlink:href="#DejaVuSans-30" transform="translate(63.623047 0)"/>
       <use xlink:href="#DejaVuSans-32" transform="translate(127.246094 0)"/>
       <use xlink:href="#DejaVuSans-32" transform="translate(190.869141 0)"/>
      </g>
     </g>
    </g>
    <g id="xtick_9">
     <g id="line2d_9">
      <g>
       <use xlink:href="#m086473dc33" x="368.638217" y="307.584" style="stroke: #000000; stroke-width: 0.8"/>
      </g>
     </g>
     <g id="text_9">
      <!-- 2024 -->
      <g transform="translate(355.913217 322.182437) scale(0.1 -0.1)">
       <use xlink:href="#DejaVuSans-32"/>
       <use xlink:href="#DejaVuSans-30" transform="translate(63.623047 0)"/>
       <use xlink:href="#DejaVuSans-32" transform="translate(127.246094 0)"/>
       <use xlink:href="#DejaVuSans-34" transform="translate(190.869141 0)"/>
      </g>
     </g>
    </g>
    <g id="xtick_10">
     <g id="line2d_10">
      <g>
       <use xlink:href="#m086473dc33" x="407.120862" y="307.584" style="stroke: #000000; stroke-width: 0.8"/>
      </g>
     </g>
     <g id="text_10">
      <!-- 2026 -->
      <g transform="translate(394.395862 322.182437) scale(0.1 -0.1)">
       <use xlink:href="#DejaVuSans-32"/>
       <use xlink:href="#DejaVuSans-30" transform="translate(63.623047 0)"/>
       <use xlink:href="#DejaVuSans-32" transform="translate(127.246094 0)"/>
       <use xlink:href="#DejaVuSans-36" transform="translate(190.869141 0)"/>
      </g>
     </g>
    </g>
    <g id="text_11">
     <!-- Updated 2025-07-27 05:46:29.502121 - Last record 2025-07-22 -->
     <g transform="translate(75.905312 335.860562) scale(0.1 -0.1)">
      <defs>
       <path id="DejaVuSans-55" d="M 556 4666 
L 1191 4666 
L 1191 1831 
Q 1191 1081 1462 751 
Q 1734 422 2344 422 
Q 2950 422 3222 751 
Q 3494 1081 3494 1831 
L 3494 4666 
L 4128 4666 
L 4128 1753 
Q 4128 841 3676 375 
Q 3225 -91 2344 -91 
Q 1459 -91 1007 375 
Q 556 841 556 1753 
L 556 4666 
z
" transform="scale(0.015625)"/>
       <path id="DejaVuSans-70" d="M 1159 525 
L 1159 -1331 
L 581 -1331 
L 581 3500 
L 1159 3500 
L 1159 2969 
Q 1341 3281 1617 3432 
Q 1894 3584 2278 3584 
Q 2916 3584 3314 3078 
Q 3713 2572 3713 1747 
Q 3713 922 3314 415 
Q 2916 -91 2278 -91 
Q 1894 -91 1617 61 
Q 1341 213 1159 525 
z
M 3116 1747 
Q 3116 2381 2855 2742 
Q 2594 3103 2138 3103 
Q 1681 3103 1420 2742 
Q 1159 2381 1159 1747 
Q 1159 1113 1420 752 
Q 1681 391 2138 391 
Q 2594 391 2855 752 
Q 3116 1113 3116 1747 
z
" transform="scale(0.015625)"/>
       <path id="DejaVuSans-64" d="M 2906 2969 
L 2906 4863 
L 3481 4863 
L 3481 0 
L 2906 0 
L 2906 525 
Q 2725 213 2448 61 
Q 2172 -91 1784 -91 
Q 1150 -91 751 415 
Q 353 922 353 1747 
Q 353 2572 751 3078 
Q 1150 3584 1784 3584 
Q 2172 3584 2448 3432 
Q 2725 3281 2906 2969 
z
M 947 1747 
Q 947 1113 1208 752 
Q 1469 391 1925 391 
Q 2381 391 2643 752 
Q 2906 1113 2906 1747 
Q 2906 2381 2643 2742 
Q 2381 3103 1925 3103 
Q 1469 3103 1208 2742 
Q 947 2381 947 1747 
z
" transform="scale(0.015625)"/>
       <path id="DejaVuSans-61" d="M 2194 1759 
Q 1497 1759 1228 1600 
Q 959 1441 959 1056 
Q 959 750 1161 570 
Q 1363 391 1709 391 
Q 2188 391 2477 730 
Q 2766 1069 2766 1631 
L 2766 1759 
L 2194 1759 
z
M 3341 1997 
L 3341 0 
L 2766 0 
L 2766 531 
Q 2569 213 2275 61 
Q 1981 -91 1556 -91 
Q 1019 -91 701 211 
Q 384 513 384 1019 
Q 384 1609 779 1909 
Q 1175 2209 1959 2209 
L 2766 2209 
L 2766 2266 
Q 2766 2663 2505 2880 
Q 2244 3097 1772 3097 
Q 1472 3097 1187 3025 
Q 903 2953 641 2809 
L 641 3341 
Q 956 3463 1253 3523 
Q 1550 3584 1831 3584 
Q 2591 3584 2966 3190 
Q 3341 2797 3341 1997 
z
" transform="scale(0.015625)"/>
       <path id="DejaVuSans-74" d="M 1172 4494 
L 1172 3500 
L 2356 3500 
L 2356 3053 
L 1172 3053 
L 1172 1153 
Q 1172 725 1289 603 
Q 1406 481 1766 481 
L 2356 481 
L 2356 0 
L 1766 0 
Q 1100 0 847 248 
Q 594 497 594 1153 
L 594 3053 
L 172 3053 
L 172 3500 
L 594 3500 
L 594 4494 
L 1172 4494 
z
" transform="scale(0.015625)"/>
       <path id="DejaVuSans-65" d="M 3597 1894 
L 3597 1613 
L 953 1613 
Q 991 1019 1311 708 
Q 1631 397 2203 397 
Q 2534 397 2845 478 
Q 3156 559 3463 722 
L 3463 178 
Q 3153 47 2828 -22 
Q 2503 -91 2169 -91 
Q 1331 -91 842 396 
Q 353 884 353 1716 
Q 353 2575 817 3079 
Q 1281 3584 2069 3584 
Q 2775 3584 3186 3129 
Q 3597 2675 3597 1894 
z
M 3022 2063 
Q 3016 2534 2758 2815 
Q 2500 3097 2075 3097 
Q 1594 3097 1305 2825 
Q 1016 2553 972 2059 
L 3022 2063 
z
" transform="scale(0.015625)"/>
       <path id="DejaVuSans-20" transform="scale(0.015625)"/>
       <path id="DejaVuSans-35" d="M 691 4666 
L 3169 4666 
L 3169 4134 
L 1269 4134 
L 1269 2991 
Q 1406 3038 1543 3061 
Q 1681 3084 1819 3084 
Q 2600 3084 3056 2656 
Q 3513 2228 3513 1497 
Q 3513 744 3044 326 
Q 2575 -91 1722 -91 
Q 1428 -91 1123 -41 
Q 819 9 494 109 
L 494 744 
Q 775 591 1075 516 
Q 1375 441 1709 441 
Q 2250 441 2565 725 
Q 2881 1009 2881 1497 
Q 2881 1984 2565 2268 
Q 2250 2553 1709 2553 
Q 1456 2553 1204 2497 
Q 953 2441 691 2322 
L 691 4666 
z
" transform="scale(0.015625)"/>
       <path id="DejaVuSans-2d" d="M 313 2009 
L 1997 2009 
L 1997 1497 
L 313 1497 
L 313 2009 
z
" transform="scale(0.015625)"/>
       <path id="DejaVuSans-37" d="M 525 4666 
L 3525 4666 
L 3525 4397 
L 1831 0 
L 1172 0 
L 2766 4134 
L 525 4134 
L 525 4666 
z
" transform="scale(0.015625)"/>
       <path id="DejaVuSans-3a" d="M 750 794 
L 1409 794 
L 1409 0 
L 750 0 
L 750 794 
z
M 750 3309 
L 1409 3309 
L 1409 2516 
L 750 2516 
L 750 3309 
z
" transform="scale(0.015625)"/>
       <path id="DejaVuSans-39" d="M 703 97 
L 703 672 
Q 941 559 1184 500 
Q 1428 441 1663 441 
Q 2288 441 2617 861 
Q 2947 1281 2994 2138 
Q 2813 1869 2534 1725 
Q 2256 1581 1919 1581 
Q 1219 1581 811 2004 
Q 403 2428 403 3163 
Q 403 3881 828 4315 
Q 1253 4750 1959 4750 
Q 2769 4750 3195 4129 
Q 3622 3509 3622 2328 
Q 3622 1225 3098 567 
Q 2575 -91 1691 -91 
Q 1453 -91 1209 -44 
Q 966 3 703 97 
z
M 1959 2075 
Q 2384 2075 2632 2365 
Q 2881 2656 2881 3163 
Q 2881 3666 2632 3958 
Q 2384 4250 1959 4250 
Q 1534 4250 1286 3958 
Q 1038 3666 1038 3163 
Q 1038 2656 1286 2365 
Q 1534 2075 1959 2075 
z
" transform="scale(0.015625)"/>
       <path id="DejaVuSans-2e" d="M 684 794 
L 1344 794 
L 1344 0 
L 684 0 
L 684 794 
z
" transform="scale(0.015625)"/>
       <path id="DejaVuSans-4c" d="M 628 4666 
L 1259 4666 
L 1259 531 
L 3531 531 
L 3531 0 
L 628 0 
L 628 4666 
z
" transform="scale(0.015625)"/>
       <path id="DejaVuSans-73" d="M 2834 3397 
L 2834 2853 
Q 2591 2978 2328 3040 
Q 2066 3103 1784 3103 
Q 1356 3103 1142 2972 
Q 928 2841 928 2578 
Q 928 2378 1081 2264 
Q 1234 2150 1697 2047 
L 1894 2003 
Q 2506 1872 2764 1633 
Q 3022 1394 3022 966 
Q 3022 478 2636 193 
Q 2250 -91 1575 -91 
Q 1294 -91 989 -36 
Q 684 19 347 128 
L 347 722 
Q 666 556 975 473 
Q 1284 391 1588 391 
Q 1994 391 2212 530 
Q 2431 669 2431 922 
Q 2431 1156 2273 1281 
Q 2116 1406 1581 1522 
L 1381 1569 
Q 847 1681 609 1914 
Q 372 2147 372 2553 
Q 372 3047 722 3315 
Q 1072 3584 1716 3584 
Q 2034 3584 2315 3537 
Q 2597 3491 2834 3397 
z
" transform="scale(0.015625)"/>
       <path id="DejaVuSans-72" d="M 2631 2963 
Q 2534 3019 2420 3045 
Q 2306 3072 2169 3072 
Q 1681 3072 1420 2755 
Q 1159 2438 1159 1844 
L 1159 0 
L 581 0 
L 581 3500 
L 1159 3500 
L 1159 2956 
Q 1341 3275 1631 3429 
Q 1922 3584 2338 3584 
Q 2397 3584 2469 3576 
Q 2541 3569 2628 3553 
L 2631 2963 
z
" transform="scale(0.015625)"/>
       <path id="DejaVuSans-63" d="M 3122 3366 
L 3122 2828 
Q 2878 2963 2633 3030 
Q 2388 3097 2138 3097 
Q 1578 3097 1268 2742 
Q 959 2388 959 1747 
Q 959 1106 1268 751 
Q 1578 397 2138 397 
Q 2388 397 2633 464 
Q 2878 531 3122 666 
L 3122 134 
Q 2881 22 2623 -34 
Q 2366 -91 2075 -91 
Q 1284 -91 818 406 
Q 353 903 353 1747 
Q 353 2603 823 3093 
Q 1294 3584 2113 3584 
Q 2378 3584 2631 3529 
Q 2884 3475 3122 3366 
z
" transform="scale(0.015625)"/>
       <path id="DejaVuSans-6f" d="M 1959 3097 
Q 1497 3097 1228 2736 
Q 959 2375 959 1747 
Q 959 1119 1226 758 
Q 1494 397 1959 397 
Q 2419 397 2687 759 
Q 2956 1122 2956 1747 
Q 2956 2369 2687 2733 
Q 2419 3097 1959 3097 
z
M 1959 3584 
Q 2709 3584 3137 3096 
Q 3566 2609 3566 1747 
Q 3566 888 3137 398 
Q 2709 -91 1959 -91 
Q 1206 -91 779 398 
Q 353 888 353 1747 
Q 353 2609 779 3096 
Q 1206 3584 1959 3584 
z
" transform="scale(0.015625)"/>
      </defs>
      <use xlink:href="#DejaVuSans-55"/>
      <use xlink:href="#DejaVuSans-70" transform="translate(73.193359 0)"/>
      <use xlink:href="#DejaVuSans-64" transform="translate(136.669922 0)"/>
      <use xlink:href="#DejaVuSans-61" transform="translate(200.146484 0)"/>
      <use xlink:href="#DejaVuSans-74" transform="translate(261.425781 0)"/>
      <use xlink:href="#DejaVuSans-65" transform="translate(300.634766 0)"/>
      <use xlink:href="#DejaVuSans-64" transform="translate(362.158203 0)"/>
      <use xlink:href="#DejaVuSans-20" transform="translate(425.634766 0)"/>
      <use xlink:href="#DejaVuSans-32" transform="translate(457.421875 0)"/>
      <use xlink:href="#DejaVuSans-30" transform="translate(521.044922 0)"/>
      <use xlink:href="#DejaVuSans-32" transform="translate(584.667969 0)"/>
      <use xlink:href="#DejaVuSans-35" transform="translate(648.291016 0)"/>
      <use xlink:href="#DejaVuSans-2d" transform="translate(711.914062 0)"/>
      <use xlink:href="#DejaVuSans-30" transform="translate(747.998047 0)"/>
      <use xlink:href="#DejaVuSans-37" transform="translate(811.621094 0)"/>
      <use xlink:href="#DejaVuSans-2d" transform="translate(875.244141 0)"/>
      <use xlink:href="#DejaVuSans-32" transform="translate(911.328125 0)"/>
      <use xlink:href="#DejaVuSans-37" transform="translate(974.951172 0)"/>
      <use xlink:href="#DejaVuSans-20" transform="translate(1038.574219 0)"/>
      <use xlink:href="#DejaVuSans-30" transform="translate(1070.361328 0)"/>
      <use xlink:href="#DejaVuSans-35" transform="translate(1133.984375 0)"/>
      <use xlink:href="#DejaVuSans-3a" transform="translate(1197.607422 0)"/>
      <use xlink:href="#DejaVuSans-34" transform="translate(1231.298828 0)"/>
      <use xlink:href="#DejaVuSans-36" transform="translate(1294.921875 0)"/>
      <use xlink:href="#DejaVuSans-3a" transform="translate(1358.544922 0)"/>
      <use xlink:href="#DejaVuSans-32" transform="translate(1392.236328 0)"/>
      <use xlink:href="#DejaVuSans-39" transform="translate(1455.859375 0)"/>
      <use xlink:href="#DejaVuSans-2e" transform="translate(1519.482422 0)"/>
      <use xlink:href="#DejaVuSans-35" transform="translate(1551.269531 0)"/>
      <use xlink:href="#DejaVuSans-30" transform="translate(1614.892578 0)"/>
      <use xlink:href="#DejaVuSans-32" transform="translate(1678.515625 0)"/>
      <use xlink:href="#DejaVuSans-31" transform="translate(1742.138672 0)"/>
      <use xlink:href="#DejaVuSans-32" transform="translate(1805.761719 0)"/>
      <use xlink:href="#DejaVuSans-31" transform="translate(1869.384766 0)"/>
      <use xlink:href="#DejaVuSans-20" transform="translate(1933.007812 0)"/>
      <use xlink:href="#DejaVuSans-2d" transform="translate(1964.794922 0)"/>
      <use xlink:href="#DejaVuSans-20" transform="translate(2000.878906 0)"/>
      <use xlink:href="#DejaVuSans-4c" transform="translate(2032.666016 0)"/>
      <use xlink:href="#DejaVuSans-61" transform="translate(2088.378906 0)"/>
      <use xlink:href="#DejaVuSans-73" transform="translate(2149.658203 0)"/>
      <use xlink:href="#DejaVuSans-74" transform="translate(2201.757812 0)"/>
      <use xlink:href="#DejaVuSans-20" transform="translate(2240.966797 0)"/>
      <use xlink:href="#DejaVuSans-72" transform="translate(2272.753906 0)"/>
      <use xlink:href="#DejaVuSans-65" transform="translate(2311.617188 0)"/>
      <use xlink:href="#DejaVuSans-63" transform="translate(2373.140625 0)"/>
      <use xlink:href="#DejaVuSans-6f" transform="translate(2428.121094 0)"/>
      <use xlink:href="#DejaVuSans-72" transform="translate(2489.302734 0)"/>
      <use xlink:href="#DejaVuSans-64" transform="translate(2528.666016 0)"/>
      <use xlink:href="#DejaVuSans-20" transform="translate(2592.142578 0)"/>
      <use xlink:href="#DejaVuSans-32" transform="translate(2623.929688 0)"/>
      <use xlink:href="#DejaVuSans-30" transform="translate(2687.552734 0)"/>
      <use xlink:href="#DejaVuSans-32" transform="translate(2751.175781 0)"/>
      <use xlink:href="#DejaVuSans-35" transform="translate(2814.798828 0)"/>
      <use xlink:href="#DejaVuSans-2d" transform="translate(2878.421875 0)"/>
      <use xlink:href="#DejaVuSans-30" transform="translate(2914.505859 0)"/>
      <use xlink:href="#DejaVuSans-37" transform="translate(2978.128906 0)"/>
      <use xlink:href="#DejaVuSans-2d" transform="translate(3041.751953 0)"/>
      <use xlink:href="#DejaVuSans-32" transform="translate(3077.835938 0)"/>
      <use xlink:href="#DejaVuSans-32" transform="translate(3141.458984 0)"/>
     </g>
    </g>
   </g>
   <g id="matplotlib.axis_2">
    <g id="ytick_1">
     <g id="line2d_11">
      <defs>
       <path id="m75e8e69f80" d="M 0 0 
L -3.5 0 
" style="stroke: #000000; stroke-width: 0.8"/>
      </defs>
      <g>
       <use xlink:href="#m75e8e69f80" x="57.6" y="295.488" style="stroke: #000000; stroke-width: 0.8"/>
      </g>
     </g>
     <g id="text_12">
      <!-- 0 -->
      <g transform="translate(44.2375 299.287219) scale(0.1 -0.1)">
       <use xlink:href="#DejaVuSans-30"/>
      </g>
     </g>
    </g>
    <g id="ytick_2">
     <g id="line2d_12">
      <g>
       <use xlink:href="#m75e8e69f80" x="57.6" y="246.675994" style="stroke: #000000; stroke-width: 0.8"/>
      </g>
     </g>
     <g id="text_13">
      <!-- 10 -->
      <g transform="translate(37.875 250.475213) scale(0.1 -0.1)">
       <use xlink:href="#DejaVuSans-31"/>
       <use xlink:href="#DejaVuSans-30" transform="translate(63.623047 0)"/>
      </g>
     </g>
    </g>
    <g id="ytick_3">
     <g id="line2d_13">
      <g>
       <use xlink:href="#m75e8e69f80" x="57.6" y="197.863988" style="stroke: #000000; stroke-width: 0.8"/>
      </g>
     </g>
     <g id="text_14">
      <!-- 20 -->
      <g transform="translate(37.875 201.663207) scale(0.1 -0.1)">
       <use xlink:href="#DejaVuSans-32"/>
       <use xlink:href="#DejaVuSans-30" transform="translate(63.623047 0)"/>
      </g>
     </g>
    </g>
    <g id="ytick_4">
     <g id="line2d_14">
      <g>
       <use xlink:href="#m75e8e69f80" x="57.6" y="149.051982" style="stroke: #000000; stroke-width: 0.8"/>
      </g>
     </g>
     <g id="text_15">
      <!-- 30 -->
      <g transform="translate(37.875 152.8512) scale(0.1 -0.1)">
       <defs>
        <path id="DejaVuSans-33" d="M 2597 2516 
Q 3050 2419 3304 2112 
Q 3559 1806 3559 1356 
Q 3559 666 3084 287 
Q 2609 -91 1734 -91 
Q 1441 -91 1130 -33 
Q 819 25 488 141 
L 488 750 
Q 750 597 1062 519 
Q 1375 441 1716 441 
Q 2309 441 2620 675 
Q 2931 909 2931 1356 
Q 2931 1769 2642 2001 
Q 2353 2234 1838 2234 
L 1294 2234 
L 1294 2753 
L 1863 2753 
Q 2328 2753 2575 2939 
Q 2822 3125 2822 3475 
Q 2822 3834 2567 4026 
Q 2313 4219 1838 4219 
Q 1578 4219 1281 4162 
Q 984 4106 628 3988 
L 628 4550 
Q 988 4650 1302 4700 
Q 1616 4750 1894 4750 
Q 2613 4750 3031 4423 
Q 3450 4097 3450 3541 
Q 3450 3153 3228 2886 
Q 3006 2619 2597 2516 
z
" transform="scale(0.015625)"/>
       </defs>
       <use xlink:href="#DejaVuSans-33"/>
       <use xlink:href="#DejaVuSans-30" transform="translate(63.623047 0)"/>
      </g>
     </g>
    </g>
    <g id="ytick_5">
     <g id="line2d_15">
      <g>
       <use xlink:href="#m75e8e69f80" x="57.6" y="100.239976" style="stroke: #000000; stroke-width: 0.8"/>
      </g>
     </g>
     <g id="text_16">
      <!-- 40 -->
      <g transform="translate(37.875 104.039194) scale(0.1 -0.1)">
       <use xlink:href="#DejaVuSans-34"/>
       <use xlink:href="#DejaVuSans-30" transform="translate(63.623047 0)"/>
      </g>
     </g>
    </g>
    <g id="ytick_6">
     <g id="line2d_16">
      <g>
       <use xlink:href="#m75e8e69f80" x="57.6" y="51.427969" style="stroke: #000000; stroke-width: 0.8"/>
      </g>
     </g>
     <g id="text_17">
      <!-- 50 -->
      <g transform="translate(37.875 55.227188) scale(0.1 -0.1)">
       <use xlink:href="#DejaVuSans-35"/>
       <use xlink:href="#DejaVuSans-30" transform="translate(63.623047 0)"/>
      </g>
     </g>
    </g>
    <g id="text_18">
     <!-- IPv6 as % of total Google traffic -->
     <g transform="translate(31.795312 253.735813) rotate(-90) scale(0.1 -0.1)">
      <defs>
       <path id="DejaVuSans-49" d="M 628 4666 
L 1259 4666 
L 1259 0 
L 628 0 
L 628 4666 
z
" transform="scale(0.015625)"/>
       <path id="DejaVuSans-50" d="M 1259 4147 
L 1259 2394 
L 2053 2394 
Q 2494 2394 2734 2622 
Q 2975 2850 2975 3272 
Q 2975 3691 2734 3919 
Q 2494 4147 2053 4147 
L 1259 4147 
z
M 628 4666 
L 2053 4666 
Q 2838 4666 3239 4311 
Q 3641 3956 3641 3272 
Q 3641 2581 3239 2228 
Q 2838 1875 2053 1875 
L 1259 1875 
L 1259 0 
L 628 0 
L 628 4666 
z
" transform="scale(0.015625)"/>
       <path id="DejaVuSans-76" d="M 191 3500 
L 800 3500 
L 1894 563 
L 2988 3500 
L 3597 3500 
L 2284 0 
L 1503 0 
L 191 3500 
z
" transform="scale(0.015625)"/>
       <path id="DejaVuSans-25" d="M 4653 2053 
Q 4381 2053 4226 1822 
Q 4072 1591 4072 1178 
Q 4072 772 4226 539 
Q 4381 306 4653 306 
Q 4919 306 5073 539 
Q 5228 772 5228 1178 
Q 5228 1588 5073 1820 
Q 4919 2053 4653 2053 
z
M 4653 2450 
Q 5147 2450 5437 2106 
Q 5728 1763 5728 1178 
Q 5728 594 5436 251 
Q 5144 -91 4653 -91 
Q 4153 -91 3862 251 
Q 3572 594 3572 1178 
Q 3572 1766 3864 2108 
Q 4156 2450 4653 2450 
z
M 1428 4353 
Q 1159 4353 1004 4120 
Q 850 3888 850 3481 
Q 850 3069 1003 2837 
Q 1156 2606 1428 2606 
Q 1700 2606 1854 2837 
Q 2009 3069 2009 3481 
Q 2009 3884 1853 4118 
Q 1697 4353 1428 4353 
z
M 4250 4750 
L 4750 4750 
L 1831 -91 
L 1331 -91 
L 4250 4750 
z
M 1428 4750 
Q 1922 4750 2215 4408 
Q 2509 4066 2509 3481 
Q 2509 2891 2217 2550 
Q 1925 2209 1428 2209 
Q 931 2209 642 2551 
Q 353 2894 353 3481 
Q 353 4063 643 4406 
Q 934 4750 1428 4750 
z
" transform="scale(0.015625)"/>
       <path id="DejaVuSans-66" d="M 2375 4863 
L 2375 4384 
L 1825 4384 
Q 1516 4384 1395 4259 
Q 1275 4134 1275 3809 
L 1275 3500 
L 2222 3500 
L 2222 3053 
L 1275 3053 
L 1275 0 
L 697 0 
L 697 3053 
L 147 3053 
L 147 3500 
L 697 3500 
L 697 3744 
Q 697 4328 969 4595 
Q 1241 4863 1831 4863 
L 2375 4863 
z
" transform="scale(0.015625)"/>
       <path id="DejaVuSans-6c" d="M 603 4863 
L 1178 4863 
L 1178 0 
L 603 0 
L 603 4863 
z
" transform="scale(0.015625)"/>
       <path id="DejaVuSans-47" d="M 3809 666 
L 3809 1919 
L 2778 1919 
L 2778 2438 
L 4434 2438 
L 4434 434 
Q 4069 175 3628 42 
Q 3188 -91 2688 -91 
Q 1594 -91 976 548 
Q 359 1188 359 2328 
Q 359 3472 976 4111 
Q 1594 4750 2688 4750 
Q 3144 4750 3555 4637 
Q 3966 4525 4313 4306 
L 4313 3634 
Q 3963 3931 3569 4081 
Q 3175 4231 2741 4231 
Q 1884 4231 1454 3753 
Q 1025 3275 1025 2328 
Q 1025 1384 1454 906 
Q 1884 428 2741 428 
Q 3075 428 3337 486 
Q 3600 544 3809 666 
z
" transform="scale(0.015625)"/>
       <path id="DejaVuSans-67" d="M 2906 1791 
Q 2906 2416 2648 2759 
Q 2391 3103 1925 3103 
Q 1463 3103 1205 2759 
Q 947 2416 947 1791 
Q 947 1169 1205 825 
Q 1463 481 1925 481 
Q 2391 481 2648 825 
Q 2906 1169 2906 1791 
z
M 3481 434 
Q 3481 -459 3084 -895 
Q 2688 -1331 1869 -1331 
Q 1566 -1331 1297 -1286 
Q 1028 -1241 775 -1147 
L 775 -588 
Q 1028 -725 1275 -790 
Q 1522 -856 1778 -856 
Q 2344 -856 2625 -561 
Q 2906 -266 2906 331 
L 2906 616 
Q 2728 306 2450 153 
Q 2172 0 1784 0 
Q 1141 0 747 490 
Q 353 981 353 1791 
Q 353 2603 747 3093 
Q 1141 3584 1784 3584 
Q 2172 3584 2450 3431 
Q 2728 3278 2906 2969 
L 2906 3500 
L 3481 3500 
L 3481 434 
z
" transform="scale(0.015625)"/>
       <path id="DejaVuSans-69" d="M 603 3500 
L 1178 3500 
L 1178 0 
L 603 0 
L 603 3500 
z
M 603 4863 
L 1178 4863 
L 1178 4134 
L 603 4134 
L 603 4863 
z
" transform="scale(0.015625)"/>
      </defs>
      <use xlink:href="#DejaVuSans-49"/>
      <use xlink:href="#DejaVuSans-50" transform="translate(29.492188 0)"/>
      <use xlink:href="#DejaVuSans-76" transform="translate(89.794922 0)"/>
      <use xlink:href="#DejaVuSans-36" transform="translate(148.974609 0)"/>
      <use xlink:href="#DejaVuSans-20" transform="translate(212.597656 0)"/>
      <use xlink:href="#DejaVuSans-61" transform="translate(244.384766 0)"/>
      <use xlink:href="#DejaVuSans-73" transform="translate(305.664062 0)"/>
      <use xlink:href="#DejaVuSans-20" transform="translate(357.763672 0)"/>
      <use xlink:href="#DejaVuSans-25" transform="translate(389.550781 0)"/>
      <use xlink:href="#DejaVuSans-20" transform="translate(484.570312 0)"/>
      <use xlink:href="#DejaVuSans-6f" transform="translate(516.357422 0)"/>
      <use xlink:href="#DejaVuSans-66" transform="translate(577.539062 0)"/>
      <use xlink:href="#DejaVuSans-20" transform="translate(612.744141 0)"/>
      <use xlink:href="#DejaVuSans-74" transform="translate(644.53125 0)"/>
      <use xlink:href="#DejaVuSans-6f" transform="translate(683.740234 0)"/>
      <use xlink:href="#DejaVuSans-74" transform="translate(744.921875 0)"/>
      <use xlink:href="#DejaVuSans-61" transform="translate(784.130859 0)"/>
      <use xlink:href="#DejaVuSans-6c" transform="translate(845.410156 0)"/>
      <use xlink:href="#DejaVuSans-20" transform="translate(873.193359 0)"/>
      <use xlink:href="#DejaVuSans-47" transform="translate(904.980469 0)"/>
      <use xlink:href="#DejaVuSans-6f" transform="translate(982.470703 0)"/>
      <use xlink:href="#DejaVuSans-6f" transform="translate(1043.652344 0)"/>
      <use xlink:href="#DejaVuSans-67" transform="translate(1104.833984 0)"/>
      <use xlink:href="#DejaVuSans-6c" transform="translate(1168.310547 0)"/>
      <use xlink:href="#DejaVuSans-65" transform="translate(1196.09375 0)"/>
      <use xlink:href="#DejaVuSans-20" transform="translate(1257.617188 0)"/>
      <use xlink:href="#DejaVuSans-74" transform="translate(1289.404297 0)"/>
      <use xlink:href="#DejaVuSans-72" transform="translate(1328.613281 0)"/>
      <use xlink:href="#DejaVuSans-61" transform="translate(1369.726562 0)"/>
      <use xlink:href="#DejaVuSans-66" transform="translate(1431.005859 0)"/>
      <use xlink:href="#DejaVuSans-66" transform="translate(1466.210938 0)"/>
      <use xlink:href="#DejaVuSans-69" transform="translate(1501.416016 0)"/>
      <use xlink:href="#DejaVuSans-63" transform="translate(1529.199219 0)"/>
     </g>
    </g>
   </g>
   <g id="line2d_17">
    <path d="M 73.832727 294.598679 
L 75.306755 294.447953 
L 75.675262 294.59148 
L 77.517796 294.564506 
L 78.623316 294.460019 
L 78.991823 294.344325 
L 80.097344 294.363518 
L 83.413906 294.294249 
L 84.519426 294.319616 
L 85.993454 294.250704 
L 88.941509 294.310454 
L 89.678522 294.385932 
L 92.25807 294.336725 
L 93.732098 294.249112 
L 94.469112 294.257113 
L 94.837618 294.019476 
L 97.04866 293.93796 
L 98.15418 293.941372 
L 99.259701 294.02816 
L 100.365221 293.984937 
L 101.470742 294.028414 
L 103.313276 293.998511 
L 104.418797 294.171628 
L 105.524317 294.123783 
L 106.261331 294.200539 
L 106.998345 294.273928 
L 107.366852 294.200715 
L 109.577893 294.400742 
L 111.420427 294.321544 
L 112.525948 294.146558 
L 113.262962 294.142663 
L 116.211016 294.145284 
L 116.579523 294.168001 
L 116.94803 294.051385 
L 119.159071 294.26769 
L 122.107126 294.111863 
L 122.475633 294.117076 
L 122.84414 294.006077 
L 123.581154 294.098923 
L 124.318167 293.926587 
L 124.686674 293.969429 
L 125.055181 293.863629 
L 125.423688 293.909952 
L 126.160702 293.811503 
L 127.266222 293.797489 
L 127.634729 293.918958 
L 129.108757 293.946395 
L 129.84577 293.959437 
L 130.214277 293.924942 
L 130.951291 293.718706 
L 131.319798 293.603837 
L 133.899346 293.741223 
L 136.478894 293.297078 
L 137.215908 293.431882 
L 140.163962 293.002786 
L 140.532469 293.100522 
L 142.74351 292.633064 
L 143.480524 292.648357 
L 144.586045 292.33206 
L 146.428579 291.893108 
L 147.5341 291.780264 
L 147.902607 291.872441 
L 149.745141 291.525739 
L 150.850661 291.183176 
L 151.219168 291.235005 
L 151.587675 290.92748 
L 152.324689 290.743429 
L 152.693196 290.79125 
L 153.430209 290.600268 
L 153.798716 290.744513 
L 154.53573 290.570303 
L 154.904237 290.527089 
L 155.272744 290.302774 
L 156.009758 290.153097 
L 157.483785 290.137506 
L 158.220799 289.946295 
L 159.326319 289.805404 
L 159.694826 289.621192 
L 160.063333 289.603425 
L 160.43184 289.698676 
L 161.905867 289.010012 
L 162.274374 289.025788 
L 163.748402 288.592748 
L 164.116908 288.302541 
L 164.485415 288.235956 
L 164.853922 288.056362 
L 165.222429 288.08561 
L 166.32795 287.644599 
L 166.696457 287.722581 
L 167.064963 287.505509 
L 167.43347 287.467358 
L 169.276005 286.447553 
L 170.381525 285.906008 
L 171.118539 285.155538 
L 171.855553 284.249485 
L 172.224059 284.46353 
L 172.592566 284.500559 
L 173.698087 283.223842 
L 174.066594 283.070753 
L 174.435101 282.425424 
L 175.540621 282.041239 
L 175.909128 281.794578 
L 176.277635 281.839343 
L 177.383156 281.134639 
L 177.751662 280.984962 
L 178.120169 280.708159 
L 178.857183 280.64257 
L 179.22569 280.015512 
L 179.594197 280.007248 
L 179.962704 279.317842 
L 180.33121 278.960801 
L 181.068224 279.063277 
L 181.436731 278.80803 
L 181.805238 278.414844 
L 182.542252 277.957144 
L 182.910758 277.547972 
L 183.279265 277.798836 
L 184.753293 276.99603 
L 185.1218 276.69919 
L 185.490306 275.479363 
L 185.858813 275.710756 
L 186.595827 274.882436 
L 186.964334 274.846872 
L 187.332841 275.204962 
L 188.438361 274.390162 
L 188.806868 273.837396 
L 189.543882 273.880013 
L 189.912389 273.281905 
L 190.280896 273.240737 
L 190.649403 270.072091 
L 191.017909 272.156896 
L 191.386416 273.398849 
L 191.754923 272.795372 
L 192.12343 272.458134 
L 192.491937 272.403787 
L 192.860444 271.610089 
L 193.228951 271.361392 
L 194.334471 269.638694 
L 194.702978 268.513875 
L 195.071485 267.871861 
L 195.439992 267.00023 
L 195.808499 266.424746 
L 196.177005 267.343817 
L 196.545512 267.203166 
L 196.914019 267.228611 
L 197.282526 267.377083 
L 197.651033 267.654315 
L 198.01954 267.548545 
L 198.388047 265.52166 
L 198.756554 265.821464 
L 199.862074 264.753428 
L 200.230581 264.609676 
L 200.967595 264.672878 
L 201.336102 263.140728 
L 201.704608 263.084926 
L 202.441622 261.875789 
L 202.810129 262.288031 
L 203.178636 260.400807 
L 203.547143 260.846881 
L 203.91565 259.572892 
L 204.284156 258.96284 
L 204.652663 258.046824 
L 205.02117 258.682942 
L 205.389677 257.719349 
L 205.758184 256.116294 
L 206.126691 256.924084 
L 206.495198 257.154365 
L 206.863704 256.656765 
L 207.232211 255.19099 
L 207.600718 255.598155 
L 207.969225 254.304022 
L 208.337732 254.602136 
L 209.443253 251.972502 
L 210.548773 251.694898 
L 210.91728 250.673927 
L 211.285787 250.798168 
L 211.654294 250.415169 
L 212.022801 249.403272 
L 212.391307 249.146448 
L 213.128321 247.239363 
L 213.496828 247.102665 
L 213.865335 247.293583 
L 214.233842 246.80005 
L 214.602349 244.697619 
L 215.339362 245.930835 
L 215.707869 245.69394 
L 216.444883 245.622953 
L 216.81339 245.664721 
L 217.550403 245.411055 
L 217.91891 244.228155 
L 218.287417 244.172158 
L 218.655924 243.123105 
L 219.024431 243.120156 
L 219.392938 242.960795 
L 220.498458 239.960414 
L 220.866965 238.193224 
L 221.235472 239.400037 
L 221.603979 238.894213 
L 221.972486 237.848684 
L 222.340993 238.08141 
L 222.7095 235.849227 
L 223.078006 236.176717 
L 223.446513 235.903013 
L 223.81502 234.345476 
L 224.183527 234.330735 
L 224.552034 233.169761 
L 224.920541 233.449302 
L 225.289048 232.531031 
L 225.657554 232.043219 
L 226.026061 232.302376 
L 226.394568 231.673604 
L 226.763075 230.692683 
L 227.131582 231.006256 
L 227.500089 230.541034 
L 227.868596 228.997369 
L 228.237102 228.35183 
L 228.605609 228.412215 
L 228.974116 226.607045 
L 229.342623 226.928062 
L 230.079637 224.778015 
L 230.448144 222.632532 
L 230.816651 222.844586 
L 231.553664 221.638168 
L 231.922171 220.286408 
L 232.290678 220.467119 
L 232.659185 219.900612 
L 233.027692 217.763271 
L 233.396199 217.013377 
L 233.764705 213.469762 
L 234.133212 215.773694 
L 234.501719 215.35598 
L 234.870226 215.905423 
L 235.238733 215.260221 
L 235.975747 216.308083 
L 236.344253 216.099187 
L 236.71276 215.180638 
L 237.081267 215.456884 
L 237.818281 214.286992 
L 238.186788 213.317605 
L 238.555295 213.163872 
L 238.923801 212.50858 
L 239.292308 210.152156 
L 239.660815 210.891595 
L 240.029322 207.731642 
L 240.397829 207.976249 
L 240.766336 206.258618 
L 241.134843 205.19993 
L 242.240363 203.252794 
L 242.60887 201.659312 
L 242.977377 199.032108 
L 243.345884 199.695536 
L 244.819911 196.703346 
L 245.188418 196.211247 
L 245.556925 196.229874 
L 245.925432 196.500991 
L 246.293939 195.570024 
L 246.662446 194.265269 
L 247.030952 195.43415 
L 247.399459 195.456711 
L 247.767966 196.498052 
L 248.136473 195.358428 
L 248.50498 193.586616 
L 248.873487 193.81365 
L 249.241994 193.048727 
L 250.347514 191.832269 
L 251.084528 190.93874 
L 251.453035 190.841951 
L 251.821542 203.797795 
L 252.190048 189.197201 
L 252.558555 188.496412 
L 252.927062 184.955824 
L 253.295569 188.240662 
L 254.032583 187.760683 
L 254.40109 187.75836 
L 254.769597 187.318774 
L 255.138103 187.102141 
L 255.50661 188.305567 
L 255.875117 189.068494 
L 256.243624 188.883028 
L 256.612131 187.849429 
L 256.980638 187.923647 
L 258.086158 187.054506 
L 258.454665 184.73247 
L 258.823172 185.648983 
L 259.191679 183.189756 
L 259.560186 184.226719 
L 259.928693 182.162527 
L 260.297199 180.873661 
L 260.665706 181.63361 
L 261.034213 180.053024 
L 261.40272 179.003536 
L 261.771227 178.780378 
L 262.139734 179.638371 
L 262.508241 180.09096 
L 263.613761 177.772981 
L 263.982268 178.306052 
L 264.350775 179.07427 
L 264.719282 179.223234 
L 265.087789 177.465138 
L 265.456296 176.810296 
L 265.824802 175.535839 
L 266.561816 175.043345 
L 266.930323 175.176714 
L 267.29883 175.008605 
L 268.035844 173.257934 
L 268.40435 174.279305 
L 268.772857 171.043821 
L 269.141364 171.127041 
L 269.509871 170.732493 
L 269.878378 168.372701 
L 270.246885 167.664663 
L 270.615392 167.239091 
L 270.983898 167.242191 
L 271.352405 165.962843 
L 271.720912 165.87563 
L 272.457926 163.852841 
L 272.826433 165.187996 
L 273.19494 166.047976 
L 273.931953 163.99999 
L 274.30046 165.004453 
L 274.668967 164.820793 
L 275.037474 165.258022 
L 275.405981 163.71218 
L 275.774488 163.172817 
L 276.142995 164.341527 
L 276.511501 162.663878 
L 276.880008 162.798111 
L 277.248515 162.319563 
L 277.985529 162.134048 
L 278.354036 158.820162 
L 278.722543 158.723632 
L 279.091049 158.985171 
L 279.459556 159.786723 
L 280.19657 155.919499 
L 280.565077 154.213505 
L 280.933584 153.780493 
L 281.302091 153.929224 
L 281.670597 153.617862 
L 282.039104 151.923226 
L 282.407611 153.320714 
L 282.776118 151.832792 
L 283.144625 153.213542 
L 283.513132 152.223737 
L 283.881639 151.624589 
L 284.250145 151.574625 
L 284.618652 151.642127 
L 284.987159 150.35185 
L 285.355666 150.498452 
L 285.724173 151.894905 
L 286.09268 151.421731 
L 286.461187 151.99454 
L 286.829694 152.228657 
L 287.1982 150.439019 
L 287.566707 151.510843 
L 287.935214 151.798858 
L 288.303721 151.133731 
L 288.672228 150.727337 
L 289.040735 149.124238 
L 289.409242 149.462583 
L 289.777748 149.113675 
L 290.146255 149.229384 
L 290.514762 148.297153 
L 290.883269 147.889358 
L 291.251776 146.709391 
L 291.620283 146.193634 
L 291.98879 146.922778 
L 292.357296 147.139571 
L 292.725803 147.188344 
L 293.462817 145.510334 
L 293.831324 145.912603 
L 294.199831 144.688989 
L 294.568338 145.218575 
L 294.936844 144.989715 
L 295.305351 144.143368 
L 295.673858 144.350199 
L 296.042365 144.931599 
L 296.410872 144.66655 
L 296.779379 144.680403 
L 297.147886 142.481925 
L 297.884899 140.916685 
L 298.253406 141.17512 
L 298.621913 140.627918 
L 298.99042 138.806698 
L 299.358927 139.395834 
L 299.727434 136.782396 
L 300.095941 138.873912 
L 300.464447 137.142487 
L 300.832954 134.775651 
L 301.201461 135.46802 
L 301.569968 133.990168 
L 301.938475 132.992944 
L 302.306982 133.088342 
L 302.675489 132.340191 
L 303.043995 134.215743 
L 303.412502 132.653237 
L 303.781009 133.239117 
L 304.149516 133.582861 
L 305.255037 131.185548 
L 305.623543 133.181495 
L 305.99205 133.221487 
L 306.360557 132.339146 
L 306.729064 132.839123 
L 307.097571 134.051325 
L 307.466078 133.108555 
L 307.834585 130.914963 
L 308.203092 134.556583 
L 308.571598 133.575623 
L 308.940105 132.15575 
L 309.308612 133.346846 
L 309.677119 133.432906 
L 310.045626 131.487816 
L 310.414133 130.519147 
L 310.78264 128.743351 
L 311.151146 129.60933 
L 311.519653 128.953252 
L 311.88816 129.155608 
L 312.256667 129.711513 
L 312.625174 128.291986 
L 312.993681 127.709977 
L 313.362188 128.762334 
L 313.730694 128.500043 
L 314.099201 126.222836 
L 314.467708 125.721922 
L 314.836215 124.172112 
L 315.204722 126.717111 
L 315.573229 127.561163 
L 315.941736 126.731403 
L 316.310242 126.57272 
L 316.678749 126.702853 
L 317.047256 122.21412 
L 317.415763 125.214863 
L 317.78427 123.485722 
L 318.521284 124.360438 
L 318.889791 120.109132 
L 319.258297 119.565806 
L 319.626804 117.855672 
L 319.995311 117.787609 
L 320.363818 119.334471 
L 320.732325 117.201298 
L 321.100832 116.781984 
L 321.469339 115.680375 
L 321.837845 115.281986 
L 322.206352 114.030363 
L 322.574859 114.217494 
L 322.943366 117.252024 
L 323.311873 115.615631 
L 323.68038 114.579503 
L 324.048887 116.550078 
L 324.417393 115.46035 
L 324.7859 115.076751 
L 325.154407 113.503442 
L 325.891421 116.007459 
L 326.259928 115.732457 
L 326.628435 116.125047 
L 326.996941 116.00066 
L 327.365448 114.589944 
L 327.733955 116.221056 
L 328.102462 114.26138 
L 328.470969 113.568357 
L 328.839476 113.49575 
L 329.57649 111.056047 
L 329.944996 108.333709 
L 330.313503 110.190332 
L 330.68201 113.658059 
L 331.050517 109.751971 
L 331.419024 109.568477 
L 331.787531 112.189677 
L 332.524544 108.700922 
L 332.893051 108.654287 
L 333.261558 109.390787 
L 333.630065 109.360733 
L 333.998572 109.924731 
L 334.367079 103.294318 
L 334.735586 102.586496 
L 335.104092 102.78415 
L 335.472599 101.429065 
L 335.841106 100.984608 
L 336.209613 98.627813 
L 336.57812 101.622454 
L 336.946627 102.790105 
L 337.315134 100.228251 
L 337.68364 101.91637 
L 338.052147 99.045614 
L 338.420654 97.583934 
L 338.789161 94.037912 
L 339.157668 94.992084 
L 339.526175 89.738131 
L 340.263189 93.421007 
L 340.631695 95.1028 
L 341.000202 93.57103 
L 341.368709 93.869833 
L 341.737216 94.512453 
L 342.105723 94.381617 
L 342.47423 96.249125 
L 342.842737 95.378583 
L 343.211243 94.013838 
L 343.57975 94.328622 
L 343.948257 92.929992 
L 344.316764 93.285343 
L 344.685271 91.574814 
L 345.053778 92.782316 
L 345.422285 96.040415 
L 345.790791 93.847892 
L 346.159298 90.523926 
L 346.527805 93.278617 
L 346.896312 91.678394 
L 347.264819 93.340442 
L 347.633326 91.83962 
L 348.001833 91.818279 
L 349.107353 86.04027 
L 349.47586 88.629064 
L 349.844367 88.431111 
L 350.212874 87.13528 
L 350.581381 87.517204 
L 350.949888 89.725498 
L 351.686901 87.817642 
L 352.055408 89.21593 
L 352.423915 88.429252 
L 352.792422 86.904906 
L 353.160929 86.93455 
L 353.897942 84.405209 
L 354.266449 85.508732 
L 354.634956 85.490832 
L 355.003463 83.088686 
L 355.37197 84.326129 
L 356.108984 84.118585 
L 356.47749 82.784397 
L 356.845997 84.307961 
L 357.214504 84.3528 
L 357.583011 81.671298 
L 357.951518 81.638457 
L 358.320025 80.369599 
L 358.688532 77.023575 
L 359.057038 78.461611 
L 359.794052 77.672501 
L 360.162559 77.530717 
L 360.531066 77.888724 
L 360.899573 76.648274 
L 361.26808 78.103658 
L 362.005093 74.469091 
L 362.3736 75.918817 
L 362.742107 77.885936 
L 363.110614 78.654701 
L 363.479121 75.022346 
L 363.847628 77.184254 
L 364.216135 76.063047 
L 364.584641 79.978946 
L 364.953148 77.406876 
L 365.321655 76.449214 
L 365.690162 78.626156 
L 366.058669 78.825978 
L 366.427176 79.984189 
L 366.795683 77.901649 
L 367.164189 80.120994 
L 367.532696 77.424829 
L 367.901203 77.095758 
L 368.26971 74.545287 
L 368.638217 77.750058 
L 369.006724 77.735869 
L 369.375231 76.967465 
L 369.743737 77.049474 
L 370.112244 75.658962 
L 370.480751 76.736375 
L 370.849258 74.117879 
L 371.217765 74.768016 
L 371.586272 74.769334 
L 371.954779 83.839141 
L 372.691792 83.839141 
L 373.060299 72.559439 
L 373.428806 72.508005 
L 373.797313 74.016819 
L 374.16582 73.601765 
L 374.534327 72.031395 
L 374.902834 72.420432 
L 375.27134 71.723982 
L 375.639847 69.39398 
L 376.008354 70.263024 
L 376.376861 65.543377 
L 376.745368 66.512861 
L 377.113875 65.145442 
L 377.482382 65.512561 
L 377.850888 64.291344 
L 378.219395 68.14469 
L 378.587902 65.208907 
L 378.956409 66.188188 
L 379.324916 66.843845 
L 379.693423 68.29139 
L 380.06193 66.980812 
L 380.430436 68.166519 
L 381.16745 65.972102 
L 381.535957 67.504867 
L 381.904464 68.203118 
L 382.272971 67.953743 
L 382.641478 72.033411 
L 383.009985 68.177638 
L 383.378491 68.691502 
L 383.746998 66.654269 
L 384.115505 68.95309 
L 384.484012 68.474503 
L 385.221026 68.201971 
L 385.589533 66.06218 
L 385.958039 67.452971 
L 386.326546 66.264579 
L 386.695053 66.093844 
L 387.06356 66.7962 
L 387.432067 63.563581 
L 387.800574 67.24324 
L 388.169081 68.84772 
L 388.906094 66.556367 
L 389.274601 65.988557 
L 389.643108 64.926978 
L 390.011615 64.582956 
L 390.380122 64.050979 
L 390.748629 61.797343 
L 391.117135 62.306716 
L 391.485642 61.57291 
L 391.854149 58.021056 
L 392.222656 59.048353 
L 392.591163 60.98227 
L 392.95967 59.707555 
L 393.328177 57.132975 
L 393.696684 63.367098 
L 394.06519 59.65166 
L 394.433697 62.08363 
L 395.170711 59.265703 
L 395.539218 59.103584 
L 395.907725 56.399638 
L 396.276232 58.571807 
L 396.644738 53.568 
L 397.013245 57.282496 
L 397.381752 54.964956 
L 397.750259 53.578265 
L 398.118766 53.815506 
L 398.487273 69.429862 
L 398.487273 69.429862 
" clip-path="url(#paca81e285b)" style="fill: none; stroke: #1f77b4; stroke-width: 1.5; stroke-linecap: square"/>
   </g>
   <g id="line2d_18">
    <path d="M 73.832727 294.831942 
L 75.675262 294.811719 
L 83.782413 294.584182 
L 84.887933 294.54975 
L 85.624947 294.5175 
L 89.678522 294.574976 
L 94.837618 294.501295 
L 95.206125 294.326552 
L 109.577893 294.501685 
L 111.420427 294.502715 
L 112.525948 294.349299 
L 113.999975 294.32624 
L 116.211016 294.292423 
L 116.579523 294.355356 
L 116.94803 294.25598 
L 120.633099 294.400283 
L 122.107126 294.301151 
L 123.581154 294.217624 
L 124.686674 294.045512 
L 125.792195 294.043497 
L 126.897715 293.923971 
L 127.634729 294.011661 
L 128.74025 294.073579 
L 130.582784 293.960638 
L 131.319798 293.800076 
L 132.425318 293.90343 
L 137.215908 293.576624 
L 137.584414 293.673848 
L 142.74351 293.065733 
L 144.217538 292.829093 
L 144.954552 292.835751 
L 146.060072 292.46621 
L 147.5341 292.206945 
L 147.902607 292.319027 
L 149.376634 292.203455 
L 154.53573 291.252128 
L 154.904237 291.293906 
L 155.641251 291.055191 
L 156.378264 290.960267 
L 156.746771 290.742057 
L 157.852292 290.990418 
L 159.326319 290.556616 
L 159.694826 290.572494 
L 160.063333 290.415427 
L 161.168854 290.33517 
L 161.53736 290.111201 
L 163.379895 289.743705 
L 164.116908 289.606422 
L 164.853922 289.320056 
L 165.590936 289.226752 
L 166.32795 288.843968 
L 166.696457 288.972466 
L 167.801977 288.520364 
L 168.538991 288.143531 
L 168.907498 287.857985 
L 169.644511 287.659623 
L 170.013018 287.750765 
L 170.750032 287.611407 
L 171.855553 286.54505 
L 172.224059 286.288894 
L 172.592566 286.359315 
L 172.961073 286.221885 
L 174.066594 285.421197 
L 174.435101 285.285715 
L 175.172114 284.638878 
L 175.540621 284.55025 
L 175.909128 283.329495 
L 176.277635 283.443472 
L 176.646142 284.256704 
L 177.014649 284.168393 
L 177.751662 283.544376 
L 178.120169 284.108272 
L 178.488676 283.378132 
L 178.857183 283.333225 
L 179.22569 283.106278 
L 179.594197 282.575467 
L 179.962704 282.602441 
L 180.699717 281.789438 
L 181.068224 281.813956 
L 181.436731 281.632307 
L 181.805238 280.972847 
L 182.173745 281.195522 
L 182.542252 280.696381 
L 182.910758 280.846107 
L 183.279265 280.665917 
L 183.647772 280.739452 
L 184.016279 280.177045 
L 184.384786 280.198723 
L 184.753293 279.624952 
L 185.1218 279.724636 
L 185.858813 278.513615 
L 186.22732 278.273963 
L 186.595827 278.197748 
L 186.964334 277.919798 
L 187.332841 277.892248 
L 187.701348 277.998644 
L 188.069855 277.978465 
L 189.175375 277.581115 
L 189.543882 277.710487 
L 190.280896 277.376168 
L 190.649403 276.799787 
L 191.017909 275.506049 
L 191.386416 276.47176 
L 191.754923 276.789678 
L 192.12343 276.455925 
L 192.491937 276.649524 
L 192.860444 276.166539 
L 193.597457 275.542033 
L 193.965964 274.922921 
L 194.334471 274.534646 
L 194.702978 273.721243 
L 195.071485 271.313893 
L 195.439992 269.771946 
L 195.808499 272.056197 
L 196.177005 272.658571 
L 196.545512 272.675138 
L 196.914019 272.915898 
L 197.282526 272.89856 
L 197.651033 273.220778 
L 198.01954 272.555827 
L 198.388047 272.672751 
L 198.756554 271.430832 
L 199.12506 271.051323 
L 199.493567 271.267087 
L 200.230581 270.028644 
L 200.599088 270.363845 
L 200.967595 270.331527 
L 201.336102 269.932421 
L 201.704608 269.353149 
L 202.073115 269.051754 
L 202.441622 269.094475 
L 203.178636 267.298881 
L 203.547143 266.770745 
L 203.91565 266.486927 
L 204.284156 265.45242 
L 204.652663 265.094116 
L 205.758184 263.008091 
L 206.126691 263.362246 
L 206.863704 263.013924 
L 207.600718 262.345151 
L 207.969225 262.63589 
L 208.706239 262.267208 
L 209.443253 261.344729 
L 210.548773 260.8732 
L 210.91728 260.87629 
L 211.285787 259.909129 
L 211.654294 259.81171 
L 212.022801 259.838215 
L 212.391307 259.342885 
L 213.496828 256.890404 
L 213.865335 256.427803 
L 214.233842 254.195449 
L 214.602349 251.045903 
L 214.970855 255.719004 
L 215.339362 256.7373 
L 215.707869 256.45298 
L 216.076376 255.951608 
L 216.444883 256.019837 
L 216.81339 256.278053 
L 217.550403 255.223162 
L 218.287417 254.741826 
L 218.655924 254.352517 
L 219.024431 253.240852 
L 219.392938 252.982974 
L 219.761445 252.919952 
L 220.498458 251.936273 
L 220.866965 250.766996 
L 221.235472 250.038277 
L 221.603979 250.497535 
L 222.340993 249.061256 
L 222.7095 247.739974 
L 223.078006 247.355662 
L 223.446513 247.167707 
L 224.183527 245.048846 
L 224.552034 243.398702 
L 224.920541 244.121339 
L 225.289048 243.985125 
L 226.026061 242.594402 
L 226.394568 242.450924 
L 226.763075 242.55238 
L 227.131582 243.697515 
L 227.500089 243.11036 
L 227.868596 243.373125 
L 228.237102 242.749766 
L 228.605609 242.817527 
L 229.342623 241.180148 
L 229.71113 240.155447 
L 230.079637 240.352413 
L 230.816651 237.578891 
L 231.185157 238.236091 
L 231.553664 237.725331 
L 231.922171 236.51658 
L 232.290678 236.426834 
L 232.659185 235.615579 
L 233.027692 235.153676 
L 233.396199 231.931815 
L 233.764705 224.497737 
L 234.133212 229.849412 
L 234.501719 232.702957 
L 234.870226 233.004395 
L 235.60724 232.690261 
L 235.975747 232.777459 
L 236.344253 232.737516 
L 236.71276 231.849318 
L 237.081267 231.627643 
L 237.449774 231.904319 
L 238.186788 230.86519 
L 238.923801 228.999443 
L 239.292308 226.955909 
L 239.660815 227.643368 
L 240.029322 227.541561 
L 240.397829 223.835382 
L 240.766336 224.648214 
L 241.503349 222.175408 
L 241.871856 219.79614 
L 242.240363 219.710392 
L 242.60887 219.384557 
L 243.345884 215.24013 
L 243.714391 214.965167 
L 244.082898 214.35323 
L 244.451404 214.054383 
L 245.188418 211.689154 
L 245.556925 211.486403 
L 245.925432 211.416363 
L 246.293939 212.45335 
L 246.662446 212.572783 
L 247.399459 214.06622 
L 248.136473 214.555287 
L 248.50498 212.457621 
L 248.873487 211.928572 
L 249.241994 212.386077 
L 249.6105 211.452172 
L 249.979007 209.733803 
L 250.347514 211.229452 
L 250.716021 211.822342 
L 251.084528 210.05278 
L 251.453035 209.835122 
L 251.821542 208.838572 
L 252.190048 203.797795 
L 252.558555 205.816245 
L 252.927062 197.479862 
L 253.664076 207.378444 
L 254.032583 206.094029 
L 254.40109 207.443495 
L 254.769597 206.942562 
L 255.138103 206.859347 
L 255.50661 205.552421 
L 255.875117 207.758616 
L 256.243624 208.369576 
L 256.612131 207.797563 
L 256.980638 206.544603 
L 257.349145 206.117449 
L 257.717651 205.139408 
L 258.086158 205.07129 
L 258.454665 206.802506 
L 258.823172 205.812989 
L 259.191679 204.405861 
L 259.560186 202.428257 
L 259.928693 202.240228 
L 260.297199 201.422427 
L 260.665706 201.522326 
L 261.034213 199.417098 
L 261.40272 199.368535 
L 261.771227 197.919633 
L 262.139734 197.688977 
L 262.508241 197.246833 
L 262.876747 195.862471 
L 263.613761 195.873913 
L 264.350775 195.313765 
L 264.719282 196.146391 
L 265.087789 194.73486 
L 265.456296 193.983399 
L 265.824802 196.674132 
L 266.193309 196.807872 
L 266.561816 196.68056 
L 266.930323 196.761818 
L 267.29883 196.693988 
L 267.667337 195.346718 
L 268.035844 195.667999 
L 268.40435 196.212106 
L 268.772857 195.611582 
L 269.141364 192.855085 
L 269.509871 193.610549 
L 269.878378 193.233822 
L 270.246885 190.30354 
L 270.615392 191.737212 
L 271.720912 187.9141 
L 272.089419 175.961274 
L 272.457926 180.546054 
L 272.826433 187.441609 
L 273.19494 188.707178 
L 273.931953 187.484608 
L 274.30046 186.285624 
L 274.668967 187.182012 
L 275.037474 186.927658 
L 275.405981 187.871013 
L 275.774488 185.74135 
L 276.142995 187.622404 
L 276.880008 185.669138 
L 277.248515 185.641705 
L 277.617022 186.225268 
L 277.985529 183.784072 
L 278.354036 183.371293 
L 278.722543 181.327403 
L 279.091049 183.204444 
L 279.459556 184.398244 
L 279.828063 182.105622 
L 280.565077 175.712006 
L 280.933584 177.109328 
L 281.302091 175.958243 
L 281.670597 175.329593 
L 282.039104 173.836507 
L 282.407611 174.457332 
L 282.776118 174.630888 
L 283.144625 174.474885 
L 283.513132 173.978448 
L 283.881639 173.186692 
L 284.250145 170.97687 
L 284.618652 173.768951 
L 284.987159 174.559403 
L 285.355666 174.708109 
L 285.724173 175.964476 
L 286.09268 176.661707 
L 286.829694 176.402842 
L 287.1982 176.887253 
L 287.566707 176.60778 
L 287.935214 177.241433 
L 288.672228 174.684757 
L 289.040735 176.293943 
L 289.409242 175.747263 
L 289.777748 174.386604 
L 290.146255 174.536916 
L 290.514762 173.881605 
L 290.883269 171.841238 
L 291.251776 160.561135 
L 291.620283 160.260829 
L 291.98879 171.301988 
L 292.357296 172.850129 
L 292.725803 173.167085 
L 293.09431 172.101523 
L 293.462817 170.662375 
L 294.199831 169.049753 
L 294.568338 169.004084 
L 294.936844 169.539113 
L 295.305351 169.155836 
L 295.673858 160.546272 
L 296.042365 156.78867 
L 296.410872 155.325418 
L 296.779379 156.416395 
L 297.884899 152.593444 
L 298.253406 152.861778 
L 298.621913 154.886486 
L 298.99042 153.031107 
L 299.358927 152.323001 
L 299.727434 153.979627 
L 300.095941 154.890415 
L 300.832954 152.026434 
L 301.201461 149.299781 
L 301.569968 149.09353 
L 301.938475 147.613677 
L 302.306982 148.891903 
L 302.675489 148.716175 
L 303.043995 149.726276 
L 303.412502 148.758392 
L 303.781009 148.766461 
L 304.149516 149.619289 
L 304.518023 151.127385 
L 304.88653 150.406754 
L 305.255037 152.137149 
L 305.99205 152.259277 
L 306.360557 152.927138 
L 306.729064 151.710215 
L 307.097571 151.88198 
L 307.466078 150.919651 
L 307.834585 149.177887 
L 308.203092 151.164209 
L 308.571598 151.563945 
L 308.940105 151.369639 
L 309.308612 153.601881 
L 309.677119 151.732029 
L 310.414133 144.172548 
L 310.78264 138.159573 
L 311.519653 147.155591 
L 311.88816 146.489786 
L 312.256667 147.320307 
L 312.625174 146.291414 
L 313.362188 145.41043 
L 313.730694 145.541163 
L 314.099201 147.038848 
L 314.467708 146.668281 
L 314.836215 146.481102 
L 315.204722 144.7212 
L 315.573229 147.604754 
L 316.310242 144.889494 
L 316.678749 146.936699 
L 317.047256 145.747506 
L 317.415763 142.65304 
L 317.78427 142.957066 
L 318.152777 141.116687 
L 318.521284 140.038293 
L 318.889791 141.731425 
L 319.258297 142.073744 
L 319.995311 135.303001 
L 320.363818 135.187732 
L 320.732325 134.852774 
L 321.100832 134.167014 
L 321.469339 131.677397 
L 321.837845 132.990855 
L 322.206352 131.748247 
L 322.574859 131.843431 
L 322.943366 132.969324 
L 323.311873 135.723771 
L 323.68038 136.362456 
L 324.048887 136.408315 
L 324.417393 137.790071 
L 324.7859 135.783048 
L 325.522914 136.855765 
L 325.891421 137.105951 
L 326.259928 136.900897 
L 326.628435 136.496064 
L 326.996941 138.67267 
L 327.365448 137.671199 
L 327.733955 138.150098 
L 328.102462 136.727014 
L 328.470969 137.713236 
L 329.207983 135.285985 
L 329.57649 130.447984 
L 329.944996 119.119434 
L 330.68201 130.443669 
L 331.050517 130.754621 
L 331.419024 132.342138 
L 331.787531 130.839724 
L 332.156038 133.371847 
L 332.524544 132.47726 
L 332.893051 129.331677 
L 333.261558 131.054214 
L 333.630065 131.048313 
L 333.998572 133.159612 
L 334.367079 129.577997 
L 334.735586 123.516278 
L 335.104092 123.659727 
L 335.472599 133.206135 
L 335.841106 122.489225 
L 336.57812 119.313194 
L 336.946627 122.697716 
L 337.315134 122.534381 
L 337.68364 121.302088 
L 338.052147 118.467828 
L 338.420654 119.056169 
L 339.157668 112.077956 
L 339.526175 112.782699 
L 339.894682 112.577654 
L 340.263189 110.332361 
L 340.631695 110.248775 
L 341.000202 111.083016 
L 341.368709 109.933059 
L 341.737216 110.703454 
L 342.105723 110.796895 
L 342.47423 113.856792 
L 342.842737 114.619792 
L 343.57975 117.374361 
L 343.948257 115.482354 
L 344.316764 116.524935 
L 344.685271 116.645661 
L 345.053778 114.030895 
L 345.422285 116.967416 
L 345.790791 117.782991 
L 346.159298 114.943074 
L 346.527805 114.17489 
L 346.896312 116.275935 
L 347.264819 113.045581 
L 347.633326 116.19089 
L 348.001833 116.468454 
L 348.370339 112.461369 
L 349.107353 99.432132 
L 349.47586 106.100238 
L 349.844367 110.643532 
L 350.212874 110.575068 
L 350.581381 111.111674 
L 350.949888 110.064051 
L 351.318394 110.186598 
L 351.686901 110.849704 
L 352.423915 108.722013 
L 352.792422 111.507915 
L 353.529436 104.832697 
L 353.897942 108.245062 
L 354.266449 104.306265 
L 354.634956 106.766399 
L 355.003463 107.370614 
L 355.37197 106.183667 
L 355.740477 103.262859 
L 356.108984 107.686847 
L 356.47749 107.540387 
L 356.845997 104.388693 
L 357.214504 104.922941 
L 357.583011 104.39046 
L 357.951518 100.12042 
L 358.688532 95.912967 
L 359.057038 96.242301 
L 359.425545 96.081388 
L 359.794052 95.040716 
L 360.162559 96.32411 
L 360.531066 94.959873 
L 360.899573 95.87954 
L 361.26808 94.59824 
L 362.3736 101.005401 
L 362.742107 100.026584 
L 363.110614 101.554131 
L 363.479121 101.129159 
L 363.847628 100.507319 
L 364.216135 100.229105 
L 364.584641 102.23993 
L 364.953148 102.872119 
L 365.321655 100.327832 
L 365.690162 101.19837 
L 366.058669 103.493501 
L 366.427176 101.130448 
L 366.795683 102.703903 
L 367.164189 103.202855 
L 367.532696 101.811551 
L 367.901203 97.28045 
L 368.26971 86.055172 
L 368.638217 91.331321 
L 369.006724 98.228081 
L 369.375231 98.228955 
L 369.743737 100.603464 
L 370.112244 99.652323 
L 370.849258 96.598292 
L 371.217765 95.922334 
L 371.586272 98.210504 
L 371.954779 83.839141 
L 372.691792 83.839141 
L 373.060299 94.659504 
L 373.428806 93.465723 
L 373.797313 93.904348 
L 374.16582 98.315972 
L 374.534327 97.647004 
L 374.902834 94.204293 
L 375.27134 95.124238 
L 375.639847 93.895523 
L 376.008354 94.747473 
L 376.376861 91.967654 
L 376.745368 86.922767 
L 377.113875 87.651374 
L 377.482382 83.682089 
L 377.850888 84.495028 
L 378.219395 84.147389 
L 378.587902 84.679147 
L 378.956409 84.529739 
L 379.324916 83.876453 
L 379.693423 85.459095 
L 380.06193 85.258775 
L 380.430436 85.279008 
L 380.798943 88.728196 
L 381.16745 89.508075 
L 381.535957 90.842703 
L 381.904464 91.680976 
L 383.009985 91.194779 
L 383.378491 91.569748 
L 383.746998 91.189078 
L 384.115505 91.66644 
L 384.484012 92.741026 
L 384.852519 90.233446 
L 385.221026 91.844442 
L 385.589533 92.846885 
L 385.958039 87.657773 
L 386.326546 91.697059 
L 386.695053 90.113744 
L 387.06356 85.755838 
L 387.432067 77.062986 
L 387.800574 75.523821 
L 388.169081 88.054092 
L 388.537587 90.843596 
L 388.906094 88.543057 
L 389.274601 87.159212 
L 389.643108 88.508176 
L 390.380122 86.401537 
L 390.748629 87.074162 
L 391.117135 84.007401 
L 391.485642 84.863984 
L 391.854149 83.312514 
L 392.222656 80.945053 
L 392.591163 79.338225 
L 392.95967 81.705764 
L 393.328177 80.54682 
L 393.696684 81.818427 
L 394.06519 81.724625 
L 394.433697 84.925677 
L 394.802204 84.141791 
L 395.539218 78.402026 
L 395.907725 77.896753 
L 396.276232 78.883356 
L 396.644738 77.495933 
L 397.013245 73.889346 
L 397.381752 72.978265 
L 397.750259 73.874258 
L 398.118766 69.483506 
L 398.487273 71.160218 
L 398.487273 71.160218 
" clip-path="url(#paca81e285b)" style="fill: none; stroke: #ff7f0e; stroke-width: 1.5; stroke-linecap: square"/>
   </g>
   <g id="line2d_19">
    <path d="M 73.832727 295.254737 
L 81.939878 295.216132 
L 82.308385 295.264153 
L 83.045399 295.178156 
L 85.25644 295.249993 
L 94.469112 295.225977 
L 94.837618 295.006182 
L 95.206125 295.181451 
L 122.475633 295.3062 
L 122.84414 295.23161 
L 123.581154 295.369299 
L 126.160702 295.319169 
L 126.897715 295.337015 
L 127.266222 295.290985 
L 128.003236 295.394388 
L 129.108757 295.365116 
L 129.477263 295.420151 
L 130.582784 295.292034 
L 130.951291 295.377958 
L 132.056811 295.229697 
L 132.425318 295.3489 
L 135.373373 295.254108 
L 135.74188 295.237731 
L 136.110387 295.107252 
L 137.215908 295.343258 
L 137.952921 295.106256 
L 138.321428 295.184951 
L 138.689935 295.078072 
L 140.532469 295.26796 
L 141.63799 294.898702 
L 142.006497 295.09007 
L 142.375004 295.000729 
L 143.480524 295.17203 
L 143.849031 295.041063 
L 144.217538 295.084354 
L 144.954552 294.876122 
L 145.323059 294.925022 
L 146.060072 294.849266 
L 146.428579 294.98035 
L 147.165593 294.837053 
L 147.5341 295.06132 
L 151.219168 294.823068 
L 151.587675 294.626141 
L 151.956182 294.576143 
L 152.693196 294.741952 
L 153.430209 294.701614 
L 153.798716 294.941564 
L 155.272744 294.647462 
L 156.378264 294.680479 
L 156.746771 294.930162 
L 157.852292 294.511609 
L 158.589306 294.586559 
L 158.957812 294.531695 
L 159.326319 294.736788 
L 159.694826 294.536698 
L 160.43184 294.79032 
L 161.53736 294.440031 
L 162.642881 294.530967 
L 163.011388 294.335924 
L 163.379895 294.461762 
L 164.116908 294.184119 
L 164.485415 294.32235 
L 164.853922 294.224306 
L 165.222429 294.289358 
L 165.959443 294.244958 
L 166.696457 294.238115 
L 167.064963 294.138812 
L 167.43347 294.247765 
L 168.538991 294.090947 
L 168.907498 294.273548 
L 169.644511 294.132998 
L 170.013018 293.874319 
L 170.381525 293.756326 
L 170.750032 293.469931 
L 171.487046 293.429383 
L 171.855553 293.192435 
L 172.224059 293.662636 
L 172.592566 293.629244 
L 172.961073 293.359489 
L 173.32958 293.310477 
L 173.698087 292.94365 
L 174.066594 293.137555 
L 174.435101 292.627709 
L 175.172114 293.073241 
L 175.540621 292.97899 
L 175.909128 293.953082 
L 176.277635 293.883872 
L 176.646142 292.801163 
L 177.014649 292.682257 
L 177.383156 292.724581 
L 177.751662 292.928586 
L 178.120169 292.087887 
L 178.488676 292.793055 
L 178.857183 292.797346 
L 179.22569 292.397234 
L 179.594197 292.919781 
L 179.962704 292.203401 
L 180.33121 292.310646 
L 180.699717 292.709884 
L 181.436731 292.663723 
L 181.805238 292.929997 
L 182.173745 292.485242 
L 182.542252 292.748763 
L 182.910758 292.189865 
L 183.279265 292.620919 
L 183.647772 292.366799 
L 184.016279 292.727417 
L 184.384786 292.54836 
L 184.753293 292.859078 
L 185.490306 291.945205 
L 185.858813 292.685141 
L 186.22732 292.565035 
L 186.595827 292.172689 
L 186.964334 292.415074 
L 187.332841 292.800714 
L 187.701348 292.40315 
L 188.438361 292.0617 
L 188.806868 291.572491 
L 189.175375 291.809132 
L 189.543882 291.657527 
L 189.912389 291.237109 
L 190.280896 291.352569 
L 190.649403 288.760305 
L 191.017909 292.138847 
L 191.386416 292.415089 
L 191.754923 291.493694 
L 192.12343 291.490209 
L 192.860444 290.931551 
L 193.228951 290.971913 
L 193.597457 290.710901 
L 193.965964 290.828772 
L 194.702978 290.280633 
L 195.071485 292.045968 
L 195.439992 292.716283 
L 195.808499 289.856549 
L 196.177005 290.173246 
L 196.914019 289.800713 
L 197.282526 289.966523 
L 197.651033 289.921537 
L 198.01954 290.480718 
L 198.388047 288.336909 
L 198.756554 289.878632 
L 199.12506 289.871432 
L 199.493567 289.244925 
L 199.862074 289.570286 
L 200.230581 290.069033 
L 200.599088 289.754659 
L 200.967595 289.829351 
L 201.336102 288.696307 
L 201.704608 289.219777 
L 202.073115 288.847102 
L 202.441622 288.269314 
L 202.810129 289.604479 
L 203.178636 288.589926 
L 203.547143 289.564136 
L 203.91565 288.573965 
L 204.284156 288.998419 
L 204.652663 288.440708 
L 205.02117 289.796828 
L 205.389677 289.503145 
L 205.758184 288.596204 
L 206.495198 289.416977 
L 206.863704 289.130841 
L 207.232211 288.053839 
L 207.600718 288.741004 
L 207.969225 287.156132 
L 208.337732 287.652833 
L 208.706239 286.8491 
L 209.443253 286.115773 
L 210.180266 286.254721 
L 210.548773 286.309698 
L 210.91728 285.285637 
L 211.285787 286.377039 
L 211.654294 286.091459 
L 212.022801 285.053057 
L 212.391307 285.291562 
L 212.759814 285.057841 
L 213.128321 285.161073 
L 213.865335 286.35378 
L 214.233842 288.0926 
L 214.602349 289.139715 
L 214.970855 285.067774 
L 215.339362 284.681534 
L 215.707869 284.72896 
L 216.076376 285.166262 
L 216.444883 285.091116 
L 216.81339 284.874669 
L 217.550403 285.675894 
L 217.91891 284.679894 
L 218.287417 284.918331 
L 218.655924 284.258588 
L 219.024431 285.367304 
L 219.392938 285.465821 
L 219.761445 284.468504 
L 220.498458 283.51214 
L 220.866965 282.914227 
L 221.235472 284.84976 
L 221.603979 283.884678 
L 221.972486 283.580375 
L 222.340993 284.508154 
L 222.7095 283.597254 
L 223.078006 284.309055 
L 223.446513 284.223307 
L 223.81502 283.795167 
L 224.183527 284.769889 
L 224.552034 285.259059 
L 224.920541 284.815963 
L 225.289048 284.033906 
L 225.657554 284.376411 
L 226.026061 285.195974 
L 226.394568 284.71068 
L 227.131582 282.796742 
L 227.500089 282.918674 
L 227.868596 281.112244 
L 228.605609 281.082689 
L 228.974116 279.978634 
L 229.342623 281.235914 
L 229.71113 281.050326 
L 230.079637 279.913602 
L 230.448144 279.31156 
L 230.816651 280.753696 
L 231.185157 279.483632 
L 231.922171 279.257827 
L 232.659185 279.773033 
L 233.027692 278.097595 
L 233.396199 280.569562 
L 233.764705 284.460025 
L 234.501719 278.141023 
L 234.870226 278.389027 
L 235.238733 277.872865 
L 235.60724 278.57424 
L 235.975747 279.018624 
L 236.344253 278.849671 
L 236.71276 278.81932 
L 237.081267 279.317241 
L 237.449774 278.498029 
L 237.818281 278.407346 
L 238.186788 277.940416 
L 238.555295 278.85772 
L 238.923801 278.997137 
L 239.292308 278.684247 
L 239.660815 278.736227 
L 240.029322 275.678082 
L 240.397829 279.628867 
L 240.766336 277.098404 
L 241.134843 277.143765 
L 241.503349 277.875091 
L 241.871856 279.814684 
L 242.240363 279.030402 
L 242.60887 277.762755 
L 242.977377 277.28962 
L 243.345884 279.943407 
L 243.714391 279.450483 
L 244.082898 279.458913 
L 244.451404 278.63111 
L 244.819911 279.487849 
L 245.188418 280.010094 
L 245.925432 280.572628 
L 246.662446 277.180486 
L 247.030952 277.4696 
L 247.399459 276.878491 
L 247.767966 277.722231 
L 248.136473 276.291141 
L 248.50498 276.616995 
L 248.873487 277.373079 
L 249.241994 276.15065 
L 249.6105 276.63839 
L 249.979007 277.911841 
L 250.347514 276.090817 
L 250.716021 275.107728 
L 251.084528 276.37396 
L 251.453035 276.494829 
L 251.821542 290.447223 
L 252.190048 280.887406 
L 252.558555 278.168168 
L 252.927062 282.963962 
L 253.295569 281.729867 
L 253.664076 276.080561 
L 254.032583 277.154655 
L 254.40109 275.802865 
L 254.769597 275.864212 
L 255.138103 275.730794 
L 255.50661 278.241146 
L 255.875117 276.797878 
L 256.243624 276.001452 
L 256.612131 275.539866 
L 256.980638 276.867045 
L 257.349145 277.016121 
L 257.717651 277.685622 
L 258.086158 277.471215 
L 258.454665 273.417964 
L 258.823172 275.323995 
L 259.191679 274.271896 
L 259.560186 277.286462 
L 259.928693 275.410299 
L 260.297199 274.939234 
L 261.034213 276.123926 
L 261.40272 275.123001 
L 262.139734 277.437393 
L 262.876747 278.943815 
L 263.613761 277.387068 
L 264.350775 279.248504 
L 264.719282 278.564843 
L 265.087789 278.218278 
L 265.456296 278.314897 
L 265.824802 274.349707 
L 266.193309 273.901959 
L 267.29883 273.802617 
L 267.667337 274.281951 
L 268.035844 273.077935 
L 268.40435 273.555199 
L 268.772857 270.920239 
L 269.141364 273.759955 
L 269.509871 272.609945 
L 269.878378 270.626879 
L 270.246885 272.849123 
L 270.615392 270.989879 
L 270.983898 272.215036 
L 271.352405 272.254144 
L 271.720912 273.449531 
L 272.089419 284.239195 
L 272.826433 273.234387 
L 273.931953 272.003382 
L 274.30046 274.206829 
L 274.668967 273.126781 
L 275.037474 273.818364 
L 275.405981 271.329166 
L 275.774488 272.919466 
L 276.511501 271.628164 
L 276.880008 272.616973 
L 277.248515 272.165858 
L 277.617022 271.537852 
L 277.985529 273.837976 
L 278.354036 270.936869 
L 278.722543 272.884229 
L 279.091049 271.268727 
L 279.459556 270.876479 
L 279.828063 270.967601 
L 280.565077 273.989499 
L 280.933584 272.159166 
L 281.302091 273.458981 
L 281.670597 273.776268 
L 282.039104 273.574719 
L 282.407611 274.351381 
L 282.776118 272.689903 
L 283.144625 274.226657 
L 283.513132 273.733289 
L 283.881639 273.925897 
L 284.250145 276.085755 
L 284.987159 271.280447 
L 285.355666 271.278343 
L 285.724173 271.418429 
L 286.09268 270.248024 
L 286.461187 270.937289 
L 286.829694 271.313815 
L 287.1982 269.039766 
L 287.566707 270.391063 
L 287.935214 270.045425 
L 288.672228 271.530579 
L 289.040735 268.318295 
L 289.777748 270.215071 
L 290.146255 270.180468 
L 290.514762 269.903548 
L 290.883269 271.536119 
L 291.251776 281.636256 
L 291.620283 281.420804 
L 291.98879 271.10879 
L 292.357296 269.777442 
L 292.725803 269.509259 
L 293.09431 269.810957 
L 293.462817 270.335959 
L 293.831324 271.653947 
L 294.199831 271.127236 
L 294.568338 271.70249 
L 294.936844 270.938602 
L 295.305351 270.475532 
L 295.673858 279.291927 
L 296.042365 283.630929 
L 296.410872 284.829132 
L 297.147886 282.737865 
L 297.884899 283.811241 
L 298.253406 283.801342 
L 298.621913 281.229432 
L 298.99042 281.263591 
L 299.358927 282.560833 
L 299.727434 278.290769 
L 300.095941 279.471497 
L 300.464447 279.088123 
L 300.832954 278.237217 
L 301.201461 281.656239 
L 301.569968 280.384638 
L 301.938475 280.867267 
L 302.306982 279.684439 
L 302.675489 279.112016 
L 303.043995 279.977468 
L 303.412502 279.382845 
L 303.781009 279.960657 
L 304.149516 279.451572 
L 304.518023 277.196579 
L 304.88653 277.279394 
L 305.255037 274.536398 
L 305.623543 276.436093 
L 305.99205 276.45021 
L 306.360557 274.900009 
L 306.729064 276.616907 
L 307.097571 277.657345 
L 307.466078 277.676904 
L 307.834585 277.225076 
L 308.203092 278.880374 
L 308.940105 276.274111 
L 309.308612 275.232965 
L 310.045626 278.592944 
L 310.414133 281.834599 
L 310.78264 286.071778 
L 311.519653 277.285661 
L 311.88816 278.153822 
L 312.993681 277.411308 
L 313.362188 278.839904 
L 313.730694 278.446879 
L 314.099201 274.671988 
L 314.467708 274.541641 
L 314.836215 273.17901 
L 315.204722 277.483911 
L 315.573229 275.444409 
L 315.941736 276.144349 
L 316.310242 277.171226 
L 316.678749 275.254154 
L 317.047256 271.954614 
L 317.415763 278.049823 
L 317.78427 276.016656 
L 318.152777 278.274895 
L 318.521284 279.810145 
L 318.889791 273.865707 
L 319.258297 272.980062 
L 319.626804 274.604867 
L 319.995311 277.972607 
L 320.363818 279.634739 
L 320.732325 277.836524 
L 321.100832 278.102969 
L 321.469339 279.490978 
L 321.837845 277.779131 
L 322.574859 277.862063 
L 322.943366 279.7707 
L 323.311873 275.37986 
L 323.68038 273.705047 
L 324.048887 275.629763 
L 324.417393 273.158279 
L 324.7859 274.781703 
L 325.154407 272.691021 
L 325.891421 274.389508 
L 326.259928 274.319561 
L 326.628435 275.116983 
L 326.996941 272.81599 
L 327.365448 272.406745 
L 327.733955 273.558957 
L 328.102462 273.022367 
L 328.470969 271.343122 
L 328.839476 272.567747 
L 329.207983 272.551683 
L 329.57649 276.096064 
L 329.944996 284.702275 
L 330.313503 280.026851 
L 330.68201 278.702391 
L 331.050517 274.485351 
L 331.419024 272.714339 
L 331.787531 276.837953 
L 332.156038 272.555924 
L 332.524544 271.711662 
L 332.893051 274.810609 
L 333.261558 273.824573 
L 333.630065 273.800421 
L 333.998572 272.253119 
L 334.367079 269.204321 
L 334.735586 274.558217 
L 335.104092 274.612423 
L 335.472599 263.71093 
L 335.841106 273.983383 
L 336.209613 273.038763 
L 336.57812 277.79726 
L 337.315134 273.18187 
L 337.68364 276.102282 
L 338.052147 276.065786 
L 338.420654 274.015764 
L 338.789161 274.128481 
L 339.157668 278.402128 
L 339.526175 272.443432 
L 339.894682 274.776832 
L 340.263189 278.576646 
L 340.631695 280.342025 
L 341.000202 277.976014 
L 341.368709 279.424774 
L 342.105723 279.072722 
L 342.47423 277.880333 
L 342.842737 276.24679 
L 343.211243 273.606364 
L 343.57975 272.442261 
L 343.948257 272.935638 
L 344.316764 272.248409 
L 344.685271 270.417153 
L 345.053778 274.239421 
L 345.422285 274.560999 
L 345.790791 271.552901 
L 346.159298 271.068852 
L 346.527805 274.591727 
L 346.896312 270.890459 
L 347.264819 275.782862 
L 347.633326 271.13673 
L 348.001833 270.837825 
L 348.370339 272.740536 
L 348.738846 276.686958 
L 349.107353 282.096138 
L 349.844367 273.275579 
L 350.212874 272.048211 
L 350.581381 271.893531 
L 350.949888 275.149448 
L 351.686901 272.455938 
L 352.055408 275.011754 
L 352.423915 275.195238 
L 352.792422 270.884992 
L 353.160929 274.615537 
L 353.529436 276.476456 
L 353.897942 271.648148 
L 354.266449 276.690467 
L 355.003463 271.206072 
L 355.740477 276.404541 
L 356.108984 271.919738 
L 356.47749 270.73201 
L 356.845997 275.407268 
L 357.214504 274.917859 
L 357.583011 272.768837 
L 357.951518 277.006037 
L 358.320025 277.902211 
L 358.688532 276.598608 
L 359.057038 277.707309 
L 359.425545 277.493976 
L 359.794052 278.119785 
L 360.162559 276.694606 
L 360.531066 278.41685 
L 360.899573 276.256733 
L 361.26808 278.993418 
L 362.005093 270.378499 
L 362.3736 270.401416 
L 362.742107 273.347352 
L 363.110614 272.58857 
L 363.479121 269.381187 
L 363.847628 272.164935 
L 364.216135 271.321942 
L 364.584641 273.227016 
L 364.953148 270.022757 
L 365.690162 272.915786 
L 366.058669 270.820477 
L 366.427176 274.341741 
L 366.795683 270.685746 
L 367.164189 272.40614 
L 367.532696 271.101278 
L 367.901203 275.303308 
L 368.26971 283.978114 
L 368.638217 281.906738 
L 369.006724 274.995788 
L 369.375231 274.22651 
L 369.743737 271.934011 
L 370.112244 271.494639 
L 370.480751 274.28837 
L 370.849258 273.007587 
L 371.217765 274.333682 
L 371.586272 272.04683 
L 371.954779 295.488 
L 372.691792 295.488 
L 373.060299 273.387935 
L 373.797313 275.600471 
L 374.16582 270.773793 
L 374.534327 269.872391 
L 374.902834 273.704139 
L 375.27134 272.087744 
L 375.639847 270.986457 
L 376.008354 271.003551 
L 376.376861 269.063723 
L 376.745368 275.078094 
L 377.113875 272.982068 
L 377.482382 277.318473 
L 377.850888 275.284315 
L 378.219395 279.485301 
L 378.587902 276.01776 
L 379.324916 278.455392 
L 379.693423 278.320295 
L 380.06193 277.210037 
L 380.430436 278.375511 
L 380.798943 273.944958 
L 381.16745 271.952027 
L 381.535957 272.150165 
L 382.272971 271.954834 
L 382.641478 276.267755 
L 383.009985 272.47086 
L 383.378491 272.609754 
L 383.746998 270.953192 
L 384.115505 272.774651 
L 384.484012 271.221477 
L 384.852519 273.641689 
L 385.221026 271.845529 
L 385.589533 268.703295 
L 385.958039 275.283197 
L 386.326546 270.055519 
L 386.695053 271.4681 
L 387.800574 287.207419 
L 388.169081 276.281628 
L 388.537587 272.348185 
L 389.274601 274.317345 
L 389.643108 271.906803 
L 390.380122 273.137441 
L 390.748629 270.211181 
L 391.117135 273.787315 
L 391.854149 270.196542 
L 392.591163 277.132045 
L 392.95967 273.489791 
L 393.328177 272.074155 
L 393.696684 277.036671 
L 394.06519 273.415035 
L 394.802204 271.877076 
L 395.170711 273.322278 
L 395.539218 276.189558 
L 395.907725 273.990885 
L 396.276232 275.176451 
L 396.644738 271.560067 
L 397.013245 278.88115 
L 397.381752 277.474691 
L 397.750259 275.192007 
L 398.118766 279.82 
L 398.487273 293.757644 
L 398.487273 293.757644 
" clip-path="url(#paca81e285b)" style="fill: none; stroke: #2ca02c; stroke-width: 1.5; stroke-linecap: square"/>
   </g>
   <g id="patch_3">
    <path d="M 57.6 307.584 
L 57.6 41.472 
" style="fill: none; stroke: #000000; stroke-width: 0.8; stroke-linejoin: miter; stroke-linecap: square"/>
   </g>
   <g id="patch_4">
    <path d="M 414.72 307.584 
L 414.72 41.472 
" style="fill: none; stroke: #000000; stroke-width: 0.8; stroke-linejoin: miter; stroke-linecap: square"/>
   </g>
   <g id="patch_5">
    <path d="M 57.6 307.584 
L 414.72 307.584 
" style="fill: none; stroke: #000000; stroke-width: 0.8; stroke-linejoin: miter; stroke-linecap: square"/>
   </g>
   <g id="patch_6">
    <path d="M 57.6 41.472 
L 414.72 41.472 
" style="fill: none; stroke: #000000; stroke-width: 0.8; stroke-linejoin: miter; stroke-linecap: square"/>
   </g>
   <g id="legend_1">
    <g id="patch_7">
     <path d="M 64.6 93.506375 
L 186.25625 93.506375 
Q 188.25625 93.506375 188.25625 91.506375 
L 188.25625 48.472 
Q 188.25625 46.472 186.25625 46.472 
L 64.6 46.472 
Q 62.6 46.472 62.6 48.472 
L 62.6 91.506375 
Q 62.6 93.506375 64.6 93.506375 
z
" style="fill: #ffffff; opacity: 0.8; stroke: #cccccc; stroke-linejoin: miter"/>
    </g>
    <g id="line2d_20">
     <path d="M 66.6 54.570438 
L 76.6 54.570438 
L 86.6 54.570438 
" style="fill: none; stroke: #1f77b4; stroke-width: 1.5; stroke-linecap: square"/>
    </g>
    <g id="text_19">
     <!-- Weekly maximum -->
     <g transform="translate(94.6 58.070438) scale(0.1 -0.1)">
      <defs>
       <path id="DejaVuSans-57" d="M 213 4666 
L 850 4666 
L 1831 722 
L 2809 4666 
L 3519 4666 
L 4500 722 
L 5478 4666 
L 6119 4666 
L 4947 0 
L 4153 0 
L 3169 4050 
L 2175 0 
L 1381 0 
L 213 4666 
z
" transform="scale(0.015625)"/>
       <path id="DejaVuSans-6b" d="M 581 4863 
L 1159 4863 
L 1159 1991 
L 2875 3500 
L 3609 3500 
L 1753 1863 
L 3688 0 
L 2938 0 
L 1159 1709 
L 1159 0 
L 581 0 
L 581 4863 
z
" transform="scale(0.015625)"/>
       <path id="DejaVuSans-79" d="M 2059 -325 
Q 1816 -950 1584 -1140 
Q 1353 -1331 966 -1331 
L 506 -1331 
L 506 -850 
L 844 -850 
Q 1081 -850 1212 -737 
Q 1344 -625 1503 -206 
L 1606 56 
L 191 3500 
L 800 3500 
L 1894 763 
L 2988 3500 
L 3597 3500 
L 2059 -325 
z
" transform="scale(0.015625)"/>
       <path id="DejaVuSans-6d" d="M 3328 2828 
Q 3544 3216 3844 3400 
Q 4144 3584 4550 3584 
Q 5097 3584 5394 3201 
Q 5691 2819 5691 2113 
L 5691 0 
L 5113 0 
L 5113 2094 
Q 5113 2597 4934 2840 
Q 4756 3084 4391 3084 
Q 3944 3084 3684 2787 
Q 3425 2491 3425 1978 
L 3425 0 
L 2847 0 
L 2847 2094 
Q 2847 2600 2669 2842 
Q 2491 3084 2119 3084 
Q 1678 3084 1418 2786 
Q 1159 2488 1159 1978 
L 1159 0 
L 581 0 
L 581 3500 
L 1159 3500 
L 1159 2956 
Q 1356 3278 1631 3431 
Q 1906 3584 2284 3584 
Q 2666 3584 2933 3390 
Q 3200 3197 3328 2828 
z
" transform="scale(0.015625)"/>
       <path id="DejaVuSans-78" d="M 3513 3500 
L 2247 1797 
L 3578 0 
L 2900 0 
L 1881 1375 
L 863 0 
L 184 0 
L 1544 1831 
L 300 3500 
L 978 3500 
L 1906 2253 
L 2834 3500 
L 3513 3500 
z
" transform="scale(0.015625)"/>
       <path id="DejaVuSans-75" d="M 544 1381 
L 544 3500 
L 1119 3500 
L 1119 1403 
Q 1119 906 1312 657 
Q 1506 409 1894 409 
Q 2359 409 2629 706 
Q 2900 1003 2900 1516 
L 2900 3500 
L 3475 3500 
L 3475 0 
L 2900 0 
L 2900 538 
Q 2691 219 2414 64 
Q 2138 -91 1772 -91 
Q 1169 -91 856 284 
Q 544 659 544 1381 
z
M 1991 3584 
L 1991 3584 
z
" transform="scale(0.015625)"/>
      </defs>
      <use xlink:href="#DejaVuSans-57"/>
      <use xlink:href="#DejaVuSans-65" transform="translate(93.001953 0)"/>
      <use xlink:href="#DejaVuSans-65" transform="translate(154.525391 0)"/>
      <use xlink:href="#DejaVuSans-6b" transform="translate(216.048828 0)"/>
      <use xlink:href="#DejaVuSans-6c" transform="translate(273.958984 0)"/>
      <use xlink:href="#DejaVuSans-79" transform="translate(301.742188 0)"/>
      <use xlink:href="#DejaVuSans-20" transform="translate(360.921875 0)"/>
      <use xlink:href="#DejaVuSans-6d" transform="translate(392.708984 0)"/>
      <use xlink:href="#DejaVuSans-61" transform="translate(490.121094 0)"/>
      <use xlink:href="#DejaVuSans-78" transform="translate(551.400391 0)"/>
      <use xlink:href="#DejaVuSans-69" transform="translate(610.580078 0)"/>
      <use xlink:href="#DejaVuSans-6d" transform="translate(638.363281 0)"/>
      <use xlink:href="#DejaVuSans-75" transform="translate(735.775391 0)"/>
      <use xlink:href="#DejaVuSans-6d" transform="translate(799.154297 0)"/>
     </g>
    </g>
    <g id="line2d_21">
     <path d="M 66.6 69.248563 
L 76.6 69.248563 
L 86.6 69.248563 
" style="fill: none; stroke: #ff7f0e; stroke-width: 1.5; stroke-linecap: square"/>
    </g>
    <g id="text_20">
     <!-- Weekly minimum -->
     <g transform="translate(94.6 72.748563) scale(0.1 -0.1)">
      <defs>
       <path id="DejaVuSans-6e" d="M 3513 2113 
L 3513 0 
L 2938 0 
L 2938 2094 
Q 2938 2591 2744 2837 
Q 2550 3084 2163 3084 
Q 1697 3084 1428 2787 
Q 1159 2491 1159 1978 
L 1159 0 
L 581 0 
L 581 3500 
L 1159 3500 
L 1159 2956 
Q 1366 3272 1645 3428 
Q 1925 3584 2291 3584 
Q 2894 3584 3203 3211 
Q 3513 2838 3513 2113 
z
" transform="scale(0.015625)"/>
      </defs>
      <use xlink:href="#DejaVuSans-57"/>
      <use xlink:href="#DejaVuSans-65" transform="translate(93.001953 0)"/>
      <use xlink:href="#DejaVuSans-65" transform="translate(154.525391 0)"/>
      <use xlink:href="#DejaVuSans-6b" transform="translate(216.048828 0)"/>
      <use xlink:href="#DejaVuSans-6c" transform="translate(273.958984 0)"/>
      <use xlink:href="#DejaVuSans-79" transform="translate(301.742188 0)"/>
      <use xlink:href="#DejaVuSans-20" transform="translate(360.921875 0)"/>
      <use xlink:href="#DejaVuSans-6d" transform="translate(392.708984 0)"/>
      <use xlink:href="#DejaVuSans-69" transform="translate(490.121094 0)"/>
      <use xlink:href="#DejaVuSans-6e" transform="translate(517.904297 0)"/>
      <use xlink:href="#DejaVuSans-69" transform="translate(581.283203 0)"/>
      <use xlink:href="#DejaVuSans-6d" transform="translate(609.066406 0)"/>
      <use xlink:href="#DejaVuSans-75" transform="translate(706.478516 0)"/>
      <use xlink:href="#DejaVuSans-6d" transform="translate(769.857422 0)"/>
     </g>
    </g>
    <g id="line2d_22">
     <path d="M 66.6 83.926688 
L 76.6 83.926688 
L 86.6 83.926688 
" style="fill: none; stroke: #2ca02c; stroke-width: 1.5; stroke-linecap: square"/>
    </g>
    <g id="text_21">
     <!-- Weekly range -->
     <g transform="translate(94.6 87.426688) scale(0.1 -0.1)">
      <use xlink:href="#DejaVuSans-57"/>
      <use xlink:href="#DejaVuSans-65" transform="translate(93.001953 0)"/>
      <use xlink:href="#DejaVuSans-65" transform="translate(154.525391 0)"/>
      <use xlink:href="#DejaVuSans-6b" transform="translate(216.048828 0)"/>
      <use xlink:href="#DejaVuSans-6c" transform="translate(273.958984 0)"/>
      <use xlink:href="#DejaVuSans-79" transform="translate(301.742188 0)"/>
      <use xlink:href="#DejaVuSans-20" transform="translate(360.921875 0)"/>
      <use xlink:href="#DejaVuSans-72" transform="translate(392.708984 0)"/>
      <use xlink:href="#DejaVuSans-61" transform="translate(433.822266 0)"/>
      <use xlink:href="#DejaVuSans-6e" transform="translate(495.101562 0)"/>
      <use xlink:href="#DejaVuSans-67" transform="translate(558.480469 0)"/>
      <use xlink:href="#DejaVuSans-65" transform="translate(621.957031 0)"/>
     </g>
    </g>
   </g>
  </g>
 </g>
 <defs>
  <clipPath id="paca81e285b">
   <rect x="57.6" y="41.472" width="357.12" height="266.112"/>
  </clipPath>
 </defs>
</svg>
