<?xml version="1.0" encoding="utf-8" standalone="no"?>
<!DOCTYPE svg PUBLIC "-//W3C//DTD SVG 1.1//EN"
  "http://www.w3.org/Graphics/SVG/1.1/DTD/svg11.dtd">
<svg xmlns:xlink="http://www.w3.org/1999/xlink" width="460.8pt" height="345.6pt" viewBox="0 0 460.8 345.6" xmlns="http://www.w3.org/2000/svg" version="1.1">
 <metadata>
  <rdf:RDF xmlns:dc="http://purl.org/dc/elements/1.1/" xmlns:cc="http://creativecommons.org/ns#" xmlns:rdf="http://www.w3.org/1999/02/22-rdf-syntax-ns#">
   <cc:Work>
    <dc:type rdf:resource="http://purl.org/dc/dcmitype/StillImage"/>
    <dc:date>2026-04-21T07:08:52.422536</dc:date>
    <dc:format>image/svg+xml</dc:format>
    <dc:creator>
     <cc:Agent>
      <dc:title>Matplotlib v3.10.8, https://matplotlib.org/</dc:title>
     </cc:Agent>
    </dc:creator>
   </cc:Work>
  </rdf:RDF>
 </metadata>
 <defs>
  <style type="text/css">*{stroke-linejoin: round; stroke-linecap: butt}</style>
 </defs>
 <g id="figure_1">
  <g id="patch_1">
   <path d="M 0 345.6 
L 460.8 345.6 
L 460.8 0 
L 0 0 
z
" style="fill: #ffffff"/>
  </g>
  <g id="axes_1">
   <g id="patch_2">
    <path d="M 57.6 307.584 
L 414.72 307.584 
L 414.72 41.472 
L 57.6 41.472 
z
" style="fill: #ffffff"/>
   </g>
   <g id="matplotlib.axis_1">
    <g id="xtick_1">
     <g id="line2d_1">
      <defs>
       <path id="mf064969eea" d="M 0 0 
L 0 3.5 
" style="stroke: #000000; stroke-width: 0.8"/>
      </defs>
      <g>
       <use xlink:href="#mf064969eea" x="61.518767" y="307.584" style="stroke: #000000; stroke-width: 0.8"/>
      </g>
     </g>
     <g id="text_1">
      <!-- 2008 -->
      <g transform="translate(48.793767 322.182437) scale(0.1 -0.1)">
       <defs>
        <path id="DejaVuSans-32" d="M 1228 531 
L 3431 531 
L 3431 0 
L 469 0 
L 469 531 
Q 828 903 1448 1529 
Q 2069 2156 2228 2338 
Q 2531 2678 2651 2914 
Q 2772 3150 2772 3378 
Q 2772 3750 2511 3984 
Q 2250 4219 1831 4219 
Q 1534 4219 1204 4116 
Q 875 4013 500 3803 
L 500 4441 
Q 881 4594 1212 4672 
Q 1544 4750 1819 4750 
Q 2544 4750 2975 4387 
Q 3406 4025 3406 3419 
Q 3406 3131 3298 2873 
Q 3191 2616 2906 2266 
Q 2828 2175 2409 1742 
Q 1991 1309 1228 531 
z
" transform="scale(0.015625)"/>
        <path id="DejaVuSans-30" d="M 2034 4250 
Q 1547 4250 1301 3770 
Q 1056 3291 1056 2328 
Q 1056 1369 1301 889 
Q 1547 409 2034 409 
Q 2525 409 2770 889 
Q 3016 1369 3016 2328 
Q 3016 3291 2770 3770 
Q 2525 4250 2034 4250 
z
M 2034 4750 
Q 2819 4750 3233 4129 
Q 3647 3509 3647 2328 
Q 3647 1150 3233 529 
Q 2819 -91 2034 -91 
Q 1250 -91 836 529 
Q 422 1150 422 2328 
Q 422 3509 836 4129 
Q 1250 4750 2034 4750 
z
" transform="scale(0.015625)"/>
        <path id="DejaVuSans-38" d="M 2034 2216 
Q 1584 2216 1326 1975 
Q 1069 1734 1069 1313 
Q 1069 891 1326 650 
Q 1584 409 2034 409 
Q 2484 409 2743 651 
Q 3003 894 3003 1313 
Q 3003 1734 2745 1975 
Q 2488 2216 2034 2216 
z
M 1403 2484 
Q 997 2584 770 2862 
Q 544 3141 544 3541 
Q 544 4100 942 4425 
Q 1341 4750 2034 4750 
Q 2731 4750 3128 4425 
Q 3525 4100 3525 3541 
Q 3525 3141 3298 2862 
Q 3072 2584 2669 2484 
Q 3125 2378 3379 2068 
Q 3634 1759 3634 1313 
Q 3634 634 3220 271 
Q 2806 -91 2034 -91 
Q 1263 -91 848 271 
Q 434 634 434 1313 
Q 434 1759 690 2068 
Q 947 2378 1403 2484 
z
M 1172 3481 
Q 1172 3119 1398 2916 
Q 1625 2713 2034 2713 
Q 2441 2713 2670 2916 
Q 2900 3119 2900 3481 
Q 2900 3844 2670 4047 
Q 2441 4250 2034 4250 
Q 1625 4250 1398 4047 
Q 1172 3844 1172 3481 
z
" transform="scale(0.015625)"/>
       </defs>
       <use xlink:href="#DejaVuSans-32"/>
       <use xlink:href="#DejaVuSans-30" transform="translate(63.623047 0)"/>
       <use xlink:href="#DejaVuSans-30" transform="translate(127.246094 0)"/>
       <use xlink:href="#DejaVuSans-38" transform="translate(190.869141 0)"/>
      </g>
     </g>
    </g>
    <g id="xtick_2">
     <g id="line2d_2">
      <g>
       <use xlink:href="#mf064969eea" x="98.410182" y="307.584" style="stroke: #000000; stroke-width: 0.8"/>
      </g>
     </g>
     <g id="text_2">
      <!-- 2010 -->
      <g transform="translate(85.685182 322.182437) scale(0.1 -0.1)">
       <defs>
        <path id="DejaVuSans-31" d="M 794 531 
L 1825 531 
L 1825 4091 
L 703 3866 
L 703 4441 
L 1819 4666 
L 2450 4666 
L 2450 531 
L 3481 531 
L 3481 0 
L 794 0 
L 794 531 
z
" transform="scale(0.015625)"/>
       </defs>
       <use xlink:href="#DejaVuSans-32"/>
       <use xlink:href="#DejaVuSans-30" transform="translate(63.623047 0)"/>
       <use xlink:href="#DejaVuSans-31" transform="translate(127.246094 0)"/>
       <use xlink:href="#DejaVuSans-30" transform="translate(190.869141 0)"/>
      </g>
     </g>
    </g>
    <g id="xtick_3">
     <g id="line2d_3">
      <g>
       <use xlink:href="#mf064969eea" x="135.25113" y="307.584" style="stroke: #000000; stroke-width: 0.8"/>
      </g>
     </g>
     <g id="text_3">
      <!-- 2012 -->
      <g transform="translate(122.52613 322.182437) scale(0.1 -0.1)">
       <use xlink:href="#DejaVuSans-32"/>
       <use xlink:href="#DejaVuSans-30" transform="translate(63.623047 0)"/>
       <use xlink:href="#DejaVuSans-31" transform="translate(127.246094 0)"/>
       <use xlink:href="#DejaVuSans-32" transform="translate(190.869141 0)"/>
      </g>
     </g>
    </g>
    <g id="xtick_4">
     <g id="line2d_4">
      <g>
       <use xlink:href="#mf064969eea" x="172.142545" y="307.584" style="stroke: #000000; stroke-width: 0.8"/>
      </g>
     </g>
     <g id="text_4">
      <!-- 2014 -->
      <g transform="translate(159.417545 322.182437) scale(0.1 -0.1)">
       <defs>
        <path id="DejaVuSans-34" d="M 2419 4116 
L 825 1625 
L 2419 1625 
L 2419 4116 
z
M 2253 4666 
L 3047 4666 
L 3047 1625 
L 3713 1625 
L 3713 1100 
L 3047 1100 
L 3047 0 
L 2419 0 
L 2419 1100 
L 313 1100 
L 313 1709 
L 2253 4666 
z
" transform="scale(0.015625)"/>
       </defs>
       <use xlink:href="#DejaVuSans-32"/>
       <use xlink:href="#DejaVuSans-30" transform="translate(63.623047 0)"/>
       <use xlink:href="#DejaVuSans-31" transform="translate(127.246094 0)"/>
       <use xlink:href="#DejaVuSans-34" transform="translate(190.869141 0)"/>
      </g>
     </g>
    </g>
    <g id="xtick_5">
     <g id="line2d_5">
      <g>
       <use xlink:href="#mf064969eea" x="208.983493" y="307.584" style="stroke: #000000; stroke-width: 0.8"/>
      </g>
     </g>
     <g id="text_5">
      <!-- 2016 -->
      <g transform="translate(196.258493 322.182437) scale(0.1 -0.1)">
       <defs>
        <path id="DejaVuSans-36" d="M 2113 2584 
Q 1688 2584 1439 2293 
Q 1191 2003 1191 1497 
Q 1191 994 1439 701 
Q 1688 409 2113 409 
Q 2538 409 2786 701 
Q 3034 994 3034 1497 
Q 3034 2003 2786 2293 
Q 2538 2584 2113 2584 
z
M 3366 4563 
L 3366 3988 
Q 3128 4100 2886 4159 
Q 2644 4219 2406 4219 
Q 1781 4219 1451 3797 
Q 1122 3375 1075 2522 
Q 1259 2794 1537 2939 
Q 1816 3084 2150 3084 
Q 2853 3084 3261 2657 
Q 3669 2231 3669 1497 
Q 3669 778 3244 343 
Q 2819 -91 2113 -91 
Q 1303 -91 875 529 
Q 447 1150 447 2328 
Q 447 3434 972 4092 
Q 1497 4750 2381 4750 
Q 2619 4750 2861 4703 
Q 3103 4656 3366 4563 
z
" transform="scale(0.015625)"/>
       </defs>
       <use xlink:href="#DejaVuSans-32"/>
       <use xlink:href="#DejaVuSans-30" transform="translate(63.623047 0)"/>
       <use xlink:href="#DejaVuSans-31" transform="translate(127.246094 0)"/>
       <use xlink:href="#DejaVuSans-36" transform="translate(190.869141 0)"/>
      </g>
     </g>
    </g>
    <g id="xtick_6">
     <g id="line2d_6">
      <g>
       <use xlink:href="#mf064969eea" x="245.874908" y="307.584" style="stroke: #000000; stroke-width: 0.8"/>
      </g>
     </g>
     <g id="text_6">
      <!-- 2018 -->
      <g transform="translate(233.149908 322.182437) scale(0.1 -0.1)">
       <use xlink:href="#DejaVuSans-32"/>
       <use xlink:href="#DejaVuSans-30" transform="translate(63.623047 0)"/>
       <use xlink:href="#DejaVuSans-31" transform="translate(127.246094 0)"/>
       <use xlink:href="#DejaVuSans-38" transform="translate(190.869141 0)"/>
      </g>
     </g>
    </g>
    <g id="xtick_7">
     <g id="line2d_7">
      <g>
       <use xlink:href="#mf064969eea" x="282.715855" y="307.584" style="stroke: #000000; stroke-width: 0.8"/>
      </g>
     </g>
     <g id="text_7">
      <!-- 2020 -->
      <g transform="translate(269.990855 322.182437) scale(0.1 -0.1)">
       <use xlink:href="#DejaVuSans-32"/>
       <use xlink:href="#DejaVuSans-30" transform="translate(63.623047 0)"/>
       <use xlink:href="#DejaVuSans-32" transform="translate(127.246094 0)"/>
       <use xlink:href="#DejaVuSans-30" transform="translate(190.869141 0)"/>
      </g>
     </g>
    </g>
    <g id="xtick_8">
     <g id="line2d_8">
      <g>
       <use xlink:href="#mf064969eea" x="319.60727" y="307.584" style="stroke: #000000; stroke-width: 0.8"/>
      </g>
     </g>
     <g id="text_8">
      <!-- 2022 -->
      <g transform="translate(306.88227 322.182437) scale(0.1 -0.1)">
       <use xlink:href="#DejaVuSans-32"/>
       <use xlink:href="#DejaVuSans-30" transform="translate(63.623047 0)"/>
       <use xlink:href="#DejaVuSans-32" transform="translate(127.246094 0)"/>
       <use xlink:href="#DejaVuSans-32" transform="translate(190.869141 0)"/>
      </g>
     </g>
    </g>
    <g id="xtick_9">
     <g id="line2d_9">
      <g>
       <use xlink:href="#mf064969eea" x="356.448218" y="307.584" style="stroke: #000000; stroke-width: 0.8"/>
      </g>
     </g>
     <g id="text_9">
      <!-- 2024 -->
      <g transform="translate(343.723218 322.182437) scale(0.1 -0.1)">
       <use xlink:href="#DejaVuSans-32"/>
       <use xlink:href="#DejaVuSans-30" transform="translate(63.623047 0)"/>
       <use xlink:href="#DejaVuSans-32" transform="translate(127.246094 0)"/>
       <use xlink:href="#DejaVuSans-34" transform="translate(190.869141 0)"/>
      </g>
     </g>
    </g>
    <g id="xtick_10">
     <g id="line2d_10">
      <g>
       <use xlink:href="#mf064969eea" x="393.339633" y="307.584" style="stroke: #000000; stroke-width: 0.8"/>
      </g>
     </g>
     <g id="text_10">
      <!-- 2026 -->
      <g transform="translate(380.614633 322.182437) scale(0.1 -0.1)">
       <use xlink:href="#DejaVuSans-32"/>
       <use xlink:href="#DejaVuSans-30" transform="translate(63.623047 0)"/>
       <use xlink:href="#DejaVuSans-32" transform="translate(127.246094 0)"/>
       <use xlink:href="#DejaVuSans-36" transform="translate(190.869141 0)"/>
      </g>
     </g>
    </g>
    <g id="text_11">
     <!-- Updated 2026-04-21 07:08:52.421130 - Last record 2026-04-18 -->
     <g transform="translate(75.905312 335.860562) scale(0.1 -0.1)">
      <defs>
       <path id="DejaVuSans-55" d="M 556 4666 
L 1191 4666 
L 1191 1831 
Q 1191 1081 1462 751 
Q 1734 422 2344 422 
Q 2950 422 3222 751 
Q 3494 1081 3494 1831 
L 3494 4666 
L 4128 4666 
L 4128 1753 
Q 4128 841 3676 375 
Q 3225 -91 2344 -91 
Q 1459 -91 1007 375 
Q 556 841 556 1753 
L 556 4666 
z
" transform="scale(0.015625)"/>
       <path id="DejaVuSans-70" d="M 1159 525 
L 1159 -1331 
L 581 -1331 
L 581 3500 
L 1159 3500 
L 1159 2969 
Q 1341 3281 1617 3432 
Q 1894 3584 2278 3584 
Q 2916 3584 3314 3078 
Q 3713 2572 3713 1747 
Q 3713 922 3314 415 
Q 2916 -91 2278 -91 
Q 1894 -91 1617 61 
Q 1341 213 1159 525 
z
M 3116 1747 
Q 3116 2381 2855 2742 
Q 2594 3103 2138 3103 
Q 1681 3103 1420 2742 
Q 1159 2381 1159 1747 
Q 1159 1113 1420 752 
Q 1681 391 2138 391 
Q 2594 391 2855 752 
Q 3116 1113 3116 1747 
z
" transform="scale(0.015625)"/>
       <path id="DejaVuSans-64" d="M 2906 2969 
L 2906 4863 
L 3481 4863 
L 3481 0 
L 2906 0 
L 2906 525 
Q 2725 213 2448 61 
Q 2172 -91 1784 -91 
Q 1150 -91 751 415 
Q 353 922 353 1747 
Q 353 2572 751 3078 
Q 1150 3584 1784 3584 
Q 2172 3584 2448 3432 
Q 2725 3281 2906 2969 
z
M 947 1747 
Q 947 1113 1208 752 
Q 1469 391 1925 391 
Q 2381 391 2643 752 
Q 2906 1113 2906 1747 
Q 2906 2381 2643 2742 
Q 2381 3103 1925 3103 
Q 1469 3103 1208 2742 
Q 947 2381 947 1747 
z
" transform="scale(0.015625)"/>
       <path id="DejaVuSans-61" d="M 2194 1759 
Q 1497 1759 1228 1600 
Q 959 1441 959 1056 
Q 959 750 1161 570 
Q 1363 391 1709 391 
Q 2188 391 2477 730 
Q 2766 1069 2766 1631 
L 2766 1759 
L 2194 1759 
z
M 3341 1997 
L 3341 0 
L 2766 0 
L 2766 531 
Q 2569 213 2275 61 
Q 1981 -91 1556 -91 
Q 1019 -91 701 211 
Q 384 513 384 1019 
Q 384 1609 779 1909 
Q 1175 2209 1959 2209 
L 2766 2209 
L 2766 2266 
Q 2766 2663 2505 2880 
Q 2244 3097 1772 3097 
Q 1472 3097 1187 3025 
Q 903 2953 641 2809 
L 641 3341 
Q 956 3463 1253 3523 
Q 1550 3584 1831 3584 
Q 2591 3584 2966 3190 
Q 3341 2797 3341 1997 
z
" transform="scale(0.015625)"/>
       <path id="DejaVuSans-74" d="M 1172 4494 
L 1172 3500 
L 2356 3500 
L 2356 3053 
L 1172 3053 
L 1172 1153 
Q 1172 725 1289 603 
Q 1406 481 1766 481 
L 2356 481 
L 2356 0 
L 1766 0 
Q 1100 0 847 248 
Q 594 497 594 1153 
L 594 3053 
L 172 3053 
L 172 3500 
L 594 3500 
L 594 4494 
L 1172 4494 
z
" transform="scale(0.015625)"/>
       <path id="DejaVuSans-65" d="M 3597 1894 
L 3597 1613 
L 953 1613 
Q 991 1019 1311 708 
Q 1631 397 2203 397 
Q 2534 397 2845 478 
Q 3156 559 3463 722 
L 3463 178 
Q 3153 47 2828 -22 
Q 2503 -91 2169 -91 
Q 1331 -91 842 396 
Q 353 884 353 1716 
Q 353 2575 817 3079 
Q 1281 3584 2069 3584 
Q 2775 3584 3186 3129 
Q 3597 2675 3597 1894 
z
M 3022 2063 
Q 3016 2534 2758 2815 
Q 2500 3097 2075 3097 
Q 1594 3097 1305 2825 
Q 1016 2553 972 2059 
L 3022 2063 
z
" transform="scale(0.015625)"/>
       <path id="DejaVuSans-20" transform="scale(0.015625)"/>
       <path id="DejaVuSans-2d" d="M 313 2009 
L 1997 2009 
L 1997 1497 
L 313 1497 
L 313 2009 
z
" transform="scale(0.015625)"/>
       <path id="DejaVuSans-37" d="M 525 4666 
L 3525 4666 
L 3525 4397 
L 1831 0 
L 1172 0 
L 2766 4134 
L 525 4134 
L 525 4666 
z
" transform="scale(0.015625)"/>
       <path id="DejaVuSans-3a" d="M 750 794 
L 1409 794 
L 1409 0 
L 750 0 
L 750 794 
z
M 750 3309 
L 1409 3309 
L 1409 2516 
L 750 2516 
L 750 3309 
z
" transform="scale(0.015625)"/>
       <path id="DejaVuSans-35" d="M 691 4666 
L 3169 4666 
L 3169 4134 
L 1269 4134 
L 1269 2991 
Q 1406 3038 1543 3061 
Q 1681 3084 1819 3084 
Q 2600 3084 3056 2656 
Q 3513 2228 3513 1497 
Q 3513 744 3044 326 
Q 2575 -91 1722 -91 
Q 1428 -91 1123 -41 
Q 819 9 494 109 
L 494 744 
Q 775 591 1075 516 
Q 1375 441 1709 441 
Q 2250 441 2565 725 
Q 2881 1009 2881 1497 
Q 2881 1984 2565 2268 
Q 2250 2553 1709 2553 
Q 1456 2553 1204 2497 
Q 953 2441 691 2322 
L 691 4666 
z
" transform="scale(0.015625)"/>
       <path id="DejaVuSans-2e" d="M 684 794 
L 1344 794 
L 1344 0 
L 684 0 
L 684 794 
z
" transform="scale(0.015625)"/>
       <path id="DejaVuSans-33" d="M 2597 2516 
Q 3050 2419 3304 2112 
Q 3559 1806 3559 1356 
Q 3559 666 3084 287 
Q 2609 -91 1734 -91 
Q 1441 -91 1130 -33 
Q 819 25 488 141 
L 488 750 
Q 750 597 1062 519 
Q 1375 441 1716 441 
Q 2309 441 2620 675 
Q 2931 909 2931 1356 
Q 2931 1769 2642 2001 
Q 2353 2234 1838 2234 
L 1294 2234 
L 1294 2753 
L 1863 2753 
Q 2328 2753 2575 2939 
Q 2822 3125 2822 3475 
Q 2822 3834 2567 4026 
Q 2313 4219 1838 4219 
Q 1578 4219 1281 4162 
Q 984 4106 628 3988 
L 628 4550 
Q 988 4650 1302 4700 
Q 1616 4750 1894 4750 
Q 2613 4750 3031 4423 
Q 3450 4097 3450 3541 
Q 3450 3153 3228 2886 
Q 3006 2619 2597 2516 
z
" transform="scale(0.015625)"/>
       <path id="DejaVuSans-4c" d="M 628 4666 
L 1259 4666 
L 1259 531 
L 3531 531 
L 3531 0 
L 628 0 
L 628 4666 
z
" transform="scale(0.015625)"/>
       <path id="DejaVuSans-73" d="M 2834 3397 
L 2834 2853 
Q 2591 2978 2328 3040 
Q 2066 3103 1784 3103 
Q 1356 3103 1142 2972 
Q 928 2841 928 2578 
Q 928 2378 1081 2264 
Q 1234 2150 1697 2047 
L 1894 2003 
Q 2506 1872 2764 1633 
Q 3022 1394 3022 966 
Q 3022 478 2636 193 
Q 2250 -91 1575 -91 
Q 1294 -91 989 -36 
Q 684 19 347 128 
L 347 722 
Q 666 556 975 473 
Q 1284 391 1588 391 
Q 1994 391 2212 530 
Q 2431 669 2431 922 
Q 2431 1156 2273 1281 
Q 2116 1406 1581 1522 
L 1381 1569 
Q 847 1681 609 1914 
Q 372 2147 372 2553 
Q 372 3047 722 3315 
Q 1072 3584 1716 3584 
Q 2034 3584 2315 3537 
Q 2597 3491 2834 3397 
z
" transform="scale(0.015625)"/>
       <path id="DejaVuSans-72" d="M 2631 2963 
Q 2534 3019 2420 3045 
Q 2306 3072 2169 3072 
Q 1681 3072 1420 2755 
Q 1159 2438 1159 1844 
L 1159 0 
L 581 0 
L 581 3500 
L 1159 3500 
L 1159 2956 
Q 1341 3275 1631 3429 
Q 1922 3584 2338 3584 
Q 2397 3584 2469 3576 
Q 2541 3569 2628 3553 
L 2631 2963 
z
" transform="scale(0.015625)"/>
       <path id="DejaVuSans-63" d="M 3122 3366 
L 3122 2828 
Q 2878 2963 2633 3030 
Q 2388 3097 2138 3097 
Q 1578 3097 1268 2742 
Q 959 2388 959 1747 
Q 959 1106 1268 751 
Q 1578 397 2138 397 
Q 2388 397 2633 464 
Q 2878 531 3122 666 
L 3122 134 
Q 2881 22 2623 -34 
Q 2366 -91 2075 -91 
Q 1284 -91 818 406 
Q 353 903 353 1747 
Q 353 2603 823 3093 
Q 1294 3584 2113 3584 
Q 2378 3584 2631 3529 
Q 2884 3475 3122 3366 
z
" transform="scale(0.015625)"/>
       <path id="DejaVuSans-6f" d="M 1959 3097 
Q 1497 3097 1228 2736 
Q 959 2375 959 1747 
Q 959 1119 1226 758 
Q 1494 397 1959 397 
Q 2419 397 2687 759 
Q 2956 1122 2956 1747 
Q 2956 2369 2687 2733 
Q 2419 3097 1959 3097 
z
M 1959 3584 
Q 2709 3584 3137 3096 
Q 3566 2609 3566 1747 
Q 3566 888 3137 398 
Q 2709 -91 1959 -91 
Q 1206 -91 779 398 
Q 353 888 353 1747 
Q 353 2609 779 3096 
Q 1206 3584 1959 3584 
z
" transform="scale(0.015625)"/>
      </defs>
      <use xlink:href="#DejaVuSans-55"/>
      <use xlink:href="#DejaVuSans-70" transform="translate(73.193359 0)"/>
      <use xlink:href="#DejaVuSans-64" transform="translate(136.669922 0)"/>
      <use xlink:href="#DejaVuSans-61" transform="translate(200.146484 0)"/>
      <use xlink:href="#DejaVuSans-74" transform="translate(261.425781 0)"/>
      <use xlink:href="#DejaVuSans-65" transform="translate(300.634766 0)"/>
      <use xlink:href="#DejaVuSans-64" transform="translate(362.158203 0)"/>
      <use xlink:href="#DejaVuSans-20" transform="translate(425.634766 0)"/>
      <use xlink:href="#DejaVuSans-32" transform="translate(457.421875 0)"/>
      <use xlink:href="#DejaVuSans-30" transform="translate(521.044922 0)"/>
      <use xlink:href="#DejaVuSans-32" transform="translate(584.667969 0)"/>
      <use xlink:href="#DejaVuSans-36" transform="translate(648.291016 0)"/>
      <use xlink:href="#DejaVuSans-2d" transform="translate(711.914062 0)"/>
      <use xlink:href="#DejaVuSans-30" transform="translate(747.998047 0)"/>
      <use xlink:href="#DejaVuSans-34" transform="translate(811.621094 0)"/>
      <use xlink:href="#DejaVuSans-2d" transform="translate(875.244141 0)"/>
      <use xlink:href="#DejaVuSans-32" transform="translate(911.328125 0)"/>
      <use xlink:href="#DejaVuSans-31" transform="translate(974.951172 0)"/>
      <use xlink:href="#DejaVuSans-20" transform="translate(1038.574219 0)"/>
      <use xlink:href="#DejaVuSans-30" transform="translate(1070.361328 0)"/>
      <use xlink:href="#DejaVuSans-37" transform="translate(1133.984375 0)"/>
      <use xlink:href="#DejaVuSans-3a" transform="translate(1197.607422 0)"/>
      <use xlink:href="#DejaVuSans-30" transform="translate(1231.298828 0)"/>
      <use xlink:href="#DejaVuSans-38" transform="translate(1294.921875 0)"/>
      <use xlink:href="#DejaVuSans-3a" transform="translate(1358.544922 0)"/>
      <use xlink:href="#DejaVuSans-35" transform="translate(1392.236328 0)"/>
      <use xlink:href="#DejaVuSans-32" transform="translate(1455.859375 0)"/>
      <use xlink:href="#DejaVuSans-2e" transform="translate(1519.482422 0)"/>
      <use xlink:href="#DejaVuSans-34" transform="translate(1551.269531 0)"/>
      <use xlink:href="#DejaVuSans-32" transform="translate(1614.892578 0)"/>
      <use xlink:href="#DejaVuSans-31" transform="translate(1678.515625 0)"/>
      <use xlink:href="#DejaVuSans-31" transform="translate(1742.138672 0)"/>
      <use xlink:href="#DejaVuSans-33" transform="translate(1805.761719 0)"/>
      <use xlink:href="#DejaVuSans-30" transform="translate(1869.384766 0)"/>
      <use xlink:href="#DejaVuSans-20" transform="translate(1933.007812 0)"/>
      <use xlink:href="#DejaVuSans-2d" transform="translate(1964.794922 0)"/>
      <use xlink:href="#DejaVuSans-20" transform="translate(2000.878906 0)"/>
      <use xlink:href="#DejaVuSans-4c" transform="translate(2032.666016 0)"/>
      <use xlink:href="#DejaVuSans-61" transform="translate(2088.378906 0)"/>
      <use xlink:href="#DejaVuSans-73" transform="translate(2149.658203 0)"/>
      <use xlink:href="#DejaVuSans-74" transform="translate(2201.757812 0)"/>
      <use xlink:href="#DejaVuSans-20" transform="translate(2240.966797 0)"/>
      <use xlink:href="#DejaVuSans-72" transform="translate(2272.753906 0)"/>
      <use xlink:href="#DejaVuSans-65" transform="translate(2311.617188 0)"/>
      <use xlink:href="#DejaVuSans-63" transform="translate(2373.140625 0)"/>
      <use xlink:href="#DejaVuSans-6f" transform="translate(2428.121094 0)"/>
      <use xlink:href="#DejaVuSans-72" transform="translate(2489.302734 0)"/>
      <use xlink:href="#DejaVuSans-64" transform="translate(2528.666016 0)"/>
      <use xlink:href="#DejaVuSans-20" transform="translate(2592.142578 0)"/>
      <use xlink:href="#DejaVuSans-32" transform="translate(2623.929688 0)"/>
      <use xlink:href="#DejaVuSans-30" transform="translate(2687.552734 0)"/>
      <use xlink:href="#DejaVuSans-32" transform="translate(2751.175781 0)"/>
      <use xlink:href="#DejaVuSans-36" transform="translate(2814.798828 0)"/>
      <use xlink:href="#DejaVuSans-2d" transform="translate(2878.421875 0)"/>
      <use xlink:href="#DejaVuSans-30" transform="translate(2914.505859 0)"/>
      <use xlink:href="#DejaVuSans-34" transform="translate(2978.128906 0)"/>
      <use xlink:href="#DejaVuSans-2d" transform="translate(3041.751953 0)"/>
      <use xlink:href="#DejaVuSans-31" transform="translate(3077.835938 0)"/>
      <use xlink:href="#DejaVuSans-38" transform="translate(3141.458984 0)"/>
     </g>
    </g>
   </g>
   <g id="matplotlib.axis_2">
    <g id="ytick_1">
     <g id="line2d_11">
      <defs>
       <path id="m69ab7718b2" d="M 0 0 
L -3.5 0 
" style="stroke: #000000; stroke-width: 0.8"/>
      </defs>
      <g>
       <use xlink:href="#m69ab7718b2" x="57.6" y="295.488" style="stroke: #000000; stroke-width: 0.8"/>
      </g>
     </g>
     <g id="text_12">
      <!-- 0 -->
      <g transform="translate(44.2375 299.287219) scale(0.1 -0.1)">
       <use xlink:href="#DejaVuSans-30"/>
      </g>
     </g>
    </g>
    <g id="ytick_2">
     <g id="line2d_12">
      <g>
       <use xlink:href="#m69ab7718b2" x="57.6" y="247.258184" style="stroke: #000000; stroke-width: 0.8"/>
      </g>
     </g>
     <g id="text_13">
      <!-- 10 -->
      <g transform="translate(37.875 251.057403) scale(0.1 -0.1)">
       <use xlink:href="#DejaVuSans-31"/>
       <use xlink:href="#DejaVuSans-30" transform="translate(63.623047 0)"/>
      </g>
     </g>
    </g>
    <g id="ytick_3">
     <g id="line2d_13">
      <g>
       <use xlink:href="#m69ab7718b2" x="57.6" y="199.028368" style="stroke: #000000; stroke-width: 0.8"/>
      </g>
     </g>
     <g id="text_14">
      <!-- 20 -->
      <g transform="translate(37.875 202.827587) scale(0.1 -0.1)">
       <use xlink:href="#DejaVuSans-32"/>
       <use xlink:href="#DejaVuSans-30" transform="translate(63.623047 0)"/>
      </g>
     </g>
    </g>
    <g id="ytick_4">
     <g id="line2d_14">
      <g>
       <use xlink:href="#m69ab7718b2" x="57.6" y="150.798552" style="stroke: #000000; stroke-width: 0.8"/>
      </g>
     </g>
     <g id="text_15">
      <!-- 30 -->
      <g transform="translate(37.875 154.597771) scale(0.1 -0.1)">
       <use xlink:href="#DejaVuSans-33"/>
       <use xlink:href="#DejaVuSans-30" transform="translate(63.623047 0)"/>
      </g>
     </g>
    </g>
    <g id="ytick_5">
     <g id="line2d_15">
      <g>
       <use xlink:href="#m69ab7718b2" x="57.6" y="102.568736" style="stroke: #000000; stroke-width: 0.8"/>
      </g>
     </g>
     <g id="text_16">
      <!-- 40 -->
      <g transform="translate(37.875 106.367955) scale(0.1 -0.1)">
       <use xlink:href="#DejaVuSans-34"/>
       <use xlink:href="#DejaVuSans-30" transform="translate(63.623047 0)"/>
      </g>
     </g>
    </g>
    <g id="ytick_6">
     <g id="line2d_16">
      <g>
       <use xlink:href="#m69ab7718b2" x="57.6" y="54.33892" style="stroke: #000000; stroke-width: 0.8"/>
      </g>
     </g>
     <g id="text_17">
      <!-- 50 -->
      <g transform="translate(37.875 58.138139) scale(0.1 -0.1)">
       <use xlink:href="#DejaVuSans-35"/>
       <use xlink:href="#DejaVuSans-30" transform="translate(63.623047 0)"/>
      </g>
     </g>
    </g>
    <g id="text_18">
     <!-- IPv6 as % of total Google traffic -->
     <g transform="translate(31.795312 253.735813) rotate(-90) scale(0.1 -0.1)">
      <defs>
       <path id="DejaVuSans-49" d="M 628 4666 
L 1259 4666 
L 1259 0 
L 628 0 
L 628 4666 
z
" transform="scale(0.015625)"/>
       <path id="DejaVuSans-50" d="M 1259 4147 
L 1259 2394 
L 2053 2394 
Q 2494 2394 2734 2622 
Q 2975 2850 2975 3272 
Q 2975 3691 2734 3919 
Q 2494 4147 2053 4147 
L 1259 4147 
z
M 628 4666 
L 2053 4666 
Q 2838 4666 3239 4311 
Q 3641 3956 3641 3272 
Q 3641 2581 3239 2228 
Q 2838 1875 2053 1875 
L 1259 1875 
L 1259 0 
L 628 0 
L 628 4666 
z
" transform="scale(0.015625)"/>
       <path id="DejaVuSans-76" d="M 191 3500 
L 800 3500 
L 1894 563 
L 2988 3500 
L 3597 3500 
L 2284 0 
L 1503 0 
L 191 3500 
z
" transform="scale(0.015625)"/>
       <path id="DejaVuSans-25" d="M 4653 2053 
Q 4381 2053 4226 1822 
Q 4072 1591 4072 1178 
Q 4072 772 4226 539 
Q 4381 306 4653 306 
Q 4919 306 5073 539 
Q 5228 772 5228 1178 
Q 5228 1588 5073 1820 
Q 4919 2053 4653 2053 
z
M 4653 2450 
Q 5147 2450 5437 2106 
Q 5728 1763 5728 1178 
Q 5728 594 5436 251 
Q 5144 -91 4653 -91 
Q 4153 -91 3862 251 
Q 3572 594 3572 1178 
Q 3572 1766 3864 2108 
Q 4156 2450 4653 2450 
z
M 1428 4353 
Q 1159 4353 1004 4120 
Q 850 3888 850 3481 
Q 850 3069 1003 2837 
Q 1156 2606 1428 2606 
Q 1700 2606 1854 2837 
Q 2009 3069 2009 3481 
Q 2009 3884 1853 4118 
Q 1697 4353 1428 4353 
z
M 4250 4750 
L 4750 4750 
L 1831 -91 
L 1331 -91 
L 4250 4750 
z
M 1428 4750 
Q 1922 4750 2215 4408 
Q 2509 4066 2509 3481 
Q 2509 2891 2217 2550 
Q 1925 2209 1428 2209 
Q 931 2209 642 2551 
Q 353 2894 353 3481 
Q 353 4063 643 4406 
Q 934 4750 1428 4750 
z
" transform="scale(0.015625)"/>
       <path id="DejaVuSans-66" d="M 2375 4863 
L 2375 4384 
L 1825 4384 
Q 1516 4384 1395 4259 
Q 1275 4134 1275 3809 
L 1275 3500 
L 2222 3500 
L 2222 3053 
L 1275 3053 
L 1275 0 
L 697 0 
L 697 3053 
L 147 3053 
L 147 3500 
L 697 3500 
L 697 3744 
Q 697 4328 969 4595 
Q 1241 4863 1831 4863 
L 2375 4863 
z
" transform="scale(0.015625)"/>
       <path id="DejaVuSans-6c" d="M 603 4863 
L 1178 4863 
L 1178 0 
L 603 0 
L 603 4863 
z
" transform="scale(0.015625)"/>
       <path id="DejaVuSans-47" d="M 3809 666 
L 3809 1919 
L 2778 1919 
L 2778 2438 
L 4434 2438 
L 4434 434 
Q 4069 175 3628 42 
Q 3188 -91 2688 -91 
Q 1594 -91 976 548 
Q 359 1188 359 2328 
Q 359 3472 976 4111 
Q 1594 4750 2688 4750 
Q 3144 4750 3555 4637 
Q 3966 4525 4313 4306 
L 4313 3634 
Q 3963 3931 3569 4081 
Q 3175 4231 2741 4231 
Q 1884 4231 1454 3753 
Q 1025 3275 1025 2328 
Q 1025 1384 1454 906 
Q 1884 428 2741 428 
Q 3075 428 3337 486 
Q 3600 544 3809 666 
z
" transform="scale(0.015625)"/>
       <path id="DejaVuSans-67" d="M 2906 1791 
Q 2906 2416 2648 2759 
Q 2391 3103 1925 3103 
Q 1463 3103 1205 2759 
Q 947 2416 947 1791 
Q 947 1169 1205 825 
Q 1463 481 1925 481 
Q 2391 481 2648 825 
Q 2906 1169 2906 1791 
z
M 3481 434 
Q 3481 -459 3084 -895 
Q 2688 -1331 1869 -1331 
Q 1566 -1331 1297 -1286 
Q 1028 -1241 775 -1147 
L 775 -588 
Q 1028 -725 1275 -790 
Q 1522 -856 1778 -856 
Q 2344 -856 2625 -561 
Q 2906 -266 2906 331 
L 2906 616 
Q 2728 306 2450 153 
Q 2172 0 1784 0 
Q 1141 0 747 490 
Q 353 981 353 1791 
Q 353 2603 747 3093 
Q 1141 3584 1784 3584 
Q 2172 3584 2450 3431 
Q 2728 3278 2906 2969 
L 2906 3500 
L 3481 3500 
L 3481 434 
z
" transform="scale(0.015625)"/>
       <path id="DejaVuSans-69" d="M 603 3500 
L 1178 3500 
L 1178 0 
L 603 0 
L 603 3500 
z
M 603 4863 
L 1178 4863 
L 1178 4134 
L 603 4134 
L 603 4863 
z
" transform="scale(0.015625)"/>
      </defs>
      <use xlink:href="#DejaVuSans-49"/>
      <use xlink:href="#DejaVuSans-50" transform="translate(29.492188 0)"/>
      <use xlink:href="#DejaVuSans-76" transform="translate(89.794922 0)"/>
      <use xlink:href="#DejaVuSans-36" transform="translate(148.974609 0)"/>
      <use xlink:href="#DejaVuSans-20" transform="translate(212.597656 0)"/>
      <use xlink:href="#DejaVuSans-61" transform="translate(244.384766 0)"/>
      <use xlink:href="#DejaVuSans-73" transform="translate(305.664062 0)"/>
      <use xlink:href="#DejaVuSans-20" transform="translate(357.763672 0)"/>
      <use xlink:href="#DejaVuSans-25" transform="translate(389.550781 0)"/>
      <use xlink:href="#DejaVuSans-20" transform="translate(484.570312 0)"/>
      <use xlink:href="#DejaVuSans-6f" transform="translate(516.357422 0)"/>
      <use xlink:href="#DejaVuSans-66" transform="translate(577.539062 0)"/>
      <use xlink:href="#DejaVuSans-20" transform="translate(612.744141 0)"/>
      <use xlink:href="#DejaVuSans-74" transform="translate(644.53125 0)"/>
      <use xlink:href="#DejaVuSans-6f" transform="translate(683.740234 0)"/>
      <use xlink:href="#DejaVuSans-74" transform="translate(744.921875 0)"/>
      <use xlink:href="#DejaVuSans-61" transform="translate(784.130859 0)"/>
      <use xlink:href="#DejaVuSans-6c" transform="translate(845.410156 0)"/>
      <use xlink:href="#DejaVuSans-20" transform="translate(873.193359 0)"/>
      <use xlink:href="#DejaVuSans-47" transform="translate(904.980469 0)"/>
      <use xlink:href="#DejaVuSans-6f" transform="translate(982.470703 0)"/>
      <use xlink:href="#DejaVuSans-6f" transform="translate(1043.652344 0)"/>
      <use xlink:href="#DejaVuSans-67" transform="translate(1104.833984 0)"/>
      <use xlink:href="#DejaVuSans-6c" transform="translate(1168.310547 0)"/>
      <use xlink:href="#DejaVuSans-65" transform="translate(1196.09375 0)"/>
      <use xlink:href="#DejaVuSans-20" transform="translate(1257.617188 0)"/>
      <use xlink:href="#DejaVuSans-74" transform="translate(1289.404297 0)"/>
      <use xlink:href="#DejaVuSans-72" transform="translate(1328.613281 0)"/>
      <use xlink:href="#DejaVuSans-61" transform="translate(1369.726562 0)"/>
      <use xlink:href="#DejaVuSans-66" transform="translate(1431.005859 0)"/>
      <use xlink:href="#DejaVuSans-66" transform="translate(1466.210938 0)"/>
      <use xlink:href="#DejaVuSans-69" transform="translate(1501.416016 0)"/>
      <use xlink:href="#DejaVuSans-63" transform="translate(1529.199219 0)"/>
     </g>
    </g>
   </g>
   <g id="line2d_17">
    <path d="M 73.832727 294.609287 
L 75.245805 294.460358 
L 75.599074 294.602173 
L 77.365421 294.575521 
L 78.425229 294.47228 
L 78.778498 294.357966 
L 79.838306 294.37693 
L 83.017731 294.308487 
L 84.077539 294.333552 
L 85.490616 294.265461 
L 88.316771 294.324499 
L 89.02331 294.399077 
L 91.496195 294.350456 
L 92.909273 294.263889 
L 93.615812 294.271794 
L 93.969081 294.036992 
L 96.088697 293.956448 
L 97.148505 293.959819 
L 98.208313 294.045572 
L 99.268121 294.002864 
L 100.32793 294.045822 
L 102.094276 294.016277 
L 103.154084 294.187329 
L 104.213893 294.140054 
L 104.920431 294.215895 
L 105.62697 294.288409 
L 105.980239 294.216069 
L 108.099856 294.41371 
L 109.866202 294.335457 
L 110.92601 294.162558 
L 111.985819 294.146136 
L 113.045627 294.107074 
L 115.871782 294.213233 
L 116.57832 294.277866 
L 117.284859 294.282245 
L 120.111014 294.128276 
L 120.464283 294.133427 
L 120.817553 294.023752 
L 121.524091 294.11549 
L 122.23063 293.94521 
L 122.583899 293.987541 
L 122.937169 293.883003 
L 123.290438 293.928773 
L 123.996977 293.831499 
L 125.056785 293.817652 
L 125.410054 293.937672 
L 126.823132 293.964782 
L 127.529671 293.977669 
L 127.88294 293.943585 
L 128.589479 293.739809 
L 128.942748 293.62631 
L 131.415634 293.762057 
L 133.888519 293.32321 
L 134.595058 293.456406 
L 137.421213 293.032427 
L 137.774482 293.128998 
L 139.894098 292.667115 
L 140.600637 292.682226 
L 141.660445 292.369701 
L 143.426792 291.935985 
L 144.4866 291.824487 
L 144.839869 291.915564 
L 146.606216 291.572998 
L 147.666024 291.234521 
L 148.019294 291.285731 
L 148.372563 290.981874 
L 149.079102 290.800018 
L 149.432371 290.847269 
L 150.13891 290.658565 
L 150.492179 290.801089 
L 151.198718 290.628957 
L 151.551987 290.586259 
L 152.258526 290.272471 
L 152.965065 290.21638 
L 153.318334 290.247478 
L 153.671604 290.157554 
L 154.024873 290.201322 
L 154.731412 290.012392 
L 155.79122 289.873181 
L 156.144489 289.691167 
L 156.497758 289.673611 
L 156.851028 289.767727 
L 158.264105 289.087276 
L 158.617375 289.102864 
L 160.030452 288.674989 
L 160.383721 288.388243 
L 161.796799 288.049757 
L 162.503338 287.738149 
L 162.856607 287.815201 
L 163.209876 287.600718 
L 163.563146 287.563021 
L 165.329493 286.55538 
L 166.389301 286.020294 
L 167.095839 285.278775 
L 167.802378 284.383529 
L 168.155647 284.595021 
L 168.508917 284.631608 
L 169.568725 283.370119 
L 169.921994 283.218856 
L 170.275264 282.581224 
L 171.335072 282.201621 
L 171.688341 281.957902 
L 172.04161 282.002133 
L 173.101419 281.305835 
L 173.454688 281.157943 
L 173.807957 280.884441 
L 174.514496 280.819635 
L 174.867765 280.200055 
L 175.221035 280.19189 
L 175.574304 279.510706 
L 175.927573 279.157924 
L 176.634112 279.259178 
L 178.04719 278.166237 
L 178.400459 277.761946 
L 178.753728 278.009819 
L 180.166806 277.216588 
L 180.520075 276.923288 
L 180.873345 275.71801 
L 181.226614 275.946643 
L 181.933153 275.128203 
L 182.286422 275.093063 
L 182.639691 275.446881 
L 183.699499 274.6418 
L 184.052769 274.095627 
L 184.759308 274.137736 
L 185.112577 273.546762 
L 185.465846 273.506085 
L 185.819116 270.375232 
L 186.172385 272.43517 
L 186.525654 273.662311 
L 186.878924 273.066031 
L 187.232193 272.732816 
L 187.585462 272.679117 
L 187.938732 271.894886 
L 188.292001 271.649155 
L 189.351809 269.947004 
L 189.705079 268.835601 
L 190.764887 266.771389 
L 191.118156 267.679498 
L 191.471425 267.540524 
L 191.824695 267.565666 
L 192.177964 267.712367 
L 192.531234 267.986293 
L 192.884503 267.881784 
L 193.237772 265.879074 
L 193.591042 266.175302 
L 194.65085 265.120005 
L 195.004119 264.977968 
L 195.710658 265.040416 
L 196.063927 263.52654 
L 196.417197 263.471403 
L 197.123735 262.276688 
L 197.477005 262.684013 
L 197.830274 260.819299 
L 198.183543 261.260052 
L 198.536813 260.001259 
L 198.890082 259.398482 
L 199.243351 258.493392 
L 199.596621 259.121923 
L 199.94989 258.169823 
L 200.30316 256.585888 
L 200.656429 257.384043 
L 201.009698 257.611577 
L 201.362968 257.119913 
L 201.716237 255.67162 
L 202.069506 256.073929 
L 202.422776 254.795231 
L 202.776045 255.08979 
L 203.835853 252.491519 
L 204.895661 252.217227 
L 205.248931 251.208433 
L 205.6022 251.331192 
L 205.955469 250.952762 
L 206.308739 249.952933 
L 206.662008 249.699172 
L 207.368547 247.814833 
L 207.721816 247.679766 
L 208.075086 247.868407 
L 208.428355 247.38076 
L 208.781624 245.303405 
L 209.488163 246.521912 
L 209.841432 246.287843 
L 210.547971 246.217703 
L 210.90124 246.258973 
L 211.607779 246.008332 
L 211.961049 244.839541 
L 212.314318 244.784211 
L 212.667587 243.747671 
L 213.020857 243.744758 
L 213.374126 243.587297 
L 214.433934 240.622702 
L 214.787203 238.87659 
L 215.140473 240.069009 
L 215.493742 239.569218 
L 215.847012 238.536159 
L 216.200281 238.766109 
L 216.55355 236.56055 
L 216.90682 236.884134 
L 217.260089 236.613695 
L 217.613358 235.074734 
L 217.966628 235.060169 
L 218.319897 233.913042 
L 218.673166 234.189249 
L 219.026436 233.281931 
L 219.379705 232.799937 
L 219.732975 233.056003 
L 220.086244 232.434731 
L 220.439513 231.465509 
L 220.792783 231.775342 
L 221.146052 231.315669 
L 221.499321 229.790415 
L 221.852591 229.152576 
L 222.20586 229.212241 
L 222.559129 227.428601 
L 222.912399 227.745789 
L 223.618938 225.621387 
L 223.972207 223.501493 
L 224.325476 223.711018 
L 225.032015 222.518989 
L 225.385284 221.183351 
L 225.738554 221.361908 
L 226.091823 220.802157 
L 226.445092 218.690309 
L 226.798362 217.949359 
L 227.151631 214.448009 
L 227.504901 216.724461 
L 227.85817 216.31173 
L 228.211439 216.854619 
L 228.564709 216.217113 
L 229.271247 217.252477 
L 229.624517 217.046072 
L 229.977786 216.138479 
L 230.331055 216.411431 
L 231.037594 215.255492 
L 231.390864 214.297667 
L 231.744133 214.145767 
L 232.097402 213.498292 
L 232.450672 211.169973 
L 232.803941 211.900592 
L 233.15721 208.778329 
L 233.51048 209.020018 
L 233.863749 207.322874 
L 234.217018 206.276813 
L 235.276827 204.352901 
L 235.630096 202.778424 
L 235.983365 200.182556 
L 236.336635 200.838071 
L 237.749712 197.881569 
L 238.102982 197.39534 
L 238.456251 197.413745 
L 238.80952 197.681627 
L 239.16279 196.761764 
L 239.516059 195.472572 
L 239.869328 196.627512 
L 240.222598 196.649804 
L 240.575867 197.678724 
L 240.929136 196.552693 
L 241.282406 194.802013 
L 241.635675 195.02634 
L 241.988945 194.27054 
L 243.755291 192.185719 
L 244.108561 192.090084 
L 244.46183 204.891401 
L 244.815099 190.464952 
L 245.168369 189.772521 
L 245.521638 186.274162 
L 245.874908 189.519821 
L 246.581446 189.045568 
L 246.934716 189.043272 
L 247.287985 188.608929 
L 247.641254 188.39488 
L 247.994524 189.583952 
L 248.347793 190.33778 
L 248.701062 190.154526 
L 249.054332 189.133254 
L 249.407601 189.206588 
L 250.467409 188.347812 
L 250.820679 186.053472 
L 251.173948 186.959054 
L 251.527217 184.529159 
L 251.880487 185.553753 
L 252.233756 183.514182 
L 252.587025 182.240688 
L 252.940295 182.991573 
L 253.293564 181.429839 
L 253.646834 180.392869 
L 254.000103 180.172372 
L 254.353372 181.020131 
L 254.706642 181.467323 
L 255.76645 179.17699 
L 256.119719 179.703703 
L 256.472988 180.462758 
L 256.826258 180.609946 
L 257.179527 178.872819 
L 257.532797 178.225787 
L 257.886066 176.966531 
L 258.592605 176.479911 
L 258.945874 176.61169 
L 259.299143 176.445586 
L 260.005682 174.715795 
L 260.358951 175.724984 
L 260.712221 172.52809 
L 261.06549 172.610317 
L 261.41876 172.220476 
L 261.772029 169.888829 
L 262.125298 169.189237 
L 262.478568 168.76874 
L 262.831837 168.771803 
L 263.185106 167.507714 
L 263.538376 167.421542 
L 264.244914 165.422879 
L 264.598184 166.742109 
L 264.951453 167.591831 
L 265.657992 165.568272 
L 266.011261 166.560755 
L 266.364531 166.379286 
L 266.7178 166.811299 
L 267.071069 165.283895 
L 267.424339 164.750965 
L 267.777608 165.905736 
L 268.130877 164.248097 
L 268.484147 164.380729 
L 268.837416 163.907889 
L 269.543955 163.724586 
L 269.897224 160.450226 
L 270.250494 160.354846 
L 270.603763 160.613266 
L 270.957032 161.405258 
L 271.663571 157.584159 
L 272.01684 155.898513 
L 272.37011 155.470666 
L 272.723379 155.617622 
L 273.076649 155.309974 
L 273.429918 153.63555 
L 273.783187 155.01637 
L 274.136457 153.546195 
L 274.489726 154.910477 
L 274.842995 153.932477 
L 275.196265 153.340475 
L 275.549534 153.291107 
L 275.902803 153.357804 
L 276.256073 152.082917 
L 276.609342 152.22777 
L 276.962612 153.607567 
L 277.315881 153.140037 
L 277.66915 153.706014 
L 278.02242 153.937339 
L 278.375689 152.169046 
L 278.728958 153.228085 
L 279.082228 153.512666 
L 279.435497 152.855472 
L 279.788766 152.453925 
L 280.142036 150.869947 
L 280.495305 151.204256 
L 280.848575 150.85951 
L 281.201844 150.973838 
L 281.555113 150.052726 
L 281.908383 149.649795 
L 282.261652 148.483902 
L 282.614921 147.974296 
L 282.968191 148.694743 
L 283.32146 148.908951 
L 283.674729 148.957142 
L 284.381268 147.299146 
L 284.734538 147.696618 
L 285.087807 146.487597 
L 285.441076 147.010867 
L 285.794346 146.784736 
L 286.147615 145.948484 
L 286.500884 146.152849 
L 286.854154 146.727314 
L 287.207423 146.465426 
L 287.560692 146.479114 
L 287.913962 144.306857 
L 288.620501 142.760286 
L 288.97377 143.015639 
L 289.327039 142.474963 
L 289.680309 140.675466 
L 290.033578 141.257575 
L 290.386847 138.675308 
L 290.740117 140.741878 
L 291.093386 139.031104 
L 291.446655 136.692498 
L 291.799925 137.376609 
L 292.153194 135.916384 
L 292.506464 134.931053 
L 292.859733 135.025314 
L 293.213002 134.286086 
L 293.566272 136.139268 
L 293.919541 134.595398 
L 294.27281 135.174291 
L 294.62608 135.513935 
L 295.685888 133.145214 
L 296.039157 135.117355 
L 296.392427 135.15687 
L 296.745696 134.285054 
L 297.098965 134.779067 
L 297.452235 135.976811 
L 297.805504 135.045286 
L 298.158773 132.877857 
L 298.512043 136.476042 
L 298.865312 135.506782 
L 299.218581 134.103844 
L 299.571851 135.280734 
L 299.92512 135.365768 
L 300.27839 133.443877 
L 300.631659 132.486761 
L 300.984928 130.732146 
L 301.338198 131.587796 
L 301.691467 130.939544 
L 302.044736 131.139486 
L 302.398006 131.688761 
L 302.751275 130.286165 
L 303.104544 129.711097 
L 303.457814 130.750903 
L 303.811083 130.49174 
L 304.164353 128.241694 
L 304.517622 127.746754 
L 304.870891 126.215429 
L 305.224161 128.730074 
L 305.57743 129.564059 
L 305.930699 128.744195 
L 306.283969 128.587405 
L 306.637238 128.715986 
L 306.990507 124.280791 
L 307.343777 127.245743 
L 307.697046 125.537226 
L 308.403585 126.401509 
L 308.756854 122.200909 
L 309.110124 121.664063 
L 309.463393 119.974327 
L 309.816662 119.907075 
L 310.169932 121.435488 
L 310.523201 119.327758 
L 310.87647 118.913444 
L 311.22974 117.824975 
L 311.583009 117.431337 
L 311.936279 116.194643 
L 312.289548 116.379541 
L 312.642817 119.377878 
L 312.996087 117.761003 
L 313.349356 116.737233 
L 313.702625 118.684304 
L 314.055895 117.607574 
L 314.409164 117.22855 
L 314.762433 115.674007 
L 315.468972 118.148158 
L 315.822242 117.876436 
L 316.175511 118.264343 
L 316.52878 118.141439 
L 316.88205 116.747549 
L 317.235319 118.359207 
L 317.588588 116.422905 
L 317.941858 115.738148 
L 318.295127 115.666406 
L 319.001666 113.255802 
L 319.354935 110.565934 
L 319.708205 112.400413 
L 320.061474 115.82678 
L 320.414743 111.96728 
L 320.768013 111.785975 
L 321.121282 114.375911 
L 321.827821 110.928767 
L 322.18109 110.882688 
L 322.534359 111.610404 
L 322.887629 111.580709 
L 323.240898 112.13798 
L 323.594168 105.586649 
L 323.947437 104.887269 
L 324.300706 105.082566 
L 324.653976 103.743643 
L 325.007245 103.304487 
L 325.360514 100.975802 
L 325.713784 103.934725 
L 326.067053 105.08845 
L 326.420322 102.557151 
L 326.773592 104.225136 
L 327.126861 101.38862 
L 327.480131 99.944373 
L 327.8334 96.440646 
L 328.186669 97.383437 
L 328.539939 92.192149 
L 329.246477 95.831098 
L 329.599747 97.492832 
L 329.953016 95.979332 
L 330.306285 96.274571 
L 330.659555 96.909526 
L 331.012824 96.780251 
L 331.366094 98.625485 
L 331.719363 97.765326 
L 332.072632 96.416859 
L 332.425902 96.727888 
L 332.779171 95.34594 
L 333.13244 95.697053 
L 333.48571 94.006926 
L 333.838979 95.200025 
L 334.192248 98.419264 
L 334.545518 96.252892 
L 334.898787 92.968572 
L 335.252057 95.690407 
L 335.605326 94.10927 
L 335.958595 95.751495 
L 336.311865 94.268573 
L 336.665134 94.247487 
L 337.724942 88.538393 
L 338.078211 91.09631 
L 338.431481 90.900718 
L 338.78475 89.620342 
L 339.13802 89.997711 
L 339.491289 92.179667 
L 340.197828 90.294566 
L 340.551097 91.676177 
L 340.904366 90.898881 
L 341.257636 89.392717 
L 341.610905 89.422007 
L 342.317444 86.922834 
L 342.670713 88.013194 
L 343.023983 87.995509 
L 343.377252 85.622013 
L 343.730521 86.844697 
L 344.43706 86.639629 
L 344.790329 85.321353 
L 345.143599 86.826746 
L 345.496868 86.87105 
L 345.850138 84.22153 
L 346.203407 84.189081 
L 346.556676 82.935357 
L 346.909946 79.629242 
L 347.263215 81.050126 
L 347.969754 80.270428 
L 348.323023 80.130335 
L 348.676292 80.484072 
L 349.029562 79.258417 
L 349.382831 80.696442 
L 350.08937 77.105226 
L 350.442639 78.537661 
L 350.795909 80.481318 
L 351.149178 81.240913 
L 351.502447 77.651882 
L 351.855717 79.788004 
L 352.208986 78.68017 
L 352.562255 82.549364 
L 352.915525 80.007971 
L 353.268794 79.061731 
L 353.622064 81.212708 
L 353.975333 81.410147 
L 354.328602 82.554544 
L 354.681872 80.496843 
L 355.035141 82.689718 
L 355.38841 80.02571 
L 355.74168 79.700564 
L 356.094949 77.180512 
L 356.448218 80.34706 
L 356.801488 80.33304 
L 357.154757 79.573801 
L 357.508027 79.654832 
L 357.861296 78.280905 
L 358.214565 79.345467 
L 358.567835 76.758203 
L 358.921104 77.400585 
L 359.274373 77.401887 
L 359.627643 86.363518 
L 360.334181 86.363518 
L 360.687451 75.21835 
L 361.04072 75.16753 
L 361.39399 76.658348 
L 361.747259 76.248245 
L 362.100528 74.696605 
L 362.453798 75.081001 
L 362.807067 74.392858 
L 363.160336 72.090646 
L 363.513606 72.949325 
L 363.866875 68.28597 
L 364.220144 69.243891 
L 364.573414 67.892781 
L 364.926683 68.255522 
L 365.279953 67.04887 
L 365.633222 70.856257 
L 365.986491 67.955489 
L 367.046299 71.001207 
L 367.399569 69.706261 
L 367.752838 70.877826 
L 368.459377 68.709582 
L 368.812646 70.224066 
L 369.165916 70.913988 
L 369.519185 70.667587 
L 369.872454 74.698597 
L 370.225724 70.888812 
L 370.578993 71.396547 
L 370.932262 69.383613 
L 371.285532 71.655015 
L 371.638801 71.182137 
L 372.34534 70.912855 
L 372.698609 68.798585 
L 373.051879 70.172788 
L 373.405148 68.99857 
L 373.758417 68.829872 
L 374.111687 69.523851 
L 374.464956 66.329788 
L 374.818225 69.965559 
L 375.171495 71.550902 
L 375.878033 69.286878 
L 376.231303 68.72584 
L 376.584572 67.676924 
L 376.937842 67.337005 
L 377.291111 66.811372 
L 377.64438 64.584616 
L 377.99765 65.087913 
L 378.350919 64.36286 
L 378.704188 60.853369 
L 379.057458 61.868414 
L 379.410727 63.779265 
L 379.763996 62.519753 
L 380.117266 59.975881 
L 380.470535 66.135648 
L 380.823805 62.464525 
L 381.177074 64.867489 
L 381.883613 62.083172 
L 382.236882 61.922986 
L 382.590151 59.251291 
L 382.943421 61.397551 
L 383.29669 56.453426 
L 383.649959 60.123618 
L 384.003229 57.83372 
L 384.356498 56.463569 
L 384.709768 56.69798 
L 385.063037 55.479381 
L 385.416306 55.124574 
L 385.769576 58.57549 
L 386.122845 58.569938 
L 386.476114 59.006828 
L 386.829384 58.30819 
L 387.535922 55.21882 
L 387.889192 56.089797 
L 388.242461 55.90227 
L 388.595731 57.178523 
L 388.949 57.684743 
L 389.302269 59.540969 
L 389.655539 57.644138 
L 390.008808 58.169689 
L 390.362077 58.398631 
L 390.715347 58.390104 
L 391.068616 60.432685 
L 391.421885 61.404424 
L 391.775155 58.936798 
L 392.128424 59.536141 
L 392.481694 59.34831 
L 392.834963 60.093398 
L 393.188232 58.058302 
L 393.541502 58.80735 
L 393.894771 56.410289 
L 394.24804 61.637437 
L 394.60131 60.887588 
L 394.954579 61.179345 
L 395.307848 59.56748 
L 395.661118 58.641208 
L 396.014387 55.53868 
L 396.367657 57.252078 
L 396.720926 56.828996 
L 397.427465 53.834923 
L 397.780734 55.891819 
L 398.487273 53.568 
L 398.487273 53.568 
" clip-path="url(#pf2189dac99)" style="fill: none; stroke: #1f77b4; stroke-width: 1.5; stroke-linecap: square"/>
   </g>
   <g id="line2d_18">
    <path d="M 73.832727 294.839767 
L 75.599074 294.819786 
L 83.371 294.594962 
L 84.430808 294.560941 
L 85.137347 294.529076 
L 89.02331 294.585866 
L 93.969081 294.513063 
L 94.32235 294.340405 
L 108.099856 294.513449 
L 109.866202 294.514467 
L 110.92601 294.36288 
L 112.339088 294.340097 
L 114.458704 294.306683 
L 114.811973 294.368866 
L 115.165243 294.270675 
L 118.697936 294.413256 
L 120.111014 294.315306 
L 121.524091 294.232776 
L 122.583899 294.062717 
L 123.643708 294.060725 
L 124.703516 293.942625 
L 125.410054 294.02927 
L 126.469862 294.090449 
L 128.236209 293.978855 
L 128.942748 293.820208 
L 130.002556 293.92233 
L 134.595058 293.599422 
L 134.948327 293.695486 
L 139.894098 293.094624 
L 141.307176 292.860806 
L 142.013715 292.867385 
L 143.073523 292.502251 
L 144.4866 292.246079 
L 144.839869 292.356824 
L 146.606216 292.169302 
L 148.725832 291.73628 
L 149.079102 291.592188 
L 149.785641 291.529056 
L 150.845449 291.294118 
L 151.551987 291.34393 
L 152.258526 291.108062 
L 152.965065 291.01427 
L 153.318334 290.798663 
L 154.378142 291.044061 
L 155.79122 290.615433 
L 156.144489 290.631122 
L 156.497758 290.475929 
L 157.557567 290.396629 
L 157.910836 290.175331 
L 159.677183 289.812219 
L 160.383721 289.676572 
L 161.09026 289.393623 
L 161.796799 289.301431 
L 162.503338 288.923213 
L 162.856607 289.050178 
L 163.916415 288.603469 
L 164.622954 288.23113 
L 164.976223 287.94899 
L 165.682762 287.752994 
L 166.036031 287.843048 
L 166.74257 287.705352 
L 167.802378 286.651714 
L 168.155647 286.398614 
L 168.508917 286.468195 
L 168.862186 286.332404 
L 169.921994 285.541266 
L 170.275264 285.407399 
L 170.981802 284.768277 
L 171.335072 284.680706 
L 171.688341 283.474512 
L 172.04161 283.587129 
L 172.39488 284.390662 
L 172.748149 284.303404 
L 173.454688 283.68683 
L 173.807957 284.244 
L 174.161227 283.522568 
L 174.514496 283.478197 
L 174.867765 283.253957 
L 175.221035 282.729477 
L 175.574304 282.756129 
L 176.280843 281.952823 
L 176.634112 281.977049 
L 176.987382 281.797566 
L 177.340651 281.145972 
L 177.69392 281.365992 
L 178.04719 280.872803 
L 178.400459 281.020743 
L 178.753728 280.842703 
L 179.106998 280.915361 
L 179.460267 280.359662 
L 179.813536 280.381081 
L 180.166806 279.814154 
L 180.520075 279.912649 
L 181.226614 278.716072 
L 181.579883 278.479278 
L 181.933153 278.403972 
L 182.286422 278.129337 
L 182.639691 278.102116 
L 182.992961 278.207242 
L 183.34623 278.187304 
L 184.406038 277.794694 
L 184.759308 277.922523 
L 185.465846 277.592192 
L 185.819116 277.022684 
L 186.172385 275.744377 
L 186.525654 276.69857 
L 186.878924 277.012696 
L 187.232193 276.682925 
L 187.585462 276.874214 
L 187.938732 276.396989 
L 188.645271 275.779932 
L 188.99854 275.168205 
L 189.351809 274.78456 
L 189.705079 273.980859 
L 190.058348 271.602222 
L 190.411617 270.078666 
L 190.764887 272.335672 
L 191.118156 272.930862 
L 191.471425 272.947231 
L 191.824695 273.18512 
L 192.177964 273.167989 
L 192.531234 273.486363 
L 192.884503 272.829343 
L 193.237772 272.944873 
L 193.591042 271.717766 
L 193.944311 271.342784 
L 194.29758 271.555975 
L 195.004119 270.332302 
L 195.357388 270.663506 
L 195.710658 270.631573 
L 196.063927 270.237227 
L 196.417197 269.664864 
L 196.770466 269.367064 
L 197.123735 269.409275 
L 197.830274 267.635098 
L 198.183543 267.113261 
L 198.536813 266.832829 
L 198.890082 265.81066 
L 199.243351 265.45663 
L 200.30316 263.395485 
L 200.656429 263.745416 
L 201.362968 263.401248 
L 202.069506 262.740452 
L 202.422776 263.027723 
L 203.129314 262.663438 
L 203.835853 261.751962 
L 204.895661 261.286057 
L 205.248931 261.28911 
L 205.6022 260.333485 
L 205.955469 260.237228 
L 206.308739 260.263417 
L 206.662008 259.773995 
L 207.721816 257.350765 
L 208.075086 256.893681 
L 208.428355 254.687953 
L 208.781624 251.575973 
L 209.134894 256.193336 
L 209.488163 257.199487 
L 209.841432 256.918558 
L 210.194702 256.423166 
L 210.547971 256.490581 
L 210.90124 256.745717 
L 211.607779 255.703408 
L 212.314318 255.227814 
L 212.667587 254.843147 
L 213.020857 253.744742 
L 213.374126 253.489939 
L 213.727395 253.42767 
L 214.433934 252.455723 
L 214.787203 251.300392 
L 215.140473 250.580365 
L 215.493742 251.034144 
L 216.200281 249.614997 
L 216.55355 248.309473 
L 216.90682 247.929746 
L 217.260089 247.744032 
L 217.966628 245.650443 
L 218.319897 244.019981 
L 218.673166 244.733999 
L 219.026436 244.599409 
L 219.732975 243.225274 
L 220.086244 243.083508 
L 220.439513 243.183753 
L 220.792783 244.31523 
L 221.146052 243.735078 
L 221.499321 243.994709 
L 221.852591 243.378785 
L 222.20586 243.445738 
L 222.912399 241.827888 
L 223.265668 240.815409 
L 223.618938 241.010026 
L 224.325476 238.269584 
L 224.678746 238.918945 
L 225.032015 238.414278 
L 225.385284 237.219944 
L 225.738554 237.131268 
L 226.091823 236.329689 
L 226.445092 235.873295 
L 226.798362 232.689862 
L 227.151631 225.344451 
L 227.504901 230.632296 
L 227.85817 233.451806 
L 228.211439 233.749649 
L 228.917978 233.439261 
L 229.271247 233.525419 
L 229.624517 233.485953 
L 229.977786 232.608348 
L 230.331055 232.389318 
L 230.684325 232.662694 
L 231.390864 231.635958 
L 232.097402 229.792465 
L 232.450672 227.773305 
L 232.803941 228.452564 
L 233.15721 228.351971 
L 233.51048 224.689997 
L 233.863749 225.493134 
L 234.570288 223.049821 
L 234.923557 220.698931 
L 235.276827 220.614206 
L 235.630096 220.292257 
L 236.336635 216.197261 
L 236.689904 215.925578 
L 237.043173 215.32094 
L 237.396443 215.025658 
L 238.102982 212.688639 
L 238.456251 212.488306 
L 238.80952 212.419101 
L 239.16279 213.44372 
L 239.516059 213.561728 
L 240.222598 215.037353 
L 240.929136 215.520587 
L 241.282406 213.44794 
L 241.635675 212.925201 
L 241.988945 213.377249 
L 242.342214 212.454483 
L 242.695483 210.75661 
L 243.048753 212.23442 
L 243.402022 212.820238 
L 243.755291 211.071782 
L 244.108561 210.856721 
L 244.46183 209.872056 
L 244.815099 204.891401 
L 245.168369 206.885777 
L 245.521638 198.648823 
L 246.228177 208.429343 
L 246.581446 207.160248 
L 246.934716 208.493619 
L 247.287985 207.99866 
L 247.641254 207.916438 
L 247.994524 206.625099 
L 248.347793 208.804981 
L 248.701062 209.408654 
L 249.054332 208.843463 
L 249.407601 207.605447 
L 249.760871 207.183388 
L 250.11414 206.217012 
L 250.467409 206.149708 
L 250.820679 207.860275 
L 251.173948 206.88256 
L 251.527217 205.492215 
L 251.880487 203.538198 
L 252.233756 203.352412 
L 252.587025 202.544365 
L 252.940295 202.643072 
L 253.293564 200.562954 
L 253.646834 200.51497 
L 254.000103 199.08335 
L 254.353372 198.855445 
L 254.706642 198.418574 
L 255.059911 197.050724 
L 255.76645 197.062029 
L 256.472988 196.508563 
L 256.826258 197.331257 
L 257.179527 195.936562 
L 257.532797 195.194064 
L 257.886066 197.852703 
L 258.239335 197.984848 
L 258.592605 197.859055 
L 258.945874 197.939344 
L 259.299143 197.872323 
L 259.652413 196.541123 
L 260.005682 196.858571 
L 260.358951 197.396189 
L 260.712221 196.802827 
L 261.06549 194.079207 
L 261.41876 194.82566 
L 261.772029 194.453427 
L 262.125298 191.558095 
L 262.478568 192.974668 
L 263.538376 189.197154 
L 263.891645 177.386892 
L 264.244914 181.916989 
L 264.598184 188.730299 
L 264.951453 189.980773 
L 265.657992 188.772785 
L 266.011261 187.588101 
L 266.364531 188.473798 
L 266.7178 188.222478 
L 267.071069 189.154582 
L 267.424339 187.05032 
L 267.777608 188.908937 
L 268.484147 186.978968 
L 268.837416 186.951863 
L 269.190686 187.528465 
L 269.543955 185.116386 
L 269.897224 184.70853 
L 270.250494 182.689018 
L 270.603763 184.543671 
L 270.957032 185.723233 
L 271.310302 183.457955 
L 272.01684 177.140597 
L 272.37011 178.521253 
L 272.723379 177.383897 
L 273.076649 176.762745 
L 273.429918 175.287468 
L 273.783187 175.900888 
L 274.136457 176.072374 
L 274.489726 175.918232 
L 274.842995 175.427715 
L 275.196265 174.645403 
L 275.549534 172.461938 
L 275.902803 175.220718 
L 276.256073 176.001742 
L 276.609342 176.148674 
L 276.962612 177.390056 
L 277.315881 178.078971 
L 278.02242 177.823194 
L 278.375689 178.301826 
L 278.728958 178.025687 
L 279.082228 178.651782 
L 279.788766 176.125601 
L 280.142036 177.715593 
L 280.495305 177.175433 
L 280.848575 175.831003 
L 281.201844 175.979522 
L 281.555113 175.332027 
L 281.908383 173.315997 
L 282.261652 162.170434 
L 282.614921 161.873709 
L 282.968191 172.783178 
L 283.32146 174.312854 
L 283.674729 174.62603 
L 284.027999 173.573177 
L 284.381268 172.151194 
L 285.087807 170.557806 
L 285.441076 170.512682 
L 285.794346 171.041329 
L 286.147615 170.662624 
L 286.500884 162.155748 
L 286.854154 158.442963 
L 287.207423 156.997164 
L 287.560692 158.075129 
L 288.620501 154.297775 
L 288.97377 154.562908 
L 289.327039 156.563467 
L 289.680309 154.730218 
L 290.033578 154.030557 
L 290.386847 155.667424 
L 290.740117 156.567349 
L 291.446655 153.737527 
L 291.799925 151.043395 
L 292.153194 150.839605 
L 292.506464 149.377403 
L 292.859733 150.640382 
L 293.213002 150.46675 
L 293.566272 151.464803 
L 293.919541 150.508464 
L 294.27281 150.516436 
L 294.62608 151.359093 
L 294.979349 152.849202 
L 295.332618 152.137166 
L 295.685888 153.846922 
L 296.392427 153.967593 
L 296.745696 154.627488 
L 297.098965 153.42508 
L 297.452235 153.594796 
L 297.805504 152.643945 
L 298.158773 150.922956 
L 298.512043 152.885586 
L 298.865312 153.280555 
L 299.218581 153.088566 
L 299.571851 155.294183 
L 299.92512 153.446634 
L 300.631659 145.977316 
L 300.984928 140.036059 
L 301.691467 148.92478 
L 302.044736 148.266916 
L 302.398006 149.087532 
L 302.751275 148.07091 
L 303.457814 147.200434 
L 303.811083 147.329608 
L 304.164353 148.809429 
L 304.517622 148.443283 
L 304.870891 148.258336 
L 305.224161 146.519424 
L 305.57743 149.368586 
L 306.283969 146.685711 
L 306.637238 148.708498 
L 306.990507 147.53349 
L 307.343777 144.475932 
L 307.697046 144.776331 
L 308.050316 142.957903 
L 308.403585 141.892371 
L 308.756854 143.565309 
L 309.110124 143.903545 
L 309.816662 137.213558 
L 310.169932 137.099664 
L 310.523201 136.768701 
L 310.87647 136.09112 
L 311.22974 133.631197 
L 311.583009 134.928989 
L 311.936279 133.701203 
L 312.289548 133.795251 
L 312.642817 134.907715 
L 312.996087 137.629309 
L 313.349356 138.260377 
L 313.702625 138.305689 
L 314.055895 139.670964 
L 314.409164 137.687879 
L 315.115703 138.747802 
L 315.468972 138.995004 
L 315.822242 138.792395 
L 316.175511 138.392392 
L 316.52878 140.543036 
L 316.88205 139.55351 
L 317.235319 140.026697 
L 317.588588 138.620586 
L 317.941858 139.595045 
L 318.648396 137.196745 
L 319.001666 132.416447 
L 319.354935 121.223016 
L 320.061474 132.412184 
L 320.414743 132.719427 
L 320.768013 134.28801 
L 321.121282 132.803516 
L 321.474551 135.305437 
L 321.827821 134.42152 
L 322.18109 131.313455 
L 322.534359 133.015447 
L 322.887629 133.009616 
L 323.240898 135.095734 
L 323.594168 131.556838 
L 323.947437 125.567418 
L 324.300706 125.709156 
L 324.653976 135.141702 
L 325.007245 124.552614 
L 325.713784 121.414464 
L 326.067053 124.758618 
L 326.420322 124.597232 
L 326.773592 123.379636 
L 327.126861 120.579182 
L 327.480131 121.160505 
L 328.186669 114.265522 
L 328.539939 114.96186 
L 328.893208 114.759261 
L 329.246477 112.540747 
L 329.599747 112.458158 
L 329.953016 113.282449 
L 330.306285 112.146208 
L 330.659555 112.907414 
L 331.012824 112.999741 
L 331.366094 116.023142 
L 331.719363 116.777042 
L 332.425902 119.498757 
L 332.779171 117.629316 
L 333.13244 118.659461 
L 333.48571 118.778748 
L 333.838979 116.195169 
L 334.192248 119.096665 
L 334.545518 119.902512 
L 334.898787 117.096468 
L 335.252057 116.337446 
L 335.605326 118.413431 
L 335.958595 115.221606 
L 336.311865 118.329401 
L 336.665134 118.603655 
L 337.018403 114.644363 
L 337.724942 101.770528 
L 338.078211 108.359101 
L 338.431481 112.848207 
L 338.78475 112.78056 
L 339.13802 113.310765 
L 339.491289 112.275637 
L 339.844558 112.396723 
L 340.197828 113.05192 
L 340.904366 110.949607 
L 341.257636 113.70228 
L 341.964174 107.106679 
L 342.317444 110.478344 
L 342.670713 106.586526 
L 343.023983 109.017318 
L 343.377252 109.614326 
L 343.730521 108.441536 
L 344.083791 105.555565 
L 344.43706 109.926788 
L 344.790329 109.782074 
L 345.143599 106.667971 
L 345.496868 107.195847 
L 345.850138 106.669717 
L 346.203407 102.450607 
L 346.909946 98.293336 
L 347.263215 98.618743 
L 347.616484 98.459748 
L 347.969754 97.431489 
L 348.323023 98.699576 
L 348.676292 97.351611 
L 349.029562 98.260309 
L 349.382831 96.99429 
L 350.442639 103.325032 
L 350.795909 102.35789 
L 351.149178 103.867218 
L 351.502447 103.447314 
L 351.855717 102.832891 
L 352.208986 102.557995 
L 352.562255 104.544837 
L 352.915525 105.169485 
L 353.268794 102.655545 
L 353.622064 103.515699 
L 353.975333 105.783456 
L 354.328602 103.448588 
L 354.681872 105.003276 
L 355.035141 105.496276 
L 355.38841 104.121567 
L 355.74168 99.644509 
L 356.094949 88.553118 
L 356.801488 100.580838 
L 357.154757 100.581701 
L 357.508027 102.927889 
L 357.861296 101.988092 
L 358.567835 98.970488 
L 358.921104 98.302592 
L 359.274373 100.56347 
L 359.627643 86.363518 
L 360.334181 86.363518 
L 360.687451 97.054824 
L 361.04072 95.875281 
L 361.39399 96.308675 
L 361.747259 100.667681 
L 362.100528 100.006691 
L 362.453798 96.605042 
L 362.807067 97.514015 
L 363.160336 96.299955 
L 363.513606 97.141743 
L 363.866875 94.395079 
L 364.220144 89.410364 
L 364.573414 90.130281 
L 364.926683 86.208338 
L 365.279953 87.011582 
L 365.633222 86.668089 
L 365.986491 87.193505 
L 366.339761 87.045878 
L 366.69303 86.400385 
L 367.046299 87.96415 
L 367.399569 87.766219 
L 367.752838 87.78621 
L 368.106107 91.194259 
L 368.459377 91.964837 
L 368.812646 93.283546 
L 369.165916 94.111821 
L 370.225724 93.631423 
L 370.578993 94.00192 
L 370.932262 93.62579 
L 371.285532 94.097458 
L 371.638801 95.159228 
L 371.99207 92.681556 
L 372.34534 94.273338 
L 372.698609 95.263824 
L 373.051879 90.136604 
L 373.405148 94.127713 
L 373.758417 92.563282 
L 374.111687 88.257353 
L 374.464956 79.668182 
L 374.818225 78.147376 
L 375.171495 90.528196 
L 375.524764 93.284429 
L 375.878033 91.011329 
L 376.231303 89.643989 
L 376.584572 90.976864 
L 377.291111 88.895352 
L 377.64438 89.559954 
L 377.99765 86.529771 
L 378.350919 87.376136 
L 378.704188 85.843171 
L 379.057458 83.503948 
L 379.410727 81.916285 
L 379.763996 84.255585 
L 380.117266 83.110465 
L 380.470535 84.366905 
L 380.823805 84.274221 
L 381.177074 87.437094 
L 381.530343 86.662557 
L 382.236882 80.991252 
L 382.590151 80.492005 
L 382.943421 81.466841 
L 383.29669 80.095966 
L 383.649959 76.532395 
L 384.003229 75.632181 
L 384.356498 76.517488 
L 384.709768 72.179105 
L 385.063037 73.835818 
L 385.416306 73.626033 
L 385.769576 73.753784 
L 386.122845 74.246384 
L 386.829384 79.491251 
L 387.182653 80.811822 
L 388.242461 78.392586 
L 388.595731 79.959201 
L 388.949 79.287008 
L 389.302269 80.858441 
L 389.655539 83.300674 
L 390.008808 80.815092 
L 390.362077 82.88717 
L 390.715347 81.939315 
L 391.068616 84.328682 
L 391.421885 80.044828 
L 391.775155 83.856561 
L 392.128424 81.238087 
L 392.481694 79.526908 
L 393.188232 66.576995 
L 393.541502 79.563263 
L 393.894771 80.574498 
L 394.24804 79.058509 
L 394.60131 81.212274 
L 395.307848 82.649947 
L 395.661118 74.712212 
L 396.014387 81.61017 
L 396.367657 83.012544 
L 396.720926 78.242943 
L 397.074195 77.317707 
L 397.427465 78.650442 
L 397.780734 76.78497 
L 398.134003 75.996061 
L 398.487273 75.832942 
L 398.487273 75.832942 
" clip-path="url(#pf2189dac99)" style="fill: none; stroke: #ff7f0e; stroke-width: 1.5; stroke-linecap: square"/>
   </g>
   <g id="line2d_19">
    <path d="M 73.832727 295.257519 
L 81.604653 295.219374 
L 81.957923 295.266823 
L 82.664461 295.181852 
L 84.784078 295.252831 
L 93.615812 295.229102 
L 93.969081 295.011928 
L 94.32235 295.185107 
L 120.464283 295.308368 
L 120.817553 295.234668 
L 121.524091 295.370715 
L 124.350246 295.35013 
L 126.823132 295.366581 
L 127.176401 295.420961 
L 128.236209 295.294372 
L 128.589479 295.379271 
L 129.649287 295.232777 
L 130.355826 295.351751 
L 130.709095 295.244116 
L 131.768903 295.388786 
L 132.122172 295.259034 
L 133.18198 295.240716 
L 133.53525 295.111793 
L 134.595058 295.344984 
L 135.301597 295.110809 
L 135.654866 295.188565 
L 136.008135 295.082961 
L 137.774482 295.270585 
L 138.83429 294.905731 
L 139.18756 295.094816 
L 139.540829 295.006541 
L 140.600637 295.175799 
L 140.953906 295.046393 
L 141.307176 295.089168 
L 142.013715 294.88342 
L 142.366984 294.931737 
L 143.073523 294.856884 
L 143.426792 294.986405 
L 144.133331 294.844817 
L 144.4866 295.066409 
L 148.019294 294.830999 
L 148.372563 294.636421 
L 148.725832 294.587019 
L 149.432371 294.750851 
L 150.13891 294.710994 
L 150.492179 294.948082 
L 151.905257 294.657487 
L 152.965065 294.69011 
L 153.318334 294.936815 
L 154.378142 294.523254 
L 155.084681 294.597311 
L 155.43795 294.543101 
L 155.79122 294.745748 
L 156.144489 294.548044 
L 156.851028 294.798642 
L 157.910836 294.45253 
L 158.970644 294.542382 
L 159.323913 294.349665 
L 159.677183 294.474002 
L 160.383721 294.199671 
L 160.736991 294.336253 
L 161.09026 294.239378 
L 161.44353 294.303654 
L 162.150068 294.259784 
L 162.856607 294.253023 
L 163.209876 294.154904 
L 163.563146 294.262558 
L 164.622954 294.10761 
L 164.976223 294.288033 
L 165.682762 294.14916 
L 166.036031 293.893566 
L 166.389301 293.77698 
L 166.74257 293.494001 
L 167.449109 293.453936 
L 167.802378 293.219814 
L 168.155647 293.684407 
L 168.508917 293.651413 
L 168.862186 293.384876 
L 169.215456 293.336449 
L 169.568725 292.973997 
L 169.921994 293.16559 
L 170.275264 292.661824 
L 170.981802 293.102042 
L 171.335072 293.008915 
L 171.688341 293.971389 
L 172.04161 293.903004 
L 172.39488 292.833209 
L 172.748149 292.715721 
L 173.101419 292.757541 
L 173.454688 292.959113 
L 173.807957 292.128441 
L 174.161227 292.825198 
L 174.514496 292.829437 
L 174.867765 292.434098 
L 175.221035 292.950412 
L 175.574304 292.242577 
L 175.927573 292.348543 
L 176.280843 292.743019 
L 176.987382 292.697408 
L 177.340651 292.960507 
L 177.69392 292.521056 
L 178.04719 292.781434 
L 178.400459 292.229203 
L 178.753728 292.655116 
L 179.106998 292.404026 
L 179.460267 292.760343 
L 179.813536 292.583422 
L 180.166806 292.890434 
L 180.873345 291.987461 
L 181.226614 292.718572 
L 181.579883 292.599897 
L 181.933153 292.212231 
L 182.286422 292.451726 
L 182.639691 292.832765 
L 182.992961 292.439943 
L 183.699499 292.102566 
L 184.052769 291.619192 
L 184.406038 291.85301 
L 184.759308 291.703213 
L 185.112577 291.28781 
L 185.465846 291.401893 
L 185.819116 288.840547 
L 186.172385 292.178793 
L 186.525654 292.45174 
L 186.878924 291.541335 
L 187.232193 291.537891 
L 187.938732 290.985896 
L 188.292001 291.025777 
L 188.645271 290.767878 
L 188.99854 290.884343 
L 189.705079 290.342742 
L 190.058348 292.087021 
L 190.411617 292.749342 
L 190.764887 289.923716 
L 191.118156 290.236636 
L 191.824695 289.868546 
L 192.177964 290.032378 
L 192.531234 289.98793 
L 192.884503 290.540441 
L 193.237772 288.422202 
L 193.591042 289.945536 
L 193.944311 289.938422 
L 194.29758 289.319387 
L 194.65085 289.640868 
L 195.004119 290.133666 
L 195.357388 289.823042 
L 195.710658 289.896843 
L 196.063927 288.777313 
L 196.417197 289.294539 
L 196.770466 288.926309 
L 197.123735 288.355413 
L 197.477005 289.674653 
L 197.830274 288.672201 
L 198.183543 289.634791 
L 198.536813 288.65643 
L 198.890082 289.075822 
L 199.243351 288.524762 
L 199.596621 289.864707 
L 199.94989 289.574528 
L 200.30316 288.678403 
L 201.009698 289.489388 
L 201.362968 289.206665 
L 201.716237 288.142507 
L 202.069506 288.821477 
L 202.422776 287.255508 
L 202.776045 287.746285 
L 203.129314 286.952138 
L 203.835853 286.227557 
L 204.542392 286.364848 
L 204.895661 286.419169 
L 205.248931 285.407322 
L 205.6022 286.485707 
L 205.955469 286.203534 
L 206.308739 285.177517 
L 206.662008 285.413177 
L 207.015277 285.182243 
L 207.368547 285.284245 
L 208.075086 286.462726 
L 208.428355 288.180807 
L 208.781624 289.215433 
L 209.134894 285.192058 
L 209.488163 284.810425 
L 209.841432 284.857285 
L 210.194702 285.289371 
L 210.547971 285.215122 
L 210.90124 285.001256 
L 211.607779 285.792924 
L 211.961049 284.808805 
L 212.314318 285.044398 
L 212.667587 284.392523 
L 213.020857 285.488015 
L 213.374126 285.585358 
L 213.727395 284.599936 
L 214.433934 283.654979 
L 214.787203 283.064197 
L 215.140473 284.976644 
L 215.493742 284.023073 
L 215.847012 283.722399 
L 216.200281 284.639113 
L 216.55355 283.739077 
L 216.90682 284.442388 
L 217.260089 284.357663 
L 217.613358 283.93463 
L 217.966628 284.897726 
L 218.319897 285.381061 
L 218.673166 284.94325 
L 219.026436 284.170522 
L 219.379705 284.508941 
L 219.732975 285.318729 
L 220.086244 284.839223 
L 220.792783 282.948113 
L 221.146052 283.068591 
L 221.499321 281.283707 
L 222.20586 281.254504 
L 222.559129 280.163617 
L 222.912399 281.405902 
L 223.265668 281.222527 
L 223.618938 280.099361 
L 223.972207 279.504499 
L 224.325476 280.929435 
L 224.678746 279.674519 
L 225.385284 279.451408 
L 226.091823 279.960469 
L 226.445092 278.305014 
L 226.798362 280.747497 
L 227.151631 284.591558 
L 227.85817 278.347924 
L 228.211439 278.59297 
L 228.564709 278.082964 
L 228.917978 278.775973 
L 229.271247 279.215058 
L 229.624517 279.04812 
L 229.977786 279.01813 
L 230.331055 279.510113 
L 230.684325 278.700672 
L 231.037594 278.611071 
L 231.390864 278.149709 
L 231.744133 279.056073 
L 232.097402 279.193827 
L 232.450672 278.884669 
L 232.803941 278.936029 
L 233.15721 275.914358 
L 233.51048 279.818022 
L 233.863749 277.31774 
L 234.217018 277.36256 
L 234.570288 278.085163 
L 234.923557 280.001623 
L 235.276827 279.226695 
L 235.630096 277.974167 
L 235.983365 277.506675 
L 236.336635 280.12881 
L 236.689904 279.641766 
L 237.043173 279.650095 
L 237.396443 278.832166 
L 237.749712 279.678686 
L 238.102982 280.194702 
L 238.80952 280.750526 
L 239.516059 277.398843 
L 239.869328 277.684508 
L 240.222598 277.10045 
L 240.575867 277.934127 
L 240.929136 276.520106 
L 241.282406 276.842073 
L 241.635675 277.589139 
L 241.988945 276.381291 
L 242.342214 276.863213 
L 242.695483 278.121475 
L 243.048753 276.32217 
L 243.402022 275.350807 
L 243.755291 276.601937 
L 244.108561 276.721364 
L 244.46183 290.507345 
L 244.815099 281.06155 
L 245.168369 278.374745 
L 245.521638 283.113338 
L 245.874908 281.893963 
L 246.228177 276.312037 
L 246.581446 277.37332 
L 246.934716 276.037653 
L 247.287985 276.098268 
L 247.641254 275.966442 
L 247.994524 278.446853 
L 248.347793 277.020799 
L 248.701062 276.233871 
L 249.054332 275.777791 
L 249.407601 277.08914 
L 249.760871 277.236439 
L 250.11414 277.897954 
L 250.467409 277.686105 
L 250.820679 273.681197 
L 251.173948 275.564495 
L 251.527217 274.524944 
L 251.880487 277.503555 
L 252.233756 275.64977 
L 252.587025 275.184323 
L 253.293564 276.354885 
L 253.646834 275.365899 
L 254.353372 277.652686 
L 255.059911 279.14114 
L 255.76645 277.602961 
L 256.472988 279.442196 
L 256.826258 278.766689 
L 257.179527 278.424257 
L 257.532797 278.519723 
L 257.886066 274.601827 
L 258.239335 274.15942 
L 259.299143 274.061263 
L 259.652413 274.53488 
L 260.005682 273.345224 
L 260.358951 273.816795 
L 260.712221 271.213263 
L 261.06549 274.01911 
L 261.41876 272.882815 
L 261.772029 270.923402 
L 262.125298 273.119142 
L 262.478568 271.282073 
L 262.831837 272.492617 
L 263.185106 272.531259 
L 263.538376 273.712388 
L 263.891645 284.373362 
L 264.598184 273.49981 
L 265.657992 272.283488 
L 266.011261 274.460654 
L 266.364531 273.393487 
L 266.7178 274.076822 
L 267.071069 271.617313 
L 267.424339 273.188646 
L 268.130877 271.912745 
L 268.484147 272.889761 
L 269.190686 271.82351 
L 269.543955 274.0962 
L 269.897224 271.229695 
L 270.250494 273.153828 
L 270.603763 271.557595 
L 270.957032 271.170025 
L 271.310302 271.260061 
L 272.01684 274.245915 
L 272.37011 272.437413 
L 272.723379 273.721725 
L 273.076649 274.035228 
L 273.429918 273.836083 
L 273.783187 274.603482 
L 274.136457 272.961821 
L 274.489726 274.480245 
L 274.842995 273.992762 
L 275.196265 274.183072 
L 275.549534 276.317169 
L 276.256073 271.569175 
L 276.609342 271.567096 
L 276.962612 271.705511 
L 277.315881 270.549066 
L 277.66915 271.23011 
L 278.02242 271.602145 
L 278.375689 269.355219 
L 278.728958 270.690399 
L 279.082228 270.348884 
L 279.788766 271.816324 
L 280.142036 268.642354 
L 280.848575 270.516506 
L 281.201844 270.482316 
L 281.555113 270.208699 
L 281.908383 271.821798 
L 282.261652 281.801468 
L 282.614921 281.588587 
L 282.968191 271.399565 
L 283.32146 270.084097 
L 283.674729 269.819113 
L 284.027999 270.117212 
L 284.381268 270.635952 
L 284.734538 271.93822 
L 285.087807 271.417791 
L 285.441076 271.986185 
L 285.794346 271.231407 
L 286.147615 270.773861 
L 286.500884 279.485101 
L 286.854154 283.772351 
L 287.207423 284.956262 
L 287.913962 282.889938 
L 288.620501 283.950512 
L 288.97377 283.940731 
L 289.327039 281.399497 
L 289.680309 281.433248 
L 290.033578 282.715018 
L 290.386847 278.495883 
L 290.740117 279.662529 
L 291.093386 279.283727 
L 291.446655 278.44297 
L 291.799925 281.821213 
L 292.153194 280.564779 
L 292.506464 281.041651 
L 292.859733 279.872931 
L 293.213002 279.307336 
L 293.566272 280.162465 
L 293.919541 279.574934 
L 294.27281 280.145854 
L 294.62608 279.642842 
L 294.979349 277.414745 
L 295.332618 277.496571 
L 295.685888 274.786292 
L 296.039157 276.663329 
L 296.392427 276.677277 
L 296.745696 275.145565 
L 297.098965 276.841987 
L 297.452235 277.870015 
L 297.805504 277.88934 
L 298.158773 277.442901 
L 298.512043 279.078456 
L 299.218581 276.503278 
L 299.571851 275.474551 
L 300.27839 278.794455 
L 300.984928 286.184087 
L 301.691467 277.502764 
L 302.044736 278.36057 
L 303.104544 277.626912 
L 303.457814 279.038469 
L 303.811083 278.650132 
L 304.164353 274.920265 
L 304.517622 274.791472 
L 304.870891 273.445093 
L 305.224161 277.698649 
L 305.57743 275.683473 
L 305.930699 276.375064 
L 306.283969 277.389694 
L 306.637238 275.495487 
L 306.990507 272.235301 
L 307.343777 278.257811 
L 307.697046 276.248895 
L 308.050316 278.480199 
L 308.403585 279.997138 
L 308.756854 274.1236 
L 309.110124 273.248518 
L 309.463393 274.853944 
L 309.816662 278.181517 
L 310.169932 279.823824 
L 310.523201 278.047057 
L 310.87647 278.310324 
L 311.22974 279.681777 
L 311.583009 277.990348 
L 312.289548 278.072291 
L 312.642817 279.958163 
L 312.996087 275.619694 
L 313.349356 273.964856 
L 313.702625 275.866616 
L 314.055895 273.42461 
L 314.409164 275.028671 
L 314.762433 272.962925 
L 315.468972 274.641154 
L 315.822242 274.572041 
L 316.175511 275.359952 
L 316.52878 273.086403 
L 316.88205 272.68204 
L 317.235319 273.820509 
L 317.588588 273.290319 
L 317.941858 271.631102 
L 318.295127 272.841121 
L 318.648396 272.825248 
L 319.001666 276.327355 
L 319.354935 284.830918 
L 319.708205 280.211259 
L 320.061474 278.902596 
L 320.414743 274.735853 
L 320.768013 272.985965 
L 321.121282 277.060395 
L 321.474551 272.82944 
L 321.827821 271.995247 
L 322.18109 275.057233 
L 322.534359 274.082957 
L 322.887629 274.059092 
L 323.240898 272.530246 
L 323.594168 269.517812 
L 323.947437 274.807851 
L 324.300706 274.86141 
L 324.653976 264.089941 
L 325.007245 274.239872 
L 325.360514 273.306519 
L 325.713784 278.008261 
L 326.420322 273.447919 
L 326.773592 276.3335 
L 327.126861 276.297438 
L 327.480131 274.271868 
L 327.8334 274.38324 
L 328.186669 278.605915 
L 328.539939 272.718289 
L 328.893208 275.023858 
L 329.246477 278.778351 
L 329.599747 280.522674 
L 329.953016 278.184883 
L 330.306285 279.616363 
L 331.012824 279.268511 
L 331.366094 278.090343 
L 331.719363 276.476284 
L 332.072632 273.86735 
L 332.425902 272.717132 
L 332.779171 273.204624 
L 333.13244 272.525592 
L 333.48571 270.716178 
L 333.838979 274.492857 
L 334.192248 274.8106 
L 334.545518 271.838379 
L 334.898787 271.360104 
L 335.252057 274.84096 
L 335.605326 271.183838 
L 335.958595 276.017889 
L 336.311865 271.427172 
L 336.665134 271.131832 
L 337.018403 273.011849 
L 337.371673 276.911201 
L 337.724942 282.255865 
L 338.431481 273.540511 
L 338.78475 272.327782 
L 339.13802 272.174946 
L 339.491289 275.39203 
L 340.197828 272.730646 
L 340.551097 275.255978 
L 340.904366 275.437274 
L 341.257636 271.178436 
L 341.610905 274.864487 
L 341.964174 276.70321 
L 342.317444 271.93249 
L 342.670713 276.914669 
L 343.377252 271.495687 
L 344.083791 276.632153 
L 344.43706 272.200841 
L 344.790329 271.027279 
L 345.143599 275.646775 
L 345.496868 275.163203 
L 345.850138 273.039813 
L 346.203407 277.226475 
L 346.556676 278.11196 
L 346.909946 276.823905 
L 347.263215 277.919383 
L 347.616484 277.708594 
L 347.969754 278.326939 
L 348.323023 276.918759 
L 348.676292 278.620461 
L 349.029562 276.486108 
L 349.382831 279.190152 
L 350.08937 270.677985 
L 350.442639 270.700628 
L 350.795909 273.611428 
L 351.149178 272.861696 
L 351.502447 269.692567 
L 351.855717 272.443114 
L 352.208986 271.610175 
L 352.562255 273.492527 
L 352.915525 270.326486 
L 353.622064 273.185009 
L 353.975333 271.114691 
L 354.328602 274.593956 
L 354.681872 270.981567 
L 355.035141 272.681441 
L 355.38841 271.392143 
L 355.74168 275.544055 
L 356.094949 284.115395 
L 356.448218 282.068724 
L 356.801488 275.240202 
L 357.154757 274.4801 
L 357.508027 272.214943 
L 357.861296 271.780812 
L 358.214565 274.541222 
L 358.567835 273.275715 
L 358.921104 274.585994 
L 359.274373 272.326417 
L 359.627643 295.488 
L 360.334181 295.488 
L 360.687451 273.651526 
L 361.39399 275.837673 
L 361.747259 271.068564 
L 362.100528 270.177914 
L 362.453798 273.963959 
L 363.160336 271.278692 
L 363.513606 271.295582 
L 363.866875 269.37889 
L 364.220144 275.321527 
L 364.573414 273.2505 
L 364.926683 277.535184 
L 365.279953 275.525288 
L 365.633222 279.676168 
L 365.986491 276.249985 
L 366.69303 278.658543 
L 367.046299 278.525058 
L 367.399569 277.428042 
L 367.752838 278.579615 
L 368.106107 274.201906 
L 368.459377 272.232745 
L 368.812646 272.42852 
L 369.519185 272.235518 
L 369.872454 276.496999 
L 370.225724 272.745389 
L 370.578993 272.882627 
L 370.932262 271.245823 
L 371.285532 273.045557 
L 371.638801 271.510909 
L 371.99207 273.902254 
L 372.34534 272.127517 
L 372.698609 269.022761 
L 373.051879 275.524184 
L 373.405148 270.358858 
L 373.758417 271.75459 
L 374.818225 287.306183 
L 375.171495 276.510706 
L 375.524764 272.624178 
L 376.231303 274.569851 
L 376.584572 272.18806 
L 377.291111 273.404021 
L 377.64438 270.512662 
L 377.99765 274.046143 
L 378.704188 270.498198 
L 379.410727 277.35098 
L 379.763996 273.752168 
L 380.117266 272.353416 
L 380.470535 277.256744 
L 380.823805 273.678304 
L 381.530343 272.158688 
L 381.883613 273.586652 
L 382.236882 276.419735 
L 382.590151 274.247285 
L 382.943421 275.41871 
L 383.29669 271.84546 
L 383.649959 279.079223 
L 384.003229 277.689539 
L 384.356498 275.434081 
L 384.709768 280.006875 
L 385.063037 277.131563 
L 385.416306 276.986541 
L 385.769576 280.309706 
L 386.122845 279.811554 
L 386.476114 277.591762 
L 387.182653 271.225528 
L 387.535922 270.698458 
L 387.889192 272.390302 
L 388.242461 272.997684 
L 388.595731 272.707322 
L 388.949 273.885735 
L 389.302269 274.170527 
L 389.655539 269.831464 
L 390.008808 272.842597 
L 390.362077 270.99946 
L 390.715347 271.938789 
L 391.068616 271.592002 
L 391.421885 276.847596 
L 391.775155 270.568238 
L 392.128424 273.786054 
L 392.481694 275.309402 
L 392.834963 282.278586 
L 393.188232 286.969307 
L 393.541502 274.732086 
L 393.894771 271.323791 
L 394.24804 278.066927 
L 394.60131 275.163314 
L 394.954579 274.7373 
L 395.307848 272.405533 
L 395.661118 279.416996 
L 396.014387 269.41651 
L 396.367657 269.727534 
L 396.720926 274.074053 
L 397.074195 273.672931 
L 397.427465 270.672482 
L 397.780734 274.594849 
L 398.134003 274.039159 
L 398.487273 273.223058 
L 398.487273 273.223058 
" clip-path="url(#pf2189dac99)" style="fill: none; stroke: #2ca02c; stroke-width: 1.5; stroke-linecap: square"/>
   </g>
   <g id="patch_3">
    <path d="M 57.6 307.584 
L 57.6 41.472 
" style="fill: none; stroke: #000000; stroke-width: 0.8; stroke-linejoin: miter; stroke-linecap: square"/>
   </g>
   <g id="patch_4">
    <path d="M 414.72 307.584 
L 414.72 41.472 
" style="fill: none; stroke: #000000; stroke-width: 0.8; stroke-linejoin: miter; stroke-linecap: square"/>
   </g>
   <g id="patch_5">
    <path d="M 57.6 307.584 
L 414.72 307.584 
" style="fill: none; stroke: #000000; stroke-width: 0.8; stroke-linejoin: miter; stroke-linecap: square"/>
   </g>
   <g id="patch_6">
    <path d="M 57.6 41.472 
L 414.72 41.472 
" style="fill: none; stroke: #000000; stroke-width: 0.8; stroke-linejoin: miter; stroke-linecap: square"/>
   </g>
   <g id="legend_1">
    <g id="patch_7">
     <path d="M 64.6 93.506375 
L 186.25625 93.506375 
Q 188.25625 93.506375 188.25625 91.506375 
L 188.25625 48.472 
Q 188.25625 46.472 186.25625 46.472 
L 64.6 46.472 
Q 62.6 46.472 62.6 48.472 
L 62.6 91.506375 
Q 62.6 93.506375 64.6 93.506375 
z
" style="fill: #ffffff; opacity: 0.8; stroke: #cccccc; stroke-linejoin: miter"/>
    </g>
    <g id="line2d_20">
     <path d="M 66.6 54.570438 
L 76.6 54.570438 
L 86.6 54.570438 
" style="fill: none; stroke: #1f77b4; stroke-width: 1.5; stroke-linecap: square"/>
    </g>
    <g id="text_19">
     <!-- Weekly maximum -->
     <g transform="translate(94.6 58.070438) scale(0.1 -0.1)">
      <defs>
       <path id="DejaVuSans-57" d="M 213 4666 
L 850 4666 
L 1831 722 
L 2809 4666 
L 3519 4666 
L 4500 722 
L 5478 4666 
L 6119 4666 
L 4947 0 
L 4153 0 
L 3169 4050 
L 2175 0 
L 1381 0 
L 213 4666 
z
" transform="scale(0.015625)"/>
       <path id="DejaVuSans-6b" d="M 581 4863 
L 1159 4863 
L 1159 1991 
L 2875 3500 
L 3609 3500 
L 1753 1863 
L 3688 0 
L 2938 0 
L 1159 1709 
L 1159 0 
L 581 0 
L 581 4863 
z
" transform="scale(0.015625)"/>
       <path id="DejaVuSans-79" d="M 2059 -325 
Q 1816 -950 1584 -1140 
Q 1353 -1331 966 -1331 
L 506 -1331 
L 506 -850 
L 844 -850 
Q 1081 -850 1212 -737 
Q 1344 -625 1503 -206 
L 1606 56 
L 191 3500 
L 800 3500 
L 1894 763 
L 2988 3500 
L 3597 3500 
L 2059 -325 
z
" transform="scale(0.015625)"/>
       <path id="DejaVuSans-6d" d="M 3328 2828 
Q 3544 3216 3844 3400 
Q 4144 3584 4550 3584 
Q 5097 3584 5394 3201 
Q 5691 2819 5691 2113 
L 5691 0 
L 5113 0 
L 5113 2094 
Q 5113 2597 4934 2840 
Q 4756 3084 4391 3084 
Q 3944 3084 3684 2787 
Q 3425 2491 3425 1978 
L 3425 0 
L 2847 0 
L 2847 2094 
Q 2847 2600 2669 2842 
Q 2491 3084 2119 3084 
Q 1678 3084 1418 2786 
Q 1159 2488 1159 1978 
L 1159 0 
L 581 0 
L 581 3500 
L 1159 3500 
L 1159 2956 
Q 1356 3278 1631 3431 
Q 1906 3584 2284 3584 
Q 2666 3584 2933 3390 
Q 3200 3197 3328 2828 
z
" transform="scale(0.015625)"/>
       <path id="DejaVuSans-78" d="M 3513 3500 
L 2247 1797 
L 3578 0 
L 2900 0 
L 1881 1375 
L 863 0 
L 184 0 
L 1544 1831 
L 300 3500 
L 978 3500 
L 1906 2253 
L 2834 3500 
L 3513 3500 
z
" transform="scale(0.015625)"/>
       <path id="DejaVuSans-75" d="M 544 1381 
L 544 3500 
L 1119 3500 
L 1119 1403 
Q 1119 906 1312 657 
Q 1506 409 1894 409 
Q 2359 409 2629 706 
Q 2900 1003 2900 1516 
L 2900 3500 
L 3475 3500 
L 3475 0 
L 2900 0 
L 2900 538 
Q 2691 219 2414 64 
Q 2138 -91 1772 -91 
Q 1169 -91 856 284 
Q 544 659 544 1381 
z
M 1991 3584 
L 1991 3584 
z
" transform="scale(0.015625)"/>
      </defs>
      <use xlink:href="#DejaVuSans-57"/>
      <use xlink:href="#DejaVuSans-65" transform="translate(93.001953 0)"/>
      <use xlink:href="#DejaVuSans-65" transform="translate(154.525391 0)"/>
      <use xlink:href="#DejaVuSans-6b" transform="translate(216.048828 0)"/>
      <use xlink:href="#DejaVuSans-6c" transform="translate(273.958984 0)"/>
      <use xlink:href="#DejaVuSans-79" transform="translate(301.742188 0)"/>
      <use xlink:href="#DejaVuSans-20" transform="translate(360.921875 0)"/>
      <use xlink:href="#DejaVuSans-6d" transform="translate(392.708984 0)"/>
      <use xlink:href="#DejaVuSans-61" transform="translate(490.121094 0)"/>
      <use xlink:href="#DejaVuSans-78" transform="translate(551.400391 0)"/>
      <use xlink:href="#DejaVuSans-69" transform="translate(610.580078 0)"/>
      <use xlink:href="#DejaVuSans-6d" transform="translate(638.363281 0)"/>
      <use xlink:href="#DejaVuSans-75" transform="translate(735.775391 0)"/>
      <use xlink:href="#DejaVuSans-6d" transform="translate(799.154297 0)"/>
     </g>
    </g>
    <g id="line2d_21">
     <path d="M 66.6 69.248563 
L 76.6 69.248563 
L 86.6 69.248563 
" style="fill: none; stroke: #ff7f0e; stroke-width: 1.5; stroke-linecap: square"/>
    </g>
    <g id="text_20">
     <!-- Weekly minimum -->
     <g transform="translate(94.6 72.748563) scale(0.1 -0.1)">
      <defs>
       <path id="DejaVuSans-6e" d="M 3513 2113 
L 3513 0 
L 2938 0 
L 2938 2094 
Q 2938 2591 2744 2837 
Q 2550 3084 2163 3084 
Q 1697 3084 1428 2787 
Q 1159 2491 1159 1978 
L 1159 0 
L 581 0 
L 581 3500 
L 1159 3500 
L 1159 2956 
Q 1366 3272 1645 3428 
Q 1925 3584 2291 3584 
Q 2894 3584 3203 3211 
Q 3513 2838 3513 2113 
z
" transform="scale(0.015625)"/>
      </defs>
      <use xlink:href="#DejaVuSans-57"/>
      <use xlink:href="#DejaVuSans-65" transform="translate(93.001953 0)"/>
      <use xlink:href="#DejaVuSans-65" transform="translate(154.525391 0)"/>
      <use xlink:href="#DejaVuSans-6b" transform="translate(216.048828 0)"/>
      <use xlink:href="#DejaVuSans-6c" transform="translate(273.958984 0)"/>
      <use xlink:href="#DejaVuSans-79" transform="translate(301.742188 0)"/>
      <use xlink:href="#DejaVuSans-20" transform="translate(360.921875 0)"/>
      <use xlink:href="#DejaVuSans-6d" transform="translate(392.708984 0)"/>
      <use xlink:href="#DejaVuSans-69" transform="translate(490.121094 0)"/>
      <use xlink:href="#DejaVuSans-6e" transform="translate(517.904297 0)"/>
      <use xlink:href="#DejaVuSans-69" transform="translate(581.283203 0)"/>
      <use xlink:href="#DejaVuSans-6d" transform="translate(609.066406 0)"/>
      <use xlink:href="#DejaVuSans-75" transform="translate(706.478516 0)"/>
      <use xlink:href="#DejaVuSans-6d" transform="translate(769.857422 0)"/>
     </g>
    </g>
    <g id="line2d_22">
     <path d="M 66.6 83.926688 
L 76.6 83.926688 
L 86.6 83.926688 
" style="fill: none; stroke: #2ca02c; stroke-width: 1.5; stroke-linecap: square"/>
    </g>
    <g id="text_21">
     <!-- Weekly range -->
     <g transform="translate(94.6 87.426688) scale(0.1 -0.1)">
      <use xlink:href="#DejaVuSans-57"/>
      <use xlink:href="#DejaVuSans-65" transform="translate(93.001953 0)"/>
      <use xlink:href="#DejaVuSans-65" transform="translate(154.525391 0)"/>
      <use xlink:href="#DejaVuSans-6b" transform="translate(216.048828 0)"/>
      <use xlink:href="#DejaVuSans-6c" transform="translate(273.958984 0)"/>
      <use xlink:href="#DejaVuSans-79" transform="translate(301.742188 0)"/>
      <use xlink:href="#DejaVuSans-20" transform="translate(360.921875 0)"/>
      <use xlink:href="#DejaVuSans-72" transform="translate(392.708984 0)"/>
      <use xlink:href="#DejaVuSans-61" transform="translate(433.822266 0)"/>
      <use xlink:href="#DejaVuSans-6e" transform="translate(495.101562 0)"/>
      <use xlink:href="#DejaVuSans-67" transform="translate(558.480469 0)"/>
      <use xlink:href="#DejaVuSans-65" transform="translate(621.957031 0)"/>
     </g>
    </g>
   </g>
  </g>
 </g>
 <defs>
  <clipPath id="pf2189dac99">
   <rect x="57.6" y="41.472" width="357.12" height="266.112"/>
  </clipPath>
 </defs>
</svg>
