<?xml version="1.0" encoding="utf-8" standalone="no"?>
<!DOCTYPE svg PUBLIC "-//W3C//DTD SVG 1.1//EN"
  "http://www.w3.org/Graphics/SVG/1.1/DTD/svg11.dtd">
<svg xmlns:xlink="http://www.w3.org/1999/xlink" width="460.8pt" height="345.6pt" viewBox="0 0 460.8 345.6" xmlns="http://www.w3.org/2000/svg" version="1.1">
 <metadata>
  <rdf:RDF xmlns:dc="http://purl.org/dc/elements/1.1/" xmlns:cc="http://creativecommons.org/ns#" xmlns:rdf="http://www.w3.org/1999/02/22-rdf-syntax-ns#">
   <cc:Work>
    <dc:type rdf:resource="http://purl.org/dc/dcmitype/StillImage"/>
    <dc:date>2024-05-20T05:33:21.097994</dc:date>
    <dc:format>image/svg+xml</dc:format>
    <dc:creator>
     <cc:Agent>
      <dc:title>Matplotlib v3.9.0, https://matplotlib.org/</dc:title>
     </cc:Agent>
    </dc:creator>
   </cc:Work>
  </rdf:RDF>
 </metadata>
 <defs>
  <style type="text/css">*{stroke-linejoin: round; stroke-linecap: butt}</style>
 </defs>
 <g id="figure_1">
  <g id="patch_1">
   <path d="M 0 345.6 
L 460.8 345.6 
L 460.8 0 
L 0 0 
z
" style="fill: #ffffff"/>
  </g>
  <g id="axes_1">
   <g id="patch_2">
    <path d="M 57.6 307.584 
L 414.72 307.584 
L 414.72 41.472 
L 57.6 41.472 
z
" style="fill: #ffffff"/>
   </g>
   <g id="matplotlib.axis_1">
    <g id="xtick_1">
     <g id="line2d_1">
      <defs>
       <path id="m987c07ed26" d="M 0 0 
L 0 3.5 
" style="stroke: #000000; stroke-width: 0.8"/>
      </defs>
      <g>
       <use xlink:href="#m987c07ed26" x="60.01523" y="307.584" style="stroke: #000000; stroke-width: 0.8"/>
      </g>
     </g>
     <g id="text_1">
      <!-- 2008 -->
      <g transform="translate(47.29023 322.182437) scale(0.1 -0.1)">
       <defs>
        <path id="DejaVuSans-32" d="M 1228 531 
L 3431 531 
L 3431 0 
L 469 0 
L 469 531 
Q 828 903 1448 1529 
Q 2069 2156 2228 2338 
Q 2531 2678 2651 2914 
Q 2772 3150 2772 3378 
Q 2772 3750 2511 3984 
Q 2250 4219 1831 4219 
Q 1534 4219 1204 4116 
Q 875 4013 500 3803 
L 500 4441 
Q 881 4594 1212 4672 
Q 1544 4750 1819 4750 
Q 2544 4750 2975 4387 
Q 3406 4025 3406 3419 
Q 3406 3131 3298 2873 
Q 3191 2616 2906 2266 
Q 2828 2175 2409 1742 
Q 1991 1309 1228 531 
z
" transform="scale(0.015625)"/>
        <path id="DejaVuSans-30" d="M 2034 4250 
Q 1547 4250 1301 3770 
Q 1056 3291 1056 2328 
Q 1056 1369 1301 889 
Q 1547 409 2034 409 
Q 2525 409 2770 889 
Q 3016 1369 3016 2328 
Q 3016 3291 2770 3770 
Q 2525 4250 2034 4250 
z
M 2034 4750 
Q 2819 4750 3233 4129 
Q 3647 3509 3647 2328 
Q 3647 1150 3233 529 
Q 2819 -91 2034 -91 
Q 1250 -91 836 529 
Q 422 1150 422 2328 
Q 422 3509 836 4129 
Q 1250 4750 2034 4750 
z
" transform="scale(0.015625)"/>
        <path id="DejaVuSans-38" d="M 2034 2216 
Q 1584 2216 1326 1975 
Q 1069 1734 1069 1313 
Q 1069 891 1326 650 
Q 1584 409 2034 409 
Q 2484 409 2743 651 
Q 3003 894 3003 1313 
Q 3003 1734 2745 1975 
Q 2488 2216 2034 2216 
z
M 1403 2484 
Q 997 2584 770 2862 
Q 544 3141 544 3541 
Q 544 4100 942 4425 
Q 1341 4750 2034 4750 
Q 2731 4750 3128 4425 
Q 3525 4100 3525 3541 
Q 3525 3141 3298 2862 
Q 3072 2584 2669 2484 
Q 3125 2378 3379 2068 
Q 3634 1759 3634 1313 
Q 3634 634 3220 271 
Q 2806 -91 2034 -91 
Q 1263 -91 848 271 
Q 434 634 434 1313 
Q 434 1759 690 2068 
Q 947 2378 1403 2484 
z
M 1172 3481 
Q 1172 3119 1398 2916 
Q 1625 2713 2034 2713 
Q 2441 2713 2670 2916 
Q 2900 3119 2900 3481 
Q 2900 3844 2670 4047 
Q 2441 4250 2034 4250 
Q 1625 4250 1398 4047 
Q 1172 3844 1172 3481 
z
" transform="scale(0.015625)"/>
       </defs>
       <use xlink:href="#DejaVuSans-32"/>
       <use xlink:href="#DejaVuSans-30" x="63.623047"/>
       <use xlink:href="#DejaVuSans-30" x="127.246094"/>
       <use xlink:href="#DejaVuSans-38" x="190.869141"/>
      </g>
     </g>
    </g>
    <g id="xtick_2">
     <g id="line2d_2">
      <g>
       <use xlink:href="#m987c07ed26" x="101.411092" y="307.584" style="stroke: #000000; stroke-width: 0.8"/>
      </g>
     </g>
     <g id="text_2">
      <!-- 2010 -->
      <g transform="translate(88.686092 322.182437) scale(0.1 -0.1)">
       <defs>
        <path id="DejaVuSans-31" d="M 794 531 
L 1825 531 
L 1825 4091 
L 703 3866 
L 703 4441 
L 1819 4666 
L 2450 4666 
L 2450 531 
L 3481 531 
L 3481 0 
L 794 0 
L 794 531 
z
" transform="scale(0.015625)"/>
       </defs>
       <use xlink:href="#DejaVuSans-32"/>
       <use xlink:href="#DejaVuSans-30" x="63.623047"/>
       <use xlink:href="#DejaVuSans-31" x="127.246094"/>
       <use xlink:href="#DejaVuSans-30" x="190.869141"/>
      </g>
     </g>
    </g>
    <g id="xtick_3">
     <g id="line2d_3">
      <g>
       <use xlink:href="#m987c07ed26" x="142.750324" y="307.584" style="stroke: #000000; stroke-width: 0.8"/>
      </g>
     </g>
     <g id="text_3">
      <!-- 2012 -->
      <g transform="translate(130.025324 322.182437) scale(0.1 -0.1)">
       <use xlink:href="#DejaVuSans-32"/>
       <use xlink:href="#DejaVuSans-30" x="63.623047"/>
       <use xlink:href="#DejaVuSans-31" x="127.246094"/>
       <use xlink:href="#DejaVuSans-32" x="190.869141"/>
      </g>
     </g>
    </g>
    <g id="xtick_4">
     <g id="line2d_4">
      <g>
       <use xlink:href="#m987c07ed26" x="184.146185" y="307.584" style="stroke: #000000; stroke-width: 0.8"/>
      </g>
     </g>
     <g id="text_4">
      <!-- 2014 -->
      <g transform="translate(171.421185 322.182437) scale(0.1 -0.1)">
       <defs>
        <path id="DejaVuSans-34" d="M 2419 4116 
L 825 1625 
L 2419 1625 
L 2419 4116 
z
M 2253 4666 
L 3047 4666 
L 3047 1625 
L 3713 1625 
L 3713 1100 
L 3047 1100 
L 3047 0 
L 2419 0 
L 2419 1100 
L 313 1100 
L 313 1709 
L 2253 4666 
z
" transform="scale(0.015625)"/>
       </defs>
       <use xlink:href="#DejaVuSans-32"/>
       <use xlink:href="#DejaVuSans-30" x="63.623047"/>
       <use xlink:href="#DejaVuSans-31" x="127.246094"/>
       <use xlink:href="#DejaVuSans-34" x="190.869141"/>
      </g>
     </g>
    </g>
    <g id="xtick_5">
     <g id="line2d_5">
      <g>
       <use xlink:href="#m987c07ed26" x="225.485417" y="307.584" style="stroke: #000000; stroke-width: 0.8"/>
      </g>
     </g>
     <g id="text_5">
      <!-- 2016 -->
      <g transform="translate(212.760417 322.182437) scale(0.1 -0.1)">
       <defs>
        <path id="DejaVuSans-36" d="M 2113 2584 
Q 1688 2584 1439 2293 
Q 1191 2003 1191 1497 
Q 1191 994 1439 701 
Q 1688 409 2113 409 
Q 2538 409 2786 701 
Q 3034 994 3034 1497 
Q 3034 2003 2786 2293 
Q 2538 2584 2113 2584 
z
M 3366 4563 
L 3366 3988 
Q 3128 4100 2886 4159 
Q 2644 4219 2406 4219 
Q 1781 4219 1451 3797 
Q 1122 3375 1075 2522 
Q 1259 2794 1537 2939 
Q 1816 3084 2150 3084 
Q 2853 3084 3261 2657 
Q 3669 2231 3669 1497 
Q 3669 778 3244 343 
Q 2819 -91 2113 -91 
Q 1303 -91 875 529 
Q 447 1150 447 2328 
Q 447 3434 972 4092 
Q 1497 4750 2381 4750 
Q 2619 4750 2861 4703 
Q 3103 4656 3366 4563 
z
" transform="scale(0.015625)"/>
       </defs>
       <use xlink:href="#DejaVuSans-32"/>
       <use xlink:href="#DejaVuSans-30" x="63.623047"/>
       <use xlink:href="#DejaVuSans-31" x="127.246094"/>
       <use xlink:href="#DejaVuSans-36" x="190.869141"/>
      </g>
     </g>
    </g>
    <g id="xtick_6">
     <g id="line2d_6">
      <g>
       <use xlink:href="#m987c07ed26" x="266.881279" y="307.584" style="stroke: #000000; stroke-width: 0.8"/>
      </g>
     </g>
     <g id="text_6">
      <!-- 2018 -->
      <g transform="translate(254.156279 322.182437) scale(0.1 -0.1)">
       <use xlink:href="#DejaVuSans-32"/>
       <use xlink:href="#DejaVuSans-30" x="63.623047"/>
       <use xlink:href="#DejaVuSans-31" x="127.246094"/>
       <use xlink:href="#DejaVuSans-38" x="190.869141"/>
      </g>
     </g>
    </g>
    <g id="xtick_7">
     <g id="line2d_7">
      <g>
       <use xlink:href="#m987c07ed26" x="308.220511" y="307.584" style="stroke: #000000; stroke-width: 0.8"/>
      </g>
     </g>
     <g id="text_7">
      <!-- 2020 -->
      <g transform="translate(295.495511 322.182437) scale(0.1 -0.1)">
       <use xlink:href="#DejaVuSans-32"/>
       <use xlink:href="#DejaVuSans-30" x="63.623047"/>
       <use xlink:href="#DejaVuSans-32" x="127.246094"/>
       <use xlink:href="#DejaVuSans-30" x="190.869141"/>
      </g>
     </g>
    </g>
    <g id="xtick_8">
     <g id="line2d_8">
      <g>
       <use xlink:href="#m987c07ed26" x="349.616372" y="307.584" style="stroke: #000000; stroke-width: 0.8"/>
      </g>
     </g>
     <g id="text_8">
      <!-- 2022 -->
      <g transform="translate(336.891372 322.182437) scale(0.1 -0.1)">
       <use xlink:href="#DejaVuSans-32"/>
       <use xlink:href="#DejaVuSans-30" x="63.623047"/>
       <use xlink:href="#DejaVuSans-32" x="127.246094"/>
       <use xlink:href="#DejaVuSans-32" x="190.869141"/>
      </g>
     </g>
    </g>
    <g id="xtick_9">
     <g id="line2d_9">
      <g>
       <use xlink:href="#m987c07ed26" x="390.955604" y="307.584" style="stroke: #000000; stroke-width: 0.8"/>
      </g>
     </g>
     <g id="text_9">
      <!-- 2024 -->
      <g transform="translate(378.230604 322.182437) scale(0.1 -0.1)">
       <use xlink:href="#DejaVuSans-32"/>
       <use xlink:href="#DejaVuSans-30" x="63.623047"/>
       <use xlink:href="#DejaVuSans-32" x="127.246094"/>
       <use xlink:href="#DejaVuSans-34" x="190.869141"/>
      </g>
     </g>
    </g>
    <g id="text_10">
     <!-- Updated 2024-05-20 05:33:21.096282 - Last record 2024-05-18 -->
     <g transform="translate(75.905312 335.860562) scale(0.1 -0.1)">
      <defs>
       <path id="DejaVuSans-55" d="M 556 4666 
L 1191 4666 
L 1191 1831 
Q 1191 1081 1462 751 
Q 1734 422 2344 422 
Q 2950 422 3222 751 
Q 3494 1081 3494 1831 
L 3494 4666 
L 4128 4666 
L 4128 1753 
Q 4128 841 3676 375 
Q 3225 -91 2344 -91 
Q 1459 -91 1007 375 
Q 556 841 556 1753 
L 556 4666 
z
" transform="scale(0.015625)"/>
       <path id="DejaVuSans-70" d="M 1159 525 
L 1159 -1331 
L 581 -1331 
L 581 3500 
L 1159 3500 
L 1159 2969 
Q 1341 3281 1617 3432 
Q 1894 3584 2278 3584 
Q 2916 3584 3314 3078 
Q 3713 2572 3713 1747 
Q 3713 922 3314 415 
Q 2916 -91 2278 -91 
Q 1894 -91 1617 61 
Q 1341 213 1159 525 
z
M 3116 1747 
Q 3116 2381 2855 2742 
Q 2594 3103 2138 3103 
Q 1681 3103 1420 2742 
Q 1159 2381 1159 1747 
Q 1159 1113 1420 752 
Q 1681 391 2138 391 
Q 2594 391 2855 752 
Q 3116 1113 3116 1747 
z
" transform="scale(0.015625)"/>
       <path id="DejaVuSans-64" d="M 2906 2969 
L 2906 4863 
L 3481 4863 
L 3481 0 
L 2906 0 
L 2906 525 
Q 2725 213 2448 61 
Q 2172 -91 1784 -91 
Q 1150 -91 751 415 
Q 353 922 353 1747 
Q 353 2572 751 3078 
Q 1150 3584 1784 3584 
Q 2172 3584 2448 3432 
Q 2725 3281 2906 2969 
z
M 947 1747 
Q 947 1113 1208 752 
Q 1469 391 1925 391 
Q 2381 391 2643 752 
Q 2906 1113 2906 1747 
Q 2906 2381 2643 2742 
Q 2381 3103 1925 3103 
Q 1469 3103 1208 2742 
Q 947 2381 947 1747 
z
" transform="scale(0.015625)"/>
       <path id="DejaVuSans-61" d="M 2194 1759 
Q 1497 1759 1228 1600 
Q 959 1441 959 1056 
Q 959 750 1161 570 
Q 1363 391 1709 391 
Q 2188 391 2477 730 
Q 2766 1069 2766 1631 
L 2766 1759 
L 2194 1759 
z
M 3341 1997 
L 3341 0 
L 2766 0 
L 2766 531 
Q 2569 213 2275 61 
Q 1981 -91 1556 -91 
Q 1019 -91 701 211 
Q 384 513 384 1019 
Q 384 1609 779 1909 
Q 1175 2209 1959 2209 
L 2766 2209 
L 2766 2266 
Q 2766 2663 2505 2880 
Q 2244 3097 1772 3097 
Q 1472 3097 1187 3025 
Q 903 2953 641 2809 
L 641 3341 
Q 956 3463 1253 3523 
Q 1550 3584 1831 3584 
Q 2591 3584 2966 3190 
Q 3341 2797 3341 1997 
z
" transform="scale(0.015625)"/>
       <path id="DejaVuSans-74" d="M 1172 4494 
L 1172 3500 
L 2356 3500 
L 2356 3053 
L 1172 3053 
L 1172 1153 
Q 1172 725 1289 603 
Q 1406 481 1766 481 
L 2356 481 
L 2356 0 
L 1766 0 
Q 1100 0 847 248 
Q 594 497 594 1153 
L 594 3053 
L 172 3053 
L 172 3500 
L 594 3500 
L 594 4494 
L 1172 4494 
z
" transform="scale(0.015625)"/>
       <path id="DejaVuSans-65" d="M 3597 1894 
L 3597 1613 
L 953 1613 
Q 991 1019 1311 708 
Q 1631 397 2203 397 
Q 2534 397 2845 478 
Q 3156 559 3463 722 
L 3463 178 
Q 3153 47 2828 -22 
Q 2503 -91 2169 -91 
Q 1331 -91 842 396 
Q 353 884 353 1716 
Q 353 2575 817 3079 
Q 1281 3584 2069 3584 
Q 2775 3584 3186 3129 
Q 3597 2675 3597 1894 
z
M 3022 2063 
Q 3016 2534 2758 2815 
Q 2500 3097 2075 3097 
Q 1594 3097 1305 2825 
Q 1016 2553 972 2059 
L 3022 2063 
z
" transform="scale(0.015625)"/>
       <path id="DejaVuSans-20" transform="scale(0.015625)"/>
       <path id="DejaVuSans-2d" d="M 313 2009 
L 1997 2009 
L 1997 1497 
L 313 1497 
L 313 2009 
z
" transform="scale(0.015625)"/>
       <path id="DejaVuSans-35" d="M 691 4666 
L 3169 4666 
L 3169 4134 
L 1269 4134 
L 1269 2991 
Q 1406 3038 1543 3061 
Q 1681 3084 1819 3084 
Q 2600 3084 3056 2656 
Q 3513 2228 3513 1497 
Q 3513 744 3044 326 
Q 2575 -91 1722 -91 
Q 1428 -91 1123 -41 
Q 819 9 494 109 
L 494 744 
Q 775 591 1075 516 
Q 1375 441 1709 441 
Q 2250 441 2565 725 
Q 2881 1009 2881 1497 
Q 2881 1984 2565 2268 
Q 2250 2553 1709 2553 
Q 1456 2553 1204 2497 
Q 953 2441 691 2322 
L 691 4666 
z
" transform="scale(0.015625)"/>
       <path id="DejaVuSans-3a" d="M 750 794 
L 1409 794 
L 1409 0 
L 750 0 
L 750 794 
z
M 750 3309 
L 1409 3309 
L 1409 2516 
L 750 2516 
L 750 3309 
z
" transform="scale(0.015625)"/>
       <path id="DejaVuSans-33" d="M 2597 2516 
Q 3050 2419 3304 2112 
Q 3559 1806 3559 1356 
Q 3559 666 3084 287 
Q 2609 -91 1734 -91 
Q 1441 -91 1130 -33 
Q 819 25 488 141 
L 488 750 
Q 750 597 1062 519 
Q 1375 441 1716 441 
Q 2309 441 2620 675 
Q 2931 909 2931 1356 
Q 2931 1769 2642 2001 
Q 2353 2234 1838 2234 
L 1294 2234 
L 1294 2753 
L 1863 2753 
Q 2328 2753 2575 2939 
Q 2822 3125 2822 3475 
Q 2822 3834 2567 4026 
Q 2313 4219 1838 4219 
Q 1578 4219 1281 4162 
Q 984 4106 628 3988 
L 628 4550 
Q 988 4650 1302 4700 
Q 1616 4750 1894 4750 
Q 2613 4750 3031 4423 
Q 3450 4097 3450 3541 
Q 3450 3153 3228 2886 
Q 3006 2619 2597 2516 
z
" transform="scale(0.015625)"/>
       <path id="DejaVuSans-2e" d="M 684 794 
L 1344 794 
L 1344 0 
L 684 0 
L 684 794 
z
" transform="scale(0.015625)"/>
       <path id="DejaVuSans-39" d="M 703 97 
L 703 672 
Q 941 559 1184 500 
Q 1428 441 1663 441 
Q 2288 441 2617 861 
Q 2947 1281 2994 2138 
Q 2813 1869 2534 1725 
Q 2256 1581 1919 1581 
Q 1219 1581 811 2004 
Q 403 2428 403 3163 
Q 403 3881 828 4315 
Q 1253 4750 1959 4750 
Q 2769 4750 3195 4129 
Q 3622 3509 3622 2328 
Q 3622 1225 3098 567 
Q 2575 -91 1691 -91 
Q 1453 -91 1209 -44 
Q 966 3 703 97 
z
M 1959 2075 
Q 2384 2075 2632 2365 
Q 2881 2656 2881 3163 
Q 2881 3666 2632 3958 
Q 2384 4250 1959 4250 
Q 1534 4250 1286 3958 
Q 1038 3666 1038 3163 
Q 1038 2656 1286 2365 
Q 1534 2075 1959 2075 
z
" transform="scale(0.015625)"/>
       <path id="DejaVuSans-4c" d="M 628 4666 
L 1259 4666 
L 1259 531 
L 3531 531 
L 3531 0 
L 628 0 
L 628 4666 
z
" transform="scale(0.015625)"/>
       <path id="DejaVuSans-73" d="M 2834 3397 
L 2834 2853 
Q 2591 2978 2328 3040 
Q 2066 3103 1784 3103 
Q 1356 3103 1142 2972 
Q 928 2841 928 2578 
Q 928 2378 1081 2264 
Q 1234 2150 1697 2047 
L 1894 2003 
Q 2506 1872 2764 1633 
Q 3022 1394 3022 966 
Q 3022 478 2636 193 
Q 2250 -91 1575 -91 
Q 1294 -91 989 -36 
Q 684 19 347 128 
L 347 722 
Q 666 556 975 473 
Q 1284 391 1588 391 
Q 1994 391 2212 530 
Q 2431 669 2431 922 
Q 2431 1156 2273 1281 
Q 2116 1406 1581 1522 
L 1381 1569 
Q 847 1681 609 1914 
Q 372 2147 372 2553 
Q 372 3047 722 3315 
Q 1072 3584 1716 3584 
Q 2034 3584 2315 3537 
Q 2597 3491 2834 3397 
z
" transform="scale(0.015625)"/>
       <path id="DejaVuSans-72" d="M 2631 2963 
Q 2534 3019 2420 3045 
Q 2306 3072 2169 3072 
Q 1681 3072 1420 2755 
Q 1159 2438 1159 1844 
L 1159 0 
L 581 0 
L 581 3500 
L 1159 3500 
L 1159 2956 
Q 1341 3275 1631 3429 
Q 1922 3584 2338 3584 
Q 2397 3584 2469 3576 
Q 2541 3569 2628 3553 
L 2631 2963 
z
" transform="scale(0.015625)"/>
       <path id="DejaVuSans-63" d="M 3122 3366 
L 3122 2828 
Q 2878 2963 2633 3030 
Q 2388 3097 2138 3097 
Q 1578 3097 1268 2742 
Q 959 2388 959 1747 
Q 959 1106 1268 751 
Q 1578 397 2138 397 
Q 2388 397 2633 464 
Q 2878 531 3122 666 
L 3122 134 
Q 2881 22 2623 -34 
Q 2366 -91 2075 -91 
Q 1284 -91 818 406 
Q 353 903 353 1747 
Q 353 2603 823 3093 
Q 1294 3584 2113 3584 
Q 2378 3584 2631 3529 
Q 2884 3475 3122 3366 
z
" transform="scale(0.015625)"/>
       <path id="DejaVuSans-6f" d="M 1959 3097 
Q 1497 3097 1228 2736 
Q 959 2375 959 1747 
Q 959 1119 1226 758 
Q 1494 397 1959 397 
Q 2419 397 2687 759 
Q 2956 1122 2956 1747 
Q 2956 2369 2687 2733 
Q 2419 3097 1959 3097 
z
M 1959 3584 
Q 2709 3584 3137 3096 
Q 3566 2609 3566 1747 
Q 3566 888 3137 398 
Q 2709 -91 1959 -91 
Q 1206 -91 779 398 
Q 353 888 353 1747 
Q 353 2609 779 3096 
Q 1206 3584 1959 3584 
z
" transform="scale(0.015625)"/>
      </defs>
      <use xlink:href="#DejaVuSans-55"/>
      <use xlink:href="#DejaVuSans-70" x="73.193359"/>
      <use xlink:href="#DejaVuSans-64" x="136.669922"/>
      <use xlink:href="#DejaVuSans-61" x="200.146484"/>
      <use xlink:href="#DejaVuSans-74" x="261.425781"/>
      <use xlink:href="#DejaVuSans-65" x="300.634766"/>
      <use xlink:href="#DejaVuSans-64" x="362.158203"/>
      <use xlink:href="#DejaVuSans-20" x="425.634766"/>
      <use xlink:href="#DejaVuSans-32" x="457.421875"/>
      <use xlink:href="#DejaVuSans-30" x="521.044922"/>
      <use xlink:href="#DejaVuSans-32" x="584.667969"/>
      <use xlink:href="#DejaVuSans-34" x="648.291016"/>
      <use xlink:href="#DejaVuSans-2d" x="711.914062"/>
      <use xlink:href="#DejaVuSans-30" x="747.998047"/>
      <use xlink:href="#DejaVuSans-35" x="811.621094"/>
      <use xlink:href="#DejaVuSans-2d" x="875.244141"/>
      <use xlink:href="#DejaVuSans-32" x="911.328125"/>
      <use xlink:href="#DejaVuSans-30" x="974.951172"/>
      <use xlink:href="#DejaVuSans-20" x="1038.574219"/>
      <use xlink:href="#DejaVuSans-30" x="1070.361328"/>
      <use xlink:href="#DejaVuSans-35" x="1133.984375"/>
      <use xlink:href="#DejaVuSans-3a" x="1197.607422"/>
      <use xlink:href="#DejaVuSans-33" x="1231.298828"/>
      <use xlink:href="#DejaVuSans-33" x="1294.921875"/>
      <use xlink:href="#DejaVuSans-3a" x="1358.544922"/>
      <use xlink:href="#DejaVuSans-32" x="1392.236328"/>
      <use xlink:href="#DejaVuSans-31" x="1455.859375"/>
      <use xlink:href="#DejaVuSans-2e" x="1519.482422"/>
      <use xlink:href="#DejaVuSans-30" x="1551.269531"/>
      <use xlink:href="#DejaVuSans-39" x="1614.892578"/>
      <use xlink:href="#DejaVuSans-36" x="1678.515625"/>
      <use xlink:href="#DejaVuSans-32" x="1742.138672"/>
      <use xlink:href="#DejaVuSans-38" x="1805.761719"/>
      <use xlink:href="#DejaVuSans-32" x="1869.384766"/>
      <use xlink:href="#DejaVuSans-20" x="1933.007812"/>
      <use xlink:href="#DejaVuSans-2d" x="1964.794922"/>
      <use xlink:href="#DejaVuSans-20" x="2000.878906"/>
      <use xlink:href="#DejaVuSans-4c" x="2032.666016"/>
      <use xlink:href="#DejaVuSans-61" x="2088.378906"/>
      <use xlink:href="#DejaVuSans-73" x="2149.658203"/>
      <use xlink:href="#DejaVuSans-74" x="2201.757812"/>
      <use xlink:href="#DejaVuSans-20" x="2240.966797"/>
      <use xlink:href="#DejaVuSans-72" x="2272.753906"/>
      <use xlink:href="#DejaVuSans-65" x="2311.617188"/>
      <use xlink:href="#DejaVuSans-63" x="2373.140625"/>
      <use xlink:href="#DejaVuSans-6f" x="2428.121094"/>
      <use xlink:href="#DejaVuSans-72" x="2489.302734"/>
      <use xlink:href="#DejaVuSans-64" x="2528.666016"/>
      <use xlink:href="#DejaVuSans-20" x="2592.142578"/>
      <use xlink:href="#DejaVuSans-32" x="2623.929688"/>
      <use xlink:href="#DejaVuSans-30" x="2687.552734"/>
      <use xlink:href="#DejaVuSans-32" x="2751.175781"/>
      <use xlink:href="#DejaVuSans-34" x="2814.798828"/>
      <use xlink:href="#DejaVuSans-2d" x="2878.421875"/>
      <use xlink:href="#DejaVuSans-30" x="2914.505859"/>
      <use xlink:href="#DejaVuSans-35" x="2978.128906"/>
      <use xlink:href="#DejaVuSans-2d" x="3041.751953"/>
      <use xlink:href="#DejaVuSans-31" x="3077.835938"/>
      <use xlink:href="#DejaVuSans-38" x="3141.458984"/>
     </g>
    </g>
   </g>
   <g id="matplotlib.axis_2">
    <g id="ytick_1">
     <g id="line2d_10">
      <defs>
       <path id="m9b8fb4161d" d="M 0 0 
L -3.5 0 
" style="stroke: #000000; stroke-width: 0.8"/>
      </defs>
      <g>
       <use xlink:href="#m9b8fb4161d" x="57.6" y="295.488" style="stroke: #000000; stroke-width: 0.8"/>
      </g>
     </g>
     <g id="text_11">
      <!-- 0 -->
      <g transform="translate(44.2375 299.287219) scale(0.1 -0.1)">
       <use xlink:href="#DejaVuSans-30"/>
      </g>
     </g>
    </g>
    <g id="ytick_2">
     <g id="line2d_11">
      <g>
       <use xlink:href="#m9b8fb4161d" x="57.6" y="243.259205" style="stroke: #000000; stroke-width: 0.8"/>
      </g>
     </g>
     <g id="text_12">
      <!-- 10 -->
      <g transform="translate(37.875 247.058424) scale(0.1 -0.1)">
       <use xlink:href="#DejaVuSans-31"/>
       <use xlink:href="#DejaVuSans-30" x="63.623047"/>
      </g>
     </g>
    </g>
    <g id="ytick_3">
     <g id="line2d_12">
      <g>
       <use xlink:href="#m9b8fb4161d" x="57.6" y="191.030411" style="stroke: #000000; stroke-width: 0.8"/>
      </g>
     </g>
     <g id="text_13">
      <!-- 20 -->
      <g transform="translate(37.875 194.82963) scale(0.1 -0.1)">
       <use xlink:href="#DejaVuSans-32"/>
       <use xlink:href="#DejaVuSans-30" x="63.623047"/>
      </g>
     </g>
    </g>
    <g id="ytick_4">
     <g id="line2d_13">
      <g>
       <use xlink:href="#m9b8fb4161d" x="57.6" y="138.801616" style="stroke: #000000; stroke-width: 0.8"/>
      </g>
     </g>
     <g id="text_14">
      <!-- 30 -->
      <g transform="translate(37.875 142.600835) scale(0.1 -0.1)">
       <use xlink:href="#DejaVuSans-33"/>
       <use xlink:href="#DejaVuSans-30" x="63.623047"/>
      </g>
     </g>
    </g>
    <g id="ytick_5">
     <g id="line2d_14">
      <g>
       <use xlink:href="#m9b8fb4161d" x="57.6" y="86.572822" style="stroke: #000000; stroke-width: 0.8"/>
      </g>
     </g>
     <g id="text_15">
      <!-- 40 -->
      <g transform="translate(37.875 90.372041) scale(0.1 -0.1)">
       <use xlink:href="#DejaVuSans-34"/>
       <use xlink:href="#DejaVuSans-30" x="63.623047"/>
      </g>
     </g>
    </g>
    <g id="text_16">
     <!-- IPv6 as % of total Google traffic -->
     <g transform="translate(31.795312 253.735813) rotate(-90) scale(0.1 -0.1)">
      <defs>
       <path id="DejaVuSans-49" d="M 628 4666 
L 1259 4666 
L 1259 0 
L 628 0 
L 628 4666 
z
" transform="scale(0.015625)"/>
       <path id="DejaVuSans-50" d="M 1259 4147 
L 1259 2394 
L 2053 2394 
Q 2494 2394 2734 2622 
Q 2975 2850 2975 3272 
Q 2975 3691 2734 3919 
Q 2494 4147 2053 4147 
L 1259 4147 
z
M 628 4666 
L 2053 4666 
Q 2838 4666 3239 4311 
Q 3641 3956 3641 3272 
Q 3641 2581 3239 2228 
Q 2838 1875 2053 1875 
L 1259 1875 
L 1259 0 
L 628 0 
L 628 4666 
z
" transform="scale(0.015625)"/>
       <path id="DejaVuSans-76" d="M 191 3500 
L 800 3500 
L 1894 563 
L 2988 3500 
L 3597 3500 
L 2284 0 
L 1503 0 
L 191 3500 
z
" transform="scale(0.015625)"/>
       <path id="DejaVuSans-25" d="M 4653 2053 
Q 4381 2053 4226 1822 
Q 4072 1591 4072 1178 
Q 4072 772 4226 539 
Q 4381 306 4653 306 
Q 4919 306 5073 539 
Q 5228 772 5228 1178 
Q 5228 1588 5073 1820 
Q 4919 2053 4653 2053 
z
M 4653 2450 
Q 5147 2450 5437 2106 
Q 5728 1763 5728 1178 
Q 5728 594 5436 251 
Q 5144 -91 4653 -91 
Q 4153 -91 3862 251 
Q 3572 594 3572 1178 
Q 3572 1766 3864 2108 
Q 4156 2450 4653 2450 
z
M 1428 4353 
Q 1159 4353 1004 4120 
Q 850 3888 850 3481 
Q 850 3069 1003 2837 
Q 1156 2606 1428 2606 
Q 1700 2606 1854 2837 
Q 2009 3069 2009 3481 
Q 2009 3884 1853 4118 
Q 1697 4353 1428 4353 
z
M 4250 4750 
L 4750 4750 
L 1831 -91 
L 1331 -91 
L 4250 4750 
z
M 1428 4750 
Q 1922 4750 2215 4408 
Q 2509 4066 2509 3481 
Q 2509 2891 2217 2550 
Q 1925 2209 1428 2209 
Q 931 2209 642 2551 
Q 353 2894 353 3481 
Q 353 4063 643 4406 
Q 934 4750 1428 4750 
z
" transform="scale(0.015625)"/>
       <path id="DejaVuSans-66" d="M 2375 4863 
L 2375 4384 
L 1825 4384 
Q 1516 4384 1395 4259 
Q 1275 4134 1275 3809 
L 1275 3500 
L 2222 3500 
L 2222 3053 
L 1275 3053 
L 1275 0 
L 697 0 
L 697 3053 
L 147 3053 
L 147 3500 
L 697 3500 
L 697 3744 
Q 697 4328 969 4595 
Q 1241 4863 1831 4863 
L 2375 4863 
z
" transform="scale(0.015625)"/>
       <path id="DejaVuSans-6c" d="M 603 4863 
L 1178 4863 
L 1178 0 
L 603 0 
L 603 4863 
z
" transform="scale(0.015625)"/>
       <path id="DejaVuSans-47" d="M 3809 666 
L 3809 1919 
L 2778 1919 
L 2778 2438 
L 4434 2438 
L 4434 434 
Q 4069 175 3628 42 
Q 3188 -91 2688 -91 
Q 1594 -91 976 548 
Q 359 1188 359 2328 
Q 359 3472 976 4111 
Q 1594 4750 2688 4750 
Q 3144 4750 3555 4637 
Q 3966 4525 4313 4306 
L 4313 3634 
Q 3963 3931 3569 4081 
Q 3175 4231 2741 4231 
Q 1884 4231 1454 3753 
Q 1025 3275 1025 2328 
Q 1025 1384 1454 906 
Q 1884 428 2741 428 
Q 3075 428 3337 486 
Q 3600 544 3809 666 
z
" transform="scale(0.015625)"/>
       <path id="DejaVuSans-67" d="M 2906 1791 
Q 2906 2416 2648 2759 
Q 2391 3103 1925 3103 
Q 1463 3103 1205 2759 
Q 947 2416 947 1791 
Q 947 1169 1205 825 
Q 1463 481 1925 481 
Q 2391 481 2648 825 
Q 2906 1169 2906 1791 
z
M 3481 434 
Q 3481 -459 3084 -895 
Q 2688 -1331 1869 -1331 
Q 1566 -1331 1297 -1286 
Q 1028 -1241 775 -1147 
L 775 -588 
Q 1028 -725 1275 -790 
Q 1522 -856 1778 -856 
Q 2344 -856 2625 -561 
Q 2906 -266 2906 331 
L 2906 616 
Q 2728 306 2450 153 
Q 2172 0 1784 0 
Q 1141 0 747 490 
Q 353 981 353 1791 
Q 353 2603 747 3093 
Q 1141 3584 1784 3584 
Q 2172 3584 2450 3431 
Q 2728 3278 2906 2969 
L 2906 3500 
L 3481 3500 
L 3481 434 
z
" transform="scale(0.015625)"/>
       <path id="DejaVuSans-69" d="M 603 3500 
L 1178 3500 
L 1178 0 
L 603 0 
L 603 3500 
z
M 603 4863 
L 1178 4863 
L 1178 4134 
L 603 4134 
L 603 4863 
z
" transform="scale(0.015625)"/>
      </defs>
      <use xlink:href="#DejaVuSans-49"/>
      <use xlink:href="#DejaVuSans-50" x="29.492188"/>
      <use xlink:href="#DejaVuSans-76" x="89.794922"/>
      <use xlink:href="#DejaVuSans-36" x="148.974609"/>
      <use xlink:href="#DejaVuSans-20" x="212.597656"/>
      <use xlink:href="#DejaVuSans-61" x="244.384766"/>
      <use xlink:href="#DejaVuSans-73" x="305.664062"/>
      <use xlink:href="#DejaVuSans-20" x="357.763672"/>
      <use xlink:href="#DejaVuSans-25" x="389.550781"/>
      <use xlink:href="#DejaVuSans-20" x="484.570312"/>
      <use xlink:href="#DejaVuSans-6f" x="516.357422"/>
      <use xlink:href="#DejaVuSans-66" x="577.539062"/>
      <use xlink:href="#DejaVuSans-20" x="612.744141"/>
      <use xlink:href="#DejaVuSans-74" x="644.53125"/>
      <use xlink:href="#DejaVuSans-6f" x="683.740234"/>
      <use xlink:href="#DejaVuSans-74" x="744.921875"/>
      <use xlink:href="#DejaVuSans-61" x="784.130859"/>
      <use xlink:href="#DejaVuSans-6c" x="845.410156"/>
      <use xlink:href="#DejaVuSans-20" x="873.193359"/>
      <use xlink:href="#DejaVuSans-47" x="904.980469"/>
      <use xlink:href="#DejaVuSans-6f" x="982.470703"/>
      <use xlink:href="#DejaVuSans-6f" x="1043.652344"/>
      <use xlink:href="#DejaVuSans-67" x="1104.833984"/>
      <use xlink:href="#DejaVuSans-6c" x="1168.310547"/>
      <use xlink:href="#DejaVuSans-65" x="1196.09375"/>
      <use xlink:href="#DejaVuSans-20" x="1257.617188"/>
      <use xlink:href="#DejaVuSans-74" x="1289.404297"/>
      <use xlink:href="#DejaVuSans-72" x="1328.613281"/>
      <use xlink:href="#DejaVuSans-61" x="1369.726562"/>
      <use xlink:href="#DejaVuSans-66" x="1431.005859"/>
      <use xlink:href="#DejaVuSans-66" x="1466.210938"/>
      <use xlink:href="#DejaVuSans-69" x="1501.416016"/>
      <use xlink:href="#DejaVuSans-63" x="1529.199219"/>
     </g>
    </g>
   </g>
   <g id="line2d_15">
    <path d="M 73.832727 294.536428 
L 75.418342 294.375151 
L 75.814745 294.528724 
L 77.40036 294.52805 
L 78.985974 294.388062 
L 79.382378 294.264269 
L 80.571588 294.284805 
L 84.139221 294.210687 
L 85.328432 294.237831 
L 86.914046 294.164094 
L 90.085275 294.228027 
L 90.481678 294.328505 
L 92.8601 294.320446 
L 93.652907 294.256137 
L 95.238521 294.162391 
L 96.031329 294.170952 
L 96.427732 293.916681 
L 98.806154 293.829459 
L 99.995365 293.83311 
L 101.184575 293.925973 
L 102.373786 293.879724 
L 103.562997 293.926244 
L 105.545015 293.894249 
L 106.734226 294.079483 
L 107.923437 294.028289 
L 108.716244 294.110419 
L 109.509051 294.188945 
L 109.905455 294.110607 
L 112.283876 294.324635 
L 114.265894 294.239894 
L 115.058701 294.137259 
L 115.455105 294.052659 
L 116.247912 294.048491 
L 119.022737 293.987018 
L 119.815544 294.075603 
L 120.211948 293.950823 
L 122.59037 294.18227 
L 125.761598 294.015534 
L 126.158002 294.021113 
L 126.554406 293.902344 
L 127.347213 294.001689 
L 128.14002 293.81729 
L 128.536424 293.863131 
L 128.932827 293.749925 
L 129.329231 293.79949 
L 130.122038 293.69415 
L 131.311249 293.679155 
L 131.707652 293.809126 
L 133.293267 293.838484 
L 134.086074 293.85244 
L 134.482478 293.81553 
L 134.878881 293.644042 
L 136.464496 293.550129 
L 136.860899 293.643676 
L 140.428531 293.334659 
L 141.221339 293.143716 
L 142.014146 293.287956 
L 144.788971 292.896663 
L 145.185375 292.828823 
L 145.581778 292.933401 
L 147.9602 292.433221 
L 148.753007 292.449585 
L 149.942218 292.111147 
L 151.924236 291.641469 
L 153.113447 291.520727 
L 153.50985 291.619356 
L 155.491868 291.248385 
L 156.681079 290.881843 
L 157.077483 290.9373 
L 157.473886 290.608248 
L 157.87029 290.44952 
L 159.455904 290.258132 
L 159.852308 290.412474 
L 160.645115 290.226069 
L 161.041518 290.179831 
L 161.437922 289.939814 
L 162.230729 289.779659 
L 163.816344 289.762977 
L 164.609151 289.558381 
L 165.798362 289.407628 
L 166.194765 289.210522 
L 166.591169 289.191511 
L 166.987572 289.29343 
L 168.573187 288.55656 
L 168.96959 288.57344 
L 170.555205 288.110087 
L 170.951608 287.799566 
L 171.348012 287.728321 
L 171.744416 287.536156 
L 172.140819 287.567451 
L 173.33003 287.095569 
L 173.726434 287.17901 
L 174.122837 286.946743 
L 174.519241 286.905921 
L 176.501259 285.814731 
L 177.294066 285.48253 
L 178.086873 284.900722 
L 179.276084 283.462801 
L 179.672488 283.691829 
L 180.068891 283.73145 
L 181.258102 282.365364 
L 181.654505 282.201559 
L 182.050909 281.511058 
L 183.24012 281.09998 
L 183.636523 280.836053 
L 184.032927 280.883952 
L 185.222138 280.129919 
L 185.618541 279.969765 
L 186.014945 279.673586 
L 186.807752 279.603406 
L 187.204156 278.932454 
L 187.600559 278.923612 
L 187.996963 278.185948 
L 188.393367 277.803915 
L 189.186174 277.913564 
L 189.582577 277.640449 
L 189.978981 277.219741 
L 190.771788 276.730002 
L 191.168192 276.292189 
L 191.564595 276.560614 
L 193.15021 275.701612 
L 193.546613 275.383993 
L 193.943017 274.07878 
L 194.339421 274.326371 
L 195.132228 273.440069 
L 195.528631 273.402015 
L 195.925035 273.785171 
L 197.114246 272.913336 
L 197.510649 272.321876 
L 198.303457 272.367477 
L 198.69986 271.727502 
L 199.096264 271.683453 
L 199.492667 268.293005 
L 199.889071 270.523743 
L 200.285475 271.852632 
L 200.681878 271.206912 
L 201.078282 270.846068 
L 201.474685 270.787917 
L 201.871089 269.938661 
L 202.267493 269.672555 
L 203.456703 267.82927 
L 203.853107 266.625715 
L 204.24951 265.93876 
L 204.645914 265.006116 
L 205.042318 264.390349 
L 205.438721 265.373755 
L 205.835125 265.223257 
L 206.231528 265.250484 
L 206.627932 265.409348 
L 207.024336 265.705987 
L 207.420739 265.592813 
L 207.817143 263.424048 
L 208.213546 263.744838 
L 209.402757 262.60204 
L 209.799161 262.448227 
L 210.591968 262.515852 
L 210.988372 260.876453 
L 211.384775 260.816745 
L 212.177582 259.52297 
L 212.573986 259.964068 
L 212.97039 257.944741 
L 213.366793 258.422039 
L 213.763197 257.058873 
L 214.1596 256.406118 
L 214.556004 255.425982 
L 214.952408 256.106627 
L 215.348811 255.075584 
L 215.745215 253.360317 
L 216.141618 254.224651 
L 216.538022 254.471051 
L 216.934426 253.93862 
L 217.330829 252.370242 
L 217.727233 252.805908 
L 218.123636 251.421187 
L 218.52004 251.740169 
L 219.709251 248.926463 
L 220.898462 248.629428 
L 221.294865 247.536989 
L 221.691269 247.669927 
L 222.087672 247.260119 
L 222.484076 246.17739 
L 222.88048 245.902588 
L 223.276883 244.691946 
L 223.673287 243.862009 
L 224.06969 243.715743 
L 224.466094 243.920025 
L 224.862498 243.391945 
L 225.258901 241.142346 
L 226.051708 242.461886 
L 226.448112 242.208409 
L 227.240919 242.132453 
L 227.637323 242.177145 
L 228.43013 241.905722 
L 228.826533 240.64002 
L 229.222937 240.580103 
L 229.619341 239.457618 
L 230.015744 239.454463 
L 230.412148 239.283947 
L 231.601359 236.073542 
L 231.997762 234.182651 
L 232.394166 235.47394 
L 232.790569 234.932708 
L 233.186973 233.813994 
L 233.583377 234.06301 
L 233.97978 231.674577 
L 234.376184 232.02499 
L 234.772587 231.732128 
L 235.168991 230.065564 
L 235.565395 230.049791 
L 235.961798 228.80755 
L 236.358202 229.106659 
L 236.754605 228.12411 
L 237.151009 227.602151 
L 237.547413 227.87945 
L 237.943816 227.206665 
L 238.34022 226.15708 
L 238.736623 226.492603 
L 239.133027 225.994816 
L 239.529431 224.343096 
L 239.925834 223.65237 
L 240.322238 223.716982 
L 240.718641 221.785452 
L 241.115045 222.128939 
L 241.907852 219.828392 
L 242.304256 217.532727 
L 242.700659 217.759625 
L 243.493467 216.468759 
L 243.88987 215.022376 
L 244.286274 215.215738 
L 244.682677 214.609576 
L 245.079081 212.322623 
L 245.475485 211.520237 
L 245.871888 207.728573 
L 246.268292 210.193777 
L 246.664695 209.746824 
L 247.061099 210.334727 
L 247.457502 209.644362 
L 248.25031 210.765573 
L 248.646713 210.542054 
L 249.043117 209.559208 
L 249.43952 209.854791 
L 250.232328 208.603008 
L 250.628731 207.565765 
L 251.025135 207.401271 
L 251.421538 206.70011 
L 251.817942 204.178738 
L 252.214346 204.969937 
L 252.610749 201.588791 
L 253.007153 201.85052 
L 253.403556 200.012656 
L 253.79996 198.879861 
L 254.989171 196.796428 
L 255.385574 195.091403 
L 255.781978 192.280298 
L 256.178382 192.990166 
L 257.763996 189.788525 
L 258.1604 189.261981 
L 258.556803 189.281911 
L 258.953207 189.572005 
L 259.34961 188.575872 
L 259.746014 187.179786 
L 260.142418 188.430488 
L 260.538821 188.454628 
L 260.935225 189.568861 
L 261.331628 188.349465 
L 261.728032 186.453628 
L 262.124436 186.696554 
L 262.520839 185.878087 
L 263.71005 184.576478 
L 264.502857 183.620404 
L 264.899261 183.516839 
L 265.295664 197.379578 
L 265.692068 181.756959 
L 266.088472 181.007115 
L 266.484875 177.218689 
L 266.881279 180.733462 
L 267.674086 180.219886 
L 268.07049 180.2174 
L 268.466893 179.747043 
L 268.863297 179.515247 
L 269.2597 180.802911 
L 269.656104 181.619242 
L 270.052507 181.420793 
L 270.448911 180.314843 
L 270.845315 180.394257 
L 272.034525 179.464277 
L 272.430929 176.979701 
L 272.827333 177.960369 
L 273.223736 175.328999 
L 273.62014 176.438548 
L 274.016543 174.229865 
L 274.412947 172.850779 
L 274.809351 173.663924 
L 275.205754 171.972698 
L 275.602158 170.849748 
L 275.998561 170.610968 
L 276.394965 171.52902 
L 276.791369 172.013291 
L 277.980579 169.533055 
L 278.376983 170.10344 
L 278.773387 170.925433 
L 279.16979 171.084825 
L 279.566194 169.203664 
L 279.962597 168.502983 
L 280.359001 167.139315 
L 281.151808 166.612348 
L 281.548212 166.755052 
L 281.944615 166.575176 
L 282.737423 164.701959 
L 283.133826 165.794826 
L 283.53023 162.332861 
L 283.926633 162.421906 
L 284.323037 161.999741 
L 284.719441 159.474766 
L 285.115844 158.717166 
L 285.512248 158.261804 
L 285.908651 158.265121 
L 286.305055 156.89622 
L 286.701459 156.802902 
L 287.494266 154.63852 
L 287.890669 156.067135 
L 288.287073 156.987312 
L 289.07988 154.795969 
L 289.476284 155.870744 
L 289.872687 155.674228 
L 290.269091 156.142062 
L 290.665495 154.488013 
L 291.061898 153.910895 
L 291.458302 155.161414 
L 291.854705 153.366331 
L 292.251109 153.509961 
L 292.647512 152.997915 
L 293.44032 152.799414 
L 293.836723 149.253559 
L 294.233127 149.150272 
L 294.62953 149.430119 
L 295.025934 150.287778 
L 295.818741 146.149853 
L 296.215145 144.324441 
L 296.611548 143.861119 
L 297.007952 144.02026 
L 297.404356 143.687103 
L 297.800759 141.873845 
L 298.197163 143.369155 
L 298.593566 141.77708 
L 298.98997 143.254482 
L 299.386374 142.195391 
L 299.782777 141.554304 
L 300.179181 141.500842 
L 300.575584 141.57307 
L 300.971988 140.192475 
L 301.368392 140.349338 
L 301.764795 141.843542 
L 302.161199 141.337246 
L 302.557602 141.950151 
L 302.954006 142.200656 
L 303.35041 140.285745 
L 303.746813 141.432595 
L 304.143217 141.740771 
L 304.53962 141.029086 
L 304.936024 140.594245 
L 305.332428 138.878931 
L 305.728831 139.24096 
L 306.125235 138.867628 
L 306.521638 138.991437 
L 306.918042 137.99395 
L 307.314446 137.55761 
L 307.710849 136.295047 
L 308.107253 135.743187 
L 308.503656 136.52337 
L 308.90006 136.755339 
L 309.296464 136.807526 
L 310.089271 135.012057 
L 310.485674 135.442485 
L 310.882078 134.133219 
L 311.278482 134.699875 
L 311.674885 134.454995 
L 312.071289 133.549405 
L 312.467692 133.770714 
L 312.864096 134.392812 
L 313.2605 134.109209 
L 313.656903 134.124032 
L 314.053307 131.771663 
L 314.846114 130.096857 
L 315.242517 130.373383 
L 315.638921 129.787877 
L 316.035325 127.839174 
L 316.431728 128.469549 
L 316.828132 125.673173 
L 317.224535 127.911093 
L 317.620939 126.05847 
L 318.017343 123.525958 
L 318.413746 124.266792 
L 318.81015 122.685492 
L 319.206553 121.618463 
L 319.602957 121.720539 
L 319.999361 120.920018 
L 320.395764 122.926857 
L 320.792168 121.254977 
L 321.188571 121.881869 
L 321.584975 122.249674 
L 322.774186 119.684551 
L 323.170589 121.820213 
L 323.566993 121.863004 
L 323.963397 120.9189 
L 324.3598 121.453875 
L 324.756204 122.75093 
L 325.152607 121.742167 
L 325.549011 119.395026 
L 325.945415 123.291555 
L 326.341818 122.241929 
L 326.738222 120.722666 
L 327.134625 121.997138 
L 327.531029 122.089222 
L 327.927433 120.007978 
L 328.323836 118.971503 
L 328.72024 117.071403 
L 329.116643 117.998 
L 329.513047 117.295998 
L 329.909451 117.512517 
L 330.305854 118.107336 
L 330.702258 116.588444 
L 331.098661 115.965694 
L 331.495065 117.091715 
L 331.891469 116.811064 
L 332.287872 114.374455 
L 332.684276 113.838478 
L 333.080679 112.180182 
L 333.477083 114.903329 
L 333.873487 115.806464 
L 334.26989 114.918621 
L 334.666294 114.748831 
L 335.062697 114.888073 
L 335.459101 110.085134 
L 335.855504 113.295925 
L 336.251908 111.445746 
L 337.044715 112.381691 
L 337.441119 107.832798 
L 337.837522 107.25144 
L 338.233926 105.421599 
L 338.63033 105.348771 
L 339.026733 107.003912 
L 339.423137 104.721419 
L 339.81954 104.272753 
L 340.215944 103.094033 
L 340.612348 102.667757 
L 341.008751 101.328522 
L 341.405155 101.528751 
L 341.801558 104.775695 
L 342.197962 103.024756 
L 342.594366 101.916101 
L 342.990769 104.024614 
L 343.387173 102.858606 
L 343.783576 102.448156 
L 344.17998 100.764717 
L 344.972787 103.444013 
L 345.369191 103.149761 
L 345.765594 103.569832 
L 346.161998 103.436737 
L 346.558402 101.927273 
L 346.954805 103.672561 
L 347.351209 101.57571 
L 347.747612 100.834176 
L 348.144016 100.756486 
L 348.936823 98.146007 
L 349.333227 95.233108 
L 349.72963 97.219693 
L 350.126034 100.930157 
L 350.522438 96.750647 
L 350.918841 96.554309 
L 351.315245 99.35899 
L 352.108052 95.626025 
L 352.504456 95.576126 
L 352.900859 96.36418 
L 353.297263 96.332023 
L 353.693666 96.935501 
L 354.09007 89.840966 
L 354.486474 89.083596 
L 354.882877 89.295086 
L 355.279281 87.845147 
L 355.675684 87.369577 
L 356.072088 84.847809 
L 356.468492 88.052072 
L 356.864895 89.301458 
L 357.261299 86.560277 
L 357.657702 88.366562 
L 358.054106 85.294857 
L 358.450509 83.73086 
L 358.846913 79.936621 
L 359.243317 80.957584 
L 359.63972 75.33586 
L 360.432527 79.276533 
L 360.828931 81.07605 
L 361.225335 79.437058 
L 361.621738 79.756776 
L 362.018142 80.444379 
L 362.414545 80.304385 
L 362.810949 82.302617 
L 363.207353 81.371137 
L 363.603756 79.910862 
L 364.00016 80.24768 
L 364.396563 78.751147 
L 364.792967 79.131373 
L 365.189371 77.301109 
L 365.585774 78.593134 
L 365.982178 82.079297 
L 366.378581 79.733299 
L 366.774985 76.17666 
L 367.171389 79.124176 
L 367.567792 77.411938 
L 367.964196 79.190329 
L 368.360599 77.58445 
L 368.757003 77.561616 
L 369.946214 71.379152 
L 370.342617 74.149159 
L 370.739021 73.93735 
L 371.135425 72.550811 
L 371.531828 72.95947 
L 371.928232 75.322343 
L 372.721039 73.280938 
L 373.117443 74.777105 
L 373.513846 73.93536 
L 373.91025 72.304312 
L 374.306653 72.336031 
L 375.099461 69.629639 
L 375.495864 70.810407 
L 375.892268 70.791255 
L 376.288671 68.220961 
L 376.685075 69.545023 
L 377.477882 69.322952 
L 377.874286 67.895372 
L 378.270689 69.525584 
L 378.667093 69.573561 
L 379.063497 66.704357 
L 379.4599 66.669217 
L 379.856304 65.31154 
L 380.252707 61.731298 
L 380.649111 63.269995 
L 381.441918 62.425648 
L 381.838322 62.273939 
L 382.234725 62.657006 
L 382.631129 61.329726 
L 383.027532 62.886985 
L 383.82034 58.998003 
L 384.216743 60.549209 
L 384.613147 62.654024 
L 385.00955 63.476601 
L 385.405954 59.589985 
L 385.802358 61.903225 
L 386.198761 60.703534 
L 386.595165 64.893542 
L 386.991568 62.14143 
L 387.387972 61.116732 
L 387.784376 63.446058 
L 388.180779 63.659867 
L 388.577183 64.899152 
L 388.973586 62.670836 
L 389.36999 65.045534 
L 389.766394 62.160639 
L 390.162797 61.808534 
L 390.559201 59.079532 
L 390.955604 62.508635 
L 391.352008 62.493452 
L 391.748412 61.671261 
L 392.144815 61.759011 
L 392.541219 60.271164 
L 392.937622 61.423994 
L 393.334026 58.622207 
L 393.73043 59.317852 
L 394.126833 59.319262 
L 394.523237 69.023947 
L 395.316044 69.023947 
L 395.712448 56.954677 
L 396.108851 56.899643 
L 396.505255 58.514072 
L 396.901658 58.069965 
L 397.298062 56.389671 
L 397.694466 56.80594 
L 398.090869 56.060739 
L 398.487273 53.568 
L 398.487273 53.568 
" clip-path="url(#p304c64fed1)" style="fill: none; stroke: #1f77b4; stroke-width: 1.5; stroke-linecap: square"/>
   </g>
   <g id="line2d_16">
    <path d="M 73.832727 294.786019 
L 75.418342 294.653326 
L 75.814745 294.76438 
L 84.535624 294.520916 
L 85.328432 294.512481 
L 87.31045 294.449154 
L 89.292468 294.51399 
L 90.878082 294.511066 
L 96.427732 294.432226 
L 96.824136 294.245252 
L 112.283876 294.432644 
L 114.265894 294.433746 
L 115.455105 294.269591 
L 117.040719 294.244918 
L 119.022737 294.188161 
L 123.77958 294.360386 
L 129.329231 293.929336 
L 130.122038 293.874799 
L 130.914845 293.81449 
L 131.707652 293.908319 
L 132.50046 293.92065 
L 133.68967 293.97196 
L 134.482478 294.003303 
L 135.275285 293.712602 
L 136.068092 293.749758 
L 136.860899 293.792512 
L 142.014146 293.44283 
L 142.410549 293.546859 
L 147.9602 292.896177 
L 149.545814 292.642972 
L 150.338621 292.650096 
L 151.527832 292.254688 
L 153.113447 291.977274 
L 153.50985 292.097202 
L 155.095465 291.97354 
L 160.645115 290.955622 
L 161.041518 291.000324 
L 161.834326 290.744899 
L 162.627133 290.64333 
L 163.023536 290.409847 
L 164.212747 290.675592 
L 165.005554 290.492206 
L 165.401958 290.438301 
L 165.798362 290.211424 
L 166.194765 290.228414 
L 166.591169 290.060352 
L 167.78038 289.974478 
L 168.176783 289.734831 
L 169.365994 289.492505 
L 169.762398 289.495122 
L 170.158801 289.341611 
L 170.555205 289.32601 
L 172.140819 288.849997 
L 172.933626 288.621224 
L 173.33003 288.378893 
L 173.726434 288.516386 
L 174.915644 288.032637 
L 175.708452 287.629426 
L 176.104855 287.323893 
L 176.897662 287.111645 
L 177.294066 287.209167 
L 178.086873 287.060054 
L 179.276084 285.919053 
L 179.672488 285.644967 
L 180.068891 285.720317 
L 180.465295 285.573267 
L 181.654505 284.716532 
L 182.050909 284.571566 
L 182.843716 283.879451 
L 183.24012 283.784619 
L 183.636523 282.478413 
L 184.032927 282.600367 
L 184.429331 283.470525 
L 184.825734 283.376033 
L 185.618541 282.708335 
L 186.014945 283.311703 
L 186.411349 282.530454 
L 186.807752 282.482403 
L 187.204156 282.239571 
L 187.600559 281.671604 
L 187.996963 281.700465 
L 188.78977 280.830553 
L 189.186174 280.856787 
L 189.582577 280.662423 
L 189.978981 279.956802 
L 190.375385 280.195064 
L 190.771788 279.660983 
L 191.168192 279.82119 
L 191.564595 279.628387 
L 191.960999 279.70707 
L 192.357403 279.105295 
L 192.753806 279.12849 
L 193.15021 278.514556 
L 193.546613 278.621217 
L 194.339421 277.325426 
L 194.735824 277.068999 
L 195.132228 276.987449 
L 195.528631 276.690042 
L 195.925035 276.660564 
L 196.321439 276.774407 
L 196.717842 276.752816 
L 197.907053 276.327653 
L 198.303457 276.46608 
L 199.096264 276.10836 
L 199.492667 275.491632 
L 199.889071 274.107333 
L 200.285475 275.140644 
L 200.681878 275.480815 
L 201.078282 275.123701 
L 201.474685 275.33085 
L 201.871089 274.814057 
L 202.663896 274.145836 
L 203.0603 273.483387 
L 203.456703 273.067933 
L 203.853107 272.197593 
L 204.24951 269.621731 
L 204.645914 267.97185 
L 205.042318 270.415995 
L 205.438721 271.060535 
L 205.835125 271.078262 
L 206.231528 271.335875 
L 206.627932 271.317323 
L 207.024336 271.662096 
L 207.420739 270.950599 
L 207.817143 271.075708 
L 208.213546 269.746856 
L 208.60995 269.340782 
L 209.006354 269.571649 
L 209.799161 268.246516 
L 210.195564 268.605181 
L 210.591968 268.570601 
L 210.988372 268.143557 
L 211.384775 267.523737 
L 211.781179 267.201245 
L 212.177582 267.246956 
L 212.97039 265.325673 
L 213.366793 264.760568 
L 213.763197 264.456883 
L 214.1596 263.349962 
L 214.556004 262.966576 
L 215.745215 260.734532 
L 216.141618 261.113478 
L 216.934426 260.740773 
L 217.727233 260.025186 
L 218.123636 260.336277 
L 218.916444 259.941788 
L 219.709251 258.954736 
L 220.898462 258.450201 
L 221.294865 258.453507 
L 221.691269 257.418646 
L 222.087672 257.314408 
L 222.484076 257.342768 
L 222.88048 256.812766 
L 224.06969 254.188613 
L 224.466094 253.693631 
L 224.862498 251.305015 
L 225.258901 247.935004 
L 225.655305 252.935216 
L 226.051708 254.024793 
L 226.448112 253.72057 
L 226.844515 253.184102 
L 227.240919 253.257108 
L 227.637323 253.533398 
L 228.43013 252.404666 
L 229.222937 251.889638 
L 229.619341 251.473077 
L 230.015744 250.283597 
L 230.412148 250.007667 
L 230.808551 249.940235 
L 231.601359 248.887699 
L 231.997762 247.636574 
L 232.394166 246.856845 
L 232.790569 247.34825 
L 233.583377 245.811433 
L 233.97978 244.397663 
L 234.376184 243.98645 
L 234.772587 243.785337 
L 235.565395 241.518159 
L 235.961798 239.752507 
L 236.358202 240.525728 
L 236.754605 240.379978 
L 237.151009 239.49154 
L 237.547413 238.891907 
L 237.943816 238.738386 
L 238.34022 238.846943 
L 238.736623 240.072236 
L 239.133027 239.443981 
L 239.529431 239.725139 
L 239.925834 239.058146 
L 240.322238 239.13065 
L 240.718641 238.380456 
L 241.511449 236.282227 
L 241.907852 236.492981 
L 242.700659 233.525315 
L 243.097063 234.228518 
L 243.493467 233.682006 
L 243.88987 232.388644 
L 244.286274 232.292616 
L 244.682677 231.424573 
L 245.079081 230.930337 
L 245.475485 227.48295 
L 245.871888 219.528494 
L 246.268292 225.254781 
L 246.664695 228.308071 
L 247.061099 228.63061 
L 247.853906 228.294486 
L 248.25031 228.387787 
L 248.646713 228.345049 
L 249.043117 227.394678 
L 249.43952 227.157486 
L 249.835924 227.453529 
L 250.628731 226.341662 
L 251.421538 224.345315 
L 251.817942 222.158736 
L 252.214346 222.894316 
L 252.610749 222.785382 
L 253.007153 218.819775 
L 253.403556 219.689505 
L 254.196364 217.043605 
L 254.592767 214.49779 
L 254.989171 214.40604 
L 255.385574 214.057397 
L 256.178382 209.622864 
L 256.574785 209.328654 
L 256.971189 208.673883 
L 257.367592 208.354117 
L 258.1604 205.823324 
L 258.556803 205.606381 
L 258.953207 205.531438 
L 259.34961 206.641013 
L 259.746014 206.768806 
L 260.538821 208.366783 
L 261.331628 208.890084 
L 261.728032 206.645583 
L 262.124436 206.079501 
L 262.520839 206.569031 
L 262.917243 205.569753 
L 263.313646 203.731101 
L 263.71005 205.331444 
L 264.106454 205.965835 
L 264.502857 204.072406 
L 264.899261 203.839512 
L 265.295664 202.773204 
L 265.692068 197.379578 
L 266.088472 199.539317 
L 266.484875 190.619396 
L 267.277682 201.210869 
L 267.674086 199.836546 
L 268.07049 201.280474 
L 268.466893 200.744476 
L 268.863297 200.655436 
L 269.2597 199.257026 
L 269.656104 201.617652 
L 270.052507 202.271379 
L 270.448911 201.659326 
L 270.845315 200.31866 
L 271.241718 199.861605 
L 271.638122 198.815102 
L 272.034525 198.742217 
L 272.430929 200.594616 
L 272.827333 199.535834 
L 273.223736 198.030208 
L 273.62014 195.914174 
L 274.016543 195.712984 
L 274.412947 194.837937 
L 274.809351 194.944829 
L 275.205754 192.692237 
L 275.602158 192.640275 
L 275.998561 191.089952 
L 276.394965 190.84315 
L 276.791369 190.370056 
L 277.187772 188.88879 
L 277.980579 188.901033 
L 278.773387 188.301676 
L 279.16979 189.192584 
L 279.566194 187.682248 
L 279.962597 186.878185 
L 280.359001 189.757266 
L 280.755405 189.900368 
L 281.151808 189.764145 
L 281.548212 189.85109 
L 281.944615 189.778513 
L 282.341019 188.336935 
L 282.737423 188.680705 
L 283.133826 189.2629 
L 283.53023 188.620339 
L 283.926633 185.670891 
L 284.323037 186.479236 
L 284.719441 186.076139 
L 285.115844 182.94074 
L 285.512248 184.474768 
L 286.701459 180.384041 
L 287.097862 167.594531 
L 287.494266 172.500241 
L 287.890669 179.878477 
L 288.287073 181.232634 
L 289.07988 179.924485 
L 289.476284 178.641574 
L 289.872687 179.600709 
L 290.269091 179.32855 
L 290.665495 180.337939 
L 291.061898 178.059202 
L 291.458302 180.071927 
L 292.251109 177.981935 
L 292.647512 177.952582 
L 293.043916 178.576993 
L 293.44032 175.964916 
L 293.836723 175.523243 
L 294.233127 173.336283 
L 294.62953 175.344715 
L 295.025934 176.62208 
L 295.422338 174.168977 
L 296.215145 167.327814 
L 296.611548 168.822947 
L 297.007952 167.591287 
L 297.404356 166.918633 
L 297.800759 165.321032 
L 298.197163 165.985315 
L 298.593566 166.171019 
L 298.98997 166.004096 
L 299.386374 165.472908 
L 299.782777 164.625731 
L 300.179181 162.261224 
L 300.575584 165.248748 
L 300.971988 166.09453 
L 301.368392 166.253645 
L 301.764795 167.597957 
L 302.161199 168.343993 
L 302.954006 168.067008 
L 303.35041 168.585327 
L 303.746813 168.286291 
L 304.143217 168.964299 
L 304.936024 166.228659 
L 305.332428 167.950486 
L 305.728831 167.365539 
L 306.125235 165.909635 
L 306.521638 166.070469 
L 306.918042 165.369287 
L 307.314446 163.186097 
L 307.710849 151.116398 
L 308.107253 150.795071 
L 308.503656 162.609099 
L 308.90006 164.265609 
L 309.296464 164.604751 
L 309.692867 163.464602 
L 310.089271 161.924714 
L 310.882078 160.19921 
L 311.278482 160.150345 
L 311.674885 160.722825 
L 312.071289 160.312719 
L 312.467692 151.100495 
L 312.864096 147.079865 
L 313.2605 145.514187 
L 313.656903 146.681531 
L 314.846114 142.590977 
L 315.242517 142.878095 
L 315.638921 145.04453 
L 316.035325 143.059276 
L 316.431728 142.301604 
L 316.828132 144.074192 
L 317.224535 145.048734 
L 318.017343 141.984277 
L 318.413746 139.066761 
L 318.81015 138.846074 
L 319.206553 137.262632 
L 319.602957 138.630332 
L 319.999361 138.442303 
L 320.395764 139.52311 
L 320.792168 138.487476 
L 321.188571 138.496109 
L 321.584975 139.408635 
L 321.981379 141.022296 
L 322.377782 140.251221 
L 322.774186 142.102743 
L 323.566993 142.233419 
L 323.963397 142.948029 
L 324.3598 141.645924 
L 324.756204 141.829711 
L 325.152607 140.800021 
L 325.549011 138.936335 
L 325.945415 141.061697 
L 326.341818 141.489415 
L 326.738222 141.281508 
L 327.134625 143.670003 
L 327.531029 141.669265 
L 328.323836 133.580628 
L 328.72024 127.146751 
L 329.513047 136.772481 
L 329.909451 136.06007 
L 330.305854 136.948727 
L 330.702258 135.847812 
L 331.495065 134.90516 
L 331.891469 135.045045 
L 332.287872 136.647565 
L 332.684276 136.25106 
L 333.080679 136.050778 
L 333.477083 134.167685 
L 333.873487 137.253085 
L 334.666294 134.347759 
L 335.062697 136.538266 
L 335.459101 135.265832 
L 335.855504 131.954756 
L 336.251908 132.280063 
L 336.648312 130.31086 
L 337.044715 129.156979 
L 337.441119 130.968629 
L 337.837522 131.33491 
L 338.63033 124.090222 
L 339.026733 123.966884 
L 339.423137 123.60848 
L 339.81954 122.874717 
L 340.215944 120.210829 
L 340.612348 121.616228 
L 341.008751 120.286639 
L 341.405155 120.388486 
L 341.801558 121.59319 
L 342.197962 124.540445 
L 342.594366 125.223838 
L 342.990769 125.272907 
L 343.387173 126.751384 
L 343.783576 124.603872 
L 344.576384 125.751678 
L 344.972787 126.019376 
L 345.369191 125.799968 
L 345.765594 125.366798 
L 346.161998 127.695764 
L 346.558402 126.624191 
L 346.954805 127.136613 
L 347.351209 125.613914 
L 347.747612 126.66917 
L 348.54042 124.072015 
L 348.936823 118.895358 
L 349.333227 106.773823 
L 350.126034 118.890741 
L 350.522438 119.22346 
L 350.918841 120.922102 
L 351.315245 119.314521 
L 351.711648 122.023889 
L 352.108052 121.066682 
L 352.504456 117.700912 
L 352.900859 119.544024 
L 353.297263 119.53771 
L 353.693666 121.796798 
L 354.09007 117.964474 
L 354.486474 111.478441 
L 354.882877 111.631931 
L 355.279281 121.846578 
L 355.675684 110.379495 
L 356.468492 106.981145 
L 356.864895 110.60258 
L 357.261299 110.427812 
L 357.657702 109.10926 
L 358.054106 106.076605 
L 358.450509 106.706129 
L 359.243317 99.239448 
L 359.63972 99.993523 
L 360.036124 99.774125 
L 360.432527 97.371663 
L 360.828931 97.282227 
L 361.225335 98.174864 
L 361.621738 96.944411 
L 362.018142 97.768733 
L 362.414545 97.868714 
L 362.810949 101.142802 
L 363.207353 101.959211 
L 364.00016 104.906596 
L 364.396563 102.882151 
L 364.792967 103.997711 
L 365.189371 104.126888 
L 365.585774 101.329091 
L 365.982178 104.471165 
L 366.378581 105.34383 
L 366.774985 102.305122 
L 367.171389 101.483166 
L 367.567792 103.731281 
L 367.964196 100.274806 
L 368.360599 103.640283 
L 368.757003 103.937277 
L 369.153407 99.6497 
L 369.946214 85.70843 
L 370.342617 92.843296 
L 370.739021 97.704617 
L 371.135425 97.63136 
L 371.531828 98.205527 
L 371.928232 97.084572 
L 372.324635 97.215698 
L 372.721039 97.925221 
L 373.513846 95.648593 
L 373.91025 98.629505 
L 374.703057 91.487029 
L 375.099461 95.138255 
L 375.495864 90.923747 
L 375.892268 93.556089 
L 376.288671 94.202598 
L 376.685075 92.932566 
L 377.081479 89.807304 
L 377.477882 94.540967 
L 377.874286 94.384255 
L 378.270689 91.011946 
L 378.667093 91.58359 
L 379.063497 91.013836 
L 379.4599 86.444898 
L 380.252707 81.942927 
L 380.649111 82.295315 
L 381.045514 82.123138 
L 381.441918 81.00962 
L 381.838322 82.382851 
L 382.234725 80.923118 
L 382.631129 81.907161 
L 383.027532 80.536171 
L 383.82034 85.865143 
L 384.216743 87.391827 
L 384.613147 86.344493 
L 385.00955 87.978967 
L 385.405954 87.524248 
L 385.802358 86.858879 
L 386.198761 86.561191 
L 386.595165 88.712771 
L 386.991568 89.389213 
L 387.387972 86.666829 
L 387.784376 87.598303 
L 388.180779 90.05409 
L 388.577183 87.525627 
L 388.973586 89.209222 
L 389.36999 89.743099 
L 389.766394 88.254406 
L 390.162797 83.406133 
L 390.559201 71.395098 
L 390.955604 77.040571 
L 391.352008 84.420097 
L 391.748412 84.421032 
L 392.144815 86.961754 
L 392.541219 85.944034 
L 393.334026 82.676225 
L 393.73043 81.95295 
L 394.126833 84.40129 
L 394.523237 69.023947 
L 395.316044 69.023947 
L 395.712448 80.601723 
L 396.108851 79.324379 
L 396.505255 79.793707 
L 396.901658 84.51414 
L 397.298062 83.798345 
L 397.694466 80.114648 
L 398.090869 81.098988 
L 398.487273 79.784264 
L 398.487273 79.784264 
" clip-path="url(#p304c64fed1)" style="fill: none; stroke: #ff7f0e; stroke-width: 1.5; stroke-linecap: square"/>
   </g>
   <g id="line2d_17">
    <path d="M 73.832727 295.238409 
L 79.778781 295.209281 
L 80.175185 295.275021 
L 80.967992 295.166861 
L 81.364396 295.249737 
L 81.760799 295.152921 
L 82.157203 295.249173 
L 83.346414 295.151124 
L 94.445714 295.213162 
L 94.842118 295.172632 
L 95.238521 295.265902 
L 96.427732 294.972455 
L 96.824136 295.159993 
L 111.491069 295.358682 
L 112.68028 295.362734 
L 117.040719 295.230021 
L 117.833526 295.255968 
L 118.22993 295.319938 
L 119.022737 295.286856 
L 119.815544 295.28753 
L 120.608352 295.297151 
L 121.004755 295.390071 
L 124.175984 295.298075 
L 140.428531 295.220213 
L 140.824935 295.0806 
L 142.014146 295.333126 
L 142.806953 295.079534 
L 143.203357 295.163738 
L 143.59976 295.049377 
L 145.581778 295.252558 
L 146.374585 295.172951 
L 146.770989 294.857452 
L 147.167393 295.062215 
L 147.563796 294.966621 
L 148.753007 295.149913 
L 149.149411 295.009777 
L 149.545814 295.056099 
L 150.338621 294.833291 
L 150.735025 294.885614 
L 151.527832 294.804555 
L 151.924236 294.944815 
L 152.717043 294.791487 
L 153.113447 295.031452 
L 157.077483 294.776524 
L 157.473886 294.565812 
L 157.87029 294.512314 
L 158.663097 294.68973 
L 159.455904 294.646568 
L 159.852308 294.903314 
L 161.437922 294.588625 
L 162.627133 294.623953 
L 163.023536 294.891114 
L 164.212747 294.443262 
L 165.005554 294.52346 
L 165.401958 294.464754 
L 165.798362 294.684204 
L 166.194765 294.470108 
L 166.987572 294.741483 
L 168.176783 294.366674 
L 169.365994 294.463976 
L 169.762398 294.25528 
L 170.158801 294.389926 
L 170.951608 294.092849 
L 171.348012 294.240755 
L 171.744416 294.135849 
L 172.140819 294.205454 
L 172.933626 294.157947 
L 173.726434 294.150624 
L 174.122837 294.04437 
L 174.519241 294.16095 
L 175.708452 293.993154 
L 176.104855 294.188537 
L 176.897662 294.03815 
L 177.294066 293.761363 
L 177.69047 293.63511 
L 178.086873 293.328668 
L 178.87968 293.285282 
L 179.276084 293.031748 
L 179.672488 293.534862 
L 180.068891 293.499133 
L 180.465295 293.210496 
L 180.861698 293.158053 
L 181.258102 292.765548 
L 181.654505 292.973027 
L 182.050909 292.427492 
L 182.843716 292.90421 
L 183.24012 292.803362 
L 183.636523 293.845639 
L 184.032927 293.771584 
L 184.429331 292.613087 
L 184.825734 292.485858 
L 185.222138 292.531145 
L 185.618541 292.74943 
L 186.014945 291.849883 
L 186.411349 292.604412 
L 186.807752 292.609003 
L 187.204156 292.180883 
L 187.600559 292.740008 
L 187.996963 291.973483 
L 188.393367 292.088235 
L 188.78977 292.515419 
L 189.582577 292.466026 
L 189.978981 292.75094 
L 190.375385 292.275052 
L 190.771788 292.557019 
L 191.168192 291.959 
L 191.564595 292.420227 
L 191.960999 292.148319 
L 192.357403 292.53418 
L 192.753806 292.342589 
L 193.15021 292.675056 
L 193.943017 291.697213 
L 194.339421 292.488944 
L 194.735824 292.36043 
L 195.132228 291.94062 
L 195.528631 292.199973 
L 195.925035 292.612606 
L 196.321439 292.187213 
L 197.114246 291.821862 
L 197.510649 291.29841 
L 197.907053 291.551615 
L 198.303457 291.389398 
L 198.69986 290.939551 
L 199.096264 291.063093 
L 199.492667 288.289373 
L 199.889071 291.90441 
L 200.285475 292.199988 
L 200.681878 291.214097 
L 201.078282 291.210368 
L 201.871089 290.612604 
L 202.267493 290.655792 
L 202.663896 290.376509 
L 203.0603 290.502631 
L 203.853107 289.916123 
L 204.24951 291.805029 
L 204.645914 292.522266 
L 205.042318 289.462354 
L 205.438721 289.801219 
L 206.231528 289.402609 
L 206.627932 289.580025 
L 207.024336 289.531891 
L 207.420739 290.130214 
L 207.817143 287.836341 
L 208.213546 289.485982 
L 208.60995 289.478278 
L 209.006354 288.807916 
L 209.402757 289.156053 
L 209.799161 289.689711 
L 210.195564 289.353331 
L 210.591968 289.433252 
L 210.988372 288.220896 
L 211.384775 288.781008 
L 211.781179 288.382246 
L 212.177582 287.764014 
L 212.573986 289.192639 
L 212.97039 288.107069 
L 213.366793 289.149472 
L 213.763197 288.08999 
L 214.1596 288.544156 
L 214.556004 287.947405 
L 214.952408 289.398452 
L 215.348811 289.084212 
L 215.745215 288.113785 
L 216.538022 288.992012 
L 216.934426 288.685847 
L 217.330829 287.533455 
L 217.727233 288.268722 
L 218.123636 286.57291 
L 218.52004 287.10438 
L 218.916444 286.244386 
L 219.709251 285.459727 
L 220.502058 285.608401 
L 220.898462 285.667227 
L 221.294865 284.571482 
L 221.691269 285.739281 
L 222.087672 285.433712 
L 222.484076 284.322622 
L 222.88048 284.577823 
L 223.276883 284.327741 
L 223.673287 284.438199 
L 224.466094 285.714394 
L 224.862498 287.57493 
L 225.258901 288.695342 
L 225.655305 284.338369 
L 226.051708 283.925093 
L 226.448112 283.975839 
L 226.844515 284.443751 
L 227.240919 284.363345 
L 227.637323 284.131747 
L 228.43013 284.989057 
L 228.826533 283.923338 
L 229.222937 284.178466 
L 229.619341 283.472541 
L 230.015744 284.658866 
L 230.412148 284.764279 
L 230.808551 283.697151 
L 231.601359 282.673843 
L 231.997762 282.034077 
L 232.394166 284.105095 
L 232.790569 283.072458 
L 233.186973 282.746853 
L 233.583377 283.739577 
L 233.97978 282.764914 
L 234.376184 283.526541 
L 234.772587 283.43479 
L 235.168991 282.976681 
L 235.565395 284.019633 
L 235.961798 284.543044 
L 236.358202 284.068931 
L 236.754605 283.232132 
L 237.151009 283.598611 
L 237.547413 284.475543 
L 237.943816 283.956279 
L 238.736623 281.908367 
L 239.133027 282.038835 
L 239.529431 280.105957 
L 240.322238 280.074332 
L 240.718641 278.892995 
L 241.115045 280.238284 
L 241.511449 280.039704 
L 241.907852 278.823411 
L 242.304256 278.179226 
L 242.700659 279.72231 
L 243.097063 278.363343 
L 243.88987 278.121733 
L 244.682677 278.673002 
L 245.079081 276.880285 
L 245.475485 279.525287 
L 245.871888 283.688079 
L 246.664695 276.926753 
L 247.061099 277.192117 
L 247.457502 276.639824 
L 247.853906 277.390294 
L 248.25031 277.865785 
L 248.646713 277.685006 
L 249.043117 277.65253 
L 249.43952 278.185305 
L 249.835924 277.30875 
L 250.232328 277.211719 
L 250.628731 276.712104 
L 251.025135 277.693618 
L 251.421538 277.842794 
L 251.817942 277.508002 
L 252.214346 277.563621 
L 252.610749 274.291409 
L 253.007153 278.518745 
L 253.403556 275.811152 
L 253.79996 275.859688 
L 254.196364 276.642206 
L 254.592767 278.717569 
L 254.989171 277.878388 
L 255.385574 276.522006 
L 255.781978 276.015753 
L 256.178382 278.855302 
L 256.574785 278.327874 
L 256.971189 278.336894 
L 257.367592 277.451146 
L 257.763996 278.367856 
L 258.1604 278.926657 
L 258.953207 279.528567 
L 259.746014 275.89898 
L 260.142418 276.208331 
L 260.538821 275.575845 
L 260.935225 276.478646 
L 261.331628 274.947381 
L 261.728032 275.296045 
L 262.124436 276.105053 
L 262.520839 274.797056 
L 262.917243 275.318937 
L 263.313646 276.681529 
L 263.71005 274.733034 
L 264.106454 273.681131 
L 264.502857 275.035998 
L 264.899261 275.165327 
L 265.295664 290.094374 
L 265.692068 279.86538 
L 266.088472 276.955798 
L 266.484875 282.087293 
L 266.881279 280.766813 
L 267.277682 274.722061 
L 267.674086 275.87134 
L 268.07049 274.424926 
L 268.466893 274.490567 
L 268.863297 274.34781 
L 269.2597 277.033885 
L 269.656104 275.489589 
L 270.052507 274.637414 
L 270.448911 274.143518 
L 270.845315 275.563598 
L 271.241718 275.72311 
L 271.638122 276.439474 
L 272.034525 276.210059 
L 272.430929 271.873085 
L 272.827333 273.912536 
L 273.223736 272.786791 
L 273.62014 276.012373 
L 274.016543 274.004881 
L 274.412947 273.500842 
L 275.205754 274.768461 
L 275.602158 273.697473 
L 276.394965 276.17387 
L 276.791369 277.131234 
L 277.187772 277.78574 
L 277.980579 276.120022 
L 278.773387 278.111757 
L 279.16979 277.38024 
L 279.566194 277.009416 
L 279.962597 277.112798 
L 280.359001 272.870049 
L 280.755405 272.390959 
L 281.944615 272.284663 
L 282.341019 272.79755 
L 282.737423 271.509254 
L 283.133826 272.019926 
L 283.53023 269.200522 
L 283.926633 272.239015 
L 284.323037 271.008505 
L 284.719441 268.886627 
L 285.115844 271.264426 
L 285.512248 269.275037 
L 285.908651 270.585953 
L 286.305055 270.627799 
L 286.701459 271.906861 
L 287.097862 283.451791 
L 287.890669 271.676658 
L 288.287073 271.242678 
L 288.683477 270.982688 
L 289.07988 270.359484 
L 289.476284 272.71717 
L 289.872687 271.561519 
L 290.269091 272.301512 
L 290.665495 269.638074 
L 291.061898 271.339693 
L 291.854705 269.958001 
L 292.251109 271.016026 
L 292.647512 270.533333 
L 293.043916 269.861367 
L 293.44032 272.322498 
L 293.836723 269.218316 
L 294.233127 271.301989 
L 294.62953 269.573404 
L 295.025934 269.153699 
L 295.422338 269.251199 
L 296.215145 272.484627 
L 296.611548 270.526172 
L 297.007952 271.916973 
L 297.404356 272.25647 
L 297.800759 272.040812 
L 298.197163 272.87184 
L 298.593566 271.094061 
L 298.98997 272.738385 
L 299.386374 272.210483 
L 299.782777 272.416572 
L 300.179181 274.727618 
L 300.971988 269.585944 
L 301.368392 269.583693 
L 301.764795 269.733584 
L 302.161199 268.481253 
L 302.557602 269.218765 
L 302.954006 269.621648 
L 303.35041 267.188418 
L 303.746813 268.634304 
L 304.143217 268.264472 
L 304.936024 269.853585 
L 305.332428 266.416445 
L 306.125235 268.445993 
L 306.521638 268.408968 
L 306.918042 268.112664 
L 307.314446 269.859513 
L 307.710849 280.666648 
L 308.107253 280.436116 
L 308.503656 269.402271 
L 308.90006 267.977731 
L 309.296464 267.690775 
L 309.692867 268.013591 
L 310.089271 268.575343 
L 310.485674 269.985588 
L 310.882078 269.422008 
L 311.278482 270.03753 
L 311.674885 269.22017 
L 312.071289 268.724686 
L 312.467692 278.15822 
L 312.864096 282.800947 
L 313.2605 284.083023 
L 314.053307 281.845369 
L 314.846114 282.99388 
L 315.242517 282.983288 
L 315.638921 280.231348 
L 316.035325 280.267897 
L 316.431728 281.655945 
L 316.828132 277.086981 
L 317.224535 278.350359 
L 317.620939 277.940149 
L 318.017343 277.029681 
L 318.413746 280.688031 
L 318.81015 279.327419 
L 319.206553 279.843831 
L 319.602957 278.578207 
L 319.999361 277.965715 
L 320.395764 278.891747 
L 320.792168 278.255501 
L 321.188571 278.873759 
L 321.584975 278.329039 
L 321.981379 275.916199 
L 322.377782 276.004811 
L 322.774186 273.069808 
L 323.170589 275.10248 
L 323.566993 275.117585 
L 323.963397 273.458871 
L 324.3598 275.295951 
L 324.756204 276.409218 
L 325.152607 276.430146 
L 325.549011 275.946691 
L 325.945415 277.717858 
L 326.738222 274.929159 
L 327.134625 273.815134 
L 327.927433 277.410309 
L 328.323836 280.878875 
L 328.72024 285.412653 
L 329.513047 276.011517 
L 329.909451 276.940448 
L 331.098661 276.145959 
L 331.495065 277.674555 
L 331.891469 277.254019 
L 332.287872 273.21489 
L 332.684276 273.075418 
L 333.080679 271.617404 
L 333.477083 276.223644 
L 333.873487 274.041379 
L 334.26989 274.790314 
L 334.666294 275.889072 
L 335.062697 273.837807 
L 335.459101 270.307302 
L 335.855504 276.829169 
L 336.251908 274.653683 
L 336.648312 277.069996 
L 337.044715 278.712712 
L 337.441119 272.352169 
L 337.837522 271.40453 
L 338.233926 273.14307 
L 338.63033 276.746548 
L 339.026733 278.525028 
L 339.423137 276.60094 
L 339.81954 276.886036 
L 340.215944 278.371203 
L 340.612348 276.539529 
L 341.405155 276.628266 
L 341.801558 278.670506 
L 342.197962 273.972312 
L 342.594366 272.180263 
L 342.990769 274.239707 
L 343.387173 271.595222 
L 343.783576 273.332284 
L 344.17998 271.095257 
L 344.972787 272.912636 
L 345.369191 272.837792 
L 345.765594 273.691033 
L 346.161998 271.228973 
L 346.558402 270.791082 
L 346.954805 272.023948 
L 347.351209 271.449797 
L 347.747612 269.653006 
L 348.144016 270.963353 
L 348.54042 270.946165 
L 348.936823 274.738649 
L 349.333227 283.947285 
L 349.72963 278.944587 
L 350.126034 277.527416 
L 350.522438 273.015188 
L 350.918841 271.120207 
L 351.315245 275.532469 
L 351.711648 270.950703 
L 352.108052 270.047344 
L 352.504456 273.363214 
L 352.900859 272.308156 
L 353.297263 272.282313 
L 353.693666 270.626702 
L 354.09007 267.364492 
L 354.486474 273.093155 
L 354.882877 273.151155 
L 355.279281 261.486569 
L 355.675684 272.478082 
L 356.072088 271.46734 
L 356.468492 276.558927 
L 357.261299 271.620465 
L 357.657702 274.745303 
L 358.054106 274.706251 
L 358.450509 272.512731 
L 358.846913 272.633338 
L 359.243317 277.206136 
L 359.63972 270.830337 
L 360.036124 273.327072 
L 360.432527 277.392869 
L 360.828931 279.281823 
L 361.225335 276.750194 
L 361.621738 278.300366 
L 362.414545 277.923671 
L 362.810949 276.647815 
L 363.207353 274.899926 
L 363.603756 272.074672 
L 364.00016 270.829083 
L 364.396563 271.356996 
L 364.792967 270.621662 
L 365.189371 268.66222 
L 365.585774 272.752043 
L 365.982178 273.096132 
L 366.378581 269.87747 
L 366.774985 269.359538 
L 367.171389 273.12901 
L 367.567792 269.168657 
L 367.964196 274.403523 
L 368.360599 269.432167 
L 368.757003 269.112339 
L 369.153407 271.148238 
L 369.54981 275.370905 
L 369.946214 281.158722 
L 370.739021 271.720733 
L 371.135425 270.407451 
L 371.531828 270.241943 
L 371.928232 273.725771 
L 372.721039 270.843718 
L 373.117443 273.578439 
L 373.513846 273.774767 
L 373.91025 269.162807 
L 374.306653 273.154487 
L 374.703057 275.145668 
L 375.099461 269.979384 
L 375.495864 275.37466 
L 376.288671 269.506363 
L 377.081479 275.068719 
L 377.477882 270.269985 
L 377.874286 268.999117 
L 378.270689 274.001638 
L 378.667093 273.477971 
L 379.063497 271.17852 
L 379.4599 275.712319 
L 379.856304 276.671224 
L 380.252707 275.276371 
L 380.649111 276.46268 
L 381.045514 276.234414 
L 381.441918 276.904029 
L 381.838322 275.379089 
L 382.234725 277.221888 
L 382.631129 274.910565 
L 383.027532 277.838814 
L 383.82034 268.62086 
L 384.216743 268.645382 
L 384.613147 271.797531 
L 385.00955 270.985634 
L 385.405954 267.553737 
L 385.802358 270.532346 
L 386.198761 269.630344 
L 386.595165 271.668771 
L 386.991568 268.240217 
L 387.784376 271.335755 
L 388.180779 269.093777 
L 388.577183 272.861525 
L 388.973586 268.949615 
L 389.36999 270.790434 
L 389.766394 269.394233 
L 390.162797 273.890401 
L 390.559201 283.172435 
L 390.955604 280.956064 
L 391.352008 273.561354 
L 391.748412 272.738229 
L 392.144815 270.285256 
L 392.541219 269.815129 
L 392.937622 272.804418 
L 393.334026 271.433982 
L 393.73043 272.852902 
L 394.126833 270.405973 
L 394.523237 295.488 
L 395.316044 295.488 
L 395.712448 271.840954 
L 396.505255 274.208365 
L 396.901658 269.043825 
L 397.298062 268.079326 
L 397.694466 272.179292 
L 398.090869 270.449751 
L 398.487273 269.271736 
L 398.487273 269.271736 
" clip-path="url(#p304c64fed1)" style="fill: none; stroke: #2ca02c; stroke-width: 1.5; stroke-linecap: square"/>
   </g>
   <g id="patch_3">
    <path d="M 57.6 307.584 
L 57.6 41.472 
" style="fill: none; stroke: #000000; stroke-width: 0.8; stroke-linejoin: miter; stroke-linecap: square"/>
   </g>
   <g id="patch_4">
    <path d="M 414.72 307.584 
L 414.72 41.472 
" style="fill: none; stroke: #000000; stroke-width: 0.8; stroke-linejoin: miter; stroke-linecap: square"/>
   </g>
   <g id="patch_5">
    <path d="M 57.6 307.584 
L 414.72 307.584 
" style="fill: none; stroke: #000000; stroke-width: 0.8; stroke-linejoin: miter; stroke-linecap: square"/>
   </g>
   <g id="patch_6">
    <path d="M 57.6 41.472 
L 414.72 41.472 
" style="fill: none; stroke: #000000; stroke-width: 0.8; stroke-linejoin: miter; stroke-linecap: square"/>
   </g>
   <g id="legend_1">
    <g id="patch_7">
     <path d="M 64.6 93.506375 
L 186.25625 93.506375 
Q 188.25625 93.506375 188.25625 91.506375 
L 188.25625 48.472 
Q 188.25625 46.472 186.25625 46.472 
L 64.6 46.472 
Q 62.6 46.472 62.6 48.472 
L 62.6 91.506375 
Q 62.6 93.506375 64.6 93.506375 
z
" style="fill: #ffffff; opacity: 0.8; stroke: #cccccc; stroke-linejoin: miter"/>
    </g>
    <g id="line2d_18">
     <path d="M 66.6 54.570438 
L 76.6 54.570438 
L 86.6 54.570438 
" style="fill: none; stroke: #1f77b4; stroke-width: 1.5; stroke-linecap: square"/>
    </g>
    <g id="text_17">
     <!-- Weekly maximum -->
     <g transform="translate(94.6 58.070438) scale(0.1 -0.1)">
      <defs>
       <path id="DejaVuSans-57" d="M 213 4666 
L 850 4666 
L 1831 722 
L 2809 4666 
L 3519 4666 
L 4500 722 
L 5478 4666 
L 6119 4666 
L 4947 0 
L 4153 0 
L 3169 4050 
L 2175 0 
L 1381 0 
L 213 4666 
z
" transform="scale(0.015625)"/>
       <path id="DejaVuSans-6b" d="M 581 4863 
L 1159 4863 
L 1159 1991 
L 2875 3500 
L 3609 3500 
L 1753 1863 
L 3688 0 
L 2938 0 
L 1159 1709 
L 1159 0 
L 581 0 
L 581 4863 
z
" transform="scale(0.015625)"/>
       <path id="DejaVuSans-79" d="M 2059 -325 
Q 1816 -950 1584 -1140 
Q 1353 -1331 966 -1331 
L 506 -1331 
L 506 -850 
L 844 -850 
Q 1081 -850 1212 -737 
Q 1344 -625 1503 -206 
L 1606 56 
L 191 3500 
L 800 3500 
L 1894 763 
L 2988 3500 
L 3597 3500 
L 2059 -325 
z
" transform="scale(0.015625)"/>
       <path id="DejaVuSans-6d" d="M 3328 2828 
Q 3544 3216 3844 3400 
Q 4144 3584 4550 3584 
Q 5097 3584 5394 3201 
Q 5691 2819 5691 2113 
L 5691 0 
L 5113 0 
L 5113 2094 
Q 5113 2597 4934 2840 
Q 4756 3084 4391 3084 
Q 3944 3084 3684 2787 
Q 3425 2491 3425 1978 
L 3425 0 
L 2847 0 
L 2847 2094 
Q 2847 2600 2669 2842 
Q 2491 3084 2119 3084 
Q 1678 3084 1418 2786 
Q 1159 2488 1159 1978 
L 1159 0 
L 581 0 
L 581 3500 
L 1159 3500 
L 1159 2956 
Q 1356 3278 1631 3431 
Q 1906 3584 2284 3584 
Q 2666 3584 2933 3390 
Q 3200 3197 3328 2828 
z
" transform="scale(0.015625)"/>
       <path id="DejaVuSans-78" d="M 3513 3500 
L 2247 1797 
L 3578 0 
L 2900 0 
L 1881 1375 
L 863 0 
L 184 0 
L 1544 1831 
L 300 3500 
L 978 3500 
L 1906 2253 
L 2834 3500 
L 3513 3500 
z
" transform="scale(0.015625)"/>
       <path id="DejaVuSans-75" d="M 544 1381 
L 544 3500 
L 1119 3500 
L 1119 1403 
Q 1119 906 1312 657 
Q 1506 409 1894 409 
Q 2359 409 2629 706 
Q 2900 1003 2900 1516 
L 2900 3500 
L 3475 3500 
L 3475 0 
L 2900 0 
L 2900 538 
Q 2691 219 2414 64 
Q 2138 -91 1772 -91 
Q 1169 -91 856 284 
Q 544 659 544 1381 
z
M 1991 3584 
L 1991 3584 
z
" transform="scale(0.015625)"/>
      </defs>
      <use xlink:href="#DejaVuSans-57"/>
      <use xlink:href="#DejaVuSans-65" x="93.001953"/>
      <use xlink:href="#DejaVuSans-65" x="154.525391"/>
      <use xlink:href="#DejaVuSans-6b" x="216.048828"/>
      <use xlink:href="#DejaVuSans-6c" x="273.958984"/>
      <use xlink:href="#DejaVuSans-79" x="301.742188"/>
      <use xlink:href="#DejaVuSans-20" x="360.921875"/>
      <use xlink:href="#DejaVuSans-6d" x="392.708984"/>
      <use xlink:href="#DejaVuSans-61" x="490.121094"/>
      <use xlink:href="#DejaVuSans-78" x="551.400391"/>
      <use xlink:href="#DejaVuSans-69" x="610.580078"/>
      <use xlink:href="#DejaVuSans-6d" x="638.363281"/>
      <use xlink:href="#DejaVuSans-75" x="735.775391"/>
      <use xlink:href="#DejaVuSans-6d" x="799.154297"/>
     </g>
    </g>
    <g id="line2d_19">
     <path d="M 66.6 69.248563 
L 76.6 69.248563 
L 86.6 69.248563 
" style="fill: none; stroke: #ff7f0e; stroke-width: 1.5; stroke-linecap: square"/>
    </g>
    <g id="text_18">
     <!-- Weekly minimum -->
     <g transform="translate(94.6 72.748563) scale(0.1 -0.1)">
      <defs>
       <path id="DejaVuSans-6e" d="M 3513 2113 
L 3513 0 
L 2938 0 
L 2938 2094 
Q 2938 2591 2744 2837 
Q 2550 3084 2163 3084 
Q 1697 3084 1428 2787 
Q 1159 2491 1159 1978 
L 1159 0 
L 581 0 
L 581 3500 
L 1159 3500 
L 1159 2956 
Q 1366 3272 1645 3428 
Q 1925 3584 2291 3584 
Q 2894 3584 3203 3211 
Q 3513 2838 3513 2113 
z
" transform="scale(0.015625)"/>
      </defs>
      <use xlink:href="#DejaVuSans-57"/>
      <use xlink:href="#DejaVuSans-65" x="93.001953"/>
      <use xlink:href="#DejaVuSans-65" x="154.525391"/>
      <use xlink:href="#DejaVuSans-6b" x="216.048828"/>
      <use xlink:href="#DejaVuSans-6c" x="273.958984"/>
      <use xlink:href="#DejaVuSans-79" x="301.742188"/>
      <use xlink:href="#DejaVuSans-20" x="360.921875"/>
      <use xlink:href="#DejaVuSans-6d" x="392.708984"/>
      <use xlink:href="#DejaVuSans-69" x="490.121094"/>
      <use xlink:href="#DejaVuSans-6e" x="517.904297"/>
      <use xlink:href="#DejaVuSans-69" x="581.283203"/>
      <use xlink:href="#DejaVuSans-6d" x="609.066406"/>
      <use xlink:href="#DejaVuSans-75" x="706.478516"/>
      <use xlink:href="#DejaVuSans-6d" x="769.857422"/>
     </g>
    </g>
    <g id="line2d_20">
     <path d="M 66.6 83.926688 
L 76.6 83.926688 
L 86.6 83.926688 
" style="fill: none; stroke: #2ca02c; stroke-width: 1.5; stroke-linecap: square"/>
    </g>
    <g id="text_19">
     <!-- Weekly range -->
     <g transform="translate(94.6 87.426688) scale(0.1 -0.1)">
      <use xlink:href="#DejaVuSans-57"/>
      <use xlink:href="#DejaVuSans-65" x="93.001953"/>
      <use xlink:href="#DejaVuSans-65" x="154.525391"/>
      <use xlink:href="#DejaVuSans-6b" x="216.048828"/>
      <use xlink:href="#DejaVuSans-6c" x="273.958984"/>
      <use xlink:href="#DejaVuSans-79" x="301.742188"/>
      <use xlink:href="#DejaVuSans-20" x="360.921875"/>
      <use xlink:href="#DejaVuSans-72" x="392.708984"/>
      <use xlink:href="#DejaVuSans-61" x="433.822266"/>
      <use xlink:href="#DejaVuSans-6e" x="495.101562"/>
      <use xlink:href="#DejaVuSans-67" x="558.480469"/>
      <use xlink:href="#DejaVuSans-65" x="621.957031"/>
     </g>
    </g>
   </g>
  </g>
 </g>
 <defs>
  <clipPath id="p304c64fed1">
   <rect x="57.6" y="41.472" width="357.12" height="266.112"/>
  </clipPath>
 </defs>
</svg>
