<?xml version="1.0" encoding="utf-8" standalone="no"?>
<!DOCTYPE svg PUBLIC "-//W3C//DTD SVG 1.1//EN"
  "http://www.w3.org/Graphics/SVG/1.1/DTD/svg11.dtd">
<svg xmlns:xlink="http://www.w3.org/1999/xlink" width="460.8pt" height="345.6pt" viewBox="0 0 460.8 345.6" xmlns="http://www.w3.org/2000/svg" version="1.1">
 <metadata>
  <rdf:RDF xmlns:dc="http://purl.org/dc/elements/1.1/" xmlns:cc="http://creativecommons.org/ns#" xmlns:rdf="http://www.w3.org/1999/02/22-rdf-syntax-ns#">
   <cc:Work>
    <dc:type rdf:resource="http://purl.org/dc/dcmitype/StillImage"/>
    <dc:date>2026-07-19T07:36:55.708846</dc:date>
    <dc:format>image/svg+xml</dc:format>
    <dc:creator>
     <cc:Agent>
      <dc:title>Matplotlib v3.10.9, https://matplotlib.org/</dc:title>
     </cc:Agent>
    </dc:creator>
   </cc:Work>
  </rdf:RDF>
 </metadata>
 <defs>
  <style type="text/css">*{stroke-linejoin: round; stroke-linecap: butt}</style>
 </defs>
 <g id="figure_1">
  <g id="patch_1">
   <path d="M 0 345.6 
L 460.8 345.6 
L 460.8 0 
L 0 0 
z
" style="fill: #ffffff"/>
  </g>
  <g id="axes_1">
   <g id="patch_2">
    <path d="M 57.6 307.584 
L 414.72 307.584 
L 414.72 41.472 
L 57.6 41.472 
z
" style="fill: #ffffff"/>
   </g>
   <g id="matplotlib.axis_1">
    <g id="xtick_1">
     <g id="line2d_1">
      <defs>
       <path id="m5310ea7507" d="M 0 0 
L 0 3.5 
" style="stroke: #000000; stroke-width: 0.8"/>
      </defs>
      <g>
       <use xlink:href="#m5310ea7507" x="61.690528" y="307.584" style="stroke: #000000; stroke-width: 0.8"/>
      </g>
     </g>
     <g id="text_1">
      <!-- 2008 -->
      <g transform="translate(48.965528 322.182437) scale(0.1 -0.1)">
       <defs>
        <path id="DejaVuSans-32" d="M 1228 531 
L 3431 531 
L 3431 0 
L 469 0 
L 469 531 
Q 828 903 1448 1529 
Q 2069 2156 2228 2338 
Q 2531 2678 2651 2914 
Q 2772 3150 2772 3378 
Q 2772 3750 2511 3984 
Q 2250 4219 1831 4219 
Q 1534 4219 1204 4116 
Q 875 4013 500 3803 
L 500 4441 
Q 881 4594 1212 4672 
Q 1544 4750 1819 4750 
Q 2544 4750 2975 4387 
Q 3406 4025 3406 3419 
Q 3406 3131 3298 2873 
Q 3191 2616 2906 2266 
Q 2828 2175 2409 1742 
Q 1991 1309 1228 531 
z
" transform="scale(0.015625)"/>
        <path id="DejaVuSans-30" d="M 2034 4250 
Q 1547 4250 1301 3770 
Q 1056 3291 1056 2328 
Q 1056 1369 1301 889 
Q 1547 409 2034 409 
Q 2525 409 2770 889 
Q 3016 1369 3016 2328 
Q 3016 3291 2770 3770 
Q 2525 4250 2034 4250 
z
M 2034 4750 
Q 2819 4750 3233 4129 
Q 3647 3509 3647 2328 
Q 3647 1150 3233 529 
Q 2819 -91 2034 -91 
Q 1250 -91 836 529 
Q 422 1150 422 2328 
Q 422 3509 836 4129 
Q 1250 4750 2034 4750 
z
" transform="scale(0.015625)"/>
        <path id="DejaVuSans-38" d="M 2034 2216 
Q 1584 2216 1326 1975 
Q 1069 1734 1069 1313 
Q 1069 891 1326 650 
Q 1584 409 2034 409 
Q 2484 409 2743 651 
Q 3003 894 3003 1313 
Q 3003 1734 2745 1975 
Q 2488 2216 2034 2216 
z
M 1403 2484 
Q 997 2584 770 2862 
Q 544 3141 544 3541 
Q 544 4100 942 4425 
Q 1341 4750 2034 4750 
Q 2731 4750 3128 4425 
Q 3525 4100 3525 3541 
Q 3525 3141 3298 2862 
Q 3072 2584 2669 2484 
Q 3125 2378 3379 2068 
Q 3634 1759 3634 1313 
Q 3634 634 3220 271 
Q 2806 -91 2034 -91 
Q 1263 -91 848 271 
Q 434 634 434 1313 
Q 434 1759 690 2068 
Q 947 2378 1403 2484 
z
M 1172 3481 
Q 1172 3119 1398 2916 
Q 1625 2713 2034 2713 
Q 2441 2713 2670 2916 
Q 2900 3119 2900 3481 
Q 2900 3844 2670 4047 
Q 2441 4250 2034 4250 
Q 1625 4250 1398 4047 
Q 1172 3844 1172 3481 
z
" transform="scale(0.015625)"/>
       </defs>
       <use xlink:href="#DejaVuSans-32"/>
       <use xlink:href="#DejaVuSans-30" transform="translate(63.623047 0)"/>
       <use xlink:href="#DejaVuSans-30" transform="translate(127.246094 0)"/>
       <use xlink:href="#DejaVuSans-38" transform="translate(190.869141 0)"/>
      </g>
     </g>
    </g>
    <g id="xtick_2">
     <g id="line2d_2">
      <g>
       <use xlink:href="#m5310ea7507" x="98.067363" y="307.584" style="stroke: #000000; stroke-width: 0.8"/>
      </g>
     </g>
     <g id="text_2">
      <!-- 2010 -->
      <g transform="translate(85.342363 322.182437) scale(0.1 -0.1)">
       <defs>
        <path id="DejaVuSans-31" d="M 794 531 
L 1825 531 
L 1825 4091 
L 703 3866 
L 703 4441 
L 1819 4666 
L 2450 4666 
L 2450 531 
L 3481 531 
L 3481 0 
L 794 0 
L 794 531 
z
" transform="scale(0.015625)"/>
       </defs>
       <use xlink:href="#DejaVuSans-32"/>
       <use xlink:href="#DejaVuSans-30" transform="translate(63.623047 0)"/>
       <use xlink:href="#DejaVuSans-31" transform="translate(127.246094 0)"/>
       <use xlink:href="#DejaVuSans-30" transform="translate(190.869141 0)"/>
      </g>
     </g>
    </g>
    <g id="xtick_3">
     <g id="line2d_3">
      <g>
       <use xlink:href="#m5310ea7507" x="134.394435" y="307.584" style="stroke: #000000; stroke-width: 0.8"/>
      </g>
     </g>
     <g id="text_3">
      <!-- 2012 -->
      <g transform="translate(121.669435 322.182437) scale(0.1 -0.1)">
       <use xlink:href="#DejaVuSans-32"/>
       <use xlink:href="#DejaVuSans-30" transform="translate(63.623047 0)"/>
       <use xlink:href="#DejaVuSans-31" transform="translate(127.246094 0)"/>
       <use xlink:href="#DejaVuSans-32" transform="translate(190.869141 0)"/>
      </g>
     </g>
    </g>
    <g id="xtick_4">
     <g id="line2d_4">
      <g>
       <use xlink:href="#m5310ea7507" x="170.77127" y="307.584" style="stroke: #000000; stroke-width: 0.8"/>
      </g>
     </g>
     <g id="text_4">
      <!-- 2014 -->
      <g transform="translate(158.04627 322.182437) scale(0.1 -0.1)">
       <defs>
        <path id="DejaVuSans-34" d="M 2419 4116 
L 825 1625 
L 2419 1625 
L 2419 4116 
z
M 2253 4666 
L 3047 4666 
L 3047 1625 
L 3713 1625 
L 3713 1100 
L 3047 1100 
L 3047 0 
L 2419 0 
L 2419 1100 
L 313 1100 
L 313 1709 
L 2253 4666 
z
" transform="scale(0.015625)"/>
       </defs>
       <use xlink:href="#DejaVuSans-32"/>
       <use xlink:href="#DejaVuSans-30" transform="translate(63.623047 0)"/>
       <use xlink:href="#DejaVuSans-31" transform="translate(127.246094 0)"/>
       <use xlink:href="#DejaVuSans-34" transform="translate(190.869141 0)"/>
      </g>
     </g>
    </g>
    <g id="xtick_5">
     <g id="line2d_5">
      <g>
       <use xlink:href="#m5310ea7507" x="207.098342" y="307.584" style="stroke: #000000; stroke-width: 0.8"/>
      </g>
     </g>
     <g id="text_5">
      <!-- 2016 -->
      <g transform="translate(194.373342 322.182437) scale(0.1 -0.1)">
       <defs>
        <path id="DejaVuSans-36" d="M 2113 2584 
Q 1688 2584 1439 2293 
Q 1191 2003 1191 1497 
Q 1191 994 1439 701 
Q 1688 409 2113 409 
Q 2538 409 2786 701 
Q 3034 994 3034 1497 
Q 3034 2003 2786 2293 
Q 2538 2584 2113 2584 
z
M 3366 4563 
L 3366 3988 
Q 3128 4100 2886 4159 
Q 2644 4219 2406 4219 
Q 1781 4219 1451 3797 
Q 1122 3375 1075 2522 
Q 1259 2794 1537 2939 
Q 1816 3084 2150 3084 
Q 2853 3084 3261 2657 
Q 3669 2231 3669 1497 
Q 3669 778 3244 343 
Q 2819 -91 2113 -91 
Q 1303 -91 875 529 
Q 447 1150 447 2328 
Q 447 3434 972 4092 
Q 1497 4750 2381 4750 
Q 2619 4750 2861 4703 
Q 3103 4656 3366 4563 
z
" transform="scale(0.015625)"/>
       </defs>
       <use xlink:href="#DejaVuSans-32"/>
       <use xlink:href="#DejaVuSans-30" transform="translate(63.623047 0)"/>
       <use xlink:href="#DejaVuSans-31" transform="translate(127.246094 0)"/>
       <use xlink:href="#DejaVuSans-36" transform="translate(190.869141 0)"/>
      </g>
     </g>
    </g>
    <g id="xtick_6">
     <g id="line2d_6">
      <g>
       <use xlink:href="#m5310ea7507" x="243.475178" y="307.584" style="stroke: #000000; stroke-width: 0.8"/>
      </g>
     </g>
     <g id="text_6">
      <!-- 2018 -->
      <g transform="translate(230.750178 322.182437) scale(0.1 -0.1)">
       <use xlink:href="#DejaVuSans-32"/>
       <use xlink:href="#DejaVuSans-30" transform="translate(63.623047 0)"/>
       <use xlink:href="#DejaVuSans-31" transform="translate(127.246094 0)"/>
       <use xlink:href="#DejaVuSans-38" transform="translate(190.869141 0)"/>
      </g>
     </g>
    </g>
    <g id="xtick_7">
     <g id="line2d_7">
      <g>
       <use xlink:href="#m5310ea7507" x="279.80225" y="307.584" style="stroke: #000000; stroke-width: 0.8"/>
      </g>
     </g>
     <g id="text_7">
      <!-- 2020 -->
      <g transform="translate(267.07725 322.182437) scale(0.1 -0.1)">
       <use xlink:href="#DejaVuSans-32"/>
       <use xlink:href="#DejaVuSans-30" transform="translate(63.623047 0)"/>
       <use xlink:href="#DejaVuSans-32" transform="translate(127.246094 0)"/>
       <use xlink:href="#DejaVuSans-30" transform="translate(190.869141 0)"/>
      </g>
     </g>
    </g>
    <g id="xtick_8">
     <g id="line2d_8">
      <g>
       <use xlink:href="#m5310ea7507" x="316.179085" y="307.584" style="stroke: #000000; stroke-width: 0.8"/>
      </g>
     </g>
     <g id="text_8">
      <!-- 2022 -->
      <g transform="translate(303.454085 322.182437) scale(0.1 -0.1)">
       <use xlink:href="#DejaVuSans-32"/>
       <use xlink:href="#DejaVuSans-30" transform="translate(63.623047 0)"/>
       <use xlink:href="#DejaVuSans-32" transform="translate(127.246094 0)"/>
       <use xlink:href="#DejaVuSans-32" transform="translate(190.869141 0)"/>
      </g>
     </g>
    </g>
    <g id="xtick_9">
     <g id="line2d_9">
      <g>
       <use xlink:href="#m5310ea7507" x="352.506157" y="307.584" style="stroke: #000000; stroke-width: 0.8"/>
      </g>
     </g>
     <g id="text_9">
      <!-- 2024 -->
      <g transform="translate(339.781157 322.182437) scale(0.1 -0.1)">
       <use xlink:href="#DejaVuSans-32"/>
       <use xlink:href="#DejaVuSans-30" transform="translate(63.623047 0)"/>
       <use xlink:href="#DejaVuSans-32" transform="translate(127.246094 0)"/>
       <use xlink:href="#DejaVuSans-34" transform="translate(190.869141 0)"/>
      </g>
     </g>
    </g>
    <g id="xtick_10">
     <g id="line2d_10">
      <g>
       <use xlink:href="#m5310ea7507" x="388.882992" y="307.584" style="stroke: #000000; stroke-width: 0.8"/>
      </g>
     </g>
     <g id="text_10">
      <!-- 2026 -->
      <g transform="translate(376.157992 322.182437) scale(0.1 -0.1)">
       <use xlink:href="#DejaVuSans-32"/>
       <use xlink:href="#DejaVuSans-30" transform="translate(63.623047 0)"/>
       <use xlink:href="#DejaVuSans-32" transform="translate(127.246094 0)"/>
       <use xlink:href="#DejaVuSans-36" transform="translate(190.869141 0)"/>
      </g>
     </g>
    </g>
    <g id="text_11">
     <!-- Updated 2026-07-19 07:36:55.707305 - Last record 2026-07-17 -->
     <g transform="translate(75.905312 335.860562) scale(0.1 -0.1)">
      <defs>
       <path id="DejaVuSans-55" d="M 556 4666 
L 1191 4666 
L 1191 1831 
Q 1191 1081 1462 751 
Q 1734 422 2344 422 
Q 2950 422 3222 751 
Q 3494 1081 3494 1831 
L 3494 4666 
L 4128 4666 
L 4128 1753 
Q 4128 841 3676 375 
Q 3225 -91 2344 -91 
Q 1459 -91 1007 375 
Q 556 841 556 1753 
L 556 4666 
z
" transform="scale(0.015625)"/>
       <path id="DejaVuSans-70" d="M 1159 525 
L 1159 -1331 
L 581 -1331 
L 581 3500 
L 1159 3500 
L 1159 2969 
Q 1341 3281 1617 3432 
Q 1894 3584 2278 3584 
Q 2916 3584 3314 3078 
Q 3713 2572 3713 1747 
Q 3713 922 3314 415 
Q 2916 -91 2278 -91 
Q 1894 -91 1617 61 
Q 1341 213 1159 525 
z
M 3116 1747 
Q 3116 2381 2855 2742 
Q 2594 3103 2138 3103 
Q 1681 3103 1420 2742 
Q 1159 2381 1159 1747 
Q 1159 1113 1420 752 
Q 1681 391 2138 391 
Q 2594 391 2855 752 
Q 3116 1113 3116 1747 
z
" transform="scale(0.015625)"/>
       <path id="DejaVuSans-64" d="M 2906 2969 
L 2906 4863 
L 3481 4863 
L 3481 0 
L 2906 0 
L 2906 525 
Q 2725 213 2448 61 
Q 2172 -91 1784 -91 
Q 1150 -91 751 415 
Q 353 922 353 1747 
Q 353 2572 751 3078 
Q 1150 3584 1784 3584 
Q 2172 3584 2448 3432 
Q 2725 3281 2906 2969 
z
M 947 1747 
Q 947 1113 1208 752 
Q 1469 391 1925 391 
Q 2381 391 2643 752 
Q 2906 1113 2906 1747 
Q 2906 2381 2643 2742 
Q 2381 3103 1925 3103 
Q 1469 3103 1208 2742 
Q 947 2381 947 1747 
z
" transform="scale(0.015625)"/>
       <path id="DejaVuSans-61" d="M 2194 1759 
Q 1497 1759 1228 1600 
Q 959 1441 959 1056 
Q 959 750 1161 570 
Q 1363 391 1709 391 
Q 2188 391 2477 730 
Q 2766 1069 2766 1631 
L 2766 1759 
L 2194 1759 
z
M 3341 1997 
L 3341 0 
L 2766 0 
L 2766 531 
Q 2569 213 2275 61 
Q 1981 -91 1556 -91 
Q 1019 -91 701 211 
Q 384 513 384 1019 
Q 384 1609 779 1909 
Q 1175 2209 1959 2209 
L 2766 2209 
L 2766 2266 
Q 2766 2663 2505 2880 
Q 2244 3097 1772 3097 
Q 1472 3097 1187 3025 
Q 903 2953 641 2809 
L 641 3341 
Q 956 3463 1253 3523 
Q 1550 3584 1831 3584 
Q 2591 3584 2966 3190 
Q 3341 2797 3341 1997 
z
" transform="scale(0.015625)"/>
       <path id="DejaVuSans-74" d="M 1172 4494 
L 1172 3500 
L 2356 3500 
L 2356 3053 
L 1172 3053 
L 1172 1153 
Q 1172 725 1289 603 
Q 1406 481 1766 481 
L 2356 481 
L 2356 0 
L 1766 0 
Q 1100 0 847 248 
Q 594 497 594 1153 
L 594 3053 
L 172 3053 
L 172 3500 
L 594 3500 
L 594 4494 
L 1172 4494 
z
" transform="scale(0.015625)"/>
       <path id="DejaVuSans-65" d="M 3597 1894 
L 3597 1613 
L 953 1613 
Q 991 1019 1311 708 
Q 1631 397 2203 397 
Q 2534 397 2845 478 
Q 3156 559 3463 722 
L 3463 178 
Q 3153 47 2828 -22 
Q 2503 -91 2169 -91 
Q 1331 -91 842 396 
Q 353 884 353 1716 
Q 353 2575 817 3079 
Q 1281 3584 2069 3584 
Q 2775 3584 3186 3129 
Q 3597 2675 3597 1894 
z
M 3022 2063 
Q 3016 2534 2758 2815 
Q 2500 3097 2075 3097 
Q 1594 3097 1305 2825 
Q 1016 2553 972 2059 
L 3022 2063 
z
" transform="scale(0.015625)"/>
       <path id="DejaVuSans-20" transform="scale(0.015625)"/>
       <path id="DejaVuSans-2d" d="M 313 2009 
L 1997 2009 
L 1997 1497 
L 313 1497 
L 313 2009 
z
" transform="scale(0.015625)"/>
       <path id="DejaVuSans-37" d="M 525 4666 
L 3525 4666 
L 3525 4397 
L 1831 0 
L 1172 0 
L 2766 4134 
L 525 4134 
L 525 4666 
z
" transform="scale(0.015625)"/>
       <path id="DejaVuSans-39" d="M 703 97 
L 703 672 
Q 941 559 1184 500 
Q 1428 441 1663 441 
Q 2288 441 2617 861 
Q 2947 1281 2994 2138 
Q 2813 1869 2534 1725 
Q 2256 1581 1919 1581 
Q 1219 1581 811 2004 
Q 403 2428 403 3163 
Q 403 3881 828 4315 
Q 1253 4750 1959 4750 
Q 2769 4750 3195 4129 
Q 3622 3509 3622 2328 
Q 3622 1225 3098 567 
Q 2575 -91 1691 -91 
Q 1453 -91 1209 -44 
Q 966 3 703 97 
z
M 1959 2075 
Q 2384 2075 2632 2365 
Q 2881 2656 2881 3163 
Q 2881 3666 2632 3958 
Q 2384 4250 1959 4250 
Q 1534 4250 1286 3958 
Q 1038 3666 1038 3163 
Q 1038 2656 1286 2365 
Q 1534 2075 1959 2075 
z
" transform="scale(0.015625)"/>
       <path id="DejaVuSans-3a" d="M 750 794 
L 1409 794 
L 1409 0 
L 750 0 
L 750 794 
z
M 750 3309 
L 1409 3309 
L 1409 2516 
L 750 2516 
L 750 3309 
z
" transform="scale(0.015625)"/>
       <path id="DejaVuSans-33" d="M 2597 2516 
Q 3050 2419 3304 2112 
Q 3559 1806 3559 1356 
Q 3559 666 3084 287 
Q 2609 -91 1734 -91 
Q 1441 -91 1130 -33 
Q 819 25 488 141 
L 488 750 
Q 750 597 1062 519 
Q 1375 441 1716 441 
Q 2309 441 2620 675 
Q 2931 909 2931 1356 
Q 2931 1769 2642 2001 
Q 2353 2234 1838 2234 
L 1294 2234 
L 1294 2753 
L 1863 2753 
Q 2328 2753 2575 2939 
Q 2822 3125 2822 3475 
Q 2822 3834 2567 4026 
Q 2313 4219 1838 4219 
Q 1578 4219 1281 4162 
Q 984 4106 628 3988 
L 628 4550 
Q 988 4650 1302 4700 
Q 1616 4750 1894 4750 
Q 2613 4750 3031 4423 
Q 3450 4097 3450 3541 
Q 3450 3153 3228 2886 
Q 3006 2619 2597 2516 
z
" transform="scale(0.015625)"/>
       <path id="DejaVuSans-35" d="M 691 4666 
L 3169 4666 
L 3169 4134 
L 1269 4134 
L 1269 2991 
Q 1406 3038 1543 3061 
Q 1681 3084 1819 3084 
Q 2600 3084 3056 2656 
Q 3513 2228 3513 1497 
Q 3513 744 3044 326 
Q 2575 -91 1722 -91 
Q 1428 -91 1123 -41 
Q 819 9 494 109 
L 494 744 
Q 775 591 1075 516 
Q 1375 441 1709 441 
Q 2250 441 2565 725 
Q 2881 1009 2881 1497 
Q 2881 1984 2565 2268 
Q 2250 2553 1709 2553 
Q 1456 2553 1204 2497 
Q 953 2441 691 2322 
L 691 4666 
z
" transform="scale(0.015625)"/>
       <path id="DejaVuSans-2e" d="M 684 794 
L 1344 794 
L 1344 0 
L 684 0 
L 684 794 
z
" transform="scale(0.015625)"/>
       <path id="DejaVuSans-4c" d="M 628 4666 
L 1259 4666 
L 1259 531 
L 3531 531 
L 3531 0 
L 628 0 
L 628 4666 
z
" transform="scale(0.015625)"/>
       <path id="DejaVuSans-73" d="M 2834 3397 
L 2834 2853 
Q 2591 2978 2328 3040 
Q 2066 3103 1784 3103 
Q 1356 3103 1142 2972 
Q 928 2841 928 2578 
Q 928 2378 1081 2264 
Q 1234 2150 1697 2047 
L 1894 2003 
Q 2506 1872 2764 1633 
Q 3022 1394 3022 966 
Q 3022 478 2636 193 
Q 2250 -91 1575 -91 
Q 1294 -91 989 -36 
Q 684 19 347 128 
L 347 722 
Q 666 556 975 473 
Q 1284 391 1588 391 
Q 1994 391 2212 530 
Q 2431 669 2431 922 
Q 2431 1156 2273 1281 
Q 2116 1406 1581 1522 
L 1381 1569 
Q 847 1681 609 1914 
Q 372 2147 372 2553 
Q 372 3047 722 3315 
Q 1072 3584 1716 3584 
Q 2034 3584 2315 3537 
Q 2597 3491 2834 3397 
z
" transform="scale(0.015625)"/>
       <path id="DejaVuSans-72" d="M 2631 2963 
Q 2534 3019 2420 3045 
Q 2306 3072 2169 3072 
Q 1681 3072 1420 2755 
Q 1159 2438 1159 1844 
L 1159 0 
L 581 0 
L 581 3500 
L 1159 3500 
L 1159 2956 
Q 1341 3275 1631 3429 
Q 1922 3584 2338 3584 
Q 2397 3584 2469 3576 
Q 2541 3569 2628 3553 
L 2631 2963 
z
" transform="scale(0.015625)"/>
       <path id="DejaVuSans-63" d="M 3122 3366 
L 3122 2828 
Q 2878 2963 2633 3030 
Q 2388 3097 2138 3097 
Q 1578 3097 1268 2742 
Q 959 2388 959 1747 
Q 959 1106 1268 751 
Q 1578 397 2138 397 
Q 2388 397 2633 464 
Q 2878 531 3122 666 
L 3122 134 
Q 2881 22 2623 -34 
Q 2366 -91 2075 -91 
Q 1284 -91 818 406 
Q 353 903 353 1747 
Q 353 2603 823 3093 
Q 1294 3584 2113 3584 
Q 2378 3584 2631 3529 
Q 2884 3475 3122 3366 
z
" transform="scale(0.015625)"/>
       <path id="DejaVuSans-6f" d="M 1959 3097 
Q 1497 3097 1228 2736 
Q 959 2375 959 1747 
Q 959 1119 1226 758 
Q 1494 397 1959 397 
Q 2419 397 2687 759 
Q 2956 1122 2956 1747 
Q 2956 2369 2687 2733 
Q 2419 3097 1959 3097 
z
M 1959 3584 
Q 2709 3584 3137 3096 
Q 3566 2609 3566 1747 
Q 3566 888 3137 398 
Q 2709 -91 1959 -91 
Q 1206 -91 779 398 
Q 353 888 353 1747 
Q 353 2609 779 3096 
Q 1206 3584 1959 3584 
z
" transform="scale(0.015625)"/>
      </defs>
      <use xlink:href="#DejaVuSans-55"/>
      <use xlink:href="#DejaVuSans-70" transform="translate(73.193359 0)"/>
      <use xlink:href="#DejaVuSans-64" transform="translate(136.669922 0)"/>
      <use xlink:href="#DejaVuSans-61" transform="translate(200.146484 0)"/>
      <use xlink:href="#DejaVuSans-74" transform="translate(261.425781 0)"/>
      <use xlink:href="#DejaVuSans-65" transform="translate(300.634766 0)"/>
      <use xlink:href="#DejaVuSans-64" transform="translate(362.158203 0)"/>
      <use xlink:href="#DejaVuSans-20" transform="translate(425.634766 0)"/>
      <use xlink:href="#DejaVuSans-32" transform="translate(457.421875 0)"/>
      <use xlink:href="#DejaVuSans-30" transform="translate(521.044922 0)"/>
      <use xlink:href="#DejaVuSans-32" transform="translate(584.667969 0)"/>
      <use xlink:href="#DejaVuSans-36" transform="translate(648.291016 0)"/>
      <use xlink:href="#DejaVuSans-2d" transform="translate(711.914062 0)"/>
      <use xlink:href="#DejaVuSans-30" transform="translate(747.998047 0)"/>
      <use xlink:href="#DejaVuSans-37" transform="translate(811.621094 0)"/>
      <use xlink:href="#DejaVuSans-2d" transform="translate(875.244141 0)"/>
      <use xlink:href="#DejaVuSans-31" transform="translate(911.328125 0)"/>
      <use xlink:href="#DejaVuSans-39" transform="translate(974.951172 0)"/>
      <use xlink:href="#DejaVuSans-20" transform="translate(1038.574219 0)"/>
      <use xlink:href="#DejaVuSans-30" transform="translate(1070.361328 0)"/>
      <use xlink:href="#DejaVuSans-37" transform="translate(1133.984375 0)"/>
      <use xlink:href="#DejaVuSans-3a" transform="translate(1197.607422 0)"/>
      <use xlink:href="#DejaVuSans-33" transform="translate(1231.298828 0)"/>
      <use xlink:href="#DejaVuSans-36" transform="translate(1294.921875 0)"/>
      <use xlink:href="#DejaVuSans-3a" transform="translate(1358.544922 0)"/>
      <use xlink:href="#DejaVuSans-35" transform="translate(1392.236328 0)"/>
      <use xlink:href="#DejaVuSans-35" transform="translate(1455.859375 0)"/>
      <use xlink:href="#DejaVuSans-2e" transform="translate(1519.482422 0)"/>
      <use xlink:href="#DejaVuSans-37" transform="translate(1551.269531 0)"/>
      <use xlink:href="#DejaVuSans-30" transform="translate(1614.892578 0)"/>
      <use xlink:href="#DejaVuSans-37" transform="translate(1678.515625 0)"/>
      <use xlink:href="#DejaVuSans-33" transform="translate(1742.138672 0)"/>
      <use xlink:href="#DejaVuSans-30" transform="translate(1805.761719 0)"/>
      <use xlink:href="#DejaVuSans-35" transform="translate(1869.384766 0)"/>
      <use xlink:href="#DejaVuSans-20" transform="translate(1933.007812 0)"/>
      <use xlink:href="#DejaVuSans-2d" transform="translate(1964.794922 0)"/>
      <use xlink:href="#DejaVuSans-20" transform="translate(2000.878906 0)"/>
      <use xlink:href="#DejaVuSans-4c" transform="translate(2032.666016 0)"/>
      <use xlink:href="#DejaVuSans-61" transform="translate(2088.378906 0)"/>
      <use xlink:href="#DejaVuSans-73" transform="translate(2149.658203 0)"/>
      <use xlink:href="#DejaVuSans-74" transform="translate(2201.757812 0)"/>
      <use xlink:href="#DejaVuSans-20" transform="translate(2240.966797 0)"/>
      <use xlink:href="#DejaVuSans-72" transform="translate(2272.753906 0)"/>
      <use xlink:href="#DejaVuSans-65" transform="translate(2311.617188 0)"/>
      <use xlink:href="#DejaVuSans-63" transform="translate(2373.140625 0)"/>
      <use xlink:href="#DejaVuSans-6f" transform="translate(2428.121094 0)"/>
      <use xlink:href="#DejaVuSans-72" transform="translate(2489.302734 0)"/>
      <use xlink:href="#DejaVuSans-64" transform="translate(2528.666016 0)"/>
      <use xlink:href="#DejaVuSans-20" transform="translate(2592.142578 0)"/>
      <use xlink:href="#DejaVuSans-32" transform="translate(2623.929688 0)"/>
      <use xlink:href="#DejaVuSans-30" transform="translate(2687.552734 0)"/>
      <use xlink:href="#DejaVuSans-32" transform="translate(2751.175781 0)"/>
      <use xlink:href="#DejaVuSans-36" transform="translate(2814.798828 0)"/>
      <use xlink:href="#DejaVuSans-2d" transform="translate(2878.421875 0)"/>
      <use xlink:href="#DejaVuSans-30" transform="translate(2914.505859 0)"/>
      <use xlink:href="#DejaVuSans-37" transform="translate(2978.128906 0)"/>
      <use xlink:href="#DejaVuSans-2d" transform="translate(3041.751953 0)"/>
      <use xlink:href="#DejaVuSans-31" transform="translate(3077.835938 0)"/>
      <use xlink:href="#DejaVuSans-37" transform="translate(3141.458984 0)"/>
     </g>
    </g>
   </g>
   <g id="matplotlib.axis_2">
    <g id="ytick_1">
     <g id="line2d_11">
      <defs>
       <path id="m10a1b44366" d="M 0 0 
L -3.5 0 
" style="stroke: #000000; stroke-width: 0.8"/>
      </defs>
      <g>
       <use xlink:href="#m10a1b44366" x="57.6" y="295.488" style="stroke: #000000; stroke-width: 0.8"/>
      </g>
     </g>
     <g id="text_12">
      <!-- 0 -->
      <g transform="translate(44.2375 299.287219) scale(0.1 -0.1)">
       <use xlink:href="#DejaVuSans-30"/>
      </g>
     </g>
    </g>
    <g id="ytick_2">
     <g id="line2d_12">
      <g>
       <use xlink:href="#m10a1b44366" x="57.6" y="247.488225" style="stroke: #000000; stroke-width: 0.8"/>
      </g>
     </g>
     <g id="text_13">
      <!-- 10 -->
      <g transform="translate(37.875 251.287444) scale(0.1 -0.1)">
       <use xlink:href="#DejaVuSans-31"/>
       <use xlink:href="#DejaVuSans-30" transform="translate(63.623047 0)"/>
      </g>
     </g>
    </g>
    <g id="ytick_3">
     <g id="line2d_13">
      <g>
       <use xlink:href="#m10a1b44366" x="57.6" y="199.48845" style="stroke: #000000; stroke-width: 0.8"/>
      </g>
     </g>
     <g id="text_14">
      <!-- 20 -->
      <g transform="translate(37.875 203.287668) scale(0.1 -0.1)">
       <use xlink:href="#DejaVuSans-32"/>
       <use xlink:href="#DejaVuSans-30" transform="translate(63.623047 0)"/>
      </g>
     </g>
    </g>
    <g id="ytick_4">
     <g id="line2d_14">
      <g>
       <use xlink:href="#m10a1b44366" x="57.6" y="151.488674" style="stroke: #000000; stroke-width: 0.8"/>
      </g>
     </g>
     <g id="text_15">
      <!-- 30 -->
      <g transform="translate(37.875 155.287893) scale(0.1 -0.1)">
       <use xlink:href="#DejaVuSans-33"/>
       <use xlink:href="#DejaVuSans-30" transform="translate(63.623047 0)"/>
      </g>
     </g>
    </g>
    <g id="ytick_5">
     <g id="line2d_15">
      <g>
       <use xlink:href="#m10a1b44366" x="57.6" y="103.488899" style="stroke: #000000; stroke-width: 0.8"/>
      </g>
     </g>
     <g id="text_16">
      <!-- 40 -->
      <g transform="translate(37.875 107.288118) scale(0.1 -0.1)">
       <use xlink:href="#DejaVuSans-34"/>
       <use xlink:href="#DejaVuSans-30" transform="translate(63.623047 0)"/>
      </g>
     </g>
    </g>
    <g id="ytick_6">
     <g id="line2d_16">
      <g>
       <use xlink:href="#m10a1b44366" x="57.6" y="55.489124" style="stroke: #000000; stroke-width: 0.8"/>
      </g>
     </g>
     <g id="text_17">
      <!-- 50 -->
      <g transform="translate(37.875 59.288343) scale(0.1 -0.1)">
       <use xlink:href="#DejaVuSans-35"/>
       <use xlink:href="#DejaVuSans-30" transform="translate(63.623047 0)"/>
      </g>
     </g>
    </g>
    <g id="text_18">
     <!-- IPv6 as % of total Google traffic -->
     <g transform="translate(31.795312 253.735813) rotate(-90) scale(0.1 -0.1)">
      <defs>
       <path id="DejaVuSans-49" d="M 628 4666 
L 1259 4666 
L 1259 0 
L 628 0 
L 628 4666 
z
" transform="scale(0.015625)"/>
       <path id="DejaVuSans-50" d="M 1259 4147 
L 1259 2394 
L 2053 2394 
Q 2494 2394 2734 2622 
Q 2975 2850 2975 3272 
Q 2975 3691 2734 3919 
Q 2494 4147 2053 4147 
L 1259 4147 
z
M 628 4666 
L 2053 4666 
Q 2838 4666 3239 4311 
Q 3641 3956 3641 3272 
Q 3641 2581 3239 2228 
Q 2838 1875 2053 1875 
L 1259 1875 
L 1259 0 
L 628 0 
L 628 4666 
z
" transform="scale(0.015625)"/>
       <path id="DejaVuSans-76" d="M 191 3500 
L 800 3500 
L 1894 563 
L 2988 3500 
L 3597 3500 
L 2284 0 
L 1503 0 
L 191 3500 
z
" transform="scale(0.015625)"/>
       <path id="DejaVuSans-25" d="M 4653 2053 
Q 4381 2053 4226 1822 
Q 4072 1591 4072 1178 
Q 4072 772 4226 539 
Q 4381 306 4653 306 
Q 4919 306 5073 539 
Q 5228 772 5228 1178 
Q 5228 1588 5073 1820 
Q 4919 2053 4653 2053 
z
M 4653 2450 
Q 5147 2450 5437 2106 
Q 5728 1763 5728 1178 
Q 5728 594 5436 251 
Q 5144 -91 4653 -91 
Q 4153 -91 3862 251 
Q 3572 594 3572 1178 
Q 3572 1766 3864 2108 
Q 4156 2450 4653 2450 
z
M 1428 4353 
Q 1159 4353 1004 4120 
Q 850 3888 850 3481 
Q 850 3069 1003 2837 
Q 1156 2606 1428 2606 
Q 1700 2606 1854 2837 
Q 2009 3069 2009 3481 
Q 2009 3884 1853 4118 
Q 1697 4353 1428 4353 
z
M 4250 4750 
L 4750 4750 
L 1831 -91 
L 1331 -91 
L 4250 4750 
z
M 1428 4750 
Q 1922 4750 2215 4408 
Q 2509 4066 2509 3481 
Q 2509 2891 2217 2550 
Q 1925 2209 1428 2209 
Q 931 2209 642 2551 
Q 353 2894 353 3481 
Q 353 4063 643 4406 
Q 934 4750 1428 4750 
z
" transform="scale(0.015625)"/>
       <path id="DejaVuSans-66" d="M 2375 4863 
L 2375 4384 
L 1825 4384 
Q 1516 4384 1395 4259 
Q 1275 4134 1275 3809 
L 1275 3500 
L 2222 3500 
L 2222 3053 
L 1275 3053 
L 1275 0 
L 697 0 
L 697 3053 
L 147 3053 
L 147 3500 
L 697 3500 
L 697 3744 
Q 697 4328 969 4595 
Q 1241 4863 1831 4863 
L 2375 4863 
z
" transform="scale(0.015625)"/>
       <path id="DejaVuSans-6c" d="M 603 4863 
L 1178 4863 
L 1178 0 
L 603 0 
L 603 4863 
z
" transform="scale(0.015625)"/>
       <path id="DejaVuSans-47" d="M 3809 666 
L 3809 1919 
L 2778 1919 
L 2778 2438 
L 4434 2438 
L 4434 434 
Q 4069 175 3628 42 
Q 3188 -91 2688 -91 
Q 1594 -91 976 548 
Q 359 1188 359 2328 
Q 359 3472 976 4111 
Q 1594 4750 2688 4750 
Q 3144 4750 3555 4637 
Q 3966 4525 4313 4306 
L 4313 3634 
Q 3963 3931 3569 4081 
Q 3175 4231 2741 4231 
Q 1884 4231 1454 3753 
Q 1025 3275 1025 2328 
Q 1025 1384 1454 906 
Q 1884 428 2741 428 
Q 3075 428 3337 486 
Q 3600 544 3809 666 
z
" transform="scale(0.015625)"/>
       <path id="DejaVuSans-67" d="M 2906 1791 
Q 2906 2416 2648 2759 
Q 2391 3103 1925 3103 
Q 1463 3103 1205 2759 
Q 947 2416 947 1791 
Q 947 1169 1205 825 
Q 1463 481 1925 481 
Q 2391 481 2648 825 
Q 2906 1169 2906 1791 
z
M 3481 434 
Q 3481 -459 3084 -895 
Q 2688 -1331 1869 -1331 
Q 1566 -1331 1297 -1286 
Q 1028 -1241 775 -1147 
L 775 -588 
Q 1028 -725 1275 -790 
Q 1522 -856 1778 -856 
Q 2344 -856 2625 -561 
Q 2906 -266 2906 331 
L 2906 616 
Q 2728 306 2450 153 
Q 2172 0 1784 0 
Q 1141 0 747 490 
Q 353 981 353 1791 
Q 353 2603 747 3093 
Q 1141 3584 1784 3584 
Q 2172 3584 2450 3431 
Q 2728 3278 2906 2969 
L 2906 3500 
L 3481 3500 
L 3481 434 
z
" transform="scale(0.015625)"/>
       <path id="DejaVuSans-69" d="M 603 3500 
L 1178 3500 
L 1178 0 
L 603 0 
L 603 3500 
z
M 603 4863 
L 1178 4863 
L 1178 4134 
L 603 4134 
L 603 4863 
z
" transform="scale(0.015625)"/>
      </defs>
      <use xlink:href="#DejaVuSans-49"/>
      <use xlink:href="#DejaVuSans-50" transform="translate(29.492188 0)"/>
      <use xlink:href="#DejaVuSans-76" transform="translate(89.794922 0)"/>
      <use xlink:href="#DejaVuSans-36" transform="translate(148.974609 0)"/>
      <use xlink:href="#DejaVuSans-20" transform="translate(212.597656 0)"/>
      <use xlink:href="#DejaVuSans-61" transform="translate(244.384766 0)"/>
      <use xlink:href="#DejaVuSans-73" transform="translate(305.664062 0)"/>
      <use xlink:href="#DejaVuSans-20" transform="translate(357.763672 0)"/>
      <use xlink:href="#DejaVuSans-25" transform="translate(389.550781 0)"/>
      <use xlink:href="#DejaVuSans-20" transform="translate(484.570312 0)"/>
      <use xlink:href="#DejaVuSans-6f" transform="translate(516.357422 0)"/>
      <use xlink:href="#DejaVuSans-66" transform="translate(577.539062 0)"/>
      <use xlink:href="#DejaVuSans-20" transform="translate(612.744141 0)"/>
      <use xlink:href="#DejaVuSans-74" transform="translate(644.53125 0)"/>
      <use xlink:href="#DejaVuSans-6f" transform="translate(683.740234 0)"/>
      <use xlink:href="#DejaVuSans-74" transform="translate(744.921875 0)"/>
      <use xlink:href="#DejaVuSans-61" transform="translate(784.130859 0)"/>
      <use xlink:href="#DejaVuSans-6c" transform="translate(845.410156 0)"/>
      <use xlink:href="#DejaVuSans-20" transform="translate(873.193359 0)"/>
      <use xlink:href="#DejaVuSans-47" transform="translate(904.980469 0)"/>
      <use xlink:href="#DejaVuSans-6f" transform="translate(982.470703 0)"/>
      <use xlink:href="#DejaVuSans-6f" transform="translate(1043.652344 0)"/>
      <use xlink:href="#DejaVuSans-67" transform="translate(1104.833984 0)"/>
      <use xlink:href="#DejaVuSans-6c" transform="translate(1168.310547 0)"/>
      <use xlink:href="#DejaVuSans-65" transform="translate(1196.09375 0)"/>
      <use xlink:href="#DejaVuSans-20" transform="translate(1257.617188 0)"/>
      <use xlink:href="#DejaVuSans-74" transform="translate(1289.404297 0)"/>
      <use xlink:href="#DejaVuSans-72" transform="translate(1328.613281 0)"/>
      <use xlink:href="#DejaVuSans-61" transform="translate(1369.726562 0)"/>
      <use xlink:href="#DejaVuSans-66" transform="translate(1431.005859 0)"/>
      <use xlink:href="#DejaVuSans-66" transform="translate(1466.210938 0)"/>
      <use xlink:href="#DejaVuSans-69" transform="translate(1501.416016 0)"/>
      <use xlink:href="#DejaVuSans-63" transform="translate(1529.199219 0)"/>
     </g>
    </g>
   </g>
   <g id="line2d_17">
    <path d="M 73.832727 294.613478 
L 75.226094 294.465259 
L 75.574436 294.606398 
L 77.316145 294.579873 
L 78.361171 294.477125 
L 78.709512 294.363356 
L 79.754538 294.382229 
L 82.889614 294.314113 
L 83.934639 294.339058 
L 85.328006 294.271292 
L 88.114741 294.330049 
L 88.811424 294.404271 
L 91.249817 294.355882 
L 92.643184 294.269727 
L 93.339867 294.277594 
L 93.688209 294.043912 
L 95.77826 293.963753 
L 96.823285 293.967108 
L 97.868311 294.052452 
L 98.913336 294.009948 
L 99.958361 294.052701 
L 101.70007 294.023296 
L 102.745096 294.193532 
L 103.790121 294.146483 
L 104.486805 294.221963 
L 105.183488 294.29413 
L 105.53183 294.222136 
L 107.621881 294.418834 
L 109.36359 294.340954 
L 110.408615 294.16888 
L 111.45364 294.152536 
L 112.498666 294.113661 
L 115.2854 294.219313 
L 115.982083 294.283638 
L 116.678767 294.287996 
L 119.465501 294.134762 
L 119.813843 294.139888 
L 120.162185 294.030736 
L 120.858869 294.122037 
L 121.555552 293.952569 
L 121.903894 293.994698 
L 122.252236 293.890659 
L 122.600577 293.93621 
L 123.297261 293.8394 
L 124.342286 293.825619 
L 124.690628 293.945066 
L 126.083995 293.972047 
L 126.780679 293.984873 
L 127.129021 293.950951 
L 127.825704 293.748147 
L 128.174046 293.635189 
L 130.96078 293.703143 
L 131.309122 293.570006 
L 132.005806 293.566939 
L 133.399173 293.400701 
L 133.747515 293.466096 
L 136.534249 293.044139 
L 136.882591 293.140249 
L 138.972641 292.68057 
L 139.669325 292.695608 
L 140.71435 292.384575 
L 142.456059 291.952927 
L 143.501085 291.841961 
L 143.849426 291.932604 
L 145.591135 291.591671 
L 146.636161 291.254809 
L 146.984503 291.305775 
L 147.332844 291.003367 
L 148.029528 290.822379 
L 148.37787 290.869404 
L 149.074553 290.6816 
L 149.422895 290.823444 
L 150.119579 290.652133 
L 150.46792 290.609639 
L 151.164604 290.297348 
L 151.861288 290.241524 
L 152.209629 290.272474 
L 152.557971 290.182978 
L 152.906313 290.226538 
L 153.602996 290.038509 
L 154.648022 289.899962 
L 154.996364 289.718816 
L 156.041389 289.616072 
L 157.086414 289.117806 
L 157.434756 289.133319 
L 158.828123 288.707485 
L 159.176465 288.422107 
L 160.569832 288.085235 
L 161.266516 287.775113 
L 161.614858 287.851797 
L 161.963199 287.638338 
L 162.311541 287.600821 
L 164.05325 286.597986 
L 165.098275 286.065452 
L 165.794959 285.32747 
L 166.491643 284.436493 
L 166.839984 284.646977 
L 167.188326 284.68339 
L 168.233352 283.427917 
L 168.581693 283.277376 
L 168.930035 282.642785 
L 169.97506 282.264993 
L 170.323402 282.022436 
L 170.671744 282.066456 
L 171.716769 281.373479 
L 172.065111 281.226292 
L 172.413453 280.954095 
L 173.110137 280.889598 
L 173.458478 280.272974 
L 173.80682 280.264847 
L 174.155162 279.586913 
L 174.503504 279.235814 
L 175.200187 279.336584 
L 176.593554 278.248857 
L 176.941896 277.846494 
L 177.290238 278.093184 
L 178.683605 277.303736 
L 179.031947 277.011835 
L 179.380289 275.812307 
L 179.728631 276.039849 
L 180.425314 275.225312 
L 180.773656 275.19034 
L 181.121998 275.542471 
L 182.167023 274.74123 
L 182.515365 274.197661 
L 183.212048 274.23957 
L 183.56039 273.651414 
L 183.908732 273.610931 
L 184.257074 270.495011 
L 184.605416 272.545125 
L 184.953757 273.766412 
L 185.302099 273.172976 
L 185.650441 272.841351 
L 185.998783 272.787908 
L 186.347124 272.007417 
L 186.695466 271.762858 
L 187.740492 270.068826 
L 188.088833 268.962724 
L 189.133859 266.908358 
L 189.482201 267.812136 
L 189.830542 267.673825 
L 190.178884 267.698847 
L 190.527226 267.844848 
L 190.875568 268.117467 
L 191.223909 268.013457 
L 191.572251 266.0203 
L 191.920593 266.315114 
L 192.965618 265.26485 
L 193.31396 265.123491 
L 194.010644 265.185641 
L 194.358986 263.678986 
L 194.707327 263.624112 
L 195.404011 262.435096 
L 195.752353 262.840478 
L 196.100694 260.984658 
L 196.449036 261.423308 
L 196.797378 260.170519 
L 197.14572 259.570618 
L 197.494062 258.669844 
L 197.842403 259.295377 
L 198.190745 258.347819 
L 198.539087 256.771439 
L 198.887429 257.565787 
L 199.235771 257.792236 
L 199.584112 257.302916 
L 199.932454 255.861531 
L 200.280796 256.261921 
L 200.629138 254.989322 
L 200.97748 255.282476 
L 202.022505 252.696599 
L 203.06753 252.423614 
L 203.415872 251.419632 
L 203.764214 251.541806 
L 204.112556 251.16518 
L 204.460897 250.170121 
L 204.809239 249.91757 
L 205.505923 248.042219 
L 205.854265 247.907796 
L 206.202606 248.095537 
L 206.550948 247.610216 
L 206.89929 245.54277 
L 207.595973 246.755465 
L 207.944315 246.522512 
L 208.640999 246.452706 
L 208.989341 246.49378 
L 209.686024 246.244335 
L 210.034366 245.081118 
L 210.382708 245.026052 
L 210.73105 243.994456 
L 211.079391 243.991556 
L 211.427733 243.834847 
L 212.472758 240.884392 
L 212.8211 239.146608 
L 213.169442 240.33334 
L 213.517784 239.835933 
L 213.866126 238.807801 
L 214.214467 239.036655 
L 214.562809 236.841615 
L 214.911151 237.163656 
L 215.259493 236.894506 
L 215.607835 235.362886 
L 215.956176 235.34839 
L 216.304518 234.206735 
L 216.65286 234.481625 
L 217.001202 233.578634 
L 217.349544 233.098939 
L 217.697885 233.353784 
L 218.046227 232.735475 
L 218.394569 231.770876 
L 218.742911 232.079231 
L 219.091252 231.62175 
L 219.439594 230.103772 
L 219.787936 229.468975 
L 220.136278 229.528355 
L 220.48462 227.753223 
L 220.832961 228.068898 
L 221.529645 225.954628 
L 221.877987 223.844846 
L 222.226329 224.053371 
L 222.923012 222.867028 
L 223.271354 221.537761 
L 223.619696 221.715465 
L 223.968037 221.158385 
L 224.316379 219.056609 
L 224.664721 218.319193 
L 225.013063 214.834544 
L 225.361405 217.100138 
L 225.709746 216.689375 
L 226.058088 217.229675 
L 226.40643 216.595209 
L 227.103114 217.625635 
L 227.451455 217.420215 
L 227.799797 216.516951 
L 228.148139 216.788601 
L 228.844822 215.638175 
L 229.193164 214.684919 
L 229.541506 214.533744 
L 229.889848 213.889356 
L 230.23819 211.572143 
L 230.586531 212.299278 
L 230.934873 209.191906 
L 231.283215 209.432443 
L 231.631557 207.743393 
L 231.979899 206.702321 
L 233.024924 204.787586 
L 233.373266 203.220619 
L 233.721607 200.637132 
L 234.069949 201.289521 
L 235.463316 198.34712 
L 235.811658 197.863211 
L 236.16 197.881527 
L 236.508342 198.148133 
L 236.856684 197.232657 
L 237.205025 195.949613 
L 237.553367 197.099045 
L 237.901709 197.12123 
L 238.250051 198.145243 
L 238.598393 197.024583 
L 238.946734 195.282253 
L 239.295076 195.50551 
L 239.643418 194.753315 
L 241.385127 192.678438 
L 241.733469 192.583259 
L 242.08181 205.323518 
L 242.430152 190.965878 
L 242.778494 190.27675 
L 243.126836 186.795077 
L 243.475178 190.025255 
L 244.171861 189.553264 
L 244.520203 189.550979 
L 244.868545 189.118708 
L 245.216886 188.90568 
L 245.565228 190.089081 
L 245.91357 190.839312 
L 246.261912 190.656932 
L 246.610254 189.640532 
L 246.958595 189.713516 
L 248.003621 188.858837 
L 248.351963 186.57544 
L 248.700304 187.476703 
L 249.048646 185.058397 
L 249.396988 186.078104 
L 249.74533 184.048261 
L 250.093671 182.780841 
L 250.442013 183.528145 
L 250.790355 181.97386 
L 251.138697 180.941836 
L 251.487039 180.72239 
L 251.83538 181.566106 
L 252.183722 182.011165 
L 253.228748 179.731756 
L 253.577089 180.255957 
L 253.925431 181.011392 
L 254.273773 181.157878 
L 254.622115 179.429036 
L 254.970456 178.78509 
L 255.318798 177.53184 
L 256.015482 177.047542 
L 256.363824 177.178692 
L 256.712165 177.01338 
L 257.408849 175.29184 
L 257.757191 176.296216 
L 258.105533 173.11457 
L 258.453874 173.196405 
L 258.802216 172.808422 
L 259.150558 170.487897 
L 259.4989 169.791641 
L 259.847242 169.373151 
L 260.195583 169.376199 
L 260.543925 168.118139 
L 260.892267 168.032378 
L 261.58895 166.043248 
L 261.937292 167.356186 
L 262.285634 168.201855 
L 262.982318 166.187948 
L 263.330659 167.175697 
L 263.679001 166.995093 
L 264.027343 167.425046 
L 264.375685 165.904927 
L 264.724027 165.374539 
L 265.072368 166.523802 
L 265.42071 164.874069 
L 265.769052 165.006069 
L 266.117394 164.535484 
L 266.814077 164.353056 
L 267.162419 161.094313 
L 267.510761 160.999388 
L 267.859103 161.256576 
L 268.207444 162.04479 
L 268.904128 158.241916 
L 269.25247 156.56431 
L 269.600812 156.138504 
L 269.949153 156.284759 
L 270.297495 155.978578 
L 270.645837 154.312141 
L 270.994179 155.686375 
L 271.34252 154.223212 
L 271.690862 155.580986 
L 272.039204 154.607652 
L 272.387546 154.018474 
L 272.735888 153.969341 
L 273.084229 154.03572 
L 273.432571 152.766913 
L 273.780913 152.911076 
L 274.129255 154.284292 
L 274.477597 153.818991 
L 274.825938 154.382269 
L 275.17428 154.61249 
L 275.522622 152.852631 
L 275.870964 153.90662 
L 276.219306 154.189842 
L 276.567647 153.535783 
L 276.915989 153.136151 
L 277.264331 151.559728 
L 277.612673 151.892444 
L 277.961014 151.549341 
L 278.309356 151.663125 
L 278.657698 150.746406 
L 279.00604 150.345396 
L 279.354382 149.185064 
L 279.702723 148.677889 
L 280.051065 149.3949 
L 280.399407 149.608086 
L 280.747749 149.656048 
L 281.444432 148.005959 
L 281.792774 148.401535 
L 282.141116 147.198282 
L 282.489458 147.719055 
L 282.837799 147.494003 
L 283.186141 146.66174 
L 283.534483 146.86513 
L 283.882825 147.436855 
L 284.231167 147.176216 
L 284.579508 147.189838 
L 284.92785 145.027943 
L 285.624534 143.488749 
L 285.972876 143.742883 
L 286.321217 143.204787 
L 286.669559 141.413872 
L 287.017901 141.993205 
L 287.366243 139.423254 
L 287.714584 141.479968 
L 288.062926 139.777353 
L 288.411268 137.449902 
L 288.75961 138.13075 
L 289.456293 135.696859 
L 289.804635 135.790669 
L 290.152977 135.054967 
L 290.501319 136.899311 
L 290.849661 135.362804 
L 291.198002 135.938936 
L 291.546344 136.27696 
L 292.591369 133.919537 
L 292.939711 135.882272 
L 293.288053 135.921598 
L 293.636395 135.05394 
L 293.984737 135.545597 
L 294.333078 136.737628 
L 294.68142 135.810546 
L 295.029762 133.653455 
L 295.378104 137.234479 
L 295.726446 136.269842 
L 296.074787 134.873595 
L 296.423129 136.044871 
L 296.771471 136.1295 
L 297.119813 134.216776 
L 297.468155 133.264225 
L 297.816496 131.517979 
L 298.164838 132.369548 
L 298.51318 131.724388 
L 298.861522 131.923375 
L 299.209863 132.470031 
L 299.558205 131.074125 
L 299.906547 130.5018 
L 300.254889 131.536646 
L 300.603231 131.278719 
L 300.951572 129.039405 
L 301.299914 128.546827 
L 301.648256 127.022805 
L 301.996598 129.525456 
L 302.34494 130.355463 
L 302.693281 129.53951 
L 303.041623 129.383467 
L 303.389965 129.511435 
L 303.738307 125.097395 
L 304.086648 128.048205 
L 304.43499 126.347837 
L 305.131674 127.207998 
L 305.480016 123.027433 
L 305.828357 122.493148 
L 306.176699 120.811471 
L 306.525041 120.74454 
L 306.873383 122.265662 
L 307.221725 120.167986 
L 307.570066 119.755648 
L 307.918408 118.67237 
L 308.26675 118.280611 
L 308.615092 117.049815 
L 308.963433 117.233831 
L 309.311775 120.217867 
L 309.660117 118.608703 
L 310.008459 117.589817 
L 310.356801 119.527602 
L 310.705142 118.456007 
L 311.053484 118.078791 
L 311.401826 116.531662 
L 312.09851 118.994012 
L 312.446851 118.723586 
L 312.795193 119.109643 
L 313.143535 118.987326 
L 313.491877 117.600084 
L 313.840218 119.204054 
L 314.18856 117.276988 
L 314.536902 116.595497 
L 314.885244 116.524097 
L 315.581927 114.124992 
L 315.930269 111.447953 
L 316.278611 113.273682 
L 316.626953 116.683706 
L 316.975295 112.842615 
L 317.323636 112.662174 
L 317.671978 115.239758 
L 318.368662 111.809055 
L 318.717004 111.763196 
L 319.065345 112.487441 
L 319.413687 112.457887 
L 319.762029 113.012501 
L 320.110371 106.492418 
L 320.458712 105.796373 
L 320.807054 105.990739 
L 321.155396 104.658202 
L 321.503738 104.22114 
L 321.85208 101.903562 
L 322.200421 104.848373 
L 322.548763 105.996595 
L 322.897105 103.477369 
L 323.245447 105.137399 
L 323.593789 102.314412 
L 323.94213 100.877054 
L 324.290472 97.390038 
L 324.638814 98.328333 
L 324.987156 93.161805 
L 325.683839 96.783398 
L 326.032181 98.437206 
L 326.380523 96.930925 
L 326.728865 97.224756 
L 327.077206 97.856682 
L 327.425548 97.728024 
L 327.77389 99.564457 
L 328.122232 98.7084 
L 328.470574 97.366365 
L 328.818915 97.67591 
L 329.167257 96.300554 
L 329.515599 96.649992 
L 329.863941 94.967926 
L 330.212282 96.155335 
L 330.560624 99.359219 
L 330.908966 97.20318 
L 331.257308 93.934525 
L 331.60565 96.643377 
L 331.953991 95.069782 
L 332.302333 96.704174 
L 332.650675 95.228325 
L 332.999017 95.207339 
L 334.044042 89.525476 
L 334.392384 92.071193 
L 334.740726 91.876534 
L 335.089067 90.602265 
L 335.437409 90.977834 
L 335.785751 93.149383 
L 336.482435 91.273273 
L 336.830776 92.648294 
L 337.179118 91.874705 
L 337.52746 90.375725 
L 337.875802 90.404876 
L 338.572485 87.917623 
L 338.920827 89.002783 
L 339.269169 88.985181 
L 339.617511 86.623007 
L 339.965853 87.839859 
L 340.662536 87.635768 
L 341.010878 86.323781 
L 341.35922 87.821993 
L 341.707561 87.866086 
L 342.055903 85.229204 
L 342.404245 85.196909 
L 342.752587 83.949165 
L 343.100929 80.658819 
L 343.44927 82.072926 
L 344.145954 81.296947 
L 344.494296 81.157522 
L 344.842638 81.509572 
L 345.190979 80.289763 
L 345.539321 81.720929 
L 346.236005 78.146842 
L 346.584346 79.572445 
L 346.932688 81.506831 
L 347.28103 82.262803 
L 347.629372 78.69089 
L 347.977714 80.816824 
L 348.326055 79.714274 
L 348.674397 83.565013 
L 349.022739 81.035742 
L 349.371081 80.094015 
L 349.719423 82.234733 
L 350.067764 82.43123 
L 350.416106 83.570168 
L 350.764448 81.522282 
L 351.11279 83.704697 
L 351.461131 81.053396 
L 351.809473 80.729801 
L 352.157815 78.221769 
L 352.506157 81.373214 
L 352.854499 81.35926 
L 353.20284 80.603643 
L 353.551182 80.684287 
L 353.899524 79.316913 
L 354.247866 80.376398 
L 354.596208 77.801474 
L 354.944549 78.440792 
L 355.292891 78.442088 
L 355.641233 87.360975 
L 356.337917 87.360975 
L 356.686258 76.268966 
L 357.0346 76.218388 
L 357.382942 77.702095 
L 357.731284 77.293948 
L 358.079625 75.749709 
L 358.427967 76.132272 
L 358.776309 75.447411 
L 359.124651 73.15618 
L 359.472993 74.010763 
L 359.821334 69.369651 
L 360.169676 70.323003 
L 360.518018 68.978337 
L 360.86636 69.339349 
L 361.214702 68.138452 
L 361.563043 71.927679 
L 361.911385 69.040747 
L 362.95641 72.071937 
L 363.304752 70.783167 
L 363.653094 71.949144 
L 364.349778 69.791242 
L 364.698119 71.298503 
L 365.046461 71.985135 
L 365.394803 71.739909 
L 365.743145 75.751691 
L 366.091487 71.960079 
L 366.439828 72.465392 
L 366.78817 70.462058 
L 367.136512 72.722627 
L 367.484854 72.252004 
L 368.181537 71.984007 
L 368.529879 69.879821 
L 368.878221 71.247469 
L 369.226563 70.078852 
L 369.574904 69.910959 
L 369.923246 70.601627 
L 370.271588 67.422799 
L 370.61993 71.041229 
L 370.968272 72.61901 
L 371.664955 70.365785 
L 372.013297 69.807423 
L 372.361639 68.76351 
L 372.70998 68.425212 
L 373.058322 67.902086 
L 373.406664 65.685951 
L 373.755006 66.186848 
L 374.103348 65.465253 
L 374.451689 61.972501 
L 374.800031 62.982705 
L 375.148373 64.884441 
L 375.496715 63.630937 
L 375.845057 61.099198 
L 376.193398 67.229586 
L 376.54174 63.575972 
L 376.890082 65.967475 
L 377.586766 63.196438 
L 377.935107 63.037016 
L 378.283449 60.378064 
L 378.631791 62.514088 
L 378.980133 57.593544 
L 379.328474 61.246231 
L 379.676816 58.967255 
L 380.025158 57.603639 
L 380.3735 57.836932 
L 380.721842 56.624146 
L 381.070183 56.271031 
L 381.418525 59.705486 
L 381.766867 59.699962 
L 382.115209 60.134768 
L 382.463551 59.439462 
L 383.160234 56.364827 
L 383.508576 57.23165 
L 383.856918 57.045017 
L 384.205259 58.315183 
L 384.553601 58.818988 
L 384.901943 60.66636 
L 385.250285 58.778577 
L 385.598627 59.301621 
L 385.946968 59.529471 
L 386.29531 59.520985 
L 386.643652 61.553823 
L 386.991994 62.520928 
L 387.340336 60.065072 
L 387.688677 60.661556 
L 388.037019 60.47462 
L 388.385361 61.216155 
L 388.733703 59.190766 
L 389.082044 59.936241 
L 389.430386 57.550613 
L 389.778728 62.752829 
L 390.12707 62.006557 
L 390.475412 62.296922 
L 390.823753 60.692746 
L 391.172095 59.770891 
L 391.520437 56.683161 
L 391.868779 58.388387 
L 392.217121 57.967323 
L 392.913804 54.987531 
L 393.262146 57.034616 
L 393.958829 54.722539 
L 394.307171 53.568 
L 395.352197 57.268691 
L 395.700538 56.770022 
L 396.04888 58.098444 
L 396.397222 54.3406 
L 396.745564 54.098014 
L 397.093906 54.014873 
L 397.790589 55.227645 
L 398.138931 54.305752 
L 398.487273 59.595956 
L 398.487273 59.595956 
" clip-path="url(#p64191c0783)" style="fill: none; stroke: #1f77b4; stroke-width: 1.5; stroke-linecap: square"/>
   </g>
   <g id="line2d_18">
    <path d="M 73.832727 294.842859 
L 75.574436 294.822973 
L 83.237956 294.599222 
L 84.282981 294.565363 
L 84.979664 294.533649 
L 88.811424 294.590169 
L 93.688209 294.517713 
L 94.036551 294.345879 
L 107.621881 294.518097 
L 109.36359 294.51911 
L 110.408615 294.368247 
L 111.801982 294.345572 
L 113.892033 294.312318 
L 114.240375 294.374204 
L 114.588716 294.276481 
L 118.072134 294.418383 
L 119.465501 294.3209 
L 120.858869 294.238763 
L 121.903894 294.069515 
L 122.948919 294.067533 
L 123.993945 293.949996 
L 124.690628 294.036228 
L 125.735654 294.097115 
L 127.477362 293.986053 
L 128.174046 293.828163 
L 129.219071 293.929798 
L 133.747515 293.60843 
L 134.095856 293.704036 
L 138.972641 293.10604 
L 140.366009 292.873337 
L 141.062692 292.879884 
L 142.107718 292.516492 
L 143.501085 292.261542 
L 143.849426 292.371759 
L 145.591135 292.185131 
L 147.681186 291.754174 
L 148.029528 291.61077 
L 148.726211 291.547938 
L 149.771237 291.314122 
L 150.46792 291.363696 
L 151.164604 291.128953 
L 151.861288 291.035608 
L 152.209629 290.82103 
L 153.254655 291.065258 
L 154.648022 290.638674 
L 154.996364 290.654288 
L 155.344705 290.499835 
L 156.389731 290.420913 
L 156.738073 290.200671 
L 158.479782 289.83929 
L 159.176465 289.704291 
L 159.873149 289.422691 
L 160.569832 289.330939 
L 161.266516 288.954525 
L 161.614858 289.080884 
L 162.659883 288.636306 
L 163.356567 288.265743 
L 163.704908 287.984949 
L 164.401592 287.789887 
L 164.749934 287.879512 
L 165.446617 287.742473 
L 166.491643 286.69386 
L 166.839984 286.441967 
L 167.188326 286.511216 
L 167.536668 286.376073 
L 168.581693 285.588709 
L 168.930035 285.455481 
L 169.626719 284.819407 
L 169.97506 284.732254 
L 170.323402 283.531813 
L 170.671744 283.643892 
L 171.020086 284.443593 
L 171.368428 284.356751 
L 172.065111 283.743117 
L 172.413453 284.29763 
L 172.761795 283.57964 
L 173.110137 283.53548 
L 173.458478 283.31231 
L 173.80682 282.790331 
L 174.155162 282.816856 
L 174.851845 282.017381 
L 175.200187 282.041492 
L 175.548529 281.862865 
L 175.896871 281.214379 
L 176.245213 281.433349 
L 176.593554 280.942513 
L 176.941896 281.089747 
L 177.290238 280.912556 
L 177.63858 280.984868 
L 177.986922 280.431819 
L 178.335263 280.453136 
L 178.683605 279.888913 
L 179.031947 279.986938 
L 179.728631 278.796069 
L 180.076972 278.560404 
L 180.425314 278.485457 
L 180.773656 278.212132 
L 181.121998 278.185041 
L 181.470339 278.289666 
L 181.818681 278.269823 
L 182.863707 277.879086 
L 183.212048 278.006304 
L 183.908732 277.677549 
L 184.257074 277.110758 
L 184.605416 275.838548 
L 184.953757 276.78819 
L 185.302099 277.100817 
L 185.650441 276.772619 
L 185.998783 276.962996 
L 186.347124 276.488047 
L 187.043808 275.873933 
L 187.39215 275.265123 
L 187.740492 274.883309 
L 188.088833 274.083441 
L 188.437175 271.71615 
L 188.785517 270.199861 
L 189.133859 272.446101 
L 189.482201 273.038452 
L 189.830542 273.054743 
L 190.178884 273.291498 
L 190.527226 273.274448 
L 190.875568 273.591304 
L 191.223909 272.937418 
L 191.572251 273.052396 
L 191.920593 271.831143 
L 192.268935 271.457949 
L 192.617277 271.670123 
L 193.31396 270.452287 
L 193.662302 270.781911 
L 194.010644 270.75013 
L 194.358986 270.357665 
L 194.707327 269.788032 
L 195.055669 269.491653 
L 195.404011 269.533662 
L 196.100694 267.767947 
L 196.449036 267.248599 
L 196.797378 266.969505 
L 197.14572 265.952212 
L 197.494062 265.59987 
L 198.539087 263.548556 
L 198.887429 263.896818 
L 199.584112 263.554292 
L 200.280796 262.896647 
L 200.629138 263.182548 
L 201.325821 262.820001 
L 202.022505 261.912872 
L 203.06753 261.44919 
L 203.415872 261.452228 
L 203.764214 260.501161 
L 204.112556 260.405363 
L 204.460897 260.431427 
L 204.809239 259.944339 
L 205.854265 257.532667 
L 206.202606 257.077764 
L 206.550948 254.882557 
L 206.89929 251.785419 
L 207.247632 256.380759 
L 207.595973 257.382111 
L 207.944315 257.102522 
L 208.292657 256.609492 
L 208.640999 256.676587 
L 208.989341 256.930505 
L 209.686024 255.893168 
L 210.382708 255.419842 
L 210.73105 255.03701 
L 211.079391 253.943844 
L 211.427733 253.690257 
L 211.776075 253.628284 
L 212.472758 252.660973 
L 212.8211 251.511153 
L 213.169442 250.79456 
L 213.517784 251.246175 
L 214.214467 249.833796 
L 214.562809 248.5345 
L 214.911151 248.156583 
L 215.259493 247.971755 
L 215.956176 245.888152 
L 216.304518 244.265467 
L 216.65286 244.97608 
L 217.001202 244.842132 
L 217.697885 243.474551 
L 218.046227 243.33346 
L 218.394569 243.433228 
L 218.742911 244.559307 
L 219.091252 243.981923 
L 219.439594 244.240315 
L 219.787936 243.627329 
L 220.136278 243.693963 
L 220.832961 242.083829 
L 221.181303 241.07618 
L 221.529645 241.269868 
L 222.226329 238.542497 
L 222.57467 239.188761 
L 222.923012 238.686501 
L 223.271354 237.497864 
L 223.619696 237.409611 
L 223.968037 236.611855 
L 224.316379 236.157638 
L 224.664721 232.989389 
L 225.013063 225.679013 
L 225.361405 230.941637 
L 225.709746 233.747699 
L 226.058088 234.044121 
L 226.754772 233.735214 
L 227.103114 233.820961 
L 227.451455 233.781683 
L 227.799797 232.908264 
L 228.148139 232.690278 
L 228.496481 232.96235 
L 229.193164 231.940512 
L 229.889848 230.105812 
L 230.23819 228.096282 
L 230.586531 228.772301 
L 230.934873 228.672188 
L 231.283215 225.02768 
L 231.631557 225.826987 
L 232.32824 223.395328 
L 232.676582 221.055651 
L 233.024924 220.97133 
L 233.373266 220.650917 
L 234.069949 216.575453 
L 234.418291 216.305065 
L 234.766633 215.703311 
L 235.114975 215.409437 
L 235.811658 213.083565 
L 236.16 212.884188 
L 236.508342 212.815314 
L 236.856684 213.835045 
L 237.205025 213.952491 
L 237.901709 215.421077 
L 238.598393 215.902006 
L 238.946734 213.839245 
L 239.295076 213.318999 
L 239.643418 213.768891 
L 239.99176 212.850526 
L 240.340101 211.160752 
L 240.688443 212.631513 
L 241.036785 213.214537 
L 241.385127 211.474421 
L 241.733469 211.260385 
L 242.08181 210.280417 
L 242.430152 205.323518 
L 242.778494 207.308381 
L 243.126836 199.110715 
L 243.823519 208.844585 
L 244.171861 207.581543 
L 244.520203 208.908554 
L 244.868545 208.415957 
L 245.216886 208.334127 
L 245.565228 207.048947 
L 245.91357 209.218431 
L 246.261912 209.819225 
L 246.610254 209.25673 
L 246.958595 208.024619 
L 247.306937 207.604573 
L 247.655279 206.642806 
L 248.003621 206.575823 
L 248.351963 208.278231 
L 248.700304 207.305179 
L 249.048646 205.921466 
L 249.396988 203.976769 
L 249.74533 203.791869 
L 250.093671 202.987676 
L 250.442013 203.085913 
L 250.790355 201.015716 
L 251.138697 200.967961 
L 251.487039 199.543169 
L 251.83538 199.316351 
L 252.183722 198.881564 
L 252.532064 197.520238 
L 253.228748 197.531489 
L 253.925431 196.980663 
L 254.273773 197.799433 
L 254.622115 196.41139 
L 254.970456 195.672434 
L 255.318798 198.318393 
L 255.66714 198.449907 
L 256.015482 198.324714 
L 256.363824 198.404619 
L 256.712165 198.337919 
L 257.060507 197.013068 
L 257.408849 197.329002 
L 257.757191 197.864056 
L 258.105533 197.273524 
L 258.453874 194.562895 
L 258.802216 195.305788 
L 259.150558 194.93533 
L 259.4989 192.053808 
L 259.847242 193.463623 
L 260.892267 189.704127 
L 261.240609 177.950197 
L 261.58895 182.458686 
L 261.937292 189.239499 
L 262.285634 190.484008 
L 262.982318 189.281782 
L 263.330659 188.102749 
L 263.679001 188.984222 
L 264.027343 188.7341 
L 264.375685 189.661758 
L 264.724027 187.567533 
L 265.072368 189.417285 
L 265.769052 187.496522 
L 266.117394 187.469546 
L 266.465735 188.043398 
L 266.814077 185.642823 
L 267.162419 185.236913 
L 267.510761 183.227033 
L 267.859103 185.07284 
L 268.207444 186.246776 
L 268.555786 183.992303 
L 269.25247 177.705076 
L 269.600812 179.079147 
L 269.949153 177.947216 
L 270.297495 177.329027 
L 270.645837 175.860786 
L 270.994179 176.471281 
L 271.34252 176.641949 
L 271.690862 176.488541 
L 272.039204 176.000364 
L 272.387546 175.221784 
L 272.735888 173.048733 
L 273.084229 175.794354 
L 273.432571 176.571653 
L 273.780913 176.717884 
L 274.129255 177.953346 
L 274.477597 178.638974 
L 275.17428 178.384417 
L 275.522622 178.860767 
L 275.870964 178.585944 
L 276.219306 179.209053 
L 276.915989 176.694921 
L 277.264331 178.27733 
L 277.612673 177.739747 
L 277.961014 176.401729 
L 278.309356 176.549539 
L 278.657698 175.905133 
L 279.00604 173.898718 
L 279.354382 162.806316 
L 279.702723 162.511007 
L 280.051065 173.368441 
L 280.399407 174.890821 
L 280.747749 175.202502 
L 281.096091 174.154672 
L 281.444432 172.739471 
L 282.141116 171.153683 
L 282.489458 171.108774 
L 282.837799 171.6349 
L 283.186141 171.258001 
L 283.534483 162.7917 
L 283.882825 159.096624 
L 284.231167 157.657721 
L 284.579508 158.730544 
L 285.624534 154.971207 
L 285.972876 155.235076 
L 286.321217 157.226092 
L 286.669559 155.401587 
L 287.017901 154.705264 
L 287.366243 156.334324 
L 287.714584 157.229956 
L 288.411268 154.413632 
L 288.75961 151.73235 
L 289.107952 151.529532 
L 289.456293 150.074303 
L 289.804635 151.331259 
L 290.152977 151.158455 
L 290.501319 152.151748 
L 290.849661 151.19997 
L 291.198002 151.207904 
L 291.546344 152.046542 
L 291.894686 153.529543 
L 292.243028 152.820903 
L 292.591369 154.522505 
L 293.288053 154.6426 
L 293.636395 155.299348 
L 293.984737 154.102675 
L 294.333078 154.271581 
L 294.68142 153.325266 
L 295.029762 151.612485 
L 295.378104 153.565754 
L 295.726446 153.958839 
L 296.074787 153.767766 
L 296.423129 155.962863 
L 296.771471 154.124126 
L 297.468155 146.690434 
L 297.816496 140.777515 
L 298.51318 149.62384 
L 298.861522 148.969113 
L 299.209863 149.785815 
L 299.558205 148.774042 
L 300.254889 147.907718 
L 300.603231 148.036276 
L 300.951572 149.509039 
L 301.299914 149.144639 
L 301.648256 148.960574 
L 301.996598 147.229957 
L 302.34494 150.065529 
L 303.041623 147.39545 
L 303.389965 149.40859 
L 303.738307 148.239185 
L 304.086648 145.196211 
L 304.43499 145.495178 
L 304.783332 143.685423 
L 305.131674 142.624973 
L 305.480016 144.289932 
L 305.828357 144.626554 
L 306.525041 137.968477 
L 306.873383 137.855125 
L 307.221725 137.525741 
L 307.570066 136.851392 
L 307.918408 134.403202 
L 308.26675 135.694804 
L 308.615092 134.472874 
L 308.963433 134.566474 
L 309.311775 135.673632 
L 309.660117 138.382244 
L 310.008459 139.010302 
L 310.356801 139.055398 
L 310.705142 140.414161 
L 311.053484 138.440535 
L 311.750168 139.495402 
L 312.09851 139.741425 
L 312.446851 139.539783 
L 312.795193 139.141687 
L 313.143535 141.282074 
L 313.491877 140.297267 
L 313.840218 140.768198 
L 314.18856 139.368793 
L 314.536902 140.338605 
L 315.233586 137.951744 
L 315.581927 133.194246 
L 315.930269 122.054204 
L 316.626953 133.190003 
L 316.975295 133.495781 
L 317.323636 135.056882 
L 317.671978 133.579469 
L 318.02032 136.069457 
L 318.368662 135.189755 
L 318.717004 132.096515 
L 319.065345 133.790389 
L 319.413687 133.784586 
L 319.762029 135.860754 
L 320.110371 132.338737 
L 320.458712 126.377885 
L 320.807054 126.518946 
L 321.155396 135.906502 
L 321.503738 125.367921 
L 322.200421 122.244739 
L 322.548763 125.572943 
L 322.897105 125.412326 
L 323.245447 124.200538 
L 323.593789 121.413441 
L 323.94213 121.991992 
L 324.638814 115.129896 
L 324.987156 115.822912 
L 325.335497 115.621279 
L 325.683839 113.413347 
L 326.032181 113.331152 
L 326.380523 114.151512 
L 326.728865 113.02069 
L 327.077206 113.778265 
L 327.425548 113.870151 
L 327.77389 116.879132 
L 328.122232 117.629436 
L 328.818915 120.338169 
L 329.167257 118.477645 
L 329.515599 119.502877 
L 329.863941 119.621595 
L 330.212282 117.050338 
L 330.560624 119.937995 
L 330.908966 120.739999 
L 331.257308 117.947339 
L 331.60565 117.191937 
L 331.953991 119.25802 
L 332.302333 116.081419 
L 332.650675 119.17439 
L 332.999017 119.447336 
L 333.347359 115.506929 
L 334.044042 102.694498 
L 334.740726 113.719341 
L 335.089067 113.652016 
L 335.437409 114.179692 
L 335.785751 113.149502 
L 336.134093 113.27001 
L 336.482435 113.922082 
L 337.179118 111.829796 
L 337.52746 114.56934 
L 338.224144 108.005198 
L 338.572485 111.360781 
L 338.920827 107.487525 
L 339.269169 109.906723 
L 339.617511 110.500884 
L 339.965853 109.333688 
L 340.314194 106.461482 
L 340.662536 110.811855 
L 341.010878 110.667832 
L 341.35922 107.568582 
L 341.707561 108.09394 
L 342.055903 107.57032 
L 342.404245 103.371333 
L 343.100929 99.233892 
L 343.44927 99.557746 
L 343.797612 99.39951 
L 344.145954 98.376155 
L 344.494296 99.638194 
L 344.842638 98.296658 
L 345.190979 99.201022 
L 345.539321 97.941042 
L 346.584346 104.241588 
L 346.932688 103.279058 
L 347.28103 104.781187 
L 347.629372 104.363287 
L 347.977714 103.751794 
L 348.326055 103.478209 
L 348.674397 105.455575 
L 349.022739 106.077244 
L 349.371081 103.575294 
L 349.719423 104.431346 
L 350.067764 106.688286 
L 350.416106 104.364554 
L 350.764448 105.911827 
L 351.11279 106.402476 
L 351.461131 105.034324 
L 351.809473 100.57862 
L 352.157815 89.540131 
L 352.854499 101.510483 
L 353.20284 101.511342 
L 353.551182 103.846339 
L 353.899524 102.911025 
L 354.596208 99.907813 
L 354.944549 99.243103 
L 355.292891 101.493198 
L 355.641233 87.360975 
L 356.337917 87.360975 
L 356.686258 98.001286 
L 357.0346 96.82737 
L 357.382942 97.258696 
L 357.731284 101.596911 
L 358.079625 100.939074 
L 358.427967 97.55365 
L 358.776309 98.458287 
L 359.124651 97.250018 
L 359.472993 98.087792 
L 359.821334 95.354228 
L 360.169676 90.393288 
L 360.518018 91.109771 
L 360.86636 87.206535 
L 361.214702 88.005948 
L 361.563043 87.664093 
L 361.911385 88.187003 
L 362.259727 88.04008 
L 362.608069 87.397666 
L 362.95641 88.953972 
L 363.304752 88.756986 
L 363.653094 88.776882 
L 364.001436 92.168675 
L 364.349778 92.935577 
L 364.698119 94.247997 
L 365.046461 95.072321 
L 366.091487 94.594214 
L 366.439828 94.962944 
L 366.78817 94.588608 
L 367.136512 95.058027 
L 367.484854 96.114732 
L 367.833195 93.648878 
L 368.181537 95.233067 
L 368.529879 96.218829 
L 368.878221 91.116064 
L 369.226563 95.088137 
L 369.574904 93.531168 
L 369.923246 89.245777 
L 370.271588 80.697574 
L 370.61993 79.184021 
L 370.968272 91.505789 
L 371.316613 94.248875 
L 371.664955 91.986617 
L 372.013297 90.625799 
L 372.361639 91.952316 
L 373.058322 89.880732 
L 373.406664 90.542164 
L 373.755006 87.526435 
L 374.103348 88.368763 
L 374.451689 86.84311 
L 375.148373 82.934954 
L 375.496715 85.263096 
L 375.845057 84.123438 
L 376.193398 85.373885 
L 376.54174 85.281643 
L 376.890082 88.42943 
L 377.238424 87.658588 
L 377.935107 82.014332 
L 378.283449 81.517468 
L 378.631791 82.487653 
L 378.980133 81.123317 
L 379.328474 77.576744 
L 379.676816 76.680823 
L 380.025158 77.561907 
L 380.3735 73.244217 
L 380.721842 74.893028 
L 381.070183 74.684244 
L 381.418525 74.811385 
L 381.766867 75.301636 
L 382.463551 80.521487 
L 382.811892 81.835759 
L 383.856918 79.428061 
L 384.205259 80.987204 
L 384.553601 80.318217 
L 384.901943 81.882155 
L 385.250285 84.312739 
L 385.598627 81.839013 
L 385.946968 83.901208 
L 386.29531 82.957874 
L 386.643652 85.335845 
L 386.991994 81.072423 
L 387.340336 84.865975 
L 387.688677 82.25999 
L 388.037019 80.556973 
L 388.733703 67.668827 
L 389.082044 80.593155 
L 389.430386 81.599566 
L 389.778728 80.090809 
L 390.12707 82.234301 
L 390.823753 83.665117 
L 391.172095 75.765242 
L 391.520437 82.630299 
L 391.868779 84.025984 
L 392.217121 79.279132 
L 392.565462 78.35831 
L 392.913804 79.684687 
L 393.262146 77.828114 
L 393.610488 77.042967 
L 393.958829 76.880627 
L 394.307171 78.543085 
L 394.655513 77.446371 
L 395.003855 75.518945 
L 395.352197 77.752941 
L 395.700538 76.903009 
L 396.04888 74.026392 
L 396.397222 75.956516 
L 396.745564 73.337859 
L 397.093906 73.599741 
L 397.442247 73.257364 
L 397.790589 70.151394 
L 398.138931 71.386117 
L 398.487273 69.844258 
L 398.487273 69.844258 
" clip-path="url(#p64191c0783)" style="fill: none; stroke: #ff7f0e; stroke-width: 1.5; stroke-linecap: square"/>
   </g>
   <g id="line2d_19">
    <path d="M 73.832727 295.258619 
L 81.496247 295.220656 
L 81.844588 295.267878 
L 82.541272 295.183312 
L 84.631323 295.253953 
L 93.339867 295.230337 
L 93.688209 295.014199 
L 94.036551 295.186552 
L 119.813843 295.309225 
L 120.162185 295.235876 
L 120.858869 295.371274 
L 123.645603 295.350788 
L 126.083995 295.367161 
L 126.432337 295.42128 
L 127.477362 295.295295 
L 127.825704 295.379789 
L 128.87073 295.233995 
L 129.567413 295.352401 
L 129.915755 295.24528 
L 130.96078 295.38926 
L 131.309122 295.260126 
L 132.354147 295.241896 
L 132.702489 295.113587 
L 133.747515 295.345666 
L 134.444198 295.112608 
L 134.79254 295.189993 
L 135.140882 295.084893 
L 136.882591 295.271622 
L 137.927616 294.908508 
L 138.275958 295.096691 
L 138.6243 295.008837 
L 139.669325 295.177288 
L 140.017667 295.0485 
L 140.366009 295.091071 
L 141.062692 294.886304 
L 141.411034 294.93439 
L 142.107718 294.859894 
L 142.456059 294.988798 
L 143.152743 294.847885 
L 143.501085 295.06842 
L 146.984503 294.834133 
L 147.332844 294.640482 
L 147.681186 294.591316 
L 148.37787 294.754367 
L 149.074553 294.7147 
L 149.422895 294.950657 
L 150.816262 294.661449 
L 151.861288 294.693916 
L 152.209629 294.939444 
L 153.254655 294.527856 
L 153.951338 294.601559 
L 154.29968 294.547608 
L 154.648022 294.749288 
L 154.996364 294.552528 
L 155.693047 294.80193 
L 156.738073 294.457469 
L 157.783098 294.546892 
L 158.13144 294.355095 
L 158.479782 294.478838 
L 159.176465 294.205816 
L 159.524807 294.341746 
L 159.873149 294.245334 
L 160.22149 294.309303 
L 160.918174 294.265643 
L 161.614858 294.258913 
L 161.963199 294.161262 
L 162.311541 294.268403 
L 163.356567 294.114194 
L 163.704908 294.293756 
L 164.401592 294.155545 
L 164.749934 293.901171 
L 165.098275 293.785141 
L 165.446617 293.503512 
L 166.143301 293.463638 
L 166.491643 293.230633 
L 166.839984 293.69301 
L 167.188326 293.660173 
L 167.536668 293.394907 
L 167.88501 293.346711 
L 168.233352 292.985988 
L 168.581693 293.176667 
L 168.930035 292.675304 
L 169.626719 293.113422 
L 169.97506 293.02074 
L 170.323402 293.978623 
L 170.671744 293.910564 
L 171.020086 292.845872 
L 171.368428 292.728944 
L 171.716769 292.770565 
L 172.065111 292.971175 
L 172.413453 292.144465 
L 172.761795 292.837899 
L 173.110137 292.842118 
L 173.458478 292.448664 
L 173.80682 292.962516 
L 174.155162 292.258057 
L 174.503504 292.363517 
L 174.851845 292.756112 
L 175.548529 292.710719 
L 175.896871 292.972562 
L 176.245213 292.535207 
L 176.593554 292.794344 
L 176.941896 292.244746 
L 177.290238 292.668628 
L 177.63858 292.418736 
L 177.986922 292.773354 
L 178.335263 292.597276 
L 178.683605 292.902823 
L 179.380289 292.004157 
L 179.728631 292.731781 
L 180.076972 292.613673 
L 180.425314 292.227855 
L 180.773656 292.466208 
L 181.121998 292.84543 
L 181.818681 292.229012 
L 182.167023 292.118713 
L 182.515365 291.637645 
L 182.863707 291.870348 
L 183.212048 291.721266 
L 183.56039 291.307844 
L 183.908732 291.421382 
L 184.257074 288.872253 
L 184.605416 292.194577 
L 184.953757 292.466222 
L 185.302099 291.560159 
L 185.650441 291.556732 
L 186.347124 291.00737 
L 186.695466 291.047061 
L 187.043808 290.790392 
L 187.39215 290.906301 
L 188.088833 290.367283 
L 188.437175 292.103243 
L 188.785517 292.762405 
L 189.133859 289.950256 
L 189.482201 290.261684 
L 190.178884 289.895349 
L 190.527226 290.0584 
L 190.875568 290.014163 
L 191.223909 290.564039 
L 191.572251 288.455903 
L 191.920593 289.971971 
L 192.268935 289.964891 
L 192.617277 289.34881 
L 192.965618 289.668757 
L 193.31396 290.159204 
L 193.662302 289.850062 
L 194.010644 289.923511 
L 194.358986 288.809321 
L 194.707327 289.32408 
L 195.055669 288.957607 
L 195.404011 288.389433 
L 195.752353 289.702381 
L 196.100694 288.70471 
L 196.449036 289.662709 
L 196.797378 288.689014 
L 197.14572 289.106406 
L 197.494062 288.557975 
L 197.842403 289.891529 
L 198.190745 289.602733 
L 198.539087 288.710883 
L 199.235771 289.517999 
L 199.584112 289.236624 
L 199.932454 288.177543 
L 200.280796 288.853274 
L 200.629138 287.294774 
L 200.97748 287.78321 
L 201.325821 286.992851 
L 202.022505 286.271726 
L 202.719188 286.408363 
L 203.06753 286.462425 
L 203.415872 285.455404 
L 203.764214 286.528645 
L 204.112556 286.247818 
L 204.460897 285.226694 
L 204.809239 285.461231 
L 205.157581 285.231398 
L 205.505923 285.332913 
L 206.202606 286.505773 
L 206.550948 288.21566 
L 206.89929 289.245351 
L 207.247632 285.241166 
L 207.595973 284.861354 
L 207.944315 284.90799 
L 208.292657 285.338016 
L 208.640999 285.26412 
L 208.989341 285.051274 
L 209.686024 285.839167 
L 210.034366 284.859741 
L 210.382708 285.09421 
L 210.73105 284.445445 
L 211.079391 285.535712 
L 211.427733 285.63259 
L 211.776075 284.651868 
L 212.472758 283.711418 
L 212.8211 283.123455 
L 213.169442 285.02678 
L 213.517784 284.077757 
L 213.866126 283.778517 
L 214.214467 284.690859 
L 214.562809 283.795116 
L 214.911151 284.495072 
L 215.259493 284.410751 
L 215.607835 283.989735 
L 215.956176 284.948238 
L 216.304518 285.429268 
L 216.65286 284.993545 
L 217.001202 284.224502 
L 217.349544 284.561307 
L 217.697885 285.367233 
L 218.046227 284.890014 
L 218.742911 283.007924 
L 219.091252 283.127827 
L 219.439594 281.351457 
L 220.136278 281.322393 
L 220.48462 280.23671 
L 220.832961 281.473069 
L 221.181303 281.290569 
L 221.529645 280.17276 
L 221.877987 279.580735 
L 222.226329 280.998874 
L 222.57467 279.749944 
L 223.271354 279.527897 
L 223.968037 280.03453 
L 224.316379 278.386971 
L 224.664721 280.817805 
L 225.013063 284.643531 
L 225.709746 278.429677 
L 226.058088 278.673554 
L 226.40643 278.16598 
L 226.754772 278.855684 
L 227.103114 279.292674 
L 227.451455 279.126533 
L 227.799797 279.096686 
L 228.148139 279.586322 
L 228.496481 278.780742 
L 228.844822 278.691568 
L 229.193164 278.232407 
L 229.541506 279.134448 
L 229.889848 279.271545 
L 230.23819 278.963861 
L 230.586531 279.014976 
L 230.934873 276.007718 
L 231.283215 279.892763 
L 231.631557 277.404406 
L 231.979899 277.449012 
L 232.32824 278.168169 
L 232.676582 280.075488 
L 233.024924 279.304257 
L 233.373266 278.057702 
L 233.721607 277.592441 
L 234.069949 280.202068 
L 234.418291 279.717347 
L 234.766633 279.725637 
L 235.114975 278.911609 
L 235.463316 279.754091 
L 235.811658 280.267646 
L 236.508342 280.820819 
L 237.205025 277.485123 
L 237.553367 277.769425 
L 237.901709 277.188153 
L 238.250051 278.017853 
L 238.598393 276.610576 
L 238.946734 276.931008 
L 239.295076 277.674511 
L 239.643418 276.472423 
L 239.99176 276.952047 
L 240.340101 278.204308 
L 240.688443 276.413585 
L 241.036785 275.446855 
L 241.385127 276.692018 
L 241.733469 276.810875 
L 242.08181 290.531102 
L 242.430152 281.13036 
L 242.778494 278.456369 
L 243.126836 283.172362 
L 243.475178 281.958803 
L 243.823519 276.403501 
L 244.171861 277.459721 
L 244.520203 276.130425 
L 244.868545 276.190751 
L 245.216886 276.059553 
L 245.565228 278.528134 
L 245.91357 277.108881 
L 246.261912 276.325707 
L 246.610254 275.871802 
L 246.958595 277.176897 
L 247.306937 277.323493 
L 247.655279 277.981853 
L 248.003621 277.771014 
L 248.351963 273.785209 
L 248.700304 275.659523 
L 249.048646 274.624931 
L 249.396988 277.589335 
L 249.74533 275.744392 
L 250.093671 275.281165 
L 250.790355 276.446144 
L 251.138697 275.461875 
L 251.83538 277.737755 
L 252.532064 279.21911 
L 253.228748 277.688267 
L 253.925431 279.518729 
L 254.273773 278.846444 
L 254.622115 278.505646 
L 254.970456 278.600657 
L 255.318798 274.701448 
L 255.66714 274.261151 
L 256.712165 274.163461 
L 257.060507 274.634819 
L 257.408849 273.450838 
L 257.757191 273.92016 
L 258.105533 271.329046 
L 258.453874 274.12151 
L 258.802216 272.990635 
L 259.150558 271.040567 
L 259.4989 273.225834 
L 259.847242 271.397527 
L 260.195583 272.602298 
L 260.543925 272.640755 
L 260.892267 273.81625 
L 261.240609 284.426375 
L 261.937292 273.604686 
L 262.982318 272.394166 
L 263.330659 274.560948 
L 263.679001 273.498871 
L 264.027343 274.178946 
L 264.375685 271.731169 
L 264.724027 273.295006 
L 265.42071 272.025191 
L 265.769052 272.997547 
L 266.465735 271.936382 
L 266.814077 274.198232 
L 267.162419 271.345399 
L 267.510761 273.260355 
L 267.859103 271.671736 
L 268.207444 271.286014 
L 268.555786 271.37562 
L 269.25247 274.347233 
L 269.600812 272.547357 
L 269.949153 273.825543 
L 270.297495 274.137551 
L 270.645837 273.939355 
L 270.994179 274.703094 
L 271.34252 273.069263 
L 271.690862 274.580445 
L 272.039204 274.095287 
L 272.387546 274.28469 
L 272.735888 276.408608 
L 273.432571 271.68326 
L 273.780913 271.681191 
L 274.129255 271.818946 
L 274.477597 270.668017 
L 274.825938 271.345812 
L 275.17428 271.716073 
L 275.522622 269.479864 
L 275.870964 270.808676 
L 276.219306 270.468789 
L 276.915989 271.92923 
L 277.264331 268.770399 
L 277.961014 270.635612 
L 278.309356 270.601585 
L 278.657698 270.329273 
L 279.00604 271.934678 
L 279.354382 281.866749 
L 279.702723 281.654882 
L 280.051065 271.514459 
L 280.399407 270.205266 
L 280.747749 269.941545 
L 281.096091 270.238222 
L 281.444432 270.754489 
L 281.792774 272.050545 
L 282.141116 271.532599 
L 282.489458 272.098281 
L 282.837799 271.347103 
L 283.186141 270.891739 
L 283.534483 279.56143 
L 283.882825 283.828231 
L 284.231167 285.006495 
L 284.92785 282.950027 
L 285.624534 284.005542 
L 285.972876 283.995807 
L 286.321217 281.466694 
L 286.669559 281.500285 
L 287.017901 282.775941 
L 287.366243 278.57693 
L 287.714584 279.738011 
L 288.062926 279.361016 
L 288.411268 278.52427 
L 288.75961 281.8864 
L 289.107952 280.635958 
L 289.456293 281.110555 
L 289.804635 279.94741 
L 290.152977 279.384512 
L 290.501319 280.235563 
L 290.849661 279.650834 
L 291.198002 280.219031 
L 291.546344 279.718418 
L 291.894686 277.500948 
L 292.243028 277.582385 
L 292.591369 274.885032 
L 292.939711 276.753117 
L 293.288053 276.766998 
L 293.636395 275.242592 
L 293.984737 276.930922 
L 294.333078 277.954047 
L 294.68142 277.97328 
L 295.029762 277.52897 
L 295.378104 279.156724 
L 296.074787 276.593829 
L 296.423129 275.570008 
L 297.119813 278.874078 
L 297.816496 286.228464 
L 298.51318 277.588548 
L 298.861522 278.442262 
L 299.906547 277.712104 
L 300.254889 279.116928 
L 300.603231 278.730443 
L 300.951572 275.018366 
L 301.299914 274.890188 
L 301.648256 273.550231 
L 301.996598 277.783499 
L 302.34494 275.777934 
L 302.693281 276.466227 
L 303.041623 277.476017 
L 303.389965 275.590845 
L 303.738307 272.346209 
L 304.086648 278.339994 
L 304.43499 276.340659 
L 305.131674 280.071024 
L 305.480016 274.225501 
L 305.828357 273.354593 
L 306.176699 274.952362 
L 306.525041 278.264063 
L 306.873383 279.898537 
L 307.221725 278.130244 
L 307.570066 278.392256 
L 307.918408 279.757168 
L 308.26675 278.073806 
L 308.963433 278.155358 
L 309.311775 280.032236 
L 309.660117 275.714459 
L 310.008459 274.067515 
L 310.356801 275.960203 
L 310.705142 273.529845 
L 311.053484 275.126255 
L 311.401826 273.070363 
L 312.09851 274.740587 
L 312.446851 274.671803 
L 312.795193 275.455956 
L 313.143535 273.193252 
L 313.491877 272.790817 
L 313.840218 273.923856 
L 314.18856 273.396195 
L 314.536902 271.744892 
L 314.885244 272.949139 
L 315.233586 272.933342 
L 315.581927 276.418745 
L 315.930269 284.881749 
L 316.278611 280.284124 
L 316.626953 278.981703 
L 316.975295 274.834834 
L 317.323636 273.093292 
L 317.671978 277.148289 
L 318.02032 272.937514 
L 318.368662 272.1073 
L 318.717004 275.154681 
L 319.065345 274.185052 
L 319.413687 274.161301 
L 319.762029 272.639747 
L 320.110371 269.641681 
L 320.458712 274.906488 
L 320.807054 274.959792 
L 321.155396 264.2397 
L 321.503738 274.341219 
L 321.85208 273.412318 
L 322.200421 278.091633 
L 322.897105 273.553044 
L 323.245447 276.42486 
L 323.593789 276.388971 
L 323.94213 274.373062 
L 324.290472 274.483903 
L 324.638814 278.686437 
L 324.987156 272.826893 
L 325.335497 275.121465 
L 325.683839 278.858051 
L 326.032181 280.594054 
L 326.380523 278.267413 
L 326.728865 279.692066 
L 327.425548 279.345872 
L 327.77389 278.173324 
L 328.122232 276.566964 
L 328.470574 273.970474 
L 328.818915 272.825741 
L 329.167257 273.310909 
L 329.515599 272.635115 
L 329.863941 270.834331 
L 330.212282 274.592997 
L 330.560624 274.909224 
L 330.908966 271.951181 
L 331.257308 271.475186 
L 331.60565 274.93944 
L 331.953991 271.299761 
L 332.302333 276.110755 
L 332.650675 271.541935 
L 332.999017 271.248003 
L 333.347359 273.119054 
L 333.6957 276.999807 
L 334.044042 282.318978 
L 334.740726 273.645193 
L 335.089067 272.438249 
L 335.437409 272.286142 
L 335.785751 275.487881 
L 336.482435 272.839191 
L 336.830776 275.352478 
L 337.179118 275.532909 
L 337.52746 271.294385 
L 337.875802 274.962855 
L 338.224144 276.792808 
L 338.572485 272.044843 
L 338.920827 277.003258 
L 339.617511 271.610123 
L 340.314194 276.722089 
L 340.662536 272.311913 
L 341.010878 271.143949 
L 341.35922 275.741411 
L 341.707561 275.260146 
L 342.055903 273.146884 
L 342.404245 277.313576 
L 342.752587 278.194838 
L 343.100929 276.912927 
L 343.44927 278.003179 
L 343.797612 277.793396 
L 344.145954 278.408792 
L 344.494296 277.007328 
L 344.842638 278.700914 
L 345.190979 276.576741 
L 345.539321 279.267887 
L 346.236005 270.79632 
L 346.584346 270.818856 
L 346.932688 273.715772 
L 347.28103 272.969616 
L 347.629372 269.815603 
L 347.977714 272.553031 
L 348.326055 271.724065 
L 348.674397 273.597439 
L 349.022739 270.446498 
L 349.719423 273.291387 
L 350.067764 271.230944 
L 350.416106 274.693614 
L 350.764448 271.098455 
L 351.11279 272.790221 
L 351.461131 271.507072 
L 351.809473 275.639181 
L 352.157815 284.169639 
L 352.506157 282.13273 
L 352.854499 275.336778 
L 353.20284 274.580301 
L 353.551182 272.325948 
L 353.899524 271.893888 
L 354.247866 274.641131 
L 354.596208 273.38166 
L 354.944549 274.685689 
L 355.292891 272.43689 
L 355.641233 295.488 
L 356.337917 295.488 
L 356.686258 273.755679 
L 357.382942 275.931399 
L 357.731284 271.185037 
L 358.079625 270.298635 
L 358.427967 274.066622 
L 359.124651 271.394162 
L 359.472993 271.410972 
L 359.821334 269.503422 
L 360.169676 275.417715 
L 360.518018 273.356566 
L 360.86636 277.620813 
L 361.214702 275.620504 
L 361.563043 279.751586 
L 361.911385 276.341744 
L 362.608069 278.738814 
L 362.95641 278.605965 
L 363.304752 277.514182 
L 363.653094 278.660263 
L 364.001436 274.303434 
L 364.349778 272.343665 
L 364.698119 272.538506 
L 365.394803 272.346425 
L 365.743145 276.58758 
L 366.091487 272.853864 
L 366.439828 272.990448 
L 366.78817 271.361451 
L 367.136512 273.152601 
L 367.484854 271.625272 
L 367.833195 274.005211 
L 368.181537 272.238939 
L 368.529879 269.148992 
L 368.878221 275.619405 
L 369.226563 270.478716 
L 369.574904 271.867791 
L 370.61993 287.345208 
L 370.968272 276.601221 
L 371.316613 272.733231 
L 372.013297 274.669624 
L 372.361639 272.299193 
L 373.058322 273.509354 
L 373.406664 270.631787 
L 373.755006 274.148414 
L 374.451689 270.617392 
L 375.148373 277.437488 
L 375.496715 273.85584 
L 375.845057 272.463761 
L 376.193398 277.343701 
L 376.54174 273.782329 
L 377.238424 272.269962 
L 377.586766 273.691115 
L 377.935107 276.510684 
L 378.283449 274.348597 
L 378.631791 275.514434 
L 378.980133 271.958227 
L 379.328474 279.157488 
L 379.676816 277.774432 
L 380.025158 275.529732 
L 380.3735 280.080715 
L 380.721842 277.219118 
L 381.070183 277.074787 
L 381.418525 280.382101 
L 381.766867 279.886326 
L 382.115209 277.677122 
L 382.811892 271.341252 
L 383.160234 270.816696 
L 383.508576 272.500471 
L 383.856918 273.104956 
L 384.205259 272.815978 
L 384.553601 273.988771 
L 384.901943 274.272205 
L 385.250285 269.953838 
L 385.598627 272.950608 
L 385.946968 271.116263 
L 386.29531 272.051111 
L 386.643652 271.705979 
L 386.991994 276.936504 
L 387.340336 270.687097 
L 387.688677 273.889565 
L 388.037019 275.405648 
L 388.385361 282.341591 
L 388.733703 287.009939 
L 389.082044 274.831086 
L 389.430386 271.439047 
L 389.778728 278.15002 
L 390.12707 275.260256 
L 390.475412 274.836274 
L 390.823753 272.515629 
L 391.172095 279.493649 
L 391.520437 269.540862 
L 391.868779 269.850403 
L 392.217121 274.176191 
L 392.565462 273.776982 
L 392.913804 270.790844 
L 393.262146 274.694502 
L 393.610488 274.141463 
L 393.958829 273.329912 
L 394.307171 270.512915 
L 394.655513 272.916893 
L 395.003855 276.385371 
L 395.352197 275.00375 
L 395.700538 275.355013 
L 396.04888 279.560052 
L 396.397222 273.872084 
L 396.745564 276.248154 
L 397.093906 275.903132 
L 397.442247 276.820681 
L 397.790589 280.564251 
L 398.138931 278.407635 
L 398.487273 285.239698 
L 398.487273 285.239698 
" clip-path="url(#p64191c0783)" style="fill: none; stroke: #2ca02c; stroke-width: 1.5; stroke-linecap: square"/>
   </g>
   <g id="patch_3">
    <path d="M 57.6 307.584 
L 57.6 41.472 
" style="fill: none; stroke: #000000; stroke-width: 0.8; stroke-linejoin: miter; stroke-linecap: square"/>
   </g>
   <g id="patch_4">
    <path d="M 414.72 307.584 
L 414.72 41.472 
" style="fill: none; stroke: #000000; stroke-width: 0.8; stroke-linejoin: miter; stroke-linecap: square"/>
   </g>
   <g id="patch_5">
    <path d="M 57.6 307.584 
L 414.72 307.584 
" style="fill: none; stroke: #000000; stroke-width: 0.8; stroke-linejoin: miter; stroke-linecap: square"/>
   </g>
   <g id="patch_6">
    <path d="M 57.6 41.472 
L 414.72 41.472 
" style="fill: none; stroke: #000000; stroke-width: 0.8; stroke-linejoin: miter; stroke-linecap: square"/>
   </g>
   <g id="legend_1">
    <g id="patch_7">
     <path d="M 64.6 93.506375 
L 186.25625 93.506375 
Q 188.25625 93.506375 188.25625 91.506375 
L 188.25625 48.472 
Q 188.25625 46.472 186.25625 46.472 
L 64.6 46.472 
Q 62.6 46.472 62.6 48.472 
L 62.6 91.506375 
Q 62.6 93.506375 64.6 93.506375 
z
" style="fill: #ffffff; opacity: 0.8; stroke: #cccccc; stroke-linejoin: miter"/>
    </g>
    <g id="line2d_20">
     <path d="M 66.6 54.570438 
L 76.6 54.570438 
L 86.6 54.570438 
" style="fill: none; stroke: #1f77b4; stroke-width: 1.5; stroke-linecap: square"/>
    </g>
    <g id="text_19">
     <!-- Weekly maximum -->
     <g transform="translate(94.6 58.070438) scale(0.1 -0.1)">
      <defs>
       <path id="DejaVuSans-57" d="M 213 4666 
L 850 4666 
L 1831 722 
L 2809 4666 
L 3519 4666 
L 4500 722 
L 5478 4666 
L 6119 4666 
L 4947 0 
L 4153 0 
L 3169 4050 
L 2175 0 
L 1381 0 
L 213 4666 
z
" transform="scale(0.015625)"/>
       <path id="DejaVuSans-6b" d="M 581 4863 
L 1159 4863 
L 1159 1991 
L 2875 3500 
L 3609 3500 
L 1753 1863 
L 3688 0 
L 2938 0 
L 1159 1709 
L 1159 0 
L 581 0 
L 581 4863 
z
" transform="scale(0.015625)"/>
       <path id="DejaVuSans-79" d="M 2059 -325 
Q 1816 -950 1584 -1140 
Q 1353 -1331 966 -1331 
L 506 -1331 
L 506 -850 
L 844 -850 
Q 1081 -850 1212 -737 
Q 1344 -625 1503 -206 
L 1606 56 
L 191 3500 
L 800 3500 
L 1894 763 
L 2988 3500 
L 3597 3500 
L 2059 -325 
z
" transform="scale(0.015625)"/>
       <path id="DejaVuSans-6d" d="M 3328 2828 
Q 3544 3216 3844 3400 
Q 4144 3584 4550 3584 
Q 5097 3584 5394 3201 
Q 5691 2819 5691 2113 
L 5691 0 
L 5113 0 
L 5113 2094 
Q 5113 2597 4934 2840 
Q 4756 3084 4391 3084 
Q 3944 3084 3684 2787 
Q 3425 2491 3425 1978 
L 3425 0 
L 2847 0 
L 2847 2094 
Q 2847 2600 2669 2842 
Q 2491 3084 2119 3084 
Q 1678 3084 1418 2786 
Q 1159 2488 1159 1978 
L 1159 0 
L 581 0 
L 581 3500 
L 1159 3500 
L 1159 2956 
Q 1356 3278 1631 3431 
Q 1906 3584 2284 3584 
Q 2666 3584 2933 3390 
Q 3200 3197 3328 2828 
z
" transform="scale(0.015625)"/>
       <path id="DejaVuSans-78" d="M 3513 3500 
L 2247 1797 
L 3578 0 
L 2900 0 
L 1881 1375 
L 863 0 
L 184 0 
L 1544 1831 
L 300 3500 
L 978 3500 
L 1906 2253 
L 2834 3500 
L 3513 3500 
z
" transform="scale(0.015625)"/>
       <path id="DejaVuSans-75" d="M 544 1381 
L 544 3500 
L 1119 3500 
L 1119 1403 
Q 1119 906 1312 657 
Q 1506 409 1894 409 
Q 2359 409 2629 706 
Q 2900 1003 2900 1516 
L 2900 3500 
L 3475 3500 
L 3475 0 
L 2900 0 
L 2900 538 
Q 2691 219 2414 64 
Q 2138 -91 1772 -91 
Q 1169 -91 856 284 
Q 544 659 544 1381 
z
M 1991 3584 
L 1991 3584 
z
" transform="scale(0.015625)"/>
      </defs>
      <use xlink:href="#DejaVuSans-57"/>
      <use xlink:href="#DejaVuSans-65" transform="translate(93.001953 0)"/>
      <use xlink:href="#DejaVuSans-65" transform="translate(154.525391 0)"/>
      <use xlink:href="#DejaVuSans-6b" transform="translate(216.048828 0)"/>
      <use xlink:href="#DejaVuSans-6c" transform="translate(273.958984 0)"/>
      <use xlink:href="#DejaVuSans-79" transform="translate(301.742188 0)"/>
      <use xlink:href="#DejaVuSans-20" transform="translate(360.921875 0)"/>
      <use xlink:href="#DejaVuSans-6d" transform="translate(392.708984 0)"/>
      <use xlink:href="#DejaVuSans-61" transform="translate(490.121094 0)"/>
      <use xlink:href="#DejaVuSans-78" transform="translate(551.400391 0)"/>
      <use xlink:href="#DejaVuSans-69" transform="translate(610.580078 0)"/>
      <use xlink:href="#DejaVuSans-6d" transform="translate(638.363281 0)"/>
      <use xlink:href="#DejaVuSans-75" transform="translate(735.775391 0)"/>
      <use xlink:href="#DejaVuSans-6d" transform="translate(799.154297 0)"/>
     </g>
    </g>
    <g id="line2d_21">
     <path d="M 66.6 69.248563 
L 76.6 69.248563 
L 86.6 69.248563 
" style="fill: none; stroke: #ff7f0e; stroke-width: 1.5; stroke-linecap: square"/>
    </g>
    <g id="text_20">
     <!-- Weekly minimum -->
     <g transform="translate(94.6 72.748563) scale(0.1 -0.1)">
      <defs>
       <path id="DejaVuSans-6e" d="M 3513 2113 
L 3513 0 
L 2938 0 
L 2938 2094 
Q 2938 2591 2744 2837 
Q 2550 3084 2163 3084 
Q 1697 3084 1428 2787 
Q 1159 2491 1159 1978 
L 1159 0 
L 581 0 
L 581 3500 
L 1159 3500 
L 1159 2956 
Q 1366 3272 1645 3428 
Q 1925 3584 2291 3584 
Q 2894 3584 3203 3211 
Q 3513 2838 3513 2113 
z
" transform="scale(0.015625)"/>
      </defs>
      <use xlink:href="#DejaVuSans-57"/>
      <use xlink:href="#DejaVuSans-65" transform="translate(93.001953 0)"/>
      <use xlink:href="#DejaVuSans-65" transform="translate(154.525391 0)"/>
      <use xlink:href="#DejaVuSans-6b" transform="translate(216.048828 0)"/>
      <use xlink:href="#DejaVuSans-6c" transform="translate(273.958984 0)"/>
      <use xlink:href="#DejaVuSans-79" transform="translate(301.742188 0)"/>
      <use xlink:href="#DejaVuSans-20" transform="translate(360.921875 0)"/>
      <use xlink:href="#DejaVuSans-6d" transform="translate(392.708984 0)"/>
      <use xlink:href="#DejaVuSans-69" transform="translate(490.121094 0)"/>
      <use xlink:href="#DejaVuSans-6e" transform="translate(517.904297 0)"/>
      <use xlink:href="#DejaVuSans-69" transform="translate(581.283203 0)"/>
      <use xlink:href="#DejaVuSans-6d" transform="translate(609.066406 0)"/>
      <use xlink:href="#DejaVuSans-75" transform="translate(706.478516 0)"/>
      <use xlink:href="#DejaVuSans-6d" transform="translate(769.857422 0)"/>
     </g>
    </g>
    <g id="line2d_22">
     <path d="M 66.6 83.926688 
L 76.6 83.926688 
L 86.6 83.926688 
" style="fill: none; stroke: #2ca02c; stroke-width: 1.5; stroke-linecap: square"/>
    </g>
    <g id="text_21">
     <!-- Weekly range -->
     <g transform="translate(94.6 87.426688) scale(0.1 -0.1)">
      <use xlink:href="#DejaVuSans-57"/>
      <use xlink:href="#DejaVuSans-65" transform="translate(93.001953 0)"/>
      <use xlink:href="#DejaVuSans-65" transform="translate(154.525391 0)"/>
      <use xlink:href="#DejaVuSans-6b" transform="translate(216.048828 0)"/>
      <use xlink:href="#DejaVuSans-6c" transform="translate(273.958984 0)"/>
      <use xlink:href="#DejaVuSans-79" transform="translate(301.742188 0)"/>
      <use xlink:href="#DejaVuSans-20" transform="translate(360.921875 0)"/>
      <use xlink:href="#DejaVuSans-72" transform="translate(392.708984 0)"/>
      <use xlink:href="#DejaVuSans-61" transform="translate(433.822266 0)"/>
      <use xlink:href="#DejaVuSans-6e" transform="translate(495.101562 0)"/>
      <use xlink:href="#DejaVuSans-67" transform="translate(558.480469 0)"/>
      <use xlink:href="#DejaVuSans-65" transform="translate(621.957031 0)"/>
     </g>
    </g>
   </g>
  </g>
 </g>
 <defs>
  <clipPath id="p64191c0783">
   <rect x="57.6" y="41.472" width="357.12" height="266.112"/>
  </clipPath>
 </defs>
</svg>
