<?xml version="1.0" encoding="utf-8" standalone="no"?>
<!DOCTYPE svg PUBLIC "-//W3C//DTD SVG 1.1//EN"
  "http://www.w3.org/Graphics/SVG/1.1/DTD/svg11.dtd">
<svg xmlns:xlink="http://www.w3.org/1999/xlink" width="460.8pt" height="345.6pt" viewBox="0 0 460.8 345.6" xmlns="http://www.w3.org/2000/svg" version="1.1">
 <metadata>
  <rdf:RDF xmlns:dc="http://purl.org/dc/elements/1.1/" xmlns:cc="http://creativecommons.org/ns#" xmlns:rdf="http://www.w3.org/1999/02/22-rdf-syntax-ns#">
   <cc:Work>
    <dc:type rdf:resource="http://purl.org/dc/dcmitype/StillImage"/>
    <dc:date>2023-12-02T05:31:30.068404</dc:date>
    <dc:format>image/svg+xml</dc:format>
    <dc:creator>
     <cc:Agent>
      <dc:title>Matplotlib v3.8.2, https://matplotlib.org/</dc:title>
     </cc:Agent>
    </dc:creator>
   </cc:Work>
  </rdf:RDF>
 </metadata>
 <defs>
  <style type="text/css">*{stroke-linejoin: round; stroke-linecap: butt}</style>
 </defs>
 <g id="figure_1">
  <g id="patch_1">
   <path d="M 0 345.6 
L 460.8 345.6 
L 460.8 0 
L 0 0 
z
" style="fill: #ffffff"/>
  </g>
  <g id="axes_1">
   <g id="patch_2">
    <path d="M 57.6 307.584 
L 414.72 307.584 
L 414.72 41.472 
L 57.6 41.472 
z
" style="fill: #ffffff"/>
   </g>
   <g id="matplotlib.axis_1">
    <g id="xtick_1">
     <g id="line2d_1">
      <defs>
       <path id="m49b6128c5a" d="M 0 0 
L 0 3.5 
" style="stroke: #000000; stroke-width: 0.8"/>
      </defs>
      <g>
       <use xlink:href="#m49b6128c5a" x="59.598099" y="307.584" style="stroke: #000000; stroke-width: 0.8"/>
      </g>
     </g>
     <g id="text_1">
      <!-- 2008 -->
      <g transform="translate(46.873099 322.182437) scale(0.1 -0.1)">
       <defs>
        <path id="DejaVuSans-32" d="M 1228 531 
L 3431 531 
L 3431 0 
L 469 0 
L 469 531 
Q 828 903 1448 1529 
Q 2069 2156 2228 2338 
Q 2531 2678 2651 2914 
Q 2772 3150 2772 3378 
Q 2772 3750 2511 3984 
Q 2250 4219 1831 4219 
Q 1534 4219 1204 4116 
Q 875 4013 500 3803 
L 500 4441 
Q 881 4594 1212 4672 
Q 1544 4750 1819 4750 
Q 2544 4750 2975 4387 
Q 3406 4025 3406 3419 
Q 3406 3131 3298 2873 
Q 3191 2616 2906 2266 
Q 2828 2175 2409 1742 
Q 1991 1309 1228 531 
z
" transform="scale(0.015625)"/>
        <path id="DejaVuSans-30" d="M 2034 4250 
Q 1547 4250 1301 3770 
Q 1056 3291 1056 2328 
Q 1056 1369 1301 889 
Q 1547 409 2034 409 
Q 2525 409 2770 889 
Q 3016 1369 3016 2328 
Q 3016 3291 2770 3770 
Q 2525 4250 2034 4250 
z
M 2034 4750 
Q 2819 4750 3233 4129 
Q 3647 3509 3647 2328 
Q 3647 1150 3233 529 
Q 2819 -91 2034 -91 
Q 1250 -91 836 529 
Q 422 1150 422 2328 
Q 422 3509 836 4129 
Q 1250 4750 2034 4750 
z
" transform="scale(0.015625)"/>
        <path id="DejaVuSans-38" d="M 2034 2216 
Q 1584 2216 1326 1975 
Q 1069 1734 1069 1313 
Q 1069 891 1326 650 
Q 1584 409 2034 409 
Q 2484 409 2743 651 
Q 3003 894 3003 1313 
Q 3003 1734 2745 1975 
Q 2488 2216 2034 2216 
z
M 1403 2484 
Q 997 2584 770 2862 
Q 544 3141 544 3541 
Q 544 4100 942 4425 
Q 1341 4750 2034 4750 
Q 2731 4750 3128 4425 
Q 3525 4100 3525 3541 
Q 3525 3141 3298 2862 
Q 3072 2584 2669 2484 
Q 3125 2378 3379 2068 
Q 3634 1759 3634 1313 
Q 3634 634 3220 271 
Q 2806 -91 2034 -91 
Q 1263 -91 848 271 
Q 434 634 434 1313 
Q 434 1759 690 2068 
Q 947 2378 1403 2484 
z
M 1172 3481 
Q 1172 3119 1398 2916 
Q 1625 2713 2034 2713 
Q 2441 2713 2670 2916 
Q 2900 3119 2900 3481 
Q 2900 3844 2670 4047 
Q 2441 4250 2034 4250 
Q 1625 4250 1398 4047 
Q 1172 3844 1172 3481 
z
" transform="scale(0.015625)"/>
       </defs>
       <use xlink:href="#DejaVuSans-32"/>
       <use xlink:href="#DejaVuSans-30" x="63.623047"/>
       <use xlink:href="#DejaVuSans-30" x="127.246094"/>
       <use xlink:href="#DejaVuSans-38" x="190.869141"/>
      </g>
     </g>
    </g>
    <g id="xtick_2">
     <g id="line2d_2">
      <g>
       <use xlink:href="#m49b6128c5a" x="102.243646" y="307.584" style="stroke: #000000; stroke-width: 0.8"/>
      </g>
     </g>
     <g id="text_2">
      <!-- 2010 -->
      <g transform="translate(89.518646 322.182437) scale(0.1 -0.1)">
       <defs>
        <path id="DejaVuSans-31" d="M 794 531 
L 1825 531 
L 1825 4091 
L 703 3866 
L 703 4441 
L 1819 4666 
L 2450 4666 
L 2450 531 
L 3481 531 
L 3481 0 
L 794 0 
L 794 531 
z
" transform="scale(0.015625)"/>
       </defs>
       <use xlink:href="#DejaVuSans-32"/>
       <use xlink:href="#DejaVuSans-30" x="63.623047"/>
       <use xlink:href="#DejaVuSans-31" x="127.246094"/>
       <use xlink:href="#DejaVuSans-30" x="190.869141"/>
      </g>
     </g>
    </g>
    <g id="xtick_3">
     <g id="line2d_3">
      <g>
       <use xlink:href="#m49b6128c5a" x="144.830855" y="307.584" style="stroke: #000000; stroke-width: 0.8"/>
      </g>
     </g>
     <g id="text_3">
      <!-- 2012 -->
      <g transform="translate(132.105855 322.182437) scale(0.1 -0.1)">
       <use xlink:href="#DejaVuSans-32"/>
       <use xlink:href="#DejaVuSans-30" x="63.623047"/>
       <use xlink:href="#DejaVuSans-31" x="127.246094"/>
       <use xlink:href="#DejaVuSans-32" x="190.869141"/>
      </g>
     </g>
    </g>
    <g id="xtick_4">
     <g id="line2d_4">
      <g>
       <use xlink:href="#m49b6128c5a" x="187.476403" y="307.584" style="stroke: #000000; stroke-width: 0.8"/>
      </g>
     </g>
     <g id="text_4">
      <!-- 2014 -->
      <g transform="translate(174.751403 322.182437) scale(0.1 -0.1)">
       <defs>
        <path id="DejaVuSans-34" d="M 2419 4116 
L 825 1625 
L 2419 1625 
L 2419 4116 
z
M 2253 4666 
L 3047 4666 
L 3047 1625 
L 3713 1625 
L 3713 1100 
L 3047 1100 
L 3047 0 
L 2419 0 
L 2419 1100 
L 313 1100 
L 313 1709 
L 2253 4666 
z
" transform="scale(0.015625)"/>
       </defs>
       <use xlink:href="#DejaVuSans-32"/>
       <use xlink:href="#DejaVuSans-30" x="63.623047"/>
       <use xlink:href="#DejaVuSans-31" x="127.246094"/>
       <use xlink:href="#DejaVuSans-34" x="190.869141"/>
      </g>
     </g>
    </g>
    <g id="xtick_5">
     <g id="line2d_5">
      <g>
       <use xlink:href="#m49b6128c5a" x="230.063612" y="307.584" style="stroke: #000000; stroke-width: 0.8"/>
      </g>
     </g>
     <g id="text_5">
      <!-- 2016 -->
      <g transform="translate(217.338612 322.182437) scale(0.1 -0.1)">
       <defs>
        <path id="DejaVuSans-36" d="M 2113 2584 
Q 1688 2584 1439 2293 
Q 1191 2003 1191 1497 
Q 1191 994 1439 701 
Q 1688 409 2113 409 
Q 2538 409 2786 701 
Q 3034 994 3034 1497 
Q 3034 2003 2786 2293 
Q 2538 2584 2113 2584 
z
M 3366 4563 
L 3366 3988 
Q 3128 4100 2886 4159 
Q 2644 4219 2406 4219 
Q 1781 4219 1451 3797 
Q 1122 3375 1075 2522 
Q 1259 2794 1537 2939 
Q 1816 3084 2150 3084 
Q 2853 3084 3261 2657 
Q 3669 2231 3669 1497 
Q 3669 778 3244 343 
Q 2819 -91 2113 -91 
Q 1303 -91 875 529 
Q 447 1150 447 2328 
Q 447 3434 972 4092 
Q 1497 4750 2381 4750 
Q 2619 4750 2861 4703 
Q 3103 4656 3366 4563 
z
" transform="scale(0.015625)"/>
       </defs>
       <use xlink:href="#DejaVuSans-32"/>
       <use xlink:href="#DejaVuSans-30" x="63.623047"/>
       <use xlink:href="#DejaVuSans-31" x="127.246094"/>
       <use xlink:href="#DejaVuSans-36" x="190.869141"/>
      </g>
     </g>
    </g>
    <g id="xtick_6">
     <g id="line2d_6">
      <g>
       <use xlink:href="#m49b6128c5a" x="272.70916" y="307.584" style="stroke: #000000; stroke-width: 0.8"/>
      </g>
     </g>
     <g id="text_6">
      <!-- 2018 -->
      <g transform="translate(259.98416 322.182437) scale(0.1 -0.1)">
       <use xlink:href="#DejaVuSans-32"/>
       <use xlink:href="#DejaVuSans-30" x="63.623047"/>
       <use xlink:href="#DejaVuSans-31" x="127.246094"/>
       <use xlink:href="#DejaVuSans-38" x="190.869141"/>
      </g>
     </g>
    </g>
    <g id="xtick_7">
     <g id="line2d_7">
      <g>
       <use xlink:href="#m49b6128c5a" x="315.296369" y="307.584" style="stroke: #000000; stroke-width: 0.8"/>
      </g>
     </g>
     <g id="text_7">
      <!-- 2020 -->
      <g transform="translate(302.571369 322.182437) scale(0.1 -0.1)">
       <use xlink:href="#DejaVuSans-32"/>
       <use xlink:href="#DejaVuSans-30" x="63.623047"/>
       <use xlink:href="#DejaVuSans-32" x="127.246094"/>
       <use xlink:href="#DejaVuSans-30" x="190.869141"/>
      </g>
     </g>
    </g>
    <g id="xtick_8">
     <g id="line2d_8">
      <g>
       <use xlink:href="#m49b6128c5a" x="357.941916" y="307.584" style="stroke: #000000; stroke-width: 0.8"/>
      </g>
     </g>
     <g id="text_8">
      <!-- 2022 -->
      <g transform="translate(345.216916 322.182437) scale(0.1 -0.1)">
       <use xlink:href="#DejaVuSans-32"/>
       <use xlink:href="#DejaVuSans-30" x="63.623047"/>
       <use xlink:href="#DejaVuSans-32" x="127.246094"/>
       <use xlink:href="#DejaVuSans-32" x="190.869141"/>
      </g>
     </g>
    </g>
    <g id="xtick_9">
     <g id="line2d_9">
      <g>
       <use xlink:href="#m49b6128c5a" x="400.529125" y="307.584" style="stroke: #000000; stroke-width: 0.8"/>
      </g>
     </g>
     <g id="text_9">
      <!-- 2024 -->
      <g transform="translate(387.804125 322.182437) scale(0.1 -0.1)">
       <use xlink:href="#DejaVuSans-32"/>
       <use xlink:href="#DejaVuSans-30" x="63.623047"/>
       <use xlink:href="#DejaVuSans-32" x="127.246094"/>
       <use xlink:href="#DejaVuSans-34" x="190.869141"/>
      </g>
     </g>
    </g>
    <g id="text_10">
     <!-- Updated 2023-12-02 05:31:30.066920 - Last record 2023-11-29 -->
     <g transform="translate(75.905312 335.860562) scale(0.1 -0.1)">
      <defs>
       <path id="DejaVuSans-55" d="M 556 4666 
L 1191 4666 
L 1191 1831 
Q 1191 1081 1462 751 
Q 1734 422 2344 422 
Q 2950 422 3222 751 
Q 3494 1081 3494 1831 
L 3494 4666 
L 4128 4666 
L 4128 1753 
Q 4128 841 3676 375 
Q 3225 -91 2344 -91 
Q 1459 -91 1007 375 
Q 556 841 556 1753 
L 556 4666 
z
" transform="scale(0.015625)"/>
       <path id="DejaVuSans-70" d="M 1159 525 
L 1159 -1331 
L 581 -1331 
L 581 3500 
L 1159 3500 
L 1159 2969 
Q 1341 3281 1617 3432 
Q 1894 3584 2278 3584 
Q 2916 3584 3314 3078 
Q 3713 2572 3713 1747 
Q 3713 922 3314 415 
Q 2916 -91 2278 -91 
Q 1894 -91 1617 61 
Q 1341 213 1159 525 
z
M 3116 1747 
Q 3116 2381 2855 2742 
Q 2594 3103 2138 3103 
Q 1681 3103 1420 2742 
Q 1159 2381 1159 1747 
Q 1159 1113 1420 752 
Q 1681 391 2138 391 
Q 2594 391 2855 752 
Q 3116 1113 3116 1747 
z
" transform="scale(0.015625)"/>
       <path id="DejaVuSans-64" d="M 2906 2969 
L 2906 4863 
L 3481 4863 
L 3481 0 
L 2906 0 
L 2906 525 
Q 2725 213 2448 61 
Q 2172 -91 1784 -91 
Q 1150 -91 751 415 
Q 353 922 353 1747 
Q 353 2572 751 3078 
Q 1150 3584 1784 3584 
Q 2172 3584 2448 3432 
Q 2725 3281 2906 2969 
z
M 947 1747 
Q 947 1113 1208 752 
Q 1469 391 1925 391 
Q 2381 391 2643 752 
Q 2906 1113 2906 1747 
Q 2906 2381 2643 2742 
Q 2381 3103 1925 3103 
Q 1469 3103 1208 2742 
Q 947 2381 947 1747 
z
" transform="scale(0.015625)"/>
       <path id="DejaVuSans-61" d="M 2194 1759 
Q 1497 1759 1228 1600 
Q 959 1441 959 1056 
Q 959 750 1161 570 
Q 1363 391 1709 391 
Q 2188 391 2477 730 
Q 2766 1069 2766 1631 
L 2766 1759 
L 2194 1759 
z
M 3341 1997 
L 3341 0 
L 2766 0 
L 2766 531 
Q 2569 213 2275 61 
Q 1981 -91 1556 -91 
Q 1019 -91 701 211 
Q 384 513 384 1019 
Q 384 1609 779 1909 
Q 1175 2209 1959 2209 
L 2766 2209 
L 2766 2266 
Q 2766 2663 2505 2880 
Q 2244 3097 1772 3097 
Q 1472 3097 1187 3025 
Q 903 2953 641 2809 
L 641 3341 
Q 956 3463 1253 3523 
Q 1550 3584 1831 3584 
Q 2591 3584 2966 3190 
Q 3341 2797 3341 1997 
z
" transform="scale(0.015625)"/>
       <path id="DejaVuSans-74" d="M 1172 4494 
L 1172 3500 
L 2356 3500 
L 2356 3053 
L 1172 3053 
L 1172 1153 
Q 1172 725 1289 603 
Q 1406 481 1766 481 
L 2356 481 
L 2356 0 
L 1766 0 
Q 1100 0 847 248 
Q 594 497 594 1153 
L 594 3053 
L 172 3053 
L 172 3500 
L 594 3500 
L 594 4494 
L 1172 4494 
z
" transform="scale(0.015625)"/>
       <path id="DejaVuSans-65" d="M 3597 1894 
L 3597 1613 
L 953 1613 
Q 991 1019 1311 708 
Q 1631 397 2203 397 
Q 2534 397 2845 478 
Q 3156 559 3463 722 
L 3463 178 
Q 3153 47 2828 -22 
Q 2503 -91 2169 -91 
Q 1331 -91 842 396 
Q 353 884 353 1716 
Q 353 2575 817 3079 
Q 1281 3584 2069 3584 
Q 2775 3584 3186 3129 
Q 3597 2675 3597 1894 
z
M 3022 2063 
Q 3016 2534 2758 2815 
Q 2500 3097 2075 3097 
Q 1594 3097 1305 2825 
Q 1016 2553 972 2059 
L 3022 2063 
z
" transform="scale(0.015625)"/>
       <path id="DejaVuSans-20" transform="scale(0.015625)"/>
       <path id="DejaVuSans-33" d="M 2597 2516 
Q 3050 2419 3304 2112 
Q 3559 1806 3559 1356 
Q 3559 666 3084 287 
Q 2609 -91 1734 -91 
Q 1441 -91 1130 -33 
Q 819 25 488 141 
L 488 750 
Q 750 597 1062 519 
Q 1375 441 1716 441 
Q 2309 441 2620 675 
Q 2931 909 2931 1356 
Q 2931 1769 2642 2001 
Q 2353 2234 1838 2234 
L 1294 2234 
L 1294 2753 
L 1863 2753 
Q 2328 2753 2575 2939 
Q 2822 3125 2822 3475 
Q 2822 3834 2567 4026 
Q 2313 4219 1838 4219 
Q 1578 4219 1281 4162 
Q 984 4106 628 3988 
L 628 4550 
Q 988 4650 1302 4700 
Q 1616 4750 1894 4750 
Q 2613 4750 3031 4423 
Q 3450 4097 3450 3541 
Q 3450 3153 3228 2886 
Q 3006 2619 2597 2516 
z
" transform="scale(0.015625)"/>
       <path id="DejaVuSans-2d" d="M 313 2009 
L 1997 2009 
L 1997 1497 
L 313 1497 
L 313 2009 
z
" transform="scale(0.015625)"/>
       <path id="DejaVuSans-35" d="M 691 4666 
L 3169 4666 
L 3169 4134 
L 1269 4134 
L 1269 2991 
Q 1406 3038 1543 3061 
Q 1681 3084 1819 3084 
Q 2600 3084 3056 2656 
Q 3513 2228 3513 1497 
Q 3513 744 3044 326 
Q 2575 -91 1722 -91 
Q 1428 -91 1123 -41 
Q 819 9 494 109 
L 494 744 
Q 775 591 1075 516 
Q 1375 441 1709 441 
Q 2250 441 2565 725 
Q 2881 1009 2881 1497 
Q 2881 1984 2565 2268 
Q 2250 2553 1709 2553 
Q 1456 2553 1204 2497 
Q 953 2441 691 2322 
L 691 4666 
z
" transform="scale(0.015625)"/>
       <path id="DejaVuSans-3a" d="M 750 794 
L 1409 794 
L 1409 0 
L 750 0 
L 750 794 
z
M 750 3309 
L 1409 3309 
L 1409 2516 
L 750 2516 
L 750 3309 
z
" transform="scale(0.015625)"/>
       <path id="DejaVuSans-2e" d="M 684 794 
L 1344 794 
L 1344 0 
L 684 0 
L 684 794 
z
" transform="scale(0.015625)"/>
       <path id="DejaVuSans-39" d="M 703 97 
L 703 672 
Q 941 559 1184 500 
Q 1428 441 1663 441 
Q 2288 441 2617 861 
Q 2947 1281 2994 2138 
Q 2813 1869 2534 1725 
Q 2256 1581 1919 1581 
Q 1219 1581 811 2004 
Q 403 2428 403 3163 
Q 403 3881 828 4315 
Q 1253 4750 1959 4750 
Q 2769 4750 3195 4129 
Q 3622 3509 3622 2328 
Q 3622 1225 3098 567 
Q 2575 -91 1691 -91 
Q 1453 -91 1209 -44 
Q 966 3 703 97 
z
M 1959 2075 
Q 2384 2075 2632 2365 
Q 2881 2656 2881 3163 
Q 2881 3666 2632 3958 
Q 2384 4250 1959 4250 
Q 1534 4250 1286 3958 
Q 1038 3666 1038 3163 
Q 1038 2656 1286 2365 
Q 1534 2075 1959 2075 
z
" transform="scale(0.015625)"/>
       <path id="DejaVuSans-4c" d="M 628 4666 
L 1259 4666 
L 1259 531 
L 3531 531 
L 3531 0 
L 628 0 
L 628 4666 
z
" transform="scale(0.015625)"/>
       <path id="DejaVuSans-73" d="M 2834 3397 
L 2834 2853 
Q 2591 2978 2328 3040 
Q 2066 3103 1784 3103 
Q 1356 3103 1142 2972 
Q 928 2841 928 2578 
Q 928 2378 1081 2264 
Q 1234 2150 1697 2047 
L 1894 2003 
Q 2506 1872 2764 1633 
Q 3022 1394 3022 966 
Q 3022 478 2636 193 
Q 2250 -91 1575 -91 
Q 1294 -91 989 -36 
Q 684 19 347 128 
L 347 722 
Q 666 556 975 473 
Q 1284 391 1588 391 
Q 1994 391 2212 530 
Q 2431 669 2431 922 
Q 2431 1156 2273 1281 
Q 2116 1406 1581 1522 
L 1381 1569 
Q 847 1681 609 1914 
Q 372 2147 372 2553 
Q 372 3047 722 3315 
Q 1072 3584 1716 3584 
Q 2034 3584 2315 3537 
Q 2597 3491 2834 3397 
z
" transform="scale(0.015625)"/>
       <path id="DejaVuSans-72" d="M 2631 2963 
Q 2534 3019 2420 3045 
Q 2306 3072 2169 3072 
Q 1681 3072 1420 2755 
Q 1159 2438 1159 1844 
L 1159 0 
L 581 0 
L 581 3500 
L 1159 3500 
L 1159 2956 
Q 1341 3275 1631 3429 
Q 1922 3584 2338 3584 
Q 2397 3584 2469 3576 
Q 2541 3569 2628 3553 
L 2631 2963 
z
" transform="scale(0.015625)"/>
       <path id="DejaVuSans-63" d="M 3122 3366 
L 3122 2828 
Q 2878 2963 2633 3030 
Q 2388 3097 2138 3097 
Q 1578 3097 1268 2742 
Q 959 2388 959 1747 
Q 959 1106 1268 751 
Q 1578 397 2138 397 
Q 2388 397 2633 464 
Q 2878 531 3122 666 
L 3122 134 
Q 2881 22 2623 -34 
Q 2366 -91 2075 -91 
Q 1284 -91 818 406 
Q 353 903 353 1747 
Q 353 2603 823 3093 
Q 1294 3584 2113 3584 
Q 2378 3584 2631 3529 
Q 2884 3475 3122 3366 
z
" transform="scale(0.015625)"/>
       <path id="DejaVuSans-6f" d="M 1959 3097 
Q 1497 3097 1228 2736 
Q 959 2375 959 1747 
Q 959 1119 1226 758 
Q 1494 397 1959 397 
Q 2419 397 2687 759 
Q 2956 1122 2956 1747 
Q 2956 2369 2687 2733 
Q 2419 3097 1959 3097 
z
M 1959 3584 
Q 2709 3584 3137 3096 
Q 3566 2609 3566 1747 
Q 3566 888 3137 398 
Q 2709 -91 1959 -91 
Q 1206 -91 779 398 
Q 353 888 353 1747 
Q 353 2609 779 3096 
Q 1206 3584 1959 3584 
z
" transform="scale(0.015625)"/>
      </defs>
      <use xlink:href="#DejaVuSans-55"/>
      <use xlink:href="#DejaVuSans-70" x="73.193359"/>
      <use xlink:href="#DejaVuSans-64" x="136.669922"/>
      <use xlink:href="#DejaVuSans-61" x="200.146484"/>
      <use xlink:href="#DejaVuSans-74" x="261.425781"/>
      <use xlink:href="#DejaVuSans-65" x="300.634766"/>
      <use xlink:href="#DejaVuSans-64" x="362.158203"/>
      <use xlink:href="#DejaVuSans-20" x="425.634766"/>
      <use xlink:href="#DejaVuSans-32" x="457.421875"/>
      <use xlink:href="#DejaVuSans-30" x="521.044922"/>
      <use xlink:href="#DejaVuSans-32" x="584.667969"/>
      <use xlink:href="#DejaVuSans-33" x="648.291016"/>
      <use xlink:href="#DejaVuSans-2d" x="711.914062"/>
      <use xlink:href="#DejaVuSans-31" x="747.998047"/>
      <use xlink:href="#DejaVuSans-32" x="811.621094"/>
      <use xlink:href="#DejaVuSans-2d" x="875.244141"/>
      <use xlink:href="#DejaVuSans-30" x="911.328125"/>
      <use xlink:href="#DejaVuSans-32" x="974.951172"/>
      <use xlink:href="#DejaVuSans-20" x="1038.574219"/>
      <use xlink:href="#DejaVuSans-30" x="1070.361328"/>
      <use xlink:href="#DejaVuSans-35" x="1133.984375"/>
      <use xlink:href="#DejaVuSans-3a" x="1197.607422"/>
      <use xlink:href="#DejaVuSans-33" x="1231.298828"/>
      <use xlink:href="#DejaVuSans-31" x="1294.921875"/>
      <use xlink:href="#DejaVuSans-3a" x="1358.544922"/>
      <use xlink:href="#DejaVuSans-33" x="1392.236328"/>
      <use xlink:href="#DejaVuSans-30" x="1455.859375"/>
      <use xlink:href="#DejaVuSans-2e" x="1519.482422"/>
      <use xlink:href="#DejaVuSans-30" x="1551.269531"/>
      <use xlink:href="#DejaVuSans-36" x="1614.892578"/>
      <use xlink:href="#DejaVuSans-36" x="1678.515625"/>
      <use xlink:href="#DejaVuSans-39" x="1742.138672"/>
      <use xlink:href="#DejaVuSans-32" x="1805.761719"/>
      <use xlink:href="#DejaVuSans-30" x="1869.384766"/>
      <use xlink:href="#DejaVuSans-20" x="1933.007812"/>
      <use xlink:href="#DejaVuSans-2d" x="1964.794922"/>
      <use xlink:href="#DejaVuSans-20" x="2000.878906"/>
      <use xlink:href="#DejaVuSans-4c" x="2032.666016"/>
      <use xlink:href="#DejaVuSans-61" x="2088.378906"/>
      <use xlink:href="#DejaVuSans-73" x="2149.658203"/>
      <use xlink:href="#DejaVuSans-74" x="2201.757812"/>
      <use xlink:href="#DejaVuSans-20" x="2240.966797"/>
      <use xlink:href="#DejaVuSans-72" x="2272.753906"/>
      <use xlink:href="#DejaVuSans-65" x="2311.617188"/>
      <use xlink:href="#DejaVuSans-63" x="2373.140625"/>
      <use xlink:href="#DejaVuSans-6f" x="2428.121094"/>
      <use xlink:href="#DejaVuSans-72" x="2489.302734"/>
      <use xlink:href="#DejaVuSans-64" x="2528.666016"/>
      <use xlink:href="#DejaVuSans-20" x="2592.142578"/>
      <use xlink:href="#DejaVuSans-32" x="2623.929688"/>
      <use xlink:href="#DejaVuSans-30" x="2687.552734"/>
      <use xlink:href="#DejaVuSans-32" x="2751.175781"/>
      <use xlink:href="#DejaVuSans-33" x="2814.798828"/>
      <use xlink:href="#DejaVuSans-2d" x="2878.421875"/>
      <use xlink:href="#DejaVuSans-31" x="2914.505859"/>
      <use xlink:href="#DejaVuSans-31" x="2978.128906"/>
      <use xlink:href="#DejaVuSans-2d" x="3041.751953"/>
      <use xlink:href="#DejaVuSans-32" x="3077.835938"/>
      <use xlink:href="#DejaVuSans-39" x="3141.458984"/>
     </g>
    </g>
   </g>
   <g id="matplotlib.axis_2">
    <g id="ytick_1">
     <g id="line2d_10">
      <defs>
       <path id="md7de954ea2" d="M 0 0 
L -3.5 0 
" style="stroke: #000000; stroke-width: 0.8"/>
      </defs>
      <g>
       <use xlink:href="#md7de954ea2" x="57.6" y="295.562288" style="stroke: #000000; stroke-width: 0.8"/>
      </g>
     </g>
     <g id="text_11">
      <!-- 0 -->
      <g transform="translate(44.2375 299.361506) scale(0.1 -0.1)">
       <use xlink:href="#DejaVuSans-30"/>
      </g>
     </g>
    </g>
    <g id="ytick_2">
     <g id="line2d_11">
      <g>
       <use xlink:href="#md7de954ea2" x="57.6" y="242.117871" style="stroke: #000000; stroke-width: 0.8"/>
      </g>
     </g>
     <g id="text_12">
      <!-- 10 -->
      <g transform="translate(37.875 245.91709) scale(0.1 -0.1)">
       <use xlink:href="#DejaVuSans-31"/>
       <use xlink:href="#DejaVuSans-30" x="63.623047"/>
      </g>
     </g>
    </g>
    <g id="ytick_3">
     <g id="line2d_12">
      <g>
       <use xlink:href="#md7de954ea2" x="57.6" y="188.673454" style="stroke: #000000; stroke-width: 0.8"/>
      </g>
     </g>
     <g id="text_13">
      <!-- 20 -->
      <g transform="translate(37.875 192.472673) scale(0.1 -0.1)">
       <use xlink:href="#DejaVuSans-32"/>
       <use xlink:href="#DejaVuSans-30" x="63.623047"/>
      </g>
     </g>
    </g>
    <g id="ytick_4">
     <g id="line2d_13">
      <g>
       <use xlink:href="#md7de954ea2" x="57.6" y="135.229038" style="stroke: #000000; stroke-width: 0.8"/>
      </g>
     </g>
     <g id="text_14">
      <!-- 30 -->
      <g transform="translate(37.875 139.028257) scale(0.1 -0.1)">
       <use xlink:href="#DejaVuSans-33"/>
       <use xlink:href="#DejaVuSans-30" x="63.623047"/>
      </g>
     </g>
    </g>
    <g id="ytick_5">
     <g id="line2d_14">
      <g>
       <use xlink:href="#md7de954ea2" x="57.6" y="81.784621" style="stroke: #000000; stroke-width: 0.8"/>
      </g>
     </g>
     <g id="text_15">
      <!-- 40 -->
      <g transform="translate(37.875 85.58384) scale(0.1 -0.1)">
       <use xlink:href="#DejaVuSans-34"/>
       <use xlink:href="#DejaVuSans-30" x="63.623047"/>
      </g>
     </g>
    </g>
    <g id="text_16">
     <!-- IPv6 as % of total Google traffic -->
     <g transform="translate(31.795312 253.735813) rotate(-90) scale(0.1 -0.1)">
      <defs>
       <path id="DejaVuSans-49" d="M 628 4666 
L 1259 4666 
L 1259 0 
L 628 0 
L 628 4666 
z
" transform="scale(0.015625)"/>
       <path id="DejaVuSans-50" d="M 1259 4147 
L 1259 2394 
L 2053 2394 
Q 2494 2394 2734 2622 
Q 2975 2850 2975 3272 
Q 2975 3691 2734 3919 
Q 2494 4147 2053 4147 
L 1259 4147 
z
M 628 4666 
L 2053 4666 
Q 2838 4666 3239 4311 
Q 3641 3956 3641 3272 
Q 3641 2581 3239 2228 
Q 2838 1875 2053 1875 
L 1259 1875 
L 1259 0 
L 628 0 
L 628 4666 
z
" transform="scale(0.015625)"/>
       <path id="DejaVuSans-76" d="M 191 3500 
L 800 3500 
L 1894 563 
L 2988 3500 
L 3597 3500 
L 2284 0 
L 1503 0 
L 191 3500 
z
" transform="scale(0.015625)"/>
       <path id="DejaVuSans-25" d="M 4653 2053 
Q 4381 2053 4226 1822 
Q 4072 1591 4072 1178 
Q 4072 772 4226 539 
Q 4381 306 4653 306 
Q 4919 306 5073 539 
Q 5228 772 5228 1178 
Q 5228 1588 5073 1820 
Q 4919 2053 4653 2053 
z
M 4653 2450 
Q 5147 2450 5437 2106 
Q 5728 1763 5728 1178 
Q 5728 594 5436 251 
Q 5144 -91 4653 -91 
Q 4153 -91 3862 251 
Q 3572 594 3572 1178 
Q 3572 1766 3864 2108 
Q 4156 2450 4653 2450 
z
M 1428 4353 
Q 1159 4353 1004 4120 
Q 850 3888 850 3481 
Q 850 3069 1003 2837 
Q 1156 2606 1428 2606 
Q 1700 2606 1854 2837 
Q 2009 3069 2009 3481 
Q 2009 3884 1853 4118 
Q 1697 4353 1428 4353 
z
M 4250 4750 
L 4750 4750 
L 1831 -91 
L 1331 -91 
L 4250 4750 
z
M 1428 4750 
Q 1922 4750 2215 4408 
Q 2509 4066 2509 3481 
Q 2509 2891 2217 2550 
Q 1925 2209 1428 2209 
Q 931 2209 642 2551 
Q 353 2894 353 3481 
Q 353 4063 643 4406 
Q 934 4750 1428 4750 
z
" transform="scale(0.015625)"/>
       <path id="DejaVuSans-66" d="M 2375 4863 
L 2375 4384 
L 1825 4384 
Q 1516 4384 1395 4259 
Q 1275 4134 1275 3809 
L 1275 3500 
L 2222 3500 
L 2222 3053 
L 1275 3053 
L 1275 0 
L 697 0 
L 697 3053 
L 147 3053 
L 147 3500 
L 697 3500 
L 697 3744 
Q 697 4328 969 4595 
Q 1241 4863 1831 4863 
L 2375 4863 
z
" transform="scale(0.015625)"/>
       <path id="DejaVuSans-6c" d="M 603 4863 
L 1178 4863 
L 1178 0 
L 603 0 
L 603 4863 
z
" transform="scale(0.015625)"/>
       <path id="DejaVuSans-47" d="M 3809 666 
L 3809 1919 
L 2778 1919 
L 2778 2438 
L 4434 2438 
L 4434 434 
Q 4069 175 3628 42 
Q 3188 -91 2688 -91 
Q 1594 -91 976 548 
Q 359 1188 359 2328 
Q 359 3472 976 4111 
Q 1594 4750 2688 4750 
Q 3144 4750 3555 4637 
Q 3966 4525 4313 4306 
L 4313 3634 
Q 3963 3931 3569 4081 
Q 3175 4231 2741 4231 
Q 1884 4231 1454 3753 
Q 1025 3275 1025 2328 
Q 1025 1384 1454 906 
Q 1884 428 2741 428 
Q 3075 428 3337 486 
Q 3600 544 3809 666 
z
" transform="scale(0.015625)"/>
       <path id="DejaVuSans-67" d="M 2906 1791 
Q 2906 2416 2648 2759 
Q 2391 3103 1925 3103 
Q 1463 3103 1205 2759 
Q 947 2416 947 1791 
Q 947 1169 1205 825 
Q 1463 481 1925 481 
Q 2391 481 2648 825 
Q 2906 1169 2906 1791 
z
M 3481 434 
Q 3481 -459 3084 -895 
Q 2688 -1331 1869 -1331 
Q 1566 -1331 1297 -1286 
Q 1028 -1241 775 -1147 
L 775 -588 
Q 1028 -725 1275 -790 
Q 1522 -856 1778 -856 
Q 2344 -856 2625 -561 
Q 2906 -266 2906 331 
L 2906 616 
Q 2728 306 2450 153 
Q 2172 0 1784 0 
Q 1141 0 747 490 
Q 353 981 353 1791 
Q 353 2603 747 3093 
Q 1141 3584 1784 3584 
Q 2172 3584 2450 3431 
Q 2728 3278 2906 2969 
L 2906 3500 
L 3481 3500 
L 3481 434 
z
" transform="scale(0.015625)"/>
       <path id="DejaVuSans-69" d="M 603 3500 
L 1178 3500 
L 1178 0 
L 603 0 
L 603 3500 
z
M 603 4863 
L 1178 4863 
L 1178 4134 
L 603 4134 
L 603 4863 
z
" transform="scale(0.015625)"/>
      </defs>
      <use xlink:href="#DejaVuSans-49"/>
      <use xlink:href="#DejaVuSans-50" x="29.492188"/>
      <use xlink:href="#DejaVuSans-76" x="89.794922"/>
      <use xlink:href="#DejaVuSans-36" x="148.974609"/>
      <use xlink:href="#DejaVuSans-20" x="212.597656"/>
      <use xlink:href="#DejaVuSans-61" x="244.384766"/>
      <use xlink:href="#DejaVuSans-73" x="305.664062"/>
      <use xlink:href="#DejaVuSans-20" x="357.763672"/>
      <use xlink:href="#DejaVuSans-25" x="389.550781"/>
      <use xlink:href="#DejaVuSans-20" x="484.570312"/>
      <use xlink:href="#DejaVuSans-6f" x="516.357422"/>
      <use xlink:href="#DejaVuSans-66" x="577.539062"/>
      <use xlink:href="#DejaVuSans-20" x="612.744141"/>
      <use xlink:href="#DejaVuSans-74" x="644.53125"/>
      <use xlink:href="#DejaVuSans-6f" x="683.740234"/>
      <use xlink:href="#DejaVuSans-74" x="744.921875"/>
      <use xlink:href="#DejaVuSans-61" x="784.130859"/>
      <use xlink:href="#DejaVuSans-6c" x="845.410156"/>
      <use xlink:href="#DejaVuSans-20" x="873.193359"/>
      <use xlink:href="#DejaVuSans-47" x="904.980469"/>
      <use xlink:href="#DejaVuSans-6f" x="982.470703"/>
      <use xlink:href="#DejaVuSans-6f" x="1043.652344"/>
      <use xlink:href="#DejaVuSans-67" x="1104.833984"/>
      <use xlink:href="#DejaVuSans-6c" x="1168.310547"/>
      <use xlink:href="#DejaVuSans-65" x="1196.09375"/>
      <use xlink:href="#DejaVuSans-20" x="1257.617188"/>
      <use xlink:href="#DejaVuSans-74" x="1289.404297"/>
      <use xlink:href="#DejaVuSans-72" x="1328.613281"/>
      <use xlink:href="#DejaVuSans-61" x="1369.726562"/>
      <use xlink:href="#DejaVuSans-66" x="1431.005859"/>
      <use xlink:href="#DejaVuSans-66" x="1466.210938"/>
      <use xlink:href="#DejaVuSans-69" x="1501.416016"/>
      <use xlink:href="#DejaVuSans-63" x="1529.199219"/>
     </g>
    </g>
   </g>
   <g id="line2d_15">
    <path d="M 73.832727 294.588568 
L 75.466209 294.423537 
L 75.87458 294.580685 
L 77.508062 294.579995 
L 79.141544 294.436748 
L 79.549914 294.310074 
L 80.775026 294.331089 
L 82.816878 294.317829 
L 83.633619 294.258479 
L 84.45036 294.255246 
L 85.675472 294.283021 
L 87.308954 294.207568 
L 90.575918 294.272989 
L 90.984288 294.375806 
L 93.026141 294.350826 
L 94.251252 294.301753 
L 95.884734 294.205826 
L 96.701475 294.214585 
L 97.109846 293.954396 
L 99.560069 293.865144 
L 100.37681 293.830897 
L 102.418662 293.913731 
L 104.460515 293.964182 
L 106.502367 293.931442 
L 107.727479 294.120988 
L 108.95259 294.068602 
L 109.360961 294.05499 
L 110.177702 294.239266 
L 112.219554 294.256106 
L 113.444666 294.371845 
L 115.486518 294.285132 
L 116.303259 294.180108 
L 116.71163 294.093539 
L 117.52837 294.089274 
L 120.386964 294.02637 
L 121.203705 294.117017 
L 121.612075 293.989333 
L 124.062298 294.226167 
L 127.329262 294.055551 
L 127.737633 294.061259 
L 128.146003 293.939726 
L 128.962744 294.041383 
L 129.779485 293.852692 
L 130.187856 293.8996 
L 130.596226 293.783759 
L 131.004597 293.834478 
L 131.821338 293.726686 
L 133.046449 293.711342 
L 133.45482 293.844338 
L 135.088302 293.874379 
L 135.905043 293.88866 
L 136.313413 293.850891 
L 136.721784 293.675411 
L 138.355266 293.579313 
L 138.763636 293.675037 
L 142.438971 293.358828 
L 143.255712 293.16344 
L 144.072453 293.311038 
L 146.931046 292.910638 
L 147.339417 292.841219 
L 147.747787 292.94823 
L 148.972899 292.583515 
L 149.381269 292.662276 
L 149.78964 292.481351 
L 152.239863 292.106839 
L 154.281715 291.626229 
L 155.506827 291.502677 
L 155.915197 291.603601 
L 157.95705 291.223996 
L 159.182161 290.848923 
L 159.590532 290.90567 
L 159.998902 290.56896 
L 160.407273 290.406537 
L 162.040755 290.210695 
L 162.449125 290.368629 
L 163.265866 290.177886 
L 163.674237 290.130571 
L 164.082607 289.884968 
L 164.899348 289.721086 
L 166.53283 289.704015 
L 167.349571 289.494658 
L 168.574683 289.340396 
L 168.983053 289.138702 
L 169.391424 289.119248 
L 169.799794 289.223539 
L 171.433276 288.469519 
L 171.841647 288.486792 
L 173.475129 288.012655 
L 173.883499 287.694906 
L 174.29187 287.622003 
L 174.70024 287.425365 
L 175.108611 287.457389 
L 176.333722 286.974524 
L 176.742093 287.059906 
L 177.150463 286.822234 
L 177.558834 286.780462 
L 179.600686 285.663874 
L 180.417427 285.323941 
L 181.234168 284.728591 
L 182.45928 283.257202 
L 182.86765 283.491562 
L 183.276021 283.532105 
L 184.501132 282.134223 
L 184.909503 281.966605 
L 185.317873 281.260033 
L 186.134614 281.039623 
L 186.951355 280.569317 
L 187.359726 280.618331 
L 188.584837 279.846749 
L 188.993208 279.682867 
L 189.401578 279.379794 
L 190.218319 279.307981 
L 190.62669 278.621412 
L 191.03506 278.612364 
L 191.443431 277.857531 
L 191.851801 277.466607 
L 192.668542 277.578808 
L 193.076913 277.299337 
L 193.485283 276.868836 
L 194.302024 276.367699 
L 194.710395 275.919696 
L 195.118765 276.194368 
L 196.752247 275.315373 
L 197.160617 274.990361 
L 197.568988 273.654769 
L 197.977358 273.908123 
L 198.794099 273.001192 
L 199.20247 272.962253 
L 199.61084 273.354326 
L 200.835952 272.4622 
L 201.244322 271.856974 
L 202.061063 271.903636 
L 202.469434 271.248766 
L 202.877804 271.203691 
L 203.286175 267.73433 
L 203.694545 270.01699 
L 204.102916 271.376808 
L 204.511286 270.716059 
L 204.919657 270.346816 
L 205.328027 270.287311 
L 205.736398 269.418289 
L 206.144768 269.14599 
L 207.36988 267.259803 
L 207.77825 266.028235 
L 208.186621 265.325291 
L 208.594991 264.37094 
L 209.003362 263.740841 
L 209.411732 264.747135 
L 209.820103 264.593135 
L 210.228473 264.620995 
L 210.636844 264.783557 
L 211.045214 265.0871 
L 211.453585 264.971292 
L 211.861955 262.75205 
L 212.270326 263.080305 
L 213.495437 261.910909 
L 213.903808 261.753515 
L 214.720549 261.822715 
L 215.128919 260.145159 
L 215.53729 260.084062 
L 216.354031 258.760174 
L 216.762401 259.211539 
L 217.170772 257.145212 
L 217.579142 257.633619 
L 217.987513 256.238725 
L 218.395883 255.570777 
L 218.804254 254.567828 
L 219.212624 255.264316 
L 219.620995 254.209275 
L 220.029365 252.454085 
L 220.437736 253.338537 
L 220.846106 253.590672 
L 221.254477 253.045849 
L 221.662847 251.440966 
L 222.071218 251.886773 
L 222.479588 250.469822 
L 222.887959 250.796229 
L 223.7047 248.885142 
L 224.11307 247.917034 
L 225.338182 247.613085 
L 225.746552 246.49522 
L 226.154923 246.631252 
L 226.563293 246.211906 
L 226.971664 245.103976 
L 227.380034 244.822779 
L 227.788405 243.583958 
L 228.196775 242.734705 
L 228.605146 242.585034 
L 229.013516 242.794071 
L 229.421887 242.2537 
L 229.830257 239.951742 
L 230.646998 241.301994 
L 231.055369 241.042618 
L 231.87211 240.964893 
L 232.28048 241.010626 
L 233.097221 240.732886 
L 233.505592 239.437724 
L 233.913962 239.376413 
L 234.322333 238.227802 
L 234.730703 238.224574 
L 235.139074 238.050088 
L 236.364185 234.764962 
L 236.772556 232.83006 
L 237.180926 234.151404 
L 237.589297 233.597575 
L 237.997667 232.452822 
L 238.406038 232.707635 
L 238.814408 230.263611 
L 239.222779 230.62218 
L 239.631149 230.322501 
L 240.03952 228.617149 
L 240.44789 228.601009 
L 240.856261 227.329854 
L 241.264631 227.635925 
L 241.673002 226.630508 
L 242.081372 226.0964 
L 242.489743 226.380152 
L 242.898113 225.691708 
L 243.306484 224.617695 
L 243.714854 224.961027 
L 244.123225 224.451653 
L 244.531595 222.76149 
L 244.939966 222.054687 
L 245.348336 222.120804 
L 245.756707 220.144317 
L 246.165077 220.495799 
L 246.981818 218.141706 
L 247.390189 215.79261 
L 247.798559 216.024789 
L 248.6153 214.703878 
L 249.023671 213.223831 
L 249.432041 213.421693 
L 249.840412 212.801423 
L 250.248782 210.461241 
L 250.657153 209.64018 
L 251.065523 205.760265 
L 251.473894 208.282847 
L 251.882264 207.825491 
L 252.290635 208.427077 
L 252.699005 207.720644 
L 253.515746 208.867951 
L 253.924117 208.63923 
L 254.332487 207.633508 
L 254.740858 207.935971 
L 255.557599 206.655053 
L 255.965969 205.593668 
L 256.37434 205.425345 
L 256.78271 204.707864 
L 257.191081 202.127808 
L 257.599451 202.937422 
L 258.007822 199.47758 
L 258.416192 199.745401 
L 258.824563 197.864761 
L 259.232933 196.7056 
L 260.458045 194.573675 
L 260.866415 192.828966 
L 261.274786 189.952433 
L 261.683156 190.678823 
L 263.316638 187.402664 
L 263.725009 186.863864 
L 264.133379 186.884258 
L 264.54175 187.181105 
L 264.95012 186.161786 
L 265.358491 184.733206 
L 265.766861 186.013018 
L 266.175232 186.03772 
L 266.583602 187.177887 
L 266.991973 185.93011 
L 267.400343 183.990147 
L 267.808714 184.238728 
L 268.217084 183.401211 
L 269.442196 182.069306 
L 270.258937 181.09098 
L 270.667307 180.985005 
L 271.075678 195.170398 
L 271.484048 179.184163 
L 271.892419 178.416867 
L 272.300789 174.540265 
L 272.70916 178.136845 
L 273.525901 177.611315 
L 273.934271 177.608771 
L 274.342642 177.127467 
L 274.751012 176.890275 
L 275.159383 178.20791 
L 275.567753 179.043241 
L 275.976123 178.840173 
L 276.384494 177.708483 
L 276.792864 177.789745 
L 278.017976 176.838119 
L 278.426346 174.295715 
L 278.834717 175.299208 
L 279.243087 172.606593 
L 279.651458 173.741966 
L 280.059828 171.481877 
L 280.468199 170.070693 
L 280.876569 170.902764 
L 281.28494 169.172175 
L 281.69331 168.023088 
L 282.101681 167.77875 
L 282.510051 168.71817 
L 282.918422 169.213712 
L 284.143533 166.675749 
L 284.551904 167.25941 
L 284.960274 168.100534 
L 285.368645 168.263636 
L 285.777015 166.338691 
L 286.185386 165.621702 
L 286.593756 164.226295 
L 287.002127 163.882487 
L 287.410497 163.687062 
L 287.818868 163.833088 
L 288.227238 163.649026 
L 289.043979 161.732209 
L 289.45235 162.850513 
L 289.86072 159.307971 
L 290.269091 159.399088 
L 290.677461 158.967097 
L 291.085832 156.383353 
L 291.494202 155.608121 
L 291.902573 155.14216 
L 292.310943 155.145554 
L 292.719314 153.744792 
L 293.127684 153.649303 
L 293.944425 151.434545 
L 294.352796 152.89641 
L 294.761166 153.838004 
L 295.577907 151.595658 
L 295.986278 152.695448 
L 296.394648 152.494358 
L 296.803019 152.973081 
L 297.211389 151.280534 
L 297.61976 150.689984 
L 298.02813 151.969609 
L 298.436501 150.132746 
L 298.844871 150.279718 
L 299.253242 149.755754 
L 300.069983 149.552633 
L 300.478353 145.924249 
L 300.886724 145.818557 
L 301.295094 146.104918 
L 301.703465 146.982539 
L 302.520206 142.748304 
L 302.928576 140.880405 
L 303.336947 140.4063 
L 303.745317 140.569145 
L 304.153688 140.228234 
L 304.562058 138.372772 
L 304.970429 139.902886 
L 305.378799 138.273755 
L 305.78717 139.785543 
L 306.19554 138.701803 
L 306.603911 138.045794 
L 307.012281 137.991088 
L 307.420652 138.064996 
L 307.829022 136.652268 
L 308.237393 136.812783 
L 308.645763 138.341764 
L 309.054134 137.823684 
L 309.462504 138.450854 
L 309.870875 138.70719 
L 310.279245 136.747709 
L 310.687616 137.921252 
L 311.095986 138.236601 
L 311.504357 137.508351 
L 311.912727 137.063389 
L 312.321098 135.308152 
L 312.729468 135.678607 
L 313.137839 135.296586 
L 313.546209 135.423276 
L 313.95458 134.402573 
L 314.36295 133.956077 
L 314.771321 132.664128 
L 315.179691 132.099424 
L 315.588062 132.897766 
L 315.996432 133.135134 
L 316.404803 133.188535 
L 317.221544 131.351277 
L 317.629914 131.791723 
L 318.038285 130.451983 
L 318.446655 131.031829 
L 318.855026 130.781249 
L 319.263396 129.854582 
L 319.671767 130.081042 
L 320.080137 130.717618 
L 320.488508 130.427415 
L 320.896878 130.442583 
L 321.305249 128.035462 
L 322.12199 126.321676 
L 322.53036 126.604637 
L 322.938731 126.005504 
L 323.347101 124.011445 
L 323.755472 124.656492 
L 324.163842 121.79503 
L 324.572213 124.085038 
L 324.980583 122.189295 
L 325.388954 119.597839 
L 325.797324 120.355916 
L 326.205695 118.737812 
L 326.614065 117.645948 
L 327.022436 117.750399 
L 327.430806 116.931246 
L 327.839177 118.984794 
L 328.247547 117.274001 
L 328.655918 117.915484 
L 329.064288 118.29185 
L 330.2894 115.667024 
L 330.69777 117.852393 
L 331.106141 117.89618 
L 331.514511 116.930102 
L 331.922882 117.477528 
L 332.331252 118.804772 
L 332.739623 117.772531 
L 333.147993 115.37076 
L 333.556364 119.357981 
L 333.964734 118.283924 
L 334.373105 116.729301 
L 334.781475 118.033436 
L 335.189846 118.127664 
L 335.598216 115.997978 
L 336.006587 114.937379 
L 336.414957 112.993055 
L 336.823328 113.941218 
L 337.231698 113.222877 
L 337.640069 113.444436 
L 338.048439 114.053099 
L 338.45681 112.498855 
L 338.86518 111.86161 
L 339.273551 113.01384 
L 339.681921 112.726656 
L 340.090292 110.233335 
L 340.498662 109.684883 
L 340.907033 107.987991 
L 341.315403 110.774519 
L 341.723774 111.698674 
L 342.132144 110.790167 
L 342.540515 110.616425 
L 342.948885 110.758908 
L 343.357256 105.84418 
L 343.765626 109.129703 
L 344.173997 107.236461 
L 344.990738 108.19419 
L 345.399108 103.539422 
L 345.807479 102.944532 
L 346.215849 101.072102 
L 346.62422 100.997579 
L 347.03259 102.691243 
L 347.440961 100.355626 
L 347.849331 99.896517 
L 348.257702 98.690362 
L 348.666072 98.254165 
L 349.074443 96.883759 
L 349.482813 97.088649 
L 349.891184 100.411165 
L 350.299554 98.619473 
L 350.707925 97.485014 
L 351.116295 99.642603 
L 351.524666 98.449456 
L 351.933036 98.029452 
L 352.341407 96.306832 
L 353.158148 99.048488 
L 353.566518 98.747387 
L 353.974889 99.177235 
L 354.383259 99.041043 
L 354.79163 97.496446 
L 355.2 99.282355 
L 355.60837 97.136701 
L 356.016741 96.377908 
L 356.425111 96.298409 
L 357.241852 93.627172 
L 357.650223 90.646475 
L 358.058593 92.679298 
L 358.466964 96.476122 
L 358.875334 92.199335 
L 359.283705 91.998426 
L 359.692075 94.868386 
L 360.508816 91.048537 
L 360.917187 90.997477 
L 361.325557 91.803873 
L 361.733928 91.770967 
L 362.142298 92.38849 
L 362.550669 85.128831 
L 362.959039 84.353833 
L 363.36741 84.570246 
L 363.77578 83.086559 
L 364.184151 82.599921 
L 364.592521 80.019459 
L 365.000892 83.298301 
L 365.409262 84.576766 
L 365.817633 81.771784 
L 366.226003 83.620111 
L 366.634374 80.476911 
L 367.042744 78.876513 
L 367.451115 74.993963 
L 367.859485 76.038689 
L 368.267856 70.286119 
L 369.084597 74.318511 
L 369.492967 76.159912 
L 369.901338 74.482772 
L 370.309708 74.809932 
L 370.718079 75.513539 
L 371.126449 75.370286 
L 371.53482 77.415027 
L 371.94319 76.461867 
L 372.351561 74.967604 
L 372.759931 75.312262 
L 373.168302 73.780898 
L 373.576672 74.169973 
L 373.985043 72.297109 
L 374.393413 73.619207 
L 374.801784 77.186509 
L 375.210154 74.785909 
L 375.618525 71.146489 
L 376.026895 74.162608 
L 376.435266 72.410519 
L 376.843636 74.230301 
L 377.252007 72.587045 
L 377.660377 72.56368 
L 378.885489 66.23732 
L 379.293859 69.071798 
L 379.70223 68.855059 
L 380.1106 67.436249 
L 380.518971 67.854419 
L 380.927341 70.272288 
L 381.744082 68.18337 
L 382.152453 69.71436 
L 382.560823 68.853023 
L 382.969194 67.184013 
L 383.377564 67.216469 
L 384.194305 64.447087 
L 384.602676 65.655337 
L 385.011046 65.635739 
L 385.419417 63.005621 
L 385.827787 64.360501 
L 386.644528 64.133261 
L 387.052899 62.672454 
L 387.461269 64.340609 
L 387.86964 64.389703 
L 388.27801 61.453718 
L 388.686381 61.417761 
L 389.094751 60.028484 
L 389.503122 56.364912 
L 389.911492 57.939422 
L 390.728233 57.075423 
L 391.136604 56.920183 
L 391.544974 57.312166 
L 391.953345 55.953994 
L 392.361715 57.547498 
L 393.178456 53.568 
L 393.586827 55.15531 
L 393.995197 57.309115 
L 394.403568 58.150837 
L 394.811938 54.17376 
L 395.220309 56.54084 
L 395.628679 55.313227 
L 396.03705 59.600758 
L 396.44542 56.78459 
L 396.853791 55.736042 
L 397.262161 58.119583 
L 397.670532 58.338368 
L 398.078902 59.606498 
L 398.487273 83.444893 
L 398.487273 83.444893 
" clip-path="url(#pa3e627148d)" style="fill: none; stroke: #1f77b4; stroke-width: 1.5; stroke-linecap: square"/>
   </g>
   <g id="line2d_16">
    <path d="M 73.832727 294.843968 
L 75.466209 294.708187 
L 75.87458 294.821826 
L 84.858731 294.572695 
L 85.675472 294.564064 
L 87.717324 294.499262 
L 89.759177 294.565608 
L 91.392659 294.562615 
L 97.109846 294.481941 
L 97.518216 294.290615 
L 113.444666 294.482368 
L 115.486518 294.483496 
L 116.71163 294.31552 
L 118.345111 294.290273 
L 120.386964 294.232195 
L 125.28741 294.408428 
L 131.004597 293.967346 
L 131.821338 293.911539 
L 132.638079 293.849827 
L 133.45482 293.94584 
L 134.271561 293.958458 
L 135.088302 294.008926 
L 136.313413 294.043034 
L 137.130154 293.745568 
L 137.946895 293.783588 
L 138.355266 293.86213 
L 139.988748 293.762093 
L 140.397118 293.815815 
L 140.805489 293.684914 
L 142.847341 293.638267 
L 143.664082 293.471489 
L 146.522676 293.377849 
L 148.564528 293.110285 
L 148.972899 293.228739 
L 150.19801 292.910141 
L 151.831492 292.651042 
L 152.648233 292.658332 
L 153.873345 292.25372 
L 155.506827 291.96985 
L 155.915197 292.092569 
L 157.548679 291.966029 
L 163.265866 290.924419 
L 163.674237 290.970162 
L 164.490978 290.708792 
L 165.307719 290.604858 
L 165.716089 290.365941 
L 166.941201 290.637871 
L 167.757942 290.450217 
L 168.166312 290.395057 
L 168.574683 290.1629 
L 168.983053 290.180285 
L 169.391424 290.008312 
L 170.616535 289.920439 
L 171.024906 289.675214 
L 172.250017 289.427248 
L 172.658388 289.429926 
L 173.066758 289.272842 
L 173.475129 289.256878 
L 175.108611 288.769786 
L 175.925352 288.535688 
L 176.333722 288.287717 
L 176.742093 288.428409 
L 177.967204 287.933402 
L 178.783945 287.520806 
L 179.192316 287.208161 
L 180.009057 286.990974 
L 180.417427 287.090765 
L 181.234168 286.938181 
L 182.45928 285.770624 
L 182.86765 285.490158 
L 183.276021 285.567263 
L 183.684391 285.41679 
L 184.909503 284.540114 
L 185.317873 284.391774 
L 186.134614 283.68355 
L 186.542985 283.586511 
L 186.951355 282.249904 
L 187.359726 282.374696 
L 187.768096 283.265107 
L 188.176467 283.168415 
L 188.993208 282.485177 
L 189.401578 283.102588 
L 189.809949 282.303156 
L 190.218319 282.253987 
L 190.62669 282.005502 
L 191.03506 281.424316 
L 191.443431 281.453849 
L 192.260172 280.563689 
L 192.668542 280.590535 
L 193.076913 280.391646 
L 193.485283 279.669602 
L 193.893654 279.91341 
L 194.302024 279.366898 
L 194.710395 279.530833 
L 195.118765 279.333543 
L 195.527136 279.414057 
L 195.935506 278.798276 
L 196.343877 278.822011 
L 196.752247 278.193788 
L 197.160617 278.302932 
L 197.977358 276.976981 
L 198.385729 276.714585 
L 198.794099 276.631137 
L 199.20247 276.326808 
L 199.61084 276.296644 
L 200.019211 276.413137 
L 200.427581 276.391043 
L 201.652693 275.955984 
L 202.061063 276.097633 
L 202.877804 275.731587 
L 203.286175 275.100505 
L 203.694545 273.683987 
L 204.102916 274.741348 
L 204.511286 275.089437 
L 204.919657 274.72401 
L 205.328027 274.935982 
L 205.736398 274.40716 
L 206.553139 273.723387 
L 206.961509 273.045519 
L 207.36988 272.620395 
L 207.77825 271.729798 
L 208.186621 269.093983 
L 208.594991 267.405701 
L 209.003362 269.906734 
L 209.411732 270.566275 
L 209.820103 270.584414 
L 210.228473 270.848024 
L 210.636844 270.82904 
L 211.045214 271.181837 
L 211.453585 270.45378 
L 211.861955 270.581801 
L 212.270326 269.22202 
L 212.678696 268.806495 
L 213.087067 269.042735 
L 213.903808 267.68676 
L 214.312178 268.053773 
L 214.720549 268.018388 
L 215.128919 267.581405 
L 215.53729 266.947158 
L 215.94566 266.61716 
L 216.354031 266.663935 
L 217.170772 264.697934 
L 217.579142 264.119676 
L 217.987513 263.808924 
L 218.395883 262.676239 
L 218.804254 262.28393 
L 220.029365 259.999935 
L 220.437736 260.387701 
L 221.254477 260.006321 
L 222.071218 259.274079 
L 222.479588 259.59241 
L 223.296329 259.188739 
L 224.11307 258.178715 
L 225.338182 257.662436 
L 225.746552 257.665819 
L 226.154923 256.606872 
L 226.563293 256.500207 
L 226.971664 256.529228 
L 227.380034 255.98689 
L 228.605146 253.30166 
L 229.013516 252.795157 
L 229.421887 250.350946 
L 229.830257 246.902499 
L 230.238628 252.019091 
L 230.646998 253.134027 
L 231.055369 252.822724 
L 231.463739 252.273769 
L 231.87211 252.348474 
L 232.28048 252.631195 
L 233.097221 251.476192 
L 233.913962 250.949176 
L 234.322333 250.52292 
L 234.730703 249.305755 
L 235.139074 249.023403 
L 235.547444 248.954401 
L 236.364185 247.877367 
L 236.772556 246.597122 
L 237.180926 245.799245 
L 237.589297 246.302088 
L 238.406038 244.729502 
L 238.814408 243.282826 
L 239.222779 242.862042 
L 239.631149 242.656249 
L 240.44789 240.336301 
L 240.856261 238.529554 
L 241.264631 239.320772 
L 241.673002 239.17163 
L 242.081372 238.262514 
L 242.489743 237.648924 
L 242.898113 237.491829 
L 243.306484 237.602913 
L 243.714854 238.856725 
L 244.123225 238.213847 
L 244.531595 238.501549 
L 244.939966 237.819032 
L 245.348336 237.893224 
L 245.756707 237.125569 
L 246.573448 234.978504 
L 246.981818 235.194163 
L 247.798559 232.157424 
L 248.20693 232.876995 
L 248.6153 232.317763 
L 249.023671 230.994298 
L 249.432041 230.896035 
L 249.840412 230.007788 
L 250.248782 229.502049 
L 250.657153 225.974424 
L 251.065523 217.834829 
L 251.473894 223.694394 
L 251.882264 226.818749 
L 252.290635 227.148795 
L 253.107376 226.804849 
L 253.515746 226.900322 
L 253.924117 226.856588 
L 254.332487 225.884097 
L 254.740858 225.641385 
L 255.149228 225.944319 
L 255.965969 224.806573 
L 256.78271 222.763761 
L 257.191081 220.526289 
L 257.599451 221.27899 
L 258.007822 221.167521 
L 258.416192 217.109615 
L 258.824563 217.999587 
L 259.641304 215.292104 
L 260.049674 212.687036 
L 260.458045 212.59315 
L 260.866415 212.236392 
L 261.683156 207.698646 
L 262.091527 207.397588 
L 262.499897 206.727577 
L 262.908268 206.400369 
L 263.725009 203.810672 
L 264.133379 203.588679 
L 264.54175 203.511992 
L 264.95012 204.647392 
L 265.358491 204.77816 
L 265.766861 205.741421 
L 266.175232 206.413329 
L 266.991973 206.94881 
L 267.400343 204.652068 
L 267.808714 204.072811 
L 268.217084 204.573735 
L 268.625455 203.551199 
L 269.033825 201.669752 
L 269.442196 203.307343 
L 269.850566 203.9565 
L 270.258937 202.019001 
L 270.667307 201.780687 
L 271.075678 200.68956 
L 271.484048 195.170398 
L 271.892419 197.380405 
L 272.300789 188.252874 
L 273.11753 199.090861 
L 273.525901 197.684552 
L 273.934271 199.162087 
L 274.342642 198.613614 
L 274.751012 198.522502 
L 275.159383 197.091543 
L 275.567753 199.507113 
L 275.976123 200.176056 
L 276.384494 199.549757 
L 276.792864 198.177887 
L 277.201235 197.710194 
L 277.609605 196.639334 
L 278.017976 196.564752 
L 278.426346 198.460265 
L 278.834717 197.37684 
L 279.243087 195.836171 
L 279.651458 193.670887 
L 280.059828 193.465014 
L 280.468199 192.5696 
L 280.876569 192.67898 
L 281.28494 190.37396 
L 281.69331 190.320788 
L 282.101681 188.734381 
L 282.510051 188.481835 
L 282.918422 187.99773 
L 283.326792 186.481987 
L 284.143533 186.494515 
L 284.960274 185.881208 
L 285.368645 186.792852 
L 285.777015 185.247363 
L 286.185386 184.424586 
L 286.593756 187.370677 
L 287.002127 187.51711 
L 287.410497 187.377716 
L 287.818868 187.466685 
L 288.227238 187.392418 
L 288.635609 185.917288 
L 289.043979 186.26906 
L 289.45235 186.864805 
L 289.86072 186.207289 
L 290.269091 183.189191 
L 290.677461 184.016351 
L 291.085832 183.603872 
L 291.494202 180.395497 
L 291.902573 181.965229 
L 293.127684 177.779291 
L 293.536055 164.692106 
L 293.944425 169.711995 
L 294.352796 177.26196 
L 294.761166 178.647635 
L 295.577907 177.309039 
L 295.986278 175.996268 
L 296.394648 176.977726 
L 296.803019 176.699233 
L 297.211389 177.732116 
L 297.61976 175.400341 
L 298.02813 177.459913 
L 298.844871 175.321275 
L 299.253242 175.29124 
L 299.661612 175.930184 
L 300.069983 173.257311 
L 300.478353 172.805358 
L 300.886724 170.567496 
L 301.295094 172.622674 
L 301.703465 173.92977 
L 302.111835 171.419571 
L 302.928576 164.419181 
L 303.336947 165.949113 
L 303.745317 164.688787 
L 304.153688 164.000476 
L 304.562058 162.365692 
L 304.970429 163.045435 
L 305.378799 163.235462 
L 305.78717 163.064654 
L 306.19554 162.521103 
L 306.603911 161.654207 
L 307.012281 159.234666 
L 307.420652 162.291724 
L 307.829022 163.157193 
L 308.237393 163.320011 
L 308.645763 164.695612 
L 309.054134 165.459012 
L 309.870875 165.17558 
L 310.279245 165.705962 
L 310.687616 165.399966 
L 311.095986 166.093755 
L 311.912727 163.294443 
L 312.321098 165.056345 
L 312.729468 164.457784 
L 313.137839 162.967994 
L 313.546209 163.132571 
L 313.95458 162.415069 
L 314.36295 160.181065 
L 314.771321 147.830446 
L 315.179691 147.501639 
L 315.588062 159.590638 
L 315.996432 161.285703 
L 316.404803 161.632739 
L 316.813173 160.466052 
L 317.221544 158.890324 
L 318.038285 157.124659 
L 318.446655 157.074657 
L 318.855026 157.660461 
L 319.263396 157.24081 
L 319.671767 147.814172 
L 320.080137 143.699962 
L 320.488508 142.097842 
L 320.896878 143.292357 
L 322.12199 139.106596 
L 322.53036 139.400396 
L 322.938731 141.617254 
L 323.347101 139.585795 
L 323.755472 138.810487 
L 324.163842 140.624332 
L 324.572213 141.621557 
L 325.388954 138.485775 
L 325.797324 135.500354 
L 326.205695 135.27453 
L 326.614065 133.654234 
L 327.022436 135.053767 
L 327.430806 134.861362 
L 327.839177 135.967324 
L 328.247547 134.907586 
L 328.655918 134.91642 
L 329.064288 135.850185 
L 329.472659 137.501404 
L 329.881029 136.712382 
L 330.2894 138.606997 
L 331.106141 138.740715 
L 331.514511 139.471958 
L 331.922882 138.139546 
L 332.331252 138.327611 
L 332.739623 137.273955 
L 333.147993 135.366892 
L 333.556364 137.541722 
L 333.964734 137.979394 
L 334.373105 137.766648 
L 334.781475 140.210736 
L 335.189846 138.16343 
L 336.006587 129.886531 
L 336.414957 123.302905 
L 337.231698 133.152674 
L 337.640069 132.423682 
L 338.048439 133.333022 
L 338.45681 132.206483 
L 339.273551 131.241892 
L 339.681921 131.385032 
L 340.090292 133.024851 
L 340.498662 132.619117 
L 340.907033 132.414174 
L 341.315403 130.487251 
L 341.723774 133.644464 
L 342.540515 130.671517 
L 342.948885 132.913008 
L 343.357256 131.610958 
L 343.765626 128.222817 
L 344.173997 128.555695 
L 344.582367 126.540659 
L 344.990738 125.359922 
L 345.399108 127.213738 
L 345.807479 127.588544 
L 346.62422 120.175237 
L 347.03259 120.049028 
L 347.440961 119.682281 
L 347.849331 118.931441 
L 348.257702 116.205551 
L 348.666072 117.64366 
L 349.074443 116.283126 
L 349.482813 116.387342 
L 349.891184 117.620086 
L 350.299554 120.635938 
L 350.707925 121.335237 
L 351.116295 121.385448 
L 351.524666 122.898337 
L 351.933036 120.700841 
L 352.749777 121.875362 
L 353.158148 122.149292 
L 353.566518 121.924777 
L 353.974889 121.481525 
L 354.383259 123.864697 
L 354.79163 122.768183 
L 355.2 123.292532 
L 355.60837 121.734392 
L 356.016741 122.81421 
L 356.833482 120.156606 
L 357.241852 114.859463 
L 357.650223 102.455799 
L 358.466964 114.854738 
L 358.875334 115.1952 
L 359.283705 116.933379 
L 359.692075 115.288381 
L 360.100446 118.06081 
L 360.508816 117.081323 
L 360.917187 113.637216 
L 361.325557 115.523226 
L 361.733928 115.516765 
L 362.142298 117.828434 
L 362.550669 113.906912 
L 362.959039 107.269917 
L 363.36741 107.42698 
L 363.77578 117.879371 
L 364.184151 106.145393 
L 365.000892 102.667947 
L 365.409262 106.37367 
L 365.817633 106.194835 
L 366.226003 104.845593 
L 366.634374 101.742354 
L 367.042744 102.38653 
L 367.859485 94.746063 
L 368.267856 95.517688 
L 368.676226 95.293184 
L 369.084597 92.834805 
L 369.492967 92.743287 
L 369.901338 93.6567 
L 370.309708 92.397608 
L 370.718079 93.241116 
L 371.126449 93.343425 
L 371.53482 96.693716 
L 371.94319 97.529127 
L 372.759931 100.545113 
L 373.168302 98.473549 
L 373.576672 99.615073 
L 373.985043 99.747257 
L 374.393413 96.884342 
L 374.801784 100.099547 
L 375.210154 100.992523 
L 375.618525 97.88309 
L 376.026895 97.042003 
L 376.435266 99.342443 
L 376.843636 95.805518 
L 377.252007 99.249327 
L 377.660377 99.553233 
L 378.068748 95.165863 
L 378.885489 80.900111 
L 379.293859 88.20104 
L 379.70223 93.175508 
L 380.1106 93.100546 
L 380.518971 93.688077 
L 380.927341 92.541031 
L 381.335712 92.675209 
L 381.744082 93.401246 
L 382.560823 91.071631 
L 382.969194 94.121923 
L 383.785935 86.813206 
L 384.194305 90.549415 
L 384.602676 86.236814 
L 385.011046 88.930423 
L 385.419417 89.591979 
L 385.827787 88.292387 
L 386.236158 85.094386 
L 386.644528 89.938224 
L 387.052899 89.777864 
L 387.461269 86.327065 
L 387.86964 86.912014 
L 388.27801 86.329 
L 388.686381 81.65372 
L 389.503122 77.046966 
L 389.911492 77.407555 
L 390.319863 77.231371 
L 390.728233 76.091936 
L 391.136604 77.497128 
L 391.544974 76.003421 
L 391.953345 77.010367 
L 392.361715 75.607467 
L 393.178456 81.060471 
L 393.586827 82.622688 
L 393.995197 81.550978 
L 394.403568 83.223494 
L 394.811938 82.758191 
L 395.220309 82.077336 
L 395.628679 81.772719 
L 396.03705 83.974378 
L 396.44542 84.666563 
L 396.853791 81.880816 
L 397.262161 82.83397 
L 397.670532 85.346916 
L 398.078902 82.759602 
L 398.487273 84.482736 
L 398.487273 84.482736 
" clip-path="url(#pa3e627148d)" style="fill: none; stroke: #ff7f0e; stroke-width: 1.5; stroke-linecap: square"/>
   </g>
   <g id="line2d_17">
    <path d="M 73.832727 295.306888 
L 79.958285 295.277082 
L 80.366655 295.344352 
L 81.183396 295.233674 
L 81.591767 295.31848 
L 82.000137 295.21941 
L 82.408508 295.317902 
L 83.633619 295.217571 
L 95.067993 295.281053 
L 95.476364 295.23958 
L 95.884734 295.335021 
L 97.109846 295.034743 
L 97.518216 295.226646 
L 112.627925 295.429959 
L 113.853036 295.434107 
L 118.345111 295.298304 
L 119.161852 295.324856 
L 119.570223 295.390314 
L 120.386964 295.356463 
L 121.203705 295.357152 
L 122.020446 295.366996 
L 122.428816 295.462079 
L 125.69578 295.367942 
L 142.438971 295.288268 
L 142.847341 295.145405 
L 144.072453 295.403809 
L 144.889194 295.144315 
L 145.297564 295.230478 
L 145.705935 295.113456 
L 147.747787 295.321366 
L 148.564528 295.239906 
L 148.972899 294.917064 
L 149.381269 295.126593 
L 149.78964 295.028774 
L 151.014751 295.216331 
L 151.423122 295.072935 
L 151.831492 295.120334 
L 152.648233 294.892341 
L 153.056604 294.945881 
L 153.873345 294.862935 
L 154.281715 295.00646 
L 155.098456 294.849564 
L 155.506827 295.095114 
L 159.590532 294.834252 
L 159.998902 294.618636 
L 160.407273 294.563893 
L 161.224014 294.745438 
L 162.040755 294.701271 
L 162.449125 294.963994 
L 164.082607 294.64198 
L 165.307719 294.67813 
L 165.716089 294.951509 
L 166.941201 294.493234 
L 167.757942 294.575298 
L 168.166312 294.515226 
L 168.574683 294.739784 
L 168.983053 294.520704 
L 169.799794 294.798396 
L 171.024906 294.414863 
L 172.250017 294.51443 
L 172.658388 294.300877 
L 173.066758 294.438656 
L 173.883499 294.134664 
L 174.29187 294.286014 
L 174.70024 294.178665 
L 175.108611 294.249891 
L 175.925352 294.201278 
L 176.742093 294.193785 
L 177.150463 294.085057 
L 177.558834 294.204351 
L 178.783945 294.03265 
L 179.192316 294.23258 
L 180.009057 294.078692 
L 180.417427 293.795463 
L 180.825798 293.666272 
L 181.234168 293.352698 
L 182.050909 293.308302 
L 182.45928 293.048866 
L 182.86765 293.563691 
L 183.276021 293.52713 
L 183.684391 293.231774 
L 184.092762 293.178111 
L 184.501132 292.776471 
L 184.909503 292.988779 
L 185.317873 292.430546 
L 186.134614 292.91836 
L 186.542985 292.815165 
L 186.951355 293.881701 
L 187.359726 293.805922 
L 187.768096 292.620461 
L 188.176467 292.490271 
L 188.584837 292.536612 
L 188.993208 292.759978 
L 189.401578 291.839494 
L 189.809949 292.611584 
L 190.218319 292.616282 
L 190.62669 292.178198 
L 191.03506 292.750336 
L 191.443431 291.96597 
L 191.851801 292.083393 
L 192.260172 292.52052 
L 193.076913 292.469978 
L 193.485283 292.761522 
L 193.893654 292.274558 
L 194.302024 292.563089 
L 194.710395 291.95115 
L 195.118765 292.423112 
L 195.527136 292.144875 
L 195.935506 292.539717 
L 196.343877 292.343667 
L 196.752247 292.683873 
L 197.568988 291.683271 
L 197.977358 292.493429 
L 198.385729 292.361924 
L 198.794099 291.932343 
L 199.20247 292.197732 
L 199.61084 292.61997 
L 200.019211 292.184675 
L 200.835952 291.810821 
L 201.244322 291.275185 
L 201.652693 291.534284 
L 202.061063 291.368291 
L 202.469434 290.907974 
L 202.877804 291.034391 
L 203.286175 288.196113 
L 203.694545 291.89529 
L 204.102916 292.197748 
L 204.511286 291.18891 
L 204.919657 291.185094 
L 205.736398 290.573417 
L 206.144768 290.61761 
L 206.553139 290.331827 
L 206.961509 290.460885 
L 207.77825 289.860725 
L 208.186621 291.793596 
L 208.594991 292.527527 
L 209.003362 289.396395 
L 209.411732 289.743147 
L 210.228473 289.33526 
L 210.636844 289.516805 
L 211.045214 289.467551 
L 211.453585 290.079799 
L 211.861955 287.732536 
L 212.270326 289.420573 
L 212.678696 289.41269 
L 213.087067 288.726725 
L 213.495437 289.082965 
L 213.903808 289.629044 
L 214.312178 289.284835 
L 214.720549 289.366615 
L 215.128919 288.126042 
L 215.53729 288.699191 
L 215.94566 288.291148 
L 216.354031 287.658527 
L 216.762401 289.120402 
L 217.170772 288.009566 
L 217.579142 289.076231 
L 217.987513 287.992089 
L 218.395883 288.456826 
L 218.804254 287.846186 
L 219.212624 289.331005 
L 219.620995 289.009452 
L 220.029365 288.016438 
L 220.846106 288.915106 
L 221.254477 288.601815 
L 221.662847 287.422602 
L 222.071218 288.174981 
L 222.479588 286.4397 
L 222.887959 286.98354 
L 223.296329 286.103529 
L 224.11307 285.300607 
L 224.929811 285.452742 
L 225.338182 285.512936 
L 225.746552 284.391689 
L 226.154923 285.586668 
L 226.563293 285.273986 
L 226.971664 284.137037 
L 227.380034 284.398177 
L 227.788405 284.142274 
L 228.196775 284.255304 
L 229.013516 285.561202 
L 229.421887 287.465042 
L 229.830257 288.611531 
L 230.238628 284.15315 
L 230.646998 283.730255 
L 231.055369 283.782182 
L 231.463739 284.260985 
L 231.87211 284.178707 
L 232.28048 283.941719 
L 233.097221 284.818982 
L 233.505592 283.728459 
L 233.913962 283.989525 
L 234.322333 283.26717 
L 234.730703 284.481106 
L 235.139074 284.588973 
L 235.547444 283.497008 
L 236.364185 282.449882 
L 236.772556 281.795225 
L 237.180926 283.914446 
L 237.589297 282.857775 
L 237.997667 282.524592 
L 238.406038 283.54042 
L 238.814408 282.543073 
L 239.222779 283.322426 
L 239.631149 283.22854 
L 240.03952 282.759769 
L 240.44789 283.826995 
L 240.856261 284.362588 
L 241.264631 283.877441 
L 241.673002 283.021165 
L 242.081372 283.396174 
L 242.489743 284.293516 
L 242.898113 283.762167 
L 243.714854 281.66659 
L 244.123225 281.800094 
L 244.531595 279.822228 
L 245.348336 279.789868 
L 245.756707 278.581035 
L 246.165077 279.957635 
L 246.573448 279.754434 
L 246.981818 278.509831 
L 247.390189 277.850653 
L 247.798559 279.429652 
L 248.20693 278.039055 
L 249.023671 277.791821 
L 249.840412 278.355922 
L 250.248782 276.52148 
L 250.657153 279.228044 
L 251.065523 283.487724 
L 251.882264 276.569029 
L 252.290635 276.84057 
L 252.699005 276.275422 
L 253.107376 277.043359 
L 253.515746 277.529917 
L 253.924117 277.34493 
L 254.332487 277.311698 
L 254.740858 277.856874 
L 255.149228 276.959916 
L 255.557599 276.860627 
L 255.965969 276.349383 
L 256.37434 277.353743 
L 256.78271 277.506391 
L 257.191081 277.163807 
L 257.599451 277.22072 
L 258.007822 273.872347 
L 258.416192 278.198074 
L 258.824563 275.427462 
L 259.232933 275.477128 
L 259.641304 276.277859 
L 260.049674 278.401526 
L 260.458045 277.542813 
L 260.866415 276.154862 
L 261.274786 275.636825 
L 261.683156 278.542464 
L 262.091527 278.002761 
L 262.499897 278.011991 
L 262.908268 277.105627 
L 263.316638 278.043673 
L 263.725009 278.61548 
L 264.133379 278.857867 
L 264.54175 279.2314 
L 265.358491 275.517334 
L 265.766861 275.833885 
L 266.175232 275.186679 
L 266.583602 276.110492 
L 266.991973 274.543587 
L 267.400343 274.900366 
L 267.808714 275.728204 
L 268.217084 274.389764 
L 268.625455 274.923791 
L 269.033825 276.318097 
L 269.442196 274.324252 
L 269.850566 273.247865 
L 270.258937 274.634267 
L 270.667307 274.766606 
L 271.075678 290.043126 
L 271.484048 279.576053 
L 271.892419 276.59875 
L 272.300789 281.84968 
L 272.70916 280.498466 
L 273.11753 274.313023 
L 273.525901 275.489051 
L 273.934271 274.008972 
L 274.342642 274.076141 
L 274.751012 273.930062 
L 275.159383 276.678654 
L 275.567753 275.098415 
L 275.976123 274.226405 
L 276.384494 273.721014 
L 276.792864 275.174146 
L 277.201235 275.337371 
L 277.609605 276.070409 
L 278.017976 275.835654 
L 278.426346 271.397737 
L 278.834717 273.484656 
L 279.243087 272.332709 
L 279.651458 275.633367 
L 280.059828 273.579151 
L 280.468199 273.06338 
L 281.28494 274.360503 
L 281.69331 273.264588 
L 282.510051 275.798623 
L 282.918422 276.778269 
L 283.326792 277.448008 
L 284.143533 275.743521 
L 284.960274 277.781614 
L 285.368645 277.033071 
L 285.777015 276.653616 
L 286.185386 276.759404 
L 286.593756 272.417905 
L 287.002127 271.927665 
L 287.410497 271.871634 
L 287.818868 271.928691 
L 288.227238 271.818895 
L 288.635609 272.343719 
L 289.043979 271.025438 
L 289.45235 271.547996 
L 289.86072 268.66297 
L 290.269091 271.772184 
L 290.677461 270.513034 
L 291.085832 268.341769 
L 291.494202 270.774912 
L 291.902573 268.739219 
L 292.310943 270.080647 
L 292.719314 270.123467 
L 293.127684 271.432299 
L 293.536055 283.245936 
L 294.352796 271.196738 
L 294.761166 270.752657 
L 295.169537 270.486616 
L 295.577907 269.848907 
L 295.986278 272.261468 
L 296.394648 271.078919 
L 296.803019 271.836136 
L 297.211389 269.110706 
L 297.61976 270.85193 
L 298.436501 269.43808 
L 298.844871 270.52073 
L 299.253242 270.026802 
L 299.661612 269.339197 
L 300.069983 271.85761 
L 300.478353 268.681178 
L 300.886724 270.813349 
L 301.295094 269.044531 
L 301.703465 268.615057 
L 302.111835 268.714827 
L 302.928576 272.023512 
L 303.336947 270.019475 
L 303.745317 271.442646 
L 304.153688 271.790046 
L 304.562058 271.569368 
L 304.970429 272.419738 
L 305.378799 270.600581 
L 305.78717 272.283177 
L 306.19554 271.742988 
L 306.603911 271.953874 
L 307.012281 274.318709 
L 307.829022 269.057363 
L 308.237393 269.05506 
L 308.645763 269.20844 
L 309.054134 267.92696 
L 309.462504 268.681638 
L 309.870875 269.093898 
L 310.279245 266.604034 
L 310.687616 268.083574 
L 311.095986 267.705134 
L 311.912727 269.331234 
L 312.321098 265.814094 
L 313.137839 267.89088 
L 313.546209 267.852993 
L 313.95458 267.549792 
L 314.36295 269.3373 
L 314.771321 280.39597 
L 315.179691 280.160072 
L 315.588062 268.869415 
L 315.996432 267.411719 
L 316.404803 267.118084 
L 316.813173 267.448414 
L 317.221544 268.02324 
L 317.629914 269.466309 
L 318.038285 268.889612 
L 318.446655 269.519459 
L 318.855026 268.683076 
L 319.263396 268.176059 
L 319.671767 277.829158 
L 320.080137 282.579944 
L 320.488508 283.89186 
L 321.305249 281.602125 
L 322.12199 282.777368 
L 322.53036 282.766529 
L 322.938731 279.950538 
L 323.347101 279.987938 
L 323.755472 281.408293 
L 324.163842 276.732986 
L 324.572213 278.025769 
L 324.980583 277.606011 
L 325.388954 276.674352 
L 325.797324 280.41785 
L 326.205695 279.02557 
L 326.614065 279.554001 
L 327.022436 278.25892 
L 327.430806 277.632172 
L 327.839177 278.579758 
L 328.247547 277.928703 
L 328.655918 278.561352 
L 329.064288 278.003953 
L 329.472659 275.534955 
L 329.881029 275.625628 
L 330.2894 272.622314 
L 330.69777 274.702296 
L 331.106141 274.717752 
L 331.514511 273.020432 
L 331.922882 274.90027 
L 332.331252 276.039449 
L 332.739623 276.060864 
L 333.147993 275.566155 
L 333.556364 277.378546 
L 334.373105 274.524941 
L 334.781475 273.384987 
L 335.189846 275.526521 
L 335.598216 277.063839 
L 336.006587 280.613136 
L 336.414957 285.252438 
L 337.231698 275.632491 
L 337.640069 276.583042 
L 338.86518 275.770062 
L 339.273551 277.334236 
L 339.681921 276.903912 
L 340.090292 272.770772 
L 340.498662 272.628054 
L 340.907033 271.136105 
L 341.315403 275.849555 
L 341.723774 273.616498 
L 342.132144 274.382864 
L 342.540515 275.507196 
L 342.948885 273.408187 
L 343.357256 269.795511 
L 343.765626 276.469174 
L 344.173997 274.243053 
L 344.582367 276.715606 
L 344.990738 278.396556 
L 345.399108 271.887972 
L 345.807479 270.918276 
L 346.215849 272.697281 
L 346.62422 276.38463 
L 347.03259 278.204503 
L 347.440961 276.235632 
L 347.849331 276.527364 
L 348.257702 278.047099 
L 348.666072 276.172792 
L 349.482813 276.263594 
L 349.891184 278.353367 
L 350.299554 273.545823 
L 350.707925 271.712065 
L 351.116295 273.819442 
L 351.524666 271.113407 
L 351.933036 272.890899 
L 352.341407 270.601805 
L 353.158148 272.461484 
L 353.566518 272.384898 
L 353.974889 273.257998 
L 354.383259 270.738634 
L 354.79163 270.29055 
L 355.2 271.552111 
L 355.60837 270.964597 
L 356.016741 269.125986 
L 356.425111 270.466831 
L 356.833482 270.449243 
L 357.241852 274.329997 
L 357.650223 283.752964 
L 358.058593 278.633828 
L 358.466964 277.183672 
L 358.875334 272.566422 
L 359.283705 270.627336 
L 359.692075 275.142293 
L 360.100446 270.453887 
L 360.508816 269.529502 
L 360.917187 272.922549 
L 361.325557 271.842934 
L 361.733928 271.81649 
L 362.142298 270.122345 
L 362.550669 266.784206 
L 362.959039 272.646204 
L 363.36741 272.705554 
L 363.77578 260.769475 
L 364.184151 272.016816 
L 364.592521 270.982548 
L 365.000892 276.192642 
L 365.817633 271.139237 
L 366.226003 274.336806 
L 366.634374 274.296845 
L 367.042744 272.052271 
L 367.451115 272.175684 
L 367.859485 276.854914 
L 368.267856 270.330719 
L 368.676226 272.885565 
L 369.084597 277.045994 
L 369.492967 278.978913 
L 369.901338 276.38836 
L 370.309708 277.974612 
L 371.126449 277.58915 
L 371.53482 276.283599 
L 371.94319 274.495028 
L 372.351561 271.604016 
L 372.759931 270.329436 
L 373.168302 270.869636 
L 373.576672 270.117187 
L 373.985043 268.11214 
L 374.393413 272.297153 
L 374.801784 272.64925 
L 375.210154 269.355674 
L 375.618525 268.825687 
L 376.026895 272.682893 
L 376.435266 268.630364 
L 376.843636 273.987071 
L 377.252007 268.900007 
L 377.660377 268.572734 
L 378.068748 270.656019 
L 378.477118 274.976968 
L 378.885489 280.899497 
L 379.70223 271.241839 
L 380.1106 269.89799 
L 380.518971 269.72863 
L 380.927341 273.293544 
L 381.744082 270.344411 
L 382.152453 273.142783 
L 382.560823 273.34368 
L 382.969194 268.624378 
L 383.377564 272.708963 
L 383.785935 274.746489 
L 384.194305 269.45996 
L 384.602676 274.980811 
L 385.419417 268.97593 
L 386.236158 274.667749 
L 386.644528 269.757325 
L 387.052899 268.456878 
L 387.461269 273.575832 
L 387.86964 273.039977 
L 388.27801 270.687006 
L 388.686381 275.326329 
L 389.094751 276.307552 
L 389.503122 274.880234 
L 389.911492 276.094154 
L 390.319863 275.860575 
L 390.728233 276.545776 
L 391.136604 274.985343 
L 391.544974 276.871033 
L 391.953345 274.505914 
L 392.361715 277.502318 
L 393.178456 268.069817 
L 393.586827 268.094909 
L 393.995197 271.320424 
L 394.403568 270.489631 
L 394.811938 266.977857 
L 395.220309 270.025792 
L 395.628679 269.102796 
L 396.03705 271.188668 
L 396.44542 267.680314 
L 397.262161 270.847901 
L 397.670532 268.55374 
L 398.078902 272.409183 
L 398.487273 294.524445 
L 398.487273 294.524445 
" clip-path="url(#pa3e627148d)" style="fill: none; stroke: #2ca02c; stroke-width: 1.5; stroke-linecap: square"/>
   </g>
   <g id="patch_3">
    <path d="M 57.6 307.584 
L 57.6 41.472 
" style="fill: none; stroke: #000000; stroke-width: 0.8; stroke-linejoin: miter; stroke-linecap: square"/>
   </g>
   <g id="patch_4">
    <path d="M 414.72 307.584 
L 414.72 41.472 
" style="fill: none; stroke: #000000; stroke-width: 0.8; stroke-linejoin: miter; stroke-linecap: square"/>
   </g>
   <g id="patch_5">
    <path d="M 57.6 307.584 
L 414.72 307.584 
" style="fill: none; stroke: #000000; stroke-width: 0.8; stroke-linejoin: miter; stroke-linecap: square"/>
   </g>
   <g id="patch_6">
    <path d="M 57.6 41.472 
L 414.72 41.472 
" style="fill: none; stroke: #000000; stroke-width: 0.8; stroke-linejoin: miter; stroke-linecap: square"/>
   </g>
   <g id="legend_1">
    <g id="patch_7">
     <path d="M 64.6 93.506375 
L 186.25625 93.506375 
Q 188.25625 93.506375 188.25625 91.506375 
L 188.25625 48.472 
Q 188.25625 46.472 186.25625 46.472 
L 64.6 46.472 
Q 62.6 46.472 62.6 48.472 
L 62.6 91.506375 
Q 62.6 93.506375 64.6 93.506375 
z
" style="fill: #ffffff; opacity: 0.8; stroke: #cccccc; stroke-linejoin: miter"/>
    </g>
    <g id="line2d_18">
     <path d="M 66.6 54.570438 
L 76.6 54.570438 
L 86.6 54.570438 
" style="fill: none; stroke: #1f77b4; stroke-width: 1.5; stroke-linecap: square"/>
    </g>
    <g id="text_17">
     <!-- Weekly maximum -->
     <g transform="translate(94.6 58.070438) scale(0.1 -0.1)">
      <defs>
       <path id="DejaVuSans-57" d="M 213 4666 
L 850 4666 
L 1831 722 
L 2809 4666 
L 3519 4666 
L 4500 722 
L 5478 4666 
L 6119 4666 
L 4947 0 
L 4153 0 
L 3169 4050 
L 2175 0 
L 1381 0 
L 213 4666 
z
" transform="scale(0.015625)"/>
       <path id="DejaVuSans-6b" d="M 581 4863 
L 1159 4863 
L 1159 1991 
L 2875 3500 
L 3609 3500 
L 1753 1863 
L 3688 0 
L 2938 0 
L 1159 1709 
L 1159 0 
L 581 0 
L 581 4863 
z
" transform="scale(0.015625)"/>
       <path id="DejaVuSans-79" d="M 2059 -325 
Q 1816 -950 1584 -1140 
Q 1353 -1331 966 -1331 
L 506 -1331 
L 506 -850 
L 844 -850 
Q 1081 -850 1212 -737 
Q 1344 -625 1503 -206 
L 1606 56 
L 191 3500 
L 800 3500 
L 1894 763 
L 2988 3500 
L 3597 3500 
L 2059 -325 
z
" transform="scale(0.015625)"/>
       <path id="DejaVuSans-6d" d="M 3328 2828 
Q 3544 3216 3844 3400 
Q 4144 3584 4550 3584 
Q 5097 3584 5394 3201 
Q 5691 2819 5691 2113 
L 5691 0 
L 5113 0 
L 5113 2094 
Q 5113 2597 4934 2840 
Q 4756 3084 4391 3084 
Q 3944 3084 3684 2787 
Q 3425 2491 3425 1978 
L 3425 0 
L 2847 0 
L 2847 2094 
Q 2847 2600 2669 2842 
Q 2491 3084 2119 3084 
Q 1678 3084 1418 2786 
Q 1159 2488 1159 1978 
L 1159 0 
L 581 0 
L 581 3500 
L 1159 3500 
L 1159 2956 
Q 1356 3278 1631 3431 
Q 1906 3584 2284 3584 
Q 2666 3584 2933 3390 
Q 3200 3197 3328 2828 
z
" transform="scale(0.015625)"/>
       <path id="DejaVuSans-78" d="M 3513 3500 
L 2247 1797 
L 3578 0 
L 2900 0 
L 1881 1375 
L 863 0 
L 184 0 
L 1544 1831 
L 300 3500 
L 978 3500 
L 1906 2253 
L 2834 3500 
L 3513 3500 
z
" transform="scale(0.015625)"/>
       <path id="DejaVuSans-75" d="M 544 1381 
L 544 3500 
L 1119 3500 
L 1119 1403 
Q 1119 906 1312 657 
Q 1506 409 1894 409 
Q 2359 409 2629 706 
Q 2900 1003 2900 1516 
L 2900 3500 
L 3475 3500 
L 3475 0 
L 2900 0 
L 2900 538 
Q 2691 219 2414 64 
Q 2138 -91 1772 -91 
Q 1169 -91 856 284 
Q 544 659 544 1381 
z
M 1991 3584 
L 1991 3584 
z
" transform="scale(0.015625)"/>
      </defs>
      <use xlink:href="#DejaVuSans-57"/>
      <use xlink:href="#DejaVuSans-65" x="93.001953"/>
      <use xlink:href="#DejaVuSans-65" x="154.525391"/>
      <use xlink:href="#DejaVuSans-6b" x="216.048828"/>
      <use xlink:href="#DejaVuSans-6c" x="273.958984"/>
      <use xlink:href="#DejaVuSans-79" x="301.742188"/>
      <use xlink:href="#DejaVuSans-20" x="360.921875"/>
      <use xlink:href="#DejaVuSans-6d" x="392.708984"/>
      <use xlink:href="#DejaVuSans-61" x="490.121094"/>
      <use xlink:href="#DejaVuSans-78" x="551.400391"/>
      <use xlink:href="#DejaVuSans-69" x="610.580078"/>
      <use xlink:href="#DejaVuSans-6d" x="638.363281"/>
      <use xlink:href="#DejaVuSans-75" x="735.775391"/>
      <use xlink:href="#DejaVuSans-6d" x="799.154297"/>
     </g>
    </g>
    <g id="line2d_19">
     <path d="M 66.6 69.248563 
L 76.6 69.248563 
L 86.6 69.248563 
" style="fill: none; stroke: #ff7f0e; stroke-width: 1.5; stroke-linecap: square"/>
    </g>
    <g id="text_18">
     <!-- Weekly minimum -->
     <g transform="translate(94.6 72.748563) scale(0.1 -0.1)">
      <defs>
       <path id="DejaVuSans-6e" d="M 3513 2113 
L 3513 0 
L 2938 0 
L 2938 2094 
Q 2938 2591 2744 2837 
Q 2550 3084 2163 3084 
Q 1697 3084 1428 2787 
Q 1159 2491 1159 1978 
L 1159 0 
L 581 0 
L 581 3500 
L 1159 3500 
L 1159 2956 
Q 1366 3272 1645 3428 
Q 1925 3584 2291 3584 
Q 2894 3584 3203 3211 
Q 3513 2838 3513 2113 
z
" transform="scale(0.015625)"/>
      </defs>
      <use xlink:href="#DejaVuSans-57"/>
      <use xlink:href="#DejaVuSans-65" x="93.001953"/>
      <use xlink:href="#DejaVuSans-65" x="154.525391"/>
      <use xlink:href="#DejaVuSans-6b" x="216.048828"/>
      <use xlink:href="#DejaVuSans-6c" x="273.958984"/>
      <use xlink:href="#DejaVuSans-79" x="301.742188"/>
      <use xlink:href="#DejaVuSans-20" x="360.921875"/>
      <use xlink:href="#DejaVuSans-6d" x="392.708984"/>
      <use xlink:href="#DejaVuSans-69" x="490.121094"/>
      <use xlink:href="#DejaVuSans-6e" x="517.904297"/>
      <use xlink:href="#DejaVuSans-69" x="581.283203"/>
      <use xlink:href="#DejaVuSans-6d" x="609.066406"/>
      <use xlink:href="#DejaVuSans-75" x="706.478516"/>
      <use xlink:href="#DejaVuSans-6d" x="769.857422"/>
     </g>
    </g>
    <g id="line2d_20">
     <path d="M 66.6 83.926688 
L 76.6 83.926688 
L 86.6 83.926688 
" style="fill: none; stroke: #2ca02c; stroke-width: 1.5; stroke-linecap: square"/>
    </g>
    <g id="text_19">
     <!-- Weekly range -->
     <g transform="translate(94.6 87.426688) scale(0.1 -0.1)">
      <use xlink:href="#DejaVuSans-57"/>
      <use xlink:href="#DejaVuSans-65" x="93.001953"/>
      <use xlink:href="#DejaVuSans-65" x="154.525391"/>
      <use xlink:href="#DejaVuSans-6b" x="216.048828"/>
      <use xlink:href="#DejaVuSans-6c" x="273.958984"/>
      <use xlink:href="#DejaVuSans-79" x="301.742188"/>
      <use xlink:href="#DejaVuSans-20" x="360.921875"/>
      <use xlink:href="#DejaVuSans-72" x="392.708984"/>
      <use xlink:href="#DejaVuSans-61" x="433.822266"/>
      <use xlink:href="#DejaVuSans-6e" x="495.101562"/>
      <use xlink:href="#DejaVuSans-67" x="558.480469"/>
      <use xlink:href="#DejaVuSans-65" x="621.957031"/>
     </g>
    </g>
   </g>
  </g>
 </g>
 <defs>
  <clipPath id="pa3e627148d">
   <rect x="57.6" y="41.472" width="357.12" height="266.112"/>
  </clipPath>
 </defs>
</svg>
