<?xml version="1.0" encoding="utf-8" standalone="no"?>
<!DOCTYPE svg PUBLIC "-//W3C//DTD SVG 1.1//EN"
  "http://www.w3.org/Graphics/SVG/1.1/DTD/svg11.dtd">
<svg xmlns:xlink="http://www.w3.org/1999/xlink" width="460.8pt" height="345.6pt" viewBox="0 0 460.8 345.6" xmlns="http://www.w3.org/2000/svg" version="1.1">
 <metadata>
  <rdf:RDF xmlns:dc="http://purl.org/dc/elements/1.1/" xmlns:cc="http://creativecommons.org/ns#" xmlns:rdf="http://www.w3.org/1999/02/22-rdf-syntax-ns#">
   <cc:Work>
    <dc:type rdf:resource="http://purl.org/dc/dcmitype/StillImage"/>
    <dc:date>2025-09-29T05:38:30.282701</dc:date>
    <dc:format>image/svg+xml</dc:format>
    <dc:creator>
     <cc:Agent>
      <dc:title>Matplotlib v3.10.6, https://matplotlib.org/</dc:title>
     </cc:Agent>
    </dc:creator>
   </cc:Work>
  </rdf:RDF>
 </metadata>
 <defs>
  <style type="text/css">*{stroke-linejoin: round; stroke-linecap: butt}</style>
 </defs>
 <g id="figure_1">
  <g id="patch_1">
   <path d="M 0 345.6 
L 460.8 345.6 
L 460.8 0 
L 0 0 
z
" style="fill: #ffffff"/>
  </g>
  <g id="axes_1">
   <g id="patch_2">
    <path d="M 57.6 307.584 
L 414.72 307.584 
L 414.72 41.472 
L 57.6 41.472 
z
" style="fill: #ffffff"/>
   </g>
   <g id="matplotlib.axis_1">
    <g id="xtick_1">
     <g id="line2d_1">
      <defs>
       <path id="m45902f1fd3" d="M 0 0 
L 0 3.5 
" style="stroke: #000000; stroke-width: 0.8"/>
      </defs>
      <g>
       <use xlink:href="#m45902f1fd3" x="61.117525" y="307.584" style="stroke: #000000; stroke-width: 0.8"/>
      </g>
     </g>
     <g id="text_1">
      <!-- 2008 -->
      <g transform="translate(48.392525 322.182437) scale(0.1 -0.1)">
       <defs>
        <path id="DejaVuSans-32" d="M 1228 531 
L 3431 531 
L 3431 0 
L 469 0 
L 469 531 
Q 828 903 1448 1529 
Q 2069 2156 2228 2338 
Q 2531 2678 2651 2914 
Q 2772 3150 2772 3378 
Q 2772 3750 2511 3984 
Q 2250 4219 1831 4219 
Q 1534 4219 1204 4116 
Q 875 4013 500 3803 
L 500 4441 
Q 881 4594 1212 4672 
Q 1544 4750 1819 4750 
Q 2544 4750 2975 4387 
Q 3406 4025 3406 3419 
Q 3406 3131 3298 2873 
Q 3191 2616 2906 2266 
Q 2828 2175 2409 1742 
Q 1991 1309 1228 531 
z
" transform="scale(0.015625)"/>
        <path id="DejaVuSans-30" d="M 2034 4250 
Q 1547 4250 1301 3770 
Q 1056 3291 1056 2328 
Q 1056 1369 1301 889 
Q 1547 409 2034 409 
Q 2525 409 2770 889 
Q 3016 1369 3016 2328 
Q 3016 3291 2770 3770 
Q 2525 4250 2034 4250 
z
M 2034 4750 
Q 2819 4750 3233 4129 
Q 3647 3509 3647 2328 
Q 3647 1150 3233 529 
Q 2819 -91 2034 -91 
Q 1250 -91 836 529 
Q 422 1150 422 2328 
Q 422 3509 836 4129 
Q 1250 4750 2034 4750 
z
" transform="scale(0.015625)"/>
        <path id="DejaVuSans-38" d="M 2034 2216 
Q 1584 2216 1326 1975 
Q 1069 1734 1069 1313 
Q 1069 891 1326 650 
Q 1584 409 2034 409 
Q 2484 409 2743 651 
Q 3003 894 3003 1313 
Q 3003 1734 2745 1975 
Q 2488 2216 2034 2216 
z
M 1403 2484 
Q 997 2584 770 2862 
Q 544 3141 544 3541 
Q 544 4100 942 4425 
Q 1341 4750 2034 4750 
Q 2731 4750 3128 4425 
Q 3525 4100 3525 3541 
Q 3525 3141 3298 2862 
Q 3072 2584 2669 2484 
Q 3125 2378 3379 2068 
Q 3634 1759 3634 1313 
Q 3634 634 3220 271 
Q 2806 -91 2034 -91 
Q 1263 -91 848 271 
Q 434 634 434 1313 
Q 434 1759 690 2068 
Q 947 2378 1403 2484 
z
M 1172 3481 
Q 1172 3119 1398 2916 
Q 1625 2713 2034 2713 
Q 2441 2713 2670 2916 
Q 2900 3119 2900 3481 
Q 2900 3844 2670 4047 
Q 2441 4250 2034 4250 
Q 1625 4250 1398 4047 
Q 1172 3844 1172 3481 
z
" transform="scale(0.015625)"/>
       </defs>
       <use xlink:href="#DejaVuSans-32"/>
       <use xlink:href="#DejaVuSans-30" transform="translate(63.623047 0)"/>
       <use xlink:href="#DejaVuSans-30" transform="translate(127.246094 0)"/>
       <use xlink:href="#DejaVuSans-38" transform="translate(190.869141 0)"/>
      </g>
     </g>
    </g>
    <g id="xtick_2">
     <g id="line2d_2">
      <g>
       <use xlink:href="#m45902f1fd3" x="99.21102" y="307.584" style="stroke: #000000; stroke-width: 0.8"/>
      </g>
     </g>
     <g id="text_2">
      <!-- 2010 -->
      <g transform="translate(86.48602 322.182437) scale(0.1 -0.1)">
       <defs>
        <path id="DejaVuSans-31" d="M 794 531 
L 1825 531 
L 1825 4091 
L 703 3866 
L 703 4441 
L 1819 4666 
L 2450 4666 
L 2450 531 
L 3481 531 
L 3481 0 
L 794 0 
L 794 531 
z
" transform="scale(0.015625)"/>
       </defs>
       <use xlink:href="#DejaVuSans-32"/>
       <use xlink:href="#DejaVuSans-30" transform="translate(63.623047 0)"/>
       <use xlink:href="#DejaVuSans-31" transform="translate(127.246094 0)"/>
       <use xlink:href="#DejaVuSans-30" transform="translate(190.869141 0)"/>
      </g>
     </g>
    </g>
    <g id="xtick_3">
     <g id="line2d_3">
      <g>
       <use xlink:href="#m45902f1fd3" x="137.252403" y="307.584" style="stroke: #000000; stroke-width: 0.8"/>
      </g>
     </g>
     <g id="text_3">
      <!-- 2012 -->
      <g transform="translate(124.527403 322.182437) scale(0.1 -0.1)">
       <use xlink:href="#DejaVuSans-32"/>
       <use xlink:href="#DejaVuSans-30" transform="translate(63.623047 0)"/>
       <use xlink:href="#DejaVuSans-31" transform="translate(127.246094 0)"/>
       <use xlink:href="#DejaVuSans-32" transform="translate(190.869141 0)"/>
      </g>
     </g>
    </g>
    <g id="xtick_4">
     <g id="line2d_4">
      <g>
       <use xlink:href="#m45902f1fd3" x="175.345898" y="307.584" style="stroke: #000000; stroke-width: 0.8"/>
      </g>
     </g>
     <g id="text_4">
      <!-- 2014 -->
      <g transform="translate(162.620898 322.182437) scale(0.1 -0.1)">
       <defs>
        <path id="DejaVuSans-34" d="M 2419 4116 
L 825 1625 
L 2419 1625 
L 2419 4116 
z
M 2253 4666 
L 3047 4666 
L 3047 1625 
L 3713 1625 
L 3713 1100 
L 3047 1100 
L 3047 0 
L 2419 0 
L 2419 1100 
L 313 1100 
L 313 1709 
L 2253 4666 
z
" transform="scale(0.015625)"/>
       </defs>
       <use xlink:href="#DejaVuSans-32"/>
       <use xlink:href="#DejaVuSans-30" transform="translate(63.623047 0)"/>
       <use xlink:href="#DejaVuSans-31" transform="translate(127.246094 0)"/>
       <use xlink:href="#DejaVuSans-34" transform="translate(190.869141 0)"/>
      </g>
     </g>
    </g>
    <g id="xtick_5">
     <g id="line2d_5">
      <g>
       <use xlink:href="#m45902f1fd3" x="213.387281" y="307.584" style="stroke: #000000; stroke-width: 0.8"/>
      </g>
     </g>
     <g id="text_5">
      <!-- 2016 -->
      <g transform="translate(200.662281 322.182437) scale(0.1 -0.1)">
       <defs>
        <path id="DejaVuSans-36" d="M 2113 2584 
Q 1688 2584 1439 2293 
Q 1191 2003 1191 1497 
Q 1191 994 1439 701 
Q 1688 409 2113 409 
Q 2538 409 2786 701 
Q 3034 994 3034 1497 
Q 3034 2003 2786 2293 
Q 2538 2584 2113 2584 
z
M 3366 4563 
L 3366 3988 
Q 3128 4100 2886 4159 
Q 2644 4219 2406 4219 
Q 1781 4219 1451 3797 
Q 1122 3375 1075 2522 
Q 1259 2794 1537 2939 
Q 1816 3084 2150 3084 
Q 2853 3084 3261 2657 
Q 3669 2231 3669 1497 
Q 3669 778 3244 343 
Q 2819 -91 2113 -91 
Q 1303 -91 875 529 
Q 447 1150 447 2328 
Q 447 3434 972 4092 
Q 1497 4750 2381 4750 
Q 2619 4750 2861 4703 
Q 3103 4656 3366 4563 
z
" transform="scale(0.015625)"/>
       </defs>
       <use xlink:href="#DejaVuSans-32"/>
       <use xlink:href="#DejaVuSans-30" transform="translate(63.623047 0)"/>
       <use xlink:href="#DejaVuSans-31" transform="translate(127.246094 0)"/>
       <use xlink:href="#DejaVuSans-36" transform="translate(190.869141 0)"/>
      </g>
     </g>
    </g>
    <g id="xtick_6">
     <g id="line2d_6">
      <g>
       <use xlink:href="#m45902f1fd3" x="251.480776" y="307.584" style="stroke: #000000; stroke-width: 0.8"/>
      </g>
     </g>
     <g id="text_6">
      <!-- 2018 -->
      <g transform="translate(238.755776 322.182437) scale(0.1 -0.1)">
       <use xlink:href="#DejaVuSans-32"/>
       <use xlink:href="#DejaVuSans-30" transform="translate(63.623047 0)"/>
       <use xlink:href="#DejaVuSans-31" transform="translate(127.246094 0)"/>
       <use xlink:href="#DejaVuSans-38" transform="translate(190.869141 0)"/>
      </g>
     </g>
    </g>
    <g id="xtick_7">
     <g id="line2d_7">
      <g>
       <use xlink:href="#m45902f1fd3" x="289.52216" y="307.584" style="stroke: #000000; stroke-width: 0.8"/>
      </g>
     </g>
     <g id="text_7">
      <!-- 2020 -->
      <g transform="translate(276.79716 322.182437) scale(0.1 -0.1)">
       <use xlink:href="#DejaVuSans-32"/>
       <use xlink:href="#DejaVuSans-30" transform="translate(63.623047 0)"/>
       <use xlink:href="#DejaVuSans-32" transform="translate(127.246094 0)"/>
       <use xlink:href="#DejaVuSans-30" transform="translate(190.869141 0)"/>
      </g>
     </g>
    </g>
    <g id="xtick_8">
     <g id="line2d_8">
      <g>
       <use xlink:href="#m45902f1fd3" x="327.615654" y="307.584" style="stroke: #000000; stroke-width: 0.8"/>
      </g>
     </g>
     <g id="text_8">
      <!-- 2022 -->
      <g transform="translate(314.890654 322.182437) scale(0.1 -0.1)">
       <use xlink:href="#DejaVuSans-32"/>
       <use xlink:href="#DejaVuSans-30" transform="translate(63.623047 0)"/>
       <use xlink:href="#DejaVuSans-32" transform="translate(127.246094 0)"/>
       <use xlink:href="#DejaVuSans-32" transform="translate(190.869141 0)"/>
      </g>
     </g>
    </g>
    <g id="xtick_9">
     <g id="line2d_9">
      <g>
       <use xlink:href="#m45902f1fd3" x="365.657038" y="307.584" style="stroke: #000000; stroke-width: 0.8"/>
      </g>
     </g>
     <g id="text_9">
      <!-- 2024 -->
      <g transform="translate(352.932038 322.182437) scale(0.1 -0.1)">
       <use xlink:href="#DejaVuSans-32"/>
       <use xlink:href="#DejaVuSans-30" transform="translate(63.623047 0)"/>
       <use xlink:href="#DejaVuSans-32" transform="translate(127.246094 0)"/>
       <use xlink:href="#DejaVuSans-34" transform="translate(190.869141 0)"/>
      </g>
     </g>
    </g>
    <g id="xtick_10">
     <g id="line2d_10">
      <g>
       <use xlink:href="#m45902f1fd3" x="403.750533" y="307.584" style="stroke: #000000; stroke-width: 0.8"/>
      </g>
     </g>
     <g id="text_10">
      <!-- 2026 -->
      <g transform="translate(391.025533 322.182437) scale(0.1 -0.1)">
       <use xlink:href="#DejaVuSans-32"/>
       <use xlink:href="#DejaVuSans-30" transform="translate(63.623047 0)"/>
       <use xlink:href="#DejaVuSans-32" transform="translate(127.246094 0)"/>
       <use xlink:href="#DejaVuSans-36" transform="translate(190.869141 0)"/>
      </g>
     </g>
    </g>
    <g id="text_11">
     <!-- Updated 2025-09-29 05:38:30.281212 - Last record 2025-09-27 -->
     <g transform="translate(75.905312 335.860562) scale(0.1 -0.1)">
      <defs>
       <path id="DejaVuSans-55" d="M 556 4666 
L 1191 4666 
L 1191 1831 
Q 1191 1081 1462 751 
Q 1734 422 2344 422 
Q 2950 422 3222 751 
Q 3494 1081 3494 1831 
L 3494 4666 
L 4128 4666 
L 4128 1753 
Q 4128 841 3676 375 
Q 3225 -91 2344 -91 
Q 1459 -91 1007 375 
Q 556 841 556 1753 
L 556 4666 
z
" transform="scale(0.015625)"/>
       <path id="DejaVuSans-70" d="M 1159 525 
L 1159 -1331 
L 581 -1331 
L 581 3500 
L 1159 3500 
L 1159 2969 
Q 1341 3281 1617 3432 
Q 1894 3584 2278 3584 
Q 2916 3584 3314 3078 
Q 3713 2572 3713 1747 
Q 3713 922 3314 415 
Q 2916 -91 2278 -91 
Q 1894 -91 1617 61 
Q 1341 213 1159 525 
z
M 3116 1747 
Q 3116 2381 2855 2742 
Q 2594 3103 2138 3103 
Q 1681 3103 1420 2742 
Q 1159 2381 1159 1747 
Q 1159 1113 1420 752 
Q 1681 391 2138 391 
Q 2594 391 2855 752 
Q 3116 1113 3116 1747 
z
" transform="scale(0.015625)"/>
       <path id="DejaVuSans-64" d="M 2906 2969 
L 2906 4863 
L 3481 4863 
L 3481 0 
L 2906 0 
L 2906 525 
Q 2725 213 2448 61 
Q 2172 -91 1784 -91 
Q 1150 -91 751 415 
Q 353 922 353 1747 
Q 353 2572 751 3078 
Q 1150 3584 1784 3584 
Q 2172 3584 2448 3432 
Q 2725 3281 2906 2969 
z
M 947 1747 
Q 947 1113 1208 752 
Q 1469 391 1925 391 
Q 2381 391 2643 752 
Q 2906 1113 2906 1747 
Q 2906 2381 2643 2742 
Q 2381 3103 1925 3103 
Q 1469 3103 1208 2742 
Q 947 2381 947 1747 
z
" transform="scale(0.015625)"/>
       <path id="DejaVuSans-61" d="M 2194 1759 
Q 1497 1759 1228 1600 
Q 959 1441 959 1056 
Q 959 750 1161 570 
Q 1363 391 1709 391 
Q 2188 391 2477 730 
Q 2766 1069 2766 1631 
L 2766 1759 
L 2194 1759 
z
M 3341 1997 
L 3341 0 
L 2766 0 
L 2766 531 
Q 2569 213 2275 61 
Q 1981 -91 1556 -91 
Q 1019 -91 701 211 
Q 384 513 384 1019 
Q 384 1609 779 1909 
Q 1175 2209 1959 2209 
L 2766 2209 
L 2766 2266 
Q 2766 2663 2505 2880 
Q 2244 3097 1772 3097 
Q 1472 3097 1187 3025 
Q 903 2953 641 2809 
L 641 3341 
Q 956 3463 1253 3523 
Q 1550 3584 1831 3584 
Q 2591 3584 2966 3190 
Q 3341 2797 3341 1997 
z
" transform="scale(0.015625)"/>
       <path id="DejaVuSans-74" d="M 1172 4494 
L 1172 3500 
L 2356 3500 
L 2356 3053 
L 1172 3053 
L 1172 1153 
Q 1172 725 1289 603 
Q 1406 481 1766 481 
L 2356 481 
L 2356 0 
L 1766 0 
Q 1100 0 847 248 
Q 594 497 594 1153 
L 594 3053 
L 172 3053 
L 172 3500 
L 594 3500 
L 594 4494 
L 1172 4494 
z
" transform="scale(0.015625)"/>
       <path id="DejaVuSans-65" d="M 3597 1894 
L 3597 1613 
L 953 1613 
Q 991 1019 1311 708 
Q 1631 397 2203 397 
Q 2534 397 2845 478 
Q 3156 559 3463 722 
L 3463 178 
Q 3153 47 2828 -22 
Q 2503 -91 2169 -91 
Q 1331 -91 842 396 
Q 353 884 353 1716 
Q 353 2575 817 3079 
Q 1281 3584 2069 3584 
Q 2775 3584 3186 3129 
Q 3597 2675 3597 1894 
z
M 3022 2063 
Q 3016 2534 2758 2815 
Q 2500 3097 2075 3097 
Q 1594 3097 1305 2825 
Q 1016 2553 972 2059 
L 3022 2063 
z
" transform="scale(0.015625)"/>
       <path id="DejaVuSans-20" transform="scale(0.015625)"/>
       <path id="DejaVuSans-35" d="M 691 4666 
L 3169 4666 
L 3169 4134 
L 1269 4134 
L 1269 2991 
Q 1406 3038 1543 3061 
Q 1681 3084 1819 3084 
Q 2600 3084 3056 2656 
Q 3513 2228 3513 1497 
Q 3513 744 3044 326 
Q 2575 -91 1722 -91 
Q 1428 -91 1123 -41 
Q 819 9 494 109 
L 494 744 
Q 775 591 1075 516 
Q 1375 441 1709 441 
Q 2250 441 2565 725 
Q 2881 1009 2881 1497 
Q 2881 1984 2565 2268 
Q 2250 2553 1709 2553 
Q 1456 2553 1204 2497 
Q 953 2441 691 2322 
L 691 4666 
z
" transform="scale(0.015625)"/>
       <path id="DejaVuSans-2d" d="M 313 2009 
L 1997 2009 
L 1997 1497 
L 313 1497 
L 313 2009 
z
" transform="scale(0.015625)"/>
       <path id="DejaVuSans-39" d="M 703 97 
L 703 672 
Q 941 559 1184 500 
Q 1428 441 1663 441 
Q 2288 441 2617 861 
Q 2947 1281 2994 2138 
Q 2813 1869 2534 1725 
Q 2256 1581 1919 1581 
Q 1219 1581 811 2004 
Q 403 2428 403 3163 
Q 403 3881 828 4315 
Q 1253 4750 1959 4750 
Q 2769 4750 3195 4129 
Q 3622 3509 3622 2328 
Q 3622 1225 3098 567 
Q 2575 -91 1691 -91 
Q 1453 -91 1209 -44 
Q 966 3 703 97 
z
M 1959 2075 
Q 2384 2075 2632 2365 
Q 2881 2656 2881 3163 
Q 2881 3666 2632 3958 
Q 2384 4250 1959 4250 
Q 1534 4250 1286 3958 
Q 1038 3666 1038 3163 
Q 1038 2656 1286 2365 
Q 1534 2075 1959 2075 
z
" transform="scale(0.015625)"/>
       <path id="DejaVuSans-3a" d="M 750 794 
L 1409 794 
L 1409 0 
L 750 0 
L 750 794 
z
M 750 3309 
L 1409 3309 
L 1409 2516 
L 750 2516 
L 750 3309 
z
" transform="scale(0.015625)"/>
       <path id="DejaVuSans-33" d="M 2597 2516 
Q 3050 2419 3304 2112 
Q 3559 1806 3559 1356 
Q 3559 666 3084 287 
Q 2609 -91 1734 -91 
Q 1441 -91 1130 -33 
Q 819 25 488 141 
L 488 750 
Q 750 597 1062 519 
Q 1375 441 1716 441 
Q 2309 441 2620 675 
Q 2931 909 2931 1356 
Q 2931 1769 2642 2001 
Q 2353 2234 1838 2234 
L 1294 2234 
L 1294 2753 
L 1863 2753 
Q 2328 2753 2575 2939 
Q 2822 3125 2822 3475 
Q 2822 3834 2567 4026 
Q 2313 4219 1838 4219 
Q 1578 4219 1281 4162 
Q 984 4106 628 3988 
L 628 4550 
Q 988 4650 1302 4700 
Q 1616 4750 1894 4750 
Q 2613 4750 3031 4423 
Q 3450 4097 3450 3541 
Q 3450 3153 3228 2886 
Q 3006 2619 2597 2516 
z
" transform="scale(0.015625)"/>
       <path id="DejaVuSans-2e" d="M 684 794 
L 1344 794 
L 1344 0 
L 684 0 
L 684 794 
z
" transform="scale(0.015625)"/>
       <path id="DejaVuSans-4c" d="M 628 4666 
L 1259 4666 
L 1259 531 
L 3531 531 
L 3531 0 
L 628 0 
L 628 4666 
z
" transform="scale(0.015625)"/>
       <path id="DejaVuSans-73" d="M 2834 3397 
L 2834 2853 
Q 2591 2978 2328 3040 
Q 2066 3103 1784 3103 
Q 1356 3103 1142 2972 
Q 928 2841 928 2578 
Q 928 2378 1081 2264 
Q 1234 2150 1697 2047 
L 1894 2003 
Q 2506 1872 2764 1633 
Q 3022 1394 3022 966 
Q 3022 478 2636 193 
Q 2250 -91 1575 -91 
Q 1294 -91 989 -36 
Q 684 19 347 128 
L 347 722 
Q 666 556 975 473 
Q 1284 391 1588 391 
Q 1994 391 2212 530 
Q 2431 669 2431 922 
Q 2431 1156 2273 1281 
Q 2116 1406 1581 1522 
L 1381 1569 
Q 847 1681 609 1914 
Q 372 2147 372 2553 
Q 372 3047 722 3315 
Q 1072 3584 1716 3584 
Q 2034 3584 2315 3537 
Q 2597 3491 2834 3397 
z
" transform="scale(0.015625)"/>
       <path id="DejaVuSans-72" d="M 2631 2963 
Q 2534 3019 2420 3045 
Q 2306 3072 2169 3072 
Q 1681 3072 1420 2755 
Q 1159 2438 1159 1844 
L 1159 0 
L 581 0 
L 581 3500 
L 1159 3500 
L 1159 2956 
Q 1341 3275 1631 3429 
Q 1922 3584 2338 3584 
Q 2397 3584 2469 3576 
Q 2541 3569 2628 3553 
L 2631 2963 
z
" transform="scale(0.015625)"/>
       <path id="DejaVuSans-63" d="M 3122 3366 
L 3122 2828 
Q 2878 2963 2633 3030 
Q 2388 3097 2138 3097 
Q 1578 3097 1268 2742 
Q 959 2388 959 1747 
Q 959 1106 1268 751 
Q 1578 397 2138 397 
Q 2388 397 2633 464 
Q 2878 531 3122 666 
L 3122 134 
Q 2881 22 2623 -34 
Q 2366 -91 2075 -91 
Q 1284 -91 818 406 
Q 353 903 353 1747 
Q 353 2603 823 3093 
Q 1294 3584 2113 3584 
Q 2378 3584 2631 3529 
Q 2884 3475 3122 3366 
z
" transform="scale(0.015625)"/>
       <path id="DejaVuSans-6f" d="M 1959 3097 
Q 1497 3097 1228 2736 
Q 959 2375 959 1747 
Q 959 1119 1226 758 
Q 1494 397 1959 397 
Q 2419 397 2687 759 
Q 2956 1122 2956 1747 
Q 2956 2369 2687 2733 
Q 2419 3097 1959 3097 
z
M 1959 3584 
Q 2709 3584 3137 3096 
Q 3566 2609 3566 1747 
Q 3566 888 3137 398 
Q 2709 -91 1959 -91 
Q 1206 -91 779 398 
Q 353 888 353 1747 
Q 353 2609 779 3096 
Q 1206 3584 1959 3584 
z
" transform="scale(0.015625)"/>
       <path id="DejaVuSans-37" d="M 525 4666 
L 3525 4666 
L 3525 4397 
L 1831 0 
L 1172 0 
L 2766 4134 
L 525 4134 
L 525 4666 
z
" transform="scale(0.015625)"/>
      </defs>
      <use xlink:href="#DejaVuSans-55"/>
      <use xlink:href="#DejaVuSans-70" transform="translate(73.193359 0)"/>
      <use xlink:href="#DejaVuSans-64" transform="translate(136.669922 0)"/>
      <use xlink:href="#DejaVuSans-61" transform="translate(200.146484 0)"/>
      <use xlink:href="#DejaVuSans-74" transform="translate(261.425781 0)"/>
      <use xlink:href="#DejaVuSans-65" transform="translate(300.634766 0)"/>
      <use xlink:href="#DejaVuSans-64" transform="translate(362.158203 0)"/>
      <use xlink:href="#DejaVuSans-20" transform="translate(425.634766 0)"/>
      <use xlink:href="#DejaVuSans-32" transform="translate(457.421875 0)"/>
      <use xlink:href="#DejaVuSans-30" transform="translate(521.044922 0)"/>
      <use xlink:href="#DejaVuSans-32" transform="translate(584.667969 0)"/>
      <use xlink:href="#DejaVuSans-35" transform="translate(648.291016 0)"/>
      <use xlink:href="#DejaVuSans-2d" transform="translate(711.914062 0)"/>
      <use xlink:href="#DejaVuSans-30" transform="translate(747.998047 0)"/>
      <use xlink:href="#DejaVuSans-39" transform="translate(811.621094 0)"/>
      <use xlink:href="#DejaVuSans-2d" transform="translate(875.244141 0)"/>
      <use xlink:href="#DejaVuSans-32" transform="translate(911.328125 0)"/>
      <use xlink:href="#DejaVuSans-39" transform="translate(974.951172 0)"/>
      <use xlink:href="#DejaVuSans-20" transform="translate(1038.574219 0)"/>
      <use xlink:href="#DejaVuSans-30" transform="translate(1070.361328 0)"/>
      <use xlink:href="#DejaVuSans-35" transform="translate(1133.984375 0)"/>
      <use xlink:href="#DejaVuSans-3a" transform="translate(1197.607422 0)"/>
      <use xlink:href="#DejaVuSans-33" transform="translate(1231.298828 0)"/>
      <use xlink:href="#DejaVuSans-38" transform="translate(1294.921875 0)"/>
      <use xlink:href="#DejaVuSans-3a" transform="translate(1358.544922 0)"/>
      <use xlink:href="#DejaVuSans-33" transform="translate(1392.236328 0)"/>
      <use xlink:href="#DejaVuSans-30" transform="translate(1455.859375 0)"/>
      <use xlink:href="#DejaVuSans-2e" transform="translate(1519.482422 0)"/>
      <use xlink:href="#DejaVuSans-32" transform="translate(1551.269531 0)"/>
      <use xlink:href="#DejaVuSans-38" transform="translate(1614.892578 0)"/>
      <use xlink:href="#DejaVuSans-31" transform="translate(1678.515625 0)"/>
      <use xlink:href="#DejaVuSans-32" transform="translate(1742.138672 0)"/>
      <use xlink:href="#DejaVuSans-31" transform="translate(1805.761719 0)"/>
      <use xlink:href="#DejaVuSans-32" transform="translate(1869.384766 0)"/>
      <use xlink:href="#DejaVuSans-20" transform="translate(1933.007812 0)"/>
      <use xlink:href="#DejaVuSans-2d" transform="translate(1964.794922 0)"/>
      <use xlink:href="#DejaVuSans-20" transform="translate(2000.878906 0)"/>
      <use xlink:href="#DejaVuSans-4c" transform="translate(2032.666016 0)"/>
      <use xlink:href="#DejaVuSans-61" transform="translate(2088.378906 0)"/>
      <use xlink:href="#DejaVuSans-73" transform="translate(2149.658203 0)"/>
      <use xlink:href="#DejaVuSans-74" transform="translate(2201.757812 0)"/>
      <use xlink:href="#DejaVuSans-20" transform="translate(2240.966797 0)"/>
      <use xlink:href="#DejaVuSans-72" transform="translate(2272.753906 0)"/>
      <use xlink:href="#DejaVuSans-65" transform="translate(2311.617188 0)"/>
      <use xlink:href="#DejaVuSans-63" transform="translate(2373.140625 0)"/>
      <use xlink:href="#DejaVuSans-6f" transform="translate(2428.121094 0)"/>
      <use xlink:href="#DejaVuSans-72" transform="translate(2489.302734 0)"/>
      <use xlink:href="#DejaVuSans-64" transform="translate(2528.666016 0)"/>
      <use xlink:href="#DejaVuSans-20" transform="translate(2592.142578 0)"/>
      <use xlink:href="#DejaVuSans-32" transform="translate(2623.929688 0)"/>
      <use xlink:href="#DejaVuSans-30" transform="translate(2687.552734 0)"/>
      <use xlink:href="#DejaVuSans-32" transform="translate(2751.175781 0)"/>
      <use xlink:href="#DejaVuSans-35" transform="translate(2814.798828 0)"/>
      <use xlink:href="#DejaVuSans-2d" transform="translate(2878.421875 0)"/>
      <use xlink:href="#DejaVuSans-30" transform="translate(2914.505859 0)"/>
      <use xlink:href="#DejaVuSans-39" transform="translate(2978.128906 0)"/>
      <use xlink:href="#DejaVuSans-2d" transform="translate(3041.751953 0)"/>
      <use xlink:href="#DejaVuSans-32" transform="translate(3077.835938 0)"/>
      <use xlink:href="#DejaVuSans-37" transform="translate(3141.458984 0)"/>
     </g>
    </g>
   </g>
   <g id="matplotlib.axis_2">
    <g id="ytick_1">
     <g id="line2d_11">
      <defs>
       <path id="m81b67bd953" d="M 0 0 
L -3.5 0 
" style="stroke: #000000; stroke-width: 0.8"/>
      </defs>
      <g>
       <use xlink:href="#m81b67bd953" x="57.6" y="295.488" style="stroke: #000000; stroke-width: 0.8"/>
      </g>
     </g>
     <g id="text_12">
      <!-- 0 -->
      <g transform="translate(44.2375 299.287219) scale(0.1 -0.1)">
       <use xlink:href="#DejaVuSans-30"/>
      </g>
     </g>
    </g>
    <g id="ytick_2">
     <g id="line2d_12">
      <g>
       <use xlink:href="#m81b67bd953" x="57.6" y="246.945852" style="stroke: #000000; stroke-width: 0.8"/>
      </g>
     </g>
     <g id="text_13">
      <!-- 10 -->
      <g transform="translate(37.875 250.74507) scale(0.1 -0.1)">
       <use xlink:href="#DejaVuSans-31"/>
       <use xlink:href="#DejaVuSans-30" transform="translate(63.623047 0)"/>
      </g>
     </g>
    </g>
    <g id="ytick_3">
     <g id="line2d_13">
      <g>
       <use xlink:href="#m81b67bd953" x="57.6" y="198.403703" style="stroke: #000000; stroke-width: 0.8"/>
      </g>
     </g>
     <g id="text_14">
      <!-- 20 -->
      <g transform="translate(37.875 202.202922) scale(0.1 -0.1)">
       <use xlink:href="#DejaVuSans-32"/>
       <use xlink:href="#DejaVuSans-30" transform="translate(63.623047 0)"/>
      </g>
     </g>
    </g>
    <g id="ytick_4">
     <g id="line2d_14">
      <g>
       <use xlink:href="#m81b67bd953" x="57.6" y="149.861555" style="stroke: #000000; stroke-width: 0.8"/>
      </g>
     </g>
     <g id="text_15">
      <!-- 30 -->
      <g transform="translate(37.875 153.660774) scale(0.1 -0.1)">
       <use xlink:href="#DejaVuSans-33"/>
       <use xlink:href="#DejaVuSans-30" transform="translate(63.623047 0)"/>
      </g>
     </g>
    </g>
    <g id="ytick_5">
     <g id="line2d_15">
      <g>
       <use xlink:href="#m81b67bd953" x="57.6" y="101.319406" style="stroke: #000000; stroke-width: 0.8"/>
      </g>
     </g>
     <g id="text_16">
      <!-- 40 -->
      <g transform="translate(37.875 105.118625) scale(0.1 -0.1)">
       <use xlink:href="#DejaVuSans-34"/>
       <use xlink:href="#DejaVuSans-30" transform="translate(63.623047 0)"/>
      </g>
     </g>
    </g>
    <g id="ytick_6">
     <g id="line2d_16">
      <g>
       <use xlink:href="#m81b67bd953" x="57.6" y="52.777258" style="stroke: #000000; stroke-width: 0.8"/>
      </g>
     </g>
     <g id="text_17">
      <!-- 50 -->
      <g transform="translate(37.875 56.576477) scale(0.1 -0.1)">
       <use xlink:href="#DejaVuSans-35"/>
       <use xlink:href="#DejaVuSans-30" transform="translate(63.623047 0)"/>
      </g>
     </g>
    </g>
    <g id="text_18">
     <!-- IPv6 as % of total Google traffic -->
     <g transform="translate(31.795312 253.735813) rotate(-90) scale(0.1 -0.1)">
      <defs>
       <path id="DejaVuSans-49" d="M 628 4666 
L 1259 4666 
L 1259 0 
L 628 0 
L 628 4666 
z
" transform="scale(0.015625)"/>
       <path id="DejaVuSans-50" d="M 1259 4147 
L 1259 2394 
L 2053 2394 
Q 2494 2394 2734 2622 
Q 2975 2850 2975 3272 
Q 2975 3691 2734 3919 
Q 2494 4147 2053 4147 
L 1259 4147 
z
M 628 4666 
L 2053 4666 
Q 2838 4666 3239 4311 
Q 3641 3956 3641 3272 
Q 3641 2581 3239 2228 
Q 2838 1875 2053 1875 
L 1259 1875 
L 1259 0 
L 628 0 
L 628 4666 
z
" transform="scale(0.015625)"/>
       <path id="DejaVuSans-76" d="M 191 3500 
L 800 3500 
L 1894 563 
L 2988 3500 
L 3597 3500 
L 2284 0 
L 1503 0 
L 191 3500 
z
" transform="scale(0.015625)"/>
       <path id="DejaVuSans-25" d="M 4653 2053 
Q 4381 2053 4226 1822 
Q 4072 1591 4072 1178 
Q 4072 772 4226 539 
Q 4381 306 4653 306 
Q 4919 306 5073 539 
Q 5228 772 5228 1178 
Q 5228 1588 5073 1820 
Q 4919 2053 4653 2053 
z
M 4653 2450 
Q 5147 2450 5437 2106 
Q 5728 1763 5728 1178 
Q 5728 594 5436 251 
Q 5144 -91 4653 -91 
Q 4153 -91 3862 251 
Q 3572 594 3572 1178 
Q 3572 1766 3864 2108 
Q 4156 2450 4653 2450 
z
M 1428 4353 
Q 1159 4353 1004 4120 
Q 850 3888 850 3481 
Q 850 3069 1003 2837 
Q 1156 2606 1428 2606 
Q 1700 2606 1854 2837 
Q 2009 3069 2009 3481 
Q 2009 3884 1853 4118 
Q 1697 4353 1428 4353 
z
M 4250 4750 
L 4750 4750 
L 1831 -91 
L 1331 -91 
L 4250 4750 
z
M 1428 4750 
Q 1922 4750 2215 4408 
Q 2509 4066 2509 3481 
Q 2509 2891 2217 2550 
Q 1925 2209 1428 2209 
Q 931 2209 642 2551 
Q 353 2894 353 3481 
Q 353 4063 643 4406 
Q 934 4750 1428 4750 
z
" transform="scale(0.015625)"/>
       <path id="DejaVuSans-66" d="M 2375 4863 
L 2375 4384 
L 1825 4384 
Q 1516 4384 1395 4259 
Q 1275 4134 1275 3809 
L 1275 3500 
L 2222 3500 
L 2222 3053 
L 1275 3053 
L 1275 0 
L 697 0 
L 697 3053 
L 147 3053 
L 147 3500 
L 697 3500 
L 697 3744 
Q 697 4328 969 4595 
Q 1241 4863 1831 4863 
L 2375 4863 
z
" transform="scale(0.015625)"/>
       <path id="DejaVuSans-6c" d="M 603 4863 
L 1178 4863 
L 1178 0 
L 603 0 
L 603 4863 
z
" transform="scale(0.015625)"/>
       <path id="DejaVuSans-47" d="M 3809 666 
L 3809 1919 
L 2778 1919 
L 2778 2438 
L 4434 2438 
L 4434 434 
Q 4069 175 3628 42 
Q 3188 -91 2688 -91 
Q 1594 -91 976 548 
Q 359 1188 359 2328 
Q 359 3472 976 4111 
Q 1594 4750 2688 4750 
Q 3144 4750 3555 4637 
Q 3966 4525 4313 4306 
L 4313 3634 
Q 3963 3931 3569 4081 
Q 3175 4231 2741 4231 
Q 1884 4231 1454 3753 
Q 1025 3275 1025 2328 
Q 1025 1384 1454 906 
Q 1884 428 2741 428 
Q 3075 428 3337 486 
Q 3600 544 3809 666 
z
" transform="scale(0.015625)"/>
       <path id="DejaVuSans-67" d="M 2906 1791 
Q 2906 2416 2648 2759 
Q 2391 3103 1925 3103 
Q 1463 3103 1205 2759 
Q 947 2416 947 1791 
Q 947 1169 1205 825 
Q 1463 481 1925 481 
Q 2391 481 2648 825 
Q 2906 1169 2906 1791 
z
M 3481 434 
Q 3481 -459 3084 -895 
Q 2688 -1331 1869 -1331 
Q 1566 -1331 1297 -1286 
Q 1028 -1241 775 -1147 
L 775 -588 
Q 1028 -725 1275 -790 
Q 1522 -856 1778 -856 
Q 2344 -856 2625 -561 
Q 2906 -266 2906 331 
L 2906 616 
Q 2728 306 2450 153 
Q 2172 0 1784 0 
Q 1141 0 747 490 
Q 353 981 353 1791 
Q 353 2603 747 3093 
Q 1141 3584 1784 3584 
Q 2172 3584 2450 3431 
Q 2728 3278 2906 2969 
L 2906 3500 
L 3481 3500 
L 3481 434 
z
" transform="scale(0.015625)"/>
       <path id="DejaVuSans-69" d="M 603 3500 
L 1178 3500 
L 1178 0 
L 603 0 
L 603 3500 
z
M 603 4863 
L 1178 4863 
L 1178 4134 
L 603 4134 
L 603 4863 
z
" transform="scale(0.015625)"/>
      </defs>
      <use xlink:href="#DejaVuSans-49"/>
      <use xlink:href="#DejaVuSans-50" transform="translate(29.492188 0)"/>
      <use xlink:href="#DejaVuSans-76" transform="translate(89.794922 0)"/>
      <use xlink:href="#DejaVuSans-36" transform="translate(148.974609 0)"/>
      <use xlink:href="#DejaVuSans-20" transform="translate(212.597656 0)"/>
      <use xlink:href="#DejaVuSans-61" transform="translate(244.384766 0)"/>
      <use xlink:href="#DejaVuSans-73" transform="translate(305.664062 0)"/>
      <use xlink:href="#DejaVuSans-20" transform="translate(357.763672 0)"/>
      <use xlink:href="#DejaVuSans-25" transform="translate(389.550781 0)"/>
      <use xlink:href="#DejaVuSans-20" transform="translate(484.570312 0)"/>
      <use xlink:href="#DejaVuSans-6f" transform="translate(516.357422 0)"/>
      <use xlink:href="#DejaVuSans-66" transform="translate(577.539062 0)"/>
      <use xlink:href="#DejaVuSans-20" transform="translate(612.744141 0)"/>
      <use xlink:href="#DejaVuSans-74" transform="translate(644.53125 0)"/>
      <use xlink:href="#DejaVuSans-6f" transform="translate(683.740234 0)"/>
      <use xlink:href="#DejaVuSans-74" transform="translate(744.921875 0)"/>
      <use xlink:href="#DejaVuSans-61" transform="translate(784.130859 0)"/>
      <use xlink:href="#DejaVuSans-6c" transform="translate(845.410156 0)"/>
      <use xlink:href="#DejaVuSans-20" transform="translate(873.193359 0)"/>
      <use xlink:href="#DejaVuSans-47" transform="translate(904.980469 0)"/>
      <use xlink:href="#DejaVuSans-6f" transform="translate(982.470703 0)"/>
      <use xlink:href="#DejaVuSans-6f" transform="translate(1043.652344 0)"/>
      <use xlink:href="#DejaVuSans-67" transform="translate(1104.833984 0)"/>
      <use xlink:href="#DejaVuSans-6c" transform="translate(1168.310547 0)"/>
      <use xlink:href="#DejaVuSans-65" transform="translate(1196.09375 0)"/>
      <use xlink:href="#DejaVuSans-20" transform="translate(1257.617188 0)"/>
      <use xlink:href="#DejaVuSans-74" transform="translate(1289.404297 0)"/>
      <use xlink:href="#DejaVuSans-72" transform="translate(1328.613281 0)"/>
      <use xlink:href="#DejaVuSans-61" transform="translate(1369.726562 0)"/>
      <use xlink:href="#DejaVuSans-66" transform="translate(1431.005859 0)"/>
      <use xlink:href="#DejaVuSans-66" transform="translate(1466.210938 0)"/>
      <use xlink:href="#DejaVuSans-69" transform="translate(1501.416016 0)"/>
      <use xlink:href="#DejaVuSans-63" transform="translate(1529.199219 0)"/>
     </g>
    </g>
   </g>
   <g id="line2d_17">
    <path d="M 73.832727 294.603596 
L 75.291849 294.453703 
L 75.656629 294.596436 
L 77.480531 294.569612 
L 78.574872 294.465702 
L 78.939653 294.350648 
L 80.033994 294.369735 
L 83.317017 294.300848 
L 84.411359 294.326076 
L 85.87048 294.257544 
L 88.788723 294.316964 
L 89.518284 294.392025 
L 92.071747 294.34309 
L 93.530868 294.255961 
L 94.260429 294.263917 
L 94.625209 294.027595 
L 96.813892 293.94653 
L 97.908233 293.949923 
L 99.002574 294.036231 
L 100.096915 293.993246 
L 101.191256 294.036483 
L 103.015158 294.006746 
L 104.109499 294.178906 
L 105.203841 294.131325 
L 105.933401 294.207657 
L 106.662962 294.28064 
L 107.027743 294.207832 
L 109.216425 294.406753 
L 111.040327 294.327993 
L 112.134668 294.153974 
L 112.864229 294.150101 
L 115.782472 294.152707 
L 116.147252 294.175299 
L 116.512033 294.059327 
L 118.700715 294.274437 
L 121.618958 294.119471 
L 121.983739 294.124655 
L 122.348519 294.01427 
L 123.07808 294.106602 
L 123.80764 293.935219 
L 124.172421 293.977825 
L 124.537201 293.87261 
L 124.901982 293.918676 
L 125.631542 293.820771 
L 126.725884 293.806835 
L 127.090664 293.927632 
L 128.549785 293.954918 
L 129.279346 293.967888 
L 129.644127 293.933583 
L 130.373687 293.728488 
L 130.738468 293.614254 
L 133.291931 293.75088 
L 135.845393 293.309191 
L 136.574954 293.443249 
L 139.493197 293.016525 
L 139.857978 293.113721 
L 142.04666 292.648847 
L 142.776221 292.664056 
L 143.870562 292.349507 
L 145.694464 291.912982 
L 146.788805 291.800763 
L 147.153585 291.89243 
L 148.977487 291.547645 
L 150.071828 291.206976 
L 150.436609 291.258518 
L 150.801389 290.952693 
L 151.53095 290.769659 
L 151.89573 290.817216 
L 152.625291 290.62729 
L 152.990072 290.770737 
L 153.719632 290.59749 
L 154.084413 290.554516 
L 154.449193 290.33144 
L 155.178754 290.182591 
L 156.637875 290.167086 
L 157.367436 289.976932 
L 158.461777 289.83682 
L 158.826558 289.653627 
L 159.191338 289.635958 
L 159.556118 289.730683 
L 161.01524 289.045826 
L 161.38002 289.061515 
L 162.839142 288.630868 
L 163.203922 288.342266 
L 164.663044 288.001587 
L 165.392605 287.687961 
L 165.757385 287.765512 
L 166.122165 287.54964 
L 166.486946 287.5117 
L 168.310848 286.497533 
L 169.405189 285.958982 
L 170.13475 285.212661 
L 170.864311 284.311617 
L 171.229091 284.524479 
L 171.593871 284.561303 
L 172.688212 283.291644 
L 173.052993 283.139402 
L 173.417773 282.497641 
L 174.512114 282.11558 
L 174.876895 281.870282 
L 175.241675 281.9148 
L 176.336016 281.213992 
L 176.700797 281.065142 
L 177.065577 280.789869 
L 177.795138 280.724643 
L 178.159918 280.101052 
L 178.524699 280.092833 
L 178.889479 279.407239 
L 179.254259 279.052172 
L 179.98382 279.154082 
L 180.348601 278.900245 
L 180.713381 278.509233 
L 181.442942 278.054063 
L 181.807722 277.647154 
L 182.172503 277.896631 
L 183.631624 277.098263 
L 183.996404 276.803064 
L 184.361185 275.589981 
L 184.725965 275.820095 
L 185.455526 274.996354 
L 185.820306 274.960987 
L 186.185087 275.317097 
L 187.279428 274.506802 
L 187.644208 273.957091 
L 188.373769 273.999473 
L 188.73855 273.404672 
L 189.10333 273.363731 
L 189.46811 270.212603 
L 189.832891 272.285882 
L 190.197671 273.520969 
L 190.562451 272.920828 
L 190.927232 272.585455 
L 191.292012 272.531408 
L 191.656793 271.742098 
L 192.021573 271.494776 
L 193.115914 269.781602 
L 193.480695 268.663002 
L 193.845475 268.024537 
L 194.210255 267.157725 
L 194.575036 266.585422 
L 194.939816 267.499413 
L 195.304597 267.359539 
L 195.669377 267.384844 
L 196.034157 267.532494 
L 196.398938 267.808194 
L 196.763718 267.703008 
L 197.128498 265.68733 
L 197.493279 265.985475 
L 198.58762 264.923344 
L 198.9524 264.780387 
L 199.681961 264.84324 
L 200.046742 263.31956 
L 200.411522 263.264067 
L 201.141083 262.061614 
L 201.505863 262.471577 
L 201.870644 260.594787 
L 202.235424 261.038395 
L 202.600204 259.771449 
L 202.964985 259.16477 
L 203.329765 258.253818 
L 203.694545 258.886419 
L 204.059326 257.928153 
L 204.424106 256.333961 
L 204.788887 257.137285 
L 205.153667 257.366293 
L 205.518447 256.871444 
L 205.883228 255.413772 
L 206.248008 255.818686 
L 206.612789 254.531708 
L 206.977569 254.828174 
L 208.07191 252.213078 
L 209.166251 251.937009 
L 209.531032 250.921682 
L 209.895812 251.045236 
L 210.260592 250.664355 
L 210.625373 249.658052 
L 210.990153 249.402647 
L 211.719714 247.506106 
L 212.084494 247.370163 
L 212.449275 247.560026 
L 212.814055 247.069221 
L 213.178836 244.978414 
L 213.908396 246.204812 
L 214.273177 245.969227 
L 215.002737 245.898632 
L 215.367518 245.94017 
L 216.097079 245.687906 
L 216.461859 244.511545 
L 216.826639 244.455858 
L 217.19142 243.412605 
L 217.5562 243.409673 
L 217.920981 243.251192 
L 219.015322 240.267399 
L 219.380102 238.509979 
L 219.744883 239.71012 
L 220.109663 239.207092 
L 220.474443 238.167344 
L 220.839224 238.398783 
L 221.204004 236.178941 
L 221.568784 236.50462 
L 221.933565 236.23243 
L 222.298345 234.683503 
L 222.663126 234.668843 
L 223.027906 233.514288 
L 223.392686 233.792284 
L 223.757467 232.879089 
L 224.122247 232.393974 
L 224.487028 232.651699 
L 224.851808 232.026403 
L 225.216588 231.050905 
L 225.581369 231.362744 
L 225.946149 230.900094 
L 226.31093 229.364963 
L 226.67571 228.722993 
L 227.04049 228.783045 
L 227.405271 226.987854 
L 227.770051 227.307096 
L 228.499612 225.168936 
L 228.864392 223.035315 
L 229.229173 223.246196 
L 229.958733 222.046448 
L 230.323514 220.70216 
L 230.688294 220.881873 
L 231.053075 220.318498 
L 231.417855 218.192973 
L 231.782635 217.447225 
L 232.147416 213.923201 
L 232.512196 216.214395 
L 232.876977 215.798991 
L 233.241757 216.345396 
L 233.606537 215.703761 
L 234.336098 216.74583 
L 234.700878 216.538089 
L 235.065659 215.624618 
L 235.430439 215.899337 
L 236.16 214.735913 
L 236.52478 213.771885 
L 236.889561 213.619002 
L 237.254341 212.967333 
L 237.619122 210.623937 
L 237.983902 211.359287 
L 238.348682 208.216804 
L 238.713463 208.460059 
L 239.078243 206.751924 
L 239.443023 205.699088 
L 240.537365 203.762718 
L 240.902145 202.178045 
L 241.266925 199.565365 
L 241.631706 200.225126 
L 243.090827 197.249478 
L 243.455608 196.7601 
L 243.820388 196.778624 
L 244.185169 197.048241 
L 244.549949 196.122421 
L 244.914729 194.82488 
L 245.27951 195.987299 
L 245.64429 196.009736 
L 246.00907 197.045319 
L 246.373851 195.911996 
L 246.738631 194.149979 
L 247.103412 194.375758 
L 247.468192 193.615064 
L 248.562533 192.405331 
L 249.292094 191.516742 
L 249.656874 191.420488 
L 250.021655 204.304705 
L 250.386435 189.784831 
L 250.751216 189.087916 
L 251.115996 185.566902 
L 251.480776 188.83358 
L 252.210337 188.356255 
L 252.575117 188.353945 
L 252.939898 187.916789 
L 253.304678 187.701354 
L 253.669459 188.898126 
L 254.034239 189.656835 
L 254.399019 189.472395 
L 254.7638 188.44451 
L 255.12858 188.518318 
L 256.222921 187.653981 
L 256.587702 185.344783 
L 256.952482 186.25623 
L 257.317263 183.810599 
L 257.682043 184.841828 
L 258.046823 182.789048 
L 258.411604 181.507308 
L 258.776384 182.263055 
L 259.141164 180.691207 
L 259.505945 179.647522 
L 259.870725 179.425597 
L 260.235506 180.278847 
L 260.600286 180.728934 
L 261.694627 178.42377 
L 262.059408 178.953893 
L 262.424188 179.717864 
L 262.788968 179.866005 
L 263.153749 178.117629 
L 263.518529 177.466407 
L 263.883309 176.198995 
L 264.61287 175.709225 
L 264.977651 175.841856 
L 265.342431 175.674677 
L 266.071992 173.933684 
L 266.436772 174.949409 
L 266.801553 171.731812 
L 267.166333 171.814572 
L 267.531113 171.422205 
L 267.895894 169.075459 
L 268.260674 168.371336 
L 268.625455 167.948117 
L 268.990235 167.951199 
L 269.355015 166.678924 
L 269.719796 166.592194 
L 270.449356 164.580588 
L 270.814137 165.908361 
L 271.178917 166.763586 
L 271.908478 164.726923 
L 272.273258 165.725833 
L 272.638039 165.543188 
L 273.002819 165.978 
L 273.3676 164.440704 
L 273.73238 163.904323 
L 274.09716 165.066572 
L 274.461941 163.398198 
L 274.826721 163.531689 
L 275.191502 163.055787 
L 275.921062 162.871297 
L 276.285843 159.575732 
L 276.650623 159.479735 
L 277.015403 159.739829 
L 277.380184 160.536949 
L 278.109745 156.691105 
L 278.474525 154.994542 
L 278.839305 154.563925 
L 279.204086 154.711833 
L 279.568866 154.402192 
L 279.933647 152.716925 
L 280.298427 154.106687 
L 280.663207 152.626991 
L 281.027988 154.000108 
L 281.392768 153.015775 
L 281.757549 152.41994 
L 282.122329 152.370252 
L 282.487109 152.437381 
L 282.85189 151.154237 
L 283.21667 151.300029 
L 283.58145 152.688761 
L 283.946231 152.218203 
L 284.311011 152.787845 
L 284.675792 153.020668 
L 285.040572 151.240924 
L 285.405352 152.306822 
L 285.770133 152.593245 
L 286.134913 151.931795 
L 286.499694 151.527648 
L 286.864474 149.933412 
L 287.229254 150.269887 
L 287.594035 149.922907 
L 287.958815 150.037976 
L 288.323596 149.110899 
L 288.688376 148.705359 
L 289.053156 147.531915 
L 289.417937 147.019009 
L 289.782717 147.744122 
L 290.147497 147.959717 
L 290.512278 148.00822 
L 291.241839 146.339487 
L 291.606619 146.739533 
L 291.971399 145.522683 
L 292.33618 146.049341 
L 292.70096 145.821746 
L 293.065741 144.980079 
L 293.430521 145.185766 
L 293.795301 145.763952 
L 294.160082 145.500368 
L 294.524862 145.514144 
L 294.889642 143.327821 
L 295.619203 141.771234 
L 295.983984 142.02824 
L 296.348764 141.484064 
L 296.713544 139.672912 
L 297.078325 140.258792 
L 297.443105 137.659801 
L 297.807886 139.739755 
L 298.172666 138.017902 
L 298.537446 135.664151 
L 298.902227 136.352692 
L 299.267007 134.883011 
L 299.631788 133.8913 
L 299.996568 133.98617 
L 300.361348 133.242155 
L 300.726129 135.107339 
L 301.090909 133.553471 
L 301.455689 134.136112 
L 301.82047 134.477956 
L 302.914811 132.093896 
L 303.279591 134.078808 
L 303.644372 134.118579 
L 304.009152 133.241116 
L 304.373933 133.738329 
L 304.738713 134.943829 
L 305.103493 134.006272 
L 305.468274 131.824807 
L 305.833054 135.446294 
L 306.197835 134.470757 
L 306.562615 133.058734 
L 306.927395 134.243245 
L 307.292176 134.328829 
L 307.656956 132.394493 
L 308.021736 131.431179 
L 308.386517 129.665201 
L 308.751297 130.526392 
L 309.116078 129.873942 
L 309.480858 130.075178 
L 309.845638 130.62801 
L 310.210419 129.216332 
L 310.575199 128.637539 
L 310.93998 129.684079 
L 311.30476 129.423238 
L 311.66954 127.15862 
L 312.034321 126.660476 
L 312.399101 125.119234 
L 312.763882 127.650163 
L 313.128662 128.489549 
L 313.493442 127.664376 
L 313.858223 127.50657 
L 314.223003 127.635984 
L 314.587783 123.172067 
L 314.952564 126.15622 
L 315.317344 124.436639 
L 316.046905 125.306519 
L 316.411685 121.078716 
L 316.776466 120.538393 
L 317.141246 118.837714 
L 317.506027 118.770027 
L 317.870807 120.308338 
L 318.235587 118.186958 
L 318.600368 117.769962 
L 318.965148 116.674443 
L 319.329928 116.278257 
L 319.694709 115.033554 
L 320.059489 115.21965 
L 320.42427 118.237403 
L 320.78905 116.610057 
L 321.15383 115.579658 
L 321.518611 117.539338 
L 321.883391 116.455635 
L 322.248172 116.074157 
L 322.612952 114.509546 
L 323.342513 116.999719 
L 323.707293 116.726238 
L 324.072074 117.116657 
L 324.436854 116.992957 
L 324.801634 115.590041 
L 325.166415 117.212135 
L 325.531195 115.263294 
L 325.895975 114.574102 
L 326.260756 114.501896 
L 326.990317 112.075682 
L 327.355097 109.368394 
L 327.719877 111.214753 
L 328.084658 114.663308 
L 328.449438 110.778815 
L 328.814219 110.596335 
L 329.178999 113.203044 
L 329.90856 109.733576 
L 330.27334 109.687199 
L 330.638121 110.419627 
L 331.002901 110.38974 
L 331.367681 110.95062 
L 331.732462 104.356863 
L 332.097242 103.652954 
L 332.462022 103.849515 
L 332.826803 102.501922 
L 333.191583 102.059922 
L 333.556364 99.716156 
L 333.921144 102.694241 
L 334.285924 103.855438 
L 334.650705 101.307747 
L 335.015485 102.986533 
L 335.380266 100.131648 
L 335.745046 98.678049 
L 336.109826 95.151631 
L 336.474607 96.100528 
L 336.839387 90.875622 
L 337.568948 94.538136 
L 337.933728 96.210632 
L 338.298509 94.687331 
L 338.663289 94.984481 
L 339.028069 95.623548 
L 339.39285 95.493436 
L 339.75763 97.35062 
L 340.122411 96.48489 
L 340.487191 95.12769 
L 340.851971 95.440734 
L 341.216752 94.049836 
L 341.581532 94.403223 
L 341.946313 92.702151 
L 342.311093 93.902977 
L 342.675873 97.143063 
L 343.040654 94.962662 
L 343.405434 91.657072 
L 343.770215 94.396534 
L 344.134995 92.805157 
L 344.499775 94.458018 
L 344.864556 92.965492 
L 345.229336 92.944269 
L 346.323677 87.198204 
L 346.688458 89.772686 
L 347.053238 89.575828 
L 347.418018 88.28716 
L 347.782799 88.666973 
L 348.147579 90.863059 
L 348.87714 88.96575 
L 349.24192 90.356308 
L 349.606701 89.573978 
L 349.971481 88.05806 
L 350.336261 88.08754 
L 351.065822 85.572183 
L 351.430603 86.669605 
L 351.795383 86.651804 
L 352.160163 84.262938 
L 352.524944 85.49354 
L 353.254505 85.287144 
L 353.619285 83.960331 
L 353.984065 85.475473 
L 354.348846 85.520063 
L 354.713626 82.853386 
L 355.078407 82.820727 
L 355.443187 81.558883 
L 355.807967 78.231358 
L 356.172748 79.661444 
L 356.902308 78.876697 
L 357.267089 78.735696 
L 357.631869 79.091724 
L 357.99665 77.858132 
L 358.36143 79.305469 
L 359.090991 75.690997 
L 359.455771 77.132708 
L 359.820552 79.088952 
L 360.185332 79.853467 
L 360.550112 76.241193 
L 360.914893 78.391149 
L 361.279673 77.276141 
L 361.644454 81.170391 
L 362.009234 78.61254 
L 362.374014 77.660172 
L 362.738795 79.825079 
L 363.103575 80.023796 
L 363.468355 81.175604 
L 363.833136 79.104578 
L 364.197916 81.311653 
L 364.562697 78.630394 
L 364.927477 78.303142 
L 365.292257 75.766771 
L 365.657038 78.953825 
L 366.021818 78.939714 
L 366.386599 78.175559 
L 366.751379 78.257114 
L 367.116159 76.874289 
L 367.48094 77.945746 
L 367.84572 75.341726 
L 368.210501 75.988269 
L 368.575281 75.98958 
L 368.940061 85.009245 
L 369.669622 85.009245 
L 370.034402 73.791902 
L 370.399183 73.740753 
L 370.763963 75.241225 
L 371.128744 74.828466 
L 371.493524 73.266778 
L 371.858304 73.653663 
L 372.223085 72.961064 
L 372.587865 70.643943 
L 372.952646 71.508183 
L 373.317426 66.814628 
L 373.682206 67.778753 
L 374.046987 66.418893 
L 374.411767 66.783983 
L 374.776547 65.569517 
L 375.141328 69.40156 
L 375.506108 66.482008 
L 375.870889 67.455875 
L 376.235669 68.107907 
L 376.600449 69.547449 
L 376.96523 68.244117 
L 377.33001 69.423269 
L 378.059571 67.240983 
L 378.424351 68.765275 
L 378.789132 69.459665 
L 379.153912 69.211668 
L 379.518693 73.268782 
L 379.883473 69.434326 
L 380.248253 69.945349 
L 380.613034 67.919379 
L 380.977814 70.205491 
L 381.342594 69.72955 
L 382.072155 69.458525 
L 382.436936 67.330563 
L 382.801716 68.713665 
L 383.166496 67.531843 
L 383.531277 67.362052 
L 383.896057 68.060525 
L 384.260838 64.845778 
L 384.625618 68.505094 
L 384.990398 70.100703 
L 385.719959 67.822018 
L 386.08474 67.257347 
L 386.44952 66.201638 
L 386.8143 65.859518 
L 387.179081 65.330481 
L 387.543861 63.089305 
L 387.908641 63.595861 
L 388.273422 62.866113 
L 388.638202 59.333895 
L 389.002983 60.355513 
L 389.367763 62.278738 
L 389.732543 61.01107 
L 390.097324 58.450724 
L 390.462104 64.650381 
L 390.826885 60.955484 
L 391.191665 63.374009 
L 391.921226 60.571661 
L 392.286006 60.410438 
L 392.650787 57.721441 
L 393.015567 59.881601 
L 393.380347 54.905458 
L 393.745128 58.599418 
L 394.109908 56.29469 
L 394.474688 54.915666 
L 394.839469 55.151595 
L 395.204249 53.925105 
L 395.56903 53.568 
L 395.93381 57.041264 
L 396.29859 57.035676 
L 396.663371 57.475395 
L 397.028151 56.772233 
L 397.757712 53.662856 
L 398.122492 54.539474 
L 398.487273 54.351208 
L 398.487273 54.351208 
" clip-path="url(#pd1c3e668ee)" style="fill: none; stroke: #1f77b4; stroke-width: 1.5; stroke-linecap: square"/>
   </g>
   <g id="line2d_18">
    <path d="M 73.832727 294.835569 
L 75.656629 294.815458 
L 83.681798 294.589179 
L 84.776139 294.554937 
L 85.5057 294.522866 
L 89.518284 294.580024 
L 94.625209 294.50675 
L 94.98999 294.332974 
L 109.216425 294.507138 
L 111.040327 294.508162 
L 112.134668 294.355594 
L 113.59379 294.332663 
L 115.782472 294.299033 
L 116.147252 294.361618 
L 116.512033 294.262791 
L 120.159837 294.406296 
L 121.618958 294.307712 
L 123.07808 294.224647 
L 124.172421 294.053487 
L 125.266762 294.051482 
L 126.361103 293.932617 
L 127.090664 294.019823 
L 128.185005 294.081399 
L 130.008907 293.969082 
L 130.738468 293.809408 
L 131.832809 293.912191 
L 136.574954 293.587191 
L 136.939734 293.683878 
L 142.04666 293.079125 
L 143.505781 292.843793 
L 144.235342 292.850414 
L 145.329683 292.482916 
L 146.788805 292.225084 
L 147.153585 292.336547 
L 148.977487 292.14781 
L 151.16617 291.711984 
L 151.53095 291.566959 
L 152.260511 291.503418 
L 153.354852 291.266959 
L 154.084413 291.317094 
L 154.813973 291.079698 
L 155.543534 290.985298 
L 155.908315 290.768295 
L 157.002656 291.015283 
L 158.461777 290.583879 
L 158.826558 290.59967 
L 159.191338 290.443471 
L 160.285679 290.363658 
L 160.65046 290.140927 
L 162.474362 289.775463 
L 163.203922 289.638938 
L 163.933483 289.354156 
L 164.663044 289.261368 
L 165.392605 288.8807 
L 165.757385 289.008487 
L 166.851726 288.558885 
L 167.581287 288.184135 
L 167.946067 287.900168 
L 168.675628 287.702902 
L 169.040409 287.79354 
L 169.769969 287.654953 
L 170.864311 286.594491 
L 171.229091 286.339752 
L 171.593871 286.409783 
L 171.958652 286.273113 
L 173.052993 285.476852 
L 173.417773 285.342118 
L 174.147334 284.698857 
L 174.512114 284.610719 
L 174.876895 283.396714 
L 175.241675 283.51006 
L 175.606456 284.318796 
L 175.971236 284.230974 
L 176.700797 283.610406 
L 177.065577 284.171184 
L 177.430358 283.445081 
L 177.795138 283.400423 
L 178.159918 283.174731 
L 178.524699 282.646854 
L 178.889479 282.673679 
L 179.61904 281.86517 
L 179.98382 281.889553 
L 180.348601 281.708908 
L 180.713381 281.053094 
L 181.078161 281.274539 
L 181.442942 280.778156 
L 181.807722 280.927054 
L 182.172503 280.747861 
L 182.537283 280.82099 
L 182.902063 280.261692 
L 183.266844 280.28325 
L 183.631624 279.712651 
L 183.996404 279.811784 
L 184.725965 278.607458 
L 185.090746 278.369131 
L 185.455526 278.293337 
L 185.820306 278.016924 
L 186.185087 277.989526 
L 186.549867 278.095334 
L 186.914648 278.075266 
L 188.008989 277.680114 
L 188.373769 277.80877 
L 189.10333 277.4763 
L 189.46811 276.903105 
L 189.832891 275.616519 
L 190.197671 276.576892 
L 190.562451 276.893051 
L 190.927232 276.561145 
L 191.292012 276.753672 
L 191.656793 276.273358 
L 192.386353 275.652304 
L 192.751134 275.036615 
L 193.115914 274.650487 
L 193.480695 273.84158 
L 193.845475 271.44754 
L 194.210255 269.914118 
L 194.575036 272.18574 
L 194.939816 272.784784 
L 195.304597 272.801259 
L 195.669377 273.040688 
L 196.034157 273.023446 
L 196.398938 273.343883 
L 196.763718 272.682607 
L 197.128498 272.798885 
L 197.493279 271.563832 
L 197.858059 271.186422 
L 198.22284 271.400993 
L 198.9524 270.169396 
L 199.317181 270.502745 
L 199.681961 270.470605 
L 200.046742 270.073705 
L 200.411522 269.497636 
L 200.776302 269.197907 
L 201.141083 269.240391 
L 201.870644 267.454725 
L 202.235424 266.929509 
L 202.600204 266.64726 
L 202.964985 265.618472 
L 203.329765 265.262149 
L 204.424106 263.187656 
L 204.788887 263.539854 
L 205.518447 263.193457 
L 206.248008 262.528381 
L 206.612789 262.817513 
L 207.342349 262.450869 
L 208.07191 261.53349 
L 209.166251 261.064568 
L 209.531032 261.067641 
L 209.895812 260.105827 
L 210.260592 260.008947 
L 210.625373 260.035305 
L 210.990153 259.542714 
L 212.084494 257.103791 
L 212.449275 256.643748 
L 212.814055 254.423736 
L 213.178836 251.291602 
L 213.543616 255.938867 
L 213.908396 256.951534 
L 214.273177 256.668786 
L 214.637957 256.170185 
L 215.002737 256.238037 
L 215.367518 256.494825 
L 216.097079 255.445766 
L 216.826639 254.967092 
L 217.19142 254.579935 
L 217.5562 253.474416 
L 217.920981 253.217963 
L 218.285761 253.15529 
L 219.015322 252.17705 
L 219.380102 251.014237 
L 219.744883 250.289546 
L 220.109663 250.746265 
L 220.839224 249.317927 
L 221.204004 248.003949 
L 221.568784 247.621762 
L 221.933565 247.434846 
L 222.663126 245.327699 
L 223.027906 243.686678 
L 223.392686 244.405321 
L 223.757467 244.269859 
L 224.487028 242.886825 
L 224.851808 242.74414 
L 225.216588 242.845035 
L 225.581369 243.983839 
L 225.946149 243.39993 
L 226.31093 243.661242 
L 226.67571 243.04133 
L 227.04049 243.108716 
L 227.770051 241.480389 
L 228.134831 240.461354 
L 228.499612 240.657231 
L 229.229173 237.899042 
L 229.593953 238.552608 
L 229.958733 238.044673 
L 230.323514 236.842604 
L 230.688294 236.753355 
L 231.053075 235.946584 
L 231.417855 235.487235 
L 231.782635 232.283186 
L 232.147416 224.890207 
L 232.512196 230.212295 
L 232.876977 233.050065 
L 233.241757 233.349837 
L 233.971318 233.037439 
L 234.336098 233.124154 
L 234.700878 233.084432 
L 235.065659 232.201145 
L 235.430439 231.980696 
L 235.79522 232.255842 
L 236.52478 231.222458 
L 237.254341 229.367026 
L 237.619122 227.33479 
L 237.983902 228.018448 
L 238.348682 227.917203 
L 238.713463 224.231514 
L 239.078243 225.039853 
L 239.807804 222.580717 
L 240.172584 220.214603 
L 240.537365 220.129329 
L 240.902145 219.805296 
L 241.631706 215.683781 
L 241.996486 215.410338 
L 242.361267 214.801785 
L 242.726047 214.50459 
L 243.455608 212.152437 
L 243.820388 211.950807 
L 244.185169 211.881154 
L 244.549949 212.912408 
L 244.914729 213.031181 
L 245.64429 214.516362 
L 246.373851 215.002725 
L 246.738631 212.916655 
L 247.103412 212.390531 
L 247.468192 212.845507 
L 247.832972 211.916765 
L 248.197753 210.207896 
L 248.562533 211.695276 
L 248.927314 212.284889 
L 249.292094 210.52511 
L 249.656874 210.308655 
L 250.021655 209.317614 
L 250.386435 204.304705 
L 250.751216 206.311996 
L 251.115996 198.021701 
L 251.845557 207.865558 
L 252.210337 206.588244 
L 252.575117 207.93025 
L 252.939898 207.432087 
L 253.304678 207.349332 
L 253.669459 206.04963 
L 254.034239 208.243629 
L 254.399019 208.851211 
L 254.7638 208.282361 
L 255.12858 207.036327 
L 255.493361 206.611535 
L 255.858141 205.638901 
L 256.222921 205.57116 
L 256.587702 207.292805 
L 256.952482 206.308758 
L 257.317263 204.909409 
L 257.682043 202.942739 
L 258.046823 202.75575 
L 258.411604 201.94247 
L 258.776384 202.041816 
L 259.141164 199.948227 
L 259.505945 199.899932 
L 259.870725 198.459041 
L 260.235506 198.22966 
L 260.600286 197.789961 
L 260.965066 196.413252 
L 261.694627 196.42463 
L 262.424188 195.86758 
L 262.788968 196.695602 
L 263.153749 195.291875 
L 263.518529 194.544568 
L 263.883309 197.220425 
L 264.24809 197.353426 
L 264.61287 197.226818 
L 264.977651 197.307626 
L 265.342431 197.240172 
L 265.707211 195.900351 
L 266.071992 196.219855 
L 266.436772 196.760954 
L 266.801553 196.16375 
L 267.166333 193.422492 
L 267.531113 194.173779 
L 267.895894 193.799136 
L 268.260674 190.885054 
L 268.625455 192.3108 
L 269.719796 188.508823 
L 270.084576 176.622079 
L 270.449356 181.181512 
L 270.814137 188.038945 
L 271.178917 189.297517 
L 271.908478 188.081706 
L 272.273258 186.88935 
L 272.638039 187.780783 
L 273.002819 187.527835 
L 273.3676 188.465975 
L 273.73238 186.348086 
L 274.09716 188.21874 
L 274.826721 186.276273 
L 275.191502 186.248992 
L 275.556282 186.829328 
L 275.921062 184.401628 
L 276.285843 183.991132 
L 276.650623 181.958541 
L 277.015403 183.825205 
L 277.380184 185.012405 
L 277.744964 182.732458 
L 278.474525 176.374189 
L 278.839305 177.763786 
L 279.204086 176.619065 
L 279.568866 175.99389 
L 279.933647 174.509059 
L 280.298427 175.126452 
L 280.663207 175.299048 
L 281.027988 175.143908 
L 281.392768 174.650215 
L 281.757549 173.862837 
L 282.122329 171.665232 
L 282.487109 174.441877 
L 282.85189 175.227958 
L 283.21667 175.375842 
L 283.58145 176.625264 
L 283.946231 177.31864 
L 284.675792 177.061206 
L 285.040572 177.542938 
L 285.405352 177.26501 
L 285.770133 177.89516 
L 286.499694 175.352619 
L 286.864474 176.952908 
L 287.229254 176.409251 
L 287.594035 175.056114 
L 287.958815 175.205595 
L 288.323596 174.553907 
L 288.688376 172.524821 
L 289.053156 161.30708 
L 289.417937 161.008434 
L 289.782717 171.988551 
L 290.147497 173.528134 
L 290.512278 173.843337 
L 290.877058 172.783667 
L 291.241839 171.352475 
L 291.971399 169.748768 
L 292.33618 169.703352 
L 292.70096 170.235423 
L 293.065741 169.854265 
L 293.430521 161.292299 
L 293.795301 157.555471 
L 294.160082 156.100308 
L 294.524862 157.185254 
L 295.619203 153.383438 
L 295.983984 153.650289 
L 296.348764 155.663803 
L 296.713544 153.818682 
L 297.078325 153.11449 
L 297.443105 154.761958 
L 297.807886 155.66771 
L 298.537446 152.819563 
L 298.902227 150.107984 
L 299.267007 149.902874 
L 299.631788 148.431202 
L 299.996568 149.702361 
L 300.361348 149.527604 
L 300.726129 150.532121 
L 301.090909 149.569588 
L 301.455689 149.577612 
L 301.82047 150.425726 
L 302.18525 151.925484 
L 302.550031 151.208837 
L 302.914811 152.929666 
L 303.644372 153.051119 
L 304.009152 153.715287 
L 304.373933 152.505092 
L 304.738713 152.675907 
L 305.103493 151.718899 
L 305.468274 149.986764 
L 305.833054 151.962105 
L 306.197835 152.359631 
L 306.562615 152.166399 
L 306.927395 154.3863 
L 307.292176 152.526786 
L 308.021736 145.009097 
L 308.386517 139.029365 
L 309.116078 147.975649 
L 309.480858 147.313524 
L 309.845638 148.139454 
L 310.210419 147.116249 
L 310.93998 146.240136 
L 311.30476 146.370146 
L 311.66954 147.85955 
L 312.034321 147.491033 
L 312.399101 147.304888 
L 312.763882 145.554716 
L 313.128662 148.422329 
L 313.858223 145.722079 
L 314.223003 147.757966 
L 314.587783 146.575349 
L 314.952564 143.49799 
L 315.317344 143.800335 
L 315.682125 141.970131 
L 316.046905 140.897699 
L 316.411685 142.58147 
L 316.776466 142.921897 
L 317.506027 136.188586 
L 317.870807 136.073954 
L 318.235587 135.740848 
L 318.600368 135.058879 
L 318.965148 132.583026 
L 319.329928 133.889222 
L 319.694709 132.653485 
L 320.059489 132.748142 
L 320.42427 133.86781 
L 320.78905 136.607029 
L 321.15383 137.242184 
L 321.518611 137.287789 
L 321.883391 138.661906 
L 322.248172 136.665979 
L 322.977732 137.732765 
L 323.342513 137.981568 
L 323.707293 137.777647 
L 324.072074 137.375053 
L 324.436854 139.539625 
L 324.801634 138.543691 
L 325.166415 139.019943 
L 325.531195 137.604726 
L 325.895975 138.585495 
L 326.625536 136.171664 
L 326.990317 131.360409 
L 327.355097 120.09449 
L 328.084658 131.356118 
L 328.449438 131.665351 
L 328.814219 133.244092 
L 329.178999 131.749984 
L 329.543779 134.268108 
L 329.90856 133.378466 
L 330.27334 130.250275 
L 330.638121 131.963288 
L 331.002901 131.957419 
L 331.367681 134.057047 
L 331.732462 130.495233 
L 332.097242 124.467026 
L 332.462022 124.609682 
L 332.826803 134.103312 
L 333.191583 123.445651 
L 333.921144 120.287178 
L 334.285924 123.652989 
L 334.650705 123.490557 
L 335.015485 122.265077 
L 335.380266 119.446486 
L 335.745046 120.031575 
L 336.474607 113.091941 
L 336.839387 113.792787 
L 337.204168 113.588876 
L 337.568948 111.355996 
L 337.933728 111.272872 
L 338.298509 112.102501 
L 338.663289 110.958901 
L 339.028069 111.725037 
L 339.39285 111.817962 
L 339.75763 114.860943 
L 340.122411 115.619724 
L 340.851971 118.359065 
L 341.216752 116.477518 
L 341.581532 117.514334 
L 341.946313 117.634393 
L 342.311093 115.034083 
L 342.675873 117.954369 
L 343.040654 118.765435 
L 343.405434 115.941219 
L 343.770215 115.177282 
L 344.134995 117.266711 
L 344.499775 114.054216 
L 344.864556 117.182136 
L 345.229336 117.458166 
L 345.594116 113.473234 
L 346.323677 100.516029 
L 346.688458 107.14727 
L 347.053238 111.665447 
L 347.418018 111.597362 
L 347.782799 112.131 
L 348.147579 111.089169 
L 348.51236 111.211039 
L 348.87714 111.870479 
L 349.606701 109.754551 
L 349.971481 112.525051 
L 350.701042 105.886737 
L 351.065822 109.280236 
L 351.430603 105.363215 
L 351.795383 107.809749 
L 352.160163 108.410623 
L 352.524944 107.230238 
L 352.889724 104.325578 
L 353.254505 108.725108 
L 353.619285 108.579458 
L 353.984065 105.445188 
L 354.348846 105.976482 
L 354.713626 105.446945 
L 355.078407 101.200512 
L 355.807967 97.01632 
L 356.172748 97.343834 
L 356.537528 97.18381 
L 356.902308 96.148891 
L 357.267089 97.42519 
L 357.631869 96.068496 
L 357.99665 96.983078 
L 358.36143 95.708861 
L 359.455771 102.080601 
L 359.820552 101.107195 
L 360.185332 102.626297 
L 360.550112 102.203675 
L 360.914893 101.585272 
L 361.279673 101.308596 
L 361.644454 103.308305 
L 362.009234 103.936998 
L 362.374014 101.406778 
L 362.738795 102.272502 
L 363.103575 104.554945 
L 363.468355 102.204956 
L 363.833136 103.769712 
L 364.197916 104.265905 
L 364.562697 102.882294 
L 364.927477 98.376243 
L 365.292257 87.213024 
L 365.657038 92.460003 
L 366.021818 99.318635 
L 366.386599 99.319504 
L 366.751379 101.680885 
L 367.116159 100.735003 
L 367.84572 97.697856 
L 368.210501 97.025635 
L 368.575281 99.301155 
L 368.940061 85.009245 
L 369.669622 85.009245 
L 370.034402 95.769787 
L 370.399183 94.582606 
L 370.763963 95.018806 
L 371.128744 99.40604 
L 371.493524 98.74077 
L 371.858304 95.317092 
L 372.223085 96.231951 
L 372.587865 95.010029 
L 372.952646 95.857269 
L 373.317426 93.092818 
L 373.682206 88.075822 
L 374.046987 88.800401 
L 374.411767 84.85306 
L 374.776547 85.661505 
L 375.141328 85.315788 
L 375.506108 85.844606 
L 375.870889 85.696024 
L 376.235669 85.04635 
L 376.600449 86.620242 
L 376.96523 86.42103 
L 377.33001 86.441151 
L 377.694791 89.87127 
L 378.059571 90.646838 
L 378.424351 91.974087 
L 378.789132 92.807725 
L 379.883473 92.324216 
L 380.248253 92.697112 
L 380.613034 92.318547 
L 380.977814 92.793269 
L 381.342594 93.861915 
L 381.707375 91.368198 
L 382.072155 92.970288 
L 382.436936 93.967188 
L 382.801716 88.806765 
L 383.166496 92.82372 
L 383.531277 91.249158 
L 383.896057 86.915344 
L 384.260838 78.270551 
L 384.625618 76.739895 
L 384.990398 89.200893 
L 385.355179 91.974975 
L 385.719959 89.687154 
L 386.08474 88.31096 
L 386.44952 89.652466 
L 387.179081 87.557474 
L 387.543861 88.22638 
L 387.908641 85.176574 
L 388.273422 86.028421 
L 388.638202 84.485528 
L 389.002983 82.131156 
L 389.367763 80.533212 
L 389.732543 82.887661 
L 390.097324 81.735125 
L 390.462104 82.999702 
L 390.826885 82.906418 
L 391.191665 86.089773 
L 391.556445 85.310221 
L 392.286006 79.602188 
L 392.650787 79.099709 
L 393.015567 80.080857 
L 393.380347 78.701105 
L 393.745128 75.114457 
L 394.109908 74.208413 
L 394.474688 75.099452 
L 394.839469 70.732975 
L 395.204249 72.400417 
L 395.56903 72.189273 
L 395.93381 72.317851 
L 396.29859 72.813641 
L 397.028151 78.092474 
L 397.392932 79.421597 
L 398.487273 76.986693 
L 398.487273 76.986693 
" clip-path="url(#pd1c3e668ee)" style="fill: none; stroke: #ff7f0e; stroke-width: 1.5; stroke-linecap: square"/>
   </g>
   <g id="line2d_19">
    <path d="M 73.832727 295.256027 
L 81.857896 295.217635 
L 82.222676 295.265391 
L 82.952237 295.179869 
L 85.140919 295.251308 
L 94.260429 295.227426 
L 94.625209 295.008845 
L 94.98999 295.183146 
L 121.983739 295.307205 
L 122.348519 295.233028 
L 123.07808 295.369955 
L 125.631542 295.320102 
L 126.361103 295.337849 
L 126.725884 295.292074 
L 127.455444 295.394906 
L 128.549785 295.365795 
L 128.914566 295.420526 
L 130.008907 295.293118 
L 130.373687 295.378567 
L 131.468029 295.231125 
L 131.832809 295.349669 
L 134.751052 295.255401 
L 135.115832 295.239115 
L 135.480613 295.109357 
L 136.574954 295.344058 
L 137.304515 295.108366 
L 137.669295 295.186626 
L 138.034076 295.080338 
L 139.857978 295.269177 
L 140.952319 294.90196 
L 141.317099 295.09227 
L 141.681879 295.003423 
L 142.776221 295.173777 
L 143.141001 295.043534 
L 143.505781 295.086586 
L 144.235342 294.879505 
L 144.600123 294.928134 
L 145.329683 294.852797 
L 145.694464 294.983157 
L 146.424025 294.840652 
L 146.788805 295.063679 
L 150.436609 294.826744 
L 150.801389 294.630906 
L 151.16617 294.581184 
L 151.89573 294.746077 
L 152.625291 294.705962 
L 152.990072 294.944585 
L 154.449193 294.652109 
L 155.543534 294.684943 
L 155.908315 294.933246 
L 157.002656 294.517007 
L 157.732217 294.591543 
L 158.096997 294.536982 
L 158.461777 294.740941 
L 158.826558 294.541957 
L 159.556118 294.794177 
L 160.65046 294.445824 
L 161.744801 294.536258 
L 162.109581 294.342294 
L 162.474362 294.467435 
L 163.203922 294.191328 
L 163.568703 294.328794 
L 163.933483 294.231292 
L 164.298264 294.295984 
L 165.027824 294.251831 
L 165.757385 294.245025 
L 166.122165 294.146271 
L 166.486946 294.254622 
L 167.581287 294.09867 
L 167.946067 294.280262 
L 168.675628 294.140489 
L 169.040409 293.88324 
L 169.405189 293.765899 
L 169.769969 293.481088 
L 170.49953 293.440764 
L 170.864311 293.205126 
L 171.229091 293.672728 
L 171.593871 293.63952 
L 171.958652 293.371257 
L 172.323432 293.322515 
L 172.688212 292.957716 
L 173.052993 293.15055 
L 173.417773 292.643522 
L 174.147334 293.086591 
L 174.512114 292.992861 
L 174.876895 293.961568 
L 175.241675 293.89274 
L 175.606456 292.816017 
L 175.971236 292.697768 
L 176.336016 292.739859 
L 176.700797 292.942736 
L 177.065577 292.106685 
L 177.430358 292.807954 
L 177.795138 292.812221 
L 178.159918 292.414321 
L 178.524699 292.933979 
L 178.889479 292.22156 
L 179.254259 292.328212 
L 179.61904 292.725243 
L 180.348601 292.679337 
L 180.713381 292.944139 
L 181.078161 292.501842 
L 181.442942 292.763907 
L 181.807722 292.208099 
L 182.172503 292.63677 
L 182.537283 292.384055 
L 182.902063 292.742679 
L 183.266844 292.564612 
L 183.631624 292.873612 
L 184.361185 291.964791 
L 184.725965 292.700637 
L 185.090746 292.581194 
L 185.455526 292.191017 
L 185.820306 292.432063 
L 186.185087 292.81557 
L 186.549867 292.420204 
L 187.279428 292.080642 
L 187.644208 291.594138 
L 188.008989 291.829471 
L 188.373769 291.678703 
L 188.73855 291.26061 
L 189.10333 291.375432 
L 189.46811 288.797499 
L 189.832891 292.157363 
L 190.197671 292.432078 
L 190.562451 291.515777 
L 190.927232 291.512311 
L 191.656793 290.956741 
L 192.021573 290.99688 
L 192.386353 290.737311 
L 192.751134 290.854531 
L 193.480695 290.309422 
L 193.845475 292.064997 
L 194.210255 292.731607 
L 194.575036 289.887683 
L 194.939816 290.202629 
L 195.669377 289.832155 
L 196.034157 289.997048 
L 196.398938 289.952312 
L 196.763718 290.508401 
L 197.128498 288.376444 
L 197.493279 289.909643 
L 197.858059 289.902483 
L 198.22284 289.27944 
L 198.58762 289.603002 
L 198.9524 290.098991 
L 199.317181 289.786356 
L 199.681961 289.860635 
L 200.046742 288.733855 
L 200.411522 289.254431 
L 200.776302 288.883816 
L 201.141083 288.309223 
L 201.505863 289.637006 
L 201.870644 288.628062 
L 202.235424 289.596886 
L 202.600204 288.612189 
L 202.964985 289.034297 
L 203.329765 288.479669 
L 203.694545 289.828291 
L 204.059326 289.536233 
L 204.424106 288.634305 
L 205.153667 289.450541 
L 205.518447 289.165987 
L 205.883228 288.094939 
L 206.248008 288.778305 
L 206.612789 287.202195 
L 206.977569 287.69615 
L 207.342349 286.89686 
L 208.07191 286.167587 
L 208.801471 286.305767 
L 209.166251 286.36044 
L 209.531032 285.342041 
L 209.895812 286.427409 
L 210.260592 286.143408 
L 210.625373 285.110747 
L 210.990153 285.347934 
L 211.354934 285.115504 
L 211.719714 285.218166 
L 212.449275 286.404279 
L 212.814055 288.133486 
L 213.178836 289.174812 
L 213.543616 285.125382 
L 213.908396 284.741278 
L 214.273177 284.788442 
L 214.637957 285.223326 
L 215.002737 285.148595 
L 215.367518 284.933345 
L 216.097079 285.73014 
L 216.461859 284.739647 
L 216.826639 284.976766 
L 217.19142 284.32067 
L 217.5562 285.423256 
L 217.920981 285.521229 
L 218.285761 284.529426 
L 219.015322 283.578349 
L 219.380102 282.983742 
L 219.744883 284.908574 
L 220.109663 283.948827 
L 220.474443 283.646206 
L 220.839224 284.568856 
L 221.204004 283.662992 
L 221.568784 284.370858 
L 221.933565 284.285584 
L 222.298345 283.859811 
L 222.663126 284.829144 
L 223.027906 285.315609 
L 223.392686 284.874963 
L 223.757467 284.097231 
L 224.122247 284.437841 
L 224.487028 285.252873 
L 224.851808 284.770263 
L 225.581369 282.866906 
L 225.946149 282.988164 
L 226.31093 281.191721 
L 227.04049 281.162329 
L 227.405271 280.064378 
L 227.770051 281.314707 
L 228.134831 281.130145 
L 228.499612 279.999705 
L 228.864392 279.400991 
L 229.229173 280.835154 
L 229.593953 279.572112 
L 230.323514 279.347556 
L 231.053075 279.859914 
L 231.417855 278.193738 
L 231.782635 280.652039 
L 232.147416 284.520994 
L 232.876977 278.236926 
L 233.241757 278.483559 
L 233.606537 277.97025 
L 233.971318 278.667748 
L 234.336098 279.109675 
L 234.700878 278.941656 
L 235.065659 278.911473 
L 235.430439 279.406642 
L 235.79522 278.591959 
L 236.16 278.501777 
L 236.52478 278.037428 
L 236.889561 278.949661 
L 237.254341 279.088307 
L 237.619122 278.777147 
L 237.983902 278.82884 
L 238.348682 275.787601 
L 238.713463 279.716544 
L 239.078243 277.200071 
L 239.443023 277.245181 
L 239.807804 277.972464 
L 240.172584 279.901335 
L 240.537365 279.121388 
L 240.902145 277.860749 
L 241.266925 277.39023 
L 241.631706 280.029345 
L 241.996486 279.539147 
L 242.361267 279.54753 
L 242.726047 278.724304 
L 243.090827 279.576306 
L 243.455608 280.095663 
L 244.185169 280.655087 
L 244.914729 277.281699 
L 245.27951 277.569214 
L 245.64429 276.981374 
L 246.00907 277.820449 
L 246.373851 276.397271 
L 246.738631 276.721324 
L 247.103412 277.473227 
L 247.468192 276.257557 
L 247.832972 276.7426 
L 248.197753 278.009011 
L 248.562533 276.198054 
L 248.927314 275.220401 
L 249.292094 276.479633 
L 249.656874 276.599833 
L 250.021655 290.475091 
L 250.386435 280.968126 
L 250.751216 278.263921 
L 251.115996 283.033201 
L 251.480776 281.805929 
L 251.845557 276.187855 
L 252.210337 277.256011 
L 252.575117 275.911694 
L 252.939898 275.972702 
L 253.304678 275.840022 
L 253.669459 278.336496 
L 254.034239 276.901207 
L 254.399019 276.109183 
L 254.7638 275.650149 
L 255.12858 276.969991 
L 255.493361 277.118243 
L 255.858141 277.784043 
L 256.222921 277.570821 
L 256.587702 273.539978 
L 256.952482 275.435472 
L 257.317263 274.389189 
L 257.682043 277.387089 
L 258.046823 275.521299 
L 258.411604 275.052838 
L 259.141164 276.23098 
L 259.505945 275.23559 
L 260.235506 277.537186 
L 260.965066 279.03528 
L 261.694627 277.487139 
L 262.424188 279.338285 
L 262.788968 278.658403 
L 263.153749 278.313754 
L 263.518529 278.409838 
L 263.883309 274.46657 
L 264.24809 274.021298 
L 265.342431 273.922505 
L 265.707211 274.399189 
L 266.071992 273.201829 
L 266.436772 273.676455 
L 266.801553 271.056062 
L 267.166333 273.880079 
L 267.531113 272.736426 
L 267.895894 270.764324 
L 268.260674 272.974283 
L 268.625455 271.125317 
L 268.990235 272.343701 
L 269.355015 272.382593 
L 269.719796 273.57137 
L 270.084576 284.301384 
L 270.814137 273.357416 
L 271.908478 272.133217 
L 272.273258 274.324483 
L 272.638039 273.250405 
L 273.002819 273.938165 
L 273.3676 271.462729 
L 273.73238 273.044237 
L 274.461941 271.760074 
L 274.826721 272.743416 
L 275.556282 271.670261 
L 275.921062 273.957669 
L 276.285843 271.0726 
L 276.650623 273.009194 
L 277.015403 271.402624 
L 277.380184 271.012544 
L 277.744964 271.103162 
L 278.474525 274.108353 
L 278.839305 272.288139 
L 279.204086 273.580768 
L 279.568866 273.896302 
L 279.933647 273.695867 
L 280.298427 274.468235 
L 280.663207 272.815943 
L 281.027988 274.3442 
L 281.392768 273.853561 
L 281.757549 274.045103 
L 282.122329 276.19302 
L 282.85189 271.414279 
L 283.21667 271.412187 
L 283.58145 271.551498 
L 283.946231 270.387564 
L 284.311011 271.073018 
L 284.675792 271.447462 
L 285.040572 269.185985 
L 285.405352 270.529812 
L 285.770133 270.186085 
L 286.499694 271.663028 
L 286.864474 268.468503 
L 287.594035 270.354793 
L 287.958815 270.320381 
L 288.323596 270.044992 
L 288.688376 271.668538 
L 289.053156 281.712835 
L 289.417937 281.498575 
L 289.782717 271.243571 
L 290.147497 269.919583 
L 290.512278 269.652883 
L 290.877058 269.952913 
L 291.241839 270.475012 
L 291.606619 271.785714 
L 291.971399 271.261915 
L 292.33618 271.833989 
L 292.70096 271.074324 
L 293.065741 270.613814 
L 293.430521 279.381468 
L 293.795301 283.696481 
L 294.160082 284.88806 
L 294.889642 282.808354 
L 295.619203 283.875796 
L 295.983984 283.865951 
L 296.348764 281.308261 
L 296.713544 281.342231 
L 297.078325 282.632301 
L 297.443105 278.385844 
L 297.807886 279.560044 
L 298.172666 279.17879 
L 298.537446 278.332588 
L 298.902227 281.732708 
L 299.267007 280.468137 
L 299.631788 280.948097 
L 299.996568 279.77181 
L 300.361348 279.202551 
L 300.726129 280.063218 
L 301.090909 279.471882 
L 301.455689 280.0465 
L 301.82047 279.54023 
L 302.18525 277.297704 
L 302.550031 277.38006 
L 302.914811 274.652229 
L 303.279591 276.541422 
L 303.644372 276.55546 
L 304.009152 275.01383 
L 304.373933 276.721237 
L 304.738713 277.755922 
L 305.103493 277.775373 
L 305.468274 277.326043 
L 305.833054 278.972189 
L 306.562615 276.380335 
L 306.927395 275.344945 
L 307.656956 278.686349 
L 308.021736 281.910082 
L 308.386517 286.123836 
L 309.116078 277.386293 
L 309.480858 278.249654 
L 310.575199 277.511245 
L 310.93998 278.931943 
L 311.30476 278.541091 
L 311.66954 274.78707 
L 312.034321 274.657443 
L 312.399101 273.302345 
L 312.763882 277.583447 
L 313.128662 275.55522 
L 313.493442 276.25129 
L 313.858223 277.272491 
L 314.223003 275.366017 
L 314.587783 272.084719 
L 314.952564 278.14623 
L 315.317344 276.124304 
L 315.682125 278.370058 
L 316.046905 279.89682 
L 316.411685 273.985246 
L 316.776466 273.104497 
L 317.141246 274.720319 
L 317.506027 278.069441 
L 317.870807 279.722384 
L 318.235587 277.934111 
L 318.600368 278.199083 
L 318.965148 279.579418 
L 319.329928 277.877035 
L 320.059489 277.959508 
L 320.42427 279.857593 
L 320.78905 275.491028 
L 321.15383 273.825474 
L 321.518611 275.739549 
L 321.883391 273.281729 
L 322.248172 274.896178 
L 322.612952 272.817055 
L 323.342513 274.506151 
L 323.707293 274.436591 
L 324.072074 275.229604 
L 324.436854 272.941332 
L 324.801634 272.53435 
L 325.166415 273.680192 
L 325.531195 273.146568 
L 325.895975 271.476607 
L 326.260756 272.694461 
L 326.625536 272.678486 
L 326.990317 276.203272 
L 327.355097 284.761904 
L 327.719877 280.112328 
L 328.084658 278.79519 
L 328.449438 274.601464 
L 328.814219 272.840243 
L 329.178999 276.94106 
L 329.543779 272.682705 
L 329.90856 271.84311 
L 330.27334 274.924925 
L 330.638121 273.944339 
L 331.002901 273.920321 
L 331.367681 272.381573 
L 331.732462 269.349631 
L 332.097242 274.673928 
L 332.462022 274.727834 
L 332.826803 263.88661 
L 333.191583 274.102271 
L 333.556364 273.162874 
L 333.921144 277.895063 
L 334.650705 273.30519 
L 335.015485 276.209457 
L 335.380266 276.173162 
L 335.745046 274.134474 
L 336.109826 274.246568 
L 336.474607 278.496588 
L 336.839387 272.570834 
L 337.204168 274.891333 
L 337.568948 278.670141 
L 337.933728 280.42576 
L 338.298509 278.07283 
L 338.663289 279.51358 
L 339.39285 279.163475 
L 339.75763 277.977677 
L 340.122411 276.353166 
L 340.487191 273.727336 
L 340.851971 272.569669 
L 341.216752 273.060319 
L 341.581532 272.376889 
L 341.946313 270.555757 
L 342.311093 274.356894 
L 342.675873 274.676695 
L 343.040654 271.685226 
L 343.405434 271.203853 
L 343.770215 274.707252 
L 344.134995 271.026446 
L 344.499775 275.891802 
L 344.864556 271.271356 
L 345.229336 270.974103 
L 345.594116 272.866296 
L 345.958897 276.790899 
L 346.323677 282.170175 
L 347.053238 273.398381 
L 347.418018 272.177798 
L 347.782799 272.023973 
L 348.147579 275.26189 
L 348.87714 272.583271 
L 349.24192 275.124957 
L 349.606701 275.307427 
L 349.971481 271.02101 
L 350.336261 274.730931 
L 350.701042 276.581561 
L 351.065822 271.779947 
L 351.430603 276.79439 
L 352.160163 271.340315 
L 352.889724 276.510044 
L 353.254505 272.050035 
L 353.619285 270.868874 
L 353.984065 275.518284 
L 354.348846 275.031581 
L 354.713626 272.894441 
L 355.078407 277.108215 
L 355.443187 277.999434 
L 355.807967 276.703038 
L 356.172748 277.80561 
L 356.537528 277.593456 
L 356.902308 278.215806 
L 357.267089 276.798506 
L 357.631869 278.511228 
L 357.99665 276.363054 
L 358.36143 279.084608 
L 359.090991 270.517317 
L 359.455771 270.540107 
L 359.820552 273.469757 
L 360.185332 272.71517 
L 360.550112 269.525518 
L 360.914893 272.293877 
L 361.279673 271.455544 
L 361.644454 273.350086 
L 362.009234 270.163542 
L 362.738795 273.040577 
L 363.103575 270.956852 
L 363.468355 274.458648 
L 363.833136 270.822866 
L 364.197916 272.533748 
L 364.562697 271.2361 
L 364.927477 275.414899 
L 365.292257 284.041747 
L 365.657038 281.981822 
L 366.021818 275.109079 
L 366.386599 274.344055 
L 366.751379 272.064229 
L 367.116159 271.627287 
L 367.48094 274.405572 
L 367.84572 273.13187 
L 368.210501 274.450634 
L 368.575281 272.176424 
L 368.940061 295.488 
L 369.669622 295.488 
L 370.034402 273.510115 
L 370.763963 275.710419 
L 371.128744 270.910426 
L 371.493524 270.014008 
L 371.858304 273.824571 
L 372.223085 272.217113 
L 372.587865 271.121914 
L 372.952646 271.138914 
L 373.317426 269.20981 
L 373.682206 275.190931 
L 374.046987 273.106492 
L 374.411767 277.418923 
L 374.776547 275.396012 
L 375.141328 279.573772 
L 375.506108 276.125401 
L 376.235669 278.549557 
L 376.600449 278.415207 
L 376.96523 277.311087 
L 377.33001 278.470118 
L 377.694791 274.064059 
L 378.059571 272.082146 
L 378.424351 272.279188 
L 379.153912 272.084937 
L 379.518693 276.374015 
L 379.883473 272.59811 
L 380.248253 272.736237 
L 380.613034 271.088833 
L 380.977814 272.900222 
L 381.342594 271.355635 
L 381.707375 273.762466 
L 382.072155 271.976237 
L 382.436936 268.851375 
L 382.801716 275.3949 
L 383.166496 270.196123 
L 383.531277 271.600894 
L 384.625618 287.253198 
L 384.990398 276.38781 
L 385.355179 272.476114 
L 386.08474 274.434387 
L 386.44952 272.037172 
L 387.179081 273.261007 
L 387.543861 270.350924 
L 387.908641 273.907287 
L 388.638202 270.336366 
L 389.367763 277.233526 
L 389.732543 273.611408 
L 390.097324 272.203598 
L 390.462104 277.13868 
L 390.826885 273.537066 
L 391.556445 272.007609 
L 391.921226 273.444821 
L 392.286006 276.29625 
L 392.650787 274.109732 
L 393.015567 275.288743 
L 393.380347 271.692352 
L 393.745128 278.972961 
L 394.109908 277.574277 
L 394.474688 275.304214 
L 394.839469 279.906621 
L 395.204249 277.012688 
L 395.56903 276.866727 
L 395.93381 280.211412 
L 396.29859 279.710035 
L 396.663371 277.475868 
L 397.392932 271.068406 
L 397.757712 270.537923 
L 398.122492 272.240723 
L 398.487273 272.852515 
L 398.487273 272.852515 
" clip-path="url(#pd1c3e668ee)" style="fill: none; stroke: #2ca02c; stroke-width: 1.5; stroke-linecap: square"/>
   </g>
   <g id="patch_3">
    <path d="M 57.6 307.584 
L 57.6 41.472 
" style="fill: none; stroke: #000000; stroke-width: 0.8; stroke-linejoin: miter; stroke-linecap: square"/>
   </g>
   <g id="patch_4">
    <path d="M 414.72 307.584 
L 414.72 41.472 
" style="fill: none; stroke: #000000; stroke-width: 0.8; stroke-linejoin: miter; stroke-linecap: square"/>
   </g>
   <g id="patch_5">
    <path d="M 57.6 307.584 
L 414.72 307.584 
" style="fill: none; stroke: #000000; stroke-width: 0.8; stroke-linejoin: miter; stroke-linecap: square"/>
   </g>
   <g id="patch_6">
    <path d="M 57.6 41.472 
L 414.72 41.472 
" style="fill: none; stroke: #000000; stroke-width: 0.8; stroke-linejoin: miter; stroke-linecap: square"/>
   </g>
   <g id="legend_1">
    <g id="patch_7">
     <path d="M 64.6 93.506375 
L 186.25625 93.506375 
Q 188.25625 93.506375 188.25625 91.506375 
L 188.25625 48.472 
Q 188.25625 46.472 186.25625 46.472 
L 64.6 46.472 
Q 62.6 46.472 62.6 48.472 
L 62.6 91.506375 
Q 62.6 93.506375 64.6 93.506375 
z
" style="fill: #ffffff; opacity: 0.8; stroke: #cccccc; stroke-linejoin: miter"/>
    </g>
    <g id="line2d_20">
     <path d="M 66.6 54.570438 
L 76.6 54.570438 
L 86.6 54.570438 
" style="fill: none; stroke: #1f77b4; stroke-width: 1.5; stroke-linecap: square"/>
    </g>
    <g id="text_19">
     <!-- Weekly maximum -->
     <g transform="translate(94.6 58.070438) scale(0.1 -0.1)">
      <defs>
       <path id="DejaVuSans-57" d="M 213 4666 
L 850 4666 
L 1831 722 
L 2809 4666 
L 3519 4666 
L 4500 722 
L 5478 4666 
L 6119 4666 
L 4947 0 
L 4153 0 
L 3169 4050 
L 2175 0 
L 1381 0 
L 213 4666 
z
" transform="scale(0.015625)"/>
       <path id="DejaVuSans-6b" d="M 581 4863 
L 1159 4863 
L 1159 1991 
L 2875 3500 
L 3609 3500 
L 1753 1863 
L 3688 0 
L 2938 0 
L 1159 1709 
L 1159 0 
L 581 0 
L 581 4863 
z
" transform="scale(0.015625)"/>
       <path id="DejaVuSans-79" d="M 2059 -325 
Q 1816 -950 1584 -1140 
Q 1353 -1331 966 -1331 
L 506 -1331 
L 506 -850 
L 844 -850 
Q 1081 -850 1212 -737 
Q 1344 -625 1503 -206 
L 1606 56 
L 191 3500 
L 800 3500 
L 1894 763 
L 2988 3500 
L 3597 3500 
L 2059 -325 
z
" transform="scale(0.015625)"/>
       <path id="DejaVuSans-6d" d="M 3328 2828 
Q 3544 3216 3844 3400 
Q 4144 3584 4550 3584 
Q 5097 3584 5394 3201 
Q 5691 2819 5691 2113 
L 5691 0 
L 5113 0 
L 5113 2094 
Q 5113 2597 4934 2840 
Q 4756 3084 4391 3084 
Q 3944 3084 3684 2787 
Q 3425 2491 3425 1978 
L 3425 0 
L 2847 0 
L 2847 2094 
Q 2847 2600 2669 2842 
Q 2491 3084 2119 3084 
Q 1678 3084 1418 2786 
Q 1159 2488 1159 1978 
L 1159 0 
L 581 0 
L 581 3500 
L 1159 3500 
L 1159 2956 
Q 1356 3278 1631 3431 
Q 1906 3584 2284 3584 
Q 2666 3584 2933 3390 
Q 3200 3197 3328 2828 
z
" transform="scale(0.015625)"/>
       <path id="DejaVuSans-78" d="M 3513 3500 
L 2247 1797 
L 3578 0 
L 2900 0 
L 1881 1375 
L 863 0 
L 184 0 
L 1544 1831 
L 300 3500 
L 978 3500 
L 1906 2253 
L 2834 3500 
L 3513 3500 
z
" transform="scale(0.015625)"/>
       <path id="DejaVuSans-75" d="M 544 1381 
L 544 3500 
L 1119 3500 
L 1119 1403 
Q 1119 906 1312 657 
Q 1506 409 1894 409 
Q 2359 409 2629 706 
Q 2900 1003 2900 1516 
L 2900 3500 
L 3475 3500 
L 3475 0 
L 2900 0 
L 2900 538 
Q 2691 219 2414 64 
Q 2138 -91 1772 -91 
Q 1169 -91 856 284 
Q 544 659 544 1381 
z
M 1991 3584 
L 1991 3584 
z
" transform="scale(0.015625)"/>
      </defs>
      <use xlink:href="#DejaVuSans-57"/>
      <use xlink:href="#DejaVuSans-65" transform="translate(93.001953 0)"/>
      <use xlink:href="#DejaVuSans-65" transform="translate(154.525391 0)"/>
      <use xlink:href="#DejaVuSans-6b" transform="translate(216.048828 0)"/>
      <use xlink:href="#DejaVuSans-6c" transform="translate(273.958984 0)"/>
      <use xlink:href="#DejaVuSans-79" transform="translate(301.742188 0)"/>
      <use xlink:href="#DejaVuSans-20" transform="translate(360.921875 0)"/>
      <use xlink:href="#DejaVuSans-6d" transform="translate(392.708984 0)"/>
      <use xlink:href="#DejaVuSans-61" transform="translate(490.121094 0)"/>
      <use xlink:href="#DejaVuSans-78" transform="translate(551.400391 0)"/>
      <use xlink:href="#DejaVuSans-69" transform="translate(610.580078 0)"/>
      <use xlink:href="#DejaVuSans-6d" transform="translate(638.363281 0)"/>
      <use xlink:href="#DejaVuSans-75" transform="translate(735.775391 0)"/>
      <use xlink:href="#DejaVuSans-6d" transform="translate(799.154297 0)"/>
     </g>
    </g>
    <g id="line2d_21">
     <path d="M 66.6 69.248563 
L 76.6 69.248563 
L 86.6 69.248563 
" style="fill: none; stroke: #ff7f0e; stroke-width: 1.5; stroke-linecap: square"/>
    </g>
    <g id="text_20">
     <!-- Weekly minimum -->
     <g transform="translate(94.6 72.748563) scale(0.1 -0.1)">
      <defs>
       <path id="DejaVuSans-6e" d="M 3513 2113 
L 3513 0 
L 2938 0 
L 2938 2094 
Q 2938 2591 2744 2837 
Q 2550 3084 2163 3084 
Q 1697 3084 1428 2787 
Q 1159 2491 1159 1978 
L 1159 0 
L 581 0 
L 581 3500 
L 1159 3500 
L 1159 2956 
Q 1366 3272 1645 3428 
Q 1925 3584 2291 3584 
Q 2894 3584 3203 3211 
Q 3513 2838 3513 2113 
z
" transform="scale(0.015625)"/>
      </defs>
      <use xlink:href="#DejaVuSans-57"/>
      <use xlink:href="#DejaVuSans-65" transform="translate(93.001953 0)"/>
      <use xlink:href="#DejaVuSans-65" transform="translate(154.525391 0)"/>
      <use xlink:href="#DejaVuSans-6b" transform="translate(216.048828 0)"/>
      <use xlink:href="#DejaVuSans-6c" transform="translate(273.958984 0)"/>
      <use xlink:href="#DejaVuSans-79" transform="translate(301.742188 0)"/>
      <use xlink:href="#DejaVuSans-20" transform="translate(360.921875 0)"/>
      <use xlink:href="#DejaVuSans-6d" transform="translate(392.708984 0)"/>
      <use xlink:href="#DejaVuSans-69" transform="translate(490.121094 0)"/>
      <use xlink:href="#DejaVuSans-6e" transform="translate(517.904297 0)"/>
      <use xlink:href="#DejaVuSans-69" transform="translate(581.283203 0)"/>
      <use xlink:href="#DejaVuSans-6d" transform="translate(609.066406 0)"/>
      <use xlink:href="#DejaVuSans-75" transform="translate(706.478516 0)"/>
      <use xlink:href="#DejaVuSans-6d" transform="translate(769.857422 0)"/>
     </g>
    </g>
    <g id="line2d_22">
     <path d="M 66.6 83.926688 
L 76.6 83.926688 
L 86.6 83.926688 
" style="fill: none; stroke: #2ca02c; stroke-width: 1.5; stroke-linecap: square"/>
    </g>
    <g id="text_21">
     <!-- Weekly range -->
     <g transform="translate(94.6 87.426688) scale(0.1 -0.1)">
      <use xlink:href="#DejaVuSans-57"/>
      <use xlink:href="#DejaVuSans-65" transform="translate(93.001953 0)"/>
      <use xlink:href="#DejaVuSans-65" transform="translate(154.525391 0)"/>
      <use xlink:href="#DejaVuSans-6b" transform="translate(216.048828 0)"/>
      <use xlink:href="#DejaVuSans-6c" transform="translate(273.958984 0)"/>
      <use xlink:href="#DejaVuSans-79" transform="translate(301.742188 0)"/>
      <use xlink:href="#DejaVuSans-20" transform="translate(360.921875 0)"/>
      <use xlink:href="#DejaVuSans-72" transform="translate(392.708984 0)"/>
      <use xlink:href="#DejaVuSans-61" transform="translate(433.822266 0)"/>
      <use xlink:href="#DejaVuSans-6e" transform="translate(495.101562 0)"/>
      <use xlink:href="#DejaVuSans-67" transform="translate(558.480469 0)"/>
      <use xlink:href="#DejaVuSans-65" transform="translate(621.957031 0)"/>
     </g>
    </g>
   </g>
  </g>
 </g>
 <defs>
  <clipPath id="pd1c3e668ee">
   <rect x="57.6" y="41.472" width="357.12" height="266.112"/>
  </clipPath>
 </defs>
</svg>
