<?xml version="1.0" encoding="utf-8" standalone="no"?>
<!DOCTYPE svg PUBLIC "-//W3C//DTD SVG 1.1//EN"
  "http://www.w3.org/Graphics/SVG/1.1/DTD/svg11.dtd">
<svg xmlns:xlink="http://www.w3.org/1999/xlink" width="460.8pt" height="345.6pt" viewBox="0 0 460.8 345.6" xmlns="http://www.w3.org/2000/svg" version="1.1">
 <metadata>
  <rdf:RDF xmlns:dc="http://purl.org/dc/elements/1.1/" xmlns:cc="http://creativecommons.org/ns#" xmlns:rdf="http://www.w3.org/1999/02/22-rdf-syntax-ns#">
   <cc:Work>
    <dc:type rdf:resource="http://purl.org/dc/dcmitype/StillImage"/>
    <dc:date>2025-03-30T05:36:16.423144</dc:date>
    <dc:format>image/svg+xml</dc:format>
    <dc:creator>
     <cc:Agent>
      <dc:title>Matplotlib v3.10.1, https://matplotlib.org/</dc:title>
     </cc:Agent>
    </dc:creator>
   </cc:Work>
  </rdf:RDF>
 </metadata>
 <defs>
  <style type="text/css">*{stroke-linejoin: round; stroke-linecap: butt}</style>
 </defs>
 <g id="figure_1">
  <g id="patch_1">
   <path d="M 0 345.6 
L 460.8 345.6 
L 460.8 0 
L 0 0 
z
" style="fill: #ffffff"/>
  </g>
  <g id="axes_1">
   <g id="patch_2">
    <path d="M 57.6 307.584 
L 414.72 307.584 
L 414.72 41.472 
L 57.6 41.472 
z
" style="fill: #ffffff"/>
   </g>
   <g id="matplotlib.axis_1">
    <g id="xtick_1">
     <g id="line2d_1">
      <defs>
       <path id="m59a22d922f" d="M 0 0 
L 0 3.5 
" style="stroke: #000000; stroke-width: 0.8"/>
      </defs>
      <g>
       <use xlink:href="#m59a22d922f" x="60.704502" y="307.584" style="stroke: #000000; stroke-width: 0.8"/>
      </g>
     </g>
     <g id="text_1">
      <!-- 2008 -->
      <g transform="translate(47.979502 322.182437) scale(0.1 -0.1)">
       <defs>
        <path id="DejaVuSans-32" d="M 1228 531 
L 3431 531 
L 3431 0 
L 469 0 
L 469 531 
Q 828 903 1448 1529 
Q 2069 2156 2228 2338 
Q 2531 2678 2651 2914 
Q 2772 3150 2772 3378 
Q 2772 3750 2511 3984 
Q 2250 4219 1831 4219 
Q 1534 4219 1204 4116 
Q 875 4013 500 3803 
L 500 4441 
Q 881 4594 1212 4672 
Q 1544 4750 1819 4750 
Q 2544 4750 2975 4387 
Q 3406 4025 3406 3419 
Q 3406 3131 3298 2873 
Q 3191 2616 2906 2266 
Q 2828 2175 2409 1742 
Q 1991 1309 1228 531 
z
" transform="scale(0.015625)"/>
        <path id="DejaVuSans-30" d="M 2034 4250 
Q 1547 4250 1301 3770 
Q 1056 3291 1056 2328 
Q 1056 1369 1301 889 
Q 1547 409 2034 409 
Q 2525 409 2770 889 
Q 3016 1369 3016 2328 
Q 3016 3291 2770 3770 
Q 2525 4250 2034 4250 
z
M 2034 4750 
Q 2819 4750 3233 4129 
Q 3647 3509 3647 2328 
Q 3647 1150 3233 529 
Q 2819 -91 2034 -91 
Q 1250 -91 836 529 
Q 422 1150 422 2328 
Q 422 3509 836 4129 
Q 1250 4750 2034 4750 
z
" transform="scale(0.015625)"/>
        <path id="DejaVuSans-38" d="M 2034 2216 
Q 1584 2216 1326 1975 
Q 1069 1734 1069 1313 
Q 1069 891 1326 650 
Q 1584 409 2034 409 
Q 2484 409 2743 651 
Q 3003 894 3003 1313 
Q 3003 1734 2745 1975 
Q 2488 2216 2034 2216 
z
M 1403 2484 
Q 997 2584 770 2862 
Q 544 3141 544 3541 
Q 544 4100 942 4425 
Q 1341 4750 2034 4750 
Q 2731 4750 3128 4425 
Q 3525 4100 3525 3541 
Q 3525 3141 3298 2862 
Q 3072 2584 2669 2484 
Q 3125 2378 3379 2068 
Q 3634 1759 3634 1313 
Q 3634 634 3220 271 
Q 2806 -91 2034 -91 
Q 1263 -91 848 271 
Q 434 634 434 1313 
Q 434 1759 690 2068 
Q 947 2378 1403 2484 
z
M 1172 3481 
Q 1172 3119 1398 2916 
Q 1625 2713 2034 2713 
Q 2441 2713 2670 2916 
Q 2900 3119 2900 3481 
Q 2900 3844 2670 4047 
Q 2441 4250 2034 4250 
Q 1625 4250 1398 4047 
Q 1172 3844 1172 3481 
z
" transform="scale(0.015625)"/>
       </defs>
       <use xlink:href="#DejaVuSans-32"/>
       <use xlink:href="#DejaVuSans-30" transform="translate(63.623047 0)"/>
       <use xlink:href="#DejaVuSans-30" transform="translate(127.246094 0)"/>
       <use xlink:href="#DejaVuSans-38" transform="translate(190.869141 0)"/>
      </g>
     </g>
    </g>
    <g id="xtick_2">
     <g id="line2d_2">
      <g>
       <use xlink:href="#m59a22d922f" x="100.035373" y="307.584" style="stroke: #000000; stroke-width: 0.8"/>
      </g>
     </g>
     <g id="text_2">
      <!-- 2010 -->
      <g transform="translate(87.310373 322.182437) scale(0.1 -0.1)">
       <defs>
        <path id="DejaVuSans-31" d="M 794 531 
L 1825 531 
L 1825 4091 
L 703 3866 
L 703 4441 
L 1819 4666 
L 2450 4666 
L 2450 531 
L 3481 531 
L 3481 0 
L 794 0 
L 794 531 
z
" transform="scale(0.015625)"/>
       </defs>
       <use xlink:href="#DejaVuSans-32"/>
       <use xlink:href="#DejaVuSans-30" transform="translate(63.623047 0)"/>
       <use xlink:href="#DejaVuSans-31" transform="translate(127.246094 0)"/>
       <use xlink:href="#DejaVuSans-30" transform="translate(190.869141 0)"/>
      </g>
     </g>
    </g>
    <g id="xtick_3">
     <g id="line2d_3">
      <g>
       <use xlink:href="#m59a22d922f" x="139.312439" y="307.584" style="stroke: #000000; stroke-width: 0.8"/>
      </g>
     </g>
     <g id="text_3">
      <!-- 2012 -->
      <g transform="translate(126.587439 322.182437) scale(0.1 -0.1)">
       <use xlink:href="#DejaVuSans-32"/>
       <use xlink:href="#DejaVuSans-30" transform="translate(63.623047 0)"/>
       <use xlink:href="#DejaVuSans-31" transform="translate(127.246094 0)"/>
       <use xlink:href="#DejaVuSans-32" transform="translate(190.869141 0)"/>
      </g>
     </g>
    </g>
    <g id="xtick_4">
     <g id="line2d_4">
      <g>
       <use xlink:href="#m59a22d922f" x="178.64331" y="307.584" style="stroke: #000000; stroke-width: 0.8"/>
      </g>
     </g>
     <g id="text_4">
      <!-- 2014 -->
      <g transform="translate(165.91831 322.182437) scale(0.1 -0.1)">
       <defs>
        <path id="DejaVuSans-34" d="M 2419 4116 
L 825 1625 
L 2419 1625 
L 2419 4116 
z
M 2253 4666 
L 3047 4666 
L 3047 1625 
L 3713 1625 
L 3713 1100 
L 3047 1100 
L 3047 0 
L 2419 0 
L 2419 1100 
L 313 1100 
L 313 1709 
L 2253 4666 
z
" transform="scale(0.015625)"/>
       </defs>
       <use xlink:href="#DejaVuSans-32"/>
       <use xlink:href="#DejaVuSans-30" transform="translate(63.623047 0)"/>
       <use xlink:href="#DejaVuSans-31" transform="translate(127.246094 0)"/>
       <use xlink:href="#DejaVuSans-34" transform="translate(190.869141 0)"/>
      </g>
     </g>
    </g>
    <g id="xtick_5">
     <g id="line2d_5">
      <g>
       <use xlink:href="#m59a22d922f" x="217.920376" y="307.584" style="stroke: #000000; stroke-width: 0.8"/>
      </g>
     </g>
     <g id="text_5">
      <!-- 2016 -->
      <g transform="translate(205.195376 322.182437) scale(0.1 -0.1)">
       <defs>
        <path id="DejaVuSans-36" d="M 2113 2584 
Q 1688 2584 1439 2293 
Q 1191 2003 1191 1497 
Q 1191 994 1439 701 
Q 1688 409 2113 409 
Q 2538 409 2786 701 
Q 3034 994 3034 1497 
Q 3034 2003 2786 2293 
Q 2538 2584 2113 2584 
z
M 3366 4563 
L 3366 3988 
Q 3128 4100 2886 4159 
Q 2644 4219 2406 4219 
Q 1781 4219 1451 3797 
Q 1122 3375 1075 2522 
Q 1259 2794 1537 2939 
Q 1816 3084 2150 3084 
Q 2853 3084 3261 2657 
Q 3669 2231 3669 1497 
Q 3669 778 3244 343 
Q 2819 -91 2113 -91 
Q 1303 -91 875 529 
Q 447 1150 447 2328 
Q 447 3434 972 4092 
Q 1497 4750 2381 4750 
Q 2619 4750 2861 4703 
Q 3103 4656 3366 4563 
z
" transform="scale(0.015625)"/>
       </defs>
       <use xlink:href="#DejaVuSans-32"/>
       <use xlink:href="#DejaVuSans-30" transform="translate(63.623047 0)"/>
       <use xlink:href="#DejaVuSans-31" transform="translate(127.246094 0)"/>
       <use xlink:href="#DejaVuSans-36" transform="translate(190.869141 0)"/>
      </g>
     </g>
    </g>
    <g id="xtick_6">
     <g id="line2d_6">
      <g>
       <use xlink:href="#m59a22d922f" x="257.251247" y="307.584" style="stroke: #000000; stroke-width: 0.8"/>
      </g>
     </g>
     <g id="text_6">
      <!-- 2018 -->
      <g transform="translate(244.526247 322.182437) scale(0.1 -0.1)">
       <use xlink:href="#DejaVuSans-32"/>
       <use xlink:href="#DejaVuSans-30" transform="translate(63.623047 0)"/>
       <use xlink:href="#DejaVuSans-31" transform="translate(127.246094 0)"/>
       <use xlink:href="#DejaVuSans-38" transform="translate(190.869141 0)"/>
      </g>
     </g>
    </g>
    <g id="xtick_7">
     <g id="line2d_7">
      <g>
       <use xlink:href="#m59a22d922f" x="296.528313" y="307.584" style="stroke: #000000; stroke-width: 0.8"/>
      </g>
     </g>
     <g id="text_7">
      <!-- 2020 -->
      <g transform="translate(283.803313 322.182437) scale(0.1 -0.1)">
       <use xlink:href="#DejaVuSans-32"/>
       <use xlink:href="#DejaVuSans-30" transform="translate(63.623047 0)"/>
       <use xlink:href="#DejaVuSans-32" transform="translate(127.246094 0)"/>
       <use xlink:href="#DejaVuSans-30" transform="translate(190.869141 0)"/>
      </g>
     </g>
    </g>
    <g id="xtick_8">
     <g id="line2d_8">
      <g>
       <use xlink:href="#m59a22d922f" x="335.859183" y="307.584" style="stroke: #000000; stroke-width: 0.8"/>
      </g>
     </g>
     <g id="text_8">
      <!-- 2022 -->
      <g transform="translate(323.134183 322.182437) scale(0.1 -0.1)">
       <use xlink:href="#DejaVuSans-32"/>
       <use xlink:href="#DejaVuSans-30" transform="translate(63.623047 0)"/>
       <use xlink:href="#DejaVuSans-32" transform="translate(127.246094 0)"/>
       <use xlink:href="#DejaVuSans-32" transform="translate(190.869141 0)"/>
      </g>
     </g>
    </g>
    <g id="xtick_9">
     <g id="line2d_9">
      <g>
       <use xlink:href="#m59a22d922f" x="375.13625" y="307.584" style="stroke: #000000; stroke-width: 0.8"/>
      </g>
     </g>
     <g id="text_9">
      <!-- 2024 -->
      <g transform="translate(362.41125 322.182437) scale(0.1 -0.1)">
       <use xlink:href="#DejaVuSans-32"/>
       <use xlink:href="#DejaVuSans-30" transform="translate(63.623047 0)"/>
       <use xlink:href="#DejaVuSans-32" transform="translate(127.246094 0)"/>
       <use xlink:href="#DejaVuSans-34" transform="translate(190.869141 0)"/>
      </g>
     </g>
    </g>
    <g id="xtick_10">
     <g id="line2d_10">
      <g>
       <use xlink:href="#m59a22d922f" x="414.46712" y="307.584" style="stroke: #000000; stroke-width: 0.8"/>
      </g>
     </g>
     <g id="text_10">
      <!-- 2026 -->
      <g transform="translate(401.74212 322.182437) scale(0.1 -0.1)">
       <use xlink:href="#DejaVuSans-32"/>
       <use xlink:href="#DejaVuSans-30" transform="translate(63.623047 0)"/>
       <use xlink:href="#DejaVuSans-32" transform="translate(127.246094 0)"/>
       <use xlink:href="#DejaVuSans-36" transform="translate(190.869141 0)"/>
      </g>
     </g>
    </g>
    <g id="text_11">
     <!-- Updated 2025-03-30 05:36:16.421786 - Last record 2025-03-15 -->
     <g transform="translate(75.905312 335.860562) scale(0.1 -0.1)">
      <defs>
       <path id="DejaVuSans-55" d="M 556 4666 
L 1191 4666 
L 1191 1831 
Q 1191 1081 1462 751 
Q 1734 422 2344 422 
Q 2950 422 3222 751 
Q 3494 1081 3494 1831 
L 3494 4666 
L 4128 4666 
L 4128 1753 
Q 4128 841 3676 375 
Q 3225 -91 2344 -91 
Q 1459 -91 1007 375 
Q 556 841 556 1753 
L 556 4666 
z
" transform="scale(0.015625)"/>
       <path id="DejaVuSans-70" d="M 1159 525 
L 1159 -1331 
L 581 -1331 
L 581 3500 
L 1159 3500 
L 1159 2969 
Q 1341 3281 1617 3432 
Q 1894 3584 2278 3584 
Q 2916 3584 3314 3078 
Q 3713 2572 3713 1747 
Q 3713 922 3314 415 
Q 2916 -91 2278 -91 
Q 1894 -91 1617 61 
Q 1341 213 1159 525 
z
M 3116 1747 
Q 3116 2381 2855 2742 
Q 2594 3103 2138 3103 
Q 1681 3103 1420 2742 
Q 1159 2381 1159 1747 
Q 1159 1113 1420 752 
Q 1681 391 2138 391 
Q 2594 391 2855 752 
Q 3116 1113 3116 1747 
z
" transform="scale(0.015625)"/>
       <path id="DejaVuSans-64" d="M 2906 2969 
L 2906 4863 
L 3481 4863 
L 3481 0 
L 2906 0 
L 2906 525 
Q 2725 213 2448 61 
Q 2172 -91 1784 -91 
Q 1150 -91 751 415 
Q 353 922 353 1747 
Q 353 2572 751 3078 
Q 1150 3584 1784 3584 
Q 2172 3584 2448 3432 
Q 2725 3281 2906 2969 
z
M 947 1747 
Q 947 1113 1208 752 
Q 1469 391 1925 391 
Q 2381 391 2643 752 
Q 2906 1113 2906 1747 
Q 2906 2381 2643 2742 
Q 2381 3103 1925 3103 
Q 1469 3103 1208 2742 
Q 947 2381 947 1747 
z
" transform="scale(0.015625)"/>
       <path id="DejaVuSans-61" d="M 2194 1759 
Q 1497 1759 1228 1600 
Q 959 1441 959 1056 
Q 959 750 1161 570 
Q 1363 391 1709 391 
Q 2188 391 2477 730 
Q 2766 1069 2766 1631 
L 2766 1759 
L 2194 1759 
z
M 3341 1997 
L 3341 0 
L 2766 0 
L 2766 531 
Q 2569 213 2275 61 
Q 1981 -91 1556 -91 
Q 1019 -91 701 211 
Q 384 513 384 1019 
Q 384 1609 779 1909 
Q 1175 2209 1959 2209 
L 2766 2209 
L 2766 2266 
Q 2766 2663 2505 2880 
Q 2244 3097 1772 3097 
Q 1472 3097 1187 3025 
Q 903 2953 641 2809 
L 641 3341 
Q 956 3463 1253 3523 
Q 1550 3584 1831 3584 
Q 2591 3584 2966 3190 
Q 3341 2797 3341 1997 
z
" transform="scale(0.015625)"/>
       <path id="DejaVuSans-74" d="M 1172 4494 
L 1172 3500 
L 2356 3500 
L 2356 3053 
L 1172 3053 
L 1172 1153 
Q 1172 725 1289 603 
Q 1406 481 1766 481 
L 2356 481 
L 2356 0 
L 1766 0 
Q 1100 0 847 248 
Q 594 497 594 1153 
L 594 3053 
L 172 3053 
L 172 3500 
L 594 3500 
L 594 4494 
L 1172 4494 
z
" transform="scale(0.015625)"/>
       <path id="DejaVuSans-65" d="M 3597 1894 
L 3597 1613 
L 953 1613 
Q 991 1019 1311 708 
Q 1631 397 2203 397 
Q 2534 397 2845 478 
Q 3156 559 3463 722 
L 3463 178 
Q 3153 47 2828 -22 
Q 2503 -91 2169 -91 
Q 1331 -91 842 396 
Q 353 884 353 1716 
Q 353 2575 817 3079 
Q 1281 3584 2069 3584 
Q 2775 3584 3186 3129 
Q 3597 2675 3597 1894 
z
M 3022 2063 
Q 3016 2534 2758 2815 
Q 2500 3097 2075 3097 
Q 1594 3097 1305 2825 
Q 1016 2553 972 2059 
L 3022 2063 
z
" transform="scale(0.015625)"/>
       <path id="DejaVuSans-20" transform="scale(0.015625)"/>
       <path id="DejaVuSans-35" d="M 691 4666 
L 3169 4666 
L 3169 4134 
L 1269 4134 
L 1269 2991 
Q 1406 3038 1543 3061 
Q 1681 3084 1819 3084 
Q 2600 3084 3056 2656 
Q 3513 2228 3513 1497 
Q 3513 744 3044 326 
Q 2575 -91 1722 -91 
Q 1428 -91 1123 -41 
Q 819 9 494 109 
L 494 744 
Q 775 591 1075 516 
Q 1375 441 1709 441 
Q 2250 441 2565 725 
Q 2881 1009 2881 1497 
Q 2881 1984 2565 2268 
Q 2250 2553 1709 2553 
Q 1456 2553 1204 2497 
Q 953 2441 691 2322 
L 691 4666 
z
" transform="scale(0.015625)"/>
       <path id="DejaVuSans-2d" d="M 313 2009 
L 1997 2009 
L 1997 1497 
L 313 1497 
L 313 2009 
z
" transform="scale(0.015625)"/>
       <path id="DejaVuSans-33" d="M 2597 2516 
Q 3050 2419 3304 2112 
Q 3559 1806 3559 1356 
Q 3559 666 3084 287 
Q 2609 -91 1734 -91 
Q 1441 -91 1130 -33 
Q 819 25 488 141 
L 488 750 
Q 750 597 1062 519 
Q 1375 441 1716 441 
Q 2309 441 2620 675 
Q 2931 909 2931 1356 
Q 2931 1769 2642 2001 
Q 2353 2234 1838 2234 
L 1294 2234 
L 1294 2753 
L 1863 2753 
Q 2328 2753 2575 2939 
Q 2822 3125 2822 3475 
Q 2822 3834 2567 4026 
Q 2313 4219 1838 4219 
Q 1578 4219 1281 4162 
Q 984 4106 628 3988 
L 628 4550 
Q 988 4650 1302 4700 
Q 1616 4750 1894 4750 
Q 2613 4750 3031 4423 
Q 3450 4097 3450 3541 
Q 3450 3153 3228 2886 
Q 3006 2619 2597 2516 
z
" transform="scale(0.015625)"/>
       <path id="DejaVuSans-3a" d="M 750 794 
L 1409 794 
L 1409 0 
L 750 0 
L 750 794 
z
M 750 3309 
L 1409 3309 
L 1409 2516 
L 750 2516 
L 750 3309 
z
" transform="scale(0.015625)"/>
       <path id="DejaVuSans-2e" d="M 684 794 
L 1344 794 
L 1344 0 
L 684 0 
L 684 794 
z
" transform="scale(0.015625)"/>
       <path id="DejaVuSans-37" d="M 525 4666 
L 3525 4666 
L 3525 4397 
L 1831 0 
L 1172 0 
L 2766 4134 
L 525 4134 
L 525 4666 
z
" transform="scale(0.015625)"/>
       <path id="DejaVuSans-4c" d="M 628 4666 
L 1259 4666 
L 1259 531 
L 3531 531 
L 3531 0 
L 628 0 
L 628 4666 
z
" transform="scale(0.015625)"/>
       <path id="DejaVuSans-73" d="M 2834 3397 
L 2834 2853 
Q 2591 2978 2328 3040 
Q 2066 3103 1784 3103 
Q 1356 3103 1142 2972 
Q 928 2841 928 2578 
Q 928 2378 1081 2264 
Q 1234 2150 1697 2047 
L 1894 2003 
Q 2506 1872 2764 1633 
Q 3022 1394 3022 966 
Q 3022 478 2636 193 
Q 2250 -91 1575 -91 
Q 1294 -91 989 -36 
Q 684 19 347 128 
L 347 722 
Q 666 556 975 473 
Q 1284 391 1588 391 
Q 1994 391 2212 530 
Q 2431 669 2431 922 
Q 2431 1156 2273 1281 
Q 2116 1406 1581 1522 
L 1381 1569 
Q 847 1681 609 1914 
Q 372 2147 372 2553 
Q 372 3047 722 3315 
Q 1072 3584 1716 3584 
Q 2034 3584 2315 3537 
Q 2597 3491 2834 3397 
z
" transform="scale(0.015625)"/>
       <path id="DejaVuSans-72" d="M 2631 2963 
Q 2534 3019 2420 3045 
Q 2306 3072 2169 3072 
Q 1681 3072 1420 2755 
Q 1159 2438 1159 1844 
L 1159 0 
L 581 0 
L 581 3500 
L 1159 3500 
L 1159 2956 
Q 1341 3275 1631 3429 
Q 1922 3584 2338 3584 
Q 2397 3584 2469 3576 
Q 2541 3569 2628 3553 
L 2631 2963 
z
" transform="scale(0.015625)"/>
       <path id="DejaVuSans-63" d="M 3122 3366 
L 3122 2828 
Q 2878 2963 2633 3030 
Q 2388 3097 2138 3097 
Q 1578 3097 1268 2742 
Q 959 2388 959 1747 
Q 959 1106 1268 751 
Q 1578 397 2138 397 
Q 2388 397 2633 464 
Q 2878 531 3122 666 
L 3122 134 
Q 2881 22 2623 -34 
Q 2366 -91 2075 -91 
Q 1284 -91 818 406 
Q 353 903 353 1747 
Q 353 2603 823 3093 
Q 1294 3584 2113 3584 
Q 2378 3584 2631 3529 
Q 2884 3475 3122 3366 
z
" transform="scale(0.015625)"/>
       <path id="DejaVuSans-6f" d="M 1959 3097 
Q 1497 3097 1228 2736 
Q 959 2375 959 1747 
Q 959 1119 1226 758 
Q 1494 397 1959 397 
Q 2419 397 2687 759 
Q 2956 1122 2956 1747 
Q 2956 2369 2687 2733 
Q 2419 3097 1959 3097 
z
M 1959 3584 
Q 2709 3584 3137 3096 
Q 3566 2609 3566 1747 
Q 3566 888 3137 398 
Q 2709 -91 1959 -91 
Q 1206 -91 779 398 
Q 353 888 353 1747 
Q 353 2609 779 3096 
Q 1206 3584 1959 3584 
z
" transform="scale(0.015625)"/>
      </defs>
      <use xlink:href="#DejaVuSans-55"/>
      <use xlink:href="#DejaVuSans-70" transform="translate(73.193359 0)"/>
      <use xlink:href="#DejaVuSans-64" transform="translate(136.669922 0)"/>
      <use xlink:href="#DejaVuSans-61" transform="translate(200.146484 0)"/>
      <use xlink:href="#DejaVuSans-74" transform="translate(261.425781 0)"/>
      <use xlink:href="#DejaVuSans-65" transform="translate(300.634766 0)"/>
      <use xlink:href="#DejaVuSans-64" transform="translate(362.158203 0)"/>
      <use xlink:href="#DejaVuSans-20" transform="translate(425.634766 0)"/>
      <use xlink:href="#DejaVuSans-32" transform="translate(457.421875 0)"/>
      <use xlink:href="#DejaVuSans-30" transform="translate(521.044922 0)"/>
      <use xlink:href="#DejaVuSans-32" transform="translate(584.667969 0)"/>
      <use xlink:href="#DejaVuSans-35" transform="translate(648.291016 0)"/>
      <use xlink:href="#DejaVuSans-2d" transform="translate(711.914062 0)"/>
      <use xlink:href="#DejaVuSans-30" transform="translate(747.998047 0)"/>
      <use xlink:href="#DejaVuSans-33" transform="translate(811.621094 0)"/>
      <use xlink:href="#DejaVuSans-2d" transform="translate(875.244141 0)"/>
      <use xlink:href="#DejaVuSans-33" transform="translate(911.328125 0)"/>
      <use xlink:href="#DejaVuSans-30" transform="translate(974.951172 0)"/>
      <use xlink:href="#DejaVuSans-20" transform="translate(1038.574219 0)"/>
      <use xlink:href="#DejaVuSans-30" transform="translate(1070.361328 0)"/>
      <use xlink:href="#DejaVuSans-35" transform="translate(1133.984375 0)"/>
      <use xlink:href="#DejaVuSans-3a" transform="translate(1197.607422 0)"/>
      <use xlink:href="#DejaVuSans-33" transform="translate(1231.298828 0)"/>
      <use xlink:href="#DejaVuSans-36" transform="translate(1294.921875 0)"/>
      <use xlink:href="#DejaVuSans-3a" transform="translate(1358.544922 0)"/>
      <use xlink:href="#DejaVuSans-31" transform="translate(1392.236328 0)"/>
      <use xlink:href="#DejaVuSans-36" transform="translate(1455.859375 0)"/>
      <use xlink:href="#DejaVuSans-2e" transform="translate(1519.482422 0)"/>
      <use xlink:href="#DejaVuSans-34" transform="translate(1551.269531 0)"/>
      <use xlink:href="#DejaVuSans-32" transform="translate(1614.892578 0)"/>
      <use xlink:href="#DejaVuSans-31" transform="translate(1678.515625 0)"/>
      <use xlink:href="#DejaVuSans-37" transform="translate(1742.138672 0)"/>
      <use xlink:href="#DejaVuSans-38" transform="translate(1805.761719 0)"/>
      <use xlink:href="#DejaVuSans-36" transform="translate(1869.384766 0)"/>
      <use xlink:href="#DejaVuSans-20" transform="translate(1933.007812 0)"/>
      <use xlink:href="#DejaVuSans-2d" transform="translate(1964.794922 0)"/>
      <use xlink:href="#DejaVuSans-20" transform="translate(2000.878906 0)"/>
      <use xlink:href="#DejaVuSans-4c" transform="translate(2032.666016 0)"/>
      <use xlink:href="#DejaVuSans-61" transform="translate(2088.378906 0)"/>
      <use xlink:href="#DejaVuSans-73" transform="translate(2149.658203 0)"/>
      <use xlink:href="#DejaVuSans-74" transform="translate(2201.757812 0)"/>
      <use xlink:href="#DejaVuSans-20" transform="translate(2240.966797 0)"/>
      <use xlink:href="#DejaVuSans-72" transform="translate(2272.753906 0)"/>
      <use xlink:href="#DejaVuSans-65" transform="translate(2311.617188 0)"/>
      <use xlink:href="#DejaVuSans-63" transform="translate(2373.140625 0)"/>
      <use xlink:href="#DejaVuSans-6f" transform="translate(2428.121094 0)"/>
      <use xlink:href="#DejaVuSans-72" transform="translate(2489.302734 0)"/>
      <use xlink:href="#DejaVuSans-64" transform="translate(2528.666016 0)"/>
      <use xlink:href="#DejaVuSans-20" transform="translate(2592.142578 0)"/>
      <use xlink:href="#DejaVuSans-32" transform="translate(2623.929688 0)"/>
      <use xlink:href="#DejaVuSans-30" transform="translate(2687.552734 0)"/>
      <use xlink:href="#DejaVuSans-32" transform="translate(2751.175781 0)"/>
      <use xlink:href="#DejaVuSans-35" transform="translate(2814.798828 0)"/>
      <use xlink:href="#DejaVuSans-2d" transform="translate(2878.421875 0)"/>
      <use xlink:href="#DejaVuSans-30" transform="translate(2914.505859 0)"/>
      <use xlink:href="#DejaVuSans-33" transform="translate(2978.128906 0)"/>
      <use xlink:href="#DejaVuSans-2d" transform="translate(3041.751953 0)"/>
      <use xlink:href="#DejaVuSans-31" transform="translate(3077.835938 0)"/>
      <use xlink:href="#DejaVuSans-35" transform="translate(3141.458984 0)"/>
     </g>
    </g>
   </g>
   <g id="matplotlib.axis_2">
    <g id="ytick_1">
     <g id="line2d_11">
      <defs>
       <path id="m11ebe69ef8" d="M 0 0 
L -3.5 0 
" style="stroke: #000000; stroke-width: 0.8"/>
      </defs>
      <g>
       <use xlink:href="#m11ebe69ef8" x="57.6" y="295.488" style="stroke: #000000; stroke-width: 0.8"/>
      </g>
     </g>
     <g id="text_12">
      <!-- 0 -->
      <g transform="translate(44.2375 299.287219) scale(0.1 -0.1)">
       <use xlink:href="#DejaVuSans-30"/>
      </g>
     </g>
    </g>
    <g id="ytick_2">
     <g id="line2d_12">
      <g>
       <use xlink:href="#m11ebe69ef8" x="57.6" y="245.005552" style="stroke: #000000; stroke-width: 0.8"/>
      </g>
     </g>
     <g id="text_13">
      <!-- 10 -->
      <g transform="translate(37.875 248.80477) scale(0.1 -0.1)">
       <use xlink:href="#DejaVuSans-31"/>
       <use xlink:href="#DejaVuSans-30" transform="translate(63.623047 0)"/>
      </g>
     </g>
    </g>
    <g id="ytick_3">
     <g id="line2d_13">
      <g>
       <use xlink:href="#m11ebe69ef8" x="57.6" y="194.523103" style="stroke: #000000; stroke-width: 0.8"/>
      </g>
     </g>
     <g id="text_14">
      <!-- 20 -->
      <g transform="translate(37.875 198.322322) scale(0.1 -0.1)">
       <use xlink:href="#DejaVuSans-32"/>
       <use xlink:href="#DejaVuSans-30" transform="translate(63.623047 0)"/>
      </g>
     </g>
    </g>
    <g id="ytick_4">
     <g id="line2d_14">
      <g>
       <use xlink:href="#m11ebe69ef8" x="57.6" y="144.040655" style="stroke: #000000; stroke-width: 0.8"/>
      </g>
     </g>
     <g id="text_15">
      <!-- 30 -->
      <g transform="translate(37.875 147.839874) scale(0.1 -0.1)">
       <use xlink:href="#DejaVuSans-33"/>
       <use xlink:href="#DejaVuSans-30" transform="translate(63.623047 0)"/>
      </g>
     </g>
    </g>
    <g id="ytick_5">
     <g id="line2d_15">
      <g>
       <use xlink:href="#m11ebe69ef8" x="57.6" y="93.558207" style="stroke: #000000; stroke-width: 0.8"/>
      </g>
     </g>
     <g id="text_16">
      <!-- 40 -->
      <g transform="translate(37.875 97.357425) scale(0.1 -0.1)">
       <use xlink:href="#DejaVuSans-34"/>
       <use xlink:href="#DejaVuSans-30" transform="translate(63.623047 0)"/>
      </g>
     </g>
    </g>
    <g id="ytick_6">
     <g id="line2d_16">
      <g>
       <use xlink:href="#m11ebe69ef8" x="57.6" y="43.075758" style="stroke: #000000; stroke-width: 0.8"/>
      </g>
     </g>
     <g id="text_17">
      <!-- 50 -->
      <g transform="translate(37.875 46.874977) scale(0.1 -0.1)">
       <use xlink:href="#DejaVuSans-35"/>
       <use xlink:href="#DejaVuSans-30" transform="translate(63.623047 0)"/>
      </g>
     </g>
    </g>
    <g id="text_18">
     <!-- IPv6 as % of total Google traffic -->
     <g transform="translate(31.795312 253.735813) rotate(-90) scale(0.1 -0.1)">
      <defs>
       <path id="DejaVuSans-49" d="M 628 4666 
L 1259 4666 
L 1259 0 
L 628 0 
L 628 4666 
z
" transform="scale(0.015625)"/>
       <path id="DejaVuSans-50" d="M 1259 4147 
L 1259 2394 
L 2053 2394 
Q 2494 2394 2734 2622 
Q 2975 2850 2975 3272 
Q 2975 3691 2734 3919 
Q 2494 4147 2053 4147 
L 1259 4147 
z
M 628 4666 
L 2053 4666 
Q 2838 4666 3239 4311 
Q 3641 3956 3641 3272 
Q 3641 2581 3239 2228 
Q 2838 1875 2053 1875 
L 1259 1875 
L 1259 0 
L 628 0 
L 628 4666 
z
" transform="scale(0.015625)"/>
       <path id="DejaVuSans-76" d="M 191 3500 
L 800 3500 
L 1894 563 
L 2988 3500 
L 3597 3500 
L 2284 0 
L 1503 0 
L 191 3500 
z
" transform="scale(0.015625)"/>
       <path id="DejaVuSans-25" d="M 4653 2053 
Q 4381 2053 4226 1822 
Q 4072 1591 4072 1178 
Q 4072 772 4226 539 
Q 4381 306 4653 306 
Q 4919 306 5073 539 
Q 5228 772 5228 1178 
Q 5228 1588 5073 1820 
Q 4919 2053 4653 2053 
z
M 4653 2450 
Q 5147 2450 5437 2106 
Q 5728 1763 5728 1178 
Q 5728 594 5436 251 
Q 5144 -91 4653 -91 
Q 4153 -91 3862 251 
Q 3572 594 3572 1178 
Q 3572 1766 3864 2108 
Q 4156 2450 4653 2450 
z
M 1428 4353 
Q 1159 4353 1004 4120 
Q 850 3888 850 3481 
Q 850 3069 1003 2837 
Q 1156 2606 1428 2606 
Q 1700 2606 1854 2837 
Q 2009 3069 2009 3481 
Q 2009 3884 1853 4118 
Q 1697 4353 1428 4353 
z
M 4250 4750 
L 4750 4750 
L 1831 -91 
L 1331 -91 
L 4250 4750 
z
M 1428 4750 
Q 1922 4750 2215 4408 
Q 2509 4066 2509 3481 
Q 2509 2891 2217 2550 
Q 1925 2209 1428 2209 
Q 931 2209 642 2551 
Q 353 2894 353 3481 
Q 353 4063 643 4406 
Q 934 4750 1428 4750 
z
" transform="scale(0.015625)"/>
       <path id="DejaVuSans-66" d="M 2375 4863 
L 2375 4384 
L 1825 4384 
Q 1516 4384 1395 4259 
Q 1275 4134 1275 3809 
L 1275 3500 
L 2222 3500 
L 2222 3053 
L 1275 3053 
L 1275 0 
L 697 0 
L 697 3053 
L 147 3053 
L 147 3500 
L 697 3500 
L 697 3744 
Q 697 4328 969 4595 
Q 1241 4863 1831 4863 
L 2375 4863 
z
" transform="scale(0.015625)"/>
       <path id="DejaVuSans-6c" d="M 603 4863 
L 1178 4863 
L 1178 0 
L 603 0 
L 603 4863 
z
" transform="scale(0.015625)"/>
       <path id="DejaVuSans-47" d="M 3809 666 
L 3809 1919 
L 2778 1919 
L 2778 2438 
L 4434 2438 
L 4434 434 
Q 4069 175 3628 42 
Q 3188 -91 2688 -91 
Q 1594 -91 976 548 
Q 359 1188 359 2328 
Q 359 3472 976 4111 
Q 1594 4750 2688 4750 
Q 3144 4750 3555 4637 
Q 3966 4525 4313 4306 
L 4313 3634 
Q 3963 3931 3569 4081 
Q 3175 4231 2741 4231 
Q 1884 4231 1454 3753 
Q 1025 3275 1025 2328 
Q 1025 1384 1454 906 
Q 1884 428 2741 428 
Q 3075 428 3337 486 
Q 3600 544 3809 666 
z
" transform="scale(0.015625)"/>
       <path id="DejaVuSans-67" d="M 2906 1791 
Q 2906 2416 2648 2759 
Q 2391 3103 1925 3103 
Q 1463 3103 1205 2759 
Q 947 2416 947 1791 
Q 947 1169 1205 825 
Q 1463 481 1925 481 
Q 2391 481 2648 825 
Q 2906 1169 2906 1791 
z
M 3481 434 
Q 3481 -459 3084 -895 
Q 2688 -1331 1869 -1331 
Q 1566 -1331 1297 -1286 
Q 1028 -1241 775 -1147 
L 775 -588 
Q 1028 -725 1275 -790 
Q 1522 -856 1778 -856 
Q 2344 -856 2625 -561 
Q 2906 -266 2906 331 
L 2906 616 
Q 2728 306 2450 153 
Q 2172 0 1784 0 
Q 1141 0 747 490 
Q 353 981 353 1791 
Q 353 2603 747 3093 
Q 1141 3584 1784 3584 
Q 2172 3584 2450 3431 
Q 2728 3278 2906 2969 
L 2906 3500 
L 3481 3500 
L 3481 434 
z
" transform="scale(0.015625)"/>
       <path id="DejaVuSans-69" d="M 603 3500 
L 1178 3500 
L 1178 0 
L 603 0 
L 603 3500 
z
M 603 4863 
L 1178 4863 
L 1178 4134 
L 603 4134 
L 603 4863 
z
" transform="scale(0.015625)"/>
      </defs>
      <use xlink:href="#DejaVuSans-49"/>
      <use xlink:href="#DejaVuSans-50" transform="translate(29.492188 0)"/>
      <use xlink:href="#DejaVuSans-76" transform="translate(89.794922 0)"/>
      <use xlink:href="#DejaVuSans-36" transform="translate(148.974609 0)"/>
      <use xlink:href="#DejaVuSans-20" transform="translate(212.597656 0)"/>
      <use xlink:href="#DejaVuSans-61" transform="translate(244.384766 0)"/>
      <use xlink:href="#DejaVuSans-73" transform="translate(305.664062 0)"/>
      <use xlink:href="#DejaVuSans-20" transform="translate(357.763672 0)"/>
      <use xlink:href="#DejaVuSans-25" transform="translate(389.550781 0)"/>
      <use xlink:href="#DejaVuSans-20" transform="translate(484.570312 0)"/>
      <use xlink:href="#DejaVuSans-6f" transform="translate(516.357422 0)"/>
      <use xlink:href="#DejaVuSans-66" transform="translate(577.539062 0)"/>
      <use xlink:href="#DejaVuSans-20" transform="translate(612.744141 0)"/>
      <use xlink:href="#DejaVuSans-74" transform="translate(644.53125 0)"/>
      <use xlink:href="#DejaVuSans-6f" transform="translate(683.740234 0)"/>
      <use xlink:href="#DejaVuSans-74" transform="translate(744.921875 0)"/>
      <use xlink:href="#DejaVuSans-61" transform="translate(784.130859 0)"/>
      <use xlink:href="#DejaVuSans-6c" transform="translate(845.410156 0)"/>
      <use xlink:href="#DejaVuSans-20" transform="translate(873.193359 0)"/>
      <use xlink:href="#DejaVuSans-47" transform="translate(904.980469 0)"/>
      <use xlink:href="#DejaVuSans-6f" transform="translate(982.470703 0)"/>
      <use xlink:href="#DejaVuSans-6f" transform="translate(1043.652344 0)"/>
      <use xlink:href="#DejaVuSans-67" transform="translate(1104.833984 0)"/>
      <use xlink:href="#DejaVuSans-6c" transform="translate(1168.310547 0)"/>
      <use xlink:href="#DejaVuSans-65" transform="translate(1196.09375 0)"/>
      <use xlink:href="#DejaVuSans-20" transform="translate(1257.617188 0)"/>
      <use xlink:href="#DejaVuSans-74" transform="translate(1289.404297 0)"/>
      <use xlink:href="#DejaVuSans-72" transform="translate(1328.613281 0)"/>
      <use xlink:href="#DejaVuSans-61" transform="translate(1369.726562 0)"/>
      <use xlink:href="#DejaVuSans-66" transform="translate(1431.005859 0)"/>
      <use xlink:href="#DejaVuSans-66" transform="translate(1466.210938 0)"/>
      <use xlink:href="#DejaVuSans-69" transform="translate(1501.416016 0)"/>
      <use xlink:href="#DejaVuSans-63" transform="translate(1529.199219 0)"/>
     </g>
    </g>
   </g>
   <g id="line2d_17">
    <path d="M 73.832727 294.568245 
L 75.339245 294.41236 
L 75.715874 294.560799 
L 77.222392 294.560148 
L 78.72891 294.42484 
L 79.105539 294.305186 
L 80.235427 294.325036 
L 83.625092 294.253396 
L 84.75498 294.279632 
L 86.261498 294.208361 
L 89.274533 294.270156 
L 89.651162 294.367275 
L 91.910939 294.359485 
L 92.664197 294.297326 
L 94.170715 294.206715 
L 94.923974 294.214989 
L 95.300603 293.96922 
L 97.56038 293.884915 
L 98.690268 293.888443 
L 99.820156 293.978201 
L 100.950044 293.933499 
L 102.079933 293.978464 
L 103.96308 293.947538 
L 105.092968 294.126579 
L 106.222856 294.077096 
L 106.976115 294.15648 
L 107.729374 294.23238 
L 108.106003 294.156662 
L 110.365779 294.363534 
L 112.248926 294.281626 
L 113.002185 294.182423 
L 113.378815 294.100651 
L 114.132073 294.096623 
L 117.145109 294.099334 
L 117.521738 294.122828 
L 117.898367 294.002221 
L 120.158144 294.225929 
L 123.171179 294.064769 
L 123.547808 294.07016 
L 123.924438 293.955363 
L 124.677697 294.051386 
L 125.430955 293.873152 
L 125.807585 293.917461 
L 126.184214 293.80804 
L 126.560844 293.855948 
L 127.314103 293.75413 
L 128.443991 293.739636 
L 128.82062 293.865262 
L 130.327138 293.893638 
L 131.080397 293.907127 
L 131.457026 293.871451 
L 132.210285 293.658158 
L 132.586914 293.539357 
L 135.22332 293.681445 
L 137.859726 293.2221 
L 138.612985 293.361518 
L 141.62602 292.917737 
L 142.002649 293.018818 
L 144.262426 292.535362 
L 145.015684 292.551179 
L 146.145573 292.224057 
L 148.02872 291.770084 
L 149.158608 291.653378 
L 149.535237 291.74871 
L 151.418384 291.390143 
L 152.548273 291.035857 
L 152.924902 291.089459 
L 153.301531 290.77141 
L 154.05479 290.581061 
L 154.43142 290.630518 
L 155.184678 290.433001 
L 155.561308 290.582181 
L 156.314567 290.402009 
L 156.691196 290.357317 
L 157.067825 290.125325 
L 157.821084 289.970526 
L 159.327602 289.954402 
L 160.080861 289.756647 
L 161.210749 289.610934 
L 161.587378 289.420419 
L 161.964008 289.402043 
L 162.340637 289.500554 
L 163.847155 288.788323 
L 164.223784 288.804639 
L 165.730302 288.356779 
L 166.106931 288.05664 
L 166.48356 287.987777 
L 166.86019 287.802037 
L 167.236819 287.832286 
L 168.366707 287.376182 
L 168.743337 287.456833 
L 169.119966 287.232333 
L 169.496596 287.192876 
L 171.379743 286.138171 
L 172.509631 285.578093 
L 173.26289 284.801941 
L 174.016148 283.864881 
L 174.392778 284.086251 
L 174.769407 284.124547 
L 175.899296 282.804138 
L 176.275925 282.64581 
L 176.652554 281.978397 
L 177.782443 281.581065 
L 178.159072 281.325962 
L 178.535701 281.372259 
L 179.66559 280.643439 
L 180.042219 280.48864 
L 180.418848 280.202364 
L 181.172107 280.134531 
L 181.548737 279.486013 
L 181.925366 279.477466 
L 182.301995 278.764467 
L 182.678625 278.395208 
L 183.431884 278.501191 
L 183.808513 278.237208 
L 184.185142 277.830567 
L 184.938401 277.357203 
L 185.315031 276.934029 
L 185.69166 277.193479 
L 187.198178 276.363199 
L 187.574807 276.0562 
L 187.951436 274.794629 
L 188.328066 275.033941 
L 189.081325 274.177274 
L 189.457954 274.140492 
L 189.834583 274.510836 
L 190.964472 273.668153 
L 191.341101 273.09647 
L 192.09436 273.140546 
L 192.470989 272.521969 
L 192.847619 272.479392 
L 193.224248 269.202309 
L 193.600877 271.35846 
L 193.977507 272.642915 
L 194.354136 272.018785 
L 194.730766 271.670007 
L 195.107395 271.6138 
L 195.484024 270.79294 
L 195.860654 270.535732 
L 196.990542 268.75408 
L 197.367171 267.590768 
L 197.743801 266.926782 
L 198.12043 266.025322 
L 198.49706 265.430144 
L 198.873689 266.380668 
L 199.250318 266.235203 
L 199.626948 266.26152 
L 200.003577 266.415072 
L 200.380207 266.701792 
L 200.756836 266.592402 
L 201.133466 264.496154 
L 201.510095 264.806217 
L 202.639983 263.70163 
L 203.016613 263.55296 
L 203.769871 263.618324 
L 204.146501 262.033741 
L 204.52313 261.976029 
L 205.276389 260.725513 
L 205.653018 261.151863 
L 206.029648 259.200055 
L 206.406277 259.661394 
L 206.782907 258.343807 
L 207.159536 257.712877 
L 207.536165 256.765514 
L 207.912795 257.423401 
L 208.289424 256.426832 
L 208.666054 254.768918 
L 209.042683 255.604352 
L 209.419312 255.842513 
L 209.795942 255.327885 
L 210.172571 253.811947 
L 210.549201 254.233047 
L 210.92583 252.894626 
L 211.302459 253.202942 
L 212.432348 250.483316 
L 213.562236 250.196213 
L 213.938865 249.140301 
L 214.315495 249.268794 
L 214.692124 248.872689 
L 215.068753 247.826163 
L 215.445383 247.560549 
L 215.822012 246.390386 
L 216.198642 245.5882 
L 216.575271 245.446824 
L 216.9519 245.644276 
L 217.32853 245.133853 
L 217.705159 242.959473 
L 218.458418 244.234892 
L 218.835047 243.98989 
L 219.588306 243.916474 
L 219.964936 243.959671 
L 220.718194 243.697324 
L 221.094824 242.473943 
L 221.471453 242.416029 
L 221.848083 241.331076 
L 222.224712 241.328026 
L 222.601341 241.163211 
L 223.73123 238.060151 
L 224.107859 236.232485 
L 224.484489 237.480598 
L 224.861118 236.957463 
L 225.237747 235.876154 
L 225.614377 236.116844 
L 225.991006 233.808272 
L 226.367636 234.146969 
L 226.744265 233.863899 
L 227.120894 232.253059 
L 227.497524 232.237814 
L 227.874153 231.037109 
L 228.250783 231.326217 
L 228.627412 230.376521 
L 229.004041 229.872014 
L 229.380671 230.140041 
L 229.7573 229.489751 
L 230.13393 228.475261 
L 230.510559 228.799565 
L 230.887188 228.318422 
L 231.263818 226.72193 
L 231.640447 226.054299 
L 232.017077 226.116751 
L 232.393706 224.249804 
L 232.770335 224.581807 
L 233.523594 222.358181 
L 233.900224 220.139276 
L 234.276853 220.358587 
L 235.030112 219.110883 
L 235.406741 217.712862 
L 235.783371 217.899758 
L 236.16 217.313864 
L 236.536629 215.103379 
L 236.913259 214.327822 
L 237.289888 210.662938 
L 237.666518 213.045714 
L 238.043147 212.613706 
L 238.419776 213.181951 
L 238.796406 212.514669 
L 239.549665 213.598391 
L 239.926294 213.382346 
L 240.302923 212.432363 
L 240.679553 212.718063 
L 241.432812 211.508135 
L 241.809441 210.505574 
L 242.18607 210.346579 
L 242.5627 209.668863 
L 242.939329 207.231797 
L 243.315959 207.996541 
L 243.692588 204.728448 
L 244.069217 204.981426 
L 244.445847 203.205014 
L 244.822476 202.110095 
L 245.952364 200.096325 
L 246.328994 198.448311 
L 246.705623 195.731199 
L 247.082253 196.417331 
L 248.58877 193.322742 
L 248.9654 192.813803 
L 249.342029 192.833067 
L 249.718659 193.113462 
L 250.095288 192.150635 
L 250.471917 190.801229 
L 250.848547 192.010112 
L 251.225176 192.033445 
L 251.601806 193.110423 
L 251.978435 191.931799 
L 252.355064 190.099352 
L 252.731694 190.334156 
L 253.108323 189.543055 
L 254.238211 188.284967 
L 254.99147 187.36086 
L 255.3681 187.260759 
L 255.744729 200.659977 
L 256.121358 185.559722 
L 256.497988 184.834951 
L 256.874617 181.173197 
L 257.251247 184.570448 
L 258.004505 184.074044 
L 258.381135 184.071641 
L 258.757764 183.617011 
L 259.134394 183.392965 
L 259.511023 184.637575 
L 259.887652 185.42661 
L 260.264282 185.234797 
L 260.640911 184.165826 
L 261.017541 184.242585 
L 262.147429 183.343699 
L 262.524058 180.942199 
L 262.900688 181.890078 
L 263.277317 179.346691 
L 263.653946 180.41914 
L 264.030576 178.284308 
L 264.407205 176.951334 
L 264.783835 177.73729 
L 265.160464 176.102613 
L 265.537093 175.01721 
L 265.913723 174.786415 
L 266.290352 175.67377 
L 266.666982 176.141848 
L 267.79687 173.744543 
L 268.173499 174.295856 
L 268.550129 175.090364 
L 268.926758 175.244427 
L 269.303387 173.426165 
L 269.680017 172.748913 
L 270.056646 171.430841 
L 270.809905 170.921494 
L 271.186534 171.059427 
L 271.563164 170.885565 
L 272.316423 169.074982 
L 272.693052 170.131307 
L 273.069682 166.785098 
L 273.446311 166.871166 
L 273.82294 166.463116 
L 274.19957 164.022567 
L 274.576199 163.290299 
L 274.952829 162.850163 
L 275.329458 162.853368 
L 275.706087 161.530239 
L 276.082717 161.440042 
L 276.835976 159.348029 
L 277.212605 160.728875 
L 277.589234 161.618285 
L 278.342493 159.500213 
L 278.719123 160.539051 
L 279.095752 160.349106 
L 279.472381 160.801297 
L 279.849011 159.202553 
L 280.22564 158.644733 
L 280.60227 159.853439 
L 280.978899 158.118377 
L 281.355528 158.257204 
L 281.732158 157.762279 
L 282.485417 157.570416 
L 282.862046 154.143122 
L 283.238675 154.043288 
L 283.615305 154.313778 
L 283.991934 155.14276 
L 284.745193 151.143192 
L 285.121822 149.378815 
L 285.498452 148.930986 
L 285.875081 149.084806 
L 286.251711 148.762788 
L 286.62834 147.010159 
L 287.004969 148.455471 
L 287.381599 146.91663 
L 287.758228 148.344632 
L 288.134858 147.320954 
L 288.511487 146.701302 
L 288.888116 146.649628 
L 289.264746 146.71944 
L 289.641375 145.385008 
L 290.018005 145.536627 
L 290.394634 146.980869 
L 290.771263 146.491502 
L 291.147893 147.083914 
L 291.524522 147.326043 
L 291.901152 145.475159 
L 292.277781 146.583663 
L 292.65441 146.881535 
L 293.03104 146.193646 
L 293.407669 145.773344 
L 293.784299 144.115384 
L 294.160928 144.465308 
L 294.537557 144.10446 
L 294.914187 144.224128 
L 295.290816 143.259994 
L 295.667446 142.838244 
L 296.044075 141.617896 
L 296.420704 141.084489 
L 296.797334 141.838585 
L 297.173963 142.062798 
L 297.550593 142.11324 
L 298.303852 140.377805 
L 298.680481 140.793841 
L 299.05711 139.528352 
L 299.43374 140.076061 
L 299.810369 139.839369 
L 300.186999 138.964059 
L 300.563628 139.177968 
L 300.940257 139.779265 
L 301.316887 139.505145 
L 301.693516 139.519472 
L 302.070146 137.245758 
L 302.823404 135.626952 
L 303.200034 135.894232 
L 303.576663 135.328303 
L 303.953293 133.444758 
L 304.329922 134.054055 
L 304.706551 131.35118 
L 305.083181 133.514272 
L 305.45981 131.723594 
L 305.83644 129.27576 
L 306.213069 129.991824 
L 306.589698 128.463397 
L 306.966328 127.432046 
L 307.342957 127.530708 
L 307.719587 126.756954 
L 308.096216 128.696691 
L 308.472845 127.080713 
L 308.849475 127.686644 
L 309.226104 128.042151 
L 310.355992 125.562797 
L 310.732622 127.627049 
L 311.109251 127.668409 
L 311.485881 126.755874 
L 311.86251 127.27296 
L 312.239139 128.526646 
L 312.615769 127.551613 
L 312.992398 125.282952 
L 313.369028 129.049195 
L 313.745657 128.034665 
L 314.122286 126.566201 
L 314.498916 127.798058 
L 314.875545 127.887064 
L 315.252175 125.875409 
L 315.628804 124.87359 
L 316.005433 123.037023 
L 316.382063 123.932638 
L 316.758692 123.254108 
L 317.135322 123.463388 
L 317.511951 124.038318 
L 317.88858 122.570212 
L 318.26521 121.968285 
L 318.641839 123.056656 
L 319.018469 122.785389 
L 319.395098 120.430251 
L 319.771727 119.912195 
L 320.148357 118.309347 
L 320.524986 120.941441 
L 320.901616 121.814379 
L 321.278245 120.956223 
L 321.654874 120.792109 
L 322.031504 120.926696 
L 322.408133 116.28435 
L 322.784763 119.387783 
L 323.161392 117.599468 
L 323.914651 118.504119 
L 324.29128 114.107324 
L 324.66791 113.545404 
L 325.044539 111.776747 
L 325.421169 111.706354 
L 325.797798 113.306153 
L 326.174427 111.099979 
L 326.551057 110.666315 
L 326.927686 109.527006 
L 327.304316 109.114984 
L 327.680945 107.820528 
L 328.057574 108.014063 
L 328.434204 111.15244 
L 328.810833 109.460047 
L 329.187463 108.388461 
L 329.564092 110.426472 
L 329.940721 109.299452 
L 330.317351 108.902725 
L 330.69398 107.275575 
L 331.447239 109.865284 
L 331.823868 109.580871 
L 332.200498 109.986897 
L 332.577127 109.858252 
L 332.953757 108.399259 
L 333.330386 110.08619 
L 333.707015 108.059451 
L 334.083645 107.342712 
L 334.460274 107.267619 
L 335.213533 104.744426 
L 335.590162 101.928923 
L 335.966792 103.849084 
L 336.343421 107.435483 
L 336.720051 103.395721 
L 337.09668 103.205948 
L 337.473309 105.91685 
L 338.226568 102.308703 
L 338.603198 102.260472 
L 338.979827 103.022176 
L 339.356456 102.991094 
L 339.733086 103.574394 
L 340.109715 96.717075 
L 340.486345 95.985029 
L 340.862974 96.189448 
L 341.239603 94.787989 
L 341.616233 94.328321 
L 341.992862 91.890872 
L 342.369492 94.987996 
L 342.746121 96.195607 
L 343.12275 93.546081 
L 343.49938 95.291971 
L 343.876009 92.322972 
L 344.252639 90.81127 
L 344.629268 87.143897 
L 345.005897 88.130722 
L 345.382527 82.696968 
L 346.135786 86.505879 
L 346.512415 88.245227 
L 346.889045 86.661037 
L 347.265674 86.970065 
L 347.642303 87.634677 
L 348.018933 87.499364 
L 348.395562 89.430782 
L 348.772192 88.530448 
L 349.148821 87.118999 
L 349.52545 87.444555 
L 349.90208 85.998061 
L 350.278709 86.365573 
L 350.655339 84.596507 
L 351.031968 85.845332 
L 351.408597 89.214929 
L 351.785227 86.947373 
L 352.161856 83.509655 
L 352.538486 86.358617 
L 352.915115 84.703631 
L 353.291744 86.422558 
L 353.668374 84.870374 
L 354.045003 84.848303 
L 355.174891 78.872559 
L 355.551521 81.549947 
L 355.92815 81.34522 
L 356.30478 80.005042 
L 356.681409 80.400037 
L 357.058038 82.683904 
L 357.811297 80.710757 
L 358.187927 82.156897 
L 358.564556 81.343297 
L 358.941185 79.766785 
L 359.317815 79.797443 
L 360.071074 77.181544 
L 360.447703 78.322831 
L 360.824332 78.304319 
L 361.200962 75.819967 
L 361.577591 77.099757 
L 362.33085 76.885111 
L 362.707479 75.505264 
L 363.084109 77.080968 
L 363.460738 77.127341 
L 363.837368 74.354072 
L 364.213997 74.320108 
L 364.590626 73.007827 
L 364.967256 69.547295 
L 365.343885 71.034543 
L 366.097144 70.218429 
L 366.473773 70.071793 
L 366.850403 70.442051 
L 367.227032 69.159151 
L 367.603662 70.664341 
L 368.35692 66.905392 
L 368.73355 68.404731 
L 369.110179 70.439169 
L 369.486809 71.234242 
L 369.863438 67.47758 
L 370.240067 69.713473 
L 370.616697 68.553897 
L 370.993326 72.603806 
L 371.369956 69.943714 
L 371.746585 68.953278 
L 372.123215 71.20472 
L 372.499844 71.41138 
L 372.876473 72.609227 
L 373.253103 70.455419 
L 373.629732 72.750714 
L 374.006362 69.962281 
L 374.382991 69.621949 
L 374.75962 66.984195 
L 375.13625 70.298641 
L 375.512879 70.283965 
L 375.889509 69.489266 
L 376.266138 69.574081 
L 376.642767 68.135983 
L 377.019397 69.250267 
L 377.396026 66.542161 
L 377.772656 67.214547 
L 378.149285 67.21591 
L 378.525914 76.596104 
L 379.279173 76.596104 
L 379.655803 64.930388 
L 380.032432 64.877194 
L 380.409061 66.437642 
L 380.785691 66.008385 
L 381.16232 64.384273 
L 381.53895 64.786624 
L 381.915579 64.06634 
L 382.292208 61.656601 
L 382.668838 62.555385 
L 383.045467 57.674222 
L 383.422097 58.676884 
L 383.798726 57.262669 
L 384.175355 57.642353 
L 384.551985 56.379342 
L 384.928614 60.364558 
L 385.305244 57.328306 
L 385.681873 58.3411 
L 386.058502 59.019196 
L 386.435132 60.516278 
L 386.811761 59.160849 
L 387.188391 60.387134 
L 387.941649 58.11762 
L 388.318279 59.702839 
L 388.694908 60.424986 
L 389.071538 60.167076 
L 389.448167 64.386358 
L 389.824796 60.398634 
L 390.201426 60.930083 
L 390.578055 58.823132 
L 390.954685 61.200623 
L 391.331314 60.705658 
L 392.084573 60.423799 
L 392.461202 58.21078 
L 392.837832 59.649166 
L 393.214461 58.420105 
L 393.59109 58.243528 
L 393.96772 58.96992 
L 394.344349 55.626674 
L 394.720979 59.432258 
L 395.097608 61.091647 
L 395.850867 58.721879 
L 396.227496 58.134637 
L 396.604126 57.03673 
L 396.980755 56.680935 
L 397.357385 56.130752 
L 397.734014 53.799992 
L 398.110643 54.326797 
L 398.487273 53.568 
L 398.487273 53.568 
" clip-path="url(#p0bd90750da)" style="fill: none; stroke: #1f77b4; stroke-width: 1.5; stroke-linecap: square"/>
   </g>
   <g id="line2d_18">
    <path d="M 73.832727 294.809491 
L 75.339245 294.681235 
L 75.715874 294.788576 
L 84.001721 294.553252 
L 85.131609 294.517642 
L 85.884868 294.484288 
L 90.027792 294.543731 
L 95.300603 294.467528 
L 95.677233 294.286805 
L 110.365779 294.467931 
L 112.248926 294.468997 
L 113.378815 294.31033 
L 114.885332 294.286482 
L 116.768479 294.231623 
L 121.288032 294.398089 
L 126.560844 293.981452 
L 127.314103 293.928739 
L 128.067361 293.870446 
L 128.82062 293.961138 
L 129.950508 294.025175 
L 131.833655 293.908369 
L 132.586914 293.742312 
L 133.716802 293.849203 
L 138.612985 293.511213 
L 138.989614 293.611764 
L 144.262426 292.982839 
L 145.768943 292.7381 
L 146.522202 292.744986 
L 147.65209 292.362798 
L 149.158608 292.094661 
L 149.535237 292.210578 
L 151.041755 292.091051 
L 156.314567 291.107168 
L 156.691196 291.150376 
L 157.444455 290.903492 
L 158.197714 290.805319 
L 158.574343 290.579642 
L 159.704231 290.836502 
L 160.45749 290.659248 
L 160.834119 290.607145 
L 161.210749 290.387854 
L 161.587378 290.404276 
L 161.964008 290.241834 
L 163.093896 290.15883 
L 163.470525 289.927197 
L 165.353672 289.547125 
L 165.730302 289.532045 
L 168.366707 288.616597 
L 168.743337 288.749492 
L 169.873225 288.281918 
L 170.626484 287.892189 
L 171.003113 287.596871 
L 171.756372 287.391721 
L 172.133001 287.485982 
L 172.88626 287.341854 
L 174.016148 286.239005 
L 174.392778 285.974083 
L 174.769407 286.046914 
L 175.146037 285.904781 
L 176.275925 285.076692 
L 176.652554 284.936573 
L 177.405813 284.267599 
L 177.782443 284.175938 
L 178.159072 282.913408 
L 178.535701 283.031284 
L 178.912331 283.872347 
L 179.28896 283.781014 
L 180.042219 283.135642 
L 180.418848 283.718835 
L 180.795478 282.963708 
L 181.172107 282.917265 
L 181.548737 282.682551 
L 181.925366 282.133575 
L 182.301995 282.161472 
L 183.055254 281.320646 
L 183.431884 281.346003 
L 183.808513 281.158138 
L 184.185142 280.47611 
L 184.561772 280.706406 
L 184.938401 280.190183 
L 185.315031 280.345032 
L 185.69166 280.158676 
L 186.068289 280.234728 
L 186.444919 279.653075 
L 186.821548 279.675494 
L 187.198178 279.082088 
L 187.574807 279.185183 
L 188.328066 277.932718 
L 188.704695 277.684865 
L 189.081325 277.606042 
L 189.457954 277.318579 
L 189.834583 277.290087 
L 190.211213 277.400124 
L 190.587842 277.379254 
L 191.71773 276.968307 
L 192.09436 277.102106 
L 192.847619 276.756346 
L 193.224248 276.160239 
L 193.600877 274.822227 
L 193.977507 275.820987 
L 194.354136 276.149784 
L 194.730766 275.804611 
L 195.107395 276.004834 
L 195.484024 275.50532 
L 196.237283 274.859443 
L 196.613913 274.219144 
L 196.990542 273.817581 
L 197.367171 272.976342 
L 197.743801 270.486608 
L 198.12043 268.891893 
L 198.49706 271.254315 
L 198.873689 271.877303 
L 199.250318 271.894437 
L 199.626948 272.143437 
L 200.003577 272.125505 
L 200.380207 272.45875 
L 200.756836 271.771043 
L 201.133466 271.891969 
L 201.510095 270.607549 
L 201.886724 270.215053 
L 202.263354 270.4382 
L 203.016613 269.157375 
L 203.393242 269.504048 
L 203.769871 269.470623 
L 204.146501 269.057859 
L 204.52313 268.458763 
L 204.89976 268.147054 
L 205.276389 268.191237 
L 206.029648 266.334194 
L 206.406277 265.787984 
L 206.782907 265.494454 
L 207.159536 264.424544 
L 207.536165 264.053978 
L 208.666054 261.896565 
L 209.042683 262.26284 
L 209.795942 261.902598 
L 210.549201 261.210938 
L 210.92583 261.511626 
L 211.679089 261.130327 
L 212.432348 260.17628 
L 213.562236 259.688614 
L 213.938865 259.69181 
L 214.315495 258.69155 
L 214.692124 258.590798 
L 215.068753 258.618209 
L 215.445383 258.105929 
L 216.575271 255.569519 
L 216.9519 255.091087 
L 217.32853 252.782337 
L 217.705159 249.525008 
L 218.081789 254.358031 
L 218.458418 255.411176 
L 218.835047 255.117125 
L 219.211677 254.598595 
L 219.588306 254.669159 
L 219.964936 254.936212 
L 220.718194 253.84522 
L 221.471453 253.347413 
L 221.848083 252.94478 
L 222.224712 251.795072 
L 222.601341 251.528369 
L 222.977971 251.463191 
L 223.73123 250.445848 
L 224.107859 249.236556 
L 224.484489 248.482899 
L 224.861118 248.957873 
L 225.614377 247.472442 
L 225.991006 246.105943 
L 226.367636 245.708479 
L 226.744265 245.514092 
L 227.497524 243.322719 
L 227.874153 241.616105 
L 228.250783 242.363472 
L 228.627412 242.222596 
L 229.004041 241.363864 
L 229.380671 240.78428 
L 229.7573 240.635892 
L 230.13393 240.74082 
L 230.510559 241.925143 
L 230.887188 241.317895 
L 231.263818 241.589652 
L 231.640447 240.944961 
L 232.017077 241.01504 
L 232.393706 240.289931 
L 233.146965 238.261859 
L 233.523594 238.465566 
L 234.276853 235.597128 
L 234.653482 236.276818 
L 235.030112 235.74858 
L 235.406741 234.498463 
L 235.783371 234.405646 
L 236.16 233.566628 
L 236.536629 233.088917 
L 236.913259 229.756798 
L 237.289888 222.068311 
L 237.666518 227.603131 
L 238.043147 230.55433 
L 238.419776 230.866084 
L 239.173035 230.541199 
L 239.549665 230.631381 
L 239.926294 230.590071 
L 240.302923 229.671478 
L 240.679553 229.442217 
L 241.056182 229.728361 
L 241.809441 228.653671 
L 242.5627 226.724075 
L 242.939329 224.610607 
L 243.315959 225.321592 
L 243.692588 225.216301 
L 244.069217 221.383289 
L 244.445847 222.223938 
L 245.199106 219.666508 
L 245.575735 217.205816 
L 245.952364 217.117134 
L 246.328994 216.780148 
L 247.082253 212.493891 
L 247.458882 212.209518 
L 247.835511 211.57664 
L 248.212141 211.267566 
L 248.9654 208.821394 
L 249.342029 208.611705 
L 249.718659 208.539267 
L 250.095288 209.611742 
L 250.471917 209.735262 
L 251.225176 211.279808 
L 251.978435 211.785612 
L 252.355064 209.616159 
L 252.731694 209.069005 
L 253.108323 209.542167 
L 253.484953 208.576301 
L 253.861582 206.799127 
L 254.238211 208.34596 
L 254.614841 208.95914 
L 254.99147 207.12902 
L 255.3681 206.903914 
L 255.744729 205.873259 
L 256.121358 200.659977 
L 256.497988 202.747502 
L 256.874617 194.125832 
L 257.627876 204.363162 
L 258.004505 203.034792 
L 258.381135 204.43044 
L 258.757764 203.912364 
L 259.134394 203.826302 
L 259.511023 202.474649 
L 259.887652 204.756345 
L 260.264282 205.388213 
L 260.640911 204.796625 
L 261.017541 203.500786 
L 261.39417 203.059014 
L 261.770799 202.047502 
L 262.147429 201.977054 
L 262.524058 203.767515 
L 262.900688 202.744135 
L 263.277317 201.288852 
L 263.653946 199.243571 
L 264.030576 199.049107 
L 264.407205 198.203319 
L 264.783835 198.306637 
L 265.160464 196.129364 
L 265.537093 196.079139 
L 265.913723 194.580653 
L 266.290352 194.342104 
L 266.666982 193.884828 
L 267.043611 192.453091 
L 267.79687 192.464924 
L 268.550129 191.885607 
L 268.926758 192.746727 
L 269.303387 191.286891 
L 269.680017 190.509713 
L 270.056646 193.292528 
L 270.433276 193.430845 
L 270.809905 193.299177 
L 271.186534 193.383215 
L 271.563164 193.313064 
L 271.939793 191.919688 
L 272.316423 192.251964 
L 272.693052 192.814691 
L 273.069682 192.193616 
L 273.446311 189.342786 
L 273.82294 190.124103 
L 274.19957 189.734485 
L 274.576199 186.703922 
L 274.952829 188.186657 
L 276.082717 184.232711 
L 276.459346 171.870836 
L 276.835976 176.612516 
L 277.212605 183.744051 
L 277.589234 185.052929 
L 278.342493 183.788521 
L 278.719123 182.548505 
L 279.095752 183.47557 
L 279.472381 183.212511 
L 279.849011 184.18815 
L 280.22564 181.985606 
L 280.60227 183.931032 
L 281.355528 181.910922 
L 281.732158 181.882551 
L 282.108787 182.486083 
L 282.485417 179.961345 
L 282.862046 179.53444 
L 283.238675 177.420604 
L 283.615305 179.361881 
L 283.991934 180.596536 
L 284.368564 178.225456 
L 285.121822 171.613037 
L 285.498452 173.058178 
L 285.875081 171.867701 
L 286.251711 171.217538 
L 286.62834 169.673355 
L 287.004969 170.315426 
L 287.381599 170.494922 
L 287.758228 170.33358 
L 288.134858 169.820153 
L 288.511487 169.001303 
L 288.888116 166.715856 
L 289.264746 169.603488 
L 289.641375 170.42099 
L 290.018005 170.574785 
L 290.394634 171.874148 
L 290.771263 172.595239 
L 291.524522 172.327516 
L 291.901152 172.828503 
L 292.277781 172.539466 
L 292.65441 173.194804 
L 293.407669 170.550634 
L 293.784299 172.214889 
L 294.160928 171.649501 
L 294.537557 170.242277 
L 294.914187 170.397733 
L 295.290816 169.719996 
L 295.667446 167.609805 
L 296.044075 155.943674 
L 296.420704 155.633091 
L 296.797334 167.0521 
L 297.173963 168.653221 
L 297.550593 168.981024 
L 297.927222 167.878997 
L 298.303852 166.390598 
L 299.05711 164.722789 
L 299.43374 164.675558 
L 299.810369 165.228896 
L 300.186999 164.832503 
L 300.563628 155.928302 
L 300.940257 152.042108 
L 301.316887 150.52878 
L 301.693516 151.657093 
L 302.823404 147.703313 
L 303.200034 147.98083 
L 303.576663 150.074827 
L 303.953293 148.155954 
L 304.329922 147.423615 
L 304.706551 149.136934 
L 305.083181 150.078891 
L 305.83644 147.116899 
L 306.213069 144.296934 
L 306.589698 144.083626 
L 306.966328 142.553129 
L 307.342957 143.875098 
L 307.719587 143.693356 
L 308.096216 144.738025 
L 308.472845 143.737018 
L 308.849475 143.745363 
L 309.226104 144.627377 
L 309.602734 146.187083 
L 309.979363 145.44179 
L 310.355992 147.231403 
L 311.109251 147.35771 
L 311.485881 148.048426 
L 311.86251 146.789858 
L 312.239139 146.967501 
L 312.615769 145.97224 
L 312.992398 144.170869 
L 313.369028 146.225167 
L 313.745657 146.638583 
L 314.122286 146.437627 
L 314.498916 148.74626 
L 314.875545 146.812419 
L 315.628804 138.994238 
L 316.005433 132.775486 
L 316.758692 142.079366 
L 317.135322 141.390776 
L 317.511951 142.249719 
L 317.88858 141.185615 
L 318.641839 140.274483 
L 319.018469 140.40969 
L 319.395098 141.958628 
L 319.771727 141.57538 
L 320.148357 141.381795 
L 320.524986 139.561665 
L 320.901616 142.543901 
L 321.654874 139.735719 
L 322.031504 141.852983 
L 322.408133 140.623094 
L 322.784763 137.422729 
L 323.161392 137.737159 
L 323.538022 135.833799 
L 323.914651 134.7185 
L 324.29128 136.469575 
L 324.66791 136.823608 
L 325.421169 129.821158 
L 325.797798 129.701943 
L 326.174427 129.355523 
L 326.551057 128.646295 
L 326.927686 126.071478 
L 327.304316 127.429885 
L 327.680945 126.144753 
L 328.057574 126.243194 
L 328.434204 127.407617 
L 328.810833 130.256326 
L 329.187463 130.916869 
L 329.564092 130.964297 
L 329.940721 132.393339 
L 330.317351 130.317632 
L 331.07061 131.42706 
L 331.447239 131.685808 
L 331.823868 131.473736 
L 332.200498 131.05505 
L 332.577127 133.306143 
L 332.953757 132.270399 
L 333.330386 132.765688 
L 333.707015 131.293902 
L 334.083645 132.313875 
L 334.836904 129.80356 
L 335.213533 124.799992 
L 335.590162 113.083757 
L 336.343421 124.795529 
L 336.720051 125.117122 
L 337.09668 126.758968 
L 337.473309 125.205139 
L 337.849939 127.823916 
L 338.226568 126.898714 
L 338.603198 123.645483 
L 338.979827 125.426969 
L 339.356456 125.420865 
L 339.733086 127.604418 
L 340.109715 123.900233 
L 340.486345 117.63107 
L 340.862974 117.779428 
L 341.239603 127.652533 
L 341.616233 116.568869 
L 342.369492 113.284148 
L 342.746121 116.784495 
L 343.12275 116.61557 
L 343.49938 115.341105 
L 343.876009 112.409852 
L 344.252639 113.018327 
L 345.005897 105.801306 
L 345.382527 106.530166 
L 345.759156 106.318105 
L 346.135786 103.995973 
L 346.512415 103.909527 
L 346.889045 104.772317 
L 347.265674 103.583006 
L 347.642303 104.379766 
L 348.018933 104.476404 
L 348.395562 107.641018 
L 348.772192 108.430129 
L 349.52545 111.278965 
L 349.90208 109.322209 
L 350.278709 110.400469 
L 350.655339 110.525327 
L 351.031968 107.821078 
L 351.408597 110.858092 
L 351.785227 111.701578 
L 352.161856 108.764474 
L 352.538486 107.970002 
L 352.915115 110.142948 
L 353.291744 106.802045 
L 353.668374 110.054992 
L 354.045003 110.342056 
L 354.421633 106.19784 
L 355.174891 92.722717 
L 355.551521 99.619018 
L 355.92815 104.317793 
L 356.30478 104.246987 
L 356.681409 104.801955 
L 357.058038 103.718481 
L 357.434668 103.845222 
L 357.811297 104.531021 
L 358.564556 102.330516 
L 358.941185 105.211757 
L 359.694444 98.3081 
L 360.071074 101.837242 
L 360.447703 97.763652 
L 360.824332 100.307977 
L 361.200962 100.932869 
L 361.577591 99.705303 
L 361.954221 96.684539 
L 362.33085 101.259925 
L 362.707479 101.108452 
L 363.084109 97.848902 
L 363.460738 98.401432 
L 363.837368 97.850729 
L 364.213997 93.43456 
L 364.967256 89.083119 
L 365.343885 89.423724 
L 365.720515 89.257304 
L 366.097144 88.181018 
L 366.473773 89.508333 
L 366.850403 88.097409 
L 367.227032 89.048549 
L 367.603662 87.7234 
L 368.73355 94.349827 
L 369.110179 93.337512 
L 369.486809 94.917335 
L 369.863438 94.47782 
L 370.240067 93.834699 
L 370.616697 93.546964 
L 370.993326 95.626604 
L 371.369956 96.280427 
L 371.746585 93.64907 
L 372.123215 94.549399 
L 372.499844 96.923074 
L 372.876473 94.479153 
L 373.253103 96.106455 
L 373.629732 96.622481 
L 374.006362 95.183565 
L 374.382991 90.4974 
L 374.75962 78.887972 
L 375.13625 84.34468 
L 375.512879 91.477461 
L 375.889509 91.478365 
L 376.266138 93.934134 
L 376.642767 92.950443 
L 377.396026 89.791898 
L 377.772656 89.092807 
L 378.149285 91.459283 
L 378.525914 76.596104 
L 379.279173 76.596104 
L 379.655803 87.78676 
L 380.032432 86.552126 
L 380.409061 87.005761 
L 380.785691 91.56836 
L 381.16232 90.876498 
L 381.53895 87.315971 
L 381.915579 88.267399 
L 382.292208 86.996634 
L 382.668838 87.87774 
L 383.045467 85.00279 
L 383.422097 79.785257 
L 383.798726 80.538798 
L 384.175355 76.433677 
L 384.551985 77.274437 
L 384.928614 76.914901 
L 385.305244 77.464856 
L 385.681873 77.310335 
L 386.058502 76.634693 
L 386.435132 78.271495 
L 386.811761 78.06432 
L 387.188391 78.085245 
L 387.56502 81.652471 
L 387.941649 82.45904 
L 388.318279 83.839341 
L 388.694908 84.706301 
L 389.824796 84.203466 
L 390.201426 84.591267 
L 390.578055 84.197569 
L 390.954685 84.691267 
L 391.331314 85.802628 
L 391.707943 83.209234 
L 392.084573 84.875362 
L 392.461202 85.91211 
L 392.837832 80.545417 
L 393.214461 84.722935 
L 393.59109 83.085436 
L 393.96772 78.578393 
L 394.344349 69.588055 
L 394.720979 67.996217 
L 395.097608 80.955299 
L 395.474238 83.840265 
L 395.850867 81.460997 
L 396.227496 80.029794 
L 396.604126 81.424922 
L 397.357385 79.24619 
L 397.734014 79.941833 
L 398.110643 76.770122 
L 398.487273 77.656018 
L 398.487273 77.656018 
" clip-path="url(#p0bd90750da)" style="fill: none; stroke: #ff7f0e; stroke-width: 1.5; stroke-linecap: square"/>
   </g>
   <g id="line2d_19">
    <path d="M 73.832727 295.246754 
L 79.482168 295.2186 
L 79.858798 295.282143 
L 80.612057 295.177599 
L 80.988686 295.257704 
L 81.365315 295.164125 
L 81.741945 295.257159 
L 83.248462 295.167553 
L 85.508239 295.241848 
L 94.923974 295.21701 
L 95.300603 294.989693 
L 95.677233 295.17096 
L 123.547808 295.299978 
L 123.924438 295.222836 
L 124.677697 295.365237 
L 127.314103 295.313391 
L 128.067361 295.331848 
L 128.443991 295.284243 
L 129.19725 295.391185 
L 130.327138 295.36091 
L 130.703767 295.417829 
L 131.833655 295.285328 
L 132.210285 295.374192 
L 133.340173 295.220857 
L 133.716802 295.34414 
L 134.093432 295.345387 
L 134.470061 295.232725 
L 135.599949 295.384153 
L 135.976579 295.24834 
L 137.106467 295.229166 
L 137.483096 295.094222 
L 138.612985 295.338304 
L 139.366243 295.093192 
L 139.742873 295.17458 
L 140.119502 295.064043 
L 142.002649 295.26043 
L 142.755908 295.183485 
L 143.132537 294.878535 
L 143.509167 295.076452 
L 143.885796 294.984054 
L 145.015684 295.161217 
L 145.392314 295.025768 
L 145.768943 295.07054 
L 146.522202 294.855182 
L 146.898831 294.905756 
L 147.65209 294.827407 
L 148.02872 294.962977 
L 148.781978 294.814776 
L 149.158608 295.046718 
L 152.924902 294.800313 
L 153.301531 294.596647 
L 153.678161 294.544937 
L 154.43142 294.716421 
L 155.184678 294.674703 
L 155.561308 294.922864 
L 157.067825 294.618697 
L 158.197714 294.652844 
L 158.574343 294.911071 
L 159.704231 294.478195 
L 160.45749 294.55571 
L 160.834119 294.498968 
L 161.210749 294.71108 
L 161.587378 294.504143 
L 162.340637 294.766444 
L 163.470525 294.404167 
L 164.600413 294.498216 
L 164.977043 294.296498 
L 165.353672 294.426642 
L 166.106931 294.139498 
L 166.48356 294.282459 
L 166.86019 294.18106 
L 167.236819 294.248338 
L 167.990078 294.202419 
L 168.743337 294.195341 
L 169.119966 294.09264 
L 169.496596 294.205322 
L 170.626484 294.043137 
L 171.003113 294.231987 
L 171.756372 294.086627 
L 172.133001 293.819096 
L 172.509631 293.697064 
L 172.88626 293.400869 
L 173.639519 293.358933 
L 174.016148 293.113876 
L 174.392778 293.600168 
L 174.769407 293.565633 
L 175.146037 293.286647 
L 175.522666 293.235958 
L 175.899296 292.856577 
L 176.275925 293.057119 
L 176.652554 292.529824 
L 177.405813 292.990603 
L 177.782443 292.893126 
L 178.159072 293.900554 
L 178.535701 293.828975 
L 178.912331 292.709214 
L 179.28896 292.586239 
L 179.66559 292.630012 
L 180.042219 292.840998 
L 180.418848 291.971529 
L 180.795478 292.700829 
L 181.172107 292.705266 
L 181.548737 292.291461 
L 181.925366 292.831891 
L 182.301995 292.090996 
L 182.678625 292.201911 
L 183.055254 292.614812 
L 183.808513 292.56707 
L 184.185142 292.842457 
L 184.561772 292.382481 
L 184.938401 292.655021 
L 185.315031 292.076997 
L 185.69166 292.522802 
L 186.068289 292.259986 
L 186.444919 292.632945 
L 186.821548 292.44776 
L 187.198178 292.769111 
L 187.951436 291.823964 
L 188.328066 292.589222 
L 188.704695 292.465005 
L 189.081325 292.059232 
L 189.457954 292.309913 
L 189.834583 292.708749 
L 190.211213 292.29758 
L 190.964472 291.944445 
L 191.341101 291.438495 
L 191.71773 291.683234 
L 192.09436 291.52644 
L 192.470989 291.091635 
L 192.847619 291.211046 
L 193.224248 288.53007 
L 193.600877 292.024233 
L 193.977507 292.309928 
L 194.354136 291.357001 
L 194.730766 291.353397 
L 195.484024 290.77562 
L 195.860654 290.817364 
L 196.237283 290.547419 
L 196.613913 290.669324 
L 197.367171 290.102426 
L 197.743801 291.928175 
L 198.12043 292.62143 
L 198.49706 289.66383 
L 198.873689 289.991365 
L 199.626948 289.606083 
L 200.003577 289.777567 
L 200.380207 289.731042 
L 200.756836 290.309359 
L 201.133466 288.092185 
L 201.510095 289.686668 
L 201.886724 289.679222 
L 202.263354 289.031275 
L 202.639983 289.36777 
L 203.016613 289.883585 
L 203.393242 289.558453 
L 203.769871 289.635701 
L 204.146501 288.463882 
L 204.52313 289.005266 
L 204.89976 288.619838 
L 205.276389 288.022277 
L 205.653018 289.403133 
L 206.029648 288.353861 
L 206.406277 289.36141 
L 206.782907 288.337353 
L 207.159536 288.776333 
L 207.536165 288.199536 
L 207.912795 289.602065 
L 208.289424 289.298332 
L 208.666054 288.360353 
L 209.419312 289.209215 
L 209.795942 288.913287 
L 210.172571 287.799427 
L 210.549201 288.510109 
L 210.92583 286.870999 
L 211.302459 287.384699 
L 211.679089 286.55346 
L 212.432348 285.795037 
L 213.185606 285.93874 
L 213.562236 285.995598 
L 213.938865 284.936492 
L 214.315495 286.065244 
L 214.692124 285.769891 
L 215.068753 284.695953 
L 215.445383 284.94262 
L 215.822012 284.7009 
L 216.198642 284.807666 
L 216.9519 286.041189 
L 217.32853 287.839515 
L 217.705159 288.922465 
L 218.081789 284.711174 
L 218.458418 284.311716 
L 218.835047 284.360765 
L 219.211677 284.813032 
L 219.588306 284.735314 
L 219.964936 284.51146 
L 220.718194 285.340104 
L 221.094824 284.31002 
L 221.471453 284.556616 
L 221.848083 283.874296 
L 222.224712 285.020954 
L 222.601341 285.122843 
L 222.977971 284.091395 
L 223.73123 283.102303 
L 224.107859 282.483928 
L 224.484489 284.485699 
L 224.861118 283.48759 
L 225.237747 283.172872 
L 225.614377 284.132402 
L 225.991006 283.190329 
L 226.367636 283.926489 
L 226.744265 283.837807 
L 227.120894 283.395015 
L 227.497524 284.403094 
L 227.874153 284.909004 
L 228.250783 284.450745 
L 228.627412 283.641925 
L 229.004041 283.99615 
L 229.380671 284.843761 
L 229.7573 284.341859 
L 230.510559 282.362422 
L 230.887188 282.488527 
L 231.263818 280.620278 
L 232.017077 280.589711 
L 232.393706 279.447873 
L 232.770335 280.74818 
L 233.146965 280.556241 
L 233.523594 279.380616 
L 233.900224 278.75797 
L 234.276853 280.249459 
L 234.653482 278.935931 
L 235.406741 278.702399 
L 236.16 279.235236 
L 236.536629 277.502462 
L 236.913259 280.059024 
L 237.289888 284.082627 
L 238.043147 277.547376 
L 238.419776 277.803867 
L 238.796406 277.27004 
L 239.173035 277.995418 
L 239.549665 278.45501 
L 239.926294 278.280275 
L 240.302923 278.248885 
L 240.679553 278.763846 
L 241.056182 277.916599 
L 241.432812 277.822813 
L 241.809441 277.339903 
L 242.18607 278.2886 
L 242.5627 278.432788 
L 242.939329 278.10919 
L 243.315959 278.162949 
L 243.692588 275.000148 
L 244.069217 279.086136 
L 244.445847 276.469076 
L 244.822476 276.515989 
L 245.199106 277.272342 
L 245.575735 279.278313 
L 245.952364 278.467191 
L 246.328994 277.156162 
L 246.705623 276.666836 
L 247.082253 279.41144 
L 247.458882 278.901648 
L 247.835511 278.910367 
L 248.212141 278.054235 
L 248.58877 278.940293 
L 248.9654 279.480409 
L 249.718659 280.062194 
L 250.471917 276.553967 
L 250.848547 276.852975 
L 251.225176 276.241637 
L 251.601806 277.114252 
L 251.978435 275.634187 
L 252.355064 275.971193 
L 252.731694 276.753151 
L 253.108323 275.488888 
L 253.484953 275.993319 
L 253.861582 277.310351 
L 254.238211 275.427007 
L 254.614841 274.410275 
L 254.99147 275.719841 
L 255.3681 275.844845 
L 255.744729 290.274718 
L 256.121358 280.387746 
L 256.497988 277.575449 
L 256.874617 282.535365 
L 257.251247 281.259037 
L 257.627876 275.416401 
L 258.004505 276.527252 
L 258.381135 275.129201 
L 258.757764 275.192647 
L 259.134394 275.054664 
L 259.511023 277.650925 
L 259.887652 276.158265 
L 260.264282 275.334584 
L 260.640911 274.857202 
L 261.017541 276.229799 
L 261.39417 276.383978 
L 261.770799 277.07639 
L 262.147429 276.854646 
L 262.524058 272.662684 
L 262.900688 274.633943 
L 263.277317 273.545839 
L 263.653946 276.66357 
L 264.030576 274.723201 
L 264.407205 274.236015 
L 265.160464 275.461249 
L 265.537093 274.426071 
L 266.290352 276.819666 
L 267.043611 278.37764 
L 267.79687 276.767619 
L 268.550129 278.692757 
L 268.926758 277.9857 
L 269.303387 277.627274 
L 269.680017 277.727199 
L 270.056646 273.626313 
L 270.433276 273.163243 
L 271.563164 273.060501 
L 271.939793 273.556239 
L 272.316423 272.311018 
L 272.693052 272.804615 
L 273.069682 270.079482 
L 273.446311 273.016379 
L 273.82294 271.827013 
L 274.19957 269.776083 
L 274.576199 272.074377 
L 274.952829 270.151505 
L 275.329458 271.41859 
L 275.706087 271.459036 
L 276.082717 272.695331 
L 276.459346 283.854239 
L 277.212605 272.472825 
L 277.589234 272.053356 
L 277.965864 271.802059 
L 278.342493 271.199693 
L 278.719123 273.478546 
L 279.095752 272.361536 
L 279.472381 273.076787 
L 279.849011 270.502404 
L 280.22564 272.147127 
L 280.978899 270.811634 
L 281.355528 271.834282 
L 281.732158 271.367728 
L 282.108787 270.718231 
L 282.485417 273.09707 
L 282.862046 270.096681 
L 283.238675 272.110684 
L 283.615305 270.439896 
L 283.991934 270.034225 
L 284.368564 270.128465 
L 285.121822 273.253778 
L 285.498452 271.360807 
L 285.875081 272.705104 
L 286.251711 273.03325 
L 286.62834 272.824803 
L 287.004969 273.628045 
L 287.381599 271.909708 
L 287.758228 273.499052 
L 288.134858 272.988801 
L 288.511487 273.187999 
L 288.888116 275.421772 
L 289.641375 270.452017 
L 290.018005 270.449841 
L 290.394634 270.594721 
L 290.771263 269.384263 
L 291.147893 270.097116 
L 291.524522 270.486527 
L 291.901152 268.134656 
L 292.277781 269.532197 
L 292.65441 269.174731 
L 293.407669 270.71071 
L 293.784299 267.388495 
L 294.537557 269.350182 
L 294.914187 269.314395 
L 295.290816 269.027998 
L 295.667446 270.716439 
L 296.044075 281.162222 
L 296.420704 280.939398 
L 296.797334 270.274486 
L 297.173963 268.897577 
L 297.550593 268.620216 
L 297.927222 268.932238 
L 298.303852 269.475207 
L 298.680481 270.838299 
L 299.05711 270.293563 
L 299.43374 270.888504 
L 299.810369 270.098474 
L 300.186999 269.619557 
L 300.563628 278.737666 
L 300.940257 283.225157 
L 301.316887 284.464365 
L 302.070146 282.30153 
L 302.823404 283.411639 
L 303.200034 283.401401 
L 303.576663 280.741476 
L 303.953293 280.776804 
L 304.329922 282.11844 
L 304.706551 277.702246 
L 305.083181 278.923381 
L 305.45981 278.526887 
L 305.83644 277.646862 
L 306.213069 281.18289 
L 306.589698 279.867771 
L 306.966328 280.366917 
L 307.342957 279.143611 
L 307.719587 278.551598 
L 308.096216 279.446667 
L 308.472845 278.831695 
L 308.849475 279.429281 
L 309.226104 278.902774 
L 309.602734 276.570611 
L 309.979363 276.65626 
L 310.355992 273.819393 
L 310.732622 275.7841 
L 311.109251 275.798699 
L 311.485881 274.195447 
L 311.86251 275.971102 
L 312.239139 277.047145 
L 312.615769 277.067374 
L 312.992398 276.600083 
L 313.369028 278.312028 
L 314.122286 275.616574 
L 314.498916 274.539798 
L 315.252175 278.014763 
L 315.628804 281.367352 
L 316.005433 285.749537 
L 316.758692 276.662742 
L 317.135322 277.560612 
L 318.26521 276.792689 
L 318.641839 278.270173 
L 319.018469 277.863699 
L 319.395098 273.959624 
L 319.771727 273.824815 
L 320.148357 272.415552 
L 320.524986 276.867776 
L 320.901616 274.758478 
L 321.278245 275.482371 
L 321.654874 276.544391 
L 322.031504 274.561713 
L 322.408133 271.149256 
L 322.784763 277.453054 
L 323.161392 275.350309 
L 323.538022 277.685829 
L 323.914651 279.273618 
L 324.29128 273.125749 
L 324.66791 272.209796 
L 325.044539 273.890205 
L 325.421169 277.373196 
L 325.797798 279.092209 
L 326.174427 277.232456 
L 326.551057 277.50802 
L 326.927686 278.943529 
L 327.304316 277.173099 
L 328.057574 277.258869 
L 328.434204 279.232823 
L 328.810833 274.69172 
L 329.187463 272.959592 
L 329.564092 274.950175 
L 329.940721 272.394112 
L 330.317351 274.073093 
L 330.69398 271.910864 
L 331.447239 273.667477 
L 331.823868 273.595135 
L 332.200498 274.419847 
L 332.577127 272.040109 
L 332.953757 271.616859 
L 333.330386 272.808503 
L 333.707015 272.253549 
L 334.083645 270.516837 
L 334.460274 271.783371 
L 334.836904 271.766757 
L 335.213533 275.432434 
L 335.590162 284.333166 
L 335.966792 279.49774 
L 336.343421 278.127954 
L 336.720051 273.766599 
L 337.09668 271.93498 
L 337.473309 276.199712 
L 337.849939 271.771144 
L 338.226568 270.897989 
L 338.603198 274.102989 
L 338.979827 273.083208 
L 339.356456 273.058229 
L 339.733086 271.457976 
L 340.109715 268.304842 
L 340.486345 273.841959 
L 340.862974 273.89802 
L 341.239603 262.623457 
L 341.616233 273.247453 
L 341.992862 272.270506 
L 342.369492 277.191848 
L 343.12275 272.418511 
L 343.49938 275.438865 
L 343.876009 275.40112 
L 344.252639 273.280943 
L 344.629268 273.397517 
L 345.005897 277.817417 
L 345.382527 271.654802 
L 345.759156 274.068055 
L 346.135786 277.997906 
L 346.512415 279.8237 
L 346.889045 277.37672 
L 347.265674 278.875059 
L 348.018933 278.51096 
L 348.395562 277.277764 
L 348.772192 275.588319 
L 349.148821 272.857531 
L 349.52545 271.65359 
L 349.90208 272.163852 
L 350.278709 271.453104 
L 350.655339 269.55918 
L 351.031968 273.512253 
L 351.408597 273.844837 
L 351.785227 270.733795 
L 352.161856 270.233181 
L 352.538486 273.876615 
L 352.915115 270.048683 
L 353.291744 275.108513 
L 353.668374 270.303382 
L 354.045003 269.994247 
L 354.421633 271.962074 
L 354.798262 276.043549 
L 355.174891 281.637842 
L 355.92815 272.515427 
L 356.30478 271.246056 
L 356.681409 271.086082 
L 357.058038 274.453423 
L 357.811297 271.667736 
L 358.187927 274.311017 
L 358.564556 274.50078 
L 358.941185 270.043029 
L 359.317815 273.901241 
L 359.694444 275.825844 
L 360.071074 270.832302 
L 360.447703 276.047179 
L 361.200962 270.375097 
L 361.954221 275.751468 
L 362.33085 271.113186 
L 362.707479 269.884812 
L 363.084109 274.720066 
L 363.460738 274.213909 
L 363.837368 271.991343 
L 364.213997 276.373548 
L 364.590626 277.30039 
L 364.967256 275.952176 
L 365.343885 277.098819 
L 365.720515 276.878186 
L 366.097144 277.525411 
L 366.473773 276.05146 
L 366.850403 277.832642 
L 367.227032 275.598602 
L 367.603662 278.428941 
L 368.35692 269.519203 
L 368.73355 269.542904 
L 369.110179 272.589656 
L 369.486809 271.804906 
L 369.863438 268.48776 
L 370.240067 271.366774 
L 370.616697 270.494932 
L 370.993326 272.465202 
L 371.369956 269.151287 
L 372.123215 272.143321 
L 372.499844 269.976306 
L 372.876473 273.618074 
L 373.253103 269.836964 
L 373.629732 271.616233 
L 374.006362 270.266716 
L 374.382991 274.612548 
L 374.75962 283.584224 
L 375.13625 281.44196 
L 375.512879 274.294504 
L 375.889509 273.498901 
L 376.266138 271.127947 
L 376.642767 270.673539 
L 377.019397 273.562877 
L 377.396026 272.238263 
L 377.772656 273.60974 
L 378.149285 271.244627 
L 378.525914 295.488 
L 379.279173 295.488 
L 379.655803 272.631627 
L 380.409061 274.919881 
L 380.785691 269.928025 
L 381.16232 268.995775 
L 381.53895 272.958653 
L 381.915579 271.286941 
L 382.292208 270.147967 
L 382.668838 270.165645 
L 383.045467 268.159433 
L 383.422097 274.379627 
L 383.798726 272.211871 
L 384.175355 276.696676 
L 384.551985 274.592906 
L 384.928614 278.937657 
L 385.305244 275.35145 
L 386.058502 277.872503 
L 386.435132 277.732783 
L 386.811761 276.584529 
L 387.188391 277.789888 
L 387.56502 273.207713 
L 387.941649 271.14658 
L 388.318279 271.351498 
L 389.071538 271.149483 
L 389.448167 275.610001 
L 389.824796 271.683168 
L 390.201426 271.826816 
L 390.578055 270.113563 
L 390.954685 271.997356 
L 391.331314 270.391029 
L 391.707943 272.894065 
L 392.084573 271.036437 
L 392.461202 267.78667 
L 392.837832 274.59175 
L 393.214461 269.18517 
L 393.59109 270.646092 
L 394.720979 286.924041 
L 395.097608 275.624348 
L 395.474238 271.556296 
L 396.227496 273.592843 
L 396.604126 271.099808 
L 397.357385 272.372561 
L 397.734014 269.346159 
L 398.110643 273.044675 
L 398.487273 271.399982 
L 398.487273 271.399982 
" clip-path="url(#p0bd90750da)" style="fill: none; stroke: #2ca02c; stroke-width: 1.5; stroke-linecap: square"/>
   </g>
   <g id="patch_3">
    <path d="M 57.6 307.584 
L 57.6 41.472 
" style="fill: none; stroke: #000000; stroke-width: 0.8; stroke-linejoin: miter; stroke-linecap: square"/>
   </g>
   <g id="patch_4">
    <path d="M 414.72 307.584 
L 414.72 41.472 
" style="fill: none; stroke: #000000; stroke-width: 0.8; stroke-linejoin: miter; stroke-linecap: square"/>
   </g>
   <g id="patch_5">
    <path d="M 57.6 307.584 
L 414.72 307.584 
" style="fill: none; stroke: #000000; stroke-width: 0.8; stroke-linejoin: miter; stroke-linecap: square"/>
   </g>
   <g id="patch_6">
    <path d="M 57.6 41.472 
L 414.72 41.472 
" style="fill: none; stroke: #000000; stroke-width: 0.8; stroke-linejoin: miter; stroke-linecap: square"/>
   </g>
   <g id="legend_1">
    <g id="patch_7">
     <path d="M 64.6 93.506375 
L 186.25625 93.506375 
Q 188.25625 93.506375 188.25625 91.506375 
L 188.25625 48.472 
Q 188.25625 46.472 186.25625 46.472 
L 64.6 46.472 
Q 62.6 46.472 62.6 48.472 
L 62.6 91.506375 
Q 62.6 93.506375 64.6 93.506375 
z
" style="fill: #ffffff; opacity: 0.8; stroke: #cccccc; stroke-linejoin: miter"/>
    </g>
    <g id="line2d_20">
     <path d="M 66.6 54.570438 
L 76.6 54.570438 
L 86.6 54.570438 
" style="fill: none; stroke: #1f77b4; stroke-width: 1.5; stroke-linecap: square"/>
    </g>
    <g id="text_19">
     <!-- Weekly maximum -->
     <g transform="translate(94.6 58.070438) scale(0.1 -0.1)">
      <defs>
       <path id="DejaVuSans-57" d="M 213 4666 
L 850 4666 
L 1831 722 
L 2809 4666 
L 3519 4666 
L 4500 722 
L 5478 4666 
L 6119 4666 
L 4947 0 
L 4153 0 
L 3169 4050 
L 2175 0 
L 1381 0 
L 213 4666 
z
" transform="scale(0.015625)"/>
       <path id="DejaVuSans-6b" d="M 581 4863 
L 1159 4863 
L 1159 1991 
L 2875 3500 
L 3609 3500 
L 1753 1863 
L 3688 0 
L 2938 0 
L 1159 1709 
L 1159 0 
L 581 0 
L 581 4863 
z
" transform="scale(0.015625)"/>
       <path id="DejaVuSans-79" d="M 2059 -325 
Q 1816 -950 1584 -1140 
Q 1353 -1331 966 -1331 
L 506 -1331 
L 506 -850 
L 844 -850 
Q 1081 -850 1212 -737 
Q 1344 -625 1503 -206 
L 1606 56 
L 191 3500 
L 800 3500 
L 1894 763 
L 2988 3500 
L 3597 3500 
L 2059 -325 
z
" transform="scale(0.015625)"/>
       <path id="DejaVuSans-6d" d="M 3328 2828 
Q 3544 3216 3844 3400 
Q 4144 3584 4550 3584 
Q 5097 3584 5394 3201 
Q 5691 2819 5691 2113 
L 5691 0 
L 5113 0 
L 5113 2094 
Q 5113 2597 4934 2840 
Q 4756 3084 4391 3084 
Q 3944 3084 3684 2787 
Q 3425 2491 3425 1978 
L 3425 0 
L 2847 0 
L 2847 2094 
Q 2847 2600 2669 2842 
Q 2491 3084 2119 3084 
Q 1678 3084 1418 2786 
Q 1159 2488 1159 1978 
L 1159 0 
L 581 0 
L 581 3500 
L 1159 3500 
L 1159 2956 
Q 1356 3278 1631 3431 
Q 1906 3584 2284 3584 
Q 2666 3584 2933 3390 
Q 3200 3197 3328 2828 
z
" transform="scale(0.015625)"/>
       <path id="DejaVuSans-78" d="M 3513 3500 
L 2247 1797 
L 3578 0 
L 2900 0 
L 1881 1375 
L 863 0 
L 184 0 
L 1544 1831 
L 300 3500 
L 978 3500 
L 1906 2253 
L 2834 3500 
L 3513 3500 
z
" transform="scale(0.015625)"/>
       <path id="DejaVuSans-75" d="M 544 1381 
L 544 3500 
L 1119 3500 
L 1119 1403 
Q 1119 906 1312 657 
Q 1506 409 1894 409 
Q 2359 409 2629 706 
Q 2900 1003 2900 1516 
L 2900 3500 
L 3475 3500 
L 3475 0 
L 2900 0 
L 2900 538 
Q 2691 219 2414 64 
Q 2138 -91 1772 -91 
Q 1169 -91 856 284 
Q 544 659 544 1381 
z
M 1991 3584 
L 1991 3584 
z
" transform="scale(0.015625)"/>
      </defs>
      <use xlink:href="#DejaVuSans-57"/>
      <use xlink:href="#DejaVuSans-65" transform="translate(93.001953 0)"/>
      <use xlink:href="#DejaVuSans-65" transform="translate(154.525391 0)"/>
      <use xlink:href="#DejaVuSans-6b" transform="translate(216.048828 0)"/>
      <use xlink:href="#DejaVuSans-6c" transform="translate(273.958984 0)"/>
      <use xlink:href="#DejaVuSans-79" transform="translate(301.742188 0)"/>
      <use xlink:href="#DejaVuSans-20" transform="translate(360.921875 0)"/>
      <use xlink:href="#DejaVuSans-6d" transform="translate(392.708984 0)"/>
      <use xlink:href="#DejaVuSans-61" transform="translate(490.121094 0)"/>
      <use xlink:href="#DejaVuSans-78" transform="translate(551.400391 0)"/>
      <use xlink:href="#DejaVuSans-69" transform="translate(610.580078 0)"/>
      <use xlink:href="#DejaVuSans-6d" transform="translate(638.363281 0)"/>
      <use xlink:href="#DejaVuSans-75" transform="translate(735.775391 0)"/>
      <use xlink:href="#DejaVuSans-6d" transform="translate(799.154297 0)"/>
     </g>
    </g>
    <g id="line2d_21">
     <path d="M 66.6 69.248563 
L 76.6 69.248563 
L 86.6 69.248563 
" style="fill: none; stroke: #ff7f0e; stroke-width: 1.5; stroke-linecap: square"/>
    </g>
    <g id="text_20">
     <!-- Weekly minimum -->
     <g transform="translate(94.6 72.748563) scale(0.1 -0.1)">
      <defs>
       <path id="DejaVuSans-6e" d="M 3513 2113 
L 3513 0 
L 2938 0 
L 2938 2094 
Q 2938 2591 2744 2837 
Q 2550 3084 2163 3084 
Q 1697 3084 1428 2787 
Q 1159 2491 1159 1978 
L 1159 0 
L 581 0 
L 581 3500 
L 1159 3500 
L 1159 2956 
Q 1366 3272 1645 3428 
Q 1925 3584 2291 3584 
Q 2894 3584 3203 3211 
Q 3513 2838 3513 2113 
z
" transform="scale(0.015625)"/>
      </defs>
      <use xlink:href="#DejaVuSans-57"/>
      <use xlink:href="#DejaVuSans-65" transform="translate(93.001953 0)"/>
      <use xlink:href="#DejaVuSans-65" transform="translate(154.525391 0)"/>
      <use xlink:href="#DejaVuSans-6b" transform="translate(216.048828 0)"/>
      <use xlink:href="#DejaVuSans-6c" transform="translate(273.958984 0)"/>
      <use xlink:href="#DejaVuSans-79" transform="translate(301.742188 0)"/>
      <use xlink:href="#DejaVuSans-20" transform="translate(360.921875 0)"/>
      <use xlink:href="#DejaVuSans-6d" transform="translate(392.708984 0)"/>
      <use xlink:href="#DejaVuSans-69" transform="translate(490.121094 0)"/>
      <use xlink:href="#DejaVuSans-6e" transform="translate(517.904297 0)"/>
      <use xlink:href="#DejaVuSans-69" transform="translate(581.283203 0)"/>
      <use xlink:href="#DejaVuSans-6d" transform="translate(609.066406 0)"/>
      <use xlink:href="#DejaVuSans-75" transform="translate(706.478516 0)"/>
      <use xlink:href="#DejaVuSans-6d" transform="translate(769.857422 0)"/>
     </g>
    </g>
    <g id="line2d_22">
     <path d="M 66.6 83.926688 
L 76.6 83.926688 
L 86.6 83.926688 
" style="fill: none; stroke: #2ca02c; stroke-width: 1.5; stroke-linecap: square"/>
    </g>
    <g id="text_21">
     <!-- Weekly range -->
     <g transform="translate(94.6 87.426688) scale(0.1 -0.1)">
      <use xlink:href="#DejaVuSans-57"/>
      <use xlink:href="#DejaVuSans-65" transform="translate(93.001953 0)"/>
      <use xlink:href="#DejaVuSans-65" transform="translate(154.525391 0)"/>
      <use xlink:href="#DejaVuSans-6b" transform="translate(216.048828 0)"/>
      <use xlink:href="#DejaVuSans-6c" transform="translate(273.958984 0)"/>
      <use xlink:href="#DejaVuSans-79" transform="translate(301.742188 0)"/>
      <use xlink:href="#DejaVuSans-20" transform="translate(360.921875 0)"/>
      <use xlink:href="#DejaVuSans-72" transform="translate(392.708984 0)"/>
      <use xlink:href="#DejaVuSans-61" transform="translate(433.822266 0)"/>
      <use xlink:href="#DejaVuSans-6e" transform="translate(495.101562 0)"/>
      <use xlink:href="#DejaVuSans-67" transform="translate(558.480469 0)"/>
      <use xlink:href="#DejaVuSans-65" transform="translate(621.957031 0)"/>
     </g>
    </g>
   </g>
  </g>
 </g>
 <defs>
  <clipPath id="p0bd90750da">
   <rect x="57.6" y="41.472" width="357.12" height="266.112"/>
  </clipPath>
 </defs>
</svg>
