<?xml version="1.0" encoding="utf-8" standalone="no"?>
<!DOCTYPE svg PUBLIC "-//W3C//DTD SVG 1.1//EN"
  "http://www.w3.org/Graphics/SVG/1.1/DTD/svg11.dtd">
<svg xmlns:xlink="http://www.w3.org/1999/xlink" width="460.8pt" height="345.6pt" viewBox="0 0 460.8 345.6" xmlns="http://www.w3.org/2000/svg" version="1.1">
 <metadata>
  <rdf:RDF xmlns:dc="http://purl.org/dc/elements/1.1/" xmlns:cc="http://creativecommons.org/ns#" xmlns:rdf="http://www.w3.org/1999/02/22-rdf-syntax-ns#">
   <cc:Work>
    <dc:type rdf:resource="http://purl.org/dc/dcmitype/StillImage"/>
    <dc:date>2024-07-03T05:33:10.492122</dc:date>
    <dc:format>image/svg+xml</dc:format>
    <dc:creator>
     <cc:Agent>
      <dc:title>Matplotlib v3.9.0, https://matplotlib.org/</dc:title>
     </cc:Agent>
    </dc:creator>
   </cc:Work>
  </rdf:RDF>
 </metadata>
 <defs>
  <style type="text/css">*{stroke-linejoin: round; stroke-linecap: butt}</style>
 </defs>
 <g id="figure_1">
  <g id="patch_1">
   <path d="M 0 345.6 
L 460.8 345.6 
L 460.8 0 
L 0 0 
z
" style="fill: #ffffff"/>
  </g>
  <g id="axes_1">
   <g id="patch_2">
    <path d="M 57.6 307.584 
L 414.72 307.584 
L 414.72 41.472 
L 57.6 41.472 
z
" style="fill: #ffffff"/>
   </g>
   <g id="matplotlib.axis_1">
    <g id="xtick_1">
     <g id="line2d_1">
      <defs>
       <path id="mc11ad604db" d="M 0 0 
L 0 3.5 
" style="stroke: #000000; stroke-width: 0.8"/>
      </defs>
      <g>
       <use xlink:href="#mc11ad604db" x="60.115721" y="307.584" style="stroke: #000000; stroke-width: 0.8"/>
      </g>
     </g>
     <g id="text_1">
      <!-- 2008 -->
      <g transform="translate(47.390721 322.182437) scale(0.1 -0.1)">
       <defs>
        <path id="DejaVuSans-32" d="M 1228 531 
L 3431 531 
L 3431 0 
L 469 0 
L 469 531 
Q 828 903 1448 1529 
Q 2069 2156 2228 2338 
Q 2531 2678 2651 2914 
Q 2772 3150 2772 3378 
Q 2772 3750 2511 3984 
Q 2250 4219 1831 4219 
Q 1534 4219 1204 4116 
Q 875 4013 500 3803 
L 500 4441 
Q 881 4594 1212 4672 
Q 1544 4750 1819 4750 
Q 2544 4750 2975 4387 
Q 3406 4025 3406 3419 
Q 3406 3131 3298 2873 
Q 3191 2616 2906 2266 
Q 2828 2175 2409 1742 
Q 1991 1309 1228 531 
z
" transform="scale(0.015625)"/>
        <path id="DejaVuSans-30" d="M 2034 4250 
Q 1547 4250 1301 3770 
Q 1056 3291 1056 2328 
Q 1056 1369 1301 889 
Q 1547 409 2034 409 
Q 2525 409 2770 889 
Q 3016 1369 3016 2328 
Q 3016 3291 2770 3770 
Q 2525 4250 2034 4250 
z
M 2034 4750 
Q 2819 4750 3233 4129 
Q 3647 3509 3647 2328 
Q 3647 1150 3233 529 
Q 2819 -91 2034 -91 
Q 1250 -91 836 529 
Q 422 1150 422 2328 
Q 422 3509 836 4129 
Q 1250 4750 2034 4750 
z
" transform="scale(0.015625)"/>
        <path id="DejaVuSans-38" d="M 2034 2216 
Q 1584 2216 1326 1975 
Q 1069 1734 1069 1313 
Q 1069 891 1326 650 
Q 1584 409 2034 409 
Q 2484 409 2743 651 
Q 3003 894 3003 1313 
Q 3003 1734 2745 1975 
Q 2488 2216 2034 2216 
z
M 1403 2484 
Q 997 2584 770 2862 
Q 544 3141 544 3541 
Q 544 4100 942 4425 
Q 1341 4750 2034 4750 
Q 2731 4750 3128 4425 
Q 3525 4100 3525 3541 
Q 3525 3141 3298 2862 
Q 3072 2584 2669 2484 
Q 3125 2378 3379 2068 
Q 3634 1759 3634 1313 
Q 3634 634 3220 271 
Q 2806 -91 2034 -91 
Q 1263 -91 848 271 
Q 434 634 434 1313 
Q 434 1759 690 2068 
Q 947 2378 1403 2484 
z
M 1172 3481 
Q 1172 3119 1398 2916 
Q 1625 2713 2034 2713 
Q 2441 2713 2670 2916 
Q 2900 3119 2900 3481 
Q 2900 3844 2670 4047 
Q 2441 4250 2034 4250 
Q 1625 4250 1398 4047 
Q 1172 3844 1172 3481 
z
" transform="scale(0.015625)"/>
       </defs>
       <use xlink:href="#DejaVuSans-32"/>
       <use xlink:href="#DejaVuSans-30" x="63.623047"/>
       <use xlink:href="#DejaVuSans-30" x="127.246094"/>
       <use xlink:href="#DejaVuSans-38" x="190.869141"/>
      </g>
     </g>
    </g>
    <g id="xtick_2">
     <g id="line2d_2">
      <g>
       <use xlink:href="#mc11ad604db" x="101.210522" y="307.584" style="stroke: #000000; stroke-width: 0.8"/>
      </g>
     </g>
     <g id="text_2">
      <!-- 2010 -->
      <g transform="translate(88.485522 322.182437) scale(0.1 -0.1)">
       <defs>
        <path id="DejaVuSans-31" d="M 794 531 
L 1825 531 
L 1825 4091 
L 703 3866 
L 703 4441 
L 1819 4666 
L 2450 4666 
L 2450 531 
L 3481 531 
L 3481 0 
L 794 0 
L 794 531 
z
" transform="scale(0.015625)"/>
       </defs>
       <use xlink:href="#DejaVuSans-32"/>
       <use xlink:href="#DejaVuSans-30" x="63.623047"/>
       <use xlink:href="#DejaVuSans-31" x="127.246094"/>
       <use xlink:href="#DejaVuSans-30" x="190.869141"/>
      </g>
     </g>
    </g>
    <g id="xtick_3">
     <g id="line2d_3">
      <g>
       <use xlink:href="#mc11ad604db" x="142.249105" y="307.584" style="stroke: #000000; stroke-width: 0.8"/>
      </g>
     </g>
     <g id="text_3">
      <!-- 2012 -->
      <g transform="translate(129.524105 322.182437) scale(0.1 -0.1)">
       <use xlink:href="#DejaVuSans-32"/>
       <use xlink:href="#DejaVuSans-30" x="63.623047"/>
       <use xlink:href="#DejaVuSans-31" x="127.246094"/>
       <use xlink:href="#DejaVuSans-32" x="190.869141"/>
      </g>
     </g>
    </g>
    <g id="xtick_4">
     <g id="line2d_4">
      <g>
       <use xlink:href="#mc11ad604db" x="183.343906" y="307.584" style="stroke: #000000; stroke-width: 0.8"/>
      </g>
     </g>
     <g id="text_4">
      <!-- 2014 -->
      <g transform="translate(170.618906 322.182437) scale(0.1 -0.1)">
       <defs>
        <path id="DejaVuSans-34" d="M 2419 4116 
L 825 1625 
L 2419 1625 
L 2419 4116 
z
M 2253 4666 
L 3047 4666 
L 3047 1625 
L 3713 1625 
L 3713 1100 
L 3047 1100 
L 3047 0 
L 2419 0 
L 2419 1100 
L 313 1100 
L 313 1709 
L 2253 4666 
z
" transform="scale(0.015625)"/>
       </defs>
       <use xlink:href="#DejaVuSans-32"/>
       <use xlink:href="#DejaVuSans-30" x="63.623047"/>
       <use xlink:href="#DejaVuSans-31" x="127.246094"/>
       <use xlink:href="#DejaVuSans-34" x="190.869141"/>
      </g>
     </g>
    </g>
    <g id="xtick_5">
     <g id="line2d_5">
      <g>
       <use xlink:href="#mc11ad604db" x="224.382489" y="307.584" style="stroke: #000000; stroke-width: 0.8"/>
      </g>
     </g>
     <g id="text_5">
      <!-- 2016 -->
      <g transform="translate(211.657489 322.182437) scale(0.1 -0.1)">
       <defs>
        <path id="DejaVuSans-36" d="M 2113 2584 
Q 1688 2584 1439 2293 
Q 1191 2003 1191 1497 
Q 1191 994 1439 701 
Q 1688 409 2113 409 
Q 2538 409 2786 701 
Q 3034 994 3034 1497 
Q 3034 2003 2786 2293 
Q 2538 2584 2113 2584 
z
M 3366 4563 
L 3366 3988 
Q 3128 4100 2886 4159 
Q 2644 4219 2406 4219 
Q 1781 4219 1451 3797 
Q 1122 3375 1075 2522 
Q 1259 2794 1537 2939 
Q 1816 3084 2150 3084 
Q 2853 3084 3261 2657 
Q 3669 2231 3669 1497 
Q 3669 778 3244 343 
Q 2819 -91 2113 -91 
Q 1303 -91 875 529 
Q 447 1150 447 2328 
Q 447 3434 972 4092 
Q 1497 4750 2381 4750 
Q 2619 4750 2861 4703 
Q 3103 4656 3366 4563 
z
" transform="scale(0.015625)"/>
       </defs>
       <use xlink:href="#DejaVuSans-32"/>
       <use xlink:href="#DejaVuSans-30" x="63.623047"/>
       <use xlink:href="#DejaVuSans-31" x="127.246094"/>
       <use xlink:href="#DejaVuSans-36" x="190.869141"/>
      </g>
     </g>
    </g>
    <g id="xtick_6">
     <g id="line2d_6">
      <g>
       <use xlink:href="#mc11ad604db" x="265.477289" y="307.584" style="stroke: #000000; stroke-width: 0.8"/>
      </g>
     </g>
     <g id="text_6">
      <!-- 2018 -->
      <g transform="translate(252.752289 322.182437) scale(0.1 -0.1)">
       <use xlink:href="#DejaVuSans-32"/>
       <use xlink:href="#DejaVuSans-30" x="63.623047"/>
       <use xlink:href="#DejaVuSans-31" x="127.246094"/>
       <use xlink:href="#DejaVuSans-38" x="190.869141"/>
      </g>
     </g>
    </g>
    <g id="xtick_7">
     <g id="line2d_7">
      <g>
       <use xlink:href="#mc11ad604db" x="306.515872" y="307.584" style="stroke: #000000; stroke-width: 0.8"/>
      </g>
     </g>
     <g id="text_7">
      <!-- 2020 -->
      <g transform="translate(293.790872 322.182437) scale(0.1 -0.1)">
       <use xlink:href="#DejaVuSans-32"/>
       <use xlink:href="#DejaVuSans-30" x="63.623047"/>
       <use xlink:href="#DejaVuSans-32" x="127.246094"/>
       <use xlink:href="#DejaVuSans-30" x="190.869141"/>
      </g>
     </g>
    </g>
    <g id="xtick_8">
     <g id="line2d_8">
      <g>
       <use xlink:href="#mc11ad604db" x="347.610673" y="307.584" style="stroke: #000000; stroke-width: 0.8"/>
      </g>
     </g>
     <g id="text_8">
      <!-- 2022 -->
      <g transform="translate(334.885673 322.182437) scale(0.1 -0.1)">
       <use xlink:href="#DejaVuSans-32"/>
       <use xlink:href="#DejaVuSans-30" x="63.623047"/>
       <use xlink:href="#DejaVuSans-32" x="127.246094"/>
       <use xlink:href="#DejaVuSans-32" x="190.869141"/>
      </g>
     </g>
    </g>
    <g id="xtick_9">
     <g id="line2d_9">
      <g>
       <use xlink:href="#mc11ad604db" x="388.649256" y="307.584" style="stroke: #000000; stroke-width: 0.8"/>
      </g>
     </g>
     <g id="text_9">
      <!-- 2024 -->
      <g transform="translate(375.924256 322.182437) scale(0.1 -0.1)">
       <use xlink:href="#DejaVuSans-32"/>
       <use xlink:href="#DejaVuSans-30" x="63.623047"/>
       <use xlink:href="#DejaVuSans-32" x="127.246094"/>
       <use xlink:href="#DejaVuSans-34" x="190.869141"/>
      </g>
     </g>
    </g>
    <g id="text_10">
     <!-- Updated 2024-07-03 05:33:10.490586 - Last record 2024-06-30 -->
     <g transform="translate(75.905312 335.860562) scale(0.1 -0.1)">
      <defs>
       <path id="DejaVuSans-55" d="M 556 4666 
L 1191 4666 
L 1191 1831 
Q 1191 1081 1462 751 
Q 1734 422 2344 422 
Q 2950 422 3222 751 
Q 3494 1081 3494 1831 
L 3494 4666 
L 4128 4666 
L 4128 1753 
Q 4128 841 3676 375 
Q 3225 -91 2344 -91 
Q 1459 -91 1007 375 
Q 556 841 556 1753 
L 556 4666 
z
" transform="scale(0.015625)"/>
       <path id="DejaVuSans-70" d="M 1159 525 
L 1159 -1331 
L 581 -1331 
L 581 3500 
L 1159 3500 
L 1159 2969 
Q 1341 3281 1617 3432 
Q 1894 3584 2278 3584 
Q 2916 3584 3314 3078 
Q 3713 2572 3713 1747 
Q 3713 922 3314 415 
Q 2916 -91 2278 -91 
Q 1894 -91 1617 61 
Q 1341 213 1159 525 
z
M 3116 1747 
Q 3116 2381 2855 2742 
Q 2594 3103 2138 3103 
Q 1681 3103 1420 2742 
Q 1159 2381 1159 1747 
Q 1159 1113 1420 752 
Q 1681 391 2138 391 
Q 2594 391 2855 752 
Q 3116 1113 3116 1747 
z
" transform="scale(0.015625)"/>
       <path id="DejaVuSans-64" d="M 2906 2969 
L 2906 4863 
L 3481 4863 
L 3481 0 
L 2906 0 
L 2906 525 
Q 2725 213 2448 61 
Q 2172 -91 1784 -91 
Q 1150 -91 751 415 
Q 353 922 353 1747 
Q 353 2572 751 3078 
Q 1150 3584 1784 3584 
Q 2172 3584 2448 3432 
Q 2725 3281 2906 2969 
z
M 947 1747 
Q 947 1113 1208 752 
Q 1469 391 1925 391 
Q 2381 391 2643 752 
Q 2906 1113 2906 1747 
Q 2906 2381 2643 2742 
Q 2381 3103 1925 3103 
Q 1469 3103 1208 2742 
Q 947 2381 947 1747 
z
" transform="scale(0.015625)"/>
       <path id="DejaVuSans-61" d="M 2194 1759 
Q 1497 1759 1228 1600 
Q 959 1441 959 1056 
Q 959 750 1161 570 
Q 1363 391 1709 391 
Q 2188 391 2477 730 
Q 2766 1069 2766 1631 
L 2766 1759 
L 2194 1759 
z
M 3341 1997 
L 3341 0 
L 2766 0 
L 2766 531 
Q 2569 213 2275 61 
Q 1981 -91 1556 -91 
Q 1019 -91 701 211 
Q 384 513 384 1019 
Q 384 1609 779 1909 
Q 1175 2209 1959 2209 
L 2766 2209 
L 2766 2266 
Q 2766 2663 2505 2880 
Q 2244 3097 1772 3097 
Q 1472 3097 1187 3025 
Q 903 2953 641 2809 
L 641 3341 
Q 956 3463 1253 3523 
Q 1550 3584 1831 3584 
Q 2591 3584 2966 3190 
Q 3341 2797 3341 1997 
z
" transform="scale(0.015625)"/>
       <path id="DejaVuSans-74" d="M 1172 4494 
L 1172 3500 
L 2356 3500 
L 2356 3053 
L 1172 3053 
L 1172 1153 
Q 1172 725 1289 603 
Q 1406 481 1766 481 
L 2356 481 
L 2356 0 
L 1766 0 
Q 1100 0 847 248 
Q 594 497 594 1153 
L 594 3053 
L 172 3053 
L 172 3500 
L 594 3500 
L 594 4494 
L 1172 4494 
z
" transform="scale(0.015625)"/>
       <path id="DejaVuSans-65" d="M 3597 1894 
L 3597 1613 
L 953 1613 
Q 991 1019 1311 708 
Q 1631 397 2203 397 
Q 2534 397 2845 478 
Q 3156 559 3463 722 
L 3463 178 
Q 3153 47 2828 -22 
Q 2503 -91 2169 -91 
Q 1331 -91 842 396 
Q 353 884 353 1716 
Q 353 2575 817 3079 
Q 1281 3584 2069 3584 
Q 2775 3584 3186 3129 
Q 3597 2675 3597 1894 
z
M 3022 2063 
Q 3016 2534 2758 2815 
Q 2500 3097 2075 3097 
Q 1594 3097 1305 2825 
Q 1016 2553 972 2059 
L 3022 2063 
z
" transform="scale(0.015625)"/>
       <path id="DejaVuSans-20" transform="scale(0.015625)"/>
       <path id="DejaVuSans-2d" d="M 313 2009 
L 1997 2009 
L 1997 1497 
L 313 1497 
L 313 2009 
z
" transform="scale(0.015625)"/>
       <path id="DejaVuSans-37" d="M 525 4666 
L 3525 4666 
L 3525 4397 
L 1831 0 
L 1172 0 
L 2766 4134 
L 525 4134 
L 525 4666 
z
" transform="scale(0.015625)"/>
       <path id="DejaVuSans-33" d="M 2597 2516 
Q 3050 2419 3304 2112 
Q 3559 1806 3559 1356 
Q 3559 666 3084 287 
Q 2609 -91 1734 -91 
Q 1441 -91 1130 -33 
Q 819 25 488 141 
L 488 750 
Q 750 597 1062 519 
Q 1375 441 1716 441 
Q 2309 441 2620 675 
Q 2931 909 2931 1356 
Q 2931 1769 2642 2001 
Q 2353 2234 1838 2234 
L 1294 2234 
L 1294 2753 
L 1863 2753 
Q 2328 2753 2575 2939 
Q 2822 3125 2822 3475 
Q 2822 3834 2567 4026 
Q 2313 4219 1838 4219 
Q 1578 4219 1281 4162 
Q 984 4106 628 3988 
L 628 4550 
Q 988 4650 1302 4700 
Q 1616 4750 1894 4750 
Q 2613 4750 3031 4423 
Q 3450 4097 3450 3541 
Q 3450 3153 3228 2886 
Q 3006 2619 2597 2516 
z
" transform="scale(0.015625)"/>
       <path id="DejaVuSans-35" d="M 691 4666 
L 3169 4666 
L 3169 4134 
L 1269 4134 
L 1269 2991 
Q 1406 3038 1543 3061 
Q 1681 3084 1819 3084 
Q 2600 3084 3056 2656 
Q 3513 2228 3513 1497 
Q 3513 744 3044 326 
Q 2575 -91 1722 -91 
Q 1428 -91 1123 -41 
Q 819 9 494 109 
L 494 744 
Q 775 591 1075 516 
Q 1375 441 1709 441 
Q 2250 441 2565 725 
Q 2881 1009 2881 1497 
Q 2881 1984 2565 2268 
Q 2250 2553 1709 2553 
Q 1456 2553 1204 2497 
Q 953 2441 691 2322 
L 691 4666 
z
" transform="scale(0.015625)"/>
       <path id="DejaVuSans-3a" d="M 750 794 
L 1409 794 
L 1409 0 
L 750 0 
L 750 794 
z
M 750 3309 
L 1409 3309 
L 1409 2516 
L 750 2516 
L 750 3309 
z
" transform="scale(0.015625)"/>
       <path id="DejaVuSans-2e" d="M 684 794 
L 1344 794 
L 1344 0 
L 684 0 
L 684 794 
z
" transform="scale(0.015625)"/>
       <path id="DejaVuSans-39" d="M 703 97 
L 703 672 
Q 941 559 1184 500 
Q 1428 441 1663 441 
Q 2288 441 2617 861 
Q 2947 1281 2994 2138 
Q 2813 1869 2534 1725 
Q 2256 1581 1919 1581 
Q 1219 1581 811 2004 
Q 403 2428 403 3163 
Q 403 3881 828 4315 
Q 1253 4750 1959 4750 
Q 2769 4750 3195 4129 
Q 3622 3509 3622 2328 
Q 3622 1225 3098 567 
Q 2575 -91 1691 -91 
Q 1453 -91 1209 -44 
Q 966 3 703 97 
z
M 1959 2075 
Q 2384 2075 2632 2365 
Q 2881 2656 2881 3163 
Q 2881 3666 2632 3958 
Q 2384 4250 1959 4250 
Q 1534 4250 1286 3958 
Q 1038 3666 1038 3163 
Q 1038 2656 1286 2365 
Q 1534 2075 1959 2075 
z
" transform="scale(0.015625)"/>
       <path id="DejaVuSans-4c" d="M 628 4666 
L 1259 4666 
L 1259 531 
L 3531 531 
L 3531 0 
L 628 0 
L 628 4666 
z
" transform="scale(0.015625)"/>
       <path id="DejaVuSans-73" d="M 2834 3397 
L 2834 2853 
Q 2591 2978 2328 3040 
Q 2066 3103 1784 3103 
Q 1356 3103 1142 2972 
Q 928 2841 928 2578 
Q 928 2378 1081 2264 
Q 1234 2150 1697 2047 
L 1894 2003 
Q 2506 1872 2764 1633 
Q 3022 1394 3022 966 
Q 3022 478 2636 193 
Q 2250 -91 1575 -91 
Q 1294 -91 989 -36 
Q 684 19 347 128 
L 347 722 
Q 666 556 975 473 
Q 1284 391 1588 391 
Q 1994 391 2212 530 
Q 2431 669 2431 922 
Q 2431 1156 2273 1281 
Q 2116 1406 1581 1522 
L 1381 1569 
Q 847 1681 609 1914 
Q 372 2147 372 2553 
Q 372 3047 722 3315 
Q 1072 3584 1716 3584 
Q 2034 3584 2315 3537 
Q 2597 3491 2834 3397 
z
" transform="scale(0.015625)"/>
       <path id="DejaVuSans-72" d="M 2631 2963 
Q 2534 3019 2420 3045 
Q 2306 3072 2169 3072 
Q 1681 3072 1420 2755 
Q 1159 2438 1159 1844 
L 1159 0 
L 581 0 
L 581 3500 
L 1159 3500 
L 1159 2956 
Q 1341 3275 1631 3429 
Q 1922 3584 2338 3584 
Q 2397 3584 2469 3576 
Q 2541 3569 2628 3553 
L 2631 2963 
z
" transform="scale(0.015625)"/>
       <path id="DejaVuSans-63" d="M 3122 3366 
L 3122 2828 
Q 2878 2963 2633 3030 
Q 2388 3097 2138 3097 
Q 1578 3097 1268 2742 
Q 959 2388 959 1747 
Q 959 1106 1268 751 
Q 1578 397 2138 397 
Q 2388 397 2633 464 
Q 2878 531 3122 666 
L 3122 134 
Q 2881 22 2623 -34 
Q 2366 -91 2075 -91 
Q 1284 -91 818 406 
Q 353 903 353 1747 
Q 353 2603 823 3093 
Q 1294 3584 2113 3584 
Q 2378 3584 2631 3529 
Q 2884 3475 3122 3366 
z
" transform="scale(0.015625)"/>
       <path id="DejaVuSans-6f" d="M 1959 3097 
Q 1497 3097 1228 2736 
Q 959 2375 959 1747 
Q 959 1119 1226 758 
Q 1494 397 1959 397 
Q 2419 397 2687 759 
Q 2956 1122 2956 1747 
Q 2956 2369 2687 2733 
Q 2419 3097 1959 3097 
z
M 1959 3584 
Q 2709 3584 3137 3096 
Q 3566 2609 3566 1747 
Q 3566 888 3137 398 
Q 2709 -91 1959 -91 
Q 1206 -91 779 398 
Q 353 888 353 1747 
Q 353 2609 779 3096 
Q 1206 3584 1959 3584 
z
" transform="scale(0.015625)"/>
      </defs>
      <use xlink:href="#DejaVuSans-55"/>
      <use xlink:href="#DejaVuSans-70" x="73.193359"/>
      <use xlink:href="#DejaVuSans-64" x="136.669922"/>
      <use xlink:href="#DejaVuSans-61" x="200.146484"/>
      <use xlink:href="#DejaVuSans-74" x="261.425781"/>
      <use xlink:href="#DejaVuSans-65" x="300.634766"/>
      <use xlink:href="#DejaVuSans-64" x="362.158203"/>
      <use xlink:href="#DejaVuSans-20" x="425.634766"/>
      <use xlink:href="#DejaVuSans-32" x="457.421875"/>
      <use xlink:href="#DejaVuSans-30" x="521.044922"/>
      <use xlink:href="#DejaVuSans-32" x="584.667969"/>
      <use xlink:href="#DejaVuSans-34" x="648.291016"/>
      <use xlink:href="#DejaVuSans-2d" x="711.914062"/>
      <use xlink:href="#DejaVuSans-30" x="747.998047"/>
      <use xlink:href="#DejaVuSans-37" x="811.621094"/>
      <use xlink:href="#DejaVuSans-2d" x="875.244141"/>
      <use xlink:href="#DejaVuSans-30" x="911.328125"/>
      <use xlink:href="#DejaVuSans-33" x="974.951172"/>
      <use xlink:href="#DejaVuSans-20" x="1038.574219"/>
      <use xlink:href="#DejaVuSans-30" x="1070.361328"/>
      <use xlink:href="#DejaVuSans-35" x="1133.984375"/>
      <use xlink:href="#DejaVuSans-3a" x="1197.607422"/>
      <use xlink:href="#DejaVuSans-33" x="1231.298828"/>
      <use xlink:href="#DejaVuSans-33" x="1294.921875"/>
      <use xlink:href="#DejaVuSans-3a" x="1358.544922"/>
      <use xlink:href="#DejaVuSans-31" x="1392.236328"/>
      <use xlink:href="#DejaVuSans-30" x="1455.859375"/>
      <use xlink:href="#DejaVuSans-2e" x="1519.482422"/>
      <use xlink:href="#DejaVuSans-34" x="1551.269531"/>
      <use xlink:href="#DejaVuSans-39" x="1614.892578"/>
      <use xlink:href="#DejaVuSans-30" x="1678.515625"/>
      <use xlink:href="#DejaVuSans-35" x="1742.138672"/>
      <use xlink:href="#DejaVuSans-38" x="1805.761719"/>
      <use xlink:href="#DejaVuSans-36" x="1869.384766"/>
      <use xlink:href="#DejaVuSans-20" x="1933.007812"/>
      <use xlink:href="#DejaVuSans-2d" x="1964.794922"/>
      <use xlink:href="#DejaVuSans-20" x="2000.878906"/>
      <use xlink:href="#DejaVuSans-4c" x="2032.666016"/>
      <use xlink:href="#DejaVuSans-61" x="2088.378906"/>
      <use xlink:href="#DejaVuSans-73" x="2149.658203"/>
      <use xlink:href="#DejaVuSans-74" x="2201.757812"/>
      <use xlink:href="#DejaVuSans-20" x="2240.966797"/>
      <use xlink:href="#DejaVuSans-72" x="2272.753906"/>
      <use xlink:href="#DejaVuSans-65" x="2311.617188"/>
      <use xlink:href="#DejaVuSans-63" x="2373.140625"/>
      <use xlink:href="#DejaVuSans-6f" x="2428.121094"/>
      <use xlink:href="#DejaVuSans-72" x="2489.302734"/>
      <use xlink:href="#DejaVuSans-64" x="2528.666016"/>
      <use xlink:href="#DejaVuSans-20" x="2592.142578"/>
      <use xlink:href="#DejaVuSans-32" x="2623.929688"/>
      <use xlink:href="#DejaVuSans-30" x="2687.552734"/>
      <use xlink:href="#DejaVuSans-32" x="2751.175781"/>
      <use xlink:href="#DejaVuSans-34" x="2814.798828"/>
      <use xlink:href="#DejaVuSans-2d" x="2878.421875"/>
      <use xlink:href="#DejaVuSans-30" x="2914.505859"/>
      <use xlink:href="#DejaVuSans-36" x="2978.128906"/>
      <use xlink:href="#DejaVuSans-2d" x="3041.751953"/>
      <use xlink:href="#DejaVuSans-33" x="3077.835938"/>
      <use xlink:href="#DejaVuSans-30" x="3141.458984"/>
     </g>
    </g>
   </g>
   <g id="matplotlib.axis_2">
    <g id="ytick_1">
     <g id="line2d_10">
      <defs>
       <path id="m3601457ea7" d="M 0 0 
L -3.5 0 
" style="stroke: #000000; stroke-width: 0.8"/>
      </defs>
      <g>
       <use xlink:href="#m3601457ea7" x="57.6" y="295.488" style="stroke: #000000; stroke-width: 0.8"/>
      </g>
     </g>
     <g id="text_11">
      <!-- 0 -->
      <g transform="translate(44.2375 299.287219) scale(0.1 -0.1)">
       <use xlink:href="#DejaVuSans-30"/>
      </g>
     </g>
    </g>
    <g id="ytick_2">
     <g id="line2d_11">
      <g>
       <use xlink:href="#m3601457ea7" x="57.6" y="244.412" style="stroke: #000000; stroke-width: 0.8"/>
      </g>
     </g>
     <g id="text_12">
      <!-- 10 -->
      <g transform="translate(37.875 248.211218) scale(0.1 -0.1)">
       <use xlink:href="#DejaVuSans-31"/>
       <use xlink:href="#DejaVuSans-30" x="63.623047"/>
      </g>
     </g>
    </g>
    <g id="ytick_3">
     <g id="line2d_12">
      <g>
       <use xlink:href="#m3601457ea7" x="57.6" y="193.335999" style="stroke: #000000; stroke-width: 0.8"/>
      </g>
     </g>
     <g id="text_13">
      <!-- 20 -->
      <g transform="translate(37.875 197.135218) scale(0.1 -0.1)">
       <use xlink:href="#DejaVuSans-32"/>
       <use xlink:href="#DejaVuSans-30" x="63.623047"/>
      </g>
     </g>
    </g>
    <g id="ytick_4">
     <g id="line2d_13">
      <g>
       <use xlink:href="#m3601457ea7" x="57.6" y="142.259999" style="stroke: #000000; stroke-width: 0.8"/>
      </g>
     </g>
     <g id="text_14">
      <!-- 30 -->
      <g transform="translate(37.875 146.059217) scale(0.1 -0.1)">
       <use xlink:href="#DejaVuSans-33"/>
       <use xlink:href="#DejaVuSans-30" x="63.623047"/>
      </g>
     </g>
    </g>
    <g id="ytick_5">
     <g id="line2d_14">
      <g>
       <use xlink:href="#m3601457ea7" x="57.6" y="91.183998" style="stroke: #000000; stroke-width: 0.8"/>
      </g>
     </g>
     <g id="text_15">
      <!-- 40 -->
      <g transform="translate(37.875 94.983217) scale(0.1 -0.1)">
       <use xlink:href="#DejaVuSans-34"/>
       <use xlink:href="#DejaVuSans-30" x="63.623047"/>
      </g>
     </g>
    </g>
    <g id="text_16">
     <!-- IPv6 as % of total Google traffic -->
     <g transform="translate(31.795312 253.735813) rotate(-90) scale(0.1 -0.1)">
      <defs>
       <path id="DejaVuSans-49" d="M 628 4666 
L 1259 4666 
L 1259 0 
L 628 0 
L 628 4666 
z
" transform="scale(0.015625)"/>
       <path id="DejaVuSans-50" d="M 1259 4147 
L 1259 2394 
L 2053 2394 
Q 2494 2394 2734 2622 
Q 2975 2850 2975 3272 
Q 2975 3691 2734 3919 
Q 2494 4147 2053 4147 
L 1259 4147 
z
M 628 4666 
L 2053 4666 
Q 2838 4666 3239 4311 
Q 3641 3956 3641 3272 
Q 3641 2581 3239 2228 
Q 2838 1875 2053 1875 
L 1259 1875 
L 1259 0 
L 628 0 
L 628 4666 
z
" transform="scale(0.015625)"/>
       <path id="DejaVuSans-76" d="M 191 3500 
L 800 3500 
L 1894 563 
L 2988 3500 
L 3597 3500 
L 2284 0 
L 1503 0 
L 191 3500 
z
" transform="scale(0.015625)"/>
       <path id="DejaVuSans-25" d="M 4653 2053 
Q 4381 2053 4226 1822 
Q 4072 1591 4072 1178 
Q 4072 772 4226 539 
Q 4381 306 4653 306 
Q 4919 306 5073 539 
Q 5228 772 5228 1178 
Q 5228 1588 5073 1820 
Q 4919 2053 4653 2053 
z
M 4653 2450 
Q 5147 2450 5437 2106 
Q 5728 1763 5728 1178 
Q 5728 594 5436 251 
Q 5144 -91 4653 -91 
Q 4153 -91 3862 251 
Q 3572 594 3572 1178 
Q 3572 1766 3864 2108 
Q 4156 2450 4653 2450 
z
M 1428 4353 
Q 1159 4353 1004 4120 
Q 850 3888 850 3481 
Q 850 3069 1003 2837 
Q 1156 2606 1428 2606 
Q 1700 2606 1854 2837 
Q 2009 3069 2009 3481 
Q 2009 3884 1853 4118 
Q 1697 4353 1428 4353 
z
M 4250 4750 
L 4750 4750 
L 1831 -91 
L 1331 -91 
L 4250 4750 
z
M 1428 4750 
Q 1922 4750 2215 4408 
Q 2509 4066 2509 3481 
Q 2509 2891 2217 2550 
Q 1925 2209 1428 2209 
Q 931 2209 642 2551 
Q 353 2894 353 3481 
Q 353 4063 643 4406 
Q 934 4750 1428 4750 
z
" transform="scale(0.015625)"/>
       <path id="DejaVuSans-66" d="M 2375 4863 
L 2375 4384 
L 1825 4384 
Q 1516 4384 1395 4259 
Q 1275 4134 1275 3809 
L 1275 3500 
L 2222 3500 
L 2222 3053 
L 1275 3053 
L 1275 0 
L 697 0 
L 697 3053 
L 147 3053 
L 147 3500 
L 697 3500 
L 697 3744 
Q 697 4328 969 4595 
Q 1241 4863 1831 4863 
L 2375 4863 
z
" transform="scale(0.015625)"/>
       <path id="DejaVuSans-6c" d="M 603 4863 
L 1178 4863 
L 1178 0 
L 603 0 
L 603 4863 
z
" transform="scale(0.015625)"/>
       <path id="DejaVuSans-47" d="M 3809 666 
L 3809 1919 
L 2778 1919 
L 2778 2438 
L 4434 2438 
L 4434 434 
Q 4069 175 3628 42 
Q 3188 -91 2688 -91 
Q 1594 -91 976 548 
Q 359 1188 359 2328 
Q 359 3472 976 4111 
Q 1594 4750 2688 4750 
Q 3144 4750 3555 4637 
Q 3966 4525 4313 4306 
L 4313 3634 
Q 3963 3931 3569 4081 
Q 3175 4231 2741 4231 
Q 1884 4231 1454 3753 
Q 1025 3275 1025 2328 
Q 1025 1384 1454 906 
Q 1884 428 2741 428 
Q 3075 428 3337 486 
Q 3600 544 3809 666 
z
" transform="scale(0.015625)"/>
       <path id="DejaVuSans-67" d="M 2906 1791 
Q 2906 2416 2648 2759 
Q 2391 3103 1925 3103 
Q 1463 3103 1205 2759 
Q 947 2416 947 1791 
Q 947 1169 1205 825 
Q 1463 481 1925 481 
Q 2391 481 2648 825 
Q 2906 1169 2906 1791 
z
M 3481 434 
Q 3481 -459 3084 -895 
Q 2688 -1331 1869 -1331 
Q 1566 -1331 1297 -1286 
Q 1028 -1241 775 -1147 
L 775 -588 
Q 1028 -725 1275 -790 
Q 1522 -856 1778 -856 
Q 2344 -856 2625 -561 
Q 2906 -266 2906 331 
L 2906 616 
Q 2728 306 2450 153 
Q 2172 0 1784 0 
Q 1141 0 747 490 
Q 353 981 353 1791 
Q 353 2603 747 3093 
Q 1141 3584 1784 3584 
Q 2172 3584 2450 3431 
Q 2728 3278 2906 2969 
L 2906 3500 
L 3481 3500 
L 3481 434 
z
" transform="scale(0.015625)"/>
       <path id="DejaVuSans-69" d="M 603 3500 
L 1178 3500 
L 1178 0 
L 603 0 
L 603 3500 
z
M 603 4863 
L 1178 4863 
L 1178 4134 
L 603 4134 
L 603 4863 
z
" transform="scale(0.015625)"/>
      </defs>
      <use xlink:href="#DejaVuSans-49"/>
      <use xlink:href="#DejaVuSans-50" x="29.492188"/>
      <use xlink:href="#DejaVuSans-76" x="89.794922"/>
      <use xlink:href="#DejaVuSans-36" x="148.974609"/>
      <use xlink:href="#DejaVuSans-20" x="212.597656"/>
      <use xlink:href="#DejaVuSans-61" x="244.384766"/>
      <use xlink:href="#DejaVuSans-73" x="305.664062"/>
      <use xlink:href="#DejaVuSans-20" x="357.763672"/>
      <use xlink:href="#DejaVuSans-25" x="389.550781"/>
      <use xlink:href="#DejaVuSans-20" x="484.570312"/>
      <use xlink:href="#DejaVuSans-6f" x="516.357422"/>
      <use xlink:href="#DejaVuSans-66" x="577.539062"/>
      <use xlink:href="#DejaVuSans-20" x="612.744141"/>
      <use xlink:href="#DejaVuSans-74" x="644.53125"/>
      <use xlink:href="#DejaVuSans-6f" x="683.740234"/>
      <use xlink:href="#DejaVuSans-74" x="744.921875"/>
      <use xlink:href="#DejaVuSans-61" x="784.130859"/>
      <use xlink:href="#DejaVuSans-6c" x="845.410156"/>
      <use xlink:href="#DejaVuSans-20" x="873.193359"/>
      <use xlink:href="#DejaVuSans-47" x="904.980469"/>
      <use xlink:href="#DejaVuSans-6f" x="982.470703"/>
      <use xlink:href="#DejaVuSans-6f" x="1043.652344"/>
      <use xlink:href="#DejaVuSans-67" x="1104.833984"/>
      <use xlink:href="#DejaVuSans-6c" x="1168.310547"/>
      <use xlink:href="#DejaVuSans-65" x="1196.09375"/>
      <use xlink:href="#DejaVuSans-20" x="1257.617188"/>
      <use xlink:href="#DejaVuSans-74" x="1289.404297"/>
      <use xlink:href="#DejaVuSans-72" x="1328.613281"/>
      <use xlink:href="#DejaVuSans-61" x="1369.726562"/>
      <use xlink:href="#DejaVuSans-66" x="1431.005859"/>
      <use xlink:href="#DejaVuSans-66" x="1466.210938"/>
      <use xlink:href="#DejaVuSans-69" x="1501.416016"/>
      <use xlink:href="#DejaVuSans-63" x="1529.199219"/>
     </g>
    </g>
   </g>
   <g id="line2d_15">
    <path d="M 73.832727 294.557431 
L 75.40681 294.399713 
L 75.800331 294.549897 
L 77.374413 294.549238 
L 78.948496 294.412339 
L 79.342017 294.291279 
L 80.522579 294.311362 
L 84.064264 294.23888 
L 85.244826 294.265424 
L 86.818909 294.193315 
L 89.967074 294.255837 
L 90.360595 294.354097 
L 92.721719 294.346216 
L 93.50876 294.283327 
L 95.082843 294.19165 
L 95.869884 294.200022 
L 96.263405 293.951363 
L 98.624529 293.866066 
L 99.805091 293.869636 
L 100.985653 293.96045 
L 102.166215 293.915222 
L 103.346777 293.960715 
L 105.31438 293.929426 
L 106.494942 294.110572 
L 107.675504 294.060508 
L 108.462545 294.140825 
L 109.249587 294.217617 
L 109.643107 294.141008 
L 112.004231 294.350313 
L 113.971835 294.267442 
L 114.758876 294.167072 
L 115.152397 294.08434 
L 115.939438 294.080264 
L 119.087603 294.083006 
L 119.481124 294.106777 
L 119.874645 293.984752 
L 122.235769 294.21109 
L 125.383934 294.048035 
L 125.777455 294.05349 
L 126.170975 293.937343 
L 126.958017 294.034495 
L 127.745058 293.854166 
L 128.138579 293.898995 
L 128.532099 293.788288 
L 128.92562 293.836759 
L 129.712661 293.733744 
L 130.893223 293.71908 
L 131.286744 293.846182 
L 132.860826 293.874892 
L 133.647868 293.88854 
L 134.041388 293.852444 
L 134.82843 293.636643 
L 135.22195 293.516446 
L 137.976595 293.660204 
L 140.73124 293.195459 
L 141.518281 293.336515 
L 144.666446 292.887517 
L 145.059967 292.989786 
L 147.421091 292.500646 
L 148.208132 292.516649 
L 149.388694 292.185681 
L 151.356298 291.72637 
L 152.53686 291.608293 
L 152.93038 291.704744 
L 154.897983 291.341962 
L 156.078545 290.98351 
L 156.472066 291.037743 
L 156.865587 290.715954 
L 157.652628 290.523367 
L 158.046149 290.573406 
L 158.83319 290.373566 
L 159.226711 290.524501 
L 160.013752 290.34221 
L 160.407273 290.296993 
L 160.800793 290.062273 
L 161.587835 289.905654 
L 163.161917 289.88934 
L 163.948959 289.68926 
L 165.129521 289.541834 
L 165.523041 289.349078 
L 165.916562 289.330487 
L 166.310083 289.430157 
L 167.884165 288.709551 
L 168.277686 288.726059 
L 169.851769 288.272933 
L 170.245289 287.969265 
L 170.63881 287.899593 
L 171.032331 287.711669 
L 171.425851 287.742273 
L 172.606413 287.280807 
L 172.999934 287.362406 
L 173.393455 287.135266 
L 173.786975 287.095345 
L 175.754579 286.028239 
L 176.93514 285.461577 
L 177.722182 284.676299 
L 178.509223 283.728221 
L 178.902744 283.952194 
L 179.296264 283.99094 
L 180.476826 282.655007 
L 180.870347 282.494817 
L 181.263868 281.819557 
L 182.44443 281.417553 
L 182.83795 281.15945 
L 183.231471 281.206292 
L 184.412033 280.468903 
L 184.805554 280.312283 
L 185.199074 280.022642 
L 185.986116 279.954011 
L 186.379636 279.297868 
L 186.773157 279.289221 
L 187.166678 278.567839 
L 187.560198 278.194238 
L 188.34724 278.301467 
L 188.74076 278.034381 
L 189.134281 277.622958 
L 189.921322 277.144029 
L 190.314843 276.715879 
L 190.708364 276.978379 
L 192.282446 276.138337 
L 192.675967 275.827729 
L 193.069488 274.551324 
L 193.463008 274.79345 
L 194.25005 273.926711 
L 194.64357 273.889497 
L 195.037091 274.264195 
L 196.217653 273.411604 
L 196.611174 272.833199 
L 197.398215 272.877794 
L 197.791736 272.251944 
L 198.185256 272.208867 
L 198.578777 268.893253 
L 198.972298 271.074755 
L 199.365818 272.374312 
L 199.759339 271.742844 
L 200.15286 271.389965 
L 200.54638 271.333097 
L 200.939901 270.502586 
L 201.333421 270.242354 
L 202.513983 268.439754 
L 202.907504 267.262764 
L 203.301025 266.590971 
L 203.694545 265.678912 
L 204.088066 265.076736 
L 204.481587 266.038436 
L 204.875107 265.891261 
L 205.268628 265.917887 
L 205.662149 266.073245 
L 206.055669 266.363336 
L 206.44919 266.252659 
L 206.842711 264.131764 
L 207.236231 264.445473 
L 208.416793 263.327899 
L 208.810314 263.17748 
L 209.597355 263.243614 
L 209.990876 261.640399 
L 210.384397 261.582009 
L 211.171438 260.31679 
L 211.564959 260.748153 
L 211.958479 258.773396 
L 212.352 259.240159 
L 212.745521 257.907081 
L 213.139041 257.268733 
L 213.532562 256.31023 
L 213.926083 256.975853 
L 214.319603 255.967567 
L 214.713124 254.290159 
L 215.106645 255.135416 
L 215.500165 255.376377 
L 215.893686 254.855698 
L 216.287207 253.321937 
L 216.680727 253.747988 
L 217.074248 252.39383 
L 217.467769 252.705772 
L 218.648331 249.95417 
L 219.828893 249.66369 
L 220.222413 248.595364 
L 220.615934 248.725368 
L 221.009455 248.324605 
L 221.402975 247.265774 
L 221.796496 246.997038 
L 222.190017 245.813116 
L 222.583537 245.001498 
L 222.977058 244.85846 
L 223.370579 245.058234 
L 223.764099 244.541809 
L 224.15762 242.341864 
L 224.944661 243.632278 
L 225.338182 243.384396 
L 226.125223 243.310117 
L 226.518744 243.353822 
L 227.305785 243.088391 
L 227.699306 241.850625 
L 228.092826 241.792031 
L 228.486347 240.69432 
L 228.879868 240.691236 
L 229.273388 240.524483 
L 230.45395 237.384938 
L 230.847471 235.535782 
L 231.240992 236.79857 
L 231.634512 236.269285 
L 232.028033 235.175262 
L 232.421554 235.418783 
L 232.815074 233.083067 
L 233.208595 233.425746 
L 233.602116 233.139347 
L 233.995636 231.509569 
L 234.389157 231.494144 
L 234.782678 230.279321 
L 235.176198 230.571828 
L 235.569719 229.610966 
L 235.96324 229.100528 
L 236.35676 229.371706 
L 236.750281 228.71377 
L 237.143802 227.687352 
L 237.537322 228.01547 
L 237.930843 227.528669 
L 238.324364 225.913406 
L 238.717884 225.237926 
L 239.111405 225.301112 
L 239.504926 223.412214 
L 239.898446 223.748121 
L 240.685488 221.498351 
L 241.079008 219.253356 
L 241.472529 219.475246 
L 242.25957 218.212872 
L 242.653091 216.798414 
L 243.046612 216.987507 
L 243.440132 216.394724 
L 243.833653 214.158249 
L 244.227174 213.373574 
L 244.620694 209.665599 
L 245.014215 212.076391 
L 245.407736 211.639304 
L 245.801256 212.21423 
L 246.194777 211.539103 
L 246.981818 212.635566 
L 247.375339 212.416982 
L 247.76886 211.455828 
L 248.16238 211.744888 
L 248.949421 210.520734 
L 249.342942 209.506385 
L 249.736463 209.345521 
L 250.129983 208.659836 
L 250.523504 206.194117 
L 250.917025 206.967852 
L 251.310545 203.661334 
L 251.704066 203.917286 
L 252.097587 202.119988 
L 252.491107 201.012196 
L 253.671669 198.974749 
L 254.06519 197.307357 
L 254.458711 194.558299 
L 254.852231 195.252498 
L 256.426314 192.121524 
L 256.819835 191.606601 
L 257.213355 191.626092 
L 257.606876 191.909784 
L 258.000397 190.935637 
L 258.393917 189.570365 
L 258.787438 190.793461 
L 259.180959 190.817069 
L 259.574479 191.906709 
L 259.968 190.714227 
L 260.361521 188.860235 
L 260.755041 189.097799 
L 261.148562 188.297398 
L 262.329124 187.024517 
L 263.116165 186.089546 
L 263.509686 185.988267 
L 263.903207 199.545028 
L 264.296727 184.267231 
L 264.690248 183.533937 
L 265.083769 179.82913 
L 265.477289 183.266325 
L 266.264331 182.764084 
L 266.657851 182.761653 
L 267.051372 182.301678 
L 267.444893 182.074997 
L 267.838413 183.334241 
L 268.231934 184.132553 
L 268.625455 183.938485 
L 269.018975 182.856946 
L 269.412496 182.934607 
L 270.593058 182.025152 
L 270.986579 179.595416 
L 271.380099 180.554439 
L 271.77362 177.981149 
L 272.16714 179.066207 
L 272.560661 176.906275 
L 272.954182 175.557628 
L 273.347702 176.352825 
L 273.741223 174.698928 
L 274.134744 173.600764 
L 274.528264 173.367254 
L 274.921785 174.265043 
L 275.315306 174.738625 
L 276.495868 172.313133 
L 276.889388 172.870929 
L 277.282909 173.674778 
L 277.67643 173.830652 
L 278.06995 171.991012 
L 278.463471 171.305796 
L 278.856992 169.972228 
L 279.644033 169.456891 
L 280.037554 169.596446 
L 280.431074 169.42054 
L 281.218116 167.588669 
L 281.611636 168.657414 
L 282.005157 165.271862 
L 282.398678 165.358941 
L 282.792198 164.946094 
L 283.185719 162.47685 
L 283.57924 161.735972 
L 283.97276 161.290661 
L 284.366281 161.293904 
L 284.759802 159.955218 
L 285.153322 159.86396 
L 285.940364 157.74735 
L 286.333884 159.144432 
L 286.727405 160.044299 
L 287.514446 157.901324 
L 287.907967 158.952376 
L 288.301488 158.760198 
L 288.695008 159.217706 
L 289.088529 157.600165 
L 289.48205 157.035785 
L 289.87557 158.258703 
L 290.269091 156.503241 
L 290.662612 156.6437 
L 291.056132 156.142956 
L 291.843174 155.948837 
L 292.236694 152.481246 
L 292.630215 152.380238 
L 293.023736 152.653909 
L 293.417256 153.492638 
L 294.204298 149.446045 
L 294.597818 147.660923 
L 294.991339 147.207828 
L 295.38486 147.363456 
L 295.77838 147.037653 
L 296.171901 145.264417 
L 296.565421 146.726723 
L 296.958942 145.169788 
L 297.352463 146.61458 
L 297.745983 145.578866 
L 298.139504 144.951929 
L 298.533025 144.899647 
L 298.926545 144.97028 
L 299.320066 143.620158 
L 299.713587 143.773559 
L 300.107107 145.234782 
L 300.500628 144.739662 
L 300.894149 145.339039 
L 301.287669 145.584015 
L 301.68119 143.711369 
L 302.074711 144.832906 
L 302.468231 145.13428 
L 302.861752 144.438303 
L 303.255273 144.01306 
L 303.648793 142.335606 
L 304.042314 142.689645 
L 304.435835 142.324554 
L 304.829355 142.445629 
L 305.222876 141.470159 
L 305.616397 141.04345 
L 306.009917 139.808754 
L 306.403438 139.269075 
L 306.796959 140.032038 
L 307.190479 140.258887 
L 307.584 140.309922 
L 308.371041 138.554082 
L 308.764562 138.97501 
L 309.158083 137.694642 
L 309.551603 138.248791 
L 309.945124 138.009316 
L 310.338645 137.123714 
L 310.732165 137.340139 
L 311.125686 137.948505 
L 311.519207 137.671162 
L 311.912727 137.685658 
L 312.306248 135.38521 
L 313.093289 133.747371 
L 313.48681 134.017793 
L 313.880331 133.445211 
L 314.273851 131.539519 
L 314.667372 132.155981 
L 315.060893 129.421326 
L 315.454413 131.609851 
L 315.847934 129.798119 
L 316.241455 127.321505 
L 316.634975 128.045987 
L 317.028496 126.49959 
L 317.422017 125.456112 
L 317.815537 125.555935 
L 318.209058 124.773083 
L 318.602579 126.735627 
L 318.996099 125.100649 
L 319.38962 125.713704 
L 319.78314 126.073391 
L 320.963702 123.564885 
L 321.357223 125.653408 
L 321.750744 125.695255 
L 322.144264 124.77199 
L 322.537785 125.295156 
L 322.931306 126.563583 
L 323.324826 125.577086 
L 323.718347 123.28175 
L 324.111868 127.092275 
L 324.505388 126.065816 
L 324.898909 124.580087 
L 325.29243 125.826428 
L 325.68595 125.91648 
L 326.079471 123.881173 
L 326.472992 122.867575 
L 326.866512 121.009415 
L 327.260033 121.915559 
L 327.653554 121.229052 
L 328.047074 121.440793 
L 328.440595 122.022482 
L 328.834116 120.537115 
L 329.227636 119.928111 
L 329.621157 121.029278 
L 330.014678 120.754822 
L 330.408198 118.371993 
L 330.801719 117.847846 
L 331.19524 116.226153 
L 331.58876 118.889194 
L 331.982281 119.772395 
L 332.375802 118.904149 
L 332.769322 118.738106 
L 333.162843 118.874275 
L 333.556364 114.177346 
L 333.949884 117.317269 
L 334.343405 115.507927 
L 335.130446 116.423214 
L 335.523967 111.974724 
L 335.917488 111.406197 
L 336.311008 109.616745 
L 336.704529 109.545524 
L 337.09805 111.164133 
L 337.49157 108.93202 
L 337.885091 108.493256 
L 338.278612 107.340553 
L 338.672132 106.923686 
L 339.065653 105.61401 
L 339.459174 105.80982 
L 339.852694 108.985098 
L 340.246215 107.272806 
L 340.639736 106.18862 
L 341.033256 108.250594 
L 341.426777 107.110323 
L 341.820298 106.708932 
L 342.213818 105.06265 
L 343.00086 107.682808 
L 343.39438 107.395051 
L 343.787901 107.80585 
L 344.181421 107.675693 
L 344.574942 106.199546 
L 344.968463 107.906311 
L 345.361983 105.855743 
L 345.755504 105.130576 
L 346.149025 105.0546 
L 346.936066 102.50174 
L 347.329587 99.653135 
L 347.723107 101.595872 
L 348.116628 105.224438 
L 348.510149 101.137178 
L 348.903669 100.945174 
L 349.29719 103.68795 
L 350.084231 100.037379 
L 350.477752 99.988581 
L 350.871273 100.759242 
L 351.264793 100.727794 
L 351.658314 101.317952 
L 352.051835 94.380007 
L 352.445355 93.639354 
L 352.838876 93.846176 
L 353.232397 92.42824 
L 353.625917 91.963168 
L 354.019438 89.49706 
L 354.412959 92.630598 
L 354.806479 93.852408 
L 355.2 91.17173 
L 355.593521 92.938147 
L 355.987041 89.93424 
L 356.380562 88.404764 
L 356.774083 84.694271 
L 357.167603 85.6927 
L 357.561124 80.195058 
L 358.348165 84.048752 
L 358.741686 85.808551 
L 359.135207 84.205735 
L 359.528727 84.518396 
L 359.922248 85.190822 
L 360.315769 85.053918 
L 360.709289 87.008045 
L 361.10281 86.097125 
L 361.496331 84.669081 
L 361.889851 84.998465 
L 362.283372 83.534964 
L 362.676893 83.906797 
L 363.070413 82.11693 
L 363.463934 83.380438 
L 363.857455 86.789654 
L 364.250975 84.495438 
L 364.644496 81.0173 
L 365.038017 83.899759 
L 365.431537 82.225314 
L 365.825058 83.964452 
L 366.218579 82.394018 
L 366.612099 82.371687 
L 367.792661 76.325683 
L 368.186182 79.03455 
L 368.579702 78.827416 
L 368.973223 77.471481 
L 369.366744 77.87112 
L 369.760264 80.18184 
L 370.547306 78.185493 
L 370.940826 79.648637 
L 371.334347 78.82547 
L 371.727868 77.230423 
L 372.121388 77.261442 
L 372.90843 74.614785 
L 373.30195 75.769491 
L 373.695471 75.750762 
L 374.088992 73.237199 
L 374.482512 74.532037 
L 375.269554 74.314867 
L 375.663074 72.918797 
L 376.056595 74.513027 
L 376.450116 74.559945 
L 376.843636 71.75407 
L 377.237157 71.719706 
L 377.630678 70.391995 
L 378.024198 66.890776 
L 378.417719 68.395511 
L 379.20476 67.569801 
L 379.598281 67.421441 
L 379.991802 67.796052 
L 380.385322 66.498068 
L 380.778843 68.020955 
L 381.565884 64.217811 
L 381.959405 65.734778 
L 382.352926 67.793136 
L 382.746446 68.597557 
L 383.139967 64.796727 
L 383.533488 67.058908 
L 383.927008 65.885698 
L 384.320529 69.983224 
L 384.71405 67.291856 
L 385.10757 66.289775 
L 385.501091 68.567688 
L 385.894612 68.776778 
L 386.288132 69.988709 
L 386.681653 67.809577 
L 387.075174 70.13186 
L 387.468694 67.310641 
L 387.862215 66.966308 
L 388.255736 64.297541 
L 388.649256 67.650956 
L 389.042777 67.636108 
L 389.436298 66.832064 
L 389.829818 66.917877 
L 390.223339 65.46287 
L 390.61686 66.590255 
L 391.01038 63.850309 
L 391.403901 64.5306 
L 391.797421 64.531979 
L 392.190942 74.022462 
L 392.977983 74.022462 
L 393.371504 62.219585 
L 393.765025 62.165766 
L 394.158545 63.744561 
L 394.552066 63.310257 
L 394.945587 61.66705 
L 395.339107 62.074131 
L 395.732628 61.345378 
L 396.126149 58.907306 
L 396.519669 59.816658 
L 396.91319 54.878105 
L 397.306711 55.892556 
L 397.700231 54.461713 
L 398.093752 54.84586 
L 398.487273 53.568 
L 398.487273 53.568 
" clip-path="url(#pa2e5a6658a)" style="fill: none; stroke: #1f77b4; stroke-width: 1.5; stroke-linecap: square"/>
   </g>
   <g id="line2d_16">
    <path d="M 73.832727 294.801513 
L 75.40681 294.671749 
L 75.800331 294.780352 
L 84.457785 294.542261 
L 85.244826 294.534013 
L 87.21243 294.472083 
L 89.573554 294.511013 
L 96.263405 294.455529 
L 96.656926 294.272682 
L 112.004231 294.455938 
L 113.971835 294.457016 
L 115.152397 294.296484 
L 116.726479 294.272355 
L 118.694083 294.216851 
L 123.416331 294.385274 
L 128.92562 293.963739 
L 129.712661 293.910405 
L 130.499702 293.851428 
L 131.286744 293.943186 
L 132.467306 294.007976 
L 134.434909 293.889796 
L 135.22195 293.721787 
L 136.402512 293.829935 
L 141.518281 293.487971 
L 141.911802 293.589704 
L 147.421091 292.953384 
L 148.995174 292.705768 
L 149.782215 292.712734 
L 150.962777 292.326053 
L 152.53686 292.054763 
L 152.93038 292.172044 
L 154.504463 292.051111 
L 160.013752 291.05566 
L 160.407273 291.099376 
L 161.194314 290.849589 
L 161.981355 290.750262 
L 162.374876 290.521932 
L 163.555438 290.781811 
L 164.342479 290.602473 
L 164.736 290.549758 
L 165.129521 290.327889 
L 165.523041 290.344504 
L 165.916562 290.180151 
L 167.097124 290.096172 
L 167.490645 289.861815 
L 168.671207 289.624838 
L 169.064727 289.627397 
L 169.458248 289.477274 
L 169.851769 289.462018 
L 172.606413 288.535806 
L 172.999934 288.670263 
L 174.180496 288.197192 
L 174.967537 287.80288 
L 175.361058 287.504091 
L 176.148099 287.296528 
L 176.54162 287.391897 
L 177.328661 287.246075 
L 178.509223 286.130259 
L 178.902744 285.862222 
L 179.296264 285.935909 
L 179.689785 285.792105 
L 180.870347 284.95428 
L 181.263868 284.812513 
L 182.050909 284.135674 
L 182.44443 284.042936 
L 182.83795 282.765561 
L 183.231471 282.884823 
L 183.624992 283.735775 
L 184.018512 283.643368 
L 184.805554 282.990408 
L 185.199074 283.580458 
L 185.592595 282.816453 
L 185.986116 282.769463 
L 186.379636 282.53199 
L 186.773157 281.976559 
L 187.166678 282.004784 
L 187.953719 281.154072 
L 188.34724 281.179728 
L 188.74076 280.989653 
L 189.134281 280.299606 
L 189.527802 280.53261 
L 189.921322 280.010317 
L 190.314843 280.166988 
L 190.708364 279.97844 
L 191.101884 280.055386 
L 191.495405 279.466894 
L 191.888926 279.489577 
L 192.282446 278.889194 
L 192.675967 278.993501 
L 193.463008 277.726311 
L 193.856529 277.475543 
L 194.25005 277.395793 
L 194.64357 277.104951 
L 195.037091 277.076123 
L 195.430612 277.187454 
L 195.824132 277.166339 
L 197.004694 276.75056 
L 197.398215 276.885932 
L 198.185256 276.536107 
L 198.578777 275.932991 
L 198.972298 274.579248 
L 199.365818 275.58975 
L 199.759339 275.922414 
L 200.15286 275.573181 
L 200.54638 275.775759 
L 200.939901 275.270372 
L 201.726942 274.616901 
L 202.120463 273.969073 
L 202.513983 273.562789 
L 202.907504 272.711659 
L 203.301025 270.192652 
L 203.694545 268.579186 
L 204.088066 270.969385 
L 204.481587 271.599698 
L 204.875107 271.617034 
L 205.268628 271.868961 
L 205.662149 271.850819 
L 206.055669 272.187982 
L 206.44919 271.492189 
L 206.842711 271.614536 
L 207.236231 270.315014 
L 207.629752 269.917904 
L 208.023273 270.143675 
L 208.810314 268.84779 
L 209.203835 269.198539 
L 209.597355 269.164722 
L 209.990876 268.747104 
L 210.384397 268.140964 
L 210.777917 267.825591 
L 211.171438 267.870292 
L 211.958479 265.991416 
L 212.352 265.438784 
L 212.745521 265.141802 
L 213.139041 264.059313 
L 213.532562 263.684389 
L 214.713124 261.50161 
L 215.106645 261.872192 
L 215.893686 261.507714 
L 216.680727 260.807922 
L 217.074248 261.112146 
L 217.861289 260.726364 
L 218.648331 259.761099 
L 219.828893 259.267699 
L 220.222413 259.270933 
L 220.615934 258.258913 
L 221.009455 258.156975 
L 221.402975 258.184709 
L 221.796496 257.666406 
L 222.977058 255.100174 
L 223.370579 254.616116 
L 223.764099 252.280222 
L 224.15762 248.984594 
L 224.55114 253.874442 
L 224.944661 254.939969 
L 225.338182 254.642461 
L 225.731702 254.117834 
L 226.125223 254.189228 
L 226.518744 254.45942 
L 227.305785 253.355601 
L 228.092826 252.851941 
L 228.486347 252.444574 
L 228.879868 251.281349 
L 229.273388 251.011509 
L 229.666909 250.945565 
L 230.45395 249.916261 
L 230.847471 248.692751 
L 231.240992 247.930232 
L 231.634512 248.410791 
L 232.421554 246.907895 
L 232.815074 245.525329 
L 233.208595 245.123192 
L 233.602116 244.926519 
L 234.389157 242.709381 
L 234.782678 240.982701 
L 235.176198 241.738855 
L 235.569719 241.596323 
L 235.96324 240.727494 
L 236.35676 240.141096 
L 236.750281 239.990963 
L 237.143802 240.097125 
L 237.537322 241.295373 
L 237.930843 240.680985 
L 238.324364 240.955937 
L 238.717884 240.303666 
L 239.111405 240.374569 
L 239.504926 239.640934 
L 240.291967 237.589017 
L 240.685488 237.795119 
L 241.472529 234.892955 
L 241.86605 235.580637 
L 242.25957 235.046188 
L 242.653091 233.781373 
L 243.046612 233.687464 
L 243.440132 232.838581 
L 243.833653 232.355254 
L 244.227174 228.983957 
L 244.620694 221.205072 
L 245.014215 226.804968 
L 245.407736 229.790866 
L 245.801256 230.106286 
L 246.588298 229.777581 
L 246.981818 229.868823 
L 247.375339 229.827028 
L 247.76886 228.897634 
L 248.16238 228.665677 
L 248.555901 228.955186 
L 249.342942 227.86786 
L 250.129983 225.915577 
L 250.523504 223.77726 
L 250.917025 224.496604 
L 251.310545 224.390075 
L 251.704066 220.511996 
L 252.097587 221.362529 
L 252.884628 218.775029 
L 253.278149 216.285406 
L 253.671669 216.195681 
L 254.06519 215.854734 
L 254.852231 211.51808 
L 255.245752 211.230364 
L 255.639273 210.590044 
L 256.032793 210.277336 
L 256.819835 207.802403 
L 257.213355 207.590248 
L 257.606876 207.51696 
L 258.000397 208.602044 
L 258.393917 208.727016 
L 259.180959 210.289722 
L 259.968 210.801473 
L 260.361521 208.606513 
L 260.755041 208.052926 
L 261.148562 208.531651 
L 261.542083 207.554429 
L 261.935603 205.75636 
L 262.329124 207.321379 
L 262.722645 207.941769 
L 263.116165 206.090131 
L 263.509686 205.862378 
L 263.903207 204.819605 
L 264.296727 199.545028 
L 264.690248 201.657097 
L 265.083769 192.934057 
L 265.87081 203.291754 
L 266.264331 201.947765 
L 266.657851 203.359823 
L 267.051372 202.835655 
L 267.444893 202.748581 
L 267.838413 201.381036 
L 268.231934 203.689559 
L 268.625455 204.328857 
L 269.018975 203.730313 
L 269.412496 202.419238 
L 269.806017 201.972271 
L 270.199537 200.948867 
L 270.593058 200.87759 
L 270.986579 202.689103 
L 271.380099 201.65369 
L 271.77362 200.181297 
L 272.16714 198.111968 
L 272.560661 197.915218 
L 272.954182 197.059486 
L 273.347702 197.164018 
L 273.741223 194.961146 
L 274.134744 194.91033 
L 274.528264 193.394226 
L 274.921785 193.152871 
L 275.315306 192.69022 
L 275.708826 191.241648 
L 276.495868 191.25362 
L 277.282909 190.667493 
L 277.67643 191.538737 
L 278.06995 190.061736 
L 278.463471 189.275421 
L 278.856992 192.090955 
L 279.250512 192.230898 
L 279.644033 192.097682 
L 280.037554 192.182708 
L 280.431074 192.111733 
L 280.824595 190.701974 
L 281.218116 191.038156 
L 281.611636 191.6075 
L 282.005157 190.979123 
L 282.398678 188.094774 
L 282.792198 188.885277 
L 283.185719 188.491078 
L 283.57924 185.424883 
L 283.97276 186.925052 
L 285.153322 182.924616 
L 285.546843 170.417396 
L 285.940364 175.214827 
L 286.333884 182.430211 
L 286.727405 183.754479 
L 287.514446 182.475203 
L 287.907967 181.220608 
L 288.301488 182.158573 
L 288.695008 181.892421 
L 289.088529 182.879531 
L 289.48205 180.651091 
L 289.87557 182.619391 
L 290.662612 180.575529 
L 291.056132 180.546824 
L 291.449653 181.157453 
L 291.843174 178.60303 
L 292.236694 178.171106 
L 292.630215 176.032416 
L 293.023736 177.996518 
L 293.417256 179.245688 
L 293.810777 176.84673 
L 294.597818 170.156566 
L 294.991339 171.618698 
L 295.38486 170.414224 
L 295.77838 169.756416 
L 296.171901 168.194078 
L 296.565421 168.843698 
L 296.958942 169.025304 
L 297.352463 168.862065 
L 297.745983 168.342602 
L 298.139504 167.514124 
L 298.533025 165.201806 
L 298.926545 168.123389 
L 299.320066 168.950503 
L 299.713587 169.106106 
L 300.107107 170.420746 
L 300.500628 171.150316 
L 301.287669 170.879445 
L 301.68119 171.386323 
L 302.074711 171.093887 
L 302.468231 171.75693 
L 303.255273 169.081672 
L 303.648793 170.765494 
L 304.042314 170.193458 
L 304.435835 168.769689 
L 304.829355 168.926973 
L 305.222876 168.241267 
L 305.616397 166.106265 
L 306.009917 154.302969 
L 306.403438 153.988734 
L 306.796959 165.542003 
L 307.190479 167.161949 
L 307.584 167.493606 
L 307.977521 166.378622 
L 308.371041 164.872723 
L 309.158083 163.185305 
L 309.551603 163.137518 
L 309.945124 163.697362 
L 310.338645 163.296308 
L 310.732165 154.287416 
L 311.125686 150.355529 
L 311.519207 148.824409 
L 311.912727 149.965988 
L 313.093289 145.965721 
L 313.48681 146.246501 
L 313.880331 148.365118 
L 314.273851 146.423684 
L 314.667372 145.682734 
L 315.060893 147.416198 
L 315.454413 148.36923 
L 316.241455 145.372412 
L 316.634975 142.519291 
L 317.028496 142.303475 
L 317.422017 140.754983 
L 317.815537 142.092495 
L 318.209058 141.908616 
L 318.602579 142.965568 
L 318.996099 141.952792 
L 319.38962 141.961235 
L 319.78314 142.853619 
L 320.176661 144.431663 
L 320.570182 143.677608 
L 320.963702 145.488262 
L 321.750744 145.616055 
L 322.144264 146.314892 
L 322.537785 145.041526 
L 322.931306 145.221257 
L 323.324826 144.214294 
L 323.718347 142.391744 
L 324.111868 144.470195 
L 324.505388 144.888472 
L 324.898909 144.685154 
L 325.29243 147.020931 
L 325.68595 145.064352 
L 326.472992 137.154248 
L 326.866512 130.862379 
L 327.653554 140.27565 
L 328.047074 139.578963 
L 328.440595 140.448006 
L 328.834116 139.37139 
L 329.621157 138.449545 
L 330.014678 138.586342 
L 330.408198 140.153492 
L 330.801719 139.765738 
L 331.19524 139.569877 
L 331.58876 137.728347 
L 331.982281 140.745646 
L 332.769322 137.904447 
L 333.162843 140.046605 
L 333.556364 138.802256 
L 333.949884 135.564262 
L 334.343405 135.882389 
L 334.736926 133.95665 
L 335.130446 132.828238 
L 335.523967 134.599901 
L 335.917488 134.958097 
L 336.704529 127.873314 
L 337.09805 127.752698 
L 337.49157 127.402205 
L 337.885091 126.684638 
L 338.278612 124.079547 
L 338.672132 125.453926 
L 339.065653 124.153684 
L 339.459174 124.253282 
L 339.852694 125.431396 
L 340.246215 128.3136 
L 340.639736 128.981909 
L 341.033256 129.029895 
L 341.426777 130.475739 
L 341.820298 128.375626 
L 342.607339 129.498098 
L 343.00086 129.759888 
L 343.39438 129.545323 
L 343.787901 129.121714 
L 344.181421 131.399275 
L 344.574942 130.351353 
L 344.968463 130.852465 
L 345.361983 129.363375 
L 345.755504 130.39534 
L 346.542545 127.855509 
L 346.936066 122.793111 
L 347.329587 110.939123 
L 348.116628 122.788596 
L 348.510149 123.113971 
L 348.903669 124.775121 
L 349.29719 123.203022 
L 349.690711 125.852589 
L 350.084231 124.916509 
L 350.477752 121.625029 
L 350.871273 123.42746 
L 351.264793 123.421285 
L 351.658314 125.630511 
L 352.051835 121.882774 
L 352.445355 115.539901 
L 352.838876 115.690003 
L 353.232397 125.679192 
L 353.625917 114.46521 
L 354.412959 111.141869 
L 354.806479 114.683371 
L 355.2 114.512461 
L 355.593521 113.223012 
L 355.987041 110.257294 
L 356.380562 110.872923 
L 357.167603 103.571047 
L 357.561124 104.308477 
L 357.954645 104.093922 
L 358.348165 101.744487 
L 358.741686 101.657025 
L 359.135207 102.52996 
L 359.528727 101.326665 
L 359.922248 102.132793 
L 360.315769 102.230567 
L 360.709289 105.432389 
L 361.10281 106.230779 
L 361.889851 109.11311 
L 362.283372 107.133348 
L 362.676893 108.224285 
L 363.070413 108.350611 
L 363.463934 105.614567 
L 363.857455 108.687289 
L 364.250975 109.540692 
L 364.644496 106.569055 
L 365.038017 105.765241 
L 365.431537 107.963736 
L 365.825058 104.583552 
L 366.218579 107.874746 
L 366.612099 108.165185 
L 367.00562 103.972244 
L 367.792661 90.338685 
L 368.186182 97.31607 
L 368.579702 102.070092 
L 368.973223 101.998453 
L 369.366744 102.559946 
L 369.760264 101.463733 
L 370.153785 101.591964 
L 370.547306 102.285827 
L 371.334347 100.059449 
L 371.727868 102.974566 
L 372.514909 95.989739 
L 372.90843 99.560375 
L 373.30195 95.43889 
L 373.695471 98.01313 
L 374.088992 98.645369 
L 374.482512 97.40337 
L 374.876033 94.347089 
L 375.269554 98.97627 
L 375.663074 98.823017 
L 376.056595 95.525142 
L 376.450116 96.084168 
L 376.843636 95.526991 
L 377.237157 91.058898 
L 378.024198 86.656295 
L 378.417719 87.000904 
L 378.81124 86.832527 
L 379.20476 85.743587 
L 379.598281 87.086508 
L 379.991802 85.658995 
L 380.385322 86.621318 
L 380.778843 85.280588 
L 381.565884 90.491939 
L 381.959405 91.984926 
L 382.352926 90.960709 
L 382.746446 92.559107 
L 383.139967 92.114424 
L 383.533488 91.463741 
L 383.927008 91.172624 
L 384.320529 93.276715 
L 384.71405 93.938226 
L 385.10757 91.27593 
L 385.501091 92.186845 
L 385.894612 94.588428 
L 386.288132 92.115773 
L 386.681653 93.762207 
L 387.075174 94.284301 
L 387.468694 92.828467 
L 387.862215 88.087204 
L 388.255736 76.341277 
L 388.649256 81.862143 
L 389.042777 89.078789 
L 389.436298 89.079703 
L 389.829818 91.564346 
L 390.223339 90.569089 
L 391.01038 87.373407 
L 391.403901 86.666096 
L 391.797421 89.060396 
L 392.190942 74.022462 
L 392.977983 74.022462 
L 393.371504 85.344694 
L 393.765025 84.095543 
L 394.158545 84.554512 
L 394.552066 89.170756 
L 394.945587 88.470759 
L 395.339107 84.868369 
L 395.732628 85.830983 
L 396.126149 84.545278 
L 396.519669 85.436743 
L 396.91319 82.52799 
L 397.306711 77.249112 
L 397.700231 78.011513 
L 398.093752 73.858125 
L 398.487273 74.70877 
L 398.487273 74.70877 
" clip-path="url(#pa2e5a6658a)" style="fill: none; stroke: #ff7f0e; stroke-width: 1.5; stroke-linecap: square"/>
   </g>
   <g id="line2d_17">
    <path d="M 73.832727 295.243918 
L 79.735537 295.215433 
L 80.129058 295.279722 
L 80.916099 295.173949 
L 81.30962 295.254996 
L 81.70314 295.160317 
L 82.096661 295.254445 
L 83.277223 295.15856 
L 94.295802 295.219228 
L 94.689322 295.179593 
L 95.082843 295.270804 
L 96.263405 294.983834 
L 96.656926 295.167233 
L 125.777455 295.297767 
L 126.170975 295.219718 
L 126.958017 295.363793 
L 129.712661 295.311338 
L 130.499702 295.330012 
L 130.893223 295.281847 
L 131.680264 295.390046 
L 132.860826 295.359416 
L 133.254347 295.417004 
L 134.434909 295.282945 
L 134.82843 295.372854 
L 135.615471 295.240143 
L 136.008992 295.217716 
L 136.402512 295.342449 
L 136.796033 295.34371 
L 137.189554 295.229724 
L 138.370116 295.382932 
L 138.763636 295.245522 
L 139.944198 295.226123 
L 140.337719 295.089592 
L 141.518281 295.336544 
L 142.305322 295.08855 
L 142.698843 295.170895 
L 143.092364 295.059059 
L 145.059967 295.257754 
L 145.847008 295.179904 
L 146.240529 294.87137 
L 146.63405 295.071613 
L 147.02757 294.978129 
L 148.208132 295.157375 
L 148.601653 295.020333 
L 148.995174 295.065632 
L 149.782215 294.847742 
L 150.175736 294.89891 
L 150.962777 294.81964 
L 151.356298 294.956804 
L 152.143339 294.806861 
L 152.53686 295.041529 
L 156.472066 294.792227 
L 156.865587 294.586166 
L 157.259107 294.533849 
L 158.046149 294.707349 
L 158.83319 294.66514 
L 159.226711 294.916219 
L 160.800793 294.608476 
L 161.981355 294.643024 
L 162.374876 294.904288 
L 163.555438 294.466322 
L 164.342479 294.544749 
L 164.736 294.487339 
L 165.129521 294.701945 
L 165.523041 294.492575 
L 166.310083 294.757961 
L 167.490645 294.391424 
L 168.671207 294.486578 
L 169.064727 294.282489 
L 169.458248 294.414163 
L 170.245289 294.123643 
L 170.63881 294.268285 
L 171.032331 294.165693 
L 171.425851 294.233762 
L 172.212893 294.187304 
L 172.999934 294.180143 
L 173.393455 294.076234 
L 173.786975 294.190241 
L 174.967537 294.026149 
L 175.361058 294.217219 
L 176.148099 294.070151 
L 176.54162 293.799473 
L 176.93514 293.676007 
L 177.328661 293.376329 
L 178.115702 293.3339 
L 178.509223 293.085962 
L 178.902744 293.577972 
L 179.296264 293.543031 
L 179.689785 293.260765 
L 180.083306 293.209479 
L 180.476826 292.825638 
L 180.870347 293.028537 
L 181.263868 292.495043 
L 182.050909 292.96124 
L 182.44443 292.862617 
L 182.83795 293.88189 
L 183.231471 293.809469 
L 183.624992 292.676542 
L 184.018512 292.552121 
L 184.412033 292.596409 
L 184.805554 292.809876 
L 185.199074 291.930184 
L 185.592595 292.668058 
L 185.986116 292.672548 
L 186.379636 292.253878 
L 186.773157 292.800662 
L 187.166678 292.051055 
L 187.560198 292.163274 
L 187.953719 292.58103 
L 188.74076 292.532727 
L 189.134281 292.811352 
L 189.527802 292.345968 
L 189.921322 292.621712 
L 190.314843 292.036892 
L 190.708364 292.487939 
L 191.101884 292.222032 
L 191.495405 292.599376 
L 191.888926 292.412014 
L 192.282446 292.737144 
L 193.069488 291.780883 
L 193.463008 292.555139 
L 193.856529 292.429462 
L 194.25005 292.018918 
L 194.64357 292.272546 
L 195.037091 292.676072 
L 195.430612 292.260068 
L 196.217653 291.902781 
L 196.611174 291.390882 
L 197.004694 291.638499 
L 197.398215 291.479862 
L 197.791736 291.039944 
L 198.185256 291.16076 
L 198.578777 288.448261 
L 198.972298 291.983507 
L 199.365818 292.272561 
L 199.759339 291.30843 
L 200.15286 291.304784 
L 200.939901 290.720214 
L 201.333421 290.762448 
L 201.726942 290.48933 
L 202.120463 290.612668 
L 202.907504 290.039105 
L 203.301025 291.88632 
L 203.694545 292.587726 
L 204.088066 289.595352 
L 204.481587 289.926738 
L 205.268628 289.536926 
L 205.662149 289.710426 
L 206.055669 289.663354 
L 206.44919 290.248471 
L 206.842711 288.005228 
L 207.236231 289.618458 
L 207.629752 289.610925 
L 208.023273 288.955359 
L 208.416793 289.295811 
L 208.810314 289.817691 
L 209.203835 289.488736 
L 209.597355 289.566892 
L 209.990876 288.381296 
L 210.384397 288.929045 
L 210.777917 288.539085 
L 211.171438 287.934498 
L 211.564959 289.33159 
L 211.958479 288.26998 
L 212.352 289.289376 
L 212.745521 288.253279 
L 213.139041 288.69742 
L 213.532562 288.113841 
L 213.926083 289.53286 
L 214.319603 289.225556 
L 214.713124 288.276549 
L 215.500165 289.135392 
L 215.893686 288.835984 
L 216.287207 287.709028 
L 216.680727 288.428066 
L 217.074248 286.769684 
L 217.467769 287.289423 
L 217.861289 286.448411 
L 218.648331 285.681071 
L 219.435372 285.826464 
L 219.828893 285.883991 
L 220.222413 284.812431 
L 220.615934 285.954455 
L 221.009455 285.65563 
L 221.402975 284.569065 
L 221.796496 284.818632 
L 222.190017 284.57407 
L 222.583537 284.682091 
L 223.370579 285.930117 
L 223.764099 287.749588 
L 224.15762 288.84527 
L 224.55114 284.584464 
L 224.944661 284.18031 
L 225.338182 284.229935 
L 225.731702 284.68752 
L 226.125223 284.608889 
L 226.518744 284.382402 
L 227.305785 285.220789 
L 227.699306 284.178594 
L 228.092826 284.42809 
L 228.486347 283.737746 
L 228.879868 284.897887 
L 229.273388 285.000973 
L 229.666909 283.957399 
L 230.45395 282.956677 
L 230.847471 282.331032 
L 231.240992 284.356338 
L 231.634512 283.346494 
L 232.028033 283.028076 
L 232.421554 283.998888 
L 232.815074 283.045738 
L 233.208595 283.790554 
L 233.602116 283.700829 
L 233.995636 283.252831 
L 234.389157 284.272762 
L 234.782678 284.784621 
L 235.176198 284.320973 
L 235.569719 283.502644 
L 235.96324 283.861034 
L 236.35676 284.71861 
L 236.750281 284.210807 
L 237.537322 282.208097 
L 237.930843 282.335685 
L 238.324364 280.445469 
L 239.111405 280.414543 
L 239.504926 279.25928 
L 239.898446 280.574875 
L 240.291967 280.380679 
L 240.685488 279.191232 
L 241.079008 278.561265 
L 241.472529 280.07029 
L 241.86605 278.741318 
L 242.653091 278.505041 
L 243.440132 279.044143 
L 243.833653 277.290995 
L 244.227174 279.877616 
L 244.620694 283.948527 
L 245.407736 277.336437 
L 245.801256 277.595944 
L 246.194777 277.055841 
L 246.588298 277.789747 
L 246.981818 278.254743 
L 247.375339 278.077954 
L 247.76886 278.046195 
L 248.16238 278.567211 
L 248.555901 277.710002 
L 248.949421 277.615113 
L 249.342942 277.126525 
L 249.736463 278.086376 
L 250.129983 278.232259 
L 250.523504 277.904857 
L 250.917025 277.959248 
L 251.310545 274.75926 
L 251.704066 278.89329 
L 252.097587 276.245459 
L 252.491107 276.292924 
L 252.884628 277.05817 
L 253.278149 279.087726 
L 253.671669 278.267068 
L 254.06519 276.940624 
L 254.458711 276.445544 
L 254.852231 279.222419 
L 255.245752 278.706633 
L 255.639273 278.715454 
L 256.032793 277.849256 
L 256.426314 278.745731 
L 256.819835 279.292199 
L 257.606876 279.880824 
L 258.393917 276.331348 
L 258.787438 276.633872 
L 259.180959 276.015346 
L 259.574479 276.898221 
L 259.968 275.400754 
L 260.361521 275.741722 
L 260.755041 276.532874 
L 261.148562 275.253747 
L 261.542083 275.764109 
L 261.935603 277.096625 
L 262.329124 275.191138 
L 262.722645 274.162452 
L 263.116165 275.487415 
L 263.509686 275.613889 
L 263.903207 290.213422 
L 264.296727 280.210203 
L 264.690248 277.364841 
L 265.083769 282.383073 
L 265.477289 281.091739 
L 265.87081 275.180407 
L 266.264331 276.304319 
L 266.657851 274.88983 
L 267.051372 274.954023 
L 267.444893 274.814417 
L 267.838413 277.441204 
L 268.231934 275.930994 
L 268.625455 275.097628 
L 269.018975 274.614633 
L 269.412496 276.003369 
L 269.806017 276.15936 
L 270.199537 276.859914 
L 270.593058 276.635562 
L 270.986579 272.394313 
L 271.380099 274.388749 
L 271.77362 273.287852 
L 272.16714 276.44224 
L 272.560661 274.479057 
L 272.954182 273.986143 
L 273.741223 275.225783 
L 274.134744 274.178434 
L 274.921785 276.600172 
L 275.315306 277.536405 
L 275.708826 278.176464 
L 276.495868 276.547512 
L 277.282909 278.495285 
L 277.67643 277.779915 
L 278.06995 277.417275 
L 278.463471 277.518375 
L 278.856992 273.369272 
L 279.250512 272.900757 
L 280.431074 272.796807 
L 280.824595 273.298374 
L 281.218116 272.038513 
L 281.611636 272.537913 
L 282.005157 269.780739 
L 282.398678 272.752167 
L 282.792198 271.548816 
L 283.185719 269.473772 
L 283.57924 271.799089 
L 283.97276 269.853609 
L 284.366281 271.135591 
L 284.759802 271.176513 
L 285.153322 272.427344 
L 285.546843 283.717454 
L 286.333884 272.202222 
L 286.727405 271.777821 
L 287.120926 271.52357 
L 287.514446 270.914121 
L 287.907967 273.219768 
L 288.301488 272.089625 
L 288.695008 272.813285 
L 289.088529 270.208633 
L 289.48205 271.872695 
L 290.269091 270.521499 
L 290.662612 271.556171 
L 291.056132 271.084132 
L 291.449653 270.426999 
L 291.843174 272.833807 
L 292.236694 269.798141 
L 292.630215 271.835823 
L 293.023736 270.145391 
L 293.417256 269.734949 
L 293.810777 269.830298 
L 294.597818 272.992357 
L 294.991339 271.07713 
L 295.38486 272.437232 
L 295.77838 272.769237 
L 296.171901 272.558339 
L 296.565421 273.371024 
L 296.958942 271.632484 
L 297.352463 273.240515 
L 297.745983 272.724264 
L 298.139504 272.925805 
L 298.533025 275.185841 
L 299.320066 270.157654 
L 299.713587 270.155453 
L 300.107107 270.302036 
L 300.500628 269.077346 
L 300.894149 269.79858 
L 301.287669 270.19257 
L 301.68119 267.813046 
L 302.074711 269.227019 
L 302.468231 268.86535 
L 303.255273 270.419388 
L 303.648793 267.058112 
L 304.435835 269.042864 
L 304.829355 269.006657 
L 305.222876 268.716892 
L 305.616397 270.425185 
L 306.009917 280.993785 
L 306.403438 280.768341 
L 306.796959 269.978035 
L 307.190479 268.584937 
L 307.584 268.304316 
L 307.977521 268.620006 
L 308.371041 269.169359 
L 308.764562 270.548478 
L 309.158083 269.997337 
L 309.551603 270.599273 
L 309.945124 269.799954 
L 310.338645 269.315406 
L 310.732165 278.540723 
L 311.125686 283.080976 
L 311.519207 284.334753 
L 312.306248 282.146489 
L 313.093289 283.26965 
L 313.48681 283.259292 
L 313.880331 280.568092 
L 314.273851 280.603835 
L 314.667372 281.961247 
L 315.060893 277.493128 
L 315.454413 278.728621 
L 315.847934 278.327465 
L 316.241455 277.437093 
L 316.634975 281.014696 
L 317.028496 279.684115 
L 317.422017 280.189129 
L 317.815537 278.95144 
L 318.209058 278.352467 
L 318.602579 279.258059 
L 318.996099 278.635857 
L 319.38962 279.240469 
L 319.78314 278.707772 
L 320.176661 276.348188 
L 320.570182 276.434844 
L 320.963702 273.564623 
L 321.357223 275.552429 
L 321.750744 275.5672 
L 322.144264 273.945098 
L 322.537785 275.74163 
L 322.931306 276.830325 
L 323.324826 276.850791 
L 323.718347 276.378006 
L 324.111868 278.11008 
L 324.898909 275.382934 
L 325.29243 274.293498 
L 326.079471 277.809319 
L 326.472992 281.201328 
L 326.866512 285.635036 
L 327.653554 276.441402 
L 328.047074 277.349829 
L 329.227636 276.572877 
L 329.621157 278.067733 
L 330.014678 277.65648 
L 330.408198 273.706502 
L 330.801719 273.570108 
L 331.19524 272.144276 
L 331.58876 276.648847 
L 331.982281 274.514749 
L 332.375802 275.247153 
L 332.769322 276.321659 
L 333.162843 274.31567 
L 333.556364 270.863091 
L 333.949884 277.241007 
L 334.343405 275.113538 
L 334.736926 277.476518 
L 335.130446 279.082976 
L 335.523967 272.862823 
L 335.917488 271.9361 
L 336.311008 273.636267 
L 336.704529 277.16021 
L 337.09805 278.899434 
L 337.49157 277.017815 
L 337.885091 277.296618 
L 338.278612 278.749005 
L 338.672132 276.95776 
L 339.459174 277.044538 
L 339.852694 279.041702 
L 340.246215 274.447206 
L 340.639736 272.694712 
L 341.033256 274.7087 
L 341.426777 272.122584 
L 341.820298 273.821305 
L 342.213818 271.633654 
L 343.00086 273.41092 
L 343.39438 273.337728 
L 343.787901 274.172136 
L 344.181421 271.764419 
L 344.574942 271.336192 
L 344.968463 272.541846 
L 345.361983 271.980368 
L 345.755504 270.223236 
L 346.149025 271.504661 
L 346.542545 271.487852 
L 346.936066 275.196629 
L 347.329587 284.202012 
L 347.723107 279.309733 
L 348.116628 277.923842 
L 348.510149 273.511208 
L 348.903669 271.658053 
L 349.29719 275.972928 
L 349.690711 271.492291 
L 350.084231 270.60887 
L 350.477752 273.851552 
L 350.871273 272.819781 
L 351.264793 272.794509 
L 351.658314 271.175441 
L 352.051835 267.985234 
L 352.445355 273.587454 
L 352.838876 273.644174 
L 353.232397 262.237049 
L 353.625917 272.985957 
L 354.019438 271.997524 
L 354.412959 276.976729 
L 355.2 272.147269 
L 355.593521 275.203136 
L 355.987041 275.164946 
L 356.380562 273.019841 
L 356.774083 273.137786 
L 357.167603 277.609653 
L 357.561124 271.374581 
L 357.954645 273.816208 
L 358.348165 277.792265 
L 358.741686 279.639526 
L 359.135207 277.163775 
L 359.528727 278.679731 
L 360.315769 278.31135 
L 360.709289 277.063656 
L 361.10281 275.354346 
L 361.496331 272.591451 
L 361.889851 271.373355 
L 362.283372 271.889616 
L 362.676893 271.170512 
L 363.070413 269.254319 
L 363.463934 273.253871 
L 363.857455 273.590365 
L 364.250975 270.442745 
L 364.644496 269.936245 
L 365.038017 273.622517 
L 365.431537 269.749578 
L 365.825058 274.8689 
L 366.218579 270.007271 
L 366.612099 269.694502 
L 367.00562 271.685465 
L 367.39914 275.814929 
L 367.792661 281.474998 
L 368.579702 272.245325 
L 368.973223 270.961029 
L 369.366744 270.799174 
L 369.760264 274.206107 
L 370.547306 271.387667 
L 370.940826 274.062026 
L 371.334347 274.254021 
L 371.727868 269.743857 
L 372.121388 273.647432 
L 372.514909 275.594664 
L 372.90843 270.54241 
L 373.30195 275.818602 
L 374.088992 270.07983 
L 374.876033 275.519414 
L 375.269554 270.826597 
L 375.663074 269.58378 
L 376.056595 274.475885 
L 376.450116 273.963777 
L 376.843636 271.715079 
L 377.237157 276.148808 
L 377.630678 277.086548 
L 378.024198 275.722482 
L 378.417719 276.882607 
L 378.81124 276.659379 
L 379.20476 277.314214 
L 379.598281 275.822933 
L 379.991802 277.625058 
L 380.385322 275.36475 
L 380.778843 278.228367 
L 381.565884 269.213872 
L 381.959405 269.237852 
L 382.352926 272.320427 
L 382.746446 271.52645 
L 383.139967 268.170303 
L 383.533488 271.083167 
L 383.927008 270.201074 
L 384.320529 272.194509 
L 384.71405 268.84163 
L 385.501091 271.868843 
L 385.894612 269.67635 
L 386.288132 273.360937 
L 386.681653 269.53537 
L 387.075174 271.335559 
L 387.468694 269.970175 
L 387.862215 274.367103 
L 388.255736 283.444264 
L 388.649256 281.276813 
L 389.042777 274.045319 
L 389.436298 273.240362 
L 389.829818 270.841531 
L 390.223339 270.381781 
L 390.61686 273.30509 
L 391.01038 271.964902 
L 391.403901 273.352504 
L 391.797421 270.959583 
L 392.190942 295.488 
L 392.977983 295.488 
L 393.371504 272.362891 
L 394.158545 274.678049 
L 394.552066 269.627501 
L 394.945587 268.684291 
L 395.339107 272.693762 
L 395.732628 271.002395 
L 396.126149 269.850029 
L 396.519669 269.867916 
L 396.91319 267.838114 
L 397.306711 274.131444 
L 397.700231 271.938199 
L 398.093752 276.475735 
L 398.487273 274.34723 
L 398.487273 274.34723 
" clip-path="url(#pa2e5a6658a)" style="fill: none; stroke: #2ca02c; stroke-width: 1.5; stroke-linecap: square"/>
   </g>
   <g id="patch_3">
    <path d="M 57.6 307.584 
L 57.6 41.472 
" style="fill: none; stroke: #000000; stroke-width: 0.8; stroke-linejoin: miter; stroke-linecap: square"/>
   </g>
   <g id="patch_4">
    <path d="M 414.72 307.584 
L 414.72 41.472 
" style="fill: none; stroke: #000000; stroke-width: 0.8; stroke-linejoin: miter; stroke-linecap: square"/>
   </g>
   <g id="patch_5">
    <path d="M 57.6 307.584 
L 414.72 307.584 
" style="fill: none; stroke: #000000; stroke-width: 0.8; stroke-linejoin: miter; stroke-linecap: square"/>
   </g>
   <g id="patch_6">
    <path d="M 57.6 41.472 
L 414.72 41.472 
" style="fill: none; stroke: #000000; stroke-width: 0.8; stroke-linejoin: miter; stroke-linecap: square"/>
   </g>
   <g id="legend_1">
    <g id="patch_7">
     <path d="M 64.6 93.506375 
L 186.25625 93.506375 
Q 188.25625 93.506375 188.25625 91.506375 
L 188.25625 48.472 
Q 188.25625 46.472 186.25625 46.472 
L 64.6 46.472 
Q 62.6 46.472 62.6 48.472 
L 62.6 91.506375 
Q 62.6 93.506375 64.6 93.506375 
z
" style="fill: #ffffff; opacity: 0.8; stroke: #cccccc; stroke-linejoin: miter"/>
    </g>
    <g id="line2d_18">
     <path d="M 66.6 54.570438 
L 76.6 54.570438 
L 86.6 54.570438 
" style="fill: none; stroke: #1f77b4; stroke-width: 1.5; stroke-linecap: square"/>
    </g>
    <g id="text_17">
     <!-- Weekly maximum -->
     <g transform="translate(94.6 58.070438) scale(0.1 -0.1)">
      <defs>
       <path id="DejaVuSans-57" d="M 213 4666 
L 850 4666 
L 1831 722 
L 2809 4666 
L 3519 4666 
L 4500 722 
L 5478 4666 
L 6119 4666 
L 4947 0 
L 4153 0 
L 3169 4050 
L 2175 0 
L 1381 0 
L 213 4666 
z
" transform="scale(0.015625)"/>
       <path id="DejaVuSans-6b" d="M 581 4863 
L 1159 4863 
L 1159 1991 
L 2875 3500 
L 3609 3500 
L 1753 1863 
L 3688 0 
L 2938 0 
L 1159 1709 
L 1159 0 
L 581 0 
L 581 4863 
z
" transform="scale(0.015625)"/>
       <path id="DejaVuSans-79" d="M 2059 -325 
Q 1816 -950 1584 -1140 
Q 1353 -1331 966 -1331 
L 506 -1331 
L 506 -850 
L 844 -850 
Q 1081 -850 1212 -737 
Q 1344 -625 1503 -206 
L 1606 56 
L 191 3500 
L 800 3500 
L 1894 763 
L 2988 3500 
L 3597 3500 
L 2059 -325 
z
" transform="scale(0.015625)"/>
       <path id="DejaVuSans-6d" d="M 3328 2828 
Q 3544 3216 3844 3400 
Q 4144 3584 4550 3584 
Q 5097 3584 5394 3201 
Q 5691 2819 5691 2113 
L 5691 0 
L 5113 0 
L 5113 2094 
Q 5113 2597 4934 2840 
Q 4756 3084 4391 3084 
Q 3944 3084 3684 2787 
Q 3425 2491 3425 1978 
L 3425 0 
L 2847 0 
L 2847 2094 
Q 2847 2600 2669 2842 
Q 2491 3084 2119 3084 
Q 1678 3084 1418 2786 
Q 1159 2488 1159 1978 
L 1159 0 
L 581 0 
L 581 3500 
L 1159 3500 
L 1159 2956 
Q 1356 3278 1631 3431 
Q 1906 3584 2284 3584 
Q 2666 3584 2933 3390 
Q 3200 3197 3328 2828 
z
" transform="scale(0.015625)"/>
       <path id="DejaVuSans-78" d="M 3513 3500 
L 2247 1797 
L 3578 0 
L 2900 0 
L 1881 1375 
L 863 0 
L 184 0 
L 1544 1831 
L 300 3500 
L 978 3500 
L 1906 2253 
L 2834 3500 
L 3513 3500 
z
" transform="scale(0.015625)"/>
       <path id="DejaVuSans-75" d="M 544 1381 
L 544 3500 
L 1119 3500 
L 1119 1403 
Q 1119 906 1312 657 
Q 1506 409 1894 409 
Q 2359 409 2629 706 
Q 2900 1003 2900 1516 
L 2900 3500 
L 3475 3500 
L 3475 0 
L 2900 0 
L 2900 538 
Q 2691 219 2414 64 
Q 2138 -91 1772 -91 
Q 1169 -91 856 284 
Q 544 659 544 1381 
z
M 1991 3584 
L 1991 3584 
z
" transform="scale(0.015625)"/>
      </defs>
      <use xlink:href="#DejaVuSans-57"/>
      <use xlink:href="#DejaVuSans-65" x="93.001953"/>
      <use xlink:href="#DejaVuSans-65" x="154.525391"/>
      <use xlink:href="#DejaVuSans-6b" x="216.048828"/>
      <use xlink:href="#DejaVuSans-6c" x="273.958984"/>
      <use xlink:href="#DejaVuSans-79" x="301.742188"/>
      <use xlink:href="#DejaVuSans-20" x="360.921875"/>
      <use xlink:href="#DejaVuSans-6d" x="392.708984"/>
      <use xlink:href="#DejaVuSans-61" x="490.121094"/>
      <use xlink:href="#DejaVuSans-78" x="551.400391"/>
      <use xlink:href="#DejaVuSans-69" x="610.580078"/>
      <use xlink:href="#DejaVuSans-6d" x="638.363281"/>
      <use xlink:href="#DejaVuSans-75" x="735.775391"/>
      <use xlink:href="#DejaVuSans-6d" x="799.154297"/>
     </g>
    </g>
    <g id="line2d_19">
     <path d="M 66.6 69.248563 
L 76.6 69.248563 
L 86.6 69.248563 
" style="fill: none; stroke: #ff7f0e; stroke-width: 1.5; stroke-linecap: square"/>
    </g>
    <g id="text_18">
     <!-- Weekly minimum -->
     <g transform="translate(94.6 72.748563) scale(0.1 -0.1)">
      <defs>
       <path id="DejaVuSans-6e" d="M 3513 2113 
L 3513 0 
L 2938 0 
L 2938 2094 
Q 2938 2591 2744 2837 
Q 2550 3084 2163 3084 
Q 1697 3084 1428 2787 
Q 1159 2491 1159 1978 
L 1159 0 
L 581 0 
L 581 3500 
L 1159 3500 
L 1159 2956 
Q 1366 3272 1645 3428 
Q 1925 3584 2291 3584 
Q 2894 3584 3203 3211 
Q 3513 2838 3513 2113 
z
" transform="scale(0.015625)"/>
      </defs>
      <use xlink:href="#DejaVuSans-57"/>
      <use xlink:href="#DejaVuSans-65" x="93.001953"/>
      <use xlink:href="#DejaVuSans-65" x="154.525391"/>
      <use xlink:href="#DejaVuSans-6b" x="216.048828"/>
      <use xlink:href="#DejaVuSans-6c" x="273.958984"/>
      <use xlink:href="#DejaVuSans-79" x="301.742188"/>
      <use xlink:href="#DejaVuSans-20" x="360.921875"/>
      <use xlink:href="#DejaVuSans-6d" x="392.708984"/>
      <use xlink:href="#DejaVuSans-69" x="490.121094"/>
      <use xlink:href="#DejaVuSans-6e" x="517.904297"/>
      <use xlink:href="#DejaVuSans-69" x="581.283203"/>
      <use xlink:href="#DejaVuSans-6d" x="609.066406"/>
      <use xlink:href="#DejaVuSans-75" x="706.478516"/>
      <use xlink:href="#DejaVuSans-6d" x="769.857422"/>
     </g>
    </g>
    <g id="line2d_20">
     <path d="M 66.6 83.926688 
L 76.6 83.926688 
L 86.6 83.926688 
" style="fill: none; stroke: #2ca02c; stroke-width: 1.5; stroke-linecap: square"/>
    </g>
    <g id="text_19">
     <!-- Weekly range -->
     <g transform="translate(94.6 87.426688) scale(0.1 -0.1)">
      <use xlink:href="#DejaVuSans-57"/>
      <use xlink:href="#DejaVuSans-65" x="93.001953"/>
      <use xlink:href="#DejaVuSans-65" x="154.525391"/>
      <use xlink:href="#DejaVuSans-6b" x="216.048828"/>
      <use xlink:href="#DejaVuSans-6c" x="273.958984"/>
      <use xlink:href="#DejaVuSans-79" x="301.742188"/>
      <use xlink:href="#DejaVuSans-20" x="360.921875"/>
      <use xlink:href="#DejaVuSans-72" x="392.708984"/>
      <use xlink:href="#DejaVuSans-61" x="433.822266"/>
      <use xlink:href="#DejaVuSans-6e" x="495.101562"/>
      <use xlink:href="#DejaVuSans-67" x="558.480469"/>
      <use xlink:href="#DejaVuSans-65" x="621.957031"/>
     </g>
    </g>
   </g>
  </g>
 </g>
 <defs>
  <clipPath id="pa2e5a6658a">
   <rect x="57.6" y="41.472" width="357.12" height="266.112"/>
  </clipPath>
 </defs>
</svg>
