<?xml version="1.0" encoding="utf-8" standalone="no"?>
<!DOCTYPE svg PUBLIC "-//W3C//DTD SVG 1.1//EN"
  "http://www.w3.org/Graphics/SVG/1.1/DTD/svg11.dtd">
<svg xmlns:xlink="http://www.w3.org/1999/xlink" width="460.8pt" height="345.6pt" viewBox="0 0 460.8 345.6" xmlns="http://www.w3.org/2000/svg" version="1.1">
 <metadata>
  <rdf:RDF xmlns:dc="http://purl.org/dc/elements/1.1/" xmlns:cc="http://creativecommons.org/ns#" xmlns:rdf="http://www.w3.org/1999/02/22-rdf-syntax-ns#">
   <cc:Work>
    <dc:type rdf:resource="http://purl.org/dc/dcmitype/StillImage"/>
    <dc:date>2023-07-10T05:33:41.149738</dc:date>
    <dc:format>image/svg+xml</dc:format>
    <dc:creator>
     <cc:Agent>
      <dc:title>Matplotlib v3.7.2, https://matplotlib.org/</dc:title>
     </cc:Agent>
    </dc:creator>
   </cc:Work>
  </rdf:RDF>
 </metadata>
 <defs>
  <style type="text/css">*{stroke-linejoin: round; stroke-linecap: butt}</style>
 </defs>
 <g id="figure_1">
  <g id="patch_1">
   <path d="M 0 345.6 
L 460.8 345.6 
L 460.8 0 
L 0 0 
z
" style="fill: #ffffff"/>
  </g>
  <g id="axes_1">
   <g id="patch_2">
    <path d="M 57.6 307.584 
L 414.72 307.584 
L 414.72 41.472 
L 57.6 41.472 
z
" style="fill: #ffffff"/>
   </g>
   <g id="matplotlib.axis_1">
    <g id="xtick_1">
     <g id="line2d_1">
      <defs>
       <path id="m16ac0cd255" d="M 0 0 
L 0 3.5 
" style="stroke: #000000; stroke-width: 0.8"/>
      </defs>
      <g>
       <use xlink:href="#m16ac0cd255" x="59.211888" y="307.584" style="stroke: #000000; stroke-width: 0.8"/>
      </g>
     </g>
     <g id="text_1">
      <!-- 2008 -->
      <g transform="translate(46.486888 322.182437) scale(0.1 -0.1)">
       <defs>
        <path id="DejaVuSans-32" d="M 1228 531 
L 3431 531 
L 3431 0 
L 469 0 
L 469 531 
Q 828 903 1448 1529 
Q 2069 2156 2228 2338 
Q 2531 2678 2651 2914 
Q 2772 3150 2772 3378 
Q 2772 3750 2511 3984 
Q 2250 4219 1831 4219 
Q 1534 4219 1204 4116 
Q 875 4013 500 3803 
L 500 4441 
Q 881 4594 1212 4672 
Q 1544 4750 1819 4750 
Q 2544 4750 2975 4387 
Q 3406 4025 3406 3419 
Q 3406 3131 3298 2873 
Q 3191 2616 2906 2266 
Q 2828 2175 2409 1742 
Q 1991 1309 1228 531 
z
" transform="scale(0.015625)"/>
        <path id="DejaVuSans-30" d="M 2034 4250 
Q 1547 4250 1301 3770 
Q 1056 3291 1056 2328 
Q 1056 1369 1301 889 
Q 1547 409 2034 409 
Q 2525 409 2770 889 
Q 3016 1369 3016 2328 
Q 3016 3291 2770 3770 
Q 2525 4250 2034 4250 
z
M 2034 4750 
Q 2819 4750 3233 4129 
Q 3647 3509 3647 2328 
Q 3647 1150 3233 529 
Q 2819 -91 2034 -91 
Q 1250 -91 836 529 
Q 422 1150 422 2328 
Q 422 3509 836 4129 
Q 1250 4750 2034 4750 
z
" transform="scale(0.015625)"/>
        <path id="DejaVuSans-38" d="M 2034 2216 
Q 1584 2216 1326 1975 
Q 1069 1734 1069 1313 
Q 1069 891 1326 650 
Q 1584 409 2034 409 
Q 2484 409 2743 651 
Q 3003 894 3003 1313 
Q 3003 1734 2745 1975 
Q 2488 2216 2034 2216 
z
M 1403 2484 
Q 997 2584 770 2862 
Q 544 3141 544 3541 
Q 544 4100 942 4425 
Q 1341 4750 2034 4750 
Q 2731 4750 3128 4425 
Q 3525 4100 3525 3541 
Q 3525 3141 3298 2862 
Q 3072 2584 2669 2484 
Q 3125 2378 3379 2068 
Q 3634 1759 3634 1313 
Q 3634 634 3220 271 
Q 2806 -91 2034 -91 
Q 1263 -91 848 271 
Q 434 634 434 1313 
Q 434 1759 690 2068 
Q 947 2378 1403 2484 
z
M 1172 3481 
Q 1172 3119 1398 2916 
Q 1625 2713 2034 2713 
Q 2441 2713 2670 2916 
Q 2900 3119 2900 3481 
Q 2900 3844 2670 4047 
Q 2441 4250 2034 4250 
Q 1625 4250 1398 4047 
Q 1172 3844 1172 3481 
z
" transform="scale(0.015625)"/>
       </defs>
       <use xlink:href="#DejaVuSans-32"/>
       <use xlink:href="#DejaVuSans-30" x="63.623047"/>
       <use xlink:href="#DejaVuSans-30" x="127.246094"/>
       <use xlink:href="#DejaVuSans-38" x="190.869141"/>
      </g>
     </g>
    </g>
    <g id="xtick_2">
     <g id="line2d_2">
      <g>
       <use xlink:href="#m16ac0cd255" x="103.014485" y="307.584" style="stroke: #000000; stroke-width: 0.8"/>
      </g>
     </g>
     <g id="text_2">
      <!-- 2010 -->
      <g transform="translate(90.289485 322.182437) scale(0.1 -0.1)">
       <defs>
        <path id="DejaVuSans-31" d="M 794 531 
L 1825 531 
L 1825 4091 
L 703 3866 
L 703 4441 
L 1819 4666 
L 2450 4666 
L 2450 531 
L 3481 531 
L 3481 0 
L 794 0 
L 794 531 
z
" transform="scale(0.015625)"/>
       </defs>
       <use xlink:href="#DejaVuSans-32"/>
       <use xlink:href="#DejaVuSans-30" x="63.623047"/>
       <use xlink:href="#DejaVuSans-31" x="127.246094"/>
       <use xlink:href="#DejaVuSans-30" x="190.869141"/>
      </g>
     </g>
    </g>
    <g id="xtick_3">
     <g id="line2d_3">
      <g>
       <use xlink:href="#m16ac0cd255" x="146.757161" y="307.584" style="stroke: #000000; stroke-width: 0.8"/>
      </g>
     </g>
     <g id="text_3">
      <!-- 2012 -->
      <g transform="translate(134.032161 322.182437) scale(0.1 -0.1)">
       <use xlink:href="#DejaVuSans-32"/>
       <use xlink:href="#DejaVuSans-30" x="63.623047"/>
       <use xlink:href="#DejaVuSans-31" x="127.246094"/>
       <use xlink:href="#DejaVuSans-32" x="190.869141"/>
      </g>
     </g>
    </g>
    <g id="xtick_4">
     <g id="line2d_4">
      <g>
       <use xlink:href="#m16ac0cd255" x="190.559758" y="307.584" style="stroke: #000000; stroke-width: 0.8"/>
      </g>
     </g>
     <g id="text_4">
      <!-- 2014 -->
      <g transform="translate(177.834758 322.182437) scale(0.1 -0.1)">
       <defs>
        <path id="DejaVuSans-34" d="M 2419 4116 
L 825 1625 
L 2419 1625 
L 2419 4116 
z
M 2253 4666 
L 3047 4666 
L 3047 1625 
L 3713 1625 
L 3713 1100 
L 3047 1100 
L 3047 0 
L 2419 0 
L 2419 1100 
L 313 1100 
L 313 1709 
L 2253 4666 
z
" transform="scale(0.015625)"/>
       </defs>
       <use xlink:href="#DejaVuSans-32"/>
       <use xlink:href="#DejaVuSans-30" x="63.623047"/>
       <use xlink:href="#DejaVuSans-31" x="127.246094"/>
       <use xlink:href="#DejaVuSans-34" x="190.869141"/>
      </g>
     </g>
    </g>
    <g id="xtick_5">
     <g id="line2d_5">
      <g>
       <use xlink:href="#m16ac0cd255" x="234.302434" y="307.584" style="stroke: #000000; stroke-width: 0.8"/>
      </g>
     </g>
     <g id="text_5">
      <!-- 2016 -->
      <g transform="translate(221.577434 322.182437) scale(0.1 -0.1)">
       <defs>
        <path id="DejaVuSans-36" d="M 2113 2584 
Q 1688 2584 1439 2293 
Q 1191 2003 1191 1497 
Q 1191 994 1439 701 
Q 1688 409 2113 409 
Q 2538 409 2786 701 
Q 3034 994 3034 1497 
Q 3034 2003 2786 2293 
Q 2538 2584 2113 2584 
z
M 3366 4563 
L 3366 3988 
Q 3128 4100 2886 4159 
Q 2644 4219 2406 4219 
Q 1781 4219 1451 3797 
Q 1122 3375 1075 2522 
Q 1259 2794 1537 2939 
Q 1816 3084 2150 3084 
Q 2853 3084 3261 2657 
Q 3669 2231 3669 1497 
Q 3669 778 3244 343 
Q 2819 -91 2113 -91 
Q 1303 -91 875 529 
Q 447 1150 447 2328 
Q 447 3434 972 4092 
Q 1497 4750 2381 4750 
Q 2619 4750 2861 4703 
Q 3103 4656 3366 4563 
z
" transform="scale(0.015625)"/>
       </defs>
       <use xlink:href="#DejaVuSans-32"/>
       <use xlink:href="#DejaVuSans-30" x="63.623047"/>
       <use xlink:href="#DejaVuSans-31" x="127.246094"/>
       <use xlink:href="#DejaVuSans-36" x="190.869141"/>
      </g>
     </g>
    </g>
    <g id="xtick_6">
     <g id="line2d_6">
      <g>
       <use xlink:href="#m16ac0cd255" x="278.105032" y="307.584" style="stroke: #000000; stroke-width: 0.8"/>
      </g>
     </g>
     <g id="text_6">
      <!-- 2018 -->
      <g transform="translate(265.380032 322.182437) scale(0.1 -0.1)">
       <use xlink:href="#DejaVuSans-32"/>
       <use xlink:href="#DejaVuSans-30" x="63.623047"/>
       <use xlink:href="#DejaVuSans-31" x="127.246094"/>
       <use xlink:href="#DejaVuSans-38" x="190.869141"/>
      </g>
     </g>
    </g>
    <g id="xtick_7">
     <g id="line2d_7">
      <g>
       <use xlink:href="#m16ac0cd255" x="321.847708" y="307.584" style="stroke: #000000; stroke-width: 0.8"/>
      </g>
     </g>
     <g id="text_7">
      <!-- 2020 -->
      <g transform="translate(309.122708 322.182437) scale(0.1 -0.1)">
       <use xlink:href="#DejaVuSans-32"/>
       <use xlink:href="#DejaVuSans-30" x="63.623047"/>
       <use xlink:href="#DejaVuSans-32" x="127.246094"/>
       <use xlink:href="#DejaVuSans-30" x="190.869141"/>
      </g>
     </g>
    </g>
    <g id="xtick_8">
     <g id="line2d_8">
      <g>
       <use xlink:href="#m16ac0cd255" x="365.650305" y="307.584" style="stroke: #000000; stroke-width: 0.8"/>
      </g>
     </g>
     <g id="text_8">
      <!-- 2022 -->
      <g transform="translate(352.925305 322.182437) scale(0.1 -0.1)">
       <use xlink:href="#DejaVuSans-32"/>
       <use xlink:href="#DejaVuSans-30" x="63.623047"/>
       <use xlink:href="#DejaVuSans-32" x="127.246094"/>
       <use xlink:href="#DejaVuSans-32" x="190.869141"/>
      </g>
     </g>
    </g>
    <g id="xtick_9">
     <g id="line2d_9">
      <g>
       <use xlink:href="#m16ac0cd255" x="409.392981" y="307.584" style="stroke: #000000; stroke-width: 0.8"/>
      </g>
     </g>
     <g id="text_9">
      <!-- 2024 -->
      <g transform="translate(396.667981 322.182437) scale(0.1 -0.1)">
       <use xlink:href="#DejaVuSans-32"/>
       <use xlink:href="#DejaVuSans-30" x="63.623047"/>
       <use xlink:href="#DejaVuSans-32" x="127.246094"/>
       <use xlink:href="#DejaVuSans-34" x="190.869141"/>
      </g>
     </g>
    </g>
    <g id="text_10">
     <!-- Updated 2023-07-10 05:33:41.147861 - Last record 2023-07-08 -->
     <g transform="translate(75.905312 335.860562) scale(0.1 -0.1)">
      <defs>
       <path id="DejaVuSans-55" d="M 556 4666 
L 1191 4666 
L 1191 1831 
Q 1191 1081 1462 751 
Q 1734 422 2344 422 
Q 2950 422 3222 751 
Q 3494 1081 3494 1831 
L 3494 4666 
L 4128 4666 
L 4128 1753 
Q 4128 841 3676 375 
Q 3225 -91 2344 -91 
Q 1459 -91 1007 375 
Q 556 841 556 1753 
L 556 4666 
z
" transform="scale(0.015625)"/>
       <path id="DejaVuSans-70" d="M 1159 525 
L 1159 -1331 
L 581 -1331 
L 581 3500 
L 1159 3500 
L 1159 2969 
Q 1341 3281 1617 3432 
Q 1894 3584 2278 3584 
Q 2916 3584 3314 3078 
Q 3713 2572 3713 1747 
Q 3713 922 3314 415 
Q 2916 -91 2278 -91 
Q 1894 -91 1617 61 
Q 1341 213 1159 525 
z
M 3116 1747 
Q 3116 2381 2855 2742 
Q 2594 3103 2138 3103 
Q 1681 3103 1420 2742 
Q 1159 2381 1159 1747 
Q 1159 1113 1420 752 
Q 1681 391 2138 391 
Q 2594 391 2855 752 
Q 3116 1113 3116 1747 
z
" transform="scale(0.015625)"/>
       <path id="DejaVuSans-64" d="M 2906 2969 
L 2906 4863 
L 3481 4863 
L 3481 0 
L 2906 0 
L 2906 525 
Q 2725 213 2448 61 
Q 2172 -91 1784 -91 
Q 1150 -91 751 415 
Q 353 922 353 1747 
Q 353 2572 751 3078 
Q 1150 3584 1784 3584 
Q 2172 3584 2448 3432 
Q 2725 3281 2906 2969 
z
M 947 1747 
Q 947 1113 1208 752 
Q 1469 391 1925 391 
Q 2381 391 2643 752 
Q 2906 1113 2906 1747 
Q 2906 2381 2643 2742 
Q 2381 3103 1925 3103 
Q 1469 3103 1208 2742 
Q 947 2381 947 1747 
z
" transform="scale(0.015625)"/>
       <path id="DejaVuSans-61" d="M 2194 1759 
Q 1497 1759 1228 1600 
Q 959 1441 959 1056 
Q 959 750 1161 570 
Q 1363 391 1709 391 
Q 2188 391 2477 730 
Q 2766 1069 2766 1631 
L 2766 1759 
L 2194 1759 
z
M 3341 1997 
L 3341 0 
L 2766 0 
L 2766 531 
Q 2569 213 2275 61 
Q 1981 -91 1556 -91 
Q 1019 -91 701 211 
Q 384 513 384 1019 
Q 384 1609 779 1909 
Q 1175 2209 1959 2209 
L 2766 2209 
L 2766 2266 
Q 2766 2663 2505 2880 
Q 2244 3097 1772 3097 
Q 1472 3097 1187 3025 
Q 903 2953 641 2809 
L 641 3341 
Q 956 3463 1253 3523 
Q 1550 3584 1831 3584 
Q 2591 3584 2966 3190 
Q 3341 2797 3341 1997 
z
" transform="scale(0.015625)"/>
       <path id="DejaVuSans-74" d="M 1172 4494 
L 1172 3500 
L 2356 3500 
L 2356 3053 
L 1172 3053 
L 1172 1153 
Q 1172 725 1289 603 
Q 1406 481 1766 481 
L 2356 481 
L 2356 0 
L 1766 0 
Q 1100 0 847 248 
Q 594 497 594 1153 
L 594 3053 
L 172 3053 
L 172 3500 
L 594 3500 
L 594 4494 
L 1172 4494 
z
" transform="scale(0.015625)"/>
       <path id="DejaVuSans-65" d="M 3597 1894 
L 3597 1613 
L 953 1613 
Q 991 1019 1311 708 
Q 1631 397 2203 397 
Q 2534 397 2845 478 
Q 3156 559 3463 722 
L 3463 178 
Q 3153 47 2828 -22 
Q 2503 -91 2169 -91 
Q 1331 -91 842 396 
Q 353 884 353 1716 
Q 353 2575 817 3079 
Q 1281 3584 2069 3584 
Q 2775 3584 3186 3129 
Q 3597 2675 3597 1894 
z
M 3022 2063 
Q 3016 2534 2758 2815 
Q 2500 3097 2075 3097 
Q 1594 3097 1305 2825 
Q 1016 2553 972 2059 
L 3022 2063 
z
" transform="scale(0.015625)"/>
       <path id="DejaVuSans-20" transform="scale(0.015625)"/>
       <path id="DejaVuSans-33" d="M 2597 2516 
Q 3050 2419 3304 2112 
Q 3559 1806 3559 1356 
Q 3559 666 3084 287 
Q 2609 -91 1734 -91 
Q 1441 -91 1130 -33 
Q 819 25 488 141 
L 488 750 
Q 750 597 1062 519 
Q 1375 441 1716 441 
Q 2309 441 2620 675 
Q 2931 909 2931 1356 
Q 2931 1769 2642 2001 
Q 2353 2234 1838 2234 
L 1294 2234 
L 1294 2753 
L 1863 2753 
Q 2328 2753 2575 2939 
Q 2822 3125 2822 3475 
Q 2822 3834 2567 4026 
Q 2313 4219 1838 4219 
Q 1578 4219 1281 4162 
Q 984 4106 628 3988 
L 628 4550 
Q 988 4650 1302 4700 
Q 1616 4750 1894 4750 
Q 2613 4750 3031 4423 
Q 3450 4097 3450 3541 
Q 3450 3153 3228 2886 
Q 3006 2619 2597 2516 
z
" transform="scale(0.015625)"/>
       <path id="DejaVuSans-2d" d="M 313 2009 
L 1997 2009 
L 1997 1497 
L 313 1497 
L 313 2009 
z
" transform="scale(0.015625)"/>
       <path id="DejaVuSans-37" d="M 525 4666 
L 3525 4666 
L 3525 4397 
L 1831 0 
L 1172 0 
L 2766 4134 
L 525 4134 
L 525 4666 
z
" transform="scale(0.015625)"/>
       <path id="DejaVuSans-35" d="M 691 4666 
L 3169 4666 
L 3169 4134 
L 1269 4134 
L 1269 2991 
Q 1406 3038 1543 3061 
Q 1681 3084 1819 3084 
Q 2600 3084 3056 2656 
Q 3513 2228 3513 1497 
Q 3513 744 3044 326 
Q 2575 -91 1722 -91 
Q 1428 -91 1123 -41 
Q 819 9 494 109 
L 494 744 
Q 775 591 1075 516 
Q 1375 441 1709 441 
Q 2250 441 2565 725 
Q 2881 1009 2881 1497 
Q 2881 1984 2565 2268 
Q 2250 2553 1709 2553 
Q 1456 2553 1204 2497 
Q 953 2441 691 2322 
L 691 4666 
z
" transform="scale(0.015625)"/>
       <path id="DejaVuSans-3a" d="M 750 794 
L 1409 794 
L 1409 0 
L 750 0 
L 750 794 
z
M 750 3309 
L 1409 3309 
L 1409 2516 
L 750 2516 
L 750 3309 
z
" transform="scale(0.015625)"/>
       <path id="DejaVuSans-2e" d="M 684 794 
L 1344 794 
L 1344 0 
L 684 0 
L 684 794 
z
" transform="scale(0.015625)"/>
       <path id="DejaVuSans-4c" d="M 628 4666 
L 1259 4666 
L 1259 531 
L 3531 531 
L 3531 0 
L 628 0 
L 628 4666 
z
" transform="scale(0.015625)"/>
       <path id="DejaVuSans-73" d="M 2834 3397 
L 2834 2853 
Q 2591 2978 2328 3040 
Q 2066 3103 1784 3103 
Q 1356 3103 1142 2972 
Q 928 2841 928 2578 
Q 928 2378 1081 2264 
Q 1234 2150 1697 2047 
L 1894 2003 
Q 2506 1872 2764 1633 
Q 3022 1394 3022 966 
Q 3022 478 2636 193 
Q 2250 -91 1575 -91 
Q 1294 -91 989 -36 
Q 684 19 347 128 
L 347 722 
Q 666 556 975 473 
Q 1284 391 1588 391 
Q 1994 391 2212 530 
Q 2431 669 2431 922 
Q 2431 1156 2273 1281 
Q 2116 1406 1581 1522 
L 1381 1569 
Q 847 1681 609 1914 
Q 372 2147 372 2553 
Q 372 3047 722 3315 
Q 1072 3584 1716 3584 
Q 2034 3584 2315 3537 
Q 2597 3491 2834 3397 
z
" transform="scale(0.015625)"/>
       <path id="DejaVuSans-72" d="M 2631 2963 
Q 2534 3019 2420 3045 
Q 2306 3072 2169 3072 
Q 1681 3072 1420 2755 
Q 1159 2438 1159 1844 
L 1159 0 
L 581 0 
L 581 3500 
L 1159 3500 
L 1159 2956 
Q 1341 3275 1631 3429 
Q 1922 3584 2338 3584 
Q 2397 3584 2469 3576 
Q 2541 3569 2628 3553 
L 2631 2963 
z
" transform="scale(0.015625)"/>
       <path id="DejaVuSans-63" d="M 3122 3366 
L 3122 2828 
Q 2878 2963 2633 3030 
Q 2388 3097 2138 3097 
Q 1578 3097 1268 2742 
Q 959 2388 959 1747 
Q 959 1106 1268 751 
Q 1578 397 2138 397 
Q 2388 397 2633 464 
Q 2878 531 3122 666 
L 3122 134 
Q 2881 22 2623 -34 
Q 2366 -91 2075 -91 
Q 1284 -91 818 406 
Q 353 903 353 1747 
Q 353 2603 823 3093 
Q 1294 3584 2113 3584 
Q 2378 3584 2631 3529 
Q 2884 3475 3122 3366 
z
" transform="scale(0.015625)"/>
       <path id="DejaVuSans-6f" d="M 1959 3097 
Q 1497 3097 1228 2736 
Q 959 2375 959 1747 
Q 959 1119 1226 758 
Q 1494 397 1959 397 
Q 2419 397 2687 759 
Q 2956 1122 2956 1747 
Q 2956 2369 2687 2733 
Q 2419 3097 1959 3097 
z
M 1959 3584 
Q 2709 3584 3137 3096 
Q 3566 2609 3566 1747 
Q 3566 888 3137 398 
Q 2709 -91 1959 -91 
Q 1206 -91 779 398 
Q 353 888 353 1747 
Q 353 2609 779 3096 
Q 1206 3584 1959 3584 
z
" transform="scale(0.015625)"/>
      </defs>
      <use xlink:href="#DejaVuSans-55"/>
      <use xlink:href="#DejaVuSans-70" x="73.193359"/>
      <use xlink:href="#DejaVuSans-64" x="136.669922"/>
      <use xlink:href="#DejaVuSans-61" x="200.146484"/>
      <use xlink:href="#DejaVuSans-74" x="261.425781"/>
      <use xlink:href="#DejaVuSans-65" x="300.634766"/>
      <use xlink:href="#DejaVuSans-64" x="362.158203"/>
      <use xlink:href="#DejaVuSans-20" x="425.634766"/>
      <use xlink:href="#DejaVuSans-32" x="457.421875"/>
      <use xlink:href="#DejaVuSans-30" x="521.044922"/>
      <use xlink:href="#DejaVuSans-32" x="584.667969"/>
      <use xlink:href="#DejaVuSans-33" x="648.291016"/>
      <use xlink:href="#DejaVuSans-2d" x="711.914062"/>
      <use xlink:href="#DejaVuSans-30" x="747.998047"/>
      <use xlink:href="#DejaVuSans-37" x="811.621094"/>
      <use xlink:href="#DejaVuSans-2d" x="875.244141"/>
      <use xlink:href="#DejaVuSans-31" x="911.328125"/>
      <use xlink:href="#DejaVuSans-30" x="974.951172"/>
      <use xlink:href="#DejaVuSans-20" x="1038.574219"/>
      <use xlink:href="#DejaVuSans-30" x="1070.361328"/>
      <use xlink:href="#DejaVuSans-35" x="1133.984375"/>
      <use xlink:href="#DejaVuSans-3a" x="1197.607422"/>
      <use xlink:href="#DejaVuSans-33" x="1231.298828"/>
      <use xlink:href="#DejaVuSans-33" x="1294.921875"/>
      <use xlink:href="#DejaVuSans-3a" x="1358.544922"/>
      <use xlink:href="#DejaVuSans-34" x="1392.236328"/>
      <use xlink:href="#DejaVuSans-31" x="1455.859375"/>
      <use xlink:href="#DejaVuSans-2e" x="1519.482422"/>
      <use xlink:href="#DejaVuSans-31" x="1551.269531"/>
      <use xlink:href="#DejaVuSans-34" x="1614.892578"/>
      <use xlink:href="#DejaVuSans-37" x="1678.515625"/>
      <use xlink:href="#DejaVuSans-38" x="1742.138672"/>
      <use xlink:href="#DejaVuSans-36" x="1805.761719"/>
      <use xlink:href="#DejaVuSans-31" x="1869.384766"/>
      <use xlink:href="#DejaVuSans-20" x="1933.007812"/>
      <use xlink:href="#DejaVuSans-2d" x="1964.794922"/>
      <use xlink:href="#DejaVuSans-20" x="2000.878906"/>
      <use xlink:href="#DejaVuSans-4c" x="2032.666016"/>
      <use xlink:href="#DejaVuSans-61" x="2088.378906"/>
      <use xlink:href="#DejaVuSans-73" x="2149.658203"/>
      <use xlink:href="#DejaVuSans-74" x="2201.757812"/>
      <use xlink:href="#DejaVuSans-20" x="2240.966797"/>
      <use xlink:href="#DejaVuSans-72" x="2272.753906"/>
      <use xlink:href="#DejaVuSans-65" x="2311.617188"/>
      <use xlink:href="#DejaVuSans-63" x="2373.140625"/>
      <use xlink:href="#DejaVuSans-6f" x="2428.121094"/>
      <use xlink:href="#DejaVuSans-72" x="2489.302734"/>
      <use xlink:href="#DejaVuSans-64" x="2528.666016"/>
      <use xlink:href="#DejaVuSans-20" x="2592.142578"/>
      <use xlink:href="#DejaVuSans-32" x="2623.929688"/>
      <use xlink:href="#DejaVuSans-30" x="2687.552734"/>
      <use xlink:href="#DejaVuSans-32" x="2751.175781"/>
      <use xlink:href="#DejaVuSans-33" x="2814.798828"/>
      <use xlink:href="#DejaVuSans-2d" x="2878.421875"/>
      <use xlink:href="#DejaVuSans-30" x="2914.505859"/>
      <use xlink:href="#DejaVuSans-37" x="2978.128906"/>
      <use xlink:href="#DejaVuSans-2d" x="3041.751953"/>
      <use xlink:href="#DejaVuSans-30" x="3077.835938"/>
      <use xlink:href="#DejaVuSans-38" x="3141.458984"/>
     </g>
    </g>
   </g>
   <g id="matplotlib.axis_2">
    <g id="ytick_1">
     <g id="line2d_10">
      <defs>
       <path id="m528cf31f23" d="M 0 0 
L -3.5 0 
" style="stroke: #000000; stroke-width: 0.8"/>
      </defs>
      <g>
       <use xlink:href="#m528cf31f23" x="57.6" y="295.563157" style="stroke: #000000; stroke-width: 0.8"/>
      </g>
     </g>
     <g id="text_11">
      <!-- 0 -->
      <g transform="translate(44.2375 299.362375) scale(0.1 -0.1)">
       <use xlink:href="#DejaVuSans-30"/>
      </g>
     </g>
    </g>
    <g id="ytick_2">
     <g id="line2d_11">
      <g>
       <use xlink:href="#m528cf31f23" x="57.6" y="241.493625" style="stroke: #000000; stroke-width: 0.8"/>
      </g>
     </g>
     <g id="text_12">
      <!-- 10 -->
      <g transform="translate(37.875 245.292844) scale(0.1 -0.1)">
       <use xlink:href="#DejaVuSans-31"/>
       <use xlink:href="#DejaVuSans-30" x="63.623047"/>
      </g>
     </g>
    </g>
    <g id="ytick_3">
     <g id="line2d_12">
      <g>
       <use xlink:href="#m528cf31f23" x="57.6" y="187.424094" style="stroke: #000000; stroke-width: 0.8"/>
      </g>
     </g>
     <g id="text_13">
      <!-- 20 -->
      <g transform="translate(37.875 191.223313) scale(0.1 -0.1)">
       <use xlink:href="#DejaVuSans-32"/>
       <use xlink:href="#DejaVuSans-30" x="63.623047"/>
      </g>
     </g>
    </g>
    <g id="ytick_4">
     <g id="line2d_13">
      <g>
       <use xlink:href="#m528cf31f23" x="57.6" y="133.354563" style="stroke: #000000; stroke-width: 0.8"/>
      </g>
     </g>
     <g id="text_14">
      <!-- 30 -->
      <g transform="translate(37.875 137.153782) scale(0.1 -0.1)">
       <use xlink:href="#DejaVuSans-33"/>
       <use xlink:href="#DejaVuSans-30" x="63.623047"/>
      </g>
     </g>
    </g>
    <g id="ytick_5">
     <g id="line2d_14">
      <g>
       <use xlink:href="#m528cf31f23" x="57.6" y="79.285032" style="stroke: #000000; stroke-width: 0.8"/>
      </g>
     </g>
     <g id="text_15">
      <!-- 40 -->
      <g transform="translate(37.875 83.08425) scale(0.1 -0.1)">
       <use xlink:href="#DejaVuSans-34"/>
       <use xlink:href="#DejaVuSans-30" x="63.623047"/>
      </g>
     </g>
    </g>
    <g id="text_16">
     <!-- IPv6 as % of total Google traffic -->
     <g transform="translate(31.795312 253.735813) rotate(-90) scale(0.1 -0.1)">
      <defs>
       <path id="DejaVuSans-49" d="M 628 4666 
L 1259 4666 
L 1259 0 
L 628 0 
L 628 4666 
z
" transform="scale(0.015625)"/>
       <path id="DejaVuSans-50" d="M 1259 4147 
L 1259 2394 
L 2053 2394 
Q 2494 2394 2734 2622 
Q 2975 2850 2975 3272 
Q 2975 3691 2734 3919 
Q 2494 4147 2053 4147 
L 1259 4147 
z
M 628 4666 
L 2053 4666 
Q 2838 4666 3239 4311 
Q 3641 3956 3641 3272 
Q 3641 2581 3239 2228 
Q 2838 1875 2053 1875 
L 1259 1875 
L 1259 0 
L 628 0 
L 628 4666 
z
" transform="scale(0.015625)"/>
       <path id="DejaVuSans-76" d="M 191 3500 
L 800 3500 
L 1894 563 
L 2988 3500 
L 3597 3500 
L 2284 0 
L 1503 0 
L 191 3500 
z
" transform="scale(0.015625)"/>
       <path id="DejaVuSans-25" d="M 4653 2053 
Q 4381 2053 4226 1822 
Q 4072 1591 4072 1178 
Q 4072 772 4226 539 
Q 4381 306 4653 306 
Q 4919 306 5073 539 
Q 5228 772 5228 1178 
Q 5228 1588 5073 1820 
Q 4919 2053 4653 2053 
z
M 4653 2450 
Q 5147 2450 5437 2106 
Q 5728 1763 5728 1178 
Q 5728 594 5436 251 
Q 5144 -91 4653 -91 
Q 4153 -91 3862 251 
Q 3572 594 3572 1178 
Q 3572 1766 3864 2108 
Q 4156 2450 4653 2450 
z
M 1428 4353 
Q 1159 4353 1004 4120 
Q 850 3888 850 3481 
Q 850 3069 1003 2837 
Q 1156 2606 1428 2606 
Q 1700 2606 1854 2837 
Q 2009 3069 2009 3481 
Q 2009 3884 1853 4118 
Q 1697 4353 1428 4353 
z
M 4250 4750 
L 4750 4750 
L 1831 -91 
L 1331 -91 
L 4250 4750 
z
M 1428 4750 
Q 1922 4750 2215 4408 
Q 2509 4066 2509 3481 
Q 2509 2891 2217 2550 
Q 1925 2209 1428 2209 
Q 931 2209 642 2551 
Q 353 2894 353 3481 
Q 353 4063 643 4406 
Q 934 4750 1428 4750 
z
" transform="scale(0.015625)"/>
       <path id="DejaVuSans-66" d="M 2375 4863 
L 2375 4384 
L 1825 4384 
Q 1516 4384 1395 4259 
Q 1275 4134 1275 3809 
L 1275 3500 
L 2222 3500 
L 2222 3053 
L 1275 3053 
L 1275 0 
L 697 0 
L 697 3053 
L 147 3053 
L 147 3500 
L 697 3500 
L 697 3744 
Q 697 4328 969 4595 
Q 1241 4863 1831 4863 
L 2375 4863 
z
" transform="scale(0.015625)"/>
       <path id="DejaVuSans-6c" d="M 603 4863 
L 1178 4863 
L 1178 0 
L 603 0 
L 603 4863 
z
" transform="scale(0.015625)"/>
       <path id="DejaVuSans-47" d="M 3809 666 
L 3809 1919 
L 2778 1919 
L 2778 2438 
L 4434 2438 
L 4434 434 
Q 4069 175 3628 42 
Q 3188 -91 2688 -91 
Q 1594 -91 976 548 
Q 359 1188 359 2328 
Q 359 3472 976 4111 
Q 1594 4750 2688 4750 
Q 3144 4750 3555 4637 
Q 3966 4525 4313 4306 
L 4313 3634 
Q 3963 3931 3569 4081 
Q 3175 4231 2741 4231 
Q 1884 4231 1454 3753 
Q 1025 3275 1025 2328 
Q 1025 1384 1454 906 
Q 1884 428 2741 428 
Q 3075 428 3337 486 
Q 3600 544 3809 666 
z
" transform="scale(0.015625)"/>
       <path id="DejaVuSans-67" d="M 2906 1791 
Q 2906 2416 2648 2759 
Q 2391 3103 1925 3103 
Q 1463 3103 1205 2759 
Q 947 2416 947 1791 
Q 947 1169 1205 825 
Q 1463 481 1925 481 
Q 2391 481 2648 825 
Q 2906 1169 2906 1791 
z
M 3481 434 
Q 3481 -459 3084 -895 
Q 2688 -1331 1869 -1331 
Q 1566 -1331 1297 -1286 
Q 1028 -1241 775 -1147 
L 775 -588 
Q 1028 -725 1275 -790 
Q 1522 -856 1778 -856 
Q 2344 -856 2625 -561 
Q 2906 -266 2906 331 
L 2906 616 
Q 2728 306 2450 153 
Q 2172 0 1784 0 
Q 1141 0 747 490 
Q 353 981 353 1791 
Q 353 2603 747 3093 
Q 1141 3584 1784 3584 
Q 2172 3584 2450 3431 
Q 2728 3278 2906 2969 
L 2906 3500 
L 3481 3500 
L 3481 434 
z
" transform="scale(0.015625)"/>
       <path id="DejaVuSans-69" d="M 603 3500 
L 1178 3500 
L 1178 0 
L 603 0 
L 603 3500 
z
M 603 4863 
L 1178 4863 
L 1178 4134 
L 603 4134 
L 603 4863 
z
" transform="scale(0.015625)"/>
      </defs>
      <use xlink:href="#DejaVuSans-49"/>
      <use xlink:href="#DejaVuSans-50" x="29.492188"/>
      <use xlink:href="#DejaVuSans-76" x="89.794922"/>
      <use xlink:href="#DejaVuSans-36" x="148.974609"/>
      <use xlink:href="#DejaVuSans-20" x="212.597656"/>
      <use xlink:href="#DejaVuSans-61" x="244.384766"/>
      <use xlink:href="#DejaVuSans-73" x="305.664062"/>
      <use xlink:href="#DejaVuSans-20" x="357.763672"/>
      <use xlink:href="#DejaVuSans-25" x="389.550781"/>
      <use xlink:href="#DejaVuSans-20" x="484.570312"/>
      <use xlink:href="#DejaVuSans-6f" x="516.357422"/>
      <use xlink:href="#DejaVuSans-66" x="577.539062"/>
      <use xlink:href="#DejaVuSans-20" x="612.744141"/>
      <use xlink:href="#DejaVuSans-74" x="644.53125"/>
      <use xlink:href="#DejaVuSans-6f" x="683.740234"/>
      <use xlink:href="#DejaVuSans-74" x="744.921875"/>
      <use xlink:href="#DejaVuSans-61" x="784.130859"/>
      <use xlink:href="#DejaVuSans-6c" x="845.410156"/>
      <use xlink:href="#DejaVuSans-20" x="873.193359"/>
      <use xlink:href="#DejaVuSans-47" x="904.980469"/>
      <use xlink:href="#DejaVuSans-6f" x="982.470703"/>
      <use xlink:href="#DejaVuSans-6f" x="1043.652344"/>
      <use xlink:href="#DejaVuSans-67" x="1104.833984"/>
      <use xlink:href="#DejaVuSans-6c" x="1168.310547"/>
      <use xlink:href="#DejaVuSans-65" x="1196.09375"/>
      <use xlink:href="#DejaVuSans-20" x="1257.617188"/>
      <use xlink:href="#DejaVuSans-74" x="1289.404297"/>
      <use xlink:href="#DejaVuSans-72" x="1328.613281"/>
      <use xlink:href="#DejaVuSans-61" x="1369.726562"/>
      <use xlink:href="#DejaVuSans-66" x="1431.005859"/>
      <use xlink:href="#DejaVuSans-66" x="1466.210938"/>
      <use xlink:href="#DejaVuSans-69" x="1501.416016"/>
      <use xlink:href="#DejaVuSans-63" x="1529.199219"/>
     </g>
    </g>
   </g>
   <g id="line2d_15">
    <path d="M 73.832727 294.578048 
L 75.510529 294.411086 
L 75.929979 294.570072 
L 77.60778 294.569375 
L 79.285581 294.424452 
L 79.705032 294.296297 
L 80.963383 294.317557 
L 82.221734 294.286672 
L 82.641184 294.358828 
L 84.318985 294.211386 
L 85.996786 294.268927 
L 87.674588 294.192591 
L 91.03019 294.258778 
L 91.449641 294.362797 
L 93.546892 294.337525 
L 94.805243 294.287878 
L 96.483044 294.190829 
L 97.321945 294.199691 
L 97.741395 293.936459 
L 100.258097 293.846162 
L 101.096998 293.811515 
L 103.194249 293.895317 
L 105.291501 293.946359 
L 107.388753 293.913236 
L 108.647104 294.104999 
L 109.905455 294.052 
L 110.324905 294.038228 
L 111.163805 294.22466 
L 113.261057 294.241697 
L 114.519408 294.35879 
L 116.61666 294.271062 
L 117.45556 294.16481 
L 117.875011 294.077229 
L 118.713911 294.072914 
L 121.650063 294.009274 
L 122.488964 294.100981 
L 122.908414 293.971804 
L 125.425116 294.211408 
L 128.780719 294.038796 
L 129.200169 294.044571 
L 129.619619 293.921616 
L 130.45852 294.024462 
L 131.297421 293.833564 
L 131.716871 293.881021 
L 132.136321 293.763825 
L 132.555772 293.815137 
L 133.394672 293.706085 
L 134.653023 293.690561 
L 135.072474 293.825113 
L 136.750275 293.855506 
L 137.589175 293.869953 
L 138.008626 293.831742 
L 138.428076 293.65421 
L 140.105877 293.556988 
L 140.525328 293.653832 
L 144.300381 293.333924 
L 145.139281 293.136251 
L 145.978182 293.285575 
L 148.494884 292.896047 
L 150.592135 292.756321 
L 151.011586 292.549543 
L 151.431036 292.629225 
L 151.850486 292.446183 
L 154.367188 292.067291 
L 156.46444 291.58106 
L 157.722791 291.456062 
L 158.142241 291.558167 
L 160.239493 291.174122 
L 161.497844 290.794662 
L 161.917294 290.852073 
L 162.336744 290.511424 
L 162.756195 290.347101 
L 164.433996 290.148969 
L 164.853446 290.30875 
L 165.692347 290.115776 
L 166.111797 290.067908 
L 166.531247 289.819431 
L 167.370148 289.653633 
L 169.047949 289.636363 
L 169.88685 289.424556 
L 171.145201 289.26849 
L 171.564651 289.064437 
L 171.984101 289.044756 
L 172.403552 289.150267 
L 174.081353 288.387427 
L 174.500803 288.404902 
L 176.178605 287.925219 
L 176.598055 287.603754 
L 177.017505 287.529998 
L 177.436956 287.33106 
L 177.856406 287.363458 
L 179.114757 286.874945 
L 179.534207 286.961327 
L 179.953658 286.720874 
L 180.373108 286.678613 
L 182.470359 285.548966 
L 183.30926 285.205057 
L 184.148161 284.602744 
L 185.406512 283.114145 
L 185.825962 283.351245 
L 186.245412 283.392262 
L 187.503763 281.97803 
L 187.923214 281.808452 
L 188.342664 281.093615 
L 189.181564 280.870627 
L 190.020465 280.39482 
L 190.439915 280.444407 
L 191.698266 279.6638 
L 192.117717 279.498001 
L 192.537167 279.191384 
L 193.376068 279.118731 
L 193.795518 278.424132 
L 194.214968 278.414978 
L 194.634419 277.651316 
L 195.053869 277.255819 
L 195.89277 277.369333 
L 196.31222 277.086592 
L 196.73167 276.651057 
L 197.570571 276.144057 
L 197.990021 275.690814 
L 198.409471 275.968699 
L 200.087273 275.079423 
L 200.506723 274.75061 
L 200.926173 273.399396 
L 201.345624 273.655713 
L 202.184524 272.738174 
L 202.603975 272.698779 
L 203.023425 273.095439 
L 204.281776 272.192878 
L 204.701226 271.580573 
L 205.540127 271.627781 
L 205.959577 270.965251 
L 206.379027 270.919648 
L 206.798478 267.409709 
L 207.217928 269.719067 
L 207.637378 271.094791 
L 208.056829 270.426313 
L 208.476279 270.052752 
L 208.895729 269.992551 
L 209.31518 269.113364 
L 209.73463 268.83788 
L 210.992981 266.929631 
L 211.412431 265.683658 
L 211.831882 264.972492 
L 212.251332 264.006978 
L 212.670782 263.369509 
L 213.090233 264.387573 
L 213.509683 264.231772 
L 213.929133 264.259958 
L 214.348584 264.424422 
L 214.768034 264.731515 
L 215.187484 264.614352 
L 215.606934 262.369152 
L 216.026385 262.701247 
L 217.284736 261.518174 
L 217.704186 261.358939 
L 218.543087 261.428948 
L 218.962537 259.73177 
L 219.381987 259.669958 
L 220.220888 258.330585 
L 220.640338 258.78723 
L 221.059789 256.696734 
L 221.479239 257.190854 
L 221.898689 255.779644 
L 222.31814 255.103883 
L 222.73759 254.089204 
L 223.15704 254.793838 
L 223.57649 253.726457 
L 223.995941 251.950738 
L 224.415391 252.845534 
L 224.834841 253.100618 
L 225.254292 252.549423 
L 225.673742 250.925769 
L 226.093192 251.37679 
L 226.512643 249.943266 
L 226.932093 250.27349 
L 227.770994 248.34005 
L 228.190444 247.360618 
L 229.448795 247.053114 
L 229.868245 245.922174 
L 230.287696 246.059797 
L 230.707146 245.635546 
L 231.126596 244.514658 
L 231.546047 244.230171 
L 231.965497 242.976861 
L 232.384947 242.117674 
L 232.804397 241.966253 
L 233.223848 242.177735 
L 233.643298 241.631043 
L 234.062748 239.30216 
L 234.901649 240.668205 
L 235.321099 240.405795 
L 236.16 240.327162 
L 236.57945 240.373429 
L 237.418351 240.092441 
L 237.837801 238.78213 
L 238.257252 238.720102 
L 238.676702 237.558056 
L 239.096152 237.55479 
L 239.515603 237.378264 
L 240.773953 234.054712 
L 241.193404 232.097179 
L 241.612854 233.433978 
L 242.032304 232.873671 
L 242.451755 231.715529 
L 242.871205 231.973322 
L 243.290655 229.500711 
L 243.710106 229.863475 
L 244.129556 229.560291 
L 244.549006 227.834991 
L 244.968457 227.818662 
L 245.387907 226.53264 
L 245.807357 226.842291 
L 246.226808 225.825113 
L 246.646258 225.284759 
L 247.065708 225.57183 
L 247.485159 224.875333 
L 247.904609 223.788757 
L 248.324059 224.136106 
L 248.74351 223.620774 
L 249.16296 221.910842 
L 249.58241 221.195772 
L 250.00186 221.262661 
L 250.421311 219.263057 
L 250.840761 219.61865 
L 251.679662 217.237023 
L 252.099112 214.86045 
L 252.518562 215.095345 
L 253.357463 213.758984 
L 253.776913 212.261625 
L 254.196364 212.461802 
L 254.615814 211.834276 
L 255.035264 209.466723 
L 255.454715 208.636058 
L 255.874165 204.710761 
L 256.293615 207.262849 
L 256.713066 206.800143 
L 257.132516 207.408766 
L 257.551966 206.69407 
L 258.390867 207.854796 
L 258.810317 207.6234 
L 259.229767 206.605915 
L 259.649218 206.911916 
L 260.488118 205.616015 
L 260.907569 204.542216 
L 261.327019 204.371924 
L 261.746469 203.646051 
L 262.16592 201.035817 
L 262.58537 201.854901 
L 263.00482 198.354591 
L 263.424271 198.625544 
L 263.843721 196.722907 
L 264.263171 195.550188 
L 264.682622 194.844099 
L 265.102072 194.357068 
L 265.521522 193.393327 
L 265.940973 191.628211 
L 266.360423 188.718032 
L 266.779873 189.452918 
L 268.457674 186.13844 
L 268.877125 185.593338 
L 269.296575 185.613971 
L 269.716025 185.914289 
L 270.135476 184.883048 
L 270.554926 183.437758 
L 270.974376 184.73254 
L 271.393827 184.757531 
L 271.813277 185.911034 
L 272.232727 184.648662 
L 272.652178 182.686008 
L 273.071628 182.937496 
L 273.491078 182.090184 
L 274.749429 180.742701 
L 275.58833 179.752931 
L 276.00778 179.645716 
L 276.42723 193.99703 
L 276.846681 177.823811 
L 277.266131 177.04754 
L 277.685581 173.125596 
L 278.105032 176.764243 
L 278.943932 176.232566 
L 279.363383 176.229993 
L 279.782833 175.743059 
L 280.202283 175.503093 
L 280.621734 176.836139 
L 281.041184 177.68124 
L 281.460634 177.475798 
L 281.880085 176.33087 
L 282.299535 176.413083 
L 283.557886 175.450326 
L 283.977336 172.878185 
L 284.396786 173.893416 
L 284.816237 171.169306 
L 285.235687 172.317959 
L 285.655137 170.031434 
L 286.074588 168.603745 
L 286.494038 169.445548 
L 286.913488 167.694717 
L 287.332939 166.53219 
L 287.752389 166.284995 
L 288.171839 167.235402 
L 288.59129 167.73674 
L 289.849641 165.169091 
L 290.269091 165.759579 
L 290.688541 166.610542 
L 291.107992 166.775551 
L 291.527442 164.828091 
L 291.946892 164.102716 
L 292.366342 162.690987 
L 292.785793 162.343158 
L 293.205243 162.145447 
L 293.624693 162.293182 
L 294.044144 162.106966 
L 294.883044 160.16773 
L 295.302495 161.299113 
L 295.721945 157.715136 
L 296.141395 157.807319 
L 296.560846 157.370275 
L 296.980296 154.756311 
L 297.399746 153.972011 
L 297.819197 153.5006 
L 298.238647 153.504033 
L 298.658097 152.086887 
L 299.077548 151.990281 
L 299.916448 149.749618 
L 300.335899 151.228582 
L 300.755349 152.18119 
L 301.594249 149.912616 
L 302.0137 151.02527 
L 302.43315 150.821828 
L 302.8526 151.30615 
L 303.272051 149.593806 
L 303.691501 148.996348 
L 304.110951 150.290941 
L 304.530402 148.432592 
L 304.949852 148.581284 
L 305.369302 148.051191 
L 306.208203 147.845695 
L 306.627653 144.174871 
L 307.047104 144.067943 
L 307.466554 144.357653 
L 307.886004 145.24554 
L 308.724905 140.961778 
L 309.144355 139.072032 
L 309.563805 138.592381 
L 309.983256 138.757131 
L 310.402706 138.412232 
L 310.822156 136.535068 
L 311.241607 138.083079 
L 311.661057 136.434893 
L 312.080507 137.964364 
L 312.499958 136.867947 
L 312.919408 136.204265 
L 313.338858 136.14892 
L 313.758309 136.223692 
L 314.177759 134.79444 
L 314.597209 134.956832 
L 315.01666 136.503697 
L 315.43611 135.979558 
L 315.85556 136.614064 
L 316.275011 136.873397 
L 316.694461 134.890997 
L 317.113911 136.078267 
L 317.533362 136.397304 
L 317.952812 135.660537 
L 318.372262 135.21037 
L 318.791712 133.434602 
L 319.211163 133.80939 
L 319.630613 133.422901 
L 320.050063 133.551073 
L 320.469514 132.518432 
L 320.888964 132.066713 
L 321.308414 130.759653 
L 321.727865 130.188343 
L 322.147315 130.996023 
L 322.566765 131.236167 
L 322.986216 131.290194 
L 323.825116 129.431445 
L 324.244567 129.877043 
L 324.664017 128.521634 
L 325.083467 129.108261 
L 325.502918 128.854751 
L 325.922368 127.917244 
L 326.341818 128.146353 
L 326.761268 128.790375 
L 327.180719 128.496778 
L 327.600169 128.512123 
L 328.019619 126.076847 
L 328.85852 124.343016 
L 329.27797 124.629287 
L 329.697421 124.023146 
L 330.116871 122.005763 
L 330.536321 122.658355 
L 330.955772 119.763424 
L 331.375222 122.080217 
L 331.794672 120.1623 
L 332.214123 117.540534 
L 332.633573 118.307477 
L 333.053023 116.670447 
L 333.472474 115.565811 
L 333.891924 115.671485 
L 334.311374 114.84275 
L 334.730825 116.920318 
L 335.150275 115.189515 
L 335.569725 115.8385 
L 335.989175 116.219269 
L 337.247526 113.563741 
L 337.666977 115.774671 
L 338.086427 115.81897 
L 338.505877 114.841593 
L 338.925328 115.395422 
L 339.344778 116.73819 
L 339.764228 115.693875 
L 340.183679 113.264012 
L 340.603129 117.297869 
L 341.022579 116.21125 
L 341.44203 114.638443 
L 341.86148 115.957832 
L 342.28093 116.053162 
L 342.700381 113.898567 
L 343.119831 112.825562 
L 343.539281 110.858496 
L 343.958732 111.817749 
L 344.378182 111.091006 
L 344.797632 111.315157 
L 345.217082 111.930939 
L 345.636533 110.358516 
L 346.055983 109.713817 
L 346.475433 110.879524 
L 346.894884 110.588981 
L 347.314334 108.066497 
L 347.733784 107.51163 
L 348.153235 105.79489 
L 348.572685 108.614011 
L 348.992135 109.548976 
L 349.411586 108.629842 
L 349.831036 108.454068 
L 350.250486 108.598217 
L 350.669937 103.626005 
L 351.089387 106.949956 
L 351.508837 105.03457 
L 352.347738 106.003501 
L 352.767188 101.294288 
L 353.186638 100.692441 
L 353.606089 98.798109 
L 354.025539 98.722715 
L 354.444989 100.436189 
L 354.86444 98.073253 
L 355.28389 97.608774 
L 355.70334 96.388511 
L 356.122791 95.947212 
L 356.542241 94.560777 
L 356.961691 94.768064 
L 357.381142 98.129442 
L 357.800592 96.316793 
L 358.220042 95.169065 
L 358.639493 97.35189 
L 359.058943 96.144787 
L 359.478393 95.719871 
L 359.897844 93.977102 
L 360.736744 96.750826 
L 361.156195 96.446203 
L 361.575645 96.881079 
L 361.995095 96.743294 
L 362.414545 95.18063 
L 362.833996 96.987429 
L 363.253446 94.816678 
L 363.672896 94.049009 
L 364.092347 93.968581 
L 364.931247 91.266099 
L 365.350698 88.250539 
L 365.770148 90.307138 
L 366.189598 94.148373 
L 366.609049 89.821561 
L 367.028499 89.618303 
L 367.447949 92.521831 
L 368.28685 88.657304 
L 368.7063 88.605646 
L 369.125751 89.421474 
L 369.545201 89.388183 
L 369.964651 90.01293 
L 370.384101 82.668357 
L 370.803552 81.884295 
L 371.223002 82.103238 
L 371.642452 80.602198 
L 372.061903 80.109868 
L 372.481353 77.499223 
L 372.900803 80.816416 
L 373.320254 82.109835 
L 373.739704 79.272044 
L 374.159154 81.14199 
L 374.578605 77.962026 
L 374.998055 76.342908 
L 375.417505 72.414946 
L 375.836956 73.471892 
L 376.256406 67.652037 
L 376.675856 70.009636 
L 377.514757 73.594533 
L 377.934207 71.897777 
L 378.353658 72.228763 
L 378.773108 72.940599 
L 379.192558 72.795671 
L 379.612008 74.864328 
L 380.031459 73.90002 
L 380.450909 72.388279 
L 380.870359 72.736968 
L 381.28981 71.187692 
L 381.70926 71.581318 
L 382.12871 69.686549 
L 382.548161 71.02411 
L 382.967611 74.633138 
L 383.387061 72.204459 
L 383.806512 68.52247 
L 384.225962 71.573868 
L 384.645412 69.801285 
L 385.064863 71.642352 
L 385.484313 69.979876 
L 385.903763 69.956237 
L 387.162114 63.555881 
L 387.581564 66.423512 
L 388.001015 66.204239 
L 388.420465 64.768833 
L 388.839915 65.191895 
L 389.259366 67.638044 
L 390.098266 65.524693 
L 390.517717 67.07359 
L 390.937167 66.202179 
L 391.356617 64.513647 
L 391.776068 64.546483 
L 392.614968 61.744708 
L 393.034419 62.96709 
L 393.453869 62.947263 
L 393.873319 60.286383 
L 394.29277 61.65711 
L 395.13167 61.427212 
L 395.551121 59.949319 
L 395.970571 61.636985 
L 396.390021 61.686654 
L 396.809471 58.716328 
L 397.228922 58.67995 
L 397.648372 57.274423 
L 398.067822 53.568 
L 398.487273 55.158877 
L 398.487273 55.158877 
" clip-path="url(#p550f1e5c64)" style="fill: none; stroke: #1f77b4; stroke-width: 1.5; stroke-linecap: square"/>
   </g>
   <g id="line2d_16">
    <path d="M 73.832727 294.836435 
L 75.510529 294.699066 
L 75.929979 294.814034 
L 85.157886 294.561989 
L 85.996786 294.553257 
L 88.094038 294.487697 
L 90.19129 294.554819 
L 91.869091 294.551791 
L 97.741395 294.470174 
L 98.160846 294.27661 
L 114.099958 294.439592 
L 116.197209 294.500842 
L 121.650063 294.217507 
L 126.683467 294.395801 
L 132.555772 293.94956 
L 133.394672 293.8931 
L 134.233573 293.830666 
L 135.072474 293.927802 
L 135.911374 293.940568 
L 136.750275 293.991626 
L 138.008626 294.026133 
L 138.847526 293.725187 
L 139.686427 293.763652 
L 140.105877 293.843113 
L 141.783679 293.741906 
L 142.203129 293.796256 
L 142.622579 293.663824 
L 144.719831 293.616632 
L 145.558732 293.447903 
L 148.494884 293.353167 
L 150.592135 293.082474 
L 151.011586 293.202313 
L 152.269937 292.879989 
L 153.947738 292.61786 
L 154.786638 292.625235 
L 156.044989 292.21589 
L 157.722791 291.9287 
L 158.142241 292.052855 
L 159.820042 291.924834 
L 165.692347 290.871041 
L 166.111797 290.917319 
L 166.950698 290.652892 
L 167.789598 290.547743 
L 168.209049 290.30603 
L 169.4674 290.581141 
L 170.3063 290.391292 
L 170.725751 290.335487 
L 171.145201 290.100615 
L 171.564651 290.118203 
L 171.984101 289.944219 
L 173.242452 289.855317 
L 173.661903 289.607225 
L 174.920254 289.356358 
L 175.339704 289.359067 
L 175.759154 289.200146 
L 176.178605 289.183996 
L 177.856406 288.691206 
L 178.695307 288.45437 
L 179.114757 288.203499 
L 179.534207 288.345837 
L 180.792558 287.845039 
L 181.631459 287.427617 
L 182.050909 287.111316 
L 182.88981 286.891588 
L 183.30926 286.992547 
L 184.148161 286.838178 
L 185.406512 285.656964 
L 185.825962 285.373218 
L 186.245412 285.451224 
L 186.664863 285.298992 
L 187.923214 284.412062 
L 188.342664 284.261987 
L 189.181564 283.545479 
L 189.601015 283.447305 
L 190.020465 282.095064 
L 190.439915 282.221316 
L 190.859366 283.122141 
L 191.278816 283.024319 
L 192.117717 282.333089 
L 192.537167 282.957721 
L 192.956617 282.148939 
L 193.376068 282.099195 
L 193.795518 281.847804 
L 194.214968 281.259819 
L 194.634419 281.289698 
L 195.473319 280.389127 
L 195.89277 280.416286 
L 196.31222 280.215071 
L 196.73167 279.484581 
L 197.151121 279.731241 
L 197.570571 279.178337 
L 197.990021 279.34419 
L 198.409471 279.144592 
L 198.828922 279.226048 
L 199.248372 278.603064 
L 199.667822 278.627076 
L 200.087273 277.991505 
L 200.506723 278.101926 
L 201.345624 276.760466 
L 201.765074 276.495001 
L 202.184524 276.410577 
L 202.603975 276.102689 
L 203.023425 276.072172 
L 203.442875 276.190027 
L 203.862326 276.167675 
L 205.120677 275.727527 
L 205.540127 275.870833 
L 206.379027 275.500506 
L 206.798478 274.862042 
L 207.217928 273.428956 
L 207.637378 274.498684 
L 208.056829 274.850844 
L 208.476279 274.481144 
L 208.895729 274.695594 
L 209.31518 274.160587 
L 210.15408 273.468816 
L 210.573531 272.78302 
L 210.992981 272.352924 
L 211.412431 271.451909 
L 211.831882 268.785265 
L 212.251332 267.077235 
L 212.670782 269.607522 
L 213.090233 270.274777 
L 213.509683 270.293129 
L 213.929133 270.559821 
L 214.348584 270.540616 
L 214.768034 270.897539 
L 215.187484 270.160966 
L 215.606934 270.290485 
L 216.026385 268.914799 
L 216.445835 268.494414 
L 216.865285 268.733417 
L 217.704186 267.361581 
L 218.123636 267.732888 
L 218.543087 267.697088 
L 218.962537 267.254994 
L 219.381987 266.613329 
L 219.801438 266.279472 
L 220.220888 266.326793 
L 221.059789 264.337797 
L 221.479239 263.752775 
L 221.898689 263.438388 
L 222.31814 262.292455 
L 222.73759 261.895557 
L 223.995941 259.584847 
L 224.415391 259.977149 
L 225.254292 259.591308 
L 226.093192 258.850502 
L 226.512643 259.172556 
L 227.351543 258.764164 
L 228.190444 257.742325 
L 229.448795 257.220008 
L 229.868245 257.223431 
L 230.287696 256.152097 
L 230.707146 256.044185 
L 231.126596 256.073545 
L 231.546047 255.524863 
L 232.804397 252.808226 
L 233.223848 252.295799 
L 233.643298 249.822999 
L 234.062748 246.334216 
L 234.482199 251.510655 
L 234.901649 252.638632 
L 235.321099 252.323688 
L 235.74055 251.768312 
L 236.16 251.843891 
L 236.57945 252.129919 
L 237.418351 250.961406 
L 238.257252 250.428226 
L 238.676702 249.996984 
L 239.096152 248.765583 
L 239.515603 248.479928 
L 239.935053 248.410119 
L 240.773953 247.320488 
L 241.193404 246.025269 
L 241.612854 245.218059 
L 242.032304 245.726783 
L 242.871205 244.135803 
L 243.290655 242.672206 
L 243.710106 242.2465 
L 244.129556 242.0383 
L 244.968457 239.691218 
L 245.387907 237.863338 
L 245.807357 238.66381 
L 246.226808 238.512924 
L 246.646258 237.593174 
L 247.065708 236.972407 
L 247.485159 236.813475 
L 247.904609 236.925858 
L 248.324059 238.194335 
L 248.74351 237.543938 
L 249.16296 237.835005 
L 249.58241 237.144505 
L 250.00186 237.219564 
L 250.421311 236.442931 
L 251.260211 234.270752 
L 251.679662 234.488934 
L 252.518562 231.416676 
L 252.938013 232.144663 
L 253.357463 231.57889 
L 253.776913 230.239945 
L 254.196364 230.140532 
L 254.615814 229.241897 
L 255.035264 228.730242 
L 255.454715 225.161356 
L 255.874165 216.926555 
L 256.293615 222.854658 
L 256.713066 226.015557 
L 257.132516 226.349463 
L 257.971416 226.001494 
L 258.390867 226.098083 
L 258.810317 226.053838 
L 259.229767 225.069973 
L 259.649218 224.824421 
L 260.068668 225.130898 
L 260.907569 223.979845 
L 261.746469 221.913139 
L 262.16592 219.649497 
L 262.58537 220.411001 
L 263.00482 220.298229 
L 263.424271 216.192859 
L 263.843721 217.093241 
L 264.682622 214.354089 
L 265.102072 211.718551 
L 265.521522 211.623567 
L 265.940973 211.262637 
L 266.779873 206.671815 
L 267.199323 206.367235 
L 267.618774 205.689387 
L 268.038224 205.358352 
L 268.877125 202.738364 
L 269.296575 202.513776 
L 269.716025 202.436191 
L 270.135476 203.584871 
L 270.554926 203.717169 
L 270.974376 204.691696 
L 271.393827 205.371464 
L 272.232727 205.913208 
L 272.652178 203.589603 
L 273.071628 203.00357 
L 273.491078 203.510353 
L 273.910529 202.475857 
L 274.329979 200.572404 
L 274.749429 202.229148 
L 275.168879 202.885898 
L 275.58833 200.925737 
L 276.00778 200.684636 
L 276.42723 199.580747 
L 276.846681 193.99703 
L 277.266131 196.232886 
L 277.685581 186.998594 
L 278.524482 197.963349 
L 278.943932 196.54059 
L 279.363383 198.035407 
L 279.782833 197.480519 
L 280.202283 197.388341 
L 280.621734 195.940646 
L 281.041184 198.384469 
L 281.460634 199.061236 
L 281.880085 198.427611 
L 282.299535 197.039695 
L 282.718985 196.566533 
L 283.138436 195.483147 
L 283.557886 195.407693 
L 283.977336 197.325377 
L 284.396786 196.229279 
L 284.816237 194.67059 
L 285.235687 192.479979 
L 285.655137 192.271698 
L 286.074588 191.365812 
L 286.494038 191.47647 
L 286.913488 189.144489 
L 287.332939 189.090696 
L 287.752389 187.485733 
L 288.171839 187.230233 
L 288.59129 186.740466 
L 289.01074 185.206995 
L 289.849641 185.219669 
L 290.688541 184.599188 
L 291.107992 185.521495 
L 291.527442 183.957929 
L 291.946892 183.125529 
L 292.366342 186.106079 
L 292.785793 186.254224 
L 293.205243 186.1132 
L 293.624693 186.20321 
L 294.044144 186.128075 
L 294.463594 184.635691 
L 294.883044 184.991576 
L 295.302495 185.594289 
L 295.721945 184.929083 
L 296.141395 181.875684 
L 296.560846 182.712518 
L 296.980296 182.295215 
L 297.399746 179.049313 
L 297.819197 180.637406 
L 299.077548 176.402507 
L 299.496998 163.162247 
L 299.916448 168.240852 
L 300.335899 175.879125 
L 300.755349 177.281007 
L 301.594249 175.926754 
L 302.0137 174.598628 
L 302.43315 175.591567 
L 302.8526 175.309816 
L 303.272051 176.35478 
L 303.691501 173.995731 
L 304.110951 176.079393 
L 304.949852 173.915741 
L 305.369302 173.885354 
L 305.788753 174.531771 
L 306.208203 171.827635 
L 306.627653 171.370396 
L 307.047104 169.106359 
L 307.466554 171.185576 
L 307.886004 172.50796 
L 308.305455 169.9684 
L 309.144355 162.88613 
L 309.563805 164.433957 
L 309.983256 163.158889 
L 310.402706 162.462527 
L 310.822156 160.808622 
L 311.241607 161.496316 
L 311.661057 161.688565 
L 312.080507 161.515759 
L 312.499958 160.96585 
L 312.919408 160.088815 
L 313.338858 157.640974 
L 313.758309 160.733789 
L 314.177759 161.60938 
L 314.597209 161.774103 
L 315.01666 163.165794 
L 315.43611 163.938123 
L 316.275011 163.651376 
L 316.694461 164.187962 
L 317.113911 163.878387 
L 317.533362 164.58029 
L 318.372262 161.748236 
L 318.791712 163.530747 
L 319.211163 162.925184 
L 319.630613 161.417969 
L 320.050063 161.584471 
L 320.469514 160.858576 
L 320.888964 158.598443 
L 321.308414 146.103364 
L 321.727865 145.770712 
L 322.147315 158.00111 
L 322.566765 159.716001 
L 322.986216 160.067096 
L 323.405666 158.886763 
L 323.825116 157.292604 
L 324.664017 155.506288 
L 325.083467 155.4557 
L 325.502918 156.048356 
L 325.922368 155.623797 
L 326.341818 146.086899 
L 326.761268 141.924567 
L 327.180719 140.303709 
L 327.600169 141.512195 
L 328.85852 137.277475 
L 329.27797 137.574711 
L 329.697421 139.817499 
L 330.116871 137.762279 
L 330.536321 136.977903 
L 330.955772 138.812963 
L 331.375222 139.821852 
L 332.214123 136.649393 
L 332.633573 133.629052 
L 333.053023 133.400587 
L 333.472474 131.761339 
L 333.891924 133.177242 
L 334.311374 132.982586 
L 334.730825 134.101485 
L 335.150275 133.029351 
L 335.569725 133.038289 
L 335.989175 133.982975 
L 336.408626 135.653507 
L 336.828076 134.855257 
L 337.247526 136.772033 
L 338.086427 136.907315 
L 338.505877 137.647111 
L 338.925328 136.299114 
L 339.344778 136.489379 
L 339.764228 135.423398 
L 340.183679 133.49403 
L 340.603129 135.694298 
L 341.022579 136.137089 
L 341.44203 135.921855 
L 341.86148 138.39453 
L 342.28093 136.323278 
L 343.119831 127.949567 
L 343.539281 121.288936 
L 344.378182 131.253913 
L 344.797632 130.516394 
L 345.217082 131.436371 
L 345.636533 130.296655 
L 346.475433 129.320781 
L 346.894884 129.465596 
L 347.314334 131.124595 
L 347.733784 130.714115 
L 348.153235 130.506775 
L 348.572685 128.557314 
L 348.992135 131.751455 
L 349.831036 128.743735 
L 350.250486 131.011444 
L 350.669937 129.694164 
L 351.089387 126.266393 
L 351.508837 126.603165 
L 351.928288 124.56456 
L 352.347738 123.370013 
L 352.767188 125.245512 
L 353.186638 125.624702 
L 354.025539 118.124685 
L 354.444989 117.996999 
L 354.86444 117.625963 
L 355.28389 116.866341 
L 355.70334 114.108567 
L 356.122791 115.563497 
L 356.542241 114.187049 
L 356.961691 114.292485 
L 357.381142 115.539647 
L 357.800592 118.590775 
L 358.220042 119.298253 
L 358.639493 119.349051 
L 359.058943 120.879635 
L 359.478393 118.656437 
L 360.317294 119.844696 
L 360.736744 120.121829 
L 361.156195 119.894688 
L 361.575645 119.446252 
L 361.995095 121.857299 
L 362.414545 120.74796 
L 362.833996 121.278441 
L 363.253446 119.702077 
L 363.672896 120.794524 
L 364.511797 118.105836 
L 364.931247 112.746734 
L 365.350698 100.197991 
L 365.770148 107.433603 
L 366.189598 112.741955 
L 366.609049 113.086399 
L 367.028499 114.844908 
L 367.447949 113.180669 
L 367.8674 115.985526 
L 368.28685 114.994583 
L 368.7063 111.510191 
L 369.125751 113.418262 
L 369.545201 113.411725 
L 369.964651 115.750432 
L 370.384101 111.783042 
L 370.803552 105.068417 
L 371.223002 105.227317 
L 371.642452 115.801966 
L 372.061903 103.93074 
L 372.900803 100.41262 
L 373.320254 104.161688 
L 373.739704 103.98076 
L 374.159154 102.615737 
L 374.578605 99.476201 
L 374.998055 100.127911 
L 375.836956 92.398077 
L 376.256406 93.178728 
L 376.675856 92.951598 
L 377.095307 90.464464 
L 377.514757 90.371876 
L 377.934207 91.295972 
L 378.353658 90.022154 
L 378.773108 90.875528 
L 379.192558 90.979033 
L 379.612008 94.368511 
L 380.031459 95.213694 
L 380.870359 98.264956 
L 381.28981 96.169162 
L 381.70926 97.324039 
L 382.12871 97.457769 
L 382.548161 94.561367 
L 382.967611 97.814179 
L 383.387061 98.7176 
L 383.806512 95.571796 
L 384.225962 94.720872 
L 384.645412 97.048219 
L 385.064863 93.469924 
L 385.484313 96.954014 
L 385.903763 97.261475 
L 386.323214 92.822788 
L 387.162114 78.390176 
L 387.581564 85.776501 
L 388.001015 90.809152 
L 388.420465 90.733314 
L 388.839915 91.327717 
L 389.259366 90.167255 
L 389.678816 90.303002 
L 390.098266 91.037531 
L 390.937167 88.680667 
L 391.356617 91.766637 
L 392.195518 84.372434 
L 392.614968 88.152343 
L 393.034419 83.789299 
L 393.453869 86.514415 
L 393.873319 87.183709 
L 394.29277 85.868916 
L 394.71222 82.633509 
L 395.13167 87.534004 
L 395.551121 87.371768 
L 395.970571 83.880607 
L 396.390021 84.472398 
L 396.809471 83.882564 
L 397.228922 79.152599 
L 398.067822 74.491962 
L 398.487273 74.85677 
L 398.487273 74.85677 
" clip-path="url(#p550f1e5c64)" style="fill: none; stroke: #ff7f0e; stroke-width: 1.5; stroke-linecap: square"/>
   </g>
   <g id="line2d_17">
    <path d="M 73.832727 295.304769 
L 80.124482 295.274615 
L 80.543932 295.342672 
L 81.382833 295.230699 
L 81.802283 295.316497 
L 82.221734 295.216268 
L 82.641184 295.315913 
L 83.899535 295.214408 
L 95.644144 295.278632 
L 96.063594 295.236674 
L 96.483044 295.333231 
L 97.741395 295.029442 
L 98.160846 295.223589 
L 113.680507 295.42928 
L 114.938858 295.433476 
L 119.133362 295.321093 
L 120.391712 295.322947 
L 120.811163 295.389172 
L 121.650063 295.354924 
L 122.488964 295.355622 
L 123.327865 295.365581 
L 123.747315 295.461776 
L 127.102918 295.366538 
L 136.750275 295.427037 
L 137.169725 295.488 
L 138.428076 295.346084 
L 138.847526 295.441262 
L 139.686427 295.300773 
L 140.105877 295.277032 
L 140.525328 295.409075 
L 140.944778 295.41041 
L 141.364228 295.289743 
L 142.622579 295.45193 
L 143.04203 295.306467 
L 144.300381 295.285931 
L 144.719831 295.141398 
L 145.978182 295.402824 
L 146.817082 295.140295 
L 147.236533 295.227466 
L 147.655983 295.109075 
L 149.753235 295.319417 
L 150.592135 295.237004 
L 151.011586 294.910386 
L 151.431036 295.122366 
L 151.850486 295.023402 
L 153.108837 295.213154 
L 153.528288 295.06808 
L 153.947738 295.116034 
L 154.786638 294.885373 
L 155.206089 294.93954 
L 156.044989 294.855624 
L 156.46444 295.000828 
L 157.30334 294.842096 
L 157.722791 295.090519 
L 161.917294 294.826605 
L 162.336744 294.608467 
L 162.756195 294.553084 
L 163.595095 294.736753 
L 164.433996 294.692069 
L 164.853446 294.957864 
L 166.531247 294.632085 
L 167.789598 294.668657 
L 168.209049 294.945234 
L 169.4674 294.481598 
L 170.3063 294.564622 
L 170.725751 294.503848 
L 171.145201 294.731032 
L 171.564651 294.50939 
L 172.403552 294.79033 
L 173.661903 294.402311 
L 174.920254 294.503042 
L 175.339704 294.286991 
L 175.759154 294.426383 
L 176.598055 294.118835 
L 177.017505 294.271955 
L 177.436956 294.163351 
L 177.856406 294.235409 
L 178.695307 294.186227 
L 179.534207 294.178647 
L 179.953658 294.068648 
L 180.373108 294.189336 
L 181.631459 294.015627 
L 182.050909 294.217896 
L 182.88981 294.062208 
L 183.30926 293.775667 
L 183.72871 293.644964 
L 184.148161 293.327722 
L 184.987061 293.282807 
L 185.406512 293.020337 
L 185.825962 293.541183 
L 186.245412 293.504194 
L 186.664863 293.205384 
L 187.084313 293.151093 
L 187.503763 292.744755 
L 187.923214 292.959547 
L 188.342664 292.394785 
L 189.181564 292.888304 
L 189.601015 292.783902 
L 190.020465 293.862913 
L 190.439915 293.786248 
L 190.859366 292.586921 
L 191.278816 292.455208 
L 191.698266 292.502091 
L 192.117717 292.728069 
L 192.537167 291.796819 
L 192.956617 292.57794 
L 193.376068 292.582693 
L 193.795518 292.139485 
L 194.214968 292.718315 
L 194.634419 291.924775 
L 195.053869 292.043571 
L 195.473319 292.485811 
L 195.89277 292.516203 
L 196.31222 292.434677 
L 196.73167 292.729632 
L 197.151121 292.236972 
L 197.570571 292.528877 
L 197.990021 291.909781 
L 198.409471 292.387264 
L 198.828922 292.105772 
L 199.248372 292.505233 
L 199.667822 292.306889 
L 200.087273 292.651074 
L 200.926173 291.638768 
L 201.345624 292.458403 
L 201.765074 292.32536 
L 202.184524 291.890754 
L 202.603975 292.159247 
L 203.023425 292.586423 
L 203.442875 292.146038 
L 204.281776 291.767811 
L 204.701226 291.22591 
L 205.120677 291.488039 
L 205.540127 291.320104 
L 205.959577 290.854403 
L 206.379027 290.982299 
L 206.798478 288.110823 
L 207.217928 291.853268 
L 207.637378 292.159263 
L 208.056829 291.138625 
L 208.476279 291.134765 
L 209.31518 290.515934 
L 209.73463 290.560644 
L 210.15408 290.271518 
L 210.573531 290.402085 
L 211.412431 289.794906 
L 211.831882 291.750384 
L 212.251332 292.492899 
L 212.670782 289.325144 
L 213.090233 289.675953 
L 213.929133 289.263294 
L 214.348584 289.446963 
L 214.768034 289.397132 
L 215.187484 290.016542 
L 215.606934 287.641824 
L 216.026385 289.349605 
L 216.445835 289.34163 
L 216.865285 288.647642 
L 217.284736 289.008048 
L 217.704186 289.560514 
L 218.123636 289.212279 
L 218.543087 289.295016 
L 218.962537 288.039933 
L 219.381987 288.619785 
L 219.801438 288.20697 
L 220.220888 287.566949 
L 220.640338 289.045924 
L 221.059789 287.922094 
L 221.479239 289.001235 
L 221.898689 287.904413 
L 222.31814 288.374585 
L 222.73759 287.756803 
L 223.15704 289.25899 
L 223.57649 288.933675 
L 223.995941 287.929047 
L 224.834841 288.838226 
L 225.254292 288.521271 
L 225.673742 287.328264 
L 226.093192 288.089444 
L 226.512643 286.333866 
L 226.932093 286.884067 
L 227.351543 285.993763 
L 228.190444 285.18145 
L 229.029345 285.335364 
L 229.448795 285.396263 
L 229.868245 284.2619 
L 230.287696 285.470857 
L 230.707146 285.154518 
L 231.126596 284.00427 
L 231.546047 284.268464 
L 231.965497 284.009568 
L 232.384947 284.12392 
L 233.223848 285.445093 
L 233.643298 287.371201 
L 234.062748 288.531101 
L 234.482199 284.020572 
L 234.901649 283.59273 
L 235.321099 283.645264 
L 235.74055 284.129668 
L 236.16 284.046428 
L 236.57945 283.806667 
L 237.418351 284.694191 
L 237.837801 283.590913 
L 238.257252 283.855032 
L 238.676702 283.124228 
L 239.096152 284.352364 
L 239.515603 284.461492 
L 239.935053 283.356755 
L 240.773953 282.297381 
L 241.193404 281.635067 
L 241.612854 283.779075 
L 242.032304 282.710045 
L 242.451755 282.372965 
L 242.871205 283.400675 
L 243.290655 282.391662 
L 243.710106 283.180131 
L 244.129556 283.085147 
L 244.549006 282.610892 
L 244.968457 283.690601 
L 245.387907 284.232459 
L 245.807357 283.741638 
L 246.226808 282.875346 
L 246.646258 283.254742 
L 247.065708 284.16258 
L 247.485159 283.625015 
L 248.324059 281.504927 
L 248.74351 281.639993 
L 249.16296 279.638993 
L 250.00186 279.606254 
L 250.421311 278.383282 
L 250.840761 279.775984 
L 251.260211 279.570406 
L 251.679662 278.311245 
L 252.099112 277.644357 
L 252.518562 279.241825 
L 252.938013 277.834963 
L 253.776913 277.584837 
L 254.615814 278.155536 
L 255.035264 276.299637 
L 255.454715 279.037859 
L 255.874165 283.347363 
L 256.713066 276.347743 
L 257.132516 276.622459 
L 257.551966 276.050701 
L 257.971416 276.827621 
L 258.390867 277.31987 
L 258.810317 277.132719 
L 259.229767 277.099098 
L 259.649218 277.650651 
L 260.068668 276.743202 
L 260.488118 276.642752 
L 260.907569 276.125528 
L 261.327019 277.141635 
L 261.746469 277.296068 
L 262.16592 276.949477 
L 262.58537 277.007056 
L 263.00482 273.619519 
L 263.424271 277.995842 
L 263.843721 275.192823 
L 264.263171 275.24307 
L 264.682622 276.053167 
L 265.102072 278.201673 
L 265.521522 277.332917 
L 265.940973 275.928731 
L 266.360423 275.404635 
L 266.779873 278.34426 
L 267.199323 277.798244 
L 267.618774 277.807582 
L 268.038224 276.890617 
L 268.457674 277.839635 
L 268.877125 278.41813 
L 269.296575 278.663352 
L 269.716025 279.041254 
L 270.135476 276.861333 
L 270.554926 275.283746 
L 270.974376 275.604 
L 271.393827 274.949224 
L 271.813277 275.883842 
L 272.232727 274.29861 
L 272.652178 274.659562 
L 273.071628 275.497083 
L 273.491078 274.142987 
L 273.910529 274.683261 
L 274.329979 276.093876 
L 274.749429 274.076709 
L 275.168879 272.987732 
L 275.58833 274.39035 
L 276.00778 274.524237 
L 276.42723 289.979439 
L 276.846681 279.389938 
L 277.266131 276.377811 
L 277.685581 281.690159 
L 278.105032 280.32314 
L 278.524482 274.065349 
L 278.943932 275.255133 
L 279.363383 273.757742 
L 279.782833 273.825697 
L 280.202283 273.677908 
L 280.621734 276.45865 
L 281.041184 274.859928 
L 281.460634 273.977718 
L 281.880085 273.466415 
L 282.299535 274.936544 
L 282.718985 275.101678 
L 283.138436 275.84329 
L 283.557886 275.60579 
L 283.977336 271.115964 
L 284.396786 273.227293 
L 284.816237 272.061873 
L 285.235687 275.401137 
L 285.655137 273.322893 
L 286.074588 272.80109 
L 286.913488 274.113384 
L 287.332939 273.004651 
L 288.171839 275.568325 
L 288.59129 276.55943 
L 289.01074 277.237003 
L 289.849641 275.512579 
L 290.688541 277.57451 
L 291.107992 276.817212 
L 291.527442 276.433319 
L 291.946892 276.540344 
L 292.366342 272.148065 
L 292.785793 271.652091 
L 293.205243 271.595404 
L 293.624693 271.653129 
L 294.044144 271.542048 
L 294.463594 272.073011 
L 294.883044 270.73931 
L 295.302495 271.267981 
L 295.721945 268.34921 
L 296.141395 271.494791 
L 296.560846 270.220913 
L 296.980296 268.024252 
L 297.399746 270.485854 
L 297.819197 268.426351 
L 298.238647 269.783469 
L 298.658097 269.82679 
L 299.077548 271.150931 
L 299.496998 283.102747 
L 300.335899 270.912614 
L 300.755349 270.463339 
L 301.174799 270.194187 
L 301.594249 269.549018 
L 302.0137 271.989798 
L 302.43315 270.793418 
L 302.8526 271.559491 
L 303.272051 268.802183 
L 303.691501 270.563774 
L 304.530402 269.133386 
L 304.949852 270.228699 
L 305.369302 269.728994 
L 305.788753 269.033346 
L 306.208203 271.581216 
L 306.627653 268.367631 
L 307.047104 270.524741 
L 307.466554 268.735234 
L 307.886004 268.300737 
L 308.305455 268.401674 
L 309.144355 271.749059 
L 309.563805 269.721581 
L 309.983256 271.161399 
L 310.402706 271.512862 
L 310.822156 271.289603 
L 311.241607 272.14992 
L 311.661057 270.309485 
L 312.080507 272.011761 
L 312.499958 271.465253 
L 312.919408 271.678606 
L 313.338858 274.071102 
L 314.177759 268.748216 
L 314.597209 268.745886 
L 315.01666 268.90106 
L 315.43611 267.604591 
L 315.85556 268.368096 
L 316.275011 268.785178 
L 316.694461 266.266192 
L 317.113911 267.763037 
L 317.533362 267.38017 
L 318.372262 269.02529 
L 318.791712 265.467012 
L 319.630613 267.568089 
L 320.050063 267.529759 
L 320.469514 267.223012 
L 320.888964 269.031427 
L 321.308414 280.219446 
L 321.727865 279.980788 
L 322.147315 268.55807 
L 322.566765 267.083323 
L 322.986216 266.786255 
L 323.405666 267.120447 
L 323.825116 267.701998 
L 324.244567 269.161945 
L 324.664017 268.578503 
L 325.083467 269.215718 
L 325.502918 268.369551 
L 325.922368 267.856604 
L 326.341818 277.62261 
L 326.761268 282.428965 
L 327.180719 283.756226 
L 328.019619 281.439708 
L 328.85852 282.628697 
L 329.27797 282.617732 
L 329.697421 279.768803 
L 330.116871 279.806641 
L 330.536321 281.243609 
L 330.955772 276.513617 
L 331.375222 277.821521 
L 331.794672 277.396854 
L 332.214123 276.454298 
L 332.633573 280.241582 
L 333.053023 278.833016 
L 333.472474 279.367629 
L 333.891924 278.0574 
L 334.311374 277.423321 
L 334.730825 278.38199 
L 335.150275 277.72332 
L 335.569725 278.363368 
L 335.989175 277.79945 
L 336.408626 275.301573 
L 336.828076 275.393307 
L 337.247526 272.354865 
L 337.666977 274.459175 
L 338.086427 274.474812 
L 338.505877 272.757639 
L 338.925328 274.659465 
L 339.344778 275.811968 
L 339.764228 275.833633 
L 340.183679 275.333139 
L 340.603129 277.166729 
L 341.44203 274.279745 
L 341.86148 273.126459 
L 342.28093 275.293041 
L 342.700381 276.84834 
L 343.119831 280.439152 
L 343.539281 285.132717 
L 344.378182 275.40025 
L 344.797632 276.36192 
L 346.055983 275.53943 
L 346.475433 277.1219 
L 346.894884 276.686542 
L 347.314334 272.505059 
L 347.733784 272.360672 
L 348.153235 270.851272 
L 348.572685 275.619853 
L 348.992135 273.360677 
L 349.411586 274.136007 
L 349.831036 275.273489 
L 350.250486 273.14993 
L 350.669937 269.494997 
L 351.089387 276.246719 
L 351.508837 273.994561 
L 351.928288 276.496034 
L 352.347738 278.196645 
L 352.767188 271.611933 
L 353.186638 270.630896 
L 353.606089 272.430708 
L 354.025539 276.161187 
L 354.444989 278.002346 
L 354.86444 276.010446 
L 355.28389 276.30559 
L 355.70334 277.843101 
L 356.122791 275.946871 
L 356.542241 275.936885 
L 356.961691 276.038735 
L 357.381142 278.152951 
L 357.800592 273.289175 
L 358.220042 271.433969 
L 358.639493 273.565995 
L 359.058943 270.828309 
L 359.478393 272.626591 
L 359.897844 270.310723 
L 360.736744 272.192153 
L 361.156195 272.114672 
L 361.575645 272.997984 
L 361.995095 270.449152 
L 362.414545 269.995827 
L 362.833996 271.272144 
L 363.253446 270.677758 
L 363.672896 268.817641 
L 364.092347 270.17417 
L 364.511797 270.156376 
L 364.931247 274.082521 
L 365.350698 283.615704 
L 365.770148 278.436692 
L 366.189598 276.969575 
L 366.609049 272.298319 
L 367.028499 270.336552 
L 367.447949 274.904319 
L 367.8674 270.161075 
L 368.28685 269.225877 
L 368.7063 272.658611 
L 369.125751 271.566369 
L 369.545201 271.539615 
L 369.964651 269.825654 
L 370.384101 266.448471 
L 370.803552 272.379034 
L 371.223002 272.439078 
L 371.642452 260.363389 
L 372.061903 271.742284 
L 372.481353 270.69592 
L 372.900803 275.966953 
L 373.739704 270.854441 
L 374.159154 274.08941 
L 374.578605 274.048982 
L 374.998055 271.778154 
L 375.417505 271.903011 
L 375.836956 276.636972 
L 376.256406 270.036466 
L 376.675856 272.621195 
L 377.095307 276.830286 
L 377.514757 278.785814 
L 377.934207 276.164961 
L 378.353658 277.769766 
L 379.192558 277.379795 
L 379.612008 276.058974 
L 380.031459 274.249483 
L 380.450909 271.324656 
L 380.870359 270.035168 
L 381.28981 270.581687 
L 381.70926 269.820437 
L 382.12871 267.791937 
L 382.548161 272.0259 
L 382.967611 272.382116 
L 383.387061 269.050016 
L 383.806512 268.51383 
L 384.225962 272.416153 
L 384.645412 268.316222 
L 385.064863 273.735584 
L 385.484313 268.589019 
L 385.903763 268.257919 
L 386.323214 270.365571 
L 386.742664 274.73706 
L 387.162114 280.728862 
L 388.001015 270.958243 
L 388.420465 269.598676 
L 388.839915 269.427335 
L 389.259366 273.033946 
L 390.098266 270.050319 
L 390.517717 272.881421 
L 390.937167 273.084668 
L 391.356617 268.310166 
L 391.776068 272.442528 
L 392.195518 274.503885 
L 392.614968 269.155522 
L 393.034419 274.740948 
L 393.873319 268.66583 
L 394.71222 274.424225 
L 395.13167 269.456365 
L 395.551121 268.140707 
L 395.970571 273.319535 
L 396.390021 272.777413 
L 396.809471 270.39692 
L 397.228922 275.090507 
L 397.648372 276.083208 
L 398.067822 274.639194 
L 398.487273 275.865264 
L 398.487273 275.865264 
" clip-path="url(#p550f1e5c64)" style="fill: none; stroke: #2ca02c; stroke-width: 1.5; stroke-linecap: square"/>
   </g>
   <g id="patch_3">
    <path d="M 57.6 307.584 
L 57.6 41.472 
" style="fill: none; stroke: #000000; stroke-width: 0.8; stroke-linejoin: miter; stroke-linecap: square"/>
   </g>
   <g id="patch_4">
    <path d="M 414.72 307.584 
L 414.72 41.472 
" style="fill: none; stroke: #000000; stroke-width: 0.8; stroke-linejoin: miter; stroke-linecap: square"/>
   </g>
   <g id="patch_5">
    <path d="M 57.6 307.584 
L 414.72 307.584 
" style="fill: none; stroke: #000000; stroke-width: 0.8; stroke-linejoin: miter; stroke-linecap: square"/>
   </g>
   <g id="patch_6">
    <path d="M 57.6 41.472 
L 414.72 41.472 
" style="fill: none; stroke: #000000; stroke-width: 0.8; stroke-linejoin: miter; stroke-linecap: square"/>
   </g>
   <g id="legend_1">
    <g id="patch_7">
     <path d="M 64.6 93.506375 
L 186.25625 93.506375 
Q 188.25625 93.506375 188.25625 91.506375 
L 188.25625 48.472 
Q 188.25625 46.472 186.25625 46.472 
L 64.6 46.472 
Q 62.6 46.472 62.6 48.472 
L 62.6 91.506375 
Q 62.6 93.506375 64.6 93.506375 
z
" style="fill: #ffffff; opacity: 0.8; stroke: #cccccc; stroke-linejoin: miter"/>
    </g>
    <g id="line2d_18">
     <path d="M 66.6 54.570438 
L 76.6 54.570438 
L 86.6 54.570438 
" style="fill: none; stroke: #1f77b4; stroke-width: 1.5; stroke-linecap: square"/>
    </g>
    <g id="text_17">
     <!-- Weekly maximum -->
     <g transform="translate(94.6 58.070438) scale(0.1 -0.1)">
      <defs>
       <path id="DejaVuSans-57" d="M 213 4666 
L 850 4666 
L 1831 722 
L 2809 4666 
L 3519 4666 
L 4500 722 
L 5478 4666 
L 6119 4666 
L 4947 0 
L 4153 0 
L 3169 4050 
L 2175 0 
L 1381 0 
L 213 4666 
z
" transform="scale(0.015625)"/>
       <path id="DejaVuSans-6b" d="M 581 4863 
L 1159 4863 
L 1159 1991 
L 2875 3500 
L 3609 3500 
L 1753 1863 
L 3688 0 
L 2938 0 
L 1159 1709 
L 1159 0 
L 581 0 
L 581 4863 
z
" transform="scale(0.015625)"/>
       <path id="DejaVuSans-79" d="M 2059 -325 
Q 1816 -950 1584 -1140 
Q 1353 -1331 966 -1331 
L 506 -1331 
L 506 -850 
L 844 -850 
Q 1081 -850 1212 -737 
Q 1344 -625 1503 -206 
L 1606 56 
L 191 3500 
L 800 3500 
L 1894 763 
L 2988 3500 
L 3597 3500 
L 2059 -325 
z
" transform="scale(0.015625)"/>
       <path id="DejaVuSans-6d" d="M 3328 2828 
Q 3544 3216 3844 3400 
Q 4144 3584 4550 3584 
Q 5097 3584 5394 3201 
Q 5691 2819 5691 2113 
L 5691 0 
L 5113 0 
L 5113 2094 
Q 5113 2597 4934 2840 
Q 4756 3084 4391 3084 
Q 3944 3084 3684 2787 
Q 3425 2491 3425 1978 
L 3425 0 
L 2847 0 
L 2847 2094 
Q 2847 2600 2669 2842 
Q 2491 3084 2119 3084 
Q 1678 3084 1418 2786 
Q 1159 2488 1159 1978 
L 1159 0 
L 581 0 
L 581 3500 
L 1159 3500 
L 1159 2956 
Q 1356 3278 1631 3431 
Q 1906 3584 2284 3584 
Q 2666 3584 2933 3390 
Q 3200 3197 3328 2828 
z
" transform="scale(0.015625)"/>
       <path id="DejaVuSans-78" d="M 3513 3500 
L 2247 1797 
L 3578 0 
L 2900 0 
L 1881 1375 
L 863 0 
L 184 0 
L 1544 1831 
L 300 3500 
L 978 3500 
L 1906 2253 
L 2834 3500 
L 3513 3500 
z
" transform="scale(0.015625)"/>
       <path id="DejaVuSans-75" d="M 544 1381 
L 544 3500 
L 1119 3500 
L 1119 1403 
Q 1119 906 1312 657 
Q 1506 409 1894 409 
Q 2359 409 2629 706 
Q 2900 1003 2900 1516 
L 2900 3500 
L 3475 3500 
L 3475 0 
L 2900 0 
L 2900 538 
Q 2691 219 2414 64 
Q 2138 -91 1772 -91 
Q 1169 -91 856 284 
Q 544 659 544 1381 
z
M 1991 3584 
L 1991 3584 
z
" transform="scale(0.015625)"/>
      </defs>
      <use xlink:href="#DejaVuSans-57"/>
      <use xlink:href="#DejaVuSans-65" x="93.001953"/>
      <use xlink:href="#DejaVuSans-65" x="154.525391"/>
      <use xlink:href="#DejaVuSans-6b" x="216.048828"/>
      <use xlink:href="#DejaVuSans-6c" x="273.958984"/>
      <use xlink:href="#DejaVuSans-79" x="301.742188"/>
      <use xlink:href="#DejaVuSans-20" x="360.921875"/>
      <use xlink:href="#DejaVuSans-6d" x="392.708984"/>
      <use xlink:href="#DejaVuSans-61" x="490.121094"/>
      <use xlink:href="#DejaVuSans-78" x="551.400391"/>
      <use xlink:href="#DejaVuSans-69" x="610.580078"/>
      <use xlink:href="#DejaVuSans-6d" x="638.363281"/>
      <use xlink:href="#DejaVuSans-75" x="735.775391"/>
      <use xlink:href="#DejaVuSans-6d" x="799.154297"/>
     </g>
    </g>
    <g id="line2d_19">
     <path d="M 66.6 69.248563 
L 76.6 69.248563 
L 86.6 69.248563 
" style="fill: none; stroke: #ff7f0e; stroke-width: 1.5; stroke-linecap: square"/>
    </g>
    <g id="text_18">
     <!-- Weekly minimum -->
     <g transform="translate(94.6 72.748563) scale(0.1 -0.1)">
      <defs>
       <path id="DejaVuSans-6e" d="M 3513 2113 
L 3513 0 
L 2938 0 
L 2938 2094 
Q 2938 2591 2744 2837 
Q 2550 3084 2163 3084 
Q 1697 3084 1428 2787 
Q 1159 2491 1159 1978 
L 1159 0 
L 581 0 
L 581 3500 
L 1159 3500 
L 1159 2956 
Q 1366 3272 1645 3428 
Q 1925 3584 2291 3584 
Q 2894 3584 3203 3211 
Q 3513 2838 3513 2113 
z
" transform="scale(0.015625)"/>
      </defs>
      <use xlink:href="#DejaVuSans-57"/>
      <use xlink:href="#DejaVuSans-65" x="93.001953"/>
      <use xlink:href="#DejaVuSans-65" x="154.525391"/>
      <use xlink:href="#DejaVuSans-6b" x="216.048828"/>
      <use xlink:href="#DejaVuSans-6c" x="273.958984"/>
      <use xlink:href="#DejaVuSans-79" x="301.742188"/>
      <use xlink:href="#DejaVuSans-20" x="360.921875"/>
      <use xlink:href="#DejaVuSans-6d" x="392.708984"/>
      <use xlink:href="#DejaVuSans-69" x="490.121094"/>
      <use xlink:href="#DejaVuSans-6e" x="517.904297"/>
      <use xlink:href="#DejaVuSans-69" x="581.283203"/>
      <use xlink:href="#DejaVuSans-6d" x="609.066406"/>
      <use xlink:href="#DejaVuSans-75" x="706.478516"/>
      <use xlink:href="#DejaVuSans-6d" x="769.857422"/>
     </g>
    </g>
    <g id="line2d_20">
     <path d="M 66.6 83.926688 
L 76.6 83.926688 
L 86.6 83.926688 
" style="fill: none; stroke: #2ca02c; stroke-width: 1.5; stroke-linecap: square"/>
    </g>
    <g id="text_19">
     <!-- Weekly range -->
     <g transform="translate(94.6 87.426688) scale(0.1 -0.1)">
      <use xlink:href="#DejaVuSans-57"/>
      <use xlink:href="#DejaVuSans-65" x="93.001953"/>
      <use xlink:href="#DejaVuSans-65" x="154.525391"/>
      <use xlink:href="#DejaVuSans-6b" x="216.048828"/>
      <use xlink:href="#DejaVuSans-6c" x="273.958984"/>
      <use xlink:href="#DejaVuSans-79" x="301.742188"/>
      <use xlink:href="#DejaVuSans-20" x="360.921875"/>
      <use xlink:href="#DejaVuSans-72" x="392.708984"/>
      <use xlink:href="#DejaVuSans-61" x="433.822266"/>
      <use xlink:href="#DejaVuSans-6e" x="495.101562"/>
      <use xlink:href="#DejaVuSans-67" x="558.480469"/>
      <use xlink:href="#DejaVuSans-65" x="621.957031"/>
     </g>
    </g>
   </g>
  </g>
 </g>
 <defs>
  <clipPath id="p550f1e5c64">
   <rect x="57.6" y="41.472" width="357.12" height="266.112"/>
  </clipPath>
 </defs>
</svg>
