<?xml version="1.0" encoding="utf-8" standalone="no"?>
<!DOCTYPE svg PUBLIC "-//W3C//DTD SVG 1.1//EN"
  "http://www.w3.org/Graphics/SVG/1.1/DTD/svg11.dtd">
<svg xmlns:xlink="http://www.w3.org/1999/xlink" width="460.8pt" height="345.6pt" viewBox="0 0 460.8 345.6" xmlns="http://www.w3.org/2000/svg" version="1.1">
 <metadata>
  <rdf:RDF xmlns:dc="http://purl.org/dc/elements/1.1/" xmlns:cc="http://creativecommons.org/ns#" xmlns:rdf="http://www.w3.org/1999/02/22-rdf-syntax-ns#">
   <cc:Work>
    <dc:type rdf:resource="http://purl.org/dc/dcmitype/StillImage"/>
    <dc:date>2026-06-21T09:05:12.765476</dc:date>
    <dc:format>image/svg+xml</dc:format>
    <dc:creator>
     <cc:Agent>
      <dc:title>Matplotlib v3.10.9, https://matplotlib.org/</dc:title>
     </cc:Agent>
    </dc:creator>
   </cc:Work>
  </rdf:RDF>
 </metadata>
 <defs>
  <style type="text/css">*{stroke-linejoin: round; stroke-linecap: butt}</style>
 </defs>
 <g id="figure_1">
  <g id="patch_1">
   <path d="M 0 345.6 
L 460.8 345.6 
L 460.8 0 
L 0 0 
z
" style="fill: #ffffff"/>
  </g>
  <g id="axes_1">
   <g id="patch_2">
    <path d="M 57.6 307.584 
L 414.72 307.584 
L 414.72 41.472 
L 57.6 41.472 
z
" style="fill: #ffffff"/>
   </g>
   <g id="matplotlib.axis_1">
    <g id="xtick_1">
     <g id="line2d_1">
      <defs>
       <path id="m67555d090e" d="M 0 0 
L 0 3.5 
" style="stroke: #000000; stroke-width: 0.8"/>
      </defs>
      <g>
       <use xlink:href="#m67555d090e" x="61.625036" y="307.584" style="stroke: #000000; stroke-width: 0.8"/>
      </g>
     </g>
     <g id="text_1">
      <!-- 2008 -->
      <g transform="translate(48.900036 322.182437) scale(0.1 -0.1)">
       <defs>
        <path id="DejaVuSans-32" d="M 1228 531 
L 3431 531 
L 3431 0 
L 469 0 
L 469 531 
Q 828 903 1448 1529 
Q 2069 2156 2228 2338 
Q 2531 2678 2651 2914 
Q 2772 3150 2772 3378 
Q 2772 3750 2511 3984 
Q 2250 4219 1831 4219 
Q 1534 4219 1204 4116 
Q 875 4013 500 3803 
L 500 4441 
Q 881 4594 1212 4672 
Q 1544 4750 1819 4750 
Q 2544 4750 2975 4387 
Q 3406 4025 3406 3419 
Q 3406 3131 3298 2873 
Q 3191 2616 2906 2266 
Q 2828 2175 2409 1742 
Q 1991 1309 1228 531 
z
" transform="scale(0.015625)"/>
        <path id="DejaVuSans-30" d="M 2034 4250 
Q 1547 4250 1301 3770 
Q 1056 3291 1056 2328 
Q 1056 1369 1301 889 
Q 1547 409 2034 409 
Q 2525 409 2770 889 
Q 3016 1369 3016 2328 
Q 3016 3291 2770 3770 
Q 2525 4250 2034 4250 
z
M 2034 4750 
Q 2819 4750 3233 4129 
Q 3647 3509 3647 2328 
Q 3647 1150 3233 529 
Q 2819 -91 2034 -91 
Q 1250 -91 836 529 
Q 422 1150 422 2328 
Q 422 3509 836 4129 
Q 1250 4750 2034 4750 
z
" transform="scale(0.015625)"/>
        <path id="DejaVuSans-38" d="M 2034 2216 
Q 1584 2216 1326 1975 
Q 1069 1734 1069 1313 
Q 1069 891 1326 650 
Q 1584 409 2034 409 
Q 2484 409 2743 651 
Q 3003 894 3003 1313 
Q 3003 1734 2745 1975 
Q 2488 2216 2034 2216 
z
M 1403 2484 
Q 997 2584 770 2862 
Q 544 3141 544 3541 
Q 544 4100 942 4425 
Q 1341 4750 2034 4750 
Q 2731 4750 3128 4425 
Q 3525 4100 3525 3541 
Q 3525 3141 3298 2862 
Q 3072 2584 2669 2484 
Q 3125 2378 3379 2068 
Q 3634 1759 3634 1313 
Q 3634 634 3220 271 
Q 2806 -91 2034 -91 
Q 1263 -91 848 271 
Q 434 634 434 1313 
Q 434 1759 690 2068 
Q 947 2378 1403 2484 
z
M 1172 3481 
Q 1172 3119 1398 2916 
Q 1625 2713 2034 2713 
Q 2441 2713 2670 2916 
Q 2900 3119 2900 3481 
Q 2900 3844 2670 4047 
Q 2441 4250 2034 4250 
Q 1625 4250 1398 4047 
Q 1172 3844 1172 3481 
z
" transform="scale(0.015625)"/>
       </defs>
       <use xlink:href="#DejaVuSans-32"/>
       <use xlink:href="#DejaVuSans-30" transform="translate(63.623047 0)"/>
       <use xlink:href="#DejaVuSans-30" transform="translate(127.246094 0)"/>
       <use xlink:href="#DejaVuSans-38" transform="translate(190.869141 0)"/>
      </g>
     </g>
    </g>
    <g id="xtick_2">
     <g id="line2d_2">
      <g>
       <use xlink:href="#m67555d090e" x="98.198078" y="307.584" style="stroke: #000000; stroke-width: 0.8"/>
      </g>
     </g>
     <g id="text_2">
      <!-- 2010 -->
      <g transform="translate(85.473078 322.182437) scale(0.1 -0.1)">
       <defs>
        <path id="DejaVuSans-31" d="M 794 531 
L 1825 531 
L 1825 4091 
L 703 3866 
L 703 4441 
L 1819 4666 
L 2450 4666 
L 2450 531 
L 3481 531 
L 3481 0 
L 794 0 
L 794 531 
z
" transform="scale(0.015625)"/>
       </defs>
       <use xlink:href="#DejaVuSans-32"/>
       <use xlink:href="#DejaVuSans-30" transform="translate(63.623047 0)"/>
       <use xlink:href="#DejaVuSans-31" transform="translate(127.246094 0)"/>
       <use xlink:href="#DejaVuSans-30" transform="translate(190.869141 0)"/>
      </g>
     </g>
    </g>
    <g id="xtick_3">
     <g id="line2d_3">
      <g>
       <use xlink:href="#m67555d090e" x="134.721089" y="307.584" style="stroke: #000000; stroke-width: 0.8"/>
      </g>
     </g>
     <g id="text_3">
      <!-- 2012 -->
      <g transform="translate(121.996089 322.182437) scale(0.1 -0.1)">
       <use xlink:href="#DejaVuSans-32"/>
       <use xlink:href="#DejaVuSans-30" transform="translate(63.623047 0)"/>
       <use xlink:href="#DejaVuSans-31" transform="translate(127.246094 0)"/>
       <use xlink:href="#DejaVuSans-32" transform="translate(190.869141 0)"/>
      </g>
     </g>
    </g>
    <g id="xtick_4">
     <g id="line2d_4">
      <g>
       <use xlink:href="#m67555d090e" x="171.294132" y="307.584" style="stroke: #000000; stroke-width: 0.8"/>
      </g>
     </g>
     <g id="text_4">
      <!-- 2014 -->
      <g transform="translate(158.569132 322.182437) scale(0.1 -0.1)">
       <defs>
        <path id="DejaVuSans-34" d="M 2419 4116 
L 825 1625 
L 2419 1625 
L 2419 4116 
z
M 2253 4666 
L 3047 4666 
L 3047 1625 
L 3713 1625 
L 3713 1100 
L 3047 1100 
L 3047 0 
L 2419 0 
L 2419 1100 
L 313 1100 
L 313 1709 
L 2253 4666 
z
" transform="scale(0.015625)"/>
       </defs>
       <use xlink:href="#DejaVuSans-32"/>
       <use xlink:href="#DejaVuSans-30" transform="translate(63.623047 0)"/>
       <use xlink:href="#DejaVuSans-31" transform="translate(127.246094 0)"/>
       <use xlink:href="#DejaVuSans-34" transform="translate(190.869141 0)"/>
      </g>
     </g>
    </g>
    <g id="xtick_5">
     <g id="line2d_5">
      <g>
       <use xlink:href="#m67555d090e" x="207.817143" y="307.584" style="stroke: #000000; stroke-width: 0.8"/>
      </g>
     </g>
     <g id="text_5">
      <!-- 2016 -->
      <g transform="translate(195.092143 322.182437) scale(0.1 -0.1)">
       <defs>
        <path id="DejaVuSans-36" d="M 2113 2584 
Q 1688 2584 1439 2293 
Q 1191 2003 1191 1497 
Q 1191 994 1439 701 
Q 1688 409 2113 409 
Q 2538 409 2786 701 
Q 3034 994 3034 1497 
Q 3034 2003 2786 2293 
Q 2538 2584 2113 2584 
z
M 3366 4563 
L 3366 3988 
Q 3128 4100 2886 4159 
Q 2644 4219 2406 4219 
Q 1781 4219 1451 3797 
Q 1122 3375 1075 2522 
Q 1259 2794 1537 2939 
Q 1816 3084 2150 3084 
Q 2853 3084 3261 2657 
Q 3669 2231 3669 1497 
Q 3669 778 3244 343 
Q 2819 -91 2113 -91 
Q 1303 -91 875 529 
Q 447 1150 447 2328 
Q 447 3434 972 4092 
Q 1497 4750 2381 4750 
Q 2619 4750 2861 4703 
Q 3103 4656 3366 4563 
z
" transform="scale(0.015625)"/>
       </defs>
       <use xlink:href="#DejaVuSans-32"/>
       <use xlink:href="#DejaVuSans-30" transform="translate(63.623047 0)"/>
       <use xlink:href="#DejaVuSans-31" transform="translate(127.246094 0)"/>
       <use xlink:href="#DejaVuSans-36" transform="translate(190.869141 0)"/>
      </g>
     </g>
    </g>
    <g id="xtick_6">
     <g id="line2d_6">
      <g>
       <use xlink:href="#m67555d090e" x="244.390185" y="307.584" style="stroke: #000000; stroke-width: 0.8"/>
      </g>
     </g>
     <g id="text_6">
      <!-- 2018 -->
      <g transform="translate(231.665185 322.182437) scale(0.1 -0.1)">
       <use xlink:href="#DejaVuSans-32"/>
       <use xlink:href="#DejaVuSans-30" transform="translate(63.623047 0)"/>
       <use xlink:href="#DejaVuSans-31" transform="translate(127.246094 0)"/>
       <use xlink:href="#DejaVuSans-38" transform="translate(190.869141 0)"/>
      </g>
     </g>
    </g>
    <g id="xtick_7">
     <g id="line2d_7">
      <g>
       <use xlink:href="#m67555d090e" x="280.913196" y="307.584" style="stroke: #000000; stroke-width: 0.8"/>
      </g>
     </g>
     <g id="text_7">
      <!-- 2020 -->
      <g transform="translate(268.188196 322.182437) scale(0.1 -0.1)">
       <use xlink:href="#DejaVuSans-32"/>
       <use xlink:href="#DejaVuSans-30" transform="translate(63.623047 0)"/>
       <use xlink:href="#DejaVuSans-32" transform="translate(127.246094 0)"/>
       <use xlink:href="#DejaVuSans-30" transform="translate(190.869141 0)"/>
      </g>
     </g>
    </g>
    <g id="xtick_8">
     <g id="line2d_8">
      <g>
       <use xlink:href="#m67555d090e" x="317.486239" y="307.584" style="stroke: #000000; stroke-width: 0.8"/>
      </g>
     </g>
     <g id="text_8">
      <!-- 2022 -->
      <g transform="translate(304.761239 322.182437) scale(0.1 -0.1)">
       <use xlink:href="#DejaVuSans-32"/>
       <use xlink:href="#DejaVuSans-30" transform="translate(63.623047 0)"/>
       <use xlink:href="#DejaVuSans-32" transform="translate(127.246094 0)"/>
       <use xlink:href="#DejaVuSans-32" transform="translate(190.869141 0)"/>
      </g>
     </g>
    </g>
    <g id="xtick_9">
     <g id="line2d_9">
      <g>
       <use xlink:href="#m67555d090e" x="354.00925" y="307.584" style="stroke: #000000; stroke-width: 0.8"/>
      </g>
     </g>
     <g id="text_9">
      <!-- 2024 -->
      <g transform="translate(341.28425 322.182437) scale(0.1 -0.1)">
       <use xlink:href="#DejaVuSans-32"/>
       <use xlink:href="#DejaVuSans-30" transform="translate(63.623047 0)"/>
       <use xlink:href="#DejaVuSans-32" transform="translate(127.246094 0)"/>
       <use xlink:href="#DejaVuSans-34" transform="translate(190.869141 0)"/>
      </g>
     </g>
    </g>
    <g id="xtick_10">
     <g id="line2d_10">
      <g>
       <use xlink:href="#m67555d090e" x="390.582292" y="307.584" style="stroke: #000000; stroke-width: 0.8"/>
      </g>
     </g>
     <g id="text_10">
      <!-- 2026 -->
      <g transform="translate(377.857292 322.182437) scale(0.1 -0.1)">
       <use xlink:href="#DejaVuSans-32"/>
       <use xlink:href="#DejaVuSans-30" transform="translate(63.623047 0)"/>
       <use xlink:href="#DejaVuSans-32" transform="translate(127.246094 0)"/>
       <use xlink:href="#DejaVuSans-36" transform="translate(190.869141 0)"/>
      </g>
     </g>
    </g>
    <g id="text_11">
     <!-- Updated 2026-06-21 09:05:12.763777 - Last record 2026-06-14 -->
     <g transform="translate(75.905312 335.860562) scale(0.1 -0.1)">
      <defs>
       <path id="DejaVuSans-55" d="M 556 4666 
L 1191 4666 
L 1191 1831 
Q 1191 1081 1462 751 
Q 1734 422 2344 422 
Q 2950 422 3222 751 
Q 3494 1081 3494 1831 
L 3494 4666 
L 4128 4666 
L 4128 1753 
Q 4128 841 3676 375 
Q 3225 -91 2344 -91 
Q 1459 -91 1007 375 
Q 556 841 556 1753 
L 556 4666 
z
" transform="scale(0.015625)"/>
       <path id="DejaVuSans-70" d="M 1159 525 
L 1159 -1331 
L 581 -1331 
L 581 3500 
L 1159 3500 
L 1159 2969 
Q 1341 3281 1617 3432 
Q 1894 3584 2278 3584 
Q 2916 3584 3314 3078 
Q 3713 2572 3713 1747 
Q 3713 922 3314 415 
Q 2916 -91 2278 -91 
Q 1894 -91 1617 61 
Q 1341 213 1159 525 
z
M 3116 1747 
Q 3116 2381 2855 2742 
Q 2594 3103 2138 3103 
Q 1681 3103 1420 2742 
Q 1159 2381 1159 1747 
Q 1159 1113 1420 752 
Q 1681 391 2138 391 
Q 2594 391 2855 752 
Q 3116 1113 3116 1747 
z
" transform="scale(0.015625)"/>
       <path id="DejaVuSans-64" d="M 2906 2969 
L 2906 4863 
L 3481 4863 
L 3481 0 
L 2906 0 
L 2906 525 
Q 2725 213 2448 61 
Q 2172 -91 1784 -91 
Q 1150 -91 751 415 
Q 353 922 353 1747 
Q 353 2572 751 3078 
Q 1150 3584 1784 3584 
Q 2172 3584 2448 3432 
Q 2725 3281 2906 2969 
z
M 947 1747 
Q 947 1113 1208 752 
Q 1469 391 1925 391 
Q 2381 391 2643 752 
Q 2906 1113 2906 1747 
Q 2906 2381 2643 2742 
Q 2381 3103 1925 3103 
Q 1469 3103 1208 2742 
Q 947 2381 947 1747 
z
" transform="scale(0.015625)"/>
       <path id="DejaVuSans-61" d="M 2194 1759 
Q 1497 1759 1228 1600 
Q 959 1441 959 1056 
Q 959 750 1161 570 
Q 1363 391 1709 391 
Q 2188 391 2477 730 
Q 2766 1069 2766 1631 
L 2766 1759 
L 2194 1759 
z
M 3341 1997 
L 3341 0 
L 2766 0 
L 2766 531 
Q 2569 213 2275 61 
Q 1981 -91 1556 -91 
Q 1019 -91 701 211 
Q 384 513 384 1019 
Q 384 1609 779 1909 
Q 1175 2209 1959 2209 
L 2766 2209 
L 2766 2266 
Q 2766 2663 2505 2880 
Q 2244 3097 1772 3097 
Q 1472 3097 1187 3025 
Q 903 2953 641 2809 
L 641 3341 
Q 956 3463 1253 3523 
Q 1550 3584 1831 3584 
Q 2591 3584 2966 3190 
Q 3341 2797 3341 1997 
z
" transform="scale(0.015625)"/>
       <path id="DejaVuSans-74" d="M 1172 4494 
L 1172 3500 
L 2356 3500 
L 2356 3053 
L 1172 3053 
L 1172 1153 
Q 1172 725 1289 603 
Q 1406 481 1766 481 
L 2356 481 
L 2356 0 
L 1766 0 
Q 1100 0 847 248 
Q 594 497 594 1153 
L 594 3053 
L 172 3053 
L 172 3500 
L 594 3500 
L 594 4494 
L 1172 4494 
z
" transform="scale(0.015625)"/>
       <path id="DejaVuSans-65" d="M 3597 1894 
L 3597 1613 
L 953 1613 
Q 991 1019 1311 708 
Q 1631 397 2203 397 
Q 2534 397 2845 478 
Q 3156 559 3463 722 
L 3463 178 
Q 3153 47 2828 -22 
Q 2503 -91 2169 -91 
Q 1331 -91 842 396 
Q 353 884 353 1716 
Q 353 2575 817 3079 
Q 1281 3584 2069 3584 
Q 2775 3584 3186 3129 
Q 3597 2675 3597 1894 
z
M 3022 2063 
Q 3016 2534 2758 2815 
Q 2500 3097 2075 3097 
Q 1594 3097 1305 2825 
Q 1016 2553 972 2059 
L 3022 2063 
z
" transform="scale(0.015625)"/>
       <path id="DejaVuSans-20" transform="scale(0.015625)"/>
       <path id="DejaVuSans-2d" d="M 313 2009 
L 1997 2009 
L 1997 1497 
L 313 1497 
L 313 2009 
z
" transform="scale(0.015625)"/>
       <path id="DejaVuSans-39" d="M 703 97 
L 703 672 
Q 941 559 1184 500 
Q 1428 441 1663 441 
Q 2288 441 2617 861 
Q 2947 1281 2994 2138 
Q 2813 1869 2534 1725 
Q 2256 1581 1919 1581 
Q 1219 1581 811 2004 
Q 403 2428 403 3163 
Q 403 3881 828 4315 
Q 1253 4750 1959 4750 
Q 2769 4750 3195 4129 
Q 3622 3509 3622 2328 
Q 3622 1225 3098 567 
Q 2575 -91 1691 -91 
Q 1453 -91 1209 -44 
Q 966 3 703 97 
z
M 1959 2075 
Q 2384 2075 2632 2365 
Q 2881 2656 2881 3163 
Q 2881 3666 2632 3958 
Q 2384 4250 1959 4250 
Q 1534 4250 1286 3958 
Q 1038 3666 1038 3163 
Q 1038 2656 1286 2365 
Q 1534 2075 1959 2075 
z
" transform="scale(0.015625)"/>
       <path id="DejaVuSans-3a" d="M 750 794 
L 1409 794 
L 1409 0 
L 750 0 
L 750 794 
z
M 750 3309 
L 1409 3309 
L 1409 2516 
L 750 2516 
L 750 3309 
z
" transform="scale(0.015625)"/>
       <path id="DejaVuSans-35" d="M 691 4666 
L 3169 4666 
L 3169 4134 
L 1269 4134 
L 1269 2991 
Q 1406 3038 1543 3061 
Q 1681 3084 1819 3084 
Q 2600 3084 3056 2656 
Q 3513 2228 3513 1497 
Q 3513 744 3044 326 
Q 2575 -91 1722 -91 
Q 1428 -91 1123 -41 
Q 819 9 494 109 
L 494 744 
Q 775 591 1075 516 
Q 1375 441 1709 441 
Q 2250 441 2565 725 
Q 2881 1009 2881 1497 
Q 2881 1984 2565 2268 
Q 2250 2553 1709 2553 
Q 1456 2553 1204 2497 
Q 953 2441 691 2322 
L 691 4666 
z
" transform="scale(0.015625)"/>
       <path id="DejaVuSans-2e" d="M 684 794 
L 1344 794 
L 1344 0 
L 684 0 
L 684 794 
z
" transform="scale(0.015625)"/>
       <path id="DejaVuSans-37" d="M 525 4666 
L 3525 4666 
L 3525 4397 
L 1831 0 
L 1172 0 
L 2766 4134 
L 525 4134 
L 525 4666 
z
" transform="scale(0.015625)"/>
       <path id="DejaVuSans-33" d="M 2597 2516 
Q 3050 2419 3304 2112 
Q 3559 1806 3559 1356 
Q 3559 666 3084 287 
Q 2609 -91 1734 -91 
Q 1441 -91 1130 -33 
Q 819 25 488 141 
L 488 750 
Q 750 597 1062 519 
Q 1375 441 1716 441 
Q 2309 441 2620 675 
Q 2931 909 2931 1356 
Q 2931 1769 2642 2001 
Q 2353 2234 1838 2234 
L 1294 2234 
L 1294 2753 
L 1863 2753 
Q 2328 2753 2575 2939 
Q 2822 3125 2822 3475 
Q 2822 3834 2567 4026 
Q 2313 4219 1838 4219 
Q 1578 4219 1281 4162 
Q 984 4106 628 3988 
L 628 4550 
Q 988 4650 1302 4700 
Q 1616 4750 1894 4750 
Q 2613 4750 3031 4423 
Q 3450 4097 3450 3541 
Q 3450 3153 3228 2886 
Q 3006 2619 2597 2516 
z
" transform="scale(0.015625)"/>
       <path id="DejaVuSans-4c" d="M 628 4666 
L 1259 4666 
L 1259 531 
L 3531 531 
L 3531 0 
L 628 0 
L 628 4666 
z
" transform="scale(0.015625)"/>
       <path id="DejaVuSans-73" d="M 2834 3397 
L 2834 2853 
Q 2591 2978 2328 3040 
Q 2066 3103 1784 3103 
Q 1356 3103 1142 2972 
Q 928 2841 928 2578 
Q 928 2378 1081 2264 
Q 1234 2150 1697 2047 
L 1894 2003 
Q 2506 1872 2764 1633 
Q 3022 1394 3022 966 
Q 3022 478 2636 193 
Q 2250 -91 1575 -91 
Q 1294 -91 989 -36 
Q 684 19 347 128 
L 347 722 
Q 666 556 975 473 
Q 1284 391 1588 391 
Q 1994 391 2212 530 
Q 2431 669 2431 922 
Q 2431 1156 2273 1281 
Q 2116 1406 1581 1522 
L 1381 1569 
Q 847 1681 609 1914 
Q 372 2147 372 2553 
Q 372 3047 722 3315 
Q 1072 3584 1716 3584 
Q 2034 3584 2315 3537 
Q 2597 3491 2834 3397 
z
" transform="scale(0.015625)"/>
       <path id="DejaVuSans-72" d="M 2631 2963 
Q 2534 3019 2420 3045 
Q 2306 3072 2169 3072 
Q 1681 3072 1420 2755 
Q 1159 2438 1159 1844 
L 1159 0 
L 581 0 
L 581 3500 
L 1159 3500 
L 1159 2956 
Q 1341 3275 1631 3429 
Q 1922 3584 2338 3584 
Q 2397 3584 2469 3576 
Q 2541 3569 2628 3553 
L 2631 2963 
z
" transform="scale(0.015625)"/>
       <path id="DejaVuSans-63" d="M 3122 3366 
L 3122 2828 
Q 2878 2963 2633 3030 
Q 2388 3097 2138 3097 
Q 1578 3097 1268 2742 
Q 959 2388 959 1747 
Q 959 1106 1268 751 
Q 1578 397 2138 397 
Q 2388 397 2633 464 
Q 2878 531 3122 666 
L 3122 134 
Q 2881 22 2623 -34 
Q 2366 -91 2075 -91 
Q 1284 -91 818 406 
Q 353 903 353 1747 
Q 353 2603 823 3093 
Q 1294 3584 2113 3584 
Q 2378 3584 2631 3529 
Q 2884 3475 3122 3366 
z
" transform="scale(0.015625)"/>
       <path id="DejaVuSans-6f" d="M 1959 3097 
Q 1497 3097 1228 2736 
Q 959 2375 959 1747 
Q 959 1119 1226 758 
Q 1494 397 1959 397 
Q 2419 397 2687 759 
Q 2956 1122 2956 1747 
Q 2956 2369 2687 2733 
Q 2419 3097 1959 3097 
z
M 1959 3584 
Q 2709 3584 3137 3096 
Q 3566 2609 3566 1747 
Q 3566 888 3137 398 
Q 2709 -91 1959 -91 
Q 1206 -91 779 398 
Q 353 888 353 1747 
Q 353 2609 779 3096 
Q 1206 3584 1959 3584 
z
" transform="scale(0.015625)"/>
      </defs>
      <use xlink:href="#DejaVuSans-55"/>
      <use xlink:href="#DejaVuSans-70" transform="translate(73.193359 0)"/>
      <use xlink:href="#DejaVuSans-64" transform="translate(136.669922 0)"/>
      <use xlink:href="#DejaVuSans-61" transform="translate(200.146484 0)"/>
      <use xlink:href="#DejaVuSans-74" transform="translate(261.425781 0)"/>
      <use xlink:href="#DejaVuSans-65" transform="translate(300.634766 0)"/>
      <use xlink:href="#DejaVuSans-64" transform="translate(362.158203 0)"/>
      <use xlink:href="#DejaVuSans-20" transform="translate(425.634766 0)"/>
      <use xlink:href="#DejaVuSans-32" transform="translate(457.421875 0)"/>
      <use xlink:href="#DejaVuSans-30" transform="translate(521.044922 0)"/>
      <use xlink:href="#DejaVuSans-32" transform="translate(584.667969 0)"/>
      <use xlink:href="#DejaVuSans-36" transform="translate(648.291016 0)"/>
      <use xlink:href="#DejaVuSans-2d" transform="translate(711.914062 0)"/>
      <use xlink:href="#DejaVuSans-30" transform="translate(747.998047 0)"/>
      <use xlink:href="#DejaVuSans-36" transform="translate(811.621094 0)"/>
      <use xlink:href="#DejaVuSans-2d" transform="translate(875.244141 0)"/>
      <use xlink:href="#DejaVuSans-32" transform="translate(911.328125 0)"/>
      <use xlink:href="#DejaVuSans-31" transform="translate(974.951172 0)"/>
      <use xlink:href="#DejaVuSans-20" transform="translate(1038.574219 0)"/>
      <use xlink:href="#DejaVuSans-30" transform="translate(1070.361328 0)"/>
      <use xlink:href="#DejaVuSans-39" transform="translate(1133.984375 0)"/>
      <use xlink:href="#DejaVuSans-3a" transform="translate(1197.607422 0)"/>
      <use xlink:href="#DejaVuSans-30" transform="translate(1231.298828 0)"/>
      <use xlink:href="#DejaVuSans-35" transform="translate(1294.921875 0)"/>
      <use xlink:href="#DejaVuSans-3a" transform="translate(1358.544922 0)"/>
      <use xlink:href="#DejaVuSans-31" transform="translate(1392.236328 0)"/>
      <use xlink:href="#DejaVuSans-32" transform="translate(1455.859375 0)"/>
      <use xlink:href="#DejaVuSans-2e" transform="translate(1519.482422 0)"/>
      <use xlink:href="#DejaVuSans-37" transform="translate(1551.269531 0)"/>
      <use xlink:href="#DejaVuSans-36" transform="translate(1614.892578 0)"/>
      <use xlink:href="#DejaVuSans-33" transform="translate(1678.515625 0)"/>
      <use xlink:href="#DejaVuSans-37" transform="translate(1742.138672 0)"/>
      <use xlink:href="#DejaVuSans-37" transform="translate(1805.761719 0)"/>
      <use xlink:href="#DejaVuSans-37" transform="translate(1869.384766 0)"/>
      <use xlink:href="#DejaVuSans-20" transform="translate(1933.007812 0)"/>
      <use xlink:href="#DejaVuSans-2d" transform="translate(1964.794922 0)"/>
      <use xlink:href="#DejaVuSans-20" transform="translate(2000.878906 0)"/>
      <use xlink:href="#DejaVuSans-4c" transform="translate(2032.666016 0)"/>
      <use xlink:href="#DejaVuSans-61" transform="translate(2088.378906 0)"/>
      <use xlink:href="#DejaVuSans-73" transform="translate(2149.658203 0)"/>
      <use xlink:href="#DejaVuSans-74" transform="translate(2201.757812 0)"/>
      <use xlink:href="#DejaVuSans-20" transform="translate(2240.966797 0)"/>
      <use xlink:href="#DejaVuSans-72" transform="translate(2272.753906 0)"/>
      <use xlink:href="#DejaVuSans-65" transform="translate(2311.617188 0)"/>
      <use xlink:href="#DejaVuSans-63" transform="translate(2373.140625 0)"/>
      <use xlink:href="#DejaVuSans-6f" transform="translate(2428.121094 0)"/>
      <use xlink:href="#DejaVuSans-72" transform="translate(2489.302734 0)"/>
      <use xlink:href="#DejaVuSans-64" transform="translate(2528.666016 0)"/>
      <use xlink:href="#DejaVuSans-20" transform="translate(2592.142578 0)"/>
      <use xlink:href="#DejaVuSans-32" transform="translate(2623.929688 0)"/>
      <use xlink:href="#DejaVuSans-30" transform="translate(2687.552734 0)"/>
      <use xlink:href="#DejaVuSans-32" transform="translate(2751.175781 0)"/>
      <use xlink:href="#DejaVuSans-36" transform="translate(2814.798828 0)"/>
      <use xlink:href="#DejaVuSans-2d" transform="translate(2878.421875 0)"/>
      <use xlink:href="#DejaVuSans-30" transform="translate(2914.505859 0)"/>
      <use xlink:href="#DejaVuSans-36" transform="translate(2978.128906 0)"/>
      <use xlink:href="#DejaVuSans-2d" transform="translate(3041.751953 0)"/>
      <use xlink:href="#DejaVuSans-31" transform="translate(3077.835938 0)"/>
      <use xlink:href="#DejaVuSans-34" transform="translate(3141.458984 0)"/>
     </g>
    </g>
   </g>
   <g id="matplotlib.axis_2">
    <g id="ytick_1">
     <g id="line2d_11">
      <defs>
       <path id="md076432f42" d="M 0 0 
L -3.5 0 
" style="stroke: #000000; stroke-width: 0.8"/>
      </defs>
      <g>
       <use xlink:href="#md076432f42" x="57.6" y="295.488" style="stroke: #000000; stroke-width: 0.8"/>
      </g>
     </g>
     <g id="text_12">
      <!-- 0 -->
      <g transform="translate(44.2375 299.287219) scale(0.1 -0.1)">
       <use xlink:href="#DejaVuSans-30"/>
      </g>
     </g>
    </g>
    <g id="ytick_2">
     <g id="line2d_12">
      <g>
       <use xlink:href="#md076432f42" x="57.6" y="247.488225" style="stroke: #000000; stroke-width: 0.8"/>
      </g>
     </g>
     <g id="text_13">
      <!-- 10 -->
      <g transform="translate(37.875 251.287444) scale(0.1 -0.1)">
       <use xlink:href="#DejaVuSans-31"/>
       <use xlink:href="#DejaVuSans-30" transform="translate(63.623047 0)"/>
      </g>
     </g>
    </g>
    <g id="ytick_3">
     <g id="line2d_13">
      <g>
       <use xlink:href="#md076432f42" x="57.6" y="199.48845" style="stroke: #000000; stroke-width: 0.8"/>
      </g>
     </g>
     <g id="text_14">
      <!-- 20 -->
      <g transform="translate(37.875 203.287668) scale(0.1 -0.1)">
       <use xlink:href="#DejaVuSans-32"/>
       <use xlink:href="#DejaVuSans-30" transform="translate(63.623047 0)"/>
      </g>
     </g>
    </g>
    <g id="ytick_4">
     <g id="line2d_14">
      <g>
       <use xlink:href="#md076432f42" x="57.6" y="151.488674" style="stroke: #000000; stroke-width: 0.8"/>
      </g>
     </g>
     <g id="text_15">
      <!-- 30 -->
      <g transform="translate(37.875 155.287893) scale(0.1 -0.1)">
       <use xlink:href="#DejaVuSans-33"/>
       <use xlink:href="#DejaVuSans-30" transform="translate(63.623047 0)"/>
      </g>
     </g>
    </g>
    <g id="ytick_5">
     <g id="line2d_15">
      <g>
       <use xlink:href="#md076432f42" x="57.6" y="103.488899" style="stroke: #000000; stroke-width: 0.8"/>
      </g>
     </g>
     <g id="text_16">
      <!-- 40 -->
      <g transform="translate(37.875 107.288118) scale(0.1 -0.1)">
       <use xlink:href="#DejaVuSans-34"/>
       <use xlink:href="#DejaVuSans-30" transform="translate(63.623047 0)"/>
      </g>
     </g>
    </g>
    <g id="ytick_6">
     <g id="line2d_16">
      <g>
       <use xlink:href="#md076432f42" x="57.6" y="55.489124" style="stroke: #000000; stroke-width: 0.8"/>
      </g>
     </g>
     <g id="text_17">
      <!-- 50 -->
      <g transform="translate(37.875 59.288343) scale(0.1 -0.1)">
       <use xlink:href="#DejaVuSans-35"/>
       <use xlink:href="#DejaVuSans-30" transform="translate(63.623047 0)"/>
      </g>
     </g>
    </g>
    <g id="text_18">
     <!-- IPv6 as % of total Google traffic -->
     <g transform="translate(31.795312 253.735813) rotate(-90) scale(0.1 -0.1)">
      <defs>
       <path id="DejaVuSans-49" d="M 628 4666 
L 1259 4666 
L 1259 0 
L 628 0 
L 628 4666 
z
" transform="scale(0.015625)"/>
       <path id="DejaVuSans-50" d="M 1259 4147 
L 1259 2394 
L 2053 2394 
Q 2494 2394 2734 2622 
Q 2975 2850 2975 3272 
Q 2975 3691 2734 3919 
Q 2494 4147 2053 4147 
L 1259 4147 
z
M 628 4666 
L 2053 4666 
Q 2838 4666 3239 4311 
Q 3641 3956 3641 3272 
Q 3641 2581 3239 2228 
Q 2838 1875 2053 1875 
L 1259 1875 
L 1259 0 
L 628 0 
L 628 4666 
z
" transform="scale(0.015625)"/>
       <path id="DejaVuSans-76" d="M 191 3500 
L 800 3500 
L 1894 563 
L 2988 3500 
L 3597 3500 
L 2284 0 
L 1503 0 
L 191 3500 
z
" transform="scale(0.015625)"/>
       <path id="DejaVuSans-25" d="M 4653 2053 
Q 4381 2053 4226 1822 
Q 4072 1591 4072 1178 
Q 4072 772 4226 539 
Q 4381 306 4653 306 
Q 4919 306 5073 539 
Q 5228 772 5228 1178 
Q 5228 1588 5073 1820 
Q 4919 2053 4653 2053 
z
M 4653 2450 
Q 5147 2450 5437 2106 
Q 5728 1763 5728 1178 
Q 5728 594 5436 251 
Q 5144 -91 4653 -91 
Q 4153 -91 3862 251 
Q 3572 594 3572 1178 
Q 3572 1766 3864 2108 
Q 4156 2450 4653 2450 
z
M 1428 4353 
Q 1159 4353 1004 4120 
Q 850 3888 850 3481 
Q 850 3069 1003 2837 
Q 1156 2606 1428 2606 
Q 1700 2606 1854 2837 
Q 2009 3069 2009 3481 
Q 2009 3884 1853 4118 
Q 1697 4353 1428 4353 
z
M 4250 4750 
L 4750 4750 
L 1831 -91 
L 1331 -91 
L 4250 4750 
z
M 1428 4750 
Q 1922 4750 2215 4408 
Q 2509 4066 2509 3481 
Q 2509 2891 2217 2550 
Q 1925 2209 1428 2209 
Q 931 2209 642 2551 
Q 353 2894 353 3481 
Q 353 4063 643 4406 
Q 934 4750 1428 4750 
z
" transform="scale(0.015625)"/>
       <path id="DejaVuSans-66" d="M 2375 4863 
L 2375 4384 
L 1825 4384 
Q 1516 4384 1395 4259 
Q 1275 4134 1275 3809 
L 1275 3500 
L 2222 3500 
L 2222 3053 
L 1275 3053 
L 1275 0 
L 697 0 
L 697 3053 
L 147 3053 
L 147 3500 
L 697 3500 
L 697 3744 
Q 697 4328 969 4595 
Q 1241 4863 1831 4863 
L 2375 4863 
z
" transform="scale(0.015625)"/>
       <path id="DejaVuSans-6c" d="M 603 4863 
L 1178 4863 
L 1178 0 
L 603 0 
L 603 4863 
z
" transform="scale(0.015625)"/>
       <path id="DejaVuSans-47" d="M 3809 666 
L 3809 1919 
L 2778 1919 
L 2778 2438 
L 4434 2438 
L 4434 434 
Q 4069 175 3628 42 
Q 3188 -91 2688 -91 
Q 1594 -91 976 548 
Q 359 1188 359 2328 
Q 359 3472 976 4111 
Q 1594 4750 2688 4750 
Q 3144 4750 3555 4637 
Q 3966 4525 4313 4306 
L 4313 3634 
Q 3963 3931 3569 4081 
Q 3175 4231 2741 4231 
Q 1884 4231 1454 3753 
Q 1025 3275 1025 2328 
Q 1025 1384 1454 906 
Q 1884 428 2741 428 
Q 3075 428 3337 486 
Q 3600 544 3809 666 
z
" transform="scale(0.015625)"/>
       <path id="DejaVuSans-67" d="M 2906 1791 
Q 2906 2416 2648 2759 
Q 2391 3103 1925 3103 
Q 1463 3103 1205 2759 
Q 947 2416 947 1791 
Q 947 1169 1205 825 
Q 1463 481 1925 481 
Q 2391 481 2648 825 
Q 2906 1169 2906 1791 
z
M 3481 434 
Q 3481 -459 3084 -895 
Q 2688 -1331 1869 -1331 
Q 1566 -1331 1297 -1286 
Q 1028 -1241 775 -1147 
L 775 -588 
Q 1028 -725 1275 -790 
Q 1522 -856 1778 -856 
Q 2344 -856 2625 -561 
Q 2906 -266 2906 331 
L 2906 616 
Q 2728 306 2450 153 
Q 2172 0 1784 0 
Q 1141 0 747 490 
Q 353 981 353 1791 
Q 353 2603 747 3093 
Q 1141 3584 1784 3584 
Q 2172 3584 2450 3431 
Q 2728 3278 2906 2969 
L 2906 3500 
L 3481 3500 
L 3481 434 
z
" transform="scale(0.015625)"/>
       <path id="DejaVuSans-69" d="M 603 3500 
L 1178 3500 
L 1178 0 
L 603 0 
L 603 3500 
z
M 603 4863 
L 1178 4863 
L 1178 4134 
L 603 4134 
L 603 4863 
z
" transform="scale(0.015625)"/>
      </defs>
      <use xlink:href="#DejaVuSans-49"/>
      <use xlink:href="#DejaVuSans-50" transform="translate(29.492188 0)"/>
      <use xlink:href="#DejaVuSans-76" transform="translate(89.794922 0)"/>
      <use xlink:href="#DejaVuSans-36" transform="translate(148.974609 0)"/>
      <use xlink:href="#DejaVuSans-20" transform="translate(212.597656 0)"/>
      <use xlink:href="#DejaVuSans-61" transform="translate(244.384766 0)"/>
      <use xlink:href="#DejaVuSans-73" transform="translate(305.664062 0)"/>
      <use xlink:href="#DejaVuSans-20" transform="translate(357.763672 0)"/>
      <use xlink:href="#DejaVuSans-25" transform="translate(389.550781 0)"/>
      <use xlink:href="#DejaVuSans-20" transform="translate(484.570312 0)"/>
      <use xlink:href="#DejaVuSans-6f" transform="translate(516.357422 0)"/>
      <use xlink:href="#DejaVuSans-66" transform="translate(577.539062 0)"/>
      <use xlink:href="#DejaVuSans-20" transform="translate(612.744141 0)"/>
      <use xlink:href="#DejaVuSans-74" transform="translate(644.53125 0)"/>
      <use xlink:href="#DejaVuSans-6f" transform="translate(683.740234 0)"/>
      <use xlink:href="#DejaVuSans-74" transform="translate(744.921875 0)"/>
      <use xlink:href="#DejaVuSans-61" transform="translate(784.130859 0)"/>
      <use xlink:href="#DejaVuSans-6c" transform="translate(845.410156 0)"/>
      <use xlink:href="#DejaVuSans-20" transform="translate(873.193359 0)"/>
      <use xlink:href="#DejaVuSans-47" transform="translate(904.980469 0)"/>
      <use xlink:href="#DejaVuSans-6f" transform="translate(982.470703 0)"/>
      <use xlink:href="#DejaVuSans-6f" transform="translate(1043.652344 0)"/>
      <use xlink:href="#DejaVuSans-67" transform="translate(1104.833984 0)"/>
      <use xlink:href="#DejaVuSans-6c" transform="translate(1168.310547 0)"/>
      <use xlink:href="#DejaVuSans-65" transform="translate(1196.09375 0)"/>
      <use xlink:href="#DejaVuSans-20" transform="translate(1257.617188 0)"/>
      <use xlink:href="#DejaVuSans-74" transform="translate(1289.404297 0)"/>
      <use xlink:href="#DejaVuSans-72" transform="translate(1328.613281 0)"/>
      <use xlink:href="#DejaVuSans-61" transform="translate(1369.726562 0)"/>
      <use xlink:href="#DejaVuSans-66" transform="translate(1431.005859 0)"/>
      <use xlink:href="#DejaVuSans-66" transform="translate(1466.210938 0)"/>
      <use xlink:href="#DejaVuSans-69" transform="translate(1501.416016 0)"/>
      <use xlink:href="#DejaVuSans-63" transform="translate(1529.199219 0)"/>
     </g>
    </g>
   </g>
   <g id="line2d_17">
    <path d="M 73.832727 294.613478 
L 75.23361 294.465259 
L 75.583831 294.606398 
L 77.334934 294.579873 
L 78.385596 294.477125 
L 78.735816 294.363356 
L 79.786478 294.382229 
L 82.938464 294.314113 
L 83.989126 294.339058 
L 85.390009 294.271292 
L 88.191774 294.330049 
L 88.892215 294.404271 
L 91.34376 294.355882 
L 92.744643 294.269727 
L 93.445084 294.277594 
L 93.795305 294.043912 
L 95.896628 293.963753 
L 96.94729 293.967108 
L 97.997952 294.052452 
L 99.048614 294.009948 
L 100.099276 294.052701 
L 101.85038 294.023296 
L 102.901041 294.193532 
L 103.951703 294.146483 
L 104.652145 294.221963 
L 105.352586 294.29413 
L 105.702807 294.222136 
L 107.804131 294.418834 
L 109.555234 294.340954 
L 110.605896 294.16888 
L 111.656558 294.152536 
L 112.70722 294.113661 
L 115.508985 294.219313 
L 116.209426 294.283638 
L 116.909868 294.287996 
L 119.711633 294.134762 
L 120.061853 294.139888 
L 120.412074 294.030736 
L 121.112515 294.122037 
L 121.812957 293.952569 
L 122.163177 293.994698 
L 122.513398 293.890659 
L 122.863619 293.93621 
L 123.56406 293.8394 
L 124.614722 293.825619 
L 124.964943 293.945066 
L 126.365825 293.972047 
L 127.066267 293.984873 
L 127.416487 293.950951 
L 128.116929 293.748147 
L 128.467149 293.635189 
L 131.268914 293.703143 
L 131.619135 293.570006 
L 132.319576 293.566939 
L 133.720459 293.400701 
L 134.07068 293.466096 
L 136.872445 293.044139 
L 137.222665 293.140249 
L 139.323989 292.68057 
L 140.024431 292.695608 
L 141.075093 292.384575 
L 142.826196 291.952927 
L 143.876858 291.841961 
L 144.227079 291.932604 
L 145.978182 291.591671 
L 147.028844 291.254809 
L 147.379064 291.305775 
L 147.729285 291.003367 
L 148.429726 290.822379 
L 148.779947 290.869404 
L 149.480388 290.6816 
L 149.830609 290.823444 
L 150.53105 290.652133 
L 150.881271 290.609639 
L 151.581712 290.297348 
L 152.282154 290.241524 
L 152.632374 290.272474 
L 152.982595 290.182978 
L 153.332816 290.226538 
L 154.033257 290.038509 
L 155.083919 289.899962 
L 155.434139 289.718816 
L 156.484801 289.616072 
L 157.535463 289.117806 
L 157.885684 289.133319 
L 159.286567 288.707485 
L 159.636787 288.422107 
L 161.03767 288.085235 
L 161.738111 287.775113 
L 162.088332 287.851797 
L 162.438553 287.638338 
L 162.788773 287.600821 
L 164.539876 286.597986 
L 165.590538 286.065452 
L 166.29098 285.32747 
L 166.991421 284.436493 
L 167.341642 284.646977 
L 167.691862 284.68339 
L 168.742524 283.427917 
L 169.092745 283.277376 
L 169.442966 282.642785 
L 170.493628 282.264993 
L 170.843848 282.022436 
L 171.194069 282.066456 
L 172.244731 281.373479 
L 172.594951 281.226292 
L 172.945172 280.954095 
L 173.645613 280.889598 
L 173.995834 280.272974 
L 174.346055 280.264847 
L 174.696275 279.586913 
L 175.046496 279.235814 
L 175.746937 279.336584 
L 177.14782 278.248857 
L 177.498041 277.846494 
L 177.848261 278.093184 
L 179.249144 277.303736 
L 179.599365 277.011835 
L 179.949585 275.812307 
L 180.299806 276.039849 
L 181.000247 275.225312 
L 181.350468 275.19034 
L 181.700688 275.542471 
L 182.75135 274.74123 
L 183.101571 274.197661 
L 183.802012 274.23957 
L 184.152233 273.651414 
L 184.502454 273.610931 
L 184.852674 270.495011 
L 185.202895 272.545125 
L 185.553116 273.766412 
L 185.903336 273.172976 
L 186.253557 272.841351 
L 186.603778 272.787908 
L 186.953998 272.007417 
L 187.304219 271.762858 
L 188.354881 270.068826 
L 188.705102 268.962724 
L 189.755763 266.908358 
L 190.105984 267.812136 
L 190.456205 267.673825 
L 190.806425 267.698847 
L 191.156646 267.844848 
L 191.506867 268.117467 
L 191.857087 268.013457 
L 192.207308 266.0203 
L 192.557529 266.315114 
L 193.608191 265.26485 
L 193.958411 265.123491 
L 194.658853 265.185641 
L 195.009073 263.678986 
L 195.359294 263.624112 
L 196.059735 262.435096 
L 196.409956 262.840478 
L 196.760177 260.984658 
L 197.110397 261.423308 
L 197.460618 260.170519 
L 197.810838 259.570618 
L 198.161059 258.669844 
L 198.51128 259.295377 
L 198.8615 258.347819 
L 199.211721 256.771439 
L 199.561942 257.565787 
L 199.912162 257.792236 
L 200.262383 257.302916 
L 200.612604 255.861531 
L 200.962824 256.261921 
L 201.313045 254.989322 
L 201.663266 255.282476 
L 202.713928 252.696599 
L 203.76459 252.423614 
L 204.11481 251.419632 
L 204.465031 251.541806 
L 204.815252 251.16518 
L 205.165472 250.170121 
L 205.515693 249.91757 
L 206.216134 248.042219 
L 206.566355 247.907796 
L 206.916575 248.095537 
L 207.266796 247.610216 
L 207.617017 245.54277 
L 208.317458 246.755465 
L 208.667679 246.522512 
L 209.36812 246.452706 
L 209.718341 246.49378 
L 210.418782 246.244335 
L 210.769003 245.081118 
L 211.119223 245.026052 
L 211.469444 243.994456 
L 211.819665 243.991556 
L 212.169885 243.834847 
L 213.220547 240.884392 
L 213.570768 239.146608 
L 213.920989 240.33334 
L 214.271209 239.835933 
L 214.62143 238.807801 
L 214.97165 239.036655 
L 215.321871 236.841615 
L 215.672092 237.163656 
L 216.022312 236.894506 
L 216.372533 235.362886 
L 216.722754 235.34839 
L 217.072974 234.206735 
L 217.423195 234.481625 
L 217.773416 233.578634 
L 218.123636 233.098939 
L 218.473857 233.353784 
L 218.824078 232.735475 
L 219.174298 231.770876 
L 219.524519 232.079231 
L 219.87474 231.62175 
L 220.22496 230.103772 
L 220.575181 229.468975 
L 220.925402 229.528355 
L 221.275622 227.753223 
L 221.625843 228.068898 
L 222.326284 225.954628 
L 222.676505 223.844846 
L 223.026726 224.053371 
L 223.727167 222.867028 
L 224.077387 221.537761 
L 224.427608 221.715465 
L 224.777829 221.158385 
L 225.128049 219.056609 
L 225.47827 218.319193 
L 225.828491 214.834544 
L 226.178711 217.100138 
L 226.528932 216.689375 
L 226.879153 217.229675 
L 227.229373 216.595209 
L 227.929815 217.625635 
L 228.280035 217.420215 
L 228.630256 216.516951 
L 228.980477 216.788601 
L 229.680918 215.638175 
L 230.031139 214.684919 
L 230.381359 214.533744 
L 230.73158 213.889356 
L 231.081801 211.572143 
L 231.432021 212.299278 
L 231.782242 209.191906 
L 232.132462 209.432443 
L 232.482683 207.743393 
L 232.832904 206.702321 
L 233.883566 204.787586 
L 234.233786 203.220619 
L 234.584007 200.637132 
L 234.934228 201.289521 
L 236.33511 198.34712 
L 236.685331 197.863211 
L 237.035552 197.881527 
L 237.385772 198.148133 
L 237.735993 197.232657 
L 238.086214 195.949613 
L 238.436434 197.099045 
L 238.786655 197.12123 
L 239.136876 198.145243 
L 239.487096 197.024583 
L 239.837317 195.282253 
L 240.187538 195.50551 
L 240.537758 194.753315 
L 242.288861 192.678438 
L 242.639082 192.583259 
L 242.989303 205.323518 
L 243.339523 190.965878 
L 243.689744 190.27675 
L 244.039965 186.795077 
L 244.390185 190.025255 
L 245.090627 189.553264 
L 245.440847 189.550979 
L 245.791068 189.118708 
L 246.141289 188.90568 
L 246.491509 190.089081 
L 246.84173 190.839312 
L 247.191951 190.656932 
L 247.542171 189.640532 
L 247.892392 189.713516 
L 248.943054 188.858837 
L 249.293274 186.57544 
L 249.643495 187.476703 
L 249.993716 185.058397 
L 250.343936 186.078104 
L 250.694157 184.048261 
L 251.044378 182.780841 
L 251.394598 183.528145 
L 251.744819 181.97386 
L 252.09504 180.941836 
L 252.44526 180.72239 
L 252.795481 181.566106 
L 253.145702 182.011165 
L 254.196364 179.731756 
L 254.546584 180.255957 
L 254.896805 181.011392 
L 255.247026 181.157878 
L 255.597246 179.429036 
L 255.947467 178.78509 
L 256.297688 177.53184 
L 256.998129 177.047542 
L 257.34835 177.178692 
L 257.69857 177.01338 
L 258.399011 175.29184 
L 258.749232 176.296216 
L 259.099453 173.11457 
L 259.449673 173.196405 
L 259.799894 172.808422 
L 260.150115 170.487897 
L 260.500335 169.791641 
L 260.850556 169.373151 
L 261.200777 169.376199 
L 261.550997 168.118139 
L 261.901218 168.032378 
L 262.601659 166.043248 
L 262.95188 167.356186 
L 263.302101 168.201855 
L 264.002542 166.187948 
L 264.352763 167.175697 
L 264.702983 166.995093 
L 265.053204 167.425046 
L 265.403425 165.904927 
L 265.753645 165.374539 
L 266.103866 166.523802 
L 266.454086 164.874069 
L 266.804307 165.006069 
L 267.154528 164.535484 
L 267.854969 164.353056 
L 268.20519 161.094313 
L 268.55541 160.999388 
L 268.905631 161.256576 
L 269.255852 162.04479 
L 269.956293 158.241916 
L 270.306514 156.56431 
L 270.656734 156.138504 
L 271.006955 156.284759 
L 271.357176 155.978578 
L 271.707396 154.312141 
L 272.057617 155.686375 
L 272.407838 154.223212 
L 272.758058 155.580986 
L 273.108279 154.607652 
L 273.4585 154.018474 
L 273.80872 153.969341 
L 274.158941 154.03572 
L 274.509162 152.766913 
L 274.859382 152.911076 
L 275.209603 154.284292 
L 275.559823 153.818991 
L 275.910044 154.382269 
L 276.260265 154.61249 
L 276.610485 152.852631 
L 276.960706 153.90662 
L 277.310927 154.189842 
L 277.661147 153.535783 
L 278.011368 153.136151 
L 278.361589 151.559728 
L 278.711809 151.892444 
L 279.06203 151.549341 
L 279.412251 151.663125 
L 279.762471 150.746406 
L 280.112692 150.345396 
L 280.462913 149.185064 
L 280.813133 148.677889 
L 281.163354 149.3949 
L 281.513575 149.608086 
L 281.863795 149.656048 
L 282.564237 148.005959 
L 282.914457 148.401535 
L 283.264678 147.198282 
L 283.614898 147.719055 
L 283.965119 147.494003 
L 284.31534 146.66174 
L 284.66556 146.86513 
L 285.015781 147.436855 
L 285.366002 147.176216 
L 285.716222 147.189838 
L 286.066443 145.027943 
L 286.766884 143.488749 
L 287.117105 143.742883 
L 287.467326 143.204787 
L 287.817546 141.413872 
L 288.167767 141.993205 
L 288.517988 139.423254 
L 288.868208 141.479968 
L 289.218429 139.777353 
L 289.56865 137.449902 
L 289.91887 138.13075 
L 290.619312 135.696859 
L 290.969532 135.790669 
L 291.319753 135.054967 
L 291.669974 136.899311 
L 292.020194 135.362804 
L 292.370415 135.938936 
L 292.720635 136.27696 
L 293.771297 133.919537 
L 294.121518 135.882272 
L 294.471739 135.921598 
L 294.821959 135.05394 
L 295.17218 135.545597 
L 295.522401 136.737628 
L 295.872621 135.810546 
L 296.222842 133.653455 
L 296.573063 137.234479 
L 296.923283 136.269842 
L 297.273504 134.873595 
L 297.623725 136.044871 
L 297.973945 136.1295 
L 298.324166 134.216776 
L 298.674387 133.264225 
L 299.024607 131.517979 
L 299.374828 132.369548 
L 299.725049 131.724388 
L 300.075269 131.923375 
L 300.42549 132.470031 
L 300.775711 131.074125 
L 301.125931 130.5018 
L 301.476152 131.536646 
L 301.826372 131.278719 
L 302.176593 129.039405 
L 302.526814 128.546827 
L 302.877034 127.022805 
L 303.227255 129.525456 
L 303.577476 130.355463 
L 303.927696 129.53951 
L 304.277917 129.383467 
L 304.628138 129.511435 
L 304.978358 125.097395 
L 305.328579 128.048205 
L 305.6788 126.347837 
L 306.379241 127.207998 
L 306.729462 123.027433 
L 307.079682 122.493148 
L 307.429903 120.811471 
L 307.780124 120.74454 
L 308.130344 122.265662 
L 308.480565 120.167986 
L 308.830786 119.755648 
L 309.181006 118.67237 
L 309.531227 118.280611 
L 309.881447 117.049815 
L 310.231668 117.233831 
L 310.581889 120.217867 
L 310.932109 118.608703 
L 311.28233 117.589817 
L 311.632551 119.527602 
L 311.982771 118.456007 
L 312.332992 118.078791 
L 312.683213 116.531662 
L 313.383654 118.994012 
L 313.733875 118.723586 
L 314.084095 119.109643 
L 314.434316 118.987326 
L 314.784537 117.600084 
L 315.134757 119.204054 
L 315.484978 117.276988 
L 315.835199 116.595497 
L 316.185419 116.524097 
L 316.885861 114.124992 
L 317.236081 111.447953 
L 317.586302 113.273682 
L 317.936523 116.683706 
L 318.286743 112.842615 
L 318.636964 112.662174 
L 318.987184 115.239758 
L 319.687626 111.809055 
L 320.037846 111.763196 
L 320.388067 112.487441 
L 320.738288 112.457887 
L 321.088508 113.012501 
L 321.438729 106.492418 
L 321.78895 105.796373 
L 322.13917 105.990739 
L 322.489391 104.658202 
L 322.839612 104.22114 
L 323.189832 101.903562 
L 323.540053 104.848373 
L 323.890274 105.996595 
L 324.240494 103.477369 
L 324.590715 105.137399 
L 324.940936 102.314412 
L 325.291156 100.877054 
L 325.641377 97.390038 
L 325.991598 98.328333 
L 326.341818 93.161805 
L 327.042259 96.783398 
L 327.39248 98.437206 
L 327.742701 96.930925 
L 328.092921 97.224756 
L 328.443142 97.856682 
L 328.793363 97.728024 
L 329.143583 99.564457 
L 329.493804 98.7084 
L 329.844025 97.366365 
L 330.194245 97.67591 
L 330.544466 96.300554 
L 330.894687 96.649992 
L 331.244907 94.967926 
L 331.595128 96.155335 
L 331.945349 99.359219 
L 332.295569 97.20318 
L 332.64579 93.934525 
L 332.996011 96.643377 
L 333.346231 95.069782 
L 333.696452 96.704174 
L 334.046673 95.228325 
L 334.396893 95.207339 
L 335.447555 89.525476 
L 335.797776 92.071193 
L 336.147996 91.876534 
L 336.498217 90.602265 
L 336.848438 90.977834 
L 337.198658 93.149383 
L 337.8991 91.273273 
L 338.24932 92.648294 
L 338.599541 91.874705 
L 338.949762 90.375725 
L 339.299982 90.404876 
L 340.000424 87.917623 
L 340.350644 89.002783 
L 340.700865 88.985181 
L 341.051086 86.623007 
L 341.401306 87.839859 
L 342.101748 87.635768 
L 342.451968 86.323781 
L 342.802189 87.821993 
L 343.15241 87.866086 
L 343.50263 85.229204 
L 343.852851 85.196909 
L 344.203071 83.949165 
L 344.553292 80.658819 
L 344.903513 82.072926 
L 345.603954 81.296947 
L 345.954175 81.157522 
L 346.304395 81.509572 
L 346.654616 80.289763 
L 347.004837 81.720929 
L 347.705278 78.146842 
L 348.055499 79.572445 
L 348.405719 81.506831 
L 348.75594 82.262803 
L 349.106161 78.69089 
L 349.456381 80.816824 
L 349.806602 79.714274 
L 350.156823 83.565013 
L 350.507043 81.035742 
L 350.857264 80.094015 
L 351.207485 82.234733 
L 351.557705 82.43123 
L 351.907926 83.570168 
L 352.258147 81.522282 
L 352.608367 83.704697 
L 352.958588 81.053396 
L 353.308808 80.729801 
L 353.659029 78.221769 
L 354.00925 81.373214 
L 354.35947 81.35926 
L 354.709691 80.603643 
L 355.059912 80.684287 
L 355.410132 79.316913 
L 355.760353 80.376398 
L 356.110574 77.801474 
L 356.460794 78.440792 
L 356.811015 78.442088 
L 357.161236 87.360975 
L 357.861677 87.360975 
L 358.211898 76.268966 
L 358.562118 76.218388 
L 358.912339 77.702095 
L 359.26256 77.293948 
L 359.61278 75.749709 
L 359.963001 76.132272 
L 360.313222 75.447411 
L 360.663442 73.15618 
L 361.013663 74.010763 
L 361.363883 69.369651 
L 361.714104 70.323003 
L 362.064325 68.978337 
L 362.414545 69.339349 
L 362.764766 68.138452 
L 363.114987 71.927679 
L 363.465207 69.040747 
L 364.515869 72.071937 
L 364.86609 70.783167 
L 365.216311 71.949144 
L 365.916752 69.791242 
L 366.266973 71.298503 
L 366.617193 71.985135 
L 366.967414 71.739909 
L 367.317635 75.751691 
L 367.667855 71.960079 
L 368.018076 72.465392 
L 368.368297 70.462058 
L 368.718517 72.722627 
L 369.068738 72.252004 
L 369.769179 71.984007 
L 370.1194 69.879821 
L 370.46962 71.247469 
L 370.819841 70.078852 
L 371.170062 69.910959 
L 371.520282 70.601627 
L 371.870503 67.422799 
L 372.220724 71.041229 
L 372.570944 72.61901 
L 373.271386 70.365785 
L 373.621606 69.807423 
L 373.971827 68.76351 
L 374.322048 68.425212 
L 374.672268 67.902086 
L 375.022489 65.685951 
L 375.37271 66.186848 
L 375.72293 65.465253 
L 376.073151 61.972501 
L 376.423372 62.982705 
L 376.773592 64.884441 
L 377.123813 63.630937 
L 377.474034 61.099198 
L 377.824254 67.229586 
L 378.174475 63.575972 
L 378.524695 65.967475 
L 379.225137 63.196438 
L 379.575357 63.037016 
L 379.925578 60.378064 
L 380.275799 62.514088 
L 380.626019 57.593544 
L 380.97624 61.246231 
L 381.326461 58.967255 
L 381.676681 57.603639 
L 382.026902 57.836932 
L 382.377123 56.624146 
L 382.727343 56.271031 
L 383.077564 59.705486 
L 383.427785 59.699962 
L 383.778005 60.134768 
L 384.128226 59.439462 
L 384.828667 56.364827 
L 385.178888 57.23165 
L 385.529109 57.045017 
L 385.879329 58.315183 
L 386.22955 58.818988 
L 386.579771 60.66636 
L 386.929991 58.778577 
L 387.280212 59.301621 
L 387.630432 59.529471 
L 387.980653 59.520985 
L 388.330874 61.553823 
L 388.681094 62.520928 
L 389.031315 60.065072 
L 389.381536 60.661556 
L 389.731756 60.47462 
L 390.081977 61.216155 
L 390.432198 59.190766 
L 390.782418 59.936241 
L 391.132639 57.550613 
L 391.48286 62.752829 
L 391.83308 62.006557 
L 392.183301 62.296922 
L 392.533522 60.692746 
L 392.883742 59.770891 
L 393.233963 56.683161 
L 393.584184 58.388387 
L 393.934404 57.967323 
L 394.634846 54.987531 
L 394.985066 57.034616 
L 395.685508 54.722539 
L 396.035728 53.568 
L 397.08639 57.268691 
L 397.436611 56.770022 
L 397.786831 58.098444 
L 398.137052 54.3406 
L 398.487273 54.098014 
L 398.487273 54.098014 
" clip-path="url(#p0f0281ca93)" style="fill: none; stroke: #1f77b4; stroke-width: 1.5; stroke-linecap: square"/>
   </g>
   <g id="line2d_18">
    <path d="M 73.832727 294.842859 
L 75.583831 294.822973 
L 83.288685 294.599222 
L 84.339347 294.565363 
L 85.039788 294.533649 
L 88.892215 294.590169 
L 93.795305 294.517713 
L 94.145525 294.345879 
L 107.804131 294.518097 
L 109.555234 294.51911 
L 110.605896 294.368247 
L 112.006778 294.345572 
L 114.108102 294.312318 
L 114.458323 294.374204 
L 114.808544 294.276481 
L 118.31075 294.418383 
L 119.711633 294.3209 
L 121.112515 294.238763 
L 122.163177 294.069515 
L 123.213839 294.067533 
L 124.264501 293.949996 
L 124.964943 294.036228 
L 126.015605 294.097115 
L 127.766708 293.986053 
L 128.467149 293.828163 
L 129.517811 293.929798 
L 134.07068 293.60843 
L 134.4209 293.704036 
L 139.323989 293.10604 
L 140.724872 292.873337 
L 141.425313 292.879884 
L 142.475975 292.516492 
L 143.876858 292.261542 
L 144.227079 292.371759 
L 145.978182 292.185131 
L 148.079506 291.754174 
L 148.429726 291.61077 
L 149.130168 291.547938 
L 150.18083 291.314122 
L 150.881271 291.363696 
L 151.581712 291.128953 
L 152.282154 291.035608 
L 152.632374 290.82103 
L 153.683036 291.065258 
L 155.083919 290.638674 
L 155.434139 290.654288 
L 155.78436 290.499835 
L 156.835022 290.420913 
L 157.185243 290.200671 
L 158.936346 289.83929 
L 159.636787 289.704291 
L 160.337229 289.422691 
L 161.03767 289.330939 
L 161.738111 288.954525 
L 162.088332 289.080884 
L 163.138994 288.636306 
L 163.839435 288.265743 
L 164.189656 287.984949 
L 164.890097 287.789887 
L 165.240318 287.879512 
L 165.940759 287.742473 
L 166.991421 286.69386 
L 167.341642 286.441967 
L 167.691862 286.511216 
L 168.042083 286.376073 
L 169.092745 285.588709 
L 169.442966 285.455481 
L 170.143407 284.819407 
L 170.493628 284.732254 
L 170.843848 283.531813 
L 171.194069 283.643892 
L 171.544289 284.443593 
L 171.89451 284.356751 
L 172.594951 283.743117 
L 172.945172 284.29763 
L 173.295393 283.57964 
L 173.645613 283.53548 
L 173.995834 283.31231 
L 174.346055 282.790331 
L 174.696275 282.816856 
L 175.396717 282.017381 
L 175.746937 282.041492 
L 176.097158 281.862865 
L 176.447379 281.214379 
L 176.797599 281.433349 
L 177.14782 280.942513 
L 177.498041 281.089747 
L 177.848261 280.912556 
L 178.198482 280.984868 
L 178.548703 280.431819 
L 178.898923 280.453136 
L 179.249144 279.888913 
L 179.599365 279.986938 
L 180.299806 278.796069 
L 180.650026 278.560404 
L 181.000247 278.485457 
L 181.350468 278.212132 
L 181.700688 278.185041 
L 182.050909 278.289666 
L 182.40113 278.269823 
L 183.451792 277.879086 
L 183.802012 278.006304 
L 184.502454 277.677549 
L 184.852674 277.110758 
L 185.202895 275.838548 
L 185.553116 276.78819 
L 185.903336 277.100817 
L 186.253557 276.772619 
L 186.603778 276.962996 
L 186.953998 276.488047 
L 187.65444 275.873933 
L 188.00466 275.265123 
L 188.354881 274.883309 
L 188.705102 274.083441 
L 189.055322 271.71615 
L 189.405543 270.199861 
L 189.755763 272.446101 
L 190.105984 273.038452 
L 190.456205 273.054743 
L 190.806425 273.291498 
L 191.156646 273.274448 
L 191.506867 273.591304 
L 191.857087 272.937418 
L 192.207308 273.052396 
L 192.557529 271.831143 
L 192.907749 271.457949 
L 193.25797 271.670123 
L 193.958411 270.452287 
L 194.308632 270.781911 
L 194.658853 270.75013 
L 195.009073 270.357665 
L 195.359294 269.788032 
L 195.709515 269.491653 
L 196.059735 269.533662 
L 196.760177 267.767947 
L 197.110397 267.248599 
L 197.460618 266.969505 
L 197.810838 265.952212 
L 198.161059 265.59987 
L 199.211721 263.548556 
L 199.561942 263.896818 
L 200.262383 263.554292 
L 200.962824 262.896647 
L 201.313045 263.182548 
L 202.013486 262.820001 
L 202.713928 261.912872 
L 203.76459 261.44919 
L 204.11481 261.452228 
L 204.465031 260.501161 
L 204.815252 260.405363 
L 205.165472 260.431427 
L 205.515693 259.944339 
L 206.566355 257.532667 
L 206.916575 257.077764 
L 207.266796 254.882557 
L 207.617017 251.785419 
L 207.967237 256.380759 
L 208.317458 257.382111 
L 208.667679 257.102522 
L 209.017899 256.609492 
L 209.36812 256.676587 
L 209.718341 256.930505 
L 210.418782 255.893168 
L 211.119223 255.419842 
L 211.469444 255.03701 
L 211.819665 253.943844 
L 212.169885 253.690257 
L 212.520106 253.628284 
L 213.220547 252.660973 
L 213.570768 251.511153 
L 213.920989 250.79456 
L 214.271209 251.246175 
L 214.97165 249.833796 
L 215.321871 248.5345 
L 215.672092 248.156583 
L 216.022312 247.971755 
L 216.722754 245.888152 
L 217.072974 244.265467 
L 217.423195 244.97608 
L 217.773416 244.842132 
L 218.473857 243.474551 
L 218.824078 243.33346 
L 219.174298 243.433228 
L 219.524519 244.559307 
L 219.87474 243.981923 
L 220.22496 244.240315 
L 220.575181 243.627329 
L 220.925402 243.693963 
L 221.625843 242.083829 
L 221.976064 241.07618 
L 222.326284 241.269868 
L 223.026726 238.542497 
L 223.376946 239.188761 
L 223.727167 238.686501 
L 224.077387 237.497864 
L 224.427608 237.409611 
L 224.777829 236.611855 
L 225.128049 236.157638 
L 225.47827 232.989389 
L 225.828491 225.679013 
L 226.178711 230.941637 
L 226.528932 233.747699 
L 226.879153 234.044121 
L 227.579594 233.735214 
L 227.929815 233.820961 
L 228.280035 233.781683 
L 228.630256 232.908264 
L 228.980477 232.690278 
L 229.330697 232.96235 
L 230.031139 231.940512 
L 230.73158 230.105812 
L 231.081801 228.096282 
L 231.432021 228.772301 
L 231.782242 228.672188 
L 232.132462 225.02768 
L 232.482683 225.826987 
L 233.183124 223.395328 
L 233.533345 221.055651 
L 233.883566 220.97133 
L 234.233786 220.650917 
L 234.934228 216.575453 
L 235.284448 216.305065 
L 235.634669 215.703311 
L 235.98489 215.409437 
L 236.685331 213.083565 
L 237.035552 212.884188 
L 237.385772 212.815314 
L 237.735993 213.835045 
L 238.086214 213.952491 
L 238.786655 215.421077 
L 239.487096 215.902006 
L 239.837317 213.839245 
L 240.187538 213.318999 
L 240.537758 213.768891 
L 240.887979 212.850526 
L 241.238199 211.160752 
L 241.58842 212.631513 
L 241.938641 213.214537 
L 242.288861 211.474421 
L 242.639082 211.260385 
L 242.989303 210.280417 
L 243.339523 205.323518 
L 243.689744 207.308381 
L 244.039965 199.110715 
L 244.740406 208.844585 
L 245.090627 207.581543 
L 245.440847 208.908554 
L 245.791068 208.415957 
L 246.141289 208.334127 
L 246.491509 207.048947 
L 246.84173 209.218431 
L 247.191951 209.819225 
L 247.542171 209.25673 
L 247.892392 208.024619 
L 248.242613 207.604573 
L 248.592833 206.642806 
L 248.943054 206.575823 
L 249.293274 208.278231 
L 249.643495 207.305179 
L 249.993716 205.921466 
L 250.343936 203.976769 
L 250.694157 203.791869 
L 251.044378 202.987676 
L 251.394598 203.085913 
L 251.744819 201.015716 
L 252.09504 200.967961 
L 252.44526 199.543169 
L 252.795481 199.316351 
L 253.145702 198.881564 
L 253.495922 197.520238 
L 254.196364 197.531489 
L 254.896805 196.980663 
L 255.247026 197.799433 
L 255.597246 196.41139 
L 255.947467 195.672434 
L 256.297688 198.318393 
L 256.647908 198.449907 
L 256.998129 198.324714 
L 257.34835 198.404619 
L 257.69857 198.337919 
L 258.048791 197.013068 
L 258.399011 197.329002 
L 258.749232 197.864056 
L 259.099453 197.273524 
L 259.449673 194.562895 
L 259.799894 195.305788 
L 260.150115 194.93533 
L 260.500335 192.053808 
L 260.850556 193.463623 
L 261.901218 189.704127 
L 262.251439 177.950197 
L 262.601659 182.458686 
L 262.95188 189.239499 
L 263.302101 190.484008 
L 264.002542 189.281782 
L 264.352763 188.102749 
L 264.702983 188.984222 
L 265.053204 188.7341 
L 265.403425 189.661758 
L 265.753645 187.567533 
L 266.103866 189.417285 
L 266.804307 187.496522 
L 267.154528 187.469546 
L 267.504748 188.043398 
L 267.854969 185.642823 
L 268.20519 185.236913 
L 268.55541 183.227033 
L 268.905631 185.07284 
L 269.255852 186.246776 
L 269.606072 183.992303 
L 270.306514 177.705076 
L 270.656734 179.079147 
L 271.006955 177.947216 
L 271.357176 177.329027 
L 271.707396 175.860786 
L 272.057617 176.471281 
L 272.407838 176.641949 
L 272.758058 176.488541 
L 273.108279 176.000364 
L 273.4585 175.221784 
L 273.80872 173.048733 
L 274.158941 175.794354 
L 274.509162 176.571653 
L 274.859382 176.717884 
L 275.209603 177.953346 
L 275.559823 178.638974 
L 276.260265 178.384417 
L 276.610485 178.860767 
L 276.960706 178.585944 
L 277.310927 179.209053 
L 278.011368 176.694921 
L 278.361589 178.27733 
L 278.711809 177.739747 
L 279.06203 176.401729 
L 279.412251 176.549539 
L 279.762471 175.905133 
L 280.112692 173.898718 
L 280.462913 162.806316 
L 280.813133 162.511007 
L 281.163354 173.368441 
L 281.513575 174.890821 
L 281.863795 175.202502 
L 282.214016 174.154672 
L 282.564237 172.739471 
L 283.264678 171.153683 
L 283.614898 171.108774 
L 283.965119 171.6349 
L 284.31534 171.258001 
L 284.66556 162.7917 
L 285.015781 159.096624 
L 285.366002 157.657721 
L 285.716222 158.730544 
L 286.766884 154.971207 
L 287.117105 155.235076 
L 287.467326 157.226092 
L 287.817546 155.401587 
L 288.167767 154.705264 
L 288.517988 156.334324 
L 288.868208 157.229956 
L 289.56865 154.413632 
L 289.91887 151.73235 
L 290.269091 151.529532 
L 290.619312 150.074303 
L 290.969532 151.331259 
L 291.319753 151.158455 
L 291.669974 152.151748 
L 292.020194 151.19997 
L 292.370415 151.207904 
L 292.720635 152.046542 
L 293.070856 153.529543 
L 293.421077 152.820903 
L 293.771297 154.522505 
L 294.471739 154.6426 
L 294.821959 155.299348 
L 295.17218 154.102675 
L 295.522401 154.271581 
L 295.872621 153.325266 
L 296.222842 151.612485 
L 296.573063 153.565754 
L 296.923283 153.958839 
L 297.273504 153.767766 
L 297.623725 155.962863 
L 297.973945 154.124126 
L 298.674387 146.690434 
L 299.024607 140.777515 
L 299.725049 149.62384 
L 300.075269 148.969113 
L 300.42549 149.785815 
L 300.775711 148.774042 
L 301.476152 147.907718 
L 301.826372 148.036276 
L 302.176593 149.509039 
L 302.526814 149.144639 
L 302.877034 148.960574 
L 303.227255 147.229957 
L 303.577476 150.065529 
L 304.277917 147.39545 
L 304.628138 149.40859 
L 304.978358 148.239185 
L 305.328579 145.196211 
L 305.6788 145.495178 
L 306.02902 143.685423 
L 306.379241 142.624973 
L 306.729462 144.289932 
L 307.079682 144.626554 
L 307.780124 137.968477 
L 308.130344 137.855125 
L 308.480565 137.525741 
L 308.830786 136.851392 
L 309.181006 134.403202 
L 309.531227 135.694804 
L 309.881447 134.472874 
L 310.231668 134.566474 
L 310.581889 135.673632 
L 310.932109 138.382244 
L 311.28233 139.010302 
L 311.632551 139.055398 
L 311.982771 140.414161 
L 312.332992 138.440535 
L 313.033433 139.495402 
L 313.383654 139.741425 
L 313.733875 139.539783 
L 314.084095 139.141687 
L 314.434316 141.282074 
L 314.784537 140.297267 
L 315.134757 140.768198 
L 315.484978 139.368793 
L 315.835199 140.338605 
L 316.53564 137.951744 
L 316.885861 133.194246 
L 317.236081 122.054204 
L 317.936523 133.190003 
L 318.286743 133.495781 
L 318.636964 135.056882 
L 318.987184 133.579469 
L 319.337405 136.069457 
L 319.687626 135.189755 
L 320.037846 132.096515 
L 320.388067 133.790389 
L 320.738288 133.784586 
L 321.088508 135.860754 
L 321.438729 132.338737 
L 321.78895 126.377885 
L 322.13917 126.518946 
L 322.489391 135.906502 
L 322.839612 125.367921 
L 323.540053 122.244739 
L 323.890274 125.572943 
L 324.240494 125.412326 
L 324.590715 124.200538 
L 324.940936 121.413441 
L 325.291156 121.991992 
L 325.991598 115.129896 
L 326.341818 115.822912 
L 326.692039 115.621279 
L 327.042259 113.413347 
L 327.39248 113.331152 
L 327.742701 114.151512 
L 328.092921 113.02069 
L 328.443142 113.778265 
L 328.793363 113.870151 
L 329.143583 116.879132 
L 329.493804 117.629436 
L 330.194245 120.338169 
L 330.544466 118.477645 
L 330.894687 119.502877 
L 331.244907 119.621595 
L 331.595128 117.050338 
L 331.945349 119.937995 
L 332.295569 120.739999 
L 332.64579 117.947339 
L 332.996011 117.191937 
L 333.346231 119.25802 
L 333.696452 116.081419 
L 334.046673 119.17439 
L 334.396893 119.447336 
L 334.747114 115.506929 
L 335.447555 102.694498 
L 335.797776 109.251646 
L 336.147996 113.719341 
L 336.498217 113.652016 
L 336.848438 114.179692 
L 337.198658 113.149502 
L 337.548879 113.27001 
L 337.8991 113.922082 
L 338.599541 111.829796 
L 338.949762 114.56934 
L 339.650203 108.005198 
L 340.000424 111.360781 
L 340.350644 107.487525 
L 340.700865 109.906723 
L 341.051086 110.500884 
L 341.401306 109.333688 
L 341.751527 106.461482 
L 342.101748 110.811855 
L 342.451968 110.667832 
L 342.802189 107.568582 
L 343.15241 108.09394 
L 343.50263 107.57032 
L 343.852851 103.371333 
L 344.553292 99.233892 
L 344.903513 99.557746 
L 345.253733 99.39951 
L 345.603954 98.376155 
L 345.954175 99.638194 
L 346.304395 98.296658 
L 346.654616 99.201022 
L 347.004837 97.941042 
L 348.055499 104.241588 
L 348.405719 103.279058 
L 348.75594 104.781187 
L 349.106161 104.363287 
L 349.456381 103.751794 
L 349.806602 103.478209 
L 350.156823 105.455575 
L 350.507043 106.077244 
L 350.857264 103.575294 
L 351.207485 104.431346 
L 351.557705 106.688286 
L 351.907926 104.364554 
L 352.258147 105.911827 
L 352.608367 106.402476 
L 352.958588 105.034324 
L 353.308808 100.57862 
L 353.659029 89.540131 
L 354.35947 101.510483 
L 354.709691 101.511342 
L 355.059912 103.846339 
L 355.410132 102.911025 
L 356.110574 99.907813 
L 356.460794 99.243103 
L 356.811015 101.493198 
L 357.161236 87.360975 
L 357.861677 87.360975 
L 358.211898 98.001286 
L 358.562118 96.82737 
L 358.912339 97.258696 
L 359.26256 101.596911 
L 359.61278 100.939074 
L 359.963001 97.55365 
L 360.313222 98.458287 
L 360.663442 97.250018 
L 361.013663 98.087792 
L 361.363883 95.354228 
L 361.714104 90.393288 
L 362.064325 91.109771 
L 362.414545 87.206535 
L 362.764766 88.005948 
L 363.114987 87.664093 
L 363.465207 88.187003 
L 363.815428 88.04008 
L 364.165649 87.397666 
L 364.515869 88.953972 
L 364.86609 88.756986 
L 365.216311 88.776882 
L 365.566531 92.168675 
L 365.916752 92.935577 
L 366.266973 94.247997 
L 366.617193 95.072321 
L 367.667855 94.594214 
L 368.018076 94.962944 
L 368.368297 94.588608 
L 368.718517 95.058027 
L 369.068738 96.114732 
L 369.418959 93.648878 
L 369.769179 95.233067 
L 370.1194 96.218829 
L 370.46962 91.116064 
L 370.819841 95.088137 
L 371.170062 93.531168 
L 371.520282 89.245777 
L 371.870503 80.697574 
L 372.220724 79.184021 
L 372.570944 91.505789 
L 372.921165 94.248875 
L 373.271386 91.986617 
L 373.621606 90.625799 
L 373.971827 91.952316 
L 374.672268 89.880732 
L 375.022489 90.542164 
L 375.37271 87.526435 
L 375.72293 88.368763 
L 376.073151 86.84311 
L 376.423372 84.515044 
L 376.773592 82.934954 
L 377.123813 85.263096 
L 377.474034 84.123438 
L 377.824254 85.373885 
L 378.174475 85.281643 
L 378.524695 88.42943 
L 378.874916 87.658588 
L 379.575357 82.014332 
L 379.925578 81.517468 
L 380.275799 82.487653 
L 380.626019 81.123317 
L 380.97624 77.576744 
L 381.326461 76.680823 
L 381.676681 77.561907 
L 382.026902 73.244217 
L 382.377123 74.893028 
L 382.727343 74.684244 
L 383.077564 74.811385 
L 383.427785 75.301636 
L 384.128226 80.521487 
L 384.478447 81.835759 
L 385.529109 79.428061 
L 385.879329 80.987204 
L 386.22955 80.318217 
L 386.579771 81.882155 
L 386.929991 84.312739 
L 387.280212 81.839013 
L 387.630432 83.901208 
L 387.980653 82.957874 
L 388.330874 85.335845 
L 388.681094 81.072423 
L 389.031315 84.865975 
L 389.381536 82.25999 
L 389.731756 80.556973 
L 390.432198 67.668827 
L 390.782418 80.593155 
L 391.132639 81.599566 
L 391.48286 80.090809 
L 391.83308 82.234301 
L 392.533522 83.665117 
L 392.883742 75.765242 
L 393.233963 82.630299 
L 393.584184 84.025984 
L 393.934404 79.279132 
L 394.284625 78.35831 
L 394.634846 79.684687 
L 394.985066 77.828114 
L 395.335287 77.042967 
L 395.685508 76.880627 
L 396.035728 78.543085 
L 396.385949 77.446371 
L 396.736169 75.518945 
L 397.08639 77.752941 
L 397.436611 76.903009 
L 397.786831 74.026392 
L 398.137052 75.956516 
L 398.487273 73.337859 
L 398.487273 73.337859 
" clip-path="url(#p0f0281ca93)" style="fill: none; stroke: #ff7f0e; stroke-width: 1.5; stroke-linecap: square"/>
   </g>
   <g id="line2d_19">
    <path d="M 73.832727 295.258619 
L 81.537582 295.220656 
L 81.887802 295.267878 
L 82.588244 295.183312 
L 84.689568 295.253953 
L 93.445084 295.230337 
L 93.795305 295.014199 
L 94.145525 295.186552 
L 120.061853 295.309225 
L 120.412074 295.235876 
L 121.112515 295.371274 
L 123.914281 295.350788 
L 126.365825 295.367161 
L 126.716046 295.42128 
L 127.766708 295.295295 
L 128.116929 295.379789 
L 129.16759 295.233995 
L 129.868032 295.352401 
L 130.218252 295.24528 
L 131.268914 295.38926 
L 131.619135 295.260126 
L 132.669797 295.241896 
L 133.020018 295.113587 
L 134.07068 295.345666 
L 134.771121 295.112608 
L 135.121342 295.189993 
L 135.471562 295.084893 
L 137.222665 295.271622 
L 138.273327 294.908508 
L 138.623548 295.096691 
L 138.973769 295.008837 
L 140.024431 295.177288 
L 140.374651 295.0485 
L 140.724872 295.091071 
L 141.425313 294.886304 
L 141.775534 294.93439 
L 142.475975 294.859894 
L 142.826196 294.988798 
L 143.526637 294.847885 
L 143.876858 295.06842 
L 147.379064 294.834133 
L 147.729285 294.640482 
L 148.079506 294.591316 
L 148.779947 294.754367 
L 149.480388 294.7147 
L 149.830609 294.950657 
L 151.231492 294.661449 
L 152.282154 294.693916 
L 152.632374 294.939444 
L 153.683036 294.527856 
L 154.383477 294.601559 
L 154.733698 294.547608 
L 155.083919 294.749288 
L 155.434139 294.552528 
L 156.134581 294.80193 
L 157.185243 294.457469 
L 158.235905 294.546892 
L 158.586125 294.355095 
L 158.936346 294.478838 
L 159.636787 294.205816 
L 159.987008 294.341746 
L 160.337229 294.245334 
L 160.687449 294.309303 
L 161.387891 294.265643 
L 162.088332 294.258913 
L 162.438553 294.161262 
L 162.788773 294.268403 
L 163.839435 294.114194 
L 164.189656 294.293756 
L 164.890097 294.155545 
L 165.240318 293.901171 
L 165.590538 293.785141 
L 165.940759 293.503512 
L 166.6412 293.463638 
L 166.991421 293.230633 
L 167.341642 293.69301 
L 167.691862 293.660173 
L 168.042083 293.394907 
L 168.392304 293.346711 
L 168.742524 292.985988 
L 169.092745 293.176667 
L 169.442966 292.675304 
L 170.143407 293.113422 
L 170.493628 293.02074 
L 170.843848 293.978623 
L 171.194069 293.910564 
L 171.544289 292.845872 
L 171.89451 292.728944 
L 172.244731 292.770565 
L 172.594951 292.971175 
L 172.945172 292.144465 
L 173.295393 292.837899 
L 173.645613 292.842118 
L 173.995834 292.448664 
L 174.346055 292.962516 
L 174.696275 292.258057 
L 175.046496 292.363517 
L 175.396717 292.756112 
L 176.097158 292.710719 
L 176.447379 292.972562 
L 176.797599 292.535207 
L 177.14782 292.794344 
L 177.498041 292.244746 
L 177.848261 292.668628 
L 178.198482 292.418736 
L 178.548703 292.773354 
L 178.898923 292.597276 
L 179.249144 292.902823 
L 179.949585 292.004157 
L 180.299806 292.731781 
L 180.650026 292.613673 
L 181.000247 292.227855 
L 181.350468 292.466208 
L 181.700688 292.84543 
L 182.40113 292.229012 
L 182.75135 292.118713 
L 183.101571 291.637645 
L 183.451792 291.870348 
L 183.802012 291.721266 
L 184.152233 291.307844 
L 184.502454 291.421382 
L 184.852674 288.872253 
L 185.202895 292.194577 
L 185.553116 292.466222 
L 185.903336 291.560159 
L 186.253557 291.556732 
L 186.953998 291.00737 
L 187.304219 291.047061 
L 187.65444 290.790392 
L 188.00466 290.906301 
L 188.705102 290.367283 
L 189.055322 292.103243 
L 189.405543 292.762405 
L 189.755763 289.950256 
L 190.105984 290.261684 
L 190.806425 289.895349 
L 191.156646 290.0584 
L 191.506867 290.014163 
L 191.857087 290.564039 
L 192.207308 288.455903 
L 192.557529 289.971971 
L 192.907749 289.964891 
L 193.25797 289.34881 
L 193.608191 289.668757 
L 193.958411 290.159204 
L 194.308632 289.850062 
L 194.658853 289.923511 
L 195.009073 288.809321 
L 195.359294 289.32408 
L 195.709515 288.957607 
L 196.059735 288.389433 
L 196.409956 289.702381 
L 196.760177 288.70471 
L 197.110397 289.662709 
L 197.460618 288.689014 
L 197.810838 289.106406 
L 198.161059 288.557975 
L 198.51128 289.891529 
L 198.8615 289.602733 
L 199.211721 288.710883 
L 199.912162 289.517999 
L 200.262383 289.236624 
L 200.612604 288.177543 
L 200.962824 288.853274 
L 201.313045 287.294774 
L 201.663266 287.78321 
L 202.013486 286.992851 
L 202.713928 286.271726 
L 203.414369 286.408363 
L 203.76459 286.462425 
L 204.11481 285.455404 
L 204.465031 286.528645 
L 204.815252 286.247818 
L 205.165472 285.226694 
L 205.515693 285.461231 
L 205.865914 285.231398 
L 206.216134 285.332913 
L 206.916575 286.505773 
L 207.266796 288.21566 
L 207.617017 289.245351 
L 207.967237 285.241166 
L 208.317458 284.861354 
L 208.667679 284.90799 
L 209.017899 285.338016 
L 209.36812 285.26412 
L 209.718341 285.051274 
L 210.418782 285.839167 
L 210.769003 284.859741 
L 211.119223 285.09421 
L 211.469444 284.445445 
L 211.819665 285.535712 
L 212.169885 285.63259 
L 212.520106 284.651868 
L 213.220547 283.711418 
L 213.570768 283.123455 
L 213.920989 285.02678 
L 214.271209 284.077757 
L 214.62143 283.778517 
L 214.97165 284.690859 
L 215.321871 283.795116 
L 215.672092 284.495072 
L 216.022312 284.410751 
L 216.372533 283.989735 
L 216.722754 284.948238 
L 217.072974 285.429268 
L 217.423195 284.993545 
L 217.773416 284.224502 
L 218.123636 284.561307 
L 218.473857 285.367233 
L 218.824078 284.890014 
L 219.524519 283.007924 
L 219.87474 283.127827 
L 220.22496 281.351457 
L 220.925402 281.322393 
L 221.275622 280.23671 
L 221.625843 281.473069 
L 221.976064 281.290569 
L 222.326284 280.17276 
L 222.676505 279.580735 
L 223.026726 280.998874 
L 223.376946 279.749944 
L 224.077387 279.527897 
L 224.777829 280.03453 
L 225.128049 278.386971 
L 225.47827 280.817805 
L 225.828491 284.643531 
L 226.528932 278.429677 
L 226.879153 278.673554 
L 227.229373 278.16598 
L 227.579594 278.855684 
L 227.929815 279.292674 
L 228.280035 279.126533 
L 228.630256 279.096686 
L 228.980477 279.586322 
L 229.330697 278.780742 
L 229.680918 278.691568 
L 230.031139 278.232407 
L 230.381359 279.134448 
L 230.73158 279.271545 
L 231.081801 278.963861 
L 231.432021 279.014976 
L 231.782242 276.007718 
L 232.132462 279.892763 
L 232.482683 277.404406 
L 232.832904 277.449012 
L 233.183124 278.168169 
L 233.533345 280.075488 
L 233.883566 279.304257 
L 234.233786 278.057702 
L 234.584007 277.592441 
L 234.934228 280.202068 
L 235.284448 279.717347 
L 235.634669 279.725637 
L 235.98489 278.911609 
L 236.33511 279.754091 
L 236.685331 280.267646 
L 237.385772 280.820819 
L 238.086214 277.485123 
L 238.436434 277.769425 
L 238.786655 277.188153 
L 239.136876 278.017853 
L 239.487096 276.610576 
L 239.837317 276.931008 
L 240.187538 277.674511 
L 240.537758 276.472423 
L 240.887979 276.952047 
L 241.238199 278.204308 
L 241.58842 276.413585 
L 241.938641 275.446855 
L 242.288861 276.692018 
L 242.639082 276.810875 
L 242.989303 290.531102 
L 243.339523 281.13036 
L 243.689744 278.456369 
L 244.039965 283.172362 
L 244.390185 281.958803 
L 244.740406 276.403501 
L 245.090627 277.459721 
L 245.440847 276.130425 
L 245.791068 276.190751 
L 246.141289 276.059553 
L 246.491509 278.528134 
L 246.84173 277.108881 
L 247.191951 276.325707 
L 247.542171 275.871802 
L 247.892392 277.176897 
L 248.242613 277.323493 
L 248.592833 277.981853 
L 248.943054 277.771014 
L 249.293274 273.785209 
L 249.643495 275.659523 
L 249.993716 274.624931 
L 250.343936 277.589335 
L 250.694157 275.744392 
L 251.044378 275.281165 
L 251.744819 276.446144 
L 252.09504 275.461875 
L 252.795481 277.737755 
L 253.495922 279.21911 
L 254.196364 277.688267 
L 254.896805 279.518729 
L 255.247026 278.846444 
L 255.597246 278.505646 
L 255.947467 278.600657 
L 256.297688 274.701448 
L 256.647908 274.261151 
L 257.69857 274.163461 
L 258.048791 274.634819 
L 258.399011 273.450838 
L 258.749232 273.92016 
L 259.099453 271.329046 
L 259.449673 274.12151 
L 259.799894 272.990635 
L 260.150115 271.040567 
L 260.500335 273.225834 
L 260.850556 271.397527 
L 261.200777 272.602298 
L 261.550997 272.640755 
L 261.901218 273.81625 
L 262.251439 284.426375 
L 262.95188 273.604686 
L 264.002542 272.394166 
L 264.352763 274.560948 
L 264.702983 273.498871 
L 265.053204 274.178946 
L 265.403425 271.731169 
L 265.753645 273.295006 
L 266.454086 272.025191 
L 266.804307 272.997547 
L 267.504748 271.936382 
L 267.854969 274.198232 
L 268.20519 271.345399 
L 268.55541 273.260355 
L 268.905631 271.671736 
L 269.255852 271.286014 
L 269.606072 271.37562 
L 270.306514 274.347233 
L 270.656734 272.547357 
L 271.006955 273.825543 
L 271.357176 274.137551 
L 271.707396 273.939355 
L 272.057617 274.703094 
L 272.407838 273.069263 
L 272.758058 274.580445 
L 273.108279 274.095287 
L 273.4585 274.28469 
L 273.80872 276.408608 
L 274.509162 271.68326 
L 274.859382 271.681191 
L 275.209603 271.818946 
L 275.559823 270.668017 
L 275.910044 271.345812 
L 276.260265 271.716073 
L 276.610485 269.479864 
L 276.960706 270.808676 
L 277.310927 270.468789 
L 278.011368 271.92923 
L 278.361589 268.770399 
L 279.06203 270.635612 
L 279.412251 270.601585 
L 279.762471 270.329273 
L 280.112692 271.934678 
L 280.462913 281.866749 
L 280.813133 281.654882 
L 281.163354 271.514459 
L 281.513575 270.205266 
L 281.863795 269.941545 
L 282.214016 270.238222 
L 282.564237 270.754489 
L 282.914457 272.050545 
L 283.264678 271.532599 
L 283.614898 272.098281 
L 283.965119 271.347103 
L 284.31534 270.891739 
L 284.66556 279.56143 
L 285.015781 283.828231 
L 285.366002 285.006495 
L 286.066443 282.950027 
L 286.766884 284.005542 
L 287.117105 283.995807 
L 287.467326 281.466694 
L 287.817546 281.500285 
L 288.167767 282.775941 
L 288.517988 278.57693 
L 288.868208 279.738011 
L 289.218429 279.361016 
L 289.56865 278.52427 
L 289.91887 281.8864 
L 290.269091 280.635958 
L 290.619312 281.110555 
L 290.969532 279.94741 
L 291.319753 279.384512 
L 291.669974 280.235563 
L 292.020194 279.650834 
L 292.370415 280.219031 
L 292.720635 279.718418 
L 293.070856 277.500948 
L 293.421077 277.582385 
L 293.771297 274.885032 
L 294.121518 276.753117 
L 294.471739 276.766998 
L 294.821959 275.242592 
L 295.17218 276.930922 
L 295.522401 277.954047 
L 295.872621 277.97328 
L 296.222842 277.52897 
L 296.573063 279.156724 
L 297.273504 276.593829 
L 297.623725 275.570008 
L 298.324166 278.874078 
L 299.024607 286.228464 
L 299.725049 277.588548 
L 300.075269 278.442262 
L 301.125931 277.712104 
L 301.476152 279.116928 
L 301.826372 278.730443 
L 302.176593 275.018366 
L 302.526814 274.890188 
L 302.877034 273.550231 
L 303.227255 277.783499 
L 303.577476 275.777934 
L 303.927696 276.466227 
L 304.277917 277.476017 
L 304.628138 275.590845 
L 304.978358 272.346209 
L 305.328579 278.339994 
L 305.6788 276.340659 
L 306.379241 280.071024 
L 306.729462 274.225501 
L 307.079682 273.354593 
L 307.429903 274.952362 
L 307.780124 278.264063 
L 308.130344 279.898537 
L 308.480565 278.130244 
L 308.830786 278.392256 
L 309.181006 279.757168 
L 309.531227 278.073806 
L 310.231668 278.155358 
L 310.581889 280.032236 
L 310.932109 275.714459 
L 311.28233 274.067515 
L 311.632551 275.960203 
L 311.982771 273.529845 
L 312.332992 275.126255 
L 312.683213 273.070363 
L 313.383654 274.740587 
L 313.733875 274.671803 
L 314.084095 275.455956 
L 314.434316 273.193252 
L 314.784537 272.790817 
L 315.134757 273.923856 
L 315.484978 273.396195 
L 315.835199 271.744892 
L 316.185419 272.949139 
L 316.53564 272.933342 
L 316.885861 276.418745 
L 317.236081 284.881749 
L 317.586302 280.284124 
L 317.936523 278.981703 
L 318.286743 274.834834 
L 318.636964 273.093292 
L 318.987184 277.148289 
L 319.337405 272.937514 
L 319.687626 272.1073 
L 320.037846 275.154681 
L 320.388067 274.185052 
L 320.738288 274.161301 
L 321.088508 272.639747 
L 321.438729 269.641681 
L 321.78895 274.906488 
L 322.13917 274.959792 
L 322.489391 264.2397 
L 322.839612 274.341219 
L 323.189832 273.412318 
L 323.540053 278.091633 
L 324.240494 273.553044 
L 324.590715 276.42486 
L 324.940936 276.388971 
L 325.291156 274.373062 
L 325.641377 274.483903 
L 325.991598 278.686437 
L 326.341818 272.826893 
L 326.692039 275.121465 
L 327.042259 278.858051 
L 327.39248 280.594054 
L 327.742701 278.267413 
L 328.092921 279.692066 
L 328.793363 279.345872 
L 329.143583 278.173324 
L 329.493804 276.566964 
L 329.844025 273.970474 
L 330.194245 272.825741 
L 330.544466 273.310909 
L 330.894687 272.635115 
L 331.244907 270.834331 
L 331.595128 274.592997 
L 331.945349 274.909224 
L 332.295569 271.951181 
L 332.64579 271.475186 
L 332.996011 274.93944 
L 333.346231 271.299761 
L 333.696452 276.110755 
L 334.046673 271.541935 
L 334.396893 271.248003 
L 334.747114 273.119054 
L 335.097335 276.999807 
L 335.447555 282.318978 
L 336.147996 273.645193 
L 336.498217 272.438249 
L 336.848438 272.286142 
L 337.198658 275.487881 
L 337.8991 272.839191 
L 338.24932 275.352478 
L 338.599541 275.532909 
L 338.949762 271.294385 
L 339.299982 274.962855 
L 339.650203 276.792808 
L 340.000424 272.044843 
L 340.350644 277.003258 
L 341.051086 271.610123 
L 341.751527 276.722089 
L 342.101748 272.311913 
L 342.451968 271.143949 
L 342.802189 275.741411 
L 343.15241 275.260146 
L 343.50263 273.146884 
L 343.852851 277.313576 
L 344.203071 278.194838 
L 344.553292 276.912927 
L 344.903513 278.003179 
L 345.253733 277.793396 
L 345.603954 278.408792 
L 345.954175 277.007328 
L 346.304395 278.700914 
L 346.654616 276.576741 
L 347.004837 279.267887 
L 347.705278 270.79632 
L 348.055499 270.818856 
L 348.405719 273.715772 
L 348.75594 272.969616 
L 349.106161 269.815603 
L 349.456381 272.553031 
L 349.806602 271.724065 
L 350.156823 273.597439 
L 350.507043 270.446498 
L 351.207485 273.291387 
L 351.557705 271.230944 
L 351.907926 274.693614 
L 352.258147 271.098455 
L 352.608367 272.790221 
L 352.958588 271.507072 
L 353.308808 275.639181 
L 353.659029 284.169639 
L 354.00925 282.13273 
L 354.35947 275.336778 
L 354.709691 274.580301 
L 355.059912 272.325948 
L 355.410132 271.893888 
L 355.760353 274.641131 
L 356.110574 273.38166 
L 356.460794 274.685689 
L 356.811015 272.43689 
L 357.161236 295.488 
L 357.861677 295.488 
L 358.211898 273.755679 
L 358.912339 275.931399 
L 359.26256 271.185037 
L 359.61278 270.298635 
L 359.963001 274.066622 
L 360.663442 271.394162 
L 361.013663 271.410972 
L 361.363883 269.503422 
L 361.714104 275.417715 
L 362.064325 273.356566 
L 362.414545 277.620813 
L 362.764766 275.620504 
L 363.114987 279.751586 
L 363.465207 276.341744 
L 364.165649 278.738814 
L 364.515869 278.605965 
L 364.86609 277.514182 
L 365.216311 278.660263 
L 365.566531 274.303434 
L 365.916752 272.343665 
L 366.266973 272.538506 
L 366.967414 272.346425 
L 367.317635 276.58758 
L 367.667855 272.853864 
L 368.018076 272.990448 
L 368.368297 271.361451 
L 368.718517 273.152601 
L 369.068738 271.625272 
L 369.418959 274.005211 
L 369.769179 272.238939 
L 370.1194 269.148992 
L 370.46962 275.619405 
L 370.819841 270.478716 
L 371.170062 271.867791 
L 372.220724 287.345208 
L 372.570944 276.601221 
L 372.921165 272.733231 
L 373.621606 274.669624 
L 373.971827 272.299193 
L 374.672268 273.509354 
L 375.022489 270.631787 
L 375.37271 274.148414 
L 376.073151 270.617392 
L 376.773592 277.437488 
L 377.123813 273.85584 
L 377.474034 272.463761 
L 377.824254 277.343701 
L 378.174475 273.782329 
L 378.874916 272.269962 
L 379.225137 273.691115 
L 379.575357 276.510684 
L 379.925578 274.348597 
L 380.275799 275.514434 
L 380.626019 271.958227 
L 380.97624 279.157488 
L 381.326461 277.774432 
L 381.676681 275.529732 
L 382.026902 280.080715 
L 382.377123 277.219118 
L 382.727343 277.074787 
L 383.077564 280.382101 
L 383.427785 279.886326 
L 383.778005 277.677122 
L 384.478447 271.341252 
L 384.828667 270.816696 
L 385.178888 272.500471 
L 385.529109 273.104956 
L 385.879329 272.815978 
L 386.22955 273.988771 
L 386.579771 274.272205 
L 386.929991 269.953838 
L 387.280212 272.950608 
L 387.630432 271.116263 
L 387.980653 272.051111 
L 388.330874 271.705979 
L 388.681094 276.936504 
L 389.031315 270.687097 
L 389.381536 273.889565 
L 389.731756 275.405648 
L 390.081977 282.341591 
L 390.432198 287.009939 
L 390.782418 274.831086 
L 391.132639 271.439047 
L 391.48286 278.15002 
L 391.83308 275.260256 
L 392.183301 274.836274 
L 392.533522 272.515629 
L 392.883742 279.493649 
L 393.233963 269.540862 
L 393.584184 269.850403 
L 393.934404 274.176191 
L 394.284625 273.776982 
L 394.634846 270.790844 
L 394.985066 274.694502 
L 395.335287 274.141463 
L 395.685508 273.329912 
L 396.035728 270.512915 
L 396.385949 272.916893 
L 396.736169 276.385371 
L 397.08639 275.00375 
L 397.436611 275.355013 
L 397.786831 279.560052 
L 398.137052 273.872084 
L 398.487273 276.248154 
L 398.487273 276.248154 
" clip-path="url(#p0f0281ca93)" style="fill: none; stroke: #2ca02c; stroke-width: 1.5; stroke-linecap: square"/>
   </g>
   <g id="patch_3">
    <path d="M 57.6 307.584 
L 57.6 41.472 
" style="fill: none; stroke: #000000; stroke-width: 0.8; stroke-linejoin: miter; stroke-linecap: square"/>
   </g>
   <g id="patch_4">
    <path d="M 414.72 307.584 
L 414.72 41.472 
" style="fill: none; stroke: #000000; stroke-width: 0.8; stroke-linejoin: miter; stroke-linecap: square"/>
   </g>
   <g id="patch_5">
    <path d="M 57.6 307.584 
L 414.72 307.584 
" style="fill: none; stroke: #000000; stroke-width: 0.8; stroke-linejoin: miter; stroke-linecap: square"/>
   </g>
   <g id="patch_6">
    <path d="M 57.6 41.472 
L 414.72 41.472 
" style="fill: none; stroke: #000000; stroke-width: 0.8; stroke-linejoin: miter; stroke-linecap: square"/>
   </g>
   <g id="legend_1">
    <g id="patch_7">
     <path d="M 64.6 93.506375 
L 186.25625 93.506375 
Q 188.25625 93.506375 188.25625 91.506375 
L 188.25625 48.472 
Q 188.25625 46.472 186.25625 46.472 
L 64.6 46.472 
Q 62.6 46.472 62.6 48.472 
L 62.6 91.506375 
Q 62.6 93.506375 64.6 93.506375 
z
" style="fill: #ffffff; opacity: 0.8; stroke: #cccccc; stroke-linejoin: miter"/>
    </g>
    <g id="line2d_20">
     <path d="M 66.6 54.570438 
L 76.6 54.570438 
L 86.6 54.570438 
" style="fill: none; stroke: #1f77b4; stroke-width: 1.5; stroke-linecap: square"/>
    </g>
    <g id="text_19">
     <!-- Weekly maximum -->
     <g transform="translate(94.6 58.070438) scale(0.1 -0.1)">
      <defs>
       <path id="DejaVuSans-57" d="M 213 4666 
L 850 4666 
L 1831 722 
L 2809 4666 
L 3519 4666 
L 4500 722 
L 5478 4666 
L 6119 4666 
L 4947 0 
L 4153 0 
L 3169 4050 
L 2175 0 
L 1381 0 
L 213 4666 
z
" transform="scale(0.015625)"/>
       <path id="DejaVuSans-6b" d="M 581 4863 
L 1159 4863 
L 1159 1991 
L 2875 3500 
L 3609 3500 
L 1753 1863 
L 3688 0 
L 2938 0 
L 1159 1709 
L 1159 0 
L 581 0 
L 581 4863 
z
" transform="scale(0.015625)"/>
       <path id="DejaVuSans-79" d="M 2059 -325 
Q 1816 -950 1584 -1140 
Q 1353 -1331 966 -1331 
L 506 -1331 
L 506 -850 
L 844 -850 
Q 1081 -850 1212 -737 
Q 1344 -625 1503 -206 
L 1606 56 
L 191 3500 
L 800 3500 
L 1894 763 
L 2988 3500 
L 3597 3500 
L 2059 -325 
z
" transform="scale(0.015625)"/>
       <path id="DejaVuSans-6d" d="M 3328 2828 
Q 3544 3216 3844 3400 
Q 4144 3584 4550 3584 
Q 5097 3584 5394 3201 
Q 5691 2819 5691 2113 
L 5691 0 
L 5113 0 
L 5113 2094 
Q 5113 2597 4934 2840 
Q 4756 3084 4391 3084 
Q 3944 3084 3684 2787 
Q 3425 2491 3425 1978 
L 3425 0 
L 2847 0 
L 2847 2094 
Q 2847 2600 2669 2842 
Q 2491 3084 2119 3084 
Q 1678 3084 1418 2786 
Q 1159 2488 1159 1978 
L 1159 0 
L 581 0 
L 581 3500 
L 1159 3500 
L 1159 2956 
Q 1356 3278 1631 3431 
Q 1906 3584 2284 3584 
Q 2666 3584 2933 3390 
Q 3200 3197 3328 2828 
z
" transform="scale(0.015625)"/>
       <path id="DejaVuSans-78" d="M 3513 3500 
L 2247 1797 
L 3578 0 
L 2900 0 
L 1881 1375 
L 863 0 
L 184 0 
L 1544 1831 
L 300 3500 
L 978 3500 
L 1906 2253 
L 2834 3500 
L 3513 3500 
z
" transform="scale(0.015625)"/>
       <path id="DejaVuSans-75" d="M 544 1381 
L 544 3500 
L 1119 3500 
L 1119 1403 
Q 1119 906 1312 657 
Q 1506 409 1894 409 
Q 2359 409 2629 706 
Q 2900 1003 2900 1516 
L 2900 3500 
L 3475 3500 
L 3475 0 
L 2900 0 
L 2900 538 
Q 2691 219 2414 64 
Q 2138 -91 1772 -91 
Q 1169 -91 856 284 
Q 544 659 544 1381 
z
M 1991 3584 
L 1991 3584 
z
" transform="scale(0.015625)"/>
      </defs>
      <use xlink:href="#DejaVuSans-57"/>
      <use xlink:href="#DejaVuSans-65" transform="translate(93.001953 0)"/>
      <use xlink:href="#DejaVuSans-65" transform="translate(154.525391 0)"/>
      <use xlink:href="#DejaVuSans-6b" transform="translate(216.048828 0)"/>
      <use xlink:href="#DejaVuSans-6c" transform="translate(273.958984 0)"/>
      <use xlink:href="#DejaVuSans-79" transform="translate(301.742188 0)"/>
      <use xlink:href="#DejaVuSans-20" transform="translate(360.921875 0)"/>
      <use xlink:href="#DejaVuSans-6d" transform="translate(392.708984 0)"/>
      <use xlink:href="#DejaVuSans-61" transform="translate(490.121094 0)"/>
      <use xlink:href="#DejaVuSans-78" transform="translate(551.400391 0)"/>
      <use xlink:href="#DejaVuSans-69" transform="translate(610.580078 0)"/>
      <use xlink:href="#DejaVuSans-6d" transform="translate(638.363281 0)"/>
      <use xlink:href="#DejaVuSans-75" transform="translate(735.775391 0)"/>
      <use xlink:href="#DejaVuSans-6d" transform="translate(799.154297 0)"/>
     </g>
    </g>
    <g id="line2d_21">
     <path d="M 66.6 69.248563 
L 76.6 69.248563 
L 86.6 69.248563 
" style="fill: none; stroke: #ff7f0e; stroke-width: 1.5; stroke-linecap: square"/>
    </g>
    <g id="text_20">
     <!-- Weekly minimum -->
     <g transform="translate(94.6 72.748563) scale(0.1 -0.1)">
      <defs>
       <path id="DejaVuSans-6e" d="M 3513 2113 
L 3513 0 
L 2938 0 
L 2938 2094 
Q 2938 2591 2744 2837 
Q 2550 3084 2163 3084 
Q 1697 3084 1428 2787 
Q 1159 2491 1159 1978 
L 1159 0 
L 581 0 
L 581 3500 
L 1159 3500 
L 1159 2956 
Q 1366 3272 1645 3428 
Q 1925 3584 2291 3584 
Q 2894 3584 3203 3211 
Q 3513 2838 3513 2113 
z
" transform="scale(0.015625)"/>
      </defs>
      <use xlink:href="#DejaVuSans-57"/>
      <use xlink:href="#DejaVuSans-65" transform="translate(93.001953 0)"/>
      <use xlink:href="#DejaVuSans-65" transform="translate(154.525391 0)"/>
      <use xlink:href="#DejaVuSans-6b" transform="translate(216.048828 0)"/>
      <use xlink:href="#DejaVuSans-6c" transform="translate(273.958984 0)"/>
      <use xlink:href="#DejaVuSans-79" transform="translate(301.742188 0)"/>
      <use xlink:href="#DejaVuSans-20" transform="translate(360.921875 0)"/>
      <use xlink:href="#DejaVuSans-6d" transform="translate(392.708984 0)"/>
      <use xlink:href="#DejaVuSans-69" transform="translate(490.121094 0)"/>
      <use xlink:href="#DejaVuSans-6e" transform="translate(517.904297 0)"/>
      <use xlink:href="#DejaVuSans-69" transform="translate(581.283203 0)"/>
      <use xlink:href="#DejaVuSans-6d" transform="translate(609.066406 0)"/>
      <use xlink:href="#DejaVuSans-75" transform="translate(706.478516 0)"/>
      <use xlink:href="#DejaVuSans-6d" transform="translate(769.857422 0)"/>
     </g>
    </g>
    <g id="line2d_22">
     <path d="M 66.6 83.926688 
L 76.6 83.926688 
L 86.6 83.926688 
" style="fill: none; stroke: #2ca02c; stroke-width: 1.5; stroke-linecap: square"/>
    </g>
    <g id="text_21">
     <!-- Weekly range -->
     <g transform="translate(94.6 87.426688) scale(0.1 -0.1)">
      <use xlink:href="#DejaVuSans-57"/>
      <use xlink:href="#DejaVuSans-65" transform="translate(93.001953 0)"/>
      <use xlink:href="#DejaVuSans-65" transform="translate(154.525391 0)"/>
      <use xlink:href="#DejaVuSans-6b" transform="translate(216.048828 0)"/>
      <use xlink:href="#DejaVuSans-6c" transform="translate(273.958984 0)"/>
      <use xlink:href="#DejaVuSans-79" transform="translate(301.742188 0)"/>
      <use xlink:href="#DejaVuSans-20" transform="translate(360.921875 0)"/>
      <use xlink:href="#DejaVuSans-72" transform="translate(392.708984 0)"/>
      <use xlink:href="#DejaVuSans-61" transform="translate(433.822266 0)"/>
      <use xlink:href="#DejaVuSans-6e" transform="translate(495.101562 0)"/>
      <use xlink:href="#DejaVuSans-67" transform="translate(558.480469 0)"/>
      <use xlink:href="#DejaVuSans-65" transform="translate(621.957031 0)"/>
     </g>
    </g>
   </g>
  </g>
 </g>
 <defs>
  <clipPath id="p0f0281ca93">
   <rect x="57.6" y="41.472" width="357.12" height="266.112"/>
  </clipPath>
 </defs>
</svg>
