<?xml version="1.0" encoding="utf-8" standalone="no"?>
<!DOCTYPE svg PUBLIC "-//W3C//DTD SVG 1.1//EN"
  "http://www.w3.org/Graphics/SVG/1.1/DTD/svg11.dtd">
<svg xmlns:xlink="http://www.w3.org/1999/xlink" width="460.8pt" height="345.6pt" viewBox="0 0 460.8 345.6" xmlns="http://www.w3.org/2000/svg" version="1.1">
 <metadata>
  <rdf:RDF xmlns:dc="http://purl.org/dc/elements/1.1/" xmlns:cc="http://creativecommons.org/ns#" xmlns:rdf="http://www.w3.org/1999/02/22-rdf-syntax-ns#">
   <cc:Work>
    <dc:type rdf:resource="http://purl.org/dc/dcmitype/StillImage"/>
    <dc:date>2024-06-04T05:36:08.616759</dc:date>
    <dc:format>image/svg+xml</dc:format>
    <dc:creator>
     <cc:Agent>
      <dc:title>Matplotlib v3.9.0, https://matplotlib.org/</dc:title>
     </cc:Agent>
    </dc:creator>
   </cc:Work>
  </rdf:RDF>
 </metadata>
 <defs>
  <style type="text/css">*{stroke-linejoin: round; stroke-linecap: butt}</style>
 </defs>
 <g id="figure_1">
  <g id="patch_1">
   <path d="M 0 345.6 
L 460.8 345.6 
L 460.8 0 
L 0 0 
z
" style="fill: #ffffff"/>
  </g>
  <g id="axes_1">
   <g id="patch_2">
    <path d="M 57.6 307.584 
L 414.72 307.584 
L 414.72 41.472 
L 57.6 41.472 
z
" style="fill: #ffffff"/>
   </g>
   <g id="matplotlib.axis_1">
    <g id="xtick_1">
     <g id="line2d_1">
      <defs>
       <path id="m2341d622a2" d="M 0 0 
L 0 3.5 
" style="stroke: #000000; stroke-width: 0.8"/>
      </defs>
      <g>
       <use xlink:href="#m2341d622a2" x="60.048891" y="307.584" style="stroke: #000000; stroke-width: 0.8"/>
      </g>
     </g>
     <g id="text_1">
      <!-- 2008 -->
      <g transform="translate(47.323891 322.182437) scale(0.1 -0.1)">
       <defs>
        <path id="DejaVuSans-32" d="M 1228 531 
L 3431 531 
L 3431 0 
L 469 0 
L 469 531 
Q 828 903 1448 1529 
Q 2069 2156 2228 2338 
Q 2531 2678 2651 2914 
Q 2772 3150 2772 3378 
Q 2772 3750 2511 3984 
Q 2250 4219 1831 4219 
Q 1534 4219 1204 4116 
Q 875 4013 500 3803 
L 500 4441 
Q 881 4594 1212 4672 
Q 1544 4750 1819 4750 
Q 2544 4750 2975 4387 
Q 3406 4025 3406 3419 
Q 3406 3131 3298 2873 
Q 3191 2616 2906 2266 
Q 2828 2175 2409 1742 
Q 1991 1309 1228 531 
z
" transform="scale(0.015625)"/>
        <path id="DejaVuSans-30" d="M 2034 4250 
Q 1547 4250 1301 3770 
Q 1056 3291 1056 2328 
Q 1056 1369 1301 889 
Q 1547 409 2034 409 
Q 2525 409 2770 889 
Q 3016 1369 3016 2328 
Q 3016 3291 2770 3770 
Q 2525 4250 2034 4250 
z
M 2034 4750 
Q 2819 4750 3233 4129 
Q 3647 3509 3647 2328 
Q 3647 1150 3233 529 
Q 2819 -91 2034 -91 
Q 1250 -91 836 529 
Q 422 1150 422 2328 
Q 422 3509 836 4129 
Q 1250 4750 2034 4750 
z
" transform="scale(0.015625)"/>
        <path id="DejaVuSans-38" d="M 2034 2216 
Q 1584 2216 1326 1975 
Q 1069 1734 1069 1313 
Q 1069 891 1326 650 
Q 1584 409 2034 409 
Q 2484 409 2743 651 
Q 3003 894 3003 1313 
Q 3003 1734 2745 1975 
Q 2488 2216 2034 2216 
z
M 1403 2484 
Q 997 2584 770 2862 
Q 544 3141 544 3541 
Q 544 4100 942 4425 
Q 1341 4750 2034 4750 
Q 2731 4750 3128 4425 
Q 3525 4100 3525 3541 
Q 3525 3141 3298 2862 
Q 3072 2584 2669 2484 
Q 3125 2378 3379 2068 
Q 3634 1759 3634 1313 
Q 3634 634 3220 271 
Q 2806 -91 2034 -91 
Q 1263 -91 848 271 
Q 434 634 434 1313 
Q 434 1759 690 2068 
Q 947 2378 1403 2484 
z
M 1172 3481 
Q 1172 3119 1398 2916 
Q 1625 2713 2034 2713 
Q 2441 2713 2670 2916 
Q 2900 3119 2900 3481 
Q 2900 3844 2670 4047 
Q 2441 4250 2034 4250 
Q 1625 4250 1398 4047 
Q 1172 3844 1172 3481 
z
" transform="scale(0.015625)"/>
       </defs>
       <use xlink:href="#DejaVuSans-32"/>
       <use xlink:href="#DejaVuSans-30" x="63.623047"/>
       <use xlink:href="#DejaVuSans-30" x="127.246094"/>
       <use xlink:href="#DejaVuSans-38" x="190.869141"/>
      </g>
     </g>
    </g>
    <g id="xtick_2">
     <g id="line2d_2">
      <g>
       <use xlink:href="#m2341d622a2" x="101.343909" y="307.584" style="stroke: #000000; stroke-width: 0.8"/>
      </g>
     </g>
     <g id="text_2">
      <!-- 2010 -->
      <g transform="translate(88.618909 322.182437) scale(0.1 -0.1)">
       <defs>
        <path id="DejaVuSans-31" d="M 794 531 
L 1825 531 
L 1825 4091 
L 703 3866 
L 703 4441 
L 1819 4666 
L 2450 4666 
L 2450 531 
L 3481 531 
L 3481 0 
L 794 0 
L 794 531 
z
" transform="scale(0.015625)"/>
       </defs>
       <use xlink:href="#DejaVuSans-32"/>
       <use xlink:href="#DejaVuSans-30" x="63.623047"/>
       <use xlink:href="#DejaVuSans-31" x="127.246094"/>
       <use xlink:href="#DejaVuSans-30" x="190.869141"/>
      </g>
     </g>
    </g>
    <g id="xtick_3">
     <g id="line2d_3">
      <g>
       <use xlink:href="#m2341d622a2" x="142.582437" y="307.584" style="stroke: #000000; stroke-width: 0.8"/>
      </g>
     </g>
     <g id="text_3">
      <!-- 2012 -->
      <g transform="translate(129.857437 322.182437) scale(0.1 -0.1)">
       <use xlink:href="#DejaVuSans-32"/>
       <use xlink:href="#DejaVuSans-30" x="63.623047"/>
       <use xlink:href="#DejaVuSans-31" x="127.246094"/>
       <use xlink:href="#DejaVuSans-32" x="190.869141"/>
      </g>
     </g>
    </g>
    <g id="xtick_4">
     <g id="line2d_4">
      <g>
       <use xlink:href="#m2341d622a2" x="183.877456" y="307.584" style="stroke: #000000; stroke-width: 0.8"/>
      </g>
     </g>
     <g id="text_4">
      <!-- 2014 -->
      <g transform="translate(171.152456 322.182437) scale(0.1 -0.1)">
       <defs>
        <path id="DejaVuSans-34" d="M 2419 4116 
L 825 1625 
L 2419 1625 
L 2419 4116 
z
M 2253 4666 
L 3047 4666 
L 3047 1625 
L 3713 1625 
L 3713 1100 
L 3047 1100 
L 3047 0 
L 2419 0 
L 2419 1100 
L 313 1100 
L 313 1709 
L 2253 4666 
z
" transform="scale(0.015625)"/>
       </defs>
       <use xlink:href="#DejaVuSans-32"/>
       <use xlink:href="#DejaVuSans-30" x="63.623047"/>
       <use xlink:href="#DejaVuSans-31" x="127.246094"/>
       <use xlink:href="#DejaVuSans-34" x="190.869141"/>
      </g>
     </g>
    </g>
    <g id="xtick_5">
     <g id="line2d_5">
      <g>
       <use xlink:href="#m2341d622a2" x="225.115983" y="307.584" style="stroke: #000000; stroke-width: 0.8"/>
      </g>
     </g>
     <g id="text_5">
      <!-- 2016 -->
      <g transform="translate(212.390983 322.182437) scale(0.1 -0.1)">
       <defs>
        <path id="DejaVuSans-36" d="M 2113 2584 
Q 1688 2584 1439 2293 
Q 1191 2003 1191 1497 
Q 1191 994 1439 701 
Q 1688 409 2113 409 
Q 2538 409 2786 701 
Q 3034 994 3034 1497 
Q 3034 2003 2786 2293 
Q 2538 2584 2113 2584 
z
M 3366 4563 
L 3366 3988 
Q 3128 4100 2886 4159 
Q 2644 4219 2406 4219 
Q 1781 4219 1451 3797 
Q 1122 3375 1075 2522 
Q 1259 2794 1537 2939 
Q 1816 3084 2150 3084 
Q 2853 3084 3261 2657 
Q 3669 2231 3669 1497 
Q 3669 778 3244 343 
Q 2819 -91 2113 -91 
Q 1303 -91 875 529 
Q 447 1150 447 2328 
Q 447 3434 972 4092 
Q 1497 4750 2381 4750 
Q 2619 4750 2861 4703 
Q 3103 4656 3366 4563 
z
" transform="scale(0.015625)"/>
       </defs>
       <use xlink:href="#DejaVuSans-32"/>
       <use xlink:href="#DejaVuSans-30" x="63.623047"/>
       <use xlink:href="#DejaVuSans-31" x="127.246094"/>
       <use xlink:href="#DejaVuSans-36" x="190.869141"/>
      </g>
     </g>
    </g>
    <g id="xtick_6">
     <g id="line2d_6">
      <g>
       <use xlink:href="#m2341d622a2" x="266.411002" y="307.584" style="stroke: #000000; stroke-width: 0.8"/>
      </g>
     </g>
     <g id="text_6">
      <!-- 2018 -->
      <g transform="translate(253.686002 322.182437) scale(0.1 -0.1)">
       <use xlink:href="#DejaVuSans-32"/>
       <use xlink:href="#DejaVuSans-30" x="63.623047"/>
       <use xlink:href="#DejaVuSans-31" x="127.246094"/>
       <use xlink:href="#DejaVuSans-38" x="190.869141"/>
      </g>
     </g>
    </g>
    <g id="xtick_7">
     <g id="line2d_7">
      <g>
       <use xlink:href="#m2341d622a2" x="307.64953" y="307.584" style="stroke: #000000; stroke-width: 0.8"/>
      </g>
     </g>
     <g id="text_7">
      <!-- 2020 -->
      <g transform="translate(294.92453 322.182437) scale(0.1 -0.1)">
       <use xlink:href="#DejaVuSans-32"/>
       <use xlink:href="#DejaVuSans-30" x="63.623047"/>
       <use xlink:href="#DejaVuSans-32" x="127.246094"/>
       <use xlink:href="#DejaVuSans-30" x="190.869141"/>
      </g>
     </g>
    </g>
    <g id="xtick_8">
     <g id="line2d_8">
      <g>
       <use xlink:href="#m2341d622a2" x="348.944548" y="307.584" style="stroke: #000000; stroke-width: 0.8"/>
      </g>
     </g>
     <g id="text_8">
      <!-- 2022 -->
      <g transform="translate(336.219548 322.182437) scale(0.1 -0.1)">
       <use xlink:href="#DejaVuSans-32"/>
       <use xlink:href="#DejaVuSans-30" x="63.623047"/>
       <use xlink:href="#DejaVuSans-32" x="127.246094"/>
       <use xlink:href="#DejaVuSans-32" x="190.869141"/>
      </g>
     </g>
    </g>
    <g id="xtick_9">
     <g id="line2d_9">
      <g>
       <use xlink:href="#m2341d622a2" x="390.183076" y="307.584" style="stroke: #000000; stroke-width: 0.8"/>
      </g>
     </g>
     <g id="text_9">
      <!-- 2024 -->
      <g transform="translate(377.458076 322.182437) scale(0.1 -0.1)">
       <use xlink:href="#DejaVuSans-32"/>
       <use xlink:href="#DejaVuSans-30" x="63.623047"/>
       <use xlink:href="#DejaVuSans-32" x="127.246094"/>
       <use xlink:href="#DejaVuSans-34" x="190.869141"/>
      </g>
     </g>
    </g>
    <g id="text_10">
     <!-- Updated 2024-06-04 05:36:08.615221 - Last record 2024-06-02 -->
     <g transform="translate(75.905312 335.860562) scale(0.1 -0.1)">
      <defs>
       <path id="DejaVuSans-55" d="M 556 4666 
L 1191 4666 
L 1191 1831 
Q 1191 1081 1462 751 
Q 1734 422 2344 422 
Q 2950 422 3222 751 
Q 3494 1081 3494 1831 
L 3494 4666 
L 4128 4666 
L 4128 1753 
Q 4128 841 3676 375 
Q 3225 -91 2344 -91 
Q 1459 -91 1007 375 
Q 556 841 556 1753 
L 556 4666 
z
" transform="scale(0.015625)"/>
       <path id="DejaVuSans-70" d="M 1159 525 
L 1159 -1331 
L 581 -1331 
L 581 3500 
L 1159 3500 
L 1159 2969 
Q 1341 3281 1617 3432 
Q 1894 3584 2278 3584 
Q 2916 3584 3314 3078 
Q 3713 2572 3713 1747 
Q 3713 922 3314 415 
Q 2916 -91 2278 -91 
Q 1894 -91 1617 61 
Q 1341 213 1159 525 
z
M 3116 1747 
Q 3116 2381 2855 2742 
Q 2594 3103 2138 3103 
Q 1681 3103 1420 2742 
Q 1159 2381 1159 1747 
Q 1159 1113 1420 752 
Q 1681 391 2138 391 
Q 2594 391 2855 752 
Q 3116 1113 3116 1747 
z
" transform="scale(0.015625)"/>
       <path id="DejaVuSans-64" d="M 2906 2969 
L 2906 4863 
L 3481 4863 
L 3481 0 
L 2906 0 
L 2906 525 
Q 2725 213 2448 61 
Q 2172 -91 1784 -91 
Q 1150 -91 751 415 
Q 353 922 353 1747 
Q 353 2572 751 3078 
Q 1150 3584 1784 3584 
Q 2172 3584 2448 3432 
Q 2725 3281 2906 2969 
z
M 947 1747 
Q 947 1113 1208 752 
Q 1469 391 1925 391 
Q 2381 391 2643 752 
Q 2906 1113 2906 1747 
Q 2906 2381 2643 2742 
Q 2381 3103 1925 3103 
Q 1469 3103 1208 2742 
Q 947 2381 947 1747 
z
" transform="scale(0.015625)"/>
       <path id="DejaVuSans-61" d="M 2194 1759 
Q 1497 1759 1228 1600 
Q 959 1441 959 1056 
Q 959 750 1161 570 
Q 1363 391 1709 391 
Q 2188 391 2477 730 
Q 2766 1069 2766 1631 
L 2766 1759 
L 2194 1759 
z
M 3341 1997 
L 3341 0 
L 2766 0 
L 2766 531 
Q 2569 213 2275 61 
Q 1981 -91 1556 -91 
Q 1019 -91 701 211 
Q 384 513 384 1019 
Q 384 1609 779 1909 
Q 1175 2209 1959 2209 
L 2766 2209 
L 2766 2266 
Q 2766 2663 2505 2880 
Q 2244 3097 1772 3097 
Q 1472 3097 1187 3025 
Q 903 2953 641 2809 
L 641 3341 
Q 956 3463 1253 3523 
Q 1550 3584 1831 3584 
Q 2591 3584 2966 3190 
Q 3341 2797 3341 1997 
z
" transform="scale(0.015625)"/>
       <path id="DejaVuSans-74" d="M 1172 4494 
L 1172 3500 
L 2356 3500 
L 2356 3053 
L 1172 3053 
L 1172 1153 
Q 1172 725 1289 603 
Q 1406 481 1766 481 
L 2356 481 
L 2356 0 
L 1766 0 
Q 1100 0 847 248 
Q 594 497 594 1153 
L 594 3053 
L 172 3053 
L 172 3500 
L 594 3500 
L 594 4494 
L 1172 4494 
z
" transform="scale(0.015625)"/>
       <path id="DejaVuSans-65" d="M 3597 1894 
L 3597 1613 
L 953 1613 
Q 991 1019 1311 708 
Q 1631 397 2203 397 
Q 2534 397 2845 478 
Q 3156 559 3463 722 
L 3463 178 
Q 3153 47 2828 -22 
Q 2503 -91 2169 -91 
Q 1331 -91 842 396 
Q 353 884 353 1716 
Q 353 2575 817 3079 
Q 1281 3584 2069 3584 
Q 2775 3584 3186 3129 
Q 3597 2675 3597 1894 
z
M 3022 2063 
Q 3016 2534 2758 2815 
Q 2500 3097 2075 3097 
Q 1594 3097 1305 2825 
Q 1016 2553 972 2059 
L 3022 2063 
z
" transform="scale(0.015625)"/>
       <path id="DejaVuSans-20" transform="scale(0.015625)"/>
       <path id="DejaVuSans-2d" d="M 313 2009 
L 1997 2009 
L 1997 1497 
L 313 1497 
L 313 2009 
z
" transform="scale(0.015625)"/>
       <path id="DejaVuSans-35" d="M 691 4666 
L 3169 4666 
L 3169 4134 
L 1269 4134 
L 1269 2991 
Q 1406 3038 1543 3061 
Q 1681 3084 1819 3084 
Q 2600 3084 3056 2656 
Q 3513 2228 3513 1497 
Q 3513 744 3044 326 
Q 2575 -91 1722 -91 
Q 1428 -91 1123 -41 
Q 819 9 494 109 
L 494 744 
Q 775 591 1075 516 
Q 1375 441 1709 441 
Q 2250 441 2565 725 
Q 2881 1009 2881 1497 
Q 2881 1984 2565 2268 
Q 2250 2553 1709 2553 
Q 1456 2553 1204 2497 
Q 953 2441 691 2322 
L 691 4666 
z
" transform="scale(0.015625)"/>
       <path id="DejaVuSans-3a" d="M 750 794 
L 1409 794 
L 1409 0 
L 750 0 
L 750 794 
z
M 750 3309 
L 1409 3309 
L 1409 2516 
L 750 2516 
L 750 3309 
z
" transform="scale(0.015625)"/>
       <path id="DejaVuSans-33" d="M 2597 2516 
Q 3050 2419 3304 2112 
Q 3559 1806 3559 1356 
Q 3559 666 3084 287 
Q 2609 -91 1734 -91 
Q 1441 -91 1130 -33 
Q 819 25 488 141 
L 488 750 
Q 750 597 1062 519 
Q 1375 441 1716 441 
Q 2309 441 2620 675 
Q 2931 909 2931 1356 
Q 2931 1769 2642 2001 
Q 2353 2234 1838 2234 
L 1294 2234 
L 1294 2753 
L 1863 2753 
Q 2328 2753 2575 2939 
Q 2822 3125 2822 3475 
Q 2822 3834 2567 4026 
Q 2313 4219 1838 4219 
Q 1578 4219 1281 4162 
Q 984 4106 628 3988 
L 628 4550 
Q 988 4650 1302 4700 
Q 1616 4750 1894 4750 
Q 2613 4750 3031 4423 
Q 3450 4097 3450 3541 
Q 3450 3153 3228 2886 
Q 3006 2619 2597 2516 
z
" transform="scale(0.015625)"/>
       <path id="DejaVuSans-2e" d="M 684 794 
L 1344 794 
L 1344 0 
L 684 0 
L 684 794 
z
" transform="scale(0.015625)"/>
       <path id="DejaVuSans-4c" d="M 628 4666 
L 1259 4666 
L 1259 531 
L 3531 531 
L 3531 0 
L 628 0 
L 628 4666 
z
" transform="scale(0.015625)"/>
       <path id="DejaVuSans-73" d="M 2834 3397 
L 2834 2853 
Q 2591 2978 2328 3040 
Q 2066 3103 1784 3103 
Q 1356 3103 1142 2972 
Q 928 2841 928 2578 
Q 928 2378 1081 2264 
Q 1234 2150 1697 2047 
L 1894 2003 
Q 2506 1872 2764 1633 
Q 3022 1394 3022 966 
Q 3022 478 2636 193 
Q 2250 -91 1575 -91 
Q 1294 -91 989 -36 
Q 684 19 347 128 
L 347 722 
Q 666 556 975 473 
Q 1284 391 1588 391 
Q 1994 391 2212 530 
Q 2431 669 2431 922 
Q 2431 1156 2273 1281 
Q 2116 1406 1581 1522 
L 1381 1569 
Q 847 1681 609 1914 
Q 372 2147 372 2553 
Q 372 3047 722 3315 
Q 1072 3584 1716 3584 
Q 2034 3584 2315 3537 
Q 2597 3491 2834 3397 
z
" transform="scale(0.015625)"/>
       <path id="DejaVuSans-72" d="M 2631 2963 
Q 2534 3019 2420 3045 
Q 2306 3072 2169 3072 
Q 1681 3072 1420 2755 
Q 1159 2438 1159 1844 
L 1159 0 
L 581 0 
L 581 3500 
L 1159 3500 
L 1159 2956 
Q 1341 3275 1631 3429 
Q 1922 3584 2338 3584 
Q 2397 3584 2469 3576 
Q 2541 3569 2628 3553 
L 2631 2963 
z
" transform="scale(0.015625)"/>
       <path id="DejaVuSans-63" d="M 3122 3366 
L 3122 2828 
Q 2878 2963 2633 3030 
Q 2388 3097 2138 3097 
Q 1578 3097 1268 2742 
Q 959 2388 959 1747 
Q 959 1106 1268 751 
Q 1578 397 2138 397 
Q 2388 397 2633 464 
Q 2878 531 3122 666 
L 3122 134 
Q 2881 22 2623 -34 
Q 2366 -91 2075 -91 
Q 1284 -91 818 406 
Q 353 903 353 1747 
Q 353 2603 823 3093 
Q 1294 3584 2113 3584 
Q 2378 3584 2631 3529 
Q 2884 3475 3122 3366 
z
" transform="scale(0.015625)"/>
       <path id="DejaVuSans-6f" d="M 1959 3097 
Q 1497 3097 1228 2736 
Q 959 2375 959 1747 
Q 959 1119 1226 758 
Q 1494 397 1959 397 
Q 2419 397 2687 759 
Q 2956 1122 2956 1747 
Q 2956 2369 2687 2733 
Q 2419 3097 1959 3097 
z
M 1959 3584 
Q 2709 3584 3137 3096 
Q 3566 2609 3566 1747 
Q 3566 888 3137 398 
Q 2709 -91 1959 -91 
Q 1206 -91 779 398 
Q 353 888 353 1747 
Q 353 2609 779 3096 
Q 1206 3584 1959 3584 
z
" transform="scale(0.015625)"/>
      </defs>
      <use xlink:href="#DejaVuSans-55"/>
      <use xlink:href="#DejaVuSans-70" x="73.193359"/>
      <use xlink:href="#DejaVuSans-64" x="136.669922"/>
      <use xlink:href="#DejaVuSans-61" x="200.146484"/>
      <use xlink:href="#DejaVuSans-74" x="261.425781"/>
      <use xlink:href="#DejaVuSans-65" x="300.634766"/>
      <use xlink:href="#DejaVuSans-64" x="362.158203"/>
      <use xlink:href="#DejaVuSans-20" x="425.634766"/>
      <use xlink:href="#DejaVuSans-32" x="457.421875"/>
      <use xlink:href="#DejaVuSans-30" x="521.044922"/>
      <use xlink:href="#DejaVuSans-32" x="584.667969"/>
      <use xlink:href="#DejaVuSans-34" x="648.291016"/>
      <use xlink:href="#DejaVuSans-2d" x="711.914062"/>
      <use xlink:href="#DejaVuSans-30" x="747.998047"/>
      <use xlink:href="#DejaVuSans-36" x="811.621094"/>
      <use xlink:href="#DejaVuSans-2d" x="875.244141"/>
      <use xlink:href="#DejaVuSans-30" x="911.328125"/>
      <use xlink:href="#DejaVuSans-34" x="974.951172"/>
      <use xlink:href="#DejaVuSans-20" x="1038.574219"/>
      <use xlink:href="#DejaVuSans-30" x="1070.361328"/>
      <use xlink:href="#DejaVuSans-35" x="1133.984375"/>
      <use xlink:href="#DejaVuSans-3a" x="1197.607422"/>
      <use xlink:href="#DejaVuSans-33" x="1231.298828"/>
      <use xlink:href="#DejaVuSans-36" x="1294.921875"/>
      <use xlink:href="#DejaVuSans-3a" x="1358.544922"/>
      <use xlink:href="#DejaVuSans-30" x="1392.236328"/>
      <use xlink:href="#DejaVuSans-38" x="1455.859375"/>
      <use xlink:href="#DejaVuSans-2e" x="1519.482422"/>
      <use xlink:href="#DejaVuSans-36" x="1551.269531"/>
      <use xlink:href="#DejaVuSans-31" x="1614.892578"/>
      <use xlink:href="#DejaVuSans-35" x="1678.515625"/>
      <use xlink:href="#DejaVuSans-32" x="1742.138672"/>
      <use xlink:href="#DejaVuSans-32" x="1805.761719"/>
      <use xlink:href="#DejaVuSans-31" x="1869.384766"/>
      <use xlink:href="#DejaVuSans-20" x="1933.007812"/>
      <use xlink:href="#DejaVuSans-2d" x="1964.794922"/>
      <use xlink:href="#DejaVuSans-20" x="2000.878906"/>
      <use xlink:href="#DejaVuSans-4c" x="2032.666016"/>
      <use xlink:href="#DejaVuSans-61" x="2088.378906"/>
      <use xlink:href="#DejaVuSans-73" x="2149.658203"/>
      <use xlink:href="#DejaVuSans-74" x="2201.757812"/>
      <use xlink:href="#DejaVuSans-20" x="2240.966797"/>
      <use xlink:href="#DejaVuSans-72" x="2272.753906"/>
      <use xlink:href="#DejaVuSans-65" x="2311.617188"/>
      <use xlink:href="#DejaVuSans-63" x="2373.140625"/>
      <use xlink:href="#DejaVuSans-6f" x="2428.121094"/>
      <use xlink:href="#DejaVuSans-72" x="2489.302734"/>
      <use xlink:href="#DejaVuSans-64" x="2528.666016"/>
      <use xlink:href="#DejaVuSans-20" x="2592.142578"/>
      <use xlink:href="#DejaVuSans-32" x="2623.929688"/>
      <use xlink:href="#DejaVuSans-30" x="2687.552734"/>
      <use xlink:href="#DejaVuSans-32" x="2751.175781"/>
      <use xlink:href="#DejaVuSans-34" x="2814.798828"/>
      <use xlink:href="#DejaVuSans-2d" x="2878.421875"/>
      <use xlink:href="#DejaVuSans-30" x="2914.505859"/>
      <use xlink:href="#DejaVuSans-36" x="2978.128906"/>
      <use xlink:href="#DejaVuSans-2d" x="3041.751953"/>
      <use xlink:href="#DejaVuSans-30" x="3077.835938"/>
      <use xlink:href="#DejaVuSans-32" x="3141.458984"/>
     </g>
    </g>
   </g>
   <g id="matplotlib.axis_2">
    <g id="ytick_1">
     <g id="line2d_10">
      <defs>
       <path id="m7cf228407e" d="M 0 0 
L -3.5 0 
" style="stroke: #000000; stroke-width: 0.8"/>
      </defs>
      <g>
       <use xlink:href="#m7cf228407e" x="57.6" y="295.488" style="stroke: #000000; stroke-width: 0.8"/>
      </g>
     </g>
     <g id="text_11">
      <!-- 0 -->
      <g transform="translate(44.2375 299.287219) scale(0.1 -0.1)">
       <use xlink:href="#DejaVuSans-30"/>
      </g>
     </g>
    </g>
    <g id="ytick_2">
     <g id="line2d_11">
      <g>
       <use xlink:href="#m7cf228407e" x="57.6" y="244.133894" style="stroke: #000000; stroke-width: 0.8"/>
      </g>
     </g>
     <g id="text_12">
      <!-- 10 -->
      <g transform="translate(37.875 247.933113) scale(0.1 -0.1)">
       <use xlink:href="#DejaVuSans-31"/>
       <use xlink:href="#DejaVuSans-30" x="63.623047"/>
      </g>
     </g>
    </g>
    <g id="ytick_3">
     <g id="line2d_12">
      <g>
       <use xlink:href="#m7cf228407e" x="57.6" y="192.779788" style="stroke: #000000; stroke-width: 0.8"/>
      </g>
     </g>
     <g id="text_13">
      <!-- 20 -->
      <g transform="translate(37.875 196.579007) scale(0.1 -0.1)">
       <use xlink:href="#DejaVuSans-32"/>
       <use xlink:href="#DejaVuSans-30" x="63.623047"/>
      </g>
     </g>
    </g>
    <g id="ytick_4">
     <g id="line2d_13">
      <g>
       <use xlink:href="#m7cf228407e" x="57.6" y="141.425683" style="stroke: #000000; stroke-width: 0.8"/>
      </g>
     </g>
     <g id="text_14">
      <!-- 30 -->
      <g transform="translate(37.875 145.224901) scale(0.1 -0.1)">
       <use xlink:href="#DejaVuSans-33"/>
       <use xlink:href="#DejaVuSans-30" x="63.623047"/>
      </g>
     </g>
    </g>
    <g id="ytick_5">
     <g id="line2d_14">
      <g>
       <use xlink:href="#m7cf228407e" x="57.6" y="90.071577" style="stroke: #000000; stroke-width: 0.8"/>
      </g>
     </g>
     <g id="text_15">
      <!-- 40 -->
      <g transform="translate(37.875 93.870796) scale(0.1 -0.1)">
       <use xlink:href="#DejaVuSans-34"/>
       <use xlink:href="#DejaVuSans-30" x="63.623047"/>
      </g>
     </g>
    </g>
    <g id="text_16">
     <!-- IPv6 as % of total Google traffic -->
     <g transform="translate(31.795312 253.735813) rotate(-90) scale(0.1 -0.1)">
      <defs>
       <path id="DejaVuSans-49" d="M 628 4666 
L 1259 4666 
L 1259 0 
L 628 0 
L 628 4666 
z
" transform="scale(0.015625)"/>
       <path id="DejaVuSans-50" d="M 1259 4147 
L 1259 2394 
L 2053 2394 
Q 2494 2394 2734 2622 
Q 2975 2850 2975 3272 
Q 2975 3691 2734 3919 
Q 2494 4147 2053 4147 
L 1259 4147 
z
M 628 4666 
L 2053 4666 
Q 2838 4666 3239 4311 
Q 3641 3956 3641 3272 
Q 3641 2581 3239 2228 
Q 2838 1875 2053 1875 
L 1259 1875 
L 1259 0 
L 628 0 
L 628 4666 
z
" transform="scale(0.015625)"/>
       <path id="DejaVuSans-76" d="M 191 3500 
L 800 3500 
L 1894 563 
L 2988 3500 
L 3597 3500 
L 2284 0 
L 1503 0 
L 191 3500 
z
" transform="scale(0.015625)"/>
       <path id="DejaVuSans-25" d="M 4653 2053 
Q 4381 2053 4226 1822 
Q 4072 1591 4072 1178 
Q 4072 772 4226 539 
Q 4381 306 4653 306 
Q 4919 306 5073 539 
Q 5228 772 5228 1178 
Q 5228 1588 5073 1820 
Q 4919 2053 4653 2053 
z
M 4653 2450 
Q 5147 2450 5437 2106 
Q 5728 1763 5728 1178 
Q 5728 594 5436 251 
Q 5144 -91 4653 -91 
Q 4153 -91 3862 251 
Q 3572 594 3572 1178 
Q 3572 1766 3864 2108 
Q 4156 2450 4653 2450 
z
M 1428 4353 
Q 1159 4353 1004 4120 
Q 850 3888 850 3481 
Q 850 3069 1003 2837 
Q 1156 2606 1428 2606 
Q 1700 2606 1854 2837 
Q 2009 3069 2009 3481 
Q 2009 3884 1853 4118 
Q 1697 4353 1428 4353 
z
M 4250 4750 
L 4750 4750 
L 1831 -91 
L 1331 -91 
L 4250 4750 
z
M 1428 4750 
Q 1922 4750 2215 4408 
Q 2509 4066 2509 3481 
Q 2509 2891 2217 2550 
Q 1925 2209 1428 2209 
Q 931 2209 642 2551 
Q 353 2894 353 3481 
Q 353 4063 643 4406 
Q 934 4750 1428 4750 
z
" transform="scale(0.015625)"/>
       <path id="DejaVuSans-66" d="M 2375 4863 
L 2375 4384 
L 1825 4384 
Q 1516 4384 1395 4259 
Q 1275 4134 1275 3809 
L 1275 3500 
L 2222 3500 
L 2222 3053 
L 1275 3053 
L 1275 0 
L 697 0 
L 697 3053 
L 147 3053 
L 147 3500 
L 697 3500 
L 697 3744 
Q 697 4328 969 4595 
Q 1241 4863 1831 4863 
L 2375 4863 
z
" transform="scale(0.015625)"/>
       <path id="DejaVuSans-6c" d="M 603 4863 
L 1178 4863 
L 1178 0 
L 603 0 
L 603 4863 
z
" transform="scale(0.015625)"/>
       <path id="DejaVuSans-47" d="M 3809 666 
L 3809 1919 
L 2778 1919 
L 2778 2438 
L 4434 2438 
L 4434 434 
Q 4069 175 3628 42 
Q 3188 -91 2688 -91 
Q 1594 -91 976 548 
Q 359 1188 359 2328 
Q 359 3472 976 4111 
Q 1594 4750 2688 4750 
Q 3144 4750 3555 4637 
Q 3966 4525 4313 4306 
L 4313 3634 
Q 3963 3931 3569 4081 
Q 3175 4231 2741 4231 
Q 1884 4231 1454 3753 
Q 1025 3275 1025 2328 
Q 1025 1384 1454 906 
Q 1884 428 2741 428 
Q 3075 428 3337 486 
Q 3600 544 3809 666 
z
" transform="scale(0.015625)"/>
       <path id="DejaVuSans-67" d="M 2906 1791 
Q 2906 2416 2648 2759 
Q 2391 3103 1925 3103 
Q 1463 3103 1205 2759 
Q 947 2416 947 1791 
Q 947 1169 1205 825 
Q 1463 481 1925 481 
Q 2391 481 2648 825 
Q 2906 1169 2906 1791 
z
M 3481 434 
Q 3481 -459 3084 -895 
Q 2688 -1331 1869 -1331 
Q 1566 -1331 1297 -1286 
Q 1028 -1241 775 -1147 
L 775 -588 
Q 1028 -725 1275 -790 
Q 1522 -856 1778 -856 
Q 2344 -856 2625 -561 
Q 2906 -266 2906 331 
L 2906 616 
Q 2728 306 2450 153 
Q 2172 0 1784 0 
Q 1141 0 747 490 
Q 353 981 353 1791 
Q 353 2603 747 3093 
Q 1141 3584 1784 3584 
Q 2172 3584 2450 3431 
Q 2728 3278 2906 2969 
L 2906 3500 
L 3481 3500 
L 3481 434 
z
" transform="scale(0.015625)"/>
       <path id="DejaVuSans-69" d="M 603 3500 
L 1178 3500 
L 1178 0 
L 603 0 
L 603 3500 
z
M 603 4863 
L 1178 4863 
L 1178 4134 
L 603 4134 
L 603 4863 
z
" transform="scale(0.015625)"/>
      </defs>
      <use xlink:href="#DejaVuSans-49"/>
      <use xlink:href="#DejaVuSans-50" x="29.492188"/>
      <use xlink:href="#DejaVuSans-76" x="89.794922"/>
      <use xlink:href="#DejaVuSans-36" x="148.974609"/>
      <use xlink:href="#DejaVuSans-20" x="212.597656"/>
      <use xlink:href="#DejaVuSans-61" x="244.384766"/>
      <use xlink:href="#DejaVuSans-73" x="305.664062"/>
      <use xlink:href="#DejaVuSans-20" x="357.763672"/>
      <use xlink:href="#DejaVuSans-25" x="389.550781"/>
      <use xlink:href="#DejaVuSans-20" x="484.570312"/>
      <use xlink:href="#DejaVuSans-6f" x="516.357422"/>
      <use xlink:href="#DejaVuSans-66" x="577.539062"/>
      <use xlink:href="#DejaVuSans-20" x="612.744141"/>
      <use xlink:href="#DejaVuSans-74" x="644.53125"/>
      <use xlink:href="#DejaVuSans-6f" x="683.740234"/>
      <use xlink:href="#DejaVuSans-74" x="744.921875"/>
      <use xlink:href="#DejaVuSans-61" x="784.130859"/>
      <use xlink:href="#DejaVuSans-6c" x="845.410156"/>
      <use xlink:href="#DejaVuSans-20" x="873.193359"/>
      <use xlink:href="#DejaVuSans-47" x="904.980469"/>
      <use xlink:href="#DejaVuSans-6f" x="982.470703"/>
      <use xlink:href="#DejaVuSans-6f" x="1043.652344"/>
      <use xlink:href="#DejaVuSans-67" x="1104.833984"/>
      <use xlink:href="#DejaVuSans-6c" x="1168.310547"/>
      <use xlink:href="#DejaVuSans-65" x="1196.09375"/>
      <use xlink:href="#DejaVuSans-20" x="1257.617188"/>
      <use xlink:href="#DejaVuSans-74" x="1289.404297"/>
      <use xlink:href="#DejaVuSans-72" x="1328.613281"/>
      <use xlink:href="#DejaVuSans-61" x="1369.726562"/>
      <use xlink:href="#DejaVuSans-66" x="1431.005859"/>
      <use xlink:href="#DejaVuSans-66" x="1466.210938"/>
      <use xlink:href="#DejaVuSans-69" x="1501.416016"/>
      <use xlink:href="#DejaVuSans-63" x="1529.199219"/>
     </g>
    </g>
   </g>
   <g id="line2d_15">
    <path d="M 73.832727 294.552364 
L 75.414479 294.393788 
L 75.809917 294.544789 
L 77.391669 294.544127 
L 78.97342 294.406483 
L 79.368858 294.284763 
L 80.555172 294.304955 
L 84.114114 294.232079 
L 85.300427 294.258768 
L 86.882179 294.186266 
L 90.045683 294.249128 
L 90.441121 294.347923 
L 92.813748 294.34 
L 93.604624 294.276767 
L 95.186376 294.184592 
L 95.977252 294.193009 
L 96.37269 293.942996 
L 98.745317 293.857235 
L 99.931631 293.860825 
L 101.117945 293.952132 
L 102.304259 293.906658 
L 103.490572 293.952399 
L 105.467762 293.92094 
L 106.654076 294.103072 
L 107.84039 294.052735 
L 108.631266 294.133489 
L 109.422142 294.2107 
L 109.817579 294.133674 
L 112.190207 294.344118 
L 114.167397 294.260796 
L 114.958273 294.15988 
L 115.353711 294.076697 
L 116.144586 294.072599 
L 119.30809 294.075356 
L 119.703528 294.099257 
L 120.098966 293.976566 
L 122.471593 294.204137 
L 125.635097 294.040194 
L 126.030535 294.045679 
L 126.425973 293.9289 
L 127.216849 294.02658 
L 128.007725 293.845269 
L 128.403162 293.890343 
L 128.7986 293.779033 
L 129.194038 293.827768 
L 129.984914 293.724192 
L 131.171228 293.709448 
L 131.566666 293.837243 
L 133.148418 293.866109 
L 133.939294 293.879831 
L 134.334731 293.843539 
L 135.125607 293.626563 
L 135.521045 293.505711 
L 138.289111 293.650252 
L 141.057176 293.182976 
L 141.848052 293.324801 
L 145.011556 292.873357 
L 145.406994 292.976183 
L 147.779621 292.484381 
L 148.570497 292.50047 
L 149.756811 292.1677 
L 151.734001 291.705888 
L 152.920314 291.587168 
L 153.315752 291.684145 
L 155.292942 291.319387 
L 156.479256 290.958984 
L 156.874694 291.013512 
L 157.270132 290.68997 
L 158.061008 290.496335 
L 158.456446 290.546646 
L 159.247321 290.345718 
L 159.642759 290.497475 
L 160.433635 290.314192 
L 160.829073 290.268728 
L 161.224511 290.03273 
L 162.015387 289.875258 
L 163.597139 289.858856 
L 164.388015 289.657686 
L 165.574328 289.509458 
L 165.969766 289.315652 
L 166.365204 289.29696 
L 166.760642 289.397172 
L 168.342394 288.672643 
L 168.737832 288.68924 
L 170.319584 288.233647 
L 170.715022 287.928326 
L 171.11046 287.858274 
L 171.505897 287.669327 
L 171.901335 287.700099 
L 173.087649 287.236119 
L 173.483087 287.318163 
L 173.878525 287.089786 
L 174.273963 287.049647 
L 176.251153 285.976732 
L 177.437467 285.406984 
L 178.228342 284.61743 
L 179.019218 283.66419 
L 179.414656 283.889382 
L 179.810094 283.92834 
L 180.996408 282.585132 
L 181.391846 282.42407 
L 181.787284 281.745133 
L 182.973598 281.34094 
L 183.369036 281.081432 
L 183.764473 281.128529 
L 184.950787 280.387125 
L 185.346225 280.229653 
L 185.741663 279.938434 
L 186.532539 279.869429 
L 186.927977 279.209714 
L 187.323415 279.20102 
L 187.718853 278.47571 
L 188.114291 278.100075 
L 188.905167 278.207888 
L 189.300605 277.939347 
L 189.696043 277.525684 
L 190.486918 277.044147 
L 190.882356 276.613666 
L 191.277794 276.877596 
L 192.859546 276.03298 
L 193.254984 275.72068 
L 193.650422 274.437326 
L 194.04586 274.68077 
L 194.836736 273.809311 
L 195.232174 273.771894 
L 195.627612 274.148633 
L 196.813925 273.2914 
L 197.209363 272.709845 
L 198.000239 272.754683 
L 198.395677 272.125425 
L 198.791115 272.082113 
L 199.186553 268.748446 
L 199.581991 270.941826 
L 199.977429 272.248459 
L 200.372867 271.613553 
L 200.768305 271.258753 
L 201.163743 271.201575 
L 201.559181 270.366542 
L 201.954619 270.104893 
L 203.140932 268.292478 
L 203.53637 267.109079 
L 203.931808 266.433629 
L 204.327246 265.516604 
L 204.722684 264.911149 
L 205.118122 265.878085 
L 205.51356 265.730108 
L 205.908998 265.756879 
L 206.304436 265.913083 
L 206.699874 266.204754 
L 207.095312 266.093475 
L 207.49075 263.961031 
L 207.886188 264.276448 
L 209.072501 263.15279 
L 209.467939 263.001552 
L 210.258815 263.068045 
L 210.654253 261.456101 
L 211.049691 261.397393 
L 211.840567 260.125285 
L 212.236005 260.558997 
L 212.631443 258.573488 
L 213.026881 259.042792 
L 213.422319 257.702455 
L 213.817757 257.060632 
L 214.213195 256.09691 
L 214.608632 256.766157 
L 215.00407 255.752381 
L 215.399508 254.06584 
L 215.794946 254.915699 
L 216.190384 255.157972 
L 216.585822 254.634458 
L 216.98126 253.092346 
L 217.376698 253.520716 
L 217.772136 252.159185 
L 218.167574 252.472825 
L 219.353888 249.706241 
L 220.540202 249.41418 
L 220.935639 248.340037 
L 221.331077 248.470748 
L 221.726515 248.067804 
L 222.121953 247.003207 
L 222.517391 246.733008 
L 222.912829 245.54264 
L 223.308267 244.726603 
L 223.703705 244.582786 
L 224.099143 244.783647 
L 224.494581 244.264411 
L 224.890019 242.052487 
L 225.680895 243.349928 
L 226.076333 243.100696 
L 226.867209 243.026012 
L 227.262646 243.069955 
L 228.053522 242.803078 
L 228.44896 241.558573 
L 228.844398 241.49966 
L 229.239836 240.395973 
L 229.635274 240.392871 
L 230.030712 240.22521 
L 231.217026 237.068571 
L 231.612464 235.209347 
L 232.007902 236.47901 
L 232.40334 235.946843 
L 232.798778 234.846864 
L 233.194215 235.09171 
L 233.589653 232.743276 
L 233.985091 233.087821 
L 234.380529 232.799863 
L 234.775967 231.16121 
L 235.171405 231.145701 
L 235.566843 229.924264 
L 235.962281 230.218364 
L 236.357719 229.25227 
L 236.753157 228.739053 
L 237.148595 229.011707 
L 237.544033 228.350189 
L 237.939471 227.318182 
L 238.334909 227.648086 
L 238.730347 227.158635 
L 239.125785 225.534577 
L 239.521222 224.855419 
L 239.91666 224.918949 
L 240.312098 223.019767 
L 240.707536 223.357502 
L 241.498412 221.095482 
L 241.89385 218.838264 
L 242.289288 219.061361 
L 243.080164 217.792114 
L 243.475602 216.369954 
L 243.87104 216.560077 
L 244.266478 215.964067 
L 244.661916 213.715414 
L 245.057354 212.926466 
L 245.452791 209.198302 
L 245.848229 211.622221 
L 246.243667 211.182753 
L 246.639105 211.76081 
L 247.034543 211.082007 
L 247.825419 212.184441 
L 248.220857 211.964666 
L 248.616295 210.998279 
L 249.011733 211.288912 
L 249.802609 210.058093 
L 250.198047 209.038221 
L 250.593485 208.876481 
L 250.988923 208.187063 
L 251.384361 205.707918 
L 251.779798 206.485865 
L 252.175236 203.161344 
L 252.570674 203.41869 
L 252.966112 201.611606 
L 253.36155 200.497782 
L 254.547864 198.449241 
L 254.943302 196.77277 
L 255.33874 194.008744 
L 255.734178 194.706723 
L 257.31593 191.558701 
L 257.711368 191.040974 
L 258.106805 191.060571 
L 258.502243 191.345807 
L 258.897681 190.366356 
L 259.293119 188.99365 
L 259.688557 190.223407 
L 260.083995 190.247143 
L 260.479433 191.342716 
L 260.874871 190.143741 
L 261.270309 188.279654 
L 261.665747 188.518512 
L 262.061185 187.713752 
L 263.247499 186.433941 
L 264.038374 185.493878 
L 264.433812 185.392048 
L 264.82925 199.022625 
L 265.224688 183.661641 
L 265.620126 182.924355 
L 266.015564 179.199375 
L 266.411002 182.655285 
L 267.201878 182.15031 
L 267.597316 182.147866 
L 267.992754 181.685386 
L 268.388192 181.457471 
L 268.78363 182.723571 
L 269.179068 183.52623 
L 269.574506 183.331105 
L 269.969944 182.243677 
L 270.365381 182.321761 
L 271.551695 181.407355 
L 271.947133 178.964389 
L 272.342571 179.928634 
L 272.738009 177.341332 
L 273.133447 178.432299 
L 273.528885 176.260605 
L 273.924323 174.904616 
L 274.319761 175.704143 
L 274.715199 174.04124 
L 275.110637 172.937096 
L 275.506075 172.702315 
L 275.901513 173.604992 
L 276.296951 174.081153 
L 277.483264 171.642454 
L 277.878702 172.203287 
L 278.27414 173.011513 
L 278.669578 173.168236 
L 279.065016 171.318579 
L 279.460454 170.629633 
L 279.855892 169.288803 
L 280.646768 168.77066 
L 281.042206 168.910975 
L 281.437644 168.734112 
L 282.22852 166.892266 
L 282.623957 167.96683 
L 283.019395 164.562844 
L 283.414833 164.650397 
L 283.810271 164.235302 
L 284.205709 161.752613 
L 284.601147 161.007702 
L 284.996585 160.559966 
L 285.392023 160.563227 
L 285.787461 159.217251 
L 286.182899 159.125497 
L 286.973775 156.997362 
L 287.369213 158.402051 
L 287.764651 159.306818 
L 288.555527 157.152174 
L 288.950964 158.208949 
L 289.346402 158.015724 
L 289.74184 158.475723 
L 290.137278 156.849375 
L 290.532716 156.281922 
L 290.928154 157.511499 
L 291.323592 155.746479 
L 291.71903 155.887702 
L 292.114468 155.384232 
L 292.905344 155.189055 
L 293.300782 151.702584 
L 293.69622 151.601026 
L 294.091658 151.876187 
L 294.487096 152.719483 
L 295.277971 148.650856 
L 295.673409 146.856015 
L 296.068847 146.400452 
L 296.464285 146.556928 
L 296.859723 146.229351 
L 297.255161 144.44646 
L 297.650599 145.916728 
L 298.046037 144.351316 
L 298.441475 145.803974 
L 298.836913 144.762621 
L 299.232351 144.13227 
L 299.627789 144.079704 
L 300.023227 144.150721 
L 300.418665 142.793248 
L 300.814103 142.947485 
L 301.20954 144.416664 
L 301.604978 143.918847 
L 302.000416 144.521488 
L 302.395854 144.767798 
L 302.791292 142.884956 
L 303.18673 144.012599 
L 303.582168 144.315614 
L 303.977606 143.615848 
L 304.373044 143.188289 
L 304.768482 141.501702 
L 305.16392 141.857668 
L 305.559358 141.490589 
L 305.954796 141.612324 
L 306.350234 140.631543 
L 306.745672 140.20251 
L 307.14111 138.961091 
L 307.536547 138.418473 
L 307.931985 139.185591 
L 308.327423 139.413675 
L 308.722861 139.464988 
L 309.513737 137.699588 
L 309.909175 138.122807 
L 310.304613 136.835468 
L 310.700051 137.392634 
L 311.095489 137.151855 
L 311.490927 136.261432 
L 311.886365 136.479034 
L 312.281803 137.090713 
L 312.677241 136.81186 
L 313.072679 136.826435 
L 313.468116 134.513461 
L 314.258992 132.866704 
L 314.65443 133.138599 
L 315.049868 132.562899 
L 315.445306 130.646831 
L 315.840744 131.266649 
L 316.236182 128.517104 
L 316.63162 130.717545 
L 317.027058 128.895948 
L 317.422496 126.405849 
L 317.817934 127.134277 
L 318.213372 125.579459 
L 318.60881 124.5303 
L 319.004248 124.630666 
L 319.399686 123.843552 
L 319.795123 125.816782 
L 320.190561 124.172901 
L 320.585999 124.789294 
L 320.981437 125.15094 
L 322.167751 122.628776 
L 322.563189 124.728671 
L 322.958627 124.770745 
L 323.354065 123.842453 
L 323.749503 124.368468 
L 324.144941 125.643801 
L 324.540379 124.651932 
L 324.935817 122.344099 
L 325.331255 126.175372 
L 325.726693 125.143324 
L 326.12213 123.649505 
L 326.517568 124.902633 
L 326.913006 124.993175 
L 327.308444 122.946786 
L 327.703882 121.927669 
L 328.09932 120.059391 
L 328.494758 120.970469 
L 328.890196 120.280224 
L 329.285634 120.493117 
L 329.681072 121.077974 
L 330.07651 119.58452 
L 330.471948 118.972199 
L 330.867386 120.079363 
L 331.262824 119.803411 
L 331.658262 117.407609 
L 332.053699 116.880608 
L 332.449137 115.250084 
L 332.844575 117.927626 
L 333.240013 118.815636 
L 333.635451 117.942662 
L 334.030889 117.775715 
L 334.426327 117.912625 
L 334.821765 113.190122 
L 335.217203 116.347141 
L 335.612641 114.527948 
L 336.403517 115.448218 
L 336.798955 110.975507 
L 337.194393 110.403884 
L 337.589831 108.604688 
L 337.985269 108.53308 
L 338.380706 110.160502 
L 338.776144 107.916235 
L 339.171582 107.475083 
L 339.56702 106.316103 
L 339.962458 105.896966 
L 340.357896 104.580159 
L 340.753334 104.777036 
L 341.148772 107.969602 
L 341.54421 106.247987 
L 341.939648 105.157898 
L 342.335086 107.231099 
L 342.730524 106.084619 
L 343.125962 105.681042 
L 343.5214 104.025797 
L 344.312275 106.660221 
L 344.707713 106.370898 
L 345.103151 106.783933 
L 345.498589 106.653068 
L 345.894027 105.168883 
L 346.289465 106.884942 
L 346.684903 104.823208 
L 347.080341 104.094093 
L 347.475779 104.017703 
L 348.266655 101.450943 
L 348.662093 98.586827 
L 349.057531 100.540142 
L 349.452969 104.188466 
L 349.848407 100.078951 
L 350.243845 99.885901 
L 350.639282 102.643611 
L 351.430158 98.973164 
L 351.825596 98.9241 
L 352.221034 99.698957 
L 352.616472 99.667338 
L 353.01191 100.260709 
L 353.407348 93.284988 
L 353.802786 92.540302 
L 354.198224 92.74825 
L 354.593662 91.322594 
L 354.9891 90.854989 
L 355.384538 88.375453 
L 355.779976 91.526053 
L 356.175414 92.754516 
L 356.570852 90.059242 
L 356.966289 91.835277 
L 357.361727 88.815014 
L 357.757165 87.27721 
L 358.152603 83.546514 
L 358.548041 84.550379 
L 358.943479 79.022803 
L 359.734355 82.89748 
L 360.129793 84.66686 
L 360.525231 83.055317 
L 360.920669 83.369681 
L 361.316107 84.045768 
L 361.711545 83.908119 
L 362.106983 85.872886 
L 362.502421 84.957006 
L 362.897858 83.521186 
L 363.293296 83.852364 
L 363.688734 82.380894 
L 364.084172 82.754752 
L 364.47961 80.955139 
L 364.875048 82.225527 
L 365.270486 85.653306 
L 365.665924 83.346597 
L 366.061362 79.849522 
L 366.4568 82.747675 
L 366.852238 81.064113 
L 367.247676 82.81272 
L 367.643114 81.233736 
L 368.038552 81.211283 
L 369.224865 75.132359 
L 369.620303 77.855976 
L 370.015741 77.647714 
L 370.411179 76.284396 
L 370.806617 76.686211 
L 371.202055 79.009512 
L 371.992931 77.002296 
L 372.388369 78.473406 
L 372.783807 77.645758 
L 373.179245 76.042025 
L 373.574683 76.073213 
L 374.365559 73.412146 
L 374.760997 74.573139 
L 375.156435 74.554307 
L 375.551872 72.027059 
L 375.94731 73.328947 
L 376.738186 73.110594 
L 377.133624 71.706922 
L 377.529062 73.309833 
L 377.9245 73.357007 
L 378.319938 70.535854 
L 378.715376 70.501303 
L 379.110814 69.166363 
L 379.506252 65.64608 
L 379.90169 67.159008 
L 380.692566 66.328802 
L 381.088004 66.179634 
L 381.483441 66.556285 
L 381.878879 65.251234 
L 382.274317 66.782413 
L 383.065193 62.95856 
L 383.460631 64.483788 
L 383.856069 66.553353 
L 384.251507 67.362154 
L 384.646945 63.540628 
L 385.042383 65.815127 
L 385.437821 64.635529 
L 385.833259 68.755366 
L 386.228697 66.049343 
L 386.624135 65.041806 
L 387.019573 67.332123 
L 387.415011 67.542351 
L 387.810448 68.760881 
L 388.205886 66.569884 
L 388.601324 68.904811 
L 388.996762 66.068231 
L 389.3922 65.722022 
L 389.787638 63.038724 
L 390.183076 66.410399 
L 390.578514 66.39547 
L 390.973952 65.587048 
L 391.36939 65.673328 
L 391.764828 64.210399 
L 392.160266 65.343923 
L 392.555704 62.589057 
L 392.951142 63.273053 
L 393.34658 63.27444 
L 393.742017 72.816597 
L 394.532893 72.816597 
L 394.928331 60.949454 
L 395.323769 60.895342 
L 395.719207 62.482734 
L 396.114645 62.046065 
L 396.510083 60.393911 
L 396.905521 60.803208 
L 397.300959 60.070488 
L 397.696397 57.619141 
L 398.091835 58.533444 
L 398.487273 53.568 
L 398.487273 53.568 
" clip-path="url(#p758ac9cfb4)" style="fill: none; stroke: #1f77b4; stroke-width: 1.5; stroke-linecap: square"/>
   </g>
   <g id="line2d_16">
    <path d="M 73.832727 294.797775 
L 75.414479 294.667305 
L 75.809917 294.776499 
L 84.509552 294.537112 
L 85.300427 294.528818 
L 87.277617 294.466551 
L 89.650245 294.505694 
L 96.37269 294.449908 
L 96.768128 294.266065 
L 112.190207 294.450318 
L 114.167397 294.451402 
L 115.353711 294.289996 
L 116.935462 294.265736 
L 118.912652 294.20993 
L 123.657907 294.37927 
L 129.194038 293.955439 
L 129.984914 293.901815 
L 130.77579 293.842517 
L 131.566666 293.934775 
L 132.75298 293.999917 
L 134.730169 293.881094 
L 135.521045 293.71217 
L 136.707359 293.820907 
L 141.848052 293.477081 
L 142.24349 293.579368 
L 147.779621 292.939583 
L 149.361373 292.690619 
L 150.152249 292.697623 
L 151.338563 292.308837 
L 152.920314 292.036069 
L 153.315752 292.153989 
L 154.897504 292.032398 
L 160.433635 291.031527 
L 160.829073 291.075481 
L 161.619949 290.824333 
L 162.410825 290.724465 
L 162.806263 290.494892 
L 163.992577 290.756186 
L 164.783453 290.575872 
L 165.17889 290.522869 
L 165.574328 290.299792 
L 165.969766 290.316498 
L 166.365204 290.151251 
L 167.551518 290.066814 
L 167.946956 289.831181 
L 169.13327 289.592913 
L 169.528708 289.595486 
L 169.924146 289.444546 
L 170.319584 289.429207 
L 171.901335 288.961165 
L 172.692211 288.736224 
L 173.087649 288.497951 
L 173.483087 288.633141 
L 174.669401 288.157494 
L 175.460277 287.761035 
L 175.855715 287.460619 
L 176.646591 287.251926 
L 177.042029 287.347814 
L 177.832904 287.201199 
L 179.019218 286.079306 
L 179.414656 285.80981 
L 179.810094 285.883899 
L 180.205532 285.739311 
L 181.391846 284.896924 
L 181.787284 284.754386 
L 182.57816 284.073862 
L 182.973598 283.980618 
L 183.369036 282.696288 
L 183.764473 282.8162 
L 184.159911 283.671785 
L 184.555349 283.578875 
L 185.346225 282.922359 
L 185.741663 283.515622 
L 186.137101 282.747457 
L 186.532539 282.700211 
L 186.927977 282.461446 
L 187.323415 281.90299 
L 187.718853 281.931369 
L 188.509729 281.076025 
L 188.905167 281.10182 
L 189.300605 280.910711 
L 189.696043 280.216907 
L 190.09148 280.451179 
L 190.486918 279.926042 
L 190.882356 280.083566 
L 191.277794 279.893992 
L 191.673232 279.971357 
L 192.06867 279.37966 
L 192.464108 279.402466 
L 192.859546 278.798814 
L 193.254984 278.90369 
L 194.04586 277.629599 
L 194.441298 277.377466 
L 194.836736 277.297282 
L 195.232174 277.004856 
L 195.627612 276.975872 
L 196.023049 277.087808 
L 196.418487 277.066579 
L 197.604801 276.648536 
L 198.000239 276.784645 
L 198.791115 276.432915 
L 199.186553 275.826516 
L 199.581991 274.465401 
L 199.977429 275.481406 
L 200.372867 275.81588 
L 200.768305 275.464747 
L 201.163743 275.668427 
L 201.559181 275.160289 
L 202.350056 274.503259 
L 202.745494 273.851904 
L 203.140932 273.443408 
L 203.53637 272.587643 
L 203.931808 270.05492 
L 204.327246 268.43267 
L 204.722684 270.835883 
L 205.118122 271.469628 
L 205.51356 271.487058 
L 205.908998 271.740357 
L 206.304436 271.722116 
L 206.699874 272.061115 
L 207.095312 271.361533 
L 207.49075 271.484547 
L 207.886188 270.177949 
L 208.281626 269.778676 
L 208.677063 270.005677 
L 209.467939 268.702736 
L 209.863377 269.055395 
L 210.258815 269.021393 
L 210.654253 268.601501 
L 211.049691 267.992062 
L 211.445129 267.674971 
L 211.840567 267.719916 
L 212.631443 265.830809 
L 213.026881 265.275168 
L 213.422319 264.976569 
L 213.817757 263.888186 
L 214.213195 263.511221 
L 215.399508 261.316557 
L 215.794946 261.689157 
L 216.585822 261.322694 
L 217.376698 260.619091 
L 217.772136 260.924972 
L 218.563012 260.537089 
L 219.353888 259.566568 
L 220.540202 259.070482 
L 220.935639 259.073733 
L 221.331077 258.056203 
L 221.726515 257.95371 
L 222.121953 257.981596 
L 222.517391 257.46047 
L 223.703705 254.880265 
L 224.099143 254.393572 
L 224.494581 252.044958 
L 224.890019 248.731386 
L 225.285457 253.647859 
L 225.680895 254.719187 
L 226.076333 254.42006 
L 226.471771 253.892576 
L 226.867209 253.964359 
L 227.262646 254.236022 
L 228.053522 253.126193 
L 228.844398 252.61979 
L 229.239836 252.210205 
L 229.635274 251.040647 
L 230.030712 250.769338 
L 230.42615 250.703034 
L 231.217026 249.668126 
L 231.612464 248.437954 
L 232.007902 247.671283 
L 232.40334 248.154459 
L 233.194215 246.643379 
L 233.589653 245.253285 
L 233.985091 244.848959 
L 234.380529 244.651215 
L 235.171405 242.422005 
L 235.566843 240.685923 
L 235.962281 241.446195 
L 236.357719 241.302886 
L 236.753157 240.429327 
L 237.148595 239.839736 
L 237.544033 239.688786 
L 237.939471 239.795525 
L 238.334909 241.000297 
L 238.730347 240.382564 
L 239.125785 240.659014 
L 239.521222 240.003191 
L 239.91666 240.074481 
L 240.312098 239.336851 
L 241.102974 237.273761 
L 241.498412 237.480985 
L 242.289288 234.563019 
L 242.684726 235.254446 
L 243.080164 234.717087 
L 243.475602 233.445384 
L 243.87104 233.350965 
L 244.266478 232.49746 
L 244.661916 232.011501 
L 245.057354 228.621847 
L 245.452791 220.800607 
L 245.848229 226.430994 
L 246.243667 229.43315 
L 246.639105 229.750287 
L 247.429981 229.419793 
L 247.825419 229.511532 
L 248.220857 229.469508 
L 248.616295 228.535054 
L 249.011733 228.301834 
L 249.407171 228.59292 
L 250.198047 227.499673 
L 250.988923 225.53676 
L 251.384361 223.3868 
L 251.779798 224.11006 
L 252.175236 224.002951 
L 252.570674 220.103757 
L 252.966112 220.958921 
L 253.756988 218.357332 
L 254.152426 215.854154 
L 254.547864 215.76394 
L 254.943302 215.421136 
L 255.734178 211.060869 
L 256.129616 210.771586 
L 256.525054 210.127781 
L 256.920492 209.81337 
L 257.711368 207.324961 
L 258.106805 207.111651 
L 258.502243 207.037963 
L 258.897681 208.128955 
L 259.293119 208.254609 
L 260.083995 209.825824 
L 260.874871 210.340361 
L 261.270309 208.133449 
L 261.665747 207.576847 
L 262.061185 208.058179 
L 262.456623 207.075637 
L 262.852061 205.267777 
L 263.247499 206.841318 
L 263.642937 207.465086 
L 264.038374 205.603366 
L 264.433812 205.374373 
L 264.82925 204.325922 
L 265.224688 199.022625 
L 265.620126 201.146194 
L 266.015564 192.375657 
L 266.80644 202.789751 
L 267.201878 201.438445 
L 267.597316 202.858191 
L 267.992754 202.331169 
L 268.388192 202.243621 
L 268.78363 200.86863 
L 269.179068 203.189723 
L 269.574506 203.832502 
L 269.969944 203.230698 
L 270.365381 201.912484 
L 270.760819 201.463085 
L 271.156257 200.434108 
L 271.551695 200.362443 
L 271.947133 202.183819 
L 272.342571 201.142769 
L 272.738009 199.662358 
L 273.133447 197.581762 
L 273.528885 197.383941 
L 273.924323 196.523549 
L 274.319761 196.62865 
L 274.715199 194.413784 
L 275.110637 194.362691 
L 275.506075 192.838332 
L 275.901513 192.595663 
L 276.296951 192.130493 
L 276.692388 190.674034 
L 277.483264 190.686071 
L 278.27414 190.096752 
L 278.669578 190.97274 
L 279.065016 189.487698 
L 279.460454 188.697101 
L 279.855892 191.527965 
L 280.25133 191.66867 
L 280.646768 191.534729 
L 281.042206 191.620218 
L 281.437644 191.548856 
L 281.833082 190.131421 
L 282.22852 190.469434 
L 282.623957 191.041878 
L 283.019395 190.410079 
L 283.414833 187.510025 
L 283.810271 188.304833 
L 284.205709 187.908487 
L 284.601147 184.825597 
L 284.996585 186.333934 
L 286.182899 182.311716 
L 286.578337 169.736395 
L 286.973775 174.559947 
L 287.369213 181.814619 
L 287.764651 183.146097 
L 288.555527 181.859856 
L 288.950964 180.59843 
L 289.346402 181.541502 
L 289.74184 181.273901 
L 290.137278 182.266386 
L 290.532716 180.025811 
L 290.928154 182.004829 
L 291.71903 179.949838 
L 292.114468 179.920977 
L 292.509906 180.534931 
L 292.905344 177.966599 
L 293.300782 177.532323 
L 293.69622 175.381988 
L 294.091658 177.356784 
L 294.487096 178.612757 
L 294.882533 176.200737 
L 295.673409 169.474145 
L 296.068847 170.944238 
L 296.464285 169.733206 
L 296.859723 169.071816 
L 297.255161 167.500971 
L 297.650599 168.154129 
L 298.046037 168.336723 
L 298.441475 168.172596 
L 298.836913 167.650304 
L 299.232351 166.817315 
L 299.627789 164.492406 
L 300.023227 167.429897 
L 300.418665 168.261515 
L 300.814103 168.417966 
L 301.20954 169.739764 
L 301.604978 170.473306 
L 302.395854 170.20096 
L 302.791292 170.710598 
L 303.18673 170.41657 
L 303.582168 171.083223 
L 304.373044 168.393398 
L 304.768482 170.086389 
L 305.16392 169.511238 
L 305.559358 168.079717 
L 305.954796 168.237856 
L 306.350234 167.548417 
L 306.745672 165.40179 
L 307.14111 153.534226 
L 307.536547 153.21828 
L 307.931985 164.834455 
L 308.327423 166.463223 
L 308.722861 166.796686 
L 309.118299 165.675631 
L 309.513737 164.161532 
L 310.304613 162.464926 
L 310.700051 162.416879 
L 311.095489 162.979771 
L 311.490927 162.576534 
L 311.886365 153.518589 
L 312.281803 149.565293 
L 312.677241 148.025836 
L 313.072679 149.173631 
L 314.258992 145.151582 
L 314.65443 145.433891 
L 315.049868 147.564044 
L 315.445306 145.612039 
L 315.840744 144.867055 
L 316.236182 146.609957 
L 316.63162 147.568178 
L 317.422496 144.555043 
L 317.817934 141.686387 
L 318.213372 141.469395 
L 318.60881 139.912472 
L 319.004248 141.257267 
L 319.399686 141.072387 
L 319.795123 142.135093 
L 320.190561 141.116803 
L 320.585999 141.125292 
L 320.981437 142.022535 
L 321.376875 143.609172 
L 321.772313 142.851011 
L 322.167751 144.671524 
L 322.958627 144.800012 
L 323.354065 145.502654 
L 323.749503 144.222355 
L 324.144941 144.403065 
L 324.540379 143.390619 
L 324.935817 141.558145 
L 325.331255 143.647913 
L 325.726693 144.068468 
L 326.12213 143.864042 
L 326.517568 146.212537 
L 326.913006 144.245305 
L 327.703882 136.292131 
L 328.09932 129.966004 
L 328.890196 139.430529 
L 329.285634 138.730049 
L 329.681072 139.603824 
L 330.07651 138.521346 
L 330.867386 137.594481 
L 331.262824 137.732023 
L 331.658262 139.307706 
L 332.053699 138.917841 
L 332.449137 138.720913 
L 332.844575 136.869356 
L 333.240013 139.903085 
L 334.030889 137.046415 
L 334.426327 139.200237 
L 334.821765 137.949112 
L 335.217203 134.693488 
L 335.612641 135.013347 
L 336.008079 133.077123 
L 336.403517 131.942567 
L 336.798955 133.723876 
L 337.194393 134.084023 
L 337.985269 126.960664 
L 338.380706 126.839391 
L 338.776144 126.486989 
L 339.171582 125.765515 
L 339.56702 123.14624 
L 339.962458 124.528102 
L 340.357896 123.220781 
L 340.753334 123.320921 
L 341.148772 124.50545 
L 341.54421 127.403346 
L 341.939648 128.075294 
L 342.335086 128.123542 
L 342.730524 129.577258 
L 343.125962 127.465711 
L 343.916838 128.594294 
L 344.312275 128.85751 
L 344.707713 128.641776 
L 345.103151 128.215861 
L 345.498589 130.505823 
L 345.894027 129.452196 
L 346.289465 129.956036 
L 346.684903 128.458838 
L 347.080341 129.496422 
L 347.871217 126.942762 
L 348.266655 121.8528 
L 348.662093 109.934267 
L 349.452969 121.84826 
L 349.848407 122.175406 
L 350.243845 123.845601 
L 350.639282 122.264942 
L 351.03472 124.928936 
L 351.430158 123.987759 
L 351.825596 120.678357 
L 352.221034 122.490602 
L 352.616472 122.484393 
L 353.01191 124.705649 
L 353.407348 120.937505 
L 353.802786 114.560095 
L 354.198224 114.711015 
L 354.593662 124.754594 
L 354.9891 113.479554 
L 355.779976 110.138117 
L 356.175414 113.698902 
L 356.570852 113.527061 
L 356.966289 112.230591 
L 357.361727 109.248725 
L 357.757165 109.867706 
L 358.548041 102.526072 
L 358.943479 103.267518 
L 359.338917 103.051794 
L 359.734355 100.689567 
L 360.129793 100.601628 
L 360.525231 101.479316 
L 360.920669 100.26947 
L 361.316107 101.079987 
L 361.711545 101.178294 
L 362.106983 104.397549 
L 362.502421 105.200286 
L 363.293296 108.098311 
L 363.688734 106.107769 
L 364.084172 107.204647 
L 364.47961 107.331661 
L 364.875048 104.580719 
L 365.270486 107.670172 
L 365.665924 108.528222 
L 366.061362 105.540404 
L 366.4568 104.732214 
L 366.852238 106.942679 
L 367.247676 103.54409 
L 367.643114 106.853205 
L 368.038552 107.145225 
L 368.43399 102.929454 
L 369.224865 89.221661 
L 369.620303 96.237038 
L 370.015741 101.016944 
L 370.411179 100.944915 
L 370.806617 101.509466 
L 371.202055 100.407284 
L 371.597493 100.536214 
L 371.992931 101.233854 
L 372.783807 98.995354 
L 373.179245 101.926343 
L 373.970121 94.903485 
L 374.365559 98.493563 
L 374.760997 94.349636 
L 375.156435 96.937893 
L 375.551872 97.573575 
L 375.94731 96.324812 
L 376.342748 93.25189 
L 376.738186 97.906277 
L 377.133624 97.752189 
L 377.529062 94.436357 
L 377.9245 94.998428 
L 378.319938 94.438216 
L 378.715376 89.945795 
L 379.506252 85.51922 
L 379.90169 85.865706 
L 380.297128 85.696412 
L 380.692566 84.601543 
L 381.088004 85.951776 
L 381.483441 84.51649 
L 381.878879 85.484053 
L 382.274317 84.136023 
L 383.065193 89.375749 
L 383.460631 90.876866 
L 383.856069 89.847072 
L 384.251507 91.454173 
L 384.646945 91.007069 
L 385.042383 90.352843 
L 385.437821 90.06014 
L 385.833259 92.175688 
L 386.228697 92.840801 
L 386.624135 90.164009 
L 387.019573 91.079884 
L 387.415011 93.494544 
L 387.810448 91.008425 
L 388.205886 92.663824 
L 388.601324 93.188761 
L 388.996762 91.724999 
L 389.3922 86.957921 
L 389.787638 75.148038 
L 390.183076 80.698965 
L 390.578514 87.954904 
L 390.973952 87.955824 
L 391.36939 90.453995 
L 391.764828 89.45332 
L 392.555704 86.240237 
L 392.951142 85.529075 
L 393.34658 87.936412 
L 393.742017 72.816597 
L 394.532893 72.816597 
L 394.928331 84.200478 
L 395.323769 82.944526 
L 395.719207 83.405994 
L 396.114645 88.047373 
L 396.510083 87.343565 
L 396.905521 83.721559 
L 397.300959 84.689415 
L 397.696397 83.396709 
L 398.091835 84.293028 
L 398.487273 81.368437 
L 398.487273 81.368437 
" clip-path="url(#p758ac9cfb4)" style="fill: none; stroke: #ff7f0e; stroke-width: 1.5; stroke-linecap: square"/>
   </g>
   <g id="line2d_17">
    <path d="M 73.832727 295.242589 
L 79.764296 295.213949 
L 80.159734 295.278588 
L 80.95061 295.172239 
L 81.346048 295.253728 
L 81.741486 295.158533 
L 82.136924 295.253173 
L 83.323238 295.156766 
L 94.3955 295.217764 
L 94.790938 295.177914 
L 95.186376 295.269622 
L 96.37269 294.981089 
L 96.768128 295.165486 
L 111.399331 295.360847 
L 112.585645 295.364832 
L 116.935462 295.234342 
L 117.726338 295.259854 
L 118.121776 295.322753 
L 118.912652 295.290225 
L 119.703528 295.290888 
L 120.494404 295.300347 
L 120.889842 295.391711 
L 124.053345 295.301256 
L 140.266301 295.224697 
L 140.661738 295.087423 
L 141.848052 295.33572 
L 142.638928 295.086375 
L 143.034366 295.169168 
L 143.429804 295.056723 
L 145.406994 295.256501 
L 146.19787 295.178227 
L 146.593307 294.868012 
L 146.988745 295.069346 
L 147.384183 294.975353 
L 148.570497 295.155575 
L 148.965935 295.017786 
L 149.361373 295.063332 
L 150.152249 294.844256 
L 150.547687 294.895702 
L 151.338563 294.816001 
L 151.734001 294.953912 
L 152.524877 294.803152 
L 152.920314 295.039098 
L 156.874694 294.788439 
L 157.270132 294.581256 
L 157.66557 294.528654 
L 158.456446 294.703099 
L 159.247321 294.66066 
L 159.642759 294.913106 
L 161.224511 294.603687 
L 162.410825 294.638423 
L 162.806263 294.90111 
L 163.992577 294.460759 
L 164.783453 294.539613 
L 165.17889 294.481891 
L 165.574328 294.697665 
L 165.969766 294.487155 
L 166.760642 294.753985 
L 167.946956 294.385453 
L 169.13327 294.481126 
L 169.528708 294.275925 
L 169.924146 294.408316 
L 170.715022 294.116214 
L 171.11046 294.261643 
L 171.505897 294.158494 
L 171.901335 294.226933 
L 172.692211 294.180221 
L 173.483087 294.173022 
L 173.878525 294.068547 
L 174.273963 294.183174 
L 175.460277 294.018189 
L 175.855715 294.2103 
L 176.646591 294.062431 
L 177.042029 293.790279 
L 177.437467 293.666141 
L 177.832904 293.364831 
L 178.62378 293.322171 
L 179.019218 293.072883 
L 179.414656 293.567572 
L 179.810094 293.532441 
L 180.205532 293.248637 
L 180.60097 293.197073 
L 180.996408 292.811142 
L 181.391846 293.015146 
L 181.787284 292.478747 
L 182.57816 292.947482 
L 182.973598 292.848322 
L 183.369036 293.873144 
L 183.764473 293.800329 
L 184.159911 292.661234 
L 184.555349 292.536135 
L 184.950787 292.580664 
L 185.346225 292.795294 
L 185.741663 291.910812 
L 186.137101 292.652704 
L 186.532539 292.657218 
L 186.927977 292.236268 
L 187.323415 292.786029 
L 187.718853 292.032341 
L 188.114291 292.145171 
L 188.509729 292.565202 
L 189.300605 292.516636 
L 189.696043 292.796778 
L 190.09148 292.32886 
L 190.486918 292.606105 
L 190.882356 292.018101 
L 191.277794 292.471604 
L 191.673232 292.204249 
L 192.06867 292.583648 
L 192.464108 292.395266 
L 192.859546 292.722165 
L 193.650422 291.760698 
L 194.04586 292.53917 
L 194.441298 292.412808 
L 194.836736 292.000029 
L 195.232174 292.255038 
L 195.627612 292.660761 
L 196.023049 292.242492 
L 196.813925 291.88326 
L 197.209363 291.368574 
L 197.604801 291.617539 
L 198.000239 291.458038 
L 198.395677 291.015725 
L 198.791115 291.137198 
L 199.186553 288.40993 
L 199.581991 291.964425 
L 199.977429 292.255054 
L 200.372867 291.285673 
L 200.768305 291.282006 
L 201.559181 290.694253 
L 201.954619 290.736718 
L 202.350056 290.462112 
L 202.745494 290.586122 
L 203.53637 290.009436 
L 203.931808 291.866709 
L 204.327246 292.571934 
L 204.722684 289.563267 
L 205.118122 289.896457 
L 205.908998 289.504523 
L 206.304436 289.678967 
L 206.699874 289.631639 
L 207.095312 290.219942 
L 207.49075 287.964485 
L 207.886188 289.586499 
L 208.281626 289.578924 
L 208.677063 288.919789 
L 209.072501 289.262095 
L 209.467939 289.786816 
L 209.863377 289.45607 
L 210.258815 289.534652 
L 210.654253 288.3426 
L 211.049691 288.893332 
L 211.445129 288.501248 
L 211.840567 287.89337 
L 212.236005 289.298069 
L 212.631443 288.230679 
L 213.026881 289.255625 
L 213.422319 288.213886 
L 213.817757 288.660446 
L 214.213195 288.073689 
L 214.608632 289.500435 
L 215.00407 289.191458 
L 215.399508 288.237283 
L 216.190384 289.100802 
L 216.585822 288.799765 
L 216.98126 287.666672 
L 217.376698 288.389625 
L 217.772136 286.722214 
L 218.167574 287.244783 
L 218.563012 286.399191 
L 219.353888 285.627673 
L 220.144764 285.773857 
L 220.540202 285.831697 
L 220.935639 284.754304 
L 221.331077 285.902546 
L 221.726515 285.602093 
L 222.121953 284.509612 
L 222.517391 284.760538 
L 222.912829 284.514644 
L 223.308267 284.623253 
L 224.099143 285.878075 
L 224.494581 287.707452 
L 224.890019 288.809101 
L 225.285457 284.525095 
L 225.680895 284.11874 
L 226.076333 284.168636 
L 226.471771 284.628712 
L 226.867209 284.549652 
L 227.262646 284.321933 
L 228.053522 285.164885 
L 228.44896 284.117015 
L 228.844398 284.367869 
L 229.239836 283.673767 
L 229.635274 284.840224 
L 230.030712 284.943872 
L 230.42615 283.894615 
L 231.217026 282.888445 
L 231.612464 282.259393 
L 232.007902 284.295727 
L 232.40334 283.280384 
L 232.798778 282.960233 
L 233.194215 283.93633 
L 233.589653 282.977991 
L 233.985091 283.726862 
L 234.380529 283.636648 
L 234.775967 283.186211 
L 235.171405 284.211696 
L 235.566843 284.726341 
L 235.962281 284.260169 
L 236.357719 283.437384 
L 236.753157 283.797726 
L 237.148595 284.659971 
L 237.544033 284.149404 
L 238.334909 282.135789 
L 238.730347 282.264071 
L 239.125785 280.363564 
L 239.91666 280.332469 
L 240.312098 279.170916 
L 240.707536 280.493674 
L 241.102974 280.298421 
L 241.498412 279.102497 
L 241.89385 278.4691 
L 242.289288 279.986342 
L 242.684726 278.650134 
L 243.475602 278.41257 
L 244.266478 278.954607 
L 244.661916 277.191914 
L 245.057354 279.792619 
L 245.452791 283.885695 
L 246.243667 277.237603 
L 246.639105 277.498523 
L 247.034543 276.955479 
L 247.429981 277.693381 
L 247.825419 278.160909 
L 248.220857 277.983157 
L 248.616295 277.951225 
L 249.011733 278.475078 
L 249.407171 277.613202 
L 249.802609 277.517796 
L 250.198047 277.026548 
L 250.593485 277.991625 
L 250.988923 278.138303 
L 251.384361 277.809118 
L 251.779798 277.863805 
L 252.175236 274.646393 
L 252.570674 278.802933 
L 252.966112 276.140685 
L 253.36155 276.188408 
L 253.756988 276.957821 
L 254.152426 278.998428 
L 254.547864 278.173301 
L 254.943302 276.839635 
L 255.33874 276.341859 
L 255.734178 279.133854 
L 256.129616 278.615259 
L 256.525054 278.624128 
L 256.920492 277.753214 
L 257.31593 278.654571 
L 257.711368 279.204014 
L 258.502243 279.795844 
L 259.293119 276.227042 
L 259.688557 276.531212 
L 260.083995 275.909319 
L 260.479433 276.797 
L 260.874871 275.29138 
L 261.270309 275.634205 
L 261.665747 276.429665 
L 262.061185 275.143573 
L 262.456623 275.656713 
L 262.852061 276.996485 
L 263.247499 275.080623 
L 263.642937 274.046336 
L 264.038374 275.378513 
L 264.433812 275.505676 
L 264.82925 290.184703 
L 265.224688 280.127016 
L 265.620126 277.266161 
L 266.015564 282.311718 
L 266.411002 281.013352 
L 266.80644 275.069833 
L 267.201878 276.199865 
L 267.597316 274.777675 
L 267.992754 274.842217 
L 268.388192 274.701851 
L 268.78363 277.342941 
L 269.179068 275.824508 
L 269.574506 274.986604 
L 269.969944 274.500979 
L 270.365381 275.897277 
L 270.760819 276.054117 
L 271.156257 276.758485 
L 271.551695 276.532912 
L 271.947133 272.26857 
L 272.342571 274.273865 
L 272.738009 273.166974 
L 273.133447 276.338537 
L 273.528885 274.364665 
L 273.924323 273.869067 
L 274.715199 275.115456 
L 275.110637 274.062405 
L 275.901513 276.497329 
L 276.296951 277.43866 
L 276.692388 278.082204 
L 277.483264 276.444383 
L 278.27414 278.402761 
L 278.669578 277.683496 
L 279.065016 277.318881 
L 279.460454 277.420532 
L 279.855892 273.248837 
L 280.25133 272.777771 
L 281.437644 272.673255 
L 281.833082 273.177553 
L 282.22852 271.910832 
L 282.623957 272.412952 
L 283.019395 269.640765 
L 283.414833 272.628372 
L 283.810271 271.418469 
L 284.205709 269.332127 
L 284.601147 271.670104 
L 284.996585 269.714032 
L 285.392023 271.002994 
L 285.787461 271.044139 
L 286.182899 272.30178 
L 286.578337 283.653364 
L 287.369213 272.075432 
L 287.764651 271.648721 
L 288.160089 271.393085 
L 288.555527 270.780317 
L 288.950964 273.098519 
L 289.346402 271.962222 
L 289.74184 272.689822 
L 290.137278 270.070989 
L 290.532716 271.744111 
L 291.323592 270.385558 
L 291.71903 271.425864 
L 292.114468 270.951255 
L 292.509906 270.290543 
L 292.905344 272.710456 
L 293.300782 269.658261 
L 293.69622 271.707038 
L 294.091658 270.007402 
L 294.487096 269.594726 
L 294.882533 269.690594 
L 295.673409 272.86987 
L 296.068847 270.944214 
L 296.464285 272.311723 
L 296.859723 272.645535 
L 297.255161 272.433488 
L 297.650599 273.250599 
L 298.046037 271.502592 
L 298.441475 273.119379 
L 298.836913 272.600317 
L 299.232351 272.802955 
L 299.627789 275.075298 
L 300.418665 270.019732 
L 300.814103 270.017519 
L 301.20954 270.1649 
L 301.604978 268.933542 
L 302.000416 269.658703 
L 302.395854 270.054838 
L 302.791292 267.662358 
L 303.18673 269.08403 
L 303.582168 268.720391 
L 304.373044 270.282891 
L 304.768482 266.903314 
L 305.559358 268.898873 
L 305.954796 268.862468 
L 306.350234 268.571125 
L 306.745672 270.28872 
L 307.14111 280.914865 
L 307.536547 280.688193 
L 307.931985 269.839135 
L 308.327423 268.438452 
L 308.722861 268.156302 
L 309.118299 268.473712 
L 309.513737 269.026056 
L 309.909175 270.412684 
L 310.304613 269.858542 
L 310.700051 270.463755 
L 311.095489 269.660084 
L 311.490927 269.172898 
L 311.886365 278.448446 
L 312.281803 283.01342 
L 312.677241 284.274025 
L 313.468116 282.073845 
L 314.258992 283.203122 
L 314.65443 283.192708 
L 315.049868 280.486855 
L 315.445306 280.522792 
L 315.840744 281.887594 
L 316.236182 277.395147 
L 316.63162 278.637367 
L 317.027058 278.234027 
L 317.422496 277.338807 
L 317.817934 280.93589 
L 318.213372 279.598064 
L 318.60881 280.105828 
L 319.004248 278.8614 
L 319.399686 278.259165 
L 319.795123 279.169689 
L 320.190561 278.544098 
L 320.585999 279.152002 
L 320.981437 278.616405 
L 321.376875 276.243973 
L 321.772313 276.331101 
L 322.167751 273.445251 
L 322.563189 275.443881 
L 322.958627 275.458733 
L 323.354065 273.827798 
L 323.749503 275.634112 
L 324.144941 276.728735 
L 324.540379 276.749313 
L 324.935817 276.273954 
L 325.331255 278.015459 
L 326.12213 275.273463 
L 326.517568 274.178095 
L 327.308444 277.71306 
L 327.703882 281.123538 
L 328.09932 285.581387 
L 328.890196 276.337694 
L 329.285634 277.251068 
L 330.471948 276.469885 
L 330.867386 277.972881 
L 331.262824 277.559388 
L 331.658262 273.587903 
L 332.053699 273.450767 
L 332.449137 272.017171 
L 332.844575 276.546269 
L 333.240013 274.400551 
L 333.635451 275.136943 
L 334.030889 276.2173 
L 334.426327 274.200388 
L 334.821765 270.72901 
L 335.217203 277.141653 
L 335.612641 275.002601 
L 336.008079 277.378447 
L 336.403517 278.993652 
L 336.798955 272.739631 
L 337.194393 271.807862 
L 337.589831 273.517286 
L 337.985269 277.060416 
L 338.380706 278.809111 
L 338.776144 276.917246 
L 339.171582 277.197568 
L 339.56702 278.657863 
L 339.962458 276.856864 
L 340.753334 276.944115 
L 341.148772 278.952153 
L 341.54421 274.33264 
L 341.939648 272.570604 
L 342.335086 274.595558 
L 342.730524 271.995361 
L 343.125962 273.703332 
L 343.5214 271.503768 
L 344.312275 273.290712 
L 344.707713 273.217121 
L 345.103151 274.056073 
L 345.498589 271.635245 
L 345.894027 271.204687 
L 346.289465 272.416906 
L 346.684903 271.85237 
L 347.080341 270.085671 
L 347.475779 271.374074 
L 347.871217 271.357173 
L 348.266655 275.086144 
L 348.662093 284.140561 
L 349.057531 279.221643 
L 349.452969 277.828206 
L 349.848407 273.391545 
L 350.243845 271.5283 
L 350.639282 275.866669 
L 351.03472 271.361636 
L 351.430158 270.473405 
L 351.825596 273.733743 
L 352.221034 272.696355 
L 352.616472 272.670945 
L 353.01191 271.04306 
L 353.407348 267.835483 
L 353.802786 273.468207 
L 354.198224 273.525236 
L 354.593662 262.056 
L 354.9891 272.863435 
L 355.384538 271.86962 
L 355.779976 276.875937 
L 356.570852 272.02018 
L 356.966289 275.092686 
L 357.361727 275.054289 
L 357.757165 272.897503 
L 358.152603 273.01609 
L 358.548041 277.512307 
L 358.943479 271.243285 
L 359.338917 273.698206 
L 359.734355 277.695913 
L 360.129793 279.553232 
L 360.525231 277.064001 
L 360.920669 278.588211 
L 361.711545 278.217825 
L 362.106983 276.963336 
L 362.502421 275.24472 
L 362.897858 272.466781 
L 363.293296 271.242053 
L 363.688734 271.761124 
L 364.084172 271.038105 
L 364.47961 269.111479 
L 364.875048 273.132808 
L 365.270486 273.471134 
L 365.665924 270.306376 
L 366.061362 269.797117 
L 366.4568 273.503461 
L 366.852238 269.609434 
L 367.247676 274.75663 
L 367.643114 269.86853 
L 368.038552 269.554058 
L 368.43399 271.555862 
L 368.829428 275.707811 
L 369.224865 281.398698 
L 370.015741 272.11877 
L 370.411179 270.827481 
L 370.806617 270.664745 
L 371.202055 274.090228 
L 371.992931 271.256442 
L 372.388369 273.945363 
L 372.783807 274.138404 
L 373.179245 269.603682 
L 373.574683 273.528512 
L 373.970121 275.486346 
L 374.365559 270.406583 
L 374.760997 275.711503 
L 375.551872 269.941484 
L 376.342748 275.410686 
L 376.738186 270.692317 
L 377.133624 269.442733 
L 377.529062 274.361476 
L 377.9245 273.846579 
L 378.319938 271.585637 
L 378.715376 276.043507 
L 379.110814 276.986353 
L 379.506252 275.61486 
L 379.90169 276.781302 
L 380.297128 276.556858 
L 380.692566 277.215259 
L 381.088004 275.715858 
L 381.483441 277.527795 
L 381.878879 275.255181 
L 382.274317 278.13439 
L 383.065193 269.070811 
L 383.460631 269.094922 
L 383.856069 272.194281 
L 384.251507 271.395981 
L 384.646945 268.02156 
L 385.042383 270.950284 
L 385.437821 270.063388 
L 385.833259 272.067678 
L 386.228697 268.696542 
L 387.019573 271.740239 
L 387.415011 269.535807 
L 387.810448 273.240456 
L 388.205886 269.39406 
L 388.601324 271.20405 
L 388.996762 269.831232 
L 389.3922 274.252102 
L 389.787638 283.378686 
L 390.183076 281.199434 
L 390.578514 273.928566 
L 390.973952 273.119225 
L 391.36939 270.707333 
L 391.764828 270.245079 
L 392.160266 273.184306 
L 392.555704 271.83682 
L 392.951142 273.231978 
L 393.34658 270.826028 
L 393.742017 295.488 
L 394.532893 295.488 
L 394.928331 272.236977 
L 395.719207 274.56474 
L 396.114645 269.486692 
L 396.510083 268.538346 
L 396.905521 272.569649 
L 397.300959 270.869073 
L 397.696397 269.710432 
L 398.091835 269.728416 
L 398.487273 267.687563 
L 398.487273 267.687563 
" clip-path="url(#p758ac9cfb4)" style="fill: none; stroke: #2ca02c; stroke-width: 1.5; stroke-linecap: square"/>
   </g>
   <g id="patch_3">
    <path d="M 57.6 307.584 
L 57.6 41.472 
" style="fill: none; stroke: #000000; stroke-width: 0.8; stroke-linejoin: miter; stroke-linecap: square"/>
   </g>
   <g id="patch_4">
    <path d="M 414.72 307.584 
L 414.72 41.472 
" style="fill: none; stroke: #000000; stroke-width: 0.8; stroke-linejoin: miter; stroke-linecap: square"/>
   </g>
   <g id="patch_5">
    <path d="M 57.6 307.584 
L 414.72 307.584 
" style="fill: none; stroke: #000000; stroke-width: 0.8; stroke-linejoin: miter; stroke-linecap: square"/>
   </g>
   <g id="patch_6">
    <path d="M 57.6 41.472 
L 414.72 41.472 
" style="fill: none; stroke: #000000; stroke-width: 0.8; stroke-linejoin: miter; stroke-linecap: square"/>
   </g>
   <g id="legend_1">
    <g id="patch_7">
     <path d="M 64.6 93.506375 
L 186.25625 93.506375 
Q 188.25625 93.506375 188.25625 91.506375 
L 188.25625 48.472 
Q 188.25625 46.472 186.25625 46.472 
L 64.6 46.472 
Q 62.6 46.472 62.6 48.472 
L 62.6 91.506375 
Q 62.6 93.506375 64.6 93.506375 
z
" style="fill: #ffffff; opacity: 0.8; stroke: #cccccc; stroke-linejoin: miter"/>
    </g>
    <g id="line2d_18">
     <path d="M 66.6 54.570438 
L 76.6 54.570438 
L 86.6 54.570438 
" style="fill: none; stroke: #1f77b4; stroke-width: 1.5; stroke-linecap: square"/>
    </g>
    <g id="text_17">
     <!-- Weekly maximum -->
     <g transform="translate(94.6 58.070438) scale(0.1 -0.1)">
      <defs>
       <path id="DejaVuSans-57" d="M 213 4666 
L 850 4666 
L 1831 722 
L 2809 4666 
L 3519 4666 
L 4500 722 
L 5478 4666 
L 6119 4666 
L 4947 0 
L 4153 0 
L 3169 4050 
L 2175 0 
L 1381 0 
L 213 4666 
z
" transform="scale(0.015625)"/>
       <path id="DejaVuSans-6b" d="M 581 4863 
L 1159 4863 
L 1159 1991 
L 2875 3500 
L 3609 3500 
L 1753 1863 
L 3688 0 
L 2938 0 
L 1159 1709 
L 1159 0 
L 581 0 
L 581 4863 
z
" transform="scale(0.015625)"/>
       <path id="DejaVuSans-79" d="M 2059 -325 
Q 1816 -950 1584 -1140 
Q 1353 -1331 966 -1331 
L 506 -1331 
L 506 -850 
L 844 -850 
Q 1081 -850 1212 -737 
Q 1344 -625 1503 -206 
L 1606 56 
L 191 3500 
L 800 3500 
L 1894 763 
L 2988 3500 
L 3597 3500 
L 2059 -325 
z
" transform="scale(0.015625)"/>
       <path id="DejaVuSans-6d" d="M 3328 2828 
Q 3544 3216 3844 3400 
Q 4144 3584 4550 3584 
Q 5097 3584 5394 3201 
Q 5691 2819 5691 2113 
L 5691 0 
L 5113 0 
L 5113 2094 
Q 5113 2597 4934 2840 
Q 4756 3084 4391 3084 
Q 3944 3084 3684 2787 
Q 3425 2491 3425 1978 
L 3425 0 
L 2847 0 
L 2847 2094 
Q 2847 2600 2669 2842 
Q 2491 3084 2119 3084 
Q 1678 3084 1418 2786 
Q 1159 2488 1159 1978 
L 1159 0 
L 581 0 
L 581 3500 
L 1159 3500 
L 1159 2956 
Q 1356 3278 1631 3431 
Q 1906 3584 2284 3584 
Q 2666 3584 2933 3390 
Q 3200 3197 3328 2828 
z
" transform="scale(0.015625)"/>
       <path id="DejaVuSans-78" d="M 3513 3500 
L 2247 1797 
L 3578 0 
L 2900 0 
L 1881 1375 
L 863 0 
L 184 0 
L 1544 1831 
L 300 3500 
L 978 3500 
L 1906 2253 
L 2834 3500 
L 3513 3500 
z
" transform="scale(0.015625)"/>
       <path id="DejaVuSans-75" d="M 544 1381 
L 544 3500 
L 1119 3500 
L 1119 1403 
Q 1119 906 1312 657 
Q 1506 409 1894 409 
Q 2359 409 2629 706 
Q 2900 1003 2900 1516 
L 2900 3500 
L 3475 3500 
L 3475 0 
L 2900 0 
L 2900 538 
Q 2691 219 2414 64 
Q 2138 -91 1772 -91 
Q 1169 -91 856 284 
Q 544 659 544 1381 
z
M 1991 3584 
L 1991 3584 
z
" transform="scale(0.015625)"/>
      </defs>
      <use xlink:href="#DejaVuSans-57"/>
      <use xlink:href="#DejaVuSans-65" x="93.001953"/>
      <use xlink:href="#DejaVuSans-65" x="154.525391"/>
      <use xlink:href="#DejaVuSans-6b" x="216.048828"/>
      <use xlink:href="#DejaVuSans-6c" x="273.958984"/>
      <use xlink:href="#DejaVuSans-79" x="301.742188"/>
      <use xlink:href="#DejaVuSans-20" x="360.921875"/>
      <use xlink:href="#DejaVuSans-6d" x="392.708984"/>
      <use xlink:href="#DejaVuSans-61" x="490.121094"/>
      <use xlink:href="#DejaVuSans-78" x="551.400391"/>
      <use xlink:href="#DejaVuSans-69" x="610.580078"/>
      <use xlink:href="#DejaVuSans-6d" x="638.363281"/>
      <use xlink:href="#DejaVuSans-75" x="735.775391"/>
      <use xlink:href="#DejaVuSans-6d" x="799.154297"/>
     </g>
    </g>
    <g id="line2d_19">
     <path d="M 66.6 69.248563 
L 76.6 69.248563 
L 86.6 69.248563 
" style="fill: none; stroke: #ff7f0e; stroke-width: 1.5; stroke-linecap: square"/>
    </g>
    <g id="text_18">
     <!-- Weekly minimum -->
     <g transform="translate(94.6 72.748563) scale(0.1 -0.1)">
      <defs>
       <path id="DejaVuSans-6e" d="M 3513 2113 
L 3513 0 
L 2938 0 
L 2938 2094 
Q 2938 2591 2744 2837 
Q 2550 3084 2163 3084 
Q 1697 3084 1428 2787 
Q 1159 2491 1159 1978 
L 1159 0 
L 581 0 
L 581 3500 
L 1159 3500 
L 1159 2956 
Q 1366 3272 1645 3428 
Q 1925 3584 2291 3584 
Q 2894 3584 3203 3211 
Q 3513 2838 3513 2113 
z
" transform="scale(0.015625)"/>
      </defs>
      <use xlink:href="#DejaVuSans-57"/>
      <use xlink:href="#DejaVuSans-65" x="93.001953"/>
      <use xlink:href="#DejaVuSans-65" x="154.525391"/>
      <use xlink:href="#DejaVuSans-6b" x="216.048828"/>
      <use xlink:href="#DejaVuSans-6c" x="273.958984"/>
      <use xlink:href="#DejaVuSans-79" x="301.742188"/>
      <use xlink:href="#DejaVuSans-20" x="360.921875"/>
      <use xlink:href="#DejaVuSans-6d" x="392.708984"/>
      <use xlink:href="#DejaVuSans-69" x="490.121094"/>
      <use xlink:href="#DejaVuSans-6e" x="517.904297"/>
      <use xlink:href="#DejaVuSans-69" x="581.283203"/>
      <use xlink:href="#DejaVuSans-6d" x="609.066406"/>
      <use xlink:href="#DejaVuSans-75" x="706.478516"/>
      <use xlink:href="#DejaVuSans-6d" x="769.857422"/>
     </g>
    </g>
    <g id="line2d_20">
     <path d="M 66.6 83.926688 
L 76.6 83.926688 
L 86.6 83.926688 
" style="fill: none; stroke: #2ca02c; stroke-width: 1.5; stroke-linecap: square"/>
    </g>
    <g id="text_19">
     <!-- Weekly range -->
     <g transform="translate(94.6 87.426688) scale(0.1 -0.1)">
      <use xlink:href="#DejaVuSans-57"/>
      <use xlink:href="#DejaVuSans-65" x="93.001953"/>
      <use xlink:href="#DejaVuSans-65" x="154.525391"/>
      <use xlink:href="#DejaVuSans-6b" x="216.048828"/>
      <use xlink:href="#DejaVuSans-6c" x="273.958984"/>
      <use xlink:href="#DejaVuSans-79" x="301.742188"/>
      <use xlink:href="#DejaVuSans-20" x="360.921875"/>
      <use xlink:href="#DejaVuSans-72" x="392.708984"/>
      <use xlink:href="#DejaVuSans-61" x="433.822266"/>
      <use xlink:href="#DejaVuSans-6e" x="495.101562"/>
      <use xlink:href="#DejaVuSans-67" x="558.480469"/>
      <use xlink:href="#DejaVuSans-65" x="621.957031"/>
     </g>
    </g>
   </g>
  </g>
 </g>
 <defs>
  <clipPath id="p758ac9cfb4">
   <rect x="57.6" y="41.472" width="357.12" height="266.112"/>
  </clipPath>
 </defs>
</svg>
