<?xml version="1.0" encoding="utf-8" standalone="no"?>
<!DOCTYPE svg PUBLIC "-//W3C//DTD SVG 1.1//EN"
  "http://www.w3.org/Graphics/SVG/1.1/DTD/svg11.dtd">
<svg xmlns:xlink="http://www.w3.org/1999/xlink" width="460.8pt" height="345.6pt" viewBox="0 0 460.8 345.6" xmlns="http://www.w3.org/2000/svg" version="1.1">
 <metadata>
  <rdf:RDF xmlns:dc="http://purl.org/dc/elements/1.1/" xmlns:cc="http://creativecommons.org/ns#" xmlns:rdf="http://www.w3.org/1999/02/22-rdf-syntax-ns#">
   <cc:Work>
    <dc:type rdf:resource="http://purl.org/dc/dcmitype/StillImage"/>
    <dc:date>2022-12-22T05:31:48.573637</dc:date>
    <dc:format>image/svg+xml</dc:format>
    <dc:creator>
     <cc:Agent>
      <dc:title>Matplotlib v3.6.2, https://matplotlib.org/</dc:title>
     </cc:Agent>
    </dc:creator>
   </cc:Work>
  </rdf:RDF>
 </metadata>
 <defs>
  <style type="text/css">*{stroke-linejoin: round; stroke-linecap: butt}</style>
 </defs>
 <g id="figure_1">
  <g id="patch_1">
   <path d="M 0 345.6 
L 460.8 345.6 
L 460.8 0 
L 0 0 
z
" style="fill: #ffffff"/>
  </g>
  <g id="axes_1">
   <g id="patch_2">
    <path d="M 57.6 307.584 
L 414.72 307.584 
L 414.72 41.472 
L 57.6 41.472 
z
" style="fill: #ffffff"/>
   </g>
   <g id="matplotlib.axis_1">
    <g id="xtick_1">
     <g id="line2d_1">
      <defs>
       <path id="m6ae8ea6187" d="M 0 0 
L 0 3.5 
" style="stroke: #000000; stroke-width: 0.8"/>
      </defs>
      <g>
       <use xlink:href="#m6ae8ea6187" x="58.663116" y="307.584" style="stroke: #000000; stroke-width: 0.8"/>
      </g>
     </g>
     <g id="text_1">
      <!-- 2008 -->
      <g transform="translate(45.938116 322.182437) scale(0.1 -0.1)">
       <defs>
        <path id="DejaVuSans-32" d="M 1228 531 
L 3431 531 
L 3431 0 
L 469 0 
L 469 531 
Q 828 903 1448 1529 
Q 2069 2156 2228 2338 
Q 2531 2678 2651 2914 
Q 2772 3150 2772 3378 
Q 2772 3750 2511 3984 
Q 2250 4219 1831 4219 
Q 1534 4219 1204 4116 
Q 875 4013 500 3803 
L 500 4441 
Q 881 4594 1212 4672 
Q 1544 4750 1819 4750 
Q 2544 4750 2975 4387 
Q 3406 4025 3406 3419 
Q 3406 3131 3298 2873 
Q 3191 2616 2906 2266 
Q 2828 2175 2409 1742 
Q 1991 1309 1228 531 
z
" transform="scale(0.015625)"/>
        <path id="DejaVuSans-30" d="M 2034 4250 
Q 1547 4250 1301 3770 
Q 1056 3291 1056 2328 
Q 1056 1369 1301 889 
Q 1547 409 2034 409 
Q 2525 409 2770 889 
Q 3016 1369 3016 2328 
Q 3016 3291 2770 3770 
Q 2525 4250 2034 4250 
z
M 2034 4750 
Q 2819 4750 3233 4129 
Q 3647 3509 3647 2328 
Q 3647 1150 3233 529 
Q 2819 -91 2034 -91 
Q 1250 -91 836 529 
Q 422 1150 422 2328 
Q 422 3509 836 4129 
Q 1250 4750 2034 4750 
z
" transform="scale(0.015625)"/>
        <path id="DejaVuSans-38" d="M 2034 2216 
Q 1584 2216 1326 1975 
Q 1069 1734 1069 1313 
Q 1069 891 1326 650 
Q 1584 409 2034 409 
Q 2484 409 2743 651 
Q 3003 894 3003 1313 
Q 3003 1734 2745 1975 
Q 2488 2216 2034 2216 
z
M 1403 2484 
Q 997 2584 770 2862 
Q 544 3141 544 3541 
Q 544 4100 942 4425 
Q 1341 4750 2034 4750 
Q 2731 4750 3128 4425 
Q 3525 4100 3525 3541 
Q 3525 3141 3298 2862 
Q 3072 2584 2669 2484 
Q 3125 2378 3379 2068 
Q 3634 1759 3634 1313 
Q 3634 634 3220 271 
Q 2806 -91 2034 -91 
Q 1263 -91 848 271 
Q 434 634 434 1313 
Q 434 1759 690 2068 
Q 947 2378 1403 2484 
z
M 1172 3481 
Q 1172 3119 1398 2916 
Q 1625 2713 2034 2713 
Q 2441 2713 2670 2916 
Q 2900 3119 2900 3481 
Q 2900 3844 2670 4047 
Q 2441 4250 2034 4250 
Q 1625 4250 1398 4047 
Q 1172 3844 1172 3481 
z
" transform="scale(0.015625)"/>
       </defs>
       <use xlink:href="#DejaVuSans-32"/>
       <use xlink:href="#DejaVuSans-30" x="63.623047"/>
       <use xlink:href="#DejaVuSans-30" x="127.246094"/>
       <use xlink:href="#DejaVuSans-38" x="190.869141"/>
      </g>
     </g>
    </g>
    <g id="xtick_2">
     <g id="line2d_2">
      <g>
       <use xlink:href="#m6ae8ea6187" x="104.109779" y="307.584" style="stroke: #000000; stroke-width: 0.8"/>
      </g>
     </g>
     <g id="text_2">
      <!-- 2010 -->
      <g transform="translate(91.384779 322.182437) scale(0.1 -0.1)">
       <defs>
        <path id="DejaVuSans-31" d="M 794 531 
L 1825 531 
L 1825 4091 
L 703 3866 
L 703 4441 
L 1819 4666 
L 2450 4666 
L 2450 531 
L 3481 531 
L 3481 0 
L 794 0 
L 794 531 
z
" transform="scale(0.015625)"/>
       </defs>
       <use xlink:href="#DejaVuSans-32"/>
       <use xlink:href="#DejaVuSans-30" x="63.623047"/>
       <use xlink:href="#DejaVuSans-31" x="127.246094"/>
       <use xlink:href="#DejaVuSans-30" x="190.869141"/>
      </g>
     </g>
    </g>
    <g id="xtick_3">
     <g id="line2d_3">
      <g>
       <use xlink:href="#m6ae8ea6187" x="149.494271" y="307.584" style="stroke: #000000; stroke-width: 0.8"/>
      </g>
     </g>
     <g id="text_3">
      <!-- 2012 -->
      <g transform="translate(136.769271 322.182437) scale(0.1 -0.1)">
       <use xlink:href="#DejaVuSans-32"/>
       <use xlink:href="#DejaVuSans-30" x="63.623047"/>
       <use xlink:href="#DejaVuSans-31" x="127.246094"/>
       <use xlink:href="#DejaVuSans-32" x="190.869141"/>
      </g>
     </g>
    </g>
    <g id="xtick_4">
     <g id="line2d_4">
      <g>
       <use xlink:href="#m6ae8ea6187" x="194.940934" y="307.584" style="stroke: #000000; stroke-width: 0.8"/>
      </g>
     </g>
     <g id="text_4">
      <!-- 2014 -->
      <g transform="translate(182.215934 322.182437) scale(0.1 -0.1)">
       <defs>
        <path id="DejaVuSans-34" d="M 2419 4116 
L 825 1625 
L 2419 1625 
L 2419 4116 
z
M 2253 4666 
L 3047 4666 
L 3047 1625 
L 3713 1625 
L 3713 1100 
L 3047 1100 
L 3047 0 
L 2419 0 
L 2419 1100 
L 313 1100 
L 313 1709 
L 2253 4666 
z
" transform="scale(0.015625)"/>
       </defs>
       <use xlink:href="#DejaVuSans-32"/>
       <use xlink:href="#DejaVuSans-30" x="63.623047"/>
       <use xlink:href="#DejaVuSans-31" x="127.246094"/>
       <use xlink:href="#DejaVuSans-34" x="190.869141"/>
      </g>
     </g>
    </g>
    <g id="xtick_5">
     <g id="line2d_5">
      <g>
       <use xlink:href="#m6ae8ea6187" x="240.325426" y="307.584" style="stroke: #000000; stroke-width: 0.8"/>
      </g>
     </g>
     <g id="text_5">
      <!-- 2016 -->
      <g transform="translate(227.600426 322.182437) scale(0.1 -0.1)">
       <defs>
        <path id="DejaVuSans-36" d="M 2113 2584 
Q 1688 2584 1439 2293 
Q 1191 2003 1191 1497 
Q 1191 994 1439 701 
Q 1688 409 2113 409 
Q 2538 409 2786 701 
Q 3034 994 3034 1497 
Q 3034 2003 2786 2293 
Q 2538 2584 2113 2584 
z
M 3366 4563 
L 3366 3988 
Q 3128 4100 2886 4159 
Q 2644 4219 2406 4219 
Q 1781 4219 1451 3797 
Q 1122 3375 1075 2522 
Q 1259 2794 1537 2939 
Q 1816 3084 2150 3084 
Q 2853 3084 3261 2657 
Q 3669 2231 3669 1497 
Q 3669 778 3244 343 
Q 2819 -91 2113 -91 
Q 1303 -91 875 529 
Q 447 1150 447 2328 
Q 447 3434 972 4092 
Q 1497 4750 2381 4750 
Q 2619 4750 2861 4703 
Q 3103 4656 3366 4563 
z
" transform="scale(0.015625)"/>
       </defs>
       <use xlink:href="#DejaVuSans-32"/>
       <use xlink:href="#DejaVuSans-30" x="63.623047"/>
       <use xlink:href="#DejaVuSans-31" x="127.246094"/>
       <use xlink:href="#DejaVuSans-36" x="190.869141"/>
      </g>
     </g>
    </g>
    <g id="xtick_6">
     <g id="line2d_6">
      <g>
       <use xlink:href="#m6ae8ea6187" x="285.772089" y="307.584" style="stroke: #000000; stroke-width: 0.8"/>
      </g>
     </g>
     <g id="text_6">
      <!-- 2018 -->
      <g transform="translate(273.047089 322.182437) scale(0.1 -0.1)">
       <use xlink:href="#DejaVuSans-32"/>
       <use xlink:href="#DejaVuSans-30" x="63.623047"/>
       <use xlink:href="#DejaVuSans-31" x="127.246094"/>
       <use xlink:href="#DejaVuSans-38" x="190.869141"/>
      </g>
     </g>
    </g>
    <g id="xtick_7">
     <g id="line2d_7">
      <g>
       <use xlink:href="#m6ae8ea6187" x="331.156581" y="307.584" style="stroke: #000000; stroke-width: 0.8"/>
      </g>
     </g>
     <g id="text_7">
      <!-- 2020 -->
      <g transform="translate(318.431581 322.182437) scale(0.1 -0.1)">
       <use xlink:href="#DejaVuSans-32"/>
       <use xlink:href="#DejaVuSans-30" x="63.623047"/>
       <use xlink:href="#DejaVuSans-32" x="127.246094"/>
       <use xlink:href="#DejaVuSans-30" x="190.869141"/>
      </g>
     </g>
    </g>
    <g id="xtick_8">
     <g id="line2d_8">
      <g>
       <use xlink:href="#m6ae8ea6187" x="376.603244" y="307.584" style="stroke: #000000; stroke-width: 0.8"/>
      </g>
     </g>
     <g id="text_8">
      <!-- 2022 -->
      <g transform="translate(363.878244 322.182437) scale(0.1 -0.1)">
       <use xlink:href="#DejaVuSans-32"/>
       <use xlink:href="#DejaVuSans-30" x="63.623047"/>
       <use xlink:href="#DejaVuSans-32" x="127.246094"/>
       <use xlink:href="#DejaVuSans-32" x="190.869141"/>
      </g>
     </g>
    </g>
    <g id="text_9">
     <!-- Updated 2022-12-22 05:31:48.571528 - Last record 2022-12-19 -->
     <g transform="translate(75.905312 335.860562) scale(0.1 -0.1)">
      <defs>
       <path id="DejaVuSans-55" d="M 556 4666 
L 1191 4666 
L 1191 1831 
Q 1191 1081 1462 751 
Q 1734 422 2344 422 
Q 2950 422 3222 751 
Q 3494 1081 3494 1831 
L 3494 4666 
L 4128 4666 
L 4128 1753 
Q 4128 841 3676 375 
Q 3225 -91 2344 -91 
Q 1459 -91 1007 375 
Q 556 841 556 1753 
L 556 4666 
z
" transform="scale(0.015625)"/>
       <path id="DejaVuSans-70" d="M 1159 525 
L 1159 -1331 
L 581 -1331 
L 581 3500 
L 1159 3500 
L 1159 2969 
Q 1341 3281 1617 3432 
Q 1894 3584 2278 3584 
Q 2916 3584 3314 3078 
Q 3713 2572 3713 1747 
Q 3713 922 3314 415 
Q 2916 -91 2278 -91 
Q 1894 -91 1617 61 
Q 1341 213 1159 525 
z
M 3116 1747 
Q 3116 2381 2855 2742 
Q 2594 3103 2138 3103 
Q 1681 3103 1420 2742 
Q 1159 2381 1159 1747 
Q 1159 1113 1420 752 
Q 1681 391 2138 391 
Q 2594 391 2855 752 
Q 3116 1113 3116 1747 
z
" transform="scale(0.015625)"/>
       <path id="DejaVuSans-64" d="M 2906 2969 
L 2906 4863 
L 3481 4863 
L 3481 0 
L 2906 0 
L 2906 525 
Q 2725 213 2448 61 
Q 2172 -91 1784 -91 
Q 1150 -91 751 415 
Q 353 922 353 1747 
Q 353 2572 751 3078 
Q 1150 3584 1784 3584 
Q 2172 3584 2448 3432 
Q 2725 3281 2906 2969 
z
M 947 1747 
Q 947 1113 1208 752 
Q 1469 391 1925 391 
Q 2381 391 2643 752 
Q 2906 1113 2906 1747 
Q 2906 2381 2643 2742 
Q 2381 3103 1925 3103 
Q 1469 3103 1208 2742 
Q 947 2381 947 1747 
z
" transform="scale(0.015625)"/>
       <path id="DejaVuSans-61" d="M 2194 1759 
Q 1497 1759 1228 1600 
Q 959 1441 959 1056 
Q 959 750 1161 570 
Q 1363 391 1709 391 
Q 2188 391 2477 730 
Q 2766 1069 2766 1631 
L 2766 1759 
L 2194 1759 
z
M 3341 1997 
L 3341 0 
L 2766 0 
L 2766 531 
Q 2569 213 2275 61 
Q 1981 -91 1556 -91 
Q 1019 -91 701 211 
Q 384 513 384 1019 
Q 384 1609 779 1909 
Q 1175 2209 1959 2209 
L 2766 2209 
L 2766 2266 
Q 2766 2663 2505 2880 
Q 2244 3097 1772 3097 
Q 1472 3097 1187 3025 
Q 903 2953 641 2809 
L 641 3341 
Q 956 3463 1253 3523 
Q 1550 3584 1831 3584 
Q 2591 3584 2966 3190 
Q 3341 2797 3341 1997 
z
" transform="scale(0.015625)"/>
       <path id="DejaVuSans-74" d="M 1172 4494 
L 1172 3500 
L 2356 3500 
L 2356 3053 
L 1172 3053 
L 1172 1153 
Q 1172 725 1289 603 
Q 1406 481 1766 481 
L 2356 481 
L 2356 0 
L 1766 0 
Q 1100 0 847 248 
Q 594 497 594 1153 
L 594 3053 
L 172 3053 
L 172 3500 
L 594 3500 
L 594 4494 
L 1172 4494 
z
" transform="scale(0.015625)"/>
       <path id="DejaVuSans-65" d="M 3597 1894 
L 3597 1613 
L 953 1613 
Q 991 1019 1311 708 
Q 1631 397 2203 397 
Q 2534 397 2845 478 
Q 3156 559 3463 722 
L 3463 178 
Q 3153 47 2828 -22 
Q 2503 -91 2169 -91 
Q 1331 -91 842 396 
Q 353 884 353 1716 
Q 353 2575 817 3079 
Q 1281 3584 2069 3584 
Q 2775 3584 3186 3129 
Q 3597 2675 3597 1894 
z
M 3022 2063 
Q 3016 2534 2758 2815 
Q 2500 3097 2075 3097 
Q 1594 3097 1305 2825 
Q 1016 2553 972 2059 
L 3022 2063 
z
" transform="scale(0.015625)"/>
       <path id="DejaVuSans-20" transform="scale(0.015625)"/>
       <path id="DejaVuSans-2d" d="M 313 2009 
L 1997 2009 
L 1997 1497 
L 313 1497 
L 313 2009 
z
" transform="scale(0.015625)"/>
       <path id="DejaVuSans-35" d="M 691 4666 
L 3169 4666 
L 3169 4134 
L 1269 4134 
L 1269 2991 
Q 1406 3038 1543 3061 
Q 1681 3084 1819 3084 
Q 2600 3084 3056 2656 
Q 3513 2228 3513 1497 
Q 3513 744 3044 326 
Q 2575 -91 1722 -91 
Q 1428 -91 1123 -41 
Q 819 9 494 109 
L 494 744 
Q 775 591 1075 516 
Q 1375 441 1709 441 
Q 2250 441 2565 725 
Q 2881 1009 2881 1497 
Q 2881 1984 2565 2268 
Q 2250 2553 1709 2553 
Q 1456 2553 1204 2497 
Q 953 2441 691 2322 
L 691 4666 
z
" transform="scale(0.015625)"/>
       <path id="DejaVuSans-3a" d="M 750 794 
L 1409 794 
L 1409 0 
L 750 0 
L 750 794 
z
M 750 3309 
L 1409 3309 
L 1409 2516 
L 750 2516 
L 750 3309 
z
" transform="scale(0.015625)"/>
       <path id="DejaVuSans-33" d="M 2597 2516 
Q 3050 2419 3304 2112 
Q 3559 1806 3559 1356 
Q 3559 666 3084 287 
Q 2609 -91 1734 -91 
Q 1441 -91 1130 -33 
Q 819 25 488 141 
L 488 750 
Q 750 597 1062 519 
Q 1375 441 1716 441 
Q 2309 441 2620 675 
Q 2931 909 2931 1356 
Q 2931 1769 2642 2001 
Q 2353 2234 1838 2234 
L 1294 2234 
L 1294 2753 
L 1863 2753 
Q 2328 2753 2575 2939 
Q 2822 3125 2822 3475 
Q 2822 3834 2567 4026 
Q 2313 4219 1838 4219 
Q 1578 4219 1281 4162 
Q 984 4106 628 3988 
L 628 4550 
Q 988 4650 1302 4700 
Q 1616 4750 1894 4750 
Q 2613 4750 3031 4423 
Q 3450 4097 3450 3541 
Q 3450 3153 3228 2886 
Q 3006 2619 2597 2516 
z
" transform="scale(0.015625)"/>
       <path id="DejaVuSans-2e" d="M 684 794 
L 1344 794 
L 1344 0 
L 684 0 
L 684 794 
z
" transform="scale(0.015625)"/>
       <path id="DejaVuSans-37" d="M 525 4666 
L 3525 4666 
L 3525 4397 
L 1831 0 
L 1172 0 
L 2766 4134 
L 525 4134 
L 525 4666 
z
" transform="scale(0.015625)"/>
       <path id="DejaVuSans-4c" d="M 628 4666 
L 1259 4666 
L 1259 531 
L 3531 531 
L 3531 0 
L 628 0 
L 628 4666 
z
" transform="scale(0.015625)"/>
       <path id="DejaVuSans-73" d="M 2834 3397 
L 2834 2853 
Q 2591 2978 2328 3040 
Q 2066 3103 1784 3103 
Q 1356 3103 1142 2972 
Q 928 2841 928 2578 
Q 928 2378 1081 2264 
Q 1234 2150 1697 2047 
L 1894 2003 
Q 2506 1872 2764 1633 
Q 3022 1394 3022 966 
Q 3022 478 2636 193 
Q 2250 -91 1575 -91 
Q 1294 -91 989 -36 
Q 684 19 347 128 
L 347 722 
Q 666 556 975 473 
Q 1284 391 1588 391 
Q 1994 391 2212 530 
Q 2431 669 2431 922 
Q 2431 1156 2273 1281 
Q 2116 1406 1581 1522 
L 1381 1569 
Q 847 1681 609 1914 
Q 372 2147 372 2553 
Q 372 3047 722 3315 
Q 1072 3584 1716 3584 
Q 2034 3584 2315 3537 
Q 2597 3491 2834 3397 
z
" transform="scale(0.015625)"/>
       <path id="DejaVuSans-72" d="M 2631 2963 
Q 2534 3019 2420 3045 
Q 2306 3072 2169 3072 
Q 1681 3072 1420 2755 
Q 1159 2438 1159 1844 
L 1159 0 
L 581 0 
L 581 3500 
L 1159 3500 
L 1159 2956 
Q 1341 3275 1631 3429 
Q 1922 3584 2338 3584 
Q 2397 3584 2469 3576 
Q 2541 3569 2628 3553 
L 2631 2963 
z
" transform="scale(0.015625)"/>
       <path id="DejaVuSans-63" d="M 3122 3366 
L 3122 2828 
Q 2878 2963 2633 3030 
Q 2388 3097 2138 3097 
Q 1578 3097 1268 2742 
Q 959 2388 959 1747 
Q 959 1106 1268 751 
Q 1578 397 2138 397 
Q 2388 397 2633 464 
Q 2878 531 3122 666 
L 3122 134 
Q 2881 22 2623 -34 
Q 2366 -91 2075 -91 
Q 1284 -91 818 406 
Q 353 903 353 1747 
Q 353 2603 823 3093 
Q 1294 3584 2113 3584 
Q 2378 3584 2631 3529 
Q 2884 3475 3122 3366 
z
" transform="scale(0.015625)"/>
       <path id="DejaVuSans-6f" d="M 1959 3097 
Q 1497 3097 1228 2736 
Q 959 2375 959 1747 
Q 959 1119 1226 758 
Q 1494 397 1959 397 
Q 2419 397 2687 759 
Q 2956 1122 2956 1747 
Q 2956 2369 2687 2733 
Q 2419 3097 1959 3097 
z
M 1959 3584 
Q 2709 3584 3137 3096 
Q 3566 2609 3566 1747 
Q 3566 888 3137 398 
Q 2709 -91 1959 -91 
Q 1206 -91 779 398 
Q 353 888 353 1747 
Q 353 2609 779 3096 
Q 1206 3584 1959 3584 
z
" transform="scale(0.015625)"/>
       <path id="DejaVuSans-39" d="M 703 97 
L 703 672 
Q 941 559 1184 500 
Q 1428 441 1663 441 
Q 2288 441 2617 861 
Q 2947 1281 2994 2138 
Q 2813 1869 2534 1725 
Q 2256 1581 1919 1581 
Q 1219 1581 811 2004 
Q 403 2428 403 3163 
Q 403 3881 828 4315 
Q 1253 4750 1959 4750 
Q 2769 4750 3195 4129 
Q 3622 3509 3622 2328 
Q 3622 1225 3098 567 
Q 2575 -91 1691 -91 
Q 1453 -91 1209 -44 
Q 966 3 703 97 
z
M 1959 2075 
Q 2384 2075 2632 2365 
Q 2881 2656 2881 3163 
Q 2881 3666 2632 3958 
Q 2384 4250 1959 4250 
Q 1534 4250 1286 3958 
Q 1038 3666 1038 3163 
Q 1038 2656 1286 2365 
Q 1534 2075 1959 2075 
z
" transform="scale(0.015625)"/>
      </defs>
      <use xlink:href="#DejaVuSans-55"/>
      <use xlink:href="#DejaVuSans-70" x="73.193359"/>
      <use xlink:href="#DejaVuSans-64" x="136.669922"/>
      <use xlink:href="#DejaVuSans-61" x="200.146484"/>
      <use xlink:href="#DejaVuSans-74" x="261.425781"/>
      <use xlink:href="#DejaVuSans-65" x="300.634766"/>
      <use xlink:href="#DejaVuSans-64" x="362.158203"/>
      <use xlink:href="#DejaVuSans-20" x="425.634766"/>
      <use xlink:href="#DejaVuSans-32" x="457.421875"/>
      <use xlink:href="#DejaVuSans-30" x="521.044922"/>
      <use xlink:href="#DejaVuSans-32" x="584.667969"/>
      <use xlink:href="#DejaVuSans-32" x="648.291016"/>
      <use xlink:href="#DejaVuSans-2d" x="711.914062"/>
      <use xlink:href="#DejaVuSans-31" x="747.998047"/>
      <use xlink:href="#DejaVuSans-32" x="811.621094"/>
      <use xlink:href="#DejaVuSans-2d" x="875.244141"/>
      <use xlink:href="#DejaVuSans-32" x="911.328125"/>
      <use xlink:href="#DejaVuSans-32" x="974.951172"/>
      <use xlink:href="#DejaVuSans-20" x="1038.574219"/>
      <use xlink:href="#DejaVuSans-30" x="1070.361328"/>
      <use xlink:href="#DejaVuSans-35" x="1133.984375"/>
      <use xlink:href="#DejaVuSans-3a" x="1197.607422"/>
      <use xlink:href="#DejaVuSans-33" x="1231.298828"/>
      <use xlink:href="#DejaVuSans-31" x="1294.921875"/>
      <use xlink:href="#DejaVuSans-3a" x="1358.544922"/>
      <use xlink:href="#DejaVuSans-34" x="1392.236328"/>
      <use xlink:href="#DejaVuSans-38" x="1455.859375"/>
      <use xlink:href="#DejaVuSans-2e" x="1519.482422"/>
      <use xlink:href="#DejaVuSans-35" x="1551.269531"/>
      <use xlink:href="#DejaVuSans-37" x="1614.892578"/>
      <use xlink:href="#DejaVuSans-31" x="1678.515625"/>
      <use xlink:href="#DejaVuSans-35" x="1742.138672"/>
      <use xlink:href="#DejaVuSans-32" x="1805.761719"/>
      <use xlink:href="#DejaVuSans-38" x="1869.384766"/>
      <use xlink:href="#DejaVuSans-20" x="1933.007812"/>
      <use xlink:href="#DejaVuSans-2d" x="1964.794922"/>
      <use xlink:href="#DejaVuSans-20" x="2000.878906"/>
      <use xlink:href="#DejaVuSans-4c" x="2032.666016"/>
      <use xlink:href="#DejaVuSans-61" x="2088.378906"/>
      <use xlink:href="#DejaVuSans-73" x="2149.658203"/>
      <use xlink:href="#DejaVuSans-74" x="2201.757812"/>
      <use xlink:href="#DejaVuSans-20" x="2240.966797"/>
      <use xlink:href="#DejaVuSans-72" x="2272.753906"/>
      <use xlink:href="#DejaVuSans-65" x="2311.617188"/>
      <use xlink:href="#DejaVuSans-63" x="2373.140625"/>
      <use xlink:href="#DejaVuSans-6f" x="2428.121094"/>
      <use xlink:href="#DejaVuSans-72" x="2489.302734"/>
      <use xlink:href="#DejaVuSans-64" x="2528.666016"/>
      <use xlink:href="#DejaVuSans-20" x="2592.142578"/>
      <use xlink:href="#DejaVuSans-32" x="2623.929688"/>
      <use xlink:href="#DejaVuSans-30" x="2687.552734"/>
      <use xlink:href="#DejaVuSans-32" x="2751.175781"/>
      <use xlink:href="#DejaVuSans-32" x="2814.798828"/>
      <use xlink:href="#DejaVuSans-2d" x="2878.421875"/>
      <use xlink:href="#DejaVuSans-31" x="2914.505859"/>
      <use xlink:href="#DejaVuSans-32" x="2978.128906"/>
      <use xlink:href="#DejaVuSans-2d" x="3041.751953"/>
      <use xlink:href="#DejaVuSans-31" x="3077.835938"/>
      <use xlink:href="#DejaVuSans-39" x="3141.458984"/>
     </g>
    </g>
   </g>
   <g id="matplotlib.axis_2">
    <g id="ytick_1">
     <g id="line2d_9">
      <defs>
       <path id="m18f1f62ae2" d="M 0 0 
L -3.5 0 
" style="stroke: #000000; stroke-width: 0.8"/>
      </defs>
      <g>
       <use xlink:href="#m18f1f62ae2" x="57.6" y="295.488" style="stroke: #000000; stroke-width: 0.8"/>
      </g>
     </g>
     <g id="text_10">
      <!-- 0 -->
      <g transform="translate(44.2375 299.287219) scale(0.1 -0.1)">
       <use xlink:href="#DejaVuSans-30"/>
      </g>
     </g>
    </g>
    <g id="ytick_2">
     <g id="line2d_10">
      <g>
       <use xlink:href="#m18f1f62ae2" x="57.6" y="238.101765" style="stroke: #000000; stroke-width: 0.8"/>
      </g>
     </g>
     <g id="text_11">
      <!-- 10 -->
      <g transform="translate(37.875 241.900984) scale(0.1 -0.1)">
       <use xlink:href="#DejaVuSans-31"/>
       <use xlink:href="#DejaVuSans-30" x="63.623047"/>
      </g>
     </g>
    </g>
    <g id="ytick_3">
     <g id="line2d_11">
      <g>
       <use xlink:href="#m18f1f62ae2" x="57.6" y="180.71553" style="stroke: #000000; stroke-width: 0.8"/>
      </g>
     </g>
     <g id="text_12">
      <!-- 20 -->
      <g transform="translate(37.875 184.514749) scale(0.1 -0.1)">
       <use xlink:href="#DejaVuSans-32"/>
       <use xlink:href="#DejaVuSans-30" x="63.623047"/>
      </g>
     </g>
    </g>
    <g id="ytick_4">
     <g id="line2d_12">
      <g>
       <use xlink:href="#m18f1f62ae2" x="57.6" y="123.329295" style="stroke: #000000; stroke-width: 0.8"/>
      </g>
     </g>
     <g id="text_13">
      <!-- 30 -->
      <g transform="translate(37.875 127.128514) scale(0.1 -0.1)">
       <use xlink:href="#DejaVuSans-33"/>
       <use xlink:href="#DejaVuSans-30" x="63.623047"/>
      </g>
     </g>
    </g>
    <g id="ytick_5">
     <g id="line2d_13">
      <g>
       <use xlink:href="#m18f1f62ae2" x="57.6" y="65.94306" style="stroke: #000000; stroke-width: 0.8"/>
      </g>
     </g>
     <g id="text_14">
      <!-- 40 -->
      <g transform="translate(37.875 69.742279) scale(0.1 -0.1)">
       <use xlink:href="#DejaVuSans-34"/>
       <use xlink:href="#DejaVuSans-30" x="63.623047"/>
      </g>
     </g>
    </g>
    <g id="text_15">
     <!-- IPv6 as % of total Google traffic -->
     <g transform="translate(31.795312 253.735813) rotate(-90) scale(0.1 -0.1)">
      <defs>
       <path id="DejaVuSans-49" d="M 628 4666 
L 1259 4666 
L 1259 0 
L 628 0 
L 628 4666 
z
" transform="scale(0.015625)"/>
       <path id="DejaVuSans-50" d="M 1259 4147 
L 1259 2394 
L 2053 2394 
Q 2494 2394 2734 2622 
Q 2975 2850 2975 3272 
Q 2975 3691 2734 3919 
Q 2494 4147 2053 4147 
L 1259 4147 
z
M 628 4666 
L 2053 4666 
Q 2838 4666 3239 4311 
Q 3641 3956 3641 3272 
Q 3641 2581 3239 2228 
Q 2838 1875 2053 1875 
L 1259 1875 
L 1259 0 
L 628 0 
L 628 4666 
z
" transform="scale(0.015625)"/>
       <path id="DejaVuSans-76" d="M 191 3500 
L 800 3500 
L 1894 563 
L 2988 3500 
L 3597 3500 
L 2284 0 
L 1503 0 
L 191 3500 
z
" transform="scale(0.015625)"/>
       <path id="DejaVuSans-25" d="M 4653 2053 
Q 4381 2053 4226 1822 
Q 4072 1591 4072 1178 
Q 4072 772 4226 539 
Q 4381 306 4653 306 
Q 4919 306 5073 539 
Q 5228 772 5228 1178 
Q 5228 1588 5073 1820 
Q 4919 2053 4653 2053 
z
M 4653 2450 
Q 5147 2450 5437 2106 
Q 5728 1763 5728 1178 
Q 5728 594 5436 251 
Q 5144 -91 4653 -91 
Q 4153 -91 3862 251 
Q 3572 594 3572 1178 
Q 3572 1766 3864 2108 
Q 4156 2450 4653 2450 
z
M 1428 4353 
Q 1159 4353 1004 4120 
Q 850 3888 850 3481 
Q 850 3069 1003 2837 
Q 1156 2606 1428 2606 
Q 1700 2606 1854 2837 
Q 2009 3069 2009 3481 
Q 2009 3884 1853 4118 
Q 1697 4353 1428 4353 
z
M 4250 4750 
L 4750 4750 
L 1831 -91 
L 1331 -91 
L 4250 4750 
z
M 1428 4750 
Q 1922 4750 2215 4408 
Q 2509 4066 2509 3481 
Q 2509 2891 2217 2550 
Q 1925 2209 1428 2209 
Q 931 2209 642 2551 
Q 353 2894 353 3481 
Q 353 4063 643 4406 
Q 934 4750 1428 4750 
z
" transform="scale(0.015625)"/>
       <path id="DejaVuSans-66" d="M 2375 4863 
L 2375 4384 
L 1825 4384 
Q 1516 4384 1395 4259 
Q 1275 4134 1275 3809 
L 1275 3500 
L 2222 3500 
L 2222 3053 
L 1275 3053 
L 1275 0 
L 697 0 
L 697 3053 
L 147 3053 
L 147 3500 
L 697 3500 
L 697 3744 
Q 697 4328 969 4595 
Q 1241 4863 1831 4863 
L 2375 4863 
z
" transform="scale(0.015625)"/>
       <path id="DejaVuSans-6c" d="M 603 4863 
L 1178 4863 
L 1178 0 
L 603 0 
L 603 4863 
z
" transform="scale(0.015625)"/>
       <path id="DejaVuSans-47" d="M 3809 666 
L 3809 1919 
L 2778 1919 
L 2778 2438 
L 4434 2438 
L 4434 434 
Q 4069 175 3628 42 
Q 3188 -91 2688 -91 
Q 1594 -91 976 548 
Q 359 1188 359 2328 
Q 359 3472 976 4111 
Q 1594 4750 2688 4750 
Q 3144 4750 3555 4637 
Q 3966 4525 4313 4306 
L 4313 3634 
Q 3963 3931 3569 4081 
Q 3175 4231 2741 4231 
Q 1884 4231 1454 3753 
Q 1025 3275 1025 2328 
Q 1025 1384 1454 906 
Q 1884 428 2741 428 
Q 3075 428 3337 486 
Q 3600 544 3809 666 
z
" transform="scale(0.015625)"/>
       <path id="DejaVuSans-67" d="M 2906 1791 
Q 2906 2416 2648 2759 
Q 2391 3103 1925 3103 
Q 1463 3103 1205 2759 
Q 947 2416 947 1791 
Q 947 1169 1205 825 
Q 1463 481 1925 481 
Q 2391 481 2648 825 
Q 2906 1169 2906 1791 
z
M 3481 434 
Q 3481 -459 3084 -895 
Q 2688 -1331 1869 -1331 
Q 1566 -1331 1297 -1286 
Q 1028 -1241 775 -1147 
L 775 -588 
Q 1028 -725 1275 -790 
Q 1522 -856 1778 -856 
Q 2344 -856 2625 -561 
Q 2906 -266 2906 331 
L 2906 616 
Q 2728 306 2450 153 
Q 2172 0 1784 0 
Q 1141 0 747 490 
Q 353 981 353 1791 
Q 353 2603 747 3093 
Q 1141 3584 1784 3584 
Q 2172 3584 2450 3431 
Q 2728 3278 2906 2969 
L 2906 3500 
L 3481 3500 
L 3481 434 
z
" transform="scale(0.015625)"/>
       <path id="DejaVuSans-69" d="M 603 3500 
L 1178 3500 
L 1178 0 
L 603 0 
L 603 3500 
z
M 603 4863 
L 1178 4863 
L 1178 4134 
L 603 4134 
L 603 4863 
z
" transform="scale(0.015625)"/>
      </defs>
      <use xlink:href="#DejaVuSans-49"/>
      <use xlink:href="#DejaVuSans-50" x="29.492188"/>
      <use xlink:href="#DejaVuSans-76" x="89.794922"/>
      <use xlink:href="#DejaVuSans-36" x="148.974609"/>
      <use xlink:href="#DejaVuSans-20" x="212.597656"/>
      <use xlink:href="#DejaVuSans-61" x="244.384766"/>
      <use xlink:href="#DejaVuSans-73" x="305.664062"/>
      <use xlink:href="#DejaVuSans-20" x="357.763672"/>
      <use xlink:href="#DejaVuSans-25" x="389.550781"/>
      <use xlink:href="#DejaVuSans-20" x="484.570312"/>
      <use xlink:href="#DejaVuSans-6f" x="516.357422"/>
      <use xlink:href="#DejaVuSans-66" x="577.539062"/>
      <use xlink:href="#DejaVuSans-20" x="612.744141"/>
      <use xlink:href="#DejaVuSans-74" x="644.53125"/>
      <use xlink:href="#DejaVuSans-6f" x="683.740234"/>
      <use xlink:href="#DejaVuSans-74" x="744.921875"/>
      <use xlink:href="#DejaVuSans-61" x="784.130859"/>
      <use xlink:href="#DejaVuSans-6c" x="845.410156"/>
      <use xlink:href="#DejaVuSans-20" x="873.193359"/>
      <use xlink:href="#DejaVuSans-47" x="904.980469"/>
      <use xlink:href="#DejaVuSans-6f" x="982.470703"/>
      <use xlink:href="#DejaVuSans-6f" x="1043.652344"/>
      <use xlink:href="#DejaVuSans-67" x="1104.833984"/>
      <use xlink:href="#DejaVuSans-6c" x="1168.310547"/>
      <use xlink:href="#DejaVuSans-65" x="1196.09375"/>
      <use xlink:href="#DejaVuSans-20" x="1257.617188"/>
      <use xlink:href="#DejaVuSans-74" x="1289.404297"/>
      <use xlink:href="#DejaVuSans-72" x="1328.613281"/>
      <use xlink:href="#DejaVuSans-61" x="1369.726562"/>
      <use xlink:href="#DejaVuSans-66" x="1431.005859"/>
      <use xlink:href="#DejaVuSans-66" x="1466.210938"/>
      <use xlink:href="#DejaVuSans-69" x="1501.416016"/>
      <use xlink:href="#DejaVuSans-63" x="1529.199219"/>
     </g>
    </g>
   </g>
   <g id="line2d_14">
    <path d="M 73.832727 294.442463 
L 75.573502 294.26526 
L 76.008696 294.433999 
L 77.749471 294.433258 
L 79.490246 294.279446 
L 79.92544 294.143429 
L 81.231021 294.165993 
L 82.536602 294.133214 
L 82.971796 294.209796 
L 84.712571 294.05331 
L 86.453346 294.11438 
L 87.758928 294.064425 
L 89.064509 294.069286 
L 90.37009 294.119952 
L 91.675671 294.103609 
L 92.110865 294.214008 
L 94.286834 294.187186 
L 95.592415 294.134494 
L 97.33319 294.031491 
L 98.203578 294.040897 
L 98.638772 293.761518 
L 101.249934 293.665683 
L 102.120322 293.62891 
L 103.861097 293.771727 
L 105.166678 293.720911 
L 106.472259 293.772025 
L 108.648228 293.736871 
L 109.953809 293.940397 
L 110.824197 293.913345 
L 111.694584 293.86953 
L 112.564972 294.067398 
L 114.740941 294.08548 
L 116.046522 294.209756 
L 118.222491 294.116647 
L 119.092878 294.003877 
L 119.528072 293.910923 
L 120.39846 293.906344 
L 123.444816 293.8388 
L 124.315204 293.936133 
L 124.750397 293.799031 
L 127.36156 294.053333 
L 130.407916 293.874024 
L 131.278304 293.876262 
L 131.713497 293.745765 
L 132.583885 293.85492 
L 133.454272 293.652312 
L 133.889466 293.70268 
L 134.32466 293.578295 
L 134.759854 293.632755 
L 135.630241 293.517012 
L 136.500629 293.471729 
L 136.935823 293.500537 
L 137.371016 293.643342 
L 139.111791 293.675599 
L 139.546985 293.742489 
L 140.417373 293.650378 
L 140.852566 293.461956 
L 142.158148 293.299633 
L 143.463729 293.431685 
L 143.898923 293.288013 
L 144.76931 293.434388 
L 147.815667 292.912225 
L 148.686054 293.070708 
L 151.297217 292.657286 
L 153.473185 292.508989 
L 153.908379 292.289527 
L 154.343573 292.374097 
L 154.778767 292.179827 
L 155.649154 292.135599 
L 156.084348 292.14955 
L 157.389929 291.777693 
L 159.130704 291.184474 
L 159.565898 291.261636 
L 160.871479 291.12897 
L 161.306673 291.237338 
L 163.047448 291.022852 
L 164.353029 290.534047 
L 164.788223 290.426999 
L 165.223417 290.487932 
L 165.658611 290.126387 
L 166.093805 289.951984 
L 167.83458 289.741698 
L 168.269773 289.91128 
L 168.704967 289.746392 
L 169.575355 289.655665 
L 170.010548 289.391946 
L 170.880936 289.215977 
L 172.621711 289.197648 
L 173.492098 288.972849 
L 174.79768 288.807209 
L 175.232874 288.590639 
L 175.668067 288.569751 
L 176.103261 288.681734 
L 177.844036 287.872101 
L 178.27923 287.890648 
L 180.020005 287.38154 
L 180.455199 287.040356 
L 180.890392 286.962075 
L 181.325586 286.750934 
L 181.76078 286.78532 
L 183.066361 286.266841 
L 183.501555 286.358521 
L 183.936749 286.103319 
L 184.371942 286.058466 
L 186.547911 284.859524 
L 187.418299 284.494519 
L 188.288686 283.855259 
L 189.594268 282.275347 
L 190.029461 282.526992 
L 190.464655 282.570525 
L 191.770236 281.069542 
L 192.20543 280.889562 
L 192.640624 280.130875 
L 193.511011 279.894209 
L 194.381399 279.389216 
L 194.816593 279.441845 
L 196.122174 278.613354 
L 196.557368 278.437385 
L 196.992562 278.111959 
L 197.862949 278.034849 
L 198.298143 277.297642 
L 198.733337 277.287927 
L 199.16853 276.477421 
L 199.603724 276.057664 
L 200.474112 276.17814 
L 200.909305 275.878056 
L 201.344499 275.415804 
L 202.214887 274.877705 
L 202.65008 274.396659 
L 203.085274 274.69159 
L 204.826049 273.747764 
L 205.261243 273.398781 
L 205.696437 271.964682 
L 206.131631 272.236722 
L 207.002018 271.2629 
L 207.437212 271.221089 
L 207.872406 271.64208 
L 209.177987 270.684154 
L 209.613181 270.03429 
L 210.483568 270.084394 
L 210.918762 269.381223 
L 211.353956 269.332823 
L 211.789149 265.607579 
L 212.224343 268.058596 
L 212.659537 269.518709 
L 213.094731 268.809225 
L 213.529924 268.41275 
L 213.965118 268.348856 
L 214.400312 267.415738 
L 214.835506 267.123356 
L 216.141087 265.098052 
L 216.576281 263.775649 
L 217.011475 263.02086 
L 217.446668 261.996119 
L 217.881862 261.319547 
L 218.317056 262.400061 
L 218.75225 262.234703 
L 219.187443 262.264618 
L 219.622637 262.43917 
L 220.057831 262.765101 
L 220.493025 262.64075 
L 220.928218 260.257827 
L 221.363412 260.610293 
L 222.668993 259.354648 
L 223.104187 259.185646 
L 223.974575 259.259949 
L 224.409768 257.458664 
L 224.844962 257.39306 
L 225.71535 255.971529 
L 226.150544 256.456184 
L 226.585737 254.237454 
L 227.020931 254.761884 
L 227.456125 253.264109 
L 227.891319 252.546896 
L 228.326512 251.469975 
L 228.761706 252.217832 
L 229.1969 251.084976 
L 229.632094 249.200332 
L 230.067287 250.150017 
L 230.502481 250.420748 
L 230.937675 249.835741 
L 231.372869 248.11249 
L 231.808062 248.591177 
L 232.243256 247.069719 
L 232.67845 247.420199 
L 233.548837 245.368159 
L 233.984031 244.328648 
L 235.289612 244.002281 
L 235.724806 242.801967 
L 236.16 242.948033 
L 236.595194 242.497757 
L 237.030388 241.308112 
L 237.465581 241.006174 
L 237.900775 239.675984 
L 238.335969 238.764094 
L 238.771163 238.603384 
L 239.206356 238.827839 
L 239.64155 238.247612 
L 240.076744 235.775872 
L 240.947131 237.225713 
L 241.382325 236.947206 
L 242.252713 236.863749 
L 242.687906 236.912854 
L 243.558294 236.61463 
L 243.993488 235.223943 
L 244.428681 235.158109 
L 244.863875 233.924782 
L 245.299069 233.921316 
L 245.734263 233.733961 
L 247.039844 230.206538 
L 247.475038 228.128927 
L 247.910232 229.547727 
L 248.345425 228.953051 
L 248.780619 227.723866 
L 249.215813 227.997472 
L 249.651007 225.373188 
L 250.0862 225.758204 
L 250.521394 225.436422 
L 250.956588 223.605291 
L 251.391782 223.58796 
L 251.826975 222.223051 
L 252.262169 222.551697 
L 252.697363 221.472124 
L 253.132557 220.898623 
L 253.56775 221.203304 
L 254.002944 220.464083 
L 254.438138 219.310855 
L 254.873332 219.67951 
L 255.308525 219.132567 
L 255.743719 217.317745 
L 256.178913 216.558812 
L 256.614107 216.629804 
L 257.049301 214.507541 
L 257.484494 214.884947 
L 258.354882 212.357227 
L 258.790076 209.834872 
L 259.225269 210.084175 
L 260.095657 208.66584 
L 260.530851 207.076632 
L 260.966044 207.289087 
L 261.401238 206.623068 
L 261.836432 204.110286 
L 262.271626 203.228667 
L 262.706819 199.062587 
L 263.142013 201.771223 
L 263.577207 201.280134 
L 264.012401 201.926091 
L 264.447594 201.167554 
L 265.317982 202.399481 
L 265.753176 202.153891 
L 266.188369 201.073991 
L 266.623563 201.398763 
L 267.493951 200.02337 
L 267.929145 198.883702 
L 268.364338 198.702964 
L 268.799532 197.932566 
L 269.234726 195.162216 
L 269.66992 196.031543 
L 270.105113 192.316519 
L 270.540307 192.604093 
L 270.975501 190.584746 
L 271.410695 189.34009 
L 271.845888 188.590689 
L 272.281082 188.073783 
L 272.716276 187.050925 
L 273.15147 185.177534 
L 273.586663 182.08884 
L 274.021857 182.868805 
L 275.762632 179.351012 
L 276.197826 178.772472 
L 276.63302 178.794371 
L 277.068214 179.113111 
L 277.503407 178.018612 
L 277.938601 176.484667 
L 278.373795 177.858872 
L 278.808989 177.885396 
L 279.244182 179.109657 
L 279.679376 177.769849 
L 280.11457 175.686803 
L 280.549764 175.953718 
L 280.984957 175.05443 
L 282.290539 173.62429 
L 283.160926 172.573806 
L 283.59612 172.460015 
L 284.031314 187.691659 
L 284.466507 170.526352 
L 284.901701 169.702463 
L 285.336895 165.539941 
L 285.772089 169.401788 
L 286.642476 168.837498 
L 287.07767 168.834766 
L 287.512864 168.317963 
L 287.948058 168.063277 
L 288.383251 169.478095 
L 288.818445 170.375036 
L 289.253639 170.156991 
L 289.688833 168.941832 
L 290.124026 169.029087 
L 291.429608 168.007274 
L 291.864801 165.277353 
L 292.299995 166.35486 
L 292.735189 163.46365 
L 293.170383 164.682763 
L 293.605576 162.255979 
L 294.04077 160.740713 
L 294.475964 161.634154 
L 294.911158 159.775924 
L 295.346351 158.542086 
L 295.781545 158.279727 
L 296.216739 159.288434 
L 296.651933 159.820525 
L 297.957514 157.095373 
L 298.392708 157.722082 
L 298.827902 158.625244 
L 299.263095 158.800376 
L 299.698289 156.733455 
L 300.133483 155.963585 
L 300.568677 154.465259 
L 301.00387 154.096093 
L 301.439064 153.886255 
L 301.874258 154.043051 
L 302.309452 153.845413 
L 303.179839 151.787221 
L 303.615033 152.988005 
L 304.050227 149.184181 
L 304.48542 149.282019 
L 304.920614 148.818166 
L 305.355808 146.043857 
L 305.791002 145.211447 
L 306.226195 144.711119 
L 306.661389 144.714763 
L 307.096583 143.210687 
L 307.531777 143.108156 
L 308.402164 140.730047 
L 308.837358 142.299733 
L 309.272552 143.310775 
L 310.142939 140.903044 
L 310.578133 142.083949 
L 311.013327 141.868027 
L 311.448521 142.382059 
L 311.883714 140.564677 
L 312.318908 139.930571 
L 312.754102 141.304575 
L 313.189296 139.332233 
L 313.624489 139.490045 
L 314.059683 138.927436 
L 314.494877 138.875186 
L 314.930071 138.709334 
L 315.365264 134.813337 
L 315.800458 134.69985 
L 316.235652 135.007331 
L 316.670846 135.949682 
L 317.541233 131.403148 
L 317.976427 129.397482 
L 318.411621 128.888409 
L 318.846815 129.063265 
L 319.282008 128.697209 
L 319.717202 126.704897 
L 320.152396 128.347865 
L 320.58759 126.598578 
L 321.022783 128.221868 
L 321.457977 127.058195 
L 321.893171 126.353802 
L 322.328365 126.295062 
L 322.763558 126.374421 
L 323.198752 124.857496 
L 323.633946 125.02985 
L 324.06914 126.671602 
L 324.504333 126.115311 
L 324.939527 126.788738 
L 325.374721 127.06398 
L 325.809915 124.959977 
L 326.245108 126.220075 
L 326.680302 126.558683 
L 327.115496 125.776721 
L 327.55069 125.29894 
L 327.985883 123.414244 
L 328.421077 123.812023 
L 328.856271 123.401826 
L 329.291465 123.53786 
L 329.726659 122.441875 
L 330.161852 121.962447 
L 330.597046 120.575209 
L 331.03224 119.968855 
L 331.467434 120.826079 
L 331.902627 121.080954 
L 332.337821 121.138295 
L 333.208209 119.165528 
L 333.643402 119.638459 
L 334.078596 118.199907 
L 334.51379 118.822519 
L 334.948984 118.553458 
L 335.384177 117.558444 
L 335.819371 117.801606 
L 336.254565 118.485134 
L 336.689759 118.173527 
L 337.124952 118.189813 
L 337.560146 115.605154 
L 338.430534 113.764967 
L 338.865728 114.068798 
L 339.300921 113.425476 
L 339.736115 111.284343 
L 340.171309 111.976967 
L 340.606503 108.904456 
L 341.041696 111.363364 
L 341.47689 109.3278 
L 341.912084 106.54521 
L 342.347278 107.3592 
L 342.782471 105.621751 
L 343.217665 104.449356 
L 343.652859 104.561512 
L 344.088053 103.681941 
L 344.523246 105.88695 
L 344.95844 104.049976 
L 345.393634 104.738772 
L 345.828828 105.142897 
L 347.134409 102.324476 
L 347.569603 104.671028 
L 348.004796 104.718044 
L 348.43999 103.680713 
L 348.875184 104.268515 
L 349.310378 105.69365 
L 349.745572 104.585275 
L 350.180765 102.006361 
L 350.615959 106.287661 
L 351.051153 105.134387 
L 351.486347 103.465102 
L 351.92154 104.865423 
L 352.356734 104.966601 
L 352.791928 102.67984 
L 353.227122 101.541016 
L 353.662315 99.453287 
L 354.097509 100.471382 
L 354.532703 99.70006 
L 354.967897 99.93796 
L 355.40309 100.591515 
L 355.838284 98.922637 
L 356.273478 98.238392 
L 356.708672 99.475605 
L 357.143865 99.16724 
L 357.579059 96.490023 
L 358.014253 95.90112 
L 358.449447 94.079072 
L 358.884641 97.071122 
L 359.319834 98.063439 
L 359.755028 97.087924 
L 360.190222 96.901367 
L 360.625416 97.054359 
L 361.060609 91.777144 
L 361.495803 95.304991 
L 361.930997 93.272113 
L 362.801384 94.30048 
L 363.236578 89.302397 
L 363.671772 88.663631 
L 364.106966 86.653098 
L 364.542159 86.573079 
L 364.977353 88.39166 
L 365.412547 85.883778 
L 365.847741 85.390808 
L 366.282934 84.095692 
L 366.718128 83.627323 
L 367.153322 82.155842 
L 367.588516 82.375844 
L 368.023709 85.943414 
L 368.458903 84.019575 
L 368.894097 82.801443 
L 369.329291 85.118166 
L 369.764485 83.837018 
L 370.199678 83.386037 
L 370.634872 81.536364 
L 371.50526 84.480232 
L 371.940453 84.156923 
L 372.375647 84.618475 
L 372.810841 84.472238 
L 373.246035 82.813718 
L 373.681228 84.731348 
L 374.116422 82.42744 
L 374.551616 81.612682 
L 374.98681 81.52732 
L 375.857197 78.659064 
L 376.292391 75.458524 
L 376.727585 77.641279 
L 377.162778 81.71814 
L 377.597972 77.125916 
L 378.033166 76.91019 
L 378.46836 79.991825 
L 379.338747 75.890241 
L 379.773941 75.835414 
L 380.209135 76.701287 
L 380.644329 76.665954 
L 381.079522 77.329023 
L 381.514716 69.533924 
L 381.94991 68.701766 
L 382.385104 68.93414 
L 382.820297 67.341023 
L 383.255491 66.818493 
L 383.690685 64.047708 
L 384.125879 67.568382 
L 384.561072 68.941141 
L 384.996266 65.929276 
L 385.43146 67.913927 
L 385.866654 64.5389 
L 386.301847 62.820463 
L 386.737041 58.651554 
L 387.172235 59.773334 
L 387.607429 53.596481 
L 388.042622 56.098699 
L 388.91301 59.903498 
L 389.348204 58.10266 
L 389.783398 58.45395 
L 390.218591 59.209451 
L 390.653785 59.055633 
L 391.088979 61.251185 
L 391.524173 60.227724 
L 391.959366 58.623251 
L 392.39456 58.993329 
L 392.829754 57.349018 
L 393.264948 57.76679 
L 393.700141 55.755793 
L 394.135335 57.175402 
L 394.570529 61.005813 
L 395.005723 58.428155 
L 395.440916 54.520307 
L 395.87611 57.758882 
L 396.311304 55.877566 
L 396.746498 57.831568 
L 397.181691 56.067113 
L 397.616885 56.042024 
L 398.052079 53.568 
L 398.487273 73.347905 
L 398.487273 73.347905 
" clip-path="url(#p126a120939)" style="fill: none; stroke: #1f77b4; stroke-width: 1.5; stroke-linecap: square"/>
   </g>
   <g id="line2d_15">
    <path d="M 73.832727 294.7167 
L 75.573502 294.570905 
L 76.008696 294.692925 
L 85.582959 294.425419 
L 86.453346 294.416151 
L 88.629315 294.346571 
L 90.805284 294.41781 
L 92.546059 294.414596 
L 98.638772 294.327972 
L 99.073965 294.122535 
L 101.685128 294.04022 
L 103.861097 294.053591 
L 106.472259 294.087627 
L 108.648228 294.088642 
L 110.389003 294.200528 
L 111.694584 294.209647 
L 114.305747 294.241232 
L 117.352103 294.344665 
L 118.222491 294.329642 
L 119.528072 294.149277 
L 121.268847 294.122167 
L 123.444816 294.059806 
L 128.667141 294.249037 
L 134.759854 293.775423 
L 135.630241 293.7155 
L 136.500629 293.649236 
L 137.371016 293.75233 
L 138.241404 293.765879 
L 139.111791 293.820069 
L 140.417373 293.856693 
L 141.28776 293.537287 
L 142.158148 293.578112 
L 142.593341 293.662446 
L 144.334117 293.555031 
L 144.76931 293.612715 
L 145.204504 293.472159 
L 147.380473 293.422073 
L 148.25086 293.242993 
L 148.686054 293.240876 
L 149.121248 293.355177 
L 155.213961 292.640243 
L 156.084348 292.521023 
L 156.519542 292.512065 
L 156.954736 292.362034 
L 157.825123 292.369862 
L 159.130704 291.935408 
L 160.871479 291.630601 
L 161.306673 291.762371 
L 163.047448 291.626497 
L 169.140161 290.508063 
L 169.575355 290.55718 
L 170.445742 290.276532 
L 171.31613 290.164933 
L 171.751323 289.908394 
L 173.056905 290.200381 
L 173.927292 289.998886 
L 174.362486 289.939658 
L 174.79768 289.690378 
L 175.232874 289.709045 
L 175.668067 289.524388 
L 176.973649 289.430034 
L 177.408842 289.166723 
L 178.714424 288.900468 
L 179.149617 288.903343 
L 179.584811 288.734673 
L 180.020005 288.717532 
L 181.76078 288.194514 
L 182.195974 288.126913 
L 183.066361 287.67689 
L 183.501555 287.827959 
L 184.807136 287.296442 
L 185.677524 286.853415 
L 186.112718 286.517711 
L 186.983105 286.284505 
L 187.418299 286.391656 
L 188.288686 286.227819 
L 189.594268 284.974147 
L 190.029461 284.672996 
L 190.464655 284.755787 
L 190.899849 284.594216 
L 192.20543 283.652881 
L 192.640624 283.4936 
L 193.511011 282.73314 
L 193.946205 282.628944 
L 194.381399 281.193755 
L 194.816593 281.327751 
L 195.251786 282.283835 
L 195.68698 282.180012 
L 196.557368 281.44638 
L 196.992562 282.109329 
L 197.427755 281.250934 
L 197.862949 281.198139 
L 198.298143 280.931327 
L 198.733337 280.307275 
L 199.16853 280.338987 
L 200.038918 279.383173 
L 200.474112 279.411998 
L 200.909305 279.198441 
L 201.344499 278.423141 
L 201.779693 278.684932 
L 202.214887 278.098112 
L 202.65008 278.274138 
L 203.085274 278.062297 
L 203.520468 278.148749 
L 203.955662 277.487551 
L 204.390855 277.513036 
L 204.826049 276.838478 
L 205.261243 276.955672 
L 206.131631 275.531925 
L 206.566824 275.250176 
L 207.002018 275.160573 
L 207.437212 274.833799 
L 207.872406 274.80141 
L 208.307599 274.926495 
L 208.742793 274.902771 
L 210.048374 274.435624 
L 210.483568 274.587721 
L 211.353956 274.194677 
L 211.789149 273.517049 
L 212.224343 271.996055 
L 212.659537 273.131402 
L 213.094731 273.505164 
L 213.529924 273.112786 
L 213.965118 273.340391 
L 214.400312 272.772566 
L 215.270699 272.03836 
L 215.705893 271.310496 
L 216.141087 270.854018 
L 216.576281 269.897733 
L 217.011475 267.067513 
L 217.446668 265.254711 
L 217.881862 267.940208 
L 218.317056 268.648395 
L 218.75225 268.667872 
L 219.187443 268.950924 
L 219.622637 268.93054 
L 220.057831 269.309358 
L 220.493025 268.527603 
L 220.928218 268.665066 
L 221.363412 267.204993 
L 221.798606 266.758821 
L 222.2338 267.012485 
L 223.104187 265.556499 
L 223.539381 265.950582 
L 223.974575 265.912586 
L 224.409768 265.443374 
L 224.844962 264.762348 
L 225.280156 264.408011 
L 225.71535 264.458236 
L 226.585737 262.347231 
L 227.020931 261.726324 
L 227.456125 261.392651 
L 227.891319 260.176425 
L 228.326512 259.755181 
L 229.632094 257.302729 
L 230.067287 257.719095 
L 230.937675 257.309586 
L 231.808062 256.523338 
L 232.243256 256.865147 
L 233.113644 256.431703 
L 233.984031 255.347184 
L 235.289612 254.792827 
L 235.724806 254.79646 
L 236.16 253.659409 
L 236.595194 253.544877 
L 237.030388 253.576038 
L 237.465581 252.9937 
L 238.771163 250.11042 
L 239.206356 249.566559 
L 239.64155 246.942074 
L 240.076744 243.239285 
L 240.511938 248.733254 
L 240.947131 249.930422 
L 241.382325 249.596159 
L 241.817519 249.006716 
L 242.252713 249.086931 
L 242.687906 249.390504 
L 243.558294 248.150313 
L 243.993488 247.930581 
L 244.863875 247.126732 
L 245.299069 245.819795 
L 245.734263 245.516618 
L 246.169456 245.442526 
L 247.039844 244.286056 
L 247.475038 242.911386 
L 247.910232 242.054661 
L 248.345425 242.594591 
L 249.215813 240.906018 
L 249.651007 239.352642 
L 250.0862 238.900823 
L 250.521394 238.679851 
L 251.391782 236.188795 
L 251.826975 234.24879 
L 252.262169 235.098365 
L 252.697363 234.938223 
L 253.132557 233.962054 
L 253.56775 233.303208 
L 254.002944 233.134527 
L 254.438138 233.253805 
L 254.873332 234.600091 
L 255.308525 233.909798 
L 255.743719 234.21872 
L 256.178913 233.485863 
L 256.614107 233.565527 
L 257.049301 232.741254 
L 257.919688 230.435831 
L 258.354882 230.667396 
L 259.225269 227.406681 
L 259.660463 228.179324 
L 260.095657 227.578845 
L 260.530851 226.157767 
L 260.966044 226.052257 
L 261.401238 225.098498 
L 261.836432 224.555457 
L 262.271626 220.76765 
L 262.706819 212.027715 
L 263.142013 218.319456 
L 263.577207 221.674249 
L 264.012401 222.028638 
L 264.882788 221.659323 
L 265.317982 221.761838 
L 265.753176 221.714879 
L 266.188369 220.670662 
L 266.623563 220.410048 
L 267.058757 220.735325 
L 267.929145 219.513663 
L 268.799532 217.320184 
L 269.234726 214.917686 
L 269.66992 215.725902 
L 270.105113 215.606212 
L 270.540307 211.249013 
L 270.975501 212.204626 
L 271.845888 209.29745 
L 272.281082 206.500244 
L 272.716276 206.399434 
L 273.15147 206.016364 
L 274.021857 201.143934 
L 274.457051 200.820671 
L 274.892245 200.101243 
L 275.327438 199.749902 
L 276.197826 196.9692 
L 276.63302 196.730835 
L 277.068214 196.648491 
L 277.503407 197.867633 
L 277.938601 198.008046 
L 278.373795 199.042352 
L 278.808989 199.763818 
L 279.679376 200.338793 
L 280.11457 197.872654 
L 280.549764 197.250674 
L 280.984957 197.788543 
L 281.420151 196.69059 
L 281.855345 194.670376 
L 282.290539 196.428748 
L 282.725732 197.125784 
L 283.160926 195.045384 
L 283.59612 194.789493 
L 284.031314 193.61789 
L 284.466507 187.691659 
L 284.901701 190.064666 
L 285.336895 180.263929 
L 286.207282 191.901278 
L 286.642476 190.391245 
L 287.07767 191.977757 
L 287.512864 191.38883 
L 287.948058 191.290998 
L 288.383251 189.754499 
L 288.818445 192.348231 
L 289.253639 193.066511 
L 289.688833 192.394019 
L 290.124026 190.920966 
L 290.55922 190.418779 
L 290.994414 189.268937 
L 291.429608 189.188855 
L 291.864801 191.224172 
L 292.299995 190.060838 
L 292.735189 188.406537 
L 293.170383 186.081551 
L 293.605576 185.860493 
L 294.04077 184.899038 
L 294.475964 185.016485 
L 294.911158 182.541457 
L 295.346351 182.484363 
L 295.781545 180.78095 
L 296.216739 180.509778 
L 296.651933 179.989967 
L 297.087126 178.362431 
L 297.957514 178.375882 
L 298.827902 177.71734 
L 299.263095 178.696223 
L 299.698289 177.036745 
L 300.133483 176.153284 
L 300.568677 179.316666 
L 301.00387 179.473899 
L 301.439064 179.324224 
L 301.874258 179.419755 
L 302.309452 179.340011 
L 302.744645 177.756082 
L 303.179839 178.133798 
L 303.615033 178.773482 
L 304.050227 178.067471 
L 304.48542 174.826773 
L 304.920614 175.71494 
L 305.355808 175.272038 
L 305.791002 171.827028 
L 306.226195 173.512536 
L 307.531777 169.017863 
L 307.966971 154.965426 
L 308.402164 160.35556 
L 308.837358 168.462375 
L 309.272552 169.950251 
L 310.142939 168.512927 
L 310.578133 167.103332 
L 311.013327 168.157178 
L 311.448521 167.858144 
L 311.883714 168.967208 
L 312.318908 166.463452 
L 312.754102 168.674928 
L 313.624489 166.378555 
L 314.059683 166.346304 
L 314.494877 167.032374 
L 314.930071 164.162362 
L 315.365264 163.677075 
L 315.800458 161.274158 
L 316.235652 163.480917 
L 316.670846 164.884418 
L 317.106039 162.189079 
L 317.976427 154.672371 
L 318.411621 156.315144 
L 318.846815 154.961862 
L 319.282008 154.222785 
L 319.717202 152.467426 
L 320.152396 153.197304 
L 320.58759 153.401347 
L 321.022783 153.21794 
L 321.457977 152.634299 
L 321.893171 151.703466 
L 322.328365 149.10547 
L 322.763558 152.388003 
L 323.198752 153.317304 
L 323.633946 153.492132 
L 324.06914 154.96919 
L 324.504333 155.788895 
L 325.374721 155.484559 
L 325.809915 156.05406 
L 326.245108 155.725495 
L 326.680302 156.470454 
L 327.55069 153.464678 
L 327.985883 155.35653 
L 328.421077 154.713821 
L 328.856271 153.114151 
L 329.291465 153.290867 
L 329.726659 152.520445 
L 330.161852 150.121672 
L 330.597046 136.860126 
L 331.03224 136.507069 
L 331.467434 149.487697 
L 331.902627 151.307782 
L 332.337821 151.680414 
L 332.773015 150.427678 
L 333.208209 148.735731 
L 334.078596 146.839839 
L 334.51379 146.786148 
L 334.948984 147.415159 
L 335.384177 146.964556 
L 335.819371 136.842652 
L 336.254565 132.424996 
L 336.689759 130.704712 
L 337.124952 131.987329 
L 338.430534 127.492845 
L 338.865728 127.808314 
L 339.300921 130.188678 
L 339.736115 128.007387 
L 340.171309 127.174896 
L 340.606503 129.122522 
L 341.041696 130.193297 
L 341.912084 126.826235 
L 342.347278 123.620622 
L 342.782471 123.378142 
L 343.217665 121.638341 
L 343.652859 123.141097 
L 344.088053 122.934501 
L 344.523246 124.122034 
L 344.95844 122.984134 
L 345.393634 122.99362 
L 345.828828 123.996255 
L 346.264021 125.76926 
L 346.699215 124.922044 
L 347.134409 126.956398 
L 348.004796 127.099978 
L 348.43999 127.885154 
L 348.875184 126.454469 
L 349.310378 126.656406 
L 349.745572 125.525036 
L 350.180765 123.477317 
L 350.615959 125.812553 
L 351.051153 126.282506 
L 351.486347 126.054068 
L 351.92154 128.678421 
L 352.356734 126.480115 
L 352.791928 122.542651 
L 353.227122 117.592749 
L 353.662315 110.523545 
L 354.097509 116.605499 
L 354.532703 121.099788 
L 354.967897 120.317029 
L 355.40309 121.293438 
L 355.838284 120.083811 
L 356.708672 119.048076 
L 357.143865 119.201773 
L 357.579059 120.962538 
L 358.014253 120.526879 
L 358.449447 120.30682 
L 358.884641 118.237776 
L 359.319834 121.627851 
L 360.190222 118.435632 
L 360.625416 120.842446 
L 361.060609 119.444362 
L 361.495803 115.806327 
L 361.930997 116.163757 
L 362.366191 114.000101 
L 362.801384 112.732279 
L 363.236578 114.722823 
L 363.671772 115.125273 
L 364.542159 107.165194 
L 364.977353 107.029676 
L 365.412547 106.635881 
L 365.847741 105.829661 
L 366.282934 102.902722 
L 366.718128 104.4469 
L 367.153322 102.986018 
L 367.588516 103.097922 
L 368.023709 104.421587 
L 368.458903 107.659875 
L 368.894097 108.410751 
L 369.329291 108.464665 
L 369.764485 110.089137 
L 370.199678 107.729565 
L 371.070066 108.990713 
L 371.50526 109.284846 
L 371.940453 109.043773 
L 372.375647 108.567828 
L 372.810841 111.126772 
L 373.246035 109.949385 
L 373.681228 110.512407 
L 374.116422 108.839346 
L 374.551616 109.998806 
L 375.422003 107.145189 
L 375.857197 101.457352 
L 376.292391 88.138851 
L 376.727585 95.818306 
L 377.162778 101.45228 
L 377.597972 101.817853 
L 378.033166 103.684231 
L 378.46836 101.917906 
L 378.903553 104.894817 
L 379.338747 103.843088 
L 379.773941 100.144958 
L 380.209135 102.170072 
L 380.644329 102.163134 
L 381.079522 104.645301 
L 381.514716 100.434546 
L 381.94991 93.308037 
L 382.385104 93.476683 
L 382.820297 104.699996 
L 383.255491 92.100573 
L 384.125879 88.366646 
L 384.561072 92.345687 
L 384.996266 92.153661 
L 385.43146 90.704905 
L 385.866654 87.372785 
L 386.301847 88.064473 
L 387.172235 79.860479 
L 387.607429 80.689016 
L 388.042622 80.447953 
L 388.477816 77.808256 
L 388.91301 77.709987 
L 389.348204 78.69077 
L 389.783398 77.338813 
L 390.218591 78.244534 
L 390.653785 78.354389 
L 391.088979 81.951783 
L 391.524173 82.84881 
L 392.39456 86.087241 
L 392.829754 83.862888 
L 393.264948 85.088606 
L 393.700141 85.230539 
L 394.135335 82.156468 
L 394.570529 85.608812 
L 395.005723 86.56765 
L 395.440916 83.228879 
L 395.87611 82.325757 
L 396.311304 84.795867 
L 396.746498 80.998075 
L 397.181691 84.695883 
L 397.616885 85.022204 
L 398.052079 80.311242 
L 398.487273 73.347905 
L 398.487273 73.347905 
" clip-path="url(#p126a120939)" style="fill: none; stroke: #ff7f0e; stroke-width: 1.5; stroke-linecap: square"/>
   </g>
   <g id="line2d_16">
    <path d="M 73.832727 295.213763 
L 80.360634 295.181758 
L 80.795827 295.25399 
L 81.666215 295.135149 
L 82.101409 295.22621 
L 82.536602 295.119833 
L 82.971796 295.22559 
L 83.40699 295.168376 
L 83.842184 295.224832 
L 84.712571 295.123729 
L 86.453346 295.186229 
L 89.064509 295.182941 
L 90.37009 295.231145 
L 91.240478 295.187727 
L 95.157222 295.27151 
L 96.027609 295.196289 
L 98.203578 295.179951 
L 98.638772 294.921546 
L 99.073965 295.127603 
L 102.990709 295.184065 
L 103.425903 295.27415 
L 104.731484 295.135849 
L 106.037066 295.172422 
L 109.083422 295.183136 
L 109.518616 295.324707 
L 110.824197 295.230703 
L 111.694584 295.147883 
L 112.564972 295.284778 
L 113.000166 295.303693 
L 113.435359 295.198768 
L 114.305747 295.327106 
L 115.176135 295.345912 
L 116.481716 295.350365 
L 119.963266 295.269898 
L 121.268847 295.204546 
L 122.139235 295.233056 
L 122.574428 295.303343 
L 123.444816 295.266994 
L 124.315204 295.267734 
L 125.185591 295.278305 
L 125.620785 295.380401 
L 129.102335 295.279321 
L 133.454272 295.269795 
L 133.889466 295.398552 
L 134.32466 295.251069 
L 134.759854 295.345332 
L 135.195048 295.228574 
L 136.500629 295.310493 
L 136.935823 295.256378 
L 137.371016 295.379012 
L 138.241404 295.344351 
L 138.676598 295.248889 
L 139.546985 295.408233 
L 140.852566 295.257611 
L 141.28776 295.358628 
L 142.158148 295.209522 
L 142.593341 295.184324 
L 143.028535 295.324466 
L 143.463729 295.325884 
L 143.898923 295.197815 
L 145.204504 295.369951 
L 145.639698 295.215565 
L 146.945279 295.193769 
L 147.380473 295.04037 
L 148.686054 295.317833 
L 149.556442 295.039199 
L 149.991635 295.131718 
L 150.426829 295.006065 
L 151.73241 295.033673 
L 152.167604 295.059738 
L 152.602798 295.229309 
L 153.473185 295.14184 
L 153.908379 294.795187 
L 154.343573 295.02017 
L 154.778767 294.915136 
L 156.084348 295.116527 
L 156.519542 294.962554 
L 156.954736 295.01345 
L 157.825123 294.768641 
L 158.260317 294.82613 
L 158.695511 294.724241 
L 159.130704 294.737067 
L 159.565898 294.891177 
L 160.436286 294.722709 
L 160.871479 294.98637 
L 163.917836 294.730025 
L 164.788223 294.683795 
L 165.223417 294.706267 
L 165.658611 294.474748 
L 166.093805 294.415968 
L 166.964192 294.610903 
L 167.83458 294.563479 
L 168.269773 294.845578 
L 170.010548 294.499815 
L 171.31613 294.538631 
L 171.751323 294.832173 
L 173.056905 294.340097 
L 173.927292 294.428214 
L 174.362486 294.363712 
L 174.79768 294.604832 
L 175.232874 294.369594 
L 176.103261 294.667767 
L 177.408842 294.255946 
L 178.714424 294.362857 
L 179.149617 294.133553 
L 179.584811 294.281495 
L 180.455199 293.955082 
L 180.890392 294.117594 
L 181.325586 294.002328 
L 181.76078 294.078806 
L 182.631167 294.026608 
L 183.501555 294.018562 
L 183.936749 293.901816 
L 184.371942 294.029908 
L 185.677524 293.845543 
L 186.112718 294.060219 
L 186.983105 293.894981 
L 187.418299 293.590863 
L 187.853493 293.452143 
L 188.288686 293.115441 
L 189.159074 293.06777 
L 189.594268 292.7892 
L 190.029461 293.341996 
L 190.464655 293.302738 
L 190.899849 292.985599 
L 191.335043 292.927977 
L 191.770236 292.496714 
L 192.20543 292.724681 
L 192.640624 292.125276 
L 193.511011 292.649069 
L 193.946205 292.538261 
L 194.381399 293.683461 
L 194.816593 293.602093 
L 195.251786 292.329198 
L 195.68698 292.189405 
L 196.122174 292.239164 
L 196.557368 292.479004 
L 196.992562 291.49063 
L 197.427755 292.319666 
L 197.862949 292.32471 
L 198.298143 291.854315 
L 198.733337 292.468652 
L 199.16853 291.626434 
L 199.603724 291.752518 
L 200.038918 292.221885 
L 200.474112 292.254142 
L 200.909305 292.167615 
L 201.344499 292.480663 
L 201.779693 291.957782 
L 202.214887 292.267594 
L 202.65008 291.610521 
L 203.085274 292.117293 
L 203.520468 291.818535 
L 203.955662 292.242499 
L 204.390855 292.031989 
L 204.826049 292.397286 
L 205.696437 291.322884 
L 206.131631 292.192796 
L 206.566824 292.051592 
L 207.002018 291.590327 
L 207.437212 291.87529 
L 207.872406 292.32867 
L 208.307599 291.86127 
L 208.742793 291.59171 
L 209.177987 291.459842 
L 209.613181 290.8847 
L 210.048374 291.162909 
L 210.483568 290.984673 
L 210.918762 290.490405 
L 211.353956 290.626146 
L 211.789149 287.57853 
L 212.224343 291.550541 
L 212.659537 291.875307 
L 213.094731 290.792061 
L 213.529924 290.787964 
L 214.400312 290.131173 
L 214.835506 290.178626 
L 215.270699 289.871764 
L 215.705893 290.01034 
L 216.576281 289.365916 
L 217.011475 291.441347 
L 217.446668 292.229409 
L 217.881862 288.867339 
L 218.317056 289.239666 
L 219.187443 288.801694 
L 219.622637 288.99663 
L 220.057831 288.943743 
L 220.493025 289.601148 
L 220.928218 287.080762 
L 221.363412 288.8933 
L 221.798606 288.884836 
L 222.2338 288.148278 
L 222.668993 288.530791 
L 223.104187 289.117147 
L 223.539381 288.747551 
L 223.974575 288.835363 
L 224.409768 287.503291 
L 224.844962 288.118712 
L 225.280156 287.680574 
L 225.71535 287.001293 
L 226.150544 288.57099 
L 226.585737 287.378223 
L 227.020931 288.523561 
L 227.456125 287.359458 
L 227.891319 287.858471 
L 228.326512 287.202793 
L 228.761706 288.797127 
L 229.1969 288.451857 
L 229.632094 287.385603 
L 230.502481 288.350553 
L 230.937675 288.014154 
L 231.372869 286.747967 
L 231.808062 287.555839 
L 232.243256 285.692571 
L 232.67845 286.276522 
L 233.113644 285.331606 
L 233.984031 284.469464 
L 234.854419 284.63282 
L 235.289612 284.697454 
L 235.724806 283.493508 
L 236.16 284.776624 
L 236.595194 284.44088 
L 237.030388 283.220074 
L 237.465581 283.500475 
L 237.900775 283.225698 
L 238.335969 283.347064 
L 239.206356 284.749279 
L 239.64155 286.793538 
L 240.076744 288.024587 
L 240.511938 283.237376 
L 240.947131 282.78329 
L 241.382325 282.839047 
L 241.817519 283.353164 
L 242.252713 283.264818 
L 242.687906 283.01035 
L 243.558294 283.952317 
L 243.993488 282.781362 
L 244.428681 283.061682 
L 244.863875 282.28605 
L 245.299069 283.589521 
L 245.734263 283.705343 
L 246.169456 282.532839 
L 247.039844 281.408482 
L 247.475038 280.705541 
L 247.910232 282.981066 
L 248.345425 281.84646 
L 248.780619 281.488703 
L 249.215813 282.579454 
L 249.651007 281.508547 
L 250.0862 282.345382 
L 250.521394 282.244571 
L 250.956588 281.741225 
L 251.391782 282.887165 
L 251.826975 283.462261 
L 252.262169 282.941332 
L 252.697363 282.021901 
L 253.132557 282.424569 
L 253.56775 283.388095 
L 254.002944 282.817555 
L 254.873332 280.567418 
L 255.308525 280.710769 
L 255.743719 278.587025 
L 256.614107 278.552278 
L 257.049301 277.254287 
L 257.484494 278.732419 
L 257.919688 278.514231 
L 258.354882 277.177831 
L 258.790076 276.470035 
L 259.225269 278.165494 
L 259.660463 276.672333 
L 260.530851 276.406865 
L 261.401238 277.012571 
L 261.836432 275.042828 
L 262.271626 277.949016 
L 262.706819 282.522871 
L 263.577207 275.093885 
L 264.012401 275.385453 
L 264.447594 274.778622 
L 264.882788 275.603199 
L 265.317982 276.125643 
L 265.753176 275.927012 
L 266.188369 275.89133 
L 266.623563 276.476715 
L 267.058757 275.513602 
L 267.493951 275.40699 
L 267.929145 274.858039 
L 268.364338 275.936475 
L 268.799532 276.100382 
L 269.234726 275.73253 
L 269.66992 275.793641 
L 270.105113 272.198307 
L 270.540307 276.84308 
L 270.975501 273.86812 
L 271.410695 273.92145 
L 271.845888 274.781239 
L 272.281082 277.061538 
L 272.716276 276.139491 
L 273.15147 274.64917 
L 273.586663 274.092925 
L 274.021857 277.212871 
L 274.457051 276.633362 
L 274.892245 276.643273 
L 275.327438 275.67006 
L 275.762632 276.677291 
L 276.197826 277.291273 
L 276.63302 277.551536 
L 277.068214 277.95262 
L 277.503407 275.638979 
L 277.938601 273.964621 
L 278.373795 274.30452 
L 278.808989 273.609578 
L 279.244182 274.601528 
L 279.679376 272.919055 
L 280.11457 273.302149 
L 280.549764 274.191044 
L 280.984957 272.753886 
L 281.420151 273.327301 
L 281.855345 274.824445 
L 282.290539 272.683542 
L 282.725732 271.527766 
L 283.160926 273.016423 
L 283.59612 273.158522 
L 284.031314 289.561769 
L 284.466507 278.322693 
L 284.901701 275.125797 
L 285.336895 280.764012 
L 285.772089 279.313139 
L 286.207282 272.671485 
L 286.642476 273.934252 
L 287.07767 272.345009 
L 287.512864 272.417132 
L 287.948058 272.260279 
L 288.383251 275.211595 
L 288.818445 273.514805 
L 289.253639 272.57848 
L 289.688833 272.035812 
L 290.124026 273.596121 
L 290.55922 273.771385 
L 290.994414 274.558488 
L 291.429608 274.306419 
L 291.864801 269.541181 
L 292.299995 271.782022 
L 292.735189 270.545113 
L 293.170383 274.089212 
L 293.605576 271.883486 
L 294.04077 271.329675 
L 294.911158 272.722467 
L 295.346351 271.545723 
L 296.216739 274.266656 
L 296.651933 275.318558 
L 297.087126 276.037693 
L 297.957514 274.207491 
L 298.827902 276.395904 
L 299.263095 275.592152 
L 299.698289 275.18471 
L 300.133483 275.2983 
L 300.568677 270.636593 
L 301.00387 270.110194 
L 301.439064 270.050031 
L 301.874258 270.111296 
L 302.309452 269.993402 
L 302.744645 270.556935 
L 303.179839 269.141423 
L 303.615033 269.702523 
L 304.050227 266.60471 
L 304.48542 269.943246 
L 304.920614 268.591227 
L 305.355808 266.259819 
L 305.791002 268.872419 
L 306.226195 266.686583 
L 306.661389 268.126949 
L 307.096583 268.172927 
L 307.531777 269.578293 
L 307.966971 282.26325 
L 308.837358 269.325357 
L 309.272552 268.848524 
L 309.707746 268.562861 
L 310.142939 267.878117 
L 310.578133 270.468617 
L 311.013327 269.198849 
L 311.448521 270.011915 
L 311.883714 267.085469 
L 312.318908 268.955118 
L 313.189296 267.436989 
L 313.624489 268.59949 
L 314.059683 268.069132 
L 314.494877 267.330813 
L 314.930071 270.034972 
L 315.365264 266.624262 
L 315.800458 268.913691 
L 316.235652 267.014414 
L 316.670846 266.553264 
L 317.106039 266.660392 
L 317.976427 270.213111 
L 318.411621 268.061265 
L 318.846815 269.589403 
L 319.282008 269.962425 
L 319.717202 269.725471 
L 320.152396 270.638561 
L 320.58759 268.685231 
L 321.022783 270.491928 
L 321.457977 269.911896 
L 321.893171 270.138337 
L 322.328365 272.677591 
L 323.198752 267.028192 
L 323.633946 267.025719 
L 324.06914 267.190411 
L 324.504333 265.814416 
L 324.939527 266.624755 
L 325.374721 267.067421 
L 325.809915 264.393917 
L 326.245108 265.98258 
L 326.680302 265.576228 
L 327.55069 267.322262 
L 327.985883 263.545714 
L 328.856271 265.775674 
L 329.291465 265.734993 
L 329.726659 265.40943 
L 330.161852 267.328775 
L 330.597046 279.203083 
L 331.03224 278.949786 
L 331.467434 266.826382 
L 331.902627 265.261172 
L 332.337821 264.945881 
L 332.773015 265.300574 
L 333.208209 265.917797 
L 333.643402 267.4673 
L 334.078596 266.848068 
L 334.51379 267.524371 
L 334.948984 266.626299 
L 335.384177 266.081887 
L 335.819371 276.446955 
L 336.254565 281.548138 
L 336.689759 282.956815 
L 337.560146 280.498199 
L 338.430534 281.760122 
L 338.865728 281.748484 
L 339.300921 278.724798 
L 339.736115 278.764957 
L 340.171309 280.290071 
L 340.606503 275.269934 
L 341.041696 276.658067 
L 341.47689 276.20735 
L 341.912084 275.206976 
L 342.347278 279.226577 
L 342.782471 277.731609 
L 343.217665 278.299015 
L 343.652859 276.908415 
L 344.088053 276.23544 
L 344.523246 277.252916 
L 344.95844 276.553842 
L 345.393634 277.233152 
L 345.828828 276.634642 
L 346.264021 273.983541 
L 346.699215 274.080903 
L 347.134409 270.856078 
L 347.569603 273.08947 
L 348.004796 273.106066 
L 348.43999 271.283559 
L 348.875184 273.302045 
L 349.310378 274.525245 
L 349.745572 274.548239 
L 350.180765 274.017044 
L 350.615959 275.963108 
L 351.486347 272.899033 
L 351.92154 271.675002 
L 352.356734 273.974486 
L 352.791928 275.625189 
L 353.227122 279.436267 
L 353.662315 284.417742 
L 354.532703 274.088271 
L 354.967897 275.108931 
L 356.273478 274.235989 
L 356.708672 275.915529 
L 357.143865 275.453467 
L 357.579059 271.015485 
L 358.014253 270.862241 
L 358.449447 269.260253 
L 358.884641 274.321345 
L 359.319834 271.923588 
L 359.755028 272.746478 
L 360.190222 273.953735 
L 360.625416 271.699914 
L 361.060609 267.820782 
L 361.495803 274.986664 
L 361.930997 272.596355 
L 362.366191 275.251272 
L 362.801384 277.056201 
L 363.236578 270.067574 
L 363.671772 269.026358 
L 364.106966 270.936573 
L 364.542159 274.895885 
L 364.977353 276.849984 
L 365.412547 274.735898 
L 365.847741 275.049146 
L 366.282934 276.68097 
L 366.718128 274.668423 
L 367.153322 274.657824 
L 367.588516 274.765922 
L 368.023709 277.009827 
L 368.458903 271.8477 
L 368.894097 269.878693 
L 369.329291 272.141501 
L 369.764485 269.235881 
L 370.199678 271.144472 
L 370.634872 268.686545 
L 371.50526 270.683385 
L 371.940453 270.601151 
L 372.375647 271.538647 
L 372.810841 268.833465 
L 373.246035 268.352333 
L 373.681228 269.706941 
L 374.116422 269.076094 
L 374.551616 267.101876 
L 374.98681 268.541616 
L 375.422003 268.52273 
L 375.857197 272.689711 
L 376.292391 282.807674 
L 376.727585 277.310973 
L 377.162778 275.753861 
L 377.597972 270.796063 
L 378.033166 268.713959 
L 378.46836 273.561919 
L 378.903553 268.527717 
L 379.338747 267.535153 
L 379.773941 271.178456 
L 380.209135 270.019214 
L 380.644329 269.99082 
L 381.079522 268.171722 
L 381.514716 264.587378 
L 381.94991 270.881729 
L 382.385104 270.945457 
L 382.820297 258.129027 
L 383.255491 270.20592 
L 383.690685 269.09537 
L 384.125879 274.689736 
L 384.996266 269.263615 
L 385.43146 272.697022 
L 385.866654 272.654115 
L 386.301847 270.24399 
L 386.737041 270.376507 
L 387.172235 275.400855 
L 387.607429 268.395465 
L 388.042622 271.138745 
L 388.477816 275.606028 
L 388.91301 277.68151 
L 389.348204 274.899891 
L 389.783398 276.603137 
L 390.653785 276.189244 
L 391.088979 274.787402 
L 391.524173 272.866914 
L 391.959366 269.762675 
L 392.39456 268.394088 
L 392.829754 268.974131 
L 393.264948 268.166184 
L 393.700141 266.013253 
L 394.135335 270.506934 
L 394.570529 270.885 
L 395.005723 267.348505 
L 395.440916 266.779428 
L 395.87611 270.921125 
L 396.311304 266.569699 
L 396.746498 272.321493 
L 397.181691 266.85923 
L 397.616885 266.507819 
L 398.052079 268.744758 
L 398.487273 295.488 
L 398.487273 295.488 
" clip-path="url(#p126a120939)" style="fill: none; stroke: #2ca02c; stroke-width: 1.5; stroke-linecap: square"/>
   </g>
   <g id="patch_3">
    <path d="M 57.6 307.584 
L 57.6 41.472 
" style="fill: none; stroke: #000000; stroke-width: 0.8; stroke-linejoin: miter; stroke-linecap: square"/>
   </g>
   <g id="patch_4">
    <path d="M 414.72 307.584 
L 414.72 41.472 
" style="fill: none; stroke: #000000; stroke-width: 0.8; stroke-linejoin: miter; stroke-linecap: square"/>
   </g>
   <g id="patch_5">
    <path d="M 57.6 307.584 
L 414.72 307.584 
" style="fill: none; stroke: #000000; stroke-width: 0.8; stroke-linejoin: miter; stroke-linecap: square"/>
   </g>
   <g id="patch_6">
    <path d="M 57.6 41.472 
L 414.72 41.472 
" style="fill: none; stroke: #000000; stroke-width: 0.8; stroke-linejoin: miter; stroke-linecap: square"/>
   </g>
   <g id="legend_1">
    <g id="patch_7">
     <path d="M 64.6 93.506375 
L 186.25625 93.506375 
Q 188.25625 93.506375 188.25625 91.506375 
L 188.25625 48.472 
Q 188.25625 46.472 186.25625 46.472 
L 64.6 46.472 
Q 62.6 46.472 62.6 48.472 
L 62.6 91.506375 
Q 62.6 93.506375 64.6 93.506375 
z
" style="fill: #ffffff; opacity: 0.8; stroke: #cccccc; stroke-linejoin: miter"/>
    </g>
    <g id="line2d_17">
     <path d="M 66.6 54.570438 
L 76.6 54.570438 
L 86.6 54.570438 
" style="fill: none; stroke: #1f77b4; stroke-width: 1.5; stroke-linecap: square"/>
    </g>
    <g id="text_16">
     <!-- Weekly maximum -->
     <g transform="translate(94.6 58.070438) scale(0.1 -0.1)">
      <defs>
       <path id="DejaVuSans-57" d="M 213 4666 
L 850 4666 
L 1831 722 
L 2809 4666 
L 3519 4666 
L 4500 722 
L 5478 4666 
L 6119 4666 
L 4947 0 
L 4153 0 
L 3169 4050 
L 2175 0 
L 1381 0 
L 213 4666 
z
" transform="scale(0.015625)"/>
       <path id="DejaVuSans-6b" d="M 581 4863 
L 1159 4863 
L 1159 1991 
L 2875 3500 
L 3609 3500 
L 1753 1863 
L 3688 0 
L 2938 0 
L 1159 1709 
L 1159 0 
L 581 0 
L 581 4863 
z
" transform="scale(0.015625)"/>
       <path id="DejaVuSans-79" d="M 2059 -325 
Q 1816 -950 1584 -1140 
Q 1353 -1331 966 -1331 
L 506 -1331 
L 506 -850 
L 844 -850 
Q 1081 -850 1212 -737 
Q 1344 -625 1503 -206 
L 1606 56 
L 191 3500 
L 800 3500 
L 1894 763 
L 2988 3500 
L 3597 3500 
L 2059 -325 
z
" transform="scale(0.015625)"/>
       <path id="DejaVuSans-6d" d="M 3328 2828 
Q 3544 3216 3844 3400 
Q 4144 3584 4550 3584 
Q 5097 3584 5394 3201 
Q 5691 2819 5691 2113 
L 5691 0 
L 5113 0 
L 5113 2094 
Q 5113 2597 4934 2840 
Q 4756 3084 4391 3084 
Q 3944 3084 3684 2787 
Q 3425 2491 3425 1978 
L 3425 0 
L 2847 0 
L 2847 2094 
Q 2847 2600 2669 2842 
Q 2491 3084 2119 3084 
Q 1678 3084 1418 2786 
Q 1159 2488 1159 1978 
L 1159 0 
L 581 0 
L 581 3500 
L 1159 3500 
L 1159 2956 
Q 1356 3278 1631 3431 
Q 1906 3584 2284 3584 
Q 2666 3584 2933 3390 
Q 3200 3197 3328 2828 
z
" transform="scale(0.015625)"/>
       <path id="DejaVuSans-78" d="M 3513 3500 
L 2247 1797 
L 3578 0 
L 2900 0 
L 1881 1375 
L 863 0 
L 184 0 
L 1544 1831 
L 300 3500 
L 978 3500 
L 1906 2253 
L 2834 3500 
L 3513 3500 
z
" transform="scale(0.015625)"/>
       <path id="DejaVuSans-75" d="M 544 1381 
L 544 3500 
L 1119 3500 
L 1119 1403 
Q 1119 906 1312 657 
Q 1506 409 1894 409 
Q 2359 409 2629 706 
Q 2900 1003 2900 1516 
L 2900 3500 
L 3475 3500 
L 3475 0 
L 2900 0 
L 2900 538 
Q 2691 219 2414 64 
Q 2138 -91 1772 -91 
Q 1169 -91 856 284 
Q 544 659 544 1381 
z
M 1991 3584 
L 1991 3584 
z
" transform="scale(0.015625)"/>
      </defs>
      <use xlink:href="#DejaVuSans-57"/>
      <use xlink:href="#DejaVuSans-65" x="93.001953"/>
      <use xlink:href="#DejaVuSans-65" x="154.525391"/>
      <use xlink:href="#DejaVuSans-6b" x="216.048828"/>
      <use xlink:href="#DejaVuSans-6c" x="273.958984"/>
      <use xlink:href="#DejaVuSans-79" x="301.742188"/>
      <use xlink:href="#DejaVuSans-20" x="360.921875"/>
      <use xlink:href="#DejaVuSans-6d" x="392.708984"/>
      <use xlink:href="#DejaVuSans-61" x="490.121094"/>
      <use xlink:href="#DejaVuSans-78" x="551.400391"/>
      <use xlink:href="#DejaVuSans-69" x="610.580078"/>
      <use xlink:href="#DejaVuSans-6d" x="638.363281"/>
      <use xlink:href="#DejaVuSans-75" x="735.775391"/>
      <use xlink:href="#DejaVuSans-6d" x="799.154297"/>
     </g>
    </g>
    <g id="line2d_18">
     <path d="M 66.6 69.248563 
L 76.6 69.248563 
L 86.6 69.248563 
" style="fill: none; stroke: #ff7f0e; stroke-width: 1.5; stroke-linecap: square"/>
    </g>
    <g id="text_17">
     <!-- Weekly minimum -->
     <g transform="translate(94.6 72.748563) scale(0.1 -0.1)">
      <defs>
       <path id="DejaVuSans-6e" d="M 3513 2113 
L 3513 0 
L 2938 0 
L 2938 2094 
Q 2938 2591 2744 2837 
Q 2550 3084 2163 3084 
Q 1697 3084 1428 2787 
Q 1159 2491 1159 1978 
L 1159 0 
L 581 0 
L 581 3500 
L 1159 3500 
L 1159 2956 
Q 1366 3272 1645 3428 
Q 1925 3584 2291 3584 
Q 2894 3584 3203 3211 
Q 3513 2838 3513 2113 
z
" transform="scale(0.015625)"/>
      </defs>
      <use xlink:href="#DejaVuSans-57"/>
      <use xlink:href="#DejaVuSans-65" x="93.001953"/>
      <use xlink:href="#DejaVuSans-65" x="154.525391"/>
      <use xlink:href="#DejaVuSans-6b" x="216.048828"/>
      <use xlink:href="#DejaVuSans-6c" x="273.958984"/>
      <use xlink:href="#DejaVuSans-79" x="301.742188"/>
      <use xlink:href="#DejaVuSans-20" x="360.921875"/>
      <use xlink:href="#DejaVuSans-6d" x="392.708984"/>
      <use xlink:href="#DejaVuSans-69" x="490.121094"/>
      <use xlink:href="#DejaVuSans-6e" x="517.904297"/>
      <use xlink:href="#DejaVuSans-69" x="581.283203"/>
      <use xlink:href="#DejaVuSans-6d" x="609.066406"/>
      <use xlink:href="#DejaVuSans-75" x="706.478516"/>
      <use xlink:href="#DejaVuSans-6d" x="769.857422"/>
     </g>
    </g>
    <g id="line2d_19">
     <path d="M 66.6 83.926688 
L 76.6 83.926688 
L 86.6 83.926688 
" style="fill: none; stroke: #2ca02c; stroke-width: 1.5; stroke-linecap: square"/>
    </g>
    <g id="text_18">
     <!-- Weekly range -->
     <g transform="translate(94.6 87.426688) scale(0.1 -0.1)">
      <use xlink:href="#DejaVuSans-57"/>
      <use xlink:href="#DejaVuSans-65" x="93.001953"/>
      <use xlink:href="#DejaVuSans-65" x="154.525391"/>
      <use xlink:href="#DejaVuSans-6b" x="216.048828"/>
      <use xlink:href="#DejaVuSans-6c" x="273.958984"/>
      <use xlink:href="#DejaVuSans-79" x="301.742188"/>
      <use xlink:href="#DejaVuSans-20" x="360.921875"/>
      <use xlink:href="#DejaVuSans-72" x="392.708984"/>
      <use xlink:href="#DejaVuSans-61" x="433.822266"/>
      <use xlink:href="#DejaVuSans-6e" x="495.101562"/>
      <use xlink:href="#DejaVuSans-67" x="558.480469"/>
      <use xlink:href="#DejaVuSans-65" x="621.957031"/>
     </g>
    </g>
   </g>
  </g>
 </g>
 <defs>
  <clipPath id="p126a120939">
   <rect x="57.6" y="41.472" width="357.12" height="266.112"/>
  </clipPath>
 </defs>
</svg>
