<?xml version="1.0" encoding="utf-8" standalone="no"?>
<!DOCTYPE svg PUBLIC "-//W3C//DTD SVG 1.1//EN"
  "http://www.w3.org/Graphics/SVG/1.1/DTD/svg11.dtd">
<svg xmlns:xlink="http://www.w3.org/1999/xlink" width="460.8pt" height="345.6pt" viewBox="0 0 460.8 345.6" xmlns="http://www.w3.org/2000/svg" version="1.1">
 <metadata>
  <rdf:RDF xmlns:dc="http://purl.org/dc/elements/1.1/" xmlns:cc="http://creativecommons.org/ns#" xmlns:rdf="http://www.w3.org/1999/02/22-rdf-syntax-ns#">
   <cc:Work>
    <dc:type rdf:resource="http://purl.org/dc/dcmitype/StillImage"/>
    <dc:date>2023-06-27T05:34:16.498546</dc:date>
    <dc:format>image/svg+xml</dc:format>
    <dc:creator>
     <cc:Agent>
      <dc:title>Matplotlib v3.7.1, https://matplotlib.org/</dc:title>
     </cc:Agent>
    </dc:creator>
   </cc:Work>
  </rdf:RDF>
 </metadata>
 <defs>
  <style type="text/css">*{stroke-linejoin: round; stroke-linecap: butt}</style>
 </defs>
 <g id="figure_1">
  <g id="patch_1">
   <path d="M 0 345.6 
L 460.8 345.6 
L 460.8 0 
L 0 0 
z
" style="fill: #ffffff"/>
  </g>
  <g id="axes_1">
   <g id="patch_2">
    <path d="M 57.6 307.584 
L 414.72 307.584 
L 414.72 41.472 
L 57.6 41.472 
z
" style="fill: #ffffff"/>
   </g>
   <g id="matplotlib.axis_1">
    <g id="xtick_1">
     <g id="line2d_1">
      <defs>
       <path id="mc9cc5d9b73" d="M 0 0 
L 0 3.5 
" style="stroke: #000000; stroke-width: 0.8"/>
      </defs>
      <g>
       <use xlink:href="#mc9cc5d9b73" x="59.17401" y="307.584" style="stroke: #000000; stroke-width: 0.8"/>
      </g>
     </g>
     <g id="text_1">
      <!-- 2008 -->
      <g transform="translate(46.44901 322.182437) scale(0.1 -0.1)">
       <defs>
        <path id="DejaVuSans-32" d="M 1228 531 
L 3431 531 
L 3431 0 
L 469 0 
L 469 531 
Q 828 903 1448 1529 
Q 2069 2156 2228 2338 
Q 2531 2678 2651 2914 
Q 2772 3150 2772 3378 
Q 2772 3750 2511 3984 
Q 2250 4219 1831 4219 
Q 1534 4219 1204 4116 
Q 875 4013 500 3803 
L 500 4441 
Q 881 4594 1212 4672 
Q 1544 4750 1819 4750 
Q 2544 4750 2975 4387 
Q 3406 4025 3406 3419 
Q 3406 3131 3298 2873 
Q 3191 2616 2906 2266 
Q 2828 2175 2409 1742 
Q 1991 1309 1228 531 
z
" transform="scale(0.015625)"/>
        <path id="DejaVuSans-30" d="M 2034 4250 
Q 1547 4250 1301 3770 
Q 1056 3291 1056 2328 
Q 1056 1369 1301 889 
Q 1547 409 2034 409 
Q 2525 409 2770 889 
Q 3016 1369 3016 2328 
Q 3016 3291 2770 3770 
Q 2525 4250 2034 4250 
z
M 2034 4750 
Q 2819 4750 3233 4129 
Q 3647 3509 3647 2328 
Q 3647 1150 3233 529 
Q 2819 -91 2034 -91 
Q 1250 -91 836 529 
Q 422 1150 422 2328 
Q 422 3509 836 4129 
Q 1250 4750 2034 4750 
z
" transform="scale(0.015625)"/>
        <path id="DejaVuSans-38" d="M 2034 2216 
Q 1584 2216 1326 1975 
Q 1069 1734 1069 1313 
Q 1069 891 1326 650 
Q 1584 409 2034 409 
Q 2484 409 2743 651 
Q 3003 894 3003 1313 
Q 3003 1734 2745 1975 
Q 2488 2216 2034 2216 
z
M 1403 2484 
Q 997 2584 770 2862 
Q 544 3141 544 3541 
Q 544 4100 942 4425 
Q 1341 4750 2034 4750 
Q 2731 4750 3128 4425 
Q 3525 4100 3525 3541 
Q 3525 3141 3298 2862 
Q 3072 2584 2669 2484 
Q 3125 2378 3379 2068 
Q 3634 1759 3634 1313 
Q 3634 634 3220 271 
Q 2806 -91 2034 -91 
Q 1263 -91 848 271 
Q 434 634 434 1313 
Q 434 1759 690 2068 
Q 947 2378 1403 2484 
z
M 1172 3481 
Q 1172 3119 1398 2916 
Q 1625 2713 2034 2713 
Q 2441 2713 2670 2916 
Q 2900 3119 2900 3481 
Q 2900 3844 2670 4047 
Q 2441 4250 2034 4250 
Q 1625 4250 1398 4047 
Q 1172 3844 1172 3481 
z
" transform="scale(0.015625)"/>
       </defs>
       <use xlink:href="#DejaVuSans-32"/>
       <use xlink:href="#DejaVuSans-30" x="63.623047"/>
       <use xlink:href="#DejaVuSans-30" x="127.246094"/>
       <use xlink:href="#DejaVuSans-38" x="190.869141"/>
      </g>
     </g>
    </g>
    <g id="xtick_2">
     <g id="line2d_2">
      <g>
       <use xlink:href="#mc9cc5d9b73" x="103.090085" y="307.584" style="stroke: #000000; stroke-width: 0.8"/>
      </g>
     </g>
     <g id="text_2">
      <!-- 2010 -->
      <g transform="translate(90.365085 322.182437) scale(0.1 -0.1)">
       <defs>
        <path id="DejaVuSans-31" d="M 794 531 
L 1825 531 
L 1825 4091 
L 703 3866 
L 703 4441 
L 1819 4666 
L 2450 4666 
L 2450 531 
L 3481 531 
L 3481 0 
L 794 0 
L 794 531 
z
" transform="scale(0.015625)"/>
       </defs>
       <use xlink:href="#DejaVuSans-32"/>
       <use xlink:href="#DejaVuSans-30" x="63.623047"/>
       <use xlink:href="#DejaVuSans-31" x="127.246094"/>
       <use xlink:href="#DejaVuSans-30" x="190.869141"/>
      </g>
     </g>
    </g>
    <g id="xtick_3">
     <g id="line2d_3">
      <g>
       <use xlink:href="#mc9cc5d9b73" x="146.946084" y="307.584" style="stroke: #000000; stroke-width: 0.8"/>
      </g>
     </g>
     <g id="text_3">
      <!-- 2012 -->
      <g transform="translate(134.221084 322.182437) scale(0.1 -0.1)">
       <use xlink:href="#DejaVuSans-32"/>
       <use xlink:href="#DejaVuSans-30" x="63.623047"/>
       <use xlink:href="#DejaVuSans-31" x="127.246094"/>
       <use xlink:href="#DejaVuSans-32" x="190.869141"/>
      </g>
     </g>
    </g>
    <g id="xtick_4">
     <g id="line2d_4">
      <g>
       <use xlink:href="#mc9cc5d9b73" x="190.86216" y="307.584" style="stroke: #000000; stroke-width: 0.8"/>
      </g>
     </g>
     <g id="text_4">
      <!-- 2014 -->
      <g transform="translate(178.13716 322.182437) scale(0.1 -0.1)">
       <defs>
        <path id="DejaVuSans-34" d="M 2419 4116 
L 825 1625 
L 2419 1625 
L 2419 4116 
z
M 2253 4666 
L 3047 4666 
L 3047 1625 
L 3713 1625 
L 3713 1100 
L 3047 1100 
L 3047 0 
L 2419 0 
L 2419 1100 
L 313 1100 
L 313 1709 
L 2253 4666 
z
" transform="scale(0.015625)"/>
       </defs>
       <use xlink:href="#DejaVuSans-32"/>
       <use xlink:href="#DejaVuSans-30" x="63.623047"/>
       <use xlink:href="#DejaVuSans-31" x="127.246094"/>
       <use xlink:href="#DejaVuSans-34" x="190.869141"/>
      </g>
     </g>
    </g>
    <g id="xtick_5">
     <g id="line2d_5">
      <g>
       <use xlink:href="#mc9cc5d9b73" x="234.718159" y="307.584" style="stroke: #000000; stroke-width: 0.8"/>
      </g>
     </g>
     <g id="text_5">
      <!-- 2016 -->
      <g transform="translate(221.993159 322.182437) scale(0.1 -0.1)">
       <defs>
        <path id="DejaVuSans-36" d="M 2113 2584 
Q 1688 2584 1439 2293 
Q 1191 2003 1191 1497 
Q 1191 994 1439 701 
Q 1688 409 2113 409 
Q 2538 409 2786 701 
Q 3034 994 3034 1497 
Q 3034 2003 2786 2293 
Q 2538 2584 2113 2584 
z
M 3366 4563 
L 3366 3988 
Q 3128 4100 2886 4159 
Q 2644 4219 2406 4219 
Q 1781 4219 1451 3797 
Q 1122 3375 1075 2522 
Q 1259 2794 1537 2939 
Q 1816 3084 2150 3084 
Q 2853 3084 3261 2657 
Q 3669 2231 3669 1497 
Q 3669 778 3244 343 
Q 2819 -91 2113 -91 
Q 1303 -91 875 529 
Q 447 1150 447 2328 
Q 447 3434 972 4092 
Q 1497 4750 2381 4750 
Q 2619 4750 2861 4703 
Q 3103 4656 3366 4563 
z
" transform="scale(0.015625)"/>
       </defs>
       <use xlink:href="#DejaVuSans-32"/>
       <use xlink:href="#DejaVuSans-30" x="63.623047"/>
       <use xlink:href="#DejaVuSans-31" x="127.246094"/>
       <use xlink:href="#DejaVuSans-36" x="190.869141"/>
      </g>
     </g>
    </g>
    <g id="xtick_6">
     <g id="line2d_6">
      <g>
       <use xlink:href="#mc9cc5d9b73" x="278.634235" y="307.584" style="stroke: #000000; stroke-width: 0.8"/>
      </g>
     </g>
     <g id="text_6">
      <!-- 2018 -->
      <g transform="translate(265.909235 322.182437) scale(0.1 -0.1)">
       <use xlink:href="#DejaVuSans-32"/>
       <use xlink:href="#DejaVuSans-30" x="63.623047"/>
       <use xlink:href="#DejaVuSans-31" x="127.246094"/>
       <use xlink:href="#DejaVuSans-38" x="190.869141"/>
      </g>
     </g>
    </g>
    <g id="xtick_7">
     <g id="line2d_7">
      <g>
       <use xlink:href="#mc9cc5d9b73" x="322.490233" y="307.584" style="stroke: #000000; stroke-width: 0.8"/>
      </g>
     </g>
     <g id="text_7">
      <!-- 2020 -->
      <g transform="translate(309.765233 322.182437) scale(0.1 -0.1)">
       <use xlink:href="#DejaVuSans-32"/>
       <use xlink:href="#DejaVuSans-30" x="63.623047"/>
       <use xlink:href="#DejaVuSans-32" x="127.246094"/>
       <use xlink:href="#DejaVuSans-30" x="190.869141"/>
      </g>
     </g>
    </g>
    <g id="xtick_8">
     <g id="line2d_8">
      <g>
       <use xlink:href="#mc9cc5d9b73" x="366.406309" y="307.584" style="stroke: #000000; stroke-width: 0.8"/>
      </g>
     </g>
     <g id="text_8">
      <!-- 2022 -->
      <g transform="translate(353.681309 322.182437) scale(0.1 -0.1)">
       <use xlink:href="#DejaVuSans-32"/>
       <use xlink:href="#DejaVuSans-30" x="63.623047"/>
       <use xlink:href="#DejaVuSans-32" x="127.246094"/>
       <use xlink:href="#DejaVuSans-32" x="190.869141"/>
      </g>
     </g>
    </g>
    <g id="xtick_9">
     <g id="line2d_9">
      <g>
       <use xlink:href="#mc9cc5d9b73" x="410.262308" y="307.584" style="stroke: #000000; stroke-width: 0.8"/>
      </g>
     </g>
     <g id="text_9">
      <!-- 2024 -->
      <g transform="translate(397.537308 322.182437) scale(0.1 -0.1)">
       <use xlink:href="#DejaVuSans-32"/>
       <use xlink:href="#DejaVuSans-30" x="63.623047"/>
       <use xlink:href="#DejaVuSans-32" x="127.246094"/>
       <use xlink:href="#DejaVuSans-34" x="190.869141"/>
      </g>
     </g>
    </g>
    <g id="text_10">
     <!-- Updated 2023-06-27 05:34:16.496021 - Last record 2023-06-25 -->
     <g transform="translate(75.905312 335.860562) scale(0.1 -0.1)">
      <defs>
       <path id="DejaVuSans-55" d="M 556 4666 
L 1191 4666 
L 1191 1831 
Q 1191 1081 1462 751 
Q 1734 422 2344 422 
Q 2950 422 3222 751 
Q 3494 1081 3494 1831 
L 3494 4666 
L 4128 4666 
L 4128 1753 
Q 4128 841 3676 375 
Q 3225 -91 2344 -91 
Q 1459 -91 1007 375 
Q 556 841 556 1753 
L 556 4666 
z
" transform="scale(0.015625)"/>
       <path id="DejaVuSans-70" d="M 1159 525 
L 1159 -1331 
L 581 -1331 
L 581 3500 
L 1159 3500 
L 1159 2969 
Q 1341 3281 1617 3432 
Q 1894 3584 2278 3584 
Q 2916 3584 3314 3078 
Q 3713 2572 3713 1747 
Q 3713 922 3314 415 
Q 2916 -91 2278 -91 
Q 1894 -91 1617 61 
Q 1341 213 1159 525 
z
M 3116 1747 
Q 3116 2381 2855 2742 
Q 2594 3103 2138 3103 
Q 1681 3103 1420 2742 
Q 1159 2381 1159 1747 
Q 1159 1113 1420 752 
Q 1681 391 2138 391 
Q 2594 391 2855 752 
Q 3116 1113 3116 1747 
z
" transform="scale(0.015625)"/>
       <path id="DejaVuSans-64" d="M 2906 2969 
L 2906 4863 
L 3481 4863 
L 3481 0 
L 2906 0 
L 2906 525 
Q 2725 213 2448 61 
Q 2172 -91 1784 -91 
Q 1150 -91 751 415 
Q 353 922 353 1747 
Q 353 2572 751 3078 
Q 1150 3584 1784 3584 
Q 2172 3584 2448 3432 
Q 2725 3281 2906 2969 
z
M 947 1747 
Q 947 1113 1208 752 
Q 1469 391 1925 391 
Q 2381 391 2643 752 
Q 2906 1113 2906 1747 
Q 2906 2381 2643 2742 
Q 2381 3103 1925 3103 
Q 1469 3103 1208 2742 
Q 947 2381 947 1747 
z
" transform="scale(0.015625)"/>
       <path id="DejaVuSans-61" d="M 2194 1759 
Q 1497 1759 1228 1600 
Q 959 1441 959 1056 
Q 959 750 1161 570 
Q 1363 391 1709 391 
Q 2188 391 2477 730 
Q 2766 1069 2766 1631 
L 2766 1759 
L 2194 1759 
z
M 3341 1997 
L 3341 0 
L 2766 0 
L 2766 531 
Q 2569 213 2275 61 
Q 1981 -91 1556 -91 
Q 1019 -91 701 211 
Q 384 513 384 1019 
Q 384 1609 779 1909 
Q 1175 2209 1959 2209 
L 2766 2209 
L 2766 2266 
Q 2766 2663 2505 2880 
Q 2244 3097 1772 3097 
Q 1472 3097 1187 3025 
Q 903 2953 641 2809 
L 641 3341 
Q 956 3463 1253 3523 
Q 1550 3584 1831 3584 
Q 2591 3584 2966 3190 
Q 3341 2797 3341 1997 
z
" transform="scale(0.015625)"/>
       <path id="DejaVuSans-74" d="M 1172 4494 
L 1172 3500 
L 2356 3500 
L 2356 3053 
L 1172 3053 
L 1172 1153 
Q 1172 725 1289 603 
Q 1406 481 1766 481 
L 2356 481 
L 2356 0 
L 1766 0 
Q 1100 0 847 248 
Q 594 497 594 1153 
L 594 3053 
L 172 3053 
L 172 3500 
L 594 3500 
L 594 4494 
L 1172 4494 
z
" transform="scale(0.015625)"/>
       <path id="DejaVuSans-65" d="M 3597 1894 
L 3597 1613 
L 953 1613 
Q 991 1019 1311 708 
Q 1631 397 2203 397 
Q 2534 397 2845 478 
Q 3156 559 3463 722 
L 3463 178 
Q 3153 47 2828 -22 
Q 2503 -91 2169 -91 
Q 1331 -91 842 396 
Q 353 884 353 1716 
Q 353 2575 817 3079 
Q 1281 3584 2069 3584 
Q 2775 3584 3186 3129 
Q 3597 2675 3597 1894 
z
M 3022 2063 
Q 3016 2534 2758 2815 
Q 2500 3097 2075 3097 
Q 1594 3097 1305 2825 
Q 1016 2553 972 2059 
L 3022 2063 
z
" transform="scale(0.015625)"/>
       <path id="DejaVuSans-20" transform="scale(0.015625)"/>
       <path id="DejaVuSans-33" d="M 2597 2516 
Q 3050 2419 3304 2112 
Q 3559 1806 3559 1356 
Q 3559 666 3084 287 
Q 2609 -91 1734 -91 
Q 1441 -91 1130 -33 
Q 819 25 488 141 
L 488 750 
Q 750 597 1062 519 
Q 1375 441 1716 441 
Q 2309 441 2620 675 
Q 2931 909 2931 1356 
Q 2931 1769 2642 2001 
Q 2353 2234 1838 2234 
L 1294 2234 
L 1294 2753 
L 1863 2753 
Q 2328 2753 2575 2939 
Q 2822 3125 2822 3475 
Q 2822 3834 2567 4026 
Q 2313 4219 1838 4219 
Q 1578 4219 1281 4162 
Q 984 4106 628 3988 
L 628 4550 
Q 988 4650 1302 4700 
Q 1616 4750 1894 4750 
Q 2613 4750 3031 4423 
Q 3450 4097 3450 3541 
Q 3450 3153 3228 2886 
Q 3006 2619 2597 2516 
z
" transform="scale(0.015625)"/>
       <path id="DejaVuSans-2d" d="M 313 2009 
L 1997 2009 
L 1997 1497 
L 313 1497 
L 313 2009 
z
" transform="scale(0.015625)"/>
       <path id="DejaVuSans-37" d="M 525 4666 
L 3525 4666 
L 3525 4397 
L 1831 0 
L 1172 0 
L 2766 4134 
L 525 4134 
L 525 4666 
z
" transform="scale(0.015625)"/>
       <path id="DejaVuSans-35" d="M 691 4666 
L 3169 4666 
L 3169 4134 
L 1269 4134 
L 1269 2991 
Q 1406 3038 1543 3061 
Q 1681 3084 1819 3084 
Q 2600 3084 3056 2656 
Q 3513 2228 3513 1497 
Q 3513 744 3044 326 
Q 2575 -91 1722 -91 
Q 1428 -91 1123 -41 
Q 819 9 494 109 
L 494 744 
Q 775 591 1075 516 
Q 1375 441 1709 441 
Q 2250 441 2565 725 
Q 2881 1009 2881 1497 
Q 2881 1984 2565 2268 
Q 2250 2553 1709 2553 
Q 1456 2553 1204 2497 
Q 953 2441 691 2322 
L 691 4666 
z
" transform="scale(0.015625)"/>
       <path id="DejaVuSans-3a" d="M 750 794 
L 1409 794 
L 1409 0 
L 750 0 
L 750 794 
z
M 750 3309 
L 1409 3309 
L 1409 2516 
L 750 2516 
L 750 3309 
z
" transform="scale(0.015625)"/>
       <path id="DejaVuSans-2e" d="M 684 794 
L 1344 794 
L 1344 0 
L 684 0 
L 684 794 
z
" transform="scale(0.015625)"/>
       <path id="DejaVuSans-39" d="M 703 97 
L 703 672 
Q 941 559 1184 500 
Q 1428 441 1663 441 
Q 2288 441 2617 861 
Q 2947 1281 2994 2138 
Q 2813 1869 2534 1725 
Q 2256 1581 1919 1581 
Q 1219 1581 811 2004 
Q 403 2428 403 3163 
Q 403 3881 828 4315 
Q 1253 4750 1959 4750 
Q 2769 4750 3195 4129 
Q 3622 3509 3622 2328 
Q 3622 1225 3098 567 
Q 2575 -91 1691 -91 
Q 1453 -91 1209 -44 
Q 966 3 703 97 
z
M 1959 2075 
Q 2384 2075 2632 2365 
Q 2881 2656 2881 3163 
Q 2881 3666 2632 3958 
Q 2384 4250 1959 4250 
Q 1534 4250 1286 3958 
Q 1038 3666 1038 3163 
Q 1038 2656 1286 2365 
Q 1534 2075 1959 2075 
z
" transform="scale(0.015625)"/>
       <path id="DejaVuSans-4c" d="M 628 4666 
L 1259 4666 
L 1259 531 
L 3531 531 
L 3531 0 
L 628 0 
L 628 4666 
z
" transform="scale(0.015625)"/>
       <path id="DejaVuSans-73" d="M 2834 3397 
L 2834 2853 
Q 2591 2978 2328 3040 
Q 2066 3103 1784 3103 
Q 1356 3103 1142 2972 
Q 928 2841 928 2578 
Q 928 2378 1081 2264 
Q 1234 2150 1697 2047 
L 1894 2003 
Q 2506 1872 2764 1633 
Q 3022 1394 3022 966 
Q 3022 478 2636 193 
Q 2250 -91 1575 -91 
Q 1294 -91 989 -36 
Q 684 19 347 128 
L 347 722 
Q 666 556 975 473 
Q 1284 391 1588 391 
Q 1994 391 2212 530 
Q 2431 669 2431 922 
Q 2431 1156 2273 1281 
Q 2116 1406 1581 1522 
L 1381 1569 
Q 847 1681 609 1914 
Q 372 2147 372 2553 
Q 372 3047 722 3315 
Q 1072 3584 1716 3584 
Q 2034 3584 2315 3537 
Q 2597 3491 2834 3397 
z
" transform="scale(0.015625)"/>
       <path id="DejaVuSans-72" d="M 2631 2963 
Q 2534 3019 2420 3045 
Q 2306 3072 2169 3072 
Q 1681 3072 1420 2755 
Q 1159 2438 1159 1844 
L 1159 0 
L 581 0 
L 581 3500 
L 1159 3500 
L 1159 2956 
Q 1341 3275 1631 3429 
Q 1922 3584 2338 3584 
Q 2397 3584 2469 3576 
Q 2541 3569 2628 3553 
L 2631 2963 
z
" transform="scale(0.015625)"/>
       <path id="DejaVuSans-63" d="M 3122 3366 
L 3122 2828 
Q 2878 2963 2633 3030 
Q 2388 3097 2138 3097 
Q 1578 3097 1268 2742 
Q 959 2388 959 1747 
Q 959 1106 1268 751 
Q 1578 397 2138 397 
Q 2388 397 2633 464 
Q 2878 531 3122 666 
L 3122 134 
Q 2881 22 2623 -34 
Q 2366 -91 2075 -91 
Q 1284 -91 818 406 
Q 353 903 353 1747 
Q 353 2603 823 3093 
Q 1294 3584 2113 3584 
Q 2378 3584 2631 3529 
Q 2884 3475 3122 3366 
z
" transform="scale(0.015625)"/>
       <path id="DejaVuSans-6f" d="M 1959 3097 
Q 1497 3097 1228 2736 
Q 959 2375 959 1747 
Q 959 1119 1226 758 
Q 1494 397 1959 397 
Q 2419 397 2687 759 
Q 2956 1122 2956 1747 
Q 2956 2369 2687 2733 
Q 2419 3097 1959 3097 
z
M 1959 3584 
Q 2709 3584 3137 3096 
Q 3566 2609 3566 1747 
Q 3566 888 3137 398 
Q 2709 -91 1959 -91 
Q 1206 -91 779 398 
Q 353 888 353 1747 
Q 353 2609 779 3096 
Q 1206 3584 1959 3584 
z
" transform="scale(0.015625)"/>
      </defs>
      <use xlink:href="#DejaVuSans-55"/>
      <use xlink:href="#DejaVuSans-70" x="73.193359"/>
      <use xlink:href="#DejaVuSans-64" x="136.669922"/>
      <use xlink:href="#DejaVuSans-61" x="200.146484"/>
      <use xlink:href="#DejaVuSans-74" x="261.425781"/>
      <use xlink:href="#DejaVuSans-65" x="300.634766"/>
      <use xlink:href="#DejaVuSans-64" x="362.158203"/>
      <use xlink:href="#DejaVuSans-20" x="425.634766"/>
      <use xlink:href="#DejaVuSans-32" x="457.421875"/>
      <use xlink:href="#DejaVuSans-30" x="521.044922"/>
      <use xlink:href="#DejaVuSans-32" x="584.667969"/>
      <use xlink:href="#DejaVuSans-33" x="648.291016"/>
      <use xlink:href="#DejaVuSans-2d" x="711.914062"/>
      <use xlink:href="#DejaVuSans-30" x="747.998047"/>
      <use xlink:href="#DejaVuSans-36" x="811.621094"/>
      <use xlink:href="#DejaVuSans-2d" x="875.244141"/>
      <use xlink:href="#DejaVuSans-32" x="911.328125"/>
      <use xlink:href="#DejaVuSans-37" x="974.951172"/>
      <use xlink:href="#DejaVuSans-20" x="1038.574219"/>
      <use xlink:href="#DejaVuSans-30" x="1070.361328"/>
      <use xlink:href="#DejaVuSans-35" x="1133.984375"/>
      <use xlink:href="#DejaVuSans-3a" x="1197.607422"/>
      <use xlink:href="#DejaVuSans-33" x="1231.298828"/>
      <use xlink:href="#DejaVuSans-34" x="1294.921875"/>
      <use xlink:href="#DejaVuSans-3a" x="1358.544922"/>
      <use xlink:href="#DejaVuSans-31" x="1392.236328"/>
      <use xlink:href="#DejaVuSans-36" x="1455.859375"/>
      <use xlink:href="#DejaVuSans-2e" x="1519.482422"/>
      <use xlink:href="#DejaVuSans-34" x="1551.269531"/>
      <use xlink:href="#DejaVuSans-39" x="1614.892578"/>
      <use xlink:href="#DejaVuSans-36" x="1678.515625"/>
      <use xlink:href="#DejaVuSans-30" x="1742.138672"/>
      <use xlink:href="#DejaVuSans-32" x="1805.761719"/>
      <use xlink:href="#DejaVuSans-31" x="1869.384766"/>
      <use xlink:href="#DejaVuSans-20" x="1933.007812"/>
      <use xlink:href="#DejaVuSans-2d" x="1964.794922"/>
      <use xlink:href="#DejaVuSans-20" x="2000.878906"/>
      <use xlink:href="#DejaVuSans-4c" x="2032.666016"/>
      <use xlink:href="#DejaVuSans-61" x="2088.378906"/>
      <use xlink:href="#DejaVuSans-73" x="2149.658203"/>
      <use xlink:href="#DejaVuSans-74" x="2201.757812"/>
      <use xlink:href="#DejaVuSans-20" x="2240.966797"/>
      <use xlink:href="#DejaVuSans-72" x="2272.753906"/>
      <use xlink:href="#DejaVuSans-65" x="2311.617188"/>
      <use xlink:href="#DejaVuSans-63" x="2373.140625"/>
      <use xlink:href="#DejaVuSans-6f" x="2428.121094"/>
      <use xlink:href="#DejaVuSans-72" x="2489.302734"/>
      <use xlink:href="#DejaVuSans-64" x="2528.666016"/>
      <use xlink:href="#DejaVuSans-20" x="2592.142578"/>
      <use xlink:href="#DejaVuSans-32" x="2623.929688"/>
      <use xlink:href="#DejaVuSans-30" x="2687.552734"/>
      <use xlink:href="#DejaVuSans-32" x="2751.175781"/>
      <use xlink:href="#DejaVuSans-33" x="2814.798828"/>
      <use xlink:href="#DejaVuSans-2d" x="2878.421875"/>
      <use xlink:href="#DejaVuSans-30" x="2914.505859"/>
      <use xlink:href="#DejaVuSans-36" x="2978.128906"/>
      <use xlink:href="#DejaVuSans-2d" x="3041.751953"/>
      <use xlink:href="#DejaVuSans-32" x="3077.835938"/>
      <use xlink:href="#DejaVuSans-35" x="3141.458984"/>
     </g>
    </g>
   </g>
   <g id="matplotlib.axis_2">
    <g id="ytick_1">
     <g id="line2d_10">
      <defs>
       <path id="m45243ac395" d="M 0 0 
L -3.5 0 
" style="stroke: #000000; stroke-width: 0.8"/>
      </defs>
      <g>
       <use xlink:href="#m45243ac395" x="57.6" y="295.564326" style="stroke: #000000; stroke-width: 0.8"/>
      </g>
     </g>
     <g id="text_11">
      <!-- 0 -->
      <g transform="translate(44.2375 299.363545) scale(0.1 -0.1)">
       <use xlink:href="#DejaVuSans-30"/>
      </g>
     </g>
    </g>
    <g id="ytick_2">
     <g id="line2d_11">
      <g>
       <use xlink:href="#m45243ac395" x="57.6" y="240.653514" style="stroke: #000000; stroke-width: 0.8"/>
      </g>
     </g>
     <g id="text_12">
      <!-- 10 -->
      <g transform="translate(37.875 244.452733) scale(0.1 -0.1)">
       <use xlink:href="#DejaVuSans-31"/>
       <use xlink:href="#DejaVuSans-30" x="63.623047"/>
      </g>
     </g>
    </g>
    <g id="ytick_3">
     <g id="line2d_12">
      <g>
       <use xlink:href="#m45243ac395" x="57.6" y="185.742702" style="stroke: #000000; stroke-width: 0.8"/>
      </g>
     </g>
     <g id="text_13">
      <!-- 20 -->
      <g transform="translate(37.875 189.54192) scale(0.1 -0.1)">
       <use xlink:href="#DejaVuSans-32"/>
       <use xlink:href="#DejaVuSans-30" x="63.623047"/>
      </g>
     </g>
    </g>
    <g id="ytick_4">
     <g id="line2d_13">
      <g>
       <use xlink:href="#m45243ac395" x="57.6" y="130.831889" style="stroke: #000000; stroke-width: 0.8"/>
      </g>
     </g>
     <g id="text_14">
      <!-- 30 -->
      <g transform="translate(37.875 134.631108) scale(0.1 -0.1)">
       <use xlink:href="#DejaVuSans-33"/>
       <use xlink:href="#DejaVuSans-30" x="63.623047"/>
      </g>
     </g>
    </g>
    <g id="ytick_5">
     <g id="line2d_14">
      <g>
       <use xlink:href="#m45243ac395" x="57.6" y="75.921077" style="stroke: #000000; stroke-width: 0.8"/>
      </g>
     </g>
     <g id="text_15">
      <!-- 40 -->
      <g transform="translate(37.875 79.720296) scale(0.1 -0.1)">
       <use xlink:href="#DejaVuSans-34"/>
       <use xlink:href="#DejaVuSans-30" x="63.623047"/>
      </g>
     </g>
    </g>
    <g id="text_16">
     <!-- IPv6 as % of total Google traffic -->
     <g transform="translate(31.795312 253.735813) rotate(-90) scale(0.1 -0.1)">
      <defs>
       <path id="DejaVuSans-49" d="M 628 4666 
L 1259 4666 
L 1259 0 
L 628 0 
L 628 4666 
z
" transform="scale(0.015625)"/>
       <path id="DejaVuSans-50" d="M 1259 4147 
L 1259 2394 
L 2053 2394 
Q 2494 2394 2734 2622 
Q 2975 2850 2975 3272 
Q 2975 3691 2734 3919 
Q 2494 4147 2053 4147 
L 1259 4147 
z
M 628 4666 
L 2053 4666 
Q 2838 4666 3239 4311 
Q 3641 3956 3641 3272 
Q 3641 2581 3239 2228 
Q 2838 1875 2053 1875 
L 1259 1875 
L 1259 0 
L 628 0 
L 628 4666 
z
" transform="scale(0.015625)"/>
       <path id="DejaVuSans-76" d="M 191 3500 
L 800 3500 
L 1894 563 
L 2988 3500 
L 3597 3500 
L 2284 0 
L 1503 0 
L 191 3500 
z
" transform="scale(0.015625)"/>
       <path id="DejaVuSans-25" d="M 4653 2053 
Q 4381 2053 4226 1822 
Q 4072 1591 4072 1178 
Q 4072 772 4226 539 
Q 4381 306 4653 306 
Q 4919 306 5073 539 
Q 5228 772 5228 1178 
Q 5228 1588 5073 1820 
Q 4919 2053 4653 2053 
z
M 4653 2450 
Q 5147 2450 5437 2106 
Q 5728 1763 5728 1178 
Q 5728 594 5436 251 
Q 5144 -91 4653 -91 
Q 4153 -91 3862 251 
Q 3572 594 3572 1178 
Q 3572 1766 3864 2108 
Q 4156 2450 4653 2450 
z
M 1428 4353 
Q 1159 4353 1004 4120 
Q 850 3888 850 3481 
Q 850 3069 1003 2837 
Q 1156 2606 1428 2606 
Q 1700 2606 1854 2837 
Q 2009 3069 2009 3481 
Q 2009 3884 1853 4118 
Q 1697 4353 1428 4353 
z
M 4250 4750 
L 4750 4750 
L 1831 -91 
L 1331 -91 
L 4250 4750 
z
M 1428 4750 
Q 1922 4750 2215 4408 
Q 2509 4066 2509 3481 
Q 2509 2891 2217 2550 
Q 1925 2209 1428 2209 
Q 931 2209 642 2551 
Q 353 2894 353 3481 
Q 353 4063 643 4406 
Q 934 4750 1428 4750 
z
" transform="scale(0.015625)"/>
       <path id="DejaVuSans-66" d="M 2375 4863 
L 2375 4384 
L 1825 4384 
Q 1516 4384 1395 4259 
Q 1275 4134 1275 3809 
L 1275 3500 
L 2222 3500 
L 2222 3053 
L 1275 3053 
L 1275 0 
L 697 0 
L 697 3053 
L 147 3053 
L 147 3500 
L 697 3500 
L 697 3744 
Q 697 4328 969 4595 
Q 1241 4863 1831 4863 
L 2375 4863 
z
" transform="scale(0.015625)"/>
       <path id="DejaVuSans-6c" d="M 603 4863 
L 1178 4863 
L 1178 0 
L 603 0 
L 603 4863 
z
" transform="scale(0.015625)"/>
       <path id="DejaVuSans-47" d="M 3809 666 
L 3809 1919 
L 2778 1919 
L 2778 2438 
L 4434 2438 
L 4434 434 
Q 4069 175 3628 42 
Q 3188 -91 2688 -91 
Q 1594 -91 976 548 
Q 359 1188 359 2328 
Q 359 3472 976 4111 
Q 1594 4750 2688 4750 
Q 3144 4750 3555 4637 
Q 3966 4525 4313 4306 
L 4313 3634 
Q 3963 3931 3569 4081 
Q 3175 4231 2741 4231 
Q 1884 4231 1454 3753 
Q 1025 3275 1025 2328 
Q 1025 1384 1454 906 
Q 1884 428 2741 428 
Q 3075 428 3337 486 
Q 3600 544 3809 666 
z
" transform="scale(0.015625)"/>
       <path id="DejaVuSans-67" d="M 2906 1791 
Q 2906 2416 2648 2759 
Q 2391 3103 1925 3103 
Q 1463 3103 1205 2759 
Q 947 2416 947 1791 
Q 947 1169 1205 825 
Q 1463 481 1925 481 
Q 2391 481 2648 825 
Q 2906 1169 2906 1791 
z
M 3481 434 
Q 3481 -459 3084 -895 
Q 2688 -1331 1869 -1331 
Q 1566 -1331 1297 -1286 
Q 1028 -1241 775 -1147 
L 775 -588 
Q 1028 -725 1275 -790 
Q 1522 -856 1778 -856 
Q 2344 -856 2625 -561 
Q 2906 -266 2906 331 
L 2906 616 
Q 2728 306 2450 153 
Q 2172 0 1784 0 
Q 1141 0 747 490 
Q 353 981 353 1791 
Q 353 2603 747 3093 
Q 1141 3584 1784 3584 
Q 2172 3584 2450 3431 
Q 2728 3278 2906 2969 
L 2906 3500 
L 3481 3500 
L 3481 434 
z
" transform="scale(0.015625)"/>
       <path id="DejaVuSans-69" d="M 603 3500 
L 1178 3500 
L 1178 0 
L 603 0 
L 603 3500 
z
M 603 4863 
L 1178 4863 
L 1178 4134 
L 603 4134 
L 603 4863 
z
" transform="scale(0.015625)"/>
      </defs>
      <use xlink:href="#DejaVuSans-49"/>
      <use xlink:href="#DejaVuSans-50" x="29.492188"/>
      <use xlink:href="#DejaVuSans-76" x="89.794922"/>
      <use xlink:href="#DejaVuSans-36" x="148.974609"/>
      <use xlink:href="#DejaVuSans-20" x="212.597656"/>
      <use xlink:href="#DejaVuSans-61" x="244.384766"/>
      <use xlink:href="#DejaVuSans-73" x="305.664062"/>
      <use xlink:href="#DejaVuSans-20" x="357.763672"/>
      <use xlink:href="#DejaVuSans-25" x="389.550781"/>
      <use xlink:href="#DejaVuSans-20" x="484.570312"/>
      <use xlink:href="#DejaVuSans-6f" x="516.357422"/>
      <use xlink:href="#DejaVuSans-66" x="577.539062"/>
      <use xlink:href="#DejaVuSans-20" x="612.744141"/>
      <use xlink:href="#DejaVuSans-74" x="644.53125"/>
      <use xlink:href="#DejaVuSans-6f" x="683.740234"/>
      <use xlink:href="#DejaVuSans-74" x="744.921875"/>
      <use xlink:href="#DejaVuSans-61" x="784.130859"/>
      <use xlink:href="#DejaVuSans-6c" x="845.410156"/>
      <use xlink:href="#DejaVuSans-20" x="873.193359"/>
      <use xlink:href="#DejaVuSans-47" x="904.980469"/>
      <use xlink:href="#DejaVuSans-6f" x="982.470703"/>
      <use xlink:href="#DejaVuSans-6f" x="1043.652344"/>
      <use xlink:href="#DejaVuSans-67" x="1104.833984"/>
      <use xlink:href="#DejaVuSans-6c" x="1168.310547"/>
      <use xlink:href="#DejaVuSans-65" x="1196.09375"/>
      <use xlink:href="#DejaVuSans-20" x="1257.617188"/>
      <use xlink:href="#DejaVuSans-74" x="1289.404297"/>
      <use xlink:href="#DejaVuSans-72" x="1328.613281"/>
      <use xlink:href="#DejaVuSans-61" x="1369.726562"/>
      <use xlink:href="#DejaVuSans-66" x="1431.005859"/>
      <use xlink:href="#DejaVuSans-66" x="1466.210938"/>
      <use xlink:href="#DejaVuSans-69" x="1501.416016"/>
      <use xlink:href="#DejaVuSans-63" x="1529.199219"/>
     </g>
    </g>
   </g>
   <g id="line2d_15">
    <path d="M 73.832727 294.563889 
L 75.514875 294.39433 
L 75.935412 294.55579 
L 77.61756 294.555082 
L 79.299708 294.407904 
L 79.720245 294.277755 
L 80.981856 294.299346 
L 82.243467 294.267981 
L 82.664004 294.341259 
L 84.346152 294.191523 
L 86.0283 294.249959 
L 87.710447 294.172436 
L 91.074743 294.239652 
L 91.49528 294.34529 
L 93.597965 294.319624 
L 94.859576 294.269205 
L 96.541724 294.170646 
L 97.382798 294.179646 
L 97.803335 293.912318 
L 100.326557 293.820617 
L 101.167631 293.78543 
L 103.270316 293.870536 
L 105.373 293.922372 
L 107.475685 293.888734 
L 108.737296 294.08348 
L 109.998907 294.029657 
L 110.419444 294.015671 
L 111.260518 294.205003 
L 113.363203 294.222306 
L 114.624814 294.341221 
L 116.727499 294.252128 
L 117.568573 294.144223 
L 117.98911 294.055278 
L 118.830184 294.050896 
L 121.773943 293.986266 
L 122.615016 294.0794 
L 123.035553 293.948213 
L 125.558775 294.191545 
L 128.923071 294.016247 
L 129.343608 294.022112 
L 129.764145 293.897245 
L 130.605219 294.001691 
L 131.446293 293.807822 
L 131.86683 293.856018 
L 132.287367 293.736999 
L 132.707904 293.789109 
L 133.548978 293.678359 
L 134.810589 293.662594 
L 135.231126 293.79924 
L 136.913274 293.830105 
L 137.333811 293.894109 
L 138.174885 293.805972 
L 138.595422 293.625678 
L 140.277569 293.526943 
L 140.698106 293.625293 
L 144.482939 293.300408 
L 145.324013 293.09966 
L 146.165087 293.251307 
L 148.688309 292.855718 
L 150.790994 292.713818 
L 151.211531 292.503822 
L 151.632068 292.584745 
L 152.052605 292.398855 
L 154.575827 292.014067 
L 156.678512 291.520271 
L 157.940122 291.393328 
L 158.360659 291.497022 
L 160.463344 291.107001 
L 161.724955 290.721637 
L 162.145492 290.779941 
L 162.566029 290.433992 
L 162.986566 290.267113 
L 164.668714 290.065898 
L 165.089251 290.228165 
L 165.509788 290.070389 
L 166.350862 289.983575 
L 166.771399 289.731233 
L 167.612473 289.562854 
L 169.294621 289.545316 
L 170.135695 289.330214 
L 171.397306 289.171719 
L 171.817843 288.964491 
L 172.23838 288.944504 
L 172.658917 289.051657 
L 174.341065 288.276947 
L 174.761602 288.294695 
L 176.443749 287.807548 
L 176.864286 287.481081 
L 177.284823 287.406177 
L 177.70536 287.204144 
L 178.125897 287.237046 
L 179.387508 286.740933 
L 179.808045 286.828658 
L 180.228582 286.584464 
L 180.649119 286.541546 
L 182.751804 285.394322 
L 183.592878 285.045062 
L 184.433952 284.433377 
L 185.695563 282.921617 
L 186.1161 283.162406 
L 186.536637 283.204061 
L 187.798248 281.767825 
L 188.218785 281.595608 
L 188.639322 280.869649 
L 189.480396 280.643191 
L 190.32147 280.159982 
L 190.742007 280.21034 
L 192.003618 279.417588 
L 192.424154 279.249209 
L 192.844691 278.937821 
L 193.685765 278.864037 
L 194.106302 278.158631 
L 194.526839 278.149334 
L 194.947376 277.373791 
L 195.367913 276.97214 
L 196.208987 277.08742 
L 196.629524 276.80028 
L 197.050061 276.357968 
L 197.891135 275.84308 
L 198.311672 275.382785 
L 198.732209 275.664994 
L 200.414357 274.761881 
L 200.834894 274.427952 
L 201.255431 273.055714 
L 201.675968 273.316019 
L 202.517042 272.384204 
L 202.937579 272.344196 
L 203.358116 272.747028 
L 204.619727 271.830423 
L 205.040264 271.208591 
L 205.881338 271.256534 
L 206.301875 270.583695 
L 206.722412 270.537384 
L 207.142949 266.972832 
L 207.563486 269.318122 
L 207.984023 270.715251 
L 208.40456 270.036372 
L 208.825097 269.656998 
L 209.245634 269.595861 
L 209.666171 268.702994 
L 210.086707 268.423224 
L 211.348318 266.485284 
L 211.768855 265.219925 
L 212.189392 264.497694 
L 212.609929 263.517157 
L 213.030466 262.869769 
L 213.451003 263.903674 
L 213.87154 263.745449 
L 214.292077 263.774074 
L 214.712614 263.941096 
L 215.133151 264.252967 
L 215.553688 264.133981 
L 215.974225 261.853848 
L 216.394762 262.19111 
L 217.656373 260.989629 
L 218.07691 260.827916 
L 218.917984 260.899015 
L 219.338521 259.17543 
L 219.759058 259.112656 
L 220.600132 257.752444 
L 221.020669 258.216193 
L 221.441206 256.093171 
L 221.861743 256.594979 
L 222.28228 255.161812 
L 222.702817 254.475537 
L 223.123354 253.44507 
L 223.543891 254.160668 
L 223.964428 253.076679 
L 224.384965 251.273331 
L 224.805502 252.18205 
L 225.226039 252.441103 
L 225.646576 251.881331 
L 226.067113 250.232414 
L 226.48765 250.690452 
L 226.908187 249.234624 
L 227.328724 249.569986 
L 228.169797 247.606464 
L 228.590334 246.611793 
L 229.851945 246.299504 
L 230.272482 245.150967 
L 230.693019 245.290732 
L 231.113556 244.85988 
L 231.534093 243.721551 
L 231.95463 243.432638 
L 232.375167 242.159827 
L 232.795704 241.287272 
L 233.216241 241.133495 
L 233.636778 241.348267 
L 234.057315 240.79307 
L 234.477852 238.427951 
L 235.318926 239.815251 
L 235.739463 239.548758 
L 236.580537 239.468901 
L 237.001074 239.515888 
L 237.842148 239.230528 
L 238.262685 237.89983 
L 238.683222 237.836836 
L 239.103759 236.656709 
L 239.524296 236.653393 
L 239.944833 236.47412 
L 241.206444 233.098857 
L 241.626981 231.110866 
L 242.047518 232.468464 
L 242.468055 231.89944 
L 242.888592 230.723278 
L 243.309129 230.985082 
L 243.729666 228.473999 
L 244.150203 228.842407 
L 244.57074 228.534505 
L 244.991276 226.782362 
L 245.411813 226.765779 
L 245.83235 225.459747 
L 246.252887 225.774216 
L 246.673424 224.741211 
L 247.093961 224.192449 
L 247.514498 224.483987 
L 247.935035 223.776654 
L 248.355572 222.673171 
L 248.776109 223.025924 
L 249.196646 222.502575 
L 249.617183 220.766037 
L 250.03772 220.039841 
L 250.458257 220.107771 
L 250.878794 218.077054 
L 251.299331 218.438181 
L 252.140405 216.019497 
L 252.560942 213.605947 
L 252.981479 213.844496 
L 253.822553 212.487342 
L 254.24309 210.966686 
L 254.663627 211.169977 
L 255.084164 210.532687 
L 255.504701 208.128297 
L 255.925238 207.284707 
L 256.345775 203.298336 
L 256.766312 205.890132 
L 257.186849 205.420227 
L 257.607386 206.03832 
L 258.027923 205.312503 
L 258.868997 206.49129 
L 259.289534 206.256294 
L 259.710071 205.222977 
L 260.130608 205.533739 
L 260.971682 204.217675 
L 261.392219 203.127168 
L 261.812756 202.954227 
L 262.233293 202.21706 
L 262.653829 199.566213 
L 263.074366 200.39804 
L 263.494903 196.843268 
L 263.91544 197.118437 
L 264.335977 195.186197 
L 264.756514 193.995231 
L 265.177051 193.278156 
L 265.597588 192.783547 
L 266.018125 191.804811 
L 266.438662 190.012231 
L 266.859199 187.056772 
L 267.279736 187.803092 
L 268.961884 184.437043 
L 269.382421 183.88346 
L 269.802958 183.904414 
L 270.223495 184.209405 
L 270.644032 183.162118 
L 271.064569 181.694341 
L 271.485106 183.009269 
L 271.905643 183.034649 
L 272.32618 184.206099 
L 272.746717 182.924086 
L 273.167254 180.930894 
L 273.587791 181.186296 
L 274.008328 180.325799 
L 275.269939 178.95735 
L 276.111013 177.952181 
L 276.53155 177.843298 
L 276.952087 192.417907 
L 277.372624 175.993045 
L 277.793161 175.204696 
L 278.213698 171.221729 
L 278.634235 174.916991 
L 279.475309 174.377042 
L 279.895846 174.374428 
L 280.316382 173.879918 
L 280.736919 173.636218 
L 281.157456 174.990006 
L 281.577993 175.848256 
L 281.99853 175.639617 
L 282.419067 174.476875 
L 282.839604 174.560367 
L 284.101215 173.582631 
L 284.521752 170.970468 
L 284.942289 172.001496 
L 285.362826 169.235001 
L 285.783363 170.401527 
L 286.2039 168.079425 
L 286.624437 166.629522 
L 287.044974 167.484423 
L 287.465511 165.70635 
L 287.886048 164.525735 
L 288.306585 164.274693 
L 288.727122 165.239888 
L 289.147659 165.749027 
L 290.40927 163.141428 
L 290.829807 163.741103 
L 291.250344 164.605306 
L 291.670881 164.772883 
L 292.091418 162.795122 
L 292.511955 162.05846 
L 292.932492 160.624766 
L 293.353029 160.271525 
L 293.773566 160.070738 
L 294.194103 160.220771 
L 294.61464 160.031658 
L 295.455714 158.062249 
L 295.876251 159.211236 
L 296.296788 155.571494 
L 296.717325 155.665112 
L 297.137862 155.221268 
L 297.558398 152.566632 
L 297.978935 151.770129 
L 298.399472 151.291383 
L 298.820009 151.29487 
L 299.240546 149.855674 
L 299.661083 149.757565 
L 300.502157 147.482039 
L 300.922694 148.984015 
L 301.343231 149.951444 
L 302.184305 147.647573 
L 302.604842 148.777539 
L 303.025379 148.570931 
L 303.445916 149.06279 
L 303.866453 147.323803 
L 304.28699 146.717049 
L 304.707527 148.031784 
L 305.128064 146.144522 
L 305.548601 146.295526 
L 305.969138 145.757186 
L 306.810212 145.548492 
L 307.230749 141.820553 
L 307.651286 141.711962 
L 308.071823 142.006179 
L 308.49236 142.907881 
L 309.333434 138.557467 
L 309.753971 136.638318 
L 310.174508 136.151204 
L 310.595045 136.318517 
L 311.015582 135.968252 
L 311.436119 134.06188 
L 311.856656 135.633977 
L 312.277193 133.960147 
L 312.69773 135.513415 
L 313.118267 134.399939 
L 313.538804 133.725931 
L 313.959341 133.669724 
L 314.379878 133.74566 
L 314.800415 132.29417 
L 315.220951 132.459089 
L 315.641488 134.030021 
L 316.062025 133.497727 
L 316.482562 134.142105 
L 316.903099 134.405474 
L 317.323636 132.392229 
L 317.744173 133.597972 
L 318.16471 133.921973 
L 318.585247 133.173742 
L 319.005784 132.716571 
L 319.426321 130.913174 
L 319.846858 131.293794 
L 320.267395 130.901291 
L 320.687932 131.031457 
L 321.108469 129.982748 
L 321.529006 129.524002 
L 321.949543 128.196604 
L 322.37008 127.616405 
L 322.790617 128.436652 
L 323.211154 128.680533 
L 323.631691 128.7354 
L 324.472765 126.847731 
L 324.893302 127.300262 
L 325.313839 125.923763 
L 325.734376 126.519518 
L 326.154913 126.262063 
L 326.57545 125.30997 
L 326.995987 125.542644 
L 327.416524 126.196686 
L 327.837061 125.898521 
L 328.257598 125.914104 
L 328.678135 123.440938 
L 329.519209 121.680129 
L 329.939746 121.970855 
L 330.360283 121.355282 
L 330.78082 119.306511 
L 331.201357 119.969257 
L 331.621894 117.029282 
L 332.042431 119.382123 
L 332.462967 117.434365 
L 332.883504 114.771805 
L 333.304041 115.550682 
L 333.724578 113.888181 
L 334.145115 112.766358 
L 334.565652 112.873676 
L 334.986189 112.032047 
L 335.406726 114.14194 
L 335.827263 112.384207 
L 336.2478 113.04329 
L 336.668337 113.429983 
L 337.929948 110.733137 
L 338.350485 112.978468 
L 338.771022 113.023456 
L 339.191559 112.030872 
L 339.612096 112.593318 
L 340.032633 113.956978 
L 340.45317 112.896415 
L 340.873707 110.428745 
L 341.294244 114.525366 
L 341.714781 113.42184 
L 342.135318 111.824561 
L 342.555855 113.164478 
L 342.976392 113.261291 
L 343.396929 111.073172 
L 343.817466 109.983473 
L 344.238003 107.985801 
L 344.65854 108.959979 
L 345.079077 108.221928 
L 345.499614 108.449567 
L 345.920151 109.07493 
L 346.340688 107.478041 
L 346.761225 106.823312 
L 347.181762 108.007156 
L 347.602299 107.712093 
L 348.022836 105.15036 
L 348.443373 104.58686 
L 348.86391 102.843409 
L 349.284447 105.706393 
L 349.704984 106.655905 
L 350.12552 105.722471 
L 350.546057 105.543961 
L 350.966594 105.690353 
L 351.387131 100.640777 
L 351.807668 104.016447 
L 352.228205 102.071259 
L 353.069279 103.055266 
L 353.489816 98.272781 
L 353.910353 97.661569 
L 354.33089 95.737763 
L 354.751427 95.661196 
L 355.171964 97.40133 
L 355.592501 95.001629 
L 356.013038 94.529923 
L 356.433575 93.290674 
L 356.854112 92.842508 
L 357.274649 91.434502 
L 357.695186 91.645013 
L 358.115723 95.058692 
L 358.53626 93.21784 
L 358.956797 92.052254 
L 359.377334 94.269042 
L 359.797871 93.043158 
L 360.218408 92.61163 
L 360.638945 90.841745 
L 361.480019 93.658626 
L 361.900556 93.349264 
L 362.321093 93.790906 
L 362.74163 93.650977 
L 363.162167 92.063999 
L 363.582704 93.89891 
L 364.003241 91.694384 
L 364.423778 90.914771 
L 364.844315 90.833091 
L 365.685389 88.088561 
L 366.105926 85.02608 
L 366.526463 87.114679 
L 366.947 91.01568 
L 367.367537 86.621547 
L 367.788073 86.415126 
L 368.20861 89.363831 
L 369.049684 85.439174 
L 369.470221 85.386713 
L 369.890758 86.215234 
L 370.311295 86.181426 
L 370.731832 86.815893 
L 371.152369 79.357044 
L 371.572906 78.560782 
L 371.993443 78.783133 
L 372.41398 77.258737 
L 372.834517 76.758747 
L 373.255054 74.107483 
L 373.675591 77.476288 
L 374.096128 78.789832 
L 374.516665 75.907887 
L 374.937202 77.806928 
L 375.357739 74.577486 
L 375.778276 72.933177 
L 376.198813 68.944098 
L 376.61935 70.017489 
L 377.039887 64.107082 
L 377.460424 66.501363 
L 378.301498 70.142038 
L 378.722035 68.418882 
L 379.142572 68.755018 
L 379.563109 69.47793 
L 379.983646 69.330747 
L 380.404183 71.431591 
L 380.82472 70.452279 
L 381.245257 68.917016 
L 381.665794 69.271131 
L 382.086331 67.697749 
L 382.506868 68.0975 
L 382.927405 66.173249 
L 383.347942 67.531622 
L 383.768479 71.196803 
L 384.189016 68.730336 
L 384.609553 64.991058 
L 385.030089 68.089933 
L 385.450626 66.28977 
L 385.871163 68.159483 
L 386.2917 66.47114 
L 386.712237 66.447133 
L 387.973848 59.947192 
L 388.394385 62.859442 
L 388.814922 62.636757 
L 389.235459 61.179017 
L 389.655996 61.608662 
L 390.076533 64.092871 
L 390.917607 61.946638 
L 391.338144 63.519635 
L 391.758681 62.634665 
L 392.179218 60.91986 
L 392.599755 60.953208 
L 393.440829 58.107839 
L 393.861366 59.349241 
L 394.281903 59.329105 
L 394.70244 56.626823 
L 395.122977 58.018878 
L 395.964051 57.785403 
L 396.384588 56.284515 
L 396.805125 57.99844 
L 397.225662 58.048882 
L 397.646199 55.03234 
L 398.066736 54.995396 
L 398.487273 53.568 
L 398.487273 53.568 
" clip-path="url(#pda34efd118)" style="fill: none; stroke: #1f77b4; stroke-width: 1.5; stroke-linecap: square"/>
   </g>
   <g id="line2d_16">
    <path d="M 73.832727 294.826297 
L 75.514875 294.686791 
L 75.935412 294.803548 
L 85.187226 294.547581 
L 86.0283 294.538713 
L 88.130984 294.472133 
L 90.233669 294.5403 
L 91.915817 294.537225 
L 97.803335 294.454337 
L 98.223872 294.257762 
L 114.204277 294.423279 
L 116.306962 294.485482 
L 121.773943 294.197739 
L 126.820386 294.378807 
L 132.707904 293.925623 
L 133.548978 293.868285 
L 134.390052 293.804879 
L 135.231126 293.903527 
L 136.0722 293.916491 
L 136.913274 293.968343 
L 138.174885 294.003387 
L 139.015959 293.697759 
L 139.857033 293.736823 
L 140.277569 293.81752 
L 141.959717 293.714738 
L 142.380254 293.769934 
L 142.800791 293.635441 
L 144.903476 293.587515 
L 145.74455 293.41616 
L 146.165087 293.414134 
L 146.585624 293.523505 
L 152.473142 292.83941 
L 153.314216 292.725333 
L 153.734753 292.716761 
L 154.15529 292.573202 
L 154.996364 292.580692 
L 156.257975 292.164979 
L 157.940122 291.87332 
L 158.360659 291.999406 
L 160.042807 291.869394 
L 165.930325 290.799204 
L 166.350862 290.846202 
L 167.191936 290.577661 
L 168.03301 290.470876 
L 168.453547 290.225403 
L 169.715158 290.504794 
L 170.556232 290.311992 
L 170.976769 290.255318 
L 171.397306 290.016791 
L 171.817843 290.034653 
L 172.23838 289.857961 
L 173.499991 289.767677 
L 173.920528 289.515724 
L 175.182138 289.260955 
L 175.602675 289.263706 
L 176.023212 289.102312 
L 176.443749 289.08591 
L 178.125897 288.585453 
L 178.966971 288.344932 
L 179.387508 288.090157 
L 179.808045 288.23471 
L 181.069656 287.726121 
L 181.91073 287.302204 
L 182.331267 286.980981 
L 183.172341 286.757834 
L 183.592878 286.860364 
L 184.433952 286.703593 
L 185.695563 285.504001 
L 186.1161 285.21584 
L 186.536637 285.29506 
L 186.957174 285.140458 
L 188.218785 284.239729 
L 188.639322 284.087318 
L 189.480396 283.359662 
L 189.900933 283.259961 
L 190.32147 281.88668 
L 190.742007 282.014896 
L 191.162544 282.929738 
L 191.583081 282.830393 
L 192.424154 282.128408 
L 192.844691 282.76276 
L 193.265228 281.941393 
L 193.685765 281.890875 
L 194.106302 281.635573 
L 194.526839 281.038439 
L 194.947376 281.068783 
L 195.78845 280.1542 
L 196.208987 280.181781 
L 196.629524 279.977436 
L 197.050061 279.23558 
L 197.470598 279.486078 
L 197.891135 278.924571 
L 198.311672 279.093004 
L 198.732209 278.890301 
L 199.152746 278.973024 
L 199.573283 278.340347 
L 199.99382 278.364733 
L 200.414357 277.719273 
L 200.834894 277.831412 
L 201.675968 276.46908 
L 202.096505 276.199484 
L 202.517042 276.113747 
L 202.937579 275.801068 
L 203.358116 275.770076 
L 203.778653 275.889766 
L 204.19919 275.867065 
L 205.460801 275.420069 
L 205.881338 275.565605 
L 206.722412 275.189515 
L 207.142949 274.541118 
L 207.563486 273.085734 
L 207.984023 274.172106 
L 208.40456 274.529746 
L 208.825097 274.154293 
L 209.245634 274.37208 
L 209.666171 273.828749 
L 210.507244 273.126214 
L 210.927781 272.429747 
L 211.348318 271.992959 
L 211.768855 271.077926 
L 212.189392 268.36979 
L 212.609929 266.635185 
L 213.030466 269.204841 
L 213.451003 269.882479 
L 213.87154 269.901115 
L 214.292077 270.171958 
L 214.712614 270.152453 
L 215.133151 270.51493 
L 215.553688 269.766897 
L 215.974225 269.89843 
L 216.394762 268.50134 
L 216.815299 268.074414 
L 217.235836 268.317136 
L 218.07691 266.923956 
L 218.497447 267.301039 
L 218.917984 267.264683 
L 219.338521 266.81571 
L 219.759058 266.164061 
L 220.179595 265.825009 
L 220.600132 265.873067 
L 221.441206 263.853123 
L 221.861743 263.258999 
L 222.28228 262.93972 
L 222.702817 261.775957 
L 223.123354 261.372884 
L 224.384965 259.026221 
L 224.805502 259.424627 
L 225.646576 259.032783 
L 226.48765 258.28045 
L 226.908187 258.607515 
L 227.74926 258.192768 
L 228.590334 257.155031 
L 229.851945 256.624587 
L 230.272482 256.628063 
L 230.693019 255.54006 
L 231.113556 255.430469 
L 231.534093 255.460286 
L 231.95463 254.903067 
L 233.216241 252.144161 
L 233.636778 251.623761 
L 234.057315 249.112486 
L 234.477852 245.569421 
L 234.898389 250.826401 
L 235.318926 251.971928 
L 235.739463 251.652084 
L 236.16 251.088067 
L 236.580537 251.164821 
L 237.001074 251.4553 
L 237.842148 250.268606 
L 238.683222 249.72713 
L 239.103759 249.289178 
L 239.524296 248.038617 
L 239.944833 247.748518 
L 240.36537 247.677623 
L 241.206444 246.571038 
L 241.626981 245.255666 
L 242.047518 244.435897 
L 242.468055 244.952536 
L 243.309129 243.336802 
L 243.729666 241.850432 
L 244.150203 241.418103 
L 244.57074 241.206663 
L 245.411813 238.823062 
L 245.83235 236.966741 
L 246.252887 237.779669 
L 246.673424 237.626434 
L 247.093961 236.692374 
L 247.514498 236.061949 
L 247.935035 235.900544 
L 248.355572 236.014676 
L 248.776109 237.302889 
L 249.196646 236.642372 
L 249.617183 236.937968 
L 250.03772 236.236724 
L 250.458257 236.312951 
L 250.878794 235.524234 
L 251.719868 233.318258 
L 252.140405 233.539835 
L 252.981479 230.419775 
L 253.402016 231.159088 
L 253.822553 230.584513 
L 254.24309 229.224734 
L 254.663627 229.123775 
L 255.084164 228.211158 
L 255.504701 227.691542 
L 255.925238 224.067126 
L 256.345775 215.704199 
L 256.766312 221.724538 
L 257.186849 224.934618 
L 257.607386 225.27372 
L 258.44846 224.920336 
L 258.868997 225.018429 
L 259.289534 224.973495 
L 259.710071 223.974322 
L 260.130608 223.72495 
L 260.551145 224.036195 
L 261.392219 222.867232 
L 262.233293 220.76837 
L 262.653829 218.469507 
L 263.074366 219.24286 
L 263.494903 219.128333 
L 263.91544 214.959086 
L 264.335977 215.873478 
L 265.177051 213.091707 
L 265.597588 210.415162 
L 266.018125 210.3187 
L 266.438662 209.952154 
L 267.279736 205.289902 
L 267.700273 204.980584 
L 268.12081 204.292189 
L 268.541347 203.956003 
L 269.382421 201.29525 
L 269.802958 201.067167 
L 270.223495 200.988376 
L 270.644032 202.154928 
L 271.064569 202.289284 
L 271.485106 203.278975 
L 271.905643 203.969319 
L 272.746717 204.519492 
L 273.167254 202.159733 
L 273.587791 201.564582 
L 274.008328 202.07925 
L 274.428865 201.028658 
L 274.849402 199.095589 
L 275.269939 200.778111 
L 275.690476 201.44508 
L 276.111013 199.45442 
L 276.53155 199.209567 
L 276.952087 198.088503 
L 277.372624 192.417907 
L 277.793161 194.688551 
L 278.213698 185.310581 
L 279.054772 196.445939 
L 279.475309 195.001043 
L 279.895846 196.519119 
L 280.316382 195.955596 
L 280.736919 195.861984 
L 281.157456 194.391764 
L 281.577993 196.873612 
L 281.99853 197.560909 
L 282.419067 196.917425 
L 282.839604 195.507914 
L 283.260141 195.02739 
L 283.680678 193.927147 
L 284.101215 193.850519 
L 284.521752 195.798041 
L 284.942289 194.684889 
L 285.362826 193.101947 
L 285.783363 190.877252 
L 286.2039 190.66573 
L 286.624437 189.745749 
L 287.044974 189.85813 
L 287.465511 187.489865 
L 287.886048 187.435234 
L 288.306585 185.8053 
L 288.727122 185.545824 
L 289.147659 185.048437 
L 289.568196 183.491106 
L 290.40927 183.503977 
L 291.250344 182.873842 
L 291.670881 183.8105 
L 292.091418 182.222605 
L 292.511955 181.377253 
L 292.932492 184.404179 
L 293.353029 184.554629 
L 293.773566 184.411411 
L 294.194103 184.502821 
L 294.61464 184.426517 
L 295.035177 182.910912 
L 295.455714 183.272335 
L 295.876251 183.884426 
L 296.296788 183.20887 
L 296.717325 180.107963 
L 297.137862 180.957817 
L 297.558398 180.534021 
L 297.978935 177.237615 
L 298.399472 178.850417 
L 299.661083 174.549627 
L 300.08162 161.103358 
L 300.502157 166.260982 
L 300.922694 174.018101 
L 301.343231 175.441796 
L 302.184305 174.066472 
L 302.604842 172.717681 
L 303.025379 173.726069 
L 303.445916 173.439934 
L 303.866453 174.501157 
L 304.28699 172.105404 
L 304.707527 174.221485 
L 305.548601 172.024169 
L 305.969138 171.993309 
L 306.389675 172.649784 
L 306.810212 169.903573 
L 307.230749 169.43922 
L 307.651286 167.139956 
L 308.071823 169.251524 
L 308.49236 170.594483 
L 308.912897 168.01541 
L 309.753971 160.822945 
L 310.174508 162.394855 
L 310.595045 161.099948 
L 311.015582 160.392752 
L 311.436119 158.713112 
L 311.856656 159.411506 
L 312.277193 159.606747 
L 312.69773 159.431252 
L 313.118267 158.872787 
L 313.538804 157.982107 
L 313.959341 155.496179 
L 314.379878 158.637116 
L 314.800415 159.52633 
L 315.220951 159.693616 
L 315.641488 161.10696 
L 316.062025 161.891306 
L 316.903099 161.600098 
L 317.323636 162.145033 
L 317.744173 161.830641 
L 318.16471 162.543465 
L 319.005784 159.667347 
L 319.426321 161.477592 
L 319.846858 160.862607 
L 320.267395 159.331941 
L 320.687932 159.501033 
L 321.108469 158.763844 
L 321.529006 156.468545 
L 321.949543 143.779052 
L 322.37008 143.441224 
L 322.790617 155.861918 
L 323.211154 157.603491 
L 323.631691 157.960049 
L 324.052228 156.761351 
L 324.472765 155.142388 
L 325.313839 153.328278 
L 325.734376 153.276903 
L 326.154913 153.878781 
L 326.57545 153.447616 
L 326.995987 143.762331 
L 327.416524 139.535237 
L 327.837061 137.889159 
L 328.257598 139.116448 
L 329.519209 134.815839 
L 329.939746 135.1177 
L 330.360283 137.395384 
L 330.78082 135.308186 
L 331.201357 134.511606 
L 331.621894 136.375218 
L 332.042431 137.399804 
L 332.883504 134.177984 
L 333.304041 131.110649 
L 333.724578 130.878629 
L 334.145115 129.213876 
L 334.565652 130.651809 
L 334.986189 130.454125 
L 335.406726 131.590433 
L 335.827263 130.501617 
L 336.2478 130.510694 
L 336.668337 131.470079 
L 337.088874 133.166604 
L 337.509411 132.355933 
L 337.929948 134.302533 
L 338.771022 134.439919 
L 339.191559 135.191226 
L 339.612096 133.822255 
L 340.032633 134.015481 
L 340.45317 132.932914 
L 340.873707 130.973526 
L 341.294244 133.208028 
L 341.714781 133.657709 
L 342.135318 133.439126 
L 342.555855 135.950274 
L 342.976392 133.846795 
L 343.817466 125.342796 
L 344.238003 118.578531 
L 345.079077 128.698555 
L 345.499614 127.94956 
L 345.920151 128.883851 
L 346.340688 127.726403 
L 347.181762 126.735345 
L 347.602299 126.882413 
L 348.022836 128.567225 
L 348.443373 128.150358 
L 348.86391 127.939792 
L 349.284447 125.959999 
L 349.704984 129.203839 
L 350.546057 126.14932 
L 350.966594 128.452313 
L 351.387131 127.114537 
L 351.807668 123.633433 
L 352.228205 123.975445 
L 352.648742 121.905121 
L 353.069279 120.691987 
L 353.489816 122.596668 
L 353.910353 122.981757 
L 354.751427 115.365045 
L 355.171964 115.235374 
L 355.592501 114.858565 
L 356.013038 114.087123 
L 356.433575 111.286441 
L 356.854112 112.764008 
L 357.274649 111.366144 
L 357.695186 111.47322 
L 358.115723 112.739787 
L 358.53626 115.838388 
L 358.956797 116.556874 
L 359.377334 116.608462 
L 359.797871 118.162861 
L 360.218408 115.905071 
L 361.059482 117.111819 
L 361.480019 117.393264 
L 361.900556 117.162589 
L 362.321093 116.707176 
L 362.74163 119.155736 
L 363.162167 118.029137 
L 363.582704 118.567872 
L 364.003241 116.966981 
L 364.423778 118.076426 
L 365.264852 115.345904 
L 365.685389 109.903418 
L 366.105926 97.159426 
L 366.526463 104.507618 
L 366.947 109.898564 
L 367.367537 110.248368 
L 367.788073 112.034238 
L 368.20861 110.344105 
L 368.629147 113.192603 
L 369.049684 112.186242 
L 369.470221 108.647636 
L 369.890758 110.585394 
L 370.311295 110.578755 
L 370.731832 112.953851 
L 371.152369 108.924732 
L 371.572906 102.105633 
L 371.993443 102.267005 
L 372.41398 113.006187 
L 372.834517 100.950254 
L 373.675591 97.377395 
L 374.096128 101.184795 
L 374.516665 101.001052 
L 374.937202 99.61479 
L 375.357739 96.426405 
L 375.778276 97.088256 
L 376.61935 89.238152 
L 377.039887 90.030948 
L 377.460424 89.800284 
L 377.880961 87.274453 
L 378.301498 87.180424 
L 378.722035 88.118899 
L 379.142572 86.825261 
L 379.563109 87.691912 
L 379.983646 87.797028 
L 380.404183 91.239244 
L 380.82472 92.097577 
L 381.665794 95.196315 
L 382.086331 93.067912 
L 382.506868 94.240757 
L 382.927405 94.376568 
L 383.347942 91.4351 
L 383.768479 94.738524 
L 384.189016 95.656001 
L 384.609553 92.461251 
L 385.030089 91.597087 
L 385.450626 93.960646 
L 385.871163 90.326676 
L 386.2917 93.864975 
L 386.712237 94.17722 
L 387.132774 89.66947 
L 387.973848 75.012298 
L 388.394385 82.513548 
L 388.814922 87.624504 
L 389.235459 87.547486 
L 389.655996 88.151137 
L 390.076533 86.972619 
L 390.49707 87.110478 
L 390.917607 87.856436 
L 391.758681 85.462901 
L 392.179218 88.596887 
L 393.020292 81.087635 
L 393.440829 84.926357 
L 393.861366 80.495428 
L 394.281903 83.262944 
L 394.70244 83.942652 
L 395.122977 82.607402 
L 395.543514 79.321654 
L 395.964051 84.298397 
L 396.384588 84.133637 
L 396.805125 80.588156 
L 397.225662 81.189154 
L 397.646199 80.590143 
L 398.066736 75.786584 
L 398.487273 73.351042 
L 398.487273 73.351042 
" clip-path="url(#pda34efd118)" style="fill: none; stroke: #ff7f0e; stroke-width: 1.5; stroke-linecap: square"/>
   </g>
   <g id="line2d_17">
    <path d="M 73.832727 295.301918 
L 80.140782 295.271294 
L 80.561319 295.340411 
L 81.402393 295.226696 
L 81.82293 295.313828 
L 82.243467 295.21204 
L 82.664004 295.313235 
L 83.925615 295.210151 
L 95.70065 295.275374 
L 96.121187 295.232764 
L 96.541724 295.330823 
L 97.803335 295.022307 
L 98.223872 295.219475 
L 107.896222 295.272612 
L 108.316759 295.408077 
L 109.57837 295.318128 
L 110.419444 295.238881 
L 111.260518 295.36987 
L 111.681055 295.387969 
L 112.101592 295.28757 
L 112.942666 295.410373 
L 113.78374 295.428367 
L 115.045351 295.432628 
L 119.250721 295.318496 
L 120.512332 295.320379 
L 120.932869 295.387634 
L 121.773943 295.352854 
L 122.615016 295.353562 
L 123.45609 295.363676 
L 123.876627 295.461368 
L 127.240923 295.364648 
L 136.913274 295.426088 
L 137.333811 295.488 
L 138.595422 295.343876 
L 139.015959 295.440535 
L 139.857033 295.29786 
L 140.277569 295.273749 
L 140.698106 295.407847 
L 141.118643 295.409203 
L 141.53918 295.286659 
L 142.800791 295.451369 
L 143.221328 295.303642 
L 144.482939 295.282787 
L 144.903476 295.136005 
L 146.165087 295.401499 
L 147.006161 295.134885 
L 147.426698 295.223412 
L 147.847235 295.10318 
L 149.108846 295.129597 
L 149.529383 295.154538 
L 149.94992 295.316794 
L 150.790994 295.233099 
L 151.211531 294.901399 
L 151.632068 295.116677 
L 152.052605 295.016173 
L 153.314216 295.208877 
L 153.734753 295.061546 
L 154.15529 295.110247 
L 154.996364 294.875997 
L 155.416901 294.931007 
L 156.257975 294.845785 
L 156.678512 294.993248 
L 157.519585 294.832046 
L 157.940122 295.084334 
L 160.883881 294.839048 
L 161.724955 294.794811 
L 162.145492 294.816314 
L 162.566029 294.594782 
L 162.986566 294.538537 
L 163.82764 294.725064 
L 164.668714 294.679685 
L 165.089251 294.949616 
L 166.771399 294.618767 
L 168.03301 294.655909 
L 168.453547 294.936789 
L 169.715158 294.46594 
L 170.556232 294.550255 
L 170.976769 294.488535 
L 171.397306 294.719254 
L 171.817843 294.494164 
L 172.658917 294.779475 
L 173.920528 294.385418 
L 175.182138 294.487717 
L 175.602675 294.268305 
L 176.023212 294.409865 
L 176.864286 294.097532 
L 177.284823 294.253034 
L 177.70536 294.14274 
L 178.125897 294.21592 
L 178.966971 294.165973 
L 179.808045 294.158274 
L 180.228582 294.046564 
L 180.649119 294.16913 
L 181.91073 293.992718 
L 182.331267 294.198134 
L 183.172341 294.040024 
L 183.592878 293.749024 
L 184.013415 293.616288 
L 184.433952 293.29411 
L 185.275026 293.248495 
L 185.695563 292.981942 
L 186.1161 293.510892 
L 186.536637 293.473328 
L 186.957174 293.169869 
L 187.377711 293.114733 
L 187.798248 292.702072 
L 188.218785 292.920206 
L 188.639322 292.346657 
L 189.480396 292.847855 
L 189.900933 292.741828 
L 190.32147 293.837628 
L 190.742007 293.75977 
L 191.162544 292.541782 
L 191.583081 292.40802 
L 192.003618 292.455633 
L 192.424154 292.685127 
L 192.844691 291.739387 
L 193.265228 292.532662 
L 193.685765 292.537488 
L 194.106302 292.087384 
L 194.526839 292.675221 
L 194.947376 291.869334 
L 195.367913 291.989978 
L 195.78845 292.439099 
L 196.208987 292.469964 
L 196.629524 292.38717 
L 197.050061 292.686714 
L 197.470598 292.186389 
L 197.891135 292.482836 
L 198.311672 291.854107 
L 198.732209 292.339019 
L 199.152746 292.053147 
L 199.573283 292.458823 
L 199.99382 292.257394 
L 200.414357 292.606934 
L 201.255431 291.578877 
L 201.675968 292.411265 
L 202.096505 292.276151 
L 202.517042 291.834784 
L 202.937579 292.107454 
L 203.358116 292.541277 
L 203.778653 292.09404 
L 204.19919 291.836107 
L 204.619727 291.709927 
L 205.040264 291.159595 
L 205.460801 291.425802 
L 205.881338 291.255255 
L 206.301875 290.782308 
L 206.722412 290.912194 
L 207.142949 287.99604 
L 207.563486 291.796714 
L 207.984023 292.107471 
L 208.40456 291.070952 
L 208.825097 291.067032 
L 209.666171 290.438572 
L 210.086707 290.483978 
L 210.507244 290.190353 
L 210.927781 290.322952 
L 211.768855 289.706325 
L 212.189392 291.69223 
L 212.609929 292.446298 
L 213.030466 289.229255 
L 213.451003 289.585521 
L 214.292077 289.166442 
L 214.712614 289.352969 
L 215.133151 289.302363 
L 215.553688 289.93141 
L 215.974225 287.519744 
L 216.394762 289.254096 
L 216.815299 289.245997 
L 217.235836 288.541211 
L 217.656373 288.907225 
L 218.07691 289.468287 
L 218.497447 289.114634 
L 218.917984 289.198658 
L 219.338521 287.924047 
L 219.759058 288.512921 
L 220.179595 288.093683 
L 220.600132 287.443703 
L 221.020669 288.94569 
L 221.441206 287.804374 
L 221.861743 288.900306 
L 222.28228 287.786418 
L 222.702817 288.263906 
L 223.123354 287.636512 
L 223.543891 289.162071 
L 223.964428 288.831695 
L 224.384965 287.811435 
L 225.226039 288.734761 
L 225.646576 288.412874 
L 226.067113 287.201305 
L 226.48765 287.974328 
L 226.908187 286.191435 
L 227.328724 286.750196 
L 227.74926 285.84604 
L 228.590334 285.021088 
L 229.431408 285.177397 
L 229.851945 285.239243 
L 230.272482 284.08723 
L 230.693019 285.314998 
L 231.113556 284.993737 
L 231.534093 283.825591 
L 231.95463 284.093897 
L 232.375167 283.830973 
L 232.795704 283.947104 
L 233.636778 285.288833 
L 234.057315 287.24491 
L 234.477852 288.422856 
L 234.898389 283.842147 
L 235.318926 283.407649 
L 235.739463 283.461 
L 236.16 283.952941 
L 236.580537 283.868405 
L 237.001074 283.624914 
L 237.842148 284.526248 
L 238.262685 283.405804 
L 238.683222 283.674032 
L 239.103759 282.931858 
L 239.524296 284.179102 
L 239.944833 284.289928 
L 240.36537 283.168001 
L 241.206444 282.092145 
L 241.626981 281.419526 
L 242.047518 283.596893 
L 242.468055 282.51123 
L 242.888592 282.168905 
L 243.309129 283.212606 
L 243.729666 282.187893 
L 244.150203 282.98863 
L 244.57074 282.892168 
L 244.991276 282.410534 
L 245.411813 283.507043 
L 245.83235 284.057332 
L 246.252887 283.558873 
L 246.673424 282.679103 
L 247.093961 283.064401 
L 247.514498 283.986365 
L 247.935035 283.440436 
L 248.776109 281.287361 
L 249.196646 281.424528 
L 249.617183 279.392394 
L 250.458257 279.359146 
L 250.878794 278.117146 
L 251.299331 279.531516 
L 251.719868 279.32274 
L 252.140405 278.043988 
L 252.560942 277.366724 
L 252.981479 278.989047 
L 253.402016 277.560295 
L 254.24309 277.306278 
L 255.084164 277.885856 
L 255.504701 276.001081 
L 255.925238 278.781907 
L 256.345775 283.158463 
L 257.186849 276.049935 
L 257.607386 276.328926 
L 258.027923 275.748271 
L 258.44846 276.537279 
L 258.868997 277.037187 
L 259.289534 276.847125 
L 259.710071 276.812981 
L 260.130608 277.373115 
L 260.551145 276.451547 
L 260.971682 276.349534 
L 261.392219 275.824262 
L 261.812756 276.856179 
L 262.233293 277.013016 
L 262.653829 276.661032 
L 263.074366 276.719506 
L 263.494903 273.279262 
L 263.91544 277.723677 
L 264.335977 274.877045 
L 264.756514 274.928074 
L 265.177051 275.750775 
L 265.597588 277.932711 
L 266.018125 277.050437 
L 266.438662 275.624404 
L 266.859199 275.092153 
L 267.279736 278.077517 
L 267.700273 277.523005 
L 268.12081 277.532488 
L 268.541347 276.601256 
L 268.961884 277.565039 
L 269.382421 278.152536 
L 269.802958 278.401573 
L 270.223495 278.785355 
L 270.644032 276.571516 
L 271.064569 274.969383 
L 271.485106 275.29462 
L 271.905643 274.629656 
L 272.32618 275.578817 
L 272.746717 273.968919 
L 273.167254 274.335488 
L 273.587791 275.18604 
L 274.008328 273.810875 
L 274.428865 274.359555 
L 274.849402 275.792118 
L 275.269939 273.743565 
L 275.690476 272.637645 
L 276.111013 274.062087 
L 276.53155 274.198057 
L 276.952087 289.89373 
L 277.372624 279.139464 
L 277.793161 276.080471 
L 278.213698 281.475475 
L 278.634235 280.087186 
L 279.054772 273.732029 
L 279.475309 274.940325 
L 279.895846 273.419636 
L 280.316382 273.488647 
L 280.736919 273.33856 
L 281.157456 276.162568 
L 281.577993 274.538971 
L 281.99853 273.643035 
L 282.419067 273.123776 
L 282.839604 274.616779 
L 283.260141 274.784482 
L 283.680678 275.537633 
L 284.101215 275.296438 
L 284.521752 270.736754 
L 284.942289 272.880933 
L 285.362826 271.69738 
L 285.783363 275.0886 
L 286.2039 272.978021 
L 286.624437 272.448099 
L 287.465511 273.780811 
L 287.886048 272.654827 
L 288.727122 275.25839 
L 289.147659 276.264916 
L 289.568196 276.953031 
L 290.40927 275.201777 
L 291.250344 277.29579 
L 291.670881 276.526709 
L 292.091418 276.136842 
L 292.511955 276.245533 
L 292.932492 271.784913 
L 293.353029 271.281222 
L 293.773566 271.223653 
L 294.194103 271.282276 
L 294.61464 271.169467 
L 295.035177 271.708692 
L 295.455714 270.354239 
L 295.876251 270.891135 
L 296.296788 267.926951 
L 296.717325 271.121475 
L 297.137862 269.827777 
L 297.558398 267.596937 
L 297.978935 270.09684 
L 298.399472 268.005292 
L 298.820009 269.383526 
L 299.240546 269.427521 
L 299.661083 270.772265 
L 300.08162 282.910041 
L 300.922694 270.53024 
L 301.343231 270.073975 
L 301.763768 269.800634 
L 302.184305 269.145427 
L 302.604842 271.624184 
L 303.025379 270.409189 
L 303.445916 271.187182 
L 303.866453 268.386972 
L 304.28699 270.175972 
L 305.128064 268.723328 
L 305.548601 269.835684 
L 305.969138 269.328204 
L 306.389675 268.621732 
L 306.810212 271.209245 
L 307.230749 267.945659 
L 307.651286 270.136331 
L 308.071823 268.318981 
L 308.49236 267.877723 
L 308.912897 267.980231 
L 309.753971 271.379699 
L 310.174508 269.320675 
L 310.595045 270.782895 
L 311.015582 271.139827 
L 311.436119 270.913094 
L 311.856656 271.786797 
L 312.277193 269.917726 
L 312.69773 271.646489 
L 313.118267 271.091478 
L 313.538804 271.30815 
L 313.959341 273.737871 
L 314.800415 268.332165 
L 315.220951 268.329799 
L 315.641488 268.487387 
L 316.062025 267.170747 
L 316.482562 267.946131 
L 316.903099 268.369702 
L 317.323636 265.811523 
L 317.744173 267.331657 
L 318.16471 266.942834 
L 319.005784 268.61355 
L 319.426321 264.999908 
L 320.267395 267.133676 
L 320.687932 267.09475 
L 321.108469 266.78323 
L 321.529006 268.619783 
L 321.949543 279.981878 
L 322.37008 279.739508 
L 322.790617 268.13906 
L 323.211154 266.641368 
L 323.631691 266.339677 
L 324.052228 266.67907 
L 324.472765 267.269669 
L 324.893302 268.752332 
L 325.313839 268.159811 
L 325.734376 268.806941 
L 326.154913 267.947608 
L 326.57545 267.426681 
L 326.995987 277.344638 
L 327.416524 282.225776 
L 327.837061 283.573688 
L 328.678135 281.221128 
L 329.519209 282.428616 
L 329.939746 282.417481 
L 330.360283 279.524224 
L 330.78082 279.562651 
L 331.201357 281.021977 
L 331.621894 276.21839 
L 332.042431 277.546644 
L 332.462967 277.115369 
L 332.883504 276.158148 
L 333.304041 280.004359 
L 333.724578 278.573877 
L 334.145115 279.116808 
L 334.565652 277.786193 
L 334.986189 277.142248 
L 335.406726 278.115833 
L 335.827263 277.446915 
L 336.2478 278.096922 
L 336.668337 277.52423 
L 337.088874 274.987488 
L 337.509411 275.080649 
L 337.929948 271.994931 
L 338.350485 274.131983 
L 338.771022 274.147863 
L 339.191559 272.403972 
L 339.612096 274.335389 
L 340.032633 275.505824 
L 340.45317 275.527826 
L 340.873707 275.019544 
L 341.294244 276.881663 
L 342.135318 273.949761 
L 342.555855 272.77853 
L 342.976392 274.978823 
L 343.396929 276.558321 
L 343.817466 280.205003 
L 344.238003 284.971597 
L 345.079077 275.0877 
L 345.499614 276.064332 
L 346.761225 275.229046 
L 347.181762 276.836137 
L 347.602299 276.394006 
L 348.022836 272.147462 
L 348.443373 272.000828 
L 348.86391 270.467943 
L 349.284447 275.31072 
L 349.704984 273.016393 
L 350.12552 273.803786 
L 350.546057 274.958967 
L 350.966594 272.802367 
L 351.387131 269.090566 
L 351.807668 275.94734 
L 352.228205 273.660139 
L 352.648742 276.200533 
L 353.069279 277.927605 
L 353.489816 271.24044 
L 353.910353 270.244138 
L 354.33089 272.071954 
L 354.751427 275.860476 
L 355.171964 277.730283 
L 355.592501 275.70739 
L 356.013038 276.007126 
L 356.433575 277.568559 
L 356.854112 275.642826 
L 357.274649 275.632684 
L 357.695186 275.73612 
L 358.115723 277.883231 
L 358.53626 272.943778 
L 358.956797 271.059706 
L 359.377334 273.224905 
L 359.797871 270.444623 
L 360.218408 272.270885 
L 360.638945 269.918983 
L 361.480019 271.829688 
L 361.900556 271.751 
L 362.321093 272.648056 
L 362.74163 270.059566 
L 363.162167 269.599188 
L 363.582704 270.895364 
L 364.003241 270.291729 
L 364.423778 268.402671 
L 364.844315 269.780306 
L 365.264852 269.762235 
L 365.685389 273.749468 
L 366.105926 283.43098 
L 366.526463 278.171387 
L 366.947 276.681442 
L 367.367537 271.937505 
L 367.788073 269.945214 
L 368.20861 274.584052 
L 368.629147 269.767007 
L 369.049684 268.817258 
L 369.470221 272.303403 
L 369.890758 271.194166 
L 370.311295 271.166996 
L 370.731832 269.426368 
L 371.152369 265.996638 
L 371.572906 272.019476 
L 371.993443 272.080454 
L 372.41398 259.816877 
L 372.834517 271.372819 
L 373.255054 270.310174 
L 373.675591 275.66322 
L 374.516665 270.471161 
L 374.937202 273.756464 
L 375.357739 273.715407 
L 375.778276 271.409246 
L 376.198813 271.536046 
L 376.61935 276.343664 
L 377.039887 269.640459 
L 377.460424 272.265405 
L 377.880961 276.539986 
L 378.301498 278.52594 
L 378.722035 275.864309 
L 379.142572 277.494084 
L 379.983646 277.098045 
L 380.404183 275.756673 
L 380.82472 273.919027 
L 381.245257 270.948693 
L 381.665794 269.639141 
L 382.086331 270.194163 
L 382.506868 269.421069 
L 382.927405 267.361007 
L 383.347942 271.660848 
L 383.768479 272.022606 
L 384.189016 268.638661 
L 384.609553 268.094132 
L 385.030089 272.057172 
L 385.450626 267.89345 
L 385.871163 273.397133 
L 386.2917 268.170491 
L 386.712237 267.83424 
L 387.132774 269.974685 
L 387.553311 274.414191 
L 387.973848 280.499221 
L 388.814922 270.576579 
L 389.235459 269.195857 
L 389.655996 269.021851 
L 390.076533 272.684577 
L 390.917607 269.654527 
L 391.338144 272.52968 
L 391.758681 272.736089 
L 392.179218 267.8873 
L 392.599755 272.083958 
L 393.020292 274.177388 
L 393.440829 268.745808 
L 393.861366 274.418139 
L 394.70244 268.248498 
L 395.543514 274.096488 
L 395.964051 269.051332 
L 396.384588 267.715204 
L 396.805125 272.974611 
L 397.225662 272.424053 
L 397.646199 270.006522 
L 398.066736 274.773138 
L 398.487273 275.781284 
L 398.487273 275.781284 
" clip-path="url(#pda34efd118)" style="fill: none; stroke: #2ca02c; stroke-width: 1.5; stroke-linecap: square"/>
   </g>
   <g id="patch_3">
    <path d="M 57.6 307.584 
L 57.6 41.472 
" style="fill: none; stroke: #000000; stroke-width: 0.8; stroke-linejoin: miter; stroke-linecap: square"/>
   </g>
   <g id="patch_4">
    <path d="M 414.72 307.584 
L 414.72 41.472 
" style="fill: none; stroke: #000000; stroke-width: 0.8; stroke-linejoin: miter; stroke-linecap: square"/>
   </g>
   <g id="patch_5">
    <path d="M 57.6 307.584 
L 414.72 307.584 
" style="fill: none; stroke: #000000; stroke-width: 0.8; stroke-linejoin: miter; stroke-linecap: square"/>
   </g>
   <g id="patch_6">
    <path d="M 57.6 41.472 
L 414.72 41.472 
" style="fill: none; stroke: #000000; stroke-width: 0.8; stroke-linejoin: miter; stroke-linecap: square"/>
   </g>
   <g id="legend_1">
    <g id="patch_7">
     <path d="M 64.6 93.506375 
L 186.25625 93.506375 
Q 188.25625 93.506375 188.25625 91.506375 
L 188.25625 48.472 
Q 188.25625 46.472 186.25625 46.472 
L 64.6 46.472 
Q 62.6 46.472 62.6 48.472 
L 62.6 91.506375 
Q 62.6 93.506375 64.6 93.506375 
z
" style="fill: #ffffff; opacity: 0.8; stroke: #cccccc; stroke-linejoin: miter"/>
    </g>
    <g id="line2d_18">
     <path d="M 66.6 54.570438 
L 76.6 54.570438 
L 86.6 54.570438 
" style="fill: none; stroke: #1f77b4; stroke-width: 1.5; stroke-linecap: square"/>
    </g>
    <g id="text_17">
     <!-- Weekly maximum -->
     <g transform="translate(94.6 58.070438) scale(0.1 -0.1)">
      <defs>
       <path id="DejaVuSans-57" d="M 213 4666 
L 850 4666 
L 1831 722 
L 2809 4666 
L 3519 4666 
L 4500 722 
L 5478 4666 
L 6119 4666 
L 4947 0 
L 4153 0 
L 3169 4050 
L 2175 0 
L 1381 0 
L 213 4666 
z
" transform="scale(0.015625)"/>
       <path id="DejaVuSans-6b" d="M 581 4863 
L 1159 4863 
L 1159 1991 
L 2875 3500 
L 3609 3500 
L 1753 1863 
L 3688 0 
L 2938 0 
L 1159 1709 
L 1159 0 
L 581 0 
L 581 4863 
z
" transform="scale(0.015625)"/>
       <path id="DejaVuSans-79" d="M 2059 -325 
Q 1816 -950 1584 -1140 
Q 1353 -1331 966 -1331 
L 506 -1331 
L 506 -850 
L 844 -850 
Q 1081 -850 1212 -737 
Q 1344 -625 1503 -206 
L 1606 56 
L 191 3500 
L 800 3500 
L 1894 763 
L 2988 3500 
L 3597 3500 
L 2059 -325 
z
" transform="scale(0.015625)"/>
       <path id="DejaVuSans-6d" d="M 3328 2828 
Q 3544 3216 3844 3400 
Q 4144 3584 4550 3584 
Q 5097 3584 5394 3201 
Q 5691 2819 5691 2113 
L 5691 0 
L 5113 0 
L 5113 2094 
Q 5113 2597 4934 2840 
Q 4756 3084 4391 3084 
Q 3944 3084 3684 2787 
Q 3425 2491 3425 1978 
L 3425 0 
L 2847 0 
L 2847 2094 
Q 2847 2600 2669 2842 
Q 2491 3084 2119 3084 
Q 1678 3084 1418 2786 
Q 1159 2488 1159 1978 
L 1159 0 
L 581 0 
L 581 3500 
L 1159 3500 
L 1159 2956 
Q 1356 3278 1631 3431 
Q 1906 3584 2284 3584 
Q 2666 3584 2933 3390 
Q 3200 3197 3328 2828 
z
" transform="scale(0.015625)"/>
       <path id="DejaVuSans-78" d="M 3513 3500 
L 2247 1797 
L 3578 0 
L 2900 0 
L 1881 1375 
L 863 0 
L 184 0 
L 1544 1831 
L 300 3500 
L 978 3500 
L 1906 2253 
L 2834 3500 
L 3513 3500 
z
" transform="scale(0.015625)"/>
       <path id="DejaVuSans-75" d="M 544 1381 
L 544 3500 
L 1119 3500 
L 1119 1403 
Q 1119 906 1312 657 
Q 1506 409 1894 409 
Q 2359 409 2629 706 
Q 2900 1003 2900 1516 
L 2900 3500 
L 3475 3500 
L 3475 0 
L 2900 0 
L 2900 538 
Q 2691 219 2414 64 
Q 2138 -91 1772 -91 
Q 1169 -91 856 284 
Q 544 659 544 1381 
z
M 1991 3584 
L 1991 3584 
z
" transform="scale(0.015625)"/>
      </defs>
      <use xlink:href="#DejaVuSans-57"/>
      <use xlink:href="#DejaVuSans-65" x="93.001953"/>
      <use xlink:href="#DejaVuSans-65" x="154.525391"/>
      <use xlink:href="#DejaVuSans-6b" x="216.048828"/>
      <use xlink:href="#DejaVuSans-6c" x="273.958984"/>
      <use xlink:href="#DejaVuSans-79" x="301.742188"/>
      <use xlink:href="#DejaVuSans-20" x="360.921875"/>
      <use xlink:href="#DejaVuSans-6d" x="392.708984"/>
      <use xlink:href="#DejaVuSans-61" x="490.121094"/>
      <use xlink:href="#DejaVuSans-78" x="551.400391"/>
      <use xlink:href="#DejaVuSans-69" x="610.580078"/>
      <use xlink:href="#DejaVuSans-6d" x="638.363281"/>
      <use xlink:href="#DejaVuSans-75" x="735.775391"/>
      <use xlink:href="#DejaVuSans-6d" x="799.154297"/>
     </g>
    </g>
    <g id="line2d_19">
     <path d="M 66.6 69.248563 
L 76.6 69.248563 
L 86.6 69.248563 
" style="fill: none; stroke: #ff7f0e; stroke-width: 1.5; stroke-linecap: square"/>
    </g>
    <g id="text_18">
     <!-- Weekly minimum -->
     <g transform="translate(94.6 72.748563) scale(0.1 -0.1)">
      <defs>
       <path id="DejaVuSans-6e" d="M 3513 2113 
L 3513 0 
L 2938 0 
L 2938 2094 
Q 2938 2591 2744 2837 
Q 2550 3084 2163 3084 
Q 1697 3084 1428 2787 
Q 1159 2491 1159 1978 
L 1159 0 
L 581 0 
L 581 3500 
L 1159 3500 
L 1159 2956 
Q 1366 3272 1645 3428 
Q 1925 3584 2291 3584 
Q 2894 3584 3203 3211 
Q 3513 2838 3513 2113 
z
" transform="scale(0.015625)"/>
      </defs>
      <use xlink:href="#DejaVuSans-57"/>
      <use xlink:href="#DejaVuSans-65" x="93.001953"/>
      <use xlink:href="#DejaVuSans-65" x="154.525391"/>
      <use xlink:href="#DejaVuSans-6b" x="216.048828"/>
      <use xlink:href="#DejaVuSans-6c" x="273.958984"/>
      <use xlink:href="#DejaVuSans-79" x="301.742188"/>
      <use xlink:href="#DejaVuSans-20" x="360.921875"/>
      <use xlink:href="#DejaVuSans-6d" x="392.708984"/>
      <use xlink:href="#DejaVuSans-69" x="490.121094"/>
      <use xlink:href="#DejaVuSans-6e" x="517.904297"/>
      <use xlink:href="#DejaVuSans-69" x="581.283203"/>
      <use xlink:href="#DejaVuSans-6d" x="609.066406"/>
      <use xlink:href="#DejaVuSans-75" x="706.478516"/>
      <use xlink:href="#DejaVuSans-6d" x="769.857422"/>
     </g>
    </g>
    <g id="line2d_20">
     <path d="M 66.6 83.926688 
L 76.6 83.926688 
L 86.6 83.926688 
" style="fill: none; stroke: #2ca02c; stroke-width: 1.5; stroke-linecap: square"/>
    </g>
    <g id="text_19">
     <!-- Weekly range -->
     <g transform="translate(94.6 87.426688) scale(0.1 -0.1)">
      <use xlink:href="#DejaVuSans-57"/>
      <use xlink:href="#DejaVuSans-65" x="93.001953"/>
      <use xlink:href="#DejaVuSans-65" x="154.525391"/>
      <use xlink:href="#DejaVuSans-6b" x="216.048828"/>
      <use xlink:href="#DejaVuSans-6c" x="273.958984"/>
      <use xlink:href="#DejaVuSans-79" x="301.742188"/>
      <use xlink:href="#DejaVuSans-20" x="360.921875"/>
      <use xlink:href="#DejaVuSans-72" x="392.708984"/>
      <use xlink:href="#DejaVuSans-61" x="433.822266"/>
      <use xlink:href="#DejaVuSans-6e" x="495.101562"/>
      <use xlink:href="#DejaVuSans-67" x="558.480469"/>
      <use xlink:href="#DejaVuSans-65" x="621.957031"/>
     </g>
    </g>
   </g>
  </g>
 </g>
 <defs>
  <clipPath id="pda34efd118">
   <rect x="57.6" y="41.472" width="357.12" height="266.112"/>
  </clipPath>
 </defs>
</svg>
