<?xml version="1.0" encoding="utf-8" standalone="no"?>
<!DOCTYPE svg PUBLIC "-//W3C//DTD SVG 1.1//EN"
  "http://www.w3.org/Graphics/SVG/1.1/DTD/svg11.dtd">
<svg xmlns:xlink="http://www.w3.org/1999/xlink" width="460.8pt" height="345.6pt" viewBox="0 0 460.8 345.6" xmlns="http://www.w3.org/2000/svg" version="1.1">
 <metadata>
  <rdf:RDF xmlns:dc="http://purl.org/dc/elements/1.1/" xmlns:cc="http://creativecommons.org/ns#" xmlns:rdf="http://www.w3.org/1999/02/22-rdf-syntax-ns#">
   <cc:Work>
    <dc:type rdf:resource="http://purl.org/dc/dcmitype/StillImage"/>
    <dc:date>2024-04-22T05:31:32.533842</dc:date>
    <dc:format>image/svg+xml</dc:format>
    <dc:creator>
     <cc:Agent>
      <dc:title>Matplotlib v3.8.4, https://matplotlib.org/</dc:title>
     </cc:Agent>
    </dc:creator>
   </cc:Work>
  </rdf:RDF>
 </metadata>
 <defs>
  <style type="text/css">*{stroke-linejoin: round; stroke-linecap: butt}</style>
 </defs>
 <g id="figure_1">
  <g id="patch_1">
   <path d="M 0 345.6 
L 460.8 345.6 
L 460.8 0 
L 0 0 
z
" style="fill: #ffffff"/>
  </g>
  <g id="axes_1">
   <g id="patch_2">
    <path d="M 57.6 307.584 
L 414.72 307.584 
L 414.72 41.472 
L 57.6 41.472 
z
" style="fill: #ffffff"/>
   </g>
   <g id="matplotlib.axis_1">
    <g id="xtick_1">
     <g id="line2d_1">
      <defs>
       <path id="mb0d0329f58" d="M 0 0 
L 0 3.5 
" style="stroke: #000000; stroke-width: 0.8"/>
      </defs>
      <g>
       <use xlink:href="#mb0d0329f58" x="59.947415" y="307.584" style="stroke: #000000; stroke-width: 0.8"/>
      </g>
     </g>
     <g id="text_1">
      <!-- 2008 -->
      <g transform="translate(47.222415 322.182437) scale(0.1 -0.1)">
       <defs>
        <path id="DejaVuSans-32" d="M 1228 531 
L 3431 531 
L 3431 0 
L 469 0 
L 469 531 
Q 828 903 1448 1529 
Q 2069 2156 2228 2338 
Q 2531 2678 2651 2914 
Q 2772 3150 2772 3378 
Q 2772 3750 2511 3984 
Q 2250 4219 1831 4219 
Q 1534 4219 1204 4116 
Q 875 4013 500 3803 
L 500 4441 
Q 881 4594 1212 4672 
Q 1544 4750 1819 4750 
Q 2544 4750 2975 4387 
Q 3406 4025 3406 3419 
Q 3406 3131 3298 2873 
Q 3191 2616 2906 2266 
Q 2828 2175 2409 1742 
Q 1991 1309 1228 531 
z
" transform="scale(0.015625)"/>
        <path id="DejaVuSans-30" d="M 2034 4250 
Q 1547 4250 1301 3770 
Q 1056 3291 1056 2328 
Q 1056 1369 1301 889 
Q 1547 409 2034 409 
Q 2525 409 2770 889 
Q 3016 1369 3016 2328 
Q 3016 3291 2770 3770 
Q 2525 4250 2034 4250 
z
M 2034 4750 
Q 2819 4750 3233 4129 
Q 3647 3509 3647 2328 
Q 3647 1150 3233 529 
Q 2819 -91 2034 -91 
Q 1250 -91 836 529 
Q 422 1150 422 2328 
Q 422 3509 836 4129 
Q 1250 4750 2034 4750 
z
" transform="scale(0.015625)"/>
        <path id="DejaVuSans-38" d="M 2034 2216 
Q 1584 2216 1326 1975 
Q 1069 1734 1069 1313 
Q 1069 891 1326 650 
Q 1584 409 2034 409 
Q 2484 409 2743 651 
Q 3003 894 3003 1313 
Q 3003 1734 2745 1975 
Q 2488 2216 2034 2216 
z
M 1403 2484 
Q 997 2584 770 2862 
Q 544 3141 544 3541 
Q 544 4100 942 4425 
Q 1341 4750 2034 4750 
Q 2731 4750 3128 4425 
Q 3525 4100 3525 3541 
Q 3525 3141 3298 2862 
Q 3072 2584 2669 2484 
Q 3125 2378 3379 2068 
Q 3634 1759 3634 1313 
Q 3634 634 3220 271 
Q 2806 -91 2034 -91 
Q 1263 -91 848 271 
Q 434 634 434 1313 
Q 434 1759 690 2068 
Q 947 2378 1403 2484 
z
M 1172 3481 
Q 1172 3119 1398 2916 
Q 1625 2713 2034 2713 
Q 2441 2713 2670 2916 
Q 2900 3119 2900 3481 
Q 2900 3844 2670 4047 
Q 2441 4250 2034 4250 
Q 1625 4250 1398 4047 
Q 1172 3844 1172 3481 
z
" transform="scale(0.015625)"/>
       </defs>
       <use xlink:href="#DejaVuSans-32"/>
       <use xlink:href="#DejaVuSans-30" x="63.623047"/>
       <use xlink:href="#DejaVuSans-30" x="127.246094"/>
       <use xlink:href="#DejaVuSans-38" x="190.869141"/>
      </g>
     </g>
    </g>
    <g id="xtick_2">
     <g id="line2d_2">
      <g>
       <use xlink:href="#mb0d0329f58" x="101.546446" y="307.584" style="stroke: #000000; stroke-width: 0.8"/>
      </g>
     </g>
     <g id="text_2">
      <!-- 2010 -->
      <g transform="translate(88.821446 322.182437) scale(0.1 -0.1)">
       <defs>
        <path id="DejaVuSans-31" d="M 794 531 
L 1825 531 
L 1825 4091 
L 703 3866 
L 703 4441 
L 1819 4666 
L 2450 4666 
L 2450 531 
L 3481 531 
L 3481 0 
L 794 0 
L 794 531 
z
" transform="scale(0.015625)"/>
       </defs>
       <use xlink:href="#DejaVuSans-32"/>
       <use xlink:href="#DejaVuSans-30" x="63.623047"/>
       <use xlink:href="#DejaVuSans-31" x="127.246094"/>
       <use xlink:href="#DejaVuSans-30" x="190.869141"/>
      </g>
     </g>
    </g>
    <g id="xtick_3">
     <g id="line2d_3">
      <g>
       <use xlink:href="#mb0d0329f58" x="143.08857" y="307.584" style="stroke: #000000; stroke-width: 0.8"/>
      </g>
     </g>
     <g id="text_3">
      <!-- 2012 -->
      <g transform="translate(130.36357 322.182437) scale(0.1 -0.1)">
       <use xlink:href="#DejaVuSans-32"/>
       <use xlink:href="#DejaVuSans-30" x="63.623047"/>
       <use xlink:href="#DejaVuSans-31" x="127.246094"/>
       <use xlink:href="#DejaVuSans-32" x="190.869141"/>
      </g>
     </g>
    </g>
    <g id="xtick_4">
     <g id="line2d_4">
      <g>
       <use xlink:href="#mb0d0329f58" x="184.687601" y="307.584" style="stroke: #000000; stroke-width: 0.8"/>
      </g>
     </g>
     <g id="text_4">
      <!-- 2014 -->
      <g transform="translate(171.962601 322.182437) scale(0.1 -0.1)">
       <defs>
        <path id="DejaVuSans-34" d="M 2419 4116 
L 825 1625 
L 2419 1625 
L 2419 4116 
z
M 2253 4666 
L 3047 4666 
L 3047 1625 
L 3713 1625 
L 3713 1100 
L 3047 1100 
L 3047 0 
L 2419 0 
L 2419 1100 
L 313 1100 
L 313 1709 
L 2253 4666 
z
" transform="scale(0.015625)"/>
       </defs>
       <use xlink:href="#DejaVuSans-32"/>
       <use xlink:href="#DejaVuSans-30" x="63.623047"/>
       <use xlink:href="#DejaVuSans-31" x="127.246094"/>
       <use xlink:href="#DejaVuSans-34" x="190.869141"/>
      </g>
     </g>
    </g>
    <g id="xtick_5">
     <g id="line2d_5">
      <g>
       <use xlink:href="#mb0d0329f58" x="226.229725" y="307.584" style="stroke: #000000; stroke-width: 0.8"/>
      </g>
     </g>
     <g id="text_5">
      <!-- 2016 -->
      <g transform="translate(213.504725 322.182437) scale(0.1 -0.1)">
       <defs>
        <path id="DejaVuSans-36" d="M 2113 2584 
Q 1688 2584 1439 2293 
Q 1191 2003 1191 1497 
Q 1191 994 1439 701 
Q 1688 409 2113 409 
Q 2538 409 2786 701 
Q 3034 994 3034 1497 
Q 3034 2003 2786 2293 
Q 2538 2584 2113 2584 
z
M 3366 4563 
L 3366 3988 
Q 3128 4100 2886 4159 
Q 2644 4219 2406 4219 
Q 1781 4219 1451 3797 
Q 1122 3375 1075 2522 
Q 1259 2794 1537 2939 
Q 1816 3084 2150 3084 
Q 2853 3084 3261 2657 
Q 3669 2231 3669 1497 
Q 3669 778 3244 343 
Q 2819 -91 2113 -91 
Q 1303 -91 875 529 
Q 447 1150 447 2328 
Q 447 3434 972 4092 
Q 1497 4750 2381 4750 
Q 2619 4750 2861 4703 
Q 3103 4656 3366 4563 
z
" transform="scale(0.015625)"/>
       </defs>
       <use xlink:href="#DejaVuSans-32"/>
       <use xlink:href="#DejaVuSans-30" x="63.623047"/>
       <use xlink:href="#DejaVuSans-31" x="127.246094"/>
       <use xlink:href="#DejaVuSans-36" x="190.869141"/>
      </g>
     </g>
    </g>
    <g id="xtick_6">
     <g id="line2d_6">
      <g>
       <use xlink:href="#mb0d0329f58" x="267.828756" y="307.584" style="stroke: #000000; stroke-width: 0.8"/>
      </g>
     </g>
     <g id="text_6">
      <!-- 2018 -->
      <g transform="translate(255.103756 322.182437) scale(0.1 -0.1)">
       <use xlink:href="#DejaVuSans-32"/>
       <use xlink:href="#DejaVuSans-30" x="63.623047"/>
       <use xlink:href="#DejaVuSans-31" x="127.246094"/>
       <use xlink:href="#DejaVuSans-38" x="190.869141"/>
      </g>
     </g>
    </g>
    <g id="xtick_7">
     <g id="line2d_7">
      <g>
       <use xlink:href="#mb0d0329f58" x="309.37088" y="307.584" style="stroke: #000000; stroke-width: 0.8"/>
      </g>
     </g>
     <g id="text_7">
      <!-- 2020 -->
      <g transform="translate(296.64588 322.182437) scale(0.1 -0.1)">
       <use xlink:href="#DejaVuSans-32"/>
       <use xlink:href="#DejaVuSans-30" x="63.623047"/>
       <use xlink:href="#DejaVuSans-32" x="127.246094"/>
       <use xlink:href="#DejaVuSans-30" x="190.869141"/>
      </g>
     </g>
    </g>
    <g id="xtick_8">
     <g id="line2d_8">
      <g>
       <use xlink:href="#mb0d0329f58" x="350.969912" y="307.584" style="stroke: #000000; stroke-width: 0.8"/>
      </g>
     </g>
     <g id="text_8">
      <!-- 2022 -->
      <g transform="translate(338.244912 322.182437) scale(0.1 -0.1)">
       <use xlink:href="#DejaVuSans-32"/>
       <use xlink:href="#DejaVuSans-30" x="63.623047"/>
       <use xlink:href="#DejaVuSans-32" x="127.246094"/>
       <use xlink:href="#DejaVuSans-32" x="190.869141"/>
      </g>
     </g>
    </g>
    <g id="xtick_9">
     <g id="line2d_9">
      <g>
       <use xlink:href="#mb0d0329f58" x="392.512036" y="307.584" style="stroke: #000000; stroke-width: 0.8"/>
      </g>
     </g>
     <g id="text_9">
      <!-- 2024 -->
      <g transform="translate(379.787036 322.182437) scale(0.1 -0.1)">
       <use xlink:href="#DejaVuSans-32"/>
       <use xlink:href="#DejaVuSans-30" x="63.623047"/>
       <use xlink:href="#DejaVuSans-32" x="127.246094"/>
       <use xlink:href="#DejaVuSans-34" x="190.869141"/>
      </g>
     </g>
    </g>
    <g id="text_10">
     <!-- Updated 2024-04-22 05:31:32.532417 - Last record 2024-04-20 -->
     <g transform="translate(75.905312 335.860562) scale(0.1 -0.1)">
      <defs>
       <path id="DejaVuSans-55" d="M 556 4666 
L 1191 4666 
L 1191 1831 
Q 1191 1081 1462 751 
Q 1734 422 2344 422 
Q 2950 422 3222 751 
Q 3494 1081 3494 1831 
L 3494 4666 
L 4128 4666 
L 4128 1753 
Q 4128 841 3676 375 
Q 3225 -91 2344 -91 
Q 1459 -91 1007 375 
Q 556 841 556 1753 
L 556 4666 
z
" transform="scale(0.015625)"/>
       <path id="DejaVuSans-70" d="M 1159 525 
L 1159 -1331 
L 581 -1331 
L 581 3500 
L 1159 3500 
L 1159 2969 
Q 1341 3281 1617 3432 
Q 1894 3584 2278 3584 
Q 2916 3584 3314 3078 
Q 3713 2572 3713 1747 
Q 3713 922 3314 415 
Q 2916 -91 2278 -91 
Q 1894 -91 1617 61 
Q 1341 213 1159 525 
z
M 3116 1747 
Q 3116 2381 2855 2742 
Q 2594 3103 2138 3103 
Q 1681 3103 1420 2742 
Q 1159 2381 1159 1747 
Q 1159 1113 1420 752 
Q 1681 391 2138 391 
Q 2594 391 2855 752 
Q 3116 1113 3116 1747 
z
" transform="scale(0.015625)"/>
       <path id="DejaVuSans-64" d="M 2906 2969 
L 2906 4863 
L 3481 4863 
L 3481 0 
L 2906 0 
L 2906 525 
Q 2725 213 2448 61 
Q 2172 -91 1784 -91 
Q 1150 -91 751 415 
Q 353 922 353 1747 
Q 353 2572 751 3078 
Q 1150 3584 1784 3584 
Q 2172 3584 2448 3432 
Q 2725 3281 2906 2969 
z
M 947 1747 
Q 947 1113 1208 752 
Q 1469 391 1925 391 
Q 2381 391 2643 752 
Q 2906 1113 2906 1747 
Q 2906 2381 2643 2742 
Q 2381 3103 1925 3103 
Q 1469 3103 1208 2742 
Q 947 2381 947 1747 
z
" transform="scale(0.015625)"/>
       <path id="DejaVuSans-61" d="M 2194 1759 
Q 1497 1759 1228 1600 
Q 959 1441 959 1056 
Q 959 750 1161 570 
Q 1363 391 1709 391 
Q 2188 391 2477 730 
Q 2766 1069 2766 1631 
L 2766 1759 
L 2194 1759 
z
M 3341 1997 
L 3341 0 
L 2766 0 
L 2766 531 
Q 2569 213 2275 61 
Q 1981 -91 1556 -91 
Q 1019 -91 701 211 
Q 384 513 384 1019 
Q 384 1609 779 1909 
Q 1175 2209 1959 2209 
L 2766 2209 
L 2766 2266 
Q 2766 2663 2505 2880 
Q 2244 3097 1772 3097 
Q 1472 3097 1187 3025 
Q 903 2953 641 2809 
L 641 3341 
Q 956 3463 1253 3523 
Q 1550 3584 1831 3584 
Q 2591 3584 2966 3190 
Q 3341 2797 3341 1997 
z
" transform="scale(0.015625)"/>
       <path id="DejaVuSans-74" d="M 1172 4494 
L 1172 3500 
L 2356 3500 
L 2356 3053 
L 1172 3053 
L 1172 1153 
Q 1172 725 1289 603 
Q 1406 481 1766 481 
L 2356 481 
L 2356 0 
L 1766 0 
Q 1100 0 847 248 
Q 594 497 594 1153 
L 594 3053 
L 172 3053 
L 172 3500 
L 594 3500 
L 594 4494 
L 1172 4494 
z
" transform="scale(0.015625)"/>
       <path id="DejaVuSans-65" d="M 3597 1894 
L 3597 1613 
L 953 1613 
Q 991 1019 1311 708 
Q 1631 397 2203 397 
Q 2534 397 2845 478 
Q 3156 559 3463 722 
L 3463 178 
Q 3153 47 2828 -22 
Q 2503 -91 2169 -91 
Q 1331 -91 842 396 
Q 353 884 353 1716 
Q 353 2575 817 3079 
Q 1281 3584 2069 3584 
Q 2775 3584 3186 3129 
Q 3597 2675 3597 1894 
z
M 3022 2063 
Q 3016 2534 2758 2815 
Q 2500 3097 2075 3097 
Q 1594 3097 1305 2825 
Q 1016 2553 972 2059 
L 3022 2063 
z
" transform="scale(0.015625)"/>
       <path id="DejaVuSans-20" transform="scale(0.015625)"/>
       <path id="DejaVuSans-2d" d="M 313 2009 
L 1997 2009 
L 1997 1497 
L 313 1497 
L 313 2009 
z
" transform="scale(0.015625)"/>
       <path id="DejaVuSans-35" d="M 691 4666 
L 3169 4666 
L 3169 4134 
L 1269 4134 
L 1269 2991 
Q 1406 3038 1543 3061 
Q 1681 3084 1819 3084 
Q 2600 3084 3056 2656 
Q 3513 2228 3513 1497 
Q 3513 744 3044 326 
Q 2575 -91 1722 -91 
Q 1428 -91 1123 -41 
Q 819 9 494 109 
L 494 744 
Q 775 591 1075 516 
Q 1375 441 1709 441 
Q 2250 441 2565 725 
Q 2881 1009 2881 1497 
Q 2881 1984 2565 2268 
Q 2250 2553 1709 2553 
Q 1456 2553 1204 2497 
Q 953 2441 691 2322 
L 691 4666 
z
" transform="scale(0.015625)"/>
       <path id="DejaVuSans-3a" d="M 750 794 
L 1409 794 
L 1409 0 
L 750 0 
L 750 794 
z
M 750 3309 
L 1409 3309 
L 1409 2516 
L 750 2516 
L 750 3309 
z
" transform="scale(0.015625)"/>
       <path id="DejaVuSans-33" d="M 2597 2516 
Q 3050 2419 3304 2112 
Q 3559 1806 3559 1356 
Q 3559 666 3084 287 
Q 2609 -91 1734 -91 
Q 1441 -91 1130 -33 
Q 819 25 488 141 
L 488 750 
Q 750 597 1062 519 
Q 1375 441 1716 441 
Q 2309 441 2620 675 
Q 2931 909 2931 1356 
Q 2931 1769 2642 2001 
Q 2353 2234 1838 2234 
L 1294 2234 
L 1294 2753 
L 1863 2753 
Q 2328 2753 2575 2939 
Q 2822 3125 2822 3475 
Q 2822 3834 2567 4026 
Q 2313 4219 1838 4219 
Q 1578 4219 1281 4162 
Q 984 4106 628 3988 
L 628 4550 
Q 988 4650 1302 4700 
Q 1616 4750 1894 4750 
Q 2613 4750 3031 4423 
Q 3450 4097 3450 3541 
Q 3450 3153 3228 2886 
Q 3006 2619 2597 2516 
z
" transform="scale(0.015625)"/>
       <path id="DejaVuSans-2e" d="M 684 794 
L 1344 794 
L 1344 0 
L 684 0 
L 684 794 
z
" transform="scale(0.015625)"/>
       <path id="DejaVuSans-37" d="M 525 4666 
L 3525 4666 
L 3525 4397 
L 1831 0 
L 1172 0 
L 2766 4134 
L 525 4134 
L 525 4666 
z
" transform="scale(0.015625)"/>
       <path id="DejaVuSans-4c" d="M 628 4666 
L 1259 4666 
L 1259 531 
L 3531 531 
L 3531 0 
L 628 0 
L 628 4666 
z
" transform="scale(0.015625)"/>
       <path id="DejaVuSans-73" d="M 2834 3397 
L 2834 2853 
Q 2591 2978 2328 3040 
Q 2066 3103 1784 3103 
Q 1356 3103 1142 2972 
Q 928 2841 928 2578 
Q 928 2378 1081 2264 
Q 1234 2150 1697 2047 
L 1894 2003 
Q 2506 1872 2764 1633 
Q 3022 1394 3022 966 
Q 3022 478 2636 193 
Q 2250 -91 1575 -91 
Q 1294 -91 989 -36 
Q 684 19 347 128 
L 347 722 
Q 666 556 975 473 
Q 1284 391 1588 391 
Q 1994 391 2212 530 
Q 2431 669 2431 922 
Q 2431 1156 2273 1281 
Q 2116 1406 1581 1522 
L 1381 1569 
Q 847 1681 609 1914 
Q 372 2147 372 2553 
Q 372 3047 722 3315 
Q 1072 3584 1716 3584 
Q 2034 3584 2315 3537 
Q 2597 3491 2834 3397 
z
" transform="scale(0.015625)"/>
       <path id="DejaVuSans-72" d="M 2631 2963 
Q 2534 3019 2420 3045 
Q 2306 3072 2169 3072 
Q 1681 3072 1420 2755 
Q 1159 2438 1159 1844 
L 1159 0 
L 581 0 
L 581 3500 
L 1159 3500 
L 1159 2956 
Q 1341 3275 1631 3429 
Q 1922 3584 2338 3584 
Q 2397 3584 2469 3576 
Q 2541 3569 2628 3553 
L 2631 2963 
z
" transform="scale(0.015625)"/>
       <path id="DejaVuSans-63" d="M 3122 3366 
L 3122 2828 
Q 2878 2963 2633 3030 
Q 2388 3097 2138 3097 
Q 1578 3097 1268 2742 
Q 959 2388 959 1747 
Q 959 1106 1268 751 
Q 1578 397 2138 397 
Q 2388 397 2633 464 
Q 2878 531 3122 666 
L 3122 134 
Q 2881 22 2623 -34 
Q 2366 -91 2075 -91 
Q 1284 -91 818 406 
Q 353 903 353 1747 
Q 353 2603 823 3093 
Q 1294 3584 2113 3584 
Q 2378 3584 2631 3529 
Q 2884 3475 3122 3366 
z
" transform="scale(0.015625)"/>
       <path id="DejaVuSans-6f" d="M 1959 3097 
Q 1497 3097 1228 2736 
Q 959 2375 959 1747 
Q 959 1119 1226 758 
Q 1494 397 1959 397 
Q 2419 397 2687 759 
Q 2956 1122 2956 1747 
Q 2956 2369 2687 2733 
Q 2419 3097 1959 3097 
z
M 1959 3584 
Q 2709 3584 3137 3096 
Q 3566 2609 3566 1747 
Q 3566 888 3137 398 
Q 2709 -91 1959 -91 
Q 1206 -91 779 398 
Q 353 888 353 1747 
Q 353 2609 779 3096 
Q 1206 3584 1959 3584 
z
" transform="scale(0.015625)"/>
      </defs>
      <use xlink:href="#DejaVuSans-55"/>
      <use xlink:href="#DejaVuSans-70" x="73.193359"/>
      <use xlink:href="#DejaVuSans-64" x="136.669922"/>
      <use xlink:href="#DejaVuSans-61" x="200.146484"/>
      <use xlink:href="#DejaVuSans-74" x="261.425781"/>
      <use xlink:href="#DejaVuSans-65" x="300.634766"/>
      <use xlink:href="#DejaVuSans-64" x="362.158203"/>
      <use xlink:href="#DejaVuSans-20" x="425.634766"/>
      <use xlink:href="#DejaVuSans-32" x="457.421875"/>
      <use xlink:href="#DejaVuSans-30" x="521.044922"/>
      <use xlink:href="#DejaVuSans-32" x="584.667969"/>
      <use xlink:href="#DejaVuSans-34" x="648.291016"/>
      <use xlink:href="#DejaVuSans-2d" x="711.914062"/>
      <use xlink:href="#DejaVuSans-30" x="747.998047"/>
      <use xlink:href="#DejaVuSans-34" x="811.621094"/>
      <use xlink:href="#DejaVuSans-2d" x="875.244141"/>
      <use xlink:href="#DejaVuSans-32" x="911.328125"/>
      <use xlink:href="#DejaVuSans-32" x="974.951172"/>
      <use xlink:href="#DejaVuSans-20" x="1038.574219"/>
      <use xlink:href="#DejaVuSans-30" x="1070.361328"/>
      <use xlink:href="#DejaVuSans-35" x="1133.984375"/>
      <use xlink:href="#DejaVuSans-3a" x="1197.607422"/>
      <use xlink:href="#DejaVuSans-33" x="1231.298828"/>
      <use xlink:href="#DejaVuSans-31" x="1294.921875"/>
      <use xlink:href="#DejaVuSans-3a" x="1358.544922"/>
      <use xlink:href="#DejaVuSans-33" x="1392.236328"/>
      <use xlink:href="#DejaVuSans-32" x="1455.859375"/>
      <use xlink:href="#DejaVuSans-2e" x="1519.482422"/>
      <use xlink:href="#DejaVuSans-35" x="1551.269531"/>
      <use xlink:href="#DejaVuSans-33" x="1614.892578"/>
      <use xlink:href="#DejaVuSans-32" x="1678.515625"/>
      <use xlink:href="#DejaVuSans-34" x="1742.138672"/>
      <use xlink:href="#DejaVuSans-31" x="1805.761719"/>
      <use xlink:href="#DejaVuSans-37" x="1869.384766"/>
      <use xlink:href="#DejaVuSans-20" x="1933.007812"/>
      <use xlink:href="#DejaVuSans-2d" x="1964.794922"/>
      <use xlink:href="#DejaVuSans-20" x="2000.878906"/>
      <use xlink:href="#DejaVuSans-4c" x="2032.666016"/>
      <use xlink:href="#DejaVuSans-61" x="2088.378906"/>
      <use xlink:href="#DejaVuSans-73" x="2149.658203"/>
      <use xlink:href="#DejaVuSans-74" x="2201.757812"/>
      <use xlink:href="#DejaVuSans-20" x="2240.966797"/>
      <use xlink:href="#DejaVuSans-72" x="2272.753906"/>
      <use xlink:href="#DejaVuSans-65" x="2311.617188"/>
      <use xlink:href="#DejaVuSans-63" x="2373.140625"/>
      <use xlink:href="#DejaVuSans-6f" x="2428.121094"/>
      <use xlink:href="#DejaVuSans-72" x="2489.302734"/>
      <use xlink:href="#DejaVuSans-64" x="2528.666016"/>
      <use xlink:href="#DejaVuSans-20" x="2592.142578"/>
      <use xlink:href="#DejaVuSans-32" x="2623.929688"/>
      <use xlink:href="#DejaVuSans-30" x="2687.552734"/>
      <use xlink:href="#DejaVuSans-32" x="2751.175781"/>
      <use xlink:href="#DejaVuSans-34" x="2814.798828"/>
      <use xlink:href="#DejaVuSans-2d" x="2878.421875"/>
      <use xlink:href="#DejaVuSans-30" x="2914.505859"/>
      <use xlink:href="#DejaVuSans-34" x="2978.128906"/>
      <use xlink:href="#DejaVuSans-2d" x="3041.751953"/>
      <use xlink:href="#DejaVuSans-32" x="3077.835938"/>
      <use xlink:href="#DejaVuSans-30" x="3141.458984"/>
     </g>
    </g>
   </g>
   <g id="matplotlib.axis_2">
    <g id="ytick_1">
     <g id="line2d_10">
      <defs>
       <path id="m0b9fb8b496" d="M 0 0 
L -3.5 0 
" style="stroke: #000000; stroke-width: 0.8"/>
      </defs>
      <g>
       <use xlink:href="#m0b9fb8b496" x="57.6" y="295.488" style="stroke: #000000; stroke-width: 0.8"/>
      </g>
     </g>
     <g id="text_11">
      <!-- 0 -->
      <g transform="translate(44.2375 299.287219) scale(0.1 -0.1)">
       <use xlink:href="#DejaVuSans-30"/>
      </g>
     </g>
    </g>
    <g id="ytick_2">
     <g id="line2d_11">
      <g>
       <use xlink:href="#m0b9fb8b496" x="57.6" y="242.529884" style="stroke: #000000; stroke-width: 0.8"/>
      </g>
     </g>
     <g id="text_12">
      <!-- 10 -->
      <g transform="translate(37.875 246.329102) scale(0.1 -0.1)">
       <use xlink:href="#DejaVuSans-31"/>
       <use xlink:href="#DejaVuSans-30" x="63.623047"/>
      </g>
     </g>
    </g>
    <g id="ytick_3">
     <g id="line2d_12">
      <g>
       <use xlink:href="#m0b9fb8b496" x="57.6" y="189.571767" style="stroke: #000000; stroke-width: 0.8"/>
      </g>
     </g>
     <g id="text_13">
      <!-- 20 -->
      <g transform="translate(37.875 193.370986) scale(0.1 -0.1)">
       <use xlink:href="#DejaVuSans-32"/>
       <use xlink:href="#DejaVuSans-30" x="63.623047"/>
      </g>
     </g>
    </g>
    <g id="ytick_4">
     <g id="line2d_13">
      <g>
       <use xlink:href="#m0b9fb8b496" x="57.6" y="136.613651" style="stroke: #000000; stroke-width: 0.8"/>
      </g>
     </g>
     <g id="text_14">
      <!-- 30 -->
      <g transform="translate(37.875 140.412869) scale(0.1 -0.1)">
       <use xlink:href="#DejaVuSans-33"/>
       <use xlink:href="#DejaVuSans-30" x="63.623047"/>
      </g>
     </g>
    </g>
    <g id="ytick_5">
     <g id="line2d_14">
      <g>
       <use xlink:href="#m0b9fb8b496" x="57.6" y="83.655534" style="stroke: #000000; stroke-width: 0.8"/>
      </g>
     </g>
     <g id="text_15">
      <!-- 40 -->
      <g transform="translate(37.875 87.454753) scale(0.1 -0.1)">
       <use xlink:href="#DejaVuSans-34"/>
       <use xlink:href="#DejaVuSans-30" x="63.623047"/>
      </g>
     </g>
    </g>
    <g id="text_16">
     <!-- IPv6 as % of total Google traffic -->
     <g transform="translate(31.795312 253.735813) rotate(-90) scale(0.1 -0.1)">
      <defs>
       <path id="DejaVuSans-49" d="M 628 4666 
L 1259 4666 
L 1259 0 
L 628 0 
L 628 4666 
z
" transform="scale(0.015625)"/>
       <path id="DejaVuSans-50" d="M 1259 4147 
L 1259 2394 
L 2053 2394 
Q 2494 2394 2734 2622 
Q 2975 2850 2975 3272 
Q 2975 3691 2734 3919 
Q 2494 4147 2053 4147 
L 1259 4147 
z
M 628 4666 
L 2053 4666 
Q 2838 4666 3239 4311 
Q 3641 3956 3641 3272 
Q 3641 2581 3239 2228 
Q 2838 1875 2053 1875 
L 1259 1875 
L 1259 0 
L 628 0 
L 628 4666 
z
" transform="scale(0.015625)"/>
       <path id="DejaVuSans-76" d="M 191 3500 
L 800 3500 
L 1894 563 
L 2988 3500 
L 3597 3500 
L 2284 0 
L 1503 0 
L 191 3500 
z
" transform="scale(0.015625)"/>
       <path id="DejaVuSans-25" d="M 4653 2053 
Q 4381 2053 4226 1822 
Q 4072 1591 4072 1178 
Q 4072 772 4226 539 
Q 4381 306 4653 306 
Q 4919 306 5073 539 
Q 5228 772 5228 1178 
Q 5228 1588 5073 1820 
Q 4919 2053 4653 2053 
z
M 4653 2450 
Q 5147 2450 5437 2106 
Q 5728 1763 5728 1178 
Q 5728 594 5436 251 
Q 5144 -91 4653 -91 
Q 4153 -91 3862 251 
Q 3572 594 3572 1178 
Q 3572 1766 3864 2108 
Q 4156 2450 4653 2450 
z
M 1428 4353 
Q 1159 4353 1004 4120 
Q 850 3888 850 3481 
Q 850 3069 1003 2837 
Q 1156 2606 1428 2606 
Q 1700 2606 1854 2837 
Q 2009 3069 2009 3481 
Q 2009 3884 1853 4118 
Q 1697 4353 1428 4353 
z
M 4250 4750 
L 4750 4750 
L 1831 -91 
L 1331 -91 
L 4250 4750 
z
M 1428 4750 
Q 1922 4750 2215 4408 
Q 2509 4066 2509 3481 
Q 2509 2891 2217 2550 
Q 1925 2209 1428 2209 
Q 931 2209 642 2551 
Q 353 2894 353 3481 
Q 353 4063 643 4406 
Q 934 4750 1428 4750 
z
" transform="scale(0.015625)"/>
       <path id="DejaVuSans-66" d="M 2375 4863 
L 2375 4384 
L 1825 4384 
Q 1516 4384 1395 4259 
Q 1275 4134 1275 3809 
L 1275 3500 
L 2222 3500 
L 2222 3053 
L 1275 3053 
L 1275 0 
L 697 0 
L 697 3053 
L 147 3053 
L 147 3500 
L 697 3500 
L 697 3744 
Q 697 4328 969 4595 
Q 1241 4863 1831 4863 
L 2375 4863 
z
" transform="scale(0.015625)"/>
       <path id="DejaVuSans-6c" d="M 603 4863 
L 1178 4863 
L 1178 0 
L 603 0 
L 603 4863 
z
" transform="scale(0.015625)"/>
       <path id="DejaVuSans-47" d="M 3809 666 
L 3809 1919 
L 2778 1919 
L 2778 2438 
L 4434 2438 
L 4434 434 
Q 4069 175 3628 42 
Q 3188 -91 2688 -91 
Q 1594 -91 976 548 
Q 359 1188 359 2328 
Q 359 3472 976 4111 
Q 1594 4750 2688 4750 
Q 3144 4750 3555 4637 
Q 3966 4525 4313 4306 
L 4313 3634 
Q 3963 3931 3569 4081 
Q 3175 4231 2741 4231 
Q 1884 4231 1454 3753 
Q 1025 3275 1025 2328 
Q 1025 1384 1454 906 
Q 1884 428 2741 428 
Q 3075 428 3337 486 
Q 3600 544 3809 666 
z
" transform="scale(0.015625)"/>
       <path id="DejaVuSans-67" d="M 2906 1791 
Q 2906 2416 2648 2759 
Q 2391 3103 1925 3103 
Q 1463 3103 1205 2759 
Q 947 2416 947 1791 
Q 947 1169 1205 825 
Q 1463 481 1925 481 
Q 2391 481 2648 825 
Q 2906 1169 2906 1791 
z
M 3481 434 
Q 3481 -459 3084 -895 
Q 2688 -1331 1869 -1331 
Q 1566 -1331 1297 -1286 
Q 1028 -1241 775 -1147 
L 775 -588 
Q 1028 -725 1275 -790 
Q 1522 -856 1778 -856 
Q 2344 -856 2625 -561 
Q 2906 -266 2906 331 
L 2906 616 
Q 2728 306 2450 153 
Q 2172 0 1784 0 
Q 1141 0 747 490 
Q 353 981 353 1791 
Q 353 2603 747 3093 
Q 1141 3584 1784 3584 
Q 2172 3584 2450 3431 
Q 2728 3278 2906 2969 
L 2906 3500 
L 3481 3500 
L 3481 434 
z
" transform="scale(0.015625)"/>
       <path id="DejaVuSans-69" d="M 603 3500 
L 1178 3500 
L 1178 0 
L 603 0 
L 603 3500 
z
M 603 4863 
L 1178 4863 
L 1178 4134 
L 603 4134 
L 603 4863 
z
" transform="scale(0.015625)"/>
      </defs>
      <use xlink:href="#DejaVuSans-49"/>
      <use xlink:href="#DejaVuSans-50" x="29.492188"/>
      <use xlink:href="#DejaVuSans-76" x="89.794922"/>
      <use xlink:href="#DejaVuSans-36" x="148.974609"/>
      <use xlink:href="#DejaVuSans-20" x="212.597656"/>
      <use xlink:href="#DejaVuSans-61" x="244.384766"/>
      <use xlink:href="#DejaVuSans-73" x="305.664062"/>
      <use xlink:href="#DejaVuSans-20" x="357.763672"/>
      <use xlink:href="#DejaVuSans-25" x="389.550781"/>
      <use xlink:href="#DejaVuSans-20" x="484.570312"/>
      <use xlink:href="#DejaVuSans-6f" x="516.357422"/>
      <use xlink:href="#DejaVuSans-66" x="577.539062"/>
      <use xlink:href="#DejaVuSans-20" x="612.744141"/>
      <use xlink:href="#DejaVuSans-74" x="644.53125"/>
      <use xlink:href="#DejaVuSans-6f" x="683.740234"/>
      <use xlink:href="#DejaVuSans-74" x="744.921875"/>
      <use xlink:href="#DejaVuSans-61" x="784.130859"/>
      <use xlink:href="#DejaVuSans-6c" x="845.410156"/>
      <use xlink:href="#DejaVuSans-20" x="873.193359"/>
      <use xlink:href="#DejaVuSans-47" x="904.980469"/>
      <use xlink:href="#DejaVuSans-6f" x="982.470703"/>
      <use xlink:href="#DejaVuSans-6f" x="1043.652344"/>
      <use xlink:href="#DejaVuSans-67" x="1104.833984"/>
      <use xlink:href="#DejaVuSans-6c" x="1168.310547"/>
      <use xlink:href="#DejaVuSans-65" x="1196.09375"/>
      <use xlink:href="#DejaVuSans-20" x="1257.617188"/>
      <use xlink:href="#DejaVuSans-74" x="1289.404297"/>
      <use xlink:href="#DejaVuSans-72" x="1328.613281"/>
      <use xlink:href="#DejaVuSans-61" x="1369.726562"/>
      <use xlink:href="#DejaVuSans-66" x="1431.005859"/>
      <use xlink:href="#DejaVuSans-66" x="1466.210938"/>
      <use xlink:href="#DejaVuSans-69" x="1501.416016"/>
      <use xlink:href="#DejaVuSans-63" x="1529.199219"/>
     </g>
    </g>
   </g>
   <g id="line2d_15">
    <path d="M 73.832727 294.52314 
L 75.426124 294.359611 
L 75.824473 294.515329 
L 77.417869 294.514646 
L 79.011266 294.372702 
L 79.409615 294.247181 
L 80.604663 294.268004 
L 84.189805 294.192851 
L 85.384852 294.220373 
L 86.978249 294.145607 
L 90.165042 294.210433 
L 90.563391 294.312314 
L 92.555137 294.287561 
L 93.750184 294.238935 
L 95.343581 294.143881 
L 96.140279 294.15256 
L 96.538628 293.894739 
L 98.928723 293.806299 
L 99.725421 293.772364 
L 101.717167 293.854443 
L 103.708912 293.904436 
L 105.700658 293.871994 
L 106.895706 294.059815 
L 108.090753 294.007905 
L 108.887451 294.091182 
L 109.684149 294.170805 
L 110.082499 294.091373 
L 112.472593 294.30839 
L 114.464339 294.222465 
L 115.261037 294.118397 
L 115.659387 294.032616 
L 116.456085 294.02839 
L 119.244529 293.966058 
L 120.041227 294.05588 
L 120.439576 293.929358 
L 122.829671 294.164036 
L 126.016464 293.994973 
L 126.414813 294.000629 
L 126.813162 293.880202 
L 127.609861 293.980934 
L 128.406559 293.79396 
L 128.804908 293.840441 
L 129.203257 293.725655 
L 129.601606 293.775912 
L 130.398305 293.669101 
L 131.593352 293.653896 
L 131.991701 293.785683 
L 133.585098 293.81545 
L 134.381796 293.829601 
L 134.780145 293.792175 
L 135.178494 293.618293 
L 136.771891 293.523069 
L 137.17024 293.617922 
L 140.755382 293.30459 
L 141.55208 293.11098 
L 142.348779 293.257235 
L 145.137223 292.860478 
L 145.535572 292.79169 
L 145.933921 292.897728 
L 148.324016 292.390565 
L 149.120714 292.407156 
L 150.315761 292.063993 
L 152.307507 291.587757 
L 153.502554 291.465328 
L 153.900904 291.565334 
L 155.892649 291.189183 
L 157.087697 290.817523 
L 157.486046 290.873754 
L 157.884395 290.540107 
L 158.282744 290.379162 
L 159.876141 290.185103 
L 160.27449 290.341599 
L 161.071188 290.152592 
L 161.469537 290.105708 
L 161.867886 289.862339 
L 162.664584 289.699948 
L 164.257981 289.683033 
L 165.054679 289.47558 
L 166.249727 289.322722 
L 166.648076 289.122863 
L 167.046425 289.103587 
L 167.444774 289.206929 
L 169.038171 288.459769 
L 169.43652 288.476886 
L 171.029916 288.007062 
L 171.428265 287.692205 
L 171.826615 287.619965 
L 172.224964 287.425116 
L 172.623313 287.456849 
L 173.81836 286.978377 
L 174.216709 287.062983 
L 174.615059 286.827473 
L 175.013408 286.786081 
L 177.005153 285.679654 
L 177.801852 285.342814 
L 178.59855 284.752881 
L 179.793597 283.294881 
L 180.191946 283.527108 
L 180.590296 283.567282 
L 181.785343 282.18212 
L 182.183692 282.016027 
L 182.582041 281.315884 
L 183.37874 281.097479 
L 184.175438 280.631453 
L 184.573787 280.680021 
L 185.768834 279.915459 
L 186.167183 279.753069 
L 186.565533 279.452754 
L 187.362231 279.381594 
L 187.76058 278.701273 
L 188.158929 278.692307 
L 188.557278 277.944342 
L 188.955627 277.556975 
L 189.752326 277.668155 
L 190.150675 277.391227 
L 190.549024 276.964644 
L 191.345722 276.468066 
L 191.744071 276.024139 
L 192.142421 276.296312 
L 193.735817 275.425315 
L 194.134166 275.103261 
L 194.532515 273.779822 
L 194.930864 274.03087 
L 195.727563 273.132192 
L 196.125912 273.093607 
L 196.524261 273.482113 
L 197.719308 272.598104 
L 198.117658 271.998385 
L 198.914356 272.044623 
L 199.312705 271.395711 
L 199.711054 271.351046 
L 200.109403 267.913254 
L 200.507752 270.175143 
L 200.906102 271.522588 
L 201.304451 270.867851 
L 201.7028 270.501969 
L 202.101149 270.443005 
L 202.499498 269.58189 
L 202.897847 269.312069 
L 204.092895 267.443044 
L 204.491244 266.222683 
L 204.889593 265.526135 
L 205.287942 264.580468 
L 205.686291 263.956102 
L 206.08464 264.95324 
L 206.482989 264.800641 
L 206.881339 264.828248 
L 207.279688 264.989331 
L 207.678037 265.290112 
L 208.076386 265.175357 
L 208.474735 262.976308 
L 208.873084 263.301577 
L 210.068132 262.142821 
L 210.466481 261.98686 
L 211.263179 262.05543 
L 211.661528 260.393138 
L 212.059877 260.332596 
L 212.856576 259.020755 
L 213.254925 259.468013 
L 213.653274 257.420488 
L 214.051623 257.904451 
L 214.449972 256.522249 
L 214.848321 255.860379 
L 215.24667 254.866556 
L 215.64502 255.556706 
L 216.043369 254.511266 
L 216.441718 252.772047 
L 216.840067 253.648451 
L 217.238416 253.898291 
L 217.636765 253.358426 
L 218.035114 251.768146 
L 218.433463 252.209896 
L 218.831813 250.805839 
L 219.230162 251.129275 
L 220.02686 249.235578 
L 220.425209 248.276279 
L 221.620257 247.975095 
L 222.018606 246.867402 
L 222.416955 247.002196 
L 222.815304 246.586666 
L 223.213653 245.488818 
L 223.612002 245.210179 
L 224.010351 243.982631 
L 224.408701 243.141105 
L 224.80705 242.992796 
L 225.205399 243.199931 
L 225.603748 242.664477 
L 226.002097 240.383465 
L 226.798795 241.72143 
L 227.197144 241.464414 
L 227.993843 241.387397 
L 228.392192 241.432713 
L 229.18889 241.1575 
L 229.587239 239.874124 
L 229.985588 239.81337 
L 230.383938 238.675211 
L 230.782287 238.672012 
L 231.180636 238.499114 
L 232.375683 235.243879 
L 232.774032 233.326584 
L 233.172381 234.635904 
L 233.570731 234.087115 
L 233.96908 232.952779 
L 234.367429 233.205273 
L 234.765778 230.783487 
L 235.164127 231.138794 
L 235.562476 230.841842 
L 235.960825 229.152007 
L 236.359175 229.136013 
L 236.757524 227.876426 
L 237.155873 228.179712 
L 237.554222 227.183442 
L 237.952571 226.654195 
L 238.35092 226.935365 
L 238.749269 226.253185 
L 239.147619 225.188944 
L 239.545968 225.529153 
L 239.944317 225.024414 
L 240.342666 223.349629 
L 240.741015 222.649258 
L 241.139364 222.714773 
L 241.537713 220.75627 
L 241.936062 221.104555 
L 242.732761 218.771882 
L 243.13111 216.444161 
L 243.529459 216.674227 
L 244.326157 215.365335 
L 244.724506 213.898756 
L 245.122856 214.094817 
L 245.521205 213.480191 
L 245.919554 211.161303 
L 246.317903 210.347713 
L 246.716252 206.503102 
L 247.114601 209.00273 
L 247.51295 208.549536 
L 247.911299 209.145648 
L 248.309649 208.445643 
L 249.106347 209.58251 
L 249.504696 209.355871 
L 249.903045 208.3593 
L 250.301394 208.659011 
L 251.098093 207.389748 
L 251.496442 206.338021 
L 251.894791 206.171229 
L 252.29314 205.460277 
L 252.691489 202.903698 
L 253.089838 203.705944 
L 253.488187 200.277584 
L 253.886537 200.542968 
L 254.284886 198.67944 
L 254.683235 197.530827 
L 255.878282 195.418301 
L 256.276631 193.689467 
L 256.67498 190.839108 
L 257.07333 191.558888 
L 258.666726 188.31254 
L 259.065075 187.778642 
L 259.463424 187.798851 
L 259.861774 188.092996 
L 260.260123 187.082953 
L 260.658472 185.667372 
L 261.056821 186.935539 
L 261.45517 186.960016 
L 261.853519 188.089808 
L 262.251868 186.853385 
L 262.650218 184.931074 
L 263.048567 185.177393 
L 263.446916 184.347497 
L 264.641963 183.027711 
L 265.438661 182.058287 
L 265.837011 181.953276 
L 266.23536 196.009594 
L 266.633709 180.168821 
L 267.032058 179.408506 
L 267.430407 175.567179 
L 267.828756 179.131032 
L 268.625455 178.610284 
L 269.023804 178.607764 
L 269.422153 178.130839 
L 269.820502 177.895805 
L 270.218851 179.201451 
L 270.6172 180.029181 
L 271.015549 179.827961 
L 271.413898 178.706568 
L 271.812248 178.78709 
L 273.007295 177.844123 
L 273.405644 175.324853 
L 273.803993 176.319216 
L 274.202342 173.651101 
L 274.600692 174.776143 
L 274.999041 172.536619 
L 275.39739 171.138275 
L 275.795739 171.962775 
L 276.194088 170.247933 
L 276.592437 169.109302 
L 276.990786 168.867188 
L 277.389136 169.798059 
L 277.787485 170.289092 
L 278.982532 167.774222 
L 279.380881 168.352573 
L 279.77923 169.186043 
L 280.177579 169.347661 
L 280.575929 167.440231 
L 280.974278 166.729766 
L 281.372627 165.347056 
L 281.770976 165.006377 
L 282.169325 164.81273 
L 282.567674 164.957428 
L 282.966023 164.77504 
L 283.762722 162.875665 
L 284.161071 163.983793 
L 284.55942 160.473485 
L 284.957769 160.563773 
L 285.356118 160.135713 
L 285.754467 157.575479 
L 286.152817 156.807301 
L 286.551166 156.34558 
L 286.949515 156.348943 
L 287.347864 154.960927 
L 287.746213 154.866306 
L 288.542911 152.671701 
L 288.94126 154.120264 
L 289.33961 155.053291 
L 290.136308 152.831348 
L 290.534657 153.921131 
L 290.933006 153.721871 
L 291.331355 154.196238 
L 291.729704 152.519091 
L 292.128054 151.933915 
L 292.526403 153.201896 
L 292.924752 151.381747 
L 293.323101 151.527382 
L 293.72145 151.008186 
L 294.518148 150.806913 
L 294.916497 147.211544 
L 295.314847 147.106814 
L 295.713196 147.390569 
L 296.111545 148.260205 
L 296.908243 144.064498 
L 297.306592 142.213595 
L 297.704941 141.743804 
L 298.103291 141.905167 
L 298.50164 141.567358 
L 298.899989 139.728779 
L 299.298338 141.24497 
L 299.696687 139.630664 
L 300.095036 141.128696 
L 300.493385 140.054816 
L 300.891735 139.404776 
L 301.290084 139.350569 
L 301.688433 139.423804 
L 302.086782 138.023931 
L 302.485131 138.182985 
L 302.88348 139.698053 
L 303.281829 139.184688 
L 303.680178 139.806151 
L 304.078528 140.060154 
L 304.476877 138.118503 
L 304.875226 139.281368 
L 305.273575 139.593848 
L 305.671924 138.872224 
L 306.070273 138.431311 
L 306.468622 136.692045 
L 306.866972 137.059129 
L 307.265321 136.680584 
L 307.66367 136.806122 
L 308.062019 135.794706 
L 308.460368 135.352273 
L 308.858717 134.072079 
L 309.257066 133.512513 
L 309.655416 134.303591 
L 310.053765 134.538799 
L 310.452114 134.591715 
L 311.248812 132.771174 
L 311.647161 133.207612 
L 312.04551 131.880064 
L 312.443859 132.454633 
L 312.842209 132.206333 
L 313.240558 131.288098 
L 313.638907 131.512497 
L 314.037256 132.143281 
L 314.435605 131.855719 
L 314.833954 131.870748 
L 315.232303 129.485531 
L 316.029002 127.787339 
L 316.427351 128.067725 
L 316.8257 127.474044 
L 317.224049 125.498129 
L 317.622398 126.137307 
L 318.020747 123.301881 
L 318.419096 125.571052 
L 318.817446 123.692559 
L 319.215795 121.124683 
L 319.614144 121.875862 
L 320.012493 120.272481 
L 320.410842 119.190552 
L 320.809191 119.294054 
L 321.20754 118.482354 
L 321.60589 120.517217 
L 322.004239 118.82199 
L 322.402588 119.457636 
L 322.800937 119.830577 
L 323.995984 117.229635 
L 324.394334 119.395119 
L 324.792683 119.438507 
L 325.191032 118.481221 
L 325.589381 119.023665 
L 325.98773 120.338832 
L 326.386079 119.315983 
L 326.784428 116.936067 
L 327.182777 120.887007 
L 327.581127 119.822724 
L 327.979476 118.282246 
L 328.377825 119.574514 
L 328.776174 119.667885 
L 329.174523 117.557578 
L 329.572872 116.50663 
L 329.971221 114.579997 
L 330.369571 115.519533 
L 330.76792 114.807728 
L 331.166269 115.027271 
L 331.564618 115.630395 
L 331.962967 114.090294 
L 332.361316 113.458848 
L 332.759665 114.600593 
L 333.158015 114.316022 
L 333.556364 111.845389 
L 333.954713 111.301927 
L 334.353062 109.620475 
L 334.751411 112.381648 
L 335.14976 113.297394 
L 335.548109 112.397154 
L 335.946458 112.224992 
L 336.344808 112.366179 
L 336.743157 107.496171 
L 337.141506 110.751798 
L 337.539855 108.875783 
L 338.336553 109.824798 
L 338.734902 105.212384 
L 339.133252 104.622908 
L 339.531601 102.767515 
L 339.92995 102.69367 
L 340.328299 104.371923 
L 340.726648 102.057558 
L 341.124997 101.602627 
L 341.523346 100.407447 
L 341.921695 99.975219 
L 342.320045 98.617282 
L 342.718394 98.820308 
L 343.116743 102.112592 
L 343.515092 100.337203 
L 343.913441 99.213067 
L 344.31179 101.351023 
L 344.710139 100.168733 
L 345.108489 99.752551 
L 345.506838 98.045605 
L 346.303536 100.762314 
L 346.701885 100.463953 
L 347.100234 100.88989 
L 347.498583 100.754937 
L 347.896933 99.224394 
L 348.295282 100.994053 
L 348.693631 98.867923 
L 349.09198 98.116034 
L 349.490329 98.037259 
L 350.287027 95.390327 
L 350.685376 92.436753 
L 351.083726 94.451078 
L 351.482075 98.213355 
L 351.880424 93.975482 
L 352.278773 93.776402 
L 352.677122 96.620248 
L 353.47382 92.835156 
L 353.87217 92.78456 
L 354.270519 93.583619 
L 354.668868 93.551013 
L 355.067217 94.162917 
L 355.465566 86.969314 
L 355.863915 86.201369 
L 356.262264 86.415812 
L 356.660613 84.945626 
L 357.058963 84.463416 
L 357.457312 81.906434 
L 357.855661 85.15544 
L 358.25401 86.422273 
L 358.652359 83.642814 
L 359.050708 85.474322 
L 359.449057 82.359723 
L 359.847407 80.773887 
L 360.245756 76.926665 
L 360.644105 77.961885 
L 361.042454 72.261659 
L 361.839152 76.25736 
L 362.237501 78.082005 
L 362.635851 76.420126 
L 363.0342 76.744309 
L 363.432549 77.441514 
L 363.830898 77.299565 
L 364.229247 79.3257 
L 364.627596 78.381213 
L 365.025945 76.900546 
L 365.424294 77.242068 
L 365.822644 75.724638 
L 366.220993 76.110173 
L 366.619342 74.254351 
L 367.017691 75.564418 
L 367.41604 79.099262 
L 367.814389 76.720505 
L 368.212738 73.1142 
L 368.611088 76.102875 
L 369.009437 74.366728 
L 369.407786 76.169952 
L 369.806135 74.541649 
L 370.204484 74.518496 
L 371.399532 68.2497 
L 371.797881 71.058387 
L 372.19623 70.843621 
L 372.594579 69.43772 
L 372.992928 69.852086 
L 373.391277 72.247953 
L 374.187975 70.178043 
L 374.586325 71.695103 
L 374.984674 70.841603 
L 375.383023 69.187779 
L 375.781372 69.219941 
L 376.57807 66.475757 
L 376.976419 67.673013 
L 377.374769 67.653593 
L 377.773118 65.047408 
L 378.171467 66.38996 
L 378.968165 66.164787 
L 379.366514 64.717272 
L 379.764863 66.370249 
L 380.163212 66.418896 
L 380.561562 63.509626 
L 380.959911 63.473996 
L 381.35826 62.09736 
L 381.756609 58.467124 
L 382.154958 60.027307 
L 382.951656 59.17117 
L 383.350006 59.017343 
L 383.748355 59.405759 
L 384.146704 58.059945 
L 384.545053 59.638949 
L 385.341751 55.695661 
L 385.7401 57.268528 
L 386.13845 59.402735 
L 386.536799 60.236798 
L 386.935148 56.29591 
L 387.333497 58.641451 
L 387.731846 57.425008 
L 388.130195 61.673526 
L 388.528544 58.882982 
L 388.926893 57.843976 
L 389.325243 60.205829 
L 389.723592 60.422623 
L 390.121941 61.679213 
L 390.52029 59.419782 
L 390.918639 61.827639 
L 391.316988 58.90246 
L 391.715337 58.545438 
L 392.113687 55.778329 
L 392.512036 59.255315 
L 392.910385 59.23992 
L 393.308734 58.406248 
L 393.707083 58.495223 
L 394.105432 56.9866 
L 394.503781 58.155529 
L 394.902131 55.314617 
L 395.30048 56.019977 
L 395.698829 56.021407 
L 396.097178 65.861607 
L 396.893876 65.861607 
L 397.292225 53.623802 
L 397.690574 53.568 
L 398.088924 55.204972 
L 398.487273 54.754696 
L 398.487273 54.754696 
" clip-path="url(#pdcaa714df9)" style="fill: none; stroke: #1f77b4; stroke-width: 1.5; stroke-linecap: square"/>
   </g>
   <g id="line2d_16">
    <path d="M 73.832727 294.776216 
L 75.426124 294.641671 
L 75.824473 294.754276 
L 84.588154 294.507412 
L 85.384852 294.498859 
L 87.376598 294.434647 
L 89.368344 294.500389 
L 90.96174 294.497424 
L 96.538628 294.417483 
L 96.936977 294.227899 
L 112.472593 294.417907 
L 114.464339 294.419025 
L 115.659387 294.252577 
L 117.252783 294.22756 
L 119.244529 294.17001 
L 124.024718 294.34464 
L 129.601606 293.907571 
L 130.398305 293.852272 
L 131.195003 293.791121 
L 131.991701 293.886261 
L 132.788399 293.898764 
L 133.983447 293.95079 
L 134.780145 293.98257 
L 135.576843 293.687811 
L 136.373542 293.725485 
L 137.17024 293.768837 
L 142.348779 293.414271 
L 142.747128 293.519753 
L 148.324016 292.859985 
L 149.917412 292.603244 
L 150.71411 292.610468 
L 151.909158 292.209538 
L 153.502554 291.928251 
L 153.900904 292.049853 
L 155.4943 291.924464 
L 161.071188 290.892332 
L 161.469537 290.937659 
L 162.266235 290.678667 
L 163.062934 290.575679 
L 163.461283 290.338935 
L 164.65633 290.608391 
L 165.453028 290.422445 
L 165.851378 290.367787 
L 166.249727 290.137742 
L 166.648076 290.154969 
L 167.046425 289.984561 
L 168.241472 289.897487 
L 168.639822 289.654494 
L 169.834869 289.408784 
L 170.233218 289.411437 
L 170.631567 289.255783 
L 171.029916 289.239964 
L 172.623313 288.757304 
L 173.420011 288.525337 
L 173.81836 288.279622 
L 174.216709 288.419034 
L 175.411757 287.928531 
L 176.208455 287.519689 
L 176.606804 287.209889 
L 177.403503 286.994678 
L 177.801852 287.093561 
L 178.59855 286.942366 
L 179.793597 285.785432 
L 180.191946 285.507519 
L 180.590296 285.583921 
L 180.988645 285.434818 
L 182.183692 284.566119 
L 182.582041 284.419129 
L 183.37874 283.717349 
L 183.777089 283.621193 
L 184.175438 282.296748 
L 184.573787 282.420405 
L 184.972136 283.302713 
L 185.370485 283.206902 
L 186.167183 282.52988 
L 186.565533 283.141673 
L 186.963882 282.349515 
L 187.362231 282.300794 
L 187.76058 282.05457 
L 188.158929 281.478672 
L 188.557278 281.507936 
L 189.353977 280.625877 
L 189.752326 280.652477 
L 190.150675 280.455399 
L 190.549024 279.739924 
L 190.947373 279.981514 
L 191.345722 279.439975 
L 191.744071 279.602419 
L 192.142421 279.406924 
L 192.54077 279.486705 
L 192.939119 278.876527 
L 193.337468 278.900046 
L 193.735817 278.277539 
L 194.134166 278.38569 
L 194.930864 277.071804 
L 195.329214 276.811796 
L 195.727563 276.729107 
L 196.125912 276.427548 
L 196.524261 276.397658 
L 196.92261 276.513091 
L 197.320959 276.491198 
L 198.516007 276.060098 
L 198.914356 276.200458 
L 199.711054 275.837743 
L 200.109403 275.212403 
L 200.507752 273.808774 
L 200.906102 274.856513 
L 201.304451 275.201435 
L 201.7028 274.839334 
L 202.101149 275.049376 
L 202.499498 274.525366 
L 203.296196 273.847815 
L 203.694545 273.176115 
L 204.092895 272.75486 
L 204.491244 271.872366 
L 204.889593 269.260535 
L 205.287942 267.587615 
L 205.686291 270.06589 
L 206.08464 270.719431 
L 206.482989 270.737405 
L 206.881339 270.998615 
L 207.279688 270.979805 
L 207.678037 271.329392 
L 208.076386 270.607959 
L 208.474735 270.734815 
L 208.873084 269.387407 
L 209.271433 268.975663 
L 209.669782 269.209754 
L 210.466481 267.866116 
L 210.86483 268.22979 
L 211.263179 268.194727 
L 211.661528 267.76172 
L 212.059877 267.133245 
L 212.458226 266.80625 
L 212.856576 266.852598 
L 213.653274 264.904487 
L 214.051623 264.33149 
L 214.449972 264.023565 
L 214.848321 262.901187 
L 215.24667 262.512448 
L 216.441718 260.249235 
L 216.840067 260.633473 
L 217.636765 260.255564 
L 218.433463 259.529984 
L 218.831813 259.845419 
L 219.628511 259.445421 
L 220.425209 258.444587 
L 221.620257 257.933006 
L 222.018606 257.936358 
L 222.416955 256.887046 
L 222.815304 256.781352 
L 223.213653 256.810109 
L 223.612002 256.272705 
L 224.80705 253.61191 
L 225.205399 253.110015 
L 225.603748 250.688044 
L 226.002097 247.270975 
L 226.400446 252.34101 
L 226.798795 253.445801 
L 227.197144 253.137331 
L 227.595494 252.593371 
L 227.993843 252.667396 
L 228.392192 252.947545 
L 229.18889 251.803051 
L 229.985588 251.280831 
L 230.383938 250.858453 
L 230.782287 249.652364 
L 231.180636 249.372581 
L 231.578985 249.304206 
L 232.375683 248.236973 
L 232.774032 246.968377 
L 233.172381 246.17776 
L 233.570731 246.676027 
L 234.367429 245.117751 
L 234.765778 243.684238 
L 235.164127 243.267283 
L 235.562476 243.063362 
L 236.359175 240.764525 
L 236.757524 238.974217 
L 237.155873 239.758236 
L 237.554222 239.610451 
L 237.952571 238.709607 
L 238.35092 238.1016 
L 238.749269 237.945935 
L 239.147619 238.056008 
L 239.545968 239.298411 
L 239.944317 238.661383 
L 240.342666 238.946467 
L 240.741015 238.27016 
L 241.139364 238.343677 
L 241.537713 237.583008 
L 242.334412 235.455479 
L 242.732761 235.669175 
L 243.529459 232.660069 
L 243.927808 233.373092 
L 244.326157 232.818948 
L 244.724506 231.507525 
L 245.122856 231.410157 
L 245.521205 230.529993 
L 245.919554 230.028855 
L 246.317903 226.533328 
L 246.716252 218.467797 
L 247.114601 224.274045 
L 247.51295 227.369971 
L 247.911299 227.697014 
L 248.707998 227.356197 
L 249.106347 227.450801 
L 249.504696 227.407466 
L 249.903045 226.443824 
L 250.301394 226.20332 
L 250.699743 226.503497 
L 251.496442 225.376104 
L 252.29314 223.35188 
L 252.691489 221.134767 
L 253.089838 221.880619 
L 253.488187 221.770164 
L 253.886537 217.749182 
L 254.284886 218.631056 
L 255.081584 215.948208 
L 255.479933 213.366844 
L 255.878282 213.273813 
L 256.276631 212.920302 
L 257.07333 208.423845 
L 257.471679 208.125527 
L 257.870028 207.461612 
L 258.268377 207.137381 
L 259.065075 204.571248 
L 259.463424 204.351276 
L 259.861774 204.275286 
L 260.260123 205.400355 
L 260.658472 205.529933 
L 261.056821 206.484429 
L 261.45517 207.150224 
L 262.251868 207.680832 
L 262.650218 205.404989 
L 263.048567 204.831002 
L 263.446916 205.327368 
L 263.845265 204.314136 
L 264.243614 202.449809 
L 264.641963 204.072499 
L 265.040312 204.71575 
L 265.438661 202.79588 
L 265.837011 202.559735 
L 266.23536 201.478536 
L 266.633709 196.009594 
L 267.032058 198.199492 
L 267.430407 189.155013 
L 268.227105 199.894384 
L 268.625455 198.500871 
L 269.023804 199.964962 
L 269.422153 199.421479 
L 269.820502 199.331196 
L 270.218851 197.913258 
L 270.6172 200.306849 
L 271.015549 200.969704 
L 271.413898 200.349104 
L 271.812248 198.989717 
L 272.210597 198.52628 
L 272.608946 197.465164 
L 273.007295 197.391261 
L 273.405644 199.269526 
L 273.803993 198.195959 
L 274.202342 196.669309 
L 274.600692 194.523727 
L 274.999041 194.319727 
L 275.39739 193.432461 
L 275.795739 193.540846 
L 276.194088 191.256799 
L 276.592437 191.204111 
L 276.990786 189.632139 
L 277.389136 189.381891 
L 277.787485 188.902191 
L 278.185834 187.400241 
L 278.982532 187.412654 
L 279.77923 186.804928 
L 280.177579 187.708277 
L 280.575929 186.17685 
L 280.974278 185.36156 
L 281.372627 188.280844 
L 281.770976 188.425944 
L 282.169325 188.287819 
L 282.567674 188.375978 
L 282.966023 188.302388 
L 283.364373 186.84068 
L 283.762722 187.18925 
L 284.161071 187.779574 
L 284.55942 187.128041 
L 284.957769 184.137406 
L 285.356118 184.957039 
L 285.754467 184.548314 
L 286.152817 181.369132 
L 286.551166 182.924581 
L 287.746213 178.776732 
L 288.144562 165.808629 
L 288.542911 170.782842 
L 288.94126 178.264108 
L 289.33961 179.637174 
L 290.136308 178.310759 
L 290.534657 177.009932 
L 290.933006 177.982461 
L 291.331355 177.706501 
L 291.729704 178.729986 
L 292.128054 176.419428 
L 292.526403 178.460259 
L 293.323101 176.341082 
L 293.72145 176.31132 
L 294.119799 176.94445 
L 294.518148 174.295898 
L 294.916497 173.848058 
L 295.314847 171.630558 
L 295.713196 173.667036 
L 296.111545 174.962238 
L 296.509894 172.47488 
L 297.306592 165.538188 
L 297.704941 167.054198 
L 298.103291 165.80534 
L 298.50164 165.123293 
L 298.899989 163.503383 
L 299.298338 164.176942 
L 299.696687 164.365239 
L 300.095036 164.195985 
L 300.493385 163.65738 
L 300.891735 162.798373 
L 301.290084 160.400848 
L 301.688433 163.430089 
L 302.086782 164.287682 
L 302.485131 164.449019 
L 302.88348 165.812103 
L 303.281829 166.568557 
L 304.078528 166.287704 
L 304.476877 166.81326 
L 304.875226 166.510048 
L 305.273575 167.197524 
L 306.070273 164.423684 
L 306.468622 166.169554 
L 306.866972 165.576439 
L 307.265321 164.100205 
L 307.66367 164.263285 
L 308.062019 163.552311 
L 308.460368 161.338635 
L 308.858717 149.100396 
L 309.257066 148.774582 
L 309.655416 160.753581 
L 310.053765 162.433221 
L 310.452114 162.7771 
L 310.850463 161.621029 
L 311.248812 160.059639 
L 312.04551 158.31004 
L 312.443859 158.260493 
L 312.842209 158.840967 
L 313.240558 158.425134 
L 313.638907 149.08427 
L 314.037256 145.007496 
L 314.435605 143.419955 
L 314.833954 144.603601 
L 316.029002 140.455926 
L 316.427351 140.747053 
L 316.8257 142.94374 
L 317.224049 140.930765 
L 317.622398 140.162512 
L 318.020747 141.959852 
L 318.419096 142.948003 
L 319.215795 139.840754 
L 319.614144 136.882498 
L 320.012493 136.658729 
L 320.410842 135.053176 
L 320.809191 136.439975 
L 321.20754 136.24932 
L 321.60589 137.345219 
L 322.004239 136.295124 
L 322.402588 136.303877 
L 322.800937 137.229146 
L 323.199286 138.86534 
L 323.597635 138.083498 
L 323.995984 139.960874 
L 324.792683 140.093375 
L 325.191032 140.817964 
L 325.589381 139.497676 
L 325.98773 139.68403 
L 326.386079 138.639961 
L 326.784428 136.750251 
L 327.182777 138.905291 
L 327.581127 139.338981 
L 327.979476 139.128171 
L 328.377825 141.55002 
L 328.776174 139.521343 
L 329.572872 131.319756 
L 329.971221 124.796036 
L 330.76792 134.55618 
L 331.166269 133.833821 
L 331.564618 134.734887 
L 331.962967 133.618599 
L 332.759665 132.662785 
L 333.158015 132.804622 
L 333.556364 134.42952 
L 333.954713 134.027478 
L 334.353062 133.8244 
L 334.751411 131.915011 
L 335.14976 135.043495 
L 335.946458 132.0976 
L 336.344808 134.318695 
L 336.743157 133.028492 
L 337.141506 129.671181 
L 337.539855 130.00103 
L 337.938204 128.004329 
L 338.336553 126.834336 
L 338.734902 128.671284 
L 339.133252 129.042679 
L 339.92995 121.696827 
L 340.328299 121.571766 
L 340.726648 121.208357 
L 341.124997 120.464348 
L 341.523346 117.763262 
L 341.921695 119.188286 
L 342.320045 117.840131 
L 342.718394 117.943399 
L 343.116743 119.164926 
L 343.515092 122.153336 
L 343.913441 122.846272 
L 344.31179 122.896026 
L 344.710139 124.395149 
L 345.108489 122.217649 
L 345.905187 123.381483 
L 346.303536 123.65292 
L 346.701885 123.430448 
L 347.100234 122.991229 
L 347.498583 125.352716 
L 347.896933 124.26618 
L 348.295282 124.785757 
L 348.693631 123.241795 
L 349.09198 124.311787 
L 349.888678 121.678366 
L 350.287027 116.429422 
L 350.685376 104.138622 
L 351.482075 116.42474 
L 351.880424 116.762105 
L 352.278773 118.484467 
L 352.677122 116.854437 
L 353.075471 119.60164 
L 353.47382 118.631066 
L 353.87217 115.218296 
L 354.270519 117.087146 
L 354.668868 117.080743 
L 355.067217 119.371378 
L 355.465566 115.485539 
L 355.863915 108.908935 
L 356.262264 109.064568 
L 356.660613 119.421852 
L 357.058963 107.794643 
L 357.855661 104.348839 
L 358.25401 108.020843 
L 358.652359 107.843635 
L 359.050708 106.50667 
L 359.449057 103.431668 
L 359.847407 104.069983 
L 360.644105 96.499037 
L 361.042454 97.263641 
L 361.440803 97.04118 
L 361.839152 94.60517 
L 362.237501 94.514485 
L 362.635851 95.419587 
L 363.0342 94.171952 
L 363.432549 95.007784 
L 363.830898 95.109162 
L 364.229247 98.428969 
L 364.627596 99.256778 
L 365.424294 102.245321 
L 365.822644 100.192606 
L 366.220993 101.323744 
L 366.619342 101.454725 
L 367.017691 98.61786 
L 367.41604 101.803809 
L 367.814389 102.68866 
L 368.212738 99.60752 
L 368.611088 98.774086 
L 369.009437 101.053594 
L 369.407786 97.548852 
L 369.806135 100.961325 
L 370.204484 101.262466 
L 370.602833 96.915018 
L 371.399532 82.779072 
L 371.797881 90.013569 
L 372.19623 94.942773 
L 372.594579 94.868494 
L 372.992928 95.450678 
L 373.391277 94.31407 
L 373.789626 94.447027 
L 374.187975 95.166457 
L 374.984674 92.85804 
L 375.383023 95.880576 
L 376.179721 88.638363 
L 376.57807 92.340575 
L 376.976419 88.067215 
L 377.374769 90.736315 
L 377.773118 91.391852 
L 378.171467 90.104085 
L 378.569816 86.935183 
L 378.968165 91.734946 
L 379.366514 91.576045 
L 379.764863 88.156646 
L 380.163212 88.736272 
L 380.561562 88.158563 
L 380.959911 83.525824 
L 381.756609 78.960988 
L 382.154958 79.318296 
L 382.553307 79.143715 
L 382.951656 78.014648 
L 383.350006 79.407054 
L 383.748355 77.926938 
L 384.146704 78.924722 
L 384.545053 77.534587 
L 385.341751 82.937973 
L 385.7401 84.485976 
L 386.13845 83.424017 
L 386.536799 85.081315 
L 386.935148 84.620246 
L 387.333497 83.945586 
L 387.731846 83.64374 
L 388.130195 85.825366 
L 388.528544 86.511253 
L 388.926893 83.750854 
L 389.325243 84.695335 
L 389.723592 87.185415 
L 390.121941 84.621644 
L 390.52029 86.328749 
L 390.918639 86.870081 
L 391.316988 85.3606 
L 391.715337 80.444625 
L 392.113687 68.265869 
L 392.512036 73.990175 
L 392.910385 81.472749 
L 393.308734 81.473697 
L 393.707083 84.049897 
L 394.105432 83.017966 
L 394.902131 79.704525 
L 395.30048 78.971151 
L 395.698829 81.453679 
L 396.097178 65.861607 
L 396.893876 65.861607 
L 397.292225 77.601055 
L 397.690574 76.305874 
L 398.088924 76.781756 
L 398.487273 81.568105 
L 398.487273 81.568105 
" clip-path="url(#pdcaa714df9)" style="fill: none; stroke: #ff7f0e; stroke-width: 1.5; stroke-linecap: square"/>
   </g>
   <g id="line2d_17">
    <path d="M 73.832727 295.234924 
L 79.807964 295.205389 
L 80.206313 295.272047 
L 81.003012 295.162376 
L 81.401361 295.24641 
L 81.79971 295.148242 
L 82.198059 295.245838 
L 83.393107 295.14642 
L 94.546882 295.209324 
L 94.945231 295.168228 
L 95.343581 295.262801 
L 96.538628 294.965256 
L 96.936977 295.155412 
L 111.675895 295.356876 
L 112.870943 295.360985 
L 117.252783 295.226419 
L 118.049481 295.252728 
L 118.44783 295.317591 
L 119.244529 295.284048 
L 120.041227 295.284731 
L 120.837925 295.294486 
L 121.236274 295.388704 
L 124.423067 295.295423 
L 140.755382 295.216473 
L 141.153731 295.074911 
L 142.348779 295.330963 
L 143.145477 295.07383 
L 143.543826 295.15921 
L 143.942175 295.043252 
L 145.933921 295.24927 
L 146.730619 295.168551 
L 147.128968 294.848647 
L 147.527317 295.05627 
L 147.925666 294.95934 
L 149.120714 295.145192 
L 149.519063 295.0031 
L 149.917412 295.050068 
L 150.71411 294.824149 
L 151.11246 294.877202 
L 151.909158 294.795011 
L 152.307507 294.93723 
L 153.104205 294.781761 
L 153.502554 295.025077 
L 157.486046 294.766589 
L 157.884395 294.552934 
L 158.282744 294.498689 
L 159.079442 294.678583 
L 159.876141 294.634818 
L 160.27449 294.89515 
L 161.867886 294.576067 
L 163.062934 294.611887 
L 163.461283 294.882779 
L 164.65633 294.428674 
L 165.453028 294.509991 
L 165.851378 294.450466 
L 166.249727 294.67298 
L 166.648076 294.455894 
L 167.444774 294.731059 
L 168.639822 294.351016 
L 169.834869 294.449677 
L 170.233218 294.238067 
L 170.631567 294.374593 
L 171.428265 294.073367 
L 171.826615 294.223339 
L 172.224964 294.116967 
L 172.623313 294.187545 
L 173.420011 294.139374 
L 174.216709 294.131949 
L 174.615059 294.024211 
L 175.013408 294.142419 
L 176.208455 293.97228 
L 176.606804 294.170391 
L 177.403503 294.017904 
L 177.801852 293.737252 
L 178.200201 293.609237 
L 178.59855 293.298516 
L 179.395248 293.254523 
L 179.793597 292.997449 
L 180.191946 293.507589 
L 180.590296 293.47136 
L 180.988645 293.178692 
L 181.386994 293.125517 
L 181.785343 292.727532 
L 182.183692 292.937908 
L 182.582041 292.384755 
L 183.37874 292.86813 
L 183.777089 292.765873 
L 184.175438 293.822706 
L 184.573787 293.747616 
L 184.972136 292.572942 
L 185.370485 292.443936 
L 185.768834 292.489856 
L 186.167183 292.711189 
L 186.565533 291.799081 
L 186.963882 292.564145 
L 187.362231 292.5688 
L 187.76058 292.134703 
L 188.158929 292.701635 
L 188.557278 291.924406 
L 188.955627 292.04076 
L 189.353977 292.47391 
L 190.150675 292.423827 
L 190.549024 292.712719 
L 190.947373 292.230186 
L 191.345722 292.516091 
L 191.744071 291.909721 
L 192.142421 292.377389 
L 192.54077 292.101683 
L 192.939119 292.492933 
L 193.337468 292.298666 
L 193.735817 292.635776 
L 194.532515 291.644279 
L 194.930864 292.447066 
L 195.329214 292.316757 
L 195.727563 291.891085 
L 196.125912 292.154059 
L 196.524261 292.572454 
L 196.92261 292.141121 
L 197.719308 291.770669 
L 198.117658 291.239906 
L 198.516007 291.496647 
L 198.914356 291.332165 
L 199.312705 290.876037 
L 199.711054 291.001304 
L 200.109403 288.188852 
L 200.507752 291.854369 
L 200.906102 292.154075 
L 201.304451 291.154416 
L 201.7028 291.150635 
L 202.499498 290.544524 
L 202.897847 290.588315 
L 203.296196 290.305132 
L 203.694545 290.433015 
L 204.491244 289.838317 
L 204.889593 291.7536 
L 205.287942 292.480853 
L 205.686291 289.378212 
L 206.08464 289.721809 
L 206.881339 289.317633 
L 207.279688 289.497526 
L 207.678037 289.44872 
L 208.076386 290.055398 
L 208.474735 287.729493 
L 208.873084 289.40217 
L 209.271433 289.394358 
L 209.669782 288.714636 
L 210.068132 289.067633 
L 210.466481 289.608743 
L 210.86483 289.267667 
L 211.263179 289.348703 
L 211.661528 288.119418 
L 212.059877 288.687352 
L 212.458226 288.283022 
L 212.856576 287.656157 
L 213.254925 289.104731 
L 213.653274 288.004001 
L 214.051623 289.060961 
L 214.449972 287.986684 
L 214.848321 288.447192 
L 215.24667 287.842108 
L 215.64502 289.313417 
L 216.043369 288.994789 
L 216.441718 288.010812 
L 217.238416 288.901302 
L 217.636765 288.590862 
L 218.035114 287.422378 
L 218.433463 288.167912 
L 218.831813 286.44842 
L 219.230162 286.987311 
L 219.628511 286.115308 
L 220.425209 285.319692 
L 221.221907 285.470443 
L 221.620257 285.530089 
L 222.018606 284.419044 
L 222.416955 285.60315 
L 222.815304 285.293314 
L 223.213653 284.166709 
L 223.612002 284.425473 
L 224.010351 284.171899 
L 224.408701 284.2839 
L 225.205399 285.577916 
L 225.603748 287.464432 
L 226.002097 288.60049 
L 226.400446 284.182676 
L 226.798795 283.763629 
L 227.197144 283.815083 
L 227.595494 284.28953 
L 227.993843 284.208001 
L 228.392192 283.973168 
L 229.18889 284.842449 
L 229.587239 283.76185 
L 229.985588 284.020539 
L 230.383938 283.304758 
L 230.782287 284.507648 
L 231.180636 284.614534 
L 231.578985 283.532504 
L 232.375683 282.494906 
L 232.774032 281.846206 
L 233.172381 283.946144 
L 233.570731 282.899088 
L 233.96908 282.568936 
L 234.367429 283.575522 
L 234.765778 282.587249 
L 235.164127 283.359511 
L 235.562476 283.266479 
L 235.960825 282.801973 
L 236.359175 283.859489 
L 236.757524 284.390208 
L 237.155873 283.909476 
L 237.554222 283.060991 
L 237.952571 283.432588 
L 238.35092 284.321765 
L 238.749269 283.79525 
L 239.545968 281.718741 
L 239.944317 281.851031 
L 240.342666 279.891162 
L 241.139364 279.859096 
L 241.537713 278.661263 
L 241.936062 280.025337 
L 242.334412 279.823985 
L 242.732761 278.590707 
L 243.13111 277.937527 
L 243.529459 279.502158 
L 243.927808 278.124215 
L 244.724506 277.87923 
L 245.521205 278.438198 
L 245.919554 276.620448 
L 246.317903 279.302384 
L 246.716252 283.523305 
L 247.51295 276.667565 
L 247.911299 276.936634 
L 248.309649 276.376629 
L 248.707998 277.137578 
L 249.106347 277.619709 
L 249.504696 277.436405 
L 249.903045 277.403476 
L 250.301394 277.943691 
L 250.699743 277.054895 
L 251.098093 276.956509 
L 251.496442 276.449917 
L 251.894791 277.445138 
L 252.29314 277.596397 
L 252.691489 277.25693 
L 253.089838 277.313325 
L 253.488187 273.99542 
L 253.886537 278.281786 
L 254.284886 275.536384 
L 254.683235 275.585598 
L 255.081584 276.379043 
L 255.479933 278.483387 
L 255.878282 277.632488 
L 256.276631 276.257166 
L 256.67498 275.743843 
L 257.07333 278.623043 
L 257.471679 278.088251 
L 257.870028 278.097397 
L 258.268377 277.19928 
L 258.666726 278.12879 
L 259.065075 278.695394 
L 259.463424 278.935575 
L 259.861774 279.30571 
L 260.658472 275.625439 
L 261.056821 275.93911 
L 261.45517 275.297792 
L 261.853519 276.2132 
L 262.251868 274.660553 
L 262.650218 275.014085 
L 263.048567 275.83439 
L 263.446916 274.508128 
L 263.845265 275.037297 
L 264.243614 276.418916 
L 264.641963 274.443212 
L 265.040312 273.37662 
L 265.438661 274.750407 
L 265.837011 274.881541 
L 266.23536 290.019058 
L 266.633709 279.647226 
L 267.032058 276.697015 
L 267.430407 281.900165 
L 267.828756 280.561246 
L 268.227105 274.432086 
L 268.625455 275.597413 
L 269.023804 274.130802 
L 269.422153 274.19736 
L 269.820502 274.052609 
L 270.218851 276.776192 
L 270.6172 275.210332 
L 271.015549 274.346257 
L 271.413898 273.845464 
L 271.812248 275.285374 
L 272.210597 275.447113 
L 272.608946 276.173481 
L 273.007295 275.940863 
L 273.405644 271.543327 
L 273.803993 273.611256 
L 274.202342 272.469792 
L 274.600692 275.740416 
L 274.999041 273.704892 
L 275.39739 273.193814 
L 276.194088 274.479134 
L 276.592437 273.393191 
L 277.389136 275.904168 
L 277.787485 276.874901 
L 278.185834 277.538545 
L 278.982532 275.849568 
L 279.77923 277.869115 
L 280.177579 277.127384 
L 280.575929 276.751381 
L 280.974278 276.856207 
L 281.372627 272.554212 
L 281.770976 272.068433 
L 282.966023 271.960652 
L 283.364373 272.480701 
L 283.762722 271.174415 
L 284.161071 271.692218 
L 284.55942 268.833444 
L 284.957769 271.914367 
L 285.356118 270.666674 
L 285.754467 268.515166 
L 286.152817 270.926169 
L 286.551166 268.908999 
L 286.949515 270.238221 
L 287.347864 270.280652 
L 287.746213 271.577575 
L 288.144562 283.283717 
L 288.94126 271.344156 
L 289.33961 270.904117 
L 289.737959 270.640497 
L 290.136308 270.00859 
L 290.534657 272.399199 
L 290.933006 271.22741 
L 291.331355 271.977737 
L 291.729704 269.277106 
L 292.128054 271.002487 
L 292.924752 269.601501 
L 293.323101 270.6743 
L 293.72145 270.184866 
L 294.119799 269.503518 
L 294.518148 271.999015 
L 294.916497 268.851487 
L 295.314847 270.964256 
L 295.713196 269.211533 
L 296.111545 268.785967 
L 296.509894 268.884829 
L 297.306592 272.163408 
L 297.704941 270.177606 
L 298.103291 271.587827 
L 298.50164 271.932066 
L 298.899989 271.713396 
L 299.298338 272.556029 
L 299.696687 270.753425 
L 300.095036 272.42071 
L 300.493385 271.885436 
L 300.891735 272.094403 
L 301.290084 274.437721 
L 302.086782 269.224248 
L 302.485131 269.221966 
L 302.88348 269.37395 
L 303.281829 268.104131 
L 303.680178 268.851942 
L 304.078528 269.26045 
L 304.476877 266.793243 
L 304.875226 268.25932 
L 305.273575 267.884323 
L 306.070273 269.495627 
L 306.468622 266.01049 
L 307.265321 268.068379 
L 307.66367 268.030837 
L 308.062019 267.730395 
L 308.460368 269.501638 
L 308.858717 280.459683 
L 309.257066 280.225932 
L 309.655416 269.03801 
L 310.053765 267.593578 
L 310.452114 267.302615 
L 310.850463 267.629939 
L 311.248812 268.199535 
L 311.647161 269.629473 
L 312.04551 269.058023 
L 312.443859 269.68214 
L 312.842209 268.853367 
L 313.240558 268.350964 
L 313.638907 277.916227 
L 314.037256 282.623785 
L 314.435605 283.923764 
L 315.232303 281.654863 
L 316.029002 282.819412 
L 316.427351 282.808672 
L 316.8257 280.018304 
L 317.224049 280.055364 
L 317.622398 281.462795 
L 318.020747 276.830029 
L 318.419096 278.111049 
L 318.817446 277.695111 
L 319.215795 276.771929 
L 319.614144 280.481364 
L 320.012493 279.101753 
L 320.410842 279.625376 
L 320.809191 278.342079 
L 321.20754 277.721034 
L 321.60589 278.659997 
L 322.004239 278.014867 
L 322.402588 278.641758 
L 322.800937 278.089432 
L 323.199286 275.642899 
L 323.597635 275.732748 
L 323.995984 272.756761 
L 324.394334 274.817817 
L 324.792683 274.833132 
L 325.191032 273.151257 
L 325.589381 275.01399 
L 325.98773 276.142803 
L 326.386079 276.164023 
L 326.784428 275.673816 
L 327.182777 277.469716 
L 327.979476 274.642075 
L 328.377825 273.512495 
L 329.174523 277.157872 
L 329.572872 280.674873 
L 329.971221 285.271961 
L 330.76792 275.739548 
L 331.166269 276.68145 
L 332.361316 275.875867 
L 332.759665 277.425808 
L 333.158015 276.9994 
L 333.556364 272.903868 
L 333.954713 272.762449 
L 334.353062 271.284075 
L 334.751411 275.954637 
L 335.14976 273.741899 
L 335.548109 274.501292 
L 335.946458 275.615393 
L 336.344808 273.535484 
L 336.743157 269.955679 
L 337.141506 276.568618 
L 337.539855 274.362753 
L 337.938204 276.812807 
L 338.336553 278.478462 
L 338.734902 272.029101 
L 339.133252 271.068229 
L 339.531601 272.831046 
L 339.92995 276.484843 
L 340.328299 278.288157 
L 340.726648 276.337201 
L 341.124997 276.626278 
L 341.523346 278.132185 
L 341.921695 276.274933 
L 342.718394 276.364909 
L 343.116743 278.435667 
L 343.515092 273.671867 
L 343.913441 271.854794 
L 344.31179 273.942997 
L 344.710139 271.261584 
L 345.108489 273.022902 
L 345.506838 270.754637 
L 346.303536 272.597394 
L 346.701885 272.521505 
L 347.100234 273.386661 
L 347.498583 270.890221 
L 347.896933 270.446214 
L 348.295282 271.696296 
L 348.693631 271.114128 
L 349.09198 269.292247 
L 349.490329 270.620892 
L 349.888678 270.603463 
L 350.287027 274.448905 
L 350.685376 283.786131 
L 351.083726 278.713575 
L 351.482075 277.276615 
L 351.880424 272.701378 
L 352.278773 270.779935 
L 352.677122 275.253811 
L 353.075471 270.608065 
L 353.47382 269.692091 
L 353.87217 273.054264 
L 354.270519 271.984473 
L 354.668868 271.958269 
L 355.067217 270.279539 
L 355.465566 266.971775 
L 355.863915 272.780433 
L 356.262264 272.839243 
L 356.660613 261.011774 
L 357.058963 272.156772 
L 357.457312 271.131916 
L 357.855661 276.294602 
L 358.652359 271.287179 
L 359.050708 274.455652 
L 359.449057 274.416055 
L 359.847407 272.191905 
L 360.245756 272.314196 
L 360.644105 276.950848 
L 361.042454 270.486018 
L 361.440803 273.017617 
L 361.839152 277.140189 
L 362.237501 279.05552 
L 362.635851 276.48854 
L 363.0342 278.060358 
L 363.830898 277.678403 
L 364.229247 276.384731 
L 364.627596 274.612435 
L 365.025945 271.747729 
L 365.424294 270.484747 
L 365.822644 271.020032 
L 366.220993 270.274429 
L 366.619342 268.287626 
L 367.017691 272.434559 
L 367.41604 272.783452 
L 367.814389 269.519845 
L 368.212738 268.99468 
L 368.611088 272.816789 
L 369.009437 268.801134 
L 369.407786 274.1091 
L 369.806135 269.068324 
L 370.204484 268.744029 
L 370.602833 270.808358 
L 371.001182 275.08999 
L 371.399532 280.958628 
L 372.19623 271.388848 
L 372.594579 270.057227 
L 372.992928 269.889408 
L 373.391277 273.421883 
L 374.187975 270.499586 
L 374.586325 273.272494 
L 374.984674 273.471563 
L 375.383023 268.795203 
L 375.781372 272.842622 
L 376.179721 274.861608 
L 376.57807 269.623182 
L 376.976419 275.093798 
L 377.773118 269.143556 
L 378.569816 274.783585 
L 378.968165 269.917841 
L 379.366514 268.629227 
L 379.764863 273.701603 
L 380.163212 273.170624 
L 380.561562 270.839063 
L 380.959911 275.436172 
L 381.35826 276.408467 
L 381.756609 274.994136 
L 382.154958 276.19701 
L 382.553307 275.965557 
L 382.951656 276.644522 
L 383.350006 275.098288 
L 383.748355 276.96682 
L 384.146704 274.623222 
L 384.545053 277.592362 
L 385.341751 268.245688 
L 385.7401 268.270552 
L 386.13845 271.466717 
L 386.536799 270.643483 
L 386.935148 267.163664 
L 387.333497 270.183865 
L 387.731846 269.269268 
L 388.130195 271.33616 
L 388.528544 267.859729 
L 389.325243 270.998493 
L 389.723592 268.725208 
L 390.121941 272.54557 
L 390.52029 268.579033 
L 390.918639 270.445558 
L 391.316988 269.02986 
L 391.715337 273.588813 
L 392.113687 283.00046 
L 392.512036 280.75314 
L 392.910385 273.255171 
L 393.308734 272.420551 
L 393.707083 269.933326 
L 394.105432 269.456634 
L 394.503781 272.487665 
L 394.902131 271.098092 
L 395.30048 272.536826 
L 395.698829 270.055728 
L 396.097178 295.488 
L 396.893876 295.488 
L 397.292225 271.510747 
L 398.088924 273.911216 
L 398.487273 268.674591 
L 398.487273 268.674591 
" clip-path="url(#pdcaa714df9)" style="fill: none; stroke: #2ca02c; stroke-width: 1.5; stroke-linecap: square"/>
   </g>
   <g id="patch_3">
    <path d="M 57.6 307.584 
L 57.6 41.472 
" style="fill: none; stroke: #000000; stroke-width: 0.8; stroke-linejoin: miter; stroke-linecap: square"/>
   </g>
   <g id="patch_4">
    <path d="M 414.72 307.584 
L 414.72 41.472 
" style="fill: none; stroke: #000000; stroke-width: 0.8; stroke-linejoin: miter; stroke-linecap: square"/>
   </g>
   <g id="patch_5">
    <path d="M 57.6 307.584 
L 414.72 307.584 
" style="fill: none; stroke: #000000; stroke-width: 0.8; stroke-linejoin: miter; stroke-linecap: square"/>
   </g>
   <g id="patch_6">
    <path d="M 57.6 41.472 
L 414.72 41.472 
" style="fill: none; stroke: #000000; stroke-width: 0.8; stroke-linejoin: miter; stroke-linecap: square"/>
   </g>
   <g id="legend_1">
    <g id="patch_7">
     <path d="M 64.6 93.506375 
L 186.25625 93.506375 
Q 188.25625 93.506375 188.25625 91.506375 
L 188.25625 48.472 
Q 188.25625 46.472 186.25625 46.472 
L 64.6 46.472 
Q 62.6 46.472 62.6 48.472 
L 62.6 91.506375 
Q 62.6 93.506375 64.6 93.506375 
z
" style="fill: #ffffff; opacity: 0.8; stroke: #cccccc; stroke-linejoin: miter"/>
    </g>
    <g id="line2d_18">
     <path d="M 66.6 54.570438 
L 76.6 54.570438 
L 86.6 54.570438 
" style="fill: none; stroke: #1f77b4; stroke-width: 1.5; stroke-linecap: square"/>
    </g>
    <g id="text_17">
     <!-- Weekly maximum -->
     <g transform="translate(94.6 58.070438) scale(0.1 -0.1)">
      <defs>
       <path id="DejaVuSans-57" d="M 213 4666 
L 850 4666 
L 1831 722 
L 2809 4666 
L 3519 4666 
L 4500 722 
L 5478 4666 
L 6119 4666 
L 4947 0 
L 4153 0 
L 3169 4050 
L 2175 0 
L 1381 0 
L 213 4666 
z
" transform="scale(0.015625)"/>
       <path id="DejaVuSans-6b" d="M 581 4863 
L 1159 4863 
L 1159 1991 
L 2875 3500 
L 3609 3500 
L 1753 1863 
L 3688 0 
L 2938 0 
L 1159 1709 
L 1159 0 
L 581 0 
L 581 4863 
z
" transform="scale(0.015625)"/>
       <path id="DejaVuSans-79" d="M 2059 -325 
Q 1816 -950 1584 -1140 
Q 1353 -1331 966 -1331 
L 506 -1331 
L 506 -850 
L 844 -850 
Q 1081 -850 1212 -737 
Q 1344 -625 1503 -206 
L 1606 56 
L 191 3500 
L 800 3500 
L 1894 763 
L 2988 3500 
L 3597 3500 
L 2059 -325 
z
" transform="scale(0.015625)"/>
       <path id="DejaVuSans-6d" d="M 3328 2828 
Q 3544 3216 3844 3400 
Q 4144 3584 4550 3584 
Q 5097 3584 5394 3201 
Q 5691 2819 5691 2113 
L 5691 0 
L 5113 0 
L 5113 2094 
Q 5113 2597 4934 2840 
Q 4756 3084 4391 3084 
Q 3944 3084 3684 2787 
Q 3425 2491 3425 1978 
L 3425 0 
L 2847 0 
L 2847 2094 
Q 2847 2600 2669 2842 
Q 2491 3084 2119 3084 
Q 1678 3084 1418 2786 
Q 1159 2488 1159 1978 
L 1159 0 
L 581 0 
L 581 3500 
L 1159 3500 
L 1159 2956 
Q 1356 3278 1631 3431 
Q 1906 3584 2284 3584 
Q 2666 3584 2933 3390 
Q 3200 3197 3328 2828 
z
" transform="scale(0.015625)"/>
       <path id="DejaVuSans-78" d="M 3513 3500 
L 2247 1797 
L 3578 0 
L 2900 0 
L 1881 1375 
L 863 0 
L 184 0 
L 1544 1831 
L 300 3500 
L 978 3500 
L 1906 2253 
L 2834 3500 
L 3513 3500 
z
" transform="scale(0.015625)"/>
       <path id="DejaVuSans-75" d="M 544 1381 
L 544 3500 
L 1119 3500 
L 1119 1403 
Q 1119 906 1312 657 
Q 1506 409 1894 409 
Q 2359 409 2629 706 
Q 2900 1003 2900 1516 
L 2900 3500 
L 3475 3500 
L 3475 0 
L 2900 0 
L 2900 538 
Q 2691 219 2414 64 
Q 2138 -91 1772 -91 
Q 1169 -91 856 284 
Q 544 659 544 1381 
z
M 1991 3584 
L 1991 3584 
z
" transform="scale(0.015625)"/>
      </defs>
      <use xlink:href="#DejaVuSans-57"/>
      <use xlink:href="#DejaVuSans-65" x="93.001953"/>
      <use xlink:href="#DejaVuSans-65" x="154.525391"/>
      <use xlink:href="#DejaVuSans-6b" x="216.048828"/>
      <use xlink:href="#DejaVuSans-6c" x="273.958984"/>
      <use xlink:href="#DejaVuSans-79" x="301.742188"/>
      <use xlink:href="#DejaVuSans-20" x="360.921875"/>
      <use xlink:href="#DejaVuSans-6d" x="392.708984"/>
      <use xlink:href="#DejaVuSans-61" x="490.121094"/>
      <use xlink:href="#DejaVuSans-78" x="551.400391"/>
      <use xlink:href="#DejaVuSans-69" x="610.580078"/>
      <use xlink:href="#DejaVuSans-6d" x="638.363281"/>
      <use xlink:href="#DejaVuSans-75" x="735.775391"/>
      <use xlink:href="#DejaVuSans-6d" x="799.154297"/>
     </g>
    </g>
    <g id="line2d_19">
     <path d="M 66.6 69.248563 
L 76.6 69.248563 
L 86.6 69.248563 
" style="fill: none; stroke: #ff7f0e; stroke-width: 1.5; stroke-linecap: square"/>
    </g>
    <g id="text_18">
     <!-- Weekly minimum -->
     <g transform="translate(94.6 72.748563) scale(0.1 -0.1)">
      <defs>
       <path id="DejaVuSans-6e" d="M 3513 2113 
L 3513 0 
L 2938 0 
L 2938 2094 
Q 2938 2591 2744 2837 
Q 2550 3084 2163 3084 
Q 1697 3084 1428 2787 
Q 1159 2491 1159 1978 
L 1159 0 
L 581 0 
L 581 3500 
L 1159 3500 
L 1159 2956 
Q 1366 3272 1645 3428 
Q 1925 3584 2291 3584 
Q 2894 3584 3203 3211 
Q 3513 2838 3513 2113 
z
" transform="scale(0.015625)"/>
      </defs>
      <use xlink:href="#DejaVuSans-57"/>
      <use xlink:href="#DejaVuSans-65" x="93.001953"/>
      <use xlink:href="#DejaVuSans-65" x="154.525391"/>
      <use xlink:href="#DejaVuSans-6b" x="216.048828"/>
      <use xlink:href="#DejaVuSans-6c" x="273.958984"/>
      <use xlink:href="#DejaVuSans-79" x="301.742188"/>
      <use xlink:href="#DejaVuSans-20" x="360.921875"/>
      <use xlink:href="#DejaVuSans-6d" x="392.708984"/>
      <use xlink:href="#DejaVuSans-69" x="490.121094"/>
      <use xlink:href="#DejaVuSans-6e" x="517.904297"/>
      <use xlink:href="#DejaVuSans-69" x="581.283203"/>
      <use xlink:href="#DejaVuSans-6d" x="609.066406"/>
      <use xlink:href="#DejaVuSans-75" x="706.478516"/>
      <use xlink:href="#DejaVuSans-6d" x="769.857422"/>
     </g>
    </g>
    <g id="line2d_20">
     <path d="M 66.6 83.926688 
L 76.6 83.926688 
L 86.6 83.926688 
" style="fill: none; stroke: #2ca02c; stroke-width: 1.5; stroke-linecap: square"/>
    </g>
    <g id="text_19">
     <!-- Weekly range -->
     <g transform="translate(94.6 87.426688) scale(0.1 -0.1)">
      <use xlink:href="#DejaVuSans-57"/>
      <use xlink:href="#DejaVuSans-65" x="93.001953"/>
      <use xlink:href="#DejaVuSans-65" x="154.525391"/>
      <use xlink:href="#DejaVuSans-6b" x="216.048828"/>
      <use xlink:href="#DejaVuSans-6c" x="273.958984"/>
      <use xlink:href="#DejaVuSans-79" x="301.742188"/>
      <use xlink:href="#DejaVuSans-20" x="360.921875"/>
      <use xlink:href="#DejaVuSans-72" x="392.708984"/>
      <use xlink:href="#DejaVuSans-61" x="433.822266"/>
      <use xlink:href="#DejaVuSans-6e" x="495.101562"/>
      <use xlink:href="#DejaVuSans-67" x="558.480469"/>
      <use xlink:href="#DejaVuSans-65" x="621.957031"/>
     </g>
    </g>
   </g>
  </g>
 </g>
 <defs>
  <clipPath id="pdcaa714df9">
   <rect x="57.6" y="41.472" width="357.12" height="266.112"/>
  </clipPath>
 </defs>
</svg>
