<?xml version="1.0" encoding="utf-8" standalone="no"?>
<!DOCTYPE svg PUBLIC "-//W3C//DTD SVG 1.1//EN"
  "http://www.w3.org/Graphics/SVG/1.1/DTD/svg11.dtd">
<svg xmlns:xlink="http://www.w3.org/1999/xlink" width="460.8pt" height="345.6pt" viewBox="0 0 460.8 345.6" xmlns="http://www.w3.org/2000/svg" version="1.1">
 <metadata>
  <rdf:RDF xmlns:dc="http://purl.org/dc/elements/1.1/" xmlns:cc="http://creativecommons.org/ns#" xmlns:rdf="http://www.w3.org/1999/02/22-rdf-syntax-ns#">
   <cc:Work>
    <dc:type rdf:resource="http://purl.org/dc/dcmitype/StillImage"/>
    <dc:date>2025-03-02T05:36:22.839849</dc:date>
    <dc:format>image/svg+xml</dc:format>
    <dc:creator>
     <cc:Agent>
      <dc:title>Matplotlib v3.10.1, https://matplotlib.org/</dc:title>
     </cc:Agent>
    </dc:creator>
   </cc:Work>
  </rdf:RDF>
 </metadata>
 <defs>
  <style type="text/css">*{stroke-linejoin: round; stroke-linecap: butt}</style>
 </defs>
 <g id="figure_1">
  <g id="patch_1">
   <path d="M 0 345.6 
L 460.8 345.6 
L 460.8 0 
L 0 0 
z
" style="fill: #ffffff"/>
  </g>
  <g id="axes_1">
   <g id="patch_2">
    <path d="M 57.6 307.584 
L 414.72 307.584 
L 414.72 41.472 
L 57.6 41.472 
z
" style="fill: #ffffff"/>
   </g>
   <g id="matplotlib.axis_1">
    <g id="xtick_1">
     <g id="line2d_1">
      <defs>
       <path id="m4b0f3b8a6c" d="M 0 0 
L 0 3.5 
" style="stroke: #000000; stroke-width: 0.8"/>
      </defs>
      <g>
       <use xlink:href="#m4b0f3b8a6c" x="60.673972" y="307.584" style="stroke: #000000; stroke-width: 0.8"/>
      </g>
     </g>
     <g id="text_1">
      <!-- 2008 -->
      <g transform="translate(47.948972 322.182437) scale(0.1 -0.1)">
       <defs>
        <path id="DejaVuSans-32" d="M 1228 531 
L 3431 531 
L 3431 0 
L 469 0 
L 469 531 
Q 828 903 1448 1529 
Q 2069 2156 2228 2338 
Q 2531 2678 2651 2914 
Q 2772 3150 2772 3378 
Q 2772 3750 2511 3984 
Q 2250 4219 1831 4219 
Q 1534 4219 1204 4116 
Q 875 4013 500 3803 
L 500 4441 
Q 881 4594 1212 4672 
Q 1544 4750 1819 4750 
Q 2544 4750 2975 4387 
Q 3406 4025 3406 3419 
Q 3406 3131 3298 2873 
Q 3191 2616 2906 2266 
Q 2828 2175 2409 1742 
Q 1991 1309 1228 531 
z
" transform="scale(0.015625)"/>
        <path id="DejaVuSans-30" d="M 2034 4250 
Q 1547 4250 1301 3770 
Q 1056 3291 1056 2328 
Q 1056 1369 1301 889 
Q 1547 409 2034 409 
Q 2525 409 2770 889 
Q 3016 1369 3016 2328 
Q 3016 3291 2770 3770 
Q 2525 4250 2034 4250 
z
M 2034 4750 
Q 2819 4750 3233 4129 
Q 3647 3509 3647 2328 
Q 3647 1150 3233 529 
Q 2819 -91 2034 -91 
Q 1250 -91 836 529 
Q 422 1150 422 2328 
Q 422 3509 836 4129 
Q 1250 4750 2034 4750 
z
" transform="scale(0.015625)"/>
        <path id="DejaVuSans-38" d="M 2034 2216 
Q 1584 2216 1326 1975 
Q 1069 1734 1069 1313 
Q 1069 891 1326 650 
Q 1584 409 2034 409 
Q 2484 409 2743 651 
Q 3003 894 3003 1313 
Q 3003 1734 2745 1975 
Q 2488 2216 2034 2216 
z
M 1403 2484 
Q 997 2584 770 2862 
Q 544 3141 544 3541 
Q 544 4100 942 4425 
Q 1341 4750 2034 4750 
Q 2731 4750 3128 4425 
Q 3525 4100 3525 3541 
Q 3525 3141 3298 2862 
Q 3072 2584 2669 2484 
Q 3125 2378 3379 2068 
Q 3634 1759 3634 1313 
Q 3634 634 3220 271 
Q 2806 -91 2034 -91 
Q 1263 -91 848 271 
Q 434 634 434 1313 
Q 434 1759 690 2068 
Q 947 2378 1403 2484 
z
M 1172 3481 
Q 1172 3119 1398 2916 
Q 1625 2713 2034 2713 
Q 2441 2713 2670 2916 
Q 2900 3119 2900 3481 
Q 2900 3844 2670 4047 
Q 2441 4250 2034 4250 
Q 1625 4250 1398 4047 
Q 1172 3844 1172 3481 
z
" transform="scale(0.015625)"/>
       </defs>
       <use xlink:href="#DejaVuSans-32"/>
       <use xlink:href="#DejaVuSans-30" transform="translate(63.623047 0)"/>
       <use xlink:href="#DejaVuSans-30" transform="translate(127.246094 0)"/>
       <use xlink:href="#DejaVuSans-38" transform="translate(190.869141 0)"/>
      </g>
     </g>
    </g>
    <g id="xtick_2">
     <g id="line2d_2">
      <g>
       <use xlink:href="#m4b0f3b8a6c" x="100.096309" y="307.584" style="stroke: #000000; stroke-width: 0.8"/>
      </g>
     </g>
     <g id="text_2">
      <!-- 2010 -->
      <g transform="translate(87.371309 322.182437) scale(0.1 -0.1)">
       <defs>
        <path id="DejaVuSans-31" d="M 794 531 
L 1825 531 
L 1825 4091 
L 703 3866 
L 703 4441 
L 1819 4666 
L 2450 4666 
L 2450 531 
L 3481 531 
L 3481 0 
L 794 0 
L 794 531 
z
" transform="scale(0.015625)"/>
       </defs>
       <use xlink:href="#DejaVuSans-32"/>
       <use xlink:href="#DejaVuSans-30" transform="translate(63.623047 0)"/>
       <use xlink:href="#DejaVuSans-31" transform="translate(127.246094 0)"/>
       <use xlink:href="#DejaVuSans-30" transform="translate(190.869141 0)"/>
      </g>
     </g>
    </g>
    <g id="xtick_3">
     <g id="line2d_3">
      <g>
       <use xlink:href="#m4b0f3b8a6c" x="139.464718" y="307.584" style="stroke: #000000; stroke-width: 0.8"/>
      </g>
     </g>
     <g id="text_3">
      <!-- 2012 -->
      <g transform="translate(126.739718 322.182437) scale(0.1 -0.1)">
       <use xlink:href="#DejaVuSans-32"/>
       <use xlink:href="#DejaVuSans-30" transform="translate(63.623047 0)"/>
       <use xlink:href="#DejaVuSans-31" transform="translate(127.246094 0)"/>
       <use xlink:href="#DejaVuSans-32" transform="translate(190.869141 0)"/>
      </g>
     </g>
    </g>
    <g id="xtick_4">
     <g id="line2d_4">
      <g>
       <use xlink:href="#m4b0f3b8a6c" x="178.887055" y="307.584" style="stroke: #000000; stroke-width: 0.8"/>
      </g>
     </g>
     <g id="text_4">
      <!-- 2014 -->
      <g transform="translate(166.162055 322.182437) scale(0.1 -0.1)">
       <defs>
        <path id="DejaVuSans-34" d="M 2419 4116 
L 825 1625 
L 2419 1625 
L 2419 4116 
z
M 2253 4666 
L 3047 4666 
L 3047 1625 
L 3713 1625 
L 3713 1100 
L 3047 1100 
L 3047 0 
L 2419 0 
L 2419 1100 
L 313 1100 
L 313 1709 
L 2253 4666 
z
" transform="scale(0.015625)"/>
       </defs>
       <use xlink:href="#DejaVuSans-32"/>
       <use xlink:href="#DejaVuSans-30" transform="translate(63.623047 0)"/>
       <use xlink:href="#DejaVuSans-31" transform="translate(127.246094 0)"/>
       <use xlink:href="#DejaVuSans-34" transform="translate(190.869141 0)"/>
      </g>
     </g>
    </g>
    <g id="xtick_5">
     <g id="line2d_5">
      <g>
       <use xlink:href="#m4b0f3b8a6c" x="218.255464" y="307.584" style="stroke: #000000; stroke-width: 0.8"/>
      </g>
     </g>
     <g id="text_5">
      <!-- 2016 -->
      <g transform="translate(205.530464 322.182437) scale(0.1 -0.1)">
       <defs>
        <path id="DejaVuSans-36" d="M 2113 2584 
Q 1688 2584 1439 2293 
Q 1191 2003 1191 1497 
Q 1191 994 1439 701 
Q 1688 409 2113 409 
Q 2538 409 2786 701 
Q 3034 994 3034 1497 
Q 3034 2003 2786 2293 
Q 2538 2584 2113 2584 
z
M 3366 4563 
L 3366 3988 
Q 3128 4100 2886 4159 
Q 2644 4219 2406 4219 
Q 1781 4219 1451 3797 
Q 1122 3375 1075 2522 
Q 1259 2794 1537 2939 
Q 1816 3084 2150 3084 
Q 2853 3084 3261 2657 
Q 3669 2231 3669 1497 
Q 3669 778 3244 343 
Q 2819 -91 2113 -91 
Q 1303 -91 875 529 
Q 447 1150 447 2328 
Q 447 3434 972 4092 
Q 1497 4750 2381 4750 
Q 2619 4750 2861 4703 
Q 3103 4656 3366 4563 
z
" transform="scale(0.015625)"/>
       </defs>
       <use xlink:href="#DejaVuSans-32"/>
       <use xlink:href="#DejaVuSans-30" transform="translate(63.623047 0)"/>
       <use xlink:href="#DejaVuSans-31" transform="translate(127.246094 0)"/>
       <use xlink:href="#DejaVuSans-36" transform="translate(190.869141 0)"/>
      </g>
     </g>
    </g>
    <g id="xtick_6">
     <g id="line2d_6">
      <g>
       <use xlink:href="#m4b0f3b8a6c" x="257.677801" y="307.584" style="stroke: #000000; stroke-width: 0.8"/>
      </g>
     </g>
     <g id="text_6">
      <!-- 2018 -->
      <g transform="translate(244.952801 322.182437) scale(0.1 -0.1)">
       <use xlink:href="#DejaVuSans-32"/>
       <use xlink:href="#DejaVuSans-30" transform="translate(63.623047 0)"/>
       <use xlink:href="#DejaVuSans-31" transform="translate(127.246094 0)"/>
       <use xlink:href="#DejaVuSans-38" transform="translate(190.869141 0)"/>
      </g>
     </g>
    </g>
    <g id="xtick_7">
     <g id="line2d_7">
      <g>
       <use xlink:href="#m4b0f3b8a6c" x="297.04621" y="307.584" style="stroke: #000000; stroke-width: 0.8"/>
      </g>
     </g>
     <g id="text_7">
      <!-- 2020 -->
      <g transform="translate(284.32121 322.182437) scale(0.1 -0.1)">
       <use xlink:href="#DejaVuSans-32"/>
       <use xlink:href="#DejaVuSans-30" transform="translate(63.623047 0)"/>
       <use xlink:href="#DejaVuSans-32" transform="translate(127.246094 0)"/>
       <use xlink:href="#DejaVuSans-30" transform="translate(190.869141 0)"/>
      </g>
     </g>
    </g>
    <g id="xtick_8">
     <g id="line2d_8">
      <g>
       <use xlink:href="#m4b0f3b8a6c" x="336.468547" y="307.584" style="stroke: #000000; stroke-width: 0.8"/>
      </g>
     </g>
     <g id="text_8">
      <!-- 2022 -->
      <g transform="translate(323.743547 322.182437) scale(0.1 -0.1)">
       <use xlink:href="#DejaVuSans-32"/>
       <use xlink:href="#DejaVuSans-30" transform="translate(63.623047 0)"/>
       <use xlink:href="#DejaVuSans-32" transform="translate(127.246094 0)"/>
       <use xlink:href="#DejaVuSans-32" transform="translate(190.869141 0)"/>
      </g>
     </g>
    </g>
    <g id="xtick_9">
     <g id="line2d_9">
      <g>
       <use xlink:href="#m4b0f3b8a6c" x="375.836956" y="307.584" style="stroke: #000000; stroke-width: 0.8"/>
      </g>
     </g>
     <g id="text_9">
      <!-- 2024 -->
      <g transform="translate(363.111956 322.182437) scale(0.1 -0.1)">
       <use xlink:href="#DejaVuSans-32"/>
       <use xlink:href="#DejaVuSans-30" transform="translate(63.623047 0)"/>
       <use xlink:href="#DejaVuSans-32" transform="translate(127.246094 0)"/>
       <use xlink:href="#DejaVuSans-34" transform="translate(190.869141 0)"/>
      </g>
     </g>
    </g>
    <g id="text_10">
     <!-- Updated 2025-03-02 05:36:22.838057 - Last record 2025-02-28 -->
     <g transform="translate(75.905312 335.860562) scale(0.1 -0.1)">
      <defs>
       <path id="DejaVuSans-55" d="M 556 4666 
L 1191 4666 
L 1191 1831 
Q 1191 1081 1462 751 
Q 1734 422 2344 422 
Q 2950 422 3222 751 
Q 3494 1081 3494 1831 
L 3494 4666 
L 4128 4666 
L 4128 1753 
Q 4128 841 3676 375 
Q 3225 -91 2344 -91 
Q 1459 -91 1007 375 
Q 556 841 556 1753 
L 556 4666 
z
" transform="scale(0.015625)"/>
       <path id="DejaVuSans-70" d="M 1159 525 
L 1159 -1331 
L 581 -1331 
L 581 3500 
L 1159 3500 
L 1159 2969 
Q 1341 3281 1617 3432 
Q 1894 3584 2278 3584 
Q 2916 3584 3314 3078 
Q 3713 2572 3713 1747 
Q 3713 922 3314 415 
Q 2916 -91 2278 -91 
Q 1894 -91 1617 61 
Q 1341 213 1159 525 
z
M 3116 1747 
Q 3116 2381 2855 2742 
Q 2594 3103 2138 3103 
Q 1681 3103 1420 2742 
Q 1159 2381 1159 1747 
Q 1159 1113 1420 752 
Q 1681 391 2138 391 
Q 2594 391 2855 752 
Q 3116 1113 3116 1747 
z
" transform="scale(0.015625)"/>
       <path id="DejaVuSans-64" d="M 2906 2969 
L 2906 4863 
L 3481 4863 
L 3481 0 
L 2906 0 
L 2906 525 
Q 2725 213 2448 61 
Q 2172 -91 1784 -91 
Q 1150 -91 751 415 
Q 353 922 353 1747 
Q 353 2572 751 3078 
Q 1150 3584 1784 3584 
Q 2172 3584 2448 3432 
Q 2725 3281 2906 2969 
z
M 947 1747 
Q 947 1113 1208 752 
Q 1469 391 1925 391 
Q 2381 391 2643 752 
Q 2906 1113 2906 1747 
Q 2906 2381 2643 2742 
Q 2381 3103 1925 3103 
Q 1469 3103 1208 2742 
Q 947 2381 947 1747 
z
" transform="scale(0.015625)"/>
       <path id="DejaVuSans-61" d="M 2194 1759 
Q 1497 1759 1228 1600 
Q 959 1441 959 1056 
Q 959 750 1161 570 
Q 1363 391 1709 391 
Q 2188 391 2477 730 
Q 2766 1069 2766 1631 
L 2766 1759 
L 2194 1759 
z
M 3341 1997 
L 3341 0 
L 2766 0 
L 2766 531 
Q 2569 213 2275 61 
Q 1981 -91 1556 -91 
Q 1019 -91 701 211 
Q 384 513 384 1019 
Q 384 1609 779 1909 
Q 1175 2209 1959 2209 
L 2766 2209 
L 2766 2266 
Q 2766 2663 2505 2880 
Q 2244 3097 1772 3097 
Q 1472 3097 1187 3025 
Q 903 2953 641 2809 
L 641 3341 
Q 956 3463 1253 3523 
Q 1550 3584 1831 3584 
Q 2591 3584 2966 3190 
Q 3341 2797 3341 1997 
z
" transform="scale(0.015625)"/>
       <path id="DejaVuSans-74" d="M 1172 4494 
L 1172 3500 
L 2356 3500 
L 2356 3053 
L 1172 3053 
L 1172 1153 
Q 1172 725 1289 603 
Q 1406 481 1766 481 
L 2356 481 
L 2356 0 
L 1766 0 
Q 1100 0 847 248 
Q 594 497 594 1153 
L 594 3053 
L 172 3053 
L 172 3500 
L 594 3500 
L 594 4494 
L 1172 4494 
z
" transform="scale(0.015625)"/>
       <path id="DejaVuSans-65" d="M 3597 1894 
L 3597 1613 
L 953 1613 
Q 991 1019 1311 708 
Q 1631 397 2203 397 
Q 2534 397 2845 478 
Q 3156 559 3463 722 
L 3463 178 
Q 3153 47 2828 -22 
Q 2503 -91 2169 -91 
Q 1331 -91 842 396 
Q 353 884 353 1716 
Q 353 2575 817 3079 
Q 1281 3584 2069 3584 
Q 2775 3584 3186 3129 
Q 3597 2675 3597 1894 
z
M 3022 2063 
Q 3016 2534 2758 2815 
Q 2500 3097 2075 3097 
Q 1594 3097 1305 2825 
Q 1016 2553 972 2059 
L 3022 2063 
z
" transform="scale(0.015625)"/>
       <path id="DejaVuSans-20" transform="scale(0.015625)"/>
       <path id="DejaVuSans-35" d="M 691 4666 
L 3169 4666 
L 3169 4134 
L 1269 4134 
L 1269 2991 
Q 1406 3038 1543 3061 
Q 1681 3084 1819 3084 
Q 2600 3084 3056 2656 
Q 3513 2228 3513 1497 
Q 3513 744 3044 326 
Q 2575 -91 1722 -91 
Q 1428 -91 1123 -41 
Q 819 9 494 109 
L 494 744 
Q 775 591 1075 516 
Q 1375 441 1709 441 
Q 2250 441 2565 725 
Q 2881 1009 2881 1497 
Q 2881 1984 2565 2268 
Q 2250 2553 1709 2553 
Q 1456 2553 1204 2497 
Q 953 2441 691 2322 
L 691 4666 
z
" transform="scale(0.015625)"/>
       <path id="DejaVuSans-2d" d="M 313 2009 
L 1997 2009 
L 1997 1497 
L 313 1497 
L 313 2009 
z
" transform="scale(0.015625)"/>
       <path id="DejaVuSans-33" d="M 2597 2516 
Q 3050 2419 3304 2112 
Q 3559 1806 3559 1356 
Q 3559 666 3084 287 
Q 2609 -91 1734 -91 
Q 1441 -91 1130 -33 
Q 819 25 488 141 
L 488 750 
Q 750 597 1062 519 
Q 1375 441 1716 441 
Q 2309 441 2620 675 
Q 2931 909 2931 1356 
Q 2931 1769 2642 2001 
Q 2353 2234 1838 2234 
L 1294 2234 
L 1294 2753 
L 1863 2753 
Q 2328 2753 2575 2939 
Q 2822 3125 2822 3475 
Q 2822 3834 2567 4026 
Q 2313 4219 1838 4219 
Q 1578 4219 1281 4162 
Q 984 4106 628 3988 
L 628 4550 
Q 988 4650 1302 4700 
Q 1616 4750 1894 4750 
Q 2613 4750 3031 4423 
Q 3450 4097 3450 3541 
Q 3450 3153 3228 2886 
Q 3006 2619 2597 2516 
z
" transform="scale(0.015625)"/>
       <path id="DejaVuSans-3a" d="M 750 794 
L 1409 794 
L 1409 0 
L 750 0 
L 750 794 
z
M 750 3309 
L 1409 3309 
L 1409 2516 
L 750 2516 
L 750 3309 
z
" transform="scale(0.015625)"/>
       <path id="DejaVuSans-2e" d="M 684 794 
L 1344 794 
L 1344 0 
L 684 0 
L 684 794 
z
" transform="scale(0.015625)"/>
       <path id="DejaVuSans-37" d="M 525 4666 
L 3525 4666 
L 3525 4397 
L 1831 0 
L 1172 0 
L 2766 4134 
L 525 4134 
L 525 4666 
z
" transform="scale(0.015625)"/>
       <path id="DejaVuSans-4c" d="M 628 4666 
L 1259 4666 
L 1259 531 
L 3531 531 
L 3531 0 
L 628 0 
L 628 4666 
z
" transform="scale(0.015625)"/>
       <path id="DejaVuSans-73" d="M 2834 3397 
L 2834 2853 
Q 2591 2978 2328 3040 
Q 2066 3103 1784 3103 
Q 1356 3103 1142 2972 
Q 928 2841 928 2578 
Q 928 2378 1081 2264 
Q 1234 2150 1697 2047 
L 1894 2003 
Q 2506 1872 2764 1633 
Q 3022 1394 3022 966 
Q 3022 478 2636 193 
Q 2250 -91 1575 -91 
Q 1294 -91 989 -36 
Q 684 19 347 128 
L 347 722 
Q 666 556 975 473 
Q 1284 391 1588 391 
Q 1994 391 2212 530 
Q 2431 669 2431 922 
Q 2431 1156 2273 1281 
Q 2116 1406 1581 1522 
L 1381 1569 
Q 847 1681 609 1914 
Q 372 2147 372 2553 
Q 372 3047 722 3315 
Q 1072 3584 1716 3584 
Q 2034 3584 2315 3537 
Q 2597 3491 2834 3397 
z
" transform="scale(0.015625)"/>
       <path id="DejaVuSans-72" d="M 2631 2963 
Q 2534 3019 2420 3045 
Q 2306 3072 2169 3072 
Q 1681 3072 1420 2755 
Q 1159 2438 1159 1844 
L 1159 0 
L 581 0 
L 581 3500 
L 1159 3500 
L 1159 2956 
Q 1341 3275 1631 3429 
Q 1922 3584 2338 3584 
Q 2397 3584 2469 3576 
Q 2541 3569 2628 3553 
L 2631 2963 
z
" transform="scale(0.015625)"/>
       <path id="DejaVuSans-63" d="M 3122 3366 
L 3122 2828 
Q 2878 2963 2633 3030 
Q 2388 3097 2138 3097 
Q 1578 3097 1268 2742 
Q 959 2388 959 1747 
Q 959 1106 1268 751 
Q 1578 397 2138 397 
Q 2388 397 2633 464 
Q 2878 531 3122 666 
L 3122 134 
Q 2881 22 2623 -34 
Q 2366 -91 2075 -91 
Q 1284 -91 818 406 
Q 353 903 353 1747 
Q 353 2603 823 3093 
Q 1294 3584 2113 3584 
Q 2378 3584 2631 3529 
Q 2884 3475 3122 3366 
z
" transform="scale(0.015625)"/>
       <path id="DejaVuSans-6f" d="M 1959 3097 
Q 1497 3097 1228 2736 
Q 959 2375 959 1747 
Q 959 1119 1226 758 
Q 1494 397 1959 397 
Q 2419 397 2687 759 
Q 2956 1122 2956 1747 
Q 2956 2369 2687 2733 
Q 2419 3097 1959 3097 
z
M 1959 3584 
Q 2709 3584 3137 3096 
Q 3566 2609 3566 1747 
Q 3566 888 3137 398 
Q 2709 -91 1959 -91 
Q 1206 -91 779 398 
Q 353 888 353 1747 
Q 353 2609 779 3096 
Q 1206 3584 1959 3584 
z
" transform="scale(0.015625)"/>
      </defs>
      <use xlink:href="#DejaVuSans-55"/>
      <use xlink:href="#DejaVuSans-70" transform="translate(73.193359 0)"/>
      <use xlink:href="#DejaVuSans-64" transform="translate(136.669922 0)"/>
      <use xlink:href="#DejaVuSans-61" transform="translate(200.146484 0)"/>
      <use xlink:href="#DejaVuSans-74" transform="translate(261.425781 0)"/>
      <use xlink:href="#DejaVuSans-65" transform="translate(300.634766 0)"/>
      <use xlink:href="#DejaVuSans-64" transform="translate(362.158203 0)"/>
      <use xlink:href="#DejaVuSans-20" transform="translate(425.634766 0)"/>
      <use xlink:href="#DejaVuSans-32" transform="translate(457.421875 0)"/>
      <use xlink:href="#DejaVuSans-30" transform="translate(521.044922 0)"/>
      <use xlink:href="#DejaVuSans-32" transform="translate(584.667969 0)"/>
      <use xlink:href="#DejaVuSans-35" transform="translate(648.291016 0)"/>
      <use xlink:href="#DejaVuSans-2d" transform="translate(711.914062 0)"/>
      <use xlink:href="#DejaVuSans-30" transform="translate(747.998047 0)"/>
      <use xlink:href="#DejaVuSans-33" transform="translate(811.621094 0)"/>
      <use xlink:href="#DejaVuSans-2d" transform="translate(875.244141 0)"/>
      <use xlink:href="#DejaVuSans-30" transform="translate(911.328125 0)"/>
      <use xlink:href="#DejaVuSans-32" transform="translate(974.951172 0)"/>
      <use xlink:href="#DejaVuSans-20" transform="translate(1038.574219 0)"/>
      <use xlink:href="#DejaVuSans-30" transform="translate(1070.361328 0)"/>
      <use xlink:href="#DejaVuSans-35" transform="translate(1133.984375 0)"/>
      <use xlink:href="#DejaVuSans-3a" transform="translate(1197.607422 0)"/>
      <use xlink:href="#DejaVuSans-33" transform="translate(1231.298828 0)"/>
      <use xlink:href="#DejaVuSans-36" transform="translate(1294.921875 0)"/>
      <use xlink:href="#DejaVuSans-3a" transform="translate(1358.544922 0)"/>
      <use xlink:href="#DejaVuSans-32" transform="translate(1392.236328 0)"/>
      <use xlink:href="#DejaVuSans-32" transform="translate(1455.859375 0)"/>
      <use xlink:href="#DejaVuSans-2e" transform="translate(1519.482422 0)"/>
      <use xlink:href="#DejaVuSans-38" transform="translate(1551.269531 0)"/>
      <use xlink:href="#DejaVuSans-33" transform="translate(1614.892578 0)"/>
      <use xlink:href="#DejaVuSans-38" transform="translate(1678.515625 0)"/>
      <use xlink:href="#DejaVuSans-30" transform="translate(1742.138672 0)"/>
      <use xlink:href="#DejaVuSans-35" transform="translate(1805.761719 0)"/>
      <use xlink:href="#DejaVuSans-37" transform="translate(1869.384766 0)"/>
      <use xlink:href="#DejaVuSans-20" transform="translate(1933.007812 0)"/>
      <use xlink:href="#DejaVuSans-2d" transform="translate(1964.794922 0)"/>
      <use xlink:href="#DejaVuSans-20" transform="translate(2000.878906 0)"/>
      <use xlink:href="#DejaVuSans-4c" transform="translate(2032.666016 0)"/>
      <use xlink:href="#DejaVuSans-61" transform="translate(2088.378906 0)"/>
      <use xlink:href="#DejaVuSans-73" transform="translate(2149.658203 0)"/>
      <use xlink:href="#DejaVuSans-74" transform="translate(2201.757812 0)"/>
      <use xlink:href="#DejaVuSans-20" transform="translate(2240.966797 0)"/>
      <use xlink:href="#DejaVuSans-72" transform="translate(2272.753906 0)"/>
      <use xlink:href="#DejaVuSans-65" transform="translate(2311.617188 0)"/>
      <use xlink:href="#DejaVuSans-63" transform="translate(2373.140625 0)"/>
      <use xlink:href="#DejaVuSans-6f" transform="translate(2428.121094 0)"/>
      <use xlink:href="#DejaVuSans-72" transform="translate(2489.302734 0)"/>
      <use xlink:href="#DejaVuSans-64" transform="translate(2528.666016 0)"/>
      <use xlink:href="#DejaVuSans-20" transform="translate(2592.142578 0)"/>
      <use xlink:href="#DejaVuSans-32" transform="translate(2623.929688 0)"/>
      <use xlink:href="#DejaVuSans-30" transform="translate(2687.552734 0)"/>
      <use xlink:href="#DejaVuSans-32" transform="translate(2751.175781 0)"/>
      <use xlink:href="#DejaVuSans-35" transform="translate(2814.798828 0)"/>
      <use xlink:href="#DejaVuSans-2d" transform="translate(2878.421875 0)"/>
      <use xlink:href="#DejaVuSans-30" transform="translate(2914.505859 0)"/>
      <use xlink:href="#DejaVuSans-32" transform="translate(2978.128906 0)"/>
      <use xlink:href="#DejaVuSans-2d" transform="translate(3041.751953 0)"/>
      <use xlink:href="#DejaVuSans-32" transform="translate(3077.835938 0)"/>
      <use xlink:href="#DejaVuSans-38" transform="translate(3141.458984 0)"/>
     </g>
    </g>
   </g>
   <g id="matplotlib.axis_2">
    <g id="ytick_1">
     <g id="line2d_10">
      <defs>
       <path id="m9551701ec8" d="M 0 0 
L -3.5 0 
" style="stroke: #000000; stroke-width: 0.8"/>
      </defs>
      <g>
       <use xlink:href="#m9551701ec8" x="57.6" y="295.488" style="stroke: #000000; stroke-width: 0.8"/>
      </g>
     </g>
     <g id="text_11">
      <!-- 0 -->
      <g transform="translate(44.2375 299.287219) scale(0.1 -0.1)">
       <use xlink:href="#DejaVuSans-30"/>
      </g>
     </g>
    </g>
    <g id="ytick_2">
     <g id="line2d_11">
      <g>
       <use xlink:href="#m9551701ec8" x="57.6" y="244.572272" style="stroke: #000000; stroke-width: 0.8"/>
      </g>
     </g>
     <g id="text_12">
      <!-- 10 -->
      <g transform="translate(37.875 248.371491) scale(0.1 -0.1)">
       <use xlink:href="#DejaVuSans-31"/>
       <use xlink:href="#DejaVuSans-30" transform="translate(63.623047 0)"/>
      </g>
     </g>
    </g>
    <g id="ytick_3">
     <g id="line2d_12">
      <g>
       <use xlink:href="#m9551701ec8" x="57.6" y="193.656545" style="stroke: #000000; stroke-width: 0.8"/>
      </g>
     </g>
     <g id="text_13">
      <!-- 20 -->
      <g transform="translate(37.875 197.455764) scale(0.1 -0.1)">
       <use xlink:href="#DejaVuSans-32"/>
       <use xlink:href="#DejaVuSans-30" transform="translate(63.623047 0)"/>
      </g>
     </g>
    </g>
    <g id="ytick_4">
     <g id="line2d_13">
      <g>
       <use xlink:href="#m9551701ec8" x="57.6" y="142.740817" style="stroke: #000000; stroke-width: 0.8"/>
      </g>
     </g>
     <g id="text_14">
      <!-- 30 -->
      <g transform="translate(37.875 146.540036) scale(0.1 -0.1)">
       <use xlink:href="#DejaVuSans-33"/>
       <use xlink:href="#DejaVuSans-30" transform="translate(63.623047 0)"/>
      </g>
     </g>
    </g>
    <g id="ytick_5">
     <g id="line2d_14">
      <g>
       <use xlink:href="#m9551701ec8" x="57.6" y="91.82509" style="stroke: #000000; stroke-width: 0.8"/>
      </g>
     </g>
     <g id="text_15">
      <!-- 40 -->
      <g transform="translate(37.875 95.624309) scale(0.1 -0.1)">
       <use xlink:href="#DejaVuSans-34"/>
       <use xlink:href="#DejaVuSans-30" transform="translate(63.623047 0)"/>
      </g>
     </g>
    </g>
    <g id="text_16">
     <!-- IPv6 as % of total Google traffic -->
     <g transform="translate(31.795312 253.735813) rotate(-90) scale(0.1 -0.1)">
      <defs>
       <path id="DejaVuSans-49" d="M 628 4666 
L 1259 4666 
L 1259 0 
L 628 0 
L 628 4666 
z
" transform="scale(0.015625)"/>
       <path id="DejaVuSans-50" d="M 1259 4147 
L 1259 2394 
L 2053 2394 
Q 2494 2394 2734 2622 
Q 2975 2850 2975 3272 
Q 2975 3691 2734 3919 
Q 2494 4147 2053 4147 
L 1259 4147 
z
M 628 4666 
L 2053 4666 
Q 2838 4666 3239 4311 
Q 3641 3956 3641 3272 
Q 3641 2581 3239 2228 
Q 2838 1875 2053 1875 
L 1259 1875 
L 1259 0 
L 628 0 
L 628 4666 
z
" transform="scale(0.015625)"/>
       <path id="DejaVuSans-76" d="M 191 3500 
L 800 3500 
L 1894 563 
L 2988 3500 
L 3597 3500 
L 2284 0 
L 1503 0 
L 191 3500 
z
" transform="scale(0.015625)"/>
       <path id="DejaVuSans-25" d="M 4653 2053 
Q 4381 2053 4226 1822 
Q 4072 1591 4072 1178 
Q 4072 772 4226 539 
Q 4381 306 4653 306 
Q 4919 306 5073 539 
Q 5228 772 5228 1178 
Q 5228 1588 5073 1820 
Q 4919 2053 4653 2053 
z
M 4653 2450 
Q 5147 2450 5437 2106 
Q 5728 1763 5728 1178 
Q 5728 594 5436 251 
Q 5144 -91 4653 -91 
Q 4153 -91 3862 251 
Q 3572 594 3572 1178 
Q 3572 1766 3864 2108 
Q 4156 2450 4653 2450 
z
M 1428 4353 
Q 1159 4353 1004 4120 
Q 850 3888 850 3481 
Q 850 3069 1003 2837 
Q 1156 2606 1428 2606 
Q 1700 2606 1854 2837 
Q 2009 3069 2009 3481 
Q 2009 3884 1853 4118 
Q 1697 4353 1428 4353 
z
M 4250 4750 
L 4750 4750 
L 1831 -91 
L 1331 -91 
L 4250 4750 
z
M 1428 4750 
Q 1922 4750 2215 4408 
Q 2509 4066 2509 3481 
Q 2509 2891 2217 2550 
Q 1925 2209 1428 2209 
Q 931 2209 642 2551 
Q 353 2894 353 3481 
Q 353 4063 643 4406 
Q 934 4750 1428 4750 
z
" transform="scale(0.015625)"/>
       <path id="DejaVuSans-66" d="M 2375 4863 
L 2375 4384 
L 1825 4384 
Q 1516 4384 1395 4259 
Q 1275 4134 1275 3809 
L 1275 3500 
L 2222 3500 
L 2222 3053 
L 1275 3053 
L 1275 0 
L 697 0 
L 697 3053 
L 147 3053 
L 147 3500 
L 697 3500 
L 697 3744 
Q 697 4328 969 4595 
Q 1241 4863 1831 4863 
L 2375 4863 
z
" transform="scale(0.015625)"/>
       <path id="DejaVuSans-6c" d="M 603 4863 
L 1178 4863 
L 1178 0 
L 603 0 
L 603 4863 
z
" transform="scale(0.015625)"/>
       <path id="DejaVuSans-47" d="M 3809 666 
L 3809 1919 
L 2778 1919 
L 2778 2438 
L 4434 2438 
L 4434 434 
Q 4069 175 3628 42 
Q 3188 -91 2688 -91 
Q 1594 -91 976 548 
Q 359 1188 359 2328 
Q 359 3472 976 4111 
Q 1594 4750 2688 4750 
Q 3144 4750 3555 4637 
Q 3966 4525 4313 4306 
L 4313 3634 
Q 3963 3931 3569 4081 
Q 3175 4231 2741 4231 
Q 1884 4231 1454 3753 
Q 1025 3275 1025 2328 
Q 1025 1384 1454 906 
Q 1884 428 2741 428 
Q 3075 428 3337 486 
Q 3600 544 3809 666 
z
" transform="scale(0.015625)"/>
       <path id="DejaVuSans-67" d="M 2906 1791 
Q 2906 2416 2648 2759 
Q 2391 3103 1925 3103 
Q 1463 3103 1205 2759 
Q 947 2416 947 1791 
Q 947 1169 1205 825 
Q 1463 481 1925 481 
Q 2391 481 2648 825 
Q 2906 1169 2906 1791 
z
M 3481 434 
Q 3481 -459 3084 -895 
Q 2688 -1331 1869 -1331 
Q 1566 -1331 1297 -1286 
Q 1028 -1241 775 -1147 
L 775 -588 
Q 1028 -725 1275 -790 
Q 1522 -856 1778 -856 
Q 2344 -856 2625 -561 
Q 2906 -266 2906 331 
L 2906 616 
Q 2728 306 2450 153 
Q 2172 0 1784 0 
Q 1141 0 747 490 
Q 353 981 353 1791 
Q 353 2603 747 3093 
Q 1141 3584 1784 3584 
Q 2172 3584 2450 3431 
Q 2728 3278 2906 2969 
L 2906 3500 
L 3481 3500 
L 3481 434 
z
" transform="scale(0.015625)"/>
       <path id="DejaVuSans-69" d="M 603 3500 
L 1178 3500 
L 1178 0 
L 603 0 
L 603 3500 
z
M 603 4863 
L 1178 4863 
L 1178 4134 
L 603 4134 
L 603 4863 
z
" transform="scale(0.015625)"/>
      </defs>
      <use xlink:href="#DejaVuSans-49"/>
      <use xlink:href="#DejaVuSans-50" transform="translate(29.492188 0)"/>
      <use xlink:href="#DejaVuSans-76" transform="translate(89.794922 0)"/>
      <use xlink:href="#DejaVuSans-36" transform="translate(148.974609 0)"/>
      <use xlink:href="#DejaVuSans-20" transform="translate(212.597656 0)"/>
      <use xlink:href="#DejaVuSans-61" transform="translate(244.384766 0)"/>
      <use xlink:href="#DejaVuSans-73" transform="translate(305.664062 0)"/>
      <use xlink:href="#DejaVuSans-20" transform="translate(357.763672 0)"/>
      <use xlink:href="#DejaVuSans-25" transform="translate(389.550781 0)"/>
      <use xlink:href="#DejaVuSans-20" transform="translate(484.570312 0)"/>
      <use xlink:href="#DejaVuSans-6f" transform="translate(516.357422 0)"/>
      <use xlink:href="#DejaVuSans-66" transform="translate(577.539062 0)"/>
      <use xlink:href="#DejaVuSans-20" transform="translate(612.744141 0)"/>
      <use xlink:href="#DejaVuSans-74" transform="translate(644.53125 0)"/>
      <use xlink:href="#DejaVuSans-6f" transform="translate(683.740234 0)"/>
      <use xlink:href="#DejaVuSans-74" transform="translate(744.921875 0)"/>
      <use xlink:href="#DejaVuSans-61" transform="translate(784.130859 0)"/>
      <use xlink:href="#DejaVuSans-6c" transform="translate(845.410156 0)"/>
      <use xlink:href="#DejaVuSans-20" transform="translate(873.193359 0)"/>
      <use xlink:href="#DejaVuSans-47" transform="translate(904.980469 0)"/>
      <use xlink:href="#DejaVuSans-6f" transform="translate(982.470703 0)"/>
      <use xlink:href="#DejaVuSans-6f" transform="translate(1043.652344 0)"/>
      <use xlink:href="#DejaVuSans-67" transform="translate(1104.833984 0)"/>
      <use xlink:href="#DejaVuSans-6c" transform="translate(1168.310547 0)"/>
      <use xlink:href="#DejaVuSans-65" transform="translate(1196.09375 0)"/>
      <use xlink:href="#DejaVuSans-20" transform="translate(1257.617188 0)"/>
      <use xlink:href="#DejaVuSans-74" transform="translate(1289.404297 0)"/>
      <use xlink:href="#DejaVuSans-72" transform="translate(1328.613281 0)"/>
      <use xlink:href="#DejaVuSans-61" transform="translate(1369.726562 0)"/>
      <use xlink:href="#DejaVuSans-66" transform="translate(1431.005859 0)"/>
      <use xlink:href="#DejaVuSans-66" transform="translate(1466.210938 0)"/>
      <use xlink:href="#DejaVuSans-69" transform="translate(1501.416016 0)"/>
      <use xlink:href="#DejaVuSans-63" transform="translate(1529.199219 0)"/>
     </g>
    </g>
   </g>
   <g id="line2d_15">
    <path d="M 73.832727 294.560351 
L 75.342748 294.403128 
L 75.720254 294.552841 
L 77.230275 294.552184 
L 78.740296 294.415715 
L 79.117801 294.295034 
L 80.250317 294.315054 
L 83.647865 294.2428 
L 84.780381 294.269261 
L 86.290402 294.197378 
L 89.310444 294.259704 
L 89.687949 294.357656 
L 91.952981 294.349799 
L 92.707992 294.287107 
L 94.218013 294.195718 
L 94.973023 294.204063 
L 95.350529 293.956185 
L 97.61556 293.871156 
L 98.748076 293.874715 
L 99.880592 293.965243 
L 101.013108 293.920157 
L 102.145624 293.965508 
L 104.03315 293.934317 
L 105.165666 294.114894 
L 106.298182 294.064987 
L 107.053192 294.145052 
L 107.808203 294.221604 
L 108.185708 294.145235 
L 110.45074 294.353883 
L 112.338266 294.271272 
L 113.093277 294.171217 
L 113.470782 294.088744 
L 114.225793 294.084681 
L 117.245835 294.087415 
L 117.62334 294.111111 
L 118.000846 293.989469 
L 120.265877 294.215097 
L 123.28592 294.052553 
L 123.663425 294.057991 
L 124.04093 293.942209 
L 124.795941 294.039056 
L 125.550951 293.859292 
L 125.928457 293.903981 
L 126.305962 293.793621 
L 126.683467 293.84194 
L 127.438478 293.739248 
L 128.570994 293.724631 
L 128.948499 293.851334 
L 130.45852 293.879954 
L 131.213531 293.893559 
L 131.591036 293.857577 
L 132.346047 293.642453 
L 132.723552 293.522633 
L 135.366089 293.66594 
L 138.008626 293.202653 
L 138.763636 293.343267 
L 141.783679 292.895677 
L 142.161184 292.997625 
L 144.426216 292.510021 
L 145.181226 292.525972 
L 146.313742 292.196044 
L 148.201268 291.738174 
L 149.333784 291.620467 
L 149.71129 291.716616 
L 151.598816 291.354972 
L 152.731332 290.997645 
L 153.108837 291.051708 
L 153.486342 290.730928 
L 154.241353 290.538945 
L 154.618858 290.588828 
L 155.373869 290.389615 
L 155.751374 290.540076 
L 156.506385 290.358358 
L 156.88389 290.313282 
L 157.261395 290.079299 
L 158.016406 289.923171 
L 159.526427 289.906908 
L 160.281438 289.707456 
L 161.413953 289.560493 
L 161.791459 289.368342 
L 162.168964 289.349809 
L 162.546469 289.449166 
L 164.05649 288.730821 
L 164.433996 288.747277 
L 165.944017 288.295573 
L 166.321522 287.992859 
L 166.699027 287.923405 
L 167.076533 287.73607 
L 167.454038 287.766579 
L 168.586554 287.30656 
L 168.964059 287.387903 
L 169.341564 287.161476 
L 169.71907 287.12168 
L 171.606596 286.057924 
L 172.739112 285.493039 
L 173.494123 284.710225 
L 174.249133 283.765122 
L 174.626638 283.988393 
L 175.004144 284.027017 
L 176.13666 282.695276 
L 176.514165 282.535589 
L 176.89167 281.862447 
L 178.024186 281.461705 
L 178.401691 281.204412 
L 178.779197 281.251107 
L 179.911712 280.516032 
L 180.289218 280.359904 
L 180.666723 280.071171 
L 181.421734 280.002755 
L 181.799239 279.348672 
L 182.176744 279.340052 
L 182.554249 278.620933 
L 182.931755 278.248505 
L 183.686765 278.355397 
L 184.064271 278.089149 
L 184.441776 277.679018 
L 185.196786 277.201591 
L 185.574292 276.774785 
L 185.951797 277.036461 
L 187.461818 276.199055 
L 187.839323 275.889421 
L 188.216829 274.617022 
L 188.594334 274.858388 
L 189.349345 273.994369 
L 189.72685 273.957271 
L 190.104355 274.330794 
L 191.236871 273.480878 
L 191.614376 272.904288 
L 192.369387 272.948743 
L 192.746892 272.324857 
L 193.124397 272.281915 
L 193.501903 268.976705 
L 193.879408 271.151362 
L 194.256913 272.446841 
L 194.634419 271.817355 
L 195.011924 271.465583 
L 195.389429 271.408893 
L 195.766934 270.580988 
L 196.14444 270.321573 
L 197.276956 268.524629 
L 197.654461 267.351333 
L 198.031966 266.681648 
L 198.409471 265.772451 
L 198.786977 265.172165 
L 199.164482 266.130847 
L 199.541987 265.984133 
L 199.919493 266.010676 
L 200.296998 266.165546 
L 200.674503 266.454727 
L 201.052008 266.344398 
L 201.429514 264.230158 
L 201.807019 264.542882 
L 202.939535 263.428815 
L 203.31704 263.278869 
L 204.072051 263.344794 
L 204.449556 261.746611 
L 204.827061 261.688404 
L 205.582072 260.427155 
L 205.959577 260.857164 
L 206.337082 258.888604 
L 206.714588 259.353902 
L 207.092093 258.025007 
L 207.469598 257.388662 
L 207.847104 256.433168 
L 208.224609 257.096701 
L 208.602114 256.091579 
L 208.979619 254.419435 
L 209.357125 255.26204 
L 209.73463 255.502245 
L 210.112135 254.9832 
L 210.489641 253.454251 
L 210.867146 253.878965 
L 211.244651 252.529057 
L 211.622156 252.840019 
L 212.754672 250.097052 
L 213.887188 249.807484 
L 214.264693 248.74251 
L 214.642199 248.872106 
L 215.019704 248.4726 
L 215.397209 247.417092 
L 215.774715 247.149199 
L 216.15222 245.968993 
L 216.529725 245.159921 
L 216.90723 245.017332 
L 217.284736 245.216479 
L 217.662241 244.701675 
L 218.039746 242.508633 
L 218.794757 243.794998 
L 219.172262 243.547894 
L 219.927273 243.473847 
L 220.304778 243.517416 
L 221.059789 243.252817 
L 221.437294 242.018935 
L 221.814799 241.960525 
L 222.192304 240.866259 
L 222.56981 240.863184 
L 222.947315 240.696954 
L 224.079831 237.567261 
L 224.457336 235.723908 
L 224.834841 236.982733 
L 225.212347 236.455109 
L 225.589852 235.36452 
L 225.967357 235.607276 
L 226.344863 233.278889 
L 226.722368 233.620493 
L 227.099873 233.334993 
L 227.477378 231.710328 
L 227.854884 231.694952 
L 228.232389 230.483942 
L 228.609894 230.775531 
L 228.9874 229.817684 
L 229.364905 229.308847 
L 229.74241 229.579174 
L 230.119915 228.923303 
L 230.497421 227.900106 
L 230.874926 228.227194 
L 231.252431 227.741921 
L 231.629937 226.131726 
L 232.007442 225.458366 
L 232.384947 225.521354 
L 232.762452 223.638383 
L 233.139958 223.973235 
L 233.894968 221.730525 
L 234.272474 219.492575 
L 234.649979 219.713768 
L 235.404989 218.455356 
L 235.782495 217.045336 
L 236.16 217.233836 
L 236.537505 216.642913 
L 236.915011 214.413456 
L 237.292516 213.631243 
L 237.670021 209.934904 
L 238.047526 212.338131 
L 238.425032 211.902415 
L 238.802537 212.475538 
L 239.180042 211.802528 
L 239.935053 212.895552 
L 240.312558 212.677653 
L 240.690063 211.719515 
L 241.067569 212.007668 
L 241.822579 210.787355 
L 242.200085 209.776189 
L 242.57759 209.61583 
L 242.955095 208.932297 
L 243.3326 206.474315 
L 243.710106 207.245622 
L 244.087611 203.94948 
L 244.465116 204.204629 
L 244.842622 202.412971 
L 245.220127 201.308654 
L 246.352643 199.277601 
L 246.730148 197.615441 
L 247.107653 194.875009 
L 247.485159 195.56703 
L 248.99518 192.445881 
L 249.372685 191.932574 
L 249.75019 191.952003 
L 250.127696 192.234805 
L 250.505201 191.263715 
L 250.882706 189.902727 
L 251.260211 191.121985 
L 251.637717 191.145519 
L 252.015222 192.23174 
L 252.392727 191.043 
L 252.770233 189.194825 
L 253.147738 189.431644 
L 253.525243 188.633754 
L 254.657759 187.364868 
L 255.41277 186.43283 
L 255.790275 186.331869 
L 256.16778 199.84609 
L 256.545285 184.616233 
L 256.922791 183.885241 
L 257.300296 180.192059 
L 257.677801 183.618469 
L 258.432812 183.117804 
L 258.810317 183.11538 
L 259.187822 182.656849 
L 259.565328 182.43088 
L 259.942833 183.686171 
L 260.320338 184.481979 
L 260.697844 184.28852 
L 261.075349 183.210374 
L 261.452854 183.287791 
L 262.58537 182.381191 
L 262.962875 179.959079 
L 263.340381 180.915093 
L 263.717886 178.349877 
L 264.095391 179.431531 
L 264.472896 177.278376 
L 264.850402 175.933961 
L 265.227907 176.726663 
L 265.605412 175.077956 
L 265.982918 173.983237 
L 266.360423 173.750461 
L 266.737928 174.645432 
L 267.115433 175.117528 
L 268.247949 172.699647 
L 268.625455 173.255692 
L 269.00296 174.057019 
L 269.380465 174.212404 
L 269.75797 172.378537 
L 270.135476 171.695472 
L 270.512981 170.366087 
L 271.267992 169.852368 
L 271.645497 169.991485 
L 272.023002 169.816131 
L 272.778013 167.990008 
L 273.155518 169.055399 
L 273.533023 165.680471 
L 273.910529 165.767277 
L 274.288034 165.355725 
L 274.665539 162.89423 
L 275.043044 162.155677 
L 275.42055 161.711763 
L 275.798055 161.714996 
L 276.17556 160.38051 
L 276.553066 160.289539 
L 277.308076 158.179571 
L 277.685581 159.572269 
L 278.063087 160.469312 
L 278.818097 158.333061 
L 279.195603 159.380815 
L 279.573108 159.18924 
L 279.950613 159.645312 
L 280.328118 158.032847 
L 280.705624 157.470238 
L 281.083129 158.689319 
L 281.460634 156.939366 
L 281.83814 157.079384 
L 282.215645 156.580211 
L 282.970655 156.386701 
L 283.348161 152.929991 
L 283.725666 152.8293 
L 284.103171 153.102112 
L 284.480677 153.938209 
L 285.235687 149.904314 
L 285.613192 148.124794 
L 285.990698 147.673121 
L 286.368203 147.828261 
L 286.745708 147.50348 
L 287.123214 145.735808 
L 287.500719 147.193525 
L 287.878224 145.641476 
L 288.255729 147.081735 
L 288.633235 146.04927 
L 289.01074 145.4243 
L 289.388245 145.372183 
L 289.765751 145.442594 
L 290.143256 144.096708 
L 290.520761 144.249629 
L 290.898266 145.706267 
L 291.275772 145.2127 
L 291.653277 145.810196 
L 292.030782 146.054403 
L 292.408288 144.187634 
L 292.785793 145.305651 
L 293.163298 145.60608 
L 293.540803 144.912287 
L 293.918309 144.488378 
L 294.295814 142.816188 
L 294.673319 143.169115 
L 295.050825 142.80517 
L 295.42833 142.925866 
L 295.805835 141.953457 
L 296.18334 141.528086 
L 296.560846 140.297265 
L 296.938351 139.759279 
L 297.315856 140.519848 
L 297.693362 140.745985 
L 298.070867 140.79686 
L 298.825877 139.04653 
L 299.203383 139.466137 
L 299.580888 138.189786 
L 299.958393 138.742197 
L 300.335899 138.503473 
L 300.713404 137.62065 
L 301.090909 137.836396 
L 301.468414 138.442853 
L 301.84592 138.16638 
L 302.223425 138.18083 
L 302.60093 135.887601 
L 303.355941 134.254902 
L 303.733446 134.524475 
L 304.110951 133.95369 
L 304.488457 132.053978 
L 304.865962 132.668505 
L 305.243467 129.942431 
L 305.620973 132.124089 
L 305.998478 130.318042 
L 306.375983 127.849199 
L 306.753488 128.571408 
L 307.130994 127.029863 
L 307.508499 125.98966 
L 307.886004 126.08917 
L 308.26351 125.308774 
L 308.641015 127.26516 
L 309.01852 125.635312 
L 309.396025 126.246443 
L 309.773531 126.605002 
L 310.906047 124.104368 
L 311.283552 126.186337 
L 311.661057 126.228053 
L 312.038562 125.307685 
L 312.416068 125.829209 
L 312.793573 127.093656 
L 313.171078 126.110254 
L 313.548584 123.822122 
L 313.926089 127.620689 
L 314.303594 126.597451 
L 314.681099 125.116384 
L 315.058605 126.358814 
L 315.43611 126.448584 
L 315.813615 124.419664 
L 316.191121 123.409246 
L 316.568626 121.556917 
L 316.946131 122.460218 
L 317.323636 121.775864 
L 317.701142 121.986941 
L 318.078647 122.566805 
L 318.456152 121.086099 
L 318.833658 120.479005 
L 319.211163 121.576718 
L 319.588668 121.303122 
L 319.966173 118.927771 
L 320.343679 118.405269 
L 320.721184 116.788664 
L 321.098689 119.443349 
L 321.476195 120.323778 
L 321.8537 119.458257 
L 322.231205 119.292735 
L 322.60871 119.428476 
L 322.986216 114.746286 
L 323.363721 117.876356 
L 323.741226 116.072692 
L 324.496237 116.985107 
L 324.873742 112.550576 
L 325.251247 111.983833 
L 325.628753 110.199996 
L 326.006258 110.128999 
L 326.383763 111.742528 
L 326.761268 109.517419 
L 327.138774 109.080033 
L 327.516279 107.930946 
L 327.893784 107.515387 
L 328.27129 106.209822 
L 328.648795 106.405017 
L 329.0263 109.570331 
L 329.403805 107.863412 
L 329.781311 106.782629 
L 330.158816 108.838132 
L 330.536321 107.701439 
L 330.913827 107.301307 
L 331.291332 105.660191 
L 332.046342 108.272128 
L 332.423848 107.985273 
L 332.801353 108.394783 
L 333.178858 108.265035 
L 333.556364 106.79352 
L 333.933869 108.49493 
L 334.311374 106.450796 
L 334.688879 105.727904 
L 335.066385 105.652167 
L 335.821395 103.107318 
L 336.198901 100.267651 
L 336.576406 102.204292 
L 336.953911 105.821472 
L 337.331416 101.747038 
L 337.708922 101.555635 
L 338.086427 104.289805 
L 338.841438 100.65069 
L 339.218943 100.602045 
L 339.596448 101.370287 
L 339.973953 101.338938 
L 340.351459 101.927244 
L 340.728964 95.01107 
L 341.106469 94.272741 
L 341.483975 94.478914 
L 341.86148 93.065428 
L 342.238985 92.601814 
L 342.61649 90.143445 
L 342.993996 93.267151 
L 343.371501 94.485126 
L 343.749006 91.81286 
L 344.126512 93.573735 
L 344.504017 90.579253 
L 344.881522 89.054577 
L 345.259027 85.355727 
L 345.636533 86.351023 
L 346.014038 80.870632 
L 346.769049 84.712234 
L 347.146554 86.46651 
L 347.524059 84.868724 
L 347.901564 85.180404 
L 348.27907 85.85072 
L 348.656575 85.714245 
L 349.03408 87.66224 
L 349.411586 86.754179 
L 349.789091 85.330616 
L 350.166596 85.658966 
L 350.544101 84.200057 
L 350.921607 84.570724 
L 351.299112 82.786474 
L 351.676617 84.046017 
L 352.054123 87.444535 
L 352.431628 85.157518 
L 352.809133 81.690294 
L 353.186638 84.563708 
L 353.564144 82.894517 
L 353.941649 84.628198 
L 354.319154 83.062692 
L 354.69666 83.040431 
L 355.829175 77.013399 
L 356.206681 79.713766 
L 356.584186 79.507282 
L 356.961691 78.155602 
L 357.339197 78.553987 
L 357.716702 80.857455 
L 358.471712 78.867373 
L 358.849218 80.325926 
L 359.226723 79.505342 
L 359.604228 77.9153 
L 359.981734 77.946221 
L 360.736744 75.30787 
L 361.114249 76.458952 
L 361.491755 76.440282 
L 361.86926 73.934607 
L 362.246765 75.225381 
L 363.001776 75.008893 
L 363.379281 73.617203 
L 363.756786 75.206431 
L 364.134292 75.253202 
L 364.511797 72.456131 
L 364.889302 72.421875 
L 365.266808 71.098331 
L 365.644313 67.608098 
L 366.021818 69.108111 
L 366.776829 68.284992 
L 367.154334 68.137098 
L 367.531839 68.510534 
L 367.909345 67.216623 
L 368.28685 68.734731 
L 369.04186 64.943521 
L 369.419366 66.455728 
L 369.796871 68.507627 
L 370.174376 69.309524 
L 370.551882 65.52062 
L 370.929387 67.775703 
L 371.306892 66.606174 
L 371.684397 70.690842 
L 372.061903 68.007919 
L 372.439408 67.008983 
L 372.816913 69.279748 
L 373.194419 69.488182 
L 373.571924 70.69631 
L 373.949429 68.524016 
L 374.326934 70.839012 
L 374.70444 68.026646 
L 375.081945 67.683393 
L 375.45945 65.023 
L 375.836956 68.365892 
L 376.214461 68.351091 
L 376.591966 67.549571 
L 376.969471 67.635114 
L 377.346977 66.184673 
L 377.724482 67.30852 
L 378.101987 64.577172 
L 378.479493 65.255328 
L 378.856998 65.256703 
L 379.234503 74.717405 
L 379.989514 74.717405 
L 380.367019 62.951565 
L 380.744524 62.897915 
L 381.12203 64.471756 
L 381.499535 64.038814 
L 381.87704 62.400764 
L 382.254545 62.806567 
L 382.632051 62.080102 
L 383.009556 59.64968 
L 383.387061 60.556179 
L 383.764567 55.633122 
L 384.142072 56.644389 
L 384.519577 55.218036 
L 384.897082 55.600978 
L 385.274588 54.327128 
L 385.652093 58.346548 
L 386.029598 55.284237 
L 386.407104 56.305723 
L 386.784609 56.989639 
L 387.162114 58.49957 
L 387.539619 57.132508 
L 387.917125 58.369317 
L 388.672135 56.080325 
L 389.049641 57.67915 
L 389.427146 58.407494 
L 389.804651 58.147371 
L 390.182156 62.402866 
L 390.559662 58.380916 
L 390.937167 58.916926 
L 391.314672 56.791892 
L 391.692178 59.189789 
L 392.069683 58.690575 
L 392.824693 58.406298 
L 393.202199 56.174284 
L 393.579704 57.625016 
L 393.957209 56.385407 
L 394.334715 56.207313 
L 394.71222 56.93994 
L 395.089725 53.568 
L 395.46723 57.406246 
L 395.844736 59.079877 
L 396.599746 56.689771 
L 396.977252 56.097488 
L 397.354757 54.990158 
L 397.732262 54.631309 
L 398.109767 54.076404 
L 398.487273 64.144363 
L 398.487273 64.144363 
" clip-path="url(#p2fddbfe852)" style="fill: none; stroke: #1f77b4; stroke-width: 1.5; stroke-linecap: square"/>
   </g>
   <g id="line2d_16">
    <path d="M 73.832727 294.803667 
L 75.342748 294.674311 
L 75.720254 294.782573 
L 84.02537 294.545229 
L 85.157886 294.509313 
L 85.912896 294.475673 
L 90.065455 294.535626 
L 95.350529 294.458769 
L 95.728034 294.276496 
L 110.45074 294.459176 
L 112.338266 294.460251 
L 113.470782 294.300223 
L 114.980803 294.27617 
L 116.86833 294.22084 
L 121.398393 294.388735 
L 126.683467 293.968522 
L 127.438478 293.915356 
L 128.193488 293.856563 
L 128.948499 293.948033 
L 130.081015 294.01262 
L 131.968541 293.894811 
L 132.723552 293.727329 
L 133.856068 293.835138 
L 138.763636 293.494247 
L 139.141142 293.595661 
L 144.426216 292.961338 
L 145.936237 292.714498 
L 146.691247 292.721443 
L 147.823763 292.335975 
L 149.333784 292.065536 
L 149.71129 292.182449 
L 151.221311 292.061896 
L 156.506385 291.069569 
L 156.88389 291.113148 
L 157.638901 290.864144 
L 158.393911 290.765128 
L 158.771416 290.537515 
L 159.903932 290.796579 
L 160.658943 290.617804 
L 161.036448 290.565254 
L 161.413953 290.344081 
L 161.791459 290.360644 
L 162.168964 290.196807 
L 163.30148 290.113091 
L 163.678985 289.87947 
L 164.811501 289.643236 
L 165.189006 289.645787 
L 165.566512 289.496135 
L 165.944017 289.480927 
L 168.586554 288.557621 
L 168.964059 288.691657 
L 170.096575 288.22007 
L 170.851586 287.826996 
L 171.229091 287.529144 
L 171.984101 287.322232 
L 172.361607 287.417302 
L 173.116617 287.271938 
L 174.249133 286.159623 
L 174.626638 285.892427 
L 175.004144 285.965883 
L 175.381649 285.82253 
L 176.514165 284.987334 
L 176.89167 284.846012 
L 177.646681 284.171297 
L 178.024186 284.07885 
L 178.401691 282.805483 
L 178.779197 282.924371 
L 179.156702 283.772653 
L 179.534207 283.680536 
L 180.289218 283.029624 
L 180.666723 283.617823 
L 181.044228 282.856215 
L 181.421734 282.809373 
L 181.799239 282.572645 
L 182.176744 282.018957 
L 182.554249 282.047093 
L 183.30926 281.199051 
L 183.686765 281.224626 
L 184.064271 281.035148 
L 184.441776 280.347266 
L 184.819281 280.579539 
L 185.196786 280.058885 
L 185.574292 280.215064 
L 185.951797 280.027108 
L 186.329302 280.103813 
L 186.706808 279.517167 
L 187.084313 279.539779 
L 187.461818 278.94128 
L 187.839323 279.04526 
L 188.594334 277.782046 
L 188.971839 277.532065 
L 189.349345 277.452565 
L 189.72685 277.162635 
L 190.104355 277.133899 
L 190.48186 277.24488 
L 190.859366 277.223831 
L 191.991882 276.809357 
L 192.369387 276.944304 
L 193.124397 276.595577 
L 193.501903 275.994354 
L 193.879408 274.644858 
L 194.256913 275.65219 
L 194.634419 275.983809 
L 195.011924 275.635673 
L 195.389429 275.837615 
L 195.766934 275.333814 
L 196.521945 274.682393 
L 196.89945 274.036598 
L 197.276956 273.631589 
L 197.654461 272.783129 
L 198.031966 270.272027 
L 198.409471 268.663624 
L 198.786977 271.046323 
L 199.164482 271.674658 
L 199.541987 271.691939 
L 199.919493 271.943076 
L 200.296998 271.92499 
L 200.674503 272.261095 
L 201.052008 271.567486 
L 201.429514 271.689449 
L 201.807019 270.394005 
L 202.184524 269.998141 
L 202.56203 270.223204 
L 203.31704 268.931385 
L 203.694545 269.281034 
L 204.072051 269.247322 
L 204.449556 268.831015 
L 204.827061 268.226778 
L 205.204567 267.912393 
L 205.582072 267.956955 
L 206.337082 266.083974 
L 206.714588 265.533076 
L 207.092093 265.237026 
L 207.469598 264.157934 
L 207.847104 263.784187 
L 208.979619 261.608257 
L 209.357125 261.977676 
L 210.112135 261.614342 
L 210.867146 260.916745 
L 211.244651 261.220015 
L 211.999662 260.835443 
L 212.754672 259.873207 
L 213.887188 259.381356 
L 214.264693 259.384579 
L 214.642199 258.375735 
L 215.019704 258.274117 
L 215.397209 258.301765 
L 215.774715 257.785087 
L 216.90723 255.226908 
L 217.284736 254.744369 
L 217.662241 252.415805 
L 218.039746 249.130518 
L 218.417252 254.005022 
L 218.794757 255.067206 
L 219.172262 254.770632 
L 219.549767 254.247651 
L 219.927273 254.318821 
L 220.304778 254.588165 
L 221.059789 253.48781 
L 221.814799 252.98573 
L 222.192304 252.579641 
L 222.56981 251.420066 
L 222.947315 251.151073 
L 223.32482 251.085336 
L 224.079831 250.059262 
L 224.457336 248.839591 
L 224.834841 248.079465 
L 225.212347 248.558516 
L 225.967357 247.060336 
L 226.344863 245.682108 
L 226.722368 245.281233 
L 227.099873 245.085177 
L 227.854884 242.874997 
L 228.232389 241.153735 
L 228.609894 241.907516 
L 228.9874 241.765431 
L 229.364905 240.899329 
L 229.74241 240.314771 
L 230.119915 240.165109 
L 230.497421 240.270937 
L 230.874926 241.465425 
L 231.252431 240.852965 
L 231.629937 241.127055 
L 232.007442 240.47683 
L 232.384947 240.547512 
L 232.762452 239.816178 
L 233.517463 237.7707 
L 233.894968 237.976155 
L 234.649979 235.083098 
L 235.027484 235.768622 
L 235.404989 235.23585 
L 235.782495 233.975004 
L 236.16 233.88139 
L 236.537505 233.035171 
L 236.915011 232.55336 
L 237.292516 229.192642 
L 237.670021 221.438167 
L 238.047526 227.020491 
L 238.425032 229.997019 
L 238.802537 230.311449 
L 239.557548 229.983776 
L 239.935053 230.074732 
L 240.312558 230.033068 
L 240.690063 229.10659 
L 241.067569 228.875361 
L 241.445074 229.163962 
L 242.200085 228.080047 
L 242.955095 226.13389 
L 243.3326 224.002283 
L 243.710106 224.71937 
L 244.087611 224.613175 
L 244.465116 220.747266 
L 244.842622 221.59513 
L 245.597632 219.015749 
L 245.975137 216.533939 
L 246.352643 216.444495 
L 246.730148 216.104617 
L 247.485159 211.781571 
L 247.862664 211.494758 
L 248.240169 210.856448 
L 248.617674 210.544722 
L 249.372685 208.077554 
L 249.75019 207.866065 
L 250.127696 207.793006 
L 250.505201 208.874686 
L 250.882706 208.999266 
L 251.637717 210.557069 
L 252.392727 211.067214 
L 252.770233 208.879141 
L 253.147738 208.327291 
L 253.525243 208.804514 
L 253.902748 207.830358 
L 254.280254 206.037931 
L 254.657759 207.59804 
L 255.035264 208.216483 
L 255.41277 206.370655 
L 255.790275 206.143617 
L 256.16778 205.104116 
L 256.545285 199.84609 
L 256.922791 201.951532 
L 257.300296 193.255864 
L 258.055307 203.581059 
L 258.432812 202.241288 
L 258.810317 203.648914 
L 259.187822 203.126392 
L 259.565328 203.039591 
L 259.942833 201.676337 
L 260.320338 203.977616 
L 260.697844 204.614908 
L 261.075349 204.018242 
L 261.452854 202.711281 
L 261.830359 202.265717 
L 262.207865 201.245524 
L 262.58537 201.174471 
L 262.962875 202.980299 
L 263.340381 201.948136 
L 263.717886 200.480362 
L 264.095391 198.417527 
L 264.472896 198.221395 
L 264.850402 197.368347 
L 265.227907 197.472551 
L 265.605412 195.276592 
L 265.982918 195.225936 
L 266.360423 193.714589 
L 266.737928 193.473992 
L 267.115433 193.012792 
L 267.492939 191.568766 
L 268.247949 191.580701 
L 269.00296 190.996412 
L 269.380465 191.864922 
L 269.75797 190.392557 
L 270.135476 189.608709 
L 270.512981 192.415408 
L 270.890486 192.554912 
L 271.267992 192.422114 
L 271.645497 192.506873 
L 272.023002 192.43612 
L 272.400507 191.030785 
L 272.778013 191.365913 
L 273.155518 191.93347 
L 273.533023 191.307064 
L 273.910529 188.431766 
L 274.288034 189.219789 
L 274.665539 188.826827 
L 275.043044 185.770254 
L 275.42055 187.265715 
L 276.553066 183.277832 
L 276.930571 170.809859 
L 277.308076 175.592235 
L 277.685581 182.784978 
L 278.063087 184.105091 
L 278.818097 182.82983 
L 279.195603 181.579171 
L 279.573108 182.514193 
L 279.950613 182.248876 
L 280.328118 183.232889 
L 280.705624 181.011441 
L 281.083129 182.973565 
L 281.83814 180.936116 
L 282.215645 180.907501 
L 282.59315 181.516214 
L 282.970655 178.969807 
L 283.348161 178.539238 
L 283.725666 176.407259 
L 284.103171 178.365198 
L 284.480677 179.610449 
L 284.858182 177.219018 
L 285.613192 170.549847 
L 285.990698 172.007391 
L 286.368203 170.806697 
L 286.745708 170.150953 
L 287.123214 168.593517 
L 287.500719 169.241099 
L 287.878224 169.422135 
L 288.255729 169.259409 
L 288.633235 168.741575 
L 289.01074 167.915697 
L 289.388245 165.610635 
L 289.765751 168.52305 
L 290.143256 169.347569 
L 290.520761 169.502684 
L 290.898266 170.813199 
L 291.275772 171.540479 
L 292.030782 171.270458 
L 292.408288 171.775745 
L 292.785793 171.484227 
L 293.163298 172.14519 
L 293.918309 169.478326 
L 294.295814 171.156865 
L 294.673319 170.586624 
L 295.050825 169.167322 
L 295.42833 169.324112 
L 295.805835 168.640558 
L 296.18334 166.512256 
L 296.560846 154.745998 
L 296.938351 154.432749 
L 297.315856 165.949764 
L 297.693362 167.564628 
L 298.070867 167.895244 
L 298.448372 166.783759 
L 298.825877 165.282585 
L 299.580888 163.600461 
L 299.958393 163.552825 
L 300.335899 164.110912 
L 300.713404 163.711117 
L 301.090909 154.730494 
L 301.468414 150.810945 
L 301.84592 149.284629 
L 302.223425 150.422626 
L 303.355941 146.434911 
L 303.733446 146.71481 
L 304.110951 148.826779 
L 304.488457 146.891437 
L 304.865962 146.152813 
L 305.243467 147.880836 
L 305.620973 148.830878 
L 306.375983 145.843464 
L 306.753488 142.999296 
L 307.130994 142.784157 
L 307.508499 141.240524 
L 307.886004 142.573839 
L 308.26351 142.390538 
L 308.641015 143.444172 
L 309.01852 142.434575 
L 309.396025 142.442991 
L 309.773531 143.332575 
L 310.151036 144.905668 
L 310.528541 144.153978 
L 310.906047 145.958951 
L 311.661057 146.086342 
L 312.038562 146.782986 
L 312.416068 145.513617 
L 312.793573 145.692784 
L 313.171078 144.68898 
L 313.548584 142.872149 
L 313.926089 144.944078 
L 314.303594 145.361043 
L 314.681099 145.158362 
L 315.058605 147.48681 
L 315.43611 145.536371 
L 316.191121 137.651088 
L 316.568626 131.378963 
L 317.323636 140.762696 
L 317.701142 140.068195 
L 318.078647 140.934511 
L 318.456152 139.861273 
L 319.211163 138.942321 
L 319.588668 139.078688 
L 319.966173 140.64092 
L 320.343679 140.254384 
L 320.721184 140.059137 
L 321.098689 138.223386 
L 321.476195 141.231217 
L 322.231205 138.398933 
L 322.60871 140.534369 
L 322.986216 139.293925 
L 323.363721 136.066091 
L 323.741226 136.38322 
L 324.118732 134.463524 
L 324.496237 133.338653 
L 324.873742 135.104757 
L 325.251247 135.461829 
L 326.006258 128.399278 
L 326.383763 128.27904 
L 326.761268 127.929646 
L 327.138774 127.214331 
L 327.516279 124.617415 
L 327.893784 125.987481 
L 328.27129 124.691319 
L 328.648795 124.790605 
L 329.0263 125.965022 
L 329.403805 128.838181 
L 329.781311 129.504393 
L 330.158816 129.552229 
L 330.536321 130.993536 
L 330.913827 128.900013 
L 331.668837 130.018963 
L 332.046342 130.279931 
L 332.423848 130.06604 
L 332.801353 129.64376 
L 333.178858 131.914173 
L 333.556364 130.869541 
L 333.933869 131.36908 
L 334.311374 129.884662 
L 334.688879 130.913389 
L 335.44389 128.381528 
L 335.821395 123.335016 
L 336.198901 111.518224 
L 336.953911 123.330515 
L 337.331416 123.654869 
L 337.708922 125.310806 
L 338.086427 123.74364 
L 338.463932 126.384894 
L 338.841438 125.451751 
L 339.218943 122.170599 
L 339.596448 123.967374 
L 339.973953 123.961218 
L 340.351459 126.163512 
L 340.728964 122.427535 
L 341.106469 116.104565 
L 341.483975 116.254196 
L 341.86148 126.21204 
L 342.238985 115.033247 
L 342.993996 111.720334 
L 343.371501 115.250724 
L 343.749006 115.080349 
L 344.126512 113.794946 
L 344.504017 110.838535 
L 344.881522 111.452232 
L 345.636533 104.173269 
L 346.014038 104.908385 
L 346.391543 104.694503 
L 346.769049 102.352441 
L 347.146554 102.265253 
L 347.524059 103.135449 
L 347.901564 101.93593 
L 348.27907 102.739528 
L 348.656575 102.836996 
L 349.03408 106.02877 
L 349.411586 106.824654 
L 350.166596 109.697941 
L 350.544101 107.724391 
L 350.921607 108.811906 
L 351.299112 108.937835 
L 351.676617 106.210377 
L 352.054123 109.273457 
L 352.431628 110.124182 
L 352.809133 107.161869 
L 353.186638 106.360578 
L 353.564144 108.552174 
L 353.941649 105.182597 
L 354.319154 108.463464 
L 354.69666 108.752991 
L 355.074165 104.573207 
L 355.829175 90.98243 
L 356.206681 97.93792 
L 356.584186 102.677024 
L 356.961691 102.605609 
L 357.339197 103.165341 
L 357.716702 102.072567 
L 358.094207 102.200396 
L 358.471712 102.892082 
L 359.226723 100.67269 
L 359.604228 103.57866 
L 360.359239 96.615751 
L 360.736744 100.175183 
L 361.114249 96.06663 
L 361.491755 98.632793 
L 361.86926 99.263048 
L 362.246765 98.024945 
L 362.624271 94.978255 
L 363.001776 99.59291 
L 363.379281 99.440138 
L 363.756786 96.152611 
L 364.134292 96.709884 
L 364.511797 96.154454 
L 364.889302 91.700382 
L 365.644313 87.311594 
L 366.021818 87.655122 
L 366.399323 87.487274 
L 366.776829 86.40175 
L 367.154334 87.740457 
L 367.531839 86.317424 
L 367.909345 87.276727 
L 368.28685 85.940204 
L 369.419366 92.623505 
L 369.796871 91.602502 
L 370.174376 93.195884 
L 370.551882 92.752596 
L 370.929387 92.103955 
L 371.306892 91.813751 
L 371.684397 93.91124 
L 372.061903 94.570675 
L 372.439408 91.916733 
L 372.816913 92.82479 
L 373.194419 95.218837 
L 373.571924 92.75394 
L 373.949429 94.395209 
L 374.326934 94.915664 
L 374.70444 93.464398 
L 375.081945 88.738013 
L 375.45945 77.028944 
L 375.836956 82.532486 
L 376.214461 89.726486 
L 376.591966 89.727398 
L 376.969471 92.204244 
L 377.346977 91.21211 
L 378.101987 88.026456 
L 378.479493 87.321365 
L 378.856998 89.708151 
L 379.234503 74.717405 
L 379.989514 74.717405 
L 380.367019 86.004109 
L 380.744524 84.758878 
L 381.12203 85.216407 
L 381.499535 89.818165 
L 381.87704 89.120365 
L 382.254545 85.529279 
L 382.632051 86.488872 
L 383.009556 85.207201 
L 383.387061 86.095869 
L 383.764567 83.196244 
L 384.142072 77.93393 
L 384.519577 78.693939 
L 384.897082 74.553584 
L 385.274588 75.40156 
L 385.652093 75.038938 
L 386.029598 75.593614 
L 386.407104 75.437766 
L 386.784609 74.756325 
L 387.162114 76.407176 
L 387.539619 76.198223 
L 387.917125 76.219328 
L 388.29463 79.817171 
L 388.672135 80.630661 
L 389.049641 82.022809 
L 389.427146 82.897211 
L 390.559662 82.390059 
L 390.937167 82.781189 
L 391.314672 82.384112 
L 391.692178 82.882048 
L 392.069683 84.002947 
L 392.447188 81.387294 
L 392.824693 83.067722 
L 393.202199 84.113368 
L 393.579704 78.700614 
L 393.957209 82.913987 
L 394.334715 81.262434 
L 394.71222 76.716708 
L 395.089725 67.649208 
L 395.46723 66.043708 
L 395.844736 79.114014 
L 396.222241 82.023741 
L 396.599746 79.624052 
L 396.977252 78.180566 
L 397.354757 79.587668 
L 398.109767 77.390237 
L 398.487273 78.09185 
L 398.487273 78.09185 
" clip-path="url(#p2fddbfe852)" style="fill: none; stroke: #ff7f0e; stroke-width: 1.5; stroke-linecap: square"/>
   </g>
   <g id="line2d_17">
    <path d="M 73.832727 295.244684 
L 79.495307 295.216288 
L 79.872812 295.280376 
L 80.627822 295.174934 
L 81.005328 295.255728 
L 81.382833 295.161345 
L 81.760338 295.255178 
L 82.892854 295.159594 
L 93.463002 295.220071 
L 93.840507 295.180561 
L 94.218013 295.271486 
L 95.350529 294.985416 
L 95.728034 295.168239 
L 123.663425 295.298364 
L 124.04093 295.22056 
L 124.795941 295.364183 
L 127.438478 295.311893 
L 128.193488 295.330507 
L 128.570994 295.282494 
L 129.326004 295.390354 
L 130.45852 295.35982 
L 130.836025 295.417227 
L 131.968541 295.283589 
L 132.346047 295.373216 
L 133.101057 295.240921 
L 133.478562 295.218564 
L 133.856068 295.342905 
L 134.233573 295.344163 
L 134.611078 295.230534 
L 135.743594 295.383261 
L 136.121099 295.246283 
L 137.253615 295.226945 
L 137.631121 295.090842 
L 138.763636 295.33702 
L 139.518647 295.089803 
L 139.896152 295.17189 
L 140.273658 295.060405 
L 142.161184 295.258477 
L 142.916195 295.180871 
L 143.2937 294.873305 
L 143.671205 295.07292 
L 144.04871 294.979729 
L 145.181226 295.158412 
L 145.558732 295.0218 
L 145.936237 295.066957 
L 146.691247 294.849751 
L 147.068753 294.900758 
L 147.823763 294.821737 
L 148.201268 294.958471 
L 148.956279 294.808998 
L 149.333784 295.04293 
L 153.108837 294.794411 
L 153.486342 294.588996 
L 153.863848 294.536843 
L 154.618858 294.709799 
L 155.373869 294.667722 
L 155.751374 294.918014 
L 157.261395 294.611236 
L 158.393911 294.645676 
L 158.771416 294.90612 
L 159.903932 294.469528 
L 160.658943 294.547709 
L 161.036448 294.490479 
L 161.413953 294.704412 
L 161.791459 294.495698 
L 162.546469 294.760251 
L 163.678985 294.394865 
L 164.811501 294.489721 
L 165.189006 294.286272 
L 165.566512 294.417532 
L 166.321522 294.127924 
L 166.699027 294.272112 
L 167.076533 294.169843 
L 167.454038 294.237698 
L 168.209049 294.191385 
L 168.964059 294.184247 
L 169.341564 294.080664 
L 169.71907 294.194313 
L 170.851586 294.030736 
L 171.229091 294.221207 
L 171.984101 294.0746 
L 172.361607 293.804772 
L 172.739112 293.681693 
L 173.116617 293.382955 
L 173.871628 293.34066 
L 174.249133 293.0935 
L 174.626638 293.583966 
L 175.004144 293.549134 
L 175.381649 293.267754 
L 175.759154 293.216629 
L 176.13666 292.833992 
L 176.514165 293.036255 
L 176.89167 292.504435 
L 177.646681 292.969168 
L 178.024186 292.870855 
L 178.401691 293.886929 
L 178.779197 293.814736 
L 179.156702 292.685364 
L 179.534207 292.561333 
L 179.911712 292.605482 
L 180.289218 292.81828 
L 180.666723 291.941348 
L 181.044228 292.676907 
L 181.421734 292.681383 
L 181.799239 292.264026 
L 182.176744 292.809094 
L 182.554249 292.06184 
L 182.931755 292.173707 
L 183.30926 292.590152 
L 184.064271 292.542001 
L 184.441776 292.819751 
L 184.819281 292.355827 
L 185.196786 292.630706 
L 185.574292 292.047721 
L 185.951797 292.497353 
L 186.329302 292.23228 
L 186.706808 292.608441 
L 187.084313 292.421667 
L 187.461818 292.745776 
L 188.216829 291.792516 
L 188.594334 292.564343 
L 188.971839 292.439059 
L 189.349345 292.029804 
L 189.72685 292.282636 
L 190.104355 292.684896 
L 190.48186 292.270197 
L 191.236871 291.914032 
L 191.614376 291.403739 
L 191.991882 291.650578 
L 192.369387 291.492439 
L 192.746892 291.053902 
L 193.124397 291.174338 
L 193.501903 288.470351 
L 193.879408 291.994504 
L 194.256913 292.282651 
L 194.634419 291.321546 
L 195.011924 291.31791 
L 195.766934 290.735175 
L 196.14444 290.777277 
L 196.521945 290.505015 
L 196.89945 290.627967 
L 197.654461 290.056203 
L 198.031966 291.897621 
L 198.409471 292.596827 
L 198.786977 289.613842 
L 199.164482 289.944189 
L 199.919493 289.5556 
L 200.296998 289.728555 
L 200.674503 289.681632 
L 201.052008 290.264912 
L 201.429514 288.028708 
L 201.807019 289.636877 
L 202.184524 289.629367 
L 202.56203 288.975858 
L 202.939535 289.315242 
L 203.31704 289.835484 
L 203.694545 289.507561 
L 204.072051 289.585472 
L 204.449556 288.403596 
L 204.827061 288.949626 
L 205.204567 288.56089 
L 205.582072 287.9582 
L 205.959577 289.350908 
L 206.337082 288.29263 
L 206.714588 289.308827 
L 207.092093 288.275981 
L 207.469598 288.718729 
L 207.847104 288.136981 
L 208.224609 289.551547 
L 208.602114 289.245207 
L 208.979619 288.299178 
L 209.73463 289.155326 
L 210.112135 288.856858 
L 210.489641 287.733438 
L 210.867146 288.450219 
L 211.244651 286.797042 
L 211.622156 287.31515 
L 211.999662 286.476777 
L 212.754672 285.711844 
L 213.509683 285.856781 
L 213.887188 285.914127 
L 214.264693 284.845931 
L 214.642199 285.984371 
L 215.019704 285.686483 
L 215.397209 284.603327 
L 215.774715 284.852112 
L 216.15222 284.608317 
L 216.529725 284.715999 
L 217.284736 285.960109 
L 217.662241 287.77387 
L 218.039746 288.866114 
L 218.417252 284.618679 
L 218.794757 284.215793 
L 219.172262 284.265262 
L 219.549767 284.721411 
L 219.927273 284.643026 
L 220.304778 284.417251 
L 221.059789 285.253007 
L 221.437294 284.214082 
L 221.814799 284.462795 
L 222.192304 283.774618 
L 222.56981 284.931118 
L 222.947315 285.033881 
L 223.32482 283.993581 
L 224.079831 282.995999 
L 224.457336 282.372317 
L 224.834841 284.391269 
L 225.212347 283.384593 
L 225.589852 283.067174 
L 225.967357 284.03494 
L 226.344863 283.084781 
L 226.722368 283.82726 
L 227.099873 283.737816 
L 227.477378 283.291224 
L 227.854884 284.307955 
L 228.232389 284.818207 
L 228.609894 284.356014 
L 228.9874 283.540253 
L 229.364905 283.897518 
L 229.74241 284.752404 
L 230.119915 284.246194 
L 230.874926 282.249768 
L 231.252431 282.376956 
L 231.629937 280.492672 
L 232.384947 280.461842 
L 232.762452 279.310205 
L 233.139958 280.621672 
L 233.517463 280.428085 
L 233.894968 279.24237 
L 234.272474 278.61438 
L 234.649979 280.11867 
L 235.027484 278.793868 
L 235.782495 278.558332 
L 236.537505 279.095743 
L 236.915011 277.348096 
L 237.292516 279.926601 
L 237.670021 283.984737 
L 238.425032 277.393396 
L 238.802537 277.652088 
L 239.180042 277.11368 
L 239.557548 277.845283 
L 239.935053 278.30882 
L 240.312558 278.132585 
L 240.690063 278.100926 
L 241.067569 278.620307 
L 241.445074 277.765788 
L 241.822579 277.671197 
L 242.200085 277.184142 
L 242.57759 278.140981 
L 242.955095 278.286407 
L 243.3326 277.960032 
L 243.710106 278.014252 
L 244.087611 274.824305 
L 244.465116 278.945363 
L 244.842622 276.305841 
L 245.220127 276.353157 
L 245.597632 277.116002 
L 245.975137 279.139189 
L 246.352643 278.321106 
L 246.730148 276.998824 
L 247.107653 276.505298 
L 247.485159 279.273459 
L 247.862664 278.759291 
L 248.240169 278.768085 
L 248.617674 277.904605 
L 248.99518 278.798267 
L 249.372685 279.34302 
L 250.127696 279.929798 
L 250.882706 276.391461 
L 251.260211 276.693035 
L 251.637717 276.07645 
L 252.015222 276.956554 
L 252.392727 275.463786 
L 252.770233 275.803684 
L 253.147738 276.592354 
L 253.525243 275.317241 
L 253.902748 275.826001 
L 254.280254 277.154336 
L 254.657759 275.254828 
L 255.035264 274.22937 
L 255.41277 275.550175 
L 255.790275 275.676253 
L 256.16778 290.229974 
L 256.545285 280.258144 
L 256.922791 277.42171 
L 257.300296 282.424195 
L 257.677801 281.136913 
L 258.055307 275.244131 
L 258.432812 276.364516 
L 258.810317 274.954466 
L 259.187822 275.018457 
L 259.565328 274.879289 
L 259.942833 277.497834 
L 260.320338 275.992363 
L 260.697844 275.161612 
L 261.075349 274.680132 
L 261.452854 276.06451 
L 261.830359 276.220012 
L 262.207865 276.918367 
L 262.58537 276.69472 
L 262.962875 272.46678 
L 263.340381 274.454957 
L 263.717886 273.357515 
L 264.095391 276.502004 
L 264.472896 274.544981 
L 264.850402 274.053614 
L 265.605412 275.289364 
L 265.982918 274.245302 
L 266.737928 276.65944 
L 267.492939 278.230786 
L 268.247949 276.606946 
L 269.00296 278.548607 
L 269.380465 277.835482 
L 269.75797 277.47398 
L 270.135476 277.574763 
L 270.512981 273.438679 
L 270.890486 272.971635 
L 272.023002 272.868011 
L 272.400507 273.368003 
L 272.778013 272.112096 
L 273.155518 272.609929 
L 273.533023 269.861407 
L 273.910529 272.823511 
L 274.288034 271.623936 
L 274.665539 269.555403 
L 275.043044 271.873423 
L 275.42055 269.934048 
L 275.798055 271.212007 
L 276.17556 271.252801 
L 276.553066 272.499707 
L 276.930571 283.754389 
L 277.685581 272.275291 
L 278.063087 271.852222 
L 278.440592 271.598768 
L 278.818097 270.991232 
L 279.195603 273.289644 
L 279.573108 272.163047 
L 279.950613 272.884436 
L 280.328118 270.287958 
L 280.705624 271.946798 
L 281.460634 270.599842 
L 281.83814 271.631268 
L 282.215645 271.16071 
L 282.59315 270.505638 
L 282.970655 272.904894 
L 283.348161 269.878754 
L 283.725666 271.910042 
L 284.103171 270.224914 
L 284.480677 269.815761 
L 284.858182 269.91081 
L 285.613192 273.062947 
L 285.990698 271.153729 
L 286.368203 272.509564 
L 286.745708 272.840527 
L 287.123214 272.63029 
L 287.500719 273.440426 
L 287.878224 271.707341 
L 288.255729 273.310326 
L 288.633235 272.795695 
L 289.01074 272.996604 
L 289.388245 275.249548 
L 290.143256 270.237139 
L 290.520761 270.234945 
L 290.898266 270.381068 
L 291.275772 269.160221 
L 291.653277 269.879191 
L 292.030782 270.271945 
L 292.408288 267.899888 
L 292.785793 269.309424 
L 293.163298 268.94889 
L 293.918309 270.498052 
L 294.295814 267.147323 
L 295.050825 269.125847 
L 295.42833 269.089753 
L 295.805835 268.800898 
L 296.18334 270.503831 
L 296.560846 281.039267 
L 296.938351 280.81453 
L 297.315856 270.058084 
L 297.693362 268.669357 
L 298.070867 268.389616 
L 298.448372 268.704316 
L 298.825877 269.251945 
L 299.203383 270.626736 
L 299.580888 270.077325 
L 299.958393 270.677372 
L 300.335899 269.880561 
L 300.713404 269.397534 
L 301.090909 278.593902 
L 301.468414 283.119908 
L 301.84592 284.369752 
L 302.60093 282.188354 
L 303.355941 283.307991 
L 303.733446 283.297665 
L 304.110951 280.61491 
L 304.488457 280.650541 
L 304.865962 282.003693 
L 305.243467 277.549595 
L 305.620973 278.781211 
L 305.998478 278.381313 
L 306.375983 277.493735 
L 306.753488 281.060112 
L 307.130994 279.733707 
L 307.508499 280.237136 
L 307.886004 279.003331 
L 308.26351 278.406237 
L 308.641015 279.308988 
L 309.01852 278.688738 
L 309.396025 279.291452 
L 309.773531 278.760427 
L 310.151036 276.408248 
L 310.528541 276.494631 
L 310.906047 273.633417 
L 311.283552 275.614986 
L 311.661057 275.62971 
L 312.038562 274.012698 
L 312.416068 275.803593 
L 312.793573 276.888872 
L 313.171078 276.909274 
L 313.548584 276.437972 
L 313.926089 278.164611 
L 314.681099 275.446022 
L 315.058605 274.360005 
L 315.813615 277.864794 
L 316.191121 281.246158 
L 316.568626 285.665954 
L 317.323636 276.501169 
L 317.701142 277.406746 
L 318.833658 276.632231 
L 319.211163 278.122397 
L 319.588668 277.712434 
L 319.966173 273.774851 
L 320.343679 273.638885 
L 320.721184 272.217527 
L 321.098689 276.707963 
L 321.476195 274.580561 
L 321.8537 275.310667 
L 322.231205 276.381802 
L 322.60871 274.382107 
L 322.986216 270.940362 
L 323.363721 277.298265 
L 323.741226 275.177472 
L 324.118732 277.533037 
L 324.496237 279.134454 
L 324.873742 272.933819 
L 325.251247 272.010004 
L 325.628753 273.704836 
L 326.006258 277.217721 
L 326.383763 278.951488 
L 326.761268 277.075773 
L 327.138774 277.353702 
L 327.516279 278.801531 
L 327.893784 277.015906 
L 328.648795 277.102412 
L 329.0263 279.093309 
L 329.403805 274.51323 
L 329.781311 272.766235 
L 330.158816 274.773904 
L 330.536321 272.195903 
L 330.913827 273.889294 
L 331.291332 271.708507 
L 332.046342 273.480196 
L 332.423848 273.407234 
L 332.801353 274.239024 
L 333.178858 271.838861 
L 333.556364 271.411979 
L 333.933869 272.61385 
L 334.311374 272.054133 
L 334.688879 270.302515 
L 335.066385 271.579919 
L 335.44389 271.563163 
L 335.821395 275.260302 
L 336.198901 284.237427 
L 336.576406 279.360499 
L 336.953911 277.978957 
L 337.331416 273.580169 
L 337.708922 271.732829 
L 338.086427 276.034165 
L 338.463932 271.567588 
L 338.841438 270.686939 
L 339.218943 273.919446 
L 339.596448 272.890913 
L 339.973953 272.86572 
L 340.351459 271.251732 
L 340.728964 268.071535 
L 341.106469 273.656176 
L 341.483975 273.712718 
L 341.86148 262.341388 
L 342.238985 273.056567 
L 342.61649 272.071236 
L 342.993996 277.034817 
L 343.749006 272.22051 
L 344.126512 275.266788 
L 344.504017 275.228719 
L 344.881522 273.090345 
L 345.259027 273.207919 
L 345.636533 277.665754 
L 346.014038 271.450247 
L 346.391543 273.884212 
L 346.769049 277.847793 
L 347.146554 279.689257 
L 347.524059 277.221275 
L 347.901564 278.732474 
L 348.656575 278.36525 
L 349.03408 277.12147 
L 349.411586 275.417524 
L 349.789091 272.663299 
L 350.166596 271.449025 
L 350.544101 271.963666 
L 350.921607 271.246818 
L 351.299112 269.336639 
L 351.676617 273.32364 
L 352.054123 273.659078 
L 352.431628 270.521336 
L 352.809133 270.016425 
L 353.186638 273.69113 
L 353.564144 269.830343 
L 353.941649 274.933601 
L 354.319154 270.087228 
L 354.69666 269.77544 
L 355.074165 271.760156 
L 355.45167 275.876662 
L 355.829175 281.51897 
L 356.584186 272.318258 
L 356.961691 271.037993 
L 357.339197 270.876646 
L 357.716702 274.272888 
L 358.471712 271.463292 
L 358.849218 274.12926 
L 359.226723 274.320652 
L 359.604228 269.82464 
L 359.981734 273.715966 
L 360.359239 275.657088 
L 360.736744 270.620687 
L 361.114249 275.880323 
L 361.86926 270.159559 
L 362.624271 275.582074 
L 363.001776 270.903983 
L 363.379281 269.665065 
L 363.756786 274.54182 
L 364.134292 274.031318 
L 364.511797 271.789677 
L 364.889302 276.209493 
L 365.266808 277.14429 
L 365.644313 275.784504 
L 366.021818 276.940989 
L 366.399323 276.718462 
L 366.776829 277.371242 
L 367.154334 275.88464 
L 367.531839 277.68111 
L 367.909345 275.427896 
L 368.28685 278.282527 
L 369.04186 269.296318 
L 369.419366 269.320223 
L 369.796871 272.393125 
L 370.174376 271.60164 
L 370.551882 268.256024 
L 370.929387 271.159747 
L 371.306892 270.280423 
L 371.684397 272.267602 
L 372.061903 268.925245 
L 372.816913 271.942959 
L 373.194419 269.757345 
L 373.571924 273.43037 
L 373.949429 269.616807 
L 374.326934 271.411348 
L 374.70444 270.050248 
L 375.081945 274.433379 
L 375.45945 283.482056 
L 375.836956 281.321407 
L 376.214461 274.112605 
L 376.591966 273.310173 
L 376.969471 270.91887 
L 377.346977 270.460563 
L 377.724482 273.374699 
L 378.101987 272.038716 
L 378.479493 273.421964 
L 378.856998 271.036552 
L 379.234503 295.488 
L 379.989514 295.488 
L 380.367019 272.435456 
L 381.12203 274.743349 
L 381.499535 269.708649 
L 381.87704 268.768399 
L 382.254545 272.765288 
L 382.632051 271.079229 
L 383.009556 269.930479 
L 383.387061 269.94831 
L 383.764567 267.924878 
L 384.142072 274.198459 
L 384.519577 272.012097 
L 384.897082 276.535394 
L 385.274588 274.413568 
L 385.652093 278.79561 
L 386.029598 275.178623 
L 386.784609 277.721313 
L 387.162114 277.580394 
L 387.539619 276.422285 
L 387.917125 277.63799 
L 388.29463 273.016486 
L 388.672135 270.937663 
L 389.049641 271.14434 
L 389.804651 270.940591 
L 390.182156 275.439393 
L 390.559662 271.478857 
L 390.937167 271.623737 
L 391.314672 269.89578 
L 391.692178 271.795741 
L 392.069683 270.175628 
L 392.447188 272.700147 
L 392.824693 270.826575 
L 393.202199 267.548916 
L 393.579704 274.412402 
L 393.957209 268.959419 
L 394.334715 270.43288 
L 395.46723 286.850539 
L 395.844736 275.453863 
L 396.222241 271.350895 
L 396.977252 273.404922 
L 397.354757 270.89049 
L 398.109767 272.174167 
L 398.487273 281.540512 
L 398.487273 281.540512 
" clip-path="url(#p2fddbfe852)" style="fill: none; stroke: #2ca02c; stroke-width: 1.5; stroke-linecap: square"/>
   </g>
   <g id="patch_3">
    <path d="M 57.6 307.584 
L 57.6 41.472 
" style="fill: none; stroke: #000000; stroke-width: 0.8; stroke-linejoin: miter; stroke-linecap: square"/>
   </g>
   <g id="patch_4">
    <path d="M 414.72 307.584 
L 414.72 41.472 
" style="fill: none; stroke: #000000; stroke-width: 0.8; stroke-linejoin: miter; stroke-linecap: square"/>
   </g>
   <g id="patch_5">
    <path d="M 57.6 307.584 
L 414.72 307.584 
" style="fill: none; stroke: #000000; stroke-width: 0.8; stroke-linejoin: miter; stroke-linecap: square"/>
   </g>
   <g id="patch_6">
    <path d="M 57.6 41.472 
L 414.72 41.472 
" style="fill: none; stroke: #000000; stroke-width: 0.8; stroke-linejoin: miter; stroke-linecap: square"/>
   </g>
   <g id="legend_1">
    <g id="patch_7">
     <path d="M 64.6 93.506375 
L 186.25625 93.506375 
Q 188.25625 93.506375 188.25625 91.506375 
L 188.25625 48.472 
Q 188.25625 46.472 186.25625 46.472 
L 64.6 46.472 
Q 62.6 46.472 62.6 48.472 
L 62.6 91.506375 
Q 62.6 93.506375 64.6 93.506375 
z
" style="fill: #ffffff; opacity: 0.8; stroke: #cccccc; stroke-linejoin: miter"/>
    </g>
    <g id="line2d_18">
     <path d="M 66.6 54.570438 
L 76.6 54.570438 
L 86.6 54.570438 
" style="fill: none; stroke: #1f77b4; stroke-width: 1.5; stroke-linecap: square"/>
    </g>
    <g id="text_17">
     <!-- Weekly maximum -->
     <g transform="translate(94.6 58.070438) scale(0.1 -0.1)">
      <defs>
       <path id="DejaVuSans-57" d="M 213 4666 
L 850 4666 
L 1831 722 
L 2809 4666 
L 3519 4666 
L 4500 722 
L 5478 4666 
L 6119 4666 
L 4947 0 
L 4153 0 
L 3169 4050 
L 2175 0 
L 1381 0 
L 213 4666 
z
" transform="scale(0.015625)"/>
       <path id="DejaVuSans-6b" d="M 581 4863 
L 1159 4863 
L 1159 1991 
L 2875 3500 
L 3609 3500 
L 1753 1863 
L 3688 0 
L 2938 0 
L 1159 1709 
L 1159 0 
L 581 0 
L 581 4863 
z
" transform="scale(0.015625)"/>
       <path id="DejaVuSans-79" d="M 2059 -325 
Q 1816 -950 1584 -1140 
Q 1353 -1331 966 -1331 
L 506 -1331 
L 506 -850 
L 844 -850 
Q 1081 -850 1212 -737 
Q 1344 -625 1503 -206 
L 1606 56 
L 191 3500 
L 800 3500 
L 1894 763 
L 2988 3500 
L 3597 3500 
L 2059 -325 
z
" transform="scale(0.015625)"/>
       <path id="DejaVuSans-6d" d="M 3328 2828 
Q 3544 3216 3844 3400 
Q 4144 3584 4550 3584 
Q 5097 3584 5394 3201 
Q 5691 2819 5691 2113 
L 5691 0 
L 5113 0 
L 5113 2094 
Q 5113 2597 4934 2840 
Q 4756 3084 4391 3084 
Q 3944 3084 3684 2787 
Q 3425 2491 3425 1978 
L 3425 0 
L 2847 0 
L 2847 2094 
Q 2847 2600 2669 2842 
Q 2491 3084 2119 3084 
Q 1678 3084 1418 2786 
Q 1159 2488 1159 1978 
L 1159 0 
L 581 0 
L 581 3500 
L 1159 3500 
L 1159 2956 
Q 1356 3278 1631 3431 
Q 1906 3584 2284 3584 
Q 2666 3584 2933 3390 
Q 3200 3197 3328 2828 
z
" transform="scale(0.015625)"/>
       <path id="DejaVuSans-78" d="M 3513 3500 
L 2247 1797 
L 3578 0 
L 2900 0 
L 1881 1375 
L 863 0 
L 184 0 
L 1544 1831 
L 300 3500 
L 978 3500 
L 1906 2253 
L 2834 3500 
L 3513 3500 
z
" transform="scale(0.015625)"/>
       <path id="DejaVuSans-75" d="M 544 1381 
L 544 3500 
L 1119 3500 
L 1119 1403 
Q 1119 906 1312 657 
Q 1506 409 1894 409 
Q 2359 409 2629 706 
Q 2900 1003 2900 1516 
L 2900 3500 
L 3475 3500 
L 3475 0 
L 2900 0 
L 2900 538 
Q 2691 219 2414 64 
Q 2138 -91 1772 -91 
Q 1169 -91 856 284 
Q 544 659 544 1381 
z
M 1991 3584 
L 1991 3584 
z
" transform="scale(0.015625)"/>
      </defs>
      <use xlink:href="#DejaVuSans-57"/>
      <use xlink:href="#DejaVuSans-65" transform="translate(93.001953 0)"/>
      <use xlink:href="#DejaVuSans-65" transform="translate(154.525391 0)"/>
      <use xlink:href="#DejaVuSans-6b" transform="translate(216.048828 0)"/>
      <use xlink:href="#DejaVuSans-6c" transform="translate(273.958984 0)"/>
      <use xlink:href="#DejaVuSans-79" transform="translate(301.742188 0)"/>
      <use xlink:href="#DejaVuSans-20" transform="translate(360.921875 0)"/>
      <use xlink:href="#DejaVuSans-6d" transform="translate(392.708984 0)"/>
      <use xlink:href="#DejaVuSans-61" transform="translate(490.121094 0)"/>
      <use xlink:href="#DejaVuSans-78" transform="translate(551.400391 0)"/>
      <use xlink:href="#DejaVuSans-69" transform="translate(610.580078 0)"/>
      <use xlink:href="#DejaVuSans-6d" transform="translate(638.363281 0)"/>
      <use xlink:href="#DejaVuSans-75" transform="translate(735.775391 0)"/>
      <use xlink:href="#DejaVuSans-6d" transform="translate(799.154297 0)"/>
     </g>
    </g>
    <g id="line2d_19">
     <path d="M 66.6 69.248563 
L 76.6 69.248563 
L 86.6 69.248563 
" style="fill: none; stroke: #ff7f0e; stroke-width: 1.5; stroke-linecap: square"/>
    </g>
    <g id="text_18">
     <!-- Weekly minimum -->
     <g transform="translate(94.6 72.748563) scale(0.1 -0.1)">
      <defs>
       <path id="DejaVuSans-6e" d="M 3513 2113 
L 3513 0 
L 2938 0 
L 2938 2094 
Q 2938 2591 2744 2837 
Q 2550 3084 2163 3084 
Q 1697 3084 1428 2787 
Q 1159 2491 1159 1978 
L 1159 0 
L 581 0 
L 581 3500 
L 1159 3500 
L 1159 2956 
Q 1366 3272 1645 3428 
Q 1925 3584 2291 3584 
Q 2894 3584 3203 3211 
Q 3513 2838 3513 2113 
z
" transform="scale(0.015625)"/>
      </defs>
      <use xlink:href="#DejaVuSans-57"/>
      <use xlink:href="#DejaVuSans-65" transform="translate(93.001953 0)"/>
      <use xlink:href="#DejaVuSans-65" transform="translate(154.525391 0)"/>
      <use xlink:href="#DejaVuSans-6b" transform="translate(216.048828 0)"/>
      <use xlink:href="#DejaVuSans-6c" transform="translate(273.958984 0)"/>
      <use xlink:href="#DejaVuSans-79" transform="translate(301.742188 0)"/>
      <use xlink:href="#DejaVuSans-20" transform="translate(360.921875 0)"/>
      <use xlink:href="#DejaVuSans-6d" transform="translate(392.708984 0)"/>
      <use xlink:href="#DejaVuSans-69" transform="translate(490.121094 0)"/>
      <use xlink:href="#DejaVuSans-6e" transform="translate(517.904297 0)"/>
      <use xlink:href="#DejaVuSans-69" transform="translate(581.283203 0)"/>
      <use xlink:href="#DejaVuSans-6d" transform="translate(609.066406 0)"/>
      <use xlink:href="#DejaVuSans-75" transform="translate(706.478516 0)"/>
      <use xlink:href="#DejaVuSans-6d" transform="translate(769.857422 0)"/>
     </g>
    </g>
    <g id="line2d_20">
     <path d="M 66.6 83.926688 
L 76.6 83.926688 
L 86.6 83.926688 
" style="fill: none; stroke: #2ca02c; stroke-width: 1.5; stroke-linecap: square"/>
    </g>
    <g id="text_19">
     <!-- Weekly range -->
     <g transform="translate(94.6 87.426688) scale(0.1 -0.1)">
      <use xlink:href="#DejaVuSans-57"/>
      <use xlink:href="#DejaVuSans-65" transform="translate(93.001953 0)"/>
      <use xlink:href="#DejaVuSans-65" transform="translate(154.525391 0)"/>
      <use xlink:href="#DejaVuSans-6b" transform="translate(216.048828 0)"/>
      <use xlink:href="#DejaVuSans-6c" transform="translate(273.958984 0)"/>
      <use xlink:href="#DejaVuSans-79" transform="translate(301.742188 0)"/>
      <use xlink:href="#DejaVuSans-20" transform="translate(360.921875 0)"/>
      <use xlink:href="#DejaVuSans-72" transform="translate(392.708984 0)"/>
      <use xlink:href="#DejaVuSans-61" transform="translate(433.822266 0)"/>
      <use xlink:href="#DejaVuSans-6e" transform="translate(495.101562 0)"/>
      <use xlink:href="#DejaVuSans-67" transform="translate(558.480469 0)"/>
      <use xlink:href="#DejaVuSans-65" transform="translate(621.957031 0)"/>
     </g>
    </g>
   </g>
  </g>
 </g>
 <defs>
  <clipPath id="p2fddbfe852">
   <rect x="57.6" y="41.472" width="357.12" height="266.112"/>
  </clipPath>
 </defs>
</svg>
