<?xml version="1.0" encoding="utf-8" standalone="no"?>
<!DOCTYPE svg PUBLIC "-//W3C//DTD SVG 1.1//EN"
  "http://www.w3.org/Graphics/SVG/1.1/DTD/svg11.dtd">
<svg xmlns:xlink="http://www.w3.org/1999/xlink" width="460.8pt" height="345.6pt" viewBox="0 0 460.8 345.6" xmlns="http://www.w3.org/2000/svg" version="1.1">
 <metadata>
  <rdf:RDF xmlns:dc="http://purl.org/dc/elements/1.1/" xmlns:cc="http://creativecommons.org/ns#" xmlns:rdf="http://www.w3.org/1999/02/22-rdf-syntax-ns#">
   <cc:Work>
    <dc:type rdf:resource="http://purl.org/dc/dcmitype/StillImage"/>
    <dc:date>2022-05-25T05:39:25.456102</dc:date>
    <dc:format>image/svg+xml</dc:format>
    <dc:creator>
     <cc:Agent>
      <dc:title>Matplotlib v3.5.2, https://matplotlib.org/</dc:title>
     </cc:Agent>
    </dc:creator>
   </cc:Work>
  </rdf:RDF>
 </metadata>
 <defs>
  <style type="text/css">*{stroke-linejoin: round; stroke-linecap: butt}</style>
 </defs>
 <g id="figure_1">
  <g id="patch_1">
   <path d="M 0 345.6 
L 460.8 345.6 
L 460.8 0 
L 0 0 
z
" style="fill: #ffffff"/>
  </g>
  <g id="axes_1">
   <g id="patch_2">
    <path d="M 57.6 307.584 
L 414.72 307.584 
L 414.72 41.472 
L 57.6 41.472 
z
" style="fill: #ffffff"/>
   </g>
   <g id="matplotlib.axis_1">
    <g id="xtick_1">
     <g id="line2d_1">
      <defs>
       <path id="m78a00ff605" d="M 0 0 
L 0 3.5 
" style="stroke: #000000; stroke-width: 0.8"/>
      </defs>
      <g>
       <use xlink:href="#m78a00ff605" x="58.027518" y="307.584" style="stroke: #000000; stroke-width: 0.8"/>
      </g>
     </g>
     <g id="text_1">
      <!-- 2008 -->
      <g transform="translate(45.302518 322.182437)scale(0.1 -0.1)">
       <defs>
        <path id="DejaVuSans-32" d="M 1228 531 
L 3431 531 
L 3431 0 
L 469 0 
L 469 531 
Q 828 903 1448 1529 
Q 2069 2156 2228 2338 
Q 2531 2678 2651 2914 
Q 2772 3150 2772 3378 
Q 2772 3750 2511 3984 
Q 2250 4219 1831 4219 
Q 1534 4219 1204 4116 
Q 875 4013 500 3803 
L 500 4441 
Q 881 4594 1212 4672 
Q 1544 4750 1819 4750 
Q 2544 4750 2975 4387 
Q 3406 4025 3406 3419 
Q 3406 3131 3298 2873 
Q 3191 2616 2906 2266 
Q 2828 2175 2409 1742 
Q 1991 1309 1228 531 
z
" transform="scale(0.015625)"/>
        <path id="DejaVuSans-30" d="M 2034 4250 
Q 1547 4250 1301 3770 
Q 1056 3291 1056 2328 
Q 1056 1369 1301 889 
Q 1547 409 2034 409 
Q 2525 409 2770 889 
Q 3016 1369 3016 2328 
Q 3016 3291 2770 3770 
Q 2525 4250 2034 4250 
z
M 2034 4750 
Q 2819 4750 3233 4129 
Q 3647 3509 3647 2328 
Q 3647 1150 3233 529 
Q 2819 -91 2034 -91 
Q 1250 -91 836 529 
Q 422 1150 422 2328 
Q 422 3509 836 4129 
Q 1250 4750 2034 4750 
z
" transform="scale(0.015625)"/>
        <path id="DejaVuSans-38" d="M 2034 2216 
Q 1584 2216 1326 1975 
Q 1069 1734 1069 1313 
Q 1069 891 1326 650 
Q 1584 409 2034 409 
Q 2484 409 2743 651 
Q 3003 894 3003 1313 
Q 3003 1734 2745 1975 
Q 2488 2216 2034 2216 
z
M 1403 2484 
Q 997 2584 770 2862 
Q 544 3141 544 3541 
Q 544 4100 942 4425 
Q 1341 4750 2034 4750 
Q 2731 4750 3128 4425 
Q 3525 4100 3525 3541 
Q 3525 3141 3298 2862 
Q 3072 2584 2669 2484 
Q 3125 2378 3379 2068 
Q 3634 1759 3634 1313 
Q 3634 634 3220 271 
Q 2806 -91 2034 -91 
Q 1263 -91 848 271 
Q 434 634 434 1313 
Q 434 1759 690 2068 
Q 947 2378 1403 2484 
z
M 1172 3481 
Q 1172 3119 1398 2916 
Q 1625 2713 2034 2713 
Q 2441 2713 2670 2916 
Q 2900 3119 2900 3481 
Q 2900 3844 2670 4047 
Q 2441 4250 2034 4250 
Q 1625 4250 1398 4047 
Q 1172 3844 1172 3481 
z
" transform="scale(0.015625)"/>
       </defs>
       <use xlink:href="#DejaVuSans-32"/>
       <use xlink:href="#DejaVuSans-30" x="63.623047"/>
       <use xlink:href="#DejaVuSans-30" x="127.246094"/>
       <use xlink:href="#DejaVuSans-38" x="190.869141"/>
      </g>
     </g>
    </g>
    <g id="xtick_2">
     <g id="line2d_2">
      <g>
       <use xlink:href="#m78a00ff605" x="105.37837" y="307.584" style="stroke: #000000; stroke-width: 0.8"/>
      </g>
     </g>
     <g id="text_2">
      <!-- 2010 -->
      <g transform="translate(92.65337 322.182437)scale(0.1 -0.1)">
       <defs>
        <path id="DejaVuSans-31" d="M 794 531 
L 1825 531 
L 1825 4091 
L 703 3866 
L 703 4441 
L 1819 4666 
L 2450 4666 
L 2450 531 
L 3481 531 
L 3481 0 
L 794 0 
L 794 531 
z
" transform="scale(0.015625)"/>
       </defs>
       <use xlink:href="#DejaVuSans-32"/>
       <use xlink:href="#DejaVuSans-30" x="63.623047"/>
       <use xlink:href="#DejaVuSans-31" x="127.246094"/>
       <use xlink:href="#DejaVuSans-30" x="190.869141"/>
      </g>
     </g>
    </g>
    <g id="xtick_3">
     <g id="line2d_3">
      <g>
       <use xlink:href="#m78a00ff605" x="152.664448" y="307.584" style="stroke: #000000; stroke-width: 0.8"/>
      </g>
     </g>
     <g id="text_3">
      <!-- 2012 -->
      <g transform="translate(139.939448 322.182437)scale(0.1 -0.1)">
       <use xlink:href="#DejaVuSans-32"/>
       <use xlink:href="#DejaVuSans-30" x="63.623047"/>
       <use xlink:href="#DejaVuSans-31" x="127.246094"/>
       <use xlink:href="#DejaVuSans-32" x="190.869141"/>
      </g>
     </g>
    </g>
    <g id="xtick_4">
     <g id="line2d_4">
      <g>
       <use xlink:href="#m78a00ff605" x="200.0153" y="307.584" style="stroke: #000000; stroke-width: 0.8"/>
      </g>
     </g>
     <g id="text_4">
      <!-- 2014 -->
      <g transform="translate(187.2903 322.182437)scale(0.1 -0.1)">
       <defs>
        <path id="DejaVuSans-34" d="M 2419 4116 
L 825 1625 
L 2419 1625 
L 2419 4116 
z
M 2253 4666 
L 3047 4666 
L 3047 1625 
L 3713 1625 
L 3713 1100 
L 3047 1100 
L 3047 0 
L 2419 0 
L 2419 1100 
L 313 1100 
L 313 1709 
L 2253 4666 
z
" transform="scale(0.015625)"/>
       </defs>
       <use xlink:href="#DejaVuSans-32"/>
       <use xlink:href="#DejaVuSans-30" x="63.623047"/>
       <use xlink:href="#DejaVuSans-31" x="127.246094"/>
       <use xlink:href="#DejaVuSans-34" x="190.869141"/>
      </g>
     </g>
    </g>
    <g id="xtick_5">
     <g id="line2d_5">
      <g>
       <use xlink:href="#m78a00ff605" x="247.301377" y="307.584" style="stroke: #000000; stroke-width: 0.8"/>
      </g>
     </g>
     <g id="text_5">
      <!-- 2016 -->
      <g transform="translate(234.576377 322.182437)scale(0.1 -0.1)">
       <defs>
        <path id="DejaVuSans-36" d="M 2113 2584 
Q 1688 2584 1439 2293 
Q 1191 2003 1191 1497 
Q 1191 994 1439 701 
Q 1688 409 2113 409 
Q 2538 409 2786 701 
Q 3034 994 3034 1497 
Q 3034 2003 2786 2293 
Q 2538 2584 2113 2584 
z
M 3366 4563 
L 3366 3988 
Q 3128 4100 2886 4159 
Q 2644 4219 2406 4219 
Q 1781 4219 1451 3797 
Q 1122 3375 1075 2522 
Q 1259 2794 1537 2939 
Q 1816 3084 2150 3084 
Q 2853 3084 3261 2657 
Q 3669 2231 3669 1497 
Q 3669 778 3244 343 
Q 2819 -91 2113 -91 
Q 1303 -91 875 529 
Q 447 1150 447 2328 
Q 447 3434 972 4092 
Q 1497 4750 2381 4750 
Q 2619 4750 2861 4703 
Q 3103 4656 3366 4563 
z
" transform="scale(0.015625)"/>
       </defs>
       <use xlink:href="#DejaVuSans-32"/>
       <use xlink:href="#DejaVuSans-30" x="63.623047"/>
       <use xlink:href="#DejaVuSans-31" x="127.246094"/>
       <use xlink:href="#DejaVuSans-36" x="190.869141"/>
      </g>
     </g>
    </g>
    <g id="xtick_6">
     <g id="line2d_6">
      <g>
       <use xlink:href="#m78a00ff605" x="294.65223" y="307.584" style="stroke: #000000; stroke-width: 0.8"/>
      </g>
     </g>
     <g id="text_6">
      <!-- 2018 -->
      <g transform="translate(281.92723 322.182437)scale(0.1 -0.1)">
       <use xlink:href="#DejaVuSans-32"/>
       <use xlink:href="#DejaVuSans-30" x="63.623047"/>
       <use xlink:href="#DejaVuSans-31" x="127.246094"/>
       <use xlink:href="#DejaVuSans-38" x="190.869141"/>
      </g>
     </g>
    </g>
    <g id="xtick_7">
     <g id="line2d_7">
      <g>
       <use xlink:href="#m78a00ff605" x="341.938307" y="307.584" style="stroke: #000000; stroke-width: 0.8"/>
      </g>
     </g>
     <g id="text_7">
      <!-- 2020 -->
      <g transform="translate(329.213307 322.182437)scale(0.1 -0.1)">
       <use xlink:href="#DejaVuSans-32"/>
       <use xlink:href="#DejaVuSans-30" x="63.623047"/>
       <use xlink:href="#DejaVuSans-32" x="127.246094"/>
       <use xlink:href="#DejaVuSans-30" x="190.869141"/>
      </g>
     </g>
    </g>
    <g id="xtick_8">
     <g id="line2d_8">
      <g>
       <use xlink:href="#m78a00ff605" x="389.289159" y="307.584" style="stroke: #000000; stroke-width: 0.8"/>
      </g>
     </g>
     <g id="text_8">
      <!-- 2022 -->
      <g transform="translate(376.564159 322.182437)scale(0.1 -0.1)">
       <use xlink:href="#DejaVuSans-32"/>
       <use xlink:href="#DejaVuSans-30" x="63.623047"/>
       <use xlink:href="#DejaVuSans-32" x="127.246094"/>
       <use xlink:href="#DejaVuSans-32" x="190.869141"/>
      </g>
     </g>
    </g>
    <g id="text_9">
     <!-- Updated 2022-05-25 05:39:25.453597 - Last record 2022-05-23 -->
     <g transform="translate(75.905312 335.860562)scale(0.1 -0.1)">
      <defs>
       <path id="DejaVuSans-55" d="M 556 4666 
L 1191 4666 
L 1191 1831 
Q 1191 1081 1462 751 
Q 1734 422 2344 422 
Q 2950 422 3222 751 
Q 3494 1081 3494 1831 
L 3494 4666 
L 4128 4666 
L 4128 1753 
Q 4128 841 3676 375 
Q 3225 -91 2344 -91 
Q 1459 -91 1007 375 
Q 556 841 556 1753 
L 556 4666 
z
" transform="scale(0.015625)"/>
       <path id="DejaVuSans-70" d="M 1159 525 
L 1159 -1331 
L 581 -1331 
L 581 3500 
L 1159 3500 
L 1159 2969 
Q 1341 3281 1617 3432 
Q 1894 3584 2278 3584 
Q 2916 3584 3314 3078 
Q 3713 2572 3713 1747 
Q 3713 922 3314 415 
Q 2916 -91 2278 -91 
Q 1894 -91 1617 61 
Q 1341 213 1159 525 
z
M 3116 1747 
Q 3116 2381 2855 2742 
Q 2594 3103 2138 3103 
Q 1681 3103 1420 2742 
Q 1159 2381 1159 1747 
Q 1159 1113 1420 752 
Q 1681 391 2138 391 
Q 2594 391 2855 752 
Q 3116 1113 3116 1747 
z
" transform="scale(0.015625)"/>
       <path id="DejaVuSans-64" d="M 2906 2969 
L 2906 4863 
L 3481 4863 
L 3481 0 
L 2906 0 
L 2906 525 
Q 2725 213 2448 61 
Q 2172 -91 1784 -91 
Q 1150 -91 751 415 
Q 353 922 353 1747 
Q 353 2572 751 3078 
Q 1150 3584 1784 3584 
Q 2172 3584 2448 3432 
Q 2725 3281 2906 2969 
z
M 947 1747 
Q 947 1113 1208 752 
Q 1469 391 1925 391 
Q 2381 391 2643 752 
Q 2906 1113 2906 1747 
Q 2906 2381 2643 2742 
Q 2381 3103 1925 3103 
Q 1469 3103 1208 2742 
Q 947 2381 947 1747 
z
" transform="scale(0.015625)"/>
       <path id="DejaVuSans-61" d="M 2194 1759 
Q 1497 1759 1228 1600 
Q 959 1441 959 1056 
Q 959 750 1161 570 
Q 1363 391 1709 391 
Q 2188 391 2477 730 
Q 2766 1069 2766 1631 
L 2766 1759 
L 2194 1759 
z
M 3341 1997 
L 3341 0 
L 2766 0 
L 2766 531 
Q 2569 213 2275 61 
Q 1981 -91 1556 -91 
Q 1019 -91 701 211 
Q 384 513 384 1019 
Q 384 1609 779 1909 
Q 1175 2209 1959 2209 
L 2766 2209 
L 2766 2266 
Q 2766 2663 2505 2880 
Q 2244 3097 1772 3097 
Q 1472 3097 1187 3025 
Q 903 2953 641 2809 
L 641 3341 
Q 956 3463 1253 3523 
Q 1550 3584 1831 3584 
Q 2591 3584 2966 3190 
Q 3341 2797 3341 1997 
z
" transform="scale(0.015625)"/>
       <path id="DejaVuSans-74" d="M 1172 4494 
L 1172 3500 
L 2356 3500 
L 2356 3053 
L 1172 3053 
L 1172 1153 
Q 1172 725 1289 603 
Q 1406 481 1766 481 
L 2356 481 
L 2356 0 
L 1766 0 
Q 1100 0 847 248 
Q 594 497 594 1153 
L 594 3053 
L 172 3053 
L 172 3500 
L 594 3500 
L 594 4494 
L 1172 4494 
z
" transform="scale(0.015625)"/>
       <path id="DejaVuSans-65" d="M 3597 1894 
L 3597 1613 
L 953 1613 
Q 991 1019 1311 708 
Q 1631 397 2203 397 
Q 2534 397 2845 478 
Q 3156 559 3463 722 
L 3463 178 
Q 3153 47 2828 -22 
Q 2503 -91 2169 -91 
Q 1331 -91 842 396 
Q 353 884 353 1716 
Q 353 2575 817 3079 
Q 1281 3584 2069 3584 
Q 2775 3584 3186 3129 
Q 3597 2675 3597 1894 
z
M 3022 2063 
Q 3016 2534 2758 2815 
Q 2500 3097 2075 3097 
Q 1594 3097 1305 2825 
Q 1016 2553 972 2059 
L 3022 2063 
z
" transform="scale(0.015625)"/>
       <path id="DejaVuSans-20" transform="scale(0.015625)"/>
       <path id="DejaVuSans-2d" d="M 313 2009 
L 1997 2009 
L 1997 1497 
L 313 1497 
L 313 2009 
z
" transform="scale(0.015625)"/>
       <path id="DejaVuSans-35" d="M 691 4666 
L 3169 4666 
L 3169 4134 
L 1269 4134 
L 1269 2991 
Q 1406 3038 1543 3061 
Q 1681 3084 1819 3084 
Q 2600 3084 3056 2656 
Q 3513 2228 3513 1497 
Q 3513 744 3044 326 
Q 2575 -91 1722 -91 
Q 1428 -91 1123 -41 
Q 819 9 494 109 
L 494 744 
Q 775 591 1075 516 
Q 1375 441 1709 441 
Q 2250 441 2565 725 
Q 2881 1009 2881 1497 
Q 2881 1984 2565 2268 
Q 2250 2553 1709 2553 
Q 1456 2553 1204 2497 
Q 953 2441 691 2322 
L 691 4666 
z
" transform="scale(0.015625)"/>
       <path id="DejaVuSans-3a" d="M 750 794 
L 1409 794 
L 1409 0 
L 750 0 
L 750 794 
z
M 750 3309 
L 1409 3309 
L 1409 2516 
L 750 2516 
L 750 3309 
z
" transform="scale(0.015625)"/>
       <path id="DejaVuSans-33" d="M 2597 2516 
Q 3050 2419 3304 2112 
Q 3559 1806 3559 1356 
Q 3559 666 3084 287 
Q 2609 -91 1734 -91 
Q 1441 -91 1130 -33 
Q 819 25 488 141 
L 488 750 
Q 750 597 1062 519 
Q 1375 441 1716 441 
Q 2309 441 2620 675 
Q 2931 909 2931 1356 
Q 2931 1769 2642 2001 
Q 2353 2234 1838 2234 
L 1294 2234 
L 1294 2753 
L 1863 2753 
Q 2328 2753 2575 2939 
Q 2822 3125 2822 3475 
Q 2822 3834 2567 4026 
Q 2313 4219 1838 4219 
Q 1578 4219 1281 4162 
Q 984 4106 628 3988 
L 628 4550 
Q 988 4650 1302 4700 
Q 1616 4750 1894 4750 
Q 2613 4750 3031 4423 
Q 3450 4097 3450 3541 
Q 3450 3153 3228 2886 
Q 3006 2619 2597 2516 
z
" transform="scale(0.015625)"/>
       <path id="DejaVuSans-39" d="M 703 97 
L 703 672 
Q 941 559 1184 500 
Q 1428 441 1663 441 
Q 2288 441 2617 861 
Q 2947 1281 2994 2138 
Q 2813 1869 2534 1725 
Q 2256 1581 1919 1581 
Q 1219 1581 811 2004 
Q 403 2428 403 3163 
Q 403 3881 828 4315 
Q 1253 4750 1959 4750 
Q 2769 4750 3195 4129 
Q 3622 3509 3622 2328 
Q 3622 1225 3098 567 
Q 2575 -91 1691 -91 
Q 1453 -91 1209 -44 
Q 966 3 703 97 
z
M 1959 2075 
Q 2384 2075 2632 2365 
Q 2881 2656 2881 3163 
Q 2881 3666 2632 3958 
Q 2384 4250 1959 4250 
Q 1534 4250 1286 3958 
Q 1038 3666 1038 3163 
Q 1038 2656 1286 2365 
Q 1534 2075 1959 2075 
z
" transform="scale(0.015625)"/>
       <path id="DejaVuSans-2e" d="M 684 794 
L 1344 794 
L 1344 0 
L 684 0 
L 684 794 
z
" transform="scale(0.015625)"/>
       <path id="DejaVuSans-37" d="M 525 4666 
L 3525 4666 
L 3525 4397 
L 1831 0 
L 1172 0 
L 2766 4134 
L 525 4134 
L 525 4666 
z
" transform="scale(0.015625)"/>
       <path id="DejaVuSans-4c" d="M 628 4666 
L 1259 4666 
L 1259 531 
L 3531 531 
L 3531 0 
L 628 0 
L 628 4666 
z
" transform="scale(0.015625)"/>
       <path id="DejaVuSans-73" d="M 2834 3397 
L 2834 2853 
Q 2591 2978 2328 3040 
Q 2066 3103 1784 3103 
Q 1356 3103 1142 2972 
Q 928 2841 928 2578 
Q 928 2378 1081 2264 
Q 1234 2150 1697 2047 
L 1894 2003 
Q 2506 1872 2764 1633 
Q 3022 1394 3022 966 
Q 3022 478 2636 193 
Q 2250 -91 1575 -91 
Q 1294 -91 989 -36 
Q 684 19 347 128 
L 347 722 
Q 666 556 975 473 
Q 1284 391 1588 391 
Q 1994 391 2212 530 
Q 2431 669 2431 922 
Q 2431 1156 2273 1281 
Q 2116 1406 1581 1522 
L 1381 1569 
Q 847 1681 609 1914 
Q 372 2147 372 2553 
Q 372 3047 722 3315 
Q 1072 3584 1716 3584 
Q 2034 3584 2315 3537 
Q 2597 3491 2834 3397 
z
" transform="scale(0.015625)"/>
       <path id="DejaVuSans-72" d="M 2631 2963 
Q 2534 3019 2420 3045 
Q 2306 3072 2169 3072 
Q 1681 3072 1420 2755 
Q 1159 2438 1159 1844 
L 1159 0 
L 581 0 
L 581 3500 
L 1159 3500 
L 1159 2956 
Q 1341 3275 1631 3429 
Q 1922 3584 2338 3584 
Q 2397 3584 2469 3576 
Q 2541 3569 2628 3553 
L 2631 2963 
z
" transform="scale(0.015625)"/>
       <path id="DejaVuSans-63" d="M 3122 3366 
L 3122 2828 
Q 2878 2963 2633 3030 
Q 2388 3097 2138 3097 
Q 1578 3097 1268 2742 
Q 959 2388 959 1747 
Q 959 1106 1268 751 
Q 1578 397 2138 397 
Q 2388 397 2633 464 
Q 2878 531 3122 666 
L 3122 134 
Q 2881 22 2623 -34 
Q 2366 -91 2075 -91 
Q 1284 -91 818 406 
Q 353 903 353 1747 
Q 353 2603 823 3093 
Q 1294 3584 2113 3584 
Q 2378 3584 2631 3529 
Q 2884 3475 3122 3366 
z
" transform="scale(0.015625)"/>
       <path id="DejaVuSans-6f" d="M 1959 3097 
Q 1497 3097 1228 2736 
Q 959 2375 959 1747 
Q 959 1119 1226 758 
Q 1494 397 1959 397 
Q 2419 397 2687 759 
Q 2956 1122 2956 1747 
Q 2956 2369 2687 2733 
Q 2419 3097 1959 3097 
z
M 1959 3584 
Q 2709 3584 3137 3096 
Q 3566 2609 3566 1747 
Q 3566 888 3137 398 
Q 2709 -91 1959 -91 
Q 1206 -91 779 398 
Q 353 888 353 1747 
Q 353 2609 779 3096 
Q 1206 3584 1959 3584 
z
" transform="scale(0.015625)"/>
      </defs>
      <use xlink:href="#DejaVuSans-55"/>
      <use xlink:href="#DejaVuSans-70" x="73.193359"/>
      <use xlink:href="#DejaVuSans-64" x="136.669922"/>
      <use xlink:href="#DejaVuSans-61" x="200.146484"/>
      <use xlink:href="#DejaVuSans-74" x="261.425781"/>
      <use xlink:href="#DejaVuSans-65" x="300.634766"/>
      <use xlink:href="#DejaVuSans-64" x="362.158203"/>
      <use xlink:href="#DejaVuSans-20" x="425.634766"/>
      <use xlink:href="#DejaVuSans-32" x="457.421875"/>
      <use xlink:href="#DejaVuSans-30" x="521.044922"/>
      <use xlink:href="#DejaVuSans-32" x="584.667969"/>
      <use xlink:href="#DejaVuSans-32" x="648.291016"/>
      <use xlink:href="#DejaVuSans-2d" x="711.914062"/>
      <use xlink:href="#DejaVuSans-30" x="747.998047"/>
      <use xlink:href="#DejaVuSans-35" x="811.621094"/>
      <use xlink:href="#DejaVuSans-2d" x="875.244141"/>
      <use xlink:href="#DejaVuSans-32" x="911.328125"/>
      <use xlink:href="#DejaVuSans-35" x="974.951172"/>
      <use xlink:href="#DejaVuSans-20" x="1038.574219"/>
      <use xlink:href="#DejaVuSans-30" x="1070.361328"/>
      <use xlink:href="#DejaVuSans-35" x="1133.984375"/>
      <use xlink:href="#DejaVuSans-3a" x="1197.607422"/>
      <use xlink:href="#DejaVuSans-33" x="1231.298828"/>
      <use xlink:href="#DejaVuSans-39" x="1294.921875"/>
      <use xlink:href="#DejaVuSans-3a" x="1358.544922"/>
      <use xlink:href="#DejaVuSans-32" x="1392.236328"/>
      <use xlink:href="#DejaVuSans-35" x="1455.859375"/>
      <use xlink:href="#DejaVuSans-2e" x="1519.482422"/>
      <use xlink:href="#DejaVuSans-34" x="1551.269531"/>
      <use xlink:href="#DejaVuSans-35" x="1614.892578"/>
      <use xlink:href="#DejaVuSans-33" x="1678.515625"/>
      <use xlink:href="#DejaVuSans-35" x="1742.138672"/>
      <use xlink:href="#DejaVuSans-39" x="1805.761719"/>
      <use xlink:href="#DejaVuSans-37" x="1869.384766"/>
      <use xlink:href="#DejaVuSans-20" x="1933.007812"/>
      <use xlink:href="#DejaVuSans-2d" x="1964.794922"/>
      <use xlink:href="#DejaVuSans-20" x="2000.878906"/>
      <use xlink:href="#DejaVuSans-4c" x="2032.666016"/>
      <use xlink:href="#DejaVuSans-61" x="2088.378906"/>
      <use xlink:href="#DejaVuSans-73" x="2149.658203"/>
      <use xlink:href="#DejaVuSans-74" x="2201.757812"/>
      <use xlink:href="#DejaVuSans-20" x="2240.966797"/>
      <use xlink:href="#DejaVuSans-72" x="2272.753906"/>
      <use xlink:href="#DejaVuSans-65" x="2311.617188"/>
      <use xlink:href="#DejaVuSans-63" x="2373.140625"/>
      <use xlink:href="#DejaVuSans-6f" x="2428.121094"/>
      <use xlink:href="#DejaVuSans-72" x="2489.302734"/>
      <use xlink:href="#DejaVuSans-64" x="2528.666016"/>
      <use xlink:href="#DejaVuSans-20" x="2592.142578"/>
      <use xlink:href="#DejaVuSans-32" x="2623.929688"/>
      <use xlink:href="#DejaVuSans-30" x="2687.552734"/>
      <use xlink:href="#DejaVuSans-32" x="2751.175781"/>
      <use xlink:href="#DejaVuSans-32" x="2814.798828"/>
      <use xlink:href="#DejaVuSans-2d" x="2878.421875"/>
      <use xlink:href="#DejaVuSans-30" x="2914.505859"/>
      <use xlink:href="#DejaVuSans-35" x="2978.128906"/>
      <use xlink:href="#DejaVuSans-2d" x="3041.751953"/>
      <use xlink:href="#DejaVuSans-32" x="3077.835938"/>
      <use xlink:href="#DejaVuSans-33" x="3141.458984"/>
     </g>
    </g>
   </g>
   <g id="matplotlib.axis_2">
    <g id="ytick_1">
     <g id="line2d_9">
      <defs>
       <path id="m922fc6a1d5" d="M 0 0 
L -3.5 0 
" style="stroke: #000000; stroke-width: 0.8"/>
      </defs>
      <g>
       <use xlink:href="#m922fc6a1d5" x="57.6" y="295.488" style="stroke: #000000; stroke-width: 0.8"/>
      </g>
     </g>
     <g id="text_10">
      <!-- 0 -->
      <g transform="translate(44.2375 299.287219)scale(0.1 -0.1)">
       <use xlink:href="#DejaVuSans-30"/>
      </g>
     </g>
    </g>
    <g id="ytick_2">
     <g id="line2d_10">
      <g>
       <use xlink:href="#m922fc6a1d5" x="57.6" y="265.495647" style="stroke: #000000; stroke-width: 0.8"/>
      </g>
     </g>
     <g id="text_11">
      <!-- 5 -->
      <g transform="translate(44.2375 269.294866)scale(0.1 -0.1)">
       <use xlink:href="#DejaVuSans-35"/>
      </g>
     </g>
    </g>
    <g id="ytick_3">
     <g id="line2d_11">
      <g>
       <use xlink:href="#m922fc6a1d5" x="57.6" y="235.503294" style="stroke: #000000; stroke-width: 0.8"/>
      </g>
     </g>
     <g id="text_12">
      <!-- 10 -->
      <g transform="translate(37.875 239.302512)scale(0.1 -0.1)">
       <use xlink:href="#DejaVuSans-31"/>
       <use xlink:href="#DejaVuSans-30" x="63.623047"/>
      </g>
     </g>
    </g>
    <g id="ytick_4">
     <g id="line2d_12">
      <g>
       <use xlink:href="#m922fc6a1d5" x="57.6" y="205.510941" style="stroke: #000000; stroke-width: 0.8"/>
      </g>
     </g>
     <g id="text_13">
      <!-- 15 -->
      <g transform="translate(37.875 209.310159)scale(0.1 -0.1)">
       <use xlink:href="#DejaVuSans-31"/>
       <use xlink:href="#DejaVuSans-35" x="63.623047"/>
      </g>
     </g>
    </g>
    <g id="ytick_5">
     <g id="line2d_13">
      <g>
       <use xlink:href="#m922fc6a1d5" x="57.6" y="175.518587" style="stroke: #000000; stroke-width: 0.8"/>
      </g>
     </g>
     <g id="text_14">
      <!-- 20 -->
      <g transform="translate(37.875 179.317806)scale(0.1 -0.1)">
       <use xlink:href="#DejaVuSans-32"/>
       <use xlink:href="#DejaVuSans-30" x="63.623047"/>
      </g>
     </g>
    </g>
    <g id="ytick_6">
     <g id="line2d_14">
      <g>
       <use xlink:href="#m922fc6a1d5" x="57.6" y="145.526234" style="stroke: #000000; stroke-width: 0.8"/>
      </g>
     </g>
     <g id="text_15">
      <!-- 25 -->
      <g transform="translate(37.875 149.325453)scale(0.1 -0.1)">
       <use xlink:href="#DejaVuSans-32"/>
       <use xlink:href="#DejaVuSans-35" x="63.623047"/>
      </g>
     </g>
    </g>
    <g id="ytick_7">
     <g id="line2d_15">
      <g>
       <use xlink:href="#m922fc6a1d5" x="57.6" y="115.533881" style="stroke: #000000; stroke-width: 0.8"/>
      </g>
     </g>
     <g id="text_16">
      <!-- 30 -->
      <g transform="translate(37.875 119.3331)scale(0.1 -0.1)">
       <use xlink:href="#DejaVuSans-33"/>
       <use xlink:href="#DejaVuSans-30" x="63.623047"/>
      </g>
     </g>
    </g>
    <g id="ytick_8">
     <g id="line2d_16">
      <g>
       <use xlink:href="#m922fc6a1d5" x="57.6" y="85.541528" style="stroke: #000000; stroke-width: 0.8"/>
      </g>
     </g>
     <g id="text_17">
      <!-- 35 -->
      <g transform="translate(37.875 89.340747)scale(0.1 -0.1)">
       <use xlink:href="#DejaVuSans-33"/>
       <use xlink:href="#DejaVuSans-35" x="63.623047"/>
      </g>
     </g>
    </g>
    <g id="ytick_9">
     <g id="line2d_17">
      <g>
       <use xlink:href="#m922fc6a1d5" x="57.6" y="55.549175" style="stroke: #000000; stroke-width: 0.8"/>
      </g>
     </g>
     <g id="text_18">
      <!-- 40 -->
      <g transform="translate(37.875 59.348394)scale(0.1 -0.1)">
       <use xlink:href="#DejaVuSans-34"/>
       <use xlink:href="#DejaVuSans-30" x="63.623047"/>
      </g>
     </g>
    </g>
    <g id="text_19">
     <!-- IPv6 as % of total Google traffic -->
     <g transform="translate(31.795312 253.735813)rotate(-90)scale(0.1 -0.1)">
      <defs>
       <path id="DejaVuSans-49" d="M 628 4666 
L 1259 4666 
L 1259 0 
L 628 0 
L 628 4666 
z
" transform="scale(0.015625)"/>
       <path id="DejaVuSans-50" d="M 1259 4147 
L 1259 2394 
L 2053 2394 
Q 2494 2394 2734 2622 
Q 2975 2850 2975 3272 
Q 2975 3691 2734 3919 
Q 2494 4147 2053 4147 
L 1259 4147 
z
M 628 4666 
L 2053 4666 
Q 2838 4666 3239 4311 
Q 3641 3956 3641 3272 
Q 3641 2581 3239 2228 
Q 2838 1875 2053 1875 
L 1259 1875 
L 1259 0 
L 628 0 
L 628 4666 
z
" transform="scale(0.015625)"/>
       <path id="DejaVuSans-76" d="M 191 3500 
L 800 3500 
L 1894 563 
L 2988 3500 
L 3597 3500 
L 2284 0 
L 1503 0 
L 191 3500 
z
" transform="scale(0.015625)"/>
       <path id="DejaVuSans-25" d="M 4653 2053 
Q 4381 2053 4226 1822 
Q 4072 1591 4072 1178 
Q 4072 772 4226 539 
Q 4381 306 4653 306 
Q 4919 306 5073 539 
Q 5228 772 5228 1178 
Q 5228 1588 5073 1820 
Q 4919 2053 4653 2053 
z
M 4653 2450 
Q 5147 2450 5437 2106 
Q 5728 1763 5728 1178 
Q 5728 594 5436 251 
Q 5144 -91 4653 -91 
Q 4153 -91 3862 251 
Q 3572 594 3572 1178 
Q 3572 1766 3864 2108 
Q 4156 2450 4653 2450 
z
M 1428 4353 
Q 1159 4353 1004 4120 
Q 850 3888 850 3481 
Q 850 3069 1003 2837 
Q 1156 2606 1428 2606 
Q 1700 2606 1854 2837 
Q 2009 3069 2009 3481 
Q 2009 3884 1853 4118 
Q 1697 4353 1428 4353 
z
M 4250 4750 
L 4750 4750 
L 1831 -91 
L 1331 -91 
L 4250 4750 
z
M 1428 4750 
Q 1922 4750 2215 4408 
Q 2509 4066 2509 3481 
Q 2509 2891 2217 2550 
Q 1925 2209 1428 2209 
Q 931 2209 642 2551 
Q 353 2894 353 3481 
Q 353 4063 643 4406 
Q 934 4750 1428 4750 
z
" transform="scale(0.015625)"/>
       <path id="DejaVuSans-66" d="M 2375 4863 
L 2375 4384 
L 1825 4384 
Q 1516 4384 1395 4259 
Q 1275 4134 1275 3809 
L 1275 3500 
L 2222 3500 
L 2222 3053 
L 1275 3053 
L 1275 0 
L 697 0 
L 697 3053 
L 147 3053 
L 147 3500 
L 697 3500 
L 697 3744 
Q 697 4328 969 4595 
Q 1241 4863 1831 4863 
L 2375 4863 
z
" transform="scale(0.015625)"/>
       <path id="DejaVuSans-6c" d="M 603 4863 
L 1178 4863 
L 1178 0 
L 603 0 
L 603 4863 
z
" transform="scale(0.015625)"/>
       <path id="DejaVuSans-47" d="M 3809 666 
L 3809 1919 
L 2778 1919 
L 2778 2438 
L 4434 2438 
L 4434 434 
Q 4069 175 3628 42 
Q 3188 -91 2688 -91 
Q 1594 -91 976 548 
Q 359 1188 359 2328 
Q 359 3472 976 4111 
Q 1594 4750 2688 4750 
Q 3144 4750 3555 4637 
Q 3966 4525 4313 4306 
L 4313 3634 
Q 3963 3931 3569 4081 
Q 3175 4231 2741 4231 
Q 1884 4231 1454 3753 
Q 1025 3275 1025 2328 
Q 1025 1384 1454 906 
Q 1884 428 2741 428 
Q 3075 428 3337 486 
Q 3600 544 3809 666 
z
" transform="scale(0.015625)"/>
       <path id="DejaVuSans-67" d="M 2906 1791 
Q 2906 2416 2648 2759 
Q 2391 3103 1925 3103 
Q 1463 3103 1205 2759 
Q 947 2416 947 1791 
Q 947 1169 1205 825 
Q 1463 481 1925 481 
Q 2391 481 2648 825 
Q 2906 1169 2906 1791 
z
M 3481 434 
Q 3481 -459 3084 -895 
Q 2688 -1331 1869 -1331 
Q 1566 -1331 1297 -1286 
Q 1028 -1241 775 -1147 
L 775 -588 
Q 1028 -725 1275 -790 
Q 1522 -856 1778 -856 
Q 2344 -856 2625 -561 
Q 2906 -266 2906 331 
L 2906 616 
Q 2728 306 2450 153 
Q 2172 0 1784 0 
Q 1141 0 747 490 
Q 353 981 353 1791 
Q 353 2603 747 3093 
Q 1141 3584 1784 3584 
Q 2172 3584 2450 3431 
Q 2728 3278 2906 2969 
L 2906 3500 
L 3481 3500 
L 3481 434 
z
" transform="scale(0.015625)"/>
       <path id="DejaVuSans-69" d="M 603 3500 
L 1178 3500 
L 1178 0 
L 603 0 
L 603 3500 
z
M 603 4863 
L 1178 4863 
L 1178 4134 
L 603 4134 
L 603 4863 
z
" transform="scale(0.015625)"/>
      </defs>
      <use xlink:href="#DejaVuSans-49"/>
      <use xlink:href="#DejaVuSans-50" x="29.492188"/>
      <use xlink:href="#DejaVuSans-76" x="89.794922"/>
      <use xlink:href="#DejaVuSans-36" x="148.974609"/>
      <use xlink:href="#DejaVuSans-20" x="212.597656"/>
      <use xlink:href="#DejaVuSans-61" x="244.384766"/>
      <use xlink:href="#DejaVuSans-73" x="305.664062"/>
      <use xlink:href="#DejaVuSans-20" x="357.763672"/>
      <use xlink:href="#DejaVuSans-25" x="389.550781"/>
      <use xlink:href="#DejaVuSans-20" x="484.570312"/>
      <use xlink:href="#DejaVuSans-6f" x="516.357422"/>
      <use xlink:href="#DejaVuSans-66" x="577.539062"/>
      <use xlink:href="#DejaVuSans-20" x="612.744141"/>
      <use xlink:href="#DejaVuSans-74" x="644.53125"/>
      <use xlink:href="#DejaVuSans-6f" x="683.740234"/>
      <use xlink:href="#DejaVuSans-74" x="744.921875"/>
      <use xlink:href="#DejaVuSans-61" x="784.130859"/>
      <use xlink:href="#DejaVuSans-6c" x="845.410156"/>
      <use xlink:href="#DejaVuSans-20" x="873.193359"/>
      <use xlink:href="#DejaVuSans-47" x="904.980469"/>
      <use xlink:href="#DejaVuSans-6f" x="982.470703"/>
      <use xlink:href="#DejaVuSans-6f" x="1043.652344"/>
      <use xlink:href="#DejaVuSans-67" x="1104.833984"/>
      <use xlink:href="#DejaVuSans-6c" x="1168.310547"/>
      <use xlink:href="#DejaVuSans-65" x="1196.09375"/>
      <use xlink:href="#DejaVuSans-20" x="1257.617188"/>
      <use xlink:href="#DejaVuSans-74" x="1289.404297"/>
      <use xlink:href="#DejaVuSans-72" x="1328.613281"/>
      <use xlink:href="#DejaVuSans-61" x="1369.726562"/>
      <use xlink:href="#DejaVuSans-66" x="1431.005859"/>
      <use xlink:href="#DejaVuSans-66" x="1466.210938"/>
      <use xlink:href="#DejaVuSans-69" x="1501.416016"/>
      <use xlink:href="#DejaVuSans-63" x="1529.199219"/>
     </g>
    </g>
   </g>
   <g id="line2d_18">
    <path d="M 73.832727 294.395121 
L 75.64644 294.209894 
L 76.099868 294.386273 
L 77.91358 294.385499 
L 79.727293 294.224722 
L 80.180721 294.082546 
L 81.541006 294.106132 
L 82.90129 294.071869 
L 83.354718 294.151919 
L 85.168431 293.988346 
L 86.982143 294.052182 
L 88.342428 293.999965 
L 89.702712 294.005046 
L 91.062996 294.058007 
L 92.423281 294.040923 
L 92.876709 294.156322 
L 95.14385 294.128285 
L 96.050706 294.151253 
L 97.864418 293.868791 
L 98.771275 293.993307 
L 99.224703 293.975372 
L 99.678131 293.683342 
L 102.3987 293.583168 
L 103.305556 293.544729 
L 105.119269 293.694013 
L 106.026125 293.669972 
L 106.932981 293.694247 
L 108.293266 293.66933 
L 108.746694 293.593851 
L 111.920691 293.891087 
L 113.280975 293.796245 
L 114.187831 294.003073 
L 116.454972 294.021974 
L 117.815256 294.151877 
L 120.082397 294.054551 
L 120.535825 293.937137 
L 122.349538 293.834726 
L 125.523535 293.764124 
L 126.430391 293.865864 
L 126.883819 293.722554 
L 129.604388 293.98837 
L 132.778385 293.800942 
L 133.685241 293.803282 
L 134.138669 293.666876 
L 135.045526 293.780973 
L 135.952382 293.569191 
L 136.40581 293.62184 
L 136.859238 293.491823 
L 137.312666 293.548748 
L 138.219523 293.427765 
L 139.126379 293.380431 
L 139.579807 293.410544 
L 140.033235 293.559816 
L 141.846948 293.593533 
L 142.300376 293.663451 
L 143.207232 293.56717 
L 143.66066 293.370216 
L 145.020945 293.200543 
L 146.381229 293.338574 
L 146.834657 293.188396 
L 147.741513 293.341399 
L 150.91551 292.795592 
L 151.822367 292.961252 
L 154.542936 292.52911 
L 156.810076 292.374098 
L 157.263504 292.144698 
L 157.716932 292.233098 
L 158.170361 292.030032 
L 159.077217 291.983801 
L 159.530645 291.998384 
L 160.437501 291.724452 
L 162.251214 291.182184 
L 162.704642 290.989609 
L 163.15807 291.070264 
L 164.518354 290.931592 
L 164.971783 291.044867 
L 166.785495 290.820668 
L 168.14578 290.30973 
L 168.599208 290.197835 
L 169.052636 290.261527 
L 169.506064 289.883611 
L 169.959492 289.701311 
L 171.773205 289.481503 
L 172.226633 289.658764 
L 172.680061 289.48641 
L 173.586917 289.391574 
L 174.040345 289.115915 
L 174.947202 288.931978 
L 176.760914 288.912818 
L 177.66777 288.67784 
L 179.028055 288.5047 
L 179.481483 288.278324 
L 179.934911 288.25649 
L 180.388339 288.373544 
L 182.202052 287.52725 
L 182.65548 287.546637 
L 183.108908 287.426091 
L 183.562336 287.18941 
L 184.015764 287.167743 
L 184.469192 287.014476 
L 184.922621 286.657843 
L 185.376049 286.576018 
L 185.829477 286.355316 
L 186.282905 286.391259 
L 187.643189 285.849303 
L 188.096618 285.945135 
L 188.550046 285.678377 
L 189.003474 285.631493 
L 191.270615 284.378263 
L 192.177471 283.99673 
L 193.084327 283.328524 
L 194.444611 281.677073 
L 194.89804 281.940112 
L 195.351468 281.985617 
L 196.711752 280.416669 
L 197.16518 280.228539 
L 197.618608 279.435499 
L 198.525465 279.188116 
L 199.432321 278.660256 
L 199.885749 278.715268 
L 201.246034 277.849263 
L 201.699462 277.665326 
L 202.15289 277.325165 
L 203.059746 277.244563 
L 203.513174 276.473976 
L 203.966602 276.46382 
L 204.42003 275.616614 
L 204.873459 275.17785 
L 205.780315 275.303782 
L 206.233743 274.99011 
L 206.687171 274.506927 
L 207.594027 273.944463 
L 208.047456 273.441635 
L 208.500884 273.74992 
L 210.314596 272.763358 
L 210.768024 272.398573 
L 211.221453 270.899537 
L 211.674881 271.183895 
L 212.581737 270.165978 
L 213.035165 270.122273 
L 213.488593 270.562327 
L 214.848878 269.561026 
L 215.302306 268.881736 
L 216.209162 268.934108 
L 216.66259 268.199098 
L 217.116018 268.148506 
L 217.569446 264.254581 
L 218.022875 266.816582 
L 218.476303 268.342809 
L 218.929731 267.6012 
L 219.383159 267.186772 
L 219.836587 267.119985 
L 220.290015 266.144615 
L 220.743443 265.838993 
L 222.103728 263.721983 
L 222.557156 262.339702 
L 223.010584 261.550735 
L 223.464012 260.479594 
L 223.91744 259.772386 
L 224.370868 260.901826 
L 224.824297 260.72898 
L 225.277725 260.76025 
L 225.731153 260.942706 
L 226.184581 261.283395 
L 226.638009 261.153414 
L 227.091437 258.662591 
L 227.544865 259.031017 
L 228.90515 257.718516 
L 229.358578 257.541861 
L 230.265434 257.619529 
L 230.718862 255.736681 
L 231.172291 255.668106 
L 232.079147 254.182207 
L 232.532575 254.688808 
L 232.986003 252.369613 
L 233.439431 252.91779 
L 233.892859 251.352195 
L 234.346287 250.602506 
L 234.799716 249.476821 
L 235.253144 250.258542 
L 235.706572 249.07439 
L 236.16 247.104408 
L 236.613428 248.097095 
L 237.066856 248.380085 
L 237.520284 247.768589 
L 237.973713 245.967308 
L 238.427141 246.46767 
L 238.880569 244.87732 
L 239.333997 245.24367 
L 240.240853 243.098713 
L 240.694281 242.012132 
L 242.054566 241.670987 
L 242.507994 240.416323 
L 242.961422 240.569002 
L 243.41485 240.098338 
L 243.868278 238.854825 
L 244.321706 238.539216 
L 244.775135 237.148794 
L 245.228563 236.195613 
L 245.681991 236.027626 
L 246.135419 236.262244 
L 246.588847 235.655745 
L 247.042275 233.072084 
L 247.949132 234.587573 
L 248.40256 234.296455 
L 249.309416 234.20922 
L 249.762844 234.260549 
L 250.6697 233.94882 
L 251.123128 232.495163 
L 251.576557 232.426348 
L 252.029985 231.137175 
L 252.483413 231.133552 
L 252.936841 230.937714 
L 254.297125 227.250568 
L 254.750554 225.078882 
L 255.203982 226.561925 
L 255.65741 225.940322 
L 256.110838 224.655479 
L 256.564266 224.941475 
L 257.017694 222.198362 
L 257.471122 222.600811 
L 257.924551 222.264459 
L 258.377979 220.350413 
L 258.831407 220.332298 
L 259.284835 218.905585 
L 259.738263 219.249112 
L 260.191691 218.120656 
L 260.645119 217.521186 
L 261.098547 217.839663 
L 261.551976 217.06697 
L 262.005404 215.861524 
L 262.458832 216.246871 
L 262.91226 215.675163 
L 263.365688 213.778165 
L 263.819116 212.984867 
L 264.272544 213.059074 
L 264.725973 210.840714 
L 265.179401 211.235209 
L 266.086257 208.593033 
L 266.539685 205.956465 
L 266.993113 206.217057 
L 267.89997 204.734499 
L 268.353398 203.07333 
L 268.806826 203.295405 
L 269.260254 202.599229 
L 269.713682 199.972667 
L 270.16711 199.051128 
L 270.620538 194.696406 
L 271.073966 197.52769 
L 271.527395 197.014365 
L 271.980823 197.689571 
L 272.434251 196.896687 
L 273.341107 198.184397 
L 273.794535 197.927686 
L 274.247963 196.798888 
L 274.701392 197.138365 
L 275.608248 195.700694 
L 276.061676 194.509422 
L 276.515104 194.3205 
L 276.968532 193.515217 
L 277.42196 190.619425 
L 277.875389 191.528116 
L 278.328817 187.644874 
L 278.782245 187.945469 
L 279.235673 185.834685 
L 279.689101 184.533671 
L 280.142529 183.750337 
L 280.595957 183.210024 
L 281.049385 182.140851 
L 281.502814 180.182632 
L 281.956242 176.954081 
L 282.40967 177.769364 
L 284.223382 174.092283 
L 284.676811 173.487547 
L 285.130239 173.510437 
L 285.583667 173.84361 
L 286.037095 172.699552 
L 286.490523 171.096149 
L 286.943951 172.532579 
L 287.397379 172.560304 
L 287.850808 173.839999 
L 288.304236 172.439524 
L 288.757664 170.262158 
L 289.211092 170.541158 
L 289.66452 169.60115 
L 291.024804 168.106253 
L 291.931661 167.008203 
L 292.385089 166.88926 
L 292.838517 182.810598 
L 293.291945 164.868039 
L 293.745373 164.006844 
L 294.198801 159.655842 
L 294.65223 163.692555 
L 295.559086 163.102713 
L 296.012514 163.099858 
L 296.465942 162.559653 
L 296.91937 162.293435 
L 297.372798 163.772316 
L 297.826227 164.709871 
L 298.279655 164.481953 
L 298.733083 163.211771 
L 299.186511 163.302978 
L 300.546795 162.234896 
L 301.000223 159.381364 
L 301.453652 160.507661 
L 301.90708 157.485535 
L 302.360508 158.75985 
L 302.813936 156.223181 
L 303.267364 154.639303 
L 303.720792 155.573199 
L 304.17422 153.630828 
L 304.627649 152.341121 
L 305.081077 152.066883 
L 305.534505 153.121264 
L 305.987933 153.677448 
L 307.348217 150.8289 
L 307.801646 151.483987 
L 308.255074 152.428045 
L 308.708502 152.611106 
L 309.16193 150.450595 
L 309.615358 149.645864 
L 310.068786 148.079693 
L 310.522214 147.693812 
L 310.975642 147.474472 
L 311.429071 147.638368 
L 311.882499 147.43178 
L 312.789355 145.280393 
L 313.242783 146.535549 
L 313.696211 142.559487 
L 314.149639 142.661755 
L 314.603068 142.176898 
L 315.056496 139.276968 
L 315.509924 138.406865 
L 315.963352 137.883883 
L 316.41678 137.887692 
L 316.870208 136.315511 
L 317.323636 136.208336 
L 317.777064 134.778936 
L 318.230493 133.722546 
L 318.683921 135.363307 
L 319.137349 136.42013 
L 320.044205 133.903376 
L 320.497633 135.137753 
L 320.951061 134.912054 
L 321.40449 135.449362 
L 321.857918 133.549688 
L 322.311346 132.886869 
L 322.764774 134.323089 
L 323.218202 132.261438 
L 323.67163 132.426396 
L 324.125058 131.838312 
L 324.578487 131.783696 
L 325.031915 131.610334 
L 325.485343 127.537925 
L 325.938771 127.419299 
L 326.392199 127.740703 
L 326.845627 128.725724 
L 327.752483 123.973321 
L 328.205912 121.876838 
L 328.65934 121.344714 
L 329.112768 121.527487 
L 329.566196 121.144857 
L 330.019624 119.062332 
L 330.473052 120.779694 
L 330.92648 118.951198 
L 331.379909 120.647991 
L 331.833337 119.431627 
L 332.286765 118.695339 
L 332.740193 118.633939 
L 333.193621 118.716892 
L 333.647049 117.13128 
L 334.100477 117.311438 
L 334.553906 119.027528 
L 335.007334 118.446049 
L 335.460762 119.149969 
L 335.91419 119.437674 
L 336.367618 117.238401 
L 336.821046 118.555557 
L 337.274474 118.909497 
L 337.727902 118.092127 
L 338.181331 117.592712 
L 338.634759 115.622677 
L 339.088187 116.038467 
L 339.541615 115.609696 
L 339.995043 115.75189 
L 340.448471 114.606278 
L 340.901899 114.105141 
L 341.355328 112.655089 
L 341.808756 112.021279 
L 342.262184 112.917318 
L 342.715612 113.183734 
L 343.16904 113.243671 
L 344.075896 111.181577 
L 344.529325 111.675923 
L 344.982753 110.172232 
L 345.436181 110.823036 
L 345.889609 110.541792 
L 346.343037 109.501723 
L 346.796465 109.755896 
L 347.249893 110.470374 
L 347.703321 110.144657 
L 348.15675 110.161681 
L 348.610178 107.459988 
L 349.517034 105.536476 
L 349.970462 105.854065 
L 350.42389 105.181613 
L 350.877318 102.943529 
L 351.330747 103.667515 
L 351.784175 100.455879 
L 352.237603 103.026128 
L 352.691031 100.898393 
L 353.144459 97.989806 
L 353.597887 98.840653 
L 354.051315 97.024532 
L 354.504744 95.799051 
L 354.958172 95.916285 
L 355.4116 94.996887 
L 355.865028 97.30174 
L 356.318456 95.381587 
L 356.771884 96.101572 
L 357.225312 96.523996 
L 358.585597 93.577955 
L 359.039025 96.03076 
L 359.492453 96.079905 
L 359.945881 94.995604 
L 360.399309 95.610021 
L 360.852737 97.099687 
L 361.306166 95.941125 
L 361.759594 93.245436 
L 362.213022 97.720595 
L 362.66645 96.5151 
L 363.119878 94.770229 
L 363.573306 96.233958 
L 364.026734 96.339717 
L 364.480163 93.94941 
L 364.933591 92.75902 
L 365.387019 90.576758 
L 365.840447 91.640953 
L 366.293875 90.834704 
L 366.747303 91.083377 
L 367.200731 91.766525 
L 367.654159 90.02208 
L 368.107588 89.306852 
L 368.561016 90.600086 
L 369.014444 90.277758 
L 369.467872 87.479316 
L 369.9213 86.863747 
L 370.374728 84.959196 
L 370.828156 88.086727 
L 371.281585 89.123977 
L 371.735013 88.104291 
L 372.188441 87.909286 
L 372.641869 88.069206 
L 373.095297 82.553036 
L 373.548725 86.240626 
L 374.002153 84.115698 
L 374.90901 85.190629 
L 375.362438 79.966231 
L 375.815866 79.298542 
L 376.269294 77.196972 
L 376.722722 77.113329 
L 377.17615 79.014256 
L 377.629578 76.392817 
L 378.083007 75.877524 
L 378.536435 74.523765 
L 378.989863 74.034188 
L 379.443291 72.496078 
L 379.896719 72.726041 
L 380.350147 76.455153 
L 380.803575 74.444201 
L 381.257004 73.170912 
L 381.710432 75.592537 
L 382.16386 74.253378 
L 382.617288 73.781976 
L 383.070716 71.848549 
L 383.977572 74.925717 
L 384.431001 74.587769 
L 384.884429 75.07022 
L 385.337857 74.917361 
L 385.791285 73.183743 
L 386.244713 75.188204 
L 386.698141 72.779974 
L 387.151569 71.928323 
L 387.604997 71.839096 
L 388.511854 68.840964 
L 388.965282 65.495503 
L 389.41871 67.777093 
L 389.872138 72.038557 
L 390.325566 67.238395 
L 390.778994 67.0129 
L 391.232423 70.234073 
L 392.139279 65.946768 
L 392.592707 65.889459 
L 393.046135 66.794538 
L 393.499563 66.757605 
L 393.952991 67.450698 
L 394.40642 59.302634 
L 394.859848 58.432796 
L 395.313276 58.675692 
L 395.766704 57.010438 
L 396.220132 56.464248 
L 396.67356 53.568 
L 397.126988 57.248092 
L 397.580416 58.68301 
L 398.033845 55.534767 
L 398.487273 81.430974 
L 398.487273 81.430974 
" clip-path="url(#p67f8a86ff2)" style="fill: none; stroke: #1f77b4; stroke-width: 1.5; stroke-linecap: square"/>
   </g>
   <g id="line2d_19">
    <path d="M 73.832727 294.681776 
L 75.64644 294.529378 
L 76.099868 294.656924 
L 86.075287 294.377305 
L 86.982143 294.367618 
L 89.249284 294.294886 
L 91.516425 294.369351 
L 92.876709 294.358884 
L 96.957562 294.331231 
L 98.317847 294.220619 
L 98.771275 294.32594 
L 99.678131 294.275445 
L 100.131559 294.060706 
L 102.852128 293.974664 
L 105.119269 293.98864 
L 107.839837 294.024217 
L 110.106978 294.025279 
L 111.920691 294.142231 
L 113.280975 294.151763 
L 116.001544 294.184778 
L 119.175541 294.292895 
L 120.082397 294.277191 
L 121.442682 294.088659 
L 123.256394 294.060322 
L 125.523535 293.995137 
L 130.964672 294.192936 
L 137.312666 293.697876 
L 138.219523 293.63524 
L 139.126379 293.565976 
L 140.033235 293.673739 
L 140.940091 293.687901 
L 141.846948 293.744545 
L 143.207232 293.782827 
L 144.114088 293.448958 
L 144.567517 293.413723 
L 145.927801 293.540734 
L 147.288085 293.467505 
L 147.741513 293.527802 
L 148.194942 293.380881 
L 150.462082 293.328527 
L 151.368939 293.141338 
L 151.822367 293.139125 
L 152.275795 293.258602 
L 158.623789 292.511295 
L 159.530645 292.386677 
L 159.984073 292.377313 
L 160.437501 292.220489 
L 161.344358 292.228671 
L 162.704642 291.774545 
L 164.518354 291.455936 
L 164.971783 291.593673 
L 166.785495 291.451647 
L 173.133489 290.282569 
L 173.586917 290.33391 
L 174.493773 290.040555 
L 175.40063 289.923903 
L 175.854058 289.655747 
L 177.214342 289.960955 
L 178.121199 289.750337 
L 178.574627 289.688427 
L 179.028055 289.427859 
L 179.481483 289.447372 
L 179.934911 289.254353 
L 181.295196 289.155726 
L 181.748624 288.880493 
L 183.108908 288.602182 
L 183.562336 288.605187 
L 184.015764 288.42888 
L 184.469192 288.410962 
L 186.282905 287.864262 
L 186.736333 287.7936 
L 187.643189 287.3232 
L 188.096618 287.481109 
L 189.003474 287.155608 
L 191.724043 285.867767 
L 192.177471 285.97977 
L 193.084327 285.808514 
L 194.444611 284.498076 
L 194.89804 284.183288 
L 195.351468 284.269828 
L 195.804896 284.100941 
L 197.16518 283.116982 
L 197.618608 282.950489 
L 198.525465 282.155595 
L 198.978893 282.046681 
L 199.432321 280.546505 
L 199.885749 280.68657 
L 200.339177 281.685945 
L 200.792605 281.577421 
L 201.699462 280.81057 
L 202.15289 281.503537 
L 202.606318 280.606274 
L 203.059746 280.551088 
L 203.513174 280.272195 
L 203.966602 279.619886 
L 204.42003 279.653033 
L 205.326887 278.65394 
L 205.780315 278.68407 
L 206.233743 278.460843 
L 206.687171 277.650438 
L 207.140599 277.924082 
L 207.594027 277.31069 
L 208.047456 277.494688 
L 208.500884 277.273254 
L 208.954312 277.363621 
L 209.40774 276.672483 
L 209.861168 276.699122 
L 210.314596 275.99402 
L 210.768024 276.116521 
L 211.674881 274.628306 
L 212.128309 274.333799 
L 212.581737 274.240139 
L 213.035165 273.898568 
L 213.488593 273.864713 
L 213.942021 273.995462 
L 214.395449 273.970664 
L 215.755734 273.482365 
L 216.209162 273.641348 
L 217.116018 273.230507 
L 217.569446 272.522195 
L 218.022875 270.932331 
L 218.476303 272.119086 
L 218.929731 272.509773 
L 219.383159 272.099627 
L 219.836587 272.337538 
L 220.290015 271.744002 
L 221.196872 270.976551 
L 221.6503 270.215729 
L 222.103728 269.738581 
L 222.557156 268.738996 
L 223.010584 265.780622 
L 223.464012 263.885735 
L 223.91744 266.692834 
L 224.370868 267.433087 
L 224.824297 267.453446 
L 225.277725 267.749314 
L 225.731153 267.728008 
L 226.184581 268.123979 
L 226.638009 267.306825 
L 227.091437 267.450512 
L 227.544865 265.924328 
L 227.998294 265.457952 
L 228.451722 265.723103 
L 229.358578 264.201189 
L 229.812006 264.613116 
L 230.265434 264.5734 
L 230.718862 264.082941 
L 231.172291 263.371079 
L 231.625719 263.000697 
L 232.079147 263.053196 
L 232.986003 260.846604 
L 233.439431 260.197582 
L 233.892859 259.848801 
L 234.346287 258.577503 
L 234.799716 258.137185 
L 236.16 255.573685 
L 236.613428 256.008904 
L 237.520284 255.580853 
L 238.427141 254.759002 
L 238.880569 255.116289 
L 239.787425 254.663219 
L 240.694281 253.529592 
L 242.054566 252.950133 
L 242.507994 252.95393 
L 242.961422 251.765394 
L 243.41485 251.645676 
L 243.868278 251.678248 
L 244.321706 251.069541 
L 245.228563 248.886296 
L 245.681991 248.055705 
L 246.135419 247.487218 
L 246.588847 244.743896 
L 247.042275 240.873443 
L 247.495703 246.61618 
L 247.949132 247.867557 
L 248.40256 247.518158 
L 248.855988 246.902025 
L 249.309416 246.985872 
L 249.762844 247.303191 
L 250.6697 246.006844 
L 251.123128 245.777162 
L 252.029985 244.936915 
L 252.483413 243.570799 
L 252.936841 243.253894 
L 253.390269 243.176447 
L 254.297125 241.967612 
L 254.750554 240.530696 
L 255.203982 239.635178 
L 255.65741 240.199556 
L 256.564266 238.434524 
L 257.017694 236.81081 
L 257.471122 236.338533 
L 257.924551 236.107556 
L 258.831407 233.503704 
L 259.284835 231.475855 
L 259.738263 232.363898 
L 260.191691 232.196505 
L 260.645119 231.176135 
L 261.098547 230.487457 
L 261.551976 230.311138 
L 262.005404 230.435816 
L 262.458832 231.843063 
L 262.91226 231.121513 
L 263.365688 231.444423 
L 263.819116 230.678382 
L 264.272544 230.761653 
L 264.725973 229.900056 
L 265.632829 227.490243 
L 266.086257 227.732293 
L 266.993113 224.323932 
L 267.446541 225.13156 
L 267.89997 224.503892 
L 268.353398 223.018467 
L 268.806826 222.908179 
L 269.260254 221.911233 
L 269.713682 221.343604 
L 270.16711 217.384283 
L 270.620538 208.248601 
L 271.073966 214.825234 
L 271.527395 218.331934 
L 271.980823 218.702369 
L 272.887679 218.316332 
L 273.341107 218.423488 
L 273.794535 218.374403 
L 274.247963 217.282903 
L 274.701392 217.010489 
L 275.15482 217.350494 
L 276.061676 216.073516 
L 276.968532 213.780714 
L 277.42196 211.26943 
L 277.875389 212.114243 
L 278.328817 211.989133 
L 278.782245 207.434638 
L 279.235673 208.433521 
L 280.142529 205.394708 
L 280.595957 202.470844 
L 281.049385 202.365469 
L 281.502814 201.965053 
L 282.40967 196.871997 
L 282.863098 196.534097 
L 283.316526 195.782093 
L 283.769954 195.414843 
L 284.676811 192.50823 
L 285.130239 192.259071 
L 285.583667 192.172999 
L 286.037095 193.447344 
L 286.490523 193.594115 
L 286.943951 194.675255 
L 287.397379 195.429389 
L 288.304236 196.0304 
L 288.757664 193.452593 
L 289.211092 192.802449 
L 289.66452 193.364673 
L 290.117948 192.217004 
L 290.571376 190.105314 
L 291.024804 191.943306 
L 291.478233 192.671904 
L 291.931661 190.497302 
L 292.385089 190.229825 
L 292.838517 189.005171 
L 293.291945 182.810598 
L 293.745373 185.291056 
L 294.198801 175.046538 
L 295.105658 187.21083 
L 295.559086 185.632423 
L 296.012514 187.290772 
L 296.465942 186.675179 
L 296.91937 186.572917 
L 297.372798 184.966845 
L 297.826227 187.678021 
L 298.279655 188.428826 
L 298.733083 187.725883 
L 299.186511 186.18613 
L 299.639939 185.661203 
L 300.093367 184.459296 
L 300.546795 184.375587 
L 301.000223 186.503065 
L 301.453652 185.287055 
L 301.90708 183.557846 
L 302.360508 181.127583 
L 302.813936 180.896516 
L 303.267364 179.891527 
L 303.720792 180.014291 
L 304.17422 177.427193 
L 304.627649 177.367514 
L 305.081077 175.58697 
L 305.534505 175.303518 
L 305.987933 174.760171 
L 306.441361 173.058939 
L 307.348217 173.072999 
L 308.255074 172.384638 
L 308.708502 173.407846 
L 309.16193 171.673226 
L 309.615358 170.749761 
L 310.068786 174.056382 
L 310.522214 174.220734 
L 310.975642 174.064282 
L 311.429071 174.164139 
L 311.882499 174.080784 
L 312.335927 172.425134 
L 312.789355 172.819953 
L 313.242783 173.488603 
L 313.696211 172.750623 
L 314.149639 169.363185 
L 314.603068 170.291568 
L 315.056496 169.828612 
L 315.509924 166.22761 
L 315.963352 167.989439 
L 317.323636 163.291245 
L 317.777064 148.602508 
L 318.230493 154.236709 
L 318.683921 162.710605 
L 319.137349 164.265852 
L 320.044205 162.763445 
L 320.497633 161.290023 
L 320.951061 162.391588 
L 321.40449 162.079014 
L 321.857918 163.238296 
L 322.311346 160.62117 
L 322.764774 162.932782 
L 323.67163 160.532428 
L 324.125058 160.498717 
L 324.578487 161.215852 
L 325.031915 158.215885 
L 325.485343 157.708624 
L 325.938771 155.196903 
L 326.392199 157.503585 
L 326.845627 158.970637 
L 327.299055 156.153251 
L 328.205912 148.296184 
L 328.65934 150.013342 
L 329.112768 148.598783 
L 329.566196 147.82624 
L 330.019624 145.991398 
L 330.473052 146.754325 
L 330.92648 146.967607 
L 331.379909 146.775896 
L 331.833337 146.165827 
L 332.286765 145.192845 
L 332.740193 142.477212 
L 333.193621 145.908379 
L 333.647049 146.879759 
L 334.100477 147.062503 
L 334.553906 148.606443 
L 335.007334 149.463265 
L 335.91419 149.145148 
L 336.367618 149.740436 
L 336.821046 149.396993 
L 337.274474 150.175685 
L 338.181331 147.033806 
L 338.634759 149.011322 
L 339.088187 148.339511 
L 339.541615 146.667407 
L 339.995043 146.852124 
L 340.448471 146.046818 
L 340.901899 143.539427 
L 341.355328 129.677393 
L 341.808756 129.308349 
L 342.262184 142.876746 
L 342.715612 144.779245 
L 343.16904 145.168749 
L 343.622468 143.859289 
L 344.075896 142.09073 
L 344.982753 140.108991 
L 345.436181 140.05287 
L 345.889609 140.710362 
L 346.343037 140.239356 
L 346.796465 129.659128 
L 347.249893 125.041439 
L 347.703321 123.24326 
L 348.15675 124.583954 
L 349.517034 119.885958 
L 349.970462 120.215711 
L 350.42389 122.703859 
L 350.877318 120.423798 
L 351.330747 119.553612 
L 351.784175 121.589427 
L 352.237603 122.708688 
L 353.144459 119.189163 
L 353.597887 115.8384 
L 354.051315 115.58494 
L 354.504744 113.76636 
L 354.958172 115.337161 
L 355.4116 115.12121 
L 355.865028 116.362516 
L 356.318456 115.173091 
L 356.771884 115.183007 
L 357.225312 116.231041 
L 357.67874 118.084329 
L 358.132169 117.198751 
L 358.585597 119.325221 
L 359.492453 119.475302 
L 359.945881 120.296031 
L 360.399309 118.800564 
L 360.852737 119.011644 
L 361.306166 117.829046 
L 361.759594 115.688606 
L 362.213022 118.129581 
L 362.66645 118.620814 
L 363.119878 118.382033 
L 363.573306 121.125218 
L 364.026734 118.827371 
L 364.480163 114.711617 
L 364.933591 109.537582 
L 365.387019 102.148282 
L 365.840447 108.505629 
L 366.293875 113.203421 
L 366.747303 112.385218 
L 367.200731 113.40584 
L 367.654159 112.14144 
L 368.561016 111.058806 
L 369.014444 111.219463 
L 369.467872 113.059956 
L 369.9213 112.60457 
L 370.374728 112.374547 
L 370.828156 110.211816 
L 371.281585 113.755395 
L 372.188441 110.418631 
L 372.641869 112.934426 
L 373.095297 111.473037 
L 373.548725 107.67027 
L 374.002153 108.043885 
L 374.455582 105.782257 
L 374.90901 104.457027 
L 375.362438 106.537705 
L 375.815866 106.958378 
L 376.722722 98.637863 
L 377.17615 98.496209 
L 377.629578 98.084582 
L 378.083007 97.241857 
L 378.536435 94.182385 
L 378.989863 95.796483 
L 379.443291 94.269453 
L 379.896719 94.386423 
L 380.350147 95.770024 
L 380.803575 99.154943 
L 381.257004 99.939819 
L 381.710432 99.996175 
L 382.16386 101.694204 
L 382.617288 99.227789 
L 383.524144 100.546042 
L 383.977572 100.853494 
L 384.431001 100.601504 
L 384.884429 100.104009 
L 385.337857 102.778823 
L 385.791285 101.548123 
L 386.244713 102.136639 
L 386.698141 100.387821 
L 387.151569 101.599782 
L 388.058426 98.616952 
L 388.511854 92.671568 
L 388.965282 78.75 
L 389.41871 86.777183 
L 389.872138 92.666265 
L 390.325566 93.048392 
L 390.778994 94.999281 
L 391.232423 93.152975 
L 391.685851 96.264682 
L 392.139279 95.16533 
L 392.592707 91.299748 
L 393.046135 93.41656 
L 393.499563 93.409308 
L 393.952991 96.003869 
L 394.40642 91.602449 
L 394.859848 84.153248 
L 395.313276 84.329531 
L 395.766704 96.06104 
L 396.220132 82.89111 
L 397.126988 78.988109 
L 397.580416 83.147322 
L 398.033845 82.946602 
L 398.487273 81.430974 
L 398.487273 81.430974 
" clip-path="url(#p67f8a86ff2)" style="fill: none; stroke: #ff7f0e; stroke-width: 1.5; stroke-linecap: square"/>
   </g>
   <g id="line2d_20">
    <path d="M 73.832727 295.201345 
L 76.553296 295.254929 
L 77.91358 295.214932 
L 82.90129 295.103162 
L 83.354718 295.213708 
L 83.808146 295.153903 
L 84.261574 295.212916 
L 84.715003 295.101099 
L 97.41099 295.172348 
L 97.864418 295.1258 
L 98.317847 295.232921 
L 99.678131 294.895897 
L 100.131559 295.111284 
L 104.212412 295.170303 
L 104.665841 295.264467 
L 106.026125 295.119904 
L 107.386409 295.158132 
L 110.560406 295.169331 
L 111.013834 295.317314 
L 112.374119 295.219053 
L 113.280975 295.132483 
L 114.187831 295.275576 
L 114.64126 295.295347 
L 115.094688 295.185671 
L 116.001544 295.319821 
L 116.9084 295.339478 
L 118.268685 295.344133 
L 121.89611 295.260022 
L 123.256394 295.191712 
L 124.16325 295.221512 
L 124.616679 295.294981 
L 125.523535 295.256987 
L 126.430391 295.257761 
L 127.337247 295.26881 
L 127.790675 295.375529 
L 130.964672 295.265091 
L 133.685241 295.264587 
L 134.138669 295.172924 
L 135.045526 295.342129 
L 135.952382 295.259914 
L 136.40581 295.394502 
L 136.859238 295.240341 
L 137.312666 295.338872 
L 137.766094 295.216827 
L 139.126379 295.302455 
L 139.579807 295.24589 
L 140.033235 295.374077 
L 140.940091 295.337846 
L 141.39352 295.238062 
L 142.300376 295.404621 
L 143.66066 295.247179 
L 144.114088 295.35277 
L 145.020945 295.196912 
L 145.474373 295.170573 
L 145.927801 295.317062 
L 146.381229 295.318543 
L 146.834657 295.184675 
L 148.194942 295.364605 
L 148.64837 295.203229 
L 150.008654 295.180446 
L 150.462082 295.020101 
L 151.822367 295.310127 
L 152.729223 295.018878 
L 153.182651 295.115585 
L 153.636079 294.984242 
L 154.996364 295.013101 
L 155.449792 295.040346 
L 155.90322 295.217595 
L 156.356648 295.112694 
L 156.810076 295.126166 
L 157.263504 294.763817 
L 157.716932 294.998987 
L 158.170361 294.889197 
L 159.530645 295.099707 
L 159.984073 294.938762 
L 160.437501 294.991962 
L 161.344358 294.736068 
L 161.797786 294.79616 
L 162.251214 294.689658 
L 162.704642 294.703064 
L 163.15807 294.864153 
L 163.611498 294.833651 
L 164.064926 294.688056 
L 164.518354 294.963656 
L 167.692351 294.695704 
L 168.599208 294.64738 
L 169.052636 294.67087 
L 169.506064 294.428868 
L 169.959492 294.367426 
L 170.866348 294.571188 
L 171.773205 294.521616 
L 172.226633 294.816489 
L 174.040345 294.455069 
L 175.40063 294.495643 
L 175.854058 294.802477 
L 177.214342 294.28812 
L 178.121199 294.380226 
L 178.574627 294.312804 
L 179.028055 294.564841 
L 179.481483 294.318952 
L 180.388339 294.630627 
L 181.748624 294.200158 
L 183.108908 294.31191 
L 183.562336 294.072223 
L 184.015764 294.226864 
L 184.922621 293.885671 
L 185.376049 294.055541 
L 185.829477 293.935056 
L 186.282905 294.014998 
L 187.189761 293.960435 
L 187.643189 294.014104 
L 188.550046 293.829993 
L 189.003474 293.963885 
L 190.363758 293.771172 
L 190.817186 293.995569 
L 191.724043 293.822849 
L 192.177471 293.50496 
L 192.630899 293.359959 
L 193.084327 293.00801 
L 193.991183 292.958181 
L 194.444611 292.666997 
L 194.89804 293.244824 
L 195.351468 293.203788 
L 195.804896 292.872289 
L 196.258324 292.812058 
L 196.711752 292.361267 
L 197.16518 292.599556 
L 197.618608 291.97301 
L 198.525465 292.520521 
L 198.978893 292.404696 
L 199.432321 293.601751 
L 199.885749 293.516699 
L 200.339177 292.186166 
L 200.792605 292.040043 
L 201.246034 292.092056 
L 201.699462 292.342756 
L 202.15289 291.309627 
L 202.606318 292.176202 
L 203.059746 292.181475 
L 203.513174 291.68978 
L 203.966602 292.331935 
L 204.42003 291.451581 
L 204.873459 291.583374 
L 205.326887 292.073994 
L 205.780315 292.107712 
L 206.233743 292.017267 
L 206.687171 292.344489 
L 207.140599 291.797933 
L 207.594027 292.121772 
L 208.047456 291.434947 
L 208.500884 291.964666 
L 208.954312 291.65238 
L 209.40774 292.095541 
L 209.861168 291.875499 
L 210.314596 292.257338 
L 211.221453 291.134286 
L 211.674881 292.043588 
L 212.128309 291.89599 
L 212.581737 291.413839 
L 213.035165 291.711705 
L 213.488593 292.185614 
L 213.942021 291.697051 
L 214.395449 291.415284 
L 214.848878 291.277446 
L 215.302306 290.676261 
L 215.755734 290.967067 
L 216.209162 290.78076 
L 216.66259 290.264112 
L 217.116018 290.406 
L 217.569446 287.220386 
L 218.022875 291.372251 
L 218.476303 291.711723 
L 218.929731 290.579427 
L 219.383159 290.575145 
L 220.290015 289.888614 
L 220.743443 289.938215 
L 221.196872 289.617459 
L 221.6503 289.76231 
L 222.557156 289.088706 
L 223.010584 291.258112 
L 223.464012 292.081858 
L 223.91744 288.567552 
L 224.370868 288.956739 
L 225.277725 288.498936 
L 225.731153 288.702698 
L 226.184581 288.647416 
L 226.638009 289.334589 
L 227.091437 286.700079 
L 227.544865 288.59469 
L 227.998294 288.585842 
L 228.451722 287.815932 
L 228.90515 288.215766 
L 229.358578 288.828672 
L 229.812006 288.44234 
L 230.265434 288.534129 
L 230.718862 287.14174 
L 231.172291 287.785028 
L 231.625719 287.327051 
L 232.079147 286.617012 
L 232.532575 288.257785 
L 232.986003 287.011009 
L 233.439431 288.208208 
L 233.892859 286.991394 
L 234.346287 287.513003 
L 234.799716 286.827636 
L 235.253144 288.494161 
L 235.706572 288.133257 
L 236.16 287.018723 
L 237.066856 288.027366 
L 237.520284 287.675736 
L 237.973713 286.352215 
L 238.427141 287.196668 
L 238.880569 285.249031 
L 239.333997 285.859423 
L 239.787425 284.871721 
L 240.694281 283.97054 
L 241.601138 284.141293 
L 242.054566 284.208854 
L 242.507994 282.950393 
L 242.961422 284.291609 
L 243.41485 283.940662 
L 243.868278 282.664577 
L 244.321706 282.957675 
L 244.775135 282.670456 
L 245.228563 282.797318 
L 246.135419 284.263026 
L 246.588847 286.399849 
L 247.042275 287.686641 
L 247.495703 282.682663 
L 247.949132 282.208016 
L 248.40256 282.266297 
L 248.855988 282.803694 
L 249.309416 282.711348 
L 249.762844 282.445357 
L 250.6697 283.429976 
L 251.123128 282.206 
L 251.576557 282.499014 
L 252.029985 281.68826 
L 252.483413 283.050753 
L 252.936841 283.17182 
L 253.390269 281.946225 
L 254.297125 280.770956 
L 254.750554 280.036186 
L 255.203982 282.414747 
L 255.65741 281.228766 
L 256.110838 280.854809 
L 256.564266 281.99495 
L 257.017694 280.875552 
L 257.471122 281.750279 
L 257.924551 281.644903 
L 258.377979 281.118766 
L 258.831407 282.316594 
L 259.284835 282.917731 
L 259.738263 282.373214 
L 260.191691 281.412151 
L 260.645119 281.833051 
L 261.098547 282.840207 
L 261.551976 282.243833 
L 262.458832 279.891808 
L 262.91226 280.04165 
L 263.365688 277.821742 
L 264.272544 277.785421 
L 264.725973 276.428657 
L 265.179401 277.973719 
L 265.632829 277.745652 
L 266.086257 276.34874 
L 266.539685 275.608894 
L 266.993113 277.381125 
L 267.446541 275.820352 
L 268.353398 275.542863 
L 269.260254 276.175996 
L 269.713682 274.117063 
L 270.16711 277.154844 
L 270.620538 281.935805 
L 271.527395 274.170431 
L 271.980823 274.475201 
L 272.434251 273.840893 
L 272.887679 274.702807 
L 273.341107 275.248908 
L 273.794535 275.041283 
L 274.247963 275.003985 
L 274.701392 275.615877 
L 275.15482 274.609153 
L 275.608248 274.497714 
L 276.061676 273.923906 
L 276.515104 275.051175 
L 276.968532 275.222503 
L 277.42196 274.837995 
L 277.875389 274.901873 
L 278.328817 271.143741 
L 278.782245 275.998831 
L 279.235673 272.889164 
L 279.689101 272.944908 
L 280.142529 273.843628 
L 280.595957 276.227181 
L 281.049385 275.263382 
L 281.502814 273.70558 
L 281.956242 273.124148 
L 282.40967 276.385366 
L 282.863098 275.779617 
L 283.316526 275.789976 
L 283.769954 274.772696 
L 284.223382 275.825535 
L 284.676811 276.467318 
L 285.130239 276.739366 
L 285.583667 277.158611 
L 286.037095 274.740208 
L 286.490523 272.990034 
L 286.943951 273.345324 
L 287.397379 272.618915 
L 287.850808 273.65578 
L 288.304236 271.897125 
L 288.757664 272.297565 
L 289.211092 273.22671 
L 289.66452 271.724477 
L 290.117948 272.323856 
L 290.571376 273.888791 
L 291.024804 271.650948 
L 291.478233 270.442838 
L 291.931661 271.998901 
L 292.385089 272.147435 
L 292.838517 289.293427 
L 293.291945 277.545441 
L 293.745373 274.203789 
L 294.198801 280.097304 
L 294.65223 278.580735 
L 295.105658 271.638345 
L 295.559086 272.95829 
L 296.012514 271.297086 
L 296.465942 271.372475 
L 296.91937 271.208518 
L 297.372798 274.293472 
L 297.826227 272.51985 
L 298.279655 271.541128 
L 298.733083 270.973888 
L 299.186511 272.604848 
L 299.639939 272.788048 
L 300.093367 273.610792 
L 300.546795 273.347309 
L 301.000223 268.366299 
L 301.453652 270.708606 
L 301.90708 269.415689 
L 302.360508 273.120267 
L 302.813936 270.814665 
L 303.267364 270.235776 
L 304.17422 271.691635 
L 304.627649 270.461607 
L 305.534505 273.305746 
L 305.987933 274.405277 
L 306.441361 275.156976 
L 307.348217 273.243901 
L 308.255074 275.531406 
L 308.708502 274.69126 
L 309.16193 274.265369 
L 309.615358 274.384103 
L 310.068786 269.511311 
L 310.522214 268.961077 
L 310.975642 268.898189 
L 311.429071 268.962229 
L 311.882499 268.838996 
L 312.335927 269.428046 
L 312.789355 267.948439 
L 313.242783 268.534946 
L 313.696211 265.296864 
L 314.149639 268.78657 
L 314.603068 267.37333 
L 315.056496 264.936355 
L 315.509924 267.667255 
L 315.963352 265.382444 
L 316.41678 266.88803 
L 316.870208 266.93609 
L 317.323636 268.405091 
L 317.777064 281.664428 
L 318.683921 268.140702 
L 319.137349 267.642278 
L 319.590777 267.34368 
L 320.044205 266.62793 
L 320.497633 269.33573 
L 320.951061 268.008466 
L 321.40449 268.858348 
L 321.857918 265.799391 
L 322.311346 267.753699 
L 323.218202 266.166828 
L 323.67163 267.381968 
L 324.125058 266.827595 
L 324.578487 266.055844 
L 325.031915 268.882449 
L 325.485343 265.3173 
L 325.938771 267.710396 
L 326.392199 265.725118 
L 326.845627 265.243087 
L 327.299055 265.355067 
L 328.205912 269.068654 
L 328.65934 266.819371 
L 329.112768 268.416704 
L 329.566196 268.806617 
L 330.019624 268.558934 
L 330.473052 269.513369 
L 330.92648 267.471591 
L 331.379909 269.360096 
L 331.833337 268.7538 
L 332.286765 268.990494 
L 332.740193 271.644727 
L 333.647049 265.739521 
L 334.100477 265.736935 
L 334.553906 265.909085 
L 335.007334 264.470784 
L 335.460762 265.317816 
L 335.91419 265.780526 
L 336.367618 262.985965 
L 336.821046 264.646563 
L 337.274474 264.221812 
L 338.181331 266.046906 
L 338.634759 262.099355 
L 339.541615 264.430288 
L 339.995043 264.387765 
L 340.448471 264.04746 
L 340.901899 266.053715 
L 341.355328 278.465696 
L 341.808756 278.20093 
L 342.262184 265.528572 
L 342.715612 263.89249 
L 343.16904 263.562922 
L 343.622468 263.933675 
L 344.075896 264.578847 
L 344.529325 266.198512 
L 344.982753 265.551241 
L 345.436181 266.258166 
L 345.889609 265.31943 
L 346.343037 264.750367 
L 346.796465 275.584769 
L 347.249893 280.916935 
L 347.703321 282.389398 
L 348.610178 279.819455 
L 349.517034 281.138519 
L 349.970462 281.126354 
L 350.42389 277.965753 
L 350.877318 278.007731 
L 351.330747 279.601902 
L 351.784175 274.354452 
L 352.237603 275.80544 
L 352.691031 275.334314 
L 353.144459 274.288643 
L 353.597887 278.490254 
L 354.051315 276.927592 
L 354.504744 277.520691 
L 354.958172 276.067124 
L 355.4116 275.363677 
L 355.865028 276.427224 
L 356.318456 275.696496 
L 356.771884 276.406565 
L 357.225312 275.780955 
L 357.67874 273.009811 
L 358.132169 273.111581 
L 358.585597 269.740735 
L 359.039025 272.075255 
L 359.492453 272.092603 
L 359.945881 270.187573 
L 360.399309 272.297457 
L 360.852737 273.576043 
L 361.306166 273.600079 
L 361.759594 273.04483 
L 362.213022 275.079013 
L 363.119878 271.876196 
L 363.573306 270.59674 
L 364.026734 273.000345 
L 364.480163 274.725794 
L 364.933591 278.709438 
L 365.387019 283.916476 
L 366.293875 273.119283 
L 366.747303 274.186159 
L 367.200731 273.848685 
L 367.654159 273.36864 
L 368.107588 273.27369 
L 368.561016 275.02928 
L 369.014444 274.546295 
L 369.467872 269.90736 
L 369.9213 269.747177 
L 370.374728 268.07265 
L 370.828156 273.362911 
L 371.281585 270.856582 
L 371.735013 271.716733 
L 372.188441 272.978655 
L 372.641869 270.62278 
L 373.095297 266.567999 
L 373.548725 274.058356 
L 374.002153 271.559813 
L 374.455582 274.334945 
L 374.90901 276.221602 
L 375.362438 268.916527 
L 375.815866 267.828164 
L 376.269294 269.824875 
L 376.722722 273.963466 
L 377.17615 276.006047 
L 377.629578 273.796235 
L 378.083007 274.123667 
L 378.536435 275.82938 
L 378.989863 273.725705 
L 379.443291 273.714625 
L 379.896719 273.827619 
L 380.350147 276.173129 
L 380.803575 270.777258 
L 381.257004 268.719093 
L 381.710432 271.084362 
L 382.16386 268.047174 
L 382.617288 270.042188 
L 383.070716 267.472965 
L 383.977572 269.560223 
L 384.431001 269.474264 
L 384.884429 270.454211 
L 385.337857 267.626538 
L 385.791285 267.12362 
L 386.244713 268.539565 
L 386.698141 267.880153 
L 387.151569 265.816541 
L 387.604997 267.321473 
L 388.058426 267.301732 
L 388.511854 271.657396 
L 388.965282 282.233503 
L 389.41871 276.48791 
L 389.872138 274.860291 
L 390.325566 269.678003 
L 390.778994 267.501619 
L 391.232423 272.569097 
L 391.685851 267.306945 
L 392.139279 266.269438 
L 392.592707 270.077711 
L 393.046135 268.865978 
L 393.499563 268.836297 
L 393.952991 266.93483 
L 394.40642 263.188185 
L 394.859848 269.767548 
L 395.313276 269.834161 
L 395.766704 256.437398 
L 396.220132 269.061138 
L 396.67356 267.900302 
L 397.126988 273.747983 
L 398.033845 268.076165 
L 398.487273 295.488 
L 398.487273 295.488 
" clip-path="url(#p67f8a86ff2)" style="fill: none; stroke: #2ca02c; stroke-width: 1.5; stroke-linecap: square"/>
   </g>
   <g id="patch_3">
    <path d="M 57.6 307.584 
L 57.6 41.472 
" style="fill: none; stroke: #000000; stroke-width: 0.8; stroke-linejoin: miter; stroke-linecap: square"/>
   </g>
   <g id="patch_4">
    <path d="M 414.72 307.584 
L 414.72 41.472 
" style="fill: none; stroke: #000000; stroke-width: 0.8; stroke-linejoin: miter; stroke-linecap: square"/>
   </g>
   <g id="patch_5">
    <path d="M 57.6 307.584 
L 414.72 307.584 
" style="fill: none; stroke: #000000; stroke-width: 0.8; stroke-linejoin: miter; stroke-linecap: square"/>
   </g>
   <g id="patch_6">
    <path d="M 57.6 41.472 
L 414.72 41.472 
" style="fill: none; stroke: #000000; stroke-width: 0.8; stroke-linejoin: miter; stroke-linecap: square"/>
   </g>
   <g id="legend_1">
    <g id="patch_7">
     <path d="M 64.6 93.506375 
L 186.25625 93.506375 
Q 188.25625 93.506375 188.25625 91.506375 
L 188.25625 48.472 
Q 188.25625 46.472 186.25625 46.472 
L 64.6 46.472 
Q 62.6 46.472 62.6 48.472 
L 62.6 91.506375 
Q 62.6 93.506375 64.6 93.506375 
z
" style="fill: #ffffff; opacity: 0.8; stroke: #cccccc; stroke-linejoin: miter"/>
    </g>
    <g id="line2d_21">
     <path d="M 66.6 54.570438 
L 76.6 54.570438 
L 86.6 54.570438 
" style="fill: none; stroke: #1f77b4; stroke-width: 1.5; stroke-linecap: square"/>
    </g>
    <g id="text_20">
     <!-- Weekly maximum -->
     <g transform="translate(94.6 58.070438)scale(0.1 -0.1)">
      <defs>
       <path id="DejaVuSans-57" d="M 213 4666 
L 850 4666 
L 1831 722 
L 2809 4666 
L 3519 4666 
L 4500 722 
L 5478 4666 
L 6119 4666 
L 4947 0 
L 4153 0 
L 3169 4050 
L 2175 0 
L 1381 0 
L 213 4666 
z
" transform="scale(0.015625)"/>
       <path id="DejaVuSans-6b" d="M 581 4863 
L 1159 4863 
L 1159 1991 
L 2875 3500 
L 3609 3500 
L 1753 1863 
L 3688 0 
L 2938 0 
L 1159 1709 
L 1159 0 
L 581 0 
L 581 4863 
z
" transform="scale(0.015625)"/>
       <path id="DejaVuSans-79" d="M 2059 -325 
Q 1816 -950 1584 -1140 
Q 1353 -1331 966 -1331 
L 506 -1331 
L 506 -850 
L 844 -850 
Q 1081 -850 1212 -737 
Q 1344 -625 1503 -206 
L 1606 56 
L 191 3500 
L 800 3500 
L 1894 763 
L 2988 3500 
L 3597 3500 
L 2059 -325 
z
" transform="scale(0.015625)"/>
       <path id="DejaVuSans-6d" d="M 3328 2828 
Q 3544 3216 3844 3400 
Q 4144 3584 4550 3584 
Q 5097 3584 5394 3201 
Q 5691 2819 5691 2113 
L 5691 0 
L 5113 0 
L 5113 2094 
Q 5113 2597 4934 2840 
Q 4756 3084 4391 3084 
Q 3944 3084 3684 2787 
Q 3425 2491 3425 1978 
L 3425 0 
L 2847 0 
L 2847 2094 
Q 2847 2600 2669 2842 
Q 2491 3084 2119 3084 
Q 1678 3084 1418 2786 
Q 1159 2488 1159 1978 
L 1159 0 
L 581 0 
L 581 3500 
L 1159 3500 
L 1159 2956 
Q 1356 3278 1631 3431 
Q 1906 3584 2284 3584 
Q 2666 3584 2933 3390 
Q 3200 3197 3328 2828 
z
" transform="scale(0.015625)"/>
       <path id="DejaVuSans-78" d="M 3513 3500 
L 2247 1797 
L 3578 0 
L 2900 0 
L 1881 1375 
L 863 0 
L 184 0 
L 1544 1831 
L 300 3500 
L 978 3500 
L 1906 2253 
L 2834 3500 
L 3513 3500 
z
" transform="scale(0.015625)"/>
       <path id="DejaVuSans-75" d="M 544 1381 
L 544 3500 
L 1119 3500 
L 1119 1403 
Q 1119 906 1312 657 
Q 1506 409 1894 409 
Q 2359 409 2629 706 
Q 2900 1003 2900 1516 
L 2900 3500 
L 3475 3500 
L 3475 0 
L 2900 0 
L 2900 538 
Q 2691 219 2414 64 
Q 2138 -91 1772 -91 
Q 1169 -91 856 284 
Q 544 659 544 1381 
z
M 1991 3584 
L 1991 3584 
z
" transform="scale(0.015625)"/>
      </defs>
      <use xlink:href="#DejaVuSans-57"/>
      <use xlink:href="#DejaVuSans-65" x="93.001953"/>
      <use xlink:href="#DejaVuSans-65" x="154.525391"/>
      <use xlink:href="#DejaVuSans-6b" x="216.048828"/>
      <use xlink:href="#DejaVuSans-6c" x="273.958984"/>
      <use xlink:href="#DejaVuSans-79" x="301.742188"/>
      <use xlink:href="#DejaVuSans-20" x="360.921875"/>
      <use xlink:href="#DejaVuSans-6d" x="392.708984"/>
      <use xlink:href="#DejaVuSans-61" x="490.121094"/>
      <use xlink:href="#DejaVuSans-78" x="551.400391"/>
      <use xlink:href="#DejaVuSans-69" x="610.580078"/>
      <use xlink:href="#DejaVuSans-6d" x="638.363281"/>
      <use xlink:href="#DejaVuSans-75" x="735.775391"/>
      <use xlink:href="#DejaVuSans-6d" x="799.154297"/>
     </g>
    </g>
    <g id="line2d_22">
     <path d="M 66.6 69.248563 
L 76.6 69.248563 
L 86.6 69.248563 
" style="fill: none; stroke: #ff7f0e; stroke-width: 1.5; stroke-linecap: square"/>
    </g>
    <g id="text_21">
     <!-- Weekly minimum -->
     <g transform="translate(94.6 72.748563)scale(0.1 -0.1)">
      <defs>
       <path id="DejaVuSans-6e" d="M 3513 2113 
L 3513 0 
L 2938 0 
L 2938 2094 
Q 2938 2591 2744 2837 
Q 2550 3084 2163 3084 
Q 1697 3084 1428 2787 
Q 1159 2491 1159 1978 
L 1159 0 
L 581 0 
L 581 3500 
L 1159 3500 
L 1159 2956 
Q 1366 3272 1645 3428 
Q 1925 3584 2291 3584 
Q 2894 3584 3203 3211 
Q 3513 2838 3513 2113 
z
" transform="scale(0.015625)"/>
      </defs>
      <use xlink:href="#DejaVuSans-57"/>
      <use xlink:href="#DejaVuSans-65" x="93.001953"/>
      <use xlink:href="#DejaVuSans-65" x="154.525391"/>
      <use xlink:href="#DejaVuSans-6b" x="216.048828"/>
      <use xlink:href="#DejaVuSans-6c" x="273.958984"/>
      <use xlink:href="#DejaVuSans-79" x="301.742188"/>
      <use xlink:href="#DejaVuSans-20" x="360.921875"/>
      <use xlink:href="#DejaVuSans-6d" x="392.708984"/>
      <use xlink:href="#DejaVuSans-69" x="490.121094"/>
      <use xlink:href="#DejaVuSans-6e" x="517.904297"/>
      <use xlink:href="#DejaVuSans-69" x="581.283203"/>
      <use xlink:href="#DejaVuSans-6d" x="609.066406"/>
      <use xlink:href="#DejaVuSans-75" x="706.478516"/>
      <use xlink:href="#DejaVuSans-6d" x="769.857422"/>
     </g>
    </g>
    <g id="line2d_23">
     <path d="M 66.6 83.926688 
L 76.6 83.926688 
L 86.6 83.926688 
" style="fill: none; stroke: #2ca02c; stroke-width: 1.5; stroke-linecap: square"/>
    </g>
    <g id="text_22">
     <!-- Weekly range -->
     <g transform="translate(94.6 87.426688)scale(0.1 -0.1)">
      <use xlink:href="#DejaVuSans-57"/>
      <use xlink:href="#DejaVuSans-65" x="93.001953"/>
      <use xlink:href="#DejaVuSans-65" x="154.525391"/>
      <use xlink:href="#DejaVuSans-6b" x="216.048828"/>
      <use xlink:href="#DejaVuSans-6c" x="273.958984"/>
      <use xlink:href="#DejaVuSans-79" x="301.742188"/>
      <use xlink:href="#DejaVuSans-20" x="360.921875"/>
      <use xlink:href="#DejaVuSans-72" x="392.708984"/>
      <use xlink:href="#DejaVuSans-61" x="433.822266"/>
      <use xlink:href="#DejaVuSans-6e" x="495.101562"/>
      <use xlink:href="#DejaVuSans-67" x="558.480469"/>
      <use xlink:href="#DejaVuSans-65" x="621.957031"/>
     </g>
    </g>
   </g>
  </g>
 </g>
 <defs>
  <clipPath id="p67f8a86ff2">
   <rect x="57.6" y="41.472" width="357.12" height="266.112"/>
  </clipPath>
 </defs>
</svg>
