<?xml version="1.0" encoding="utf-8" standalone="no"?>
<!DOCTYPE svg PUBLIC "-//W3C//DTD SVG 1.1//EN"
  "http://www.w3.org/Graphics/SVG/1.1/DTD/svg11.dtd">
<svg xmlns:xlink="http://www.w3.org/1999/xlink" width="460.8pt" height="345.6pt" viewBox="0 0 460.8 345.6" xmlns="http://www.w3.org/2000/svg" version="1.1">
 <metadata>
  <rdf:RDF xmlns:dc="http://purl.org/dc/elements/1.1/" xmlns:cc="http://creativecommons.org/ns#" xmlns:rdf="http://www.w3.org/1999/02/22-rdf-syntax-ns#">
   <cc:Work>
    <dc:type rdf:resource="http://purl.org/dc/dcmitype/StillImage"/>
    <dc:date>2023-02-22T05:31:39.458458</dc:date>
    <dc:format>image/svg+xml</dc:format>
    <dc:creator>
     <cc:Agent>
      <dc:title>Matplotlib v3.7.0, https://matplotlib.org/</dc:title>
     </cc:Agent>
    </dc:creator>
   </cc:Work>
  </rdf:RDF>
 </metadata>
 <defs>
  <style type="text/css">*{stroke-linejoin: round; stroke-linecap: butt}</style>
 </defs>
 <g id="figure_1">
  <g id="patch_1">
   <path d="M 0 345.6 
L 460.8 345.6 
L 460.8 0 
L 0 0 
z
" style="fill: #ffffff"/>
  </g>
  <g id="axes_1">
   <g id="patch_2">
    <path d="M 57.6 307.584 
L 414.72 307.584 
L 414.72 41.472 
L 57.6 41.472 
z
" style="fill: #ffffff"/>
   </g>
   <g id="matplotlib.axis_1">
    <g id="xtick_1">
     <g id="line2d_1">
      <defs>
       <path id="m692cc2f54d" d="M 0 0 
L 0 3.5 
" style="stroke: #000000; stroke-width: 0.8"/>
      </defs>
      <g>
       <use xlink:href="#m692cc2f54d" x="58.843946" y="307.584" style="stroke: #000000; stroke-width: 0.8"/>
      </g>
     </g>
     <g id="text_1">
      <!-- 2008 -->
      <g transform="translate(46.118946 322.182437) scale(0.1 -0.1)">
       <defs>
        <path id="DejaVuSans-32" d="M 1228 531 
L 3431 531 
L 3431 0 
L 469 0 
L 469 531 
Q 828 903 1448 1529 
Q 2069 2156 2228 2338 
Q 2531 2678 2651 2914 
Q 2772 3150 2772 3378 
Q 2772 3750 2511 3984 
Q 2250 4219 1831 4219 
Q 1534 4219 1204 4116 
Q 875 4013 500 3803 
L 500 4441 
Q 881 4594 1212 4672 
Q 1544 4750 1819 4750 
Q 2544 4750 2975 4387 
Q 3406 4025 3406 3419 
Q 3406 3131 3298 2873 
Q 3191 2616 2906 2266 
Q 2828 2175 2409 1742 
Q 1991 1309 1228 531 
z
" transform="scale(0.015625)"/>
        <path id="DejaVuSans-30" d="M 2034 4250 
Q 1547 4250 1301 3770 
Q 1056 3291 1056 2328 
Q 1056 1369 1301 889 
Q 1547 409 2034 409 
Q 2525 409 2770 889 
Q 3016 1369 3016 2328 
Q 3016 3291 2770 3770 
Q 2525 4250 2034 4250 
z
M 2034 4750 
Q 2819 4750 3233 4129 
Q 3647 3509 3647 2328 
Q 3647 1150 3233 529 
Q 2819 -91 2034 -91 
Q 1250 -91 836 529 
Q 422 1150 422 2328 
Q 422 3509 836 4129 
Q 1250 4750 2034 4750 
z
" transform="scale(0.015625)"/>
        <path id="DejaVuSans-38" d="M 2034 2216 
Q 1584 2216 1326 1975 
Q 1069 1734 1069 1313 
Q 1069 891 1326 650 
Q 1584 409 2034 409 
Q 2484 409 2743 651 
Q 3003 894 3003 1313 
Q 3003 1734 2745 1975 
Q 2488 2216 2034 2216 
z
M 1403 2484 
Q 997 2584 770 2862 
Q 544 3141 544 3541 
Q 544 4100 942 4425 
Q 1341 4750 2034 4750 
Q 2731 4750 3128 4425 
Q 3525 4100 3525 3541 
Q 3525 3141 3298 2862 
Q 3072 2584 2669 2484 
Q 3125 2378 3379 2068 
Q 3634 1759 3634 1313 
Q 3634 634 3220 271 
Q 2806 -91 2034 -91 
Q 1263 -91 848 271 
Q 434 634 434 1313 
Q 434 1759 690 2068 
Q 947 2378 1403 2484 
z
M 1172 3481 
Q 1172 3119 1398 2916 
Q 1625 2713 2034 2713 
Q 2441 2713 2670 2916 
Q 2900 3119 2900 3481 
Q 2900 3844 2670 4047 
Q 2441 4250 2034 4250 
Q 1625 4250 1398 4047 
Q 1172 3844 1172 3481 
z
" transform="scale(0.015625)"/>
       </defs>
       <use xlink:href="#DejaVuSans-32"/>
       <use xlink:href="#DejaVuSans-30" x="63.623047"/>
       <use xlink:href="#DejaVuSans-30" x="127.246094"/>
       <use xlink:href="#DejaVuSans-38" x="190.869141"/>
      </g>
     </g>
    </g>
    <g id="xtick_2">
     <g id="line2d_2">
      <g>
       <use xlink:href="#m692cc2f54d" x="103.74886" y="307.584" style="stroke: #000000; stroke-width: 0.8"/>
      </g>
     </g>
     <g id="text_2">
      <!-- 2010 -->
      <g transform="translate(91.02386 322.182437) scale(0.1 -0.1)">
       <defs>
        <path id="DejaVuSans-31" d="M 794 531 
L 1825 531 
L 1825 4091 
L 703 3866 
L 703 4441 
L 1819 4666 
L 2450 4666 
L 2450 531 
L 3481 531 
L 3481 0 
L 794 0 
L 794 531 
z
" transform="scale(0.015625)"/>
       </defs>
       <use xlink:href="#DejaVuSans-32"/>
       <use xlink:href="#DejaVuSans-30" x="63.623047"/>
       <use xlink:href="#DejaVuSans-31" x="127.246094"/>
       <use xlink:href="#DejaVuSans-30" x="190.869141"/>
      </g>
     </g>
    </g>
    <g id="xtick_3">
     <g id="line2d_3">
      <g>
       <use xlink:href="#m692cc2f54d" x="148.592345" y="307.584" style="stroke: #000000; stroke-width: 0.8"/>
      </g>
     </g>
     <g id="text_3">
      <!-- 2012 -->
      <g transform="translate(135.867345 322.182437) scale(0.1 -0.1)">
       <use xlink:href="#DejaVuSans-32"/>
       <use xlink:href="#DejaVuSans-30" x="63.623047"/>
       <use xlink:href="#DejaVuSans-31" x="127.246094"/>
       <use xlink:href="#DejaVuSans-32" x="190.869141"/>
      </g>
     </g>
    </g>
    <g id="xtick_4">
     <g id="line2d_4">
      <g>
       <use xlink:href="#m692cc2f54d" x="193.49726" y="307.584" style="stroke: #000000; stroke-width: 0.8"/>
      </g>
     </g>
     <g id="text_4">
      <!-- 2014 -->
      <g transform="translate(180.77226 322.182437) scale(0.1 -0.1)">
       <defs>
        <path id="DejaVuSans-34" d="M 2419 4116 
L 825 1625 
L 2419 1625 
L 2419 4116 
z
M 2253 4666 
L 3047 4666 
L 3047 1625 
L 3713 1625 
L 3713 1100 
L 3047 1100 
L 3047 0 
L 2419 0 
L 2419 1100 
L 313 1100 
L 313 1709 
L 2253 4666 
z
" transform="scale(0.015625)"/>
       </defs>
       <use xlink:href="#DejaVuSans-32"/>
       <use xlink:href="#DejaVuSans-30" x="63.623047"/>
       <use xlink:href="#DejaVuSans-31" x="127.246094"/>
       <use xlink:href="#DejaVuSans-34" x="190.869141"/>
      </g>
     </g>
    </g>
    <g id="xtick_5">
     <g id="line2d_5">
      <g>
       <use xlink:href="#m692cc2f54d" x="238.340745" y="307.584" style="stroke: #000000; stroke-width: 0.8"/>
      </g>
     </g>
     <g id="text_5">
      <!-- 2016 -->
      <g transform="translate(225.615745 322.182437) scale(0.1 -0.1)">
       <defs>
        <path id="DejaVuSans-36" d="M 2113 2584 
Q 1688 2584 1439 2293 
Q 1191 2003 1191 1497 
Q 1191 994 1439 701 
Q 1688 409 2113 409 
Q 2538 409 2786 701 
Q 3034 994 3034 1497 
Q 3034 2003 2786 2293 
Q 2538 2584 2113 2584 
z
M 3366 4563 
L 3366 3988 
Q 3128 4100 2886 4159 
Q 2644 4219 2406 4219 
Q 1781 4219 1451 3797 
Q 1122 3375 1075 2522 
Q 1259 2794 1537 2939 
Q 1816 3084 2150 3084 
Q 2853 3084 3261 2657 
Q 3669 2231 3669 1497 
Q 3669 778 3244 343 
Q 2819 -91 2113 -91 
Q 1303 -91 875 529 
Q 447 1150 447 2328 
Q 447 3434 972 4092 
Q 1497 4750 2381 4750 
Q 2619 4750 2861 4703 
Q 3103 4656 3366 4563 
z
" transform="scale(0.015625)"/>
       </defs>
       <use xlink:href="#DejaVuSans-32"/>
       <use xlink:href="#DejaVuSans-30" x="63.623047"/>
       <use xlink:href="#DejaVuSans-31" x="127.246094"/>
       <use xlink:href="#DejaVuSans-36" x="190.869141"/>
      </g>
     </g>
    </g>
    <g id="xtick_6">
     <g id="line2d_6">
      <g>
       <use xlink:href="#m692cc2f54d" x="283.245659" y="307.584" style="stroke: #000000; stroke-width: 0.8"/>
      </g>
     </g>
     <g id="text_6">
      <!-- 2018 -->
      <g transform="translate(270.520659 322.182437) scale(0.1 -0.1)">
       <use xlink:href="#DejaVuSans-32"/>
       <use xlink:href="#DejaVuSans-30" x="63.623047"/>
       <use xlink:href="#DejaVuSans-31" x="127.246094"/>
       <use xlink:href="#DejaVuSans-38" x="190.869141"/>
      </g>
     </g>
    </g>
    <g id="xtick_7">
     <g id="line2d_7">
      <g>
       <use xlink:href="#m692cc2f54d" x="328.089144" y="307.584" style="stroke: #000000; stroke-width: 0.8"/>
      </g>
     </g>
     <g id="text_7">
      <!-- 2020 -->
      <g transform="translate(315.364144 322.182437) scale(0.1 -0.1)">
       <use xlink:href="#DejaVuSans-32"/>
       <use xlink:href="#DejaVuSans-30" x="63.623047"/>
       <use xlink:href="#DejaVuSans-32" x="127.246094"/>
       <use xlink:href="#DejaVuSans-30" x="190.869141"/>
      </g>
     </g>
    </g>
    <g id="xtick_8">
     <g id="line2d_8">
      <g>
       <use xlink:href="#m692cc2f54d" x="372.994059" y="307.584" style="stroke: #000000; stroke-width: 0.8"/>
      </g>
     </g>
     <g id="text_8">
      <!-- 2022 -->
      <g transform="translate(360.269059 322.182437) scale(0.1 -0.1)">
       <use xlink:href="#DejaVuSans-32"/>
       <use xlink:href="#DejaVuSans-30" x="63.623047"/>
       <use xlink:href="#DejaVuSans-32" x="127.246094"/>
       <use xlink:href="#DejaVuSans-32" x="190.869141"/>
      </g>
     </g>
    </g>
    <g id="text_9">
     <!-- Updated 2023-02-22 05:31:39.456471 - Last record 2023-02-20 -->
     <g transform="translate(75.905312 335.860562) scale(0.1 -0.1)">
      <defs>
       <path id="DejaVuSans-55" d="M 556 4666 
L 1191 4666 
L 1191 1831 
Q 1191 1081 1462 751 
Q 1734 422 2344 422 
Q 2950 422 3222 751 
Q 3494 1081 3494 1831 
L 3494 4666 
L 4128 4666 
L 4128 1753 
Q 4128 841 3676 375 
Q 3225 -91 2344 -91 
Q 1459 -91 1007 375 
Q 556 841 556 1753 
L 556 4666 
z
" transform="scale(0.015625)"/>
       <path id="DejaVuSans-70" d="M 1159 525 
L 1159 -1331 
L 581 -1331 
L 581 3500 
L 1159 3500 
L 1159 2969 
Q 1341 3281 1617 3432 
Q 1894 3584 2278 3584 
Q 2916 3584 3314 3078 
Q 3713 2572 3713 1747 
Q 3713 922 3314 415 
Q 2916 -91 2278 -91 
Q 1894 -91 1617 61 
Q 1341 213 1159 525 
z
M 3116 1747 
Q 3116 2381 2855 2742 
Q 2594 3103 2138 3103 
Q 1681 3103 1420 2742 
Q 1159 2381 1159 1747 
Q 1159 1113 1420 752 
Q 1681 391 2138 391 
Q 2594 391 2855 752 
Q 3116 1113 3116 1747 
z
" transform="scale(0.015625)"/>
       <path id="DejaVuSans-64" d="M 2906 2969 
L 2906 4863 
L 3481 4863 
L 3481 0 
L 2906 0 
L 2906 525 
Q 2725 213 2448 61 
Q 2172 -91 1784 -91 
Q 1150 -91 751 415 
Q 353 922 353 1747 
Q 353 2572 751 3078 
Q 1150 3584 1784 3584 
Q 2172 3584 2448 3432 
Q 2725 3281 2906 2969 
z
M 947 1747 
Q 947 1113 1208 752 
Q 1469 391 1925 391 
Q 2381 391 2643 752 
Q 2906 1113 2906 1747 
Q 2906 2381 2643 2742 
Q 2381 3103 1925 3103 
Q 1469 3103 1208 2742 
Q 947 2381 947 1747 
z
" transform="scale(0.015625)"/>
       <path id="DejaVuSans-61" d="M 2194 1759 
Q 1497 1759 1228 1600 
Q 959 1441 959 1056 
Q 959 750 1161 570 
Q 1363 391 1709 391 
Q 2188 391 2477 730 
Q 2766 1069 2766 1631 
L 2766 1759 
L 2194 1759 
z
M 3341 1997 
L 3341 0 
L 2766 0 
L 2766 531 
Q 2569 213 2275 61 
Q 1981 -91 1556 -91 
Q 1019 -91 701 211 
Q 384 513 384 1019 
Q 384 1609 779 1909 
Q 1175 2209 1959 2209 
L 2766 2209 
L 2766 2266 
Q 2766 2663 2505 2880 
Q 2244 3097 1772 3097 
Q 1472 3097 1187 3025 
Q 903 2953 641 2809 
L 641 3341 
Q 956 3463 1253 3523 
Q 1550 3584 1831 3584 
Q 2591 3584 2966 3190 
Q 3341 2797 3341 1997 
z
" transform="scale(0.015625)"/>
       <path id="DejaVuSans-74" d="M 1172 4494 
L 1172 3500 
L 2356 3500 
L 2356 3053 
L 1172 3053 
L 1172 1153 
Q 1172 725 1289 603 
Q 1406 481 1766 481 
L 2356 481 
L 2356 0 
L 1766 0 
Q 1100 0 847 248 
Q 594 497 594 1153 
L 594 3053 
L 172 3053 
L 172 3500 
L 594 3500 
L 594 4494 
L 1172 4494 
z
" transform="scale(0.015625)"/>
       <path id="DejaVuSans-65" d="M 3597 1894 
L 3597 1613 
L 953 1613 
Q 991 1019 1311 708 
Q 1631 397 2203 397 
Q 2534 397 2845 478 
Q 3156 559 3463 722 
L 3463 178 
Q 3153 47 2828 -22 
Q 2503 -91 2169 -91 
Q 1331 -91 842 396 
Q 353 884 353 1716 
Q 353 2575 817 3079 
Q 1281 3584 2069 3584 
Q 2775 3584 3186 3129 
Q 3597 2675 3597 1894 
z
M 3022 2063 
Q 3016 2534 2758 2815 
Q 2500 3097 2075 3097 
Q 1594 3097 1305 2825 
Q 1016 2553 972 2059 
L 3022 2063 
z
" transform="scale(0.015625)"/>
       <path id="DejaVuSans-20" transform="scale(0.015625)"/>
       <path id="DejaVuSans-33" d="M 2597 2516 
Q 3050 2419 3304 2112 
Q 3559 1806 3559 1356 
Q 3559 666 3084 287 
Q 2609 -91 1734 -91 
Q 1441 -91 1130 -33 
Q 819 25 488 141 
L 488 750 
Q 750 597 1062 519 
Q 1375 441 1716 441 
Q 2309 441 2620 675 
Q 2931 909 2931 1356 
Q 2931 1769 2642 2001 
Q 2353 2234 1838 2234 
L 1294 2234 
L 1294 2753 
L 1863 2753 
Q 2328 2753 2575 2939 
Q 2822 3125 2822 3475 
Q 2822 3834 2567 4026 
Q 2313 4219 1838 4219 
Q 1578 4219 1281 4162 
Q 984 4106 628 3988 
L 628 4550 
Q 988 4650 1302 4700 
Q 1616 4750 1894 4750 
Q 2613 4750 3031 4423 
Q 3450 4097 3450 3541 
Q 3450 3153 3228 2886 
Q 3006 2619 2597 2516 
z
" transform="scale(0.015625)"/>
       <path id="DejaVuSans-2d" d="M 313 2009 
L 1997 2009 
L 1997 1497 
L 313 1497 
L 313 2009 
z
" transform="scale(0.015625)"/>
       <path id="DejaVuSans-35" d="M 691 4666 
L 3169 4666 
L 3169 4134 
L 1269 4134 
L 1269 2991 
Q 1406 3038 1543 3061 
Q 1681 3084 1819 3084 
Q 2600 3084 3056 2656 
Q 3513 2228 3513 1497 
Q 3513 744 3044 326 
Q 2575 -91 1722 -91 
Q 1428 -91 1123 -41 
Q 819 9 494 109 
L 494 744 
Q 775 591 1075 516 
Q 1375 441 1709 441 
Q 2250 441 2565 725 
Q 2881 1009 2881 1497 
Q 2881 1984 2565 2268 
Q 2250 2553 1709 2553 
Q 1456 2553 1204 2497 
Q 953 2441 691 2322 
L 691 4666 
z
" transform="scale(0.015625)"/>
       <path id="DejaVuSans-3a" d="M 750 794 
L 1409 794 
L 1409 0 
L 750 0 
L 750 794 
z
M 750 3309 
L 1409 3309 
L 1409 2516 
L 750 2516 
L 750 3309 
z
" transform="scale(0.015625)"/>
       <path id="DejaVuSans-39" d="M 703 97 
L 703 672 
Q 941 559 1184 500 
Q 1428 441 1663 441 
Q 2288 441 2617 861 
Q 2947 1281 2994 2138 
Q 2813 1869 2534 1725 
Q 2256 1581 1919 1581 
Q 1219 1581 811 2004 
Q 403 2428 403 3163 
Q 403 3881 828 4315 
Q 1253 4750 1959 4750 
Q 2769 4750 3195 4129 
Q 3622 3509 3622 2328 
Q 3622 1225 3098 567 
Q 2575 -91 1691 -91 
Q 1453 -91 1209 -44 
Q 966 3 703 97 
z
M 1959 2075 
Q 2384 2075 2632 2365 
Q 2881 2656 2881 3163 
Q 2881 3666 2632 3958 
Q 2384 4250 1959 4250 
Q 1534 4250 1286 3958 
Q 1038 3666 1038 3163 
Q 1038 2656 1286 2365 
Q 1534 2075 1959 2075 
z
" transform="scale(0.015625)"/>
       <path id="DejaVuSans-2e" d="M 684 794 
L 1344 794 
L 1344 0 
L 684 0 
L 684 794 
z
" transform="scale(0.015625)"/>
       <path id="DejaVuSans-37" d="M 525 4666 
L 3525 4666 
L 3525 4397 
L 1831 0 
L 1172 0 
L 2766 4134 
L 525 4134 
L 525 4666 
z
" transform="scale(0.015625)"/>
       <path id="DejaVuSans-4c" d="M 628 4666 
L 1259 4666 
L 1259 531 
L 3531 531 
L 3531 0 
L 628 0 
L 628 4666 
z
" transform="scale(0.015625)"/>
       <path id="DejaVuSans-73" d="M 2834 3397 
L 2834 2853 
Q 2591 2978 2328 3040 
Q 2066 3103 1784 3103 
Q 1356 3103 1142 2972 
Q 928 2841 928 2578 
Q 928 2378 1081 2264 
Q 1234 2150 1697 2047 
L 1894 2003 
Q 2506 1872 2764 1633 
Q 3022 1394 3022 966 
Q 3022 478 2636 193 
Q 2250 -91 1575 -91 
Q 1294 -91 989 -36 
Q 684 19 347 128 
L 347 722 
Q 666 556 975 473 
Q 1284 391 1588 391 
Q 1994 391 2212 530 
Q 2431 669 2431 922 
Q 2431 1156 2273 1281 
Q 2116 1406 1581 1522 
L 1381 1569 
Q 847 1681 609 1914 
Q 372 2147 372 2553 
Q 372 3047 722 3315 
Q 1072 3584 1716 3584 
Q 2034 3584 2315 3537 
Q 2597 3491 2834 3397 
z
" transform="scale(0.015625)"/>
       <path id="DejaVuSans-72" d="M 2631 2963 
Q 2534 3019 2420 3045 
Q 2306 3072 2169 3072 
Q 1681 3072 1420 2755 
Q 1159 2438 1159 1844 
L 1159 0 
L 581 0 
L 581 3500 
L 1159 3500 
L 1159 2956 
Q 1341 3275 1631 3429 
Q 1922 3584 2338 3584 
Q 2397 3584 2469 3576 
Q 2541 3569 2628 3553 
L 2631 2963 
z
" transform="scale(0.015625)"/>
       <path id="DejaVuSans-63" d="M 3122 3366 
L 3122 2828 
Q 2878 2963 2633 3030 
Q 2388 3097 2138 3097 
Q 1578 3097 1268 2742 
Q 959 2388 959 1747 
Q 959 1106 1268 751 
Q 1578 397 2138 397 
Q 2388 397 2633 464 
Q 2878 531 3122 666 
L 3122 134 
Q 2881 22 2623 -34 
Q 2366 -91 2075 -91 
Q 1284 -91 818 406 
Q 353 903 353 1747 
Q 353 2603 823 3093 
Q 1294 3584 2113 3584 
Q 2378 3584 2631 3529 
Q 2884 3475 3122 3366 
z
" transform="scale(0.015625)"/>
       <path id="DejaVuSans-6f" d="M 1959 3097 
Q 1497 3097 1228 2736 
Q 959 2375 959 1747 
Q 959 1119 1226 758 
Q 1494 397 1959 397 
Q 2419 397 2687 759 
Q 2956 1122 2956 1747 
Q 2956 2369 2687 2733 
Q 2419 3097 1959 3097 
z
M 1959 3584 
Q 2709 3584 3137 3096 
Q 3566 2609 3566 1747 
Q 3566 888 3137 398 
Q 2709 -91 1959 -91 
Q 1206 -91 779 398 
Q 353 888 353 1747 
Q 353 2609 779 3096 
Q 1206 3584 1959 3584 
z
" transform="scale(0.015625)"/>
      </defs>
      <use xlink:href="#DejaVuSans-55"/>
      <use xlink:href="#DejaVuSans-70" x="73.193359"/>
      <use xlink:href="#DejaVuSans-64" x="136.669922"/>
      <use xlink:href="#DejaVuSans-61" x="200.146484"/>
      <use xlink:href="#DejaVuSans-74" x="261.425781"/>
      <use xlink:href="#DejaVuSans-65" x="300.634766"/>
      <use xlink:href="#DejaVuSans-64" x="362.158203"/>
      <use xlink:href="#DejaVuSans-20" x="425.634766"/>
      <use xlink:href="#DejaVuSans-32" x="457.421875"/>
      <use xlink:href="#DejaVuSans-30" x="521.044922"/>
      <use xlink:href="#DejaVuSans-32" x="584.667969"/>
      <use xlink:href="#DejaVuSans-33" x="648.291016"/>
      <use xlink:href="#DejaVuSans-2d" x="711.914062"/>
      <use xlink:href="#DejaVuSans-30" x="747.998047"/>
      <use xlink:href="#DejaVuSans-32" x="811.621094"/>
      <use xlink:href="#DejaVuSans-2d" x="875.244141"/>
      <use xlink:href="#DejaVuSans-32" x="911.328125"/>
      <use xlink:href="#DejaVuSans-32" x="974.951172"/>
      <use xlink:href="#DejaVuSans-20" x="1038.574219"/>
      <use xlink:href="#DejaVuSans-30" x="1070.361328"/>
      <use xlink:href="#DejaVuSans-35" x="1133.984375"/>
      <use xlink:href="#DejaVuSans-3a" x="1197.607422"/>
      <use xlink:href="#DejaVuSans-33" x="1231.298828"/>
      <use xlink:href="#DejaVuSans-31" x="1294.921875"/>
      <use xlink:href="#DejaVuSans-3a" x="1358.544922"/>
      <use xlink:href="#DejaVuSans-33" x="1392.236328"/>
      <use xlink:href="#DejaVuSans-39" x="1455.859375"/>
      <use xlink:href="#DejaVuSans-2e" x="1519.482422"/>
      <use xlink:href="#DejaVuSans-34" x="1551.269531"/>
      <use xlink:href="#DejaVuSans-35" x="1614.892578"/>
      <use xlink:href="#DejaVuSans-36" x="1678.515625"/>
      <use xlink:href="#DejaVuSans-34" x="1742.138672"/>
      <use xlink:href="#DejaVuSans-37" x="1805.761719"/>
      <use xlink:href="#DejaVuSans-31" x="1869.384766"/>
      <use xlink:href="#DejaVuSans-20" x="1933.007812"/>
      <use xlink:href="#DejaVuSans-2d" x="1964.794922"/>
      <use xlink:href="#DejaVuSans-20" x="2000.878906"/>
      <use xlink:href="#DejaVuSans-4c" x="2032.666016"/>
      <use xlink:href="#DejaVuSans-61" x="2088.378906"/>
      <use xlink:href="#DejaVuSans-73" x="2149.658203"/>
      <use xlink:href="#DejaVuSans-74" x="2201.757812"/>
      <use xlink:href="#DejaVuSans-20" x="2240.966797"/>
      <use xlink:href="#DejaVuSans-72" x="2272.753906"/>
      <use xlink:href="#DejaVuSans-65" x="2311.617188"/>
      <use xlink:href="#DejaVuSans-63" x="2373.140625"/>
      <use xlink:href="#DejaVuSans-6f" x="2428.121094"/>
      <use xlink:href="#DejaVuSans-72" x="2489.302734"/>
      <use xlink:href="#DejaVuSans-64" x="2528.666016"/>
      <use xlink:href="#DejaVuSans-20" x="2592.142578"/>
      <use xlink:href="#DejaVuSans-32" x="2623.929688"/>
      <use xlink:href="#DejaVuSans-30" x="2687.552734"/>
      <use xlink:href="#DejaVuSans-32" x="2751.175781"/>
      <use xlink:href="#DejaVuSans-33" x="2814.798828"/>
      <use xlink:href="#DejaVuSans-2d" x="2878.421875"/>
      <use xlink:href="#DejaVuSans-30" x="2914.505859"/>
      <use xlink:href="#DejaVuSans-32" x="2978.128906"/>
      <use xlink:href="#DejaVuSans-2d" x="3041.751953"/>
      <use xlink:href="#DejaVuSans-32" x="3077.835938"/>
      <use xlink:href="#DejaVuSans-30" x="3141.458984"/>
     </g>
    </g>
   </g>
   <g id="matplotlib.axis_2">
    <g id="ytick_1">
     <g id="line2d_9">
      <defs>
       <path id="m9eb5ff3198" d="M 0 0 
L -3.5 0 
" style="stroke: #000000; stroke-width: 0.8"/>
      </defs>
      <g>
       <use xlink:href="#m9eb5ff3198" x="57.6" y="295.488" style="stroke: #000000; stroke-width: 0.8"/>
      </g>
     </g>
     <g id="text_10">
      <!-- 0 -->
      <g transform="translate(44.2375 299.287219) scale(0.1 -0.1)">
       <use xlink:href="#DejaVuSans-30"/>
      </g>
     </g>
    </g>
    <g id="ytick_2">
     <g id="line2d_10">
      <g>
       <use xlink:href="#m9eb5ff3198" x="57.6" y="239.108298" style="stroke: #000000; stroke-width: 0.8"/>
      </g>
     </g>
     <g id="text_11">
      <!-- 10 -->
      <g transform="translate(37.875 242.907517) scale(0.1 -0.1)">
       <use xlink:href="#DejaVuSans-31"/>
       <use xlink:href="#DejaVuSans-30" x="63.623047"/>
      </g>
     </g>
    </g>
    <g id="ytick_3">
     <g id="line2d_11">
      <g>
       <use xlink:href="#m9eb5ff3198" x="57.6" y="182.728597" style="stroke: #000000; stroke-width: 0.8"/>
      </g>
     </g>
     <g id="text_12">
      <!-- 20 -->
      <g transform="translate(37.875 186.527815) scale(0.1 -0.1)">
       <use xlink:href="#DejaVuSans-32"/>
       <use xlink:href="#DejaVuSans-30" x="63.623047"/>
      </g>
     </g>
    </g>
    <g id="ytick_4">
     <g id="line2d_12">
      <g>
       <use xlink:href="#m9eb5ff3198" x="57.6" y="126.348895" style="stroke: #000000; stroke-width: 0.8"/>
      </g>
     </g>
     <g id="text_13">
      <!-- 30 -->
      <g transform="translate(37.875 130.148114) scale(0.1 -0.1)">
       <use xlink:href="#DejaVuSans-33"/>
       <use xlink:href="#DejaVuSans-30" x="63.623047"/>
      </g>
     </g>
    </g>
    <g id="ytick_5">
     <g id="line2d_13">
      <g>
       <use xlink:href="#m9eb5ff3198" x="57.6" y="69.969193" style="stroke: #000000; stroke-width: 0.8"/>
      </g>
     </g>
     <g id="text_14">
      <!-- 40 -->
      <g transform="translate(37.875 73.768412) scale(0.1 -0.1)">
       <use xlink:href="#DejaVuSans-34"/>
       <use xlink:href="#DejaVuSans-30" x="63.623047"/>
      </g>
     </g>
    </g>
    <g id="text_15">
     <!-- IPv6 as % of total Google traffic -->
     <g transform="translate(31.795312 253.735813) rotate(-90) scale(0.1 -0.1)">
      <defs>
       <path id="DejaVuSans-49" d="M 628 4666 
L 1259 4666 
L 1259 0 
L 628 0 
L 628 4666 
z
" transform="scale(0.015625)"/>
       <path id="DejaVuSans-50" d="M 1259 4147 
L 1259 2394 
L 2053 2394 
Q 2494 2394 2734 2622 
Q 2975 2850 2975 3272 
Q 2975 3691 2734 3919 
Q 2494 4147 2053 4147 
L 1259 4147 
z
M 628 4666 
L 2053 4666 
Q 2838 4666 3239 4311 
Q 3641 3956 3641 3272 
Q 3641 2581 3239 2228 
Q 2838 1875 2053 1875 
L 1259 1875 
L 1259 0 
L 628 0 
L 628 4666 
z
" transform="scale(0.015625)"/>
       <path id="DejaVuSans-76" d="M 191 3500 
L 800 3500 
L 1894 563 
L 2988 3500 
L 3597 3500 
L 2284 0 
L 1503 0 
L 191 3500 
z
" transform="scale(0.015625)"/>
       <path id="DejaVuSans-25" d="M 4653 2053 
Q 4381 2053 4226 1822 
Q 4072 1591 4072 1178 
Q 4072 772 4226 539 
Q 4381 306 4653 306 
Q 4919 306 5073 539 
Q 5228 772 5228 1178 
Q 5228 1588 5073 1820 
Q 4919 2053 4653 2053 
z
M 4653 2450 
Q 5147 2450 5437 2106 
Q 5728 1763 5728 1178 
Q 5728 594 5436 251 
Q 5144 -91 4653 -91 
Q 4153 -91 3862 251 
Q 3572 594 3572 1178 
Q 3572 1766 3864 2108 
Q 4156 2450 4653 2450 
z
M 1428 4353 
Q 1159 4353 1004 4120 
Q 850 3888 850 3481 
Q 850 3069 1003 2837 
Q 1156 2606 1428 2606 
Q 1700 2606 1854 2837 
Q 2009 3069 2009 3481 
Q 2009 3884 1853 4118 
Q 1697 4353 1428 4353 
z
M 4250 4750 
L 4750 4750 
L 1831 -91 
L 1331 -91 
L 4250 4750 
z
M 1428 4750 
Q 1922 4750 2215 4408 
Q 2509 4066 2509 3481 
Q 2509 2891 2217 2550 
Q 1925 2209 1428 2209 
Q 931 2209 642 2551 
Q 353 2894 353 3481 
Q 353 4063 643 4406 
Q 934 4750 1428 4750 
z
" transform="scale(0.015625)"/>
       <path id="DejaVuSans-66" d="M 2375 4863 
L 2375 4384 
L 1825 4384 
Q 1516 4384 1395 4259 
Q 1275 4134 1275 3809 
L 1275 3500 
L 2222 3500 
L 2222 3053 
L 1275 3053 
L 1275 0 
L 697 0 
L 697 3053 
L 147 3053 
L 147 3500 
L 697 3500 
L 697 3744 
Q 697 4328 969 4595 
Q 1241 4863 1831 4863 
L 2375 4863 
z
" transform="scale(0.015625)"/>
       <path id="DejaVuSans-6c" d="M 603 4863 
L 1178 4863 
L 1178 0 
L 603 0 
L 603 4863 
z
" transform="scale(0.015625)"/>
       <path id="DejaVuSans-47" d="M 3809 666 
L 3809 1919 
L 2778 1919 
L 2778 2438 
L 4434 2438 
L 4434 434 
Q 4069 175 3628 42 
Q 3188 -91 2688 -91 
Q 1594 -91 976 548 
Q 359 1188 359 2328 
Q 359 3472 976 4111 
Q 1594 4750 2688 4750 
Q 3144 4750 3555 4637 
Q 3966 4525 4313 4306 
L 4313 3634 
Q 3963 3931 3569 4081 
Q 3175 4231 2741 4231 
Q 1884 4231 1454 3753 
Q 1025 3275 1025 2328 
Q 1025 1384 1454 906 
Q 1884 428 2741 428 
Q 3075 428 3337 486 
Q 3600 544 3809 666 
z
" transform="scale(0.015625)"/>
       <path id="DejaVuSans-67" d="M 2906 1791 
Q 2906 2416 2648 2759 
Q 2391 3103 1925 3103 
Q 1463 3103 1205 2759 
Q 947 2416 947 1791 
Q 947 1169 1205 825 
Q 1463 481 1925 481 
Q 2391 481 2648 825 
Q 2906 1169 2906 1791 
z
M 3481 434 
Q 3481 -459 3084 -895 
Q 2688 -1331 1869 -1331 
Q 1566 -1331 1297 -1286 
Q 1028 -1241 775 -1147 
L 775 -588 
Q 1028 -725 1275 -790 
Q 1522 -856 1778 -856 
Q 2344 -856 2625 -561 
Q 2906 -266 2906 331 
L 2906 616 
Q 2728 306 2450 153 
Q 2172 0 1784 0 
Q 1141 0 747 490 
Q 353 981 353 1791 
Q 353 2603 747 3093 
Q 1141 3584 1784 3584 
Q 2172 3584 2450 3431 
Q 2728 3278 2906 2969 
L 2906 3500 
L 3481 3500 
L 3481 434 
z
" transform="scale(0.015625)"/>
       <path id="DejaVuSans-69" d="M 603 3500 
L 1178 3500 
L 1178 0 
L 603 0 
L 603 3500 
z
M 603 4863 
L 1178 4863 
L 1178 4134 
L 603 4134 
L 603 4863 
z
" transform="scale(0.015625)"/>
      </defs>
      <use xlink:href="#DejaVuSans-49"/>
      <use xlink:href="#DejaVuSans-50" x="29.492188"/>
      <use xlink:href="#DejaVuSans-76" x="89.794922"/>
      <use xlink:href="#DejaVuSans-36" x="148.974609"/>
      <use xlink:href="#DejaVuSans-20" x="212.597656"/>
      <use xlink:href="#DejaVuSans-61" x="244.384766"/>
      <use xlink:href="#DejaVuSans-73" x="305.664062"/>
      <use xlink:href="#DejaVuSans-20" x="357.763672"/>
      <use xlink:href="#DejaVuSans-25" x="389.550781"/>
      <use xlink:href="#DejaVuSans-20" x="484.570312"/>
      <use xlink:href="#DejaVuSans-6f" x="516.357422"/>
      <use xlink:href="#DejaVuSans-66" x="577.539062"/>
      <use xlink:href="#DejaVuSans-20" x="612.744141"/>
      <use xlink:href="#DejaVuSans-74" x="644.53125"/>
      <use xlink:href="#DejaVuSans-6f" x="683.740234"/>
      <use xlink:href="#DejaVuSans-74" x="744.921875"/>
      <use xlink:href="#DejaVuSans-61" x="784.130859"/>
      <use xlink:href="#DejaVuSans-6c" x="845.410156"/>
      <use xlink:href="#DejaVuSans-20" x="873.193359"/>
      <use xlink:href="#DejaVuSans-47" x="904.980469"/>
      <use xlink:href="#DejaVuSans-6f" x="982.470703"/>
      <use xlink:href="#DejaVuSans-6f" x="1043.652344"/>
      <use xlink:href="#DejaVuSans-67" x="1104.833984"/>
      <use xlink:href="#DejaVuSans-6c" x="1168.310547"/>
      <use xlink:href="#DejaVuSans-65" x="1196.09375"/>
      <use xlink:href="#DejaVuSans-20" x="1257.617188"/>
      <use xlink:href="#DejaVuSans-74" x="1289.404297"/>
      <use xlink:href="#DejaVuSans-72" x="1328.613281"/>
      <use xlink:href="#DejaVuSans-61" x="1369.726562"/>
      <use xlink:href="#DejaVuSans-66" x="1431.005859"/>
      <use xlink:href="#DejaVuSans-66" x="1466.210938"/>
      <use xlink:href="#DejaVuSans-69" x="1501.416016"/>
      <use xlink:href="#DejaVuSans-63" x="1529.199219"/>
     </g>
    </g>
   </g>
   <g id="line2d_14">
    <path d="M 73.832727 294.460801 
L 75.552751 294.286706 
L 75.982757 294.452485 
L 77.702781 294.451758 
L 79.422806 294.300643 
L 79.852812 294.167012 
L 81.14283 294.189181 
L 82.432848 294.156977 
L 82.862854 294.232215 
L 84.582878 294.078474 
L 86.302902 294.138473 
L 88.022926 294.058876 
L 91.462974 294.12789 
L 91.89298 294.236354 
L 94.04301 294.210002 
L 95.333028 294.158234 
L 97.053052 294.057038 
L 97.913064 294.066279 
L 98.34307 293.7918 
L 100.923107 293.697646 
L 101.783119 293.661518 
L 103.503143 293.80183 
L 104.793161 293.751905 
L 106.083179 293.802123 
L 108.233209 293.767585 
L 109.523227 293.967541 
L 110.383239 293.940964 
L 111.243251 293.897918 
L 112.103263 294.092315 
L 114.253293 294.11008 
L 115.543311 294.232176 
L 117.693341 294.1407 
L 118.553353 294.029908 
L 118.983359 293.938584 
L 119.843371 293.934085 
L 122.853414 293.867726 
L 123.713426 293.963352 
L 124.143432 293.828655 
L 126.723468 294.078496 
L 129.73351 293.902332 
L 130.593522 293.904531 
L 131.023528 293.776324 
L 131.88354 293.883563 
L 132.743552 293.684509 
L 133.173558 293.733994 
L 133.603564 293.611791 
L 134.03357 293.665295 
L 134.893582 293.551583 
L 135.753594 293.507094 
L 136.1836 293.535396 
L 136.613606 293.675697 
L 138.33363 293.707388 
L 138.763636 293.773104 
L 139.623648 293.682609 
L 140.053654 293.497492 
L 141.773679 293.396116 
L 142.203685 293.497097 
L 142.633691 293.467752 
L 143.063697 293.3266 
L 143.923709 293.470407 
L 146.933751 292.957403 
L 147.793763 293.113107 
L 150.373799 292.706936 
L 152.523829 292.561239 
L 152.953835 292.345627 
L 153.383841 292.428713 
L 153.813847 292.237851 
L 154.673859 292.194399 
L 155.103865 292.208105 
L 156.393883 291.84277 
L 158.113907 291.259957 
L 158.543913 291.335765 
L 159.833931 291.205426 
L 160.263937 291.311893 
L 161.983961 291.101169 
L 163.27398 290.620938 
L 163.703986 290.515767 
L 164.133992 290.575631 
L 164.563998 290.220428 
L 164.994004 290.049084 
L 166.714028 289.842486 
L 167.144034 290.009094 
L 167.57404 289.847098 
L 168.434052 289.757962 
L 168.864058 289.498869 
L 169.72407 289.325986 
L 171.444094 289.307978 
L 172.304106 289.087122 
L 173.594124 288.924388 
L 174.02413 288.711617 
L 174.454136 288.691094 
L 174.884142 288.801114 
L 176.604166 288.005681 
L 177.034172 288.023903 
L 178.754196 287.523724 
L 179.184202 287.188525 
L 179.614208 287.111617 
L 180.044214 286.904179 
L 180.47422 286.937962 
L 181.764238 286.428577 
L 182.194244 286.518649 
L 182.62425 286.267923 
L 183.054256 286.223857 
L 185.204287 285.045944 
L 186.064299 284.687341 
L 186.924311 284.059293 
L 188.214329 282.507092 
L 188.644335 282.754323 
L 189.074341 282.797093 
L 190.364359 281.322436 
L 190.794365 281.145613 
L 191.224371 280.400234 
L 192.084383 280.167718 
L 192.944395 279.671582 
L 193.374401 279.723288 
L 194.664419 278.909329 
L 195.094425 278.736446 
L 195.524431 278.416728 
L 196.384443 278.340971 
L 196.814449 277.616695 
L 197.244455 277.607149 
L 197.674461 276.810859 
L 198.104467 276.398464 
L 198.964479 276.516828 
L 199.394485 276.222007 
L 199.824491 275.767863 
L 200.684503 275.239202 
L 201.114509 274.766593 
L 201.544515 275.056351 
L 203.264539 274.12908 
L 203.694545 273.786218 
L 204.124551 272.377272 
L 204.554557 272.64454 
L 205.41457 271.687799 
L 205.844576 271.646721 
L 206.274582 272.060328 
L 207.5646 271.119205 
L 207.994606 270.480738 
L 208.854618 270.529963 
L 209.284624 269.839126 
L 209.71463 269.791575 
L 210.144636 266.13167 
L 210.574642 268.539698 
L 211.004648 269.9742 
L 211.434654 269.277161 
L 211.86466 268.88764 
L 212.294666 268.824866 
L 212.724672 267.908116 
L 213.154678 267.620861 
L 214.444696 265.63108 
L 214.874702 264.331872 
L 215.304708 263.590321 
L 215.734714 262.583554 
L 216.16472 261.918849 
L 216.594726 262.980411 
L 217.024732 262.817953 
L 217.454738 262.847344 
L 217.884744 263.018834 
L 218.31475 263.339048 
L 218.744756 263.216879 
L 219.174762 260.875751 
L 219.604768 261.222035 
L 220.894786 259.988414 
L 221.324792 259.822376 
L 222.184804 259.895376 
L 222.61481 258.125685 
L 223.044816 258.061232 
L 223.904828 256.664633 
L 224.334834 257.140788 
L 224.76484 254.960974 
L 225.194846 255.476205 
L 225.624852 254.004701 
L 226.054859 253.300067 
L 226.484865 252.242034 
L 226.914871 252.976775 
L 227.344877 251.863789 
L 227.774883 250.0122 
L 228.204889 250.945228 
L 228.634895 251.211211 
L 229.064901 250.636465 
L 229.494907 248.943439 
L 229.924913 249.41373 
L 230.354919 247.918957 
L 230.784925 248.263291 
L 231.644937 246.247243 
L 232.074943 245.225964 
L 233.364961 244.905321 
L 233.794967 243.726061 
L 234.224973 243.869564 
L 234.654979 243.427186 
L 235.084985 242.258407 
L 235.514991 241.961765 
L 235.944997 240.654906 
L 236.375003 239.75901 
L 236.805009 239.601119 
L 237.235015 239.821637 
L 237.665021 239.251587 
L 238.095027 236.823201 
L 238.955039 238.247611 
L 239.385045 237.97399 
L 240.245057 237.891997 
L 240.675063 237.940241 
L 241.535075 237.647247 
L 241.965081 236.280952 
L 242.395087 236.216273 
L 242.825093 235.004578 
L 243.255099 235.001172 
L 243.685105 234.817104 
L 244.975123 231.351551 
L 245.405129 229.31038 
L 245.835135 230.704295 
L 246.265141 230.120049 
L 246.695148 228.912424 
L 247.125154 229.181231 
L 247.55516 226.602976 
L 247.985166 226.981239 
L 248.415172 226.665101 
L 248.845178 224.866087 
L 249.275184 224.84906 
L 249.70519 223.508091 
L 250.135196 223.830972 
L 250.565202 222.770335 
L 250.995208 222.206893 
L 251.425214 222.50623 
L 251.85522 221.779975 
L 252.285226 220.646974 
L 252.715232 221.009163 
L 253.145238 220.471813 
L 253.575244 218.688822 
L 254.00525 217.943201 
L 254.435256 218.012948 
L 254.865262 215.927908 
L 255.295268 216.298695 
L 256.15528 213.81531 
L 256.585286 211.337197 
L 257.015292 211.582127 
L 257.875304 210.188669 
L 258.30531 208.627334 
L 258.735316 208.836063 
L 259.165322 208.181726 
L 259.595328 205.713017 
L 260.025334 204.846861 
L 260.45534 200.753853 
L 260.885346 203.41498 
L 261.315352 202.932505 
L 261.745358 203.567132 
L 262.175364 202.8219 
L 263.035376 204.03222 
L 263.465382 203.790937 
L 263.895388 202.729978 
L 264.325394 203.049053 
L 265.185406 201.697784 
L 265.615412 200.578106 
L 266.045418 200.400538 
L 266.475424 199.643652 
L 266.90543 196.921893 
L 267.335436 197.775973 
L 267.765443 194.126109 
L 268.195449 194.408639 
L 268.625455 192.42471 
L 269.055461 191.201885 
L 269.485467 190.465628 
L 269.915473 189.957788 
L 270.345479 188.952871 
L 270.775485 187.112338 
L 271.205491 184.077819 
L 271.635497 184.844104 
L 273.355521 181.388011 
L 273.785527 180.81962 
L 274.215533 180.841134 
L 274.645539 181.154284 
L 275.075545 180.078982 
L 275.505551 178.571941 
L 275.935557 179.922043 
L 276.365563 179.948102 
L 276.795569 181.15089 
L 277.225575 179.834582 
L 277.655581 177.788072 
L 278.085587 178.050305 
L 278.515593 177.16679 
L 279.805611 175.761734 
L 280.665623 174.729676 
L 281.095629 174.617881 
L 281.525635 189.582367 
L 281.955641 172.718133 
L 282.385647 171.908695 
L 282.815653 167.819182 
L 283.245659 171.613293 
L 284.105671 171.058901 
L 284.535677 171.056217 
L 284.965683 170.548478 
L 285.395689 170.298259 
L 285.825695 171.688262 
L 286.255701 172.569471 
L 286.685707 172.35525 
L 287.115713 171.161405 
L 287.545719 171.24713 
L 288.835738 170.243239 
L 289.265744 167.5612 
L 289.69575 168.619808 
L 290.125756 165.779308 
L 290.555762 166.977038 
L 290.985768 164.59282 
L 291.415774 163.104131 
L 291.84578 163.981901 
L 292.275786 162.156264 
L 292.705792 160.944066 
L 293.135798 160.68631 
L 293.565804 161.677324 
L 293.99581 162.200082 
L 295.285828 159.522728 
L 295.715834 160.138446 
L 296.14584 161.025766 
L 296.575846 161.197826 
L 297.005852 159.167159 
L 297.435858 158.410791 
L 297.865864 156.938745 
L 298.29587 156.576055 
L 298.725876 156.369897 
L 299.155882 156.523943 
L 299.585888 156.329771 
L 300.4459 154.307679 
L 300.875906 155.487402 
L 301.305912 151.750296 
L 301.735918 151.846418 
L 302.165924 151.390701 
L 302.59593 148.665052 
L 303.025936 147.847242 
L 303.455942 147.35569 
L 303.885948 147.35927 
L 304.315954 145.881575 
L 304.74596 145.780841 
L 305.605972 143.444444 
L 306.035978 144.986598 
L 306.465984 145.979907 
L 307.325996 143.614406 
L 307.756002 144.774599 
L 308.186008 144.562465 
L 308.616014 145.06748 
L 309.04602 143.281975 
L 309.476026 142.65899 
L 309.906033 144.008895 
L 310.336039 142.071147 
L 310.766045 142.226191 
L 311.196051 141.673451 
L 312.056063 141.459174 
L 312.486069 137.631511 
L 312.916075 137.520014 
L 313.346081 137.822102 
L 313.776087 138.747925 
L 314.636099 134.281136 
L 315.066105 132.310648 
L 315.496111 131.810504 
L 315.926117 131.982293 
L 316.356123 131.622658 
L 316.786129 129.66529 
L 317.216135 131.279441 
L 317.646141 129.560835 
L 318.076147 131.155654 
L 318.506153 130.012392 
L 318.936159 129.320353 
L 319.366165 129.262643 
L 319.796171 129.340611 
L 320.226177 127.850292 
L 320.656183 128.019623 
L 321.086189 129.632579 
L 321.516195 129.086045 
L 321.946201 129.747661 
L 322.376207 130.018075 
L 322.806213 127.950975 
L 323.236219 129.188972 
L 323.666225 129.52164 
L 324.096231 128.753394 
L 324.526237 128.283993 
L 324.956243 126.432354 
L 325.386249 126.823156 
L 325.816255 126.420153 
L 326.246261 126.553801 
L 326.676267 125.477039 
L 327.106273 125.006021 
L 327.536279 123.643115 
L 327.966285 123.047396 
L 328.396291 123.889584 
L 328.826297 124.139989 
L 329.256303 124.196324 
L 330.116315 122.258159 
L 330.546321 122.722795 
L 330.976328 121.309474 
L 331.406334 121.921166 
L 331.83634 121.656824 
L 332.266346 120.679262 
L 332.696352 120.91816 
L 333.126358 121.589698 
L 333.556364 121.283557 
L 333.98637 121.299557 
L 334.416376 118.760232 
L 335.276388 116.952321 
L 335.706394 117.250824 
L 336.1364 116.618785 
L 336.566406 114.515207 
L 336.996412 115.195682 
L 337.426418 112.177062 
L 337.856424 114.592842 
L 338.28643 112.592981 
L 338.716436 109.859197 
L 339.146442 110.658909 
L 339.576448 108.951935 
L 340.006454 107.800103 
L 340.43646 107.910291 
L 340.866466 107.046148 
L 341.296472 109.212482 
L 341.726478 107.407728 
L 342.156484 108.084443 
L 342.58649 108.48148 
L 343.876508 105.712492 
L 344.306514 108.017886 
L 344.73652 108.064078 
L 345.166526 107.044942 
L 345.596532 107.622434 
L 346.026538 109.022573 
L 346.456544 107.933638 
L 346.88655 105.399957 
L 347.316556 109.606165 
L 347.746562 108.473119 
L 348.176568 106.833112 
L 348.606574 108.208873 
L 349.03658 108.308276 
L 349.466586 106.061624 
L 349.896592 104.942774 
L 350.326598 102.891664 
L 350.756604 103.891901 
L 351.18661 103.134108 
L 351.616616 103.367835 
L 352.046623 104.009927 
L 352.476629 102.37032 
L 352.906635 101.698077 
L 353.336641 102.91359 
L 353.766647 102.610633 
L 354.196653 99.980374 
L 354.626659 99.4018 
L 355.056665 97.61171 
L 355.486671 100.55128 
L 355.916677 101.526192 
L 356.346683 100.567788 
L 356.776689 100.384503 
L 357.206695 100.534812 
L 357.636701 95.350157 
L 358.066707 98.816127 
L 358.496713 96.818904 
L 359.356725 97.829234 
L 359.786731 92.918816 
L 360.216737 92.291254 
L 360.646743 90.315985 
L 361.076749 90.237369 
L 361.506755 92.024053 
L 361.936761 89.560159 
L 362.366767 89.075835 
L 362.796773 87.803435 
L 363.226779 87.343281 
L 363.656785 85.897609 
L 364.086791 86.113752 
L 364.516797 89.618749 
L 364.946803 87.728653 
L 365.376809 86.531887 
L 365.806815 88.807975 
L 366.236821 87.549298 
L 366.666827 87.106227 
L 367.096833 85.288996 
L 367.956845 88.18123 
L 368.386851 87.863592 
L 368.816857 88.317048 
L 369.246863 88.173376 
L 369.676869 86.543946 
L 370.106875 88.427942 
L 370.536881 86.164443 
L 370.966887 85.363975 
L 371.396893 85.280111 
L 372.256905 82.462163 
L 372.686911 79.31776 
L 373.116918 81.462229 
L 373.546924 85.467584 
L 373.97693 80.955906 
L 374.406936 80.743963 
L 374.836942 83.771548 
L 375.696954 79.741904 
L 376.12696 79.688039 
L 376.556966 80.538724 
L 376.986972 80.504011 
L 377.416978 81.155451 
L 377.846984 73.497074 
L 378.27699 72.679512 
L 378.706996 72.907811 
L 379.137002 71.342637 
L 379.567008 70.829271 
L 379.997014 68.107085 
L 380.42702 71.566008 
L 380.857026 72.914689 
L 381.287032 69.955651 
L 381.717038 71.905492 
L 382.147044 68.589661 
L 382.57705 66.901365 
L 383.007056 62.805577 
L 383.437062 63.907682 
L 383.867068 57.839168 
L 384.297074 60.297498 
L 385.157086 64.035563 
L 385.587092 62.266311 
L 386.017098 62.611439 
L 386.447104 63.35369 
L 386.87711 63.202569 
L 387.307116 65.359612 
L 387.737122 64.354102 
L 388.167128 62.777771 
L 388.597134 63.141358 
L 389.02714 61.525888 
L 389.457146 61.936332 
L 389.887152 59.960607 
L 390.317158 61.355317 
L 390.747164 65.118543 
L 391.17717 62.586097 
L 391.607176 58.746791 
L 392.037182 61.928563 
L 392.467188 60.080245 
L 392.897194 61.999973 
L 393.3272 60.266467 
L 393.757207 60.241818 
L 395.047225 53.568 
L 395.477231 56.558154 
L 395.907237 56.329512 
L 396.337243 54.832777 
L 396.767249 55.273914 
L 397.197255 57.824577 
L 398.057267 55.620932 
L 398.487273 75.719371 
L 398.487273 75.719371 
" clip-path="url(#p7c6b76649f)" style="fill: none; stroke: #1f77b4; stroke-width: 1.5; stroke-linecap: square"/>
   </g>
   <g id="line2d_15">
    <path d="M 73.832727 294.730229 
L 75.552751 294.58699 
L 75.982757 294.706871 
L 85.44289 294.444057 
L 86.302902 294.434951 
L 88.452932 294.366591 
L 90.602962 294.436581 
L 92.322986 294.433423 
L 98.34307 294.348318 
L 98.773076 294.146484 
L 101.353113 294.065613 
L 103.503143 294.07875 
L 106.083179 294.112189 
L 108.233209 294.113187 
L 109.953233 294.22311 
L 111.243251 294.232069 
L 113.823287 294.2631 
L 116.833329 294.364719 
L 117.693341 294.349959 
L 118.983359 294.172757 
L 120.703384 294.146124 
L 122.853414 294.084856 
L 128.013486 294.270768 
L 134.03357 293.805461 
L 134.893582 293.746589 
L 135.753594 293.681487 
L 136.613606 293.782773 
L 137.473618 293.796085 
L 138.33363 293.849324 
L 139.623648 293.885305 
L 140.48366 293.571502 
L 141.343672 293.61161 
L 141.773679 293.694466 
L 143.493703 293.588934 
L 143.923709 293.645607 
L 144.353715 293.507516 
L 146.503745 293.458308 
L 147.363757 293.28237 
L 147.793763 293.280289 
L 148.223769 293.392586 
L 154.243853 292.690191 
L 155.103865 292.573062 
L 155.533871 292.564261 
L 155.963877 292.416862 
L 156.823889 292.424553 
L 158.113907 291.997719 
L 159.833931 291.698258 
L 160.263937 291.827717 
L 161.983961 291.694227 
L 168.004046 290.595409 
L 168.434052 290.643664 
L 169.294064 290.367939 
L 170.154076 290.258298 
L 170.584082 290.006258 
L 171.8741 290.293124 
L 172.734112 290.095163 
L 173.164118 290.036974 
L 173.594124 289.792066 
L 174.02413 289.810406 
L 174.454136 289.628988 
L 175.744154 289.536288 
L 176.17416 289.277595 
L 177.464178 289.016011 
L 177.894184 289.018835 
L 178.32419 288.853124 
L 178.754196 288.836283 
L 180.47422 288.322439 
L 180.904226 288.256023 
L 181.764238 287.813894 
L 182.194244 287.962313 
L 183.484262 287.440119 
L 184.344275 287.004862 
L 184.774281 286.675046 
L 185.634293 286.445931 
L 186.064299 286.551203 
L 186.924311 286.390239 
L 188.214329 285.158556 
L 188.644335 284.862687 
L 189.074341 284.944026 
L 189.504347 284.785289 
L 190.794365 283.860465 
L 191.224371 283.703977 
L 192.084383 282.956856 
L 192.514389 282.854487 
L 192.944395 281.44447 
L 193.374401 281.576117 
L 193.804407 282.515431 
L 194.234413 282.413429 
L 195.094425 281.692665 
L 195.524431 282.343986 
L 195.954437 281.500647 
L 196.384443 281.448778 
L 196.814449 281.186646 
L 197.244455 280.573539 
L 197.674461 280.604695 
L 198.534473 279.665646 
L 198.964479 279.693965 
L 199.394485 279.484154 
L 199.824491 278.722453 
L 200.254497 278.979651 
L 200.684503 278.403124 
L 201.114509 278.576063 
L 201.544515 278.367937 
L 201.974521 278.452873 
L 202.404527 277.803272 
L 202.834533 277.82831 
L 203.264539 277.165584 
L 203.694545 277.280722 
L 204.554557 275.881947 
L 204.984564 275.60514 
L 205.41457 275.517109 
L 205.844576 275.196066 
L 206.274582 275.164245 
L 206.704588 275.287136 
L 207.134594 275.263829 
L 208.424612 274.804875 
L 208.854618 274.954304 
L 209.71463 274.568154 
L 210.144636 273.902411 
L 210.574642 272.408095 
L 211.004648 273.523528 
L 211.434654 273.890735 
L 211.86466 273.505239 
L 212.294666 273.728852 
L 212.724672 273.170986 
L 213.584684 272.449658 
L 214.01469 271.734561 
L 214.444696 271.286088 
L 214.874702 270.346577 
L 215.304708 267.565998 
L 215.734714 265.784991 
L 216.16472 268.423387 
L 216.594726 269.119152 
L 217.024732 269.138287 
L 217.454738 269.416374 
L 217.884744 269.396348 
L 218.31475 269.768522 
L 218.744756 269.000478 
L 219.174762 269.13553 
L 219.604768 267.701067 
L 220.034774 267.26272 
L 220.46478 267.511935 
L 221.324792 266.081487 
L 221.754798 266.468657 
L 222.184804 266.431328 
L 222.61481 265.970345 
L 223.044816 265.301265 
L 223.474822 264.953143 
L 223.904828 265.002486 
L 224.76484 262.928508 
L 225.194846 262.318491 
L 225.624852 261.990671 
L 226.054859 260.795777 
L 226.484865 260.381922 
L 227.774883 257.972484 
L 228.204889 258.381547 
L 229.064901 257.979222 
L 229.924913 257.206763 
L 230.354919 257.542578 
L 231.214931 257.116736 
L 232.074943 256.051239 
L 233.364961 255.506605 
L 233.794967 255.510174 
L 234.224973 254.393067 
L 234.654979 254.280544 
L 235.084985 254.311158 
L 235.514991 253.739034 
L 236.805009 250.906326 
L 237.235015 250.372004 
L 237.665021 247.793552 
L 238.095027 244.155708 
L 238.525033 249.553315 
L 238.955039 250.729485 
L 239.385045 250.401085 
L 239.815051 249.821981 
L 240.245057 249.900788 
L 240.675063 250.199037 
L 241.535075 248.980598 
L 242.395087 248.424638 
L 242.825093 247.974971 
L 243.255099 246.690957 
L 243.685105 246.393097 
L 244.115111 246.320305 
L 244.975123 245.184119 
L 245.405129 243.83356 
L 245.835135 242.991862 
L 246.265141 243.522322 
L 247.125154 241.863366 
L 247.55516 240.337235 
L 247.985166 239.893341 
L 248.415172 239.676245 
L 249.275184 237.228881 
L 249.70519 235.322903 
L 250.135196 236.157576 
L 250.565202 236.000243 
L 250.995208 235.041196 
L 251.425214 234.393907 
L 251.85522 234.228184 
L 252.285226 234.345369 
L 252.715232 235.668043 
L 253.145238 234.989857 
L 253.575244 235.29336 
L 254.00525 234.573358 
L 254.435256 234.651624 
L 254.865262 233.841808 
L 255.725274 231.576822 
L 256.15528 231.804325 
L 257.015292 228.600802 
L 257.445298 229.359893 
L 257.875304 228.769947 
L 258.30531 227.373794 
L 258.735316 227.270134 
L 259.165322 226.333103 
L 259.595328 225.799588 
L 260.025334 222.078218 
L 260.45534 213.491578 
L 260.885346 219.672964 
L 261.315352 222.968915 
L 261.745358 223.317088 
L 262.60537 222.954251 
L 263.035376 223.054968 
L 263.465382 223.008832 
L 263.895388 221.98293 
L 264.325394 221.726887 
L 264.7554 222.046459 
L 265.615412 220.846225 
L 266.475424 218.691218 
L 266.90543 216.330859 
L 267.335436 217.1249 
L 267.765443 217.007309 
L 268.195449 212.726533 
L 268.625455 213.665385 
L 269.485467 210.809201 
L 269.915473 208.061057 
L 270.345479 207.962014 
L 270.775485 207.585663 
L 271.635497 202.798694 
L 272.065503 202.481101 
L 272.495509 201.774291 
L 272.925515 201.429112 
L 273.785527 198.697183 
L 274.215533 198.462999 
L 274.645539 198.3821 
L 275.075545 199.579858 
L 275.505551 199.717808 
L 275.935557 200.733973 
L 276.365563 201.442784 
L 277.225575 202.007675 
L 277.655581 199.584791 
L 278.085587 198.97372 
L 278.515593 199.502156 
L 278.945599 198.42346 
L 279.375605 196.43868 
L 279.805611 198.16621 
L 280.235617 198.851021 
L 280.665623 196.80711 
L 281.095629 196.555707 
L 281.525635 195.404654 
L 281.955641 189.582367 
L 282.385647 191.913752 
L 282.815653 182.284917 
L 283.675665 193.718151 
L 284.105671 192.234603 
L 284.535677 193.793288 
L 284.965683 193.214691 
L 285.395689 193.118575 
L 285.825695 191.609026 
L 286.255701 194.157264 
L 286.685707 194.862946 
L 287.115713 194.202249 
L 287.545719 192.755033 
L 287.975725 192.261654 
L 288.405731 191.13198 
L 288.835738 191.053302 
L 289.265744 193.052921 
L 289.69575 191.909992 
L 290.125756 190.284706 
L 290.555762 188.000499 
L 290.985768 187.783319 
L 291.415774 186.838728 
L 291.84578 186.954114 
L 292.275786 184.522497 
L 292.705792 184.466405 
L 293.135798 182.79287 
L 293.565804 182.526453 
L 293.99581 182.01576 
L 294.425816 180.41677 
L 295.285828 180.429985 
L 296.14584 179.782994 
L 296.575846 180.744708 
L 297.005852 179.114337 
L 297.435858 178.246371 
L 297.865864 181.354268 
L 298.29587 181.508743 
L 298.725876 181.361693 
L 299.155882 181.455549 
L 299.585888 181.377203 
L 300.015894 179.821056 
L 300.4459 180.192147 
L 300.875906 180.820612 
L 301.305912 180.126984 
L 301.735918 176.943126 
L 302.165924 177.815715 
L 302.59593 177.380582 
L 303.025936 173.995995 
L 303.455942 175.651941 
L 304.74596 171.236102 
L 305.175966 157.430139 
L 305.605972 162.725733 
L 306.035978 170.690358 
L 306.465984 172.152137 
L 307.325996 170.740023 
L 307.756002 169.355151 
L 308.186008 170.390514 
L 308.616014 170.096725 
L 309.04602 171.186336 
L 309.476026 168.726495 
L 309.906033 170.899183 
L 310.766045 168.643087 
L 311.196051 168.611401 
L 311.626057 169.285438 
L 312.056063 166.465765 
L 312.486069 165.98899 
L 312.916075 163.628219 
L 313.346081 165.796273 
L 313.776087 167.175157 
L 314.206093 164.527092 
L 315.066105 157.142225 
L 315.496111 158.756184 
L 315.926117 157.426638 
L 316.356123 156.700524 
L 316.786129 154.975954 
L 317.216135 155.69303 
L 317.646141 155.893494 
L 318.076147 155.713304 
L 318.506153 155.1399 
L 318.936159 154.225393 
L 319.366165 151.672966 
L 319.796171 154.897924 
L 320.226177 155.810926 
L 320.656183 155.982686 
L 321.086189 157.433838 
L 321.516195 158.239166 
L 322.376207 157.940167 
L 322.806213 158.499679 
L 323.236219 158.176877 
L 323.666225 158.90877 
L 324.526237 155.955714 
L 324.956243 157.814384 
L 325.386249 157.182948 
L 325.816255 155.611336 
L 326.246261 155.784952 
L 326.676267 155.028043 
L 327.106273 152.671343 
L 327.536279 139.6424 
L 327.966285 139.295535 
L 328.396291 152.048488 
L 328.826297 153.83665 
L 329.256303 154.202745 
L 329.686309 152.971982 
L 330.116315 151.309711 
L 330.976328 149.447073 
L 331.406334 149.394324 
L 331.83634 150.012302 
L 332.266346 149.569603 
L 332.696352 139.625232 
L 333.126358 135.285061 
L 333.556364 133.59495 
L 333.98637 134.85507 
L 335.276388 130.439417 
L 335.706394 130.749353 
L 336.1364 133.087966 
L 336.566406 130.944935 
L 336.996412 130.127046 
L 337.426418 132.040511 
L 337.856424 133.092505 
L 338.716436 129.784499 
L 339.146442 126.635112 
L 339.576448 126.396886 
L 340.006454 124.6876 
L 340.43646 126.163998 
L 340.866466 125.961025 
L 341.296472 127.12773 
L 341.726478 126.009788 
L 342.156484 126.019108 
L 342.58649 127.004157 
L 343.016496 128.746064 
L 343.446502 127.913708 
L 343.876508 129.91238 
L 344.73652 130.053442 
L 345.166526 130.824846 
L 345.596532 129.419255 
L 346.026538 129.617649 
L 346.456544 128.506123 
L 346.88655 126.494321 
L 347.316556 128.788597 
L 347.746562 129.250307 
L 348.176568 129.025877 
L 348.606574 131.604199 
L 349.03658 129.444451 
L 349.896592 120.712966 
L 350.326598 113.767753 
L 350.756604 119.743032 
L 351.18661 124.158493 
L 351.616616 123.389463 
L 352.046623 124.348746 
L 352.476629 123.160335 
L 353.336641 122.142766 
L 353.766647 122.293768 
L 354.196653 124.02365 
L 354.626659 123.595632 
L 355.056665 123.379433 
L 355.486671 121.346679 
L 355.916677 124.677293 
L 356.776689 121.541065 
L 357.206695 123.905664 
L 357.636701 122.532102 
L 358.066707 118.957877 
L 358.496713 119.309038 
L 358.926719 117.183332 
L 359.356725 115.937746 
L 359.786731 117.893378 
L 360.216737 118.288768 
L 361.076749 110.468306 
L 361.506755 110.335165 
L 361.936761 109.948277 
L 362.366767 109.156198 
L 362.796773 106.280597 
L 363.226779 107.79769 
L 363.656785 106.362432 
L 364.086791 106.472372 
L 364.516797 107.772821 
L 364.946803 110.95431 
L 365.376809 111.692016 
L 365.806815 111.744985 
L 366.236821 113.340965 
L 366.666827 111.022778 
L 367.526839 112.261806 
L 367.956845 112.550781 
L 368.386851 112.313935 
L 368.816857 111.846339 
L 369.246863 114.3604 
L 369.676869 113.203663 
L 370.106875 113.75681 
L 370.536881 112.113094 
L 370.966887 113.252217 
L 371.826899 110.448652 
L 372.256905 104.860578 
L 372.686911 91.775678 
L 373.116918 99.320438 
L 373.546924 104.855594 
L 373.97693 105.214755 
L 374.406936 107.048398 
L 374.836942 105.313053 
L 375.266948 108.23775 
L 375.696954 107.204468 
L 376.12696 103.571202 
L 376.556966 105.560797 
L 376.986972 105.553981 
L 377.416978 107.992611 
L 377.846984 103.855711 
L 378.27699 96.854198 
L 378.706996 97.019887 
L 379.137002 108.046347 
L 379.567008 95.667913 
L 380.42702 91.999477 
L 380.857026 95.908727 
L 381.287032 95.72007 
L 381.717038 94.296725 
L 382.147044 91.023049 
L 382.57705 91.702604 
L 383.437062 83.642506 
L 383.867068 84.45651 
L 384.297074 84.219676 
L 384.72708 81.626278 
L 385.157086 81.529733 
L 385.587092 82.493313 
L 386.017098 81.165069 
L 386.447104 82.054904 
L 386.87711 82.162832 
L 387.307116 85.697129 
L 387.737122 86.578422 
L 388.597134 89.760053 
L 389.02714 87.574714 
L 389.457146 88.778933 
L 389.887152 88.918377 
L 390.317158 85.898224 
L 390.747164 89.290015 
L 391.17717 90.232036 
L 391.607176 86.951825 
L 392.037182 86.064544 
L 392.467188 88.491329 
L 392.897194 84.760149 
L 393.3272 88.393099 
L 393.757207 88.713697 
L 394.187213 84.085363 
L 395.047225 69.036104 
L 395.477231 76.738016 
L 395.907237 81.985692 
L 396.337243 81.906614 
L 396.767249 82.526413 
L 397.197255 81.31637 
L 397.627261 81.457916 
L 398.057267 82.223829 
L 398.487273 75.719371 
L 398.487273 75.719371 
" clip-path="url(#p7c6b76649f)" style="fill: none; stroke: #ff7f0e; stroke-width: 1.5; stroke-linecap: square"/>
   </g>
   <g id="line2d_16">
    <path d="M 73.832727 295.218573 
L 80.282818 295.18713 
L 80.712824 295.258095 
L 81.572836 295.141338 
L 82.002842 295.230801 
L 82.432848 295.12629 
L 82.862854 295.230193 
L 84.152872 295.124351 
L 96.19304 295.191319 
L 96.623046 295.147568 
L 97.053052 295.248251 
L 98.34307 294.931482 
L 98.773076 295.133924 
L 108.663215 295.188483 
L 109.093221 295.327572 
L 110.383239 295.235216 
L 111.243251 295.153849 
L 112.103263 295.288343 
L 112.533269 295.306925 
L 112.963275 295.203841 
L 113.823287 295.329928 
L 114.683299 295.348404 
L 115.973317 295.352779 
L 120.273377 295.235594 
L 121.563396 295.237528 
L 121.993402 295.306581 
L 122.853414 295.27087 
L 123.713426 295.271598 
L 124.573438 295.281983 
L 125.003444 295.382288 
L 128.443492 295.282981 
L 132.743552 295.273622 
L 133.173558 295.400121 
L 133.603564 295.255225 
L 134.03357 295.347834 
L 134.463576 295.233124 
L 135.753594 295.313606 
L 136.1836 295.26044 
L 136.613606 295.380924 
L 137.473618 295.34687 
L 137.903624 295.253083 
L 138.763636 295.409632 
L 140.053654 295.261652 
L 140.48366 295.360898 
L 141.343672 295.214406 
L 141.773679 295.18965 
L 142.203685 295.327335 
L 142.633691 295.328727 
L 143.063697 295.202905 
L 144.353715 295.372021 
L 144.783721 295.220343 
L 146.073739 295.19893 
L 146.503745 295.048221 
L 147.793763 295.320817 
L 148.653775 295.047071 
L 149.083781 295.137967 
L 149.513787 295.014518 
L 150.803805 295.041642 
L 151.233811 295.06725 
L 151.663817 295.233846 
L 152.523829 295.147912 
L 152.953835 294.807339 
L 153.383841 295.028376 
L 153.813847 294.925184 
L 155.103865 295.123043 
L 155.533871 294.971771 
L 155.963877 295.021774 
L 156.823889 294.781258 
L 157.253895 294.837739 
L 158.113907 294.750238 
L 158.543913 294.901645 
L 159.403925 294.736132 
L 159.833931 294.995168 
L 162.843974 294.74332 
L 163.703986 294.6979 
L 164.133992 294.719979 
L 164.563998 294.492521 
L 164.994004 294.434771 
L 165.854016 294.626287 
L 166.714028 294.579695 
L 167.144034 294.856846 
L 168.864058 294.517147 
L 170.154076 294.555282 
L 170.584082 294.843676 
L 171.8741 294.360231 
L 172.734112 294.446802 
L 173.164118 294.383431 
L 173.594124 294.620322 
L 174.02413 294.38921 
L 174.884142 294.682154 
L 176.17416 294.277556 
L 177.464178 294.382591 
L 177.894184 294.157309 
L 178.32419 294.302656 
L 179.184202 293.981968 
L 179.614208 294.14163 
L 180.044214 294.028386 
L 180.47422 294.103523 
L 181.334232 294.05224 
L 182.194244 294.044336 
L 182.62425 293.929637 
L 183.054256 294.055482 
L 184.344275 293.874351 
L 184.774281 294.085262 
L 185.634293 293.922922 
L 186.064299 293.624138 
L 186.494305 293.487851 
L 186.924311 293.157055 
L 187.784323 293.11022 
L 188.214329 292.836536 
L 188.644335 293.379636 
L 189.074341 293.341067 
L 189.504347 293.02949 
L 189.934353 292.972879 
L 190.364359 292.54918 
L 190.794365 292.773148 
L 191.224371 292.184257 
L 192.084383 292.698862 
L 192.514389 292.589999 
L 192.944395 293.715112 
L 193.374401 293.635171 
L 193.804407 292.384602 
L 194.234413 292.247261 
L 194.664419 292.296148 
L 195.094425 292.531781 
L 195.524431 291.560742 
L 195.954437 292.375237 
L 196.384443 292.380193 
L 196.814449 291.918049 
L 197.244455 292.52161 
L 197.674461 291.694165 
L 198.104467 291.818037 
L 198.534473 292.279172 
L 198.964479 292.310863 
L 199.394485 292.225854 
L 199.824491 292.53341 
L 200.254497 292.019701 
L 200.684503 292.324078 
L 201.114509 291.678531 
L 201.544515 292.176414 
L 201.974521 291.882896 
L 202.404527 292.299423 
L 202.834533 292.092606 
L 203.264539 292.451496 
L 204.124551 291.395939 
L 204.554557 292.250593 
L 204.984564 292.111865 
L 205.41457 291.658691 
L 205.844576 291.938655 
L 206.274582 292.384083 
L 206.704588 291.924882 
L 207.134594 291.660049 
L 207.5646 291.530494 
L 207.994606 290.96544 
L 208.424612 291.238769 
L 208.854618 291.063659 
L 209.284624 290.578061 
L 209.71463 290.711421 
L 210.144636 287.717259 
L 210.574642 291.619603 
L 211.004648 291.938672 
L 211.434654 290.874426 
L 211.86466 290.870401 
L 212.724672 290.22513 
L 213.154678 290.27175 
L 213.584684 289.970271 
L 214.01469 290.106417 
L 214.874702 289.473295 
L 215.304708 291.512323 
L 215.734714 292.286563 
L 216.16472 288.983463 
L 216.594726 289.34926 
L 217.454738 288.91897 
L 217.884744 289.110486 
L 218.31475 289.058526 
L 218.744756 289.704401 
L 219.174762 287.228221 
L 219.604768 289.008969 
L 220.034774 289.000653 
L 220.46478 288.277014 
L 220.894786 288.652818 
L 221.324792 289.228889 
L 221.754798 288.865776 
L 222.184804 288.952048 
L 222.61481 287.64334 
L 223.044816 288.247967 
L 223.474822 287.817513 
L 223.904828 287.150147 
L 224.334834 288.692312 
L 224.76484 287.520466 
L 225.194846 288.645714 
L 225.624852 287.50203 
L 226.054859 287.99229 
L 226.484865 287.348113 
L 226.914871 288.914482 
L 227.344877 288.575268 
L 227.774883 287.527716 
L 228.634895 288.475741 
L 229.064901 288.145243 
L 229.494907 286.901264 
L 229.924913 287.694966 
L 230.354919 285.86438 
L 230.784925 286.438088 
L 231.214931 285.509746 
L 232.074943 284.662725 
L 232.934955 284.823216 
L 233.364961 284.886716 
L 233.794967 283.703887 
L 234.224973 284.964498 
L 234.654979 284.634642 
L 235.084985 283.435249 
L 235.514991 283.710731 
L 235.944997 283.440774 
L 236.375003 283.560012 
L 237.235015 284.937633 
L 237.665021 286.946035 
L 238.095027 288.155493 
L 238.525033 283.452247 
L 238.955039 283.006126 
L 239.385045 283.060905 
L 239.815051 283.566005 
L 240.245057 283.479208 
L 240.675063 283.229204 
L 241.535075 284.154648 
L 241.965081 283.004232 
L 242.395087 283.279635 
L 242.825093 282.517607 
L 243.255099 283.798216 
L 243.685105 283.912007 
L 244.115111 282.760068 
L 244.975123 281.655432 
L 245.405129 280.96482 
L 245.835135 283.200433 
L 246.265141 282.085727 
L 246.695148 281.734245 
L 247.125154 282.805865 
L 247.55516 281.753741 
L 247.985166 282.575898 
L 248.415172 282.476856 
L 248.845178 281.982338 
L 249.275184 283.108179 
L 249.70519 283.673188 
L 250.135196 283.161396 
L 250.565202 282.258091 
L 250.995208 282.653697 
L 251.425214 283.600323 
L 251.85522 283.03979 
L 252.715232 280.82912 
L 253.145238 280.969956 
L 253.575244 278.883462 
L 254.435256 278.849324 
L 254.865262 277.5741 
L 255.295268 279.026305 
L 255.725274 278.811944 
L 256.15528 277.498985 
L 256.585286 276.803603 
L 257.015292 278.469325 
L 257.445298 277.002353 
L 258.30531 276.741541 
L 259.165322 277.336623 
L 259.595328 275.401429 
L 260.025334 278.256644 
L 260.45534 282.750275 
L 261.315352 275.45159 
L 261.745358 275.738044 
L 262.175364 275.141857 
L 262.60537 275.951971 
L 263.035376 276.465252 
L 263.465382 276.270105 
L 263.895388 276.235048 
L 264.325394 276.810166 
L 264.7554 275.863945 
L 265.185406 275.759203 
L 265.615412 275.219881 
L 266.045418 276.279402 
L 266.475424 276.440434 
L 266.90543 276.079034 
L 267.335436 276.139073 
L 267.765443 272.6068 
L 268.195449 277.170105 
L 268.625455 274.247325 
L 269.055461 274.299719 
L 269.485467 275.144428 
L 269.915473 277.384732 
L 270.345479 276.478856 
L 270.775485 275.014675 
L 271.205491 274.468187 
L 271.635497 277.53341 
L 272.065503 276.964066 
L 272.495509 276.973802 
L 272.925515 276.017659 
L 273.355521 277.007224 
L 273.785527 277.610436 
L 274.215533 277.866135 
L 274.645539 278.260184 
L 275.075545 275.987124 
L 275.505551 274.342133 
L 275.935557 274.67607 
L 276.365563 273.993318 
L 276.795569 274.967869 
L 277.225575 273.314906 
L 277.655581 273.69128 
L 278.085587 274.564585 
L 278.515593 273.152634 
L 278.945599 273.715992 
L 279.375605 275.186876 
L 279.805611 273.083524 
L 280.235617 271.94802 
L 280.665623 273.410566 
L 281.095629 273.550173 
L 281.525635 289.665713 
L 281.955641 278.623766 
L 282.385647 275.482943 
L 282.815653 281.022265 
L 283.245659 279.59684 
L 283.675665 273.071679 
L 284.105671 274.312297 
L 284.535677 272.750929 
L 284.965683 272.821787 
L 285.395689 272.667684 
L 285.825695 275.567236 
L 286.255701 273.900207 
L 286.685707 272.980304 
L 287.115713 272.447155 
L 287.545719 273.980097 
L 287.975725 274.152286 
L 288.405731 274.925584 
L 288.835738 274.677936 
L 289.265744 269.996279 
L 289.69575 272.197816 
L 290.125756 270.982602 
L 290.555762 274.464539 
L 290.985768 272.297501 
L 291.415774 271.753403 
L 292.275786 273.121766 
L 292.705792 271.965661 
L 293.565804 274.638871 
L 293.99581 275.672322 
L 294.425816 276.378844 
L 295.285828 274.580743 
L 296.14584 276.730772 
L 296.575846 275.941118 
L 297.005852 275.540822 
L 297.435858 275.65242 
L 297.865864 271.072477 
L 298.29587 270.555312 
L 298.725876 270.496203 
L 299.155882 270.556394 
L 299.585888 270.440568 
L 300.015894 270.994216 
L 300.4459 269.603532 
L 300.875906 270.15479 
L 301.305912 267.111312 
L 301.735918 270.391292 
L 302.165924 269.062986 
L 302.59593 266.77247 
L 303.025936 269.339247 
L 303.455942 267.191749 
L 303.885948 268.606852 
L 304.315954 268.652023 
L 304.74596 270.032739 
L 305.175966 282.495208 
L 306.035978 269.78424 
L 306.465984 269.31577 
L 306.89599 269.035118 
L 307.325996 268.362384 
L 307.756002 270.907448 
L 308.186008 269.659951 
L 308.616014 270.458756 
L 309.04602 267.583639 
L 309.476026 269.420495 
L 310.336039 267.928993 
L 310.766045 269.071105 
L 311.196051 268.550049 
L 311.626057 267.824679 
L 312.056063 270.481409 
L 312.486069 267.130521 
L 312.916075 269.379795 
L 313.346081 267.51383 
L 313.776087 267.060768 
L 314.206093 267.166018 
L 315.066105 270.656423 
L 315.496111 268.54232 
L 315.926117 270.043655 
L 316.356123 270.410134 
L 316.786129 270.177337 
L 317.216135 271.074411 
L 317.646141 269.155342 
L 318.076147 270.930349 
L 318.506153 270.360492 
L 318.936159 270.58296 
L 319.366165 273.077678 
L 320.226177 267.527367 
L 320.656183 267.524937 
L 321.086189 267.686741 
L 321.516195 266.334879 
L 321.946201 267.131006 
L 322.376207 267.565908 
L 322.806213 264.939296 
L 323.236219 266.500095 
L 323.666225 266.10087 
L 324.526237 267.816279 
L 324.956243 264.10597 
L 325.816255 266.296817 
L 326.246261 266.25685 
L 326.676267 265.936997 
L 327.106273 267.822678 
L 327.536279 279.488715 
L 327.966285 279.23986 
L 328.396291 267.329096 
L 328.826297 265.79134 
L 329.256303 265.481578 
L 329.686309 265.83005 
L 330.116315 266.436447 
L 330.546321 267.958773 
L 330.976328 267.350402 
L 331.406334 268.014842 
L 331.83634 267.132523 
L 332.266346 266.59766 
L 332.696352 276.780927 
L 333.126358 281.792638 
L 333.556364 283.176607 
L 334.416376 280.761115 
L 335.276388 282.000904 
L 335.706394 281.98947 
L 336.1364 279.018818 
L 336.566406 279.058273 
L 336.996412 280.556637 
L 337.426418 275.624552 
L 337.856424 276.988337 
L 338.28643 276.545525 
L 338.716436 275.562697 
L 339.146442 279.511797 
L 339.576448 278.043049 
L 340.006454 278.600503 
L 340.43646 277.234294 
L 340.866466 276.573123 
L 341.296472 277.572752 
L 341.726478 276.88594 
L 342.156484 277.553335 
L 342.58649 276.965323 
L 343.016496 274.360722 
L 343.446502 274.456375 
L 343.876508 271.288112 
L 344.306514 273.482332 
L 344.73652 273.498637 
L 345.166526 271.708096 
L 345.596532 273.691179 
L 346.026538 274.892923 
L 346.456544 274.915515 
L 346.88655 274.393636 
L 347.316556 276.305568 
L 348.176568 273.295235 
L 348.606574 272.092673 
L 349.03658 274.351825 
L 349.466586 275.973576 
L 349.896592 279.717808 
L 350.326598 284.61191 
L 351.18661 274.463615 
L 351.616616 275.466373 
L 352.906635 274.608742 
L 353.336641 276.258823 
L 353.766647 275.804865 
L 354.196653 271.444724 
L 354.626659 271.294168 
L 355.056665 269.720278 
L 355.486671 274.692601 
L 355.916677 272.336899 
L 356.346683 273.145356 
L 356.776689 274.331438 
L 357.206695 272.117148 
L 357.636701 268.306055 
L 358.066707 275.34625 
L 358.496713 272.997866 
L 358.926719 275.606217 
L 359.356725 277.379488 
L 359.786731 270.513438 
L 360.216737 269.490485 
L 360.646743 271.367196 
L 361.076749 275.257063 
L 361.506755 277.176888 
L 361.936761 275.099882 
L 362.366767 275.407636 
L 362.796773 277.010838 
L 363.226779 275.033591 
L 363.656785 275.023178 
L 364.086791 275.12938 
L 364.516797 277.333928 
L 364.946803 272.262342 
L 365.376809 270.32787 
L 365.806815 272.55099 
L 366.236821 269.696333 
L 366.666827 271.571449 
L 367.096833 269.156633 
L 367.956845 271.118449 
L 368.386851 271.037657 
L 368.816857 271.95871 
L 369.246863 269.300976 
L 369.676869 268.828283 
L 370.106875 270.159132 
L 370.536881 269.539349 
L 370.966887 267.599758 
L 371.396893 269.014246 
L 371.826899 268.995691 
L 372.256905 273.089585 
L 372.686911 283.030082 
L 373.116918 277.629792 
L 373.546924 276.09999 
L 373.97693 271.229151 
L 374.406936 269.183565 
L 374.836942 273.946494 
L 375.266948 269.000591 
L 375.696954 268.025436 
L 376.12696 271.604837 
L 376.556966 270.465927 
L 376.986972 270.438031 
L 377.416978 268.650839 
L 377.846984 265.129363 
L 378.27699 271.313314 
L 378.706996 271.375924 
L 379.137002 258.78429 
L 379.567008 270.649359 
L 379.997014 269.558287 
L 380.42702 275.05453 
L 381.287032 269.723581 
L 381.717038 273.096768 
L 382.147044 273.054613 
L 382.57705 270.686761 
L 383.007056 270.816953 
L 383.437062 275.753176 
L 383.867068 268.870658 
L 384.297074 271.565822 
L 384.72708 275.954751 
L 385.157086 277.99383 
L 385.587092 275.260998 
L 386.017098 276.93437 
L 386.87711 276.527737 
L 387.307116 275.150483 
L 387.737122 273.26368 
L 388.167128 270.213887 
L 388.597134 268.869305 
L 389.02714 269.439174 
L 389.457146 268.645399 
L 389.887152 266.530229 
L 390.317158 270.945093 
L 390.747164 271.316528 
L 391.17717 267.842061 
L 391.607176 267.282966 
L 392.037182 271.352019 
L 392.467188 267.076915 
L 392.897194 272.727825 
L 393.3272 267.361368 
L 393.757207 267.016121 
L 394.187213 269.213824 
L 394.617219 273.772089 
L 395.047225 280.019896 
L 395.907237 269.831819 
L 396.337243 268.414163 
L 396.767249 268.235501 
L 397.197255 271.996208 
L 398.057267 268.885102 
L 398.487273 295.488 
L 398.487273 295.488 
" clip-path="url(#p7c6b76649f)" style="fill: none; stroke: #2ca02c; stroke-width: 1.5; stroke-linecap: square"/>
   </g>
   <g id="patch_3">
    <path d="M 57.6 307.584 
L 57.6 41.472 
" style="fill: none; stroke: #000000; stroke-width: 0.8; stroke-linejoin: miter; stroke-linecap: square"/>
   </g>
   <g id="patch_4">
    <path d="M 414.72 307.584 
L 414.72 41.472 
" style="fill: none; stroke: #000000; stroke-width: 0.8; stroke-linejoin: miter; stroke-linecap: square"/>
   </g>
   <g id="patch_5">
    <path d="M 57.6 307.584 
L 414.72 307.584 
" style="fill: none; stroke: #000000; stroke-width: 0.8; stroke-linejoin: miter; stroke-linecap: square"/>
   </g>
   <g id="patch_6">
    <path d="M 57.6 41.472 
L 414.72 41.472 
" style="fill: none; stroke: #000000; stroke-width: 0.8; stroke-linejoin: miter; stroke-linecap: square"/>
   </g>
   <g id="legend_1">
    <g id="patch_7">
     <path d="M 64.6 93.506375 
L 186.25625 93.506375 
Q 188.25625 93.506375 188.25625 91.506375 
L 188.25625 48.472 
Q 188.25625 46.472 186.25625 46.472 
L 64.6 46.472 
Q 62.6 46.472 62.6 48.472 
L 62.6 91.506375 
Q 62.6 93.506375 64.6 93.506375 
z
" style="fill: #ffffff; opacity: 0.8; stroke: #cccccc; stroke-linejoin: miter"/>
    </g>
    <g id="line2d_17">
     <path d="M 66.6 54.570438 
L 76.6 54.570438 
L 86.6 54.570438 
" style="fill: none; stroke: #1f77b4; stroke-width: 1.5; stroke-linecap: square"/>
    </g>
    <g id="text_16">
     <!-- Weekly maximum -->
     <g transform="translate(94.6 58.070438) scale(0.1 -0.1)">
      <defs>
       <path id="DejaVuSans-57" d="M 213 4666 
L 850 4666 
L 1831 722 
L 2809 4666 
L 3519 4666 
L 4500 722 
L 5478 4666 
L 6119 4666 
L 4947 0 
L 4153 0 
L 3169 4050 
L 2175 0 
L 1381 0 
L 213 4666 
z
" transform="scale(0.015625)"/>
       <path id="DejaVuSans-6b" d="M 581 4863 
L 1159 4863 
L 1159 1991 
L 2875 3500 
L 3609 3500 
L 1753 1863 
L 3688 0 
L 2938 0 
L 1159 1709 
L 1159 0 
L 581 0 
L 581 4863 
z
" transform="scale(0.015625)"/>
       <path id="DejaVuSans-79" d="M 2059 -325 
Q 1816 -950 1584 -1140 
Q 1353 -1331 966 -1331 
L 506 -1331 
L 506 -850 
L 844 -850 
Q 1081 -850 1212 -737 
Q 1344 -625 1503 -206 
L 1606 56 
L 191 3500 
L 800 3500 
L 1894 763 
L 2988 3500 
L 3597 3500 
L 2059 -325 
z
" transform="scale(0.015625)"/>
       <path id="DejaVuSans-6d" d="M 3328 2828 
Q 3544 3216 3844 3400 
Q 4144 3584 4550 3584 
Q 5097 3584 5394 3201 
Q 5691 2819 5691 2113 
L 5691 0 
L 5113 0 
L 5113 2094 
Q 5113 2597 4934 2840 
Q 4756 3084 4391 3084 
Q 3944 3084 3684 2787 
Q 3425 2491 3425 1978 
L 3425 0 
L 2847 0 
L 2847 2094 
Q 2847 2600 2669 2842 
Q 2491 3084 2119 3084 
Q 1678 3084 1418 2786 
Q 1159 2488 1159 1978 
L 1159 0 
L 581 0 
L 581 3500 
L 1159 3500 
L 1159 2956 
Q 1356 3278 1631 3431 
Q 1906 3584 2284 3584 
Q 2666 3584 2933 3390 
Q 3200 3197 3328 2828 
z
" transform="scale(0.015625)"/>
       <path id="DejaVuSans-78" d="M 3513 3500 
L 2247 1797 
L 3578 0 
L 2900 0 
L 1881 1375 
L 863 0 
L 184 0 
L 1544 1831 
L 300 3500 
L 978 3500 
L 1906 2253 
L 2834 3500 
L 3513 3500 
z
" transform="scale(0.015625)"/>
       <path id="DejaVuSans-75" d="M 544 1381 
L 544 3500 
L 1119 3500 
L 1119 1403 
Q 1119 906 1312 657 
Q 1506 409 1894 409 
Q 2359 409 2629 706 
Q 2900 1003 2900 1516 
L 2900 3500 
L 3475 3500 
L 3475 0 
L 2900 0 
L 2900 538 
Q 2691 219 2414 64 
Q 2138 -91 1772 -91 
Q 1169 -91 856 284 
Q 544 659 544 1381 
z
M 1991 3584 
L 1991 3584 
z
" transform="scale(0.015625)"/>
      </defs>
      <use xlink:href="#DejaVuSans-57"/>
      <use xlink:href="#DejaVuSans-65" x="93.001953"/>
      <use xlink:href="#DejaVuSans-65" x="154.525391"/>
      <use xlink:href="#DejaVuSans-6b" x="216.048828"/>
      <use xlink:href="#DejaVuSans-6c" x="273.958984"/>
      <use xlink:href="#DejaVuSans-79" x="301.742188"/>
      <use xlink:href="#DejaVuSans-20" x="360.921875"/>
      <use xlink:href="#DejaVuSans-6d" x="392.708984"/>
      <use xlink:href="#DejaVuSans-61" x="490.121094"/>
      <use xlink:href="#DejaVuSans-78" x="551.400391"/>
      <use xlink:href="#DejaVuSans-69" x="610.580078"/>
      <use xlink:href="#DejaVuSans-6d" x="638.363281"/>
      <use xlink:href="#DejaVuSans-75" x="735.775391"/>
      <use xlink:href="#DejaVuSans-6d" x="799.154297"/>
     </g>
    </g>
    <g id="line2d_18">
     <path d="M 66.6 69.248563 
L 76.6 69.248563 
L 86.6 69.248563 
" style="fill: none; stroke: #ff7f0e; stroke-width: 1.5; stroke-linecap: square"/>
    </g>
    <g id="text_17">
     <!-- Weekly minimum -->
     <g transform="translate(94.6 72.748563) scale(0.1 -0.1)">
      <defs>
       <path id="DejaVuSans-6e" d="M 3513 2113 
L 3513 0 
L 2938 0 
L 2938 2094 
Q 2938 2591 2744 2837 
Q 2550 3084 2163 3084 
Q 1697 3084 1428 2787 
Q 1159 2491 1159 1978 
L 1159 0 
L 581 0 
L 581 3500 
L 1159 3500 
L 1159 2956 
Q 1366 3272 1645 3428 
Q 1925 3584 2291 3584 
Q 2894 3584 3203 3211 
Q 3513 2838 3513 2113 
z
" transform="scale(0.015625)"/>
      </defs>
      <use xlink:href="#DejaVuSans-57"/>
      <use xlink:href="#DejaVuSans-65" x="93.001953"/>
      <use xlink:href="#DejaVuSans-65" x="154.525391"/>
      <use xlink:href="#DejaVuSans-6b" x="216.048828"/>
      <use xlink:href="#DejaVuSans-6c" x="273.958984"/>
      <use xlink:href="#DejaVuSans-79" x="301.742188"/>
      <use xlink:href="#DejaVuSans-20" x="360.921875"/>
      <use xlink:href="#DejaVuSans-6d" x="392.708984"/>
      <use xlink:href="#DejaVuSans-69" x="490.121094"/>
      <use xlink:href="#DejaVuSans-6e" x="517.904297"/>
      <use xlink:href="#DejaVuSans-69" x="581.283203"/>
      <use xlink:href="#DejaVuSans-6d" x="609.066406"/>
      <use xlink:href="#DejaVuSans-75" x="706.478516"/>
      <use xlink:href="#DejaVuSans-6d" x="769.857422"/>
     </g>
    </g>
    <g id="line2d_19">
     <path d="M 66.6 83.926688 
L 76.6 83.926688 
L 86.6 83.926688 
" style="fill: none; stroke: #2ca02c; stroke-width: 1.5; stroke-linecap: square"/>
    </g>
    <g id="text_18">
     <!-- Weekly range -->
     <g transform="translate(94.6 87.426688) scale(0.1 -0.1)">
      <use xlink:href="#DejaVuSans-57"/>
      <use xlink:href="#DejaVuSans-65" x="93.001953"/>
      <use xlink:href="#DejaVuSans-65" x="154.525391"/>
      <use xlink:href="#DejaVuSans-6b" x="216.048828"/>
      <use xlink:href="#DejaVuSans-6c" x="273.958984"/>
      <use xlink:href="#DejaVuSans-79" x="301.742188"/>
      <use xlink:href="#DejaVuSans-20" x="360.921875"/>
      <use xlink:href="#DejaVuSans-72" x="392.708984"/>
      <use xlink:href="#DejaVuSans-61" x="433.822266"/>
      <use xlink:href="#DejaVuSans-6e" x="495.101562"/>
      <use xlink:href="#DejaVuSans-67" x="558.480469"/>
      <use xlink:href="#DejaVuSans-65" x="621.957031"/>
     </g>
    </g>
   </g>
  </g>
 </g>
 <defs>
  <clipPath id="p7c6b76649f">
   <rect x="57.6" y="41.472" width="357.12" height="266.112"/>
  </clipPath>
 </defs>
</svg>
