<?xml version="1.0" encoding="utf-8" standalone="no"?>
<!DOCTYPE svg PUBLIC "-//W3C//DTD SVG 1.1//EN"
  "http://www.w3.org/Graphics/SVG/1.1/DTD/svg11.dtd">
<svg xmlns:xlink="http://www.w3.org/1999/xlink" width="460.8pt" height="345.6pt" viewBox="0 0 460.8 345.6" xmlns="http://www.w3.org/2000/svg" version="1.1">
 <metadata>
  <rdf:RDF xmlns:dc="http://purl.org/dc/elements/1.1/" xmlns:cc="http://creativecommons.org/ns#" xmlns:rdf="http://www.w3.org/1999/02/22-rdf-syntax-ns#">
   <cc:Work>
    <dc:type rdf:resource="http://purl.org/dc/dcmitype/StillImage"/>
    <dc:date>2025-08-27T05:37:41.720243</dc:date>
    <dc:format>image/svg+xml</dc:format>
    <dc:creator>
     <cc:Agent>
      <dc:title>Matplotlib v3.10.5, https://matplotlib.org/</dc:title>
     </cc:Agent>
    </dc:creator>
   </cc:Work>
  </rdf:RDF>
 </metadata>
 <defs>
  <style type="text/css">*{stroke-linejoin: round; stroke-linecap: butt}</style>
 </defs>
 <g id="figure_1">
  <g id="patch_1">
   <path d="M 0 345.6 
L 460.8 345.6 
L 460.8 0 
L 0 0 
z
" style="fill: #ffffff"/>
  </g>
  <g id="axes_1">
   <g id="patch_2">
    <path d="M 57.6 307.584 
L 414.72 307.584 
L 414.72 41.472 
L 57.6 41.472 
z
" style="fill: #ffffff"/>
   </g>
   <g id="matplotlib.axis_1">
    <g id="xtick_1">
     <g id="line2d_1">
      <defs>
       <path id="m789c5a53d7" d="M 0 0 
L 0 3.5 
" style="stroke: #000000; stroke-width: 0.8"/>
      </defs>
      <g>
       <use xlink:href="#m789c5a53d7" x="61.045688" y="307.584" style="stroke: #000000; stroke-width: 0.8"/>
      </g>
     </g>
     <g id="text_1">
      <!-- 2008 -->
      <g transform="translate(48.320688 322.182437) scale(0.1 -0.1)">
       <defs>
        <path id="DejaVuSans-32" d="M 1228 531 
L 3431 531 
L 3431 0 
L 469 0 
L 469 531 
Q 828 903 1448 1529 
Q 2069 2156 2228 2338 
Q 2531 2678 2651 2914 
Q 2772 3150 2772 3378 
Q 2772 3750 2511 3984 
Q 2250 4219 1831 4219 
Q 1534 4219 1204 4116 
Q 875 4013 500 3803 
L 500 4441 
Q 881 4594 1212 4672 
Q 1544 4750 1819 4750 
Q 2544 4750 2975 4387 
Q 3406 4025 3406 3419 
Q 3406 3131 3298 2873 
Q 3191 2616 2906 2266 
Q 2828 2175 2409 1742 
Q 1991 1309 1228 531 
z
" transform="scale(0.015625)"/>
        <path id="DejaVuSans-30" d="M 2034 4250 
Q 1547 4250 1301 3770 
Q 1056 3291 1056 2328 
Q 1056 1369 1301 889 
Q 1547 409 2034 409 
Q 2525 409 2770 889 
Q 3016 1369 3016 2328 
Q 3016 3291 2770 3770 
Q 2525 4250 2034 4250 
z
M 2034 4750 
Q 2819 4750 3233 4129 
Q 3647 3509 3647 2328 
Q 3647 1150 3233 529 
Q 2819 -91 2034 -91 
Q 1250 -91 836 529 
Q 422 1150 422 2328 
Q 422 3509 836 4129 
Q 1250 4750 2034 4750 
z
" transform="scale(0.015625)"/>
        <path id="DejaVuSans-38" d="M 2034 2216 
Q 1584 2216 1326 1975 
Q 1069 1734 1069 1313 
Q 1069 891 1326 650 
Q 1584 409 2034 409 
Q 2484 409 2743 651 
Q 3003 894 3003 1313 
Q 3003 1734 2745 1975 
Q 2488 2216 2034 2216 
z
M 1403 2484 
Q 997 2584 770 2862 
Q 544 3141 544 3541 
Q 544 4100 942 4425 
Q 1341 4750 2034 4750 
Q 2731 4750 3128 4425 
Q 3525 4100 3525 3541 
Q 3525 3141 3298 2862 
Q 3072 2584 2669 2484 
Q 3125 2378 3379 2068 
Q 3634 1759 3634 1313 
Q 3634 634 3220 271 
Q 2806 -91 2034 -91 
Q 1263 -91 848 271 
Q 434 634 434 1313 
Q 434 1759 690 2068 
Q 947 2378 1403 2484 
z
M 1172 3481 
Q 1172 3119 1398 2916 
Q 1625 2713 2034 2713 
Q 2441 2713 2670 2916 
Q 2900 3119 2900 3481 
Q 2900 3844 2670 4047 
Q 2441 4250 2034 4250 
Q 1625 4250 1398 4047 
Q 1172 3844 1172 3481 
z
" transform="scale(0.015625)"/>
       </defs>
       <use xlink:href="#DejaVuSans-32"/>
       <use xlink:href="#DejaVuSans-30" transform="translate(63.623047 0)"/>
       <use xlink:href="#DejaVuSans-30" transform="translate(127.246094 0)"/>
       <use xlink:href="#DejaVuSans-38" transform="translate(190.869141 0)"/>
      </g>
     </g>
    </g>
    <g id="xtick_2">
     <g id="line2d_2">
      <g>
       <use xlink:href="#m789c5a53d7" x="99.3544" y="307.584" style="stroke: #000000; stroke-width: 0.8"/>
      </g>
     </g>
     <g id="text_2">
      <!-- 2010 -->
      <g transform="translate(86.6294 322.182437) scale(0.1 -0.1)">
       <defs>
        <path id="DejaVuSans-31" d="M 794 531 
L 1825 531 
L 1825 4091 
L 703 3866 
L 703 4441 
L 1819 4666 
L 2450 4666 
L 2450 531 
L 3481 531 
L 3481 0 
L 794 0 
L 794 531 
z
" transform="scale(0.015625)"/>
       </defs>
       <use xlink:href="#DejaVuSans-32"/>
       <use xlink:href="#DejaVuSans-30" transform="translate(63.623047 0)"/>
       <use xlink:href="#DejaVuSans-31" transform="translate(127.246094 0)"/>
       <use xlink:href="#DejaVuSans-30" transform="translate(190.869141 0)"/>
      </g>
     </g>
    </g>
    <g id="xtick_3">
     <g id="line2d_3">
      <g>
       <use xlink:href="#m789c5a53d7" x="137.610707" y="307.584" style="stroke: #000000; stroke-width: 0.8"/>
      </g>
     </g>
     <g id="text_3">
      <!-- 2012 -->
      <g transform="translate(124.885707 322.182437) scale(0.1 -0.1)">
       <use xlink:href="#DejaVuSans-32"/>
       <use xlink:href="#DejaVuSans-30" transform="translate(63.623047 0)"/>
       <use xlink:href="#DejaVuSans-31" transform="translate(127.246094 0)"/>
       <use xlink:href="#DejaVuSans-32" transform="translate(190.869141 0)"/>
      </g>
     </g>
    </g>
    <g id="xtick_4">
     <g id="line2d_4">
      <g>
       <use xlink:href="#m789c5a53d7" x="175.919419" y="307.584" style="stroke: #000000; stroke-width: 0.8"/>
      </g>
     </g>
     <g id="text_4">
      <!-- 2014 -->
      <g transform="translate(163.194419 322.182437) scale(0.1 -0.1)">
       <defs>
        <path id="DejaVuSans-34" d="M 2419 4116 
L 825 1625 
L 2419 1625 
L 2419 4116 
z
M 2253 4666 
L 3047 4666 
L 3047 1625 
L 3713 1625 
L 3713 1100 
L 3047 1100 
L 3047 0 
L 2419 0 
L 2419 1100 
L 313 1100 
L 313 1709 
L 2253 4666 
z
" transform="scale(0.015625)"/>
       </defs>
       <use xlink:href="#DejaVuSans-32"/>
       <use xlink:href="#DejaVuSans-30" transform="translate(63.623047 0)"/>
       <use xlink:href="#DejaVuSans-31" transform="translate(127.246094 0)"/>
       <use xlink:href="#DejaVuSans-34" transform="translate(190.869141 0)"/>
      </g>
     </g>
    </g>
    <g id="xtick_5">
     <g id="line2d_5">
      <g>
       <use xlink:href="#m789c5a53d7" x="214.175725" y="307.584" style="stroke: #000000; stroke-width: 0.8"/>
      </g>
     </g>
     <g id="text_5">
      <!-- 2016 -->
      <g transform="translate(201.450725 322.182437) scale(0.1 -0.1)">
       <defs>
        <path id="DejaVuSans-36" d="M 2113 2584 
Q 1688 2584 1439 2293 
Q 1191 2003 1191 1497 
Q 1191 994 1439 701 
Q 1688 409 2113 409 
Q 2538 409 2786 701 
Q 3034 994 3034 1497 
Q 3034 2003 2786 2293 
Q 2538 2584 2113 2584 
z
M 3366 4563 
L 3366 3988 
Q 3128 4100 2886 4159 
Q 2644 4219 2406 4219 
Q 1781 4219 1451 3797 
Q 1122 3375 1075 2522 
Q 1259 2794 1537 2939 
Q 1816 3084 2150 3084 
Q 2853 3084 3261 2657 
Q 3669 2231 3669 1497 
Q 3669 778 3244 343 
Q 2819 -91 2113 -91 
Q 1303 -91 875 529 
Q 447 1150 447 2328 
Q 447 3434 972 4092 
Q 1497 4750 2381 4750 
Q 2619 4750 2861 4703 
Q 3103 4656 3366 4563 
z
" transform="scale(0.015625)"/>
       </defs>
       <use xlink:href="#DejaVuSans-32"/>
       <use xlink:href="#DejaVuSans-30" transform="translate(63.623047 0)"/>
       <use xlink:href="#DejaVuSans-31" transform="translate(127.246094 0)"/>
       <use xlink:href="#DejaVuSans-36" transform="translate(190.869141 0)"/>
      </g>
     </g>
    </g>
    <g id="xtick_6">
     <g id="line2d_6">
      <g>
       <use xlink:href="#m789c5a53d7" x="252.484438" y="307.584" style="stroke: #000000; stroke-width: 0.8"/>
      </g>
     </g>
     <g id="text_6">
      <!-- 2018 -->
      <g transform="translate(239.759438 322.182437) scale(0.1 -0.1)">
       <use xlink:href="#DejaVuSans-32"/>
       <use xlink:href="#DejaVuSans-30" transform="translate(63.623047 0)"/>
       <use xlink:href="#DejaVuSans-31" transform="translate(127.246094 0)"/>
       <use xlink:href="#DejaVuSans-38" transform="translate(190.869141 0)"/>
      </g>
     </g>
    </g>
    <g id="xtick_7">
     <g id="line2d_7">
      <g>
       <use xlink:href="#m789c5a53d7" x="290.740744" y="307.584" style="stroke: #000000; stroke-width: 0.8"/>
      </g>
     </g>
     <g id="text_7">
      <!-- 2020 -->
      <g transform="translate(278.015744 322.182437) scale(0.1 -0.1)">
       <use xlink:href="#DejaVuSans-32"/>
       <use xlink:href="#DejaVuSans-30" transform="translate(63.623047 0)"/>
       <use xlink:href="#DejaVuSans-32" transform="translate(127.246094 0)"/>
       <use xlink:href="#DejaVuSans-30" transform="translate(190.869141 0)"/>
      </g>
     </g>
    </g>
    <g id="xtick_8">
     <g id="line2d_8">
      <g>
       <use xlink:href="#m789c5a53d7" x="329.049456" y="307.584" style="stroke: #000000; stroke-width: 0.8"/>
      </g>
     </g>
     <g id="text_8">
      <!-- 2022 -->
      <g transform="translate(316.324456 322.182437) scale(0.1 -0.1)">
       <use xlink:href="#DejaVuSans-32"/>
       <use xlink:href="#DejaVuSans-30" transform="translate(63.623047 0)"/>
       <use xlink:href="#DejaVuSans-32" transform="translate(127.246094 0)"/>
       <use xlink:href="#DejaVuSans-32" transform="translate(190.869141 0)"/>
      </g>
     </g>
    </g>
    <g id="xtick_9">
     <g id="line2d_9">
      <g>
       <use xlink:href="#m789c5a53d7" x="367.305763" y="307.584" style="stroke: #000000; stroke-width: 0.8"/>
      </g>
     </g>
     <g id="text_9">
      <!-- 2024 -->
      <g transform="translate(354.580763 322.182437) scale(0.1 -0.1)">
       <use xlink:href="#DejaVuSans-32"/>
       <use xlink:href="#DejaVuSans-30" transform="translate(63.623047 0)"/>
       <use xlink:href="#DejaVuSans-32" transform="translate(127.246094 0)"/>
       <use xlink:href="#DejaVuSans-34" transform="translate(190.869141 0)"/>
      </g>
     </g>
    </g>
    <g id="xtick_10">
     <g id="line2d_10">
      <g>
       <use xlink:href="#m789c5a53d7" x="405.614475" y="307.584" style="stroke: #000000; stroke-width: 0.8"/>
      </g>
     </g>
     <g id="text_10">
      <!-- 2026 -->
      <g transform="translate(392.889475 322.182437) scale(0.1 -0.1)">
       <use xlink:href="#DejaVuSans-32"/>
       <use xlink:href="#DejaVuSans-30" transform="translate(63.623047 0)"/>
       <use xlink:href="#DejaVuSans-32" transform="translate(127.246094 0)"/>
       <use xlink:href="#DejaVuSans-36" transform="translate(190.869141 0)"/>
      </g>
     </g>
    </g>
    <g id="text_11">
     <!-- Updated 2025-08-27 05:37:41.718164 - Last record 2025-08-24 -->
     <g transform="translate(75.905312 335.860562) scale(0.1 -0.1)">
      <defs>
       <path id="DejaVuSans-55" d="M 556 4666 
L 1191 4666 
L 1191 1831 
Q 1191 1081 1462 751 
Q 1734 422 2344 422 
Q 2950 422 3222 751 
Q 3494 1081 3494 1831 
L 3494 4666 
L 4128 4666 
L 4128 1753 
Q 4128 841 3676 375 
Q 3225 -91 2344 -91 
Q 1459 -91 1007 375 
Q 556 841 556 1753 
L 556 4666 
z
" transform="scale(0.015625)"/>
       <path id="DejaVuSans-70" d="M 1159 525 
L 1159 -1331 
L 581 -1331 
L 581 3500 
L 1159 3500 
L 1159 2969 
Q 1341 3281 1617 3432 
Q 1894 3584 2278 3584 
Q 2916 3584 3314 3078 
Q 3713 2572 3713 1747 
Q 3713 922 3314 415 
Q 2916 -91 2278 -91 
Q 1894 -91 1617 61 
Q 1341 213 1159 525 
z
M 3116 1747 
Q 3116 2381 2855 2742 
Q 2594 3103 2138 3103 
Q 1681 3103 1420 2742 
Q 1159 2381 1159 1747 
Q 1159 1113 1420 752 
Q 1681 391 2138 391 
Q 2594 391 2855 752 
Q 3116 1113 3116 1747 
z
" transform="scale(0.015625)"/>
       <path id="DejaVuSans-64" d="M 2906 2969 
L 2906 4863 
L 3481 4863 
L 3481 0 
L 2906 0 
L 2906 525 
Q 2725 213 2448 61 
Q 2172 -91 1784 -91 
Q 1150 -91 751 415 
Q 353 922 353 1747 
Q 353 2572 751 3078 
Q 1150 3584 1784 3584 
Q 2172 3584 2448 3432 
Q 2725 3281 2906 2969 
z
M 947 1747 
Q 947 1113 1208 752 
Q 1469 391 1925 391 
Q 2381 391 2643 752 
Q 2906 1113 2906 1747 
Q 2906 2381 2643 2742 
Q 2381 3103 1925 3103 
Q 1469 3103 1208 2742 
Q 947 2381 947 1747 
z
" transform="scale(0.015625)"/>
       <path id="DejaVuSans-61" d="M 2194 1759 
Q 1497 1759 1228 1600 
Q 959 1441 959 1056 
Q 959 750 1161 570 
Q 1363 391 1709 391 
Q 2188 391 2477 730 
Q 2766 1069 2766 1631 
L 2766 1759 
L 2194 1759 
z
M 3341 1997 
L 3341 0 
L 2766 0 
L 2766 531 
Q 2569 213 2275 61 
Q 1981 -91 1556 -91 
Q 1019 -91 701 211 
Q 384 513 384 1019 
Q 384 1609 779 1909 
Q 1175 2209 1959 2209 
L 2766 2209 
L 2766 2266 
Q 2766 2663 2505 2880 
Q 2244 3097 1772 3097 
Q 1472 3097 1187 3025 
Q 903 2953 641 2809 
L 641 3341 
Q 956 3463 1253 3523 
Q 1550 3584 1831 3584 
Q 2591 3584 2966 3190 
Q 3341 2797 3341 1997 
z
" transform="scale(0.015625)"/>
       <path id="DejaVuSans-74" d="M 1172 4494 
L 1172 3500 
L 2356 3500 
L 2356 3053 
L 1172 3053 
L 1172 1153 
Q 1172 725 1289 603 
Q 1406 481 1766 481 
L 2356 481 
L 2356 0 
L 1766 0 
Q 1100 0 847 248 
Q 594 497 594 1153 
L 594 3053 
L 172 3053 
L 172 3500 
L 594 3500 
L 594 4494 
L 1172 4494 
z
" transform="scale(0.015625)"/>
       <path id="DejaVuSans-65" d="M 3597 1894 
L 3597 1613 
L 953 1613 
Q 991 1019 1311 708 
Q 1631 397 2203 397 
Q 2534 397 2845 478 
Q 3156 559 3463 722 
L 3463 178 
Q 3153 47 2828 -22 
Q 2503 -91 2169 -91 
Q 1331 -91 842 396 
Q 353 884 353 1716 
Q 353 2575 817 3079 
Q 1281 3584 2069 3584 
Q 2775 3584 3186 3129 
Q 3597 2675 3597 1894 
z
M 3022 2063 
Q 3016 2534 2758 2815 
Q 2500 3097 2075 3097 
Q 1594 3097 1305 2825 
Q 1016 2553 972 2059 
L 3022 2063 
z
" transform="scale(0.015625)"/>
       <path id="DejaVuSans-20" transform="scale(0.015625)"/>
       <path id="DejaVuSans-35" d="M 691 4666 
L 3169 4666 
L 3169 4134 
L 1269 4134 
L 1269 2991 
Q 1406 3038 1543 3061 
Q 1681 3084 1819 3084 
Q 2600 3084 3056 2656 
Q 3513 2228 3513 1497 
Q 3513 744 3044 326 
Q 2575 -91 1722 -91 
Q 1428 -91 1123 -41 
Q 819 9 494 109 
L 494 744 
Q 775 591 1075 516 
Q 1375 441 1709 441 
Q 2250 441 2565 725 
Q 2881 1009 2881 1497 
Q 2881 1984 2565 2268 
Q 2250 2553 1709 2553 
Q 1456 2553 1204 2497 
Q 953 2441 691 2322 
L 691 4666 
z
" transform="scale(0.015625)"/>
       <path id="DejaVuSans-2d" d="M 313 2009 
L 1997 2009 
L 1997 1497 
L 313 1497 
L 313 2009 
z
" transform="scale(0.015625)"/>
       <path id="DejaVuSans-37" d="M 525 4666 
L 3525 4666 
L 3525 4397 
L 1831 0 
L 1172 0 
L 2766 4134 
L 525 4134 
L 525 4666 
z
" transform="scale(0.015625)"/>
       <path id="DejaVuSans-3a" d="M 750 794 
L 1409 794 
L 1409 0 
L 750 0 
L 750 794 
z
M 750 3309 
L 1409 3309 
L 1409 2516 
L 750 2516 
L 750 3309 
z
" transform="scale(0.015625)"/>
       <path id="DejaVuSans-33" d="M 2597 2516 
Q 3050 2419 3304 2112 
Q 3559 1806 3559 1356 
Q 3559 666 3084 287 
Q 2609 -91 1734 -91 
Q 1441 -91 1130 -33 
Q 819 25 488 141 
L 488 750 
Q 750 597 1062 519 
Q 1375 441 1716 441 
Q 2309 441 2620 675 
Q 2931 909 2931 1356 
Q 2931 1769 2642 2001 
Q 2353 2234 1838 2234 
L 1294 2234 
L 1294 2753 
L 1863 2753 
Q 2328 2753 2575 2939 
Q 2822 3125 2822 3475 
Q 2822 3834 2567 4026 
Q 2313 4219 1838 4219 
Q 1578 4219 1281 4162 
Q 984 4106 628 3988 
L 628 4550 
Q 988 4650 1302 4700 
Q 1616 4750 1894 4750 
Q 2613 4750 3031 4423 
Q 3450 4097 3450 3541 
Q 3450 3153 3228 2886 
Q 3006 2619 2597 2516 
z
" transform="scale(0.015625)"/>
       <path id="DejaVuSans-2e" d="M 684 794 
L 1344 794 
L 1344 0 
L 684 0 
L 684 794 
z
" transform="scale(0.015625)"/>
       <path id="DejaVuSans-4c" d="M 628 4666 
L 1259 4666 
L 1259 531 
L 3531 531 
L 3531 0 
L 628 0 
L 628 4666 
z
" transform="scale(0.015625)"/>
       <path id="DejaVuSans-73" d="M 2834 3397 
L 2834 2853 
Q 2591 2978 2328 3040 
Q 2066 3103 1784 3103 
Q 1356 3103 1142 2972 
Q 928 2841 928 2578 
Q 928 2378 1081 2264 
Q 1234 2150 1697 2047 
L 1894 2003 
Q 2506 1872 2764 1633 
Q 3022 1394 3022 966 
Q 3022 478 2636 193 
Q 2250 -91 1575 -91 
Q 1294 -91 989 -36 
Q 684 19 347 128 
L 347 722 
Q 666 556 975 473 
Q 1284 391 1588 391 
Q 1994 391 2212 530 
Q 2431 669 2431 922 
Q 2431 1156 2273 1281 
Q 2116 1406 1581 1522 
L 1381 1569 
Q 847 1681 609 1914 
Q 372 2147 372 2553 
Q 372 3047 722 3315 
Q 1072 3584 1716 3584 
Q 2034 3584 2315 3537 
Q 2597 3491 2834 3397 
z
" transform="scale(0.015625)"/>
       <path id="DejaVuSans-72" d="M 2631 2963 
Q 2534 3019 2420 3045 
Q 2306 3072 2169 3072 
Q 1681 3072 1420 2755 
Q 1159 2438 1159 1844 
L 1159 0 
L 581 0 
L 581 3500 
L 1159 3500 
L 1159 2956 
Q 1341 3275 1631 3429 
Q 1922 3584 2338 3584 
Q 2397 3584 2469 3576 
Q 2541 3569 2628 3553 
L 2631 2963 
z
" transform="scale(0.015625)"/>
       <path id="DejaVuSans-63" d="M 3122 3366 
L 3122 2828 
Q 2878 2963 2633 3030 
Q 2388 3097 2138 3097 
Q 1578 3097 1268 2742 
Q 959 2388 959 1747 
Q 959 1106 1268 751 
Q 1578 397 2138 397 
Q 2388 397 2633 464 
Q 2878 531 3122 666 
L 3122 134 
Q 2881 22 2623 -34 
Q 2366 -91 2075 -91 
Q 1284 -91 818 406 
Q 353 903 353 1747 
Q 353 2603 823 3093 
Q 1294 3584 2113 3584 
Q 2378 3584 2631 3529 
Q 2884 3475 3122 3366 
z
" transform="scale(0.015625)"/>
       <path id="DejaVuSans-6f" d="M 1959 3097 
Q 1497 3097 1228 2736 
Q 959 2375 959 1747 
Q 959 1119 1226 758 
Q 1494 397 1959 397 
Q 2419 397 2687 759 
Q 2956 1122 2956 1747 
Q 2956 2369 2687 2733 
Q 2419 3097 1959 3097 
z
M 1959 3584 
Q 2709 3584 3137 3096 
Q 3566 2609 3566 1747 
Q 3566 888 3137 398 
Q 2709 -91 1959 -91 
Q 1206 -91 779 398 
Q 353 888 353 1747 
Q 353 2609 779 3096 
Q 1206 3584 1959 3584 
z
" transform="scale(0.015625)"/>
      </defs>
      <use xlink:href="#DejaVuSans-55"/>
      <use xlink:href="#DejaVuSans-70" transform="translate(73.193359 0)"/>
      <use xlink:href="#DejaVuSans-64" transform="translate(136.669922 0)"/>
      <use xlink:href="#DejaVuSans-61" transform="translate(200.146484 0)"/>
      <use xlink:href="#DejaVuSans-74" transform="translate(261.425781 0)"/>
      <use xlink:href="#DejaVuSans-65" transform="translate(300.634766 0)"/>
      <use xlink:href="#DejaVuSans-64" transform="translate(362.158203 0)"/>
      <use xlink:href="#DejaVuSans-20" transform="translate(425.634766 0)"/>
      <use xlink:href="#DejaVuSans-32" transform="translate(457.421875 0)"/>
      <use xlink:href="#DejaVuSans-30" transform="translate(521.044922 0)"/>
      <use xlink:href="#DejaVuSans-32" transform="translate(584.667969 0)"/>
      <use xlink:href="#DejaVuSans-35" transform="translate(648.291016 0)"/>
      <use xlink:href="#DejaVuSans-2d" transform="translate(711.914062 0)"/>
      <use xlink:href="#DejaVuSans-30" transform="translate(747.998047 0)"/>
      <use xlink:href="#DejaVuSans-38" transform="translate(811.621094 0)"/>
      <use xlink:href="#DejaVuSans-2d" transform="translate(875.244141 0)"/>
      <use xlink:href="#DejaVuSans-32" transform="translate(911.328125 0)"/>
      <use xlink:href="#DejaVuSans-37" transform="translate(974.951172 0)"/>
      <use xlink:href="#DejaVuSans-20" transform="translate(1038.574219 0)"/>
      <use xlink:href="#DejaVuSans-30" transform="translate(1070.361328 0)"/>
      <use xlink:href="#DejaVuSans-35" transform="translate(1133.984375 0)"/>
      <use xlink:href="#DejaVuSans-3a" transform="translate(1197.607422 0)"/>
      <use xlink:href="#DejaVuSans-33" transform="translate(1231.298828 0)"/>
      <use xlink:href="#DejaVuSans-37" transform="translate(1294.921875 0)"/>
      <use xlink:href="#DejaVuSans-3a" transform="translate(1358.544922 0)"/>
      <use xlink:href="#DejaVuSans-34" transform="translate(1392.236328 0)"/>
      <use xlink:href="#DejaVuSans-31" transform="translate(1455.859375 0)"/>
      <use xlink:href="#DejaVuSans-2e" transform="translate(1519.482422 0)"/>
      <use xlink:href="#DejaVuSans-37" transform="translate(1551.269531 0)"/>
      <use xlink:href="#DejaVuSans-31" transform="translate(1614.892578 0)"/>
      <use xlink:href="#DejaVuSans-38" transform="translate(1678.515625 0)"/>
      <use xlink:href="#DejaVuSans-31" transform="translate(1742.138672 0)"/>
      <use xlink:href="#DejaVuSans-36" transform="translate(1805.761719 0)"/>
      <use xlink:href="#DejaVuSans-34" transform="translate(1869.384766 0)"/>
      <use xlink:href="#DejaVuSans-20" transform="translate(1933.007812 0)"/>
      <use xlink:href="#DejaVuSans-2d" transform="translate(1964.794922 0)"/>
      <use xlink:href="#DejaVuSans-20" transform="translate(2000.878906 0)"/>
      <use xlink:href="#DejaVuSans-4c" transform="translate(2032.666016 0)"/>
      <use xlink:href="#DejaVuSans-61" transform="translate(2088.378906 0)"/>
      <use xlink:href="#DejaVuSans-73" transform="translate(2149.658203 0)"/>
      <use xlink:href="#DejaVuSans-74" transform="translate(2201.757812 0)"/>
      <use xlink:href="#DejaVuSans-20" transform="translate(2240.966797 0)"/>
      <use xlink:href="#DejaVuSans-72" transform="translate(2272.753906 0)"/>
      <use xlink:href="#DejaVuSans-65" transform="translate(2311.617188 0)"/>
      <use xlink:href="#DejaVuSans-63" transform="translate(2373.140625 0)"/>
      <use xlink:href="#DejaVuSans-6f" transform="translate(2428.121094 0)"/>
      <use xlink:href="#DejaVuSans-72" transform="translate(2489.302734 0)"/>
      <use xlink:href="#DejaVuSans-64" transform="translate(2528.666016 0)"/>
      <use xlink:href="#DejaVuSans-20" transform="translate(2592.142578 0)"/>
      <use xlink:href="#DejaVuSans-32" transform="translate(2623.929688 0)"/>
      <use xlink:href="#DejaVuSans-30" transform="translate(2687.552734 0)"/>
      <use xlink:href="#DejaVuSans-32" transform="translate(2751.175781 0)"/>
      <use xlink:href="#DejaVuSans-35" transform="translate(2814.798828 0)"/>
      <use xlink:href="#DejaVuSans-2d" transform="translate(2878.421875 0)"/>
      <use xlink:href="#DejaVuSans-30" transform="translate(2914.505859 0)"/>
      <use xlink:href="#DejaVuSans-38" transform="translate(2978.128906 0)"/>
      <use xlink:href="#DejaVuSans-2d" transform="translate(3041.751953 0)"/>
      <use xlink:href="#DejaVuSans-32" transform="translate(3077.835938 0)"/>
      <use xlink:href="#DejaVuSans-34" transform="translate(3141.458984 0)"/>
     </g>
    </g>
   </g>
   <g id="matplotlib.axis_2">
    <g id="ytick_1">
     <g id="line2d_11">
      <defs>
       <path id="mfca0d6a5b9" d="M 0 0 
L -3.5 0 
" style="stroke: #000000; stroke-width: 0.8"/>
      </defs>
      <g>
       <use xlink:href="#mfca0d6a5b9" x="57.6" y="295.488" style="stroke: #000000; stroke-width: 0.8"/>
      </g>
     </g>
     <g id="text_12">
      <!-- 0 -->
      <g transform="translate(44.2375 299.287219) scale(0.1 -0.1)">
       <use xlink:href="#DejaVuSans-30"/>
      </g>
     </g>
    </g>
    <g id="ytick_2">
     <g id="line2d_12">
      <g>
       <use xlink:href="#mfca0d6a5b9" x="57.6" y="246.945852" style="stroke: #000000; stroke-width: 0.8"/>
      </g>
     </g>
     <g id="text_13">
      <!-- 10 -->
      <g transform="translate(37.875 250.74507) scale(0.1 -0.1)">
       <use xlink:href="#DejaVuSans-31"/>
       <use xlink:href="#DejaVuSans-30" transform="translate(63.623047 0)"/>
      </g>
     </g>
    </g>
    <g id="ytick_3">
     <g id="line2d_13">
      <g>
       <use xlink:href="#mfca0d6a5b9" x="57.6" y="198.403703" style="stroke: #000000; stroke-width: 0.8"/>
      </g>
     </g>
     <g id="text_14">
      <!-- 20 -->
      <g transform="translate(37.875 202.202922) scale(0.1 -0.1)">
       <use xlink:href="#DejaVuSans-32"/>
       <use xlink:href="#DejaVuSans-30" transform="translate(63.623047 0)"/>
      </g>
     </g>
    </g>
    <g id="ytick_4">
     <g id="line2d_14">
      <g>
       <use xlink:href="#mfca0d6a5b9" x="57.6" y="149.861555" style="stroke: #000000; stroke-width: 0.8"/>
      </g>
     </g>
     <g id="text_15">
      <!-- 30 -->
      <g transform="translate(37.875 153.660774) scale(0.1 -0.1)">
       <use xlink:href="#DejaVuSans-33"/>
       <use xlink:href="#DejaVuSans-30" transform="translate(63.623047 0)"/>
      </g>
     </g>
    </g>
    <g id="ytick_5">
     <g id="line2d_15">
      <g>
       <use xlink:href="#mfca0d6a5b9" x="57.6" y="101.319406" style="stroke: #000000; stroke-width: 0.8"/>
      </g>
     </g>
     <g id="text_16">
      <!-- 40 -->
      <g transform="translate(37.875 105.118625) scale(0.1 -0.1)">
       <use xlink:href="#DejaVuSans-34"/>
       <use xlink:href="#DejaVuSans-30" transform="translate(63.623047 0)"/>
      </g>
     </g>
    </g>
    <g id="ytick_6">
     <g id="line2d_16">
      <g>
       <use xlink:href="#mfca0d6a5b9" x="57.6" y="52.777258" style="stroke: #000000; stroke-width: 0.8"/>
      </g>
     </g>
     <g id="text_17">
      <!-- 50 -->
      <g transform="translate(37.875 56.576477) scale(0.1 -0.1)">
       <use xlink:href="#DejaVuSans-35"/>
       <use xlink:href="#DejaVuSans-30" transform="translate(63.623047 0)"/>
      </g>
     </g>
    </g>
    <g id="text_18">
     <!-- IPv6 as % of total Google traffic -->
     <g transform="translate(31.795312 253.735813) rotate(-90) scale(0.1 -0.1)">
      <defs>
       <path id="DejaVuSans-49" d="M 628 4666 
L 1259 4666 
L 1259 0 
L 628 0 
L 628 4666 
z
" transform="scale(0.015625)"/>
       <path id="DejaVuSans-50" d="M 1259 4147 
L 1259 2394 
L 2053 2394 
Q 2494 2394 2734 2622 
Q 2975 2850 2975 3272 
Q 2975 3691 2734 3919 
Q 2494 4147 2053 4147 
L 1259 4147 
z
M 628 4666 
L 2053 4666 
Q 2838 4666 3239 4311 
Q 3641 3956 3641 3272 
Q 3641 2581 3239 2228 
Q 2838 1875 2053 1875 
L 1259 1875 
L 1259 0 
L 628 0 
L 628 4666 
z
" transform="scale(0.015625)"/>
       <path id="DejaVuSans-76" d="M 191 3500 
L 800 3500 
L 1894 563 
L 2988 3500 
L 3597 3500 
L 2284 0 
L 1503 0 
L 191 3500 
z
" transform="scale(0.015625)"/>
       <path id="DejaVuSans-25" d="M 4653 2053 
Q 4381 2053 4226 1822 
Q 4072 1591 4072 1178 
Q 4072 772 4226 539 
Q 4381 306 4653 306 
Q 4919 306 5073 539 
Q 5228 772 5228 1178 
Q 5228 1588 5073 1820 
Q 4919 2053 4653 2053 
z
M 4653 2450 
Q 5147 2450 5437 2106 
Q 5728 1763 5728 1178 
Q 5728 594 5436 251 
Q 5144 -91 4653 -91 
Q 4153 -91 3862 251 
Q 3572 594 3572 1178 
Q 3572 1766 3864 2108 
Q 4156 2450 4653 2450 
z
M 1428 4353 
Q 1159 4353 1004 4120 
Q 850 3888 850 3481 
Q 850 3069 1003 2837 
Q 1156 2606 1428 2606 
Q 1700 2606 1854 2837 
Q 2009 3069 2009 3481 
Q 2009 3884 1853 4118 
Q 1697 4353 1428 4353 
z
M 4250 4750 
L 4750 4750 
L 1831 -91 
L 1331 -91 
L 4250 4750 
z
M 1428 4750 
Q 1922 4750 2215 4408 
Q 2509 4066 2509 3481 
Q 2509 2891 2217 2550 
Q 1925 2209 1428 2209 
Q 931 2209 642 2551 
Q 353 2894 353 3481 
Q 353 4063 643 4406 
Q 934 4750 1428 4750 
z
" transform="scale(0.015625)"/>
       <path id="DejaVuSans-66" d="M 2375 4863 
L 2375 4384 
L 1825 4384 
Q 1516 4384 1395 4259 
Q 1275 4134 1275 3809 
L 1275 3500 
L 2222 3500 
L 2222 3053 
L 1275 3053 
L 1275 0 
L 697 0 
L 697 3053 
L 147 3053 
L 147 3500 
L 697 3500 
L 697 3744 
Q 697 4328 969 4595 
Q 1241 4863 1831 4863 
L 2375 4863 
z
" transform="scale(0.015625)"/>
       <path id="DejaVuSans-6c" d="M 603 4863 
L 1178 4863 
L 1178 0 
L 603 0 
L 603 4863 
z
" transform="scale(0.015625)"/>
       <path id="DejaVuSans-47" d="M 3809 666 
L 3809 1919 
L 2778 1919 
L 2778 2438 
L 4434 2438 
L 4434 434 
Q 4069 175 3628 42 
Q 3188 -91 2688 -91 
Q 1594 -91 976 548 
Q 359 1188 359 2328 
Q 359 3472 976 4111 
Q 1594 4750 2688 4750 
Q 3144 4750 3555 4637 
Q 3966 4525 4313 4306 
L 4313 3634 
Q 3963 3931 3569 4081 
Q 3175 4231 2741 4231 
Q 1884 4231 1454 3753 
Q 1025 3275 1025 2328 
Q 1025 1384 1454 906 
Q 1884 428 2741 428 
Q 3075 428 3337 486 
Q 3600 544 3809 666 
z
" transform="scale(0.015625)"/>
       <path id="DejaVuSans-67" d="M 2906 1791 
Q 2906 2416 2648 2759 
Q 2391 3103 1925 3103 
Q 1463 3103 1205 2759 
Q 947 2416 947 1791 
Q 947 1169 1205 825 
Q 1463 481 1925 481 
Q 2391 481 2648 825 
Q 2906 1169 2906 1791 
z
M 3481 434 
Q 3481 -459 3084 -895 
Q 2688 -1331 1869 -1331 
Q 1566 -1331 1297 -1286 
Q 1028 -1241 775 -1147 
L 775 -588 
Q 1028 -725 1275 -790 
Q 1522 -856 1778 -856 
Q 2344 -856 2625 -561 
Q 2906 -266 2906 331 
L 2906 616 
Q 2728 306 2450 153 
Q 2172 0 1784 0 
Q 1141 0 747 490 
Q 353 981 353 1791 
Q 353 2603 747 3093 
Q 1141 3584 1784 3584 
Q 2172 3584 2450 3431 
Q 2728 3278 2906 2969 
L 2906 3500 
L 3481 3500 
L 3481 434 
z
" transform="scale(0.015625)"/>
       <path id="DejaVuSans-69" d="M 603 3500 
L 1178 3500 
L 1178 0 
L 603 0 
L 603 3500 
z
M 603 4863 
L 1178 4863 
L 1178 4134 
L 603 4134 
L 603 4863 
z
" transform="scale(0.015625)"/>
      </defs>
      <use xlink:href="#DejaVuSans-49"/>
      <use xlink:href="#DejaVuSans-50" transform="translate(29.492188 0)"/>
      <use xlink:href="#DejaVuSans-76" transform="translate(89.794922 0)"/>
      <use xlink:href="#DejaVuSans-36" transform="translate(148.974609 0)"/>
      <use xlink:href="#DejaVuSans-20" transform="translate(212.597656 0)"/>
      <use xlink:href="#DejaVuSans-61" transform="translate(244.384766 0)"/>
      <use xlink:href="#DejaVuSans-73" transform="translate(305.664062 0)"/>
      <use xlink:href="#DejaVuSans-20" transform="translate(357.763672 0)"/>
      <use xlink:href="#DejaVuSans-25" transform="translate(389.550781 0)"/>
      <use xlink:href="#DejaVuSans-20" transform="translate(484.570312 0)"/>
      <use xlink:href="#DejaVuSans-6f" transform="translate(516.357422 0)"/>
      <use xlink:href="#DejaVuSans-66" transform="translate(577.539062 0)"/>
      <use xlink:href="#DejaVuSans-20" transform="translate(612.744141 0)"/>
      <use xlink:href="#DejaVuSans-74" transform="translate(644.53125 0)"/>
      <use xlink:href="#DejaVuSans-6f" transform="translate(683.740234 0)"/>
      <use xlink:href="#DejaVuSans-74" transform="translate(744.921875 0)"/>
      <use xlink:href="#DejaVuSans-61" transform="translate(784.130859 0)"/>
      <use xlink:href="#DejaVuSans-6c" transform="translate(845.410156 0)"/>
      <use xlink:href="#DejaVuSans-20" transform="translate(873.193359 0)"/>
      <use xlink:href="#DejaVuSans-47" transform="translate(904.980469 0)"/>
      <use xlink:href="#DejaVuSans-6f" transform="translate(982.470703 0)"/>
      <use xlink:href="#DejaVuSans-6f" transform="translate(1043.652344 0)"/>
      <use xlink:href="#DejaVuSans-67" transform="translate(1104.833984 0)"/>
      <use xlink:href="#DejaVuSans-6c" transform="translate(1168.310547 0)"/>
      <use xlink:href="#DejaVuSans-65" transform="translate(1196.09375 0)"/>
      <use xlink:href="#DejaVuSans-20" transform="translate(1257.617188 0)"/>
      <use xlink:href="#DejaVuSans-74" transform="translate(1289.404297 0)"/>
      <use xlink:href="#DejaVuSans-72" transform="translate(1328.613281 0)"/>
      <use xlink:href="#DejaVuSans-61" transform="translate(1369.726562 0)"/>
      <use xlink:href="#DejaVuSans-66" transform="translate(1431.005859 0)"/>
      <use xlink:href="#DejaVuSans-66" transform="translate(1466.210938 0)"/>
      <use xlink:href="#DejaVuSans-69" transform="translate(1501.416016 0)"/>
      <use xlink:href="#DejaVuSans-63" transform="translate(1529.199219 0)"/>
     </g>
    </g>
   </g>
   <g id="line2d_17">
    <path d="M 73.832727 294.603596 
L 75.300092 294.453703 
L 75.666934 294.596436 
L 77.50114 294.569612 
L 78.601664 294.465702 
L 78.968505 294.350648 
L 80.069029 294.369735 
L 83.370601 294.300848 
L 84.471125 294.326076 
L 85.93849 294.257544 
L 88.87322 294.316964 
L 89.606903 294.392025 
L 92.174792 294.34309 
L 93.642157 294.255961 
L 94.37584 294.263917 
L 94.742681 294.027595 
L 96.943729 293.94653 
L 98.044253 293.949923 
L 99.144777 294.036231 
L 100.2453 293.993246 
L 101.345824 294.036483 
L 103.180031 294.006746 
L 104.280555 294.178906 
L 105.381079 294.131325 
L 106.114761 294.207657 
L 106.848444 294.28064 
L 107.215285 294.207832 
L 109.416333 294.406753 
L 111.250539 294.327993 
L 112.351063 294.153974 
L 113.084746 294.150101 
L 116.019476 294.152707 
L 116.386317 294.175299 
L 116.753159 294.059327 
L 118.954206 294.274437 
L 121.888937 294.119471 
L 122.255778 294.124655 
L 122.622619 294.01427 
L 123.356302 294.106602 
L 124.089985 293.935219 
L 124.456826 293.977825 
L 124.823667 293.87261 
L 125.190508 293.918676 
L 125.924191 293.820771 
L 127.024715 293.806835 
L 127.391556 293.927632 
L 128.858921 293.954918 
L 129.592604 293.967888 
L 129.959445 293.933583 
L 130.693128 293.728488 
L 131.059969 293.614254 
L 133.627858 293.75088 
L 136.195747 293.309191 
L 136.92943 293.443249 
L 139.86416 293.016525 
L 140.231002 293.113721 
L 142.432049 292.648847 
L 143.165732 292.664056 
L 144.266256 292.349507 
L 146.100462 291.912982 
L 147.200986 291.800763 
L 147.567827 291.89243 
L 149.402034 291.547645 
L 150.502558 291.206976 
L 150.869399 291.258518 
L 151.23624 290.952693 
L 151.969923 290.769659 
L 152.336764 290.817216 
L 153.070447 290.62729 
L 153.437288 290.770737 
L 154.170971 290.59749 
L 154.537812 290.554516 
L 154.904653 290.33144 
L 155.638336 290.182591 
L 157.105701 290.167086 
L 157.839384 289.976932 
L 158.939908 289.83682 
L 159.306749 289.653627 
L 159.67359 289.635958 
L 160.040431 289.730683 
L 161.507797 289.045826 
L 161.874638 289.061515 
L 163.342003 288.630868 
L 163.708844 288.342266 
L 165.17621 288.001587 
L 165.909892 287.687961 
L 166.276733 287.765512 
L 166.643575 287.54964 
L 167.010416 287.5117 
L 168.844622 286.497533 
L 169.945146 285.958982 
L 170.678829 285.212661 
L 171.412512 284.311617 
L 171.779353 284.524479 
L 172.146194 284.561303 
L 173.246718 283.291644 
L 173.613559 283.139402 
L 173.980401 282.497641 
L 175.080924 282.11558 
L 175.447766 281.870282 
L 175.814607 281.9148 
L 176.915131 281.213992 
L 177.281972 281.065142 
L 177.648814 280.789869 
L 178.382496 280.724643 
L 178.749337 280.101052 
L 179.116179 280.092833 
L 179.48302 279.407239 
L 179.849861 279.052172 
L 180.583544 279.154082 
L 180.950385 278.900245 
L 181.317227 278.509233 
L 182.050909 278.054063 
L 182.41775 277.647154 
L 182.784592 277.896631 
L 184.251957 277.098263 
L 184.618798 276.803064 
L 184.985639 275.589981 
L 185.352481 275.820095 
L 186.086163 274.996354 
L 186.453005 274.960987 
L 186.819846 275.317097 
L 187.92037 274.506802 
L 188.287211 273.957091 
L 189.020894 273.999473 
L 189.387735 273.404672 
L 189.754576 273.363731 
L 190.121418 270.212603 
L 190.488259 272.285882 
L 190.8551 273.520969 
L 191.221941 272.920828 
L 191.588783 272.585455 
L 191.955624 272.531408 
L 192.322465 271.742098 
L 192.689307 271.494776 
L 193.789831 269.781602 
L 194.156672 268.663002 
L 194.523513 268.024537 
L 194.890354 267.157725 
L 195.257196 266.585422 
L 195.624037 267.499413 
L 195.990878 267.359539 
L 196.35772 267.384844 
L 196.724561 267.532494 
L 197.091402 267.808194 
L 197.458243 267.703008 
L 197.825085 265.68733 
L 198.191926 265.985475 
L 199.29245 264.923344 
L 199.659291 264.780387 
L 200.392974 264.84324 
L 200.759815 263.31956 
L 201.126656 263.264067 
L 201.860339 262.061614 
L 202.22718 262.471577 
L 202.594022 260.594787 
L 202.960863 261.038395 
L 203.327704 259.771449 
L 203.694545 259.16477 
L 204.061387 258.253818 
L 204.428228 258.886419 
L 204.795069 257.928153 
L 205.161911 256.333961 
L 205.528752 257.137285 
L 205.895593 257.366293 
L 206.262435 256.871444 
L 206.629276 255.413772 
L 206.996117 255.818686 
L 207.362958 254.531708 
L 207.7298 254.828174 
L 208.830324 252.213078 
L 209.930847 251.937009 
L 210.297689 250.921682 
L 210.66453 251.045236 
L 211.031371 250.664355 
L 211.398213 249.658052 
L 211.765054 249.402647 
L 212.498737 247.506106 
L 212.865578 247.370163 
L 213.232419 247.560026 
L 213.59926 247.069221 
L 213.966102 244.978414 
L 214.699784 246.204812 
L 215.066626 245.969227 
L 215.800308 245.898632 
L 216.167149 245.94017 
L 216.900832 245.687906 
L 217.267673 244.511545 
L 217.634515 244.455858 
L 218.001356 243.412605 
L 218.368197 243.409673 
L 218.735039 243.251192 
L 219.835562 240.267399 
L 220.202404 238.509979 
L 220.569245 239.71012 
L 220.936086 239.207092 
L 221.302928 238.167344 
L 221.669769 238.398783 
L 222.03661 236.178941 
L 222.403451 236.50462 
L 222.770293 236.23243 
L 223.137134 234.683503 
L 223.503975 234.668843 
L 223.870817 233.514288 
L 224.237658 233.792284 
L 224.604499 232.879089 
L 224.971341 232.393974 
L 225.338182 232.651699 
L 225.705023 232.026403 
L 226.071864 231.050905 
L 226.438706 231.362744 
L 226.805547 230.900094 
L 227.172388 229.364963 
L 227.53923 228.722993 
L 227.906071 228.783045 
L 228.272912 226.987854 
L 228.639753 227.307096 
L 229.373436 225.168936 
L 229.740277 223.035315 
L 230.107119 223.246196 
L 230.840801 222.046448 
L 231.207643 220.70216 
L 231.574484 220.881873 
L 231.941325 220.318498 
L 232.308166 218.192973 
L 232.675008 217.447225 
L 233.041849 213.923201 
L 233.40869 216.214395 
L 233.775532 215.798991 
L 234.142373 216.345396 
L 234.509214 215.703761 
L 235.242897 216.74583 
L 235.609738 216.538089 
L 235.976579 215.624618 
L 236.343421 215.899337 
L 237.077103 214.735913 
L 237.443945 213.771885 
L 237.810786 213.619002 
L 238.177627 212.967333 
L 238.544468 210.623937 
L 238.91131 211.359287 
L 239.278151 208.216804 
L 239.644992 208.460059 
L 240.011834 206.751924 
L 240.378675 205.699088 
L 241.479199 203.762718 
L 241.84604 202.178045 
L 242.212881 199.565365 
L 242.579723 200.225126 
L 244.047088 197.249478 
L 244.413929 196.7601 
L 244.78077 196.778624 
L 245.147612 197.048241 
L 245.514453 196.122421 
L 245.881294 194.82488 
L 246.248136 195.987299 
L 246.614977 196.009736 
L 246.981818 197.045319 
L 247.348659 195.911996 
L 247.715501 194.149979 
L 248.082342 194.375758 
L 248.449183 193.615064 
L 249.549707 192.405331 
L 250.28339 191.516742 
L 250.650231 191.420488 
L 251.017072 204.304705 
L 251.383914 189.784831 
L 251.750755 189.087916 
L 252.117596 185.566902 
L 252.484438 188.83358 
L 253.21812 188.356255 
L 253.584961 188.353945 
L 253.951803 187.916789 
L 254.318644 187.701354 
L 254.685485 188.898126 
L 255.052327 189.656835 
L 255.419168 189.472395 
L 255.786009 188.44451 
L 256.152851 188.518318 
L 257.253374 187.653981 
L 257.620216 185.344783 
L 257.987057 186.25623 
L 258.353898 183.810599 
L 258.72074 184.841828 
L 259.087581 182.789048 
L 259.454422 181.507308 
L 259.821263 182.263055 
L 260.188105 180.691207 
L 260.554946 179.647522 
L 260.921787 179.425597 
L 261.288629 180.278847 
L 261.65547 180.728934 
L 262.755994 178.42377 
L 263.122835 178.953893 
L 263.489676 179.717864 
L 263.856518 179.866005 
L 264.223359 178.117629 
L 264.5902 177.466407 
L 264.957042 176.198995 
L 265.690724 175.709225 
L 266.057565 175.841856 
L 266.424407 175.674677 
L 267.158089 173.933684 
L 267.524931 174.949409 
L 267.891772 171.731812 
L 268.258613 171.814572 
L 268.625455 171.422205 
L 268.992296 169.075459 
L 269.359137 168.371336 
L 269.725978 167.948117 
L 270.09282 167.951199 
L 270.459661 166.678924 
L 270.826502 166.592194 
L 271.560185 164.580588 
L 271.927026 165.908361 
L 272.293867 166.763586 
L 273.02755 164.726923 
L 273.394391 165.725833 
L 273.761233 165.543188 
L 274.128074 165.978 
L 274.494915 164.440704 
L 274.861757 163.904323 
L 275.228598 165.066572 
L 275.595439 163.398198 
L 275.96228 163.531689 
L 276.329122 163.055787 
L 277.062804 162.871297 
L 277.429646 159.575732 
L 277.796487 159.479735 
L 278.163328 159.739829 
L 278.530169 160.536949 
L 279.263852 156.691105 
L 279.630693 154.994542 
L 279.997535 154.563925 
L 280.364376 154.711833 
L 280.731217 154.402192 
L 281.098059 152.716925 
L 281.4649 154.106687 
L 281.831741 152.626991 
L 282.198582 154.000108 
L 282.565424 153.015775 
L 282.932265 152.41994 
L 283.299106 152.370252 
L 283.665948 152.437381 
L 284.032789 151.154237 
L 284.39963 151.300029 
L 284.766471 152.688761 
L 285.133313 152.218203 
L 285.500154 152.787845 
L 285.866995 153.020668 
L 286.233837 151.240924 
L 286.600678 152.306822 
L 286.967519 152.593245 
L 287.334361 151.931795 
L 287.701202 151.527648 
L 288.068043 149.933412 
L 288.434884 150.269887 
L 288.801726 149.922907 
L 289.168567 150.037976 
L 289.535408 149.110899 
L 289.90225 148.705359 
L 290.269091 147.531915 
L 290.635932 147.019009 
L 291.002773 147.744122 
L 291.369615 147.959717 
L 291.736456 148.00822 
L 292.470139 146.339487 
L 292.83698 146.739533 
L 293.203821 145.522683 
L 293.570663 146.049341 
L 293.937504 145.821746 
L 294.304345 144.980079 
L 294.671186 145.185766 
L 295.038028 145.763952 
L 295.404869 145.500368 
L 295.77171 145.514144 
L 296.138552 143.327821 
L 296.872234 141.771234 
L 297.239076 142.02824 
L 297.605917 141.484064 
L 297.972758 139.672912 
L 298.339599 140.258792 
L 298.706441 137.659801 
L 299.073282 139.739755 
L 299.440123 138.017902 
L 299.806965 135.664151 
L 300.173806 136.352692 
L 300.540647 134.883011 
L 300.907488 133.8913 
L 301.27433 133.98617 
L 301.641171 133.242155 
L 302.008012 135.107339 
L 302.374854 133.553471 
L 302.741695 134.136112 
L 303.108536 134.477956 
L 304.20906 132.093896 
L 304.575901 134.078808 
L 304.942743 134.118579 
L 305.309584 133.241116 
L 305.676425 133.738329 
L 306.043267 134.943829 
L 306.410108 134.006272 
L 306.776949 131.824807 
L 307.14379 135.446294 
L 307.510632 134.470757 
L 307.877473 133.058734 
L 308.244314 134.243245 
L 308.611156 134.328829 
L 308.977997 132.394493 
L 309.344838 131.431179 
L 309.71168 129.665201 
L 310.078521 130.526392 
L 310.445362 129.873942 
L 310.812203 130.075178 
L 311.179045 130.62801 
L 311.545886 129.216332 
L 311.912727 128.637539 
L 312.279569 129.684079 
L 312.64641 129.423238 
L 313.013251 127.15862 
L 313.380092 126.660476 
L 313.746934 125.119234 
L 314.113775 127.650163 
L 314.480616 128.489549 
L 314.847458 127.664376 
L 315.214299 127.50657 
L 315.58114 127.635984 
L 315.947982 123.172067 
L 316.314823 126.15622 
L 316.681664 124.436639 
L 317.415347 125.306519 
L 317.782188 121.078716 
L 318.149029 120.538393 
L 318.515871 118.837714 
L 318.882712 118.770027 
L 319.249553 120.308338 
L 319.616394 118.186958 
L 319.983236 117.769962 
L 320.350077 116.674443 
L 320.716918 116.278257 
L 321.08376 115.033554 
L 321.450601 115.21965 
L 321.817442 118.237403 
L 322.184284 116.610057 
L 322.551125 115.579658 
L 322.917966 117.539338 
L 323.284807 116.455635 
L 323.651649 116.074157 
L 324.01849 114.509546 
L 324.752173 116.999719 
L 325.119014 116.726238 
L 325.485855 117.116657 
L 325.852696 116.992957 
L 326.219538 115.590041 
L 326.586379 117.212135 
L 326.95322 115.263294 
L 327.320062 114.574102 
L 327.686903 114.501896 
L 328.420586 112.075682 
L 328.787427 109.368394 
L 329.154268 111.214753 
L 329.521109 114.663308 
L 329.887951 110.778815 
L 330.254792 110.596335 
L 330.621633 113.203044 
L 331.355316 109.733576 
L 331.722157 109.687199 
L 332.088998 110.419627 
L 332.45584 110.38974 
L 332.822681 110.95062 
L 333.189522 104.356863 
L 333.556364 103.652954 
L 333.923205 103.849515 
L 334.290046 102.501922 
L 334.656888 102.059922 
L 335.023729 99.716156 
L 335.39057 102.694241 
L 335.757411 103.855438 
L 336.124253 101.307747 
L 336.491094 102.986533 
L 336.857935 100.131648 
L 337.224777 98.678049 
L 337.591618 95.151631 
L 337.958459 96.100528 
L 338.3253 90.875622 
L 339.058983 94.538136 
L 339.425824 96.210632 
L 339.792666 94.687331 
L 340.159507 94.984481 
L 340.526348 95.623548 
L 340.89319 95.493436 
L 341.260031 97.35062 
L 341.626872 96.48489 
L 341.993713 95.12769 
L 342.360555 95.440734 
L 342.727396 94.049836 
L 343.094237 94.403223 
L 343.461079 92.702151 
L 343.82792 93.902977 
L 344.194761 97.143063 
L 344.561602 94.962662 
L 344.928444 91.657072 
L 345.295285 94.396534 
L 345.662126 92.805157 
L 346.028968 94.458018 
L 346.395809 92.965492 
L 346.76265 92.944269 
L 347.863174 87.198204 
L 348.230015 89.772686 
L 348.596857 89.575828 
L 348.963698 88.28716 
L 349.330539 88.666973 
L 349.697381 90.863059 
L 350.431063 88.96575 
L 350.797904 90.356308 
L 351.164746 89.573978 
L 351.531587 88.05806 
L 351.898428 88.08754 
L 352.632111 85.572183 
L 352.998952 86.669605 
L 353.365794 86.651804 
L 353.732635 84.262938 
L 354.099476 85.49354 
L 354.833159 85.287144 
L 355.2 83.960331 
L 355.566841 85.475473 
L 355.933683 85.520063 
L 356.300524 82.853386 
L 356.667365 82.820727 
L 357.034206 81.558883 
L 357.401048 78.231358 
L 357.767889 79.661444 
L 358.501572 78.876697 
L 358.868413 78.735696 
L 359.235254 79.091724 
L 359.602096 77.858132 
L 359.968937 79.305469 
L 360.702619 75.690997 
L 361.069461 77.132708 
L 361.436302 79.088952 
L 361.803143 79.853467 
L 362.169985 76.241193 
L 362.536826 78.391149 
L 362.903667 77.276141 
L 363.270508 81.170391 
L 363.63735 78.61254 
L 364.004191 77.660172 
L 364.371032 79.825079 
L 364.737874 80.023796 
L 365.104715 81.175604 
L 365.471556 79.104578 
L 365.838398 81.311653 
L 366.205239 78.630394 
L 366.57208 78.303142 
L 366.938921 75.766771 
L 367.305763 78.953825 
L 367.672604 78.939714 
L 368.039445 78.175559 
L 368.406287 78.257114 
L 368.773128 76.874289 
L 369.139969 77.945746 
L 369.50681 75.341726 
L 369.873652 75.988269 
L 370.240493 75.98958 
L 370.607334 85.009245 
L 371.341017 85.009245 
L 371.707858 73.791902 
L 372.0747 73.740753 
L 372.441541 75.241225 
L 372.808382 74.828466 
L 373.175223 73.266778 
L 373.542065 73.653663 
L 373.908906 72.961064 
L 374.275747 70.643943 
L 374.642589 71.508183 
L 375.00943 66.814628 
L 375.376271 67.778753 
L 375.743112 66.418893 
L 376.109954 66.783983 
L 376.476795 65.569517 
L 376.843636 69.40156 
L 377.210478 66.482008 
L 377.577319 67.455875 
L 377.94416 68.107907 
L 378.311002 69.547449 
L 378.677843 68.244117 
L 379.044684 69.423269 
L 379.778367 67.240983 
L 380.145208 68.765275 
L 380.512049 69.459665 
L 380.878891 69.211668 
L 381.245732 73.268782 
L 381.612573 69.434326 
L 381.979414 69.945349 
L 382.346256 67.919379 
L 382.713097 70.205491 
L 383.079938 69.72955 
L 383.813621 69.458525 
L 384.180462 67.330563 
L 384.547304 68.713665 
L 384.914145 67.531843 
L 385.280986 67.362052 
L 385.647827 68.060525 
L 386.014669 64.845778 
L 386.38151 68.505094 
L 386.748351 70.100703 
L 387.482034 67.822018 
L 387.848875 67.257347 
L 388.215716 66.201638 
L 388.582558 65.859518 
L 388.949399 65.330481 
L 389.31624 63.089305 
L 389.683082 63.595861 
L 390.049923 62.866113 
L 390.416764 59.333895 
L 390.783606 60.355513 
L 391.150447 62.278738 
L 391.517288 61.01107 
L 391.884129 58.450724 
L 392.250971 64.650381 
L 392.617812 60.955484 
L 392.984653 63.374009 
L 393.718336 60.571661 
L 394.085177 60.410438 
L 394.452018 57.721441 
L 394.81886 59.881601 
L 395.185701 54.905458 
L 395.552542 58.599418 
L 395.919384 56.29469 
L 396.286225 54.915666 
L 396.653066 55.151595 
L 397.019908 53.925105 
L 397.386749 53.568 
L 397.75359 57.041264 
L 398.120431 57.035676 
L 398.487273 57.475395 
L 398.487273 57.475395 
" clip-path="url(#p67fcabd5ef)" style="fill: none; stroke: #1f77b4; stroke-width: 1.5; stroke-linecap: square"/>
   </g>
   <g id="line2d_18">
    <path d="M 73.832727 294.835569 
L 75.666934 294.815458 
L 83.737442 294.589179 
L 84.837966 294.554937 
L 85.571649 294.522866 
L 89.606903 294.580024 
L 94.742681 294.50675 
L 95.109522 294.332974 
L 109.416333 294.507138 
L 111.250539 294.508162 
L 112.351063 294.355594 
L 113.818428 294.332663 
L 116.019476 294.299033 
L 116.386317 294.361618 
L 116.753159 294.262791 
L 120.421572 294.406296 
L 121.888937 294.307712 
L 123.356302 294.224647 
L 124.456826 294.053487 
L 125.55735 294.051482 
L 126.657874 293.932617 
L 127.391556 294.019823 
L 128.49208 294.081399 
L 130.326287 293.969082 
L 131.059969 293.809408 
L 132.160493 293.912191 
L 136.92943 293.587191 
L 137.296271 293.683878 
L 142.432049 293.079125 
L 143.899414 292.843793 
L 144.633097 292.850414 
L 145.733621 292.482916 
L 147.200986 292.225084 
L 147.567827 292.336547 
L 149.402034 292.14781 
L 151.603082 291.711984 
L 151.969923 291.566959 
L 152.703606 291.503418 
L 153.804129 291.266959 
L 154.537812 291.317094 
L 155.271495 291.079698 
L 156.005177 290.985298 
L 156.372018 290.768295 
L 157.472542 291.015283 
L 158.939908 290.583879 
L 159.306749 290.59967 
L 159.67359 290.443471 
L 160.774114 290.363658 
L 161.140955 290.140927 
L 162.975162 289.775463 
L 163.708844 289.638938 
L 164.442527 289.354156 
L 165.17621 289.261368 
L 165.909892 288.8807 
L 166.276733 289.008487 
L 167.377257 288.558885 
L 168.11094 288.184135 
L 168.477781 287.900168 
L 169.211464 287.702902 
L 169.578305 287.79354 
L 170.311988 287.654953 
L 171.412512 286.594491 
L 171.779353 286.339752 
L 172.146194 286.409783 
L 172.513035 286.273113 
L 173.613559 285.476852 
L 173.980401 285.342118 
L 174.714083 284.698857 
L 175.080924 284.610719 
L 175.447766 283.396714 
L 175.814607 283.51006 
L 176.181448 284.318796 
L 176.54829 284.230974 
L 177.281972 283.610406 
L 177.648814 284.171184 
L 178.015655 283.445081 
L 178.382496 283.400423 
L 178.749337 283.174731 
L 179.116179 282.646854 
L 179.48302 282.673679 
L 180.216703 281.86517 
L 180.583544 281.889553 
L 180.950385 281.708908 
L 181.317227 281.053094 
L 181.684068 281.274539 
L 182.050909 280.778156 
L 182.41775 280.927054 
L 182.784592 280.747861 
L 183.151433 280.82099 
L 183.518274 280.261692 
L 183.885116 280.28325 
L 184.251957 279.712651 
L 184.618798 279.811784 
L 185.352481 278.607458 
L 185.719322 278.369131 
L 186.086163 278.293337 
L 186.453005 278.016924 
L 186.819846 277.989526 
L 187.186687 278.095334 
L 187.553529 278.075266 
L 188.654052 277.680114 
L 189.020894 277.80877 
L 189.754576 277.4763 
L 190.121418 276.903105 
L 190.488259 275.616519 
L 190.8551 276.576892 
L 191.221941 276.893051 
L 191.588783 276.561145 
L 191.955624 276.753672 
L 192.322465 276.273358 
L 193.056148 275.652304 
L 193.422989 275.036615 
L 193.789831 274.650487 
L 194.156672 273.84158 
L 194.523513 271.44754 
L 194.890354 269.914118 
L 195.257196 272.18574 
L 195.624037 272.784784 
L 195.990878 272.801259 
L 196.35772 273.040688 
L 196.724561 273.023446 
L 197.091402 273.343883 
L 197.458243 272.682607 
L 197.825085 272.798885 
L 198.191926 271.563832 
L 198.558767 271.186422 
L 198.925609 271.400993 
L 199.659291 270.169396 
L 200.026133 270.502745 
L 200.392974 270.470605 
L 200.759815 270.073705 
L 201.126656 269.497636 
L 201.493498 269.197907 
L 201.860339 269.240391 
L 202.594022 267.454725 
L 202.960863 266.929509 
L 203.327704 266.64726 
L 203.694545 265.618472 
L 204.061387 265.262149 
L 205.161911 263.187656 
L 205.528752 263.539854 
L 206.262435 263.193457 
L 206.996117 262.528381 
L 207.362958 262.817513 
L 208.096641 262.450869 
L 208.830324 261.53349 
L 209.930847 261.064568 
L 210.297689 261.067641 
L 210.66453 260.105827 
L 211.031371 260.008947 
L 211.398213 260.035305 
L 211.765054 259.542714 
L 212.865578 257.103791 
L 213.232419 256.643748 
L 213.59926 254.423736 
L 213.966102 251.291602 
L 214.332943 255.938867 
L 214.699784 256.951534 
L 215.066626 256.668786 
L 215.433467 256.170185 
L 215.800308 256.238037 
L 216.167149 256.494825 
L 216.900832 255.445766 
L 217.634515 254.967092 
L 218.001356 254.579935 
L 218.368197 253.474416 
L 218.735039 253.217963 
L 219.10188 253.15529 
L 219.835562 252.17705 
L 220.202404 251.014237 
L 220.569245 250.289546 
L 220.936086 250.746265 
L 221.669769 249.317927 
L 222.03661 248.003949 
L 222.403451 247.621762 
L 222.770293 247.434846 
L 223.503975 245.327699 
L 223.870817 243.686678 
L 224.237658 244.405321 
L 224.604499 244.269859 
L 225.338182 242.886825 
L 225.705023 242.74414 
L 226.071864 242.845035 
L 226.438706 243.983839 
L 226.805547 243.39993 
L 227.172388 243.661242 
L 227.53923 243.04133 
L 227.906071 243.108716 
L 228.639753 241.480389 
L 229.006595 240.461354 
L 229.373436 240.657231 
L 230.107119 237.899042 
L 230.47396 238.552608 
L 230.840801 238.044673 
L 231.207643 236.842604 
L 231.574484 236.753355 
L 231.941325 235.946584 
L 232.308166 235.487235 
L 232.675008 232.283186 
L 233.041849 224.890207 
L 233.40869 230.212295 
L 233.775532 233.050065 
L 234.142373 233.349837 
L 234.876055 233.037439 
L 235.242897 233.124154 
L 235.609738 233.084432 
L 235.976579 232.201145 
L 236.343421 231.980696 
L 236.710262 232.255842 
L 237.443945 231.222458 
L 238.177627 229.367026 
L 238.544468 227.33479 
L 238.91131 228.018448 
L 239.278151 227.917203 
L 239.644992 224.231514 
L 240.011834 225.039853 
L 240.745516 222.580717 
L 241.112357 220.214603 
L 241.479199 220.129329 
L 241.84604 219.805296 
L 242.579723 215.683781 
L 242.946564 215.410338 
L 243.313405 214.801785 
L 243.680247 214.50459 
L 244.413929 212.152437 
L 244.78077 211.950807 
L 245.147612 211.881154 
L 245.514453 212.912408 
L 245.881294 213.031181 
L 246.614977 214.516362 
L 247.348659 215.002725 
L 247.715501 212.916655 
L 248.082342 212.390531 
L 248.449183 212.845507 
L 248.816025 211.916765 
L 249.182866 210.207896 
L 249.549707 211.695276 
L 249.916549 212.284889 
L 250.28339 210.52511 
L 250.650231 210.308655 
L 251.017072 209.317614 
L 251.383914 204.304705 
L 251.750755 206.311996 
L 252.117596 198.021701 
L 252.851279 207.865558 
L 253.21812 206.588244 
L 253.584961 207.93025 
L 253.951803 207.432087 
L 254.318644 207.349332 
L 254.685485 206.04963 
L 255.052327 208.243629 
L 255.419168 208.851211 
L 255.786009 208.282361 
L 256.152851 207.036327 
L 256.519692 206.611535 
L 256.886533 205.638901 
L 257.253374 205.57116 
L 257.620216 207.292805 
L 257.987057 206.308758 
L 258.353898 204.909409 
L 258.72074 202.942739 
L 259.087581 202.75575 
L 259.454422 201.94247 
L 259.821263 202.041816 
L 260.188105 199.948227 
L 260.554946 199.899932 
L 260.921787 198.459041 
L 261.288629 198.22966 
L 261.65547 197.789961 
L 262.022311 196.413252 
L 262.755994 196.42463 
L 263.489676 195.86758 
L 263.856518 196.695602 
L 264.223359 195.291875 
L 264.5902 194.544568 
L 264.957042 197.220425 
L 265.323883 197.353426 
L 265.690724 197.226818 
L 266.057565 197.307626 
L 266.424407 197.240172 
L 266.791248 195.900351 
L 267.158089 196.219855 
L 267.524931 196.760954 
L 267.891772 196.16375 
L 268.258613 193.422492 
L 268.625455 194.173779 
L 268.992296 193.799136 
L 269.359137 190.885054 
L 269.725978 192.3108 
L 270.826502 188.508823 
L 271.193344 176.622079 
L 271.560185 181.181512 
L 271.927026 188.038945 
L 272.293867 189.297517 
L 273.02755 188.081706 
L 273.394391 186.88935 
L 273.761233 187.780783 
L 274.128074 187.527835 
L 274.494915 188.465975 
L 274.861757 186.348086 
L 275.228598 188.21874 
L 275.96228 186.276273 
L 276.329122 186.248992 
L 276.695963 186.829328 
L 277.062804 184.401628 
L 277.429646 183.991132 
L 277.796487 181.958541 
L 278.163328 183.825205 
L 278.530169 185.012405 
L 278.897011 182.732458 
L 279.630693 176.374189 
L 279.997535 177.763786 
L 280.364376 176.619065 
L 280.731217 175.99389 
L 281.098059 174.509059 
L 281.4649 175.126452 
L 281.831741 175.299048 
L 282.198582 175.143908 
L 282.565424 174.650215 
L 282.932265 173.862837 
L 283.299106 171.665232 
L 283.665948 174.441877 
L 284.032789 175.227958 
L 284.39963 175.375842 
L 284.766471 176.625264 
L 285.133313 177.31864 
L 285.866995 177.061206 
L 286.233837 177.542938 
L 286.600678 177.26501 
L 286.967519 177.89516 
L 287.701202 175.352619 
L 288.068043 176.952908 
L 288.434884 176.409251 
L 288.801726 175.056114 
L 289.168567 175.205595 
L 289.535408 174.553907 
L 289.90225 172.524821 
L 290.269091 161.30708 
L 290.635932 161.008434 
L 291.002773 171.988551 
L 291.369615 173.528134 
L 291.736456 173.843337 
L 292.103297 172.783667 
L 292.470139 171.352475 
L 293.203821 169.748768 
L 293.570663 169.703352 
L 293.937504 170.235423 
L 294.304345 169.854265 
L 294.671186 161.292299 
L 295.038028 157.555471 
L 295.404869 156.100308 
L 295.77171 157.185254 
L 296.872234 153.383438 
L 297.239076 153.650289 
L 297.605917 155.663803 
L 297.972758 153.818682 
L 298.339599 153.11449 
L 298.706441 154.761958 
L 299.073282 155.66771 
L 299.806965 152.819563 
L 300.173806 150.107984 
L 300.540647 149.902874 
L 300.907488 148.431202 
L 301.27433 149.702361 
L 301.641171 149.527604 
L 302.008012 150.532121 
L 302.374854 149.569588 
L 302.741695 149.577612 
L 303.108536 150.425726 
L 303.475378 151.925484 
L 303.842219 151.208837 
L 304.20906 152.929666 
L 304.942743 153.051119 
L 305.309584 153.715287 
L 305.676425 152.505092 
L 306.043267 152.675907 
L 306.410108 151.718899 
L 306.776949 149.986764 
L 307.14379 151.962105 
L 307.510632 152.359631 
L 307.877473 152.166399 
L 308.244314 154.3863 
L 308.611156 152.526786 
L 309.344838 145.009097 
L 309.71168 139.029365 
L 310.445362 147.975649 
L 310.812203 147.313524 
L 311.179045 148.139454 
L 311.545886 147.116249 
L 312.279569 146.240136 
L 312.64641 146.370146 
L 313.013251 147.85955 
L 313.380092 147.491033 
L 313.746934 147.304888 
L 314.113775 145.554716 
L 314.480616 148.422329 
L 315.214299 145.722079 
L 315.58114 147.757966 
L 315.947982 146.575349 
L 316.314823 143.49799 
L 316.681664 143.800335 
L 317.048505 141.970131 
L 317.415347 140.897699 
L 317.782188 142.58147 
L 318.149029 142.921897 
L 318.882712 136.188586 
L 319.249553 136.073954 
L 319.616394 135.740848 
L 319.983236 135.058879 
L 320.350077 132.583026 
L 320.716918 133.889222 
L 321.08376 132.653485 
L 321.450601 132.748142 
L 321.817442 133.86781 
L 322.184284 136.607029 
L 322.551125 137.242184 
L 322.917966 137.287789 
L 323.284807 138.661906 
L 323.651649 136.665979 
L 324.385331 137.732765 
L 324.752173 137.981568 
L 325.119014 137.777647 
L 325.485855 137.375053 
L 325.852696 139.539625 
L 326.219538 138.543691 
L 326.586379 139.019943 
L 326.95322 137.604726 
L 327.320062 138.585495 
L 328.053744 136.171664 
L 328.420586 131.360409 
L 328.787427 120.09449 
L 329.521109 131.356118 
L 329.887951 131.665351 
L 330.254792 133.244092 
L 330.621633 131.749984 
L 330.988475 134.268108 
L 331.355316 133.378466 
L 331.722157 130.250275 
L 332.088998 131.963288 
L 332.45584 131.957419 
L 332.822681 134.057047 
L 333.189522 130.495233 
L 333.556364 124.467026 
L 333.923205 124.609682 
L 334.290046 134.103312 
L 334.656888 123.445651 
L 335.39057 120.287178 
L 335.757411 123.652989 
L 336.124253 123.490557 
L 336.491094 122.265077 
L 336.857935 119.446486 
L 337.224777 120.031575 
L 337.958459 113.091941 
L 338.3253 113.792787 
L 338.692142 113.588876 
L 339.058983 111.355996 
L 339.425824 111.272872 
L 339.792666 112.102501 
L 340.159507 110.958901 
L 340.526348 111.725037 
L 340.89319 111.817962 
L 341.260031 114.860943 
L 341.626872 115.619724 
L 342.360555 118.359065 
L 342.727396 116.477518 
L 343.094237 117.514334 
L 343.461079 117.634393 
L 343.82792 115.034083 
L 344.194761 117.954369 
L 344.561602 118.765435 
L 344.928444 115.941219 
L 345.295285 115.177282 
L 345.662126 117.266711 
L 346.028968 114.054216 
L 346.395809 117.182136 
L 346.76265 117.458166 
L 347.129492 113.473234 
L 347.863174 100.516029 
L 348.230015 107.14727 
L 348.596857 111.665447 
L 348.963698 111.597362 
L 349.330539 112.131 
L 349.697381 111.089169 
L 350.064222 111.211039 
L 350.431063 111.870479 
L 351.164746 109.754551 
L 351.531587 112.525051 
L 352.26527 105.886737 
L 352.632111 109.280236 
L 352.998952 105.363215 
L 353.365794 107.809749 
L 353.732635 108.410623 
L 354.099476 107.230238 
L 354.466317 104.325578 
L 354.833159 108.725108 
L 355.2 108.579458 
L 355.566841 105.445188 
L 355.933683 105.976482 
L 356.300524 105.446945 
L 356.667365 101.200512 
L 357.401048 97.01632 
L 357.767889 97.343834 
L 358.13473 97.18381 
L 358.501572 96.148891 
L 358.868413 97.42519 
L 359.235254 96.068496 
L 359.602096 96.983078 
L 359.968937 95.708861 
L 361.069461 102.080601 
L 361.436302 101.107195 
L 361.803143 102.626297 
L 362.169985 102.203675 
L 362.536826 101.585272 
L 362.903667 101.308596 
L 363.270508 103.308305 
L 363.63735 103.936998 
L 364.004191 101.406778 
L 364.371032 102.272502 
L 364.737874 104.554945 
L 365.104715 102.204956 
L 365.471556 103.769712 
L 365.838398 104.265905 
L 366.205239 102.882294 
L 366.57208 98.376243 
L 366.938921 87.213024 
L 367.305763 92.460003 
L 367.672604 99.318635 
L 368.039445 99.319504 
L 368.406287 101.680885 
L 368.773128 100.735003 
L 369.50681 97.697856 
L 369.873652 97.025635 
L 370.240493 99.301155 
L 370.607334 85.009245 
L 371.341017 85.009245 
L 371.707858 95.769787 
L 372.0747 94.582606 
L 372.441541 95.018806 
L 372.808382 99.40604 
L 373.175223 98.74077 
L 373.542065 95.317092 
L 373.908906 96.231951 
L 374.275747 95.010029 
L 374.642589 95.857269 
L 375.00943 93.092818 
L 375.376271 88.075822 
L 375.743112 88.800401 
L 376.109954 84.85306 
L 376.476795 85.661505 
L 376.843636 85.315788 
L 377.210478 85.844606 
L 377.577319 85.696024 
L 377.94416 85.04635 
L 378.311002 86.620242 
L 378.677843 86.42103 
L 379.044684 86.441151 
L 379.411525 89.87127 
L 379.778367 90.646838 
L 380.145208 91.974087 
L 380.512049 92.807725 
L 381.612573 92.324216 
L 381.979414 92.697112 
L 382.346256 92.318547 
L 382.713097 92.793269 
L 383.079938 93.861915 
L 383.44678 91.368198 
L 383.813621 92.970288 
L 384.180462 93.967188 
L 384.547304 88.806765 
L 384.914145 92.82372 
L 385.280986 91.249158 
L 385.647827 86.915344 
L 386.014669 78.270551 
L 386.38151 76.739895 
L 386.748351 89.200893 
L 387.115193 91.974975 
L 387.482034 89.687154 
L 387.848875 88.31096 
L 388.215716 89.652466 
L 388.949399 87.557474 
L 389.31624 88.22638 
L 389.683082 85.176574 
L 390.049923 86.028421 
L 390.416764 84.485528 
L 390.783606 82.131156 
L 391.150447 80.533212 
L 391.517288 82.887661 
L 391.884129 81.735125 
L 392.250971 82.999702 
L 392.617812 82.906418 
L 392.984653 86.089773 
L 393.351495 85.310221 
L 394.085177 79.602188 
L 394.452018 79.099709 
L 394.81886 80.080857 
L 395.185701 78.701105 
L 395.552542 75.114457 
L 395.919384 74.208413 
L 396.286225 75.099452 
L 396.653066 70.732975 
L 397.019908 72.400417 
L 397.386749 72.189273 
L 397.75359 72.317851 
L 398.120431 72.813641 
L 398.487273 75.487527 
L 398.487273 75.487527 
" clip-path="url(#p67fcabd5ef)" style="fill: none; stroke: #ff7f0e; stroke-width: 1.5; stroke-linecap: square"/>
   </g>
   <g id="line2d_19">
    <path d="M 73.832727 295.256027 
L 81.903236 295.217635 
L 82.270077 295.265391 
L 83.00376 295.179869 
L 85.204807 295.251308 
L 94.37584 295.227426 
L 94.742681 295.008845 
L 95.109522 295.183146 
L 122.255778 295.307205 
L 122.622619 295.233028 
L 123.356302 295.369955 
L 125.924191 295.320102 
L 126.657874 295.337849 
L 127.024715 295.292074 
L 127.758398 295.394906 
L 128.858921 295.365795 
L 129.225763 295.420526 
L 130.326287 295.293118 
L 130.693128 295.378567 
L 131.793652 295.231125 
L 132.160493 295.349669 
L 135.095223 295.255401 
L 135.462065 295.239115 
L 135.828906 295.109357 
L 136.92943 295.344058 
L 137.663112 295.108366 
L 138.029954 295.186626 
L 138.396795 295.080338 
L 140.231002 295.269177 
L 141.331525 294.90196 
L 141.698367 295.09227 
L 142.065208 295.003423 
L 143.165732 295.173777 
L 143.532573 295.043534 
L 143.899414 295.086586 
L 144.633097 294.879505 
L 144.999938 294.928134 
L 145.733621 294.852797 
L 146.100462 294.983157 
L 146.834145 294.840652 
L 147.200986 295.063679 
L 150.869399 294.826744 
L 151.23624 294.630906 
L 151.603082 294.581184 
L 152.336764 294.746077 
L 153.070447 294.705962 
L 153.437288 294.944585 
L 154.904653 294.652109 
L 156.005177 294.684943 
L 156.372018 294.933246 
L 157.472542 294.517007 
L 158.206225 294.591543 
L 158.573066 294.536982 
L 158.939908 294.740941 
L 159.306749 294.541957 
L 160.040431 294.794177 
L 161.140955 294.445824 
L 162.241479 294.536258 
L 162.60832 294.342294 
L 162.975162 294.467435 
L 163.708844 294.191328 
L 164.075686 294.328794 
L 164.442527 294.231292 
L 164.809368 294.295984 
L 165.543051 294.251831 
L 166.276733 294.245025 
L 166.643575 294.146271 
L 167.010416 294.254622 
L 168.11094 294.09867 
L 168.477781 294.280262 
L 169.211464 294.140489 
L 169.578305 293.88324 
L 169.945146 293.765899 
L 170.311988 293.481088 
L 171.04567 293.440764 
L 171.412512 293.205126 
L 171.779353 293.672728 
L 172.146194 293.63952 
L 172.513035 293.371257 
L 172.879877 293.322515 
L 173.246718 292.957716 
L 173.613559 293.15055 
L 173.980401 292.643522 
L 174.714083 293.086591 
L 175.080924 292.992861 
L 175.447766 293.961568 
L 175.814607 293.89274 
L 176.181448 292.816017 
L 176.54829 292.697768 
L 176.915131 292.739859 
L 177.281972 292.942736 
L 177.648814 292.106685 
L 178.015655 292.807954 
L 178.382496 292.812221 
L 178.749337 292.414321 
L 179.116179 292.933979 
L 179.48302 292.22156 
L 179.849861 292.328212 
L 180.216703 292.725243 
L 180.950385 292.679337 
L 181.317227 292.944139 
L 181.684068 292.501842 
L 182.050909 292.763907 
L 182.41775 292.208099 
L 182.784592 292.63677 
L 183.151433 292.384055 
L 183.518274 292.742679 
L 183.885116 292.564612 
L 184.251957 292.873612 
L 184.985639 291.964791 
L 185.352481 292.700637 
L 185.719322 292.581194 
L 186.086163 292.191017 
L 186.453005 292.432063 
L 186.819846 292.81557 
L 187.186687 292.420204 
L 187.92037 292.080642 
L 188.287211 291.594138 
L 188.654052 291.829471 
L 189.020894 291.678703 
L 189.387735 291.26061 
L 189.754576 291.375432 
L 190.121418 288.797499 
L 190.488259 292.157363 
L 190.8551 292.432078 
L 191.221941 291.515777 
L 191.588783 291.512311 
L 192.322465 290.956741 
L 192.689307 290.99688 
L 193.056148 290.737311 
L 193.422989 290.854531 
L 194.156672 290.309422 
L 194.523513 292.064997 
L 194.890354 292.731607 
L 195.257196 289.887683 
L 195.624037 290.202629 
L 196.35772 289.832155 
L 196.724561 289.997048 
L 197.091402 289.952312 
L 197.458243 290.508401 
L 197.825085 288.376444 
L 198.191926 289.909643 
L 198.558767 289.902483 
L 198.925609 289.27944 
L 199.29245 289.603002 
L 199.659291 290.098991 
L 200.026133 289.786356 
L 200.392974 289.860635 
L 200.759815 288.733855 
L 201.126656 289.254431 
L 201.493498 288.883816 
L 201.860339 288.309223 
L 202.22718 289.637006 
L 202.594022 288.628062 
L 202.960863 289.596886 
L 203.327704 288.612189 
L 203.694545 289.034297 
L 204.061387 288.479669 
L 204.428228 289.828291 
L 204.795069 289.536233 
L 205.161911 288.634305 
L 205.895593 289.450541 
L 206.262435 289.165987 
L 206.629276 288.094939 
L 206.996117 288.778305 
L 207.362958 287.202195 
L 207.7298 287.69615 
L 208.096641 286.89686 
L 208.830324 286.167587 
L 209.564006 286.305767 
L 209.930847 286.36044 
L 210.297689 285.342041 
L 210.66453 286.427409 
L 211.031371 286.143408 
L 211.398213 285.110747 
L 211.765054 285.347934 
L 212.131895 285.115504 
L 212.498737 285.218166 
L 213.232419 286.404279 
L 213.59926 288.133486 
L 213.966102 289.174812 
L 214.332943 285.125382 
L 214.699784 284.741278 
L 215.066626 284.788442 
L 215.433467 285.223326 
L 215.800308 285.148595 
L 216.167149 284.933345 
L 216.900832 285.73014 
L 217.267673 284.739647 
L 217.634515 284.976766 
L 218.001356 284.32067 
L 218.368197 285.423256 
L 218.735039 285.521229 
L 219.10188 284.529426 
L 219.835562 283.578349 
L 220.202404 282.983742 
L 220.569245 284.908574 
L 220.936086 283.948827 
L 221.302928 283.646206 
L 221.669769 284.568856 
L 222.03661 283.662992 
L 222.403451 284.370858 
L 222.770293 284.285584 
L 223.137134 283.859811 
L 223.503975 284.829144 
L 223.870817 285.315609 
L 224.237658 284.874963 
L 224.604499 284.097231 
L 224.971341 284.437841 
L 225.338182 285.252873 
L 225.705023 284.770263 
L 226.438706 282.866906 
L 226.805547 282.988164 
L 227.172388 281.191721 
L 227.906071 281.162329 
L 228.272912 280.064378 
L 228.639753 281.314707 
L 229.006595 281.130145 
L 229.373436 279.999705 
L 229.740277 279.400991 
L 230.107119 280.835154 
L 230.47396 279.572112 
L 231.207643 279.347556 
L 231.941325 279.859914 
L 232.308166 278.193738 
L 232.675008 280.652039 
L 233.041849 284.520994 
L 233.775532 278.236926 
L 234.142373 278.483559 
L 234.509214 277.97025 
L 234.876055 278.667748 
L 235.242897 279.109675 
L 235.609738 278.941656 
L 235.976579 278.911473 
L 236.343421 279.406642 
L 236.710262 278.591959 
L 237.077103 278.501777 
L 237.443945 278.037428 
L 237.810786 278.949661 
L 238.177627 279.088307 
L 238.544468 278.777147 
L 238.91131 278.82884 
L 239.278151 275.787601 
L 239.644992 279.716544 
L 240.011834 277.200071 
L 240.378675 277.245181 
L 240.745516 277.972464 
L 241.112357 279.901335 
L 241.479199 279.121388 
L 241.84604 277.860749 
L 242.212881 277.39023 
L 242.579723 280.029345 
L 242.946564 279.539147 
L 243.313405 279.54753 
L 243.680247 278.724304 
L 244.047088 279.576306 
L 244.413929 280.095663 
L 245.147612 280.655087 
L 245.881294 277.281699 
L 246.248136 277.569214 
L 246.614977 276.981374 
L 246.981818 277.820449 
L 247.348659 276.397271 
L 247.715501 276.721324 
L 248.082342 277.473227 
L 248.449183 276.257557 
L 248.816025 276.7426 
L 249.182866 278.009011 
L 249.549707 276.198054 
L 249.916549 275.220401 
L 250.28339 276.479633 
L 250.650231 276.599833 
L 251.017072 290.475091 
L 251.383914 280.968126 
L 251.750755 278.263921 
L 252.117596 283.033201 
L 252.484438 281.805929 
L 252.851279 276.187855 
L 253.21812 277.256011 
L 253.584961 275.911694 
L 253.951803 275.972702 
L 254.318644 275.840022 
L 254.685485 278.336496 
L 255.052327 276.901207 
L 255.419168 276.109183 
L 255.786009 275.650149 
L 256.152851 276.969991 
L 256.519692 277.118243 
L 256.886533 277.784043 
L 257.253374 277.570821 
L 257.620216 273.539978 
L 257.987057 275.435472 
L 258.353898 274.389189 
L 258.72074 277.387089 
L 259.087581 275.521299 
L 259.454422 275.052838 
L 260.188105 276.23098 
L 260.554946 275.23559 
L 261.288629 277.537186 
L 262.022311 279.03528 
L 262.755994 277.487139 
L 263.489676 279.338285 
L 263.856518 278.658403 
L 264.223359 278.313754 
L 264.5902 278.409838 
L 264.957042 274.46657 
L 265.323883 274.021298 
L 266.424407 273.922505 
L 266.791248 274.399189 
L 267.158089 273.201829 
L 267.524931 273.676455 
L 267.891772 271.056062 
L 268.258613 273.880079 
L 268.625455 272.736426 
L 268.992296 270.764324 
L 269.359137 272.974283 
L 269.725978 271.125317 
L 270.09282 272.343701 
L 270.459661 272.382593 
L 270.826502 273.57137 
L 271.193344 284.301384 
L 271.927026 273.357416 
L 273.02755 272.133217 
L 273.394391 274.324483 
L 273.761233 273.250405 
L 274.128074 273.938165 
L 274.494915 271.462729 
L 274.861757 273.044237 
L 275.595439 271.760074 
L 275.96228 272.743416 
L 276.329122 272.294795 
L 276.695963 271.670261 
L 277.062804 273.957669 
L 277.429646 271.0726 
L 277.796487 273.009194 
L 278.163328 271.402624 
L 278.530169 271.012544 
L 278.897011 271.103162 
L 279.630693 274.108353 
L 279.997535 272.288139 
L 280.364376 273.580768 
L 280.731217 273.896302 
L 281.098059 273.695867 
L 281.4649 274.468235 
L 281.831741 272.815943 
L 282.198582 274.3442 
L 282.565424 273.853561 
L 282.932265 274.045103 
L 283.299106 276.19302 
L 284.032789 271.414279 
L 284.39963 271.412187 
L 284.766471 271.551498 
L 285.133313 270.387564 
L 285.500154 271.073018 
L 285.866995 271.447462 
L 286.233837 269.185985 
L 286.600678 270.529812 
L 286.967519 270.186085 
L 287.701202 271.663028 
L 288.068043 268.468503 
L 288.801726 270.354793 
L 289.168567 270.320381 
L 289.535408 270.044992 
L 289.90225 271.668538 
L 290.269091 281.712835 
L 290.635932 281.498575 
L 291.002773 271.243571 
L 291.369615 269.919583 
L 291.736456 269.652883 
L 292.103297 269.952913 
L 292.470139 270.475012 
L 292.83698 271.785714 
L 293.203821 271.261915 
L 293.570663 271.833989 
L 293.937504 271.074324 
L 294.304345 270.613814 
L 294.671186 279.381468 
L 295.038028 283.696481 
L 295.404869 284.88806 
L 296.138552 282.808354 
L 296.872234 283.875796 
L 297.239076 283.865951 
L 297.605917 281.308261 
L 297.972758 281.342231 
L 298.339599 282.632301 
L 298.706441 278.385844 
L 299.073282 279.560044 
L 299.440123 279.17879 
L 299.806965 278.332588 
L 300.173806 281.732708 
L 300.540647 280.468137 
L 300.907488 280.948097 
L 301.27433 279.77181 
L 301.641171 279.202551 
L 302.008012 280.063218 
L 302.374854 279.471882 
L 302.741695 280.0465 
L 303.108536 279.54023 
L 303.475378 277.297704 
L 303.842219 277.38006 
L 304.20906 274.652229 
L 304.575901 276.541422 
L 304.942743 276.55546 
L 305.309584 275.01383 
L 305.676425 276.721237 
L 306.043267 277.755922 
L 306.410108 277.775373 
L 306.776949 277.326043 
L 307.14379 278.972189 
L 307.877473 276.380335 
L 308.244314 275.344945 
L 308.977997 278.686349 
L 309.344838 281.910082 
L 309.71168 286.123836 
L 310.445362 277.386293 
L 310.812203 278.249654 
L 311.912727 277.511245 
L 312.279569 278.931943 
L 312.64641 278.541091 
L 313.013251 274.78707 
L 313.380092 274.657443 
L 313.746934 273.302345 
L 314.113775 277.583447 
L 314.480616 275.55522 
L 314.847458 276.25129 
L 315.214299 277.272491 
L 315.58114 275.366017 
L 315.947982 272.084719 
L 316.314823 278.14623 
L 316.681664 276.124304 
L 317.048505 278.370058 
L 317.415347 279.89682 
L 317.782188 273.985246 
L 318.149029 273.104497 
L 318.515871 274.720319 
L 318.882712 278.069441 
L 319.249553 279.722384 
L 319.616394 277.934111 
L 319.983236 278.199083 
L 320.350077 279.579418 
L 320.716918 277.877035 
L 321.450601 277.959508 
L 321.817442 279.857593 
L 322.184284 275.491028 
L 322.551125 273.825474 
L 322.917966 275.739549 
L 323.284807 273.281729 
L 323.651649 274.896178 
L 324.01849 272.817055 
L 324.752173 274.506151 
L 325.119014 274.436591 
L 325.485855 275.229604 
L 325.852696 272.941332 
L 326.219538 272.53435 
L 326.586379 273.680192 
L 326.95322 273.146568 
L 327.320062 271.476607 
L 327.686903 272.694461 
L 328.053744 272.678486 
L 328.420586 276.203272 
L 328.787427 284.761904 
L 329.154268 280.112328 
L 329.521109 278.79519 
L 329.887951 274.601464 
L 330.254792 272.840243 
L 330.621633 276.94106 
L 330.988475 272.682705 
L 331.355316 271.84311 
L 331.722157 274.924925 
L 332.088998 273.944339 
L 332.45584 273.920321 
L 332.822681 272.381573 
L 333.189522 269.349631 
L 333.556364 274.673928 
L 333.923205 274.727834 
L 334.290046 263.88661 
L 334.656888 274.102271 
L 335.023729 273.162874 
L 335.39057 277.895063 
L 336.124253 273.30519 
L 336.491094 276.209457 
L 336.857935 276.173162 
L 337.224777 274.134474 
L 337.591618 274.246568 
L 337.958459 278.496588 
L 338.3253 272.570834 
L 338.692142 274.891333 
L 339.058983 278.670141 
L 339.425824 280.42576 
L 339.792666 278.07283 
L 340.159507 279.51358 
L 340.89319 279.163475 
L 341.260031 277.977677 
L 341.626872 276.353166 
L 341.993713 273.727336 
L 342.360555 272.569669 
L 342.727396 273.060319 
L 343.094237 272.376889 
L 343.461079 270.555757 
L 343.82792 274.356894 
L 344.194761 274.676695 
L 344.561602 271.685226 
L 344.928444 271.203853 
L 345.295285 274.707252 
L 345.662126 271.026446 
L 346.028968 275.891802 
L 346.395809 271.271356 
L 346.76265 270.974103 
L 347.129492 272.866296 
L 347.496333 276.790899 
L 347.863174 282.170175 
L 348.596857 273.398381 
L 348.963698 272.177798 
L 349.330539 272.023973 
L 349.697381 275.26189 
L 350.431063 272.583271 
L 350.797904 275.124957 
L 351.164746 275.307427 
L 351.531587 271.02101 
L 351.898428 274.730931 
L 352.26527 276.581561 
L 352.632111 271.779947 
L 352.998952 276.79439 
L 353.732635 271.340315 
L 354.466317 276.510044 
L 354.833159 272.050035 
L 355.2 270.868874 
L 355.566841 275.518284 
L 355.933683 275.031581 
L 356.300524 272.894441 
L 356.667365 277.108215 
L 357.034206 277.999434 
L 357.401048 276.703038 
L 357.767889 277.80561 
L 358.13473 277.593456 
L 358.501572 278.215806 
L 358.868413 276.798506 
L 359.235254 278.511228 
L 359.602096 276.363054 
L 359.968937 279.084608 
L 360.702619 270.517317 
L 361.069461 270.540107 
L 361.436302 273.469757 
L 361.803143 272.71517 
L 362.169985 269.525518 
L 362.536826 272.293877 
L 362.903667 271.455544 
L 363.270508 273.350086 
L 363.63735 270.163542 
L 364.371032 273.040577 
L 364.737874 270.956852 
L 365.104715 274.458648 
L 365.471556 270.822866 
L 365.838398 272.533748 
L 366.205239 271.2361 
L 366.57208 275.414899 
L 366.938921 284.041747 
L 367.305763 281.981822 
L 367.672604 275.109079 
L 368.039445 274.344055 
L 368.406287 272.064229 
L 368.773128 271.627287 
L 369.139969 274.405572 
L 369.50681 273.13187 
L 369.873652 274.450634 
L 370.240493 272.176424 
L 370.607334 295.488 
L 371.341017 295.488 
L 371.707858 273.510115 
L 372.441541 275.710419 
L 372.808382 270.910426 
L 373.175223 270.014008 
L 373.542065 273.824571 
L 373.908906 272.217113 
L 374.275747 271.121914 
L 374.642589 271.138914 
L 375.00943 269.20981 
L 375.376271 275.190931 
L 375.743112 273.106492 
L 376.109954 277.418923 
L 376.476795 275.396012 
L 376.843636 279.573772 
L 377.210478 276.125401 
L 377.94416 278.549557 
L 378.311002 278.415207 
L 378.677843 277.311087 
L 379.044684 278.470118 
L 379.411525 274.064059 
L 379.778367 272.082146 
L 380.145208 272.279188 
L 380.878891 272.084937 
L 381.245732 276.374015 
L 381.612573 272.59811 
L 381.979414 272.736237 
L 382.346256 271.088833 
L 382.713097 272.900222 
L 383.079938 271.355635 
L 383.44678 273.762466 
L 383.813621 271.976237 
L 384.180462 268.851375 
L 384.547304 275.3949 
L 384.914145 270.196123 
L 385.280986 271.600894 
L 386.38151 287.253198 
L 386.748351 276.38781 
L 387.115193 272.476114 
L 387.848875 274.434387 
L 388.215716 272.037172 
L 388.949399 273.261007 
L 389.31624 270.350924 
L 389.683082 273.907287 
L 390.416764 270.336366 
L 391.150447 277.233526 
L 391.517288 273.611408 
L 391.884129 272.203598 
L 392.250971 277.13868 
L 392.617812 273.537066 
L 393.351495 272.007609 
L 393.718336 273.444821 
L 394.085177 276.29625 
L 394.452018 274.109732 
L 394.81886 275.288743 
L 395.185701 271.692352 
L 395.552542 278.972961 
L 395.919384 277.574277 
L 396.286225 275.304214 
L 396.653066 279.906621 
L 397.019908 277.012688 
L 397.386749 276.866727 
L 397.75359 280.211412 
L 398.120431 279.710035 
L 398.487273 277.475868 
L 398.487273 277.475868 
" clip-path="url(#p67fcabd5ef)" style="fill: none; stroke: #2ca02c; stroke-width: 1.5; stroke-linecap: square"/>
   </g>
   <g id="patch_3">
    <path d="M 57.6 307.584 
L 57.6 41.472 
" style="fill: none; stroke: #000000; stroke-width: 0.8; stroke-linejoin: miter; stroke-linecap: square"/>
   </g>
   <g id="patch_4">
    <path d="M 414.72 307.584 
L 414.72 41.472 
" style="fill: none; stroke: #000000; stroke-width: 0.8; stroke-linejoin: miter; stroke-linecap: square"/>
   </g>
   <g id="patch_5">
    <path d="M 57.6 307.584 
L 414.72 307.584 
" style="fill: none; stroke: #000000; stroke-width: 0.8; stroke-linejoin: miter; stroke-linecap: square"/>
   </g>
   <g id="patch_6">
    <path d="M 57.6 41.472 
L 414.72 41.472 
" style="fill: none; stroke: #000000; stroke-width: 0.8; stroke-linejoin: miter; stroke-linecap: square"/>
   </g>
   <g id="legend_1">
    <g id="patch_7">
     <path d="M 64.6 93.506375 
L 186.25625 93.506375 
Q 188.25625 93.506375 188.25625 91.506375 
L 188.25625 48.472 
Q 188.25625 46.472 186.25625 46.472 
L 64.6 46.472 
Q 62.6 46.472 62.6 48.472 
L 62.6 91.506375 
Q 62.6 93.506375 64.6 93.506375 
z
" style="fill: #ffffff; opacity: 0.8; stroke: #cccccc; stroke-linejoin: miter"/>
    </g>
    <g id="line2d_20">
     <path d="M 66.6 54.570438 
L 76.6 54.570438 
L 86.6 54.570438 
" style="fill: none; stroke: #1f77b4; stroke-width: 1.5; stroke-linecap: square"/>
    </g>
    <g id="text_19">
     <!-- Weekly maximum -->
     <g transform="translate(94.6 58.070438) scale(0.1 -0.1)">
      <defs>
       <path id="DejaVuSans-57" d="M 213 4666 
L 850 4666 
L 1831 722 
L 2809 4666 
L 3519 4666 
L 4500 722 
L 5478 4666 
L 6119 4666 
L 4947 0 
L 4153 0 
L 3169 4050 
L 2175 0 
L 1381 0 
L 213 4666 
z
" transform="scale(0.015625)"/>
       <path id="DejaVuSans-6b" d="M 581 4863 
L 1159 4863 
L 1159 1991 
L 2875 3500 
L 3609 3500 
L 1753 1863 
L 3688 0 
L 2938 0 
L 1159 1709 
L 1159 0 
L 581 0 
L 581 4863 
z
" transform="scale(0.015625)"/>
       <path id="DejaVuSans-79" d="M 2059 -325 
Q 1816 -950 1584 -1140 
Q 1353 -1331 966 -1331 
L 506 -1331 
L 506 -850 
L 844 -850 
Q 1081 -850 1212 -737 
Q 1344 -625 1503 -206 
L 1606 56 
L 191 3500 
L 800 3500 
L 1894 763 
L 2988 3500 
L 3597 3500 
L 2059 -325 
z
" transform="scale(0.015625)"/>
       <path id="DejaVuSans-6d" d="M 3328 2828 
Q 3544 3216 3844 3400 
Q 4144 3584 4550 3584 
Q 5097 3584 5394 3201 
Q 5691 2819 5691 2113 
L 5691 0 
L 5113 0 
L 5113 2094 
Q 5113 2597 4934 2840 
Q 4756 3084 4391 3084 
Q 3944 3084 3684 2787 
Q 3425 2491 3425 1978 
L 3425 0 
L 2847 0 
L 2847 2094 
Q 2847 2600 2669 2842 
Q 2491 3084 2119 3084 
Q 1678 3084 1418 2786 
Q 1159 2488 1159 1978 
L 1159 0 
L 581 0 
L 581 3500 
L 1159 3500 
L 1159 2956 
Q 1356 3278 1631 3431 
Q 1906 3584 2284 3584 
Q 2666 3584 2933 3390 
Q 3200 3197 3328 2828 
z
" transform="scale(0.015625)"/>
       <path id="DejaVuSans-78" d="M 3513 3500 
L 2247 1797 
L 3578 0 
L 2900 0 
L 1881 1375 
L 863 0 
L 184 0 
L 1544 1831 
L 300 3500 
L 978 3500 
L 1906 2253 
L 2834 3500 
L 3513 3500 
z
" transform="scale(0.015625)"/>
       <path id="DejaVuSans-75" d="M 544 1381 
L 544 3500 
L 1119 3500 
L 1119 1403 
Q 1119 906 1312 657 
Q 1506 409 1894 409 
Q 2359 409 2629 706 
Q 2900 1003 2900 1516 
L 2900 3500 
L 3475 3500 
L 3475 0 
L 2900 0 
L 2900 538 
Q 2691 219 2414 64 
Q 2138 -91 1772 -91 
Q 1169 -91 856 284 
Q 544 659 544 1381 
z
M 1991 3584 
L 1991 3584 
z
" transform="scale(0.015625)"/>
      </defs>
      <use xlink:href="#DejaVuSans-57"/>
      <use xlink:href="#DejaVuSans-65" transform="translate(93.001953 0)"/>
      <use xlink:href="#DejaVuSans-65" transform="translate(154.525391 0)"/>
      <use xlink:href="#DejaVuSans-6b" transform="translate(216.048828 0)"/>
      <use xlink:href="#DejaVuSans-6c" transform="translate(273.958984 0)"/>
      <use xlink:href="#DejaVuSans-79" transform="translate(301.742188 0)"/>
      <use xlink:href="#DejaVuSans-20" transform="translate(360.921875 0)"/>
      <use xlink:href="#DejaVuSans-6d" transform="translate(392.708984 0)"/>
      <use xlink:href="#DejaVuSans-61" transform="translate(490.121094 0)"/>
      <use xlink:href="#DejaVuSans-78" transform="translate(551.400391 0)"/>
      <use xlink:href="#DejaVuSans-69" transform="translate(610.580078 0)"/>
      <use xlink:href="#DejaVuSans-6d" transform="translate(638.363281 0)"/>
      <use xlink:href="#DejaVuSans-75" transform="translate(735.775391 0)"/>
      <use xlink:href="#DejaVuSans-6d" transform="translate(799.154297 0)"/>
     </g>
    </g>
    <g id="line2d_21">
     <path d="M 66.6 69.248563 
L 76.6 69.248563 
L 86.6 69.248563 
" style="fill: none; stroke: #ff7f0e; stroke-width: 1.5; stroke-linecap: square"/>
    </g>
    <g id="text_20">
     <!-- Weekly minimum -->
     <g transform="translate(94.6 72.748563) scale(0.1 -0.1)">
      <defs>
       <path id="DejaVuSans-6e" d="M 3513 2113 
L 3513 0 
L 2938 0 
L 2938 2094 
Q 2938 2591 2744 2837 
Q 2550 3084 2163 3084 
Q 1697 3084 1428 2787 
Q 1159 2491 1159 1978 
L 1159 0 
L 581 0 
L 581 3500 
L 1159 3500 
L 1159 2956 
Q 1366 3272 1645 3428 
Q 1925 3584 2291 3584 
Q 2894 3584 3203 3211 
Q 3513 2838 3513 2113 
z
" transform="scale(0.015625)"/>
      </defs>
      <use xlink:href="#DejaVuSans-57"/>
      <use xlink:href="#DejaVuSans-65" transform="translate(93.001953 0)"/>
      <use xlink:href="#DejaVuSans-65" transform="translate(154.525391 0)"/>
      <use xlink:href="#DejaVuSans-6b" transform="translate(216.048828 0)"/>
      <use xlink:href="#DejaVuSans-6c" transform="translate(273.958984 0)"/>
      <use xlink:href="#DejaVuSans-79" transform="translate(301.742188 0)"/>
      <use xlink:href="#DejaVuSans-20" transform="translate(360.921875 0)"/>
      <use xlink:href="#DejaVuSans-6d" transform="translate(392.708984 0)"/>
      <use xlink:href="#DejaVuSans-69" transform="translate(490.121094 0)"/>
      <use xlink:href="#DejaVuSans-6e" transform="translate(517.904297 0)"/>
      <use xlink:href="#DejaVuSans-69" transform="translate(581.283203 0)"/>
      <use xlink:href="#DejaVuSans-6d" transform="translate(609.066406 0)"/>
      <use xlink:href="#DejaVuSans-75" transform="translate(706.478516 0)"/>
      <use xlink:href="#DejaVuSans-6d" transform="translate(769.857422 0)"/>
     </g>
    </g>
    <g id="line2d_22">
     <path d="M 66.6 83.926688 
L 76.6 83.926688 
L 86.6 83.926688 
" style="fill: none; stroke: #2ca02c; stroke-width: 1.5; stroke-linecap: square"/>
    </g>
    <g id="text_21">
     <!-- Weekly range -->
     <g transform="translate(94.6 87.426688) scale(0.1 -0.1)">
      <use xlink:href="#DejaVuSans-57"/>
      <use xlink:href="#DejaVuSans-65" transform="translate(93.001953 0)"/>
      <use xlink:href="#DejaVuSans-65" transform="translate(154.525391 0)"/>
      <use xlink:href="#DejaVuSans-6b" transform="translate(216.048828 0)"/>
      <use xlink:href="#DejaVuSans-6c" transform="translate(273.958984 0)"/>
      <use xlink:href="#DejaVuSans-79" transform="translate(301.742188 0)"/>
      <use xlink:href="#DejaVuSans-20" transform="translate(360.921875 0)"/>
      <use xlink:href="#DejaVuSans-72" transform="translate(392.708984 0)"/>
      <use xlink:href="#DejaVuSans-61" transform="translate(433.822266 0)"/>
      <use xlink:href="#DejaVuSans-6e" transform="translate(495.101562 0)"/>
      <use xlink:href="#DejaVuSans-67" transform="translate(558.480469 0)"/>
      <use xlink:href="#DejaVuSans-65" transform="translate(621.957031 0)"/>
     </g>
    </g>
   </g>
  </g>
 </g>
 <defs>
  <clipPath id="p67fcabd5ef">
   <rect x="57.6" y="41.472" width="357.12" height="266.112"/>
  </clipPath>
 </defs>
</svg>
