<?xml version="1.0" encoding="utf-8" standalone="no"?>
<!DOCTYPE svg PUBLIC "-//W3C//DTD SVG 1.1//EN"
  "http://www.w3.org/Graphics/SVG/1.1/DTD/svg11.dtd">
<svg xmlns:xlink="http://www.w3.org/1999/xlink" width="460.8pt" height="345.6pt" viewBox="0 0 460.8 345.6" xmlns="http://www.w3.org/2000/svg" version="1.1">
 <metadata>
  <rdf:RDF xmlns:dc="http://purl.org/dc/elements/1.1/" xmlns:cc="http://creativecommons.org/ns#" xmlns:rdf="http://www.w3.org/1999/02/22-rdf-syntax-ns#">
   <cc:Work>
    <dc:type rdf:resource="http://purl.org/dc/dcmitype/StillImage"/>
    <dc:date>2026-06-30T08:39:28.477870</dc:date>
    <dc:format>image/svg+xml</dc:format>
    <dc:creator>
     <cc:Agent>
      <dc:title>Matplotlib v3.10.9, https://matplotlib.org/</dc:title>
     </cc:Agent>
    </dc:creator>
   </cc:Work>
  </rdf:RDF>
 </metadata>
 <defs>
  <style type="text/css">*{stroke-linejoin: round; stroke-linecap: butt}</style>
 </defs>
 <g id="figure_1">
  <g id="patch_1">
   <path d="M 0 345.6 
L 460.8 345.6 
L 460.8 0 
L 0 0 
z
" style="fill: #ffffff"/>
  </g>
  <g id="axes_1">
   <g id="patch_2">
    <path d="M 57.6 307.584 
L 414.72 307.584 
L 414.72 41.472 
L 57.6 41.472 
z
" style="fill: #ffffff"/>
   </g>
   <g id="matplotlib.axis_1">
    <g id="xtick_1">
     <g id="line2d_1">
      <defs>
       <path id="md0e7137d0b" d="M 0 0 
L 0 3.5 
" style="stroke: #000000; stroke-width: 0.8"/>
      </defs>
      <g>
       <use xlink:href="#md0e7137d0b" x="61.651317" y="307.584" style="stroke: #000000; stroke-width: 0.8"/>
      </g>
     </g>
     <g id="text_1">
      <!-- 2008 -->
      <g transform="translate(48.926317 322.182437) scale(0.1 -0.1)">
       <defs>
        <path id="DejaVuSans-32" d="M 1228 531 
L 3431 531 
L 3431 0 
L 469 0 
L 469 531 
Q 828 903 1448 1529 
Q 2069 2156 2228 2338 
Q 2531 2678 2651 2914 
Q 2772 3150 2772 3378 
Q 2772 3750 2511 3984 
Q 2250 4219 1831 4219 
Q 1534 4219 1204 4116 
Q 875 4013 500 3803 
L 500 4441 
Q 881 4594 1212 4672 
Q 1544 4750 1819 4750 
Q 2544 4750 2975 4387 
Q 3406 4025 3406 3419 
Q 3406 3131 3298 2873 
Q 3191 2616 2906 2266 
Q 2828 2175 2409 1742 
Q 1991 1309 1228 531 
z
" transform="scale(0.015625)"/>
        <path id="DejaVuSans-30" d="M 2034 4250 
Q 1547 4250 1301 3770 
Q 1056 3291 1056 2328 
Q 1056 1369 1301 889 
Q 1547 409 2034 409 
Q 2525 409 2770 889 
Q 3016 1369 3016 2328 
Q 3016 3291 2770 3770 
Q 2525 4250 2034 4250 
z
M 2034 4750 
Q 2819 4750 3233 4129 
Q 3647 3509 3647 2328 
Q 3647 1150 3233 529 
Q 2819 -91 2034 -91 
Q 1250 -91 836 529 
Q 422 1150 422 2328 
Q 422 3509 836 4129 
Q 1250 4750 2034 4750 
z
" transform="scale(0.015625)"/>
        <path id="DejaVuSans-38" d="M 2034 2216 
Q 1584 2216 1326 1975 
Q 1069 1734 1069 1313 
Q 1069 891 1326 650 
Q 1584 409 2034 409 
Q 2484 409 2743 651 
Q 3003 894 3003 1313 
Q 3003 1734 2745 1975 
Q 2488 2216 2034 2216 
z
M 1403 2484 
Q 997 2584 770 2862 
Q 544 3141 544 3541 
Q 544 4100 942 4425 
Q 1341 4750 2034 4750 
Q 2731 4750 3128 4425 
Q 3525 4100 3525 3541 
Q 3525 3141 3298 2862 
Q 3072 2584 2669 2484 
Q 3125 2378 3379 2068 
Q 3634 1759 3634 1313 
Q 3634 634 3220 271 
Q 2806 -91 2034 -91 
Q 1263 -91 848 271 
Q 434 634 434 1313 
Q 434 1759 690 2068 
Q 947 2378 1403 2484 
z
M 1172 3481 
Q 1172 3119 1398 2916 
Q 1625 2713 2034 2713 
Q 2441 2713 2670 2916 
Q 2900 3119 2900 3481 
Q 2900 3844 2670 4047 
Q 2441 4250 2034 4250 
Q 1625 4250 1398 4047 
Q 1172 3844 1172 3481 
z
" transform="scale(0.015625)"/>
       </defs>
       <use xlink:href="#DejaVuSans-32"/>
       <use xlink:href="#DejaVuSans-30" transform="translate(63.623047 0)"/>
       <use xlink:href="#DejaVuSans-30" transform="translate(127.246094 0)"/>
       <use xlink:href="#DejaVuSans-38" transform="translate(190.869141 0)"/>
      </g>
     </g>
    </g>
    <g id="xtick_2">
     <g id="line2d_2">
      <g>
       <use xlink:href="#md0e7137d0b" x="98.145623" y="307.584" style="stroke: #000000; stroke-width: 0.8"/>
      </g>
     </g>
     <g id="text_2">
      <!-- 2010 -->
      <g transform="translate(85.420623 322.182437) scale(0.1 -0.1)">
       <defs>
        <path id="DejaVuSans-31" d="M 794 531 
L 1825 531 
L 1825 4091 
L 703 3866 
L 703 4441 
L 1819 4666 
L 2450 4666 
L 2450 531 
L 3481 531 
L 3481 0 
L 794 0 
L 794 531 
z
" transform="scale(0.015625)"/>
       </defs>
       <use xlink:href="#DejaVuSans-32"/>
       <use xlink:href="#DejaVuSans-30" transform="translate(63.623047 0)"/>
       <use xlink:href="#DejaVuSans-31" transform="translate(127.246094 0)"/>
       <use xlink:href="#DejaVuSans-30" transform="translate(190.869141 0)"/>
      </g>
     </g>
    </g>
    <g id="xtick_3">
     <g id="line2d_3">
      <g>
       <use xlink:href="#md0e7137d0b" x="134.590006" y="307.584" style="stroke: #000000; stroke-width: 0.8"/>
      </g>
     </g>
     <g id="text_3">
      <!-- 2012 -->
      <g transform="translate(121.865006 322.182437) scale(0.1 -0.1)">
       <use xlink:href="#DejaVuSans-32"/>
       <use xlink:href="#DejaVuSans-30" transform="translate(63.623047 0)"/>
       <use xlink:href="#DejaVuSans-31" transform="translate(127.246094 0)"/>
       <use xlink:href="#DejaVuSans-32" transform="translate(190.869141 0)"/>
      </g>
     </g>
    </g>
    <g id="xtick_4">
     <g id="line2d_4">
      <g>
       <use xlink:href="#md0e7137d0b" x="171.084312" y="307.584" style="stroke: #000000; stroke-width: 0.8"/>
      </g>
     </g>
     <g id="text_4">
      <!-- 2014 -->
      <g transform="translate(158.359312 322.182437) scale(0.1 -0.1)">
       <defs>
        <path id="DejaVuSans-34" d="M 2419 4116 
L 825 1625 
L 2419 1625 
L 2419 4116 
z
M 2253 4666 
L 3047 4666 
L 3047 1625 
L 3713 1625 
L 3713 1100 
L 3047 1100 
L 3047 0 
L 2419 0 
L 2419 1100 
L 313 1100 
L 313 1709 
L 2253 4666 
z
" transform="scale(0.015625)"/>
       </defs>
       <use xlink:href="#DejaVuSans-32"/>
       <use xlink:href="#DejaVuSans-30" transform="translate(63.623047 0)"/>
       <use xlink:href="#DejaVuSans-31" transform="translate(127.246094 0)"/>
       <use xlink:href="#DejaVuSans-34" transform="translate(190.869141 0)"/>
      </g>
     </g>
    </g>
    <g id="xtick_5">
     <g id="line2d_5">
      <g>
       <use xlink:href="#md0e7137d0b" x="207.528694" y="307.584" style="stroke: #000000; stroke-width: 0.8"/>
      </g>
     </g>
     <g id="text_5">
      <!-- 2016 -->
      <g transform="translate(194.803694 322.182437) scale(0.1 -0.1)">
       <defs>
        <path id="DejaVuSans-36" d="M 2113 2584 
Q 1688 2584 1439 2293 
Q 1191 2003 1191 1497 
Q 1191 994 1439 701 
Q 1688 409 2113 409 
Q 2538 409 2786 701 
Q 3034 994 3034 1497 
Q 3034 2003 2786 2293 
Q 2538 2584 2113 2584 
z
M 3366 4563 
L 3366 3988 
Q 3128 4100 2886 4159 
Q 2644 4219 2406 4219 
Q 1781 4219 1451 3797 
Q 1122 3375 1075 2522 
Q 1259 2794 1537 2939 
Q 1816 3084 2150 3084 
Q 2853 3084 3261 2657 
Q 3669 2231 3669 1497 
Q 3669 778 3244 343 
Q 2819 -91 2113 -91 
Q 1303 -91 875 529 
Q 447 1150 447 2328 
Q 447 3434 972 4092 
Q 1497 4750 2381 4750 
Q 2619 4750 2861 4703 
Q 3103 4656 3366 4563 
z
" transform="scale(0.015625)"/>
       </defs>
       <use xlink:href="#DejaVuSans-32"/>
       <use xlink:href="#DejaVuSans-30" transform="translate(63.623047 0)"/>
       <use xlink:href="#DejaVuSans-31" transform="translate(127.246094 0)"/>
       <use xlink:href="#DejaVuSans-36" transform="translate(190.869141 0)"/>
      </g>
     </g>
    </g>
    <g id="xtick_6">
     <g id="line2d_6">
      <g>
       <use xlink:href="#md0e7137d0b" x="244.023" y="307.584" style="stroke: #000000; stroke-width: 0.8"/>
      </g>
     </g>
     <g id="text_6">
      <!-- 2018 -->
      <g transform="translate(231.298 322.182437) scale(0.1 -0.1)">
       <use xlink:href="#DejaVuSans-32"/>
       <use xlink:href="#DejaVuSans-30" transform="translate(63.623047 0)"/>
       <use xlink:href="#DejaVuSans-31" transform="translate(127.246094 0)"/>
       <use xlink:href="#DejaVuSans-38" transform="translate(190.869141 0)"/>
      </g>
     </g>
    </g>
    <g id="xtick_7">
     <g id="line2d_7">
      <g>
       <use xlink:href="#md0e7137d0b" x="280.467383" y="307.584" style="stroke: #000000; stroke-width: 0.8"/>
      </g>
     </g>
     <g id="text_7">
      <!-- 2020 -->
      <g transform="translate(267.742383 322.182437) scale(0.1 -0.1)">
       <use xlink:href="#DejaVuSans-32"/>
       <use xlink:href="#DejaVuSans-30" transform="translate(63.623047 0)"/>
       <use xlink:href="#DejaVuSans-32" transform="translate(127.246094 0)"/>
       <use xlink:href="#DejaVuSans-30" transform="translate(190.869141 0)"/>
      </g>
     </g>
    </g>
    <g id="xtick_8">
     <g id="line2d_8">
      <g>
       <use xlink:href="#md0e7137d0b" x="316.961689" y="307.584" style="stroke: #000000; stroke-width: 0.8"/>
      </g>
     </g>
     <g id="text_8">
      <!-- 2022 -->
      <g transform="translate(304.236689 322.182437) scale(0.1 -0.1)">
       <use xlink:href="#DejaVuSans-32"/>
       <use xlink:href="#DejaVuSans-30" transform="translate(63.623047 0)"/>
       <use xlink:href="#DejaVuSans-32" transform="translate(127.246094 0)"/>
       <use xlink:href="#DejaVuSans-32" transform="translate(190.869141 0)"/>
      </g>
     </g>
    </g>
    <g id="xtick_9">
     <g id="line2d_9">
      <g>
       <use xlink:href="#md0e7137d0b" x="353.406071" y="307.584" style="stroke: #000000; stroke-width: 0.8"/>
      </g>
     </g>
     <g id="text_9">
      <!-- 2024 -->
      <g transform="translate(340.681071 322.182437) scale(0.1 -0.1)">
       <use xlink:href="#DejaVuSans-32"/>
       <use xlink:href="#DejaVuSans-30" transform="translate(63.623047 0)"/>
       <use xlink:href="#DejaVuSans-32" transform="translate(127.246094 0)"/>
       <use xlink:href="#DejaVuSans-34" transform="translate(190.869141 0)"/>
      </g>
     </g>
    </g>
    <g id="xtick_10">
     <g id="line2d_10">
      <g>
       <use xlink:href="#md0e7137d0b" x="389.900377" y="307.584" style="stroke: #000000; stroke-width: 0.8"/>
      </g>
     </g>
     <g id="text_10">
      <!-- 2026 -->
      <g transform="translate(377.175377 322.182437) scale(0.1 -0.1)">
       <use xlink:href="#DejaVuSans-32"/>
       <use xlink:href="#DejaVuSans-30" transform="translate(63.623047 0)"/>
       <use xlink:href="#DejaVuSans-32" transform="translate(127.246094 0)"/>
       <use xlink:href="#DejaVuSans-36" transform="translate(190.869141 0)"/>
      </g>
     </g>
    </g>
    <g id="text_11">
     <!-- Updated 2026-06-30 08:39:28.476440 - Last record 2026-06-28 -->
     <g transform="translate(75.905312 335.860562) scale(0.1 -0.1)">
      <defs>
       <path id="DejaVuSans-55" d="M 556 4666 
L 1191 4666 
L 1191 1831 
Q 1191 1081 1462 751 
Q 1734 422 2344 422 
Q 2950 422 3222 751 
Q 3494 1081 3494 1831 
L 3494 4666 
L 4128 4666 
L 4128 1753 
Q 4128 841 3676 375 
Q 3225 -91 2344 -91 
Q 1459 -91 1007 375 
Q 556 841 556 1753 
L 556 4666 
z
" transform="scale(0.015625)"/>
       <path id="DejaVuSans-70" d="M 1159 525 
L 1159 -1331 
L 581 -1331 
L 581 3500 
L 1159 3500 
L 1159 2969 
Q 1341 3281 1617 3432 
Q 1894 3584 2278 3584 
Q 2916 3584 3314 3078 
Q 3713 2572 3713 1747 
Q 3713 922 3314 415 
Q 2916 -91 2278 -91 
Q 1894 -91 1617 61 
Q 1341 213 1159 525 
z
M 3116 1747 
Q 3116 2381 2855 2742 
Q 2594 3103 2138 3103 
Q 1681 3103 1420 2742 
Q 1159 2381 1159 1747 
Q 1159 1113 1420 752 
Q 1681 391 2138 391 
Q 2594 391 2855 752 
Q 3116 1113 3116 1747 
z
" transform="scale(0.015625)"/>
       <path id="DejaVuSans-64" d="M 2906 2969 
L 2906 4863 
L 3481 4863 
L 3481 0 
L 2906 0 
L 2906 525 
Q 2725 213 2448 61 
Q 2172 -91 1784 -91 
Q 1150 -91 751 415 
Q 353 922 353 1747 
Q 353 2572 751 3078 
Q 1150 3584 1784 3584 
Q 2172 3584 2448 3432 
Q 2725 3281 2906 2969 
z
M 947 1747 
Q 947 1113 1208 752 
Q 1469 391 1925 391 
Q 2381 391 2643 752 
Q 2906 1113 2906 1747 
Q 2906 2381 2643 2742 
Q 2381 3103 1925 3103 
Q 1469 3103 1208 2742 
Q 947 2381 947 1747 
z
" transform="scale(0.015625)"/>
       <path id="DejaVuSans-61" d="M 2194 1759 
Q 1497 1759 1228 1600 
Q 959 1441 959 1056 
Q 959 750 1161 570 
Q 1363 391 1709 391 
Q 2188 391 2477 730 
Q 2766 1069 2766 1631 
L 2766 1759 
L 2194 1759 
z
M 3341 1997 
L 3341 0 
L 2766 0 
L 2766 531 
Q 2569 213 2275 61 
Q 1981 -91 1556 -91 
Q 1019 -91 701 211 
Q 384 513 384 1019 
Q 384 1609 779 1909 
Q 1175 2209 1959 2209 
L 2766 2209 
L 2766 2266 
Q 2766 2663 2505 2880 
Q 2244 3097 1772 3097 
Q 1472 3097 1187 3025 
Q 903 2953 641 2809 
L 641 3341 
Q 956 3463 1253 3523 
Q 1550 3584 1831 3584 
Q 2591 3584 2966 3190 
Q 3341 2797 3341 1997 
z
" transform="scale(0.015625)"/>
       <path id="DejaVuSans-74" d="M 1172 4494 
L 1172 3500 
L 2356 3500 
L 2356 3053 
L 1172 3053 
L 1172 1153 
Q 1172 725 1289 603 
Q 1406 481 1766 481 
L 2356 481 
L 2356 0 
L 1766 0 
Q 1100 0 847 248 
Q 594 497 594 1153 
L 594 3053 
L 172 3053 
L 172 3500 
L 594 3500 
L 594 4494 
L 1172 4494 
z
" transform="scale(0.015625)"/>
       <path id="DejaVuSans-65" d="M 3597 1894 
L 3597 1613 
L 953 1613 
Q 991 1019 1311 708 
Q 1631 397 2203 397 
Q 2534 397 2845 478 
Q 3156 559 3463 722 
L 3463 178 
Q 3153 47 2828 -22 
Q 2503 -91 2169 -91 
Q 1331 -91 842 396 
Q 353 884 353 1716 
Q 353 2575 817 3079 
Q 1281 3584 2069 3584 
Q 2775 3584 3186 3129 
Q 3597 2675 3597 1894 
z
M 3022 2063 
Q 3016 2534 2758 2815 
Q 2500 3097 2075 3097 
Q 1594 3097 1305 2825 
Q 1016 2553 972 2059 
L 3022 2063 
z
" transform="scale(0.015625)"/>
       <path id="DejaVuSans-20" transform="scale(0.015625)"/>
       <path id="DejaVuSans-2d" d="M 313 2009 
L 1997 2009 
L 1997 1497 
L 313 1497 
L 313 2009 
z
" transform="scale(0.015625)"/>
       <path id="DejaVuSans-33" d="M 2597 2516 
Q 3050 2419 3304 2112 
Q 3559 1806 3559 1356 
Q 3559 666 3084 287 
Q 2609 -91 1734 -91 
Q 1441 -91 1130 -33 
Q 819 25 488 141 
L 488 750 
Q 750 597 1062 519 
Q 1375 441 1716 441 
Q 2309 441 2620 675 
Q 2931 909 2931 1356 
Q 2931 1769 2642 2001 
Q 2353 2234 1838 2234 
L 1294 2234 
L 1294 2753 
L 1863 2753 
Q 2328 2753 2575 2939 
Q 2822 3125 2822 3475 
Q 2822 3834 2567 4026 
Q 2313 4219 1838 4219 
Q 1578 4219 1281 4162 
Q 984 4106 628 3988 
L 628 4550 
Q 988 4650 1302 4700 
Q 1616 4750 1894 4750 
Q 2613 4750 3031 4423 
Q 3450 4097 3450 3541 
Q 3450 3153 3228 2886 
Q 3006 2619 2597 2516 
z
" transform="scale(0.015625)"/>
       <path id="DejaVuSans-3a" d="M 750 794 
L 1409 794 
L 1409 0 
L 750 0 
L 750 794 
z
M 750 3309 
L 1409 3309 
L 1409 2516 
L 750 2516 
L 750 3309 
z
" transform="scale(0.015625)"/>
       <path id="DejaVuSans-39" d="M 703 97 
L 703 672 
Q 941 559 1184 500 
Q 1428 441 1663 441 
Q 2288 441 2617 861 
Q 2947 1281 2994 2138 
Q 2813 1869 2534 1725 
Q 2256 1581 1919 1581 
Q 1219 1581 811 2004 
Q 403 2428 403 3163 
Q 403 3881 828 4315 
Q 1253 4750 1959 4750 
Q 2769 4750 3195 4129 
Q 3622 3509 3622 2328 
Q 3622 1225 3098 567 
Q 2575 -91 1691 -91 
Q 1453 -91 1209 -44 
Q 966 3 703 97 
z
M 1959 2075 
Q 2384 2075 2632 2365 
Q 2881 2656 2881 3163 
Q 2881 3666 2632 3958 
Q 2384 4250 1959 4250 
Q 1534 4250 1286 3958 
Q 1038 3666 1038 3163 
Q 1038 2656 1286 2365 
Q 1534 2075 1959 2075 
z
" transform="scale(0.015625)"/>
       <path id="DejaVuSans-2e" d="M 684 794 
L 1344 794 
L 1344 0 
L 684 0 
L 684 794 
z
" transform="scale(0.015625)"/>
       <path id="DejaVuSans-37" d="M 525 4666 
L 3525 4666 
L 3525 4397 
L 1831 0 
L 1172 0 
L 2766 4134 
L 525 4134 
L 525 4666 
z
" transform="scale(0.015625)"/>
       <path id="DejaVuSans-4c" d="M 628 4666 
L 1259 4666 
L 1259 531 
L 3531 531 
L 3531 0 
L 628 0 
L 628 4666 
z
" transform="scale(0.015625)"/>
       <path id="DejaVuSans-73" d="M 2834 3397 
L 2834 2853 
Q 2591 2978 2328 3040 
Q 2066 3103 1784 3103 
Q 1356 3103 1142 2972 
Q 928 2841 928 2578 
Q 928 2378 1081 2264 
Q 1234 2150 1697 2047 
L 1894 2003 
Q 2506 1872 2764 1633 
Q 3022 1394 3022 966 
Q 3022 478 2636 193 
Q 2250 -91 1575 -91 
Q 1294 -91 989 -36 
Q 684 19 347 128 
L 347 722 
Q 666 556 975 473 
Q 1284 391 1588 391 
Q 1994 391 2212 530 
Q 2431 669 2431 922 
Q 2431 1156 2273 1281 
Q 2116 1406 1581 1522 
L 1381 1569 
Q 847 1681 609 1914 
Q 372 2147 372 2553 
Q 372 3047 722 3315 
Q 1072 3584 1716 3584 
Q 2034 3584 2315 3537 
Q 2597 3491 2834 3397 
z
" transform="scale(0.015625)"/>
       <path id="DejaVuSans-72" d="M 2631 2963 
Q 2534 3019 2420 3045 
Q 2306 3072 2169 3072 
Q 1681 3072 1420 2755 
Q 1159 2438 1159 1844 
L 1159 0 
L 581 0 
L 581 3500 
L 1159 3500 
L 1159 2956 
Q 1341 3275 1631 3429 
Q 1922 3584 2338 3584 
Q 2397 3584 2469 3576 
Q 2541 3569 2628 3553 
L 2631 2963 
z
" transform="scale(0.015625)"/>
       <path id="DejaVuSans-63" d="M 3122 3366 
L 3122 2828 
Q 2878 2963 2633 3030 
Q 2388 3097 2138 3097 
Q 1578 3097 1268 2742 
Q 959 2388 959 1747 
Q 959 1106 1268 751 
Q 1578 397 2138 397 
Q 2388 397 2633 464 
Q 2878 531 3122 666 
L 3122 134 
Q 2881 22 2623 -34 
Q 2366 -91 2075 -91 
Q 1284 -91 818 406 
Q 353 903 353 1747 
Q 353 2603 823 3093 
Q 1294 3584 2113 3584 
Q 2378 3584 2631 3529 
Q 2884 3475 3122 3366 
z
" transform="scale(0.015625)"/>
       <path id="DejaVuSans-6f" d="M 1959 3097 
Q 1497 3097 1228 2736 
Q 959 2375 959 1747 
Q 959 1119 1226 758 
Q 1494 397 1959 397 
Q 2419 397 2687 759 
Q 2956 1122 2956 1747 
Q 2956 2369 2687 2733 
Q 2419 3097 1959 3097 
z
M 1959 3584 
Q 2709 3584 3137 3096 
Q 3566 2609 3566 1747 
Q 3566 888 3137 398 
Q 2709 -91 1959 -91 
Q 1206 -91 779 398 
Q 353 888 353 1747 
Q 353 2609 779 3096 
Q 1206 3584 1959 3584 
z
" transform="scale(0.015625)"/>
      </defs>
      <use xlink:href="#DejaVuSans-55"/>
      <use xlink:href="#DejaVuSans-70" transform="translate(73.193359 0)"/>
      <use xlink:href="#DejaVuSans-64" transform="translate(136.669922 0)"/>
      <use xlink:href="#DejaVuSans-61" transform="translate(200.146484 0)"/>
      <use xlink:href="#DejaVuSans-74" transform="translate(261.425781 0)"/>
      <use xlink:href="#DejaVuSans-65" transform="translate(300.634766 0)"/>
      <use xlink:href="#DejaVuSans-64" transform="translate(362.158203 0)"/>
      <use xlink:href="#DejaVuSans-20" transform="translate(425.634766 0)"/>
      <use xlink:href="#DejaVuSans-32" transform="translate(457.421875 0)"/>
      <use xlink:href="#DejaVuSans-30" transform="translate(521.044922 0)"/>
      <use xlink:href="#DejaVuSans-32" transform="translate(584.667969 0)"/>
      <use xlink:href="#DejaVuSans-36" transform="translate(648.291016 0)"/>
      <use xlink:href="#DejaVuSans-2d" transform="translate(711.914062 0)"/>
      <use xlink:href="#DejaVuSans-30" transform="translate(747.998047 0)"/>
      <use xlink:href="#DejaVuSans-36" transform="translate(811.621094 0)"/>
      <use xlink:href="#DejaVuSans-2d" transform="translate(875.244141 0)"/>
      <use xlink:href="#DejaVuSans-33" transform="translate(911.328125 0)"/>
      <use xlink:href="#DejaVuSans-30" transform="translate(974.951172 0)"/>
      <use xlink:href="#DejaVuSans-20" transform="translate(1038.574219 0)"/>
      <use xlink:href="#DejaVuSans-30" transform="translate(1070.361328 0)"/>
      <use xlink:href="#DejaVuSans-38" transform="translate(1133.984375 0)"/>
      <use xlink:href="#DejaVuSans-3a" transform="translate(1197.607422 0)"/>
      <use xlink:href="#DejaVuSans-33" transform="translate(1231.298828 0)"/>
      <use xlink:href="#DejaVuSans-39" transform="translate(1294.921875 0)"/>
      <use xlink:href="#DejaVuSans-3a" transform="translate(1358.544922 0)"/>
      <use xlink:href="#DejaVuSans-32" transform="translate(1392.236328 0)"/>
      <use xlink:href="#DejaVuSans-38" transform="translate(1455.859375 0)"/>
      <use xlink:href="#DejaVuSans-2e" transform="translate(1519.482422 0)"/>
      <use xlink:href="#DejaVuSans-34" transform="translate(1551.269531 0)"/>
      <use xlink:href="#DejaVuSans-37" transform="translate(1614.892578 0)"/>
      <use xlink:href="#DejaVuSans-36" transform="translate(1678.515625 0)"/>
      <use xlink:href="#DejaVuSans-34" transform="translate(1742.138672 0)"/>
      <use xlink:href="#DejaVuSans-34" transform="translate(1805.761719 0)"/>
      <use xlink:href="#DejaVuSans-30" transform="translate(1869.384766 0)"/>
      <use xlink:href="#DejaVuSans-20" transform="translate(1933.007812 0)"/>
      <use xlink:href="#DejaVuSans-2d" transform="translate(1964.794922 0)"/>
      <use xlink:href="#DejaVuSans-20" transform="translate(2000.878906 0)"/>
      <use xlink:href="#DejaVuSans-4c" transform="translate(2032.666016 0)"/>
      <use xlink:href="#DejaVuSans-61" transform="translate(2088.378906 0)"/>
      <use xlink:href="#DejaVuSans-73" transform="translate(2149.658203 0)"/>
      <use xlink:href="#DejaVuSans-74" transform="translate(2201.757812 0)"/>
      <use xlink:href="#DejaVuSans-20" transform="translate(2240.966797 0)"/>
      <use xlink:href="#DejaVuSans-72" transform="translate(2272.753906 0)"/>
      <use xlink:href="#DejaVuSans-65" transform="translate(2311.617188 0)"/>
      <use xlink:href="#DejaVuSans-63" transform="translate(2373.140625 0)"/>
      <use xlink:href="#DejaVuSans-6f" transform="translate(2428.121094 0)"/>
      <use xlink:href="#DejaVuSans-72" transform="translate(2489.302734 0)"/>
      <use xlink:href="#DejaVuSans-64" transform="translate(2528.666016 0)"/>
      <use xlink:href="#DejaVuSans-20" transform="translate(2592.142578 0)"/>
      <use xlink:href="#DejaVuSans-32" transform="translate(2623.929688 0)"/>
      <use xlink:href="#DejaVuSans-30" transform="translate(2687.552734 0)"/>
      <use xlink:href="#DejaVuSans-32" transform="translate(2751.175781 0)"/>
      <use xlink:href="#DejaVuSans-36" transform="translate(2814.798828 0)"/>
      <use xlink:href="#DejaVuSans-2d" transform="translate(2878.421875 0)"/>
      <use xlink:href="#DejaVuSans-30" transform="translate(2914.505859 0)"/>
      <use xlink:href="#DejaVuSans-36" transform="translate(2978.128906 0)"/>
      <use xlink:href="#DejaVuSans-2d" transform="translate(3041.751953 0)"/>
      <use xlink:href="#DejaVuSans-32" transform="translate(3077.835938 0)"/>
      <use xlink:href="#DejaVuSans-38" transform="translate(3141.458984 0)"/>
     </g>
    </g>
   </g>
   <g id="matplotlib.axis_2">
    <g id="ytick_1">
     <g id="line2d_11">
      <defs>
       <path id="m63fc018184" d="M 0 0 
L -3.5 0 
" style="stroke: #000000; stroke-width: 0.8"/>
      </defs>
      <g>
       <use xlink:href="#m63fc018184" x="57.6" y="295.488" style="stroke: #000000; stroke-width: 0.8"/>
      </g>
     </g>
     <g id="text_12">
      <!-- 0 -->
      <g transform="translate(44.2375 299.287219) scale(0.1 -0.1)">
       <use xlink:href="#DejaVuSans-30"/>
      </g>
     </g>
    </g>
    <g id="ytick_2">
     <g id="line2d_12">
      <g>
       <use xlink:href="#m63fc018184" x="57.6" y="247.488225" style="stroke: #000000; stroke-width: 0.8"/>
      </g>
     </g>
     <g id="text_13">
      <!-- 10 -->
      <g transform="translate(37.875 251.287444) scale(0.1 -0.1)">
       <use xlink:href="#DejaVuSans-31"/>
       <use xlink:href="#DejaVuSans-30" transform="translate(63.623047 0)"/>
      </g>
     </g>
    </g>
    <g id="ytick_3">
     <g id="line2d_13">
      <g>
       <use xlink:href="#m63fc018184" x="57.6" y="199.48845" style="stroke: #000000; stroke-width: 0.8"/>
      </g>
     </g>
     <g id="text_14">
      <!-- 20 -->
      <g transform="translate(37.875 203.287668) scale(0.1 -0.1)">
       <use xlink:href="#DejaVuSans-32"/>
       <use xlink:href="#DejaVuSans-30" transform="translate(63.623047 0)"/>
      </g>
     </g>
    </g>
    <g id="ytick_4">
     <g id="line2d_14">
      <g>
       <use xlink:href="#m63fc018184" x="57.6" y="151.488674" style="stroke: #000000; stroke-width: 0.8"/>
      </g>
     </g>
     <g id="text_15">
      <!-- 30 -->
      <g transform="translate(37.875 155.287893) scale(0.1 -0.1)">
       <use xlink:href="#DejaVuSans-33"/>
       <use xlink:href="#DejaVuSans-30" transform="translate(63.623047 0)"/>
      </g>
     </g>
    </g>
    <g id="ytick_5">
     <g id="line2d_15">
      <g>
       <use xlink:href="#m63fc018184" x="57.6" y="103.488899" style="stroke: #000000; stroke-width: 0.8"/>
      </g>
     </g>
     <g id="text_16">
      <!-- 40 -->
      <g transform="translate(37.875 107.288118) scale(0.1 -0.1)">
       <use xlink:href="#DejaVuSans-34"/>
       <use xlink:href="#DejaVuSans-30" transform="translate(63.623047 0)"/>
      </g>
     </g>
    </g>
    <g id="ytick_6">
     <g id="line2d_16">
      <g>
       <use xlink:href="#m63fc018184" x="57.6" y="55.489124" style="stroke: #000000; stroke-width: 0.8"/>
      </g>
     </g>
     <g id="text_17">
      <!-- 50 -->
      <g transform="translate(37.875 59.288343) scale(0.1 -0.1)">
       <defs>
        <path id="DejaVuSans-35" d="M 691 4666 
L 3169 4666 
L 3169 4134 
L 1269 4134 
L 1269 2991 
Q 1406 3038 1543 3061 
Q 1681 3084 1819 3084 
Q 2600 3084 3056 2656 
Q 3513 2228 3513 1497 
Q 3513 744 3044 326 
Q 2575 -91 1722 -91 
Q 1428 -91 1123 -41 
Q 819 9 494 109 
L 494 744 
Q 775 591 1075 516 
Q 1375 441 1709 441 
Q 2250 441 2565 725 
Q 2881 1009 2881 1497 
Q 2881 1984 2565 2268 
Q 2250 2553 1709 2553 
Q 1456 2553 1204 2497 
Q 953 2441 691 2322 
L 691 4666 
z
" transform="scale(0.015625)"/>
       </defs>
       <use xlink:href="#DejaVuSans-35"/>
       <use xlink:href="#DejaVuSans-30" transform="translate(63.623047 0)"/>
      </g>
     </g>
    </g>
    <g id="text_18">
     <!-- IPv6 as % of total Google traffic -->
     <g transform="translate(31.795312 253.735813) rotate(-90) scale(0.1 -0.1)">
      <defs>
       <path id="DejaVuSans-49" d="M 628 4666 
L 1259 4666 
L 1259 0 
L 628 0 
L 628 4666 
z
" transform="scale(0.015625)"/>
       <path id="DejaVuSans-50" d="M 1259 4147 
L 1259 2394 
L 2053 2394 
Q 2494 2394 2734 2622 
Q 2975 2850 2975 3272 
Q 2975 3691 2734 3919 
Q 2494 4147 2053 4147 
L 1259 4147 
z
M 628 4666 
L 2053 4666 
Q 2838 4666 3239 4311 
Q 3641 3956 3641 3272 
Q 3641 2581 3239 2228 
Q 2838 1875 2053 1875 
L 1259 1875 
L 1259 0 
L 628 0 
L 628 4666 
z
" transform="scale(0.015625)"/>
       <path id="DejaVuSans-76" d="M 191 3500 
L 800 3500 
L 1894 563 
L 2988 3500 
L 3597 3500 
L 2284 0 
L 1503 0 
L 191 3500 
z
" transform="scale(0.015625)"/>
       <path id="DejaVuSans-25" d="M 4653 2053 
Q 4381 2053 4226 1822 
Q 4072 1591 4072 1178 
Q 4072 772 4226 539 
Q 4381 306 4653 306 
Q 4919 306 5073 539 
Q 5228 772 5228 1178 
Q 5228 1588 5073 1820 
Q 4919 2053 4653 2053 
z
M 4653 2450 
Q 5147 2450 5437 2106 
Q 5728 1763 5728 1178 
Q 5728 594 5436 251 
Q 5144 -91 4653 -91 
Q 4153 -91 3862 251 
Q 3572 594 3572 1178 
Q 3572 1766 3864 2108 
Q 4156 2450 4653 2450 
z
M 1428 4353 
Q 1159 4353 1004 4120 
Q 850 3888 850 3481 
Q 850 3069 1003 2837 
Q 1156 2606 1428 2606 
Q 1700 2606 1854 2837 
Q 2009 3069 2009 3481 
Q 2009 3884 1853 4118 
Q 1697 4353 1428 4353 
z
M 4250 4750 
L 4750 4750 
L 1831 -91 
L 1331 -91 
L 4250 4750 
z
M 1428 4750 
Q 1922 4750 2215 4408 
Q 2509 4066 2509 3481 
Q 2509 2891 2217 2550 
Q 1925 2209 1428 2209 
Q 931 2209 642 2551 
Q 353 2894 353 3481 
Q 353 4063 643 4406 
Q 934 4750 1428 4750 
z
" transform="scale(0.015625)"/>
       <path id="DejaVuSans-66" d="M 2375 4863 
L 2375 4384 
L 1825 4384 
Q 1516 4384 1395 4259 
Q 1275 4134 1275 3809 
L 1275 3500 
L 2222 3500 
L 2222 3053 
L 1275 3053 
L 1275 0 
L 697 0 
L 697 3053 
L 147 3053 
L 147 3500 
L 697 3500 
L 697 3744 
Q 697 4328 969 4595 
Q 1241 4863 1831 4863 
L 2375 4863 
z
" transform="scale(0.015625)"/>
       <path id="DejaVuSans-6c" d="M 603 4863 
L 1178 4863 
L 1178 0 
L 603 0 
L 603 4863 
z
" transform="scale(0.015625)"/>
       <path id="DejaVuSans-47" d="M 3809 666 
L 3809 1919 
L 2778 1919 
L 2778 2438 
L 4434 2438 
L 4434 434 
Q 4069 175 3628 42 
Q 3188 -91 2688 -91 
Q 1594 -91 976 548 
Q 359 1188 359 2328 
Q 359 3472 976 4111 
Q 1594 4750 2688 4750 
Q 3144 4750 3555 4637 
Q 3966 4525 4313 4306 
L 4313 3634 
Q 3963 3931 3569 4081 
Q 3175 4231 2741 4231 
Q 1884 4231 1454 3753 
Q 1025 3275 1025 2328 
Q 1025 1384 1454 906 
Q 1884 428 2741 428 
Q 3075 428 3337 486 
Q 3600 544 3809 666 
z
" transform="scale(0.015625)"/>
       <path id="DejaVuSans-67" d="M 2906 1791 
Q 2906 2416 2648 2759 
Q 2391 3103 1925 3103 
Q 1463 3103 1205 2759 
Q 947 2416 947 1791 
Q 947 1169 1205 825 
Q 1463 481 1925 481 
Q 2391 481 2648 825 
Q 2906 1169 2906 1791 
z
M 3481 434 
Q 3481 -459 3084 -895 
Q 2688 -1331 1869 -1331 
Q 1566 -1331 1297 -1286 
Q 1028 -1241 775 -1147 
L 775 -588 
Q 1028 -725 1275 -790 
Q 1522 -856 1778 -856 
Q 2344 -856 2625 -561 
Q 2906 -266 2906 331 
L 2906 616 
Q 2728 306 2450 153 
Q 2172 0 1784 0 
Q 1141 0 747 490 
Q 353 981 353 1791 
Q 353 2603 747 3093 
Q 1141 3584 1784 3584 
Q 2172 3584 2450 3431 
Q 2728 3278 2906 2969 
L 2906 3500 
L 3481 3500 
L 3481 434 
z
" transform="scale(0.015625)"/>
       <path id="DejaVuSans-69" d="M 603 3500 
L 1178 3500 
L 1178 0 
L 603 0 
L 603 3500 
z
M 603 4863 
L 1178 4863 
L 1178 4134 
L 603 4134 
L 603 4863 
z
" transform="scale(0.015625)"/>
      </defs>
      <use xlink:href="#DejaVuSans-49"/>
      <use xlink:href="#DejaVuSans-50" transform="translate(29.492188 0)"/>
      <use xlink:href="#DejaVuSans-76" transform="translate(89.794922 0)"/>
      <use xlink:href="#DejaVuSans-36" transform="translate(148.974609 0)"/>
      <use xlink:href="#DejaVuSans-20" transform="translate(212.597656 0)"/>
      <use xlink:href="#DejaVuSans-61" transform="translate(244.384766 0)"/>
      <use xlink:href="#DejaVuSans-73" transform="translate(305.664062 0)"/>
      <use xlink:href="#DejaVuSans-20" transform="translate(357.763672 0)"/>
      <use xlink:href="#DejaVuSans-25" transform="translate(389.550781 0)"/>
      <use xlink:href="#DejaVuSans-20" transform="translate(484.570312 0)"/>
      <use xlink:href="#DejaVuSans-6f" transform="translate(516.357422 0)"/>
      <use xlink:href="#DejaVuSans-66" transform="translate(577.539062 0)"/>
      <use xlink:href="#DejaVuSans-20" transform="translate(612.744141 0)"/>
      <use xlink:href="#DejaVuSans-74" transform="translate(644.53125 0)"/>
      <use xlink:href="#DejaVuSans-6f" transform="translate(683.740234 0)"/>
      <use xlink:href="#DejaVuSans-74" transform="translate(744.921875 0)"/>
      <use xlink:href="#DejaVuSans-61" transform="translate(784.130859 0)"/>
      <use xlink:href="#DejaVuSans-6c" transform="translate(845.410156 0)"/>
      <use xlink:href="#DejaVuSans-20" transform="translate(873.193359 0)"/>
      <use xlink:href="#DejaVuSans-47" transform="translate(904.980469 0)"/>
      <use xlink:href="#DejaVuSans-6f" transform="translate(982.470703 0)"/>
      <use xlink:href="#DejaVuSans-6f" transform="translate(1043.652344 0)"/>
      <use xlink:href="#DejaVuSans-67" transform="translate(1104.833984 0)"/>
      <use xlink:href="#DejaVuSans-6c" transform="translate(1168.310547 0)"/>
      <use xlink:href="#DejaVuSans-65" transform="translate(1196.09375 0)"/>
      <use xlink:href="#DejaVuSans-20" transform="translate(1257.617188 0)"/>
      <use xlink:href="#DejaVuSans-74" transform="translate(1289.404297 0)"/>
      <use xlink:href="#DejaVuSans-72" transform="translate(1328.613281 0)"/>
      <use xlink:href="#DejaVuSans-61" transform="translate(1369.726562 0)"/>
      <use xlink:href="#DejaVuSans-66" transform="translate(1431.005859 0)"/>
      <use xlink:href="#DejaVuSans-66" transform="translate(1466.210938 0)"/>
      <use xlink:href="#DejaVuSans-69" transform="translate(1501.416016 0)"/>
      <use xlink:href="#DejaVuSans-63" transform="translate(1529.199219 0)"/>
     </g>
    </g>
   </g>
   <g id="line2d_17">
    <path d="M 73.832727 294.613478 
L 75.230594 294.465259 
L 75.580061 294.606398 
L 77.327394 294.579873 
L 78.375794 294.477125 
L 78.725261 294.363356 
L 79.773661 294.382229 
L 82.918861 294.314113 
L 83.967261 294.339058 
L 85.365128 294.271292 
L 88.160861 294.330049 
L 88.859795 294.404271 
L 91.306061 294.355882 
L 92.703928 294.269727 
L 93.402861 294.277594 
L 93.752328 294.043912 
L 95.849128 293.963753 
L 96.897528 293.967108 
L 97.945928 294.052452 
L 98.994328 294.009948 
L 100.042728 294.052701 
L 101.790062 294.023296 
L 102.838462 294.193532 
L 103.886862 294.146483 
L 104.585795 294.221963 
L 105.284728 294.29413 
L 105.634195 294.222136 
L 107.730995 294.418834 
L 109.478329 294.340954 
L 110.526729 294.16888 
L 111.575129 294.152536 
L 112.623529 294.113661 
L 115.419262 294.219313 
L 116.118196 294.283638 
L 116.817129 294.287996 
L 119.612862 294.134762 
L 119.962329 294.139888 
L 120.311796 294.030736 
L 121.010729 294.122037 
L 121.709662 293.952569 
L 122.059129 293.994698 
L 122.408596 293.890659 
L 122.758062 293.93621 
L 123.456996 293.8394 
L 124.505396 293.825619 
L 124.854863 293.945066 
L 126.252729 293.972047 
L 126.951663 293.984873 
L 127.301129 293.950951 
L 128.000063 293.748147 
L 128.349529 293.635189 
L 131.145263 293.703143 
L 131.494729 293.570006 
L 132.193663 293.566939 
L 133.59153 293.400701 
L 133.940996 293.466096 
L 136.73673 293.044139 
L 137.086196 293.140249 
L 139.182996 292.68057 
L 139.88193 292.695608 
L 140.93033 292.384575 
L 142.677663 291.952927 
L 143.726063 291.841961 
L 144.07553 291.932604 
L 145.822863 291.591671 
L 146.871263 291.254809 
L 147.22073 291.305775 
L 147.570197 291.003367 
L 148.26913 290.822379 
L 148.618597 290.869404 
L 149.31753 290.6816 
L 149.666997 290.823444 
L 150.36593 290.652133 
L 150.715397 290.609639 
L 151.41433 290.297348 
L 152.113264 290.241524 
L 152.46273 290.272474 
L 152.812197 290.182978 
L 153.161664 290.226538 
L 153.860597 290.038509 
L 154.908997 289.899962 
L 155.258464 289.718816 
L 156.306864 289.616072 
L 157.355264 289.117806 
L 157.70473 289.133319 
L 159.102597 288.707485 
L 159.452064 288.422107 
L 160.849931 288.085235 
L 161.548864 287.775113 
L 161.898331 287.851797 
L 162.247797 287.638338 
L 162.597264 287.600821 
L 164.344597 286.597986 
L 165.392997 286.065452 
L 166.091931 285.32747 
L 166.790864 284.436493 
L 167.140331 284.646977 
L 167.489797 284.68339 
L 168.538197 283.427917 
L 168.887664 283.277376 
L 169.237131 282.642785 
L 170.285531 282.264993 
L 170.634998 282.022436 
L 170.984464 282.066456 
L 172.032864 281.373479 
L 172.382331 281.226292 
L 172.731798 280.954095 
L 173.430731 280.889598 
L 173.780198 280.272974 
L 174.129664 280.264847 
L 174.479131 279.586913 
L 174.828598 279.235814 
L 175.527531 279.336584 
L 176.925398 278.248857 
L 177.274864 277.846494 
L 177.624331 278.093184 
L 179.022198 277.303736 
L 179.371665 277.011835 
L 179.721131 275.812307 
L 180.070598 276.039849 
L 180.769531 275.225312 
L 181.118998 275.19034 
L 181.468465 275.542471 
L 182.516865 274.74123 
L 182.866331 274.197661 
L 183.565265 274.23957 
L 183.914731 273.651414 
L 184.264198 273.610931 
L 184.613665 270.495011 
L 184.963131 272.545125 
L 185.312598 273.766412 
L 185.662065 273.172976 
L 186.011531 272.841351 
L 186.360998 272.787908 
L 186.710465 272.007417 
L 187.059932 271.762858 
L 188.108332 270.068826 
L 188.457798 268.962724 
L 189.506198 266.908358 
L 189.855665 267.812136 
L 190.205132 267.673825 
L 190.554598 267.698847 
L 190.904065 267.844848 
L 191.253532 268.117467 
L 191.602998 268.013457 
L 191.952465 266.0203 
L 192.301932 266.315114 
L 193.350332 265.26485 
L 193.699798 265.123491 
L 194.398732 265.185641 
L 194.748198 263.678986 
L 195.097665 263.624112 
L 195.796598 262.435096 
L 196.146065 262.840478 
L 196.495532 260.984658 
L 196.844999 261.423308 
L 197.194465 260.170519 
L 197.543932 259.570618 
L 197.893399 258.669844 
L 198.242865 259.295377 
L 198.592332 258.347819 
L 198.941799 256.771439 
L 199.291265 257.565787 
L 199.640732 257.792236 
L 199.990199 257.302916 
L 200.339665 255.861531 
L 200.689132 256.261921 
L 201.038599 254.989322 
L 201.388065 255.282476 
L 202.436465 252.696599 
L 203.484865 252.423614 
L 203.834332 251.419632 
L 204.183799 251.541806 
L 204.533265 251.16518 
L 204.882732 250.170121 
L 205.232199 249.91757 
L 205.931132 248.042219 
L 206.280599 247.907796 
L 206.630066 248.095537 
L 206.979532 247.610216 
L 207.328999 245.54277 
L 208.027932 246.755465 
L 208.377399 246.522512 
L 209.076332 246.452706 
L 209.425799 246.49378 
L 210.124732 246.244335 
L 210.474199 245.081118 
L 210.823666 245.026052 
L 211.173132 243.994456 
L 211.522599 243.991556 
L 211.872066 243.834847 
L 212.920466 240.884392 
L 213.269932 239.146608 
L 213.619399 240.33334 
L 213.968866 239.835933 
L 214.318333 238.807801 
L 214.667799 239.036655 
L 215.017266 236.841615 
L 215.366733 237.163656 
L 215.716199 236.894506 
L 216.065666 235.362886 
L 216.415133 235.34839 
L 216.764599 234.206735 
L 217.114066 234.481625 
L 217.463533 233.578634 
L 217.812999 233.098939 
L 218.162466 233.353784 
L 218.511933 232.735475 
L 218.861399 231.770876 
L 219.210866 232.079231 
L 219.560333 231.62175 
L 219.909799 230.103772 
L 220.259266 229.468975 
L 220.608733 229.528355 
L 220.958199 227.753223 
L 221.307666 228.068898 
L 222.006599 225.954628 
L 222.356066 223.844846 
L 222.705533 224.053371 
L 223.404466 222.867028 
L 223.753933 221.537761 
L 224.1034 221.715465 
L 224.452866 221.158385 
L 224.802333 219.056609 
L 225.1518 218.319193 
L 225.501266 214.834544 
L 225.850733 217.100138 
L 226.2002 216.689375 
L 226.549666 217.229675 
L 226.899133 216.595209 
L 227.598066 217.625635 
L 227.947533 217.420215 
L 228.297 216.516951 
L 228.646466 216.788601 
L 229.3454 215.638175 
L 229.694866 214.684919 
L 230.044333 214.533744 
L 230.3938 213.889356 
L 230.743266 211.572143 
L 231.092733 212.299278 
L 231.4422 209.191906 
L 231.791667 209.432443 
L 232.141133 207.743393 
L 232.4906 206.702321 
L 233.539 204.787586 
L 233.888467 203.220619 
L 234.237933 200.637132 
L 234.5874 201.289521 
L 235.985267 198.34712 
L 236.334733 197.863211 
L 236.6842 197.881527 
L 237.033667 198.148133 
L 237.383133 197.232657 
L 237.7326 195.949613 
L 238.082067 197.099045 
L 238.431533 197.12123 
L 238.781 198.145243 
L 239.130467 197.024583 
L 239.479933 195.282253 
L 239.8294 195.50551 
L 240.178867 194.753315 
L 241.9262 192.678438 
L 242.275667 192.583259 
L 242.625134 205.323518 
L 242.9746 190.965878 
L 243.324067 190.27675 
L 243.673534 186.795077 
L 244.023 190.025255 
L 244.721934 189.553264 
L 245.0714 189.550979 
L 245.420867 189.118708 
L 245.770334 188.90568 
L 246.1198 190.089081 
L 246.469267 190.839312 
L 246.818734 190.656932 
L 247.1682 189.640532 
L 247.517667 189.713516 
L 248.566067 188.858837 
L 248.915534 186.57544 
L 249.265 187.476703 
L 249.614467 185.058397 
L 249.963934 186.078104 
L 250.313401 184.048261 
L 250.662867 182.780841 
L 251.012334 183.528145 
L 251.361801 181.97386 
L 251.711267 180.941836 
L 252.060734 180.72239 
L 252.410201 181.566106 
L 252.759667 182.011165 
L 253.808067 179.731756 
L 254.157534 180.255957 
L 254.507001 181.011392 
L 254.856467 181.157878 
L 255.205934 179.429036 
L 255.555401 178.78509 
L 255.904867 177.53184 
L 256.603801 177.047542 
L 256.953267 177.178692 
L 257.302734 177.01338 
L 258.001667 175.29184 
L 258.351134 176.296216 
L 258.700601 173.11457 
L 259.050068 173.196405 
L 259.399534 172.808422 
L 259.749001 170.487897 
L 260.098468 169.791641 
L 260.447934 169.373151 
L 260.797401 169.376199 
L 261.146868 168.118139 
L 261.496334 168.032378 
L 262.195268 166.043248 
L 262.544734 167.356186 
L 262.894201 168.201855 
L 263.593134 166.187948 
L 263.942601 167.175697 
L 264.292068 166.995093 
L 264.641534 167.425046 
L 264.991001 165.904927 
L 265.340468 165.374539 
L 265.689934 166.523802 
L 266.039401 164.874069 
L 266.388868 165.006069 
L 266.738334 164.535484 
L 267.437268 164.353056 
L 267.786735 161.094313 
L 268.136201 160.999388 
L 268.485668 161.256576 
L 268.835135 162.04479 
L 269.534068 158.241916 
L 269.883535 156.56431 
L 270.233001 156.138504 
L 270.582468 156.284759 
L 270.931935 155.978578 
L 271.281401 154.312141 
L 271.630868 155.686375 
L 271.980335 154.223212 
L 272.329801 155.580986 
L 272.679268 154.607652 
L 273.028735 154.018474 
L 273.378201 153.969341 
L 273.727668 154.03572 
L 274.077135 152.766913 
L 274.426601 152.911076 
L 274.776068 154.284292 
L 275.125535 153.818991 
L 275.475001 154.382269 
L 275.824468 154.61249 
L 276.173935 152.852631 
L 276.523402 153.90662 
L 276.872868 154.189842 
L 277.222335 153.535783 
L 277.571802 153.136151 
L 277.921268 151.559728 
L 278.270735 151.892444 
L 278.620202 151.549341 
L 278.969668 151.663125 
L 279.319135 150.746406 
L 279.668602 150.345396 
L 280.018068 149.185064 
L 280.367535 148.677889 
L 280.717002 149.3949 
L 281.066468 149.608086 
L 281.415935 149.656048 
L 282.114868 148.005959 
L 282.464335 148.401535 
L 282.813802 147.198282 
L 283.163268 147.719055 
L 283.512735 147.494003 
L 283.862202 146.66174 
L 284.211668 146.86513 
L 284.561135 147.436855 
L 284.910602 147.176216 
L 285.260068 147.189838 
L 285.609535 145.027943 
L 286.308469 143.488749 
L 286.657935 143.742883 
L 287.007402 143.204787 
L 287.356869 141.413872 
L 287.706335 141.993205 
L 288.055802 139.423254 
L 288.405269 141.479968 
L 288.754735 139.777353 
L 289.104202 137.449902 
L 289.453669 138.13075 
L 290.152602 135.696859 
L 290.502069 135.790669 
L 290.851535 135.054967 
L 291.201002 136.899311 
L 291.550469 135.362804 
L 291.899935 135.938936 
L 292.249402 136.27696 
L 293.297802 133.919537 
L 293.647269 135.882272 
L 293.996735 135.921598 
L 294.346202 135.05394 
L 294.695669 135.545597 
L 295.045136 136.737628 
L 295.394602 135.810546 
L 295.744069 133.653455 
L 296.093536 137.234479 
L 296.443002 136.269842 
L 296.792469 134.873595 
L 297.141936 136.044871 
L 297.491402 136.1295 
L 297.840869 134.216776 
L 298.190336 133.264225 
L 298.539802 131.517979 
L 298.889269 132.369548 
L 299.238736 131.724388 
L 299.588202 131.923375 
L 299.937669 132.470031 
L 300.287136 131.074125 
L 300.636602 130.5018 
L 300.986069 131.536646 
L 301.335536 131.278719 
L 301.685002 129.039405 
L 302.034469 128.546827 
L 302.383936 127.022805 
L 302.733402 129.525456 
L 303.082869 130.355463 
L 303.432336 129.53951 
L 303.781803 129.383467 
L 304.131269 129.511435 
L 304.480736 125.097395 
L 304.830203 128.048205 
L 305.179669 126.347837 
L 305.878603 127.207998 
L 306.228069 123.027433 
L 306.577536 122.493148 
L 306.927003 120.811471 
L 307.276469 120.74454 
L 307.625936 122.265662 
L 307.975403 120.167986 
L 308.324869 119.755648 
L 308.674336 118.67237 
L 309.023803 118.280611 
L 309.373269 117.049815 
L 309.722736 117.233831 
L 310.072203 120.217867 
L 310.421669 118.608703 
L 310.771136 117.589817 
L 311.120603 119.527602 
L 311.470069 118.456007 
L 311.819536 118.078791 
L 312.169003 116.531662 
L 312.867936 118.994012 
L 313.217403 118.723586 
L 313.56687 119.109643 
L 313.916336 118.987326 
L 314.265803 117.600084 
L 314.61527 119.204054 
L 314.964736 117.276988 
L 315.314203 116.595497 
L 315.66367 116.524097 
L 316.362603 114.124992 
L 316.71207 111.447953 
L 317.061536 113.273682 
L 317.411003 116.683706 
L 317.76047 112.842615 
L 318.109936 112.662174 
L 318.459403 115.239758 
L 319.158336 111.809055 
L 319.507803 111.763196 
L 319.85727 112.487441 
L 320.206736 112.457887 
L 320.556203 113.012501 
L 320.90567 106.492418 
L 321.255137 105.796373 
L 321.604603 105.990739 
L 321.95407 104.658202 
L 322.303537 104.22114 
L 322.653003 101.903562 
L 323.00247 104.848373 
L 323.351937 105.996595 
L 323.701403 103.477369 
L 324.05087 105.137399 
L 324.400337 102.314412 
L 324.749803 100.877054 
L 325.09927 97.390038 
L 325.448737 98.328333 
L 325.798203 93.161805 
L 326.497137 96.783398 
L 326.846603 98.437206 
L 327.19607 96.930925 
L 327.545537 97.224756 
L 327.895003 97.856682 
L 328.24447 97.728024 
L 328.593937 99.564457 
L 328.943403 98.7084 
L 329.29287 97.366365 
L 329.642337 97.67591 
L 329.991804 96.300554 
L 330.34127 96.649992 
L 330.690737 94.967926 
L 331.040204 96.155335 
L 331.38967 99.359219 
L 331.739137 97.20318 
L 332.088604 93.934525 
L 332.43807 96.643377 
L 332.787537 95.069782 
L 333.137004 96.704174 
L 333.48647 95.228325 
L 333.835937 95.207339 
L 334.884337 89.525476 
L 335.233804 92.071193 
L 335.58327 91.876534 
L 335.932737 90.602265 
L 336.282204 90.977834 
L 336.63167 93.149383 
L 337.330604 91.273273 
L 337.68007 92.648294 
L 338.029537 91.874705 
L 338.379004 90.375725 
L 338.72847 90.404876 
L 339.427404 87.917623 
L 339.776871 89.002783 
L 340.126337 88.985181 
L 340.475804 86.623007 
L 340.825271 87.839859 
L 341.524204 87.635768 
L 341.873671 86.323781 
L 342.223137 87.821993 
L 342.572604 87.866086 
L 342.922071 85.229204 
L 343.271537 85.196909 
L 343.621004 83.949165 
L 343.970471 80.658819 
L 344.319937 82.072926 
L 345.018871 81.296947 
L 345.368337 81.157522 
L 345.717804 81.509572 
L 346.067271 80.289763 
L 346.416737 81.720929 
L 347.115671 78.146842 
L 347.465137 79.572445 
L 347.814604 81.506831 
L 348.164071 82.262803 
L 348.513538 78.69089 
L 348.863004 80.816824 
L 349.212471 79.714274 
L 349.561938 83.565013 
L 349.911404 81.035742 
L 350.260871 80.094015 
L 350.610338 82.234733 
L 350.959804 82.43123 
L 351.309271 83.570168 
L 351.658738 81.522282 
L 352.008204 83.704697 
L 352.357671 81.053396 
L 352.707138 80.729801 
L 353.056604 78.221769 
L 353.406071 81.373214 
L 353.755538 81.35926 
L 354.105004 80.603643 
L 354.454471 80.684287 
L 354.803938 79.316913 
L 355.153404 80.376398 
L 355.502871 77.801474 
L 355.852338 78.440792 
L 356.201804 78.442088 
L 356.551271 87.360975 
L 357.250205 87.360975 
L 357.599671 76.268966 
L 357.949138 76.218388 
L 358.298605 77.702095 
L 358.648071 77.293948 
L 358.997538 75.749709 
L 359.347005 76.132272 
L 359.696471 75.447411 
L 360.045938 73.15618 
L 360.395405 74.010763 
L 360.744871 69.369651 
L 361.094338 70.323003 
L 361.443805 68.978337 
L 361.793271 69.339349 
L 362.142738 68.138452 
L 362.492205 71.927679 
L 362.841671 69.040747 
L 363.890071 72.071937 
L 364.239538 70.783167 
L 364.589005 71.949144 
L 365.287938 69.791242 
L 365.637405 71.298503 
L 365.986872 71.985135 
L 366.336338 71.739909 
L 366.685805 75.751691 
L 367.035272 71.960079 
L 367.384738 72.465392 
L 367.734205 70.462058 
L 368.083672 72.722627 
L 368.433138 72.252004 
L 369.132072 71.984007 
L 369.481538 69.879821 
L 369.831005 71.247469 
L 370.180472 70.078852 
L 370.529938 69.910959 
L 370.879405 70.601627 
L 371.228872 67.422799 
L 371.578338 71.041229 
L 371.927805 72.61901 
L 372.626738 70.365785 
L 372.976205 69.807423 
L 373.325672 68.76351 
L 373.675138 68.425212 
L 374.024605 67.902086 
L 374.374072 65.685951 
L 374.723539 66.186848 
L 375.073005 65.465253 
L 375.422472 61.972501 
L 375.771939 62.982705 
L 376.121405 64.884441 
L 376.470872 63.630937 
L 376.820339 61.099198 
L 377.169805 67.229586 
L 377.519272 63.575972 
L 377.868739 65.967475 
L 378.567672 63.196438 
L 378.917139 63.037016 
L 379.266605 60.378064 
L 379.616072 62.514088 
L 379.965539 57.593544 
L 380.315005 61.246231 
L 380.664472 58.967255 
L 381.013939 57.603639 
L 381.363405 57.836932 
L 381.712872 56.624146 
L 382.062339 56.271031 
L 382.411805 59.705486 
L 382.761272 59.699962 
L 383.110739 60.134768 
L 383.460205 59.439462 
L 384.159139 56.364827 
L 384.508606 57.23165 
L 384.858072 57.045017 
L 385.207539 58.315183 
L 385.557006 58.818988 
L 385.906472 60.66636 
L 386.255939 58.778577 
L 386.605406 59.301621 
L 386.954872 59.529471 
L 387.304339 59.520985 
L 387.653806 61.553823 
L 388.003272 62.520928 
L 388.352739 60.065072 
L 388.702206 60.661556 
L 389.051672 60.47462 
L 389.401139 61.216155 
L 389.750606 59.190766 
L 390.100072 59.936241 
L 390.449539 57.550613 
L 390.799006 62.752829 
L 391.148472 62.006557 
L 391.497939 62.296922 
L 391.847406 60.692746 
L 392.196872 59.770891 
L 392.546339 56.683161 
L 392.895806 58.388387 
L 393.245273 57.967323 
L 393.944206 54.987531 
L 394.293673 57.034616 
L 394.992606 54.722539 
L 395.342073 53.568 
L 396.390473 57.268691 
L 396.739939 56.770022 
L 397.089406 58.098444 
L 397.438873 54.3406 
L 397.788339 54.098014 
L 398.137806 54.014873 
L 398.487273 54.590045 
L 398.487273 54.590045 
" clip-path="url(#pac8e28b6b9)" style="fill: none; stroke: #1f77b4; stroke-width: 1.5; stroke-linecap: square"/>
   </g>
   <g id="line2d_18">
    <path d="M 73.832727 294.842859 
L 75.580061 294.822973 
L 83.268328 294.599222 
L 84.316728 294.565363 
L 85.015661 294.533649 
L 88.859795 294.590169 
L 93.752328 294.517713 
L 94.101795 294.345879 
L 107.730995 294.518097 
L 109.478329 294.51911 
L 110.526729 294.368247 
L 111.924595 294.345572 
L 114.021395 294.312318 
L 114.370862 294.374204 
L 114.720329 294.276481 
L 118.214996 294.418383 
L 119.612862 294.3209 
L 121.010729 294.238763 
L 122.059129 294.069515 
L 123.107529 294.067533 
L 124.155929 293.949996 
L 124.854863 294.036228 
L 125.903263 294.097115 
L 127.650596 293.986053 
L 128.349529 293.828163 
L 129.397929 293.929798 
L 133.940996 293.60843 
L 134.290463 293.704036 
L 139.182996 293.10604 
L 140.580863 292.873337 
L 141.279796 292.879884 
L 142.328196 292.516492 
L 143.726063 292.261542 
L 144.07553 292.371759 
L 145.822863 292.185131 
L 147.919663 291.754174 
L 148.26913 291.61077 
L 148.968063 291.547938 
L 150.016463 291.314122 
L 150.715397 291.363696 
L 151.41433 291.128953 
L 152.113264 291.035608 
L 152.46273 290.82103 
L 153.51113 291.065258 
L 154.908997 290.638674 
L 155.258464 290.654288 
L 155.60793 290.499835 
L 156.65633 290.420913 
L 157.005797 290.200671 
L 158.75313 289.83929 
L 159.452064 289.704291 
L 160.150997 289.422691 
L 160.849931 289.330939 
L 161.548864 288.954525 
L 161.898331 289.080884 
L 162.946731 288.636306 
L 163.645664 288.265743 
L 163.995131 287.984949 
L 164.694064 287.789887 
L 165.043531 287.879512 
L 165.742464 287.742473 
L 166.790864 286.69386 
L 167.140331 286.441967 
L 167.489797 286.511216 
L 167.839264 286.376073 
L 168.887664 285.588709 
L 169.237131 285.455481 
L 169.936064 284.819407 
L 170.285531 284.732254 
L 170.634998 283.531813 
L 170.984464 283.643892 
L 171.333931 284.443593 
L 171.683398 284.356751 
L 172.382331 283.743117 
L 172.731798 284.29763 
L 173.081264 283.57964 
L 173.430731 283.53548 
L 173.780198 283.31231 
L 174.129664 282.790331 
L 174.479131 282.816856 
L 175.178064 282.017381 
L 175.527531 282.041492 
L 175.876998 281.862865 
L 176.226464 281.214379 
L 176.575931 281.433349 
L 176.925398 280.942513 
L 177.274864 281.089747 
L 177.624331 280.912556 
L 177.973798 280.984868 
L 178.323265 280.431819 
L 178.672731 280.453136 
L 179.022198 279.888913 
L 179.371665 279.986938 
L 180.070598 278.796069 
L 180.420065 278.560404 
L 180.769531 278.485457 
L 181.118998 278.212132 
L 181.468465 278.185041 
L 181.817931 278.289666 
L 182.167398 278.269823 
L 183.215798 277.879086 
L 183.565265 278.006304 
L 184.264198 277.677549 
L 184.613665 277.110758 
L 184.963131 275.838548 
L 185.312598 276.78819 
L 185.662065 277.100817 
L 186.011531 276.772619 
L 186.360998 276.962996 
L 186.710465 276.488047 
L 187.409398 275.873933 
L 187.758865 275.265123 
L 188.108332 274.883309 
L 188.457798 274.083441 
L 188.807265 271.71615 
L 189.156732 270.199861 
L 189.506198 272.446101 
L 189.855665 273.038452 
L 190.205132 273.054743 
L 190.554598 273.291498 
L 190.904065 273.274448 
L 191.253532 273.591304 
L 191.602998 272.937418 
L 191.952465 273.052396 
L 192.301932 271.831143 
L 192.651398 271.457949 
L 193.000865 271.670123 
L 193.699798 270.452287 
L 194.049265 270.781911 
L 194.398732 270.75013 
L 194.748198 270.357665 
L 195.097665 269.788032 
L 195.447132 269.491653 
L 195.796598 269.533662 
L 196.495532 267.767947 
L 196.844999 267.248599 
L 197.194465 266.969505 
L 197.543932 265.952212 
L 197.893399 265.59987 
L 198.941799 263.548556 
L 199.291265 263.896818 
L 199.990199 263.554292 
L 200.689132 262.896647 
L 201.038599 263.182548 
L 201.737532 262.820001 
L 202.436465 261.912872 
L 203.484865 261.44919 
L 203.834332 261.452228 
L 204.183799 260.501161 
L 204.533265 260.405363 
L 204.882732 260.431427 
L 205.232199 259.944339 
L 206.280599 257.532667 
L 206.630066 257.077764 
L 206.979532 254.882557 
L 207.328999 251.785419 
L 207.678466 256.380759 
L 208.027932 257.382111 
L 208.377399 257.102522 
L 208.726866 256.609492 
L 209.076332 256.676587 
L 209.425799 256.930505 
L 210.124732 255.893168 
L 210.823666 255.419842 
L 211.173132 255.03701 
L 211.522599 253.943844 
L 211.872066 253.690257 
L 212.221532 253.628284 
L 212.920466 252.660973 
L 213.269932 251.511153 
L 213.619399 250.79456 
L 213.968866 251.246175 
L 214.667799 249.833796 
L 215.017266 248.5345 
L 215.366733 248.156583 
L 215.716199 247.971755 
L 216.415133 245.888152 
L 216.764599 244.265467 
L 217.114066 244.97608 
L 217.463533 244.842132 
L 218.162466 243.474551 
L 218.511933 243.33346 
L 218.861399 243.433228 
L 219.210866 244.559307 
L 219.560333 243.981923 
L 219.909799 244.240315 
L 220.259266 243.627329 
L 220.608733 243.693963 
L 221.307666 242.083829 
L 221.657133 241.07618 
L 222.006599 241.269868 
L 222.705533 238.542497 
L 223.055 239.188761 
L 223.404466 238.686501 
L 223.753933 237.497864 
L 224.1034 237.409611 
L 224.452866 236.611855 
L 224.802333 236.157638 
L 225.1518 232.989389 
L 225.501266 225.679013 
L 225.850733 230.941637 
L 226.2002 233.747699 
L 226.549666 234.044121 
L 227.2486 233.735214 
L 227.598066 233.820961 
L 227.947533 233.781683 
L 228.297 232.908264 
L 228.646466 232.690278 
L 228.995933 232.96235 
L 229.694866 231.940512 
L 230.3938 230.105812 
L 230.743266 228.096282 
L 231.092733 228.772301 
L 231.4422 228.672188 
L 231.791667 225.02768 
L 232.141133 225.826987 
L 232.840067 223.395328 
L 233.189533 221.055651 
L 233.539 220.97133 
L 233.888467 220.650917 
L 234.5874 216.575453 
L 234.936867 216.305065 
L 235.286333 215.703311 
L 235.6358 215.409437 
L 236.334733 213.083565 
L 236.6842 212.884188 
L 237.033667 212.815314 
L 237.383133 213.835045 
L 237.7326 213.952491 
L 238.431533 215.421077 
L 239.130467 215.902006 
L 239.479933 213.839245 
L 239.8294 213.318999 
L 240.178867 213.768891 
L 240.528333 212.850526 
L 240.8778 211.160752 
L 241.227267 212.631513 
L 241.576734 213.214537 
L 241.9262 211.474421 
L 242.275667 211.260385 
L 242.625134 210.280417 
L 242.9746 205.323518 
L 243.324067 207.308381 
L 243.673534 199.110715 
L 244.372467 208.844585 
L 244.721934 207.581543 
L 245.0714 208.908554 
L 245.420867 208.415957 
L 245.770334 208.334127 
L 246.1198 207.048947 
L 246.469267 209.218431 
L 246.818734 209.819225 
L 247.1682 209.25673 
L 247.517667 208.024619 
L 247.867134 207.604573 
L 248.2166 206.642806 
L 248.566067 206.575823 
L 248.915534 208.278231 
L 249.265 207.305179 
L 249.614467 205.921466 
L 249.963934 203.976769 
L 250.313401 203.791869 
L 250.662867 202.987676 
L 251.012334 203.085913 
L 251.361801 201.015716 
L 251.711267 200.967961 
L 252.060734 199.543169 
L 252.410201 199.316351 
L 252.759667 198.881564 
L 253.109134 197.520238 
L 253.808067 197.531489 
L 254.507001 196.980663 
L 254.856467 197.799433 
L 255.205934 196.41139 
L 255.555401 195.672434 
L 255.904867 198.318393 
L 256.254334 198.449907 
L 256.603801 198.324714 
L 256.953267 198.404619 
L 257.302734 198.337919 
L 257.652201 197.013068 
L 258.001667 197.329002 
L 258.351134 197.864056 
L 258.700601 197.273524 
L 259.050068 194.562895 
L 259.399534 195.305788 
L 259.749001 194.93533 
L 260.098468 192.053808 
L 260.447934 193.463623 
L 261.496334 189.704127 
L 261.845801 177.950197 
L 262.195268 182.458686 
L 262.544734 189.239499 
L 262.894201 190.484008 
L 263.593134 189.281782 
L 263.942601 188.102749 
L 264.292068 188.984222 
L 264.641534 188.7341 
L 264.991001 189.661758 
L 265.340468 187.567533 
L 265.689934 189.417285 
L 266.388868 187.496522 
L 266.738334 187.469546 
L 267.087801 188.043398 
L 267.437268 185.642823 
L 267.786735 185.236913 
L 268.136201 183.227033 
L 268.485668 185.07284 
L 268.835135 186.246776 
L 269.184601 183.992303 
L 269.883535 177.705076 
L 270.233001 179.079147 
L 270.582468 177.947216 
L 270.931935 177.329027 
L 271.281401 175.860786 
L 271.630868 176.471281 
L 271.980335 176.641949 
L 272.329801 176.488541 
L 272.679268 176.000364 
L 273.028735 175.221784 
L 273.378201 173.048733 
L 273.727668 175.794354 
L 274.077135 176.571653 
L 274.426601 176.717884 
L 274.776068 177.953346 
L 275.125535 178.638974 
L 275.824468 178.384417 
L 276.173935 178.860767 
L 276.523402 178.585944 
L 276.872868 179.209053 
L 277.571802 176.694921 
L 277.921268 178.27733 
L 278.270735 177.739747 
L 278.620202 176.401729 
L 278.969668 176.549539 
L 279.319135 175.905133 
L 279.668602 173.898718 
L 280.018068 162.806316 
L 280.367535 162.511007 
L 280.717002 173.368441 
L 281.066468 174.890821 
L 281.415935 175.202502 
L 281.765402 174.154672 
L 282.114868 172.739471 
L 282.813802 171.153683 
L 283.163268 171.108774 
L 283.512735 171.6349 
L 283.862202 171.258001 
L 284.211668 162.7917 
L 284.561135 159.096624 
L 284.910602 157.657721 
L 285.260068 158.730544 
L 286.308469 154.971207 
L 286.657935 155.235076 
L 287.007402 157.226092 
L 287.356869 155.401587 
L 287.706335 154.705264 
L 288.055802 156.334324 
L 288.405269 157.229956 
L 289.104202 154.413632 
L 289.453669 151.73235 
L 289.803135 151.529532 
L 290.152602 150.074303 
L 290.502069 151.331259 
L 290.851535 151.158455 
L 291.201002 152.151748 
L 291.550469 151.19997 
L 291.899935 151.207904 
L 292.249402 152.046542 
L 292.598869 153.529543 
L 292.948335 152.820903 
L 293.297802 154.522505 
L 293.996735 154.6426 
L 294.346202 155.299348 
L 294.695669 154.102675 
L 295.045136 154.271581 
L 295.394602 153.325266 
L 295.744069 151.612485 
L 296.093536 153.565754 
L 296.443002 153.958839 
L 296.792469 153.767766 
L 297.141936 155.962863 
L 297.491402 154.124126 
L 298.190336 146.690434 
L 298.539802 140.777515 
L 299.238736 149.62384 
L 299.588202 148.969113 
L 299.937669 149.785815 
L 300.287136 148.774042 
L 300.986069 147.907718 
L 301.335536 148.036276 
L 301.685002 149.509039 
L 302.034469 149.144639 
L 302.383936 148.960574 
L 302.733402 147.229957 
L 303.082869 150.065529 
L 303.781803 147.39545 
L 304.131269 149.40859 
L 304.480736 148.239185 
L 304.830203 145.196211 
L 305.179669 145.495178 
L 305.529136 143.685423 
L 305.878603 142.624973 
L 306.228069 144.289932 
L 306.577536 144.626554 
L 307.276469 137.968477 
L 307.625936 137.855125 
L 307.975403 137.525741 
L 308.324869 136.851392 
L 308.674336 134.403202 
L 309.023803 135.694804 
L 309.373269 134.472874 
L 309.722736 134.566474 
L 310.072203 135.673632 
L 310.421669 138.382244 
L 310.771136 139.010302 
L 311.120603 139.055398 
L 311.470069 140.414161 
L 311.819536 138.440535 
L 312.51847 139.495402 
L 312.867936 139.741425 
L 313.217403 139.539783 
L 313.56687 139.141687 
L 313.916336 141.282074 
L 314.265803 140.297267 
L 314.61527 140.768198 
L 314.964736 139.368793 
L 315.314203 140.338605 
L 316.013136 137.951744 
L 316.362603 133.194246 
L 316.71207 122.054204 
L 317.411003 133.190003 
L 317.76047 133.495781 
L 318.109936 135.056882 
L 318.459403 133.579469 
L 318.80887 136.069457 
L 319.158336 135.189755 
L 319.507803 132.096515 
L 319.85727 133.790389 
L 320.206736 133.784586 
L 320.556203 135.860754 
L 320.90567 132.338737 
L 321.255137 126.377885 
L 321.604603 126.518946 
L 321.95407 135.906502 
L 322.303537 125.367921 
L 323.00247 122.244739 
L 323.351937 125.572943 
L 323.701403 125.412326 
L 324.05087 124.200538 
L 324.400337 121.413441 
L 324.749803 121.991992 
L 325.448737 115.129896 
L 325.798203 115.822912 
L 326.14767 115.621279 
L 326.497137 113.413347 
L 326.846603 113.331152 
L 327.19607 114.151512 
L 327.545537 113.02069 
L 327.895003 113.778265 
L 328.24447 113.870151 
L 328.593937 116.879132 
L 328.943403 117.629436 
L 329.642337 120.338169 
L 329.991804 118.477645 
L 330.34127 119.502877 
L 330.690737 119.621595 
L 331.040204 117.050338 
L 331.38967 119.937995 
L 331.739137 120.739999 
L 332.088604 117.947339 
L 332.43807 117.191937 
L 332.787537 119.25802 
L 333.137004 116.081419 
L 333.48647 119.17439 
L 333.835937 119.447336 
L 334.185404 115.506929 
L 334.884337 102.694498 
L 335.233804 109.251646 
L 335.58327 113.719341 
L 335.932737 113.652016 
L 336.282204 114.179692 
L 336.63167 113.149502 
L 336.981137 113.27001 
L 337.330604 113.922082 
L 338.029537 111.829796 
L 338.379004 114.56934 
L 339.077937 108.005198 
L 339.427404 111.360781 
L 339.776871 107.487525 
L 340.126337 109.906723 
L 340.475804 110.500884 
L 340.825271 109.333688 
L 341.174737 106.461482 
L 341.524204 110.811855 
L 341.873671 110.667832 
L 342.223137 107.568582 
L 342.572604 108.09394 
L 342.922071 107.57032 
L 343.271537 103.371333 
L 343.970471 99.233892 
L 344.319937 99.557746 
L 344.669404 99.39951 
L 345.018871 98.376155 
L 345.368337 99.638194 
L 345.717804 98.296658 
L 346.067271 99.201022 
L 346.416737 97.941042 
L 347.465137 104.241588 
L 347.814604 103.279058 
L 348.164071 104.781187 
L 348.513538 104.363287 
L 348.863004 103.751794 
L 349.212471 103.478209 
L 349.561938 105.455575 
L 349.911404 106.077244 
L 350.260871 103.575294 
L 350.610338 104.431346 
L 350.959804 106.688286 
L 351.309271 104.364554 
L 351.658738 105.911827 
L 352.008204 106.402476 
L 352.357671 105.034324 
L 352.707138 100.57862 
L 353.056604 89.540131 
L 353.755538 101.510483 
L 354.105004 101.511342 
L 354.454471 103.846339 
L 354.803938 102.911025 
L 355.502871 99.907813 
L 355.852338 99.243103 
L 356.201804 101.493198 
L 356.551271 87.360975 
L 357.250205 87.360975 
L 357.599671 98.001286 
L 357.949138 96.82737 
L 358.298605 97.258696 
L 358.648071 101.596911 
L 358.997538 100.939074 
L 359.347005 97.55365 
L 359.696471 98.458287 
L 360.045938 97.250018 
L 360.395405 98.087792 
L 360.744871 95.354228 
L 361.094338 90.393288 
L 361.443805 91.109771 
L 361.793271 87.206535 
L 362.142738 88.005948 
L 362.492205 87.664093 
L 362.841671 88.187003 
L 363.191138 88.04008 
L 363.540605 87.397666 
L 363.890071 88.953972 
L 364.239538 88.756986 
L 364.589005 88.776882 
L 364.938471 92.168675 
L 365.287938 92.935577 
L 365.637405 94.247997 
L 365.986872 95.072321 
L 367.035272 94.594214 
L 367.384738 94.962944 
L 367.734205 94.588608 
L 368.083672 95.058027 
L 368.433138 96.114732 
L 368.782605 93.648878 
L 369.132072 95.233067 
L 369.481538 96.218829 
L 369.831005 91.116064 
L 370.180472 95.088137 
L 370.529938 93.531168 
L 370.879405 89.245777 
L 371.228872 80.697574 
L 371.578338 79.184021 
L 371.927805 91.505789 
L 372.277272 94.248875 
L 372.626738 91.986617 
L 372.976205 90.625799 
L 373.325672 91.952316 
L 374.024605 89.880732 
L 374.374072 90.542164 
L 374.723539 87.526435 
L 375.073005 88.368763 
L 375.422472 86.84311 
L 376.121405 82.934954 
L 376.470872 85.263096 
L 376.820339 84.123438 
L 377.169805 85.373885 
L 377.519272 85.281643 
L 377.868739 88.42943 
L 378.218205 87.658588 
L 378.917139 82.014332 
L 379.266605 81.517468 
L 379.616072 82.487653 
L 379.965539 81.123317 
L 380.315005 77.576744 
L 380.664472 76.680823 
L 381.013939 77.561907 
L 381.363405 73.244217 
L 381.712872 74.893028 
L 382.062339 74.684244 
L 382.411805 74.811385 
L 382.761272 75.301636 
L 383.460205 80.521487 
L 383.809672 81.835759 
L 384.858072 79.428061 
L 385.207539 80.987204 
L 385.557006 80.318217 
L 385.906472 81.882155 
L 386.255939 84.312739 
L 386.605406 81.839013 
L 386.954872 83.901208 
L 387.304339 82.957874 
L 387.653806 85.335845 
L 388.003272 81.072423 
L 388.352739 84.865975 
L 388.702206 82.25999 
L 389.051672 80.556973 
L 389.750606 67.668827 
L 390.100072 80.593155 
L 390.449539 81.599566 
L 390.799006 80.090809 
L 391.148472 82.234301 
L 391.847406 83.665117 
L 392.196872 75.765242 
L 392.546339 82.630299 
L 392.895806 84.025984 
L 393.245273 79.279132 
L 393.594739 78.35831 
L 393.944206 79.684687 
L 394.293673 77.828114 
L 394.643139 77.042967 
L 394.992606 76.880627 
L 395.342073 78.543085 
L 395.691539 77.446371 
L 396.041006 75.518945 
L 396.390473 77.752941 
L 396.739939 76.903009 
L 397.089406 74.026392 
L 397.438873 75.956516 
L 397.788339 73.337859 
L 398.137806 73.599741 
L 398.487273 73.257364 
L 398.487273 73.257364 
" clip-path="url(#pac8e28b6b9)" style="fill: none; stroke: #ff7f0e; stroke-width: 1.5; stroke-linecap: square"/>
   </g>
   <g id="line2d_19">
    <path d="M 73.832727 295.258619 
L 81.520994 295.220656 
L 81.870461 295.267878 
L 82.569394 295.183312 
L 84.666194 295.253953 
L 93.402861 295.230337 
L 93.752328 295.014199 
L 94.101795 295.186552 
L 119.962329 295.309225 
L 120.311796 295.235876 
L 121.010729 295.371274 
L 123.806462 295.350788 
L 126.252729 295.367161 
L 126.602196 295.42128 
L 127.650596 295.295295 
L 128.000063 295.379789 
L 129.048463 295.233995 
L 129.747396 295.352401 
L 130.096863 295.24528 
L 131.145263 295.38926 
L 131.494729 295.260126 
L 132.543129 295.241896 
L 132.892596 295.113587 
L 133.940996 295.345666 
L 134.63993 295.112608 
L 134.989396 295.189993 
L 135.338863 295.084893 
L 137.086196 295.271622 
L 138.134596 294.908508 
L 138.484063 295.096691 
L 138.83353 295.008837 
L 139.88193 295.177288 
L 140.231396 295.0485 
L 140.580863 295.091071 
L 141.279796 294.886304 
L 141.629263 294.93439 
L 142.328196 294.859894 
L 142.677663 294.988798 
L 143.376597 294.847885 
L 143.726063 295.06842 
L 147.22073 294.834133 
L 147.570197 294.640482 
L 147.919663 294.591316 
L 148.618597 294.754367 
L 149.31753 294.7147 
L 149.666997 294.950657 
L 151.064863 294.661449 
L 152.113264 294.693916 
L 152.46273 294.939444 
L 153.51113 294.527856 
L 154.210064 294.601559 
L 154.55953 294.547608 
L 154.908997 294.749288 
L 155.258464 294.552528 
L 155.957397 294.80193 
L 157.005797 294.457469 
L 158.054197 294.546892 
L 158.403664 294.355095 
L 158.75313 294.478838 
L 159.452064 294.205816 
L 159.80153 294.341746 
L 160.150997 294.245334 
L 160.500464 294.309303 
L 161.199397 294.265643 
L 161.898331 294.258913 
L 162.247797 294.161262 
L 162.597264 294.268403 
L 163.645664 294.114194 
L 163.995131 294.293756 
L 164.694064 294.155545 
L 165.043531 293.901171 
L 165.392997 293.785141 
L 165.742464 293.503512 
L 166.441397 293.463638 
L 166.790864 293.230633 
L 167.140331 293.69301 
L 167.489797 293.660173 
L 167.839264 293.394907 
L 168.188731 293.346711 
L 168.538197 292.985988 
L 168.887664 293.176667 
L 169.237131 292.675304 
L 169.936064 293.113422 
L 170.285531 293.02074 
L 170.634998 293.978623 
L 170.984464 293.910564 
L 171.333931 292.845872 
L 171.683398 292.728944 
L 172.032864 292.770565 
L 172.382331 292.971175 
L 172.731798 292.144465 
L 173.081264 292.837899 
L 173.430731 292.842118 
L 173.780198 292.448664 
L 174.129664 292.962516 
L 174.479131 292.258057 
L 174.828598 292.363517 
L 175.178064 292.756112 
L 175.876998 292.710719 
L 176.226464 292.972562 
L 176.575931 292.535207 
L 176.925398 292.794344 
L 177.274864 292.244746 
L 177.624331 292.668628 
L 177.973798 292.418736 
L 178.323265 292.773354 
L 178.672731 292.597276 
L 179.022198 292.902823 
L 179.721131 292.004157 
L 180.070598 292.731781 
L 180.420065 292.613673 
L 180.769531 292.227855 
L 181.118998 292.466208 
L 181.468465 292.84543 
L 182.167398 292.229012 
L 182.516865 292.118713 
L 182.866331 291.637645 
L 183.215798 291.870348 
L 183.565265 291.721266 
L 183.914731 291.307844 
L 184.264198 291.421382 
L 184.613665 288.872253 
L 184.963131 292.194577 
L 185.312598 292.466222 
L 185.662065 291.560159 
L 186.011531 291.556732 
L 186.710465 291.00737 
L 187.059932 291.047061 
L 187.409398 290.790392 
L 187.758865 290.906301 
L 188.457798 290.367283 
L 188.807265 292.103243 
L 189.156732 292.762405 
L 189.506198 289.950256 
L 189.855665 290.261684 
L 190.554598 289.895349 
L 190.904065 290.0584 
L 191.253532 290.014163 
L 191.602998 290.564039 
L 191.952465 288.455903 
L 192.301932 289.971971 
L 192.651398 289.964891 
L 193.000865 289.34881 
L 193.350332 289.668757 
L 193.699798 290.159204 
L 194.049265 289.850062 
L 194.398732 289.923511 
L 194.748198 288.809321 
L 195.097665 289.32408 
L 195.447132 288.957607 
L 195.796598 288.389433 
L 196.146065 289.702381 
L 196.495532 288.70471 
L 196.844999 289.662709 
L 197.194465 288.689014 
L 197.543932 289.106406 
L 197.893399 288.557975 
L 198.242865 289.891529 
L 198.592332 289.602733 
L 198.941799 288.710883 
L 199.640732 289.517999 
L 199.990199 289.236624 
L 200.339665 288.177543 
L 200.689132 288.853274 
L 201.038599 287.294774 
L 201.388065 287.78321 
L 201.737532 286.992851 
L 202.436465 286.271726 
L 203.135399 286.408363 
L 203.484865 286.462425 
L 203.834332 285.455404 
L 204.183799 286.528645 
L 204.533265 286.247818 
L 204.882732 285.226694 
L 205.232199 285.461231 
L 205.581666 285.231398 
L 205.931132 285.332913 
L 206.630066 286.505773 
L 206.979532 288.21566 
L 207.328999 289.245351 
L 207.678466 285.241166 
L 208.027932 284.861354 
L 208.377399 284.90799 
L 208.726866 285.338016 
L 209.076332 285.26412 
L 209.425799 285.051274 
L 210.124732 285.839167 
L 210.474199 284.859741 
L 210.823666 285.09421 
L 211.173132 284.445445 
L 211.522599 285.535712 
L 211.872066 285.63259 
L 212.221532 284.651868 
L 212.920466 283.711418 
L 213.269932 283.123455 
L 213.619399 285.02678 
L 213.968866 284.077757 
L 214.318333 283.778517 
L 214.667799 284.690859 
L 215.017266 283.795116 
L 215.366733 284.495072 
L 215.716199 284.410751 
L 216.065666 283.989735 
L 216.415133 284.948238 
L 216.764599 285.429268 
L 217.114066 284.993545 
L 217.463533 284.224502 
L 217.812999 284.561307 
L 218.162466 285.367233 
L 218.511933 284.890014 
L 219.210866 283.007924 
L 219.560333 283.127827 
L 219.909799 281.351457 
L 220.608733 281.322393 
L 220.958199 280.23671 
L 221.307666 281.473069 
L 221.657133 281.290569 
L 222.006599 280.17276 
L 222.356066 279.580735 
L 222.705533 280.998874 
L 223.055 279.749944 
L 223.753933 279.527897 
L 224.452866 280.03453 
L 224.802333 278.386971 
L 225.1518 280.817805 
L 225.501266 284.643531 
L 226.2002 278.429677 
L 226.549666 278.673554 
L 226.899133 278.16598 
L 227.2486 278.855684 
L 227.598066 279.292674 
L 227.947533 279.126533 
L 228.297 279.096686 
L 228.646466 279.586322 
L 228.995933 278.780742 
L 229.3454 278.691568 
L 229.694866 278.232407 
L 230.044333 279.134448 
L 230.3938 279.271545 
L 230.743266 278.963861 
L 231.092733 279.014976 
L 231.4422 276.007718 
L 231.791667 279.892763 
L 232.141133 277.404406 
L 232.4906 277.449012 
L 232.840067 278.168169 
L 233.189533 280.075488 
L 233.539 279.304257 
L 233.888467 278.057702 
L 234.237933 277.592441 
L 234.5874 280.202068 
L 234.936867 279.717347 
L 235.286333 279.725637 
L 235.6358 278.911609 
L 235.985267 279.754091 
L 236.334733 280.267646 
L 237.033667 280.820819 
L 237.7326 277.485123 
L 238.082067 277.769425 
L 238.431533 277.188153 
L 238.781 278.017853 
L 239.130467 276.610576 
L 239.479933 276.931008 
L 239.8294 277.674511 
L 240.178867 276.472423 
L 240.528333 276.952047 
L 240.8778 278.204308 
L 241.227267 276.413585 
L 241.576734 275.446855 
L 241.9262 276.692018 
L 242.275667 276.810875 
L 242.625134 290.531102 
L 242.9746 281.13036 
L 243.324067 278.456369 
L 243.673534 283.172362 
L 244.023 281.958803 
L 244.372467 276.403501 
L 244.721934 277.459721 
L 245.0714 276.130425 
L 245.420867 276.190751 
L 245.770334 276.059553 
L 246.1198 278.528134 
L 246.469267 277.108881 
L 246.818734 276.325707 
L 247.1682 275.871802 
L 247.517667 277.176897 
L 247.867134 277.323493 
L 248.2166 277.981853 
L 248.566067 277.771014 
L 248.915534 273.785209 
L 249.265 275.659523 
L 249.614467 274.624931 
L 249.963934 277.589335 
L 250.313401 275.744392 
L 250.662867 275.281165 
L 251.361801 276.446144 
L 251.711267 275.461875 
L 252.410201 277.737755 
L 253.109134 279.21911 
L 253.808067 277.688267 
L 254.507001 279.518729 
L 254.856467 278.846444 
L 255.205934 278.505646 
L 255.555401 278.600657 
L 255.904867 274.701448 
L 256.254334 274.261151 
L 257.302734 274.163461 
L 257.652201 274.634819 
L 258.001667 273.450838 
L 258.351134 273.92016 
L 258.700601 271.329046 
L 259.050068 274.12151 
L 259.399534 272.990635 
L 259.749001 271.040567 
L 260.098468 273.225834 
L 260.447934 271.397527 
L 260.797401 272.602298 
L 261.146868 272.640755 
L 261.496334 273.81625 
L 261.845801 284.426375 
L 262.544734 273.604686 
L 263.593134 272.394166 
L 263.942601 274.560948 
L 264.292068 273.498871 
L 264.641534 274.178946 
L 264.991001 271.731169 
L 265.340468 273.295006 
L 266.039401 272.025191 
L 266.388868 272.997547 
L 267.087801 271.936382 
L 267.437268 274.198232 
L 267.786735 271.345399 
L 268.136201 273.260355 
L 268.485668 271.671736 
L 268.835135 271.286014 
L 269.184601 271.37562 
L 269.883535 274.347233 
L 270.233001 272.547357 
L 270.582468 273.825543 
L 270.931935 274.137551 
L 271.281401 273.939355 
L 271.630868 274.703094 
L 271.980335 273.069263 
L 272.329801 274.580445 
L 272.679268 274.095287 
L 273.028735 274.28469 
L 273.378201 276.408608 
L 274.077135 271.68326 
L 274.426601 271.681191 
L 274.776068 271.818946 
L 275.125535 270.668017 
L 275.475001 271.345812 
L 275.824468 271.716073 
L 276.173935 269.479864 
L 276.523402 270.808676 
L 276.872868 270.468789 
L 277.571802 271.92923 
L 277.921268 268.770399 
L 278.620202 270.635612 
L 278.969668 270.601585 
L 279.319135 270.329273 
L 279.668602 271.934678 
L 280.018068 281.866749 
L 280.367535 281.654882 
L 280.717002 271.514459 
L 281.066468 270.205266 
L 281.415935 269.941545 
L 281.765402 270.238222 
L 282.114868 270.754489 
L 282.464335 272.050545 
L 282.813802 271.532599 
L 283.163268 272.098281 
L 283.512735 271.347103 
L 283.862202 270.891739 
L 284.211668 279.56143 
L 284.561135 283.828231 
L 284.910602 285.006495 
L 285.609535 282.950027 
L 286.308469 284.005542 
L 286.657935 283.995807 
L 287.007402 281.466694 
L 287.356869 281.500285 
L 287.706335 282.775941 
L 288.055802 278.57693 
L 288.405269 279.738011 
L 288.754735 279.361016 
L 289.104202 278.52427 
L 289.453669 281.8864 
L 289.803135 280.635958 
L 290.152602 281.110555 
L 290.502069 279.94741 
L 290.851535 279.384512 
L 291.201002 280.235563 
L 291.550469 279.650834 
L 291.899935 280.219031 
L 292.249402 279.718418 
L 292.598869 277.500948 
L 292.948335 277.582385 
L 293.297802 274.885032 
L 293.647269 276.753117 
L 293.996735 276.766998 
L 294.346202 275.242592 
L 294.695669 276.930922 
L 295.045136 277.954047 
L 295.394602 277.97328 
L 295.744069 277.52897 
L 296.093536 279.156724 
L 296.792469 276.593829 
L 297.141936 275.570008 
L 297.840869 278.874078 
L 298.539802 286.228464 
L 299.238736 277.588548 
L 299.588202 278.442262 
L 300.636602 277.712104 
L 300.986069 279.116928 
L 301.335536 278.730443 
L 301.685002 275.018366 
L 302.034469 274.890188 
L 302.383936 273.550231 
L 302.733402 277.783499 
L 303.082869 275.777934 
L 303.432336 276.466227 
L 303.781803 277.476017 
L 304.131269 275.590845 
L 304.480736 272.346209 
L 304.830203 278.339994 
L 305.179669 276.340659 
L 305.878603 280.071024 
L 306.228069 274.225501 
L 306.577536 273.354593 
L 306.927003 274.952362 
L 307.276469 278.264063 
L 307.625936 279.898537 
L 307.975403 278.130244 
L 308.324869 278.392256 
L 308.674336 279.757168 
L 309.023803 278.073806 
L 309.722736 278.155358 
L 310.072203 280.032236 
L 310.421669 275.714459 
L 310.771136 274.067515 
L 311.120603 275.960203 
L 311.470069 273.529845 
L 311.819536 275.126255 
L 312.169003 273.070363 
L 312.867936 274.740587 
L 313.217403 274.671803 
L 313.56687 275.455956 
L 313.916336 273.193252 
L 314.265803 272.790817 
L 314.61527 273.923856 
L 314.964736 273.396195 
L 315.314203 271.744892 
L 315.66367 272.949139 
L 316.013136 272.933342 
L 316.362603 276.418745 
L 316.71207 284.881749 
L 317.061536 280.284124 
L 317.411003 278.981703 
L 317.76047 274.834834 
L 318.109936 273.093292 
L 318.459403 277.148289 
L 318.80887 272.937514 
L 319.158336 272.1073 
L 319.507803 275.154681 
L 319.85727 274.185052 
L 320.206736 274.161301 
L 320.556203 272.639747 
L 320.90567 269.641681 
L 321.255137 274.906488 
L 321.604603 274.959792 
L 321.95407 264.2397 
L 322.303537 274.341219 
L 322.653003 273.412318 
L 323.00247 278.091633 
L 323.701403 273.553044 
L 324.05087 276.42486 
L 324.400337 276.388971 
L 324.749803 274.373062 
L 325.09927 274.483903 
L 325.448737 278.686437 
L 325.798203 272.826893 
L 326.14767 275.121465 
L 326.497137 278.858051 
L 326.846603 280.594054 
L 327.19607 278.267413 
L 327.545537 279.692066 
L 328.24447 279.345872 
L 328.593937 278.173324 
L 328.943403 276.566964 
L 329.29287 273.970474 
L 329.642337 272.825741 
L 329.991804 273.310909 
L 330.34127 272.635115 
L 330.690737 270.834331 
L 331.040204 274.592997 
L 331.38967 274.909224 
L 331.739137 271.951181 
L 332.088604 271.475186 
L 332.43807 274.93944 
L 332.787537 271.299761 
L 333.137004 276.110755 
L 333.48647 271.541935 
L 333.835937 271.248003 
L 334.185404 273.119054 
L 334.53487 276.999807 
L 334.884337 282.318978 
L 335.58327 273.645193 
L 335.932737 272.438249 
L 336.282204 272.286142 
L 336.63167 275.487881 
L 337.330604 272.839191 
L 337.68007 275.352478 
L 338.029537 275.532909 
L 338.379004 271.294385 
L 338.72847 274.962855 
L 339.077937 276.792808 
L 339.427404 272.044843 
L 339.776871 277.003258 
L 340.475804 271.610123 
L 341.174737 276.722089 
L 341.524204 272.311913 
L 341.873671 271.143949 
L 342.223137 275.741411 
L 342.572604 275.260146 
L 342.922071 273.146884 
L 343.271537 277.313576 
L 343.621004 278.194838 
L 343.970471 276.912927 
L 344.319937 278.003179 
L 344.669404 277.793396 
L 345.018871 278.408792 
L 345.368337 277.007328 
L 345.717804 278.700914 
L 346.067271 276.576741 
L 346.416737 279.267887 
L 347.115671 270.79632 
L 347.465137 270.818856 
L 347.814604 273.715772 
L 348.164071 272.969616 
L 348.513538 269.815603 
L 348.863004 272.553031 
L 349.212471 271.724065 
L 349.561938 273.597439 
L 349.911404 270.446498 
L 350.610338 273.291387 
L 350.959804 271.230944 
L 351.309271 274.693614 
L 351.658738 271.098455 
L 352.008204 272.790221 
L 352.357671 271.507072 
L 352.707138 275.639181 
L 353.056604 284.169639 
L 353.406071 282.13273 
L 353.755538 275.336778 
L 354.105004 274.580301 
L 354.454471 272.325948 
L 354.803938 271.893888 
L 355.153404 274.641131 
L 355.502871 273.38166 
L 355.852338 274.685689 
L 356.201804 272.43689 
L 356.551271 295.488 
L 357.250205 295.488 
L 357.599671 273.755679 
L 358.298605 275.931399 
L 358.648071 271.185037 
L 358.997538 270.298635 
L 359.347005 274.066622 
L 360.045938 271.394162 
L 360.395405 271.410972 
L 360.744871 269.503422 
L 361.094338 275.417715 
L 361.443805 273.356566 
L 361.793271 277.620813 
L 362.142738 275.620504 
L 362.492205 279.751586 
L 362.841671 276.341744 
L 363.540605 278.738814 
L 363.890071 278.605965 
L 364.239538 277.514182 
L 364.589005 278.660263 
L 364.938471 274.303434 
L 365.287938 272.343665 
L 365.637405 272.538506 
L 366.336338 272.346425 
L 366.685805 276.58758 
L 367.035272 272.853864 
L 367.384738 272.990448 
L 367.734205 271.361451 
L 368.083672 273.152601 
L 368.433138 271.625272 
L 368.782605 274.005211 
L 369.132072 272.238939 
L 369.481538 269.148992 
L 369.831005 275.619405 
L 370.180472 270.478716 
L 370.529938 271.867791 
L 371.578338 287.345208 
L 371.927805 276.601221 
L 372.277272 272.733231 
L 372.976205 274.669624 
L 373.325672 272.299193 
L 374.024605 273.509354 
L 374.374072 270.631787 
L 374.723539 274.148414 
L 375.422472 270.617392 
L 376.121405 277.437488 
L 376.470872 273.85584 
L 376.820339 272.463761 
L 377.169805 277.343701 
L 377.519272 273.782329 
L 378.218205 272.269962 
L 378.567672 273.691115 
L 378.917139 276.510684 
L 379.266605 274.348597 
L 379.616072 275.514434 
L 379.965539 271.958227 
L 380.315005 279.157488 
L 380.664472 277.774432 
L 381.013939 275.529732 
L 381.363405 280.080715 
L 381.712872 277.219118 
L 382.062339 277.074787 
L 382.411805 280.382101 
L 382.761272 279.886326 
L 383.110739 277.677122 
L 383.809672 271.341252 
L 384.159139 270.816696 
L 384.508606 272.500471 
L 384.858072 273.104956 
L 385.207539 272.815978 
L 385.557006 273.988771 
L 385.906472 274.272205 
L 386.255939 269.953838 
L 386.605406 272.950608 
L 386.954872 271.116263 
L 387.304339 272.051111 
L 387.653806 271.705979 
L 388.003272 276.936504 
L 388.352739 270.687097 
L 388.702206 273.889565 
L 389.051672 275.405648 
L 389.401139 282.341591 
L 389.750606 287.009939 
L 390.100072 274.831086 
L 390.449539 271.439047 
L 390.799006 278.15002 
L 391.148472 275.260256 
L 391.497939 274.836274 
L 391.847406 272.515629 
L 392.196872 279.493649 
L 392.546339 269.540862 
L 392.895806 269.850403 
L 393.245273 274.176191 
L 393.594739 273.776982 
L 393.944206 270.790844 
L 394.293673 274.694502 
L 394.643139 274.141463 
L 394.992606 273.329912 
L 395.342073 270.512915 
L 395.691539 272.916893 
L 396.041006 276.385371 
L 396.390473 275.00375 
L 396.739939 275.355013 
L 397.089406 279.560052 
L 397.438873 273.872084 
L 397.788339 276.248154 
L 398.137806 275.903132 
L 398.487273 276.820681 
L 398.487273 276.820681 
" clip-path="url(#pac8e28b6b9)" style="fill: none; stroke: #2ca02c; stroke-width: 1.5; stroke-linecap: square"/>
   </g>
   <g id="patch_3">
    <path d="M 57.6 307.584 
L 57.6 41.472 
" style="fill: none; stroke: #000000; stroke-width: 0.8; stroke-linejoin: miter; stroke-linecap: square"/>
   </g>
   <g id="patch_4">
    <path d="M 414.72 307.584 
L 414.72 41.472 
" style="fill: none; stroke: #000000; stroke-width: 0.8; stroke-linejoin: miter; stroke-linecap: square"/>
   </g>
   <g id="patch_5">
    <path d="M 57.6 307.584 
L 414.72 307.584 
" style="fill: none; stroke: #000000; stroke-width: 0.8; stroke-linejoin: miter; stroke-linecap: square"/>
   </g>
   <g id="patch_6">
    <path d="M 57.6 41.472 
L 414.72 41.472 
" style="fill: none; stroke: #000000; stroke-width: 0.8; stroke-linejoin: miter; stroke-linecap: square"/>
   </g>
   <g id="legend_1">
    <g id="patch_7">
     <path d="M 64.6 93.506375 
L 186.25625 93.506375 
Q 188.25625 93.506375 188.25625 91.506375 
L 188.25625 48.472 
Q 188.25625 46.472 186.25625 46.472 
L 64.6 46.472 
Q 62.6 46.472 62.6 48.472 
L 62.6 91.506375 
Q 62.6 93.506375 64.6 93.506375 
z
" style="fill: #ffffff; opacity: 0.8; stroke: #cccccc; stroke-linejoin: miter"/>
    </g>
    <g id="line2d_20">
     <path d="M 66.6 54.570438 
L 76.6 54.570438 
L 86.6 54.570438 
" style="fill: none; stroke: #1f77b4; stroke-width: 1.5; stroke-linecap: square"/>
    </g>
    <g id="text_19">
     <!-- Weekly maximum -->
     <g transform="translate(94.6 58.070438) scale(0.1 -0.1)">
      <defs>
       <path id="DejaVuSans-57" d="M 213 4666 
L 850 4666 
L 1831 722 
L 2809 4666 
L 3519 4666 
L 4500 722 
L 5478 4666 
L 6119 4666 
L 4947 0 
L 4153 0 
L 3169 4050 
L 2175 0 
L 1381 0 
L 213 4666 
z
" transform="scale(0.015625)"/>
       <path id="DejaVuSans-6b" d="M 581 4863 
L 1159 4863 
L 1159 1991 
L 2875 3500 
L 3609 3500 
L 1753 1863 
L 3688 0 
L 2938 0 
L 1159 1709 
L 1159 0 
L 581 0 
L 581 4863 
z
" transform="scale(0.015625)"/>
       <path id="DejaVuSans-79" d="M 2059 -325 
Q 1816 -950 1584 -1140 
Q 1353 -1331 966 -1331 
L 506 -1331 
L 506 -850 
L 844 -850 
Q 1081 -850 1212 -737 
Q 1344 -625 1503 -206 
L 1606 56 
L 191 3500 
L 800 3500 
L 1894 763 
L 2988 3500 
L 3597 3500 
L 2059 -325 
z
" transform="scale(0.015625)"/>
       <path id="DejaVuSans-6d" d="M 3328 2828 
Q 3544 3216 3844 3400 
Q 4144 3584 4550 3584 
Q 5097 3584 5394 3201 
Q 5691 2819 5691 2113 
L 5691 0 
L 5113 0 
L 5113 2094 
Q 5113 2597 4934 2840 
Q 4756 3084 4391 3084 
Q 3944 3084 3684 2787 
Q 3425 2491 3425 1978 
L 3425 0 
L 2847 0 
L 2847 2094 
Q 2847 2600 2669 2842 
Q 2491 3084 2119 3084 
Q 1678 3084 1418 2786 
Q 1159 2488 1159 1978 
L 1159 0 
L 581 0 
L 581 3500 
L 1159 3500 
L 1159 2956 
Q 1356 3278 1631 3431 
Q 1906 3584 2284 3584 
Q 2666 3584 2933 3390 
Q 3200 3197 3328 2828 
z
" transform="scale(0.015625)"/>
       <path id="DejaVuSans-78" d="M 3513 3500 
L 2247 1797 
L 3578 0 
L 2900 0 
L 1881 1375 
L 863 0 
L 184 0 
L 1544 1831 
L 300 3500 
L 978 3500 
L 1906 2253 
L 2834 3500 
L 3513 3500 
z
" transform="scale(0.015625)"/>
       <path id="DejaVuSans-75" d="M 544 1381 
L 544 3500 
L 1119 3500 
L 1119 1403 
Q 1119 906 1312 657 
Q 1506 409 1894 409 
Q 2359 409 2629 706 
Q 2900 1003 2900 1516 
L 2900 3500 
L 3475 3500 
L 3475 0 
L 2900 0 
L 2900 538 
Q 2691 219 2414 64 
Q 2138 -91 1772 -91 
Q 1169 -91 856 284 
Q 544 659 544 1381 
z
M 1991 3584 
L 1991 3584 
z
" transform="scale(0.015625)"/>
      </defs>
      <use xlink:href="#DejaVuSans-57"/>
      <use xlink:href="#DejaVuSans-65" transform="translate(93.001953 0)"/>
      <use xlink:href="#DejaVuSans-65" transform="translate(154.525391 0)"/>
      <use xlink:href="#DejaVuSans-6b" transform="translate(216.048828 0)"/>
      <use xlink:href="#DejaVuSans-6c" transform="translate(273.958984 0)"/>
      <use xlink:href="#DejaVuSans-79" transform="translate(301.742188 0)"/>
      <use xlink:href="#DejaVuSans-20" transform="translate(360.921875 0)"/>
      <use xlink:href="#DejaVuSans-6d" transform="translate(392.708984 0)"/>
      <use xlink:href="#DejaVuSans-61" transform="translate(490.121094 0)"/>
      <use xlink:href="#DejaVuSans-78" transform="translate(551.400391 0)"/>
      <use xlink:href="#DejaVuSans-69" transform="translate(610.580078 0)"/>
      <use xlink:href="#DejaVuSans-6d" transform="translate(638.363281 0)"/>
      <use xlink:href="#DejaVuSans-75" transform="translate(735.775391 0)"/>
      <use xlink:href="#DejaVuSans-6d" transform="translate(799.154297 0)"/>
     </g>
    </g>
    <g id="line2d_21">
     <path d="M 66.6 69.248563 
L 76.6 69.248563 
L 86.6 69.248563 
" style="fill: none; stroke: #ff7f0e; stroke-width: 1.5; stroke-linecap: square"/>
    </g>
    <g id="text_20">
     <!-- Weekly minimum -->
     <g transform="translate(94.6 72.748563) scale(0.1 -0.1)">
      <defs>
       <path id="DejaVuSans-6e" d="M 3513 2113 
L 3513 0 
L 2938 0 
L 2938 2094 
Q 2938 2591 2744 2837 
Q 2550 3084 2163 3084 
Q 1697 3084 1428 2787 
Q 1159 2491 1159 1978 
L 1159 0 
L 581 0 
L 581 3500 
L 1159 3500 
L 1159 2956 
Q 1366 3272 1645 3428 
Q 1925 3584 2291 3584 
Q 2894 3584 3203 3211 
Q 3513 2838 3513 2113 
z
" transform="scale(0.015625)"/>
      </defs>
      <use xlink:href="#DejaVuSans-57"/>
      <use xlink:href="#DejaVuSans-65" transform="translate(93.001953 0)"/>
      <use xlink:href="#DejaVuSans-65" transform="translate(154.525391 0)"/>
      <use xlink:href="#DejaVuSans-6b" transform="translate(216.048828 0)"/>
      <use xlink:href="#DejaVuSans-6c" transform="translate(273.958984 0)"/>
      <use xlink:href="#DejaVuSans-79" transform="translate(301.742188 0)"/>
      <use xlink:href="#DejaVuSans-20" transform="translate(360.921875 0)"/>
      <use xlink:href="#DejaVuSans-6d" transform="translate(392.708984 0)"/>
      <use xlink:href="#DejaVuSans-69" transform="translate(490.121094 0)"/>
      <use xlink:href="#DejaVuSans-6e" transform="translate(517.904297 0)"/>
      <use xlink:href="#DejaVuSans-69" transform="translate(581.283203 0)"/>
      <use xlink:href="#DejaVuSans-6d" transform="translate(609.066406 0)"/>
      <use xlink:href="#DejaVuSans-75" transform="translate(706.478516 0)"/>
      <use xlink:href="#DejaVuSans-6d" transform="translate(769.857422 0)"/>
     </g>
    </g>
    <g id="line2d_22">
     <path d="M 66.6 83.926688 
L 76.6 83.926688 
L 86.6 83.926688 
" style="fill: none; stroke: #2ca02c; stroke-width: 1.5; stroke-linecap: square"/>
    </g>
    <g id="text_21">
     <!-- Weekly range -->
     <g transform="translate(94.6 87.426688) scale(0.1 -0.1)">
      <use xlink:href="#DejaVuSans-57"/>
      <use xlink:href="#DejaVuSans-65" transform="translate(93.001953 0)"/>
      <use xlink:href="#DejaVuSans-65" transform="translate(154.525391 0)"/>
      <use xlink:href="#DejaVuSans-6b" transform="translate(216.048828 0)"/>
      <use xlink:href="#DejaVuSans-6c" transform="translate(273.958984 0)"/>
      <use xlink:href="#DejaVuSans-79" transform="translate(301.742188 0)"/>
      <use xlink:href="#DejaVuSans-20" transform="translate(360.921875 0)"/>
      <use xlink:href="#DejaVuSans-72" transform="translate(392.708984 0)"/>
      <use xlink:href="#DejaVuSans-61" transform="translate(433.822266 0)"/>
      <use xlink:href="#DejaVuSans-6e" transform="translate(495.101562 0)"/>
      <use xlink:href="#DejaVuSans-67" transform="translate(558.480469 0)"/>
      <use xlink:href="#DejaVuSans-65" transform="translate(621.957031 0)"/>
     </g>
    </g>
   </g>
  </g>
 </g>
 <defs>
  <clipPath id="pac8e28b6b9">
   <rect x="57.6" y="41.472" width="357.12" height="266.112"/>
  </clipPath>
 </defs>
</svg>
