<?xml version="1.0" encoding="utf-8" standalone="no"?>
<!DOCTYPE svg PUBLIC "-//W3C//DTD SVG 1.1//EN"
  "http://www.w3.org/Graphics/SVG/1.1/DTD/svg11.dtd">
<svg xmlns:xlink="http://www.w3.org/1999/xlink" width="460.8pt" height="345.6pt" viewBox="0 0 460.8 345.6" xmlns="http://www.w3.org/2000/svg" version="1.1">
 <metadata>
  <rdf:RDF xmlns:dc="http://purl.org/dc/elements/1.1/" xmlns:cc="http://creativecommons.org/ns#" xmlns:rdf="http://www.w3.org/1999/02/22-rdf-syntax-ns#">
   <cc:Work>
    <dc:type rdf:resource="http://purl.org/dc/dcmitype/StillImage"/>
    <dc:date>2022-12-23T05:31:36.359556</dc:date>
    <dc:format>image/svg+xml</dc:format>
    <dc:creator>
     <cc:Agent>
      <dc:title>Matplotlib v3.6.2, https://matplotlib.org/</dc:title>
     </cc:Agent>
    </dc:creator>
   </cc:Work>
  </rdf:RDF>
 </metadata>
 <defs>
  <style type="text/css">*{stroke-linejoin: round; stroke-linecap: butt}</style>
 </defs>
 <g id="figure_1">
  <g id="patch_1">
   <path d="M 0 345.6 
L 460.8 345.6 
L 460.8 0 
L 0 0 
z
" style="fill: #ffffff"/>
  </g>
  <g id="axes_1">
   <g id="patch_2">
    <path d="M 57.6 307.584 
L 414.72 307.584 
L 414.72 41.472 
L 57.6 41.472 
z
" style="fill: #ffffff"/>
   </g>
   <g id="matplotlib.axis_1">
    <g id="xtick_1">
     <g id="line2d_1">
      <defs>
       <path id="m7eada6d27e" d="M 0 0 
L 0 3.5 
" style="stroke: #000000; stroke-width: 0.8"/>
      </defs>
      <g>
       <use xlink:href="#m7eada6d27e" x="58.663116" y="307.584" style="stroke: #000000; stroke-width: 0.8"/>
      </g>
     </g>
     <g id="text_1">
      <!-- 2008 -->
      <g transform="translate(45.938116 322.182437) scale(0.1 -0.1)">
       <defs>
        <path id="DejaVuSans-32" d="M 1228 531 
L 3431 531 
L 3431 0 
L 469 0 
L 469 531 
Q 828 903 1448 1529 
Q 2069 2156 2228 2338 
Q 2531 2678 2651 2914 
Q 2772 3150 2772 3378 
Q 2772 3750 2511 3984 
Q 2250 4219 1831 4219 
Q 1534 4219 1204 4116 
Q 875 4013 500 3803 
L 500 4441 
Q 881 4594 1212 4672 
Q 1544 4750 1819 4750 
Q 2544 4750 2975 4387 
Q 3406 4025 3406 3419 
Q 3406 3131 3298 2873 
Q 3191 2616 2906 2266 
Q 2828 2175 2409 1742 
Q 1991 1309 1228 531 
z
" transform="scale(0.015625)"/>
        <path id="DejaVuSans-30" d="M 2034 4250 
Q 1547 4250 1301 3770 
Q 1056 3291 1056 2328 
Q 1056 1369 1301 889 
Q 1547 409 2034 409 
Q 2525 409 2770 889 
Q 3016 1369 3016 2328 
Q 3016 3291 2770 3770 
Q 2525 4250 2034 4250 
z
M 2034 4750 
Q 2819 4750 3233 4129 
Q 3647 3509 3647 2328 
Q 3647 1150 3233 529 
Q 2819 -91 2034 -91 
Q 1250 -91 836 529 
Q 422 1150 422 2328 
Q 422 3509 836 4129 
Q 1250 4750 2034 4750 
z
" transform="scale(0.015625)"/>
        <path id="DejaVuSans-38" d="M 2034 2216 
Q 1584 2216 1326 1975 
Q 1069 1734 1069 1313 
Q 1069 891 1326 650 
Q 1584 409 2034 409 
Q 2484 409 2743 651 
Q 3003 894 3003 1313 
Q 3003 1734 2745 1975 
Q 2488 2216 2034 2216 
z
M 1403 2484 
Q 997 2584 770 2862 
Q 544 3141 544 3541 
Q 544 4100 942 4425 
Q 1341 4750 2034 4750 
Q 2731 4750 3128 4425 
Q 3525 4100 3525 3541 
Q 3525 3141 3298 2862 
Q 3072 2584 2669 2484 
Q 3125 2378 3379 2068 
Q 3634 1759 3634 1313 
Q 3634 634 3220 271 
Q 2806 -91 2034 -91 
Q 1263 -91 848 271 
Q 434 634 434 1313 
Q 434 1759 690 2068 
Q 947 2378 1403 2484 
z
M 1172 3481 
Q 1172 3119 1398 2916 
Q 1625 2713 2034 2713 
Q 2441 2713 2670 2916 
Q 2900 3119 2900 3481 
Q 2900 3844 2670 4047 
Q 2441 4250 2034 4250 
Q 1625 4250 1398 4047 
Q 1172 3844 1172 3481 
z
" transform="scale(0.015625)"/>
       </defs>
       <use xlink:href="#DejaVuSans-32"/>
       <use xlink:href="#DejaVuSans-30" x="63.623047"/>
       <use xlink:href="#DejaVuSans-30" x="127.246094"/>
       <use xlink:href="#DejaVuSans-38" x="190.869141"/>
      </g>
     </g>
    </g>
    <g id="xtick_2">
     <g id="line2d_2">
      <g>
       <use xlink:href="#m7eada6d27e" x="104.109779" y="307.584" style="stroke: #000000; stroke-width: 0.8"/>
      </g>
     </g>
     <g id="text_2">
      <!-- 2010 -->
      <g transform="translate(91.384779 322.182437) scale(0.1 -0.1)">
       <defs>
        <path id="DejaVuSans-31" d="M 794 531 
L 1825 531 
L 1825 4091 
L 703 3866 
L 703 4441 
L 1819 4666 
L 2450 4666 
L 2450 531 
L 3481 531 
L 3481 0 
L 794 0 
L 794 531 
z
" transform="scale(0.015625)"/>
       </defs>
       <use xlink:href="#DejaVuSans-32"/>
       <use xlink:href="#DejaVuSans-30" x="63.623047"/>
       <use xlink:href="#DejaVuSans-31" x="127.246094"/>
       <use xlink:href="#DejaVuSans-30" x="190.869141"/>
      </g>
     </g>
    </g>
    <g id="xtick_3">
     <g id="line2d_3">
      <g>
       <use xlink:href="#m7eada6d27e" x="149.494271" y="307.584" style="stroke: #000000; stroke-width: 0.8"/>
      </g>
     </g>
     <g id="text_3">
      <!-- 2012 -->
      <g transform="translate(136.769271 322.182437) scale(0.1 -0.1)">
       <use xlink:href="#DejaVuSans-32"/>
       <use xlink:href="#DejaVuSans-30" x="63.623047"/>
       <use xlink:href="#DejaVuSans-31" x="127.246094"/>
       <use xlink:href="#DejaVuSans-32" x="190.869141"/>
      </g>
     </g>
    </g>
    <g id="xtick_4">
     <g id="line2d_4">
      <g>
       <use xlink:href="#m7eada6d27e" x="194.940934" y="307.584" style="stroke: #000000; stroke-width: 0.8"/>
      </g>
     </g>
     <g id="text_4">
      <!-- 2014 -->
      <g transform="translate(182.215934 322.182437) scale(0.1 -0.1)">
       <defs>
        <path id="DejaVuSans-34" d="M 2419 4116 
L 825 1625 
L 2419 1625 
L 2419 4116 
z
M 2253 4666 
L 3047 4666 
L 3047 1625 
L 3713 1625 
L 3713 1100 
L 3047 1100 
L 3047 0 
L 2419 0 
L 2419 1100 
L 313 1100 
L 313 1709 
L 2253 4666 
z
" transform="scale(0.015625)"/>
       </defs>
       <use xlink:href="#DejaVuSans-32"/>
       <use xlink:href="#DejaVuSans-30" x="63.623047"/>
       <use xlink:href="#DejaVuSans-31" x="127.246094"/>
       <use xlink:href="#DejaVuSans-34" x="190.869141"/>
      </g>
     </g>
    </g>
    <g id="xtick_5">
     <g id="line2d_5">
      <g>
       <use xlink:href="#m7eada6d27e" x="240.325426" y="307.584" style="stroke: #000000; stroke-width: 0.8"/>
      </g>
     </g>
     <g id="text_5">
      <!-- 2016 -->
      <g transform="translate(227.600426 322.182437) scale(0.1 -0.1)">
       <defs>
        <path id="DejaVuSans-36" d="M 2113 2584 
Q 1688 2584 1439 2293 
Q 1191 2003 1191 1497 
Q 1191 994 1439 701 
Q 1688 409 2113 409 
Q 2538 409 2786 701 
Q 3034 994 3034 1497 
Q 3034 2003 2786 2293 
Q 2538 2584 2113 2584 
z
M 3366 4563 
L 3366 3988 
Q 3128 4100 2886 4159 
Q 2644 4219 2406 4219 
Q 1781 4219 1451 3797 
Q 1122 3375 1075 2522 
Q 1259 2794 1537 2939 
Q 1816 3084 2150 3084 
Q 2853 3084 3261 2657 
Q 3669 2231 3669 1497 
Q 3669 778 3244 343 
Q 2819 -91 2113 -91 
Q 1303 -91 875 529 
Q 447 1150 447 2328 
Q 447 3434 972 4092 
Q 1497 4750 2381 4750 
Q 2619 4750 2861 4703 
Q 3103 4656 3366 4563 
z
" transform="scale(0.015625)"/>
       </defs>
       <use xlink:href="#DejaVuSans-32"/>
       <use xlink:href="#DejaVuSans-30" x="63.623047"/>
       <use xlink:href="#DejaVuSans-31" x="127.246094"/>
       <use xlink:href="#DejaVuSans-36" x="190.869141"/>
      </g>
     </g>
    </g>
    <g id="xtick_6">
     <g id="line2d_6">
      <g>
       <use xlink:href="#m7eada6d27e" x="285.772089" y="307.584" style="stroke: #000000; stroke-width: 0.8"/>
      </g>
     </g>
     <g id="text_6">
      <!-- 2018 -->
      <g transform="translate(273.047089 322.182437) scale(0.1 -0.1)">
       <use xlink:href="#DejaVuSans-32"/>
       <use xlink:href="#DejaVuSans-30" x="63.623047"/>
       <use xlink:href="#DejaVuSans-31" x="127.246094"/>
       <use xlink:href="#DejaVuSans-38" x="190.869141"/>
      </g>
     </g>
    </g>
    <g id="xtick_7">
     <g id="line2d_7">
      <g>
       <use xlink:href="#m7eada6d27e" x="331.156581" y="307.584" style="stroke: #000000; stroke-width: 0.8"/>
      </g>
     </g>
     <g id="text_7">
      <!-- 2020 -->
      <g transform="translate(318.431581 322.182437) scale(0.1 -0.1)">
       <use xlink:href="#DejaVuSans-32"/>
       <use xlink:href="#DejaVuSans-30" x="63.623047"/>
       <use xlink:href="#DejaVuSans-32" x="127.246094"/>
       <use xlink:href="#DejaVuSans-30" x="190.869141"/>
      </g>
     </g>
    </g>
    <g id="xtick_8">
     <g id="line2d_8">
      <g>
       <use xlink:href="#m7eada6d27e" x="376.603244" y="307.584" style="stroke: #000000; stroke-width: 0.8"/>
      </g>
     </g>
     <g id="text_8">
      <!-- 2022 -->
      <g transform="translate(363.878244 322.182437) scale(0.1 -0.1)">
       <use xlink:href="#DejaVuSans-32"/>
       <use xlink:href="#DejaVuSans-30" x="63.623047"/>
       <use xlink:href="#DejaVuSans-32" x="127.246094"/>
       <use xlink:href="#DejaVuSans-32" x="190.869141"/>
      </g>
     </g>
    </g>
    <g id="text_9">
     <!-- Updated 2022-12-23 05:31:36.357480 - Last record 2022-12-21 -->
     <g transform="translate(75.905312 335.860562) scale(0.1 -0.1)">
      <defs>
       <path id="DejaVuSans-55" d="M 556 4666 
L 1191 4666 
L 1191 1831 
Q 1191 1081 1462 751 
Q 1734 422 2344 422 
Q 2950 422 3222 751 
Q 3494 1081 3494 1831 
L 3494 4666 
L 4128 4666 
L 4128 1753 
Q 4128 841 3676 375 
Q 3225 -91 2344 -91 
Q 1459 -91 1007 375 
Q 556 841 556 1753 
L 556 4666 
z
" transform="scale(0.015625)"/>
       <path id="DejaVuSans-70" d="M 1159 525 
L 1159 -1331 
L 581 -1331 
L 581 3500 
L 1159 3500 
L 1159 2969 
Q 1341 3281 1617 3432 
Q 1894 3584 2278 3584 
Q 2916 3584 3314 3078 
Q 3713 2572 3713 1747 
Q 3713 922 3314 415 
Q 2916 -91 2278 -91 
Q 1894 -91 1617 61 
Q 1341 213 1159 525 
z
M 3116 1747 
Q 3116 2381 2855 2742 
Q 2594 3103 2138 3103 
Q 1681 3103 1420 2742 
Q 1159 2381 1159 1747 
Q 1159 1113 1420 752 
Q 1681 391 2138 391 
Q 2594 391 2855 752 
Q 3116 1113 3116 1747 
z
" transform="scale(0.015625)"/>
       <path id="DejaVuSans-64" d="M 2906 2969 
L 2906 4863 
L 3481 4863 
L 3481 0 
L 2906 0 
L 2906 525 
Q 2725 213 2448 61 
Q 2172 -91 1784 -91 
Q 1150 -91 751 415 
Q 353 922 353 1747 
Q 353 2572 751 3078 
Q 1150 3584 1784 3584 
Q 2172 3584 2448 3432 
Q 2725 3281 2906 2969 
z
M 947 1747 
Q 947 1113 1208 752 
Q 1469 391 1925 391 
Q 2381 391 2643 752 
Q 2906 1113 2906 1747 
Q 2906 2381 2643 2742 
Q 2381 3103 1925 3103 
Q 1469 3103 1208 2742 
Q 947 2381 947 1747 
z
" transform="scale(0.015625)"/>
       <path id="DejaVuSans-61" d="M 2194 1759 
Q 1497 1759 1228 1600 
Q 959 1441 959 1056 
Q 959 750 1161 570 
Q 1363 391 1709 391 
Q 2188 391 2477 730 
Q 2766 1069 2766 1631 
L 2766 1759 
L 2194 1759 
z
M 3341 1997 
L 3341 0 
L 2766 0 
L 2766 531 
Q 2569 213 2275 61 
Q 1981 -91 1556 -91 
Q 1019 -91 701 211 
Q 384 513 384 1019 
Q 384 1609 779 1909 
Q 1175 2209 1959 2209 
L 2766 2209 
L 2766 2266 
Q 2766 2663 2505 2880 
Q 2244 3097 1772 3097 
Q 1472 3097 1187 3025 
Q 903 2953 641 2809 
L 641 3341 
Q 956 3463 1253 3523 
Q 1550 3584 1831 3584 
Q 2591 3584 2966 3190 
Q 3341 2797 3341 1997 
z
" transform="scale(0.015625)"/>
       <path id="DejaVuSans-74" d="M 1172 4494 
L 1172 3500 
L 2356 3500 
L 2356 3053 
L 1172 3053 
L 1172 1153 
Q 1172 725 1289 603 
Q 1406 481 1766 481 
L 2356 481 
L 2356 0 
L 1766 0 
Q 1100 0 847 248 
Q 594 497 594 1153 
L 594 3053 
L 172 3053 
L 172 3500 
L 594 3500 
L 594 4494 
L 1172 4494 
z
" transform="scale(0.015625)"/>
       <path id="DejaVuSans-65" d="M 3597 1894 
L 3597 1613 
L 953 1613 
Q 991 1019 1311 708 
Q 1631 397 2203 397 
Q 2534 397 2845 478 
Q 3156 559 3463 722 
L 3463 178 
Q 3153 47 2828 -22 
Q 2503 -91 2169 -91 
Q 1331 -91 842 396 
Q 353 884 353 1716 
Q 353 2575 817 3079 
Q 1281 3584 2069 3584 
Q 2775 3584 3186 3129 
Q 3597 2675 3597 1894 
z
M 3022 2063 
Q 3016 2534 2758 2815 
Q 2500 3097 2075 3097 
Q 1594 3097 1305 2825 
Q 1016 2553 972 2059 
L 3022 2063 
z
" transform="scale(0.015625)"/>
       <path id="DejaVuSans-20" transform="scale(0.015625)"/>
       <path id="DejaVuSans-2d" d="M 313 2009 
L 1997 2009 
L 1997 1497 
L 313 1497 
L 313 2009 
z
" transform="scale(0.015625)"/>
       <path id="DejaVuSans-33" d="M 2597 2516 
Q 3050 2419 3304 2112 
Q 3559 1806 3559 1356 
Q 3559 666 3084 287 
Q 2609 -91 1734 -91 
Q 1441 -91 1130 -33 
Q 819 25 488 141 
L 488 750 
Q 750 597 1062 519 
Q 1375 441 1716 441 
Q 2309 441 2620 675 
Q 2931 909 2931 1356 
Q 2931 1769 2642 2001 
Q 2353 2234 1838 2234 
L 1294 2234 
L 1294 2753 
L 1863 2753 
Q 2328 2753 2575 2939 
Q 2822 3125 2822 3475 
Q 2822 3834 2567 4026 
Q 2313 4219 1838 4219 
Q 1578 4219 1281 4162 
Q 984 4106 628 3988 
L 628 4550 
Q 988 4650 1302 4700 
Q 1616 4750 1894 4750 
Q 2613 4750 3031 4423 
Q 3450 4097 3450 3541 
Q 3450 3153 3228 2886 
Q 3006 2619 2597 2516 
z
" transform="scale(0.015625)"/>
       <path id="DejaVuSans-35" d="M 691 4666 
L 3169 4666 
L 3169 4134 
L 1269 4134 
L 1269 2991 
Q 1406 3038 1543 3061 
Q 1681 3084 1819 3084 
Q 2600 3084 3056 2656 
Q 3513 2228 3513 1497 
Q 3513 744 3044 326 
Q 2575 -91 1722 -91 
Q 1428 -91 1123 -41 
Q 819 9 494 109 
L 494 744 
Q 775 591 1075 516 
Q 1375 441 1709 441 
Q 2250 441 2565 725 
Q 2881 1009 2881 1497 
Q 2881 1984 2565 2268 
Q 2250 2553 1709 2553 
Q 1456 2553 1204 2497 
Q 953 2441 691 2322 
L 691 4666 
z
" transform="scale(0.015625)"/>
       <path id="DejaVuSans-3a" d="M 750 794 
L 1409 794 
L 1409 0 
L 750 0 
L 750 794 
z
M 750 3309 
L 1409 3309 
L 1409 2516 
L 750 2516 
L 750 3309 
z
" transform="scale(0.015625)"/>
       <path id="DejaVuSans-2e" d="M 684 794 
L 1344 794 
L 1344 0 
L 684 0 
L 684 794 
z
" transform="scale(0.015625)"/>
       <path id="DejaVuSans-37" d="M 525 4666 
L 3525 4666 
L 3525 4397 
L 1831 0 
L 1172 0 
L 2766 4134 
L 525 4134 
L 525 4666 
z
" transform="scale(0.015625)"/>
       <path id="DejaVuSans-4c" d="M 628 4666 
L 1259 4666 
L 1259 531 
L 3531 531 
L 3531 0 
L 628 0 
L 628 4666 
z
" transform="scale(0.015625)"/>
       <path id="DejaVuSans-73" d="M 2834 3397 
L 2834 2853 
Q 2591 2978 2328 3040 
Q 2066 3103 1784 3103 
Q 1356 3103 1142 2972 
Q 928 2841 928 2578 
Q 928 2378 1081 2264 
Q 1234 2150 1697 2047 
L 1894 2003 
Q 2506 1872 2764 1633 
Q 3022 1394 3022 966 
Q 3022 478 2636 193 
Q 2250 -91 1575 -91 
Q 1294 -91 989 -36 
Q 684 19 347 128 
L 347 722 
Q 666 556 975 473 
Q 1284 391 1588 391 
Q 1994 391 2212 530 
Q 2431 669 2431 922 
Q 2431 1156 2273 1281 
Q 2116 1406 1581 1522 
L 1381 1569 
Q 847 1681 609 1914 
Q 372 2147 372 2553 
Q 372 3047 722 3315 
Q 1072 3584 1716 3584 
Q 2034 3584 2315 3537 
Q 2597 3491 2834 3397 
z
" transform="scale(0.015625)"/>
       <path id="DejaVuSans-72" d="M 2631 2963 
Q 2534 3019 2420 3045 
Q 2306 3072 2169 3072 
Q 1681 3072 1420 2755 
Q 1159 2438 1159 1844 
L 1159 0 
L 581 0 
L 581 3500 
L 1159 3500 
L 1159 2956 
Q 1341 3275 1631 3429 
Q 1922 3584 2338 3584 
Q 2397 3584 2469 3576 
Q 2541 3569 2628 3553 
L 2631 2963 
z
" transform="scale(0.015625)"/>
       <path id="DejaVuSans-63" d="M 3122 3366 
L 3122 2828 
Q 2878 2963 2633 3030 
Q 2388 3097 2138 3097 
Q 1578 3097 1268 2742 
Q 959 2388 959 1747 
Q 959 1106 1268 751 
Q 1578 397 2138 397 
Q 2388 397 2633 464 
Q 2878 531 3122 666 
L 3122 134 
Q 2881 22 2623 -34 
Q 2366 -91 2075 -91 
Q 1284 -91 818 406 
Q 353 903 353 1747 
Q 353 2603 823 3093 
Q 1294 3584 2113 3584 
Q 2378 3584 2631 3529 
Q 2884 3475 3122 3366 
z
" transform="scale(0.015625)"/>
       <path id="DejaVuSans-6f" d="M 1959 3097 
Q 1497 3097 1228 2736 
Q 959 2375 959 1747 
Q 959 1119 1226 758 
Q 1494 397 1959 397 
Q 2419 397 2687 759 
Q 2956 1122 2956 1747 
Q 2956 2369 2687 2733 
Q 2419 3097 1959 3097 
z
M 1959 3584 
Q 2709 3584 3137 3096 
Q 3566 2609 3566 1747 
Q 3566 888 3137 398 
Q 2709 -91 1959 -91 
Q 1206 -91 779 398 
Q 353 888 353 1747 
Q 353 2609 779 3096 
Q 1206 3584 1959 3584 
z
" transform="scale(0.015625)"/>
      </defs>
      <use xlink:href="#DejaVuSans-55"/>
      <use xlink:href="#DejaVuSans-70" x="73.193359"/>
      <use xlink:href="#DejaVuSans-64" x="136.669922"/>
      <use xlink:href="#DejaVuSans-61" x="200.146484"/>
      <use xlink:href="#DejaVuSans-74" x="261.425781"/>
      <use xlink:href="#DejaVuSans-65" x="300.634766"/>
      <use xlink:href="#DejaVuSans-64" x="362.158203"/>
      <use xlink:href="#DejaVuSans-20" x="425.634766"/>
      <use xlink:href="#DejaVuSans-32" x="457.421875"/>
      <use xlink:href="#DejaVuSans-30" x="521.044922"/>
      <use xlink:href="#DejaVuSans-32" x="584.667969"/>
      <use xlink:href="#DejaVuSans-32" x="648.291016"/>
      <use xlink:href="#DejaVuSans-2d" x="711.914062"/>
      <use xlink:href="#DejaVuSans-31" x="747.998047"/>
      <use xlink:href="#DejaVuSans-32" x="811.621094"/>
      <use xlink:href="#DejaVuSans-2d" x="875.244141"/>
      <use xlink:href="#DejaVuSans-32" x="911.328125"/>
      <use xlink:href="#DejaVuSans-33" x="974.951172"/>
      <use xlink:href="#DejaVuSans-20" x="1038.574219"/>
      <use xlink:href="#DejaVuSans-30" x="1070.361328"/>
      <use xlink:href="#DejaVuSans-35" x="1133.984375"/>
      <use xlink:href="#DejaVuSans-3a" x="1197.607422"/>
      <use xlink:href="#DejaVuSans-33" x="1231.298828"/>
      <use xlink:href="#DejaVuSans-31" x="1294.921875"/>
      <use xlink:href="#DejaVuSans-3a" x="1358.544922"/>
      <use xlink:href="#DejaVuSans-33" x="1392.236328"/>
      <use xlink:href="#DejaVuSans-36" x="1455.859375"/>
      <use xlink:href="#DejaVuSans-2e" x="1519.482422"/>
      <use xlink:href="#DejaVuSans-33" x="1551.269531"/>
      <use xlink:href="#DejaVuSans-35" x="1614.892578"/>
      <use xlink:href="#DejaVuSans-37" x="1678.515625"/>
      <use xlink:href="#DejaVuSans-34" x="1742.138672"/>
      <use xlink:href="#DejaVuSans-38" x="1805.761719"/>
      <use xlink:href="#DejaVuSans-30" x="1869.384766"/>
      <use xlink:href="#DejaVuSans-20" x="1933.007812"/>
      <use xlink:href="#DejaVuSans-2d" x="1964.794922"/>
      <use xlink:href="#DejaVuSans-20" x="2000.878906"/>
      <use xlink:href="#DejaVuSans-4c" x="2032.666016"/>
      <use xlink:href="#DejaVuSans-61" x="2088.378906"/>
      <use xlink:href="#DejaVuSans-73" x="2149.658203"/>
      <use xlink:href="#DejaVuSans-74" x="2201.757812"/>
      <use xlink:href="#DejaVuSans-20" x="2240.966797"/>
      <use xlink:href="#DejaVuSans-72" x="2272.753906"/>
      <use xlink:href="#DejaVuSans-65" x="2311.617188"/>
      <use xlink:href="#DejaVuSans-63" x="2373.140625"/>
      <use xlink:href="#DejaVuSans-6f" x="2428.121094"/>
      <use xlink:href="#DejaVuSans-72" x="2489.302734"/>
      <use xlink:href="#DejaVuSans-64" x="2528.666016"/>
      <use xlink:href="#DejaVuSans-20" x="2592.142578"/>
      <use xlink:href="#DejaVuSans-32" x="2623.929688"/>
      <use xlink:href="#DejaVuSans-30" x="2687.552734"/>
      <use xlink:href="#DejaVuSans-32" x="2751.175781"/>
      <use xlink:href="#DejaVuSans-32" x="2814.798828"/>
      <use xlink:href="#DejaVuSans-2d" x="2878.421875"/>
      <use xlink:href="#DejaVuSans-31" x="2914.505859"/>
      <use xlink:href="#DejaVuSans-32" x="2978.128906"/>
      <use xlink:href="#DejaVuSans-2d" x="3041.751953"/>
      <use xlink:href="#DejaVuSans-32" x="3077.835938"/>
      <use xlink:href="#DejaVuSans-31" x="3141.458984"/>
     </g>
    </g>
   </g>
   <g id="matplotlib.axis_2">
    <g id="ytick_1">
     <g id="line2d_9">
      <defs>
       <path id="m24f265b75b" d="M 0 0 
L -3.5 0 
" style="stroke: #000000; stroke-width: 0.8"/>
      </defs>
      <g>
       <use xlink:href="#m24f265b75b" x="57.6" y="295.567793" style="stroke: #000000; stroke-width: 0.8"/>
      </g>
     </g>
     <g id="text_10">
      <!-- 0 -->
      <g transform="translate(44.2375 299.367012) scale(0.1 -0.1)">
       <use xlink:href="#DejaVuSans-30"/>
      </g>
     </g>
    </g>
    <g id="ytick_2">
     <g id="line2d_10">
      <g>
       <use xlink:href="#m24f265b75b" x="57.6" y="238.16263" style="stroke: #000000; stroke-width: 0.8"/>
      </g>
     </g>
     <g id="text_11">
      <!-- 10 -->
      <g transform="translate(37.875 241.961849) scale(0.1 -0.1)">
       <use xlink:href="#DejaVuSans-31"/>
       <use xlink:href="#DejaVuSans-30" x="63.623047"/>
      </g>
     </g>
    </g>
    <g id="ytick_3">
     <g id="line2d_11">
      <g>
       <use xlink:href="#m24f265b75b" x="57.6" y="180.757468" style="stroke: #000000; stroke-width: 0.8"/>
      </g>
     </g>
     <g id="text_12">
      <!-- 20 -->
      <g transform="translate(37.875 184.556686) scale(0.1 -0.1)">
       <use xlink:href="#DejaVuSans-32"/>
       <use xlink:href="#DejaVuSans-30" x="63.623047"/>
      </g>
     </g>
    </g>
    <g id="ytick_4">
     <g id="line2d_12">
      <g>
       <use xlink:href="#m24f265b75b" x="57.6" y="123.352305" style="stroke: #000000; stroke-width: 0.8"/>
      </g>
     </g>
     <g id="text_13">
      <!-- 30 -->
      <g transform="translate(37.875 127.151524) scale(0.1 -0.1)">
       <use xlink:href="#DejaVuSans-33"/>
       <use xlink:href="#DejaVuSans-30" x="63.623047"/>
      </g>
     </g>
    </g>
    <g id="ytick_5">
     <g id="line2d_13">
      <g>
       <use xlink:href="#m24f265b75b" x="57.6" y="65.947142" style="stroke: #000000; stroke-width: 0.8"/>
      </g>
     </g>
     <g id="text_14">
      <!-- 40 -->
      <g transform="translate(37.875 69.746361) scale(0.1 -0.1)">
       <use xlink:href="#DejaVuSans-34"/>
       <use xlink:href="#DejaVuSans-30" x="63.623047"/>
      </g>
     </g>
    </g>
    <g id="text_15">
     <!-- IPv6 as % of total Google traffic -->
     <g transform="translate(31.795312 253.735813) rotate(-90) scale(0.1 -0.1)">
      <defs>
       <path id="DejaVuSans-49" d="M 628 4666 
L 1259 4666 
L 1259 0 
L 628 0 
L 628 4666 
z
" transform="scale(0.015625)"/>
       <path id="DejaVuSans-50" d="M 1259 4147 
L 1259 2394 
L 2053 2394 
Q 2494 2394 2734 2622 
Q 2975 2850 2975 3272 
Q 2975 3691 2734 3919 
Q 2494 4147 2053 4147 
L 1259 4147 
z
M 628 4666 
L 2053 4666 
Q 2838 4666 3239 4311 
Q 3641 3956 3641 3272 
Q 3641 2581 3239 2228 
Q 2838 1875 2053 1875 
L 1259 1875 
L 1259 0 
L 628 0 
L 628 4666 
z
" transform="scale(0.015625)"/>
       <path id="DejaVuSans-76" d="M 191 3500 
L 800 3500 
L 1894 563 
L 2988 3500 
L 3597 3500 
L 2284 0 
L 1503 0 
L 191 3500 
z
" transform="scale(0.015625)"/>
       <path id="DejaVuSans-25" d="M 4653 2053 
Q 4381 2053 4226 1822 
Q 4072 1591 4072 1178 
Q 4072 772 4226 539 
Q 4381 306 4653 306 
Q 4919 306 5073 539 
Q 5228 772 5228 1178 
Q 5228 1588 5073 1820 
Q 4919 2053 4653 2053 
z
M 4653 2450 
Q 5147 2450 5437 2106 
Q 5728 1763 5728 1178 
Q 5728 594 5436 251 
Q 5144 -91 4653 -91 
Q 4153 -91 3862 251 
Q 3572 594 3572 1178 
Q 3572 1766 3864 2108 
Q 4156 2450 4653 2450 
z
M 1428 4353 
Q 1159 4353 1004 4120 
Q 850 3888 850 3481 
Q 850 3069 1003 2837 
Q 1156 2606 1428 2606 
Q 1700 2606 1854 2837 
Q 2009 3069 2009 3481 
Q 2009 3884 1853 4118 
Q 1697 4353 1428 4353 
z
M 4250 4750 
L 4750 4750 
L 1831 -91 
L 1331 -91 
L 4250 4750 
z
M 1428 4750 
Q 1922 4750 2215 4408 
Q 2509 4066 2509 3481 
Q 2509 2891 2217 2550 
Q 1925 2209 1428 2209 
Q 931 2209 642 2551 
Q 353 2894 353 3481 
Q 353 4063 643 4406 
Q 934 4750 1428 4750 
z
" transform="scale(0.015625)"/>
       <path id="DejaVuSans-66" d="M 2375 4863 
L 2375 4384 
L 1825 4384 
Q 1516 4384 1395 4259 
Q 1275 4134 1275 3809 
L 1275 3500 
L 2222 3500 
L 2222 3053 
L 1275 3053 
L 1275 0 
L 697 0 
L 697 3053 
L 147 3053 
L 147 3500 
L 697 3500 
L 697 3744 
Q 697 4328 969 4595 
Q 1241 4863 1831 4863 
L 2375 4863 
z
" transform="scale(0.015625)"/>
       <path id="DejaVuSans-6c" d="M 603 4863 
L 1178 4863 
L 1178 0 
L 603 0 
L 603 4863 
z
" transform="scale(0.015625)"/>
       <path id="DejaVuSans-47" d="M 3809 666 
L 3809 1919 
L 2778 1919 
L 2778 2438 
L 4434 2438 
L 4434 434 
Q 4069 175 3628 42 
Q 3188 -91 2688 -91 
Q 1594 -91 976 548 
Q 359 1188 359 2328 
Q 359 3472 976 4111 
Q 1594 4750 2688 4750 
Q 3144 4750 3555 4637 
Q 3966 4525 4313 4306 
L 4313 3634 
Q 3963 3931 3569 4081 
Q 3175 4231 2741 4231 
Q 1884 4231 1454 3753 
Q 1025 3275 1025 2328 
Q 1025 1384 1454 906 
Q 1884 428 2741 428 
Q 3075 428 3337 486 
Q 3600 544 3809 666 
z
" transform="scale(0.015625)"/>
       <path id="DejaVuSans-67" d="M 2906 1791 
Q 2906 2416 2648 2759 
Q 2391 3103 1925 3103 
Q 1463 3103 1205 2759 
Q 947 2416 947 1791 
Q 947 1169 1205 825 
Q 1463 481 1925 481 
Q 2391 481 2648 825 
Q 2906 1169 2906 1791 
z
M 3481 434 
Q 3481 -459 3084 -895 
Q 2688 -1331 1869 -1331 
Q 1566 -1331 1297 -1286 
Q 1028 -1241 775 -1147 
L 775 -588 
Q 1028 -725 1275 -790 
Q 1522 -856 1778 -856 
Q 2344 -856 2625 -561 
Q 2906 -266 2906 331 
L 2906 616 
Q 2728 306 2450 153 
Q 2172 0 1784 0 
Q 1141 0 747 490 
Q 353 981 353 1791 
Q 353 2603 747 3093 
Q 1141 3584 1784 3584 
Q 2172 3584 2450 3431 
Q 2728 3278 2906 2969 
L 2906 3500 
L 3481 3500 
L 3481 434 
z
" transform="scale(0.015625)"/>
       <path id="DejaVuSans-69" d="M 603 3500 
L 1178 3500 
L 1178 0 
L 603 0 
L 603 3500 
z
M 603 4863 
L 1178 4863 
L 1178 4134 
L 603 4134 
L 603 4863 
z
" transform="scale(0.015625)"/>
      </defs>
      <use xlink:href="#DejaVuSans-49"/>
      <use xlink:href="#DejaVuSans-50" x="29.492188"/>
      <use xlink:href="#DejaVuSans-76" x="89.794922"/>
      <use xlink:href="#DejaVuSans-36" x="148.974609"/>
      <use xlink:href="#DejaVuSans-20" x="212.597656"/>
      <use xlink:href="#DejaVuSans-61" x="244.384766"/>
      <use xlink:href="#DejaVuSans-73" x="305.664062"/>
      <use xlink:href="#DejaVuSans-20" x="357.763672"/>
      <use xlink:href="#DejaVuSans-25" x="389.550781"/>
      <use xlink:href="#DejaVuSans-20" x="484.570312"/>
      <use xlink:href="#DejaVuSans-6f" x="516.357422"/>
      <use xlink:href="#DejaVuSans-66" x="577.539062"/>
      <use xlink:href="#DejaVuSans-20" x="612.744141"/>
      <use xlink:href="#DejaVuSans-74" x="644.53125"/>
      <use xlink:href="#DejaVuSans-6f" x="683.740234"/>
      <use xlink:href="#DejaVuSans-74" x="744.921875"/>
      <use xlink:href="#DejaVuSans-61" x="784.130859"/>
      <use xlink:href="#DejaVuSans-6c" x="845.410156"/>
      <use xlink:href="#DejaVuSans-20" x="873.193359"/>
      <use xlink:href="#DejaVuSans-47" x="904.980469"/>
      <use xlink:href="#DejaVuSans-6f" x="982.470703"/>
      <use xlink:href="#DejaVuSans-6f" x="1043.652344"/>
      <use xlink:href="#DejaVuSans-67" x="1104.833984"/>
      <use xlink:href="#DejaVuSans-6c" x="1168.310547"/>
      <use xlink:href="#DejaVuSans-65" x="1196.09375"/>
      <use xlink:href="#DejaVuSans-20" x="1257.617188"/>
      <use xlink:href="#DejaVuSans-74" x="1289.404297"/>
      <use xlink:href="#DejaVuSans-72" x="1328.613281"/>
      <use xlink:href="#DejaVuSans-61" x="1369.726562"/>
      <use xlink:href="#DejaVuSans-66" x="1431.005859"/>
      <use xlink:href="#DejaVuSans-66" x="1466.210938"/>
      <use xlink:href="#DejaVuSans-69" x="1501.416016"/>
      <use xlink:href="#DejaVuSans-63" x="1529.199219"/>
     </g>
    </g>
   </g>
   <g id="line2d_14">
    <path d="M 73.832727 294.521911 
L 75.573502 294.34465 
L 76.008696 294.513444 
L 77.749471 294.512704 
L 79.490246 294.35884 
L 79.92544 294.222779 
L 81.231021 294.24535 
L 82.536602 294.212561 
L 82.971796 294.289168 
L 84.712571 294.13263 
L 86.453346 294.19372 
L 87.758928 294.143749 
L 89.064509 294.148611 
L 90.37009 294.199294 
L 91.675671 294.182945 
L 92.110865 294.293381 
L 94.286834 294.26655 
L 95.592415 294.213841 
L 97.33319 294.110804 
L 98.203578 294.120213 
L 98.638772 293.840742 
L 101.249934 293.744875 
L 102.120322 293.70809 
L 103.861097 293.850954 
L 105.166678 293.800122 
L 106.472259 293.851253 
L 108.648228 293.816086 
L 109.953809 294.019679 
L 110.824197 293.992618 
L 111.694584 293.94879 
L 112.564972 294.146723 
L 114.740941 294.164811 
L 116.046522 294.289128 
L 118.222491 294.195988 
L 119.092878 294.083181 
L 119.528072 293.990196 
L 120.39846 293.985615 
L 123.444816 293.918049 
L 124.315204 294.015414 
L 124.750397 293.878267 
L 127.36156 294.132653 
L 130.407916 293.953284 
L 131.278304 293.955523 
L 131.713497 293.824984 
L 132.583885 293.934174 
L 133.454272 293.7315 
L 133.889466 293.781884 
L 134.32466 293.657458 
L 134.759854 293.711936 
L 135.630241 293.596155 
L 136.500629 293.550857 
L 136.935823 293.579674 
L 137.371016 293.722527 
L 139.111791 293.754795 
L 139.546985 293.821706 
L 140.417373 293.729565 
L 140.852566 293.541081 
L 142.158148 293.378705 
L 143.463729 293.5108 
L 143.898923 293.36708 
L 144.76931 293.513504 
L 147.815667 292.991168 
L 148.686054 293.149704 
L 151.297217 292.736146 
L 153.473185 292.587799 
L 153.908379 292.368265 
L 154.343573 292.452863 
L 154.778767 292.258529 
L 155.649154 292.214287 
L 156.084348 292.228242 
L 157.389929 291.856262 
L 159.130704 291.262848 
L 159.565898 291.340035 
L 160.871479 291.207326 
L 161.306673 291.31573 
L 163.047448 291.101172 
L 164.353029 290.612206 
L 164.788223 290.505123 
L 165.223417 290.566076 
L 165.658611 290.204412 
L 166.093805 290.029952 
L 167.83458 289.819596 
L 168.269773 289.989234 
L 168.704967 289.824292 
L 169.575355 289.733534 
L 170.010548 289.469729 
L 170.880936 289.293702 
L 172.621711 289.275366 
L 173.492098 289.050493 
L 174.79768 288.884799 
L 175.232874 288.668158 
L 175.668067 288.647262 
L 176.103261 288.759283 
L 177.844036 287.949382 
L 178.27923 287.967935 
L 180.020005 287.45866 
L 180.455199 287.117363 
L 180.890392 287.039056 
L 181.325586 286.827846 
L 181.76078 286.862243 
L 183.066361 286.343593 
L 183.501555 286.435303 
L 183.936749 286.180017 
L 184.371942 286.135149 
L 186.547911 284.935812 
L 187.418299 284.570686 
L 188.288686 283.931216 
L 189.594268 282.350783 
L 190.029461 282.60251 
L 190.464655 282.646058 
L 191.770236 281.14458 
L 192.20543 280.96454 
L 192.640624 280.205603 
L 193.511011 279.968859 
L 194.381399 279.463699 
L 194.816593 279.516345 
L 196.122174 278.687581 
L 196.557368 278.511554 
L 196.992562 278.186021 
L 197.862949 278.108885 
L 198.298143 277.371436 
L 198.733337 277.361717 
L 199.16853 276.550944 
L 199.603724 276.131048 
L 200.474112 276.251564 
L 200.909305 275.951381 
L 201.344499 275.488977 
L 202.214887 274.9507 
L 202.65008 274.469496 
L 203.085274 274.764524 
L 204.826049 273.820387 
L 205.261243 273.471289 
L 205.696437 272.036717 
L 206.131631 272.308846 
L 207.002018 271.334703 
L 207.437212 271.292878 
L 207.872406 271.714008 
L 209.177987 270.755766 
L 209.613181 270.105687 
L 210.483568 270.155808 
L 210.918762 269.452405 
L 211.353956 269.40399 
L 211.789149 265.677516 
L 212.224343 268.129342 
L 212.659537 269.589936 
L 213.094731 268.880219 
L 213.529924 268.483613 
L 213.965118 268.419698 
L 214.400312 267.486273 
L 214.835506 267.193793 
L 216.141087 265.167821 
L 216.576281 263.844983 
L 217.011475 263.089944 
L 217.446668 262.064866 
L 217.881862 261.38807 
L 218.317056 262.468941 
L 218.75225 262.303528 
L 219.187443 262.333453 
L 219.622637 262.508062 
L 220.057831 262.834101 
L 220.493025 262.709709 
L 220.928218 260.326 
L 221.363412 260.678583 
L 222.668993 259.422523 
L 223.104187 259.253465 
L 223.974575 259.327793 
L 224.409768 257.525914 
L 224.844962 257.460289 
L 225.71535 256.038288 
L 226.150544 256.523103 
L 226.585737 254.303642 
L 227.020931 254.828245 
L 227.456125 253.329976 
L 227.891319 252.612526 
L 228.326512 251.535249 
L 228.761706 252.283353 
L 229.1969 251.150124 
L 229.632094 249.264858 
L 230.067287 250.214856 
L 230.502481 250.485676 
L 230.937675 249.900476 
L 231.372869 248.176657 
L 231.808062 248.655502 
L 232.243256 247.133542 
L 232.67845 247.484138 
L 233.548837 245.431421 
L 233.984031 244.391567 
L 235.289612 244.065092 
L 235.724806 242.864383 
L 236.16 243.010496 
L 236.595194 242.560073 
L 237.030388 241.370035 
L 237.465581 241.067998 
L 237.900775 239.737369 
L 238.335969 238.825178 
L 238.771163 238.664415 
L 239.206356 238.888943 
L 239.64155 238.308526 
L 240.076744 235.83597 
L 240.947131 237.286289 
L 241.382325 237.00769 
L 242.252713 236.924206 
L 242.687906 236.973327 
L 243.558294 236.675004 
L 243.993488 235.283859 
L 244.428681 235.218004 
L 244.863875 233.984269 
L 245.299069 233.980802 
L 245.734263 233.793386 
L 247.039844 230.264799 
L 247.475038 228.186503 
L 247.910232 229.605771 
L 248.345425 229.010898 
L 248.780619 227.781309 
L 249.215813 228.055005 
L 249.651007 225.429855 
L 250.0862 225.814998 
L 250.521394 225.49311 
L 250.956588 223.661374 
L 251.391782 223.644038 
L 251.826975 222.278679 
L 252.262169 222.607433 
L 252.697363 221.527504 
L 253.132557 220.953814 
L 253.56775 221.258595 
L 254.002944 220.519131 
L 254.438138 219.365522 
L 254.873332 219.734299 
L 255.308525 219.187176 
L 255.743719 217.371755 
L 256.178913 216.612572 
L 256.614107 216.683587 
L 257.049301 214.560624 
L 257.484494 214.938155 
L 258.354882 212.409601 
L 258.790076 209.886414 
L 259.225269 210.1358 
L 260.095657 208.716997 
L 260.530851 207.127264 
L 260.966044 207.339789 
L 261.401238 206.673551 
L 261.836432 204.159939 
L 262.271626 203.27803 
L 262.706819 199.110576 
L 263.142013 201.820105 
L 263.577207 201.328855 
L 264.012401 201.975024 
L 264.447594 201.216237 
L 265.317982 202.448571 
L 265.753176 202.2029 
L 266.188369 201.122644 
L 266.623563 201.447522 
L 267.493951 200.071676 
L 267.929145 198.931632 
L 268.364338 198.750835 
L 268.799532 197.980182 
L 269.234726 195.208919 
L 269.66992 196.078532 
L 270.105113 192.362283 
L 270.540307 192.649952 
L 270.975501 190.629939 
L 271.410695 189.384872 
L 271.845888 188.635224 
L 272.281082 188.118147 
L 272.716276 187.094952 
L 273.15147 185.220943 
L 273.586663 182.131231 
L 274.021857 182.911453 
L 275.762632 179.392499 
L 276.197826 178.813769 
L 276.63302 178.835675 
L 277.068214 179.15452 
L 277.503407 178.05966 
L 277.938601 176.525209 
L 278.373795 177.899867 
L 278.808989 177.9264 
L 279.244182 179.151065 
L 279.679376 177.810815 
L 280.11457 175.727082 
L 280.549764 175.994085 
L 280.984957 175.0945 
L 282.290539 173.663889 
L 283.160926 172.613058 
L 283.59612 172.49923 
L 284.031314 187.735898 
L 284.466507 170.564928 
L 284.901701 169.740768 
L 285.336895 165.576873 
L 285.772089 169.439994 
L 286.642476 168.875517 
L 287.07767 168.872785 
L 287.512864 168.355811 
L 287.948058 168.101041 
L 288.383251 169.516326 
L 288.818445 170.413562 
L 289.253639 170.195446 
L 289.688833 168.979886 
L 290.124026 169.06717 
L 291.429608 168.04502 
L 291.864801 165.314199 
L 292.299995 166.392061 
L 292.735189 163.499897 
L 293.170383 164.719412 
L 293.605576 162.291828 
L 294.04077 160.776062 
L 294.475964 161.669797 
L 294.911158 159.810955 
L 295.346351 158.57671 
L 295.781545 158.314265 
L 296.216739 159.323304 
L 296.651933 159.85557 
L 297.957514 157.12952 
L 298.392708 157.756436 
L 298.827902 158.659896 
L 299.263095 158.835085 
L 299.698289 156.767483 
L 300.133483 155.997358 
L 300.568677 154.498538 
L 301.00387 154.12925 
L 301.439064 153.919343 
L 301.874258 154.076191 
L 302.309452 153.878488 
L 303.179839 151.819617 
L 303.615033 153.020797 
L 304.050227 149.215719 
L 304.48542 149.313589 
L 304.920614 148.849583 
L 305.355808 146.074359 
L 305.791002 145.241674 
L 306.226195 144.741181 
L 306.661389 144.744827 
L 307.096583 143.240255 
L 307.531777 143.137689 
L 308.402164 140.758796 
L 308.837358 142.328999 
L 309.272552 143.340375 
L 310.142939 140.931849 
L 310.578133 142.113144 
L 311.013327 141.897152 
L 311.448521 142.411353 
L 311.883714 140.593371 
L 312.318908 139.959056 
L 312.754102 141.333513 
L 313.189296 139.360521 
L 313.624489 139.518385 
L 314.059683 138.955591 
L 314.494877 138.903323 
L 314.930071 138.737417 
L 315.365264 134.840134 
L 315.800458 134.72661 
L 316.235652 135.034192 
L 316.670846 135.976854 
L 317.541233 131.428821 
L 317.976427 129.422493 
L 318.411621 128.913252 
L 318.846815 129.088166 
L 319.282008 128.72199 
L 319.717202 126.72902 
L 320.152396 128.37253 
L 320.58759 126.622665 
L 321.022783 128.246491 
L 321.457977 127.082435 
L 321.893171 126.37781 
L 322.328365 126.31905 
L 322.763558 126.398435 
L 323.198752 124.88101 
L 323.633946 125.053421 
L 324.06914 126.695714 
L 324.504333 126.139239 
L 324.939527 126.812889 
L 325.374721 127.088221 
L 325.809915 124.983524 
L 326.245108 126.244038 
L 326.680302 126.582757 
L 327.115496 125.800537 
L 327.55069 125.322599 
L 327.985883 123.437282 
L 328.421077 123.835191 
L 328.856271 123.424859 
L 329.291465 123.560938 
L 329.726659 122.464591 
L 330.161852 121.985006 
L 330.597046 120.597311 
L 331.03224 119.990756 
L 331.467434 120.848263 
L 331.902627 121.103222 
L 332.337821 121.160581 
L 333.208209 119.187164 
L 333.643402 119.660252 
L 334.078596 118.221225 
L 334.51379 118.844042 
L 334.948984 118.574892 
L 335.384177 117.57955 
L 335.819371 117.822793 
L 336.254565 118.506546 
L 336.689759 118.194836 
L 337.124952 118.211127 
L 337.560146 115.625616 
L 338.430534 113.784822 
L 338.865728 114.088753 
L 339.300921 113.445219 
L 339.736115 111.30338 
L 340.171309 111.996232 
L 340.606503 108.922708 
L 341.041696 111.382427 
L 341.47689 109.346191 
L 341.912084 106.562684 
L 342.347278 107.376942 
L 342.782471 105.63892 
L 343.217665 104.466138 
L 343.652859 104.578331 
L 344.088053 103.698471 
L 344.523246 105.904207 
L 344.95844 104.066627 
L 345.393634 104.75565 
L 345.828828 105.159908 
L 347.134409 102.340557 
L 347.569603 104.687883 
L 348.004796 104.734915 
L 348.43999 103.697242 
L 348.875184 104.285237 
L 349.310378 105.710843 
L 349.745572 104.602102 
L 350.180765 102.022337 
L 350.615959 106.30505 
L 351.051153 105.151395 
L 351.486347 103.481559 
L 351.92154 104.882343 
L 352.356734 104.983554 
L 352.791928 102.696039 
L 353.227122 101.556839 
L 353.662315 99.468422 
L 354.097509 100.486853 
L 354.532703 99.715276 
L 354.967897 99.953254 
L 355.40309 100.607025 
L 355.838284 98.937596 
L 356.273478 98.253126 
L 356.708672 99.490747 
L 357.143865 99.18228 
L 357.579059 96.50418 
L 358.014253 95.915082 
L 358.449447 94.092434 
L 358.884641 97.08547 
L 359.319834 98.078115 
L 359.755028 97.102279 
L 360.190222 96.91566 
L 360.625416 97.068702 
L 361.060609 91.789747 
L 361.495803 95.318758 
L 361.930997 93.285208 
L 362.801384 94.313915 
L 363.236578 89.314183 
L 363.671772 88.675207 
L 364.106966 86.664011 
L 364.542159 86.583965 
L 364.977353 88.403146 
L 365.412547 85.894437 
L 365.847741 85.401304 
L 366.282934 84.105761 
L 366.718128 83.637238 
L 367.153322 82.165272 
L 367.588516 82.385346 
L 368.023709 85.954093 
L 368.458903 84.029619 
L 368.894097 82.811085 
L 369.329291 85.128572 
L 369.764485 83.847002 
L 370.199678 83.395872 
L 370.634872 81.545589 
L 371.50526 84.490428 
L 371.940453 84.167013 
L 372.375647 84.628717 
L 372.810841 84.482431 
L 373.246035 82.823364 
L 373.681228 84.741627 
L 374.116422 82.436959 
L 374.551616 81.621932 
L 374.98681 81.536542 
L 375.857197 78.66734 
L 376.292391 75.465745 
L 376.727585 77.649219 
L 377.162778 81.727425 
L 377.597972 77.133686 
L 378.033166 76.917889 
L 378.46836 80.00054 
L 379.338747 75.897604 
L 379.773941 75.842759 
L 380.209135 76.708917 
L 380.644329 76.673572 
L 381.079522 77.33686 
L 381.514716 69.53919 
L 381.94991 68.706757 
L 382.385104 68.939208 
L 382.820297 67.345566 
L 383.255491 66.822864 
L 383.690685 64.051164 
L 384.125879 67.573 
L 384.561072 68.946212 
L 384.996266 65.933353 
L 385.43146 67.918659 
L 385.866654 64.542518 
L 386.301847 62.823515 
L 386.737041 58.653231 
L 387.172235 59.775381 
L 387.607429 53.59649 
L 388.042622 56.099533 
L 388.91301 59.905587 
L 389.348204 58.104156 
L 389.783398 58.455562 
L 390.218591 59.211312 
L 390.653785 59.057443 
L 391.088979 61.253719 
L 391.524173 60.229921 
L 391.959366 58.624918 
L 392.39456 58.995119 
L 392.829754 57.350265 
L 393.264948 57.768175 
L 393.700141 55.756514 
L 394.135335 57.176592 
L 394.570529 61.008266 
L 395.005723 58.429758 
L 395.440916 54.520621 
L 395.87611 57.760265 
L 396.311304 55.878328 
L 396.746498 57.832974 
L 397.181691 56.067937 
L 397.616885 56.04284 
L 398.052079 53.568 
L 398.487273 70.018305 
L 398.487273 70.018305 
" clip-path="url(#p3ef276b35a)" style="fill: none; stroke: #1f77b4; stroke-width: 1.5; stroke-linecap: square"/>
   </g>
   <g id="line2d_15">
    <path d="M 73.832727 294.796239 
L 75.573502 294.650396 
L 76.008696 294.772456 
L 85.582959 294.504862 
L 86.453346 294.495591 
L 88.629315 294.425987 
L 90.805284 294.49725 
L 92.546059 294.494035 
L 98.638772 294.407382 
L 99.073965 294.201878 
L 101.685128 294.119536 
L 103.861097 294.132911 
L 106.472259 294.166958 
L 108.648228 294.167974 
L 110.389003 294.279897 
L 111.694584 294.289019 
L 114.305747 294.320614 
L 117.352103 294.424081 
L 118.222491 294.409053 
L 119.528072 294.228628 
L 121.268847 294.20151 
L 123.444816 294.139128 
L 128.667141 294.328421 
L 134.759854 293.854651 
L 135.630241 293.794708 
L 136.500629 293.728423 
L 137.371016 293.831551 
L 138.241404 293.845104 
L 139.111791 293.899312 
L 140.417373 293.935948 
L 141.28776 293.616437 
L 142.158148 293.657275 
L 142.593341 293.741637 
L 144.334117 293.634186 
L 144.76931 293.69189 
L 145.204504 293.551288 
L 147.380473 293.501184 
L 148.25086 293.322046 
L 148.686054 293.319928 
L 149.121248 293.434267 
L 155.213961 292.719096 
L 156.084348 292.599837 
L 156.519542 292.590876 
L 156.954736 292.440796 
L 157.825123 292.448626 
L 159.130704 292.014029 
L 160.871479 291.709121 
L 161.306673 291.840935 
L 163.047448 291.705017 
L 169.140161 290.586213 
L 169.575355 290.635346 
L 170.445742 290.354606 
L 171.31613 290.242971 
L 171.751323 289.986347 
L 173.056905 290.27843 
L 173.927292 290.076869 
L 174.362486 290.017621 
L 174.79768 289.768259 
L 175.232874 289.786933 
L 175.668067 289.602214 
L 176.973649 289.507829 
L 177.408842 289.244431 
L 178.714424 288.978088 
L 179.149617 288.980964 
L 179.584811 288.812239 
L 180.020005 288.795092 
L 181.76078 288.271901 
L 182.195974 288.204278 
L 183.066361 287.754107 
L 183.501555 287.905226 
L 184.807136 287.373533 
L 185.677524 286.93036 
L 186.112718 286.594545 
L 186.983105 286.361262 
L 187.418299 286.468449 
L 188.288686 286.304557 
L 189.594268 285.050473 
L 190.029461 284.749222 
L 190.464655 284.83204 
L 190.899849 284.670416 
L 192.20543 283.728771 
L 192.640624 283.569437 
L 193.511011 282.808727 
L 193.946205 282.704496 
L 194.381399 281.268833 
L 194.816593 281.402874 
L 195.251786 282.359273 
L 195.68698 282.255415 
L 196.557368 281.521542 
L 196.992562 282.184709 
L 197.427755 281.326032 
L 197.862949 281.273219 
L 198.298143 281.006319 
L 198.733337 280.382061 
L 199.16853 280.413783 
L 200.038918 279.457654 
L 200.474112 279.486489 
L 200.909305 279.272861 
L 201.344499 278.497306 
L 201.779693 278.759183 
L 202.214887 278.172169 
L 202.65008 278.348254 
L 203.085274 278.136342 
L 203.520468 278.222823 
L 203.955662 277.561407 
L 204.390855 277.5869 
L 204.826049 276.91212 
L 205.261243 277.029353 
L 206.131631 275.605136 
L 206.566824 275.323294 
L 207.002018 275.233662 
L 207.437212 274.90678 
L 207.872406 274.87438 
L 208.307599 274.999506 
L 208.742793 274.975775 
L 210.048374 274.508474 
L 210.483568 274.66062 
L 211.353956 274.267447 
L 211.789149 273.589595 
L 212.224343 272.0681 
L 212.659537 273.203821 
L 213.094731 273.577707 
L 213.529924 273.185199 
L 213.965118 273.412879 
L 214.400312 272.844866 
L 215.270699 272.110419 
L 215.705893 271.382315 
L 216.141087 270.925686 
L 216.576281 269.969086 
L 217.011475 267.137932 
L 217.446668 265.324532 
L 217.881862 268.010916 
L 218.317056 268.719335 
L 218.75225 268.738819 
L 219.187443 269.021964 
L 219.622637 269.001574 
L 220.057831 269.380517 
L 220.493025 268.598503 
L 220.928218 268.736012 
L 221.363412 267.275458 
L 221.798606 266.829138 
L 222.2338 267.082886 
L 223.104187 265.62642 
L 223.539381 266.020633 
L 223.974575 265.982625 
L 224.409768 265.513257 
L 224.844962 264.832007 
L 225.280156 264.477553 
L 225.71535 264.527794 
L 226.585737 262.416094 
L 227.020931 261.794981 
L 227.456125 261.461199 
L 227.891319 260.244571 
L 228.326512 259.823188 
L 229.632094 257.369927 
L 230.067287 257.78643 
L 230.937675 257.376787 
L 231.808062 256.590279 
L 232.243256 256.932201 
L 233.113644 256.498614 
L 233.984031 255.413737 
L 235.289612 254.859198 
L 235.724806 254.862831 
L 236.16 253.725405 
L 236.595194 253.610836 
L 237.030388 253.642007 
L 237.465581 253.059477 
L 238.771163 250.175246 
L 239.206356 249.631206 
L 239.64155 247.005856 
L 240.076744 243.301845 
L 240.511938 248.797626 
L 240.947131 249.995189 
L 241.382325 249.660816 
L 241.817519 249.071178 
L 242.252713 249.151419 
L 242.687906 249.455093 
L 243.558294 248.214493 
L 243.993488 247.994688 
L 244.863875 247.190574 
L 245.299069 245.883206 
L 245.734263 245.579929 
L 246.169456 245.505813 
L 247.039844 244.348961 
L 247.475038 242.973837 
L 247.910232 242.11683 
L 248.345425 242.656938 
L 249.215813 240.967808 
L 249.651007 239.413919 
L 250.0862 238.961951 
L 250.521394 238.740907 
L 251.391782 236.249029 
L 251.826975 234.308385 
L 252.262169 235.158239 
L 252.697363 234.998045 
L 253.132557 234.021554 
L 253.56775 233.362491 
L 254.002944 233.193754 
L 254.438138 233.313071 
L 254.873332 234.659802 
L 255.308525 233.969281 
L 255.743719 234.278304 
L 256.178913 233.545206 
L 256.614107 233.624896 
L 257.049301 232.800351 
L 257.919688 230.494167 
L 258.354882 230.725809 
L 259.225269 227.464019 
L 259.660463 228.236916 
L 260.095657 227.63624 
L 260.530851 226.214693 
L 260.966044 226.109148 
L 261.401238 225.155074 
L 261.836432 224.611855 
L 262.271626 220.822798 
L 262.706819 212.07998 
L 263.142013 218.373796 
L 263.577207 221.729696 
L 264.012401 222.084202 
L 264.882788 221.714765 
L 265.317982 221.817314 
L 265.753176 221.770339 
L 266.188369 220.725778 
L 266.623563 220.465078 
L 267.058757 220.790462 
L 267.929145 219.568398 
L 268.799532 217.374195 
L 269.234726 214.970904 
L 269.66992 215.779387 
L 270.105113 215.659657 
L 270.540307 211.301021 
L 270.975501 212.256949 
L 271.845888 209.348815 
L 272.281082 206.550686 
L 272.716276 206.449843 
L 273.15147 206.066646 
L 274.021857 201.192609 
L 274.457051 200.86924 
L 274.892245 200.149575 
L 275.327438 199.798117 
L 276.197826 197.016498 
L 276.63302 196.778055 
L 277.068214 196.695684 
L 277.503407 197.915228 
L 277.938601 198.055687 
L 278.373795 199.090334 
L 278.808989 199.812038 
L 279.679376 200.387203 
L 280.11457 197.920251 
L 280.549764 197.298065 
L 280.984957 197.836112 
L 281.420151 196.737796 
L 281.855345 194.716916 
L 282.290539 196.475868 
L 282.725732 197.173134 
L 283.160926 195.092048 
L 283.59612 194.836072 
L 284.031314 193.664083 
L 284.466507 187.735898 
L 284.901701 190.109687 
L 285.336895 180.305718 
L 286.207282 191.946905 
L 286.642476 190.436374 
L 287.07767 192.023409 
L 287.512864 191.434288 
L 287.948058 191.336424 
L 288.383251 189.799418 
L 288.818445 192.394005 
L 289.253639 193.112522 
L 289.688833 192.439809 
L 290.124026 190.96627 
L 290.55922 190.463917 
L 290.994414 189.313696 
L 291.429608 189.233587 
L 291.864801 191.269576 
L 292.299995 190.105858 
L 292.735189 188.451011 
L 293.170383 186.125258 
L 293.605576 185.904127 
L 294.04077 184.942356 
L 294.475964 185.059841 
L 294.911158 182.583997 
L 295.346351 182.526884 
L 295.781545 180.82291 
L 296.216739 180.551647 
L 296.651933 180.031665 
L 297.087126 178.403592 
L 297.957514 178.417048 
L 298.827902 177.758289 
L 299.263095 178.737495 
L 299.698289 177.077469 
L 300.133483 176.193717 
L 300.568677 179.358142 
L 301.00387 179.515427 
L 301.439064 179.365702 
L 301.874258 179.461265 
L 302.309452 179.381495 
L 302.744645 177.797043 
L 303.179839 178.174884 
L 303.615033 178.814779 
L 304.050227 178.108535 
L 304.48542 174.866768 
L 304.920614 175.755228 
L 305.355808 175.31218 
L 305.791002 171.866034 
L 306.226195 173.552098 
L 307.531777 169.055942 
L 307.966971 154.99887 
L 308.402164 160.390782 
L 308.837358 168.500271 
L 309.272552 169.988638 
L 310.142939 168.55084 
L 310.578133 167.140779 
L 311.013327 168.194973 
L 311.448521 167.895841 
L 311.883714 169.00527 
L 312.318908 166.500689 
L 312.754102 168.712894 
L 313.624489 166.415764 
L 314.059683 166.383502 
L 314.494877 167.069798 
L 314.930071 164.198839 
L 315.365264 163.713393 
L 315.800458 161.309683 
L 316.235652 163.51717 
L 316.670846 164.921134 
L 317.106039 162.224905 
L 317.976427 154.705719 
L 318.411621 156.349034 
L 318.846815 154.995305 
L 319.282008 154.255984 
L 319.717202 152.500046 
L 320.152396 153.230165 
L 320.58759 153.434275 
L 321.022783 153.250808 
L 321.457977 152.666975 
L 321.893171 151.735834 
L 322.328365 149.136982 
L 322.763558 152.420597 
L 323.198752 153.350205 
L 323.633946 153.52509 
L 324.06914 155.002636 
L 324.504333 155.822611 
L 325.374721 155.518174 
L 325.809915 156.087863 
L 326.245108 155.75919 
L 326.680302 156.504395 
L 327.55069 153.497627 
L 327.985883 155.390103 
L 328.421077 154.747183 
L 328.856271 153.146985 
L 329.291465 153.323758 
L 329.726659 152.553083 
L 330.161852 150.153518 
L 330.597046 136.887598 
L 331.03224 136.534425 
L 331.467434 149.519335 
L 331.902627 151.34002 
L 332.337821 151.712774 
L 332.773015 150.459625 
L 333.208209 148.76712 
L 334.078596 146.870603 
L 334.51379 146.816895 
L 334.948984 147.446113 
L 335.384177 146.995362 
L 335.819371 136.870118 
L 336.254565 132.451006 
L 336.689759 130.730154 
L 337.124952 132.013194 
L 338.430534 127.517227 
L 338.865728 127.832801 
L 339.300921 130.21395 
L 339.736115 128.031939 
L 340.171309 127.199174 
L 340.606503 129.147442 
L 341.041696 130.218571 
L 341.912084 126.850398 
L 342.347278 123.643728 
L 342.782471 123.401168 
L 343.217665 121.660793 
L 343.652859 123.164045 
L 344.088053 122.95738 
L 344.523246 124.145306 
L 344.95844 123.00703 
L 345.393634 123.016519 
L 345.828828 124.019485 
L 346.264021 125.793075 
L 346.699215 124.945579 
L 347.134409 126.980604 
L 348.004796 127.124232 
L 348.43999 127.909666 
L 348.875184 126.47851 
L 349.310378 126.680513 
L 349.745572 125.54877 
L 350.180765 123.500376 
L 350.615959 125.836381 
L 351.051153 126.306489 
L 351.486347 126.077977 
L 351.92154 128.703195 
L 352.356734 126.504164 
L 352.791928 122.565401 
L 353.227122 117.613867 
L 353.662315 110.542331 
L 354.097509 116.626291 
L 354.532703 121.122063 
L 354.967897 120.339045 
L 355.40309 121.315776 
L 355.838284 120.10575 
L 356.708672 119.069673 
L 357.143865 119.223421 
L 357.579059 120.984767 
L 358.014253 120.548964 
L 358.449447 120.328832 
L 358.884641 118.259106 
L 359.319834 121.650299 
L 360.190222 118.457028 
L 360.625416 120.864635 
L 361.060609 119.46609 
L 361.495803 115.826855 
L 361.930997 116.184403 
L 362.366191 114.020034 
L 362.801384 112.751793 
L 363.236578 114.742994 
L 363.671772 115.145577 
L 364.542159 107.182872 
L 364.977353 107.04731 
L 365.412547 106.653384 
L 365.847741 105.846899 
L 366.282934 102.918995 
L 366.718128 104.463681 
L 367.153322 103.002318 
L 367.588516 103.114258 
L 368.023709 104.43836 
L 368.458903 107.677716 
L 368.894097 108.42884 
L 369.329291 108.482772 
L 369.764485 110.10778 
L 370.199678 107.747429 
L 371.070066 109.008993 
L 371.50526 109.303224 
L 371.940453 109.06207 
L 372.375647 108.585969 
L 372.810841 111.145757 
L 373.246035 109.967981 
L 373.681228 110.531189 
L 374.116422 108.857576 
L 374.551616 110.017418 
L 375.422003 107.162861 
L 375.857197 101.473148 
L 376.292391 88.150254 
L 376.727585 95.832241 
L 377.162778 101.468073 
L 377.597972 101.833767 
L 378.033166 103.700761 
L 378.46836 101.933853 
L 378.903553 104.911746 
L 379.338747 103.85967 
L 379.773941 100.160321 
L 380.209135 102.186103 
L 380.644329 102.179163 
L 381.079522 104.662148 
L 381.514716 100.450004 
L 381.94991 93.321144 
L 382.385104 93.489846 
L 382.820297 104.716861 
L 383.255491 92.113282 
L 384.125879 88.378123 
L 384.561072 92.358477 
L 384.996266 92.166388 
L 385.43146 90.717154 
L 385.866654 87.383935 
L 386.301847 88.075851 
L 387.172235 79.869151 
L 387.607429 80.697961 
L 388.042622 80.456819 
L 388.477816 77.816251 
L 388.91301 77.71795 
L 389.348204 78.699056 
L 389.783398 77.346654 
L 390.218591 78.252673 
L 390.653785 78.362564 
L 391.088979 81.961145 
L 391.524173 82.858468 
L 392.39456 86.097967 
L 392.829754 83.87288 
L 393.264948 85.099003 
L 393.700141 85.240983 
L 394.135335 82.165897 
L 394.570529 85.61938 
L 395.005723 86.578535 
L 395.440916 83.238662 
L 395.87611 82.335243 
L 396.311304 84.806167 
L 396.746498 81.007122 
L 397.181691 84.70615 
L 397.616885 85.032579 
L 398.052079 80.320063 
L 398.487273 73.357454 
L 398.487273 73.357454 
" clip-path="url(#p3ef276b35a)" style="fill: none; stroke: #ff7f0e; stroke-width: 1.5; stroke-linecap: square"/>
   </g>
   <g id="line2d_16">
    <path d="M 73.832727 295.293465 
L 80.360634 295.261451 
L 80.795827 295.333706 
L 81.666215 295.214826 
L 82.101409 295.305917 
L 82.536602 295.199505 
L 82.971796 295.305297 
L 83.40699 295.248064 
L 83.842184 295.304539 
L 84.712571 295.203402 
L 86.453346 295.265922 
L 89.064509 295.262633 
L 90.37009 295.310853 
L 91.240478 295.267421 
L 95.157222 295.351232 
L 96.027609 295.275986 
L 98.203578 295.259642 
L 98.638772 295.001153 
L 99.073965 295.207277 
L 102.990709 295.263758 
L 103.425903 295.353873 
L 104.731484 295.215526 
L 106.037066 295.252111 
L 109.083422 295.262828 
L 109.518616 295.404447 
L 110.824197 295.310411 
L 111.694584 295.227564 
L 112.564972 295.364504 
L 113.000166 295.383425 
L 113.435359 295.278465 
L 114.305747 295.406846 
L 115.176135 295.425658 
L 116.481716 295.430113 
L 119.963266 295.349619 
L 121.268847 295.284246 
L 122.139235 295.312765 
L 122.574428 295.383075 
L 123.444816 295.346714 
L 124.315204 295.347455 
L 125.185591 295.358029 
L 125.620785 295.460158 
L 129.102335 295.359045 
L 133.454272 295.349516 
L 133.889466 295.478316 
L 134.32466 295.330784 
L 134.759854 295.425078 
L 135.195048 295.308282 
L 136.500629 295.390228 
L 136.935823 295.336094 
L 137.371016 295.458769 
L 138.241404 295.424097 
L 138.676598 295.328603 
L 139.546985 295.488 
L 140.852566 295.337329 
L 141.28776 295.438379 
L 142.158148 295.289223 
L 142.593341 295.264017 
L 143.028535 295.404206 
L 143.463729 295.405624 
L 143.898923 295.277512 
L 145.204504 295.449705 
L 145.639698 295.295268 
L 146.945279 295.273465 
L 147.380473 295.120016 
L 148.686054 295.39757 
L 149.556442 295.118845 
L 149.991635 295.211393 
L 150.426829 295.085699 
L 151.73241 295.113317 
L 152.167604 295.13939 
L 152.602798 295.309016 
L 153.473185 295.221519 
L 153.908379 294.874752 
L 154.343573 295.099809 
L 154.778767 294.99474 
L 156.084348 295.196198 
L 156.519542 295.042174 
L 156.954736 295.093087 
L 157.825123 294.848196 
L 158.260317 294.905705 
L 158.695511 294.803782 
L 159.130704 294.816612 
L 159.565898 294.970774 
L 160.436286 294.802249 
L 160.871479 295.065997 
L 163.917836 294.809569 
L 164.788223 294.763323 
L 165.223417 294.785803 
L 165.658611 294.554207 
L 166.093805 294.495407 
L 166.964192 294.690407 
L 167.83458 294.642967 
L 168.269773 294.92516 
L 170.010548 294.579282 
L 171.31613 294.618111 
L 171.751323 294.91175 
L 173.056905 294.419512 
L 173.927292 294.507658 
L 174.362486 294.443134 
L 174.79768 294.684333 
L 175.232874 294.449018 
L 176.103261 294.74729 
L 177.408842 294.335333 
L 178.714424 294.442279 
L 179.149617 294.212899 
L 179.584811 294.36089 
L 180.455199 294.034369 
L 180.890392 294.196935 
L 181.325586 294.081631 
L 181.76078 294.158135 
L 182.631167 294.105919 
L 183.501555 294.097871 
L 183.936749 293.981086 
L 184.371942 294.10922 
L 185.677524 293.924794 
L 186.112718 294.139541 
L 186.983105 293.974249 
L 187.418299 293.67003 
L 187.853493 293.531265 
L 188.288686 293.194451 
L 189.159074 293.146765 
L 189.594268 292.868103 
L 190.029461 293.421081 
L 190.464655 293.38181 
L 190.899849 293.064566 
L 191.335043 293.006926 
L 191.770236 292.57552 
L 192.20543 292.803562 
L 192.640624 292.20396 
L 193.511011 292.727925 
L 193.946205 292.617082 
L 194.381399 293.762659 
L 194.816593 293.681264 
L 195.251786 292.407949 
L 195.68698 292.26811 
L 196.122174 292.317886 
L 196.557368 292.557805 
L 196.992562 291.569105 
L 197.427755 292.398414 
L 197.862949 292.40346 
L 198.298143 291.93291 
L 198.733337 292.547449 
L 199.16853 291.704954 
L 199.603724 291.831079 
L 200.038918 292.300601 
L 200.474112 292.332869 
L 200.909305 292.246313 
L 201.344499 292.559464 
L 201.779693 292.036411 
L 202.214887 292.346325 
L 202.65008 291.689035 
L 203.085274 292.195975 
L 203.520468 291.897118 
L 203.955662 292.321221 
L 204.390855 292.110642 
L 204.826049 292.47606 
L 205.696437 291.401303 
L 206.131631 292.271503 
L 206.566824 292.130251 
L 207.002018 291.668835 
L 207.437212 291.953891 
L 207.872406 292.407421 
L 208.307599 291.939867 
L 208.742793 291.670218 
L 209.177987 291.538307 
L 209.613181 290.962975 
L 210.048374 291.241275 
L 210.483568 291.06298 
L 210.918762 290.56855 
L 211.353956 290.704336 
L 211.789149 287.655714 
L 212.224343 291.629036 
L 212.659537 291.953909 
L 213.094731 290.870306 
L 213.529924 290.866207 
L 214.400312 290.209199 
L 214.835506 290.256668 
L 215.270699 289.949705 
L 215.705893 290.088327 
L 216.576281 289.44369 
L 217.011475 291.519805 
L 217.446668 292.308127 
L 217.881862 288.944948 
L 218.317056 289.317399 
L 219.187443 288.879282 
L 219.622637 289.074282 
L 220.057831 289.021377 
L 220.493025 289.678999 
L 220.928218 287.157782 
L 221.363412 288.970918 
L 221.798606 288.962451 
L 222.2338 288.22565 
L 222.668993 288.60829 
L 223.104187 289.194838 
L 223.539381 288.825121 
L 223.974575 288.912962 
L 224.409768 287.58045 
L 224.844962 288.196075 
L 225.280156 287.757792 
L 225.71535 287.078287 
L 226.150544 288.648502 
L 226.585737 287.455341 
L 227.020931 288.601057 
L 227.456125 287.43657 
L 227.891319 287.935748 
L 228.326512 287.279854 
L 228.761706 288.874713 
L 229.1969 288.529329 
L 229.632094 287.462724 
L 230.502481 288.427992 
L 230.937675 288.091483 
L 231.372869 286.824878 
L 231.808062 287.633016 
L 232.243256 285.769134 
L 232.67845 286.353277 
L 233.113644 285.40805 
L 233.984031 284.545623 
L 234.854419 284.709033 
L 235.289612 284.773688 
L 235.724806 283.569345 
L 236.16 284.852884 
L 236.595194 284.51703 
L 237.030388 283.295821 
L 237.465581 283.576314 
L 237.900775 283.301447 
L 238.335969 283.422853 
L 239.206356 284.825531 
L 239.64155 286.870463 
L 240.076744 288.101919 
L 240.511938 283.313128 
L 240.947131 282.858893 
L 241.382325 282.914668 
L 241.817519 283.428955 
L 242.252713 283.34058 
L 242.687906 283.086028 
L 243.558294 284.028305 
L 243.993488 282.856964 
L 244.428681 283.137377 
L 244.863875 282.361489 
L 245.299069 283.66539 
L 245.734263 283.78125 
L 246.169456 282.60836 
L 247.039844 281.483632 
L 247.475038 280.780459 
L 247.910232 283.056734 
L 248.345425 281.921754 
L 248.780619 281.563878 
L 249.215813 282.65499 
L 249.651007 281.583729 
L 250.0862 282.42084 
L 250.521394 282.319996 
L 250.956588 281.816484 
L 251.391782 282.962802 
L 251.826975 283.538088 
L 252.262169 283.016987 
L 252.697363 282.097253 
L 253.132557 282.500053 
L 253.56775 283.463897 
L 254.002944 282.89317 
L 254.873332 280.64229 
L 255.308525 280.785688 
L 255.743719 278.661244 
L 256.614107 278.626485 
L 257.049301 277.328066 
L 257.484494 278.806685 
L 257.919688 278.588425 
L 258.354882 277.251585 
L 258.790076 276.543556 
L 259.225269 278.239574 
L 259.660463 276.74592 
L 260.530851 276.480364 
L 261.401238 277.08627 
L 261.836432 275.115878 
L 262.271626 278.023025 
L 262.706819 282.598388 
L 263.577207 275.166951 
L 264.012401 275.458615 
L 264.447594 274.851585 
L 264.882788 275.676434 
L 265.317982 276.19905 
L 265.753176 276.000354 
L 266.188369 275.964659 
L 266.623563 276.550238 
L 267.058757 275.586807 
L 267.493951 275.48016 
L 267.929145 274.931028 
L 268.364338 276.00982 
L 268.799532 276.17378 
L 269.234726 275.805808 
L 269.66992 275.866938 
L 270.105113 272.270419 
L 270.540307 276.916724 
L 270.975501 273.940783 
L 271.410695 273.994129 
L 271.845888 274.854202 
L 272.281082 277.135254 
L 272.716276 276.212902 
L 273.15147 274.72209 
L 273.586663 274.165662 
L 274.021857 277.286637 
L 274.457051 276.706937 
L 274.892245 276.71685 
L 275.327438 275.743316 
L 275.762632 276.75088 
L 276.197826 277.365064 
L 276.63302 277.625413 
L 277.068214 278.02663 
L 277.503407 275.712226 
L 277.938601 274.037315 
L 278.373795 274.377326 
L 278.808989 273.682155 
L 279.244182 274.674432 
L 279.679376 272.991405 
L 280.11457 273.374624 
L 280.549764 274.263813 
L 280.984957 272.826181 
L 281.420151 273.399785 
L 281.855345 274.897423 
L 282.290539 272.755814 
L 282.725732 271.599657 
L 283.160926 273.088804 
L 283.59612 273.230951 
L 284.031314 289.639608 
L 284.466507 278.396824 
L 284.901701 275.198874 
L 285.336895 280.838949 
L 285.772089 279.387597 
L 286.207282 272.743753 
L 286.642476 274.006936 
L 287.07767 272.417169 
L 287.512864 272.489316 
L 287.948058 272.332411 
L 288.383251 275.284701 
L 288.818445 273.587351 
L 289.253639 272.650716 
L 289.688833 272.10787 
L 290.124026 273.668694 
L 290.55922 273.844015 
L 290.994414 274.631378 
L 291.429608 274.379226 
L 291.864801 269.612416 
L 292.299995 271.853996 
L 292.735189 270.616679 
L 293.170383 274.161948 
L 293.605576 271.955494 
L 294.04077 271.4015 
L 294.911158 272.794752 
L 295.346351 271.617619 
L 296.216739 274.33945 
L 296.651933 275.391698 
L 297.087126 276.111071 
L 297.957514 274.280265 
L 298.827902 276.4694 
L 299.263095 275.665383 
L 299.698289 275.257806 
L 300.133483 275.371434 
L 300.568677 270.708189 
L 301.00387 270.181617 
L 301.439064 270.121434 
L 301.874258 270.182719 
L 302.309452 270.064786 
L 302.744645 270.628505 
L 303.179839 269.212526 
L 303.615033 269.773811 
L 304.050227 266.674977 
L 304.48542 270.014614 
L 304.920614 268.662148 
L 305.355808 266.329972 
L 305.791002 268.943434 
L 306.226195 266.756877 
L 306.661389 268.197718 
L 307.096583 268.243711 
L 307.531777 269.64954 
L 307.966971 282.338682 
L 308.837358 269.396521 
L 309.272552 268.91953 
L 309.707746 268.633773 
L 310.142939 267.948803 
L 310.578133 270.540158 
L 311.013327 269.269971 
L 311.448521 270.083305 
L 311.883714 267.155894 
L 312.318908 269.02616 
L 313.189296 267.50753 
L 313.624489 268.670415 
L 314.059683 268.139882 
L 314.494877 267.401319 
L 314.930071 270.10637 
L 315.365264 266.694535 
L 315.800458 268.984719 
L 316.235652 267.084815 
L 316.670846 266.623513 
L 317.106039 266.730677 
L 317.976427 270.284568 
L 318.411621 268.132012 
L 318.846815 269.660654 
L 319.282008 270.033799 
L 319.717202 269.796767 
L 320.152396 270.710158 
L 320.58759 268.756184 
L 321.022783 270.563476 
L 321.457977 269.983254 
L 321.893171 270.209769 
L 322.328365 272.749861 
L 323.198752 267.098598 
L 323.633946 267.096124 
L 324.06914 267.260871 
L 324.504333 265.884422 
L 324.939527 266.695028 
L 325.374721 267.13784 
L 325.809915 264.463454 
L 326.245108 266.052642 
L 326.680302 265.646156 
L 327.55069 267.392765 
L 327.985883 263.614972 
L 328.856271 265.845667 
L 329.291465 265.804973 
L 329.726659 265.479302 
L 330.161852 267.399281 
L 330.597046 279.277505 
L 331.03224 279.024125 
L 331.467434 266.896721 
L 331.902627 265.330996 
L 332.337821 265.0156 
L 332.773015 265.37041 
L 333.208209 265.987837 
L 333.643402 267.537851 
L 334.078596 266.918415 
L 334.51379 267.59494 
L 334.948984 266.696573 
L 335.384177 266.151981 
L 335.819371 276.520467 
L 336.254565 281.623333 
L 336.689759 283.032475 
L 337.560146 280.573048 
L 338.430534 281.835388 
L 338.865728 281.823746 
L 339.300921 278.799062 
L 339.736115 278.839234 
L 340.171309 280.364851 
L 340.606503 275.343059 
L 341.041696 276.73165 
L 341.47689 276.280784 
L 341.912084 275.28008 
L 342.347278 279.301007 
L 342.782471 277.805545 
L 343.217665 278.373139 
L 343.652859 276.98208 
L 344.088053 276.308883 
L 344.523246 277.326694 
L 344.95844 276.62739 
L 345.393634 277.306924 
L 345.828828 276.708217 
L 346.264021 274.056242 
L 346.699215 274.153635 
L 347.134409 270.927746 
L 347.569603 273.161875 
L 348.004796 273.178477 
L 348.43999 271.355369 
L 348.875184 273.374521 
L 349.310378 274.598123 
L 349.745572 274.621126 
L 350.180765 274.089755 
L 350.615959 276.036462 
L 351.486347 272.971376 
L 351.92154 271.746941 
L 352.356734 274.047183 
L 352.791928 275.698431 
L 353.227122 279.510765 
L 353.662315 284.493884 
L 354.532703 274.161006 
L 354.967897 275.182003 
L 356.273478 274.308773 
L 356.708672 275.988867 
L 357.143865 275.526652 
L 357.579059 271.087207 
L 358.014253 270.933912 
L 358.449447 269.331395 
L 358.884641 274.394157 
L 359.319834 271.995609 
L 359.755028 272.81877 
L 360.190222 274.026425 
L 360.625416 271.771861 
L 361.060609 267.89145 
L 361.495803 275.059695 
L 361.930997 272.668598 
L 362.366191 275.324391 
L 362.801384 277.129915 
L 363.236578 270.138982 
L 363.671772 269.097423 
L 364.106966 271.008269 
L 364.542159 274.968886 
L 364.977353 276.92363 
L 365.412547 274.808846 
L 365.847741 275.122198 
L 366.282934 276.75456 
L 366.718128 274.741349 
L 367.153322 274.730747 
L 367.588516 274.838881 
L 368.023709 277.083526 
L 368.458903 271.919696 
L 368.894097 269.950039 
L 369.329291 272.213593 
L 369.764485 269.307015 
L 370.199678 271.216236 
L 370.634872 268.757498 
L 371.50526 270.754997 
L 371.940453 270.672736 
L 372.375647 271.610541 
L 372.810841 268.904467 
L 373.246035 268.423176 
L 373.681228 269.778231 
L 374.116422 269.147176 
L 374.551616 267.172306 
L 374.98681 268.612522 
L 375.422003 268.59363 
L 375.857197 272.761985 
L 376.292391 282.883284 
L 376.727585 277.384771 
L 377.162778 275.827145 
L 377.597972 270.867712 
L 378.033166 268.784921 
L 378.46836 273.63448 
L 378.903553 268.598618 
L 379.338747 267.605727 
L 379.773941 271.250231 
L 380.209135 270.090607 
L 380.644329 270.062203 
L 381.079522 268.242505 
L 381.514716 264.656979 
L 381.94991 270.953407 
L 382.385104 271.017155 
L 382.820297 258.196498 
L 383.255491 270.277375 
L 383.690685 269.166458 
L 384.125879 274.76267 
L 384.996266 269.334759 
L 385.43146 272.769298 
L 385.866654 272.726376 
L 386.301847 270.315457 
L 386.737041 270.448017 
L 387.172235 275.474023 
L 387.607429 268.466322 
L 388.042622 271.210507 
L 388.477816 275.679264 
L 388.91301 277.75543 
L 389.348204 274.972893 
L 389.783398 276.676701 
L 390.653785 276.262672 
L 391.088979 274.860367 
L 391.524173 272.939246 
L 391.959366 269.833983 
L 392.39456 268.464944 
L 392.829754 269.045179 
L 393.264948 268.236966 
L 393.700141 266.083325 
L 394.135335 270.578488 
L 394.570529 270.956679 
L 395.005723 267.419017 
L 395.440916 266.849753 
L 395.87611 270.992815 
L 396.311304 266.639954 
L 396.746498 272.393645 
L 397.181691 266.92958 
L 397.616885 266.578054 
L 398.052079 268.81573 
L 398.487273 292.228644 
L 398.487273 292.228644 
" clip-path="url(#p3ef276b35a)" style="fill: none; stroke: #2ca02c; stroke-width: 1.5; stroke-linecap: square"/>
   </g>
   <g id="patch_3">
    <path d="M 57.6 307.584 
L 57.6 41.472 
" style="fill: none; stroke: #000000; stroke-width: 0.8; stroke-linejoin: miter; stroke-linecap: square"/>
   </g>
   <g id="patch_4">
    <path d="M 414.72 307.584 
L 414.72 41.472 
" style="fill: none; stroke: #000000; stroke-width: 0.8; stroke-linejoin: miter; stroke-linecap: square"/>
   </g>
   <g id="patch_5">
    <path d="M 57.6 307.584 
L 414.72 307.584 
" style="fill: none; stroke: #000000; stroke-width: 0.8; stroke-linejoin: miter; stroke-linecap: square"/>
   </g>
   <g id="patch_6">
    <path d="M 57.6 41.472 
L 414.72 41.472 
" style="fill: none; stroke: #000000; stroke-width: 0.8; stroke-linejoin: miter; stroke-linecap: square"/>
   </g>
   <g id="legend_1">
    <g id="patch_7">
     <path d="M 64.6 93.506375 
L 186.25625 93.506375 
Q 188.25625 93.506375 188.25625 91.506375 
L 188.25625 48.472 
Q 188.25625 46.472 186.25625 46.472 
L 64.6 46.472 
Q 62.6 46.472 62.6 48.472 
L 62.6 91.506375 
Q 62.6 93.506375 64.6 93.506375 
z
" style="fill: #ffffff; opacity: 0.8; stroke: #cccccc; stroke-linejoin: miter"/>
    </g>
    <g id="line2d_17">
     <path d="M 66.6 54.570438 
L 76.6 54.570438 
L 86.6 54.570438 
" style="fill: none; stroke: #1f77b4; stroke-width: 1.5; stroke-linecap: square"/>
    </g>
    <g id="text_16">
     <!-- Weekly maximum -->
     <g transform="translate(94.6 58.070438) scale(0.1 -0.1)">
      <defs>
       <path id="DejaVuSans-57" d="M 213 4666 
L 850 4666 
L 1831 722 
L 2809 4666 
L 3519 4666 
L 4500 722 
L 5478 4666 
L 6119 4666 
L 4947 0 
L 4153 0 
L 3169 4050 
L 2175 0 
L 1381 0 
L 213 4666 
z
" transform="scale(0.015625)"/>
       <path id="DejaVuSans-6b" d="M 581 4863 
L 1159 4863 
L 1159 1991 
L 2875 3500 
L 3609 3500 
L 1753 1863 
L 3688 0 
L 2938 0 
L 1159 1709 
L 1159 0 
L 581 0 
L 581 4863 
z
" transform="scale(0.015625)"/>
       <path id="DejaVuSans-79" d="M 2059 -325 
Q 1816 -950 1584 -1140 
Q 1353 -1331 966 -1331 
L 506 -1331 
L 506 -850 
L 844 -850 
Q 1081 -850 1212 -737 
Q 1344 -625 1503 -206 
L 1606 56 
L 191 3500 
L 800 3500 
L 1894 763 
L 2988 3500 
L 3597 3500 
L 2059 -325 
z
" transform="scale(0.015625)"/>
       <path id="DejaVuSans-6d" d="M 3328 2828 
Q 3544 3216 3844 3400 
Q 4144 3584 4550 3584 
Q 5097 3584 5394 3201 
Q 5691 2819 5691 2113 
L 5691 0 
L 5113 0 
L 5113 2094 
Q 5113 2597 4934 2840 
Q 4756 3084 4391 3084 
Q 3944 3084 3684 2787 
Q 3425 2491 3425 1978 
L 3425 0 
L 2847 0 
L 2847 2094 
Q 2847 2600 2669 2842 
Q 2491 3084 2119 3084 
Q 1678 3084 1418 2786 
Q 1159 2488 1159 1978 
L 1159 0 
L 581 0 
L 581 3500 
L 1159 3500 
L 1159 2956 
Q 1356 3278 1631 3431 
Q 1906 3584 2284 3584 
Q 2666 3584 2933 3390 
Q 3200 3197 3328 2828 
z
" transform="scale(0.015625)"/>
       <path id="DejaVuSans-78" d="M 3513 3500 
L 2247 1797 
L 3578 0 
L 2900 0 
L 1881 1375 
L 863 0 
L 184 0 
L 1544 1831 
L 300 3500 
L 978 3500 
L 1906 2253 
L 2834 3500 
L 3513 3500 
z
" transform="scale(0.015625)"/>
       <path id="DejaVuSans-75" d="M 544 1381 
L 544 3500 
L 1119 3500 
L 1119 1403 
Q 1119 906 1312 657 
Q 1506 409 1894 409 
Q 2359 409 2629 706 
Q 2900 1003 2900 1516 
L 2900 3500 
L 3475 3500 
L 3475 0 
L 2900 0 
L 2900 538 
Q 2691 219 2414 64 
Q 2138 -91 1772 -91 
Q 1169 -91 856 284 
Q 544 659 544 1381 
z
M 1991 3584 
L 1991 3584 
z
" transform="scale(0.015625)"/>
      </defs>
      <use xlink:href="#DejaVuSans-57"/>
      <use xlink:href="#DejaVuSans-65" x="93.001953"/>
      <use xlink:href="#DejaVuSans-65" x="154.525391"/>
      <use xlink:href="#DejaVuSans-6b" x="216.048828"/>
      <use xlink:href="#DejaVuSans-6c" x="273.958984"/>
      <use xlink:href="#DejaVuSans-79" x="301.742188"/>
      <use xlink:href="#DejaVuSans-20" x="360.921875"/>
      <use xlink:href="#DejaVuSans-6d" x="392.708984"/>
      <use xlink:href="#DejaVuSans-61" x="490.121094"/>
      <use xlink:href="#DejaVuSans-78" x="551.400391"/>
      <use xlink:href="#DejaVuSans-69" x="610.580078"/>
      <use xlink:href="#DejaVuSans-6d" x="638.363281"/>
      <use xlink:href="#DejaVuSans-75" x="735.775391"/>
      <use xlink:href="#DejaVuSans-6d" x="799.154297"/>
     </g>
    </g>
    <g id="line2d_18">
     <path d="M 66.6 69.248563 
L 76.6 69.248563 
L 86.6 69.248563 
" style="fill: none; stroke: #ff7f0e; stroke-width: 1.5; stroke-linecap: square"/>
    </g>
    <g id="text_17">
     <!-- Weekly minimum -->
     <g transform="translate(94.6 72.748563) scale(0.1 -0.1)">
      <defs>
       <path id="DejaVuSans-6e" d="M 3513 2113 
L 3513 0 
L 2938 0 
L 2938 2094 
Q 2938 2591 2744 2837 
Q 2550 3084 2163 3084 
Q 1697 3084 1428 2787 
Q 1159 2491 1159 1978 
L 1159 0 
L 581 0 
L 581 3500 
L 1159 3500 
L 1159 2956 
Q 1366 3272 1645 3428 
Q 1925 3584 2291 3584 
Q 2894 3584 3203 3211 
Q 3513 2838 3513 2113 
z
" transform="scale(0.015625)"/>
      </defs>
      <use xlink:href="#DejaVuSans-57"/>
      <use xlink:href="#DejaVuSans-65" x="93.001953"/>
      <use xlink:href="#DejaVuSans-65" x="154.525391"/>
      <use xlink:href="#DejaVuSans-6b" x="216.048828"/>
      <use xlink:href="#DejaVuSans-6c" x="273.958984"/>
      <use xlink:href="#DejaVuSans-79" x="301.742188"/>
      <use xlink:href="#DejaVuSans-20" x="360.921875"/>
      <use xlink:href="#DejaVuSans-6d" x="392.708984"/>
      <use xlink:href="#DejaVuSans-69" x="490.121094"/>
      <use xlink:href="#DejaVuSans-6e" x="517.904297"/>
      <use xlink:href="#DejaVuSans-69" x="581.283203"/>
      <use xlink:href="#DejaVuSans-6d" x="609.066406"/>
      <use xlink:href="#DejaVuSans-75" x="706.478516"/>
      <use xlink:href="#DejaVuSans-6d" x="769.857422"/>
     </g>
    </g>
    <g id="line2d_19">
     <path d="M 66.6 83.926688 
L 76.6 83.926688 
L 86.6 83.926688 
" style="fill: none; stroke: #2ca02c; stroke-width: 1.5; stroke-linecap: square"/>
    </g>
    <g id="text_18">
     <!-- Weekly range -->
     <g transform="translate(94.6 87.426688) scale(0.1 -0.1)">
      <use xlink:href="#DejaVuSans-57"/>
      <use xlink:href="#DejaVuSans-65" x="93.001953"/>
      <use xlink:href="#DejaVuSans-65" x="154.525391"/>
      <use xlink:href="#DejaVuSans-6b" x="216.048828"/>
      <use xlink:href="#DejaVuSans-6c" x="273.958984"/>
      <use xlink:href="#DejaVuSans-79" x="301.742188"/>
      <use xlink:href="#DejaVuSans-20" x="360.921875"/>
      <use xlink:href="#DejaVuSans-72" x="392.708984"/>
      <use xlink:href="#DejaVuSans-61" x="433.822266"/>
      <use xlink:href="#DejaVuSans-6e" x="495.101562"/>
      <use xlink:href="#DejaVuSans-67" x="558.480469"/>
      <use xlink:href="#DejaVuSans-65" x="621.957031"/>
     </g>
    </g>
   </g>
  </g>
 </g>
 <defs>
  <clipPath id="p3ef276b35a">
   <rect x="57.6" y="41.472" width="357.12" height="266.112"/>
  </clipPath>
 </defs>
</svg>
