<?xml version="1.0" encoding="utf-8" standalone="no"?>
<!DOCTYPE svg PUBLIC "-//W3C//DTD SVG 1.1//EN"
  "http://www.w3.org/Graphics/SVG/1.1/DTD/svg11.dtd">
<svg xmlns:xlink="http://www.w3.org/1999/xlink" width="460.8pt" height="345.6pt" viewBox="0 0 460.8 345.6" xmlns="http://www.w3.org/2000/svg" version="1.1">
 <metadata>
  <rdf:RDF xmlns:dc="http://purl.org/dc/elements/1.1/" xmlns:cc="http://creativecommons.org/ns#" xmlns:rdf="http://www.w3.org/1999/02/22-rdf-syntax-ns#">
   <cc:Work>
    <dc:type rdf:resource="http://purl.org/dc/dcmitype/StillImage"/>
    <dc:date>2024-09-27T05:37:20.632836</dc:date>
    <dc:format>image/svg+xml</dc:format>
    <dc:creator>
     <cc:Agent>
      <dc:title>Matplotlib v3.9.2, https://matplotlib.org/</dc:title>
     </cc:Agent>
    </dc:creator>
   </cc:Work>
  </rdf:RDF>
 </metadata>
 <defs>
  <style type="text/css">*{stroke-linejoin: round; stroke-linecap: butt}</style>
 </defs>
 <g id="figure_1">
  <g id="patch_1">
   <path d="M 0 345.6 
L 460.8 345.6 
L 460.8 0 
L 0 0 
z
" style="fill: #ffffff"/>
  </g>
  <g id="axes_1">
   <g id="patch_2">
    <path d="M 57.6 307.584 
L 414.72 307.584 
L 414.72 41.472 
L 57.6 41.472 
z
" style="fill: #ffffff"/>
   </g>
   <g id="matplotlib.axis_1">
    <g id="xtick_1">
     <g id="line2d_1">
      <defs>
       <path id="m6f2b31626a" d="M 0 0 
L 0 3.5 
" style="stroke: #000000; stroke-width: 0.8"/>
      </defs>
      <g>
       <use xlink:href="#m6f2b31626a" x="60.328515" y="307.584" style="stroke: #000000; stroke-width: 0.8"/>
      </g>
     </g>
     <g id="text_1">
      <!-- 2008 -->
      <g transform="translate(47.603515 322.182437) scale(0.1 -0.1)">
       <defs>
        <path id="DejaVuSans-32" d="M 1228 531 
L 3431 531 
L 3431 0 
L 469 0 
L 469 531 
Q 828 903 1448 1529 
Q 2069 2156 2228 2338 
Q 2531 2678 2651 2914 
Q 2772 3150 2772 3378 
Q 2772 3750 2511 3984 
Q 2250 4219 1831 4219 
Q 1534 4219 1204 4116 
Q 875 4013 500 3803 
L 500 4441 
Q 881 4594 1212 4672 
Q 1544 4750 1819 4750 
Q 2544 4750 2975 4387 
Q 3406 4025 3406 3419 
Q 3406 3131 3298 2873 
Q 3191 2616 2906 2266 
Q 2828 2175 2409 1742 
Q 1991 1309 1228 531 
z
" transform="scale(0.015625)"/>
        <path id="DejaVuSans-30" d="M 2034 4250 
Q 1547 4250 1301 3770 
Q 1056 3291 1056 2328 
Q 1056 1369 1301 889 
Q 1547 409 2034 409 
Q 2525 409 2770 889 
Q 3016 1369 3016 2328 
Q 3016 3291 2770 3770 
Q 2525 4250 2034 4250 
z
M 2034 4750 
Q 2819 4750 3233 4129 
Q 3647 3509 3647 2328 
Q 3647 1150 3233 529 
Q 2819 -91 2034 -91 
Q 1250 -91 836 529 
Q 422 1150 422 2328 
Q 422 3509 836 4129 
Q 1250 4750 2034 4750 
z
" transform="scale(0.015625)"/>
        <path id="DejaVuSans-38" d="M 2034 2216 
Q 1584 2216 1326 1975 
Q 1069 1734 1069 1313 
Q 1069 891 1326 650 
Q 1584 409 2034 409 
Q 2484 409 2743 651 
Q 3003 894 3003 1313 
Q 3003 1734 2745 1975 
Q 2488 2216 2034 2216 
z
M 1403 2484 
Q 997 2584 770 2862 
Q 544 3141 544 3541 
Q 544 4100 942 4425 
Q 1341 4750 2034 4750 
Q 2731 4750 3128 4425 
Q 3525 4100 3525 3541 
Q 3525 3141 3298 2862 
Q 3072 2584 2669 2484 
Q 3125 2378 3379 2068 
Q 3634 1759 3634 1313 
Q 3634 634 3220 271 
Q 2806 -91 2034 -91 
Q 1263 -91 848 271 
Q 434 634 434 1313 
Q 434 1759 690 2068 
Q 947 2378 1403 2484 
z
M 1172 3481 
Q 1172 3119 1398 2916 
Q 1625 2713 2034 2713 
Q 2441 2713 2670 2916 
Q 2900 3119 2900 3481 
Q 2900 3844 2670 4047 
Q 2441 4250 2034 4250 
Q 1625 4250 1398 4047 
Q 1172 3844 1172 3481 
z
" transform="scale(0.015625)"/>
       </defs>
       <use xlink:href="#DejaVuSans-32"/>
       <use xlink:href="#DejaVuSans-30" x="63.623047"/>
       <use xlink:href="#DejaVuSans-30" x="127.246094"/>
       <use xlink:href="#DejaVuSans-38" x="190.869141"/>
      </g>
     </g>
    </g>
    <g id="xtick_2">
     <g id="line2d_2">
      <g>
       <use xlink:href="#m6f2b31626a" x="100.785807" y="307.584" style="stroke: #000000; stroke-width: 0.8"/>
      </g>
     </g>
     <g id="text_2">
      <!-- 2010 -->
      <g transform="translate(88.060807 322.182437) scale(0.1 -0.1)">
       <defs>
        <path id="DejaVuSans-31" d="M 794 531 
L 1825 531 
L 1825 4091 
L 703 3866 
L 703 4441 
L 1819 4666 
L 2450 4666 
L 2450 531 
L 3481 531 
L 3481 0 
L 794 0 
L 794 531 
z
" transform="scale(0.015625)"/>
       </defs>
       <use xlink:href="#DejaVuSans-32"/>
       <use xlink:href="#DejaVuSans-30" x="63.623047"/>
       <use xlink:href="#DejaVuSans-31" x="127.246094"/>
       <use xlink:href="#DejaVuSans-30" x="190.869141"/>
      </g>
     </g>
    </g>
    <g id="xtick_3">
     <g id="line2d_3">
      <g>
       <use xlink:href="#m6f2b31626a" x="141.187753" y="307.584" style="stroke: #000000; stroke-width: 0.8"/>
      </g>
     </g>
     <g id="text_3">
      <!-- 2012 -->
      <g transform="translate(128.462753 322.182437) scale(0.1 -0.1)">
       <use xlink:href="#DejaVuSans-32"/>
       <use xlink:href="#DejaVuSans-30" x="63.623047"/>
       <use xlink:href="#DejaVuSans-31" x="127.246094"/>
       <use xlink:href="#DejaVuSans-32" x="190.869141"/>
      </g>
     </g>
    </g>
    <g id="xtick_4">
     <g id="line2d_4">
      <g>
       <use xlink:href="#m6f2b31626a" x="181.645045" y="307.584" style="stroke: #000000; stroke-width: 0.8"/>
      </g>
     </g>
     <g id="text_4">
      <!-- 2014 -->
      <g transform="translate(168.920045 322.182437) scale(0.1 -0.1)">
       <defs>
        <path id="DejaVuSans-34" d="M 2419 4116 
L 825 1625 
L 2419 1625 
L 2419 4116 
z
M 2253 4666 
L 3047 4666 
L 3047 1625 
L 3713 1625 
L 3713 1100 
L 3047 1100 
L 3047 0 
L 2419 0 
L 2419 1100 
L 313 1100 
L 313 1709 
L 2253 4666 
z
" transform="scale(0.015625)"/>
       </defs>
       <use xlink:href="#DejaVuSans-32"/>
       <use xlink:href="#DejaVuSans-30" x="63.623047"/>
       <use xlink:href="#DejaVuSans-31" x="127.246094"/>
       <use xlink:href="#DejaVuSans-34" x="190.869141"/>
      </g>
     </g>
    </g>
    <g id="xtick_5">
     <g id="line2d_5">
      <g>
       <use xlink:href="#m6f2b31626a" x="222.046991" y="307.584" style="stroke: #000000; stroke-width: 0.8"/>
      </g>
     </g>
     <g id="text_5">
      <!-- 2016 -->
      <g transform="translate(209.321991 322.182437) scale(0.1 -0.1)">
       <defs>
        <path id="DejaVuSans-36" d="M 2113 2584 
Q 1688 2584 1439 2293 
Q 1191 2003 1191 1497 
Q 1191 994 1439 701 
Q 1688 409 2113 409 
Q 2538 409 2786 701 
Q 3034 994 3034 1497 
Q 3034 2003 2786 2293 
Q 2538 2584 2113 2584 
z
M 3366 4563 
L 3366 3988 
Q 3128 4100 2886 4159 
Q 2644 4219 2406 4219 
Q 1781 4219 1451 3797 
Q 1122 3375 1075 2522 
Q 1259 2794 1537 2939 
Q 1816 3084 2150 3084 
Q 2853 3084 3261 2657 
Q 3669 2231 3669 1497 
Q 3669 778 3244 343 
Q 2819 -91 2113 -91 
Q 1303 -91 875 529 
Q 447 1150 447 2328 
Q 447 3434 972 4092 
Q 1497 4750 2381 4750 
Q 2619 4750 2861 4703 
Q 3103 4656 3366 4563 
z
" transform="scale(0.015625)"/>
       </defs>
       <use xlink:href="#DejaVuSans-32"/>
       <use xlink:href="#DejaVuSans-30" x="63.623047"/>
       <use xlink:href="#DejaVuSans-31" x="127.246094"/>
       <use xlink:href="#DejaVuSans-36" x="190.869141"/>
      </g>
     </g>
    </g>
    <g id="xtick_6">
     <g id="line2d_6">
      <g>
       <use xlink:href="#m6f2b31626a" x="262.504283" y="307.584" style="stroke: #000000; stroke-width: 0.8"/>
      </g>
     </g>
     <g id="text_6">
      <!-- 2018 -->
      <g transform="translate(249.779283 322.182437) scale(0.1 -0.1)">
       <use xlink:href="#DejaVuSans-32"/>
       <use xlink:href="#DejaVuSans-30" x="63.623047"/>
       <use xlink:href="#DejaVuSans-31" x="127.246094"/>
       <use xlink:href="#DejaVuSans-38" x="190.869141"/>
      </g>
     </g>
    </g>
    <g id="xtick_7">
     <g id="line2d_7">
      <g>
       <use xlink:href="#m6f2b31626a" x="302.906229" y="307.584" style="stroke: #000000; stroke-width: 0.8"/>
      </g>
     </g>
     <g id="text_7">
      <!-- 2020 -->
      <g transform="translate(290.181229 322.182437) scale(0.1 -0.1)">
       <use xlink:href="#DejaVuSans-32"/>
       <use xlink:href="#DejaVuSans-30" x="63.623047"/>
       <use xlink:href="#DejaVuSans-32" x="127.246094"/>
       <use xlink:href="#DejaVuSans-30" x="190.869141"/>
      </g>
     </g>
    </g>
    <g id="xtick_8">
     <g id="line2d_8">
      <g>
       <use xlink:href="#m6f2b31626a" x="343.363521" y="307.584" style="stroke: #000000; stroke-width: 0.8"/>
      </g>
     </g>
     <g id="text_8">
      <!-- 2022 -->
      <g transform="translate(330.638521 322.182437) scale(0.1 -0.1)">
       <use xlink:href="#DejaVuSans-32"/>
       <use xlink:href="#DejaVuSans-30" x="63.623047"/>
       <use xlink:href="#DejaVuSans-32" x="127.246094"/>
       <use xlink:href="#DejaVuSans-32" x="190.869141"/>
      </g>
     </g>
    </g>
    <g id="xtick_9">
     <g id="line2d_9">
      <g>
       <use xlink:href="#m6f2b31626a" x="383.765468" y="307.584" style="stroke: #000000; stroke-width: 0.8"/>
      </g>
     </g>
     <g id="text_9">
      <!-- 2024 -->
      <g transform="translate(371.040468 322.182437) scale(0.1 -0.1)">
       <use xlink:href="#DejaVuSans-32"/>
       <use xlink:href="#DejaVuSans-30" x="63.623047"/>
       <use xlink:href="#DejaVuSans-32" x="127.246094"/>
       <use xlink:href="#DejaVuSans-34" x="190.869141"/>
      </g>
     </g>
    </g>
    <g id="text_10">
     <!-- Updated 2024-09-27 05:37:20.631132 - Last record 2024-09-25 -->
     <g transform="translate(75.905312 335.860562) scale(0.1 -0.1)">
      <defs>
       <path id="DejaVuSans-55" d="M 556 4666 
L 1191 4666 
L 1191 1831 
Q 1191 1081 1462 751 
Q 1734 422 2344 422 
Q 2950 422 3222 751 
Q 3494 1081 3494 1831 
L 3494 4666 
L 4128 4666 
L 4128 1753 
Q 4128 841 3676 375 
Q 3225 -91 2344 -91 
Q 1459 -91 1007 375 
Q 556 841 556 1753 
L 556 4666 
z
" transform="scale(0.015625)"/>
       <path id="DejaVuSans-70" d="M 1159 525 
L 1159 -1331 
L 581 -1331 
L 581 3500 
L 1159 3500 
L 1159 2969 
Q 1341 3281 1617 3432 
Q 1894 3584 2278 3584 
Q 2916 3584 3314 3078 
Q 3713 2572 3713 1747 
Q 3713 922 3314 415 
Q 2916 -91 2278 -91 
Q 1894 -91 1617 61 
Q 1341 213 1159 525 
z
M 3116 1747 
Q 3116 2381 2855 2742 
Q 2594 3103 2138 3103 
Q 1681 3103 1420 2742 
Q 1159 2381 1159 1747 
Q 1159 1113 1420 752 
Q 1681 391 2138 391 
Q 2594 391 2855 752 
Q 3116 1113 3116 1747 
z
" transform="scale(0.015625)"/>
       <path id="DejaVuSans-64" d="M 2906 2969 
L 2906 4863 
L 3481 4863 
L 3481 0 
L 2906 0 
L 2906 525 
Q 2725 213 2448 61 
Q 2172 -91 1784 -91 
Q 1150 -91 751 415 
Q 353 922 353 1747 
Q 353 2572 751 3078 
Q 1150 3584 1784 3584 
Q 2172 3584 2448 3432 
Q 2725 3281 2906 2969 
z
M 947 1747 
Q 947 1113 1208 752 
Q 1469 391 1925 391 
Q 2381 391 2643 752 
Q 2906 1113 2906 1747 
Q 2906 2381 2643 2742 
Q 2381 3103 1925 3103 
Q 1469 3103 1208 2742 
Q 947 2381 947 1747 
z
" transform="scale(0.015625)"/>
       <path id="DejaVuSans-61" d="M 2194 1759 
Q 1497 1759 1228 1600 
Q 959 1441 959 1056 
Q 959 750 1161 570 
Q 1363 391 1709 391 
Q 2188 391 2477 730 
Q 2766 1069 2766 1631 
L 2766 1759 
L 2194 1759 
z
M 3341 1997 
L 3341 0 
L 2766 0 
L 2766 531 
Q 2569 213 2275 61 
Q 1981 -91 1556 -91 
Q 1019 -91 701 211 
Q 384 513 384 1019 
Q 384 1609 779 1909 
Q 1175 2209 1959 2209 
L 2766 2209 
L 2766 2266 
Q 2766 2663 2505 2880 
Q 2244 3097 1772 3097 
Q 1472 3097 1187 3025 
Q 903 2953 641 2809 
L 641 3341 
Q 956 3463 1253 3523 
Q 1550 3584 1831 3584 
Q 2591 3584 2966 3190 
Q 3341 2797 3341 1997 
z
" transform="scale(0.015625)"/>
       <path id="DejaVuSans-74" d="M 1172 4494 
L 1172 3500 
L 2356 3500 
L 2356 3053 
L 1172 3053 
L 1172 1153 
Q 1172 725 1289 603 
Q 1406 481 1766 481 
L 2356 481 
L 2356 0 
L 1766 0 
Q 1100 0 847 248 
Q 594 497 594 1153 
L 594 3053 
L 172 3053 
L 172 3500 
L 594 3500 
L 594 4494 
L 1172 4494 
z
" transform="scale(0.015625)"/>
       <path id="DejaVuSans-65" d="M 3597 1894 
L 3597 1613 
L 953 1613 
Q 991 1019 1311 708 
Q 1631 397 2203 397 
Q 2534 397 2845 478 
Q 3156 559 3463 722 
L 3463 178 
Q 3153 47 2828 -22 
Q 2503 -91 2169 -91 
Q 1331 -91 842 396 
Q 353 884 353 1716 
Q 353 2575 817 3079 
Q 1281 3584 2069 3584 
Q 2775 3584 3186 3129 
Q 3597 2675 3597 1894 
z
M 3022 2063 
Q 3016 2534 2758 2815 
Q 2500 3097 2075 3097 
Q 1594 3097 1305 2825 
Q 1016 2553 972 2059 
L 3022 2063 
z
" transform="scale(0.015625)"/>
       <path id="DejaVuSans-20" transform="scale(0.015625)"/>
       <path id="DejaVuSans-2d" d="M 313 2009 
L 1997 2009 
L 1997 1497 
L 313 1497 
L 313 2009 
z
" transform="scale(0.015625)"/>
       <path id="DejaVuSans-39" d="M 703 97 
L 703 672 
Q 941 559 1184 500 
Q 1428 441 1663 441 
Q 2288 441 2617 861 
Q 2947 1281 2994 2138 
Q 2813 1869 2534 1725 
Q 2256 1581 1919 1581 
Q 1219 1581 811 2004 
Q 403 2428 403 3163 
Q 403 3881 828 4315 
Q 1253 4750 1959 4750 
Q 2769 4750 3195 4129 
Q 3622 3509 3622 2328 
Q 3622 1225 3098 567 
Q 2575 -91 1691 -91 
Q 1453 -91 1209 -44 
Q 966 3 703 97 
z
M 1959 2075 
Q 2384 2075 2632 2365 
Q 2881 2656 2881 3163 
Q 2881 3666 2632 3958 
Q 2384 4250 1959 4250 
Q 1534 4250 1286 3958 
Q 1038 3666 1038 3163 
Q 1038 2656 1286 2365 
Q 1534 2075 1959 2075 
z
" transform="scale(0.015625)"/>
       <path id="DejaVuSans-37" d="M 525 4666 
L 3525 4666 
L 3525 4397 
L 1831 0 
L 1172 0 
L 2766 4134 
L 525 4134 
L 525 4666 
z
" transform="scale(0.015625)"/>
       <path id="DejaVuSans-35" d="M 691 4666 
L 3169 4666 
L 3169 4134 
L 1269 4134 
L 1269 2991 
Q 1406 3038 1543 3061 
Q 1681 3084 1819 3084 
Q 2600 3084 3056 2656 
Q 3513 2228 3513 1497 
Q 3513 744 3044 326 
Q 2575 -91 1722 -91 
Q 1428 -91 1123 -41 
Q 819 9 494 109 
L 494 744 
Q 775 591 1075 516 
Q 1375 441 1709 441 
Q 2250 441 2565 725 
Q 2881 1009 2881 1497 
Q 2881 1984 2565 2268 
Q 2250 2553 1709 2553 
Q 1456 2553 1204 2497 
Q 953 2441 691 2322 
L 691 4666 
z
" transform="scale(0.015625)"/>
       <path id="DejaVuSans-3a" d="M 750 794 
L 1409 794 
L 1409 0 
L 750 0 
L 750 794 
z
M 750 3309 
L 1409 3309 
L 1409 2516 
L 750 2516 
L 750 3309 
z
" transform="scale(0.015625)"/>
       <path id="DejaVuSans-33" d="M 2597 2516 
Q 3050 2419 3304 2112 
Q 3559 1806 3559 1356 
Q 3559 666 3084 287 
Q 2609 -91 1734 -91 
Q 1441 -91 1130 -33 
Q 819 25 488 141 
L 488 750 
Q 750 597 1062 519 
Q 1375 441 1716 441 
Q 2309 441 2620 675 
Q 2931 909 2931 1356 
Q 2931 1769 2642 2001 
Q 2353 2234 1838 2234 
L 1294 2234 
L 1294 2753 
L 1863 2753 
Q 2328 2753 2575 2939 
Q 2822 3125 2822 3475 
Q 2822 3834 2567 4026 
Q 2313 4219 1838 4219 
Q 1578 4219 1281 4162 
Q 984 4106 628 3988 
L 628 4550 
Q 988 4650 1302 4700 
Q 1616 4750 1894 4750 
Q 2613 4750 3031 4423 
Q 3450 4097 3450 3541 
Q 3450 3153 3228 2886 
Q 3006 2619 2597 2516 
z
" transform="scale(0.015625)"/>
       <path id="DejaVuSans-2e" d="M 684 794 
L 1344 794 
L 1344 0 
L 684 0 
L 684 794 
z
" transform="scale(0.015625)"/>
       <path id="DejaVuSans-4c" d="M 628 4666 
L 1259 4666 
L 1259 531 
L 3531 531 
L 3531 0 
L 628 0 
L 628 4666 
z
" transform="scale(0.015625)"/>
       <path id="DejaVuSans-73" d="M 2834 3397 
L 2834 2853 
Q 2591 2978 2328 3040 
Q 2066 3103 1784 3103 
Q 1356 3103 1142 2972 
Q 928 2841 928 2578 
Q 928 2378 1081 2264 
Q 1234 2150 1697 2047 
L 1894 2003 
Q 2506 1872 2764 1633 
Q 3022 1394 3022 966 
Q 3022 478 2636 193 
Q 2250 -91 1575 -91 
Q 1294 -91 989 -36 
Q 684 19 347 128 
L 347 722 
Q 666 556 975 473 
Q 1284 391 1588 391 
Q 1994 391 2212 530 
Q 2431 669 2431 922 
Q 2431 1156 2273 1281 
Q 2116 1406 1581 1522 
L 1381 1569 
Q 847 1681 609 1914 
Q 372 2147 372 2553 
Q 372 3047 722 3315 
Q 1072 3584 1716 3584 
Q 2034 3584 2315 3537 
Q 2597 3491 2834 3397 
z
" transform="scale(0.015625)"/>
       <path id="DejaVuSans-72" d="M 2631 2963 
Q 2534 3019 2420 3045 
Q 2306 3072 2169 3072 
Q 1681 3072 1420 2755 
Q 1159 2438 1159 1844 
L 1159 0 
L 581 0 
L 581 3500 
L 1159 3500 
L 1159 2956 
Q 1341 3275 1631 3429 
Q 1922 3584 2338 3584 
Q 2397 3584 2469 3576 
Q 2541 3569 2628 3553 
L 2631 2963 
z
" transform="scale(0.015625)"/>
       <path id="DejaVuSans-63" d="M 3122 3366 
L 3122 2828 
Q 2878 2963 2633 3030 
Q 2388 3097 2138 3097 
Q 1578 3097 1268 2742 
Q 959 2388 959 1747 
Q 959 1106 1268 751 
Q 1578 397 2138 397 
Q 2388 397 2633 464 
Q 2878 531 3122 666 
L 3122 134 
Q 2881 22 2623 -34 
Q 2366 -91 2075 -91 
Q 1284 -91 818 406 
Q 353 903 353 1747 
Q 353 2603 823 3093 
Q 1294 3584 2113 3584 
Q 2378 3584 2631 3529 
Q 2884 3475 3122 3366 
z
" transform="scale(0.015625)"/>
       <path id="DejaVuSans-6f" d="M 1959 3097 
Q 1497 3097 1228 2736 
Q 959 2375 959 1747 
Q 959 1119 1226 758 
Q 1494 397 1959 397 
Q 2419 397 2687 759 
Q 2956 1122 2956 1747 
Q 2956 2369 2687 2733 
Q 2419 3097 1959 3097 
z
M 1959 3584 
Q 2709 3584 3137 3096 
Q 3566 2609 3566 1747 
Q 3566 888 3137 398 
Q 2709 -91 1959 -91 
Q 1206 -91 779 398 
Q 353 888 353 1747 
Q 353 2609 779 3096 
Q 1206 3584 1959 3584 
z
" transform="scale(0.015625)"/>
      </defs>
      <use xlink:href="#DejaVuSans-55"/>
      <use xlink:href="#DejaVuSans-70" x="73.193359"/>
      <use xlink:href="#DejaVuSans-64" x="136.669922"/>
      <use xlink:href="#DejaVuSans-61" x="200.146484"/>
      <use xlink:href="#DejaVuSans-74" x="261.425781"/>
      <use xlink:href="#DejaVuSans-65" x="300.634766"/>
      <use xlink:href="#DejaVuSans-64" x="362.158203"/>
      <use xlink:href="#DejaVuSans-20" x="425.634766"/>
      <use xlink:href="#DejaVuSans-32" x="457.421875"/>
      <use xlink:href="#DejaVuSans-30" x="521.044922"/>
      <use xlink:href="#DejaVuSans-32" x="584.667969"/>
      <use xlink:href="#DejaVuSans-34" x="648.291016"/>
      <use xlink:href="#DejaVuSans-2d" x="711.914062"/>
      <use xlink:href="#DejaVuSans-30" x="747.998047"/>
      <use xlink:href="#DejaVuSans-39" x="811.621094"/>
      <use xlink:href="#DejaVuSans-2d" x="875.244141"/>
      <use xlink:href="#DejaVuSans-32" x="911.328125"/>
      <use xlink:href="#DejaVuSans-37" x="974.951172"/>
      <use xlink:href="#DejaVuSans-20" x="1038.574219"/>
      <use xlink:href="#DejaVuSans-30" x="1070.361328"/>
      <use xlink:href="#DejaVuSans-35" x="1133.984375"/>
      <use xlink:href="#DejaVuSans-3a" x="1197.607422"/>
      <use xlink:href="#DejaVuSans-33" x="1231.298828"/>
      <use xlink:href="#DejaVuSans-37" x="1294.921875"/>
      <use xlink:href="#DejaVuSans-3a" x="1358.544922"/>
      <use xlink:href="#DejaVuSans-32" x="1392.236328"/>
      <use xlink:href="#DejaVuSans-30" x="1455.859375"/>
      <use xlink:href="#DejaVuSans-2e" x="1519.482422"/>
      <use xlink:href="#DejaVuSans-36" x="1551.269531"/>
      <use xlink:href="#DejaVuSans-33" x="1614.892578"/>
      <use xlink:href="#DejaVuSans-31" x="1678.515625"/>
      <use xlink:href="#DejaVuSans-31" x="1742.138672"/>
      <use xlink:href="#DejaVuSans-33" x="1805.761719"/>
      <use xlink:href="#DejaVuSans-32" x="1869.384766"/>
      <use xlink:href="#DejaVuSans-20" x="1933.007812"/>
      <use xlink:href="#DejaVuSans-2d" x="1964.794922"/>
      <use xlink:href="#DejaVuSans-20" x="2000.878906"/>
      <use xlink:href="#DejaVuSans-4c" x="2032.666016"/>
      <use xlink:href="#DejaVuSans-61" x="2088.378906"/>
      <use xlink:href="#DejaVuSans-73" x="2149.658203"/>
      <use xlink:href="#DejaVuSans-74" x="2201.757812"/>
      <use xlink:href="#DejaVuSans-20" x="2240.966797"/>
      <use xlink:href="#DejaVuSans-72" x="2272.753906"/>
      <use xlink:href="#DejaVuSans-65" x="2311.617188"/>
      <use xlink:href="#DejaVuSans-63" x="2373.140625"/>
      <use xlink:href="#DejaVuSans-6f" x="2428.121094"/>
      <use xlink:href="#DejaVuSans-72" x="2489.302734"/>
      <use xlink:href="#DejaVuSans-64" x="2528.666016"/>
      <use xlink:href="#DejaVuSans-20" x="2592.142578"/>
      <use xlink:href="#DejaVuSans-32" x="2623.929688"/>
      <use xlink:href="#DejaVuSans-30" x="2687.552734"/>
      <use xlink:href="#DejaVuSans-32" x="2751.175781"/>
      <use xlink:href="#DejaVuSans-34" x="2814.798828"/>
      <use xlink:href="#DejaVuSans-2d" x="2878.421875"/>
      <use xlink:href="#DejaVuSans-30" x="2914.505859"/>
      <use xlink:href="#DejaVuSans-39" x="2978.128906"/>
      <use xlink:href="#DejaVuSans-2d" x="3041.751953"/>
      <use xlink:href="#DejaVuSans-32" x="3077.835938"/>
      <use xlink:href="#DejaVuSans-35" x="3141.458984"/>
     </g>
    </g>
   </g>
   <g id="matplotlib.axis_2">
    <g id="ytick_1">
     <g id="line2d_10">
      <defs>
       <path id="m28da4db3ae" d="M 0 0 
L -3.5 0 
" style="stroke: #000000; stroke-width: 0.8"/>
      </defs>
      <g>
       <use xlink:href="#m28da4db3ae" x="57.6" y="295.488" style="stroke: #000000; stroke-width: 0.8"/>
      </g>
     </g>
     <g id="text_11">
      <!-- 0 -->
      <g transform="translate(44.2375 299.287219) scale(0.1 -0.1)">
       <use xlink:href="#DejaVuSans-30"/>
      </g>
     </g>
    </g>
    <g id="ytick_2">
     <g id="line2d_11">
      <g>
       <use xlink:href="#m28da4db3ae" x="57.6" y="244.412" style="stroke: #000000; stroke-width: 0.8"/>
      </g>
     </g>
     <g id="text_12">
      <!-- 10 -->
      <g transform="translate(37.875 248.211218) scale(0.1 -0.1)">
       <use xlink:href="#DejaVuSans-31"/>
       <use xlink:href="#DejaVuSans-30" x="63.623047"/>
      </g>
     </g>
    </g>
    <g id="ytick_3">
     <g id="line2d_12">
      <g>
       <use xlink:href="#m28da4db3ae" x="57.6" y="193.335999" style="stroke: #000000; stroke-width: 0.8"/>
      </g>
     </g>
     <g id="text_13">
      <!-- 20 -->
      <g transform="translate(37.875 197.135218) scale(0.1 -0.1)">
       <use xlink:href="#DejaVuSans-32"/>
       <use xlink:href="#DejaVuSans-30" x="63.623047"/>
      </g>
     </g>
    </g>
    <g id="ytick_4">
     <g id="line2d_13">
      <g>
       <use xlink:href="#m28da4db3ae" x="57.6" y="142.259999" style="stroke: #000000; stroke-width: 0.8"/>
      </g>
     </g>
     <g id="text_14">
      <!-- 30 -->
      <g transform="translate(37.875 146.059217) scale(0.1 -0.1)">
       <use xlink:href="#DejaVuSans-33"/>
       <use xlink:href="#DejaVuSans-30" x="63.623047"/>
      </g>
     </g>
    </g>
    <g id="ytick_5">
     <g id="line2d_14">
      <g>
       <use xlink:href="#m28da4db3ae" x="57.6" y="91.183998" style="stroke: #000000; stroke-width: 0.8"/>
      </g>
     </g>
     <g id="text_15">
      <!-- 40 -->
      <g transform="translate(37.875 94.983217) scale(0.1 -0.1)">
       <use xlink:href="#DejaVuSans-34"/>
       <use xlink:href="#DejaVuSans-30" x="63.623047"/>
      </g>
     </g>
    </g>
    <g id="text_16">
     <!-- IPv6 as % of total Google traffic -->
     <g transform="translate(31.795312 253.735813) rotate(-90) scale(0.1 -0.1)">
      <defs>
       <path id="DejaVuSans-49" d="M 628 4666 
L 1259 4666 
L 1259 0 
L 628 0 
L 628 4666 
z
" transform="scale(0.015625)"/>
       <path id="DejaVuSans-50" d="M 1259 4147 
L 1259 2394 
L 2053 2394 
Q 2494 2394 2734 2622 
Q 2975 2850 2975 3272 
Q 2975 3691 2734 3919 
Q 2494 4147 2053 4147 
L 1259 4147 
z
M 628 4666 
L 2053 4666 
Q 2838 4666 3239 4311 
Q 3641 3956 3641 3272 
Q 3641 2581 3239 2228 
Q 2838 1875 2053 1875 
L 1259 1875 
L 1259 0 
L 628 0 
L 628 4666 
z
" transform="scale(0.015625)"/>
       <path id="DejaVuSans-76" d="M 191 3500 
L 800 3500 
L 1894 563 
L 2988 3500 
L 3597 3500 
L 2284 0 
L 1503 0 
L 191 3500 
z
" transform="scale(0.015625)"/>
       <path id="DejaVuSans-25" d="M 4653 2053 
Q 4381 2053 4226 1822 
Q 4072 1591 4072 1178 
Q 4072 772 4226 539 
Q 4381 306 4653 306 
Q 4919 306 5073 539 
Q 5228 772 5228 1178 
Q 5228 1588 5073 1820 
Q 4919 2053 4653 2053 
z
M 4653 2450 
Q 5147 2450 5437 2106 
Q 5728 1763 5728 1178 
Q 5728 594 5436 251 
Q 5144 -91 4653 -91 
Q 4153 -91 3862 251 
Q 3572 594 3572 1178 
Q 3572 1766 3864 2108 
Q 4156 2450 4653 2450 
z
M 1428 4353 
Q 1159 4353 1004 4120 
Q 850 3888 850 3481 
Q 850 3069 1003 2837 
Q 1156 2606 1428 2606 
Q 1700 2606 1854 2837 
Q 2009 3069 2009 3481 
Q 2009 3884 1853 4118 
Q 1697 4353 1428 4353 
z
M 4250 4750 
L 4750 4750 
L 1831 -91 
L 1331 -91 
L 4250 4750 
z
M 1428 4750 
Q 1922 4750 2215 4408 
Q 2509 4066 2509 3481 
Q 2509 2891 2217 2550 
Q 1925 2209 1428 2209 
Q 931 2209 642 2551 
Q 353 2894 353 3481 
Q 353 4063 643 4406 
Q 934 4750 1428 4750 
z
" transform="scale(0.015625)"/>
       <path id="DejaVuSans-66" d="M 2375 4863 
L 2375 4384 
L 1825 4384 
Q 1516 4384 1395 4259 
Q 1275 4134 1275 3809 
L 1275 3500 
L 2222 3500 
L 2222 3053 
L 1275 3053 
L 1275 0 
L 697 0 
L 697 3053 
L 147 3053 
L 147 3500 
L 697 3500 
L 697 3744 
Q 697 4328 969 4595 
Q 1241 4863 1831 4863 
L 2375 4863 
z
" transform="scale(0.015625)"/>
       <path id="DejaVuSans-6c" d="M 603 4863 
L 1178 4863 
L 1178 0 
L 603 0 
L 603 4863 
z
" transform="scale(0.015625)"/>
       <path id="DejaVuSans-47" d="M 3809 666 
L 3809 1919 
L 2778 1919 
L 2778 2438 
L 4434 2438 
L 4434 434 
Q 4069 175 3628 42 
Q 3188 -91 2688 -91 
Q 1594 -91 976 548 
Q 359 1188 359 2328 
Q 359 3472 976 4111 
Q 1594 4750 2688 4750 
Q 3144 4750 3555 4637 
Q 3966 4525 4313 4306 
L 4313 3634 
Q 3963 3931 3569 4081 
Q 3175 4231 2741 4231 
Q 1884 4231 1454 3753 
Q 1025 3275 1025 2328 
Q 1025 1384 1454 906 
Q 1884 428 2741 428 
Q 3075 428 3337 486 
Q 3600 544 3809 666 
z
" transform="scale(0.015625)"/>
       <path id="DejaVuSans-67" d="M 2906 1791 
Q 2906 2416 2648 2759 
Q 2391 3103 1925 3103 
Q 1463 3103 1205 2759 
Q 947 2416 947 1791 
Q 947 1169 1205 825 
Q 1463 481 1925 481 
Q 2391 481 2648 825 
Q 2906 1169 2906 1791 
z
M 3481 434 
Q 3481 -459 3084 -895 
Q 2688 -1331 1869 -1331 
Q 1566 -1331 1297 -1286 
Q 1028 -1241 775 -1147 
L 775 -588 
Q 1028 -725 1275 -790 
Q 1522 -856 1778 -856 
Q 2344 -856 2625 -561 
Q 2906 -266 2906 331 
L 2906 616 
Q 2728 306 2450 153 
Q 2172 0 1784 0 
Q 1141 0 747 490 
Q 353 981 353 1791 
Q 353 2603 747 3093 
Q 1141 3584 1784 3584 
Q 2172 3584 2450 3431 
Q 2728 3278 2906 2969 
L 2906 3500 
L 3481 3500 
L 3481 434 
z
" transform="scale(0.015625)"/>
       <path id="DejaVuSans-69" d="M 603 3500 
L 1178 3500 
L 1178 0 
L 603 0 
L 603 3500 
z
M 603 4863 
L 1178 4863 
L 1178 4134 
L 603 4134 
L 603 4863 
z
" transform="scale(0.015625)"/>
      </defs>
      <use xlink:href="#DejaVuSans-49"/>
      <use xlink:href="#DejaVuSans-50" x="29.492188"/>
      <use xlink:href="#DejaVuSans-76" x="89.794922"/>
      <use xlink:href="#DejaVuSans-36" x="148.974609"/>
      <use xlink:href="#DejaVuSans-20" x="212.597656"/>
      <use xlink:href="#DejaVuSans-61" x="244.384766"/>
      <use xlink:href="#DejaVuSans-73" x="305.664062"/>
      <use xlink:href="#DejaVuSans-20" x="357.763672"/>
      <use xlink:href="#DejaVuSans-25" x="389.550781"/>
      <use xlink:href="#DejaVuSans-20" x="484.570312"/>
      <use xlink:href="#DejaVuSans-6f" x="516.357422"/>
      <use xlink:href="#DejaVuSans-66" x="577.539062"/>
      <use xlink:href="#DejaVuSans-20" x="612.744141"/>
      <use xlink:href="#DejaVuSans-74" x="644.53125"/>
      <use xlink:href="#DejaVuSans-6f" x="683.740234"/>
      <use xlink:href="#DejaVuSans-74" x="744.921875"/>
      <use xlink:href="#DejaVuSans-61" x="784.130859"/>
      <use xlink:href="#DejaVuSans-6c" x="845.410156"/>
      <use xlink:href="#DejaVuSans-20" x="873.193359"/>
      <use xlink:href="#DejaVuSans-47" x="904.980469"/>
      <use xlink:href="#DejaVuSans-6f" x="982.470703"/>
      <use xlink:href="#DejaVuSans-6f" x="1043.652344"/>
      <use xlink:href="#DejaVuSans-67" x="1104.833984"/>
      <use xlink:href="#DejaVuSans-6c" x="1168.310547"/>
      <use xlink:href="#DejaVuSans-65" x="1196.09375"/>
      <use xlink:href="#DejaVuSans-20" x="1257.617188"/>
      <use xlink:href="#DejaVuSans-74" x="1289.404297"/>
      <use xlink:href="#DejaVuSans-72" x="1328.613281"/>
      <use xlink:href="#DejaVuSans-61" x="1369.726562"/>
      <use xlink:href="#DejaVuSans-66" x="1431.005859"/>
      <use xlink:href="#DejaVuSans-66" x="1466.210938"/>
      <use xlink:href="#DejaVuSans-69" x="1501.416016"/>
      <use xlink:href="#DejaVuSans-63" x="1529.199219"/>
     </g>
    </g>
   </g>
   <g id="line2d_15">
    <path d="M 73.832727 294.557431 
L 75.382391 294.399713 
L 75.769807 294.549897 
L 77.319471 294.549238 
L 78.869134 294.412339 
L 79.25655 294.291279 
L 80.418798 294.311362 
L 83.905541 294.23888 
L 85.067789 294.265424 
L 86.617453 294.193315 
L 89.71678 294.255837 
L 90.104196 294.354097 
L 92.428692 294.346216 
L 93.203524 294.283327 
L 94.753187 294.19165 
L 95.528019 294.200022 
L 95.915435 293.951363 
L 98.239931 293.866066 
L 99.402178 293.869636 
L 100.564426 293.96045 
L 101.726674 293.915222 
L 102.888922 293.960715 
L 104.826001 293.929426 
L 105.988249 294.110572 
L 107.150497 294.060508 
L 107.925329 294.140825 
L 108.700161 294.217617 
L 109.087576 294.141008 
L 111.412072 294.350313 
L 113.349152 294.267442 
L 114.123984 294.167072 
L 114.511399 294.08434 
L 115.286231 294.080264 
L 118.385559 294.083006 
L 118.772975 294.106777 
L 119.160391 293.984752 
L 121.484886 294.21109 
L 124.584213 294.048035 
L 124.971629 294.05349 
L 125.359045 293.937343 
L 126.133877 294.034495 
L 126.908709 293.854166 
L 127.296125 293.898995 
L 127.683541 293.788288 
L 128.070957 293.836759 
L 128.845789 293.733744 
L 130.008036 293.71908 
L 130.395452 293.846182 
L 131.945116 293.874892 
L 132.719948 293.88854 
L 133.107364 293.852444 
L 133.882196 293.636643 
L 134.269612 293.516446 
L 136.981523 293.660204 
L 139.693435 293.195459 
L 140.468266 293.336515 
L 143.567594 292.887517 
L 143.95501 292.989786 
L 146.279505 292.500646 
L 147.054337 292.516649 
L 148.216585 292.185681 
L 150.153665 291.72637 
L 151.315912 291.608293 
L 151.703328 291.704744 
L 153.640408 291.341962 
L 154.802656 290.98351 
L 155.190072 291.037743 
L 155.577488 290.715954 
L 156.352319 290.523367 
L 156.739735 290.573406 
L 157.514567 290.373566 
L 157.901983 290.524501 
L 158.676815 290.34221 
L 159.064231 290.296993 
L 159.451647 290.062273 
L 160.226479 289.905654 
L 161.776142 289.88934 
L 162.550974 289.68926 
L 163.713222 289.541834 
L 164.100638 289.349078 
L 164.488054 289.330487 
L 164.87547 289.430157 
L 166.425133 288.709551 
L 166.812549 288.726059 
L 168.362213 288.272933 
L 168.749629 287.969265 
L 169.137045 287.899593 
L 169.524461 287.711669 
L 169.911877 287.742273 
L 171.074125 287.280807 
L 171.46154 287.362406 
L 171.848956 287.135266 
L 172.236372 287.095345 
L 174.173452 286.028239 
L 175.3357 285.461577 
L 176.110532 284.676299 
L 176.885363 283.728221 
L 177.272779 283.952194 
L 177.660195 283.99094 
L 178.822443 282.655007 
L 179.209859 282.494817 
L 179.597275 281.819557 
L 180.759523 281.417553 
L 181.146939 281.15945 
L 181.534355 281.206292 
L 182.696602 280.468903 
L 183.084018 280.312283 
L 183.471434 280.022642 
L 184.246266 279.954011 
L 184.633682 279.297868 
L 185.021098 279.289221 
L 185.408514 278.567839 
L 185.79593 278.194238 
L 186.570762 278.301467 
L 186.958177 278.034381 
L 187.345593 277.622958 
L 188.120425 277.144029 
L 188.507841 276.715879 
L 188.895257 276.978379 
L 190.444921 276.138337 
L 190.832337 275.827729 
L 191.219753 274.551324 
L 191.607169 274.79345 
L 192.382 273.926711 
L 192.769416 273.889497 
L 193.156832 274.264195 
L 194.31908 273.411604 
L 194.706496 272.833199 
L 195.481328 272.877794 
L 195.868744 272.251944 
L 196.25616 272.208867 
L 196.643576 268.893253 
L 197.030992 271.074755 
L 197.418407 272.374312 
L 197.805823 271.742844 
L 198.193239 271.389965 
L 198.580655 271.333097 
L 198.968071 270.502586 
L 199.355487 270.242354 
L 200.517735 268.439754 
L 200.905151 267.262764 
L 201.292567 266.590971 
L 201.679983 265.678912 
L 202.067399 265.076736 
L 202.454814 266.038436 
L 202.84223 265.891261 
L 203.229646 265.917887 
L 203.617062 266.073245 
L 204.004478 266.363336 
L 204.391894 266.252659 
L 204.77931 264.131764 
L 205.166726 264.445473 
L 206.328974 263.327899 
L 206.71639 263.17748 
L 207.491222 263.243614 
L 207.878637 261.640399 
L 208.266053 261.582009 
L 209.040885 260.31679 
L 209.428301 260.748153 
L 209.815717 258.773396 
L 210.203133 259.240159 
L 210.590549 257.907081 
L 210.977965 257.268733 
L 211.365381 256.31023 
L 211.752797 256.975853 
L 212.140213 255.967567 
L 212.527629 254.290159 
L 212.915044 255.135416 
L 213.30246 255.376377 
L 213.689876 254.855698 
L 214.077292 253.321937 
L 214.464708 253.747988 
L 214.852124 252.39383 
L 215.23954 252.705772 
L 216.401788 249.95417 
L 217.564036 249.66369 
L 217.951452 248.595364 
L 218.338867 248.725368 
L 218.726283 248.324605 
L 219.113699 247.265774 
L 219.501115 246.997038 
L 219.888531 245.813116 
L 220.275947 245.001498 
L 220.663363 244.85846 
L 221.050779 245.058234 
L 221.438195 244.541809 
L 221.825611 242.341864 
L 222.600443 243.632278 
L 222.987859 243.384396 
L 223.76269 243.310117 
L 224.150106 243.353822 
L 224.924938 243.088391 
L 225.312354 241.850625 
L 225.69977 241.792031 
L 226.087186 240.69432 
L 226.474602 240.691236 
L 226.862018 240.524483 
L 228.024266 237.384938 
L 228.411681 235.535782 
L 228.799097 236.79857 
L 229.186513 236.269285 
L 229.573929 235.175262 
L 229.961345 235.418783 
L 230.348761 233.083067 
L 230.736177 233.425746 
L 231.123593 233.139347 
L 231.511009 231.509569 
L 231.898425 231.494144 
L 232.285841 230.279321 
L 232.673257 230.571828 
L 233.060673 229.610966 
L 233.448089 229.100528 
L 233.835504 229.371706 
L 234.22292 228.71377 
L 234.610336 227.687352 
L 234.997752 228.01547 
L 235.385168 227.528669 
L 235.772584 225.913406 
L 236.16 225.237926 
L 236.547416 225.301112 
L 236.934832 223.412214 
L 237.322248 223.748121 
L 238.09708 221.498351 
L 238.484496 219.253356 
L 238.871911 219.475246 
L 239.646743 218.212872 
L 240.034159 216.798414 
L 240.421575 216.987507 
L 240.808991 216.394724 
L 241.196407 214.158249 
L 241.583823 213.373574 
L 241.971239 209.665599 
L 242.358655 212.076391 
L 242.746071 211.639304 
L 243.133487 212.21423 
L 243.520903 211.539103 
L 244.295734 212.635566 
L 244.68315 212.416982 
L 245.070566 211.455828 
L 245.457982 211.744888 
L 246.232814 210.520734 
L 246.62023 209.506385 
L 247.007646 209.345521 
L 247.395062 208.659836 
L 247.782478 206.194117 
L 248.169894 206.967852 
L 248.55731 203.661334 
L 248.944726 203.917286 
L 249.332141 202.119988 
L 249.719557 201.012196 
L 250.881805 198.974749 
L 251.269221 197.307357 
L 251.656637 194.558299 
L 252.044053 195.252498 
L 253.593717 192.121524 
L 253.981133 191.606601 
L 254.368548 191.626092 
L 254.755964 191.909784 
L 255.14338 190.935637 
L 255.530796 189.570365 
L 255.918212 190.793461 
L 256.305628 190.817069 
L 256.693044 191.906709 
L 257.08046 190.714227 
L 257.467876 188.860235 
L 257.855292 189.097799 
L 258.242708 188.297398 
L 259.404956 187.024517 
L 260.179787 186.089546 
L 260.567203 185.988267 
L 260.954619 199.545028 
L 261.342035 184.267231 
L 261.729451 183.533937 
L 262.116867 179.82913 
L 262.504283 183.266325 
L 263.279115 182.764084 
L 263.666531 182.761653 
L 264.053947 182.301678 
L 264.441363 182.074997 
L 264.828778 183.334241 
L 265.216194 184.132553 
L 265.60361 183.938485 
L 265.991026 182.856946 
L 266.378442 182.934607 
L 267.54069 182.025152 
L 267.928106 179.595416 
L 268.315522 180.554439 
L 268.702938 177.981149 
L 269.090354 179.066207 
L 269.47777 176.906275 
L 269.865186 175.557628 
L 270.252601 176.352825 
L 270.640017 174.698928 
L 271.027433 173.600764 
L 271.414849 173.367254 
L 271.802265 174.265043 
L 272.189681 174.738625 
L 273.351929 172.313133 
L 273.739345 172.870929 
L 274.126761 173.674778 
L 274.514177 173.830652 
L 274.901593 171.991012 
L 275.289008 171.305796 
L 275.676424 169.972228 
L 276.451256 169.456891 
L 276.838672 169.596446 
L 277.226088 169.42054 
L 278.00092 167.588669 
L 278.388336 168.657414 
L 278.775752 165.271862 
L 279.163168 165.358941 
L 279.550584 164.946094 
L 279.938 162.47685 
L 280.325415 161.735972 
L 280.712831 161.290661 
L 281.100247 161.293904 
L 281.487663 159.955218 
L 281.875079 159.86396 
L 282.649911 157.74735 
L 283.037327 159.144432 
L 283.424743 160.044299 
L 284.199575 157.901324 
L 284.586991 158.952376 
L 284.974407 158.760198 
L 285.361823 159.217706 
L 285.749238 157.600165 
L 286.136654 157.035785 
L 286.52407 158.258703 
L 286.911486 156.503241 
L 287.298902 156.6437 
L 287.686318 156.142956 
L 288.46115 155.948837 
L 288.848566 152.481246 
L 289.235982 152.380238 
L 289.623398 152.653909 
L 290.010814 153.492638 
L 290.785645 149.446045 
L 291.173061 147.660923 
L 291.560477 147.207828 
L 291.947893 147.363456 
L 292.335309 147.037653 
L 292.722725 145.264417 
L 293.110141 146.726723 
L 293.497557 145.169788 
L 293.884973 146.61458 
L 294.272389 145.578866 
L 294.659805 144.951929 
L 295.047221 144.899647 
L 295.434637 144.97028 
L 295.822053 143.620158 
L 296.209468 143.773559 
L 296.596884 145.234782 
L 296.9843 144.739662 
L 297.371716 145.339039 
L 297.759132 145.584015 
L 298.146548 143.711369 
L 298.533964 144.832906 
L 298.92138 145.13428 
L 299.308796 144.438303 
L 299.696212 144.01306 
L 300.083628 142.335606 
L 300.471044 142.689645 
L 300.85846 142.324554 
L 301.245875 142.445629 
L 301.633291 141.470159 
L 302.020707 141.04345 
L 302.408123 139.808754 
L 302.795539 139.269075 
L 303.182955 140.032038 
L 303.570371 140.258887 
L 303.957787 140.309922 
L 304.732619 138.554082 
L 305.120035 138.97501 
L 305.507451 137.694642 
L 305.894867 138.248791 
L 306.282282 138.009316 
L 306.669698 137.123714 
L 307.057114 137.340139 
L 307.44453 137.948505 
L 307.831946 137.671162 
L 308.219362 137.685658 
L 308.606778 135.38521 
L 309.38161 133.747371 
L 309.769026 134.017793 
L 310.156442 133.445211 
L 310.543858 131.539519 
L 310.931274 132.155981 
L 311.31869 129.421326 
L 311.706105 131.609851 
L 312.093521 129.798119 
L 312.480937 127.321505 
L 312.868353 128.045987 
L 313.255769 126.49959 
L 313.643185 125.456112 
L 314.030601 125.555935 
L 314.418017 124.773083 
L 314.805433 126.735627 
L 315.192849 125.100649 
L 315.580265 125.713704 
L 315.967681 126.073391 
L 317.129928 123.564885 
L 317.517344 125.653408 
L 317.90476 125.695255 
L 318.292176 124.77199 
L 318.679592 125.295156 
L 319.067008 126.563583 
L 319.454424 125.577086 
L 319.84184 123.28175 
L 320.229256 127.092275 
L 320.616672 126.065816 
L 321.004088 124.580087 
L 321.391504 125.826428 
L 321.77892 125.91648 
L 322.166335 123.881173 
L 322.553751 122.867575 
L 322.941167 121.009415 
L 323.328583 121.915559 
L 323.715999 121.229052 
L 324.103415 121.440793 
L 324.490831 122.022482 
L 324.878247 120.537115 
L 325.265663 119.928111 
L 325.653079 121.029278 
L 326.040495 120.754822 
L 326.427911 118.371993 
L 326.815327 117.847846 
L 327.202742 116.226153 
L 327.590158 118.889194 
L 327.977574 119.772395 
L 328.36499 118.904149 
L 328.752406 118.738106 
L 329.139822 118.874275 
L 329.527238 114.177346 
L 329.914654 117.317269 
L 330.30207 115.507927 
L 331.076902 116.423214 
L 331.464318 111.974724 
L 331.851734 111.406197 
L 332.239149 109.616745 
L 332.626565 109.545524 
L 333.013981 111.164133 
L 333.401397 108.93202 
L 333.788813 108.493256 
L 334.176229 107.340553 
L 334.563645 106.923686 
L 334.951061 105.61401 
L 335.338477 105.80982 
L 335.725893 108.985098 
L 336.113309 107.272806 
L 336.500725 106.18862 
L 336.888141 108.250594 
L 337.275557 107.110323 
L 337.662972 106.708932 
L 338.050388 105.06265 
L 338.82522 107.682808 
L 339.212636 107.395051 
L 339.600052 107.80585 
L 339.987468 107.675693 
L 340.374884 106.199546 
L 340.7623 107.906311 
L 341.149716 105.855743 
L 341.537132 105.130576 
L 341.924548 105.0546 
L 342.699379 102.50174 
L 343.086795 99.653135 
L 343.474211 101.595872 
L 343.861627 105.224438 
L 344.249043 101.137178 
L 344.636459 100.945174 
L 345.023875 103.68795 
L 345.798707 100.037379 
L 346.186123 99.988581 
L 346.573539 100.759242 
L 346.960955 100.727794 
L 347.348371 101.317952 
L 347.735787 94.380007 
L 348.123202 93.639354 
L 348.510618 93.846176 
L 348.898034 92.42824 
L 349.28545 91.963168 
L 349.672866 89.49706 
L 350.060282 92.630598 
L 350.447698 93.852408 
L 350.835114 91.17173 
L 351.22253 92.938147 
L 351.609946 89.93424 
L 351.997362 88.404764 
L 352.384778 84.694271 
L 352.772194 85.6927 
L 353.159609 80.195058 
L 353.934441 84.048752 
L 354.321857 85.808551 
L 354.709273 84.205735 
L 355.096689 84.518396 
L 355.484105 85.190822 
L 355.871521 85.053918 
L 356.258937 87.008045 
L 356.646353 86.097125 
L 357.033769 84.669081 
L 357.421185 84.998465 
L 357.808601 83.534964 
L 358.196016 83.906797 
L 358.583432 82.11693 
L 358.970848 83.380438 
L 359.358264 86.789654 
L 359.74568 84.495438 
L 360.133096 81.0173 
L 360.520512 83.899759 
L 360.907928 82.225314 
L 361.295344 83.964452 
L 361.68276 82.394018 
L 362.070176 82.371687 
L 363.232424 76.325683 
L 363.619839 79.03455 
L 364.007255 78.827416 
L 364.394671 77.471481 
L 364.782087 77.87112 
L 365.169503 80.18184 
L 365.944335 78.185493 
L 366.331751 79.648637 
L 366.719167 78.82547 
L 367.106583 77.230423 
L 367.493999 77.261442 
L 368.268831 74.614785 
L 368.656246 75.769491 
L 369.043662 75.750762 
L 369.431078 73.237199 
L 369.818494 74.532037 
L 370.593326 74.314867 
L 370.980742 72.918797 
L 371.368158 74.513027 
L 371.755574 74.559945 
L 372.14299 71.75407 
L 372.530406 71.719706 
L 372.917822 70.391995 
L 373.305238 66.890776 
L 373.692654 68.395511 
L 374.467485 67.569801 
L 374.854901 67.421441 
L 375.242317 67.796052 
L 375.629733 66.498068 
L 376.017149 68.020955 
L 376.791981 64.217811 
L 377.179397 65.734778 
L 377.566813 67.793136 
L 377.954229 68.597557 
L 378.341645 64.796727 
L 378.729061 67.058908 
L 379.116476 65.885698 
L 379.503892 69.983224 
L 379.891308 67.291856 
L 380.278724 66.289775 
L 380.66614 68.567688 
L 381.053556 68.776778 
L 381.440972 69.988709 
L 381.828388 67.809577 
L 382.215804 70.13186 
L 382.60322 67.310641 
L 382.990636 66.966308 
L 383.378052 64.297541 
L 383.765468 67.650956 
L 384.152883 67.636108 
L 384.540299 66.832064 
L 384.927715 66.917877 
L 385.315131 65.46287 
L 385.702547 66.590255 
L 386.089963 63.850309 
L 386.477379 64.5306 
L 386.864795 64.531979 
L 387.252211 74.022462 
L 388.027043 74.022462 
L 388.414459 62.219585 
L 388.801875 62.165766 
L 389.189291 63.744561 
L 389.576706 63.310257 
L 389.964122 61.66705 
L 390.351538 62.074131 
L 390.738954 61.345378 
L 391.12637 58.907306 
L 391.513786 59.816658 
L 391.901202 54.878105 
L 392.288618 55.892556 
L 392.676034 54.461713 
L 393.06345 54.84586 
L 393.450866 53.568 
L 393.838282 57.600072 
L 394.225698 54.528122 
L 394.613113 55.552824 
L 395.000529 56.238892 
L 395.387945 57.753576 
L 395.775361 56.382211 
L 396.162777 57.622913 
L 396.937609 55.326715 
L 397.325025 56.930573 
L 397.712441 57.66121 
L 398.099857 57.400876 
L 398.487273 81.012325 
L 398.487273 81.012325 
" clip-path="url(#pb59ed9460e)" style="fill: none; stroke: #1f77b4; stroke-width: 1.5; stroke-linecap: square"/>
   </g>
   <g id="line2d_16">
    <path d="M 73.832727 294.801513 
L 75.382391 294.671749 
L 75.769807 294.780352 
L 84.292957 294.542261 
L 85.067789 294.534013 
L 87.004869 294.472083 
L 89.329364 294.511013 
L 95.915435 294.455529 
L 96.302851 294.272682 
L 111.412072 294.455938 
L 113.349152 294.457016 
L 114.511399 294.296484 
L 116.061063 294.272355 
L 117.998143 294.216851 
L 122.647134 294.385274 
L 128.070957 293.963739 
L 128.845789 293.910405 
L 129.620621 293.851428 
L 130.395452 293.943186 
L 131.5577 294.007976 
L 133.49478 293.889796 
L 134.269612 293.721787 
L 135.431859 293.829935 
L 140.468266 293.487971 
L 140.855682 293.589704 
L 146.279505 292.953384 
L 147.829169 292.705768 
L 148.604001 292.712734 
L 149.766249 292.326053 
L 151.315912 292.054763 
L 151.703328 292.172044 
L 153.252992 292.051111 
L 158.676815 291.05566 
L 159.064231 291.099376 
L 159.839063 290.849589 
L 160.613895 290.750262 
L 161.00131 290.521932 
L 162.163558 290.781811 
L 162.93839 290.602473 
L 163.325806 290.549758 
L 163.713222 290.327889 
L 164.100638 290.344504 
L 164.488054 290.180151 
L 165.650302 290.096172 
L 166.037718 289.861815 
L 167.199965 289.624838 
L 167.587381 289.627397 
L 167.974797 289.477274 
L 168.362213 289.462018 
L 171.074125 288.535806 
L 171.46154 288.670263 
L 172.623788 288.197192 
L 173.39862 287.80288 
L 173.786036 287.504091 
L 174.560868 287.296528 
L 174.948284 287.391897 
L 175.723116 287.246075 
L 176.885363 286.130259 
L 177.272779 285.862222 
L 177.660195 285.935909 
L 178.047611 285.792105 
L 179.209859 284.95428 
L 179.597275 284.812513 
L 180.372107 284.135674 
L 180.759523 284.042936 
L 181.146939 282.765561 
L 181.534355 282.884823 
L 181.92177 283.735775 
L 182.309186 283.643368 
L 183.084018 282.990408 
L 183.471434 283.580458 
L 183.85885 282.816453 
L 184.246266 282.769463 
L 184.633682 282.53199 
L 185.021098 281.976559 
L 185.408514 282.004784 
L 186.183346 281.154072 
L 186.570762 281.179728 
L 186.958177 280.989653 
L 187.345593 280.299606 
L 187.733009 280.53261 
L 188.120425 280.010317 
L 188.507841 280.166988 
L 188.895257 279.97844 
L 189.282673 280.055386 
L 189.670089 279.466894 
L 190.057505 279.489577 
L 190.444921 278.889194 
L 190.832337 278.993501 
L 191.607169 277.726311 
L 191.994585 277.475543 
L 192.382 277.395793 
L 192.769416 277.104951 
L 193.156832 277.076123 
L 193.544248 277.187454 
L 193.931664 277.166339 
L 195.093912 276.75056 
L 195.481328 276.885932 
L 196.25616 276.536107 
L 196.643576 275.932991 
L 197.030992 274.579248 
L 197.418407 275.58975 
L 197.805823 275.922414 
L 198.193239 275.573181 
L 198.580655 275.775759 
L 198.968071 275.270372 
L 199.742903 274.616901 
L 200.130319 273.969073 
L 200.517735 273.562789 
L 200.905151 272.711659 
L 201.292567 270.192652 
L 201.679983 268.579186 
L 202.067399 270.969385 
L 202.454814 271.599698 
L 202.84223 271.617034 
L 203.229646 271.868961 
L 203.617062 271.850819 
L 204.004478 272.187982 
L 204.391894 271.492189 
L 204.77931 271.614536 
L 205.166726 270.315014 
L 205.554142 269.917904 
L 205.941558 270.143675 
L 206.71639 268.84779 
L 207.103806 269.198539 
L 207.491222 269.164722 
L 207.878637 268.747104 
L 208.266053 268.140964 
L 208.653469 267.825591 
L 209.040885 267.870292 
L 209.815717 265.991416 
L 210.203133 265.438784 
L 210.590549 265.141802 
L 210.977965 264.059313 
L 211.365381 263.684389 
L 212.527629 261.50161 
L 212.915044 261.872192 
L 213.689876 261.507714 
L 214.464708 260.807922 
L 214.852124 261.112146 
L 215.626956 260.726364 
L 216.401788 259.761099 
L 217.564036 259.267699 
L 217.951452 259.270933 
L 218.338867 258.258913 
L 218.726283 258.156975 
L 219.113699 258.184709 
L 219.501115 257.666406 
L 220.663363 255.100174 
L 221.050779 254.616116 
L 221.438195 252.280222 
L 221.825611 248.984594 
L 222.213027 253.874442 
L 222.600443 254.939969 
L 222.987859 254.642461 
L 223.375274 254.117834 
L 223.76269 254.189228 
L 224.150106 254.45942 
L 224.924938 253.355601 
L 225.69977 252.851941 
L 226.087186 252.444574 
L 226.474602 251.281349 
L 226.862018 251.011509 
L 227.249434 250.945565 
L 228.024266 249.916261 
L 228.411681 248.692751 
L 228.799097 247.930232 
L 229.186513 248.410791 
L 229.961345 246.907895 
L 230.348761 245.525329 
L 230.736177 245.123192 
L 231.123593 244.926519 
L 231.898425 242.709381 
L 232.285841 240.982701 
L 232.673257 241.738855 
L 233.060673 241.596323 
L 233.448089 240.727494 
L 233.835504 240.141096 
L 234.22292 239.990963 
L 234.610336 240.097125 
L 234.997752 241.295373 
L 235.385168 240.680985 
L 235.772584 240.955937 
L 236.16 240.303666 
L 236.547416 240.374569 
L 236.934832 239.640934 
L 237.709664 237.589017 
L 238.09708 237.795119 
L 238.871911 234.892955 
L 239.259327 235.580637 
L 239.646743 235.046188 
L 240.034159 233.781373 
L 240.421575 233.687464 
L 240.808991 232.838581 
L 241.196407 232.355254 
L 241.583823 228.983957 
L 241.971239 221.205072 
L 242.358655 226.804968 
L 242.746071 229.790866 
L 243.133487 230.106286 
L 243.908319 229.777581 
L 244.295734 229.868823 
L 244.68315 229.827028 
L 245.070566 228.897634 
L 245.457982 228.665677 
L 245.845398 228.955186 
L 246.62023 227.86786 
L 247.395062 225.915577 
L 247.782478 223.77726 
L 248.169894 224.496604 
L 248.55731 224.390075 
L 248.944726 220.511996 
L 249.332141 221.362529 
L 250.106973 218.775029 
L 250.494389 216.285406 
L 250.881805 216.195681 
L 251.269221 215.854734 
L 252.044053 211.51808 
L 252.431469 211.230364 
L 252.818885 210.590044 
L 253.206301 210.277336 
L 253.981133 207.802403 
L 254.368548 207.590248 
L 254.755964 207.51696 
L 255.14338 208.602044 
L 255.530796 208.727016 
L 256.305628 210.289722 
L 257.08046 210.801473 
L 257.467876 208.606513 
L 257.855292 208.052926 
L 258.242708 208.531651 
L 258.630124 207.554429 
L 259.01754 205.75636 
L 259.404956 207.321379 
L 259.792371 207.941769 
L 260.179787 206.090131 
L 260.567203 205.862378 
L 260.954619 204.819605 
L 261.342035 199.545028 
L 261.729451 201.657097 
L 262.116867 192.934057 
L 262.891699 203.291754 
L 263.279115 201.947765 
L 263.666531 203.359823 
L 264.053947 202.835655 
L 264.441363 202.748581 
L 264.828778 201.381036 
L 265.216194 203.689559 
L 265.60361 204.328857 
L 265.991026 203.730313 
L 266.378442 202.419238 
L 266.765858 201.972271 
L 267.153274 200.948867 
L 267.54069 200.87759 
L 267.928106 202.689103 
L 268.315522 201.65369 
L 268.702938 200.181297 
L 269.090354 198.111968 
L 269.47777 197.915218 
L 269.865186 197.059486 
L 270.252601 197.164018 
L 270.640017 194.961146 
L 271.027433 194.91033 
L 271.414849 193.394226 
L 271.802265 193.152871 
L 272.189681 192.69022 
L 272.577097 191.241648 
L 273.351929 191.25362 
L 274.126761 190.667493 
L 274.514177 191.538737 
L 274.901593 190.061736 
L 275.289008 189.275421 
L 275.676424 192.090955 
L 276.06384 192.230898 
L 276.451256 192.097682 
L 276.838672 192.182708 
L 277.226088 192.111733 
L 277.613504 190.701974 
L 278.00092 191.038156 
L 278.388336 191.6075 
L 278.775752 190.979123 
L 279.163168 188.094774 
L 279.550584 188.885277 
L 279.938 188.491078 
L 280.325415 185.424883 
L 280.712831 186.925052 
L 281.875079 182.924616 
L 282.262495 170.417396 
L 282.649911 175.214827 
L 283.037327 182.430211 
L 283.424743 183.754479 
L 284.199575 182.475203 
L 284.586991 181.220608 
L 284.974407 182.158573 
L 285.361823 181.892421 
L 285.749238 182.879531 
L 286.136654 180.651091 
L 286.52407 182.619391 
L 287.298902 180.575529 
L 287.686318 180.546824 
L 288.073734 181.157453 
L 288.46115 178.60303 
L 288.848566 178.171106 
L 289.235982 176.032416 
L 289.623398 177.996518 
L 290.010814 179.245688 
L 290.39823 176.84673 
L 291.173061 170.156566 
L 291.560477 171.618698 
L 291.947893 170.414224 
L 292.335309 169.756416 
L 292.722725 168.194078 
L 293.110141 168.843698 
L 293.497557 169.025304 
L 293.884973 168.862065 
L 294.272389 168.342602 
L 294.659805 167.514124 
L 295.047221 165.201806 
L 295.434637 168.123389 
L 295.822053 168.950503 
L 296.209468 169.106106 
L 296.596884 170.420746 
L 296.9843 171.150316 
L 297.759132 170.879445 
L 298.146548 171.386323 
L 298.533964 171.093887 
L 298.92138 171.75693 
L 299.696212 169.081672 
L 300.083628 170.765494 
L 300.471044 170.193458 
L 300.85846 168.769689 
L 301.245875 168.926973 
L 301.633291 168.241267 
L 302.020707 166.106265 
L 302.408123 154.302969 
L 302.795539 153.988734 
L 303.182955 165.542003 
L 303.570371 167.161949 
L 303.957787 167.493606 
L 304.345203 166.378622 
L 304.732619 164.872723 
L 305.507451 163.185305 
L 305.894867 163.137518 
L 306.282282 163.697362 
L 306.669698 163.296308 
L 307.057114 154.287416 
L 307.44453 150.355529 
L 307.831946 148.824409 
L 308.219362 149.965988 
L 309.38161 145.965721 
L 309.769026 146.246501 
L 310.156442 148.365118 
L 310.543858 146.423684 
L 310.931274 145.682734 
L 311.31869 147.416198 
L 311.706105 148.36923 
L 312.480937 145.372412 
L 312.868353 142.519291 
L 313.255769 142.303475 
L 313.643185 140.754983 
L 314.030601 142.092495 
L 314.418017 141.908616 
L 314.805433 142.965568 
L 315.192849 141.952792 
L 315.580265 141.961235 
L 315.967681 142.853619 
L 316.355097 144.431663 
L 316.742512 143.677608 
L 317.129928 145.488262 
L 317.90476 145.616055 
L 318.292176 146.314892 
L 318.679592 145.041526 
L 319.067008 145.221257 
L 319.454424 144.214294 
L 319.84184 142.391744 
L 320.229256 144.470195 
L 320.616672 144.888472 
L 321.004088 144.685154 
L 321.391504 147.020931 
L 321.77892 145.064352 
L 322.553751 137.154248 
L 322.941167 130.862379 
L 323.715999 140.27565 
L 324.103415 139.578963 
L 324.490831 140.448006 
L 324.878247 139.37139 
L 325.653079 138.449545 
L 326.040495 138.586342 
L 326.427911 140.153492 
L 326.815327 139.765738 
L 327.202742 139.569877 
L 327.590158 137.728347 
L 327.977574 140.745646 
L 328.752406 137.904447 
L 329.139822 140.046605 
L 329.527238 138.802256 
L 329.914654 135.564262 
L 330.30207 135.882389 
L 330.689486 133.95665 
L 331.076902 132.828238 
L 331.464318 134.599901 
L 331.851734 134.958097 
L 332.626565 127.873314 
L 333.013981 127.752698 
L 333.401397 127.402205 
L 333.788813 126.684638 
L 334.176229 124.079547 
L 334.563645 125.453926 
L 334.951061 124.153684 
L 335.338477 124.253282 
L 335.725893 125.431396 
L 336.113309 128.3136 
L 336.500725 128.981909 
L 336.888141 129.029895 
L 337.275557 130.475739 
L 337.662972 128.375626 
L 338.437804 129.498098 
L 338.82522 129.759888 
L 339.212636 129.545323 
L 339.600052 129.121714 
L 339.987468 131.399275 
L 340.374884 130.351353 
L 340.7623 130.852465 
L 341.149716 129.363375 
L 341.537132 130.39534 
L 342.311964 127.855509 
L 342.699379 122.793111 
L 343.086795 110.939123 
L 343.861627 122.788596 
L 344.249043 123.113971 
L 344.636459 124.775121 
L 345.023875 123.203022 
L 345.411291 125.852589 
L 345.798707 124.916509 
L 346.186123 121.625029 
L 346.573539 123.42746 
L 346.960955 123.421285 
L 347.348371 125.630511 
L 347.735787 121.882774 
L 348.123202 115.539901 
L 348.510618 115.690003 
L 348.898034 125.679192 
L 349.28545 114.46521 
L 350.060282 111.141869 
L 350.447698 114.683371 
L 350.835114 114.512461 
L 351.22253 113.223012 
L 351.609946 110.257294 
L 351.997362 110.872923 
L 352.772194 103.571047 
L 353.159609 104.308477 
L 353.547025 104.093922 
L 353.934441 101.744487 
L 354.321857 101.657025 
L 354.709273 102.52996 
L 355.096689 101.326665 
L 355.484105 102.132793 
L 355.871521 102.230567 
L 356.258937 105.432389 
L 356.646353 106.230779 
L 357.421185 109.11311 
L 357.808601 107.133348 
L 358.196016 108.224285 
L 358.583432 108.350611 
L 358.970848 105.614567 
L 359.358264 108.687289 
L 359.74568 109.540692 
L 360.133096 106.569055 
L 360.520512 105.765241 
L 360.907928 107.963736 
L 361.295344 104.583552 
L 361.68276 107.874746 
L 362.070176 108.165185 
L 362.457592 103.972244 
L 363.232424 90.338685 
L 363.619839 97.31607 
L 364.007255 102.070092 
L 364.394671 101.998453 
L 364.782087 102.559946 
L 365.169503 101.463733 
L 365.556919 101.591964 
L 365.944335 102.285827 
L 366.719167 100.059449 
L 367.106583 102.974566 
L 367.881415 95.989739 
L 368.268831 99.560375 
L 368.656246 95.43889 
L 369.043662 98.01313 
L 369.431078 98.645369 
L 369.818494 97.40337 
L 370.20591 94.347089 
L 370.593326 98.97627 
L 370.980742 98.823017 
L 371.368158 95.525142 
L 371.755574 96.084168 
L 372.14299 95.526991 
L 372.530406 91.058898 
L 373.305238 86.656295 
L 373.692654 87.000904 
L 374.080069 86.832527 
L 374.467485 85.743587 
L 374.854901 87.086508 
L 375.242317 85.658995 
L 375.629733 86.621318 
L 376.017149 85.280588 
L 376.791981 90.491939 
L 377.179397 91.984926 
L 377.566813 90.960709 
L 377.954229 92.559107 
L 378.341645 92.114424 
L 378.729061 91.463741 
L 379.116476 91.172624 
L 379.503892 93.276715 
L 379.891308 93.938226 
L 380.278724 91.27593 
L 380.66614 92.186845 
L 381.053556 94.588428 
L 381.440972 92.115773 
L 381.828388 93.762207 
L 382.215804 94.284301 
L 382.60322 92.828467 
L 382.990636 88.087204 
L 383.378052 76.341277 
L 383.765468 81.862143 
L 384.152883 89.078789 
L 384.540299 89.079703 
L 384.927715 91.564346 
L 385.315131 90.569089 
L 386.089963 87.373407 
L 386.477379 86.666096 
L 386.864795 89.060396 
L 387.252211 74.022462 
L 388.027043 74.022462 
L 388.414459 85.344694 
L 388.801875 84.095543 
L 389.189291 84.554512 
L 389.576706 89.170756 
L 389.964122 88.470759 
L 390.351538 84.868369 
L 390.738954 85.830983 
L 391.12637 84.545278 
L 391.513786 85.436743 
L 391.901202 82.52799 
L 392.288618 77.249112 
L 392.676034 78.011513 
L 393.06345 73.858125 
L 393.450866 74.70877 
L 393.838282 74.345007 
L 394.225698 74.901429 
L 394.613113 74.74509 
L 395.000529 74.061505 
L 395.387945 75.717552 
L 395.775361 75.507941 
L 396.162777 75.529112 
L 396.550193 79.13828 
L 396.937609 79.954332 
L 397.325025 81.350862 
L 397.712441 82.228016 
L 398.487273 81.781928 
L 398.487273 81.781928 
" clip-path="url(#pb59ed9460e)" style="fill: none; stroke: #ff7f0e; stroke-width: 1.5; stroke-linecap: square"/>
   </g>
   <g id="line2d_17">
    <path d="M 73.832727 295.243918 
L 79.643966 295.215433 
L 80.031382 295.279722 
L 80.806214 295.173949 
L 81.19363 295.254996 
L 81.581046 295.160317 
L 81.968462 295.254445 
L 83.130709 295.15856 
L 93.978355 295.219228 
L 94.365771 295.179593 
L 94.753187 295.270804 
L 95.915435 294.983834 
L 96.302851 295.167233 
L 124.971629 295.297767 
L 125.359045 295.219718 
L 126.133877 295.363793 
L 128.845789 295.311338 
L 129.620621 295.330012 
L 130.008036 295.281847 
L 130.782868 295.390046 
L 131.945116 295.359416 
L 132.332532 295.417004 
L 133.49478 295.282945 
L 133.882196 295.372854 
L 134.657028 295.240143 
L 135.044443 295.217716 
L 135.431859 295.342449 
L 135.819275 295.34371 
L 136.206691 295.229724 
L 137.368939 295.382932 
L 137.756355 295.245522 
L 138.918603 295.226123 
L 139.306019 295.089592 
L 140.468266 295.336544 
L 141.243098 295.08855 
L 141.630514 295.170895 
L 142.01793 295.059059 
L 143.95501 295.257754 
L 144.729842 295.179904 
L 145.117258 294.87137 
L 145.504673 295.071613 
L 145.892089 294.978129 
L 147.054337 295.157375 
L 147.441753 295.020333 
L 147.829169 295.065632 
L 148.604001 294.847742 
L 148.991417 294.89891 
L 149.766249 294.81964 
L 150.153665 294.956804 
L 150.928496 294.806861 
L 151.315912 295.041529 
L 155.190072 294.792227 
L 155.577488 294.586166 
L 155.964903 294.533849 
L 156.739735 294.707349 
L 157.514567 294.66514 
L 157.901983 294.916219 
L 159.451647 294.608476 
L 160.613895 294.643024 
L 161.00131 294.904288 
L 162.163558 294.466322 
L 162.93839 294.544749 
L 163.325806 294.487339 
L 163.713222 294.701945 
L 164.100638 294.492575 
L 164.87547 294.757961 
L 166.037718 294.391424 
L 167.199965 294.486578 
L 167.587381 294.282489 
L 167.974797 294.414163 
L 168.749629 294.123643 
L 169.137045 294.268285 
L 169.524461 294.165693 
L 169.911877 294.233762 
L 170.686709 294.187304 
L 171.46154 294.180143 
L 171.848956 294.076234 
L 172.236372 294.190241 
L 173.39862 294.026149 
L 173.786036 294.217219 
L 174.560868 294.070151 
L 174.948284 293.799473 
L 175.3357 293.676007 
L 175.723116 293.376329 
L 176.497947 293.3339 
L 176.885363 293.085962 
L 177.272779 293.577972 
L 177.660195 293.543031 
L 178.047611 293.260765 
L 178.435027 293.209479 
L 178.822443 292.825638 
L 179.209859 293.028537 
L 179.597275 292.495043 
L 180.372107 292.96124 
L 180.759523 292.862617 
L 181.146939 293.88189 
L 181.534355 293.809469 
L 181.92177 292.676542 
L 182.309186 292.552121 
L 182.696602 292.596409 
L 183.084018 292.809876 
L 183.471434 291.930184 
L 183.85885 292.668058 
L 184.246266 292.672548 
L 184.633682 292.253878 
L 185.021098 292.800662 
L 185.408514 292.051055 
L 185.79593 292.163274 
L 186.183346 292.58103 
L 186.958177 292.532727 
L 187.345593 292.811352 
L 187.733009 292.345968 
L 188.120425 292.621712 
L 188.507841 292.036892 
L 188.895257 292.487939 
L 189.282673 292.222032 
L 189.670089 292.599376 
L 190.057505 292.412014 
L 190.444921 292.737144 
L 191.219753 291.780883 
L 191.607169 292.555139 
L 191.994585 292.429462 
L 192.382 292.018918 
L 192.769416 292.272546 
L 193.156832 292.676072 
L 193.544248 292.260068 
L 194.31908 291.902781 
L 194.706496 291.390882 
L 195.093912 291.638499 
L 195.481328 291.479862 
L 195.868744 291.039944 
L 196.25616 291.16076 
L 196.643576 288.448261 
L 197.030992 291.983507 
L 197.418407 292.272561 
L 197.805823 291.30843 
L 198.193239 291.304784 
L 198.968071 290.720214 
L 199.355487 290.762448 
L 199.742903 290.48933 
L 200.130319 290.612668 
L 200.905151 290.039105 
L 201.292567 291.88632 
L 201.679983 292.587726 
L 202.067399 289.595352 
L 202.454814 289.926738 
L 203.229646 289.536926 
L 203.617062 289.710426 
L 204.004478 289.663354 
L 204.391894 290.248471 
L 204.77931 288.005228 
L 205.166726 289.618458 
L 205.554142 289.610925 
L 205.941558 288.955359 
L 206.328974 289.295811 
L 206.71639 289.817691 
L 207.103806 289.488736 
L 207.491222 289.566892 
L 207.878637 288.381296 
L 208.266053 288.929045 
L 208.653469 288.539085 
L 209.040885 287.934498 
L 209.428301 289.33159 
L 209.815717 288.26998 
L 210.203133 289.289376 
L 210.590549 288.253279 
L 210.977965 288.69742 
L 211.365381 288.113841 
L 211.752797 289.53286 
L 212.140213 289.225556 
L 212.527629 288.276549 
L 213.30246 289.135392 
L 213.689876 288.835984 
L 214.077292 287.709028 
L 214.464708 288.428066 
L 214.852124 286.769684 
L 215.23954 287.289423 
L 215.626956 286.448411 
L 216.401788 285.681071 
L 217.17662 285.826464 
L 217.564036 285.883991 
L 217.951452 284.812431 
L 218.338867 285.954455 
L 218.726283 285.65563 
L 219.113699 284.569065 
L 219.501115 284.818632 
L 219.888531 284.57407 
L 220.275947 284.682091 
L 221.050779 285.930117 
L 221.438195 287.749588 
L 221.825611 288.84527 
L 222.213027 284.584464 
L 222.600443 284.18031 
L 222.987859 284.229935 
L 223.375274 284.68752 
L 223.76269 284.608889 
L 224.150106 284.382402 
L 224.924938 285.220789 
L 225.312354 284.178594 
L 225.69977 284.42809 
L 226.087186 283.737746 
L 226.474602 284.897887 
L 226.862018 285.000973 
L 227.249434 283.957399 
L 228.024266 282.956677 
L 228.411681 282.331032 
L 228.799097 284.356338 
L 229.186513 283.346494 
L 229.573929 283.028076 
L 229.961345 283.998888 
L 230.348761 283.045738 
L 230.736177 283.790554 
L 231.123593 283.700829 
L 231.511009 283.252831 
L 231.898425 284.272762 
L 232.285841 284.784621 
L 232.673257 284.320973 
L 233.060673 283.502644 
L 233.448089 283.861034 
L 233.835504 284.71861 
L 234.22292 284.210807 
L 234.997752 282.208097 
L 235.385168 282.335685 
L 235.772584 280.445469 
L 236.547416 280.414543 
L 236.934832 279.25928 
L 237.322248 280.574875 
L 237.709664 280.380679 
L 238.09708 279.191232 
L 238.484496 278.561265 
L 238.871911 280.07029 
L 239.259327 278.741318 
L 240.034159 278.505041 
L 240.808991 279.044143 
L 241.196407 277.290995 
L 241.583823 279.877616 
L 241.971239 283.948527 
L 242.746071 277.336437 
L 243.133487 277.595944 
L 243.520903 277.055841 
L 243.908319 277.789747 
L 244.295734 278.254743 
L 244.68315 278.077954 
L 245.070566 278.046195 
L 245.457982 278.567211 
L 245.845398 277.710002 
L 246.232814 277.615113 
L 246.62023 277.126525 
L 247.007646 278.086376 
L 247.395062 278.232259 
L 247.782478 277.904857 
L 248.169894 277.959248 
L 248.55731 274.75926 
L 248.944726 278.89329 
L 249.332141 276.245459 
L 249.719557 276.292924 
L 250.106973 277.05817 
L 250.494389 279.087726 
L 250.881805 278.267068 
L 251.269221 276.940624 
L 251.656637 276.445544 
L 252.044053 279.222419 
L 252.431469 278.706633 
L 252.818885 278.715454 
L 253.206301 277.849256 
L 253.593717 278.745731 
L 253.981133 279.292199 
L 254.755964 279.880824 
L 255.530796 276.331348 
L 255.918212 276.633872 
L 256.305628 276.015346 
L 256.693044 276.898221 
L 257.08046 275.400754 
L 257.467876 275.741722 
L 257.855292 276.532874 
L 258.242708 275.253747 
L 258.630124 275.764109 
L 259.01754 277.096625 
L 259.404956 275.191138 
L 259.792371 274.162452 
L 260.179787 275.487415 
L 260.567203 275.613889 
L 260.954619 290.213422 
L 261.342035 280.210203 
L 261.729451 277.364841 
L 262.116867 282.383073 
L 262.504283 281.091739 
L 262.891699 275.180407 
L 263.279115 276.304319 
L 263.666531 274.88983 
L 264.053947 274.954023 
L 264.441363 274.814417 
L 264.828778 277.441204 
L 265.216194 275.930994 
L 265.60361 275.097628 
L 265.991026 274.614633 
L 266.378442 276.003369 
L 266.765858 276.15936 
L 267.153274 276.859914 
L 267.54069 276.635562 
L 267.928106 272.394313 
L 268.315522 274.388749 
L 268.702938 273.287852 
L 269.090354 276.44224 
L 269.47777 274.479057 
L 269.865186 273.986143 
L 270.640017 275.225783 
L 271.027433 274.178434 
L 271.802265 276.600172 
L 272.189681 277.536405 
L 272.577097 278.176464 
L 273.351929 276.547512 
L 274.126761 278.495285 
L 274.514177 277.779915 
L 274.901593 277.417275 
L 275.289008 277.518375 
L 275.676424 273.369272 
L 276.06384 272.900757 
L 277.226088 272.796807 
L 277.613504 273.298374 
L 278.00092 272.038513 
L 278.388336 272.537913 
L 278.775752 269.780739 
L 279.163168 272.752167 
L 279.550584 271.548816 
L 279.938 269.473772 
L 280.325415 271.799089 
L 280.712831 269.853609 
L 281.100247 271.135591 
L 281.487663 271.176513 
L 281.875079 272.427344 
L 282.262495 283.717454 
L 283.037327 272.202222 
L 283.424743 271.777821 
L 283.812159 271.52357 
L 284.199575 270.914121 
L 284.586991 273.219768 
L 284.974407 272.089625 
L 285.361823 272.813285 
L 285.749238 270.208633 
L 286.136654 271.872695 
L 286.911486 270.521499 
L 287.298902 271.556171 
L 287.686318 271.084132 
L 288.073734 270.426999 
L 288.46115 272.833807 
L 288.848566 269.798141 
L 289.235982 271.835823 
L 289.623398 270.145391 
L 290.010814 269.734949 
L 290.39823 269.830298 
L 291.173061 272.992357 
L 291.560477 271.07713 
L 291.947893 272.437232 
L 292.335309 272.769237 
L 292.722725 272.558339 
L 293.110141 273.371024 
L 293.497557 271.632484 
L 293.884973 273.240515 
L 294.272389 272.724264 
L 294.659805 272.925805 
L 295.047221 275.185841 
L 295.822053 270.157654 
L 296.209468 270.155453 
L 296.596884 270.302036 
L 296.9843 269.077346 
L 297.371716 269.79858 
L 297.759132 270.19257 
L 298.146548 267.813046 
L 298.533964 269.227019 
L 298.92138 268.86535 
L 299.696212 270.419388 
L 300.083628 267.058112 
L 300.85846 269.042864 
L 301.245875 269.006657 
L 301.633291 268.716892 
L 302.020707 270.425185 
L 302.408123 280.993785 
L 302.795539 280.768341 
L 303.182955 269.978035 
L 303.570371 268.584937 
L 303.957787 268.304316 
L 304.345203 268.620006 
L 304.732619 269.169359 
L 305.120035 270.548478 
L 305.507451 269.997337 
L 305.894867 270.599273 
L 306.282282 269.799954 
L 306.669698 269.315406 
L 307.057114 278.540723 
L 307.44453 283.080976 
L 307.831946 284.334753 
L 308.606778 282.146489 
L 309.38161 283.26965 
L 309.769026 283.259292 
L 310.156442 280.568092 
L 310.543858 280.603835 
L 310.931274 281.961247 
L 311.31869 277.493128 
L 311.706105 278.728621 
L 312.093521 278.327465 
L 312.480937 277.437093 
L 312.868353 281.014696 
L 313.255769 279.684115 
L 313.643185 280.189129 
L 314.030601 278.95144 
L 314.418017 278.352467 
L 314.805433 279.258059 
L 315.192849 278.635857 
L 315.580265 279.240469 
L 315.967681 278.707772 
L 316.355097 276.348188 
L 316.742512 276.434844 
L 317.129928 273.564623 
L 317.517344 275.552429 
L 317.90476 275.5672 
L 318.292176 273.945098 
L 318.679592 275.74163 
L 319.067008 276.830325 
L 319.454424 276.850791 
L 319.84184 276.378006 
L 320.229256 278.11008 
L 321.004088 275.382934 
L 321.391504 274.293498 
L 322.166335 277.809319 
L 322.553751 281.201328 
L 322.941167 285.635036 
L 323.715999 276.441402 
L 324.103415 277.349829 
L 325.265663 276.572877 
L 325.653079 278.067733 
L 326.040495 277.65648 
L 326.427911 273.706502 
L 326.815327 273.570108 
L 327.202742 272.144276 
L 327.590158 276.648847 
L 327.977574 274.514749 
L 328.36499 275.247153 
L 328.752406 276.321659 
L 329.139822 274.31567 
L 329.527238 270.863091 
L 329.914654 277.241007 
L 330.30207 275.113538 
L 330.689486 277.476518 
L 331.076902 279.082976 
L 331.464318 272.862823 
L 331.851734 271.9361 
L 332.239149 273.636267 
L 332.626565 277.16021 
L 333.013981 278.899434 
L 333.401397 277.017815 
L 333.788813 277.296618 
L 334.176229 278.749005 
L 334.563645 276.95776 
L 335.338477 277.044538 
L 335.725893 279.041702 
L 336.113309 274.447206 
L 336.500725 272.694712 
L 336.888141 274.7087 
L 337.275557 272.122584 
L 337.662972 273.821305 
L 338.050388 271.633654 
L 338.82522 273.41092 
L 339.212636 273.337728 
L 339.600052 274.172136 
L 339.987468 271.764419 
L 340.374884 271.336192 
L 340.7623 272.541846 
L 341.149716 271.980368 
L 341.537132 270.223236 
L 341.924548 271.504661 
L 342.311964 271.487852 
L 342.699379 275.196629 
L 343.086795 284.202012 
L 343.474211 279.309733 
L 343.861627 277.923842 
L 344.249043 273.511208 
L 344.636459 271.658053 
L 345.023875 275.972928 
L 345.411291 271.492291 
L 345.798707 270.60887 
L 346.186123 273.851552 
L 346.573539 272.819781 
L 346.960955 272.794509 
L 347.348371 271.175441 
L 347.735787 267.985234 
L 348.123202 273.587454 
L 348.510618 273.644174 
L 348.898034 262.237049 
L 349.28545 272.985957 
L 349.672866 271.997524 
L 350.060282 276.976729 
L 350.835114 272.147269 
L 351.22253 275.203136 
L 351.609946 275.164946 
L 351.997362 273.019841 
L 352.384778 273.137786 
L 352.772194 277.609653 
L 353.159609 271.374581 
L 353.547025 273.816208 
L 353.934441 277.792265 
L 354.321857 279.639526 
L 354.709273 277.163775 
L 355.096689 278.679731 
L 355.871521 278.31135 
L 356.258937 277.063656 
L 356.646353 275.354346 
L 357.033769 272.591451 
L 357.421185 271.373355 
L 357.808601 271.889616 
L 358.196016 271.170512 
L 358.583432 269.254319 
L 358.970848 273.253871 
L 359.358264 273.590365 
L 359.74568 270.442745 
L 360.133096 269.936245 
L 360.520512 273.622517 
L 360.907928 269.749578 
L 361.295344 274.8689 
L 361.68276 270.007271 
L 362.070176 269.694502 
L 362.457592 271.685465 
L 362.845008 275.814929 
L 363.232424 281.474998 
L 364.007255 272.245325 
L 364.394671 270.961029 
L 364.782087 270.799174 
L 365.169503 274.206107 
L 365.944335 271.387667 
L 366.331751 274.062026 
L 366.719167 274.254021 
L 367.106583 269.743857 
L 367.493999 273.647432 
L 367.881415 275.594664 
L 368.268831 270.54241 
L 368.656246 275.818602 
L 369.431078 270.07983 
L 370.20591 275.519414 
L 370.593326 270.826597 
L 370.980742 269.58378 
L 371.368158 274.475885 
L 371.755574 273.963777 
L 372.14299 271.715079 
L 372.530406 276.148808 
L 372.917822 277.086548 
L 373.305238 275.722482 
L 373.692654 276.882607 
L 374.080069 276.659379 
L 374.467485 277.314214 
L 374.854901 275.822933 
L 375.242317 277.625058 
L 375.629733 275.36475 
L 376.017149 278.228367 
L 376.791981 269.213872 
L 377.179397 269.237852 
L 377.566813 272.320427 
L 377.954229 271.52645 
L 378.341645 268.170303 
L 378.729061 271.083167 
L 379.116476 270.201074 
L 379.503892 272.194509 
L 379.891308 268.84163 
L 380.66614 271.868843 
L 381.053556 269.67635 
L 381.440972 273.360937 
L 381.828388 269.53537 
L 382.215804 271.335559 
L 382.60322 269.970175 
L 382.990636 274.367103 
L 383.378052 283.444264 
L 383.765468 281.276813 
L 384.152883 274.045319 
L 384.540299 273.240362 
L 384.927715 270.841531 
L 385.315131 270.381781 
L 385.702547 273.30509 
L 386.089963 271.964902 
L 386.477379 273.352504 
L 386.864795 270.959583 
L 387.252211 295.488 
L 388.027043 295.488 
L 388.414459 272.362891 
L 389.189291 274.678049 
L 389.576706 269.627501 
L 389.964122 268.684291 
L 390.351538 272.693762 
L 390.738954 271.002395 
L 391.12637 269.850029 
L 391.513786 269.867916 
L 391.901202 267.838114 
L 392.288618 274.131444 
L 392.676034 271.938199 
L 393.06345 276.475735 
L 393.450866 274.34723 
L 393.838282 278.743065 
L 394.225698 275.114693 
L 395.000529 277.665387 
L 395.387945 277.524024 
L 395.775361 276.36227 
L 396.162777 277.581801 
L 396.550193 272.94575 
L 396.937609 270.860384 
L 397.325025 271.067711 
L 398.099857 270.863928 
L 398.487273 294.718397 
L 398.487273 294.718397 
" clip-path="url(#pb59ed9460e)" style="fill: none; stroke: #2ca02c; stroke-width: 1.5; stroke-linecap: square"/>
   </g>
   <g id="patch_3">
    <path d="M 57.6 307.584 
L 57.6 41.472 
" style="fill: none; stroke: #000000; stroke-width: 0.8; stroke-linejoin: miter; stroke-linecap: square"/>
   </g>
   <g id="patch_4">
    <path d="M 414.72 307.584 
L 414.72 41.472 
" style="fill: none; stroke: #000000; stroke-width: 0.8; stroke-linejoin: miter; stroke-linecap: square"/>
   </g>
   <g id="patch_5">
    <path d="M 57.6 307.584 
L 414.72 307.584 
" style="fill: none; stroke: #000000; stroke-width: 0.8; stroke-linejoin: miter; stroke-linecap: square"/>
   </g>
   <g id="patch_6">
    <path d="M 57.6 41.472 
L 414.72 41.472 
" style="fill: none; stroke: #000000; stroke-width: 0.8; stroke-linejoin: miter; stroke-linecap: square"/>
   </g>
   <g id="legend_1">
    <g id="patch_7">
     <path d="M 64.6 93.506375 
L 186.25625 93.506375 
Q 188.25625 93.506375 188.25625 91.506375 
L 188.25625 48.472 
Q 188.25625 46.472 186.25625 46.472 
L 64.6 46.472 
Q 62.6 46.472 62.6 48.472 
L 62.6 91.506375 
Q 62.6 93.506375 64.6 93.506375 
z
" style="fill: #ffffff; opacity: 0.8; stroke: #cccccc; stroke-linejoin: miter"/>
    </g>
    <g id="line2d_18">
     <path d="M 66.6 54.570438 
L 76.6 54.570438 
L 86.6 54.570438 
" style="fill: none; stroke: #1f77b4; stroke-width: 1.5; stroke-linecap: square"/>
    </g>
    <g id="text_17">
     <!-- Weekly maximum -->
     <g transform="translate(94.6 58.070438) scale(0.1 -0.1)">
      <defs>
       <path id="DejaVuSans-57" d="M 213 4666 
L 850 4666 
L 1831 722 
L 2809 4666 
L 3519 4666 
L 4500 722 
L 5478 4666 
L 6119 4666 
L 4947 0 
L 4153 0 
L 3169 4050 
L 2175 0 
L 1381 0 
L 213 4666 
z
" transform="scale(0.015625)"/>
       <path id="DejaVuSans-6b" d="M 581 4863 
L 1159 4863 
L 1159 1991 
L 2875 3500 
L 3609 3500 
L 1753 1863 
L 3688 0 
L 2938 0 
L 1159 1709 
L 1159 0 
L 581 0 
L 581 4863 
z
" transform="scale(0.015625)"/>
       <path id="DejaVuSans-79" d="M 2059 -325 
Q 1816 -950 1584 -1140 
Q 1353 -1331 966 -1331 
L 506 -1331 
L 506 -850 
L 844 -850 
Q 1081 -850 1212 -737 
Q 1344 -625 1503 -206 
L 1606 56 
L 191 3500 
L 800 3500 
L 1894 763 
L 2988 3500 
L 3597 3500 
L 2059 -325 
z
" transform="scale(0.015625)"/>
       <path id="DejaVuSans-6d" d="M 3328 2828 
Q 3544 3216 3844 3400 
Q 4144 3584 4550 3584 
Q 5097 3584 5394 3201 
Q 5691 2819 5691 2113 
L 5691 0 
L 5113 0 
L 5113 2094 
Q 5113 2597 4934 2840 
Q 4756 3084 4391 3084 
Q 3944 3084 3684 2787 
Q 3425 2491 3425 1978 
L 3425 0 
L 2847 0 
L 2847 2094 
Q 2847 2600 2669 2842 
Q 2491 3084 2119 3084 
Q 1678 3084 1418 2786 
Q 1159 2488 1159 1978 
L 1159 0 
L 581 0 
L 581 3500 
L 1159 3500 
L 1159 2956 
Q 1356 3278 1631 3431 
Q 1906 3584 2284 3584 
Q 2666 3584 2933 3390 
Q 3200 3197 3328 2828 
z
" transform="scale(0.015625)"/>
       <path id="DejaVuSans-78" d="M 3513 3500 
L 2247 1797 
L 3578 0 
L 2900 0 
L 1881 1375 
L 863 0 
L 184 0 
L 1544 1831 
L 300 3500 
L 978 3500 
L 1906 2253 
L 2834 3500 
L 3513 3500 
z
" transform="scale(0.015625)"/>
       <path id="DejaVuSans-75" d="M 544 1381 
L 544 3500 
L 1119 3500 
L 1119 1403 
Q 1119 906 1312 657 
Q 1506 409 1894 409 
Q 2359 409 2629 706 
Q 2900 1003 2900 1516 
L 2900 3500 
L 3475 3500 
L 3475 0 
L 2900 0 
L 2900 538 
Q 2691 219 2414 64 
Q 2138 -91 1772 -91 
Q 1169 -91 856 284 
Q 544 659 544 1381 
z
M 1991 3584 
L 1991 3584 
z
" transform="scale(0.015625)"/>
      </defs>
      <use xlink:href="#DejaVuSans-57"/>
      <use xlink:href="#DejaVuSans-65" x="93.001953"/>
      <use xlink:href="#DejaVuSans-65" x="154.525391"/>
      <use xlink:href="#DejaVuSans-6b" x="216.048828"/>
      <use xlink:href="#DejaVuSans-6c" x="273.958984"/>
      <use xlink:href="#DejaVuSans-79" x="301.742188"/>
      <use xlink:href="#DejaVuSans-20" x="360.921875"/>
      <use xlink:href="#DejaVuSans-6d" x="392.708984"/>
      <use xlink:href="#DejaVuSans-61" x="490.121094"/>
      <use xlink:href="#DejaVuSans-78" x="551.400391"/>
      <use xlink:href="#DejaVuSans-69" x="610.580078"/>
      <use xlink:href="#DejaVuSans-6d" x="638.363281"/>
      <use xlink:href="#DejaVuSans-75" x="735.775391"/>
      <use xlink:href="#DejaVuSans-6d" x="799.154297"/>
     </g>
    </g>
    <g id="line2d_19">
     <path d="M 66.6 69.248563 
L 76.6 69.248563 
L 86.6 69.248563 
" style="fill: none; stroke: #ff7f0e; stroke-width: 1.5; stroke-linecap: square"/>
    </g>
    <g id="text_18">
     <!-- Weekly minimum -->
     <g transform="translate(94.6 72.748563) scale(0.1 -0.1)">
      <defs>
       <path id="DejaVuSans-6e" d="M 3513 2113 
L 3513 0 
L 2938 0 
L 2938 2094 
Q 2938 2591 2744 2837 
Q 2550 3084 2163 3084 
Q 1697 3084 1428 2787 
Q 1159 2491 1159 1978 
L 1159 0 
L 581 0 
L 581 3500 
L 1159 3500 
L 1159 2956 
Q 1366 3272 1645 3428 
Q 1925 3584 2291 3584 
Q 2894 3584 3203 3211 
Q 3513 2838 3513 2113 
z
" transform="scale(0.015625)"/>
      </defs>
      <use xlink:href="#DejaVuSans-57"/>
      <use xlink:href="#DejaVuSans-65" x="93.001953"/>
      <use xlink:href="#DejaVuSans-65" x="154.525391"/>
      <use xlink:href="#DejaVuSans-6b" x="216.048828"/>
      <use xlink:href="#DejaVuSans-6c" x="273.958984"/>
      <use xlink:href="#DejaVuSans-79" x="301.742188"/>
      <use xlink:href="#DejaVuSans-20" x="360.921875"/>
      <use xlink:href="#DejaVuSans-6d" x="392.708984"/>
      <use xlink:href="#DejaVuSans-69" x="490.121094"/>
      <use xlink:href="#DejaVuSans-6e" x="517.904297"/>
      <use xlink:href="#DejaVuSans-69" x="581.283203"/>
      <use xlink:href="#DejaVuSans-6d" x="609.066406"/>
      <use xlink:href="#DejaVuSans-75" x="706.478516"/>
      <use xlink:href="#DejaVuSans-6d" x="769.857422"/>
     </g>
    </g>
    <g id="line2d_20">
     <path d="M 66.6 83.926688 
L 76.6 83.926688 
L 86.6 83.926688 
" style="fill: none; stroke: #2ca02c; stroke-width: 1.5; stroke-linecap: square"/>
    </g>
    <g id="text_19">
     <!-- Weekly range -->
     <g transform="translate(94.6 87.426688) scale(0.1 -0.1)">
      <use xlink:href="#DejaVuSans-57"/>
      <use xlink:href="#DejaVuSans-65" x="93.001953"/>
      <use xlink:href="#DejaVuSans-65" x="154.525391"/>
      <use xlink:href="#DejaVuSans-6b" x="216.048828"/>
      <use xlink:href="#DejaVuSans-6c" x="273.958984"/>
      <use xlink:href="#DejaVuSans-79" x="301.742188"/>
      <use xlink:href="#DejaVuSans-20" x="360.921875"/>
      <use xlink:href="#DejaVuSans-72" x="392.708984"/>
      <use xlink:href="#DejaVuSans-61" x="433.822266"/>
      <use xlink:href="#DejaVuSans-6e" x="495.101562"/>
      <use xlink:href="#DejaVuSans-67" x="558.480469"/>
      <use xlink:href="#DejaVuSans-65" x="621.957031"/>
     </g>
    </g>
   </g>
  </g>
 </g>
 <defs>
  <clipPath id="pb59ed9460e">
   <rect x="57.6" y="41.472" width="357.12" height="266.112"/>
  </clipPath>
 </defs>
</svg>
