<?xml version="1.0" encoding="utf-8" standalone="no"?>
<!DOCTYPE svg PUBLIC "-//W3C//DTD SVG 1.1//EN"
  "http://www.w3.org/Graphics/SVG/1.1/DTD/svg11.dtd">
<svg xmlns:xlink="http://www.w3.org/1999/xlink" width="460.8pt" height="345.6pt" viewBox="0 0 460.8 345.6" xmlns="http://www.w3.org/2000/svg" version="1.1">
 <metadata>
  <rdf:RDF xmlns:dc="http://purl.org/dc/elements/1.1/" xmlns:cc="http://creativecommons.org/ns#" xmlns:rdf="http://www.w3.org/1999/02/22-rdf-syntax-ns#">
   <cc:Work>
    <dc:type rdf:resource="http://purl.org/dc/dcmitype/StillImage"/>
    <dc:date>2023-07-28T05:31:47.714545</dc:date>
    <dc:format>image/svg+xml</dc:format>
    <dc:creator>
     <cc:Agent>
      <dc:title>Matplotlib v3.7.2, https://matplotlib.org/</dc:title>
     </cc:Agent>
    </dc:creator>
   </cc:Work>
  </rdf:RDF>
 </metadata>
 <defs>
  <style type="text/css">*{stroke-linejoin: round; stroke-linecap: butt}</style>
 </defs>
 <g id="figure_1">
  <g id="patch_1">
   <path d="M 0 345.6 
L 460.8 345.6 
L 460.8 0 
L 0 0 
z
" style="fill: #ffffff"/>
  </g>
  <g id="axes_1">
   <g id="patch_2">
    <path d="M 57.6 307.584 
L 414.72 307.584 
L 414.72 41.472 
L 57.6 41.472 
z
" style="fill: #ffffff"/>
   </g>
   <g id="matplotlib.axis_1">
    <g id="xtick_1">
     <g id="line2d_1">
      <defs>
       <path id="m9193641670" d="M 0 0 
L 0 3.5 
" style="stroke: #000000; stroke-width: 0.8"/>
      </defs>
      <g>
       <use xlink:href="#m9193641670" x="59.268339" y="307.584" style="stroke: #000000; stroke-width: 0.8"/>
      </g>
     </g>
     <g id="text_1">
      <!-- 2008 -->
      <g transform="translate(46.543339 322.182437) scale(0.1 -0.1)">
       <defs>
        <path id="DejaVuSans-32" d="M 1228 531 
L 3431 531 
L 3431 0 
L 469 0 
L 469 531 
Q 828 903 1448 1529 
Q 2069 2156 2228 2338 
Q 2531 2678 2651 2914 
Q 2772 3150 2772 3378 
Q 2772 3750 2511 3984 
Q 2250 4219 1831 4219 
Q 1534 4219 1204 4116 
Q 875 4013 500 3803 
L 500 4441 
Q 881 4594 1212 4672 
Q 1544 4750 1819 4750 
Q 2544 4750 2975 4387 
Q 3406 4025 3406 3419 
Q 3406 3131 3298 2873 
Q 3191 2616 2906 2266 
Q 2828 2175 2409 1742 
Q 1991 1309 1228 531 
z
" transform="scale(0.015625)"/>
        <path id="DejaVuSans-30" d="M 2034 4250 
Q 1547 4250 1301 3770 
Q 1056 3291 1056 2328 
Q 1056 1369 1301 889 
Q 1547 409 2034 409 
Q 2525 409 2770 889 
Q 3016 1369 3016 2328 
Q 3016 3291 2770 3770 
Q 2525 4250 2034 4250 
z
M 2034 4750 
Q 2819 4750 3233 4129 
Q 3647 3509 3647 2328 
Q 3647 1150 3233 529 
Q 2819 -91 2034 -91 
Q 1250 -91 836 529 
Q 422 1150 422 2328 
Q 422 3509 836 4129 
Q 1250 4750 2034 4750 
z
" transform="scale(0.015625)"/>
        <path id="DejaVuSans-38" d="M 2034 2216 
Q 1584 2216 1326 1975 
Q 1069 1734 1069 1313 
Q 1069 891 1326 650 
Q 1584 409 2034 409 
Q 2484 409 2743 651 
Q 3003 894 3003 1313 
Q 3003 1734 2745 1975 
Q 2488 2216 2034 2216 
z
M 1403 2484 
Q 997 2584 770 2862 
Q 544 3141 544 3541 
Q 544 4100 942 4425 
Q 1341 4750 2034 4750 
Q 2731 4750 3128 4425 
Q 3525 4100 3525 3541 
Q 3525 3141 3298 2862 
Q 3072 2584 2669 2484 
Q 3125 2378 3379 2068 
Q 3634 1759 3634 1313 
Q 3634 634 3220 271 
Q 2806 -91 2034 -91 
Q 1263 -91 848 271 
Q 434 634 434 1313 
Q 434 1759 690 2068 
Q 947 2378 1403 2484 
z
M 1172 3481 
Q 1172 3119 1398 2916 
Q 1625 2713 2034 2713 
Q 2441 2713 2670 2916 
Q 2900 3119 2900 3481 
Q 2900 3844 2670 4047 
Q 2441 4250 2034 4250 
Q 1625 4250 1398 4047 
Q 1172 3844 1172 3481 
z
" transform="scale(0.015625)"/>
       </defs>
       <use xlink:href="#DejaVuSans-32"/>
       <use xlink:href="#DejaVuSans-30" x="63.623047"/>
       <use xlink:href="#DejaVuSans-30" x="127.246094"/>
       <use xlink:href="#DejaVuSans-38" x="190.869141"/>
      </g>
     </g>
    </g>
    <g id="xtick_2">
     <g id="line2d_2">
      <g>
       <use xlink:href="#m9193641670" x="102.901814" y="307.584" style="stroke: #000000; stroke-width: 0.8"/>
      </g>
     </g>
     <g id="text_2">
      <!-- 2010 -->
      <g transform="translate(90.176814 322.182437) scale(0.1 -0.1)">
       <defs>
        <path id="DejaVuSans-31" d="M 794 531 
L 1825 531 
L 1825 4091 
L 703 3866 
L 703 4441 
L 1819 4666 
L 2450 4666 
L 2450 531 
L 3481 531 
L 3481 0 
L 794 0 
L 794 531 
z
" transform="scale(0.015625)"/>
       </defs>
       <use xlink:href="#DejaVuSans-32"/>
       <use xlink:href="#DejaVuSans-30" x="63.623047"/>
       <use xlink:href="#DejaVuSans-31" x="127.246094"/>
       <use xlink:href="#DejaVuSans-30" x="190.869141"/>
      </g>
     </g>
    </g>
    <g id="xtick_3">
     <g id="line2d_3">
      <g>
       <use xlink:href="#m9193641670" x="146.475599" y="307.584" style="stroke: #000000; stroke-width: 0.8"/>
      </g>
     </g>
     <g id="text_3">
      <!-- 2012 -->
      <g transform="translate(133.750599 322.182437) scale(0.1 -0.1)">
       <use xlink:href="#DejaVuSans-32"/>
       <use xlink:href="#DejaVuSans-30" x="63.623047"/>
       <use xlink:href="#DejaVuSans-31" x="127.246094"/>
       <use xlink:href="#DejaVuSans-32" x="190.869141"/>
      </g>
     </g>
    </g>
    <g id="xtick_4">
     <g id="line2d_4">
      <g>
       <use xlink:href="#m9193641670" x="190.109075" y="307.584" style="stroke: #000000; stroke-width: 0.8"/>
      </g>
     </g>
     <g id="text_4">
      <!-- 2014 -->
      <g transform="translate(177.384075 322.182437) scale(0.1 -0.1)">
       <defs>
        <path id="DejaVuSans-34" d="M 2419 4116 
L 825 1625 
L 2419 1625 
L 2419 4116 
z
M 2253 4666 
L 3047 4666 
L 3047 1625 
L 3713 1625 
L 3713 1100 
L 3047 1100 
L 3047 0 
L 2419 0 
L 2419 1100 
L 313 1100 
L 313 1709 
L 2253 4666 
z
" transform="scale(0.015625)"/>
       </defs>
       <use xlink:href="#DejaVuSans-32"/>
       <use xlink:href="#DejaVuSans-30" x="63.623047"/>
       <use xlink:href="#DejaVuSans-31" x="127.246094"/>
       <use xlink:href="#DejaVuSans-34" x="190.869141"/>
      </g>
     </g>
    </g>
    <g id="xtick_5">
     <g id="line2d_5">
      <g>
       <use xlink:href="#m9193641670" x="233.68286" y="307.584" style="stroke: #000000; stroke-width: 0.8"/>
      </g>
     </g>
     <g id="text_5">
      <!-- 2016 -->
      <g transform="translate(220.95786 322.182437) scale(0.1 -0.1)">
       <defs>
        <path id="DejaVuSans-36" d="M 2113 2584 
Q 1688 2584 1439 2293 
Q 1191 2003 1191 1497 
Q 1191 994 1439 701 
Q 1688 409 2113 409 
Q 2538 409 2786 701 
Q 3034 994 3034 1497 
Q 3034 2003 2786 2293 
Q 2538 2584 2113 2584 
z
M 3366 4563 
L 3366 3988 
Q 3128 4100 2886 4159 
Q 2644 4219 2406 4219 
Q 1781 4219 1451 3797 
Q 1122 3375 1075 2522 
Q 1259 2794 1537 2939 
Q 1816 3084 2150 3084 
Q 2853 3084 3261 2657 
Q 3669 2231 3669 1497 
Q 3669 778 3244 343 
Q 2819 -91 2113 -91 
Q 1303 -91 875 529 
Q 447 1150 447 2328 
Q 447 3434 972 4092 
Q 1497 4750 2381 4750 
Q 2619 4750 2861 4703 
Q 3103 4656 3366 4563 
z
" transform="scale(0.015625)"/>
       </defs>
       <use xlink:href="#DejaVuSans-32"/>
       <use xlink:href="#DejaVuSans-30" x="63.623047"/>
       <use xlink:href="#DejaVuSans-31" x="127.246094"/>
       <use xlink:href="#DejaVuSans-36" x="190.869141"/>
      </g>
     </g>
    </g>
    <g id="xtick_6">
     <g id="line2d_6">
      <g>
       <use xlink:href="#m9193641670" x="277.316336" y="307.584" style="stroke: #000000; stroke-width: 0.8"/>
      </g>
     </g>
     <g id="text_6">
      <!-- 2018 -->
      <g transform="translate(264.591336 322.182437) scale(0.1 -0.1)">
       <use xlink:href="#DejaVuSans-32"/>
       <use xlink:href="#DejaVuSans-30" x="63.623047"/>
       <use xlink:href="#DejaVuSans-31" x="127.246094"/>
       <use xlink:href="#DejaVuSans-38" x="190.869141"/>
      </g>
     </g>
    </g>
    <g id="xtick_7">
     <g id="line2d_7">
      <g>
       <use xlink:href="#m9193641670" x="320.890121" y="307.584" style="stroke: #000000; stroke-width: 0.8"/>
      </g>
     </g>
     <g id="text_7">
      <!-- 2020 -->
      <g transform="translate(308.165121 322.182437) scale(0.1 -0.1)">
       <use xlink:href="#DejaVuSans-32"/>
       <use xlink:href="#DejaVuSans-30" x="63.623047"/>
       <use xlink:href="#DejaVuSans-32" x="127.246094"/>
       <use xlink:href="#DejaVuSans-30" x="190.869141"/>
      </g>
     </g>
    </g>
    <g id="xtick_8">
     <g id="line2d_8">
      <g>
       <use xlink:href="#m9193641670" x="364.523596" y="307.584" style="stroke: #000000; stroke-width: 0.8"/>
      </g>
     </g>
     <g id="text_8">
      <!-- 2022 -->
      <g transform="translate(351.798596 322.182437) scale(0.1 -0.1)">
       <use xlink:href="#DejaVuSans-32"/>
       <use xlink:href="#DejaVuSans-30" x="63.623047"/>
       <use xlink:href="#DejaVuSans-32" x="127.246094"/>
       <use xlink:href="#DejaVuSans-32" x="190.869141"/>
      </g>
     </g>
    </g>
    <g id="xtick_9">
     <g id="line2d_9">
      <g>
       <use xlink:href="#m9193641670" x="408.097382" y="307.584" style="stroke: #000000; stroke-width: 0.8"/>
      </g>
     </g>
     <g id="text_9">
      <!-- 2024 -->
      <g transform="translate(395.372382 322.182437) scale(0.1 -0.1)">
       <use xlink:href="#DejaVuSans-32"/>
       <use xlink:href="#DejaVuSans-30" x="63.623047"/>
       <use xlink:href="#DejaVuSans-32" x="127.246094"/>
       <use xlink:href="#DejaVuSans-34" x="190.869141"/>
      </g>
     </g>
    </g>
    <g id="text_10">
     <!-- Updated 2023-07-28 05:31:47.712087 - Last record 2023-07-26 -->
     <g transform="translate(75.905312 335.860562) scale(0.1 -0.1)">
      <defs>
       <path id="DejaVuSans-55" d="M 556 4666 
L 1191 4666 
L 1191 1831 
Q 1191 1081 1462 751 
Q 1734 422 2344 422 
Q 2950 422 3222 751 
Q 3494 1081 3494 1831 
L 3494 4666 
L 4128 4666 
L 4128 1753 
Q 4128 841 3676 375 
Q 3225 -91 2344 -91 
Q 1459 -91 1007 375 
Q 556 841 556 1753 
L 556 4666 
z
" transform="scale(0.015625)"/>
       <path id="DejaVuSans-70" d="M 1159 525 
L 1159 -1331 
L 581 -1331 
L 581 3500 
L 1159 3500 
L 1159 2969 
Q 1341 3281 1617 3432 
Q 1894 3584 2278 3584 
Q 2916 3584 3314 3078 
Q 3713 2572 3713 1747 
Q 3713 922 3314 415 
Q 2916 -91 2278 -91 
Q 1894 -91 1617 61 
Q 1341 213 1159 525 
z
M 3116 1747 
Q 3116 2381 2855 2742 
Q 2594 3103 2138 3103 
Q 1681 3103 1420 2742 
Q 1159 2381 1159 1747 
Q 1159 1113 1420 752 
Q 1681 391 2138 391 
Q 2594 391 2855 752 
Q 3116 1113 3116 1747 
z
" transform="scale(0.015625)"/>
       <path id="DejaVuSans-64" d="M 2906 2969 
L 2906 4863 
L 3481 4863 
L 3481 0 
L 2906 0 
L 2906 525 
Q 2725 213 2448 61 
Q 2172 -91 1784 -91 
Q 1150 -91 751 415 
Q 353 922 353 1747 
Q 353 2572 751 3078 
Q 1150 3584 1784 3584 
Q 2172 3584 2448 3432 
Q 2725 3281 2906 2969 
z
M 947 1747 
Q 947 1113 1208 752 
Q 1469 391 1925 391 
Q 2381 391 2643 752 
Q 2906 1113 2906 1747 
Q 2906 2381 2643 2742 
Q 2381 3103 1925 3103 
Q 1469 3103 1208 2742 
Q 947 2381 947 1747 
z
" transform="scale(0.015625)"/>
       <path id="DejaVuSans-61" d="M 2194 1759 
Q 1497 1759 1228 1600 
Q 959 1441 959 1056 
Q 959 750 1161 570 
Q 1363 391 1709 391 
Q 2188 391 2477 730 
Q 2766 1069 2766 1631 
L 2766 1759 
L 2194 1759 
z
M 3341 1997 
L 3341 0 
L 2766 0 
L 2766 531 
Q 2569 213 2275 61 
Q 1981 -91 1556 -91 
Q 1019 -91 701 211 
Q 384 513 384 1019 
Q 384 1609 779 1909 
Q 1175 2209 1959 2209 
L 2766 2209 
L 2766 2266 
Q 2766 2663 2505 2880 
Q 2244 3097 1772 3097 
Q 1472 3097 1187 3025 
Q 903 2953 641 2809 
L 641 3341 
Q 956 3463 1253 3523 
Q 1550 3584 1831 3584 
Q 2591 3584 2966 3190 
Q 3341 2797 3341 1997 
z
" transform="scale(0.015625)"/>
       <path id="DejaVuSans-74" d="M 1172 4494 
L 1172 3500 
L 2356 3500 
L 2356 3053 
L 1172 3053 
L 1172 1153 
Q 1172 725 1289 603 
Q 1406 481 1766 481 
L 2356 481 
L 2356 0 
L 1766 0 
Q 1100 0 847 248 
Q 594 497 594 1153 
L 594 3053 
L 172 3053 
L 172 3500 
L 594 3500 
L 594 4494 
L 1172 4494 
z
" transform="scale(0.015625)"/>
       <path id="DejaVuSans-65" d="M 3597 1894 
L 3597 1613 
L 953 1613 
Q 991 1019 1311 708 
Q 1631 397 2203 397 
Q 2534 397 2845 478 
Q 3156 559 3463 722 
L 3463 178 
Q 3153 47 2828 -22 
Q 2503 -91 2169 -91 
Q 1331 -91 842 396 
Q 353 884 353 1716 
Q 353 2575 817 3079 
Q 1281 3584 2069 3584 
Q 2775 3584 3186 3129 
Q 3597 2675 3597 1894 
z
M 3022 2063 
Q 3016 2534 2758 2815 
Q 2500 3097 2075 3097 
Q 1594 3097 1305 2825 
Q 1016 2553 972 2059 
L 3022 2063 
z
" transform="scale(0.015625)"/>
       <path id="DejaVuSans-20" transform="scale(0.015625)"/>
       <path id="DejaVuSans-33" d="M 2597 2516 
Q 3050 2419 3304 2112 
Q 3559 1806 3559 1356 
Q 3559 666 3084 287 
Q 2609 -91 1734 -91 
Q 1441 -91 1130 -33 
Q 819 25 488 141 
L 488 750 
Q 750 597 1062 519 
Q 1375 441 1716 441 
Q 2309 441 2620 675 
Q 2931 909 2931 1356 
Q 2931 1769 2642 2001 
Q 2353 2234 1838 2234 
L 1294 2234 
L 1294 2753 
L 1863 2753 
Q 2328 2753 2575 2939 
Q 2822 3125 2822 3475 
Q 2822 3834 2567 4026 
Q 2313 4219 1838 4219 
Q 1578 4219 1281 4162 
Q 984 4106 628 3988 
L 628 4550 
Q 988 4650 1302 4700 
Q 1616 4750 1894 4750 
Q 2613 4750 3031 4423 
Q 3450 4097 3450 3541 
Q 3450 3153 3228 2886 
Q 3006 2619 2597 2516 
z
" transform="scale(0.015625)"/>
       <path id="DejaVuSans-2d" d="M 313 2009 
L 1997 2009 
L 1997 1497 
L 313 1497 
L 313 2009 
z
" transform="scale(0.015625)"/>
       <path id="DejaVuSans-37" d="M 525 4666 
L 3525 4666 
L 3525 4397 
L 1831 0 
L 1172 0 
L 2766 4134 
L 525 4134 
L 525 4666 
z
" transform="scale(0.015625)"/>
       <path id="DejaVuSans-35" d="M 691 4666 
L 3169 4666 
L 3169 4134 
L 1269 4134 
L 1269 2991 
Q 1406 3038 1543 3061 
Q 1681 3084 1819 3084 
Q 2600 3084 3056 2656 
Q 3513 2228 3513 1497 
Q 3513 744 3044 326 
Q 2575 -91 1722 -91 
Q 1428 -91 1123 -41 
Q 819 9 494 109 
L 494 744 
Q 775 591 1075 516 
Q 1375 441 1709 441 
Q 2250 441 2565 725 
Q 2881 1009 2881 1497 
Q 2881 1984 2565 2268 
Q 2250 2553 1709 2553 
Q 1456 2553 1204 2497 
Q 953 2441 691 2322 
L 691 4666 
z
" transform="scale(0.015625)"/>
       <path id="DejaVuSans-3a" d="M 750 794 
L 1409 794 
L 1409 0 
L 750 0 
L 750 794 
z
M 750 3309 
L 1409 3309 
L 1409 2516 
L 750 2516 
L 750 3309 
z
" transform="scale(0.015625)"/>
       <path id="DejaVuSans-2e" d="M 684 794 
L 1344 794 
L 1344 0 
L 684 0 
L 684 794 
z
" transform="scale(0.015625)"/>
       <path id="DejaVuSans-4c" d="M 628 4666 
L 1259 4666 
L 1259 531 
L 3531 531 
L 3531 0 
L 628 0 
L 628 4666 
z
" transform="scale(0.015625)"/>
       <path id="DejaVuSans-73" d="M 2834 3397 
L 2834 2853 
Q 2591 2978 2328 3040 
Q 2066 3103 1784 3103 
Q 1356 3103 1142 2972 
Q 928 2841 928 2578 
Q 928 2378 1081 2264 
Q 1234 2150 1697 2047 
L 1894 2003 
Q 2506 1872 2764 1633 
Q 3022 1394 3022 966 
Q 3022 478 2636 193 
Q 2250 -91 1575 -91 
Q 1294 -91 989 -36 
Q 684 19 347 128 
L 347 722 
Q 666 556 975 473 
Q 1284 391 1588 391 
Q 1994 391 2212 530 
Q 2431 669 2431 922 
Q 2431 1156 2273 1281 
Q 2116 1406 1581 1522 
L 1381 1569 
Q 847 1681 609 1914 
Q 372 2147 372 2553 
Q 372 3047 722 3315 
Q 1072 3584 1716 3584 
Q 2034 3584 2315 3537 
Q 2597 3491 2834 3397 
z
" transform="scale(0.015625)"/>
       <path id="DejaVuSans-72" d="M 2631 2963 
Q 2534 3019 2420 3045 
Q 2306 3072 2169 3072 
Q 1681 3072 1420 2755 
Q 1159 2438 1159 1844 
L 1159 0 
L 581 0 
L 581 3500 
L 1159 3500 
L 1159 2956 
Q 1341 3275 1631 3429 
Q 1922 3584 2338 3584 
Q 2397 3584 2469 3576 
Q 2541 3569 2628 3553 
L 2631 2963 
z
" transform="scale(0.015625)"/>
       <path id="DejaVuSans-63" d="M 3122 3366 
L 3122 2828 
Q 2878 2963 2633 3030 
Q 2388 3097 2138 3097 
Q 1578 3097 1268 2742 
Q 959 2388 959 1747 
Q 959 1106 1268 751 
Q 1578 397 2138 397 
Q 2388 397 2633 464 
Q 2878 531 3122 666 
L 3122 134 
Q 2881 22 2623 -34 
Q 2366 -91 2075 -91 
Q 1284 -91 818 406 
Q 353 903 353 1747 
Q 353 2603 823 3093 
Q 1294 3584 2113 3584 
Q 2378 3584 2631 3529 
Q 2884 3475 3122 3366 
z
" transform="scale(0.015625)"/>
       <path id="DejaVuSans-6f" d="M 1959 3097 
Q 1497 3097 1228 2736 
Q 959 2375 959 1747 
Q 959 1119 1226 758 
Q 1494 397 1959 397 
Q 2419 397 2687 759 
Q 2956 1122 2956 1747 
Q 2956 2369 2687 2733 
Q 2419 3097 1959 3097 
z
M 1959 3584 
Q 2709 3584 3137 3096 
Q 3566 2609 3566 1747 
Q 3566 888 3137 398 
Q 2709 -91 1959 -91 
Q 1206 -91 779 398 
Q 353 888 353 1747 
Q 353 2609 779 3096 
Q 1206 3584 1959 3584 
z
" transform="scale(0.015625)"/>
      </defs>
      <use xlink:href="#DejaVuSans-55"/>
      <use xlink:href="#DejaVuSans-70" x="73.193359"/>
      <use xlink:href="#DejaVuSans-64" x="136.669922"/>
      <use xlink:href="#DejaVuSans-61" x="200.146484"/>
      <use xlink:href="#DejaVuSans-74" x="261.425781"/>
      <use xlink:href="#DejaVuSans-65" x="300.634766"/>
      <use xlink:href="#DejaVuSans-64" x="362.158203"/>
      <use xlink:href="#DejaVuSans-20" x="425.634766"/>
      <use xlink:href="#DejaVuSans-32" x="457.421875"/>
      <use xlink:href="#DejaVuSans-30" x="521.044922"/>
      <use xlink:href="#DejaVuSans-32" x="584.667969"/>
      <use xlink:href="#DejaVuSans-33" x="648.291016"/>
      <use xlink:href="#DejaVuSans-2d" x="711.914062"/>
      <use xlink:href="#DejaVuSans-30" x="747.998047"/>
      <use xlink:href="#DejaVuSans-37" x="811.621094"/>
      <use xlink:href="#DejaVuSans-2d" x="875.244141"/>
      <use xlink:href="#DejaVuSans-32" x="911.328125"/>
      <use xlink:href="#DejaVuSans-38" x="974.951172"/>
      <use xlink:href="#DejaVuSans-20" x="1038.574219"/>
      <use xlink:href="#DejaVuSans-30" x="1070.361328"/>
      <use xlink:href="#DejaVuSans-35" x="1133.984375"/>
      <use xlink:href="#DejaVuSans-3a" x="1197.607422"/>
      <use xlink:href="#DejaVuSans-33" x="1231.298828"/>
      <use xlink:href="#DejaVuSans-31" x="1294.921875"/>
      <use xlink:href="#DejaVuSans-3a" x="1358.544922"/>
      <use xlink:href="#DejaVuSans-34" x="1392.236328"/>
      <use xlink:href="#DejaVuSans-37" x="1455.859375"/>
      <use xlink:href="#DejaVuSans-2e" x="1519.482422"/>
      <use xlink:href="#DejaVuSans-37" x="1551.269531"/>
      <use xlink:href="#DejaVuSans-31" x="1614.892578"/>
      <use xlink:href="#DejaVuSans-32" x="1678.515625"/>
      <use xlink:href="#DejaVuSans-30" x="1742.138672"/>
      <use xlink:href="#DejaVuSans-38" x="1805.761719"/>
      <use xlink:href="#DejaVuSans-37" x="1869.384766"/>
      <use xlink:href="#DejaVuSans-20" x="1933.007812"/>
      <use xlink:href="#DejaVuSans-2d" x="1964.794922"/>
      <use xlink:href="#DejaVuSans-20" x="2000.878906"/>
      <use xlink:href="#DejaVuSans-4c" x="2032.666016"/>
      <use xlink:href="#DejaVuSans-61" x="2088.378906"/>
      <use xlink:href="#DejaVuSans-73" x="2149.658203"/>
      <use xlink:href="#DejaVuSans-74" x="2201.757812"/>
      <use xlink:href="#DejaVuSans-20" x="2240.966797"/>
      <use xlink:href="#DejaVuSans-72" x="2272.753906"/>
      <use xlink:href="#DejaVuSans-65" x="2311.617188"/>
      <use xlink:href="#DejaVuSans-63" x="2373.140625"/>
      <use xlink:href="#DejaVuSans-6f" x="2428.121094"/>
      <use xlink:href="#DejaVuSans-72" x="2489.302734"/>
      <use xlink:href="#DejaVuSans-64" x="2528.666016"/>
      <use xlink:href="#DejaVuSans-20" x="2592.142578"/>
      <use xlink:href="#DejaVuSans-32" x="2623.929688"/>
      <use xlink:href="#DejaVuSans-30" x="2687.552734"/>
      <use xlink:href="#DejaVuSans-32" x="2751.175781"/>
      <use xlink:href="#DejaVuSans-33" x="2814.798828"/>
      <use xlink:href="#DejaVuSans-2d" x="2878.421875"/>
      <use xlink:href="#DejaVuSans-30" x="2914.505859"/>
      <use xlink:href="#DejaVuSans-37" x="2978.128906"/>
      <use xlink:href="#DejaVuSans-2d" x="3041.751953"/>
      <use xlink:href="#DejaVuSans-32" x="3077.835938"/>
      <use xlink:href="#DejaVuSans-36" x="3141.458984"/>
     </g>
    </g>
   </g>
   <g id="matplotlib.axis_2">
    <g id="ytick_1">
     <g id="line2d_10">
      <defs>
       <path id="m90999f8534" d="M 0 0 
L -3.5 0 
" style="stroke: #000000; stroke-width: 0.8"/>
      </defs>
      <g>
       <use xlink:href="#m90999f8534" x="57.6" y="295.563157" style="stroke: #000000; stroke-width: 0.8"/>
      </g>
     </g>
     <g id="text_11">
      <!-- 0 -->
      <g transform="translate(44.2375 299.362375) scale(0.1 -0.1)">
       <use xlink:href="#DejaVuSans-30"/>
      </g>
     </g>
    </g>
    <g id="ytick_2">
     <g id="line2d_11">
      <g>
       <use xlink:href="#m90999f8534" x="57.6" y="241.493625" style="stroke: #000000; stroke-width: 0.8"/>
      </g>
     </g>
     <g id="text_12">
      <!-- 10 -->
      <g transform="translate(37.875 245.292844) scale(0.1 -0.1)">
       <use xlink:href="#DejaVuSans-31"/>
       <use xlink:href="#DejaVuSans-30" x="63.623047"/>
      </g>
     </g>
    </g>
    <g id="ytick_3">
     <g id="line2d_12">
      <g>
       <use xlink:href="#m90999f8534" x="57.6" y="187.424094" style="stroke: #000000; stroke-width: 0.8"/>
      </g>
     </g>
     <g id="text_13">
      <!-- 20 -->
      <g transform="translate(37.875 191.223313) scale(0.1 -0.1)">
       <use xlink:href="#DejaVuSans-32"/>
       <use xlink:href="#DejaVuSans-30" x="63.623047"/>
      </g>
     </g>
    </g>
    <g id="ytick_4">
     <g id="line2d_13">
      <g>
       <use xlink:href="#m90999f8534" x="57.6" y="133.354563" style="stroke: #000000; stroke-width: 0.8"/>
      </g>
     </g>
     <g id="text_14">
      <!-- 30 -->
      <g transform="translate(37.875 137.153782) scale(0.1 -0.1)">
       <use xlink:href="#DejaVuSans-33"/>
       <use xlink:href="#DejaVuSans-30" x="63.623047"/>
      </g>
     </g>
    </g>
    <g id="ytick_5">
     <g id="line2d_14">
      <g>
       <use xlink:href="#m90999f8534" x="57.6" y="79.285032" style="stroke: #000000; stroke-width: 0.8"/>
      </g>
     </g>
     <g id="text_15">
      <!-- 40 -->
      <g transform="translate(37.875 83.08425) scale(0.1 -0.1)">
       <use xlink:href="#DejaVuSans-34"/>
       <use xlink:href="#DejaVuSans-30" x="63.623047"/>
      </g>
     </g>
    </g>
    <g id="text_16">
     <!-- IPv6 as % of total Google traffic -->
     <g transform="translate(31.795312 253.735813) rotate(-90) scale(0.1 -0.1)">
      <defs>
       <path id="DejaVuSans-49" d="M 628 4666 
L 1259 4666 
L 1259 0 
L 628 0 
L 628 4666 
z
" transform="scale(0.015625)"/>
       <path id="DejaVuSans-50" d="M 1259 4147 
L 1259 2394 
L 2053 2394 
Q 2494 2394 2734 2622 
Q 2975 2850 2975 3272 
Q 2975 3691 2734 3919 
Q 2494 4147 2053 4147 
L 1259 4147 
z
M 628 4666 
L 2053 4666 
Q 2838 4666 3239 4311 
Q 3641 3956 3641 3272 
Q 3641 2581 3239 2228 
Q 2838 1875 2053 1875 
L 1259 1875 
L 1259 0 
L 628 0 
L 628 4666 
z
" transform="scale(0.015625)"/>
       <path id="DejaVuSans-76" d="M 191 3500 
L 800 3500 
L 1894 563 
L 2988 3500 
L 3597 3500 
L 2284 0 
L 1503 0 
L 191 3500 
z
" transform="scale(0.015625)"/>
       <path id="DejaVuSans-25" d="M 4653 2053 
Q 4381 2053 4226 1822 
Q 4072 1591 4072 1178 
Q 4072 772 4226 539 
Q 4381 306 4653 306 
Q 4919 306 5073 539 
Q 5228 772 5228 1178 
Q 5228 1588 5073 1820 
Q 4919 2053 4653 2053 
z
M 4653 2450 
Q 5147 2450 5437 2106 
Q 5728 1763 5728 1178 
Q 5728 594 5436 251 
Q 5144 -91 4653 -91 
Q 4153 -91 3862 251 
Q 3572 594 3572 1178 
Q 3572 1766 3864 2108 
Q 4156 2450 4653 2450 
z
M 1428 4353 
Q 1159 4353 1004 4120 
Q 850 3888 850 3481 
Q 850 3069 1003 2837 
Q 1156 2606 1428 2606 
Q 1700 2606 1854 2837 
Q 2009 3069 2009 3481 
Q 2009 3884 1853 4118 
Q 1697 4353 1428 4353 
z
M 4250 4750 
L 4750 4750 
L 1831 -91 
L 1331 -91 
L 4250 4750 
z
M 1428 4750 
Q 1922 4750 2215 4408 
Q 2509 4066 2509 3481 
Q 2509 2891 2217 2550 
Q 1925 2209 1428 2209 
Q 931 2209 642 2551 
Q 353 2894 353 3481 
Q 353 4063 643 4406 
Q 934 4750 1428 4750 
z
" transform="scale(0.015625)"/>
       <path id="DejaVuSans-66" d="M 2375 4863 
L 2375 4384 
L 1825 4384 
Q 1516 4384 1395 4259 
Q 1275 4134 1275 3809 
L 1275 3500 
L 2222 3500 
L 2222 3053 
L 1275 3053 
L 1275 0 
L 697 0 
L 697 3053 
L 147 3053 
L 147 3500 
L 697 3500 
L 697 3744 
Q 697 4328 969 4595 
Q 1241 4863 1831 4863 
L 2375 4863 
z
" transform="scale(0.015625)"/>
       <path id="DejaVuSans-6c" d="M 603 4863 
L 1178 4863 
L 1178 0 
L 603 0 
L 603 4863 
z
" transform="scale(0.015625)"/>
       <path id="DejaVuSans-47" d="M 3809 666 
L 3809 1919 
L 2778 1919 
L 2778 2438 
L 4434 2438 
L 4434 434 
Q 4069 175 3628 42 
Q 3188 -91 2688 -91 
Q 1594 -91 976 548 
Q 359 1188 359 2328 
Q 359 3472 976 4111 
Q 1594 4750 2688 4750 
Q 3144 4750 3555 4637 
Q 3966 4525 4313 4306 
L 4313 3634 
Q 3963 3931 3569 4081 
Q 3175 4231 2741 4231 
Q 1884 4231 1454 3753 
Q 1025 3275 1025 2328 
Q 1025 1384 1454 906 
Q 1884 428 2741 428 
Q 3075 428 3337 486 
Q 3600 544 3809 666 
z
" transform="scale(0.015625)"/>
       <path id="DejaVuSans-67" d="M 2906 1791 
Q 2906 2416 2648 2759 
Q 2391 3103 1925 3103 
Q 1463 3103 1205 2759 
Q 947 2416 947 1791 
Q 947 1169 1205 825 
Q 1463 481 1925 481 
Q 2391 481 2648 825 
Q 2906 1169 2906 1791 
z
M 3481 434 
Q 3481 -459 3084 -895 
Q 2688 -1331 1869 -1331 
Q 1566 -1331 1297 -1286 
Q 1028 -1241 775 -1147 
L 775 -588 
Q 1028 -725 1275 -790 
Q 1522 -856 1778 -856 
Q 2344 -856 2625 -561 
Q 2906 -266 2906 331 
L 2906 616 
Q 2728 306 2450 153 
Q 2172 0 1784 0 
Q 1141 0 747 490 
Q 353 981 353 1791 
Q 353 2603 747 3093 
Q 1141 3584 1784 3584 
Q 2172 3584 2450 3431 
Q 2728 3278 2906 2969 
L 2906 3500 
L 3481 3500 
L 3481 434 
z
" transform="scale(0.015625)"/>
       <path id="DejaVuSans-69" d="M 603 3500 
L 1178 3500 
L 1178 0 
L 603 0 
L 603 3500 
z
M 603 4863 
L 1178 4863 
L 1178 4134 
L 603 4134 
L 603 4863 
z
" transform="scale(0.015625)"/>
      </defs>
      <use xlink:href="#DejaVuSans-49"/>
      <use xlink:href="#DejaVuSans-50" x="29.492188"/>
      <use xlink:href="#DejaVuSans-76" x="89.794922"/>
      <use xlink:href="#DejaVuSans-36" x="148.974609"/>
      <use xlink:href="#DejaVuSans-20" x="212.597656"/>
      <use xlink:href="#DejaVuSans-61" x="244.384766"/>
      <use xlink:href="#DejaVuSans-73" x="305.664062"/>
      <use xlink:href="#DejaVuSans-20" x="357.763672"/>
      <use xlink:href="#DejaVuSans-25" x="389.550781"/>
      <use xlink:href="#DejaVuSans-20" x="484.570312"/>
      <use xlink:href="#DejaVuSans-6f" x="516.357422"/>
      <use xlink:href="#DejaVuSans-66" x="577.539062"/>
      <use xlink:href="#DejaVuSans-20" x="612.744141"/>
      <use xlink:href="#DejaVuSans-74" x="644.53125"/>
      <use xlink:href="#DejaVuSans-6f" x="683.740234"/>
      <use xlink:href="#DejaVuSans-74" x="744.921875"/>
      <use xlink:href="#DejaVuSans-61" x="784.130859"/>
      <use xlink:href="#DejaVuSans-6c" x="845.410156"/>
      <use xlink:href="#DejaVuSans-20" x="873.193359"/>
      <use xlink:href="#DejaVuSans-47" x="904.980469"/>
      <use xlink:href="#DejaVuSans-6f" x="982.470703"/>
      <use xlink:href="#DejaVuSans-6f" x="1043.652344"/>
      <use xlink:href="#DejaVuSans-67" x="1104.833984"/>
      <use xlink:href="#DejaVuSans-6c" x="1168.310547"/>
      <use xlink:href="#DejaVuSans-65" x="1196.09375"/>
      <use xlink:href="#DejaVuSans-20" x="1257.617188"/>
      <use xlink:href="#DejaVuSans-74" x="1289.404297"/>
      <use xlink:href="#DejaVuSans-72" x="1328.613281"/>
      <use xlink:href="#DejaVuSans-61" x="1369.726562"/>
      <use xlink:href="#DejaVuSans-66" x="1431.005859"/>
      <use xlink:href="#DejaVuSans-66" x="1466.210938"/>
      <use xlink:href="#DejaVuSans-69" x="1501.416016"/>
      <use xlink:href="#DejaVuSans-63" x="1529.199219"/>
     </g>
    </g>
   </g>
   <g id="line2d_15">
    <path d="M 73.832727 294.578048 
L 75.504051 294.411086 
L 75.921881 294.570072 
L 77.593205 294.569375 
L 79.264528 294.424452 
L 79.682359 294.296297 
L 80.935851 294.317557 
L 82.189344 294.286672 
L 82.607174 294.358828 
L 84.278498 294.211386 
L 85.949821 294.268927 
L 87.621144 294.192591 
L 90.963791 294.258778 
L 91.381622 294.362797 
L 93.470776 294.337525 
L 94.724268 294.287878 
L 96.395591 294.190829 
L 97.231253 294.199691 
L 97.649084 293.936459 
L 100.156069 293.846162 
L 100.99173 293.811515 
L 103.080885 293.895317 
L 105.170039 293.946359 
L 107.259193 293.913236 
L 108.512685 294.104999 
L 109.766178 294.052 
L 110.184008 294.038228 
L 111.01967 294.22466 
L 113.108824 294.241697 
L 114.362317 294.35879 
L 116.451471 294.271062 
L 117.287132 294.16481 
L 117.704963 294.077229 
L 118.540625 294.072914 
L 121.465441 294.009274 
L 122.301102 294.100981 
L 122.718933 293.971804 
L 125.225918 294.211408 
L 128.568564 294.038796 
L 128.986395 294.044571 
L 129.404226 293.921616 
L 130.239888 294.024462 
L 131.075549 293.833564 
L 131.49338 293.881021 
L 131.911211 293.763825 
L 132.329042 293.815137 
L 133.164703 293.706085 
L 134.418196 293.690561 
L 134.836027 293.825113 
L 136.50735 293.855506 
L 137.343012 293.869953 
L 137.760842 293.831742 
L 138.178673 293.65421 
L 139.849996 293.556988 
L 140.267827 293.653832 
L 144.028305 293.333924 
L 144.863966 293.136251 
L 145.699628 293.285575 
L 148.206613 292.896047 
L 150.295767 292.756321 
L 150.713598 292.549543 
L 151.131429 292.629225 
L 151.549259 292.446183 
L 154.056244 292.067291 
L 156.145398 291.58106 
L 157.398891 291.456062 
L 157.816722 291.558167 
L 159.905876 291.174122 
L 161.159368 290.794662 
L 161.577199 290.852073 
L 161.99503 290.511424 
L 162.412861 290.347101 
L 164.084184 290.148969 
L 164.502015 290.30875 
L 165.337676 290.115776 
L 165.755507 290.067908 
L 166.173338 289.819431 
L 167.009 289.653633 
L 168.680323 289.636363 
L 169.515985 289.424556 
L 170.769477 289.26849 
L 171.187308 289.064437 
L 171.605139 289.044756 
L 172.022969 289.150267 
L 173.694293 288.387427 
L 174.112124 288.404902 
L 175.783447 287.925219 
L 176.201278 287.603754 
L 176.619108 287.529998 
L 177.036939 287.33106 
L 177.45477 287.363458 
L 178.708263 286.874945 
L 179.126093 286.961327 
L 179.543924 286.720874 
L 179.961755 286.678613 
L 182.050909 285.548966 
L 182.886571 285.205057 
L 183.722232 284.602744 
L 184.975725 283.114145 
L 185.393556 283.351245 
L 185.811386 283.392262 
L 187.064879 281.97803 
L 187.48271 281.808452 
L 187.900541 281.093615 
L 188.736202 280.870627 
L 189.571864 280.39482 
L 189.989695 280.444407 
L 191.243187 279.6638 
L 191.661018 279.498001 
L 192.078849 279.191384 
L 192.91451 279.118731 
L 193.332341 278.424132 
L 193.750172 278.414978 
L 194.168003 277.651316 
L 194.585834 277.255819 
L 195.421495 277.369333 
L 195.839326 277.086592 
L 196.257157 276.651057 
L 197.092819 276.144057 
L 197.510649 275.690814 
L 197.92848 275.968699 
L 199.599803 275.079423 
L 200.017634 274.75061 
L 200.435465 273.399396 
L 200.853296 273.655713 
L 201.688958 272.738174 
L 202.106788 272.698779 
L 202.524619 273.095439 
L 203.778112 272.192878 
L 204.195942 271.580573 
L 205.031604 271.627781 
L 205.449435 270.965251 
L 205.867266 270.919648 
L 206.285097 267.409709 
L 206.702927 269.719067 
L 207.120758 271.094791 
L 207.538589 270.426313 
L 207.95642 270.052752 
L 208.374251 269.992551 
L 208.792081 269.113364 
L 209.209912 268.83788 
L 210.463405 266.929631 
L 210.881236 265.683658 
L 211.299066 264.972492 
L 211.716897 264.006978 
L 212.134728 263.369509 
L 212.552559 264.387573 
L 212.97039 264.231772 
L 213.38822 264.259958 
L 213.806051 264.424422 
L 214.223882 264.731515 
L 214.641713 264.614352 
L 215.059544 262.369152 
L 215.477375 262.701247 
L 216.730867 261.518174 
L 217.148698 261.358939 
L 217.984359 261.428948 
L 218.40219 259.73177 
L 218.820021 259.669958 
L 219.655683 258.330585 
L 220.073514 258.78723 
L 220.491344 256.696734 
L 220.909175 257.190854 
L 221.327006 255.779644 
L 221.744837 255.103883 
L 222.162668 254.089204 
L 222.580498 254.793838 
L 222.998329 253.726457 
L 223.41616 251.950738 
L 223.833991 252.845534 
L 224.251822 253.100618 
L 224.669653 252.549423 
L 225.087483 250.925769 
L 225.505314 251.37679 
L 225.923145 249.943266 
L 226.340976 250.27349 
L 227.176637 248.34005 
L 227.594468 247.360618 
L 228.847961 247.053114 
L 229.265792 245.922174 
L 229.683622 246.059797 
L 230.101453 245.635546 
L 230.519284 244.514658 
L 230.937115 244.230171 
L 231.354946 242.976861 
L 231.772776 242.117674 
L 232.190607 241.966253 
L 232.608438 242.177735 
L 233.026269 241.631043 
L 233.4441 239.30216 
L 234.279761 240.668205 
L 234.697592 240.405795 
L 235.533254 240.327162 
L 235.951085 240.373429 
L 236.786746 240.092441 
L 237.204577 238.78213 
L 237.622408 238.720102 
L 238.040239 237.558056 
L 238.458069 237.55479 
L 238.8759 237.378264 
L 240.129393 234.054712 
L 240.547224 232.097179 
L 240.965054 233.433978 
L 241.382885 232.873671 
L 241.800716 231.715529 
L 242.218547 231.973322 
L 242.636378 229.500711 
L 243.054208 229.863475 
L 243.472039 229.560291 
L 243.88987 227.834991 
L 244.307701 227.818662 
L 244.725532 226.53264 
L 245.143363 226.842291 
L 245.561193 225.825113 
L 245.979024 225.284759 
L 246.396855 225.57183 
L 246.814686 224.875333 
L 247.232517 223.788757 
L 247.650347 224.136106 
L 248.068178 223.620774 
L 248.486009 221.910842 
L 248.90384 221.195772 
L 249.321671 221.262661 
L 249.739502 219.263057 
L 250.157332 219.61865 
L 250.992994 217.237023 
L 251.410825 214.86045 
L 251.828656 215.095345 
L 252.664317 213.758984 
L 253.082148 212.261625 
L 253.499979 212.461802 
L 253.91781 211.834276 
L 254.335641 209.466723 
L 254.753471 208.636058 
L 255.171302 204.710761 
L 255.589133 207.262849 
L 256.006964 206.800143 
L 256.424795 207.408766 
L 256.842625 206.69407 
L 257.678287 207.854796 
L 258.096118 207.6234 
L 258.513949 206.605915 
L 258.93178 206.911916 
L 259.767441 205.616015 
L 260.185272 204.542216 
L 260.603103 204.371924 
L 261.020934 203.646051 
L 261.438764 201.035817 
L 261.856595 201.854901 
L 262.274426 198.354591 
L 262.692257 198.625544 
L 263.110088 196.722907 
L 263.527919 195.550188 
L 263.945749 194.844099 
L 264.36358 194.357068 
L 264.781411 193.393327 
L 265.199242 191.628211 
L 265.617073 188.718032 
L 266.034903 189.452918 
L 267.706227 186.13844 
L 268.124058 185.593338 
L 268.541888 185.613971 
L 268.959719 185.914289 
L 269.37755 184.883048 
L 269.795381 183.437758 
L 270.213212 184.73254 
L 270.631042 184.757531 
L 271.048873 185.911034 
L 271.466704 184.648662 
L 271.884535 182.686008 
L 272.302366 182.937496 
L 272.720197 182.090184 
L 273.973689 180.742701 
L 274.809351 179.752931 
L 275.227181 179.645716 
L 275.645012 193.99703 
L 276.062843 177.823811 
L 276.480674 177.04754 
L 276.898505 173.125596 
L 277.316336 176.764243 
L 278.151997 176.232566 
L 278.569828 176.229993 
L 278.987659 175.743059 
L 279.40549 175.503093 
L 279.82332 176.836139 
L 280.241151 177.68124 
L 280.658982 177.475798 
L 281.076813 176.33087 
L 281.494644 176.413083 
L 282.748136 175.450326 
L 283.165967 172.878185 
L 283.583798 173.893416 
L 284.001629 171.169306 
L 284.419459 172.317959 
L 284.83729 170.031434 
L 285.255121 168.603745 
L 285.672952 169.445548 
L 286.090783 167.694717 
L 286.508614 166.53219 
L 286.926444 166.284995 
L 287.344275 167.235402 
L 287.762106 167.73674 
L 289.015598 165.169091 
L 289.433429 165.759579 
L 289.85126 166.610542 
L 290.269091 166.775551 
L 290.686922 164.828091 
L 291.104753 164.102716 
L 291.522583 162.690987 
L 291.940414 162.343158 
L 292.358245 162.145447 
L 292.776076 162.293182 
L 293.193907 162.106966 
L 294.029568 160.16773 
L 294.447399 161.299113 
L 294.86523 157.715136 
L 295.283061 157.807319 
L 295.700892 157.370275 
L 296.118722 154.756311 
L 296.536553 153.972011 
L 296.954384 153.5006 
L 297.372215 153.504033 
L 297.790046 152.086887 
L 298.207876 151.990281 
L 299.043538 149.749618 
L 299.461369 151.228582 
L 299.8792 152.18119 
L 300.714861 149.912616 
L 301.132692 151.02527 
L 301.550523 150.821828 
L 301.968354 151.30615 
L 302.386185 149.593806 
L 302.804015 148.996348 
L 303.221846 150.290941 
L 303.639677 148.432592 
L 304.057508 148.581284 
L 304.475339 148.051191 
L 305.311 147.845695 
L 305.728831 144.174871 
L 306.146662 144.067943 
L 306.564493 144.357653 
L 306.982324 145.24554 
L 307.817985 140.961778 
L 308.235816 139.072032 
L 308.653647 138.592381 
L 309.071478 138.757131 
L 309.489309 138.412232 
L 309.907139 136.535068 
L 310.32497 138.083079 
L 310.742801 136.434893 
L 311.160632 137.964364 
L 311.578463 136.867947 
L 311.996293 136.204265 
L 312.414124 136.14892 
L 312.831955 136.223692 
L 313.249786 134.79444 
L 313.667617 134.956832 
L 314.085448 136.503697 
L 314.503278 135.979558 
L 314.921109 136.614064 
L 315.33894 136.873397 
L 315.756771 134.890997 
L 316.174602 136.078267 
L 316.592432 136.397304 
L 317.010263 135.660537 
L 317.428094 135.21037 
L 317.845925 133.434602 
L 318.263756 133.80939 
L 318.681587 133.422901 
L 319.099417 133.551073 
L 319.517248 132.518432 
L 319.935079 132.066713 
L 320.35291 130.759653 
L 320.770741 130.188343 
L 321.188571 130.996023 
L 321.606402 131.236167 
L 322.024233 131.290194 
L 322.859895 129.431445 
L 323.277726 129.877043 
L 323.695556 128.521634 
L 324.113387 129.108261 
L 324.531218 128.854751 
L 324.949049 127.917244 
L 325.36688 128.146353 
L 325.78471 128.790375 
L 326.202541 128.496778 
L 326.620372 128.512123 
L 327.038203 126.076847 
L 327.873865 124.343016 
L 328.291695 124.629287 
L 328.709526 124.023146 
L 329.127357 122.005763 
L 329.545188 122.658355 
L 329.963019 119.763424 
L 330.380849 122.080217 
L 330.79868 120.1623 
L 331.216511 117.540534 
L 331.634342 118.307477 
L 332.052173 116.670447 
L 332.470004 115.565811 
L 332.887834 115.671485 
L 333.305665 114.84275 
L 333.723496 116.920318 
L 334.141327 115.189515 
L 334.559158 115.8385 
L 334.976988 116.219269 
L 336.230481 113.563741 
L 336.648312 115.774671 
L 337.066143 115.81897 
L 337.483973 114.841593 
L 337.901804 115.395422 
L 338.319635 116.73819 
L 338.737466 115.693875 
L 339.155297 113.264012 
L 339.573127 117.297869 
L 339.990958 116.21125 
L 340.408789 114.638443 
L 340.82662 115.957832 
L 341.244451 116.053162 
L 341.662282 113.898567 
L 342.080112 112.825562 
L 342.497943 110.858496 
L 342.915774 111.817749 
L 343.333605 111.091006 
L 343.751436 111.315157 
L 344.169266 111.930939 
L 344.587097 110.358516 
L 345.004928 109.713817 
L 345.422759 110.879524 
L 345.84059 110.588981 
L 346.25842 108.066497 
L 346.676251 107.51163 
L 347.094082 105.79489 
L 347.511913 108.614011 
L 347.929744 109.548976 
L 348.347575 108.629842 
L 348.765405 108.454068 
L 349.183236 108.598217 
L 349.601067 103.626005 
L 350.018898 106.949956 
L 350.436729 105.03457 
L 351.27239 106.003501 
L 351.690221 101.294288 
L 352.108052 100.692441 
L 352.525883 98.798109 
L 352.943714 98.722715 
L 353.361544 100.436189 
L 353.779375 98.073253 
L 354.197206 97.608774 
L 354.615037 96.388511 
L 355.032868 95.947212 
L 355.450698 94.560777 
L 355.868529 94.768064 
L 356.28636 98.129442 
L 356.704191 96.316793 
L 357.122022 95.169065 
L 357.539853 97.35189 
L 357.957683 96.144787 
L 358.375514 95.719871 
L 358.793345 93.977102 
L 359.629007 96.750826 
L 360.046837 96.446203 
L 360.464668 96.881079 
L 360.882499 96.743294 
L 361.30033 95.18063 
L 361.718161 96.987429 
L 362.135992 94.816678 
L 362.553822 94.049009 
L 362.971653 93.968581 
L 363.807315 91.266099 
L 364.225146 88.250539 
L 364.642976 90.307138 
L 365.060807 94.148373 
L 365.478638 89.821561 
L 365.896469 89.618303 
L 366.3143 92.521831 
L 367.149961 88.657304 
L 367.567792 88.605646 
L 367.985623 89.421474 
L 368.403454 89.388183 
L 368.821285 90.01293 
L 369.239115 82.668357 
L 369.656946 81.884295 
L 370.074777 82.103238 
L 370.492608 80.602198 
L 370.910439 80.109868 
L 371.32827 77.499223 
L 371.7461 80.816416 
L 372.163931 82.109835 
L 372.581762 79.272044 
L 372.999593 81.14199 
L 373.417424 77.962026 
L 373.835254 76.342908 
L 374.253085 72.414946 
L 374.670916 73.471892 
L 375.088747 67.652037 
L 375.924409 71.731594 
L 376.342239 73.594533 
L 376.76007 71.897777 
L 377.177901 72.228763 
L 377.595732 72.940599 
L 378.013563 72.795671 
L 378.431393 74.864328 
L 378.849224 73.90002 
L 379.267055 72.388279 
L 379.684886 72.736968 
L 380.102717 71.187692 
L 380.520548 71.581318 
L 380.938378 69.686549 
L 381.356209 71.02411 
L 381.77404 74.633138 
L 382.191871 72.204459 
L 382.609702 68.52247 
L 383.027532 71.573868 
L 383.445363 69.801285 
L 383.863194 71.642352 
L 384.281025 69.979876 
L 384.698856 69.956237 
L 385.952348 63.555881 
L 386.370179 66.423512 
L 386.78801 66.204239 
L 387.205841 64.768833 
L 387.623671 65.191895 
L 388.041502 67.638044 
L 388.877164 65.524693 
L 389.294995 67.07359 
L 389.712826 66.202179 
L 390.130656 64.513647 
L 390.548487 64.546483 
L 391.384149 61.744708 
L 391.80198 62.96709 
L 392.21981 62.947263 
L 392.637641 60.286383 
L 393.055472 61.65711 
L 393.891134 61.427212 
L 394.308965 59.949319 
L 394.726795 61.636985 
L 395.144626 61.686654 
L 395.562457 58.716328 
L 395.980288 58.67995 
L 396.398119 57.274423 
L 396.815949 53.568 
L 397.23378 55.160926 
L 398.069442 54.286822 
L 398.487273 73.152044 
L 398.487273 73.152044 
" clip-path="url(#p14c8591aad)" style="fill: none; stroke: #1f77b4; stroke-width: 1.5; stroke-linecap: square"/>
   </g>
   <g id="line2d_16">
    <path d="M 73.832727 294.836435 
L 75.504051 294.699066 
L 75.921881 294.814034 
L 85.114159 294.561989 
L 85.949821 294.553257 
L 88.038975 294.487697 
L 90.128129 294.554819 
L 91.799452 294.551791 
L 97.649084 294.470174 
L 98.066915 294.27661 
L 113.944486 294.439592 
L 116.03364 294.500842 
L 121.465441 294.217507 
L 126.47941 294.395801 
L 132.329042 293.94956 
L 133.164703 293.8931 
L 134.000365 293.830666 
L 134.836027 293.927802 
L 135.671688 293.940568 
L 136.50735 293.991626 
L 137.760842 294.026133 
L 138.596504 293.725187 
L 139.432166 293.763652 
L 139.849996 293.843113 
L 141.52132 293.741906 
L 141.939151 293.796256 
L 142.356981 293.663824 
L 144.446135 293.616632 
L 145.281797 293.447903 
L 148.206613 293.353167 
L 150.295767 293.082474 
L 150.713598 293.202313 
L 151.96709 292.879989 
L 153.638413 292.61786 
L 154.474075 292.625235 
L 155.727568 292.21589 
L 157.398891 291.9287 
L 157.816722 292.052855 
L 159.488045 291.924834 
L 165.337676 290.871041 
L 165.755507 290.917319 
L 166.591169 290.652892 
L 167.42683 290.547743 
L 167.844661 290.30603 
L 169.098154 290.581141 
L 169.933815 290.391292 
L 170.351646 290.335487 
L 170.769477 290.100615 
L 171.187308 290.118203 
L 171.605139 289.944219 
L 172.858631 289.855317 
L 173.276462 289.607225 
L 174.529954 289.356358 
L 174.947785 289.359067 
L 175.365616 289.200146 
L 175.783447 289.183996 
L 177.45477 288.691206 
L 178.290432 288.45437 
L 178.708263 288.203499 
L 179.126093 288.345837 
L 180.379586 287.845039 
L 181.215247 287.427617 
L 181.633078 287.111316 
L 182.46874 286.891588 
L 182.886571 286.992547 
L 183.722232 286.838178 
L 184.975725 285.656964 
L 185.393556 285.373218 
L 185.811386 285.451224 
L 186.229217 285.298992 
L 187.48271 284.412062 
L 187.900541 284.261987 
L 188.736202 283.545479 
L 189.154033 283.447305 
L 189.571864 282.095064 
L 189.989695 282.221316 
L 190.407525 283.122141 
L 190.825356 283.024319 
L 191.661018 282.333089 
L 192.078849 282.957721 
L 192.49668 282.148939 
L 192.91451 282.099195 
L 193.332341 281.847804 
L 193.750172 281.259819 
L 194.168003 281.289698 
L 195.003664 280.389127 
L 195.421495 280.416286 
L 195.839326 280.215071 
L 196.257157 279.484581 
L 196.674988 279.731241 
L 197.092819 279.178337 
L 197.510649 279.34419 
L 197.92848 279.144592 
L 198.346311 279.226048 
L 198.764142 278.603064 
L 199.181973 278.627076 
L 199.599803 277.991505 
L 200.017634 278.101926 
L 200.853296 276.760466 
L 201.271127 276.495001 
L 201.688958 276.410577 
L 202.106788 276.102689 
L 202.524619 276.072172 
L 202.94245 276.190027 
L 203.360281 276.167675 
L 204.613773 275.727527 
L 205.031604 275.870833 
L 205.867266 275.500506 
L 206.285097 274.862042 
L 206.702927 273.428956 
L 207.120758 274.498684 
L 207.538589 274.850844 
L 207.95642 274.481144 
L 208.374251 274.695594 
L 208.792081 274.160587 
L 209.627743 273.468816 
L 210.045574 272.78302 
L 210.463405 272.352924 
L 210.881236 271.451909 
L 211.299066 268.785265 
L 211.716897 267.077235 
L 212.134728 269.607522 
L 212.552559 270.274777 
L 212.97039 270.293129 
L 213.38822 270.559821 
L 213.806051 270.540616 
L 214.223882 270.897539 
L 214.641713 270.160966 
L 215.059544 270.290485 
L 215.477375 268.914799 
L 215.895205 268.494414 
L 216.313036 268.733417 
L 217.148698 267.361581 
L 217.566529 267.732888 
L 217.984359 267.697088 
L 218.40219 267.254994 
L 218.820021 266.613329 
L 219.237852 266.279472 
L 219.655683 266.326793 
L 220.491344 264.337797 
L 220.909175 263.752775 
L 221.327006 263.438388 
L 221.744837 262.292455 
L 222.162668 261.895557 
L 223.41616 259.584847 
L 223.833991 259.977149 
L 224.669653 259.591308 
L 225.505314 258.850502 
L 225.923145 259.172556 
L 226.758807 258.764164 
L 227.594468 257.742325 
L 228.847961 257.220008 
L 229.265792 257.223431 
L 229.683622 256.152097 
L 230.101453 256.044185 
L 230.519284 256.073545 
L 230.937115 255.524863 
L 232.190607 252.808226 
L 232.608438 252.295799 
L 233.026269 249.822999 
L 233.4441 246.334216 
L 233.861931 251.510655 
L 234.279761 252.638632 
L 234.697592 252.323688 
L 235.115423 251.768312 
L 235.533254 251.843891 
L 235.951085 252.129919 
L 236.786746 250.961406 
L 237.622408 250.428226 
L 238.040239 249.996984 
L 238.458069 248.765583 
L 238.8759 248.479928 
L 239.293731 248.410119 
L 240.129393 247.320488 
L 240.547224 246.025269 
L 240.965054 245.218059 
L 241.382885 245.726783 
L 242.218547 244.135803 
L 242.636378 242.672206 
L 243.054208 242.2465 
L 243.472039 242.0383 
L 244.307701 239.691218 
L 244.725532 237.863338 
L 245.143363 238.66381 
L 245.561193 238.512924 
L 245.979024 237.593174 
L 246.396855 236.972407 
L 246.814686 236.813475 
L 247.232517 236.925858 
L 247.650347 238.194335 
L 248.068178 237.543938 
L 248.486009 237.835005 
L 248.90384 237.144505 
L 249.321671 237.219564 
L 249.739502 236.442931 
L 250.575163 234.270752 
L 250.992994 234.488934 
L 251.828656 231.416676 
L 252.246486 232.144663 
L 252.664317 231.57889 
L 253.082148 230.239945 
L 253.499979 230.140532 
L 253.91781 229.241897 
L 254.335641 228.730242 
L 254.753471 225.161356 
L 255.171302 216.926555 
L 255.589133 222.854658 
L 256.006964 226.015557 
L 256.424795 226.349463 
L 257.260456 226.001494 
L 257.678287 226.098083 
L 258.096118 226.053838 
L 258.513949 225.069973 
L 258.93178 224.824421 
L 259.34961 225.130898 
L 260.185272 223.979845 
L 261.020934 221.913139 
L 261.438764 219.649497 
L 261.856595 220.411001 
L 262.274426 220.298229 
L 262.692257 216.192859 
L 263.110088 217.093241 
L 263.945749 214.354089 
L 264.36358 211.718551 
L 264.781411 211.623567 
L 265.199242 211.262637 
L 266.034903 206.671815 
L 266.452734 206.367235 
L 266.870565 205.689387 
L 267.288396 205.358352 
L 268.124058 202.738364 
L 268.541888 202.513776 
L 268.959719 202.436191 
L 269.37755 203.584871 
L 269.795381 203.717169 
L 270.213212 204.691696 
L 270.631042 205.371464 
L 271.466704 205.913208 
L 271.884535 203.589603 
L 272.302366 203.00357 
L 272.720197 203.510353 
L 273.138027 202.475857 
L 273.555858 200.572404 
L 273.973689 202.229148 
L 274.39152 202.885898 
L 274.809351 200.925737 
L 275.227181 200.684636 
L 275.645012 199.580747 
L 276.062843 193.99703 
L 276.480674 196.232886 
L 276.898505 186.998594 
L 277.734166 197.963349 
L 278.151997 196.54059 
L 278.569828 198.035407 
L 278.987659 197.480519 
L 279.40549 197.388341 
L 279.82332 195.940646 
L 280.241151 198.384469 
L 280.658982 199.061236 
L 281.076813 198.427611 
L 281.494644 197.039695 
L 281.912475 196.566533 
L 282.330305 195.483147 
L 282.748136 195.407693 
L 283.165967 197.325377 
L 283.583798 196.229279 
L 284.001629 194.67059 
L 284.419459 192.479979 
L 284.83729 192.271698 
L 285.255121 191.365812 
L 285.672952 191.47647 
L 286.090783 189.144489 
L 286.508614 189.090696 
L 286.926444 187.485733 
L 287.344275 187.230233 
L 287.762106 186.740466 
L 288.179937 185.206995 
L 289.015598 185.219669 
L 289.85126 184.599188 
L 290.269091 185.521495 
L 290.686922 183.957929 
L 291.104753 183.125529 
L 291.522583 186.106079 
L 291.940414 186.254224 
L 292.358245 186.1132 
L 292.776076 186.20321 
L 293.193907 186.128075 
L 293.611737 184.635691 
L 294.029568 184.991576 
L 294.447399 185.594289 
L 294.86523 184.929083 
L 295.283061 181.875684 
L 295.700892 182.712518 
L 296.118722 182.295215 
L 296.536553 179.049313 
L 296.954384 180.637406 
L 298.207876 176.402507 
L 298.625707 163.162247 
L 299.043538 168.240852 
L 299.461369 175.879125 
L 299.8792 177.281007 
L 300.714861 175.926754 
L 301.132692 174.598628 
L 301.550523 175.591567 
L 301.968354 175.309816 
L 302.386185 176.35478 
L 302.804015 173.995731 
L 303.221846 176.079393 
L 304.057508 173.915741 
L 304.475339 173.885354 
L 304.89317 174.531771 
L 305.311 171.827635 
L 305.728831 171.370396 
L 306.146662 169.106359 
L 306.564493 171.185576 
L 306.982324 172.50796 
L 307.400154 169.9684 
L 308.235816 162.88613 
L 308.653647 164.433957 
L 309.071478 163.158889 
L 309.489309 162.462527 
L 309.907139 160.808622 
L 310.32497 161.496316 
L 310.742801 161.688565 
L 311.160632 161.515759 
L 311.578463 160.96585 
L 311.996293 160.088815 
L 312.414124 157.640974 
L 312.831955 160.733789 
L 313.249786 161.60938 
L 313.667617 161.774103 
L 314.085448 163.165794 
L 314.503278 163.938123 
L 315.33894 163.651376 
L 315.756771 164.187962 
L 316.174602 163.878387 
L 316.592432 164.58029 
L 317.428094 161.748236 
L 317.845925 163.530747 
L 318.263756 162.925184 
L 318.681587 161.417969 
L 319.099417 161.584471 
L 319.517248 160.858576 
L 319.935079 158.598443 
L 320.35291 146.103364 
L 320.770741 145.770712 
L 321.188571 158.00111 
L 321.606402 159.716001 
L 322.024233 160.067096 
L 322.442064 158.886763 
L 322.859895 157.292604 
L 323.695556 155.506288 
L 324.113387 155.4557 
L 324.531218 156.048356 
L 324.949049 155.623797 
L 325.36688 146.086899 
L 325.78471 141.924567 
L 326.202541 140.303709 
L 326.620372 141.512195 
L 327.873865 137.277475 
L 328.291695 137.574711 
L 328.709526 139.817499 
L 329.127357 137.762279 
L 329.545188 136.977903 
L 329.963019 138.812963 
L 330.380849 139.821852 
L 331.216511 136.649393 
L 331.634342 133.629052 
L 332.052173 133.400587 
L 332.470004 131.761339 
L 332.887834 133.177242 
L 333.305665 132.982586 
L 333.723496 134.101485 
L 334.141327 133.029351 
L 334.559158 133.038289 
L 334.976988 133.982975 
L 335.394819 135.653507 
L 335.81265 134.855257 
L 336.230481 136.772033 
L 337.066143 136.907315 
L 337.483973 137.647111 
L 337.901804 136.299114 
L 338.319635 136.489379 
L 338.737466 135.423398 
L 339.155297 133.49403 
L 339.573127 135.694298 
L 339.990958 136.137089 
L 340.408789 135.921855 
L 340.82662 138.39453 
L 341.244451 136.323278 
L 342.080112 127.949567 
L 342.497943 121.288936 
L 343.333605 131.253913 
L 343.751436 130.516394 
L 344.169266 131.436371 
L 344.587097 130.296655 
L 345.422759 129.320781 
L 345.84059 129.465596 
L 346.25842 131.124595 
L 346.676251 130.714115 
L 347.094082 130.506775 
L 347.511913 128.557314 
L 347.929744 131.751455 
L 348.765405 128.743735 
L 349.183236 131.011444 
L 349.601067 129.694164 
L 350.018898 126.266393 
L 350.436729 126.603165 
L 350.854559 124.56456 
L 351.27239 123.370013 
L 351.690221 125.245512 
L 352.108052 125.624702 
L 352.943714 118.124685 
L 353.361544 117.996999 
L 353.779375 117.625963 
L 354.197206 116.866341 
L 354.615037 114.108567 
L 355.032868 115.563497 
L 355.450698 114.187049 
L 355.868529 114.292485 
L 356.28636 115.539647 
L 356.704191 118.590775 
L 357.122022 119.298253 
L 357.539853 119.349051 
L 357.957683 120.879635 
L 358.375514 118.656437 
L 359.211176 119.844696 
L 359.629007 120.121829 
L 360.046837 119.894688 
L 360.464668 119.446252 
L 360.882499 121.857299 
L 361.30033 120.74796 
L 361.718161 121.278441 
L 362.135992 119.702077 
L 362.553822 120.794524 
L 363.389484 118.105836 
L 363.807315 112.746734 
L 364.225146 100.197991 
L 365.060807 112.741955 
L 365.478638 113.086399 
L 365.896469 114.844908 
L 366.3143 113.180669 
L 366.732131 115.985526 
L 367.149961 114.994583 
L 367.567792 111.510191 
L 367.985623 113.418262 
L 368.403454 113.411725 
L 368.821285 115.750432 
L 369.239115 111.783042 
L 369.656946 105.068417 
L 370.074777 105.227317 
L 370.492608 115.801966 
L 370.910439 103.93074 
L 371.7461 100.41262 
L 372.163931 104.161688 
L 372.581762 103.98076 
L 372.999593 102.615737 
L 373.417424 99.476201 
L 373.835254 100.127911 
L 374.670916 92.398077 
L 375.088747 93.178728 
L 375.506578 92.951598 
L 375.924409 90.464464 
L 376.342239 90.371876 
L 376.76007 91.295972 
L 377.177901 90.022154 
L 377.595732 90.875528 
L 378.013563 90.979033 
L 378.431393 94.368511 
L 378.849224 95.213694 
L 379.684886 98.264956 
L 380.102717 96.169162 
L 380.520548 97.324039 
L 380.938378 97.457769 
L 381.356209 94.561367 
L 381.77404 97.814179 
L 382.191871 98.7176 
L 382.609702 95.571796 
L 383.027532 94.720872 
L 383.445363 97.048219 
L 383.863194 93.469924 
L 384.281025 96.954014 
L 384.698856 97.261475 
L 385.116687 92.822788 
L 385.952348 78.390176 
L 386.370179 85.776501 
L 386.78801 90.809152 
L 387.205841 90.733314 
L 387.623671 91.327717 
L 388.041502 90.167255 
L 388.459333 90.303002 
L 388.877164 91.037531 
L 389.712826 88.680667 
L 390.130656 91.766637 
L 390.966318 84.372434 
L 391.384149 88.152343 
L 391.80198 83.789299 
L 392.21981 86.514415 
L 392.637641 87.183709 
L 393.055472 85.868916 
L 393.473303 82.633509 
L 393.891134 87.534004 
L 394.308965 87.371768 
L 394.726795 83.880607 
L 395.144626 84.472398 
L 395.562457 83.882564 
L 395.980288 79.152599 
L 396.815949 74.491962 
L 397.23378 74.85677 
L 397.651611 74.678524 
L 398.069442 73.525761 
L 398.487273 74.94739 
L 398.487273 74.94739 
" clip-path="url(#p14c8591aad)" style="fill: none; stroke: #ff7f0e; stroke-width: 1.5; stroke-linecap: square"/>
   </g>
   <g id="line2d_17">
    <path d="M 73.832727 295.304769 
L 80.10019 295.274615 
L 80.51802 295.342672 
L 81.353682 295.230699 
L 81.771513 295.316497 
L 82.189344 295.216268 
L 82.607174 295.315913 
L 83.860667 295.214408 
L 95.55993 295.278632 
L 95.977761 295.236674 
L 96.395591 295.333231 
L 97.649084 295.029442 
L 98.066915 295.223589 
L 113.526655 295.42928 
L 114.780147 295.433476 
L 118.958456 295.321093 
L 120.211948 295.322947 
L 120.629779 295.389172 
L 121.465441 295.354924 
L 122.301102 295.355622 
L 123.136764 295.365581 
L 123.554595 295.461776 
L 126.897241 295.366538 
L 136.50735 295.427037 
L 136.925181 295.488 
L 138.178673 295.346084 
L 138.596504 295.441262 
L 139.432166 295.300773 
L 139.849996 295.277032 
L 140.267827 295.409075 
L 140.685658 295.41041 
L 141.103489 295.289743 
L 142.356981 295.45193 
L 142.774812 295.306467 
L 144.028305 295.285931 
L 144.446135 295.141398 
L 145.699628 295.402824 
L 146.53529 295.140295 
L 146.95312 295.227466 
L 147.370951 295.109075 
L 149.460105 295.319417 
L 150.295767 295.237004 
L 150.713598 294.910386 
L 151.131429 295.122366 
L 151.549259 295.023402 
L 152.802752 295.213154 
L 153.220583 295.06808 
L 153.638413 295.116034 
L 154.474075 294.885373 
L 154.891906 294.93954 
L 155.727568 294.855624 
L 156.145398 295.000828 
L 156.98106 294.842096 
L 157.398891 295.090519 
L 161.577199 294.826605 
L 161.99503 294.608467 
L 162.412861 294.553084 
L 163.248522 294.736753 
L 164.084184 294.692069 
L 164.502015 294.957864 
L 166.173338 294.632085 
L 167.42683 294.668657 
L 167.844661 294.945234 
L 169.098154 294.481598 
L 169.933815 294.564622 
L 170.351646 294.503848 
L 170.769477 294.731032 
L 171.187308 294.50939 
L 172.022969 294.79033 
L 173.276462 294.402311 
L 174.529954 294.503042 
L 174.947785 294.286991 
L 175.365616 294.426383 
L 176.201278 294.118835 
L 176.619108 294.271955 
L 177.036939 294.163351 
L 177.45477 294.235409 
L 178.290432 294.186227 
L 179.126093 294.178647 
L 179.543924 294.068648 
L 179.961755 294.189336 
L 181.215247 294.015627 
L 181.633078 294.217896 
L 182.46874 294.062208 
L 182.886571 293.775667 
L 183.304402 293.644964 
L 183.722232 293.327722 
L 184.557894 293.282807 
L 184.975725 293.020337 
L 185.393556 293.541183 
L 185.811386 293.504194 
L 186.229217 293.205384 
L 186.647048 293.151093 
L 187.064879 292.744755 
L 187.48271 292.959547 
L 187.900541 292.394785 
L 188.736202 292.888304 
L 189.154033 292.783902 
L 189.571864 293.862913 
L 189.989695 293.786248 
L 190.407525 292.586921 
L 190.825356 292.455208 
L 191.243187 292.502091 
L 191.661018 292.728069 
L 192.078849 291.796819 
L 192.49668 292.57794 
L 192.91451 292.582693 
L 193.332341 292.139485 
L 193.750172 292.718315 
L 194.168003 291.924775 
L 194.585834 292.043571 
L 195.003664 292.485811 
L 195.421495 292.516203 
L 195.839326 292.434677 
L 196.257157 292.729632 
L 196.674988 292.236972 
L 197.092819 292.528877 
L 197.510649 291.909781 
L 197.92848 292.387264 
L 198.346311 292.105772 
L 198.764142 292.505233 
L 199.181973 292.306889 
L 199.599803 292.651074 
L 200.435465 291.638768 
L 200.853296 292.458403 
L 201.271127 292.32536 
L 201.688958 291.890754 
L 202.106788 292.159247 
L 202.524619 292.586423 
L 202.94245 292.146038 
L 203.778112 291.767811 
L 204.195942 291.22591 
L 204.613773 291.488039 
L 205.031604 291.320104 
L 205.449435 290.854403 
L 205.867266 290.982299 
L 206.285097 288.110823 
L 206.702927 291.853268 
L 207.120758 292.159263 
L 207.538589 291.138625 
L 207.95642 291.134765 
L 208.792081 290.515934 
L 209.209912 290.560644 
L 209.627743 290.271518 
L 210.045574 290.402085 
L 210.881236 289.794906 
L 211.299066 291.750384 
L 211.716897 292.492899 
L 212.134728 289.325144 
L 212.552559 289.675953 
L 213.38822 289.263294 
L 213.806051 289.446963 
L 214.223882 289.397132 
L 214.641713 290.016542 
L 215.059544 287.641824 
L 215.477375 289.349605 
L 215.895205 289.34163 
L 216.313036 288.647642 
L 216.730867 289.008048 
L 217.148698 289.560514 
L 217.566529 289.212279 
L 217.984359 289.295016 
L 218.40219 288.039933 
L 218.820021 288.619785 
L 219.237852 288.20697 
L 219.655683 287.566949 
L 220.073514 289.045924 
L 220.491344 287.922094 
L 220.909175 289.001235 
L 221.327006 287.904413 
L 221.744837 288.374585 
L 222.162668 287.756803 
L 222.580498 289.25899 
L 222.998329 288.933675 
L 223.41616 287.929047 
L 224.251822 288.838226 
L 224.669653 288.521271 
L 225.087483 287.328264 
L 225.505314 288.089444 
L 225.923145 286.333866 
L 226.340976 286.884067 
L 226.758807 285.993763 
L 227.594468 285.18145 
L 228.43013 285.335364 
L 228.847961 285.396263 
L 229.265792 284.2619 
L 229.683622 285.470857 
L 230.101453 285.154518 
L 230.519284 284.00427 
L 230.937115 284.268464 
L 231.354946 284.009568 
L 231.772776 284.12392 
L 232.608438 285.445093 
L 233.026269 287.371201 
L 233.4441 288.531101 
L 233.861931 284.020572 
L 234.279761 283.59273 
L 234.697592 283.645264 
L 235.115423 284.129668 
L 235.533254 284.046428 
L 235.951085 283.806667 
L 236.786746 284.694191 
L 237.204577 283.590913 
L 237.622408 283.855032 
L 238.040239 283.124228 
L 238.458069 284.352364 
L 238.8759 284.461492 
L 239.293731 283.356755 
L 240.129393 282.297381 
L 240.547224 281.635067 
L 240.965054 283.779075 
L 241.382885 282.710045 
L 241.800716 282.372965 
L 242.218547 283.400675 
L 242.636378 282.391662 
L 243.054208 283.180131 
L 243.472039 283.085147 
L 243.88987 282.610892 
L 244.307701 283.690601 
L 244.725532 284.232459 
L 245.143363 283.741638 
L 245.561193 282.875346 
L 245.979024 283.254742 
L 246.396855 284.16258 
L 246.814686 283.625015 
L 247.650347 281.504927 
L 248.068178 281.639993 
L 248.486009 279.638993 
L 249.321671 279.606254 
L 249.739502 278.383282 
L 250.157332 279.775984 
L 250.575163 279.570406 
L 250.992994 278.311245 
L 251.410825 277.644357 
L 251.828656 279.241825 
L 252.246486 277.834963 
L 253.082148 277.584837 
L 253.91781 278.155536 
L 254.335641 276.299637 
L 254.753471 279.037859 
L 255.171302 283.347363 
L 256.006964 276.347743 
L 256.424795 276.622459 
L 256.842625 276.050701 
L 257.260456 276.827621 
L 257.678287 277.31987 
L 258.096118 277.132719 
L 258.513949 277.099098 
L 258.93178 277.650651 
L 259.34961 276.743202 
L 259.767441 276.642752 
L 260.185272 276.125528 
L 260.603103 277.141635 
L 261.020934 277.296068 
L 261.438764 276.949477 
L 261.856595 277.007056 
L 262.274426 273.619519 
L 262.692257 277.995842 
L 263.110088 275.192823 
L 263.527919 275.24307 
L 263.945749 276.053167 
L 264.36358 278.201673 
L 264.781411 277.332917 
L 265.199242 275.928731 
L 265.617073 275.404635 
L 266.034903 278.34426 
L 266.452734 277.798244 
L 266.870565 277.807582 
L 267.288396 276.890617 
L 267.706227 277.839635 
L 268.124058 278.41813 
L 268.541888 278.663352 
L 268.959719 279.041254 
L 269.37755 276.861333 
L 269.795381 275.283746 
L 270.213212 275.604 
L 270.631042 274.949224 
L 271.048873 275.883842 
L 271.466704 274.29861 
L 271.884535 274.659562 
L 272.302366 275.497083 
L 272.720197 274.142987 
L 273.138027 274.683261 
L 273.555858 276.093876 
L 273.973689 274.076709 
L 274.39152 272.987732 
L 274.809351 274.39035 
L 275.227181 274.524237 
L 275.645012 289.979439 
L 276.062843 279.389938 
L 276.480674 276.377811 
L 276.898505 281.690159 
L 277.316336 280.32314 
L 277.734166 274.065349 
L 278.151997 275.255133 
L 278.569828 273.757742 
L 278.987659 273.825697 
L 279.40549 273.677908 
L 279.82332 276.45865 
L 280.241151 274.859928 
L 280.658982 273.977718 
L 281.076813 273.466415 
L 281.494644 274.936544 
L 281.912475 275.101678 
L 282.330305 275.84329 
L 282.748136 275.60579 
L 283.165967 271.115964 
L 283.583798 273.227293 
L 284.001629 272.061873 
L 284.419459 275.401137 
L 284.83729 273.322893 
L 285.255121 272.80109 
L 286.090783 274.113384 
L 286.508614 273.004651 
L 287.344275 275.568325 
L 287.762106 276.55943 
L 288.179937 277.237003 
L 289.015598 275.512579 
L 289.85126 277.57451 
L 290.269091 276.817212 
L 290.686922 276.433319 
L 291.104753 276.540344 
L 291.522583 272.148065 
L 291.940414 271.652091 
L 292.358245 271.595404 
L 292.776076 271.653129 
L 293.193907 271.542048 
L 293.611737 272.073011 
L 294.029568 270.73931 
L 294.447399 271.267981 
L 294.86523 268.34921 
L 295.283061 271.494791 
L 295.700892 270.220913 
L 296.118722 268.024252 
L 296.536553 270.485854 
L 296.954384 268.426351 
L 297.372215 269.783469 
L 297.790046 269.82679 
L 298.207876 271.150931 
L 298.625707 283.102747 
L 299.461369 270.912614 
L 299.8792 270.463339 
L 300.297031 270.194187 
L 300.714861 269.549018 
L 301.132692 271.989798 
L 301.550523 270.793418 
L 301.968354 271.559491 
L 302.386185 268.802183 
L 302.804015 270.563774 
L 303.639677 269.133386 
L 304.057508 270.228699 
L 304.475339 269.728994 
L 304.89317 269.033346 
L 305.311 271.581216 
L 305.728831 268.367631 
L 306.146662 270.524741 
L 306.564493 268.735234 
L 306.982324 268.300737 
L 307.400154 268.401674 
L 308.235816 271.749059 
L 308.653647 269.721581 
L 309.071478 271.161399 
L 309.489309 271.512862 
L 309.907139 271.289603 
L 310.32497 272.14992 
L 310.742801 270.309485 
L 311.160632 272.011761 
L 311.578463 271.465253 
L 311.996293 271.678606 
L 312.414124 274.071102 
L 313.249786 268.748216 
L 313.667617 268.745886 
L 314.085448 268.90106 
L 314.503278 267.604591 
L 314.921109 268.368096 
L 315.33894 268.785178 
L 315.756771 266.266192 
L 316.174602 267.763037 
L 316.592432 267.38017 
L 317.428094 269.02529 
L 317.845925 265.467012 
L 318.681587 267.568089 
L 319.099417 267.529759 
L 319.517248 267.223012 
L 319.935079 269.031427 
L 320.35291 280.219446 
L 320.770741 279.980788 
L 321.188571 268.55807 
L 321.606402 267.083323 
L 322.024233 266.786255 
L 322.442064 267.120447 
L 322.859895 267.701998 
L 323.277726 269.161945 
L 323.695556 268.578503 
L 324.113387 269.215718 
L 324.531218 268.369551 
L 324.949049 267.856604 
L 325.36688 277.62261 
L 325.78471 282.428965 
L 326.202541 283.756226 
L 327.038203 281.439708 
L 327.873865 282.628697 
L 328.291695 282.617732 
L 328.709526 279.768803 
L 329.127357 279.806641 
L 329.545188 281.243609 
L 329.963019 276.513617 
L 330.380849 277.821521 
L 330.79868 277.396854 
L 331.216511 276.454298 
L 331.634342 280.241582 
L 332.052173 278.833016 
L 332.470004 279.367629 
L 332.887834 278.0574 
L 333.305665 277.423321 
L 333.723496 278.38199 
L 334.141327 277.72332 
L 334.559158 278.363368 
L 334.976988 277.79945 
L 335.394819 275.301573 
L 335.81265 275.393307 
L 336.230481 272.354865 
L 336.648312 274.459175 
L 337.066143 274.474812 
L 337.483973 272.757639 
L 337.901804 274.659465 
L 338.319635 275.811968 
L 338.737466 275.833633 
L 339.155297 275.333139 
L 339.573127 277.166729 
L 340.408789 274.279745 
L 340.82662 273.126459 
L 341.244451 275.293041 
L 341.662282 276.84834 
L 342.080112 280.439152 
L 342.497943 285.132717 
L 343.333605 275.40025 
L 343.751436 276.36192 
L 345.004928 275.53943 
L 345.422759 277.1219 
L 345.84059 276.686542 
L 346.25842 272.505059 
L 346.676251 272.360672 
L 347.094082 270.851272 
L 347.511913 275.619853 
L 347.929744 273.360677 
L 348.347575 274.136007 
L 348.765405 275.273489 
L 349.183236 273.14993 
L 349.601067 269.494997 
L 350.018898 276.246719 
L 350.436729 273.994561 
L 350.854559 276.496034 
L 351.27239 278.196645 
L 351.690221 271.611933 
L 352.108052 270.630896 
L 352.525883 272.430708 
L 352.943714 276.161187 
L 353.361544 278.002346 
L 353.779375 276.010446 
L 354.197206 276.30559 
L 354.615037 277.843101 
L 355.032868 275.946871 
L 355.450698 275.936885 
L 355.868529 276.038735 
L 356.28636 278.152951 
L 356.704191 273.289175 
L 357.122022 271.433969 
L 357.539853 273.565995 
L 357.957683 270.828309 
L 358.375514 272.626591 
L 358.793345 270.310723 
L 359.629007 272.192153 
L 360.046837 272.114672 
L 360.464668 272.997984 
L 360.882499 270.449152 
L 361.30033 269.995827 
L 361.718161 271.272144 
L 362.135992 270.677758 
L 362.553822 268.817641 
L 362.971653 270.17417 
L 363.389484 270.156376 
L 363.807315 274.082521 
L 364.225146 283.615704 
L 364.642976 278.436692 
L 365.060807 276.969575 
L 365.478638 272.298319 
L 365.896469 270.336552 
L 366.3143 274.904319 
L 366.732131 270.161075 
L 367.149961 269.225877 
L 367.567792 272.658611 
L 367.985623 271.566369 
L 368.403454 271.539615 
L 368.821285 269.825654 
L 369.239115 266.448471 
L 369.656946 272.379034 
L 370.074777 272.439078 
L 370.492608 260.363389 
L 370.910439 271.742284 
L 371.32827 270.69592 
L 371.7461 275.966953 
L 372.581762 270.854441 
L 372.999593 274.08941 
L 373.417424 274.048982 
L 373.835254 271.778154 
L 374.253085 271.903011 
L 374.670916 276.636972 
L 375.088747 270.036466 
L 375.506578 272.621195 
L 375.924409 276.830286 
L 376.342239 278.785814 
L 376.76007 276.164961 
L 377.177901 277.769766 
L 378.013563 277.379795 
L 378.431393 276.058974 
L 378.849224 274.249483 
L 379.267055 271.324656 
L 379.684886 270.035168 
L 380.102717 270.581687 
L 380.520548 269.820437 
L 380.938378 267.791937 
L 381.356209 272.0259 
L 381.77404 272.382116 
L 382.191871 269.050016 
L 382.609702 268.51383 
L 383.027532 272.416153 
L 383.445363 268.316222 
L 383.863194 273.735584 
L 384.281025 268.589019 
L 384.698856 268.257919 
L 385.116687 270.365571 
L 385.534517 274.73706 
L 385.952348 280.728862 
L 386.78801 270.958243 
L 387.205841 269.598676 
L 387.623671 269.427335 
L 388.041502 273.033946 
L 388.877164 270.050319 
L 389.294995 272.881421 
L 389.712826 273.084668 
L 390.130656 268.310166 
L 390.548487 272.442528 
L 390.966318 274.503885 
L 391.384149 269.155522 
L 391.80198 274.740948 
L 392.637641 268.66583 
L 393.473303 274.424225 
L 393.891134 269.456365 
L 394.308965 268.140707 
L 394.726795 273.319535 
L 395.144626 272.777413 
L 395.562457 270.39692 
L 395.980288 275.090507 
L 396.398119 276.083208 
L 396.815949 274.639194 
L 397.23378 275.867313 
L 397.651611 275.631002 
L 398.069442 276.324217 
L 398.487273 293.76781 
L 398.487273 293.76781 
" clip-path="url(#p14c8591aad)" style="fill: none; stroke: #2ca02c; stroke-width: 1.5; stroke-linecap: square"/>
   </g>
   <g id="patch_3">
    <path d="M 57.6 307.584 
L 57.6 41.472 
" style="fill: none; stroke: #000000; stroke-width: 0.8; stroke-linejoin: miter; stroke-linecap: square"/>
   </g>
   <g id="patch_4">
    <path d="M 414.72 307.584 
L 414.72 41.472 
" style="fill: none; stroke: #000000; stroke-width: 0.8; stroke-linejoin: miter; stroke-linecap: square"/>
   </g>
   <g id="patch_5">
    <path d="M 57.6 307.584 
L 414.72 307.584 
" style="fill: none; stroke: #000000; stroke-width: 0.8; stroke-linejoin: miter; stroke-linecap: square"/>
   </g>
   <g id="patch_6">
    <path d="M 57.6 41.472 
L 414.72 41.472 
" style="fill: none; stroke: #000000; stroke-width: 0.8; stroke-linejoin: miter; stroke-linecap: square"/>
   </g>
   <g id="legend_1">
    <g id="patch_7">
     <path d="M 64.6 93.506375 
L 186.25625 93.506375 
Q 188.25625 93.506375 188.25625 91.506375 
L 188.25625 48.472 
Q 188.25625 46.472 186.25625 46.472 
L 64.6 46.472 
Q 62.6 46.472 62.6 48.472 
L 62.6 91.506375 
Q 62.6 93.506375 64.6 93.506375 
z
" style="fill: #ffffff; opacity: 0.8; stroke: #cccccc; stroke-linejoin: miter"/>
    </g>
    <g id="line2d_18">
     <path d="M 66.6 54.570438 
L 76.6 54.570438 
L 86.6 54.570438 
" style="fill: none; stroke: #1f77b4; stroke-width: 1.5; stroke-linecap: square"/>
    </g>
    <g id="text_17">
     <!-- Weekly maximum -->
     <g transform="translate(94.6 58.070438) scale(0.1 -0.1)">
      <defs>
       <path id="DejaVuSans-57" d="M 213 4666 
L 850 4666 
L 1831 722 
L 2809 4666 
L 3519 4666 
L 4500 722 
L 5478 4666 
L 6119 4666 
L 4947 0 
L 4153 0 
L 3169 4050 
L 2175 0 
L 1381 0 
L 213 4666 
z
" transform="scale(0.015625)"/>
       <path id="DejaVuSans-6b" d="M 581 4863 
L 1159 4863 
L 1159 1991 
L 2875 3500 
L 3609 3500 
L 1753 1863 
L 3688 0 
L 2938 0 
L 1159 1709 
L 1159 0 
L 581 0 
L 581 4863 
z
" transform="scale(0.015625)"/>
       <path id="DejaVuSans-79" d="M 2059 -325 
Q 1816 -950 1584 -1140 
Q 1353 -1331 966 -1331 
L 506 -1331 
L 506 -850 
L 844 -850 
Q 1081 -850 1212 -737 
Q 1344 -625 1503 -206 
L 1606 56 
L 191 3500 
L 800 3500 
L 1894 763 
L 2988 3500 
L 3597 3500 
L 2059 -325 
z
" transform="scale(0.015625)"/>
       <path id="DejaVuSans-6d" d="M 3328 2828 
Q 3544 3216 3844 3400 
Q 4144 3584 4550 3584 
Q 5097 3584 5394 3201 
Q 5691 2819 5691 2113 
L 5691 0 
L 5113 0 
L 5113 2094 
Q 5113 2597 4934 2840 
Q 4756 3084 4391 3084 
Q 3944 3084 3684 2787 
Q 3425 2491 3425 1978 
L 3425 0 
L 2847 0 
L 2847 2094 
Q 2847 2600 2669 2842 
Q 2491 3084 2119 3084 
Q 1678 3084 1418 2786 
Q 1159 2488 1159 1978 
L 1159 0 
L 581 0 
L 581 3500 
L 1159 3500 
L 1159 2956 
Q 1356 3278 1631 3431 
Q 1906 3584 2284 3584 
Q 2666 3584 2933 3390 
Q 3200 3197 3328 2828 
z
" transform="scale(0.015625)"/>
       <path id="DejaVuSans-78" d="M 3513 3500 
L 2247 1797 
L 3578 0 
L 2900 0 
L 1881 1375 
L 863 0 
L 184 0 
L 1544 1831 
L 300 3500 
L 978 3500 
L 1906 2253 
L 2834 3500 
L 3513 3500 
z
" transform="scale(0.015625)"/>
       <path id="DejaVuSans-75" d="M 544 1381 
L 544 3500 
L 1119 3500 
L 1119 1403 
Q 1119 906 1312 657 
Q 1506 409 1894 409 
Q 2359 409 2629 706 
Q 2900 1003 2900 1516 
L 2900 3500 
L 3475 3500 
L 3475 0 
L 2900 0 
L 2900 538 
Q 2691 219 2414 64 
Q 2138 -91 1772 -91 
Q 1169 -91 856 284 
Q 544 659 544 1381 
z
M 1991 3584 
L 1991 3584 
z
" transform="scale(0.015625)"/>
      </defs>
      <use xlink:href="#DejaVuSans-57"/>
      <use xlink:href="#DejaVuSans-65" x="93.001953"/>
      <use xlink:href="#DejaVuSans-65" x="154.525391"/>
      <use xlink:href="#DejaVuSans-6b" x="216.048828"/>
      <use xlink:href="#DejaVuSans-6c" x="273.958984"/>
      <use xlink:href="#DejaVuSans-79" x="301.742188"/>
      <use xlink:href="#DejaVuSans-20" x="360.921875"/>
      <use xlink:href="#DejaVuSans-6d" x="392.708984"/>
      <use xlink:href="#DejaVuSans-61" x="490.121094"/>
      <use xlink:href="#DejaVuSans-78" x="551.400391"/>
      <use xlink:href="#DejaVuSans-69" x="610.580078"/>
      <use xlink:href="#DejaVuSans-6d" x="638.363281"/>
      <use xlink:href="#DejaVuSans-75" x="735.775391"/>
      <use xlink:href="#DejaVuSans-6d" x="799.154297"/>
     </g>
    </g>
    <g id="line2d_19">
     <path d="M 66.6 69.248563 
L 76.6 69.248563 
L 86.6 69.248563 
" style="fill: none; stroke: #ff7f0e; stroke-width: 1.5; stroke-linecap: square"/>
    </g>
    <g id="text_18">
     <!-- Weekly minimum -->
     <g transform="translate(94.6 72.748563) scale(0.1 -0.1)">
      <defs>
       <path id="DejaVuSans-6e" d="M 3513 2113 
L 3513 0 
L 2938 0 
L 2938 2094 
Q 2938 2591 2744 2837 
Q 2550 3084 2163 3084 
Q 1697 3084 1428 2787 
Q 1159 2491 1159 1978 
L 1159 0 
L 581 0 
L 581 3500 
L 1159 3500 
L 1159 2956 
Q 1366 3272 1645 3428 
Q 1925 3584 2291 3584 
Q 2894 3584 3203 3211 
Q 3513 2838 3513 2113 
z
" transform="scale(0.015625)"/>
      </defs>
      <use xlink:href="#DejaVuSans-57"/>
      <use xlink:href="#DejaVuSans-65" x="93.001953"/>
      <use xlink:href="#DejaVuSans-65" x="154.525391"/>
      <use xlink:href="#DejaVuSans-6b" x="216.048828"/>
      <use xlink:href="#DejaVuSans-6c" x="273.958984"/>
      <use xlink:href="#DejaVuSans-79" x="301.742188"/>
      <use xlink:href="#DejaVuSans-20" x="360.921875"/>
      <use xlink:href="#DejaVuSans-6d" x="392.708984"/>
      <use xlink:href="#DejaVuSans-69" x="490.121094"/>
      <use xlink:href="#DejaVuSans-6e" x="517.904297"/>
      <use xlink:href="#DejaVuSans-69" x="581.283203"/>
      <use xlink:href="#DejaVuSans-6d" x="609.066406"/>
      <use xlink:href="#DejaVuSans-75" x="706.478516"/>
      <use xlink:href="#DejaVuSans-6d" x="769.857422"/>
     </g>
    </g>
    <g id="line2d_20">
     <path d="M 66.6 83.926688 
L 76.6 83.926688 
L 86.6 83.926688 
" style="fill: none; stroke: #2ca02c; stroke-width: 1.5; stroke-linecap: square"/>
    </g>
    <g id="text_19">
     <!-- Weekly range -->
     <g transform="translate(94.6 87.426688) scale(0.1 -0.1)">
      <use xlink:href="#DejaVuSans-57"/>
      <use xlink:href="#DejaVuSans-65" x="93.001953"/>
      <use xlink:href="#DejaVuSans-65" x="154.525391"/>
      <use xlink:href="#DejaVuSans-6b" x="216.048828"/>
      <use xlink:href="#DejaVuSans-6c" x="273.958984"/>
      <use xlink:href="#DejaVuSans-79" x="301.742188"/>
      <use xlink:href="#DejaVuSans-20" x="360.921875"/>
      <use xlink:href="#DejaVuSans-72" x="392.708984"/>
      <use xlink:href="#DejaVuSans-61" x="433.822266"/>
      <use xlink:href="#DejaVuSans-6e" x="495.101562"/>
      <use xlink:href="#DejaVuSans-67" x="558.480469"/>
      <use xlink:href="#DejaVuSans-65" x="621.957031"/>
     </g>
    </g>
   </g>
  </g>
 </g>
 <defs>
  <clipPath id="p14c8591aad">
   <rect x="57.6" y="41.472" width="357.12" height="266.112"/>
  </clipPath>
 </defs>
</svg>
