<?xml version="1.0" encoding="utf-8" standalone="no"?>
<!DOCTYPE svg PUBLIC "-//W3C//DTD SVG 1.1//EN"
  "http://www.w3.org/Graphics/SVG/1.1/DTD/svg11.dtd">
<svg xmlns:xlink="http://www.w3.org/1999/xlink" width="460.8pt" height="345.6pt" viewBox="0 0 460.8 345.6" xmlns="http://www.w3.org/2000/svg" version="1.1">
 <metadata>
  <rdf:RDF xmlns:dc="http://purl.org/dc/elements/1.1/" xmlns:cc="http://creativecommons.org/ns#" xmlns:rdf="http://www.w3.org/1999/02/22-rdf-syntax-ns#">
   <cc:Work>
    <dc:type rdf:resource="http://purl.org/dc/dcmitype/StillImage"/>
    <dc:date>2023-05-22T05:31:40.756468</dc:date>
    <dc:format>image/svg+xml</dc:format>
    <dc:creator>
     <cc:Agent>
      <dc:title>Matplotlib v3.7.1, https://matplotlib.org/</dc:title>
     </cc:Agent>
    </dc:creator>
   </cc:Work>
  </rdf:RDF>
 </metadata>
 <defs>
  <style type="text/css">*{stroke-linejoin: round; stroke-linecap: butt}</style>
 </defs>
 <g id="figure_1">
  <g id="patch_1">
   <path d="M 0 345.6 
L 460.8 345.6 
L 460.8 0 
L 0 0 
z
" style="fill: #ffffff"/>
  </g>
  <g id="axes_1">
   <g id="patch_2">
    <path d="M 57.6 307.584 
L 414.72 307.584 
L 414.72 41.472 
L 57.6 41.472 
z
" style="fill: #ffffff"/>
   </g>
   <g id="matplotlib.axis_1">
    <g id="xtick_1">
     <g id="line2d_1">
      <defs>
       <path id="mcf93d940b8" d="M 0 0 
L 0 3.5 
" style="stroke: #000000; stroke-width: 0.8"/>
      </defs>
      <g>
       <use xlink:href="#mcf93d940b8" x="59.078451" y="307.584" style="stroke: #000000; stroke-width: 0.8"/>
      </g>
     </g>
     <g id="text_1">
      <!-- 2008 -->
      <g transform="translate(46.353451 322.182437) scale(0.1 -0.1)">
       <defs>
        <path id="DejaVuSans-32" d="M 1228 531 
L 3431 531 
L 3431 0 
L 469 0 
L 469 531 
Q 828 903 1448 1529 
Q 2069 2156 2228 2338 
Q 2531 2678 2651 2914 
Q 2772 3150 2772 3378 
Q 2772 3750 2511 3984 
Q 2250 4219 1831 4219 
Q 1534 4219 1204 4116 
Q 875 4013 500 3803 
L 500 4441 
Q 881 4594 1212 4672 
Q 1544 4750 1819 4750 
Q 2544 4750 2975 4387 
Q 3406 4025 3406 3419 
Q 3406 3131 3298 2873 
Q 3191 2616 2906 2266 
Q 2828 2175 2409 1742 
Q 1991 1309 1228 531 
z
" transform="scale(0.015625)"/>
        <path id="DejaVuSans-30" d="M 2034 4250 
Q 1547 4250 1301 3770 
Q 1056 3291 1056 2328 
Q 1056 1369 1301 889 
Q 1547 409 2034 409 
Q 2525 409 2770 889 
Q 3016 1369 3016 2328 
Q 3016 3291 2770 3770 
Q 2525 4250 2034 4250 
z
M 2034 4750 
Q 2819 4750 3233 4129 
Q 3647 3509 3647 2328 
Q 3647 1150 3233 529 
Q 2819 -91 2034 -91 
Q 1250 -91 836 529 
Q 422 1150 422 2328 
Q 422 3509 836 4129 
Q 1250 4750 2034 4750 
z
" transform="scale(0.015625)"/>
        <path id="DejaVuSans-38" d="M 2034 2216 
Q 1584 2216 1326 1975 
Q 1069 1734 1069 1313 
Q 1069 891 1326 650 
Q 1584 409 2034 409 
Q 2484 409 2743 651 
Q 3003 894 3003 1313 
Q 3003 1734 2745 1975 
Q 2488 2216 2034 2216 
z
M 1403 2484 
Q 997 2584 770 2862 
Q 544 3141 544 3541 
Q 544 4100 942 4425 
Q 1341 4750 2034 4750 
Q 2731 4750 3128 4425 
Q 3525 4100 3525 3541 
Q 3525 3141 3298 2862 
Q 3072 2584 2669 2484 
Q 3125 2378 3379 2068 
Q 3634 1759 3634 1313 
Q 3634 634 3220 271 
Q 2806 -91 2034 -91 
Q 1263 -91 848 271 
Q 434 634 434 1313 
Q 434 1759 690 2068 
Q 947 2378 1403 2484 
z
M 1172 3481 
Q 1172 3119 1398 2916 
Q 1625 2713 2034 2713 
Q 2441 2713 2670 2916 
Q 2900 3119 2900 3481 
Q 2900 3844 2670 4047 
Q 2441 4250 2034 4250 
Q 1625 4250 1398 4047 
Q 1172 3844 1172 3481 
z
" transform="scale(0.015625)"/>
       </defs>
       <use xlink:href="#DejaVuSans-32"/>
       <use xlink:href="#DejaVuSans-30" x="63.623047"/>
       <use xlink:href="#DejaVuSans-30" x="127.246094"/>
       <use xlink:href="#DejaVuSans-38" x="190.869141"/>
      </g>
     </g>
    </g>
    <g id="xtick_2">
     <g id="line2d_2">
      <g>
       <use xlink:href="#mcf93d940b8" x="103.280811" y="307.584" style="stroke: #000000; stroke-width: 0.8"/>
      </g>
     </g>
     <g id="text_2">
      <!-- 2010 -->
      <g transform="translate(90.555811 322.182437) scale(0.1 -0.1)">
       <defs>
        <path id="DejaVuSans-31" d="M 794 531 
L 1825 531 
L 1825 4091 
L 703 3866 
L 703 4441 
L 1819 4666 
L 2450 4666 
L 2450 531 
L 3481 531 
L 3481 0 
L 794 0 
L 794 531 
z
" transform="scale(0.015625)"/>
       </defs>
       <use xlink:href="#DejaVuSans-32"/>
       <use xlink:href="#DejaVuSans-30" x="63.623047"/>
       <use xlink:href="#DejaVuSans-31" x="127.246094"/>
       <use xlink:href="#DejaVuSans-30" x="190.869141"/>
      </g>
     </g>
    </g>
    <g id="xtick_3">
     <g id="line2d_3">
      <g>
       <use xlink:href="#mcf93d940b8" x="147.422703" y="307.584" style="stroke: #000000; stroke-width: 0.8"/>
      </g>
     </g>
     <g id="text_3">
      <!-- 2012 -->
      <g transform="translate(134.697703 322.182437) scale(0.1 -0.1)">
       <use xlink:href="#DejaVuSans-32"/>
       <use xlink:href="#DejaVuSans-30" x="63.623047"/>
       <use xlink:href="#DejaVuSans-31" x="127.246094"/>
       <use xlink:href="#DejaVuSans-32" x="190.869141"/>
      </g>
     </g>
    </g>
    <g id="xtick_4">
     <g id="line2d_4">
      <g>
       <use xlink:href="#mcf93d940b8" x="191.625064" y="307.584" style="stroke: #000000; stroke-width: 0.8"/>
      </g>
     </g>
     <g id="text_4">
      <!-- 2014 -->
      <g transform="translate(178.900064 322.182437) scale(0.1 -0.1)">
       <defs>
        <path id="DejaVuSans-34" d="M 2419 4116 
L 825 1625 
L 2419 1625 
L 2419 4116 
z
M 2253 4666 
L 3047 4666 
L 3047 1625 
L 3713 1625 
L 3713 1100 
L 3047 1100 
L 3047 0 
L 2419 0 
L 2419 1100 
L 313 1100 
L 313 1709 
L 2253 4666 
z
" transform="scale(0.015625)"/>
       </defs>
       <use xlink:href="#DejaVuSans-32"/>
       <use xlink:href="#DejaVuSans-30" x="63.623047"/>
       <use xlink:href="#DejaVuSans-31" x="127.246094"/>
       <use xlink:href="#DejaVuSans-34" x="190.869141"/>
      </g>
     </g>
    </g>
    <g id="xtick_5">
     <g id="line2d_5">
      <g>
       <use xlink:href="#mcf93d940b8" x="235.766956" y="307.584" style="stroke: #000000; stroke-width: 0.8"/>
      </g>
     </g>
     <g id="text_5">
      <!-- 2016 -->
      <g transform="translate(223.041956 322.182437) scale(0.1 -0.1)">
       <defs>
        <path id="DejaVuSans-36" d="M 2113 2584 
Q 1688 2584 1439 2293 
Q 1191 2003 1191 1497 
Q 1191 994 1439 701 
Q 1688 409 2113 409 
Q 2538 409 2786 701 
Q 3034 994 3034 1497 
Q 3034 2003 2786 2293 
Q 2538 2584 2113 2584 
z
M 3366 4563 
L 3366 3988 
Q 3128 4100 2886 4159 
Q 2644 4219 2406 4219 
Q 1781 4219 1451 3797 
Q 1122 3375 1075 2522 
Q 1259 2794 1537 2939 
Q 1816 3084 2150 3084 
Q 2853 3084 3261 2657 
Q 3669 2231 3669 1497 
Q 3669 778 3244 343 
Q 2819 -91 2113 -91 
Q 1303 -91 875 529 
Q 447 1150 447 2328 
Q 447 3434 972 4092 
Q 1497 4750 2381 4750 
Q 2619 4750 2861 4703 
Q 3103 4656 3366 4563 
z
" transform="scale(0.015625)"/>
       </defs>
       <use xlink:href="#DejaVuSans-32"/>
       <use xlink:href="#DejaVuSans-30" x="63.623047"/>
       <use xlink:href="#DejaVuSans-31" x="127.246094"/>
       <use xlink:href="#DejaVuSans-36" x="190.869141"/>
      </g>
     </g>
    </g>
    <g id="xtick_6">
     <g id="line2d_6">
      <g>
       <use xlink:href="#mcf93d940b8" x="279.969316" y="307.584" style="stroke: #000000; stroke-width: 0.8"/>
      </g>
     </g>
     <g id="text_6">
      <!-- 2018 -->
      <g transform="translate(267.244316 322.182437) scale(0.1 -0.1)">
       <use xlink:href="#DejaVuSans-32"/>
       <use xlink:href="#DejaVuSans-30" x="63.623047"/>
       <use xlink:href="#DejaVuSans-31" x="127.246094"/>
       <use xlink:href="#DejaVuSans-38" x="190.869141"/>
      </g>
     </g>
    </g>
    <g id="xtick_7">
     <g id="line2d_7">
      <g>
       <use xlink:href="#mcf93d940b8" x="324.111208" y="307.584" style="stroke: #000000; stroke-width: 0.8"/>
      </g>
     </g>
     <g id="text_7">
      <!-- 2020 -->
      <g transform="translate(311.386208 322.182437) scale(0.1 -0.1)">
       <use xlink:href="#DejaVuSans-32"/>
       <use xlink:href="#DejaVuSans-30" x="63.623047"/>
       <use xlink:href="#DejaVuSans-32" x="127.246094"/>
       <use xlink:href="#DejaVuSans-30" x="190.869141"/>
      </g>
     </g>
    </g>
    <g id="xtick_8">
     <g id="line2d_8">
      <g>
       <use xlink:href="#mcf93d940b8" x="368.313568" y="307.584" style="stroke: #000000; stroke-width: 0.8"/>
      </g>
     </g>
     <g id="text_8">
      <!-- 2022 -->
      <g transform="translate(355.588568 322.182437) scale(0.1 -0.1)">
       <use xlink:href="#DejaVuSans-32"/>
       <use xlink:href="#DejaVuSans-30" x="63.623047"/>
       <use xlink:href="#DejaVuSans-32" x="127.246094"/>
       <use xlink:href="#DejaVuSans-32" x="190.869141"/>
      </g>
     </g>
    </g>
    <g id="xtick_9">
     <g id="line2d_9">
      <g>
       <use xlink:href="#mcf93d940b8" x="412.45546" y="307.584" style="stroke: #000000; stroke-width: 0.8"/>
      </g>
     </g>
     <g id="text_9">
      <!-- 2024 -->
      <g transform="translate(399.73046 322.182437) scale(0.1 -0.1)">
       <use xlink:href="#DejaVuSans-32"/>
       <use xlink:href="#DejaVuSans-30" x="63.623047"/>
       <use xlink:href="#DejaVuSans-32" x="127.246094"/>
       <use xlink:href="#DejaVuSans-34" x="190.869141"/>
      </g>
     </g>
    </g>
    <g id="text_10">
     <!-- Updated 2023-05-22 05:31:40.754565 - Last record 2023-05-20 -->
     <g transform="translate(75.905312 335.860562) scale(0.1 -0.1)">
      <defs>
       <path id="DejaVuSans-55" d="M 556 4666 
L 1191 4666 
L 1191 1831 
Q 1191 1081 1462 751 
Q 1734 422 2344 422 
Q 2950 422 3222 751 
Q 3494 1081 3494 1831 
L 3494 4666 
L 4128 4666 
L 4128 1753 
Q 4128 841 3676 375 
Q 3225 -91 2344 -91 
Q 1459 -91 1007 375 
Q 556 841 556 1753 
L 556 4666 
z
" transform="scale(0.015625)"/>
       <path id="DejaVuSans-70" d="M 1159 525 
L 1159 -1331 
L 581 -1331 
L 581 3500 
L 1159 3500 
L 1159 2969 
Q 1341 3281 1617 3432 
Q 1894 3584 2278 3584 
Q 2916 3584 3314 3078 
Q 3713 2572 3713 1747 
Q 3713 922 3314 415 
Q 2916 -91 2278 -91 
Q 1894 -91 1617 61 
Q 1341 213 1159 525 
z
M 3116 1747 
Q 3116 2381 2855 2742 
Q 2594 3103 2138 3103 
Q 1681 3103 1420 2742 
Q 1159 2381 1159 1747 
Q 1159 1113 1420 752 
Q 1681 391 2138 391 
Q 2594 391 2855 752 
Q 3116 1113 3116 1747 
z
" transform="scale(0.015625)"/>
       <path id="DejaVuSans-64" d="M 2906 2969 
L 2906 4863 
L 3481 4863 
L 3481 0 
L 2906 0 
L 2906 525 
Q 2725 213 2448 61 
Q 2172 -91 1784 -91 
Q 1150 -91 751 415 
Q 353 922 353 1747 
Q 353 2572 751 3078 
Q 1150 3584 1784 3584 
Q 2172 3584 2448 3432 
Q 2725 3281 2906 2969 
z
M 947 1747 
Q 947 1113 1208 752 
Q 1469 391 1925 391 
Q 2381 391 2643 752 
Q 2906 1113 2906 1747 
Q 2906 2381 2643 2742 
Q 2381 3103 1925 3103 
Q 1469 3103 1208 2742 
Q 947 2381 947 1747 
z
" transform="scale(0.015625)"/>
       <path id="DejaVuSans-61" d="M 2194 1759 
Q 1497 1759 1228 1600 
Q 959 1441 959 1056 
Q 959 750 1161 570 
Q 1363 391 1709 391 
Q 2188 391 2477 730 
Q 2766 1069 2766 1631 
L 2766 1759 
L 2194 1759 
z
M 3341 1997 
L 3341 0 
L 2766 0 
L 2766 531 
Q 2569 213 2275 61 
Q 1981 -91 1556 -91 
Q 1019 -91 701 211 
Q 384 513 384 1019 
Q 384 1609 779 1909 
Q 1175 2209 1959 2209 
L 2766 2209 
L 2766 2266 
Q 2766 2663 2505 2880 
Q 2244 3097 1772 3097 
Q 1472 3097 1187 3025 
Q 903 2953 641 2809 
L 641 3341 
Q 956 3463 1253 3523 
Q 1550 3584 1831 3584 
Q 2591 3584 2966 3190 
Q 3341 2797 3341 1997 
z
" transform="scale(0.015625)"/>
       <path id="DejaVuSans-74" d="M 1172 4494 
L 1172 3500 
L 2356 3500 
L 2356 3053 
L 1172 3053 
L 1172 1153 
Q 1172 725 1289 603 
Q 1406 481 1766 481 
L 2356 481 
L 2356 0 
L 1766 0 
Q 1100 0 847 248 
Q 594 497 594 1153 
L 594 3053 
L 172 3053 
L 172 3500 
L 594 3500 
L 594 4494 
L 1172 4494 
z
" transform="scale(0.015625)"/>
       <path id="DejaVuSans-65" d="M 3597 1894 
L 3597 1613 
L 953 1613 
Q 991 1019 1311 708 
Q 1631 397 2203 397 
Q 2534 397 2845 478 
Q 3156 559 3463 722 
L 3463 178 
Q 3153 47 2828 -22 
Q 2503 -91 2169 -91 
Q 1331 -91 842 396 
Q 353 884 353 1716 
Q 353 2575 817 3079 
Q 1281 3584 2069 3584 
Q 2775 3584 3186 3129 
Q 3597 2675 3597 1894 
z
M 3022 2063 
Q 3016 2534 2758 2815 
Q 2500 3097 2075 3097 
Q 1594 3097 1305 2825 
Q 1016 2553 972 2059 
L 3022 2063 
z
" transform="scale(0.015625)"/>
       <path id="DejaVuSans-20" transform="scale(0.015625)"/>
       <path id="DejaVuSans-33" d="M 2597 2516 
Q 3050 2419 3304 2112 
Q 3559 1806 3559 1356 
Q 3559 666 3084 287 
Q 2609 -91 1734 -91 
Q 1441 -91 1130 -33 
Q 819 25 488 141 
L 488 750 
Q 750 597 1062 519 
Q 1375 441 1716 441 
Q 2309 441 2620 675 
Q 2931 909 2931 1356 
Q 2931 1769 2642 2001 
Q 2353 2234 1838 2234 
L 1294 2234 
L 1294 2753 
L 1863 2753 
Q 2328 2753 2575 2939 
Q 2822 3125 2822 3475 
Q 2822 3834 2567 4026 
Q 2313 4219 1838 4219 
Q 1578 4219 1281 4162 
Q 984 4106 628 3988 
L 628 4550 
Q 988 4650 1302 4700 
Q 1616 4750 1894 4750 
Q 2613 4750 3031 4423 
Q 3450 4097 3450 3541 
Q 3450 3153 3228 2886 
Q 3006 2619 2597 2516 
z
" transform="scale(0.015625)"/>
       <path id="DejaVuSans-2d" d="M 313 2009 
L 1997 2009 
L 1997 1497 
L 313 1497 
L 313 2009 
z
" transform="scale(0.015625)"/>
       <path id="DejaVuSans-35" d="M 691 4666 
L 3169 4666 
L 3169 4134 
L 1269 4134 
L 1269 2991 
Q 1406 3038 1543 3061 
Q 1681 3084 1819 3084 
Q 2600 3084 3056 2656 
Q 3513 2228 3513 1497 
Q 3513 744 3044 326 
Q 2575 -91 1722 -91 
Q 1428 -91 1123 -41 
Q 819 9 494 109 
L 494 744 
Q 775 591 1075 516 
Q 1375 441 1709 441 
Q 2250 441 2565 725 
Q 2881 1009 2881 1497 
Q 2881 1984 2565 2268 
Q 2250 2553 1709 2553 
Q 1456 2553 1204 2497 
Q 953 2441 691 2322 
L 691 4666 
z
" transform="scale(0.015625)"/>
       <path id="DejaVuSans-3a" d="M 750 794 
L 1409 794 
L 1409 0 
L 750 0 
L 750 794 
z
M 750 3309 
L 1409 3309 
L 1409 2516 
L 750 2516 
L 750 3309 
z
" transform="scale(0.015625)"/>
       <path id="DejaVuSans-2e" d="M 684 794 
L 1344 794 
L 1344 0 
L 684 0 
L 684 794 
z
" transform="scale(0.015625)"/>
       <path id="DejaVuSans-37" d="M 525 4666 
L 3525 4666 
L 3525 4397 
L 1831 0 
L 1172 0 
L 2766 4134 
L 525 4134 
L 525 4666 
z
" transform="scale(0.015625)"/>
       <path id="DejaVuSans-4c" d="M 628 4666 
L 1259 4666 
L 1259 531 
L 3531 531 
L 3531 0 
L 628 0 
L 628 4666 
z
" transform="scale(0.015625)"/>
       <path id="DejaVuSans-73" d="M 2834 3397 
L 2834 2853 
Q 2591 2978 2328 3040 
Q 2066 3103 1784 3103 
Q 1356 3103 1142 2972 
Q 928 2841 928 2578 
Q 928 2378 1081 2264 
Q 1234 2150 1697 2047 
L 1894 2003 
Q 2506 1872 2764 1633 
Q 3022 1394 3022 966 
Q 3022 478 2636 193 
Q 2250 -91 1575 -91 
Q 1294 -91 989 -36 
Q 684 19 347 128 
L 347 722 
Q 666 556 975 473 
Q 1284 391 1588 391 
Q 1994 391 2212 530 
Q 2431 669 2431 922 
Q 2431 1156 2273 1281 
Q 2116 1406 1581 1522 
L 1381 1569 
Q 847 1681 609 1914 
Q 372 2147 372 2553 
Q 372 3047 722 3315 
Q 1072 3584 1716 3584 
Q 2034 3584 2315 3537 
Q 2597 3491 2834 3397 
z
" transform="scale(0.015625)"/>
       <path id="DejaVuSans-72" d="M 2631 2963 
Q 2534 3019 2420 3045 
Q 2306 3072 2169 3072 
Q 1681 3072 1420 2755 
Q 1159 2438 1159 1844 
L 1159 0 
L 581 0 
L 581 3500 
L 1159 3500 
L 1159 2956 
Q 1341 3275 1631 3429 
Q 1922 3584 2338 3584 
Q 2397 3584 2469 3576 
Q 2541 3569 2628 3553 
L 2631 2963 
z
" transform="scale(0.015625)"/>
       <path id="DejaVuSans-63" d="M 3122 3366 
L 3122 2828 
Q 2878 2963 2633 3030 
Q 2388 3097 2138 3097 
Q 1578 3097 1268 2742 
Q 959 2388 959 1747 
Q 959 1106 1268 751 
Q 1578 397 2138 397 
Q 2388 397 2633 464 
Q 2878 531 3122 666 
L 3122 134 
Q 2881 22 2623 -34 
Q 2366 -91 2075 -91 
Q 1284 -91 818 406 
Q 353 903 353 1747 
Q 353 2603 823 3093 
Q 1294 3584 2113 3584 
Q 2378 3584 2631 3529 
Q 2884 3475 3122 3366 
z
" transform="scale(0.015625)"/>
       <path id="DejaVuSans-6f" d="M 1959 3097 
Q 1497 3097 1228 2736 
Q 959 2375 959 1747 
Q 959 1119 1226 758 
Q 1494 397 1959 397 
Q 2419 397 2687 759 
Q 2956 1122 2956 1747 
Q 2956 2369 2687 2733 
Q 2419 3097 1959 3097 
z
M 1959 3584 
Q 2709 3584 3137 3096 
Q 3566 2609 3566 1747 
Q 3566 888 3137 398 
Q 2709 -91 1959 -91 
Q 1206 -91 779 398 
Q 353 888 353 1747 
Q 353 2609 779 3096 
Q 1206 3584 1959 3584 
z
" transform="scale(0.015625)"/>
      </defs>
      <use xlink:href="#DejaVuSans-55"/>
      <use xlink:href="#DejaVuSans-70" x="73.193359"/>
      <use xlink:href="#DejaVuSans-64" x="136.669922"/>
      <use xlink:href="#DejaVuSans-61" x="200.146484"/>
      <use xlink:href="#DejaVuSans-74" x="261.425781"/>
      <use xlink:href="#DejaVuSans-65" x="300.634766"/>
      <use xlink:href="#DejaVuSans-64" x="362.158203"/>
      <use xlink:href="#DejaVuSans-20" x="425.634766"/>
      <use xlink:href="#DejaVuSans-32" x="457.421875"/>
      <use xlink:href="#DejaVuSans-30" x="521.044922"/>
      <use xlink:href="#DejaVuSans-32" x="584.667969"/>
      <use xlink:href="#DejaVuSans-33" x="648.291016"/>
      <use xlink:href="#DejaVuSans-2d" x="711.914062"/>
      <use xlink:href="#DejaVuSans-30" x="747.998047"/>
      <use xlink:href="#DejaVuSans-35" x="811.621094"/>
      <use xlink:href="#DejaVuSans-2d" x="875.244141"/>
      <use xlink:href="#DejaVuSans-32" x="911.328125"/>
      <use xlink:href="#DejaVuSans-32" x="974.951172"/>
      <use xlink:href="#DejaVuSans-20" x="1038.574219"/>
      <use xlink:href="#DejaVuSans-30" x="1070.361328"/>
      <use xlink:href="#DejaVuSans-35" x="1133.984375"/>
      <use xlink:href="#DejaVuSans-3a" x="1197.607422"/>
      <use xlink:href="#DejaVuSans-33" x="1231.298828"/>
      <use xlink:href="#DejaVuSans-31" x="1294.921875"/>
      <use xlink:href="#DejaVuSans-3a" x="1358.544922"/>
      <use xlink:href="#DejaVuSans-34" x="1392.236328"/>
      <use xlink:href="#DejaVuSans-30" x="1455.859375"/>
      <use xlink:href="#DejaVuSans-2e" x="1519.482422"/>
      <use xlink:href="#DejaVuSans-37" x="1551.269531"/>
      <use xlink:href="#DejaVuSans-35" x="1614.892578"/>
      <use xlink:href="#DejaVuSans-34" x="1678.515625"/>
      <use xlink:href="#DejaVuSans-35" x="1742.138672"/>
      <use xlink:href="#DejaVuSans-36" x="1805.761719"/>
      <use xlink:href="#DejaVuSans-35" x="1869.384766"/>
      <use xlink:href="#DejaVuSans-20" x="1933.007812"/>
      <use xlink:href="#DejaVuSans-2d" x="1964.794922"/>
      <use xlink:href="#DejaVuSans-20" x="2000.878906"/>
      <use xlink:href="#DejaVuSans-4c" x="2032.666016"/>
      <use xlink:href="#DejaVuSans-61" x="2088.378906"/>
      <use xlink:href="#DejaVuSans-73" x="2149.658203"/>
      <use xlink:href="#DejaVuSans-74" x="2201.757812"/>
      <use xlink:href="#DejaVuSans-20" x="2240.966797"/>
      <use xlink:href="#DejaVuSans-72" x="2272.753906"/>
      <use xlink:href="#DejaVuSans-65" x="2311.617188"/>
      <use xlink:href="#DejaVuSans-63" x="2373.140625"/>
      <use xlink:href="#DejaVuSans-6f" x="2428.121094"/>
      <use xlink:href="#DejaVuSans-72" x="2489.302734"/>
      <use xlink:href="#DejaVuSans-64" x="2528.666016"/>
      <use xlink:href="#DejaVuSans-20" x="2592.142578"/>
      <use xlink:href="#DejaVuSans-32" x="2623.929688"/>
      <use xlink:href="#DejaVuSans-30" x="2687.552734"/>
      <use xlink:href="#DejaVuSans-32" x="2751.175781"/>
      <use xlink:href="#DejaVuSans-33" x="2814.798828"/>
      <use xlink:href="#DejaVuSans-2d" x="2878.421875"/>
      <use xlink:href="#DejaVuSans-30" x="2914.505859"/>
      <use xlink:href="#DejaVuSans-35" x="2978.128906"/>
      <use xlink:href="#DejaVuSans-2d" x="3041.751953"/>
      <use xlink:href="#DejaVuSans-32" x="3077.835938"/>
      <use xlink:href="#DejaVuSans-30" x="3141.458984"/>
     </g>
    </g>
   </g>
   <g id="matplotlib.axis_2">
    <g id="ytick_1">
     <g id="line2d_10">
      <defs>
       <path id="mfed9561374" d="M 0 0 
L -3.5 0 
" style="stroke: #000000; stroke-width: 0.8"/>
      </defs>
      <g>
       <use xlink:href="#mfed9561374" x="57.6" y="295.565192" style="stroke: #000000; stroke-width: 0.8"/>
      </g>
     </g>
     <g id="text_11">
      <!-- 0 -->
      <g transform="translate(44.2375 299.364411) scale(0.1 -0.1)">
       <use xlink:href="#DejaVuSans-30"/>
      </g>
     </g>
    </g>
    <g id="ytick_2">
     <g id="line2d_11">
      <g>
       <use xlink:href="#mfed9561374" x="57.6" y="240.031225" style="stroke: #000000; stroke-width: 0.8"/>
      </g>
     </g>
     <g id="text_12">
      <!-- 10 -->
      <g transform="translate(37.875 243.830444) scale(0.1 -0.1)">
       <use xlink:href="#DejaVuSans-31"/>
       <use xlink:href="#DejaVuSans-30" x="63.623047"/>
      </g>
     </g>
    </g>
    <g id="ytick_3">
     <g id="line2d_12">
      <g>
       <use xlink:href="#mfed9561374" x="57.6" y="184.497258" style="stroke: #000000; stroke-width: 0.8"/>
      </g>
     </g>
     <g id="text_13">
      <!-- 20 -->
      <g transform="translate(37.875 188.296477) scale(0.1 -0.1)">
       <use xlink:href="#DejaVuSans-32"/>
       <use xlink:href="#DejaVuSans-30" x="63.623047"/>
      </g>
     </g>
    </g>
    <g id="ytick_4">
     <g id="line2d_13">
      <g>
       <use xlink:href="#mfed9561374" x="57.6" y="128.963291" style="stroke: #000000; stroke-width: 0.8"/>
      </g>
     </g>
     <g id="text_14">
      <!-- 30 -->
      <g transform="translate(37.875 132.762509) scale(0.1 -0.1)">
       <use xlink:href="#DejaVuSans-33"/>
       <use xlink:href="#DejaVuSans-30" x="63.623047"/>
      </g>
     </g>
    </g>
    <g id="ytick_5">
     <g id="line2d_14">
      <g>
       <use xlink:href="#mfed9561374" x="57.6" y="73.429324" style="stroke: #000000; stroke-width: 0.8"/>
      </g>
     </g>
     <g id="text_15">
      <!-- 40 -->
      <g transform="translate(37.875 77.228542) scale(0.1 -0.1)">
       <use xlink:href="#DejaVuSans-34"/>
       <use xlink:href="#DejaVuSans-30" x="63.623047"/>
      </g>
     </g>
    </g>
    <g id="text_16">
     <!-- IPv6 as % of total Google traffic -->
     <g transform="translate(31.795312 253.735813) rotate(-90) scale(0.1 -0.1)">
      <defs>
       <path id="DejaVuSans-49" d="M 628 4666 
L 1259 4666 
L 1259 0 
L 628 0 
L 628 4666 
z
" transform="scale(0.015625)"/>
       <path id="DejaVuSans-50" d="M 1259 4147 
L 1259 2394 
L 2053 2394 
Q 2494 2394 2734 2622 
Q 2975 2850 2975 3272 
Q 2975 3691 2734 3919 
Q 2494 4147 2053 4147 
L 1259 4147 
z
M 628 4666 
L 2053 4666 
Q 2838 4666 3239 4311 
Q 3641 3956 3641 3272 
Q 3641 2581 3239 2228 
Q 2838 1875 2053 1875 
L 1259 1875 
L 1259 0 
L 628 0 
L 628 4666 
z
" transform="scale(0.015625)"/>
       <path id="DejaVuSans-76" d="M 191 3500 
L 800 3500 
L 1894 563 
L 2988 3500 
L 3597 3500 
L 2284 0 
L 1503 0 
L 191 3500 
z
" transform="scale(0.015625)"/>
       <path id="DejaVuSans-25" d="M 4653 2053 
Q 4381 2053 4226 1822 
Q 4072 1591 4072 1178 
Q 4072 772 4226 539 
Q 4381 306 4653 306 
Q 4919 306 5073 539 
Q 5228 772 5228 1178 
Q 5228 1588 5073 1820 
Q 4919 2053 4653 2053 
z
M 4653 2450 
Q 5147 2450 5437 2106 
Q 5728 1763 5728 1178 
Q 5728 594 5436 251 
Q 5144 -91 4653 -91 
Q 4153 -91 3862 251 
Q 3572 594 3572 1178 
Q 3572 1766 3864 2108 
Q 4156 2450 4653 2450 
z
M 1428 4353 
Q 1159 4353 1004 4120 
Q 850 3888 850 3481 
Q 850 3069 1003 2837 
Q 1156 2606 1428 2606 
Q 1700 2606 1854 2837 
Q 2009 3069 2009 3481 
Q 2009 3884 1853 4118 
Q 1697 4353 1428 4353 
z
M 4250 4750 
L 4750 4750 
L 1831 -91 
L 1331 -91 
L 4250 4750 
z
M 1428 4750 
Q 1922 4750 2215 4408 
Q 2509 4066 2509 3481 
Q 2509 2891 2217 2550 
Q 1925 2209 1428 2209 
Q 931 2209 642 2551 
Q 353 2894 353 3481 
Q 353 4063 643 4406 
Q 934 4750 1428 4750 
z
" transform="scale(0.015625)"/>
       <path id="DejaVuSans-66" d="M 2375 4863 
L 2375 4384 
L 1825 4384 
Q 1516 4384 1395 4259 
Q 1275 4134 1275 3809 
L 1275 3500 
L 2222 3500 
L 2222 3053 
L 1275 3053 
L 1275 0 
L 697 0 
L 697 3053 
L 147 3053 
L 147 3500 
L 697 3500 
L 697 3744 
Q 697 4328 969 4595 
Q 1241 4863 1831 4863 
L 2375 4863 
z
" transform="scale(0.015625)"/>
       <path id="DejaVuSans-6c" d="M 603 4863 
L 1178 4863 
L 1178 0 
L 603 0 
L 603 4863 
z
" transform="scale(0.015625)"/>
       <path id="DejaVuSans-47" d="M 3809 666 
L 3809 1919 
L 2778 1919 
L 2778 2438 
L 4434 2438 
L 4434 434 
Q 4069 175 3628 42 
Q 3188 -91 2688 -91 
Q 1594 -91 976 548 
Q 359 1188 359 2328 
Q 359 3472 976 4111 
Q 1594 4750 2688 4750 
Q 3144 4750 3555 4637 
Q 3966 4525 4313 4306 
L 4313 3634 
Q 3963 3931 3569 4081 
Q 3175 4231 2741 4231 
Q 1884 4231 1454 3753 
Q 1025 3275 1025 2328 
Q 1025 1384 1454 906 
Q 1884 428 2741 428 
Q 3075 428 3337 486 
Q 3600 544 3809 666 
z
" transform="scale(0.015625)"/>
       <path id="DejaVuSans-67" d="M 2906 1791 
Q 2906 2416 2648 2759 
Q 2391 3103 1925 3103 
Q 1463 3103 1205 2759 
Q 947 2416 947 1791 
Q 947 1169 1205 825 
Q 1463 481 1925 481 
Q 2391 481 2648 825 
Q 2906 1169 2906 1791 
z
M 3481 434 
Q 3481 -459 3084 -895 
Q 2688 -1331 1869 -1331 
Q 1566 -1331 1297 -1286 
Q 1028 -1241 775 -1147 
L 775 -588 
Q 1028 -725 1275 -790 
Q 1522 -856 1778 -856 
Q 2344 -856 2625 -561 
Q 2906 -266 2906 331 
L 2906 616 
Q 2728 306 2450 153 
Q 2172 0 1784 0 
Q 1141 0 747 490 
Q 353 981 353 1791 
Q 353 2603 747 3093 
Q 1141 3584 1784 3584 
Q 2172 3584 2450 3431 
Q 2728 3278 2906 2969 
L 2906 3500 
L 3481 3500 
L 3481 434 
z
" transform="scale(0.015625)"/>
       <path id="DejaVuSans-69" d="M 603 3500 
L 1178 3500 
L 1178 0 
L 603 0 
L 603 3500 
z
M 603 4863 
L 1178 4863 
L 1178 4134 
L 603 4134 
L 603 4863 
z
" transform="scale(0.015625)"/>
      </defs>
      <use xlink:href="#DejaVuSans-49"/>
      <use xlink:href="#DejaVuSans-50" x="29.492188"/>
      <use xlink:href="#DejaVuSans-76" x="89.794922"/>
      <use xlink:href="#DejaVuSans-36" x="148.974609"/>
      <use xlink:href="#DejaVuSans-20" x="212.597656"/>
      <use xlink:href="#DejaVuSans-61" x="244.384766"/>
      <use xlink:href="#DejaVuSans-73" x="305.664062"/>
      <use xlink:href="#DejaVuSans-20" x="357.763672"/>
      <use xlink:href="#DejaVuSans-25" x="389.550781"/>
      <use xlink:href="#DejaVuSans-20" x="484.570312"/>
      <use xlink:href="#DejaVuSans-6f" x="516.357422"/>
      <use xlink:href="#DejaVuSans-66" x="577.539062"/>
      <use xlink:href="#DejaVuSans-20" x="612.744141"/>
      <use xlink:href="#DejaVuSans-74" x="644.53125"/>
      <use xlink:href="#DejaVuSans-6f" x="683.740234"/>
      <use xlink:href="#DejaVuSans-74" x="744.921875"/>
      <use xlink:href="#DejaVuSans-61" x="784.130859"/>
      <use xlink:href="#DejaVuSans-6c" x="845.410156"/>
      <use xlink:href="#DejaVuSans-20" x="873.193359"/>
      <use xlink:href="#DejaVuSans-47" x="904.980469"/>
      <use xlink:href="#DejaVuSans-6f" x="982.470703"/>
      <use xlink:href="#DejaVuSans-6f" x="1043.652344"/>
      <use xlink:href="#DejaVuSans-67" x="1104.833984"/>
      <use xlink:href="#DejaVuSans-6c" x="1168.310547"/>
      <use xlink:href="#DejaVuSans-65" x="1196.09375"/>
      <use xlink:href="#DejaVuSans-20" x="1257.617188"/>
      <use xlink:href="#DejaVuSans-74" x="1289.404297"/>
      <use xlink:href="#DejaVuSans-72" x="1328.613281"/>
      <use xlink:href="#DejaVuSans-61" x="1369.726562"/>
      <use xlink:href="#DejaVuSans-66" x="1431.005859"/>
      <use xlink:href="#DejaVuSans-66" x="1466.210938"/>
      <use xlink:href="#DejaVuSans-69" x="1501.416016"/>
      <use xlink:href="#DejaVuSans-63" x="1529.199219"/>
     </g>
    </g>
   </g>
   <g id="line2d_15">
    <path d="M 73.832727 294.553402 
L 75.525841 294.381919 
L 75.949119 294.545211 
L 77.642233 294.544495 
L 79.335347 294.395647 
L 79.758625 294.26402 
L 81.02846 294.285856 
L 82.298296 294.254135 
L 82.721574 294.328245 
L 84.414688 294.17681 
L 86.107801 294.235909 
L 87.800915 294.157506 
L 91.187142 294.225485 
L 91.610421 294.332321 
L 93.726813 294.306365 
L 94.996648 294.255374 
L 96.689762 294.155696 
L 97.536319 294.164798 
L 97.959597 293.894436 
L 100.499268 293.801694 
L 101.345824 293.766108 
L 103.462216 293.85218 
L 105.578609 293.904604 
L 107.695001 293.870584 
L 108.964836 294.067541 
L 109.811393 294.041362 
L 110.65795 293.998962 
L 111.504506 294.190443 
L 113.620898 294.207942 
L 114.890734 294.328206 
L 117.007126 294.238103 
L 117.853683 294.128973 
L 118.276961 294.039019 
L 119.123518 294.034587 
L 122.086467 293.969224 
L 122.933024 294.063415 
L 123.356302 293.930739 
L 125.895973 294.176832 
L 129.2822 293.999545 
L 129.705478 294.005476 
L 130.128757 293.879192 
L 130.975314 293.984823 
L 131.82187 293.788755 
L 132.245149 293.837497 
L 132.668427 293.717127 
L 133.091706 293.769829 
L 133.938262 293.657823 
L 134.784819 293.614001 
L 138.594325 293.786884 
L 139.017603 293.604543 
L 140.710717 293.504688 
L 141.133995 293.604155 
L 144.943501 293.275582 
L 145.790058 293.072556 
L 146.636615 293.225924 
L 149.176285 292.825846 
L 151.292677 292.682335 
L 151.715956 292.469957 
L 152.139234 292.551797 
L 152.562513 292.363798 
L 155.102183 291.974644 
L 156.795297 291.400572 
L 157.218575 291.475243 
L 158.488411 291.34686 
L 158.911689 291.45173 
L 161.028081 291.057284 
L 162.297916 290.667546 
L 162.721195 290.726512 
L 163.144473 290.376637 
L 163.567752 290.207864 
L 165.260865 290.004365 
L 165.684144 290.168473 
L 166.107422 290.008908 
L 166.953979 289.921109 
L 167.377257 289.665902 
L 168.223814 289.495613 
L 169.916928 289.477875 
L 170.763485 289.260332 
L 172.03332 289.100039 
L 172.456598 288.890459 
L 172.879877 288.870245 
L 173.303155 288.978614 
L 174.996269 288.195113 
L 175.419547 288.213061 
L 177.112661 287.720386 
L 177.535939 287.390215 
L 177.959218 287.314461 
L 178.382496 287.110135 
L 178.805775 287.143411 
L 180.07561 286.641667 
L 180.498888 286.730388 
L 180.922167 286.483423 
L 181.345445 286.440017 
L 183.461837 285.279774 
L 184.308394 284.92655 
L 185.154951 284.307924 
L 186.424786 282.779007 
L 186.848064 283.022529 
L 187.271343 283.064657 
L 188.541178 281.612122 
L 188.964457 281.437951 
L 189.387735 280.703753 
L 190.234292 280.474725 
L 191.080849 279.986032 
L 191.504127 280.036962 
L 192.773962 279.235213 
L 193.197241 279.064923 
L 193.620519 278.750001 
L 194.467076 278.67538 
L 194.890354 277.961969 
L 195.313633 277.952567 
L 195.736911 277.168222 
L 196.16019 276.762013 
L 197.006746 276.878601 
L 197.430025 276.588203 
L 197.853303 276.140871 
L 198.69986 275.62014 
L 199.123139 275.154621 
L 199.546417 275.440032 
L 201.239531 274.526671 
L 201.662809 274.188952 
L 202.086087 272.801142 
L 202.509366 273.0644 
L 203.355923 272.122011 
L 203.779201 272.081549 
L 204.20248 272.488952 
L 205.472315 271.561946 
L 205.895593 270.933057 
L 206.74215 270.981543 
L 207.165428 270.301069 
L 207.588707 270.254232 
L 208.011985 266.649228 
L 208.435264 269.021133 
L 208.858542 270.434117 
L 209.281821 269.747534 
L 209.705099 269.363856 
L 210.128377 269.302024 
L 210.551656 268.399025 
L 210.974934 268.11608 
L 212.244769 266.156147 
L 212.668048 264.876428 
L 213.091326 264.146001 
L 213.514605 263.154336 
L 213.937883 262.499602 
L 214.361162 263.54524 
L 214.78444 263.385219 
L 215.207718 263.414168 
L 215.630997 263.583086 
L 216.054275 263.898497 
L 216.477554 263.77816 
L 216.900832 261.472151 
L 217.32411 261.813241 
L 218.593946 260.598124 
L 219.017224 260.434577 
L 219.863781 260.506482 
L 220.287059 258.763338 
L 220.710338 258.699851 
L 221.556895 257.324203 
L 221.980173 257.793215 
L 222.403451 255.646099 
L 222.82673 256.153602 
L 223.250008 254.704171 
L 223.673287 254.010108 
L 224.096565 252.967946 
L 224.519844 253.691665 
L 224.943122 252.595374 
L 225.3664 250.771561 
L 225.789679 251.690593 
L 226.212957 251.952585 
L 226.636236 251.386461 
L 227.059514 249.718831 
L 227.482792 250.182068 
L 227.906071 248.709718 
L 228.329349 249.048886 
L 229.175906 247.06308 
L 229.599185 246.057121 
L 230.86902 245.741289 
L 231.292298 244.579718 
L 231.715577 244.721069 
L 232.138855 244.285327 
L 232.562133 243.13408 
L 232.985412 242.841888 
L 233.40869 241.554633 
L 233.831969 240.672176 
L 234.255247 240.516653 
L 234.678526 240.733863 
L 235.101804 240.172365 
L 235.525082 237.780406 
L 236.371639 239.183449 
L 236.794918 238.913932 
L 237.641474 238.833169 
L 238.064753 238.880689 
L 238.91131 238.59209 
L 239.334588 237.246291 
L 239.757867 237.182582 
L 240.181145 235.989063 
L 240.604423 235.985709 
L 241.027702 235.804402 
L 242.297537 232.390834 
L 242.720815 230.380282 
L 243.144094 231.753287 
L 243.567372 231.177806 
L 243.990651 229.988296 
L 244.413929 230.253071 
L 244.837208 227.713491 
L 245.260486 228.08608 
L 245.683764 227.774684 
L 246.107043 226.002656 
L 246.530321 225.985885 
L 246.9536 224.665032 
L 247.376878 224.983069 
L 247.800156 223.938342 
L 248.223435 223.383352 
L 248.646713 223.678199 
L 249.069992 222.962838 
L 249.49327 221.846833 
L 249.916549 222.203589 
L 250.339827 221.6743 
L 250.763105 219.918055 
L 251.186384 219.183618 
L 251.609662 219.252319 
L 252.032941 217.198557 
L 252.456219 217.563781 
L 253.302776 215.117649 
L 253.726054 212.676709 
L 254.149333 212.917965 
L 254.99589 211.54541 
L 255.419168 210.007497 
L 255.842446 210.213094 
L 256.265725 209.568573 
L 256.689003 207.136896 
L 257.112282 206.283733 
L 257.53556 202.252122 
L 257.958838 204.873331 
L 258.382117 204.398094 
L 258.805395 205.023201 
L 259.228674 204.289147 
L 260.075231 205.481312 
L 260.498509 205.243648 
L 260.921787 204.198605 
L 261.345066 204.512894 
L 262.191623 203.181894 
L 262.614901 202.079012 
L 263.038179 201.904108 
L 263.461458 201.158575 
L 263.884736 198.477645 
L 264.308015 199.318913 
L 264.731293 195.723799 
L 265.154572 196.002091 
L 265.57785 194.047923 
L 266.001128 192.843441 
L 266.424407 192.118229 
L 266.847685 191.618006 
L 267.270964 190.628163 
L 267.694242 188.81524 
L 268.11752 185.826241 
L 268.540799 186.581031 
L 270.233913 183.176782 
L 270.657191 182.616917 
L 271.080469 182.638108 
L 271.503748 182.946561 
L 271.927026 181.887389 
L 272.350305 180.402955 
L 272.773583 181.732805 
L 273.196861 181.758473 
L 273.62014 182.943218 
L 274.043418 181.646655 
L 274.466697 179.630844 
L 274.889975 179.889144 
L 275.313254 179.018882 
L 276.583089 177.634903 
L 277.429646 176.618326 
L 277.852924 176.508208 
L 278.276202 191.248217 
L 278.699481 174.636958 
L 279.122759 173.839662 
L 279.546038 169.811495 
L 279.969316 173.548692 
L 280.815873 173.002615 
L 281.239151 172.999972 
L 281.66243 172.49985 
L 282.085708 172.253384 
L 282.508987 173.622535 
L 282.932265 174.490526 
L 283.355543 174.279519 
L 283.778822 173.103582 
L 284.2021 173.188021 
L 285.471936 172.199189 
L 285.895214 169.557382 
L 286.318492 170.60011 
L 286.741771 167.80222 
L 287.165049 168.981984 
L 287.588328 166.63353 
L 288.011606 165.167172 
L 288.434884 166.031775 
L 288.858163 164.233524 
L 289.281441 163.039511 
L 289.70472 162.78562 
L 290.127998 163.761769 
L 290.551277 164.276685 
L 291.821112 161.639494 
L 292.24439 162.245975 
L 292.667669 163.119985 
L 293.090947 163.289463 
L 293.514225 161.289258 
L 293.937504 160.544236 
L 294.360782 159.094272 
L 294.784061 158.737022 
L 295.207339 158.533956 
L 295.630618 158.685692 
L 296.053896 158.494433 
L 296.900453 156.502674 
L 297.323731 157.6647 
L 297.74701 153.983653 
L 298.170288 154.078333 
L 298.593566 153.629452 
L 299.016845 150.94469 
L 299.440123 150.139148 
L 299.863402 149.654969 
L 300.28668 149.658496 
L 300.709959 148.202967 
L 301.133237 148.103744 
L 301.979794 145.802395 
L 302.403072 147.321415 
L 302.826351 148.299824 
L 303.672907 145.969807 
L 304.096186 147.112596 
L 304.519464 146.903644 
L 304.942743 147.401084 
L 305.366021 145.642362 
L 305.7893 145.028723 
L 306.212578 146.358378 
L 306.635856 144.449698 
L 307.059135 144.602417 
L 307.482413 144.057967 
L 308.32897 143.846905 
L 308.752248 140.076659 
L 309.175527 139.966835 
L 309.598805 140.264392 
L 310.022084 141.176326 
L 310.868641 136.776542 
L 311.291919 134.835613 
L 311.715197 134.342972 
L 312.138476 134.512184 
L 312.561754 134.157944 
L 312.985033 132.229937 
L 313.408311 133.819875 
L 313.831589 132.12705 
L 314.254868 133.697945 
L 314.678146 132.571832 
L 315.101425 131.890175 
L 315.524703 131.833331 
L 315.947982 131.910128 
L 316.37126 130.442166 
L 316.794538 130.608957 
L 317.217817 132.197717 
L 317.641095 131.659381 
L 318.064374 132.311073 
L 318.487652 132.57743 
L 318.91093 130.541338 
L 319.334209 131.760764 
L 319.757487 132.088442 
L 320.180766 131.33172 
L 320.604044 130.869361 
L 321.027323 129.045498 
L 321.450601 129.430437 
L 321.873879 129.03348 
L 322.297158 129.165123 
L 322.720436 128.104513 
L 323.143715 127.64056 
L 323.566993 126.298099 
L 323.990271 125.711316 
L 324.41355 126.540871 
L 324.836828 126.78752 
L 325.260107 126.843009 
L 326.106664 124.933918 
L 326.529942 125.391585 
L 326.95322 123.999465 
L 327.376499 124.601981 
L 327.799777 124.341604 
L 328.223056 123.378706 
L 328.646334 123.61402 
L 329.069612 124.275485 
L 329.492891 123.973936 
L 329.916169 123.989696 
L 330.339448 121.488463 
L 331.186005 119.707672 
L 331.609283 120.001697 
L 332.032561 119.379139 
L 332.45584 117.307116 
L 332.879118 117.977384 
L 333.302397 115.004045 
L 333.725675 117.383587 
L 334.148953 115.413725 
L 334.572232 112.720949 
L 334.99551 113.508665 
L 335.418789 111.827297 
L 335.842067 110.692743 
L 336.265346 110.801279 
L 336.688624 109.950099 
L 337.111902 112.083936 
L 337.535181 110.306255 
L 337.958459 110.972818 
L 338.381738 111.363899 
L 339.651573 108.636448 
L 340.074851 110.90726 
L 340.49813 110.952759 
L 340.921408 109.94891 
L 341.344686 110.517739 
L 341.767965 111.896875 
L 342.191243 110.824275 
L 342.614522 108.328601 
L 343.0378 112.471713 
L 343.461079 111.355663 
L 343.884357 109.740258 
L 344.307635 111.095381 
L 344.730914 111.193293 
L 345.154192 108.980342 
L 345.577471 107.878276 
L 346.000749 105.857934 
L 346.424027 106.843167 
L 346.847306 106.096741 
L 347.270584 106.326963 
L 347.693863 106.959422 
L 348.117141 105.344411 
L 348.54042 104.682252 
L 348.963698 105.879531 
L 349.386976 105.581119 
L 349.810255 102.990315 
L 350.233533 102.42042 
L 350.656812 100.657183 
L 351.08009 103.552658 
L 351.503368 104.512946 
L 351.926647 103.568918 
L 352.349925 103.388383 
L 352.773204 103.536436 
L 353.196482 98.429555 
L 353.619761 101.843533 
L 354.043039 99.87627 
L 354.889596 100.871445 
L 355.312874 96.034686 
L 355.736153 95.416537 
L 356.159431 93.470899 
L 356.582709 93.393463 
L 357.005988 95.153345 
L 357.429266 92.726411 
L 357.852545 92.249352 
L 358.275823 90.996039 
L 358.699102 90.542787 
L 359.12238 89.118802 
L 359.545658 89.331703 
L 359.968937 92.784122 
L 360.392215 90.922379 
L 360.815494 89.743565 
L 361.238772 91.98551 
L 361.66205 90.745714 
L 362.085329 90.309289 
L 362.508607 88.519319 
L 363.355164 91.368167 
L 363.778443 91.055294 
L 364.201721 91.501948 
L 364.624999 91.360431 
L 365.048278 89.755444 
L 365.471556 91.611178 
L 365.894835 89.381633 
L 366.318113 88.593173 
L 366.741391 88.510566 
L 367.587948 85.73489 
L 368.011227 82.637655 
L 368.434505 84.749956 
L 368.857784 88.695228 
L 369.281062 84.251228 
L 369.70434 84.042464 
L 370.127619 87.024633 
L 370.974176 83.055437 
L 371.397454 83.00238 
L 371.820732 83.840304 
L 372.244011 83.806112 
L 372.667289 84.447779 
L 373.090568 76.904284 
L 373.513846 76.098986 
L 373.937125 76.323859 
L 374.360403 74.782164 
L 374.783681 74.2765 
L 375.20696 71.595148 
L 375.630238 75.002184 
L 376.053517 76.330635 
L 376.476795 73.415984 
L 376.900073 75.336577 
L 377.323352 72.070485 
L 377.74663 70.407515 
L 378.169909 66.373167 
L 378.593187 67.458739 
L 379.016466 61.481257 
L 379.439744 63.90271 
L 380.286301 67.584701 
L 380.709579 65.84199 
L 381.132858 66.181941 
L 381.556136 66.913057 
L 381.979414 66.764203 
L 382.402693 68.888889 
L 382.825971 67.898462 
L 383.24925 66.345777 
L 383.672528 66.70391 
L 384.095807 65.112673 
L 384.519085 65.51696 
L 384.942363 63.570873 
L 385.365642 64.944661 
L 385.78892 68.651436 
L 386.212199 66.156978 
L 386.635477 62.375265 
L 387.058755 65.509308 
L 387.482034 63.688716 
L 387.905312 65.579647 
L 388.328591 63.872144 
L 388.751869 63.847865 
L 390.021704 57.274159 
L 390.444983 60.219459 
L 390.868261 59.994246 
L 391.29154 58.519964 
L 391.714818 58.954484 
L 392.138096 61.466885 
L 392.984653 59.296295 
L 393.407932 60.887144 
L 393.83121 59.99213 
L 394.254489 58.257866 
L 394.677767 58.291592 
L 395.524324 55.413932 
L 395.947602 56.669422 
L 396.370881 56.649058 
L 396.794159 53.916109 
L 397.217437 55.323962 
L 398.063994 55.087837 
L 398.487273 53.568 
L 398.487273 53.568 
" clip-path="url(#pe89a125a13)" style="fill: none; stroke: #1f77b4; stroke-width: 1.5; stroke-linecap: square"/>
   </g>
   <g id="line2d_16">
    <path d="M 73.832727 294.818788 
L 75.525841 294.677698 
L 75.949119 294.79578 
L 85.261245 294.536909 
L 86.107801 294.52794 
L 88.224193 294.460605 
L 90.340586 294.529545 
L 92.033699 294.526435 
L 97.959597 294.442606 
L 98.382875 294.2438 
L 100.922546 294.164142 
L 103.038938 294.177082 
L 105.578609 294.210019 
L 107.695001 294.211002 
L 109.388114 294.319277 
L 110.65795 294.328101 
L 113.19762 294.358667 
L 116.160569 294.458761 
L 117.007126 294.444222 
L 118.276961 294.269679 
L 119.970075 294.243445 
L 122.086467 294.183096 
L 127.165808 294.366219 
L 133.091706 293.907892 
L 133.938262 293.849903 
L 134.784819 293.785778 
L 135.631376 293.885545 
L 136.477933 293.898657 
L 137.32449 293.951097 
L 138.594325 293.986539 
L 139.440882 293.677443 
L 140.287439 293.71695 
L 140.710717 293.798562 
L 142.403831 293.694614 
L 142.827109 293.750437 
L 143.250388 293.614417 
L 145.36678 293.565947 
L 146.213336 293.392648 
L 146.636615 293.390599 
L 147.059893 293.501211 
L 152.985791 292.809352 
L 153.832348 292.693981 
L 154.255626 292.685312 
L 154.678905 292.540124 
L 155.525462 292.547699 
L 156.795297 292.127268 
L 158.488411 291.832299 
L 158.911689 291.959816 
L 160.604803 291.828328 
L 166.5307 290.745993 
L 166.953979 290.793525 
L 167.800536 290.521936 
L 168.647093 290.413939 
L 169.070371 290.16568 
L 170.340206 290.448242 
L 171.186763 290.253252 
L 171.610041 290.195935 
L 172.03332 289.954701 
L 172.456598 289.972766 
L 172.879877 289.794069 
L 174.149712 289.70276 
L 174.57299 289.447948 
L 175.842826 289.190287 
L 176.266104 289.193069 
L 176.689382 289.029844 
L 177.112661 289.013256 
L 178.805775 288.507119 
L 179.652331 288.263869 
L 180.07561 288.006203 
L 180.498888 288.152396 
L 181.768723 287.638035 
L 182.61528 287.209307 
L 183.038559 286.884439 
L 183.885116 286.65876 
L 184.308394 286.762453 
L 185.154951 286.603904 
L 186.424786 285.390697 
L 186.848064 285.099266 
L 187.271343 285.179385 
L 187.694621 285.023029 
L 188.964457 284.112078 
L 189.387735 283.957938 
L 190.234292 283.222024 
L 190.65757 283.121191 
L 191.080849 281.732325 
L 191.504127 281.861997 
L 191.927405 282.787221 
L 192.350684 282.686749 
L 193.197241 281.976797 
L 193.620519 282.618347 
L 194.043798 281.787659 
L 194.467076 281.736568 
L 194.890354 281.478368 
L 195.313633 280.874459 
L 195.736911 280.905147 
L 196.583468 279.980184 
L 197.006746 280.008079 
L 197.430025 279.801415 
L 197.853303 279.05114 
L 198.276582 279.30448 
L 198.69986 278.736601 
L 199.123139 278.906946 
L 199.546417 278.701942 
L 199.969695 278.785604 
L 200.392974 278.145747 
L 200.816252 278.17041 
L 201.239531 277.517625 
L 201.662809 277.631036 
L 202.509366 276.253244 
L 202.932644 275.980589 
L 203.355923 275.893878 
L 203.779201 275.577651 
L 204.20248 275.546308 
L 204.625758 275.667355 
L 205.049036 275.644397 
L 206.318872 275.192329 
L 206.74215 275.339516 
L 207.588707 274.959158 
L 208.011985 274.303402 
L 208.435264 272.831502 
L 208.858542 273.930203 
L 209.281821 274.291901 
L 209.705099 273.912187 
L 210.128377 274.132446 
L 210.551656 273.582949 
L 211.398213 272.872442 
L 211.821491 272.168071 
L 212.244769 271.726326 
L 212.668048 270.800908 
L 213.091326 268.062039 
L 213.514605 266.307749 
L 213.937883 268.906567 
L 214.361162 269.591895 
L 214.78444 269.610743 
L 215.207718 269.884659 
L 215.630997 269.864933 
L 216.054275 270.231524 
L 216.477554 269.475001 
L 216.900832 269.608027 
L 217.32411 268.195082 
L 217.747389 267.763311 
L 218.170667 268.008788 
L 219.017224 266.599797 
L 219.440503 266.98116 
L 219.863781 266.944391 
L 220.287059 266.490323 
L 220.710338 265.831279 
L 221.133616 265.488379 
L 221.556895 265.536982 
L 222.403451 263.494115 
L 222.82673 262.893249 
L 223.250008 262.570346 
L 223.673287 261.393376 
L 224.096565 260.985729 
L 225.3664 258.612435 
L 225.789679 259.015362 
L 226.636236 258.619071 
L 227.482792 257.858201 
L 227.906071 258.188977 
L 228.752628 257.769524 
L 229.599185 256.72001 
L 230.86902 256.183546 
L 231.292298 256.187061 
L 231.715577 255.086711 
L 232.138855 254.975877 
L 232.562133 255.006031 
L 232.985412 254.442489 
L 234.255247 251.652274 
L 234.678526 251.125968 
L 235.101804 248.586194 
L 235.525082 245.00292 
L 235.948361 250.319559 
L 236.371639 251.478086 
L 236.794918 251.154612 
L 237.218196 250.584195 
L 237.641474 250.66182 
L 238.064753 250.955595 
L 238.91131 249.755434 
L 239.757867 249.207813 
L 240.181145 248.764891 
L 240.604423 247.500138 
L 241.027702 247.206747 
L 241.45098 247.135047 
L 242.297537 246.015904 
L 242.720815 244.685605 
L 243.144094 243.856532 
L 243.567372 244.379035 
L 244.413929 242.744965 
L 244.837208 241.241727 
L 245.260486 240.804491 
L 245.683764 240.590652 
L 246.530321 238.18 
L 246.9536 236.302613 
L 247.376878 237.124766 
L 247.800156 236.969793 
L 248.223435 236.025132 
L 248.646713 235.387552 
L 249.069992 235.224316 
L 249.49327 235.339743 
L 249.916549 236.642576 
L 250.339827 235.974563 
L 250.763105 236.273514 
L 251.186384 235.564312 
L 251.609662 235.641404 
L 252.032941 234.843736 
L 252.879497 232.612726 
L 253.302776 232.836816 
L 254.149333 229.681348 
L 254.572611 230.429052 
L 254.99589 229.847956 
L 255.419168 228.472746 
L 255.842446 228.370641 
L 256.265725 227.447667 
L 256.689003 226.922154 
L 257.112282 223.256607 
L 257.53556 214.798773 
L 257.958838 220.887434 
L 258.382117 224.133944 
L 258.805395 224.476894 
L 259.651952 224.119499 
L 260.075231 224.218705 
L 260.498509 224.173262 
L 260.921787 223.162749 
L 261.345066 222.910547 
L 261.768344 223.225325 
L 262.614901 222.043096 
L 263.461458 219.920415 
L 263.884736 217.595463 
L 264.308015 218.377593 
L 264.731293 218.261766 
L 265.154572 214.045205 
L 265.57785 214.969973 
L 266.424407 212.156633 
L 266.847685 209.449713 
L 267.270964 209.352157 
L 267.694242 208.981451 
L 268.540799 204.266289 
L 268.964077 203.953461 
L 269.387356 203.257254 
L 269.810634 202.917253 
L 270.657191 200.226304 
L 271.080469 199.995633 
L 271.503748 199.915947 
L 271.927026 201.095739 
L 272.350305 201.231619 
L 272.773583 202.232541 
L 273.196861 202.93072 
L 274.043418 203.487137 
L 274.466697 201.100598 
L 274.889975 200.498693 
L 275.313254 201.019202 
L 275.736532 199.956687 
L 276.15981 198.00168 
L 276.583089 199.703297 
L 277.006367 200.377834 
L 277.429646 198.364584 
L 277.852924 198.116952 
L 278.276202 196.983165 
L 278.699481 191.248217 
L 279.122759 193.54463 
L 279.546038 184.060233 
L 280.392595 195.321961 
L 280.815873 193.860668 
L 281.239151 195.395971 
L 281.66243 194.826054 
L 282.085708 194.731379 
L 282.508987 193.244474 
L 282.932265 195.754487 
L 283.355543 196.449584 
L 283.778822 195.798798 
L 284.2021 194.373291 
L 284.625379 193.887313 
L 285.048657 192.774585 
L 285.471936 192.697087 
L 285.895214 194.66671 
L 286.318492 193.540926 
L 286.741771 191.94002 
L 287.165049 189.690078 
L 287.588328 189.476156 
L 288.011606 188.545734 
L 288.434884 188.65939 
L 288.858163 186.264249 
L 289.281441 186.208998 
L 289.70472 184.560567 
L 290.127998 184.298146 
L 290.551277 183.795114 
L 290.974555 182.22011 
L 291.821112 182.233127 
L 292.667669 181.595841 
L 293.090947 182.543129 
L 293.514225 180.937214 
L 293.937504 180.082269 
L 294.360782 183.143545 
L 294.784061 183.295703 
L 295.207339 183.150859 
L 295.630618 183.243306 
L 296.053896 183.166136 
L 296.477174 181.633332 
L 296.900453 181.998857 
L 297.323731 182.617894 
L 297.74701 181.934671 
L 298.170288 178.798573 
L 298.593566 179.658072 
L 299.016845 179.229467 
L 299.440123 175.895652 
L 299.863402 177.526756 
L 301.133237 173.177158 
L 301.556515 159.578295 
L 301.979794 164.794451 
L 302.403072 172.639601 
L 302.826351 174.079452 
L 303.672907 172.688521 
L 304.096186 171.324423 
L 304.519464 172.344254 
L 304.942743 172.054873 
L 305.366021 173.128139 
L 305.7893 170.705197 
L 306.212578 172.845293 
L 307.059135 170.62304 
L 307.482413 170.59183 
L 307.905692 171.255755 
L 308.32897 168.47838 
L 308.752248 168.008757 
L 309.175527 165.683399 
L 309.598805 167.81893 
L 310.022084 169.17713 
L 310.445362 166.568789 
L 311.291919 159.2947 
L 311.715197 160.884448 
L 312.138476 159.574846 
L 312.561754 158.859624 
L 312.985033 157.160924 
L 313.408311 157.867243 
L 313.831589 158.0647 
L 314.254868 157.887213 
L 314.678146 157.322411 
L 315.101425 156.421622 
L 315.524703 153.907483 
L 315.947982 157.084065 
L 316.37126 157.98337 
L 316.794538 158.152555 
L 317.217817 159.581938 
L 317.641095 160.375185 
L 318.487652 160.080672 
L 318.91093 160.631791 
L 319.334209 160.313831 
L 319.757487 161.034745 
L 320.604044 158.125987 
L 321.027323 159.956776 
L 321.450601 159.334812 
L 321.873879 157.786775 
L 322.297158 157.957786 
L 322.720436 157.212231 
L 323.143715 154.890884 
L 323.566993 142.057384 
L 323.990271 141.715722 
L 324.41355 154.277372 
L 324.836828 156.03871 
L 325.260107 156.399314 
L 325.683385 155.187013 
L 326.106664 153.549677 
L 326.95322 151.714979 
L 327.376499 151.663022 
L 327.799777 152.27173 
L 328.223056 151.835671 
L 328.646334 142.040474 
L 329.069612 137.765408 
L 329.492891 136.100649 
L 329.916169 137.341867 
L 331.186005 132.992452 
L 331.609283 133.297739 
L 332.032561 135.601271 
L 332.45584 133.490386 
L 332.879118 132.684766 
L 333.302397 134.569528 
L 333.725675 135.605742 
L 334.572232 132.347358 
L 334.99551 129.245214 
L 335.418789 129.010561 
L 335.842067 127.326916 
L 336.265346 128.781167 
L 336.688624 128.581239 
L 337.111902 129.730442 
L 337.535181 128.629271 
L 337.958459 128.63845 
L 338.381738 129.608723 
L 338.805016 131.324501 
L 339.228294 130.50463 
L 339.651573 132.473321 
L 340.49813 132.612267 
L 340.921408 133.372099 
L 341.344686 131.987593 
L 341.767965 132.183011 
L 342.191243 131.088159 
L 342.614522 129.106535 
L 343.0378 131.366395 
L 343.461079 131.82118 
L 343.884357 131.600116 
L 344.307635 134.139762 
L 344.730914 132.012411 
L 345.577471 123.411904 
L 346.000749 116.570875 
L 346.847306 126.805746 
L 347.270584 126.048252 
L 347.693863 126.993145 
L 348.117141 125.822562 
L 348.963698 124.820257 
L 349.386976 124.968993 
L 349.810255 126.672925 
L 350.233533 126.251328 
L 350.656812 126.038372 
L 351.08009 124.036112 
L 351.503368 127.316764 
L 352.349925 124.227582 
L 352.773204 126.55671 
L 353.196482 125.203752 
L 353.619761 121.683143 
L 354.043039 122.029036 
L 354.466317 119.935217 
L 354.889596 118.708316 
L 355.312874 120.634612 
L 355.736153 121.024071 
L 356.582709 113.320922 
L 357.005988 113.189778 
L 357.429266 112.808693 
L 357.852545 112.028496 
L 358.275823 109.196031 
L 358.699102 110.690366 
L 359.12238 109.276638 
L 359.545658 109.384929 
L 359.968937 110.66587 
L 360.392215 113.799635 
L 360.815494 114.526275 
L 361.238772 114.578449 
L 361.66205 116.150488 
L 362.085329 113.867076 
L 362.931886 115.087518 
L 363.355164 115.372157 
L 363.778443 115.138865 
L 364.201721 114.678283 
L 364.624999 117.154631 
L 365.048278 116.015246 
L 365.471556 116.560096 
L 365.894835 114.941036 
L 366.318113 116.063072 
L 367.16467 113.301562 
L 367.587948 107.797313 
L 368.011227 94.908696 
L 368.434505 102.340279 
L 368.857784 107.792404 
L 369.281062 108.146178 
L 369.70434 109.952314 
L 370.127619 108.243001 
L 370.550897 111.123826 
L 370.974176 110.106044 
L 371.397454 106.527279 
L 371.820732 108.487028 
L 372.244011 108.480314 
L 372.667289 110.882364 
L 373.090568 106.80752 
L 373.513846 99.911035 
L 373.937125 100.074238 
L 374.360403 110.935293 
L 374.783681 98.742544 
L 375.630238 95.129138 
L 376.053517 98.979747 
L 376.476795 98.793919 
L 376.900073 97.391925 
L 377.323352 94.167356 
L 377.74663 94.836718 
L 378.593187 86.897527 
L 379.016466 87.699321 
L 379.439744 87.466039 
L 379.863022 84.911543 
L 380.286301 84.816447 
L 380.709579 85.765572 
L 381.132858 84.457253 
L 381.556136 85.33374 
L 381.979414 85.440049 
L 382.402693 88.921329 
L 382.825971 89.789403 
L 383.672528 92.923306 
L 384.095807 90.770749 
L 384.519085 91.956904 
L 384.942363 92.094257 
L 385.365642 89.119407 
L 385.78892 92.46032 
L 386.212199 93.388209 
L 386.635477 90.157204 
L 387.058755 89.283233 
L 387.482034 91.673615 
L 387.905312 87.998404 
L 388.328591 91.576858 
L 388.751869 91.892646 
L 389.175148 87.333741 
L 390.021704 72.510231 
L 390.444983 80.096609 
L 390.868261 85.265567 
L 391.29154 85.187675 
L 391.714818 85.798176 
L 392.138096 84.606284 
L 392.561375 84.745708 
L 392.984653 85.500131 
L 393.83121 83.079433 
L 394.254489 86.248984 
L 395.101045 78.654514 
L 395.524324 82.5368 
L 395.947602 78.055586 
L 396.370881 80.854509 
L 396.794159 81.541931 
L 397.217437 80.191528 
L 397.640716 76.868492 
L 398.063994 81.901713 
L 398.487273 81.735084 
L 398.487273 81.735084 
" clip-path="url(#pe89a125a13)" style="fill: none; stroke: #ff7f0e; stroke-width: 1.5; stroke-linecap: square"/>
   </g>
   <g id="line2d_17">
    <path d="M 73.832727 295.299806 
L 80.181904 295.268835 
L 80.605182 295.338736 
L 81.451739 295.223731 
L 81.875017 295.311852 
L 82.298296 295.208908 
L 82.721574 295.311252 
L 83.991409 295.206998 
L 95.843205 295.272961 
L 96.266483 295.229867 
L 96.689762 295.32904 
L 97.959597 295.017022 
L 98.382875 295.216428 
L 108.118279 295.270168 
L 108.541557 295.40717 
L 109.811393 295.3162 
L 110.65795 295.236053 
L 111.504506 295.36853 
L 111.927785 295.386834 
L 112.351063 295.285295 
L 113.19762 295.409492 
L 114.044177 295.42769 
L 115.314012 295.432 
L 119.546796 295.316572 
L 120.816632 295.318477 
L 121.23991 295.386495 
L 122.086467 295.35132 
L 122.933024 295.352036 
L 123.77958 295.362266 
L 124.202859 295.461066 
L 127.589086 295.363248 
L 137.32449 295.425385 
L 137.747768 295.488 
L 139.017603 295.34224 
L 139.440882 295.439996 
L 140.287439 295.295703 
L 140.710717 295.271318 
L 141.133995 295.406937 
L 141.557274 295.408309 
L 141.980552 295.284374 
L 143.250388 295.450953 
L 143.673666 295.30155 
L 144.943501 295.280458 
L 145.36678 295.132011 
L 146.636615 295.400517 
L 147.483172 295.130878 
L 147.90645 295.22041 
L 148.329729 295.098812 
L 149.599564 295.12553 
L 150.022842 295.150753 
L 150.446121 295.314851 
L 151.292677 295.230206 
L 151.715956 294.894742 
L 152.139234 295.112463 
L 152.562513 295.010819 
L 153.832348 295.20571 
L 154.255626 295.056707 
L 154.678905 295.10596 
L 155.525462 294.869052 
L 155.94874 294.924686 
L 156.795297 294.838497 
L 157.218575 294.987633 
L 158.065132 294.824602 
L 158.488411 295.079753 
L 161.451359 294.831683 
L 162.297916 294.786945 
L 162.721195 294.808692 
L 163.144473 294.584646 
L 163.567752 294.527762 
L 164.414308 294.716406 
L 165.260865 294.670512 
L 165.684144 294.943506 
L 167.377257 294.608903 
L 168.647093 294.646466 
L 169.070371 294.930533 
L 170.340206 294.454341 
L 171.186763 294.539613 
L 171.610041 294.477193 
L 172.03332 294.71053 
L 172.456598 294.482885 
L 173.303155 294.771434 
L 174.57299 294.372906 
L 175.842826 294.476365 
L 176.266104 294.254463 
L 176.689382 294.397629 
L 177.535939 294.081752 
L 177.959218 294.239019 
L 178.382496 294.127473 
L 178.805775 294.201483 
L 179.652331 294.15097 
L 180.498888 294.143184 
L 180.922167 294.030206 
L 181.345445 294.154163 
L 182.61528 293.975749 
L 183.038559 294.183496 
L 183.885116 294.023591 
L 184.308394 293.729289 
L 184.731672 293.595047 
L 185.154951 293.269213 
L 186.001508 293.22308 
L 186.424786 292.953502 
L 186.848064 293.488455 
L 187.271343 293.450464 
L 187.694621 293.143561 
L 188.1179 293.0878 
L 188.541178 292.670456 
L 188.964457 292.891065 
L 189.387735 292.311007 
L 190.234292 292.817894 
L 190.65757 292.710663 
L 191.080849 293.818899 
L 191.504127 293.740157 
L 191.927405 292.508347 
L 192.350684 292.373066 
L 192.773962 292.42122 
L 193.197241 292.653319 
L 193.620519 291.696846 
L 194.043798 292.499123 
L 194.467076 292.504004 
L 194.890354 292.048793 
L 195.313633 292.6433 
L 195.736911 291.828267 
L 196.16019 291.950281 
L 196.583468 292.404499 
L 197.006746 292.435714 
L 197.430025 292.35198 
L 197.853303 292.654924 
L 198.276582 292.14892 
L 198.69986 292.448731 
L 199.123139 291.812868 
L 199.546417 292.303282 
L 199.969695 292.014167 
L 200.392974 292.424446 
L 200.816252 292.220731 
L 201.239531 292.574238 
L 202.086087 291.534515 
L 202.509366 292.376349 
L 202.932644 292.239702 
L 203.355923 291.793325 
L 203.779201 292.06909 
L 204.20248 292.507836 
L 204.625758 292.055523 
L 205.049036 291.794664 
L 205.472315 291.667052 
L 205.895593 291.110474 
L 206.318872 291.379703 
L 206.74215 291.20722 
L 207.165428 290.728906 
L 207.588707 290.860266 
L 208.011985 287.911018 
L 208.435264 291.754823 
L 208.858542 292.069107 
L 209.281821 291.020825 
L 209.705099 291.01686 
L 210.551656 290.381269 
L 210.974934 290.42719 
L 211.398213 290.130233 
L 211.821491 290.264336 
L 212.668048 289.640712 
L 213.091326 291.649153 
L 213.514605 292.411779 
L 213.937883 289.158227 
L 214.361162 289.518537 
L 215.207718 289.094702 
L 215.630997 289.283345 
L 216.054275 289.232165 
L 216.477554 289.868351 
L 216.900832 287.429316 
L 217.32411 289.183351 
L 217.747389 289.17516 
L 218.170667 288.462376 
L 218.593946 288.832543 
L 219.017224 289.399972 
L 219.440503 289.042306 
L 219.863781 289.127284 
L 220.287059 287.838207 
L 220.710338 288.433764 
L 221.133616 288.009768 
L 221.556895 287.352413 
L 221.980173 288.871444 
L 222.403451 287.717176 
L 222.82673 288.825546 
L 223.250008 287.699017 
L 223.673287 288.181924 
L 224.096565 287.547409 
L 224.519844 289.090282 
L 224.943122 288.756156 
L 225.3664 287.724318 
L 226.212957 288.658122 
L 226.636236 288.332582 
L 227.059514 287.107263 
L 227.482792 287.88906 
L 227.906071 286.085933 
L 228.329349 286.651035 
L 228.752628 285.736619 
L 229.599185 284.902304 
L 230.445741 285.060387 
L 230.86902 285.122935 
L 231.292298 283.957849 
L 231.715577 285.19955 
L 232.138855 284.874643 
L 232.562133 283.693241 
L 232.985412 283.964591 
L 233.40869 283.698683 
L 233.831969 283.816132 
L 234.678526 285.173088 
L 235.101804 287.151363 
L 235.525082 288.342678 
L 235.948361 283.709984 
L 236.371639 283.270555 
L 236.794918 283.324512 
L 237.218196 283.822035 
L 237.641474 283.736541 
L 238.064753 283.490286 
L 238.91131 284.401849 
L 239.334588 283.268689 
L 239.757867 283.539961 
L 240.181145 282.789364 
L 240.604423 284.050763 
L 241.027702 284.162847 
L 241.45098 283.028188 
L 242.297537 281.940122 
L 242.720815 281.25987 
L 243.144094 283.461947 
L 243.567372 282.363963 
L 243.990651 282.017753 
L 244.413929 283.073298 
L 244.837208 282.036957 
L 245.260486 282.846781 
L 245.683764 282.749224 
L 246.107043 282.262125 
L 246.530321 283.371077 
L 246.9536 283.927611 
L 247.376878 283.423496 
L 247.800156 282.533741 
L 248.223435 282.923412 
L 248.646713 283.855839 
L 249.069992 283.303714 
L 249.916549 281.126205 
L 250.339827 281.264929 
L 250.763105 279.209734 
L 251.609662 279.176108 
L 252.032941 277.920013 
L 252.456219 279.350434 
L 252.879497 279.139289 
L 253.302776 277.846025 
L 253.726054 277.161074 
L 254.149333 278.801809 
L 254.572611 277.356843 
L 255.419168 277.099943 
L 256.265725 277.686098 
L 256.689003 275.779934 
L 257.112282 278.592318 
L 257.53556 283.018542 
L 258.382117 275.829342 
L 258.805395 276.111499 
L 259.228674 275.524255 
L 259.651952 276.322217 
L 260.075231 276.827798 
L 260.498509 276.635579 
L 260.921787 276.601048 
L 261.345066 277.167539 
L 261.768344 276.235512 
L 262.191623 276.132341 
L 262.614901 275.601109 
L 263.038179 276.644736 
L 263.461458 276.803352 
L 263.884736 276.447374 
L 264.308015 276.506512 
L 264.731293 273.027226 
L 265.154572 277.522079 
L 265.57785 274.643142 
L 266.001128 274.69475 
L 266.424407 275.526788 
L 266.847685 277.733485 
L 267.270964 276.841199 
L 267.694242 275.398982 
L 268.11752 274.860691 
L 268.540799 277.879934 
L 268.964077 277.31913 
L 269.387356 277.32872 
L 269.810634 276.38692 
L 270.233913 277.361641 
L 270.657191 277.955804 
L 271.080469 278.207668 
L 271.503748 278.595806 
L 271.927026 276.356843 
L 272.350305 274.736528 
L 272.773583 275.065456 
L 273.196861 274.392945 
L 273.62014 275.352877 
L 274.043418 273.72471 
L 274.466697 274.095438 
L 274.889975 274.955643 
L 275.313254 273.564872 
L 275.736532 274.119779 
L 276.15981 275.568599 
L 276.583089 273.496799 
L 277.006367 272.378328 
L 277.429646 273.818935 
L 277.852924 273.956448 
L 278.276202 289.830244 
L 278.699481 278.953933 
L 279.122759 275.860225 
L 279.546038 281.316454 
L 279.969316 279.91241 
L 280.392595 273.485131 
L 280.815873 274.70714 
L 281.239151 273.169193 
L 281.66243 273.238988 
L 282.085708 273.087197 
L 282.508987 275.943253 
L 282.932265 274.301231 
L 283.355543 273.395127 
L 283.778822 272.869976 
L 284.2021 274.379922 
L 284.625379 274.549529 
L 285.048657 275.311227 
L 285.471936 275.067294 
L 285.895214 270.455864 
L 286.318492 272.624377 
L 286.741771 271.427392 
L 287.165049 274.857098 
L 287.588328 272.722567 
L 288.011606 272.18663 
L 288.858163 273.534468 
L 289.281441 272.395705 
L 290.127998 275.028814 
L 290.551277 276.046763 
L 290.974555 276.742687 
L 291.821112 274.971559 
L 292.667669 277.089336 
L 293.090947 276.311527 
L 293.514225 275.917236 
L 293.937504 276.02716 
L 294.360782 271.515919 
L 294.784061 271.006511 
L 295.207339 270.94829 
L 295.630618 271.007578 
L 296.053896 270.893489 
L 296.477174 271.438832 
L 296.900453 270.069009 
L 297.323731 270.611998 
L 297.74701 267.614175 
L 298.170288 270.844952 
L 298.593566 269.536572 
L 299.016845 267.280415 
L 299.440123 269.808688 
L 299.863402 267.693405 
L 300.28668 269.08728 
L 300.709959 269.131774 
L 301.133237 270.491778 
L 301.556515 282.767301 
L 302.403072 270.247007 
L 302.826351 269.785564 
L 303.249629 269.509121 
L 303.672907 268.846479 
L 304.096186 271.353365 
L 304.519464 270.124582 
L 304.942743 270.911404 
L 305.366021 268.079416 
L 305.7893 269.888718 
L 306.635856 268.419589 
L 307.059135 269.544569 
L 307.482413 269.031329 
L 307.905692 268.31684 
L 308.32897 270.933718 
L 308.752248 267.633095 
L 309.175527 269.848628 
L 309.598805 268.010654 
L 310.022084 267.564388 
L 310.445362 267.668059 
L 311.291919 271.106106 
L 311.715197 269.023716 
L 312.138476 270.50253 
L 312.561754 270.863511 
L 312.985033 270.634206 
L 313.408311 271.517824 
L 313.831589 269.627542 
L 314.254868 271.375923 
L 314.678146 270.814614 
L 315.101425 271.033745 
L 315.524703 273.49104 
L 316.37126 268.023988 
L 316.794538 268.021594 
L 317.217817 268.180971 
L 317.641095 266.849389 
L 318.064374 267.633573 
L 318.487652 268.061951 
L 318.91093 265.47474 
L 319.334209 267.012125 
L 319.757487 266.618889 
L 320.604044 268.308566 
L 321.027323 264.653914 
L 321.873879 266.811898 
L 322.297158 266.77253 
L 322.720436 266.457474 
L 323.143715 268.314869 
L 323.566993 279.805907 
L 323.990271 279.560786 
L 324.41355 267.828691 
L 324.836828 266.314002 
L 325.260107 266.008888 
L 325.683385 266.352132 
L 326.106664 266.949433 
L 326.529942 268.448922 
L 326.95322 267.849678 
L 327.376499 268.504151 
L 327.799777 267.635066 
L 328.223056 267.108227 
L 328.646334 277.138739 
L 329.069612 282.07527 
L 329.492891 283.438479 
L 330.339448 281.05922 
L 331.186005 282.280412 
L 331.609283 282.26915 
L 332.032561 279.34306 
L 332.45584 279.381922 
L 332.879118 280.85781 
L 333.302397 275.999709 
L 333.725675 277.343037 
L 334.148953 276.906868 
L 334.572232 275.938783 
L 334.99551 279.828643 
L 335.418789 278.381928 
L 335.842067 278.93102 
L 336.265346 277.585304 
L 336.688624 276.934052 
L 337.111902 277.918685 
L 337.535181 277.242176 
L 337.958459 277.89956 
L 338.381738 277.320368 
L 338.805016 274.754838 
L 339.228294 274.849057 
L 339.651573 271.72832 
L 340.074851 273.889624 
L 340.49813 273.905684 
L 340.921408 272.142003 
L 341.344686 274.095338 
L 341.767965 275.279056 
L 342.191243 275.301309 
L 342.614522 274.787258 
L 343.0378 276.67051 
L 343.884357 273.705335 
L 344.307635 272.520812 
L 344.730914 274.746074 
L 345.154192 276.343498 
L 345.577471 280.031564 
L 346.000749 284.852251 
L 346.847306 274.856187 
L 347.270584 275.843903 
L 348.54042 274.999137 
L 348.963698 276.624466 
L 349.386976 276.177318 
L 349.810255 271.882582 
L 350.233533 271.734284 
L 350.656812 270.184003 
L 351.08009 275.081738 
L 351.503368 272.761374 
L 351.926647 273.557703 
L 352.349925 274.725993 
L 352.773204 272.544919 
L 353.196482 268.790995 
L 353.619761 275.725582 
L 354.043039 273.412426 
L 354.466317 275.98165 
L 354.889596 277.728321 
L 355.312874 270.965266 
L 355.736153 269.957658 
L 356.159431 271.806217 
L 356.582709 275.637733 
L 357.005988 277.528759 
L 357.429266 275.48291 
L 357.852545 275.786048 
L 358.275823 277.365201 
L 358.699102 275.417613 
L 359.12238 275.407356 
L 359.545658 275.511966 
L 359.968937 277.683444 
L 360.392215 272.687936 
L 360.815494 270.782482 
L 361.238772 272.972253 
L 361.66205 270.160418 
L 362.085329 272.007406 
L 362.508607 269.628814 
L 363.355164 271.561201 
L 363.778443 271.481621 
L 364.201721 272.388857 
L 364.624999 269.770992 
L 365.048278 269.305389 
L 365.471556 270.616274 
L 365.894835 270.005789 
L 366.318113 268.095293 
L 366.741391 269.488563 
L 367.16467 269.470286 
L 367.587948 273.502769 
L 368.011227 283.294151 
L 368.434505 277.974869 
L 368.857784 276.468016 
L 369.281062 271.670242 
L 369.70434 269.655342 
L 370.127619 274.346824 
L 370.550897 269.475112 
L 370.974176 268.514586 
L 371.397454 272.040293 
L 371.820732 270.918468 
L 372.244011 270.89099 
L 372.667289 269.130607 
L 373.090568 265.661956 
L 373.513846 271.753143 
L 373.937125 271.814814 
L 374.360403 259.412063 
L 374.783681 271.099148 
L 375.20696 270.024443 
L 375.630238 275.438239 
L 376.476795 270.187258 
L 376.900073 273.509844 
L 377.323352 273.468321 
L 377.74663 271.135989 
L 378.169909 271.264228 
L 378.593187 276.126404 
L 379.016466 269.347129 
L 379.439744 272.001863 
L 379.863022 276.324955 
L 380.286301 278.333446 
L 380.709579 275.64161 
L 381.132858 277.28988 
L 381.979414 276.889347 
L 382.402693 275.532752 
L 382.825971 273.674252 
L 383.24925 270.670209 
L 383.672528 269.345796 
L 384.095807 269.907117 
L 384.519085 269.125248 
L 384.942363 267.041808 
L 385.365642 271.390446 
L 385.78892 271.756309 
L 386.212199 268.333961 
L 386.635477 267.783253 
L 387.058755 271.791267 
L 387.482034 267.580293 
L 387.905312 273.146435 
L 388.328591 267.860479 
L 388.751869 267.520411 
L 389.175148 269.685147 
L 389.598426 274.175035 
L 390.021704 280.329121 
L 390.868261 270.293872 
L 391.29154 268.897481 
L 391.714818 268.7215 
L 392.138096 272.425793 
L 392.984653 269.361357 
L 393.407932 272.269137 
L 393.83121 272.477889 
L 394.254489 267.574074 
L 394.677767 271.818357 
L 395.101045 273.935545 
L 395.524324 268.442325 
L 395.947602 274.179028 
L 396.794159 267.93937 
L 397.640716 273.853727 
L 398.063994 268.751316 
L 398.487273 267.398109 
L 398.487273 267.398109 
" clip-path="url(#pe89a125a13)" style="fill: none; stroke: #2ca02c; stroke-width: 1.5; stroke-linecap: square"/>
   </g>
   <g id="patch_3">
    <path d="M 57.6 307.584 
L 57.6 41.472 
" style="fill: none; stroke: #000000; stroke-width: 0.8; stroke-linejoin: miter; stroke-linecap: square"/>
   </g>
   <g id="patch_4">
    <path d="M 414.72 307.584 
L 414.72 41.472 
" style="fill: none; stroke: #000000; stroke-width: 0.8; stroke-linejoin: miter; stroke-linecap: square"/>
   </g>
   <g id="patch_5">
    <path d="M 57.6 307.584 
L 414.72 307.584 
" style="fill: none; stroke: #000000; stroke-width: 0.8; stroke-linejoin: miter; stroke-linecap: square"/>
   </g>
   <g id="patch_6">
    <path d="M 57.6 41.472 
L 414.72 41.472 
" style="fill: none; stroke: #000000; stroke-width: 0.8; stroke-linejoin: miter; stroke-linecap: square"/>
   </g>
   <g id="legend_1">
    <g id="patch_7">
     <path d="M 64.6 93.506375 
L 186.25625 93.506375 
Q 188.25625 93.506375 188.25625 91.506375 
L 188.25625 48.472 
Q 188.25625 46.472 186.25625 46.472 
L 64.6 46.472 
Q 62.6 46.472 62.6 48.472 
L 62.6 91.506375 
Q 62.6 93.506375 64.6 93.506375 
z
" style="fill: #ffffff; opacity: 0.8; stroke: #cccccc; stroke-linejoin: miter"/>
    </g>
    <g id="line2d_18">
     <path d="M 66.6 54.570438 
L 76.6 54.570438 
L 86.6 54.570438 
" style="fill: none; stroke: #1f77b4; stroke-width: 1.5; stroke-linecap: square"/>
    </g>
    <g id="text_17">
     <!-- Weekly maximum -->
     <g transform="translate(94.6 58.070438) scale(0.1 -0.1)">
      <defs>
       <path id="DejaVuSans-57" d="M 213 4666 
L 850 4666 
L 1831 722 
L 2809 4666 
L 3519 4666 
L 4500 722 
L 5478 4666 
L 6119 4666 
L 4947 0 
L 4153 0 
L 3169 4050 
L 2175 0 
L 1381 0 
L 213 4666 
z
" transform="scale(0.015625)"/>
       <path id="DejaVuSans-6b" d="M 581 4863 
L 1159 4863 
L 1159 1991 
L 2875 3500 
L 3609 3500 
L 1753 1863 
L 3688 0 
L 2938 0 
L 1159 1709 
L 1159 0 
L 581 0 
L 581 4863 
z
" transform="scale(0.015625)"/>
       <path id="DejaVuSans-79" d="M 2059 -325 
Q 1816 -950 1584 -1140 
Q 1353 -1331 966 -1331 
L 506 -1331 
L 506 -850 
L 844 -850 
Q 1081 -850 1212 -737 
Q 1344 -625 1503 -206 
L 1606 56 
L 191 3500 
L 800 3500 
L 1894 763 
L 2988 3500 
L 3597 3500 
L 2059 -325 
z
" transform="scale(0.015625)"/>
       <path id="DejaVuSans-6d" d="M 3328 2828 
Q 3544 3216 3844 3400 
Q 4144 3584 4550 3584 
Q 5097 3584 5394 3201 
Q 5691 2819 5691 2113 
L 5691 0 
L 5113 0 
L 5113 2094 
Q 5113 2597 4934 2840 
Q 4756 3084 4391 3084 
Q 3944 3084 3684 2787 
Q 3425 2491 3425 1978 
L 3425 0 
L 2847 0 
L 2847 2094 
Q 2847 2600 2669 2842 
Q 2491 3084 2119 3084 
Q 1678 3084 1418 2786 
Q 1159 2488 1159 1978 
L 1159 0 
L 581 0 
L 581 3500 
L 1159 3500 
L 1159 2956 
Q 1356 3278 1631 3431 
Q 1906 3584 2284 3584 
Q 2666 3584 2933 3390 
Q 3200 3197 3328 2828 
z
" transform="scale(0.015625)"/>
       <path id="DejaVuSans-78" d="M 3513 3500 
L 2247 1797 
L 3578 0 
L 2900 0 
L 1881 1375 
L 863 0 
L 184 0 
L 1544 1831 
L 300 3500 
L 978 3500 
L 1906 2253 
L 2834 3500 
L 3513 3500 
z
" transform="scale(0.015625)"/>
       <path id="DejaVuSans-75" d="M 544 1381 
L 544 3500 
L 1119 3500 
L 1119 1403 
Q 1119 906 1312 657 
Q 1506 409 1894 409 
Q 2359 409 2629 706 
Q 2900 1003 2900 1516 
L 2900 3500 
L 3475 3500 
L 3475 0 
L 2900 0 
L 2900 538 
Q 2691 219 2414 64 
Q 2138 -91 1772 -91 
Q 1169 -91 856 284 
Q 544 659 544 1381 
z
M 1991 3584 
L 1991 3584 
z
" transform="scale(0.015625)"/>
      </defs>
      <use xlink:href="#DejaVuSans-57"/>
      <use xlink:href="#DejaVuSans-65" x="93.001953"/>
      <use xlink:href="#DejaVuSans-65" x="154.525391"/>
      <use xlink:href="#DejaVuSans-6b" x="216.048828"/>
      <use xlink:href="#DejaVuSans-6c" x="273.958984"/>
      <use xlink:href="#DejaVuSans-79" x="301.742188"/>
      <use xlink:href="#DejaVuSans-20" x="360.921875"/>
      <use xlink:href="#DejaVuSans-6d" x="392.708984"/>
      <use xlink:href="#DejaVuSans-61" x="490.121094"/>
      <use xlink:href="#DejaVuSans-78" x="551.400391"/>
      <use xlink:href="#DejaVuSans-69" x="610.580078"/>
      <use xlink:href="#DejaVuSans-6d" x="638.363281"/>
      <use xlink:href="#DejaVuSans-75" x="735.775391"/>
      <use xlink:href="#DejaVuSans-6d" x="799.154297"/>
     </g>
    </g>
    <g id="line2d_19">
     <path d="M 66.6 69.248563 
L 76.6 69.248563 
L 86.6 69.248563 
" style="fill: none; stroke: #ff7f0e; stroke-width: 1.5; stroke-linecap: square"/>
    </g>
    <g id="text_18">
     <!-- Weekly minimum -->
     <g transform="translate(94.6 72.748563) scale(0.1 -0.1)">
      <defs>
       <path id="DejaVuSans-6e" d="M 3513 2113 
L 3513 0 
L 2938 0 
L 2938 2094 
Q 2938 2591 2744 2837 
Q 2550 3084 2163 3084 
Q 1697 3084 1428 2787 
Q 1159 2491 1159 1978 
L 1159 0 
L 581 0 
L 581 3500 
L 1159 3500 
L 1159 2956 
Q 1366 3272 1645 3428 
Q 1925 3584 2291 3584 
Q 2894 3584 3203 3211 
Q 3513 2838 3513 2113 
z
" transform="scale(0.015625)"/>
      </defs>
      <use xlink:href="#DejaVuSans-57"/>
      <use xlink:href="#DejaVuSans-65" x="93.001953"/>
      <use xlink:href="#DejaVuSans-65" x="154.525391"/>
      <use xlink:href="#DejaVuSans-6b" x="216.048828"/>
      <use xlink:href="#DejaVuSans-6c" x="273.958984"/>
      <use xlink:href="#DejaVuSans-79" x="301.742188"/>
      <use xlink:href="#DejaVuSans-20" x="360.921875"/>
      <use xlink:href="#DejaVuSans-6d" x="392.708984"/>
      <use xlink:href="#DejaVuSans-69" x="490.121094"/>
      <use xlink:href="#DejaVuSans-6e" x="517.904297"/>
      <use xlink:href="#DejaVuSans-69" x="581.283203"/>
      <use xlink:href="#DejaVuSans-6d" x="609.066406"/>
      <use xlink:href="#DejaVuSans-75" x="706.478516"/>
      <use xlink:href="#DejaVuSans-6d" x="769.857422"/>
     </g>
    </g>
    <g id="line2d_20">
     <path d="M 66.6 83.926688 
L 76.6 83.926688 
L 86.6 83.926688 
" style="fill: none; stroke: #2ca02c; stroke-width: 1.5; stroke-linecap: square"/>
    </g>
    <g id="text_19">
     <!-- Weekly range -->
     <g transform="translate(94.6 87.426688) scale(0.1 -0.1)">
      <use xlink:href="#DejaVuSans-57"/>
      <use xlink:href="#DejaVuSans-65" x="93.001953"/>
      <use xlink:href="#DejaVuSans-65" x="154.525391"/>
      <use xlink:href="#DejaVuSans-6b" x="216.048828"/>
      <use xlink:href="#DejaVuSans-6c" x="273.958984"/>
      <use xlink:href="#DejaVuSans-79" x="301.742188"/>
      <use xlink:href="#DejaVuSans-20" x="360.921875"/>
      <use xlink:href="#DejaVuSans-72" x="392.708984"/>
      <use xlink:href="#DejaVuSans-61" x="433.822266"/>
      <use xlink:href="#DejaVuSans-6e" x="495.101562"/>
      <use xlink:href="#DejaVuSans-67" x="558.480469"/>
      <use xlink:href="#DejaVuSans-65" x="621.957031"/>
     </g>
    </g>
   </g>
  </g>
 </g>
 <defs>
  <clipPath id="pe89a125a13">
   <rect x="57.6" y="41.472" width="357.12" height="266.112"/>
  </clipPath>
 </defs>
</svg>
