<?xml version="1.0" encoding="utf-8" standalone="no"?>
<!DOCTYPE svg PUBLIC "-//W3C//DTD SVG 1.1//EN"
  "http://www.w3.org/Graphics/SVG/1.1/DTD/svg11.dtd">
<svg xmlns:xlink="http://www.w3.org/1999/xlink" width="460.8pt" height="345.6pt" viewBox="0 0 460.8 345.6" xmlns="http://www.w3.org/2000/svg" version="1.1">
 <metadata>
  <rdf:RDF xmlns:dc="http://purl.org/dc/elements/1.1/" xmlns:cc="http://creativecommons.org/ns#" xmlns:rdf="http://www.w3.org/1999/02/22-rdf-syntax-ns#">
   <cc:Work>
    <dc:type rdf:resource="http://purl.org/dc/dcmitype/StillImage"/>
    <dc:date>2023-06-26T05:35:06.613768</dc:date>
    <dc:format>image/svg+xml</dc:format>
    <dc:creator>
     <cc:Agent>
      <dc:title>Matplotlib v3.7.1, https://matplotlib.org/</dc:title>
     </cc:Agent>
    </dc:creator>
   </cc:Work>
  </rdf:RDF>
 </metadata>
 <defs>
  <style type="text/css">*{stroke-linejoin: round; stroke-linecap: butt}</style>
 </defs>
 <g id="figure_1">
  <g id="patch_1">
   <path d="M 0 345.6 
L 460.8 345.6 
L 460.8 0 
L 0 0 
z
" style="fill: #ffffff"/>
  </g>
  <g id="axes_1">
   <g id="patch_2">
    <path d="M 57.6 307.584 
L 414.72 307.584 
L 414.72 41.472 
L 57.6 41.472 
z
" style="fill: #ffffff"/>
   </g>
   <g id="matplotlib.axis_1">
    <g id="xtick_1">
     <g id="line2d_1">
      <defs>
       <path id="m0305997b18" d="M 0 0 
L 0 3.5 
" style="stroke: #000000; stroke-width: 0.8"/>
      </defs>
      <g>
       <use xlink:href="#m0305997b18" x="59.17401" y="307.584" style="stroke: #000000; stroke-width: 0.8"/>
      </g>
     </g>
     <g id="text_1">
      <!-- 2008 -->
      <g transform="translate(46.44901 322.182437) scale(0.1 -0.1)">
       <defs>
        <path id="DejaVuSans-32" d="M 1228 531 
L 3431 531 
L 3431 0 
L 469 0 
L 469 531 
Q 828 903 1448 1529 
Q 2069 2156 2228 2338 
Q 2531 2678 2651 2914 
Q 2772 3150 2772 3378 
Q 2772 3750 2511 3984 
Q 2250 4219 1831 4219 
Q 1534 4219 1204 4116 
Q 875 4013 500 3803 
L 500 4441 
Q 881 4594 1212 4672 
Q 1544 4750 1819 4750 
Q 2544 4750 2975 4387 
Q 3406 4025 3406 3419 
Q 3406 3131 3298 2873 
Q 3191 2616 2906 2266 
Q 2828 2175 2409 1742 
Q 1991 1309 1228 531 
z
" transform="scale(0.015625)"/>
        <path id="DejaVuSans-30" d="M 2034 4250 
Q 1547 4250 1301 3770 
Q 1056 3291 1056 2328 
Q 1056 1369 1301 889 
Q 1547 409 2034 409 
Q 2525 409 2770 889 
Q 3016 1369 3016 2328 
Q 3016 3291 2770 3770 
Q 2525 4250 2034 4250 
z
M 2034 4750 
Q 2819 4750 3233 4129 
Q 3647 3509 3647 2328 
Q 3647 1150 3233 529 
Q 2819 -91 2034 -91 
Q 1250 -91 836 529 
Q 422 1150 422 2328 
Q 422 3509 836 4129 
Q 1250 4750 2034 4750 
z
" transform="scale(0.015625)"/>
        <path id="DejaVuSans-38" d="M 2034 2216 
Q 1584 2216 1326 1975 
Q 1069 1734 1069 1313 
Q 1069 891 1326 650 
Q 1584 409 2034 409 
Q 2484 409 2743 651 
Q 3003 894 3003 1313 
Q 3003 1734 2745 1975 
Q 2488 2216 2034 2216 
z
M 1403 2484 
Q 997 2584 770 2862 
Q 544 3141 544 3541 
Q 544 4100 942 4425 
Q 1341 4750 2034 4750 
Q 2731 4750 3128 4425 
Q 3525 4100 3525 3541 
Q 3525 3141 3298 2862 
Q 3072 2584 2669 2484 
Q 3125 2378 3379 2068 
Q 3634 1759 3634 1313 
Q 3634 634 3220 271 
Q 2806 -91 2034 -91 
Q 1263 -91 848 271 
Q 434 634 434 1313 
Q 434 1759 690 2068 
Q 947 2378 1403 2484 
z
M 1172 3481 
Q 1172 3119 1398 2916 
Q 1625 2713 2034 2713 
Q 2441 2713 2670 2916 
Q 2900 3119 2900 3481 
Q 2900 3844 2670 4047 
Q 2441 4250 2034 4250 
Q 1625 4250 1398 4047 
Q 1172 3844 1172 3481 
z
" transform="scale(0.015625)"/>
       </defs>
       <use xlink:href="#DejaVuSans-32"/>
       <use xlink:href="#DejaVuSans-30" x="63.623047"/>
       <use xlink:href="#DejaVuSans-30" x="127.246094"/>
       <use xlink:href="#DejaVuSans-38" x="190.869141"/>
      </g>
     </g>
    </g>
    <g id="xtick_2">
     <g id="line2d_2">
      <g>
       <use xlink:href="#m0305997b18" x="103.090085" y="307.584" style="stroke: #000000; stroke-width: 0.8"/>
      </g>
     </g>
     <g id="text_2">
      <!-- 2010 -->
      <g transform="translate(90.365085 322.182437) scale(0.1 -0.1)">
       <defs>
        <path id="DejaVuSans-31" d="M 794 531 
L 1825 531 
L 1825 4091 
L 703 3866 
L 703 4441 
L 1819 4666 
L 2450 4666 
L 2450 531 
L 3481 531 
L 3481 0 
L 794 0 
L 794 531 
z
" transform="scale(0.015625)"/>
       </defs>
       <use xlink:href="#DejaVuSans-32"/>
       <use xlink:href="#DejaVuSans-30" x="63.623047"/>
       <use xlink:href="#DejaVuSans-31" x="127.246094"/>
       <use xlink:href="#DejaVuSans-30" x="190.869141"/>
      </g>
     </g>
    </g>
    <g id="xtick_3">
     <g id="line2d_3">
      <g>
       <use xlink:href="#m0305997b18" x="146.946084" y="307.584" style="stroke: #000000; stroke-width: 0.8"/>
      </g>
     </g>
     <g id="text_3">
      <!-- 2012 -->
      <g transform="translate(134.221084 322.182437) scale(0.1 -0.1)">
       <use xlink:href="#DejaVuSans-32"/>
       <use xlink:href="#DejaVuSans-30" x="63.623047"/>
       <use xlink:href="#DejaVuSans-31" x="127.246094"/>
       <use xlink:href="#DejaVuSans-32" x="190.869141"/>
      </g>
     </g>
    </g>
    <g id="xtick_4">
     <g id="line2d_4">
      <g>
       <use xlink:href="#m0305997b18" x="190.86216" y="307.584" style="stroke: #000000; stroke-width: 0.8"/>
      </g>
     </g>
     <g id="text_4">
      <!-- 2014 -->
      <g transform="translate(178.13716 322.182437) scale(0.1 -0.1)">
       <defs>
        <path id="DejaVuSans-34" d="M 2419 4116 
L 825 1625 
L 2419 1625 
L 2419 4116 
z
M 2253 4666 
L 3047 4666 
L 3047 1625 
L 3713 1625 
L 3713 1100 
L 3047 1100 
L 3047 0 
L 2419 0 
L 2419 1100 
L 313 1100 
L 313 1709 
L 2253 4666 
z
" transform="scale(0.015625)"/>
       </defs>
       <use xlink:href="#DejaVuSans-32"/>
       <use xlink:href="#DejaVuSans-30" x="63.623047"/>
       <use xlink:href="#DejaVuSans-31" x="127.246094"/>
       <use xlink:href="#DejaVuSans-34" x="190.869141"/>
      </g>
     </g>
    </g>
    <g id="xtick_5">
     <g id="line2d_5">
      <g>
       <use xlink:href="#m0305997b18" x="234.718159" y="307.584" style="stroke: #000000; stroke-width: 0.8"/>
      </g>
     </g>
     <g id="text_5">
      <!-- 2016 -->
      <g transform="translate(221.993159 322.182437) scale(0.1 -0.1)">
       <defs>
        <path id="DejaVuSans-36" d="M 2113 2584 
Q 1688 2584 1439 2293 
Q 1191 2003 1191 1497 
Q 1191 994 1439 701 
Q 1688 409 2113 409 
Q 2538 409 2786 701 
Q 3034 994 3034 1497 
Q 3034 2003 2786 2293 
Q 2538 2584 2113 2584 
z
M 3366 4563 
L 3366 3988 
Q 3128 4100 2886 4159 
Q 2644 4219 2406 4219 
Q 1781 4219 1451 3797 
Q 1122 3375 1075 2522 
Q 1259 2794 1537 2939 
Q 1816 3084 2150 3084 
Q 2853 3084 3261 2657 
Q 3669 2231 3669 1497 
Q 3669 778 3244 343 
Q 2819 -91 2113 -91 
Q 1303 -91 875 529 
Q 447 1150 447 2328 
Q 447 3434 972 4092 
Q 1497 4750 2381 4750 
Q 2619 4750 2861 4703 
Q 3103 4656 3366 4563 
z
" transform="scale(0.015625)"/>
       </defs>
       <use xlink:href="#DejaVuSans-32"/>
       <use xlink:href="#DejaVuSans-30" x="63.623047"/>
       <use xlink:href="#DejaVuSans-31" x="127.246094"/>
       <use xlink:href="#DejaVuSans-36" x="190.869141"/>
      </g>
     </g>
    </g>
    <g id="xtick_6">
     <g id="line2d_6">
      <g>
       <use xlink:href="#m0305997b18" x="278.634235" y="307.584" style="stroke: #000000; stroke-width: 0.8"/>
      </g>
     </g>
     <g id="text_6">
      <!-- 2018 -->
      <g transform="translate(265.909235 322.182437) scale(0.1 -0.1)">
       <use xlink:href="#DejaVuSans-32"/>
       <use xlink:href="#DejaVuSans-30" x="63.623047"/>
       <use xlink:href="#DejaVuSans-31" x="127.246094"/>
       <use xlink:href="#DejaVuSans-38" x="190.869141"/>
      </g>
     </g>
    </g>
    <g id="xtick_7">
     <g id="line2d_7">
      <g>
       <use xlink:href="#m0305997b18" x="322.490233" y="307.584" style="stroke: #000000; stroke-width: 0.8"/>
      </g>
     </g>
     <g id="text_7">
      <!-- 2020 -->
      <g transform="translate(309.765233 322.182437) scale(0.1 -0.1)">
       <use xlink:href="#DejaVuSans-32"/>
       <use xlink:href="#DejaVuSans-30" x="63.623047"/>
       <use xlink:href="#DejaVuSans-32" x="127.246094"/>
       <use xlink:href="#DejaVuSans-30" x="190.869141"/>
      </g>
     </g>
    </g>
    <g id="xtick_8">
     <g id="line2d_8">
      <g>
       <use xlink:href="#m0305997b18" x="366.406309" y="307.584" style="stroke: #000000; stroke-width: 0.8"/>
      </g>
     </g>
     <g id="text_8">
      <!-- 2022 -->
      <g transform="translate(353.681309 322.182437) scale(0.1 -0.1)">
       <use xlink:href="#DejaVuSans-32"/>
       <use xlink:href="#DejaVuSans-30" x="63.623047"/>
       <use xlink:href="#DejaVuSans-32" x="127.246094"/>
       <use xlink:href="#DejaVuSans-32" x="190.869141"/>
      </g>
     </g>
    </g>
    <g id="xtick_9">
     <g id="line2d_9">
      <g>
       <use xlink:href="#m0305997b18" x="410.262308" y="307.584" style="stroke: #000000; stroke-width: 0.8"/>
      </g>
     </g>
     <g id="text_9">
      <!-- 2024 -->
      <g transform="translate(397.537308 322.182437) scale(0.1 -0.1)">
       <use xlink:href="#DejaVuSans-32"/>
       <use xlink:href="#DejaVuSans-30" x="63.623047"/>
       <use xlink:href="#DejaVuSans-32" x="127.246094"/>
       <use xlink:href="#DejaVuSans-34" x="190.869141"/>
      </g>
     </g>
    </g>
    <g id="text_10">
     <!-- Updated 2023-06-26 05:35:06.611713 - Last record 2023-06-24 -->
     <g transform="translate(75.905312 335.860562) scale(0.1 -0.1)">
      <defs>
       <path id="DejaVuSans-55" d="M 556 4666 
L 1191 4666 
L 1191 1831 
Q 1191 1081 1462 751 
Q 1734 422 2344 422 
Q 2950 422 3222 751 
Q 3494 1081 3494 1831 
L 3494 4666 
L 4128 4666 
L 4128 1753 
Q 4128 841 3676 375 
Q 3225 -91 2344 -91 
Q 1459 -91 1007 375 
Q 556 841 556 1753 
L 556 4666 
z
" transform="scale(0.015625)"/>
       <path id="DejaVuSans-70" d="M 1159 525 
L 1159 -1331 
L 581 -1331 
L 581 3500 
L 1159 3500 
L 1159 2969 
Q 1341 3281 1617 3432 
Q 1894 3584 2278 3584 
Q 2916 3584 3314 3078 
Q 3713 2572 3713 1747 
Q 3713 922 3314 415 
Q 2916 -91 2278 -91 
Q 1894 -91 1617 61 
Q 1341 213 1159 525 
z
M 3116 1747 
Q 3116 2381 2855 2742 
Q 2594 3103 2138 3103 
Q 1681 3103 1420 2742 
Q 1159 2381 1159 1747 
Q 1159 1113 1420 752 
Q 1681 391 2138 391 
Q 2594 391 2855 752 
Q 3116 1113 3116 1747 
z
" transform="scale(0.015625)"/>
       <path id="DejaVuSans-64" d="M 2906 2969 
L 2906 4863 
L 3481 4863 
L 3481 0 
L 2906 0 
L 2906 525 
Q 2725 213 2448 61 
Q 2172 -91 1784 -91 
Q 1150 -91 751 415 
Q 353 922 353 1747 
Q 353 2572 751 3078 
Q 1150 3584 1784 3584 
Q 2172 3584 2448 3432 
Q 2725 3281 2906 2969 
z
M 947 1747 
Q 947 1113 1208 752 
Q 1469 391 1925 391 
Q 2381 391 2643 752 
Q 2906 1113 2906 1747 
Q 2906 2381 2643 2742 
Q 2381 3103 1925 3103 
Q 1469 3103 1208 2742 
Q 947 2381 947 1747 
z
" transform="scale(0.015625)"/>
       <path id="DejaVuSans-61" d="M 2194 1759 
Q 1497 1759 1228 1600 
Q 959 1441 959 1056 
Q 959 750 1161 570 
Q 1363 391 1709 391 
Q 2188 391 2477 730 
Q 2766 1069 2766 1631 
L 2766 1759 
L 2194 1759 
z
M 3341 1997 
L 3341 0 
L 2766 0 
L 2766 531 
Q 2569 213 2275 61 
Q 1981 -91 1556 -91 
Q 1019 -91 701 211 
Q 384 513 384 1019 
Q 384 1609 779 1909 
Q 1175 2209 1959 2209 
L 2766 2209 
L 2766 2266 
Q 2766 2663 2505 2880 
Q 2244 3097 1772 3097 
Q 1472 3097 1187 3025 
Q 903 2953 641 2809 
L 641 3341 
Q 956 3463 1253 3523 
Q 1550 3584 1831 3584 
Q 2591 3584 2966 3190 
Q 3341 2797 3341 1997 
z
" transform="scale(0.015625)"/>
       <path id="DejaVuSans-74" d="M 1172 4494 
L 1172 3500 
L 2356 3500 
L 2356 3053 
L 1172 3053 
L 1172 1153 
Q 1172 725 1289 603 
Q 1406 481 1766 481 
L 2356 481 
L 2356 0 
L 1766 0 
Q 1100 0 847 248 
Q 594 497 594 1153 
L 594 3053 
L 172 3053 
L 172 3500 
L 594 3500 
L 594 4494 
L 1172 4494 
z
" transform="scale(0.015625)"/>
       <path id="DejaVuSans-65" d="M 3597 1894 
L 3597 1613 
L 953 1613 
Q 991 1019 1311 708 
Q 1631 397 2203 397 
Q 2534 397 2845 478 
Q 3156 559 3463 722 
L 3463 178 
Q 3153 47 2828 -22 
Q 2503 -91 2169 -91 
Q 1331 -91 842 396 
Q 353 884 353 1716 
Q 353 2575 817 3079 
Q 1281 3584 2069 3584 
Q 2775 3584 3186 3129 
Q 3597 2675 3597 1894 
z
M 3022 2063 
Q 3016 2534 2758 2815 
Q 2500 3097 2075 3097 
Q 1594 3097 1305 2825 
Q 1016 2553 972 2059 
L 3022 2063 
z
" transform="scale(0.015625)"/>
       <path id="DejaVuSans-20" transform="scale(0.015625)"/>
       <path id="DejaVuSans-33" d="M 2597 2516 
Q 3050 2419 3304 2112 
Q 3559 1806 3559 1356 
Q 3559 666 3084 287 
Q 2609 -91 1734 -91 
Q 1441 -91 1130 -33 
Q 819 25 488 141 
L 488 750 
Q 750 597 1062 519 
Q 1375 441 1716 441 
Q 2309 441 2620 675 
Q 2931 909 2931 1356 
Q 2931 1769 2642 2001 
Q 2353 2234 1838 2234 
L 1294 2234 
L 1294 2753 
L 1863 2753 
Q 2328 2753 2575 2939 
Q 2822 3125 2822 3475 
Q 2822 3834 2567 4026 
Q 2313 4219 1838 4219 
Q 1578 4219 1281 4162 
Q 984 4106 628 3988 
L 628 4550 
Q 988 4650 1302 4700 
Q 1616 4750 1894 4750 
Q 2613 4750 3031 4423 
Q 3450 4097 3450 3541 
Q 3450 3153 3228 2886 
Q 3006 2619 2597 2516 
z
" transform="scale(0.015625)"/>
       <path id="DejaVuSans-2d" d="M 313 2009 
L 1997 2009 
L 1997 1497 
L 313 1497 
L 313 2009 
z
" transform="scale(0.015625)"/>
       <path id="DejaVuSans-35" d="M 691 4666 
L 3169 4666 
L 3169 4134 
L 1269 4134 
L 1269 2991 
Q 1406 3038 1543 3061 
Q 1681 3084 1819 3084 
Q 2600 3084 3056 2656 
Q 3513 2228 3513 1497 
Q 3513 744 3044 326 
Q 2575 -91 1722 -91 
Q 1428 -91 1123 -41 
Q 819 9 494 109 
L 494 744 
Q 775 591 1075 516 
Q 1375 441 1709 441 
Q 2250 441 2565 725 
Q 2881 1009 2881 1497 
Q 2881 1984 2565 2268 
Q 2250 2553 1709 2553 
Q 1456 2553 1204 2497 
Q 953 2441 691 2322 
L 691 4666 
z
" transform="scale(0.015625)"/>
       <path id="DejaVuSans-3a" d="M 750 794 
L 1409 794 
L 1409 0 
L 750 0 
L 750 794 
z
M 750 3309 
L 1409 3309 
L 1409 2516 
L 750 2516 
L 750 3309 
z
" transform="scale(0.015625)"/>
       <path id="DejaVuSans-2e" d="M 684 794 
L 1344 794 
L 1344 0 
L 684 0 
L 684 794 
z
" transform="scale(0.015625)"/>
       <path id="DejaVuSans-37" d="M 525 4666 
L 3525 4666 
L 3525 4397 
L 1831 0 
L 1172 0 
L 2766 4134 
L 525 4134 
L 525 4666 
z
" transform="scale(0.015625)"/>
       <path id="DejaVuSans-4c" d="M 628 4666 
L 1259 4666 
L 1259 531 
L 3531 531 
L 3531 0 
L 628 0 
L 628 4666 
z
" transform="scale(0.015625)"/>
       <path id="DejaVuSans-73" d="M 2834 3397 
L 2834 2853 
Q 2591 2978 2328 3040 
Q 2066 3103 1784 3103 
Q 1356 3103 1142 2972 
Q 928 2841 928 2578 
Q 928 2378 1081 2264 
Q 1234 2150 1697 2047 
L 1894 2003 
Q 2506 1872 2764 1633 
Q 3022 1394 3022 966 
Q 3022 478 2636 193 
Q 2250 -91 1575 -91 
Q 1294 -91 989 -36 
Q 684 19 347 128 
L 347 722 
Q 666 556 975 473 
Q 1284 391 1588 391 
Q 1994 391 2212 530 
Q 2431 669 2431 922 
Q 2431 1156 2273 1281 
Q 2116 1406 1581 1522 
L 1381 1569 
Q 847 1681 609 1914 
Q 372 2147 372 2553 
Q 372 3047 722 3315 
Q 1072 3584 1716 3584 
Q 2034 3584 2315 3537 
Q 2597 3491 2834 3397 
z
" transform="scale(0.015625)"/>
       <path id="DejaVuSans-72" d="M 2631 2963 
Q 2534 3019 2420 3045 
Q 2306 3072 2169 3072 
Q 1681 3072 1420 2755 
Q 1159 2438 1159 1844 
L 1159 0 
L 581 0 
L 581 3500 
L 1159 3500 
L 1159 2956 
Q 1341 3275 1631 3429 
Q 1922 3584 2338 3584 
Q 2397 3584 2469 3576 
Q 2541 3569 2628 3553 
L 2631 2963 
z
" transform="scale(0.015625)"/>
       <path id="DejaVuSans-63" d="M 3122 3366 
L 3122 2828 
Q 2878 2963 2633 3030 
Q 2388 3097 2138 3097 
Q 1578 3097 1268 2742 
Q 959 2388 959 1747 
Q 959 1106 1268 751 
Q 1578 397 2138 397 
Q 2388 397 2633 464 
Q 2878 531 3122 666 
L 3122 134 
Q 2881 22 2623 -34 
Q 2366 -91 2075 -91 
Q 1284 -91 818 406 
Q 353 903 353 1747 
Q 353 2603 823 3093 
Q 1294 3584 2113 3584 
Q 2378 3584 2631 3529 
Q 2884 3475 3122 3366 
z
" transform="scale(0.015625)"/>
       <path id="DejaVuSans-6f" d="M 1959 3097 
Q 1497 3097 1228 2736 
Q 959 2375 959 1747 
Q 959 1119 1226 758 
Q 1494 397 1959 397 
Q 2419 397 2687 759 
Q 2956 1122 2956 1747 
Q 2956 2369 2687 2733 
Q 2419 3097 1959 3097 
z
M 1959 3584 
Q 2709 3584 3137 3096 
Q 3566 2609 3566 1747 
Q 3566 888 3137 398 
Q 2709 -91 1959 -91 
Q 1206 -91 779 398 
Q 353 888 353 1747 
Q 353 2609 779 3096 
Q 1206 3584 1959 3584 
z
" transform="scale(0.015625)"/>
      </defs>
      <use xlink:href="#DejaVuSans-55"/>
      <use xlink:href="#DejaVuSans-70" x="73.193359"/>
      <use xlink:href="#DejaVuSans-64" x="136.669922"/>
      <use xlink:href="#DejaVuSans-61" x="200.146484"/>
      <use xlink:href="#DejaVuSans-74" x="261.425781"/>
      <use xlink:href="#DejaVuSans-65" x="300.634766"/>
      <use xlink:href="#DejaVuSans-64" x="362.158203"/>
      <use xlink:href="#DejaVuSans-20" x="425.634766"/>
      <use xlink:href="#DejaVuSans-32" x="457.421875"/>
      <use xlink:href="#DejaVuSans-30" x="521.044922"/>
      <use xlink:href="#DejaVuSans-32" x="584.667969"/>
      <use xlink:href="#DejaVuSans-33" x="648.291016"/>
      <use xlink:href="#DejaVuSans-2d" x="711.914062"/>
      <use xlink:href="#DejaVuSans-30" x="747.998047"/>
      <use xlink:href="#DejaVuSans-36" x="811.621094"/>
      <use xlink:href="#DejaVuSans-2d" x="875.244141"/>
      <use xlink:href="#DejaVuSans-32" x="911.328125"/>
      <use xlink:href="#DejaVuSans-36" x="974.951172"/>
      <use xlink:href="#DejaVuSans-20" x="1038.574219"/>
      <use xlink:href="#DejaVuSans-30" x="1070.361328"/>
      <use xlink:href="#DejaVuSans-35" x="1133.984375"/>
      <use xlink:href="#DejaVuSans-3a" x="1197.607422"/>
      <use xlink:href="#DejaVuSans-33" x="1231.298828"/>
      <use xlink:href="#DejaVuSans-35" x="1294.921875"/>
      <use xlink:href="#DejaVuSans-3a" x="1358.544922"/>
      <use xlink:href="#DejaVuSans-30" x="1392.236328"/>
      <use xlink:href="#DejaVuSans-36" x="1455.859375"/>
      <use xlink:href="#DejaVuSans-2e" x="1519.482422"/>
      <use xlink:href="#DejaVuSans-36" x="1551.269531"/>
      <use xlink:href="#DejaVuSans-31" x="1614.892578"/>
      <use xlink:href="#DejaVuSans-31" x="1678.515625"/>
      <use xlink:href="#DejaVuSans-37" x="1742.138672"/>
      <use xlink:href="#DejaVuSans-31" x="1805.761719"/>
      <use xlink:href="#DejaVuSans-33" x="1869.384766"/>
      <use xlink:href="#DejaVuSans-20" x="1933.007812"/>
      <use xlink:href="#DejaVuSans-2d" x="1964.794922"/>
      <use xlink:href="#DejaVuSans-20" x="2000.878906"/>
      <use xlink:href="#DejaVuSans-4c" x="2032.666016"/>
      <use xlink:href="#DejaVuSans-61" x="2088.378906"/>
      <use xlink:href="#DejaVuSans-73" x="2149.658203"/>
      <use xlink:href="#DejaVuSans-74" x="2201.757812"/>
      <use xlink:href="#DejaVuSans-20" x="2240.966797"/>
      <use xlink:href="#DejaVuSans-72" x="2272.753906"/>
      <use xlink:href="#DejaVuSans-65" x="2311.617188"/>
      <use xlink:href="#DejaVuSans-63" x="2373.140625"/>
      <use xlink:href="#DejaVuSans-6f" x="2428.121094"/>
      <use xlink:href="#DejaVuSans-72" x="2489.302734"/>
      <use xlink:href="#DejaVuSans-64" x="2528.666016"/>
      <use xlink:href="#DejaVuSans-20" x="2592.142578"/>
      <use xlink:href="#DejaVuSans-32" x="2623.929688"/>
      <use xlink:href="#DejaVuSans-30" x="2687.552734"/>
      <use xlink:href="#DejaVuSans-32" x="2751.175781"/>
      <use xlink:href="#DejaVuSans-33" x="2814.798828"/>
      <use xlink:href="#DejaVuSans-2d" x="2878.421875"/>
      <use xlink:href="#DejaVuSans-30" x="2914.505859"/>
      <use xlink:href="#DejaVuSans-36" x="2978.128906"/>
      <use xlink:href="#DejaVuSans-2d" x="3041.751953"/>
      <use xlink:href="#DejaVuSans-32" x="3077.835938"/>
      <use xlink:href="#DejaVuSans-34" x="3141.458984"/>
     </g>
    </g>
   </g>
   <g id="matplotlib.axis_2">
    <g id="ytick_1">
     <g id="line2d_10">
      <defs>
       <path id="mc5b4f7f4b1" d="M 0 0 
L -3.5 0 
" style="stroke: #000000; stroke-width: 0.8"/>
      </defs>
      <g>
       <use xlink:href="#mc5b4f7f4b1" x="57.6" y="295.564326" style="stroke: #000000; stroke-width: 0.8"/>
      </g>
     </g>
     <g id="text_11">
      <!-- 0 -->
      <g transform="translate(44.2375 299.363544) scale(0.1 -0.1)">
       <use xlink:href="#DejaVuSans-30"/>
      </g>
     </g>
    </g>
    <g id="ytick_2">
     <g id="line2d_11">
      <g>
       <use xlink:href="#mc5b4f7f4b1" x="57.6" y="240.653804" style="stroke: #000000; stroke-width: 0.8"/>
      </g>
     </g>
     <g id="text_12">
      <!-- 10 -->
      <g transform="translate(37.875 244.453023) scale(0.1 -0.1)">
       <use xlink:href="#DejaVuSans-31"/>
       <use xlink:href="#DejaVuSans-30" x="63.623047"/>
      </g>
     </g>
    </g>
    <g id="ytick_3">
     <g id="line2d_12">
      <g>
       <use xlink:href="#mc5b4f7f4b1" x="57.6" y="185.743282" style="stroke: #000000; stroke-width: 0.8"/>
      </g>
     </g>
     <g id="text_13">
      <!-- 20 -->
      <g transform="translate(37.875 189.542501) scale(0.1 -0.1)">
       <use xlink:href="#DejaVuSans-32"/>
       <use xlink:href="#DejaVuSans-30" x="63.623047"/>
      </g>
     </g>
    </g>
    <g id="ytick_4">
     <g id="line2d_13">
      <g>
       <use xlink:href="#mc5b4f7f4b1" x="57.6" y="130.83276" style="stroke: #000000; stroke-width: 0.8"/>
      </g>
     </g>
     <g id="text_14">
      <!-- 30 -->
      <g transform="translate(37.875 134.631979) scale(0.1 -0.1)">
       <use xlink:href="#DejaVuSans-33"/>
       <use xlink:href="#DejaVuSans-30" x="63.623047"/>
      </g>
     </g>
    </g>
    <g id="ytick_5">
     <g id="line2d_14">
      <g>
       <use xlink:href="#mc5b4f7f4b1" x="57.6" y="75.922238" style="stroke: #000000; stroke-width: 0.8"/>
      </g>
     </g>
     <g id="text_15">
      <!-- 40 -->
      <g transform="translate(37.875 79.721457) scale(0.1 -0.1)">
       <use xlink:href="#DejaVuSans-34"/>
       <use xlink:href="#DejaVuSans-30" x="63.623047"/>
      </g>
     </g>
    </g>
    <g id="text_16">
     <!-- IPv6 as % of total Google traffic -->
     <g transform="translate(31.795312 253.735813) rotate(-90) scale(0.1 -0.1)">
      <defs>
       <path id="DejaVuSans-49" d="M 628 4666 
L 1259 4666 
L 1259 0 
L 628 0 
L 628 4666 
z
" transform="scale(0.015625)"/>
       <path id="DejaVuSans-50" d="M 1259 4147 
L 1259 2394 
L 2053 2394 
Q 2494 2394 2734 2622 
Q 2975 2850 2975 3272 
Q 2975 3691 2734 3919 
Q 2494 4147 2053 4147 
L 1259 4147 
z
M 628 4666 
L 2053 4666 
Q 2838 4666 3239 4311 
Q 3641 3956 3641 3272 
Q 3641 2581 3239 2228 
Q 2838 1875 2053 1875 
L 1259 1875 
L 1259 0 
L 628 0 
L 628 4666 
z
" transform="scale(0.015625)"/>
       <path id="DejaVuSans-76" d="M 191 3500 
L 800 3500 
L 1894 563 
L 2988 3500 
L 3597 3500 
L 2284 0 
L 1503 0 
L 191 3500 
z
" transform="scale(0.015625)"/>
       <path id="DejaVuSans-25" d="M 4653 2053 
Q 4381 2053 4226 1822 
Q 4072 1591 4072 1178 
Q 4072 772 4226 539 
Q 4381 306 4653 306 
Q 4919 306 5073 539 
Q 5228 772 5228 1178 
Q 5228 1588 5073 1820 
Q 4919 2053 4653 2053 
z
M 4653 2450 
Q 5147 2450 5437 2106 
Q 5728 1763 5728 1178 
Q 5728 594 5436 251 
Q 5144 -91 4653 -91 
Q 4153 -91 3862 251 
Q 3572 594 3572 1178 
Q 3572 1766 3864 2108 
Q 4156 2450 4653 2450 
z
M 1428 4353 
Q 1159 4353 1004 4120 
Q 850 3888 850 3481 
Q 850 3069 1003 2837 
Q 1156 2606 1428 2606 
Q 1700 2606 1854 2837 
Q 2009 3069 2009 3481 
Q 2009 3884 1853 4118 
Q 1697 4353 1428 4353 
z
M 4250 4750 
L 4750 4750 
L 1831 -91 
L 1331 -91 
L 4250 4750 
z
M 1428 4750 
Q 1922 4750 2215 4408 
Q 2509 4066 2509 3481 
Q 2509 2891 2217 2550 
Q 1925 2209 1428 2209 
Q 931 2209 642 2551 
Q 353 2894 353 3481 
Q 353 4063 643 4406 
Q 934 4750 1428 4750 
z
" transform="scale(0.015625)"/>
       <path id="DejaVuSans-66" d="M 2375 4863 
L 2375 4384 
L 1825 4384 
Q 1516 4384 1395 4259 
Q 1275 4134 1275 3809 
L 1275 3500 
L 2222 3500 
L 2222 3053 
L 1275 3053 
L 1275 0 
L 697 0 
L 697 3053 
L 147 3053 
L 147 3500 
L 697 3500 
L 697 3744 
Q 697 4328 969 4595 
Q 1241 4863 1831 4863 
L 2375 4863 
z
" transform="scale(0.015625)"/>
       <path id="DejaVuSans-6c" d="M 603 4863 
L 1178 4863 
L 1178 0 
L 603 0 
L 603 4863 
z
" transform="scale(0.015625)"/>
       <path id="DejaVuSans-47" d="M 3809 666 
L 3809 1919 
L 2778 1919 
L 2778 2438 
L 4434 2438 
L 4434 434 
Q 4069 175 3628 42 
Q 3188 -91 2688 -91 
Q 1594 -91 976 548 
Q 359 1188 359 2328 
Q 359 3472 976 4111 
Q 1594 4750 2688 4750 
Q 3144 4750 3555 4637 
Q 3966 4525 4313 4306 
L 4313 3634 
Q 3963 3931 3569 4081 
Q 3175 4231 2741 4231 
Q 1884 4231 1454 3753 
Q 1025 3275 1025 2328 
Q 1025 1384 1454 906 
Q 1884 428 2741 428 
Q 3075 428 3337 486 
Q 3600 544 3809 666 
z
" transform="scale(0.015625)"/>
       <path id="DejaVuSans-67" d="M 2906 1791 
Q 2906 2416 2648 2759 
Q 2391 3103 1925 3103 
Q 1463 3103 1205 2759 
Q 947 2416 947 1791 
Q 947 1169 1205 825 
Q 1463 481 1925 481 
Q 2391 481 2648 825 
Q 2906 1169 2906 1791 
z
M 3481 434 
Q 3481 -459 3084 -895 
Q 2688 -1331 1869 -1331 
Q 1566 -1331 1297 -1286 
Q 1028 -1241 775 -1147 
L 775 -588 
Q 1028 -725 1275 -790 
Q 1522 -856 1778 -856 
Q 2344 -856 2625 -561 
Q 2906 -266 2906 331 
L 2906 616 
Q 2728 306 2450 153 
Q 2172 0 1784 0 
Q 1141 0 747 490 
Q 353 981 353 1791 
Q 353 2603 747 3093 
Q 1141 3584 1784 3584 
Q 2172 3584 2450 3431 
Q 2728 3278 2906 2969 
L 2906 3500 
L 3481 3500 
L 3481 434 
z
" transform="scale(0.015625)"/>
       <path id="DejaVuSans-69" d="M 603 3500 
L 1178 3500 
L 1178 0 
L 603 0 
L 603 3500 
z
M 603 4863 
L 1178 4863 
L 1178 4134 
L 603 4134 
L 603 4863 
z
" transform="scale(0.015625)"/>
      </defs>
      <use xlink:href="#DejaVuSans-49"/>
      <use xlink:href="#DejaVuSans-50" x="29.492188"/>
      <use xlink:href="#DejaVuSans-76" x="89.794922"/>
      <use xlink:href="#DejaVuSans-36" x="148.974609"/>
      <use xlink:href="#DejaVuSans-20" x="212.597656"/>
      <use xlink:href="#DejaVuSans-61" x="244.384766"/>
      <use xlink:href="#DejaVuSans-73" x="305.664062"/>
      <use xlink:href="#DejaVuSans-20" x="357.763672"/>
      <use xlink:href="#DejaVuSans-25" x="389.550781"/>
      <use xlink:href="#DejaVuSans-20" x="484.570312"/>
      <use xlink:href="#DejaVuSans-6f" x="516.357422"/>
      <use xlink:href="#DejaVuSans-66" x="577.539062"/>
      <use xlink:href="#DejaVuSans-20" x="612.744141"/>
      <use xlink:href="#DejaVuSans-74" x="644.53125"/>
      <use xlink:href="#DejaVuSans-6f" x="683.740234"/>
      <use xlink:href="#DejaVuSans-74" x="744.921875"/>
      <use xlink:href="#DejaVuSans-61" x="784.130859"/>
      <use xlink:href="#DejaVuSans-6c" x="845.410156"/>
      <use xlink:href="#DejaVuSans-20" x="873.193359"/>
      <use xlink:href="#DejaVuSans-47" x="904.980469"/>
      <use xlink:href="#DejaVuSans-6f" x="982.470703"/>
      <use xlink:href="#DejaVuSans-6f" x="1043.652344"/>
      <use xlink:href="#DejaVuSans-67" x="1104.833984"/>
      <use xlink:href="#DejaVuSans-6c" x="1168.310547"/>
      <use xlink:href="#DejaVuSans-65" x="1196.09375"/>
      <use xlink:href="#DejaVuSans-20" x="1257.617188"/>
      <use xlink:href="#DejaVuSans-74" x="1289.404297"/>
      <use xlink:href="#DejaVuSans-72" x="1328.613281"/>
      <use xlink:href="#DejaVuSans-61" x="1369.726562"/>
      <use xlink:href="#DejaVuSans-66" x="1431.005859"/>
      <use xlink:href="#DejaVuSans-66" x="1466.210938"/>
      <use xlink:href="#DejaVuSans-69" x="1501.416016"/>
      <use xlink:href="#DejaVuSans-63" x="1529.199219"/>
     </g>
    </g>
   </g>
   <g id="line2d_15">
    <path d="M 73.832727 294.563894 
L 75.514875 294.394336 
L 75.935412 294.555795 
L 77.61756 294.555087 
L 79.299708 294.40791 
L 79.720245 294.277761 
L 80.981856 294.299352 
L 82.243467 294.267987 
L 82.664004 294.341265 
L 84.346152 294.19153 
L 86.0283 294.249965 
L 87.710447 294.172443 
L 91.074743 294.239659 
L 91.49528 294.345296 
L 93.597965 294.31963 
L 94.859576 294.269212 
L 96.541724 294.170653 
L 97.382798 294.179652 
L 97.803335 293.912326 
L 100.326557 293.820626 
L 101.167631 293.785439 
L 103.270316 293.870545 
L 105.373 293.92238 
L 107.475685 293.888742 
L 108.737296 294.083488 
L 109.998907 294.029664 
L 110.419444 294.015679 
L 111.260518 294.20501 
L 113.363203 294.222312 
L 114.624814 294.341227 
L 116.727499 294.252134 
L 117.568573 294.14423 
L 117.98911 294.055286 
L 118.830184 294.050904 
L 121.773943 293.986274 
L 122.615016 294.079408 
L 123.035553 293.948221 
L 125.558775 294.191552 
L 128.923071 294.016255 
L 129.343608 294.02212 
L 129.764145 293.897253 
L 130.605219 294.001698 
L 131.446293 293.807831 
L 131.86683 293.856026 
L 132.287367 293.737008 
L 132.707904 293.789118 
L 133.548978 293.678369 
L 134.810589 293.662604 
L 135.231126 293.799249 
L 136.913274 293.830114 
L 137.333811 293.894118 
L 138.174885 293.805981 
L 138.595422 293.625688 
L 140.277569 293.526953 
L 140.698106 293.625303 
L 144.482939 293.30042 
L 145.324013 293.099672 
L 146.165087 293.251319 
L 148.688309 292.855732 
L 150.790994 292.713833 
L 151.211531 292.503838 
L 151.632068 292.58476 
L 152.052605 292.398871 
L 154.575827 292.014086 
L 156.678512 291.520292 
L 157.940122 291.39335 
L 158.360659 291.497043 
L 160.463344 291.107024 
L 161.724955 290.721662 
L 162.145492 290.779966 
L 162.566029 290.434019 
L 162.986566 290.267141 
L 164.668714 290.065926 
L 165.089251 290.228192 
L 165.509788 290.070418 
L 166.350862 289.983605 
L 166.771399 289.731263 
L 167.612473 289.562886 
L 169.294621 289.545347 
L 170.135695 289.330246 
L 171.397306 289.171752 
L 171.817843 288.964526 
L 172.23838 288.944538 
L 172.658917 289.051691 
L 174.341065 288.276986 
L 174.761602 288.294733 
L 176.443749 287.807588 
L 176.864286 287.481123 
L 177.284823 287.40622 
L 177.70536 287.204188 
L 178.125897 287.23709 
L 179.387508 286.740979 
L 179.808045 286.828704 
L 180.228582 286.584511 
L 180.649119 286.541593 
L 182.751804 285.394375 
L 183.592878 285.045117 
L 184.433952 284.433436 
L 185.695563 282.921683 
L 186.1161 283.162471 
L 186.536637 283.204126 
L 187.798248 281.767898 
L 188.218785 281.595682 
L 188.639322 280.869726 
L 189.480396 280.64327 
L 190.32147 280.160063 
L 190.742007 280.210421 
L 192.003618 279.417673 
L 192.424154 279.249295 
L 192.844691 278.937908 
L 193.685765 278.864125 
L 194.106302 278.158723 
L 194.526839 278.149426 
L 194.947376 277.373886 
L 195.367913 276.972238 
L 196.208987 277.087517 
L 196.629524 276.800379 
L 197.050061 276.358069 
L 197.891135 275.843184 
L 198.311672 275.382891 
L 198.732209 275.665098 
L 200.414357 274.761991 
L 200.834894 274.428063 
L 201.255431 273.055833 
L 201.675968 273.316136 
L 202.517042 272.384327 
L 202.937579 272.344319 
L 203.358116 272.747148 
L 204.619727 271.830548 
L 205.040264 271.20872 
L 205.881338 271.256662 
L 206.301875 270.583827 
L 206.722412 270.537515 
L 207.142949 266.972982 
L 207.563486 269.31826 
L 207.984023 270.715382 
L 208.40456 270.036506 
L 208.825097 269.657135 
L 209.245634 269.595998 
L 209.666171 268.703136 
L 210.086707 268.423367 
L 211.348318 266.485437 
L 211.768855 265.220085 
L 212.189392 264.497858 
L 212.609929 263.517326 
L 213.030466 262.869942 
L 213.451003 263.903841 
L 213.87154 263.745617 
L 214.292077 263.774241 
L 214.712614 263.941263 
L 215.133151 264.253133 
L 215.553688 264.134147 
L 215.974225 261.854026 
L 216.394762 262.191286 
L 217.656373 260.989811 
L 218.07691 260.8281 
L 218.917984 260.899198 
L 219.338521 259.175622 
L 219.759058 259.112849 
L 220.600132 257.752644 
L 221.020669 258.216391 
L 221.441206 256.09338 
L 221.861743 256.595185 
L 222.28228 255.162026 
L 222.702817 254.475754 
L 223.123354 253.445292 
L 223.543891 254.160886 
L 223.964428 253.076903 
L 224.384965 251.273565 
L 224.805502 252.182279 
L 225.226039 252.44133 
L 225.646576 251.881561 
L 226.067113 250.232653 
L 226.48765 250.690689 
L 226.908187 249.234869 
L 227.328724 249.570229 
L 228.169797 247.606717 
L 228.590334 246.612051 
L 229.851945 246.299764 
L 230.272482 245.151234 
L 230.693019 245.290997 
L 231.113556 244.860147 
L 231.534093 243.721825 
L 231.95463 243.432913 
L 232.375167 242.160109 
L 232.795704 241.287559 
L 233.216241 241.133782 
L 233.636778 241.348554 
L 234.057315 240.793359 
L 234.477852 238.428253 
L 235.318926 239.815545 
L 235.739463 239.549053 
L 236.580537 239.469197 
L 237.001074 239.516184 
L 237.842148 239.230825 
L 238.262685 237.900134 
L 238.683222 237.837141 
L 239.103759 236.657021 
L 239.524296 236.653704 
L 239.944833 236.474432 
L 241.206444 233.099187 
L 241.626981 231.111206 
L 242.047518 232.468797 
L 242.468055 231.899776 
L 242.888592 230.72362 
L 243.309129 230.985423 
L 243.729666 228.474353 
L 244.150203 228.842759 
L 244.57074 228.534859 
L 244.991276 226.782725 
L 245.411813 226.766142 
L 245.83235 225.460117 
L 246.252887 225.774584 
L 246.673424 224.741586 
L 247.093961 224.192826 
L 247.514498 224.484363 
L 247.935035 223.777033 
L 248.355572 222.673557 
L 248.776109 223.026307 
L 249.196646 222.502961 
L 249.617183 220.766432 
L 250.03772 220.04024 
L 250.458257 220.10817 
L 250.878794 218.077464 
L 251.299331 218.438588 
L 252.140405 216.019917 
L 252.560942 213.60638 
L 252.981479 213.844928 
L 253.822553 212.487781 
L 254.24309 210.967133 
L 254.663627 211.170423 
L 255.084164 210.533137 
L 255.504701 208.128759 
L 255.925238 207.285174 
L 256.345775 203.298824 
L 256.766312 205.890606 
L 257.186849 205.420704 
L 257.607386 206.038793 
L 258.027923 205.31298 
L 258.868997 206.491761 
L 259.289534 206.256766 
L 259.710071 205.223454 
L 260.130608 205.534215 
L 260.971682 204.218158 
L 261.392219 203.127657 
L 261.812756 202.954716 
L 262.233293 202.217553 
L 262.653829 199.56672 
L 263.074366 200.398543 
L 263.494903 196.84379 
L 263.91544 197.118957 
L 264.335977 195.186728 
L 264.756514 193.995768 
L 265.177051 193.278697 
L 265.597588 192.78409 
L 266.018125 191.80536 
L 266.438662 190.012789 
L 266.859199 187.057346 
L 267.279736 187.803662 
L 268.961884 184.43763 
L 269.382421 183.88405 
L 269.802958 183.905004 
L 270.223495 184.209993 
L 270.644032 183.162713 
L 271.064569 181.694943 
L 271.485106 183.009864 
L 271.905643 183.035243 
L 272.32618 184.206688 
L 272.746717 182.924681 
L 273.167254 180.9315 
L 273.587791 181.1869 
L 274.008328 180.326408 
L 275.269939 178.957967 
L 276.111013 177.952802 
L 276.53155 177.84392 
L 276.952087 192.418452 
L 277.372624 175.993677 
L 277.793161 175.205332 
L 278.213698 171.222387 
L 278.634235 174.917629 
L 279.475309 174.377682 
L 279.895846 174.375069 
L 280.316382 173.880561 
L 280.736919 173.636863 
L 281.157456 174.990643 
L 281.577993 175.848889 
L 281.99853 175.640251 
L 282.419067 174.477515 
L 282.839604 174.561007 
L 284.101215 173.583275 
L 284.521752 170.971127 
L 284.942289 172.002149 
L 285.362826 169.235669 
L 285.783363 170.402188 
L 286.2039 168.080099 
L 286.624437 166.630203 
L 287.044974 167.4851 
L 287.465511 165.707036 
L 287.886048 164.526427 
L 288.306585 164.275387 
L 288.727122 165.240577 
L 289.147659 165.749713 
L 290.40927 163.142128 
L 290.829807 163.7418 
L 291.250344 164.605998 
L 291.670881 164.773574 
L 292.091418 162.795823 
L 292.511955 162.059166 
L 292.932492 160.62548 
L 293.353029 160.27224 
L 293.773566 160.071454 
L 294.194103 160.221486 
L 294.61464 160.032375 
L 295.455714 158.062976 
L 295.876251 159.211956 
L 296.296788 155.572234 
L 296.717325 155.665851 
L 297.137862 155.22201 
L 297.558398 152.567388 
L 297.978935 151.770889 
L 298.399472 151.292146 
L 298.820009 151.295633 
L 299.240546 149.856444 
L 299.661083 149.758336 
L 300.502157 147.482822 
L 300.922694 148.984789 
L 301.343231 149.952214 
L 302.184305 147.648355 
L 302.604842 148.778315 
L 303.025379 148.571708 
L 303.445916 149.063564 
L 303.866453 147.324586 
L 304.28699 146.717836 
L 304.707527 148.032564 
L 305.128064 146.145311 
L 305.548601 146.296315 
L 305.969138 145.757978 
L 306.810212 145.549285 
L 307.230749 141.821366 
L 307.651286 141.712775 
L 308.071823 142.006991 
L 308.49236 142.908688 
L 309.333434 138.558297 
L 309.753971 136.639158 
L 310.174508 136.152047 
L 310.595045 136.319359 
L 311.015582 135.969096 
L 311.436119 134.062734 
L 311.856656 135.634822 
L 312.277193 133.961001 
L 312.69773 135.514261 
L 313.118267 134.400791 
L 313.538804 133.726786 
L 313.959341 133.67058 
L 314.379878 133.746516 
L 314.800415 132.295033 
L 315.220951 132.459951 
L 315.641488 134.030875 
L 316.062025 133.498584 
L 316.482562 134.142958 
L 316.903099 134.406326 
L 317.323636 132.393092 
L 317.744173 133.598828 
L 318.16471 133.922828 
L 318.585247 133.1746 
L 319.005784 132.717432 
L 319.426321 130.914044 
L 319.846858 131.294662 
L 320.267395 130.902161 
L 320.687932 131.032327 
L 321.108469 129.983624 
L 321.529006 129.524879 
L 321.949543 128.197489 
L 322.37008 127.617293 
L 322.790617 128.437536 
L 323.211154 128.681415 
L 323.631691 128.736282 
L 324.472765 126.848623 
L 324.893302 127.301151 
L 325.313839 125.92466 
L 325.734376 126.520412 
L 326.154913 126.262958 
L 326.57545 125.31087 
L 326.995987 125.543542 
L 327.416524 126.197582 
L 327.837061 125.899418 
L 328.257598 125.915001 
L 328.678135 123.441848 
L 329.519209 121.681048 
L 329.939746 121.971772 
L 330.360283 121.356203 
L 330.78082 119.307442 
L 331.201357 119.970185 
L 331.621894 117.030226 
L 332.042431 119.383054 
L 332.462967 117.435307 
L 332.883504 114.772761 
L 333.304041 115.551634 
L 333.724578 113.889141 
L 334.145115 112.767325 
L 334.565652 112.874642 
L 334.986189 112.033017 
L 335.406726 114.142899 
L 335.827263 112.385175 
L 336.2478 113.044255 
L 336.668337 113.430946 
L 337.929948 110.734114 
L 338.350485 112.979433 
L 338.771022 113.024421 
L 339.191559 112.031842 
L 339.612096 112.594285 
L 340.032633 113.957939 
L 340.45317 112.89738 
L 340.873707 110.429723 
L 341.294244 114.526323 
L 341.714781 113.422803 
L 342.135318 111.825532 
L 342.555855 113.165442 
L 342.976392 113.262255 
L 343.396929 111.074148 
L 343.817466 109.984454 
L 344.238003 107.986793 
L 344.65854 108.960966 
L 345.079077 108.222919 
L 345.499614 108.450556 
L 345.920151 109.075915 
L 346.340688 107.479035 
L 346.761225 106.824309 
L 347.181762 108.008147 
L 347.602299 107.713086 
L 348.022836 105.151367 
L 348.443373 104.58787 
L 348.86391 102.844428 
L 349.284447 105.707396 
L 349.704984 106.656904 
L 350.12552 105.723474 
L 350.546057 105.544966 
L 350.966594 105.691357 
L 351.387131 100.641807 
L 351.807668 104.017459 
L 352.228205 102.072281 
L 353.069279 103.056284 
L 353.489816 98.273824 
L 353.910353 97.662615 
L 354.33089 95.73882 
L 354.751427 95.662252 
L 355.171964 97.402378 
L 355.592501 95.002689 
L 356.013038 94.530986 
L 356.433575 93.291743 
L 356.854112 92.84358 
L 357.274649 91.435581 
L 357.695186 91.646091 
L 358.115723 95.059752 
L 358.53626 93.21891 
L 358.956797 92.05333 
L 359.377334 94.270106 
L 359.797871 93.044228 
L 360.218408 92.612703 
L 360.638945 90.842827 
L 361.480019 93.659693 
L 361.900556 93.350333 
L 362.321093 93.791972 
L 362.74163 93.652044 
L 363.162167 92.065075 
L 363.582704 93.899976 
L 364.003241 91.695461 
L 364.423778 90.915853 
L 364.844315 90.834173 
L 365.685389 88.089658 
L 366.105926 85.027193 
L 366.526463 87.115781 
L 366.947 91.016762 
L 367.367537 86.622652 
L 367.788073 86.416232 
L 368.20861 89.364921 
L 369.049684 85.440285 
L 369.470221 85.387824 
L 369.890758 86.216341 
L 370.311295 86.182533 
L 370.731832 86.816996 
L 371.152369 79.358187 
L 371.572906 78.56193 
L 371.993443 78.784279 
L 372.41398 77.259891 
L 372.834517 76.759904 
L 373.255054 74.108653 
L 373.675591 77.477441 
L 374.096128 78.790978 
L 374.516665 75.909049 
L 374.937202 77.80808 
L 375.357739 74.578655 
L 375.778276 72.934354 
L 376.198813 68.945296 
L 376.61935 70.018682 
L 377.039887 64.108305 
L 377.460424 66.502574 
L 378.301498 70.14323 
L 378.722035 68.420083 
L 379.142572 68.756217 
L 379.563109 69.479125 
L 379.983646 69.331943 
L 380.404183 71.432776 
L 380.82472 70.453469 
L 381.245257 68.918214 
L 381.665794 69.272327 
L 382.086331 67.698954 
L 382.506868 68.098702 
L 382.927405 66.174462 
L 383.347942 67.532827 
L 383.768479 71.197989 
L 384.189016 68.731535 
L 384.609553 64.992277 
L 385.030089 68.091136 
L 385.450626 66.290982 
L 385.871163 68.160685 
L 386.2917 66.472352 
L 386.712237 66.448345 
L 387.973848 59.948438 
L 388.394385 62.860672 
L 388.814922 62.637988 
L 389.235459 61.180257 
L 389.655996 61.609899 
L 390.076533 64.094094 
L 390.917607 61.947873 
L 391.338144 63.520862 
L 391.758681 62.635896 
L 392.179218 60.921101 
L 392.599755 60.954448 
L 393.440829 58.109095 
L 393.861366 59.35049 
L 394.281903 59.330354 
L 394.70244 56.628087 
L 395.122977 58.020134 
L 395.964051 57.78666 
L 396.384588 56.28578 
L 396.805125 57.999696 
L 397.225662 58.050137 
L 397.646199 55.033611 
L 398.066736 54.996667 
L 398.487273 53.568 
L 398.487273 53.568 
" clip-path="url(#pb87d2b5db2)" style="fill: none; stroke: #1f77b4; stroke-width: 1.5; stroke-linecap: square"/>
   </g>
   <g id="line2d_16">
    <path d="M 73.832727 294.826301 
L 75.514875 294.686795 
L 75.935412 294.803551 
L 85.187226 294.547586 
L 86.0283 294.538718 
L 88.130984 294.472139 
L 90.233669 294.540305 
L 91.915817 294.53723 
L 97.803335 294.454342 
L 98.223872 294.257768 
L 114.204277 294.423285 
L 116.306962 294.485488 
L 121.773943 294.197746 
L 126.820386 294.378813 
L 132.707904 293.925631 
L 133.548978 293.868293 
L 134.390052 293.804888 
L 135.231126 293.903535 
L 136.0722 293.916499 
L 136.913274 293.968351 
L 138.174885 294.003395 
L 139.015959 293.697769 
L 139.857033 293.736832 
L 140.277569 293.817529 
L 141.959717 293.714747 
L 142.380254 293.769943 
L 142.800791 293.635451 
L 144.903476 293.587525 
L 145.74455 293.416171 
L 146.165087 293.414145 
L 146.585624 293.523516 
L 152.473142 292.839424 
L 153.314216 292.725347 
L 153.734753 292.716776 
L 154.15529 292.573218 
L 154.996364 292.580708 
L 156.257975 292.164996 
L 157.940122 291.873339 
L 158.360659 291.999425 
L 160.042807 291.869413 
L 165.930325 290.799229 
L 166.350862 290.846227 
L 167.191936 290.577687 
L 168.03301 290.470902 
L 168.453547 290.22543 
L 169.715158 290.504821 
L 170.556232 290.312019 
L 170.976769 290.255346 
L 171.397306 290.01682 
L 171.817843 290.034682 
L 172.23838 289.857991 
L 173.499991 289.767707 
L 173.920528 289.515756 
L 175.182138 289.260988 
L 175.602675 289.263739 
L 176.023212 289.102346 
L 176.443749 289.085944 
L 178.125897 288.585489 
L 178.966971 288.34497 
L 179.387508 288.090196 
L 179.808045 288.234748 
L 181.069656 287.726162 
L 181.91073 287.302247 
L 182.331267 286.981026 
L 183.172341 286.75788 
L 183.592878 286.860409 
L 184.433952 286.70364 
L 185.695563 285.504054 
L 186.1161 285.215894 
L 186.536637 285.295114 
L 186.957174 285.140513 
L 188.218785 284.239788 
L 188.639322 284.087379 
L 189.480396 283.359726 
L 189.900933 283.260025 
L 190.32147 281.886752 
L 190.742007 282.014968 
L 191.162544 282.929804 
L 191.583081 282.83046 
L 192.424154 282.128479 
L 192.844691 282.762827 
L 193.265228 281.941464 
L 193.685765 281.890947 
L 194.106302 281.635646 
L 194.526839 281.038516 
L 194.947376 281.068859 
L 195.78845 280.154281 
L 196.208987 280.181862 
L 196.629524 279.977518 
L 197.050061 279.235666 
L 197.470598 279.486162 
L 197.891135 278.924658 
L 198.311672 279.093091 
L 198.732209 278.890389 
L 199.152746 278.973111 
L 199.573283 278.340438 
L 199.99382 278.364824 
L 200.414357 277.719367 
L 200.834894 277.831505 
L 201.675968 276.469181 
L 202.096505 276.199586 
L 202.517042 276.113849 
L 202.937579 275.801172 
L 203.358116 275.770181 
L 203.778653 275.889869 
L 204.19919 275.867169 
L 205.460801 275.420176 
L 205.881338 275.56571 
L 206.722412 275.189623 
L 207.142949 274.541228 
L 207.563486 273.085852 
L 207.984023 274.172219 
L 208.40456 274.529856 
L 208.825097 274.154406 
L 209.245634 274.372192 
L 209.666171 273.828863 
L 210.507244 273.126332 
L 210.927781 272.429869 
L 211.348318 271.993084 
L 211.768855 271.078055 
L 212.189392 268.369934 
L 212.609929 266.635338 
L 213.030466 269.20498 
L 213.451003 269.882614 
L 213.87154 269.901251 
L 214.292077 270.172091 
L 214.712614 270.152587 
L 215.133151 270.515063 
L 215.553688 269.767033 
L 215.974225 269.898566 
L 216.394762 268.501483 
L 216.815299 268.074559 
L 217.235836 268.31728 
L 218.07691 266.924107 
L 218.497447 267.301188 
L 218.917984 267.264832 
L 219.338521 266.815862 
L 219.759058 266.164216 
L 220.179595 265.825166 
L 220.600132 265.873224 
L 221.441206 263.853291 
L 221.861743 263.25917 
L 222.28228 262.939892 
L 222.702817 261.776135 
L 223.123354 261.373065 
L 224.384965 259.026414 
L 224.805502 259.424817 
L 225.646576 259.032976 
L 226.48765 258.280647 
L 226.908187 258.60771 
L 227.74926 258.192966 
L 228.590334 257.155234 
L 229.851945 256.624793 
L 230.272482 256.628268 
L 230.693019 255.540271 
L 231.113556 255.430681 
L 231.534093 255.460497 
L 231.95463 254.903282 
L 233.216241 252.144391 
L 233.636778 251.623993 
L 234.057315 249.112731 
L 234.477852 245.569685 
L 234.898389 250.826637 
L 235.318926 251.972158 
L 235.739463 251.652315 
L 236.16 251.088302 
L 236.580537 251.165056 
L 237.001074 251.455533 
L 237.842148 250.268845 
L 238.683222 249.727372 
L 239.103759 249.289422 
L 239.524296 248.038868 
L 239.944833 247.74877 
L 240.36537 247.677875 
L 241.206444 246.571297 
L 241.626981 245.255931 
L 242.047518 244.436167 
L 242.468055 244.952803 
L 243.309129 243.337078 
L 243.729666 241.850716 
L 244.150203 241.418389 
L 244.57074 241.20695 
L 245.411813 238.823362 
L 245.83235 236.967051 
L 246.252887 237.779974 
L 246.673424 237.62674 
L 247.093961 236.692685 
L 247.514498 236.062263 
L 247.935035 235.900859 
L 248.355572 236.01499 
L 248.776109 237.303197 
L 249.196646 236.642683 
L 249.617183 236.938278 
L 250.03772 236.237038 
L 250.458257 236.313264 
L 250.878794 235.524552 
L 251.719868 233.318587 
L 252.140405 233.540162 
L 252.981479 230.420119 
L 253.402016 231.159429 
L 253.822553 230.584856 
L 254.24309 229.225085 
L 254.663627 229.124126 
L 255.084164 228.211513 
L 255.504701 227.691901 
L 255.925238 224.067504 
L 256.345775 215.704621 
L 256.766312 221.724928 
L 257.186849 224.934991 
L 257.607386 225.274091 
L 258.44846 224.920709 
L 258.868997 225.018801 
L 259.289534 224.973868 
L 259.710071 223.9747 
L 260.130608 223.725329 
L 260.551145 224.036573 
L 261.392219 222.867616 
L 262.233293 220.768765 
L 262.653829 218.469914 
L 263.074366 219.243263 
L 263.494903 219.128736 
L 263.91544 214.959512 
L 264.335977 215.873899 
L 265.177051 213.092143 
L 265.597588 210.415612 
L 266.018125 210.31915 
L 266.438662 209.952606 
L 267.279736 205.290379 
L 267.700273 204.981062 
L 268.12081 204.292671 
L 268.541347 203.956487 
L 269.382421 201.295748 
L 269.802958 201.067666 
L 270.223495 200.988875 
L 270.644032 202.155422 
L 271.064569 202.289777 
L 271.485106 203.279462 
L 271.905643 203.969803 
L 272.746717 204.519973 
L 273.167254 202.160227 
L 273.587791 201.565079 
L 274.008328 202.079744 
L 274.428865 201.029158 
L 274.849402 199.096099 
L 275.269939 200.778612 
L 275.690476 201.445577 
L 276.111013 199.454928 
L 276.53155 199.210076 
L 276.952087 198.089018 
L 277.372624 192.418452 
L 277.793161 194.689084 
L 278.213698 185.311164 
L 279.054772 196.446463 
L 279.475309 195.001575 
L 279.895846 196.519642 
L 280.316382 195.956123 
L 280.736919 195.862511 
L 281.157456 194.392299 
L 281.577993 196.874133 
L 281.99853 197.561426 
L 282.419067 196.917946 
L 282.839604 195.508443 
L 283.260141 195.027921 
L 283.680678 193.927684 
L 284.101215 193.851057 
L 284.521752 195.798568 
L 284.942289 194.685422 
L 285.362826 193.102489 
L 285.783363 190.877806 
L 286.2039 190.666285 
L 286.624437 189.746308 
L 287.044974 189.858688 
L 287.465511 187.490436 
L 287.886048 187.435805 
L 288.306585 185.80588 
L 288.727122 185.546406 
L 289.147659 185.049021 
L 289.568196 183.491698 
L 290.40927 183.504569 
L 291.250344 182.874438 
L 291.670881 183.81109 
L 292.091418 182.223204 
L 292.511955 181.377857 
L 292.932492 184.404767 
L 293.353029 184.555216 
L 293.773566 184.411998 
L 294.194103 184.503408 
L 294.61464 184.427104 
L 295.035177 182.911508 
L 295.455714 183.272929 
L 295.876251 183.885016 
L 296.296788 183.209463 
L 296.717325 180.108573 
L 297.137862 180.958423 
L 297.558398 180.534629 
L 297.978935 177.238241 
L 298.399472 178.851034 
L 299.661083 174.550266 
L 300.08162 161.104069 
L 300.502157 166.261666 
L 300.922694 174.018743 
L 301.343231 175.44243 
L 302.184305 174.067114 
L 302.604842 172.71833 
L 303.025379 173.726713 
L 303.445916 173.440579 
L 303.866453 174.501797 
L 304.28699 172.106056 
L 304.707527 174.222126 
L 305.548601 172.024821 
L 305.969138 171.993962 
L 306.389675 172.650434 
L 306.810212 169.904238 
L 307.230749 169.439887 
L 307.651286 167.140635 
L 308.071823 169.252192 
L 308.49236 170.595144 
L 308.912897 168.016084 
L 309.753971 160.823657 
L 310.174508 162.395559 
L 310.595045 161.100659 
L 311.015582 160.393466 
L 311.436119 158.713836 
L 311.856656 159.412226 
L 312.277193 159.607466 
L 312.69773 159.431972 
L 313.118267 158.87351 
L 313.538804 157.982834 
L 313.959341 155.496919 
L 314.379878 158.637839 
L 314.800415 159.527049 
L 315.220951 159.694334 
L 315.641488 161.107671 
L 316.062025 161.892013 
L 316.903099 161.600806 
L 317.323636 162.145738 
L 317.744173 161.831348 
L 318.16471 162.544168 
L 319.005784 159.668065 
L 319.426321 161.4783 
L 319.846858 160.863319 
L 320.267395 159.332661 
L 320.687932 159.501752 
L 321.108469 158.764567 
L 321.529006 156.46928 
L 321.949543 143.779854 
L 322.37008 143.442028 
L 322.790617 155.862656 
L 323.211154 157.60422 
L 323.631691 157.960776 
L 324.052228 156.762085 
L 324.472765 155.143131 
L 325.313839 153.32903 
L 325.734376 153.277655 
L 326.154913 153.87953 
L 326.57545 153.448367 
L 326.995987 143.763134 
L 327.416524 139.536061 
L 327.837061 137.889992 
L 328.257598 139.117275 
L 329.519209 134.816689 
L 329.939746 135.118548 
L 330.360283 137.39622 
L 330.78082 135.309033 
L 331.201357 134.512457 
L 331.621894 136.37606 
L 332.042431 137.400641 
L 332.883504 134.178837 
L 333.304041 131.111519 
L 333.724578 130.8795 
L 334.145115 129.214756 
L 334.565652 130.652681 
L 334.986189 130.454998 
L 335.406726 131.591299 
L 335.827263 130.50249 
L 336.2478 130.511566 
L 336.668337 131.470947 
L 337.088874 133.167462 
L 337.509411 132.356796 
L 337.929948 134.303385 
L 338.771022 134.440771 
L 339.191559 135.192073 
L 339.612096 133.82311 
L 340.032633 134.016335 
L 340.45317 132.933774 
L 340.873707 130.974396 
L 341.294244 133.208887 
L 341.714781 133.658565 
L 342.135318 133.439983 
L 342.555855 135.951118 
L 342.976392 133.84765 
L 343.817466 125.343696 
L 344.238003 118.579466 
L 345.079077 128.699437 
L 345.499614 127.950446 
L 345.920151 128.884732 
L 346.340688 127.72729 
L 347.181762 126.736237 
L 347.602299 126.883304 
L 348.022836 128.568107 
L 348.443373 128.151243 
L 348.86391 127.940678 
L 349.284447 125.960895 
L 349.704984 129.204718 
L 350.546057 126.150216 
L 350.966594 128.453196 
L 351.387131 127.115428 
L 351.807668 123.634342 
L 352.228205 123.976352 
L 352.648742 121.906039 
L 353.069279 120.692912 
L 353.489816 122.597582 
L 353.910353 122.982669 
L 354.751427 115.365998 
L 355.171964 115.236327 
L 355.592501 114.85952 
L 356.013038 114.088082 
L 356.433575 111.287415 
L 356.854112 112.764974 
L 357.274649 111.367117 
L 357.695186 111.474193 
L 358.115723 112.740753 
L 358.53626 115.839338 
L 358.956797 116.55782 
L 359.377334 116.609408 
L 359.797871 118.163799 
L 360.218408 115.906021 
L 361.059482 117.112762 
L 361.480019 117.394206 
L 361.900556 117.163532 
L 362.321093 116.708121 
L 362.74163 119.156669 
L 363.162167 118.030075 
L 363.582704 118.568808 
L 364.003241 116.967925 
L 364.423778 118.077364 
L 365.264852 115.346856 
L 365.685389 109.9044 
L 366.105926 97.160475 
L 366.526463 104.508628 
L 366.947 109.899546 
L 367.367537 110.249348 
L 367.788073 112.035208 
L 368.20861 110.345084 
L 368.629147 113.193568 
L 369.049684 112.187211 
L 369.470221 108.648624 
L 369.890758 110.586372 
L 370.311295 110.579733 
L 370.731832 112.954817 
L 371.152369 108.925719 
L 371.572906 102.106655 
L 371.993443 102.268027 
L 372.41398 113.007152 
L 372.834517 100.951283 
L 373.675591 97.378442 
L 374.096128 101.185823 
L 374.516665 101.002081 
L 374.937202 99.615826 
L 375.357739 96.427458 
L 375.778276 97.089305 
L 376.61935 89.239242 
L 377.039887 90.032035 
L 377.460424 89.801372 
L 377.880961 87.275554 
L 378.301498 87.181525 
L 378.722035 88.119996 
L 379.142572 86.826364 
L 379.563109 87.693011 
L 379.983646 87.798127 
L 380.404183 91.240324 
L 380.82472 92.098653 
L 381.665794 95.197374 
L 382.086331 93.068982 
L 382.506868 94.241821 
L 382.927405 94.377632 
L 383.347942 91.436179 
L 383.768479 94.739585 
L 384.189016 95.657058 
L 384.609553 92.462325 
L 385.030089 91.598165 
L 385.450626 93.961712 
L 385.871163 90.327761 
L 386.2917 93.866041 
L 386.712237 94.178284 
L 387.132774 89.670559 
L 387.973848 75.013464 
L 388.394385 82.514675 
L 388.814922 87.625603 
L 389.235459 87.548586 
L 389.655996 88.152234 
L 390.076533 86.973722 
L 390.49707 87.11158 
L 390.917607 87.857534 
L 391.758681 85.464012 
L 392.179218 88.597981 
L 393.020292 81.088769 
L 393.440829 84.92747 
L 393.861366 80.496565 
L 394.281903 83.264066 
L 394.70244 83.94377 
L 395.122977 82.608528 
L 395.543514 79.322797 
L 395.964051 84.299514 
L 396.384588 84.134755 
L 396.805125 80.589292 
L 397.225662 81.190288 
L 397.646199 80.59128 
L 398.066736 75.787746 
L 398.487273 73.352217 
L 398.487273 73.352217 
" clip-path="url(#pb87d2b5db2)" style="fill: none; stroke: #ff7f0e; stroke-width: 1.5; stroke-linecap: square"/>
   </g>
   <g id="line2d_17">
    <path d="M 73.832727 295.301919 
L 80.140782 295.271296 
L 80.561319 295.340411 
L 81.402393 295.226697 
L 81.82293 295.313829 
L 82.243467 295.212042 
L 82.664004 295.313236 
L 83.925615 295.210153 
L 95.70065 295.275375 
L 96.121187 295.232765 
L 96.541724 295.330824 
L 97.803335 295.022309 
L 98.223872 295.219477 
L 107.896222 295.272613 
L 108.316759 295.408078 
L 109.57837 295.318129 
L 110.419444 295.238882 
L 111.260518 295.369871 
L 111.681055 295.38797 
L 112.101592 295.287571 
L 112.942666 295.410373 
L 113.78374 295.428367 
L 115.045351 295.432628 
L 119.250721 295.318497 
L 120.512332 295.32038 
L 120.932869 295.387635 
L 121.773943 295.352854 
L 122.615016 295.353563 
L 123.45609 295.363677 
L 123.876627 295.461368 
L 127.240923 295.364649 
L 136.913274 295.426088 
L 137.333811 295.488 
L 138.595422 295.343876 
L 139.015959 295.440535 
L 139.857033 295.297861 
L 140.277569 295.27375 
L 140.698106 295.407847 
L 141.118643 295.409203 
L 141.53918 295.28666 
L 142.800791 295.451369 
L 143.221328 295.303643 
L 144.482939 295.282788 
L 144.903476 295.136007 
L 146.165087 295.401499 
L 147.006161 295.134887 
L 147.426698 295.223414 
L 147.847235 295.103182 
L 149.108846 295.129599 
L 149.529383 295.154539 
L 149.94992 295.316794 
L 150.790994 295.2331 
L 151.211531 294.901402 
L 151.632068 295.116679 
L 152.052605 295.016176 
L 153.314216 295.208879 
L 153.734753 295.061548 
L 154.15529 295.110249 
L 154.996364 294.876 
L 155.416901 294.93101 
L 156.257975 294.845789 
L 156.678512 294.993251 
L 157.519585 294.83205 
L 157.940122 295.084336 
L 160.883881 294.839051 
L 161.724955 294.794815 
L 162.145492 294.816318 
L 162.566029 294.594787 
L 162.986566 294.538542 
L 163.82764 294.725068 
L 164.668714 294.67969 
L 165.089251 294.949619 
L 166.771399 294.618772 
L 168.03301 294.655913 
L 168.453547 294.936792 
L 169.715158 294.465945 
L 170.556232 294.55026 
L 170.976769 294.488541 
L 171.397306 294.719258 
L 171.817843 294.494169 
L 172.658917 294.779479 
L 173.920528 294.385424 
L 175.182138 294.487722 
L 175.602675 294.268311 
L 176.023212 294.40987 
L 176.864286 294.097539 
L 177.284823 294.25304 
L 177.70536 294.142747 
L 178.125897 294.215926 
L 178.966971 294.16598 
L 179.808045 294.158281 
L 180.228582 294.046571 
L 180.649119 294.169137 
L 181.91073 293.992726 
L 182.331267 294.198141 
L 183.172341 294.040032 
L 183.592878 293.749033 
L 184.013415 293.616298 
L 184.433952 293.294121 
L 185.275026 293.248507 
L 185.695563 292.981955 
L 186.1161 293.510903 
L 186.536637 293.473338 
L 186.957174 293.169881 
L 187.377711 293.114745 
L 187.798248 292.702087 
L 188.218785 292.920219 
L 188.639322 292.346673 
L 189.480396 292.847869 
L 189.900933 292.741842 
L 190.32147 293.837637 
L 190.742007 293.759779 
L 191.162544 292.541798 
L 191.583081 292.408036 
L 192.003618 292.455649 
L 192.424154 292.685142 
L 192.844691 291.739407 
L 193.265228 292.532677 
L 193.685765 292.537504 
L 194.106302 292.087402 
L 194.526839 292.675236 
L 194.947376 291.869353 
L 195.367913 291.989997 
L 195.78845 292.439115 
L 196.208987 292.46998 
L 196.629524 292.387186 
L 197.050061 292.686729 
L 197.470598 292.186406 
L 197.891135 292.482851 
L 198.311672 291.854126 
L 198.732209 292.339035 
L 199.152746 292.053166 
L 199.573283 292.458839 
L 199.99382 292.257411 
L 200.414357 292.606949 
L 201.255431 291.578898 
L 201.675968 292.411281 
L 202.096505 292.276168 
L 202.517042 291.834803 
L 202.937579 292.107472 
L 203.358116 292.541293 
L 203.778653 292.094058 
L 204.19919 291.836126 
L 204.619727 291.709947 
L 205.040264 291.159618 
L 205.460801 291.425824 
L 205.881338 291.255277 
L 206.301875 290.782333 
L 206.722412 290.912218 
L 207.142949 287.99608 
L 207.563486 291.796734 
L 207.984023 292.107489 
L 208.40456 291.070976 
L 208.825097 291.067055 
L 209.666171 290.438599 
L 210.086707 290.484004 
L 210.507244 290.190381 
L 210.927781 290.322979 
L 211.768855 289.706356 
L 212.189392 291.69225 
L 212.609929 292.446314 
L 213.030466 289.229288 
L 213.451003 289.585553 
L 214.292077 289.166476 
L 214.712614 289.353001 
L 215.133151 289.302396 
L 215.553688 289.93144 
L 215.974225 287.519786 
L 216.394762 289.254129 
L 216.815299 289.24603 
L 217.235836 288.541248 
L 217.656373 288.907259 
L 218.07691 289.468319 
L 218.497447 289.114668 
L 218.917984 289.198692 
L 219.338521 287.924087 
L 219.759058 288.512958 
L 220.179595 288.093722 
L 220.600132 287.443746 
L 221.020669 288.945724 
L 221.441206 287.804415 
L 221.861743 288.900341 
L 222.28228 287.786459 
L 222.702817 288.263944 
L 223.123354 287.636553 
L 223.543891 289.162105 
L 223.964428 288.83173 
L 224.384965 287.811476 
L 225.226039 288.734797 
L 225.646576 288.412911 
L 226.067113 287.201349 
L 226.48765 287.974368 
L 226.908187 286.191484 
L 227.328724 286.750242 
L 227.74926 285.846091 
L 228.590334 285.021143 
L 229.431408 285.177451 
L 229.851945 285.239297 
L 230.272482 284.087291 
L 230.693019 285.315052 
L 231.113556 284.993792 
L 231.534093 283.825653 
L 231.95463 284.093957 
L 232.375167 283.831034 
L 232.795704 283.947165 
L 233.636778 285.288887 
L 234.057315 287.244953 
L 234.477852 288.422894 
L 234.898389 283.842209 
L 235.318926 283.407713 
L 235.739463 283.461064 
L 236.16 283.953002 
L 236.580537 283.868467 
L 237.001074 283.624977 
L 237.842148 284.526306 
L 238.262685 283.405868 
L 238.683222 283.674095 
L 239.103759 282.931924 
L 239.524296 284.179162 
L 239.944833 284.289987 
L 240.36537 283.168067 
L 241.206444 282.092216 
L 241.626981 281.4196 
L 242.047518 283.596956 
L 242.468055 282.511298 
L 242.888592 282.168975 
L 243.309129 283.21267 
L 243.729666 282.187963 
L 244.150203 282.988696 
L 244.57074 282.892235 
L 244.991276 282.410603 
L 245.411813 283.507106 
L 245.83235 284.057392 
L 246.252887 283.558936 
L 246.673424 282.679171 
L 247.093961 283.064467 
L 247.514498 283.986426 
L 247.935035 283.4405 
L 248.776109 281.287436 
L 249.196646 281.424603 
L 249.617183 279.39248 
L 250.458257 279.359231 
L 250.878794 278.117238 
L 251.299331 279.531601 
L 251.719868 279.322826 
L 252.140405 278.04408 
L 252.560942 277.366819 
L 252.981479 278.989134 
L 253.402016 277.56039 
L 254.24309 277.306374 
L 255.084164 277.885949 
L 255.504701 276.001184 
L 255.925238 278.781995 
L 256.345775 283.158529 
L 257.186849 276.050038 
L 257.607386 276.329027 
L 258.027923 275.748376 
L 258.44846 276.53738 
L 258.868997 277.037285 
L 259.289534 276.847223 
L 259.710071 276.81308 
L 260.130608 277.373211 
L 260.551145 276.451648 
L 260.971682 276.349635 
L 261.392219 275.824366 
L 261.812756 276.856278 
L 262.233293 277.013113 
L 262.653829 276.661131 
L 263.074366 276.719606 
L 263.494903 273.279379 
L 263.91544 277.723771 
L 264.335977 274.877154 
L 264.756514 274.928183 
L 265.177051 275.75088 
L 265.597588 277.932804 
L 266.018125 277.050535 
L 266.438662 275.624509 
L 266.859199 275.092261 
L 267.279736 278.077609 
L 267.700273 277.5231 
L 268.12081 277.532583 
L 268.541347 276.601356 
L 268.961884 277.565134 
L 269.382421 278.152627 
L 269.802958 278.401663 
L 270.223495 278.785444 
L 270.644032 276.571616 
L 271.064569 274.969492 
L 271.485106 275.294727 
L 271.905643 274.629766 
L 272.32618 275.578922 
L 272.746717 273.969033 
L 273.167254 274.335599 
L 273.587791 275.186147 
L 274.008328 273.81099 
L 274.428865 274.359667 
L 274.849402 275.792222 
L 275.269939 273.74368 
L 275.690476 272.637766 
L 276.111013 274.0622 
L 276.53155 274.198169 
L 276.952087 289.89376 
L 277.372624 279.139551 
L 277.793161 276.080573 
L 278.213698 281.475549 
L 278.634235 280.087268 
L 279.054772 273.732144 
L 279.475309 274.940433 
L 279.895846 273.419752 
L 280.316382 273.488764 
L 280.736919 273.338677 
L 281.157456 276.16267 
L 281.577993 274.539081 
L 281.99853 273.64315 
L 282.419067 273.123894 
L 282.839604 274.61689 
L 283.260141 274.784592 
L 283.680678 275.537739 
L 284.101215 275.296545 
L 284.521752 270.736885 
L 284.942289 272.881053 
L 285.362826 271.697506 
L 285.783363 275.088708 
L 286.2039 272.97814 
L 286.624437 272.44822 
L 287.465511 273.780926 
L 287.886048 272.654948 
L 288.727122 275.258497 
L 289.147659 276.265018 
L 289.568196 276.953129 
L 290.40927 275.201884 
L 291.250344 277.295886 
L 291.670881 276.526809 
L 292.091418 276.136945 
L 292.511955 276.245634 
L 292.932492 271.785039 
L 293.353029 271.28135 
L 293.773566 271.223782 
L 294.194103 271.282404 
L 294.61464 271.169596 
L 295.035177 271.708817 
L 295.455714 270.354372 
L 295.876251 270.891266 
L 296.296788 267.927097 
L 296.717325 271.121604 
L 297.137862 269.827912 
L 297.558398 267.597084 
L 297.978935 270.096974 
L 298.399472 268.005438 
L 298.820009 269.383664 
L 299.240546 269.427659 
L 299.661083 270.772395 
L 300.08162 282.910108 
L 300.922694 270.530372 
L 301.343231 270.074109 
L 301.763768 269.80077 
L 302.184305 269.145567 
L 302.604842 271.62431 
L 303.025379 270.409321 
L 303.445916 271.18731 
L 303.866453 268.387115 
L 304.28699 270.176105 
L 305.128064 268.72347 
L 305.548601 269.835819 
L 305.969138 269.328342 
L 306.389675 268.621874 
L 306.810212 271.209373 
L 307.230749 267.945805 
L 307.651286 270.136465 
L 308.071823 268.319125 
L 308.49236 267.877869 
L 308.912897 267.980376 
L 309.753971 271.379826 
L 310.174508 269.320814 
L 310.595045 270.783026 
L 311.015582 271.139955 
L 311.436119 270.913224 
L 311.856656 271.786922 
L 312.277193 269.917861 
L 312.69773 271.646615 
L 313.118267 271.091607 
L 313.538804 271.308278 
L 313.959341 273.737986 
L 314.800415 268.332309 
L 315.220951 268.329942 
L 315.641488 268.48753 
L 316.062025 267.170896 
L 316.482562 267.946277 
L 316.903099 268.369846 
L 317.323636 265.81168 
L 317.744173 267.331806 
L 318.16471 266.942985 
L 319.005784 268.613692 
L 319.426321 265.000069 
L 320.267395 267.133826 
L 320.687932 267.0949 
L 321.108469 266.783382 
L 321.529006 268.619925 
L 321.949543 279.98196 
L 322.37008 279.739591 
L 322.790617 268.139205 
L 323.211154 266.641521 
L 323.631691 266.339831 
L 324.052228 266.679222 
L 324.472765 267.269818 
L 324.893302 268.752473 
L 325.313839 268.159956 
L 325.734376 268.807082 
L 326.154913 267.947754 
L 326.57545 267.426829 
L 326.995987 277.344734 
L 327.416524 282.225846 
L 327.837061 283.573751 
L 328.678135 281.221203 
L 329.519209 282.428685 
L 329.939746 282.41755 
L 330.360283 279.524309 
L 330.78082 279.562735 
L 331.201357 281.022054 
L 331.621894 276.218492 
L 332.042431 277.546739 
L 332.462967 277.115467 
L 332.883504 276.15825 
L 333.304041 280.004441 
L 333.724578 278.573967 
L 334.145115 279.116895 
L 334.565652 277.786286 
L 334.986189 277.142345 
L 335.406726 278.115925 
L 335.827263 277.447011 
L 336.2478 278.097014 
L 336.668337 277.524325 
L 337.088874 274.987596 
L 337.509411 275.080757 
L 337.929948 271.995055 
L 338.350485 274.132096 
L 338.771022 274.147976 
L 339.191559 272.404094 
L 339.612096 274.335501 
L 340.032633 275.505929 
L 340.45317 275.527932 
L 340.873707 275.019653 
L 341.294244 276.881762 
L 342.135318 273.949875 
L 342.555855 272.77865 
L 342.976392 274.978931 
L 343.396929 276.558421 
L 343.817466 280.205084 
L 344.238003 284.971652 
L 345.079077 275.087808 
L 345.499614 276.064435 
L 346.761225 275.229153 
L 347.181762 276.836236 
L 347.602299 276.394107 
L 348.022836 272.147585 
L 348.443373 272.000952 
L 348.86391 270.468076 
L 349.284447 275.310827 
L 349.704984 273.016511 
L 350.12552 273.803901 
L 350.546057 274.959075 
L 350.966594 272.802487 
L 351.387131 269.090706 
L 351.807668 275.947443 
L 352.228205 273.660255 
L 352.648742 276.200635 
L 353.069279 277.927697 
L 353.489816 271.240568 
L 353.910353 270.244271 
L 354.33089 272.072078 
L 354.751427 275.86058 
L 355.171964 277.730377 
L 355.592501 275.707495 
L 356.013038 276.007229 
L 356.433575 277.568654 
L 356.854112 275.642931 
L 357.274649 275.632789 
L 357.695186 275.736224 
L 358.115723 277.883324 
L 358.53626 272.943898 
L 358.956797 271.059835 
L 359.377334 273.225023 
L 359.797871 270.444755 
L 360.218408 272.271008 
L 360.638945 269.919119 
L 361.480019 271.829813 
L 361.900556 271.751126 
L 362.321093 272.648177 
L 362.74163 270.059701 
L 363.162167 269.599325 
L 363.582704 270.895494 
L 364.003241 270.291862 
L 364.423778 268.402814 
L 364.844315 269.780442 
L 365.264852 269.762371 
L 365.685389 273.749583 
L 366.105926 283.431044 
L 366.526463 278.171478 
L 366.947 276.681542 
L 367.367537 271.937629 
L 367.788073 269.945349 
L 368.20861 274.584163 
L 368.629147 269.767143 
L 369.049684 268.817399 
L 369.470221 272.303526 
L 369.890758 271.194295 
L 370.311295 271.167125 
L 370.731832 269.426505 
L 371.152369 265.996794 
L 371.572906 272.0196 
L 371.993443 272.080578 
L 372.41398 259.817065 
L 372.834517 271.372946 
L 373.255054 270.310307 
L 373.675591 275.663325 
L 374.516665 270.471293 
L 374.937202 273.756579 
L 375.357739 273.715522 
L 375.778276 271.409374 
L 376.198813 271.536173 
L 376.61935 276.343765 
L 377.039887 269.640596 
L 377.460424 272.265528 
L 377.880961 276.540087 
L 378.301498 278.52603 
L 378.722035 275.864413 
L 379.142572 277.494179 
L 379.983646 277.098142 
L 380.404183 275.756777 
L 380.82472 273.919142 
L 381.245257 270.948823 
L 381.665794 269.639278 
L 382.086331 270.194297 
L 382.506868 269.421207 
L 382.927405 267.361156 
L 383.347942 271.660974 
L 383.768479 272.02273 
L 384.189016 268.638803 
L 384.609553 268.094277 
L 385.030089 272.057296 
L 385.450626 267.893596 
L 385.871163 273.39725 
L 386.2917 268.170636 
L 386.712237 267.834386 
L 387.132774 269.97482 
L 387.553311 274.414303 
L 387.973848 280.4993 
L 388.814922 270.576711 
L 389.235459 269.195997 
L 389.655996 269.021991 
L 390.076533 272.684698 
L 390.917607 269.654664 
L 391.338144 272.529801 
L 391.758681 272.73621 
L 392.179218 267.887446 
L 392.599755 272.084081 
L 393.020292 274.177501 
L 393.440829 268.74595 
L 393.861366 274.418251 
L 394.70244 268.248642 
L 395.543514 274.096601 
L 395.964051 269.051472 
L 396.384588 267.715351 
L 396.805125 272.97473 
L 397.225662 272.424175 
L 397.646199 270.006657 
L 398.066736 274.773247 
L 398.487273 275.780109 
L 398.487273 275.780109 
" clip-path="url(#pb87d2b5db2)" style="fill: none; stroke: #2ca02c; stroke-width: 1.5; stroke-linecap: square"/>
   </g>
   <g id="patch_3">
    <path d="M 57.6 307.584 
L 57.6 41.472 
" style="fill: none; stroke: #000000; stroke-width: 0.8; stroke-linejoin: miter; stroke-linecap: square"/>
   </g>
   <g id="patch_4">
    <path d="M 414.72 307.584 
L 414.72 41.472 
" style="fill: none; stroke: #000000; stroke-width: 0.8; stroke-linejoin: miter; stroke-linecap: square"/>
   </g>
   <g id="patch_5">
    <path d="M 57.6 307.584 
L 414.72 307.584 
" style="fill: none; stroke: #000000; stroke-width: 0.8; stroke-linejoin: miter; stroke-linecap: square"/>
   </g>
   <g id="patch_6">
    <path d="M 57.6 41.472 
L 414.72 41.472 
" style="fill: none; stroke: #000000; stroke-width: 0.8; stroke-linejoin: miter; stroke-linecap: square"/>
   </g>
   <g id="legend_1">
    <g id="patch_7">
     <path d="M 64.6 93.506375 
L 186.25625 93.506375 
Q 188.25625 93.506375 188.25625 91.506375 
L 188.25625 48.472 
Q 188.25625 46.472 186.25625 46.472 
L 64.6 46.472 
Q 62.6 46.472 62.6 48.472 
L 62.6 91.506375 
Q 62.6 93.506375 64.6 93.506375 
z
" style="fill: #ffffff; opacity: 0.8; stroke: #cccccc; stroke-linejoin: miter"/>
    </g>
    <g id="line2d_18">
     <path d="M 66.6 54.570438 
L 76.6 54.570438 
L 86.6 54.570438 
" style="fill: none; stroke: #1f77b4; stroke-width: 1.5; stroke-linecap: square"/>
    </g>
    <g id="text_17">
     <!-- Weekly maximum -->
     <g transform="translate(94.6 58.070438) scale(0.1 -0.1)">
      <defs>
       <path id="DejaVuSans-57" d="M 213 4666 
L 850 4666 
L 1831 722 
L 2809 4666 
L 3519 4666 
L 4500 722 
L 5478 4666 
L 6119 4666 
L 4947 0 
L 4153 0 
L 3169 4050 
L 2175 0 
L 1381 0 
L 213 4666 
z
" transform="scale(0.015625)"/>
       <path id="DejaVuSans-6b" d="M 581 4863 
L 1159 4863 
L 1159 1991 
L 2875 3500 
L 3609 3500 
L 1753 1863 
L 3688 0 
L 2938 0 
L 1159 1709 
L 1159 0 
L 581 0 
L 581 4863 
z
" transform="scale(0.015625)"/>
       <path id="DejaVuSans-79" d="M 2059 -325 
Q 1816 -950 1584 -1140 
Q 1353 -1331 966 -1331 
L 506 -1331 
L 506 -850 
L 844 -850 
Q 1081 -850 1212 -737 
Q 1344 -625 1503 -206 
L 1606 56 
L 191 3500 
L 800 3500 
L 1894 763 
L 2988 3500 
L 3597 3500 
L 2059 -325 
z
" transform="scale(0.015625)"/>
       <path id="DejaVuSans-6d" d="M 3328 2828 
Q 3544 3216 3844 3400 
Q 4144 3584 4550 3584 
Q 5097 3584 5394 3201 
Q 5691 2819 5691 2113 
L 5691 0 
L 5113 0 
L 5113 2094 
Q 5113 2597 4934 2840 
Q 4756 3084 4391 3084 
Q 3944 3084 3684 2787 
Q 3425 2491 3425 1978 
L 3425 0 
L 2847 0 
L 2847 2094 
Q 2847 2600 2669 2842 
Q 2491 3084 2119 3084 
Q 1678 3084 1418 2786 
Q 1159 2488 1159 1978 
L 1159 0 
L 581 0 
L 581 3500 
L 1159 3500 
L 1159 2956 
Q 1356 3278 1631 3431 
Q 1906 3584 2284 3584 
Q 2666 3584 2933 3390 
Q 3200 3197 3328 2828 
z
" transform="scale(0.015625)"/>
       <path id="DejaVuSans-78" d="M 3513 3500 
L 2247 1797 
L 3578 0 
L 2900 0 
L 1881 1375 
L 863 0 
L 184 0 
L 1544 1831 
L 300 3500 
L 978 3500 
L 1906 2253 
L 2834 3500 
L 3513 3500 
z
" transform="scale(0.015625)"/>
       <path id="DejaVuSans-75" d="M 544 1381 
L 544 3500 
L 1119 3500 
L 1119 1403 
Q 1119 906 1312 657 
Q 1506 409 1894 409 
Q 2359 409 2629 706 
Q 2900 1003 2900 1516 
L 2900 3500 
L 3475 3500 
L 3475 0 
L 2900 0 
L 2900 538 
Q 2691 219 2414 64 
Q 2138 -91 1772 -91 
Q 1169 -91 856 284 
Q 544 659 544 1381 
z
M 1991 3584 
L 1991 3584 
z
" transform="scale(0.015625)"/>
      </defs>
      <use xlink:href="#DejaVuSans-57"/>
      <use xlink:href="#DejaVuSans-65" x="93.001953"/>
      <use xlink:href="#DejaVuSans-65" x="154.525391"/>
      <use xlink:href="#DejaVuSans-6b" x="216.048828"/>
      <use xlink:href="#DejaVuSans-6c" x="273.958984"/>
      <use xlink:href="#DejaVuSans-79" x="301.742188"/>
      <use xlink:href="#DejaVuSans-20" x="360.921875"/>
      <use xlink:href="#DejaVuSans-6d" x="392.708984"/>
      <use xlink:href="#DejaVuSans-61" x="490.121094"/>
      <use xlink:href="#DejaVuSans-78" x="551.400391"/>
      <use xlink:href="#DejaVuSans-69" x="610.580078"/>
      <use xlink:href="#DejaVuSans-6d" x="638.363281"/>
      <use xlink:href="#DejaVuSans-75" x="735.775391"/>
      <use xlink:href="#DejaVuSans-6d" x="799.154297"/>
     </g>
    </g>
    <g id="line2d_19">
     <path d="M 66.6 69.248563 
L 76.6 69.248563 
L 86.6 69.248563 
" style="fill: none; stroke: #ff7f0e; stroke-width: 1.5; stroke-linecap: square"/>
    </g>
    <g id="text_18">
     <!-- Weekly minimum -->
     <g transform="translate(94.6 72.748563) scale(0.1 -0.1)">
      <defs>
       <path id="DejaVuSans-6e" d="M 3513 2113 
L 3513 0 
L 2938 0 
L 2938 2094 
Q 2938 2591 2744 2837 
Q 2550 3084 2163 3084 
Q 1697 3084 1428 2787 
Q 1159 2491 1159 1978 
L 1159 0 
L 581 0 
L 581 3500 
L 1159 3500 
L 1159 2956 
Q 1366 3272 1645 3428 
Q 1925 3584 2291 3584 
Q 2894 3584 3203 3211 
Q 3513 2838 3513 2113 
z
" transform="scale(0.015625)"/>
      </defs>
      <use xlink:href="#DejaVuSans-57"/>
      <use xlink:href="#DejaVuSans-65" x="93.001953"/>
      <use xlink:href="#DejaVuSans-65" x="154.525391"/>
      <use xlink:href="#DejaVuSans-6b" x="216.048828"/>
      <use xlink:href="#DejaVuSans-6c" x="273.958984"/>
      <use xlink:href="#DejaVuSans-79" x="301.742188"/>
      <use xlink:href="#DejaVuSans-20" x="360.921875"/>
      <use xlink:href="#DejaVuSans-6d" x="392.708984"/>
      <use xlink:href="#DejaVuSans-69" x="490.121094"/>
      <use xlink:href="#DejaVuSans-6e" x="517.904297"/>
      <use xlink:href="#DejaVuSans-69" x="581.283203"/>
      <use xlink:href="#DejaVuSans-6d" x="609.066406"/>
      <use xlink:href="#DejaVuSans-75" x="706.478516"/>
      <use xlink:href="#DejaVuSans-6d" x="769.857422"/>
     </g>
    </g>
    <g id="line2d_20">
     <path d="M 66.6 83.926688 
L 76.6 83.926688 
L 86.6 83.926688 
" style="fill: none; stroke: #2ca02c; stroke-width: 1.5; stroke-linecap: square"/>
    </g>
    <g id="text_19">
     <!-- Weekly range -->
     <g transform="translate(94.6 87.426688) scale(0.1 -0.1)">
      <use xlink:href="#DejaVuSans-57"/>
      <use xlink:href="#DejaVuSans-65" x="93.001953"/>
      <use xlink:href="#DejaVuSans-65" x="154.525391"/>
      <use xlink:href="#DejaVuSans-6b" x="216.048828"/>
      <use xlink:href="#DejaVuSans-6c" x="273.958984"/>
      <use xlink:href="#DejaVuSans-79" x="301.742188"/>
      <use xlink:href="#DejaVuSans-20" x="360.921875"/>
      <use xlink:href="#DejaVuSans-72" x="392.708984"/>
      <use xlink:href="#DejaVuSans-61" x="433.822266"/>
      <use xlink:href="#DejaVuSans-6e" x="495.101562"/>
      <use xlink:href="#DejaVuSans-67" x="558.480469"/>
      <use xlink:href="#DejaVuSans-65" x="621.957031"/>
     </g>
    </g>
   </g>
  </g>
 </g>
 <defs>
  <clipPath id="pb87d2b5db2">
   <rect x="57.6" y="41.472" width="357.12" height="266.112"/>
  </clipPath>
 </defs>
</svg>
